<?xml version="1.0" encoding="utf-8"?>
<!-- Generator: Adobe Illustrator 29.6.1, SVG Export Plug-In . SVG Version: 9.03 Build 0)  -->
<svg version="1.1" id="Livello_1" xmlns="http://www.w3.org/2000/svg" xmlns:xlink="http://www.w3.org/1999/xlink" x="0px" y="0px"
	 width="78.5px" height="780px" viewBox="0 0 78.5 725" style="enable-background:new 0 0 78.5 725;" xml:space="preserve">
<style type="text/css">
	.st0{fill:#87CEEB;}
	.st1{fill:#005CB8;}
	.st2{fill:#00CC00;}
	.st3{fill:#FFFF00;}
	.st4{fill:#FFA500;}
	.st5{fill:#FF0000;}
	.st6{fill:#FD089F;}
	.st7{fill:#B922C7;}
	.st8{fill:#611269;}
	.st9{fill:#39322E;}
	.st10{fill:none;}
	.st11{fill:none;stroke:#3C3430;stroke-miterlimit:9.8;}
	.st12{enable-background:new    ;}
	.st13{fill:#FFFFFF;}
	.st14{fill:#3C3430;}
	.st15{fill:none;stroke:#FFFFFF;stroke-width:2;stroke-linecap:round;stroke-miterlimit:10;}
	.st16{fill:none;stroke:#3C3430;stroke-width:2;stroke-miterlimit:9.8;}
</style>
<g>
	<path class="st0" d="M2,647.4h72.9v67.8c0,4.4-4.8,8-10.6,8H13.1c-6.3,0-11.4-3.8-11.4-8.5v-67.3C1.7,647.4,2,647.4,2,647.4z"/>
	<rect x="1.8" y="571.8" class="st1" width="72.9" height="75.6"/>
	<rect x="1.8" y="496.1" class="st2" width="72.9" height="75.7"/>
	<rect x="1.8" y="420.6" class="st3" width="72.9" height="75.6"/>
	<rect x="1.8" y="344.9" class="st4" width="72.9" height="75.7"/>
	<rect x="1.8" y="269.3" class="st5" width="72.9" height="75.6"/>
	<rect x="1.8" y="193.8" class="st6" width="72.9" height="75.6"/>
	<rect x="1.8" y="118.2" class="st7" width="72.9" height="75.6"/>
	<path class="st8" d="M8.4,42.7h59.3c4.2,0,7.5,2.5,7.5,5.6v70.2H1.8V47.7c0-2.7,2.9-4.8,6.6-4.8l0,0V42.7z"/>
</g>
<circle class="st9" cx="40.7" cy="20.7" r="19.8"/>
<rect x="8.8" y="679.6" class="st10" width="15.4" height="11.8"/>
<line class="st11" x1="3.7" y1="647.8" x2="19" y2="647.8"/>
<g class="st12">
	<g class="st12">
		<g class="st12">
			<path class="st13" d="M37.4,718.3h-1.9v-7.2h1.9v0.4c0.7-0.4,1.2-0.6,1.7-0.6c0.7,0,1.3,0.2,1.8,0.7c0.8-0.5,1.7-0.7,2.4-0.7
				s1.6,0.2,2,0.8c0.4,0.6,0.6,1.4,0.6,2.6v4H44v-3.8c0-0.6,0-1.1-0.2-1.3c-0.1-0.2-0.4-0.5-0.8-0.5c-0.5,0-0.7,0-1.1,0.2h-0.2
				c0,0.8,0,1.3,0,1.7v3.7h-1.9v-3.7c0-0.7,0-1.2-0.2-1.6c-0.2-0.4-0.4-0.5-0.8-0.5c-0.5,0-0.7,0-1.1,0.2h-0.1v5.4V718.3z"/>
		</g>
	</g>
</g>
<g class="st12">
	<g class="st12">
		<g class="st12">
			<path class="st13" d="M27.9,642.2c0.6-0.8,1.6-1.2,2.8-1.2c1.2,0,2.2,0.4,2.8,1.2s1,2,1,3.8c0,1.8-0.4,3-1,3.7s-1.6,1.1-2.8,1.1
				c-1.2,0-2.2-0.4-2.8-1.1c-0.6-0.7-1-2-1-3.7C26.9,644.3,27.3,643,27.9,642.2z M32.2,645.9c0-1.2-0.1-2-0.4-2.5
				c-0.2-0.5-0.7-0.7-1.2-0.7s-1,0.2-1.3,0.7c-0.2,0.5-0.4,1.3-0.4,2.5s0.1,2,0.4,2.5c0.2,0.5,0.7,0.7,1.3,0.7c0.6,0,1-0.2,1.2-0.7
				C32.1,647.9,32.2,647.1,32.2,645.9z"/>
			<path class="st13" d="M35.5,650.7v-2.4h2v2.4H35.5z"/>
			<path class="st13" d="M44.3,641.2v9.5h-2v-7.2l-2,1.3l-1-1.4l3.1-2h1.8L44.3,641.2z"/>
			<path class="st13" d="M47.7,642.2c0.6-0.8,1.6-1.2,2.8-1.2s2.2,0.4,2.8,1.2c0.6,0.8,1,2,1,3.8c0,1.8-0.4,3-1,3.7
				c-0.6,0.7-1.6,1.1-2.8,1.1s-2.2-0.4-2.8-1.1c-0.6-0.7-1-2-1-3.7C46.7,644.3,47.1,643,47.7,642.2z M52,645.9c0-1.2-0.1-2-0.4-2.5
				c-0.2-0.5-0.7-0.7-1.2-0.7c-0.5,0-1,0.2-1.3,0.7c-0.2,0.5-0.4,1.3-0.4,2.5s0.1,2,0.4,2.5c0.2,0.5,0.7,0.7,1.3,0.7
				c0.6,0,1-0.2,1.2-0.7C51.9,647.9,52,647.1,52,645.9z"/>
		</g>
	</g>
</g>
<g class="st12">
	<g class="st12">
		<g class="st12">
			<path class="st14" d="M29.9,672.6c-0.8,0.2-1.6,0.2-2.3,0.2c-0.7,0-1.2,0-1.7-0.2c-0.4-0.1-0.7-0.5-1-0.8s-0.4-0.8-0.5-1.3
				c0-0.5-0.1-1.1-0.1-1.9c0-1.6,0.2-2.6,0.7-3.2c0.5-0.6,1.3-1,2.4-1s1.4,0,2.4,0.4v1.3c-0.8-0.1-1.4-0.2-2-0.2s-0.8,0-1.1,0.2
				c-0.2,0.1-0.4,0.4-0.5,0.8c0,0.4-0.1,1.1-0.1,2c0,1,0,1.6,0.4,1.9c0.2,0.4,0.6,0.6,1.3,0.6c0.7,0,1.3,0,2.2-0.1v1.3H29.9z"/>
			<path class="st14" d="M35.8,668.6v2.5c0,0.2,0,0.4,0,0.4s0.1,0.1,0.2,0.1v1.2c-0.5,0-0.8,0-1.1,0c-0.2,0-0.5-0.1-0.7-0.4
				c-0.6,0.2-1.2,0.5-1.8,0.5c-1.2,0-1.8-0.6-1.8-1.9c0-1.3,0.1-1.1,0.5-1.3c0.4-0.2,0.8-0.5,1.6-0.5H34v-0.5c0-0.2,0-0.4-0.1-0.5
				c0,0-0.2-0.1-0.6-0.1H31v-1c0.8-0.2,1.7-0.4,2.4-0.4c0.7,0,1.3,0.1,1.7,0.5c0.4,0.4,0.5,0.8,0.5,1.6L35.8,668.6z M33,670.2
				c-0.5,0-0.7,0.2-0.7,0.7c0,0.5,0.2,0.6,0.6,0.6c0.4,0,0.6,0,1-0.1H34v-1.3h-1.1L33,670.2z"/>
			<path class="st14" d="M37.3,672.7v-8.4h1.6v8.4H37.3z"/>
			<path class="st14" d="M42.1,672.7h-1.6v-6h1.6v0.4c0.6-0.4,1.1-0.5,1.4-0.5c0.6,0,1.2,0.2,1.4,0.6c0.7-0.4,1.4-0.6,2-0.6
				s1.3,0.2,1.7,0.7c0.4,0.5,0.5,1.2,0.5,2.2v3.2h-1.6v-3.2c0-0.5,0-0.8-0.1-1.1c0-0.2-0.4-0.4-0.7-0.4c-0.4,0-0.6,0-1,0.1h-0.2
				c0,0.6,0,1.1,0,1.4v3.1H44v-3.1c0-0.6,0-1-0.1-1.2c0-0.2-0.4-0.4-0.7-0.4c-0.4,0-0.6,0-1,0.1h-0.1L42.1,672.7L42.1,672.7z"/>
			<path class="st14" d="M50.9,667.4c0.5-0.6,1.1-0.8,2.2-0.8s1.7,0.2,2.2,0.8s0.6,1.3,0.6,2.3c0,2.2-1,3.1-2.8,3.1
				s-2.8-1.1-2.8-3.1S50.5,667.9,50.9,667.4z M52.2,671c0.1,0.2,0.5,0.5,0.8,0.5s0.7-0.1,0.8-0.5c0.1-0.4,0.2-0.7,0.2-1.3
				s0-1.1-0.2-1.3c-0.2-0.2-0.5-0.5-0.8-0.5s-0.7,0.1-0.8,0.5c-0.1,0.4-0.2,0.7-0.2,1.3S52,670.8,52.2,671z"/>
		</g>
		<g class="st12">
			<path class="st14" d="M29.3,683.6c-1.2,0-2.2-0.4-2.6-1c-0.5-0.7-0.7-1.7-0.7-3.1s0.2-2.5,0.7-3.2c0.5-0.7,1.4-1.1,2.6-1.1
				c1.2,0,2.2,0.4,2.6,1.1c0.5,0.7,0.7,1.8,0.7,3.2s-0.5,3-1.3,3.6l1,1.6l-1.6,0.7l-1.1-1.8c0,0-0.2,0-0.5,0H29.3z M28,681.6
				c0.2,0.4,0.7,0.6,1.3,0.6s1.1-0.2,1.3-0.6c0.2-0.4,0.4-1.1,0.4-2.2s-0.1-1.7-0.4-2.2c-0.2-0.5-0.7-0.7-1.3-0.7s-1.1,0.2-1.3,0.7
				c-0.2,0.5-0.4,1.2-0.4,2.2S27.6,681.1,28,681.6z"/>
			<path class="st14" d="M37.4,677.5H39v6h-1.6v-0.4c-0.6,0.4-1.1,0.5-1.4,0.5c-0.8,0-1.4-0.2-1.7-0.7c-0.2-0.5-0.5-1.2-0.5-2.3
				v-3.1h1.6v3.1c0,0.6,0,1,0.1,1.2c0,0.2,0.4,0.4,0.7,0.4s0.7,0,1-0.1h0.1v-4.6L37.4,677.5z"/>
			<path class="st14" d="M45.1,679.4v2.5c0,0.2,0,0.4,0,0.4s0.1,0.1,0.2,0.1v1.2c-0.5,0-0.8,0-1.1,0c-0.2,0-0.5-0.1-0.7-0.4
				c-0.6,0.2-1.2,0.5-1.8,0.5c-1.2,0-1.8-0.6-1.8-1.9c0-1.3,0.1-1.1,0.5-1.3c0.4-0.2,0.8-0.5,1.6-0.5h1.3v-0.5c0-0.2,0-0.4-0.1-0.5
				c0,0-0.2-0.1-0.6-0.1h-2.3v-1c0.8-0.2,1.7-0.4,2.4-0.4c0.7,0,1.3,0.1,1.7,0.5c0.4,0.4,0.5,0.8,0.5,1.6L45.1,679.4z M42.4,681
				c-0.5,0-0.7,0.2-0.7,0.7c0,0.5,0.2,0.6,0.6,0.6s0.6,0,1-0.1h0.2v-1.3h-1.1V681z"/>
			<path class="st14" d="M51,678.9c-1-0.1-1.7-0.2-2-0.2s-0.6,0-0.7,0c0,0-0.1,0.2-0.1,0.4c0,0.1,0,0.2,0.2,0.4
				c0.1,0,0.6,0.1,1.2,0.2c0.6,0,1.1,0.4,1.3,0.6c0.2,0.2,0.4,0.7,0.4,1.3c0,1.3-0.8,1.9-2.4,1.9c-1.6,0-1.2,0-1.9-0.2h-0.4v-1.4
				c1,0.1,1.7,0.2,2,0.2c0.4,0,0.6,0,0.8,0c0.1,0,0.2-0.2,0.2-0.4c0-0.1,0-0.2-0.2-0.4c-0.1,0-0.5-0.1-1.2-0.2s-1.1-0.2-1.4-0.5
				c-0.4-0.2-0.5-0.7-0.5-1.3s0.2-1.1,0.6-1.4c0.5-0.4,1-0.5,1.7-0.5c0.7,0,1.1,0,1.9,0.2h0.4v1.4L51,678.9z"/>
			<path class="st14" d="M52.3,676.8v-1.7h1.6v1.7H52.3z M52.3,683.5v-6h1.6v6H52.3z"/>
		</g>
		<g class="st12">
			<path class="st14" d="M31.3,694.2c-0.8,0.2-1.6,0.2-2.3,0.2c-0.7,0-1.2,0-1.7-0.2c-0.4-0.1-0.7-0.5-1-0.8s-0.4-0.8-0.5-1.3
				c0-0.5-0.1-1.1-0.1-1.9c0-1.6,0.2-2.6,0.7-3.2c0.5-0.6,1.3-1,2.4-1s1.4,0,2.4,0.4v1.3c-0.8-0.1-1.4-0.2-2-0.2s-0.8,0-1.1,0.2
				c-0.2,0.1-0.4,0.4-0.5,0.8c0,0.4-0.1,1.1-0.1,2c0,1,0,1.6,0.4,1.9c0.2,0.4,0.6,0.6,1.3,0.6c0.7,0,1.3,0,2.2-0.1v1.3H31.3z"/>
			<path class="st14" d="M37.1,690.2v2.5c0,0.2,0,0.4,0,0.4s0.1,0.1,0.2,0.1v1.2c-0.5,0-0.8,0-1.1,0c-0.2,0-0.5-0.1-0.7-0.4
				c-0.6,0.2-1.2,0.5-1.8,0.5c-1.2,0-1.8-0.6-1.8-1.9c0-1.3,0.1-1.1,0.5-1.3c0.4-0.2,0.8-0.5,1.6-0.5h1.3v-0.5c0-0.2,0-0.4-0.1-0.5
				c0,0-0.2-0.1-0.6-0.1h-2.3v-1c0.8-0.2,1.7-0.4,2.4-0.4s1.3,0.1,1.7,0.5c0.4,0.4,0.5,0.8,0.5,1.6L37.1,690.2z M34.3,691.8
				c-0.5,0-0.7,0.2-0.7,0.7s0.2,0.6,0.6,0.6c0.4,0,0.6,0,1-0.1h0.1v-1.3h-1.1L34.3,691.8z"/>
			<path class="st14" d="M38.6,694.3v-8.4h1.6v8.4H38.6z"/>
			<path class="st14" d="M43.4,694.3h-1.6v-6h1.6v0.4c0.6-0.4,1.1-0.5,1.4-0.5c0.6,0,1.2,0.2,1.4,0.6c0.7-0.4,1.4-0.6,2-0.6
				c0.6,0,1.3,0.2,1.7,0.7c0.4,0.5,0.5,1.2,0.5,2.2v3.2H49v-3.2c0-0.5,0-0.8-0.1-1.1c0-0.2-0.4-0.4-0.7-0.4c-0.4,0-0.6,0-1,0.1H47
				c0,0.6,0,1.1,0,1.4v3.1h-1.6v-3.1c0-0.6,0-1-0.1-1.2c0-0.2-0.4-0.4-0.7-0.4c-0.4,0-0.6,0-1,0.1h-0.1v4.6L43.4,694.3z"/>
			<path class="st14" d="M52.2,689c0.5-0.6,1.1-0.8,2.2-0.8c1.1,0,1.7,0.2,2.2,0.8c0.5,0.6,0.6,1.3,0.6,2.3c0,2.2-1,3.1-2.8,3.1
				c-1.8,0-2.8-1.1-2.8-3.1C51.6,689.3,51.8,689.5,52.2,689z M53.5,692.6c0.1,0.2,0.5,0.5,0.8,0.5c0.4,0,0.7-0.1,0.8-0.5
				s0.2-0.7,0.2-1.3c0-0.6,0-1.1-0.2-1.3s-0.5-0.5-0.8-0.5c-0.4,0-0.7,0.1-0.8,0.5s-0.2,0.7-0.2,1.3
				C53.3,691.9,53.3,692.4,53.5,692.6z"/>
		</g>
	</g>
</g>
<line class="st11" x1="59.6" y1="647.8" x2="74.2" y2="647.8"/>
<g class="st12">
	<g class="st12">
		<g class="st12">
			<path class="st13" d="M30.4,599H29v2.6h-1.8v-9h3.4c2.2,0,3.2,1.1,3.2,3.1s-0.2,1.8-0.8,2.4c-0.6,0.6-1.3,0.8-2.4,0.8H30.4z
				 M28.9,597.5h1.4c1,0,1.3-0.6,1.3-1.7s0-1-0.4-1.2c-0.2-0.2-0.6-0.4-1.1-0.4h-1.4v3.2H28.9z"/>
			<path class="st13" d="M35.1,595.8c0.5-0.6,1.2-1,2.3-1c1.1,0,1.9,0.4,2.3,1c0.5,0.6,0.7,1.4,0.7,2.5c0,2.3-1,3.5-3,3.5
				s-3-1.2-3-3.5S34.6,596.4,35.1,595.8z M36.4,599.9c0.1,0.4,0.5,0.5,1,0.5s0.8-0.1,1-0.5c0.2-0.4,0.2-0.8,0.2-1.4s0-1.2-0.2-1.4
				c-0.2-0.2-0.5-0.5-1-0.5s-0.8,0.1-1,0.5c-0.2,0.4-0.2,0.8-0.2,1.4S36.2,599.6,36.4,599.9z"/>
			<path class="st13" d="M44.2,595c0.5,0,1.1,0,1.8,0.2h0.4v1.4c-0.7,0-1.2,0-1.6,0c-0.6,0-1,0.1-1.2,0.4c-0.2,0.2-0.2,0.7-0.2,1.4
				s0,1.2,0.2,1.4c0.2,0.2,0.6,0.4,1.2,0.4h1.6v1.3c-1,0.2-1.7,0.2-2.2,0.2c-1,0-1.7-0.2-2.2-0.8c-0.5-0.6-0.6-1.4-0.6-2.6
				c0-1.2,0.2-2,0.6-2.6c0.5-0.6,1.2-0.8,2.2-0.8V595z"/>
			<path class="st13" d="M47.9,595.8c0.5-0.6,1.2-1,2.3-1s1.9,0.4,2.3,1c0.5,0.6,0.7,1.4,0.7,2.5c0,2.3-1,3.5-3,3.5s-3-1.2-3-3.5
				S47.5,596.4,47.9,595.8z M49.3,599.9c0.2,0.4,0.5,0.5,1,0.5s0.8-0.1,1-0.5c0.2-0.4,0.2-0.8,0.2-1.4s0-1.2-0.2-1.4
				c-0.2-0.2-0.5-0.5-1-0.5s-0.8,0.1-1,0.5s-0.2,0.8-0.2,1.4S49,599.6,49.3,599.9z"/>
		</g>
		<g class="st12">
			<path class="st13" d="M22,612.5v-9h3.1l1.6,6.6l1.6-6.6h3.1v9h-1.8v-7h-0.2l-1.8,6.6h-1.8l-1.8-6.6h-0.2v7h-1.8H22z"/>
			<path class="st13" d="M33.5,606.6c0.5-0.6,1.2-1,2.3-1c1.1,0,1.9,0.4,2.3,1c0.5,0.6,0.7,1.4,0.7,2.5c0,2.3-1,3.5-3,3.5
				s-3-1.2-3-3.5S33.1,607.2,33.5,606.6z M34.9,610.7c0.1,0.4,0.5,0.5,1,0.5s0.8-0.1,1-0.5c0.2-0.4,0.2-0.8,0.2-1.4
				c0-0.6,0-1.2-0.2-1.4s-0.5-0.5-1-0.5s-0.8,0.1-1,0.5c-0.2,0.4-0.2,0.8-0.2,1.4C34.6,609.8,34.6,610.4,34.9,610.7z"/>
			<path class="st13" d="M44.9,607.6c-1.1-0.1-1.8-0.2-2.3-0.2c-0.5,0-0.7,0-0.8,0c-0.1,0-0.2,0.2-0.2,0.4c0,0.1,0,0.2,0.2,0.4
				c0.1,0,0.6,0.1,1.3,0.2c0.7,0.1,1.2,0.4,1.6,0.6c0.4,0.2,0.5,0.7,0.5,1.4c0,1.4-0.8,2.2-2.6,2.2c-1.8,0-1.3,0-2.2-0.2h-0.5v-1.6
				c1.1,0.1,1.8,0.2,2.3,0.2c0.5,0,0.7,0,0.8-0.1c0.1,0,0.2-0.2,0.2-0.4c0-0.1,0-0.2-0.2-0.4c-0.1,0-0.6-0.1-1.3-0.2
				c-0.7,0-1.2-0.4-1.6-0.6c-0.4-0.2-0.5-0.7-0.5-1.4s0.2-1.2,0.7-1.6s1.1-0.5,1.8-0.5s1.2,0,2.2,0.2h0.5v1.6H44.9z"/>
			<path class="st13" d="M51.1,607.6c-1.1-0.1-1.8-0.2-2.3-0.2c-0.5,0-0.7,0-0.8,0c-0.1,0-0.2,0.2-0.2,0.4c0,0.1,0,0.2,0.2,0.4
				c0.1,0,0.6,0.1,1.3,0.2c0.7,0.1,1.2,0.4,1.6,0.6c0.2,0.2,0.5,0.7,0.5,1.4c0,1.4-0.8,2.2-2.6,2.2c-1.8,0-1.3,0-2.2-0.2H46v-1.6
				c1.1,0.1,1.8,0.2,2.3,0.2c0.5,0,0.7,0,0.8-0.1c0.1,0,0.2-0.2,0.2-0.4c0-0.1,0-0.2-0.2-0.4c-0.2-0.1-0.6-0.1-1.3-0.2
				c-0.7,0-1.2-0.4-1.6-0.6c-0.4-0.2-0.5-0.7-0.5-1.4s0.2-1.2,0.7-1.6s1.1-0.5,1.8-0.5s1.2,0,2.2,0.2h0.5v1.6H51.1z"/>
			<path class="st13" d="M53,606.6c0.5-0.6,1.2-1,2.3-1s1.9,0.4,2.3,1c0.5,0.6,0.7,1.4,0.7,2.5c0,2.3-1,3.5-3,3.5s-3-1.2-3-3.5
				S52.5,607.2,53,606.6z M54.3,610.7c0.2,0.4,0.5,0.5,1,0.5c0.5,0,0.8-0.1,1-0.5c0.2-0.4,0.2-0.8,0.2-1.4c0-0.6,0-1.2-0.2-1.4
				s-0.5-0.5-1-0.5c-0.5,0-0.8,0.1-1,0.5s-0.2,0.8-0.2,1.4C54.1,609.8,54.1,610.4,54.3,610.7z"/>
		</g>
	</g>
</g>
<line class="st11" x1="3.7" y1="571.8" x2="19" y2="571.8"/>
<g class="st12">
	<g class="st12">
		<g class="st12">
			<path class="st13" d="M28.2,567c0.6-0.7,1.4-1.1,2.5-1.1s1.9,0.4,2.5,1.1c0.6,0.7,0.8,1.9,0.8,3.5s-0.2,2.8-0.8,3.5
				c-0.6,0.7-1.4,1.1-2.5,1.1s-1.9-0.4-2.5-1.1c-0.6-0.7-0.8-1.8-0.8-3.5C27.4,568.8,27.6,567.7,28.2,567z M32.2,570.5
				c0-1.1,0-1.8-0.4-2.3c-0.2-0.5-0.6-0.6-1.2-0.6c-0.6,0-1,0.2-1.2,0.6c-0.2,0.5-0.4,1.2-0.4,2.3s0,1.8,0.4,2.3
				c0.2,0.5,0.6,0.6,1.2,0.6c0.6,0,1-0.2,1.2-0.6C32,572.3,32.2,571.6,32.2,570.5z"/>
			<path class="st13" d="M35.2,574.8v-2.2h1.9v2.2H35.2z"/>
			<path class="st13" d="M44.3,566v1.6h-3.8l-0.2,1.9c0.6-0.2,1.1-0.4,1.6-0.4c1.9,0,2.9,0.8,2.9,2.6s-0.2,1.8-0.7,2.3
				c-0.5,0.5-1.2,0.8-2.2,0.8s-0.8,0-1.3,0s-1-0.1-1.2-0.2h-0.5l0.2-1.4c1.1,0.1,1.9,0.2,2.6,0.2c0.7,0,0.7,0,1-0.4
				c0.2-0.2,0.4-0.6,0.4-1s0-0.7-0.2-1s-0.5-0.2-0.8-0.2c-0.6,0-1.1,0-1.6,0.1h-0.2l-1.1-0.2l0.2-4.7h5.3L44.3,566z"/>
			<path class="st13" d="M46.3,567c0.6-0.7,1.4-1.1,2.5-1.1s1.9,0.4,2.5,1.1c0.6,0.7,0.8,1.9,0.8,3.5s-0.2,2.8-0.8,3.5
				c-0.6,0.7-1.4,1.1-2.5,1.1s-1.9-0.4-2.5-1.1c-0.6-0.7-0.8-1.8-0.8-3.5C45.5,568.8,45.7,567.7,46.3,567z M50.4,570.5
				c0-1.1,0-1.8-0.4-2.3c-0.4-0.5-0.6-0.6-1.2-0.6s-1,0.2-1.2,0.6c-0.2,0.5-0.4,1.2-0.4,2.3s0,1.8,0.4,2.3c0.2,0.5,0.6,0.6,1.2,0.6
				s1-0.2,1.2-0.6S50.4,571.6,50.4,570.5z"/>
		</g>
	</g>
</g>
<line class="st11" x1="59.4" y1="571.8" x2="74" y2="571.8"/>
<g class="st12">
	<g class="st12">
		<path class="st14" d="M22.1,537.7v-9h3.1l1.6,6.6l1.6-6.6h3.1v9h-1.8v-7h-0.2l-1.8,6.6h-1.8l-1.8-6.6h-0.2v7H22H22.1z"/>
		<path class="st14" d="M33.7,531.8c0.5-0.6,1.2-1,2.3-1c1.1,0,1.9,0.4,2.3,1c0.5,0.6,0.7,1.4,0.7,2.5c0,2.3-1,3.5-3,3.5
			s-3-1.2-3-3.5S33.2,532.4,33.7,531.8z M35,535.9c0.1,0.4,0.5,0.5,1,0.5s0.8-0.1,1-0.5c0.2-0.4,0.2-0.8,0.2-1.4
			c0-0.6,0-1.2-0.2-1.4c-0.2-0.2-0.5-0.5-1-0.5s-0.8,0.1-1,0.5c-0.2,0.4-0.2,0.8-0.2,1.4C34.7,535,34.7,535.6,35,535.9z"/>
		<path class="st14" d="M45.1,532.8c-1.1-0.1-1.8-0.2-2.3-0.2c-0.5,0-0.7,0-0.8,0c-0.1,0-0.2,0.2-0.2,0.4c0,0.1,0,0.2,0.2,0.4
			c0.1,0,0.6,0.1,1.3,0.2c0.7,0.1,1.2,0.4,1.6,0.6c0.4,0.2,0.5,0.7,0.5,1.4c0,1.4-0.8,2.2-2.6,2.2s-1.3,0-2.2-0.2H40v-1.6
			c1.1,0.1,1.8,0.2,2.3,0.2c0.5,0,0.7,0,0.8-0.1c0.1,0,0.2-0.2,0.2-0.4c0-0.1,0-0.2-0.2-0.4c-0.1,0-0.6-0.1-1.3-0.2
			c-0.7,0-1.2-0.4-1.6-0.6c-0.4-0.2-0.5-0.7-0.5-1.4c0-0.7,0.2-1.2,0.7-1.6s1.1-0.5,1.8-0.5c0.7,0,1.2,0,2.2,0.2h0.5v1.6H45.1z"/>
		<path class="st14" d="M51.2,532.8c-1.1-0.1-1.8-0.2-2.3-0.2c-0.5,0-0.7,0-0.8,0c-0.1,0-0.2,0.2-0.2,0.4c0,0.1,0,0.2,0.2,0.4
			c0.1,0,0.6,0.1,1.3,0.2c0.7,0.1,1.2,0.4,1.6,0.6c0.2,0.2,0.5,0.7,0.5,1.4c0,1.4-0.8,2.2-2.6,2.2s-1.3,0-2.2-0.2h-0.5v-1.6
			c1.1,0.1,1.8,0.2,2.3,0.2c0.5,0,0.7,0,0.8-0.1c0.1,0,0.2-0.2,0.2-0.4c0-0.1,0-0.2-0.2-0.4c-0.2-0.1-0.6-0.1-1.3-0.2
			c-0.7,0-1.2-0.4-1.6-0.6c-0.4-0.2-0.5-0.7-0.5-1.4c0-0.7,0.2-1.2,0.7-1.6c0.5-0.4,1.1-0.5,1.8-0.5s1.2,0,2.2,0.2h0.5v1.6H51.2z"/>
		<path class="st14" d="M53.1,531.8c0.5-0.6,1.2-1,2.3-1s1.9,0.4,2.3,1c0.5,0.6,0.7,1.4,0.7,2.5c0,2.3-1,3.5-3,3.5s-3-1.2-3-3.5
			S52.6,532.4,53.1,531.8z M54.4,535.9c0.2,0.4,0.5,0.5,1,0.5c0.5,0,0.8-0.1,1-0.5c0.2-0.4,0.2-0.8,0.2-1.4c0-0.6,0-1.2-0.2-1.4
			c-0.2-0.2-0.5-0.5-1-0.5c-0.5,0-0.8,0.1-1,0.5c-0.1,0.4-0.2,0.8-0.2,1.4C54.2,535,54.2,535.6,54.4,535.9z"/>
	</g>
</g>
<g class="st12">
	<g class="st12">
		<path class="st14" d="M24.7,455.5v-9h3.1l1.6,6.6l1.6-6.6h3.1v9h-1.8v-7H32l-1.8,6.6h-1.8l-1.8-6.6h-0.2v7h-1.8H24.7z"/>
		<path class="st14" d="M36.2,449.6c0.5-0.6,1.2-1,2.3-1c1.1,0,1.9,0.4,2.3,1c0.5,0.6,0.7,1.4,0.7,2.5c0,2.3-1,3.5-3,3.5
			s-3-1.2-3-3.5S35.8,450.2,36.2,449.6z M37.6,453.7c0.1,0.4,0.5,0.5,1,0.5s0.8-0.1,1-0.5c0.2-0.4,0.2-0.8,0.2-1.4
			c0-0.6,0-1.2-0.2-1.4s-0.5-0.5-1-0.5s-0.8,0.1-1,0.5c-0.2,0.4-0.2,0.8-0.2,1.4C37.3,452.9,37.3,453.5,37.6,453.7z"/>
		<path class="st14" d="M43,455.5v-9.2h1.8v9.2H43z"/>
		<path class="st14" d="M50,450.5h-1.7v2.8c0,0.2,0,0.5,0,0.6s0,0.2,0.1,0.2c0,0,0.2,0,0.4,0h1v1.4c-0.6,0.1-1.1,0.2-1.3,0.2
			c-0.8,0-1.3-0.1-1.7-0.5c-0.2-0.4-0.5-1-0.5-1.9v-2.8h-0.7V449h0.7v-1.8h1.8v1.8h1.7v1.6L50,450.5z"/>
		<path class="st14" d="M51.6,449.6c0.5-0.6,1.2-1,2.3-1s1.9,0.4,2.3,1c0.5,0.6,0.7,1.4,0.7,2.5c0,2.3-1,3.5-3,3.5s-3-1.2-3-3.5
			S51.1,450.2,51.6,449.6z M52.9,453.7c0.1,0.4,0.5,0.5,1,0.5c0.5,0,0.8-0.1,1-0.5c0.2-0.4,0.2-0.8,0.2-1.4c0-0.6,0-1.2-0.2-1.4
			s-0.5-0.5-1-0.5c-0.5,0-0.8,0.1-1,0.5c-0.2,0.4-0.2,0.8-0.2,1.4C52.7,452.9,52.7,453.5,52.9,453.7z"/>
	</g>
	<g class="st12">
		<path class="st14" d="M22.7,467.5v-9h3.1l1.6,6.6l1.6-6.6H32v9h-1.8v-7H30l-1.8,6.6h-1.8l-1.8-6.6h-0.2v7h-1.8H22.7z"/>
		<path class="st14" d="M34.2,461.6c0.5-0.6,1.2-1,2.3-1c1.1,0,1.9,0.4,2.3,1c0.5,0.6,0.7,1.4,0.7,2.5c0,2.3-1,3.5-3,3.5
			s-3-1.2-3-3.5S33.7,462.2,34.2,461.6z M35.5,465.7c0.1,0.4,0.5,0.5,1,0.5s0.8-0.1,1-0.5c0.2-0.4,0.2-0.8,0.2-1.4
			c0-0.6,0-1.2-0.2-1.4s-0.5-0.5-1-0.5s-0.8,0.1-1,0.5c-0.2,0.4-0.2,0.8-0.2,1.4C35.3,464.9,35.3,465.5,35.5,465.7z"/>
		<path class="st14" d="M45.6,462.6c-1.1-0.1-1.8-0.2-2.3-0.2c-0.5,0-0.7,0-0.8,0c-0.1,0-0.2,0.2-0.2,0.4c0,0.1,0,0.2,0.2,0.4
			c0.1,0,0.6,0.1,1.3,0.2c0.7,0.1,1.2,0.4,1.6,0.6c0.2,0.2,0.5,0.7,0.5,1.4c0,1.4-0.8,2.2-2.6,2.2c-1.8,0-1.3,0-2.2-0.2h-0.5v-1.6
			c1.1,0.1,1.8,0.2,2.3,0.2c0.5,0,0.7,0,0.8-0.1c0.1,0,0.2-0.2,0.2-0.4s0-0.2-0.2-0.4s-0.6-0.1-1.3-0.2c-0.7,0-1.2-0.4-1.6-0.6
			c-0.4-0.2-0.5-0.7-0.5-1.4s0.2-1.2,0.7-1.6s1.1-0.5,1.8-0.5s1.2,0,2.2,0.2h0.5v1.6H45.6z"/>
		<path class="st14" d="M51.7,462.6c-1.1-0.1-1.8-0.2-2.3-0.2c-0.5,0-0.7,0-0.8,0c-0.1,0-0.2,0.2-0.2,0.4c0,0.1,0,0.2,0.2,0.4
			c0.1,0,0.6,0.1,1.3,0.2c0.7,0.1,1.2,0.4,1.6,0.6s0.5,0.7,0.5,1.4c0,1.4-0.8,2.2-2.6,2.2s-1.3,0-2.2-0.2h-0.5v-1.6
			c1.1,0.1,1.8,0.2,2.3,0.2c0.5,0,0.7,0,0.8-0.1c0.1,0,0.2-0.2,0.2-0.4s0-0.2-0.2-0.4c-0.1,0-0.6-0.1-1.3-0.2
			c-0.7,0-1.2-0.4-1.6-0.6c-0.4-0.2-0.5-0.7-0.5-1.4s0.2-1.2,0.7-1.6c0.5-0.4,1.1-0.5,1.8-0.5c0.7,0,1.2,0,2.2,0.2h0.5v1.6H51.7z"/>
		<path class="st14" d="M53.6,461.6c0.5-0.6,1.2-1,2.3-1s1.9,0.4,2.3,1c0.5,0.6,0.7,1.4,0.7,2.5c0,2.3-1,3.5-3,3.5s-3-1.2-3-3.5
			S53.2,462.2,53.6,461.6z M55,465.7c0.2,0.4,0.5,0.5,1,0.5c0.5,0,0.8-0.1,1-0.5c0.2-0.4,0.2-0.8,0.2-1.4c0-0.6,0-1.2-0.2-1.4
			s-0.5-0.5-1-0.5c-0.5,0-0.8,0.1-1,0.5s-0.2,0.8-0.2,1.4C54.7,464.9,54.7,465.5,55,465.7z"/>
	</g>
</g>
<g class="st12">
	<g class="st12">
		<path class="st14" d="M20.2,383.6l2-9h3.5l2,9H26l-0.4-1.7h-3.1l-0.4,1.7h-1.8H20.2z M23.6,376.1l-1,4.3H25l-1-4.3h-0.6H23.6z"/>
		<path class="st14" d="M34.6,384.4c0,0.7-0.2,1.3-0.8,1.7c-0.6,0.4-1.3,0.6-2.4,0.6c-1.1,0-1.8-0.1-2.3-0.4
			c-0.5-0.2-0.8-0.7-0.8-1.4s0.4-1.1,1-1.6c-0.4-0.2-0.5-0.6-0.5-1s0.1-0.5,0.4-0.8v-0.2c-0.5-0.5-0.7-1.1-0.7-1.9
			c0-0.8,0.2-1.4,0.7-1.8s1.2-0.6,2-0.6s0.7,0,1.1,0.1h0.2h2.2v1.4h-1c0.2,0.2,0.2,0.5,0.2,0.8c0,0.8-0.2,1.4-0.7,1.8
			s-1.2,0.5-2.2,0.5s-0.4,0-0.6,0c0,0.2-0.1,0.4-0.1,0.6s0,0.2,0.2,0.2c0.1,0,0.5,0,1.1,0c1.1,0,1.9,0.1,2.3,0.5
			c0.4,0.2,0.6,0.8,0.6,1.6L34.6,384.4z M30,384.5c0,0.4,0.5,0.6,1.4,0.6c1,0,1.4-0.2,1.4-0.7c0-0.5,0-0.4-0.2-0.5
			c-0.2-0.1-0.5,0-1,0h-1.2c-0.2,0.1-0.4,0.4-0.4,0.6H30z M30.2,379.1c0,0.6,0.4,1,1,1s1-0.4,1-1c0-0.6-0.4-1-1-1
			S30.2,378.5,30.2,379.1z"/>
		<path class="st14" d="M35.7,376.1v-1.8h1.8v1.8H35.7z M35.7,383.6V377h1.8v6.6H35.7z"/>
		<path class="st14" d="M42.8,378.5h-1.7v2.8c0,0.2,0,0.5,0,0.6c0,0,0,0.2,0.1,0.2c0,0,0.2,0,0.4,0h1v1.4c-0.6,0.1-1.1,0.2-1.3,0.2
			c-0.8,0-1.3-0.1-1.7-0.5c-0.2-0.4-0.5-1-0.5-1.9v-2.8h-0.7v-1.6H39v-1.8h1.8v1.8h1.7v1.6L42.8,378.5z"/>
		<path class="st14" d="M48.9,379v2.8c0,0.2,0,0.4,0,0.5c0,0,0.1,0.1,0.4,0.1v1.3c-0.5,0-0.8,0-1.1,0s-0.5-0.2-0.8-0.4
			c-0.6,0.4-1.3,0.5-1.9,0.5c-1.3,0-2-0.7-2-2.2s0.2-1.2,0.6-1.4c0.4-0.2,1-0.5,1.8-0.5h1.4v-0.5c0-0.2,0-0.5-0.2-0.6
			c-0.1,0-0.4-0.1-0.6-0.1h-2.5v-1.1c1-0.2,1.8-0.4,2.6-0.4s1.4,0.1,1.8,0.5s0.6,1,0.6,1.7V379z M46,380.8c-0.5,0-0.7,0.4-0.7,0.8
			c0,0.5,0.2,0.7,0.6,0.7c0.4,0,0.7,0,1.1-0.1h0.2v-1.4C47.2,380.8,46,380.8,46,380.8z"/>
		<path class="st14" d="M54.3,378.5h-1.7v2.8c0,0.2,0,0.5,0,0.6c0,0,0,0.2,0.1,0.2c0,0,0.2,0,0.4,0h1v1.4c-0.6,0.1-1.1,0.2-1.3,0.2
			c-0.8,0-1.3-0.1-1.7-0.5s-0.5-1-0.5-1.9v-2.8h-0.7v-1.6h0.7v-1.8h1.8v1.8H54v1.6L54.3,378.5z"/>
		<path class="st14" d="M55.8,377.7c0.5-0.6,1.2-1,2.3-1s1.9,0.4,2.3,1c0.5,0.6,0.7,1.4,0.7,2.5c0,2.3-1,3.5-3,3.5s-3-1.2-3-3.5
			S55.4,378.3,55.8,377.7z M57.2,381.8c0.2,0.4,0.5,0.5,1,0.5s0.8-0.1,1-0.5c0.2-0.4,0.2-0.8,0.2-1.4s0-1.2-0.2-1.4
			c-0.2-0.2-0.5-0.5-1-0.5s-0.8,0.1-1,0.5s-0.2,0.8-0.2,1.4S56.9,381.5,57.2,381.8z"/>
	</g>
</g>
<g class="st12">
	<g class="st12">
		<g class="st12">
			<path class="st13" d="M24.8,300.3v-9h3.1l1.6,6.6l1.6-6.6h3.1v9h-1.8v-7h-0.2l-1.8,6.6h-1.8l-1.8-6.6h-0.2v7h-1.8H24.8z"/>
			<path class="st13" d="M36.3,294.4c0.5-0.6,1.2-1,2.3-1c1.1,0,1.9,0.4,2.3,1c0.5,0.6,0.7,1.4,0.7,2.5c0,2.3-1,3.5-3,3.5
				s-3-1.2-3-3.5C35.6,294.7,35.8,295,36.3,294.4z M37.6,298.5c0.1,0.4,0.5,0.5,1,0.5s0.8-0.1,1-0.5c0.2-0.4,0.2-0.8,0.2-1.4
				c0-0.6,0-1.2-0.2-1.4c-0.2-0.2-0.5-0.5-1-0.5s-0.8,0.1-1,0.5c-0.2,0.4-0.2,0.8-0.2,1.4C37.4,297.7,37.4,298.3,37.6,298.5z"/>
			<path class="st13" d="M43,300.3v-9.2h1.8v9.2H43z"/>
			<path class="st13" d="M50.1,295.3h-1.7v2.8c0,0.2,0,0.5,0,0.6c0,0,0,0.2,0.1,0.2c0,0,0.2,0,0.4,0h1v1.4c-0.6,0.1-1.1,0.2-1.3,0.2
				c-0.8,0-1.3-0.1-1.7-0.5s-0.5-1-0.5-1.9v-2.8h-0.7v-1.6h0.7V292h1.8v1.8h1.7v1.6L50.1,295.3z"/>
			<path class="st13" d="M51.6,294.4c0.5-0.6,1.2-1,2.3-1s1.9,0.4,2.3,1c0.5,0.6,0.7,1.4,0.7,2.5c0,2.3-1,3.5-3,3.5s-3-1.2-3-3.5
				C50.9,294.7,51.2,295,51.6,294.4z M53,298.5c0.2,0.4,0.5,0.5,1,0.5c0.5,0,0.8-0.1,1-0.5c0.2-0.4,0.2-0.8,0.2-1.4
				c0-0.6,0-1.2-0.2-1.4s-0.5-0.5-1-0.5c-0.5,0-0.8,0.1-1,0.5s-0.2,0.8-0.2,1.4C52.7,297.7,52.7,298.3,53,298.5z"/>
		</g>
		<g class="st12">
			<path class="st13" d="M20.1,311.1l2-9h3.5l2,9h-1.8l-0.4-1.7h-3.1l-0.4,1.7h-1.8H20.1z M23.4,303.7l-1,4.3h2.4l-1-4.3h-0.6H23.4z
				"/>
			<path class="st13" d="M34.5,312c0,0.7-0.2,1.3-0.8,1.7c-0.6,0.4-1.3,0.6-2.4,0.6c-1.1,0-1.8-0.1-2.3-0.4
				c-0.5-0.2-0.8-0.7-0.8-1.4s0.4-1.1,1-1.6c-0.4-0.2-0.5-0.6-0.5-1s0.1-0.5,0.4-0.8v-0.2c-0.5-0.5-0.7-1.1-0.7-1.9
				c0-0.8,0.2-1.4,0.7-1.8s1.2-0.6,2-0.6c0.8,0,0.7,0,1.1,0.1h0.2h2.2v1.4h-1c0.2,0.2,0.2,0.5,0.2,0.8c0,0.8-0.2,1.4-0.7,1.8
				s-1.2,0.5-2.2,0.5s-0.4,0-0.6,0c0,0.2-0.1,0.4-0.1,0.6s0,0.2,0.2,0.2c0.1,0,0.5,0,1.1,0c1.1,0,1.9,0.1,2.3,0.5
				c0.4,0.2,0.6,0.8,0.6,1.6L34.5,312z M29.9,312.1c0,0.4,0.5,0.6,1.4,0.6c1,0,1.4-0.2,1.4-0.7c0-0.5,0-0.4-0.2-0.5s-0.5,0-1,0h-1.2
				c-0.2,0.1-0.4,0.4-0.4,0.6H29.9z M30,306.7c0,0.6,0.4,1,1,1s1-0.4,1-1c0-0.6-0.4-1-1-1S30,306.1,30,306.7z"/>
			<path class="st13" d="M35.6,303.7v-1.8h1.8v1.8H35.6z M35.6,311.1v-6.6h1.8v6.6H35.6z"/>
			<path class="st13" d="M42.6,306.1H41v2.8c0,0.2,0,0.5,0,0.6c0,0,0,0.2,0.1,0.2c0,0,0.2,0,0.4,0h1v1.4c-0.6,0.1-1.1,0.2-1.3,0.2
				c-0.8,0-1.3-0.1-1.7-0.5c-0.2-0.4-0.5-1-0.5-1.9v-2.8h-0.7v-1.6h0.7v-1.8h1.8v1.8h1.7v1.6L42.6,306.1z"/>
			<path class="st13" d="M48.8,306.6v2.8c0,0.2,0,0.4,0,0.5c0,0,0.1,0.1,0.4,0.1v1.3c-0.5,0-0.8,0-1.1,0s-0.5-0.2-0.8-0.4
				c-0.6,0.4-1.3,0.5-1.9,0.5c-1.3,0-2-0.7-2-2.2s0.2-1.2,0.6-1.4c0.4-0.2,1-0.5,1.8-0.5h1.4v-0.5c0-0.2,0-0.5-0.2-0.6
				c-0.1,0-0.4-0.1-0.6-0.1h-2.5V305c1-0.2,1.8-0.4,2.6-0.4s1.4,0.1,1.8,0.5s0.6,1,0.6,1.7V306.6z M45.9,308.4
				c-0.5,0-0.7,0.4-0.7,0.8c0,0.5,0.2,0.7,0.6,0.7c0.4,0,0.7,0,1.1-0.1h0.2v-1.4C47.1,308.4,45.9,308.4,45.9,308.4z"/>
			<path class="st13" d="M54.2,306.1h-1.7v2.8c0,0.2,0,0.5,0,0.6c0,0,0,0.2,0.1,0.2c0,0,0.2,0,0.4,0h1v1.4c-0.6,0.1-1.1,0.2-1.3,0.2
				c-0.8,0-1.3-0.1-1.7-0.5c-0.2-0.4-0.5-1-0.5-1.9v-2.8h-0.7v-1.6h0.7v-1.8h1.8v1.8h1.7v1.6L54.2,306.1z"/>
			<path class="st13" d="M55.7,305.2c0.5-0.6,1.2-1,2.3-1s1.9,0.4,2.3,1c0.5,0.6,0.7,1.4,0.7,2.5c0,2.3-1,3.5-3,3.5s-3-1.2-3-3.5
				S55.2,305.8,55.7,305.2z M57,309.3c0.2,0.4,0.5,0.5,1,0.5c0.5,0,0.8-0.1,1-0.5c0.2-0.4,0.2-0.8,0.2-1.4s0-1.2-0.2-1.4
				c-0.2-0.2-0.5-0.5-1-0.5c-0.5,0-0.8,0.1-1,0.5s-0.2,0.8-0.2,1.4S56.8,309.1,57,309.3z"/>
		</g>
	</g>
</g>
<g class="st12">
	<g class="st12">
		<g class="st12">
			<path class="st13" d="M25.7,231v-1.6h2.6v4.7c-1.2,0.2-2.3,0.4-3.1,0.4c-1.4,0-2.4-0.4-2.9-1.1s-0.8-1.9-0.8-3.6s0.2-2.8,0.8-3.5
				c0.6-0.7,1.4-1.1,2.8-1.1s1.7,0,2.6,0.2h0.5v1.6c-1.1,0-1.9-0.1-2.6-0.1c-0.7,0-1.2,0-1.4,0.2c-0.2,0.1-0.5,0.5-0.6,0.8
				c-0.1,0.5-0.2,1.2-0.2,2.2s0.1,1.8,0.4,2.2s0.8,0.6,1.6,0.6h1.1v-1.8h-0.8L25.7,231z"/>
			<path class="st13" d="M29.9,234.2v-6.6h1.8v0.7c0.7-0.5,1.4-0.7,2.2-0.8v1.8c-0.7,0.1-1.3,0.4-1.8,0.5h-0.2v4.6h-1.8L29.9,234.2z
				"/>
			<path class="st13" d="M35.2,228.4c0.5-0.6,1.2-1,2.3-1c1.1,0,1.9,0.4,2.3,1c0.5,0.6,0.7,1.4,0.7,2.5c0,2.3-1,3.5-3,3.5
				s-3-1.2-3-3.5C34.5,228.6,34.7,229,35.2,228.4z M36.5,232.4c0.1,0.4,0.5,0.5,1,0.5s0.8-0.1,1-0.5c0.2-0.4,0.2-0.8,0.2-1.4
				s0-1.2-0.2-1.4c-0.2-0.2-0.5-0.5-1-0.5s-0.8,0.1-1,0.5c-0.2,0.4-0.2,0.8-0.2,1.4S36.3,232.2,36.5,232.4z"/>
			<path class="st13" d="M46.6,229.3c-1.1-0.1-1.8-0.2-2.3-0.2c-0.5,0-0.7,0-0.8,0c-0.1,0-0.2,0.2-0.2,0.4c0,0.1,0,0.2,0.2,0.4
				c0.1,0,0.6,0.1,1.3,0.2c0.7,0.1,1.2,0.4,1.6,0.6c0.4,0.2,0.5,0.7,0.5,1.4c0,1.4-0.8,2.2-2.6,2.2c-1.8,0-1.3,0-2.2-0.2h-0.5v-1.6
				c1.1,0.1,1.8,0.2,2.3,0.2c0.5,0,0.7,0,0.8-0.1c0.1,0,0.2-0.2,0.2-0.4s0-0.2-0.2-0.4c-0.1,0-0.6-0.1-1.3-0.2
				c-0.7,0-1.2-0.4-1.6-0.6c-0.4-0.2-0.5-0.7-0.5-1.4s0.2-1.2,0.7-1.6s1.1-0.5,1.8-0.5s1.2,0,2.2,0.2h0.5v1.6H46.6z"/>
			<path class="st13" d="M52.9,229.3c-1.1-0.1-1.8-0.2-2.3-0.2c-0.5,0-0.7,0-0.8,0c-0.1,0-0.2,0.2-0.2,0.4c0,0.1,0,0.2,0.2,0.4
				c0.1,0,0.6,0.1,1.3,0.2c0.7,0.1,1.2,0.4,1.6,0.6c0.4,0.2,0.5,0.7,0.5,1.4c0,1.4-0.8,2.2-2.6,2.2s-1.3,0-2.2-0.2h-0.5v-1.6
				c1.1,0.1,1.8,0.2,2.3,0.2c0.5,0,0.7,0,0.8-0.1c0.1,0,0.2-0.2,0.2-0.4s0-0.2-0.2-0.4c-0.1,0-0.6-0.1-1.3-0.2
				c-0.7,0-1.2-0.4-1.6-0.6c-0.4-0.2-0.5-0.7-0.5-1.4s0.2-1.2,0.7-1.6c0.5-0.4,1.1-0.5,1.8-0.5c0.7,0,1.2,0,2.2,0.2h0.5v1.6H52.9z"
				/>
			<path class="st13" d="M54.7,228.4c0.5-0.6,1.2-1,2.3-1s1.9,0.4,2.3,1c0.5,0.6,0.7,1.4,0.7,2.5c0,2.3-1,3.5-3,3.5s-3-1.2-3-3.5
				C53.9,228.6,54.2,229,54.7,228.4z M56.1,232.4c0.1,0.4,0.5,0.5,1,0.5c0.5,0,0.8-0.1,1-0.5c0.2-0.4,0.2-0.8,0.2-1.4s0-1.2-0.2-1.4
				c-0.2-0.2-0.5-0.5-1-0.5c-0.5,0-0.8,0.1-1,0.5c-0.2,0.4-0.2,0.8-0.2,1.4S55.9,232.2,56.1,232.4z"/>
		</g>
	</g>
</g>
<g class="st12">
	<g class="st12">
		<path class="st13" d="M26.3,151.9v-8.2H29l1.4,6l1.4-6h2.8v8.2H33v-6.4h-0.1l-1.6,6h-1.7l-1.6-6H28v6.4
			C28,151.9,26.3,151.9,26.3,151.9z"/>
		<path class="st13" d="M36.7,146.6c0.5-0.6,1.1-0.8,2.2-0.8c1.1,0,1.7,0.2,2.2,0.8c0.5,0.6,0.6,1.3,0.6,2.3c0,2.2-1,3.1-2.8,3.1
			c-1.8,0-2.8-1.1-2.8-3.1S36.4,147.1,36.7,146.6z M37.9,150.2c0.1,0.2,0.5,0.5,0.8,0.5c0.4,0,0.7-0.1,0.8-0.5
			c0.1-0.4,0.2-0.7,0.2-1.3s0-1.1-0.2-1.3s-0.5-0.5-0.8-0.5c-0.4,0-0.7,0.1-0.8,0.5c-0.1,0.4-0.2,0.7-0.2,1.3S37.7,150,37.9,150.2z"
			/>
		<path class="st13" d="M42.8,151.9v-8.4h1.6v8.4H42.8z"/>
		<path class="st13" d="M49.3,147.2h-1.4v2.5c0,0.2,0,0.4,0,0.5c0,0,0,0.2,0.1,0.2c0,0,0.2,0,0.4,0h1v1.2c-0.5,0.1-1,0.2-1.2,0.2
			c-0.7,0-1.2-0.1-1.4-0.5c-0.2-0.4-0.4-1-0.4-1.8v-2.5h-0.7v-1.3h0.7v-1.7h1.6v1.7h1.4v1.3L49.3,147.2z"/>
		<path class="st13" d="M50.8,146.6c0.5-0.6,1.1-0.8,2.2-0.8s1.7,0.2,2.2,0.8c0.5,0.6,0.6,1.3,0.6,2.3c0,2.2-1,3.1-2.8,3.1
			s-2.8-1.1-2.8-3.1S50.4,147.1,50.8,146.6z M52,150.2c0.1,0.2,0.5,0.5,0.8,0.5s0.7-0.1,0.8-0.5s0.2-0.7,0.2-1.3s0-1.1-0.2-1.3
			s-0.5-0.5-0.8-0.5s-0.7,0.1-0.8,0.5s-0.2,0.7-0.2,1.3S51.7,150,52,150.2z"/>
	</g>
	<g class="st12">
		<path class="st13" d="M27.1,159.8v-1.4h2.4v4.2c-1.2,0.2-2,0.2-2.8,0.2c-1.3,0-2.2-0.4-2.6-1.1c-0.5-0.7-0.7-1.8-0.7-3.2
			c0-1.4,0.2-2.5,0.7-3.2c0.5-0.6,1.3-1,2.5-1c1.2,0,1.6,0,2.4,0.2h0.5v1.3c-1,0-1.8-0.1-2.4-0.1s-1.1,0-1.3,0.2
			c-0.2,0.1-0.5,0.4-0.6,0.8c0,0.4-0.1,1.1-0.1,2s0,1.6,0.4,1.9c0.4,0.4,0.7,0.6,1.4,0.6h1v-1.7h-0.7L27.1,159.8z"/>
		<path class="st13" d="M30.8,162.7v-6h1.6v0.6c0.7-0.4,1.3-0.6,1.9-0.8v1.7c-0.6,0.1-1.2,0.2-1.7,0.4h-0.2v4.1h-1.6V162.7z"/>
		<path class="st13" d="M35.6,157.4c0.5-0.6,1.1-0.8,2.2-0.8s1.7,0.2,2.2,0.8c0.5,0.6,0.6,1.3,0.6,2.3c0,2.2-1,3.1-2.8,3.1
			s-2.8-1.1-2.8-3.1C35,157.7,35.3,157.9,35.6,157.4z M37,161c0.1,0.2,0.5,0.5,0.8,0.5c0.4,0,0.7-0.1,0.8-0.5
			c0.1-0.4,0.2-0.7,0.2-1.3c0-0.6,0-1.1-0.2-1.3c-0.2-0.2-0.5-0.5-0.8-0.5c-0.4,0-0.7,0.1-0.8,0.5c-0.1,0.4-0.2,0.7-0.2,1.3
			C36.7,160.3,36.7,160.8,37,161z"/>
		<path class="st13" d="M46.1,158.3c-1-0.1-1.7-0.2-2-0.2c-0.4,0-0.6,0-0.7,0c0,0-0.1,0.2-0.1,0.4s0,0.2,0.2,0.4
			c0.1,0,0.6,0.1,1.2,0.2c0.6,0,1.1,0.4,1.3,0.6c0.2,0.2,0.4,0.7,0.4,1.3c0,1.3-0.8,1.9-2.4,1.9s-1.2,0-1.9-0.2h-0.4v-1.4
			c1,0.1,1.7,0.2,2,0.2c0.4,0,0.6,0,0.8,0c0.1,0,0.2-0.2,0.2-0.4s0-0.2-0.2-0.4c-0.1,0-0.5-0.1-1.2-0.2c-0.7-0.1-1.1-0.2-1.4-0.5
			c-0.4-0.2-0.5-0.7-0.5-1.3c0-0.6,0.2-1.1,0.6-1.4c0.5-0.4,1-0.5,1.7-0.5s1.1,0,1.9,0.2H46v1.4L46.1,158.3z"/>
		<path class="st13" d="M51.7,158.3c-1-0.1-1.7-0.2-2-0.2c-0.4,0-0.6,0-0.7,0c0,0-0.1,0.2-0.1,0.4s0,0.2,0.2,0.4
			c0.1,0,0.6,0.1,1.2,0.2c0.6,0,1.1,0.4,1.3,0.6c0.2,0.2,0.4,0.7,0.4,1.3c0,1.3-0.8,1.9-2.4,1.9c-1.6,0-1.2,0-1.9-0.2h-0.4v-1.4
			c1,0.1,1.7,0.2,2,0.2c0.4,0,0.6,0,0.8,0c0.1,0,0.2-0.2,0.2-0.4s0-0.2-0.2-0.4c-0.1,0-0.5-0.1-1.2-0.2c-0.7-0.1-1.1-0.2-1.4-0.5
			c-0.4-0.2-0.5-0.7-0.5-1.3c0-0.6,0.2-1.1,0.6-1.4c0.5-0.4,1-0.5,1.7-0.5c0.7,0,1.1,0,1.9,0.2h0.4v1.4L51.7,158.3z"/>
		<path class="st13" d="M53.4,157.4c0.5-0.6,1.1-0.8,2.2-0.8s1.7,0.2,2.2,0.8c0.5,0.6,0.6,1.3,0.6,2.3c0,2.2-1,3.1-2.8,3.1
			s-2.8-1.1-2.8-3.1C52.8,157.7,53,157.9,53.4,157.4z M54.6,161c0.1,0.2,0.5,0.5,0.8,0.5c0.4,0,0.7-0.1,0.8-0.5s0.2-0.7,0.2-1.3
			c0-0.6,0-1.1-0.2-1.3c-0.2-0.2-0.5-0.5-0.8-0.5c-0.4,0-0.7,0.1-0.8,0.5s-0.2,0.7-0.2,1.3C54.4,160.3,54.4,160.8,54.6,161z"/>
	</g>
</g>
<g class="st12">
	<g class="st12">
		<path class="st13" d="M12.7,72.3V71h5.4v1.3h-1.9v6h-1.4v-6h-1.9H12.7z"/>
		<path class="st13" d="M19.7,77c0.1,0.1,0.4,0.2,0.7,0.2c0.7,0,1.3,0,1.8,0h0.4v1.1c-0.8,0.2-1.6,0.4-2.3,0.4s-1.4-0.2-1.8-0.6
			c-0.4-0.5-0.6-1.1-0.6-2.2c0-1.9,0.8-2.9,2.4-2.9c1.6,0,2.4,0.8,2.4,2.4v1h-3.2c0,0.4,0,0.6,0.2,0.7L19.7,77z M21.2,75.1
			c0-0.5,0-0.7-0.2-1c-0.1-0.1-0.4-0.2-0.7-0.2s-0.6,0-0.7,0.2c-0.1,0.1-0.2,0.5-0.2,0.8h1.9V75.1z"/>
		<path class="st13" d="M25.2,78.3h-1.4v-5.4h1.4v0.4c0.5-0.2,1-0.5,1.3-0.5c0.6,0,1.1,0.1,1.3,0.5c0.7-0.4,1.3-0.5,1.8-0.5
			s1.2,0.2,1.4,0.6c0.2,0.4,0.4,1.1,0.4,2v2.9H30v-2.9c0-0.5,0-0.8-0.1-1.1c0-0.2-0.4-0.4-0.6-0.4c-0.2,0-0.5,0-0.8,0.1h-0.1
			c0,0.6,0,1,0,1.3v2.8h-1.4v-2.8c0-0.5,0-1-0.1-1.1c0-0.2-0.2-0.4-0.6-0.4s-0.6,0-0.8,0.1h-0.1v4.1L25.2,78.3z"/>
		<path class="st13" d="M32.8,80.6v-7.7h1.4v0.2c0.5-0.2,0.8-0.5,1.2-0.5c0.7,0,1.3,0.2,1.6,0.6c0.2,0.4,0.5,1.2,0.5,2.2
			c0,1-0.2,1.8-0.6,2.2c-0.4,0.4-1,0.6-1.9,0.6c-1,0-0.5,0-0.7,0h-0.1v2.2h-1.4L32.8,80.6z M35.2,74.1c-0.2,0-0.5,0-0.8,0.1h-0.1
			v2.9c0.4,0,0.6,0,0.8,0c0.4,0,0.7-0.1,0.8-0.4c0.1-0.2,0.2-0.7,0.2-1.2C36.1,74.6,35.8,74.1,35.2,74.1z"/>
		<path class="st13" d="M40.1,77c0.1,0.1,0.4,0.2,0.7,0.2c0.7,0,1.3,0,1.8,0H43v1.1c-0.8,0.2-1.6,0.4-2.3,0.4
			c-0.7,0-1.4-0.2-1.8-0.6c-0.4-0.5-0.6-1.1-0.6-2.2c0-1.9,0.8-2.9,2.4-2.9c1.6,0,2.4,0.8,2.4,2.4v1h-3.2c0,0.4,0,0.6,0.2,0.7V77z
			 M41.6,75.1c0-0.5,0-0.7-0.2-1c-0.1-0.1-0.4-0.2-0.7-0.2c-0.4,0-0.6,0-0.7,0.2c-0.1,0.1-0.2,0.5-0.2,0.8h1.9V75.1z"/>
		<path class="st13" d="M48,74.3c-0.8,0-1.6-0.1-1.9-0.1c-0.4,0-0.6,0-0.7,0c0,0-0.1,0.1-0.1,0.4s0,0.2,0.2,0.2
			c0.2,0,0.5,0.1,1.1,0.2c0.6,0,1,0.2,1.2,0.5c0.2,0.2,0.4,0.6,0.4,1.2c0,1.2-0.7,1.8-2.2,1.8c-1.4,0-1.1,0-1.7-0.2h-0.4v-1.3
			c0.8,0,1.6,0.1,1.9,0.1c0.4,0,0.6,0,0.7,0c0.1,0,0.2-0.1,0.2-0.4s0-0.2-0.2-0.4c-0.1,0-0.5-0.1-1.1-0.2c-0.6-0.1-1-0.2-1.2-0.5
			c-0.2-0.2-0.4-0.6-0.4-1.2s0.2-1,0.6-1.3c0.4-0.4,0.8-0.5,1.6-0.5s1,0,1.7,0.2h0.4v1.3L48,74.3z"/>
		<path class="st13" d="M52.2,74.1h-1.3v2.2c0,0.2,0,0.4,0,0.5c0,0,0,0.1,0,0.2c0,0,0.1,0,0.4,0h0.8v1.1c-0.5,0-0.8,0.1-1.1,0.1
			c-0.6,0-1.1-0.1-1.3-0.5c-0.2-0.2-0.4-0.8-0.4-1.6v-2.3h-0.6v-1.2h0.6v-1.6h1.4v1.6h1.3v1.2L52.2,74.1z"/>
		<path class="st13" d="M53.5,73.5c0.4-0.5,1-0.7,1.9-0.7s1.6,0.2,1.9,0.7c0.4,0.5,0.6,1.2,0.6,2c0,1.9-0.8,2.9-2.5,2.9
			c-1.7,0-2.5-1-2.5-2.9S53.2,74,53.5,73.5z M54.6,76.9c0.1,0.2,0.4,0.4,0.8,0.4c0.5,0,0.6-0.1,0.8-0.4c0.2-0.2,0.2-0.7,0.2-1.2
			c0-0.5,0-1-0.2-1.2c-0.2-0.2-0.4-0.4-0.8-0.4c-0.5,0-0.6,0.1-0.8,0.4s-0.2,0.6-0.2,1.2C54.4,76.3,54.4,76.7,54.6,76.9z"/>
		<path class="st13" d="M62.8,74.3c-0.8,0-1.6-0.1-1.9-0.1c-0.4,0-0.6,0-0.7,0c0,0-0.1,0.1-0.1,0.4s0,0.2,0.2,0.2
			c0.1,0,0.5,0.1,1.1,0.2s1,0.2,1.2,0.5c0.2,0.2,0.4,0.6,0.4,1.2c0,1.2-0.7,1.8-2.2,1.8c-1.4,0-1.1,0-1.7-0.2h-0.4v-1.3
			c0.8,0,1.6,0.1,1.9,0.1c0.4,0,0.6,0,0.7,0s0.2-0.1,0.2-0.4s0-0.2-0.2-0.4c-0.1,0-0.5-0.1-1.1-0.2c-0.6,0-1-0.2-1.2-0.5
			c-0.2-0.2-0.4-0.6-0.4-1.2s0.2-1,0.6-1.3c0.4-0.2,0.8-0.5,1.6-0.5s1,0,1.7,0.2h0.4v1.3L62.8,74.3z"/>
		<path class="st13" d="M64.3,73.5c0.4-0.5,1-0.7,1.9-0.7s1.6,0.2,1.9,0.7s0.6,1.2,0.6,2c0,1.9-0.8,2.9-2.5,2.9
			c-1.7,0-2.5-1-2.5-2.9S64,74,64.3,73.5z M65.4,76.9c0.1,0.2,0.4,0.4,0.8,0.4s0.6-0.1,0.8-0.4c0.1-0.2,0.2-0.7,0.2-1.2
			c0-0.5,0-1-0.2-1.2c-0.1-0.2-0.4-0.4-0.8-0.4s-0.6,0.1-0.8,0.4c-0.2,0.2-0.2,0.6-0.2,1.2C65.2,76.3,65.2,76.7,65.4,76.9z"/>
	</g>
</g>
<line class="st11" x1="3.7" y1="496.1" x2="18.5" y2="496.1"/>
<g class="st12">
	<g class="st12">
		<path class="st14" d="M32,490.6v8.8h-1.8v-6.6l-1.9,1.2l-0.8-1.3l2.9-1.9H32V490.6z"/>
		<path class="st14" d="M34.7,499.4v-2.2h1.9v2.2H34.7z"/>
		<path class="st14" d="M43.8,499.4h-5.6v-1.6l1.9-1.9c0.6-0.7,1.1-1.2,1.3-1.6c0.2-0.4,0.4-0.7,0.4-1.2c0-0.5,0-0.7-0.4-0.8
			c-0.2-0.1-0.5-0.2-1-0.2c-0.6,0-1.2,0-1.9,0.1h-0.4v-1.3c0.8-0.2,1.8-0.4,2.6-0.4c1.8,0,2.8,0.8,2.8,2.5s-0.1,1.2-0.5,1.7
			c-0.2,0.5-0.8,1.1-1.6,1.7l-1.6,1.3h3.6v1.6L43.8,499.4z"/>
		<path class="st14" d="M51.1,490.6v1.6h-3.8l-0.2,1.9c0.6-0.2,1.1-0.4,1.6-0.4c1.9,0,2.9,0.8,2.9,2.6c0,1.8-0.2,1.8-0.7,2.3
			c-0.5,0.5-1.2,0.8-2.2,0.8s-0.8,0-1.3,0c-0.5,0-1-0.1-1.2-0.2h-0.5l0.2-1.4c1.1,0.1,1.9,0.2,2.6,0.2c0.7,0,0.7,0,1-0.4
			c0.2-0.2,0.4-0.6,0.4-1s0-0.7-0.2-1c-0.2-0.2-0.5-0.2-0.8-0.2c-0.6,0-1.1,0-1.6,0.1h-0.2l-1.1-0.2l0.2-4.7h5.3L51.1,490.6z"/>
	</g>
</g>
<line class="st11" x1="59.4" y1="496.1" x2="74" y2="496.1"/>
<line class="st11" x1="4" y1="420.7" x2="19" y2="420.7"/>
<line class="st11" x1="59.4" y1="420.7" x2="74.8" y2="420.7"/>
<g class="st12">
	<g class="st12">
		<path class="st14" d="M32.9,424.8h-5.6v-1.6l1.9-1.9c0.6-0.7,1.1-1.2,1.3-1.6c0.2-0.4,0.4-0.7,0.4-1.2c0-0.5,0-0.7-0.4-0.8
			c-0.2-0.1-0.5-0.2-1-0.2c-0.6,0-1.2,0-1.9,0.1h-0.4v-1.3c0.8-0.2,1.8-0.4,2.6-0.4c1.8,0,2.8,0.8,2.8,2.5s-0.1,1.2-0.5,1.7
			c-0.2,0.5-0.8,1.1-1.6,1.7l-1.6,1.3h3.6v1.6L32.9,424.8z"/>
		<path class="st14" d="M34.6,424.8v-2.2h1.9v2.2H34.6z"/>
		<path class="st14" d="M43.7,416v1.6h-3.8l-0.2,1.9c0.6-0.2,1.1-0.4,1.6-0.4c1.9,0,2.9,0.8,2.9,2.6c0,1.8-0.2,1.8-0.7,2.3
			c-0.5,0.5-1.2,0.8-2.2,0.8s-0.8,0-1.3,0s-1-0.1-1.2-0.2h-0.5l0.2-1.4c1.1,0.1,1.9,0.2,2.6,0.2c0.7,0,0.7,0,1-0.4
			c0.2-0.2,0.4-0.6,0.4-1s0-0.7-0.2-1c-0.2-0.2-0.5-0.2-0.8-0.2c-0.6,0-1.1,0-1.6,0.1h-0.2l-1.1-0.2l0.2-4.7H44L43.7,416z"/>
		<path class="st14" d="M45.8,417c0.6-0.7,1.4-1.1,2.5-1.1s1.9,0.4,2.5,1.1c0.6,0.7,0.8,1.9,0.8,3.5c0,1.6-0.2,2.8-0.8,3.5
			c-0.6,0.7-1.4,1.1-2.5,1.1s-1.9-0.4-2.5-1.1c-0.6-0.7-0.8-1.8-0.8-3.5S45.2,417.7,45.8,417z M49.9,420.5c0-1.1,0-1.8-0.4-2.3
			c-0.4-0.5-0.6-0.6-1.2-0.6s-1,0.2-1.2,0.6c-0.2,0.5-0.4,1.2-0.4,2.3c0,1.1,0,1.8,0.4,2.3c0.2,0.5,0.6,0.6,1.2,0.6s1-0.2,1.2-0.6
			S49.9,421.6,49.9,420.5z"/>
	</g>
</g>
<line class="st11" x1="3" y1="344.9" x2="18.7" y2="344.9"/>
<g class="st12">
	<g class="st12">
		<path class="st13" d="M40.7,349.3v-1.4H37v-1.4l2.2-5.9h2l-2.3,5.6h1.9v-2.4h1.8v2.4h0.8v1.6h-0.8v1.4h-1.8L40.7,349.3z"/>
	</g>
</g>
<line class="st11" x1="59.6" y1="344.9" x2="74.9" y2="344.9"/>
<line class="st11" x1="3.9" y1="269.7" x2="19" y2="269.7"/>
<g class="st12">
	<g class="st12">
		<path class="st13" d="M43.5,264.8c-0.8-0.1-1.7-0.2-2.3-0.2c-1.2,0-1.9,0.7-1.9,2h0.2c0.6-0.2,1.1-0.4,1.4-0.4
			c1,0,1.8,0.2,2.3,0.7c0.5,0.5,0.7,1.2,0.7,2.2s-0.2,1.7-0.8,2.2c-0.6,0.5-1.3,0.7-2.4,0.7s-1.9-0.4-2.4-1.2
			c-0.6-0.7-0.8-1.9-0.8-3.5c0-1.6,0.4-2.6,1-3.4c0.6-0.7,1.6-1.1,2.6-1.1s1.4,0,2.2,0.2h0.4l-0.1,1.4V264.8z M40.7,267.9
			c-0.4,0-0.8,0-1.3,0.2h-0.2c0,1.6,0.5,2.4,1.4,2.4c1,0,0.7,0,1-0.4c0.2-0.2,0.4-0.6,0.4-1c0-0.8-0.5-1.2-1.3-1.2L40.7,267.9z"/>
	</g>
</g>
<line class="st11" x1="60" y1="269.1" x2="75.2" y2="269.1"/>
<line class="st11" x1="3.7" y1="194" x2="19" y2="194"/>
<g class="st12">
	<g class="st12">
		<path class="st13" d="M38.6,196.6c1.1,0,1.6-0.6,1.6-1.9h-0.2c-0.6,0.2-1,0.4-1.3,0.4c-0.8,0-1.6-0.2-2-0.6
			c-0.5-0.5-0.7-1.1-0.7-1.9s0.2-1.4,0.8-1.9c0.5-0.5,1.2-0.7,2.2-0.7s1.7,0.4,2.2,1.1c0.5,0.7,0.7,1.8,0.7,3.1s-0.2,2.4-0.8,3
			c-0.6,0.6-1.3,1-2.4,1c-1.1,0-1.3,0-2-0.2h-0.4l0.1-1.3c0.8,0.1,1.6,0.2,2.3,0.2L38.6,196.6z M38.9,193.6c0.4,0,0.7,0,1.2-0.2h0.2
			c0-1.4-0.5-2-1.3-2c-0.8,0-0.7,0-0.8,0.4s-0.4,0.5-0.4,0.8c0,0.7,0.4,1.1,1.2,1.1H38.9z"/>
	</g>
</g>
<line class="st11" x1="59.4" y1="193.8" x2="74.8" y2="193.8"/>
<line class="st11" x1="3.9" y1="118.2" x2="18" y2="118.2"/>
<g class="st12">
	<g class="st12">
		<path class="st13" d="M37.7,112.2v8.8h-1.8v-6.6l-1.9,1.2l-0.8-1.3l2.9-1.9h1.7L37.7,112.2z"/>
		<path class="st13" d="M43.8,121v-1.4h-3.7v-1.4l2.2-5.9h2l-2.3,5.6h1.9v-2.4h1.8v2.4h0.8v1.6h-0.8v1.4h-1.8L43.8,121z"/>
	</g>
</g>
<line class="st11" x1="59.4" y1="118.2" x2="75.1" y2="118.5"/>
<path class="st15" d="M58.8,20.5c0,0-7.5,7.9-12.1,0.7c-4.3-6.8,2.7-11.3,2.7-11.3C39.9,7.6,37.5,15.8,33,20.5
	c-4.5,4.8-10.4,0-10.4,0"/>
<path class="st15" d="M53.5,26.1c0,0-5.2,5.1-8.6,0.5s1.9-8,1.9-8c-6.7-1.6-8.4,4.1-11.6,7.5s-7.4,0-7.4,0"/>
<path class="st16" d="M8.9,42.7H69c3.4,0,6.1,2.7,6.1,6.1V717c0,3.4-2.7,6.1-6.1,6.1H8.9c-3.4,0-6.1-2.7-6.1-6.1V48.8
	C2.8,45.4,5.5,42.7,8.9,42.7z"/>
</svg>
