<?xml version="1.0" encoding="UTF-8"?>
<svg id="Livello_1" xmlns="http://www.w3.org/2000/svg" version="1.1" viewBox="0 0 62.3 725">
  <!-- Generator: Adobe Illustrator 29.6.1, SVG Export Plug-In . SVG Version: 2.1.1 Build 9)  -->
  <defs>
    <style>
      .st0 {
        fill: #3c3430;
      }

      .st1, .st2, .st3, .st4 {
        fill: none;
      }

      .st1, .st3 {
        stroke: #3c3430;
        stroke-miterlimit: 9.8;
      }

      .st1, .st4 {
        stroke-width: 2px;
      }

      .st5 {
        fill: #39322e;
      }

      .st6 {
        fill: #fff;
      }

      .st7 {
        fill: red;
      }

      .st8 {
        fill: orange;
      }

      .st4 {
        stroke: #fff;
        stroke-linecap: round;
        stroke-miterlimit: 10;
      }

      .st9 {
        isolation: isolate;
      }

      .st10 {
        fill: #87ceeb;
      }

      .st11 {
        fill: #fd089f;
      }

      .st12 {
        fill: #005cb8;
      }

      .st13 {
        fill: #0c0;
      }

      .st14 {
        fill: #611269;
      }

      .st15 {
        fill: #b922c7;
      }

      .st16 {
        fill: #ff0;
      }
    </style>
  </defs>
  <g>
    <path class="st10" d="M1.9,647.4h57.7v67.8c0,4.4-3.8,8-8.4,8H10.7c-5,0-9-3.8-9-8.5v-67.3h.2Z"/>
    <rect class="st12" x="1.8" y="571.8" width="57.7" height="75.6"/>
    <rect class="st13" x="1.8" y="496.1" width="57.7" height="75.7"/>
    <rect class="st16" x="1.8" y="420.6" width="57.7" height="75.6"/>
    <rect class="st8" x="1.8" y="344.9" width="57.7" height="75.7"/>
    <rect class="st7" x="1.8" y="269.3" width="57.7" height="75.6"/>
    <rect class="st11" x="1.8" y="193.8" width="57.7" height="75.6"/>
    <rect class="st15" x="1.8" y="118.2" width="57.7" height="75.6"/>
    <path class="st14" d="M7,42.7h46.9c3.3,0,5.9,2.5,5.9,5.6v70.2H1.8V47.7c0-2.7,2.3-4.8,5.2-4.8h0v-.2Z"/>
  </g>
  <circle class="st5" cx="30.8" cy="21.4" r="19.8"/>
  <rect class="st2" x="8.8" y="679.6" width="15.4" height="11.8"/>
  <line class="st3" x1="3.7" y1="647.8" x2="16.6" y2="647.8"/>
  <g class="st9">
    <g class="st9">
      <g class="st9">
        <path class="st6" d="M28.1,714.6h-1.6v-6h1.6v.3c.6-.3,1-.5,1.4-.5.6,0,1.1.2,1.5.6.7-.4,1.4-.6,2-.6s1.3.2,1.7.7c.3.5.5,1.2.5,2.2v3.3h-1.6v-3.2c0-.5,0-.9-.2-1.1-.1-.2-.3-.4-.7-.4s-.6,0-.9.2h-.2c0,.7,0,1.1,0,1.4v3.1h-1.6v-3.1c0-.6,0-1-.2-1.3s-.3-.4-.7-.4-.6,0-.9.2h-.1v4.5Z"/>
      </g>
    </g>
  </g>
  <g class="st9">
    <g class="st9">
      <g class="st9">
        <path class="st6" d="M20.8,643.3c.5-.7,1.3-1,2.3-1s1.8.3,2.3,1c.5.7.8,1.7.8,3.2s-.3,2.5-.8,3.1c-.5.6-1.3.9-2.3.9s-1.8-.3-2.3-.9c-.5-.6-.8-1.7-.8-3.1s.3-2.5.8-3.2ZM24.4,646.4c0-1-.1-1.7-.3-2.1-.2-.4-.6-.6-1-.6s-.8.2-1.1.6c-.2.4-.3,1.1-.3,2.1s.1,1.7.3,2.1c.2.4.6.6,1.1.6s.8-.2,1-.6.3-1.1.3-2.1Z"/>
        <path class="st6" d="M27.1,650.4v-2h1.7v2h-1.7Z"/>
        <path class="st6" d="M34.5,642.5v7.9h-1.7v-6l-1.7,1.1-.8-1.2,2.6-1.7h1.5Z"/>
        <path class="st6" d="M37.3,643.3c.5-.7,1.3-1,2.3-1s1.8.3,2.3,1c.5.7.8,1.7.8,3.2s-.3,2.5-.8,3.1c-.5.6-1.3.9-2.3.9s-1.8-.3-2.3-.9-.8-1.7-.8-3.1.3-2.5.8-3.2ZM40.9,646.4c0-1-.1-1.7-.3-2.1-.2-.4-.6-.6-1-.6s-.8.2-1.1.6c-.2.4-.3,1.1-.3,2.1s.1,1.7.3,2.1c.2.4.6.6,1.1.6s.8-.2,1-.6.3-1.1.3-2.1Z"/>
      </g>
    </g>
  </g>
  <g class="st9">
    <g class="st9">
      <g class="st9">
        <path class="st0" d="M21.6,673.7c-.7.2-1.3.2-1.9.2s-1,0-1.4-.2c-.3-.1-.6-.4-.8-.7s-.3-.7-.4-1.1c0-.4-.1-.9-.1-1.6,0-1.3.2-2.2.6-2.7s1.1-.8,2-.8,1.2,0,2,.3v1.1c-.7-.1-1.2-.2-1.7-.2s-.7,0-.9.2c-.2.1-.3.3-.4.7,0,.3-.1.9-.1,1.7s0,1.3.3,1.6c.2.3.5.5,1.1.5s1.1,0,1.8-.1v1.1Z"/>
        <path class="st0" d="M26.5,670.4v2.1c0,.2,0,.3,0,.3,0,0,.1.1.2.1v1c-.4,0-.7,0-.9,0-.2,0-.4-.1-.6-.3-.5.2-1,.4-1.5.4-1,0-1.5-.5-1.5-1.6s.1-.9.4-1.1c.3-.2.7-.4,1.3-.4h1.1v-.4c0-.2,0-.3-.1-.4,0,0-.2-.1-.5-.1h-1.9c0,0,0-.8,0-.8.7-.2,1.4-.3,2-.3s1.1.1,1.4.4.4.7.4,1.3ZM24.2,671.7c-.4,0-.6.2-.6.6s.2.5.5.5.5,0,.8-.1h.1v-1.1h-.9Z"/>
        <path class="st0" d="M27.8,673.8v-7h1.3v7h-1.3Z"/>
        <path class="st0" d="M31.8,673.8h-1.3v-5h1.3v.3c.5-.3.9-.4,1.2-.4.5,0,1,.2,1.2.5.6-.3,1.2-.5,1.7-.5s1.1.2,1.4.6.4,1,.4,1.8v2.7h-1.3v-2.7c0-.4,0-.7-.1-.9,0-.2-.3-.3-.6-.3s-.5,0-.8.1h-.2c0,.5,0,.9,0,1.2v2.6h-1.3v-2.6c0-.5,0-.8-.1-1,0-.2-.3-.3-.6-.3s-.5,0-.8.1h-.1v3.8Z"/>
        <path class="st0" d="M39.1,669.4c.4-.5.9-.7,1.8-.7s1.4.2,1.8.7c.4.5.5,1.1.5,1.9,0,1.8-.8,2.6-2.3,2.6s-2.3-.9-2.3-2.6.2-1.5.5-1.9ZM40.2,672.4c.1.2.4.4.7.4s.6-.1.7-.4.2-.6.2-1.1,0-.9-.2-1.1-.4-.4-.7-.4-.6.1-.7.4-.2.6-.2,1.1,0,.9.2,1.1Z"/>
      </g>
      <g class="st9">
        <path class="st0" d="M21.1,682.9c-1,0-1.8-.3-2.2-.8-.4-.6-.6-1.4-.6-2.6s.2-2.1.6-2.7c.4-.6,1.2-.9,2.2-.9s1.8.3,2.2.9.6,1.5.6,2.7-.4,2.5-1.1,3l.8,1.3-1.3.6-.9-1.5c0,0-.2,0-.4,0ZM20,681.2c.2.3.6.5,1.1.5s.9-.2,1.1-.5c.2-.3.3-.9.3-1.8s-.1-1.4-.3-1.8c-.2-.4-.6-.6-1.1-.6s-.9.2-1.1.6c-.2.4-.3,1-.3,1.8s0,1.4.3,1.8Z"/>
        <path class="st0" d="M27.9,677.8h1.3v5h-1.3v-.3c-.5.3-.9.4-1.2.4-.7,0-1.2-.2-1.4-.6-.2-.4-.4-1-.4-1.9v-2.6h1.3v2.6c0,.5,0,.8.1,1,0,.2.3.3.6.3s.6,0,.8-.1h.1v-3.8Z"/>
        <path class="st0" d="M34.3,679.4v2.1c0,.2,0,.3,0,.3,0,0,.1.1.2.1v1c-.4,0-.7,0-.9,0-.2,0-.4-.1-.6-.3-.5.2-1,.4-1.5.4-1,0-1.5-.5-1.5-1.6s.1-.9.4-1.1c.3-.2.7-.4,1.3-.4h1.1v-.4c0-.2,0-.3-.1-.4,0,0-.2-.1-.5-.1h-1.9c0,0,0-.8,0-.8.7-.2,1.4-.3,2-.3s1.1.1,1.4.4.4.7.4,1.3ZM32,680.7c-.4,0-.6.2-.6.6s.2.5.5.5.5,0,.8-.1h.2v-1.1h-.9Z"/>
        <path class="st0" d="M39.2,679c-.8-.1-1.4-.2-1.7-.2s-.5,0-.6,0c0,0-.1.2-.1.3s0,.2.2.3c.1,0,.5.1,1,.2.5,0,.9.3,1.1.5.2.2.3.6.3,1.1,0,1.1-.7,1.6-2,1.6s-1,0-1.6-.2h-.3c0,0,0-1.2,0-1.2.8.1,1.4.2,1.7.2s.5,0,.7,0c.1,0,.2-.2.2-.3s0-.2-.2-.3c-.1,0-.4-.1-1-.2s-.9-.2-1.2-.4c-.3-.2-.4-.6-.4-1.1s.2-.9.5-1.2c.4-.3.8-.4,1.4-.4s.9,0,1.6.2h.3c0,0,0,1.2,0,1.2Z"/>
        <path class="st0" d="M40.3,677.2v-1.4h1.3v1.4h-1.3ZM40.3,682.8v-5h1.3v5h-1.3Z"/>
      </g>
      <g class="st9">
        <path class="st0" d="M22.8,691.7c-.7.2-1.3.2-1.9.2s-1,0-1.4-.2c-.3-.1-.6-.4-.8-.7s-.3-.7-.4-1.1c0-.4-.1-.9-.1-1.6,0-1.3.2-2.2.6-2.7s1.1-.8,2-.8,1.2,0,2,.3v1.1c-.7-.1-1.2-.2-1.7-.2s-.7,0-.9.2c-.2.1-.3.3-.4.7,0,.3-.1.9-.1,1.7s0,1.3.3,1.6c.2.3.5.5,1.1.5s1.1,0,1.8-.1v1.1Z"/>
        <path class="st0" d="M27.6,688.4v2.1c0,.2,0,.3,0,.3,0,0,.1.1.2.1v1c-.4,0-.7,0-.9,0-.2,0-.4-.1-.6-.3-.5.2-1,.4-1.5.4-1,0-1.5-.5-1.5-1.6s.1-.9.4-1.1c.3-.2.7-.4,1.3-.4h1.1v-.4c0-.2,0-.3-.1-.4,0,0-.2-.1-.5-.1h-1.9c0,0,0-.8,0-.8.7-.2,1.4-.3,2-.3s1.1.1,1.4.4.4.7.4,1.3ZM25.3,689.7c-.4,0-.6.2-.6.6s.2.5.5.5.5,0,.8-.1h.1v-1.1h-.9Z"/>
        <path class="st0" d="M28.9,691.8v-7h1.3v7h-1.3Z"/>
        <path class="st0" d="M32.9,691.8h-1.3v-5h1.3v.3c.5-.3.9-.4,1.2-.4.5,0,1,.2,1.2.5.6-.3,1.2-.5,1.7-.5s1.1.2,1.4.6c.3.4.4,1,.4,1.8v2.7h-1.3v-2.7c0-.4,0-.7-.1-.9,0-.2-.3-.3-.6-.3s-.5,0-.8.1h-.1c0,.5,0,.9,0,1.2v2.6h-1.3v-2.6c0-.5,0-.8-.1-1,0-.2-.3-.3-.6-.3s-.5,0-.8.1h-.1v3.8Z"/>
        <path class="st0" d="M40.2,687.4c.4-.5.9-.7,1.8-.7s1.4.2,1.8.7c.4.5.5,1.1.5,1.9,0,1.8-.8,2.6-2.3,2.6s-2.3-.9-2.3-2.6.2-1.5.5-1.9ZM41.3,690.4c.1.2.4.4.7.4s.6-.1.7-.4.2-.6.2-1.1,0-.9-.2-1.1-.4-.4-.7-.4-.6.1-.7.4-.2.6-.2,1.1,0,.9.2,1.1Z"/>
      </g>
    </g>
  </g>
  <line class="st3" x1="43.8" y1="647.8" x2="58.4" y2="647.8"/>
  <g class="st9">
    <g class="st9">
      <g class="st9">
        <path class="st6" d="M23.2,605.3h-1.2v2.2h-1.5v-7.5h2.8c1.8,0,2.7.9,2.7,2.6s-.2,1.5-.7,2c-.5.5-1.1.7-2,.7ZM21.9,604h1.2c.8,0,1.1-.5,1.1-1.4s0-.8-.3-1c-.2-.2-.5-.3-.9-.3h-1.2v2.7Z"/>
        <path class="st6" d="M27.1,602.6c.4-.5,1-.8,1.9-.8s1.6.3,1.9.8c.4.5.6,1.2.6,2.1,0,1.9-.8,2.9-2.5,2.9s-2.5-1-2.5-2.9.2-1.6.6-2.1ZM28.2,606c.1.3.4.4.8.4s.7-.1.8-.4c.2-.3.2-.7.2-1.2s0-1-.2-1.2-.4-.4-.8-.4-.7.1-.8.4c-.2.3-.2.7-.2,1.2s0,1,.2,1.2Z"/>
        <path class="st6" d="M34.7,601.9c.4,0,.9,0,1.5.2h.3c0,0,0,1.2,0,1.2-.6,0-1,0-1.3,0-.5,0-.8.1-1,.3-.2.2-.2.6-.2,1.2s0,1,.2,1.2.5.3,1,.3h1.3c0,0,0,1.1,0,1.1-.8.2-1.4.2-1.8.2-.8,0-1.4-.2-1.8-.7-.4-.5-.5-1.2-.5-2.2s.2-1.7.5-2.2c.4-.5,1-.7,1.8-.7Z"/>
        <path class="st6" d="M37.8,602.6c.4-.5,1-.8,1.9-.8s1.6.3,1.9.8c.4.5.6,1.2.6,2.1,0,1.9-.8,2.9-2.5,2.9s-2.5-1-2.5-2.9.2-1.6.6-2.1ZM38.9,606c.2.3.4.4.8.4s.7-.1.8-.4c.2-.3.2-.7.2-1.2s0-1-.2-1.2-.4-.4-.8-.4-.7.1-.8.4-.2.7-.2,1.2,0,1,.2,1.2Z"/>
      </g>
      <g class="st9">
        <path class="st6" d="M16.2,616.5v-7.5h2.6l1.3,5.5,1.3-5.5h2.6v7.5h-1.5v-5.8h-.2l-1.5,5.5h-1.5l-1.5-5.5h-.2v5.8h-1.5Z"/>
        <path class="st6" d="M25.8,611.6c.4-.5,1-.8,1.9-.8s1.6.3,1.9.8c.4.5.6,1.2.6,2.1,0,1.9-.8,2.9-2.5,2.9s-2.5-1-2.5-2.9.2-1.6.6-2.1ZM26.9,615c.1.3.4.4.8.4s.7-.1.8-.4c.2-.3.2-.7.2-1.2s0-1-.2-1.2-.4-.4-.8-.4-.7.1-.8.4c-.2.3-.2.7-.2,1.2s0,1,.2,1.2Z"/>
        <path class="st6" d="M35.3,612.4c-.9-.1-1.5-.2-1.9-.2s-.6,0-.7,0c-.1,0-.2.2-.2.3s0,.2.2.3c.1,0,.5.1,1.1.2.6.1,1,.3,1.3.5s.4.6.4,1.2c0,1.2-.7,1.8-2.2,1.8s-1.1,0-1.8-.2h-.4c0,0,0-1.3,0-1.3.9.1,1.5.2,1.9.2s.6,0,.7-.1c.1,0,.2-.2.2-.3s0-.2-.2-.3c-.1,0-.5-.1-1.1-.2-.6,0-1-.3-1.3-.5-.3-.2-.4-.6-.4-1.2s.2-1,.6-1.3.9-.4,1.5-.4,1,0,1.8.2h.4c0,0,0,1.3,0,1.3Z"/>
        <path class="st6" d="M40.4,612.4c-.9-.1-1.5-.2-1.9-.2s-.6,0-.7,0c-.1,0-.2.2-.2.3s0,.2.2.3c.1,0,.5.1,1.1.2.6.1,1,.3,1.3.5.2.2.4.6.4,1.2,0,1.2-.7,1.8-2.2,1.8s-1.1,0-1.8-.2h-.4c0,0,0-1.3,0-1.3.9.1,1.5.2,1.9.2s.6,0,.7-.1c.1,0,.2-.2.2-.3s0-.2-.2-.3-.5-.1-1.1-.2c-.6,0-1-.3-1.3-.5-.3-.2-.4-.6-.4-1.2s.2-1,.6-1.3c.4-.3.9-.4,1.5-.4s1,0,1.8.2h.4c0,0,0,1.3,0,1.3Z"/>
        <path class="st6" d="M42,611.6c.4-.5,1-.8,1.9-.8s1.6.3,1.9.8c.4.5.6,1.2.6,2.1,0,1.9-.8,2.9-2.5,2.9s-2.5-1-2.5-2.9.2-1.6.6-2.1ZM43.1,615c.2.3.4.4.8.4s.7-.1.8-.4c.2-.3.2-.7.2-1.2s0-1-.2-1.2-.4-.4-.8-.4-.7.1-.8.4-.2.7-.2,1.2,0,1,.2,1.2Z"/>
      </g>
    </g>
  </g>
  <line class="st3" x1="3.7" y1="572.6" x2="16.5" y2="572.6"/>
  <g class="st9">
    <g class="st9">
      <g class="st9">
        <path class="st6" d="M21.7,568.6c.5-.6,1.2-.9,2.1-.9s1.6.3,2.1.9c.5.6.7,1.6.7,2.9s-.2,2.3-.7,2.9c-.5.6-1.2.9-2.1.9s-1.6-.3-2.1-.9c-.5-.6-.7-1.5-.7-2.9s.2-2.3.7-2.9ZM25,571.5c0-.9,0-1.5-.3-1.9-.2-.4-.5-.5-1-.5s-.8.2-1,.5c-.2.4-.3,1-.3,1.9s0,1.5.3,1.9c.2.4.5.5,1,.5s.8-.2,1-.5c.2-.4.3-1,.3-1.9Z"/>
        <path class="st6" d="M27.5,575.1v-1.8h1.6v1.8h-1.6Z"/>
        <path class="st6" d="M35.1,567.8v1.3h-3.2l-.2,1.6c.5-.2.9-.3,1.3-.3,1.6,0,2.4.7,2.4,2.2s-.2,1.5-.6,1.9-1,.7-1.8.7-.7,0-1.1,0c-.4,0-.8-.1-1-.2h-.4c0,0,.2-1.2.2-1.2.9.1,1.6.2,2.2.2s.6,0,.8-.3c.2-.2.3-.5.3-.8s0-.6-.2-.8c-.2-.2-.4-.2-.7-.2-.5,0-.9,0-1.3.1h-.2s-.9-.2-.9-.2l.2-3.9h4.4Z"/>
        <path class="st6" d="M36.8,568.6c.5-.6,1.2-.9,2.1-.9s1.6.3,2.1.9c.5.6.7,1.6.7,2.9s-.2,2.3-.7,2.9c-.5.6-1.2.9-2.1.9s-1.6-.3-2.1-.9c-.5-.6-.7-1.5-.7-2.9s.2-2.3.7-2.9ZM40.2,571.5c0-.9,0-1.5-.3-1.9s-.5-.5-1-.5-.8.2-1,.5c-.2.4-.3,1-.3,1.9s0,1.5.3,1.9c.2.4.5.5,1,.5s.8-.2,1-.5.3-1,.3-1.9Z"/>
      </g>
    </g>
  </g>
  <line class="st3" x1="43.8" y1="572.6" x2="58.4" y2="572.6"/>
  <g class="st9">
    <g class="st9">
      <path class="st0" d="M16.2,536.2v-7.5h2.6l1.3,5.5,1.3-5.5h2.6v7.5h-1.5v-5.8h-.2l-1.5,5.5h-1.5l-1.5-5.5h-.2v5.8h-1.5Z"/>
      <path class="st0" d="M25.8,531.3c.4-.5,1-.8,1.9-.8s1.6.3,1.9.8c.4.5.6,1.2.6,2.1,0,1.9-.8,2.9-2.5,2.9s-2.5-1-2.5-2.9.2-1.6.6-2.1ZM26.9,534.7c.1.3.4.4.8.4s.7-.1.8-.4c.2-.3.2-.7.2-1.2s0-1-.2-1.2-.4-.4-.8-.4-.7.1-.8.4c-.2.3-.2.7-.2,1.2s0,1,.2,1.2Z"/>
      <path class="st0" d="M35.3,532.1c-.9-.1-1.5-.2-1.9-.2s-.6,0-.7,0c-.1,0-.2.2-.2.3s0,.2.2.3c.1,0,.5.1,1.1.2.6.1,1,.3,1.3.5s.4.6.4,1.2c0,1.2-.7,1.8-2.2,1.8s-1.1,0-1.8-.2h-.4c0,0,0-1.3,0-1.3.9.1,1.5.2,1.9.2s.6,0,.7-.1c.1,0,.2-.2.2-.3s0-.2-.2-.3c-.1,0-.5-.1-1.1-.2-.6,0-1-.3-1.3-.5-.3-.2-.4-.6-.4-1.2s.2-1,.6-1.3.9-.4,1.5-.4,1,0,1.8.2h.4c0,0,0,1.3,0,1.3Z"/>
      <path class="st0" d="M40.4,532.1c-.9-.1-1.5-.2-1.9-.2s-.6,0-.7,0c-.1,0-.2.2-.2.3s0,.2.2.3c.1,0,.5.1,1.1.2.6.1,1,.3,1.3.5.2.2.4.6.4,1.2,0,1.2-.7,1.8-2.2,1.8s-1.1,0-1.8-.2h-.4c0,0,0-1.3,0-1.3.9.1,1.5.2,1.9.2s.6,0,.7-.1c.1,0,.2-.2.2-.3s0-.2-.2-.3-.5-.1-1.1-.2c-.6,0-1-.3-1.3-.5-.3-.2-.4-.6-.4-1.2s.2-1,.6-1.3c.4-.3.9-.4,1.5-.4s1,0,1.8.2h.4c0,0,0,1.3,0,1.3Z"/>
      <path class="st0" d="M42,531.3c.4-.5,1-.8,1.9-.8s1.6.3,1.9.8c.4.5.6,1.2.6,2.1,0,1.9-.8,2.9-2.5,2.9s-2.5-1-2.5-2.9.2-1.6.6-2.1ZM43.1,534.7c.2.3.4.4.8.4s.7-.1.8-.4c.2-.3.2-.7.2-1.2s0-1-.2-1.2-.4-.4-.8-.4-.7.1-.8.4-.2.7-.2,1.2,0,1,.2,1.2Z"/>
    </g>
  </g>
  <g class="st9">
    <g class="st9">
      <g class="st9">
        <path class="st0" d="M17.5,453.2v-7.5h2.6l1.3,5.5,1.3-5.5h2.6v7.5h-1.5v-5.8h-.2l-1.5,5.5h-1.5l-1.5-5.5h-.2v5.8h-1.5Z"/>
        <path class="st0" d="M27.1,448.3c.4-.5,1-.8,1.9-.8s1.6.3,1.9.8c.4.5.6,1.2.6,2.1,0,1.9-.8,2.9-2.5,2.9s-2.5-1-2.5-2.9.2-1.6.6-2.1ZM28.2,451.7c.1.3.4.4.8.4s.7-.1.8-.4c.2-.3.2-.7.2-1.2s0-1-.2-1.2-.4-.4-.8-.4-.7.1-.8.4c-.2.3-.2.7-.2,1.2s0,1,.2,1.2Z"/>
        <path class="st0" d="M32.7,453.2v-7.7h1.5v7.7h-1.5Z"/>
        <path class="st0" d="M38.6,449h-1.4v2.3c0,.2,0,.4,0,.5s0,.2.1.2c0,0,.2,0,.3,0h.8s0,1.2,0,1.2c-.5.1-.9.2-1.1.2-.7,0-1.1-.1-1.4-.4-.2-.3-.4-.8-.4-1.6v-2.3h-.6v-1.3h.6v-1.5h1.5v1.5h1.4v1.3Z"/>
        <path class="st0" d="M39.9,448.3c.4-.5,1-.8,1.9-.8s1.6.3,1.9.8c.4.5.6,1.2.6,2.1,0,1.9-.8,2.9-2.5,2.9s-2.5-1-2.5-2.9.2-1.6.6-2.1ZM41,451.7c.1.3.4.4.8.4s.7-.1.8-.4c.2-.3.2-.7.2-1.2s0-1-.2-1.2-.4-.4-.8-.4-.7.1-.8.4c-.2.3-.2.7-.2,1.2s0,1,.2,1.2Z"/>
      </g>
      <g class="st9">
        <path class="st0" d="M15.8,463.2v-7.5h2.6l1.3,5.5,1.3-5.5h2.6v7.5h-1.5v-5.8h-.2l-1.5,5.5h-1.5l-1.5-5.5h-.2v5.8h-1.5Z"/>
        <path class="st0" d="M25.4,458.3c.4-.5,1-.8,1.9-.8s1.6.3,1.9.8c.4.5.6,1.2.6,2.1,0,1.9-.8,2.9-2.5,2.9s-2.5-1-2.5-2.9.2-1.6.6-2.1ZM26.5,461.7c.1.3.4.4.8.4s.7-.1.8-.4c.2-.3.2-.7.2-1.2s0-1-.2-1.2-.4-.4-.8-.4-.7.1-.8.4c-.2.3-.2.7-.2,1.2s0,1,.2,1.2Z"/>
        <path class="st0" d="M34.9,459.1c-.9-.1-1.5-.2-1.9-.2s-.6,0-.7,0c-.1,0-.2.2-.2.3s0,.2.2.3c.1,0,.5.1,1.1.2.6.1,1,.3,1.3.5.2.2.4.6.4,1.2,0,1.2-.7,1.8-2.2,1.8s-1.1,0-1.8-.2h-.4c0,0,0-1.3,0-1.3.9.1,1.5.2,1.9.2s.6,0,.7-.1c.1,0,.2-.2.2-.3s0-.2-.2-.3-.5-.1-1.1-.2c-.6,0-1-.3-1.3-.5-.3-.2-.4-.6-.4-1.2s.2-1,.6-1.3.9-.4,1.5-.4,1,0,1.8.2h.4c0,0,0,1.3,0,1.3Z"/>
        <path class="st0" d="M40,459.1c-.9-.1-1.5-.2-1.9-.2s-.6,0-.7,0c-.1,0-.2.2-.2.3s0,.2.2.3c.1,0,.5.1,1.1.2s1,.3,1.3.5.4.6.4,1.2c0,1.2-.7,1.8-2.2,1.8s-1.1,0-1.8-.2h-.4c0,0,0-1.3,0-1.3.9.1,1.5.2,1.9.2s.6,0,.7-.1c.1,0,.2-.2.2-.3s0-.2-.2-.3c-.1,0-.5-.1-1.1-.2-.6,0-1-.3-1.3-.5-.3-.2-.4-.6-.4-1.2s.2-1,.6-1.3c.4-.3.9-.4,1.5-.4s1,0,1.8.2h.4c0,0,0,1.3,0,1.3Z"/>
        <path class="st0" d="M41.6,458.3c.4-.5,1-.8,1.9-.8s1.6.3,1.9.8c.4.5.6,1.2.6,2.1,0,1.9-.8,2.9-2.5,2.9s-2.5-1-2.5-2.9.2-1.6.6-2.1ZM42.7,461.7c.2.3.4.4.8.4s.7-.1.8-.4c.2-.3.2-.7.2-1.2s0-1-.2-1.2-.4-.4-.8-.4-.7.1-.8.4-.2.7-.2,1.2,0,1,.2,1.2Z"/>
      </g>
    </g>
    <g class="st9">
      <g class="st9">
        <path class="st0" d="M13.5,380.4l1.7-7.5h2.9l1.7,7.5h-1.5l-.3-1.4h-2.6l-.3,1.4h-1.5ZM16.3,374.2l-.8,3.6h2l-.8-3.6h-.5Z"/>
        <path class="st0" d="M25.5,381.1c0,.6-.2,1.1-.7,1.4s-1.1.5-2,.5-1.5-.1-1.9-.3c-.4-.2-.7-.6-.7-1.2s.3-.9.8-1.3c-.3-.2-.4-.5-.4-.8s.1-.4.3-.7v-.2c-.4-.4-.6-.9-.6-1.6s.2-1.2.6-1.5,1-.5,1.7-.5.6,0,.9.1h.2s1.8,0,1.8,0v1.2h-.8c.2.2.2.4.2.7,0,.7-.2,1.2-.6,1.5-.4.3-1,.4-1.8.4s-.3,0-.5,0c0,.2-.1.3-.1.5s0,.2.2.2c.1,0,.4,0,.9,0,.9,0,1.6.1,1.9.4.3.2.5.7.5,1.3ZM21.7,381.2c0,.3.4.5,1.2.5s1.2-.2,1.2-.6,0-.3-.2-.4-.4,0-.8,0h-1c-.2.1-.3.3-.3.5ZM21.8,376.7c0,.5.3.8.8.8s.8-.3.8-.8-.3-.8-.8-.8-.8.3-.8.8Z"/>
        <path class="st0" d="M26.4,374.2v-1.5h1.5v1.5h-1.5ZM26.4,380.4v-5.5h1.5v5.5h-1.5Z"/>
        <path class="st0" d="M32.3,376.2h-1.4v2.3c0,.2,0,.4,0,.5,0,0,0,.2.1.2,0,0,.2,0,.3,0h.8s0,1.2,0,1.2c-.5.1-.9.2-1.1.2-.7,0-1.1-.1-1.4-.4-.2-.3-.4-.8-.4-1.6v-2.3h-.6v-1.3h.6v-1.5h1.5v1.5h1.4v1.3Z"/>
        <path class="st0" d="M37.4,376.6v2.3c0,.2,0,.3,0,.4,0,0,.1.1.3.1v1.1c-.4,0-.7,0-.9,0-.2,0-.4-.2-.7-.3-.5.3-1.1.4-1.6.4-1.1,0-1.7-.6-1.7-1.8s.2-1,.5-1.2c.3-.2.8-.4,1.5-.4h1.2v-.4c0-.2,0-.4-.2-.5-.1,0-.3-.1-.5-.1h-2.1c0,0,0-.9,0-.9.8-.2,1.5-.3,2.2-.3s1.2.1,1.5.4c.3.3.5.8.5,1.4ZM35,378.1c-.4,0-.6.3-.6.7s.2.6.5.6.6,0,.9-.1h.2v-1.2h-1Z"/>
        <path class="st0" d="M41.9,376.2h-1.4v2.3c0,.2,0,.4,0,.5,0,0,0,.2.1.2,0,0,.2,0,.3,0h.8s0,1.2,0,1.2c-.5.1-.9.2-1.1.2-.7,0-1.1-.1-1.4-.4s-.4-.8-.4-1.6v-2.3h-.6v-1.3h.6v-1.5h1.5v1.5h1.4v1.3Z"/>
        <path class="st0" d="M43.2,375.5c.4-.5,1-.8,1.9-.8s1.6.3,1.9.8c.4.5.6,1.2.6,2.1,0,1.9-.8,2.9-2.5,2.9s-2.5-1-2.5-2.9.2-1.6.6-2.1ZM44.3,378.9c.2.3.4.4.8.4s.7-.1.8-.4c.2-.3.2-.7.2-1.2s0-1-.2-1.2-.4-.4-.8-.4-.7.1-.8.4-.2.7-.2,1.2,0,1,.2,1.2Z"/>
      </g>
    </g>
  </g>
  <g class="st9">
    <g class="st9">
      <g class="st9">
        <path class="st6" d="M17.6,300.3v-7.5h2.6l1.3,5.5,1.3-5.5h2.6v7.5h-1.5v-5.8h-.2l-1.5,5.5h-1.5l-1.5-5.5h-.2v5.8h-1.5Z"/>
        <path class="st6" d="M27.2,295.4c.4-.5,1-.8,1.9-.8s1.6.3,1.9.8c.4.5.6,1.2.6,2.1,0,1.9-.8,2.9-2.5,2.9s-2.5-1-2.5-2.9.2-1.6.6-2.1ZM28.3,298.8c.1.3.4.4.8.4s.7-.1.8-.4c.2-.3.2-.7.2-1.2s0-1-.2-1.2-.4-.4-.8-.4-.7.1-.8.4c-.2.3-.2.7-.2,1.2s0,1,.2,1.2Z"/>
        <path class="st6" d="M32.8,300.3v-7.7h1.5v7.7h-1.5Z"/>
        <path class="st6" d="M38.7,296.1h-1.4v2.3c0,.2,0,.4,0,.5,0,0,0,.2.1.2,0,0,.2,0,.3,0h.8s0,1.2,0,1.2c-.5.1-.9.2-1.1.2-.7,0-1.1-.1-1.4-.4s-.4-.8-.4-1.6v-2.3h-.6v-1.3h.6v-1.5h1.5v1.5h1.4v1.3Z"/>
        <path class="st6" d="M40,295.4c.4-.5,1-.8,1.9-.8s1.6.3,1.9.8c.4.5.6,1.2.6,2.1,0,1.9-.8,2.9-2.5,2.9s-2.5-1-2.5-2.9.2-1.6.6-2.1ZM41.1,298.8c.2.3.4.4.8.4s.7-.1.8-.4c.2-.3.2-.7.2-1.2s0-1-.2-1.2-.4-.4-.8-.4-.7.1-.8.4-.2.7-.2,1.2,0,1,.2,1.2Z"/>
      </g>
      <g class="st9">
        <path class="st6" d="M13.7,309.3l1.7-7.5h2.9l1.7,7.5h-1.5l-.3-1.4h-2.6l-.3,1.4h-1.5ZM16.5,303.1l-.8,3.6h2l-.8-3.6h-.5Z"/>
        <path class="st6" d="M25.7,310c0,.6-.2,1.1-.7,1.4s-1.1.5-2,.5-1.5-.1-1.9-.3c-.4-.2-.7-.6-.7-1.2s.3-.9.8-1.3c-.3-.2-.4-.5-.4-.8s.1-.4.3-.7v-.2c-.4-.4-.6-.9-.6-1.6s.2-1.2.6-1.5,1-.5,1.7-.5.6,0,.9.1h.2s1.8,0,1.8,0v1.2h-.8c.2.2.2.4.2.7,0,.7-.2,1.2-.6,1.5-.4.3-1,.4-1.8.4s-.3,0-.5,0c0,.2-.1.3-.1.5s0,.2.2.2c.1,0,.4,0,.9,0,.9,0,1.6.1,1.9.4.3.2.5.7.5,1.3ZM21.9,310.1c0,.3.4.5,1.2.5s1.2-.2,1.2-.6,0-.3-.2-.4-.4,0-.8,0h-1c-.2.1-.3.3-.3.5ZM22,305.6c0,.5.3.8.8.8s.8-.3.8-.8-.3-.8-.8-.8-.8.3-.8.8Z"/>
        <path class="st6" d="M26.6,303.1v-1.5h1.5v1.5h-1.5ZM26.6,309.3v-5.5h1.5v5.5h-1.5Z"/>
        <path class="st6" d="M32.5,305.1h-1.4v2.3c0,.2,0,.4,0,.5,0,0,0,.2.1.2,0,0,.2,0,.3,0h.8s0,1.2,0,1.2c-.5.1-.9.2-1.1.2-.7,0-1.1-.1-1.4-.4-.2-.3-.4-.8-.4-1.6v-2.3h-.6v-1.3h.6v-1.5h1.5v1.5h1.4v1.3Z"/>
        <path class="st6" d="M37.6,305.5v2.3c0,.2,0,.3,0,.4,0,0,.1.1.3.1v1.1c-.4,0-.7,0-.9,0-.2,0-.4-.2-.7-.3-.5.3-1.1.4-1.6.4-1.1,0-1.7-.6-1.7-1.8s.2-1,.5-1.2c.3-.2.8-.4,1.5-.4h1.2v-.4c0-.2,0-.4-.2-.5-.1,0-.3-.1-.5-.1h-2.1c0,0,0-.9,0-.9.8-.2,1.5-.3,2.2-.3s1.2.1,1.5.4c.3.3.5.8.5,1.4ZM35.2,307c-.4,0-.6.3-.6.7s.2.6.5.6.6,0,.9-.1h.2v-1.2h-1Z"/>
        <path class="st6" d="M42.1,305.1h-1.4v2.3c0,.2,0,.4,0,.5,0,0,0,.2.1.2,0,0,.2,0,.3,0h.8s0,1.2,0,1.2c-.5.1-.9.2-1.1.2-.7,0-1.1-.1-1.4-.4-.2-.3-.4-.8-.4-1.6v-2.3h-.6v-1.3h.6v-1.5h1.5v1.5h1.4v1.3Z"/>
        <path class="st6" d="M43.4,304.4c.4-.5,1-.8,1.9-.8s1.6.3,1.9.8c.4.5.6,1.2.6,2.1,0,1.9-.8,2.9-2.5,2.9s-2.5-1-2.5-2.9.2-1.6.6-2.1ZM44.5,307.8c.2.3.4.4.8.4s.7-.1.8-.4c.2-.3.2-.7.2-1.2s0-1-.2-1.2-.4-.4-.8-.4-.7.1-.8.4-.2.7-.2,1.2,0,1,.2,1.2Z"/>
      </g>
    </g>
  </g>
  <g class="st9">
    <g class="st9">
      <g class="st9">
        <path class="st6" d="M18.6,228.9v-1.3h2.2v3.9c-1,.2-1.9.3-2.6.3-1.2,0-2-.3-2.4-.9s-.7-1.6-.7-3,.2-2.3.7-2.9c.5-.6,1.2-.9,2.3-.9s1.4,0,2.2.2h.4c0,0,0,1.3,0,1.3-.9,0-1.6-.1-2.2-.1s-1,0-1.2.2c-.2.1-.4.4-.5.7-.1.4-.2,1-.2,1.8s.1,1.5.3,1.8c.2.3.7.5,1.3.5h.9v-1.5h-.7Z"/>
        <path class="st6" d="M22.1,231.6v-5.5h1.5v.6c.6-.4,1.2-.6,1.8-.7v1.5c-.6.1-1.1.3-1.5.4h-.2v3.8h-1.5Z"/>
        <path class="st6" d="M26.5,226.7c.4-.5,1-.8,1.9-.8s1.6.3,1.9.8c.4.5.6,1.2.6,2.1,0,1.9-.8,2.9-2.5,2.9s-2.5-1-2.5-2.9.2-1.6.6-2.1ZM27.6,230.1c.1.3.4.4.8.4s.7-.1.8-.4c.2-.3.2-.7.2-1.2s0-1-.2-1.2-.4-.4-.8-.4-.7.1-.8.4c-.2.3-.2.7-.2,1.2s0,1,.2,1.2Z"/>
        <path class="st6" d="M36,227.5c-.9-.1-1.5-.2-1.9-.2s-.6,0-.7,0c-.1,0-.2.2-.2.3s0,.2.2.3c.1,0,.5.1,1.1.2.6.1,1,.3,1.3.5s.4.6.4,1.2c0,1.2-.7,1.8-2.2,1.8s-1.1,0-1.8-.2h-.4c0,0,0-1.3,0-1.3.9.1,1.5.2,1.9.2s.6,0,.7-.1c.1,0,.2-.2.2-.3s0-.2-.2-.3c-.1,0-.5-.1-1.1-.2-.6,0-1-.3-1.3-.5-.3-.2-.4-.6-.4-1.2s.2-1,.6-1.3c.4-.3.9-.4,1.5-.4s1,0,1.8.2h.4c0,0,0,1.3,0,1.3Z"/>
        <path class="st6" d="M41.2,227.5c-.9-.1-1.5-.2-1.9-.2s-.6,0-.7,0c-.1,0-.2.2-.2.3s0,.2.2.3c.1,0,.5.1,1.1.2.6.1,1,.3,1.3.5s.4.6.4,1.2c0,1.2-.7,1.8-2.2,1.8s-1.1,0-1.8-.2h-.4c0,0,0-1.3,0-1.3.9.1,1.5.2,1.9.2s.6,0,.7-.1c.1,0,.2-.2.2-.3s0-.2-.2-.3c-.1,0-.5-.1-1.1-.2-.6,0-1-.3-1.3-.5-.3-.2-.4-.6-.4-1.2s.2-1,.6-1.3c.4-.3.9-.4,1.5-.4s1,0,1.8.2h.4c0,0,0,1.3,0,1.3Z"/>
        <path class="st6" d="M42.7,226.7c.4-.5,1-.8,1.9-.8s1.6.3,1.9.8c.4.5.6,1.2.6,2.1,0,1.9-.8,2.9-2.5,2.9s-2.5-1-2.5-2.9.2-1.6.6-2.1ZM43.9,230.1c.1.3.4.4.8.4s.7-.1.8-.4c.2-.3.2-.7.2-1.2s0-1-.2-1.2-.4-.4-.8-.4-.7.1-.8.4c-.2.3-.2.7-.2,1.2s0,1,.2,1.2Z"/>
      </g>
    </g>
  </g>
  <g class="st9">
    <g class="st9">
      <path class="st6" d="M18.7,153.6v-6.8h2.3l1.2,5,1.2-5h2.3v6.8h-1.4v-5.3h-.1l-1.3,5h-1.4l-1.3-5h-.1v5.3h-1.4Z"/>
      <path class="st6" d="M27.4,149.2c.4-.5.9-.7,1.8-.7s1.4.2,1.8.7c.4.5.5,1.1.5,1.9,0,1.8-.8,2.6-2.3,2.6s-2.3-.9-2.3-2.6.2-1.5.5-1.9ZM28.4,152.2c.1.2.4.4.7.4s.6-.1.7-.4.2-.6.2-1.1,0-.9-.2-1.1-.4-.4-.7-.4-.6.1-.7.4-.2.6-.2,1.1,0,.9.2,1.1Z"/>
      <path class="st6" d="M32.5,153.6v-7h1.3v7h-1.3Z"/>
      <path class="st6" d="M37.9,149.7h-1.2v2.1c0,.2,0,.3,0,.4,0,0,0,.2.1.2,0,0,.2,0,.3,0h.8s0,1,0,1c-.4.1-.8.2-1,.2-.6,0-1-.1-1.2-.4-.2-.3-.3-.8-.3-1.5v-2.1h-.6v-1.1h.6v-1.4h1.3v1.4h1.2v1.1Z"/>
      <path class="st6" d="M39.1,149.2c.4-.5.9-.7,1.8-.7s1.4.2,1.8.7c.4.5.5,1.1.5,1.9,0,1.8-.8,2.6-2.3,2.6s-2.3-.9-2.3-2.6.2-1.5.5-1.9ZM40.1,152.2c.1.2.4.4.7.4s.6-.1.7-.4.2-.6.2-1.1,0-.9-.2-1.1-.4-.4-.7-.4-.6.1-.7.4-.2.6-.2,1.1,0,.9.2,1.1Z"/>
    </g>
    <g class="st9">
      <path class="st6" d="M19.4,160.2v-1.2h2v3.5c-1,.2-1.7.2-2.3.2-1.1,0-1.8-.3-2.2-.9-.4-.6-.6-1.5-.6-2.7s.2-2.1.6-2.7c.4-.5,1.1-.8,2.1-.8s1.3,0,2,.2h.4c0,0,0,1.1,0,1.1-.8,0-1.5-.1-2-.1s-.9,0-1.1.2c-.2.1-.4.3-.5.7,0,.3-.1.9-.1,1.7s0,1.3.3,1.6.6.5,1.2.5h.8v-1.4h-.6Z"/>
      <path class="st6" d="M22.5,162.6v-5h1.3v.5c.6-.3,1.1-.5,1.6-.7v1.4c-.5.1-1,.2-1.4.3h-.2v3.4h-1.3Z"/>
      <path class="st6" d="M26.5,158.2c.4-.5.9-.7,1.8-.7s1.4.2,1.8.7c.4.5.5,1.1.5,1.9,0,1.8-.8,2.6-2.3,2.6s-2.3-.9-2.3-2.6.2-1.5.5-1.9ZM27.6,161.2c.1.2.4.4.7.4s.6-.1.7-.4.2-.6.2-1.1,0-.9-.2-1.1-.4-.4-.7-.4-.6.1-.7.4-.2.6-.2,1.1,0,.9.2,1.1Z"/>
      <path class="st6" d="M35.2,158.9c-.8-.1-1.4-.2-1.7-.2s-.5,0-.6,0c0,0-.1.2-.1.3s0,.2.2.3c.1,0,.5.1,1,.2.5,0,.9.3,1.1.5.2.2.3.6.3,1.1,0,1.1-.7,1.6-2,1.6s-1,0-1.6-.2h-.3c0,0,0-1.2,0-1.2.8.1,1.4.2,1.7.2s.5,0,.7,0c.1,0,.2-.2.2-.3s0-.2-.2-.3c-.1,0-.4-.1-1-.2s-.9-.2-1.2-.4c-.3-.2-.4-.6-.4-1.1s.2-.9.5-1.2c.4-.3.8-.4,1.4-.4s.9,0,1.6.2h.3c0,0,0,1.2,0,1.2Z"/>
      <path class="st6" d="M39.9,158.9c-.8-.1-1.4-.2-1.7-.2s-.5,0-.6,0c0,0-.1.2-.1.3s0,.2.2.3c.1,0,.5.1,1,.2.5,0,.9.3,1.1.5.2.2.3.6.3,1.1,0,1.1-.7,1.6-2,1.6s-1,0-1.6-.2h-.3c0,0,0-1.2,0-1.2.8.1,1.4.2,1.7.2s.5,0,.7,0c.1,0,.2-.2.2-.3s0-.2-.2-.3c-.1,0-.4-.1-1-.2s-.9-.2-1.2-.4c-.3-.2-.4-.6-.4-1.1s.2-.9.5-1.2c.4-.3.8-.4,1.4-.4s.9,0,1.6.2h.3c0,0,0,1.2,0,1.2Z"/>
      <path class="st6" d="M41.3,158.2c.4-.5.9-.7,1.8-.7s1.4.2,1.8.7c.4.5.5,1.1.5,1.9,0,1.8-.8,2.6-2.3,2.6s-2.3-.9-2.3-2.6.2-1.5.5-1.9ZM42.3,161.2c.1.2.4.4.7.4s.6-.1.7-.4.2-.6.2-1.1,0-.9-.2-1.1-.4-.4-.7-.4-.6.1-.7.4-.2.6-.2,1.1,0,.9.2,1.1Z"/>
    </g>
  </g>
  <g class="st9">
    <g class="st9">
      <path class="st6" d="M7.2,72.8v-1.1h4.5v1.1h-1.6v5h-1.2v-5h-1.6Z"/>
      <path class="st6" d="M13,76.7c.1.1.3.2.6.2.6,0,1.1,0,1.5,0h.3s0,.9,0,.9c-.7.2-1.3.3-1.9.3s-1.2-.2-1.5-.5c-.3-.4-.5-.9-.5-1.8,0-1.6.7-2.4,2-2.4s2,.7,2,2v.8h-2.7c0,.3,0,.5.2.6ZM14.3,75.1c0-.4,0-.6-.2-.8-.1-.1-.3-.2-.6-.2s-.5,0-.6.2c-.1.1-.2.4-.2.7h1.6Z"/>
      <path class="st6" d="M17.6,77.8h-1.2v-4.5h1.2v.3c.4-.2.8-.4,1.1-.4.5,0,.9.1,1.1.4.6-.3,1.1-.4,1.5-.4s1,.2,1.2.5c.2.3.3.9.3,1.7v2.4h-1.2v-2.4c0-.4,0-.7-.1-.9,0-.2-.3-.3-.5-.3s-.4,0-.7.1h-.1c0,.5,0,.8,0,1.1v2.3h-1.2v-2.3c0-.4,0-.8-.1-.9,0-.2-.2-.3-.5-.3s-.5,0-.7.1h-.1v3.4Z"/>
      <path class="st6" d="M23.9,79.7v-6.4h1.2v.2c.4-.2.7-.4,1-.4.6,0,1.1.2,1.3.5s.4,1,.4,1.8-.2,1.5-.5,1.8c-.3.3-.8.5-1.6.5s-.4,0-.6,0h-.1s0,1.8,0,1.8h-1.2ZM25.9,74.3c-.2,0-.4,0-.7.1h-.1v2.4c.3,0,.5,0,.7,0,.3,0,.6-.1.7-.3.1-.2.2-.6.2-1,0-.8-.3-1.2-.8-1.2Z"/>
      <path class="st6" d="M30,76.7c.1.1.3.2.6.2.6,0,1.1,0,1.5,0h.3s0,.9,0,.9c-.7.2-1.3.3-1.9.3s-1.2-.2-1.5-.5c-.3-.4-.5-.9-.5-1.8,0-1.6.7-2.4,2-2.4s2,.7,2,2v.8h-2.7c0,.3,0,.5.2.6ZM31.3,75.1c0-.4,0-.6-.2-.8-.1-.1-.3-.2-.6-.2s-.5,0-.6.2c-.1.1-.2.4-.2.7h1.6Z"/>
      <path class="st6" d="M36.6,74.4c-.7,0-1.3-.1-1.6-.1s-.5,0-.6,0c0,0-.1.1-.1.3s0,.2.2.2.4.1.9.2c.5,0,.8.2,1,.4.2.2.3.5.3,1,0,1-.6,1.5-1.8,1.5s-.9,0-1.4-.2h-.3c0,0,0-1.1,0-1.1.7,0,1.3.1,1.6.1s.5,0,.6,0c.1,0,.2-.1.2-.3s0-.2-.2-.3c-.1,0-.4-.1-.9-.2s-.8-.2-1-.4c-.2-.2-.3-.5-.3-1s.2-.8.5-1.1.7-.4,1.3-.4.8,0,1.4.2h.3c0,0,0,1.1,0,1.1Z"/>
      <path class="st6" d="M40.1,74.3h-1.1v1.8c0,.2,0,.3,0,.4,0,0,0,.1,0,.2,0,0,.1,0,.3,0h.7s0,.9,0,.9c-.4,0-.7.1-.9.1-.5,0-.9-.1-1.1-.4-.2-.2-.3-.7-.3-1.3v-1.9h-.5v-1h.5v-1.3h1.2v1.3h1.1v1Z"/>
      <path class="st6" d="M41.2,73.8c.3-.4.8-.6,1.6-.6s1.3.2,1.6.6.5,1,.5,1.7c0,1.6-.7,2.4-2.1,2.4s-2.1-.8-2.1-2.4.2-1.3.5-1.7ZM42.1,76.6c.1.2.3.3.7.3s.5-.1.7-.3.2-.6.2-1,0-.8-.2-1-.3-.3-.7-.3-.5.1-.7.3-.2.5-.2,1,0,.8.2,1Z"/>
      <path class="st6" d="M48.9,74.4c-.7,0-1.3-.1-1.6-.1s-.5,0-.6,0c0,0-.1.1-.1.3s0,.2.2.2c.1,0,.4.1.9.2s.8.2,1,.4c.2.2.3.5.3,1,0,1-.6,1.5-1.8,1.5s-.9,0-1.4-.2h-.3c0,0,0-1.1,0-1.1.7,0,1.3.1,1.6.1s.5,0,.6,0c.1,0,.2-.1.2-.3s0-.2-.2-.3c-.1,0-.4-.1-.9-.2-.5,0-.8-.2-1-.4-.2-.2-.3-.5-.3-1s.2-.8.5-1.1c.3-.2.7-.4,1.3-.4s.8,0,1.4.2h.3c0,0,0,1.1,0,1.1Z"/>
      <path class="st6" d="M50.2,73.8c.3-.4.8-.6,1.6-.6s1.3.2,1.6.6c.3.4.5,1,.5,1.7,0,1.6-.7,2.4-2.1,2.4s-2.1-.8-2.1-2.4.2-1.3.5-1.7ZM51.1,76.6c.1.2.3.3.7.3s.5-.1.7-.3c.1-.2.2-.6.2-1s0-.8-.2-1c-.1-.2-.3-.3-.7-.3s-.5.1-.7.3-.2.5-.2,1,0,.8.2,1Z"/>
    </g>
  </g>
  <line class="st3" x1="3.7" y1="496.1" x2="16.6" y2="496.1"/>
  <g class="st9">
    <g class="st9">
      <path class="st0" d="M25.1,491.4v7.3h-1.5v-5.5l-1.6,1-.7-1.1,2.4-1.6h1.4Z"/>
      <path class="st0" d="M27.3,498.7v-1.8h1.6v1.8h-1.6Z"/>
      <path class="st0" d="M34.9,498.7h-4.7v-1.3l1.6-1.6c.5-.6.9-1,1.1-1.3s.3-.6.3-1,0-.6-.3-.7c-.2-.1-.4-.2-.8-.2-.5,0-1,0-1.6.1h-.3s0-1.1,0-1.1c.7-.2,1.5-.3,2.2-.3,1.5,0,2.3.7,2.3,2.1s-.1,1-.4,1.4c-.2.4-.7.9-1.3,1.4l-1.3,1.1h3v1.3Z"/>
      <path class="st0" d="M41,491.4v1.3h-3.2l-.2,1.6c.5-.2.9-.3,1.3-.3,1.6,0,2.4.7,2.4,2.2s-.2,1.5-.6,1.9-1,.7-1.8.7-.7,0-1.1,0c-.4,0-.8-.1-1-.2h-.4c0,0,.2-1.2.2-1.2.9.1,1.6.2,2.2.2s.6,0,.8-.3c.2-.2.3-.5.3-.8s0-.6-.2-.8-.4-.2-.7-.2c-.5,0-.9,0-1.3.1h-.2s-.9-.2-.9-.2l.2-3.9h4.4Z"/>
    </g>
  </g>
  <line class="st3" x1="43.9" y1="496.1" x2="58.5" y2="496.1"/>
  <line class="st3" x1="4" y1="420.7" x2="16.6" y2="420.7"/>
  <line class="st3" x1="46.1" y1="420.6" x2="58.7" y2="420.6"/>
  <g>
    <g class="st9">
      <g class="st9">
        <path class="st0" d="M26.1,423.3h-4.7v-1.3l1.6-1.6c.5-.6.9-1,1.1-1.3s.3-.6.3-1,0-.6-.3-.7c-.2-.1-.4-.2-.8-.2-.5,0-1,0-1.6.1h-.3s0-1.1,0-1.1c.7-.2,1.5-.3,2.2-.3,1.5,0,2.3.7,2.3,2.1s-.1,1-.4,1.4c-.2.4-.7.9-1.3,1.4l-1.3,1.1h3v1.3Z"/>
        <path class="st0" d="M27.5,423.3v-1.8h1.6v1.8h-1.6Z"/>
        <path class="st0" d="M35.1,416v1.3h-3.2l-.2,1.6c.5-.2.9-.3,1.3-.3,1.6,0,2.4.7,2.4,2.2s-.2,1.5-.6,1.9-1,.7-1.8.7-.7,0-1.1,0c-.4,0-.8-.1-1-.2h-.4c0,0,.2-1.2.2-1.2.9.1,1.6.2,2.2.2s.6,0,.8-.3c.2-.2.3-.5.3-.8s0-.6-.2-.8c-.2-.2-.4-.2-.7-.2-.5,0-.9,0-1.3.1h-.2s-.9-.2-.9-.2l.2-3.9h4.4Z"/>
        <path class="st0" d="M36.8,416.8c.5-.6,1.2-.9,2.1-.9s1.6.3,2.1.9c.5.6.7,1.6.7,2.9s-.2,2.3-.7,2.9c-.5.6-1.2.9-2.1.9s-1.6-.3-2.1-.9c-.5-.6-.7-1.5-.7-2.9s.2-2.3.7-2.9ZM40.2,419.7c0-.9,0-1.5-.3-1.9s-.5-.5-1-.5-.8.2-1,.5c-.2.4-.3,1-.3,1.9s0,1.5.3,1.9c.2.4.5.5,1,.5s.8-.2,1-.5.3-1,.3-1.9Z"/>
      </g>
    </g>
    <line class="st3" x1="3.9" y1="345.1" x2="16.6" y2="345.1"/>
    <g class="st9">
      <g class="st9">
        <path class="st6" d="M31.3,347.6v-1.2h-3.1v-1.2l1.8-4.9h1.7l-1.9,4.7h1.6v-2h1.5v2h.7v1.3h-.7v1.2h-1.5Z"/>
      </g>
    </g>
    <line class="st3" x1="46.1" y1="345.1" x2="58.8" y2="345.1"/>
  </g>
  <line class="st3" x1="3.9" y1="269.7" x2="16.4" y2="269.7"/>
  <g class="st9">
    <g class="st9">
      <path class="st6" d="M33.6,266.2c-.7-.1-1.4-.2-1.9-.2-1,0-1.6.6-1.6,1.7h.2c.5-.2.9-.3,1.2-.3.8,0,1.5.2,1.9.6.4.4.6,1,.6,1.8s-.2,1.4-.7,1.8c-.5.4-1.1.6-2,.6s-1.6-.3-2-1c-.5-.6-.7-1.6-.7-2.9s.3-2.2.8-2.8c.5-.6,1.3-.9,2.2-.9s1.2,0,1.8.2h.3c0,0-.1,1.2-.1,1.2ZM31.3,268.8c-.3,0-.7,0-1.1.2h-.2c0,1.3.4,2,1.2,2s.6,0,.8-.3c.2-.2.3-.5.3-.8,0-.7-.4-1-1.1-1Z"/>
    </g>
  </g>
  <line class="st3" x1="46.1" y1="269.6" x2="59.4" y2="269.6"/>
  <line class="st3" x1="3.7" y1="194" x2="16.6" y2="194"/>
  <g class="st9">
    <g class="st9">
      <path class="st6" d="M30.4,195.8c.9,0,1.3-.5,1.3-1.6h-.2c-.5.2-.8.3-1.1.3-.7,0-1.3-.2-1.7-.5-.4-.4-.6-.9-.6-1.6s.2-1.2.7-1.6c.4-.4,1-.6,1.8-.6s1.4.3,1.8.9.6,1.5.6,2.6-.2,2-.7,2.5c-.5.5-1.1.8-2,.8s-1.1,0-1.7-.2h-.3c0,0,.1-1.1.1-1.1.7.1,1.3.2,1.9.2ZM30.6,193.3c.3,0,.6,0,1-.2h.2c0-1.2-.4-1.7-1.1-1.7s-.6,0-.7.3-.3.4-.3.7c0,.6.3.9,1,.9Z"/>
    </g>
  </g>
  <line class="st3" x1="46.1" y1="193.8" x2="58.6" y2="193.8"/>
  <line class="st3" x1="3.9" y1="118.2" x2="16.6" y2="118.2"/>
  <g class="st9">
    <g class="st9">
      <path class="st6" d="M29.5,114.2v7.3h-1.5v-5.5l-1.6,1-.7-1.1,2.4-1.6h1.4Z"/>
      <path class="st6" d="M34.6,121.5v-1.2h-3.1v-1.2l1.8-4.9h1.7l-1.9,4.7h1.6v-2h1.5v2h.7v1.3h-.7v1.2h-1.5Z"/>
    </g>
  </g>
  <line class="st3" x1="46" y1="118.5" x2="58.6" y2="118.5"/>
  <path class="st4" d="M48.9,21.2s-7.5,7.9-12.1.7c-4.3-6.8,2.7-11.3,2.7-11.3-9.5-2.3-11.9,5.9-16.4,10.6-4.5,4.8-10.4,0-10.4,0"/>
  <path class="st4" d="M43.6,26.8s-5.2,5.1-8.6.5,1.9-8,1.9-8c-6.7-1.6-8.4,4.1-11.6,7.5s-7.4,0-7.4,0"/>
  <rect class="st1" x="2.8" y="42.7" width="56.6" height="680.4" rx="6.1" ry="6.1"/>
</svg>