<?xml version="1.0" encoding="UTF-8"?>
<svg id="Livello_1" xmlns="http://www.w3.org/2000/svg" version="1.1" viewBox="0 0 62.3 725">
  <!-- Generator: Adobe Illustrator 29.6.1, SVG Export Plug-In . SVG Version: 2.1.1 Build 9)  -->
  <defs>
    <style>
      .st0 {
        fill: #5c615c;
        stroke-width: .2px;
      }

      .st0, .st1, .st2 {
        stroke: #3c3430;
        stroke-miterlimit: 9.8;
      }

      .st3 {
        fill: #09de5b;
      }

      .st4 {
        fill: #3c3430;
      }

      .st1 {
        stroke-width: 2px;
      }

      .st1, .st5, .st2 {
        fill: none;
      }

      .st6 {
        fill: #39322e;
      }

      .st7 {
        fill: #fff;
      }

      .st8 {
        fill: red;
      }

      .st9 {
        fill: orange;
      }

      .st10 {
        isolation: isolate;
      }

      .st11 {
        fill: #b9e3f3;
      }

      .st12 {
        fill: #7bbbd6;
      }

      .st13 {
        fill: #fd089f;
      }

      .st14 {
        fill: #005cb8;
      }

      .st15 {
        fill: #00945c;
      }

      .st16 {
        fill: #611269;
      }

      .st17 {
        fill: #b922c7;
      }

      .st18 {
        fill: #ff0;
      }
    </style>
  </defs>
  <g>
    <path class="st11" d="M2.1,666.3h56.3v50.8c0,3.3-3.7,6-8.2,6H10.7c-4.9,0-8.8-2.8-8.8-6.4v-50.5h.2Z"/>
    <rect class="st12" x="2" y="609.6" width="56.3" height="56.7"/>
    <rect class="st14" x="2" y="552.9" width="56.3" height="56.7"/>
    <rect class="st3" x="2" y="496.2" width="56.3" height="56.7"/>
    <rect class="st15" x="2" y="439.6" width="56.3" height="56.7"/>
    <rect class="st18" x="2" y="382.9" width="56.3" height="56.7"/>
    <path class="st0" d="M6.9,42.7h45.7c3.2,0,5.8,1.9,5.8,4.2v52.6H1.9v-53.1c0-2,2.2-3.6,5.1-3.6h0Z"/>
    <rect class="st9" x="2" y="326.2" width="56.3" height="56.7"/>
    <rect class="st8" x="2" y="269.5" width="56.3" height="56.7"/>
    <rect class="st13" x="2" y="212.8" width="56.3" height="56.7"/>
    <rect class="st17" x="2" y="156.2" width="56.3" height="56.7"/>
    <rect class="st16" x="2" y="99.5" width="56.3" height="56.7"/>
  </g>
  <circle class="st6" cx="30.8" cy="21.4" r="19.8"/>
  <rect class="st5" x="8.8" y="679.6" width="15.4" height="11.8"/>
  <g class="st10">
    <g class="st10">
      <path class="st4" d="M32.9,711c-.8-.1-1.4-.2-1.7-.2s-.5,0-.6,0c0,0-.1.2-.1.3s0,.2.2.3c.1,0,.5.1,1,.2.5,0,.9.3,1.1.5.2.2.3.6.3,1.1,0,1.1-.7,1.6-2,1.6s-1,0-1.6-.2h-.3c0,0,0-1.2,0-1.2.8.1,1.4.2,1.7.2s.5,0,.7,0c.1,0,.2-.2.2-.3s0-.2-.2-.3c-.1,0-.4-.1-1-.2s-.9-.2-1.2-.4c-.3-.2-.4-.6-.4-1.1s.2-.9.5-1.2c.4-.3.8-.4,1.4-.4s.9,0,1.6.2h.3c0,0,0,1.2,0,1.2Z"/>
    </g>
  </g>
  <line class="st2" x1="3.8" y1="99.5" x2="22.2" y2="99.5"/>
  <g class="st10">
    <g class="st10">
      <path class="st7" d="M30,94.2v7.3h-1.5v-5.5l-1.6,1-.7-1.1,2.4-1.6h1.4Z"/>
      <path class="st7" d="M37,101.4h-4.7v-1.3l1.6-1.6c.5-.6.9-1,1.1-1.3.2-.3.3-.6.3-1s0-.6-.3-.7-.4-.2-.8-.2c-.5,0-1,0-1.6.1h-.3s0-1.1,0-1.1c.7-.2,1.5-.3,2.2-.3,1.5,0,2.3.7,2.3,2.1s-.1,1-.4,1.4c-.2.4-.7.9-1.3,1.4l-1.3,1.1h3v1.3Z"/>
    </g>
  </g>
  <rect class="st1" x="2.8" y="42.7" width="56.6" height="680.4" rx="6.1" ry="6.1"/>
  <g id="Clock_1_x40_2x.png">
    <path class="st7" d="M22.9,16.2c-.3-.2-.7,0-.9.2s0,.7.2.9.7,0,.9-.2,0-.7-.2-.9ZM25.7,12.7c-.3.2-.4.6-.2.9s.6.4.9.2.4-.6.2-.9-.6-.4-.9-.2ZM26.4,29.1c-.3-.2-.7,0-.9.2-.2.3,0,.7.2.9s.7,0,.9-.2c.2-.3,0-.7-.2-.9ZM35.2,13.8c.3.2.7,0,.9-.2.2-.3,0-.7-.2-.9-.3-.2-.7,0-.9.2-.2.3,0,.7.2.9ZM21.3,20.8c-.3,0-.6.3-.6.6s.3.6.6.6.6-.3.6-.6-.3-.6-.6-.6ZM22.3,25.6c-.3.2-.4.6-.2.9s.6.4.9.2.4-.6.2-.9-.6-.4-.9-.2ZM39.3,25.6c-.3-.2-.7,0-.9.2s0,.7.2.9c.3.2.7,0,.9-.2s0-.7-.2-.9ZM40.3,20.8c-.3,0-.6.3-.6.6s.3.6.6.6.6-.3.6-.6-.3-.6-.6-.6ZM30.8,7.6c-7.7,0-13.9,6.2-13.9,13.9s6.2,13.9,13.9,13.9,13.9-6.2,13.9-13.9-6.2-13.9-13.9-13.9ZM30.8,34c-7,0-12.6-5.7-12.6-12.6s5.6-12.6,12.6-12.6,12.6,5.7,12.6,12.6-5.7,12.6-12.6,12.6h0ZM38.7,16.2c-.3.2-.4.6-.2.9s.6.4.9.2.4-.6.2-.9-.6-.4-.9-.2ZM30.8,30.3c-.3,0-.6.3-.6.6s.3.6.6.6.6-.3.6-.6-.3-.6-.6-.6ZM36.5,20.8h-3.2c-.2-.9-.9-1.6-1.8-1.8v-7c0-.3-.3-.6-.6-.6s-.6.3-.6.6v7c-1.1.3-1.9,1.3-1.9,2.4s1.1,2.5,2.5,2.5,2.2-.8,2.4-1.9h3.2c.3,0,.6-.3.6-.6s-.3-.6-.6-.6h0ZM30.8,22.7c-.7,0-1.3-.6-1.3-1.3s.6-1.3,1.3-1.3,1.3.6,1.3,1.3-.6,1.3-1.3,1.3ZM35.2,29.1c-.3.2-.4.6-.2.9s.6.4.9.2.4-.6.2-.9-.6-.4-.9-.2Z"/>
  </g>
  <line class="st2" x1="40.2" y1="99.5" x2="58.6" y2="99.5"/>
  <line class="st2" x1="3.7" y1="156" x2="22.2" y2="156"/>
  <line class="st2" x1="40.1" y1="156" x2="58.6" y2="156"/>
  <line class="st2" x1="3.7" y1="212.9" x2="22.2" y2="212.9"/>
  <g class="st10">
    <g class="st10">
      <path class="st7" d="M31.6,213.6c1,0,1.5-.6,1.5-1.8h-.2c-.5.2-.9.3-1.2.3-.8,0-1.4-.2-1.8-.6s-.6-1-.6-1.7.2-1.4.7-1.8c.5-.4,1.2-.6,2-.6s1.5.3,2,1c.5.6.7,1.6.7,2.9s-.3,2.2-.8,2.8c-.5.6-1.3.9-2.3.9s-1.2,0-1.8-.2h-.3c0,0,.1-1.2.1-1.2.7.1,1.4.2,2,.2ZM31.8,210.8c.3,0,.7,0,1.1-.2h.2c0-1.3-.4-1.9-1.2-1.9s-.6,0-.8.3-.3.5-.3.8c0,.7.4,1,1.1,1Z"/>
    </g>
  </g>
  <line class="st2" x1="40.1" y1="212.9" x2="58.6" y2="212.9"/>
  <line class="st2" x1="3.7" y1="156" x2="22.2" y2="156"/>
  <line class="st2" x1="40.1" y1="156" x2="58.6" y2="156"/>
  <line class="st2" x1="3.7" y1="269.7" x2="22.1" y2="269.7"/>
  <g class="st10">
    <g class="st10">
      <path class="st7" d="M29.7,264.5c.5-.3,1.1-.5,1.9-.5s1.4.2,1.9.5c.5.4.7.8.7,1.5s0,.7-.2,1c-.1.2-.3.4-.6.7.3.3.6.5.7.8s.2.6.2,1c0,.7-.3,1.2-.8,1.6-.5.3-1.2.5-2,.5-1.8,0-2.8-.7-2.8-2s0-.8.2-1.1.4-.5.7-.8c-.3-.2-.5-.5-.6-.7-.1-.2-.2-.6-.2-.9,0-.6.2-1.1.7-1.5ZM30.5,269.1c0,.6.4,1,1.1,1s1.1-.3,1.1-1-.2-.7-.6-.8h-1c-.4.2-.7.4-.7.8ZM31.7,265.3c-.3,0-.6,0-.8.2-.2.1-.3.4-.3.7s.2.6.5.8h1c.4-.2.5-.5.5-.9,0-.6-.3-.9-1-.9Z"/>
    </g>
  </g>
  <line class="st2" x1="40.1" y1="269.7" x2="58.5" y2="269.7"/>
  <line class="st2" x1="3.7" y1="666.3" x2="22.1" y2="666.3"/>
  <g class="st10">
    <path class="st4" d="M32.5,661.7v6.6h-1.4v-5l-1.4.9-.6-1,2.2-1.4h1.3Z"/>
  </g>
  <line class="st2" x1="40.1" y1="666.3" x2="58.5" y2="666.3"/>
  <line class="st2" x1="3.7" y1="609.6" x2="22.1" y2="609.6"/>
  <g class="st10">
    <g class="st10">
      <path class="st7" d="M33.9,611.5h-4.7v-1.3l1.6-1.6c.5-.6.9-1,1.1-1.3.2-.3.3-.6.3-1s0-.6-.3-.7-.4-.2-.8-.2c-.5,0-1,0-1.6.1h-.3s0-1.1,0-1.1c.7-.2,1.5-.3,2.2-.3,1.5,0,2.3.7,2.3,2.1s-.1,1-.4,1.4c-.2.4-.7.9-1.3,1.4l-1.3,1.1h3v1.3Z"/>
    </g>
  </g>
  <line class="st2" x1="40.1" y1="609.6" x2="58.5" y2="609.6"/>
  <line class="st2" x1="3.6" y1="552.8" x2="22.1" y2="552.8"/>
  <g class="st10">
    <g class="st10">
      <path class="st7" d="M29.1,547.8c.7-.3,1.4-.4,2.3-.4s1.4.2,1.8.5c.4.3.6.8.6,1.5s-.3,1.2-.8,1.6c.4.2.6.4.8.6s.2.5.2,1c0,.8-.2,1.4-.6,1.7-.4.4-1,.6-1.9.6s-1.3,0-2-.3h-.4c0,0,0-1.2,0-1.2.8.1,1.5.2,2.1.2s1.1-.3,1.1-1,0-.5-.3-.6-.4-.2-.8-.2h-1.5v-1.3h1.5c.2,0,.5-.1.6-.3.2-.2.3-.4.3-.7,0-.5-.4-.8-1.1-.8s-1,0-1.6.2h-.3s0-1.1,0-1.1Z"/>
    </g>
  </g>
  <line class="st2" x1="40" y1="552.8" x2="58.5" y2="552.8"/>
  <line class="st2" x1="3.7" y1="496.3" x2="22.1" y2="496.3"/>
  <g class="st10">
    <g class="st10">
      <path class="st7" d="M32,498.2v-1.2h-3.1v-1.2l1.8-4.9h1.7l-1.9,4.7h1.6v-2h1.5v2h.7v1.3h-.7v1.2h-1.5Z"/>
    </g>
  </g>
  <line class="st2" x1="40.1" y1="496.3" x2="58.5" y2="496.3"/>
  <line class="st2" x1="3.7" y1="439.6" x2="22.1" y2="439.6"/>
  <g class="st10">
    <path class="st4" d="M33.9,435.6v1.3h-3.2l-.2,1.6c.5-.2.9-.3,1.3-.3,1.6,0,2.4.7,2.4,2.2s-.2,1.5-.6,1.9-1,.7-1.8.7-.7,0-1.1,0c-.4,0-.8-.1-1-.2h-.4c0,0,.2-1.2.2-1.2.9.1,1.6.2,2.2.2s.6,0,.8-.3c.2-.2.3-.5.3-.8s0-.6-.2-.8c-.2-.2-.4-.2-.7-.2-.5,0-.9,0-1.3.1h-.2s-.9-.2-.9-.2l.2-3.9h4.4Z"/>
  </g>
  <line class="st2" x1="40.1" y1="439.6" x2="58.5" y2="439.6"/>
  <line class="st2" x1="3.7" y1="382.9" x2="22.1" y2="382.9"/>
  <g class="st10">
    <path class="st4" d="M33.9,378.9c-.7-.1-1.4-.2-1.9-.2-1,0-1.6.6-1.6,1.7h.2c.5-.2.9-.3,1.2-.3.8,0,1.5.2,1.9.6.4.4.6,1,.6,1.8s-.2,1.4-.7,1.8c-.5.4-1.2.6-2,.6s-1.6-.3-2-1c-.5-.6-.7-1.6-.7-2.9s.3-2.2.8-2.8c.5-.6,1.3-.9,2.2-.9s1.2,0,1.8.2h.3c0,0-.1,1.2-.1,1.2ZM31.7,381.5c-.3,0-.7,0-1.1.2h-.2c0,1.3.4,2,1.2,2s.6,0,.8-.3.3-.5.3-.8c0-.7-.4-1-1.1-1Z"/>
  </g>
  <line class="st2" x1="40.1" y1="382.9" x2="58.5" y2="382.9"/>
  <line class="st2" x1="3.7" y1="326.2" x2="22.1" y2="326.2"/>
  <g class="st10">
    <g class="st10">
      <path class="st7" d="M29.2,322.2v-1.4h4.6v1.7l-2.6,5.7-1.4-.4,2.5-5.3v-.4h-3.1Z"/>
    </g>
  </g>
  <line class="st2" x1="40.1" y1="326.2" x2="58.5" y2="326.2"/>
  <g class="st10">
    <g class="st10">
      <path class="st7" d="M30.1,152.2v7.3h-1.5v-5.5l-1.6,1-.7-1.1,2.4-1.6h1.4Z"/>
      <path class="st7" d="M32.6,153c.5-.6,1.2-.9,2.1-.9s1.6.3,2.1.9c.5.6.7,1.6.7,2.9s-.2,2.3-.7,2.9c-.5.6-1.2.9-2.1.9s-1.6-.3-2.1-.9c-.5-.6-.7-1.5-.7-2.9s.2-2.3.7-2.9ZM36,155.8c0-.9,0-1.5-.3-1.9s-.5-.5-1-.5-.8.2-1,.5c-.2.4-.3,1-.3,1.9s0,1.5.3,1.9c.2.4.5.5,1,.5s.8-.2,1-.5.3-1,.3-1.9Z"/>
    </g>
  </g>
</svg>