<?xml version="1.0" encoding="utf-8"?>
<!-- Generator: Adobe Illustrator 29.6.1, SVG Export Plug-In . SVG Version: 9.03 Build 0)  -->
<svg version="1.1" id="Livello_1" xmlns="http://www.w3.org/2000/svg" xmlns:xlink="http://www.w3.org/1999/xlink" x="0px" y="0px"
	 width="62.3px" height="725px" viewBox="0 0 62.3 725" style="enable-background:new 0 0 62.3 725;" xml:space="preserve">
<style type="text/css">
	.st0{fill:#B9E3F3;}
	.st1{fill:#7BBBD6;}
	.st2{fill:#005CB8;}
	.st3{fill:#09DE5B;}
	.st4{fill:#00945C;}
	.st5{fill:#FFFF00;}
	.st6{fill:#5C615C;stroke:#3C3430;stroke-width:0.2;stroke-miterlimit:9.8;}
	.st7{fill:#FFA500;}
	.st8{fill:#FF0000;}
	.st9{fill:#FD089F;}
	.st10{fill:#B922C7;}
	.st11{fill:#611269;}
	.st12{fill:#39322E;}
	.st13{fill:none;}
	.st14{enable-background:new    ;}
	.st15{fill:#3C3430;}
	.st16{fill:none;stroke:#3C3430;stroke-miterlimit:9.8;}
	.st17{fill:#FFFFFF;}
	.st18{fill:none;stroke:#3C3430;stroke-width:2;stroke-miterlimit:9.8;}
</style>
<g>
	<path class="st0" d="M2.1,666.3h56.3v50.8c0,3.3-3.7,6-8.2,6H10.7c-4.9,0-8.8-2.8-8.8-6.4v-50.5h0.2L2.1,666.3z"/>
	<rect x="2" y="609.6" class="st1" width="56.3" height="56.7"/>
	<rect x="2" y="552.9" class="st2" width="56.3" height="56.7"/>
	<rect x="2" y="496.2" class="st3" width="56.3" height="56.7"/>
	<rect x="2" y="439.6" class="st4" width="56.3" height="56.7"/>
	<rect x="2" y="382.9" class="st5" width="56.3" height="56.7"/>
	<path class="st6" d="M6.9,42.7h45.7c3.2,0,5.8,1.9,5.8,4.2v52.6H1.9V46.4c0-2,2.2-3.6,5.1-3.6l0,0L6.9,42.7z"/>
	<rect x="2" y="326.2" class="st7" width="56.3" height="56.7"/>
	<rect x="2" y="269.5" class="st8" width="56.3" height="56.7"/>
	<rect x="2" y="212.8" class="st9" width="56.3" height="56.7"/>
	<rect x="2" y="156.2" class="st10" width="56.3" height="56.7"/>
	<rect x="2" y="99.5" class="st11" width="56.3" height="56.7"/>
</g>
<circle class="st12" cx="30.8" cy="21.4" r="19.8"/>
<rect x="8.8" y="679.6" class="st13" width="15.4" height="11.8"/>
<g class="st14">
	<g class="st14">
		<path class="st15" d="M35.8,713.5c-1.2-0.1-2-0.3-2.4-0.3s-0.7,0-0.9,0c0,0-0.1,0.3-0.1,0.4c0,0.1,0,0.3,0.3,0.4
			c0.1,0,0.7,0.1,1.4,0.3c0.7,0,1.3,0.4,1.6,0.7c0.3,0.3,0.4,0.9,0.4,1.6c0,1.6-1,2.3-2.9,2.3c-1.9,0-1.4,0-2.3-0.3h-0.4v-1.7
			c1.2,0.1,2,0.3,2.4,0.3c0.4,0,0.7,0,1,0c0.1,0,0.3-0.3,0.3-0.4c0-0.1,0-0.3-0.3-0.4c-0.1,0-0.6-0.1-1.4-0.3
			c-0.9-0.1-1.3-0.3-1.7-0.6c-0.4-0.3-0.6-0.9-0.6-1.6c0-0.7,0.3-1.3,0.7-1.7c0.6-0.4,1.2-0.6,2-0.6c0.9,0,1.3,0,2.3,0.3h0.4v1.7
			L35.8,713.5z"/>
	</g>
</g>
<line class="st16" x1="3.8" y1="99.5" x2="22.2" y2="99.5"/>
<g class="st14">
	<g class="st14">
		<path class="st17" d="M29.4,93.6v10.5h-2.2v-7.9L25,97.6l-1-1.6l3.5-2.3h2L29.4,93.6z"/>
		<path class="st17" d="M39.5,104h-6.8v-1.9l2.3-2.3c0.7-0.9,1.3-1.4,1.6-1.9c0.3-0.4,0.4-0.9,0.4-1.4c0-0.6,0-0.9-0.4-1
			s-0.6-0.3-1.2-0.3c-0.7,0-1.4,0-2.3,0.1h-0.4v-1.6c1-0.3,2.2-0.4,3.2-0.4c2.2,0,3.3,1,3.3,3c0,2-0.1,1.4-0.6,2
			c-0.3,0.6-1,1.3-1.9,2l-1.9,1.6h4.3v1.9L39.5,104z"/>
	</g>
</g>
<path class="st18" d="M8.9,42.7h44.4c3.4,0,6.1,2.7,6.1,6.1V717c0,3.4-2.7,6.1-6.1,6.1H8.9c-3.4,0-6.1-2.7-6.1-6.1V48.8
	C2.8,45.4,5.5,42.7,8.9,42.7z"/>
<g id="Clock_1_x40_2x.png">
	<path class="st17" d="M22.9,16.2c-0.3-0.2-0.7,0-0.9,0.2s0,0.7,0.2,0.9s0.7,0,0.9-0.2S23.1,16.4,22.9,16.2z M25.7,12.7
		c-0.3,0.2-0.4,0.6-0.2,0.9s0.6,0.4,0.9,0.2s0.4-0.6,0.2-0.9S26,12.5,25.7,12.7z M26.4,29.1c-0.3-0.2-0.7,0-0.9,0.2
		c-0.2,0.3,0,0.7,0.2,0.9s0.7,0,0.9-0.2C26.8,29.7,26.6,29.3,26.4,29.1z M35.2,13.8c0.3,0.2,0.7,0,0.9-0.2c0.2-0.3,0-0.7-0.2-0.9
		c-0.3-0.2-0.7,0-0.9,0.2C34.8,13.2,35,13.6,35.2,13.8z M21.3,20.8c-0.3,0-0.6,0.3-0.6,0.6S21,22,21.3,22s0.6-0.3,0.6-0.6
		S21.6,20.8,21.3,20.8z M22.3,25.6c-0.3,0.2-0.4,0.6-0.2,0.9s0.6,0.4,0.9,0.2s0.4-0.6,0.2-0.9S22.6,25.4,22.3,25.6z M39.3,25.6
		c-0.3-0.2-0.7,0-0.9,0.2s0,0.7,0.2,0.9c0.3,0.2,0.7,0,0.9-0.2S39.5,25.8,39.3,25.6z M40.3,20.8c-0.3,0-0.6,0.3-0.6,0.6
		S40,22,40.3,22s0.6-0.3,0.6-0.6S40.6,20.8,40.3,20.8z M30.8,7.6c-7.7,0-13.9,6.2-13.9,13.9s6.2,13.9,13.9,13.9s13.9-6.2,13.9-13.9
		S38.5,7.6,30.8,7.6z M30.8,34c-7,0-12.6-5.7-12.6-12.6S23.8,8.8,30.8,8.8s12.6,5.7,12.6,12.6S37.7,34,30.8,34
		C30.8,34,30.8,34,30.8,34z M38.7,16.2c-0.3,0.2-0.4,0.6-0.2,0.9s0.6,0.4,0.9,0.2s0.4-0.6,0.2-0.9S39,16,38.7,16.2z M30.8,30.3
		c-0.3,0-0.6,0.3-0.6,0.6s0.3,0.6,0.6,0.6s0.6-0.3,0.6-0.6S31.1,30.3,30.8,30.3z M36.5,20.8h-3.2c-0.2-0.9-0.9-1.6-1.8-1.8v-7
		c0-0.3-0.3-0.6-0.6-0.6s-0.6,0.3-0.6,0.6v7c-1.1,0.3-1.9,1.3-1.9,2.4s1.1,2.5,2.5,2.5s2.2-0.8,2.4-1.9h3.2c0.3,0,0.6-0.3,0.6-0.6
		S36.8,20.8,36.5,20.8L36.5,20.8z M30.8,22.7c-0.7,0-1.3-0.6-1.3-1.3s0.6-1.3,1.3-1.3s1.3,0.6,1.3,1.3S31.5,22.7,30.8,22.7z
		 M35.2,29.1c-0.3,0.2-0.4,0.6-0.2,0.9s0.6,0.4,0.9,0.2s0.4-0.6,0.2-0.9S35.5,28.9,35.2,29.1z"/>
</g>
<line class="st16" x1="40.2" y1="99.5" x2="58.6" y2="99.5"/>
<line class="st16" x1="3.7" y1="156" x2="22.2" y2="156"/>
<line class="st16" x1="40.1" y1="156" x2="58.6" y2="156"/>
<line class="st16" x1="3.7" y1="212.9" x2="22.2" y2="212.9"/>
<g class="st14">
	<g class="st14">
		<path class="st17" d="M31,217.2c1.4,0,2.2-0.9,2.2-2.6h-0.3c-0.7,0.3-1.3,0.4-1.7,0.4c-1.2,0-2-0.3-2.6-0.9
			c-0.6-0.6-0.9-1.4-0.9-2.4s0.3-2,1-2.6c0.7-0.6,1.7-0.9,2.9-0.9c1.2,0,2.2,0.4,2.9,1.4c0.7,0.9,1,2.3,1,4.2s-0.4,3.2-1.2,4
			c-0.7,0.9-1.9,1.3-3.3,1.3c-1.4,0-1.7,0-2.6-0.3H28l0.1-1.7c1,0.1,2,0.3,2.9,0.3L31,217.2z M31.3,213.2c0.4,0,1,0,1.6-0.3h0.3
			c0-1.9-0.6-2.7-1.7-2.7s-0.9,0-1.2,0.4c-0.3,0.4-0.4,0.7-0.4,1.2c0,1,0.6,1.4,1.6,1.4L31.3,213.2z"/>
	</g>
</g>
<line class="st16" x1="40.1" y1="212.9" x2="58.6" y2="212.9"/>
<line class="st16" x1="3.7" y1="156" x2="22.2" y2="156"/>
<line class="st16" x1="40.1" y1="156" x2="58.6" y2="156"/>
<line class="st16" x1="3.7" y1="269.7" x2="22.1" y2="269.7"/>
<g class="st14">
	<g class="st14">
		<path class="st17" d="M29.1,264.7c0.7-0.4,1.6-0.7,2.7-0.7c1.2,0,2,0.3,2.7,0.7c0.7,0.6,1,1.2,1,2.2s0,1-0.3,1.4
			c-0.1,0.3-0.4,0.6-0.9,1c0.4,0.4,0.9,0.7,1,1.2c0.1,0.4,0.3,0.9,0.3,1.4c0,1-0.4,1.7-1.2,2.3c-0.7,0.4-1.7,0.7-2.9,0.7
			c-2.6,0-4-1-4-2.9s0-1.2,0.3-1.6c0.3-0.4,0.6-0.7,1-1.2c-0.4-0.3-0.7-0.7-0.9-1c-0.1-0.3-0.3-0.9-0.3-1.3c0-0.9,0.3-1.6,1-2.2
			L29.1,264.7z M30.3,271.4c0,0.9,0.6,1.4,1.6,1.4c1,0,1.6-0.4,1.6-1.4s-0.3-1-0.9-1.2h-1.4c-0.6,0.3-1,0.6-1,1.2H30.3z M32,265.9
			c-0.4,0-0.9,0-1.2,0.3c-0.3,0.1-0.4,0.6-0.4,1s0.3,0.9,0.7,1.2h1.4c0.6-0.3,0.7-0.7,0.7-1.3c0-0.9-0.4-1.3-1.4-1.3L32,265.9z"/>
	</g>
</g>
<line class="st16" x1="40.1" y1="269.7" x2="58.5" y2="269.7"/>
<line class="st16" x1="3.7" y1="666.3" x2="22.1" y2="666.3"/>
<g class="st14">
	<path class="st15" d="M33.5,661.5v9.5h-2v-7.2l-2,1.3l-0.9-1.4l3.2-2h1.9L33.5,661.5z"/>
</g>
<line class="st16" x1="40.1" y1="666.3" x2="58.5" y2="666.3"/>
<line class="st16" x1="3.7" y1="609.6" x2="22.1" y2="609.6"/>
<g class="st14">
	<g class="st14">
		<path class="st17" d="M35.3,613.1h-6.8v-1.9l2.3-2.3c0.7-0.9,1.3-1.4,1.6-1.9c0.3-0.4,0.4-0.9,0.4-1.4c0-0.6,0-0.9-0.4-1
			s-0.6-0.3-1.2-0.3c-0.7,0-1.4,0-2.3,0.1h-0.4v-1.6c1-0.3,2.2-0.4,3.2-0.4c2.2,0,3.3,1,3.3,3c0,2-0.1,1.4-0.6,2
			c-0.3,0.6-1,1.3-1.9,2l-1.9,1.6H35v1.9L35.3,613.1z"/>
	</g>
</g>
<line class="st16" x1="40.1" y1="609.6" x2="58.5" y2="609.6"/>
<line class="st16" x1="3.6" y1="552.8" x2="22.1" y2="552.8"/>
<g class="st14">
	<g class="st14">
		<path class="st17" d="M28.4,548c1-0.4,2-0.6,3.3-0.6c1.3,0,2,0.3,2.6,0.7c0.6,0.4,0.9,1.2,0.9,2.2s-0.4,1.7-1.2,2.3
			c0.6,0.3,0.9,0.6,1.2,0.9c0.3,0.3,0.3,0.7,0.3,1.4c0,1.2-0.3,2-0.9,2.4c-0.6,0.6-1.4,0.9-2.7,0.9s-1.9,0-2.9-0.4h-0.6V556
			c1.2,0.1,2.2,0.3,3,0.3s1.6-0.4,1.6-1.4c0-1,0-0.7-0.4-0.9s-0.6-0.3-1.2-0.3h-2.2v-1.9h2.2c0.3,0,0.7-0.1,0.9-0.4
			c0.3-0.3,0.4-0.6,0.4-1c0-0.7-0.6-1.2-1.6-1.2c-1,0-1.4,0-2.3,0.3h-0.4C28.4,549.6,28.4,548,28.4,548z"/>
	</g>
</g>
<line class="st16" x1="40" y1="552.8" x2="58.5" y2="552.8"/>
<line class="st16" x1="3.7" y1="496.3" x2="22.1" y2="496.3"/>
<g class="st14">
	<g class="st14">
		<path class="st17" d="M32.3,501.5v-1.7h-4.5V498l2.6-7.1h2.4l-2.7,6.8h2.3v-2.9h2.2v2.9h1v1.9h-1v1.7h-2.2L32.3,501.5z"/>
	</g>
</g>
<line class="st16" x1="40.1" y1="496.3" x2="58.5" y2="496.3"/>
<line class="st16" x1="3.7" y1="439.6" x2="22.1" y2="439.6"/>
<g class="st14">
	<path class="st15" d="M35.8,434.3v1.9h-4.6l-0.3,2.3c0.7-0.3,1.3-0.4,1.9-0.4c2.3,0,3.5,1,3.5,3.2s-0.3,2.2-0.9,2.7s-1.4,1-2.6,1
		c-1.2,0-1,0-1.6,0c-0.6,0-1.2-0.1-1.4-0.3h-0.6l0.3-1.7c1.3,0.1,2.3,0.3,3.2,0.3c0.9,0,0.9,0,1.2-0.4c0.3-0.3,0.4-0.7,0.4-1.2
		c0-0.4,0-0.9-0.3-1.2c-0.3-0.3-0.6-0.3-1-0.3c-0.7,0-1.3,0-1.9,0.1h-0.3l-1.3-0.3l0.3-5.6h6.3L35.8,434.3z"/>
</g>
<line class="st16" x1="40.1" y1="439.6" x2="58.5" y2="439.6"/>
<line class="st16" x1="3.7" y1="382.9" x2="22.1" y2="382.9"/>
<g class="st14">
	<path class="st15" d="M36.1,379.7c-1-0.1-2-0.3-2.7-0.3c-1.4,0-2.3,0.9-2.3,2.4h0.3c0.7-0.3,1.3-0.4,1.7-0.4c1.2,0,2.2,0.3,2.7,0.9
		c0.6,0.6,0.9,1.4,0.9,2.6s-0.3,2-1,2.6c-0.7,0.6-1.7,0.9-2.9,0.9c-1.2,0-2.3-0.4-2.9-1.4c-0.7-0.9-1-2.3-1-4.2s0.4-3.2,1.2-4
		c0.7-0.9,1.9-1.3,3.2-1.3c1.3,0,1.7,0,2.6,0.3h0.4l-0.1,1.7L36.1,379.7z M32.9,383.5c-0.4,0-1,0-1.6,0.3H31c0,1.9,0.6,2.9,1.7,2.9
		c1.2,0,0.9,0,1.2-0.4c0.3-0.4,0.4-0.7,0.4-1.2c0-1-0.6-1.4-1.6-1.4L32.9,383.5z"/>
</g>
<line class="st16" x1="40.1" y1="382.9" x2="58.5" y2="382.9"/>
<line class="st16" x1="3.7" y1="326.2" x2="22.1" y2="326.2"/>
<g class="st14">
	<g class="st14">
		<path class="st17" d="M28.1,321.8v-2h6.6v2.4l-3.7,8.2l-2-0.6l3.6-7.6v-0.6h-4.5L28.1,321.8z"/>
	</g>
</g>
<line class="st16" x1="40.1" y1="326.2" x2="58.5" y2="326.2"/>
<g class="st14">
	<g class="st14">
		<path class="st17" d="M28.8,150.9v10.5h-2.2v-7.9l-2.3,1.4l-1-1.6l3.5-2.3h2L28.8,150.9z"/>
		<path class="st17" d="M32.4,152c0.7-0.9,1.7-1.3,3-1.3s2.3,0.4,3,1.3c0.7,0.9,1,2.3,1,4.2s-0.3,3.3-1,4.2c-0.7,0.9-1.7,1.3-3,1.3
			s-2.3-0.4-3-1.3c-0.7-0.9-1-2.2-1-4.2S31.7,152.9,32.4,152z M37.3,156.1c0-1.3,0-2.2-0.4-2.7s-0.7-0.7-1.4-0.7
			c-0.7,0-1.2,0.3-1.4,0.7c-0.3,0.6-0.4,1.4-0.4,2.7s0,2.2,0.4,2.7c0.3,0.6,0.7,0.7,1.4,0.7c0.7,0,1.2-0.3,1.4-0.7
			C37.2,158.4,37.3,157.4,37.3,156.1z"/>
	</g>
</g>
</svg>
