<?xml version="1.0" encoding="UTF-8"?>
<svg id="Livello_1" xmlns="http://www.w3.org/2000/svg" version="1.1" viewBox="0 0 229.1 733.4" width="229.1px" height="733.4px">
  <!-- Generator: Adobe Illustrator 29.6.1, SVG Export Plug-In . SVG Version: 2.1.1 Build 9)  -->
  <defs>
    <style>
      .st0 {
        fill: #a6d8a8;
      }

      .st0, .st1, .st2, .st3, .st4, .st5, .st6, .st7, .st8, .st9, .st10, .st11, .st12, .st13, .st14 {
        isolation: isolate;
      }

      .st15 {
        fill: none;
        stroke: #3c3430;
        stroke-miterlimit: 9.8;
        stroke-width: 2px;
      }

      .st1 {
        fill: #ffb380;
      }

      .st2 {
        fill: #de5d07;
      }

      .st16 {
        fill: #39322e;
      }

      .st17, .st3 {
        fill: #fff;
      }

      .st4 {
        fill: #e6e6e6;
      }

      .st18 {
        fill: #2b2b2b;
        opacity: .9;
      }

      .st5 {
        fill: #73bf78;
      }

      .st6 {
        fill: #d9f2d9;
      }

      .st7 {
        fill: #994d00;
      }

      .st8 {
        fill: #ffe0cc;
      }

      .st9 {
        fill: #092613;
      }

      .st10 {
        fill: #cfcfcf;
      }

      .st11 {
        fill: #288a32;
      }

      .st12 {
        fill: #462200;
      }

      .st13 {
        fill: #1f5c33;
      }

      .st14 {
        fill: #ff8c40;
      }
    </style>
  </defs>
  <rect class="st18" x="0" width="229.1" height="733.4"/>
  <rect class="st9" x="22.5" y="91.7" width="181.6" height="37" rx="5.6" ry="5.6"/>
  <rect class="st15" x="22.1" y="92.1" width="182.5" height="36" rx="4.8" ry="4.8"/>
  <path class="st13" d="M28.2,132.6h170.4c3.1,0,5.6,2.5,5.6,5.6v26.4H22.5v-26.4c0-3.1,2.5-5.6,5.6-5.6Z"/>
  <g>
    <path class="st17" d="M51.3,77.1l3.1-13.6h5.2l3.1,13.6h-2.8l-.5-2.5h-4.8l-.5,2.5h-2.8ZM56.5,65.7l-1.4,6.5h3.7l-1.4-6.5h-1Z"/>
    <path class="st17" d="M69.1,66.8c1.4,0,2.4.4,3.1,1.2.6.8,1,2.1,1,4.1s-.4,3.3-1.1,4.1c-.7.8-2,1.1-3.9,1.1s-1.6,0-3.1-.2h-.8v-14h2.7v4.3c.9-.4,1.6-.5,2.2-.5ZM68.1,74.9c.9,0,1.5-.2,1.8-.6.3-.4.5-1.2.5-2.3,0-1.8-.6-2.7-1.7-2.7s-1,0-1.5.2h-.3v5.4c.6,0,1,0,1.2,0Z"/>
    <path class="st17" d="M75.7,68.2c.7-.9,1.9-1.4,3.5-1.4s2.8.5,3.5,1.4c.7.9,1.1,2.2,1.1,3.9,0,3.5-1.5,5.3-4.6,5.3s-4.6-1.8-4.6-5.3.4-2.9,1.1-3.9ZM77.7,74.3c.3.5.8.7,1.5.7s1.2-.2,1.5-.7c.3-.5.4-1.2.4-2.3s-.1-1.8-.4-2.2c-.3-.5-.8-.7-1.5-.7s-1.2.2-1.5.7c-.3.5-.4,1.2-.4,2.2s.1,1.8.4,2.3Z"/>
    <path class="st17" d="M84.7,67.1h2.8l1.6,7.7h.6l1.7-7.7h2.7l-2.4,10h-4.6l-2.4-10Z"/>
    <path class="st17" d="M98.1,74.5c.3.3.8.4,1.3.4,1.2,0,2.3,0,3.3-.1h.6c0,0,0,1.9,0,1.9-1.5.4-2.9.6-4.2.6s-2.6-.4-3.3-1.2c-.7-.8-1-2.1-1-3.9,0-3.6,1.5-5.4,4.4-5.4s4.4,1.5,4.4,4.5l-.2,1.9h-5.9c0,.6.2,1.1.5,1.3ZM101.1,71.2c0-.8-.1-1.4-.4-1.7-.3-.3-.7-.5-1.3-.5s-1.1.2-1.3.5c-.3.3-.4.9-.4,1.6h3.5Z"/>
    <path class="st17" d="M109.1,77.1l3.1-13.6h5.2l3.1,13.6h-2.8l-.5-2.5h-4.8l-.5,2.5h-2.8ZM114.3,65.7l-1.4,6.5h3.7l-1.4-6.5h-1Z"/>
    <path class="st17" d="M120.9,67.1h2.8l1.6,7.7h.6l1.7-7.7h2.7l-2.4,10h-4.6l-2.4-10Z"/>
    <path class="st17" d="M134.3,74.5c.3.3.8.4,1.3.4,1.2,0,2.3,0,3.3-.1h.6c0,0,0,1.9,0,1.9-1.5.4-2.9.6-4.2.6s-2.6-.4-3.3-1.2c-.7-.8-1-2.1-1-3.9,0-3.6,1.5-5.4,4.4-5.4s4.4,1.5,4.4,4.5l-.2,1.9h-5.9c0,.6.2,1.1.5,1.3ZM137.3,71.2c0-.8-.1-1.4-.4-1.7-.3-.3-.7-.5-1.3-.5s-1.1.2-1.3.5c-.3.3-.4.9-.4,1.6h3.5Z"/>
    <path class="st17" d="M141.8,77.1v-10h2.7v1.1c1.1-.7,2.2-1.1,3.2-1.3v2.7c-1.1.2-2,.5-2.8.7h-.4v6.8h-2.7Z"/>
    <path class="st17" d="M156.9,70.2v4.2c0,.3,0,.5.2.7,0,.1.2.2.5.3v2c-.8,0-1.3,0-1.7-.1-.4,0-.8-.3-1.2-.6-1,.5-1.9.7-2.9.7-2.1,0-3.1-1.1-3.1-3.3s.3-1.8.9-2.3c.6-.4,1.5-.7,2.6-.8l2.1-.2v-.6c0-.4,0-.7-.3-.9-.2-.2-.5-.2-.9-.2l-3.8.2v-1.9c1.3-.4,2.7-.6,4-.6s2.2.3,2.8.8.9,1.4.9,2.6ZM152.4,72.8c-.7,0-1.1.5-1.1,1.2s.3,1.1,1,1.1,1.1,0,1.7-.2h.3v-2.2l-1.8.2Z"/>
    <path class="st17" d="M168.5,78.3c0,1.1-.4,2-1.3,2.5s-2.1.8-3.6.8-2.7-.2-3.5-.6c-.8-.4-1.2-1.1-1.2-2.2s.5-1.6,1.4-2.4c-.5-.3-.7-.8-.7-1.5s.2-.7.6-1.3l.2-.3c-.9-.7-1.4-1.6-1.4-2.9s.4-2.2,1.1-2.8,1.8-.9,3.1-.9,1.1,0,1.7.2h.3c0,0,3.2,0,3.2,0v2.1h-1.5c.3.3.4.8.4,1.2,0,1.3-.3,2.3-1,2.8-.7.5-1.7.8-3.2.8s-.6,0-.8,0c-.1.3-.2.6-.2.9s.1.4.3.5.8.1,1.6.1c1.7,0,2.8.2,3.4.7s.9,1.2.9,2.4ZM161.6,78.6c0,.6.7.9,2.1.9s2.1-.3,2.1-1-.1-.6-.4-.7c-.2-.1-.7-.2-1.5-.2h-1.8c-.4.2-.5.6-.5,1ZM161.8,70.4c0,1,.5,1.5,1.5,1.5s1.5-.5,1.5-1.5-.5-1.5-1.5-1.5-1.5.5-1.5,1.5Z"/>
    <path class="st17" d="M172.8,74.5c.3.3.8.4,1.3.4,1.2,0,2.3,0,3.3-.1h.6c0,0,0,1.9,0,1.9-1.5.4-2.9.6-4.2.6s-2.6-.4-3.3-1.2c-.7-.8-1-2.1-1-3.9,0-3.6,1.5-5.4,4.4-5.4s4.4,1.5,4.4,4.5l-.2,1.9h-5.9c0,.6.2,1.1.5,1.3ZM175.8,71.2c0-.8-.1-1.4-.4-1.7-.3-.3-.7-.5-1.3-.5s-1.1.2-1.3.5c-.3.3-.4.9-.4,1.6h3.5Z"/>
  </g>
  <g>
    <path class="st17" d="M76.1,112.5v-9.6h6v1.4h-4.5v2.7h3.7v1.3h-3.7v2.8h4.5v1.4h-6Z"/>
    <path class="st17" d="M83,105.5h1.6l1.4,2.4,1.4-2.4h1.6l-2.1,3.4,2.1,3.6h-1.6l-1.4-2.4-1.4,2.4h-1.6l2-3.5-2-3.5Z"/>
    <path class="st17" d="M93.9,106.8h-1.9v3.1c0,.6,0,.9.1,1.1s.3.3.6.3h1.1s0,1.2,0,1.2c-.6.1-1.1.2-1.4.2-.8,0-1.3-.2-1.6-.5-.3-.4-.4-1-.4-2.1v-3.2h-.9v-1.3h.9v-2h1.5v2h1.9v1.3Z"/>
    <path class="st17" d="M95.2,112.5v-7h1.5v.8c.8-.5,1.6-.8,2.4-1v1.5c-.8.2-1.5.4-2.1.6h-.3v5h-1.5Z"/>
    <path class="st17" d="M105.2,111.3h.4s0,1.1,0,1.1c-1.1.2-2,.3-2.8.3s-1.8-.3-2.2-.9c-.5-.6-.7-1.5-.7-2.7,0-2.5,1-3.7,3-3.7s2.9,1.1,2.9,3.2v1.1h-4.4c0,.6.1,1,.4,1.3.2.3.7.4,1.4.4s1.3,0,2,0ZM104.3,108.5c0-.7-.1-1.2-.3-1.4s-.6-.4-1.1-.4-.9.1-1.1.4c-.2.3-.4.8-.4,1.4h3Z"/>
    <path class="st17" d="M108.8,112.5h-1.5v-7h1.5v.4c.7-.4,1.3-.6,1.8-.6.8,0,1.4.2,1.8.7.8-.5,1.7-.7,2.5-.7s1.4.3,1.8.8c.3.5.5,1.4.5,2.6v3.8h-1.5v-3.7c0-.8,0-1.3-.2-1.6-.2-.3-.5-.5-1-.5s-.9,0-1.4.3h-.2c0,.3.1.9.1,1.9v3.6h-1.5v-3.6c0-.8,0-1.4-.2-1.7s-.5-.5-1-.5-.9,0-1.3.3h-.2v5.5Z"/>
    <path class="st17" d="M124,111.3h.4s0,1.1,0,1.1c-1.1.2-2,.3-2.8.3s-1.8-.3-2.2-.9c-.5-.6-.7-1.5-.7-2.7,0-2.5,1-3.7,3-3.7s2.9,1.1,2.9,3.2v1.1h-4.4c0,.6.1,1,.4,1.3.2.3.7.4,1.4.4s1.3,0,2,0ZM123.2,108.5c0-.7-.1-1.2-.3-1.4s-.6-.4-1.1-.4-.9.1-1.1.4c-.2.3-.4.8-.4,1.4h3Z"/>
    <path class="st17" d="M128.7,105.5h1.5l1.1,5.7h.3l1.3-5.6h1.6l1.3,5.6h.3l1.1-5.7h1.5l-1.5,7h-2.4l-1.1-4.8-1.1,4.8h-2.4l-1.5-7Z"/>
    <path class="st17" d="M145,111.3h.4s0,1.1,0,1.1c-1.1.2-2,.3-2.8.3s-1.8-.3-2.2-.9c-.5-.6-.7-1.5-.7-2.7,0-2.5,1-3.7,3-3.7s2.9,1.1,2.9,3.2v1.1h-4.4c0,.6.1,1,.4,1.3.2.3.7.4,1.4.4s1.3,0,2,0ZM144.1,108.5c0-.7-.1-1.2-.3-1.4s-.6-.4-1.1-.4-.9.1-1.1.4c-.2.3-.4.8-.4,1.4h3Z"/>
    <path class="st17" d="M150.8,106.8h-1.9v3.1c0,.6,0,.9.1,1.1s.3.3.6.3h1.1s0,1.2,0,1.2c-.6.1-1.1.2-1.4.2-.8,0-1.3-.2-1.6-.5-.3-.4-.4-1-.4-2.1v-3.2h-.9v-1.3h.9v-2h1.5v2h1.9v1.3Z"/>
  </g>
  <g>
    <path class="st17" d="M70,153l2.4-9.6h3.1l2.4,9.6h-1.6l-.5-2.1h-3.7l-.5,2.1h-1.6ZM73.6,144.8l-1.2,4.9h3.1l-1.2-4.9h-.7Z"/>
    <path class="st17" d="M79.2,153v-9.9h1.5v9.9h-1.5Z"/>
    <path class="st17" d="M84.1,153h-1.5v-7h1.5v.4c.7-.4,1.3-.6,1.8-.6.8,0,1.4.2,1.8.7.8-.5,1.7-.7,2.5-.7s1.4.3,1.8.8c.3.5.5,1.4.5,2.6v3.8h-1.5v-3.7c0-.8,0-1.3-.2-1.6-.2-.3-.5-.5-1-.5s-.9,0-1.4.3h-.2c0,.3.1.9.1,1.9v3.6h-1.5v-3.6c0-.8,0-1.4-.2-1.7s-.5-.5-1-.5-.9,0-1.3.3h-.2v5.5Z"/>
    <path class="st17" d="M94.7,146.8c.5-.6,1.3-.9,2.4-.9s1.9.3,2.4.9c.5.6.7,1.5.7,2.7s-.2,2.1-.7,2.7-1.3.9-2.4.9-2-.3-2.4-.9c-.5-.6-.7-1.5-.7-2.7s.2-2.1.7-2.7ZM95.9,151.3c.2.4.6.6,1.3.6s1-.2,1.3-.6c.2-.4.3-1,.3-1.8s-.1-1.5-.3-1.8c-.2-.4-.6-.5-1.2-.5s-1,.2-1.2.5c-.2.4-.3,1-.3,1.8s.1,1.5.3,1.8Z"/>
    <path class="st17" d="M106.6,147.5c-1.1-.1-1.9-.2-2.4-.2s-.8,0-1,.2-.3.3-.3.6.1.4.3.5c.2.1.7.2,1.5.4s1.3.3,1.7.6c.3.3.5.8.5,1.5s-.2,1.3-.7,1.6-1.2.5-2.1.5-1.3,0-2.2-.2h-.4c0,0,0-1.3,0-1.3,1.1.1,1.9.2,2.4.2s.8,0,1.1-.2c.2-.1.3-.3.3-.6s-.1-.5-.3-.6-.7-.2-1.4-.4c-.8-.1-1.3-.3-1.7-.6-.4-.3-.5-.8-.5-1.5s.2-1.3.7-1.6c.5-.4,1.1-.5,1.9-.5s1.3,0,2.2.2h.4c0,0,0,1.4,0,1.4Z"/>
    <path class="st17" d="M112.1,147.3h-1.9v3.1c0,.6,0,.9.1,1.1s.3.3.6.3h1.1s0,1.2,0,1.2c-.6.1-1.1.2-1.4.2-.8,0-1.3-.2-1.6-.5-.3-.4-.4-1-.4-2.1v-3.2h-.9v-1.3h.9v-2h1.5v2h1.9v1.3Z"/>
    <path class="st17" d="M119,145.9c.5,0,1.1,0,1.8.2h.4c0,0,0,1.3,0,1.3-.7,0-1.3-.1-1.6-.1-.7,0-1.2.2-1.4.5s-.4.9-.4,1.8.1,1.5.4,1.8.7.5,1.5.5h1.6c0-.1,0,1.1,0,1.1-.9.2-1.7.3-2.1.3-1.1,0-1.8-.3-2.2-.9-.4-.6-.7-1.5-.7-2.8s.2-2.2.7-2.8c.5-.6,1.2-.8,2.2-.8Z"/>
    <path class="st17" d="M127.5,151.8h.4s0,1.1,0,1.1c-1.1.2-2,.3-2.8.3s-1.8-.3-2.2-.9c-.5-.6-.7-1.5-.7-2.7,0-2.5,1-3.7,3-3.7s2.9,1.1,2.9,3.2v1.1h-4.4c0,.6.1,1,.4,1.3.2.3.7.4,1.4.4s1.3,0,2,0ZM126.7,149c0-.7-.1-1.2-.3-1.4s-.6-.4-1.1-.4-.9.1-1.1.4c-.2.3-.4.8-.4,1.4h3Z"/>
    <path class="st17" d="M129.6,153v-7h1.5v.8c.8-.5,1.6-.8,2.4-1v1.5c-.8.2-1.5.4-2.1.6h-.3v5h-1.5Z"/>
    <path class="st17" d="M138.5,147.3h-1.9v3.1c0,.6,0,.9.1,1.1s.3.3.6.3h1.1s0,1.2,0,1.2c-.6.1-1.1.2-1.4.2-.8,0-1.3-.2-1.6-.5-.3-.4-.4-1-.4-2.1v-3.2h-.9v-1.3h.9v-2h1.5v2h1.9v1.3Z"/>
    <path class="st17" d="M144.9,148.2v3.2c0,.2,0,.4.2.5s.2.2.5.2v1.2c-.8,0-1.5-.2-1.9-.5-.7.3-1.5.5-2.3.5-1.4,0-2.1-.7-2.1-2.2s.2-1.2.6-1.5,1-.5,1.7-.6l1.8-.2v-.5c0-.4,0-.6-.2-.8-.2-.1-.4-.2-.7-.2-.6,0-1.3,0-2.2.1h-.4s0-1,0-1c1-.2,2-.4,2.8-.4s1.5.2,1.8.6.6,1,.6,1.8ZM141.8,149.9c-.6,0-1,.4-1,1s.3,1,.9,1,1,0,1.5-.2h.3v-1.9l-1.6.2Z"/>
    <path class="st17" d="M146.8,144.9v-1.6h1.5v1.6h-1.5ZM146.8,153v-7h1.5v7h-1.5Z"/>
    <path class="st17" d="M151.7,153h-1.5v-7h1.5v.4c.7-.4,1.3-.6,1.9-.6.9,0,1.6.3,1.9.8s.5,1.4.5,2.6v3.8h-1.5v-3.7c0-.8,0-1.3-.2-1.6-.2-.3-.5-.5-1-.5s-.9,0-1.4.3h-.2v5.5Z"/>
  </g>
  <path class="st6" d="M27.4,260.7h170.8c3.1,0,5.6,2.5,5.6,5.6v27H21.8v-27c0-3.1,2.5-5.6,5.6-5.6Z" transform="translate(225.7 554) rotate(180)"/>
  <rect class="st11" x="23.2" y="164.6" width="181.6" height="32" transform="translate(227.9 361.2) rotate(180)"/>
  <g>
    <path class="st17" d="M87.8,174.4h1.6l-2.4,9.6h-3.1l-2.4-9.6h1.6l1.9,8.2h.7l1.9-8.2Z"/>
    <path class="st17" d="M95.2,182.7h.4s0,1.1,0,1.1c-1.1.2-2,.3-2.8.3s-1.8-.3-2.2-.9c-.5-.6-.7-1.5-.7-2.7,0-2.5,1-3.7,3-3.7s2.9,1.1,2.9,3.2v1.1h-4.4c0,.6.1,1,.4,1.3.2.3.7.4,1.4.4s1.3,0,2,0ZM94.4,180c0-.7-.1-1.2-.3-1.4s-.6-.4-1.1-.4-.9.1-1.1.4c-.2.3-.4.8-.4,1.4h3Z"/>
    <path class="st17" d="M97.3,184v-7h1.5v.8c.8-.5,1.6-.8,2.4-1v1.5c-.8.2-1.5.4-2.1.6h-.3v5h-1.5Z"/>
    <path class="st17" d="M101.7,177h1.5l1.5,5.7h.4l1.5-5.7h1.5l-2.7,10h-1.5l.8-3h-1.2l-1.8-7Z"/>
    <path class="st17" d="M112.4,184v-9.9h1.5v9.9h-1.5Z"/>
    <path class="st17" d="M115.9,175.8v-1.6h1.5v1.6h-1.5ZM115.9,184v-7h1.5v7h-1.5Z"/>
    <path class="st17" d="M120.8,184h-1.5v-9.9h1.5v5.7h.9c0,0,1.7-2.8,1.7-2.8h1.7l-2,3.3,2.1,3.7h-1.7l-1.7-3h-.9v3Z"/>
    <path class="st17" d="M131.1,182.7h.4s0,1.1,0,1.1c-1.1.2-2,.3-2.8.3s-1.8-.3-2.2-.9c-.5-.6-.7-1.5-.7-2.7,0-2.5,1-3.7,3-3.7s2.9,1.1,2.9,3.2v1.1h-4.4c0,.6.1,1,.4,1.3.2.3.7.4,1.4.4s1.3,0,2,0ZM130.2,180c0-.7-.1-1.2-.3-1.4s-.6-.4-1.1-.4-.9.1-1.1.4c-.2.3-.4.8-.4,1.4h3Z"/>
    <path class="st17" d="M133.3,184v-9.9h1.5v9.9h-1.5Z"/>
    <path class="st17" d="M136.1,177h1.5l1.5,5.7h.4l1.5-5.7h1.5l-2.7,10h-1.5l.8-3h-1.2l-1.8-7Z"/>
  </g>
  <rect class="st5" x="23.5" y="196.6" width="181.6" height="32" transform="translate(228.6 425.3) rotate(180)"/>
  <g>
    <path class="st17" d="M101.7,216h-5.4v-9.6h1.6v8.2h3.8v1.4Z"/>
    <path class="st17" d="M102.8,207.8v-1.6h1.5v1.6h-1.5ZM102.8,216v-7h1.5v7h-1.5Z"/>
    <path class="st17" d="M107.7,216h-1.5v-9.9h1.5v5.7h.9c0,0,1.7-2.8,1.7-2.8h1.7l-2,3.3,2.1,3.7h-1.7l-1.7-3h-.9v3Z"/>
    <path class="st17" d="M117.9,214.8h.4s0,1.1,0,1.1c-1.1.2-2,.3-2.8.3s-1.8-.3-2.2-.9c-.5-.6-.7-1.5-.7-2.7,0-2.5,1-3.7,3-3.7s2.9,1.1,2.9,3.2v1.1h-4.4c0,.6.1,1,.4,1.3.2.3.7.4,1.4.4s1.3,0,2,0ZM117.1,212c0-.7-.1-1.2-.3-1.4s-.6-.4-1.1-.4-.9.1-1.1.4c-.2.3-.4.8-.4,1.4h3Z"/>
    <path class="st17" d="M120.2,216v-9.9h1.5v9.9h-1.5Z"/>
    <path class="st17" d="M123,209h1.5l1.5,5.7h.4l1.5-5.7h1.5l-2.7,10h-1.5l.8-3h-1.2l-1.8-7Z"/>
  </g>
  <rect class="st0" x="23.3" y="228.7" width="181.6" height="32" transform="translate(228.2 489.3) rotate(180)"/>
  <g>
    <path class="st16" d="M83.9,248.5c-1.5,0-2.5-.4-3-1.2-.6-.8-.9-2-.9-3.7s.3-3,.9-3.8c.6-.8,1.6-1.2,3-1.2s2.4.4,3,1.2c.6.8.9,2.1.9,3.8s-.1,2-.4,2.7c-.2.7-.6,1.2-1.2,1.6l1.2,1.9-1.4.7-1.2-2c-.2,0-.5,0-.9,0ZM82.1,246.3c.3.5.9.8,1.8.8s1.5-.3,1.8-.8c.3-.5.5-1.4.5-2.7s-.2-2.2-.5-2.8c-.3-.6-.9-.9-1.8-.9s-1.5.3-1.8.9c-.3.6-.5,1.5-.5,2.8s.2,2.2.5,2.7Z"/>
    <path class="st16" d="M93.6,241.3h1.5v7h-1.5v-.4c-.7.4-1.3.6-1.9.6-1,0-1.6-.3-1.9-.8-.3-.5-.5-1.4-.5-2.7v-3.7h1.5v3.7c0,.8,0,1.4.2,1.7.1.3.5.4,1,.4s1,0,1.4-.3h.2v-5.5Z"/>
    <path class="st16" d="M97,240.1v-1.6h1.5v1.6h-1.5ZM97,248.3v-7h1.5v7h-1.5Z"/>
    <path class="st16" d="M104.1,242.6h-1.9v3.1c0,.6,0,.9.1,1.1s.3.3.6.3h1.1s0,1.2,0,1.2c-.6.1-1.1.2-1.4.2-.8,0-1.3-.2-1.6-.5-.3-.4-.4-1-.4-2.1v-3.2h-.9v-1.3h.9v-2h1.5v2h1.9v1.3Z"/>
    <path class="st16" d="M110.4,247.1h.4s0,1.1,0,1.1c-1.1.2-2,.3-2.8.3s-1.8-.3-2.2-.9c-.5-.6-.7-1.5-.7-2.7,0-2.5,1-3.7,3-3.7s2.9,1.1,2.9,3.2v1.1h-4.4c0,.6.1,1,.4,1.3.2.3.7.4,1.4.4s1.3,0,2,0ZM109.5,244.3c0-.7-.1-1.2-.3-1.4s-.6-.4-1.1-.4-.9.1-1.1.4c-.2.3-.4.8-.4,1.4h3Z"/>
    <path class="st16" d="M115.7,248.3v-9.9h1.5v9.9h-1.5Z"/>
    <path class="st16" d="M119.1,240.1v-1.6h1.5v1.6h-1.5ZM119.1,248.3v-7h1.5v7h-1.5Z"/>
    <path class="st16" d="M124,248.3h-1.5v-9.9h1.5v5.7h.9c0,0,1.7-2.8,1.7-2.8h1.7l-2,3.3,2.1,3.7h-1.7l-1.7-3h-.9v3Z"/>
    <path class="st16" d="M134.3,247.1h.4s0,1.1,0,1.1c-1.1.2-2,.3-2.8.3s-1.8-.3-2.2-.9c-.5-.6-.7-1.5-.7-2.7,0-2.5,1-3.7,3-3.7s2.9,1.1,2.9,3.2v1.1h-4.4c0,.6.1,1,.4,1.3.2.3.7.4,1.4.4s1.3,0,2,0ZM133.5,244.3c0-.7-.1-1.2-.3-1.4s-.6-.4-1.1-.4-.9.1-1.1.4c-.2.3-.4.8-.4,1.4h3Z"/>
    <path class="st16" d="M136.5,248.3v-9.9h1.5v9.9h-1.5Z"/>
    <path class="st16" d="M139.3,241.3h1.5l1.5,5.7h.4l1.5-5.7h1.5l-2.7,10h-1.5l.8-3h-1.2l-1.8-7Z"/>
  </g>
  <rect class="st15" x="22.1" y="132.7" width="182.5" height="160.6" rx="4.1" ry="4.1"/>
  <g>
    <path class="st16" d="M93.4,278.1h-2v3h-1.6v-9.6h3.5c2.2,0,3.3,1.1,3.3,3.2s-.3,1.9-.8,2.5c-.5.6-1.4.9-2.4.9ZM91.4,276.7h1.9c1.1,0,1.7-.7,1.7-2s-.1-1.1-.4-1.4-.7-.4-1.3-.4h-1.9v3.9Z"/>
    <path class="st16" d="M98.4,274.8c.5-.6,1.3-.9,2.4-.9s1.9.3,2.4.9c.5.6.7,1.5.7,2.7s-.2,2.1-.7,2.7-1.3.9-2.4.9-2-.3-2.4-.9c-.5-.6-.7-1.5-.7-2.7s.2-2.1.7-2.7ZM99.5,279.3c.2.4.6.6,1.3.6s1-.2,1.3-.6c.2-.4.3-1,.3-1.8s-.1-1.5-.3-1.8c-.2-.4-.6-.5-1.2-.5s-1,.2-1.2.5c-.2.4-.3,1-.3,1.8s.1,1.5.3,1.8Z"/>
    <path class="st16" d="M110.3,275.5c-1.1-.1-1.9-.2-2.4-.2s-.8,0-1,.2-.3.3-.3.6.1.4.3.5c.2.1.7.2,1.5.4s1.3.3,1.7.6c.3.3.5.8.5,1.5s-.2,1.3-.7,1.6-1.2.5-2.1.5-1.3,0-2.2-.2h-.4c0,0,0-1.3,0-1.3,1.1.1,1.9.2,2.4.2s.8,0,1.1-.2c.2-.1.3-.3.3-.6s-.1-.5-.3-.6-.7-.2-1.4-.4c-.8-.1-1.3-.3-1.7-.6-.4-.3-.5-.8-.5-1.5s.2-1.3.7-1.6c.5-.4,1.1-.5,1.9-.5s1.3,0,2.2.2h.4c0,0,0,1.4,0,1.4Z"/>
    <path class="st16" d="M116.8,275.5c-1.1-.1-1.9-.2-2.4-.2s-.8,0-1,.2-.3.3-.3.6.1.4.3.5c.2.1.7.2,1.5.4s1.3.3,1.7.6c.3.3.5.8.5,1.5s-.2,1.3-.7,1.6-1.2.5-2.1.5-1.3,0-2.2-.2h-.4c0,0,0-1.3,0-1.3,1.1.1,1.9.2,2.4.2s.8,0,1.1-.2c.2-.1.3-.3.3-.6s-.1-.5-.3-.6-.7-.2-1.4-.4c-.8-.1-1.3-.3-1.7-.6-.4-.3-.5-.8-.5-1.5s.2-1.3.7-1.6c.5-.4,1.1-.5,1.9-.5s1.3,0,2.2.2h.4c0,0,0,1.4,0,1.4Z"/>
    <path class="st16" d="M118.5,272.8v-1.6h1.5v1.6h-1.5ZM118.5,281v-7h1.5v7h-1.5Z"/>
    <path class="st16" d="M125.2,273.9c1,0,1.7.3,2.1.8.4.5.6,1.5.6,2.8s-.3,2.3-.8,2.8-1.4.8-2.7.8-1.1,0-2.1-.1h-.5v-9.9h1.5v3.2c.6-.3,1.2-.4,1.8-.4ZM124.5,279.8c.7,0,1.2-.2,1.5-.5.2-.4.4-.9.4-1.8s-.1-1.4-.3-1.8c-.2-.3-.6-.5-1-.5s-.9,0-1.3.2h-.2v4.3c.5,0,.9,0,1,0Z"/>
    <path class="st16" d="M129.5,281v-9.9h1.5v9.9h-1.5Z"/>
    <path class="st16" d="M137.9,279.8h.4s0,1.1,0,1.1c-1.1.2-2,.3-2.8.3s-1.8-.3-2.2-.9c-.5-.6-.7-1.5-.7-2.7,0-2.5,1-3.7,3-3.7s2.9,1.1,2.9,3.2v1.1h-4.4c0,.6.1,1,.4,1.3.2.3.7.4,1.4.4s1.3,0,2,0ZM137.1,277c0-.7-.1-1.2-.3-1.4s-.6-.4-1.1-.4-.9.1-1.1.4c-.2.3-.4.8-.4,1.4h3Z"/>
  </g>
  <path class="st3" d="M29,353.3h170.4c3.1,0,5.6,2.5,5.6,5.6v26.4H23.3v-26.4c0-3.1,2.5-5.6,5.6-5.6Z"/>
  <g>
    <path class="st17" d="M52.2,335.8v-13.6h4.7l3.3,11.2h.2v-11.2h2.8v13.6h-4.5l-3.4-11.2h-.2v11.2h-2.8Z"/>
    <path class="st17" d="M68.4,333.3c.3.3.8.4,1.3.4,1.2,0,2.3,0,3.3-.1h.6c0,0,0,1.9,0,1.9-1.5.4-2.9.6-4.2.6s-2.6-.4-3.3-1.2c-.7-.8-1-2.1-1-3.9,0-3.6,1.5-5.4,4.4-5.4s4.4,1.5,4.4,4.5l-.2,1.9h-5.9c0,.6.2,1.1.5,1.3ZM71.3,329.9c0-.8-.1-1.4-.4-1.7-.3-.3-.7-.5-1.3-.5s-1.1.2-1.3.5c-.3.3-.4.9-.4,1.6h3.5Z"/>
    <path class="st17" d="M83.5,328.9v4.2c0,.3,0,.5.2.7,0,.1.2.2.5.3v2c-.8,0-1.3,0-1.7-.1-.4,0-.8-.3-1.2-.6-1,.5-1.9.7-2.9.7-2.1,0-3.1-1.1-3.1-3.3s.3-1.8.9-2.3c.6-.4,1.5-.7,2.6-.8l2.1-.2v-.6c0-.4,0-.7-.3-.9-.2-.2-.5-.2-.9-.2l-3.8.2v-1.9c1.3-.4,2.7-.6,4-.6s2.2.3,2.8.8.9,1.4.9,2.6ZM79,331.6c-.7,0-1.1.5-1.1,1.2s.3,1.1,1,1.1,1.1,0,1.7-.2h.3v-2.2l-1.8.2Z"/>
    <path class="st17" d="M86.1,335.8v-10h2.7v1.1c1.1-.7,2.2-1.1,3.2-1.3v2.7c-1.1.2-2,.5-2.8.7h-.4v6.8h-2.7Z"/>
    <path class="st17" d="M97,335.8l3.1-13.6h5.2l3.1,13.6h-2.8l-.5-2.5h-4.8l-.5,2.5h-2.8ZM102.2,324.5l-1.4,6.5h3.7l-1.4-6.5h-1Z"/>
    <path class="st17" d="M108.8,325.8h2.8l1.6,7.7h.6l1.7-7.7h2.7l-2.4,10h-4.6l-2.4-10Z"/>
    <path class="st17" d="M122.2,333.3c.3.3.8.4,1.3.4,1.2,0,2.3,0,3.3-.1h.6c0,0,0,1.9,0,1.9-1.5.4-2.9.6-4.2.6s-2.6-.4-3.3-1.2c-.7-.8-1-2.1-1-3.9,0-3.6,1.5-5.4,4.4-5.4s4.4,1.5,4.4,4.5l-.2,1.9h-5.9c0,.6.2,1.1.5,1.3ZM125.2,329.9c0-.8-.1-1.4-.4-1.7-.3-.3-.7-.5-1.3-.5s-1.1.2-1.3.5c-.3.3-.4.9-.4,1.6h3.5Z"/>
    <path class="st17" d="M129.7,335.8v-10h2.7v1.1c1.1-.7,2.2-1.1,3.2-1.3v2.7c-1.1.2-2,.5-2.8.7h-.4v6.8h-2.7Z"/>
    <path class="st17" d="M144.8,328.9v4.2c0,.3,0,.5.2.7,0,.1.2.2.5.3v2c-.8,0-1.3,0-1.7-.1-.4,0-.8-.3-1.2-.6-1,.5-1.9.7-2.9.7-2.1,0-3.1-1.1-3.1-3.3s.3-1.8.9-2.3c.6-.4,1.5-.7,2.6-.8l2.1-.2v-.6c0-.4,0-.7-.3-.9-.2-.2-.5-.2-.9-.2l-3.8.2v-1.9c1.3-.4,2.7-.6,4-.6s2.2.3,2.8.8.9,1.4.9,2.6ZM140.3,331.6c-.7,0-1.1.5-1.1,1.2s.3,1.1,1,1.1,1.1,0,1.7-.2h.3v-2.2l-1.8.2Z"/>
    <path class="st17" d="M156.4,337c0,1.1-.4,2-1.3,2.5s-2.1.8-3.6.8-2.7-.2-3.5-.6c-.8-.4-1.2-1.1-1.2-2.2s.5-1.6,1.4-2.4c-.5-.3-.7-.8-.7-1.5s.2-.7.6-1.3l.2-.3c-.9-.7-1.4-1.6-1.4-2.9s.4-2.2,1.1-2.8,1.8-.9,3.1-.9,1.1,0,1.7.2h.3c0,0,3.2,0,3.2,0v2.1h-1.5c.3.3.4.8.4,1.2,0,1.3-.3,2.3-1,2.8-.7.5-1.7.8-3.2.8s-.6,0-.8,0c-.1.3-.2.6-.2.9s.1.4.3.5.8.1,1.6.1c1.7,0,2.8.2,3.4.7s.9,1.2.9,2.4ZM149.5,337.3c0,.6.7.9,2.1.9s2.1-.3,2.1-1-.1-.6-.4-.7c-.2-.1-.7-.2-1.5-.2h-1.8c-.4.2-.5.6-.5,1ZM149.7,329.1c0,1,.5,1.5,1.5,1.5s1.5-.5,1.5-1.5-.5-1.5-1.5-1.5-1.5.5-1.5,1.5Z"/>
    <path class="st17" d="M160.8,333.3c.3.3.8.4,1.3.4,1.2,0,2.3,0,3.3-.1h.6c0,0,0,1.9,0,1.9-1.5.4-2.9.6-4.2.6s-2.6-.4-3.3-1.2c-.7-.8-1-2.1-1-3.9,0-3.6,1.5-5.4,4.4-5.4s4.4,1.5,4.4,4.5l-.2,1.9h-5.9c0,.6.2,1.1.5,1.3ZM163.7,329.9c0-.8-.1-1.4-.4-1.7-.3-.3-.7-.5-1.3-.5s-1.1.2-1.3.5c-.3.3-.4.9-.4,1.6h3.5Z"/>
  </g>
  <g>
    <path class="st16" d="M103.4,373.8h-5.4v-9.6h1.6v8.2h3.8v1.4Z"/>
    <path class="st16" d="M104.5,365.6v-1.6h1.5v1.6h-1.5ZM104.5,373.8v-7h1.5v7h-1.5Z"/>
    <path class="st16" d="M109.4,373.8h-1.5v-9.9h1.5v5.7h.9c0,0,1.7-2.8,1.7-2.8h1.7l-2,3.3,2.1,3.7h-1.7l-1.7-3h-.9v3Z"/>
    <path class="st16" d="M119.7,372.5h.4s0,1.1,0,1.1c-1.1.2-2,.3-2.8.3s-1.8-.3-2.2-.9c-.5-.6-.7-1.5-.7-2.7,0-2.5,1-3.7,3-3.7s2.9,1.1,2.9,3.2v1.1h-4.4c0,.6.1,1,.4,1.3.2.3.7.4,1.4.4s1.3,0,2,0ZM118.9,369.7c0-.7-.1-1.2-.3-1.4s-.6-.4-1.1-.4-.9.1-1.1.4c-.2.3-.4.8-.4,1.4h3Z"/>
    <path class="st16" d="M121.9,373.8v-9.9h1.5v9.9h-1.5Z"/>
    <path class="st16" d="M124.7,366.8h1.5l1.5,5.7h.4l1.5-5.7h1.5l-2.7,10h-1.5l.8-3h-1.2l-1.8-7Z"/>
  </g>
  <path class="st10" d="M29.3,417.4h170.8c3.1,0,5.6,2.5,5.6,5.6v27H23.7v-27c0-3.1,2.5-5.6,5.6-5.6Z" transform="translate(229.5 867.4) rotate(180)"/>
  <rect class="st4" x="24" y="385.3" width="181.6" height="32" transform="translate(229.5 802.6) rotate(180)"/>
  <g>
    <path class="st16" d="M84.1,404.9c-1.5,0-2.5-.4-3-1.2-.6-.8-.9-2-.9-3.7s.3-3,.9-3.8c.6-.8,1.6-1.2,3-1.2s2.4.4,3,1.2c.6.8.9,2.1.9,3.8s-.1,2-.4,2.7c-.2.7-.6,1.2-1.2,1.6l1.2,1.9-1.4.7-1.2-2c-.2,0-.5,0-.9,0ZM82.3,402.7c.3.5.9.8,1.8.8s1.5-.3,1.8-.8c.3-.5.5-1.4.5-2.7s-.2-2.2-.5-2.8c-.3-.6-.9-.9-1.8-.9s-1.5.3-1.8.9c-.3.6-.5,1.5-.5,2.8s.2,2.2.5,2.7Z"/>
    <path class="st16" d="M93.9,397.7h1.5v7h-1.5v-.4c-.7.4-1.3.6-1.9.6-1,0-1.6-.3-1.9-.8-.3-.5-.5-1.4-.5-2.7v-3.7h1.5v3.7c0,.8,0,1.4.2,1.7.1.3.5.4,1,.4s1,0,1.4-.3h.2v-5.5Z"/>
    <path class="st16" d="M97.2,396.5v-1.6h1.5v1.6h-1.5ZM97.2,404.7v-7h1.5v7h-1.5Z"/>
    <path class="st16" d="M104.4,399h-1.9v3.1c0,.6,0,.9.1,1.1s.3.3.6.3h1.1s0,1.2,0,1.2c-.6.1-1.1.2-1.4.2-.8,0-1.3-.2-1.6-.5-.3-.4-.4-1-.4-2.1v-3.2h-.9v-1.3h.9v-2h1.5v2h1.9v1.3Z"/>
    <path class="st16" d="M110.6,403.4h.4s0,1.1,0,1.1c-1.1.2-2,.3-2.8.3s-1.8-.3-2.2-.9c-.5-.6-.7-1.5-.7-2.7,0-2.5,1-3.7,3-3.7s2.9,1.1,2.9,3.2v1.1h-4.4c0,.6.1,1,.4,1.3s.7.4,1.4.4,1.3,0,2,0ZM109.8,400.7c0-.7-.1-1.2-.3-1.4s-.6-.4-1.1-.4-.9.1-1.1.4c-.2.3-.4.8-.4,1.4h3Z"/>
    <path class="st16" d="M115.9,404.7v-9.9h1.5v9.9h-1.5Z"/>
    <path class="st16" d="M119.4,396.5v-1.6h1.5v1.6h-1.5ZM119.4,404.7v-7h1.5v7h-1.5Z"/>
    <path class="st16" d="M124.3,404.7h-1.5v-9.9h1.5v5.7h.9c0,0,1.7-2.8,1.7-2.8h1.7l-2,3.3,2.1,3.7h-1.7l-1.7-3h-.9v3Z"/>
    <path class="st16" d="M134.6,403.4h.4s0,1.1,0,1.1c-1.1.2-2,.3-2.8.3s-1.8-.3-2.2-.9c-.5-.6-.7-1.5-.7-2.7,0-2.5,1-3.7,3-3.7s2.9,1.1,2.9,3.2v1.1h-4.4c0,.6.1,1,.4,1.3s.7.4,1.4.4,1.3,0,2,0ZM133.7,400.7c0-.7-.1-1.2-.3-1.4s-.6-.4-1.1-.4-.9.1-1.1.4c-.2.3-.4.8-.4,1.4h3Z"/>
    <path class="st16" d="M136.8,404.7v-9.9h1.5v9.9h-1.5Z"/>
    <path class="st16" d="M139.6,397.7h1.5l1.5,5.7h.4l1.5-5.7h1.5l-2.7,10h-1.5l.8-3h-1.2l-1.8-7Z"/>
  </g>
  <g>
    <path class="st16" d="M93.3,433.7h-2v3h-1.6v-9.6h3.5c2.2,0,3.3,1.1,3.3,3.2s-.3,1.9-.8,2.5c-.5.6-1.4.9-2.4.9ZM91.4,432.4h1.9c1.1,0,1.7-.7,1.7-2s-.1-1.1-.4-1.4-.7-.4-1.3-.4h-1.9v3.9Z"/>
    <path class="st16" d="M98.3,430.5c.5-.6,1.3-.9,2.4-.9s1.9.3,2.4.9c.5.6.7,1.5.7,2.7s-.2,2.1-.7,2.7-1.3.9-2.4.9-2-.3-2.4-.9c-.5-.6-.7-1.5-.7-2.7s.2-2.1.7-2.7ZM99.4,435c.2.4.6.6,1.3.6s1-.2,1.3-.6c.2-.4.3-1,.3-1.8s-.1-1.5-.3-1.8c-.2-.4-.6-.5-1.2-.5s-1,.2-1.2.5c-.2.4-.3,1-.3,1.8s.1,1.5.3,1.8Z"/>
    <path class="st16" d="M110.2,431.2c-1.1-.1-1.9-.2-2.4-.2s-.8,0-1,.2c-.2.1-.3.3-.3.6s.1.4.3.5c.2.1.7.2,1.5.4.8.1,1.3.3,1.7.6s.5.8.5,1.5-.2,1.3-.7,1.6c-.5.3-1.2.5-2.1.5s-1.3,0-2.2-.2h-.4c0,0,0-1.3,0-1.3,1.1.1,1.9.2,2.4.2s.8,0,1.1-.2c.2-.1.3-.3.3-.6s-.1-.5-.3-.6-.7-.2-1.4-.3c-.8-.1-1.3-.3-1.7-.6-.4-.3-.5-.8-.5-1.5s.2-1.3.7-1.6c.5-.4,1.1-.5,1.9-.5s1.3,0,2.2.2h.4c0,0,0,1.4,0,1.4Z"/>
    <path class="st16" d="M116.8,431.2c-1.1-.1-1.9-.2-2.4-.2s-.8,0-1,.2c-.2.1-.3.3-.3.6s.1.4.3.5c.2.1.7.2,1.5.4.8.1,1.3.3,1.7.6s.5.8.5,1.5-.2,1.3-.7,1.6c-.5.3-1.2.5-2.1.5s-1.3,0-2.2-.2h-.4c0,0,0-1.3,0-1.3,1.1.1,1.9.2,2.4.2s.8,0,1.1-.2c.2-.1.3-.3.3-.6s-.1-.5-.3-.6-.7-.2-1.4-.3c-.8-.1-1.3-.3-1.7-.6-.4-.3-.5-.8-.5-1.5s.2-1.3.7-1.6c.5-.4,1.1-.5,1.9-.5s1.3,0,2.2.2h.4c0,0,0,1.4,0,1.4Z"/>
    <path class="st16" d="M118.5,428.5v-1.6h1.5v1.6h-1.5ZM118.5,436.7v-7h1.5v7h-1.5Z"/>
    <path class="st16" d="M125.1,429.6c1,0,1.7.3,2.1.8.4.5.6,1.5.6,2.8s-.3,2.3-.8,2.8c-.5.5-1.4.8-2.7.8s-1.1,0-2.1-.1h-.5v-9.9h1.5v3.2c.6-.3,1.2-.4,1.8-.4ZM124.4,435.5c.7,0,1.2-.2,1.5-.5.2-.3.4-.9.4-1.8s-.1-1.4-.3-1.8-.6-.5-1-.5-.9,0-1.3.2h-.2v4.3c.5,0,.9,0,1,0Z"/>
    <path class="st16" d="M129.4,436.7v-9.9h1.5v9.9h-1.5Z"/>
    <path class="st16" d="M137.9,435.5h.4s0,1.1,0,1.1c-1.1.2-2,.3-2.8.3s-1.8-.3-2.2-.9c-.5-.6-.7-1.5-.7-2.7,0-2.5,1-3.7,3-3.7s2.9,1.1,2.9,3.2v1.1h-4.4c0,.6.1,1,.4,1.3s.7.4,1.4.4,1.3,0,2,0ZM137,432.7c0-.7-.1-1.2-.3-1.4s-.6-.4-1.1-.4-.9.1-1.1.4c-.2.3-.4.8-.4,1.4h3Z"/>
  </g>
  <rect class="st15" x="22.9" y="353.4" width="182.5" height="97.1" rx="4.1" ry="4.1"/>
  <rect class="st12" x="22.9" y="507.5" width="181.6" height="37" rx="5.6" ry="5.6"/>
  <rect class="st15" x="22.4" y="508" width="182.5" height="36" rx="4.8" ry="4.8"/>
  <path class="st7" d="M28.5,548.4h170.4c3.1,0,5.6,2.5,5.6,5.6v26.4H22.9v-26.4c0-3.1,2.5-5.6,5.6-5.6Z"/>
  <g>
    <path class="st17" d="M52.8,479.3h5.3c1.4,0,2.5.3,3.2.8.7.6,1.1,1.5,1.1,2.8s-.1,1.4-.3,1.8c-.2.4-.6.8-1.2,1.2.6.3,1,.6,1.3,1.1.3.5.4,1.1.4,2,0,1.3-.4,2.3-1.2,2.9-.8.6-1.9,1-3.3,1h-5.4v-13.6ZM58,481.7h-2.4v3.2h2.5c1,0,1.6-.5,1.6-1.6s-.5-1.6-1.6-1.6ZM58.1,487.3h-2.5v3.3h2.5c.6,0,1-.1,1.3-.4.3-.2.4-.7.4-1.3,0-1.1-.6-1.6-1.8-1.6Z"/>
    <path class="st17" d="M67.4,490.4c.3.3.8.4,1.3.4,1.2,0,2.3,0,3.3-.1h.6c0,0,0,1.9,0,1.9-1.5.4-2.9.6-4.2.6s-2.6-.4-3.3-1.2c-.7-.8-1-2.1-1-3.9,0-3.6,1.5-5.4,4.4-5.4s4.4,1.5,4.4,4.5l-.2,1.9h-5.9c0,.6.2,1.1.5,1.3ZM70.4,487c0-.8-.1-1.4-.4-1.7-.3-.3-.7-.5-1.3-.5s-1.1.2-1.3.5c-.3.3-.4.9-.4,1.6h3.5Z"/>
    <path class="st17" d="M75,492.9v-14h2.7v14h-2.7Z"/>
    <path class="st17" d="M80.9,484.1c.7-.9,1.9-1.4,3.5-1.4s2.8.5,3.5,1.4,1.1,2.2,1.1,3.9c0,3.5-1.5,5.3-4.6,5.3s-4.6-1.8-4.6-5.3.4-2.9,1.1-3.9ZM82.9,490.2c.3.5.8.7,1.5.7s1.2-.2,1.5-.7c.3-.5.4-1.2.4-2.3s-.1-1.8-.4-2.2c-.3-.5-.8-.7-1.5-.7s-1.2.2-1.5.7c-.3.5-.4,1.2-.4,2.2s.1,1.8.4,2.3Z"/>
    <path class="st17" d="M90.2,482.9h2.6l1.2,7.7h.5l1.5-7.5h2.8l1.5,7.5h.5l1.2-7.7h2.6l-1.9,10h-4.2l-1.1-6.1-1.1,6.1h-4.2l-1.9-10Z"/>
    <path class="st17" d="M109.9,492.9l3.1-13.6h5.2l3.1,13.6h-2.8l-.5-2.5h-4.8l-.5,2.5h-2.8ZM115.1,481.6l-1.4,6.5h3.7l-1.4-6.5h-1Z"/>
    <path class="st17" d="M121.6,482.9h2.8l1.6,7.7h.6l1.7-7.7h2.7l-2.4,10h-4.6l-2.4-10Z"/>
    <path class="st17" d="M135.1,490.4c.3.3.8.4,1.3.4,1.2,0,2.3,0,3.3-.1h.6c0,0,0,1.9,0,1.9-1.5.4-2.9.6-4.2.6s-2.6-.4-3.3-1.2c-.7-.8-1-2.1-1-3.9,0-3.6,1.5-5.4,4.4-5.4s4.4,1.5,4.4,4.5l-.2,1.9h-5.9c0,.6.2,1.1.5,1.3ZM138,487c0-.8-.1-1.4-.4-1.7-.3-.3-.7-.5-1.3-.5s-1.1.2-1.3.5c-.3.3-.4.9-.4,1.6h3.5Z"/>
    <path class="st17" d="M142.6,492.9v-10h2.7v1.1c1.1-.7,2.2-1.1,3.2-1.3v2.7c-1.1.2-2,.5-2.8.7h-.4v6.8h-2.7Z"/>
    <path class="st17" d="M157.7,486.1v4.2c0,.3,0,.5.2.7,0,.1.2.2.5.3v2c-.8,0-1.3,0-1.7-.1-.4,0-.8-.3-1.2-.6-1,.5-1.9.7-2.9.7-2.1,0-3.1-1.1-3.1-3.3s.3-1.8.9-2.3c.6-.4,1.5-.7,2.6-.8l2.1-.2v-.6c0-.4,0-.7-.3-.9-.2-.2-.5-.2-.9-.2l-3.8.2v-1.9c1.3-.4,2.7-.6,4-.6s2.2.3,2.8.8.9,1.4.9,2.6ZM153.2,488.7c-.7,0-1.1.5-1.1,1.2s.3,1.1,1,1.1,1.1,0,1.7-.2h.3v-2.2l-1.8.2Z"/>
    <path class="st17" d="M169.3,494.2c0,1.1-.4,2-1.3,2.5s-2.1.8-3.6.8-2.7-.2-3.5-.6c-.8-.4-1.2-1.1-1.2-2.2s.5-1.6,1.4-2.4c-.5-.3-.7-.8-.7-1.5s.2-.7.6-1.3l.2-.3c-.9-.7-1.4-1.6-1.4-2.9s.4-2.2,1.1-2.8,1.8-.9,3.1-.9,1.1,0,1.7.2h.3c0,0,3.2,0,3.2,0v2.1h-1.5c.3.3.4.8.4,1.2,0,1.3-.3,2.3-1,2.8-.7.5-1.7.8-3.2.8s-.6,0-.8,0c-.1.3-.2.6-.2.9s.1.4.3.5.8.1,1.6.1c1.7,0,2.8.2,3.4.7.6.4.9,1.2.9,2.4ZM162.4,494.5c0,.6.7.9,2.1.9s2.1-.3,2.1-1-.1-.6-.4-.7c-.2-.1-.7-.2-1.5-.2h-1.8c-.4.2-.5.6-.5,1ZM162.5,486.3c0,1,.5,1.5,1.5,1.5s1.5-.5,1.5-1.5-.5-1.5-1.5-1.5-1.5.5-1.5,1.5Z"/>
    <path class="st17" d="M173.6,490.4c.3.3.8.4,1.3.4,1.2,0,2.3,0,3.3-.1h.6c0,0,0,1.9,0,1.9-1.5.4-2.9.6-4.2.6s-2.6-.4-3.3-1.2c-.7-.8-1-2.1-1-3.9,0-3.6,1.5-5.4,4.4-5.4s4.4,1.5,4.4,4.5l-.2,1.9h-5.9c0,.6.2,1.1.5,1.3ZM176.6,487c0-.8-.1-1.4-.4-1.7-.3-.3-.7-.5-1.3-.5s-1.1.2-1.3.5c-.3.3-.4.9-.4,1.6h3.5Z"/>
  </g>
  <g>
    <path class="st17" d="M78.4,529.6v-9.6h6v1.4h-4.5v2.7h3.7v1.3h-3.7v2.8h4.5v1.4h-6Z"/>
    <path class="st17" d="M85.3,522.6h1.6l1.4,2.4,1.4-2.4h1.6l-2.1,3.4,2.1,3.6h-1.6l-1.4-2.4-1.4,2.4h-1.6l2-3.5-2-3.5Z"/>
    <path class="st17" d="M96.2,523.9h-1.9v3.1c0,.6,0,.9.1,1.1s.3.3.6.3h1.1s0,1.2,0,1.2c-.6.1-1.1.2-1.4.2-.8,0-1.3-.2-1.6-.5s-.4-1-.4-2.1v-3.2h-.9v-1.3h.9v-2h1.5v2h1.9v1.3Z"/>
    <path class="st17" d="M97.5,529.6v-7h1.5v.8c.8-.5,1.6-.8,2.4-1v1.5c-.8.2-1.5.4-2.1.6h-.3v5h-1.5Z"/>
    <path class="st17" d="M107.5,528.3h.4s0,1.1,0,1.1c-1.1.2-2,.3-2.8.3s-1.8-.3-2.2-.9c-.5-.6-.7-1.5-.7-2.7,0-2.5,1-3.7,3-3.7s2.9,1.1,2.9,3.2v1.1h-4.4c0,.6.1,1,.4,1.3.2.3.7.4,1.4.4s1.3,0,2,0ZM106.6,525.5c0-.7-.1-1.2-.3-1.4s-.6-.4-1.1-.4-.9.1-1.1.4c-.2.3-.4.8-.4,1.4h3Z"/>
    <path class="st17" d="M111.1,529.6h-1.5v-7h1.5v.4c.7-.4,1.3-.6,1.8-.6.8,0,1.4.2,1.8.7.8-.5,1.7-.7,2.5-.7s1.4.3,1.8.8c.3.5.5,1.4.5,2.6v3.8h-1.5v-3.7c0-.8,0-1.3-.2-1.6-.2-.3-.5-.5-1-.5s-.9,0-1.4.3h-.2c0,.3.1.9.1,1.9v3.6h-1.5v-3.6c0-.8,0-1.4-.2-1.7s-.5-.5-1-.5-.9,0-1.3.3h-.2v5.5Z"/>
    <path class="st17" d="M126.3,528.3h.4s0,1.1,0,1.1c-1.1.2-2,.3-2.8.3s-1.8-.3-2.2-.9c-.5-.6-.7-1.5-.7-2.7,0-2.5,1-3.7,3-3.7s2.9,1.1,2.9,3.2v1.1h-4.4c0,.6.1,1,.4,1.3.2.3.7.4,1.4.4s1.3,0,2,0ZM125.5,525.5c0-.7-.1-1.2-.3-1.4s-.6-.4-1.1-.4-.9.1-1.1.4c-.2.3-.4.8-.4,1.4h3Z"/>
    <path class="st17" d="M137.2,519.7v9.9h-1.5v-.4c-.7.3-1.3.5-1.9.5-.9,0-1.6-.3-2-.8s-.6-1.5-.6-2.8.2-2.2.7-2.8c.5-.6,1.2-.9,2.2-.9s.9,0,1.6.2v-2.9h1.5ZM135.4,528.1h.2v-4.2c-.6,0-1.1-.1-1.6-.1-.9,0-1.4.8-1.4,2.4s.1,1.5.3,1.8c.2.3.6.5,1,.5s.9,0,1.4-.3Z"/>
    <path class="st17" d="M139.1,529.6v-7h1.5v.8c.8-.5,1.6-.8,2.4-1v1.5c-.8.2-1.5.4-2.1.6h-.3v5h-1.5Z"/>
    <path class="st17" d="M143.5,522.6h1.5l1.5,5.7h.4l1.5-5.7h1.5l-2.7,10h-1.5l.8-3h-1.2l-1.8-7Z"/>
  </g>
  <g>
    <path class="st17" d="M70.4,568.9l2.4-9.6h3.1l2.4,9.6h-1.6l-.5-2.1h-3.7l-.5,2.1h-1.6ZM74,560.6l-1.2,4.9h3.1l-1.2-4.9h-.7Z"/>
    <path class="st17" d="M79.5,568.9v-9.9h1.5v9.9h-1.5Z"/>
    <path class="st17" d="M84.5,568.9h-1.5v-7h1.5v.4c.7-.4,1.3-.6,1.8-.6.8,0,1.4.2,1.8.7.8-.5,1.7-.7,2.5-.7s1.4.3,1.8.8c.3.5.5,1.4.5,2.6v3.8h-1.5v-3.7c0-.8,0-1.3-.2-1.6-.2-.3-.5-.5-1-.5s-.9,0-1.4.3h-.2c0,.3.1.9.1,1.9v3.6h-1.5v-3.6c0-.8,0-1.4-.2-1.7s-.5-.5-1-.5-.9,0-1.3.3h-.2v5.5Z"/>
    <path class="st17" d="M95.1,562.7c.5-.6,1.3-.9,2.4-.9s1.9.3,2.4.9c.5.6.7,1.5.7,2.7s-.2,2.1-.7,2.7-1.3.9-2.4.9-2-.3-2.4-.9c-.5-.6-.7-1.5-.7-2.7s.2-2.1.7-2.7ZM96.2,567.2c.2.4.6.6,1.3.6s1-.2,1.3-.6c.2-.4.3-1,.3-1.8s-.1-1.5-.3-1.8c-.2-.4-.6-.5-1.2-.5s-1,.2-1.2.5c-.2.4-.3,1-.3,1.8s.1,1.5.3,1.8Z"/>
    <path class="st17" d="M107,563.4c-1.1-.1-1.9-.2-2.4-.2s-.8,0-1,.2c-.2.1-.3.3-.3.6s.1.4.3.5c.2.1.7.2,1.5.4.8.1,1.3.3,1.7.6s.5.8.5,1.5-.2,1.3-.7,1.6c-.5.3-1.2.5-2.1.5s-1.3,0-2.2-.2h-.4c0,0,0-1.3,0-1.3,1.1.1,1.9.2,2.4.2s.8,0,1.1-.2c.2-.1.3-.3.3-.6s-.1-.5-.3-.6-.7-.2-1.4-.3c-.8-.1-1.3-.3-1.7-.6-.4-.3-.5-.8-.5-1.5s.2-1.3.7-1.6c.5-.4,1.1-.5,1.9-.5s1.3,0,2.2.2h.4c0,0,0,1.4,0,1.4Z"/>
    <path class="st17" d="M112.4,563.2h-1.9v3.1c0,.6,0,.9.1,1.1s.3.3.6.3h1.1s0,1.2,0,1.2c-.6.1-1.1.2-1.4.2-.8,0-1.3-.2-1.6-.5-.3-.4-.4-1-.4-2.1v-3.2h-.9v-1.3h.9v-2h1.5v2h1.9v1.3Z"/>
    <path class="st17" d="M119.4,561.8c.5,0,1.1,0,1.8.2h.4c0,0,0,1.3,0,1.3-.7,0-1.3-.1-1.6-.1-.7,0-1.2.2-1.4.5s-.4.9-.4,1.8.1,1.5.4,1.8.7.5,1.5.5h1.6c0-.1,0,1.1,0,1.1-.9.2-1.7.3-2.1.3-1.1,0-1.8-.3-2.2-.9s-.7-1.5-.7-2.8.2-2.2.7-2.8c.5-.6,1.2-.8,2.2-.8Z"/>
    <path class="st17" d="M127.9,567.7h.4s0,1.1,0,1.1c-1.1.2-2,.3-2.8.3s-1.8-.3-2.2-.9c-.5-.6-.7-1.5-.7-2.7,0-2.5,1-3.7,3-3.7s2.9,1.1,2.9,3.2v1.1h-4.4c0,.6.1,1,.4,1.3s.7.4,1.4.4,1.3,0,2,0ZM127,564.9c0-.7-.1-1.2-.3-1.4s-.6-.4-1.1-.4-.9.1-1.1.4c-.2.3-.4.8-.4,1.4h3Z"/>
    <path class="st17" d="M130,568.9v-7h1.5v.8c.8-.5,1.6-.8,2.4-1v1.5c-.8.2-1.5.4-2.1.6h-.3v5h-1.5Z"/>
    <path class="st17" d="M138.8,563.2h-1.9v3.1c0,.6,0,.9.1,1.1s.3.3.6.3h1.1s0,1.2,0,1.2c-.6.1-1.1.2-1.4.2-.8,0-1.3-.2-1.6-.5-.3-.4-.4-1-.4-2.1v-3.2h-.9v-1.3h.9v-2h1.5v2h1.9v1.3Z"/>
    <path class="st17" d="M145.3,564.1v3.2c0,.2,0,.4.2.5,0,0,.2.2.5.2v1.2c-.8,0-1.5-.2-1.9-.5-.7.3-1.5.5-2.3.5-1.4,0-2.1-.7-2.1-2.2s.2-1.2.6-1.5,1-.5,1.7-.6l1.8-.2v-.5c0-.4,0-.6-.2-.8-.2-.1-.4-.2-.7-.2-.6,0-1.3,0-2.2.1h-.4s0-1,0-1c1-.2,2-.4,2.8-.4s1.5.2,1.8.6c.4.4.6,1,.6,1.8ZM142.1,565.8c-.6,0-1,.4-1,1s.3,1,.9,1,1,0,1.5-.2h.3v-1.9l-1.6.2Z"/>
    <path class="st17" d="M147.2,560.7v-1.6h1.5v1.6h-1.5ZM147.2,568.9v-7h1.5v7h-1.5Z"/>
    <path class="st17" d="M152.1,568.9h-1.5v-7h1.5v.4c.7-.4,1.3-.6,1.9-.6.9,0,1.6.3,1.9.8s.5,1.4.5,2.6v3.8h-1.5v-3.7c0-.8,0-1.3-.2-1.6-.2-.3-.5-.5-1-.5s-.9,0-1.4.3h-.2v5.5Z"/>
  </g>
  <path class="st8" d="M27.8,676.6h170.8c3.1,0,5.6,2.5,5.6,5.6v27H22.2v-27c0-3.1,2.5-5.6,5.6-5.6Z" transform="translate(226.4 1385.8) rotate(180)"/>
  <rect class="st2" x="23.5" y="580.5" width="181.6" height="32" transform="translate(228.6 1193) rotate(180)"/>
  <g>
    <path class="st17" d="M88.2,590.3h1.6l-2.4,9.6h-3.1l-2.4-9.6h1.6l1.9,8.2h.7l1.9-8.2Z"/>
    <path class="st17" d="M95.6,598.6h.4s0,1.1,0,1.1c-1.1.2-2,.3-2.8.3s-1.8-.3-2.2-.9c-.5-.6-.7-1.5-.7-2.7,0-2.5,1-3.7,3-3.7s2.9,1.1,2.9,3.2v1.1h-4.4c0,.6.1,1,.4,1.3s.7.4,1.4.4,1.3,0,2,0ZM94.7,595.8c0-.7-.1-1.2-.3-1.4s-.6-.4-1.1-.4-.9.1-1.1.4c-.2.3-.4.8-.4,1.4h3Z"/>
    <path class="st17" d="M97.7,599.9v-7h1.5v.8c.8-.5,1.6-.8,2.4-1v1.5c-.8.2-1.5.4-2.1.6h-.3v5h-1.5Z"/>
    <path class="st17" d="M102.1,592.9h1.5l1.5,5.7h.4l1.5-5.7h1.5l-2.7,10h-1.5l.8-3h-1.2l-1.8-7Z"/>
    <path class="st17" d="M112.8,599.9v-9.9h1.5v9.9h-1.5Z"/>
    <path class="st17" d="M116.3,591.7v-1.6h1.5v1.6h-1.5ZM116.3,599.9v-7h1.5v7h-1.5Z"/>
    <path class="st17" d="M121.2,599.9h-1.5v-9.9h1.5v5.7h.9c0,0,1.7-2.8,1.7-2.8h1.7l-2,3.3,2.1,3.7h-1.7l-1.7-3h-.9v3Z"/>
    <path class="st17" d="M131.4,598.6h.4s0,1.1,0,1.1c-1.1.2-2,.3-2.8.3s-1.8-.3-2.2-.9c-.5-.6-.7-1.5-.7-2.7,0-2.5,1-3.7,3-3.7s2.9,1.1,2.9,3.2v1.1h-4.4c0,.6.1,1,.4,1.3s.7.4,1.4.4,1.3,0,2,0ZM130.6,595.8c0-.7-.1-1.2-.3-1.4s-.6-.4-1.1-.4-.9.1-1.1.4c-.2.3-.4.8-.4,1.4h3Z"/>
    <path class="st17" d="M133.7,599.9v-9.9h1.5v9.9h-1.5Z"/>
    <path class="st17" d="M136.5,592.9h1.5l1.5,5.7h.4l1.5-5.7h1.5l-2.7,10h-1.5l.8-3h-1.2l-1.8-7Z"/>
  </g>
  <rect class="st14" x="23.9" y="612.5" width="181.6" height="32" transform="translate(229.3 1257) rotate(180)"/>
  <g>
    <path class="st17" d="M102,631.9h-5.4v-9.6h1.6v8.2h3.8v1.4Z"/>
    <path class="st17" d="M103.1,623.7v-1.6h1.5v1.6h-1.5ZM103.1,631.9v-7h1.5v7h-1.5Z"/>
    <path class="st17" d="M108,631.9h-1.5v-9.9h1.5v5.7h.9c0,0,1.7-2.8,1.7-2.8h1.7l-2,3.3,2.1,3.7h-1.7l-1.7-3h-.9v3Z"/>
    <path class="st17" d="M118.3,630.7h.4s0,1.1,0,1.1c-1.1.2-2,.3-2.8.3s-1.8-.3-2.2-.9c-.5-.6-.7-1.5-.7-2.7,0-2.5,1-3.7,3-3.7s2.9,1.1,2.9,3.2v1.1h-4.4c0,.6.1,1,.4,1.3.2.3.7.4,1.4.4s1.3,0,2,0ZM117.5,627.9c0-.7-.1-1.2-.3-1.4-.2-.3-.6-.4-1.1-.4s-.9.1-1.1.4c-.2.3-.4.8-.4,1.4h3Z"/>
    <path class="st17" d="M120.5,631.9v-9.9h1.5v9.9h-1.5Z"/>
    <path class="st17" d="M123.3,624.9h1.5l1.5,5.7h.4l1.5-5.7h1.5l-2.7,10h-1.5l.8-3h-1.2l-1.8-7Z"/>
  </g>
  <rect class="st1" x="23.7" y="644.5" width="181.6" height="32" transform="translate(228.9 1321.1) rotate(180)"/>
  <g>
    <path class="st16" d="M84.2,664.4c-1.5,0-2.5-.4-3-1.2-.6-.8-.9-2-.9-3.7s.3-3,.9-3.8c.6-.8,1.6-1.2,3-1.2s2.4.4,3,1.2c.6.8.9,2.1.9,3.8s-.1,2-.4,2.7c-.2.7-.6,1.2-1.2,1.6l1.2,1.9-1.4.7-1.2-2c-.2,0-.5,0-.9,0ZM82.4,662.2c.3.5.9.8,1.8.8s1.5-.3,1.8-.8c.3-.5.5-1.4.5-2.7s-.2-2.2-.5-2.8c-.3-.6-.9-.9-1.8-.9s-1.5.3-1.8.9c-.3.6-.5,1.5-.5,2.8s.2,2.2.5,2.7Z"/>
    <path class="st16" d="M94,657.2h1.5v7h-1.5v-.4c-.7.4-1.3.6-1.9.6-1,0-1.6-.3-1.9-.8-.3-.5-.5-1.4-.5-2.7v-3.7h1.5v3.7c0,.8,0,1.4.2,1.7.1.3.5.4,1,.4s1,0,1.4-.3h.2v-5.5Z"/>
    <path class="st16" d="M97.4,656v-1.6h1.5v1.6h-1.5ZM97.4,664.2v-7h1.5v7h-1.5Z"/>
    <path class="st16" d="M104.5,658.5h-1.9v3.1c0,.6,0,.9.1,1.1s.3.3.6.3h1.1s0,1.2,0,1.2c-.6.1-1.1.2-1.4.2-.8,0-1.3-.2-1.6-.5s-.4-1-.4-2.1v-3.2h-.9v-1.3h.9v-2h1.5v2h1.9v1.3Z"/>
    <path class="st16" d="M110.7,663h.4s0,1.1,0,1.1c-1.1.2-2,.3-2.8.3s-1.8-.3-2.2-.9c-.5-.6-.7-1.5-.7-2.7,0-2.5,1-3.7,3-3.7s2.9,1.1,2.9,3.2v1.1h-4.4c0,.6.1,1,.4,1.3.2.3.7.4,1.4.4s1.3,0,2,0ZM109.9,660.2c0-.7-.1-1.2-.3-1.4s-.6-.4-1.1-.4-.9.1-1.1.4c-.2.3-.4.8-.4,1.4h3Z"/>
    <path class="st16" d="M116,664.2v-9.9h1.5v9.9h-1.5Z"/>
    <path class="st16" d="M119.5,656v-1.6h1.5v1.6h-1.5ZM119.5,664.2v-7h1.5v7h-1.5Z"/>
    <path class="st16" d="M124.4,664.2h-1.5v-9.9h1.5v5.7h.9c0,0,1.7-2.8,1.7-2.8h1.7l-2,3.3,2.1,3.7h-1.7l-1.7-3h-.9v3Z"/>
    <path class="st16" d="M134.7,663h.4s0,1.1,0,1.1c-1.1.2-2,.3-2.8.3s-1.8-.3-2.2-.9c-.5-.6-.7-1.5-.7-2.7,0-2.5,1-3.7,3-3.7s2.9,1.1,2.9,3.2v1.1h-4.4c0,.6.1,1,.4,1.3.2.3.7.4,1.4.4s1.3,0,2,0ZM133.8,660.2c0-.7-.1-1.2-.3-1.4s-.6-.4-1.1-.4-.9.1-1.1.4c-.2.3-.4.8-.4,1.4h3Z"/>
    <path class="st16" d="M136.9,664.2v-9.9h1.5v9.9h-1.5Z"/>
    <path class="st16" d="M139.7,657.2h1.5l1.5,5.7h.4l1.5-5.7h1.5l-2.7,10h-1.5l.8-3h-1.2l-1.8-7Z"/>
  </g>
  <rect class="st15" x="22.4" y="548.6" width="182.5" height="160.6" rx="4.1" ry="4.1"/>
  <g>
    <path class="st16" d="M93.8,693.9h-2v3h-1.6v-9.6h3.5c2.2,0,3.3,1.1,3.3,3.2s-.3,1.9-.8,2.5c-.5.6-1.4.9-2.4.9ZM91.8,692.6h1.9c1.1,0,1.7-.7,1.7-2s-.1-1.1-.4-1.4-.7-.4-1.3-.4h-1.9v3.9Z"/>
    <path class="st16" d="M98.7,690.7c.5-.6,1.3-.9,2.4-.9s1.9.3,2.4.9c.5.6.7,1.5.7,2.7s-.2,2.1-.7,2.7-1.3.9-2.4.9-2-.3-2.4-.9c-.5-.6-.7-1.5-.7-2.7s.2-2.1.7-2.7ZM99.9,695.2c.2.4.6.6,1.3.6s1-.2,1.3-.6c.2-.4.3-1,.3-1.8s-.1-1.5-.3-1.8c-.2-.4-.6-.5-1.2-.5s-1,.2-1.2.5c-.2.4-.3,1-.3,1.8s.1,1.5.3,1.8Z"/>
    <path class="st16" d="M110.6,691.4c-1.1-.1-1.9-.2-2.4-.2s-.8,0-1,.2c-.2.1-.3.3-.3.6s.1.4.3.5c.2.1.7.2,1.5.4.8.1,1.3.3,1.7.6s.5.8.5,1.5-.2,1.3-.7,1.6c-.5.3-1.2.5-2.1.5s-1.3,0-2.2-.2h-.4c0,0,0-1.3,0-1.3,1.1.1,1.9.2,2.4.2s.8,0,1.1-.2c.2-.1.3-.3.3-.6s-.1-.5-.3-.6-.7-.2-1.4-.3c-.8-.1-1.3-.3-1.7-.6-.4-.3-.5-.8-.5-1.5s.2-1.3.7-1.6c.5-.4,1.1-.5,1.9-.5s1.3,0,2.2.2h.4c0,0,0,1.4,0,1.4Z"/>
    <path class="st16" d="M117.2,691.4c-1.1-.1-1.9-.2-2.4-.2s-.8,0-1,.2c-.2.1-.3.3-.3.6s.1.4.3.5c.2.1.7.2,1.5.4.8.1,1.3.3,1.7.6s.5.8.5,1.5-.2,1.3-.7,1.6c-.5.3-1.2.5-2.1.5s-1.3,0-2.2-.2h-.4c0,0,0-1.3,0-1.3,1.1.1,1.9.2,2.4.2s.8,0,1.1-.2c.2-.1.3-.3.3-.6s-.1-.5-.3-.6-.7-.2-1.4-.3c-.8-.1-1.3-.3-1.7-.6-.4-.3-.5-.8-.5-1.5s.2-1.3.7-1.6c.5-.4,1.1-.5,1.9-.5s1.3,0,2.2.2h.4c0,0,0,1.4,0,1.4Z"/>
    <path class="st16" d="M118.9,688.7v-1.6h1.5v1.6h-1.5ZM118.9,696.9v-7h1.5v7h-1.5Z"/>
    <path class="st16" d="M125.5,689.8c1,0,1.7.3,2.1.8.4.5.6,1.5.6,2.8s-.3,2.3-.8,2.8c-.5.5-1.4.8-2.7.8s-1.1,0-2.1-.1h-.5v-9.9h1.5v3.2c.6-.3,1.2-.4,1.8-.4ZM124.8,695.7c.7,0,1.2-.2,1.5-.5.2-.3.4-.9.4-1.8s-.1-1.4-.3-1.8-.6-.5-1-.5-.9,0-1.3.2h-.2v4.3c.5,0,.9,0,1,0Z"/>
    <path class="st16" d="M129.9,696.9v-9.9h1.5v9.9h-1.5Z"/>
    <path class="st16" d="M138.3,695.7h.4s0,1.1,0,1.1c-1.1.2-2,.3-2.8.3s-1.8-.3-2.2-.9c-.5-.6-.7-1.5-.7-2.7,0-2.5,1-3.7,3-3.7s2.9,1.1,2.9,3.2v1.1h-4.4c0,.6.1,1,.4,1.3s.7.4,1.4.4,1.3,0,2,0ZM137.5,692.9c0-.7-.1-1.2-.3-1.4s-.6-.4-1.1-.4-.9.1-1.1.4c-.2.3-.4.8-.4,1.4h3Z"/>
  </g>
  <g>
    <path class="st17" d="M19.6,21.3c-1.5,0-2.2.5-2.2,1.4s.2.8.5,1c.4.2,1.2.6,2.5,1s2.3.9,2.8,1.5.8,1.4.8,2.5-.4,2.5-1.3,3.2-2,1.1-3.4,1.1-2.3-.2-3.8-.5h-.7c0-.1.3-2.3.3-2.3,1.8.2,3.2.4,4.1.4,1.4,0,2.1-.6,2.1-1.8s-.2-.8-.5-1c-.3-.2-1-.5-2-.8-1.5-.4-2.6-1-3.3-1.6-.6-.6-.9-1.5-.9-2.5s.4-2.4,1.2-3,2-1,3.4-1,2.2.1,3.8.4h.7c0,.1-.2,2.3-.2,2.3-1.9-.2-3.2-.3-4-.3Z"/>
    <path class="st17" d="M34.9,32.5c-1.4.3-2.7.5-3.8.5s-2-.1-2.7-.4c-.7-.3-1.2-.7-1.6-1.3s-.7-1.3-.8-2.2c-.1-.8-.2-1.9-.2-3.1,0-2.6.4-4.5,1.1-5.5.7-1,2.1-1.5,4.1-1.5s2.5.2,4,.5v2.2c-1.4-.2-2.5-.3-3.4-.3s-1.5.1-1.9.4c-.4.2-.6.7-.8,1.3-.2.7-.3,1.8-.3,3.3s.2,2.7.6,3.3c.4.6,1.1.9,2.2.9s2.3,0,3.5-.3v2.3Z"/>
    <path class="st17" d="M37.2,32.7v-13.6h8.8v2.4h-6v3.2h4.8v2.4h-4.8v3.3h6v2.4h-8.8Z"/>
    <path class="st17" d="M48.3,32.7v-13.6h4.7l3.3,11.2h.2v-11.2h2.8v13.6h-4.5l-3.4-11.2h-.2v11.2h-2.8Z"/>
    <path class="st17" d="M61,32.7l3.1-13.6h5.2l3.1,13.6h-2.8l-.5-2.5h-4.8l-.5,2.5h-2.8ZM66.2,21.4l-1.4,6.5h3.7l-1.4-6.5h-1Z"/>
    <path class="st17" d="M76.9,28.2v4.6h-2.8v-13.6h5.3c3.2,0,4.8,1.5,4.8,4.5s-.7,3.1-2,3.9l1.9,5.2h-3l-1.6-4.6h-2.7ZM80.9,25.2c.3-.4.5-.9.5-1.6s-.2-1.2-.5-1.6c-.3-.4-.8-.6-1.5-.6h-2.5v4.3h2.6c.7,0,1.1-.2,1.5-.6Z"/>
    <path class="st17" d="M86.6,32.7v-13.6h2.8v13.6h-2.8Z"/>
    <path class="st17" d="M101.7,31.3c-.8,1.1-2.3,1.7-4.4,1.7s-3.5-.6-4.4-1.7c-.8-1.1-1.3-2.9-1.3-5.3s.4-4.2,1.3-5.3,2.3-1.8,4.4-1.8,3.5.6,4.4,1.8c.8,1.2,1.3,2.9,1.3,5.3s-.4,4.2-1.3,5.3ZM95.1,29.5c.4.7,1.1,1,2.2,1s1.8-.3,2.2-1c.4-.7.6-1.9.6-3.5s-.2-2.8-.6-3.6c-.4-.7-1.1-1.1-2.2-1.1s-1.8.4-2.2,1.1c-.4.7-.6,1.9-.6,3.6s.2,2.8.6,3.5Z"/>
    <path class="st17" d="M109.5,21.3c-1.5,0-2.2.5-2.2,1.4s.2.8.5,1c.4.2,1.2.6,2.5,1s2.3.9,2.8,1.5.8,1.4.8,2.5-.4,2.5-1.3,3.2-2,1.1-3.4,1.1-2.3-.2-3.8-.5h-.7c0-.1.3-2.3.3-2.3,1.8.2,3.2.4,4.1.4,1.4,0,2.1-.6,2.1-1.8s-.2-.8-.5-1c-.3-.2-1-.5-2-.8-1.5-.4-2.6-1-3.3-1.6-.6-.6-.9-1.5-.9-2.5s.4-2.4,1.2-3,2-1,3.4-1,2.2.1,3.8.4h.7c0,.1-.2,2.3-.2,2.3-1.9-.2-3.2-.3-4-.3Z"/>
    <path class="st17" d="M124.8,21.3c-1.5,0-2.2.5-2.2,1.4s.2.8.5,1c.4.2,1.2.6,2.5,1s2.3.9,2.8,1.5.8,1.4.8,2.5-.4,2.5-1.3,3.2-2,1.1-3.4,1.1-2.3-.2-3.8-.5h-.7c0-.1.3-2.3.3-2.3,1.8.2,3.2.4,4.1.4,1.4,0,2.1-.6,2.1-1.8s-.2-.8-.5-1c-.3-.2-1-.5-2-.8-1.5-.4-2.6-1-3.3-1.6-.6-.6-.9-1.5-.9-2.5s.4-2.4,1.2-3,2-1,3.4-1,2.2.1,3.8.4h.7c0,.1-.2,2.3-.2,2.3-1.9-.2-3.2-.3-4-.3Z"/>
    <path class="st17" d="M134.1,28.2c0,1.6.8,2.4,2.4,2.4s2.4-.8,2.4-2.4v-9.1h2.8v9c0,1.7-.4,2.9-1.3,3.7-.9.8-2.2,1.2-3.9,1.2s-3-.4-3.9-1.2c-.9-.8-1.3-2-1.3-3.7v-9h2.8v9.1Z"/>
    <path class="st17" d="M144.6,32.7v-13.6h4.7l2.4,9.9,2.4-9.9h4.7v13.6h-2.8v-10.5h-.3l-2.7,9.9h-2.8l-2.7-9.9h-.3v10.5h-2.8Z"/>
    <path class="st17" d="M161.7,32.7v-13.6h4.7l2.4,9.9,2.4-9.9h4.7v13.6h-2.8v-10.5h-.3l-2.7,9.9h-2.8l-2.7-9.9h-.3v10.5h-2.8Z"/>
    <path class="st17" d="M177.7,32.7l3.1-13.6h5.2l3.1,13.6h-2.8l-.5-2.5h-4.8l-.5,2.5h-2.8ZM182.9,21.4l-1.4,6.5h3.7l-1.4-6.5h-1Z"/>
    <path class="st17" d="M193.7,28.2v4.6h-2.8v-13.6h5.3c3.2,0,4.8,1.5,4.8,4.5s-.7,3.1-2,3.9l1.9,5.2h-3l-1.6-4.6h-2.7ZM197.7,25.2c.3-.4.5-.9.5-1.6s-.2-1.2-.5-1.6c-.3-.4-.8-.6-1.5-.6h-2.5v4.3h2.6c.7,0,1.1-.2,1.5-.6Z"/>
    <path class="st17" d="M208.4,32.7h-2.8v-5.5l-4.2-8.1h3.1l2.5,5.4,2.5-5.4h3.1l-4.2,8.1v5.5Z"/>
  </g>
  <g>
    <circle class="st16" cx="31.8" cy="70.1" r="12"/>
    <path class="st17" d="M40.7,70.4h0c0-4.6-3.7-8.3-8.4-8.6v-.8c0-.2-.2-.4-.5-.4s-.5.2-.5.4v.8c-4.7.2-8.4,4-8.4,8.6s.2.4.5.4.2,0,.3-.1c1.5-1.4,3.5-1.4,5,0,0,0,.2.1.3.1s.2,0,.3-.1c.6-.6,1.3-.9,2.1-1v5.9c0,1.2,1,2.2,2.3,2.2s2.3-1,2.3-2.2-.2-.4-.5-.4-.5.2-.5.4c0,.7-.6,1.3-1.4,1.3s-1.4-.6-1.4-1.3v-5.9c.7,0,1.4.4,2.1,1,.1.1.5.1.6,0,1.5-1.4,3.5-1.4,5,0,.1.1.4.1.6,0,.1,0,.2-.1.2-.3ZM34.3,69.5c-.8-.5-1.6-.8-2.4-.8h-.1c-.8,0-1.7.3-2.4.8-.2-3,.6-5.3,1.5-6.3.6-.7,1.2-.7,1.9,0,1,1,1.8,3.3,1.5,6.3ZM23.9,69.4c.4-3.2,2.9-5.8,6.1-6.6-.9,1.2-1.7,3.4-1.5,6.6-1.4-.8-3.1-.8-4.6,0ZM35.2,69.4c.2-3.1-.6-5.4-1.5-6.6,3.2.8,5.7,3.3,6.1,6.6-1.4-.8-3.1-.8-4.6,0Z"/>
  </g>
  <g>
    <circle class="st16" cx="33.7" cy="328.9" r="12"/>
    <path class="st17" d="M42.6,329.2h0c0-4.6-3.7-8.3-8.4-8.6v-.8c0-.2-.2-.4-.5-.4s-.5.2-.5.4v.8c-4.7.2-8.4,4-8.4,8.6s.2.4.5.4.2,0,.3-.1c1.5-1.4,3.5-1.4,5,0,0,0,.2.1.3.1s.2,0,.3-.1c.6-.6,1.3-.9,2.1-1v5.9c0,1.2,1,2.2,2.3,2.2s2.3-1,2.3-2.2-.2-.4-.5-.4-.5.2-.5.4c0,.7-.6,1.3-1.4,1.3s-1.4-.6-1.4-1.3v-5.9c.7,0,1.4.4,2.1,1,.1.1.5.1.6,0,1.5-1.4,3.5-1.4,5,0,.1.1.4.1.6,0,.1,0,.2-.1.2-.3ZM36.1,328.3c-.8-.5-1.6-.8-2.4-.8h-.1c-.8,0-1.7.3-2.4.8-.2-3,.6-5.3,1.5-6.3.6-.7,1.2-.7,1.9,0,1,1,1.8,3.3,1.5,6.3ZM25.8,328.2c.4-3.2,2.9-5.8,6.1-6.6-.9,1.2-1.7,3.4-1.5,6.6-1.4-.8-3.1-.8-4.6,0ZM37.1,328.2c.2-3.1-.6-5.4-1.5-6.6,3.2.8,5.7,3.3,6.1,6.6-1.4-.8-3.1-.8-4.6,0Z"/>
  </g>
  <g>
    <circle class="st16" cx="33.7" cy="486.4" r="12"/>
    <path class="st17" d="M42.6,486.7h0c0-4.6-3.7-8.3-8.4-8.6v-.8c0-.2-.2-.4-.5-.4s-.5.2-.5.4v.8c-4.7.2-8.4,4-8.4,8.6s.2.4.5.4.2,0,.3-.1c1.5-1.4,3.5-1.4,5,0,0,0,.2.1.3.1s.2,0,.3-.1c.6-.6,1.3-.9,2.1-1v5.9c0,1.2,1,2.2,2.3,2.2s2.3-1,2.3-2.2-.2-.4-.5-.4-.5.2-.5.4c0,.7-.6,1.3-1.4,1.3s-1.4-.6-1.4-1.3v-5.9c.7,0,1.4.4,2.1,1,.1.1.5.1.6,0,1.5-1.4,3.5-1.4,5,0,.1.1.4.1.6,0,.1,0,.2-.1.2-.3ZM36.1,485.8c-.8-.5-1.6-.8-2.4-.8h-.1c-.8,0-1.7.3-2.4.8-.2-3,.6-5.3,1.5-6.3.6-.7,1.2-.7,1.9,0,1,1,1.8,3.3,1.5,6.3ZM25.8,485.7c.4-3.2,2.9-5.8,6.1-6.6-.9,1.2-1.7,3.4-1.5,6.6-1.4-.8-3.1-.8-4.6,0ZM37.1,485.7c.2-3.1-.6-5.4-1.5-6.6,3.2.8,5.7,3.3,6.1,6.6-1.4-.8-3.1-.8-4.6,0Z"/>
  </g>
</svg>