<?xml version="1.0" encoding="UTF-8"?>
<svg id="Livello_1" xmlns="http://www.w3.org/2000/svg" version="1.1"   width="269.2px" height="874.5px" viewBox="0 0 269.2 874.5">
  <!-- Generator: Adobe Illustrator 29.8.4, SVG Export Plug-In . SVG Version: 2.1.1 Build 6)  -->
  <defs>
    <style>
      .st0 {
        fill: #a6d8a8;
      }

      .st0, .st1, .st2, .st3, .st4, .st5, .st6, .st7, .st8, .st9, .st10, .st11, .st12, .st13 {
        isolation: isolate;
      }

      .st14 {
        stroke: #3c3430;
        stroke-miterlimit: 9.8;
        stroke-width: 2px;
      }

      .st14, .st15 {
        fill: none;
      }

      .st1 {
        fill: #ffb380;
      }

      .st2 {
        fill: #de5d07;
      }

      .st16 {
        fill: #39322e;
      }

      .st17 {
        fill: #fff;
      }

      .st3 {
        fill: #73bf78;
      }

      .st4 {
        fill: #d9f2d9;
      }

      .st6 {
        fill: #994d00;
      }

      .st7 {
        fill: #ffe0cc;
      }

      .st8 {
        fill: #092613;
      }

      .st9 {
        fill: #2b2b2b;
        opacity: .9;
      }

      .st10 {
        fill: #288a32;
      }

      .st18 {
        fill: #cfcfcf;
      }

      .st11 {
        fill: #462200;
      }

      .st12 {
        fill: #1f5c33;
      }

      .st13 {
        fill: #ff8c40;
      }

      .st19 {
        fill: #e6e6e6;
      }
    </style>
  </defs>
  <rect class="st9" x="-.8" width="270" height="874.5"/>
  <path class="st8" d="M41.9,90.2h187c3.1,0,5.6,2.5,5.6,5.6v31c0,3.1-2.5,5.6-5.6,5.6H41.9c-3.1,0-5.6-2.5-5.6-5.6v-31c0-3.1,2.5-5.6,5.6-5.6Z"/>
  <path class="st14" d="M40.6,90.7h189.6c2.7,0,4.8,2.1,4.8,4.8v31.5c0,2.7-2.1,4.8-4.8,4.8H40.6c-2.7,0-4.8-2.1-4.8-4.8v-31.5c0-2.6,2.1-4.8,4.8-4.8Z"/>
  <path class="st12" d="M41.4,136.3h187.8c3.4,0,6.2,3.4,6.2,7.5v35.5H35.2v-35.5c0-4.2,2.8-7.5,6.2-7.5Z"/>
  <g>
    <path class="st17" d="M70,75.5l3.1-13.6h5.2l3.1,13.6h-2.8l-.5-2.5h-4.8l-.5,2.5s-2.8,0-2.8,0ZM75.2,64.2l-1.4,6.5h3.7l-1.4-6.5h-1,.1Z"/>
    <path class="st17" d="M87.8,65.2c1.4,0,2.4.4,3.1,1.2.6.8,1,2.1,1,4.1s-.4,3.3-1.1,4.1c-.7.8-2,1.1-3.9,1.1s-1.6,0-3.1-.2h-.8v-14h2.7v4.3c.9-.4,1.6-.5,2.1-.6h0ZM86.8,73.3c.9,0,1.5-.2,1.8-.6s.5-1.2.5-2.3c0-1.8-.6-2.7-1.7-2.7s-1,0-1.5.2h-.3v5.4h1.2Z"/>
    <path class="st17" d="M94.4,66.6c.7-.9,1.9-1.4,3.5-1.4s2.8.5,3.5,1.4,1.1,2.2,1.1,3.9c0,3.5-1.5,5.3-4.6,5.3s-4.6-1.8-4.6-5.3.4-2.9,1.1-3.9ZM96.4,72.7c.3.5.8.7,1.5.7s1.2-.2,1.5-.7.4-1.2.4-2.3-.1-1.8-.4-2.2c-.3-.5-.8-.7-1.5-.7s-1.2.2-1.5.7-.4,1.2-.4,2.2.1,1.8.4,2.3Z"/>
    <path class="st17" d="M103.4,65.5h2.8l1.6,7.7h.6l1.7-7.7h2.7l-2.4,10h-4.6s-2.4-10-2.4-10Z"/>
    <path class="st17" d="M116.8,73c.3.3.8.4,1.3.4,1.2,0,2.3,0,3.3-.1h.6v1.9c-1.5.4-2.9.6-4.2.6s-2.6-.4-3.3-1.2c-.7-.8-1-2.1-1-3.9,0-3.6,1.5-5.4,4.4-5.4s4.4,1.5,4.4,4.5l-.2,1.9h-5.9c0,.6.2,1.1.6,1.3h0ZM119.8,69.6c0-.8-.1-1.4-.4-1.7-.3-.3-.7-.5-1.3-.5s-1.1.2-1.3.5c-.3.3-.4.9-.4,1.6l3.4.1h0Z"/>
    <path class="st17" d="M127.8,75.5l3.1-13.6h5.2l3.1,13.6h-2.8l-.5-2.5h-4.8l-.5,2.5h-2.8ZM133,64.2l-1.4,6.5h3.7l-1.4-6.5h-1,.1Z"/>
    <path class="st17" d="M139.6,65.5h2.8l1.6,7.7h.6l1.7-7.7h2.7l-2.4,10h-4.6l-2.4-10h0Z"/>
    <path class="st17" d="M153,73c.3.3.8.4,1.3.4,1.2,0,2.3,0,3.3-.1h.6v1.9c-1.5.4-2.9.6-4.2.6s-2.6-.4-3.3-1.2c-.7-.8-1-2.1-1-3.9,0-3.6,1.5-5.4,4.4-5.4s4.4,1.5,4.4,4.5l-.2,1.9h-5.9c0,.6.2,1.1.6,1.3h0ZM156,69.6c0-.8-.1-1.4-.4-1.7-.3-.3-.7-.5-1.3-.5s-1.1.2-1.3.5c-.3.3-.4.9-.4,1.6h3.5l-.1.1Z"/>
    <path class="st17" d="M160.5,75.5v-10h2.7v1.1c1.1-.7,2.2-1.1,3.2-1.3v2.7c-1.1.2-2,.5-2.8.7h-.4v6.8h-2.7Z"/>
    <path class="st17" d="M175.6,68.6v4.2c0,.3,0,.5.2.7,0,.1.2.2.5.3v2c-.8,0-1.3,0-1.7-.1-.4,0-.8-.3-1.2-.6-1,.5-1.9.7-2.9.7-2.1,0-3.1-1.1-3.1-3.3s.3-1.8.9-2.3c.6-.4,1.5-.7,2.6-.8l2.1-.2v-.6c0-.4,0-.7-.3-.9-.2-.2-.5-.2-.9-.2l-3.8.2v-1.9c1.3-.4,2.7-.6,4-.6s2.2.3,2.8.8.9,1.4.9,2.6h-.1ZM171.1,71.2c-.7,0-1.1.5-1.1,1.2s.3,1.1,1,1.1,1.1,0,1.7-.2h.3v-2.2l-1.9.1h0Z"/>
    <path class="st17" d="M187.2,76.7c0,1.1-.4,2-1.3,2.5s-2.1.8-3.6.8-2.7-.2-3.5-.6-1.2-1.1-1.2-2.2.5-1.6,1.4-2.4c-.5-.3-.7-.8-.7-1.5s.2-.7.6-1.3l.2-.3c-.9-.7-1.4-1.6-1.4-2.9s.4-2.2,1.1-2.8,1.8-.9,3.1-.9,1.1,0,1.7.2h3.5v2.1h-1.5c.3.3.4.8.4,1.2,0,1.3-.3,2.3-1,2.8s-1.7.8-3.2.8-.6,0-.8,0c-.1.3-.2.6-.2.9s.1.4.3.5.8.1,1.6.1c1.7,0,2.8.2,3.4.7s.9,1.2.9,2.4l.2-.1ZM180.3,77c0,.6.7.9,2.1.9s2.1-.3,2.1-1-.1-.6-.4-.7c-.2-.1-.7-.2-1.5-.2h-1.8c-.4.2-.5.6-.5,1h0ZM180.5,68.8c0,1,.5,1.5,1.5,1.5s1.5-.5,1.5-1.5-.5-1.5-1.5-1.5-1.5.5-1.5,1.5Z"/>
    <path class="st17" d="M191.5,73c.3.3.8.4,1.3.4,1.2,0,2.3,0,3.3-.1h.6v1.9c-1.5.4-2.9.6-4.2.6s-2.6-.4-3.3-1.2c-.7-.8-1-2.1-1-3.9,0-3.6,1.5-5.4,4.4-5.4s4.4,1.5,4.4,4.5l-.2,1.9h-5.9c0,.6.2,1.1.6,1.3h0ZM194.5,69.6c0-.8-.1-1.4-.4-1.7-.3-.3-.7-.5-1.3-.5s-1.1.2-1.3.5c-.3.3-.4.9-.4,1.6h3.5l-.1.1Z"/>
  </g>
  <g>
    <circle class="st16" cx="47.7" cy="70.4" r="12"/>
    <g id="Layer_1">
      <path class="st17" d="M47.7,60.6c-2.2,0-4,1.7-4,3.8v5.7c-1.5,1.3-2.3,3.2-2.1,5.1.4,2.7,2.6,4.7,5.3,5,3.5.3,6.7-2.3,6.7-5.7s-.7-3.2-2.1-4.3v-5.6c0-2.2-1.8-4-4-4h.2ZM52.6,74.4c0,2.9-2.7,5-5.6,4.8-2.2-.2-4.1-1.9-4.3-4.2-.2-1.7.5-3.3,1.9-4.3,0,0,.2-.2.2-.4v-5.8c0-1.6,1.3-2.9,2.9-2.9s2.9,1.3,2.9,2.9v5.8q0,.2.2.4c1.2.9,1.8,2.2,1.8,3.7Z"/>
      <path class="st17" d="M49.6,71.8v-6c0-1-.9-1.8-1.9-1.8s-1.9.9-1.9,1.8v6.1c-1.1.8-1.6,2.1-1.3,3.3.5,2.1,3.4,3,5.3,1.7.8-.6,1.3-1.6,1.3-2.4-.1-1.1-.7-2.1-1.5-2.6v-.1ZM49.1,76c-1.3,1-3.2.3-3.5-1.1-.2-1,.2-1.9,1.1-2.4.2,0,.2-.2.2-.4v-6.3c0-.4.4-.9.9-.9s.9.3.9.9v6.3c0,.2,0,.3.2.4.7.4,1.2,1.1,1.2,1.9-.1.5-.4,1.1-.9,1.6h-.1Z"/>
    </g>
  </g>
  <path class="st4" d="M228.8,352.5H40.6c-3.4,0-6.2-3.4-6.2-7.5v-36.3h200.6v36.3c0,4.2-2.7,7.5-6.2,7.5Z"/>
  <rect class="st10" x="35.8" y="179.4" width="200.1" height="43"/>
  <rect class="st3" x="36.2" y="222.3" width="200.1" height="43"/>
  <rect class="st0" x="36" y="265.5" width="200.1" height="43"/>
  <path class="st14" d="M38.8,136.4h192.9c2.3,0,4.1,1.8,4.1,4.1v207.8c0,2.3-1.8,4.1-4.1,4.1H38.8c-2.3,0-4.1-1.8-4.1-4.1v-207.8c0-2.3,1.8-4.1,4.1-4.1Z"/>
  <g>
    <path class="st17" d="M68.9,389.9v-13.6h4.7l3.3,11.2h.2v-11.2h2.8v13.6h-4.5l-3.4-11.2h-.2v11.2h-2.9Z"/>
    <path class="st17" d="M85.1,387.4c.3.3.8.4,1.3.4,1.2,0,2.3,0,3.3-.1h.6v1.9c-1.5.4-2.9.6-4.2.6s-2.6-.4-3.3-1.2c-.7-.8-1-2.1-1-3.9,0-3.6,1.5-5.4,4.4-5.4s4.4,1.5,4.4,4.5l-.2,1.9h-5.9c0,.6.2,1.1.6,1.3h0ZM88,384c0-.8-.1-1.4-.4-1.7-.3-.3-.7-.5-1.3-.5s-1.1.2-1.3.5c-.3.3-.4.9-.4,1.6h3.5l-.1.1Z"/>
    <path class="st17" d="M100.3,383v4.2c0,.3,0,.5.2.7,0,.1.2.2.5.3v2c-.8,0-1.3,0-1.7-.1-.4,0-.8-.3-1.2-.6-1,.5-1.9.7-2.9.7-2.1,0-3.1-1.1-3.1-3.3s.3-1.8.9-2.3c.6-.4,1.5-.7,2.6-.8l2.1-.2v-.6c0-.4,0-.7-.3-.9-.2-.2-.5-.2-.9-.2l-3.8.2v-1.9c1.3-.4,2.7-.6,4-.6s2.2.3,2.8.8.9,1.4.8,2.6h0ZM95.8,385.7c-.7,0-1.1.5-1.1,1.2s.3,1.1,1,1.1,1.1,0,1.7-.2h.3v-2.2l-1.8.2-.1-.1Z"/>
    <path class="st17" d="M102.8,389.9v-10h2.7v1.1c1.1-.7,2.2-1.1,3.2-1.3v2.7c-1.1.2-2,.5-2.8.7h-.4v6.8h-2.7Z"/>
    <path class="st17" d="M113.8,389.9l3.1-13.6h5.2l3.1,13.6h-2.8l-.5-2.5h-4.8l-.5,2.5h-2.8ZM119,378.6l-1.4,6.5h3.7l-1.4-6.5h-1,.1Z"/>
    <path class="st17" d="M125.5,379.9h2.8l1.6,7.7h.6l1.7-7.7h2.7l-2.4,10h-4.6s-2.4-10-2.4-10Z"/>
    <path class="st17" d="M138.9,387.4c.3.3.8.4,1.3.4,1.2,0,2.3,0,3.3-.1h.6v1.9c-1.5.4-2.9.6-4.2.6s-2.6-.4-3.3-1.2c-.7-.8-1-2.1-1-3.9,0-3.6,1.5-5.4,4.4-5.4s4.4,1.5,4.4,4.5l-.2,1.9h-5.9c0,.6.2,1.1.6,1.3h0ZM141.9,384c0-.8-.1-1.4-.4-1.7-.3-.3-.7-.5-1.3-.5s-1.1.2-1.3.5c-.3.3-.4.9-.4,1.6h3.5l-.1.1Z"/>
    <path class="st17" d="M146.4,389.9v-10h2.7v1.1c1.1-.7,2.2-1.1,3.2-1.3v2.7c-1.1.2-2,.5-2.8.7h-.4v6.8h-2.7Z"/>
    <path class="st17" d="M161.5,383v4.2c0,.3,0,.5.2.7,0,.1.2.2.5.3v2c-.8,0-1.3,0-1.7-.1-.4,0-.8-.3-1.2-.6-1,.5-1.9.7-2.9.7-2.1,0-3.1-1.1-3.1-3.3s.3-1.8.9-2.3c.6-.4,1.5-.7,2.6-.8l2.1-.2v-.6c0-.4,0-.7-.3-.9-.2-.2-.5-.2-.9-.2l-3.8.2v-1.9c1.3-.4,2.7-.6,4-.6s2.2.3,2.8.8.9,1.4.9,2.6h-.1ZM157,385.7c-.7,0-1.1.5-1.1,1.2s.3,1.1,1,1.1,1.1,0,1.7-.2h.3v-2.2l-1.8.2-.1-.1Z"/>
    <path class="st17" d="M173.2,391.2c0,1.1-.4,2-1.3,2.5s-2.1.8-3.6.8-2.7-.2-3.5-.6-1.2-1.1-1.2-2.2.5-1.6,1.4-2.4c-.5-.3-.7-.8-.7-1.5s.2-.7.6-1.3l.2-.3c-.9-.7-1.4-1.6-1.4-2.9s.4-2.2,1.1-2.8,1.8-.9,3.1-.9,1.1,0,1.7.2h3.5v2.1h-1.5c.3.3.4.8.4,1.2,0,1.3-.3,2.3-1,2.8s-1.7.8-3.2.8-.6,0-.8,0c-.1.3-.2.6-.2.9s.1.4.3.5.8.1,1.6.1c1.7,0,2.8.2,3.4.7s.9,1.2.9,2.4l.2-.1ZM166.2,391.5c0,.6.7.9,2.1.9s2.1-.3,2.1-1-.1-.6-.4-.7c-.2-.1-.7-.2-1.5-.2h-1.8c-.4.2-.5.6-.5,1h0ZM166.4,383.3c0,1,.5,1.5,1.5,1.5s1.5-.5,1.5-1.5-.5-1.5-1.5-1.5-1.5.5-1.5,1.5Z"/>
    <path class="st17" d="M177.5,387.4c.3.3.8.4,1.3.4,1.2,0,2.3,0,3.3-.1h.6v1.9c-1.5.4-2.9.6-4.2.6s-2.6-.4-3.3-1.2c-.7-.8-1-2.1-1-3.9,0-3.6,1.5-5.4,4.4-5.4s4.4,1.5,4.4,4.5l-.2,1.9h-5.9c0,.6.2,1.1.6,1.3h0ZM180.4,384c0-.8-.1-1.4-.4-1.7-.3-.3-.7-.5-1.3-.5s-1.1.2-1.3.5c-.3.3-.4.9-.4,1.6h3.5l-.1.1Z"/>
  </g>
  <g>
    <circle class="st16" cx="48.4" cy="383.1" r="12"/>
    <g id="Layer_11">
      <path class="st17" d="M48.4,373.2c-2.2,0-4,1.7-4,3.8v5.7c-1.5,1.3-2.3,3.2-2.1,5.1.4,2.7,2.6,4.7,5.3,5,3.5.3,6.7-2.3,6.7-5.7s-.7-3.2-2.1-4.3v-5.6c0-2.2-1.8-4-4-4h.2ZM53.3,387c0,2.9-2.7,5-5.6,4.8-2.2-.2-4.1-1.9-4.3-4.2-.2-1.7.5-3.3,1.9-4.3,0,0,.2-.2.2-.4v-5.8c0-1.6,1.3-2.9,2.9-2.9s2.9,1.3,2.9,2.9v5.8q0,.2.2.4c1.2.9,1.8,2.2,1.8,3.7Z"/>
      <path class="st17" d="M50.2,384.5v-6c0-1-.9-1.8-1.9-1.8s-1.9.9-1.9,1.8v6.1c-1.1.8-1.6,2.1-1.3,3.3.5,2.1,3.4,3,5.3,1.7.8-.6,1.3-1.6,1.3-2.4-.1-1.1-.7-2.1-1.5-2.6v-.1ZM49.8,388.7c-1.3,1-3.2.3-3.5-1.1-.2-1,.2-1.9,1.1-2.4.2,0,.2-.2.2-.4v-6.3c0-.4.4-.9.9-.9s.9.3.9.9v6.3c0,.2,0,.3.2.4.7.4,1.2,1.1,1.2,1.9-.1.5-.4,1.1-.9,1.6h-.1Z"/>
    </g>
  </g>
  <g>
    <path class="st17" d="M66.3,565.6h5.3c1.4,0,2.5.3,3.2.8.7.6,1.1,1.5,1.1,2.8s-.1,1.4-.3,1.8c-.2.4-.6.8-1.2,1.2.6.3,1,.6,1.3,1.1s.4,1.1.4,2c0,1.3-.4,2.3-1.2,2.9-.8.6-1.9,1-3.3,1h-5.4l.1-13.6h0ZM71.5,567.9h-2.4v3.2h2.5c1,0,1.6-.5,1.6-1.6s-.5-1.6-1.7-1.6h0ZM71.6,573.5h-2.5v3.3h2.5c.6,0,1-.1,1.3-.4.3-.2.4-.7.4-1.3,0-1.1-.6-1.6-1.7-1.6h0Z"/>
    <path class="st17" d="M80.9,576.6c.3.3.8.4,1.3.4,1.2,0,2.3,0,3.3-.1h.6v1.9c-1.5.4-2.9.6-4.2.6s-2.6-.4-3.3-1.2c-.7-.8-1-2.1-1-3.9,0-3.6,1.5-5.4,4.4-5.4s4.4,1.5,4.4,4.5l-.2,1.9h-5.9c0,.6.2,1.1.6,1.3h0ZM83.9,573.3c0-.8-.1-1.4-.4-1.7s-.7-.5-1.3-.5-1.1.2-1.3.5c-.3.3-.4.9-.4,1.6l3.4.1h0Z"/>
    <path class="st17" d="M88.6,579.2v-14h2.7v14h-2.7Z"/>
    <path class="st17" d="M94.4,570.3c.7-.9,1.9-1.4,3.5-1.4s2.8.5,3.5,1.4,1.1,2.2,1.1,3.9c0,3.5-1.5,5.3-4.6,5.3s-4.6-1.8-4.6-5.3.4-2.9,1.1-3.9ZM96.4,576.4c.3.5.8.7,1.5.7s1.2-.2,1.5-.7.4-1.2.4-2.3-.1-1.8-.4-2.2c-.3-.5-.8-.7-1.5-.7s-1.2.2-1.5.7-.4,1.2-.4,2.2.1,1.8.4,2.3Z"/>
    <path class="st17" d="M103.7,569.2h2.6l1.2,7.7h.5l1.5-7.5h2.8l1.5,7.5h.5l1.2-7.7h2.6l-1.9,10h-4.2l-1.1-6.1-1.1,6.1h-4.2l-1.9-10Z"/>
    <path class="st17" d="M123.4,579.2l3.1-13.6h5.2l3.1,13.6h-2.8l-.5-2.5h-4.8l-.5,2.5h-2.8ZM128.6,567.9l-1.4,6.5h3.7l-1.4-6.5h-1,.1Z"/>
    <path class="st17" d="M135.1,569.2h2.8l1.6,7.7h.6l1.7-7.7h2.7l-2.4,10h-4.6s-2.4-10-2.4-10Z"/>
    <path class="st17" d="M148.6,576.6c.3.3.8.4,1.3.4,1.2,0,2.3,0,3.3-.1h.6v1.9c-1.5.4-2.9.6-4.2.6s-2.6-.4-3.3-1.2-1-2.1-1-3.9c0-3.6,1.5-5.4,4.4-5.4s4.4,1.5,4.4,4.5l-.2,1.9h-5.9c0,.6.2,1.1.6,1.3h0ZM151.5,573.3c0-.8-.1-1.4-.4-1.7-.3-.3-.7-.5-1.3-.5s-1.1.2-1.3.5c-.3.3-.4.9-.4,1.6h3.5l-.1.1Z"/>
    <path class="st17" d="M156.1,579.2v-10h2.7v1.1c1.1-.7,2.2-1.1,3.2-1.3v2.7c-1.1.2-2,.5-2.8.7h-.4v6.8h-2.7Z"/>
    <path class="st17" d="M171.2,572.3v4.2c0,.3,0,.5.2.7,0,.1.2.2.5.3v2c-.8,0-1.3,0-1.7-.1-.4,0-.8-.3-1.2-.6-1,.5-1.9.7-2.9.7-2.1,0-3.1-1.1-3.1-3.3s.3-1.8.9-2.3c.6-.4,1.5-.7,2.6-.8l2.1-.2v-.6c0-.4,0-.7-.3-.9-.2-.2-.5-.2-.9-.2l-3.8.2v-1.9c1.3-.4,2.7-.6,4-.6s2.2.3,2.8.8.9,1.4.9,2.6h-.1ZM166.7,574.9c-.7,0-1.1.5-1.1,1.2s.3,1.1,1,1.1,1.1,0,1.7-.2h.3v-2.2l-1.8.2-.1-.1Z"/>
    <path class="st17" d="M182.8,580.4c0,1.1-.4,2-1.3,2.5s-2.1.8-3.6.8-2.7-.2-3.5-.6c-.8-.4-1.2-1.1-1.2-2.2s.5-1.6,1.4-2.4c-.5-.3-.7-.8-.7-1.5s.2-.7.6-1.3l.2-.3c-.9-.7-1.4-1.6-1.4-2.9s.4-2.2,1.1-2.8,1.8-.9,3.1-.9,1.1,0,1.7.2h3.5v2.1h-1.5c.3.3.4.8.4,1.2,0,1.3-.3,2.3-1,2.8s-1.7.8-3.2.8-.6,0-.8,0c-.1.3-.2.6-.2.9s.1.4.3.5.8.1,1.6.1c1.7,0,2.8.2,3.4.7.6.4.9,1.2.9,2.4l.2-.1ZM175.9,580.7c0,.6.7.9,2.1.9s2.1-.3,2.1-1-.1-.6-.4-.7c-.2-.1-.7-.2-1.5-.2h-1.8c-.4.2-.5.6-.5,1h0ZM176.1,572.5c0,1,.5,1.5,1.5,1.5s1.5-.5,1.5-1.5-.5-1.5-1.5-1.5-1.5.5-1.5,1.5Z"/>
    <path class="st17" d="M187.1,576.6c.3.3.8.4,1.3.4,1.2,0,2.3,0,3.3-.1h.6v1.9c-1.5.4-2.9.6-4.2.6s-2.6-.4-3.3-1.2-1-2.1-1-3.9c0-3.6,1.5-5.4,4.4-5.4s4.4,1.5,4.4,4.5l-.2,1.9h-5.9c0,.6.2,1.1.6,1.3h0ZM190.1,573.3c0-.8-.1-1.4-.4-1.7-.3-.3-.7-.5-1.3-.5s-1.1.2-1.3.5c-.3.3-.4.9-.4,1.6h3.5l-.1.1Z"/>
  </g>
  <g>
    <circle class="st16" cx="45.4" cy="570.4" r="12"/>
    <g id="Layer_12">
      <path class="st17" d="M45.4,560.6c-2.2,0-4,1.7-4,3.8v5.7c-1.5,1.3-2.3,3.2-2.1,5.1.4,2.7,2.6,4.7,5.3,5,3.5.3,6.7-2.3,6.7-5.7s-.7-3.2-2.1-4.3v-5.6c0-2.2-1.8-4-4-4h.2ZM50.3,574.4c0,2.9-2.7,5-5.6,4.8-2.2-.2-4.1-1.9-4.3-4.2-.2-1.7.5-3.3,1.9-4.3,0,0,.2-.2.2-.4v-5.8c0-1.6,1.3-2.9,2.9-2.9s2.9,1.3,2.9,2.9v5.8q0,.2.2.4c1.2.9,1.8,2.2,1.8,3.7Z"/>
      <path class="st17" d="M47.2,571.8v-6c0-1-.9-1.8-1.9-1.8s-1.9.9-1.9,1.8v6.1c-1.1.8-1.6,2.1-1.3,3.3.5,2.1,3.4,3,5.3,1.7.8-.6,1.3-1.6,1.3-2.4-.1-1.1-.7-2.1-1.5-2.7h0ZM46.8,576c-1.3,1-3.2.3-3.5-1.1-.2-1,.2-1.9,1.1-2.4.2,0,.2-.2.2-.4v-6.3c0-.4.4-.9.9-.9s.9.3.9.9v6.3c0,.2,0,.3.2.4.7.4,1.2,1.1,1.2,1.9-.1.5-.4,1.1-.9,1.6h-.1Z"/>
    </g>
  </g>
  <g>
    <path class="st17" d="M39.7,20.4c-1.5,0-2.2.5-2.2,1.4s.2.8.5,1c.4.2,1.2.6,2.5,1s2.3.9,2.8,1.5.8,1.4.8,2.5-.4,2.5-1.3,3.2c-.9.7-2,1.1-3.4,1.1s-2.3-.2-3.8-.5h-.7c0-.1.3-2.3.3-2.3,1.8.2,3.2.4,4.1.4,1.4,0,2.1-.6,2.1-1.8s-.2-.8-.5-1-1-.5-2-.8c-1.5-.4-2.6-1-3.3-1.6-.6-.6-.9-1.5-.9-2.5s.4-2.4,1.2-3,2-1,3.4-1,2.2.1,3.8.4h.7c0,.1-.2,2.3-.2,2.3-1.9-.3-3.2-.3-3.9-.3h0Z"/>
    <path class="st17" d="M55,31.5c-1.4.3-2.7.5-3.8.5s-2-.1-2.7-.4-1.2-.7-1.6-1.3c-.4-.6-.7-1.3-.8-2.2-.1-.8-.2-1.9-.2-3.1,0-2.6.4-4.5,1.1-5.5s2.1-1.5,4.1-1.5,2.5.2,4,.5v2.2c-1.4-.2-2.5-.3-3.4-.3s-1.5.1-1.9.4c-.4.2-.6.7-.8,1.3-.2.7-.3,1.8-.3,3.3s.2,2.7.6,3.3c.4.6,1.1.9,2.2.9s2.3,0,3.5-.3v2.2h0Z"/>
    <path class="st17" d="M57.2,31.8v-13.7h8.8v2.4h-6v3.2h4.8v2.4h-4.8v3.3h6v2.4h-8.8Z"/>
    <path class="st17" d="M68.3,31.8v-13.7h4.7l3.3,11.2h.2v-11.2h2.8v13.6h-4.5l-3.4-11.2h-.2v11.2h-2.9v.1Z"/>
    <path class="st17" d="M81,31.8l3.1-13.6h5.2l3.1,13.6h-2.8l-.5-2.5h-4.8l-.5,2.5h-2.8ZM86.2,20.5l-1.4,6.5h3.7l-1.4-6.5h-1,.1Z"/>
    <path class="st17" d="M97,27.1v4.6h-2.8v-13.6h5.3c3.2,0,4.8,1.5,4.8,4.5s-.7,3.1-2,3.9l1.9,5.2h-3l-1.6-4.6h-2.6ZM101,24.2c.3-.4.5-.9.5-1.6s-.2-1.2-.5-1.6-.8-.6-1.5-.6h-2.5v4.3h2.6c.7,0,1.1-.2,1.5-.6l-.1.1Z"/>
    <path class="st17" d="M106.6,31.8v-13.7h2.8v13.6h-2.8v.1Z"/>
    <path class="st17" d="M121.7,30.4c-.8,1.1-2.3,1.7-4.4,1.7s-3.5-.6-4.4-1.7c-.8-1.1-1.3-2.9-1.3-5.3s.4-4.2,1.3-5.3,2.3-1.8,4.4-1.8,3.5.6,4.4,1.8c.8,1.2,1.3,2.9,1.3,5.3s-.4,4.1-1.3,5.3ZM115.2,28.5c.4.7,1.1,1,2.2,1s1.8-.3,2.2-1c.4-.7.6-1.9.6-3.5s-.2-2.8-.6-3.6c-.4-.7-1.1-1.1-2.2-1.1s-1.8.4-2.2,1.1c-.4.7-.6,1.9-.6,3.6s.2,2.8.6,3.5Z"/>
    <path class="st17" d="M129.5,20.4c-1.5,0-2.2.5-2.2,1.4s.2.8.5,1c.4.2,1.2.6,2.5,1s2.3.9,2.8,1.5.8,1.4.8,2.5-.4,2.5-1.3,3.2c-.9.7-2,1.1-3.4,1.1s-2.3-.2-3.8-.5h-.7c0-.1.3-2.3.3-2.3,1.8.2,3.2.4,4.1.4,1.4,0,2.1-.6,2.1-1.8s-.2-.8-.5-1-1-.5-2-.8c-1.5-.4-2.6-1-3.3-1.6-.6-.6-.9-1.5-.9-2.5s.4-2.4,1.2-3,2-1,3.4-1,2.2.1,3.8.4h.7c0,.1-.2,2.3-.2,2.3-1.9-.3-3.2-.3-3.9-.3h0Z"/>
    <path class="st17" d="M144.8,20.4c-1.5,0-2.2.5-2.2,1.4s.2.8.5,1c.4.2,1.2.6,2.5,1s2.3.9,2.8,1.5.8,1.4.8,2.5-.4,2.5-1.3,3.2-2,1.1-3.4,1.1-2.3-.2-3.8-.5h-.7c0-.1.3-2.3.3-2.3,1.8.2,3.2.4,4.1.4,1.4,0,2.1-.6,2.1-1.8s-.2-.8-.5-1-1-.5-2-.8c-1.5-.4-2.6-1-3.3-1.6-.6-.6-.9-1.5-.9-2.5s.4-2.4,1.2-3,2-1,3.4-1,2.2.1,3.8.4h.7c0,.1-.2,2.3-.2,2.3-1.9-.3-3.2-.3-3.9-.3h0Z"/>
    <path class="st17" d="M154.2,27.2c0,1.6.8,2.4,2.4,2.4s2.4-.8,2.4-2.4v-9.1h2.8v9c0,1.7-.4,2.9-1.3,3.7-.9.8-2.2,1.2-3.9,1.2s-3-.4-3.9-1.2c-.9-.8-1.3-2-1.3-3.7v-9h2.8v9.1Z"/>
    <path class="st17" d="M164.6,31.8v-13.7h4.7l2.4,9.9,2.4-9.9h4.7v13.6h-2.8v-10.5h-.3l-2.7,9.9h-2.8l-2.7-9.9h-.3v10.5h-2.8.2v.1Z"/>
    <path class="st17" d="M181.8,31.8v-13.7h4.7l2.4,9.9,2.4-9.9h4.7v13.6h-2.8v-10.5h-.3l-2.7,9.9h-2.8l-2.7-9.9h-.3v10.5h-2.8.2v.1Z"/>
    <path class="st17" d="M197.8,31.8l3.1-13.6h5.2l3.1,13.6h-2.8l-.5-2.5h-4.8l-.5,2.5h-2.8ZM203,20.5l-1.4,6.5h3.7l-1.4-6.5h-.9Z"/>
    <path class="st17" d="M213.7,27.1v4.6h-2.8v-13.6h5.3c3.2,0,4.8,1.5,4.8,4.5s-.7,3.1-2,3.9l1.9,5.2h-3l-1.6-4.6h-2.7.1ZM217.7,24.2c.3-.4.5-.9.5-1.6s-.2-1.2-.5-1.6-.8-.6-1.5-.6h-2.5v4.3h2.6c.7,0,1.1-.2,1.5-.6l-.1.1Z"/>
    <path class="st17" d="M228.4,31.8h-2.8v-5.5l-4.2-8.1h3.1l2.5,5.4,2.5-5.4h3.1l-4.2,8.1v5.5h0Z"/>
  </g>
  <rect class="st15" x="34.7" y="131.8" width="200.7" height="43"/>
  <g class="st5">
    <g class="st5">
      <path class="st17" d="M60.21,162.2l2.45-10.88h4.19l2.45,10.88h-2.21l-.43-1.97h-3.81l-.43,1.97h-2.21ZM64.37,153.14l-1.1,5.17h2.98l-1.1-5.17h-.77Z"/>
      <path class="st17" d="M70.65,162.2v-11.2h2.14v11.2h-2.14Z"/>
      <path class="st17" d="M77.02,162.2h-2.14v-8h2.13v.45c.74-.43,1.37-.64,1.89-.64.86,0,1.53.25,2,.75.98-.5,1.88-.75,2.69-.75,1.06,0,1.79.31,2.2.92.41.61.62,1.59.62,2.94v4.34h-2.14v-4.27c0-.68-.07-1.19-.22-1.51s-.45-.49-.9-.49c-.34,0-.76.08-1.25.22l-.24.08c.04.8.06,1.41.06,1.82v4.14h-2.14v-4.11c0-.79-.07-1.35-.21-1.67-.14-.33-.44-.49-.91-.49-.42,0-.83.08-1.23.22l-.19.06v5.98Z"/>
      <path class="st17" d="M88.73,155.1c.57-.73,1.51-1.1,2.83-1.1s2.27.37,2.83,1.1.85,1.76.85,3.08c0,2.8-1.23,4.21-3.68,4.21s-3.68-1.4-3.68-4.21c0-1.32.28-2.35.85-3.08ZM90.39,159.99c.22.38.61.58,1.18.58s.96-.19,1.18-.58c.22-.38.33-.99.33-1.81s-.11-1.42-.33-1.79c-.22-.37-.61-.56-1.18-.56s-.96.19-1.18.56c-.22.37-.33.97-.33,1.79s.11,1.42.33,1.81Z"/>
      <path class="st17" d="M102.56,156.2c-1.32-.17-2.25-.26-2.78-.26s-.87.05-1.02.14c-.15.1-.23.25-.23.46s.1.35.31.43.74.2,1.6.35c.86.16,1.47.41,1.83.76.36.35.54.92.54,1.71,0,1.73-1.07,2.59-3.22,2.59-.7,0-1.56-.1-2.56-.29l-.51-.1.06-1.79c1.32.17,2.24.26,2.76.26s.87-.05,1.06-.15.28-.25.28-.46-.1-.35-.3-.45-.71-.21-1.54-.35c-.83-.14-1.44-.37-1.85-.7-.41-.33-.61-.92-.61-1.77s.29-1.49.86-1.92c.58-.43,1.32-.65,2.22-.65.63,0,1.49.1,2.58.3l.53.1-.03,1.78Z"/>
      <path class="st17" d="M108.8,156.02h-1.97v3.28c0,.32,0,.55.02.68s.07.25.18.34c.1.1.26.14.47.14l1.22-.03.1,1.71c-.71.16-1.26.24-1.63.24-.96,0-1.62-.22-1.97-.65s-.53-1.23-.53-2.39v-3.33h-.94v-1.82h.94v-2.22h2.14v2.22h1.97v1.82Z"/>
    </g>
    <g class="st5">
      <path class="st17" d="M116.72,154c.55,0,1.26.09,2.13.26l.43.1-.06,1.7c-.84-.09-1.47-.13-1.87-.13-.74,0-1.22.16-1.46.47-.24.31-.36.91-.36,1.78s.12,1.47.36,1.8c.24.33.73.49,1.48.49l1.86-.13.06,1.71c-1.14.22-2.01.34-2.61.34-1.18,0-2.03-.33-2.55-1-.52-.67-.78-1.74-.78-3.21s.27-2.54.8-3.19c.53-.66,1.39-.98,2.58-.98Z"/>
    </g>
    <g class="st5">
      <path class="st17" d="M122.98,160.17c.25.22.61.33,1.08.33.99,0,1.88-.03,2.66-.1l.45-.05.03,1.58c-1.23.3-2.34.45-3.33.45-1.21,0-2.08-.32-2.62-.96-.54-.64-.82-1.68-.82-3.12,0-2.87,1.18-4.3,3.54-4.3s3.49,1.21,3.49,3.62l-.16,1.49h-4.7c.01.49.14.85.39,1.06ZM125.34,157.48c0-.64-.1-1.09-.3-1.34-.2-.25-.56-.38-1.06-.38s-.86.13-1.07.39c-.21.26-.32.7-.33,1.32h2.77Z"/>
      <path class="st17" d="M128.99,162.2v-8h2.13v.85c.9-.53,1.75-.88,2.56-1.04v2.16c-.86.18-1.61.37-2.22.56l-.32.11v5.36h-2.14Z"/>
      <path class="st17" d="M139.37,156.02h-1.97v3.28c0,.32,0,.55.02.68.02.13.08.25.18.34.1.1.26.14.47.14l1.22-.03.1,1.71c-.71.16-1.26.24-1.63.24-.96,0-1.62-.22-1.97-.65-.35-.43-.53-1.23-.53-2.39v-3.33h-.94v-1.82h.94v-2.22h2.14v2.22h1.97v1.82Z"/>
      <path class="st17" d="M146.89,156.69v3.33c.02.26.06.43.13.54.06.1.2.17.4.22l-.06,1.62c-.54,0-.98-.04-1.3-.11-.33-.08-.65-.22-.98-.45-.77.37-1.55.56-2.35.56-1.65,0-2.48-.88-2.48-2.62,0-.85.23-1.46.69-1.82.46-.36,1.16-.57,2.11-.63l1.71-.13v-.5c0-.33-.08-.56-.22-.68-.15-.12-.39-.18-.72-.18l-3.01.13-.06-1.49c1.14-.31,2.23-.46,3.26-.46s1.77.21,2.22.64c.45.43.68,1.11.68,2.05ZM143.29,158.8c-.6.05-.9.37-.9.96s.26.88.78.88c.41,0,.85-.06,1.33-.19l.24-.06v-1.71l-1.46.13Z"/>
      <path class="st17" d="M148.94,153.17v-2.18h2.14v2.18h-2.14ZM148.94,162.2v-8h2.14v8h-2.14Z"/>
      <path class="st17" d="M155.21,162.2h-2.14v-8h2.13v.45c.73-.43,1.39-.64,2-.64,1.07,0,1.8.32,2.21.94.41.63.61,1.6.61,2.91v4.34h-2.14v-4.27c0-.68-.08-1.19-.24-1.51-.16-.33-.48-.49-.96-.49-.44,0-.86.08-1.26.22l-.19.06v5.98Z"/>
      <path class="st17" d="M167.9,153.78c-.33,1.46-.49,2.66-.49,3.6s.13,1.98.38,3.11.51,2.03.77,2.7l.37,1.01h-2.03c-.15-.23-.35-.63-.59-1.18-.25-.55-.45-1.08-.62-1.58-.17-.5-.31-1.12-.45-1.86-.13-.74-.2-1.47-.2-2.18s.06-1.45.19-2.21c.13-.76.28-1.42.46-1.98.38-1.19.72-2.07,1.01-2.62l.19-.37h2.03c-.36.93-.71,2.12-1.03,3.58Z"/>
      <path class="st17" d="M174.95,158.13l-4.18-1.58v-2.18l6.5,2.93v1.76l-6.5,2.98v-2.18l4.18-1.73Z"/>
      <path class="st17" d="M182.3,160.47c1.42,0,2.13-.86,2.13-2.59l-.34.11c-.74.25-1.3.37-1.68.37-1.16,0-2.06-.28-2.69-.85-.63-.56-.94-1.4-.94-2.52s.35-1.98,1.04-2.61,1.68-.94,2.95-.94,2.25.47,2.92,1.42,1.01,2.35,1.01,4.21-.37,3.21-1.12,4.06c-.75.84-1.84,1.26-3.28,1.26-.83,0-1.72-.12-2.67-.35l-.5-.11.19-1.7c1.09.16,2.08.24,2.98.24ZM182.6,156.44c.49,0,1.02-.1,1.58-.29l.26-.08c0-1.8-.6-2.7-1.79-2.7-.51,0-.91.14-1.18.42-.28.28-.42.68-.42,1.19,0,.97.52,1.46,1.55,1.46Z"/>
      <path class="st17" d="M188.7,152.75c.69-.87,1.71-1.31,3.06-1.31s2.38.44,3.06,1.31c.69.88,1.03,2.28,1.03,4.22s-.34,3.32-1.02,4.16c-.68.84-1.71,1.26-3.07,1.26s-2.39-.42-3.07-1.26c-.68-.84-1.02-2.22-1.02-4.16s.34-3.34,1.03-4.22ZM193.59,156.92c0-1.32-.14-2.24-.42-2.77-.28-.53-.74-.79-1.4-.79s-1.13.27-1.41.8c-.28.53-.42,1.46-.42,2.77s.14,2.23.43,2.75.76.78,1.41.78,1.11-.26,1.39-.78c.28-.52.42-1.44.42-2.76Z"/>
      <path class="st17" d="M196.47,153.77c0-1.55.64-2.33,1.92-2.33s1.92.78,1.92,2.33-.64,2.33-1.92,2.33-1.92-.78-1.92-2.33ZM198.11,152.96c-.05.16-.07.42-.07.81s.02.66.07.82.14.24.28.24.23-.08.28-.24c.05-.16.07-.43.07-.82s-.02-.65-.07-.81c-.05-.15-.14-.23-.28-.23s-.23.08-.28.23ZM198.25,162.32l3.76-11.31,1.17.42-3.76,11.28-1.17-.38ZM201.14,160.06c0-1.55.64-2.33,1.92-2.33s1.92.78,1.92,2.33-.64,2.33-1.92,2.33-1.92-.78-1.92-2.33ZM202.78,159.24c-.05.16-.07.42-.07.81s.02.66.07.82.14.24.28.24.23-.08.28-.24c.05-.16.07-.43.07-.82s-.02-.65-.07-.81c-.05-.15-.14-.23-.28-.23s-.23.08-.28.23Z"/>
      <path class="st17" d="M209.33,155.16c.13.77.2,1.51.2,2.22s-.06,1.44-.19,2.17c-.13.73-.28,1.36-.46,1.9-.38,1.12-.72,1.92-1.01,2.42l-.19.34h-2.03c.36-.82.71-1.93,1.03-3.32.33-1.39.49-2.56.49-3.5s-.12-2.01-.38-3.21c-.25-1.2-.5-2.16-.76-2.89l-.38-1.09h2.03c.15.27.35.7.59,1.3.25.6.45,1.17.62,1.7.17.53.31,1.18.45,1.95Z"/>
    </g>
  </g>
  <rect class="st15" x="34.7" y="177.2" width="200.7" height="36"/>
  <g class="st5">
    <g class="st5">
      <path class="st17" d="M81.56,196.77h2.32l-2.53,10.88h-4.08l-2.53-10.88h2.32l1.89,8.96h.72l1.89-8.96Z"/>
    </g>
    <g class="st5">
      <path class="st17" d="M86.83,205.62c.25.22.61.33,1.08.33.99,0,1.88-.03,2.66-.1l.45-.05.03,1.58c-1.23.3-2.34.45-3.33.45-1.21,0-2.08-.32-2.62-.96-.54-.64-.82-1.68-.82-3.12,0-2.87,1.18-4.3,3.54-4.3s3.49,1.21,3.49,3.62l-.16,1.49h-4.7c.01.49.14.85.39,1.06ZM89.19,202.93c0-.64-.1-1.09-.3-1.34-.2-.25-.56-.38-1.06-.38s-.86.13-1.07.39c-.21.26-.32.7-.33,1.32h2.77Z"/>
      <path class="st17" d="M92.84,207.65v-8h2.13v.85c.9-.53,1.75-.88,2.56-1.04v2.16c-.86.18-1.61.37-2.22.56l-.32.11v5.36h-2.14Z"/>
      <path class="st17" d="M98.05,199.65h2.11l1.46,6.18h.37l1.46-6.18h2.11l-2.82,11.36h-2.1l.88-3.36h-1.5l-1.97-8Z"/>
      <path class="st17" d="M110.4,207.65v-11.2h2.14v11.2h-2.14Z"/>
      <path class="st17" d="M114.63,198.62v-2.18h2.14v2.18h-2.14ZM114.63,207.65v-8h2.14v8h-2.14Z"/>
    </g>
    <g class="st5">
      <path class="st17" d="M120.92,207.65h-2.14v-11.2h2.14v6.37l.82-.14,1.58-3.02h2.4l-2.08,3.79,2.19,4.21h-2.42l-1.62-3.12-.88.14v2.98Z"/>
    </g>
    <g class="st5">
      <path class="st17" d="M129.03,205.62c.25.22.61.33,1.08.33.99,0,1.88-.03,2.66-.1l.45-.05.03,1.58c-1.23.3-2.34.45-3.33.45-1.21,0-2.08-.32-2.62-.96-.54-.64-.82-1.68-.82-3.12,0-2.87,1.18-4.3,3.54-4.3s3.49,1.21,3.49,3.62l-.16,1.49h-4.7c.01.49.14.85.39,1.06ZM131.39,202.93c0-.64-.1-1.09-.3-1.34-.2-.25-.56-.38-1.06-.38s-.86.13-1.07.39c-.21.26-.32.7-.33,1.32h2.77Z"/>
      <path class="st17" d="M135.13,207.65v-11.2h2.14v11.2h-2.14Z"/>
      <path class="st17" d="M138.62,199.65h2.11l1.46,6.18h.37l1.46-6.18h2.11l-2.82,11.36h-2.1l.88-3.36h-1.5l-1.97-8Z"/>
      <path class="st17" d="M153.35,199.23c-.33,1.46-.49,2.66-.49,3.6s.13,1.98.38,3.11.51,2.03.77,2.7l.37,1.01h-2.03c-.15-.23-.35-.63-.59-1.18-.25-.55-.45-1.08-.62-1.58-.17-.5-.31-1.12-.45-1.86-.13-.74-.2-1.47-.2-2.18s.06-1.45.19-2.21c.13-.76.28-1.42.46-1.98.38-1.19.72-2.07,1.01-2.62l.19-.37h2.03c-.36.93-.71,2.12-1.03,3.58Z"/>
      <path class="st17" d="M160.4,203.58l-4.18-1.58v-2.18l6.5,2.93v1.76l-6.5,2.98v-2.18l4.18-1.73Z"/>
      <path class="st17" d="M165.44,197.65c.69-.51,1.62-.76,2.78-.76s2.1.26,2.82.77c.71.51,1.07,1.22,1.07,2.13,0,.62-.08,1.08-.22,1.39s-.46.65-.93,1.02c.47.4.81.77,1.01,1.12.2.35.3.84.3,1.46,0,1.05-.37,1.82-1.12,2.31-.75.5-1.72.74-2.93.74-2.67,0-4-.96-4-2.88,0-.68.1-1.21.31-1.59.21-.38.55-.76,1.02-1.16-.45-.36-.75-.72-.91-1.06-.16-.35-.24-.8-.24-1.37,0-.91.35-1.61,1.04-2.12ZM166.59,204.45c0,.94.55,1.41,1.66,1.41s1.66-.47,1.66-1.41c0-.55-.31-.95-.94-1.2h-1.41c-.64.25-.96.65-.96,1.2ZM168.25,198.88c-.48,0-.85.11-1.1.32-.26.21-.38.54-.38.98s.26.84.78,1.2h1.41c.52-.36.78-.78.78-1.25,0-.83-.5-1.25-1.49-1.25Z"/>
      <path class="st17" d="M174.15,198.21c.69-.87,1.71-1.31,3.06-1.31s2.38.44,3.06,1.31c.69.88,1.03,2.28,1.03,4.22s-.34,3.32-1.02,4.16c-.68.84-1.71,1.26-3.07,1.26s-2.39-.42-3.07-1.26c-.68-.84-1.02-2.22-1.02-4.16s.34-3.34,1.03-4.22ZM179.04,202.37c0-1.32-.14-2.24-.42-2.77s-.74-.79-1.4-.79-1.12.27-1.41.8c-.28.53-.42,1.46-.42,2.77s.14,2.23.43,2.75.76.78,1.41.78,1.11-.26,1.39-.78.42-1.44.42-2.76Z"/>
      <path class="st17" d="M181.92,199.22c0-1.55.64-2.33,1.92-2.33s1.92.78,1.92,2.33-.64,2.33-1.92,2.33-1.92-.78-1.92-2.33ZM183.56,198.41c-.05.16-.07.42-.07.81s.02.66.07.82c.05.16.14.24.28.24s.23-.08.28-.24.07-.43.07-.82-.02-.65-.07-.81c-.05-.15-.14-.23-.28-.23s-.23.08-.28.23ZM183.69,207.77l3.76-11.31,1.17.42-3.76,11.28-1.17-.38ZM186.59,205.51c0-1.55.64-2.33,1.92-2.33s1.92.78,1.92,2.33-.64,2.33-1.92,2.33-1.92-.78-1.92-2.33ZM188.23,204.69c-.05.16-.07.42-.07.81s.02.66.07.82c.05.16.14.24.28.24s.23-.08.28-.24.07-.43.07-.82-.02-.65-.07-.81c-.05-.15-.14-.23-.28-.23s-.23.08-.28.23Z"/>
      <path class="st17" d="M194.77,200.61c.13.77.2,1.51.2,2.22s-.06,1.44-.19,2.17c-.13.73-.28,1.36-.46,1.9-.38,1.12-.72,1.92-1.01,2.42l-.19.34h-2.03c.36-.82.71-1.93,1.03-3.32.33-1.39.49-2.56.49-3.5s-.13-2.01-.38-3.21c-.25-1.2-.5-2.16-.76-2.89l-.38-1.09h2.03c.15.27.35.7.59,1.3.25.6.45,1.17.62,1.7.17.53.31,1.18.45,1.95Z"/>
    </g>
  </g>
  <rect class="st15" x="35.5" y="219.7" width="200.7" height="36"/>
  <g class="st5">
    <g class="st5">
      <path class="st17" d="M98.48,250.09h-6.19v-10.88h2.21v8.93h3.98v1.95Z"/>
      <path class="st17" d="M99.65,241.06v-2.18h2.14v2.18h-2.14ZM99.65,250.09v-8h2.14v8h-2.14Z"/>
    </g>
    <g class="st5">
      <path class="st17" d="M105.94,250.09h-2.14v-11.2h2.14v6.37l.82-.14,1.58-3.02h2.4l-2.08,3.79,2.19,4.21h-2.42l-1.62-3.12-.88.14v2.98Z"/>
    </g>
    <g class="st5">
      <path class="st17" d="M114.05,248.06c.25.22.61.33,1.08.33.99,0,1.88-.03,2.66-.1l.45-.05.03,1.58c-1.23.3-2.34.45-3.33.45-1.21,0-2.08-.32-2.62-.96-.54-.64-.82-1.68-.82-3.12,0-2.87,1.18-4.3,3.54-4.3s3.49,1.21,3.49,3.62l-.16,1.49h-4.7c.01.49.14.85.39,1.06ZM116.41,245.37c0-.64-.1-1.09-.3-1.34-.2-.25-.56-.38-1.06-.38s-.86.13-1.07.39c-.21.26-.32.7-.33,1.32h2.77Z"/>
      <path class="st17" d="M120.15,250.09v-11.2h2.14v11.2h-2.14Z"/>
      <path class="st17" d="M123.64,242.09h2.11l1.46,6.18h.37l1.46-6.18h2.11l-2.82,11.36h-2.1l.88-3.36h-1.5l-1.97-8Z"/>
      <path class="st17" d="M138.37,241.67c-.33,1.46-.49,2.66-.49,3.6s.13,1.98.38,3.11.51,2.03.77,2.7l.37,1.01h-2.03c-.15-.23-.35-.63-.59-1.18-.25-.55-.45-1.08-.62-1.58-.17-.5-.31-1.12-.45-1.86-.13-.74-.2-1.47-.2-2.18s.06-1.45.19-2.21c.13-.76.28-1.42.46-1.98.38-1.19.72-2.07,1.01-2.62l.19-.37h2.03c-.36.93-.71,2.12-1.03,3.58Z"/>
      <path class="st17" d="M145.42,246.02l-4.18-1.58v-2.18l6.5,2.93v1.76l-6.5,2.98v-2.18l4.18-1.73Z"/>
      <path class="st17" d="M156.73,241.5c-1.09-.16-2.03-.24-2.83-.24-1.51,0-2.27.82-2.27,2.46l.34-.1c.7-.2,1.26-.3,1.68-.3,1.21,0,2.11.28,2.72.83.61.55.91,1.42.91,2.58s-.34,2.05-1.02,2.65c-.68.6-1.67.9-2.97.9s-2.27-.47-2.94-1.42c-.66-.94-.99-2.33-.99-4.17s.38-3.19,1.14-4.06c.76-.87,1.85-1.3,3.26-1.3.83,0,1.72.12,2.67.35l.5.11-.19,1.7ZM153.45,245.24c-.5,0-1.02.09-1.57.27l-.27.08c0,1.85.6,2.77,1.79,2.77.51,0,.91-.14,1.18-.42.28-.28.42-.68.42-1.19,0-1-.52-1.5-1.55-1.5Z"/>
      <path class="st17" d="M165.59,239.53v1.92h-4.72l-.27,2.29c.66-.26,1.29-.38,1.89-.38,2.28,0,3.42,1.06,3.42,3.18,0,1.19-.32,2.12-.94,2.77-.63.65-1.52.98-2.67.98-.49,0-1.05-.05-1.67-.14s-1.12-.2-1.5-.3l-.58-.14.24-1.63c1.29.2,2.37.3,3.23.3.52,0,.92-.14,1.2-.42s.42-.67.42-1.19-.12-.89-.35-1.13c-.24-.23-.57-.35-.99-.35-.71,0-1.34.07-1.89.21l-.24.06-1.31-.3.29-5.71h6.45Z"/>
      <path class="st17" d="M166.93,241.67c0-1.55.64-2.33,1.92-2.33s1.92.78,1.92,2.33-.64,2.33-1.92,2.33-1.92-.78-1.92-2.33ZM168.57,240.85c-.05.16-.07.42-.07.81s.02.66.07.82c.05.16.14.24.28.24s.23-.08.28-.24.07-.43.07-.82-.02-.65-.07-.81c-.05-.15-.14-.23-.28-.23s-.23.08-.28.23ZM168.71,250.22l3.76-11.31,1.17.42-3.76,11.28-1.17-.38ZM171.61,247.95c0-1.55.64-2.33,1.92-2.33s1.92.78,1.92,2.33-.64,2.33-1.92,2.33-1.92-.78-1.92-2.33ZM173.25,247.14c-.05.16-.07.42-.07.81s.02.66.07.82c.05.16.14.24.28.24s.23-.08.28-.24.07-.43.07-.82-.02-.65-.07-.81c-.05-.15-.14-.23-.28-.23s-.23.08-.28.23Z"/>
      <path class="st17" d="M179.79,243.05c.13.77.2,1.51.2,2.22s-.06,1.44-.19,2.17c-.13.73-.28,1.36-.46,1.9-.38,1.12-.72,1.92-1.01,2.42l-.19.34h-2.03c.36-.82.71-1.93,1.03-3.32.33-1.39.49-2.56.49-3.5s-.13-2.01-.38-3.21c-.25-1.2-.5-2.16-.76-2.89l-.38-1.09h2.03c.15.27.35.7.59,1.3.25.6.45,1.17.62,1.7.17.53.31,1.18.45,1.95Z"/>
    </g>
  </g>
  <rect class="st15" x="36.2" y="262.1" width="200.4" height="36"/>
  <g class="st5">
    <g class="st5">
      <path class="st16" d="M78.08,292.72c-1.66,0-2.83-.45-3.5-1.34-.67-.9-1.01-2.31-1.01-4.23s.34-3.35,1.02-4.29c.68-.93,1.84-1.4,3.5-1.4s2.82.47,3.5,1.4,1.02,2.37,1.02,4.3c0,2.37-.56,3.96-1.68,4.78l1.33,2.14-2.02.94-1.44-2.35c-.11.03-.34.05-.7.05ZM76.32,289.97c.31.55.9.83,1.77.83s1.45-.28,1.77-.83.47-1.49.47-2.82-.16-2.28-.48-2.88c-.32-.6-.91-.9-1.76-.9s-1.44.3-1.76.9-.48,1.56-.48,2.88.16,2.26.47,2.82Z"/>
      <path class="st16" d="M89.01,284.53h2.14v8h-2.13v-.45c-.77.43-1.43.64-2,.64-1.11,0-1.86-.31-2.24-.92-.38-.61-.58-1.64-.58-3.08v-4.19h2.14v4.22c0,.79.06,1.33.19,1.62s.44.43.93.43.91-.08,1.33-.22l.21-.06v-5.98Z"/>
      <path class="st16" d="M93.14,283.51v-2.18h2.14v2.18h-2.14ZM93.14,292.53v-8h2.14v8h-2.14Z"/>
      <path class="st16" d="M101.7,286.36h-1.97v3.28c0,.32,0,.55.02.68s.07.25.18.34c.1.1.26.14.47.14l1.22-.03.1,1.71c-.71.16-1.26.24-1.63.24-.96,0-1.62-.22-1.97-.65s-.53-1.23-.53-2.39v-3.33h-.94v-1.82h.94v-2.22h2.14v2.22h1.97v1.82Z"/>
      <path class="st16" d="M105.24,290.51c.25.22.61.33,1.08.33.99,0,1.88-.03,2.66-.1l.45-.05.03,1.58c-1.23.3-2.34.45-3.33.45-1.21,0-2.08-.32-2.62-.96-.54-.64-.82-1.68-.82-3.12,0-2.87,1.18-4.3,3.54-4.3s3.49,1.21,3.49,3.62l-.16,1.49h-4.7c.01.49.14.85.39,1.06ZM107.6,287.81c0-.64-.1-1.09-.3-1.34-.2-.25-.56-.38-1.06-.38s-.86.13-1.07.39c-.21.26-.32.7-.33,1.32h2.77Z"/>
      <path class="st16" d="M114.87,292.53v-11.2h2.14v11.2h-2.14Z"/>
      <path class="st16" d="M119.09,283.51v-2.18h2.14v2.18h-2.14ZM119.09,292.53v-8h2.14v8h-2.14Z"/>
    </g>
    <g class="st5">
      <path class="st16" d="M125.4,292.53h-2.14v-11.2h2.14v6.37l.82-.14,1.58-3.02h2.4l-2.08,3.79,2.19,4.21h-2.42l-1.62-3.12-.88.14v2.98Z"/>
    </g>
    <g class="st5">
      <path class="st16" d="M133.51,290.51c.25.22.61.33,1.08.33.99,0,1.88-.03,2.66-.1l.45-.05.03,1.58c-1.23.3-2.34.45-3.33.45-1.21,0-2.08-.32-2.62-.96-.54-.64-.82-1.68-.82-3.12,0-2.87,1.18-4.3,3.54-4.3s3.49,1.21,3.49,3.62l-.16,1.49h-4.7c.01.49.14.85.39,1.06ZM135.87,287.81c0-.64-.1-1.09-.3-1.34-.2-.25-.56-.38-1.06-.38s-.86.13-1.07.39c-.21.26-.32.7-.33,1.32h2.77Z"/>
      <path class="st16" d="M139.62,292.53v-11.2h2.14v11.2h-2.14Z"/>
      <path class="st16" d="M143.1,284.53h2.11l1.46,6.18h.37l1.46-6.18h2.11l-2.82,11.36h-2.1l.88-3.36h-1.5l-1.97-8Z"/>
      <path class="st16" d="M157.83,284.12c-.33,1.46-.49,2.66-.49,3.6s.13,1.98.38,3.11c.26,1.14.51,2.03.77,2.7l.37,1.01h-2.03c-.15-.23-.35-.63-.59-1.18-.25-.55-.45-1.08-.62-1.58-.17-.5-.31-1.12-.45-1.86s-.2-1.47-.2-2.18.06-1.45.19-2.21c.13-.76.28-1.42.46-1.98.38-1.19.72-2.07,1.01-2.62l.19-.37h2.03c-.36.93-.71,2.12-1.03,3.58Z"/>
      <path class="st16" d="M164.88,288.47l-4.18-1.58v-2.18l6.5,2.93v1.76l-6.5,2.98v-2.18l4.18-1.73Z"/>
      <path class="st16" d="M176.1,281.97v1.92h-4.72l-.27,2.29c.66-.26,1.29-.38,1.89-.38,2.28,0,3.42,1.06,3.42,3.18,0,1.19-.31,2.12-.94,2.77-.63.65-1.52.98-2.67.98-.49,0-1.05-.05-1.67-.14s-1.12-.2-1.5-.3l-.58-.14.24-1.63c1.29.2,2.37.3,3.23.3.52,0,.92-.14,1.2-.42.28-.28.42-.67.42-1.19s-.12-.89-.35-1.13-.57-.35-.99-.35c-.71,0-1.34.07-1.89.21l-.24.06-1.31-.3.29-5.71h6.45Z"/>
      <path class="st16" d="M178.63,283.09c.69-.87,1.71-1.31,3.06-1.31s2.38.44,3.06,1.31c.69.88,1.03,2.28,1.03,4.22s-.34,3.32-1.02,4.16c-.68.84-1.71,1.26-3.07,1.26s-2.39-.42-3.07-1.26c-.68-.84-1.02-2.22-1.02-4.16s.34-3.34,1.03-4.22ZM183.52,287.26c0-1.32-.14-2.24-.42-2.77-.28-.53-.74-.79-1.4-.79s-1.13.27-1.41.8c-.28.53-.42,1.46-.42,2.77s.14,2.23.43,2.75.76.78,1.41.78,1.11-.26,1.39-.78c.28-.52.42-1.44.42-2.76Z"/>
      <path class="st16" d="M186.4,284.11c0-1.55.64-2.33,1.92-2.33s1.92.78,1.92,2.33-.64,2.33-1.92,2.33-1.92-.78-1.92-2.33ZM188.04,283.29c-.05.16-.07.42-.07.81s.02.66.07.82.14.24.28.24.23-.08.28-.24c.05-.16.07-.43.07-.82s-.02-.65-.07-.81c-.05-.15-.14-.23-.28-.23s-.23.08-.28.23ZM188.18,292.66l3.76-11.31,1.17.42-3.76,11.28-1.17-.38ZM191.07,290.4c0-1.55.64-2.33,1.92-2.33s1.92.78,1.92,2.33-.64,2.33-1.92,2.33-1.92-.78-1.92-2.33ZM192.71,289.58c-.05.16-.07.42-.07.81s.02.66.07.82.14.24.28.24.23-.08.28-.24c.05-.16.07-.43.07-.82s-.02-.65-.07-.81c-.05-.15-.14-.23-.28-.23s-.23.08-.28.23Z"/>
      <path class="st16" d="M199.26,285.49c.13.77.2,1.51.2,2.22s-.06,1.44-.19,2.17c-.13.73-.28,1.36-.46,1.9-.38,1.12-.72,1.92-1.01,2.42l-.19.34h-2.03c.36-.82.71-1.93,1.03-3.32.33-1.39.49-2.56.49-3.5s-.12-2.01-.38-3.21c-.25-1.2-.5-2.16-.76-2.89l-.38-1.09h2.03c.15.27.35.7.59,1.3.25.6.45,1.17.62,1.7.17.53.31,1.18.45,1.95Z"/>
    </g>
  </g>
  <rect class="st15" x="36.2" y="305" width="200.4" height="36"/>
  <g class="st5">
    <path class="st16" d="M87.85,332.25h-1.79v3.17h-2.21v-10.88h4c2.58,0,3.87,1.26,3.87,3.78,0,1.27-.33,2.24-.98,2.92-.66.68-1.62,1.02-2.89,1.02ZM86.05,330.37h1.78c1.1,0,1.65-.68,1.65-2.05,0-.67-.13-1.16-.4-1.45-.27-.29-.68-.44-1.25-.44h-1.78v3.94Z"/>
    <path class="st16" d="M93.51,328.33c.57-.73,1.51-1.1,2.83-1.1s2.27.37,2.83,1.1.85,1.76.85,3.08c0,2.8-1.23,4.21-3.68,4.21s-3.68-1.4-3.68-4.21c0-1.32.28-2.35.85-3.08ZM95.17,333.21c.22.38.61.58,1.18.58s.96-.19,1.18-.58c.22-.38.33-.99.33-1.81s-.11-1.42-.33-1.79c-.22-.37-.61-.56-1.18-.56s-.96.19-1.18.56c-.22.37-.33.97-.33,1.79s.11,1.42.33,1.81Z"/>
    <path class="st16" d="M107.33,329.42c-1.32-.17-2.25-.26-2.78-.26s-.87.05-1.02.14c-.15.1-.23.25-.23.46s.1.35.31.43.74.2,1.6.35c.86.16,1.47.41,1.83.76.36.35.54.92.54,1.71,0,1.73-1.07,2.59-3.22,2.59-.7,0-1.56-.1-2.56-.29l-.51-.1.06-1.79c1.32.17,2.24.26,2.76.26s.87-.05,1.06-.15.28-.25.28-.46-.1-.35-.3-.45-.71-.21-1.54-.35c-.83-.14-1.44-.37-1.85-.7-.41-.33-.61-.92-.61-1.77s.29-1.49.86-1.92c.58-.43,1.32-.65,2.22-.65.63,0,1.49.1,2.58.3l.53.1-.03,1.78Z"/>
    <path class="st16" d="M114.88,329.42c-1.32-.17-2.25-.26-2.78-.26s-.87.05-1.02.14c-.15.1-.23.25-.23.46s.1.35.31.43.74.2,1.6.35c.86.16,1.47.41,1.83.76.36.35.54.92.54,1.71,0,1.73-1.07,2.59-3.22,2.59-.7,0-1.56-.1-2.56-.29l-.51-.1.06-1.79c1.32.17,2.24.26,2.76.26s.87-.05,1.06-.15.28-.25.28-.46-.1-.35-.3-.45-.71-.21-1.54-.35c-.83-.14-1.44-.37-1.85-.7-.41-.33-.61-.92-.61-1.77s.29-1.49.86-1.92c.58-.43,1.32-.65,2.22-.65.63,0,1.49.1,2.58.3l.53.1-.03,1.78Z"/>
    <path class="st16" d="M116.69,326.4v-2.18h2.14v2.18h-2.14ZM116.69,335.42v-8h2.14v8h-2.14Z"/>
    <path class="st16" d="M124.69,327.23c1.12,0,1.94.31,2.46.92.52.61.78,1.71.78,3.29s-.3,2.67-.9,3.27c-.6.6-1.63.9-3.09.9-.46,0-1.3-.05-2.51-.16l-.61-.06v-11.17h2.14v3.44c.68-.29,1.26-.43,1.73-.43ZM123.94,333.69c.71,0,1.19-.17,1.44-.52.25-.35.37-.97.37-1.86,0-1.44-.45-2.16-1.34-2.16-.43,0-.83.05-1.22.16l-.22.05v4.27c.49.04.82.06.98.06Z"/>
    <path class="st16" d="M129.62,335.42v-11.2h2.14v11.2h-2.14Z"/>
    <path class="st16" d="M136,333.4c.25.22.61.33,1.08.33.99,0,1.88-.03,2.66-.1l.45-.05.03,1.58c-1.23.3-2.34.45-3.33.45-1.21,0-2.08-.32-2.62-.96-.54-.64-.82-1.68-.82-3.12,0-2.87,1.18-4.3,3.54-4.3s3.49,1.21,3.49,3.62l-.16,1.49h-4.7c.01.49.14.85.39,1.06ZM138.36,330.7c0-.64-.1-1.09-.3-1.34-.2-.25-.56-.38-1.06-.38s-.86.13-1.07.39c-.21.26-.32.7-.33,1.32h2.77Z"/>
    <path class="st16" d="M148,327.01c-.33,1.46-.49,2.66-.49,3.6s.13,1.98.38,3.11.51,2.03.77,2.7l.37,1.01h-2.03c-.15-.23-.35-.63-.59-1.18-.25-.55-.45-1.08-.62-1.58-.17-.5-.31-1.12-.45-1.86-.13-.74-.2-1.47-.2-2.18s.06-1.45.19-2.21c.13-.76.28-1.42.46-1.98.38-1.19.72-2.07,1.01-2.62l.19-.37h2.03c-.36.93-.71,2.12-1.03,3.58Z"/>
    <path class="st16" d="M155.04,331.36l-4.18-1.58v-2.18l6.5,2.93v1.76l-6.5,2.98v-2.18l4.18-1.73Z"/>
    <path class="st16" d="M159.41,325.25c.98-.38,2.08-.58,3.29-.58s2.09.23,2.65.7c.55.46.83,1.21.83,2.23s-.41,1.81-1.23,2.35c.51.28.88.57,1.1.86.22.3.33.77.33,1.42,0,1.14-.29,1.99-.86,2.54-.57.55-1.49.83-2.74.83-.93,0-1.9-.14-2.93-.42l-.51-.13.11-1.68c1.19.2,2.2.3,3.01.3,1.1,0,1.65-.47,1.65-1.41,0-.39-.14-.71-.42-.94-.28-.23-.65-.35-1.11-.35h-2.13v-1.82h2.13c.35,0,.66-.15.94-.45.27-.3.41-.63.41-.99,0-.76-.53-1.14-1.58-1.14-.74,0-1.52.08-2.35.22l-.42.06-.14-1.63Z"/>
    <path class="st16" d="M175.22,324.86v1.92h-4.72l-.27,2.29c.66-.26,1.29-.38,1.89-.38,2.28,0,3.42,1.06,3.42,3.18,0,1.19-.32,2.12-.95,2.77-.63.65-1.52.98-2.67.98-.49,0-1.05-.05-1.67-.14-.62-.1-1.12-.2-1.5-.3l-.58-.14.24-1.63c1.29.2,2.37.3,3.23.3.52,0,.92-.14,1.2-.42.28-.28.42-.67.42-1.19s-.12-.89-.35-1.13-.56-.35-.99-.35c-.71,0-1.34.07-1.89.21l-.24.06-1.31-.3.29-5.71h6.45Z"/>
    <path class="st16" d="M176.56,327c0-1.55.64-2.33,1.92-2.33s1.92.78,1.92,2.33-.64,2.33-1.92,2.33-1.92-.78-1.92-2.33ZM178.2,326.18c-.05.16-.07.42-.07.81s.02.66.07.82.14.24.28.24.23-.08.28-.24c.05-.16.07-.43.07-.82s-.02-.65-.07-.81c-.05-.15-.14-.23-.28-.23s-.23.08-.28.23ZM178.34,335.55l3.76-11.31,1.17.42-3.76,11.28-1.17-.38ZM181.24,333.29c0-1.55.64-2.33,1.92-2.33s1.92.78,1.92,2.33-.64,2.33-1.92,2.33-1.92-.78-1.92-2.33ZM182.88,332.47c-.05.16-.07.42-.07.81s.02.66.07.82c.05.16.14.24.28.24s.23-.08.28-.24.07-.43.07-.82-.02-.65-.07-.81c-.05-.15-.14-.23-.28-.23s-.23.08-.28.23Z"/>
    <path class="st16" d="M189.42,328.38c.13.77.2,1.51.2,2.22s-.06,1.44-.19,2.17c-.13.73-.28,1.36-.46,1.9-.38,1.12-.72,1.92-1.01,2.42l-.19.34h-2.03c.36-.82.71-1.93,1.03-3.32.33-1.39.49-2.56.49-3.5s-.12-2.01-.38-3.21c-.25-1.2-.5-2.16-.76-2.89l-.38-1.09h2.03c.15.27.35.7.59,1.3.25.6.45,1.17.62,1.7.17.53.31,1.18.45,1.95Z"/>
  </g>
  <path class="st18" d="M228.8,536.3H40.6c-3.4,0-6.2-3.4-6.2-7.5v-36.3h200.6v36.3c0,4.1-2.7,7.5-6.2,7.5Z"/>
  <rect class="st17" x="36" y="406.1" width="199" height="43"/>
  <g>
    <rect class="st15" x="34.4" y="404.1" width="200.7" height="36"/>
    <g class="st5">
      <g class="st5">
        <path class="st16" d="M97.41,434.5h-6.19v-10.88h2.21v8.93h3.98v1.95Z"/>
        <path class="st16" d="M98.58,425.48v-2.18h2.14v2.18h-2.14ZM98.58,434.5v-8h2.14v8h-2.14Z"/>
      </g>
      <g class="st5">
        <path class="st16" d="M104.87,434.5h-2.14v-11.2h2.14v6.37l.82-.14,1.58-3.02h2.4l-2.08,3.79,2.19,4.21h-2.42l-1.62-3.12-.88.14v2.98Z"/>
      </g>
      <g class="st5">
        <path class="st16" d="M112.98,432.48c.25.22.61.33,1.08.33.99,0,1.88-.03,2.66-.1l.45-.05.03,1.58c-1.23.3-2.34.45-3.33.45-1.21,0-2.08-.32-2.62-.96-.54-.64-.82-1.68-.82-3.12,0-2.87,1.18-4.3,3.54-4.3s3.49,1.21,3.49,3.62l-.16,1.49h-4.7c.01.49.14.85.39,1.06ZM115.34,429.78c0-.64-.1-1.09-.3-1.34-.2-.25-.56-.38-1.06-.38s-.86.13-1.07.39c-.21.26-.32.7-.33,1.32h2.77Z"/>
        <path class="st16" d="M119.08,434.5v-11.2h2.14v11.2h-2.14Z"/>
        <path class="st16" d="M122.57,426.5h2.11l1.46,6.18h.37l1.46-6.18h2.11l-2.82,11.36h-2.1l.88-3.36h-1.5l-1.97-8Z"/>
        <path class="st16" d="M137.3,426.09c-.33,1.46-.49,2.66-.49,3.6s.13,1.98.38,3.11c.26,1.14.51,2.03.77,2.7l.37,1.01h-2.03c-.15-.23-.35-.63-.59-1.18-.25-.55-.45-1.08-.62-1.58-.17-.5-.31-1.12-.45-1.86-.13-.74-.2-1.47-.2-2.18s.06-1.45.19-2.21c.13-.76.28-1.42.46-1.98.38-1.19.72-2.07,1.01-2.62l.19-.37h2.03c-.36.93-.71,2.12-1.03,3.58Z"/>
        <path class="st16" d="M144.34,430.44l-4.18-1.58v-2.18l6.5,2.93v1.76l-6.5,2.98v-2.18l4.18-1.73Z"/>
        <path class="st16" d="M155.66,425.91c-1.09-.16-2.03-.24-2.83-.24-1.51,0-2.27.82-2.27,2.46l.34-.1c.7-.2,1.26-.3,1.68-.3,1.21,0,2.11.28,2.72.83.61.55.91,1.42.91,2.58s-.34,2.05-1.02,2.65c-.68.6-1.67.9-2.97.9s-2.27-.47-2.94-1.42c-.66-.94-.99-2.33-.99-4.17s.38-3.19,1.14-4.06c.76-.87,1.84-1.3,3.26-1.3.83,0,1.72.12,2.67.35l.5.11-.19,1.7ZM152.38,429.66c-.5,0-1.02.09-1.57.27l-.27.08c0,1.85.6,2.77,1.79,2.77.51,0,.91-.14,1.18-.42.28-.28.42-.68.42-1.19,0-1-.52-1.5-1.55-1.5Z"/>
        <path class="st16" d="M164.52,423.94v1.92h-4.72l-.27,2.29c.66-.26,1.29-.38,1.89-.38,2.28,0,3.42,1.06,3.42,3.18,0,1.19-.31,2.12-.94,2.77-.63.65-1.52.98-2.67.98-.49,0-1.05-.05-1.67-.14s-1.12-.2-1.5-.3l-.58-.14.24-1.63c1.29.2,2.37.3,3.23.3.52,0,.92-.14,1.2-.42.28-.28.42-.67.42-1.19s-.12-.89-.35-1.13-.57-.35-.99-.35c-.71,0-1.34.07-1.89.21l-.24.06-1.31-.3.29-5.71h6.45Z"/>
        <path class="st16" d="M165.87,426.08c0-1.55.64-2.33,1.92-2.33s1.92.78,1.92,2.33-.64,2.33-1.92,2.33-1.92-.78-1.92-2.33ZM167.5,425.26c-.05.16-.07.42-.07.81s.02.66.07.82.14.24.28.24.23-.08.28-.24c.05-.16.07-.43.07-.82s-.02-.65-.07-.81c-.05-.15-.14-.23-.28-.23s-.23.08-.28.23ZM167.64,434.63l3.76-11.31,1.17.42-3.76,11.28-1.17-.38ZM170.54,432.37c0-1.55.64-2.33,1.92-2.33s1.92.78,1.92,2.33-.64,2.33-1.92,2.33-1.92-.78-1.92-2.33ZM172.18,431.55c-.05.16-.07.42-.07.81s.02.66.07.82.14.24.28.24.23-.08.28-.24c.05-.16.07-.43.07-.82s-.02-.65-.07-.81c-.05-.15-.14-.23-.28-.23s-.23.08-.28.23Z"/>
        <path class="st16" d="M178.72,427.46c.13.77.2,1.51.2,2.22s-.06,1.44-.19,2.17c-.13.73-.28,1.36-.46,1.9-.38,1.12-.72,1.92-1.01,2.42l-.19.34h-2.03c.36-.82.71-1.93,1.03-3.32.33-1.39.49-2.56.49-3.5s-.12-2.01-.38-3.21c-.25-1.2-.5-2.16-.76-2.89l-.38-1.09h2.03c.15.27.35.7.59,1.3.25.6.45,1.17.62,1.7.17.53.31,1.18.45,1.95Z"/>
      </g>
    </g>
  </g>
  <rect class="st15" x="36.2" y="488.8" width="200.4" height="36"/>
  <g class="st5">
    <path class="st16" d="M87.85,515.98h-1.79v3.17h-2.21v-10.88h4c2.58,0,3.87,1.26,3.87,3.78,0,1.27-.33,2.24-.98,2.92-.66.68-1.62,1.02-2.89,1.02ZM86.05,514.1h1.78c1.1,0,1.65-.68,1.65-2.05,0-.67-.13-1.16-.4-1.45-.27-.29-.68-.44-1.25-.44h-1.78v3.94Z"/>
    <path class="st16" d="M93.51,512.06c.57-.73,1.51-1.1,2.83-1.1s2.27.37,2.83,1.1.85,1.76.85,3.08c0,2.8-1.23,4.21-3.68,4.21s-3.68-1.4-3.68-4.21c0-1.32.28-2.35.85-3.08ZM95.17,516.94c.22.38.61.58,1.18.58s.96-.19,1.18-.58c.22-.38.33-.99.33-1.81s-.11-1.42-.33-1.79c-.22-.37-.61-.56-1.18-.56s-.96.19-1.18.56c-.22.37-.33.97-.33,1.79s.11,1.42.33,1.81Z"/>
    <path class="st16" d="M107.33,513.15c-1.32-.17-2.25-.26-2.78-.26s-.87.05-1.02.14c-.15.1-.23.25-.23.46s.1.35.31.43.74.2,1.6.35c.86.16,1.47.41,1.83.76.36.35.54.92.54,1.71,0,1.73-1.07,2.59-3.22,2.59-.7,0-1.56-.1-2.56-.29l-.51-.1.06-1.79c1.32.17,2.24.26,2.76.26s.87-.05,1.06-.15.28-.25.28-.46-.1-.35-.3-.45-.71-.21-1.54-.35c-.83-.14-1.44-.37-1.85-.7-.41-.33-.61-.92-.61-1.77s.29-1.49.86-1.92c.58-.43,1.32-.65,2.22-.65.63,0,1.49.1,2.58.3l.53.1-.03,1.78Z"/>
    <path class="st16" d="M114.88,513.15c-1.32-.17-2.25-.26-2.78-.26s-.87.05-1.02.14c-.15.1-.23.25-.23.46s.1.35.31.43.74.2,1.6.35c.86.16,1.47.41,1.83.76.36.35.54.92.54,1.71,0,1.73-1.07,2.59-3.22,2.59-.7,0-1.56-.1-2.56-.29l-.51-.1.06-1.79c1.32.17,2.24.26,2.76.26s.87-.05,1.06-.15.28-.25.28-.46-.1-.35-.3-.45-.71-.21-1.54-.35c-.83-.14-1.44-.37-1.85-.7-.41-.33-.61-.92-.61-1.77s.29-1.49.86-1.92c.58-.43,1.32-.65,2.22-.65.63,0,1.49.1,2.58.3l.53.1-.03,1.78Z"/>
    <path class="st16" d="M116.69,510.13v-2.18h2.14v2.18h-2.14ZM116.69,519.15v-8h2.14v8h-2.14Z"/>
    <path class="st16" d="M124.69,510.96c1.12,0,1.94.31,2.46.92.52.61.78,1.71.78,3.29s-.3,2.67-.9,3.27c-.6.6-1.63.9-3.09.9-.46,0-1.3-.05-2.51-.16l-.61-.06v-11.17h2.14v3.44c.68-.29,1.26-.43,1.73-.43ZM123.94,517.42c.71,0,1.19-.17,1.44-.52.25-.35.37-.97.37-1.86,0-1.44-.45-2.16-1.34-2.16-.43,0-.83.05-1.22.16l-.22.05v4.27c.49.04.82.06.98.06Z"/>
    <path class="st16" d="M129.62,519.15v-11.2h2.14v11.2h-2.14Z"/>
    <path class="st16" d="M136,517.13c.25.22.61.33,1.08.33.99,0,1.88-.03,2.66-.1l.45-.05.03,1.58c-1.23.3-2.34.45-3.33.45-1.21,0-2.08-.32-2.62-.96-.54-.64-.82-1.68-.82-3.12,0-2.87,1.18-4.3,3.54-4.3s3.49,1.21,3.49,3.62l-.16,1.49h-4.7c.01.49.14.85.39,1.06ZM138.36,514.43c0-.64-.1-1.09-.3-1.34-.2-.25-.56-.38-1.06-.38s-.86.13-1.07.39c-.21.26-.32.7-.33,1.32h2.77Z"/>
    <path class="st16" d="M148,510.74c-.33,1.46-.49,2.66-.49,3.6s.13,1.98.38,3.11c.26,1.14.51,2.03.77,2.7l.37,1.01h-2.03c-.15-.23-.35-.63-.59-1.18-.25-.55-.45-1.08-.62-1.58-.17-.5-.31-1.12-.45-1.86s-.2-1.47-.2-2.18.06-1.45.19-2.21c.13-.76.28-1.42.46-1.98.38-1.19.72-2.07,1.01-2.62l.19-.37h2.03c-.36.93-.71,2.12-1.03,3.58Z"/>
    <path class="st16" d="M155.04,515.09l-4.18-1.58v-2.18l6.5,2.93v1.76l-6.5,2.98v-2.18l4.18-1.73Z"/>
    <path class="st16" d="M159.41,508.98c.98-.38,2.08-.58,3.29-.58s2.09.23,2.65.7c.55.46.83,1.21.83,2.23s-.41,1.81-1.23,2.35c.51.28.88.57,1.1.86.22.3.33.77.33,1.42,0,1.14-.29,1.99-.86,2.54-.57.55-1.49.83-2.74.83-.93,0-1.9-.14-2.93-.42l-.51-.13.11-1.68c1.19.2,2.2.3,3.01.3,1.1,0,1.65-.47,1.65-1.41,0-.39-.14-.71-.42-.94-.28-.23-.65-.35-1.11-.35h-2.13v-1.82h2.13c.35,0,.66-.15.94-.45.27-.3.41-.63.41-.99,0-.76-.53-1.14-1.58-1.14-.74,0-1.52.08-2.35.22l-.42.06-.14-1.63Z"/>
    <path class="st16" d="M175.22,508.59v1.92h-4.72l-.27,2.29c.66-.26,1.29-.38,1.89-.38,2.28,0,3.42,1.06,3.42,3.18,0,1.19-.31,2.12-.94,2.77-.63.65-1.52.98-2.67.98-.49,0-1.05-.05-1.67-.14s-1.12-.2-1.5-.3l-.58-.14.24-1.63c1.29.2,2.37.3,3.23.3.52,0,.92-.14,1.2-.42.28-.28.42-.67.42-1.19s-.12-.89-.35-1.13-.57-.35-.99-.35c-.71,0-1.34.07-1.89.21l-.24.06-1.31-.3.29-5.71h6.45Z"/>
    <path class="st16" d="M176.56,510.73c0-1.55.64-2.33,1.92-2.33s1.92.78,1.92,2.33-.64,2.33-1.92,2.33-1.92-.78-1.92-2.33ZM178.2,509.91c-.05.16-.07.42-.07.81s.02.66.07.82.14.24.28.24.23-.08.28-.24c.05-.16.07-.43.07-.82s-.02-.65-.07-.81c-.05-.15-.14-.23-.28-.23s-.23.08-.28.23ZM178.34,519.28l3.76-11.31,1.17.42-3.76,11.28-1.17-.38ZM181.24,517.02c0-1.55.64-2.33,1.92-2.33s1.92.78,1.92,2.33-.64,2.33-1.92,2.33-1.92-.78-1.92-2.33ZM182.88,516.2c-.05.16-.07.42-.07.81s.02.66.07.82.14.24.28.24.23-.08.28-.24c.05-.16.07-.43.07-.82s-.02-.65-.07-.81c-.05-.15-.14-.23-.28-.23s-.23.08-.28.23Z"/>
    <path class="st16" d="M189.42,512.11c.13.77.2,1.51.2,2.22s-.06,1.44-.19,2.17c-.13.73-.28,1.36-.46,1.9-.38,1.12-.72,1.92-1.01,2.42l-.19.34h-2.03c.36-.82.71-1.93,1.03-3.32.33-1.39.49-2.56.49-3.5s-.12-2.01-.38-3.21c-.25-1.2-.5-2.16-.76-2.89l-.38-1.09h2.03c.15.27.35.7.59,1.3.25.6.45,1.17.62,1.7.17.53.31,1.18.45,1.95Z"/>
  </g>
  <rect class="st19" x="35.8" y="449.1" width="198.8" height="43.3"/>
  <rect class="st15" x="36.2" y="446.4" width="200.4" height="36"/>
  <g class="st5">
    <g class="st5">
      <path class="st16" d="M78.08,477.04c-1.66,0-2.83-.45-3.5-1.34-.67-.9-1.01-2.31-1.01-4.23s.34-3.35,1.02-4.29c.68-.93,1.84-1.4,3.5-1.4s2.82.47,3.5,1.4,1.02,2.37,1.02,4.3c0,2.37-.56,3.96-1.68,4.78l1.33,2.14-2.02.94-1.44-2.35c-.11.03-.34.05-.7.05ZM76.32,474.29c.31.55.9.83,1.77.83s1.45-.28,1.77-.83.47-1.49.47-2.82-.16-2.28-.48-2.88c-.32-.6-.91-.9-1.76-.9s-1.44.3-1.76.9-.48,1.56-.48,2.88.16,2.26.47,2.82Z"/>
      <path class="st16" d="M89.01,468.85h2.14v8h-2.13v-.45c-.77.43-1.43.64-2,.64-1.11,0-1.86-.31-2.24-.92-.38-.61-.58-1.64-.58-3.08v-4.19h2.14v4.22c0,.79.06,1.33.19,1.62s.44.43.93.43.91-.08,1.33-.22l.21-.06v-5.98Z"/>
      <path class="st16" d="M93.14,467.83v-2.18h2.14v2.18h-2.14ZM93.14,476.85v-8h2.14v8h-2.14Z"/>
      <path class="st16" d="M101.7,470.67h-1.97v3.28c0,.32,0,.55.02.68s.07.25.18.34c.1.1.26.14.47.14l1.22-.03.1,1.71c-.71.16-1.26.24-1.63.24-.96,0-1.62-.22-1.97-.65s-.53-1.23-.53-2.39v-3.33h-.94v-1.82h.94v-2.22h2.14v2.22h1.97v1.82Z"/>
      <path class="st16" d="M105.24,474.83c.25.22.61.33,1.08.33.99,0,1.88-.03,2.66-.1l.45-.05.03,1.58c-1.23.3-2.34.45-3.33.45-1.21,0-2.08-.32-2.62-.96-.54-.64-.82-1.68-.82-3.12,0-2.87,1.18-4.3,3.54-4.3s3.49,1.21,3.49,3.62l-.16,1.49h-4.7c.01.49.14.85.39,1.06ZM107.6,472.13c0-.64-.1-1.09-.3-1.34-.2-.25-.56-.38-1.06-.38s-.86.13-1.07.39c-.21.26-.32.7-.33,1.32h2.77Z"/>
      <path class="st16" d="M114.87,476.85v-11.2h2.14v11.2h-2.14Z"/>
      <path class="st16" d="M119.09,467.83v-2.18h2.14v2.18h-2.14ZM119.09,476.85v-8h2.14v8h-2.14Z"/>
    </g>
    <g class="st5">
      <path class="st16" d="M125.4,476.85h-2.14v-11.2h2.14v6.37l.82-.14,1.58-3.02h2.4l-2.08,3.79,2.19,4.21h-2.42l-1.62-3.12-.88.14v2.98Z"/>
    </g>
    <g class="st5">
      <path class="st16" d="M133.51,474.83c.25.22.61.33,1.08.33.99,0,1.88-.03,2.66-.1l.45-.05.03,1.58c-1.23.3-2.34.45-3.33.45-1.21,0-2.08-.32-2.62-.96-.54-.64-.82-1.68-.82-3.12,0-2.87,1.18-4.3,3.54-4.3s3.49,1.21,3.49,3.62l-.16,1.49h-4.7c.01.49.14.85.39,1.06ZM135.87,472.13c0-.64-.1-1.09-.3-1.34-.2-.25-.56-.38-1.06-.38s-.86.13-1.07.39c-.21.26-.32.7-.33,1.32h2.77Z"/>
      <path class="st16" d="M139.62,476.85v-11.2h2.14v11.2h-2.14Z"/>
      <path class="st16" d="M143.1,468.85h2.11l1.46,6.18h.37l1.46-6.18h2.11l-2.82,11.36h-2.1l.88-3.36h-1.5l-1.97-8Z"/>
      <path class="st16" d="M157.83,468.43c-.33,1.46-.49,2.66-.49,3.6s.13,1.98.38,3.11c.26,1.14.51,2.03.77,2.7l.37,1.01h-2.03c-.15-.23-.35-.63-.59-1.18-.25-.55-.45-1.08-.62-1.58-.17-.5-.31-1.12-.45-1.86s-.2-1.47-.2-2.18.06-1.45.19-2.21c.13-.76.28-1.42.46-1.98.38-1.19.72-2.07,1.01-2.62l.19-.37h2.03c-.36.93-.71,2.12-1.03,3.58Z"/>
      <path class="st16" d="M164.88,472.79l-4.18-1.58v-2.18l6.5,2.93v1.76l-6.5,2.98v-2.18l4.18-1.73Z"/>
      <path class="st16" d="M176.1,466.29v1.92h-4.72l-.27,2.29c.66-.26,1.29-.38,1.89-.38,2.28,0,3.42,1.06,3.42,3.18,0,1.19-.31,2.12-.94,2.77-.63.65-1.52.98-2.67.98-.49,0-1.05-.05-1.67-.14s-1.12-.2-1.5-.3l-.58-.14.24-1.63c1.29.2,2.37.3,3.23.3.52,0,.92-.14,1.2-.42.28-.28.42-.67.42-1.19s-.12-.89-.35-1.13-.57-.35-.99-.35c-.71,0-1.34.07-1.89.21l-.24.06-1.31-.3.29-5.71h6.45Z"/>
      <path class="st16" d="M178.63,467.41c.69-.87,1.71-1.31,3.06-1.31s2.38.44,3.06,1.31c.69.88,1.03,2.28,1.03,4.22s-.34,3.32-1.02,4.16c-.68.84-1.71,1.26-3.07,1.26s-2.39-.42-3.07-1.26c-.68-.84-1.02-2.22-1.02-4.16s.34-3.34,1.03-4.22ZM183.52,471.58c0-1.32-.14-2.24-.42-2.77-.28-.53-.74-.79-1.4-.79s-1.13.27-1.41.8c-.28.53-.42,1.46-.42,2.77s.14,2.23.43,2.75.76.78,1.41.78,1.11-.26,1.39-.78c.28-.52.42-1.44.42-2.76Z"/>
      <path class="st16" d="M186.4,468.43c0-1.55.64-2.33,1.92-2.33s1.92.78,1.92,2.33-.64,2.33-1.92,2.33-1.92-.78-1.92-2.33ZM188.04,467.61c-.05.16-.07.42-.07.81s.02.66.07.82.14.24.28.24.23-.08.28-.24c.05-.16.07-.43.07-.82s-.02-.65-.07-.81c-.05-.15-.14-.23-.28-.23s-.23.08-.28.23ZM188.18,476.98l3.76-11.31,1.17.42-3.76,11.28-1.17-.38ZM191.07,474.71c0-1.55.64-2.33,1.92-2.33s1.92.78,1.92,2.33-.64,2.33-1.92,2.33-1.92-.78-1.92-2.33ZM192.71,473.9c-.05.16-.07.42-.07.81s.02.66.07.82.14.24.28.24.23-.08.28-.24c.05-.16.07-.43.07-.82s-.02-.65-.07-.81c-.05-.15-.14-.23-.28-.23s-.23.08-.28.23Z"/>
      <path class="st16" d="M199.26,469.81c.13.77.2,1.51.2,2.22s-.06,1.44-.19,2.17c-.13.73-.28,1.36-.46,1.9-.38,1.12-.72,1.92-1.01,2.42l-.19.34h-2.03c.36-.82.71-1.93,1.03-3.32.33-1.39.49-2.56.49-3.5s-.12-2.01-.38-3.21c-.25-1.2-.5-2.16-.76-2.89l-.38-1.09h2.03c.15.27.35.7.59,1.3.25.6.45,1.17.62,1.7.17.53.31,1.18.45,1.95Z"/>
    </g>
  </g>
  <path class="st14" d="M38.8,406.2h192.9c2.3,0,4.1,1.8,4.1,4.1v121.7c0,2.3-1.8,4.1-4.1,4.1H38.8c-2.3,0-4.1-1.8-4.1-4.1v-121.7c0-2.3,1.8-4.1,4.1-4.1Z"/>
  <path class="st11" d="M41.4,589.4h187c3.1,0,5.6,2.5,5.6,5.6v31c0,3.1-2.5,5.6-5.6,5.6H41.4c-3.1,0-5.6-2.5-5.6-5.6v-31c0-3.1,2.5-5.6,5.6-5.6Z"/>
  <path class="st14" d="M40.1,590h189.6c2.7,0,4.8,2.1,4.8,4.8v31.5c0,2.7-2.1,4.8-4.8,4.8H40.1c-2.7,0-4.8-2.1-4.8-4.8v-31.5c0-2.7,2.1-4.8,4.8-4.8Z"/>
  <path class="st6" d="M40.9,635.5h187.8c3.4,0,6.2,3.4,6.2,7.5v35.5H34.7v-35.5c0-4.1,2.8-7.5,6.2-7.5Z"/>
  <path class="st7" d="M228.3,851.8H40.1c-3.4,0-6.2-3.4-6.2-7.5v-36.3h200.5v36.3c.1,4.1-2.6,7.5-6.1,7.5Z"/>
  <rect class="st2" x="35.3" y="678.7" width="200.1" height="43"/>
  <rect class="st13" x="35.7" y="721.6" width="200.1" height="43"/>
  <rect class="st1" x="35.5" y="764.8" width="200.1" height="43"/>
  <path class="st14" d="M38.3,635.6h192.9c2.3,0,4.1,1.8,4.1,4.1v207.8c0,2.3-1.8,4.1-4.1,4.1H38.3c-2.3,0-4.1-1.8-4.1-4.1v-207.8c0-2.2,1.8-4.1,4.1-4.1Z"/>
  <rect class="st15" x="34" y="631.6" width="201.9" height="39.9"/>
  <g class="st5">
    <g class="st5">
      <path class="st17" d="M60.1,662l2.45-10.88h4.19l2.45,10.88h-2.21l-.43-1.97h-3.81l-.43,1.97h-2.21ZM64.26,652.94l-1.1,5.17h2.98l-1.1-5.17h-.77Z"/>
      <path class="st17" d="M70.54,662v-11.2h2.14v11.2h-2.14Z"/>
      <path class="st17" d="M76.91,662h-2.14v-8h2.13v.45c.74-.43,1.37-.64,1.89-.64.86,0,1.53.25,2,.75.98-.5,1.88-.75,2.69-.75,1.06,0,1.79.31,2.2.92.41.61.62,1.59.62,2.94v4.34h-2.14v-4.27c0-.68-.07-1.19-.22-1.51s-.45-.49-.9-.49c-.34,0-.76.08-1.25.22l-.24.08c.04.8.06,1.41.06,1.82v4.14h-2.14v-4.11c0-.79-.07-1.35-.21-1.67-.14-.33-.44-.49-.91-.49-.42,0-.83.08-1.23.22l-.19.06v5.98Z"/>
      <path class="st17" d="M88.62,654.9c.57-.73,1.51-1.1,2.83-1.1s2.27.37,2.83,1.1.85,1.76.85,3.08c0,2.8-1.23,4.21-3.68,4.21s-3.68-1.4-3.68-4.21c0-1.32.28-2.35.85-3.08ZM90.28,659.79c.22.38.61.58,1.18.58s.96-.19,1.18-.58c.22-.38.33-.99.33-1.81s-.11-1.42-.33-1.79c-.22-.37-.61-.56-1.18-.56s-.96.19-1.18.56c-.22.37-.33.97-.33,1.79s.11,1.42.33,1.81Z"/>
      <path class="st17" d="M102.45,656c-1.32-.17-2.25-.26-2.78-.26s-.87.05-1.02.14c-.15.1-.23.25-.23.46s.1.35.31.43.74.2,1.6.35c.86.16,1.47.41,1.83.76.36.35.54.92.54,1.71,0,1.73-1.07,2.59-3.22,2.59-.7,0-1.56-.1-2.56-.29l-.51-.1.06-1.79c1.32.17,2.24.26,2.76.26s.87-.05,1.06-.15.28-.25.28-.46-.1-.35-.3-.45-.71-.21-1.54-.35c-.83-.14-1.44-.37-1.85-.7-.41-.33-.61-.92-.61-1.77s.29-1.49.86-1.92c.58-.43,1.32-.65,2.22-.65.63,0,1.49.1,2.58.3l.53.1-.03,1.78Z"/>
      <path class="st17" d="M108.69,655.82h-1.97v3.28c0,.32,0,.55.02.68s.07.25.18.34c.1.1.26.14.47.14l1.22-.03.1,1.71c-.71.16-1.26.24-1.63.24-.96,0-1.62-.22-1.97-.65s-.53-1.23-.53-2.39v-3.33h-.94v-1.82h.94v-2.22h2.14v2.22h1.97v1.82Z"/>
    </g>
    <g class="st5">
      <path class="st17" d="M116.61,653.81c.55,0,1.26.09,2.13.26l.43.1-.06,1.7c-.84-.09-1.47-.13-1.87-.13-.74,0-1.22.16-1.46.47-.24.31-.36.91-.36,1.78s.12,1.47.36,1.8c.24.33.73.49,1.48.49l1.86-.13.06,1.71c-1.14.22-2.01.34-2.61.34-1.18,0-2.03-.33-2.55-1-.52-.67-.78-1.74-.78-3.21s.27-2.54.8-3.19c.53-.66,1.39-.98,2.58-.98Z"/>
    </g>
    <g class="st5">
      <path class="st17" d="M122.87,659.98c.25.22.61.33,1.08.33.99,0,1.88-.03,2.66-.1l.45-.05.03,1.58c-1.23.3-2.34.45-3.33.45-1.21,0-2.08-.32-2.62-.96-.54-.64-.82-1.68-.82-3.12,0-2.87,1.18-4.3,3.54-4.3s3.49,1.21,3.49,3.62l-.16,1.49h-4.7c.01.49.14.85.39,1.06ZM125.23,657.28c0-.64-.1-1.09-.3-1.34-.2-.25-.56-.38-1.06-.38s-.86.13-1.07.39c-.21.26-.32.7-.33,1.32h2.77Z"/>
      <path class="st17" d="M128.88,662v-8h2.13v.85c.9-.53,1.75-.88,2.56-1.04v2.16c-.86.18-1.61.37-2.22.56l-.32.11v5.36h-2.14Z"/>
      <path class="st17" d="M139.26,655.82h-1.97v3.28c0,.32,0,.55.02.68.02.13.07.25.18.34s.26.14.47.14l1.22-.03.1,1.71c-.71.16-1.26.24-1.63.24-.96,0-1.62-.22-1.97-.65-.35-.43-.53-1.23-.53-2.39v-3.33h-.94v-1.82h.94v-2.22h2.14v2.22h1.97v1.82Z"/>
      <path class="st17" d="M146.78,656.5v3.33c.02.26.06.43.13.54.06.1.2.17.4.22l-.06,1.62c-.54,0-.98-.04-1.3-.11-.33-.08-.65-.22-.98-.45-.77.37-1.55.56-2.35.56-1.65,0-2.48-.88-2.48-2.62,0-.85.23-1.46.69-1.82.46-.36,1.16-.57,2.11-.63l1.71-.13v-.5c0-.33-.07-.56-.22-.68-.15-.12-.39-.18-.72-.18l-3.01.13-.06-1.49c1.14-.31,2.23-.46,3.26-.46s1.77.21,2.22.64.68,1.11.68,2.05ZM143.18,658.61c-.6.05-.9.37-.9.96s.26.88.78.88c.41,0,.85-.06,1.33-.19l.24-.06v-1.71l-1.46.13Z"/>
      <path class="st17" d="M148.83,652.98v-2.18h2.14v2.18h-2.14ZM148.83,662v-8h2.14v8h-2.14Z"/>
      <path class="st17" d="M155.1,662h-2.14v-8h2.13v.45c.72-.43,1.39-.64,2-.64,1.07,0,1.8.32,2.21.94.41.63.61,1.6.61,2.91v4.34h-2.14v-4.27c0-.68-.08-1.19-.24-1.51s-.48-.49-.96-.49c-.44,0-.86.08-1.26.22l-.19.06v5.98Z"/>
      <path class="st17" d="M167.8,653.58c-.33,1.46-.49,2.66-.49,3.6s.13,1.98.38,3.11c.26,1.14.51,2.03.77,2.7l.37,1.01h-2.03c-.15-.23-.35-.63-.59-1.18-.25-.55-.45-1.08-.62-1.58-.17-.5-.31-1.12-.45-1.86s-.2-1.47-.2-2.18.06-1.45.19-2.21c.13-.76.28-1.42.46-1.98.38-1.19.72-2.07,1.01-2.62l.19-.37h2.03c-.36.93-.71,2.12-1.03,3.58Z"/>
      <path class="st17" d="M174.84,657.94l-4.18-1.58v-2.18l6.5,2.93v1.76l-6.5,2.98v-2.18l4.18-1.73Z"/>
      <path class="st17" d="M182.19,660.27c1.42,0,2.13-.86,2.13-2.59l-.34.11c-.74.25-1.3.37-1.68.37-1.16,0-2.06-.28-2.69-.85-.63-.56-.94-1.4-.94-2.52s.35-1.98,1.04-2.61,1.68-.94,2.95-.94,2.25.47,2.92,1.42c.67.94,1.01,2.35,1.01,4.21s-.37,3.21-1.12,4.06c-.75.84-1.84,1.26-3.28,1.26-.83,0-1.72-.12-2.67-.35l-.5-.11.19-1.7c1.09.16,2.08.24,2.98.24ZM182.49,656.24c.49,0,1.02-.1,1.58-.29l.26-.08c0-1.8-.6-2.7-1.79-2.7-.51,0-.91.14-1.18.42-.28.28-.42.68-.42,1.19,0,.97.52,1.46,1.55,1.46Z"/>
      <path class="st17" d="M188.6,652.56c.69-.87,1.71-1.31,3.06-1.31s2.38.44,3.06,1.31c.69.88,1.03,2.28,1.03,4.22s-.34,3.32-1.02,4.16c-.68.84-1.71,1.26-3.07,1.26s-2.39-.42-3.07-1.26c-.68-.84-1.02-2.22-1.02-4.16s.34-3.34,1.03-4.22ZM193.48,656.73c0-1.32-.14-2.24-.42-2.77s-.74-.79-1.4-.79-1.12.27-1.41.8c-.28.53-.42,1.46-.42,2.77s.14,2.23.43,2.75.76.78,1.41.78,1.11-.26,1.39-.78.42-1.44.42-2.76Z"/>
      <path class="st17" d="M196.36,653.58c0-1.55.64-2.33,1.92-2.33s1.92.78,1.92,2.33-.64,2.33-1.92,2.33-1.92-.78-1.92-2.33ZM198,652.76c-.05.16-.07.42-.07.81s.02.66.07.82c.05.16.14.24.28.24s.23-.08.28-.24.07-.43.07-.82-.02-.65-.07-.81c-.05-.15-.14-.23-.28-.23s-.23.08-.28.23ZM198.14,662.13l3.76-11.31,1.17.42-3.76,11.28-1.17-.38ZM201.04,659.86c0-1.55.64-2.33,1.92-2.33s1.92.78,1.92,2.33-.64,2.33-1.92,2.33-1.92-.78-1.92-2.33ZM202.68,659.05c-.05.16-.07.42-.07.81s.02.66.07.82c.05.16.14.24.28.24s.23-.08.28-.24.07-.43.07-.82-.02-.65-.07-.81c-.05-.15-.14-.23-.28-.23s-.23.08-.28.23Z"/>
      <path class="st17" d="M209.22,654.96c.13.77.2,1.51.2,2.22s-.06,1.44-.19,2.17c-.13.73-.28,1.36-.46,1.9-.38,1.12-.72,1.92-1.01,2.42l-.19.34h-2.03c.36-.82.71-1.93,1.03-3.32.33-1.39.49-2.56.49-3.5s-.13-2.01-.38-3.21c-.25-1.2-.5-2.16-.76-2.89l-.38-1.09h2.03c.15.27.35.7.59,1.3.25.6.45,1.17.62,1.7.17.53.31,1.18.45,1.95Z"/>
    </g>
  </g>
  <rect class="st15" x="34.2" y="676.5" width="200.7" height="36"/>
  <g class="st5">
    <g class="st5">
      <path class="st17" d="M81.06,696h2.32l-2.53,10.88h-4.08l-2.53-10.88h2.32l1.89,8.96h.72l1.89-8.96Z"/>
    </g>
    <g class="st5">
      <path class="st17" d="M86.33,704.86c.25.22.61.33,1.08.33.99,0,1.88-.03,2.66-.1l.45-.05.03,1.58c-1.23.3-2.34.45-3.33.45-1.21,0-2.08-.32-2.62-.96-.54-.64-.82-1.68-.82-3.12,0-2.87,1.18-4.3,3.54-4.3s3.49,1.21,3.49,3.62l-.16,1.49h-4.7c.01.49.14.85.39,1.06ZM88.69,702.16c0-.64-.1-1.09-.3-1.34-.2-.25-.56-.38-1.06-.38s-.86.13-1.07.39c-.21.26-.32.7-.33,1.32h2.77Z"/>
      <path class="st17" d="M92.34,706.88v-8h2.13v.85c.9-.53,1.75-.88,2.56-1.04v2.16c-.86.18-1.61.37-2.22.56l-.32.11v5.36h-2.14Z"/>
      <path class="st17" d="M97.56,698.88h2.11l1.46,6.18h.37l1.46-6.18h2.11l-2.82,11.36h-2.1l.88-3.36h-1.5l-1.97-8Z"/>
      <path class="st17" d="M109.91,706.88v-11.2h2.14v11.2h-2.14Z"/>
      <path class="st17" d="M114.13,697.86v-2.18h2.14v2.18h-2.14ZM114.13,706.88v-8h2.14v8h-2.14Z"/>
    </g>
    <g class="st5">
      <path class="st17" d="M120.43,706.88h-2.14v-11.2h2.14v6.37l.82-.14,1.58-3.02h2.4l-2.08,3.79,2.19,4.21h-2.42l-1.62-3.12-.88.14v2.98Z"/>
    </g>
    <g class="st5">
      <path class="st17" d="M128.53,704.86c.25.22.61.33,1.08.33.99,0,1.88-.03,2.66-.1l.45-.05.03,1.58c-1.23.3-2.34.45-3.33.45-1.21,0-2.08-.32-2.62-.96-.54-.64-.82-1.68-.82-3.12,0-2.87,1.18-4.3,3.54-4.3s3.49,1.21,3.49,3.62l-.16,1.49h-4.7c.01.49.14.85.39,1.06ZM130.89,702.16c0-.64-.1-1.09-.3-1.34-.2-.25-.56-.38-1.06-.38s-.86.13-1.07.39c-.21.26-.32.7-.33,1.32h2.77Z"/>
      <path class="st17" d="M134.64,706.88v-11.2h2.14v11.2h-2.14Z"/>
      <path class="st17" d="M138.13,698.88h2.11l1.46,6.18h.37l1.46-6.18h2.11l-2.82,11.36h-2.1l.88-3.36h-1.5l-1.97-8Z"/>
      <path class="st17" d="M152.85,698.46c-.33,1.46-.49,2.66-.49,3.6s.13,1.98.38,3.11.51,2.03.77,2.7l.37,1.01h-2.03c-.15-.23-.35-.63-.59-1.18-.25-.55-.45-1.08-.62-1.58-.17-.5-.31-1.12-.45-1.86-.13-.74-.2-1.47-.2-2.18s.06-1.45.19-2.21c.13-.76.28-1.42.46-1.98.38-1.19.72-2.07,1.01-2.62l.19-.37h2.03c-.36.93-.71,2.12-1.03,3.58Z"/>
      <path class="st17" d="M159.9,702.82l-4.18-1.58v-2.18l6.5,2.93v1.76l-6.5,2.98v-2.18l4.18-1.73Z"/>
      <path class="st17" d="M164.94,696.89c.69-.51,1.62-.76,2.78-.76s2.1.26,2.82.77c.71.51,1.07,1.22,1.07,2.13,0,.62-.08,1.08-.22,1.39s-.46.65-.93,1.02c.47.4.81.77,1.01,1.12.2.35.3.84.3,1.46,0,1.05-.37,1.82-1.12,2.31-.75.5-1.72.74-2.93.74-2.67,0-4-.96-4-2.88,0-.68.1-1.21.31-1.59.21-.38.55-.76,1.02-1.16-.45-.36-.75-.72-.91-1.06-.16-.35-.24-.8-.24-1.37,0-.91.35-1.61,1.04-2.12ZM166.09,703.68c0,.94.55,1.41,1.66,1.41s1.66-.47,1.66-1.41c0-.55-.31-.95-.94-1.2h-1.41c-.64.25-.96.65-.96,1.2ZM167.76,698.11c-.48,0-.85.11-1.1.32-.26.21-.38.54-.38.98s.26.84.78,1.2h1.41c.52-.36.78-.78.78-1.25,0-.83-.5-1.25-1.49-1.25Z"/>
      <path class="st17" d="M173.65,697.44c.69-.87,1.71-1.31,3.06-1.31s2.38.44,3.06,1.31c.69.88,1.03,2.28,1.03,4.22s-.34,3.32-1.02,4.16c-.68.84-1.71,1.26-3.07,1.26s-2.39-.42-3.07-1.26c-.68-.84-1.02-2.22-1.02-4.16s.34-3.34,1.03-4.22ZM178.54,701.61c0-1.32-.14-2.24-.42-2.77s-.74-.79-1.4-.79-1.12.27-1.41.8c-.28.53-.42,1.46-.42,2.77s.14,2.23.43,2.75.76.78,1.41.78,1.11-.26,1.39-.78.42-1.44.42-2.76Z"/>
      <path class="st17" d="M181.42,698.46c0-1.55.64-2.33,1.92-2.33s1.92.78,1.92,2.33-.64,2.33-1.92,2.33-1.92-.78-1.92-2.33ZM183.06,697.64c-.05.16-.07.42-.07.81s.02.66.07.82c.05.16.14.24.28.24s.23-.08.28-.24.07-.43.07-.82-.02-.65-.07-.81c-.05-.15-.14-.23-.28-.23s-.23.08-.28.23ZM183.2,707.01l3.76-11.31,1.17.42-3.76,11.28-1.17-.38ZM186.09,704.75c0-1.55.64-2.33,1.92-2.33s1.92.78,1.92,2.33-.64,2.33-1.92,2.33-1.92-.78-1.92-2.33ZM187.73,703.93c-.05.16-.07.42-.07.81s.02.66.07.82c.05.16.14.24.28.24s.23-.08.28-.24.07-.43.07-.82-.02-.65-.07-.81c-.05-.15-.14-.23-.28-.23s-.23.08-.28.23Z"/>
      <path class="st17" d="M194.28,699.84c.13.77.2,1.51.2,2.22s-.06,1.44-.19,2.17c-.13.73-.28,1.36-.46,1.9-.38,1.12-.72,1.92-1.01,2.42l-.19.34h-2.03c.36-.82.71-1.93,1.03-3.32.33-1.39.49-2.56.49-3.5s-.13-2.01-.38-3.21c-.25-1.2-.5-2.16-.76-2.89l-.38-1.09h2.03c.15.27.35.7.59,1.3.25.6.45,1.17.62,1.7.17.53.31,1.18.45,1.95Z"/>
    </g>
  </g>
  <rect class="st15" x="33.8" y="718.9" width="200.7" height="36"/>
  <g class="st5">
    <g class="st5">
      <path class="st17" d="M96.74,749.32h-6.19v-10.88h2.21v8.93h3.98v1.95Z"/>
      <path class="st17" d="M97.91,740.3v-2.18h2.14v2.18h-2.14ZM97.91,749.32v-8h2.14v8h-2.14Z"/>
    </g>
    <g class="st5">
      <path class="st17" d="M104.2,749.32h-2.14v-11.2h2.14v6.37l.82-.14,1.58-3.02h2.4l-2.08,3.79,2.19,4.21h-2.42l-1.62-3.12-.88.14v2.98Z"/>
    </g>
    <g class="st5">
      <path class="st17" d="M112.31,747.3c.25.22.61.33,1.08.33.99,0,1.88-.03,2.66-.1l.45-.05.03,1.58c-1.23.3-2.34.45-3.33.45-1.21,0-2.08-.32-2.62-.96-.54-.64-.82-1.68-.82-3.12,0-2.87,1.18-4.3,3.54-4.3s3.49,1.21,3.49,3.62l-.16,1.49h-4.7c.01.49.14.85.39,1.06ZM114.67,744.6c0-.64-.1-1.09-.3-1.34-.2-.25-.56-.38-1.06-.38s-.86.13-1.07.39c-.21.26-.32.7-.33,1.32h2.77Z"/>
      <path class="st17" d="M118.41,749.32v-11.2h2.14v11.2h-2.14Z"/>
      <path class="st17" d="M121.9,741.32h2.11l1.46,6.18h.37l1.46-6.18h2.11l-2.82,11.36h-2.1l.88-3.36h-1.5l-1.97-8Z"/>
      <path class="st17" d="M136.63,740.91c-.33,1.46-.49,2.66-.49,3.6s.13,1.98.38,3.11.51,2.03.77,2.7l.37,1.01h-2.03c-.15-.23-.35-.63-.59-1.18-.25-.55-.45-1.08-.62-1.58-.17-.5-.31-1.12-.45-1.86-.13-.74-.2-1.47-.2-2.18s.06-1.45.19-2.21c.13-.76.28-1.42.46-1.98.38-1.19.72-2.07,1.01-2.62l.19-.37h2.03c-.36.93-.71,2.12-1.03,3.58Z"/>
      <path class="st17" d="M143.68,745.26l-4.18-1.58v-2.18l6.5,2.93v1.76l-6.5,2.98v-2.18l4.18-1.73Z"/>
      <path class="st17" d="M154.99,740.73c-1.09-.16-2.03-.24-2.83-.24-1.51,0-2.27.82-2.27,2.46l.34-.1c.7-.2,1.26-.3,1.68-.3,1.21,0,2.11.28,2.72.83.61.55.91,1.42.91,2.58s-.34,2.05-1.02,2.65c-.68.6-1.67.9-2.97.9s-2.27-.47-2.94-1.42c-.66-.94-.99-2.33-.99-4.17s.38-3.19,1.14-4.06c.76-.87,1.85-1.3,3.26-1.3.83,0,1.72.12,2.67.35l.5.11-.19,1.7ZM151.71,744.48c-.5,0-1.02.09-1.57.27l-.27.08c0,1.85.6,2.77,1.79,2.77.51,0,.91-.14,1.18-.42.28-.28.42-.68.42-1.19,0-1-.52-1.5-1.55-1.5Z"/>
      <path class="st17" d="M163.85,738.76v1.92h-4.72l-.27,2.29c.66-.26,1.29-.38,1.89-.38,2.28,0,3.42,1.06,3.42,3.18,0,1.19-.32,2.12-.94,2.77-.63.65-1.52.98-2.67.98-.49,0-1.05-.05-1.67-.14s-1.12-.2-1.5-.3l-.58-.14.24-1.63c1.29.2,2.37.3,3.23.3.52,0,.92-.14,1.2-.42s.42-.67.42-1.19-.12-.89-.35-1.13c-.24-.23-.57-.35-.99-.35-.71,0-1.34.07-1.89.21l-.24.06-1.31-.3.29-5.71h6.45Z"/>
      <path class="st17" d="M165.2,740.9c0-1.55.64-2.33,1.92-2.33s1.92.78,1.92,2.33-.64,2.33-1.92,2.33-1.92-.78-1.92-2.33ZM166.84,740.08c-.05.16-.07.42-.07.81s.02.66.07.82c.05.16.14.24.28.24s.23-.08.28-.24.07-.43.07-.82-.02-.65-.07-.81c-.05-.15-.14-.23-.28-.23s-.23.08-.28.23ZM166.97,749.45l3.76-11.31,1.17.42-3.76,11.28-1.17-.38ZM169.87,747.19c0-1.55.64-2.33,1.92-2.33s1.92.78,1.92,2.33-.64,2.33-1.92,2.33-1.92-.78-1.92-2.33ZM171.51,746.37c-.05.16-.07.42-.07.81s.02.66.07.82c.05.16.14.24.28.24s.23-.08.28-.24.07-.43.07-.82-.02-.65-.07-.81c-.05-.15-.14-.23-.28-.23s-.23.08-.28.23Z"/>
      <path class="st17" d="M178.05,742.28c.13.77.2,1.51.2,2.22s-.06,1.44-.19,2.17c-.13.73-.28,1.36-.46,1.9-.38,1.12-.72,1.92-1.01,2.42l-.19.34h-2.03c.36-.82.71-1.93,1.03-3.32.33-1.39.49-2.56.49-3.5s-.13-2.01-.38-3.21c-.25-1.2-.5-2.16-.76-2.89l-.38-1.09h2.03c.15.27.35.7.59,1.3.25.6.45,1.17.62,1.7.17.53.31,1.18.45,1.95Z"/>
    </g>
  </g>
  <rect class="st15" x="35.7" y="761.4" width="200.4" height="36"/>
  <g class="st5">
    <g class="st5">
      <path class="st16" d="M77.59,791.96c-1.66,0-2.83-.45-3.5-1.34-.67-.9-1.01-2.31-1.01-4.23s.34-3.35,1.02-4.29c.68-.93,1.84-1.4,3.5-1.4s2.82.47,3.5,1.4,1.02,2.37,1.02,4.3c0,2.37-.56,3.96-1.68,4.78l1.33,2.14-2.02.94-1.44-2.35c-.11.03-.34.05-.7.05ZM75.82,789.21c.31.55.9.83,1.77.83s1.45-.28,1.77-.83.47-1.49.47-2.82-.16-2.28-.48-2.88c-.32-.6-.91-.9-1.76-.9s-1.44.3-1.76.9-.48,1.56-.48,2.88.16,2.26.47,2.82Z"/>
      <path class="st16" d="M88.52,783.77h2.14v8h-2.13v-.45c-.77.43-1.43.64-2,.64-1.11,0-1.86-.31-2.24-.92-.38-.61-.58-1.64-.58-3.08v-4.19h2.14v4.22c0,.79.06,1.33.19,1.62s.44.43.93.43.91-.08,1.33-.22l.21-.06v-5.98Z"/>
      <path class="st16" d="M92.65,782.74v-2.18h2.14v2.18h-2.14ZM92.65,791.77v-8h2.14v8h-2.14Z"/>
      <path class="st16" d="M101.21,785.59h-1.97v3.28c0,.32,0,.55.02.68s.07.25.18.34c.1.1.26.14.47.14l1.22-.03.1,1.71c-.71.16-1.26.24-1.63.24-.96,0-1.62-.22-1.97-.65s-.53-1.23-.53-2.39v-3.33h-.94v-1.82h.94v-2.22h2.14v2.22h1.97v1.82Z"/>
      <path class="st16" d="M104.75,789.74c.25.22.61.33,1.08.33.99,0,1.88-.03,2.66-.1l.45-.05.03,1.58c-1.23.3-2.34.45-3.33.45-1.21,0-2.08-.32-2.62-.96-.54-.64-.82-1.68-.82-3.12,0-2.87,1.18-4.3,3.54-4.3s3.49,1.21,3.49,3.62l-.16,1.49h-4.7c.01.49.14.85.39,1.06ZM107.11,787.05c0-.64-.1-1.09-.3-1.34-.2-.25-.56-.38-1.06-.38s-.86.13-1.07.39c-.21.26-.32.7-.33,1.32h2.77Z"/>
      <path class="st16" d="M114.37,791.77v-11.2h2.14v11.2h-2.14Z"/>
      <path class="st16" d="M118.6,782.74v-2.18h2.14v2.18h-2.14ZM118.6,791.77v-8h2.14v8h-2.14Z"/>
    </g>
    <g class="st5">
      <path class="st16" d="M124.91,791.77h-2.14v-11.2h2.14v6.37l.82-.14,1.58-3.02h2.4l-2.08,3.79,2.19,4.21h-2.42l-1.62-3.12-.88.14v2.98Z"/>
    </g>
    <g class="st5">
      <path class="st16" d="M133.02,789.74c.25.22.61.33,1.08.33.99,0,1.88-.03,2.66-.1l.45-.05.03,1.58c-1.23.3-2.34.45-3.33.45-1.21,0-2.08-.32-2.62-.96-.54-.64-.82-1.68-.82-3.12,0-2.87,1.18-4.3,3.54-4.3s3.49,1.21,3.49,3.62l-.16,1.49h-4.7c.01.49.14.85.39,1.06ZM135.38,787.05c0-.64-.1-1.09-.3-1.34-.2-.25-.56-.38-1.06-.38s-.86.13-1.07.39c-.21.26-.32.7-.33,1.32h2.77Z"/>
      <path class="st16" d="M139.12,791.77v-11.2h2.14v11.2h-2.14Z"/>
      <path class="st16" d="M142.61,783.77h2.11l1.46,6.18h.37l1.46-6.18h2.11l-2.82,11.36h-2.1l.88-3.36h-1.5l-1.97-8Z"/>
      <path class="st16" d="M157.34,783.35c-.33,1.46-.49,2.66-.49,3.6s.13,1.98.38,3.11c.26,1.14.51,2.03.77,2.7l.37,1.01h-2.03c-.15-.23-.35-.63-.59-1.18-.25-.55-.45-1.08-.62-1.58-.17-.5-.31-1.12-.45-1.86s-.2-1.47-.2-2.18.06-1.45.19-2.21c.13-.76.28-1.42.46-1.98.38-1.19.72-2.07,1.01-2.62l.19-.37h2.03c-.36.93-.71,2.12-1.03,3.58Z"/>
      <path class="st16" d="M164.39,787.7l-4.18-1.58v-2.18l6.5,2.93v1.76l-6.5,2.98v-2.18l4.18-1.73Z"/>
      <path class="st16" d="M175.6,781.21v1.92h-4.72l-.27,2.29c.66-.26,1.29-.38,1.89-.38,2.28,0,3.42,1.06,3.42,3.18,0,1.19-.31,2.12-.94,2.77-.63.65-1.52.98-2.67.98-.49,0-1.05-.05-1.67-.14s-1.12-.2-1.5-.3l-.58-.14.24-1.63c1.29.2,2.37.3,3.23.3.52,0,.92-.14,1.2-.42.28-.28.42-.67.42-1.19s-.12-.89-.35-1.13-.57-.35-.99-.35c-.71,0-1.34.07-1.89.21l-.24.06-1.31-.3.29-5.71h6.45Z"/>
      <path class="st16" d="M178.14,782.33c.69-.87,1.71-1.31,3.06-1.31s2.38.44,3.06,1.31c.69.88,1.03,2.28,1.03,4.22s-.34,3.32-1.02,4.16c-.68.84-1.71,1.26-3.07,1.26s-2.39-.42-3.07-1.26c-.68-.84-1.02-2.22-1.02-4.16s.34-3.34,1.03-4.22ZM183.03,786.49c0-1.32-.14-2.24-.42-2.77-.28-.53-.74-.79-1.4-.79s-1.13.27-1.41.8c-.28.53-.42,1.46-.42,2.77s.14,2.23.43,2.75.76.78,1.41.78,1.11-.26,1.39-.78c.28-.52.42-1.44.42-2.76Z"/>
      <path class="st16" d="M185.91,783.34c0-1.55.64-2.33,1.92-2.33s1.92.78,1.92,2.33-.64,2.33-1.92,2.33-1.92-.78-1.92-2.33ZM187.55,782.53c-.05.16-.07.42-.07.81s.02.66.07.82.14.24.28.24.23-.08.28-.24c.05-.16.07-.43.07-.82s-.02-.65-.07-.81c-.05-.15-.14-.23-.28-.23s-.23.08-.28.23ZM187.68,791.89l3.76-11.31,1.17.42-3.76,11.28-1.17-.38ZM190.58,789.63c0-1.55.64-2.33,1.92-2.33s1.92.78,1.92,2.33-.64,2.33-1.92,2.33-1.92-.78-1.92-2.33ZM192.22,788.81c-.05.16-.07.42-.07.81s.02.66.07.82.14.24.28.24.23-.08.28-.24c.05-.16.07-.43.07-.82s-.02-.65-.07-.81c-.05-.15-.14-.23-.28-.23s-.23.08-.28.23Z"/>
      <path class="st16" d="M198.76,784.73c.13.77.2,1.51.2,2.22s-.06,1.44-.19,2.17c-.13.73-.28,1.36-.46,1.9-.38,1.12-.72,1.92-1.01,2.42l-.19.34h-2.03c.36-.82.71-1.93,1.03-3.32.33-1.39.49-2.56.49-3.5s-.12-2.01-.38-3.21c-.25-1.2-.5-2.16-.76-2.89l-.38-1.09h2.03c.15.27.35.7.59,1.3.25.6.45,1.17.62,1.7.17.53.31,1.18.45,1.95Z"/>
    </g>
  </g>
  <rect class="st15" x="35.7" y="804.3" width="200.4" height="36"/>
  <g class="st5">
    <path class="st16" d="M87.35,831.49h-1.79v3.17h-2.21v-10.88h4c2.58,0,3.87,1.26,3.87,3.78,0,1.27-.33,2.24-.98,2.92-.66.68-1.62,1.02-2.89,1.02ZM85.56,829.6h1.78c1.1,0,1.65-.68,1.65-2.05,0-.67-.13-1.16-.4-1.45-.27-.29-.68-.44-1.25-.44h-1.78v3.94Z"/>
    <path class="st16" d="M93.01,827.56c.57-.73,1.51-1.1,2.83-1.1s2.27.37,2.83,1.1.85,1.76.85,3.08c0,2.8-1.23,4.21-3.68,4.21s-3.68-1.4-3.68-4.21c0-1.32.28-2.35.85-3.08ZM94.67,832.45c.22.38.61.58,1.18.58s.96-.19,1.18-.58c.22-.38.33-.99.33-1.81s-.11-1.42-.33-1.79c-.22-.37-.61-.56-1.18-.56s-.96.19-1.18.56c-.22.37-.33.97-.33,1.79s.11,1.42.33,1.81Z"/>
    <path class="st16" d="M106.84,828.66c-1.32-.17-2.25-.26-2.78-.26s-.87.05-1.02.14c-.15.1-.23.25-.23.46s.1.35.31.43.74.2,1.6.35c.86.16,1.47.41,1.83.76.36.35.54.92.54,1.71,0,1.73-1.07,2.59-3.22,2.59-.7,0-1.56-.1-2.56-.29l-.51-.1.06-1.79c1.32.17,2.24.26,2.76.26s.87-.05,1.06-.15.28-.25.28-.46-.1-.35-.3-.45-.71-.21-1.54-.35c-.83-.14-1.44-.37-1.85-.7-.41-.33-.61-.92-.61-1.77s.29-1.49.86-1.92c.58-.43,1.32-.65,2.22-.65.63,0,1.49.1,2.58.3l.53.1-.03,1.78Z"/>
    <path class="st16" d="M114.39,828.66c-1.32-.17-2.25-.26-2.78-.26s-.87.05-1.02.14c-.15.1-.23.25-.23.46s.1.35.31.43.74.2,1.6.35c.86.16,1.47.41,1.83.76.36.35.54.92.54,1.71,0,1.73-1.07,2.59-3.22,2.59-.7,0-1.56-.1-2.56-.29l-.51-.1.06-1.79c1.32.17,2.24.26,2.76.26s.87-.05,1.06-.15.28-.25.28-.46-.1-.35-.3-.45-.71-.21-1.54-.35c-.83-.14-1.44-.37-1.85-.7-.41-.33-.61-.92-.61-1.77s.29-1.49.86-1.92c.58-.43,1.32-.65,2.22-.65.63,0,1.49.1,2.58.3l.53.1-.03,1.78Z"/>
    <path class="st16" d="M116.2,825.63v-2.18h2.14v2.18h-2.14ZM116.2,834.66v-8h2.14v8h-2.14Z"/>
    <path class="st16" d="M124.2,826.46c1.12,0,1.94.31,2.46.92.52.61.78,1.71.78,3.29s-.3,2.67-.9,3.27c-.6.6-1.63.9-3.09.9-.46,0-1.3-.05-2.51-.16l-.61-.06v-11.17h2.14v3.44c.68-.29,1.26-.43,1.73-.43ZM123.45,832.93c.71,0,1.19-.17,1.44-.52.25-.35.37-.97.37-1.86,0-1.44-.45-2.16-1.34-2.16-.43,0-.83.05-1.22.16l-.22.05v4.27c.49.04.82.06.98.06Z"/>
    <path class="st16" d="M129.13,834.66v-11.2h2.14v11.2h-2.14Z"/>
    <path class="st16" d="M135.5,832.63c.25.22.61.33,1.08.33.99,0,1.88-.03,2.66-.1l.45-.05.03,1.58c-1.23.3-2.34.45-3.33.45-1.21,0-2.08-.32-2.62-.96-.54-.64-.82-1.68-.82-3.12,0-2.87,1.18-4.3,3.54-4.3s3.49,1.21,3.49,3.62l-.16,1.49h-4.7c.01.49.14.85.39,1.06ZM137.86,829.94c0-.64-.1-1.09-.3-1.34-.2-.25-.56-.38-1.06-.38s-.86.13-1.07.39c-.21.26-.32.7-.33,1.32h2.77Z"/>
    <path class="st16" d="M147.5,826.24c-.33,1.46-.49,2.66-.49,3.6s.13,1.98.38,3.11c.26,1.14.51,2.03.77,2.7l.37,1.01h-2.03c-.15-.23-.35-.63-.59-1.18-.25-.55-.45-1.08-.62-1.58-.17-.5-.31-1.12-.45-1.86s-.2-1.47-.2-2.18.06-1.45.19-2.21c.13-.76.28-1.42.46-1.98.38-1.19.72-2.07,1.01-2.62l.19-.37h2.03c-.36.93-.71,2.12-1.03,3.58Z"/>
    <path class="st16" d="M154.55,830.59l-4.18-1.58v-2.18l6.5,2.93v1.76l-6.5,2.98v-2.18l4.18-1.73Z"/>
    <path class="st16" d="M158.92,824.48c.98-.38,2.08-.58,3.29-.58s2.09.23,2.65.7c.55.46.83,1.21.83,2.23s-.41,1.81-1.23,2.35c.51.28.88.57,1.1.86.22.3.33.77.33,1.42,0,1.14-.29,1.99-.86,2.54-.57.55-1.49.83-2.74.83-.93,0-1.9-.14-2.93-.42l-.51-.13.11-1.68c1.19.2,2.2.3,3.01.3,1.1,0,1.65-.47,1.65-1.41,0-.39-.14-.71-.42-.94-.28-.23-.65-.35-1.11-.35h-2.13v-1.82h2.13c.35,0,.66-.15.94-.45.27-.3.41-.63.41-.99,0-.76-.53-1.14-1.58-1.14-.74,0-1.52.08-2.35.22l-.42.06-.14-1.63Z"/>
    <path class="st16" d="M174.73,824.1v1.92h-4.72l-.27,2.29c.66-.26,1.29-.38,1.89-.38,2.28,0,3.42,1.06,3.42,3.18,0,1.19-.31,2.12-.94,2.77-.63.65-1.52.98-2.67.98-.49,0-1.05-.05-1.67-.14s-1.12-.2-1.5-.3l-.58-.14.24-1.63c1.29.2,2.37.3,3.23.3.52,0,.92-.14,1.2-.42.28-.28.42-.67.42-1.19s-.12-.89-.35-1.13-.57-.35-.99-.35c-.71,0-1.34.07-1.89.21l-.24.06-1.31-.3.29-5.71h6.45Z"/>
    <path class="st16" d="M176.07,826.23c0-1.55.64-2.33,1.92-2.33s1.92.78,1.92,2.33-.64,2.33-1.92,2.33-1.92-.78-1.92-2.33ZM177.71,825.42c-.05.16-.07.42-.07.81s.02.66.07.82.14.24.28.24.23-.08.28-.24c.05-.16.07-.43.07-.82s-.02-.65-.07-.81c-.05-.15-.14-.23-.28-.23s-.23.08-.28.23ZM177.85,834.78l3.76-11.31,1.17.42-3.76,11.28-1.17-.38ZM180.74,832.52c0-1.55.64-2.33,1.92-2.33s1.92.78,1.92,2.33-.64,2.33-1.92,2.33-1.92-.78-1.92-2.33ZM182.38,831.7c-.05.16-.07.42-.07.81s.02.66.07.82.14.24.28.24.23-.08.28-.24c.05-.16.07-.43.07-.82s-.02-.65-.07-.81c-.05-.15-.14-.23-.28-.23s-.23.08-.28.23Z"/>
    <path class="st16" d="M188.93,827.62c.13.77.2,1.51.2,2.22s-.06,1.44-.19,2.17c-.13.73-.28,1.36-.46,1.9-.38,1.12-.72,1.92-1.01,2.42l-.19.34h-2.03c.36-.82.71-1.93,1.03-3.32.33-1.39.49-2.56.49-3.5s-.12-2.01-.38-3.21c-.25-1.2-.5-2.16-.76-2.89l-.38-1.09h2.03c.15.27.35.7.59,1.3.25.6.45,1.17.62,1.7.17.53.31,1.18.45,1.95Z"/>
  </g>
  <g>
    <circle class="st16" cx="47.7" cy="70.45" r="12"/>
    <path class="st17" d="M56.6,70.75h0c0-4.6-3.7-8.3-8.4-8.6v-.8c0-.2-.2-.4-.5-.4s-.5.2-.5.4v.8c-4.7.2-8.4,4-8.4,8.6,0,.08.2.41.5.4.18,0,.2,0,.3-.1,1.5-1.4,3.5-1.4,5,0,0,0,.2.1.3.1s.2,0,.3-.1c.6-.6,1.3-.9,2.1-1v5.9c0,1.2,1,2.2,2.3,2.2s2.42-1.01,2.3-2.2c-.03-.3-.2-.4-.5-.4s-.5.2-.5.4c0,.7-.6,1.3-1.4,1.3s-1.4-.6-1.4-1.3v-5.9c.7,0,1.4.4,2.1,1,.1.1.5.1.6,0,1.5-1.4,3.5-1.4,5,0,.1.1.4.1.6,0,.1,0,.2-.1.2-.3ZM50.2,69.85c-.8-.5-1.6-.8-2.4-.8h-.1c-.8,0-1.7.3-2.4.8-.2-3,.6-5.3,1.5-6.3.6-.7,1.2-.7,1.9,0,1,1,1.8,3.3,1.5,6.3ZM39.8,69.75c.4-3.2,2.9-5.8,6.1-6.6-.9,1.2-1.7,3.4-1.5,6.6-1.4-.8-3.1-.8-4.6,0ZM51.1,69.75c.2-3.1-.6-5.4-1.5-6.6,3.2.8,5.7,3.3,6.1,6.6-1.4-.8-3.1-.8-4.6,0Z"/>
  </g>
  <g>
    <circle class="st16" cx="48.28" cy="382.9" r="12"/>
    <path class="st17" d="M57.18,383.2h0c0-4.6-3.7-8.3-8.4-8.6v-.8c0-.2-.2-.4-.5-.4s-.5.2-.5.4v.8c-4.7.2-8.4,4-8.4,8.6,0,.08.2.41.5.4.18,0,.2,0,.3-.1,1.5-1.4,3.5-1.4,5,0,0,0,.2.1.3.1s.2,0,.3-.1c.6-.6,1.3-.9,2.1-1v5.9c0,1.2,1,2.2,2.3,2.2s2.42-1.01,2.3-2.2c-.03-.3-.2-.4-.5-.4s-.5.2-.5.4c0,.7-.6,1.3-1.4,1.3s-1.4-.6-1.4-1.3v-5.9c.7,0,1.4.4,2.1,1,.1.1.5.1.6,0,1.5-1.4,3.5-1.4,5,0,.1.1.4.1.6,0,.1,0,.2-.1.2-.3ZM50.78,382.3c-.8-.5-1.6-.8-2.4-.8h-.1c-.8,0-1.7.3-2.4.8-.2-3,.6-5.3,1.5-6.3.6-.7,1.2-.7,1.9,0,1,1,1.8,3.3,1.5,6.3ZM40.38,382.2c.4-3.2,2.9-5.8,6.1-6.6-.9,1.2-1.7,3.4-1.5,6.6-1.4-.8-3.1-.8-4.6,0ZM51.68,382.2c.2-3.1-.6-5.4-1.5-6.6,3.2.8,5.7,3.3,6.1,6.6-1.4-.8-3.1-.8-4.6,0Z"/>
  </g>
  <g class="st5">
    <g class="st5">
      <path class="st17" d="M87.58,614.46v-10.88h7.04v1.92h-4.83v2.54h3.87v1.89h-3.87v2.61h4.83v1.92h-7.04Z"/>
      <path class="st17" d="M95.49,606.46h2.29l1.28,2.48,1.3-2.48h2.29l-2.27,3.92,2.27,4.08h-2.29l-1.3-2.45-1.28,2.45h-2.29l2.19-4.02-2.19-3.98Z"/>
      <path class="st17" d="M108.27,608.28h-1.97v3.28c0,.32,0,.55.02.68s.07.25.18.34c.1.1.26.14.47.14l1.22-.03.1,1.71c-.71.16-1.26.24-1.63.24-.96,0-1.62-.22-1.97-.65s-.53-1.23-.53-2.39v-3.33h-.94v-1.82h.94v-2.22h2.14v2.22h1.97v1.82Z"/>
      <path class="st17" d="M109.66,614.46v-8h2.13v.85c.9-.53,1.75-.88,2.56-1.04v2.16c-.86.18-1.61.37-2.22.56l-.32.11v5.36h-2.14Z"/>
      <path class="st17" d="M117.77,612.44c.25.22.61.33,1.08.33.99,0,1.88-.03,2.66-.1l.45-.05.03,1.58c-1.23.3-2.34.45-3.33.45-1.21,0-2.08-.32-2.62-.96-.54-.64-.82-1.68-.82-3.12,0-2.87,1.18-4.3,3.54-4.3s3.49,1.21,3.49,3.62l-.16,1.49h-4.7c.01.49.14.85.39,1.06ZM120.13,609.74c0-.64-.1-1.09-.3-1.34-.2-.25-.56-.38-1.06-.38s-.86.13-1.07.39c-.21.26-.32.7-.33,1.32h2.77Z"/>
      <path class="st17" d="M125.92,614.46h-2.14v-8h2.13v.45c.74-.43,1.37-.64,1.89-.64.86,0,1.53.25,2,.75.98-.5,1.88-.75,2.69-.75,1.06,0,1.79.31,2.2.92.41.61.62,1.59.62,2.94v4.34h-2.14v-4.27c0-.68-.07-1.19-.22-1.51s-.45-.49-.9-.49c-.34,0-.76.08-1.25.22l-.24.08c.04.8.06,1.41.06,1.82v4.14h-2.14v-4.11c0-.79-.07-1.35-.21-1.67-.14-.33-.44-.49-.91-.49-.42,0-.83.08-1.23.22l-.19.06v5.98Z"/>
      <path class="st17" d="M139.35,612.44c.25.22.61.33,1.08.33.99,0,1.88-.03,2.66-.1l.45-.05.03,1.58c-1.23.3-2.34.45-3.33.45-1.21,0-2.08-.32-2.62-.96-.54-.64-.82-1.68-.82-3.12,0-2.87,1.18-4.3,3.54-4.3s3.49,1.21,3.49,3.62l-.16,1.49h-4.7c.01.49.14.85.39,1.06ZM141.71,609.74c0-.64-.1-1.09-.3-1.34-.2-.25-.56-.38-1.06-.38s-.86.13-1.07.39c-.21.26-.32.7-.33,1.32h2.77Z"/>
      <path class="st17" d="M155.68,603.26v11.2h-2.13v-.34c-.75.35-1.39.53-1.94.53-1.16,0-1.97-.34-2.43-1.01-.46-.67-.69-1.74-.69-3.19s.27-2.52.82-3.18c.55-.67,1.38-1,2.49-1,.34,0,.82.05,1.42.16l.3.06v-3.23h2.14ZM153.31,612.54l.22-.05v-4.21c-.59-.11-1.11-.16-1.57-.16-.86,0-1.3.77-1.3,2.3,0,.83.1,1.42.29,1.78.19.35.51.53.95.53s.91-.06,1.4-.19Z"/>
      <path class="st17" d="M157.66,614.46v-8h2.13v.85c.9-.53,1.75-.88,2.56-1.04v2.16c-.86.18-1.61.37-2.22.56l-.32.11v5.36h-2.14Z"/>
      <path class="st17" d="M162.88,606.46h2.11l1.46,6.18h.37l1.46-6.18h2.11l-2.82,11.36h-2.1l.88-3.36h-1.5l-1.97-8Z"/>
    </g>
  </g>
  <g>
    <circle class="st16" cx="45.01" cy="570.32" r="12"/>
    <path class="st17" d="M53.91,570.62h0c0-4.6-3.7-8.3-8.4-8.6v-.8c0-.2-.2-.4-.5-.4s-.5.2-.5.4v.8c-4.7.2-8.4,4-8.4,8.6,0,.08.2.41.5.4.18,0,.2,0,.3-.1,1.5-1.4,3.5-1.4,5,0,0,0,.2.1.3.1s.2,0,.3-.1c.6-.6,1.3-.9,2.1-1v5.9c0,1.2,1,2.2,2.3,2.2s2.42-1.01,2.3-2.2c-.03-.3-.2-.4-.5-.4s-.5.2-.5.4c0,.7-.6,1.3-1.4,1.3s-1.4-.6-1.4-1.3v-5.9c.7,0,1.4.4,2.1,1,.1.1.5.1.6,0,1.5-1.4,3.5-1.4,5,0,.1.1.4.1.6,0,.1,0,.2-.1.2-.3ZM47.51,569.72c-.8-.5-1.6-.8-2.4-.8h-.1c-.8,0-1.7.3-2.4.8-.2-3,.6-5.3,1.5-6.3.6-.7,1.2-.7,1.9,0,1,1,1.8,3.3,1.5,6.3ZM37.11,569.62c.4-3.2,2.9-5.8,6.1-6.6-.9,1.2-1.7,3.4-1.5,6.6-1.4-.8-3.1-.8-4.6,0ZM48.41,569.62c.2-3.1-.6-5.4-1.5-6.6,3.2.8,5.7,3.3,6.1,6.6-1.4-.8-3.1-.8-4.6,0Z"/>
  </g>
  <g class="st5">
    <g class="st5">
      <path class="st17" d="M87.64,112.96v-10.88h7.04v1.92h-4.83v2.54h3.87v1.89h-3.87v2.61h4.83v1.92h-7.04Z"/>
      <path class="st17" d="M95.55,104.96h2.29l1.28,2.48,1.3-2.48h2.29l-2.27,3.92,2.27,4.08h-2.29l-1.3-2.45-1.28,2.45h-2.29l2.19-4.02-2.19-3.98Z"/>
      <path class="st17" d="M108.33,106.79h-1.97v3.28c0,.32,0,.55.02.68s.07.25.18.34c.1.1.26.14.47.14l1.22-.03.1,1.71c-.71.16-1.26.24-1.63.24-.96,0-1.62-.22-1.97-.65s-.53-1.23-.53-2.39v-3.33h-.94v-1.82h.94v-2.22h2.14v2.22h1.97v1.82Z"/>
      <path class="st17" d="M109.72,112.96v-8h2.13v.85c.9-.53,1.75-.88,2.56-1.04v2.16c-.86.18-1.61.37-2.22.56l-.32.11v5.36h-2.14Z"/>
      <path class="st17" d="M117.83,110.94c.25.22.61.33,1.08.33.99,0,1.88-.03,2.66-.1l.45-.05.03,1.58c-1.23.3-2.34.45-3.33.45-1.21,0-2.08-.32-2.62-.96-.54-.64-.82-1.68-.82-3.12,0-2.87,1.18-4.3,3.54-4.3s3.49,1.21,3.49,3.62l-.16,1.49h-4.7c.01.49.14.85.39,1.06ZM120.19,108.24c0-.64-.1-1.09-.3-1.34-.2-.25-.56-.38-1.06-.38s-.86.13-1.07.39c-.21.26-.32.7-.33,1.32h2.77Z"/>
      <path class="st17" d="M125.98,112.96h-2.14v-8h2.13v.45c.74-.43,1.37-.64,1.89-.64.86,0,1.53.25,2,.75.98-.5,1.88-.75,2.69-.75,1.06,0,1.79.31,2.2.92.41.61.62,1.59.62,2.94v4.34h-2.14v-4.27c0-.68-.07-1.19-.22-1.51s-.45-.49-.9-.49c-.34,0-.76.08-1.25.22l-.24.08c.04.8.06,1.41.06,1.82v4.14h-2.14v-4.11c0-.79-.07-1.35-.21-1.67-.14-.33-.44-.49-.91-.49-.42,0-.83.08-1.23.22l-.19.06v5.98Z"/>
      <path class="st17" d="M139.41,110.94c.25.22.61.33,1.08.33.99,0,1.88-.03,2.66-.1l.45-.05.03,1.58c-1.23.3-2.34.45-3.33.45-1.21,0-2.08-.32-2.62-.96-.54-.64-.82-1.68-.82-3.12,0-2.87,1.18-4.3,3.54-4.3s3.49,1.21,3.49,3.62l-.16,1.49h-4.7c.01.49.14.85.39,1.06ZM141.77,108.24c0-.64-.1-1.09-.3-1.34-.2-.25-.56-.38-1.06-.38s-.86.13-1.07.39c-.21.26-.32.7-.33,1.32h2.77Z"/>
      <path class="st17" d="M148.33,104.96h2.11l.98,6.18h.38l1.22-6.02h2.21l1.22,6.02h.38l.98-6.18h2.11l-1.52,8h-3.36l-.91-4.9-.91,4.9h-3.36l-1.52-8Z"/>
      <path class="st17" d="M163.44,110.94c.25.22.61.33,1.08.33.99,0,1.88-.03,2.66-.1l.45-.05.03,1.58c-1.23.3-2.34.45-3.33.45-1.21,0-2.08-.32-2.62-.96-.54-.64-.82-1.68-.82-3.12,0-2.87,1.18-4.3,3.54-4.3s3.49,1.21,3.49,3.62l-.16,1.49h-4.7c.01.49.14.85.39,1.06ZM165.8,108.24c0-.64-.1-1.09-.3-1.34-.2-.25-.56-.38-1.06-.38s-.86.13-1.07.39c-.21.26-.32.7-.33,1.32h2.77Z"/>
      <path class="st17" d="M173.88,106.79h-1.97v3.28c0,.32,0,.55.02.68.02.13.07.25.18.34s.26.14.47.14l1.22-.03.1,1.71c-.71.16-1.26.24-1.63.24-.96,0-1.62-.22-1.97-.65-.35-.43-.53-1.23-.53-2.39v-3.33h-.94v-1.82h.94v-2.22h2.14v2.22h1.97v1.82Z"/>
    </g>
  </g>
</svg>