<?xml version="1.0" encoding="UTF-8"?>
<svg id="Livello_1" xmlns="http://www.w3.org/2000/svg" version="1.1" viewBox="0 0 232.9 732">
  <!-- Generator: Adobe Illustrator 29.6.1, SVG Export Plug-In . SVG Version: 2.1.1 Build 9)  -->
  <defs>
    <style>
      .st0 {
        fill: #f99;
      }

      .st0, .st1, .st2, .st3, .st4, .st5, .st6, .st7, .st8, .st9, .st10, .st11, .st12, .st13, .st14 {
        isolation: isolate;
      }

      .st1 {
        fill: #400;
      }

      .st15 {
        fill: none;
        stroke: #3c3430;
        stroke-miterlimit: 9.8;
        stroke-width: 2px;
      }

      .st2 {
        fill: #9cf;
      }

      .st16 {
        fill: #39322e;
      }

      .st3 {
        fill: #0b70d6;
      }

      .st4 {
        fill: #cce5ff;
      }

      .st17, .st5 {
        fill: #fff;
      }

      .st6 {
        fill: #900;
      }

      .st7 {
        fill: #e6e6e6;
      }

      .st18 {
        fill: #2b2b2b;
        opacity: .9;
      }

      .st8 {
        fill: #57abff;
      }

      .st9 {
        fill: #004487;
      }

      .st10 {
        fill: #cfcfcf;
      }

      .st11 {
        fill: #f66;
      }

      .st12 {
        fill: #fcc;
      }

      .st13 {
        fill: #f33;
      }

      .st14 {
        fill: #001f40;
      }
    </style>
  </defs>
  <rect class="st18" x="-.8" width="233.7" height="732"/>
  <rect class="st1" x="26.4" y="90.3" width="181.6" height="37" rx="5.6" ry="5.6"/>
  <rect class="st15" x="25.9" y="90.8" width="182.5" height="36" rx="4.8" ry="4.8"/>
  <path class="st6" d="M32,131.2h170.4c3.1,0,5.6,2.5,5.6,5.6v26.4H26.4v-26.4c0-3.1,2.5-5.6,5.6-5.6Z"/>
  <g>
    <path class="st17" d="M55.1,75.7l3.1-13.6h5.2l3.1,13.6h-2.8l-.5-2.5h-4.8l-.5,2.5h-2.8ZM60.3,64.4l-1.4,6.5h3.7l-1.4-6.5h-1Z"/>
    <path class="st17" d="M72.9,65.4c1.4,0,2.4.4,3.1,1.2.6.8,1,2.1,1,4.1s-.4,3.3-1.1,4.1c-.7.8-2,1.1-3.9,1.1s-1.6,0-3.1-.2h-.8v-14h2.7v4.3c.9-.4,1.6-.5,2.2-.5ZM71.9,73.5c.9,0,1.5-.2,1.8-.6.3-.4.5-1.2.5-2.3,0-1.8-.6-2.7-1.7-2.7s-1,0-1.5.2h-.3v5.4c.6,0,1,0,1.2,0Z"/>
    <path class="st17" d="M79.5,66.8c.7-.9,1.9-1.4,3.5-1.4s2.8.5,3.5,1.4c.7.9,1.1,2.2,1.1,3.9,0,3.5-1.5,5.3-4.6,5.3s-4.6-1.8-4.6-5.3.4-2.9,1.1-3.9ZM81.5,72.9c.3.5.8.7,1.5.7s1.2-.2,1.5-.7c.3-.5.4-1.2.4-2.3s-.1-1.8-.4-2.2c-.3-.5-.8-.7-1.5-.7s-1.2.2-1.5.7c-.3.5-.4,1.2-.4,2.2s.1,1.8.4,2.3Z"/>
    <path class="st17" d="M88.5,65.7h2.8l1.6,7.7h.6l1.7-7.7h2.7l-2.4,10h-4.6l-2.4-10Z"/>
    <path class="st17" d="M101.9,73.2c.3.3.8.4,1.3.4,1.2,0,2.3,0,3.3-.1h.6c0,0,0,1.9,0,1.9-1.5.4-2.9.6-4.2.6s-2.6-.4-3.3-1.2c-.7-.8-1-2.1-1-3.9,0-3.6,1.5-5.4,4.4-5.4s4.4,1.5,4.4,4.5l-.2,1.9h-5.9c0,.6.2,1.1.5,1.3ZM104.9,69.8c0-.8-.1-1.4-.4-1.7-.3-.3-.7-.5-1.3-.5s-1.1.2-1.3.5c-.3.3-.4.9-.4,1.6h3.5Z"/>
    <path class="st17" d="M112.9,75.7l3.1-13.6h5.2l3.1,13.6h-2.8l-.5-2.5h-4.8l-.5,2.5h-2.8ZM118.1,64.4l-1.4,6.5h3.7l-1.4-6.5h-1Z"/>
    <path class="st17" d="M124.7,65.7h2.8l1.6,7.7h.6l1.7-7.7h2.7l-2.4,10h-4.6l-2.4-10Z"/>
    <path class="st17" d="M138.1,73.2c.3.3.8.4,1.3.4,1.2,0,2.3,0,3.3-.1h.6c0,0,0,1.9,0,1.9-1.5.4-2.9.6-4.2.6s-2.6-.4-3.3-1.2c-.7-.8-1-2.1-1-3.9,0-3.6,1.5-5.4,4.4-5.4s4.4,1.5,4.4,4.5l-.2,1.9h-5.9c0,.6.2,1.1.5,1.3ZM141.1,69.8c0-.8-.1-1.4-.4-1.7-.3-.3-.7-.5-1.3-.5s-1.1.2-1.3.5c-.3.3-.4.9-.4,1.6h3.5Z"/>
    <path class="st17" d="M145.6,75.7v-10h2.7v1.1c1.1-.7,2.2-1.1,3.2-1.3v2.7c-1.1.2-2,.5-2.8.7h-.4v6.8h-2.7Z"/>
    <path class="st17" d="M160.7,68.8v4.2c0,.3,0,.5.2.7,0,.1.2.2.5.3v2c-.8,0-1.3,0-1.7-.1-.4,0-.8-.3-1.2-.6-1,.5-1.9.7-2.9.7-2.1,0-3.1-1.1-3.1-3.3s.3-1.8.9-2.3c.6-.4,1.5-.7,2.6-.8l2.1-.2v-.6c0-.4,0-.7-.3-.9-.2-.2-.5-.2-.9-.2l-3.8.2v-1.9c1.3-.4,2.7-.6,4-.6s2.2.3,2.8.8.9,1.4.9,2.6ZM156.2,71.4c-.7,0-1.1.5-1.1,1.2s.3,1.1,1,1.1,1.1,0,1.7-.2h.3v-2.2l-1.8.2Z"/>
    <path class="st17" d="M172.3,76.9c0,1.1-.4,2-1.3,2.5s-2.1.8-3.6.8-2.7-.2-3.5-.6c-.8-.4-1.2-1.1-1.2-2.2s.5-1.6,1.4-2.4c-.5-.3-.7-.8-.7-1.5s.2-.7.6-1.3l.2-.3c-.9-.7-1.4-1.6-1.4-2.9s.4-2.2,1.1-2.8,1.8-.9,3.1-.9,1.1,0,1.7.2h.3c0,0,3.2,0,3.2,0v2.1h-1.5c.3.3.4.8.4,1.2,0,1.3-.3,2.3-1,2.8-.7.5-1.7.8-3.2.8s-.6,0-.8,0c-.1.3-.2.6-.2.9s.1.4.3.5.8.1,1.6.1c1.7,0,2.8.2,3.4.7s.9,1.2.9,2.4ZM165.4,77.2c0,.6.7.9,2.1.9s2.1-.3,2.1-1-.1-.6-.4-.7c-.2-.1-.7-.2-1.5-.2h-1.8c-.4.2-.5.6-.5,1ZM165.6,69c0,1,.5,1.5,1.5,1.5s1.5-.5,1.5-1.5-.5-1.5-1.5-1.5-1.5.5-1.5,1.5Z"/>
    <path class="st17" d="M176.6,73.2c.3.3.8.4,1.3.4,1.2,0,2.3,0,3.3-.1h.6c0,0,0,1.9,0,1.9-1.5.4-2.9.6-4.2.6s-2.6-.4-3.3-1.2c-.7-.8-1-2.1-1-3.9,0-3.6,1.5-5.4,4.4-5.4s4.4,1.5,4.4,4.5l-.2,1.9h-5.9c0,.6.2,1.1.5,1.3ZM179.6,69.8c0-.8-.1-1.4-.4-1.7-.3-.3-.7-.5-1.3-.5s-1.1.2-1.3.5c-.3.3-.4.9-.4,1.6h3.5Z"/>
  </g>
  <g>
    <circle class="st16" cx="35.7" cy="68.8" r="12"/>
    <g id="Layer_1">
      <path class="st17" d="M35.7,59c-2.2,0-4,1.7-4,3.8v5.7c-1.5,1.3-2.3,3.2-2.1,5.1.4,2.7,2.6,4.7,5.3,5,3.5.3,6.7-2.3,6.7-5.7s-.7-3.2-2.1-4.3v-5.6c0-2.2-1.8-4-4-4ZM40.6,72.8c0,2.9-2.7,5-5.6,4.8-2.2-.2-4.1-1.9-4.3-4.2-.2-1.7.5-3.3,1.9-4.3,0,0,.2-.2.2-.4v-5.8c0-1.6,1.3-2.9,2.9-2.9s2.9,1.3,2.9,2.9v5.8c0,.2,0,.2.2.4,1.2.9,1.8,2.2,1.8,3.7Z"/>
      <path class="st17" d="M37.6,70.2v-6c0-1-.9-1.8-1.9-1.8s-1.9.9-1.9,1.8v6.1c-1.1.8-1.6,2.1-1.3,3.3.5,2.1,3.4,3,5.3,1.7.8-.6,1.3-1.6,1.3-2.4-.1-1.1-.7-2.1-1.5-2.6ZM37.1,74.4c-1.3,1-3.2.3-3.5-1.1-.2-1,.2-1.9,1.1-2.4.2,0,.2-.2.2-.4v-6.3c0-.4.4-.9.9-.9s.9.3.9.9v6.3c0,.2,0,.3.2.4.7.4,1.2,1.1,1.2,1.9-.1.5-.4,1.1-.9,1.6Z"/>
    </g>
  </g>
  <g>
    <path class="st17" d="M81.3,111.2v-9.6h6v1.4h-4.5v2.7h3.7v1.3h-3.7v2.8h4.5v1.4h-6Z"/>
    <path class="st17" d="M88.2,104.2h1.6l1.4,2.4,1.4-2.4h1.6l-2.1,3.4,2.1,3.6h-1.6l-1.4-2.4-1.4,2.4h-1.6l2-3.5-2-3.5Z"/>
    <path class="st17" d="M99.1,105.5h-1.9v3.1c0,.6,0,.9.1,1.1s.3.3.6.3h1.1s0,1.2,0,1.2c-.6.1-1.1.2-1.4.2-.8,0-1.3-.2-1.6-.5-.3-.4-.4-1-.4-2.1v-3.2h-.9v-1.3h.9v-2h1.5v2h1.9v1.3Z"/>
    <path class="st17" d="M100.4,111.2v-7h1.5v.8c.8-.5,1.6-.8,2.4-1v1.5c-.8.2-1.5.4-2.1.6h-.3v5h-1.5Z"/>
    <path class="st17" d="M110.4,109.9h.4s0,1.1,0,1.1c-1.1.2-2,.3-2.8.3s-1.8-.3-2.2-.9c-.5-.6-.7-1.5-.7-2.7,0-2.5,1-3.7,3-3.7s2.9,1.1,2.9,3.2v1.1h-4.4c0,.6.1,1,.4,1.3.2.3.7.4,1.4.4s1.3,0,2,0ZM109.5,107.1c0-.7-.1-1.2-.3-1.4s-.6-.4-1.1-.4-.9.1-1.1.4c-.2.3-.4.8-.4,1.4h3Z"/>
    <path class="st17" d="M114,111.2h-1.5v-7h1.5v.4c.7-.4,1.3-.6,1.8-.6.8,0,1.4.2,1.8.7.8-.5,1.7-.7,2.5-.7s1.4.3,1.8.8c.3.5.5,1.4.5,2.6v3.8h-1.5v-3.7c0-.8,0-1.3-.2-1.6-.2-.3-.5-.5-1-.5s-.9,0-1.4.3h-.2c0,.3.1.9.1,1.9v3.6h-1.5v-3.6c0-.8,0-1.4-.2-1.7s-.5-.5-1-.5-.9,0-1.3.3h-.2v5.5Z"/>
    <path class="st17" d="M129.2,109.9h.4s0,1.1,0,1.1c-1.1.2-2,.3-2.8.3s-1.8-.3-2.2-.9c-.5-.6-.7-1.5-.7-2.7,0-2.5,1-3.7,3-3.7s2.9,1.1,2.9,3.2v1.1h-4.4c0,.6.1,1,.4,1.3.2.3.7.4,1.4.4s1.3,0,2,0ZM128.4,107.1c0-.7-.1-1.2-.3-1.4s-.6-.4-1.1-.4-.9.1-1.1.4c-.2.3-.4.8-.4,1.4h3Z"/>
    <path class="st17" d="M135.9,111.2h-1.5v-9.9h1.5v3.3c.7-.3,1.3-.5,1.9-.5.9,0,1.6.3,1.9.8s.5,1.4.5,2.6v3.8h-1.5v-3.7c0-.8,0-1.3-.2-1.6s-.5-.5-1-.5-.9,0-1.3.2h-.2v5.6Z"/>
    <path class="st17" d="M142.4,104.9c.5-.6,1.3-.9,2.4-.9s1.9.3,2.4.9c.5.6.7,1.5.7,2.7s-.2,2.1-.7,2.7-1.3.9-2.4.9-2-.3-2.4-.9c-.5-.6-.7-1.5-.7-2.7s.2-2.1.7-2.7ZM143.6,109.5c.2.4.6.6,1.3.6s1-.2,1.3-.6c.2-.4.3-1,.3-1.8s-.1-1.5-.3-1.8c-.2-.4-.6-.5-1.2-.5s-1,.2-1.2.5c-.2.4-.3,1-.3,1.8s.1,1.5.3,1.8Z"/>
    <path class="st17" d="M153.2,105.5h-1.9v3.1c0,.6,0,.9.1,1.1s.3.3.6.3h1.1s0,1.2,0,1.2c-.6.1-1.1.2-1.4.2-.8,0-1.3-.2-1.6-.5-.3-.4-.4-1-.4-2.1v-3.2h-.9v-1.3h.9v-2h1.5v2h1.9v1.3Z"/>
  </g>
  <g>
    <path class="st17" d="M73.8,151.7l2.4-9.6h3.1l2.4,9.6h-1.6l-.5-2.1h-3.7l-.5,2.1h-1.6ZM77.4,143.4l-1.2,4.9h3.1l-1.2-4.9h-.7Z"/>
    <path class="st17" d="M83,151.7v-9.9h1.5v9.9h-1.5Z"/>
    <path class="st17" d="M87.9,151.7h-1.5v-7h1.5v.4c.7-.4,1.3-.6,1.8-.6.8,0,1.4.2,1.8.7.8-.5,1.7-.7,2.5-.7s1.4.3,1.8.8c.3.5.5,1.4.5,2.6v3.8h-1.5v-3.7c0-.8,0-1.3-.2-1.6-.2-.3-.5-.5-1-.5s-.9,0-1.4.3h-.2c0,.3.1.9.1,1.9v3.6h-1.5v-3.6c0-.8,0-1.4-.2-1.7s-.5-.5-1-.5-.9,0-1.3.3h-.2v5.5Z"/>
    <path class="st17" d="M98.5,145.4c.5-.6,1.3-.9,2.4-.9s1.9.3,2.4.9c.5.6.7,1.5.7,2.7s-.2,2.1-.7,2.7-1.3.9-2.4.9-2-.3-2.4-.9c-.5-.6-.7-1.5-.7-2.7s.2-2.1.7-2.7ZM99.7,150c.2.4.6.6,1.3.6s1-.2,1.3-.6c.2-.4.3-1,.3-1.8s-.1-1.5-.3-1.8c-.2-.4-.6-.5-1.2-.5s-1,.2-1.2.5c-.2.4-.3,1-.3,1.8s.1,1.5.3,1.8Z"/>
    <path class="st17" d="M110.4,146.1c-1.1-.1-1.9-.2-2.4-.2s-.8,0-1,.2-.3.3-.3.6.1.4.3.5c.2.1.7.2,1.5.4s1.3.3,1.7.6c.3.3.5.8.5,1.5s-.2,1.3-.7,1.6-1.2.5-2.1.5-1.3,0-2.2-.2h-.4c0,0,0-1.3,0-1.3,1.1.1,1.9.2,2.4.2s.8,0,1.1-.2c.2-.1.3-.3.3-.6s-.1-.5-.3-.6-.7-.2-1.4-.4c-.8-.1-1.3-.3-1.7-.6-.4-.3-.5-.8-.5-1.5s.2-1.3.7-1.6c.5-.4,1.1-.5,1.9-.5s1.3,0,2.2.2h.4c0,0,0,1.4,0,1.4Z"/>
    <path class="st17" d="M115.9,146h-1.9v3.1c0,.6,0,.9.1,1.1s.3.3.6.3h1.1s0,1.2,0,1.2c-.6.1-1.1.2-1.4.2-.8,0-1.3-.2-1.6-.5-.3-.4-.4-1-.4-2.1v-3.2h-.9v-1.3h.9v-2h1.5v2h1.9v1.3Z"/>
    <path class="st17" d="M122.8,144.5c.5,0,1.1,0,1.8.2h.4c0,0,0,1.3,0,1.3-.7,0-1.3-.1-1.6-.1-.7,0-1.2.2-1.4.5s-.4.9-.4,1.8.1,1.5.4,1.8.7.5,1.5.5h1.6c0-.1,0,1.1,0,1.1-.9.2-1.7.3-2.1.3-1.1,0-1.8-.3-2.2-.9-.4-.6-.7-1.5-.7-2.8s.2-2.2.7-2.8c.5-.6,1.2-.8,2.2-.8Z"/>
    <path class="st17" d="M131.3,150.4h.4s0,1.1,0,1.1c-1.1.2-2,.3-2.8.3s-1.8-.3-2.2-.9c-.5-.6-.7-1.5-.7-2.7,0-2.5,1-3.7,3-3.7s2.9,1.1,2.9,3.2v1.1h-4.4c0,.6.1,1,.4,1.3.2.3.7.4,1.4.4s1.3,0,2,0ZM130.5,147.6c0-.7-.1-1.2-.3-1.4s-.6-.4-1.1-.4-.9.1-1.1.4c-.2.3-.4.8-.4,1.4h3Z"/>
    <path class="st17" d="M133.5,151.7v-7h1.5v.8c.8-.5,1.6-.8,2.4-1v1.5c-.8.2-1.5.4-2.1.6h-.3v5h-1.5Z"/>
    <path class="st17" d="M142.3,146h-1.9v3.1c0,.6,0,.9.1,1.1s.3.3.6.3h1.1s0,1.2,0,1.2c-.6.1-1.1.2-1.4.2-.8,0-1.3-.2-1.6-.5-.3-.4-.4-1-.4-2.1v-3.2h-.9v-1.3h.9v-2h1.5v2h1.9v1.3Z"/>
    <path class="st17" d="M148.7,146.8v3.2c0,.2,0,.4.2.5s.2.2.5.2v1.2c-.8,0-1.5-.2-1.9-.5-.7.3-1.5.5-2.3.5-1.4,0-2.1-.7-2.1-2.2s.2-1.2.6-1.5,1-.5,1.7-.6l1.8-.2v-.5c0-.4,0-.6-.2-.8-.2-.1-.4-.2-.7-.2-.6,0-1.3,0-2.2.1h-.4s0-1,0-1c1-.2,2-.4,2.8-.4s1.5.2,1.8.6.6,1,.6,1.8ZM145.6,148.6c-.6,0-1,.4-1,1s.3,1,.9,1,1,0,1.5-.2h.3v-1.9l-1.6.2Z"/>
    <path class="st17" d="M150.6,143.5v-1.6h1.5v1.6h-1.5ZM150.6,151.7v-7h1.5v7h-1.5Z"/>
    <path class="st17" d="M155.5,151.7h-1.5v-7h1.5v.4c.7-.4,1.3-.6,1.9-.6.9,0,1.6.3,1.9.8s.5,1.4.5,2.6v3.8h-1.5v-3.7c0-.8,0-1.3-.2-1.6-.2-.3-.5-.5-1-.5s-.9,0-1.4.3h-.2v5.5Z"/>
  </g>
  <path class="st12" d="M31.2,259.3h170.8c3.1,0,5.6,2.5,5.6,5.6v27H25.6v-27c0-3.1,2.5-5.6,5.6-5.6Z" transform="translate(233.3 551.3) rotate(180)"/>
  <rect class="st13" x="27" y="163.2" width="181.6" height="32" transform="translate(235.5 358.5) rotate(180)"/>
  <g>
    <path class="st17" d="M91.6,173h1.6l-2.4,9.6h-3.1l-2.4-9.6h1.6l1.9,8.2h.7l1.9-8.2Z"/>
    <path class="st17" d="M99,181.4h.4s0,1.1,0,1.1c-1.1.2-2,.3-2.8.3s-1.8-.3-2.2-.9c-.5-.6-.7-1.5-.7-2.7,0-2.5,1-3.7,3-3.7s2.9,1.1,2.9,3.2v1.1h-4.4c0,.6.1,1,.4,1.3.2.3.7.4,1.4.4s1.3,0,2,0ZM98.2,178.6c0-.7-.1-1.2-.3-1.4s-.6-.4-1.1-.4-.9.1-1.1.4c-.2.3-.4.8-.4,1.4h3Z"/>
    <path class="st17" d="M101.1,182.6v-7h1.5v.8c.8-.5,1.6-.8,2.4-1v1.5c-.8.2-1.5.4-2.1.6h-.3v5h-1.5Z"/>
    <path class="st17" d="M105.5,175.6h1.5l1.5,5.7h.4l1.5-5.7h1.5l-2.7,10h-1.5l.8-3h-1.2l-1.8-7Z"/>
    <path class="st17" d="M116.2,182.6v-9.9h1.5v9.9h-1.5Z"/>
    <path class="st17" d="M119.7,174.4v-1.6h1.5v1.6h-1.5ZM119.7,182.6v-7h1.5v7h-1.5Z"/>
    <path class="st17" d="M124.6,182.6h-1.5v-9.9h1.5v5.7h.9c0,0,1.7-2.8,1.7-2.8h1.7l-2,3.3,2.1,3.7h-1.7l-1.7-3h-.9v3Z"/>
    <path class="st17" d="M134.9,181.4h.4s0,1.1,0,1.1c-1.1.2-2,.3-2.8.3s-1.8-.3-2.2-.9c-.5-.6-.7-1.5-.7-2.7,0-2.5,1-3.7,3-3.7s2.9,1.1,2.9,3.2v1.1h-4.4c0,.6.1,1,.4,1.3.2.3.7.4,1.4.4s1.3,0,2,0ZM134.1,178.6c0-.7-.1-1.2-.3-1.4s-.6-.4-1.1-.4-.9.1-1.1.4c-.2.3-.4.8-.4,1.4h3Z"/>
    <path class="st17" d="M137.1,182.6v-9.9h1.5v9.9h-1.5Z"/>
    <path class="st17" d="M139.9,175.6h1.5l1.5,5.7h.4l1.5-5.7h1.5l-2.7,10h-1.5l.8-3h-1.2l-1.8-7Z"/>
  </g>
  <rect class="st11" x="27.3" y="195.3" width="181.6" height="32" transform="translate(236.2 422.5) rotate(180)"/>
  <g>
    <path class="st17" d="M105.5,214.7h-5.4v-9.6h1.6v8.2h3.8v1.4Z"/>
    <path class="st17" d="M106.6,206.5v-1.6h1.5v1.6h-1.5ZM106.6,214.7v-7h1.5v7h-1.5Z"/>
    <path class="st17" d="M111.5,214.7h-1.5v-9.9h1.5v5.7h.9c0,0,1.7-2.8,1.7-2.8h1.7l-2,3.3,2.1,3.7h-1.7l-1.7-3h-.9v3Z"/>
    <path class="st17" d="M121.7,213.4h.4s0,1.1,0,1.1c-1.1.2-2,.3-2.8.3s-1.8-.3-2.2-.9c-.5-.6-.7-1.5-.7-2.7,0-2.5,1-3.7,3-3.7s2.9,1.1,2.9,3.2v1.1h-4.4c0,.6.1,1,.4,1.3.2.3.7.4,1.4.4s1.3,0,2,0ZM120.9,210.6c0-.7-.1-1.2-.3-1.4s-.6-.4-1.1-.4-.9.1-1.1.4c-.2.3-.4.8-.4,1.4h3Z"/>
    <path class="st17" d="M124,214.7v-9.9h1.5v9.9h-1.5Z"/>
    <path class="st17" d="M126.8,207.7h1.5l1.5,5.7h.4l1.5-5.7h1.5l-2.7,10h-1.5l.8-3h-1.2l-1.8-7Z"/>
  </g>
  <rect class="st0" x="27.1" y="227.3" width="181.6" height="32" transform="translate(235.8 486.6) rotate(180)"/>
  <g>
    <path class="st16" d="M87.7,247.1c-1.5,0-2.5-.4-3-1.2-.6-.8-.9-2-.9-3.7s.3-3,.9-3.8c.6-.8,1.6-1.2,3-1.2s2.4.4,3,1.2c.6.8.9,2.1.9,3.8s-.1,2-.4,2.7c-.2.7-.6,1.2-1.2,1.6l1.2,1.9-1.4.7-1.2-2c-.2,0-.5,0-.9,0ZM85.9,244.9c.3.5.9.8,1.8.8s1.5-.3,1.8-.8c.3-.5.5-1.4.5-2.7s-.2-2.2-.5-2.8c-.3-.6-.9-.9-1.8-.9s-1.5.3-1.8.9c-.3.6-.5,1.5-.5,2.8s.2,2.2.5,2.7Z"/>
    <path class="st16" d="M97.5,240h1.5v7h-1.5v-.4c-.7.4-1.3.6-1.9.6-1,0-1.6-.3-1.9-.8-.3-.5-.5-1.4-.5-2.7v-3.7h1.5v3.7c0,.8,0,1.4.2,1.7.1.3.5.4,1,.4s1,0,1.4-.3h.2v-5.5Z"/>
    <path class="st16" d="M100.8,238.8v-1.6h1.5v1.6h-1.5ZM100.8,247v-7h1.5v7h-1.5Z"/>
    <path class="st16" d="M108,241.3h-1.9v3.1c0,.6,0,.9.1,1.1s.3.3.6.3h1.1s0,1.2,0,1.2c-.6.1-1.1.2-1.4.2-.8,0-1.3-.2-1.6-.5-.3-.4-.4-1-.4-2.1v-3.2h-.9v-1.3h.9v-2h1.5v2h1.9v1.3Z"/>
    <path class="st16" d="M114.2,245.7h.4s0,1.1,0,1.1c-1.1.2-2,.3-2.8.3s-1.8-.3-2.2-.9c-.5-.6-.7-1.5-.7-2.7,0-2.5,1-3.7,3-3.7s2.9,1.1,2.9,3.2v1.1h-4.4c0,.6.1,1,.4,1.3.2.3.7.4,1.4.4s1.3,0,2,0ZM113.3,242.9c0-.7-.1-1.2-.3-1.4s-.6-.4-1.1-.4-.9.1-1.1.4c-.2.3-.4.8-.4,1.4h3Z"/>
    <path class="st16" d="M119.5,247v-9.9h1.5v9.9h-1.5Z"/>
    <path class="st16" d="M122.9,238.8v-1.6h1.5v1.6h-1.5ZM122.9,247v-7h1.5v7h-1.5Z"/>
    <path class="st16" d="M127.8,247h-1.5v-9.9h1.5v5.7h.9c0,0,1.7-2.8,1.7-2.8h1.7l-2,3.3,2.1,3.7h-1.7l-1.7-3h-.9v3Z"/>
    <path class="st16" d="M138.1,245.7h.4s0,1.1,0,1.1c-1.1.2-2,.3-2.8.3s-1.8-.3-2.2-.9c-.5-.6-.7-1.5-.7-2.7,0-2.5,1-3.7,3-3.7s2.9,1.1,2.9,3.2v1.1h-4.4c0,.6.1,1,.4,1.3.2.3.7.4,1.4.4s1.3,0,2,0ZM137.3,242.9c0-.7-.1-1.2-.3-1.4s-.6-.4-1.1-.4-.9.1-1.1.4c-.2.3-.4.8-.4,1.4h3Z"/>
    <path class="st16" d="M140.3,247v-9.9h1.5v9.9h-1.5Z"/>
    <path class="st16" d="M143.1,240h1.5l1.5,5.7h.4l1.5-5.7h1.5l-2.7,10h-1.5l.8-3h-1.2l-1.8-7Z"/>
  </g>
  <rect class="st15" x="25.9" y="131.3" width="182.5" height="160.6" rx="4.1" ry="4.1"/>
  <g>
    <path class="st16" d="M97.2,276.7h-2v3h-1.6v-9.6h3.5c2.2,0,3.3,1.1,3.3,3.2s-.3,1.9-.8,2.5c-.5.6-1.4.9-2.4.9ZM95.3,275.3h1.9c1.1,0,1.7-.7,1.7-2s-.1-1.1-.4-1.4-.7-.4-1.3-.4h-1.9v3.9Z"/>
    <path class="st16" d="M102.2,273.4c.5-.6,1.3-.9,2.4-.9s1.9.3,2.4.9c.5.6.7,1.5.7,2.7s-.2,2.1-.7,2.7-1.3.9-2.4.9-2-.3-2.4-.9c-.5-.6-.7-1.5-.7-2.7s.2-2.1.7-2.7ZM103.3,278c.2.4.6.6,1.3.6s1-.2,1.3-.6c.2-.4.3-1,.3-1.8s-.1-1.5-.3-1.8c-.2-.4-.6-.5-1.2-.5s-1,.2-1.2.5c-.2.4-.3,1-.3,1.8s.1,1.5.3,1.8Z"/>
    <path class="st16" d="M114.1,274.1c-1.1-.1-1.9-.2-2.4-.2s-.8,0-1,.2-.3.3-.3.6.1.4.3.5c.2.1.7.2,1.5.4s1.3.3,1.7.6c.3.3.5.8.5,1.5s-.2,1.3-.7,1.6-1.2.5-2.1.5-1.3,0-2.2-.2h-.4c0,0,0-1.3,0-1.3,1.1.1,1.9.2,2.4.2s.8,0,1.1-.2c.2-.1.3-.3.3-.6s-.1-.5-.3-.6-.7-.2-1.4-.4c-.8-.1-1.3-.3-1.7-.6-.4-.3-.5-.8-.5-1.5s.2-1.3.7-1.6c.5-.4,1.1-.5,1.9-.5s1.3,0,2.2.2h.4c0,0,0,1.4,0,1.4Z"/>
    <path class="st16" d="M120.6,274.1c-1.1-.1-1.9-.2-2.4-.2s-.8,0-1,.2-.3.3-.3.6.1.4.3.5c.2.1.7.2,1.5.4s1.3.3,1.7.6c.3.3.5.8.5,1.5s-.2,1.3-.7,1.6-1.2.5-2.1.5-1.3,0-2.2-.2h-.4c0,0,0-1.3,0-1.3,1.1.1,1.9.2,2.4.2s.8,0,1.1-.2c.2-.1.3-.3.3-.6s-.1-.5-.3-.6-.7-.2-1.4-.4c-.8-.1-1.3-.3-1.7-.6-.4-.3-.5-.8-.5-1.5s.2-1.3.7-1.6c.5-.4,1.1-.5,1.9-.5s1.3,0,2.2.2h.4c0,0,0,1.4,0,1.4Z"/>
    <path class="st16" d="M122.3,271.5v-1.6h1.5v1.6h-1.5ZM122.3,279.7v-7h1.5v7h-1.5Z"/>
    <path class="st16" d="M129,272.5c1,0,1.7.3,2.1.8.4.5.6,1.5.6,2.8s-.3,2.3-.8,2.8-1.4.8-2.7.8-1.1,0-2.1-.1h-.5v-9.9h1.5v3.2c.6-.3,1.2-.4,1.8-.4ZM128.3,278.5c.7,0,1.2-.2,1.5-.5.2-.4.4-.9.4-1.8s-.1-1.4-.3-1.8c-.2-.3-.6-.5-1-.5s-.9,0-1.3.2h-.2v4.3c.5,0,.9,0,1,0Z"/>
    <path class="st16" d="M133.3,279.7v-9.9h1.5v9.9h-1.5Z"/>
    <path class="st16" d="M141.7,278.4h.4s0,1.1,0,1.1c-1.1.2-2,.3-2.8.3s-1.8-.3-2.2-.9c-.5-.6-.7-1.5-.7-2.7,0-2.5,1-3.7,3-3.7s2.9,1.1,2.9,3.2v1.1h-4.4c0,.6.1,1,.4,1.3.2.3.7.4,1.4.4s1.3,0,2,0ZM140.9,275.6c0-.7-.1-1.2-.3-1.4s-.6-.4-1.1-.4-.9.1-1.1.4c-.2.3-.4.8-.4,1.4h3Z"/>
  </g>
  <path class="st5" d="M32.8,351.9h170.4c3.1,0,5.6,2.5,5.6,5.6v26.4H27.2v-26.4c0-3.1,2.5-5.6,5.6-5.6Z"/>
  <g>
    <path class="st17" d="M56,334.4v-13.6h4.7l3.3,11.2h.2v-11.2h2.8v13.6h-4.5l-3.4-11.2h-.2v11.2h-2.8Z"/>
    <path class="st17" d="M72.2,331.9c.3.3.8.4,1.3.4,1.2,0,2.3,0,3.3-.1h.6c0,0,0,1.9,0,1.9-1.5.4-2.9.6-4.2.6s-2.6-.4-3.3-1.2c-.7-.8-1-2.1-1-3.9,0-3.6,1.5-5.4,4.4-5.4s4.4,1.5,4.4,4.5l-.2,1.9h-5.9c0,.6.2,1.1.5,1.3ZM75.1,328.5c0-.8-.1-1.4-.4-1.7-.3-.3-.7-.5-1.3-.5s-1.1.2-1.3.5c-.3.3-.4.9-.4,1.6h3.5Z"/>
    <path class="st17" d="M87.4,327.5v4.2c0,.3,0,.5.2.7,0,.1.2.2.5.3v2c-.8,0-1.3,0-1.7-.1-.4,0-.8-.3-1.2-.6-1,.5-1.9.7-2.9.7-2.1,0-3.1-1.1-3.1-3.3s.3-1.8.9-2.3c.6-.4,1.5-.7,2.6-.8l2.1-.2v-.6c0-.4,0-.7-.3-.9-.2-.2-.5-.2-.9-.2l-3.8.2v-1.9c1.3-.4,2.7-.6,4-.6s2.2.3,2.8.8.9,1.4.9,2.6ZM82.9,330.2c-.7,0-1.1.5-1.1,1.2s.3,1.1,1,1.1,1.1,0,1.7-.2h.3v-2.2l-1.8.2Z"/>
    <path class="st17" d="M89.9,334.4v-10h2.7v1.1c1.1-.7,2.2-1.1,3.2-1.3v2.7c-1.1.2-2,.5-2.8.7h-.4v6.8h-2.7Z"/>
    <path class="st17" d="M100.9,334.4l3.1-13.6h5.2l3.1,13.6h-2.8l-.5-2.5h-4.8l-.5,2.5h-2.8ZM106.1,323.1l-1.4,6.5h3.7l-1.4-6.5h-1Z"/>
    <path class="st17" d="M112.6,324.4h2.8l1.6,7.7h.6l1.7-7.7h2.7l-2.4,10h-4.6l-2.4-10Z"/>
    <path class="st17" d="M126,331.9c.3.3.8.4,1.3.4,1.2,0,2.3,0,3.3-.1h.6c0,0,0,1.9,0,1.9-1.5.4-2.9.6-4.2.6s-2.6-.4-3.3-1.2c-.7-.8-1-2.1-1-3.9,0-3.6,1.5-5.4,4.4-5.4s4.4,1.5,4.4,4.5l-.2,1.9h-5.9c0,.6.2,1.1.5,1.3ZM129,328.5c0-.8-.1-1.4-.4-1.7-.3-.3-.7-.5-1.3-.5s-1.1.2-1.3.5c-.3.3-.4.9-.4,1.6h3.5Z"/>
    <path class="st17" d="M133.5,334.4v-10h2.7v1.1c1.1-.7,2.2-1.1,3.2-1.3v2.7c-1.1.2-2,.5-2.8.7h-.4v6.8h-2.7Z"/>
    <path class="st17" d="M148.6,327.5v4.2c0,.3,0,.5.2.7,0,.1.2.2.5.3v2c-.8,0-1.3,0-1.7-.1-.4,0-.8-.3-1.2-.6-1,.5-1.9.7-2.9.7-2.1,0-3.1-1.1-3.1-3.3s.3-1.8.9-2.3c.6-.4,1.5-.7,2.6-.8l2.1-.2v-.6c0-.4,0-.7-.3-.9-.2-.2-.5-.2-.9-.2l-3.8.2v-1.9c1.3-.4,2.7-.6,4-.6s2.2.3,2.8.8.9,1.4.9,2.6ZM144.1,330.2c-.7,0-1.1.5-1.1,1.2s.3,1.1,1,1.1,1.1,0,1.7-.2h.3v-2.2l-1.8.2Z"/>
    <path class="st17" d="M160.3,335.7c0,1.1-.4,2-1.3,2.5s-2.1.8-3.6.8-2.7-.2-3.5-.6c-.8-.4-1.2-1.1-1.2-2.2s.5-1.6,1.4-2.4c-.5-.3-.7-.8-.7-1.5s.2-.7.6-1.3l.2-.3c-.9-.7-1.4-1.6-1.4-2.9s.4-2.2,1.1-2.8,1.8-.9,3.1-.9,1.1,0,1.7.2h.3c0,0,3.2,0,3.2,0v2.1h-1.5c.3.3.4.8.4,1.2,0,1.3-.3,2.3-1,2.8-.7.5-1.7.8-3.2.8s-.6,0-.8,0c-.1.3-.2.6-.2.9s.1.4.3.5.8.1,1.6.1c1.7,0,2.8.2,3.4.7s.9,1.2.9,2.4ZM153.3,336c0,.6.7.9,2.1.9s2.1-.3,2.1-1-.1-.6-.4-.7c-.2-.1-.7-.2-1.5-.2h-1.8c-.4.2-.5.6-.5,1ZM153.5,327.8c0,1,.5,1.5,1.5,1.5s1.5-.5,1.5-1.5-.5-1.5-1.5-1.5-1.5.5-1.5,1.5Z"/>
    <path class="st17" d="M164.6,331.9c.3.3.8.4,1.3.4,1.2,0,2.3,0,3.3-.1h.6c0,0,0,1.9,0,1.9-1.5.4-2.9.6-4.2.6s-2.6-.4-3.3-1.2c-.7-.8-1-2.1-1-3.9,0-3.6,1.5-5.4,4.4-5.4s4.4,1.5,4.4,4.5l-.2,1.9h-5.9c0,.6.2,1.1.5,1.3ZM167.5,328.5c0-.8-.1-1.4-.4-1.7-.3-.3-.7-.5-1.3-.5s-1.1.2-1.3.5c-.3.3-.4.9-.4,1.6h3.5Z"/>
  </g>
  <g>
    <circle class="st16" cx="35.5" cy="327.6" r="12"/>
    <g id="Layer_11" data-name="Layer_1">
      <path class="st17" d="M35.5,317.7c-2.2,0-4,1.7-4,3.8v5.7c-1.5,1.3-2.3,3.2-2.1,5.1.4,2.7,2.6,4.7,5.3,5,3.5.3,6.7-2.3,6.7-5.7s-.7-3.2-2.1-4.3v-5.6c0-2.2-1.8-4-4-4ZM40.4,331.5c0,2.9-2.7,5-5.6,4.8-2.2-.2-4.1-1.9-4.3-4.2-.2-1.7.5-3.3,1.9-4.3,0,0,.2-.2.2-.4v-5.8c0-1.6,1.3-2.9,2.9-2.9s2.9,1.3,2.9,2.9v5.8c0,.2,0,.2.2.4,1.2.9,1.8,2.2,1.8,3.7Z"/>
      <path class="st17" d="M37.3,329v-6c0-1-.9-1.8-1.9-1.8s-1.9.9-1.9,1.8v6.1c-1.1.8-1.6,2.1-1.3,3.3.5,2.1,3.4,3,5.3,1.7.8-.6,1.3-1.6,1.3-2.4-.1-1.1-.7-2.1-1.5-2.6ZM36.9,333.2c-1.3,1-3.2.3-3.5-1.1-.2-1,.2-1.9,1.1-2.4.2,0,.2-.2.2-.4v-6.3c0-.4.4-.9.9-.9s.9.3.9.9v6.3c0,.2,0,.3.2.4.7.4,1.2,1.1,1.2,1.9-.1.5-.4,1.1-.9,1.6Z"/>
    </g>
  </g>
  <g>
    <path class="st16" d="M107.2,372.4h-5.4v-9.6h1.6v8.2h3.8v1.4Z"/>
    <path class="st16" d="M108.3,364.2v-1.6h1.5v1.6h-1.5ZM108.3,372.4v-7h1.5v7h-1.5Z"/>
    <path class="st16" d="M113.2,372.4h-1.5v-9.9h1.5v5.7h.9c0,0,1.7-2.8,1.7-2.8h1.7l-2,3.3,2.1,3.7h-1.7l-1.7-3h-.9v3Z"/>
    <path class="st16" d="M123.5,371.1h.4s0,1.1,0,1.1c-1.1.2-2,.3-2.8.3s-1.8-.3-2.2-.9c-.5-.6-.7-1.5-.7-2.7,0-2.5,1-3.7,3-3.7s2.9,1.1,2.9,3.2v1.1h-4.4c0,.6.1,1,.4,1.3.2.3.7.4,1.4.4s1.3,0,2,0ZM122.7,368.3c0-.7-.1-1.2-.3-1.4s-.6-.4-1.1-.4-.9.1-1.1.4c-.2.3-.4.8-.4,1.4h3Z"/>
    <path class="st16" d="M125.7,372.4v-9.9h1.5v9.9h-1.5Z"/>
    <path class="st16" d="M128.5,365.4h1.5l1.5,5.7h.4l1.5-5.7h1.5l-2.7,10h-1.5l.8-3h-1.2l-1.8-7Z"/>
  </g>
  <path class="st10" d="M33.1,416h170.8c3.1,0,5.6,2.5,5.6,5.6v27H27.5v-27c0-3.1,2.5-5.6,5.6-5.6Z" transform="translate(237.1 864.7) rotate(180)"/>
  <rect class="st7" x="27.8" y="383.9" width="181.6" height="32" transform="translate(237.1 799.9) rotate(180)"/>
  <g>
    <path class="st16" d="M87.9,403.5c-1.5,0-2.5-.4-3-1.2-.6-.8-.9-2-.9-3.7s.3-3,.9-3.8c.6-.8,1.6-1.2,3-1.2s2.4.4,3,1.2c.6.8.9,2.1.9,3.8s-.1,2-.4,2.7c-.2.7-.6,1.2-1.2,1.6l1.2,1.9-1.4.7-1.2-2c-.2,0-.5,0-.9,0ZM86.1,401.3c.3.5.9.8,1.8.8s1.5-.3,1.8-.8c.3-.5.5-1.4.5-2.7s-.2-2.2-.5-2.8c-.3-.6-.9-.9-1.8-.9s-1.5.3-1.8.9c-.3.6-.5,1.5-.5,2.8s.2,2.2.5,2.7Z"/>
    <path class="st16" d="M97.7,396.3h1.5v7h-1.5v-.4c-.7.4-1.3.6-1.9.6-1,0-1.6-.3-1.9-.8-.3-.5-.5-1.4-.5-2.7v-3.7h1.5v3.7c0,.8,0,1.4.2,1.7.1.3.5.4,1,.4s1,0,1.4-.3h.2v-5.5Z"/>
    <path class="st16" d="M101,395.1v-1.6h1.5v1.6h-1.5ZM101,403.3v-7h1.5v7h-1.5Z"/>
    <path class="st16" d="M108.2,397.6h-1.9v3.1c0,.6,0,.9.1,1.1s.3.3.6.3h1.1s0,1.2,0,1.2c-.6.1-1.1.2-1.4.2-.8,0-1.3-.2-1.6-.5-.3-.4-.4-1-.4-2.1v-3.2h-.9v-1.3h.9v-2h1.5v2h1.9v1.3Z"/>
    <path class="st16" d="M114.4,402.1h.4s0,1.1,0,1.1c-1.1.2-2,.3-2.8.3s-1.8-.3-2.2-.9c-.5-.6-.7-1.5-.7-2.7,0-2.5,1-3.7,3-3.7s2.9,1.1,2.9,3.2v1.1h-4.4c0,.6.1,1,.4,1.3s.7.4,1.4.4,1.3,0,2,0ZM113.6,399.3c0-.7-.1-1.2-.3-1.4s-.6-.4-1.1-.4-.9.1-1.1.4c-.2.3-.4.8-.4,1.4h3Z"/>
    <path class="st16" d="M119.7,403.3v-9.9h1.5v9.9h-1.5Z"/>
    <path class="st16" d="M123.2,395.1v-1.6h1.5v1.6h-1.5ZM123.2,403.3v-7h1.5v7h-1.5Z"/>
    <path class="st16" d="M128.1,403.3h-1.5v-9.9h1.5v5.7h.9c0,0,1.7-2.8,1.7-2.8h1.7l-2,3.3,2.1,3.7h-1.7l-1.7-3h-.9v3Z"/>
    <path class="st16" d="M138.4,402.1h.4s0,1.1,0,1.1c-1.1.2-2,.3-2.8.3s-1.8-.3-2.2-.9c-.5-.6-.7-1.5-.7-2.7,0-2.5,1-3.7,3-3.7s2.9,1.1,2.9,3.2v1.1h-4.4c0,.6.1,1,.4,1.3s.7.4,1.4.4,1.3,0,2,0ZM137.5,399.3c0-.7-.1-1.2-.3-1.4s-.6-.4-1.1-.4-.9.1-1.1.4c-.2.3-.4.8-.4,1.4h3Z"/>
    <path class="st16" d="M140.6,403.3v-9.9h1.5v9.9h-1.5Z"/>
    <path class="st16" d="M143.4,396.3h1.5l1.5,5.7h.4l1.5-5.7h1.5l-2.7,10h-1.5l.8-3h-1.2l-1.8-7Z"/>
  </g>
  <g>
    <path class="st16" d="M97.1,432.4h-2v3h-1.6v-9.6h3.5c2.2,0,3.3,1.1,3.3,3.2s-.3,1.9-.8,2.5c-.5.6-1.4.9-2.4.9ZM95.2,431h1.9c1.1,0,1.7-.7,1.7-2s-.1-1.1-.4-1.4-.7-.4-1.3-.4h-1.9v3.9Z"/>
    <path class="st16" d="M102.1,429.1c.5-.6,1.3-.9,2.4-.9s1.9.3,2.4.9c.5.6.7,1.5.7,2.7s-.2,2.1-.7,2.7-1.3.9-2.4.9-2-.3-2.4-.9c-.5-.6-.7-1.5-.7-2.7s.2-2.1.7-2.7ZM103.2,433.7c.2.4.6.6,1.3.6s1-.2,1.3-.6c.2-.4.3-1,.3-1.8s-.1-1.5-.3-1.8c-.2-.4-.6-.5-1.2-.5s-1,.2-1.2.5c-.2.4-.3,1-.3,1.8s.1,1.5.3,1.8Z"/>
    <path class="st16" d="M114,429.8c-1.1-.1-1.9-.2-2.4-.2s-.8,0-1,.2c-.2.1-.3.3-.3.6s.1.4.3.5c.2.1.7.2,1.5.4.8.1,1.3.3,1.7.6s.5.8.5,1.5-.2,1.3-.7,1.6c-.5.3-1.2.5-2.1.5s-1.3,0-2.2-.2h-.4c0,0,0-1.3,0-1.3,1.1.1,1.9.2,2.4.2s.8,0,1.1-.2c.2-.1.3-.3.3-.6s-.1-.5-.3-.6-.7-.2-1.4-.3c-.8-.1-1.3-.3-1.7-.6-.4-.3-.5-.8-.5-1.5s.2-1.3.7-1.6c.5-.4,1.1-.5,1.9-.5s1.3,0,2.2.2h.4c0,0,0,1.4,0,1.4Z"/>
    <path class="st16" d="M120.6,429.8c-1.1-.1-1.9-.2-2.4-.2s-.8,0-1,.2c-.2.1-.3.3-.3.6s.1.4.3.5c.2.1.7.2,1.5.4.8.1,1.3.3,1.7.6s.5.8.5,1.5-.2,1.3-.7,1.6c-.5.3-1.2.5-2.1.5s-1.3,0-2.2-.2h-.4c0,0,0-1.3,0-1.3,1.1.1,1.9.2,2.4.2s.8,0,1.1-.2c.2-.1.3-.3.3-.6s-.1-.5-.3-.6-.7-.2-1.4-.3c-.8-.1-1.3-.3-1.7-.6-.4-.3-.5-.8-.5-1.5s.2-1.3.7-1.6c.5-.4,1.1-.5,1.9-.5s1.3,0,2.2.2h.4c0,0,0,1.4,0,1.4Z"/>
    <path class="st16" d="M122.3,427.2v-1.6h1.5v1.6h-1.5ZM122.3,435.4v-7h1.5v7h-1.5Z"/>
    <path class="st16" d="M128.9,428.2c1,0,1.7.3,2.1.8.4.5.6,1.5.6,2.8s-.3,2.3-.8,2.8c-.5.5-1.4.8-2.7.8s-1.1,0-2.1-.1h-.5v-9.9h1.5v3.2c.6-.3,1.2-.4,1.8-.4ZM128.2,434.2c.7,0,1.2-.2,1.5-.5.2-.3.4-.9.4-1.8s-.1-1.4-.3-1.8-.6-.5-1-.5-.9,0-1.3.2h-.2v4.3c.5,0,.9,0,1,0Z"/>
    <path class="st16" d="M133.2,435.4v-9.9h1.5v9.9h-1.5Z"/>
    <path class="st16" d="M141.7,434.1h.4s0,1.1,0,1.1c-1.1.2-2,.3-2.8.3s-1.8-.3-2.2-.9c-.5-.6-.7-1.5-.7-2.7,0-2.5,1-3.7,3-3.7s2.9,1.1,2.9,3.2v1.1h-4.4c0,.6.1,1,.4,1.3s.7.4,1.4.4,1.3,0,2,0ZM140.8,431.3c0-.7-.1-1.2-.3-1.4s-.6-.4-1.1-.4-.9.1-1.1.4c-.2.3-.4.8-.4,1.4h3Z"/>
  </g>
  <rect class="st15" x="26.7" y="352" width="182.5" height="97.1" rx="4.1" ry="4.1"/>
  <rect class="st14" x="26.7" y="506.2" width="181.6" height="37" rx="5.6" ry="5.6"/>
  <rect class="st15" x="26.2" y="506.7" width="182.5" height="36" rx="4.8" ry="4.8"/>
  <path class="st9" d="M32.3,547.1h170.4c3.1,0,5.6,2.5,5.6,5.6v26.4H26.7v-26.4c0-3.1,2.5-5.6,5.6-5.6Z"/>
  <g>
    <path class="st17" d="M56.6,478h5.3c1.4,0,2.5.3,3.2.8.7.6,1.1,1.5,1.1,2.8s-.1,1.4-.3,1.8c-.2.4-.6.8-1.2,1.2.6.3,1,.6,1.3,1.1.3.5.4,1.1.4,2,0,1.3-.4,2.3-1.2,2.9-.8.6-1.9,1-3.3,1h-5.4v-13.6ZM61.8,480.3h-2.4v3.2h2.5c1,0,1.6-.5,1.6-1.6s-.5-1.6-1.6-1.6ZM61.9,485.9h-2.5v3.3h2.5c.6,0,1-.1,1.3-.4.3-.2.4-.7.4-1.3,0-1.1-.6-1.6-1.8-1.6Z"/>
    <path class="st17" d="M71.2,489c.3.3.8.4,1.3.4,1.2,0,2.3,0,3.3-.1h.6c0,0,0,1.9,0,1.9-1.5.4-2.9.6-4.2.6s-2.6-.4-3.3-1.2c-.7-.8-1-2.1-1-3.9,0-3.6,1.5-5.4,4.4-5.4s4.4,1.5,4.4,4.5l-.2,1.9h-5.9c0,.6.2,1.1.5,1.3ZM74.2,485.7c0-.8-.1-1.4-.4-1.7-.3-.3-.7-.5-1.3-.5s-1.1.2-1.3.5c-.3.3-.4.9-.4,1.6h3.5Z"/>
    <path class="st17" d="M78.9,491.6v-14h2.7v14h-2.7Z"/>
    <path class="st17" d="M84.7,482.7c.7-.9,1.9-1.4,3.5-1.4s2.8.5,3.5,1.4,1.1,2.2,1.1,3.9c0,3.5-1.5,5.3-4.6,5.3s-4.6-1.8-4.6-5.3.4-2.9,1.1-3.9ZM86.7,488.8c.3.5.8.7,1.5.7s1.2-.2,1.5-.7c.3-.5.4-1.2.4-2.3s-.1-1.8-.4-2.2c-.3-.5-.8-.7-1.5-.7s-1.2.2-1.5.7c-.3.5-.4,1.2-.4,2.2s.1,1.8.4,2.3Z"/>
    <path class="st17" d="M94,481.6h2.6l1.2,7.7h.5l1.5-7.5h2.8l1.5,7.5h.5l1.2-7.7h2.6l-1.9,10h-4.2l-1.1-6.1-1.1,6.1h-4.2l-1.9-10Z"/>
    <path class="st17" d="M113.7,491.6l3.1-13.6h5.2l3.1,13.6h-2.8l-.5-2.5h-4.8l-.5,2.5h-2.8ZM118.9,480.3l-1.4,6.5h3.7l-1.4-6.5h-1Z"/>
    <path class="st17" d="M125.4,481.6h2.8l1.6,7.7h.6l1.7-7.7h2.7l-2.4,10h-4.6l-2.4-10Z"/>
    <path class="st17" d="M138.9,489c.3.3.8.4,1.3.4,1.2,0,2.3,0,3.3-.1h.6c0,0,0,1.9,0,1.9-1.5.4-2.9.6-4.2.6s-2.6-.4-3.3-1.2c-.7-.8-1-2.1-1-3.9,0-3.6,1.5-5.4,4.4-5.4s4.4,1.5,4.4,4.5l-.2,1.9h-5.9c0,.6.2,1.1.5,1.3ZM141.8,485.7c0-.8-.1-1.4-.4-1.7-.3-.3-.7-.5-1.3-.5s-1.1.2-1.3.5c-.3.3-.4.9-.4,1.6h3.5Z"/>
    <path class="st17" d="M146.4,491.6v-10h2.7v1.1c1.1-.7,2.2-1.1,3.2-1.3v2.7c-1.1.2-2,.5-2.8.7h-.4v6.8h-2.7Z"/>
    <path class="st17" d="M161.5,484.7v4.2c0,.3,0,.5.2.7,0,.1.2.2.5.3v2c-.8,0-1.3,0-1.7-.1-.4,0-.8-.3-1.2-.6-1,.5-1.9.7-2.9.7-2.1,0-3.1-1.1-3.1-3.3s.3-1.8.9-2.3c.6-.4,1.5-.7,2.6-.8l2.1-.2v-.6c0-.4,0-.7-.3-.9-.2-.2-.5-.2-.9-.2l-3.8.2v-1.9c1.3-.4,2.7-.6,4-.6s2.2.3,2.8.8.9,1.4.9,2.6ZM157,487.3c-.7,0-1.1.5-1.1,1.2s.3,1.1,1,1.1,1.1,0,1.7-.2h.3v-2.2l-1.8.2Z"/>
    <path class="st17" d="M173.1,492.8c0,1.1-.4,2-1.3,2.5s-2.1.8-3.6.8-2.7-.2-3.5-.6c-.8-.4-1.2-1.1-1.2-2.2s.5-1.6,1.4-2.4c-.5-.3-.7-.8-.7-1.5s.2-.7.6-1.3l.2-.3c-.9-.7-1.4-1.6-1.4-2.9s.4-2.2,1.1-2.8,1.8-.9,3.1-.9,1.1,0,1.7.2h.3c0,0,3.2,0,3.2,0v2.1h-1.5c.3.3.4.8.4,1.2,0,1.3-.3,2.3-1,2.8-.7.5-1.7.8-3.2.8s-.6,0-.8,0c-.1.3-.2.6-.2.9s.1.4.3.5.8.1,1.6.1c1.7,0,2.8.2,3.4.7.6.4.9,1.2.9,2.4ZM166.2,493.1c0,.6.7.9,2.1.9s2.1-.3,2.1-1-.1-.6-.4-.7c-.2-.1-.7-.2-1.5-.2h-1.8c-.4.2-.5.6-.5,1ZM166.4,484.9c0,1,.5,1.5,1.5,1.5s1.5-.5,1.5-1.5-.5-1.5-1.5-1.5-1.5.5-1.5,1.5Z"/>
    <path class="st17" d="M177.4,489c.3.3.8.4,1.3.4,1.2,0,2.3,0,3.3-.1h.6c0,0,0,1.9,0,1.9-1.5.4-2.9.6-4.2.6s-2.6-.4-3.3-1.2c-.7-.8-1-2.1-1-3.9,0-3.6,1.5-5.4,4.4-5.4s4.4,1.5,4.4,4.5l-.2,1.9h-5.9c0,.6.2,1.1.5,1.3ZM180.4,485.7c0-.8-.1-1.4-.4-1.7-.3-.3-.7-.5-1.3-.5s-1.1.2-1.3.5c-.3.3-.4.9-.4,1.6h3.5Z"/>
  </g>
  <g>
    <circle class="st16" cx="36.1" cy="484.7" r="12"/>
    <g id="Layer_12" data-name="Layer_1">
      <path class="st17" d="M36.1,474.9c-2.2,0-4,1.7-4,3.8v5.7c-1.5,1.3-2.3,3.2-2.1,5.1.4,2.7,2.6,4.7,5.3,5,3.5.3,6.7-2.3,6.7-5.7s-.7-3.2-2.1-4.3v-5.6c0-2.2-1.8-4-4-4ZM41,488.7c0,2.9-2.7,5-5.6,4.8-2.2-.2-4.1-1.9-4.3-4.2-.2-1.7.5-3.3,1.9-4.3,0,0,.2-.2.2-.4v-5.8c0-1.6,1.3-2.9,2.9-2.9s2.9,1.3,2.9,2.9v5.8c0,.2,0,.2.2.4,1.2.9,1.8,2.2,1.8,3.7Z"/>
      <path class="st17" d="M37.9,486.1v-6c0-1-.9-1.8-1.9-1.8s-1.9.9-1.9,1.8v6.1c-1.1.8-1.6,2.1-1.3,3.3.5,2.1,3.4,3,5.3,1.7.8-.6,1.3-1.6,1.3-2.4-.1-1.1-.7-2.1-1.5-2.6ZM37.5,490.3c-1.3,1-3.2.3-3.5-1.1-.2-1,.2-1.9,1.1-2.4.2,0,.2-.2.2-.4v-6.3c0-.4.4-.9.9-.9s.9.3.9.9v6.3c0,.2,0,.3.2.4.7.4,1.2,1.1,1.2,1.9-.1.5-.4,1.1-.9,1.6Z"/>
    </g>
  </g>
  <g>
    <path class="st17" d="M79.6,528.2v-9.6h6v1.4h-4.5v2.7h3.7v1.3h-3.7v2.8h4.5v1.4h-6Z"/>
    <path class="st17" d="M86.5,521.2h1.6l1.4,2.4,1.4-2.4h1.6l-2.1,3.4,2.1,3.6h-1.6l-1.4-2.4-1.4,2.4h-1.6l2-3.5-2-3.5Z"/>
    <path class="st17" d="M97.5,522.5h-1.9v3.1c0,.6,0,.9.1,1.1s.3.3.6.3h1.1s0,1.2,0,1.2c-.6.1-1.1.2-1.4.2-.8,0-1.3-.2-1.6-.5s-.4-1-.4-2.1v-3.2h-.9v-1.3h.9v-2h1.5v2h1.9v1.3Z"/>
    <path class="st17" d="M98.7,528.2v-7h1.5v.8c.8-.5,1.6-.8,2.4-1v1.5c-.8.2-1.5.4-2.1.6h-.3v5h-1.5Z"/>
    <path class="st17" d="M108.7,527h.4s0,1.1,0,1.1c-1.1.2-2,.3-2.8.3s-1.8-.3-2.2-.9c-.5-.6-.7-1.5-.7-2.7,0-2.5,1-3.7,3-3.7s2.9,1.1,2.9,3.2v1.1h-4.4c0,.6.1,1,.4,1.3.2.3.7.4,1.4.4s1.3,0,2,0ZM107.8,524.2c0-.7-.1-1.2-.3-1.4s-.6-.4-1.1-.4-.9.1-1.1.4c-.2.3-.4.8-.4,1.4h3Z"/>
    <path class="st17" d="M112.3,528.2h-1.5v-7h1.5v.4c.7-.4,1.3-.6,1.8-.6.8,0,1.4.2,1.8.7.8-.5,1.7-.7,2.5-.7s1.4.3,1.8.8c.3.5.5,1.4.5,2.6v3.8h-1.5v-3.7c0-.8,0-1.3-.2-1.6-.2-.3-.5-.5-1-.5s-.9,0-1.4.3h-.2c0,.3.1.9.1,1.9v3.6h-1.5v-3.6c0-.8,0-1.4-.2-1.7s-.5-.5-1-.5-.9,0-1.3.3h-.2v5.5Z"/>
    <path class="st17" d="M127.5,527h.4s0,1.1,0,1.1c-1.1.2-2,.3-2.8.3s-1.8-.3-2.2-.9c-.5-.6-.7-1.5-.7-2.7,0-2.5,1-3.7,3-3.7s2.9,1.1,2.9,3.2v1.1h-4.4c0,.6.1,1,.4,1.3.2.3.7.4,1.4.4s1.3,0,2,0ZM126.7,524.2c0-.7-.1-1.2-.3-1.4s-.6-.4-1.1-.4-.9.1-1.1.4c-.2.3-.4.8-.4,1.4h3Z"/>
    <path class="st17" d="M135.4,521.1c.5,0,1.1,0,1.8.2h.4c0,0,0,1.3,0,1.3-.7,0-1.3-.1-1.6-.1-.7,0-1.2.2-1.4.5s-.4.9-.4,1.8.1,1.5.4,1.8.7.5,1.5.5h1.6c0-.1,0,1.1,0,1.1-.9.2-1.7.3-2.1.3-1.1,0-1.8-.3-2.2-.9-.4-.6-.7-1.5-.7-2.8s.2-2.2.7-2.8c.5-.6,1.2-.8,2.2-.8Z"/>
    <path class="st17" d="M139.2,522c.5-.6,1.3-.9,2.4-.9s1.9.3,2.4.9c.5.6.7,1.5.7,2.7s-.2,2.1-.7,2.7-1.3.9-2.4.9-2-.3-2.4-.9c-.5-.6-.7-1.5-.7-2.7s.2-2.1.7-2.7ZM140.4,526.5c.2.4.6.6,1.3.6s1-.2,1.3-.6c.2-.4.3-1,.3-1.8s-.1-1.5-.3-1.8c-.2-.4-.6-.5-1.2-.5s-1,.2-1.2.5c-.2.4-.3,1-.3,1.8s.1,1.5.3,1.8Z"/>
    <path class="st17" d="M146.4,528.2v-9.9h1.5v9.9h-1.5Z"/>
    <path class="st17" d="M155.5,518.3v9.9h-1.5v-.4c-.7.3-1.3.5-1.9.5-.9,0-1.6-.3-2-.8s-.6-1.5-.6-2.8.2-2.2.7-2.8c.5-.6,1.2-.9,2.2-.9s.9,0,1.6.2v-2.9h1.5ZM153.8,526.8h.2v-4.2c-.6,0-1.1-.1-1.6-.1-.9,0-1.4.8-1.4,2.4s.1,1.5.3,1.8c.2.3.6.5,1,.5s.9,0,1.4-.3Z"/>
  </g>
  <g>
    <path class="st17" d="M74.2,567.6l2.4-9.6h3.1l2.4,9.6h-1.6l-.5-2.1h-3.7l-.5,2.1h-1.6ZM77.8,559.3l-1.2,4.9h3.1l-1.2-4.9h-.7Z"/>
    <path class="st17" d="M83.3,567.6v-9.9h1.5v9.9h-1.5Z"/>
    <path class="st17" d="M88.3,567.6h-1.5v-7h1.5v.4c.7-.4,1.3-.6,1.8-.6.8,0,1.4.2,1.8.7.8-.5,1.7-.7,2.5-.7s1.4.3,1.8.8c.3.5.5,1.4.5,2.6v3.8h-1.5v-3.7c0-.8,0-1.3-.2-1.6-.2-.3-.5-.5-1-.5s-.9,0-1.4.3h-.2c0,.3.1.9.1,1.9v3.6h-1.5v-3.6c0-.8,0-1.4-.2-1.7s-.5-.5-1-.5-.9,0-1.3.3h-.2v5.5Z"/>
    <path class="st17" d="M98.9,561.3c.5-.6,1.3-.9,2.4-.9s1.9.3,2.4.9c.5.6.7,1.5.7,2.7s-.2,2.1-.7,2.7-1.3.9-2.4.9-2-.3-2.4-.9c-.5-.6-.7-1.5-.7-2.7s.2-2.1.7-2.7ZM100,565.9c.2.4.6.6,1.3.6s1-.2,1.3-.6c.2-.4.3-1,.3-1.8s-.1-1.5-.3-1.8c-.2-.4-.6-.5-1.2-.5s-1,.2-1.2.5c-.2.4-.3,1-.3,1.8s.1,1.5.3,1.8Z"/>
    <path class="st17" d="M110.8,562c-1.1-.1-1.9-.2-2.4-.2s-.8,0-1,.2c-.2.1-.3.3-.3.6s.1.4.3.5c.2.1.7.2,1.5.4.8.1,1.3.3,1.7.6s.5.8.5,1.5-.2,1.3-.7,1.6c-.5.3-1.2.5-2.1.5s-1.3,0-2.2-.2h-.4c0,0,0-1.3,0-1.3,1.1.1,1.9.2,2.4.2s.8,0,1.1-.2c.2-.1.3-.3.3-.6s-.1-.5-.3-.6-.7-.2-1.4-.3c-.8-.1-1.3-.3-1.7-.6-.4-.3-.5-.8-.5-1.5s.2-1.3.7-1.6c.5-.4,1.1-.5,1.9-.5s1.3,0,2.2.2h.4c0,0,0,1.4,0,1.4Z"/>
    <path class="st17" d="M116.3,561.9h-1.9v3.1c0,.6,0,.9.1,1.1s.3.3.6.3h1.1s0,1.2,0,1.2c-.6.1-1.1.2-1.4.2-.8,0-1.3-.2-1.6-.5-.3-.4-.4-1-.4-2.1v-3.2h-.9v-1.3h.9v-2h1.5v2h1.9v1.3Z"/>
    <path class="st17" d="M123.2,560.4c.5,0,1.1,0,1.8.2h.4c0,0,0,1.3,0,1.3-.7,0-1.3-.1-1.6-.1-.7,0-1.2.2-1.4.5s-.4.9-.4,1.8.1,1.5.4,1.8.7.5,1.5.5h1.6c0-.1,0,1.1,0,1.1-.9.2-1.7.3-2.1.3-1.1,0-1.8-.3-2.2-.9s-.7-1.5-.7-2.8.2-2.2.7-2.8c.5-.6,1.2-.8,2.2-.8Z"/>
    <path class="st17" d="M131.7,566.3h.4s0,1.1,0,1.1c-1.1.2-2,.3-2.8.3s-1.8-.3-2.2-.9c-.5-.6-.7-1.5-.7-2.7,0-2.5,1-3.7,3-3.7s2.9,1.1,2.9,3.2v1.1h-4.4c0,.6.1,1,.4,1.3s.7.4,1.4.4,1.3,0,2,0ZM130.8,563.5c0-.7-.1-1.2-.3-1.4s-.6-.4-1.1-.4-.9.1-1.1.4c-.2.3-.4.8-.4,1.4h3Z"/>
    <path class="st17" d="M133.8,567.6v-7h1.5v.8c.8-.5,1.6-.8,2.4-1v1.5c-.8.2-1.5.4-2.1.6h-.3v5h-1.5Z"/>
    <path class="st17" d="M142.6,561.9h-1.9v3.1c0,.6,0,.9.1,1.1s.3.3.6.3h1.1s0,1.2,0,1.2c-.6.1-1.1.2-1.4.2-.8,0-1.3-.2-1.6-.5-.3-.4-.4-1-.4-2.1v-3.2h-.9v-1.3h.9v-2h1.5v2h1.9v1.3Z"/>
    <path class="st17" d="M149.1,562.7v3.2c0,.2,0,.4.2.5,0,0,.2.2.5.2v1.2c-.8,0-1.5-.2-1.9-.5-.7.3-1.5.5-2.3.5-1.4,0-2.1-.7-2.1-2.2s.2-1.2.6-1.5,1-.5,1.7-.6l1.8-.2v-.5c0-.4,0-.6-.2-.8-.2-.1-.4-.2-.7-.2-.6,0-1.3,0-2.2.1h-.4s0-1,0-1c1-.2,2-.4,2.8-.4s1.5.2,1.8.6c.4.4.6,1,.6,1.8ZM145.9,564.5c-.6,0-1,.4-1,1s.3,1,.9,1,1,0,1.5-.2h.3v-1.9l-1.6.2Z"/>
    <path class="st17" d="M151,559.4v-1.6h1.5v1.6h-1.5ZM151,567.6v-7h1.5v7h-1.5Z"/>
    <path class="st17" d="M155.9,567.6h-1.5v-7h1.5v.4c.7-.4,1.3-.6,1.9-.6.9,0,1.6.3,1.9.8s.5,1.4.5,2.6v3.8h-1.5v-3.7c0-.8,0-1.3-.2-1.6-.2-.3-.5-.5-1-.5s-.9,0-1.4.3h-.2v5.5Z"/>
  </g>
  <path class="st4" d="M31.6,675.2h170.8c3.1,0,5.6,2.5,5.6,5.6v27H26v-27c0-3.1,2.5-5.6,5.6-5.6Z" transform="translate(234.1 1383) rotate(180)"/>
  <rect class="st3" x="27.3" y="579.1" width="181.6" height="32" transform="translate(236.3 1190.2) rotate(180)"/>
  <g>
    <path class="st17" d="M92,588.9h1.6l-2.4,9.6h-3.1l-2.4-9.6h1.6l1.9,8.2h.7l1.9-8.2Z"/>
    <path class="st17" d="M99.4,597.2h.4s0,1.1,0,1.1c-1.1.2-2,.3-2.8.3s-1.8-.3-2.2-.9c-.5-.6-.7-1.5-.7-2.7,0-2.5,1-3.7,3-3.7s2.9,1.1,2.9,3.2v1.1h-4.4c0,.6.1,1,.4,1.3s.7.4,1.4.4,1.3,0,2,0ZM98.5,594.5c0-.7-.1-1.2-.3-1.4s-.6-.4-1.1-.4-.9.1-1.1.4c-.2.3-.4.8-.4,1.4h3Z"/>
    <path class="st17" d="M101.5,598.5v-7h1.5v.8c.8-.5,1.6-.8,2.4-1v1.5c-.8.2-1.5.4-2.1.6h-.3v5h-1.5Z"/>
    <path class="st17" d="M105.9,591.5h1.5l1.5,5.7h.4l1.5-5.7h1.5l-2.7,10h-1.5l.8-3h-1.2l-1.8-7Z"/>
    <path class="st17" d="M116.6,598.5v-9.9h1.5v9.9h-1.5Z"/>
    <path class="st17" d="M120.1,590.3v-1.6h1.5v1.6h-1.5ZM120.1,598.5v-7h1.5v7h-1.5Z"/>
    <path class="st17" d="M125,598.5h-1.5v-9.9h1.5v5.7h.9c0,0,1.7-2.8,1.7-2.8h1.7l-2,3.3,2.1,3.7h-1.7l-1.7-3h-.9v3Z"/>
    <path class="st17" d="M135.2,597.2h.4s0,1.1,0,1.1c-1.1.2-2,.3-2.8.3s-1.8-.3-2.2-.9c-.5-.6-.7-1.5-.7-2.7,0-2.5,1-3.7,3-3.7s2.9,1.1,2.9,3.2v1.1h-4.4c0,.6.1,1,.4,1.3s.7.4,1.4.4,1.3,0,2,0ZM134.4,594.5c0-.7-.1-1.2-.3-1.4s-.6-.4-1.1-.4-.9.1-1.1.4c-.2.3-.4.8-.4,1.4h3Z"/>
    <path class="st17" d="M137.5,598.5v-9.9h1.5v9.9h-1.5Z"/>
    <path class="st17" d="M140.3,591.5h1.5l1.5,5.7h.4l1.5-5.7h1.5l-2.7,10h-1.5l.8-3h-1.2l-1.8-7Z"/>
  </g>
  <rect class="st8" x="27.7" y="611.1" width="181.6" height="32" transform="translate(236.9 1254.3) rotate(180)"/>
  <g>
    <path class="st17" d="M105.8,630.5h-5.4v-9.6h1.6v8.2h3.8v1.4Z"/>
    <path class="st17" d="M106.9,622.4v-1.6h1.5v1.6h-1.5ZM106.9,630.5v-7h1.5v7h-1.5Z"/>
    <path class="st17" d="M111.8,630.5h-1.5v-9.9h1.5v5.7h.9c0,0,1.7-2.8,1.7-2.8h1.7l-2,3.3,2.1,3.7h-1.7l-1.7-3h-.9v3Z"/>
    <path class="st17" d="M122.1,629.3h.4s0,1.1,0,1.1c-1.1.2-2,.3-2.8.3s-1.8-.3-2.2-.9c-.5-.6-.7-1.5-.7-2.7,0-2.5,1-3.7,3-3.7s2.9,1.1,2.9,3.2v1.1h-4.4c0,.6.1,1,.4,1.3.2.3.7.4,1.4.4s1.3,0,2,0ZM121.3,626.5c0-.7-.1-1.2-.3-1.4s-.6-.4-1.1-.4-.9.1-1.1.4c-.2.3-.4.8-.4,1.4h3Z"/>
    <path class="st17" d="M124.3,630.5v-9.9h1.5v9.9h-1.5Z"/>
    <path class="st17" d="M127.1,623.5h1.5l1.5,5.7h.4l1.5-5.7h1.5l-2.7,10h-1.5l.8-3h-1.2l-1.8-7Z"/>
  </g>
  <rect class="st2" x="27.5" y="643.2" width="181.6" height="32" transform="translate(236.5 1318.4) rotate(180)"/>
  <g>
    <path class="st16" d="M88,663c-1.5,0-2.5-.4-3-1.2-.6-.8-.9-2-.9-3.7s.3-3,.9-3.8c.6-.8,1.6-1.2,3-1.2s2.4.4,3,1.2c.6.8.9,2.1.9,3.8s-.1,2-.4,2.7c-.2.7-.6,1.2-1.2,1.6l1.2,1.9-1.4.7-1.2-2c-.2,0-.5,0-.9,0ZM86.2,660.8c.3.5.9.8,1.8.8s1.5-.3,1.8-.8c.3-.5.5-1.4.5-2.7s-.2-2.2-.5-2.8c-.3-.6-.9-.9-1.8-.9s-1.5.3-1.8.9c-.3.6-.5,1.5-.5,2.8s.2,2.2.5,2.7Z"/>
    <path class="st16" d="M97.8,655.8h1.5v7h-1.5v-.4c-.7.4-1.3.6-1.9.6-1,0-1.6-.3-1.9-.8-.3-.5-.5-1.4-.5-2.7v-3.7h1.5v3.7c0,.8,0,1.4.2,1.7.1.3.5.4,1,.4s1,0,1.4-.3h.2v-5.5Z"/>
    <path class="st16" d="M101.2,654.7v-1.6h1.5v1.6h-1.5ZM101.2,662.8v-7h1.5v7h-1.5Z"/>
    <path class="st16" d="M108.3,657.1h-1.9v3.1c0,.6,0,.9.1,1.1s.3.3.6.3h1.1s0,1.2,0,1.2c-.6.1-1.1.2-1.4.2-.8,0-1.3-.2-1.6-.5s-.4-1-.4-2.1v-3.2h-.9v-1.3h.9v-2h1.5v2h1.9v1.3Z"/>
    <path class="st16" d="M114.5,661.6h.4s0,1.1,0,1.1c-1.1.2-2,.3-2.8.3s-1.8-.3-2.2-.9c-.5-.6-.7-1.5-.7-2.7,0-2.5,1-3.7,3-3.7s2.9,1.1,2.9,3.2v1.1h-4.4c0,.6.1,1,.4,1.3.2.3.7.4,1.4.4s1.3,0,2,0ZM113.7,658.8c0-.7-.1-1.2-.3-1.4s-.6-.4-1.1-.4-.9.1-1.1.4c-.2.3-.4.8-.4,1.4h3Z"/>
    <path class="st16" d="M119.8,662.8v-9.9h1.5v9.9h-1.5Z"/>
    <path class="st16" d="M123.3,654.7v-1.6h1.5v1.6h-1.5ZM123.3,662.8v-7h1.5v7h-1.5Z"/>
    <path class="st16" d="M128.2,662.8h-1.5v-9.9h1.5v5.7h.9c0,0,1.7-2.8,1.7-2.8h1.7l-2,3.3,2.1,3.7h-1.7l-1.7-3h-.9v3Z"/>
    <path class="st16" d="M138.5,661.6h.4s0,1.1,0,1.1c-1.1.2-2,.3-2.8.3s-1.8-.3-2.2-.9c-.5-.6-.7-1.5-.7-2.7,0-2.5,1-3.7,3-3.7s2.9,1.1,2.9,3.2v1.1h-4.4c0,.6.1,1,.4,1.3.2.3.7.4,1.4.4s1.3,0,2,0ZM137.6,658.8c0-.7-.1-1.2-.3-1.4s-.6-.4-1.1-.4-.9.1-1.1.4c-.2.3-.4.8-.4,1.4h3Z"/>
    <path class="st16" d="M140.7,662.8v-9.9h1.5v9.9h-1.5Z"/>
    <path class="st16" d="M143.5,655.8h1.5l1.5,5.7h.4l1.5-5.7h1.5l-2.7,10h-1.5l.8-3h-1.2l-1.8-7Z"/>
  </g>
  <rect class="st15" x="26.2" y="547.2" width="182.5" height="160.6" rx="4.1" ry="4.1"/>
  <g>
    <path class="st16" d="M97.6,692.6h-2v3h-1.6v-9.6h3.5c2.2,0,3.3,1.1,3.3,3.2s-.3,1.9-.8,2.5c-.5.6-1.4.9-2.4.9ZM95.6,691.2h1.9c1.1,0,1.7-.7,1.7-2s-.1-1.1-.4-1.4-.7-.4-1.3-.4h-1.9v3.9Z"/>
    <path class="st16" d="M102.5,689.3c.5-.6,1.3-.9,2.4-.9s1.9.3,2.4.9c.5.6.7,1.5.7,2.7s-.2,2.1-.7,2.7-1.3.9-2.4.9-2-.3-2.4-.9c-.5-.6-.7-1.5-.7-2.7s.2-2.1.7-2.7ZM103.7,693.9c.2.4.6.6,1.3.6s1-.2,1.3-.6c.2-.4.3-1,.3-1.8s-.1-1.5-.3-1.8c-.2-.4-.6-.5-1.2-.5s-1,.2-1.2.5c-.2.4-.3,1-.3,1.8s.1,1.5.3,1.8Z"/>
    <path class="st16" d="M114.4,690c-1.1-.1-1.9-.2-2.4-.2s-.8,0-1,.2c-.2.1-.3.3-.3.6s.1.4.3.5c.2.1.7.2,1.5.4.8.1,1.3.3,1.7.6s.5.8.5,1.5-.2,1.3-.7,1.6c-.5.3-1.2.5-2.1.5s-1.3,0-2.2-.2h-.4c0,0,0-1.3,0-1.3,1.1.1,1.9.2,2.4.2s.8,0,1.1-.2c.2-.1.3-.3.3-.6s-.1-.5-.3-.6-.7-.2-1.4-.3c-.8-.1-1.3-.3-1.7-.6-.4-.3-.5-.8-.5-1.5s.2-1.3.7-1.6c.5-.4,1.1-.5,1.9-.5s1.3,0,2.2.2h.4c0,0,0,1.4,0,1.4Z"/>
    <path class="st16" d="M121,690c-1.1-.1-1.9-.2-2.4-.2s-.8,0-1,.2c-.2.1-.3.3-.3.6s.1.4.3.5c.2.1.7.2,1.5.4.8.1,1.3.3,1.7.6s.5.8.5,1.5-.2,1.3-.7,1.6c-.5.3-1.2.5-2.1.5s-1.3,0-2.2-.2h-.4c0,0,0-1.3,0-1.3,1.1.1,1.9.2,2.4.2s.8,0,1.1-.2c.2-.1.3-.3.3-.6s-.1-.5-.3-.6-.7-.2-1.4-.3c-.8-.1-1.3-.3-1.7-.6-.4-.3-.5-.8-.5-1.5s.2-1.3.7-1.6c.5-.4,1.1-.5,1.9-.5s1.3,0,2.2.2h.4c0,0,0,1.4,0,1.4Z"/>
    <path class="st16" d="M122.7,687.4v-1.6h1.5v1.6h-1.5ZM122.7,695.6v-7h1.5v7h-1.5Z"/>
    <path class="st16" d="M129.3,688.4c1,0,1.7.3,2.1.8.4.5.6,1.5.6,2.8s-.3,2.3-.8,2.8c-.5.5-1.4.8-2.7.8s-1.1,0-2.1-.1h-.5v-9.9h1.5v3.2c.6-.3,1.2-.4,1.8-.4ZM128.6,694.4c.7,0,1.2-.2,1.5-.5.2-.3.4-.9.4-1.8s-.1-1.4-.3-1.8-.6-.5-1-.5-.9,0-1.3.2h-.2v4.3c.5,0,.9,0,1,0Z"/>
    <path class="st16" d="M133.7,695.6v-9.9h1.5v9.9h-1.5Z"/>
    <path class="st16" d="M142.1,694.3h.4s0,1.1,0,1.1c-1.1.2-2,.3-2.8.3s-1.8-.3-2.2-.9c-.5-.6-.7-1.5-.7-2.7,0-2.5,1-3.7,3-3.7s2.9,1.1,2.9,3.2v1.1h-4.4c0,.6.1,1,.4,1.3s.7.4,1.4.4,1.3,0,2,0ZM141.3,691.5c0-.7-.1-1.2-.3-1.4s-.6-.4-1.1-.4-.9.1-1.1.4c-.2.3-.4.8-.4,1.4h3Z"/>
  </g>
  <g>
    <path class="st17" d="M22.1,20.6c-1.5,0-2.2.5-2.2,1.4s.2.8.5,1c.4.2,1.2.6,2.5,1s2.3.9,2.8,1.5.8,1.4.8,2.5-.4,2.5-1.3,3.2-2,1.1-3.4,1.1-2.3-.2-3.8-.5h-.7c0-.1.3-2.3.3-2.3,1.8.2,3.2.4,4.1.4,1.4,0,2.1-.6,2.1-1.8s-.2-.8-.5-1c-.3-.2-1-.5-2-.8-1.5-.4-2.6-1-3.3-1.6-.6-.6-.9-1.5-.9-2.5s.4-2.4,1.2-3,2-1,3.4-1,2.2.1,3.8.4h.7c0,.1-.2,2.3-.2,2.3-1.9-.2-3.2-.3-4-.3Z"/>
    <path class="st17" d="M37.4,31.8c-1.4.3-2.7.5-3.8.5s-2-.1-2.7-.4c-.7-.3-1.2-.7-1.6-1.3s-.7-1.3-.8-2.2c-.1-.8-.2-1.9-.2-3.1,0-2.6.4-4.5,1.1-5.5.7-1,2.1-1.5,4.1-1.5s2.5.2,4,.5v2.2c-1.4-.2-2.5-.3-3.4-.3s-1.5.1-1.9.4c-.4.2-.6.7-.8,1.3-.2.7-.3,1.8-.3,3.3s.2,2.7.6,3.3c.4.6,1.1.9,2.2.9s2.3,0,3.5-.3v2.3Z"/>
    <path class="st17" d="M39.6,32v-13.6h8.8v2.4h-6v3.2h4.8v2.4h-4.8v3.3h6v2.4h-8.8Z"/>
    <path class="st17" d="M50.7,32v-13.6h4.7l3.3,11.2h.2v-11.2h2.8v13.6h-4.5l-3.4-11.2h-.2v11.2h-2.8Z"/>
    <path class="st17" d="M63.4,32l3.1-13.6h5.2l3.1,13.6h-2.8l-.5-2.5h-4.8l-.5,2.5h-2.8ZM68.6,20.7l-1.4,6.5h3.7l-1.4-6.5h-1Z"/>
    <path class="st17" d="M79.4,27.4v4.6h-2.8v-13.6h5.3c3.2,0,4.8,1.5,4.8,4.5s-.7,3.1-2,3.9l1.9,5.2h-3l-1.6-4.6h-2.7ZM83.4,24.5c.3-.4.5-.9.5-1.6s-.2-1.2-.5-1.6c-.3-.4-.8-.6-1.5-.6h-2.5v4.3h2.6c.7,0,1.1-.2,1.5-.6Z"/>
    <path class="st17" d="M89,32v-13.6h2.8v13.6h-2.8Z"/>
    <path class="st17" d="M104.1,30.6c-.8,1.1-2.3,1.7-4.4,1.7s-3.5-.6-4.4-1.7c-.8-1.1-1.3-2.9-1.3-5.3s.4-4.2,1.3-5.3,2.3-1.8,4.4-1.8,3.5.6,4.4,1.8c.8,1.2,1.3,2.9,1.3,5.3s-.4,4.2-1.3,5.3ZM97.6,28.8c.4.7,1.1,1,2.2,1s1.8-.3,2.2-1c.4-.7.6-1.9.6-3.5s-.2-2.8-.6-3.6c-.4-.7-1.1-1.1-2.2-1.1s-1.8.4-2.2,1.1c-.4.7-.6,1.9-.6,3.6s.2,2.8.6,3.5Z"/>
    <path class="st17" d="M111.9,20.6c-1.5,0-2.2.5-2.2,1.4s.2.8.5,1c.4.2,1.2.6,2.5,1s2.3.9,2.8,1.5.8,1.4.8,2.5-.4,2.5-1.3,3.2-2,1.1-3.4,1.1-2.3-.2-3.8-.5h-.7c0-.1.3-2.3.3-2.3,1.8.2,3.2.4,4.1.4,1.4,0,2.1-.6,2.1-1.8s-.2-.8-.5-1c-.3-.2-1-.5-2-.8-1.5-.4-2.6-1-3.3-1.6-.6-.6-.9-1.5-.9-2.5s.4-2.4,1.2-3,2-1,3.4-1,2.2.1,3.8.4h.7c0,.1-.2,2.3-.2,2.3-1.9-.2-3.2-.3-4-.3Z"/>
    <path class="st17" d="M127.2,20.6c-1.5,0-2.2.5-2.2,1.4s.2.8.5,1c.4.2,1.2.6,2.5,1s2.3.9,2.8,1.5.8,1.4.8,2.5-.4,2.5-1.3,3.2-2,1.1-3.4,1.1-2.3-.2-3.8-.5h-.7c0-.1.3-2.3.3-2.3,1.8.2,3.2.4,4.1.4,1.4,0,2.1-.6,2.1-1.8s-.2-.8-.5-1c-.3-.2-1-.5-2-.8-1.5-.4-2.6-1-3.3-1.6-.6-.6-.9-1.5-.9-2.5s.4-2.4,1.2-3,2-1,3.4-1,2.2.1,3.8.4h.7c0,.1-.2,2.3-.2,2.3-1.9-.2-3.2-.3-4-.3Z"/>
    <path class="st17" d="M136.6,27.5c0,1.6.8,2.4,2.4,2.4s2.4-.8,2.4-2.4v-9.1h2.8v9c0,1.7-.4,2.9-1.3,3.7-.9.8-2.2,1.2-3.9,1.2s-3-.4-3.9-1.2c-.9-.8-1.3-2-1.3-3.7v-9h2.8v9.1Z"/>
    <path class="st17" d="M147,32v-13.6h4.7l2.4,9.9,2.4-9.9h4.7v13.6h-2.8v-10.5h-.3l-2.7,9.9h-2.8l-2.7-9.9h-.3v10.5h-2.8Z"/>
    <path class="st17" d="M164.2,32v-13.6h4.7l2.4,9.9,2.4-9.9h4.7v13.6h-2.8v-10.5h-.3l-2.7,9.9h-2.8l-2.7-9.9h-.3v10.5h-2.8Z"/>
    <path class="st17" d="M180.2,32l3.1-13.6h5.2l3.1,13.6h-2.8l-.5-2.5h-4.8l-.5,2.5h-2.8ZM185.4,20.7l-1.4,6.5h3.7l-1.4-6.5h-1Z"/>
    <path class="st17" d="M196.1,27.4v4.6h-2.8v-13.6h5.3c3.2,0,4.8,1.5,4.8,4.5s-.7,3.1-2,3.9l1.9,5.2h-3l-1.6-4.6h-2.7ZM200.1,24.5c.3-.4.5-.9.5-1.6s-.2-1.2-.5-1.6c-.3-.4-.8-.6-1.5-.6h-2.5v4.3h2.6c.7,0,1.1-.2,1.5-.6Z"/>
    <path class="st17" d="M210.8,32h-2.8v-5.5l-4.2-8.1h3.1l2.5,5.4,2.5-5.4h3.1l-4.2,8.1v5.5Z"/>
  </g>
</svg>