<?xml version="1.0" encoding="UTF-8"?>
<svg id="Livello_1" xmlns="http://www.w3.org/2000/svg" version="1.1"  height="46.4px" width="729.4px" viewBox="0 0 729.4 46.4">
  <!-- Generator: Adobe Illustrator 29.6.1, SVG Export Plug-In . SVG Version: 2.1.1 Build 9)  -->
  <defs>
    <style>
      .st0 {
        fill: #ac6235;
      }

      .st1 {
        fill: #050;
      }

      .st2 {
        fill: #003d00;
      }

      .st3 {
        fill: #3c3430;
      }

      .st4 {
        fill: #4a2b1d;
      }

      .st5 {
        stroke-width: 2px;
      }

      .st5, .st6, .st7 {
        fill: none;
      }

      .st5, .st7 {
        stroke: #3c3430;
        stroke-miterlimit: 9.8;
      }

      .st8 {
        fill: #39322e;
      }

      .st9 {
        fill: #fff;
      }

      .st10 {
        fill: #804a32;
      }

      .st11 {
        fill: #4fe34f;
      }

      .st12 {
        fill: #35a135;
      }

      .st13 {
        fill: #d0f5d0;
      }

      .st14 {
        fill: #d6a785;
      }

      .st15 {
        fill: #edd2bf;
      }

      .st16 {
        fill: #9ce69c;
      }

      .st17 {
        fill: #cc8654;
      }
    </style>
  </defs>
  <g>
    <path class="st4" d="M55.6,6.8v35H12.3c-2.8,0-5.1-2.3-5.1-5.1V12.2c0-3,2.4-5.4,5.4-5.4h43,0Z"/>
    <rect class="st10" x="62.3" y="0" width="35" height="48.4" transform="translate(104 -55.5) rotate(90)"/>
    <rect class="st0" x="110.7" y="0" width="35" height="48.5" transform="translate(152.5 -103.9) rotate(90)"/>
    <rect class="st17" x="159.2" y="0" width="35" height="48.4" transform="translate(200.9 -152.4) rotate(90)"/>
    <rect class="st14" x="207.6" y="0" width="35" height="48.4" transform="translate(249.3 -200.8) rotate(90)"/>
    <rect class="st15" x="256" y="0" width="35" height="48.4" transform="translate(297.7 -249.2) rotate(90)"/>
    <rect class="st9" x="304.4" y="0" width="35" height="48.4" transform="translate(346.1 -297.6) rotate(90)"/>
    <rect class="st9" x="352.8" y="0" width="35" height="48.4" transform="translate(394.5 -346) rotate(90)"/>
    <rect class="st13" x="401.2" y="0" width="35" height="48.4" transform="translate(442.9 -394.4) rotate(90)"/>
    <rect class="st16" x="449.6" y="0" width="35" height="48.5" transform="translate(491.4 -442.8) rotate(90)"/>
    <rect class="st11" x="498.1" y="0" width="35" height="48.4" transform="translate(539.8 -491.3) rotate(90)"/>
    <rect class="st12" x="546.5" y="0" width="35" height="48.4" transform="translate(588.2 -539.7) rotate(90)"/>
    <rect class="st1" x="594.9" y="0" width="35" height="48.4" transform="translate(636.6 -588.1) rotate(90)"/>
    <path class="st2" d="M685,9.9v28.4c0,2-1.6,3.6-3.6,3.6h-44.9V6.8h45.3c1.7,0,3.1,1.4,3.1,3.1h.1Z"/>
  </g>
  <circle class="st8" cx="708.1" cy="24.4" r="19.8"/>
  <rect class="st6" x="36.3" y="12.9" width="15.4" height="11.8" transform="translate(62.7 -25.2) rotate(90)"/>
  <path class="st5" d="M6.1,36.6V12.1c0-3.4,2.8-6.2,6.2-6.2h666.5c3.4,0,6.2,2.8,6.2,6.2v24.5c0,3.4-2.8,6.2-6.2,6.2H12.3c-3.4,0-6.2-2.8-6.2-6.2Z"/>
  <path class="st9" d="M723.8,26.6h0c0-7.6-6.2-13.8-13.9-14.2v-1.3c0-.3-.3-.7-.8-.7s-.8.3-.8.7v1.3c-7.8.3-16.2,6.8-14,14.1s.2.8.8.7.3-.1.6-.2c2.5-2.3,5.8-2.3,8.2,0,.1.1.3.2.6.2s.3-.1.5-.2c1-.9,2.2-1.5,3.4-1.6v9.8c0,1.9,1.7,3.7,3.8,3.7s3.9-1.6,3.8-3.7-.3-.7-.8-.7-.8.3-.8.7c0,1.1-1,2.2-2.3,2.2s-2.3-1-2.3-2.2v-9.8c1.1.1,2.4.7,3.4,1.6.2.2.8.2,1,0,2.5-2.3,5.8-2.3,8.3,0,.2.2.7.2.9.1.3-.2.4-.3.4-.5ZM713,25.1c-1.3-.8-2.6-1.3-4-1.3h-.2c-1.4,0-2.7.5-4,1.3-.3-4.9.9-8.8,2.5-10.5,1-1.1,2.1-1.1,3.2,0,1.6,1.7,3,5.5,2.5,10.5ZM695.9,24.9c.7-5.4,4.8-9.6,10-10.8-1.5,1.9-2.9,5.7-2.5,10.8-2.2-1.4-5.1-1.4-7.5,0ZM714.6,24.9c.3-5.1-1-8.9-2.5-10.8,5.4,1.3,9.4,5.5,10,10.8-2.3-1.4-5.1-1.4-7.5,0Z"/>
  <line class="st7" x1="55.6" y1="6.9" x2="55.6" y2="14.5"/>
  <path class="st5" d="M6.2,36.5V12c0-3.4,3-6.2,6.7-6.2h665.8c3.7,0,6.7,2.8,6.7,6.2v24.5c0,3.4-3,6.2-6.7,6.2H12.9c-3.7,0-6.7-2.8-6.7-6.2Z"/>
  <g>
    <path class="st9" d="M20.3,25.6v-.9h2.7v.9h-2.7Z"/>
    <path class="st9" d="M27.2,21.6v5.9h-1v-4.8s-1.4.9-1.4.9l-.5-.7,1.9-1.3h.9s.1,0,.1,0Z"/>
    <path class="st9" d="M29.4,22.3c.4-.5.9-.7,1.7-.7s1.3.2,1.7.7c.4.5.6,1.3.6,2.4s-.2,1.9-.6,2.3-.9.7-1.7.7-1.3-.2-1.7-.7-.6-1.2-.6-2.3.2-1.9.6-2.4ZM32,22.9c-.2-.3-.5-.5-.9-.5s-.7.2-.9.5-.3.9-.3,1.7,0,1.4.3,1.7c.2.3.5.5.9.5s.7-.2.9-.5c.2-.3.3-.9.3-1.7s0-1.4-.3-1.7Z"/>
    <path class="st9" d="M34.5,22.3c.4-.5.9-.7,1.7-.7s1.3.2,1.7.7c.4.5.6,1.3.6,2.4s-.2,1.9-.6,2.3c-.4.5-.9.7-1.7.7s-1.3-.2-1.7-.7-.6-1.2-.6-2.3.2-1.9.6-2.4ZM37.1,22.9c-.2-.3-.5-.5-.9-.5s-.7.2-.9.5c-.2.3-.3.9-.3,1.7s0,1.4.3,1.7c.2.3.5.5.9.5s.7-.2.9-.5c.2-.3.3-.9.3-1.7s0-1.4-.3-1.7Z"/>
  </g>
  <line class="st7" x1="55.8" y1="34.5" x2="55.8" y2="41.8"/>
  <g>
    <path class="st9" d="M48.9,25.6v-.9h2.7v.9h-2.7Z"/>
    <path class="st9" d="M53.2,21.9c.4-.3.9-.4,1.6-.4s1.2,0,1.6.4c.4.3.6.7.6,1.2s0,.6-.2.8c-.1.2-.3.4-.6.6.3.2.5.4.7.6.1.2.2.5.2.9s-.2,1.1-.6,1.3c-.4.3-1,.4-1.7.4-1.5,0-2.3-.5-2.3-1.6s0-.7.2-.9c.1-.2.4-.4.7-.6-.3-.2-.5-.4-.6-.6-.1-.2-.2-.5-.2-.8,0-.5.2-.9.6-1.2h0ZM53.6,25.9c0,.6.4.9,1.2.9s1.2-.3,1.2-1-.3-.7-.8-.9h-.9c-.5.2-.7.5-.7.9h0ZM55.9,23.3c0-.6-.4-.8-1.1-.8s-1.1.3-1.1.8.2.7.6.9h.9c.5-.2.7-.5.7-.9Z"/>
    <path class="st9" d="M58.2,22.3c.4-.5,1-.7,1.7-.7s1.3.2,1.7.7c.4.5.6,1.3.6,2.4s-.2,1.9-.6,2.4-1,.7-1.7.7-1.3-.2-1.7-.7-.6-1.3-.6-2.4.2-1.9.6-2.4ZM60.8,22.9c-.2-.3-.5-.5-.9-.5s-.8.2-.9.5c-.2.3-.3.9-.3,1.8s0,1.4.3,1.7c.2.3.5.5.9.5s.7-.2.9-.5c.2-.3.3-.9.3-1.7s0-1.4-.3-1.8Z"/>
  </g>
  <line class="st7" x1="104.3" y1="6.6" x2="104.3" y2="14.4"/>
  <line class="st7" x1="104.3" y1="34.3" x2="104.3" y2="42"/>
  <g>
    <path class="st9" d="M97.4,25.6v-.9h2.7v.9h-2.7Z"/>
    <path class="st9" d="M105,22.5c-.6,0-1.1,0-1.6,0s-.8,0-1.1.4c-.2.3-.4.7-.4,1.2h.2c.4-.2.8-.3,1.1-.3,1.3,0,2,.6,2,1.9s-.2,1.1-.6,1.5c-.4.3-.9.5-1.6.5s-1.3-.3-1.6-.8c-.4-.5-.5-1.3-.5-2.3,0-2,.8-3.1,2.4-3.1s.9,0,1.5.2h.3v.8h0ZM102.2,24.9h-.2c0,1.3.4,1.9,1.2,1.9s.6,0,.8-.3c.2-.2.3-.5.3-.8s0-.6-.3-.8-.4-.3-.8-.3-.7,0-1.1.2h.1Z"/>
    <path class="st9" d="M106.5,22.2c.4-.5.9-.7,1.7-.7s1.3.2,1.7.7c.4.5.6,1.3.6,2.4s-.2,1.9-.6,2.3-.9.7-1.7.7-1.3-.2-1.7-.7-.6-1.2-.6-2.3.2-1.9.6-2.4ZM109.1,22.9c-.2-.3-.5-.5-.9-.5s-.7.2-.9.5c-.2.3-.3.9-.3,1.7s0,1.4.3,1.7c.2.3.5.5.9.5s.7-.2.9-.5c.2-.3.3-.9.3-1.7s0-1.4-.3-1.7Z"/>
  </g>
  <line class="st7" x1="152.4" y1="6.9" x2="152.4" y2="14.4"/>
  <line class="st7" x1="152.4" y1="34.3" x2="152.4" y2="41.9"/>
  <g>
    <path class="st9" d="M145.8,25.4v-.9h2.7v.9h-2.7Z"/>
    <path class="st9" d="M152.2,27.4v-1.1s-2.7,0-2.7,0v-.8s1.6-4.2,1.6-4.2h1.1s-1.7,4.1-1.7,4.1h1.7s0-1.8,0-1.8h1v1.8s.7,0,.7,0v.9h-.7s0,1.1,0,1.1h-1Z"/>
    <path class="st9" d="M155.1,22c.4-.5,1-.7,1.7-.7s1.3.2,1.7.7c.4.5.6,1.3.6,2.4s-.2,1.9-.6,2.4-1,.7-1.7.7-1.3-.2-1.7-.7-.6-1.3-.6-2.4.2-1.9.6-2.4ZM157.7,22.7c-.2-.3-.5-.5-.9-.5s-.8.2-.9.5c-.2.3-.3.9-.3,1.8s0,1.4.3,1.7c.2.3.5.5.9.5s.7-.2.9-.5c.2-.3.3-.9.3-1.7s0-1.4-.3-1.8Z"/>
  </g>
  <line class="st7" x1="201.1" y1="6.7" x2="201.1" y2="14.5"/>
  <line class="st7" x1="201" y1="34.4" x2="201" y2="42.1"/>
  <g>
    <path class="st3" d="M193.4,25.7v-1h3v1h-3Z"/>
    <path class="st3" d="M197.6,21.5c.6-.2,1.3-.3,2-.3s1.3.1,1.6.4.5.7.5,1.3,0,.5-.2.7c-.1.2-.2.4-.3.5-.1,0-.2.2-.4.3.4.2.6.3.8.5.2.2.2.5.2,1s-.2,1.2-.5,1.6c-.3.3-.9.5-1.7.5h-1c-.4,0-.6-.1-.9-.2h-.3v-.9c.7.1,1.4.2,1.9.2.8,0,1.2-.4,1.2-1.1s-.1-.6-.3-.7c-.2-.2-.5-.3-.8-.3h-1.3v-.9h1.3c.2,0,.5-.1.7-.3.2-.2.3-.5.3-.7s0-.5-.3-.6c-.2-.1-.4-.2-.8-.2s-1.1,0-1.6.1h-.3v-.8h.2Z"/>
    <path class="st3" d="M203.5,22c.4-.5,1-.8,1.9-.8s1.5.3,1.9.8.6,1.4.6,2.6-.2,2.1-.6,2.6-1,.8-1.9.8-1.5-.3-1.9-.8-.6-1.4-.6-2.6.2-2.1.6-2.7h0ZM206.4,22.7c-.2-.4-.5-.5-1-.5s-.8.2-1,.5-.3,1-.3,1.9.1,1.5.3,1.9c.2.3.6.5,1,.5s.8-.2,1-.5c.2-.4.3-1,.3-1.9s-.1-1.6-.3-1.9Z"/>
  </g>
  <line class="st7" x1="249.3" y1="6.8" x2="249.3" y2="14.4"/>
  <line class="st7" x1="249.2" y1="34.4" x2="249.2" y2="42"/>
  <g>
    <path class="st3" d="M242,25.4v-1h3v1h-3Z"/>
    <path class="st3" d="M250.5,27.6h-4.2v-1s1.6-1.7,1.6-1.7c.5-.5.8-.9,1-1.2.2-.3.3-.6.3-.9s0-.6-.3-.7-.5-.2-1-.2-.9,0-1.4.1h-.2v-.8c.6-.2,1.3-.3,2-.3,1.4,0,2.1.6,2.1,1.8s-.1.9-.3,1.2-.6.8-1.1,1.3l-1.4,1.4h3v1h-.1Z"/>
    <path class="st3" d="M252.1,21.7c.4-.5,1-.8,1.9-.8s1.5.3,1.9.8.6,1.4.6,2.6-.2,2.1-.6,2.6-1,.8-1.9.8-1.5-.3-1.9-.8-.6-1.4-.6-2.6.2-2.1.6-2.7h0ZM255,22.4c-.2-.4-.5-.5-1-.5s-.8.2-1,.5-.3,1-.3,1.9.1,1.5.3,1.9c.2.3.6.5,1,.5s.8-.2,1-.5c.2-.4.3-1,.3-1.9s-.1-1.6-.3-1.9Z"/>
  </g>
  <line class="st7" x1="298.2" y1="6.5" x2="298.2" y2="14.4"/>
  <line class="st7" x1="298.2" y1="34.1" x2="298.2" y2="41.8"/>
  <g>
    <path class="st3" d="M290.4,25.5v-1h3v1h-3Z"/>
    <path class="st3" d="M298.1,21.1v6.6h-1.1v-5.3s-1.5,1-1.5,1l-.5-.8,2.1-1.4h1s0-.1,0-.1Z"/>
    <path class="st3" d="M300.5,21.8c.4-.5,1-.8,1.9-.8s1.5.3,1.9.8.6,1.4.6,2.6-.2,2.1-.6,2.6-1,.8-1.9.8-1.5-.3-1.9-.8-.6-1.4-.6-2.6.2-2.1.6-2.7h0ZM303.4,22.5c-.2-.4-.6-.5-1-.5s-.8.2-1,.5-.3,1-.3,1.9.1,1.5.3,1.9c.2.3.6.5,1,.5s.8-.2,1-.5c.2-.4.3-1,.3-1.9s-.1-1.6-.3-1.9Z"/>
  </g>
  <line class="st7" x1="346.1" y1="6.8" x2="346.1" y2="14.3"/>
  <line class="st7" x1="346.1" y1="34.3" x2="346.1" y2="41.9"/>
  <g>
    <path class="st3" d="M392.3,21.3v6.6h-1.1v-5.3s-1.5,1-1.5,1l-.5-.8,2.1-1.4h1s0-.1,0-.1Z"/>
    <path class="st3" d="M394.7,22c.4-.5,1-.8,1.9-.8s1.5.3,1.9.8.6,1.4.6,2.6-.2,2.1-.6,2.6-1,.8-1.9.8-1.5-.3-1.9-.8-.6-1.4-.6-2.6.2-2.1.6-2.7h0ZM397.6,22.7c-.2-.4-.5-.5-1-.5s-.8.2-1,.5c-.2.4-.3,1-.3,1.9s.1,1.5.3,1.9c.2.3.6.5,1,.5s.8-.2,1-.5c.2-.4.3-1,.3-1.9s-.1-1.6-.3-1.9Z"/>
  </g>
  <line class="st7" x1="394.7" y1="6.6" x2="394.7" y2="14.4"/>
  <line class="st7" x1="394.7" y1="34.3" x2="394.7" y2="42"/>
  <g>
    <path class="st3" d="M441.9,28h-4.2v-1s1.6-1.7,1.6-1.7c.5-.5.8-.9,1-1.2.2-.3.3-.6.3-.9s0-.6-.3-.7-.5-.2-1-.2-.9,0-1.4.1h-.2v-.8c.6-.2,1.3-.3,2-.3,1.4,0,2.1.6,2.1,1.8s-.1.9-.3,1.2-.6.8-1.1,1.3l-1.4,1.4h3v1h-.1Z"/>
    <path class="st3" d="M443.5,22c.4-.5,1-.8,1.9-.8s1.5.3,1.9.8.6,1.4.6,2.6-.2,2.1-.6,2.6-1,.8-1.9.8-1.5-.3-1.9-.8-.6-1.4-.6-2.6.2-2.1.6-2.7h0ZM446.4,22.8c-.2-.4-.6-.5-1-.5s-.8.2-1,.5-.3,1-.3,1.9.1,1.5.3,1.9c.2.3.6.5,1,.5s.8-.2,1-.5c.2-.4.3-1,.3-1.9s-.1-1.6-.3-1.9Z"/>
  </g>
  <line class="st7" x1="442.8" y1="6.7" x2="442.8" y2="14.3"/>
  <line class="st7" x1="442.8" y1="34.3" x2="442.8" y2="41.9"/>
  <g>
    <path class="st3" d="M486.4,21.2c.6-.2,1.3-.3,2-.3s1.3.1,1.6.4.5.7.5,1.3,0,.5-.2.7c-.1.2-.2.4-.3.5-.1,0-.2.2-.4.3.4.2.6.3.8.5.2.2.2.5.2,1,0,.7-.2,1.2-.5,1.6-.3.3-.9.5-1.7.5h-1c-.4,0-.6-.1-.9-.2h-.3v-.9c.7.1,1.4.2,1.9.2.8,0,1.2-.4,1.2-1.1s-.1-.6-.3-.7c-.2-.2-.5-.3-.8-.3h-1.3v-.9h1.3c.2,0,.5-.1.7-.3s.3-.5.3-.7,0-.5-.3-.6c-.2-.1-.4-.2-.8-.2s-1.1,0-1.6.1h-.3v-.8h.2Z"/>
    <path class="st3" d="M492.2,21.7c.4-.5,1-.8,1.9-.8s1.5.3,1.9.8.6,1.4.6,2.6-.2,2.1-.6,2.6-1,.8-1.9.8-1.5-.3-1.9-.8-.6-1.4-.6-2.6.2-2.1.6-2.7h0ZM495.1,22.4c-.2-.4-.5-.5-1-.5s-.8.2-1,.5c-.2.4-.3,1-.3,1.9s.1,1.5.3,1.9c.2.3.6.5,1,.5s.8-.2,1-.5c.2-.4.3-1,.3-1.9s-.1-1.6-.3-1.9Z"/>
  </g>
  <line class="st7" x1="491.6" y1="6.6" x2="491.6" y2="14.4"/>
  <line class="st7" x1="491.5" y1="34.3" x2="491.5" y2="42"/>
  <g>
    <path class="st3" d="M537.4,27.6v-1.2s-3,0-3,0v-.9s1.7-4.6,1.7-4.6h1.2s-1.8,4.4-1.8,4.4h1.8s0-1.9,0-1.9h1.1v1.9s.7,0,.7,0v1h-.7s0,1.2,0,1.2h-1.1s0,.1,0,.1Z"/>
    <path class="st3" d="M540.6,21.7c.4-.5,1-.8,1.9-.8s1.5.3,1.9.8.6,1.4.6,2.6-.2,2.1-.6,2.6-1,.8-1.9.8-1.5-.3-1.9-.8-.6-1.4-.6-2.6.2-2.1.6-2.7h0ZM543.5,22.4c-.2-.4-.6-.5-1-.5s-.8.2-1,.5-.3,1-.3,1.9.1,1.5.3,1.9c.2.3.6.5,1,.5s.8-.2,1-.5c.2-.4.3-1,.3-1.9s-.1-1.6-.3-1.9Z"/>
  </g>
  <line class="st7" x1="539.8" y1="6.7" x2="539.8" y2="14.3"/>
  <line class="st7" x1="539.7" y1="34.3" x2="539.7" y2="41.9"/>
  <g>
    <path class="st9" d="M587.5,21.8c-.6,0-1.2-.1-1.8-.1s-.9.2-1.2.5c-.3.3-.4.8-.4,1.4h.2c.5-.2.9-.3,1.2-.3,1.5,0,2.2.7,2.2,2.1s-.2,1.3-.6,1.6c-.4.4-1,.6-1.8.6s-1.4-.3-1.8-.9c-.4-.6-.6-1.4-.6-2.5,0-2.3.9-3.4,2.7-3.4s1,0,1.6.2h.3v.9c-.1,0,0-.1,0-.1ZM584.3,24.4h-.2c0,1.4.5,2.1,1.3,2.1s.7-.1.9-.3c.2-.2.3-.5.3-.9s-.1-.7-.3-.9c-.2-.2-.5-.3-.9-.3s-.8,0-1.2.2h.1Z"/>
    <path class="st9" d="M589.1,21.5c.4-.5,1-.8,1.9-.8s1.5.3,1.9.8.6,1.4.6,2.6-.2,2.1-.6,2.6-1,.8-1.9.8-1.5-.3-1.9-.8-.6-1.4-.6-2.6.2-2.1.6-2.7h0ZM592,22.2c-.2-.4-.5-.5-1-.5s-.8.2-1,.5c-.2.4-.3,1-.3,1.9s.1,1.5.3,1.9c.2.3.6.5,1,.5s.8-.2,1-.5c.2-.4.3-1,.3-1.9s-.1-1.6-.3-1.9Z"/>
  </g>
  <line class="st7" x1="588.2" y1="6.8" x2="588.2" y2="14.6"/>
  <g>
    <path class="st9" d="M631.9,21.4c.4-.3,1-.5,1.7-.5s1.3.2,1.8.5c.4.3.7.7.7,1.3s0,.7-.2.9-.4.4-.7.6c.3.2.6.4.7.7.2.2.2.5.2,1,0,.7-.2,1.2-.7,1.5s-1.1.5-1.8.5c-1.7,0-2.5-.6-2.5-1.8s0-.8.2-1,.4-.5.7-.7c-.3-.2-.5-.4-.7-.6-.1-.2-.2-.5-.2-.9,0-.6.2-1,.6-1.3l.2-.2ZM632.3,25.8c0,.7.4,1,1.3,1s1.3-.4,1.3-1.1-.3-.8-.8-.9h-1c-.5.2-.8.5-.8,1ZM634.8,22.9c0-.6-.4-.9-1.2-.9s-1.2.3-1.2.9.2.7.7,1h1c.5-.2.7-.5.7-1Z"/>
    <path class="st9" d="M637.4,21.8c.4-.5,1-.8,1.9-.8s1.5.3,1.9.8.6,1.4.6,2.6-.2,2.1-.6,2.6-1,.8-1.9.8-1.5-.3-1.9-.8-.6-1.4-.6-2.6.2-2.1.6-2.7h0ZM640.3,22.5c-.2-.4-.6-.5-1-.5s-.8.2-1,.5-.3,1-.3,1.9.1,1.5.3,1.9c.2.3.6.5,1,.5s.8-.2,1-.5c.2-.4.3-1,.3-1.9s-.1-1.6-.3-1.9Z"/>
  </g>
  <line class="st7" x1="637" y1="7" x2="637" y2="14.5"/>
  <line class="st7" x1="636.9" y1="34.3" x2="636.9" y2="41.9"/>
  <g>
    <path class="st9" d="M671.2,21v6.6h-1.1v-5.3s-1.5,1-1.5,1l-.5-.8,2.1-1.4h1s0,0,0,0Z"/>
    <path class="st9" d="M673.7,21.7c.4-.5,1-.8,1.9-.8s1.5.3,1.9.8.6,1.4.6,2.6-.2,2.1-.6,2.6-1,.8-1.9.8-1.5-.3-1.9-.8-.6-1.4-.6-2.6.2-2.1.6-2.7h0ZM676.6,22.4c-.2-.4-.6-.5-1-.5s-.8.2-1,.5-.3,1-.3,1.9.1,1.5.3,1.9c.2.3.6.5,1,.5s.8-.2,1-.5c.2-.4.3-1,.3-1.9s-.1-1.6-.3-1.9Z"/>
    <path class="st9" d="M679.3,21.7c.4-.5,1-.8,1.9-.8s1.5.3,1.9.8.6,1.4.6,2.6-.2,2.1-.6,2.6-1,.8-1.9.8-1.5-.3-1.9-.8-.6-1.4-.6-2.6.2-2.1.6-2.7h0ZM682.2,22.4c-.2-.4-.5-.5-1-.5s-.8.2-1,.5-.3,1-.3,1.9.1,1.5.3,1.9c.2.3.6.5,1,.5s.8-.2,1-.5c.2-.4.3-1,.3-1.9s-.1-1.6-.3-1.9Z"/>
  </g>
  <path class="st9" d="M11.7,21.3c0-1.4.6-2.1,1.7-2.1s1.7.7,1.7,2.1-.1,1.3-.5,1.6c-.3.4-.7.5-1.3.5s-1-.2-1.3-.5c-.3-.4-.5-.9-.5-1.6h.2ZM13,20.5c0,.2-.1.5-.1.9s0,.7.1.9c0,.2.2.3.4.3s.3,0,.4-.3c0-.2.1-.5.1-.9s0-.7-.1-.9c0-.2-.2-.3-.4-.3s-.3,0-.4.3ZM13.5,29.4l3.3-10.5.9.3-3.3,10.4-.9-.3h0ZM16,27.3c0-1.4.6-2.1,1.7-2.1s1.7.7,1.7,2.1-.1,1.3-.5,1.6c-.3.4-.7.5-1.3.5s-1-.2-1.3-.5c-.3-.4-.5-.9-.5-1.6h.2ZM17.8,26.2c-.2,0-.3,0-.4.3,0,.2-.1.5-.1.9s0,.7.1.9c0,.2.2.3.4.3s.3,0,.4-.3c0-.2.1-.5.1-.9s0-.7-.1-.9-.2-.3-.4-.3Z"/>
  <path class="st3" d="M344.1,22c.4-.5,1-.8,1.9-.8s1.5.3,1.9.8.6,1.4.6,2.6-.2,2.1-.6,2.6-1,.8-1.9.8-1.5-.3-1.9-.8-.6-1.4-.6-2.6.2-2.1.6-2.7h0ZM347,22.7c-.2-.4-.5-.5-1-.5s-.8.2-1,.5c-.2.4-.3,1-.3,1.9s.1,1.5.3,1.9c.2.3.6.5,1,.5s.8-.2,1-.5c.2-.4.3-1,.3-1.9s-.1-1.6-.3-1.9Z"/>
  <line class="st7" x1="588.2" y1="34" x2="588.2" y2="41.8"/>
</svg>