<?xml version="1.0" encoding="UTF-8"?>
<svg id="Livello_1" xmlns="http://www.w3.org/2000/svg" version="1.1" xmlns:xlink="http://www.w3.org/1999/xlink" height="46.4px" width="729.4px" viewBox="0 0 729.4 46.4">
  <!-- Generator: Adobe Illustrator 29.6.1, SVG Export Plug-In . SVG Version: 2.1.1 Build 9)  -->
  <defs>
    <style>
      .st0 {
        fill: #ffc4c4;
      }

      .st0, .st1, .st2, .st3, .st4, .st5, .st6, .st7, .st8, .st9, .st10, .st11, .st12, .st13, .st14, .st15, .st16, .st17, .st18, .st19, .st20, .st21, .st22, .st23, .st24, .st25, .st26, .st27, .st28, .st29, .st30, .st31 {
        isolation: isolate;
      }

      .st0, .st1, .st2, .st3, .st4, .st5, .st6, .st7, .st8, .st9, .st10, .st11, .st12, .st13, .st14, .st16, .st17, .st18, .st19, .st20, .st21, .st22, .st23, .st24, .st25, .st26, .st27, .st28, .st29, .st30, .st31 {
        opacity: .8;
      }

      .st1 {
        fill: #b5e4ff;
      }

      .st2 {
        fill: #a60000;
      }

      .st32 {
        fill: #3c3430;
      }

      .st3 {
        fill: #0f0000;
      }

      .st4 {
        fill: #99daff;
      }

      .st5 {
        fill: #006fb0;
      }

      .st33 {
        stroke-width: 2px;
      }

      .st33, .st34, .st35 {
        fill: none;
      }

      .st33, .st35 {
        stroke: #3c3430;
        stroke-miterlimit: 9.8;
      }

      .st6 {
        fill: #231a8a;
      }

      .st7 {
        fill: #300;
      }

      .st8 {
        fill: #520000;
      }

      .st36 {
        fill: #39322e;
      }

      .st37, .st27 {
        fill: #fff;
      }

      .st9 {
        fill: #0955b3;
      }

      .st10 {
        fill: #fe5b5b;
      }

      .st11 {
        fill: #6bc9ff;
      }

      .st12 {
        fill: #7a0000;
      }

      .st13 {
        fill: #ffa6a6;
      }

      .st14 {
        fill: #003e8a;
      }

      .st16 {
        fill: #ff7d7d;
      }

      .st17 {
        fill: #ffe3e3;
      }

      .st18 {
        fill: #0089d9;
      }

      .st19 {
        fill: #ff2929;
      }

      .st20 {
        fill: #c667e0;
      }

      .st21 {
        fill: #3bb7ff;
      }

      .st22 {
        fill: #005485;
      }

      .st23 {
        fill: #541a8a;
      }

      .st24 {
        fill: #ff0505;
      }

      .st25 {
        fill: #002c61;
      }

      .st26 {
        fill: #00a2ff;
      }

      .st28 {
        fill: #c90000;
      }

      .st29 {
        fill: #e00404;
      }

      .st30 {
        fill: #240000;
      }

      .st38 {
        clip-path: url(#clippath);
      }

      .st31 {
        fill: #9b41b4;
      }
    </style>
    <clipPath id="clippath">
      <path class="st34" d="M9.6,41c-4.2-.4-4.6-7.6-4.6-15.4-.4-7.6-.5-21.2,4.5-21.2l670.7.3c6,1.6,4.2,12.1,4.2,18.1s1.9,16.5-4.5,18.2H9.6Z"/>
    </clipPath>
  </defs>
  <rect class="st37" x="3.2" y="3.8" width="680.5" height="37.9" rx="7.7" ry="7.7"/>
  <g class="st38">
    <g>
      <rect class="st20" x="-13.6" y="-18.2" width="57.7" height="86.4"/>
      <rect class="st3" x="664.9" y="-18.2" width="20.8" height="89.4"/>
      <rect class="st30" x="644.1" y="-18.2" width="20.8" height="89.4"/>
      <rect class="st7" x="623.5" y="-18.2" width="20.8" height="89.4"/>
      <rect class="st8" x="602.8" y="-18.2" width="20.8" height="89.4"/>
      <rect class="st12" x="582.1" y="-18.2" width="20.8" height="89.4"/>
      <rect class="st2" x="561.3" y="-18.2" width="20.8" height="89.4"/>
      <rect class="st28" x="540.6" y="-18.2" width="20.8" height="89.4"/>
      <rect class="st29" x="520" y="-18.2" width="20.8" height="89.4"/>
      <rect class="st24" x="499.3" y="-18.2" width="20.8" height="89.4"/>
      <rect class="st19" x="478.5" y="-18.2" width="20.8" height="89.4"/>
      <rect class="st10" x="457.8" y="-18.2" width="20.8" height="89.4"/>
      <rect class="st16" x="437.1" y="-18.2" width="20.8" height="89.4"/>
      <rect class="st13" x="416.5" y="-18.2" width="20.8" height="89.4"/>
      <rect class="st0" x="395.6" y="-18.2" width="20.9" height="89.4"/>
      <rect class="st17" x="375" y="-18.2" width="20.8" height="89.4"/>
      <rect class="st27" x="354.2" y="-18.2" width="20.8" height="89.4"/>
      <rect class="st27" x="333.6" y="-18.2" width="20.8" height="89.4"/>
      <rect class="st1" x="312.8" y="-18.2" width="20.9" height="89.4"/>
      <rect class="st4" x="292.1" y="-18.2" width="20.8" height="89.4"/>
      <rect class="st11" x="271.5" y="-18.2" width="20.8" height="89.4"/>
      <rect class="st21" x="250.8" y="-18.2" width="20.8" height="89.4"/>
      <rect class="st26" x="230.1" y="-18.2" width="20.8" height="89.4"/>
      <rect class="st18" x="209.4" y="-18.2" width="20.8" height="89.4"/>
      <rect class="st5" x="188.8" y="-18.2" width="20.8" height="89.4"/>
      <rect class="st22" x="168.1" y="-18.2" width="21.1" height="89.4"/>
      <rect class="st9" x="147.4" y="-18.2" width="20.8" height="89.4"/>
      <rect class="st14" x="126.6" y="-18.2" width="20.8" height="89.4"/>
      <rect class="st25" x="105.9" y="-18.2" width="20.8" height="89.4"/>
      <rect class="st6" x="85.1" y="-17.2" width="20.8" height="89.4"/>
      <rect class="st23" x="64.6" y="-18.2" width="20.8" height="89.4"/>
      <rect class="st31" x="43.8" y="-18.2" width="20.8" height="89.4"/>
    </g>
  </g>
  <circle class="st36" cx="706.5" cy="23.1" r="19.8"/>
  <g id="Layer_1">
    <path class="st37" d="M706.6,6.8c-3.6,0-6.6,2.8-6.6,6.3v9.3c-2.5,2.1-3.8,5.2-3.4,8.4.6,4.4,4.3,7.8,8.8,8.3,5.8.5,11.1-3.8,11.1-9.4s-1.2-5.3-3.4-7.1v-9.2c0-3.7-2.9-6.6-6.5-6.6h0ZM714.7,29.5c0,4.7-4.4,8.3-9.2,7.9-3.6-.4-6.7-3.2-7.1-6.9-.3-2.8.8-5.4,3.1-7.1,0-.1.3-.4.3-.6v-9.6c0-2.6,2.2-4.7,4.8-4.7s4.8,2.1,4.8,4.7v9.6c0,.3,0,.4.3.6,2,1.4,3,3.6,3,6.1h0Z"/>
    <path class="st37" d="M709.7,25.3v-9.9c0-1.7-1.4-3-3.1-3s-3.1,1.4-3.1,3v10c-1.8,1.3-2.6,3.4-2.1,5.4.9,3.5,5.6,5,8.7,2.8,1.3-1,2.1-2.6,2.1-4-.2-1.8-1.1-3.4-2.5-4.3h0ZM708.9,32.2c-2.1,1.6-5.3.5-5.8-1.8-.4-1.6.3-3.1,1.8-3.9.3-.1.4-.4.4-.6v-10.4c0-.6.6-1.4,1.4-1.4s1.4.5,1.4,1.4v10.4c0,.3,0,.5.4.6,1.2.6,1.9,1.8,1.9,3.1-.2.9-.6,1.8-1.5,2.6h0Z"/>
  </g>
  <rect class="st34" x="143.2" y="12.3" width="10.7" height="12.8"/>
  <g class="st15">
    <path class="st37" d="M17.7,27.6c-.9.2-1.7.3-2.5.3s-1.3,0-1.8-.3c-.4-.2-.8-.5-1-1-.3-.4-.4-1-.5-1.5s0-1.3,0-2.2c0-1.9.2-3.2.7-3.9.5-.8,1.4-1.1,2.7-1.1s1.6,0,2.6.4v1.5c-1,0-1.7-.2-2.2-.2s-1,0-1.2.2-.4.4-.5,1c-.1.4-.2,1.2-.2,2.4s.1,1.9.4,2.3c.3.4.7.7,1.4.7s1.5,0,2.3-.2v1.6h-.2Z"/>
    <path class="st37" d="M8.3,22.4c-.4-.4-.5-.9-.5-1.5s.2-1.2.5-1.5c.4-.4.8-.5,1.4-.5s1.1.2,1.4.5.5.9.5,1.5-.2,1.1-.5,1.5c-.4.4-.8.5-1.4.5s-1,0-1.4-.5ZM9,20.1c-.2.2-.3.4-.3.8s.1.5.3.8c.2.2.4.3.7.3s.5,0,.7-.3.3-.4.3-.8-.1-.5-.3-.8-.4-.3-.7-.3-.5,0-.7.3Z"/>
  </g>
  <line class="st35" x1="44.1" y1="5" x2="44.1" y2="11.8"/>
  <line class="st35" x1="43.8" y1="41.7" x2="43.8" y2="33.2"/>
  <path class="st33" d="M4.9,35.3V10.5c0-3.4,3-6.3,6.7-6.3h665.8c3.7,0,6.7,2.8,6.7,6.3v24.8c0,3.4-3,6.3-6.7,6.3H11.6c-3.7,0-6.7-2.8-6.7-6.3Z"/>
  <line class="st35" x1="64.6" y1="5" x2="64.6" y2="41.6"/>
  <line class="st35" x1="85.3" y1="5" x2="85.3" y2="11.8"/>
  <line class="st35" x1="85.3" y1="41.9" x2="85.3" y2="33.4"/>
  <line class="st35" x1="106.3" y1="41.7" x2="106.3" y2="4.8"/>
  <line class="st35" x1="126.4" y1="4.8" x2="126.4" y2="11.6"/>
  <line class="st35" x1="126.4" y1="41.9" x2="126.4" y2="33.4"/>
  <line class="st35" x1="147.5" y1="41.7" x2="147.5" y2="4.8"/>
  <line class="st35" x1="168.1" y1="5" x2="168.1" y2="11.9"/>
  <line class="st35" x1="189.1" y1="42.3" x2="189.1" y2="4.5"/>
  <line class="st35" x1="168.1" y1="41.8" x2="168.1" y2="33.3"/>
  <line class="st35" x1="209.4" y1="4.9" x2="209.4" y2="11.7"/>
  <line class="st35" x1="209.4" y1="41.7" x2="209.4" y2="33.2"/>
  <line class="st35" x1="230.4" y1="41.7" x2="230.4" y2="3.8"/>
  <line class="st35" x1="251.5" y1="5" x2="251.5" y2="11.8"/>
  <line class="st35" x1="251.5" y1="41.7" x2="251.5" y2="33.2"/>
  <line class="st35" x1="292.7" y1="5" x2="292.7" y2="11.8"/>
  <line class="st35" x1="292.2" y1="41.7" x2="292.2" y2="33.2"/>
  <line class="st35" x1="271.5" y1="41.7" x2="271.5" y2="5.1"/>
  <line class="st35" x1="313" y1="41.7" x2="313" y2="5"/>
  <line class="st35" x1="334.1" y1="5" x2="334.1" y2="11.8"/>
  <line class="st35" x1="334.1" y1="41.7" x2="334.1" y2="33.2"/>
  <line class="st35" x1="354.6" y1="5.1" x2="354.6" y2="11.9"/>
  <line class="st35" x1="354.3" y1="41.7" x2="354.3" y2="33.2"/>
  <line class="st35" x1="375.3" y1="5.1" x2="375.3" y2="11.9"/>
  <line class="st35" x1="396.2" y1="41.7" x2="396.2" y2="4.6"/>
  <line class="st35" x1="375.3" y1="41.7" x2="375.3" y2="33.2"/>
  <line class="st35" x1="623.8" y1="5" x2="623.8" y2="11.8"/>
  <line class="st35" x1="623.8" y1="41.7" x2="623.8" y2="33.2"/>
  <line class="st35" x1="644.3" y1="5.1" x2="644.3" y2="40.8"/>
  <line class="st35" x1="664.8" y1="5.3" x2="664.8" y2="12.1"/>
  <line class="st35" x1="664.8" y1="42" x2="664.8" y2="33.5"/>
  <line class="st35" x1="561.5" y1="41.7" x2="561.5" y2="4.7"/>
  <line class="st35" x1="582.1" y1="5" x2="582.1" y2="11.8"/>
  <line class="st35" x1="603.1" y1="41.7" x2="603.1" y2="5"/>
  <line class="st35" x1="582.1" y1="41.7" x2="582.1" y2="33.2"/>
  <line class="st35" x1="499.1" y1="5" x2="499.1" y2="11.8"/>
  <line class="st35" x1="499.1" y1="41.5" x2="499.1" y2="33"/>
  <line class="st35" x1="541" y1="5" x2="541" y2="11.8"/>
  <line class="st35" x1="541" y1="41.7" x2="541" y2="33.2"/>
  <line class="st35" x1="520.3" y1="41.8" x2="520.3" y2="3.8"/>
  <line class="st35" x1="437.5" y1="41.7" x2="437.5" y2="4.4"/>
  <line class="st35" x1="457.8" y1="5" x2="457.8" y2="11.8"/>
  <line class="st35" x1="478.4" y1="41.7" x2="478.4" y2="4.2"/>
  <line class="st35" x1="457.8" y1="41.7" x2="457.8" y2="33.2"/>
  <line class="st35" x1="416.9" y1="5" x2="416.9" y2="11.8"/>
  <line class="st35" x1="416.9" y1="41.7" x2="416.9" y2="33.2"/>
  <g class="st15">
    <g class="st15">
      <path class="st37" d="M40.9,23.8v-1h3v1h-3Z"/>
      <path class="st37" d="M44.2,19.6c.6-.2,1.3-.3,2-.3s1.3.1,1.6.4.5.7.5,1.3,0,.5-.2.7c0,.2-.2.4-.3.5,0,0-.2.2-.4.3.4.2.6.3.8.5s.2.5.2,1-.2,1.2-.5,1.6c-.3.3-.9.5-1.7.5h-1c-.4,0-.6-.1-.9-.2h-.3v-.9c.7.1,1.4.2,1.9.2.8,0,1.2-.4,1.2-1.1s0-.6-.3-.7c-.2-.2-.5-.3-.8-.3h-1.3v-.9h1.3c.2,0,.5-.1.7-.3.2-.2.3-.5.3-.7s0-.5-.3-.6c-.2-.1-.4-.2-.8-.2s-1.1,0-1.6.1h-.3v-.8h.2Z"/>
    </g>
  </g>
  <g class="st15">
    <g class="st15">
      <path class="st37" d="M78.8,23.9v-1h3v1h-3Z"/>
    </g>
    <g class="st15">
      <path class="st37" d="M86,26.1h-4.2v-1l1.6-1.7c.5-.5.8-.9,1-1.2.2-.3.3-.6.3-.9s0-.6-.3-.7-.5-.2-1-.2-.9,0-1.4.1h-.2v-.8c.6-.2,1.3-.3,2-.3,1.4,0,2.1.6,2.1,1.8s0,.9-.3,1.2-.6.8-1.1,1.3l-1.4,1.4h3v1h0Z"/>
      <path class="st37" d="M87.3,26.1v-1.4h1.2v1.4h-1.2Z"/>
      <path class="st37" d="M94,20.5c-.6,0-1.2-.1-1.8-.1s-.9.2-1.2.5c-.3.3-.4.8-.4,1.4h.2c.5-.2.9-.3,1.2-.3,1.5,0,2.2.7,2.2,2.1s-.2,1.3-.6,1.6c-.4.4-1,.6-1.8.6s-1.4-.3-1.8-.9-.6-1.4-.6-2.5c0-2.3.9-3.4,2.7-3.4s1,0,1.6.2h.3v.9c0,0,0-.1,0-.1ZM90.9,23.1h-.2c0,1.4.5,2.1,1.3,2.1s.7-.1.9-.3c.2-.2.3-.5.3-.9s0-.7-.3-.9c-.2-.2-.5-.3-.9-.3s-.8,0-1.2.2h0Z"/>
    </g>
  </g>
  <g class="st15">
    <g class="st15">
      <path class="st37" d="M120.8,23.9v-1h3v1h-3Z"/>
    </g>
    <g class="st15">
      <path class="st37" d="M128,26.1h-4.2v-1l1.6-1.7c.5-.5.8-.9,1-1.2.2-.3.3-.6.3-.9s0-.6-.3-.7-.5-.2-1-.2-.9,0-1.4.1h-.2v-.8c.6-.2,1.3-.3,2-.3,1.4,0,2.1.6,2.1,1.8s0,.9-.3,1.2-.6.8-1.1,1.3l-1.4,1.4h3v1h-.1Z"/>
      <path class="st37" d="M129.3,26.1v-1.4h1.2v1.4h-1.2Z"/>
      <path class="st37" d="M136,26.1h-4.2v-1l1.6-1.7c.5-.5.8-.9,1-1.2.2-.3.3-.6.3-.9s0-.6-.3-.7-.5-.2-1-.2-.9,0-1.4.1h-.2v-.8c.6-.2,1.3-.3,2-.3,1.4,0,2.1.6,2.1,1.8s-.1.9-.3,1.2-.6.8-1.1,1.3l-1.4,1.4h3v1h-.1Z"/>
    </g>
  </g>
  <g class="st15">
    <g class="st15">
      <path class="st37" d="M162.1,24v-1h3v1h-3Z"/>
    </g>
    <g class="st15">
      <path class="st37" d="M168.5,19.6v6.6h-1.1v-5.3l-1.5,1-.5-.8,2.1-1.4h1Z"/>
      <path class="st37" d="M170.6,26.2v-1.4h1.2v1.4h-1.2Z"/>
      <path class="st37" d="M173.5,19.9c.4-.3,1-.5,1.7-.5s1.3.2,1.8.5c.4.3.7.7.7,1.3s0,.7-.2.9-.4.4-.7.6c.3.2.6.4.7.7.2.2.2.5.2,1s-.2,1.2-.7,1.5-1.1.5-1.8.5c-1.7,0-2.5-.6-2.5-1.8s0-.8.2-1,.4-.5.7-.7c-.3-.2-.5-.4-.7-.6-.1-.2-.2-.5-.2-.9,0-.6.2-1,.6-1.3l.2-.2ZM173.9,24.3c0,.7.4,1,1.3,1s1.3-.4,1.3-1.1-.3-.8-.8-.9h-1c-.5.2-.8.5-.8,1ZM176.4,21.4c0-.6-.4-.9-1.2-.9s-1.2.3-1.2.9.2.7.7,1h1c.5-.2.7-.5.7-1Z"/>
    </g>
  </g>
  <g class="st15">
    <g class="st15">
      <path class="st37" d="M203.7,23.8v-1h3v1h-3Z"/>
    </g>
    <g class="st15">
      <path class="st37" d="M210.1,19.4v6.6h-1.1v-5.3l-1.5,1-.5-.8,2.1-1.4h1Z"/>
      <path class="st37" d="M212.2,26v-1.4h1.2v1.4h-1.2Z"/>
      <path class="st37" d="M217.4,26v-1.2h-3v-.9l1.7-4.6h1.2l-1.8,4.4h1.8v-1.9h1.1v1.9h.7v1h-.7v1.2h-1.1.1Z"/>
    </g>
  </g>
  <g class="st15">
    <g class="st15">
      <path class="st37" d="M248,23.8v-1h3v1h-3Z"/>
    </g>
    <g class="st15">
      <path class="st37" d="M254.4,19.4v6.6h-1.1v-5.3l-1.5,1-.5-.8,2.1-1.4h1Z"/>
    </g>
  </g>
  <g class="st15">
    <g class="st15">
      <path class="st32" d="M286.2,23.8v-1h3v1h-3Z"/>
    </g>
    <g class="st15">
      <path class="st32" d="M289.4,20.1c.4-.5,1-.8,1.9-.8s1.5.3,1.9.8.6,1.4.6,2.6-.2,2.1-.6,2.6-1,.8-1.9.8-1.5-.3-1.9-.8-.6-1.4-.6-2.6.2-2.1.6-2.7h0ZM292.4,20.8c-.2-.4-.6-.5-1-.5s-.8.2-1,.5-.3,1-.3,1.9.1,1.5.3,1.9c.2.3.6.5,1,.5s.8-.2,1-.5c.2-.4.3-1,.3-1.9s-.1-1.6-.3-1.9Z"/>
      <path class="st32" d="M294.7,26v-1.4h1.2v1.4h-1.2Z"/>
      <path class="st32" d="M301.4,20.4c-.6,0-1.2-.1-1.8-.1s-.9.2-1.2.5c-.3.3-.4.8-.4,1.4h.2c.5-.2.9-.3,1.2-.3,1.5,0,2.2.7,2.2,2.1s-.2,1.3-.6,1.6c-.4.4-1,.6-1.8.6s-1.4-.3-1.8-.9-.6-1.4-.6-2.5c0-2.3.9-3.4,2.7-3.4s1,0,1.6.2h.3v.9c-.1,0,0-.1,0-.1ZM298.3,23h-.2c0,1.4.5,2.1,1.3,2.1s.7-.1.9-.3c.2-.2.3-.5.3-.9s-.1-.7-.3-.9c-.2-.2-.5-.3-.9-.3s-.8,0-1.2.2h.1Z"/>
    </g>
  </g>
  <g class="st15">
    <g class="st15">
      <path class="st32" d="M328.2,23.8v-1h3v1h-3Z"/>
    </g>
    <g class="st15">
      <path class="st32" d="M331.4,20.1c.4-.5,1-.8,1.9-.8s1.5.3,1.9.8.6,1.4.6,2.6-.2,2.1-.6,2.6-1,.8-1.9.8-1.5-.3-1.9-.8-.6-1.4-.6-2.6.2-2.1.6-2.7h0ZM334.4,20.8c-.2-.4-.6-.5-1-.5s-.8.2-1,.5-.3,1-.3,1.9.1,1.5.3,1.9c.2.3.6.5,1,.5s.8-.2,1-.5c.2-.4.3-1,.3-1.9s-.1-1.6-.3-1.9Z"/>
      <path class="st32" d="M336.7,26v-1.4h1.2v1.4h-1.2Z"/>
      <path class="st32" d="M343.4,26h-4.2v-1l1.6-1.7c.5-.5.8-.9,1-1.2.2-.3.3-.6.3-.9s0-.6-.3-.7-.5-.2-1-.2-.9,0-1.4.1h-.2v-.8c.6-.2,1.3-.3,2-.3,1.4,0,2.1.6,2.1,1.8s-.1.9-.3,1.2-.6.8-1.1,1.3l-1.4,1.4h3v1h-.1Z"/>
    </g>
  </g>
  <g class="st15">
    <g class="st15">
      <path class="st32" d="M370.8,20c.4-.5,1-.8,1.9-.8s1.5.3,1.9.8.6,1.4.6,2.6-.2,2.1-.6,2.6-1,.8-1.9.8-1.5-.3-1.9-.8-.6-1.4-.6-2.6.2-2.1.6-2.7h0ZM373.7,20.7c-.2-.4-.5-.5-1-.5s-.8.2-1,.5-.3,1-.3,1.9.1,1.5.3,1.9c.2.3.6.5,1,.5s.8-.2,1-.5c.2-.4.3-1,.3-1.9s-.1-1.6-.3-1.9Z"/>
      <path class="st32" d="M376.1,25.9v-1.4h1.2v1.4h-1.2Z"/>
      <path class="st32" d="M382.8,25.9h-4.2v-1l1.6-1.7c.5-.5.8-.9,1-1.2.2-.3.3-.6.3-.9s0-.6-.3-.7-.5-.2-1-.2-.9,0-1.4.1h-.2v-.8c.6-.2,1.3-.3,2-.3,1.4,0,2.1.6,2.1,1.8s-.1.9-.3,1.2-.6.8-1.1,1.3l-1.4,1.4h3v1h-.1Z"/>
    </g>
  </g>
  <g class="st15">
    <g class="st15">
      <path class="st32" d="M412.4,20.2c.4-.5,1-.8,1.9-.8s1.5.3,1.9.8.6,1.4.6,2.6-.2,2.1-.6,2.6-1,.8-1.9.8-1.5-.3-1.9-.8-.6-1.4-.6-2.6.2-2.1.6-2.7h0ZM415.3,20.9c-.2-.4-.6-.5-1-.5s-.8.2-1,.5-.3,1-.3,1.9.1,1.5.3,1.9c.2.3.6.5,1,.5s.8-.2,1-.5c.2-.4.3-1,.3-1.9s-.1-1.6-.3-1.9Z"/>
      <path class="st32" d="M417.7,26.1v-1.4h1.2v1.4h-1.2Z"/>
      <path class="st32" d="M424.4,20.5c-.6,0-1.2-.1-1.8-.1s-.9.2-1.2.5c-.3.3-.4.8-.4,1.4h.2c.5-.2.9-.3,1.2-.3,1.5,0,2.2.7,2.2,2.1s-.2,1.3-.6,1.6c-.4.4-1,.6-1.8.6s-1.4-.3-1.8-.9-.6-1.4-.6-2.5c0-2.3.9-3.4,2.7-3.4s1,0,1.6.2h.3v.9h0ZM421.2,23.1h-.2c0,1.4.5,2.1,1.3,2.1s.7-.1.9-.3c.2-.2.3-.5.3-.9s-.1-.7-.3-.9c-.2-.2-.5-.3-.9-.3s-.8,0-1.2.2h.1Z"/>
    </g>
  </g>
  <g class="st15">
    <g class="st15">
      <path class="st32" d="M460.3,19.3v6.6h-1.1v-5.3l-1.6,1-.5-.8,2.2-1.4h1Z"/>
    </g>
  </g>
  <g class="st15">
    <g class="st15">
      <path class="st32" d="M498.7,19.6v6.6h-1.1v-5.3l-1.5,1-.5-.8,2.1-1.4h1Z"/>
      <path class="st32" d="M500.8,26.2v-1.4h1.2v1.4h-1.2Z"/>
      <path class="st32" d="M506,26.2v-1.2h-3v-.9l1.7-4.6h1.2l-1.8,4.4h1.8v-1.9h1.1v1.9h.7v1h-.7v1.2h-1.1,0Z"/>
    </g>
  </g>
  <g class="st15">
    <g class="st15">
      <path class="st37" d="M540.4,19.4v6.6h-1.1v-5.3l-1.5,1-.5-.8,2.2-1.4h1-.1Z"/>
      <path class="st37" d="M542.5,26v-1.4h1.2v1.4h-1.2Z"/>
      <path class="st37" d="M545.3,19.7c.4-.3,1-.5,1.7-.5s1.3.2,1.8.5c.4.3.7.7.7,1.3s0,.7-.2.9c0,.2-.4.4-.7.6.3.2.6.4.7.7.2.2.2.5.2,1s-.2,1.2-.7,1.5-1.1.5-1.8.5c-1.7,0-2.5-.6-2.5-1.8s0-.8.2-1,.4-.5.7-.7c-.3-.2-.5-.4-.7-.6,0-.2-.2-.5-.2-.9,0-.6.2-1,.6-1.3l.2-.2ZM545.8,24.1c0,.7.4,1,1.3,1s1.3-.4,1.3-1.1-.3-.8-.8-.9h-1c-.5.2-.8.5-.8,1ZM548.3,21.2c0-.6-.4-.9-1.2-.9s-1.2.3-1.2.9.2.7.7,1h1c.5-.2.7-.5.7-1Z"/>
    </g>
  </g>
  <g class="st15">
    <g class="st15">
      <path class="st37" d="M581.5,26h-4.2v-1l1.6-1.7c.5-.5.8-.9,1-1.2.2-.3.3-.6.3-.9s0-.6-.3-.7-.5-.2-1-.2-.9,0-1.4.1h-.2v-.8c.6-.2,1.3-.3,2-.3,1.4,0,2.1.6,2.1,1.8s0,.9-.3,1.2-.6.8-1.1,1.3l-1.4,1.4h3v1h0Z"/>
      <path class="st37" d="M582.6,26v-1.4h1.2v1.4h-1.2Z"/>
      <path class="st37" d="M588.8,26h-4.2v-1l1.6-1.7c.5-.5.8-.9,1-1.2.2-.3.3-.6.3-.9s0-.6-.3-.7-.5-.2-1-.2-.9,0-1.4.1h-.2v-.8c.6-.2,1.3-.3,2-.3,1.4,0,2.1.6,2.1,1.8s0,.9-.3,1.2-.6.8-1.1,1.3l-1.4,1.4h3v1h0Z"/>
    </g>
  </g>
  <g class="st15">
    <g class="st15">
      <path class="st37" d="M622.7,25.9h-4.2v-1l1.6-1.7c.5-.5.8-.9,1-1.2.2-.3.3-.6.3-.9s0-.6-.3-.7-.5-.2-1-.2-.9,0-1.4.1h-.2v-.8c.6-.2,1.3-.3,2-.3,1.4,0,2.1.6,2.1,1.8s0,.9-.3,1.2c-.2.4-.6.8-1.1,1.3l-1.4,1.4h3v1h0Z"/>
      <path class="st37" d="M624.4,25.9v-1.4h1.2v1.4h-1.2Z"/>
      <path class="st37" d="M630.8,20.3c-.6,0-1.2-.1-1.8-.1s-.9.2-1.2.5-.4.8-.4,1.4h.2c.5-.2.9-.3,1.2-.3,1.5,0,2.2.7,2.2,2.1s-.2,1.3-.6,1.6c-.4.4-1,.6-1.8.6s-1.4-.3-1.8-.9c-.4-.6-.6-1.4-.6-2.5,0-2.3.9-3.4,2.7-3.4s1,0,1.6.2h.3v.9h0ZM627.6,22.9h-.2c0,1.4.5,2.1,1.3,2.1s.7-.1.9-.3c.2-.2.3-.5.3-.9s0-.7-.3-.9c-.2-.2-.5-.3-.9-.3s-.8,0-1.2.2h.1Z"/>
    </g>
  </g>
  <g class="st15">
    <g class="st15">
      <path class="st37" d="M662.7,19.7c.6-.2,1.3-.3,2-.3s1.3.1,1.6.4.5.7.5,1.3,0,.5-.2.7c0,.2-.2.4-.3.5,0,0-.2.2-.4.3.4.2.6.3.8.5s.2.5.2,1-.2,1.2-.5,1.6c-.3.3-.9.5-1.7.5h-1c-.4,0-.6-.1-.9-.2h-.3v-.9c.7.1,1.4.2,1.9.2.8,0,1.2-.4,1.2-1.1s0-.6-.3-.7c-.2-.2-.5-.3-.8-.3h-1.3v-.9h1.3c.2,0,.5-.1.7-.3.2-.2.3-.5.3-.7s0-.5-.3-.6c-.2-.1-.4-.2-.8-.2s-1.1,0-1.6.1h-.3v-.8h.2Z"/>
    </g>
  </g>
  <g class="st15">
    <g class="st15">
      <path class="st32" d="M352.4,19.9c.4-.5,1-.8,1.9-.8s1.5.3,1.9.8.6,1.4.6,2.6-.2,2.1-.6,2.6-1,.8-1.9.8-1.5-.3-1.9-.8-.6-1.4-.6-2.6.2-2.1.6-2.7h0ZM355.3,20.7c-.2-.4-.6-.5-1-.5s-.8.2-1,.5-.3,1-.3,1.9.1,1.5.3,1.9c.2.3.6.5,1,.5s.8-.2,1-.5c.2-.4.3-1,.3-1.9s-.1-1.6-.3-1.9Z"/>
    </g>
  </g>
</svg>