<?xml version="1.0" encoding="UTF-8"?>
<svg id="Livello_1" xmlns="http://www.w3.org/2000/svg" version="1.1" height="46.4px" width="729.4px" viewBox="0 0 729.4 46.4">
  <!-- Generator: Adobe Illustrator 29.8.3, SVG Export Plug-In . SVG Version: 2.1.1 Build 3)  -->
  <defs>
    <style>
      .st0 {
        fill: #ee7326;
      }

      .st1 {
        fill: #71a2d6;
      }

      .st2 {
        fill: #3c3430;
      }

      .st3 {
        fill: #1b4674;
      }

      .st4 {
        fill: #5b0c03;
      }

      .st5 {
        stroke-width: 2px;
      }

      .st5, .st6, .st7 {
        fill: none;
      }

      .st5, .st7 {
        stroke: #3c3430;
        stroke-miterlimit: 9.8;
      }

      .st8 {
        fill: #39322e;
      }

      .st9 {
        fill: #f2a918;
      }

      .st10 {
        fill: #fff;
      }

      .st11 {
        fill: #0f2743;
      }

      .st12 {
        fill: #ea1fe3;
      }

      .st13 {
        fill: #4182c8;
      }

      .st14 {
        fill: #b4eafa;
      }

      .st15 {
        fill: #dbf4fb;
      }

      .st16 {
        fill: #8ce0f8;
      }

      .st17 {
        fill: #a810a3;
      }

      .st18 {
        fill: #2bc7f3;
      }

      .st19 {
        fill: #b1aab1;
      }

      .st20 {
        fill: #3b3330;
      }

      .st21 {
        fill: #8b1204;
      }

      .st22 {
        fill: #f16aed;
      }

      .st23 {
        fill: #4eb5e5;
      }

      .st24 {
        fill: #fff533;
      }

      .st25 {
        fill: #e22208;
      }
    </style>
  </defs>
  <g>
    <path class="st19" d="M646.3,38.9V3.9h30.7c2.8,0,5.1,2.3,5.1,5.1v24.5c0,3-2.4,5.4-5.4,5.4h-30.4Z"/>
    <rect class="st22" x="610.3" y="3.9" width="36" height="35" transform="translate(1256.6 42.8) rotate(180)"/>
    <g>
      <rect class="st12" x="574.6" y="3.9" width="35.8" height="35" transform="translate(1185 42.8) rotate(180)"/>
      <rect class="st17" x="538.8" y="4" width="35.8" height="35" transform="translate(1113.4 43) rotate(180)"/>
    </g>
    <g>
      <rect class="st4" x="502.97" y="3.9" width="35.82" height="35" transform="translate(1041.77 42.8) rotate(180)"/>
      <rect class="st21" x="467.15" y="3.9" width="35.82" height="35" transform="translate(970.12 42.8) rotate(180)"/>
      <g>
        <rect class="st25" x="431.27" y="4" width="35.88" height="35" transform="translate(898.42 43) rotate(180)"/>
        <rect class="st0" x="395.4" y="3.9" width="35.88" height="35" transform="translate(826.67 42.8) rotate(180)"/>
      </g>
    </g>
    <g>
      <rect class="st9" x="359.59" y="3.9" width="35.81" height="35" transform="translate(754.99 42.8) rotate(180)"/>
      <rect class="st24" x="323.77" y="4" width="35.81" height="35" transform="translate(683.36 43) rotate(180)"/>
      <g>
        <rect class="st11" x="287.86" y="4" width="35.81" height="35" transform="translate(611.54 43) rotate(180)"/>
        <rect class="st3" x="252.05" y="3.9" width="35.81" height="35" transform="translate(539.91 42.8) rotate(180)"/>
      </g>
      <g>
        <rect class="st13" x="216.24" y="4" width="35.81" height="35" transform="translate(468.29 43) rotate(180)"/>
        <rect class="st1" x="180.32" y="4" width="35.96" height="35" transform="translate(396.61 43) rotate(180)"/>
        <g>
          <rect class="st23" x="144.51" y="3.9" width="35.81" height="35" transform="translate(324.84 42.8) rotate(180)"/>
          <rect class="st18" x="108.6" y="4" width="35.91" height="35" transform="translate(253.11 43) rotate(180)"/>
        </g>
      </g>
    </g>
    <g>
      <rect class="st16" x="72.8" y="4" width="35.8" height="35" transform="translate(181.4 43) rotate(180)"/>
      <rect class="st14" x="36.9" y="4" width="35.9" height="35" transform="translate(109.7 43) rotate(180)"/>
      <path class="st15" d="M1.1,32.9V10.6c0-3.7,3-6.7,6.7-6.7h29.2v35H7.2c-3.3,0-6.1-2.7-6.1-6.1h0v.1Z"/>
    </g>
  </g>
  <circle class="st8" cx="703.8" cy="21.5" r="19.8"/>
  <rect class="st6" x="33.8" y="8.2" width="11.8" height="15.4"/>
  <path class="st5" d="M1.9,33.7V9.2c0-3.4,2.8-6.2,6.2-6.2h666.5c3.4,0,6.2,2.8,6.2,6.2v24.5c0,3.4-2.8,6.2-6.2,6.2H8.1c-3.4,0-6.2-2.8-6.2-6.2Z"/>
  <path class="st10" d="M719.5,23.7h0c0-7.6-6.2-13.8-13.9-14.2v-1.3c0-.3-.3-.7-.8-.7s-.8.3-.8.7v1.3c-7.8.3-14,6.5-14,14.1,0,.4.3.7.8.7s.3-.1.6-.2c2.5-2.3,5.8-2.3,8.2,0,.1.1.3.2.6.2s.3-.1.5-.2c1-.9,2.2-1.5,3.4-1.6v9.8c0,1.9,1.7,3.7,3.8,3.7s3.8-1.6,3.8-3.7-.3-.7-.8-.7-.8.3-.8.7c0,1.1-1,2.2-2.3,2.2s-2.3-1-2.3-2.2v-9.8c1.1.1,2.4.7,3.4,1.6.2.2.8.2,1,0,2.5-2.3,5.8-2.3,8.3,0,.2.2.7.2.9.1.3-.2.4-.3.4-.5h0ZM708.7,22.2c-1.3-.8-2.6-1.3-4-1.3h-.2c-1.4,0-2.7.5-4,1.3-.3-4.9.9-8.8,2.5-10.5,1-1.1,2.1-1.1,3.2,0,1.6,1.7,3,5.5,2.5,10.5ZM691.6,22c.7-5.4,4.8-9.6,10-10.8-1.5,1.9-2.9,5.7-2.5,10.8-2.2-1.4-5.1-1.4-7.5,0ZM710.3,22c.3-5.1-1-8.9-2.5-10.8,5.4,1.3,9.4,5.5,10,10.8-2.3-1.4-5.1-1.4-7.5,0Z"/>
  <line class="st7" x1="36.7" y1="4" x2="36.7" y2="14.6"/>
  <g>
    <path class="st20" d="M5.7,25h-1.6v-6h1.6v.3c.6-.3,1-.5,1.4-.5.6,0,1.1.2,1.5.6.7-.4,1.4-.6,2-.6s1.3.2,1.7.7c.3.5.5,1.2.5,2.2v3.3h-1.6v-3.2c0-.5-.1-.9-.2-1.1-.1-.2-.3-.4-.7-.4s-.6,0-.9.2h-.2v4.6h-1.6v-3.1c0-.6-.1-1-.2-1.3-.1-.2-.3-.4-.7-.4s-.6,0-.9.2h-.1s0,4.5,0,4.5Z"/>
    <path class="st20" d="M15.7,25h-1.6v-6h1.6v.3c.6-.3,1-.5,1.4-.5.6,0,1.1.2,1.5.6.7-.4,1.4-.6,2-.6s1.3.2,1.6.7c.3.5.5,1.2.5,2.2v3.3h-1.6v-3.2c0-.5-.1-.9-.2-1.1s-.3-.4-.7-.4-.6,0-.9.2h-.2v4.6h-1.6v-3.1c0-.6-.1-1-.2-1.3-.1-.2-.3-.4-.7-.4s-.6,0-.9.2h-.1v4.5s.1,0,.1,0Z"/>
  </g>
  <path class="st5" d="M1.9,33.6V9.1c0-3.4,3-6.2,6.7-6.2h665.8c3.7,0,6.7,2.8,6.7,6.2v24.5c0,3.4-3,6.2-6.7,6.2H8.6c-3.7,0-6.7-2.8-6.7-6.2Z"/>
  <line class="st7" x1="36.7" y1="28.4" x2="36.7" y2="39"/>
  <line class="st7" x1="72.6" y1="3.9" x2="72.6" y2="14.6"/>
  <line class="st7" x1="72.6" y1="28.4" x2="72.6" y2="38.9"/>
  <g>
    <path class="st10" d="M643,17.9v1h-3.1l-.2,1.7c.5-.2.9-.3,1.3-.3,1.4,0,2.1.7,2.1,2s-.2,1.3-.6,1.7-.9.6-1.7.6h-1c-.4,0-.7,0-.9-.2h-.3v-.9c.9,0,1.6.2,2.1.2s.7,0,.9-.3c.2-.2.3-.5.3-.9s0-.7-.3-.9c-.2-.2-.4-.3-.7-.3-.5,0-1,0-1.3.2h-.9l.2-3.5h4.1v-.1Z"/>
    <path class="st10" d="M644.7,18.6c.4-.5,1-.8,1.9-.8s1.5.3,1.9.8.6,1.4.6,2.6-.2,2.1-.6,2.6-1,.8-1.9.8-1.5-.3-1.9-.8-.6-1.4-.6-2.6.2-2.1.6-2.7h0v.1ZM647.6,19.3c-.2-.4-.6-.5-1-.5s-.8.2-1,.5-.3,1-.3,1.9.1,1.5.3,1.9c.2.3.6.5,1,.5s.8-.2,1-.5c.2-.4.3-1,.3-1.9s-.1-1.6-.3-1.9Z"/>
    <path class="st10" d="M650.3,18.6c.4-.5,1-.8,1.9-.8s1.5.3,1.9.8.6,1.4.6,2.6-.2,2.1-.6,2.6-1,.8-1.9.8-1.5-.3-1.9-.8-.6-1.4-.6-2.6.2-2.1.6-2.7h0v.1ZM653.2,19.3c-.2-.4-.5-.5-1-.5s-.8.2-1,.5-.3,1-.3,1.9.1,1.5.3,1.9c.2.3.6.5,1,.5s.8-.2,1-.5c.2-.4.3-1,.3-1.9s-.1-1.6-.3-1.9Z"/>
  </g>
  <line class="st7" x1="108.7" y1="4" x2="108.7" y2="14.7"/>
  <line class="st7" x1="108.7" y1="28.5" x2="108.7" y2="39"/>
  <g>
    <path class="st10" d="M605.35,24.65v-1.2h-3v-.9l1.7-4.6h1.2l-1.8,4.4h1.8v-1.9h1.1v1.9h.7v1h-.7v1.2h-1.1.1v.1Z"/>
    <path class="st10" d="M608.45,18.75c.4-.5,1-.8,1.9-.8s1.5.3,1.9.8.6,1.4.6,2.6-.2,2.1-.6,2.6-1,.8-1.9.8-1.5-.3-1.9-.8-.6-1.4-.6-2.6.2-2.1.6-2.7h0v.1ZM611.35,19.45c-.2-.4-.6-.5-1-.5s-.8.2-1,.5-.3,1-.3,1.9.1,1.5.3,1.9c.2.3.6.5,1,.5s.8-.2,1-.5c.2-.4.3-1,.3-1.9s-.1-1.6-.3-1.9Z"/>
    <path class="st10" d="M614.05,18.75c.4-.5,1-.8,1.9-.8s1.5.3,1.9.8.6,1.4.6,2.6-.2,2.1-.6,2.6-1,.8-1.9.8-1.5-.3-1.9-.8-.6-1.4-.6-2.6.2-2.1.6-2.7h0v.1ZM616.95,19.45c-.2-.4-.5-.5-1-.5s-.8.2-1,.5-.3,1-.3,1.9.1,1.5.3,1.9c.2.3.6.5,1,.5s.8-.2,1-.5c.2-.4.3-1,.3-1.9s-.1-1.6-.3-1.9Z"/>
  </g>
  <line class="st7" x1="144.7" y1="3.9" x2="144.7" y2="14.7"/>
  <line class="st7" x1="144.6" y1="28.5" x2="144.6" y2="38.9"/>
  <g>
    <path class="st10" d="M566.67,18.75c.6-.2,1.3-.3,2-.3s1.3,0,1.6.4.5.7.5,1.3,0,.5-.2.7c-.1.2-.2.4-.3.5-.1,0-.2.2-.4.3.4.2.6.3.8.5.2.2.2.5.2,1s-.2,1.2-.5,1.6c-.3.3-.9.5-1.7.5h-1c-.4,0-.6,0-.9-.2h-.3v-.9c.7,0,1.4.2,1.9.2.8,0,1.2-.4,1.2-1.1s-.1-.6-.3-.7c-.2-.2-.5-.3-.8-.3h-1.3v-.9h1.3c.2,0,.5,0,.7-.3.2-.2.3-.5.3-.7s0-.5-.3-.6c-.2,0-.4-.2-.8-.2h-1.9v-.8h.2Z"/>
    <path class="st10" d="M572.47,19.25c.4-.5,1-.8,1.9-.8s1.5.3,1.9.8.6,1.4.6,2.6-.2,2.1-.6,2.6-1,.8-1.9.8-1.5-.3-1.9-.8-.6-1.4-.6-2.6.2-2.1.6-2.7h0v.1ZM575.37,19.95c-.2-.4-.6-.5-1-.5s-.8.2-1,.5-.3,1-.3,1.9.1,1.5.3,1.9c.2.3.6.5,1,.5s.8-.2,1-.5c.2-.4.3-1,.3-1.9s-.1-1.6-.3-1.9Z"/>
    <path class="st10" d="M578.07,19.25c.4-.5,1-.8,1.9-.8s1.5.3,1.9.8.6,1.4.6,2.6-.2,2.1-.6,2.6-1,.8-1.9.8-1.5-.3-1.9-.8-.6-1.4-.6-2.6.2-2.1.6-2.7h0v.1ZM580.97,19.95c-.2-.4-.5-.5-1-.5s-.8.2-1,.5-.3,1-.3,1.9.1,1.5.3,1.9c.2.3.6.5,1,.5s.8-.2,1-.5c.2-.4.3-1,.3-1.9s-.1-1.6-.3-1.9Z"/>
  </g>
  <line class="st7" x1="180.1" y1="4" x2="180.1" y2="14.3"/>
  <line class="st7" x1="180.1" y1="28.8" x2="180.1" y2="39"/>
  <g>
    <path class="st10" d="M535.1,25.1h-4.2v-1l1.6-1.7c.5-.5.8-.9,1-1.2s.3-.6.3-.9,0-.6-.3-.7-.5-.2-1-.2h-1.6v-.8c.6-.2,1.3-.3,2-.3,1.4,0,2.1.6,2.1,1.8s-.1.9-.3,1.2-.6.8-1.1,1.3l-1.4,1.4h3v1h-.1v.1Z"/>
    <path class="st10" d="M540.6,18.5v1h-3.1l-.2,1.7c.5-.2.9-.3,1.3-.3,1.4,0,2.1.7,2.1,2s-.2,1.3-.6,1.7-.9.6-1.7.6h-1c-.4,0-.7,0-.9-.2h-.3v-.9c.9,0,1.6.2,2.1.2s.7,0,.9-.3c.2-.2.3-.5.3-.9s0-.7-.3-.9c-.2-.2-.4-.3-.7-.3-.5,0-1,0-1.3.2h-.9l.2-3.5h4.1v-.1Z"/>
    <path class="st10" d="M542.3,19.2c.4-.5,1-.8,1.9-.8s1.5.3,1.9.8.6,1.4.6,2.6-.2,2.1-.6,2.6-1,.8-1.9.8-1.5-.3-1.9-.8-.6-1.4-.6-2.6.2-2.1.6-2.7h0v.1ZM545.2,19.9c-.2-.4-.5-.5-1-.5s-.8.2-1,.5-.3,1-.3,1.9.1,1.5.3,1.9c.2.3.6.5,1,.5s.8-.2,1-.5c.2-.4.3-1,.3-1.9s-.1-1.6-.3-1.9Z"/>
  </g>
  <line class="st7" x1="216" y1="3.9" x2="216" y2="14.6"/>
  <line class="st7" x1="216" y1="28.4" x2="216" y2="39"/>
  <g>
    <path class="st10" d="M498.8,24.85h-4.2v-1l1.6-1.7c.5-.5.8-.9,1-1.2.2-.3.3-.6.3-.9s0-.6-.3-.7-.5-.2-1-.2-.9,0-1.4.1h-.2v-.8c.6-.2,1.3-.3,2-.3,1.4,0,2.1.6,2.1,1.8s-.1.9-.3,1.2-.6.8-1.1,1.3l-1.4,1.4h3v1h-.1Z"/>
    <path class="st10" d="M500.4,18.95c.4-.5,1-.8,1.9-.8s1.5.3,1.9.8.6,1.4.6,2.6-.2,2.1-.6,2.6-1,.8-1.9.8-1.5-.3-1.9-.8-.6-1.4-.6-2.6.2-2.1.6-2.7h0v.1ZM503.3,19.65c-.2-.4-.6-.5-1-.5s-.8.2-1,.5-.3,1-.3,1.9.1,1.5.3,1.9c.2.3.6.5,1,.5s.8-.2,1-.5c.2-.4.3-1,.3-1.9s-.1-1.6-.3-1.9h0Z"/>
    <path class="st10" d="M506,18.95c.4-.5,1-.8,1.9-.8s1.5.3,1.9.8.6,1.4.6,2.6-.2,2.1-.6,2.6-1,.8-1.9.8-1.5-.3-1.9-.8-.6-1.4-.6-2.6.2-2.1.6-2.7h0v.1ZM508.9,19.65c-.2-.4-.5-.5-1-.5s-.8.2-1,.5-.3,1-.3,1.9.1,1.5.3,1.9c.2.3.6.5,1,.5s.8-.2,1-.5c.2-.4.3-1,.3-1.9s-.1-1.6-.3-1.9h0Z"/>
  </g>
  <line class="st7" x1="251.9" y1="4" x2="251.9" y2="14.6"/>
  <line class="st7" x1="251.9" y1="28.4" x2="251.9" y2="39"/>
  <g>
    <path class="st10" d="M462.4,18.05v6.6h-1.1v-5.3l-1.5,1-.5-.8,2.1-1.4h1v-.1Z"/>
    <path class="st10" d="M465,18.45c.4-.3,1-.5,1.7-.5s1.3.2,1.8.5c.4.3.7.7.7,1.3s0,.7-.2.9c-.1.2-.4.4-.7.6.3.2.6.4.7.7.2.2.2.5.2,1,0,.7-.2,1.2-.7,1.5s-1.1.5-1.8.5c-1.7,0-2.5-.6-2.5-1.8s0-.8.2-1,.4-.5.7-.7c-.3-.2-.5-.4-.7-.6-.1-.2-.2-.5-.2-.9,0-.6.2-1,.6-1.3l.2-.2ZM465.4,22.75c0,.7.4,1,1.3,1s1.3-.4,1.3-1.1-.3-.8-.8-.9h-1c-.5.2-.8.5-.8,1ZM467.9,19.95c0-.6-.4-.9-1.2-.9s-1.2.3-1.2.9.2.7.7,1h1c.5-.2.7-.5.7-1Z"/>
    <path class="st10" d="M470.5,18.75c.4-.5,1-.8,1.9-.8s1.5.3,1.9.8.6,1.4.6,2.6-.2,2.1-.6,2.6-1,.8-1.9.8-1.5-.3-1.9-.8-.6-1.4-.6-2.6.2-2.1.6-2.7h0v.1ZM473.4,19.55c-.2-.4-.5-.5-1-.5s-.8.2-1,.5-.3,1-.3,1.9.1,1.5.3,1.9c.2.3.6.5,1,.5s.8-.2,1-.5c.2-.4.3-1,.3-1.9s-.1-1.6-.3-1.9Z"/>
  </g>
  <line class="st7" x1="287.8" y1="3.9" x2="287.8" y2="14.6"/>
  <line class="st7" x1="287.8" y1="28.4" x2="287.8" y2="39"/>
  <g>
    <path class="st10" d="M426.6,17.85v6.6h-1.1v-5.3l-1.5,1-.5-.8,2.1-1.4h1v-.1Z"/>
    <path class="st10" d="M433.1,18.85c-.6,0-1.2-.1-1.8-.1s-.9.2-1.2.5-.4.8-.4,1.4h.2c.5-.2.9-.3,1.2-.3,1.5,0,2.2.7,2.2,2.1s-.2,1.3-.6,1.6c-.4.4-1,.6-1.8.6s-1.4-.3-1.8-.9-.6-1.4-.6-2.5c0-2.3.9-3.4,2.7-3.4s1,0,1.6.2h.3v.9-.1h0ZM429.9,21.45h-.2c0,1.4.5,2.1,1.3,2.1s.7-.1.9-.3c.2-.2.3-.5.3-.9s-.1-.7-.3-.9c-.2-.2-.5-.3-.9-.3s-.8,0-1.2.2h.1v.1Z"/>
    <path class="st10" d="M434.7,18.55c.4-.5,1-.8,1.9-.8s1.5.3,1.9.8.6,1.4.6,2.6-.2,2.1-.6,2.6-1,.8-1.9.8-1.5-.3-1.9-.8-.6-1.4-.6-2.6.2-2.1.6-2.7h0v.1ZM437.6,19.25c-.2-.4-.5-.5-1-.5s-.8.2-1,.5-.3,1-.3,1.9.1,1.5.3,1.9c.2.3.6.5,1,.5s.8-.2,1-.5c.2-.4.3-1,.3-1.9s-.1-1.6-.3-1.9Z"/>
  </g>
  <line class="st7" x1="324" y1="3.9" x2="324" y2="14.6"/>
  <line class="st7" x1="324" y1="28.4" x2="324" y2="38.8"/>
  <g>
    <path class="st2" d="M390.9,18.2v6.6h-1.1v-5.3l-1.5,1-.5-.8,2.1-1.4h1v-.1Z"/>
    <path class="st2" d="M395.8,24.8v-1.2h-3v-.9l1.7-4.6h1.2l-1.8,4.4h1.8v-1.9h1.1v1.9h.7v1h-.7v1.2h-1.1v.1h.1Z"/>
    <path class="st2" d="M398.9,18.9c.4-.5,1-.8,1.9-.8s1.5.3,1.9.8.6,1.4.6,2.6-.2,2.1-.6,2.6-1,.8-1.9.8-1.5-.3-1.9-.8-.6-1.4-.6-2.6.2-2.1.6-2.7h0v.1ZM401.8,19.6c-.2-.4-.5-.5-1-.5s-.8.2-1,.5-.3,1-.3,1.9.1,1.5.3,1.9c.2.3.6.5,1,.5s.8-.2,1-.5c.2-.4.3-1,.3-1.9s-.1-1.6-.3-1.9Z"/>
  </g>
  <line class="st7" x1="359.9" y1="3.8" x2="359.9" y2="14.4"/>
  <line class="st7" x1="359.9" y1="28.4" x2="359.9" y2="38.8"/>
  <g>
    <path class="st2" d="M355.2,18.2v6.6h-1.1v-5.3l-1.5,1-.5-.8,2.1-1.4h1v-.1Z"/>
    <path class="st2" d="M361.7,24.8h-4.2v-1l1.6-1.7c.5-.5.8-.9,1-1.2.2-.3.3-.6.3-.9s0-.6-.3-.7-.5-.2-1-.2-.9,0-1.4.1h-.2v-.8c.6-.2,1.3-.3,2-.3,1.4,0,2.1.6,2.1,1.8s-.1.9-.3,1.2-.6.8-1.1,1.3l-1.4,1.4h3v1s-.1,0-.1,0Z"/>
    <path class="st2" d="M363.3,18.9c.4-.5,1-.8,1.9-.8s1.5.3,1.9.8.6,1.4.6,2.6-.2,2.1-.6,2.6-1,.8-1.9.8-1.5-.3-1.9-.8-.6-1.4-.6-2.6.2-2.1.6-2.7h0v.1ZM366.2,19.6c-.2-.4-.5-.5-1-.5s-.8.2-1,.5-.3,1-.3,1.9.1,1.5.3,1.9c.2.3.6.5,1,.5s.8-.2,1-.5c.2-.4.3-1,.3-1.9s-.1-1.6-.3-1.9Z"/>
  </g>
  <line class="st7" x1="395.4" y1="3.9" x2="395.4" y2="14.4"/>
  <line class="st7" x1="395.4" y1="28.4" x2="395.4" y2="38.9"/>
  <g>
    <path class="st10" d="M318.95,18.7v6.6h-1.1v-5.3l-1.5,1-.5-.8,2.1-1.4h1v-.1Z"/>
    <path class="st10" d="M321.35,19.4c.4-.5,1-.8,1.9-.8s1.5.3,1.9.8.6,1.4.6,2.6-.2,2.1-.6,2.6-1,.8-1.9.8-1.5-.3-1.9-.8-.6-1.4-.6-2.6.2-2.1.6-2.7h0v.1ZM324.25,20.1c-.2-.4-.6-.5-1-.5s-.8.2-1,.5-.3,1-.3,1.9.1,1.5.3,1.9c.2.3.6.5,1,.5s.8-.2,1-.5c.2-.4.3-1,.3-1.9s-.1-1.6-.3-1.9Z"/>
    <path class="st10" d="M326.95,19.4c.4-.5,1-.8,1.9-.8s1.5.3,1.9.8.6,1.4.6,2.6-.2,2.1-.6,2.6-1,.8-1.9.8-1.5-.3-1.9-.8-.6-1.4-.6-2.6.2-2.1.6-2.7h0v.1ZM329.85,20.1c-.2-.4-.5-.5-1-.5s-.8.2-1,.5-.3,1-.3,1.9.1,1.5.3,1.9c.2.3.6.5,1,.5s.8-.2,1-.5c.2-.4.3-1,.3-1.9s-.1-1.6-.3-1.9Z"/>
  </g>
  <line class="st7" x1="431.4" y1="3.8" x2="431.4" y2="14.6"/>
  <line class="st7" x1="431.4" y1="28.4" x2="431.4" y2="38.8"/>
  <g>
    <path class="st10" d="M283.35,18.2c.4-.3,1-.5,1.7-.5s1.3.2,1.8.5c.4.3.7.7.7,1.3s0,.7-.2.9-.4.4-.7.6c.3.2.6.4.7.7.2.2.2.5.2,1,0,.7-.2,1.2-.7,1.5s-1.1.5-1.8.5c-1.7,0-2.5-.6-2.5-1.8s0-.8.2-1,.4-.5.7-.7c-.3-.2-.5-.4-.7-.6-.1-.2-.2-.5-.2-.9,0-.6.2-1,.6-1.3l.2-.2h0ZM283.75,22.5c0,.7.4,1,1.3,1s1.3-.4,1.3-1.1-.3-.8-.8-.9h-1c-.5.2-.8.5-.8,1ZM286.25,19.6c0-.6-.4-.9-1.2-.9s-1.2.3-1.2.9.2.7.7,1h1c.5-.2.7-.5.7-1Z"/>
    <path class="st10" d="M288.85,18.5c.4-.5,1-.8,1.9-.8s1.5.3,1.9.8.6,1.4.6,2.6-.2,2.1-.6,2.6-1,.8-1.9.8-1.5-.3-1.9-.8-.6-1.4-.6-2.6.2-2.1.6-2.7h0v.1ZM291.75,19.2c-.2-.4-.6-.5-1-.5s-.8.2-1,.5-.3,1-.3,1.9.1,1.5.3,1.9c.2.3.6.5,1,.5s.8-.2,1-.5c.2-.4.3-1,.3-1.9s-.1-1.6-.3-1.9Z"/>
  </g>
  <line class="st7" x1="466.8" y1="4" x2="466.8" y2="14.6"/>
  <line class="st7" x1="466.8" y1="28.4" x2="466.8" y2="39"/>
  <g>
    <path class="st10" d="M251.25,19.05c-.6,0-1.2-.1-1.8-.1s-.9.2-1.2.5c-.3.3-.4.8-.4,1.4h.2c.5-.2.9-.3,1.2-.3,1.5,0,2.2.7,2.2,2.1s-.2,1.3-.6,1.6c-.4.4-1,.6-1.8.6s-1.4-.3-1.8-.9-.6-1.4-.6-2.5c0-2.3.9-3.4,2.7-3.4s1,0,1.6.2h.3v.9c-.1,0,0-.1,0-.1h0ZM248.15,21.75h-.2c0,1.4.5,2.1,1.3,2.1s.7-.1.9-.3c.2-.2.3-.5.3-.9s-.1-.7-.3-.9c-.2-.2-.5-.3-.9-.3s-.8,0-1.2.2h.1v.1Z"/>
    <path class="st10" d="M252.95,18.75c.4-.5,1-.8,1.9-.8s1.5.3,1.9.8.6,1.4.6,2.6-.2,2.1-.6,2.6-1,.8-1.9.8-1.5-.3-1.9-.8-.6-1.4-.6-2.6.2-2.1.6-2.7h0v.1ZM255.85,19.45c-.2-.4-.6-.5-1-.5s-.8.2-1,.5-.3,1-.3,1.9.1,1.5.3,1.9c.2.3.6.5,1,.5s.8-.2,1-.5c.2-.4.3-1,.3-1.9s-.1-1.6-.3-1.9Z"/>
  </g>
  <line class="st7" x1="502.5" y1="3.9" x2="502.5" y2="14.6"/>
  <line class="st7" x1="502.5" y1="28.4" x2="502.5" y2="39"/>
  <g>
    <path class="st10" d="M215.4,18.1v1h-3.1l-.2,1.7c.5-.2.9-.3,1.3-.3,1.4,0,2.1.7,2.1,2s-.2,1.3-.6,1.7-.9.6-1.7.6h-1c-.4,0-.7-.1-.9-.2h-.3v-.9c.9.1,1.6.2,2.1.2s.7-.1.9-.3c.2-.2.3-.5.3-.9s0-.7-.3-.9c-.2-.2-.4-.3-.7-.3-.5,0-1,0-1.3.2h-.9l.2-3.5h3.9l.2-.1h0Z"/>
    <path class="st10" d="M217.1,18.8c.4-.5,1-.8,1.9-.8s1.5.3,1.9.8.6,1.4.6,2.6-.2,2.1-.6,2.6-1,.8-1.9.8-1.5-.3-1.9-.8-.6-1.4-.6-2.6.2-2.1.6-2.7h0v.1ZM220,19.5c-.2-.4-.5-.5-1-.5s-.8.2-1,.5c-.2.4-.3,1-.3,1.9s.1,1.5.3,1.9c.2.3.6.5,1,.5s.8-.2,1-.5c.2-.4.3-1,.3-1.9s-.1-1.6-.3-1.9Z"/>
  </g>
  <line class="st7" x1="539.1" y1="4" x2="539.1" y2="14.9"/>
  <line class="st7" x1="539.1" y1="28.4" x2="539.1" y2="39"/>
  <g>
    <path class="st2" d="M178,24.85v-1.2h-3v-.9l1.7-4.6h1.2l-1.8,4.4h1.8v-1.9h1.1v1.9h.7v1h-.7v1.2h-1.1v.1h.1Z"/>
    <path class="st2" d="M181.2,18.95c.4-.5,1-.8,1.9-.8s1.5.3,1.9.8.6,1.4.6,2.6-.2,2.1-.6,2.6-1,.8-1.9.8-1.5-.3-1.9-.8-.6-1.4-.6-2.6.2-2.1.6-2.7h0v.1ZM184.1,19.65c-.2-.4-.6-.5-1-.5s-.8.2-1,.5-.3,1-.3,1.9.1,1.5.3,1.9c.2.3.6.5,1,.5s.8-.2,1-.5c.2-.4.3-1,.3-1.9s-.1-1.6-.3-1.9Z"/>
  </g>
  <line class="st7" x1="575" y1="4" x2="575" y2="14.6"/>
  <line class="st7" x1="575" y1="28.4" x2="575" y2="39"/>
  <g>
    <path class="st2" d="M139.85,18.15c.6-.2,1.3-.3,2-.3s1.3.1,1.6.4.5.7.5,1.3,0,.5-.2.7c-.1.2-.2.4-.3.5-.1,0-.2.2-.4.3.4.2.6.3.8.5s.2.5.2,1-.2,1.2-.5,1.6c-.3.3-.9.5-1.7.5h-1c-.4,0-.6-.1-.9-.2h-.3v-.9c.7.1,1.4.2,1.9.2.8,0,1.2-.4,1.2-1.1s-.1-.6-.3-.7c-.2-.2-.5-.3-.8-.3h-1.3v-.9h1.3c.2,0,.5-.1.7-.3s.3-.5.3-.7,0-.5-.3-.6c-.2-.1-.4-.2-.8-.2s-1.1,0-1.6.1h-.3v-.8l.2-.1h0Z"/>
    <path class="st2" d="M145.75,18.55c.4-.5,1-.8,1.9-.8s1.5.3,1.9.8.6,1.4.6,2.6-.2,2.1-.6,2.6-1,.8-1.9.8-1.5-.3-1.9-.8-.6-1.4-.6-2.6.2-2.1.6-2.7h0v.1ZM148.65,19.35c-.2-.4-.5-.5-1-.5s-.8.2-1,.5c-.2.4-.3,1-.3,1.9s.1,1.5.3,1.9c.2.3.6.5,1,.5s.8-.2,1-.5c.2-.4.3-1,.3-1.9s-.1-1.6-.3-1.9Z"/>
  </g>
  <line class="st7" x1="610.2" y1="4" x2="610.2" y2="14.6"/>
  <line class="st7" x1="610.2" y1="28.6" x2="610.2" y2="39"/>
  <g>
    <path class="st2" d="M107.7,24.95h-4.2v-1l1.6-1.7c.5-.5.8-.9,1-1.2.2-.3.3-.6.3-.9s0-.6-.3-.7-.5-.2-1-.2h-1.6v-.8c.6-.2,1.3-.3,2-.3,1.4,0,2.1.6,2.1,1.8s-.1.9-.3,1.2-.6.8-1.1,1.3l-1.4,1.4h3v1h-.1v.1Z"/>
    <path class="st2" d="M109.3,19.05c.4-.5,1-.8,1.9-.8s1.5.3,1.9.8.6,1.4.6,2.6-.2,2.1-.6,2.6-1,.8-1.9.8-1.5-.3-1.9-.8-.6-1.4-.6-2.6.2-2.1.6-2.7h0v.1ZM112.2,19.75c-.2-.4-.5-.5-1-.5s-.8.2-1,.5c-.2.4-.3,1-.3,1.9s.1,1.5.3,1.9c.2.3.6.5,1,.5s.8-.2,1-.5c.2-.4.3-1,.3-1.9s-.1-1.6-.3-1.9Z"/>
  </g>
  <line class="st7" x1="646.2" y1="4" x2="646.2" y2="14.6"/>
  <line class="st7" x1="646.2" y1="28.6" x2="646.2" y2="39"/>
  <g>
    <path class="st2" d="M70.75,18.35v6.6h-1.1v-5.3l-1.5,1-.5-.8,2.1-1.4h1v-.1Z"/>
    <path class="st2" d="M73.15,19.05c.4-.5,1-.8,1.9-.8s1.5.3,1.9.8.6,1.4.6,2.6-.2,2.1-.6,2.6-1,.8-1.9.8-1.5-.3-1.9-.8-.6-1.4-.6-2.6.2-2.1.6-2.7h0v.1ZM76.05,19.75c-.2-.4-.5-.5-1-.5s-.8.2-1,.5c-.2.4-.3,1-.3,1.9s.1,1.5.3,1.9c.2.3.6.5,1,.5s.8-.2,1-.5c.2-.4.3-1,.3-1.9s-.1-1.6-.3-1.9Z"/>
  </g>
  <path class="st2" d="M38.85,18.3v1h-3.1l-.2,1.7c.5-.2.9-.3,1.3-.3,1.4,0,2.1.7,2.1,2s-.2,1.3-.6,1.7-.9.6-1.7.6h-1c-.4,0-.7,0-.9-.2h-.3v-.9c.9,0,1.6.2,2.1.2s.7,0,.9-.3c.2-.2.3-.5.3-.9s0-.7-.3-.9c-.2-.2-.4-.3-.7-.3-.5,0-1,0-1.3.2h-.9l.2-3.5h4.1v-.1Z"/>
</svg>