<?xml version="1.0" encoding="UTF-8"?>
<svg id="Livello_1" xmlns="http://www.w3.org/2000/svg" version="1.1" height="46.4px" width="729.4px" viewBox="0 0 729.4 46.4">
  <!-- Generator: Adobe Illustrator 29.6.1, SVG Export Plug-In . SVG Version: 2.1.1 Build 9)  -->
  <defs>
    <style>
      .st0 {
        fill: #ee7326;
      }

      .st1 {
        fill: #71a2d6;
      }

      .st2 {
        fill: #3c3430;
      }

      .st3 {
        fill: #1b4674;
      }

      .st4 {
        fill: #5b0c03;
      }

      .st5 {
        stroke-width: 2px;
      }

      .st5, .st6, .st7 {
        fill: none;
      }

      .st5, .st7 {
        stroke: #3c3430;
        stroke-miterlimit: 9.8;
      }

      .st8 {
        fill: #39322e;
      }

      .st9 {
        fill: #f2a918;
      }

      .st10 {
        fill: #fff;
      }

      .st11 {
        fill: #0f2743;
      }

      .st12 {
        fill: #ea1fe3;
      }

      .st13 {
        fill: #4182c8;
      }

      .st14 {
        fill: #b4eafa;
      }

      .st15 {
        fill: #dbf4fb;
      }

      .st16 {
        fill: #8ce0f8;
      }

      .st17 {
        fill: #a810a3;
      }

      .st18 {
        fill: #2bc7f3;
      }

      .st19 {
        fill: #b1aab1;
      }

      .st20 {
        fill: #3b3330;
      }

      .st21 {
        fill: #8b1204;
      }

      .st22 {
        fill: #f16aed;
      }

      .st23 {
        fill: #4eb5e5;
      }

      .st24 {
        fill: #fff533;
      }

      .st25 {
        fill: #e22208;
      }
    </style>
  </defs>
  <g>
    <path class="st19" d="M36.9,4v35H6.2c-2.8,0-5.1-2.3-5.1-5.1V9.4c0-3,2.4-5.4,5.4-5.4h30.4s0,0,0,0Z"/>
    <rect class="st22" x="37.4" y="3.5" width="35" height="35.9" transform="translate(76.4 -33.4) rotate(90)"/>
    <g>
      <rect class="st12" x="73.3" y="3.6" width="35" height="35.8" transform="translate(112.2 -69.3) rotate(90)"/>
      <rect class="st17" x="109" y="3.6" width="35" height="35.8" transform="translate(148 -105.1) rotate(90)"/>
    </g>
    <g>
      <rect class="st4" x="145" y="3.6" width="35" height="35.8" transform="translate(183.9 -141) rotate(90)"/>
      <rect class="st21" x="180.8" y="3.6" width="35" height="35.8" transform="translate(219.7 -176.8) rotate(90)"/>
      <g>
        <rect class="st25" x="216.6" y="3.6" width="35" height="35.8" transform="translate(255.6 -212.7) rotate(90)"/>
        <rect class="st0" x="252.5" y="3.6" width="35" height="35.8" transform="translate(291.4 -248.5) rotate(90)"/>
      </g>
    </g>
    <g>
      <rect class="st9" x="288.4" y="3.6" width="35" height="35.8" transform="translate(327.3 -284.4) rotate(90)"/>
      <rect class="st24" x="324.1" y="3.6" width="35" height="35.8" transform="translate(363.1 -320.2) rotate(90)"/>
      <g>
        <rect class="st11" x="360" y="3.6" width="35" height="35.8" transform="translate(399 -356.1) rotate(90)"/>
        <rect class="st3" x="395.9" y="3.6" width="35" height="35.8" transform="translate(434.8 -391.9) rotate(90)"/>
      </g>
      <g>
        <rect class="st13" x="431.6" y="3.6" width="35" height="35.8" transform="translate(470.6 -427.7) rotate(90)"/>
        <rect class="st1" x="467.5" y="3.6" width="35" height="35.8" transform="translate(506.5 -463.6) rotate(90)"/>
        <g>
          <rect class="st23" x="503.4" y="3.6" width="35" height="35.8" transform="translate(542.3 -499.4) rotate(90)"/>
          <rect class="st18" x="539.2" y="3.6" width="35" height="35.8" transform="translate(578.2 -535.3) rotate(90)"/>
        </g>
      </g>
    </g>
    <g>
      <rect class="st16" x="575" y="3.6" width="35" height="35.8" transform="translate(614 -571.1) rotate(90)"/>
      <rect class="st14" x="610.9" y="3.6" width="35" height="35.8" transform="translate(649.9 -607) rotate(90)"/>
      <path class="st15" d="M682.1,10v22.3c0,3.7-3,6.7-6.7,6.7h-29.2V4h29.8c3.3,0,6.1,2.7,6.1,6.1h0Z"/>
    </g>
  </g>
  <circle class="st8" cx="703.8" cy="21.5" r="19.8"/>
  <rect class="st6" x="32.1" y="10" width="15.4" height="11.8" transform="translate(55.6 -23.9) rotate(90)"/>
  <path class="st5" d="M1.9,33.7V9.2c0-3.4,2.8-6.2,6.2-6.2h666.5c3.4,0,6.2,2.8,6.2,6.2v24.5c0,3.4-2.8,6.2-6.2,6.2H8.1c-3.4,0-6.2-2.8-6.2-6.2Z"/>
  <path class="st10" d="M719.5,23.7h0c0-7.6-6.2-13.8-13.9-14.2v-1.3c0-.3-.3-.7-.8-.7s-.8.3-.8.7v1.3c-7.8.3-14,6.5-14,14.1,0,.4.3.7.8.7s.3-.1.6-.2c2.5-2.3,5.8-2.3,8.2,0,.1.1.3.2.6.2s.3-.1.5-.2c1-.9,2.2-1.5,3.4-1.6v9.8c0,1.9,1.7,3.7,3.8,3.7s3.8-1.6,3.8-3.7-.3-.7-.8-.7-.8.3-.8.7c0,1.1-1,2.2-2.3,2.2s-2.3-1-2.3-2.2v-9.8c1.1.1,2.4.7,3.4,1.6.2.2.8.2,1,0,2.5-2.3,5.8-2.3,8.3,0,.2.2.7.2.9.1.3-.2.4-.3.4-.5ZM708.7,22.2c-1.3-.8-2.6-1.3-4-1.3h-.2c-1.4,0-2.7.5-4,1.3-.3-4.9.9-8.8,2.5-10.5,1-1.1,2.1-1.1,3.2,0,1.6,1.7,3,5.5,2.5,10.5ZM691.6,22c.7-5.4,4.8-9.6,10-10.8-1.5,1.9-2.9,5.7-2.5,10.8-2.2-1.4-5.1-1.4-7.5,0ZM710.3,22c.3-5.1-1-8.9-2.5-10.8,5.4,1.3,9.4,5.5,10,10.8-2.3-1.4-5.1-1.4-7.5,0Z"/>
  <line class="st7" x1="36.7" y1="4" x2="36.7" y2="14.6"/>
  <g>
    <path class="st20" d="M5.7,25h-1.6v-6h1.6v.3c.6-.3,1-.5,1.4-.5.6,0,1.1.2,1.5.6.7-.4,1.4-.6,2-.6s1.3.2,1.7.7c.3.5.5,1.2.5,2.2v3.3h-1.6v-3.2c0-.5-.1-.9-.2-1.1-.1-.2-.3-.4-.7-.4s-.6,0-.9.2h-.2s0,4.6,0,4.6h-1.6v-3.1c0-.6-.1-1-.2-1.3-.1-.2-.3-.4-.7-.4s-.6,0-.9.2h-.1s0,4.5,0,4.5Z"/>
    <path class="st20" d="M15.7,25h-1.6v-6h1.6v.3c.6-.3,1-.5,1.4-.5.6,0,1.1.2,1.5.6.7-.4,1.4-.6,2-.6s1.3.2,1.6.7c.3.5.5,1.2.5,2.2v3.3h-1.6v-3.2c0-.5-.1-.9-.2-1.1-.1-.2-.3-.4-.7-.4s-.6,0-.9.2h-.2s0,4.6,0,4.6h-1.6v-3.1c0-.6-.1-1-.2-1.3-.1-.2-.3-.4-.7-.4s-.6,0-.9.2h-.1s0,4.5,0,4.5h.1Z"/>
  </g>
  <path class="st5" d="M1.9,33.6V9.1c0-3.4,3-6.2,6.7-6.2h665.8c3.7,0,6.7,2.8,6.7,6.2v24.5c0,3.4-3,6.2-6.7,6.2H8.6c-3.7,0-6.7-2.8-6.7-6.2Z"/>
  <line class="st7" x1="36.7" y1="28.4" x2="36.7" y2="39"/>
  <line class="st7" x1="72.6" y1="3.9" x2="72.6" y2="14.6"/>
  <line class="st7" x1="72.6" y1="28.4" x2="72.6" y2="38.9"/>
  <g>
    <path class="st10" d="M33.6,18.4v1h-3.1s-.2,1.7-.2,1.7c.5-.2.9-.3,1.3-.3,1.4,0,2.1.7,2.1,2s-.2,1.3-.6,1.7-.9.6-1.7.6h-1c-.4,0-.7,0-.9-.2h-.3v-.9c.9,0,1.6.2,2.1.2s.7,0,.9-.3c.2-.2.3-.5.3-.9s0-.7-.3-.9c-.2-.2-.4-.3-.7-.3-.5,0-1,0-1.3.2h-.2s-.7,0-.7,0l.2-3.5h3.9s.2,0,.2,0Z"/>
    <path class="st10" d="M35.3,19.1c.4-.5,1-.8,1.9-.8s1.5.3,1.9.8.6,1.4.6,2.6-.2,2.1-.6,2.6-1,.8-1.9.8-1.5-.3-1.9-.8-.6-1.4-.6-2.6.2-2.1.6-2.7h0ZM38.2,19.8c-.2-.4-.6-.5-1-.5s-.8.2-1,.5-.3,1-.3,1.9.1,1.5.3,1.9c.2.3.6.5,1,.5s.8-.2,1-.5c.2-.4.3-1,.3-1.9s-.1-1.6-.3-1.9Z"/>
    <path class="st10" d="M40.9,19.1c.4-.5,1-.8,1.9-.8s1.5.3,1.9.8.6,1.4.6,2.6-.2,2.1-.6,2.6-1,.8-1.9.8-1.5-.3-1.9-.8-.6-1.4-.6-2.6.2-2.1.6-2.7h0ZM43.8,19.8c-.2-.4-.5-.5-1-.5s-.8.2-1,.5-.3,1-.3,1.9.1,1.5.3,1.9c.2.3.6.5,1,.5s.8-.2,1-.5c.2-.4.3-1,.3-1.9s-.1-1.6-.3-1.9Z"/>
  </g>
  <line class="st7" x1="108.7" y1="4" x2="108.7" y2="14.7"/>
  <line class="st7" x1="108.7" y1="28.5" x2="108.7" y2="39"/>
  <g>
    <path class="st10" d="M68.3,24.8v-1.2s-3,0-3,0v-.9s1.7-4.6,1.7-4.6h1.2s-1.8,4.4-1.8,4.4h1.8s0-1.9,0-1.9h1.1v1.9s.7,0,.7,0v1h-.7s0,1.2,0,1.2h-1.1s.1,0,.1,0Z"/>
    <path class="st10" d="M71.4,18.9c.4-.5,1-.8,1.9-.8s1.5.3,1.9.8.6,1.4.6,2.6-.2,2.1-.6,2.6-1,.8-1.9.8-1.5-.3-1.9-.8-.6-1.4-.6-2.6.2-2.1.6-2.7h0ZM74.3,19.6c-.2-.4-.6-.5-1-.5s-.8.2-1,.5-.3,1-.3,1.9.1,1.5.3,1.9c.2.3.6.5,1,.5s.8-.2,1-.5c.2-.4.3-1,.3-1.9s-.1-1.6-.3-1.9Z"/>
    <path class="st10" d="M77,18.9c.4-.5,1-.8,1.9-.8s1.5.3,1.9.8.6,1.4.6,2.6-.2,2.1-.6,2.6-1,.8-1.9.8-1.5-.3-1.9-.8-.6-1.4-.6-2.6.2-2.1.6-2.7h0ZM79.9,19.6c-.2-.4-.5-.5-1-.5s-.8.2-1,.5-.3,1-.3,1.9.1,1.5.3,1.9c.2.3.6.5,1,.5s.8-.2,1-.5c.2-.4.3-1,.3-1.9s-.1-1.6-.3-1.9Z"/>
  </g>
  <line class="st7" x1="144.7" y1="3.9" x2="144.7" y2="14.7"/>
  <line class="st7" x1="144.6" y1="28.5" x2="144.6" y2="38.9"/>
  <g>
    <path class="st10" d="M101.5,18.4c.6-.2,1.3-.3,2-.3s1.3,0,1.6.4.5.7.5,1.3,0,.5-.2.7c-.1.2-.2.4-.3.5-.1,0-.2.2-.4.3.4.2.6.3.8.5.2.2.2.5.2,1s-.2,1.2-.5,1.6c-.3.3-.9.5-1.7.5h-1c-.4,0-.6,0-.9-.2h-.3v-.9c.7,0,1.4.2,1.9.2.8,0,1.2-.4,1.2-1.1s-.1-.6-.3-.7c-.2-.2-.5-.3-.8-.3h-1.3v-.9h1.3c.2,0,.5,0,.7-.3.2-.2.3-.5.3-.7s0-.5-.3-.6c-.2,0-.4-.2-.8-.2s-1.1,0-1.6,0h-.3v-.8s.2,0,.2,0Z"/>
    <path class="st10" d="M107.3,18.9c.4-.5,1-.8,1.9-.8s1.5.3,1.9.8.6,1.4.6,2.6-.2,2.1-.6,2.6-1,.8-1.9.8-1.5-.3-1.9-.8-.6-1.4-.6-2.6.2-2.1.6-2.7h0ZM110.2,19.6c-.2-.4-.6-.5-1-.5s-.8.2-1,.5-.3,1-.3,1.9.1,1.5.3,1.9c.2.3.6.5,1,.5s.8-.2,1-.5c.2-.4.3-1,.3-1.9s-.1-1.6-.3-1.9Z"/>
    <path class="st10" d="M112.9,18.9c.4-.5,1-.8,1.9-.8s1.5.3,1.9.8.6,1.4.6,2.6-.2,2.1-.6,2.6-1,.8-1.9.8-1.5-.3-1.9-.8-.6-1.4-.6-2.6.2-2.1.6-2.7h0ZM115.8,19.6c-.2-.4-.5-.5-1-.5s-.8.2-1,.5-.3,1-.3,1.9.1,1.5.3,1.9c.2.3.6.5,1,.5s.8-.2,1-.5c.2-.4.3-1,.3-1.9s-.1-1.6-.3-1.9Z"/>
  </g>
  <line class="st7" x1="180.1" y1="4" x2="180.1" y2="14.3"/>
  <line class="st7" x1="180.1" y1="28.8" x2="180.1" y2="39"/>
  <g>
    <path class="st10" d="M141.1,25.1h-4.2v-1s1.6-1.7,1.6-1.7c.5-.5.8-.9,1-1.2s.3-.6.3-.9,0-.6-.3-.7-.5-.2-1-.2-.9,0-1.4,0h-.2v-.8c.6-.2,1.3-.3,2-.3,1.4,0,2.1.6,2.1,1.8s-.1.9-.3,1.2-.6.8-1.1,1.3l-1.4,1.4h3v1h-.1Z"/>
    <path class="st10" d="M146.6,18.5v1h-3.1s-.2,1.7-.2,1.7c.5-.2.9-.3,1.3-.3,1.4,0,2.1.7,2.1,2s-.2,1.3-.6,1.7-.9.6-1.7.6h-1c-.4,0-.7,0-.9-.2h-.3v-.9c.9,0,1.6.2,2.1.2s.7,0,.9-.3c.2-.2.3-.5.3-.9s0-.7-.3-.9c-.2-.2-.4-.3-.7-.3-.5,0-1,0-1.3.2h-.2s-.7,0-.7,0l.2-3.5h3.9s.2,0,.2,0Z"/>
    <path class="st10" d="M148.3,19.2c.4-.5,1-.8,1.9-.8s1.5.3,1.9.8.6,1.4.6,2.6-.2,2.1-.6,2.6-1,.8-1.9.8-1.5-.3-1.9-.8-.6-1.4-.6-2.6.2-2.1.6-2.7h0ZM151.2,19.9c-.2-.4-.5-.5-1-.5s-.8.2-1,.5-.3,1-.3,1.9.1,1.5.3,1.9c.2.3.6.5,1,.5s.8-.2,1-.5c.2-.4.3-1,.3-1.9s-.1-1.6-.3-1.9Z"/>
  </g>
  <line class="st7" x1="216" y1="3.9" x2="216" y2="14.6"/>
  <line class="st7" x1="216" y1="28.4" x2="216" y2="39"/>
  <g>
    <path class="st10" d="M177,25h-4.2v-1s1.6-1.7,1.6-1.7c.5-.5.8-.9,1-1.2.2-.3.3-.6.3-.9s0-.6-.3-.7-.5-.2-1-.2-.9,0-1.4.1h-.2v-.8c.6-.2,1.3-.3,2-.3,1.4,0,2.1.6,2.1,1.8s-.1.9-.3,1.2-.6.8-1.1,1.3l-1.4,1.4h3v1h-.1Z"/>
    <path class="st10" d="M178.6,19.1c.4-.5,1-.8,1.9-.8s1.5.3,1.9.8.6,1.4.6,2.6-.2,2.1-.6,2.6-1,.8-1.9.8-1.5-.3-1.9-.8-.6-1.4-.6-2.6.2-2.1.6-2.7h0ZM181.5,19.8c-.2-.4-.6-.5-1-.5s-.8.2-1,.5-.3,1-.3,1.9.1,1.5.3,1.9c.2.3.6.5,1,.5s.8-.2,1-.5c.2-.4.3-1,.3-1.9s-.1-1.6-.3-1.9h0Z"/>
    <path class="st10" d="M184.2,19.1c.4-.5,1-.8,1.9-.8s1.5.3,1.9.8.6,1.4.6,2.6-.2,2.1-.6,2.6-1,.8-1.9.8-1.5-.3-1.9-.8-.6-1.4-.6-2.6.2-2.1.6-2.7h0ZM187.1,19.8c-.2-.4-.5-.5-1-.5s-.8.2-1,.5-.3,1-.3,1.9.1,1.5.3,1.9c.2.3.6.5,1,.5s.8-.2,1-.5c.2-.4.3-1,.3-1.9s-.1-1.6-.3-1.9h0Z"/>
  </g>
  <line class="st7" x1="251.9" y1="4" x2="251.9" y2="14.6"/>
  <line class="st7" x1="251.9" y1="28.4" x2="251.9" y2="39"/>
  <g>
    <path class="st10" d="M211.8,18.5v6.6h-1.1v-5.3s-1.5,1-1.5,1l-.5-.8,2.1-1.4h1s0-.1,0-.1Z"/>
    <path class="st10" d="M214.4,18.9c.4-.3,1-.5,1.7-.5s1.3.2,1.8.5c.4.3.7.7.7,1.3s0,.7-.2.9c-.1.2-.4.4-.7.6.3.2.6.4.7.7.2.2.2.5.2,1,0,.7-.2,1.2-.7,1.5s-1.1.5-1.8.5c-1.7,0-2.5-.6-2.5-1.8s0-.8.2-1,.4-.5.7-.7c-.3-.2-.5-.4-.7-.6-.1-.2-.2-.5-.2-.9,0-.6.2-1,.6-1.3l.2-.2ZM214.8,23.2c0,.7.4,1,1.3,1s1.3-.4,1.3-1.1-.3-.8-.8-.9h-1c-.5.2-.8.5-.8,1ZM217.3,20.4c0-.6-.4-.9-1.2-.9s-1.2.3-1.2.9.2.7.7,1h1c.5-.2.7-.5.7-1Z"/>
    <path class="st10" d="M219.9,19.2c.4-.5,1-.8,1.9-.8s1.5.3,1.9.8.6,1.4.6,2.6-.2,2.1-.6,2.6-1,.8-1.9.8-1.5-.3-1.9-.8-.6-1.4-.6-2.6.2-2.1.6-2.7h0ZM222.8,20c-.2-.4-.5-.5-1-.5s-.8.2-1,.5-.3,1-.3,1.9.1,1.5.3,1.9c.2.3.6.5,1,.5s.8-.2,1-.5c.2-.4.3-1,.3-1.9s-.1-1.6-.3-1.9Z"/>
  </g>
  <line class="st7" x1="287.8" y1="3.9" x2="287.8" y2="14.6"/>
  <line class="st7" x1="287.8" y1="28.4" x2="287.8" y2="39"/>
  <g>
    <path class="st10" d="M247.6,18.4v6.6h-1.1v-5.3s-1.5,1-1.5,1l-.5-.8,2.1-1.4h1s0-.1,0-.1Z"/>
    <path class="st10" d="M254.1,19.4c-.6,0-1.2-.1-1.8-.1s-.9.2-1.2.5c-.3.3-.4.8-.4,1.4h.2c.5-.2.9-.3,1.2-.3,1.5,0,2.2.7,2.2,2.1s-.2,1.3-.6,1.6c-.4.4-1,.6-1.8.6s-1.4-.3-1.8-.9-.6-1.4-.6-2.5c0-2.3.9-3.4,2.7-3.4s1,0,1.6.2h.3v.9s0-.1,0-.1ZM250.9,22h-.2c0,1.4.5,2.1,1.3,2.1s.7-.1.9-.3c.2-.2.3-.5.3-.9s-.1-.7-.3-.9c-.2-.2-.5-.3-.9-.3s-.8,0-1.2.2h.1Z"/>
    <path class="st10" d="M255.7,19.1c.4-.5,1-.8,1.9-.8s1.5.3,1.9.8.6,1.4.6,2.6-.2,2.1-.6,2.6-1,.8-1.9.8-1.5-.3-1.9-.8-.6-1.4-.6-2.6.2-2.1.6-2.7h0ZM258.6,19.8c-.2-.4-.5-.5-1-.5s-.8.2-1,.5-.3,1-.3,1.9.1,1.5.3,1.9c.2.3.6.5,1,.5s.8-.2,1-.5c.2-.4.3-1,.3-1.9s-.1-1.6-.3-1.9Z"/>
  </g>
  <line class="st7" x1="324" y1="3.9" x2="324" y2="14.6"/>
  <line class="st7" x1="324" y1="28.4" x2="324" y2="38.8"/>
  <g>
    <path class="st2" d="M284,18.4v6.6h-1.1v-5.3s-1.5,1-1.5,1l-.5-.8,2.1-1.4h1s0-.1,0-.1Z"/>
    <path class="st2" d="M288.9,25v-1.2s-3,0-3,0v-.9s1.7-4.6,1.7-4.6h1.2s-1.8,4.4-1.8,4.4h1.8s0-1.9,0-1.9h1.1v1.9s.7,0,.7,0v1h-.7s0,1.2,0,1.2h-1.1s0,.1,0,.1Z"/>
    <path class="st2" d="M292,19.1c.4-.5,1-.8,1.9-.8s1.5.3,1.9.8.6,1.4.6,2.6-.2,2.1-.6,2.6-1,.8-1.9.8-1.5-.3-1.9-.8-.6-1.4-.6-2.6.2-2.1.6-2.7h0ZM294.9,19.8c-.2-.4-.5-.5-1-.5s-.8.2-1,.5-.3,1-.3,1.9.1,1.5.3,1.9c.2.3.6.5,1,.5s.8-.2,1-.5c.2-.4.3-1,.3-1.9s-.1-1.6-.3-1.9Z"/>
  </g>
  <line class="st7" x1="359.9" y1="3.8" x2="359.9" y2="14.4"/>
  <line class="st7" x1="359.9" y1="28.4" x2="359.9" y2="38.8"/>
  <g>
    <path class="st2" d="M320.4,18.5v6.6h-1.1v-5.3s-1.5,1-1.5,1l-.5-.8,2.1-1.4h1s0-.1,0-.1Z"/>
    <path class="st2" d="M326.9,25.1h-4.2v-1s1.6-1.7,1.6-1.7c.5-.5.8-.9,1-1.2.2-.3.3-.6.3-.9s0-.6-.3-.7-.5-.2-1-.2-.9,0-1.4.1h-.2v-.8c.6-.2,1.3-.3,2-.3,1.4,0,2.1.6,2.1,1.8s-.1.9-.3,1.2-.6.8-1.1,1.3l-1.4,1.4h3v1h-.1Z"/>
    <path class="st2" d="M328.5,19.2c.4-.5,1-.8,1.9-.8s1.5.3,1.9.8.6,1.4.6,2.6-.2,2.1-.6,2.6-1,.8-1.9.8-1.5-.3-1.9-.8-.6-1.4-.6-2.6.2-2.1.6-2.7h0ZM331.4,19.9c-.2-.4-.5-.5-1-.5s-.8.2-1,.5-.3,1-.3,1.9.1,1.5.3,1.9c.2.3.6.5,1,.5s.8-.2,1-.5c.2-.4.3-1,.3-1.9s-.1-1.6-.3-1.9Z"/>
  </g>
  <line class="st7" x1="395.4" y1="3.9" x2="395.4" y2="14.4"/>
  <line class="st7" x1="395.4" y1="28.4" x2="395.4" y2="38.9"/>
  <g>
    <path class="st10" d="M355.4,18.4v6.6h-1.1v-5.3s-1.5,1-1.5,1l-.5-.8,2.1-1.4h1s0-.1,0-.1Z"/>
    <path class="st10" d="M357.8,19.1c.4-.5,1-.8,1.9-.8s1.5.3,1.9.8.6,1.4.6,2.6-.2,2.1-.6,2.6-1,.8-1.9.8-1.5-.3-1.9-.8-.6-1.4-.6-2.6.2-2.1.6-2.7h0ZM360.7,19.8c-.2-.4-.6-.5-1-.5s-.8.2-1,.5-.3,1-.3,1.9.1,1.5.3,1.9c.2.3.6.5,1,.5s.8-.2,1-.5c.2-.4.3-1,.3-1.9s-.1-1.6-.3-1.9Z"/>
    <path class="st10" d="M363.4,19.1c.4-.5,1-.8,1.9-.8s1.5.3,1.9.8.6,1.4.6,2.6-.2,2.1-.6,2.6-1,.8-1.9.8-1.5-.3-1.9-.8-.6-1.4-.6-2.6.2-2.1.6-2.7h0ZM366.3,19.8c-.2-.4-.5-.5-1-.5s-.8.2-1,.5-.3,1-.3,1.9.1,1.5.3,1.9c.2.3.6.5,1,.5s.8-.2,1-.5c.2-.4.3-1,.3-1.9s-.1-1.6-.3-1.9Z"/>
  </g>
  <line class="st7" x1="431.4" y1="3.8" x2="431.4" y2="14.6"/>
  <line class="st7" x1="431.4" y1="28.4" x2="431.4" y2="38.8"/>
  <g>
    <path class="st10" d="M391.3,18.3c.4-.3,1-.5,1.7-.5s1.3.2,1.8.5c.4.3.7.7.7,1.3s0,.7-.2.9-.4.4-.7.6c.3.2.6.4.7.7.2.2.2.5.2,1,0,.7-.2,1.2-.7,1.5s-1.1.5-1.8.5c-1.7,0-2.5-.6-2.5-1.8s0-.8.2-1,.4-.5.7-.7c-.3-.2-.5-.4-.7-.6-.1-.2-.2-.5-.2-.9,0-.6.2-1,.6-1.3l.2-.2ZM391.7,22.6c0,.7.4,1,1.3,1s1.3-.4,1.3-1.1-.3-.8-.8-.9h-1c-.5.2-.8.5-.8,1ZM394.2,19.7c0-.6-.4-.9-1.2-.9s-1.2.3-1.2.9.2.7.7,1h1c.5-.2.7-.5.7-1Z"/>
    <path class="st10" d="M396.8,18.6c.4-.5,1-.8,1.9-.8s1.5.3,1.9.8.6,1.4.6,2.6-.2,2.1-.6,2.6-1,.8-1.9.8-1.5-.3-1.9-.8-.6-1.4-.6-2.6.2-2.1.6-2.7h0ZM399.7,19.3c-.2-.4-.6-.5-1-.5s-.8.2-1,.5-.3,1-.3,1.9.1,1.5.3,1.9c.2.3.6.5,1,.5s.8-.2,1-.5c.2-.4.3-1,.3-1.9s-.1-1.6-.3-1.9Z"/>
  </g>
  <line class="st7" x1="466.8" y1="4" x2="466.8" y2="14.6"/>
  <line class="st7" x1="466.8" y1="28.4" x2="466.8" y2="39"/>
  <g>
    <path class="st10" d="M430.6,19.2c-.6,0-1.2-.1-1.8-.1s-.9.2-1.2.5c-.3.3-.4.8-.4,1.4h.2c.5-.2.9-.3,1.2-.3,1.5,0,2.2.7,2.2,2.1s-.2,1.3-.6,1.6c-.4.4-1,.6-1.8.6s-1.4-.3-1.8-.9-.6-1.4-.6-2.5c0-2.3.9-3.4,2.7-3.4s1,0,1.6.2h.3v.9c-.1,0,0-.1,0-.1ZM427.5,21.9h-.2c0,1.4.5,2.1,1.3,2.1s.7-.1.9-.3c.2-.2.3-.5.3-.9s-.1-.7-.3-.9c-.2-.2-.5-.3-.9-.3s-.8,0-1.2.2h.1Z"/>
    <path class="st10" d="M432.3,18.9c.4-.5,1-.8,1.9-.8s1.5.3,1.9.8.6,1.4.6,2.6-.2,2.1-.6,2.6-1,.8-1.9.8-1.5-.3-1.9-.8-.6-1.4-.6-2.6.2-2.1.6-2.7h0ZM435.2,19.6c-.2-.4-.6-.5-1-.5s-.8.2-1,.5-.3,1-.3,1.9.1,1.5.3,1.9c.2.3.6.5,1,.5s.8-.2,1-.5c.2-.4.3-1,.3-1.9s-.1-1.6-.3-1.9Z"/>
  </g>
  <line class="st7" x1="502.5" y1="3.9" x2="502.5" y2="14.6"/>
  <line class="st7" x1="502.5" y1="28.4" x2="502.5" y2="39"/>
  <g>
    <path class="st10" d="M466.3,18.2v1h-3.1s-.2,1.7-.2,1.7c.5-.2.9-.3,1.3-.3,1.4,0,2.1.7,2.1,2s-.2,1.3-.6,1.7-.9.6-1.7.6h-1c-.4,0-.7-.1-.9-.2h-.3v-.9c.9.1,1.6.2,2.1.2s.7-.1.9-.3c.2-.2.3-.5.3-.9s0-.7-.3-.9c-.2-.2-.4-.3-.7-.3-.5,0-1,0-1.3.2h-.2s-.7,0-.7,0l.2-3.5h3.9s.2-.1.2-.1Z"/>
    <path class="st10" d="M468,18.9c.4-.5,1-.8,1.9-.8s1.5.3,1.9.8.6,1.4.6,2.6-.2,2.1-.6,2.6-1,.8-1.9.8-1.5-.3-1.9-.8-.6-1.4-.6-2.6.2-2.1.6-2.7h0ZM470.9,19.6c-.2-.4-.5-.5-1-.5s-.8.2-1,.5c-.2.4-.3,1-.3,1.9s.1,1.5.3,1.9c.2.3.6.5,1,.5s.8-.2,1-.5c.2-.4.3-1,.3-1.9s-.1-1.6-.3-1.9Z"/>
  </g>
  <line class="st7" x1="539.1" y1="4" x2="539.1" y2="14.9"/>
  <line class="st7" x1="539.1" y1="28.4" x2="539.1" y2="39"/>
  <g>
    <path class="st2" d="M501.5,24.9v-1.2s-3,0-3,0v-.9s1.7-4.6,1.7-4.6h1.2s-1.8,4.4-1.8,4.4h1.8s0-1.9,0-1.9h1.1v1.9s.7,0,.7,0v1h-.7s0,1.2,0,1.2h-1.1s0,.1,0,.1Z"/>
    <path class="st2" d="M504.7,19c.4-.5,1-.8,1.9-.8s1.5.3,1.9.8.6,1.4.6,2.6-.2,2.1-.6,2.6-1,.8-1.9.8-1.5-.3-1.9-.8-.6-1.4-.6-2.6.2-2.1.6-2.7h0ZM507.6,19.7c-.2-.4-.6-.5-1-.5s-.8.2-1,.5-.3,1-.3,1.9.1,1.5.3,1.9c.2.3.6.5,1,.5s.8-.2,1-.5c.2-.4.3-1,.3-1.9s-.1-1.6-.3-1.9Z"/>
  </g>
  <line class="st7" x1="575" y1="4" x2="575" y2="14.6"/>
  <line class="st7" x1="575" y1="28.4" x2="575" y2="39"/>
  <g>
    <path class="st2" d="M534.6,18.5c.6-.2,1.3-.3,2-.3s1.3.1,1.6.4.5.7.5,1.3,0,.5-.2.7c-.1.2-.2.4-.3.5-.1,0-.2.2-.4.3.4.2.6.3.8.5.2.2.2.5.2,1s-.2,1.2-.5,1.6c-.3.3-.9.5-1.7.5h-1c-.4,0-.6-.1-.9-.2h-.3v-.9c.7.1,1.4.2,1.9.2.8,0,1.2-.4,1.2-1.1s-.1-.6-.3-.7c-.2-.2-.5-.3-.8-.3h-1.3v-.9h1.3c.2,0,.5-.1.7-.3s.3-.5.3-.7,0-.5-.3-.6c-.2-.1-.4-.2-.8-.2s-1.1,0-1.6.1h-.3v-.8s.2-.1.2-.1Z"/>
    <path class="st2" d="M540.5,18.9c.4-.5,1-.8,1.9-.8s1.5.3,1.9.8.6,1.4.6,2.6-.2,2.1-.6,2.6-1,.8-1.9.8-1.5-.3-1.9-.8-.6-1.4-.6-2.6.2-2.1.6-2.7h0ZM543.4,19.7c-.2-.4-.5-.5-1-.5s-.8.2-1,.5c-.2.4-.3,1-.3,1.9s.1,1.5.3,1.9c.2.3.6.5,1,.5s.8-.2,1-.5c.2-.4.3-1,.3-1.9s-.1-1.6-.3-1.9Z"/>
  </g>
  <line class="st7" x1="610.2" y1="4" x2="610.2" y2="14.6"/>
  <line class="st7" x1="610.2" y1="28.6" x2="610.2" y2="39"/>
  <g>
    <path class="st2" d="M574,25h-4.2v-1s1.6-1.7,1.6-1.7c.5-.5.8-.9,1-1.2.2-.3.3-.6.3-.9s0-.6-.3-.7-.5-.2-1-.2-.9,0-1.4,0h-.2v-.8c.6-.2,1.3-.3,2-.3,1.4,0,2.1.6,2.1,1.8s-.1.9-.3,1.2-.6.8-1.1,1.3l-1.4,1.4h3v1h-.1Z"/>
    <path class="st2" d="M575.6,19.1c.4-.5,1-.8,1.9-.8s1.5.3,1.9.8.6,1.4.6,2.6-.2,2.1-.6,2.6-1,.8-1.9.8-1.5-.3-1.9-.8-.6-1.4-.6-2.6.2-2.1.6-2.7h0ZM578.5,19.8c-.2-.4-.5-.5-1-.5s-.8.2-1,.5c-.2.4-.3,1-.3,1.9s.1,1.5.3,1.9c.2.3.6.5,1,.5s.8-.2,1-.5c.2-.4.3-1,.3-1.9s-.1-1.6-.3-1.9Z"/>
  </g>
  <line class="st7" x1="646.2" y1="4" x2="646.2" y2="14.6"/>
  <line class="st7" x1="646.2" y1="28.6" x2="646.2" y2="39"/>
  <g>
    <path class="st2" d="M609,18.5v6.6h-1.1v-5.3s-1.5,1-1.5,1l-.5-.8,2.1-1.4h1s0,0,0,0Z"/>
    <path class="st2" d="M611.4,19.2c.4-.5,1-.8,1.9-.8s1.5.3,1.9.8.6,1.4.6,2.6-.2,2.1-.6,2.6-1,.8-1.9.8-1.5-.3-1.9-.8-.6-1.4-.6-2.6.2-2.1.6-2.7h0ZM614.3,19.9c-.2-.4-.5-.5-1-.5s-.8.2-1,.5c-.2.4-.3,1-.3,1.9s.1,1.5.3,1.9c.2.3.6.5,1,.5s.8-.2,1-.5c.2-.4.3-1,.3-1.9s-.1-1.6-.3-1.9Z"/>
  </g>
  <path class="st2" d="M648.5,18.4v1h-3.1s-.2,1.7-.2,1.7c.5-.2.9-.3,1.3-.3,1.4,0,2.1.7,2.1,2s-.2,1.3-.6,1.7-.9.6-1.7.6h-1c-.4,0-.7,0-.9-.2h-.3v-.9c.9,0,1.6.2,2.1.2s.7,0,.9-.3c.2-.2.3-.5.3-.9s0-.7-.3-.9c-.2-.2-.4-.3-.7-.3-.5,0-1,0-1.3.2h-.2s-.7,0-.7,0l.2-3.5h3.9s.2,0,.2,0Z"/>
</svg>