<?xml version="1.0" encoding="UTF-8"?>
<svg id="Livello_1" xmlns="http://www.w3.org/2000/svg" version="1.1" xmlns:xlink="http://www.w3.org/1999/xlink" height="46.4px" width="730.4px" viewBox="0 0 729.4 46.4">
  <!-- Generator: Adobe Illustrator 29.6.1, SVG Export Plug-In . SVG Version: 2.1.1 Build 9)  -->
  <defs>
    <style>
      .st0 {
        fill: #f4bd0b;
      }

      .st0, .st1, .st2, .st3, .st4, .st5, .st6, .st7, .st8, .st9, .st10, .st11, .st12, .st13, .st14, .st15, .st16, .st17, .st18, .st19, .st20, .st21, .st22, .st23, .st24, .st25, .st26, .st27, .st28, .st29, .st30, .st31, .st32, .st33, .st34, .st35, .st36, .st37, .st38, .st39, .st40, .st41, .st42, .st43, .st44, .st45, .st46, .st47 {
        isolation: isolate;
      }

      .st0, .st1, .st2, .st3, .st4, .st5, .st6, .st7, .st8, .st9, .st11, .st12, .st13, .st14, .st15, .st16, .st17, .st18, .st19, .st20, .st21, .st23, .st24, .st25, .st26, .st27, .st28, .st29, .st30, .st31, .st32, .st33, .st34, .st35, .st36, .st37, .st38, .st39, .st40, .st41, .st42, .st43, .st44, .st45, .st46, .st47 {
        opacity: .9;
      }

      .st1 {
        fill: #52ca0b;
      }

      .st48 {
        clip-path: url(#clippath-21);
      }

      .st49 {
        fill: #660666;
      }

      .st50 {
        clip-path: url(#clippath-6);
      }

      .st51 {
        clip-path: url(#clippath-7);
      }

      .st52 {
        clip-path: url(#clippath-17);
      }

      .st53 {
        fill: #3a332f;
      }

      .st53, .st54, .st10, .st55, .st56, .st57 {
        display: none;
      }

      .st58 {
        clip-path: url(#clippath-31);
      }

      .st59 {
        fill: #f7a426;
      }

      .st60 {
        fill: #d0ebf7;
      }

      .st61 {
        fill: #ffffc7;
      }

      .st62 {
        clip-path: url(#clippath-15);
      }

      .st63 {
        clip-path: url(#clippath-33);
      }

      .st2 {
        fill: #b000e0;
      }

      .st64 {
        clip-path: url(#clippath-18);
      }

      .st65 {
        clip-path: url(#clippath-4);
      }

      .st66 {
        fill: #fdcc22;
      }

      .st67 {
        fill: #4469bb;
      }

      .st68 {
        fill: #e8bedb;
      }

      .st69 {
        clip-path: url(#clippath-22);
      }

      .st54 {
        stroke-width: 2.9px;
      }

      .st54, .st70, .st71, .st72, .st56, .st57 {
        fill: none;
      }

      .st54, .st70, .st72 {
        stroke-miterlimit: 9.8;
      }

      .st54, .st70, .st72, .st57 {
        stroke: #3c3430;
      }

      .st3 {
        fill: #003c7f;
      }

      .st73 {
        clip-path: url(#clippath-23);
      }

      .st74 {
        fill: #f6abad;
      }

      .st4 {
        fill: #0062af;
      }

      .st70 {
        stroke-width: 2px;
      }

      .st75 {
        fill: #f7a25c;
      }

      .st5 {
        fill: #8000a3;
      }

      .st76 {
        fill: #fefe82;
      }

      .st6 {
        fill: #d41dd1;
      }

      .st7 {
        fill: #259aff;
      }

      .st8 {
        fill: #f862f1;
      }

      .st9 {
        fill: #9ce106;
      }

      .st77 {
        clip-path: url(#clippath-9);
      }

      .st78 {
        fill: #39322e;
      }

      .st79 {
        clip-path: url(#clippath-10);
      }

      .st80 {
        fill: #981595;
      }

      .st81 {
        fill: #af48a1;
      }

      .st11 {
        fill: #7c0000;
      }

      .st12 {
        fill: #b414b9;
      }

      .st82 {
        fill: #fff;
      }

      .st13 {
        fill: #62af88;
      }

      .st83 {
        clip-path: url(#clippath-25);
      }

      .st84 {
        fill: #58c3ba;
      }

      .st14 {
        fill: #0070cc;
      }

      .st85 {
        fill: #498dd2;
      }

      .st86 {
        clip-path: url(#clippath-27);
      }

      .st15 {
        fill: #0082ef;
      }

      .st87 {
        fill: #4898da;
      }

      .st88 {
        fill: #c3e6d8;
      }

      .st89 {
        fill: #a3a5d7;
      }

      .st90 {
        fill: #ffe173;
      }

      .st91 {
        clip-path: url(#clippath-11);
      }

      .st16 {
        fill: #b46464;
      }

      .st17 {
        fill: #ffb4b4;
      }

      .st92 {
        fill: #ec2426;
      }

      .st93 {
        fill: #d3eca4;
      }

      .st18 {
        fill: #3e007f;
      }

      .st94 {
        fill: #640e0e;
      }

      .st19 {
        fill: #21bb0e;
      }

      .st95 {
        fill: #3f57b0;
      }

      .st96 {
        clip-path: url(#clippath-28);
      }

      .st97 {
        clip-path: url(#clippath-1);
      }

      .st98 {
        fill: #f3f3a1;
      }

      .st99 {
        fill: #c8e8f0;
      }

      .st20 {
        fill: #00467f;
      }

      .st100 {
        fill: #991e1f;
      }

      .st21 {
        fill: #f4880b;
      }

      .st101 {
        fill: #6655ad;
      }

      .st102 {
        clip-path: url(#clippath-5);
      }

      .st103 {
        clip-path: url(#clippath-20);
      }

      .st23 {
        fill: #87d3ab;
      }

      .st24 {
        fill: #af0f14;
      }

      .st104 {
        clip-path: url(#clippath-8);
      }

      .st105 {
        fill: #fcfc1e;
      }

      .st25 {
        fill: #f4d90b;
      }

      .st106 {
        fill: #0eb04e;
      }

      .st26 {
        fill: #bbffe2;
      }

      .st107 {
        fill: #f59826;
      }

      .st27 {
        fill: #c41a0a;
      }

      .st108 {
        fill: snow;
      }

      .st109 {
        fill: #0b7f3f;
      }

      .st110 {
        clip-path: url(#clippath-3);
      }

      .st111 {
        fill: #7ecb47;
      }

      .st28 {
        fill: #f627eb;
      }

      .st112 {
        clip-path: url(#clippath-26);
      }

      .st29 {
        fill: #f46d0b;
      }

      .st113 {
        clip-path: url(#clippath-12);
      }

      .st114 {
        fill: #f06626;
      }

      .st30 {
        fill: #00528f;
      }

      .st115 {
        clip-path: url(#clippath-14);
      }

      .st31 {
        fill: #640000;
      }

      .st116 {
        fill: #f49799;
      }

      .st117 {
        clip-path: url(#clippath-30);
      }

      .st118 {
        fill: #fdebeb;
      }

      .st119 {
        clip-path: url(#clippath-19);
      }

      .st32 {
        fill: #e83709;
      }

      .st120 {
        fill: #f9c1c2;
      }

      .st121 {
        fill: #db4c4d;
      }

      .st122 {
        fill: #37bd7c;
      }

      .st123 {
        clip-path: url(#clippath-32);
      }

      .st33 {
        fill: #ffdcdc;
      }

      .st34 {
        fill: #57007f;
      }

      .st124 {
        fill: #fdd58f;
      }

      .st125 {
        fill: #e67d9b;
      }

      .st35 {
        fill: #f3fb01;
      }

      .st36 {
        fill: #9feec8;
      }

      .st126 {
        fill: #6fc9dc;
      }

      .st37 {
        fill: #f0a0a0;
      }

      .st127 {
        clip-path: url(#clippath-16);
      }

      .st38 {
        fill: #00277a;
      }

      .st128 {
        fill: #b988c1;
      }

      .st129 {
        clip-path: url(#clippath-2);
      }

      .st39 {
        fill: #870898;
      }

      .st40 {
        fill: #78048d;
      }

      .st130 {
        clip-path: url(#clippath-29);
      }

      .st41 {
        fill: #002066;
      }

      .st131 {
        fill: #975ead;
      }

      .st132 {
        fill: #cbe436;
      }

      .st133 {
        fill: #33bcf3;
      }

      .st57 {
        stroke-miterlimit: 10;
        stroke-width: 3px;
      }

      .st134 {
        clip-path: url(#clippath-13);
      }

      .st135 {
        fill: #cb2527;
      }

      .st42 {
        fill: #07a127;
      }

      .st136 {
        fill: #ef5a5c;
      }

      .st137 {
        fill: #fbd5d6;
      }

      .st43 {
        fill: #5bb4ff;
      }

      .st44 {
        fill: #cef003;
      }

      .st45 {
        fill: #85c8ff;
      }

      .st138 {
        clip-path: url(#clippath-24);
      }

      .st46 {
        fill: #00287f;
      }

      .st139 {
        fill: #c66aaf;
      }

      .st140 {
        clip-path: url(#clippath);
      }

      .st47 {
        fill: #64007f;
      }

      .st141 {
        fill: #3c3530;
      }

      .st142 {
        fill: #d7a2cd;
      }
    </style>
    <clipPath id="clippath">
      <path class="st71" d="M271.4,300.9c-.3,3.7-6.4,8.1-11.7,8.1-5.2.4-12.3-3.6-12.3-8.1V-283.2c1.1-5.3,7.4-8.5,11.5-8.5s11.2,3.1,12.4,8.7V300.9h.1Z"/>
    </clipPath>
    <clipPath id="clippath-1">
      <path class="st71" d="M259.4,244c-.3,3.3-5.5,7.3-10.1,7.3-4.5.4-10.6-3.2-10.6-7.3V-282c1-4.8,6.3-7.6,10-7.6s9.7,2.9,10.8,7.8V244h0Z"/>
    </clipPath>
    <clipPath id="clippath-2">
      <path class="st71" d="M259.4,244c-.3,3.3-5.5,7.3-10.1,7.3-4.5.4-10.6-3.2-10.6-7.3V-282c1-4.8,6.3-7.6,10-7.6s9.7,2.9,10.8,7.8V244h0Z"/>
    </clipPath>
    <clipPath id="clippath-3">
      <path class="st71" d="M259.4,244c-.3,3.3-5.5,7.3-10.1,7.3-4.5.4-10.6-3.2-10.6-7.3V-282c1-4.8,6.3-7.6,10-7.6s9.7,2.9,10.8,7.8V244h0Z"/>
    </clipPath>
    <clipPath id="clippath-4">
      <path class="st71" d="M259.4,244c-.3,3.3-5.5,7.3-10.1,7.3-4.5.4-10.6-3.2-10.6-7.3V-282c1-4.8,6.3-7.6,10-7.6s9.7,2.9,10.8,7.8V244h0Z"/>
    </clipPath>
    <clipPath id="clippath-5">
      <path class="st71" d="M259.4,244c-.3,3.3-5.5,7.3-10.1,7.3-4.5.4-10.6-3.2-10.6-7.3V-282c1-4.8,6.3-7.6,10-7.6s9.7,2.9,10.8,7.8V244h0Z"/>
    </clipPath>
    <clipPath id="clippath-6">
      <path class="st71" d="M259.4,244c-.3,3.3-5.5,7.3-10.1,7.3-4.5.4-10.6-3.2-10.6-7.3V-282c1-4.8,6.3-7.6,10-7.6s9.7,2.9,10.8,7.8V244h0Z"/>
    </clipPath>
    <clipPath id="clippath-7">
      <path class="st71" d="M259.4,244c0,3.6-5.8,7.9-10.4,7.9h-.6c-4.2,0-9.7-3.8-9.7-7.9V-282c1-4.8,6.3-7.6,10-7.6s9.7,2.9,10.7,7.8V244Z"/>
    </clipPath>
    <clipPath id="clippath-8">
      <path class="st71" d="M259.4,244c0,3.6-5.8,7.9-10.4,7.9h-.6c-4.2,0-9.7-3.8-9.7-7.9V-282c1-4.8,6.3-7.6,10-7.6s9.7,2.9,10.7,7.8V244Z"/>
    </clipPath>
    <clipPath id="clippath-9">
      <path class="st71" d="M259.4,244c0,3.6-5.8,7.9-10.4,7.9h-.6c-4.2,0-9.7-3.8-9.7-7.9V-282c1-4.8,6.3-7.6,10-7.6s9.7,2.9,10.7,7.8V244Z"/>
    </clipPath>
    <clipPath id="clippath-10">
      <path class="st71" d="M259.4,244c0,3.6-5.8,7.9-10.4,7.9h-.6c-4.2,0-9.7-3.8-9.7-7.9V-282c1-4.8,6.3-7.6,10-7.6s9.7,2.9,10.7,7.8V244Z"/>
    </clipPath>
    <clipPath id="clippath-11">
      <path class="st71" d="M259.4,244c0,3.6-5.8,7.9-10.4,7.9h-.6c-4.2,0-9.7-3.8-9.7-7.9V-282c1-4.8,6.3-7.6,10-7.6s9.7,2.9,10.7,7.8V244Z"/>
    </clipPath>
    <clipPath id="clippath-12">
      <path class="st71" d="M259.4,244c0,3.6-5.8,7.9-10.4,7.9h-.6c-4.2,0-9.7-3.8-9.7-7.9V-282c1-4.8,6.3-7.6,10-7.6s9.7,2.9,10.7,7.8V244Z"/>
    </clipPath>
    <clipPath id="clippath-13">
      <path class="st71" d="M259.4,244c0,3.6-5.8,7.9-10.4,7.9h-.6c-4.2,0-9.7-3.8-9.7-7.9V-282c1-4.8,6.3-7.6,10-7.6s9.7,2.9,10.7,7.8V244Z"/>
    </clipPath>
    <clipPath id="clippath-14">
      <path class="st71" d="M259.4,244c0,3.6-5.8,7.9-10.4,7.9h-.6c-4.2,0-9.7-3.8-9.7-7.9V-282c1-4.8,6.3-7.6,10-7.6s9.7,2.9,10.7,7.8V244Z"/>
    </clipPath>
    <clipPath id="clippath-15">
      <path class="st71" d="M259.4,244c0,3.6-5.8,7.9-10.4,7.9h-.6c-4.2,0-9.7-3.8-9.7-7.9V-282c1-4.8,6.3-7.6,10-7.6s9.7,2.9,10.7,7.8V244Z"/>
    </clipPath>
    <clipPath id="clippath-16">
      <path class="st71" d="M259.4,244c0,3.6-5.8,7.9-10.4,7.9h-.6c-4.2,0-9.7-3.8-9.7-7.9V-282c1-4.8,6.3-7.6,10-7.6s9.7,2.9,10.7,7.8V244Z"/>
    </clipPath>
    <clipPath id="clippath-17">
      <path class="st71" d="M259.4,244c0,3.6-5.8,7.9-10.4,7.9h-.6c-4.2,0-9.7-3.8-9.7-7.9V-282c1-4.8,6.3-7.6,10-7.6s9.7,2.9,10.7,7.8V244Z"/>
    </clipPath>
    <clipPath id="clippath-18">
      <path class="st71" d="M259.4,244c0,3.6-5.8,7.9-10.4,7.9h-.6c-4.2,0-9.7-3.8-9.7-7.9V-282c1-4.8,6.3-7.6,10-7.6s9.7,2.9,10.7,7.8V244Z"/>
    </clipPath>
    <clipPath id="clippath-19">
      <path class="st71" d="M259.4,244c0,3.6-5.8,7.9-10.4,7.9h-.6c-4.2,0-9.7-3.8-9.7-7.9V-282c1-4.8,6.3-7.6,10-7.6s9.7,2.9,10.7,7.8V244Z"/>
    </clipPath>
    <clipPath id="clippath-20">
      <path class="st71" d="M259.4,244c0,3.6-5.8,7.9-10.4,7.9h-.6c-4.2,0-9.7-3.8-9.7-7.9V-282c1-4.8,6.3-7.6,10-7.6s9.7,2.9,10.7,7.8V244Z"/>
    </clipPath>
    <clipPath id="clippath-21">
      <path class="st71" d="M259.4,244c0,3.6-5.8,7.9-10.4,7.9h-.6c-4.2,0-9.7-3.8-9.7-7.9V-282c1-4.8,6.3-7.6,10-7.6s9.7,2.9,10.7,7.8V244Z"/>
    </clipPath>
    <clipPath id="clippath-22">
      <path class="st71" d="M259.4,244c0,3.6-5.8,7.9-10.4,7.9h-.6c-4.2,0-9.7-3.8-9.7-7.9V-282c1-4.8,6.3-7.6,10-7.6s9.7,2.9,10.7,7.8V244Z"/>
    </clipPath>
    <clipPath id="clippath-23">
      <path class="st71" d="M259.4,244c0,3.6-5.8,7.9-10.4,7.9h-.6c-4.2,0-9.7-3.8-9.7-7.9V-282c1-4.8,6.3-7.6,10-7.6s9.7,2.9,10.7,7.8V244Z"/>
    </clipPath>
    <clipPath id="clippath-24">
      <path class="st71" d="M259.4,244c0,3.6-5.8,7.9-10.4,7.9h-.6c-4.2,0-9.7-3.8-9.7-7.9V-282c1-4.8,6.3-7.6,10-7.6s9.7,2.9,10.7,7.8V244Z"/>
    </clipPath>
    <clipPath id="clippath-25">
      <path class="st71" d="M259.4,244c0,3.6-5.8,7.9-10.4,7.9h-.6c-4.2,0-9.7-3.8-9.7-7.9V-282c1-4.8,6.3-7.6,10-7.6s9.7,2.9,10.7,7.8V244Z"/>
    </clipPath>
    <clipPath id="clippath-26">
      <path class="st71" d="M259.4,244c0,3.6-5.8,7.9-10.4,7.9h-.6c-4.2,0-9.7-3.8-9.7-7.9V-282c1-4.8,6.3-7.6,10-7.6s9.7,2.9,10.7,7.8V244Z"/>
    </clipPath>
    <clipPath id="clippath-27">
      <path class="st71" d="M259.2,244.2c-.3,3.3-5.5,7.3-10.1,7.3-4.5.4-10.6-3.2-10.6-7.3V-281.8c1-4.8,6.3-7.6,10-7.6s9.7,2.9,10.8,7.8V244.2h0Z"/>
    </clipPath>
    <clipPath id="clippath-28">
      <path class="st71" d="M259.2,244.2c-.3,3.3-5.5,7.3-10.1,7.3-4.5.4-10.6-3.2-10.6-7.3V-281.8c1-4.8,6.3-7.6,10-7.6s9.7,2.9,10.8,7.8V244.2h0Z"/>
    </clipPath>
    <clipPath id="clippath-29">
      <path class="st71" d="M259.2,244.2c-.3,3.3-5.5,7.3-10.1,7.3-4.5.4-10.6-3.2-10.6-7.3V-281.8c1-4.8,6.3-7.6,10-7.6s9.7,2.9,10.8,7.8V244.2h0Z"/>
    </clipPath>
    <clipPath id="clippath-30">
      <path class="st71" d="M259.2,244.2c-.3,3.3-5.5,7.3-10.1,7.3-4.5.4-10.6-3.2-10.6-7.3V-281.8c1-4.8,6.3-7.6,10-7.6s9.7,2.9,10.8,7.8V244.2h0Z"/>
    </clipPath>
    <clipPath id="clippath-31">
      <path class="st71" d="M259.2,244.2c-.3,3.3-5.5,7.3-10.1,7.3-4.5.4-10.6-3.2-10.6-7.3V-281.8c1-4.8,6.3-7.6,10-7.6s9.7,2.9,10.8,7.8V244.2h0Z"/>
    </clipPath>
    <clipPath id="clippath-32">
      <path class="st71" d="M259.2,244.2c-.3,3.3-5.5,7.3-10.1,7.3-4.5.4-10.6-3.2-10.6-7.3V-281.8c1-4.8,6.3-7.6,10-7.6s9.7,2.9,10.8,7.8V244.2h0Z"/>
    </clipPath>
    <clipPath id="clippath-33">
      <path class="st71" d="M4.8,39.2c-4.2-.4-2.4-10.5-2.4-18.3C2,13.3,1.4,2.6,6.4,2.6l670.4-.6c6,1.6,4.5,13.4,4.5,19.4s2.8,16.1-3.6,17.8H12.4s-7.6,0-7.6,0Z"/>
    </clipPath>
  </defs>
  <g class="st55">
    <g class="st140">
      <g>
        <rect class="st107" x="239.7" y="-290.3" width="47.9" height="15"/>
        <rect class="st66" x="235.2" y="-276" width="47.4" height="14.2"/>
        <rect class="st101" x="235.2" y="-261.8" width="47.4" height="14.2"/>
        <rect class="st131" x="235.2" y="-247.5" width="47.4" height="14.2"/>
        <rect class="st139" x="235.2" y="-233.2" width="47.4" height="14.2"/>
        <rect class="st81" x="235.2" y="-219" width="47.4" height="14.2"/>
        <rect class="st80" x="235.2" y="-204.8" width="47.4" height="14.2"/>
        <rect class="st49" x="235.2" y="-190.6" width="47.4" height="14.2"/>
        <rect class="st94" x="235.2" y="-176.4" width="47.4" height="14.2"/>
        <rect class="st100" x="235.2" y="-162.2" width="47.4" height="14.2"/>
        <rect class="st135" x="235.2" y="-147.9" width="47.4" height="14.2"/>
        <rect class="st92" x="235.2" y="-133.7" width="47.4" height="14.2"/>
        <rect class="st114" x="235.2" y="-119.5" width="47.4" height="14.2"/>
        <rect class="st107" x="235.2" y="-105.3" width="47.4" height="14.2"/>
        <rect class="st66" x="235.2" y="-91.1" width="47.4" height="14.2"/>
        <rect class="st105" x="235.2" y="-76.9" width="47.4" height="14.2"/>
        <rect class="st132" x="235.2" y="-62.6" width="47.4" height="14.2"/>
        <rect class="st111" x="235.2" y="-48.4" width="47.4" height="14.2"/>
        <rect class="st106" x="235.2" y="-34.2" width="47.4" height="14.2"/>
        <rect class="st122" x="235.2" y="-19.9" width="47.4" height="14.2"/>
        <rect class="st84" x="235.2" y="-5.7" width="47.4" height="14.2"/>
        <rect class="st126" x="235.2" y="8.5" width="47.4" height="14.2"/>
        <rect class="st133" x="235.2" y="22.8" width="47.4" height="14.2"/>
        <rect class="st85" x="235.2" y="37" width="47.4" height="14.2"/>
        <rect class="st67" x="235.2" y="51.2" width="47.4" height="14.2"/>
        <rect class="st95" x="235.2" y="65.4" width="47.4" height="14.2"/>
        <rect class="st101" x="235.2" y="79.6" width="47.4" height="14.2"/>
        <rect class="st131" x="235.2" y="93.8" width="47.4" height="14.2"/>
        <rect class="st139" x="235.2" y="108.1" width="47.4" height="14.2"/>
        <rect class="st81" x="235.2" y="122.3" width="47.4" height="14.2"/>
        <rect class="st80" x="235.2" y="136.5" width="47.4" height="14.2"/>
        <rect class="st49" x="235.2" y="150.7" width="47.4" height="14.2"/>
        <rect class="st94" x="235.2" y="164.9" width="47.4" height="14.2"/>
        <rect class="st100" x="235.2" y="179.1" width="47.4" height="14.2"/>
        <rect class="st135" x="235.2" y="193.4" width="47.4" height="14.2"/>
        <rect class="st92" x="235.2" y="207.7" width="47.4" height="14.2"/>
        <rect class="st114" x="235.2" y="221.9" width="47.4" height="14.2"/>
        <rect class="st107" x="235.2" y="236.1" width="47.4" height="14.2"/>
        <rect class="st66" x="235.2" y="250.3" width="47.4" height="60.2"/>
      </g>
    </g>
  </g>
  <path class="st57" d="M271.4,300.8c-.3,3.7-6.4,8.1-11.7,8.1h0c-5.2.4-12.3-3.6-12.3-8.1V-283.3c1.1-5.3,7.4-8.5,11.5-8.5h0c4.9,0,11.2,3.1,12.4,8.7V300.8h.1Z"/>
  <g class="st55">
    <g>
      <g class="st97">
        <rect class="st108" x="233.6" y="160.5" width="30.9" height="96.8"/>
      </g>
      <g class="st129">
        <rect class="st137" x="233.9" y="-15.5" width="30.9" height="88"/>
      </g>
      <g class="st110">
        <rect class="st120" x="233.9" y="-103.5" width="30.9" height="88"/>
      </g>
      <g class="st65">
        <rect class="st118" x="233.6" y="72.5" width="30.9" height="88"/>
      </g>
      <g class="st102">
        <rect class="st74" x="233.9" y="-191.5" width="30.9" height="88"/>
      </g>
      <g class="st50">
        <rect class="st116" x="233.6" y="-288.3" width="30.9" height="96.8"/>
      </g>
    </g>
  </g>
  <g class="st55">
    <g class="st51">
      <rect class="st99" x="227.9" y="-289.6" width="42.3" height="26.6"/>
    </g>
    <g class="st104">
      <rect class="st60" x="227.9" y="-263" width="42.3" height="26.6"/>
    </g>
    <g class="st77">
      <rect class="st87" x="227.9" y="-236.9" width="42.3" height="26.6"/>
    </g>
    <g class="st79">
      <rect class="st89" x="227.9" y="-210.3" width="42.3" height="26.6"/>
    </g>
    <g class="st91">
      <rect class="st128" x="227.9" y="-183.7" width="42.3" height="26.6"/>
    </g>
    <g class="st113">
      <rect class="st142" x="227.9" y="-157" width="42.3" height="26.6"/>
    </g>
    <g class="st134">
      <rect class="st68" x="227.9" y="-130.8" width="42.3" height="26.6"/>
    </g>
    <g class="st115">
      <rect class="st125" x="227.9" y="-104.1" width="42.3" height="26.6"/>
    </g>
    <g class="st62">
      <rect class="st121" x="227.9" y="-77.5" width="42.3" height="26.6"/>
    </g>
    <g class="st127">
      <rect class="st136" x="227.9" y="-50.9" width="42.3" height="26.6"/>
    </g>
    <g class="st52">
      <rect class="st75" x="227.9" y="-24.6" width="42.3" height="26.6"/>
    </g>
    <g class="st64">
      <rect class="st124" x="227.9" y="2" width="42.3" height="26.6"/>
    </g>
    <g class="st119">
      <rect class="st90" x="227.9" y="28.6" width="42.3" height="26.6"/>
    </g>
    <g class="st103">
      <rect class="st76" x="227.9" y="55.2" width="42.3" height="26.6"/>
    </g>
    <g class="st48">
      <rect class="st61" x="227.9" y="81.5" width="42.3" height="26.6"/>
    </g>
    <g class="st69">
      <rect class="st98" x="227.9" y="108.1" width="42.3" height="26.6"/>
    </g>
    <g class="st73">
      <rect class="st93" x="227.9" y="134.8" width="42.3" height="26.6"/>
    </g>
    <g class="st138">
      <rect class="st88" x="227.9" y="161.4" width="42.3" height="26.6"/>
    </g>
    <g class="st83">
      <rect class="st99" x="227.9" y="188" width="42.3" height="26.6"/>
    </g>
    <g class="st112">
      <rect class="st60" x="227.9" y="214.6" width="42.3" height="40.2"/>
    </g>
  </g>
  <g class="st55">
    <g>
      <g class="st86">
        <rect class="st92" x="233.4" y="159.3" width="30.9" height="96.8"/>
      </g>
      <g class="st96">
        <rect class="st105" x="233.7" y="-16.7" width="30.9" height="88"/>
      </g>
      <g class="st130">
        <rect class="st109" x="233.7" y="-104.7" width="30.9" height="88"/>
      </g>
      <g class="st117">
        <rect class="st59" x="233.4" y="71.3" width="30.9" height="88"/>
      </g>
      <g class="st58">
        <rect class="st126" x="233.7" y="-192.7" width="30.9" height="88"/>
      </g>
      <g class="st123">
        <rect class="st95" x="233.7" y="-289.5" width="30.9" height="96.8"/>
      </g>
    </g>
  </g>
  <circle class="st53" cx="248.8" cy="-308.1" r="14.6" transform="translate(513.1 -13.2) rotate(-80.8)"/>
  <path class="st54" d="M259.2,244.2c-.3,3.3-5.5,7.3-10.1,7.3h0c-4.5.4-10.6-3.2-10.6-7.3V-281.8c1-4.8,6.3-7.6,10-7.6h0c4.2,0,9.7,2.9,10.8,7.8V244.2h-.1,0Z"/>
  <g class="st55">
    <path class="st141" d="M244.2,242.7c-.4-.5-.6-1-.6-1.8s.2-1.3.6-1.8.9-.7,1.5-.7,1.1.2,1.5.7c.4.4.6,1,.6,1.8s-.2,1.3-.6,1.8c-.4.4-.9.7-1.5.7s-1.1-.2-1.5-.7ZM246.5,242.1c.2-.3.3-.7.3-1.1s0-.9-.3-1.1c-.2-.3-.5-.4-.8-.4s-.6,0-.8.4c-.2.3-.3.7-.3,1.1s0,.9.3,1.1c.2.3.5.4.8.4s.6-.1.8-.4ZM251,238.6h1.2l-6.1,8.9h-1.1l6-8.9h0ZM250,246.9c-.4-.5-.6-1-.6-1.8s.2-1.3.6-1.8c.4-.4.9-.7,1.5-.7s1.1.2,1.5.7c.4.4.6,1,.6,1.8s-.2,1.3-.6,1.8c-.4.4-.9.7-1.5.7s-1.1-.2-1.5-.7ZM252.3,246.3c.2-.3.3-.7.3-1.1s0-.9-.3-1.1c-.2-.3-.5-.4-.8-.4s-.6,0-.8.4c-.2.3-.3.7-.3,1.1s0,.9.3,1.1c.2.3.5.4.8.4s.6-.1.8-.4Z"/>
  </g>
  <g class="st55">
    <path class="st141" d="M247.7,198.5c.4.3.6.7.6,1.2s0,.6-.2.9c-.2.3-.4.5-.7.6-.3.2-.7.2-1.2.2s-.8,0-1.1-.2c-.4,0-.7-.3-.9-.5l.4-.8c.2.2.4.3.7.4h.9c.3,0,.6,0,.8-.2.2,0,.3-.4.3-.6,0-.3,0-.5-.3-.6-.2,0-.6-.2-1.1-.2h-1.5l.3-3h3.2v.9h-2.4v1.3h.4c.8,0,1.4.2,1.8.5h0Z"/>
    <path class="st141" d="M249.9,201.1c-.3-.2-.6-.5-.8-1-.2-.4-.3-.9-.3-1.5s0-1.1.3-1.5c.2-.4.5-.8.8-1s.7-.3,1.2-.3.8,0,1.2.3c.3.2.6.5.8,1,.2.4.3.9.3,1.5s0,1.1-.3,1.5c-.2.4-.5.7-.8,1-.3.2-.7.3-1.2.3s-.8,0-1.2-.3ZM252,200.1c.2-.3.3-.8.3-1.4s0-1.1-.3-1.4c-.2-.3-.5-.5-.9-.5s-.7.2-.9.5-.3.8-.3,1.4,0,1.1.3,1.4.5.5.9.5.7-.2.9-.5Z"/>
  </g>
  <g class="st55">
    <path class="st141" d="M247.6,117.1c.3,0,.5.3.7.6.2.3.2.6.2.9s0,.7-.3.9c-.2.3-.4.5-.7.6s-.6.2-1,.2c-.8,0-1.3-.2-1.7-.7s-.6-1.1-.6-2,0-1.1.3-1.6c.2-.4.5-.8.9-1s.9-.3,1.4-.3.5,0,.8,0c.2,0,.5,0,.6.3l-.4.8c-.3-.2-.6-.3-1-.3s-.9.2-1.2.5-.4.8-.4,1.4h0c.2-.2.4-.3.6-.4.3,0,.5,0,.8,0,.4,0,.7,0,1,0h0ZM247.2,119.3c.2-.2.3-.4.3-.7s0-.5-.3-.7c-.2-.2-.5-.3-.8-.3s-.6,0-.8.3c-.2.2-.3.4-.3.7s0,.5.3.7c.2.2.5.3.8.3s.6,0,.8-.3Z"/>
    <path class="st141" d="M250.2,120.1c-.3-.2-.6-.5-.8-1-.2-.4-.3-.9-.3-1.5s0-1.1.3-1.5c.2-.4.5-.8.8-1s.7-.3,1.2-.3.8,0,1.2.3c.3.2.6.5.8,1,.2.4.3.9.3,1.5s0,1.1-.3,1.5c-.2.4-.5.7-.8,1-.3.2-.7.3-1.2.3s-.9,0-1.2-.3ZM252.3,119c.2-.3.3-.8.3-1.4s0-1.1-.3-1.4-.5-.5-.9-.5-.7.2-.9.5-.3.8-.3,1.4,0,1.1.3,1.4c.2.3.5.5.9.5s.6-.2.9-.5Z"/>
  </g>
  <g class="st55">
    <path class="st141" d="M248.6,26.1v.7l-2.1,4.8h-1.2l2.1-4.6h-2.2v.9h-.9v-1.8h4.3,0Z"/>
    <path class="st141" d="M250.1,31.3c-.3-.2-.6-.5-.8-1-.2-.4-.3-.9-.3-1.5s0-1.1.3-1.5.5-.7.8-1c.3-.2.7-.3,1.2-.3s.8.1,1.2.3c.3.2.6.5.8,1,.2.4.3.9.3,1.5s0,1.1-.3,1.5-.5.7-.8,1c-.3.2-.7.3-1.2.3-.4.1-.8-.1-1.2-.3ZM252.2,30.3c.2-.3.3-.8.3-1.4s0-1.1-.3-1.4c-.2-.3-.5-.5-.9-.5s-.7.2-.9.5-.3.8-.3,1.4,0,1.1.3,1.4c.2.3.5.5.9.5s.7-.2.9-.5Z"/>
  </g>
  <g class="st55">
    <path class="st141" d="M248.4-67.5c.2.2.2.5.2.8s0,.6-.3.9-.4.4-.8.6-.7.2-1.2.2-.8,0-1.2-.2c-.3,0-.6-.3-.8-.6-.2-.3-.3-.5-.3-.9s0-.6.2-.8c.2-.2.4-.4.6-.5-.2,0-.4-.3-.5-.5s-.2-.4-.2-.7,0-.6.3-.8c.2-.2.4-.4.7-.5s.7-.2,1.1-.2.8,0,1.1.2.5.3.7.5.3.5.3.8,0,.5-.2.7-.3.4-.5.5c.4,0,.6.2.8.5h0ZM247.3-66.1c.2-.2.3-.4.3-.6,0-.3,0-.5-.3-.6-.2-.2-.5-.2-.9-.2s-.7,0-.9.2c-.2.2-.3.4-.3.6,0,.3,0,.5.3.6.2.2.5.2.9.2s.6,0,.9-.2ZM245.6-69.7c-.2,0-.3.3-.3.6s0,.4.3.6c.2,0,.4.2.8.2s.6,0,.8-.2.3-.3.3-.6,0-.4-.3-.6c-.2,0-.4-.2-.8-.2s-.6,0-.8.2Z"/>
    <path class="st141" d="M250.4-65.4c-.3-.2-.6-.5-.8-1-.2-.4-.3-.9-.3-1.5s0-1.1.3-1.5c.2-.4.5-.7.8-1,.3-.2.7-.3,1.2-.3s.8,0,1.2.3c.3.2.6.5.8,1s.3.9.3,1.5,0,1.1-.3,1.5c-.2.4-.5.7-.8,1s-.7.3-1.2.3-.9,0-1.2-.3ZM252.5-66.5c.2-.3.3-.8.3-1.4s0-1.1-.3-1.4c-.2-.3-.5-.5-.9-.5s-.7.2-.9.5-.3.8-.3,1.4,0,1.1.3,1.4.5.5.9.5.7,0,.9-.5Z"/>
  </g>
  <g class="st55">
    <path class="st141" d="M247.9-150.4c.4.5.6,1.1.6,2s0,1.1-.3,1.6c-.2.4-.5.8-.9,1s-.9.3-1.4.3-.5,0-.8-.1c-.2-.1-.5-.1-.6-.3l.4-.8c.3.2.6.3,1,.3s.9-.2,1.2-.5.4-.8.4-1.4h0c-.2.2-.4.3-.6.4-.3.1-.5.1-.8.1s-.7-.1-1-.2c-.3-.1-.5-.3-.7-.6s-.2-.6-.2-.9,0-.7.3-.9c.2-.3.4-.5.7-.6s.6-.2,1-.2c.7,0,1.3.3,1.7.8h0ZM247-148.8c.2-.2.3-.4.3-.7s0-.5-.3-.7c-.2-.2-.5-.3-.8-.3s-.6.1-.8.3-.3.4-.3.7,0,.5.3.7c.2.2.5.3.8.3s.6-.1.8-.3Z"/>
    <path class="st141" d="M250.3-145.9c-.3-.2-.6-.5-.8-1-.2-.4-.3-.9-.3-1.5s0-1.1.3-1.5c.2-.4.5-.7.8-1,.3-.2.7-.3,1.2-.3s.8.1,1.2.3c.3.2.6.5.8,1,.2.4.3.9.3,1.5s0,1.1-.3,1.5c-.2.4-.5.7-.8,1-.3.2-.7.3-1.2.3s-.9,0-1.2-.3ZM252.4-146.9c.2-.3.3-.8.3-1.4s0-1.1-.3-1.4c-.2-.3-.5-.5-.9-.5s-.7.2-.9.5-.3.8-.3,1.4,0,1.1.3,1.4c.2.3.5.5.9.5s.7-.2.9-.5Z"/>
  </g>
  <g class="st55">
    <path class="st141" d="M244.5-248.1v5.5h-1v-4.6h-1.2v-.9h2.2Z"/>
    <path class="st141" d="M246.7-242.9c-.3-.2-.6-.5-.8-1-.2-.4-.3-.9-.3-1.5s0-1.1.3-1.5c.2-.4.5-.7.8-1,.3-.2.7-.3,1.2-.3s.8,0,1.2.3c.3.2.6.5.8,1,.2.4.3.9.3,1.5s0,1.1-.3,1.5c-.2.4-.5.7-.8,1-.3.2-.7.3-1.2.3s-.9,0-1.2-.3ZM248.8-243.9c.2-.3.3-.8.3-1.4s0-1.1-.3-1.4-.5-.5-.9-.5-.7.2-.9.5-.3.8-.3,1.4,0,1.1.3,1.4c.2.3.5.5.9.5s.7-.2.9-.5Z"/>
    <path class="st141" d="M252-242.9c-.3-.2-.6-.5-.8-1-.2-.4-.3-.9-.3-1.5s0-1.1.3-1.5c.2-.4.5-.7.8-1,.3-.2.7-.3,1.2-.3s.8,0,1.2.3.6.5.8,1,.2,1,.2,1.5,0,1.1-.3,1.5c-.2.4-.5.7-.8,1-.3.2-.7.3-1.2.3s-.8,0-1.1-.3h0ZM254.1-243.9c.2-.3.3-.8.3-1.4s0-1.1-.3-1.4c-.2-.3-.5-.5-.9-.5s-.7.2-.9.5-.3.8-.3,1.4,0,1.1.3,1.4c.2.3.5.5.9.5s.6-.2.9-.5Z"/>
  </g>
  <g class="st55">
    <path class="st82" d="M242.5-301.4h12.4c2.6,0,4.8-1.8,5.3-4.2.3-1.6,0-3.2-1.1-4.4-.9-1-2.1-1.7-3.4-1.9v-1.2c0-4.2-3.8-7.5-7.9-7-3.5.4-6.2,3.5-6.2,7.3v.9c-1.1.1-2.2.7-3,1.5-1.2,1.2-1.7,2.9-1.5,4.6.5,2.4,2.9,4.4,5.4,4.4h0ZM239.6-309.4c.7-.7,1.7-1.1,2.7-1.1s.7-.3.7-.7v-1.6c0-3.1,2.5-5.9,5.7-5.9s5.7,2.6,5.7,5.7v1.8c0,.4.3.7.7.7,1.2,0,2.3.5,3,1.4s1,2.1.8,3.3c-.4,1.8-2,3.1-4,3.1h-12.4c-1.8,0-3.7-1.5-4-3.2-.2-1.4.2-2.6,1.1-3.5h0Z"/>
  </g>
  <rect class="st56" x="244" y="-301.4" width="9.5" height="5.3"/>
  <g class="st10">
    <path class="st82" d="M247.9-301.2h.7v3.3h2v.6h-2.7v-3.9Z"/>
  </g>
  <g class="st63">
    <g>
      <rect class="st47" x="10.2" y="-127.8" width="47.4" height="71"/>
      <rect class="st33" x="687.3" y="-129.3" width="17.7" height="74.3"/>
      <rect class="st17" x="670.3" y="-127.8" width="17.1" height="73.5"/>
      <rect class="st37" x="653.2" y="-127.8" width="17.1" height="73.5"/>
      <rect class="st16" x="636.2" y="-127.8" width="17.1" height="73.5"/>
      <rect class="st31" x="619" y="-127.8" width="17.1" height="73.5"/>
      <rect class="st11" x="602.2" y="-127.8" width="17.1" height="73.5"/>
      <rect class="st24" x="585" y="-127.8" width="17.1" height="73.5"/>
      <rect class="st27" x="568" y="-127.8" width="17.1" height="73.5"/>
      <rect class="st32" x="551" y="-127.8" width="17.1" height="73.5"/>
      <rect class="st29" x="534" y="-127.8" width="17.1" height="73.5"/>
      <rect class="st21" x="517" y="-127.8" width="17.1" height="73.5"/>
      <rect class="st0" x="500" y="-127.8" width="17.1" height="73.5"/>
      <rect class="st25" x="482.9" y="-127.8" width="17.1" height="73.5"/>
      <rect class="st35" x="465.9" y="-127.8" width="17.1" height="73.5"/>
      <rect class="st44" x="448.9" y="-127.8" width="17.1" height="73.5"/>
      <rect class="st9" x="431.9" y="-127.8" width="17.1" height="73.5"/>
      <rect class="st1" x="414.8" y="-127.8" width="17.1" height="73.5"/>
      <rect class="st19" x="397.8" y="-127.8" width="17.1" height="73.5"/>
      <rect class="st42" x="380.8" y="-127.8" width="17.1" height="73.5"/>
      <rect class="st13" x="363.8" y="-127.8" width="17.1" height="73.5"/>
      <rect class="st23" x="346.6" y="-127.8" width="17.1" height="73.5"/>
      <rect class="st36" x="329.7" y="-127.8" width="17.1" height="73.5"/>
      <rect class="st26" x="312.6" y="-127.8" width="17.1" height="73.5"/>
      <rect class="st43" x="295.7" y="-127.8" width="17.1" height="73.5"/>
      <rect class="st7" x="278.7" y="-127.8" width="17.2" height="73.5"/>
      <rect class="st15" x="261.6" y="-127.8" width="17.1" height="73.5"/>
      <rect class="st4" x="244.6" y="-127.8" width="17.1" height="73.5"/>
      <rect class="st30" x="227.6" y="-127.8" width="17.1" height="73.5"/>
      <rect class="st20" x="210.6" y="-127.8" width="17.1" height="73.5"/>
      <rect class="st3" x="193.6" y="-127.8" width="17.1" height="73.5"/>
      <rect class="st46" x="176.6" y="-127.8" width="17.1" height="73.5"/>
      <rect class="st18" x="159.6" y="-127.8" width="17.1" height="73.5"/>
      <rect class="st34" x="142.6" y="-127.8" width="17.1" height="73.5"/>
      <rect class="st28" x="125.5" y="-127.8" width="17.1" height="73.5"/>
      <rect class="st6" x="108.5" y="-127.8" width="17.1" height="73.5"/>
      <rect class="st12" x="91.4" y="-127.8" width="17.1" height="73.5"/>
      <rect class="st39" x="74.5" y="-127.8" width="17.1" height="73.5"/>
      <rect class="st40" x="57.4" y="-127.8" width="17.1" height="73.5"/>
    </g>
    <g>
      <rect class="st18" x="-24.8" y="13.3" width="71" height="47.4" transform="translate(47.7 26.3) rotate(90)"/>
      <rect class="st33" x="637.7" y="26.5" width="74.3" height="21.3" transform="translate(712 -637.7) rotate(90)"/>
      <rect class="st17" x="618.9" y="29.7" width="73.5" height="17.1" transform="translate(693.9 -617.4) rotate(90)"/>
      <rect class="st37" x="601.8" y="29.7" width="73.5" height="17.1" transform="translate(676.8 -600.3) rotate(90)"/>
      <rect class="st16" x="584.8" y="29.7" width="73.5" height="17.1" transform="translate(659.8 -583.3) rotate(90)"/>
      <rect class="st31" x="567.7" y="29.7" width="73.5" height="17.1" transform="translate(642.7 -566.2) rotate(90)"/>
      <rect class="st11" x="550.8" y="29.7" width="73.5" height="17.1" transform="translate(625.8 -549.3) rotate(90)"/>
      <rect class="st24" x="533.7" y="29.7" width="73.5" height="17.1" transform="translate(608.7 -532.2) rotate(90)"/>
      <rect class="st32" x="516.7" y="29.7" width="73.5" height="17.1" transform="translate(591.7 -515.2) rotate(90)"/>
      <rect class="st29" x="499.6" y="29.7" width="73.5" height="17.1" transform="translate(574.6 -498.1) rotate(90)"/>
      <rect class="st21" x="482.6" y="29.7" width="73.5" height="17.1" transform="translate(557.6 -481.1) rotate(90)"/>
      <rect class="st0" x="465.6" y="29.7" width="73.5" height="17.1" transform="translate(540.6 -464.1) rotate(90)"/>
      <rect class="st25" x="448.6" y="29.7" width="73.5" height="17.1" transform="translate(523.6 -447.1) rotate(90)"/>
      <rect class="st35" x="431.5" y="29.7" width="73.5" height="17.1" transform="translate(506.5 -430) rotate(90)"/>
      <rect class="st44" x="414.5" y="29.7" width="73.5" height="17.1" transform="translate(489.5 -413) rotate(90)"/>
      <rect class="st9" x="397.5" y="29.7" width="73.5" height="17.1" transform="translate(472.5 -396) rotate(90)"/>
      <rect class="st1" x="380.5" y="29.7" width="73.5" height="17.1" transform="translate(455.5 -379) rotate(90)"/>
      <rect class="st19" x="363.4" y="29.7" width="73.5" height="17.1" transform="translate(438.4 -361.9) rotate(90)"/>
      <rect class="st42" x="346.4" y="29.7" width="73.5" height="17.1" transform="translate(421.4 -344.9) rotate(90)"/>
      <rect class="st42" x="329.4" y="29.7" width="73.5" height="17.1" transform="translate(404.4 -327.9) rotate(90)"/>
      <rect class="st13" x="312.4" y="29.7" width="73.5" height="17.1" transform="translate(387.4 -310.9) rotate(90)"/>
      <rect class="st23" x="295.2" y="29.7" width="73.5" height="17.1" transform="translate(370.2 -293.7) rotate(90)"/>
      <rect class="st36" x="278.3" y="29.7" width="73.5" height="17.1" transform="translate(353.3 -276.8) rotate(90)"/>
      <rect class="st26" x="261.2" y="29.7" width="73.5" height="17.1" transform="translate(336.2 -259.7) rotate(90)"/>
      <rect class="st45" x="244.3" y="29.7" width="73.5" height="17.1" transform="translate(319.3 -242.8) rotate(90)"/>
      <rect class="st43" x="227.2" y="29.6" width="73.5" height="17.2" transform="translate(302.2 -225.7) rotate(90)"/>
      <rect class="st15" x="210.2" y="29.7" width="73.5" height="17.1" transform="translate(285.2 -208.7) rotate(90)"/>
      <rect class="st14" x="193.2" y="29.7" width="73.5" height="17.1" transform="translate(268.2 -191.7) rotate(90)"/>
      <rect class="st4" x="176.2" y="29.7" width="73.5" height="17.1" transform="translate(251.2 -174.7) rotate(90)"/>
      <rect class="st30" x="159.2" y="29.7" width="73.5" height="17.1" transform="translate(234.2 -157.7) rotate(90)"/>
      <rect class="st3" x="142.2" y="29.7" width="73.5" height="17.1" transform="translate(217.2 -140.7) rotate(90)"/>
      <rect class="st38" x="125.2" y="29.7" width="73.5" height="17.1" transform="translate(200.2 -123.7) rotate(90)"/>
      <rect class="st41" x="108.2" y="29.7" width="73.5" height="17.1" transform="translate(183.2 -106.7) rotate(90)"/>
      <rect class="st8" x="91.2" y="29.7" width="73.5" height="17.1" transform="translate(166.2 -89.7) rotate(90)"/>
      <rect class="st28" x="74.1" y="29.7" width="73.5" height="17.1" transform="translate(149.1 -72.6) rotate(90)"/>
      <rect class="st6" x="57.1" y="29.7" width="73.5" height="17.1" transform="translate(132.1 -55.6) rotate(90)"/>
      <rect class="st2" x="40" y="29.7" width="73.5" height="17.1" transform="translate(115 -38.5) rotate(90)"/>
      <rect class="st5" x="23.1" y="29.7" width="73.5" height="17.1" transform="translate(98.1 -21.6) rotate(90)"/>
      <rect class="st34" x="6" y="29.7" width="73.5" height="17.1" transform="translate(81 -4.5) rotate(90)"/>
    </g>
  </g>
  <circle class="st78" cx="703.7" cy="21.1" r="19.8"/>
  <g id="Layer_1">
    <path class="st82" d="M703.8,4.8c-3.6,0-6.6,2.8-6.6,6.3v9.3c-2.5,2.1-3.8,5.2-3.4,8.4.6,4.4,4.3,7.8,8.8,8.3,5.8.5,11.1-3.8,11.1-9.4s-1.2-5.3-3.4-7.1v-9.2c0-3.7-2.9-6.6-6.5-6.6h0ZM711.9,27.5c0,4.7-4.4,8.3-9.2,7.9-3.6-.4-6.7-3.2-7.1-6.9-.3-2.8.8-5.4,3.1-7.1,0-.1.3-.4.3-.6v-9.6c0-2.6,2.2-4.7,4.8-4.7s4.8,2.1,4.8,4.7v9.6c0,.3,0,.4.3.6,2,1.4,3,3.6,3,6.1h0Z"/>
    <path class="st82" d="M706.9,23.3v-9.9c0-1.7-1.4-3-3.1-3s-3.1,1.4-3.1,3v10c-1.8,1.3-2.6,3.4-2.1,5.4.9,3.5,5.6,5,8.7,2.8,1.3-1,2.1-2.6,2.1-4-.2-1.8-1.1-3.4-2.5-4.3h0ZM706.1,30.2c-2.1,1.6-5.3.5-5.8-1.8-.4-1.6.3-3.1,1.8-3.9.3-.1.4-.4.4-.6v-10.4c0-.6.6-1.4,1.4-1.4s1.4.5,1.4,1.4v10.4c0,.3,0,.5.4.6,1.2.6,1.9,1.8,1.9,3.1-.2.9-.6,1.8-1.5,2.6h0Z"/>
  </g>
  <rect class="st71" x="36.3" y="8" width="12.9" height="15.4"/>
  <g class="st22">
    <path class="st82" d="M14.9,25.2c-.9.2-1.7.3-2.5.3s-1.3,0-1.8-.3c-.4-.2-.8-.5-1-1-.3-.4-.4-1-.5-1.5s-.1-1.3-.1-2.2c0-1.9.2-3.2.7-3.9.5-.8,1.4-1.1,2.7-1.1s1.6,0,2.6.4v1.5c-1,0-1.7-.2-2.2-.2s-1,0-1.2.2-.4.4-.5,1c-.1.4-.2,1.2-.2,2.4s.1,1.9.4,2.3c.3.4.7.7,1.4.7s1.5,0,2.3-.2v1.6h0Z"/>
    <path class="st82" d="M4.8,19.2c-.4-.4-.5-.9-.5-1.5s.2-1.2.5-1.5c.4-.4.8-.5,1.4-.5s1.1.2,1.4.5.5.9.5,1.5-.2,1.1-.5,1.5c-.4.4-.8.5-1.4.5s-1,0-1.4-.5ZM5.5,16.9c-.2.2-.3.4-.3.8s0,.5.3.8c.2.2.4.3.7.3s.5,0,.7-.3.3-.4.3-.8,0-.5-.3-.8-.4-.3-.7-.3-.5,0-.7.3Z"/>
  </g>
  <g>
    <path class="st82" d="M42.3,22.7v-1.6h3.6v1.6h-3.6Z"/>
    <path class="st82" d="M52.4,25.5h-5.1v-1.6l1.7-1.9c.6-.7,1-1.2,1.3-1.5.2-.3.4-.8.4-1.1s0-.7-.3-.9c-.2-.2-.5-.2-.8-.2h-2.1v-1.4c.7-.2,1.5-.4,2.3-.4,1.7,0,2.5.9,2.5,2.5s0,1.2-.4,1.6-.7,1.1-1.4,1.7l-1.4,1.3h3.3v1.8h0Z"/>
    <path class="st82" d="M54.5,17.3c.5-.4,1.2-.7,2.1-.7s1.6.2,2.1.7c.5.4.8,1,.8,1.7s0,.9-.2,1.1c0,.2-.3.5-.7.9.4.3.6.7.8.9.2.3.2.7.2,1.2,0,.9-.3,1.5-.8,1.9-.6.4-1.3.7-2.2.7-2,0-3-.8-3-2.4s0-1,.2-1.3c.2-.3.4-.7.8-1-.3-.3-.6-.5-.7-.9s-.2-.7-.2-1.1c0-.8.3-1.3.8-1.7ZM55.3,22.8c0,.8.4,1.2,1.2,1.2s1.2-.4,1.2-1.2-.2-.8-.7-1h-1.1c-.3.2-.6.5-.6,1ZM56.6,18.2c-.4,0-.6,0-.8.2s-.3.4-.3.8.2.7.6,1h1.1c.4-.3.6-.7.6-1,0-.6-.5-1-1.2-1Z"/>
  </g>
  <line class="st72" x1="68.1" y1="3.2" x2="68.1" y2="39.6"/>
  <g>
    <path class="st82" d="M76.1,22.6v-1.6h3.6v1.6h-3.6Z"/>
    <path class="st82" d="M86.3,25.3h-5.1v-1.5l1.7-1.9c.6-.7,1-1.2,1.3-1.5.2-.3.4-.8.4-1.1s0-.7-.3-.9c-.2-.2-.5-.2-.8-.2h-2.1v-1.4c.7-.2,1.5-.4,2.3-.4,1.7,0,2.5.9,2.5,2.5s0,1.2-.4,1.6-.7,1.1-1.4,1.7l-1.4,1.3h3.3v1.7h0Z"/>
    <path class="st82" d="M90.9,25.3v-1.4h-3.4v-1.4l2-5.9h1.8l-2.1,5.7h1.7v-2.4h1.7v2.4h.7v1.5h-.8v1.4h-1.6,0Z"/>
  </g>
  <line class="st72" x1="102.3" y1="3.1" x2="102.3" y2="38.7"/>
  <line class="st72" x1="136.4" y1="2.8" x2="136.4" y2="40.3"/>
  <line class="st72" x1="170.4" y1="3" x2="170.4" y2="39.4"/>
  <line class="st72" x1="204.4" y1="3" x2="204.4" y2="39.4"/>
  <line class="st72" x1="238.4" y1="2.8" x2="238.4" y2="39.4"/>
  <line class="st72" x1="272.3" y1="2.8" x2="272.3" y2="39.7"/>
  <line class="st72" x1="306.5" y1="2.8" x2="306.5" y2="40.3"/>
  <line class="st72" x1="323.5" y1="2.1" x2="323.5" y2="14"/>
  <line class="st72" x1="340.5" y1="2.8" x2="340.5" y2="39.4"/>
  <line class="st72" x1="374.6" y1="2.8" x2="374.6" y2="39.4"/>
  <line class="st72" x1="408.6" y1="2.8" x2="408.6" y2="40.3"/>
  <line class="st72" x1="442.8" y1="2.1" x2="442.8" y2="39.7"/>
  <line class="st72" x1="476.8" y1="2.8" x2="476.8" y2="39.7"/>
  <line class="st72" x1="510.9" y1="2.8" x2="510.9" y2="39.7"/>
  <line class="st72" x1="544.9" y1="2.8" x2="544.9" y2="38.9"/>
  <line class="st72" x1="579" y1="2.8" x2="579" y2="39.7"/>
  <line class="st72" x1="612.3" y1="2" x2="612.3" y2="40.5"/>
  <line class="st72" x1="647.1" y1="3.1" x2="647.1" y2="40"/>
  <g>
    <path class="st82" d="M108.7,22.7v-1.6h3.6v1.6h-3.6Z"/>
    <path class="st82" d="M118.8,25.3h-5.1v-1.5l1.7-1.9c.6-.7,1-1.2,1.3-1.5.2-.3.4-.8.4-1.1s0-.7-.3-.9c-.2-.2-.5-.2-.8-.2h-2.1v-1.4c.7-.2,1.5-.4,2.3-.4,1.7,0,2.5.9,2.5,2.5s0,1.2-.4,1.6-.7,1.1-1.4,1.7l-1.4,1.3h3.3v1.7h0Z"/>
    <path class="st82" d="M120.7,17.7c.5-.8,1.3-1.1,2.3-1.1s1.8.3,2.3,1.1.8,1.9.8,3.5-.3,2.7-.8,3.4-1.3,1-2.3,1-1.8-.3-2.3-1-.8-1.9-.8-3.4.2-2.8.8-3.5ZM124.3,21.1c0-1.1,0-1.9-.3-2.3-.2-.4-.6-.7-1-.7s-.8.2-1.1.7c-.2.4-.3,1.2-.3,2.3s0,1.9.3,2.3c.2.4.6.7,1.1.7s.8-.2,1-.7.3-1.2.3-2.3Z"/>
  </g>
  <g>
    <path class="st82" d="M144.1,23v-1.6h3.6v1.6h-3.6Z"/>
    <path class="st82" d="M153.4,17.1v8.6h-1.7v-6.6l-1.7,1.2-.8-1.3,2.6-1.9h1.6,0Z"/>
    <path class="st82" d="M161,18.6c-.8,0-1.5-.2-2.1-.2-1.1,0-1.7.7-1.7,2h.3c.5-.3.9-.3,1.3-.3.9,0,1.6.2,2,.7.5.4.7,1.2.7,2.1s-.3,1.6-.8,2.2c-.5.4-1.3.8-2.2.8s-1.7-.4-2.2-1.2-.7-2-.7-3.4.3-2.6.9-3.3c.6-.8,1.4-1.1,2.4-1.1s1.3,0,2,.3h.4l-.3,1.4h0ZM158.6,21.7c-.4,0-.8,0-1.2.2h-.2c0,1.6.4,2.4,1.3,2.4s.7,0,.9-.3c.2-.2.3-.5.3-1,0-.9-.4-1.3-1.1-1.3Z"/>
  </g>
  <g>
    <path class="st82" d="M178.9,22.2v-1.6h3.6v1.6h-3.6Z"/>
    <path class="st82" d="M188.1,16.2v8.6h-1.7v-6.6l-1.7,1.2-.8-1.3,2.6-1.9h1.6,0Z"/>
    <path class="st82" d="M195.7,24.8h-5.1v-1.5l1.7-1.9c.6-.7,1-1.2,1.3-1.5.2-.3.4-.8.4-1.1s-.1-.7-.3-.9c-.2-.2-.5-.2-.8-.2h-2.1v-1.4c.7-.2,1.5-.4,2.3-.4,1.7,0,2.5.9,2.5,2.5s-.1,1.2-.4,1.6c-.3.4-.7,1.1-1.4,1.7l-1.4,1.3h3.3v1.7h0Z"/>
  </g>
  <g>
    <path class="st82" d="M215.5,23.1v-1.6h3.6v1.6h-3.6Z"/>
    <path class="st82" d="M221,17.5c.5-.4,1.2-.7,2.1-.7s1.6.2,2.1.7c.5.4.8,1,.8,1.7s-.1.9-.2,1.1-.3.5-.7.9c.4.3.6.7.8.9.2.3.2.7.2,1.2,0,.9-.3,1.5-.8,1.9s-1.3.7-2.2.7c-2,0-3-.8-3-2.4s.1-1,.2-1.3.4-.7.8-1c-.3-.3-.6-.5-.7-.9s-.2-.7-.2-1.1c0-.7.3-1.3.8-1.7h0ZM221.9,23.1c0,.8.4,1.2,1.2,1.2s1.2-.4,1.2-1.2-.2-.8-.7-1h-1c-.5.2-.7.5-.7,1ZM223.1,18.5c-.4,0-.6.1-.8.2s-.3.4-.3.8.2.7.6,1h1c.4-.3.6-.7.6-1,0-.6-.3-1-1.1-1Z"/>
  </g>
  <g>
    <path class="st82" d="M249.2,22.8v-1.6h3.6v1.6h-3.6Z"/>
    <path class="st82" d="M257.3,25.6v-1.4h-3.4v-1.4l2-5.9h1.8l-2.1,5.7h1.7v-2.4h1.7v2.4h.8v1.5h-.8v1.4h-1.7Z"/>
  </g>
  <path class="st78" d="M287.1,17.6c.5-.8,1.3-1.1,2.3-1.1s1.8.3,2.3,1.1c.5.8.8,1.9.8,3.5s-.3,2.7-.8,3.4-1.3,1-2.3,1-1.8-.3-2.3-1-.8-1.9-.8-3.4.3-2.7.8-3.5ZM290.7,21c0-1.1-.1-1.9-.3-2.3-.2-.4-.6-.7-1-.7s-.8.2-1.1.7c-.2.4-.3,1.2-.3,2.3s.1,1.9.3,2.3c.2.4.6.7,1.1.7s.8-.2,1-.7c.2-.4.3-1.2.3-2.3Z"/>
  <path class="st141" d="M324,25.4v-1.4h-3.4v-1.4l2-5.9h1.8l-2.1,5.7h1.7v-2.4h1.6v2.4h.8v1.5h-.8v1.4h-1.6Z"/>
  <path class="st141" d="M355.2,17.1c.5-.4,1.2-.7,2.1-.7s1.6.2,2.1.7c.5.4.8,1,.8,1.7s-.1.9-.2,1.1-.3.5-.7.9c.4.3.6.7.8.9.2.3.2.7.2,1.2,0,.9-.3,1.5-.8,1.9-.6.4-1.3.7-2.2.7-2,0-3-.8-3-2.4s.1-1,.2-1.3c.2-.3.4-.7.8-1-.3-.3-.6-.5-.7-.9s-.2-.7-.2-1.1c0-.7.2-1.3.8-1.7h0ZM356,22.6c0,.8.4,1.2,1.2,1.2s1.2-.4,1.2-1.2-.2-.8-.7-1h-1.1c-.3.3-.6.6-.6,1ZM357.3,18.1c-.4,0-.6.1-.8.2-.2.2-.3.4-.3.8s.2.7.6,1h1.1c.4-.3.6-.7.6-1-.1-.7-.5-1-1.2-1h0Z"/>
  <g>
    <path class="st141" d="M389.4,16.9v8.6h-1.7v-6.6l-1.7,1.2-.8-1.3,2.6-1.9h1.6Z"/>
    <path class="st141" d="M397,25.5h-5.1v-1.5l1.7-1.9c.6-.7,1-1.2,1.3-1.5.2-.3.4-.8.4-1.1s-.1-.7-.3-.9c-.2-.2-.5-.2-.8-.2-.5,0-1.1,0-1.8.1h-.3v-1.4c.7-.2,1.5-.4,2.3-.4,1.7,0,2.5.9,2.5,2.5s-.1,1.2-.4,1.6-.7,1.1-1.4,1.7l-1.4,1.3h3.3v1.7h0Z"/>
  </g>
  <g>
    <path class="st141" d="M423.7,16.9v8.6h-1.7v-6.6l-1.7,1.2-.8-1.3,2.6-1.9h1.6Z"/>
    <path class="st141" d="M431.4,18.6c-.8-.1-1.5-.2-2.1-.2-1.1,0-1.7.7-1.7,2h.3c.5-.3.9-.3,1.3-.3.9,0,1.6.2,2,.7.4.4.7,1.2.7,2.1s-.3,1.6-.8,2.2c-.5.4-1.3.8-2.2.8s-1.7-.4-2.2-1.2c-.5-.8-.7-2-.7-3.4s.3-2.6.9-3.3c.6-.8,1.4-1.1,2.4-1.1s1.3.1,2,.3h.4c0,.1-.3,1.4-.3,1.4h0ZM428.9,21.6c-.4,0-.8.1-1.2.2h-.2c0,1.6.4,2.4,1.3,2.4s.7-.1.9-.3.3-.5.3-1c.1-.8-.3-1.3-1.1-1.3h0Z"/>
  </g>
  <g>
    <path class="st141" d="M458.2,25.6h-5.1v-1.6l1.7-1.9c.6-.7,1-1.2,1.3-1.5s.4-.8.4-1.1-.1-.7-.3-.9c-.2-.2-.5-.2-.8-.2-.5,0-1.1,0-1.8.1h-.3v-1.4c.7-.2,1.5-.4,2.3-.4,1.7,0,2.5.9,2.5,2.5s-.1,1.2-.4,1.6-.7,1.1-1.4,1.7l-1.4,1.3h3.3v1.8h0Z"/>
    <path class="st141" d="M460.1,17.8c.5-.8,1.3-1.1,2.3-1.1s1.8.3,2.3,1.1.8,1.9.8,3.5-.3,2.7-.8,3.4-1.3,1-2.3,1-1.8-.3-2.3-1-.8-1.9-.8-3.4.3-2.8.8-3.5ZM463.7,21.2c0-1.1-.1-1.9-.3-2.3-.2-.4-.6-.7-1-.7s-.8.2-1.1.7c-.2.4-.3,1.2-.3,2.3s.1,1.9.3,2.3c.2.4.6.7,1.1.7s.8-.2,1-.7c.2-.4.3-1.2.3-2.3Z"/>
  </g>
  <g>
    <path class="st82" d="M492.2,25.9h-5.1v-1.5l1.7-1.9c.6-.7,1-1.2,1.3-1.5s.4-.8.4-1.1-.1-.7-.3-.9c-.2-.2-.5-.2-.8-.2-.5,0-1.1,0-1.8.1h-.3v-1.4c.7-.2,1.5-.4,2.3-.4,1.7,0,2.5.9,2.5,2.5s-.1,1.2-.4,1.6-.7,1.1-1.4,1.7l-1.4,1.3h3.3v1.7h0Z"/>
    <path class="st82" d="M496.9,25.9v-1.4h-3.4v-1.4l2-5.9h1.8l-2.1,5.7h1.7v-2.4h1.7v2.4h.8v1.5h-.8v1.4h-1.7Z"/>
  </g>
  <g>
    <path class="st82" d="M526.9,25.9h-5.1v-1.5l1.7-1.9c.6-.7,1-1.2,1.3-1.5s.4-.8.4-1.1,0-.7-.3-.9c-.2-.2-.5-.2-.8-.2-.5,0-1.1,0-1.8.1h-.3v-1.4c.7-.2,1.5-.4,2.3-.4,1.7,0,2.5.9,2.5,2.5s0,1.2-.4,1.6-.7,1.1-1.4,1.7l-1.4,1.3h3.3s0,1.7,0,1.7Z"/>
    <path class="st82" d="M528.9,17.7c.5-.4,1.2-.7,2.1-.7s1.6.2,2.1.7.8,1,.8,1.7,0,.9-.2,1.1c0,.2-.3.5-.7.9.4.3.6.7.8.9.2.3.2.7.2,1.2,0,.9-.3,1.5-.8,1.9-.5.3-1.3.7-2.2.7-2,0-3-.8-3-2.4s0-1,.2-1.3.4-.7.8-1c-.3-.3-.6-.5-.7-.9s-.2-.7-.2-1.1c0-.7.3-1.3.8-1.7h0ZM529.8,23.3c0,.8.4,1.2,1.2,1.2s1.2-.4,1.2-1.2-.2-.8-.7-1h-1.1c-.4.2-.6.5-.6,1h0ZM531,18.7c-.4,0-.6.1-.8.2s-.3.4-.3.8.2.7.6,1h1.1c.4-.3.6-.7.6-1,0-.7-.4-1-1.2-1h0Z"/>
  </g>
  <g>
    <path class="st82" d="M555.1,17.4c.7-.3,1.6-.4,2.5-.4s1.6.2,2,.5.6,1,.6,1.9-.3,1.5-.9,2c.4.2.7.4.8.7,0,.2.2.7.2,1.2,0,1-.2,1.6-.6,2.1s-1.1.7-2.1.7-1.4-.1-2.2-.3h-.4c0-.1,0-1.5,0-1.5.9.2,1.6.2,2.3.2s1.2-.4,1.2-1.2,0-.5-.3-.8c-.2-.2-.5-.3-.8-.3h-1.6v-1.5h1.6c.3,0,.5-.1.7-.3s.3-.5.3-.8c0-.7-.4-1-1.2-1s-1.1.1-1.8.2h-.3v-1.4h0Z"/>
    <path class="st82" d="M567,25.7h-5.1v-1.5l1.7-1.9c.6-.7,1-1.2,1.3-1.5.2-.3.4-.8.4-1.1s0-.7-.3-.9c-.2-.2-.5-.2-.8-.2-.5,0-1.1,0-1.8.1h-.3v-1.4c.7-.2,1.5-.4,2.3-.4,1.7,0,2.5.9,2.5,2.5s0,1.2-.4,1.6-.7,1.1-1.4,1.7l-1.4,1.3h3.3s0,1.7,0,1.7Z"/>
  </g>
  <g>
    <path class="st82" d="M589,17.9c.7-.3,1.6-.4,2.5-.4s1.6.2,2,.5.6,1,.6,1.9-.3,1.5-.9,2c.4.2.7.4.8.7,0,.2.2.7.2,1.2,0,1-.2,1.6-.6,2.1s-1.1.7-2.1.7-1.4-.1-2.2-.3h-.4c0-.1,0-1.7,0-1.7.9.2,1.6.2,2.3.2s1.2-.4,1.2-1.2,0-.5-.3-.8c-.2-.2-.5-.3-.8-.3h-1.6v-1.5h1.6c.3,0,.5,0,.7-.3s.3-.5.3-.8c0-.7-.4-1-1.2-1s-1.1,0-1.8.2h-.3v-1.2h0Z"/>
    <path class="st82" d="M600.9,19.2c-.8,0-1.5-.2-2.1-.2-1.1,0-1.7.7-1.7,2h.3c.5-.3.9-.3,1.3-.3.9,0,1.6.2,2,.7.5.4.7,1.2.7,2.1s-.3,1.6-.8,2.2c-.5.4-1.3.8-2.2.8s-1.7-.4-2.2-1.2-.7-2-.7-3.4.3-2.6.9-3.3c.6-.8,1.4-1.1,2.4-1.1s1.3,0,2,.3h.4l-.3,1.4h0ZM598.5,22.3c-.4,0-.8.1-1.2.2h-.2c0,1.6.4,2.4,1.3,2.4s.7-.1.9-.3c.2-.2.3-.5.3-1,0-.9-.4-1.3-1.1-1.3Z"/>
  </g>
  <g>
    <path class="st78" d="M626.6,25.9v-1.4h-3.4v-1.4l2-5.9h1.8l-2.1,5.7h1.7v-2.4h1.6v2.4h.8v1.5h-.8v1.4h-1.6s0,.1,0,0Z"/>
    <path class="st78" d="M630.5,18.2c.5-.8,1.3-1.1,2.3-1.1s1.8.3,2.3,1.1.8,1.9.8,3.5-.3,2.7-.8,3.4c-.5.7-1.3,1-2.3,1s-1.8-.3-2.3-1-.8-1.9-.8-3.4.3-2.8.8-3.5ZM634.2,21.6c0-1.1,0-1.9-.3-2.3s-.6-.7-1-.7-.8.2-1.1.7c-.2.4-.3,1.2-.3,2.3s0,1.9.3,2.3.6.7,1.1.7.8-.2,1-.7.3-1.3.3-2.3Z"/>
  </g>
  <g>
    <path class="st78" d="M660.7,25.5v-1.4h-3.3v-1.3l2-5.9h1.8l-2.1,5.7h1.7v-2.4h1.6v2.4h.8v1.5h-.8v1.4s-1.7,0-1.7,0Z"/>
    <path class="st78" d="M667.4,25.5v-1.4h-3.4v-1.3l2-5.9h1.8l-2.1,5.7h1.7v-2.4h1.7v2.4h.8v1.5h-.8v1.4s-1.7,0-1.7,0Z"/>
  </g>
  <line class="st72" x1="323.5" y1="28" x2="323.5" y2="39"/>
  <line class="st72" x1="289.4" y1="2.8" x2="289.4" y2="14"/>
  <line class="st72" x1="289.4" y1="39.4" x2="289.4" y2="28"/>
  <line class="st72" x1="255.5" y1="2.9" x2="255.5" y2="14"/>
  <line class="st72" x1="255.5" y1="39.2" x2="255.5" y2="27.8"/>
  <line class="st72" x1="221.5" y1="3" x2="221.5" y2="14"/>
  <line class="st72" x1="221.5" y1="39.2" x2="221.5" y2="27.8"/>
  <line class="st72" x1="187.4" y1="39" x2="187.4" y2="28"/>
  <line class="st72" x1="187.3" y1="3.2" x2="187.4" y2="14"/>
  <line class="st72" x1="119.4" y1="3.4" x2="119.4" y2="14"/>
  <line class="st72" x1="119.4" y1="38.8" x2="119.4" y2="28"/>
  <line class="st72" x1="84.7" y1="3" x2="84.7" y2="14.1"/>
  <line class="st72" x1="84.7" y1="39.2" x2="84.7" y2="28"/>
  <line class="st72" x1="50.9" y1="2.8" x2="50.9" y2="14"/>
  <line class="st72" x1="51" y1="39" x2="51" y2="28"/>
  <line class="st72" x1="153.4" y1="3" x2="153.4" y2="14"/>
  <line class="st72" x1="153.4" y1="39.4" x2="153.4" y2="27.7"/>
  <line class="st72" x1="357.5" y1="2.8" x2="357.5" y2="14"/>
  <line class="st72" x1="357.6" y1="28" x2="357.6" y2="39"/>
  <line class="st72" x1="391.6" y1="2.8" x2="391.6" y2="14"/>
  <line class="st72" x1="391.6" y1="28" x2="391.6" y2="39"/>
  <line class="st72" x1="425.7" y1="2.4" x2="425.7" y2="14.2"/>
  <line class="st72" x1="425.7" y1="39.1" x2="425.7" y2="27.9"/>
  <line class="st72" x1="459.7" y1="2.4" x2="459.7" y2="14"/>
  <line class="st72" x1="459.7" y1="39.4" x2="459.7" y2="28"/>
  <line class="st72" x1="493.8" y1="3.2" x2="493.8" y2="14.2"/>
  <line class="st72" x1="493.8" y1="39.6" x2="493.8" y2="28"/>
  <line class="st72" x1="527.8" y1="3" x2="527.8" y2="14.2"/>
  <line class="st72" x1="527.8" y1="38.9" x2="527.8" y2="27.9"/>
  <line class="st72" x1="562" y1="14.2" x2="562" y2="2.4"/>
  <line class="st72" x1="561.8" y1="38.9" x2="561.8" y2="27.9"/>
  <line class="st72" x1="595.9" y1="3" x2="595.9" y2="14.2"/>
  <line class="st72" x1="595.9" y1="39.7" x2="595.9" y2="28"/>
  <line class="st72" x1="630" y1="3.2" x2="629.8" y2="14.2"/>
  <line class="st72" x1="629.9" y1="39.7" x2="629.9" y2="28"/>
  <line class="st72" x1="664.1" y1="3.3" x2="664.1" y2="14"/>
  <line class="st72" x1="664.1" y1="28" x2="664.1" y2="39.7"/>
  <line class="st72" x1="33.8" y1="3.2" x2="33.8" y2="40.3"/>
  <path class="st70" d="M2.1,33.3V8.5c0-3.4,3-6.3,6.7-6.3h665.8c3.7,0,6.7,2.8,6.7,6.3v24.8c0,3.4-3,6.3-6.7,6.3H8.8c-3.7,0-6.7-2.8-6.7-6.3Z"/>
</svg>