<?xml version="1.0" encoding="UTF-8"?>
<svg id="Livello_1" xmlns="http://www.w3.org/2000/svg" version="1.1" xmlns:xlink="http://www.w3.org/1999/xlink" height="46.4px" width="729.4px" viewBox="0 0 729.4 46.4">
  <!-- Generator: Adobe Illustrator 29.6.1, SVG Export Plug-In . SVG Version: 2.1.1 Build 9)  -->
  <defs>
    <style>
      .st0 {
        fill: #f627eb;
      }

      .st0, .st1, .st2, .st3, .st4, .st5, .st6, .st7, .st8, .st9, .st10, .st11, .st12, .st13, .st14, .st15, .st16, .st17, .st18, .st19, .st20, .st21, .st22, .st23, .st24, .st25, .st26, .st27, .st28, .st29, .st30, .st31, .st32, .st33, .st34, .st35, .st36, .st37, .st38, .st39, .st40 {
        isolation: isolate;
      }

      .st0, .st1, .st2, .st3, .st4, .st5, .st7, .st8, .st9, .st10, .st11, .st12, .st13, .st14, .st15, .st17, .st18, .st19, .st20, .st21, .st22, .st23, .st24, .st25, .st26, .st27, .st28, .st29, .st30, .st31, .st32, .st33, .st34, .st35, .st36, .st37, .st38, .st39, .st40 {
        opacity: .9;
      }

      .st41 {
        clip-path: url(#clippath-21);
      }

      .st42 {
        fill: #660666;
      }

      .st43 {
        clip-path: url(#clippath-6);
      }

      .st44 {
        clip-path: url(#clippath-7);
      }

      .st45 {
        clip-path: url(#clippath-17);
      }

      .st46 {
        fill: #3a332f;
      }

      .st46, .st6, .st47, .st48, .st49, .st50 {
        display: none;
      }

      .st51 {
        clip-path: url(#clippath-31);
      }

      .st52 {
        fill: #f7a426;
      }

      .st53 {
        fill: #d0ebf7;
      }

      .st54 {
        fill: #ffffc7;
      }

      .st1 {
        fill: #bbffe2;
      }

      .st55 {
        clip-path: url(#clippath-15);
      }

      .st56 {
        clip-path: url(#clippath-33);
      }

      .st57 {
        clip-path: url(#clippath-18);
      }

      .st58 {
        clip-path: url(#clippath-4);
      }

      .st59 {
        fill: #fdcc22;
      }

      .st60 {
        fill: #4469bb;
      }

      .st61 {
        fill: #e8bedb;
      }

      .st62 {
        clip-path: url(#clippath-22);
      }

      .st63 {
        clip-path: url(#clippath-23);
      }

      .st64 {
        fill: #f6abad;
      }

      .st65 {
        fill: #f7a25c;
      }

      .st2 {
        fill: #9ce106;
      }

      .st3 {
        fill: #62af88;
      }

      .st66 {
        fill: #fefe82;
      }

      .st4 {
        fill: #f4bd0b;
      }

      .st5 {
        fill: #cef003;
      }

      .st67 {
        clip-path: url(#clippath-9);
      }

      .st68 {
        fill: #39322e;
      }

      .st69 {
        stroke-width: 2px;
      }

      .st69, .st70, .st71, .st47, .st49, .st50 {
        fill: none;
      }

      .st69, .st70, .st47 {
        stroke-miterlimit: 9.8;
      }

      .st69, .st70, .st47, .st50 {
        stroke: #3c3430;
      }

      .st72 {
        clip-path: url(#clippath-10);
      }

      .st73 {
        fill: #981595;
      }

      .st74 {
        fill: #af48a1;
      }

      .st75 {
        fill: #fff;
      }

      .st76 {
        clip-path: url(#clippath-25);
      }

      .st77 {
        fill: #58c3ba;
      }

      .st78 {
        fill: #498dd2;
      }

      .st79 {
        clip-path: url(#clippath-27);
      }

      .st7 {
        fill: #5bb4ff;
      }

      .st80 {
        fill: #4898da;
      }

      .st81 {
        fill: #c3e6d8;
      }

      .st82 {
        fill: #a3a5d7;
      }

      .st83 {
        fill: #ffe173;
      }

      .st84 {
        clip-path: url(#clippath-11);
      }

      .st8 {
        fill: #b46464;
      }

      .st9 {
        fill: #00528f;
      }

      .st10 {
        fill: #57007f;
      }

      .st11 {
        fill: #640000;
      }

      .st85 {
        fill: #ec2426;
      }

      .st86 {
        fill: #d3eca4;
      }

      .st87 {
        fill: #640e0e;
      }

      .st12 {
        fill: #af0f14;
      }

      .st88 {
        fill: #3f57b0;
      }

      .st89 {
        clip-path: url(#clippath-28);
      }

      .st13 {
        fill: #9feec8;
      }

      .st14 {
        fill: #ffb4b4;
      }

      .st90 {
        clip-path: url(#clippath-1);
      }

      .st91 {
        fill: #f3f3a1;
      }

      .st15 {
        fill: #f4d90b;
      }

      .st92 {
        fill: #c8e8f0;
      }

      .st93 {
        fill: #991e1f;
      }

      .st94 {
        fill: #6655ad;
      }

      .st95 {
        clip-path: url(#clippath-5);
      }

      .st96 {
        clip-path: url(#clippath-20);
      }

      .st17 {
        fill: #78048d;
      }

      .st97 {
        clip-path: url(#clippath-8);
      }

      .st18 {
        fill: #0082ef;
      }

      .st98 {
        fill: #fcfc1e;
      }

      .st99 {
        fill: #0eb04e;
      }

      .st19 {
        fill: #259aff;
      }

      .st20 {
        fill: #21bb0e;
      }

      .st100 {
        fill: #f59826;
      }

      .st101 {
        fill: snow;
      }

      .st102 {
        fill: #0b7f3f;
      }

      .st103 {
        clip-path: url(#clippath-3);
      }

      .st104 {
        fill: #7ecb47;
      }

      .st21 {
        fill: #f0a0a0;
      }

      .st105 {
        clip-path: url(#clippath-26);
      }

      .st22 {
        fill: #e83709;
      }

      .st106 {
        clip-path: url(#clippath-12);
      }

      .st107 {
        fill: #f06626;
      }

      .st23 {
        fill: #64007f;
      }

      .st24 {
        fill: #c41a0a;
      }

      .st25 {
        fill: #003c7f;
      }

      .st108 {
        clip-path: url(#clippath-14);
      }

      .st26 {
        fill: #0062af;
      }

      .st27 {
        fill: #00287f;
      }

      .st28 {
        fill: #ffdcdc;
      }

      .st109 {
        fill: #f49799;
      }

      .st29 {
        fill: #3e007f;
      }

      .st30 {
        fill: #d41dd1;
      }

      .st47 {
        stroke-width: 2.9px;
      }

      .st110 {
        clip-path: url(#clippath-30);
      }

      .st111 {
        fill: #fdebeb;
      }

      .st112 {
        clip-path: url(#clippath-19);
      }

      .st113 {
        fill: #f9c1c2;
      }

      .st114 {
        fill: #db4c4d;
      }

      .st115 {
        fill: #37bd7c;
      }

      .st116 {
        clip-path: url(#clippath-32);
      }

      .st31 {
        fill: #f3fb01;
      }

      .st117 {
        fill: #fdd58f;
      }

      .st32 {
        fill: #7c0000;
      }

      .st118 {
        fill: #e67d9b;
      }

      .st119 {
        fill: #6fc9dc;
      }

      .st33 {
        fill: #07a127;
      }

      .st120 {
        clip-path: url(#clippath-16);
      }

      .st121 {
        fill: #b988c1;
      }

      .st122 {
        clip-path: url(#clippath-2);
      }

      .st34 {
        fill: #00467f;
      }

      .st123 {
        clip-path: url(#clippath-29);
      }

      .st124 {
        fill: #975ead;
      }

      .st125 {
        fill: #cbe436;
      }

      .st126 {
        fill: #33bcf3;
      }

      .st35 {
        fill: #870898;
      }

      .st36 {
        fill: #f46d0b;
      }

      .st50 {
        stroke-miterlimit: 10;
        stroke-width: 3px;
      }

      .st127 {
        clip-path: url(#clippath-13);
      }

      .st128 {
        fill: #cb2527;
      }

      .st129 {
        fill: #ef5a5c;
      }

      .st37 {
        fill: #52ca0b;
      }

      .st130 {
        fill: #fbd5d6;
      }

      .st38 {
        fill: #87d3ab;
      }

      .st131 {
        clip-path: url(#clippath-24);
      }

      .st132 {
        fill: #c66aaf;
      }

      .st39 {
        fill: #b414b9;
      }

      .st133 {
        clip-path: url(#clippath);
      }

      .st134 {
        fill: #3c3530;
      }

      .st40 {
        fill: #f4880b;
      }

      .st135 {
        fill: #d7a2cd;
      }
    </style>
    <clipPath id="clippath">
      <path class="st71" d="M271.4,300.9c-.3,3.7-6.4,8.1-11.7,8.1-5.2.4-12.3-3.6-12.3-8.1V-283.2c1.1-5.3,7.4-8.5,11.5-8.5s11.2,3.1,12.4,8.7V300.9Z"/>
    </clipPath>
    <clipPath id="clippath-1">
      <path class="st71" d="M259.4,244c-.3,3.3-5.5,7.3-10.1,7.3-4.5.4-10.6-3.2-10.6-7.3V-282c1-4.8,6.3-7.6,10-7.6s9.7,2.9,10.8,7.8V244Z"/>
    </clipPath>
    <clipPath id="clippath-2">
      <path class="st71" d="M259.4,244c-.3,3.3-5.5,7.3-10.1,7.3-4.5.4-10.6-3.2-10.6-7.3V-282c1-4.8,6.3-7.6,10-7.6s9.7,2.9,10.8,7.8V244Z"/>
    </clipPath>
    <clipPath id="clippath-3">
      <path class="st71" d="M259.4,244c-.3,3.3-5.5,7.3-10.1,7.3-4.5.4-10.6-3.2-10.6-7.3V-282c1-4.8,6.3-7.6,10-7.6s9.7,2.9,10.8,7.8V244Z"/>
    </clipPath>
    <clipPath id="clippath-4">
      <path class="st71" d="M259.4,244c-.3,3.3-5.5,7.3-10.1,7.3-4.5.4-10.6-3.2-10.6-7.3V-282c1-4.8,6.3-7.6,10-7.6s9.7,2.9,10.8,7.8V244Z"/>
    </clipPath>
    <clipPath id="clippath-5">
      <path class="st71" d="M259.4,244c-.3,3.3-5.5,7.3-10.1,7.3-4.5.4-10.6-3.2-10.6-7.3V-282c1-4.8,6.3-7.6,10-7.6s9.7,2.9,10.8,7.8V244Z"/>
    </clipPath>
    <clipPath id="clippath-6">
      <path class="st71" d="M259.4,244c-.3,3.3-5.5,7.3-10.1,7.3-4.5.4-10.6-3.2-10.6-7.3V-282c1-4.8,6.3-7.6,10-7.6s9.7,2.9,10.8,7.8V244Z"/>
    </clipPath>
    <clipPath id="clippath-7">
      <path class="st71" d="M259.4,244c0,3.6-5.8,7.9-10.4,7.9h-.6c-4.2,0-9.7-3.8-9.7-7.9V-282c1-4.8,6.3-7.6,10-7.6s9.7,2.9,10.7,7.8V244Z"/>
    </clipPath>
    <clipPath id="clippath-8">
      <path class="st71" d="M259.4,244c0,3.6-5.8,7.9-10.4,7.9h-.6c-4.2,0-9.7-3.8-9.7-7.9V-282c1-4.8,6.3-7.6,10-7.6s9.7,2.9,10.7,7.8V244Z"/>
    </clipPath>
    <clipPath id="clippath-9">
      <path class="st71" d="M259.4,244c0,3.6-5.8,7.9-10.4,7.9h-.6c-4.2,0-9.7-3.8-9.7-7.9V-282c1-4.8,6.3-7.6,10-7.6s9.7,2.9,10.7,7.8V244Z"/>
    </clipPath>
    <clipPath id="clippath-10">
      <path class="st71" d="M259.4,244c0,3.6-5.8,7.9-10.4,7.9h-.6c-4.2,0-9.7-3.8-9.7-7.9V-282c1-4.8,6.3-7.6,10-7.6s9.7,2.9,10.7,7.8V244Z"/>
    </clipPath>
    <clipPath id="clippath-11">
      <path class="st71" d="M259.4,244c0,3.6-5.8,7.9-10.4,7.9h-.6c-4.2,0-9.7-3.8-9.7-7.9V-282c1-4.8,6.3-7.6,10-7.6s9.7,2.9,10.7,7.8V244Z"/>
    </clipPath>
    <clipPath id="clippath-12">
      <path class="st71" d="M259.4,244c0,3.6-5.8,7.9-10.4,7.9h-.6c-4.2,0-9.7-3.8-9.7-7.9V-282c1-4.8,6.3-7.6,10-7.6s9.7,2.9,10.7,7.8V244Z"/>
    </clipPath>
    <clipPath id="clippath-13">
      <path class="st71" d="M259.4,244c0,3.6-5.8,7.9-10.4,7.9h-.6c-4.2,0-9.7-3.8-9.7-7.9V-282c1-4.8,6.3-7.6,10-7.6s9.7,2.9,10.7,7.8V244Z"/>
    </clipPath>
    <clipPath id="clippath-14">
      <path class="st71" d="M259.4,244c0,3.6-5.8,7.9-10.4,7.9h-.6c-4.2,0-9.7-3.8-9.7-7.9V-282c1-4.8,6.3-7.6,10-7.6s9.7,2.9,10.7,7.8V244Z"/>
    </clipPath>
    <clipPath id="clippath-15">
      <path class="st71" d="M259.4,244c0,3.6-5.8,7.9-10.4,7.9h-.6c-4.2,0-9.7-3.8-9.7-7.9V-282c1-4.8,6.3-7.6,10-7.6s9.7,2.9,10.7,7.8V244Z"/>
    </clipPath>
    <clipPath id="clippath-16">
      <path class="st71" d="M259.4,244c0,3.6-5.8,7.9-10.4,7.9h-.6c-4.2,0-9.7-3.8-9.7-7.9V-282c1-4.8,6.3-7.6,10-7.6s9.7,2.9,10.7,7.8V244Z"/>
    </clipPath>
    <clipPath id="clippath-17">
      <path class="st71" d="M259.4,244c0,3.6-5.8,7.9-10.4,7.9h-.6c-4.2,0-9.7-3.8-9.7-7.9V-282c1-4.8,6.3-7.6,10-7.6s9.7,2.9,10.7,7.8V244Z"/>
    </clipPath>
    <clipPath id="clippath-18">
      <path class="st71" d="M259.4,244c0,3.6-5.8,7.9-10.4,7.9h-.6c-4.2,0-9.7-3.8-9.7-7.9V-282c1-4.8,6.3-7.6,10-7.6s9.7,2.9,10.7,7.8V244Z"/>
    </clipPath>
    <clipPath id="clippath-19">
      <path class="st71" d="M259.4,244c0,3.6-5.8,7.9-10.4,7.9h-.6c-4.2,0-9.7-3.8-9.7-7.9V-282c1-4.8,6.3-7.6,10-7.6s9.7,2.9,10.7,7.8V244Z"/>
    </clipPath>
    <clipPath id="clippath-20">
      <path class="st71" d="M259.4,244c0,3.6-5.8,7.9-10.4,7.9h-.6c-4.2,0-9.7-3.8-9.7-7.9V-282c1-4.8,6.3-7.6,10-7.6s9.7,2.9,10.7,7.8V244Z"/>
    </clipPath>
    <clipPath id="clippath-21">
      <path class="st71" d="M259.4,244c0,3.6-5.8,7.9-10.4,7.9h-.6c-4.2,0-9.7-3.8-9.7-7.9V-282c1-4.8,6.3-7.6,10-7.6s9.7,2.9,10.7,7.8V244Z"/>
    </clipPath>
    <clipPath id="clippath-22">
      <path class="st71" d="M259.4,244c0,3.6-5.8,7.9-10.4,7.9h-.6c-4.2,0-9.7-3.8-9.7-7.9V-282c1-4.8,6.3-7.6,10-7.6s9.7,2.9,10.7,7.8V244Z"/>
    </clipPath>
    <clipPath id="clippath-23">
      <path class="st71" d="M259.4,244c0,3.6-5.8,7.9-10.4,7.9h-.6c-4.2,0-9.7-3.8-9.7-7.9V-282c1-4.8,6.3-7.6,10-7.6s9.7,2.9,10.7,7.8V244Z"/>
    </clipPath>
    <clipPath id="clippath-24">
      <path class="st71" d="M259.4,244c0,3.6-5.8,7.9-10.4,7.9h-.6c-4.2,0-9.7-3.8-9.7-7.9V-282c1-4.8,6.3-7.6,10-7.6s9.7,2.9,10.7,7.8V244Z"/>
    </clipPath>
    <clipPath id="clippath-25">
      <path class="st71" d="M259.4,244c0,3.6-5.8,7.9-10.4,7.9h-.6c-4.2,0-9.7-3.8-9.7-7.9V-282c1-4.8,6.3-7.6,10-7.6s9.7,2.9,10.7,7.8V244Z"/>
    </clipPath>
    <clipPath id="clippath-26">
      <path class="st71" d="M259.4,244c0,3.6-5.8,7.9-10.4,7.9h-.6c-4.2,0-9.7-3.8-9.7-7.9V-282c1-4.8,6.3-7.6,10-7.6s9.7,2.9,10.7,7.8V244Z"/>
    </clipPath>
    <clipPath id="clippath-27">
      <path class="st71" d="M259.2,244.2c-.3,3.3-5.5,7.3-10.1,7.3-4.5.4-10.6-3.2-10.6-7.3V-281.8c1-4.8,6.3-7.6,10-7.6s9.7,2.9,10.8,7.8V244.2Z"/>
    </clipPath>
    <clipPath id="clippath-28">
      <path class="st71" d="M259.2,244.2c-.3,3.3-5.5,7.3-10.1,7.3-4.5.4-10.6-3.2-10.6-7.3V-281.8c1-4.8,6.3-7.6,10-7.6s9.7,2.9,10.8,7.8V244.2Z"/>
    </clipPath>
    <clipPath id="clippath-29">
      <path class="st71" d="M259.2,244.2c-.3,3.3-5.5,7.3-10.1,7.3-4.5.4-10.6-3.2-10.6-7.3V-281.8c1-4.8,6.3-7.6,10-7.6s9.7,2.9,10.8,7.8V244.2Z"/>
    </clipPath>
    <clipPath id="clippath-30">
      <path class="st71" d="M259.2,244.2c-.3,3.3-5.5,7.3-10.1,7.3-4.5.4-10.6-3.2-10.6-7.3V-281.8c1-4.8,6.3-7.6,10-7.6s9.7,2.9,10.8,7.8V244.2Z"/>
    </clipPath>
    <clipPath id="clippath-31">
      <path class="st71" d="M259.2,244.2c-.3,3.3-5.5,7.3-10.1,7.3-4.5.4-10.6-3.2-10.6-7.3V-281.8c1-4.8,6.3-7.6,10-7.6s9.7,2.9,10.8,7.8V244.2Z"/>
    </clipPath>
    <clipPath id="clippath-32">
      <path class="st71" d="M259.2,244.2c-.3,3.3-5.5,7.3-10.1,7.3-4.5.4-10.6-3.2-10.6-7.3V-281.8c1-4.8,6.3-7.6,10-7.6s9.7,2.9,10.8,7.8V244.2Z"/>
    </clipPath>
    <clipPath id="clippath-33">
      <path class="st71" d="M4.8,39.2c-4.2-.4-2.4-10.5-2.4-18.3C2,13.3,1.4,2.6,6.4,2.6l670.4-.6c6,1.6,4.5,13.4,4.5,19.4,0,7.2,2.8,16.1-3.6,17.8H12.4s-7.6,0-7.6,0Z"/>
    </clipPath>
  </defs>
  <g class="st48">
    <g class="st133">
      <g>
        <rect class="st100" x="239.7" y="-290.3" width="47.9" height="15"/>
        <rect class="st59" x="235.2" y="-276" width="47.4" height="14.2"/>
        <rect class="st94" x="235.2" y="-261.8" width="47.4" height="14.2"/>
        <rect class="st124" x="235.2" y="-247.5" width="47.4" height="14.2"/>
        <rect class="st132" x="235.2" y="-233.2" width="47.4" height="14.2"/>
        <rect class="st74" x="235.2" y="-219" width="47.4" height="14.2"/>
        <rect class="st73" x="235.2" y="-204.8" width="47.4" height="14.2"/>
        <rect class="st42" x="235.2" y="-190.6" width="47.4" height="14.2"/>
        <rect class="st87" x="235.2" y="-176.4" width="47.4" height="14.2"/>
        <rect class="st93" x="235.2" y="-162.2" width="47.4" height="14.2"/>
        <rect class="st128" x="235.2" y="-147.9" width="47.4" height="14.2"/>
        <rect class="st85" x="235.2" y="-133.7" width="47.4" height="14.2"/>
        <rect class="st107" x="235.2" y="-119.5" width="47.4" height="14.2"/>
        <rect class="st100" x="235.2" y="-105.3" width="47.4" height="14.2"/>
        <rect class="st59" x="235.2" y="-91.1" width="47.4" height="14.2"/>
        <rect class="st98" x="235.2" y="-76.9" width="47.4" height="14.2"/>
        <rect class="st125" x="235.2" y="-62.6" width="47.4" height="14.2"/>
        <rect class="st104" x="235.2" y="-48.4" width="47.4" height="14.2"/>
        <rect class="st99" x="235.2" y="-34.2" width="47.4" height="14.2"/>
        <rect class="st115" x="235.2" y="-19.9" width="47.4" height="14.2"/>
        <rect class="st77" x="235.2" y="-5.7" width="47.4" height="14.2"/>
        <rect class="st119" x="235.2" y="8.5" width="47.4" height="14.2"/>
        <rect class="st126" x="235.2" y="22.8" width="47.4" height="14.2"/>
        <rect class="st78" x="235.2" y="37" width="47.4" height="14.2"/>
        <rect class="st60" x="235.2" y="51.2" width="47.4" height="14.2"/>
        <rect class="st88" x="235.2" y="65.4" width="47.4" height="14.2"/>
        <rect class="st94" x="235.2" y="79.6" width="47.4" height="14.2"/>
        <rect class="st124" x="235.2" y="93.8" width="47.4" height="14.2"/>
        <rect class="st132" x="235.2" y="108.1" width="47.4" height="14.2"/>
        <rect class="st74" x="235.2" y="122.3" width="47.4" height="14.2"/>
        <rect class="st73" x="235.2" y="136.5" width="47.4" height="14.2"/>
        <rect class="st42" x="235.2" y="150.7" width="47.4" height="14.2"/>
        <rect class="st87" x="235.2" y="164.9" width="47.4" height="14.2"/>
        <rect class="st93" x="235.2" y="179.1" width="47.4" height="14.2"/>
        <rect class="st128" x="235.2" y="193.4" width="47.4" height="14.2"/>
        <rect class="st85" x="235.2" y="207.7" width="47.4" height="14.2"/>
        <rect class="st107" x="235.2" y="221.9" width="47.4" height="14.2"/>
        <rect class="st100" x="235.2" y="236.1" width="47.4" height="14.2"/>
        <rect class="st59" x="235.2" y="250.3" width="47.4" height="60.2"/>
      </g>
    </g>
  </g>
  <path class="st50" d="M271.4,300.8c-.3,3.7-6.4,8.1-11.7,8.1h0c-5.2.4-12.3-3.6-12.3-8.1V-283.3c1.1-5.3,7.4-8.5,11.5-8.5h0c4.9,0,11.2,3.1,12.4,8.7V300.8h0Z"/>
  <g class="st48">
    <g>
      <g class="st90">
        <rect class="st101" x="233.6" y="160.5" width="30.9" height="96.8"/>
      </g>
      <g class="st122">
        <rect class="st130" x="233.9" y="-15.5" width="30.9" height="88"/>
      </g>
      <g class="st103">
        <rect class="st113" x="233.9" y="-103.5" width="30.9" height="88"/>
      </g>
      <g class="st58">
        <rect class="st111" x="233.6" y="72.5" width="30.9" height="88"/>
      </g>
      <g class="st95">
        <rect class="st64" x="233.9" y="-191.5" width="30.9" height="88"/>
      </g>
      <g class="st43">
        <rect class="st109" x="233.6" y="-288.3" width="30.9" height="96.8"/>
      </g>
    </g>
  </g>
  <g class="st48">
    <g class="st44">
      <rect class="st92" x="227.9" y="-289.6" width="42.3" height="26.6"/>
    </g>
    <g class="st97">
      <rect class="st53" x="227.9" y="-263" width="42.3" height="26.6"/>
    </g>
    <g class="st67">
      <rect class="st80" x="227.9" y="-236.9" width="42.3" height="26.6"/>
    </g>
    <g class="st72">
      <rect class="st82" x="227.9" y="-210.3" width="42.3" height="26.6"/>
    </g>
    <g class="st84">
      <rect class="st121" x="227.9" y="-183.7" width="42.3" height="26.6"/>
    </g>
    <g class="st106">
      <rect class="st135" x="227.9" y="-157" width="42.3" height="26.6"/>
    </g>
    <g class="st127">
      <rect class="st61" x="227.9" y="-130.8" width="42.3" height="26.6"/>
    </g>
    <g class="st108">
      <rect class="st118" x="227.9" y="-104.1" width="42.3" height="26.6"/>
    </g>
    <g class="st55">
      <rect class="st114" x="227.9" y="-77.5" width="42.3" height="26.6"/>
    </g>
    <g class="st120">
      <rect class="st129" x="227.9" y="-50.9" width="42.3" height="26.6"/>
    </g>
    <g class="st45">
      <rect class="st65" x="227.9" y="-24.6" width="42.3" height="26.6"/>
    </g>
    <g class="st57">
      <rect class="st117" x="227.9" y="2" width="42.3" height="26.6"/>
    </g>
    <g class="st112">
      <rect class="st83" x="227.9" y="28.6" width="42.3" height="26.6"/>
    </g>
    <g class="st96">
      <rect class="st66" x="227.9" y="55.2" width="42.3" height="26.6"/>
    </g>
    <g class="st41">
      <rect class="st54" x="227.9" y="81.5" width="42.3" height="26.6"/>
    </g>
    <g class="st62">
      <rect class="st91" x="227.9" y="108.1" width="42.3" height="26.6"/>
    </g>
    <g class="st63">
      <rect class="st86" x="227.9" y="134.8" width="42.3" height="26.6"/>
    </g>
    <g class="st131">
      <rect class="st81" x="227.9" y="161.4" width="42.3" height="26.6"/>
    </g>
    <g class="st76">
      <rect class="st92" x="227.9" y="188" width="42.3" height="26.6"/>
    </g>
    <g class="st105">
      <rect class="st53" x="227.9" y="214.6" width="42.3" height="40.2"/>
    </g>
  </g>
  <g class="st48">
    <g>
      <g class="st79">
        <rect class="st85" x="233.4" y="159.3" width="30.9" height="96.8"/>
      </g>
      <g class="st89">
        <rect class="st98" x="233.7" y="-16.7" width="30.9" height="88"/>
      </g>
      <g class="st123">
        <rect class="st102" x="233.7" y="-104.7" width="30.9" height="88"/>
      </g>
      <g class="st110">
        <rect class="st52" x="233.4" y="71.3" width="30.9" height="88"/>
      </g>
      <g class="st51">
        <rect class="st119" x="233.7" y="-192.7" width="30.9" height="88"/>
      </g>
      <g class="st116">
        <rect class="st88" x="233.7" y="-289.5" width="30.9" height="96.8"/>
      </g>
    </g>
  </g>
  <circle class="st46" cx="248.8" cy="-308.1" r="14.6"/>
  <path class="st47" d="M259.2,244.2c-.3,3.3-5.5,7.3-10.1,7.3h0c-4.5.4-10.6-3.2-10.6-7.3V-281.8c1-4.8,6.3-7.6,10-7.6h0c4.2,0,9.7,2.9,10.8,7.8V244.2h-.1Z"/>
  <g class="st48">
    <path class="st134" d="M244.2,242.7c-.4-.5-.6-1-.6-1.8s.2-1.3.6-1.8.9-.7,1.5-.7,1.1.2,1.5.7c.4.4.6,1,.6,1.8s-.2,1.3-.6,1.8c-.4.4-.9.7-1.5.7s-1.1-.2-1.5-.7ZM246.5,242.1c.2-.3.3-.7.3-1.1s0-.9-.3-1.1c-.2-.3-.5-.4-.8-.4s-.6,0-.8.4c-.2.3-.3.7-.3,1.1s0,.9.3,1.1c.2.3.5.4.8.4s.6-.1.8-.4ZM251,238.6h1.2l-6.1,8.9h-1.1l6-8.9ZM250,246.9c-.4-.5-.6-1-.6-1.8s.2-1.3.6-1.8c.4-.4.9-.7,1.5-.7s1.1.2,1.5.7c.4.4.6,1,.6,1.8s-.2,1.3-.6,1.8c-.4.4-.9.7-1.5.7s-1.1-.2-1.5-.7ZM252.3,246.3c.2-.3.3-.7.3-1.1s0-.9-.3-1.1c-.2-.3-.5-.4-.8-.4s-.6,0-.8.4c-.2.3-.3.7-.3,1.1s0,.9.3,1.1c.2.3.5.4.8.4.4,0,.6-.1.8-.4Z"/>
  </g>
  <g class="st48">
    <path class="st134" d="M247.7,198.5c.4.3.6.7.6,1.2s0,.6-.2.9c-.2.3-.4.5-.7.6-.3.2-.7.2-1.2.2s-.8,0-1.1-.2c-.4,0-.7-.3-.9-.5l.4-.8c.2.2.4.3.7.4.3,0,.6,0,.9,0s.6,0,.8-.2c.2,0,.3-.4.3-.6,0-.3,0-.5-.3-.6-.2,0-.6-.2-1.1-.2h-1.5l.3-3h3.2v.9h-2.4v1.3c0,0,.4,0,.4,0,.8,0,1.4.2,1.8.5Z"/>
    <path class="st134" d="M249.9,201.1c-.3-.2-.6-.5-.8-1-.2-.4-.3-.9-.3-1.5s0-1.1.3-1.5c.2-.4.5-.8.8-1s.7-.3,1.2-.3.8,0,1.2.3c.3.2.6.5.8,1,.2.4.3.9.3,1.5s0,1.1-.3,1.5c-.2.4-.5.7-.8,1-.3.2-.7.3-1.2.3s-.8,0-1.2-.3ZM252,200.1c.2-.3.3-.8.3-1.4s0-1.1-.3-1.4c-.2-.3-.5-.5-.9-.5s-.7.2-.9.5-.3.8-.3,1.4,0,1.1.3,1.4.5.5.9.5.7-.2.9-.5Z"/>
  </g>
  <g class="st48">
    <path class="st134" d="M247.6,117.1c.3.1.5.3.7.6.2.3.2.6.2.9s0,.7-.3.9c-.2.3-.4.5-.7.6-.3.1-.6.2-1,.2-.8,0-1.3-.2-1.7-.7s-.6-1.1-.6-2,0-1.1.3-1.6c.2-.4.5-.8.9-1s.9-.3,1.4-.3.5,0,.8.1c.2.1.5.1.6.3l-.4.8c-.3-.2-.6-.3-1-.3s-.9.2-1.2.5c-.3.3-.4.8-.4,1.4h0c.2-.2.4-.3.6-.4.3-.1.5-.1.8-.1.4-.1.7,0,1,.1ZM247.2,119.3c.2-.2.3-.4.3-.7s0-.5-.3-.7c-.2-.2-.5-.3-.8-.3s-.6.1-.8.3c-.2.2-.3.4-.3.7s0,.5.3.7c.2.2.5.3.8.3s.6-.1.8-.3Z"/>
    <path class="st134" d="M250.2,120.1c-.3-.2-.6-.5-.8-1-.2-.4-.3-.9-.3-1.5s0-1.1.3-1.5c.2-.4.5-.8.8-1s.7-.3,1.2-.3.8.1,1.2.3c.3.2.6.5.8,1,.2.4.3.9.3,1.5s0,1.1-.3,1.5c-.2.4-.5.7-.8,1-.3.2-.7.3-1.2.3s-.9,0-1.2-.3ZM252.3,119c.2-.3.3-.8.3-1.4s0-1.1-.3-1.4-.5-.5-.9-.5-.7.2-.9.5c-.2.3-.3.8-.3,1.4s0,1.1.3,1.4c.2.3.5.5.9.5s.6-.2.9-.5Z"/>
  </g>
  <g class="st48">
    <path class="st134" d="M248.6,26.1v.7l-2.1,4.8h-1.2l2.1-4.6h-2.2v.9h-.9v-1.8h4.3Z"/>
    <path class="st134" d="M250.1,31.3c-.3-.2-.6-.5-.8-1-.2-.4-.3-.9-.3-1.5s0-1.1.3-1.5.5-.7.8-1c.3-.2.7-.3,1.2-.3s.8.1,1.2.3c.3.2.6.5.8,1,.2.4.3.9.3,1.5s0,1.1-.3,1.5-.5.7-.8,1c-.3.2-.7.3-1.2.3-.4.1-.8-.1-1.2-.3ZM252.2,30.3c.2-.3.3-.8.3-1.4s0-1.1-.3-1.4c-.2-.3-.5-.5-.9-.5s-.7.2-.9.5c-.2.3-.3.8-.3,1.4s0,1.1.3,1.4c.2.3.5.5.9.5s.7-.2.9-.5Z"/>
  </g>
  <g class="st48">
    <path class="st134" d="M248.4-67.5c.2.2.2.5.2.8s0,.6-.3.9-.4.4-.8.6-.7.2-1.2.2-.8-.1-1.2-.2c-.3-.1-.6-.3-.8-.6-.2-.3-.3-.5-.3-.9s0-.6.2-.8c.2-.2.4-.4.6-.5-.2-.1-.4-.3-.5-.5s-.2-.4-.2-.7,0-.6.3-.8c.2-.2.4-.4.7-.5.3-.1.7-.2,1.1-.2s.8.1,1.1.2c.3.1.5.3.7.5s.3.5.3.8,0,.5-.2.7-.3.4-.5.5c.4.1.6.2.8.5ZM247.3-66.1c.2-.2.3-.4.3-.6,0-.3,0-.5-.3-.6-.2-.2-.5-.2-.9-.2s-.7.1-.9.2c-.2.2-.3.4-.3.6,0,.3,0,.5.3.6.2.2.5.2.9.2s.6-.1.9-.2ZM245.6-69.7c-.2.1-.3.3-.3.6s0,.4.3.6c.2.1.4.2.8.2s.6-.1.8-.2c.2-.1.3-.3.3-.6s0-.4-.3-.6c-.2-.1-.4-.2-.8-.2s-.6,0-.8.2Z"/>
    <path class="st134" d="M250.4-65.4c-.3-.2-.6-.5-.8-1-.2-.4-.3-.9-.3-1.5s0-1.1.3-1.5c.2-.4.5-.7.8-1,.3-.2.7-.3,1.2-.3s.8.1,1.2.3c.3.2.6.5.8,1,.2.5.3.9.3,1.5s0,1.1-.3,1.5c-.2.4-.5.7-.8,1s-.7.3-1.2.3-.9,0-1.2-.3ZM252.5-66.5c.2-.3.3-.8.3-1.4s0-1.1-.3-1.4c-.2-.3-.5-.5-.9-.5s-.7.2-.9.5-.3.8-.3,1.4,0,1.1.3,1.4.5.5.9.5.7-.1.9-.5Z"/>
  </g>
  <g class="st48">
    <path class="st134" d="M247.9-150.4c.4.5.6,1.1.6,2s0,1.1-.3,1.6c-.2.4-.5.8-.9,1s-.9.3-1.4.3-.5,0-.8-.1c-.2-.1-.5-.1-.6-.3l.4-.8c.3.2.6.3,1,.3s.9-.2,1.2-.5c.3-.3.4-.8.4-1.4h0c-.2.2-.4.3-.6.4-.3.1-.5.1-.8.1s-.7-.1-1-.2c-.3-.1-.5-.3-.7-.6s-.2-.6-.2-.9,0-.7.3-.9c.2-.3.4-.5.7-.6.3-.1.6-.2,1-.2.7,0,1.3.3,1.7.8ZM247-148.8c.2-.2.3-.4.3-.7s0-.5-.3-.7c-.2-.2-.5-.3-.8-.3s-.6.1-.8.3c-.2.2-.3.4-.3.7s0,.5.3.7c.2.2.5.3.8.3.3,0,.6-.1.8-.3Z"/>
    <path class="st134" d="M250.3-145.9c-.3-.2-.6-.5-.8-1-.2-.4-.3-.9-.3-1.5s0-1.1.3-1.5c.2-.4.5-.7.8-1,.3-.2.7-.3,1.2-.3s.8.1,1.2.3c.3.2.6.5.8,1,.2.4.3.9.3,1.5s0,1.1-.3,1.5c-.2.4-.5.7-.8,1-.3.2-.7.3-1.2.3-.5,0-.9,0-1.2-.3ZM252.4-146.9c.2-.3.3-.8.3-1.4s0-1.1-.3-1.4c-.2-.3-.5-.5-.9-.5s-.7.2-.9.5c-.2.3-.3.8-.3,1.4s0,1.1.3,1.4c.2.3.5.5.9.5s.7-.2.9-.5Z"/>
  </g>
  <g class="st48">
    <path class="st134" d="M244.5-248.1v5.5h-1v-4.6h-1.2v-.9h2.2Z"/>
    <path class="st134" d="M246.7-242.9c-.3-.2-.6-.5-.8-1-.2-.4-.3-.9-.3-1.5s0-1.1.3-1.5c.2-.4.5-.7.8-1,.3-.2.7-.3,1.2-.3s.8,0,1.2.3c.3.2.6.5.8,1,.2.4.3.9.3,1.5s0,1.1-.3,1.5c-.2.4-.5.7-.8,1-.3.2-.7.3-1.2.3-.5,0-.9,0-1.2-.3ZM248.8-243.9c.2-.3.3-.8.3-1.4s0-1.1-.3-1.4-.5-.5-.9-.5-.7.2-.9.5c-.2.3-.3.8-.3,1.4s0,1.1.3,1.4c.2.3.5.5.9.5s.7-.2.9-.5Z"/>
    <path class="st134" d="M252-242.9c-.3-.2-.6-.5-.8-1-.2-.4-.3-.9-.3-1.5s0-1.1.3-1.5c.2-.4.5-.7.8-1,.3-.2.7-.3,1.2-.3s.8,0,1.2.3.6.5.8,1c.2.5.2,1,.2,1.5s0,1.1-.3,1.5c-.2.4-.5.7-.8,1-.3.2-.7.3-1.2.3-.4,0-.8,0-1.1-.3ZM254.1-243.9c.2-.3.3-.8.3-1.4s0-1.1-.3-1.4c-.2-.3-.5-.5-.9-.5s-.7.2-.9.5c-.2.3-.3.8-.3,1.4s0,1.1.3,1.4c.2.3.5.5.9.5s.6-.2.9-.5Z"/>
  </g>
  <g class="st48">
    <path class="st75" d="M242.5-301.4h12.4c2.6,0,4.8-1.8,5.3-4.2.3-1.6,0-3.2-1.1-4.4-.9-1-2.1-1.7-3.4-1.9v-1.2c0-4.2-3.8-7.5-7.9-7-3.5.4-6.2,3.5-6.2,7.3v.9c-1.1.1-2.2.7-3,1.5-1.2,1.2-1.7,2.9-1.5,4.6.5,2.4,2.9,4.4,5.4,4.4ZM239.6-309.4c.7-.7,1.7-1.1,2.7-1.1s.7-.3.7-.7v-1.6c0-3.1,2.5-5.9,5.7-5.9s5.7,2.6,5.7,5.7v1.8c0,.4.3.7.7.7,1.2,0,2.3.5,3,1.4s1,2.1.8,3.3c-.4,1.8-2,3.1-4,3.1h-12.4c-1.8,0-3.7-1.5-4-3.2-.2-1.4.2-2.6,1.1-3.5Z"/>
  </g>
  <rect class="st49" x="244" y="-301.4" width="9.5" height="5.3"/>
  <g class="st6">
    <path class="st75" d="M247.9-301.2h.7v3.3h2v.6h-2.7v-3.9Z"/>
  </g>
  <g class="st56">
    <g>
      <rect class="st23" x="-25.4" y="-.2" width="71" height="47.4" transform="translate(33.6 13.4) rotate(90)"/>
      <rect class="st28" x="635.3" y="14.8" width="74.3" height="17.7" transform="translate(696.1 -648.8) rotate(90)"/>
      <rect class="st14" x="618.3" y="16.2" width="73.5" height="17.1" transform="translate(679.8 -630.3) rotate(90)"/>
      <rect class="st21" x="601.2" y="16.2" width="73.5" height="17.1" transform="translate(662.7 -613.2) rotate(90)"/>
      <rect class="st8" x="584.2" y="16.2" width="73.5" height="17.1" transform="translate(645.7 -596.2) rotate(90)"/>
      <rect class="st11" x="567.1" y="16.2" width="73.5" height="17.1" transform="translate(628.6 -579.1) rotate(90)"/>
      <rect class="st32" x="550.2" y="16.2" width="73.5" height="17.1" transform="translate(611.7 -562.2) rotate(90)"/>
      <rect class="st12" x="533.1" y="16.2" width="73.5" height="17.1" transform="translate(594.6 -545.1) rotate(90)"/>
      <rect class="st24" x="516.1" y="16.2" width="73.5" height="17.1" transform="translate(577.6 -528.1) rotate(90)"/>
      <rect class="st22" x="499" y="16.2" width="73.5" height="17.1" transform="translate(560.5 -511) rotate(90)"/>
      <rect class="st36" x="482" y="16.2" width="73.5" height="17.1" transform="translate(543.5 -494) rotate(90)"/>
      <rect class="st40" x="465" y="16.2" width="73.5" height="17.1" transform="translate(526.5 -477) rotate(90)"/>
      <rect class="st4" x="448" y="16.2" width="73.5" height="17.1" transform="translate(509.5 -460) rotate(90)"/>
      <rect class="st15" x="430.9" y="16.2" width="73.5" height="17.1" transform="translate(492.4 -442.9) rotate(90)"/>
      <rect class="st31" x="413.9" y="16.2" width="73.5" height="17.1" transform="translate(475.4 -425.9) rotate(90)"/>
      <rect class="st5" x="396.9" y="16.2" width="73.5" height="17.1" transform="translate(458.4 -408.9) rotate(90)"/>
      <rect class="st2" x="379.9" y="16.2" width="73.5" height="17.1" transform="translate(441.4 -391.9) rotate(90)"/>
      <rect class="st37" x="362.8" y="16.2" width="73.5" height="17.1" transform="translate(424.3 -374.8) rotate(90)"/>
      <rect class="st20" x="345.8" y="16.2" width="73.5" height="17.1" transform="translate(407.3 -357.8) rotate(90)"/>
      <rect class="st33" x="328.8" y="16.2" width="73.5" height="17.1" transform="translate(390.3 -340.8) rotate(90)"/>
      <rect class="st3" x="311.8" y="16.2" width="73.5" height="17.1" transform="translate(373.3 -323.8) rotate(90)"/>
      <rect class="st38" x="294.6" y="16.2" width="73.5" height="17.1" transform="translate(356.1 -306.6) rotate(90)"/>
      <rect class="st13" x="277.7" y="16.2" width="73.5" height="17.1" transform="translate(339.2 -289.7) rotate(90)"/>
      <rect class="st1" x="260.6" y="16.2" width="73.5" height="17.1" transform="translate(322.1 -272.6) rotate(90)"/>
      <rect class="st7" x="243.7" y="16.2" width="73.5" height="17.1" transform="translate(305.2 -255.7) rotate(90)"/>
      <rect class="st19" x="226.7" y="16.1" width="73.5" height="17.2" transform="translate(288.2 -238.7) rotate(90)"/>
      <rect class="st18" x="209.6" y="16.2" width="73.5" height="17.1" transform="translate(271.1 -221.6) rotate(90)"/>
      <rect class="st26" x="192.6" y="16.2" width="73.5" height="17.1" transform="translate(254.1 -204.6) rotate(90)"/>
      <rect class="st9" x="175.6" y="16.2" width="73.5" height="17.1" transform="translate(237.1 -187.6) rotate(90)"/>
      <rect class="st34" x="158.6" y="16.2" width="73.5" height="17.1" transform="translate(220.1 -170.6) rotate(90)"/>
      <rect class="st25" x="141.6" y="16.2" width="73.5" height="17.1" transform="translate(203.1 -153.6) rotate(90)"/>
      <rect class="st27" x="124.6" y="16.2" width="73.5" height="17.1" transform="translate(186.1 -136.6) rotate(90)"/>
      <rect class="st29" x="107.6" y="16.2" width="73.5" height="17.1" transform="translate(169.1 -119.6) rotate(90)"/>
      <rect class="st10" x="90.6" y="16.2" width="73.5" height="17.1" transform="translate(152.1 -102.6) rotate(90)"/>
      <rect class="st0" x="73.5" y="16.2" width="73.5" height="17.1" transform="translate(135 -85.5) rotate(90)"/>
      <rect class="st30" x="56.5" y="16.2" width="73.5" height="17.1" transform="translate(118 -68.5) rotate(90)"/>
      <rect class="st39" x="39.4" y="16.2" width="73.5" height="17.1" transform="translate(100.9 -51.4) rotate(90)"/>
      <rect class="st35" x="22.5" y="16.2" width="73.5" height="17.1" transform="translate(84 -34.5) rotate(90)"/>
      <rect class="st17" x="5.4" y="16.2" width="73.5" height="17.1" transform="translate(66.9 -17.4) rotate(90)"/>
    </g>
  </g>
  <circle class="st68" cx="703.7" cy="21.1" r="19.8"/>
  <g id="Layer_1">
    <path class="st75" d="M703.8,4.8c-3.6,0-6.6,2.8-6.6,6.3v9.3c-2.5,2.1-3.8,5.2-3.4,8.4.6,4.4,4.3,7.8,8.8,8.3,5.8.5,11.1-3.8,11.1-9.4s-1.2-5.3-3.4-7.1v-9.2c.1-3.7-2.9-6.6-6.5-6.6ZM711.9,27.5c0,4.7-4.4,8.3-9.2,7.9-3.6-.4-6.7-3.2-7.1-6.9-.3-2.8.8-5.4,3.1-7.1.1-.1.3-.4.3-.6v-9.6c0-2.6,2.2-4.7,4.8-4.7,2.6,0,4.8,2.1,4.8,4.7v9.6c0,.3.1.4.3.6,2,1.4,3,3.6,3,6.1Z"/>
    <path class="st75" d="M706.9,23.3v-9.9c0-1.7-1.4-3-3.1-3s-3.1,1.4-3.1,3v10c-1.8,1.3-2.6,3.4-2.1,5.4.9,3.5,5.6,5,8.7,2.8,1.3-1,2.1-2.6,2.1-4-.2-1.8-1.1-3.4-2.5-4.3ZM706.1,30.2c-2.1,1.6-5.3.5-5.8-1.8-.4-1.6.3-3.1,1.8-3.9.3-.1.4-.4.4-.6v-10.4c0-.6.6-1.4,1.4-1.4s1.4.5,1.4,1.4v10.4c0,.3.1.5.4.6,1.2.6,1.9,1.8,1.9,3.1-.2.9-.6,1.8-1.5,2.6Z"/>
  </g>
  <rect class="st71" x="35" y="9.2" width="15.4" height="12.9" transform="translate(58.4 -27) rotate(90)"/>
  <g class="st16">
    <path class="st75" d="M14.9,25.2c-.9.2-1.7.3-2.5.3s-1.3,0-1.8-.3c-.4-.2-.8-.5-1-1-.3-.4-.4-1-.5-1.5s-.1-1.3-.1-2.2c0-1.9.2-3.2.7-3.9.5-.8,1.4-1.1,2.7-1.1s1.6,0,2.6.4v1.5c-1,0-1.7-.2-2.2-.2s-1,0-1.2.2c-.2.2-.4.4-.5,1-.1.4-.2,1.2-.2,2.4s.1,1.9.4,2.3c.3.4.7.7,1.4.7s1.5,0,2.3-.2v1.6Z"/>
    <path class="st75" d="M4.8,19.2c-.4-.4-.5-.9-.5-1.5s.2-1.2.5-1.5c.4-.4.8-.5,1.4-.5s1.1.2,1.4.5c.4.4.5.9.5,1.5s-.2,1.1-.5,1.5c-.4.4-.8.5-1.4.5s-1,0-1.4-.5ZM5.5,16.9c-.2.2-.3.4-.3.8s.1.5.3.8c.2.2.4.3.7.3s.5,0,.7-.3.3-.4.3-.8-.1-.5-.3-.8-.4-.3-.7-.3-.5,0-.7.3Z"/>
  </g>
  <g>
    <path class="st75" d="M42.3,22.7v-1.6h3.6v1.6h-3.6Z"/>
    <path class="st75" d="M52.4,25.5h-5.1v-1.6s1.7-1.9,1.7-1.9c.6-.7,1-1.2,1.3-1.5.2-.3.4-.8.4-1.1s-.1-.7-.3-.9c-.2-.2-.5-.2-.8-.2-.5,0-1.1,0-1.8,0h-.3v-1.4c.7-.2,1.5-.4,2.3-.4,1.7,0,2.5.9,2.5,2.5s-.1,1.2-.4,1.6-.7,1.1-1.4,1.7l-1.4,1.3h3.3c0,.1,0,1.8,0,1.8Z"/>
    <path class="st75" d="M54.5,17.3c.5-.4,1.2-.7,2.1-.7s1.6.2,2.1.7c.5.4.8,1,.8,1.7s-.1.9-.2,1.1c-.1.2-.3.5-.7.9.4.3.6.7.8.9.2.3.2.7.2,1.2,0,.9-.3,1.5-.8,1.9-.6.4-1.3.7-2.2.7-2,0-3-.8-3-2.4s.1-1,.2-1.3c.2-.3.4-.7.8-1-.3-.3-.6-.5-.7-.9s-.2-.7-.2-1.1c0-.8.3-1.3.8-1.7ZM55.3,22.8c0,.8.4,1.2,1.2,1.2s1.2-.4,1.2-1.2-.2-.8-.7-1h-1.1c-.3.2-.6.5-.6,1ZM56.6,18.2c-.4,0-.6,0-.8.2-.2.2-.3.4-.3.8s.2.7.6,1h1.1c.4-.3.6-.7.6-1-.1-.6-.5-1-1.2-1Z"/>
  </g>
  <line class="st70" x1="68.1" y1="3.2" x2="68.1" y2="39.6"/>
  <g>
    <path class="st75" d="M76.1,22.6v-1.6h3.6v1.6h-3.6Z"/>
    <path class="st75" d="M86.3,25.3h-5.1v-1.5s1.7-1.9,1.7-1.9c.6-.7,1-1.2,1.3-1.5.2-.3.4-.8.4-1.1s-.1-.7-.3-.9c-.2-.2-.5-.2-.8-.2-.5,0-1.1,0-1.8,0h-.3v-1.4c.7-.2,1.5-.4,2.3-.4,1.7,0,2.5.9,2.5,2.5s-.1,1.2-.4,1.6c-.3.4-.7,1.1-1.4,1.7l-1.4,1.3h3.3v1.7Z"/>
    <path class="st75" d="M90.9,25.3v-1.4s-3.4,0-3.4,0v-1.4s2-5.9,2-5.9h1.8s-2.1,5.7-2.1,5.7h1.7s0-2.4,0-2.4h1.7v2.4s.7,0,.7,0v1.5h-.8s0,1.4,0,1.4h-1.6s0,0,0,0Z"/>
  </g>
  <line class="st70" x1="102.3" y1="3.1" x2="102.3" y2="38.7"/>
  <line class="st70" x1="136.4" y1="2.8" x2="136.4" y2="40.3"/>
  <line class="st70" x1="170.4" y1="3" x2="170.4" y2="39.4"/>
  <line class="st70" x1="204.4" y1="3" x2="204.4" y2="39.4"/>
  <line class="st70" x1="238.4" y1="2.8" x2="238.4" y2="39.4"/>
  <line class="st70" x1="272.3" y1="2.8" x2="272.3" y2="39.7"/>
  <line class="st70" x1="306.5" y1="2.8" x2="306.5" y2="40.3"/>
  <line class="st70" x1="323.5" y1="2.1" x2="323.5" y2="14"/>
  <line class="st70" x1="340.5" y1="2.8" x2="340.5" y2="39.4"/>
  <line class="st70" x1="374.6" y1="2.8" x2="374.6" y2="39.4"/>
  <line class="st70" x1="408.6" y1="2.8" x2="408.6" y2="40.3"/>
  <line class="st70" x1="442.8" y1="2.1" x2="442.8" y2="39.7"/>
  <line class="st70" x1="476.8" y1="2.8" x2="476.8" y2="39.7"/>
  <line class="st70" x1="510.9" y1="2.8" x2="510.9" y2="39.7"/>
  <line class="st70" x1="544.9" y1="2.8" x2="544.9" y2="38.9"/>
  <line class="st70" x1="579" y1="2.8" x2="579" y2="39.7"/>
  <line class="st70" x1="612.3" y1="2" x2="612.3" y2="40.5"/>
  <line class="st70" x1="647.1" y1="3.1" x2="647.1" y2="40"/>
  <g>
    <path class="st75" d="M108.7,22.7v-1.6h3.6v1.6h-3.6Z"/>
    <path class="st75" d="M118.8,25.3h-5.1v-1.5s1.7-1.9,1.7-1.9c.6-.7,1-1.2,1.3-1.5.2-.3.4-.8.4-1.1s-.1-.7-.3-.9c-.2-.2-.5-.2-.8-.2-.5,0-1.1,0-1.8,0h-.3v-1.4c.7-.2,1.5-.4,2.3-.4,1.7,0,2.5.9,2.5,2.5s-.1,1.2-.4,1.6-.7,1.1-1.4,1.7l-1.4,1.3h3.3v1.7Z"/>
    <path class="st75" d="M120.7,17.7c.5-.8,1.3-1.1,2.3-1.1s1.8.3,2.3,1.1.8,1.9.8,3.5-.3,2.7-.8,3.4-1.3,1-2.3,1-1.8-.3-2.3-1-.8-1.9-.8-3.4.2-2.8.8-3.5ZM124.3,21.1c0-1.1-.1-1.9-.3-2.3-.2-.4-.6-.7-1-.7s-.8.2-1.1.7c-.2.4-.3,1.2-.3,2.3s.1,1.9.3,2.3c.2.4.6.7,1.1.7s.8-.2,1-.7.3-1.2.3-2.3Z"/>
  </g>
  <g>
    <path class="st75" d="M144.1,23v-1.6h3.6v1.6h-3.6Z"/>
    <path class="st75" d="M153.4,17.1v8.6h-1.7v-6.6s-1.7,1.2-1.7,1.2l-.8-1.3,2.6-1.9h1.6Z"/>
    <path class="st75" d="M161,18.6c-.8,0-1.5-.2-2.1-.2-1.1,0-1.7.7-1.7,2h.3c.5-.3.9-.3,1.3-.3.9,0,1.6.2,2,.7.5.4.7,1.2.7,2.1s-.3,1.6-.8,2.2c-.5.4-1.3.8-2.2.8s-1.7-.4-2.2-1.2-.7-2-.7-3.4.3-2.6.9-3.3c.6-.8,1.4-1.1,2.4-1.1s1.3,0,2,.3h.4c0,0-.3,1.4-.3,1.4ZM158.6,21.7c-.4,0-.8,0-1.2.2h-.2c0,1.6.4,2.4,1.3,2.4s.7,0,.9-.3c.2-.2.3-.5.3-1,0-.9-.4-1.3-1.1-1.3Z"/>
  </g>
  <g>
    <path class="st75" d="M178.9,22.2v-1.6h3.6v1.6h-3.6Z"/>
    <path class="st75" d="M188.1,16.2v8.6h-1.7v-6.6s-1.7,1.2-1.7,1.2l-.8-1.3,2.6-1.9h1.6Z"/>
    <path class="st75" d="M195.7,24.8h-5.1v-1.5s1.7-1.9,1.7-1.9c.6-.7,1-1.2,1.3-1.5.2-.3.4-.8.4-1.1s-.1-.7-.3-.9c-.2-.2-.5-.2-.8-.2-.5,0-1.1,0-1.8,0h-.3v-1.4c.7-.2,1.5-.4,2.3-.4,1.7,0,2.5.9,2.5,2.5s-.1,1.2-.4,1.6c-.3.4-.7,1.1-1.4,1.7l-1.4,1.3h3.3c0,.1,0,1.7,0,1.7Z"/>
  </g>
  <g>
    <path class="st75" d="M215.5,23.1v-1.6h3.6v1.6h-3.6Z"/>
    <path class="st75" d="M221,17.5c.5-.4,1.2-.7,2.1-.7s1.6.2,2.1.7c.5.4.8,1,.8,1.7s-.1.9-.2,1.1-.3.5-.7.9c.4.3.6.7.8.9.2.3.2.7.2,1.2,0,.9-.3,1.5-.8,1.9s-1.3.7-2.2.7c-2,0-3-.8-3-2.4s.1-1,.2-1.3.4-.7.8-1c-.3-.3-.6-.5-.7-.9s-.2-.7-.2-1.1c0-.7.3-1.3.8-1.7ZM221.9,23.1c0,.8.4,1.2,1.2,1.2s1.2-.4,1.2-1.2-.2-.8-.7-1h-1c-.5.2-.7.5-.7,1ZM223.1,18.5c-.4,0-.6.1-.8.2s-.3.4-.3.8.2.7.6,1h1c.4-.3.6-.7.6-1,0-.6-.3-1-1.1-1Z"/>
  </g>
  <g>
    <path class="st75" d="M249.2,22.8v-1.6h3.6v1.6h-3.6Z"/>
    <path class="st75" d="M257.3,25.6v-1.4s-3.4,0-3.4,0v-1.4s2-5.9,2-5.9h1.8s-2.1,5.7-2.1,5.7h1.7s0-2.4,0-2.4h1.7v2.4s.8,0,.8,0v1.5h-.8s0,1.4,0,1.4h-1.7s0,0,0,0Z"/>
  </g>
  <path class="st68" d="M287.1,17.6c.5-.8,1.3-1.1,2.3-1.1s1.8.3,2.3,1.1c.5.8.8,1.9.8,3.5s-.3,2.7-.8,3.4-1.3,1-2.3,1-1.8-.3-2.3-1-.8-1.9-.8-3.4.3-2.7.8-3.5ZM290.7,21c0-1.1-.1-1.9-.3-2.3-.2-.4-.6-.7-1-.7s-.8.2-1.1.7c-.2.4-.3,1.2-.3,2.3s.1,1.9.3,2.3c.2.4.6.7,1.1.7s.8-.2,1-.7c.2-.4.3-1.2.3-2.3Z"/>
  <path class="st134" d="M324,25.4v-1.4s-3.4,0-3.4,0v-1.4s2-5.9,2-5.9h1.8s-2.1,5.7-2.1,5.7h1.7s0-2.4,0-2.4h1.6v2.4s.8,0,.8,0v1.5h-.8s0,1.4,0,1.4h-1.6s0,0,0,0Z"/>
  <path class="st134" d="M355.2,17.1c.5-.4,1.2-.7,2.1-.7s1.6.2,2.1.7c.5.4.8,1,.8,1.7s-.1.9-.2,1.1-.3.5-.7.9c.4.3.6.7.8.9.2.3.2.7.2,1.2,0,.9-.3,1.5-.8,1.9-.6.4-1.3.7-2.2.7-2,0-3-.8-3-2.4s.1-1,.2-1.3c.2-.3.4-.7.8-1-.3-.3-.6-.5-.7-.9s-.2-.7-.2-1.1c0-.7.2-1.3.8-1.7ZM356,22.6c0,.8.4,1.2,1.2,1.2s1.2-.4,1.2-1.2-.2-.8-.7-1h-1.1c-.3.3-.6.6-.6,1ZM357.3,18.1c-.4,0-.6.1-.8.2-.2.2-.3.4-.3.8s.2.7.6,1h1.1c.4-.3.6-.7.6-1-.1-.7-.5-1-1.2-1Z"/>
  <g>
    <path class="st134" d="M389.4,16.9v8.6h-1.7v-6.6s-1.7,1.2-1.7,1.2l-.8-1.3,2.6-1.9h1.6s0,0,0,0Z"/>
    <path class="st134" d="M397,25.5h-5.1v-1.5s1.7-1.9,1.7-1.9c.6-.7,1-1.2,1.3-1.5.2-.3.4-.8.4-1.1s-.1-.7-.3-.9c-.2-.2-.5-.2-.8-.2-.5,0-1.1,0-1.8.1h-.3v-1.4c.7-.2,1.5-.4,2.3-.4,1.7,0,2.5.9,2.5,2.5s-.1,1.2-.4,1.6-.7,1.1-1.4,1.7l-1.4,1.3h3.3c0,0,0,1.7,0,1.7Z"/>
  </g>
  <g>
    <path class="st134" d="M423.7,16.9v8.6h-1.7v-6.6s-1.7,1.2-1.7,1.2l-.8-1.3,2.6-1.9h1.6s0,0,0,0Z"/>
    <path class="st134" d="M431.4,18.6c-.8-.1-1.5-.2-2.1-.2-1.1,0-1.7.7-1.7,2h.3c.5-.3.9-.3,1.3-.3.9,0,1.6.2,2,.7.4.4.7,1.2.7,2.1s-.3,1.6-.8,2.2c-.5.4-1.3.8-2.2.8s-1.7-.4-2.2-1.2c-.5-.8-.7-2-.7-3.4s.3-2.6.9-3.3c.6-.8,1.4-1.1,2.4-1.1s1.3.1,2,.3h.4c0,.1-.3,1.4-.3,1.4ZM428.9,21.6c-.4,0-.8.1-1.2.2h-.2c0,1.6.4,2.4,1.3,2.4s.7-.1.9-.3.3-.5.3-1c.1-.8-.3-1.3-1.1-1.3Z"/>
  </g>
  <g>
    <path class="st134" d="M458.2,25.6h-5.1v-1.6s1.7-1.9,1.7-1.9c.6-.7,1-1.2,1.3-1.5s.4-.8.4-1.1-.1-.7-.3-.9c-.2-.2-.5-.2-.8-.2-.5,0-1.1,0-1.8.1h-.3v-1.4c.7-.2,1.5-.4,2.3-.4,1.7,0,2.5.9,2.5,2.5s-.1,1.2-.4,1.6-.7,1.1-1.4,1.7l-1.4,1.3h3.3s0,1.8,0,1.8Z"/>
    <path class="st134" d="M460.1,17.8c.5-.8,1.3-1.1,2.3-1.1s1.8.3,2.3,1.1.8,1.9.8,3.5-.3,2.7-.8,3.4-1.3,1-2.3,1-1.8-.3-2.3-1-.8-1.9-.8-3.4.3-2.8.8-3.5ZM463.7,21.2c0-1.1-.1-1.9-.3-2.3-.2-.4-.6-.7-1-.7s-.8.2-1.1.7c-.2.4-.3,1.2-.3,2.3s.1,1.9.3,2.3c.2.4.6.7,1.1.7s.8-.2,1-.7c.2-.4.3-1.2.3-2.3Z"/>
  </g>
  <g>
    <path class="st75" d="M492.2,25.9h-5.1v-1.5s1.7-1.9,1.7-1.9c.6-.7,1-1.2,1.3-1.5s.4-.8.4-1.1-.1-.7-.3-.9c-.2-.2-.5-.2-.8-.2-.5,0-1.1,0-1.8.1h-.3v-1.4c.7-.2,1.5-.4,2.3-.4,1.7,0,2.5.9,2.5,2.5s-.1,1.2-.4,1.6-.7,1.1-1.4,1.7l-1.4,1.3h3.3s0,1.7,0,1.7Z"/>
    <path class="st75" d="M496.9,25.9v-1.4s-3.4,0-3.4,0v-1.4s2-5.9,2-5.9h1.8s-2.1,5.7-2.1,5.7h1.7s0-2.4,0-2.4h1.7v2.4s.8,0,.8,0v1.5h-.8s0,1.4,0,1.4h-1.7s0,0,0,0Z"/>
  </g>
  <g>
    <path class="st75" d="M526.9,25.9h-5.1v-1.5s1.7-1.9,1.7-1.9c.6-.7,1-1.2,1.3-1.5s.4-.8.4-1.1-.1-.7-.3-.9c-.2-.2-.5-.2-.8-.2-.5,0-1.1,0-1.8.1h-.3v-1.4c.7-.2,1.5-.4,2.3-.4,1.7,0,2.5.9,2.5,2.5s-.1,1.2-.4,1.6-.7,1.1-1.4,1.7l-1.4,1.3h3.3s0,1.7,0,1.7Z"/>
    <path class="st75" d="M528.9,17.7c.5-.4,1.2-.7,2.1-.7s1.6.2,2.1.7.8,1,.8,1.7-.1.9-.2,1.1c-.1.2-.3.5-.7.9.4.3.6.7.8.9.2.3.2.7.2,1.2,0,.9-.3,1.5-.8,1.9-.5.3-1.3.7-2.2.7-2,0-3-.8-3-2.4s.1-1,.2-1.3.4-.7.8-1c-.3-.3-.6-.5-.7-.9s-.2-.7-.2-1.1c0-.7.3-1.3.8-1.7ZM529.8,23.3c0,.8.4,1.2,1.2,1.2s1.2-.4,1.2-1.2-.2-.8-.7-1h-1.1c-.4.2-.6.5-.6,1ZM531,18.7c-.4,0-.6.1-.8.2-.2.1-.3.4-.3.8s.2.7.6,1h1.1c.4-.3.6-.7.6-1-.1-.7-.4-1-1.2-1Z"/>
  </g>
  <g>
    <path class="st75" d="M555.1,17.4c.7-.3,1.6-.4,2.5-.4s1.6.2,2,.5.6,1,.6,1.9-.3,1.5-.9,2c.4.2.7.4.8.7.1.2.2.7.2,1.2,0,1-.2,1.6-.6,2.1s-1.1.7-2.1.7-1.4-.1-2.2-.3h-.4c0-.1.1-1.5.1-1.5.9.2,1.6.2,2.3.2s1.2-.4,1.2-1.2-.1-.5-.3-.8c-.2-.2-.5-.3-.8-.3h-1.6v-1.5h1.6c.3,0,.5-.1.7-.3s.3-.5.3-.8c0-.7-.4-1-1.2-1s-1.1.1-1.8.2h-.3v-1.4Z"/>
    <path class="st75" d="M567,25.7h-5.1v-1.5s1.7-1.9,1.7-1.9c.6-.7,1-1.2,1.3-1.5.2-.3.4-.8.4-1.1s-.1-.7-.3-.9c-.2-.2-.5-.2-.8-.2-.5,0-1.1,0-1.8.1h-.3v-1.4c.7-.2,1.5-.4,2.3-.4,1.7,0,2.5.9,2.5,2.5s-.1,1.2-.4,1.6-.7,1.1-1.4,1.7l-1.4,1.3h3.3s0,1.7,0,1.7Z"/>
  </g>
  <g>
    <path class="st75" d="M589,17.9c.7-.3,1.6-.4,2.5-.4s1.6.2,2,.5.6,1,.6,1.9-.3,1.5-.9,2c.4.2.7.4.8.7.1.2.2.7.2,1.2,0,1-.2,1.6-.6,2.1s-1.1.7-2.1.7-1.4-.1-2.2-.3h-.4c0-.1.1-1.7.1-1.7.9.2,1.6.2,2.3.2s1.2-.4,1.2-1.2-.1-.5-.3-.8c-.2-.2-.5-.3-.8-.3h-1.6v-1.5h1.6c.3,0,.5,0,.7-.3s.3-.5.3-.8c0-.7-.4-1-1.2-1s-1.1,0-1.8.2h-.3v-1.2Z"/>
    <path class="st75" d="M600.9,19.2c-.8,0-1.5-.2-2.1-.2-1.1,0-1.7.7-1.7,2h.3c.5-.3.9-.3,1.3-.3.9,0,1.6.2,2,.7.5.4.7,1.2.7,2.1s-.3,1.6-.8,2.2c-.5.4-1.3.8-2.2.8s-1.7-.4-2.2-1.2-.7-2-.7-3.4.3-2.6.9-3.3c.6-.8,1.4-1.1,2.4-1.1s1.3,0,2,.3h.4c0,0-.3,1.4-.3,1.4ZM598.5,22.3c-.4,0-.8.1-1.2.2h-.2c0,1.6.4,2.4,1.3,2.4s.7-.1.9-.3c.2-.2.3-.5.3-1,0-.9-.4-1.3-1.1-1.3Z"/>
  </g>
  <g>
    <path class="st68" d="M626.6,25.9v-1.4s-3.4,0-3.4,0v-1.4s2-5.9,2-5.9h1.8s-2.1,5.7-2.1,5.7h1.7s0-2.4,0-2.4h1.6v2.4s.8,0,.8,0v1.5h-.8s0,1.4,0,1.4h-1.6s0,.1,0,.1Z"/>
    <path class="st68" d="M630.5,18.2c.5-.8,1.3-1.1,2.3-1.1s1.8.3,2.3,1.1.8,1.9.8,3.5-.3,2.7-.8,3.4c-.5.7-1.3,1-2.3,1s-1.8-.3-2.3-1-.8-1.9-.8-3.4.3-2.8.8-3.5ZM634.2,21.6c0-1.1-.1-1.9-.3-2.3-.2-.4-.6-.7-1-.7s-.8.2-1.1.7c-.2.4-.3,1.2-.3,2.3s.1,1.9.3,2.3c.2.4.6.7,1.1.7s.8-.2,1-.7c.2-.5.3-1.3.3-2.3Z"/>
  </g>
  <g>
    <path class="st68" d="M660.7,25.5v-1.4s-3.3,0-3.3,0v-1.3s2-5.9,2-5.9h1.8s-2.1,5.7-2.1,5.7h1.7s0-2.4,0-2.4h1.6v2.4s.8,0,.8,0v1.5h-.8s0,1.4,0,1.4h-1.7Z"/>
    <path class="st68" d="M667.4,25.5v-1.4s-3.4,0-3.4,0v-1.3s2-5.9,2-5.9h1.8s-2.1,5.7-2.1,5.7h1.7s0-2.4,0-2.4h1.7v2.4s.8,0,.8,0v1.5h-.8s0,1.4,0,1.4h-1.7Z"/>
  </g>
  <line class="st70" x1="323.5" y1="28" x2="323.5" y2="39"/>
  <line class="st70" x1="289.4" y1="2.8" x2="289.4" y2="14"/>
  <line class="st70" x1="289.4" y1="39.4" x2="289.4" y2="28"/>
  <line class="st70" x1="255.5" y1="2.9" x2="255.5" y2="14"/>
  <line class="st70" x1="255.5" y1="39.2" x2="255.5" y2="27.8"/>
  <line class="st70" x1="221.5" y1="3" x2="221.5" y2="14"/>
  <line class="st70" x1="221.5" y1="39.2" x2="221.5" y2="27.8"/>
  <line class="st70" x1="187.4" y1="39" x2="187.4" y2="28"/>
  <line class="st70" x1="187.3" y1="3.2" x2="187.4" y2="14"/>
  <line class="st70" x1="119.4" y1="3.4" x2="119.4" y2="14"/>
  <line class="st70" x1="119.4" y1="38.8" x2="119.4" y2="28"/>
  <line class="st70" x1="84.7" y1="3" x2="84.7" y2="14.1"/>
  <line class="st70" x1="84.7" y1="39.2" x2="84.7" y2="28"/>
  <line class="st70" x1="50.9" y1="2.8" x2="50.9" y2="14"/>
  <line class="st70" x1="51" y1="39" x2="51" y2="28"/>
  <line class="st70" x1="153.4" y1="3" x2="153.4" y2="14"/>
  <line class="st70" x1="153.4" y1="39.4" x2="153.4" y2="27.7"/>
  <line class="st70" x1="357.5" y1="2.8" x2="357.5" y2="14"/>
  <line class="st70" x1="357.6" y1="28" x2="357.6" y2="39"/>
  <line class="st70" x1="391.6" y1="2.8" x2="391.6" y2="14"/>
  <line class="st70" x1="391.6" y1="28" x2="391.6" y2="39"/>
  <line class="st70" x1="425.7" y1="2.4" x2="425.7" y2="14.2"/>
  <line class="st70" x1="425.7" y1="39.1" x2="425.7" y2="27.9"/>
  <line class="st70" x1="459.7" y1="2.4" x2="459.7" y2="14"/>
  <line class="st70" x1="459.7" y1="39.4" x2="459.7" y2="28"/>
  <line class="st70" x1="493.8" y1="3.2" x2="493.8" y2="14.2"/>
  <line class="st70" x1="493.8" y1="39.6" x2="493.8" y2="28"/>
  <line class="st70" x1="527.8" y1="3" x2="527.8" y2="14.2"/>
  <line class="st70" x1="527.8" y1="38.9" x2="527.8" y2="27.9"/>
  <line class="st70" x1="562" y1="14.2" x2="562" y2="2.4"/>
  <line class="st70" x1="561.8" y1="38.9" x2="561.8" y2="27.9"/>
  <line class="st70" x1="595.9" y1="3" x2="595.9" y2="14.2"/>
  <line class="st70" x1="595.9" y1="39.7" x2="595.9" y2="28"/>
  <line class="st70" x1="630" y1="3.2" x2="629.8" y2="14.2"/>
  <line class="st70" x1="629.9" y1="39.7" x2="629.9" y2="28"/>
  <line class="st70" x1="664.1" y1="3.3" x2="664.1" y2="14"/>
  <line class="st70" x1="664.1" y1="28" x2="664.1" y2="39.7"/>
  <line class="st70" x1="33.8" y1="3.2" x2="33.8" y2="40.3"/>
  <path class="st69" d="M2.1,33.3V8.5c0-3.4,3-6.3,6.7-6.3h665.8c3.7,0,6.7,2.8,6.7,6.3v24.8c0,3.4-3,6.3-6.7,6.3H8.8c-3.7,0-6.7-2.8-6.7-6.3Z"/>
</svg>