<?xml version="1.0" encoding="utf-8"?>
<!-- Generator: Adobe Illustrator 28.0.0, SVG Export Plug-In . SVG Version: 6.00 Build 0)  -->
<svg version="1.1" id="Livello_1" xmlns="http://www.w3.org/2000/svg" xmlns:xlink="http://www.w3.org/1999/xlink" x="0px" y="0px"
	  width="40.8px" height="725.2px" viewBox="0 0 40.8 725.2" style="enable-background:new 0 0 43.8 725.2;" xml:space="preserve">
<style type="text/css">
	.st0{fill:#39322E;}
	.st1{fill:none;}
	.st2{fill:none;stroke:#3C3430;stroke-width:2;stroke-miterlimit:9.7722;}
	.st3{fill:#3B3330;}
	.st4{font-family:'TitilliumWeb-Bold';}
	.st5{font-size:12px;}
	.st6{fill:#FFFFFF;}
	.st7{fill:#3C3530;}
	.st8{font-family:'TitilliumWeb-Regular';}
	.st9{fill:none;stroke:#3C3430;stroke-miterlimit:9.7722;}
	.st10{font-family:'TitilliumWeb-SemiBold';}
	.st11{fill:#3A3A2C;}
	.st12{clip-path:url(#SVGID_00000108283528948853987920000005084160871915151268_);fill:#FAFDF9;}
	.st13{clip-path:url(#SVGID_00000075864960354647804150000018140495697070044345_);fill:#D6EED4;}
	.st14{clip-path:url(#SVGID_00000102542977937012440870000012288110539771321017_);fill:#C4E6C0;}
	.st15{clip-path:url(#SVGID_00000062879477288137473880000014498046458883274135_);fill:#ECF7EA;}
	.st16{clip-path:url(#SVGID_00000065779168973749190820000005697842943354526336_);fill:#B0DEAB;}
	.st17{clip-path:url(#SVGID_00000160870349031806238060000016797520676573550226_);fill:#9DD797;}
	.st18{fill:#3C3430;}
	.st19{fill:#FFFFFF;stroke:#FFFFFF;stroke-width:0.4886;stroke-miterlimit:9.7722;}
	.st20{fill:none;stroke:#FFFFFF;stroke-width:0.9772;stroke-miterlimit:9.7722;}
</style>
<circle class="st0" cx="21.9" cy="21.7" r="19.8"/>
<rect x="8.5" y="680" class="st1" width="15.4" height="11.8"/>
<path class="st2" d="M34,723.7H9.5c-3.4,0-6.2-2.8-6.2-6.2V51.1c0-3.4,2.8-6.2,6.2-6.2H34c3.4,0,6.2,2.8,6.2,6.2v666.5
	C40.2,720.9,37.5,723.7,34,723.7z"/>
<rect x="16.9" y="672.3" class="st1" width="8.8" height="12.5"/>
<text transform="matrix(1 0 0 1 17.9115 680.6754)" class="st3 st4 st5">1</text>
<rect x="17.3" y="631.8" class="st1" width="9.1" height="12.5"/>
<text transform="matrix(1 0 0 1 18.4308 640.1567)" class="st3 st4 st5">2</text>
<rect x="15.2" y="377.9" class="st1" width="13.7" height="12.5"/>
<text transform="matrix(1 0 0 1 15.3032 386.2565)" class="st6 st4 st5">20</text>
<rect x="14.2" y="334.4" class="st1" width="14.6" height="12.5"/>
<text transform="matrix(1 0 0 1 14.7603 342.9689)" class="st7 st8 st5">25</text>
<rect x="15.1" y="252" class="st1" width="13.7" height="10.4"/>
<text transform="matrix(1 0 0 1 15.2218 260.4408)" class="st6 st4 st5">40</text>
<rect x="14.7" y="207.9" class="st1" width="13.8" height="12.5"/>
<text transform="matrix(1 0 0 1 14.8458 216.2528)" class="st6 st4 st5">50</text>
<rect x="12.3" y="167.1" class="st1" width="18.9" height="10.4"/>
<text transform="matrix(1 0 0 1 15.0583 175.5371)" class="st6 st4 st5">75</text>
<line class="st9" x1="3.6" y1="678.5" x2="16.6" y2="678.5"/>
<line class="st9" x1="39.3" y1="678.5" x2="25.7" y2="678.5"/>
<line class="st9" x1="3.1" y1="637.6" x2="16.9" y2="637.6"/>
<line class="st9" x1="39.3" y1="638" x2="25.9" y2="638"/>
<line class="st9" x1="3.8" y1="384" x2="16.4" y2="384"/>
<line class="st9" x1="40.4" y1="384.1" x2="29.3" y2="384.1"/>
<line class="st9" x1="4.2" y1="340.6" x2="15" y2="340.6"/>
<line class="st9" x1="40" y1="340.6" x2="29" y2="340.6"/>
<line class="st9" x1="15.7" y1="257.1" x2="3.2" y2="257.1"/>
<line class="st9" x1="39.7" y1="257.3" x2="28.7" y2="257.3"/>
<line class="st9" x1="3.3" y1="214.5" x2="15.2" y2="214.5"/>
<line class="st9" x1="39.9" y1="214.5" x2="28.7" y2="214.5"/>
<line class="st9" x1="4.3" y1="172.4" x2="12.3" y2="172.4"/>
<line class="st9" x1="31.2" y1="172.4" x2="39.2" y2="172.4"/>
<g>
	<path class="st6" d="M36.8,22.7v-0.1c0-7.5-6.2-13.7-13.9-14.1V7.2c0-0.3-0.3-0.7-0.8-0.7c-0.5,0-0.8,0.3-0.8,0.7v1.3
		C13.5,8.8,7.4,15.1,7.4,22.6c0,0.3,0.3,0.7,0.8,0.7c0.2,0,0.3-0.1,0.6-0.2c2.5-2.3,5.8-2.3,8.2,0c0.1,0.1,0.3,0.2,0.6,0.2
		c0.2,0,0.3-0.1,0.5-0.2c1-0.9,2.2-1.5,3.4-1.6v9.8c0,1.9,1.7,3.7,3.8,3.7s3.8-1.6,3.8-3.7c0-0.3-0.3-0.7-0.8-0.7
		c-0.5,0-0.8,0.3-0.8,0.7c0,1.1-1,2.2-2.3,2.2c-1.3,0-2.3-1-2.3-2.2v-9.8c1.1,0.1,2.4,0.7,3.4,1.6c0.2,0.2,0.8,0.2,1,0
		c2.5-2.3,5.8-2.3,8.3,0c0.2,0.2,0.7,0.2,0.9,0.1C36.7,23,36.8,22.9,36.8,22.7z M26.1,21.2c-1.3-0.8-2.6-1.3-4-1.3H22h-0.1
		c-1.4,0-2.7,0.5-4,1.3c-0.3-4.9,0.9-8.8,2.5-10.5c1-1.1,2.1-1.1,3.2,0C25.2,12.4,26.5,16.2,26.1,21.2z M9,21
		c0.7-5.4,4.8-9.6,10-10.8c-1.5,1.9-2.9,5.7-2.5,10.8C14.2,19.6,11.4,19.6,9,21z M27.7,21c0.3-5.1-1-8.9-2.5-10.8
		c5.4,1.3,9.4,5.5,10,10.8C32.8,19.6,30.1,19.6,27.7,21z"/>
</g>
<rect x="16.7" y="589.2" class="st1" width="9.1" height="12.5"/>
<text transform="matrix(1 0 0 1 17.8438 597.643)" class="st3 st4 st5">4</text>
<line class="st9" x1="3.1" y1="595.2" x2="16.9" y2="595.2"/>
<line class="st9" x1="39.5" y1="595.2" x2="26.1" y2="595.2"/>
<rect x="17.8" y="548.4" class="st1" width="9.1" height="12.5"/>
<text transform="matrix(1 0 0 1 18.9256 556.8773)" class="st3 st10 st5">6</text>
<line class="st9" x1="3.6" y1="553.9" x2="17.4" y2="553.9"/>
<line class="st9" x1="40" y1="553.9" x2="26.6" y2="553.9"/>
<rect x="17.6" y="505.3" class="st1" width="9.1" height="12.5"/>
<text transform="matrix(1 0 0 1 18.7327 513.6559)" class="st6 st4 st5">8</text>
<line class="st9" x1="4.1" y1="511.2" x2="17.9" y2="511.2"/>
<line class="st9" x1="39.9" y1="511.2" x2="26.5" y2="511.2"/>
<rect x="13.9" y="463.1" class="st1" width="14.8" height="12.5"/>
<text transform="matrix(1 0 0 1 14.5819 471.5406)" class="st6 st4 st5">10</text>
<line class="st9" x1="2.9" y1="468.4" x2="15.3" y2="468.4"/>
<line class="st9" x1="39.3" y1="468.4" x2="28.7" y2="468.4"/>
<rect x="13.9" y="421.4" class="st1" width="14.8" height="12.5"/>
<text transform="matrix(1 0 0 1 14.5819 429.7609)" class="st6 st4 st5">15</text>
<line class="st9" x1="3.4" y1="426.7" x2="15.8" y2="426.7"/>
<line class="st9" x1="39.8" y1="426.7" x2="29.2" y2="426.7"/>
<rect x="14.4" y="293.2" class="st1" width="14.6" height="12.5"/>
<text transform="matrix(1 0 0 1 14.9411 301.7776)" class="st6 st8 st5">30</text>
<line class="st9" x1="4.4" y1="299.4" x2="15.1" y2="299.4"/>
<line class="st9" x1="40.2" y1="299.4" x2="29.2" y2="299.4"/>
<rect x="8.5" y="711.2" class="st1" width="27.6" height="12.5"/>
<text transform="matrix(1 0 0 1 12.2529 719.6284)" class="st3 st4 st5">mm</text>
<path class="st11" d="M39.4,87.8H4.8c-0.3,0-0.6-0.3-0.6-0.6V48.1c0-1.5,1.2-2.7,2.7-2.7h28.8c2.3,0,4.2,1.9,4.2,4.2v37.7
	C40,87.5,39.7,87.8,39.4,87.8z"/>
<rect x="10.7" y="125.7" class="st1" width="21.5" height="10.4"/>
<text transform="matrix(1 0 0 1 11.3759 134.1206)" class="st6 st4 st5">100</text>
<line class="st9" x1="4.5" y1="130.1" x2="12.5" y2="130.1"/>
<line class="st9" x1="32.2" y1="130.2" x2="40.2" y2="130.2"/>
<rect x="5.2" y="81" class="st1" width="31.2" height="10.4"/>
<text transform="matrix(1 0 0 1 7.3145 89.4393)" class="st6 st4 st5">&gt;200</text>
<line class="st9" x1="2.8" y1="87.3" x2="8.3" y2="87.3"/>
<line class="st9" x1="34.8" y1="87.2" x2="39.4" y2="87.2"/>
<g>
	<g>
		<g>
			<g>
				<g>
					<g>
						<g>
							<defs>
								<path id="SVGID_1_" d="M40.1,719.9c-0.6,4.2-9.5,3.7-17.9,3.7l0,0c-8.2,0.4-19.6-0.7-19.6-5.8V51.6
									c1.8-6.1,11.7-9.5,18.3-9.5l0,0c7.7,0,17.8,3.7,19.8,9.8v662.6L40.1,719.9z"/>
							</defs>
							<clipPath id="SVGID_00000036227869142309657210000002883995494454436513_">
								<use xlink:href="#SVGID_1_"  style="overflow:visible;"/>
							</clipPath>
							
								<rect x="-6.5" y="609.2" style="clip-path:url(#SVGID_00000036227869142309657210000002883995494454436513_);fill:#FAFDF9;" width="56.7" height="121.6"/>
						</g>
					</g>
				</g>
			</g>
		</g>
		<g>
			<g>
				<g>
					<g>
						<g>
							<defs>
								<path id="SVGID_00000162322025658977097830000009540191915327525782_" d="M40.7,718.4c-0.6,4.2-10.1,5.2-18.5,5.2l0,0
									c-8.2,0.4-19,0-19-5.1L2.6,51.6c1.8-6.1,11.7-9.5,18.3-9.5l0,0c7.7,0,17.8,3.7,19.8,9.8v662.6V718.4z"/>
							</defs>
							<clipPath id="SVGID_00000100351939956101382150000017758624286611965373_">
								<use xlink:href="#SVGID_00000162322025658977097830000009540191915327525782_"  style="overflow:visible;"/>
							</clipPath>
							
								<rect x="-6.1" y="387.4" style="clip-path:url(#SVGID_00000100351939956101382150000017758624286611965373_);fill:#D6EED4;" width="56.7" height="110.9"/>
						</g>
					</g>
				</g>
			</g>
		</g>
		<g>
			<g>
				<g>
					<g>
						<g>
							<defs>
								<path id="SVGID_00000176029813896308939760000008971135338688834458_" d="M40.7,718.4c-0.6,4.2-10.1,5.2-18.5,5.2l0,0
									c-8.2,0.4-19-0.8-19-5.9L2.6,51.6c1.8-6.1,11.7-9.5,18.3-9.5l0,0c7.7,0,17.8,3.7,19.8,9.8v662.6V718.4z"/>
							</defs>
							<clipPath id="SVGID_00000158749795310389951730000001547869536371272583_">
								<use xlink:href="#SVGID_00000176029813896308939760000008971135338688834458_"  style="overflow:visible;"/>
							</clipPath>
							
								<rect x="-6.1" y="276.5" style="clip-path:url(#SVGID_00000158749795310389951730000001547869536371272583_);fill:#C4E6C0;" width="56.7" height="110.9"/>
						</g>
					</g>
				</g>
			</g>
		</g>
		<g>
			<g>
				<g>
					<g>
						<g>
							<defs>
								<path id="SVGID_00000044157367695215374370000002790002424714162051_" d="M40.7,718.9c-0.6,4.2-10.1,4.8-18.5,4.8l0,0
									c-8.2,0.4-19-0.8-19-5.9L2.6,51.6c1.8-6.1,11.7-9.5,18.3-9.5l0,0c7.7,0,17.8,3.7,19.8,9.8v662.6V718.9z"/>
							</defs>
							<clipPath id="SVGID_00000003826781980506481420000004282891823396518533_">
								<use xlink:href="#SVGID_00000044157367695215374370000002790002424714162051_"  style="overflow:visible;"/>
							</clipPath>
							
								<rect x="-6.7" y="498.3" style="clip-path:url(#SVGID_00000003826781980506481420000004282891823396518533_);fill:#ECF7EA;" width="56.7" height="110.9"/>
						</g>
					</g>
				</g>
			</g>
		</g>
		<g>
			<g>
				<g>
					<g>
						<g>
							<defs>
								<path id="SVGID_00000053541620287518025900000010930296710216352430_" d="M40.7,719.3c-0.6,4.2-10.1,4.3-18.5,4.3l0,0
									c-8.2,0.4-18.5-0.1-18.5-5.2L2.6,51.6c1.8-6.1,11.7-9.5,18.3-9.5l0,0c7.7,0,17.8,3.7,19.8,9.8v662.6V719.3z"/>
							</defs>
							<clipPath id="SVGID_00000129179922205449585560000000027267337249571740_">
								<use xlink:href="#SVGID_00000053541620287518025900000010930296710216352430_"  style="overflow:visible;"/>
							</clipPath>
							
								<rect x="-6.1" y="165.6" style="clip-path:url(#SVGID_00000129179922205449585560000000027267337249571740_);fill:#B0DEAB;" width="56.7" height="110.9"/>
						</g>
					</g>
				</g>
			</g>
		</g>
		<g>
			<g>
				<g>
					<g>
						<g>
							<defs>
								<path id="SVGID_00000026137330168326518130000014265263603967255211_" d="M40.1,720.4c-0.6,4.2-9.5,3.3-17.9,3.3l0,0
									c-8.2,0.4-19.6-0.7-19.6-5.8V51.6c1.8-6.1,6.3-7.8,12.8-7.8l10.4-0.3c7.7,0,12.9,2.3,14.8,8.5L40.1,720.4L40.1,720.4z"/>
							</defs>
							<clipPath id="SVGID_00000020375487507719805690000009434110450057019550_">
								<use xlink:href="#SVGID_00000026137330168326518130000014265263603967255211_"  style="overflow:visible;"/>
							</clipPath>
							
								<rect x="-6.1" y="43.4" style="clip-path:url(#SVGID_00000020375487507719805690000009434110450057019550_);fill:#9DD797;" width="56.7" height="121.9"/>
						</g>
					</g>
				</g>
			</g>
		</g>
	</g>
</g>
<ellipse class="st0" cx="21.9" cy="21.7" rx="19.8" ry="20.3"/>
<rect x="8.4" y="678.7" class="st1" width="15.4" height="12.1"/>
<path class="st2" d="M33.9,723.6H9.4c-3.4,0-6.2-3-6.2-6.7V51.2c0-3.7,2.8-6.7,6.2-6.7h24.5c3.4,0,6.2,3,6.2,6.7v665.8
	C40.1,720.6,37.3,723.6,33.9,723.6z"/>
<g>
	<path class="st7" d="M16.1,46.7v8.1h-1.7v-6.2l-1.7,1.1l-0.8-1.2l2.6-1.7L16.1,46.7L16.1,46.7z"/>
	<path class="st7" d="M18.8,47.5c0.5-0.7,1.3-1,2.3-1s1.8,0.3,2.3,1s0.8,1.7,0.8,3.3c0,1.5-0.3,2.6-0.8,3.2
		c-0.5,0.6-1.3,0.9-2.3,0.9s-1.8-0.3-2.3-0.9c-0.5-0.6-0.8-1.7-0.8-3.2C18,49.4,18.3,48.3,18.8,47.5z M22.5,50.7
		c0-1-0.1-1.7-0.3-2.2c-0.2-0.4-0.6-0.6-1-0.6c-0.5,0-0.8,0.2-1.1,0.6c-0.2,0.4-0.3,1.1-0.3,2.2s0.1,1.7,0.3,2.2
		c0.2,0.4,0.6,0.6,1.1,0.6s0.8-0.2,1-0.6C22.4,52.5,22.5,51.7,22.5,50.7z"/>
	<path class="st7" d="M25.6,47.5c0.5-0.7,1.3-1,2.3-1s1.8,0.3,2.3,1s0.8,1.7,0.8,3.3c0,1.5-0.3,2.6-0.8,3.2
		c-0.5,0.6-1.3,0.9-2.3,0.9s-1.8-0.3-2.3-0.9c-0.5-0.6-0.8-1.7-0.8-3.2C24.8,49.4,25,48.3,25.6,47.5z M29.2,50.7
		c0-1-0.1-1.7-0.3-2.2c-0.2-0.4-0.6-0.6-1-0.6c-0.5,0-0.8,0.2-1.1,0.6c-0.2,0.4-0.3,1.1-0.3,2.2s0.1,1.7,0.3,2.2
		c0.2,0.4,0.6,0.6,1.1,0.6s0.8-0.2,1-0.6C29.1,52.5,29.2,51.7,29.2,50.7z"/>
</g>
<g>
	<path class="st18" d="M16.7,384.2v-1.5h5.1v2l-2.8,6.4l-1.5-0.4l2.7-6v-0.4H16.7z"/>
	<path class="st18" d="M23.6,383.6c0.5-0.7,1.3-1,2.3-1s1.8,0.3,2.3,1c0.5,0.7,0.8,1.7,0.8,3.3c0,1.5-0.3,2.6-0.8,3.2
		c-0.5,0.6-1.3,0.9-2.3,0.9s-1.8-0.3-2.3-0.9c-0.5-0.6-0.8-1.7-0.8-3.2S23.1,384.2,23.6,383.6z M27.3,386.7c0-1-0.1-1.7-0.3-2.2
		c-0.2-0.4-0.6-0.6-1-0.6c-0.5,0-0.8,0.2-1.1,0.6c-0.2,0.4-0.3,1.1-0.3,2.2c0,1,0.1,1.7,0.3,2.2c0.2,0.4,0.6,0.6,1.1,0.6
		s0.8-0.2,1-0.6S27.3,387.8,27.3,386.7z"/>
</g>
<line class="st9" x1="4.1" y1="386.7" x2="16.4" y2="386.7"/>
<line class="st9" x1="40.5" y1="386.7" x2="29.9" y2="386.7"/>
<g>
	<path class="st18" d="M17.9,168.6c1.1,0,1.6-0.6,1.6-2l-0.3,0.1c-0.6,0.2-1,0.3-1.3,0.3c-0.9,0-1.5-0.2-2-0.6
		c-0.5-0.4-0.7-1.1-0.7-2c0-0.8,0.3-1.5,0.8-2.1c0.5-0.5,1.3-0.7,2.2-0.7c1,0,1.7,0.4,2.2,1.1s0.8,1.8,0.8,3.3s-0.3,2.5-0.8,3.1
		c-0.6,0.6-1.4,0.9-2.5,0.9c-0.6,0-1.3-0.1-2-0.3l-0.4-0.1l0.1-1.3C16.5,168.5,17.2,168.6,17.9,168.6z M18.1,165.5
		c0.4,0,0.8-0.1,1.2-0.2l0.2-0.1c0-1.4-0.4-2.1-1.3-2.1c-0.4,0-0.7,0.1-0.9,0.3S17,164,17,164.4C16.9,165.1,17.3,165.5,18.1,165.5z"
		/>
	<path class="st18" d="M22.7,162.7c0.5-0.7,1.3-1,2.3-1s1.8,0.3,2.3,1s0.8,1.7,0.8,3.3c0,1.5-0.3,2.6-0.8,3.2
		c-0.5,0.6-1.3,0.9-2.3,0.9s-1.8-0.3-2.3-0.9c-0.5-0.6-0.8-1.7-0.8-3.2S22.2,163.4,22.7,162.7z M26.4,165.8c0-1-0.1-1.7-0.3-2.2
		c-0.2-0.4-0.6-0.6-1-0.6c-0.5,0-0.8,0.2-1.1,0.6c-0.2,0.4-0.3,1.1-0.3,2.2c0,1,0.1,1.7,0.3,2.2c0.2,0.4,0.6,0.6,1.1,0.6
		s0.8-0.2,1-0.6C26.3,167.6,26.4,166.9,26.4,165.8z"/>
</g>
<line class="st9" x1="3.4" y1="165.9" x2="14.4" y2="165.9"/>
<line class="st9" x1="39.8" y1="165.9" x2="29.2" y2="165.9"/>
<g>
	<path class="st3" d="M19.9,712.1c0.5-0.7,1.3-1,2.3-1s1.8,0.3,2.3,1s0.8,1.7,0.8,3.3s-0.3,2.6-0.8,3.2c-0.5,0.6-1.3,0.9-2.3,0.9
		s-1.8-0.3-2.3-0.9c-0.5-0.6-0.8-1.7-0.8-3.2C19.1,714,19.4,712.9,19.9,712.1z M23.6,715.4c0-1-0.1-1.7-0.3-2.2
		c-0.2-0.4-0.6-0.6-1-0.6s-0.8,0.2-1.1,0.6c-0.2,0.4-0.3,1.1-0.3,2.2s0.1,1.7,0.3,2.2c0.2,0.4,0.6,0.6,1.1,0.6s0.8-0.2,1-0.6
		C23.5,717.2,23.6,716.5,23.6,715.4z"/>
</g>
<g>
	<path class="st3" d="M21.1,496.2c-0.8-0.1-1.5-0.2-2.1-0.2c-1.1,0-1.7,0.6-1.7,1.8l0.3-0.1c0.5-0.2,0.9-0.2,1.3-0.2
		c0.9,0,1.6,0.2,2,0.6c0.5,0.4,0.7,1.1,0.7,2c0,0.8-0.3,1.5-0.8,2.1c-0.5,0.4-1.3,0.7-2.2,0.7s-1.7-0.4-2.2-1.1
		c-0.5-0.7-0.7-1.8-0.7-3.2s0.3-2.5,0.9-3.1c0.6-0.7,1.4-1,2.4-1c0.6,0,1.3,0.1,2,0.3l0.4,0.1L21.1,496.2z M18.7,499.1
		c-0.4,0-0.8,0.1-1.2,0.2l-0.2,0.1c0,1.4,0.4,2.2,1.3,2.2c0.4,0,0.7-0.1,0.9-0.3c0.2-0.2,0.3-0.5,0.3-0.9
		C19.8,499.5,19.4,499.1,18.7,499.1z"/>
	<path class="st3" d="M23,495.6c0.5-0.7,1.3-1,2.3-1s1.8,0.3,2.3,1c0.5,0.7,0.8,1.7,0.8,3.3s-0.3,2.6-0.8,3.2
		c-0.5,0.6-1.3,0.9-2.3,0.9s-1.8-0.3-2.3-0.9c-0.5-0.6-0.8-1.7-0.8-3.2S22.4,496.3,23,495.6z M26.6,498.7c0-1-0.1-1.7-0.3-2.2
		c-0.2-0.4-0.6-0.6-1-0.6s-0.8,0.2-1.1,0.6c-0.2,0.4-0.3,1.1-0.3,2.2c0,1,0.1,1.7,0.3,2.2s0.6,0.6,1.1,0.6s0.8-0.2,1-0.6
		S26.6,499.8,26.6,498.7z"/>
</g>
<line class="st9" x1="3.1" y1="499.7" x2="14.5" y2="499.7"/>
<line class="st9" x1="39.5" y1="499.7" x2="28.9" y2="499.7"/>
<g>
	<path class="st6" d="M13.3,30.6h17.1c3.6,0,6.6-2.3,7.3-5.3c0.4-2.1-0.1-4-1.5-5.5c-1.2-1.2-2.9-2.2-4.7-2.4v-1.5
		c0-5.3-5.3-9.5-10.9-8.8c-4.8,0.5-8.6,4.4-8.6,9.2v1.1c-1.5,0.1-3,0.9-4.1,1.8c-1.7,1.5-2.3,3.7-2.1,5.8
		C6.4,28.1,9.9,30.6,13.3,30.6z M9.3,20.5c1-0.9,2.3-1.4,3.7-1.4c0.6,0,1-0.4,1-0.9v-2.1c0-3.9,3.5-7.4,7.9-7.4
		c4.3,0,7.9,3.3,7.9,7.2v2.3c0,0.5,0.4,0.9,1,0.9c1.7,0,3.2,0.6,4.1,1.7c1,1.1,1.4,2.7,1.1,4.2c-0.6,2.3-2.8,3.9-5.5,3.9H13.3
		c-2.5,0-5.1-1.8-5.5-4C7.5,23.2,8.1,21.6,9.3,20.5z"/>
</g>
<g>
	<path class="st6" d="M25.4,31.3v7.3h-1.6v-3.2h-4.1v3.2h-1.6v-7.3h1.6v3.1h4.1v-3.1C23.9,31.3,25.4,31.3,25.4,31.3z"/>
</g>
<g>
	<path class="st3" d="M20.8,610.8v1.4h-3.5l-0.2,1.7c0.5-0.2,1-0.3,1.4-0.3c1.7,0,2.6,0.8,2.6,2.5c0,0.9-0.2,1.6-0.7,2.2
		s-1.1,0.7-2,0.7c-0.4,0-0.8,0-1.3-0.1c-0.5-0.1-0.8-0.1-1.1-0.2l-0.4-0.1l0.2-1.2c1,0.2,1.8,0.2,2.4,0.2c0.4,0,0.7-0.1,0.9-0.3
		c0.2-0.2,0.3-0.5,0.3-0.9c0-0.4-0.1-0.7-0.3-0.8c-0.2-0.1-0.4-0.3-0.7-0.3c-0.5,0-1,0.1-1.4,0.2h-0.2l-1-0.2l0.2-4.4L20.8,610.8
		L20.8,610.8z"/>
	<path class="st3" d="M22.7,611.7c0.5-0.7,1.3-1,2.3-1s1.8,0.3,2.3,1s0.8,1.7,0.8,3.3s-0.3,2.6-0.8,3.2s-1.3,0.9-2.3,0.9
		s-1.8-0.3-2.3-0.9s-0.8-1.7-0.8-3.2C21.9,613.5,22.2,612.3,22.7,611.7z M26.4,614.9c0-1-0.1-1.7-0.3-2.2c-0.2-0.4-0.6-0.6-1-0.6
		c-0.5,0-0.8,0.2-1.1,0.6c-0.2,0.4-0.3,1.1-0.3,2.2s0.1,1.7,0.3,2.2c0.2,0.4,0.6,0.6,1.1,0.6s0.8-0.2,1-0.6
		C26.3,616.6,26.4,615.9,26.4,614.9z"/>
</g>
<line class="st9" x1="2.9" y1="615.7" x2="14.3" y2="615.7"/>
<line class="st9" x1="39.2" y1="615.7" x2="28.7" y2="615.7"/>
<g>
	<path class="st18" d="M16.5,271.5c0.5-0.4,1.2-0.6,2.1-0.6s1.6,0.2,2.1,0.6s0.8,0.9,0.8,1.6c0,0.5-0.1,0.8-0.2,1
		c-0.1,0.2-0.3,0.5-0.7,0.8c0.4,0.3,0.6,0.6,0.8,0.8c0.2,0.3,0.2,0.6,0.2,1.1c0,0.8-0.3,1.4-0.8,1.7c-0.5,0.3-1.3,0.6-2.2,0.6
		c-2,0-3-0.7-3-2.3c0-0.5,0.1-0.9,0.2-1.2c0.1-0.3,0.4-0.6,0.8-0.9c-0.3-0.3-0.6-0.5-0.7-0.8c-0.1-0.3-0.2-0.6-0.2-1
		C15.8,272.4,16,271.9,16.5,271.5z M17.4,276.7c0,0.7,0.4,1.1,1.2,1.1s1.2-0.4,1.2-1.1c0-0.4-0.2-0.7-0.7-0.9H18
		C17.6,276,17.4,276.3,17.4,276.7z M18.7,272.5c-0.4,0-0.6,0.1-0.8,0.2c-0.2,0.1-0.3,0.4-0.3,0.7c0,0.3,0.2,0.6,0.6,0.9h1.1
		c0.4-0.3,0.6-0.6,0.6-0.9C19.8,272.8,19.4,272.5,18.7,272.5z"/>
	<path class="st18" d="M23.1,272c0.5-0.7,1.3-1,2.3-1s1.8,0.3,2.3,1c0.5,0.7,0.8,1.7,0.8,3.3c0,1.5-0.3,2.6-0.8,3.2
		c-0.5,0.6-1.3,0.9-2.3,0.9s-1.8-0.3-2.3-0.9c-0.5-0.6-0.8-1.7-0.8-3.2S22.6,272.6,23.1,272z M26.7,275.2c0-1-0.1-1.7-0.3-2.2
		c-0.2-0.4-0.6-0.6-1-0.6s-0.8,0.2-1.1,0.6c-0.2,0.4-0.3,1.1-0.3,2.2c0,1,0.1,1.7,0.3,2.2s0.6,0.6,1.1,0.6s0.8-0.2,1-0.6
		S26.7,276.2,26.7,275.2z"/>
</g>
<line class="st9" x1="3" y1="276" x2="14" y2="276"/>
<line class="st9" x1="39.4" y1="276" x2="28.8" y2="276"/>
</svg>
