<?xml version="1.0" encoding="utf-8"?>
<!-- Generator: Adobe Illustrator 27.7.0, SVG Export Plug-In . SVG Version: 6.00 Build 0)  -->
<svg version="1.1" id="Livello_1" xmlns="http://www.w3.org/2000/svg" xmlns:xlink="http://www.w3.org/1999/xlink" x="0px" y="0px"
	width="38px" height="644px" viewBox="0 0 37.2 644.1" style="enable-background:new 0 0 37.2 644.1;" xml:space="preserve">
<style type="text/css">
	.st0{display:none;}
	.st1{display:inline;}
	.st2{clip-path:url(#SVGID_00000181058909473794833160000003048984137598769052_);fill:#C8E8F0;}
	.st3{clip-path:url(#SVGID_00000180365059278561470050000005971001437637661062_);fill:#D0EBF7;}
	.st4{clip-path:url(#SVGID_00000098925365967921895490000006420921418281944742_);fill:#4898DA;}
	.st5{clip-path:url(#SVGID_00000163039183977386482160000015686689476150627211_);fill:#A3A5D7;}
	.st6{clip-path:url(#SVGID_00000103954705853031562160000010927690696678892974_);fill:#B988C1;}
	.st7{clip-path:url(#SVGID_00000014626496972722023460000010157974102956588957_);fill:#D7A2CD;}
	.st8{clip-path:url(#SVGID_00000044897458869583840790000012666602403899900045_);fill:#E8BEDB;}
	.st9{clip-path:url(#SVGID_00000056389801698491459020000004796573745280089004_);fill:#E67D9B;}
	.st10{clip-path:url(#SVGID_00000056411843437926758640000008502737277624677790_);fill:#DB4C4D;}
	.st11{clip-path:url(#SVGID_00000119104290557118701760000015437600193578556299_);fill:#EF5A5C;}
	.st12{clip-path:url(#SVGID_00000067202415552487510990000009635308752079303839_);fill:#F7A25C;}
	.st13{clip-path:url(#SVGID_00000114046837061537170430000015577566712505295272_);fill:#FDD58F;}
	.st14{clip-path:url(#SVGID_00000120553358296746715360000017734021889551425681_);fill:#FFE173;}
	.st15{clip-path:url(#SVGID_00000147938762548022327920000016075155159071132840_);fill:#FEFE82;}
	.st16{clip-path:url(#SVGID_00000073688232620150247420000012390241138315464325_);fill:#FFFFC7;}
	.st17{clip-path:url(#SVGID_00000131369140937480476120000001853413329371087232_);fill:#F3F3A1;}
	.st18{clip-path:url(#SVGID_00000013873363868441905910000000126521734014701975_);fill:#D3ECA4;}
	.st19{clip-path:url(#SVGID_00000082338314865095274950000014766180770490368921_);fill:#C3E6D8;}
	.st20{clip-path:url(#SVGID_00000167366710593777695550000002753905772853911198_);fill:#C8E8F0;}
	.st21{clip-path:url(#SVGID_00000103951635572729151680000000721194286300588933_);fill:#D0EBF7;}
	.st22{clip-path:url(#SVGID_00000129164650972167878990000014211865377963388038_);fill:#EC2426;}
	.st23{clip-path:url(#SVGID_00000011736067977141644780000004842291023532977584_);fill:#FCFC1E;}
	.st24{clip-path:url(#SVGID_00000051368518661355488380000006233771134194845093_);fill:#0B7F3F;}
	.st25{clip-path:url(#SVGID_00000099660654706960574400000013443228196234645125_);fill:#F7A426;}
	.st26{clip-path:url(#SVGID_00000123420911922748321290000012390586539518986658_);fill:#6FC9DC;}
	.st27{clip-path:url(#SVGID_00000021091082730058654060000009329947570597475462_);fill:#3F57B0;}
	.st28{fill:#39322E;}
	.st29{fill:none;stroke:#3C3430;stroke-width:2.9317;stroke-miterlimit:9.7722;}
	.st30{fill:#FFFFFF;}
	.st31{fill:none;}
	.st32{clip-path:url(#SVGID_00000111184026794336956210000011306528002689694343_);fill:#FFFAFA;}
	.st33{clip-path:url(#SVGID_00000165956546611025215340000008551121965068378285_);fill:#FBD5D6;}
	.st34{clip-path:url(#SVGID_00000124870616332838249120000016288409299578314890_);fill:#F9C1C2;}
	.st35{clip-path:url(#SVGID_00000039833099111815679620000001412921084142914475_);fill:#FDEBEB;}
	.st36{clip-path:url(#SVGID_00000121276019790905664160000007450540620333968564_);fill:#F6ABAD;}
	.st37{clip-path:url(#SVGID_00000031197987096612974010000008353840612900537770_);fill:#F49799;}
	.st38{clip-path:url(#SVGID_00000112623243012225360700000003649020205430086830_);fill:#FAFDF9;}
	.st39{clip-path:url(#SVGID_00000145747651588362024580000010039973010256024747_);fill:#D6EED4;}
	.st40{clip-path:url(#SVGID_00000023965232006684879270000002805305670183474085_);fill:#C4E6C0;}
	.st41{clip-path:url(#SVGID_00000129189209122250974180000001868747711931030938_);fill:#ECF7EA;}
	.st42{clip-path:url(#SVGID_00000061464347126149298690000009731667707018511039_);fill:#B0DEAB;}
	.st43{clip-path:url(#SVGID_00000090255248479666199130000015675528337299953805_);fill:#9DD797;}
	.st44{fill:#3C3530;}
</style>
<circle class="st28" cx="18.6" cy="20.6" r="14.6"/>
<path class="st29" d="M30.4,632.2c-0.3,3.7-6.3,8.1-11.6,8.1l0,0c-5.2,0.4-12.2-3.5-12.2-8.1V48.9c1.1-5.3,7.2-8.4,11.5-8.4l0,0
	c4.8,0,11.1,3.2,12.4,8.7L30.4,632.2L30.4,632.2z"/>
<g>
	<path class="st30" d="M12.4,28.5h12.4c2.6,0,4.8-1.8,5.3-4.2c0.3-1.6-0.1-3.2-1.1-4.4c-0.9-1-2.1-1.7-3.4-1.9v-1.2
		c0-4.2-3.8-7.5-7.9-7c-3.5,0.4-6.2,3.5-6.2,7.3V18c-1.1,0.1-2.2,0.7-3,1.5c-1.2,1.2-1.7,2.9-1.5,4.6C7.4,26.5,9.9,28.5,12.4,28.5z
		 M9.5,20.5c0.7-0.7,1.7-1.1,2.7-1.1c0.4,0,0.7-0.3,0.7-0.7v-1.6c0-3.1,2.5-5.9,5.7-5.9c3.1,0,5.7,2.6,5.7,5.7v1.8
		c0,0.4,0.3,0.7,0.7,0.7c1.2,0,2.3,0.5,3,1.4s1,2.1,0.8,3.3c-0.4,1.8-2,3.1-4,3.1H12.4c-1.8,0-3.7-1.5-4-3.2
		C8.2,22.6,8.6,21.4,9.5,20.5z"/>
</g>
<rect x="13.8" y="28.5" class="st31" width="9.5" height="5.3"/>
<g>
	<g>
		<g>
			<g>
				<g>
					<defs>
						<path id="SVGID_00000068663469786494062030000018040086914410765976_" d="M30.5,631.9c-0.4,3.7-6.3,8.1-11.5,8.1l0,0
							c-5.1,0.4-12.2-3.6-12.2-8.1V48.7c1.1-5.4,7.3-8.4,11.4-8.4l0,0c4.8,0,11.1,3.2,12.3,8.7V631.9L30.5,631.9z"/>
					</defs>
					<clipPath id="SVGID_00000124846301962777018050000007155693400111031990_">
						<use xlink:href="#SVGID_00000068663469786494062030000018040086914410765976_"  style="overflow:visible;"/>
					</clipPath>
					
						<rect x="1" y="539.3" style="clip-path:url(#SVGID_00000124846301962777018050000007155693400111031990_);fill:#FFFAFA;" width="35.3" height="107.3"/>
				</g>
			</g>
		</g>
		<g>
			<g>
				<g>
					<defs>
						<path id="SVGID_00000119797472073095361230000001048694522124868271_" d="M30.5,631.9c-0.4,3.7-6.3,8.1-11.5,8.1l0,0
							c-5.1,0.4-12.2-3.6-12.2-8.1V48.7c1.1-5.4,7.3-8.4,11.4-8.4l0,0c4.8,0,11.1,3.2,12.3,8.7V631.9L30.5,631.9z"/>
					</defs>
					<clipPath id="SVGID_00000049923545554133698760000002744963497632385420_">
						<use xlink:href="#SVGID_00000119797472073095361230000001048694522124868271_"  style="overflow:visible;"/>
					</clipPath>
					
						<rect x="1.4" y="344.2" style="clip-path:url(#SVGID_00000049923545554133698760000002744963497632385420_);fill:#FBD5D6;" width="35.3" height="97.6"/>
				</g>
			</g>
		</g>
		<g>
			<g>
				<g>
					<defs>
						<path id="SVGID_00000123439207782444684680000014498266119767562164_" d="M30.5,631.9c-0.4,3.7-6.3,8.1-11.5,8.1l0,0
							c-5.1,0.4-12.2-3.6-12.2-8.1V48.7c1.1-5.4,7.3-8.4,11.4-8.4l0,0c4.8,0,11.1,3.2,12.3,8.7V631.9L30.5,631.9z"/>
					</defs>
					<clipPath id="SVGID_00000001634314104741054470000003535138187461411256_">
						<use xlink:href="#SVGID_00000123439207782444684680000014498266119767562164_"  style="overflow:visible;"/>
					</clipPath>
					
						<rect x="1.4" y="246.6" style="clip-path:url(#SVGID_00000001634314104741054470000003535138187461411256_);fill:#F9C1C2;" width="35.3" height="97.6"/>
				</g>
			</g>
		</g>
		<g>
			<g>
				<g>
					<defs>
						<path id="SVGID_00000134969550523329442500000014811804492954351260_" d="M30.5,631.9c-0.4,3.7-6.3,8.1-11.5,8.1l0,0
							c-5.1,0.4-12.2-3.6-12.2-8.1V48.7c1.1-5.4,7.3-8.4,11.4-8.4l0,0c4.8,0,11.1,3.2,12.3,8.7V631.9L30.5,631.9z"/>
					</defs>
					<clipPath id="SVGID_00000001638984248589564980000005877365471676920998_">
						<use xlink:href="#SVGID_00000134969550523329442500000014811804492954351260_"  style="overflow:visible;"/>
					</clipPath>
					
						<rect x="1" y="441.7" style="clip-path:url(#SVGID_00000001638984248589564980000005877365471676920998_);fill:#FDEBEB;" width="35.3" height="97.6"/>
				</g>
			</g>
		</g>
		<g>
			<g>
				<g>
					<defs>
						<path id="SVGID_00000071526084512791556980000018104667878689627010_" d="M30.5,631.9c-0.4,3.7-6.3,8.1-11.5,8.1l0,0
							c-5.1,0.4-12.2-3.6-12.2-8.1V48.7c1.1-5.4,7.3-8.4,11.4-8.4l0,0c4.8,0,11.1,3.2,12.3,8.7V631.9L30.5,631.9z"/>
					</defs>
					<clipPath id="SVGID_00000111873456681424651820000000661157198448675209_">
						<use xlink:href="#SVGID_00000071526084512791556980000018104667878689627010_"  style="overflow:visible;"/>
					</clipPath>
					
						<rect x="1.4" y="149.1" style="clip-path:url(#SVGID_00000111873456681424651820000000661157198448675209_);fill:#F6ABAD;" width="35.3" height="97.6"/>
				</g>
			</g>
		</g>
		<g>
			<g>
				<g>
					<defs>
						<path id="SVGID_00000089532229410738166710000009112915242475685537_" d="M30.5,631.9c-0.4,3.7-6.3,8.1-11.5,8.1l0,0
							c-5.1,0.4-12.2-3.6-12.2-8.1V48.7c1.1-5.4,7.3-8.4,11.4-8.4l0,0c4.8,0,11.1,3.2,12.3,8.7V631.9L30.5,631.9z"/>
					</defs>
					<clipPath id="SVGID_00000183223326595600791330000007627947161383642530_">
						<use xlink:href="#SVGID_00000089532229410738166710000009112915242475685537_"  style="overflow:visible;"/>
					</clipPath>
					
						<rect x="1" y="41.8" style="clip-path:url(#SVGID_00000183223326595600791330000007627947161383642530_);fill:#F49799;" width="35.3" height="107.3"/>
				</g>
			</g>
		</g>
	</g>
</g>
<path class="st29" d="M30.3,632.2c-0.4,3.7-6.3,8.1-11.5,8.1l0,0c-5.1,0.4-12.2-3.6-12.2-8.1V49c1.1-5.4,7.3-8.4,11.4-8.4l0,0
	c4.8,0,11.1,3.2,12.3,8.7V632.2L30.3,632.2z"/>
<g>
	<g>
		<g>
			<g>
				<defs>
					<path id="SVGID_00000049936654775189097340000010125755361873332385_" d="M30.5,631.6c-0.4,3.7-6.3,8.1-11.5,8.1l0,0
						c-5.1,0.4-12.2-3.6-12.2-8.1V48.9c1.1-5.3,7.3-8.4,11.4-8.4l0,0c4.8,0,11.1,3.2,12.3,8.6V631.6L30.5,631.6z"/>
				</defs>
				<clipPath id="SVGID_00000033332087957156779540000010354277468805170566_">
					<use xlink:href="#SVGID_00000049936654775189097340000010125755361873332385_"  style="overflow:visible;"/>
				</clipPath>
				
					<rect x="1" y="539.1" style="clip-path:url(#SVGID_00000033332087957156779540000010354277468805170566_);fill:#FAFDF9;" width="35.3" height="107.2"/>
			</g>
		</g>
		<g>
			<g>
				<defs>
					<path id="SVGID_00000102516522366790359980000013819454060404017548_" d="M30.5,631.6c-0.4,3.7-6.3,8.1-11.5,8.1l0,0
						c-5.1,0.4-12.2-3.6-12.2-8.1V48.9c1.1-5.3,7.3-8.4,11.4-8.4l0,0c4.8,0,11.1,3.2,12.3,8.6V631.6L30.5,631.6z"/>
				</defs>
				<clipPath id="SVGID_00000143586425138006443470000010046776834674496147_">
					<use xlink:href="#SVGID_00000102516522366790359980000013819454060404017548_"  style="overflow:visible;"/>
				</clipPath>
				
					<rect x="1.4" y="344.2" style="clip-path:url(#SVGID_00000143586425138006443470000010046776834674496147_);fill:#D6EED4;" width="35.3" height="97.5"/>
			</g>
		</g>
		<g>
			<g>
				<defs>
					<path id="SVGID_00000018941988394732312450000009090030371043168437_" d="M30.5,631.6c-0.4,3.7-6.3,8.1-11.5,8.1l0,0
						c-5.1,0.4-12.2-3.6-12.2-8.1V48.9c1.1-5.3,7.3-8.4,11.4-8.4l0,0c4.8,0,11.1,3.2,12.3,8.6V631.6L30.5,631.6z"/>
				</defs>
				<clipPath id="SVGID_00000168100431576487197540000000477602810112287135_">
					<use xlink:href="#SVGID_00000018941988394732312450000009090030371043168437_"  style="overflow:visible;"/>
				</clipPath>
				
					<rect x="1.4" y="246.7" style="clip-path:url(#SVGID_00000168100431576487197540000000477602810112287135_);fill:#C4E6C0;" width="35.3" height="97.5"/>
			</g>
		</g>
		<g>
			<g>
				<defs>
					<path id="SVGID_00000109003703175307903990000012200873429316880263_" d="M30.5,631.6c-0.4,3.7-6.3,8.1-11.5,8.1l0,0
						c-5.1,0.4-12.2-3.6-12.2-8.1V48.9c1.1-5.3,7.3-8.4,11.4-8.4l0,0c4.8,0,11.1,3.2,12.3,8.6V631.6L30.5,631.6z"/>
				</defs>
				<clipPath id="SVGID_00000143583634534216809360000011416105884207833523_">
					<use xlink:href="#SVGID_00000109003703175307903990000012200873429316880263_"  style="overflow:visible;"/>
				</clipPath>
				
					<rect x="1" y="441.6" style="clip-path:url(#SVGID_00000143583634534216809360000011416105884207833523_);fill:#ECF7EA;" width="35.3" height="97.5"/>
			</g>
		</g>
		<g>
			<g>
				<defs>
					<path id="SVGID_00000119083632206168563130000008283766395276611244_" d="M30.5,631.6c-0.4,3.7-6.3,8.1-11.5,8.1l0,0
						c-5.1,0.4-12.2-3.6-12.2-8.1V48.9c1.1-5.3,7.3-8.4,11.4-8.4l0,0c4.8,0,11.1,3.2,12.3,8.6V631.6L30.5,631.6z"/>
				</defs>
				<clipPath id="SVGID_00000154388788754040079840000014705038539274385551_">
					<use xlink:href="#SVGID_00000119083632206168563130000008283766395276611244_"  style="overflow:visible;"/>
				</clipPath>
				
					<rect x="1.4" y="149.2" style="clip-path:url(#SVGID_00000154388788754040079840000014705038539274385551_);fill:#B0DEAB;" width="35.3" height="97.5"/>
			</g>
		</g>
		<g>
			<g>
				<defs>
					<path id="SVGID_00000050655201135465827600000007163516265888346034_" d="M30.5,631.6c-0.4,3.7-6.3,8.1-11.5,8.1l0,0
						c-5.1,0.4-12.2-3.6-12.2-8.1V48.9c1.1-5.3,7.3-8.4,11.4-8.4l0,0c4.8,0,11.1,3.2,12.3,8.6V631.6L30.5,631.6z"/>
				</defs>
				<clipPath id="SVGID_00000163063591414862772530000000286326834597445305_">
					<use xlink:href="#SVGID_00000050655201135465827600000007163516265888346034_"  style="overflow:visible;"/>
				</clipPath>
				
					<rect x="1" y="42" style="clip-path:url(#SVGID_00000163063591414862772530000000286326834597445305_);fill:#9DD797;" width="35.3" height="107.2"/>
			</g>
		</g>
	</g>
</g>
<path class="st29" d="M30.3,631.9c-0.4,3.7-6.3,8.1-11.5,8.1l0,0c-5.1,0.4-12.2-3.6-12.2-8.1V49.2c1.1-5.3,7.3-8.4,11.4-8.4l0,0
	c4.8,0,11.1,3.2,12.3,8.6L30.3,631.9L30.3,631.9z"/>
<g>
	<g>
		<path class="st44" d="M16.4,195.3c0.6,0.7,0.9,1.6,0.9,2.8c0,0.9-0.2,1.6-0.5,2.2c-0.3,0.6-0.8,1.1-1.3,1.4
			c-0.6,0.3-1.2,0.5-2,0.5c-0.4,0-0.8,0-1.1-0.1s-0.7-0.2-0.9-0.4l0.5-1.1c0.4,0.2,0.9,0.4,1.5,0.4c0.7,0,1.3-0.2,1.7-0.7
			c0.4-0.5,0.6-1.1,0.6-2l0,0c-0.2,0.3-0.5,0.5-0.9,0.6s-0.7,0.2-1.2,0.2s-1-0.1-1.4-0.3s-0.7-0.5-0.9-0.8c-0.2-0.4-0.3-0.8-0.3-1.2
			c0-0.5,0.1-0.9,0.4-1.3c0.2-0.4,0.6-0.7,1-0.9s0.9-0.3,1.4-0.3C15,194.3,15.8,194.7,16.4,195.3z M15.2,197.7
			c0.3-0.2,0.4-0.6,0.4-0.9c0-0.4-0.1-0.7-0.4-0.9s-0.7-0.4-1.2-0.4c-0.4,0-0.8,0.1-1.1,0.4c-0.3,0.2-0.4,0.6-0.4,1s0.1,0.7,0.4,1
			c0.3,0.2,0.7,0.4,1.1,0.4C14.5,198.1,14.9,197.9,15.2,197.7z"/>
		<path class="st44" d="M19.8,201.8c-0.5-0.3-0.9-0.8-1.1-1.4c-0.3-0.6-0.4-1.3-0.4-2.1s0.1-1.5,0.4-2.1s0.7-1.1,1.1-1.4
			c0.5-0.3,1-0.5,1.7-0.5c0.6,0,1.2,0.2,1.7,0.5s0.9,0.8,1.1,1.4s0.4,1.3,0.4,2.1s-0.1,1.5-0.4,2.1s-0.7,1.1-1.1,1.4
			c-0.5,0.3-1,0.5-1.7,0.5C20.8,202.2,20.3,202.1,19.8,201.8z M22.8,200.3c0.3-0.5,0.5-1.1,0.5-2s-0.2-1.6-0.5-2
			c-0.3-0.5-0.8-0.7-1.3-0.7s-1,0.2-1.3,0.7s-0.5,1.1-0.5,2s0.2,1.6,0.5,2c0.3,0.5,0.8,0.7,1.3,0.7C22,201,22.4,200.8,22.8,200.3z"
			/>
	</g>
</g>
<g>
	<g>
		<path class="st44" d="M17.6,296.2c0.2,0.3,0.3,0.7,0.3,1.1c0,0.5-0.1,0.9-0.4,1.2c-0.3,0.4-0.6,0.6-1.1,0.8
			c-0.5,0.2-1,0.3-1.7,0.3s-1.2-0.1-1.7-0.3c-0.5-0.2-0.8-0.5-1.1-0.8c-0.3-0.3-0.4-0.8-0.4-1.2s0.1-0.8,0.3-1.1
			c0.2-0.3,0.5-0.6,0.9-0.7c-0.3-0.2-0.5-0.4-0.7-0.7c-0.2-0.3-0.2-0.6-0.2-1s0.1-0.8,0.4-1.1c0.3-0.3,0.6-0.6,1-0.7
			c0.4-0.2,0.9-0.3,1.5-0.3s1.1,0.1,1.5,0.3c0.4,0.2,0.8,0.4,1,0.7c0.2,0.3,0.4,0.7,0.4,1.1s-0.1,0.7-0.3,0.9
			c-0.2,0.3-0.4,0.5-0.7,0.7C17.1,295.6,17.4,295.8,17.6,296.2z M16,298.1c0.3-0.2,0.5-0.5,0.5-0.9s-0.2-0.7-0.5-0.9
			c-0.3-0.2-0.7-0.3-1.3-0.3c-0.5,0-0.9,0.1-1.2,0.3c-0.3,0.2-0.5,0.5-0.5,0.9s0.2,0.7,0.5,0.9c0.3,0.2,0.7,0.3,1.2,0.3
			C15.3,298.5,15.7,298.3,16,298.1z M13.7,293.1c-0.3,0.2-0.4,0.5-0.4,0.8c0,0.3,0.1,0.6,0.4,0.8c0.3,0.2,0.6,0.3,1.1,0.3
			s0.8-0.1,1.1-0.3c0.3-0.2,0.4-0.5,0.4-0.8c0-0.3-0.1-0.6-0.4-0.8c-0.3-0.2-0.6-0.3-1.1-0.3S14,292.9,13.7,293.1z"/>
		<path class="st44" d="M20.4,299.1c-0.5-0.3-0.9-0.8-1.1-1.4c-0.3-0.6-0.4-1.3-0.4-2.1c0-0.8,0.1-1.5,0.4-2.1s0.7-1.1,1.1-1.4
			c0.5-0.3,1-0.5,1.7-0.5c0.6,0,1.2,0.2,1.7,0.5c0.5,0.3,0.9,0.8,1.1,1.4c0.2,0.6,0.4,1.3,0.4,2.1c0,0.8-0.1,1.5-0.4,2.1
			s-0.7,1.1-1.1,1.4c-0.5,0.3-1,0.5-1.7,0.5S20.9,299.4,20.4,299.1z M23.4,297.7c0.3-0.5,0.5-1.1,0.5-2s-0.2-1.6-0.5-2
			c-0.3-0.5-0.8-0.7-1.3-0.7s-1,0.2-1.3,0.7s-0.5,1.1-0.5,2s0.2,1.6,0.5,2c0.3,0.5,0.8,0.7,1.3,0.7C22.6,298.3,23,298.1,23.4,297.7z
			"/>
	</g>
</g>
<g>
	<g>
		<path class="st44" d="M17.3,389v1l-3,6.7h-1.5l2.9-6.5h-3v1.3h-1.3V389H17.3z"/>
		<path class="st44" d="M19.5,396.4c-0.5-0.3-0.9-0.8-1.1-1.4c-0.3-0.6-0.4-1.3-0.4-2.1s0.1-1.5,0.4-2.1s0.7-1.1,1.1-1.4
			c0.5-0.3,1-0.5,1.7-0.5c0.6,0,1.2,0.2,1.7,0.5s0.9,0.8,1.1,1.4s0.4,1.3,0.4,2.1s-0.1,1.5-0.4,2.1s-0.7,1.1-1.1,1.4
			c-0.5,0.3-1,0.5-1.7,0.5C20.5,396.8,20,396.7,19.5,396.4z M22.5,394.9c0.3-0.5,0.5-1.1,0.5-2s-0.2-1.6-0.5-2
			c-0.3-0.5-0.8-0.7-1.3-0.7s-1,0.2-1.3,0.7s-0.5,1.1-0.5,2s0.2,1.6,0.5,2c0.3,0.5,0.8,0.7,1.3,0.7
			C21.7,395.6,22.1,395.4,22.5,394.9z"/>
	</g>
</g>
<g>
	<path class="st44" d="M16.9,490.4c0.4,0.2,0.7,0.5,0.9,0.8s0.3,0.8,0.3,1.2c0,0.5-0.1,0.9-0.4,1.3c-0.2,0.4-0.6,0.7-1,0.9
		c-0.4,0.2-0.9,0.3-1.4,0.3c-1.1,0-1.9-0.3-2.5-1s-0.9-1.6-0.9-2.8c0-0.9,0.2-1.6,0.5-2.2s0.8-1.1,1.3-1.4c0.6-0.3,1.2-0.5,2-0.5
		c0.4,0,0.8,0,1.1,0.1s0.7,0.2,0.9,0.4l-0.5,1.1c-0.4-0.2-0.9-0.4-1.5-0.4c-0.7,0-1.3,0.2-1.7,0.7s-0.6,1.1-0.6,2l0,0
		c0.2-0.3,0.5-0.5,0.9-0.6s0.7-0.2,1.2-0.2C16.1,490.1,16.5,490.2,16.9,490.4z M16.4,493.5c0.3-0.2,0.4-0.6,0.4-1s-0.1-0.7-0.4-1
		c-0.3-0.2-0.7-0.4-1.1-0.4c-0.5,0-0.8,0.1-1.1,0.4c-0.3,0.2-0.4,0.6-0.4,0.9c0,0.4,0.1,0.7,0.4,0.9c0.3,0.2,0.7,0.4,1.2,0.4
		C15.8,493.9,16.1,493.8,16.4,493.5z"/>
	<path class="st44" d="M20.5,494.5c-0.5-0.3-0.9-0.8-1.1-1.4c-0.3-0.6-0.4-1.3-0.4-2.1s0.1-1.5,0.4-2.1s0.7-1.1,1.1-1.4
		s1-0.5,1.7-0.5c0.6,0,1.2,0.2,1.7,0.5s0.9,0.8,1.1,1.4s0.4,1.3,0.4,2.1s-0.1,1.5-0.4,2.1s-0.7,1.1-1.1,1.4c-0.5,0.3-1,0.5-1.7,0.5
		C21.6,495,21,494.8,20.5,494.5z M23.5,493.1c0.3-0.5,0.5-1.1,0.5-2s-0.2-1.6-0.5-2c-0.3-0.5-0.8-0.7-1.3-0.7s-1,0.2-1.3,0.7
		s-0.5,1.1-0.5,2s0.2,1.6,0.5,2c0.3,0.5,0.8,0.7,1.3,0.7C22.7,493.8,23.2,493.5,23.5,493.1z"/>
</g>
<g>
	<path class="st44" d="M16.6,584.4c0.5,0.4,0.8,1,0.8,1.7c0,0.5-0.1,0.9-0.3,1.3c-0.2,0.4-0.6,0.7-1,0.9c-0.5,0.2-1,0.3-1.7,0.3
		c-0.5,0-1.1-0.1-1.6-0.2c-0.5-0.2-0.9-0.4-1.3-0.7l0.6-1.1c0.3,0.2,0.6,0.4,1,0.6s0.8,0.2,1.2,0.2c0.5,0,0.9-0.1,1.2-0.3
		c0.3-0.2,0.4-0.5,0.4-0.9c0-0.4-0.2-0.7-0.5-0.9c-0.3-0.2-0.8-0.3-1.6-0.3h-1.9l0.4-4.2h4.5v1.2h-3.3l-0.2,1.8H14
		C15.3,583.7,16.1,583.9,16.6,584.4z"/>
	<path class="st44" d="M19.8,588.1c-0.5-0.3-0.9-0.8-1.1-1.4c-0.3-0.6-0.4-1.3-0.4-2.1c0-0.8,0.1-1.5,0.4-2.1
		c0.3-0.6,0.7-1.1,1.1-1.4c0.5-0.3,1-0.5,1.7-0.5c0.6,0,1.2,0.2,1.7,0.5s0.9,0.8,1.1,1.4c0.2,0.6,0.4,1.3,0.4,2.1
		c0,0.8-0.1,1.5-0.4,2.1c-0.3,0.6-0.7,1.1-1.1,1.4c-0.5,0.3-1,0.5-1.7,0.5S20.3,588.4,19.8,588.1z M22.7,586.6
		c0.3-0.5,0.5-1.1,0.5-2c0-0.9-0.2-1.6-0.5-2c-0.3-0.5-0.8-0.7-1.3-0.7s-1,0.2-1.3,0.7s-0.5,1.1-0.5,2c0,0.9,0.2,1.6,0.5,2
		c0.3,0.5,0.8,0.7,1.3,0.7C22,587.3,22.4,587.1,22.7,586.6z"/>
</g>
<g>
	<path class="st44" d="M13.7,630.6c-0.5-0.4-0.7-1.1-0.7-2c0-0.8,0.2-1.4,0.7-2c0.5-0.4,1-0.8,1.7-0.8c0.7,0,1.3,0.2,1.7,0.8
		c0.5,0.4,0.7,1.1,0.7,2s-0.2,1.4-0.7,2c-0.5,0.4-1,0.8-1.7,0.8C14.8,631.4,14.1,631.1,13.7,630.6z M16.4,629.9
		c0.2-0.3,0.3-0.8,0.3-1.2c0-0.6-0.1-1-0.3-1.2s-0.6-0.4-0.9-0.4c-0.3,0-0.7,0.1-0.9,0.4c-0.2,0.3-0.3,0.8-0.3,1.2
		c0,0.6,0.1,1,0.3,1.2c0.2,0.3,0.6,0.4,0.9,0.4C15.8,630.4,16.1,630.2,16.4,629.9z M21.5,626h1.4l-7,9.9h-1.4L21.5,626z M20.4,635.2
		c-0.5-0.4-0.7-1.1-0.7-2c0-0.8,0.2-1.4,0.7-2c0.5-0.4,1-0.8,1.7-0.8s1.3,0.2,1.7,0.8c0.5,0.4,0.7,1.1,0.7,2c0,0.8-0.2,1.4-0.7,2
		c-0.5,0.4-1,0.8-1.7,0.8S20.8,635.8,20.4,635.2z M23,634.6c0.2-0.3,0.3-0.8,0.3-1.2s-0.1-1-0.3-1.2c-0.2-0.3-0.6-0.4-0.9-0.4
		s-0.7,0.1-0.9,0.4c-0.2,0.3-0.3,0.8-0.3,1.2c0,0.6,0.1,1,0.3,1.2c0.2,0.3,0.6,0.4,0.9,0.4C22.6,635,22.8,634.9,23,634.6z"/>
</g>
<g>
	<path class="st28" d="M11.9,91.8v7.7h-1.4V93H8.9v-1.2H11.9z"/>
	<path class="st28" d="M15,99.1c-0.5-0.3-0.9-0.8-1.1-1.4c-0.3-0.6-0.4-1.3-0.4-2.1s0.1-1.5,0.4-2.1c0.3-0.6,0.7-1.1,1.1-1.4
		c0.5-0.3,1-0.5,1.7-0.5c0.6,0,1.2,0.2,1.7,0.5s0.9,0.8,1.1,1.4s0.4,1.3,0.4,2.1s-0.1,1.5-0.4,2.1s-0.7,1.1-1.1,1.4
		c-0.5,0.3-1,0.5-1.7,0.5S15.5,99.5,15,99.1z M18,97.7c0.3-0.5,0.5-1.1,0.5-2s-0.2-1.6-0.5-2c-0.3-0.5-0.8-0.7-1.3-0.7
		s-1,0.2-1.3,0.7s-0.5,1.1-0.5,2s0.2,1.6,0.5,2c0.3,0.5,0.8,0.7,1.3,0.7C17.2,98.4,17.6,98.1,18,97.7z"/>
	<path class="st28" d="M22.4,99.1c-0.5-0.3-0.9-0.8-1.1-1.4c-0.3-0.6-0.4-1.3-0.4-2.1s0.1-1.5,0.4-2.1s0.7-1.1,1.1-1.4
		c0.5-0.3,1-0.5,1.7-0.5c0.6,0,1.2,0.2,1.7,0.5s0.9,0.8,1.1,1.4s0.4,1.3,0.4,2.1s-0.1,1.5-0.4,2.1s-0.7,1.1-1.1,1.4
		c-0.5,0.3-1,0.5-1.7,0.5S22.9,99.5,22.4,99.1z M25.4,97.7c0.3-0.5,0.5-1.1,0.5-2s-0.2-1.6-0.5-2c-0.3-0.5-0.8-0.7-1.3-0.7
		s-1,0.2-1.3,0.7s-0.5,1.1-0.5,2s0.2,1.6,0.5,2c0.3,0.5,0.8,0.7,1.3,0.7C24.6,98.4,25,98.1,25.4,97.7z"/>
</g>
<g>
	<path class="st30" d="M20.2,29v4.1h-0.8v-1.8h-2.1v1.8h-0.8V29h0.8v1.7h2.1V29C19.4,29,20.2,29,20.2,29z"/>
</g>
</svg>
