<?xml version="1.0" encoding="utf-8"?>
<!-- Generator: Adobe Illustrator 28.0.0, SVG Export Plug-In . SVG Version: 6.00 Build 0)  -->
<svg version="1.1" id="Livello_1" xmlns="http://www.w3.org/2000/svg" xmlns:xlink="http://www.w3.org/1999/xlink" x="0px" y="0px"
	 width="50px" height="677px"  viewBox="0 0 48.7 677.2" style="enable-background:new 0 0 48.7 677.2;" xml:space="preserve">
<style type="text/css">
	.st0{clip-path:url(#SVGID_00000044175840468812747770000009437166764032063634_);fill:#FAFDF9;}
	.st1{clip-path:url(#SVGID_00000032634274081145281730000014113898030892032924_);fill:#D6EED4;}
	.st2{clip-path:url(#SVGID_00000152244667958066632830000006777585583820171433_);fill:#C4E6C0;}
	.st3{clip-path:url(#SVGID_00000103984582121890674690000015914803038459663549_);fill:#ECF7EA;}
	.st4{clip-path:url(#SVGID_00000044159806727280964200000018080859739840585118_);fill:#B0DEAB;}
	.st5{clip-path:url(#SVGID_00000027592838768060761250000013974677913007624634_);fill:#9DD797;}
	.st6{fill:#39322E;}
	.st7{fill:none;}
	.st8{fill:none;stroke:#3C3430;stroke-width:2;stroke-miterlimit:9.7722;}
	.st9{fill:#3C3530;}
	.st10{fill:none;stroke:#3C3430;stroke-miterlimit:9.7722;}
	.st11{fill:#3C3430;}
	.st12{fill:#3B3330;}
	.st13{fill:#FFFFFF;}
	.st14{fill:#FFFFFF;stroke:#FFFFFF;stroke-width:0.4886;stroke-miterlimit:9.7722;}
	.st15{fill:none;stroke:#FFFFFF;stroke-width:0.9772;stroke-miterlimit:9.7722;}
</style>
<g>
	<g>
		<g>
			<g>
				<g>
					<defs>
						<path id="SVGID_1_" d="M43.4,667.3c-0.6,3.9-10.1,8.5-18.5,8.5l0,0c-8.2,0.4-19.6-3.8-19.6-8.5V56.4
							c1.8-5.6,11.7-8.8,18.3-8.8l0,0c7.7,0,17.8,3.4,19.8,9V667.3L43.4,667.3z"/>
					</defs>
					<clipPath id="SVGID_00000110450274716959624190000014420386246399156400_">
						<use xlink:href="#SVGID_1_"  style="overflow:visible;"/>
					</clipPath>
					
						<rect x="-4" y="570.3" style="clip-path:url(#SVGID_00000110450274716959624190000014420386246399156400_);fill:#FAFDF9;" width="56.7" height="112.4"/>
				</g>
			</g>
		</g>
		<g>
			<g>
				<g>
					<defs>
						<path id="SVGID_00000042011681979354722430000009351541011912948648_" d="M43.4,667.3c-0.6,3.9-10.1,8.5-18.5,8.5l0,0
							c-8.2,0.4-19.6-3.8-19.6-8.5V56.4c1.8-5.6,11.7-8.8,18.3-8.8l0,0c7.7,0,17.8,3.4,19.8,9V667.3L43.4,667.3z"/>
					</defs>
					<clipPath id="SVGID_00000021094276000834606200000003053768001562194332_">
						<use xlink:href="#SVGID_00000042011681979354722430000009351541011912948648_"  style="overflow:visible;"/>
					</clipPath>
					
						<rect x="-3.4" y="365.9" style="clip-path:url(#SVGID_00000021094276000834606200000003053768001562194332_);fill:#D6EED4;" width="56.7" height="102.2"/>
				</g>
			</g>
		</g>
		<g>
			<g>
				<g>
					<defs>
						<path id="SVGID_00000104693389556783385850000010072597485607947679_" d="M43.4,667.3c-0.6,3.9-10.1,8.5-18.5,8.5l0,0
							c-8.2,0.4-19.6-3.8-19.6-8.5V56.4c1.8-5.6,11.7-8.8,18.3-8.8l0,0c7.7,0,17.8,3.4,19.8,9V667.3L43.4,667.3z"/>
					</defs>
					<clipPath id="SVGID_00000089572729281857344180000016174549825673334919_">
						<use xlink:href="#SVGID_00000104693389556783385850000010072597485607947679_"  style="overflow:visible;"/>
					</clipPath>
					
						<rect x="-3.4" y="263.7" style="clip-path:url(#SVGID_00000089572729281857344180000016174549825673334919_);fill:#C4E6C0;" width="56.7" height="102.2"/>
				</g>
			</g>
		</g>
		<g>
			<g>
				<g>
					<defs>
						<path id="SVGID_00000005960795293601716740000005819980661252983467_" d="M43.4,667.3c-0.6,3.9-10.1,8.5-18.5,8.5l0,0
							c-8.2,0.4-19.6-3.8-19.6-8.5V56.4c1.8-5.6,11.7-8.8,18.3-8.8l0,0c7.7,0,17.8,3.4,19.8,9V667.3L43.4,667.3z"/>
					</defs>
					<clipPath id="SVGID_00000075133735863178171230000016260736366392242353_">
						<use xlink:href="#SVGID_00000005960795293601716740000005819980661252983467_"  style="overflow:visible;"/>
					</clipPath>
					
						<rect x="-4" y="468.1" style="clip-path:url(#SVGID_00000075133735863178171230000016260736366392242353_);fill:#ECF7EA;" width="56.7" height="102.2"/>
				</g>
			</g>
		</g>
		<g>
			<g>
				<g>
					<defs>
						<path id="SVGID_00000176027067913926684450000000526628774887715456_" d="M43.4,667.3c-0.6,3.9-10.1,8.5-18.5,8.5l0,0
							c-8.2,0.4-19.6-3.8-19.6-8.5V56.4c1.8-5.6,11.7-8.8,18.3-8.8l0,0c7.7,0,17.8,3.4,19.8,9V667.3L43.4,667.3z"/>
					</defs>
					<clipPath id="SVGID_00000082367587833086660640000004123425801250349964_">
						<use xlink:href="#SVGID_00000176027067913926684450000000526628774887715456_"  style="overflow:visible;"/>
					</clipPath>
					
						<rect x="-3.4" y="161.5" style="clip-path:url(#SVGID_00000082367587833086660640000004123425801250349964_);fill:#B0DEAB;" width="56.7" height="102.2"/>
				</g>
			</g>
		</g>
		<g>
			<g>
				<g>
					<defs>
						<path id="SVGID_00000080173717224163872270000000466278579079589804_" d="M43.4,667.3c-0.6,3.9-10.1,8.5-18.5,8.5l0,0
							c-8.2,0.4-19.6-3.8-19.6-8.5V56.4c1.8-5.6,6.3-7.2,12.8-7.2l10.4-0.3c7.7,0,12.9,2.1,14.8,7.8V667.3L43.4,667.3z"/>
					</defs>
					<clipPath id="SVGID_00000050650767049229673670000016596852154924879013_">
						<use xlink:href="#SVGID_00000080173717224163872270000000466278579079589804_"  style="overflow:visible;"/>
					</clipPath>
					
						<rect x="-3.4" y="48.8" style="clip-path:url(#SVGID_00000050650767049229673670000016596852154924879013_);fill:#9DD797;" width="56.7" height="112.4"/>
				</g>
			</g>
		</g>
	</g>
</g>
<circle class="st6" cx="24.1" cy="26.6" r="19.8"/>
<rect x="11.1" y="632" class="st7" width="15.4" height="11.8"/>
<path class="st8" d="M36.6,675.8H12.1c-3.4,0-6.2-2.8-6.2-6.2V56.1c0-3.4,2.8-6.2,6.2-6.2h24.5c3.4,0,6.2,2.8,6.2,6.2v613.5
	C42.8,673,40,675.8,36.6,675.8z"/>
<g>
	<path class="st9" d="M19.3,52.6v7.9h-1.7v-6l-1.7,1.1l-0.8-1.2l2.6-1.7H19.3z"/>
	<path class="st9" d="M22,53.4c0.5-0.7,1.3-1,2.3-1c1,0,1.8,0.3,2.3,1c0.5,0.7,0.8,1.7,0.8,3.2s-0.3,2.5-0.8,3.1
		c-0.5,0.6-1.3,0.9-2.3,0.9c-1,0-1.8-0.3-2.3-0.9s-0.8-1.7-0.8-3.1S21.5,54.1,22,53.4z M25.7,56.5c0-1-0.1-1.7-0.3-2.1
		c-0.2-0.4-0.6-0.6-1-0.6c-0.5,0-0.8,0.2-1.1,0.6c-0.2,0.4-0.3,1.1-0.3,2.1c0,1,0.1,1.7,0.3,2.1c0.2,0.4,0.6,0.6,1.1,0.6
		c0.5,0,0.8-0.2,1-0.6S25.7,57.5,25.7,56.5z"/>
	<path class="st9" d="M28.8,53.4c0.5-0.7,1.3-1,2.3-1c1,0,1.8,0.3,2.3,1c0.5,0.7,0.8,1.7,0.8,3.2s-0.3,2.5-0.8,3.1
		c-0.5,0.6-1.3,0.9-2.3,0.9c-1,0-1.8-0.3-2.3-0.9S28,58,28,56.6S28.2,54.1,28.8,53.4z M32.4,56.5c0-1-0.1-1.7-0.3-2.1
		c-0.2-0.4-0.6-0.6-1-0.6c-0.5,0-0.8,0.2-1.1,0.6c-0.2,0.4-0.3,1.1-0.3,2.1c0,1,0.1,1.7,0.3,2.1c0.2,0.4,0.6,0.6,1.1,0.6
		c0.5,0,0.8-0.2,1-0.6S32.4,57.5,32.4,56.5z"/>
</g>
<line class="st10" x1="6.5" y1="55.6" x2="15.6" y2="55.6"/>
<line class="st10" x1="42.6" y1="55.6" x2="34.5" y2="55.6"/>
<g>
	<path class="st11" d="M19.1,362v-1.5h5.1v1.9l-2.8,6.2l-1.5-0.4l2.7-5.8V362H19.1z"/>
	<path class="st11" d="M26,361.4c0.5-0.7,1.3-1,2.3-1c1,0,1.8,0.3,2.3,1c0.5,0.7,0.8,1.7,0.8,3.2s-0.3,2.5-0.8,3.1
		c-0.5,0.6-1.3,0.9-2.3,0.9c-1,0-1.8-0.3-2.3-0.9s-0.8-1.7-0.8-3.1S25.5,362,26,361.4z M29.7,364.5c0-1-0.1-1.7-0.3-2.1
		c-0.2-0.4-0.6-0.6-1-0.6c-0.5,0-0.8,0.2-1.1,0.6c-0.2,0.4-0.3,1.1-0.3,2.1c0,1,0.1,1.7,0.3,2.1c0.2,0.4,0.6,0.6,1.1,0.6
		c0.5,0,0.8-0.2,1-0.6S29.7,365.5,29.7,364.5z"/>
</g>
<line class="st10" x1="6.6" y1="365.3" x2="18.9" y2="365.3"/>
<line class="st10" x1="43" y1="365.3" x2="32.4" y2="365.3"/>
<g>
	<path class="st11" d="M20.8,163.6c1.1,0,1.6-0.6,1.6-1.9l-0.3,0.1c-0.6,0.2-1,0.3-1.3,0.3c-0.9,0-1.5-0.2-2-0.6
		c-0.5-0.4-0.7-1.1-0.7-1.9s0.3-1.5,0.8-2c0.5-0.5,1.3-0.7,2.2-0.7c1,0,1.7,0.4,2.2,1.1s0.8,1.8,0.8,3.2c0,1.4-0.3,2.4-0.8,3
		c-0.6,0.6-1.4,0.9-2.5,0.9c-0.6,0-1.3-0.1-2-0.3l-0.4-0.1l0.1-1.3C19.4,163.5,20.1,163.6,20.8,163.6z M21,160.6
		c0.4,0,0.8-0.1,1.2-0.2l0.2-0.1c0-1.4-0.4-2-1.3-2c-0.4,0-0.7,0.1-0.9,0.3s-0.3,0.5-0.3,0.9C19.8,160.2,20.2,160.6,21,160.6z"/>
	<path class="st11" d="M25.6,157.8c0.5-0.7,1.3-1,2.3-1c1,0,1.8,0.3,2.3,1c0.5,0.7,0.8,1.7,0.8,3.2s-0.3,2.5-0.8,3.1
		c-0.5,0.6-1.3,0.9-2.3,0.9c-1,0-1.8-0.3-2.3-0.9s-0.8-1.7-0.8-3.1S25.1,158.5,25.6,157.8z M29.3,160.9c0-1-0.1-1.7-0.3-2.1
		c-0.2-0.4-0.6-0.6-1-0.6c-0.5,0-0.8,0.2-1.1,0.6c-0.2,0.4-0.3,1.1-0.3,2.1c0,1,0.1,1.7,0.3,2.1c0.2,0.4,0.6,0.6,1.1,0.6
		c0.5,0,0.8-0.2,1-0.6S29.3,161.9,29.3,160.9z"/>
</g>
<line class="st10" x1="6.1" y1="161.8" x2="17.1" y2="161.8"/>
<line class="st10" x1="42.5" y1="161.8" x2="31.9" y2="161.8"/>
<g>
	<path class="st12" d="M22.6,664.6c0.5-0.7,1.3-1,2.3-1c1,0,1.8,0.3,2.3,1s0.8,1.7,0.8,3.2s-0.3,2.5-0.8,3.1s-1.3,0.9-2.3,0.9
		c-1,0-1.8-0.3-2.3-0.9c-0.5-0.6-0.8-1.7-0.8-3.1S22.1,665.3,22.6,664.6z M26.3,667.8c0-1-0.1-1.7-0.3-2.1c-0.2-0.4-0.6-0.6-1-0.6
		s-0.8,0.2-1.1,0.6c-0.2,0.4-0.3,1.1-0.3,2.1c0,1,0.1,1.7,0.3,2.1s0.6,0.6,1.1,0.6s0.8-0.2,1-0.6S26.3,668.8,26.3,667.8z"/>
</g>
<g>
	<path class="st12" d="M24.2,464.8c-0.8-0.1-1.5-0.2-2.1-0.2c-1.1,0-1.7,0.6-1.7,1.8l0.3-0.1c0.5-0.2,0.9-0.2,1.3-0.2
		c0.9,0,1.6,0.2,2,0.6c0.5,0.4,0.7,1.1,0.7,1.9s-0.3,1.5-0.8,2c-0.5,0.4-1.3,0.7-2.2,0.7s-1.7-0.4-2.2-1.1s-0.7-1.8-0.7-3.1
		s0.3-2.4,0.9-3c0.6-0.7,1.4-1,2.4-1c0.6,0,1.3,0.1,2,0.3l0.4,0.1L24.2,464.8z M21.8,467.6c-0.4,0-0.8,0.1-1.2,0.2l-0.2,0.1
		c0,1.4,0.4,2.1,1.3,2.1c0.4,0,0.7-0.1,0.9-0.3c0.2-0.2,0.3-0.5,0.3-0.9C22.9,468,22.5,467.6,21.8,467.6z"/>
	<path class="st12" d="M26.1,464.2c0.5-0.7,1.3-1,2.3-1c1,0,1.8,0.3,2.3,1s0.8,1.7,0.8,3.2s-0.3,2.5-0.8,3.1s-1.3,0.9-2.3,0.9
		c-1,0-1.8-0.3-2.3-0.9c-0.5-0.6-0.8-1.7-0.8-3.1S25.5,464.9,26.1,464.2z M29.7,467.3c0-1-0.1-1.7-0.3-2.1c-0.2-0.4-0.6-0.6-1-0.6
		s-0.8,0.2-1.1,0.6c-0.2,0.4-0.3,1.1-0.3,2.1c0,1,0.1,1.7,0.3,2.1s0.6,0.6,1.1,0.6s0.8-0.2,1-0.6S29.7,468.3,29.7,467.3z"/>
</g>
<line class="st10" x1="6.2" y1="468.2" x2="17.6" y2="468.2"/>
<line class="st10" x1="42.6" y1="468.2" x2="32" y2="468.2"/>
<g>
	<path class="st13" d="M15.5,35.2h17.1c3.6,0,6.6-2.2,7.3-5.2c0.4-2-0.1-3.9-1.5-5.4c-1.2-1.2-2.9-2.1-4.7-2.3v-1.5
		c0-5.2-5.3-9.2-10.9-8.6c-4.8,0.5-8.6,4.3-8.6,9v1.1c-1.5,0.1-3,0.9-4.1,1.8c-1.7,1.5-2.3,3.6-2.1,5.6
		C8.6,32.8,12.1,35.2,15.5,35.2z M11.5,25.4c1-0.9,2.3-1.4,3.7-1.4c0.6,0,1-0.4,1-0.9v-2c0-3.8,3.5-7.2,7.9-7.2c4.3,0,7.9,3.2,7.9,7
		v2.2c0,0.5,0.4,0.9,1,0.9c1.7,0,3.2,0.6,4.1,1.7c1,1.1,1.4,2.6,1.1,4.1c-0.6,2.2-2.8,3.8-5.5,3.8H15.5c-2.5,0-5.1-1.8-5.5-3.9
		C9.7,28,10.3,26.5,11.5,25.4z"/>
</g>
<g>
	<path class="st13" d="M26.3,35.9v5h-1.1v-2.2h-2.9v2.2h-1.1v-5h1.1V38h2.9v-2.1C25.2,35.9,26.3,35.9,26.3,35.9z"/>
</g>
<g>
	<path class="st12" d="M23.5,565.9v1.4H20l-0.2,1.7c0.5-0.2,1-0.3,1.4-0.3c1.7,0,2.6,0.8,2.6,2.4c0,0.9-0.2,1.6-0.7,2.1
		c-0.5,0.5-1.1,0.7-2,0.7c-0.4,0-0.8,0-1.3-0.1c-0.5-0.1-0.8-0.1-1.1-0.2l-0.4-0.1l0.2-1.2c1,0.2,1.8,0.2,2.4,0.2
		c0.4,0,0.7-0.1,0.9-0.3c0.2-0.2,0.3-0.5,0.3-0.9s-0.1-0.7-0.3-0.8s-0.4-0.3-0.7-0.3c-0.5,0-1,0.1-1.4,0.2l-0.2,0l-1-0.2l0.2-4.3
		H23.5z"/>
	<path class="st12" d="M25.4,566.8c0.5-0.7,1.3-1,2.3-1c1,0,1.8,0.3,2.3,1c0.5,0.7,0.8,1.7,0.8,3.2s-0.3,2.5-0.8,3.1
		c-0.5,0.6-1.3,0.9-2.3,0.9c-1,0-1.8-0.3-2.3-0.9s-0.8-1.7-0.8-3.1S24.9,567.4,25.4,566.8z M29.1,569.9c0-1-0.1-1.7-0.3-2.1
		c-0.2-0.4-0.6-0.6-1-0.6c-0.5,0-0.8,0.2-1.1,0.6c-0.2,0.4-0.3,1.1-0.3,2.1c0,1,0.1,1.7,0.3,2.1c0.2,0.4,0.6,0.6,1.1,0.6
		c0.5,0,0.8-0.2,1-0.6S29.1,570.9,29.1,569.9z"/>
</g>
<line class="st10" x1="5.6" y1="570.7" x2="17" y2="570.7"/>
<line class="st10" x1="41.9" y1="570.7" x2="31.4" y2="570.7"/>
<g>
	<path class="st11" d="M19.2,259.1c0.5-0.4,1.2-0.6,2.1-0.6s1.6,0.2,2.1,0.6c0.5,0.4,0.8,0.9,0.8,1.6c0,0.5-0.1,0.8-0.2,1
		c-0.1,0.2-0.3,0.5-0.7,0.8c0.4,0.3,0.6,0.6,0.8,0.8c0.2,0.3,0.2,0.6,0.2,1.1c0,0.8-0.3,1.4-0.8,1.7s-1.3,0.6-2.2,0.6
		c-2,0-3-0.7-3-2.2c0-0.5,0.1-0.9,0.2-1.2s0.4-0.6,0.8-0.9c-0.3-0.3-0.6-0.5-0.7-0.8s-0.2-0.6-0.2-1C18.5,260,18.7,259.5,19.2,259.1
		z M20.1,264.2c0,0.7,0.4,1.1,1.2,1.1s1.2-0.4,1.2-1.1c0-0.4-0.2-0.7-0.7-0.9h-1.1C20.3,263.5,20.1,263.8,20.1,264.2z M21.4,260.1
		c-0.4,0-0.6,0.1-0.8,0.2s-0.3,0.4-0.3,0.7s0.2,0.6,0.6,0.9h1.1c0.4-0.3,0.6-0.6,0.6-0.9C22.5,260.4,22.1,260.1,21.4,260.1z"/>
	<path class="st11" d="M25.8,259.6c0.5-0.7,1.3-1,2.3-1c1,0,1.8,0.3,2.3,1s0.8,1.7,0.8,3.2s-0.3,2.5-0.8,3.1s-1.3,0.9-2.3,0.9
		c-1,0-1.8-0.3-2.3-0.9c-0.5-0.6-0.8-1.7-0.8-3.1S25.3,260.2,25.8,259.6z M29.4,262.7c0-1-0.1-1.7-0.3-2.1c-0.2-0.4-0.6-0.6-1-0.6
		s-0.8,0.2-1.1,0.6c-0.2,0.4-0.3,1.1-0.3,2.1c0,1,0.1,1.7,0.3,2.1s0.6,0.6,1.1,0.6s0.8-0.2,1-0.6S29.4,263.7,29.4,262.7z"/>
</g>
<line class="st10" x1="6.3" y1="263.5" x2="17.3" y2="263.5"/>
<line class="st10" x1="42.7" y1="263.5" x2="32.1" y2="263.5"/>
<path class="st14" d="M19.6,29.6c0,0-0.1,0.2,0.1,0.3c0.1,0.1,0.3,0,0.3,0l4.2-6l4.2-6c0,0,0.1-0.1-0.1-0.2c-0.2-0.1-0.3,0-0.3,0
	l-4.2,6L19.6,29.6z"/>
<circle class="st15" cx="20.5" cy="20.5" r="2.5"/>
<circle class="st15" cx="27.3" cy="27.1" r="2.5"/>
</svg>
