<?xml version="1.0" encoding="UTF-8"?>
<svg id="Livello_1" data-name="Livello 1" xmlns="http://www.w3.org/2000/svg" viewBox="0 0 1080 310">
  <defs>
    <style>
      .cls-1 {
        fill: #4ccc89;
      }

      .cls-1, .cls-2, .cls-3, .cls-4 {
        stroke-width: 0px;
      }

      .cls-2 {
        fill: none;
      }

      .cls-3, .cls-5 {
        fill: #fff;
      }

      .cls-4 {
        fill: #f83e5a;
      }

      .cls-6 {
        letter-spacing: 0em;
      }

      .cls-7 {
        letter-spacing: 0em;
      }

      .cls-5 {
        font-family: TitilliumWeb-Regular, 'Titillium Web';
        font-size: 96px;
        isolation: isolate;
      }
    </style>
  </defs>
  <path class="cls-3" d="m358.59,53.1h20.7v95.1h-20.7V53.1Z"/>
  <path class="cls-3" d="m403.49,143.9c-4-4.2-5.9-10.1-5.9-17.6v-28.6h-9.5v-14.8h9.5v-19.6h20.5v19.6h15.4v14.8h-15.4v25.8c0,3.8.7,6.6,2.2,8.2s4,2.5,7.8,2.5c3,0,5.9-.8,8.6-2.2v15.4c-4.2,1.8-9.4,2.8-15.8,2.8-7.6.1-13.4-2-17.4-6.3Z"/>
  <path class="cls-3" d="m448.99,144.2c-5-4-7.6-9.5-7.5-16.5,0-7.2,2.4-12.9,7.2-16.9,4.8-4,11.6-6,20.4-6,3.8,0,7.5.4,11.2,1.2,3.3.7,6.4,1.8,9.4,3.3v-1.6c0-4.1-1.4-7.1-4.4-9-2.9-1.9-7.3-2.9-13.3-2.9-7.6-.1-15.1,1.4-22,4.5v-15c3.6-1.5,7.4-2.5,11.3-3.2,4.6-.9,9.2-1.3,13.9-1.3,11.8,0,20.6,2.4,26.4,7.3,5.8,4.8,8.7,11.6,8.7,20.3v39.7h-19.4v-6c-5.5,5.3-13,8-22.3,8-8.1.2-14.6-1.8-19.6-5.9Zm34.2-9.4c2.6-1.1,4.8-3,6.4-5.3v-6.5c-4.5-3-9.8-4.6-15.3-4.6-3.8,0-6.7.8-8.8,2.4-2.1,1.7-3.2,4.3-3.1,7-.2,2.6,1,5.1,3,6.7,2,1.5,4.9,2.3,8.6,2.3,3.2-.1,6.3-.8,9.2-2Z"/>
  <path class="cls-3" d="m523.69,47.7h20.5v100.5h-20.5V47.7Z"/>
  <path class="cls-3" d="m561.79,69.7c-2.2-2-3.4-4.9-3.3-7.9-.1-2.9,1.1-5.8,3.3-7.8,4.5-4.2,11.5-4.2,16,0,2.1,2,3.3,4.9,3.3,7.8.1,3-1.1,5.8-3.3,7.9-4.5,4.2-11.5,4.2-16,0Zm-2.3,13.2h20.7v65.3h-20.7v-65.3Z"/>
  <path class="cls-3" d="m600.09,144.2c-5-4-7.5-9.5-7.5-16.5s2.4-12.9,7.2-16.9,11.6-6,20.4-6c3.8,0,7.5.4,11.2,1.2,3.3.7,6.4,1.8,9.4,3.3v-1.6c0-4.1-1.4-7.1-4.3-9-2.9-1.9-7.3-2.9-13.3-2.8-7.6-.1-15.1,1.4-22,4.5v-15.1c3.6-1.5,7.4-2.5,11.3-3.2,4.6-.9,9.2-1.3,13.9-1.3,11.8,0,20.6,2.4,26.4,7.3,5.8,4.8,8.7,11.6,8.7,20.3v39.7h-19.3v-6c-5.5,5.4-13,8.1-22.3,8.1-8.3.1-14.8-1.9-19.8-6Zm34.2-9.4c2.6-1.2,4.8-3,6.4-5.3v-6.5c-4.5-3-9.8-4.6-15.2-4.6-3.8,0-6.7.8-8.8,2.4-2.1,1.7-3.2,4.3-3.1,7-.2,2.6,1,5.1,3,6.7,2,1.5,4.9,2.3,8.6,2.3,3.1-.1,6.2-.8,9.1-2Z"/>
  <path class="cls-3" d="m675.29,53.1h20.4l29.2,63.7,29.4-63.7h20.3v95.1h-19.7v-54l-25.2,54h-9.5l-25-54v54h-19.9V53.1h0Z"/>
  <path class="cls-3" d="m796.89,141.2c-7.2-6-10.7-14.5-10.7-25.4s3.2-19.4,9.6-25.5c6.4-6.3,15.5-9.4,27.4-9.4,7.8,0,14.4,1.4,19.9,4.3,5.2,2.7,9.5,6.9,12.4,12,2.9,5.3,4.3,11.3,4.2,17.3v8.3h-53.8c1.5,8.3,9.3,12.5,23.4,12.5,4.3,0,8.7-.4,12.9-1.1,3.9-.6,7.8-1.6,11.5-3v14.4c-3.9,1.6-8,2.7-12.2,3.3-5,.8-10,1.2-15,1.2-12.6.2-22.4-2.8-29.6-8.9Zm43.3-31.6c-.1-3.9-1.9-7.6-4.9-10.1-3-2.4-7.1-3.6-12.4-3.6s-9.3,1.2-12.2,3.7c-3,2.5-4.8,6.2-4.9,10.1h34.4v-.1Z"/>
  <path class="cls-3" d="m881.09,143.9c-4-4.2-5.9-10.1-5.9-17.6v-28.6h-9.6v-14.8h9.5v-19.6h20.5v19.6h15.4v14.8h-15.4v25.8c0,3.8.7,6.6,2.2,8.2s4,2.5,7.8,2.5c3,0,5.9-.8,8.6-2.2v15.4c-4.2,1.8-9.4,2.8-15.8,2.8-7.6.1-13.4-2-17.3-6.3Z"/>
  <path class="cls-3" d="m931.69,141.2c-7.2-6-10.7-14.5-10.8-25.4,0-10.9,3.2-19.4,9.6-25.5,6.4-6.3,15.5-9.4,27.4-9.4,7.8,0,14.4,1.4,19.9,4.3,5.2,2.7,9.5,6.9,12.3,12,2.9,5.3,4.3,11.3,4.2,17.3v8.3h-53.7c1.4,8.3,9.2,12.5,23.4,12.5,4.3,0,8.6-.4,12.9-1.2,3.9-.6,7.8-1.6,11.6-3v14.4c-3.9,1.6-8,2.7-12.2,3.3-5,.8-10,1.2-15,1.2-12.6.3-22.4-2.7-29.6-8.8Zm43.3-31.6c-.1-3.9-1.9-7.6-4.9-10.1-3-2.4-7.1-3.6-12.4-3.6s-9.3,1.2-12.2,3.7c-3,2.5-4.8,6.2-4.8,10.1l34.3-.1Z"/>
  <path class="cls-3" d="m1021.69,146c-5.7-2.6-10.4-6.8-13.7-12.1-3.3-5.5-5-11.9-4.8-18.3-.1-6.4,1.6-12.6,4.8-18.1,3.3-5.3,8.1-9.6,13.7-12.2,13.2-5.8,28.2-5.8,41.4,0,5.7,2.7,10.4,6.9,13.7,12.2,3.3,5.5,4.9,11.7,4.8,18.1.1,6.4-1.5,12.8-4.8,18.3-3.3,5.3-8,9.5-13.7,12.1-6.5,3-13.5,4.4-20.7,4.3-7.1.1-14.2-1.4-20.7-4.3Zm33.9-16.9c3.3-3.4,4.9-7.9,4.9-13.5s-1.6-10.4-4.8-13.7-7.6-5-13.3-5-10.1,1.7-13.3,5-4.9,7.9-4.9,13.7,1.7,10.1,5,13.5,7.8,5.1,13.3,5.1,9.9-1.7,13.1-5.1Z"/>
  <path class="cls-3" d="m317.79,151.6h-29.6c0-50.1-40.6-90.7-90.7-90.7s-90.7,40.6-90.7,90.7h-29.6c-.1-66.4,53.8-120.3,120.2-120.3s120.3,53.8,120.4,120.3h0Z"/>
  <path class="cls-3" d="m173.49,151.6h-29.6c0-31.1-25.2-56.4-56.4-56.4s-56.4,25.2-56.4,56.4H1.59c1.3-47.5,40.8-85,88.2-83.7,45.8,1.2,82.5,38,83.7,83.7Z"/>
  <polygon class="cls-1" points="87.69 264.4 57.09 264.4 82.29 186.4 112.79 186.4 87.69 264.4"/>
  <polygon class="cls-3" points="146.79 264.4 116.29 264.4 141.39 186.4 171.89 186.4 146.79 264.4"/>
  <polygon class="cls-4" points="205.89 264.4 175.39 264.4 200.49 186.4 231.09 186.4 205.89 264.4"/>
  <rect class="cls-2" x="356.59" y="170.3" width="688" height="105"/>
  <text class="cls-5" transform="translate(350.32 253.2)"><tspan class="cls-6" x="0" y="0">M</tspan><tspan class="cls-7" x="80.16" y="0">e</tspan><tspan x="128.35" y="0">te</tspan><tspan class="cls-6" x="210.53" y="0">o</tspan><tspan x="260.74" y="0">Hub</tspan></text>
</svg>