<?xml version="1.0" encoding="utf-8"?>
<!-- Generator: Adobe Illustrator 28.0.0, SVG Export Plug-In . SVG Version: 6.00 Build 0)  -->
<svg version="1.1" id="Livello_1" xmlns="http://www.w3.org/2000/svg" xmlns:xlink="http://www.w3.org/1999/xlink" x="0px" y="0px"
	 viewBox="0 0 1080 310" style="enable-background:new 0 0 1080 310;" xml:space="preserve">
<style type="text/css">
	.st0{display:none;}
	.st1{fill:#FFFFFF;}
	.st2{fill:#4CCC89;}
	.st3{fill:#F83E5A;}
</style>
<rect class="st0" width="1080" height="319"/>
<path class="st1" d="M357,21.8h20.7v95.1H357V21.8z"/>
<path class="st1" d="M401.9,112.6c-4-4.2-5.9-10.1-5.9-17.6V66.4h-9.5V51.6h9.5V32h20.5v19.6h15.4v14.8h-15.4v25.8
	c0,3.8,0.7,6.6,2.2,8.2s4,2.5,7.8,2.5c3,0,5.9-0.8,8.6-2.2v15.4c-4.2,1.8-9.4,2.8-15.8,2.8C411.7,119,405.9,116.9,401.9,112.6z"/>
<path class="st1" d="M447.4,112.9c-5-4-7.6-9.5-7.5-16.5c0-7.2,2.4-12.9,7.2-16.9c4.8-4,11.6-6,20.4-6c3.8,0,7.5,0.4,11.2,1.2
	c3.3,0.7,6.4,1.8,9.4,3.3v-1.6c0-4.1-1.4-7.1-4.4-9c-2.9-1.9-7.3-2.9-13.3-2.9c-7.6-0.1-15.1,1.4-22,4.5V54
	c3.6-1.5,7.4-2.5,11.3-3.2c4.6-0.9,9.2-1.3,13.9-1.3c11.8,0,20.6,2.4,26.4,7.3c5.8,4.8,8.7,11.6,8.7,20.3v39.7h-19.4v-6
	c-5.5,5.3-13,8-22.3,8C458.9,119,452.4,117,447.4,112.9z M481.6,103.5c2.6-1.1,4.8-3,6.4-5.3v-6.5c-4.5-3-9.8-4.6-15.3-4.6
	c-3.8,0-6.7,0.8-8.8,2.4c-2.1,1.7-3.2,4.3-3.1,7c-0.2,2.6,1,5.1,3,6.7c2,1.5,4.9,2.3,8.6,2.3C475.6,105.4,478.7,104.7,481.6,103.5z"
	/>
<path class="st1" d="M522.1,16.4h20.5v100.5h-20.5V16.4z"/>
<path class="st1" d="M560.2,38.4c-2.2-2-3.4-4.9-3.3-7.9c-0.1-2.9,1.1-5.8,3.3-7.8c4.5-4.2,11.5-4.2,16,0c2.1,2,3.3,4.9,3.3,7.8
	c0.1,3-1.1,5.8-3.3,7.9C571.7,42.6,564.7,42.6,560.2,38.4z M557.9,51.6h20.7v65.3h-20.7V51.6z"/>
<path class="st1" d="M598.5,112.9c-5-4-7.5-9.5-7.5-16.5c0-7.2,2.4-12.9,7.2-16.9s11.6-6,20.4-6c3.8,0,7.5,0.4,11.2,1.2
	c3.3,0.7,6.4,1.8,9.4,3.3v-1.6c0-4.1-1.4-7.1-4.3-9c-2.9-1.9-7.3-2.9-13.3-2.8c-7.6-0.1-15.1,1.4-22,4.5V54
	c3.6-1.5,7.4-2.5,11.3-3.2c4.6-0.9,9.2-1.3,13.9-1.3c11.8,0,20.6,2.4,26.4,7.3c5.8,4.8,8.7,11.6,8.7,20.3v39.7h-19.3v-6
	c-5.5,5.4-13,8.1-22.3,8.1C610,119,603.5,117,598.5,112.9z M632.7,103.5c2.6-1.2,4.8-3,6.4-5.3v-6.5c-4.5-3-9.8-4.6-15.2-4.6
	c-3.8,0-6.7,0.8-8.8,2.4c-2.1,1.7-3.2,4.3-3.1,7c-0.2,2.6,1,5.1,3,6.7c2,1.5,4.9,2.3,8.6,2.3C626.7,105.4,629.8,104.7,632.7,103.5z"
	/>
<path class="st1" d="M673.7,21.8h20.4l29.2,63.7l29.4-63.7H773v95.1h-19.7v-54l-25.2,54h-9.5l-25-54v54h-19.9L673.7,21.8L673.7,21.8
	z"/>
<path class="st1" d="M795.3,109.9c-7.2-6-10.7-14.5-10.7-25.4s3.2-19.4,9.6-25.5c6.4-6.3,15.5-9.4,27.4-9.4c7.8,0,14.4,1.4,19.9,4.3
	c5.2,2.7,9.5,6.9,12.4,12c2.9,5.3,4.3,11.3,4.2,17.3v8.3h-53.8c1.5,8.3,9.3,12.5,23.4,12.5c4.3,0,8.7-0.4,12.9-1.1
	c3.9-0.6,7.8-1.6,11.5-3v14.4c-3.9,1.6-8,2.7-12.2,3.3c-5,0.8-10,1.2-15,1.2C812.3,119,802.5,116,795.3,109.9z M838.6,78.3
	c-0.1-3.9-1.9-7.6-4.9-10.1c-3-2.4-7.1-3.6-12.4-3.6c-5.3,0-9.3,1.2-12.2,3.7c-3,2.5-4.8,6.2-4.9,10.1L838.6,78.3L838.6,78.3z"/>
<path class="st1" d="M879.5,112.6c-4-4.2-5.9-10.1-5.9-17.6V66.4H864V51.6h9.5V32H894v19.6h15.4v14.8H894v25.8
	c0,3.8,0.7,6.6,2.2,8.2s4,2.5,7.8,2.5c3,0,5.9-0.8,8.6-2.2v15.4c-4.2,1.8-9.4,2.8-15.8,2.8C889.2,119,883.4,116.9,879.5,112.6z"/>
<path class="st1" d="M930.1,109.9c-7.2-6-10.7-14.5-10.8-25.4c0-10.9,3.2-19.4,9.6-25.5c6.4-6.3,15.5-9.4,27.4-9.4
	c7.8,0,14.4,1.4,19.9,4.3c5.2,2.7,9.5,6.9,12.3,12c2.9,5.3,4.3,11.3,4.2,17.3v8.3H939c1.4,8.3,9.2,12.5,23.4,12.5
	c4.3,0,8.6-0.4,12.9-1.2c3.9-0.6,7.8-1.6,11.6-3v14.4c-3.9,1.6-8,2.7-12.2,3.3c-5,0.8-10,1.2-15,1.2
	C947.1,119,937.3,116,930.1,109.9z M973.4,78.3c-0.1-3.9-1.9-7.6-4.9-10.1c-3-2.4-7.1-3.6-12.4-3.6c-5.3,0-9.3,1.2-12.2,3.7
	c-3,2.5-4.8,6.2-4.8,10.1L973.4,78.3z"/>
<path class="st1" d="M1020.1,114.7c-5.7-2.6-10.4-6.8-13.7-12.1c-3.3-5.5-5-11.9-4.8-18.3c-0.1-6.4,1.6-12.6,4.8-18.1
	c3.3-5.3,8.1-9.6,13.7-12.2c13.2-5.8,28.2-5.8,41.4,0c5.7,2.7,10.4,6.9,13.7,12.2c3.3,5.5,4.9,11.7,4.8,18.1
	c0.1,6.4-1.5,12.8-4.8,18.3c-3.3,5.3-8,9.5-13.7,12.1c-6.5,3-13.5,4.4-20.7,4.3C1033.7,119.1,1026.6,117.6,1020.1,114.7z M1054,97.8
	c3.3-3.4,4.9-7.9,4.9-13.5c0-5.8-1.6-10.4-4.8-13.7s-7.6-5-13.3-5c-5.6,0-10.1,1.7-13.3,5s-4.9,7.9-4.9,13.7c0,5.6,1.7,10.1,5,13.5
	s7.8,5.1,13.3,5.1C1046.4,102.9,1050.8,101.2,1054,97.8z"/>
<path class="st1" d="M316.2,120.3h-29.6c0-50.1-40.6-90.7-90.7-90.7s-90.7,40.6-90.7,90.7H75.6C75.5,53.9,129.4,0,195.8,0
	S316.1,53.8,316.2,120.3L316.2,120.3L316.2,120.3z"/>
<path class="st1" d="M171.9,120.3h-29.6c0-31.1-25.2-56.4-56.4-56.4s-56.4,25.2-56.4,56.4l0,0H0c1.3-47.5,40.8-85,88.2-83.7
	C134,37.8,170.7,74.6,171.9,120.3z"/>
<polygon class="st2" points="86.1,233.1 55.5,233.1 80.7,155.1 111.2,155.1 "/>
<polygon class="st1" points="145.2,233.1 114.7,233.1 139.8,155.1 170.3,155.1 "/>
<polygon class="st3" points="204.3,233.1 173.8,233.1 198.9,155.1 229.5,155.1 "/>
<g>
	<path class="st1" d="M356,443.1v-76.8h15.4l21.8,64.9l21.8-64.9h15.4v76.8h-8.5v-67.7h-1.6L398,440.3h-9.5l-22.3-64.9h-1.6v67.7
		L356,443.1L356,443.1z"/>
	<path class="st1" d="M485,436.2l3.2-0.3l0.2,6.5c-8.4,1.2-15.7,1.8-21.6,1.8c-8,0-13.7-2.3-17-6.9c-3.3-4.6-5-11.8-5-21.6
		c0-19.5,7.7-29.2,23.2-29.2c7.5,0,13.1,2.1,16.8,6.3c3.7,4.2,5.6,10.8,5.6,19.7l-0.4,6.3h-36.6c0,6.1,1.1,10.7,3.3,13.7
		c2.2,3,6.1,4.4,11.6,4.4C473.8,436.9,479.4,436.7,485,436.2z M482,412.2c0-6.8-1.1-11.6-3.3-14.4s-5.7-4.2-10.7-4.2
		c-4.9,0-8.6,1.5-11.1,4.4c-2.5,3-3.8,7.7-3.8,14.2H482z"/>
	<path class="st1" d="M531.8,394.8h-17.6v26.5c0,6.4,0.5,10.5,1.4,12.5s3.1,3,6.6,3l9.9-0.7l0.6,6.9c-5,0.8-8.7,1.2-11.3,1.2
		c-5.8,0-9.8-1.4-12-4.2s-3.3-8.2-3.3-16.1v-29.2h-7.9v-7.2h7.9v-17h8.2v17h17.6v7.3H531.8z"/>
	<path class="st1" d="M579.8,436.2l3.2-0.3l0.2,6.5c-8.4,1.2-15.7,1.8-21.6,1.8c-8,0-13.7-2.3-17-6.9c-3.3-4.6-5-11.8-5-21.6
		c0-19.5,7.7-29.2,23.2-29.2c7.5,0,13.1,2.1,16.8,6.3c3.7,4.2,5.5,10.8,5.5,19.7l-0.4,6.3h-36.6c0,6.1,1.1,10.7,3.3,13.7
		s6.1,4.4,11.6,4.4S574.1,436.7,579.8,436.2z M576.8,412.2c0-6.8-1.1-11.6-3.3-14.4s-5.7-4.2-10.7-4.2c-4.9,0-8.6,1.5-11.1,4.4
		c-2.5,3-3.8,7.7-3.8,14.2H576.8z"/>
	<path class="st1" d="M595.7,415.3c0-10.1,1.8-17.5,5.4-22c3.6-4.5,9.7-6.8,18.4-6.8c8.6,0,14.7,2.3,18.3,6.8s5.4,11.8,5.4,22
		c0,10.1-1.7,17.5-5.1,22.1c-3.4,4.6-9.6,6.9-18.6,6.9s-15.2-2.3-18.6-6.9C597.4,432.8,595.7,425.4,595.7,415.3z M604.2,415.1
		c0,8.1,1,13.8,2.9,17c2,3.3,6.1,4.9,12.3,4.9c6.3,0,10.3-1.6,12.3-4.8c1.9-3.2,2.9-8.9,2.9-17c0-8.1-1.1-13.7-3.2-16.8
		c-2.1-3.1-6.1-4.6-11.9-4.6c-5.8,0-9.8,1.5-12,4.6C605.2,401.4,604.2,407,604.2,415.1z"/>
	<path class="st1" d="M705.2,443.1v-34.7h-39.1v34.7h-8.5v-76.8h8.5v34.4h39.1v-34.4h8.4v76.8L705.2,443.1L705.2,443.1z"/>
	<path class="st1" d="M765.7,387.6h8.3v55.5h-8.3v-3.9c-5.5,3.3-11,5-16.4,5c-7.5,0-12.6-2-15-5.9c-2.5-3.9-3.7-11.2-3.7-21.8v-29
		h8.3v28.9c0,8.1,0.7,13.5,2.1,16.2c1.4,2.7,4.6,4.1,9.5,4.1c2.4,0,4.9-0.4,7.4-1.1c2.5-0.7,4.4-1.4,5.8-2.1l2-1L765.7,387.6
		L765.7,387.6z"/>
	<path class="st1" d="M814.6,386.5c7.5,0,12.7,2.1,15.7,6.4c3,4.3,4.5,11.7,4.5,22.4s-1.9,18.1-5.6,22.5c-3.7,4.3-10.6,6.5-20.6,6.5
		c-3.1,0-8.3-0.3-15.4-0.9l-3.1-0.3v-79.6h8.2v27C803.9,387.8,809.2,386.5,814.6,386.5z M808.5,436.8c7.3,0,12-1.6,14.4-4.9
		c2.3-3.3,3.5-8.9,3.5-16.7s-0.9-13.3-2.8-16.5c-1.9-3.1-5.1-4.7-9.9-4.7c-4.3,0-8.7,0.8-13.2,2.4l-2.2,0.8v39.1
		C803.1,436.6,806.5,436.8,808.5,436.8z"/>
	<g>
		<path class="st2" d="M364.9,229.1V162h13.5l19,56.7l19-56.7h13.5v67.1h-7.5V170h-1.4l-19.5,56.7h-8.3L373.8,170h-1.4v59.2H364.9z"
			/>
		<path class="st2" d="M446.4,229.1V162h40.8v6.6h-33.4v23.2h27.5v6.5h-27.5v24.2h33.4v6.6H446.4z"/>
		<path class="st2" d="M493.1,168.7V162h48.5v6.7h-20.5v60.4h-7.4v-60.4H493.1z"/>
		<path class="st2" d="M551.1,229.1V162h40.8v6.6h-33.4v23.2h27.5v6.5h-27.5v24.2h33.4v6.6H551.1z"/>
		<path class="st2" d="M654.3,196.1c0,12-1.9,20.6-5.7,26c-3.8,5.4-10.8,8.1-20.8,8.1c-10.1,0-17-2.7-20.8-8.2
			c-3.8-5.5-5.7-14.1-5.7-25.9c0-11.8,1.9-20.6,5.8-26.3c3.9-5.7,10.8-8.6,20.7-8.6c9.9,0,16.8,2.8,20.7,8.5
			C652.3,175.3,654.3,184.1,654.3,196.1z M608.9,195.9c0,9.8,1.3,16.9,3.9,21.2c2.6,4.3,7.6,6.5,15,6.5c7.4,0,12.4-2.1,14.9-6.3
			c2.6-4.2,3.8-11.3,3.8-21.1c0-9.9-1.3-17.1-4-21.6c-2.7-4.5-7.6-6.8-14.9-6.8c-7.3,0-12.2,2.2-14.8,6.7
			C610.2,178.9,608.9,186,608.9,195.9z"/>
		<path class="st2" d="M709.6,229.1v-30.4h-34.1v30.4H668V162h7.5v30.1h34.1V162h7.4v67.1H709.6z"/>
		<path class="st2" d="M740.4,209c0,9.7,5.2,14.5,15.7,14.5c5.4,0,9.5-1.1,12.3-3.4c2.7-2.3,4.1-6,4.1-11.1V162h7.4v46.8
			c0,7.5-2,12.9-6,16.3c-4,3.4-9.8,5-17.6,5c-7.8,0-13.6-1.7-17.5-5c-3.9-3.4-5.9-8.8-5.9-16.3V162h7.5V209z"/>
		<path class="st2" d="M795.9,162h24.3c6.7,0,11.7,1.4,15,4.1c3.3,2.8,5,7.1,5,13c0,4.2-0.7,7.5-2.2,9.8c-1.5,2.4-3.6,4.2-6.5,5.6
			c7.1,2.5,10.7,7.7,10.7,15.8c0,6.7-1.8,11.5-5.3,14.5c-3.6,2.9-8.7,4.4-15.4,4.4h-25.6V162z M820,168.6h-16.6v23.2h17.3
			c4.1,0,7.2-1,9.1-3c1.9-2,2.9-4.9,2.9-8.9s-1-6.9-3.1-8.6C827.5,169.5,824.3,168.6,820,168.6z M820.7,198.3h-17.4v24.2h17.8
			c4.4,0,7.7-0.9,10-2.8c2.3-1.8,3.4-5.1,3.4-9.7c0-2.5-0.5-4.5-1.4-6.2c-0.9-1.7-2.2-2.9-3.7-3.6
			C826.7,198.9,823.8,198.3,820.7,198.3z"/>
	</g>
</g>
</svg>
