<?xml version="1.0" encoding="utf-8"?>
<!-- Generator: Adobe Illustrator 28.0.0, SVG Export Plug-In . SVG Version: 6.00 Build 0)  -->
<svg version="1.1" id="Livello_1" xmlns="http://www.w3.org/2000/svg" xmlns:xlink="http://www.w3.org/1999/xlink" x="0px" y="0px"
	 viewBox="0 0 1080 310" style="enable-background:new 0 0 1080 310;" xml:space="preserve">
<style type="text/css">
	.st0{display:none;}
	.st1{fill:#FFFFFF;}
	.st2{fill:#4CCC89;}
	.st3{fill:#F83E5A;}
</style>
<rect class="st0" width="1080" height="319"/>
<path class="st1" d="M357,21.8h20.7v95.1H357V21.8z"/>
<path class="st1" d="M401.9,112.6c-4-4.2-5.9-10.1-5.9-17.6V66.4h-9.5V51.6h9.5V32h20.5v19.6h15.4v14.8h-15.4v25.8
	c0,3.8,0.7,6.6,2.2,8.2s4,2.5,7.8,2.5c3,0,5.9-0.8,8.6-2.2v15.4c-4.2,1.8-9.4,2.8-15.8,2.8C411.7,119,405.9,116.9,401.9,112.6z"/>
<path class="st1" d="M447.4,112.9c-5-4-7.6-9.5-7.5-16.5c0-7.2,2.4-12.9,7.2-16.9c4.8-4,11.6-6,20.4-6c3.8,0,7.5,0.4,11.2,1.2
	c3.3,0.7,6.4,1.8,9.4,3.3v-1.6c0-4.1-1.4-7.1-4.4-9c-2.9-1.9-7.3-2.9-13.3-2.9c-7.6-0.1-15.1,1.4-22,4.5V54
	c3.6-1.5,7.4-2.5,11.3-3.2c4.6-0.9,9.2-1.3,13.9-1.3c11.8,0,20.6,2.4,26.4,7.3c5.8,4.8,8.7,11.6,8.7,20.3v39.7h-19.4v-6
	c-5.5,5.3-13,8-22.3,8C458.9,119,452.4,117,447.4,112.9z M481.6,103.5c2.6-1.1,4.8-3,6.4-5.3v-6.5c-4.5-3-9.8-4.6-15.3-4.6
	c-3.8,0-6.7,0.8-8.8,2.4c-2.1,1.7-3.2,4.3-3.1,7c-0.2,2.6,1,5.1,3,6.7c2,1.5,4.9,2.3,8.6,2.3C475.6,105.4,478.7,104.7,481.6,103.5z"
	/>
<path class="st1" d="M522.1,16.4h20.5v100.5h-20.5V16.4z"/>
<path class="st1" d="M560.2,38.4c-2.2-2-3.4-4.9-3.3-7.9c-0.1-2.9,1.1-5.8,3.3-7.8c4.5-4.2,11.5-4.2,16,0c2.1,2,3.3,4.9,3.3,7.8
	c0.1,3-1.1,5.8-3.3,7.9C571.7,42.6,564.7,42.6,560.2,38.4z M557.9,51.6h20.7v65.3h-20.7V51.6z"/>
<path class="st1" d="M598.5,112.9c-5-4-7.5-9.5-7.5-16.5c0-7.2,2.4-12.9,7.2-16.9s11.6-6,20.4-6c3.8,0,7.5,0.4,11.2,1.2
	c3.3,0.7,6.4,1.8,9.4,3.3v-1.6c0-4.1-1.4-7.1-4.3-9c-2.9-1.9-7.3-2.9-13.3-2.8c-7.6-0.1-15.1,1.4-22,4.5V54
	c3.6-1.5,7.4-2.5,11.3-3.2c4.6-0.9,9.2-1.3,13.9-1.3c11.8,0,20.6,2.4,26.4,7.3c5.8,4.8,8.7,11.6,8.7,20.3v39.7h-19.3v-6
	c-5.5,5.4-13,8.1-22.3,8.1C610,119,603.5,117,598.5,112.9z M632.7,103.5c2.6-1.2,4.8-3,6.4-5.3v-6.5c-4.5-3-9.8-4.6-15.2-4.6
	c-3.8,0-6.7,0.8-8.8,2.4c-2.1,1.7-3.2,4.3-3.1,7c-0.2,2.6,1,5.1,3,6.7c2,1.5,4.9,2.3,8.6,2.3C626.7,105.4,629.8,104.7,632.7,103.5z"
	/>
<path class="st1" d="M673.7,21.8h20.4l29.2,63.7l29.4-63.7H773v95.1h-19.7v-54l-25.2,54h-9.5l-25-54v54h-19.9L673.7,21.8L673.7,21.8
	z"/>
<path class="st1" d="M795.3,109.9c-7.2-6-10.7-14.5-10.7-25.4s3.2-19.4,9.6-25.5c6.4-6.3,15.5-9.4,27.4-9.4c7.8,0,14.4,1.4,19.9,4.3
	c5.2,2.7,9.5,6.9,12.4,12c2.9,5.3,4.3,11.3,4.2,17.3v8.3h-53.8c1.5,8.3,9.3,12.5,23.4,12.5c4.3,0,8.7-0.4,12.9-1.1
	c3.9-0.6,7.8-1.6,11.5-3v14.4c-3.9,1.6-8,2.7-12.2,3.3c-5,0.8-10,1.2-15,1.2C812.3,119,802.5,116,795.3,109.9z M838.6,78.3
	c-0.1-3.9-1.9-7.6-4.9-10.1c-3-2.4-7.1-3.6-12.4-3.6c-5.3,0-9.3,1.2-12.2,3.7c-3,2.5-4.8,6.2-4.9,10.1L838.6,78.3L838.6,78.3z"/>
<path class="st1" d="M879.5,112.6c-4-4.2-5.9-10.1-5.9-17.6V66.4H864V51.6h9.5V32H894v19.6h15.4v14.8H894v25.8
	c0,3.8,0.7,6.6,2.2,8.2s4,2.5,7.8,2.5c3,0,5.9-0.8,8.6-2.2v15.4c-4.2,1.8-9.4,2.8-15.8,2.8C889.2,119,883.4,116.9,879.5,112.6z"/>
<path class="st1" d="M930.1,109.9c-7.2-6-10.7-14.5-10.8-25.4c0-10.9,3.2-19.4,9.6-25.5c6.4-6.3,15.5-9.4,27.4-9.4
	c7.8,0,14.4,1.4,19.9,4.3c5.2,2.7,9.5,6.9,12.3,12c2.9,5.3,4.3,11.3,4.2,17.3v8.3H939c1.4,8.3,9.2,12.5,23.4,12.5
	c4.3,0,8.6-0.4,12.9-1.2c3.9-0.6,7.8-1.6,11.6-3v14.4c-3.9,1.6-8,2.7-12.2,3.3c-5,0.8-10,1.2-15,1.2
	C947.1,119,937.3,116,930.1,109.9z M973.4,78.3c-0.1-3.9-1.9-7.6-4.9-10.1c-3-2.4-7.1-3.6-12.4-3.6c-5.3,0-9.3,1.2-12.2,3.7
	c-3,2.5-4.8,6.2-4.8,10.1L973.4,78.3z"/>
<path class="st1" d="M1020.1,114.7c-5.7-2.6-10.4-6.8-13.7-12.1c-3.3-5.5-5-11.9-4.8-18.3c-0.1-6.4,1.6-12.6,4.8-18.1
	c3.3-5.3,8.1-9.6,13.7-12.2c13.2-5.8,28.2-5.8,41.4,0c5.7,2.7,10.4,6.9,13.7,12.2c3.3,5.5,4.9,11.7,4.8,18.1
	c0.1,6.4-1.5,12.8-4.8,18.3c-3.3,5.3-8,9.5-13.7,12.1c-6.5,3-13.5,4.4-20.7,4.3C1033.7,119.1,1026.6,117.6,1020.1,114.7z M1054,97.8
	c3.3-3.4,4.9-7.9,4.9-13.5c0-5.8-1.6-10.4-4.8-13.7s-7.6-5-13.3-5c-5.6,0-10.1,1.7-13.3,5s-4.9,7.9-4.9,13.7c0,5.6,1.7,10.1,5,13.5
	s7.8,5.1,13.3,5.1C1046.4,102.9,1050.8,101.2,1054,97.8z"/>
<path class="st1" d="M316.2,120.3h-29.6c0-50.1-40.6-90.7-90.7-90.7s-90.7,40.6-90.7,90.7H75.6C75.5,53.9,129.4,0,195.8,0
	S316.1,53.8,316.2,120.3L316.2,120.3L316.2,120.3z"/>
<path class="st1" d="M171.9,120.3h-29.6c0-31.1-25.2-56.4-56.4-56.4s-56.4,25.2-56.4,56.4l0,0H0c1.3-47.5,40.8-85,88.2-83.7
	C134,37.8,170.7,74.6,171.9,120.3z"/>
<polygon class="st2" points="86.1,233.1 55.5,233.1 80.7,155.1 111.2,155.1 "/>
<polygon class="st1" points="145.2,233.1 114.7,233.1 139.8,155.1 170.3,155.1 "/>
<polygon class="st3" points="204.3,233.1 173.8,233.1 198.9,155.1 229.5,155.1 "/>
<g>
	<g>
		<path class="st1" d="M357,232.2V155h15.5l21.9,65.2l21.9-65.2h15.5v77.2h-8.6v-68h-1.6l-22.4,65.2h-9.5l-22.3-65.2h-1.6v68.1H357
			V232.2z"/>
		<path class="st1" d="M450.8,232.2V155h46.9v7.6h-38.4v26.7h31.6v7.5h-31.6v27.8h38.4v7.6H450.8z"/>
		<path class="st1" d="M504.5,162.7V155h55.8v7.7h-23.6v69.5h-8.5v-69.5L504.5,162.7L504.5,162.7z"/>
		<path class="st1" d="M571.2,232.2V155h46.9v7.6h-38.4v26.7h31.6v7.5h-31.6v27.8h38.4v7.6H571.2z"/>
		<path class="st1" d="M690,194.2c0,13.8-2.2,23.7-6.6,29.9c-4.4,6.2-12.4,9.3-23.9,9.3c-11.6,0-19.6-3.1-23.9-9.4
			c-4.4-6.3-6.6-16.2-6.6-29.8c0-13.6,2.2-23.7,6.7-30.3c4.5-6.6,12.4-9.9,23.8-9.9s19.3,3.2,23.8,9.8
			C687.7,170.3,690,180.4,690,194.2z M637.7,194c0,11.3,1.5,19.4,4.5,24.4c3,4.9,8.7,7.5,17.3,7.5c8.5,0,14.3-2.4,17.1-7.2
			c3-4.8,4.4-13,4.4-24.3c0-11.4-1.5-19.7-4.6-24.9c-3.1-5.2-8.7-7.8-17.1-7.8c-8.4,0-14,2.5-17,7.7
			C639.2,174.4,637.7,182.6,637.7,194z"/>
		<path class="st1" d="M753.6,232.2v-35h-39.2v35h-8.6V155h8.6v34.6h39.2V155h8.5v77.2H753.6z"/>
		<path class="st1" d="M789,209.1c0,11.2,6,16.7,18.1,16.7c6.2,0,10.9-1.3,14.2-3.9c3.1-2.6,4.7-6.9,4.7-12.8V155h8.5v53.8
			c0,8.6-2.3,14.8-6.9,18.8c-4.6,3.9-11.3,5.8-20.3,5.8c-9,0-15.6-2-20.1-5.8c-4.5-3.9-6.8-10.1-6.8-18.8V155h8.6V209.1z"/>
		<path class="st1" d="M852.9,155h28c7.7,0,13.5,1.6,17.3,4.7c3.8,3.2,5.8,8.2,5.8,15c0,4.8-0.8,8.6-2.5,11.3
			c-1.7,2.8-4.1,4.8-7.5,6.4c8.2,2.9,12.3,8.9,12.3,18.2c0,7.7-2.1,13.2-6.1,16.7c-4.1,3.3-10,5.1-17.7,5.1h-29.5V155z M880.6,162.6
			h-19.1v26.7h19.9c4.7,0,8.3-1.2,10.5-3.5c2.2-2.3,3.3-5.6,3.3-10.2s-1.2-7.9-3.6-9.9C889.3,163.6,885.6,162.6,880.6,162.6z
			 M881.4,196.8h-20v27.8h20.5c5.1,0,8.9-1,11.5-3.2c2.6-2.1,3.9-5.9,3.9-11.2c0-2.9-0.6-5.2-1.6-7.1c-1-2-2.5-3.3-4.3-4.1
			C888.3,197.5,885,196.8,881.4,196.8z"/>
	</g>
</g>
</svg>
