<?xml version="1.0" encoding="utf-8"?>
<!-- Generator: Adobe Illustrator 27.7.0, SVG Export Plug-In . SVG Version: 6.00 Build 0)  -->
<svg version="1.1" id="Livello_1" xmlns="http://www.w3.org/2000/svg" xmlns:xlink="http://www.w3.org/1999/xlink" x="0px" y="0px"
	width="38px" height="644px" viewBox="0 0 37.2 644.1" style="enable-background:new 0 0 37.2 644.1;" xml:space="preserve">
<style type="text/css">
	.st0{display:none;}
	.st1{display:inline;}
	.st2{clip-path:url(#SVGID_00000000203184982986589450000007574575221504001717_);fill:#C8E8F0;}
	.st3{clip-path:url(#SVGID_00000167379960559622111910000015116649347241630095_);fill:#D0EBF7;}
	.st4{clip-path:url(#SVGID_00000146459393868110291750000000457525585669155214_);fill:#4898DA;}
	.st5{clip-path:url(#SVGID_00000044156876162978864010000005503425509183245964_);fill:#A3A5D7;}
	.st6{clip-path:url(#SVGID_00000157994561170534417750000011794528318758123951_);fill:#B988C1;}
	.st7{clip-path:url(#SVGID_00000042702785540243396240000016924832290962648206_);fill:#D7A2CD;}
	.st8{clip-path:url(#SVGID_00000150808729888287615650000016146601457020318143_);fill:#E8BEDB;}
	.st9{clip-path:url(#SVGID_00000132060672473406789960000008470344120094693792_);fill:#E67D9B;}
	.st10{clip-path:url(#SVGID_00000057135463920888985610000002030992214318057405_);fill:#DB4C4D;}
	.st11{clip-path:url(#SVGID_00000083079469953731378510000016667501466174124447_);fill:#EF5A5C;}
	.st12{clip-path:url(#SVGID_00000099634505879378324650000009246414912398797214_);fill:#F7A25C;}
	.st13{clip-path:url(#SVGID_00000121267921191378945830000015271533071140973973_);fill:#FDD58F;}
	.st14{clip-path:url(#SVGID_00000087395408813507986190000009149497553133109677_);fill:#FFE173;}
	.st15{clip-path:url(#SVGID_00000168098241946454264880000003983830446045094297_);fill:#FEFE82;}
	.st16{clip-path:url(#SVGID_00000172437715688457841060000014787786500308970921_);fill:#FFFFC7;}
	.st17{clip-path:url(#SVGID_00000136397385247343032740000015560644781560919472_);fill:#F3F3A1;}
	.st18{clip-path:url(#SVGID_00000127729759427591017550000003511382359336274820_);fill:#D3ECA4;}
	.st19{clip-path:url(#SVGID_00000044867300857270505040000005448582538084436135_);fill:#C3E6D8;}
	.st20{clip-path:url(#SVGID_00000076598640179209145090000009981123390655802521_);fill:#C8E8F0;}
	.st21{clip-path:url(#SVGID_00000123407139748950505290000007947077802705249941_);fill:#D0EBF7;}
	.st22{clip-path:url(#SVGID_00000036954988620446863400000014837014230379036856_);fill:#EC2426;}
	.st23{clip-path:url(#SVGID_00000136390327971026787210000005999886504515601060_);fill:#FCFC1E;}
	.st24{clip-path:url(#SVGID_00000183227567194129301890000004801868498050506171_);fill:#0B7F3F;}
	.st25{clip-path:url(#SVGID_00000146465108571031954890000014427719130512586906_);fill:#F7A426;}
	.st26{clip-path:url(#SVGID_00000115503994857464013420000013728335289533078926_);fill:#6FC9DC;}
	.st27{clip-path:url(#SVGID_00000083779880495695999960000005111950280202963594_);fill:#3F57B0;}
	.st28{fill:#39322E;}
	.st29{fill:none;stroke:#3C3430;stroke-width:2.9317;stroke-miterlimit:9.7722;}
	.st30{fill:#FFFFFF;}
	.st31{fill:none;}
	.st32{clip-path:url(#SVGID_00000088126871036895500100000009002470454023776441_);fill:#FFFAFA;}
	.st33{clip-path:url(#SVGID_00000127751133882416732450000011588911732620771998_);fill:#FBD5D6;}
	.st34{clip-path:url(#SVGID_00000055695166003525394760000010621516137071779511_);fill:#F9C1C2;}
	.st35{clip-path:url(#SVGID_00000034087098450135706220000009406763776091077274_);fill:#FDEBEB;}
	.st36{clip-path:url(#SVGID_00000032648321999877518300000017250847692664365475_);fill:#F6ABAD;}
	.st37{clip-path:url(#SVGID_00000082359513581541121340000012238270353859817614_);fill:#F49799;}
	.st38{fill:#3C3530;}
	.st39{enable-background:new    ;}
</style>
<circle class="st28" cx="18.6" cy="20.6" r="14.6"/>
<path class="st29" d="M30.4,632.2c-0.3,3.7-6.3,8.1-11.6,8.1l0,0c-5.2,0.4-12.2-3.5-12.2-8.1V48.9c1.1-5.3,7.2-8.4,11.5-8.4l0,0
	c4.8,0,11.1,3.2,12.4,8.7L30.4,632.2L30.4,632.2z"/>
<g>
	<path class="st30" d="M12.4,28.5h12.4c2.6,0,4.8-1.8,5.3-4.2c0.3-1.6-0.1-3.2-1.1-4.4c-0.9-1-2.1-1.7-3.4-1.9v-1.2
		c0-4.2-3.8-7.5-7.9-7c-3.5,0.4-6.2,3.5-6.2,7.3V18c-1.1,0.1-2.2,0.7-3,1.5c-1.2,1.2-1.7,2.9-1.5,4.6C7.4,26.5,9.9,28.5,12.4,28.5z
		 M9.5,20.5c0.7-0.7,1.7-1.1,2.7-1.1c0.4,0,0.7-0.3,0.7-0.7v-1.6c0-3.1,2.5-5.9,5.7-5.9c3.1,0,5.7,2.6,5.7,5.7v1.8
		c0,0.4,0.3,0.7,0.7,0.7c1.2,0,2.3,0.5,3,1.4s1,2.1,0.8,3.3c-0.4,1.8-2,3.1-4,3.1H12.4c-1.8,0-3.7-1.5-4-3.2
		C8.2,22.6,8.6,21.4,9.5,20.5z"/>
</g>
<rect x="13.8" y="28.5" class="st31" width="9.5" height="5.3"/>
<g>
	<g>
		<g>
			<g>
				<g>
					<defs>
						<path id="SVGID_00000047769885276943937290000018384171931531085209_" d="M30.5,631.9c-0.4,3.7-6.3,8.1-11.5,8.1l0,0
							c-5.1,0.4-12.2-3.6-12.2-8.1V48.7c1.1-5.4,7.3-8.4,11.4-8.4l0,0c4.8,0,11.1,3.2,12.3,8.7V631.9L30.5,631.9z"/>
					</defs>
					<clipPath id="SVGID_00000072239251826742769320000011359716414397008786_">
						<use xlink:href="#SVGID_00000047769885276943937290000018384171931531085209_"  style="overflow:visible;"/>
					</clipPath>
					
						<rect x="1" y="539.3" style="clip-path:url(#SVGID_00000072239251826742769320000011359716414397008786_);fill:#FFFAFA;" width="35.3" height="107.3"/>
				</g>
			</g>
		</g>
		<g>
			<g>
				<g>
					<defs>
						<path id="SVGID_00000001626954165954897320000004871595757914307503_" d="M30.5,631.9c-0.4,3.7-6.3,8.1-11.5,8.1l0,0
							c-5.1,0.4-12.2-3.6-12.2-8.1V48.7c1.1-5.4,7.3-8.4,11.4-8.4l0,0c4.8,0,11.1,3.2,12.3,8.7V631.9L30.5,631.9z"/>
					</defs>
					<clipPath id="SVGID_00000134931207045836062030000008740071527659046529_">
						<use xlink:href="#SVGID_00000001626954165954897320000004871595757914307503_"  style="overflow:visible;"/>
					</clipPath>
					
						<rect x="1.4" y="344.2" style="clip-path:url(#SVGID_00000134931207045836062030000008740071527659046529_);fill:#FBD5D6;" width="35.3" height="97.6"/>
				</g>
			</g>
		</g>
		<g>
			<g>
				<g>
					<defs>
						<path id="SVGID_00000098906306335267744180000008724736663584072072_" d="M30.5,631.9c-0.4,3.7-6.3,8.1-11.5,8.1l0,0
							c-5.1,0.4-12.2-3.6-12.2-8.1V48.7c1.1-5.4,7.3-8.4,11.4-8.4l0,0c4.8,0,11.1,3.2,12.3,8.7V631.9L30.5,631.9z"/>
					</defs>
					<clipPath id="SVGID_00000075150401360092626570000004881103935103892641_">
						<use xlink:href="#SVGID_00000098906306335267744180000008724736663584072072_"  style="overflow:visible;"/>
					</clipPath>
					
						<rect x="1.4" y="246.6" style="clip-path:url(#SVGID_00000075150401360092626570000004881103935103892641_);fill:#F9C1C2;" width="35.3" height="97.6"/>
				</g>
			</g>
		</g>
		<g>
			<g>
				<g>
					<defs>
						<path id="SVGID_00000010312098396889505920000009759118701437858704_" d="M30.5,631.9c-0.4,3.7-6.3,8.1-11.5,8.1l0,0
							c-5.1,0.4-12.2-3.6-12.2-8.1V48.7c1.1-5.4,7.3-8.4,11.4-8.4l0,0c4.8,0,11.1,3.2,12.3,8.7V631.9L30.5,631.9z"/>
					</defs>
					<clipPath id="SVGID_00000174573879253989056520000004179546888447969982_">
						<use xlink:href="#SVGID_00000010312098396889505920000009759118701437858704_"  style="overflow:visible;"/>
					</clipPath>
					
						<rect x="1" y="441.7" style="clip-path:url(#SVGID_00000174573879253989056520000004179546888447969982_);fill:#FDEBEB;" width="35.3" height="97.6"/>
				</g>
			</g>
		</g>
		<g>
			<g>
				<g>
					<defs>
						<path id="SVGID_00000137097268573213922750000006084130797210226563_" d="M30.5,631.9c-0.4,3.7-6.3,8.1-11.5,8.1l0,0
							c-5.1,0.4-12.2-3.6-12.2-8.1V48.7c1.1-5.4,7.3-8.4,11.4-8.4l0,0c4.8,0,11.1,3.2,12.3,8.7V631.9L30.5,631.9z"/>
					</defs>
					<clipPath id="SVGID_00000090287755761224726880000009147620512291658141_">
						<use xlink:href="#SVGID_00000137097268573213922750000006084130797210226563_"  style="overflow:visible;"/>
					</clipPath>
					
						<rect x="1.4" y="149.1" style="clip-path:url(#SVGID_00000090287755761224726880000009147620512291658141_);fill:#F6ABAD;" width="35.3" height="97.6"/>
				</g>
			</g>
		</g>
		<g>
			<g>
				<g>
					<defs>
						<path id="SVGID_00000143615490017653689790000011585910434341188785_" d="M30.5,631.9c-0.4,3.7-6.3,8.1-11.5,8.1l0,0
							c-5.1,0.4-12.2-3.6-12.2-8.1V48.7c1.1-5.4,7.3-8.4,11.4-8.4l0,0c4.8,0,11.1,3.2,12.3,8.7V631.9L30.5,631.9z"/>
					</defs>
					<clipPath id="SVGID_00000054231073973262215920000009442945842029983149_">
						<use xlink:href="#SVGID_00000143615490017653689790000011585910434341188785_"  style="overflow:visible;"/>
					</clipPath>
					
						<rect x="1" y="41.8" style="clip-path:url(#SVGID_00000054231073973262215920000009442945842029983149_);fill:#F49799;" width="35.3" height="107.3"/>
				</g>
			</g>
		</g>
	</g>
</g>
<path class="st29" d="M30.3,632.2c-0.4,3.7-6.3,8.1-11.5,8.1l0,0c-5.1,0.4-12.2-3.6-12.2-8.1V49c1.1-5.4,7.3-8.4,11.4-8.4l0,0
	c4.8,0,11.1,3.2,12.3,8.7V632.2L30.3,632.2z"/>
<g>
	<g>
		<path class="st38" d="M16.4,195.3c0.6,0.7,0.9,1.6,0.9,2.8c0,0.9-0.2,1.6-0.5,2.2c-0.3,0.6-0.8,1.1-1.3,1.4
			c-0.6,0.3-1.2,0.5-2,0.5c-0.4,0-0.8,0-1.1-0.1s-0.7-0.2-0.9-0.4l0.5-1.1c0.4,0.2,0.9,0.4,1.5,0.4c0.7,0,1.3-0.2,1.7-0.7
			c0.4-0.5,0.6-1.1,0.6-2l0,0c-0.2,0.3-0.5,0.5-0.9,0.6s-0.7,0.2-1.2,0.2s-1-0.1-1.4-0.3s-0.7-0.5-0.9-0.8c-0.2-0.4-0.3-0.8-0.3-1.2
			c0-0.5,0.1-0.9,0.4-1.3c0.2-0.4,0.6-0.7,1-0.9s0.9-0.3,1.4-0.3C15,194.3,15.8,194.7,16.4,195.3z M15.2,197.7
			c0.3-0.2,0.4-0.6,0.4-0.9c0-0.4-0.1-0.7-0.4-0.9s-0.7-0.4-1.2-0.4c-0.4,0-0.8,0.1-1.1,0.4c-0.3,0.2-0.4,0.6-0.4,1s0.1,0.7,0.4,1
			c0.3,0.2,0.7,0.4,1.1,0.4C14.5,198.1,14.9,197.9,15.2,197.7z"/>
		<path class="st38" d="M19.8,201.8c-0.5-0.3-0.9-0.8-1.1-1.4c-0.3-0.6-0.4-1.3-0.4-2.1s0.1-1.5,0.4-2.1s0.7-1.1,1.1-1.4
			c0.5-0.3,1-0.5,1.7-0.5c0.6,0,1.2,0.2,1.7,0.5s0.9,0.8,1.1,1.4s0.4,1.3,0.4,2.1s-0.1,1.5-0.4,2.1s-0.7,1.1-1.1,1.4
			c-0.5,0.3-1,0.5-1.7,0.5C20.8,202.2,20.3,202.1,19.8,201.8z M22.8,200.3c0.3-0.5,0.5-1.1,0.5-2s-0.2-1.6-0.5-2
			c-0.3-0.5-0.8-0.7-1.3-0.7s-1,0.2-1.3,0.7s-0.5,1.1-0.5,2s0.2,1.6,0.5,2c0.3,0.5,0.8,0.7,1.3,0.7C22,201,22.4,200.8,22.8,200.3z"
			/>
	</g>
</g>
<g>
	<g>
		<path class="st38" d="M17.6,296.2c0.2,0.3,0.3,0.7,0.3,1.1c0,0.5-0.1,0.9-0.4,1.2c-0.3,0.4-0.6,0.6-1.1,0.8
			c-0.5,0.2-1,0.3-1.7,0.3s-1.2-0.1-1.7-0.3c-0.5-0.2-0.8-0.5-1.1-0.8c-0.3-0.3-0.4-0.8-0.4-1.2s0.1-0.8,0.3-1.1
			c0.2-0.3,0.5-0.6,0.9-0.7c-0.3-0.2-0.5-0.4-0.7-0.7c-0.2-0.3-0.2-0.6-0.2-1s0.1-0.8,0.4-1.1c0.3-0.3,0.6-0.6,1-0.7
			c0.4-0.2,0.9-0.3,1.5-0.3s1.1,0.1,1.5,0.3c0.4,0.2,0.8,0.4,1,0.7c0.2,0.3,0.4,0.7,0.4,1.1s-0.1,0.7-0.3,0.9
			c-0.2,0.3-0.4,0.5-0.7,0.7C17.1,295.6,17.4,295.8,17.6,296.2z M16,298.1c0.3-0.2,0.5-0.5,0.5-0.9s-0.2-0.7-0.5-0.9
			c-0.3-0.2-0.7-0.3-1.3-0.3c-0.5,0-0.9,0.1-1.2,0.3c-0.3,0.2-0.5,0.5-0.5,0.9s0.2,0.7,0.5,0.9c0.3,0.2,0.7,0.3,1.2,0.3
			C15.3,298.5,15.7,298.3,16,298.1z M13.7,293.1c-0.3,0.2-0.4,0.5-0.4,0.8c0,0.3,0.1,0.6,0.4,0.8c0.3,0.2,0.6,0.3,1.1,0.3
			s0.8-0.1,1.1-0.3c0.3-0.2,0.4-0.5,0.4-0.8c0-0.3-0.1-0.6-0.4-0.8c-0.3-0.2-0.6-0.3-1.1-0.3S14,292.9,13.7,293.1z"/>
		<path class="st38" d="M20.4,299.1c-0.5-0.3-0.9-0.8-1.1-1.4c-0.3-0.6-0.4-1.3-0.4-2.1c0-0.8,0.1-1.5,0.4-2.1s0.7-1.1,1.1-1.4
			c0.5-0.3,1-0.5,1.7-0.5c0.6,0,1.2,0.2,1.7,0.5c0.5,0.3,0.9,0.8,1.1,1.4c0.2,0.6,0.4,1.3,0.4,2.1c0,0.8-0.1,1.5-0.4,2.1
			s-0.7,1.1-1.1,1.4c-0.5,0.3-1,0.5-1.7,0.5S20.9,299.4,20.4,299.1z M23.4,297.7c0.3-0.5,0.5-1.1,0.5-2s-0.2-1.6-0.5-2
			c-0.3-0.5-0.8-0.7-1.3-0.7s-1,0.2-1.3,0.7s-0.5,1.1-0.5,2s0.2,1.6,0.5,2c0.3,0.5,0.8,0.7,1.3,0.7C22.6,298.3,23,298.1,23.4,297.7z
			"/>
	</g>
</g>
<g>
	<g>
		<path class="st38" d="M17.3,389v1l-3,6.7h-1.5l2.9-6.5h-3v1.3h-1.3V389H17.3z"/>
		<path class="st38" d="M19.5,396.4c-0.5-0.3-0.9-0.8-1.1-1.4c-0.3-0.6-0.4-1.3-0.4-2.1s0.1-1.5,0.4-2.1s0.7-1.1,1.1-1.4
			c0.5-0.3,1-0.5,1.7-0.5c0.6,0,1.2,0.2,1.7,0.5s0.9,0.8,1.1,1.4s0.4,1.3,0.4,2.1s-0.1,1.5-0.4,2.1s-0.7,1.1-1.1,1.4
			c-0.5,0.3-1,0.5-1.7,0.5C20.5,396.8,20,396.7,19.5,396.4z M22.5,394.9c0.3-0.5,0.5-1.1,0.5-2s-0.2-1.6-0.5-2
			c-0.3-0.5-0.8-0.7-1.3-0.7s-1,0.2-1.3,0.7s-0.5,1.1-0.5,2s0.2,1.6,0.5,2c0.3,0.5,0.8,0.7,1.3,0.7
			C21.7,395.6,22.1,395.4,22.5,394.9z"/>
	</g>
</g>
<g>
	<path class="st38" d="M16.9,490.4c0.4,0.2,0.7,0.5,0.9,0.8s0.3,0.8,0.3,1.2c0,0.5-0.1,0.9-0.4,1.3c-0.2,0.4-0.6,0.7-1,0.9
		c-0.4,0.2-0.9,0.3-1.4,0.3c-1.1,0-1.9-0.3-2.5-1s-0.9-1.6-0.9-2.8c0-0.9,0.2-1.6,0.5-2.2s0.8-1.1,1.3-1.4c0.6-0.3,1.2-0.5,2-0.5
		c0.4,0,0.8,0,1.1,0.1s0.7,0.2,0.9,0.4l-0.5,1.1c-0.4-0.2-0.9-0.4-1.5-0.4c-0.7,0-1.3,0.2-1.7,0.7s-0.6,1.1-0.6,2l0,0
		c0.2-0.3,0.5-0.5,0.9-0.6s0.7-0.2,1.2-0.2C16.1,490.1,16.5,490.2,16.9,490.4z M16.4,493.5c0.3-0.2,0.4-0.6,0.4-1s-0.1-0.7-0.4-1
		c-0.3-0.2-0.7-0.4-1.1-0.4c-0.5,0-0.8,0.1-1.1,0.4c-0.3,0.2-0.4,0.6-0.4,0.9c0,0.4,0.1,0.7,0.4,0.9c0.3,0.2,0.7,0.4,1.2,0.4
		C15.8,493.9,16.1,493.8,16.4,493.5z"/>
	<path class="st38" d="M20.5,494.5c-0.5-0.3-0.9-0.8-1.1-1.4c-0.3-0.6-0.4-1.3-0.4-2.1s0.1-1.5,0.4-2.1s0.7-1.1,1.1-1.4
		s1-0.5,1.7-0.5c0.6,0,1.2,0.2,1.7,0.5s0.9,0.8,1.1,1.4s0.4,1.3,0.4,2.1s-0.1,1.5-0.4,2.1s-0.7,1.1-1.1,1.4c-0.5,0.3-1,0.5-1.7,0.5
		C21.6,495,21,494.8,20.5,494.5z M23.5,493.1c0.3-0.5,0.5-1.1,0.5-2s-0.2-1.6-0.5-2c-0.3-0.5-0.8-0.7-1.3-0.7s-1,0.2-1.3,0.7
		s-0.5,1.1-0.5,2s0.2,1.6,0.5,2c0.3,0.5,0.8,0.7,1.3,0.7C22.7,493.8,23.2,493.5,23.5,493.1z"/>
</g>
<g>
	<path class="st38" d="M16.6,584.4c0.5,0.4,0.8,1,0.8,1.7c0,0.5-0.1,0.9-0.3,1.3c-0.2,0.4-0.6,0.7-1,0.9c-0.5,0.2-1,0.3-1.7,0.3
		c-0.5,0-1.1-0.1-1.6-0.2c-0.5-0.2-0.9-0.4-1.3-0.7l0.6-1.1c0.3,0.2,0.6,0.4,1,0.6s0.8,0.2,1.2,0.2c0.5,0,0.9-0.1,1.2-0.3
		c0.3-0.2,0.4-0.5,0.4-0.9c0-0.4-0.2-0.7-0.5-0.9c-0.3-0.2-0.8-0.3-1.6-0.3h-1.9l0.4-4.2h4.5v1.2h-3.3l-0.2,1.8H14
		C15.3,583.7,16.1,583.9,16.6,584.4z"/>
	<path class="st38" d="M19.8,588.1c-0.5-0.3-0.9-0.8-1.1-1.4c-0.3-0.6-0.4-1.3-0.4-2.1c0-0.8,0.1-1.5,0.4-2.1
		c0.3-0.6,0.7-1.1,1.1-1.4c0.5-0.3,1-0.5,1.7-0.5c0.6,0,1.2,0.2,1.7,0.5s0.9,0.8,1.1,1.4c0.2,0.6,0.4,1.3,0.4,2.1
		c0,0.8-0.1,1.5-0.4,2.1c-0.3,0.6-0.7,1.1-1.1,1.4c-0.5,0.3-1,0.5-1.7,0.5S20.3,588.4,19.8,588.1z M22.7,586.6
		c0.3-0.5,0.5-1.1,0.5-2c0-0.9-0.2-1.6-0.5-2c-0.3-0.5-0.8-0.7-1.3-0.7s-1,0.2-1.3,0.7s-0.5,1.1-0.5,2c0,0.9,0.2,1.6,0.5,2
		c0.3,0.5,0.8,0.7,1.3,0.7C22,587.3,22.4,587.1,22.7,586.6z"/>
</g>
<g>
	<path class="st38" d="M13.7,630.6c-0.5-0.4-0.7-1.1-0.7-2c0-0.8,0.2-1.4,0.7-2c0.5-0.4,1-0.8,1.7-0.8c0.7,0,1.3,0.2,1.7,0.8
		c0.5,0.4,0.7,1.1,0.7,2s-0.2,1.4-0.7,2c-0.5,0.4-1,0.8-1.7,0.8C14.8,631.4,14.1,631.1,13.7,630.6z M16.4,629.9
		c0.2-0.3,0.3-0.8,0.3-1.2c0-0.6-0.1-1-0.3-1.2s-0.6-0.4-0.9-0.4c-0.3,0-0.7,0.1-0.9,0.4c-0.2,0.3-0.3,0.8-0.3,1.2
		c0,0.6,0.1,1,0.3,1.2c0.2,0.3,0.6,0.4,0.9,0.4C15.8,630.4,16.1,630.2,16.4,629.9z M21.5,626h1.4l-7,9.9h-1.4L21.5,626z M20.4,635.2
		c-0.5-0.4-0.7-1.1-0.7-2c0-0.8,0.2-1.4,0.7-2c0.5-0.4,1-0.8,1.7-0.8s1.3,0.2,1.7,0.8c0.5,0.4,0.7,1.1,0.7,2c0,0.8-0.2,1.4-0.7,2
		c-0.5,0.4-1,0.8-1.7,0.8S20.8,635.8,20.4,635.2z M23,634.6c0.2-0.3,0.3-0.8,0.3-1.2s-0.1-1-0.3-1.2c-0.2-0.3-0.6-0.4-0.9-0.4
		s-0.7,0.1-0.9,0.4c-0.2,0.3-0.3,0.8-0.3,1.2c0,0.6,0.1,1,0.3,1.2c0.2,0.3,0.6,0.4,0.9,0.4C22.6,635,22.8,634.9,23,634.6z"/>
</g>
<g>
	<path class="st28" d="M11.9,91.8v7.7h-1.4V93H8.9v-1.2H11.9z"/>
	<path class="st28" d="M15,99.1c-0.5-0.3-0.9-0.8-1.1-1.4c-0.3-0.6-0.4-1.3-0.4-2.1s0.1-1.5,0.4-2.1c0.3-0.6,0.7-1.1,1.1-1.4
		c0.5-0.3,1-0.5,1.7-0.5c0.6,0,1.2,0.2,1.7,0.5s0.9,0.8,1.1,1.4s0.4,1.3,0.4,2.1s-0.1,1.5-0.4,2.1s-0.7,1.1-1.1,1.4
		c-0.5,0.3-1,0.5-1.7,0.5S15.5,99.5,15,99.1z M18,97.7c0.3-0.5,0.5-1.1,0.5-2s-0.2-1.6-0.5-2c-0.3-0.5-0.8-0.7-1.3-0.7
		s-1,0.2-1.3,0.7s-0.5,1.1-0.5,2s0.2,1.6,0.5,2c0.3,0.5,0.8,0.7,1.3,0.7C17.2,98.4,17.6,98.1,18,97.7z"/>
	<path class="st28" d="M22.4,99.1c-0.5-0.3-0.9-0.8-1.1-1.4c-0.3-0.6-0.4-1.3-0.4-2.1s0.1-1.5,0.4-2.1s0.7-1.1,1.1-1.4
		c0.5-0.3,1-0.5,1.7-0.5c0.6,0,1.2,0.2,1.7,0.5s0.9,0.8,1.1,1.4s0.4,1.3,0.4,2.1s-0.1,1.5-0.4,2.1s-0.7,1.1-1.1,1.4
		c-0.5,0.3-1,0.5-1.7,0.5S22.9,99.5,22.4,99.1z M25.4,97.7c0.3-0.5,0.5-1.1,0.5-2s-0.2-1.6-0.5-2c-0.3-0.5-0.8-0.7-1.3-0.7
		s-1,0.2-1.3,0.7s-0.5,1.1-0.5,2s0.2,1.6,0.5,2c0.3,0.5,0.8,0.7,1.3,0.7C24.6,98.4,25,98.1,25.4,97.7z"/>
</g>
<g class="st39">
	<path class="st30" d="M17.2,28.7h0.6v2.8h1.7V32h-2.3C17.2,32,17.2,28.7,17.2,28.7z"/>
</g>
</svg>
