<?xml version="1.0" encoding="utf-8"?>
<!-- Generator: Adobe Illustrator 16.0.0, SVG Export Plug-In . SVG Version: 6.00 Build 0)  -->
<!DOCTYPE svg PUBLIC "-//W3C//DTD SVG 1.1//EN" "http://www.w3.org/Graphics/SVG/1.1/DTD/svg11.dtd">
<svg version="1.1" id="Livello_1" xmlns="http://www.w3.org/2000/svg" xmlns:xlink="http://www.w3.org/1999/xlink" x="0px" y="0px"
	 width="32.746px" height="590.697px" viewBox="0 0 32.746 590.697" enable-background="new 0 0 32.746 590.697"
	 xml:space="preserve">
<g>
	<g>
		<g>
			<defs>
				<path id="SVGID_1_" d="M27.262,580.714c-0.316,3.428-5.673,7.51-10.308,7.51l0,0c-4.594,0.367-10.877-3.315-10.877-7.51V42.467
					c1.021-4.94,6.492-7.798,10.182-7.792l0,0c4.298-0.006,9.896,2.929,11.003,7.984V580.714L27.262,580.714z"/>
			</defs>
			<clipPath id="SVGID_2_">
				<use xlink:href="#SVGID_1_"  overflow="visible"/>
			</clipPath>
			<rect x="0.88" y="495.265" clip-path="url(#SVGID_2_)" fill="#FFFAFA" width="31.578" height="99.045"/>
		</g>
		<g>
			<defs>
				<path id="SVGID_3_" d="M27.262,580.714c-0.316,3.428-5.673,7.51-10.308,7.51l0,0c-4.594,0.367-10.877-3.315-10.877-7.51V42.467
					c1.021-4.94,6.492-7.798,10.182-7.792l0,0c4.298-0.006,9.896,2.929,11.003,7.984V580.714L27.262,580.714z"/>
			</defs>
			<clipPath id="SVGID_4_">
				<use xlink:href="#SVGID_3_"  overflow="visible"/>
			</clipPath>
			<rect x="1.196" y="315.187" clip-path="url(#SVGID_4_)" fill="#FBD5D6" width="31.578" height="90.041"/>
		</g>
		<g>
			<defs>
				<path id="SVGID_5_" d="M27.262,580.714c-0.316,3.428-5.673,7.51-10.308,7.51l0,0c-4.594,0.367-10.877-3.315-10.877-7.51V42.467
					c1.021-4.94,6.492-7.798,10.182-7.792l0,0c4.298-0.006,9.896,2.929,11.003,7.984V580.714L27.262,580.714z"/>
			</defs>
			<clipPath id="SVGID_6_">
				<use xlink:href="#SVGID_5_"  overflow="visible"/>
			</clipPath>
			<rect x="1.196" y="225.147" clip-path="url(#SVGID_6_)" fill="#F9C1C2" width="31.578" height="90.038"/>
		</g>
		<g>
			<defs>
				<path id="SVGID_7_" d="M27.262,580.714c-0.316,3.428-5.673,7.51-10.308,7.51l0,0c-4.594,0.367-10.877-3.315-10.877-7.51V42.467
					c1.021-4.94,6.492-7.798,10.182-7.792l0,0c4.298-0.006,9.896,2.929,11.003,7.984V580.714L27.262,580.714z"/>
			</defs>
			<clipPath id="SVGID_8_">
				<use xlink:href="#SVGID_7_"  overflow="visible"/>
			</clipPath>
			<rect x="0.88" y="405.226" clip-path="url(#SVGID_8_)" fill="#FDEBEB" width="31.578" height="90.041"/>
		</g>
		<g>
			<defs>
				<path id="SVGID_9_" d="M27.262,580.714c-0.316,3.428-5.673,7.51-10.308,7.51l0,0c-4.594,0.367-10.877-3.315-10.877-7.51V42.467
					c1.021-4.94,6.492-7.798,10.182-7.792l0,0c4.298-0.006,9.896,2.929,11.003,7.984V580.714L27.262,580.714z"/>
			</defs>
			<clipPath id="SVGID_10_">
				<use xlink:href="#SVGID_9_"  overflow="visible"/>
			</clipPath>
			<rect x="1.196" y="135.094" clip-path="url(#SVGID_10_)" fill="#F6ABAD" width="31.578" height="90.041"/>
		</g>
		<g>
			<defs>
				<path id="SVGID_11_" d="M27.262,580.714c-0.316,3.428-5.673,7.51-10.308,7.51l0,0c-4.594,0.367-10.877-3.315-10.877-7.51V42.467
					c1.021-4.94,6.492-7.798,10.182-7.792l0,0c4.298-0.006,9.896,2.929,11.003,7.984V580.714L27.262,580.714z"/>
			</defs>
			<clipPath id="SVGID_12_">
				<use xlink:href="#SVGID_11_"  overflow="visible"/>
			</clipPath>
			<rect x="0.88" y="36.051" clip-path="url(#SVGID_12_)" fill="#F49799" width="31.577" height="99.043"/>
		</g>
	</g>
</g>
<g display="none">
	<g display="inline">
		<defs>
			<path id="SVGID_13_" d="M27.262,580.714c0,3.713-5.957,8.074-10.593,8.074h-0.652c-4.295,0-9.939-3.881-9.939-8.074V42.467
				c1.023-4.94,6.494-7.797,10.183-7.792l0,0c4.295-0.005,9.896,2.929,11,7.984V580.714L27.262,580.714z"/>
		</defs>
		<clipPath id="SVGID_14_">
			<use xlink:href="#SVGID_13_"  overflow="visible"/>
		</clipPath>
		<rect x="-4.972" y="34.675" clip-path="url(#SVGID_14_)" fill="#C8E8F0" width="43.281" height="27.238"/>
	</g>
	<g display="inline">
		<defs>
			<path id="SVGID_15_" d="M27.262,580.714c0,3.713-5.957,8.074-10.593,8.074h-0.652c-4.295,0-9.939-3.881-9.939-8.074V42.467
				c1.023-4.94,6.494-7.797,10.183-7.792l0,0c4.295-0.005,9.896,2.929,11,7.984V580.714L27.262,580.714z"/>
		</defs>
		<clipPath id="SVGID_16_">
			<use xlink:href="#SVGID_15_"  overflow="visible"/>
		</clipPath>
		<rect x="-4.972" y="61.914" clip-path="url(#SVGID_16_)" fill="#D0EBF7" width="43.281" height="27.238"/>
	</g>
	<g display="inline">
		<defs>
			<path id="SVGID_17_" d="M27.262,580.714c0,3.713-5.957,8.074-10.593,8.074h-0.652c-4.295,0-9.939-3.881-9.939-8.074V42.467
				c1.023-4.94,6.494-7.797,10.183-7.792l0,0c4.295-0.005,9.896,2.929,11,7.984V580.714L27.262,580.714z"/>
		</defs>
		<clipPath id="SVGID_18_">
			<use xlink:href="#SVGID_17_"  overflow="visible"/>
		</clipPath>
		<rect x="-4.972" y="88.639" clip-path="url(#SVGID_18_)" fill="#4898DA" width="43.281" height="27.238"/>
	</g>
	<g display="inline">
		<defs>
			<path id="SVGID_19_" d="M27.262,580.714c0,3.713-5.957,8.074-10.593,8.074h-0.652c-4.295,0-9.939-3.881-9.939-8.074V42.467
				c1.023-4.94,6.494-7.797,10.183-7.792l0,0c4.295-0.005,9.896,2.929,11,7.984V580.714L27.262,580.714z"/>
		</defs>
		<clipPath id="SVGID_20_">
			<use xlink:href="#SVGID_19_"  overflow="visible"/>
		</clipPath>
		<rect x="-4.972" y="115.877" clip-path="url(#SVGID_20_)" fill="#A3A5D7" width="43.281" height="27.238"/>
	</g>
	<g display="inline">
		<defs>
			<path id="SVGID_21_" d="M27.262,580.714c0,3.713-5.957,8.074-10.593,8.074h-0.652c-4.295,0-9.939-3.881-9.939-8.074V42.467
				c1.023-4.94,6.494-7.797,10.183-7.792l0,0c4.295-0.005,9.896,2.929,11,7.984V580.714L27.262,580.714z"/>
		</defs>
		<clipPath id="SVGID_22_">
			<use xlink:href="#SVGID_21_"  overflow="visible"/>
		</clipPath>
		<rect x="-4.972" y="143.116" clip-path="url(#SVGID_22_)" fill="#B988C1" width="43.281" height="27.237"/>
	</g>
	<g display="inline">
		<defs>
			<path id="SVGID_23_" d="M27.262,580.714c0,3.713-5.957,8.074-10.593,8.074h-0.652c-4.295,0-9.939-3.881-9.939-8.074V42.467
				c1.023-4.94,6.494-7.797,10.183-7.792l0,0c4.295-0.005,9.896,2.929,11,7.984V580.714L27.262,580.714z"/>
		</defs>
		<clipPath id="SVGID_24_">
			<use xlink:href="#SVGID_23_"  overflow="visible"/>
		</clipPath>
		<rect x="-4.972" y="170.353" clip-path="url(#SVGID_24_)" fill="#D7A2CD" width="43.281" height="27.238"/>
	</g>
	<g display="inline">
		<defs>
			<path id="SVGID_25_" d="M27.262,580.714c0,3.713-5.957,8.074-10.593,8.074h-0.652c-4.295,0-9.939-3.881-9.939-8.074V42.467
				c1.023-4.94,6.494-7.797,10.183-7.792l0,0c4.295-0.005,9.896,2.929,11,7.984V580.714L27.262,580.714z"/>
		</defs>
		<clipPath id="SVGID_26_">
			<use xlink:href="#SVGID_25_"  overflow="visible"/>
		</clipPath>
		<rect x="-4.972" y="197.253" clip-path="url(#SVGID_26_)" fill="#E8BEDB" width="43.281" height="27.238"/>
	</g>
	<g display="inline">
		<defs>
			<path id="SVGID_27_" d="M27.262,580.714c0,3.713-5.957,8.074-10.593,8.074h-0.652c-4.295,0-9.939-3.881-9.939-8.074V42.467
				c1.023-4.94,6.494-7.797,10.183-7.792l0,0c4.295-0.005,9.896,2.929,11,7.984V580.714L27.262,580.714z"/>
		</defs>
		<clipPath id="SVGID_28_">
			<use xlink:href="#SVGID_27_"  overflow="visible"/>
		</clipPath>
		<rect x="-4.972" y="224.492" clip-path="url(#SVGID_28_)" fill="#E67D9B" width="43.281" height="27.238"/>
	</g>
	<g display="inline">
		<defs>
			<path id="SVGID_29_" d="M27.262,580.714c0,3.713-5.957,8.074-10.593,8.074h-0.652c-4.295,0-9.939-3.881-9.939-8.074V42.467
				c1.023-4.94,6.494-7.797,10.183-7.792l0,0c4.295-0.005,9.896,2.929,11,7.984V580.714L27.262,580.714z"/>
		</defs>
		<clipPath id="SVGID_30_">
			<use xlink:href="#SVGID_29_"  overflow="visible"/>
		</clipPath>
		<rect x="-4.972" y="251.73" clip-path="url(#SVGID_30_)" fill="#DB4C4D" width="43.281" height="27.236"/>
	</g>
	<g display="inline">
		<defs>
			<path id="SVGID_31_" d="M27.262,580.714c0,3.713-5.957,8.074-10.593,8.074h-0.652c-4.295,0-9.939-3.881-9.939-8.074V42.467
				c1.023-4.94,6.494-7.797,10.183-7.792l0,0c4.295-0.005,9.896,2.929,11,7.984V580.714L27.262,580.714z"/>
		</defs>
		<clipPath id="SVGID_32_">
			<use xlink:href="#SVGID_31_"  overflow="visible"/>
		</clipPath>
		<rect x="-4.972" y="278.966" clip-path="url(#SVGID_32_)" fill="#EF5A5C" width="43.281" height="27.238"/>
	</g>
	<g display="inline">
		<defs>
			<path id="SVGID_33_" d="M27.262,580.714c0,3.713-5.957,8.074-10.593,8.074h-0.652c-4.295,0-9.939-3.881-9.939-8.074V42.467
				c1.023-4.94,6.494-7.797,10.183-7.792l0,0c4.295-0.005,9.896,2.929,11,7.984V580.714L27.262,580.714z"/>
		</defs>
		<clipPath id="SVGID_34_">
			<use xlink:href="#SVGID_33_"  overflow="visible"/>
		</clipPath>
		<rect x="-4.972" y="305.872" clip-path="url(#SVGID_34_)" fill="#F7A25C" width="43.281" height="27.238"/>
	</g>
	<g display="inline">
		<defs>
			<path id="SVGID_35_" d="M27.262,580.714c0,3.713-5.957,8.074-10.593,8.074h-0.652c-4.295,0-9.939-3.881-9.939-8.074V42.467
				c1.023-4.94,6.494-7.797,10.183-7.792l0,0c4.295-0.005,9.896,2.929,11,7.984V580.714L27.262,580.714z"/>
		</defs>
		<clipPath id="SVGID_36_">
			<use xlink:href="#SVGID_35_"  overflow="visible"/>
		</clipPath>
		<rect x="-4.972" y="333.11" clip-path="url(#SVGID_36_)" fill="#FDD58F" width="43.281" height="27.238"/>
	</g>
	<g display="inline">
		<defs>
			<path id="SVGID_37_" d="M27.262,580.714c0,3.713-5.957,8.074-10.593,8.074h-0.652c-4.295,0-9.939-3.881-9.939-8.074V42.467
				c1.023-4.94,6.494-7.797,10.183-7.792l0,0c4.295-0.005,9.896,2.929,11,7.984V580.714L27.262,580.714z"/>
		</defs>
		<clipPath id="SVGID_38_">
			<use xlink:href="#SVGID_37_"  overflow="visible"/>
		</clipPath>
		<rect x="-4.972" y="360.349" clip-path="url(#SVGID_38_)" fill="#FFE173" width="43.281" height="27.238"/>
	</g>
	<g display="inline">
		<defs>
			<path id="SVGID_39_" d="M27.262,580.714c0,3.713-5.957,8.074-10.593,8.074h-0.652c-4.295,0-9.939-3.881-9.939-8.074V42.467
				c1.023-4.94,6.494-7.797,10.183-7.792l0,0c4.295-0.005,9.896,2.929,11,7.984V580.714L27.262,580.714z"/>
		</defs>
		<clipPath id="SVGID_40_">
			<use xlink:href="#SVGID_39_"  overflow="visible"/>
		</clipPath>
		<rect x="-4.972" y="387.587" clip-path="url(#SVGID_40_)" fill="#FEFE82" width="43.281" height="27.238"/>
	</g>
	<g display="inline">
		<defs>
			<path id="SVGID_41_" d="M27.262,580.714c0,3.713-5.957,8.074-10.593,8.074h-0.652c-4.295,0-9.939-3.881-9.939-8.074V42.467
				c1.023-4.94,6.494-7.797,10.183-7.792l0,0c4.295-0.005,9.896,2.929,11,7.984V580.714L27.262,580.714z"/>
		</defs>
		<clipPath id="SVGID_42_">
			<use xlink:href="#SVGID_41_"  overflow="visible"/>
		</clipPath>
		<rect x="-4.972" y="414.483" clip-path="url(#SVGID_42_)" fill="#FFFFC7" width="43.281" height="27.235"/>
	</g>
	<g display="inline">
		<defs>
			<path id="SVGID_43_" d="M27.262,580.714c0,3.713-5.957,8.074-10.593,8.074h-0.652c-4.295,0-9.939-3.881-9.939-8.074V42.467
				c1.023-4.94,6.494-7.797,10.183-7.792l0,0c4.295-0.005,9.896,2.929,11,7.984V580.714L27.262,580.714z"/>
		</defs>
		<clipPath id="SVGID_44_">
			<use xlink:href="#SVGID_43_"  overflow="visible"/>
		</clipPath>
		<rect x="-4.972" y="441.72" clip-path="url(#SVGID_44_)" fill="#F3F3A1" width="43.281" height="27.238"/>
	</g>
	<g display="inline">
		<defs>
			<path id="SVGID_45_" d="M27.262,580.714c0,3.713-5.957,8.074-10.593,8.074h-0.652c-4.295,0-9.939-3.881-9.939-8.074V42.467
				c1.023-4.94,6.494-7.797,10.183-7.792l0,0c4.295-0.005,9.896,2.929,11,7.984V580.714L27.262,580.714z"/>
		</defs>
		<clipPath id="SVGID_46_">
			<use xlink:href="#SVGID_45_"  overflow="visible"/>
		</clipPath>
		<rect x="-4.972" y="468.958" clip-path="url(#SVGID_46_)" fill="#D3ECA4" width="43.281" height="27.238"/>
	</g>
	<g display="inline">
		<defs>
			<path id="SVGID_47_" d="M27.262,580.714c0,3.713-5.957,8.074-10.593,8.074h-0.652c-4.295,0-9.939-3.881-9.939-8.074V42.467
				c1.023-4.94,6.494-7.797,10.183-7.792l0,0c4.295-0.005,9.896,2.929,11,7.984V580.714L27.262,580.714z"/>
		</defs>
		<clipPath id="SVGID_48_">
			<use xlink:href="#SVGID_47_"  overflow="visible"/>
		</clipPath>
		<rect x="-4.972" y="496.196" clip-path="url(#SVGID_48_)" fill="#C3E6D8" width="43.281" height="27.237"/>
	</g>
	<g display="inline">
		<defs>
			<path id="SVGID_49_" d="M27.262,580.714c0,3.713-5.957,8.074-10.593,8.074h-0.652c-4.295,0-9.939-3.881-9.939-8.074V42.467
				c1.023-4.94,6.494-7.797,10.183-7.792l0,0c4.295-0.005,9.896,2.929,11,7.984V580.714L27.262,580.714z"/>
		</defs>
		<clipPath id="SVGID_50_">
			<use xlink:href="#SVGID_49_"  overflow="visible"/>
		</clipPath>
		<rect x="-4.972" y="523.435" clip-path="url(#SVGID_50_)" fill="#C8E8F0" width="43.281" height="27.238"/>
	</g>
	<g display="inline">
		<defs>
			<path id="SVGID_51_" d="M27.262,580.714c0,3.713-5.957,8.074-10.593,8.074h-0.652c-4.295,0-9.939-3.881-9.939-8.074V42.467
				c1.023-4.94,6.494-7.797,10.183-7.792l0,0c4.295-0.005,9.896,2.929,11,7.984V580.714L27.262,580.714z"/>
		</defs>
		<clipPath id="SVGID_52_">
			<use xlink:href="#SVGID_51_"  overflow="visible"/>
		</clipPath>
		<rect x="-4.972" y="550.673" clip-path="url(#SVGID_52_)" fill="#D0EBF7" width="43.281" height="41.121"/>
	</g>
</g>
<g>
	<g display="none">
		<g display="inline">
			<defs>
				<path id="SVGID_53_" d="M27.052,580.983c-0.315,3.428-5.672,7.51-10.307,7.51l0,0c-4.594,0.367-10.877-3.316-10.877-7.51V42.738
					c1.021-4.94,6.492-7.798,10.182-7.792l0,0c4.298-0.006,9.896,2.929,11.002,7.984V580.983L27.052,580.983z"/>
			</defs>
			<clipPath id="SVGID_54_">
				<use xlink:href="#SVGID_53_"  overflow="visible"/>
			</clipPath>
			<rect x="0.671" y="494.032" clip-path="url(#SVGID_54_)" fill="#EC2426" width="31.578" height="99.045"/>
		</g>
		<g display="inline">
			<defs>
				<path id="SVGID_55_" d="M27.052,580.983c-0.315,3.428-5.672,7.51-10.307,7.51l0,0c-4.594,0.367-10.877-3.316-10.877-7.51V42.738
					c1.021-4.94,6.492-7.798,10.182-7.792l0,0c4.298-0.006,9.896,2.929,11.002,7.984V580.983L27.052,580.983z"/>
			</defs>
			<clipPath id="SVGID_56_">
				<use xlink:href="#SVGID_55_"  overflow="visible"/>
			</clipPath>
			<rect x="0.987" y="313.954" clip-path="url(#SVGID_56_)" fill="#FCFC1E" width="31.578" height="90.041"/>
		</g>
		<g display="inline">
			<defs>
				<path id="SVGID_57_" d="M27.052,580.983c-0.315,3.428-5.672,7.51-10.307,7.51l0,0c-4.594,0.367-10.877-3.316-10.877-7.51V42.738
					c1.021-4.94,6.492-7.798,10.182-7.792l0,0c4.298-0.006,9.896,2.929,11.002,7.984V580.983L27.052,580.983z"/>
			</defs>
			<clipPath id="SVGID_58_">
				<use xlink:href="#SVGID_57_"  overflow="visible"/>
			</clipPath>
			<rect x="0.987" y="223.914" clip-path="url(#SVGID_58_)" fill="#0B7F3F" width="31.578" height="90.038"/>
		</g>
		<g display="inline">
			<defs>
				<path id="SVGID_59_" d="M27.052,580.983c-0.315,3.428-5.672,7.51-10.307,7.51l0,0c-4.594,0.367-10.877-3.316-10.877-7.51V42.738
					c1.021-4.94,6.492-7.798,10.182-7.792l0,0c4.298-0.006,9.896,2.929,11.002,7.984V580.983L27.052,580.983z"/>
			</defs>
			<clipPath id="SVGID_60_">
				<use xlink:href="#SVGID_59_"  overflow="visible"/>
			</clipPath>
			<rect x="0.671" y="403.993" clip-path="url(#SVGID_60_)" fill="#F7A426" width="31.578" height="90.041"/>
		</g>
		<g display="inline">
			<defs>
				<path id="SVGID_61_" d="M27.052,580.983c-0.315,3.428-5.672,7.51-10.307,7.51l0,0c-4.594,0.367-10.877-3.316-10.877-7.51V42.738
					c1.021-4.94,6.492-7.798,10.182-7.792l0,0c4.298-0.006,9.896,2.929,11.002,7.984V580.983L27.052,580.983z"/>
			</defs>
			<clipPath id="SVGID_62_">
				<use xlink:href="#SVGID_61_"  overflow="visible"/>
			</clipPath>
			<rect x="0.987" y="133.862" clip-path="url(#SVGID_62_)" fill="#6FC9DC" width="31.578" height="90.04"/>
		</g>
		<g display="inline">
			<defs>
				<path id="SVGID_63_" d="M27.052,580.983c-0.315,3.428-5.672,7.51-10.307,7.51l0,0c-4.594,0.367-10.877-3.316-10.877-7.51V42.738
					c1.021-4.94,6.492-7.798,10.182-7.792l0,0c4.298-0.006,9.896,2.929,11.002,7.984V580.983L27.052,580.983z"/>
			</defs>
			<clipPath id="SVGID_64_">
				<use xlink:href="#SVGID_63_"  overflow="visible"/>
			</clipPath>
			<rect x="0.987" y="34.818" clip-path="url(#SVGID_64_)" fill="#3F57B0" width="31.578" height="99.043"/>
		</g>
	</g>
</g>
<circle fill="#3A332F" cx="16.46" cy="15.781" r="14.909"/>
<path fill="none" stroke="#3C3430" stroke-width="3" stroke-miterlimit="10" d="M27.052,580.983
	c-0.315,3.428-5.672,7.51-10.307,7.51l0,0c-4.593,0.367-10.877-3.316-10.877-7.51V42.736c1.022-4.94,6.492-7.798,10.182-7.792l0,0
	c4.298-0.006,9.896,2.929,11.002,7.984V580.983L27.052,580.983z"/>
<g>
	<path fill="#3C3530" d="M11.72,579.44c-0.398-0.461-0.598-1.063-0.598-1.809c0-0.745,0.199-1.348,0.598-1.807
		c0.399-0.459,0.923-0.689,1.573-0.689s1.176,0.229,1.58,0.684c0.403,0.455,0.604,1.06,0.604,1.813s-0.202,1.358-0.604,1.813
		c-0.403,0.455-0.93,0.683-1.58,0.683S12.118,579.899,11.72,579.44z M14.118,578.803c0.195-0.276,0.292-0.667,0.292-1.17
		c0-0.502-0.097-0.893-0.292-1.17c-0.195-0.276-0.47-0.416-0.825-0.416c-0.338,0-0.609,0.143-0.813,0.423
		c-0.204,0.281-0.306,0.669-0.306,1.163s0.102,0.882,0.306,1.164c0.204,0.281,0.475,0.422,0.813,0.422
		C13.648,579.219,13.923,579.081,14.118,578.803z M18.753,575.229h1.272l-6.212,9.1h-1.274L18.753,575.229z M17.688,583.729
		c-0.399-0.46-0.599-1.062-0.599-1.808c0-0.745,0.199-1.348,0.599-1.807c0.397-0.459,0.922-0.689,1.574-0.689
		c0.647,0,1.176,0.23,1.577,0.689c0.404,0.459,0.604,1.062,0.604,1.807c0,0.746-0.2,1.349-0.604,1.808
		c-0.401,0.459-0.93,0.688-1.577,0.688C18.609,584.419,18.085,584.189,17.688,583.729z M20.079,583.087
		c0.198-0.282,0.299-0.67,0.299-1.164s-0.101-0.882-0.299-1.163c-0.199-0.281-0.474-0.423-0.817-0.423
		c-0.349,0-0.621,0.139-0.82,0.416s-0.299,0.668-0.299,1.17c0,0.503,0.1,0.894,0.299,1.17c0.199,0.277,0.473,0.416,0.82,0.416
		C19.605,583.509,19.88,583.368,20.079,583.087z"/>
</g>
<g>
	<path fill="#3C3530" d="M15.288,534.154c0.379,0.307,0.568,0.724,0.568,1.252c0,0.336-0.083,0.64-0.248,0.912
		c-0.165,0.271-0.413,0.486-0.744,0.646c-0.331,0.16-0.739,0.24-1.224,0.24c-0.4,0-0.787-0.058-1.16-0.172
		c-0.373-0.115-0.688-0.273-0.944-0.478l0.44-0.808c0.208,0.171,0.458,0.306,0.748,0.404c0.29,0.098,0.591,0.146,0.9,0.146
		c0.368,0,0.657-0.076,0.868-0.228c0.21-0.152,0.316-0.361,0.316-0.628c0-0.288-0.113-0.507-0.34-0.652
		c-0.227-0.146-0.615-0.22-1.164-0.22h-1.352l0.288-3.048h3.288v0.872H13.12L13,533.694h0.536
		C14.325,533.694,14.909,533.848,15.288,534.154z"/>
	<path fill="#3C3530" d="M17.592,536.866c-0.354-0.228-0.63-0.559-0.833-0.992c-0.203-0.434-0.304-0.95-0.304-1.548
		s0.101-1.113,0.304-1.548c0.203-0.436,0.479-0.767,0.833-0.992c0.352-0.227,0.752-0.34,1.2-0.34c0.446,0,0.849,0.112,1.203,0.34
		c0.354,0.227,0.634,0.558,0.836,0.992c0.203,0.435,0.306,0.95,0.306,1.548s-0.103,1.113-0.306,1.548
		c-0.202,0.435-0.479,0.766-0.836,0.992c-0.354,0.227-0.757,0.34-1.203,0.34C18.344,537.206,17.943,537.093,17.592,536.866z
		 M19.738,535.806c0.232-0.33,0.35-0.822,0.35-1.479s-0.115-1.149-0.35-1.48c-0.23-0.33-0.547-0.496-0.946-0.496
		c-0.396,0-0.708,0.166-0.94,0.496c-0.231,0.331-0.348,0.824-0.348,1.48s0.115,1.148,0.348,1.479
		c0.232,0.331,0.545,0.496,0.94,0.496C19.191,536.302,19.508,536.137,19.738,535.806z"/>
</g>
<g>
	<path fill="#3C3530" d="M15.227,450.927c0.293,0.143,0.522,0.344,0.688,0.604c0.165,0.261,0.248,0.563,0.248,0.902
		c0,0.363-0.091,0.683-0.272,0.956c-0.181,0.275-0.426,0.487-0.736,0.638c-0.309,0.147-0.656,0.224-1.04,0.224
		c-0.768,0-1.364-0.24-1.788-0.72c-0.424-0.48-0.636-1.168-0.636-2.064c0-0.629,0.115-1.167,0.344-1.612
		c0.229-0.444,0.551-0.782,0.964-1.016c0.413-0.231,0.892-0.348,1.436-0.348c0.288,0,0.559,0.029,0.812,0.092s0.473,0.15,0.66,0.268
		l-0.384,0.784c-0.277-0.181-0.632-0.271-1.064-0.271c-0.539,0-0.96,0.165-1.264,0.496c-0.304,0.33-0.456,0.808-0.456,1.432v0.008
		c0.166-0.191,0.376-0.337,0.632-0.436c0.256-0.1,0.544-0.148,0.864-0.148C14.603,450.715,14.934,450.786,15.227,450.927z
		 M14.851,453.175c0.203-0.173,0.304-0.404,0.304-0.691c0-0.293-0.101-0.524-0.304-0.695s-0.475-0.256-0.816-0.256
		c-0.336,0-0.609,0.091-0.82,0.271c-0.211,0.183-0.316,0.411-0.316,0.688c0,0.271,0.103,0.497,0.308,0.676s0.489,0.268,0.852,0.268
		C14.384,453.435,14.648,453.349,14.851,453.175z"/>
	<path fill="#3C3530" d="M17.843,453.911c-0.352-0.228-0.629-0.559-0.831-0.992c-0.204-0.435-0.305-0.95-0.305-1.548
		s0.101-1.113,0.305-1.548c0.202-0.436,0.479-0.767,0.831-0.992c0.353-0.227,0.753-0.34,1.201-0.34c0.447,0,0.849,0.113,1.203,0.34
		s0.633,0.558,0.836,0.992c0.203,0.434,0.306,0.95,0.306,1.548s-0.103,1.113-0.306,1.548c-0.203,0.436-0.479,0.766-0.836,0.992
		c-0.356,0.226-0.756,0.34-1.203,0.34C18.596,454.251,18.193,454.138,17.843,453.911z M19.991,452.851
		c0.231-0.33,0.348-0.822,0.348-1.479s-0.114-1.149-0.348-1.48c-0.232-0.33-0.55-0.496-0.947-0.496c-0.396,0-0.709,0.166-0.94,0.496
		c-0.232,0.331-0.349,0.824-0.349,1.48s0.115,1.148,0.349,1.479c0.231,0.331,0.545,0.496,0.94,0.496
		C19.441,453.347,19.759,453.182,19.991,452.851z"/>
</g>
<g>
	<path fill="#3C3530" d="M16.202,357.771v0.695l-2.176,4.904h-1.112l2.104-4.721h-2.2v0.953H11.85v-1.832H16.202L16.202,357.771z"/>
	<path fill="#3C3530" d="M17.816,363.11c-0.353-0.227-0.629-0.558-0.832-0.991c-0.204-0.435-0.304-0.95-0.304-1.548
		s0.101-1.113,0.304-1.549c0.203-0.435,0.479-0.766,0.832-0.991c0.353-0.228,0.752-0.341,1.201-0.341
		c0.446,0,0.849,0.113,1.203,0.341c0.354,0.227,0.633,0.558,0.836,0.991c0.202,0.436,0.305,0.951,0.305,1.549
		s-0.103,1.113-0.305,1.548c-0.203,0.435-0.48,0.766-0.836,0.991c-0.354,0.228-0.757,0.341-1.203,0.341
		C18.568,363.451,18.169,363.338,17.816,363.11z M19.965,362.051c0.232-0.329,0.35-0.823,0.35-1.479c0-0.656-0.116-1.149-0.35-1.48
		c-0.23-0.33-0.548-0.496-0.947-0.496c-0.396,0-0.707,0.166-0.939,0.496c-0.232,0.331-0.348,0.824-0.348,1.48
		c0,0.655,0.115,1.148,0.348,1.479c0.232,0.331,0.545,0.496,0.939,0.496C19.417,362.547,19.732,362.382,19.965,362.051z"/>
</g>
<g>
	<path fill="#3C3530" d="M16.029,261.958c0.157,0.227,0.236,0.492,0.236,0.796c0,0.342-0.095,0.641-0.284,0.896
		c-0.189,0.256-0.457,0.452-0.804,0.588c-0.347,0.136-0.75,0.204-1.208,0.204c-0.459,0-0.86-0.068-1.204-0.204
		c-0.344-0.136-0.609-0.332-0.796-0.588c-0.187-0.256-0.28-0.555-0.28-0.896c0-0.304,0.078-0.569,0.232-0.796
		c0.155-0.227,0.376-0.406,0.664-0.54c-0.224-0.122-0.396-0.283-0.516-0.483c-0.12-0.2-0.18-0.431-0.18-0.692
		c0-0.314,0.086-0.589,0.26-0.824c0.173-0.234,0.417-0.416,0.732-0.544c0.314-0.128,0.677-0.191,1.088-0.191
		c0.416,0,0.781,0.063,1.096,0.191s0.56,0.31,0.736,0.544c0.176,0.235,0.264,0.51,0.264,0.824c0,0.262-0.061,0.491-0.184,0.688
		c-0.123,0.197-0.299,0.359-0.528,0.487C15.646,261.552,15.872,261.732,16.029,261.958z M14.881,263.387
		c0.224-0.16,0.336-0.382,0.336-0.664c0-0.277-0.112-0.496-0.336-0.656c-0.224-0.16-0.528-0.24-0.912-0.24
		c-0.384,0-0.686,0.08-0.904,0.24c-0.218,0.16-0.328,0.379-0.328,0.656c0,0.282,0.109,0.504,0.328,0.664
		c0.219,0.159,0.52,0.239,0.904,0.239C14.353,263.626,14.657,263.546,14.881,263.387z M13.197,259.707
		c-0.189,0.139-0.284,0.334-0.284,0.584c0,0.24,0.095,0.431,0.284,0.572c0.189,0.142,0.446,0.212,0.772,0.212
		c0.331,0,0.592-0.07,0.784-0.212c0.192-0.142,0.288-0.332,0.288-0.572c0-0.25-0.097-0.445-0.292-0.584s-0.455-0.208-0.78-0.208
		C13.644,259.499,13.386,259.568,13.197,259.707z"/>
	<path fill="#3C3530" d="M18.073,264.103c-0.353-0.227-0.63-0.558-0.832-0.992c-0.203-0.435-0.304-0.95-0.304-1.548
		s0.101-1.113,0.304-1.548c0.202-0.435,0.479-0.766,0.832-0.992c0.352-0.227,0.752-0.34,1.202-0.34c0.447,0,0.848,0.113,1.203,0.34
		c0.354,0.227,0.633,0.558,0.836,0.992s0.305,0.95,0.305,1.548s-0.102,1.113-0.305,1.548s-0.48,0.766-0.836,0.992
		c-0.356,0.226-0.756,0.34-1.203,0.34C18.825,264.443,18.425,264.33,18.073,264.103z M20.223,263.042
		c0.231-0.33,0.348-0.823,0.348-1.479s-0.115-1.149-0.348-1.48c-0.232-0.33-0.55-0.496-0.947-0.496
		c-0.396,0-0.709,0.166-0.941,0.496c-0.232,0.331-0.348,0.824-0.348,1.48s0.115,1.149,0.348,1.479
		c0.232,0.331,0.545,0.496,0.941,0.496C19.673,263.539,19.988,263.374,20.223,263.042z"/>
</g>
<g>
	<path fill="#3C3530" d="M15.497,177.108c0.424,0.479,0.636,1.168,0.636,2.063c0,0.63-0.115,1.167-0.344,1.612
		c-0.229,0.445-0.551,0.784-0.964,1.017c-0.414,0.231-0.892,0.348-1.436,0.348c-0.288,0-0.559-0.031-0.812-0.092
		c-0.253-0.062-0.473-0.151-0.66-0.269l0.384-0.784c0.277,0.182,0.632,0.272,1.064,0.272c0.539,0,0.96-0.165,1.264-0.496
		c0.304-0.33,0.456-0.808,0.456-1.432v-0.008c-0.166,0.191-0.376,0.337-0.632,0.436c-0.256,0.099-0.544,0.148-0.864,0.148
		c-0.368,0-0.699-0.071-0.992-0.213c-0.293-0.141-0.522-0.342-0.688-0.604s-0.248-0.563-0.248-0.904
		c0-0.362,0.091-0.681,0.272-0.956c0.181-0.274,0.427-0.486,0.736-0.636c0.309-0.149,0.656-0.224,1.04-0.224
		C14.477,176.388,15.073,176.627,15.497,177.108z M14.609,178.835c0.21-0.181,0.316-0.41,0.316-0.688
		c0-0.272-0.103-0.497-0.308-0.676c-0.206-0.179-0.489-0.269-0.852-0.269c-0.325,0-0.589,0.087-0.792,0.261
		c-0.203,0.173-0.304,0.403-0.304,0.691c0,0.294,0.101,0.525,0.304,0.696c0.203,0.171,0.475,0.256,0.816,0.256
		C14.125,179.108,14.398,179.017,14.609,178.835z"/>
	<path fill="#3C3530" d="M17.973,181.808c-0.352-0.227-0.629-0.558-0.832-0.992c-0.203-0.435-0.304-0.95-0.304-1.548
		s0.101-1.113,0.304-1.548c0.203-0.435,0.48-0.766,0.832-0.992c0.353-0.227,0.752-0.34,1.202-0.34c0.447,0,0.849,0.113,1.203,0.34
		s0.634,0.558,0.836,0.992c0.203,0.434,0.306,0.95,0.306,1.548s-0.103,1.113-0.306,1.548c-0.202,0.435-0.479,0.766-0.836,0.992
		s-0.756,0.34-1.203,0.34C18.727,182.148,18.325,182.035,17.973,181.808z M20.122,180.748c0.231-0.33,0.349-0.823,0.349-1.479
		c0-0.656-0.115-1.149-0.349-1.48c-0.231-0.33-0.549-0.496-0.947-0.496c-0.396,0-0.709,0.166-0.942,0.496
		c-0.231,0.331-0.348,0.824-0.348,1.48s0.115,1.149,0.348,1.479c0.233,0.331,0.545,0.496,0.942,0.496
		C19.573,181.244,19.891,181.079,20.122,180.748z"/>
</g>
<g>
	<path fill="#3C3530" d="M12.049,77.192v5.6h-1.04v-4.728H9.825v-0.872H12.049z"/>
	<path fill="#3C3530" d="M14.297,82.532c-0.352-0.227-0.629-0.558-0.832-0.992c-0.203-0.434-0.304-0.95-0.304-1.548
		c0-0.598,0.101-1.113,0.304-1.548c0.203-0.435,0.48-0.766,0.832-0.992c0.352-0.227,0.752-0.34,1.2-0.34
		c0.448,0,0.849,0.113,1.204,0.34c0.354,0.227,0.633,0.558,0.836,0.992c0.201,0.435,0.304,0.95,0.304,1.548
		c0,0.598-0.103,1.113-0.304,1.548c-0.203,0.435-0.482,0.766-0.836,0.992c-0.355,0.227-0.756,0.34-1.204,0.34
		C15.049,82.872,14.649,82.759,14.297,82.532z M16.445,81.472c0.232-0.33,0.348-0.823,0.348-1.479c0-0.656-0.116-1.149-0.348-1.48
		c-0.232-0.33-0.548-0.496-0.948-0.496c-0.395,0-0.708,0.166-0.94,0.496c-0.232,0.331-0.348,0.824-0.348,1.48
		c0,0.656,0.116,1.149,0.348,1.479c0.232,0.331,0.545,0.496,0.94,0.496C15.897,81.968,16.213,81.803,16.445,81.472z"/>
	<path fill="#3C3530" d="M19.682,82.532c-0.353-0.227-0.63-0.558-0.832-0.992c-0.203-0.434-0.306-0.95-0.306-1.548
		c0-0.598,0.103-1.113,0.306-1.548c0.202-0.435,0.479-0.766,0.832-0.992c0.352-0.226,0.752-0.34,1.2-0.34
		c0.447,0,0.849,0.113,1.203,0.34s0.633,0.558,0.836,0.992s0.306,0.95,0.306,1.548c0,0.598-0.103,1.113-0.306,1.548
		s-0.479,0.766-0.836,0.992c-0.356,0.226-0.756,0.34-1.203,0.34C20.434,82.872,20.032,82.759,19.682,82.532z M21.829,81.472
		c0.231-0.33,0.348-0.823,0.348-1.479c0-0.656-0.114-1.149-0.348-1.48c-0.231-0.33-0.55-0.496-0.947-0.496
		c-0.396,0-0.709,0.166-0.94,0.496c-0.232,0.331-0.349,0.824-0.349,1.48c0,0.656,0.115,1.149,0.349,1.479
		c0.231,0.331,0.545,0.496,0.94,0.496C21.279,81.968,21.598,81.803,21.829,81.472z"/>
</g>
<g>
	<path fill="#FFFFFF" d="M10.021,22.611h12.708c2.651,0,4.936-1.792,5.433-4.26c0.325-1.611-0.076-3.252-1.103-4.503
		c-0.873-1.069-2.104-1.748-3.453-1.924v-1.211c0-4.293-3.871-7.688-8.123-7.18C11.866,3.964,9.14,7.156,9.14,10.957v0.967
		c-1.164,0.151-2.244,0.679-3.102,1.525C4.803,14.7,4.259,16.417,4.55,18.162C4.953,20.574,7.459,22.611,10.021,22.611z
		 M7.029,14.438c0.757-0.748,1.755-1.161,2.812-1.161c0.386,0,0.7-0.313,0.7-0.699v-1.622c0-3.218,2.562-6.078,5.839-6.078
		c3.177,0,5.827,2.66,5.827,5.833v1.866c0,0.386,0.313,0.699,0.699,0.699c1.191,0,2.313,0.532,3.07,1.457
		c0.758,0.924,1.053,2.142,0.812,3.34c-0.365,1.817-2.072,3.136-4.06,3.136H10.021c-1.887,0-3.798-1.532-4.09-3.28
		C5.716,16.635,6.117,15.361,7.029,14.438z"/>
</g>
<rect x="11.504" y="22.611" fill="none" width="9.754" height="5.471"/>
<g enable-background="new    ">
	<path fill="#FFFFFF" d="M15.519,22.85h0.736v3.342h2.073v0.623h-2.809V22.85z"/>
</g>
</svg>
