<?xml version="1.0" encoding="utf-8"?>
<!-- Generator: Adobe Illustrator 28.0.0, SVG Export Plug-In . SVG Version: 6.00 Build 0)  -->
<svg version="1.1" id="Livello_1" xmlns="http://www.w3.org/2000/svg" xmlns:xlink="http://www.w3.org/1999/xlink" x="0px" y="0px"
	  width="50px" height="677px" viewBox="0 0 48.7 677.2" style="enable-background:new 0 0 48.7 677.2;" xml:space="preserve">
<style type="text/css">
	.st0{clip-path:url(#SVGID_00000050632054060328222330000003750260425840633009_);fill:#FFFAFA;}
	.st1{clip-path:url(#SVGID_00000134242468652259729860000006387059270179482556_);fill:#FBD5D6;}
	.st2{clip-path:url(#SVGID_00000170277983334459633260000010639463009108500888_);fill:#F9C1C2;}
	.st3{clip-path:url(#SVGID_00000105391995699029173640000012595541605929653921_);fill:#FDEBEB;}
	.st4{clip-path:url(#SVGID_00000029029768609425780710000003684137284081808311_);fill:#F6ABAD;}
	.st5{clip-path:url(#SVGID_00000098917716934863461790000011575477969215051689_);fill:#F49799;}
	.st6{fill:#39322E;}
	.st7{fill:none;}
	.st8{fill:none;stroke:#3C3430;stroke-width:2;stroke-miterlimit:9.7722;}
	.st9{fill:#3C3530;stroke:#39322E;stroke-width:0.5;stroke-miterlimit:10;}
	.st10{fill:#3C3430;stroke:#39322E;stroke-width:0.5;stroke-miterlimit:10;}
	.st11{fill:none;stroke:#3C3430;stroke-miterlimit:9.7722;}
	.st12{fill:#3B3330;stroke:#39322E;stroke-width:0.5;stroke-miterlimit:10;}
	.st13{fill:#FFFFFF;}
	.st14{fill:#FFFFFF;stroke:#FFFFFF;stroke-width:0.4886;stroke-miterlimit:9.7722;}
	.st15{fill:none;stroke:#FFFFFF;stroke-width:0.9772;stroke-miterlimit:9.7722;}
	.st16{enable-background:new    ;}
</style>
<g>
	<g>
		<g>
			<g>
				<g>
					<g>
						<g>
							<defs>
								<path id="SVGID_1_" d="M43,667.3c-0.6,3.9-9.6,8.5-17.5,8.5l0,0C17.7,676.2,7,672,7,667.3V57.5c1.7-5.6,11.1-8.8,17.3-8.8
									l0,0c7.3,0,16.9,3.3,18.7,9.1V667.3L43,667.3z"/>
							</defs>
							<clipPath id="SVGID_00000034786114378033188310000002756711040931254451_">
								<use xlink:href="#SVGID_1_"  style="overflow:visible;"/>
							</clipPath>
							
								<rect x="-1.9" y="570.5" style="clip-path:url(#SVGID_00000034786114378033188310000002756711040931254451_);fill:#FFFAFA;" width="53.6" height="112.2"/>
						</g>
					</g>
				</g>
			</g>
		</g>
		<g>
			<g>
				<g>
					<g>
						<g>
							<defs>
								<path id="SVGID_00000150799614592232339180000000635594214529403551_" d="M43,667.3c-0.6,3.9-9.6,8.5-17.5,8.5l0,0
									C17.7,676.2,7,672,7,667.3V57.5c1.7-5.6,11.1-8.8,17.3-8.8l0,0c7.3,0,16.9,3.3,18.7,9.1V667.3L43,667.3z"/>
							</defs>
							<clipPath id="SVGID_00000023992270290593726560000016389659261253951372_">
								<use xlink:href="#SVGID_00000150799614592232339180000000635594214529403551_"  style="overflow:visible;"/>
							</clipPath>
							
								<rect x="-1.3" y="366.5" style="clip-path:url(#SVGID_00000023992270290593726560000016389659261253951372_);fill:#FBD5D6;" width="53.6" height="102"/>
						</g>
					</g>
				</g>
			</g>
		</g>
		<g>
			<g>
				<g>
					<g>
						<g>
							<defs>
								<path id="SVGID_00000112590754811689175200000003410608963761348248_" d="M43,667.3c-0.6,3.9-9.6,8.5-17.5,8.5l0,0
									C17.7,676.2,7,672,7,667.3V57.5c1.7-5.6,11.1-8.8,17.3-8.8l0,0c7.3,0,16.9,3.3,18.7,9.1V667.3L43,667.3z"/>
							</defs>
							<clipPath id="SVGID_00000020396781665475361760000008222874686239390080_">
								<use xlink:href="#SVGID_00000112590754811689175200000003410608963761348248_"  style="overflow:visible;"/>
							</clipPath>
							
								<rect x="-1.3" y="264.4" style="clip-path:url(#SVGID_00000020396781665475361760000008222874686239390080_);fill:#F9C1C2;" width="53.6" height="102"/>
						</g>
					</g>
				</g>
			</g>
		</g>
		<g>
			<g>
				<g>
					<g>
						<g>
							<defs>
								<path id="SVGID_00000165923524163541751670000009358580908014394291_" d="M43,667.3c-0.6,3.9-9.6,8.5-17.5,8.5l0,0
									C17.7,676.2,7,672,7,667.3V57.5c1.7-5.6,11.1-8.8,17.3-8.8l0,0c7.3,0,16.9,3.3,18.7,9.1V667.3L43,667.3z"/>
							</defs>
							<clipPath id="SVGID_00000134936465464439453830000010078497199868597639_">
								<use xlink:href="#SVGID_00000165923524163541751670000009358580908014394291_"  style="overflow:visible;"/>
							</clipPath>
							
								<rect x="-1.9" y="468.4" style="clip-path:url(#SVGID_00000134936465464439453830000010078497199868597639_);fill:#FDEBEB;" width="53.6" height="102"/>
						</g>
					</g>
				</g>
			</g>
		</g>
		<g>
			<g>
				<g>
					<g>
						<g>
							<defs>
								<path id="SVGID_00000087374019888264533900000002217235750185345694_" d="M43,667.3c-0.6,3.9-9.6,8.5-17.5,8.5l0,0
									C17.7,676.2,7,672,7,667.3V57.5c1.7-5.6,11.1-8.8,17.3-8.8l0,0c7.3,0,16.9,3.3,18.7,9.1V667.3L43,667.3z"/>
							</defs>
							<clipPath id="SVGID_00000165210807315294345660000013531774837701204135_">
								<use xlink:href="#SVGID_00000087374019888264533900000002217235750185345694_"  style="overflow:visible;"/>
							</clipPath>
							
								<rect x="-1.3" y="162.5" style="clip-path:url(#SVGID_00000165210807315294345660000013531774837701204135_);fill:#F6ABAD;" width="53.6" height="102"/>
						</g>
					</g>
				</g>
			</g>
		</g>
		<g>
			<g>
				<g>
					<g>
						<g>
							<defs>
								<path id="SVGID_00000153674824964821434610000013511507633573522332_" d="M43,667.3c-0.6,3.9-9.6,8.5-17.5,8.5l0,0
									C17.7,676.2,7,672,7,667.3V57.5c-1.1-9.2,10.9-7.8,17.1-7.8l0.2-0.9c7.3,0,18.5-0.4,18.7,9.1V667.3L43,667.3z"/>
							</defs>
							<clipPath id="SVGID_00000122000088365094899940000009779271398724567487_">
								<use xlink:href="#SVGID_00000153674824964821434610000013511507633573522332_"  style="overflow:visible;"/>
							</clipPath>
							
								<rect x="-1.9" y="50.3" style="clip-path:url(#SVGID_00000122000088365094899940000009779271398724567487_);fill:#F49799;" width="53.6" height="112.2"/>
						</g>
					</g>
				</g>
			</g>
		</g>
	</g>
</g>
<circle class="st6" cx="24.1" cy="26.6" r="19.8"/>
<rect x="11.1" y="632" class="st7" width="15.4" height="11.8"/>
<path class="st8" d="M36.6,675.8H12.1c-3.4,0-6.2-2.8-6.2-6.2V56.1c0-3.4,2.8-6.2,6.2-6.2h24.5c3.4,0,6.2,2.8,6.2,6.2v613.5
	C42.8,673,40,675.8,36.6,675.8z"/>
<g>
	<path class="st9" d="M18.3,52.8v7.9h-0.9v-6.9l-2,1.3L15,54.4l2.5-1.7h0.8V52.8z"/>
	<path class="st9" d="M23.7,52.7c0.7,0,1.2,0.1,1.6,0.4c0.9,0.5,1.3,1.8,1.3,3.8c0,1.4-0.2,2.5-0.7,3.1s-1.2,0.9-2.2,0.9
		S22,60.6,21.5,60c-0.5-0.6-0.7-1.6-0.7-3.1s0.2-2.6,0.7-3.2C22,53,22.8,52.7,23.7,52.7z M23.7,53.5c-0.5,0-0.8,0.1-1.1,0.3
		c-0.6,0.4-0.9,1.4-0.9,3.1c0,1.2,0.2,2,0.5,2.5s0.8,0.7,1.5,0.7s1.2-0.2,1.5-0.7s0.5-1.3,0.5-2.5s-0.2-2.1-0.5-2.6
		S24.4,53.5,23.7,53.5z"/>
	<path class="st9" d="M30.4,52.7c0.7,0,1.2,0.1,1.6,0.4c0.9,0.5,1.3,1.8,1.3,3.8c0,1.4-0.2,2.5-0.7,3.1s-1.2,0.9-2.2,0.9
		s-1.7-0.3-2.2-0.9c-0.5-0.6-0.7-1.6-0.7-3.1s0.2-2.6,0.7-3.2C28.7,53,29.5,52.7,30.4,52.7z M30.4,53.5c-0.5,0-0.8,0.1-1.1,0.3
		c-0.6,0.4-0.9,1.4-0.9,3.1c0,1.2,0.2,2,0.5,2.5s0.8,0.7,1.5,0.7s1.2-0.2,1.5-0.7s0.5-1.3,0.5-2.5s-0.2-2.1-0.5-2.6
		S31.1,53.5,30.4,53.5z"/>
</g>
<g>
	<path class="st10" d="M19.2,361.6v-0.8h4.9v1.2l-3,6.8l-0.9-0.3l3-6.6v-0.3L19.2,361.6L19.2,361.6z"/>
	<path class="st10" d="M28.3,360.6c0.7,0,1.2,0.1,1.6,0.4c0.9,0.5,1.3,1.8,1.3,3.8c0,1.4-0.2,2.5-0.7,3.1s-1.2,0.9-2.2,0.9
		s-1.7-0.3-2.2-0.9s-0.7-1.6-0.7-3.1s0.2-2.6,0.7-3.2C26.6,360.9,27.3,360.6,28.3,360.6z M28.3,361.4c-0.5,0-0.8,0.1-1.1,0.3
		c-0.6,0.4-0.9,1.4-0.9,3.1c0,1.2,0.2,2,0.5,2.5s0.8,0.7,1.5,0.7s1.2-0.2,1.5-0.7s0.5-1.3,0.5-2.5s-0.2-2.1-0.5-2.6
		S29,361.4,28.3,361.4z"/>
</g>
<line class="st11" x1="6.6" y1="365.3" x2="18.9" y2="365.3"/>
<line class="st11" x1="43" y1="365.3" x2="32.4" y2="365.3"/>
<g>
	<path class="st10" d="M20.8,164.4c1.4,0,2.2-0.9,2.2-2.8c-0.8,0.3-1.5,0.5-2.1,0.5c-1.7,0-2.6-0.8-2.6-2.4c0-0.8,0.2-1.4,0.7-1.9
		s1.2-0.7,2-0.7c1,0,1.7,0.4,2.2,1.1c0.5,0.7,0.7,1.8,0.7,3.2s-0.3,2.4-0.8,3s-1.3,0.9-2.3,0.9c-0.6,0-1.2-0.1-1.9-0.2h-0.3l0.1-0.7
		C19.4,164.4,20.1,164.4,20.8,164.4z M21,161.3c0.5,0,1.1-0.1,1.7-0.3l0.3-0.1c0-2-0.7-3-1.9-3c-0.6,0-1,0.2-1.3,0.5
		s-0.5,0.8-0.5,1.3C19.3,160.8,19.8,161.3,21,161.3z"/>
	<path class="st10" d="M27.9,157.1c0.7,0,1.2,0.1,1.6,0.4c0.9,0.5,1.3,1.8,1.3,3.8c0,1.4-0.2,2.5-0.7,3.1s-1.2,0.9-2.2,0.9
		s-1.7-0.3-2.2-0.9c-0.5-0.6-0.7-1.6-0.7-3.1s0.2-2.6,0.7-3.2C26.2,157.4,26.9,157.1,27.9,157.1z M27.9,157.9
		c-0.5,0-0.8,0.1-1.1,0.3c-0.6,0.4-0.9,1.4-0.9,3.1c0,1.2,0.2,2,0.5,2.5s0.8,0.7,1.5,0.7s1.2-0.2,1.5-0.7s0.5-1.3,0.5-2.5
		s-0.2-2.1-0.5-2.6S28.6,157.9,27.9,157.9z"/>
</g>
<line class="st11" x1="6.1" y1="161.8" x2="17.1" y2="161.8"/>
<line class="st11" x1="42.5" y1="161.8" x2="31.9" y2="161.8"/>
<g>
	<path class="st12" d="M24.9,663.9c0.7,0,1.2,0.1,1.6,0.4c0.9,0.5,1.3,1.8,1.3,3.8c0,1.4-0.2,2.5-0.7,3.1s-1.2,0.9-2.2,0.9
		s-1.7-0.3-2.2-0.9c-0.5-0.6-0.7-1.6-0.7-3.1s0.2-2.6,0.7-3.2C23.2,664.2,23.9,663.9,24.9,663.9z M24.9,664.7
		c-0.5,0-0.8,0.1-1.1,0.3c-0.6,0.4-0.9,1.4-0.9,3.1c0,1.2,0.2,2,0.5,2.5s0.8,0.7,1.5,0.7s1.2-0.2,1.5-0.7s0.5-1.3,0.5-2.5
		s-0.1-2.1-0.5-2.6C26.1,664.9,25.6,664.7,24.9,664.7z"/>
</g>
<g>
	<path class="st12" d="M24.1,464.4c-0.7-0.1-1.4-0.1-2.1-0.1s-1.2,0.2-1.6,0.7s-0.6,1.1-0.6,2l0.3-0.1c0.2-0.1,0.5-0.1,0.8-0.2
		s0.6-0.1,0.9-0.1c1.8,0,2.7,0.8,2.7,2.5c0,0.8-0.2,1.5-0.7,1.9c-0.5,0.5-1.2,0.7-2,0.7c-1.9,0-2.8-1.4-2.8-4.1
		c0-1.4,0.3-2.4,0.8-3.1s1.3-1,2.3-1c0.6,0,1.3,0,1.8,0.1l0.3,0.1L24.1,464.4z M21.8,467.4c-0.3,0-0.6,0-0.9,0.1s-0.6,0.1-0.8,0.2
		l-0.3,0.1c0,0.9,0.2,1.6,0.5,2.2c0.3,0.5,0.8,0.8,1.4,0.8s1.1-0.2,1.4-0.5s0.5-0.7,0.5-1.3c0-0.6-0.2-1-0.5-1.3
		C22.7,467.5,22.3,467.4,21.8,467.4z"/>
	<path class="st12" d="M28.3,463.4c0.7,0,1.2,0.1,1.6,0.4c0.9,0.5,1.3,1.8,1.3,3.8c0,1.4-0.2,2.5-0.7,3.1s-1.2,0.9-2.2,0.9
		s-1.7-0.3-2.2-0.9s-0.7-1.6-0.7-3.1s0.2-2.6,0.7-3.2C26.6,463.8,27.4,463.4,28.3,463.4z M28.4,464.3c-0.5,0-0.8,0.1-1.1,0.3
		c-0.6,0.4-0.9,1.4-0.9,3.1c0,1.2,0.2,2,0.5,2.5s0.8,0.7,1.5,0.7s1.2-0.2,1.5-0.7s0.5-1.3,0.5-2.5s-0.1-2.1-0.5-2.6
		C29.5,464.5,29,464.3,28.4,464.3z"/>
</g>
<line class="st11" x1="6.2" y1="468.2" x2="17.6" y2="468.2"/>
<line class="st11" x1="42.6" y1="468.2" x2="32" y2="468.2"/>
<g>
	<path class="st13" d="M15.5,35.2h17.1c3.6,0,6.6-2.2,7.3-5.2c0.4-2-0.1-3.9-1.5-5.4c-1.2-1.2-2.9-2.1-4.7-2.3v-1.5
		c0-5.2-5.3-9.2-10.9-8.6c-4.8,0.5-8.6,4.3-8.6,9v1.1c-1.5,0.1-3,0.9-4.1,1.8c-1.7,1.5-2.3,3.6-2.1,5.6
		C8.6,32.8,12.1,35.2,15.5,35.2z M11.5,25.4c1-0.9,2.3-1.4,3.7-1.4c0.6,0,1-0.4,1-0.9v-2c0-3.8,3.5-7.2,7.9-7.2c4.3,0,7.9,3.2,7.9,7
		v2.2c0,0.5,0.4,0.9,1,0.9c1.7,0,3.2,0.6,4.1,1.7c1,1.1,1.4,2.6,1.1,4.1c-0.6,2.2-2.8,3.8-5.5,3.8H15.5c-2.5,0-5.1-1.8-5.5-3.9
		C9.7,28,10.3,26.5,11.5,25.4z"/>
</g>
<g>
	<path class="st12" d="M23.4,566.1v0.8h-3.9l-0.2,2.6c0.6-0.3,1.2-0.5,1.9-0.5c1.7,0,2.5,0.8,2.5,2.3c0,0.9-0.2,1.6-0.7,2.1
		s-1.1,0.7-2,0.7c-0.7,0-1.4-0.1-2.2-0.3l-0.4-0.1l0.1-0.7c0.9,0.2,1.7,0.3,2.3,0.3s1.1-0.2,1.4-0.5s0.5-0.8,0.5-1.4s-0.1-1-0.4-1.2
		s-0.7-0.4-1.2-0.4c-0.3,0-0.6,0-0.9,0.1s-0.6,0.2-0.7,0.2l-0.3,0.1l-0.6-0.1l0.2-4.1h4.6V566.1z"/>
	<path class="st12" d="M27.7,566c0.7,0,1.2,0.1,1.6,0.4c0.9,0.5,1.3,1.8,1.3,3.8c0,1.4-0.2,2.5-0.7,3.1s-1.2,0.9-2.2,0.9
		s-1.7-0.3-2.2-0.9c-0.5-0.6-0.7-1.6-0.7-3.1s0.2-2.6,0.7-3.2C26,566.3,26.7,566,27.7,566z M27.7,566.8c-0.5,0-0.8,0.1-1.1,0.3
		c-0.6,0.4-0.9,1.4-0.9,3.1c0,1.2,0.2,2,0.5,2.5s0.8,0.7,1.5,0.7s1.2-0.2,1.5-0.7s0.5-1.3,0.5-2.5s-0.2-2.1-0.5-2.6
		S28.4,566.8,27.7,566.8z"/>
</g>
<line class="st11" x1="5.6" y1="570.7" x2="17" y2="570.7"/>
<line class="st11" x1="41.9" y1="570.7" x2="31.4" y2="570.7"/>
<g>
	<path class="st10" d="M19.3,259.3c0.5-0.3,1.2-0.5,2.1-0.5s1.6,0.2,2.1,0.5s0.8,0.9,0.8,1.5c0,0.5-0.1,0.9-0.3,1.1
		c-0.2,0.3-0.5,0.5-1,0.7c0.5,0.2,0.8,0.5,1.1,0.8c0.2,0.3,0.4,0.7,0.4,1.2c0,1.5-1,2.3-3,2.3s-3-0.7-3-2.1c0-0.6,0.1-1,0.3-1.3
		c0.2-0.3,0.6-0.6,1-0.8c-0.4-0.2-0.7-0.5-0.9-0.7c-0.2-0.3-0.3-0.7-0.3-1.1C18.5,260.2,18.8,259.7,19.3,259.3z M19.4,264.7
		c0,1,0.7,1.5,2,1.5s2-0.5,2-1.5c0-0.4-0.1-0.7-0.4-0.9c-0.2-0.2-0.6-0.4-1-0.5h-1.3c-0.4,0.1-0.8,0.3-1,0.5
		C19.5,263.9,19.4,264.3,19.4,264.7z M23.2,261c0-0.9-0.6-1.3-1.9-1.3s-1.9,0.4-1.9,1.3c0,0.4,0.1,0.6,0.3,0.9
		c0.2,0.2,0.5,0.4,0.9,0.5h1.3c0.4-0.1,0.8-0.3,1-0.5C23.1,261.6,23.2,261.3,23.2,261z"/>
	<path class="st10" d="M28.1,258.8c0.7,0,1.2,0.1,1.6,0.4c0.9,0.5,1.3,1.8,1.3,3.8c0,1.4-0.2,2.5-0.7,3.1s-1.2,0.9-2.2,0.9
		s-1.7-0.3-2.2-0.9s-0.7-1.6-0.7-3.1s0.2-2.6,0.7-3.2C26.4,259.1,27.1,258.8,28.1,258.8z M28.1,259.6c-0.5,0-0.8,0.1-1.1,0.3
		c-0.6,0.4-0.9,1.4-0.9,3.1c0,1.2,0.2,2,0.5,2.5s0.8,0.7,1.5,0.7s1.2-0.2,1.5-0.7s0.5-1.3,0.5-2.5s-0.1-2.1-0.5-2.6
		C29.3,259.9,28.8,259.6,28.1,259.6z"/>
</g>
<line class="st11" x1="6.3" y1="263.5" x2="17.3" y2="263.5"/>
<line class="st11" x1="42.7" y1="263.5" x2="32.1" y2="263.5"/>
<path class="st14" d="M20,29.5c0,0-0.1,0.2,0.1,0.3c0.1,0.1,0.3,0,0.3,0l4.2-6l4.2-6c0,0,0.1-0.1-0.1-0.2s-0.3,0-0.3,0l-4.2,6
	L20,29.5z"/>
<circle class="st15" cx="20.9" cy="20.4" r="2.5"/>
<circle class="st15" cx="27.7" cy="27" r="2.5"/>
<g class="st16">
	<path class="st13" d="M21.9,36.5h1.5v6.4h4.3V44h-5.8V36.5z"/>
</g>
</svg>
