<?xml version="1.0" encoding="utf-8"?>
<!-- Generator: Adobe Illustrator 28.0.0, SVG Export Plug-In . SVG Version: 6.00 Build 0)  -->
<svg version="1.1" id="Livello_1" xmlns="http://www.w3.org/2000/svg" xmlns:xlink="http://www.w3.org/1999/xlink" x="0px" y="0px"
	 viewBox="0 0 886.7 243.2" style="enable-background:new 0 0 886.7 243.2;" xml:space="preserve">
<style type="text/css">
	.st0{fill:#0071CE;}
</style>
<path class="st0" d="M128.3,196.3c-8.4,2.7-16.3,4-24.3,4c-43.6,0-79.1-34.4-79.1-76.7c0-42.3,35.5-76.7,79.1-76.7
	c15.5,0,30.7,4.5,43.9,13.1l2.3,1.5l-14.6,25.6l-2.6-1.8c-8.6-6.1-18.6-9.3-29-9.3c-27.2,0-49.3,21.4-49.3,47.7
	c0,26.2,22.1,47.6,49.3,47.6c8.1,0,16.2-2,23.4-5.9l0.9-0.4V196.3z M669.3,164.1l-2.7,1.4c-7.2,3.8-15.3,5.9-23.4,5.9
	c-27.2,0-49.3-21.3-49.3-47.6c0-26.3,22.1-47.7,49.3-47.7c10.3,0,20.3,3.2,28.9,9.3l2.6,1.8l14.6-25.6l-2.3-1.5
	c-13.2-8.6-28.4-13.1-43.9-13.1c-21.1,0-40.9,8-55.9,22.5c-15,14.5-23.2,33.8-23.2,54.2c0,20.5,8.3,39.7,23.2,54.2
	c15,14.5,34.8,22.4,55.9,22.4c8.4,0,16.7-1.4,25.5-4.4l0.6-0.2V164.1z M729,194.6l40.2-76.2l0.2,0.1c3.3-6.3,5.6-10.8,6.7-12.7
	c3.8,7.4,18.8,36.1,22.2,42.6c-4.2,0-16.6,0-27.3,0l-15.7,29.8c10.8,0,55.6,0,58.5,0c1.3,2.5,8.2,15.8,8.6,16.5h31.2L776,46.4
	l-77.6,148.2H729z M541.5,166.2c0,0-88.3,0-93.8,0c0-4.6,0-28.3,0-32.8c4.5,0,56.9,0,74.3,0v-28.4c-17.4,0-69.8,0-74.3,0
	c0-4.5,0-25.6,0-30.1c5.5,0,93.8,0,93.8,0V46.4H418.6v148.2h122.9V166.2z M181,46.4v148.1H212V46.4H181z M384.2,46.2h-28.4v3.4h-0.1
	c0,0,0,95.5,0,107.8c-9-9-110.6-110.1-110.6-110.1l0,147.4H274c0-9.8,0-67.1,0-77.9c8.7,8.8,103.2,104.5,110.2,111.6V46.2z"/>
</svg>
