<?xml version="1.0" encoding="utf-8"?>
<!-- Generator: Adobe Illustrator 27.7.0, SVG Export Plug-In . SVG Version: 6.00 Build 0)  -->
<svg version="1.1" id="Livello_1" xmlns="http://www.w3.org/2000/svg" xmlns:xlink="http://www.w3.org/1999/xlink" x="0px" y="0px"
	width="38px" height="644px" viewBox="0 0 37.2 644.1" style="enable-background:new 0 0 37.2 644.1;" xml:space="preserve">
<style type="text/css">
	.st0{display:none;}
	.st1{display:inline;}
	.st2{clip-path:url(#SVGID_00000098217278098418447400000000968132201974526139_);fill:#FFFAFA;}
	.st3{clip-path:url(#SVGID_00000000925765988233706650000000613842492447046051_);fill:#FBD5D6;}
	.st4{clip-path:url(#SVGID_00000072992012485114356800000006496234173400817068_);fill:#F9C1C2;}
	.st5{clip-path:url(#SVGID_00000143585827793878790610000003937696048562226110_);fill:#FDEBEB;}
	.st6{clip-path:url(#SVGID_00000131345647652490859800000013190491833275560376_);fill:#F6ABAD;}
	.st7{clip-path:url(#SVGID_00000139979890329205482960000010914098827126043547_);fill:#F49799;}
	.st8{clip-path:url(#SVGID_00000090992088956803748420000007748056703977723026_);fill:#C8E8F0;}
	.st9{clip-path:url(#SVGID_00000144322691146210842060000005588671000360503439_);fill:#D0EBF7;}
	.st10{clip-path:url(#SVGID_00000160172946450594422650000018135568807861635228_);fill:#4898DA;}
	.st11{clip-path:url(#SVGID_00000081622678943348644150000006055519357089879231_);fill:#A3A5D7;}
	.st12{clip-path:url(#SVGID_00000005980184950569193130000005595869126436522410_);fill:#B988C1;}
	.st13{clip-path:url(#SVGID_00000124848383038309267940000017348835109587289527_);fill:#D7A2CD;}
	.st14{clip-path:url(#SVGID_00000005229070557214454410000008013235838695722119_);fill:#E8BEDB;}
	.st15{clip-path:url(#SVGID_00000038380401226670923760000000287550203748022711_);fill:#E67D9B;}
	.st16{clip-path:url(#SVGID_00000016076733877088889800000013056950652647732394_);fill:#DB4C4D;}
	.st17{clip-path:url(#SVGID_00000002362615134434787870000010808107669403632262_);fill:#EF5A5C;}
	.st18{clip-path:url(#SVGID_00000001629417941651829150000012208071599895174546_);fill:#F7A25C;}
	.st19{clip-path:url(#SVGID_00000141429470921572604490000000333151717262293901_);fill:#FDD58F;}
	.st20{clip-path:url(#SVGID_00000143609411107164892570000009067349760711743916_);fill:#FFE173;}
	.st21{clip-path:url(#SVGID_00000085959895437919012760000015719307139043771817_);fill:#FEFE82;}
	.st22{clip-path:url(#SVGID_00000112630063032937566470000009305652971025312438_);fill:#FFFFC7;}
	.st23{clip-path:url(#SVGID_00000052097034715031642180000012856439992589355186_);fill:#F3F3A1;}
	.st24{clip-path:url(#SVGID_00000000195565200594712480000006800608639770998710_);fill:#D3ECA4;}
	.st25{clip-path:url(#SVGID_00000154387635365314731980000015907944847096496545_);fill:#C3E6D8;}
	.st26{clip-path:url(#SVGID_00000126286587906422816500000017994761757999868324_);fill:#C8E8F0;}
	.st27{clip-path:url(#SVGID_00000071543955595265248490000002255898086767435158_);fill:#D0EBF7;}
	.st28{clip-path:url(#SVGID_00000109026394338414473670000000917686711910184322_);fill:#EC2426;}
	.st29{clip-path:url(#SVGID_00000023972732371232347550000016886325700027809975_);fill:#FCFC1E;}
	.st30{clip-path:url(#SVGID_00000019652311324900711130000012660425482268251531_);fill:#0B7F3F;}
	.st31{clip-path:url(#SVGID_00000177473487028662671440000008878131153423708053_);fill:#F7A426;}
	.st32{clip-path:url(#SVGID_00000155868109023728692580000008634837471934056871_);fill:#6FC9DC;}
	.st33{clip-path:url(#SVGID_00000085961381503267478870000004014978953578597531_);fill:#3F57B0;}
	.st34{display:none;fill:#3A332F;}
	.st35{display:none;fill:none;stroke:#3C3430;stroke-width:2.9317;stroke-miterlimit:9.7722;}
	.st36{display:inline;fill:#3C3530;}
	.st37{display:inline;fill:#FFFFFF;}
	.st38{display:none;fill:none;}
	.st39{display:none;enable-background:new    ;}
	.st40{clip-path:url(#SVGID_00000117678363852171663390000002760413254305891212_);}
	.st41{fill:#F59826;}
	.st42{fill:#FDCC22;}
	.st43{fill:#6655AD;}
	.st44{fill:#975EAD;}
	.st45{fill:#C66AAF;}
	.st46{fill:#AF48A1;}
	.st47{fill:#981595;}
	.st48{fill:#660666;}
	.st49{fill:#640E0E;}
	.st50{fill:#991E1F;}
	.st51{fill:#CB2527;}
	.st52{fill:#EC2426;}
	.st53{fill:#F06626;}
	.st54{fill:#FCFC1E;}
	.st55{fill:#CBE436;}
	.st56{fill:#7ECB47;}
	.st57{fill:#0EB04E;}
	.st58{fill:#37BD7C;}
	.st59{fill:#58C3BA;}
	.st60{fill:#6FC9DC;}
	.st61{fill:#33BCF3;}
	.st62{fill:#498DD2;}
	.st63{fill:#4469BB;}
	.st64{fill:#3F57B0;}
	.st65{display:inline;fill:#39322E;}
	.st66{display:none;fill:#39322E;}
	.st67{fill:#FFFFFF;}
	.st68{fill:none;}
	.st69{fill:#39322E;}
	.st70{fill:none;stroke:#3C3430;stroke-width:2.9317;stroke-miterlimit:9.7722;}
	.st71{clip-path:url(#SVGID_00000173143939364533748870000016472732925884784773_);fill:#FAFAFD;}
	.st72{clip-path:url(#SVGID_00000116929268501601192750000011005437460239827898_);fill:#D8D7EE;}
	.st73{clip-path:url(#SVGID_00000050633097460098886630000014732950103574037900_);fill:#C4C5E6;}
	.st74{clip-path:url(#SVGID_00000050652298583897723020000001536204218791677317_);fill:#ECECF7;}
	.st75{clip-path:url(#SVGID_00000011021790477178982310000016832068776707717288_);fill:#B0B2DD;}
	.st76{clip-path:url(#SVGID_00000040565241912033680370000009601907473924392883_);fill:#9FA1D5;}
	.st77{fill:#3C3530;}
</style>
<circle class="st69" cx="18.6" cy="20.6" r="14.6"/>
<path class="st70" d="M30.4,632.2c-0.3,3.7-6.3,8.1-11.6,8.1l0,0c-5.2,0.4-12.2-3.5-12.2-8.1V48.9c1.1-5.3,7.2-8.4,11.5-8.4l0,0
	c4.8,0,11.1,3.2,12.4,8.7L30.4,632.2L30.4,632.2z"/>
<g>
	<path class="st67" d="M12.4,28.5h12.4c2.6,0,4.8-1.8,5.3-4.2c0.3-1.6-0.1-3.2-1.1-4.4c-0.9-1-2.1-1.7-3.4-1.9v-1.2
		c0-4.2-3.8-7.5-7.9-7c-3.5,0.4-6.2,3.5-6.2,7.3V18c-1.1,0.1-2.2,0.7-3,1.5c-1.2,1.2-1.7,2.9-1.5,4.6C7.4,26.5,9.9,28.5,12.4,28.5z
		 M9.5,20.5c0.7-0.7,1.7-1.1,2.7-1.1c0.4,0,0.7-0.3,0.7-0.7v-1.6c0-3.1,2.5-5.9,5.7-5.9c3.1,0,5.7,2.6,5.7,5.7v1.8
		c0,0.4,0.3,0.7,0.7,0.7c1.2,0,2.3,0.5,3,1.4s1,2.1,0.8,3.3c-0.4,1.8-2,3.1-4,3.1H12.4c-1.8,0-3.7-1.5-4-3.2
		C8.2,22.6,8.6,21.4,9.5,20.5z"/>
</g>
<rect x="13.8" y="28.5" class="st68" width="9.5" height="5.3"/>
<g>
	<path class="st67" d="M19.6,33l0-2.7l-1.3,2.3h-0.3l-1.3-2.2V33h-0.7v-4.1h0.6l1.6,2.7l1.6-2.7h0.6l0,4.1C20.3,33,19.6,33,19.6,33z
		"/>
</g>
<g>
	<g>
		<g>
			<g>
				<g>
					<defs>
						<path id="SVGID_00000020367187336474804110000010917790707660058808_" d="M30.5,631.9c-0.4,3.7-6.3,8.1-11.5,8.1l0,0
							c-5.1,0.4-12.2-3.6-12.2-8.1V48.7c1.1-5.4,7.3-8.4,11.4-8.4l0,0c4.8,0,11.1,3.2,12.3,8.7V631.9L30.5,631.9z"/>
					</defs>
					<clipPath id="SVGID_00000180356521465079226450000006196512894267605377_">
						<use xlink:href="#SVGID_00000020367187336474804110000010917790707660058808_"  style="overflow:visible;"/>
					</clipPath>
					
						<rect x="1" y="539.3" style="clip-path:url(#SVGID_00000180356521465079226450000006196512894267605377_);fill:#FAFAFD;" width="35.3" height="107.3"/>
				</g>
			</g>
		</g>
		<g>
			<g>
				<g>
					<defs>
						<path id="SVGID_00000097467327568639477040000013029432810611873426_" d="M30.5,631.9c-0.4,3.7-6.3,8.1-11.5,8.1l0,0
							c-5.1,0.4-12.2-3.6-12.2-8.1V48.7c1.1-5.4,7.3-8.4,11.4-8.4l0,0c4.8,0,11.1,3.2,12.3,8.7V631.9L30.5,631.9z"/>
					</defs>
					<clipPath id="SVGID_00000153681285287373059050000012074659528522840714_">
						<use xlink:href="#SVGID_00000097467327568639477040000013029432810611873426_"  style="overflow:visible;"/>
					</clipPath>
					
						<rect x="1.4" y="344.2" style="clip-path:url(#SVGID_00000153681285287373059050000012074659528522840714_);fill:#D8D7EE;" width="35.3" height="97.6"/>
				</g>
			</g>
		</g>
		<g>
			<g>
				<g>
					<defs>
						<path id="SVGID_00000094593649824287072180000009847890482565266312_" d="M30.5,631.9c-0.4,3.7-6.3,8.1-11.5,8.1l0,0
							c-5.1,0.4-12.2-3.6-12.2-8.1V48.7c1.1-5.4,7.3-8.4,11.4-8.4l0,0c4.8,0,11.1,3.2,12.3,8.7V631.9L30.5,631.9z"/>
					</defs>
					<clipPath id="SVGID_00000068640716580447948200000008117817458467784119_">
						<use xlink:href="#SVGID_00000094593649824287072180000009847890482565266312_"  style="overflow:visible;"/>
					</clipPath>
					
						<rect x="1.4" y="246.6" style="clip-path:url(#SVGID_00000068640716580447948200000008117817458467784119_);fill:#C4C5E6;" width="35.3" height="97.6"/>
				</g>
			</g>
		</g>
		<g>
			<g>
				<g>
					<defs>
						<path id="SVGID_00000174593877785740772670000008155828805930972560_" d="M30.5,631.9c-0.4,3.7-6.3,8.1-11.5,8.1l0,0
							c-5.1,0.4-12.2-3.6-12.2-8.1V48.7c1.1-5.4,7.3-8.4,11.4-8.4l0,0c4.8,0,11.1,3.2,12.3,8.7V631.9L30.5,631.9z"/>
					</defs>
					<clipPath id="SVGID_00000048502535344679594700000017651520741848188288_">
						<use xlink:href="#SVGID_00000174593877785740772670000008155828805930972560_"  style="overflow:visible;"/>
					</clipPath>
					
						<rect x="1" y="441.7" style="clip-path:url(#SVGID_00000048502535344679594700000017651520741848188288_);fill:#ECECF7;" width="35.3" height="97.6"/>
				</g>
			</g>
		</g>
		<g>
			<g>
				<g>
					<defs>
						<path id="SVGID_00000027581552833067574440000002018631642140612267_" d="M30.5,631.9c-0.4,3.7-6.3,8.1-11.5,8.1l0,0
							c-5.1,0.4-12.2-3.6-12.2-8.1V48.7c1.1-5.4,7.3-8.4,11.4-8.4l0,0c4.8,0,11.1,3.2,12.3,8.7V631.9L30.5,631.9z"/>
					</defs>
					<clipPath id="SVGID_00000137132681545095257070000002749559760074836359_">
						<use xlink:href="#SVGID_00000027581552833067574440000002018631642140612267_"  style="overflow:visible;"/>
					</clipPath>
					
						<rect x="1.4" y="149.1" style="clip-path:url(#SVGID_00000137132681545095257070000002749559760074836359_);fill:#B0B2DD;" width="35.3" height="97.6"/>
				</g>
			</g>
		</g>
		<g>
			<g>
				<g>
					<defs>
						<path id="SVGID_00000168093684127766080270000000156689640780249479_" d="M30.5,631.9c-0.4,3.7-6.3,8.1-11.5,8.1l0,0
							c-5.1,0.4-12.2-3.6-12.2-8.1V48.7c1.1-5.4,7.3-8.4,11.4-8.4l0,0c4.8,0,11.1,3.2,12.3,8.7V631.9L30.5,631.9z"/>
					</defs>
					<clipPath id="SVGID_00000051371195516183381980000007662025561053210515_">
						<use xlink:href="#SVGID_00000168093684127766080270000000156689640780249479_"  style="overflow:visible;"/>
					</clipPath>
					
						<rect x="1" y="41.8" style="clip-path:url(#SVGID_00000051371195516183381980000007662025561053210515_);fill:#9FA1D5;" width="35.3" height="107.3"/>
				</g>
			</g>
		</g>
	</g>
</g>
<path class="st70" d="M30.3,632.2c-0.4,3.7-6.3,8.1-11.5,8.1l0,0c-5.1,0.4-12.2-3.6-12.2-8.1V49c1.1-5.4,7.3-8.4,11.4-8.4l0,0
	c4.8,0,11.1,3.2,12.3,8.7V632.2L30.3,632.2z"/>
<g>
	<g>
		<path class="st67" d="M16.4,195.3c0.6,0.7,0.9,1.6,0.9,2.8c0,0.9-0.2,1.6-0.5,2.2c-0.3,0.6-0.8,1.1-1.3,1.4
			c-0.6,0.3-1.2,0.5-2,0.5c-0.4,0-0.8,0-1.1-0.1s-0.7-0.2-0.9-0.4l0.5-1.1c0.4,0.2,0.9,0.4,1.5,0.4c0.7,0,1.3-0.2,1.7-0.7
			c0.4-0.5,0.6-1.1,0.6-2l0,0c-0.2,0.3-0.5,0.5-0.9,0.6s-0.7,0.2-1.2,0.2s-1-0.1-1.4-0.3s-0.7-0.5-0.9-0.8c-0.2-0.4-0.3-0.8-0.3-1.2
			c0-0.5,0.1-0.9,0.4-1.3c0.2-0.4,0.6-0.7,1-0.9s0.9-0.3,1.4-0.3C15,194.3,15.8,194.7,16.4,195.3z M15.2,197.7
			c0.3-0.2,0.4-0.6,0.4-0.9c0-0.4-0.1-0.7-0.4-0.9s-0.7-0.4-1.2-0.4c-0.4,0-0.8,0.1-1.1,0.4c-0.3,0.2-0.4,0.6-0.4,1s0.1,0.7,0.4,1
			c0.3,0.2,0.7,0.4,1.1,0.4C14.5,198.1,14.9,197.9,15.2,197.7z"/>
		<path class="st67" d="M19.8,201.8c-0.5-0.3-0.9-0.8-1.1-1.4c-0.3-0.6-0.4-1.3-0.4-2.1s0.1-1.5,0.4-2.1s0.7-1.1,1.1-1.4
			c0.5-0.3,1-0.5,1.7-0.5c0.6,0,1.2,0.2,1.7,0.5s0.9,0.8,1.1,1.4s0.4,1.3,0.4,2.1s-0.1,1.5-0.4,2.1s-0.7,1.1-1.1,1.4
			c-0.5,0.3-1,0.5-1.7,0.5C20.8,202.2,20.3,202.1,19.8,201.8z M22.8,200.3c0.3-0.5,0.5-1.1,0.5-2s-0.2-1.6-0.5-2
			c-0.3-0.5-0.8-0.7-1.3-0.7s-1,0.2-1.3,0.7s-0.5,1.1-0.5,2s0.2,1.6,0.5,2c0.3,0.5,0.8,0.7,1.3,0.7C22,201,22.4,200.8,22.8,200.3z"
			/>
	</g>
</g>
<g>
	<g>
		<path class="st77" d="M17.6,296.2c0.2,0.3,0.3,0.7,0.3,1.1c0,0.5-0.1,0.9-0.4,1.2c-0.3,0.4-0.6,0.6-1.1,0.8
			c-0.5,0.2-1,0.3-1.7,0.3s-1.2-0.1-1.7-0.3c-0.5-0.2-0.8-0.5-1.1-0.8c-0.3-0.3-0.4-0.8-0.4-1.2s0.1-0.8,0.3-1.1
			c0.2-0.3,0.5-0.6,0.9-0.7c-0.3-0.2-0.5-0.4-0.7-0.7c-0.2-0.3-0.2-0.6-0.2-1s0.1-0.8,0.4-1.1c0.3-0.3,0.6-0.6,1-0.7
			c0.4-0.2,0.9-0.3,1.5-0.3s1.1,0.1,1.5,0.3c0.4,0.2,0.8,0.4,1,0.7c0.2,0.3,0.4,0.7,0.4,1.1s-0.1,0.7-0.3,0.9
			c-0.2,0.3-0.4,0.5-0.7,0.7C17.1,295.6,17.4,295.8,17.6,296.2z M16,298.1c0.3-0.2,0.5-0.5,0.5-0.9s-0.2-0.7-0.5-0.9
			c-0.3-0.2-0.7-0.3-1.3-0.3c-0.5,0-0.9,0.1-1.2,0.3c-0.3,0.2-0.5,0.5-0.5,0.9s0.2,0.7,0.5,0.9c0.3,0.2,0.7,0.3,1.2,0.3
			C15.3,298.5,15.7,298.3,16,298.1z M13.7,293.1c-0.3,0.2-0.4,0.5-0.4,0.8c0,0.3,0.1,0.6,0.4,0.8c0.3,0.2,0.6,0.3,1.1,0.3
			s0.8-0.1,1.1-0.3c0.3-0.2,0.4-0.5,0.4-0.8c0-0.3-0.1-0.6-0.4-0.8c-0.3-0.2-0.6-0.3-1.1-0.3S14,292.9,13.7,293.1z"/>
		<path class="st77" d="M20.4,299.1c-0.5-0.3-0.9-0.8-1.1-1.4c-0.3-0.6-0.4-1.3-0.4-2.1c0-0.8,0.1-1.5,0.4-2.1s0.7-1.1,1.1-1.4
			c0.5-0.3,1-0.5,1.7-0.5c0.6,0,1.2,0.2,1.7,0.5c0.5,0.3,0.9,0.8,1.1,1.4c0.2,0.6,0.4,1.3,0.4,2.1c0,0.8-0.1,1.5-0.4,2.1
			s-0.7,1.1-1.1,1.4c-0.5,0.3-1,0.5-1.7,0.5S20.9,299.4,20.4,299.1z M23.4,297.7c0.3-0.5,0.5-1.1,0.5-2s-0.2-1.6-0.5-2
			c-0.3-0.5-0.8-0.7-1.3-0.7s-1,0.2-1.3,0.7s-0.5,1.1-0.5,2s0.2,1.6,0.5,2c0.3,0.5,0.8,0.7,1.3,0.7C22.6,298.3,23,298.1,23.4,297.7z
			"/>
	</g>
</g>
<g>
	<g>
		<path class="st77" d="M17.3,389v1l-3,6.7h-1.5l2.9-6.5h-3v1.3h-1.3V389H17.3z"/>
		<path class="st77" d="M19.5,396.4c-0.5-0.3-0.9-0.8-1.1-1.4c-0.3-0.6-0.4-1.3-0.4-2.1s0.1-1.5,0.4-2.1s0.7-1.1,1.1-1.4
			c0.5-0.3,1-0.5,1.7-0.5c0.6,0,1.2,0.2,1.7,0.5s0.9,0.8,1.1,1.4s0.4,1.3,0.4,2.1s-0.1,1.5-0.4,2.1s-0.7,1.1-1.1,1.4
			c-0.5,0.3-1,0.5-1.7,0.5C20.5,396.8,20,396.7,19.5,396.4z M22.5,394.9c0.3-0.5,0.5-1.1,0.5-2s-0.2-1.6-0.5-2
			c-0.3-0.5-0.8-0.7-1.3-0.7s-1,0.2-1.3,0.7s-0.5,1.1-0.5,2s0.2,1.6,0.5,2c0.3,0.5,0.8,0.7,1.3,0.7
			C21.7,395.6,22.1,395.4,22.5,394.9z"/>
	</g>
</g>
<g>
	<path class="st77" d="M16.9,490.4c0.4,0.2,0.7,0.5,0.9,0.8s0.3,0.8,0.3,1.2c0,0.5-0.1,0.9-0.4,1.3c-0.2,0.4-0.6,0.7-1,0.9
		c-0.4,0.2-0.9,0.3-1.4,0.3c-1.1,0-1.9-0.3-2.5-1s-0.9-1.6-0.9-2.8c0-0.9,0.2-1.6,0.5-2.2s0.8-1.1,1.3-1.4c0.6-0.3,1.2-0.5,2-0.5
		c0.4,0,0.8,0,1.1,0.1s0.7,0.2,0.9,0.4l-0.5,1.1c-0.4-0.2-0.9-0.4-1.5-0.4c-0.7,0-1.3,0.2-1.7,0.7s-0.6,1.1-0.6,2l0,0
		c0.2-0.3,0.5-0.5,0.9-0.6s0.7-0.2,1.2-0.2C16.1,490.1,16.5,490.2,16.9,490.4z M16.4,493.5c0.3-0.2,0.4-0.6,0.4-1s-0.1-0.7-0.4-1
		c-0.3-0.2-0.7-0.4-1.1-0.4c-0.5,0-0.8,0.1-1.1,0.4c-0.3,0.2-0.4,0.6-0.4,0.9c0,0.4,0.1,0.7,0.4,0.9c0.3,0.2,0.7,0.4,1.2,0.4
		C15.8,493.9,16.1,493.8,16.4,493.5z"/>
	<path class="st77" d="M20.5,494.5c-0.5-0.3-0.9-0.8-1.1-1.4c-0.3-0.6-0.4-1.3-0.4-2.1s0.1-1.5,0.4-2.1s0.7-1.1,1.1-1.4
		s1-0.5,1.7-0.5c0.6,0,1.2,0.2,1.7,0.5s0.9,0.8,1.1,1.4s0.4,1.3,0.4,2.1s-0.1,1.5-0.4,2.1s-0.7,1.1-1.1,1.4c-0.5,0.3-1,0.5-1.7,0.5
		C21.6,495,21,494.8,20.5,494.5z M23.5,493.1c0.3-0.5,0.5-1.1,0.5-2s-0.2-1.6-0.5-2c-0.3-0.5-0.8-0.7-1.3-0.7s-1,0.2-1.3,0.7
		s-0.5,1.1-0.5,2s0.2,1.6,0.5,2c0.3,0.5,0.8,0.7,1.3,0.7C22.7,493.8,23.2,493.5,23.5,493.1z"/>
</g>
<g>
	<path class="st77" d="M16.6,584.4c0.5,0.4,0.8,1,0.8,1.7c0,0.5-0.1,0.9-0.3,1.3c-0.2,0.4-0.6,0.7-1,0.9c-0.5,0.2-1,0.3-1.7,0.3
		c-0.5,0-1.1-0.1-1.6-0.2c-0.5-0.2-0.9-0.4-1.3-0.7l0.6-1.1c0.3,0.2,0.6,0.4,1,0.6s0.8,0.2,1.2,0.2c0.5,0,0.9-0.1,1.2-0.3
		c0.3-0.2,0.4-0.5,0.4-0.9c0-0.4-0.2-0.7-0.5-0.9c-0.3-0.2-0.8-0.3-1.6-0.3h-1.9l0.4-4.2h4.5v1.2h-3.3l-0.2,1.8H14
		C15.3,583.7,16.1,583.9,16.6,584.4z"/>
	<path class="st77" d="M19.8,588.1c-0.5-0.3-0.9-0.8-1.1-1.4c-0.3-0.6-0.4-1.3-0.4-2.1c0-0.8,0.1-1.5,0.4-2.1
		c0.3-0.6,0.7-1.1,1.1-1.4c0.5-0.3,1-0.5,1.7-0.5c0.6,0,1.2,0.2,1.7,0.5s0.9,0.8,1.1,1.4c0.2,0.6,0.4,1.3,0.4,2.1
		c0,0.8-0.1,1.5-0.4,2.1c-0.3,0.6-0.7,1.1-1.1,1.4c-0.5,0.3-1,0.5-1.7,0.5S20.3,588.4,19.8,588.1z M22.7,586.6
		c0.3-0.5,0.5-1.1,0.5-2c0-0.9-0.2-1.6-0.5-2c-0.3-0.5-0.8-0.7-1.3-0.7s-1,0.2-1.3,0.7s-0.5,1.1-0.5,2c0,0.9,0.2,1.6,0.5,2
		c0.3,0.5,0.8,0.7,1.3,0.7C22,587.3,22.4,587.1,22.7,586.6z"/>
</g>
<g>
	<path class="st77" d="M13.7,630.6c-0.5-0.4-0.7-1.1-0.7-2c0-0.8,0.2-1.4,0.7-2c0.5-0.4,1-0.8,1.7-0.8c0.7,0,1.3,0.2,1.7,0.8
		c0.5,0.4,0.7,1.1,0.7,2s-0.2,1.4-0.7,2c-0.5,0.4-1,0.8-1.7,0.8C14.8,631.4,14.1,631.1,13.7,630.6z M16.4,629.9
		c0.2-0.3,0.3-0.8,0.3-1.2c0-0.6-0.1-1-0.3-1.2s-0.6-0.4-0.9-0.4c-0.3,0-0.7,0.1-0.9,0.4c-0.2,0.3-0.3,0.8-0.3,1.2
		c0,0.6,0.1,1,0.3,1.2c0.2,0.3,0.6,0.4,0.9,0.4C15.8,630.4,16.1,630.2,16.4,629.9z M21.5,626h1.4l-7,9.9h-1.4L21.5,626z M20.4,635.2
		c-0.5-0.4-0.7-1.1-0.7-2c0-0.8,0.2-1.4,0.7-2c0.5-0.4,1-0.8,1.7-0.8s1.3,0.2,1.7,0.8c0.5,0.4,0.7,1.1,0.7,2c0,0.8-0.2,1.4-0.7,2
		c-0.5,0.4-1,0.8-1.7,0.8S20.8,635.8,20.4,635.2z M23,634.6c0.2-0.3,0.3-0.8,0.3-1.2s-0.1-1-0.3-1.2c-0.2-0.3-0.6-0.4-0.9-0.4
		s-0.7,0.1-0.9,0.4c-0.2,0.3-0.3,0.8-0.3,1.2c0,0.6,0.1,1,0.3,1.2c0.2,0.3,0.6,0.4,0.9,0.4C22.6,635,22.8,634.9,23,634.6z"/>
</g>
<g>
	<path class="st67" d="M11.9,91.8v7.7h-1.4V93H8.9v-1.2H11.9z"/>
	<path class="st67" d="M15,99.1c-0.5-0.3-0.9-0.8-1.1-1.4c-0.3-0.6-0.4-1.3-0.4-2.1s0.1-1.5,0.4-2.1c0.3-0.6,0.7-1.1,1.1-1.4
		c0.5-0.3,1-0.5,1.7-0.5c0.6,0,1.2,0.2,1.7,0.5s0.9,0.8,1.1,1.4s0.4,1.3,0.4,2.1s-0.1,1.5-0.4,2.1s-0.7,1.1-1.1,1.4
		c-0.5,0.3-1,0.5-1.7,0.5S15.5,99.5,15,99.1z M18,97.7c0.3-0.5,0.5-1.1,0.5-2s-0.2-1.6-0.5-2c-0.3-0.5-0.8-0.7-1.3-0.7
		s-1,0.2-1.3,0.7s-0.5,1.1-0.5,2s0.2,1.6,0.5,2c0.3,0.5,0.8,0.7,1.3,0.7C17.2,98.4,17.6,98.1,18,97.7z"/>
	<path class="st67" d="M22.4,99.1c-0.5-0.3-0.9-0.8-1.1-1.4c-0.3-0.6-0.4-1.3-0.4-2.1s0.1-1.5,0.4-2.1s0.7-1.1,1.1-1.4
		c0.5-0.3,1-0.5,1.7-0.5c0.6,0,1.2,0.2,1.7,0.5s0.9,0.8,1.1,1.4s0.4,1.3,0.4,2.1s-0.1,1.5-0.4,2.1s-0.7,1.1-1.1,1.4
		c-0.5,0.3-1,0.5-1.7,0.5S22.9,99.5,22.4,99.1z M25.4,97.7c0.3-0.5,0.5-1.1,0.5-2s-0.2-1.6-0.5-2c-0.3-0.5-0.8-0.7-1.3-0.7
		s-1,0.2-1.3,0.7s-0.5,1.1-0.5,2s0.2,1.6,0.5,2c0.3,0.5,0.8,0.7,1.3,0.7C24.6,98.4,25,98.1,25.4,97.7z"/>
</g>
</svg>
