<?xml version="1.0" encoding="utf-8"?>
<!-- Generator: Adobe Illustrator 28.0.0, SVG Export Plug-In . SVG Version: 6.00 Build 0)  -->
<svg version="1.1" id="Livello_1" xmlns="http://www.w3.org/2000/svg" xmlns:xlink="http://www.w3.org/1999/xlink" x="0px" y="0px"
	width="40.8px" height="725.2px"  viewBox="0 0 40.8 725.2" style="enable-background:new 0 0 40.8 725.2;" xml:space="preserve">
<style type="text/css">
	.st0{clip-path:url(#SVGID_00000118354898716761884940000003290423676890549149_);fill:#FAFAFD;}
	.st1{clip-path:url(#SVGID_00000139274987330229827100000000125688089470799774_);fill:#D8D7EE;}
	.st2{clip-path:url(#SVGID_00000039824927403781299240000012233328881056639377_);fill:#C4C5E6;}
	.st3{clip-path:url(#SVGID_00000067215058233197935880000006934807737747066254_);fill:#ECECF7;}
	.st4{clip-path:url(#SVGID_00000005267463525283238440000004184942310948990381_);fill:#B0B2DD;}
	.st5{clip-path:url(#SVGID_00000178926228901498860850000008335139170423361954_);fill:#9FA1D5;}
	.st6{fill:#39322E;}
	.st7{fill:none;}
	.st8{fill:none;stroke:#3C3430;stroke-width:2;stroke-miterlimit:9.7722;}
	.st9{fill:#3C3530;stroke:#39322E;stroke-width:0.5;stroke-miterlimit:10;}
	.st10{fill:#3C3430;stroke:#39322E;stroke-width:0.5;stroke-miterlimit:10;}
	.st11{fill:none;stroke:#3C3430;stroke-miterlimit:9.7722;}
	.st12{fill:#3B3330;stroke:#39322E;stroke-width:0.5;stroke-miterlimit:10;}
	.st13{fill:#FFFFFF;}
	.st14{fill:#FFFFFF;stroke:#FFFFFF;stroke-width:0.4886;stroke-miterlimit:9.7722;}
	.st15{fill:none;stroke:#FFFFFF;stroke-width:0.9772;stroke-miterlimit:9.7722;}
</style>
<g>
	<g>
		<g>
			<g>
				<g>
					<g>
						<g>
							<g>
								<g>
									<defs>
										<path id="SVGID_1_" d="M38.7,714.3c-0.6,4.2-9.7,9.2-17.6,9.2l0,0c-7.8,0.4-18.7-4.1-18.7-9.2V50.6
											c1.7-6.2,11.2-9.5,17.5-9.5l0,0c7.4,0,17,3.7,18.9,10L38.7,714.3L38.7,714.3z"/>
									</defs>
									<clipPath id="SVGID_00000060718755605095731380000004501256730909697963_">
										<use xlink:href="#SVGID_1_"  style="overflow:visible;"/>
									</clipPath>
									
										<rect x="-6.5" y="608.9" style="clip-path:url(#SVGID_00000060718755605095731380000004501256730909697963_);fill:#FAFAFD;" width="54.1" height="122.2"/>
								</g>
							</g>
						</g>
					</g>
				</g>
			</g>
		</g>
		<g>
			<g>
				<g>
					<g>
						<g>
							<g>
								<g>
									<defs>
										<path id="SVGID_00000085941161832638944820000018335377122183162007_" d="M38.7,714.3c-0.6,4.2-9.7,9.2-17.6,9.2l0,0
											c-7.8,0.4-18.7-4.1-18.7-9.2V50.6c1.7-6.2,11.2-9.5,17.5-9.5l0,0c7.4,0,17,3.7,18.9,10L38.7,714.3L38.7,714.3z"/>
									</defs>
									<clipPath id="SVGID_00000024680651715558353060000006629327281791604646_">
										<use xlink:href="#SVGID_00000085941161832638944820000018335377122183162007_"  style="overflow:visible;"/>
									</clipPath>
									
										<rect x="-5.9" y="386.9" style="clip-path:url(#SVGID_00000024680651715558353060000006629327281791604646_);fill:#D8D7EE;" width="54.1" height="111.1"/>
								</g>
							</g>
						</g>
					</g>
				</g>
			</g>
		</g>
		<g>
			<g>
				<g>
					<g>
						<g>
							<g>
								<g>
									<defs>
										<path id="SVGID_00000100343859658596885260000006231280584796446114_" d="M38.7,714.3c-0.6,4.2-9.7,9.2-17.6,9.2l0,0
											c-7.8,0.4-18.7-4.1-18.7-9.2V50.6c1.7-6.2,11.2-9.5,17.5-9.5l0,0c7.4,0,17,3.7,18.9,10L38.7,714.3L38.7,714.3z"/>
									</defs>
									<clipPath id="SVGID_00000012431239137689793580000000869126015671379846_">
										<use xlink:href="#SVGID_00000100343859658596885260000006231280584796446114_"  style="overflow:visible;"/>
									</clipPath>
									
										<rect x="-5.9" y="275.8" style="clip-path:url(#SVGID_00000012431239137689793580000000869126015671379846_);fill:#C4C5E6;" width="54.1" height="111.1"/>
								</g>
							</g>
						</g>
					</g>
				</g>
			</g>
		</g>
		<g>
			<g>
				<g>
					<g>
						<g>
							<g>
								<g>
									<defs>
										<path id="SVGID_00000145770405104367436830000009037809315575933588_" d="M38.7,714.3c-0.6,4.2-9.7,9.2-17.6,9.2l0,0
											c-7.8,0.4-18.7-4.1-18.7-9.2V50.6c1.7-6.2,11.2-9.5,17.5-9.5l0,0c7.4,0,17,3.7,18.9,10L38.7,714.3L38.7,714.3z"/>
									</defs>
									<clipPath id="SVGID_00000049917155994011184770000015250373128073372820_">
										<use xlink:href="#SVGID_00000145770405104367436830000009037809315575933588_"  style="overflow:visible;"/>
									</clipPath>
									
										<rect x="-6.5" y="497.9" style="clip-path:url(#SVGID_00000049917155994011184770000015250373128073372820_);fill:#ECECF7;" width="54.1" height="111.1"/>
								</g>
							</g>
						</g>
					</g>
				</g>
			</g>
		</g>
		<g>
			<g>
				<g>
					<g>
						<g>
							<g>
								<g>
									<defs>
										<path id="SVGID_00000029756623603250434390000016836916297820319378_" d="M38.7,714.3c-0.6,4.2-9.7,9.2-17.6,9.2l0,0
											c-7.8,0.4-18.7-4.1-18.7-9.2V50.6c1.7-6.2,11.2-9.5,17.5-9.5l0,0c7.4,0,17,3.7,18.9,10L38.7,714.3L38.7,714.3z"/>
									</defs>
									<clipPath id="SVGID_00000045597032184168419410000007014410466414694068_">
										<use xlink:href="#SVGID_00000029756623603250434390000016836916297820319378_"  style="overflow:visible;"/>
									</clipPath>
									
										<rect x="-5.9" y="164.9" style="clip-path:url(#SVGID_00000045597032184168419410000007014410466414694068_);fill:#B0B2DD;" width="54.1" height="111.1"/>
								</g>
							</g>
						</g>
					</g>
				</g>
			</g>
		</g>
		<g>
			<g>
				<g>
					<g>
						<g>
							<g>
								<g>
									<defs>
										<path id="SVGID_00000060006607720014016760000002462273485262431890_" d="M38.7,714.3c-0.6,4.2-9.7,9.2-17.6,9.2l0,0
											c-7.8,0.4-18.7-4.1-18.7-9.2V50.6c1.7-6.2,11.2-9.5,17.5-9.5l0,0c7.4,0,17,3.7,18.9,10L38.7,714.3L38.7,714.3z"/>
									</defs>
									<clipPath id="SVGID_00000116214142423150698070000011696626193297864835_">
										<use xlink:href="#SVGID_00000060006607720014016760000002462273485262431890_"  style="overflow:visible;"/>
									</clipPath>
									<polygon style="clip-path:url(#SVGID_00000116214142423150698070000011696626193297864835_);fill:#9FA1D5;" points="
										-6.7,44 47.4,44 47.6,164.9 -6.5,164.9 									"/>
								</g>
							</g>
						</g>
					</g>
				</g>
			</g>
		</g>
	</g>
</g>
<circle class="st6" cx="20.3" cy="21.3" r="19.8"/>
<rect x="7.3" y="626.7" class="st7" width="15.4" height="11.8"/>
<path class="st8" d="M32.8,723.5H8.3c-3.4,0-6.2-3-6.2-6.7V51.3c0-3.7,2.8-6.7,6.2-6.7h24.5c3.4,0,6.2,3,6.2,6.7v665.5
	C39,720.5,36.2,723.5,32.8,723.5z"/>
<g>
	<path class="st9" d="M15.1,47.5v7.9h-0.9v-6.9l-2,1.3l-0.4-0.7l2.5-1.7h0.8V47.5z"/>
	<path class="st9" d="M20.5,47.4c0.7,0,1.2,0.1,1.6,0.4c0.9,0.5,1.3,1.8,1.3,3.8c0,1.4-0.2,2.5-0.7,3.1s-1.2,0.9-2.2,0.9
		s-1.7-0.3-2.2-0.9c-0.5-0.6-0.7-1.6-0.7-3.1s0.2-2.6,0.7-3.2C18.8,47.7,19.6,47.4,20.5,47.4z M20.5,48.2c-0.5,0-0.8,0.1-1.1,0.3
		c-0.6,0.4-0.9,1.4-0.9,3.1c0,1.2,0.2,2,0.5,2.5s0.8,0.7,1.5,0.7s1.2-0.2,1.5-0.7s0.5-1.3,0.5-2.5S22.3,49.5,22,49
		S21.2,48.2,20.5,48.2z"/>
	<path class="st9" d="M27.2,47.4c0.7,0,1.2,0.1,1.6,0.4c0.9,0.5,1.3,1.8,1.3,3.8c0,1.4-0.2,2.5-0.7,3.1s-1.2,0.9-2.2,0.9
		s-1.7-0.3-2.2-0.9c-0.5-0.6-0.7-1.6-0.7-3.1s0.2-2.6,0.7-3.2C25.5,47.7,26.3,47.4,27.2,47.4z M27.2,48.2c-0.5,0-0.8,0.1-1.1,0.3
		c-0.6,0.4-0.9,1.4-0.9,3.1c0,1.2,0.2,2,0.5,2.5s0.8,0.7,1.5,0.7s1.2-0.2,1.5-0.7s0.5-1.3,0.5-2.5S29,49.5,28.7,49
		S27.9,48.2,27.2,48.2z"/>
</g>
<g>
	<path class="st10" d="M15.2,383.3v-0.8h4.9v1.2l-3,6.8l-0.9-0.3l3-6.6v-0.3L15.2,383.3L15.2,383.3z"/>
	<path class="st10" d="M24.3,382.3c0.7,0,1.2,0.1,1.6,0.4c0.9,0.5,1.3,1.8,1.3,3.8c0,1.4-0.2,2.5-0.7,3.1s-1.2,0.9-2.2,0.9
		s-1.7-0.3-2.2-0.9s-0.7-1.6-0.7-3.1s0.2-2.6,0.7-3.2C22.6,382.6,23.3,382.3,24.3,382.3z M24.3,383.1c-0.5,0-0.8,0.1-1.1,0.3
		c-0.6,0.4-0.9,1.4-0.9,3.1c0,1.2,0.2,2,0.5,2.5s0.8,0.7,1.5,0.7s1.2-0.2,1.5-0.7s0.5-1.3,0.5-2.5s-0.2-2.1-0.5-2.6
		S25,383.1,24.3,383.1z"/>
</g>
<line class="st11" x1="2.6" y1="387" x2="14.9" y2="387"/>
<line class="st11" x1="39" y1="387" x2="28.4" y2="387"/>
<g>
	<path class="st10" d="M16.2,167c1.4,0,2.2-0.9,2.2-2.8c-0.8,0.3-1.5,0.5-2.1,0.5c-1.7,0-2.6-0.8-2.6-2.4c0-0.8,0.2-1.4,0.7-1.9
		s1.2-0.7,2-0.7c1,0,1.7,0.4,2.2,1.1c0.5,0.7,0.7,1.8,0.7,3.2s-0.3,2.4-0.8,3s-1.3,0.9-2.3,0.9c-0.6,0-1.2-0.1-1.9-0.2H14l0.1-0.7
		C14.8,167,15.5,167,16.2,167z M16.4,163.9c0.5,0,1.1-0.1,1.7-0.3l0.3-0.1c0-2-0.7-3-1.9-3c-0.6,0-1,0.2-1.3,0.5s-0.5,0.8-0.5,1.3
		C14.7,163.4,15.2,163.9,16.4,163.9z"/>
	<path class="st10" d="M23.3,159.7c0.7,0,1.2,0.1,1.6,0.4c0.9,0.5,1.3,1.8,1.3,3.8c0,1.4-0.2,2.5-0.7,3.1s-1.2,0.9-2.2,0.9
		s-1.7-0.3-2.2-0.9c-0.5-0.6-0.7-1.6-0.7-3.1s0.2-2.6,0.7-3.2C21.6,160,22.3,159.7,23.3,159.7z M23.3,160.5c-0.5,0-0.8,0.1-1.1,0.3
		c-0.6,0.4-0.9,1.4-0.9,3.1c0,1.2,0.2,2,0.5,2.5s0.8,0.7,1.5,0.7s1.2-0.2,1.5-0.7s0.5-1.3,0.5-2.5s-0.2-2.1-0.5-2.6
		S24,160.5,23.3,160.5z"/>
</g>
<line class="st11" x1="1.5" y1="164.4" x2="12.5" y2="164.4"/>
<line class="st11" x1="37.9" y1="164.4" x2="27.3" y2="164.4"/>
<g>
	<path class="st12" d="M20.3,713c0.7,0,1.2,0.1,1.6,0.4c0.9,0.5,1.3,1.8,1.3,3.8c0,1.4-0.2,2.5-0.7,3.1s-1.2,0.9-2.2,0.9
		s-1.7-0.3-2.2-0.9c-0.5-0.6-0.7-1.6-0.7-3.1s0.2-2.6,0.7-3.2C18.6,713.3,19.3,713,20.3,713z M20.3,713.8c-0.5,0-0.8,0.1-1.1,0.3
		c-0.6,0.4-0.9,1.4-0.9,3.1c0,1.2,0.2,2,0.5,2.5s0.8,0.7,1.5,0.7s1.2-0.2,1.5-0.7s0.5-1.3,0.5-2.5s-0.1-2.1-0.5-2.6
		C21.5,714,21,713.8,20.3,713.8z"/>
</g>
<g>
	<path class="st12" d="M19.5,494.6c-0.7-0.1-1.4-0.1-2.1-0.1s-1.2,0.2-1.6,0.7c-0.4,0.5-0.6,1.1-0.6,2l0.3-0.1
		c0.2-0.1,0.5-0.1,0.8-0.2s0.6-0.1,0.9-0.1c1.8,0,2.7,0.8,2.7,2.5c0,0.8-0.2,1.5-0.7,1.9c-0.5,0.5-1.2,0.7-2,0.7
		c-1.9,0-2.8-1.4-2.8-4.1c0-1.4,0.3-2.4,0.8-3.1s1.3-1,2.3-1c0.6,0,1.3,0,1.8,0.1l0.3,0.1L19.5,494.6z M17.2,497.6
		c-0.3,0-0.6,0-0.9,0.1s-0.6,0.1-0.8,0.2l-0.3,0.1c0,0.9,0.2,1.6,0.5,2.2c0.3,0.5,0.8,0.8,1.4,0.8s1.1-0.2,1.4-0.5s0.5-0.7,0.5-1.3
		c0-0.6-0.2-1-0.5-1.3C18.1,497.7,17.7,497.6,17.2,497.6z"/>
	<path class="st12" d="M23.7,493.6c0.7,0,1.2,0.1,1.6,0.4c0.9,0.5,1.3,1.8,1.3,3.8c0,1.4-0.2,2.5-0.7,3.1s-1.2,0.9-2.2,0.9
		s-1.7-0.3-2.2-0.9s-0.7-1.6-0.7-3.1s0.2-2.6,0.7-3.2C22,494,22.8,493.6,23.7,493.6z M23.8,494.5c-0.5,0-0.8,0.1-1.1,0.3
		c-0.6,0.4-0.9,1.4-0.9,3.1c0,1.2,0.2,2,0.5,2.5s0.8,0.7,1.5,0.7s1.2-0.2,1.5-0.7s0.5-1.3,0.5-2.5s-0.1-2.1-0.5-2.6
		C24.9,494.7,24.4,494.5,23.8,494.5z"/>
</g>
<line class="st11" x1="1.6" y1="498.4" x2="13" y2="498.4"/>
<line class="st11" x1="38" y1="498.4" x2="27.4" y2="498.4"/>
<g>
	<path class="st13" d="M11.7,29.9h17.1c3.6,0,6.6-2.2,7.3-5.2c0.4-2-0.1-3.9-1.5-5.4c-1.2-1.2-2.9-2.1-4.7-2.3v-1.5
		c0-5.2-5.3-9.2-10.9-8.6c-4.8,0.5-8.6,4.3-8.6,9V17c-1.5,0.1-3,0.9-4.1,1.8c-1.7,1.5-2.3,3.6-2.1,5.6C4.8,27.5,8.3,29.9,11.7,29.9z
		 M7.7,20.1c1-0.9,2.3-1.4,3.7-1.4c0.6,0,1-0.4,1-0.9v-2c0-3.8,3.5-7.2,7.9-7.2c4.3,0,7.9,3.2,7.9,7v2.2c0,0.5,0.4,0.9,1,0.9
		c1.7,0,3.2,0.6,4.1,1.7c1,1.1,1.4,2.6,1.1,4.1c-0.6,2.2-2.8,3.8-5.5,3.8H11.7c-2.5,0-5.1-1.8-5.5-3.9C5.9,22.7,6.5,21.2,7.7,20.1z"
		/>
</g>
<g>
	<path class="st12" d="M20.1,603.7v0.8h-3.9l-0.2,2.6c0.6-0.3,1.2-0.5,1.9-0.5c1.7,0,2.5,0.8,2.5,2.3c0,0.9-0.2,1.6-0.7,2.1
		s-1.1,0.7-2,0.7c-0.7,0-1.4-0.1-2.2-0.3l-0.4-0.1l0.1-0.7c0.9,0.2,1.7,0.3,2.3,0.3s1.1-0.2,1.4-0.5s0.5-0.8,0.5-1.4s-0.1-1-0.4-1.2
		s-0.7-0.4-1.2-0.4c-0.3,0-0.6,0-0.9,0.1s-0.6,0.2-0.7,0.2l-0.3,0.1l-0.6-0.1l0.2-4.1h4.6C20.1,603.6,20.1,603.7,20.1,603.7z"/>
	<path class="st12" d="M24.4,603.6c0.7,0,1.2,0.1,1.6,0.4c0.9,0.5,1.3,1.8,1.3,3.8c0,1.4-0.2,2.5-0.7,3.1s-1.2,0.9-2.2,0.9
		s-1.7-0.3-2.2-0.9c-0.5-0.6-0.7-1.6-0.7-3.1s0.2-2.6,0.7-3.2C22.7,603.9,23.4,603.6,24.4,603.6z M24.4,604.4
		c-0.5,0-0.8,0.1-1.1,0.3c-0.6,0.4-0.9,1.4-0.9,3.1c0,1.2,0.2,2,0.5,2.5s0.8,0.7,1.5,0.7s1.2-0.2,1.5-0.7s0.5-1.3,0.5-2.5
		s-0.2-2.1-0.5-2.6S25.1,604.4,24.4,604.4z"/>
</g>
<line class="st11" x1="2.3" y1="608.3" x2="13.7" y2="608.3"/>
<line class="st11" x1="38.6" y1="608.3" x2="28.1" y2="608.3"/>
<g>
	<path class="st10" d="M16.2,271.7c0.5-0.3,1.2-0.5,2.1-0.5s1.6,0.2,2.1,0.5s0.8,0.9,0.8,1.5c0,0.5-0.1,0.9-0.3,1.1
		c-0.2,0.3-0.5,0.5-1,0.7c0.5,0.2,0.8,0.5,1.1,0.8c0.2,0.3,0.4,0.7,0.4,1.2c0,1.5-1,2.3-3,2.3s-3-0.7-3-2.1c0-0.6,0.1-1,0.3-1.3
		c0.2-0.3,0.6-0.6,1-0.8c-0.4-0.2-0.7-0.5-0.9-0.7c-0.2-0.3-0.3-0.7-0.3-1.1C15.4,272.6,15.7,272.1,16.2,271.7z M16.3,277.1
		c0,1,0.7,1.5,2,1.5s2-0.5,2-1.5c0-0.4-0.1-0.7-0.4-0.9c-0.2-0.2-0.6-0.4-1-0.5h-1.3c-0.4,0.1-0.8,0.3-1,0.5
		C16.4,276.3,16.3,276.7,16.3,277.1z M20.1,273.4c0-0.9-0.6-1.3-1.9-1.3s-1.9,0.4-1.9,1.3c0,0.4,0.1,0.6,0.3,0.9
		c0.2,0.2,0.5,0.4,0.9,0.5h1.3c0.4-0.1,0.8-0.3,1-0.5C20,274,20.1,273.7,20.1,273.4z"/>
	<path class="st10" d="M25,271.2c0.7,0,1.2,0.1,1.6,0.4c0.9,0.5,1.3,1.8,1.3,3.8c0,1.4-0.2,2.5-0.7,3.1s-1.2,0.9-2.2,0.9
		s-1.7-0.3-2.2-0.9s-0.7-1.6-0.7-3.1s0.2-2.6,0.7-3.2C23.3,271.5,24,271.2,25,271.2z M25,272c-0.5,0-0.8,0.1-1.1,0.3
		c-0.6,0.4-0.9,1.4-0.9,3.1c0,1.2,0.2,2,0.5,2.5s0.8,0.7,1.5,0.7s1.2-0.2,1.5-0.7s0.5-1.3,0.5-2.5s-0.1-2.1-0.5-2.6
		C26.2,272.3,25.7,272,25,272z"/>
</g>
<line class="st11" x1="3.2" y1="275.9" x2="14.2" y2="275.9"/>
<line class="st11" x1="39.6" y1="275.9" x2="29" y2="275.9"/>
<path class="st14" d="M15.8,24.3c0,0-0.1,0.2,0.1,0.3c0.1,0.1,0.3,0,0.3,0l4.2-6l4.2-6c0,0,0.1-0.1-0.1-0.2s-0.3,0-0.3,0l-4.2,6
	L15.8,24.3z"/>
<circle class="st15" cx="16.7" cy="15.2" r="2.5"/>
<circle class="st15" cx="23.5" cy="21.8" r="2.5"/>
<g>
	<path class="st13" d="M22.7,38.1l0.1-4.8l-2.2,4h-0.9l-2.2-3.8v4.6h-1.6v-7.2h1.4l2.8,4.7l2.8-4.7h1.3v7.2H22.7z"/>
</g>
<path class="st14" d="M16.2,24.2c0,0-0.1,0.2,0.1,0.3c0.1,0.1,0.3,0,0.3,0l4.2-6l4.2-6c0,0,0.1-0.1-0.1-0.2s-0.3,0-0.3,0l-4.2,6
	L16.2,24.2z"/>
<circle class="st15" cx="17.1" cy="15.1" r="2.5"/>
<circle class="st15" cx="23.9" cy="21.7" r="2.5"/>
<g>
	<path class="st13" d="M12,30.7h17.1c3.6,0,6.6-2.3,7.3-5.3c0.4-2.1-0.1-4-1.5-5.5c-1.2-1.2-2.9-2.2-4.7-2.4v-1.5
		c0-5.3-5.3-9.5-10.9-8.8c-4.8,0.5-8.6,4.4-8.6,9.2v1.1c-1.5,0.1-3,0.9-4.1,1.8C4.9,20.8,4.3,23,4.5,25C5.1,28.2,8.6,30.7,12,30.7z
		 M8,20.6c1-0.9,2.3-1.4,3.7-1.4c0.6,0,1-0.4,1-0.9v-2.1c0-3.9,3.5-7.4,7.9-7.4c4.3,0,7.9,3.3,7.9,7.2v2.3c0,0.5,0.4,0.9,1,0.9
		c1.7,0,3.2,0.6,4.1,1.7c1,1.1,1.4,2.7,1.1,4.2c-0.6,2.3-2.8,3.9-5.5,3.9H12c-2.5,0-5.1-1.8-5.5-4C6.2,23.3,6.8,21.7,8,20.6z"/>
</g>
<path class="st14" d="M16.1,24.9c0,0-0.1,0.2,0.1,0.3c0.1,0.1,0.3,0,0.3,0l4.2-6.2l4.2-6.2c0,0,0.1-0.1-0.1-0.2s-0.3,0-0.3,0
	l-4.2,6.2L16.1,24.9z"/>
<ellipse class="st15" cx="17" cy="15.6" rx="2.5" ry="2.6"/>
<ellipse class="st15" cx="23.8" cy="22.3" rx="2.5" ry="2.6"/>
</svg>
