<?xml version="1.0" encoding="utf-8"?>
<!-- Generator: Adobe Illustrator 28.0.0, SVG Export Plug-In . SVG Version: 6.00 Build 0)  -->
<svg version="1.1" id="Livello_1" xmlns="http://www.w3.org/2000/svg" xmlns:xlink="http://www.w3.org/1999/xlink" x="0px" y="0px"
	 	width="50px" height="677px" viewBox="0 0 48.7 677.2" style="enable-background:new 0 0 48.7 677.2;" xml:space="preserve">
<style type="text/css">
	.st0{clip-path:url(#SVGID_00000039846302260393032220000012970815574539548069_);fill:#FAFAFD;}
	.st1{clip-path:url(#SVGID_00000095331347969984798020000000901204797291579062_);fill:#D8D7EE;}
	.st2{clip-path:url(#SVGID_00000088841894550341754560000005951564212119991691_);fill:#C4C5E6;}
	.st3{clip-path:url(#SVGID_00000048480450729235291400000012059688471200367505_);fill:#ECECF7;}
	.st4{clip-path:url(#SVGID_00000013883856804890961980000002614390541593417103_);fill:#B0B2DD;}
	.st5{clip-path:url(#SVGID_00000109718418214397845780000001286890782776214161_);fill:#9FA1D5;}
	.st6{fill:#39322E;}
	.st7{fill:none;}
	.st8{fill:none;stroke:#3C3430;stroke-width:2;stroke-miterlimit:9.7722;}
	.st9{fill:#3C3530;}
	.st10{fill:none;stroke:#3C3430;stroke-miterlimit:9.7722;}
	.st11{fill:#3C3430;}
	.st12{fill:#3B3330;}
	.st13{fill:#FFFFFF;}
	.st14{fill:#FFFFFF;stroke:#FFFFFF;stroke-width:0.4886;stroke-miterlimit:9.7722;}
	.st15{fill:none;stroke:#FFFFFF;stroke-width:0.9772;stroke-miterlimit:9.7722;}
</style>
<g>
	<g>
		<g>
			<g>
				<g>
					<g>
						<defs>
							<path id="SVGID_1_" d="M42.5,668.6c-0.6,3.9-9.7,8.5-17.6,8.5l0,0c-7.8,0.4-18.7-3.8-18.7-8.5V55.2
								c1.7-5.7,11.2-8.8,17.5-8.8l0,0c7.4,0,17,3.4,18.9,9.2V668.6L42.5,668.6z"/>
						</defs>
						<clipPath id="SVGID_00000144312688595791116900000012238267833675157642_">
							<use xlink:href="#SVGID_1_"  style="overflow:visible;"/>
						</clipPath>
						
							<rect x="-2.7" y="571.2" style="clip-path:url(#SVGID_00000144312688595791116900000012238267833675157642_);fill:#FAFAFD;" width="54.1" height="112.9"/>
					</g>
				</g>
			</g>
		</g>
		<g>
			<g>
				<g>
					<g>
						<defs>
							<path id="SVGID_00000045579994541705425250000008494995007312594352_" d="M42.5,668.6c-0.6,3.9-9.7,8.5-17.6,8.5l0,0
								c-7.8,0.4-18.7-3.8-18.7-8.5V55.2c1.7-5.7,11.2-8.8,17.5-8.8l0,0c7.4,0,17,3.4,18.9,9.2V668.6L42.5,668.6z"/>
						</defs>
						<clipPath id="SVGID_00000117643985047917135980000013893541516068563610_">
							<use xlink:href="#SVGID_00000045579994541705425250000008494995007312594352_"  style="overflow:visible;"/>
						</clipPath>
						
							<rect x="-2.1" y="366" style="clip-path:url(#SVGID_00000117643985047917135980000013893541516068563610_);fill:#D8D7EE;" width="54.1" height="102.7"/>
					</g>
				</g>
			</g>
		</g>
		<g>
			<g>
				<g>
					<g>
						<defs>
							<path id="SVGID_00000085239322399740282290000005348104868485726852_" d="M42.5,668.6c-0.6,3.9-9.7,8.5-17.6,8.5l0,0
								c-7.8,0.4-18.7-3.8-18.7-8.5V55.2c1.7-5.7,11.2-8.8,17.5-8.8l0,0c7.4,0,17,3.4,18.9,9.2V668.6L42.5,668.6z"/>
						</defs>
						<clipPath id="SVGID_00000051371718186537268060000009788498120636809657_">
							<use xlink:href="#SVGID_00000085239322399740282290000005348104868485726852_"  style="overflow:visible;"/>
						</clipPath>
						
							<rect x="-2.1" y="263.3" style="clip-path:url(#SVGID_00000051371718186537268060000009788498120636809657_);fill:#C4C5E6;" width="54.1" height="102.7"/>
					</g>
				</g>
			</g>
		</g>
		<g>
			<g>
				<g>
					<g>
						<defs>
							<path id="SVGID_00000008137313380536459020000003328140434169758618_" d="M42.5,668.6c-0.6,3.9-9.7,8.5-17.6,8.5l0,0
								c-7.8,0.4-18.7-3.8-18.7-8.5V55.2c1.7-5.7,11.2-8.8,17.5-8.8l0,0c7.4,0,17,3.4,18.9,9.2V668.6L42.5,668.6z"/>
						</defs>
						<clipPath id="SVGID_00000018200341715791254420000010769621625721469595_">
							<use xlink:href="#SVGID_00000008137313380536459020000003328140434169758618_"  style="overflow:visible;"/>
						</clipPath>
						
							<rect x="-2.7" y="468.6" style="clip-path:url(#SVGID_00000018200341715791254420000010769621625721469595_);fill:#ECECF7;" width="54.1" height="102.7"/>
					</g>
				</g>
			</g>
		</g>
		<g>
			<g>
				<g>
					<g>
						<defs>
							<path id="SVGID_00000118396317786829730140000012450765979903632787_" d="M42.5,668.6c-0.6,3.9-9.7,8.5-17.6,8.5l0,0
								c-7.8,0.4-18.7-3.8-18.7-8.5V55.2c1.7-5.7,11.2-8.8,17.5-8.8l0,0c7.4,0,17,3.4,18.9,9.2V668.6L42.5,668.6z"/>
						</defs>
						<clipPath id="SVGID_00000134229132395981042620000015510061508409143426_">
							<use xlink:href="#SVGID_00000118396317786829730140000012450765979903632787_"  style="overflow:visible;"/>
						</clipPath>
						
							<rect x="-2.1" y="160.8" style="clip-path:url(#SVGID_00000134229132395981042620000015510061508409143426_);fill:#B0B2DD;" width="54.1" height="102.7"/>
					</g>
				</g>
			</g>
		</g>
		<g>
			<g>
				<g>
					<g>
						<defs>
							<path id="SVGID_00000013164665839609384480000006375249136742228395_" d="M42.5,668.6c-0.6,3.9-9.7,8.5-17.6,8.5l0,0
								c-7.8,0.4-18.7-3.8-18.7-8.5V55.2c1.7-5.7,11.2-8.8,17.5-8.8l0,0c7.4,0,17,3.4,18.9,9.2V668.6L42.5,668.6z"/>
						</defs>
						<clipPath id="SVGID_00000106835610854187278530000000947782260891679677_">
							<use xlink:href="#SVGID_00000013164665839609384480000006375249136742228395_"  style="overflow:visible;"/>
						</clipPath>
						<polygon style="clip-path:url(#SVGID_00000106835610854187278530000000947782260891679677_);fill:#9FA1D5;" points="
							-2.9,49.1 51.2,49.1 51.4,160.8 -2.7,160.8 						"/>
					</g>
				</g>
			</g>
		</g>
	</g>
</g>
<circle class="st6" cx="24.1" cy="26.6" r="19.8"/>
<rect x="11.1" y="632" class="st7" width="15.4" height="11.8"/>
<path class="st8" d="M36.6,675.8H12.1c-3.4,0-6.2-2.8-6.2-6.2V56.1c0-3.4,2.8-6.2,6.2-6.2h24.5c3.4,0,6.2,2.8,6.2,6.2v613.5
	C42.8,673,40,675.8,36.6,675.8z"/>
<g>
	<path class="st9" d="M18.9,52.8v7.9H18v-6.9l-2,1.3l-0.4-0.7l2.5-1.7H18.9z"/>
	<path class="st9" d="M24.3,52.7c0.7,0,1.2,0.1,1.6,0.4c0.9,0.5,1.3,1.8,1.3,3.8c0,1.4-0.2,2.5-0.7,3.1c-0.5,0.6-1.2,0.9-2.2,0.9
		s-1.7-0.3-2.2-0.9c-0.5-0.6-0.7-1.6-0.7-3.1c0-1.5,0.2-2.6,0.7-3.2C22.6,53,23.4,52.7,24.3,52.7z M24.3,53.5
		c-0.5,0-0.8,0.1-1.1,0.3c-0.6,0.4-0.9,1.4-0.9,3.1c0,1.2,0.2,2,0.5,2.5c0.3,0.5,0.8,0.7,1.5,0.7s1.2-0.2,1.5-0.7
		c0.3-0.5,0.5-1.3,0.5-2.5s-0.2-2.1-0.5-2.6S25,53.5,24.3,53.5z"/>
	<path class="st9" d="M31,52.7c0.7,0,1.2,0.1,1.6,0.4c0.9,0.5,1.3,1.8,1.3,3.8c0,1.4-0.2,2.5-0.7,3.1c-0.5,0.6-1.2,0.9-2.2,0.9
		s-1.7-0.3-2.2-0.9c-0.5-0.6-0.7-1.6-0.7-3.1c0-1.5,0.2-2.6,0.7-3.2C29.3,53,30.1,52.7,31,52.7z M31,53.5c-0.5,0-0.8,0.1-1.1,0.3
		c-0.6,0.4-0.9,1.4-0.9,3.1c0,1.2,0.2,2,0.5,2.5c0.3,0.5,0.8,0.7,1.5,0.7s1.2-0.2,1.5-0.7c0.3-0.5,0.5-1.3,0.5-2.5s-0.2-2.1-0.5-2.6
		S31.7,53.5,31,53.5z"/>
</g>
<line class="st10" x1="6.5" y1="55.6" x2="15.6" y2="55.6"/>
<line class="st10" x1="42.6" y1="55.6" x2="34.5" y2="55.6"/>
<g>
	<path class="st11" d="M19.2,361.6v-0.8h4.9v1.2l-3,6.8l-0.9-0.3l3-6.6v-0.3H19.2z"/>
	<path class="st11" d="M28.3,360.6c0.7,0,1.2,0.1,1.6,0.4c0.9,0.5,1.3,1.8,1.3,3.8c0,1.4-0.2,2.5-0.7,3.1c-0.5,0.6-1.2,0.9-2.2,0.9
		s-1.7-0.3-2.2-0.9c-0.5-0.6-0.7-1.6-0.7-3.1c0-1.5,0.2-2.6,0.7-3.2C26.6,360.9,27.3,360.6,28.3,360.6z M28.3,361.4
		c-0.5,0-0.8,0.1-1.1,0.3c-0.6,0.4-0.9,1.4-0.9,3.1c0,1.2,0.2,2,0.5,2.5c0.3,0.5,0.8,0.7,1.5,0.7s1.2-0.2,1.5-0.7
		c0.3-0.5,0.5-1.3,0.5-2.5s-0.2-2.1-0.5-2.6S29,361.4,28.3,361.4z"/>
</g>
<line class="st10" x1="6.6" y1="365.3" x2="18.9" y2="365.3"/>
<line class="st10" x1="43" y1="365.3" x2="32.4" y2="365.3"/>
<g>
	<path class="st11" d="M20.8,164.4c1.4,0,2.2-0.9,2.2-2.8c-0.8,0.3-1.5,0.5-2.1,0.5c-1.7,0-2.6-0.8-2.6-2.4c0-0.8,0.2-1.4,0.7-1.9
		s1.2-0.7,2-0.7c1,0,1.7,0.4,2.2,1.1c0.5,0.7,0.7,1.8,0.7,3.2c0,1.4-0.3,2.4-0.8,3s-1.3,0.9-2.3,0.9c-0.6,0-1.2-0.1-1.9-0.2l-0.3,0
		l0.1-0.7C19.4,164.4,20.1,164.4,20.8,164.4z M21,161.3c0.5,0,1.1-0.1,1.7-0.3l0.3-0.1c0-2-0.7-3-1.9-3c-0.6,0-1,0.2-1.3,0.5
		c-0.3,0.3-0.5,0.8-0.5,1.3C19.3,160.8,19.8,161.3,21,161.3z"/>
	<path class="st11" d="M27.9,157.1c0.7,0,1.2,0.1,1.6,0.4c0.9,0.5,1.3,1.8,1.3,3.8c0,1.4-0.2,2.5-0.7,3.1c-0.5,0.6-1.2,0.9-2.2,0.9
		s-1.7-0.3-2.2-0.9c-0.5-0.6-0.7-1.6-0.7-3.1c0-1.5,0.2-2.6,0.7-3.2C26.2,157.4,26.9,157.1,27.9,157.1z M27.9,157.9
		c-0.5,0-0.8,0.1-1.1,0.3c-0.6,0.4-0.9,1.4-0.9,3.1c0,1.2,0.2,2,0.5,2.5c0.3,0.5,0.8,0.7,1.5,0.7s1.2-0.2,1.5-0.7
		c0.3-0.5,0.5-1.3,0.5-2.5s-0.2-2.1-0.5-2.6S28.6,157.9,27.9,157.9z"/>
</g>
<line class="st10" x1="6.1" y1="161.8" x2="17.1" y2="161.8"/>
<line class="st10" x1="42.5" y1="161.8" x2="31.9" y2="161.8"/>
<g>
	<path class="st12" d="M24.9,663.9c0.7,0,1.2,0.1,1.6,0.4c0.9,0.5,1.3,1.8,1.3,3.8c0,1.4-0.2,2.5-0.7,3.1c-0.5,0.6-1.2,0.9-2.2,0.9
		s-1.7-0.3-2.2-0.9c-0.5-0.6-0.7-1.6-0.7-3.1c0-1.5,0.2-2.6,0.7-3.2C23.2,664.2,23.9,663.9,24.9,663.9z M24.9,664.7
		c-0.5,0-0.8,0.1-1.1,0.3c-0.6,0.4-0.9,1.4-0.9,3.1c0,1.2,0.2,2,0.5,2.5c0.3,0.5,0.8,0.7,1.5,0.7s1.2-0.2,1.5-0.7
		c0.3-0.5,0.5-1.3,0.5-2.5s-0.1-2.1-0.5-2.6C26.1,664.9,25.6,664.7,24.9,664.7z"/>
</g>
<g>
	<path class="st12" d="M24.1,464.4c-0.7-0.1-1.4-0.1-2.1-0.1c-0.7,0-1.2,0.2-1.6,0.7c-0.4,0.5-0.6,1.1-0.6,2l0.3-0.1
		c0.2-0.1,0.5-0.1,0.8-0.2s0.6-0.1,0.9-0.1c1.8,0,2.7,0.8,2.7,2.5c0,0.8-0.2,1.5-0.7,1.9c-0.5,0.5-1.2,0.7-2,0.7
		c-1.9,0-2.8-1.4-2.8-4.1c0-1.4,0.3-2.4,0.8-3.1c0.5-0.7,1.3-1,2.3-1c0.6,0,1.3,0,1.8,0.1l0.3,0.1L24.1,464.4z M21.8,467.4
		c-0.3,0-0.6,0-0.9,0.1c-0.3,0.1-0.6,0.1-0.8,0.2l-0.3,0.1c0,0.9,0.2,1.6,0.5,2.2c0.3,0.5,0.8,0.8,1.4,0.8c0.6,0,1.1-0.2,1.4-0.5
		c0.3-0.3,0.5-0.7,0.5-1.3c0-0.6-0.2-1-0.5-1.3C22.7,467.5,22.3,467.4,21.8,467.4z"/>
	<path class="st12" d="M28.3,463.4c0.7,0,1.2,0.1,1.6,0.4c0.9,0.5,1.3,1.8,1.3,3.8c0,1.4-0.2,2.5-0.7,3.1c-0.5,0.6-1.2,0.9-2.2,0.9
		s-1.7-0.3-2.2-0.9c-0.5-0.6-0.7-1.6-0.7-3.1c0-1.5,0.2-2.6,0.7-3.2C26.6,463.8,27.4,463.4,28.3,463.4z M28.4,464.3
		c-0.5,0-0.8,0.1-1.1,0.3c-0.6,0.4-0.9,1.4-0.9,3.1c0,1.2,0.2,2,0.5,2.5c0.3,0.5,0.8,0.7,1.5,0.7s1.2-0.2,1.5-0.7
		c0.3-0.5,0.5-1.3,0.5-2.5s-0.1-2.1-0.5-2.6C29.5,464.5,29,464.3,28.4,464.3z"/>
</g>
<line class="st10" x1="6.2" y1="468.2" x2="17.6" y2="468.2"/>
<line class="st10" x1="42.6" y1="468.2" x2="32" y2="468.2"/>
<g>
	<path class="st13" d="M15.5,35.2h17.1c3.6,0,6.6-2.2,7.3-5.2c0.4-2-0.1-3.9-1.5-5.4c-1.2-1.2-2.9-2.1-4.7-2.3v-1.5
		c0-5.2-5.3-9.2-10.9-8.6c-4.8,0.5-8.6,4.3-8.6,9v1.1c-1.5,0.1-3,0.9-4.1,1.8c-1.7,1.5-2.3,3.6-2.1,5.6
		C8.6,32.8,12.1,35.2,15.5,35.2z M11.5,25.4c1-0.9,2.3-1.4,3.7-1.4c0.6,0,1-0.4,1-0.9v-2c0-3.8,3.5-7.2,7.9-7.2c4.3,0,7.9,3.2,7.9,7
		v2.2c0,0.5,0.4,0.9,1,0.9c1.7,0,3.2,0.6,4.1,1.7c1,1.1,1.4,2.6,1.1,4.1c-0.6,2.2-2.8,3.8-5.5,3.8H15.5c-2.5,0-5.1-1.8-5.5-3.9
		C9.7,28,10.3,26.5,11.5,25.4z"/>
</g>
<g>
	<path class="st12" d="M23.4,566.1v0.8h-3.9l-0.2,2.6c0.6-0.3,1.2-0.5,1.9-0.5c1.7,0,2.5,0.8,2.5,2.3c0,0.9-0.2,1.6-0.7,2.1
		c-0.5,0.5-1.1,0.7-2,0.7c-0.7,0-1.4-0.1-2.2-0.3l-0.4-0.1l0.1-0.7c0.9,0.2,1.7,0.3,2.3,0.3s1.1-0.2,1.4-0.5
		c0.3-0.3,0.5-0.8,0.5-1.4s-0.1-1-0.4-1.2s-0.7-0.4-1.2-0.4c-0.3,0-0.6,0-0.9,0.1c-0.3,0.1-0.6,0.2-0.7,0.2l-0.3,0.1l-0.6-0.1
		l0.2-4.1H23.4z"/>
	<path class="st12" d="M27.7,566c0.7,0,1.2,0.1,1.6,0.4c0.9,0.5,1.3,1.8,1.3,3.8c0,1.4-0.2,2.5-0.7,3.1c-0.5,0.6-1.2,0.9-2.2,0.9
		s-1.7-0.3-2.2-0.9c-0.5-0.6-0.7-1.6-0.7-3.1c0-1.5,0.2-2.6,0.7-3.2C26,566.3,26.7,566,27.7,566z M27.7,566.8
		c-0.5,0-0.8,0.1-1.1,0.3c-0.6,0.4-0.9,1.4-0.9,3.1c0,1.2,0.2,2,0.5,2.5c0.3,0.5,0.8,0.7,1.5,0.7s1.2-0.2,1.5-0.7
		c0.3-0.5,0.5-1.3,0.5-2.5s-0.2-2.1-0.5-2.6S28.4,566.8,27.7,566.8z"/>
</g>
<line class="st10" x1="5.6" y1="570.7" x2="17" y2="570.7"/>
<line class="st10" x1="41.9" y1="570.7" x2="31.4" y2="570.7"/>
<g>
	<path class="st11" d="M19.3,259.3c0.5-0.3,1.2-0.5,2.1-0.5s1.6,0.2,2.1,0.5c0.5,0.3,0.8,0.9,0.8,1.5c0,0.5-0.1,0.9-0.3,1.1
		c-0.2,0.3-0.5,0.5-1,0.7c0.5,0.2,0.8,0.5,1.1,0.8c0.2,0.3,0.4,0.7,0.4,1.2c0,1.5-1,2.3-3,2.3c-2,0-3-0.7-3-2.1c0-0.6,0.1-1,0.3-1.3
		c0.2-0.3,0.6-0.6,1-0.8c-0.4-0.2-0.7-0.5-0.9-0.7c-0.2-0.3-0.3-0.7-0.3-1.1C18.5,260.2,18.8,259.7,19.3,259.3z M19.4,264.7
		c0,1,0.7,1.5,2,1.5c1.3,0,2-0.5,2-1.5c0-0.4-0.1-0.7-0.4-0.9c-0.2-0.2-0.6-0.4-1-0.5h-1.3c-0.4,0.1-0.8,0.3-1,0.5
		C19.5,263.9,19.4,264.3,19.4,264.7z M23.2,261c0-0.9-0.6-1.3-1.9-1.3s-1.9,0.4-1.9,1.3c0,0.4,0.1,0.6,0.3,0.9
		c0.2,0.2,0.5,0.4,0.9,0.5h1.3c0.4-0.1,0.8-0.3,1-0.5C23.1,261.6,23.2,261.3,23.2,261z"/>
	<path class="st11" d="M28.1,258.8c0.7,0,1.2,0.1,1.6,0.4c0.9,0.5,1.3,1.8,1.3,3.8c0,1.4-0.2,2.5-0.7,3.1c-0.5,0.6-1.2,0.9-2.2,0.9
		s-1.7-0.3-2.2-0.9c-0.5-0.6-0.7-1.6-0.7-3.1c0-1.5,0.2-2.6,0.7-3.2C26.4,259.1,27.1,258.8,28.1,258.8z M28.1,259.6
		c-0.5,0-0.8,0.1-1.1,0.3c-0.6,0.4-0.9,1.4-0.9,3.1c0,1.2,0.2,2,0.5,2.5c0.3,0.5,0.8,0.7,1.5,0.7s1.2-0.2,1.5-0.7
		c0.3-0.5,0.5-1.3,0.5-2.5s-0.1-2.1-0.5-2.6C29.3,259.9,28.8,259.6,28.1,259.6z"/>
</g>
<line class="st10" x1="6.3" y1="263.5" x2="17.3" y2="263.5"/>
<line class="st10" x1="42.7" y1="263.5" x2="32.1" y2="263.5"/>
<path class="st14" d="M19.6,29.6c0,0-0.1,0.2,0.1,0.3c0.1,0.1,0.3,0,0.3,0l4.2-6l4.2-6c0,0,0.1-0.1-0.1-0.2c-0.2-0.1-0.3,0-0.3,0
	l-4.2,6L19.6,29.6z"/>
<circle class="st15" cx="20.5" cy="20.5" r="2.5"/>
<circle class="st15" cx="27.3" cy="27.1" r="2.5"/>
<g>
	<path class="st13" d="M26.4,43.2v-3.8l-1.8,3.3h-0.4l-1.8-3.1v3.7h-1v-5.8h0.9l2.3,3.8l2.3-3.8h0.9v5.8
		C27.3,43.2,26.4,43.2,26.4,43.2z"/>
</g>
</svg>
