<?xml version="1.0" encoding="utf-8"?>
<!-- Generator: Adobe Illustrator 28.0.0, SVG Export Plug-In . SVG Version: 6.00 Build 0)  -->
<svg version="1.1" id="Livello_1" xmlns="http://www.w3.org/2000/svg" xmlns:xlink="http://www.w3.org/1999/xlink" x="0px" y="0px"
	 width="40.8px" height="725.2px" viewBox="0 0 40.8 725.2" style="enable-background:new 0 0 40.8 725.2;" xml:space="preserve">
<style type="text/css">
	.st0{clip-path:url(#SVGID_00000139290057339852753960000011944442977658698633_);}
	.st1{fill:#235A95;}
	.st2{fill:#661515;}
	.st3{fill:#981F1F;}
	.st4{fill:#CB2A2A;}
	.st5{fill:#DA4C4D;}
	.st6{fill:#EE5A5C;}
	.st7{fill:#F0A0A0;}
	.st8{fill:#FFB4B4;}
	.st9{fill:#FFDCDC;}
	.st10{fill:#F8E8E8;}
	.st11{fill:#DEEAF7;}
	.st12{fill:#BDD5EF;}
	.st13{fill:#9CC1E7;}
	.st14{fill:#79AADE;}
	.st15{fill:#548ECE;}
	.st16{fill:#2E6FB8;}
	.st17{fill:none;}
	.st18{fill:#FFFFFF;}
	.st19{fill:none;stroke:#3C3430;stroke-miterlimit:9.7722;}
	.st20{fill:#3B3330;}
	.st21{fill:#39322E;}
	.st22{fill:none;stroke:#3C3430;stroke-width:2;stroke-miterlimit:9.7722;}
</style>
<g>
	<g>
		<g>
			<g>
				<g>
					<g>
						<g>
							<g>
								<g>
									<defs>
										<path id="SVGID_1_" d="M39.8,719.1c-0.5,4.2-9,5.1-17.1,5.1h-0.9c-7.9,0.4-18.4,0.2-18.4-4.9l-0.5-670
											c1.7-6.1,11.9-4,18.2-4l0,0c7.5,0,16.3-2.2,18.1,4.1l0.7,669.7v-0.1H39.8z"/>
									</defs>
									<clipPath id="SVGID_00000040545603132915687140000000335741090535016863_">
										<use xlink:href="#SVGID_1_"  style="overflow:visible;"/>
									</clipPath>
									<g style="clip-path:url(#SVGID_00000040545603132915687140000000335741090535016863_);">
										<rect x="-13.5" y="649.4" class="st1" width="72.3" height="107.7"/>
										<rect x="-13.9" y="44.6" class="st2" width="74.9" height="40.3"/>
										<rect x="-13.9" y="85" class="st3" width="74.9" height="40.5"/>
										<rect x="-13.9" y="125.5" class="st4" width="74.9" height="40.3"/>
										<rect x="-13.9" y="165.8" class="st5" width="74.9" height="40.3"/>
										<rect x="-13.9" y="206" class="st6" width="74.9" height="40.3"/>
										<rect x="-13.9" y="246.3" class="st7" width="74.9" height="40.3"/>
										<rect x="-13.9" y="286.7" class="st8" width="74.9" height="40.3"/>
										<rect x="-13.9" y="326.8" class="st9" width="74.9" height="40.3"/>
										<rect x="-13.9" y="367.1" class="st10" width="74.9" height="40.3"/>
										<rect x="-13.9" y="407.4" class="st11" width="74.9" height="40.3"/>
										<rect x="-13.9" y="447.7" class="st12" width="74.9" height="40.6"/>
										<rect x="-13.9" y="488.3" class="st13" width="74.9" height="40.3"/>
										<rect x="-13.9" y="528.5" class="st14" width="74.9" height="40.3"/>
										<rect x="-13.9" y="568.8" class="st15" width="74.9" height="40.3"/>
										<rect x="-13.9" y="609.1" class="st16" width="74.9" height="40.3"/>
									</g>
								</g>
							</g>
						</g>
					</g>
				</g>
			</g>
		</g>
	</g>
</g>
<rect x="-63.3" y="632" class="st17" width="15.4" height="11.8"/>
<g>
	<path class="st18" d="M14.2,650.8c1,0,1.5-0.6,1.5-1.8l-0.2,0.1c-0.5,0.2-0.9,0.3-1.2,0.3c-0.8,0-1.4-0.2-1.8-0.6
		c-0.4-0.4-0.6-1-0.6-1.7c0-0.8,0.2-1.4,0.7-1.8c0.5-0.4,1.2-0.6,2-0.6c0.9,0,1.5,0.3,2,1c0.5,0.6,0.7,1.6,0.7,2.9s-0.3,2.2-0.8,2.8
		s-1.3,0.9-2.3,0.9c-0.6,0-1.2-0.1-1.8-0.2l-0.3-0.1l0.1-1.2C13,650.7,13.6,650.8,14.2,650.8z M14.5,648c0.3,0,0.7-0.1,1.1-0.2
		l0.2-0.1c0-1.2-0.4-1.9-1.2-1.9c-0.4,0-0.6,0.1-0.8,0.3c-0.2,0.2-0.3,0.5-0.3,0.8C13.4,647.7,13.7,648,14.5,648z"/>
	<path class="st18" d="M18.8,645.1c0.5-0.3,1.1-0.5,1.9-0.5s1.4,0.2,1.9,0.5c0.5,0.4,0.7,0.8,0.7,1.5c0,0.4-0.1,0.7-0.2,1
		c-0.1,0.2-0.3,0.4-0.6,0.7c0.3,0.3,0.6,0.5,0.7,0.8c0.1,0.2,0.2,0.6,0.2,1c0,0.7-0.3,1.2-0.8,1.6c-0.5,0.3-1.2,0.5-2,0.5
		c-1.8,0-2.8-0.7-2.8-2c0-0.5,0.1-0.8,0.2-1.1s0.4-0.5,0.7-0.8c-0.3-0.2-0.5-0.5-0.6-0.7s-0.2-0.6-0.2-0.9
		C18.1,645.9,18.3,645.4,18.8,645.1z M19.6,649.8c0,0.6,0.4,1,1.1,1s1.1-0.3,1.1-1c0-0.4-0.2-0.7-0.6-0.8h-1
		C19.8,649.1,19.6,649.4,19.6,649.8z M20.8,645.9c-0.3,0-0.6,0.1-0.8,0.2c-0.2,0.1-0.3,0.4-0.3,0.7s0.2,0.6,0.5,0.8h1
		c0.4-0.2,0.5-0.5,0.5-0.9C21.8,646.2,21.4,645.9,20.8,645.9z"/>
	<path class="st18" d="M25,645.1c0.5-0.3,1.1-0.5,1.9-0.5s1.4,0.2,1.9,0.5c0.5,0.4,0.7,0.8,0.7,1.5c0,0.4-0.1,0.7-0.2,1
		c-0.1,0.2-0.3,0.4-0.6,0.7c0.3,0.3,0.6,0.5,0.7,0.8c0.1,0.2,0.2,0.6,0.2,1c0,0.7-0.3,1.2-0.8,1.6c-0.5,0.3-1.2,0.5-2,0.5
		c-1.8,0-2.8-0.7-2.8-2c0-0.5,0.1-0.8,0.2-1.1s0.4-0.5,0.7-0.8c-0.3-0.2-0.5-0.5-0.6-0.7s-0.2-0.6-0.2-0.9
		C24.3,645.9,24.5,645.4,25,645.1z M25.8,649.8c0,0.6,0.4,1,1.1,1s1.1-0.3,1.1-1c0-0.4-0.2-0.7-0.6-0.8h-1
		C26,649.1,25.8,649.4,25.8,649.8z M26.9,645.9c-0.3,0-0.6,0.1-0.8,0.2c-0.2,0.1-0.3,0.4-0.3,0.7s0.2,0.6,0.5,0.8h1
		c0.4-0.2,0.5-0.5,0.5-0.9C27.9,646.2,27.6,645.9,26.9,645.9z"/>
</g>
<line class="st19" x1="3.2" y1="649.3" x2="9.8" y2="649.3"/>
<line class="st19" x1="38.9" y1="649.3" x2="31.7" y2="649.3"/>
<g>
	<path class="st18" d="M15,721.8h-1.6v-8.4H15v2.7c0.6-0.3,1-0.4,1.5-0.4c0.8,0,1.4,0.2,1.7,0.7c0.3,0.5,0.5,1.2,0.5,2.2v3.3h-1.6
		v-3.2c0-0.5-0.1-0.9-0.2-1.1s-0.4-0.4-0.7-0.4c-0.3,0-0.6,0-0.9,0.1h-0.2L15,721.8L15,721.8z"/>
	<path class="st18" d="M23.2,719.4h-1.3v2.4h-1.7v-8.2h3c1.9,0,2.9,0.9,2.9,2.8c0,1-0.2,1.7-0.7,2.2
		C24.9,719.2,24.2,719.4,23.2,719.4z M21.9,718h1.3c0.8,0,1.2-0.5,1.2-1.5c0-0.5-0.1-0.9-0.3-1.1c-0.2-0.2-0.5-0.3-0.9-0.3h-1.3
		C21.9,715.1,21.9,718,21.9,718z"/>
	<path class="st18" d="M31.7,717.7v2.5c0,0.2,0,0.3,0.1,0.4c0,0.1,0.1,0.1,0.3,0.2v1.2c-0.4,0-0.7,0-1-0.1c-0.2-0.1-0.5-0.2-0.7-0.3
		c-0.6,0.3-1.2,0.4-1.8,0.4c-1.2,0-1.9-0.7-1.9-2c0-0.6,0.2-1.1,0.5-1.4c0.3-0.3,0.9-0.4,1.6-0.5l1.3-0.1v-0.4
		c0-0.2-0.1-0.4-0.2-0.5c-0.1-0.1-0.3-0.1-0.5-0.1l-2.3,0.1V716c0.9-0.2,1.7-0.3,2.4-0.3c0.8,0,1.3,0.2,1.7,0.5
		C31.5,716.5,31.7,717,31.7,717.7z M29,719.3c-0.4,0-0.7,0.3-0.7,0.7s0.2,0.7,0.6,0.7c0.3,0,0.6,0,1-0.1h0.2v-1.3L29,719.3z"/>
</g>
<g>
	<path class="st18" d="M13.3,610.3c1,0,1.5-0.6,1.5-1.8l-0.2,0.1c-0.5,0.2-0.9,0.3-1.2,0.3c-0.8,0-1.4-0.2-1.8-0.6s-0.6-1-0.6-1.7
		c0-0.8,0.2-1.4,0.7-1.8c0.5-0.4,1.2-0.6,2-0.6c0.9,0,1.5,0.3,2,1c0.5,0.6,0.7,1.6,0.7,2.9s-0.3,2.2-0.8,2.8
		c-0.5,0.6-1.3,0.9-2.3,0.9c-0.6,0-1.2-0.1-1.8-0.2l-0.3-0.1l0.1-1.2C12,610.3,12.7,610.3,13.3,610.3z M13.5,607.5
		c0.3,0,0.7-0.1,1.1-0.2l0.2-0.1c0-1.2-0.4-1.9-1.2-1.9c-0.4,0-0.6,0.1-0.8,0.3c-0.2,0.2-0.3,0.5-0.3,0.8
		C12.4,607.2,12.8,607.5,13.5,607.5z"/>
	<path class="st18" d="M19.4,610.3c1,0,1.5-0.6,1.5-1.8l-0.2,0.1c-0.5,0.2-0.9,0.3-1.2,0.3c-0.8,0-1.4-0.2-1.8-0.6s-0.6-1-0.6-1.7
		c0-0.8,0.2-1.4,0.7-1.8c0.5-0.4,1.2-0.6,2-0.6c0.9,0,1.5,0.3,2,1c0.5,0.6,0.7,1.6,0.7,2.9s-0.3,2.2-0.8,2.8s-1.3,0.9-2.3,0.9
		c-0.6,0-1.2-0.1-1.8-0.2l-0.3-0.1l0.1-1.2C18.1,610.3,18.8,610.3,19.4,610.3z M19.7,607.5c0.3,0,0.7-0.1,1.1-0.2l0.2-0.1
		c0-1.2-0.4-1.9-1.2-1.9c-0.4,0-0.6,0.1-0.8,0.3c-0.2,0.2-0.3,0.5-0.3,0.8C18.6,607.2,18.9,607.5,19.7,607.5z"/>
	<path class="st18" d="M28.3,611.5h-4.7v-1.3l1.6-1.6c0.5-0.6,0.9-1,1.1-1.3s0.3-0.6,0.3-1c0-0.3-0.1-0.6-0.3-0.7
		c-0.2-0.1-0.4-0.2-0.8-0.2c-0.5,0-1,0-1.6,0.1h-0.3l-0.1-1.2c0.7-0.2,1.5-0.3,2.2-0.3c1.5,0,2.3,0.7,2.3,2.1c0,0.5-0.1,1-0.4,1.4
		c-0.2,0.4-0.7,0.9-1.3,1.4L25,610h3v1.5H28.3z"/>
</g>
<line class="st19" x1="2.2" y1="608.8" x2="8.8" y2="608.8"/>
<line class="st19" x1="37.9" y1="608.8" x2="30.8" y2="608.8"/>
<g>
	<path class="st18" d="M14.4,569.9c1,0,1.5-0.6,1.5-1.8l-0.2,0.1c-0.5,0.2-0.9,0.3-1.2,0.3c-0.8,0-1.4-0.2-1.8-0.6s-0.6-1-0.6-1.7
		c0-0.8,0.2-1.4,0.7-1.8c0.5-0.4,1.2-0.6,2-0.6c0.9,0,1.5,0.3,2,1c0.5,0.6,0.7,1.6,0.7,2.9s-0.3,2.2-0.8,2.8s-1.3,0.9-2.3,0.9
		c-0.6,0-1.2-0.1-1.8-0.2l-0.3-0.1l0.1-1.2C13.1,569.8,13.8,569.9,14.4,569.9z M14.6,567.1c0.3,0,0.7-0.1,1.1-0.2l0.2-0.1
		c0-1.2-0.4-1.9-1.2-1.9c-0.4,0-0.6,0.1-0.8,0.3c-0.2,0.2-0.3,0.5-0.3,0.8C13.5,566.8,13.9,567.1,14.6,567.1z"/>
	<path class="st18" d="M20.5,569.9c1,0,1.5-0.6,1.5-1.8l-0.2,0.1c-0.5,0.2-0.9,0.3-1.2,0.3c-0.8,0-1.4-0.2-1.8-0.6s-0.6-1-0.6-1.7
		c0-0.8,0.2-1.4,0.7-1.8c0.5-0.4,1.2-0.6,2-0.6c0.9,0,1.5,0.3,2,1c0.5,0.6,0.7,1.6,0.7,2.9s-0.3,2.2-0.8,2.8s-1.3,0.9-2.3,0.9
		c-0.6,0-1.2-0.1-1.8-0.2l-0.3-0.1l0.1-1.2C19.2,569.8,19.9,569.9,20.5,569.9z M20.8,567.1c0.3,0,0.7-0.1,1.1-0.2l0.2-0.1
		c0-1.2-0.4-1.9-1.2-1.9c-0.4,0-0.6,0.1-0.8,0.3c-0.2,0.2-0.3,0.5-0.3,0.8C19.7,566.8,20,567.1,20.8,567.1z"/>
	<path class="st18" d="M29.4,565.1c-0.7-0.1-1.4-0.2-1.9-0.2c-1,0-1.6,0.6-1.6,1.7l0.2-0.1c0.5-0.1,0.9-0.2,1.2-0.2
		c0.8,0,1.5,0.2,1.9,0.6c0.4,0.4,0.6,1,0.6,1.8s-0.2,1.4-0.7,1.8c-0.5,0.4-1.1,0.6-2,0.6s-1.6-0.3-2-1c-0.5-0.6-0.7-1.6-0.7-2.9
		c0-1.3,0.3-2.2,0.8-2.8s1.3-0.9,2.2-0.9c0.6,0,1.2,0.1,1.8,0.2l0.3,0.1L29.4,565.1z M27.2,567.7c-0.3,0-0.7,0.1-1.1,0.2l-0.2,0.1
		c0,1.3,0.4,1.9,1.2,1.9c0.4,0,0.6-0.1,0.8-0.3c0.2-0.2,0.3-0.5,0.3-0.8C28.2,568.1,27.9,567.7,27.2,567.7z"/>
</g>
<line class="st19" x1="3.3" y1="568.4" x2="9.9" y2="568.4"/>
<line class="st19" x1="39" y1="568.4" x2="31.9" y2="568.4"/>
<g>
	<path class="st18" d="M12.8,523v7.3h-1.5v-5.5l-1.6,1L9,524.7l2.4-1.6L12.8,523L12.8,523z"/>
	<path class="st18" d="M15.4,523.8c0.5-0.6,1.2-0.9,2.1-0.9s1.6,0.3,2.1,0.9c0.5,0.6,0.7,1.6,0.7,2.9s-0.2,2.3-0.7,2.9
		c-0.5,0.6-1.2,0.9-2.1,0.9s-1.6-0.3-2.1-0.9c-0.5-0.6-0.7-1.5-0.7-2.9C14.7,525.3,14.9,524.4,15.4,523.8z M18.7,526.7
		c0-0.9-0.1-1.5-0.3-1.9c-0.2-0.4-0.5-0.5-1-0.5s-0.8,0.2-1,0.5c-0.2,0.4-0.3,1-0.3,1.9c0,0.9,0.1,1.5,0.3,1.9
		c0.2,0.4,0.5,0.5,1,0.5s0.8-0.2,1-0.5C18.6,528.2,18.7,527.6,18.7,526.7z"/>
	<path class="st18" d="M21.5,523.8c0.5-0.6,1.2-0.9,2.1-0.9s1.6,0.3,2.1,0.9c0.5,0.6,0.7,1.6,0.7,2.9s-0.2,2.3-0.7,2.9
		c-0.5,0.6-1.2,0.9-2.1,0.9s-1.6-0.3-2.1-0.9c-0.5-0.6-0.7-1.5-0.7-2.9C20.8,525.3,21.1,524.4,21.5,523.8z M24.9,526.7
		c0-0.9-0.1-1.5-0.3-1.9c-0.2-0.4-0.5-0.5-1-0.5s-0.8,0.2-1,0.5c-0.2,0.4-0.3,1-0.3,1.9c0,0.9,0.1,1.5,0.3,1.9
		c0.2,0.4,0.5,0.5,1,0.5s0.8-0.2,1-0.5C24.8,528.2,24.9,527.6,24.9,526.7z"/>
	<path class="st18" d="M27.7,523.8c0.5-0.6,1.2-0.9,2.1-0.9s1.6,0.3,2.1,0.9c0.5,0.6,0.7,1.6,0.7,2.9s-0.2,2.3-0.7,2.9
		c-0.5,0.6-1.2,0.9-2.1,0.9s-1.6-0.3-2.1-0.9c-0.5-0.6-0.7-1.5-0.7-2.9C27,525.3,27.2,524.4,27.7,523.8z M31.1,526.7
		c0-0.9-0.1-1.5-0.3-1.9c-0.2-0.4-0.5-0.5-1-0.5s-0.8,0.2-1,0.5c-0.2,0.4-0.3,1-0.3,1.9c0,0.9,0.1,1.5,0.3,1.9
		c0.2,0.4,0.5,0.5,1,0.5s0.8-0.2,1-0.5C31,528.2,31.1,527.6,31.1,526.7z"/>
</g>
<line class="st19" x1="2.7" y1="527.6" x2="8.4" y2="527.6"/>
<line class="st19" x1="38.4" y1="527.6" x2="33.6" y2="527.6"/>
<g>
	<g>
		<path class="st20" d="M13.4,482.9v7.3h-1.5v-5.5l-1.6,1l-0.7-1.1L12,483L13.4,482.9L13.4,482.9z"/>
		<path class="st20" d="M16,483.7c0.5-0.6,1.2-0.9,2.1-0.9s1.6,0.3,2.1,0.9s0.7,1.6,0.7,2.9s-0.2,2.3-0.7,2.9s-1.2,0.9-2.1,0.9
			s-1.6-0.3-2.1-0.9c-0.5-0.6-0.7-1.5-0.7-2.9S15.5,484.3,16,483.7z M19.3,486.5c0-0.9-0.1-1.5-0.3-1.9c-0.2-0.4-0.5-0.5-1-0.5
			s-0.8,0.2-1,0.5c-0.2,0.4-0.3,1-0.3,1.9s0.1,1.5,0.3,1.9s0.5,0.5,1,0.5s0.8-0.2,1-0.5C19.2,488.1,19.3,487.5,19.3,486.5z"/>
		<path class="st20" d="M22.1,483.7c0.5-0.6,1.2-0.9,2.1-0.9s1.6,0.3,2.1,0.9s0.7,1.6,0.7,2.9s-0.2,2.3-0.7,2.9s-1.2,0.9-2.1,0.9
			s-1.6-0.3-2.1-0.9s-0.7-1.5-0.7-2.9S21.7,484.3,22.1,483.7z M25.5,486.5c0-0.9-0.1-1.5-0.3-1.9c-0.2-0.4-0.5-0.5-1-0.5
			s-0.8,0.2-1,0.5c-0.2,0.4-0.3,1-0.3,1.9s0.1,1.5,0.3,1.9s0.5,0.5,1,0.5s0.8-0.2,1-0.5C25.4,488.1,25.5,487.5,25.5,486.5z"/>
		<path class="st20" d="M30.8,490.2V489h-3.1v-1.2l1.8-4.9h1.7l-1.9,4.7h1.6v-2h1.5v2h0.7v1.3h-0.7v1.2h-1.6V490.2z"/>
	</g>
</g>
<line class="st19" x1="3.3" y1="487.5" x2="8.7" y2="487.5"/>
<line class="st19" x1="39" y1="487.5" x2="33.5" y2="487.5"/>
<g>
	<g>
		<path class="st20" d="M12.4,442.8v7.3h-1.5v-5.5l-1.6,1l-0.7-1.1l2.4-1.6L12.4,442.8L12.4,442.8z"/>
		<path class="st20" d="M15,443.5c0.5-0.6,1.2-0.9,2.1-0.9s1.6,0.3,2.1,0.9s0.7,1.6,0.7,2.9s-0.2,2.3-0.7,2.9s-1.2,0.9-2.1,0.9
			s-1.6-0.3-2.1-0.9s-0.7-1.5-0.7-2.9S14.5,444.1,15,443.5z M18.3,446.4c0-0.9-0.1-1.5-0.3-1.9c-0.2-0.4-0.5-0.5-1-0.5
			s-0.8,0.2-1,0.5c-0.2,0.4-0.3,1-0.3,1.9s0.1,1.5,0.3,1.9c0.2,0.4,0.5,0.5,1,0.5s0.8-0.2,1-0.5C18.2,447.9,18.3,447.3,18.3,446.4z"
			/>
		<path class="st20" d="M21.1,443.5c0.5-0.6,1.2-0.9,2.1-0.9s1.6,0.3,2.1,0.9s0.7,1.6,0.7,2.9s-0.2,2.3-0.7,2.9s-1.2,0.9-2.1,0.9
			s-1.6-0.3-2.1-0.9s-0.7-1.5-0.7-2.9S20.7,444.1,21.1,443.5z M24.5,446.4c0-0.9-0.1-1.5-0.3-1.9c-0.2-0.4-0.5-0.5-1-0.5
			s-0.8,0.2-1,0.5c-0.2,0.4-0.3,1-0.3,1.9s0.1,1.5,0.3,1.9s0.5,0.5,1,0.5s0.8-0.2,1-0.5C24.4,447.9,24.5,447.3,24.5,446.4z"/>
		<path class="st20" d="M27.5,443.2c0.5-0.3,1.1-0.5,1.9-0.5s1.4,0.2,1.9,0.5c0.5,0.4,0.7,0.8,0.7,1.5c0,0.4-0.1,0.7-0.2,1
			c-0.1,0.2-0.3,0.4-0.6,0.7c0.3,0.3,0.6,0.5,0.7,0.8c0.1,0.2,0.2,0.6,0.2,1c0,0.7-0.3,1.2-0.8,1.6c-0.5,0.3-1.2,0.5-2,0.5
			c-1.8,0-2.8-0.7-2.8-2c0-0.5,0.1-0.8,0.2-1.1c0.1-0.3,0.4-0.5,0.7-0.8c-0.3-0.2-0.5-0.5-0.6-0.7s-0.2-0.6-0.2-0.9
			C26.8,444,27,443.5,27.5,443.2z M28.3,447.8c0,0.6,0.4,1,1.1,1c0.8,0,1.1-0.3,1.1-1c0-0.4-0.2-0.7-0.6-0.8h-1
			C28.5,447.2,28.3,447.4,28.3,447.8z M29.4,444c-0.3,0-0.6,0.1-0.8,0.2s-0.3,0.4-0.3,0.7s0.2,0.6,0.5,0.8h1
			c0.4-0.2,0.5-0.5,0.5-0.9C30.4,444.3,30.1,444,29.4,444z"/>
	</g>
</g>
<line class="st19" x1="2.6" y1="447.2" x2="8" y2="447.2"/>
<line class="st19" x1="38.3" y1="447.2" x2="32.8" y2="447.2"/>
<g>
	<g>
		<path class="st20" d="M12.3,402.4v7.3h-1.5v-5.5l-1.6,1l-0.7-1.1l2.4-1.6L12.3,402.4L12.3,402.4z"/>
		<path class="st20" d="M14.9,403.2c0.5-0.6,1.2-0.9,2.1-0.9s1.6,0.3,2.1,0.9s0.7,1.6,0.7,2.9s-0.2,2.3-0.7,2.9s-1.2,0.9-2.1,0.9
			s-1.6-0.3-2.1-0.9s-0.7-1.5-0.7-2.9S14.4,403.8,14.9,403.2z M18.2,406.1c0-0.9-0.1-1.5-0.3-1.9c-0.2-0.4-0.5-0.5-1-0.5
			s-0.8,0.2-1,0.5c-0.2,0.4-0.3,1-0.3,1.9s0.1,1.5,0.3,1.9s0.5,0.5,1,0.5s0.8-0.2,1-0.5C18.1,407.6,18.2,407,18.2,406.1z"/>
		<path class="st20" d="M24.7,402.4v7.3h-1.5v-5.5l-1.6,1l-0.7-1.1l2.4-1.6L24.7,402.4L24.7,402.4z"/>
		<path class="st20" d="M31.6,409.7h-4.7v-1.3l1.6-1.6c0.5-0.6,0.9-1,1.1-1.3c0.2-0.3,0.3-0.6,0.3-1c0-0.3-0.1-0.6-0.3-0.7
			s-0.4-0.2-0.8-0.2c-0.5,0-1,0-1.6,0.1h-0.3l-0.1-1.2c0.7-0.2,1.5-0.3,2.2-0.3c1.5,0,2.3,0.7,2.3,2.1c0,0.5-0.1,1-0.4,1.4
			c-0.2,0.4-0.7,0.9-1.3,1.4l-1.3,1.1h3v1.5H31.6z"/>
	</g>
</g>
<line class="st19" x1="2.5" y1="406.9" x2="7.9" y2="406.9"/>
<line class="st19" x1="38.2" y1="406.9" x2="32.7" y2="406.9"/>
<g>
	<g>
		<path class="st20" d="M12.4,362.3v7.3h-1.5v-5.5l-1.6,1L8.6,364l2.4-1.6L12.4,362.3L12.4,362.3z"/>
		<path class="st20" d="M15,363.1c0.5-0.6,1.2-0.9,2.1-0.9s1.6,0.3,2.1,0.9s0.7,1.6,0.7,2.9s-0.2,2.3-0.7,2.9s-1.2,0.9-2.1,0.9
			s-1.6-0.3-2.1-0.9s-0.7-1.5-0.7-2.9S14.5,363.7,15,363.1z M18.3,366c0-0.9-0.1-1.5-0.3-1.9c-0.2-0.4-0.5-0.5-1-0.5s-0.8,0.2-1,0.5
			c-0.2,0.4-0.3,1-0.3,1.9s0.1,1.5,0.3,1.9s0.5,0.5,1,0.5s0.8-0.2,1-0.5C18.2,367.5,18.3,366.9,18.3,366z"/>
		<path class="st20" d="M24.8,362.3v7.3h-1.5v-5.5l-1.6,1L21,364l2.4-1.6L24.8,362.3L24.8,362.3z"/>
		<path class="st20" d="M31.8,363.7c-0.7-0.1-1.4-0.2-1.9-0.2c-1,0-1.6,0.6-1.6,1.7l0.2-0.1c0.5-0.1,0.9-0.2,1.2-0.2
			c0.8,0,1.5,0.2,1.9,0.6s0.6,1,0.6,1.8s-0.2,1.4-0.7,1.8s-1.1,0.6-2,0.6c-0.9,0-1.6-0.3-2-1c-0.5-0.6-0.7-1.6-0.7-2.9
			s0.3-2.2,0.8-2.8s1.3-0.9,2.2-0.9c0.6,0,1.2,0.1,1.8,0.2l0.3,0.1L31.8,363.7z M29.5,366.2c-0.3,0-0.7,0.1-1.1,0.2l-0.2,0.1
			c0,1.3,0.4,1.9,1.2,1.9c0.4,0,0.6-0.1,0.8-0.3c0.2-0.2,0.3-0.5,0.3-0.8C30.6,366.6,30.2,366.2,29.5,366.2z"/>
	</g>
</g>
<line class="st19" x1="2.6" y1="366.8" x2="8" y2="366.8"/>
<line class="st19" x1="38.3" y1="366.8" x2="32.8" y2="366.8"/>
<g>
	<g>
		<path class="st20" d="M13.1,321.4v7.3h-1.5v-5.5l-1.6,1l-0.7-1.1l2.4-1.6L13.1,321.4L13.1,321.4z"/>
		<path class="st20" d="M15.7,322.2c0.5-0.6,1.2-0.9,2.1-0.9s1.6,0.3,2.1,0.9s0.7,1.6,0.7,2.9s-0.2,2.3-0.7,2.9s-1.2,0.9-2.1,0.9
			s-1.6-0.3-2.1-0.9s-0.7-1.5-0.7-2.9S15.2,322.8,15.7,322.2z M19,325.1c0-0.9-0.1-1.5-0.3-1.9c-0.2-0.4-0.5-0.5-1-0.5
			s-0.8,0.2-1,0.5c-0.2,0.4-0.3,1-0.3,1.9s0.1,1.5,0.3,1.9s0.5,0.5,1,0.5s0.8-0.2,1-0.5C18.9,326.6,19,326,19,325.1z"/>
		<path class="st20" d="M26.3,328.7h-4.7v-1.3l1.6-1.6c0.5-0.6,0.9-1,1.1-1.3s0.3-0.6,0.3-1c0-0.3-0.1-0.6-0.3-0.7s-0.4-0.2-0.8-0.2
			c-0.5,0-1,0-1.6,0.1h-0.3l-0.1-1.2c0.7-0.2,1.5-0.3,2.2-0.3c1.5,0,2.3,0.7,2.3,2.1c0,0.5-0.1,1-0.4,1.4c-0.2,0.4-0.7,0.9-1.3,1.4
			l-1.3,1.1h3v1.5H26.3z"/>
		<path class="st20" d="M28,322.2c0.5-0.6,1.2-0.9,2.1-0.9s1.6,0.3,2.1,0.9c0.5,0.6,0.7,1.6,0.7,2.9s-0.2,2.3-0.7,2.9
			c-0.5,0.6-1.2,0.9-2.1,0.9s-1.6-0.3-2.1-0.9s-0.7-1.5-0.7-2.9S27.5,322.8,28,322.2z M31.4,325.1c0-0.9-0.1-1.5-0.3-1.9
			s-0.5-0.5-1-0.5s-0.8,0.2-1,0.5c-0.2,0.4-0.3,1-0.3,1.9s0.1,1.5,0.3,1.9c0.2,0.4,0.5,0.5,1,0.5s0.8-0.2,1-0.5
			C31.3,326.6,31.4,326,31.4,325.1z"/>
	</g>
</g>
<line class="st19" x1="3.3" y1="325.9" x2="8.7" y2="325.9"/>
<line class="st19" x1="39" y1="325.9" x2="33.5" y2="325.9"/>
<g>
	<g>
		<path class="st20" d="M12.5,281.4v7.3H11v-5.5l-1.6,1l-0.7-1.1l2.4-1.6L12.5,281.4L12.5,281.4z"/>
		<path class="st20" d="M15.1,282.2c0.5-0.6,1.2-0.9,2.1-0.9s1.6,0.3,2.1,0.9s0.7,1.6,0.7,2.9s-0.2,2.3-0.7,2.9s-1.2,0.9-2.1,0.9
			s-1.6-0.3-2.1-0.9s-0.7-1.5-0.7-2.9S14.6,282.8,15.1,282.2z M18.4,285.1c0-0.9-0.1-1.5-0.3-1.9c-0.2-0.4-0.5-0.5-1-0.5
			s-0.8,0.2-1,0.5c-0.2,0.4-0.3,1-0.3,1.9s0.1,1.5,0.3,1.9c0.2,0.4,0.5,0.5,1,0.5s0.8-0.2,1-0.5C18.3,286.6,18.4,286,18.4,285.1z"/>
		<path class="st20" d="M25.7,288.7H21v-1.3l1.6-1.6c0.5-0.6,0.9-1,1.1-1.3s0.3-0.6,0.3-1c0-0.3-0.1-0.6-0.3-0.7s-0.4-0.2-0.8-0.2
			c-0.5,0-1,0-1.6,0.1H21l-0.1-1.2c0.7-0.2,1.5-0.3,2.2-0.3c1.5,0,2.3,0.7,2.3,2.1c0,0.5-0.1,1-0.4,1.4c-0.2,0.4-0.7,0.9-1.3,1.4
			l-1.3,1.1h3v1.5H25.7z"/>
		<path class="st20" d="M29.9,288.7v-1.2h-3.1v-1.2l1.8-4.9h1.7l-1.9,4.7H30v-2h1.5v2h0.7v1.3h-0.7v1.2h-1.6V288.7z"/>
	</g>
</g>
<line class="st19" x1="2.7" y1="285.9" x2="8.1" y2="285.9"/>
<line class="st19" x1="38.4" y1="285.9" x2="32.9" y2="285.9"/>
<g>
	<g>
		<path class="st20" d="M12.7,241.4v7.3h-1.5v-5.5l-1.6,1l-0.7-1.1l2.4-1.6L12.7,241.4L12.7,241.4z"/>
		<path class="st20" d="M15.3,242.2c0.5-0.6,1.2-0.9,2.1-0.9s1.6,0.3,2.1,0.9c0.5,0.6,0.7,1.6,0.7,2.9s-0.2,2.3-0.7,2.9
			c-0.5,0.6-1.2,0.9-2.1,0.9s-1.6-0.3-2.1-0.9c-0.5-0.6-0.7-1.5-0.7-2.9S14.8,242.8,15.3,242.2z M18.6,245c0-0.9-0.1-1.5-0.3-1.9
			c-0.2-0.4-0.5-0.5-1-0.5s-0.8,0.2-1,0.5c-0.2,0.4-0.3,1-0.3,1.9s0.1,1.5,0.3,1.9s0.5,0.5,1,0.5s0.8-0.2,1-0.5
			C18.5,246.6,18.6,245.9,18.6,245z"/>
		<path class="st20" d="M25.9,248.7h-4.7v-1.3l1.6-1.6c0.5-0.6,0.9-1,1.1-1.3s0.3-0.6,0.3-1c0-0.3-0.1-0.6-0.3-0.7s-0.4-0.2-0.8-0.2
			c-0.5,0-1,0-1.6,0.1h-0.3l-0.1-1.2c0.7-0.2,1.5-0.3,2.2-0.3c1.5,0,2.3,0.7,2.3,2.1c0,0.5-0.1,1-0.4,1.4c-0.2,0.4-0.7,0.9-1.3,1.4
			l-1.3,1.1h3v1.5H25.9z"/>
		<path class="st20" d="M27.8,241.8c0.5-0.3,1.1-0.5,1.9-0.5s1.4,0.2,1.9,0.5c0.5,0.4,0.7,0.8,0.7,1.5c0,0.4-0.1,0.7-0.2,1
			c-0.1,0.2-0.3,0.4-0.6,0.7c0.3,0.3,0.6,0.5,0.7,0.8c0.1,0.2,0.2,0.6,0.2,1c0,0.7-0.3,1.2-0.8,1.6c-0.5,0.3-1.2,0.5-2,0.5
			c-1.8,0-2.8-0.7-2.8-2c0-0.5,0.1-0.8,0.2-1.1s0.4-0.5,0.7-0.8c-0.3-0.2-0.5-0.5-0.6-0.7s-0.2-0.6-0.2-0.9
			C27.1,242.6,27.3,242.1,27.8,241.8z M28.6,246.5c0,0.6,0.4,1,1.1,1c0.8,0,1.1-0.3,1.1-1c0-0.4-0.2-0.7-0.6-0.8h-1
			C28.8,245.8,28.6,246.1,28.6,246.5z M29.7,242.6c-0.3,0-0.6,0.1-0.8,0.2c-0.2,0.1-0.3,0.4-0.3,0.7s0.2,0.6,0.5,0.8h1
			c0.4-0.2,0.5-0.5,0.5-0.9C30.7,242.9,30.4,242.6,29.7,242.6z"/>
	</g>
</g>
<line class="st19" x1="2.9" y1="245.9" x2="8.3" y2="245.9"/>
<line class="st19" x1="38.6" y1="245.9" x2="33.1" y2="245.9"/>
<g>
	<path class="st18" d="M12.7,201.4v7.3h-1.5v-5.6l-1.6,1L8.9,203l2.4-1.6L12.7,201.4L12.7,201.4z"/>
	<path class="st18" d="M15.2,202.1c0.5-0.6,1.2-0.9,2.1-0.9s1.6,0.3,2.1,0.9c0.5,0.6,0.7,1.6,0.7,2.9s-0.2,2.3-0.7,2.9
		c-0.5,0.6-1.2,0.9-2.1,0.9s-1.6-0.3-2.1-0.9c-0.5-0.6-0.7-1.5-0.7-2.9S14.7,202.7,15.2,202.1z M18.5,205c0-0.9-0.1-1.5-0.3-1.9
		c-0.2-0.4-0.5-0.5-1-0.5s-0.8,0.2-1,0.5c-0.2,0.4-0.3,1-0.3,1.9s0.1,1.5,0.3,1.9c0.2,0.4,0.5,0.5,1,0.5s0.8-0.2,1-0.5
		C18.5,206.5,18.5,205.9,18.5,205z"/>
	<path class="st18" d="M21.1,201.6c0.7-0.3,1.4-0.4,2.3-0.4c0.8,0,1.4,0.2,1.8,0.5s0.6,0.8,0.6,1.5s-0.3,1.2-0.8,1.6
		c0.4,0.2,0.6,0.4,0.8,0.6c0.1,0.2,0.2,0.5,0.2,1c0,0.8-0.2,1.4-0.6,1.7c-0.4,0.4-1,0.6-1.9,0.6c-0.6,0-1.3-0.1-2-0.3l-0.4-0.1
		l0.1-1.2c0.8,0.1,1.5,0.2,2.1,0.2c0.8,0,1.1-0.3,1.1-1c0-0.3-0.1-0.5-0.3-0.6s-0.4-0.2-0.8-0.2h-1.5v-1.3h1.5
		c0.2,0,0.5-0.1,0.6-0.3c0.2-0.2,0.3-0.4,0.3-0.7c0-0.5-0.4-0.8-1.1-0.8c-0.5,0-1,0.1-1.6,0.2h-0.3L21.1,201.6z"/>
	<path class="st18" d="M32,208.6h-4.7v-1.3l1.6-1.6c0.5-0.6,0.9-1,1.1-1.3c0.2-0.3,0.3-0.6,0.3-1c0-0.3-0.1-0.6-0.3-0.7
		s-0.4-0.2-0.8-0.2c-0.5,0-1,0-1.6,0.1h-0.3l-0.1-1.2c0.7-0.2,1.5-0.3,2.2-0.3c1.5,0,2.3,0.7,2.3,2.1c0,0.5-0.1,1-0.4,1.4
		c-0.2,0.4-0.7,0.9-1.3,1.4l-1.3,1.1h3v1.5H32z"/>
</g>
<line class="st19" x1="2.8" y1="205.8" x2="8.2" y2="205.8"/>
<line class="st19" x1="38.5" y1="205.8" x2="33" y2="205.8"/>
<g>
	<path class="st18" d="M13.1,161.1v7.3h-1.5v-5.5l-1.6,1l-0.7-1.1l2.4-1.6L13.1,161.1L13.1,161.1z"/>
	<path class="st18" d="M15.6,161.9c0.5-0.6,1.2-0.9,2.1-0.9s1.6,0.3,2.1,0.9c0.5,0.6,0.7,1.6,0.7,2.9s-0.2,2.3-0.7,2.9
		c-0.5,0.6-1.2,0.9-2.1,0.9s-1.6-0.3-2.1-0.9c-0.5-0.6-0.7-1.5-0.7-2.9S15.1,162.5,15.6,161.9z M18.9,164.7c0-0.9-0.1-1.5-0.3-1.9
		c-0.2-0.4-0.5-0.5-1-0.5s-0.8,0.2-1,0.5c-0.2,0.4-0.3,1-0.3,1.9s0.1,1.5,0.3,1.9s0.5,0.5,1,0.5s0.8-0.2,1-0.5
		C18.9,166.3,18.9,165.6,18.9,164.7z"/>
	<path class="st18" d="M21.5,161.4c0.7-0.3,1.4-0.4,2.3-0.4c0.8,0,1.4,0.2,1.8,0.5s0.6,0.8,0.6,1.5s-0.3,1.2-0.8,1.6
		c0.4,0.2,0.6,0.4,0.8,0.6c0.1,0.2,0.2,0.5,0.2,1c0,0.8-0.2,1.4-0.6,1.7c-0.4,0.4-1,0.6-1.9,0.6c-0.6,0-1.3-0.1-2-0.3l-0.4-0.1
		l0.1-1.2c0.8,0.1,1.5,0.2,2.1,0.2c0.8,0,1.1-0.3,1.1-1c0-0.3-0.1-0.5-0.3-0.6s-0.4-0.2-0.8-0.2h-1.5V164h1.5c0.2,0,0.5-0.1,0.6-0.3
		c0.2-0.2,0.3-0.4,0.3-0.7c0-0.5-0.4-0.8-1.1-0.8c-0.5,0-1,0.1-1.6,0.2h-0.3L21.5,161.4z"/>
	<path class="st18" d="M32.4,162.5c-0.7-0.1-1.4-0.2-1.9-0.2c-1,0-1.6,0.6-1.6,1.7l0.2-0.1c0.5-0.1,0.9-0.2,1.2-0.2
		c0.8,0,1.5,0.2,1.9,0.6c0.4,0.4,0.6,1,0.6,1.8s-0.2,1.4-0.7,1.8c-0.5,0.4-1.1,0.6-2,0.6s-1.6-0.3-2-1c-0.5-0.6-0.7-1.6-0.7-2.9
		c0-1.3,0.3-2.2,0.8-2.8s1.3-0.9,2.2-0.9c0.6,0,1.2,0.1,1.8,0.2l0.3,0.1L32.4,162.5z M30.1,165c-0.3,0-0.7,0.1-1.1,0.2l-0.2,0.1
		c0,1.3,0.4,1.9,1.2,1.9c0.4,0,0.6-0.1,0.8-0.3s0.3-0.5,0.3-0.8C31.2,165.4,30.8,165,30.1,165z"/>
</g>
<line class="st19" x1="3.2" y1="165.6" x2="8.6" y2="165.6"/>
<line class="st19" x1="38.9" y1="165.6" x2="33.4" y2="165.6"/>
<g>
	<path class="st18" d="M12.7,120.9v7.3h-1.5v-5.5l-1.6,1l-0.7-1.1l2.4-1.6h1.4V120.9z"/>
	<path class="st18" d="M15.2,121.6c0.5-0.6,1.2-0.9,2.1-0.9s1.6,0.3,2.1,0.9s0.7,1.6,0.7,2.9s-0.2,2.3-0.7,2.9s-1.2,0.9-2.1,0.9
		s-1.6-0.3-2.1-0.9s-0.7-1.5-0.7-2.9S14.7,122.2,15.2,121.6z M18.6,124.5c0-0.9-0.1-1.5-0.3-1.9c-0.2-0.4-0.5-0.5-1-0.5
		s-0.8,0.2-1,0.5c-0.2,0.4-0.3,1-0.3,1.9s0.1,1.5,0.3,1.9s0.5,0.5,1,0.5s0.8-0.2,1-0.5C18.5,126,18.6,125.4,18.6,124.5z"/>
	<path class="st18" d="M23.9,128.1v-1.2h-3.1v-1.1l1.8-4.9h1.7l-1.9,4.7H24v-2h1.5v2h0.7v1.3h-0.7v1.2
		C25.5,128.1,23.9,128.1,23.9,128.1z"/>
	<path class="st18" d="M27.5,121.6c0.5-0.6,1.2-0.9,2.1-0.9s1.6,0.3,2.1,0.9s0.7,1.6,0.7,2.9s-0.2,2.3-0.7,2.9s-1.2,0.9-2.1,0.9
		s-1.6-0.3-2.1-0.9s-0.7-1.5-0.7-2.9S27,122.2,27.5,121.6z M30.9,124.5c0-0.9-0.1-1.5-0.3-1.9s-0.5-0.5-1-0.5s-0.8,0.2-1,0.5
		c-0.2,0.4-0.3,1-0.3,1.9s0.1,1.5,0.3,1.9c0.2,0.4,0.5,0.5,1,0.5s0.8-0.2,1-0.5C30.8,126,30.9,125.4,30.9,124.5z"/>
</g>
<line class="st19" x1="2.8" y1="125.3" x2="8.2" y2="125.3"/>
<line class="st19" x1="38.5" y1="125.3" x2="33" y2="125.3"/>
<g>
	<path class="st18" d="M12.7,80.3v7.3h-1.5V82l-1.6,1l-0.7-1.1l2.4-1.6H12.7z"/>
	<path class="st18" d="M15.2,81c0.5-0.6,1.2-0.9,2.1-0.9s1.6,0.3,2.1,0.9s0.7,1.6,0.7,2.9s-0.2,2.3-0.7,2.9s-1.2,0.9-2.1,0.9
		s-1.6-0.3-2.1-0.9s-0.7-1.5-0.7-2.9S14.8,81.6,15.2,81z M18.6,83.9c0-0.9-0.1-1.5-0.3-1.9s-0.5-0.5-1-0.5s-0.8,0.2-1,0.5
		c-0.2,0.4-0.3,1-0.3,1.9s0.1,1.5,0.3,1.9c0.2,0.4,0.5,0.5,1,0.5s0.8-0.2,1-0.5S18.6,84.8,18.6,83.9z"/>
	<path class="st18" d="M24,87.5v-1.2h-3.1v-1.2l1.8-4.9h1.7l-2,4.8H24v-2h1.5v2h0.7v1.3h-0.7v1.2H24z"/>
	<path class="st18" d="M30.1,87.5v-1.2H27v-1.2l1.8-4.9h1.7L28.6,85h1.6v-2h1.5v2h0.7v1.3h-0.7v1.2H30.1z"/>
</g>
<line class="st19" x1="2.9" y1="84.7" x2="8.3" y2="84.7"/>
<line class="st19" x1="38.6" y1="84.7" x2="33" y2="84.7"/>
<circle class="st21" cx="20.3" cy="21.3" r="19.8"/>
<rect x="7.3" y="626.7" class="st17" width="15.4" height="11.8"/>
<path class="st22" d="M32.8,724H8.3c-3.4,0-6.2-3-6.2-6.7V51.3c0-3.7,2.8-6.7,6.2-6.7h24.5c3.4,0,6.2,3,6.2,6.7v665.9
	C39,720.9,36.2,724,32.8,724z"/>
<path class="st18" d="M20.6,7.8c-7.4,0-13.4,6-13.4,13.4s6,13.5,13.4,13.5S34,28.7,34,21.3S28.1,7.8,20.6,7.8L20.6,7.8z M20.6,9.2
	c6.6,0,12,5.4,12,12s-5.4,12-12,12s-12-5.4-12-12S14.1,9.2,20.6,9.2L20.6,9.2z M19.8,20.6c-1.1,0.4-1.7,1.3-1.7,2.4
	c0,1.5,1.2,2.6,2.6,2.6c1.5,0,2.6-1.2,2.6-2.6c0-1.1-0.7-2.2-1.7-2.4v-4.4c0-0.5-0.4-0.8-0.8-0.8c-0.5,0-0.8,0.4-0.8,0.8v4.4H19.8z
	 M20.6,21.5c0.8,0,1.3,0.7,1.3,1.3c0,0.8-0.7,1.3-1.3,1.3c-0.8,0-1.3-0.7-1.3-1.3S19.9,21.5,20.6,21.5L20.6,21.5z M28.7,21.9h1.9
	c0.5,0,0.9-0.3,0.9-0.7s-0.4-0.7-0.9-0.7h-1.9c-0.5,0-0.9,0.3-0.9,0.7S28.1,21.9,28.7,21.9L28.7,21.9z M28.3,17.8l1.6-0.9
	c0.4-0.3,0.7-0.8,0.4-1.1c-0.3-0.4-0.7-0.4-1.2-0.1l-1.5,0.8c-0.4,0.3-0.7,0.8-0.4,1.1C27.3,17.9,27.9,18,28.3,17.8L28.3,17.8z
	 M25.4,14.4l0.9-1.6c0.3-0.4,0.1-0.9-0.1-1.2c-0.4-0.3-0.8,0-1.1,0.4l-0.9,1.6c-0.3,0.4-0.1,0.9,0.1,1.2S25.3,14.8,25.4,14.4
	L25.4,14.4z M21.4,12.8v-1.9c0-0.5-0.3-0.9-0.7-0.9c-0.4,0-0.7,0.4-0.7,0.9v1.9c0,0.5,0.3,0.9,0.7,0.9C21,13.7,21.4,13.3,21.4,12.8
	L21.4,12.8z M14.9,12.7l0.9,1.6c0.3,0.4,0.7,0.7,1.1,0.4c0.4-0.1,0.4-0.7,0.1-1.2l-0.9-1.6c-0.3-0.4-0.7-0.7-1.1-0.4
	C14.8,11.7,14.7,12.3,14.9,12.7L14.9,12.7z M11.6,16.7l1.6,0.9c0.4,0.3,0.9,0.1,1.2-0.1c0.1-0.4,0-0.8-0.4-1.1l-1.6-0.9
	c-0.4-0.3-0.9-0.1-1.2,0.1C10.9,16,11,16.6,11.6,16.7L11.6,16.7z M10.5,21.9h1.9c0.5,0,0.9-0.3,0.9-0.7s-0.4-0.7-0.9-0.7h-1.9
	c-0.5,0-0.9,0.3-0.9,0.7C9.6,21.5,10,21.9,10.5,21.9L10.5,21.9z"/>
</svg>
