<?xml version="1.0" encoding="utf-8"?>
<!-- Generator: Adobe Illustrator 28.0.0, SVG Export Plug-In . SVG Version: 6.00 Build 0)  -->
<svg version="1.1" id="Livello_1" xmlns="http://www.w3.org/2000/svg" xmlns:xlink="http://www.w3.org/1999/xlink" x="0px" y="0px"
	 width="38px" height="644px" viewBox="0 0 37.2 644.1" style="enable-background:new 0 0 37.2 644.1;" xml:space="preserve">
<style type="text/css">
	.st0{display:none;}
	.st1{display:inline;}
	.st2{clip-path:url(#SVGID_00000057846273633975244030000003596574970745681306_);}
	.st3{fill:#F59826;}
	.st4{fill:#FDCC22;}
	.st5{fill:#6655AD;}
	.st6{fill:#975EAD;}
	.st7{fill:#C66AAF;}
	.st8{fill:#AF48A1;}
	.st9{fill:#981595;}
	.st10{fill:#660666;}
	.st11{fill:#640E0E;}
	.st12{fill:#991E1F;}
	.st13{fill:#CB2527;}
	.st14{fill:#EC2426;}
	.st15{fill:#F06626;}
	.st16{fill:#FCFC1E;}
	.st17{fill:#CBE436;}
	.st18{fill:#7ECB47;}
	.st19{fill:#0EB04E;}
	.st20{fill:#37BD7C;}
	.st21{fill:#58C3BA;}
	.st22{fill:#6FC9DC;}
	.st23{fill:#33BCF3;}
	.st24{fill:#498DD2;}
	.st25{fill:#4469BB;}
	.st26{fill:#3F57B0;}
	.st27{display:none;fill:none;stroke:#3C3430;stroke-width:3;stroke-miterlimit:10;}
	.st28{clip-path:url(#SVGID_00000119797535552170404230000009188521937203843509_);fill:#FFFAFA;}
	.st29{clip-path:url(#SVGID_00000016064371052384033720000011994379912992048309_);fill:#FBD5D6;}
	.st30{clip-path:url(#SVGID_00000009581278393139542140000002005070021045317007_);fill:#F9C1C2;}
	.st31{clip-path:url(#SVGID_00000005975193921187531590000010536368770117739424_);fill:#FDEBEB;}
	.st32{clip-path:url(#SVGID_00000008121932999113292440000010669513156264900505_);fill:#F6ABAD;}
	.st33{clip-path:url(#SVGID_00000057835575774401054360000003429083232286511523_);fill:#F49799;}
	.st34{clip-path:url(#SVGID_00000142177813711637805040000007168247051186716291_);fill:#C8E8F0;}
	.st35{clip-path:url(#SVGID_00000113327138921353159740000002331621897615686838_);fill:#D0EBF7;}
	.st36{clip-path:url(#SVGID_00000010302065127390423550000014183981838985080250_);fill:#4898DA;}
	.st37{clip-path:url(#SVGID_00000168811911191996532540000018361034196414611890_);fill:#A3A5D7;}
	.st38{clip-path:url(#SVGID_00000097470311964299371880000010711687525512706959_);fill:#B988C1;}
	.st39{clip-path:url(#SVGID_00000175317637735339402980000003437960434584431021_);fill:#D7A2CD;}
	.st40{clip-path:url(#SVGID_00000020378661698075408300000006845208200675719094_);fill:#E8BEDB;}
	.st41{clip-path:url(#SVGID_00000065779984029978464740000012377440596132752564_);fill:#E67D9B;}
	.st42{clip-path:url(#SVGID_00000078003654426456824110000000420002500872563639_);fill:#DB4C4D;}
	.st43{clip-path:url(#SVGID_00000160169547017039689100000016501742965762099882_);fill:#EF5A5C;}
	.st44{clip-path:url(#SVGID_00000070811922877542292840000012337745471476300164_);fill:#F7A25C;}
	.st45{clip-path:url(#SVGID_00000167386980297967231850000007408660593686584224_);fill:#FDD58F;}
	.st46{clip-path:url(#SVGID_00000152255071566732273000000016116867210105471106_);fill:#FFE173;}
	.st47{clip-path:url(#SVGID_00000180324227025328193250000004422965913770192052_);fill:#FEFE82;}
	.st48{clip-path:url(#SVGID_00000067203746903226427320000007391348536889408385_);fill:#FFFFC7;}
	.st49{clip-path:url(#SVGID_00000113338745437473633760000017840234500604415398_);fill:#F3F3A1;}
	.st50{clip-path:url(#SVGID_00000018951562008934929310000010896960003543993783_);fill:#D3ECA4;}
	.st51{clip-path:url(#SVGID_00000121240656563739830130000002333732270629811081_);fill:#C3E6D8;}
	.st52{clip-path:url(#SVGID_00000054980538090556578190000015698047945575179965_);fill:#C8E8F0;}
	.st53{clip-path:url(#SVGID_00000161595962316130083720000017851092494237733517_);fill:#D0EBF7;}
	.st54{clip-path:url(#SVGID_00000155116664985213024920000007817698053119582857_);fill:#EC2426;}
	.st55{clip-path:url(#SVGID_00000132780822005001041150000012612033351896893357_);fill:#FCFC1E;}
	.st56{clip-path:url(#SVGID_00000106867236105053454610000005645962878847040688_);fill:#0B7F3F;}
	.st57{clip-path:url(#SVGID_00000012451258760131152130000006082432188509157565_);fill:#F7A426;}
	.st58{clip-path:url(#SVGID_00000096742268398745346680000016237847744264491933_);fill:#6FC9DC;}
	.st59{clip-path:url(#SVGID_00000015329007451057517940000011854895849470134190_);fill:#3F57B0;}
	.st60{display:none;fill:#3A332F;}
	.st61{display:none;fill:none;stroke:#3C3430;stroke-width:2.9317;stroke-miterlimit:9.7722;}
	.st62{display:inline;fill:#3C3530;}
	.st63{display:inline;fill:#FFFFFF;}
	.st64{display:none;fill:none;}
	.st65{display:none;enable-background:new    ;}
	.st66{clip-path:url(#SVGID_00000147904568501659317650000005350745819880128153_);}
	.st67{fill:#235A95;enable-background:new    ;}
	.st68{fill:#661515;enable-background:new    ;}
	.st69{fill:#981F1F;enable-background:new    ;}
	.st70{fill:#CB2A2A;enable-background:new    ;}
	.st71{fill:#DA4C4D;enable-background:new    ;}
	.st72{fill:#EE5A5C;enable-background:new    ;}
	.st73{fill:#F0A0A0;enable-background:new    ;}
	.st74{fill:#FFB4B4;enable-background:new    ;}
	.st75{fill:#FFDCDC;enable-background:new    ;}
	.st76{fill:#F8E8E8;enable-background:new    ;}
	.st77{fill:#DEEAF7;enable-background:new    ;}
	.st78{fill:#BDD5EF;enable-background:new    ;}
	.st79{fill:#9CC1E7;enable-background:new    ;}
	.st80{fill:#79AADE;enable-background:new    ;}
	.st81{fill:#548ECE;enable-background:new    ;}
	.st82{fill:#2E6FB8;enable-background:new    ;}
	.st83{fill:none;stroke:#3C3430;stroke-width:2.9317;stroke-miterlimit:9.7722;}
	.st84{fill:#39322E;}
	.st85{fill:none;}
	.st86{fill:#FFFFFF;}
	.st87{fill:#3C3430;}
</style>
<g class="st0">
	<g class="st1">
		<g>
			<g>
				<g>
					<g>
						<defs>
							<path id="SVGID_1_" d="M30.6,632.8c-0.3,3.7-6.4,8.1-11.7,8.1l0,0c-5.2,0.4-12.3-3.6-12.3-8.1V48.7c1.1-5.3,7.4-8.5,11.5-8.5
								l0,0c4.9,0,11.2,3.1,12.4,8.7L30.6,632.8L30.6,632.8z"/>
						</defs>
						<clipPath id="SVGID_00000000196263711954842150000008890720293766632365_">
							<use xlink:href="#SVGID_1_"  style="overflow:visible;"/>
						</clipPath>
						<g style="clip-path:url(#SVGID_00000000196263711954842150000008890720293766632365_);">
							<rect x="-1.1" y="41.6" class="st3" width="47.9" height="15"/>
							<rect x="-5.6" y="55.9" class="st4" width="47.4" height="14.2"/>
							<rect x="-5.6" y="70.1" class="st5" width="47.4" height="14.2"/>
							<rect x="-5.6" y="84.4" class="st6" width="47.4" height="14.2"/>
							<rect x="-5.6" y="98.7" class="st7" width="47.4" height="14.2"/>
							<rect x="-5.6" y="112.9" class="st8" width="47.4" height="14.2"/>
							<rect x="-5.6" y="127.1" class="st9" width="47.4" height="14.2"/>
							<rect x="-5.6" y="141.3" class="st10" width="47.4" height="14.2"/>
							<rect x="-5.6" y="155.5" class="st11" width="47.4" height="14.2"/>
							<rect x="-5.6" y="169.7" class="st12" width="47.4" height="14.2"/>
							<rect x="-5.6" y="184" class="st13" width="47.4" height="14.2"/>
							<rect x="-5.6" y="198.2" class="st14" width="47.4" height="14.2"/>
							<rect x="-5.6" y="212.4" class="st15" width="47.4" height="14.2"/>
							<rect x="-5.6" y="226.6" class="st3" width="47.4" height="14.2"/>
							<rect x="-5.6" y="240.8" class="st4" width="47.4" height="14.2"/>
							<rect x="-5.6" y="255" class="st16" width="47.4" height="14.2"/>
							<rect x="-5.6" y="269.3" class="st17" width="47.4" height="14.2"/>
							<rect x="-5.6" y="283.5" class="st18" width="47.4" height="14.2"/>
							<rect x="-5.6" y="297.7" class="st19" width="47.4" height="14.2"/>
							<rect x="-5.6" y="312" class="st20" width="47.4" height="14.2"/>
							<rect x="-5.6" y="326.2" class="st21" width="47.4" height="14.2"/>
							<rect x="-5.6" y="340.4" class="st22" width="47.4" height="14.2"/>
							<rect x="-5.6" y="354.7" class="st23" width="47.4" height="14.2"/>
							<rect x="-5.6" y="368.9" class="st24" width="47.4" height="14.2"/>
							<rect x="-5.6" y="383.1" class="st25" width="47.4" height="14.2"/>
							<rect x="-5.6" y="397.3" class="st26" width="47.4" height="14.2"/>
							<rect x="-5.6" y="411.5" class="st5" width="47.4" height="14.2"/>
							<rect x="-5.6" y="425.7" class="st6" width="47.4" height="14.2"/>
							<rect x="-5.6" y="440" class="st7" width="47.4" height="14.2"/>
							<rect x="-5.6" y="454.2" class="st8" width="47.4" height="14.2"/>
							<rect x="-5.6" y="468.4" class="st9" width="47.4" height="14.2"/>
							<rect x="-5.6" y="482.6" class="st10" width="47.4" height="14.2"/>
							<rect x="-5.6" y="496.8" class="st11" width="47.4" height="14.2"/>
							<rect x="-5.6" y="511" class="st12" width="47.4" height="14.2"/>
							<rect x="-5.6" y="525.3" class="st13" width="47.4" height="14.2"/>
							<rect x="-5.6" y="539.6" class="st14" width="47.4" height="14.2"/>
							<rect x="-5.6" y="553.8" class="st15" width="47.4" height="14.2"/>
							<rect x="-5.6" y="568" class="st3" width="47.4" height="14.2"/>
							<rect x="-5.6" y="582.2" class="st4" width="47.4" height="60.2"/>
						</g>
					</g>
				</g>
			</g>
		</g>
	</g>
</g>
<path class="st27" d="M30.6,632.7c-0.3,3.7-6.4,8.1-11.7,8.1l0,0c-5.2,0.4-12.3-3.6-12.3-8.1V48.6c1.1-5.3,7.4-8.5,11.5-8.5l0,0
	c4.9,0,11.2,3.1,12.4,8.7L30.6,632.7L30.6,632.7z"/>
<g class="st0">
	<g class="st1">
		<g>
			<g>
				<g>
					<g>
						<g>
							<g>
								<defs>
									<path id="SVGID_00000137834147572928527380000017981189873688942011_" d="M18.6,575.9c-0.3,3.3-5.5,7.3-10.1,7.3l0,0
										C4,583.6-2.1,580-2.1,575.9v-526c1-4.8,6.3-7.6,10-7.6l0,0c4.2,0,9.7,2.9,10.8,7.8L18.6,575.9L18.6,575.9z"/>
								</defs>
								<clipPath id="SVGID_00000031925890846021155390000012442446140606480273_">
									<use xlink:href="#SVGID_00000137834147572928527380000017981189873688942011_"  style="overflow:visible;"/>
								</clipPath>
								
									<rect x="-7.2" y="492.4" style="clip-path:url(#SVGID_00000031925890846021155390000012442446140606480273_);fill:#FFFAFA;" width="30.9" height="96.8"/>
							</g>
						</g>
					</g>
				</g>
			</g>
		</g>
		<g>
			<g>
				<g>
					<g>
						<g>
							<g>
								<defs>
									<path id="SVGID_00000037652370464386677800000011201173975746761902_" d="M18.6,575.9c-0.3,3.3-5.5,7.3-10.1,7.3l0,0
										C4,583.6-2.1,580-2.1,575.9v-526c1-4.8,6.3-7.6,10-7.6l0,0c4.2,0,9.7,2.9,10.8,7.8L18.6,575.9L18.6,575.9z"/>
								</defs>
								<clipPath id="SVGID_00000142163548529453771790000011553192488261183665_">
									<use xlink:href="#SVGID_00000037652370464386677800000011201173975746761902_"  style="overflow:visible;"/>
								</clipPath>
								
									<rect x="-6.9" y="316.4" style="clip-path:url(#SVGID_00000142163548529453771790000011553192488261183665_);fill:#FBD5D6;" width="30.9" height="88"/>
							</g>
						</g>
					</g>
				</g>
			</g>
		</g>
		<g>
			<g>
				<g>
					<g>
						<g>
							<g>
								<defs>
									<path id="SVGID_00000078738261845981864120000005713574392059233153_" d="M18.6,575.9c-0.3,3.3-5.5,7.3-10.1,7.3l0,0
										C4,583.6-2.1,580-2.1,575.9v-526c1-4.8,6.3-7.6,10-7.6l0,0c4.2,0,9.7,2.9,10.8,7.8L18.6,575.9L18.6,575.9z"/>
								</defs>
								<clipPath id="SVGID_00000167392426817555897980000015916761155049349790_">
									<use xlink:href="#SVGID_00000078738261845981864120000005713574392059233153_"  style="overflow:visible;"/>
								</clipPath>
								
									<rect x="-6.9" y="228.4" style="clip-path:url(#SVGID_00000167392426817555897980000015916761155049349790_);fill:#F9C1C2;" width="30.9" height="88"/>
							</g>
						</g>
					</g>
				</g>
			</g>
		</g>
		<g>
			<g>
				<g>
					<g>
						<g>
							<g>
								<defs>
									<path id="SVGID_00000161591233847560216120000016948684504657138341_" d="M18.6,575.9c-0.3,3.3-5.5,7.3-10.1,7.3l0,0
										C4,583.6-2.1,580-2.1,575.9v-526c1-4.8,6.3-7.6,10-7.6l0,0c4.2,0,9.7,2.9,10.8,7.8L18.6,575.9L18.6,575.9z"/>
								</defs>
								<clipPath id="SVGID_00000075137916786547220450000009979648398002764705_">
									<use xlink:href="#SVGID_00000161591233847560216120000016948684504657138341_"  style="overflow:visible;"/>
								</clipPath>
								
									<rect x="-7.2" y="404.4" style="clip-path:url(#SVGID_00000075137916786547220450000009979648398002764705_);fill:#FDEBEB;" width="30.9" height="88"/>
							</g>
						</g>
					</g>
				</g>
			</g>
		</g>
		<g>
			<g>
				<g>
					<g>
						<g>
							<g>
								<defs>
									<path id="SVGID_00000141420587721895074940000003103144078681144754_" d="M18.6,575.9c-0.3,3.3-5.5,7.3-10.1,7.3l0,0
										C4,583.6-2.1,580-2.1,575.9v-526c1-4.8,6.3-7.6,10-7.6l0,0c4.2,0,9.7,2.9,10.8,7.8L18.6,575.9L18.6,575.9z"/>
								</defs>
								<clipPath id="SVGID_00000147181048364846084240000011992128740786757763_">
									<use xlink:href="#SVGID_00000141420587721895074940000003103144078681144754_"  style="overflow:visible;"/>
								</clipPath>
								
									<rect x="-6.9" y="140.4" style="clip-path:url(#SVGID_00000147181048364846084240000011992128740786757763_);fill:#F6ABAD;" width="30.9" height="88"/>
							</g>
						</g>
					</g>
				</g>
			</g>
		</g>
		<g>
			<g>
				<g>
					<g>
						<g>
							<g>
								<defs>
									<path id="SVGID_00000029728758627771257030000013747722627494555824_" d="M18.6,575.9c-0.3,3.3-5.5,7.3-10.1,7.3l0,0
										C4,583.6-2.1,580-2.1,575.9v-526c1-4.8,6.3-7.6,10-7.6l0,0c4.2,0,9.7,2.9,10.8,7.8L18.6,575.9L18.6,575.9z"/>
								</defs>
								<clipPath id="SVGID_00000085214679495481245030000013731236794173738925_">
									<use xlink:href="#SVGID_00000029728758627771257030000013747722627494555824_"  style="overflow:visible;"/>
								</clipPath>
								
									<rect x="-7.2" y="43.6" style="clip-path:url(#SVGID_00000085214679495481245030000013731236794173738925_);fill:#F49799;" width="30.9" height="96.8"/>
							</g>
						</g>
					</g>
				</g>
			</g>
		</g>
	</g>
</g>
<g class="st0">
	<g class="st1">
		<g>
			<g>
				<g>
					<g>
						<g>
							<defs>
								<path id="SVGID_00000078004804837283053440000000849712147686890412_" d="M18.6,575.9c0,3.6-5.8,7.9-10.4,7.9H7.6
									c-4.2,0-9.7-3.8-9.7-7.9v-526c1-4.8,6.3-7.6,10-7.6l0,0c4.2,0,9.7,2.9,10.7,7.8V575.9L18.6,575.9z"/>
							</defs>
							<clipPath id="SVGID_00000152945006968127658740000016375597776282359735_">
								<use xlink:href="#SVGID_00000078004804837283053440000000849712147686890412_"  style="overflow:visible;"/>
							</clipPath>
							
								<rect x="-12.9" y="42.3" style="clip-path:url(#SVGID_00000152945006968127658740000016375597776282359735_);fill:#C8E8F0;" width="42.3" height="26.6"/>
						</g>
					</g>
				</g>
			</g>
		</g>
	</g>
	<g class="st1">
		<g>
			<g>
				<g>
					<g>
						<g>
							<defs>
								<path id="SVGID_00000153698589220910543070000016269287364375952018_" d="M18.6,575.9c0,3.6-5.8,7.9-10.4,7.9H7.6
									c-4.2,0-9.7-3.8-9.7-7.9v-526c1-4.8,6.3-7.6,10-7.6l0,0c4.2,0,9.7,2.9,10.7,7.8V575.9L18.6,575.9z"/>
							</defs>
							<clipPath id="SVGID_00000005255549455887394670000011103395916758822286_">
								<use xlink:href="#SVGID_00000153698589220910543070000016269287364375952018_"  style="overflow:visible;"/>
							</clipPath>
							
								<rect x="-12.9" y="68.9" style="clip-path:url(#SVGID_00000005255549455887394670000011103395916758822286_);fill:#D0EBF7;" width="42.3" height="26.6"/>
						</g>
					</g>
				</g>
			</g>
		</g>
	</g>
	<g class="st1">
		<g>
			<g>
				<g>
					<g>
						<g>
							<defs>
								<path id="SVGID_00000064324189434893046380000005376517570866506891_" d="M18.6,575.9c0,3.6-5.8,7.9-10.4,7.9H7.6
									c-4.2,0-9.7-3.8-9.7-7.9v-526c1-4.8,6.3-7.6,10-7.6l0,0c4.2,0,9.7,2.9,10.7,7.8V575.9L18.6,575.9z"/>
							</defs>
							<clipPath id="SVGID_00000085208973024686713780000014715361273383597971_">
								<use xlink:href="#SVGID_00000064324189434893046380000005376517570866506891_"  style="overflow:visible;"/>
							</clipPath>
							
								<rect x="-12.9" y="95" style="clip-path:url(#SVGID_00000085208973024686713780000014715361273383597971_);fill:#4898DA;" width="42.3" height="26.6"/>
						</g>
					</g>
				</g>
			</g>
		</g>
	</g>
	<g class="st1">
		<g>
			<g>
				<g>
					<g>
						<g>
							<defs>
								<path id="SVGID_00000140011997733563512810000016477733569110948533_" d="M18.6,575.9c0,3.6-5.8,7.9-10.4,7.9H7.6
									c-4.2,0-9.7-3.8-9.7-7.9v-526c1-4.8,6.3-7.6,10-7.6l0,0c4.2,0,9.7,2.9,10.7,7.8V575.9L18.6,575.9z"/>
							</defs>
							<clipPath id="SVGID_00000040574719873207729420000008291258856333488564_">
								<use xlink:href="#SVGID_00000140011997733563512810000016477733569110948533_"  style="overflow:visible;"/>
							</clipPath>
							
								<rect x="-12.9" y="121.6" style="clip-path:url(#SVGID_00000040574719873207729420000008291258856333488564_);fill:#A3A5D7;" width="42.3" height="26.6"/>
						</g>
					</g>
				</g>
			</g>
		</g>
	</g>
	<g class="st1">
		<g>
			<g>
				<g>
					<g>
						<g>
							<defs>
								<path id="SVGID_00000093166883503432030510000002110687747291049863_" d="M18.6,575.9c0,3.6-5.8,7.9-10.4,7.9H7.6
									c-4.2,0-9.7-3.8-9.7-7.9v-526c1-4.8,6.3-7.6,10-7.6l0,0c4.2,0,9.7,2.9,10.7,7.8V575.9L18.6,575.9z"/>
							</defs>
							<clipPath id="SVGID_00000044143263895826037620000015504898594342637195_">
								<use xlink:href="#SVGID_00000093166883503432030510000002110687747291049863_"  style="overflow:visible;"/>
							</clipPath>
							
								<rect x="-12.9" y="148.2" style="clip-path:url(#SVGID_00000044143263895826037620000015504898594342637195_);fill:#B988C1;" width="42.3" height="26.6"/>
						</g>
					</g>
				</g>
			</g>
		</g>
	</g>
	<g class="st1">
		<g>
			<g>
				<g>
					<g>
						<g>
							<defs>
								<path id="SVGID_00000089571101186799982200000013310429196746235303_" d="M18.6,575.9c0,3.6-5.8,7.9-10.4,7.9H7.6
									c-4.2,0-9.7-3.8-9.7-7.9v-526c1-4.8,6.3-7.6,10-7.6l0,0c4.2,0,9.7,2.9,10.7,7.8V575.9L18.6,575.9z"/>
							</defs>
							<clipPath id="SVGID_00000181772402729745130660000004548693743982520761_">
								<use xlink:href="#SVGID_00000089571101186799982200000013310429196746235303_"  style="overflow:visible;"/>
							</clipPath>
							
								<rect x="-12.9" y="174.9" style="clip-path:url(#SVGID_00000181772402729745130660000004548693743982520761_);fill:#D7A2CD;" width="42.3" height="26.6"/>
						</g>
					</g>
				</g>
			</g>
		</g>
	</g>
	<g class="st1">
		<g>
			<g>
				<g>
					<g>
						<g>
							<defs>
								<path id="SVGID_00000009558468817329596430000001461669996969136030_" d="M18.6,575.9c0,3.6-5.8,7.9-10.4,7.9H7.6
									c-4.2,0-9.7-3.8-9.7-7.9v-526c1-4.8,6.3-7.6,10-7.6l0,0c4.2,0,9.7,2.9,10.7,7.8V575.9L18.6,575.9z"/>
							</defs>
							<clipPath id="SVGID_00000115505249848466452050000015911646115778015399_">
								<use xlink:href="#SVGID_00000009558468817329596430000001461669996969136030_"  style="overflow:visible;"/>
							</clipPath>
							
								<rect x="-12.9" y="201.1" style="clip-path:url(#SVGID_00000115505249848466452050000015911646115778015399_);fill:#E8BEDB;" width="42.3" height="26.6"/>
						</g>
					</g>
				</g>
			</g>
		</g>
	</g>
	<g class="st1">
		<g>
			<g>
				<g>
					<g>
						<g>
							<defs>
								<path id="SVGID_00000103226705893767062760000004462374229535847301_" d="M18.6,575.9c0,3.6-5.8,7.9-10.4,7.9H7.6
									c-4.2,0-9.7-3.8-9.7-7.9v-526c1-4.8,6.3-7.6,10-7.6l0,0c4.2,0,9.7,2.9,10.7,7.8V575.9L18.6,575.9z"/>
							</defs>
							<clipPath id="SVGID_00000031178968965772442080000016046503557709397427_">
								<use xlink:href="#SVGID_00000103226705893767062760000004462374229535847301_"  style="overflow:visible;"/>
							</clipPath>
							
								<rect x="-12.9" y="227.8" style="clip-path:url(#SVGID_00000031178968965772442080000016046503557709397427_);fill:#E67D9B;" width="42.3" height="26.6"/>
						</g>
					</g>
				</g>
			</g>
		</g>
	</g>
	<g class="st1">
		<g>
			<g>
				<g>
					<g>
						<g>
							<defs>
								<path id="SVGID_00000097501644330654116880000004790810899363366056_" d="M18.6,575.9c0,3.6-5.8,7.9-10.4,7.9H7.6
									c-4.2,0-9.7-3.8-9.7-7.9v-526c1-4.8,6.3-7.6,10-7.6l0,0c4.2,0,9.7,2.9,10.7,7.8V575.9L18.6,575.9z"/>
							</defs>
							<clipPath id="SVGID_00000102534049728549758110000005056977656871508115_">
								<use xlink:href="#SVGID_00000097501644330654116880000004790810899363366056_"  style="overflow:visible;"/>
							</clipPath>
							
								<rect x="-12.9" y="254.4" style="clip-path:url(#SVGID_00000102534049728549758110000005056977656871508115_);fill:#DB4C4D;" width="42.3" height="26.6"/>
						</g>
					</g>
				</g>
			</g>
		</g>
	</g>
	<g class="st1">
		<g>
			<g>
				<g>
					<g>
						<g>
							<defs>
								<path id="SVGID_00000129907942477338352070000016064663198347597986_" d="M18.6,575.9c0,3.6-5.8,7.9-10.4,7.9H7.6
									c-4.2,0-9.7-3.8-9.7-7.9v-526c1-4.8,6.3-7.6,10-7.6l0,0c4.2,0,9.7,2.9,10.7,7.8V575.9L18.6,575.9z"/>
							</defs>
							<clipPath id="SVGID_00000016753726809229156020000013323166402797153927_">
								<use xlink:href="#SVGID_00000129907942477338352070000016064663198347597986_"  style="overflow:visible;"/>
							</clipPath>
							
								<rect x="-12.9" y="281" style="clip-path:url(#SVGID_00000016753726809229156020000013323166402797153927_);fill:#EF5A5C;" width="42.3" height="26.6"/>
						</g>
					</g>
				</g>
			</g>
		</g>
	</g>
	<g class="st1">
		<g>
			<g>
				<g>
					<g>
						<g>
							<defs>
								<path id="SVGID_00000067942759654060162400000010171389071732985252_" d="M18.6,575.9c0,3.6-5.8,7.9-10.4,7.9H7.6
									c-4.2,0-9.7-3.8-9.7-7.9v-526c1-4.8,6.3-7.6,10-7.6l0,0c4.2,0,9.7,2.9,10.7,7.8V575.9L18.6,575.9z"/>
							</defs>
							<clipPath id="SVGID_00000029732583895976748730000008566058759253561494_">
								<use xlink:href="#SVGID_00000067942759654060162400000010171389071732985252_"  style="overflow:visible;"/>
							</clipPath>
							
								<rect x="-12.9" y="307.3" style="clip-path:url(#SVGID_00000029732583895976748730000008566058759253561494_);fill:#F7A25C;" width="42.3" height="26.6"/>
						</g>
					</g>
				</g>
			</g>
		</g>
	</g>
	<g class="st1">
		<g>
			<g>
				<g>
					<g>
						<g>
							<defs>
								<path id="SVGID_00000001644823186697552850000008655076911178597819_" d="M18.6,575.9c0,3.6-5.8,7.9-10.4,7.9H7.6
									c-4.2,0-9.7-3.8-9.7-7.9v-526c1-4.8,6.3-7.6,10-7.6l0,0c4.2,0,9.7,2.9,10.7,7.8V575.9L18.6,575.9z"/>
							</defs>
							<clipPath id="SVGID_00000163752761699585022700000000014614968065210303_">
								<use xlink:href="#SVGID_00000001644823186697552850000008655076911178597819_"  style="overflow:visible;"/>
							</clipPath>
							
								<rect x="-12.9" y="333.9" style="clip-path:url(#SVGID_00000163752761699585022700000000014614968065210303_);fill:#FDD58F;" width="42.3" height="26.6"/>
						</g>
					</g>
				</g>
			</g>
		</g>
	</g>
	<g class="st1">
		<g>
			<g>
				<g>
					<g>
						<g>
							<defs>
								<path id="SVGID_00000173842011416336141590000014419719262926307239_" d="M18.6,575.9c0,3.6-5.8,7.9-10.4,7.9H7.6
									c-4.2,0-9.7-3.8-9.7-7.9v-526c1-4.8,6.3-7.6,10-7.6l0,0c4.2,0,9.7,2.9,10.7,7.8V575.9L18.6,575.9z"/>
							</defs>
							<clipPath id="SVGID_00000168074410801772407750000010817126575771285171_">
								<use xlink:href="#SVGID_00000173842011416336141590000014419719262926307239_"  style="overflow:visible;"/>
							</clipPath>
							
								<rect x="-12.9" y="360.5" style="clip-path:url(#SVGID_00000168074410801772407750000010817126575771285171_);fill:#FFE173;" width="42.3" height="26.6"/>
						</g>
					</g>
				</g>
			</g>
		</g>
	</g>
	<g class="st1">
		<g>
			<g>
				<g>
					<g>
						<g>
							<defs>
								<path id="SVGID_00000000181485519765284320000009464943002378863799_" d="M18.6,575.9c0,3.6-5.8,7.9-10.4,7.9H7.6
									c-4.2,0-9.7-3.8-9.7-7.9v-526c1-4.8,6.3-7.6,10-7.6l0,0c4.2,0,9.7,2.9,10.7,7.8V575.9L18.6,575.9z"/>
							</defs>
							<clipPath id="SVGID_00000062904630520604433490000007541746447176603065_">
								<use xlink:href="#SVGID_00000000181485519765284320000009464943002378863799_"  style="overflow:visible;"/>
							</clipPath>
							
								<rect x="-12.9" y="387.1" style="clip-path:url(#SVGID_00000062904630520604433490000007541746447176603065_);fill:#FEFE82;" width="42.3" height="26.6"/>
						</g>
					</g>
				</g>
			</g>
		</g>
	</g>
	<g class="st1">
		<g>
			<g>
				<g>
					<g>
						<g>
							<defs>
								<path id="SVGID_00000052085566394267181320000014992848116940034445_" d="M18.6,575.9c0,3.6-5.8,7.9-10.4,7.9H7.6
									c-4.2,0-9.7-3.8-9.7-7.9v-526c1-4.8,6.3-7.6,10-7.6l0,0c4.2,0,9.7,2.9,10.7,7.8V575.9L18.6,575.9z"/>
							</defs>
							<clipPath id="SVGID_00000045592192225776750350000001021310405017422248_">
								<use xlink:href="#SVGID_00000052085566394267181320000014992848116940034445_"  style="overflow:visible;"/>
							</clipPath>
							
								<rect x="-12.9" y="413.4" style="clip-path:url(#SVGID_00000045592192225776750350000001021310405017422248_);fill:#FFFFC7;" width="42.3" height="26.6"/>
						</g>
					</g>
				</g>
			</g>
		</g>
	</g>
	<g class="st1">
		<g>
			<g>
				<g>
					<g>
						<g>
							<defs>
								<path id="SVGID_00000043450119759812101260000001146248422147948963_" d="M18.6,575.9c0,3.6-5.8,7.9-10.4,7.9H7.6
									c-4.2,0-9.7-3.8-9.7-7.9v-526c1-4.8,6.3-7.6,10-7.6l0,0c4.2,0,9.7,2.9,10.7,7.8V575.9L18.6,575.9z"/>
							</defs>
							<clipPath id="SVGID_00000127036907628496120380000017609284308127527318_">
								<use xlink:href="#SVGID_00000043450119759812101260000001146248422147948963_"  style="overflow:visible;"/>
							</clipPath>
							
								<rect x="-12.9" y="440" style="clip-path:url(#SVGID_00000127036907628496120380000017609284308127527318_);fill:#F3F3A1;" width="42.3" height="26.6"/>
						</g>
					</g>
				</g>
			</g>
		</g>
	</g>
	<g class="st1">
		<g>
			<g>
				<g>
					<g>
						<g>
							<defs>
								<path id="SVGID_00000023967446928269693790000003808062731095580045_" d="M18.6,575.9c0,3.6-5.8,7.9-10.4,7.9H7.6
									c-4.2,0-9.7-3.8-9.7-7.9v-526c1-4.8,6.3-7.6,10-7.6l0,0c4.2,0,9.7,2.9,10.7,7.8V575.9L18.6,575.9z"/>
							</defs>
							<clipPath id="SVGID_00000023260253962334940190000007968363070567543180_">
								<use xlink:href="#SVGID_00000023967446928269693790000003808062731095580045_"  style="overflow:visible;"/>
							</clipPath>
							
								<rect x="-12.9" y="466.7" style="clip-path:url(#SVGID_00000023260253962334940190000007968363070567543180_);fill:#D3ECA4;" width="42.3" height="26.6"/>
						</g>
					</g>
				</g>
			</g>
		</g>
	</g>
	<g class="st1">
		<g>
			<g>
				<g>
					<g>
						<g>
							<defs>
								<path id="SVGID_00000060744211832934909620000001402017430902423439_" d="M18.6,575.9c0,3.6-5.8,7.9-10.4,7.9H7.6
									c-4.2,0-9.7-3.8-9.7-7.9v-526c1-4.8,6.3-7.6,10-7.6l0,0c4.2,0,9.7,2.9,10.7,7.8V575.9L18.6,575.9z"/>
							</defs>
							<clipPath id="SVGID_00000132049292899863610400000015016624980798045086_">
								<use xlink:href="#SVGID_00000060744211832934909620000001402017430902423439_"  style="overflow:visible;"/>
							</clipPath>
							
								<rect x="-12.9" y="493.3" style="clip-path:url(#SVGID_00000132049292899863610400000015016624980798045086_);fill:#C3E6D8;" width="42.3" height="26.6"/>
						</g>
					</g>
				</g>
			</g>
		</g>
	</g>
	<g class="st1">
		<g>
			<g>
				<g>
					<g>
						<g>
							<defs>
								<path id="SVGID_00000057147942694362095140000012202192272676855428_" d="M18.6,575.9c0,3.6-5.8,7.9-10.4,7.9H7.6
									c-4.2,0-9.7-3.8-9.7-7.9v-526c1-4.8,6.3-7.6,10-7.6l0,0c4.2,0,9.7,2.9,10.7,7.8V575.9L18.6,575.9z"/>
							</defs>
							<clipPath id="SVGID_00000133493744041456042120000007324718750743539643_">
								<use xlink:href="#SVGID_00000057147942694362095140000012202192272676855428_"  style="overflow:visible;"/>
							</clipPath>
							
								<rect x="-12.9" y="519.9" style="clip-path:url(#SVGID_00000133493744041456042120000007324718750743539643_);fill:#C8E8F0;" width="42.3" height="26.6"/>
						</g>
					</g>
				</g>
			</g>
		</g>
	</g>
	<g class="st1">
		<g>
			<g>
				<g>
					<g>
						<g>
							<defs>
								<path id="SVGID_00000076583969184951044600000014492553234741189286_" d="M18.6,575.9c0,3.6-5.8,7.9-10.4,7.9H7.6
									c-4.2,0-9.7-3.8-9.7-7.9v-526c1-4.8,6.3-7.6,10-7.6l0,0c4.2,0,9.7,2.9,10.7,7.8V575.9L18.6,575.9z"/>
							</defs>
							<clipPath id="SVGID_00000124121092416459985620000015475110923213864334_">
								<use xlink:href="#SVGID_00000076583969184951044600000014492553234741189286_"  style="overflow:visible;"/>
							</clipPath>
							
								<rect x="-12.9" y="546.5" style="clip-path:url(#SVGID_00000124121092416459985620000015475110923213864334_);fill:#D0EBF7;" width="42.3" height="40.2"/>
						</g>
					</g>
				</g>
			</g>
		</g>
	</g>
</g>
<g class="st0">
	<g class="st1">
		<g>
			<g>
				<g>
					<g>
						<g>
							<g>
								<defs>
									<path id="SVGID_00000005251567116761898860000002933556096529184160_" d="M18.4,576.1c-0.3,3.3-5.5,7.3-10.1,7.3l0,0
										c-4.5,0.4-10.6-3.2-10.6-7.3v-526c1-4.8,6.3-7.6,10-7.6l0,0c4.2,0,9.7,2.9,10.8,7.8L18.4,576.1L18.4,576.1z"/>
								</defs>
								<clipPath id="SVGID_00000167382071850932134800000001994633103490895003_">
									<use xlink:href="#SVGID_00000005251567116761898860000002933556096529184160_"  style="overflow:visible;"/>
								</clipPath>
								
									<rect x="-7.4" y="491.2" style="clip-path:url(#SVGID_00000167382071850932134800000001994633103490895003_);fill:#EC2426;" width="30.9" height="96.8"/>
							</g>
						</g>
					</g>
				</g>
			</g>
		</g>
		<g>
			<g>
				<g>
					<g>
						<g>
							<g>
								<defs>
									<path id="SVGID_00000103963584428847856280000006649257277130129582_" d="M18.4,576.1c-0.3,3.3-5.5,7.3-10.1,7.3l0,0
										c-4.5,0.4-10.6-3.2-10.6-7.3v-526c1-4.8,6.3-7.6,10-7.6l0,0c4.2,0,9.7,2.9,10.8,7.8L18.4,576.1L18.4,576.1z"/>
								</defs>
								<clipPath id="SVGID_00000119801971572053706680000002565264957152218298_">
									<use xlink:href="#SVGID_00000103963584428847856280000006649257277130129582_"  style="overflow:visible;"/>
								</clipPath>
								
									<rect x="-7.1" y="315.2" style="clip-path:url(#SVGID_00000119801971572053706680000002565264957152218298_);fill:#FCFC1E;" width="30.9" height="88"/>
							</g>
						</g>
					</g>
				</g>
			</g>
		</g>
		<g>
			<g>
				<g>
					<g>
						<g>
							<g>
								<defs>
									<path id="SVGID_00000058574165472567559680000015594803771552354490_" d="M18.4,576.1c-0.3,3.3-5.5,7.3-10.1,7.3l0,0
										c-4.5,0.4-10.6-3.2-10.6-7.3v-526c1-4.8,6.3-7.6,10-7.6l0,0c4.2,0,9.7,2.9,10.8,7.8L18.4,576.1L18.4,576.1z"/>
								</defs>
								<clipPath id="SVGID_00000095305397709498162600000005539090144974997941_">
									<use xlink:href="#SVGID_00000058574165472567559680000015594803771552354490_"  style="overflow:visible;"/>
								</clipPath>
								
									<rect x="-7.1" y="227.2" style="clip-path:url(#SVGID_00000095305397709498162600000005539090144974997941_);fill:#0B7F3F;" width="30.9" height="88"/>
							</g>
						</g>
					</g>
				</g>
			</g>
		</g>
		<g>
			<g>
				<g>
					<g>
						<g>
							<g>
								<defs>
									<path id="SVGID_00000178185679070240196830000017644359227684234394_" d="M18.4,576.1c-0.3,3.3-5.5,7.3-10.1,7.3l0,0
										c-4.5,0.4-10.6-3.2-10.6-7.3v-526c1-4.8,6.3-7.6,10-7.6l0,0c4.2,0,9.7,2.9,10.8,7.8L18.4,576.1L18.4,576.1z"/>
								</defs>
								<clipPath id="SVGID_00000044896161091189387270000015700800646230556082_">
									<use xlink:href="#SVGID_00000178185679070240196830000017644359227684234394_"  style="overflow:visible;"/>
								</clipPath>
								
									<rect x="-7.4" y="403.2" style="clip-path:url(#SVGID_00000044896161091189387270000015700800646230556082_);fill:#F7A426;" width="30.9" height="88"/>
							</g>
						</g>
					</g>
				</g>
			</g>
		</g>
		<g>
			<g>
				<g>
					<g>
						<g>
							<g>
								<defs>
									<path id="SVGID_00000100376333133065552880000001236863694450914443_" d="M18.4,576.1c-0.3,3.3-5.5,7.3-10.1,7.3l0,0
										c-4.5,0.4-10.6-3.2-10.6-7.3v-526c1-4.8,6.3-7.6,10-7.6l0,0c4.2,0,9.7,2.9,10.8,7.8L18.4,576.1L18.4,576.1z"/>
								</defs>
								<clipPath id="SVGID_00000001641840642345074400000012842669931679153855_">
									<use xlink:href="#SVGID_00000100376333133065552880000001236863694450914443_"  style="overflow:visible;"/>
								</clipPath>
								
									<rect x="-7.1" y="139.2" style="clip-path:url(#SVGID_00000001641840642345074400000012842669931679153855_);fill:#6FC9DC;" width="30.9" height="88"/>
							</g>
						</g>
					</g>
				</g>
			</g>
		</g>
		<g>
			<g>
				<g>
					<g>
						<g>
							<g>
								<defs>
									<path id="SVGID_00000157279804445924921540000002826283976989316762_" d="M18.4,576.1c-0.3,3.3-5.5,7.3-10.1,7.3l0,0
										c-4.5,0.4-10.6-3.2-10.6-7.3v-526c1-4.8,6.3-7.6,10-7.6l0,0c4.2,0,9.7,2.9,10.8,7.8L18.4,576.1L18.4,576.1z"/>
								</defs>
								<clipPath id="SVGID_00000175293328984293621090000016026829396992755875_">
									<use xlink:href="#SVGID_00000157279804445924921540000002826283976989316762_"  style="overflow:visible;"/>
								</clipPath>
								
									<rect x="-7.1" y="42.4" style="clip-path:url(#SVGID_00000175293328984293621090000016026829396992755875_);fill:#3F57B0;" width="30.9" height="96.8"/>
							</g>
						</g>
					</g>
				</g>
			</g>
		</g>
	</g>
</g>
<circle class="st60" cx="8" cy="23.8" r="14.6"/>
<path class="st61" d="M18.4,576.1c-0.3,3.3-5.5,7.3-10.1,7.3l0,0c-4.5,0.4-10.6-3.2-10.6-7.3v-526c1-4.8,6.3-7.6,10-7.6l0,0
	c4.2,0,9.7,2.9,10.8,7.8L18.4,576.1L18.4,576.1z"/>
<g class="st0">
	<path class="st62" d="M3.4,574.6c-0.4-0.5-0.6-1-0.6-1.8c0-0.7,0.2-1.3,0.6-1.8s0.9-0.7,1.5-0.7s1.1,0.2,1.5,0.7
		c0.4,0.4,0.6,1,0.6,1.8s-0.2,1.3-0.6,1.8c-0.4,0.4-0.9,0.7-1.5,0.7S3.8,575.1,3.4,574.6z M5.7,574c0.2-0.3,0.3-0.7,0.3-1.1
		c0-0.5-0.1-0.9-0.3-1.1c-0.2-0.3-0.5-0.4-0.8-0.4s-0.6,0.1-0.8,0.4c-0.2,0.3-0.3,0.7-0.3,1.1c0,0.5,0.1,0.9,0.3,1.1
		c0.2,0.3,0.5,0.4,0.8,0.4C5.3,574.4,5.5,574.3,5.7,574z M10.2,570.5h1.2l-6.1,8.9H4.2L10.2,570.5z M9.2,578.8
		c-0.4-0.5-0.6-1-0.6-1.8c0-0.7,0.2-1.3,0.6-1.8c0.4-0.4,0.9-0.7,1.5-0.7s1.1,0.2,1.5,0.7c0.4,0.4,0.6,1,0.6,1.8
		c0,0.7-0.2,1.3-0.6,1.8c-0.4,0.4-0.9,0.7-1.5,0.7S9.6,579.3,9.2,578.8z M11.5,578.2c0.2-0.3,0.3-0.7,0.3-1.1c0-0.5-0.1-0.9-0.3-1.1
		c-0.2-0.3-0.5-0.4-0.8-0.4s-0.6,0.1-0.8,0.4c-0.2,0.3-0.3,0.7-0.3,1.1c0,0.5,0.1,0.9,0.3,1.1c0.2,0.3,0.5,0.4,0.8,0.4
		C11.1,578.6,11.3,578.5,11.5,578.2z"/>
</g>
<g class="st0">
	<path class="st62" d="M6.9,530.4c0.4,0.3,0.6,0.7,0.6,1.2c0,0.3-0.1,0.6-0.2,0.9c-0.2,0.3-0.4,0.5-0.7,0.6
		c-0.3,0.2-0.7,0.2-1.2,0.2c-0.4,0-0.8-0.1-1.1-0.2c-0.4-0.1-0.7-0.3-0.9-0.5l0.4-0.8c0.2,0.2,0.4,0.3,0.7,0.4
		c0.3,0.1,0.6,0.1,0.9,0.1c0.4,0,0.6-0.1,0.8-0.2c0.2-0.1,0.3-0.4,0.3-0.6c0-0.3-0.1-0.5-0.3-0.6s-0.6-0.2-1.1-0.2H3.6l0.3-3h3.2
		v0.9H4.7l-0.1,1.3h0.5C5.9,529.9,6.5,530.1,6.9,530.4z"/>
	<path class="st62" d="M9.1,533c-0.3-0.2-0.6-0.5-0.8-1c-0.2-0.4-0.3-0.9-0.3-1.5s0.1-1.1,0.3-1.5s0.5-0.8,0.8-1s0.7-0.3,1.2-0.3
		c0.4,0,0.8,0.1,1.2,0.3c0.3,0.2,0.6,0.5,0.8,1c0.2,0.4,0.3,0.9,0.3,1.5s-0.1,1.1-0.3,1.5s-0.5,0.7-0.8,1c-0.3,0.2-0.7,0.3-1.2,0.3
		S9.5,533.2,9.1,533z M11.2,532c0.2-0.3,0.3-0.8,0.3-1.4c0-0.6-0.1-1.1-0.3-1.4c-0.2-0.3-0.5-0.5-0.9-0.5s-0.7,0.2-0.9,0.5
		s-0.3,0.8-0.3,1.4c0,0.6,0.1,1.1,0.3,1.4s0.5,0.5,0.9,0.5S11,532.3,11.2,532z"/>
</g>
<g class="st0">
	<path class="st62" d="M6.8,449c0.3,0.1,0.5,0.3,0.7,0.6c0.2,0.3,0.2,0.6,0.2,0.9c0,0.4-0.1,0.7-0.3,0.9c-0.2,0.3-0.4,0.5-0.7,0.6
		s-0.6,0.2-1,0.2c-0.8,0-1.3-0.2-1.7-0.7s-0.6-1.1-0.6-2c0-0.6,0.1-1.1,0.3-1.6c0.2-0.4,0.5-0.8,0.9-1s0.9-0.3,1.4-0.3
		c0.3,0,0.5,0,0.8,0.1c0.2,0.1,0.5,0.1,0.6,0.3L7,447.8c-0.3-0.2-0.6-0.3-1-0.3c-0.5,0-0.9,0.2-1.2,0.5s-0.4,0.8-0.4,1.4l0,0
		c0.2-0.2,0.4-0.3,0.6-0.4c0.3-0.1,0.5-0.1,0.8-0.1C6.2,448.8,6.5,448.9,6.8,449z M6.4,451.2c0.2-0.2,0.3-0.4,0.3-0.7
		c0-0.3-0.1-0.5-0.3-0.7s-0.5-0.3-0.8-0.3s-0.6,0.1-0.8,0.3c-0.2,0.2-0.3,0.4-0.3,0.7c0,0.3,0.1,0.5,0.3,0.7s0.5,0.3,0.8,0.3
		C6,451.5,6.2,451.4,6.4,451.2z"/>
	<path class="st62" d="M9.4,452c-0.3-0.2-0.6-0.5-0.8-1c-0.2-0.4-0.3-0.9-0.3-1.5s0.1-1.1,0.3-1.5s0.5-0.8,0.8-1s0.7-0.3,1.2-0.3
		c0.4,0,0.8,0.1,1.2,0.3c0.3,0.2,0.6,0.5,0.8,1c0.2,0.4,0.3,0.9,0.3,1.5s-0.1,1.1-0.3,1.5s-0.5,0.7-0.8,1c-0.3,0.2-0.7,0.3-1.2,0.3
		S9.7,452.2,9.4,452z M11.5,450.9c0.2-0.3,0.3-0.8,0.3-1.4s-0.1-1.1-0.3-1.4s-0.5-0.5-0.9-0.5s-0.7,0.2-0.9,0.5s-0.3,0.8-0.3,1.4
		s0.1,1.1,0.3,1.4s0.5,0.5,0.9,0.5C10.9,451.4,11.2,451.2,11.5,450.9z"/>
</g>
<g class="st0">
	<path class="st62" d="M7.8,358v0.7l-2.1,4.8H4.5l2.1-4.6H4.4v0.9H3.5V358H7.8L7.8,358z"/>
	<path class="st62" d="M9.3,363.2c-0.3-0.2-0.6-0.5-0.8-1c-0.2-0.4-0.3-0.9-0.3-1.5s0.1-1.1,0.3-1.5s0.5-0.7,0.8-1
		c0.3-0.2,0.7-0.3,1.2-0.3c0.4,0,0.8,0.1,1.2,0.3c0.3,0.2,0.6,0.5,0.8,1c0.2,0.4,0.3,0.9,0.3,1.5s-0.1,1.1-0.3,1.5s-0.5,0.7-0.8,1
		c-0.3,0.2-0.7,0.3-1.2,0.3C10.1,363.6,9.7,363.4,9.3,363.2z M11.4,362.2c0.2-0.3,0.3-0.8,0.3-1.4s-0.1-1.1-0.3-1.4
		s-0.5-0.5-0.9-0.5s-0.7,0.2-0.9,0.5s-0.3,0.8-0.3,1.4s0.1,1.1,0.3,1.4s0.5,0.5,0.9,0.5S11.2,362.5,11.4,362.2z"/>
</g>
<g class="st0">
	<path class="st62" d="M7.6,264.4c0.2,0.2,0.2,0.5,0.2,0.8s-0.1,0.6-0.3,0.9s-0.4,0.4-0.8,0.6s-0.7,0.2-1.2,0.2
		c-0.4,0-0.8-0.1-1.2-0.2c-0.3-0.1-0.6-0.3-0.8-0.6c-0.2-0.3-0.3-0.5-0.3-0.9c0-0.3,0.1-0.6,0.2-0.8c0.2-0.2,0.4-0.4,0.6-0.5
		c-0.2-0.1-0.4-0.3-0.5-0.5s-0.2-0.4-0.2-0.7c0-0.3,0.1-0.6,0.3-0.8c0.2-0.2,0.4-0.4,0.7-0.5s0.7-0.2,1.1-0.2s0.8,0.1,1.1,0.2
		s0.5,0.3,0.7,0.5s0.3,0.5,0.3,0.8s-0.1,0.5-0.2,0.7s-0.3,0.4-0.5,0.5C7.2,264,7.4,264.1,7.6,264.4z M6.5,265.8
		c0.2-0.2,0.3-0.4,0.3-0.6c0-0.3-0.1-0.5-0.3-0.6c-0.2-0.2-0.5-0.2-0.9-0.2s-0.7,0.1-0.9,0.2c-0.2,0.2-0.3,0.4-0.3,0.6
		c0,0.3,0.1,0.5,0.3,0.6c0.2,0.2,0.5,0.2,0.9,0.2C5.9,266,6.2,265.9,6.5,265.8z M4.8,262.2c-0.2,0.1-0.3,0.3-0.3,0.6
		c0,0.2,0.1,0.4,0.3,0.6c0.2,0.1,0.4,0.2,0.8,0.2c0.3,0,0.6-0.1,0.8-0.2s0.3-0.3,0.3-0.6c0-0.2-0.1-0.4-0.3-0.6
		C6.2,262.1,6,262,5.6,262S5,262,4.8,262.2z"/>
	<path class="st62" d="M9.6,266.5c-0.3-0.2-0.6-0.5-0.8-1c-0.2-0.4-0.3-0.9-0.3-1.5s0.1-1.1,0.3-1.5s0.5-0.7,0.8-1
		c0.3-0.2,0.7-0.3,1.2-0.3c0.4,0,0.8,0.1,1.2,0.3c0.3,0.2,0.6,0.5,0.8,1s0.3,0.9,0.3,1.5s-0.1,1.1-0.3,1.5s-0.5,0.7-0.8,1
		s-0.7,0.3-1.2,0.3S9.9,266.7,9.6,266.5z M11.7,265.4c0.2-0.3,0.3-0.8,0.3-1.4s-0.1-1.1-0.3-1.4s-0.5-0.5-0.9-0.5s-0.7,0.2-0.9,0.5
		s-0.3,0.8-0.3,1.4s0.1,1.1,0.3,1.4s0.5,0.5,0.9,0.5C11.1,265.9,11.5,265.8,11.7,265.4z"/>
</g>
<g class="st0">
	<path class="st62" d="M7.1,181.5c0.4,0.5,0.6,1.1,0.6,2c0,0.6-0.1,1.1-0.3,1.6c-0.2,0.4-0.5,0.8-0.9,1s-0.9,0.3-1.4,0.3
		c-0.3,0-0.5,0-0.8-0.1c-0.2-0.1-0.5-0.1-0.6-0.3l0.4-0.8c0.3,0.2,0.6,0.3,1,0.3c0.5,0,0.9-0.2,1.2-0.5s0.4-0.8,0.4-1.4l0,0
		c-0.2,0.2-0.4,0.3-0.6,0.4c-0.3,0.1-0.5,0.1-0.8,0.1c-0.4,0-0.7-0.1-1-0.2c-0.3-0.1-0.5-0.3-0.7-0.6s-0.2-0.6-0.2-0.9
		c0-0.4,0.1-0.7,0.3-0.9c0.2-0.3,0.4-0.5,0.7-0.6s0.6-0.2,1-0.2C6.1,180.7,6.7,181,7.1,181.5z M6.2,183.1c0.2-0.2,0.3-0.4,0.3-0.7
		s-0.1-0.5-0.3-0.7s-0.5-0.3-0.8-0.3s-0.6,0.1-0.8,0.3s-0.3,0.4-0.3,0.7s0.1,0.5,0.3,0.7s0.5,0.3,0.8,0.3
		C5.7,183.4,6,183.3,6.2,183.1z"/>
	<path class="st62" d="M9.5,186c-0.3-0.2-0.6-0.5-0.8-1c-0.2-0.4-0.3-0.9-0.3-1.5s0.1-1.1,0.3-1.5s0.5-0.7,0.8-1
		c0.3-0.2,0.7-0.3,1.2-0.3c0.4,0,0.8,0.1,1.2,0.3c0.3,0.2,0.6,0.5,0.8,1c0.2,0.4,0.3,0.9,0.3,1.5s-0.1,1.1-0.3,1.5s-0.5,0.7-0.8,1
		c-0.3,0.2-0.7,0.3-1.2,0.3C10.2,186.4,9.8,186.3,9.5,186z M11.6,185c0.2-0.3,0.3-0.8,0.3-1.4c0-0.6-0.1-1.1-0.3-1.4
		c-0.2-0.3-0.5-0.5-0.9-0.5s-0.7,0.2-0.9,0.5s-0.3,0.8-0.3,1.4c0,0.6,0.1,1.1,0.3,1.4c0.2,0.3,0.5,0.5,0.9,0.5
		C11,185.5,11.4,185.3,11.6,185z"/>
</g>
<g class="st0">
	<path class="st62" d="M3.7,83.8v5.5h-1v-4.6H1.5v-0.9H3.7z"/>
	<path class="st62" d="M5.9,89c-0.3-0.2-0.6-0.5-0.8-1c-0.2-0.4-0.3-0.9-0.3-1.5s0.1-1.1,0.3-1.5s0.5-0.7,0.8-1
		c0.3-0.2,0.7-0.3,1.2-0.3c0.4,0,0.8,0.1,1.2,0.3c0.3,0.2,0.6,0.5,0.8,1c0.2,0.4,0.3,0.9,0.3,1.5S9.3,87.6,9.1,88s-0.5,0.7-0.8,1
		c-0.3,0.2-0.7,0.3-1.2,0.3C6.6,89.4,6.2,89.3,5.9,89z M8,88c0.2-0.3,0.3-0.8,0.3-1.4S8.2,85.5,8,85.2s-0.5-0.5-0.9-0.5
		s-0.7,0.2-0.9,0.5S5.9,86,5.9,86.6S6,87.7,6.2,88s0.5,0.5,0.9,0.5S7.8,88.3,8,88z"/>
	<path class="st62" d="M11.2,89c-0.3-0.2-0.6-0.5-0.8-1c-0.2-0.4-0.3-0.9-0.3-1.5s0.1-1.1,0.3-1.5s0.5-0.7,0.8-1
		c0.3-0.2,0.7-0.3,1.2-0.3c0.4,0,0.8,0.1,1.2,0.3s0.6,0.5,0.8,1s0.2,1,0.2,1.5s-0.1,1.1-0.3,1.5s-0.5,0.7-0.8,1
		c-0.3,0.2-0.7,0.3-1.2,0.3C11.9,89.4,11.5,89.3,11.2,89z M13.3,88c0.2-0.3,0.3-0.8,0.3-1.4s-0.1-1.1-0.3-1.4s-0.5-0.5-0.9-0.5
		s-0.7,0.2-0.9,0.5s-0.3,0.8-0.3,1.4s0.1,1.1,0.3,1.4s0.5,0.5,0.9,0.5C12.7,88.5,13,88.3,13.3,88z"/>
</g>
<g class="st0">
	<path class="st63" d="M1.7,30.5h12.4c2.6,0,4.8-1.8,5.3-4.2c0.3-1.6-0.1-3.2-1.1-4.4c-0.9-1-2.1-1.7-3.4-1.9v-1.2
		c0-4.2-3.8-7.5-7.9-7c-3.5,0.4-6.2,3.5-6.2,7.3V20c-1.1,0.1-2.2,0.7-3,1.5c-1.2,1.2-1.7,2.9-1.5,4.6C-3.2,28.5-0.8,30.5,1.7,30.5z
		 M-1.2,22.5c0.7-0.7,1.7-1.1,2.7-1.1c0.4,0,0.7-0.3,0.7-0.7v-1.6c0-3.1,2.5-5.9,5.7-5.9c3.1,0,5.7,2.6,5.7,5.7v1.8
		c0,0.4,0.3,0.7,0.7,0.7c1.2,0,2.3,0.5,3,1.4s1,2.1,0.8,3.3c-0.4,1.8-2,3.1-4,3.1H1.7c-1.8,0-3.7-1.5-4-3.2
		C-2.5,24.6-2.1,23.4-1.2,22.5z"/>
</g>
<rect x="3.2" y="30.5" class="st64" width="9.5" height="5.3"/>
<g class="st65">
	<path class="st63" d="M7.1,30.7h0.7V34h2v0.6H7.1V30.7z"/>
</g>
<g>
	<g>
		<g>
			<g>
				<g>
					<g>
						<g>
							<defs>
								<path id="SVGID_00000159439374812183267140000004780917399162057114_" d="M30.6,632.3c-0.3,3.7-6.3,8.3-11.6,8.3l0,0
									c-5.2,0.4-12.3-3.6-12.3-8.1V48.6c1.1-5.3,7.4-8.5,11.5-8.5l0,0c4.9,0,11.2,3.1,12.4,8.7v583.7V632.3z"/>
							</defs>
							<clipPath id="SVGID_00000042698250259665015550000008513640320708454067_">
								<use xlink:href="#SVGID_00000159439374812183267140000004780917399162057114_"  style="overflow:visible;"/>
							</clipPath>
							<g style="clip-path:url(#SVGID_00000042698250259665015550000008513640320708454067_);">
								<rect x="-4.4" y="571.1" class="st67" width="47.5" height="94.6"/>
								<rect x="-4.7" y="40" class="st68" width="49.2" height="35.4"/>
								<rect x="-4.7" y="75.4" class="st69" width="49.2" height="35.6"/>
								<rect x="-4.7" y="111" class="st70" width="49.2" height="35.4"/>
								<rect x="-4.7" y="146.4" class="st71" width="49.2" height="35.4"/>
								<rect x="-4.7" y="181.7" class="st72" width="49.2" height="35.4"/>
								<rect x="-4.7" y="217.1" class="st73" width="49.2" height="35.4"/>
								<rect x="-4.7" y="252.5" class="st74" width="49.2" height="35.4"/>
								<rect x="-4.7" y="287.8" class="st75" width="49.2" height="35.4"/>
								<rect x="-4.7" y="323.2" class="st76" width="49.2" height="35.4"/>
								<rect x="-4.7" y="358.6" class="st77" width="49.2" height="35.4"/>
								<rect x="-4.7" y="394" class="st78" width="49.2" height="35.4"/>
								<rect x="-4.7" y="429.6" class="st79" width="49.2" height="35.4"/>
								<rect x="-4.7" y="464.9" class="st80" width="49.2" height="35.4"/>
								<rect x="-4.7" y="500.3" class="st81" width="49.2" height="35.4"/>
								<rect x="-4.7" y="535.7" class="st82" width="49.2" height="35.4"/>
							</g>
						</g>
					</g>
				</g>
			</g>
		</g>
	</g>
</g>
<path class="st83" d="M30.6,632.4c-0.3,3.7-6.3,8.1-11.6,8.1l0,0c-5.2,0.4-12.3-3.6-12.3-8.1V48.5c1.1-5.3,7.4-8.5,11.5-8.5l0,0
	c4.9,0,11.2,3.1,12.4,8.7V632.4L30.6,632.4z"/>
<circle class="st84" cx="18.6" cy="20.6" r="14.6"/>
<line class="st83" x1="30.6" y1="632.5" x2="30.6" y2="631.1"/>
<rect x="11.1" y="622" class="st85" width="15.4" height="11.8"/>
<path class="st86" d="M18.6,10.6c-5.5,0-10,4.5-10,10c0,5.5,4.5,10,10,10s10-4.5,10-10C28.6,15.1,24.2,10.6,18.6,10.6L18.6,10.6z
	 M18.6,11.6c4.9,0,8.9,4,8.9,8.9s-4,8.9-8.9,8.9s-8.9-4-8.9-8.9S13.8,11.6,18.6,11.6L18.6,11.6z M18,20.1c-0.8,0.3-1.3,1-1.3,1.8
	c0,1.1,0.9,1.9,1.9,1.9c1.1,0,1.9-0.9,1.9-1.9c0-0.8-0.5-1.6-1.3-1.8v-3.3c0-0.4-0.3-0.6-0.6-0.6c-0.4,0-0.6,0.3-0.6,0.6V20.1
	L18,20.1z M18.6,20.8c0.6,0,1,0.5,1,1c0,0.6-0.5,1-1,1c-0.6,0-1-0.5-1-1C17.6,21.3,18.1,20.8,18.6,20.8L18.6,20.8z M24.6,21.1h1.4
	c0.4,0,0.7-0.2,0.7-0.5c0-0.3-0.3-0.5-0.7-0.5h-1.4c-0.4,0-0.7,0.2-0.7,0.5C23.9,20.9,24.2,21.1,24.6,21.1L24.6,21.1z M24.3,18
	l1.2-0.7c0.3-0.2,0.5-0.6,0.3-0.8c-0.2-0.3-0.5-0.3-0.9-0.1L23.8,17c-0.3,0.2-0.5,0.6-0.3,0.8C23.6,18.1,24,18.2,24.3,18L24.3,18z
	 M22.2,15.5l0.7-1.2c0.2-0.3,0.1-0.7-0.1-0.9c-0.3-0.2-0.6,0-0.8,0.3l-0.7,1.2c-0.2,0.3-0.1,0.7,0.1,0.9S22.1,15.8,22.2,15.5
	L22.2,15.5z M19.2,14.3v-1.4c0-0.4-0.2-0.7-0.5-0.7c-0.3,0-0.5,0.3-0.5,0.7v1.4c0,0.4,0.2,0.7,0.5,0.7C18.9,15,19.2,14.7,19.2,14.3
	L19.2,14.3z M14.4,14.2l0.7,1.2c0.2,0.3,0.5,0.5,0.8,0.3c0.3-0.1,0.3-0.5,0.1-0.9l-0.7-1.2c-0.2-0.3-0.5-0.5-0.8-0.3
	C14.3,13.5,14.2,13.9,14.4,14.2L14.4,14.2z M11.9,17.2l1.2,0.7c0.3,0.2,0.7,0.1,0.9-0.1c0.1-0.3,0-0.6-0.3-0.8l-1.2-0.7
	c-0.3-0.2-0.7-0.1-0.9,0.1C11.4,16.7,11.5,17.1,11.9,17.2L11.9,17.2z M11.1,21.1h1.4c0.4,0,0.7-0.2,0.7-0.5c0-0.3-0.3-0.5-0.7-0.5
	h-1.4c-0.4,0-0.7,0.2-0.7,0.5C10.4,20.8,10.7,21.1,11.1,21.1L11.1,21.1z"/>
<g>
	<path class="st86" d="M13.9,590.1c0.4,0,0.8,0.1,1.1,0.3c0.3,0.2,0.6,0.5,0.7,0.8s0.3,0.8,0.3,1.3c0,0.6-0.1,1-0.3,1.4
		s-0.5,0.7-0.8,0.9c-0.4,0.2-0.8,0.3-1.3,0.3c-0.2,0-0.5,0-0.7-0.1c-0.2-0.1-0.4-0.1-0.6-0.2l0.3-0.7c0.1,0.1,0.3,0.2,0.4,0.2
		c0.2,0,0.3,0.1,0.5,0.1c0.5,0,0.8-0.1,1.1-0.4c0.3-0.3,0.4-0.7,0.4-1.3c0-0.1,0-0.2,0-0.3c0-0.1,0-0.2,0-0.4l0.3,0.3
		c-0.1,0.2-0.2,0.4-0.3,0.5s-0.3,0.2-0.5,0.3c-0.2,0.1-0.4,0.1-0.7,0.1c-0.3,0-0.6-0.1-0.9-0.2c-0.3-0.1-0.5-0.3-0.6-0.5
		s-0.2-0.5-0.2-0.8c0-0.3,0.1-0.6,0.2-0.8c0.2-0.2,0.4-0.4,0.6-0.5C13.2,590.1,13.5,590.1,13.9,590.1z M13.9,590.8
		c-0.2,0-0.4,0-0.5,0.1c-0.1,0.1-0.3,0.2-0.3,0.3c-0.1,0.1-0.1,0.3-0.1,0.4c0,0.3,0.1,0.5,0.3,0.6c0.2,0.1,0.4,0.2,0.7,0.2
		c0.2,0,0.4,0,0.5-0.1c0.1-0.1,0.3-0.2,0.4-0.3c0.1-0.1,0.1-0.3,0.1-0.4c0-0.2,0-0.3-0.1-0.4c-0.1-0.1-0.2-0.2-0.3-0.3
		C14.3,590.8,14.1,590.8,13.9,590.8z"/>
	<path class="st86" d="M18.6,595.1c-0.4,0-0.8-0.1-1.1-0.2s-0.5-0.3-0.7-0.5c-0.2-0.2-0.2-0.5-0.2-0.8s0.1-0.6,0.2-0.8
		c0.2-0.2,0.4-0.4,0.7-0.5s0.7-0.2,1.1-0.2c0.4,0,0.8,0.1,1.1,0.2s0.5,0.3,0.7,0.5c0.2,0.2,0.2,0.5,0.2,0.8c0,0.3-0.1,0.6-0.2,0.8
		c-0.2,0.2-0.4,0.4-0.7,0.5C19.3,595,19,595.1,18.6,595.1z M18.6,592.7c-0.4,0-0.7,0-1-0.2s-0.5-0.2-0.6-0.4
		c-0.1-0.2-0.2-0.4-0.2-0.7c0-0.3,0.1-0.5,0.2-0.7s0.4-0.4,0.6-0.5c0.3-0.1,0.6-0.2,1-0.2c0.4,0,0.7,0.1,1,0.2
		c0.3,0.1,0.5,0.3,0.6,0.5s0.2,0.4,0.2,0.7c0,0.3-0.1,0.5-0.2,0.7c-0.1,0.2-0.4,0.3-0.6,0.4S18.9,592.7,18.6,592.7z M18.6,594.4
		c0.3,0,0.6-0.1,0.8-0.2c0.2-0.1,0.3-0.3,0.3-0.6c0-0.2-0.1-0.4-0.3-0.6c-0.2-0.1-0.5-0.2-0.8-0.2s-0.6,0.1-0.8,0.2
		c-0.2,0.1-0.3,0.3-0.3,0.6c0,0.2,0.1,0.4,0.3,0.6C18,594.3,18.2,594.4,18.6,594.4z M18.6,592.2c0.3,0,0.5-0.1,0.7-0.2
		c0.2-0.1,0.3-0.3,0.3-0.5c0-0.2-0.1-0.4-0.3-0.5s-0.4-0.2-0.7-0.2c-0.3,0-0.5,0.1-0.7,0.2c-0.2,0.1-0.3,0.3-0.3,0.5
		c0,0.2,0.1,0.4,0.2,0.5C18,592.1,18.3,592.2,18.6,592.2z"/>
	<path class="st86" d="M23.1,595.1c-0.4,0-0.8-0.1-1.1-0.2s-0.5-0.3-0.7-0.5c-0.2-0.2-0.2-0.5-0.2-0.8s0.1-0.6,0.2-0.8
		c0.2-0.2,0.4-0.4,0.7-0.5s0.7-0.2,1.1-0.2c0.4,0,0.8,0.1,1.1,0.2s0.5,0.3,0.7,0.5c0.2,0.2,0.2,0.5,0.2,0.8c0,0.3-0.1,0.6-0.2,0.8
		c-0.2,0.2-0.4,0.4-0.7,0.5C23.9,595,23.5,595.1,23.1,595.1z M23.1,592.7c-0.4,0-0.7,0-1-0.2s-0.5-0.2-0.6-0.4
		c-0.1-0.2-0.2-0.4-0.2-0.7c0-0.3,0.1-0.5,0.2-0.7s0.4-0.4,0.6-0.5c0.3-0.1,0.6-0.2,1-0.2c0.4,0,0.7,0.1,1,0.2
		c0.3,0.1,0.5,0.3,0.6,0.5s0.2,0.4,0.2,0.7c0,0.3-0.1,0.5-0.2,0.7c-0.1,0.2-0.4,0.3-0.6,0.4S23.5,592.7,23.1,592.7z M23.1,594.4
		c0.3,0,0.6-0.1,0.8-0.2c0.2-0.1,0.3-0.3,0.3-0.6c0-0.2-0.1-0.4-0.3-0.6c-0.2-0.1-0.5-0.2-0.8-0.2s-0.6,0.1-0.8,0.2
		c-0.2,0.1-0.3,0.3-0.3,0.6c0,0.2,0.1,0.4,0.3,0.6C22.5,594.3,22.8,594.4,23.1,594.4z M23.1,592.2c0.3,0,0.5-0.1,0.7-0.2
		c0.2-0.1,0.3-0.3,0.3-0.5c0-0.2-0.1-0.4-0.3-0.5s-0.4-0.2-0.7-0.2c-0.3,0-0.5,0.1-0.7,0.2c-0.2,0.1-0.3,0.3-0.3,0.5
		c0,0.2,0.1,0.4,0.2,0.5C22.6,592.1,22.8,592.2,23.1,592.2z"/>
</g>
<g>
	<path class="st86" d="M14.1,551.7c0.4,0,0.8,0.1,1.1,0.3c0.3,0.2,0.6,0.5,0.7,0.8s0.3,0.8,0.3,1.3c0,0.6-0.1,1-0.3,1.4
		s-0.5,0.7-0.8,0.9c-0.4,0.2-0.8,0.3-1.3,0.3c-0.2,0-0.5,0-0.7-0.1c-0.2-0.1-0.4-0.1-0.6-0.2l0.3-0.7c0.1,0.1,0.3,0.2,0.4,0.2
		c0.2,0,0.3,0.1,0.5,0.1c0.5,0,0.8-0.1,1.1-0.4c0.3-0.3,0.4-0.7,0.4-1.3c0-0.1,0-0.2,0-0.3c0-0.1,0-0.2,0-0.4l0.3,0.3
		c-0.1,0.2-0.2,0.4-0.3,0.5s-0.3,0.2-0.5,0.3c-0.2,0.1-0.4,0.1-0.7,0.1c-0.3,0-0.6-0.1-0.9-0.2c-0.3-0.1-0.5-0.3-0.6-0.5
		s-0.2-0.5-0.2-0.8c0-0.3,0.1-0.6,0.2-0.8c0.2-0.2,0.4-0.4,0.6-0.5C13.5,551.8,13.8,551.7,14.1,551.7z M14.2,552.5
		c-0.2,0-0.4,0-0.5,0.1c-0.1,0.1-0.3,0.2-0.3,0.3c-0.1,0.1-0.1,0.3-0.1,0.4c0,0.3,0.1,0.5,0.3,0.6c0.2,0.1,0.4,0.2,0.7,0.2
		c0.2,0,0.4,0,0.5-0.1c0.1-0.1,0.3-0.2,0.4-0.3c0.1-0.1,0.1-0.3,0.1-0.4c0-0.2,0-0.3-0.1-0.4c-0.1-0.1-0.2-0.2-0.3-0.3
		C14.6,552.5,14.4,552.5,14.2,552.5z"/>
	<path class="st86" d="M18.5,551.7c0.4,0,0.8,0.1,1.1,0.3c0.3,0.2,0.6,0.5,0.7,0.8s0.3,0.8,0.3,1.3c0,0.6-0.1,1-0.3,1.4
		s-0.5,0.7-0.8,0.9c-0.4,0.2-0.8,0.3-1.3,0.3c-0.2,0-0.5,0-0.7-0.1c-0.2-0.1-0.4-0.1-0.6-0.2l0.3-0.7c0.1,0.1,0.3,0.2,0.4,0.2
		c0.2,0,0.3,0.1,0.5,0.1c0.5,0,0.8-0.1,1.1-0.4c0.3-0.3,0.4-0.7,0.4-1.3c0-0.1,0-0.2,0-0.3c0-0.1,0-0.2,0-0.4l0.3,0.3
		c-0.1,0.2-0.2,0.4-0.3,0.5s-0.3,0.2-0.5,0.3c-0.2,0.1-0.4,0.1-0.7,0.1c-0.3,0-0.6-0.1-0.9-0.2c-0.3-0.1-0.5-0.3-0.6-0.5
		s-0.2-0.5-0.2-0.8c0-0.3,0.1-0.6,0.2-0.8c0.2-0.2,0.4-0.4,0.6-0.5C17.9,551.8,18.2,551.7,18.5,551.7z M18.5,552.5
		c-0.2,0-0.4,0-0.5,0.1c-0.1,0.1-0.3,0.2-0.3,0.3c-0.1,0.1-0.1,0.3-0.1,0.4c0,0.3,0.1,0.5,0.3,0.6c0.2,0.1,0.4,0.2,0.7,0.2
		c0.2,0,0.4,0,0.5-0.1c0.1-0.1,0.3-0.2,0.4-0.3c0.1-0.1,0.1-0.3,0.1-0.4c0-0.2,0-0.3-0.1-0.4c-0.1-0.1-0.2-0.2-0.3-0.3
		C19,552.5,18.8,552.5,18.5,552.5z"/>
	<path class="st86" d="M21.2,556.7v-0.6l1.9-1.8c0.2-0.2,0.3-0.3,0.4-0.4c0.1-0.1,0.1-0.2,0.2-0.3c0-0.1,0-0.2,0-0.3
		c0-0.2-0.1-0.4-0.2-0.5c-0.2-0.1-0.4-0.2-0.7-0.2c-0.2,0-0.5,0-0.6,0.1s-0.4,0.2-0.5,0.4l-0.6-0.5c0.2-0.3,0.4-0.5,0.8-0.6
		s0.7-0.2,1.1-0.2c0.4,0,0.7,0.1,0.9,0.2s0.5,0.3,0.6,0.5c0.1,0.2,0.2,0.5,0.2,0.7c0,0.2,0,0.3-0.1,0.5s-0.1,0.3-0.2,0.5
		c-0.1,0.2-0.3,0.4-0.5,0.6l-1.7,1.6l-0.2-0.3h2.9v0.8H21.2z"/>
</g>
<g>
	<path class="st86" d="M14,516.9c0.4,0,0.8,0.1,1.1,0.3c0.3,0.2,0.6,0.5,0.7,0.8s0.3,0.8,0.3,1.3c0,0.6-0.1,1-0.3,1.4
		s-0.5,0.7-0.8,0.9c-0.4,0.2-0.8,0.3-1.3,0.3c-0.2,0-0.5,0-0.7-0.1c-0.2-0.1-0.4-0.1-0.6-0.2l0.3-0.7c0.1,0.1,0.3,0.2,0.4,0.2
		c0.2,0,0.3,0.1,0.5,0.1c0.5,0,0.8-0.1,1.1-0.4c0.3-0.3,0.4-0.7,0.4-1.3c0-0.1,0-0.2,0-0.3c0-0.1,0-0.2,0-0.4l0.3,0.3
		c-0.1,0.2-0.2,0.4-0.3,0.5s-0.3,0.2-0.5,0.3c-0.2,0.1-0.4,0.1-0.7,0.1c-0.3,0-0.6-0.1-0.9-0.2c-0.3-0.1-0.5-0.3-0.6-0.5
		s-0.2-0.5-0.2-0.8c0-0.3,0.1-0.6,0.2-0.8c0.2-0.2,0.4-0.4,0.6-0.5C13.4,517,13.7,516.9,14,516.9z M14.1,517.6c-0.2,0-0.4,0-0.5,0.1
		c-0.1,0.1-0.3,0.2-0.3,0.3c-0.1,0.1-0.1,0.3-0.1,0.4c0,0.3,0.1,0.5,0.3,0.6c0.2,0.1,0.4,0.2,0.7,0.2c0.2,0,0.4,0,0.5-0.1
		c0.1-0.1,0.3-0.2,0.4-0.3c0.1-0.1,0.1-0.3,0.1-0.4c0-0.2,0-0.3-0.1-0.4c-0.1-0.1-0.2-0.2-0.3-0.3C14.5,517.6,14.3,517.6,14.1,517.6
		z"/>
	<path class="st86" d="M18.4,516.9c0.4,0,0.8,0.1,1.1,0.3c0.3,0.2,0.6,0.5,0.7,0.8s0.3,0.8,0.3,1.3c0,0.6-0.1,1-0.3,1.4
		s-0.5,0.7-0.8,0.9c-0.4,0.2-0.8,0.3-1.3,0.3c-0.2,0-0.5,0-0.7-0.1c-0.2-0.1-0.4-0.1-0.6-0.2l0.3-0.7c0.1,0.1,0.3,0.2,0.4,0.2
		c0.2,0,0.3,0.1,0.5,0.1c0.5,0,0.8-0.1,1.1-0.4c0.3-0.3,0.4-0.7,0.4-1.3c0-0.1,0-0.2,0-0.3c0-0.1,0-0.2,0-0.4l0.3,0.3
		c-0.1,0.2-0.2,0.4-0.3,0.5s-0.3,0.2-0.5,0.3c-0.2,0.1-0.4,0.1-0.7,0.1c-0.3,0-0.6-0.1-0.9-0.2c-0.3-0.1-0.5-0.3-0.6-0.5
		s-0.2-0.5-0.2-0.8c0-0.3,0.1-0.6,0.2-0.8c0.2-0.2,0.4-0.4,0.6-0.5C17.8,517,18.1,516.9,18.4,516.9z M18.5,517.6
		c-0.2,0-0.4,0-0.5,0.1c-0.1,0.1-0.3,0.2-0.3,0.3c-0.1,0.1-0.1,0.3-0.1,0.4c0,0.3,0.1,0.5,0.3,0.6c0.2,0.1,0.4,0.2,0.7,0.2
		c0.2,0,0.4,0,0.5-0.1c0.1-0.1,0.3-0.2,0.4-0.3c0.1-0.1,0.1-0.3,0.1-0.4c0-0.2,0-0.3-0.1-0.4c-0.1-0.1-0.2-0.2-0.3-0.3
		C18.9,517.6,18.7,517.6,18.5,517.6z"/>
	<path class="st86" d="M23.3,521.9c-0.4,0-0.8-0.1-1.1-0.3c-0.3-0.2-0.6-0.5-0.7-0.8s-0.3-0.8-0.3-1.3c0-0.6,0.1-1,0.3-1.4
		s0.5-0.7,0.8-0.9c0.4-0.2,0.8-0.3,1.2-0.3c0.2,0,0.5,0,0.7,0.1c0.2,0.1,0.4,0.1,0.6,0.2l-0.3,0.7c-0.1-0.1-0.3-0.2-0.4-0.2
		c-0.2,0-0.3-0.1-0.5-0.1c-0.5,0-0.8,0.1-1.1,0.4c-0.3,0.3-0.4,0.7-0.4,1.3c0,0.1,0,0.2,0,0.3c0,0.1,0,0.2,0,0.4l-0.3-0.3
		c0.1-0.2,0.2-0.4,0.3-0.5c0.1-0.1,0.3-0.2,0.5-0.3c0.2-0.1,0.4-0.1,0.7-0.1c0.3,0,0.6,0.1,0.9,0.2c0.3,0.1,0.5,0.3,0.6,0.5
		s0.2,0.5,0.2,0.8c0,0.3-0.1,0.6-0.2,0.8c-0.2,0.2-0.4,0.4-0.6,0.6C23.9,521.9,23.6,521.9,23.3,521.9z M23.2,521.2
		c0.2,0,0.4,0,0.5-0.1c0.1-0.1,0.3-0.2,0.3-0.3c0.1-0.1,0.1-0.3,0.1-0.4c0-0.3-0.1-0.5-0.3-0.6c-0.2-0.1-0.4-0.2-0.7-0.2
		c-0.2,0-0.4,0-0.5,0.1c-0.1,0.1-0.3,0.2-0.4,0.3c-0.1,0.1-0.1,0.3-0.1,0.4c0,0.1,0,0.3,0.1,0.4c0.1,0.1,0.2,0.2,0.3,0.3
		C22.8,521.2,23,521.2,23.2,521.2z"/>
</g>
<g>
	<path class="st86" d="M11.3,484.9v-4.5l0.4,0.4h-1.4V480h1.9v4.9H11.3z"/>
	<path class="st86" d="M15.3,485c-0.4,0-0.7-0.1-1-0.3c-0.3-0.2-0.6-0.5-0.7-0.9c-0.2-0.4-0.3-0.8-0.3-1.4s0.1-1,0.3-1.4
		c0.2-0.4,0.4-0.7,0.7-0.9c0.3-0.2,0.7-0.3,1-0.3c0.4,0,0.7,0.1,1.1,0.3c0.3,0.2,0.6,0.5,0.7,0.9c0.2,0.4,0.3,0.8,0.3,1.4
		s-0.1,1-0.3,1.4c-0.2,0.4-0.4,0.7-0.7,0.9C16,484.9,15.7,485,15.3,485z M15.3,484.2c0.2,0,0.4-0.1,0.6-0.2c0.2-0.1,0.3-0.3,0.4-0.6
		c0.1-0.3,0.1-0.6,0.1-1c0-0.4,0-0.7-0.1-1c-0.1-0.3-0.2-0.4-0.4-0.6c-0.2-0.1-0.4-0.2-0.6-0.2c-0.2,0-0.4,0.1-0.6,0.2
		c-0.2,0.1-0.3,0.3-0.4,0.6c-0.1,0.3-0.1,0.6-0.1,1c0,0.4,0,0.7,0.1,1c0.1,0.3,0.2,0.4,0.4,0.6C14.9,484.1,15,484.2,15.3,484.2z"/>
	<path class="st86" d="M20,485c-0.4,0-0.7-0.1-1-0.3c-0.3-0.2-0.6-0.5-0.7-0.9c-0.2-0.4-0.3-0.8-0.3-1.4s0.1-1,0.3-1.4
		c0.2-0.4,0.4-0.7,0.7-0.9c0.3-0.2,0.7-0.3,1-0.3c0.4,0,0.7,0.1,1.1,0.3c0.3,0.2,0.6,0.5,0.7,0.9c0.2,0.4,0.3,0.8,0.3,1.4
		s-0.1,1-0.3,1.4c-0.2,0.4-0.4,0.7-0.7,0.9C20.7,484.9,20.4,485,20,485z M20,484.2c0.2,0,0.4-0.1,0.6-0.2c0.2-0.1,0.3-0.3,0.4-0.6
		c0.1-0.3,0.1-0.6,0.1-1c0-0.4,0-0.7-0.1-1c-0.1-0.3-0.2-0.4-0.4-0.6c-0.2-0.1-0.4-0.2-0.6-0.2c-0.2,0-0.4,0.1-0.6,0.2
		c-0.2,0.1-0.3,0.3-0.4,0.6c-0.1,0.3-0.1,0.6-0.1,1c0,0.4,0,0.7,0.1,1c0.1,0.3,0.2,0.4,0.4,0.6C19.6,484.1,19.8,484.2,20,484.2z"/>
	<path class="st86" d="M24.7,485c-0.4,0-0.7-0.1-1-0.3c-0.3-0.2-0.6-0.5-0.7-0.9c-0.2-0.4-0.3-0.8-0.3-1.4s0.1-1,0.3-1.4
		c0.2-0.4,0.4-0.7,0.7-0.9c0.3-0.2,0.7-0.3,1-0.3c0.4,0,0.7,0.1,1.1,0.3c0.3,0.2,0.6,0.5,0.7,0.9c0.2,0.4,0.3,0.8,0.3,1.4
		s-0.1,1-0.3,1.4c-0.2,0.4-0.4,0.7-0.7,0.9C25.4,484.9,25.1,485,24.7,485z M24.7,484.2c0.2,0,0.4-0.1,0.6-0.2
		c0.2-0.1,0.3-0.3,0.4-0.6c0.1-0.3,0.1-0.6,0.1-1c0-0.4,0-0.7-0.1-1c-0.1-0.3-0.2-0.4-0.4-0.6c-0.2-0.1-0.4-0.2-0.6-0.2
		c-0.2,0-0.4,0.1-0.6,0.2c-0.2,0.1-0.3,0.3-0.4,0.6c-0.1,0.3-0.1,0.6-0.1,1c0,0.4,0,0.7,0.1,1c0.1,0.3,0.2,0.4,0.4,0.6
		C24.3,484.1,24.5,484.2,24.7,484.2z"/>
</g>
<g>
	<path class="st87" d="M11.3,452.1v-4.5l0.4,0.4h-1.4v-0.8h1.9v4.9H11.3z"/>
	<path class="st87" d="M15.2,452.2c-0.4,0-0.7-0.1-1-0.3s-0.6-0.5-0.7-0.9c-0.2-0.4-0.3-0.8-0.3-1.4c0-0.5,0.1-1,0.3-1.4
		c0.2-0.4,0.4-0.7,0.7-0.9s0.7-0.3,1-0.3c0.4,0,0.7,0.1,1.1,0.3c0.3,0.2,0.6,0.5,0.7,0.9s0.3,0.8,0.3,1.4c0,0.5-0.1,1-0.3,1.4
		s-0.4,0.7-0.7,0.9C16,452.1,15.6,452.2,15.2,452.2z M15.2,451.4c0.2,0,0.4-0.1,0.6-0.2s0.3-0.3,0.4-0.6s0.1-0.6,0.1-1
		c0-0.4,0-0.7-0.1-1c-0.1-0.3-0.2-0.4-0.4-0.6s-0.4-0.2-0.6-0.2c-0.2,0-0.4,0.1-0.6,0.2c-0.2,0.1-0.3,0.3-0.4,0.6
		c-0.1,0.3-0.1,0.6-0.1,1c0,0.4,0,0.7,0.1,1s0.2,0.4,0.4,0.6C14.8,451.4,15,451.4,15.2,451.4z"/>
	<path class="st87" d="M19.9,452.2c-0.4,0-0.7-0.1-1-0.3s-0.6-0.5-0.7-0.9c-0.2-0.4-0.3-0.8-0.3-1.4c0-0.5,0.1-1,0.3-1.4
		c0.2-0.4,0.4-0.7,0.7-0.9s0.7-0.3,1-0.3c0.4,0,0.7,0.1,1.1,0.3c0.3,0.2,0.6,0.5,0.7,0.9s0.3,0.8,0.3,1.4c0,0.5-0.1,1-0.3,1.4
		s-0.4,0.7-0.7,0.9C20.7,452.1,20.3,452.2,19.9,452.2z M19.9,451.4c0.2,0,0.4-0.1,0.6-0.2s0.3-0.3,0.4-0.6s0.1-0.6,0.1-1
		c0-0.4,0-0.7-0.1-1c-0.1-0.3-0.2-0.4-0.4-0.6s-0.4-0.2-0.6-0.2c-0.2,0-0.4,0.1-0.6,0.2c-0.2,0.1-0.3,0.3-0.4,0.6
		c-0.1,0.3-0.1,0.6-0.1,1c0,0.4,0,0.7,0.1,1s0.2,0.4,0.4,0.6C19.5,451.4,19.7,451.4,19.9,451.4z"/>
	<path class="st87" d="M22.5,451v-0.6l2.4-3.2h1l-2.4,3.2l-0.5-0.1H27v0.8H22.5z M25.2,452.1V451l0-0.8v-1h0.9v2.9H25.2z"/>
</g>
<g>
	<path class="st87" d="M11.3,413.8v-4.5l0.4,0.4h-1.4v-0.8h1.9v4.9H11.3z"/>
	<path class="st87" d="M15.2,413.9c-0.4,0-0.7-0.1-1-0.3s-0.6-0.5-0.7-0.9c-0.2-0.4-0.3-0.8-0.3-1.4c0-0.5,0.1-1,0.3-1.4
		c0.2-0.4,0.4-0.7,0.7-0.9s0.7-0.3,1-0.3c0.4,0,0.7,0.1,1.1,0.3c0.3,0.2,0.6,0.5,0.7,0.9s0.3,0.8,0.3,1.4c0,0.5-0.1,1-0.3,1.4
		s-0.4,0.7-0.7,0.9C16,413.8,15.6,413.9,15.2,413.9z M15.2,413.1c0.2,0,0.4-0.1,0.6-0.2s0.3-0.3,0.4-0.6s0.1-0.6,0.1-1
		c0-0.4,0-0.7-0.1-1c-0.1-0.3-0.2-0.4-0.4-0.6s-0.4-0.2-0.6-0.2c-0.2,0-0.4,0.1-0.6,0.2c-0.2,0.1-0.3,0.3-0.4,0.6
		c-0.1,0.3-0.1,0.6-0.1,1c0,0.4,0,0.7,0.1,1s0.2,0.4,0.4,0.6C14.8,413,15,413.1,15.2,413.1z"/>
	<path class="st87" d="M19.9,413.9c-0.4,0-0.7-0.1-1-0.3s-0.6-0.5-0.7-0.9c-0.2-0.4-0.3-0.8-0.3-1.4c0-0.5,0.1-1,0.3-1.4
		c0.2-0.4,0.4-0.7,0.7-0.9s0.7-0.3,1-0.3c0.4,0,0.7,0.1,1.1,0.3c0.3,0.2,0.6,0.5,0.7,0.9s0.3,0.8,0.3,1.4c0,0.5-0.1,1-0.3,1.4
		s-0.4,0.7-0.7,0.9C20.7,413.8,20.3,413.9,19.9,413.9z M19.9,413.1c0.2,0,0.4-0.1,0.6-0.2s0.3-0.3,0.4-0.6s0.1-0.6,0.1-1
		c0-0.4,0-0.7-0.1-1c-0.1-0.3-0.2-0.4-0.4-0.6s-0.4-0.2-0.6-0.2c-0.2,0-0.4,0.1-0.6,0.2c-0.2,0.1-0.3,0.3-0.4,0.6
		c-0.1,0.3-0.1,0.6-0.1,1c0,0.4,0,0.7,0.1,1s0.2,0.4,0.4,0.6C19.5,413,19.7,413.1,19.9,413.1z"/>
	<path class="st87" d="M24.6,413.9c-0.4,0-0.8-0.1-1.1-0.2c-0.3-0.1-0.5-0.3-0.7-0.5c-0.2-0.2-0.2-0.5-0.2-0.8
		c0-0.3,0.1-0.5,0.2-0.8c0.2-0.2,0.4-0.4,0.7-0.5s0.7-0.2,1.1-0.2c0.4,0,0.8,0.1,1.1,0.2s0.5,0.3,0.7,0.5c0.2,0.2,0.2,0.5,0.2,0.8
		c0,0.3-0.1,0.6-0.2,0.8c-0.2,0.2-0.4,0.4-0.7,0.5C25.3,413.8,25,413.9,24.6,413.9z M24.6,411.5c-0.4,0-0.7-0.1-1-0.2
		c-0.3-0.1-0.5-0.2-0.6-0.4c-0.1-0.2-0.2-0.4-0.2-0.7c0-0.3,0.1-0.5,0.2-0.7s0.4-0.4,0.6-0.5s0.6-0.2,1-0.2c0.4,0,0.7,0.1,1,0.2
		s0.5,0.3,0.6,0.5s0.2,0.4,0.2,0.7c0,0.3-0.1,0.5-0.2,0.7c-0.1,0.2-0.4,0.3-0.6,0.4C25.3,411.5,25,411.5,24.6,411.5z M24.6,413.2
		c0.3,0,0.6-0.1,0.8-0.2c0.2-0.1,0.3-0.3,0.3-0.6c0-0.2-0.1-0.4-0.3-0.6c-0.2-0.1-0.5-0.2-0.8-0.2s-0.6,0.1-0.8,0.2
		s-0.3,0.3-0.3,0.6c0,0.2,0.1,0.4,0.3,0.6C24,413.1,24.2,413.2,24.6,413.2z M24.6,411c0.3,0,0.5-0.1,0.7-0.2
		c0.2-0.1,0.3-0.3,0.3-0.5c0-0.2-0.1-0.4-0.3-0.5c-0.2-0.1-0.4-0.2-0.7-0.2c-0.3,0-0.5,0.1-0.7,0.2c-0.2,0.1-0.3,0.3-0.3,0.5
		c0,0.2,0.1,0.4,0.2,0.5C24.1,410.9,24.3,411,24.6,411z"/>
</g>
<g>
	<path class="st87" d="M12.6,379v-4.5l0.4,0.4h-1.4v-0.8h1.9v4.9H12.6z"/>
	<path class="st87" d="M16.6,379c-0.4,0-0.7-0.1-1-0.3s-0.6-0.5-0.7-0.9c-0.2-0.4-0.3-0.8-0.3-1.4c0-0.5,0.1-1,0.3-1.4
		c0.2-0.4,0.4-0.7,0.7-0.9s0.7-0.3,1-0.3c0.4,0,0.7,0.1,1.1,0.3c0.3,0.2,0.6,0.5,0.7,0.9s0.3,0.8,0.3,1.4c0,0.5-0.1,1-0.3,1.4
		s-0.4,0.7-0.7,0.9C17.3,378.9,17,379,16.6,379z M16.6,378.2c0.2,0,0.4-0.1,0.6-0.2s0.3-0.3,0.4-0.6s0.1-0.6,0.1-1
		c0-0.4,0-0.7-0.1-1c-0.1-0.3-0.2-0.4-0.4-0.6s-0.4-0.2-0.6-0.2c-0.2,0-0.4,0.1-0.6,0.2c-0.2,0.1-0.3,0.3-0.4,0.6
		c-0.1,0.3-0.1,0.6-0.1,1c0,0.4,0,0.7,0.1,1s0.2,0.4,0.4,0.6C16.2,378.2,16.4,378.2,16.6,378.2z"/>
	<path class="st87" d="M20,379v-4.5l0.4,0.4H19v-0.8h1.9v4.9H20z"/>
	<path class="st87" d="M21.8,379v-0.6l1.9-1.8c0.2-0.2,0.3-0.3,0.4-0.4c0.1-0.1,0.1-0.2,0.2-0.3c0-0.1,0-0.2,0-0.3
		c0-0.2-0.1-0.4-0.2-0.5c-0.2-0.1-0.4-0.2-0.7-0.2c-0.2,0-0.5,0-0.6,0.1s-0.4,0.2-0.5,0.4l-0.6-0.5c0.2-0.3,0.4-0.5,0.8-0.6
		c0.3-0.1,0.7-0.2,1.1-0.2c0.4,0,0.7,0.1,0.9,0.2s0.5,0.3,0.6,0.5c0.1,0.2,0.2,0.5,0.2,0.7c0,0.2,0,0.3-0.1,0.5s-0.1,0.3-0.2,0.5
		c-0.1,0.2-0.3,0.4-0.5,0.6l-1.7,1.6l-0.2-0.3h2.9v0.8H21.8z"/>
</g>
<g>
	<path class="st87" d="M12.5,342v-4.5l0.4,0.4h-1.4v-0.8h1.9v4.9H12.5z"/>
	<path class="st87" d="M16.4,342.1c-0.4,0-0.7-0.1-1-0.3s-0.6-0.5-0.7-0.9c-0.2-0.4-0.3-0.8-0.3-1.4c0-0.5,0.1-1,0.3-1.4
		c0.2-0.4,0.4-0.7,0.7-0.9s0.7-0.3,1-0.3c0.4,0,0.7,0.1,1.1,0.3c0.3,0.2,0.6,0.5,0.7,0.9s0.3,0.8,0.3,1.4c0,0.5-0.1,1-0.3,1.4
		s-0.4,0.7-0.7,0.9C17.2,342,16.8,342.1,16.4,342.1z M16.4,341.3c0.2,0,0.4-0.1,0.6-0.2s0.3-0.3,0.4-0.6s0.1-0.6,0.1-1
		c0-0.4,0-0.7-0.1-1c-0.1-0.3-0.2-0.4-0.4-0.6s-0.4-0.2-0.6-0.2c-0.2,0-0.4,0.1-0.6,0.2c-0.2,0.1-0.3,0.3-0.4,0.6
		c-0.1,0.3-0.1,0.6-0.1,1c0,0.4,0,0.7,0.1,1s0.2,0.4,0.4,0.6C16,341.2,16.2,341.3,16.4,341.3z"/>
	<path class="st87" d="M19.9,342v-4.5l0.4,0.4h-1.4v-0.8h1.9v4.9H19.9z"/>
	<path class="st87" d="M23.9,342.1c-0.4,0-0.8-0.1-1.1-0.3c-0.3-0.2-0.6-0.5-0.7-0.8s-0.3-0.8-0.3-1.3c0-0.6,0.1-1,0.3-1.4
		c0.2-0.4,0.5-0.7,0.8-0.9c0.4-0.2,0.8-0.3,1.2-0.3c0.2,0,0.5,0,0.7,0.1c0.2,0.1,0.4,0.1,0.6,0.2l-0.3,0.7c-0.1-0.1-0.3-0.2-0.4-0.2
		s-0.3-0.1-0.5-0.1c-0.5,0-0.8,0.1-1.1,0.4c-0.3,0.3-0.4,0.7-0.4,1.3c0,0.1,0,0.2,0,0.3c0,0.1,0,0.2,0,0.4l-0.3-0.3
		c0.1-0.2,0.2-0.4,0.3-0.5c0.1-0.1,0.3-0.2,0.5-0.3c0.2-0.1,0.4-0.1,0.7-0.1c0.3,0,0.6,0.1,0.9,0.2c0.3,0.1,0.5,0.3,0.6,0.5
		s0.2,0.5,0.2,0.8c0,0.3-0.1,0.6-0.2,0.8c-0.2,0.2-0.4,0.4-0.6,0.6S24.2,342.1,23.9,342.1z M23.8,341.4c0.2,0,0.4,0,0.5-0.1
		s0.3-0.2,0.3-0.3c0.1-0.1,0.1-0.3,0.1-0.4c0-0.3-0.1-0.5-0.3-0.6c-0.2-0.1-0.4-0.2-0.7-0.2c-0.2,0-0.4,0-0.5,0.1
		c-0.1,0.1-0.3,0.2-0.4,0.3c-0.1,0.1-0.1,0.3-0.1,0.4c0,0.1,0,0.3,0.1,0.4c0.1,0.1,0.2,0.2,0.3,0.3
		C23.4,341.3,23.6,341.4,23.8,341.4z"/>
</g>
<g>
	<g>
		<path class="st87" d="M11.7,307v-4.5l0.4,0.4h-1.4v-0.8h1.9v4.9H11.7z"/>
		<path class="st87" d="M15.6,307.1c-0.4,0-0.7-0.1-1-0.3c-0.3-0.2-0.6-0.5-0.7-0.9c-0.2-0.4-0.3-0.8-0.3-1.4c0-0.5,0.1-1,0.3-1.4
			c0.2-0.4,0.4-0.7,0.7-0.9c0.3-0.2,0.7-0.3,1-0.3c0.4,0,0.7,0.1,1.1,0.3c0.3,0.2,0.6,0.5,0.7,0.9c0.2,0.4,0.3,0.8,0.3,1.4
			c0,0.5-0.1,1-0.3,1.4c-0.2,0.4-0.4,0.7-0.7,0.9C16.4,307,16,307.1,15.6,307.1z M15.6,306.3c0.2,0,0.4-0.1,0.6-0.2
			c0.2-0.1,0.3-0.3,0.4-0.6c0.1-0.3,0.1-0.6,0.1-1c0-0.4,0-0.7-0.1-1s-0.2-0.4-0.4-0.6c-0.2-0.1-0.4-0.2-0.6-0.2
			c-0.2,0-0.4,0.1-0.6,0.2c-0.2,0.1-0.3,0.3-0.4,0.6s-0.1,0.6-0.1,1c0,0.4,0,0.7,0.1,1c0.1,0.3,0.2,0.4,0.4,0.6
			C15.2,306.2,15.4,306.3,15.6,306.3z"/>
		<path class="st87" d="M18.2,307v-0.6l1.9-1.8c0.2-0.2,0.3-0.3,0.4-0.4c0.1-0.1,0.1-0.2,0.2-0.3c0-0.1,0-0.2,0-0.3
			c0-0.2-0.1-0.4-0.2-0.5c-0.2-0.1-0.4-0.2-0.7-0.2c-0.2,0-0.5,0-0.6,0.1s-0.4,0.2-0.5,0.4l-0.6-0.5c0.2-0.3,0.4-0.5,0.8-0.6
			c0.3-0.1,0.7-0.2,1.1-0.2c0.4,0,0.7,0.1,0.9,0.2s0.5,0.3,0.6,0.5c0.1,0.2,0.2,0.5,0.2,0.7c0,0.2,0,0.3-0.1,0.5s-0.1,0.3-0.2,0.5
			c-0.1,0.2-0.3,0.4-0.5,0.6l-1.7,1.6l-0.2-0.3h2.9v0.8H18.2z"/>
		<path class="st87" d="M24.4,307.1c-0.4,0-0.7-0.1-1-0.3c-0.3-0.2-0.6-0.5-0.7-0.9c-0.2-0.4-0.3-0.8-0.3-1.4c0-0.5,0.1-1,0.3-1.4
			c0.2-0.4,0.4-0.7,0.7-0.9c0.3-0.2,0.7-0.3,1-0.3c0.4,0,0.7,0.1,1.1,0.3c0.3,0.2,0.6,0.5,0.7,0.9c0.2,0.4,0.3,0.8,0.3,1.4
			c0,0.5-0.1,1-0.3,1.4c-0.2,0.4-0.4,0.7-0.7,0.9C25.1,307,24.8,307.1,24.4,307.1z M24.4,306.3c0.2,0,0.4-0.1,0.6-0.2
			c0.2-0.1,0.3-0.3,0.4-0.6c0.1-0.3,0.1-0.6,0.1-1c0-0.4,0-0.7-0.1-1s-0.2-0.4-0.4-0.6c-0.2-0.1-0.4-0.2-0.6-0.2
			c-0.2,0-0.4,0.1-0.6,0.2c-0.2,0.1-0.3,0.3-0.4,0.6s-0.1,0.6-0.1,1c0,0.4,0,0.7,0.1,1c0.1,0.3,0.2,0.4,0.4,0.6
			C24,306.2,24.2,306.3,24.4,306.3z"/>
	</g>
</g>
<g>
	<path class="st86" d="M10.3,271.2v-4.5l0.4,0.4H9.3v-0.8h1.9v4.9H10.3z"/>
	<path class="st86" d="M14.3,271.3c-0.4,0-0.7-0.1-1-0.3c-0.3-0.2-0.6-0.5-0.7-0.9c-0.2-0.4-0.3-0.8-0.3-1.4c0-0.5,0.1-1,0.3-1.4
		c0.2-0.4,0.4-0.7,0.7-0.9c0.3-0.2,0.7-0.3,1-0.3c0.4,0,0.7,0.1,1.1,0.3c0.3,0.2,0.6,0.5,0.7,0.9c0.2,0.4,0.3,0.8,0.3,1.4
		c0,0.5-0.1,1-0.3,1.4c-0.2,0.4-0.4,0.7-0.7,0.9C15,271.2,14.7,271.3,14.3,271.3z M14.3,270.5c0.2,0,0.4-0.1,0.6-0.2
		c0.2-0.1,0.3-0.3,0.4-0.6c0.1-0.3,0.1-0.6,0.1-1c0-0.4,0-0.7-0.1-1s-0.2-0.4-0.4-0.6c-0.2-0.1-0.4-0.2-0.6-0.2
		c-0.2,0-0.4,0.1-0.6,0.2c-0.2,0.1-0.3,0.3-0.4,0.6s-0.1,0.6-0.1,1c0,0.4,0,0.7,0.1,1c0.1,0.3,0.2,0.4,0.4,0.6
		C13.9,270.4,14,270.5,14.3,270.5z"/>
	<path class="st86" d="M16.9,271.2v-0.6l1.9-1.8c0.2-0.2,0.3-0.3,0.4-0.4c0.1-0.1,0.1-0.2,0.2-0.3c0-0.1,0-0.2,0-0.3
		c0-0.2-0.1-0.4-0.2-0.5c-0.2-0.1-0.4-0.2-0.7-0.2c-0.2,0-0.5,0-0.6,0.1s-0.4,0.2-0.5,0.4l-0.6-0.5c0.2-0.3,0.4-0.5,0.8-0.6
		c0.3-0.1,0.7-0.2,1.1-0.2c0.4,0,0.7,0.1,0.9,0.2s0.5,0.3,0.6,0.5c0.1,0.2,0.2,0.5,0.2,0.7c0,0.2,0,0.3-0.1,0.5s-0.1,0.3-0.2,0.5
		c-0.1,0.2-0.3,0.4-0.5,0.6l-1.7,1.6l-0.2-0.3h2.9v0.8H16.9z"/>
	<path class="st86" d="M20.8,270.1v-0.6l2.4-3.2h1l-2.4,3.2l-0.5-0.1h3.9v0.8H20.8z M23.5,271.2v-1.1l0-0.8v-1h0.9v2.9H23.5z"/>
</g>
<g>
	<path class="st86" d="M11.4,237.1v-4.5l0.4,0.4h-1.4v-0.8h1.9v4.9H11.4z"/>
	<path class="st86" d="M15.3,237.1c-0.4,0-0.7-0.1-1-0.3c-0.3-0.2-0.6-0.5-0.7-0.9c-0.2-0.4-0.3-0.8-0.3-1.4c0-0.5,0.1-1,0.3-1.4
		c0.2-0.4,0.4-0.7,0.7-0.9c0.3-0.2,0.7-0.3,1-0.3c0.4,0,0.7,0.1,1.1,0.3c0.3,0.2,0.6,0.5,0.7,0.9c0.2,0.4,0.3,0.8,0.3,1.4
		c0,0.5-0.1,1-0.3,1.4c-0.2,0.4-0.4,0.7-0.7,0.9C16,237,15.7,237.1,15.3,237.1z M15.3,236.4c0.2,0,0.4-0.1,0.6-0.2
		c0.2-0.1,0.3-0.3,0.4-0.6c0.1-0.3,0.1-0.6,0.1-1c0-0.4,0-0.7-0.1-1s-0.2-0.4-0.4-0.6c-0.2-0.1-0.4-0.2-0.6-0.2
		c-0.2,0-0.4,0.1-0.6,0.2c-0.2,0.1-0.3,0.3-0.4,0.6s-0.1,0.6-0.1,1c0,0.4,0,0.7,0.1,1c0.1,0.3,0.2,0.4,0.4,0.6
		C14.9,236.3,15.1,236.4,15.3,236.4z"/>
	<path class="st86" d="M17.9,237.1v-0.6l1.9-1.8c0.2-0.2,0.3-0.3,0.4-0.4c0.1-0.1,0.1-0.2,0.2-0.3c0-0.1,0-0.2,0-0.3
		c0-0.2-0.1-0.4-0.2-0.5c-0.2-0.1-0.4-0.2-0.7-0.2c-0.2,0-0.5,0-0.6,0.1s-0.4,0.2-0.5,0.4l-0.6-0.5c0.2-0.3,0.4-0.5,0.8-0.6
		c0.3-0.1,0.7-0.2,1.1-0.2c0.4,0,0.7,0.1,0.9,0.2s0.5,0.3,0.6,0.5c0.1,0.2,0.2,0.5,0.2,0.7c0,0.2,0,0.3-0.1,0.5s-0.1,0.3-0.2,0.5
		c-0.1,0.2-0.3,0.4-0.5,0.6l-1.7,1.6l-0.2-0.3h2.9v0.8H17.9z"/>
	<path class="st86" d="M24,237.1c-0.4,0-0.8-0.1-1.1-0.2c-0.3-0.1-0.5-0.3-0.7-0.5c-0.2-0.2-0.2-0.5-0.2-0.8c0-0.3,0.1-0.6,0.2-0.8
		c0.2-0.2,0.4-0.4,0.7-0.5s0.7-0.2,1.1-0.2c0.4,0,0.8,0.1,1.1,0.2s0.5,0.3,0.7,0.5c0.2,0.2,0.2,0.5,0.2,0.8c0,0.3-0.1,0.6-0.2,0.8
		c-0.2,0.2-0.4,0.4-0.7,0.5C24.7,237.1,24.4,237.1,24,237.1z M24,234.8c-0.4,0-0.7-0.1-1-0.2c-0.3-0.1-0.5-0.2-0.6-0.4
		c-0.1-0.2-0.2-0.4-0.2-0.7c0-0.3,0.1-0.5,0.2-0.7s0.4-0.4,0.6-0.5c0.3-0.1,0.6-0.2,1-0.2c0.4,0,0.7,0.1,1,0.2
		c0.3,0.1,0.5,0.3,0.6,0.5s0.2,0.4,0.2,0.7c0,0.3-0.1,0.5-0.2,0.7c-0.1,0.2-0.4,0.3-0.6,0.4C24.7,234.7,24.4,234.8,24,234.8z
		 M24,236.4c0.3,0,0.6-0.1,0.8-0.2c0.2-0.1,0.3-0.3,0.3-0.6c0-0.2-0.1-0.4-0.3-0.6c-0.2-0.1-0.5-0.2-0.8-0.2s-0.6,0.1-0.8,0.2
		c-0.2,0.1-0.3,0.3-0.3,0.6c0,0.2,0.1,0.4,0.3,0.6S23.6,236.4,24,236.4z M24,234.2c0.3,0,0.5-0.1,0.7-0.2s0.3-0.3,0.3-0.5
		c0-0.2-0.1-0.4-0.3-0.5c-0.2-0.1-0.4-0.2-0.7-0.2c-0.3,0-0.5,0.1-0.7,0.2c-0.2,0.1-0.3,0.3-0.3,0.5c0,0.2,0.1,0.4,0.2,0.5
		C23.5,234.1,23.7,234.2,24,234.2z"/>
</g>
<g>
	<path class="st86" d="M12.4,199.4v-4.5l0.4,0.4h-1.4v-0.8h1.9v4.9H12.4z"/>
	<path class="st86" d="M16.4,199.4c-0.4,0-0.7-0.1-1-0.3c-0.3-0.2-0.6-0.5-0.7-0.9c-0.2-0.4-0.3-0.8-0.3-1.4c0-0.5,0.1-1,0.3-1.4
		c0.2-0.4,0.4-0.7,0.7-0.9c0.3-0.2,0.7-0.3,1-0.3c0.4,0,0.7,0.1,1.1,0.3c0.3,0.2,0.6,0.5,0.7,0.9c0.2,0.4,0.3,0.8,0.3,1.4
		c0,0.5-0.1,1-0.3,1.4c-0.2,0.4-0.4,0.7-0.7,0.9C17.1,199.3,16.8,199.4,16.4,199.4z M16.4,198.6c0.2,0,0.4-0.1,0.6-0.2
		c0.2-0.1,0.3-0.3,0.4-0.6c0.1-0.3,0.1-0.6,0.1-1c0-0.4,0-0.7-0.1-1s-0.2-0.4-0.4-0.6c-0.2-0.1-0.4-0.2-0.6-0.2
		c-0.2,0-0.4,0.1-0.6,0.2c-0.2,0.1-0.3,0.3-0.4,0.6s-0.1,0.6-0.1,1c0,0.4,0,0.7,0.1,1c0.1,0.3,0.2,0.4,0.4,0.6
		C16,198.6,16.2,198.6,16.4,198.6z"/>
	<path class="st86" d="M20.5,199.4c-0.3,0-0.7,0-1-0.2c-0.3-0.1-0.6-0.2-0.8-0.4l0.4-0.7c0.2,0.1,0.4,0.3,0.6,0.4
		c0.3,0.1,0.5,0.1,0.8,0.1c0.3,0,0.6-0.1,0.8-0.2c0.2-0.1,0.3-0.3,0.3-0.5c0-0.2-0.1-0.4-0.3-0.5c-0.2-0.1-0.4-0.2-0.8-0.2H20v-0.6
		l1.4-1.7l0.1,0.3h-2.6v-0.8h3.3v0.6l-1.4,1.7l-0.5-0.3h0.3c0.6,0,1.1,0.1,1.4,0.4c0.3,0.3,0.5,0.6,0.5,1c0,0.3-0.1,0.5-0.2,0.8
		c-0.1,0.2-0.4,0.4-0.6,0.6C21.3,199.4,20.9,199.4,20.5,199.4z"/>
	<path class="st86" d="M22.9,199.4v-0.6l1.9-1.8c0.2-0.2,0.3-0.3,0.4-0.4c0.1-0.1,0.1-0.2,0.2-0.3c0-0.1,0-0.2,0-0.3
		c0-0.2-0.1-0.4-0.2-0.5c-0.2-0.1-0.4-0.2-0.7-0.2c-0.2,0-0.5,0-0.6,0.1s-0.4,0.2-0.5,0.4l-0.6-0.5c0.2-0.3,0.4-0.5,0.8-0.6
		c0.3-0.1,0.7-0.2,1.1-0.2c0.4,0,0.7,0.1,0.9,0.2s0.5,0.3,0.6,0.5c0.1,0.2,0.2,0.5,0.2,0.7c0,0.2,0,0.3-0.1,0.5s-0.1,0.3-0.2,0.5
		c-0.1,0.2-0.3,0.4-0.5,0.6l-1.7,1.6l-0.2-0.3h2.9v0.8H22.9z"/>
</g>
<g>
	<g>
		<path class="st86" d="M11.9,167.2v-4.5l0.4,0.4h-1.4v-0.8h1.9v4.9H11.9z"/>
		<path class="st86" d="M15.9,167.2c-0.4,0-0.7-0.1-1-0.3c-0.3-0.2-0.6-0.5-0.7-0.9c-0.2-0.4-0.3-0.8-0.3-1.4c0-0.5,0.1-1,0.3-1.4
			c0.2-0.4,0.4-0.7,0.7-0.9c0.3-0.2,0.7-0.3,1-0.3c0.4,0,0.7,0.1,1.1,0.3c0.3,0.2,0.6,0.5,0.7,0.9c0.2,0.4,0.3,0.8,0.3,1.4
			c0,0.5-0.1,1-0.3,1.4c-0.2,0.4-0.4,0.7-0.7,0.9C16.6,167.1,16.3,167.2,15.9,167.2z M15.9,166.4c0.2,0,0.4-0.1,0.6-0.2
			c0.2-0.1,0.3-0.3,0.4-0.6c0.1-0.3,0.1-0.6,0.1-1c0-0.4,0-0.7-0.1-1s-0.2-0.4-0.4-0.6c-0.2-0.1-0.4-0.2-0.6-0.2
			c-0.2,0-0.4,0.1-0.6,0.2c-0.2,0.1-0.3,0.3-0.4,0.6s-0.1,0.6-0.1,1c0,0.4,0,0.7,0.1,1c0.1,0.3,0.2,0.4,0.4,0.6
			C15.4,166.4,15.6,166.4,15.9,166.4z"/>
		<path class="st86" d="M20,167.2c-0.3,0-0.7,0-1-0.2c-0.3-0.1-0.6-0.2-0.8-0.4l0.4-0.7c0.2,0.1,0.4,0.3,0.6,0.4
			c0.3,0.1,0.5,0.1,0.8,0.1c0.3,0,0.6-0.1,0.8-0.2c0.2-0.1,0.3-0.3,0.3-0.5c0-0.2-0.1-0.4-0.3-0.5c-0.2-0.1-0.4-0.2-0.8-0.2h-0.4
			v-0.6l1.4-1.7L21,163h-2.6v-0.8h3.3v0.6l-1.4,1.7l-0.5-0.3h0.3c0.6,0,1.1,0.1,1.4,0.4c0.3,0.3,0.5,0.6,0.5,1
			c0,0.3-0.1,0.5-0.2,0.8c-0.1,0.2-0.4,0.4-0.6,0.6C20.8,167.2,20.4,167.2,20,167.2z"/>
		<path class="st86" d="M24.7,167.2c-0.4,0-0.8-0.1-1.1-0.3s-0.6-0.5-0.7-0.8s-0.3-0.8-0.3-1.3c0-0.6,0.1-1,0.3-1.4
			c0.2-0.4,0.5-0.7,0.8-0.9c0.4-0.2,0.8-0.3,1.2-0.3c0.2,0,0.5,0,0.7,0.1c0.2,0.1,0.4,0.1,0.6,0.2l-0.3,0.7
			c-0.1-0.1-0.3-0.2-0.4-0.2c-0.2,0-0.3-0.1-0.5-0.1c-0.5,0-0.8,0.1-1.1,0.4s-0.4,0.7-0.4,1.3c0,0.1,0,0.2,0,0.3c0,0.1,0,0.2,0,0.4
			l-0.3-0.3c0.1-0.2,0.2-0.4,0.3-0.5c0.1-0.1,0.3-0.2,0.5-0.3c0.2-0.1,0.4-0.1,0.7-0.1c0.3,0,0.6,0.1,0.9,0.2
			c0.3,0.1,0.5,0.3,0.6,0.5s0.2,0.5,0.2,0.8c0,0.3-0.1,0.6-0.2,0.8c-0.2,0.2-0.4,0.4-0.6,0.6C25.3,167.2,25,167.2,24.7,167.2z
			 M24.6,166.5c0.2,0,0.4,0,0.5-0.1c0.1-0.1,0.3-0.2,0.3-0.3c0.1-0.1,0.1-0.3,0.1-0.4c0-0.3-0.1-0.5-0.3-0.6
			c-0.2-0.1-0.4-0.2-0.7-0.2c-0.2,0-0.4,0-0.5,0.1c-0.1,0.1-0.3,0.2-0.4,0.3c-0.1,0.1-0.1,0.3-0.1,0.4c0,0.1,0,0.3,0.1,0.4
			c0.1,0.1,0.2,0.2,0.3,0.3C24.2,166.5,24.4,166.5,24.6,166.5z"/>
	</g>
</g>
<g>
	<path class="st86" d="M11.2,131.1v-4.5l0.4,0.4h-1.4v-0.8h1.9v4.9H11.2z"/>
	<path class="st86" d="M15.2,131.1c-0.4,0-0.7-0.1-1-0.3c-0.3-0.2-0.6-0.5-0.7-0.9c-0.2-0.4-0.3-0.8-0.3-1.4c0-0.5,0.1-1,0.3-1.4
		c0.2-0.4,0.4-0.7,0.7-0.9c0.3-0.2,0.7-0.3,1-0.3c0.4,0,0.7,0.1,1.1,0.3c0.3,0.2,0.6,0.5,0.7,0.9c0.2,0.4,0.3,0.8,0.3,1.4
		c0,0.5-0.1,1-0.3,1.4c-0.2,0.4-0.4,0.7-0.7,0.9C15.9,131,15.6,131.1,15.2,131.1z M15.2,130.4c0.2,0,0.4-0.1,0.6-0.2
		c0.2-0.1,0.3-0.3,0.4-0.6c0.1-0.3,0.1-0.6,0.1-1c0-0.4,0-0.7-0.1-1s-0.2-0.4-0.4-0.6c-0.2-0.1-0.4-0.2-0.6-0.2
		c-0.2,0-0.4,0.1-0.6,0.2c-0.2,0.1-0.3,0.3-0.4,0.6s-0.1,0.6-0.1,1c0,0.4,0,0.7,0.1,1c0.1,0.3,0.2,0.4,0.4,0.6
		C14.8,130.3,14.9,130.4,15.2,130.4z"/>
	<path class="st86" d="M17.8,130v-0.6l2.4-3.2h1l-2.4,3.2l-0.5-0.1h3.9v0.8H17.8z M20.4,131.1V130l0-0.8v-1h0.9v2.9H20.4z"/>
	<path class="st86" d="M24.6,131.1c-0.4,0-0.7-0.1-1-0.3c-0.3-0.2-0.6-0.5-0.7-0.9c-0.2-0.4-0.3-0.8-0.3-1.4c0-0.5,0.1-1,0.3-1.4
		c0.2-0.4,0.4-0.7,0.7-0.9c0.3-0.2,0.7-0.3,1-0.3c0.4,0,0.7,0.1,1.1,0.3c0.3,0.2,0.6,0.5,0.7,0.9c0.2,0.4,0.3,0.8,0.3,1.4
		c0,0.5-0.1,1-0.3,1.4c-0.2,0.4-0.4,0.7-0.7,0.9C25.4,131,25,131.1,24.6,131.1z M24.6,130.4c0.2,0,0.4-0.1,0.6-0.2
		c0.2-0.1,0.3-0.3,0.4-0.6c0.1-0.3,0.1-0.6,0.1-1c0-0.4,0-0.7-0.1-1s-0.2-0.4-0.4-0.6c-0.2-0.1-0.4-0.2-0.6-0.2
		c-0.2,0-0.4,0.1-0.6,0.2c-0.2,0.1-0.3,0.3-0.4,0.6s-0.1,0.6-0.1,1c0,0.4,0,0.7,0.1,1c0.1,0.3,0.2,0.4,0.4,0.6
		C24.2,130.3,24.4,130.4,24.6,130.4z"/>
</g>
<g>
	<path class="st86" d="M10.8,95.9v-4.5l0.4,0.4H9.7V91h1.9v4.9H10.8z"/>
	<path class="st86" d="M14.7,95.9c-0.4,0-0.7-0.1-1-0.3c-0.3-0.2-0.6-0.5-0.7-0.9c-0.2-0.4-0.3-0.8-0.3-1.4c0-0.5,0.1-1,0.3-1.4
		c0.2-0.4,0.4-0.7,0.7-0.9c0.3-0.2,0.7-0.3,1-0.3c0.4,0,0.7,0.1,1.1,0.3c0.3,0.2,0.6,0.5,0.7,0.9c0.2,0.4,0.3,0.8,0.3,1.4
		c0,0.5-0.1,1-0.3,1.4c-0.2,0.4-0.4,0.7-0.7,0.9C15.4,95.8,15.1,95.9,14.7,95.9z M14.7,95.1c0.2,0,0.4-0.1,0.6-0.2
		c0.2-0.1,0.3-0.3,0.4-0.6c0.1-0.3,0.1-0.6,0.1-1c0-0.4,0-0.7-0.1-1s-0.2-0.4-0.4-0.6c-0.2-0.1-0.4-0.2-0.6-0.2
		c-0.2,0-0.4,0.1-0.6,0.2c-0.2,0.1-0.3,0.3-0.4,0.6s-0.1,0.6-0.1,1c0,0.4,0,0.7,0.1,1c0.1,0.3,0.2,0.4,0.4,0.6
		C14.3,95.1,14.5,95.1,14.7,95.1z"/>
	<path class="st86" d="M17.3,94.8v-0.6l2.4-3.2h1l-2.4,3.2L17.8,94h3.9v0.8H17.3z M20,95.9v-1.1l0-0.8v-1h0.9v2.9H20z"/>
	<path class="st86" d="M22,94.8v-0.6l2.4-3.2h1L23,94.1L22.6,94h3.9v0.8H22z M24.7,95.9v-1.1l0-0.8v-1h0.9v2.9H24.7z"/>
</g>
<g>
	<path class="st86" d="M11.9,60.6v-4.5l0.4,0.4h-1.4v-0.8h1.9v4.9H11.9z"/>
	<path class="st86" d="M15.8,60.7c-0.4,0-0.7-0.1-1-0.3c-0.3-0.2-0.6-0.5-0.7-0.9c-0.2-0.4-0.3-0.8-0.3-1.4c0-0.5,0.1-1,0.3-1.4
		c0.2-0.4,0.4-0.7,0.7-0.9c0.3-0.2,0.7-0.3,1-0.3c0.4,0,0.7,0.1,1.1,0.3c0.3,0.2,0.6,0.5,0.7,0.9c0.2,0.4,0.3,0.8,0.3,1.4
		c0,0.5-0.1,1-0.3,1.4c-0.2,0.4-0.4,0.7-0.7,0.9C16.6,60.6,16.2,60.7,15.8,60.7z M15.8,59.9c0.2,0,0.4-0.1,0.6-0.2
		c0.2-0.1,0.3-0.3,0.4-0.6c0.1-0.3,0.1-0.6,0.1-1c0-0.4,0-0.7-0.1-1s-0.2-0.4-0.4-0.6c-0.2-0.1-0.4-0.2-0.6-0.2
		c-0.2,0-0.4,0.1-0.6,0.2c-0.2,0.1-0.3,0.3-0.4,0.6s-0.1,0.6-0.1,1c0,0.4,0,0.7,0.1,1c0.1,0.3,0.2,0.4,0.4,0.6
		C15.4,59.8,15.6,59.9,15.8,59.9z"/>
	<path class="st86" d="M18.4,59.5v-0.6l2.4-3.2h1l-2.4,3.2L19,58.7h3.9v0.8H18.4z M21.1,60.6v-1.1l0-0.8v-1H22v2.9H21.1z"/>
	<path class="st86" d="M25.3,60.7c-0.4,0-0.8-0.1-1.1-0.2c-0.3-0.1-0.5-0.3-0.7-0.5c-0.2-0.2-0.2-0.5-0.2-0.8c0-0.3,0.1-0.6,0.2-0.8
		c0.2-0.2,0.4-0.4,0.7-0.5s0.7-0.2,1.1-0.2c0.4,0,0.8,0.1,1.1,0.2s0.5,0.3,0.7,0.5c0.2,0.2,0.2,0.5,0.2,0.8c0,0.3-0.1,0.6-0.2,0.8
		c-0.2,0.2-0.4,0.4-0.7,0.5C26,60.6,25.7,60.7,25.3,60.7z M25.3,58.3c-0.4,0-0.7-0.1-1-0.2c-0.3-0.1-0.5-0.2-0.6-0.4
		c-0.1-0.2-0.2-0.4-0.2-0.7c0-0.3,0.1-0.5,0.2-0.7s0.4-0.4,0.6-0.5c0.3-0.1,0.6-0.2,1-0.2c0.4,0,0.7,0.1,1,0.2
		c0.3,0.1,0.5,0.3,0.6,0.5s0.2,0.4,0.2,0.7c0,0.3-0.1,0.5-0.2,0.7c-0.1,0.2-0.4,0.3-0.6,0.4C26,58.2,25.7,58.3,25.3,58.3z M25.3,60
		c0.3,0,0.6-0.1,0.8-0.2c0.2-0.1,0.3-0.3,0.3-0.6c0-0.2-0.1-0.4-0.3-0.6c-0.2-0.1-0.5-0.2-0.8-0.2s-0.6,0.1-0.8,0.2
		c-0.2,0.1-0.3,0.3-0.3,0.6c0,0.2,0.1,0.4,0.3,0.6S24.9,60,25.3,60z M25.3,57.7c0.3,0,0.5-0.1,0.7-0.2s0.3-0.3,0.3-0.5
		c0-0.2-0.1-0.4-0.3-0.5c-0.2-0.1-0.4-0.2-0.7-0.2c-0.3,0-0.5,0.1-0.7,0.2c-0.2,0.1-0.3,0.3-0.3,0.5c0,0.2,0.1,0.4,0.2,0.5
		C24.8,57.7,25,57.7,25.3,57.7z"/>
</g>
<g>
	<path class="st86" d="M13.9,622.9c0.3,0,0.6,0.1,0.9,0.2c0.3,0.1,0.5,0.3,0.6,0.6c0.2,0.3,0.2,0.6,0.2,1.1v2.4h-1v-2.3
		c0-0.4-0.1-0.7-0.3-0.8s-0.4-0.3-0.7-0.3c-0.2,0-0.4,0-0.6,0.1c-0.2,0.1-0.3,0.2-0.4,0.4s-0.1,0.4-0.1,0.7v2.2h-1v-5.9h1v2.8
		l-0.2-0.4c0.1-0.3,0.4-0.5,0.7-0.6S13.5,622.9,13.9,622.9z"/>
	<path class="st86" d="M17,627.3v-5.6h2.3c0.5,0,0.9,0.1,1.3,0.2c0.4,0.2,0.6,0.4,0.8,0.7c0.2,0.3,0.3,0.7,0.3,1.1
		c0,0.4-0.1,0.8-0.3,1.1c-0.2,0.3-0.5,0.5-0.8,0.7s-0.8,0.2-1.3,0.2h-1.7l0.5-0.5v2.1H17z M18.1,625.3l-0.5-0.5h1.7
		c0.5,0,0.8-0.1,1-0.3c0.2-0.2,0.3-0.5,0.3-0.8c0-0.4-0.1-0.6-0.3-0.8c-0.2-0.2-0.6-0.3-1-0.3h-1.7l0.5-0.5V625.3z"/>
	<path class="st86" d="M23.9,627.3c-0.3,0-0.6-0.1-0.8-0.2c-0.2-0.1-0.4-0.3-0.6-0.5c-0.1-0.2-0.2-0.4-0.2-0.7
		c0-0.2,0.1-0.5,0.2-0.6c0.1-0.2,0.3-0.3,0.6-0.5c0.3-0.1,0.6-0.2,1-0.2h1.2v0.7h-1.2c-0.3,0-0.6,0.1-0.7,0.2s-0.2,0.2-0.2,0.4
		c0,0.2,0.1,0.3,0.2,0.4c0.1,0.1,0.3,0.2,0.6,0.2c0.2,0,0.5-0.1,0.7-0.2c0.2-0.1,0.3-0.3,0.4-0.5l0.2,0.6c-0.1,0.2-0.3,0.4-0.5,0.6
		S24.3,627.3,23.9,627.3z M25.2,627.3v-0.9l-0.1-0.2v-1.5c0-0.3-0.1-0.5-0.3-0.7c-0.2-0.2-0.4-0.2-0.8-0.2c-0.2,0-0.5,0-0.7,0.1
		c-0.2,0.1-0.4,0.2-0.6,0.3l-0.4-0.7c0.2-0.2,0.5-0.3,0.8-0.4s0.6-0.1,1-0.1c0.6,0,1.1,0.1,1.4,0.4s0.5,0.8,0.5,1.4v2.5H25.2z"/>
</g>
</svg>
