<?xml version="1.0" encoding="utf-8"?>
<!-- Generator: Adobe Illustrator 16.0.0, SVG Export Plug-In . SVG Version: 6.00 Build 0)  -->
<!DOCTYPE svg PUBLIC "-//W3C//DTD SVG 1.1//EN" "http://www.w3.org/Graphics/SVG/1.1/DTD/svg11.dtd">
<svg version="1.1" id="Livello_1" xmlns="http://www.w3.org/2000/svg" xmlns:xlink="http://www.w3.org/1999/xlink" x="0px" y="0px"
	 width="0px" height="590px" viewBox="31.495 0 1.251 590.697" enable-background="new 31.495 0 1.251 590.697"
	 xml:space="preserve">
<g display="none">
	<g display="inline">
		<g>
			<g>
				<defs>
					<path id="SVGID_1_" d="M27.262,580.714c-0.316,3.428-5.673,7.51-10.308,7.51l0,0c-4.594,0.367-10.877-3.314-10.877-7.51V42.467
						c1.021-4.94,6.492-7.798,10.182-7.792l0,0c4.298-0.006,9.896,2.929,11.003,7.984V580.714L27.262,580.714z"/>
				</defs>
				<clipPath id="SVGID_2_">
					<use xlink:href="#SVGID_1_"  overflow="visible"/>
				</clipPath>
				<rect x="0.88" y="495.265" clip-path="url(#SVGID_2_)" fill="#FAFDF9" width="31.578" height="99.045"/>
			</g>
		</g>
		<g>
			<g>
				<defs>
					<path id="SVGID_3_" d="M27.262,580.714c-0.316,3.428-5.673,7.51-10.308,7.51l0,0c-4.594,0.367-10.877-3.314-10.877-7.51V42.467
						c1.021-4.94,6.492-7.798,10.182-7.792l0,0c4.298-0.006,9.896,2.929,11.003,7.984V580.714L27.262,580.714z"/>
				</defs>
				<clipPath id="SVGID_4_">
					<use xlink:href="#SVGID_3_"  overflow="visible"/>
				</clipPath>
				<rect x="1.196" y="315.187" clip-path="url(#SVGID_4_)" fill="#D6EED4" width="31.578" height="90.041"/>
			</g>
		</g>
		<g>
			<g>
				<defs>
					<path id="SVGID_5_" d="M27.262,580.714c-0.316,3.428-5.673,7.51-10.308,7.51l0,0c-4.594,0.367-10.877-3.314-10.877-7.51V42.467
						c1.021-4.94,6.492-7.798,10.182-7.792l0,0c4.298-0.006,9.896,2.929,11.003,7.984V580.714L27.262,580.714z"/>
				</defs>
				<clipPath id="SVGID_6_">
					<use xlink:href="#SVGID_5_"  overflow="visible"/>
				</clipPath>
				<rect x="1.196" y="225.147" clip-path="url(#SVGID_6_)" fill="#C4E6C0" width="31.578" height="90.038"/>
			</g>
		</g>
		<g>
			<g>
				<defs>
					<path id="SVGID_7_" d="M27.262,580.714c-0.316,3.428-5.673,7.51-10.308,7.51l0,0c-4.594,0.367-10.877-3.314-10.877-7.51V42.467
						c1.021-4.94,6.492-7.798,10.182-7.792l0,0c4.298-0.006,9.896,2.929,11.003,7.984V580.714L27.262,580.714z"/>
				</defs>
				<clipPath id="SVGID_8_">
					<use xlink:href="#SVGID_7_"  overflow="visible"/>
				</clipPath>
				<rect x="0.88" y="405.226" clip-path="url(#SVGID_8_)" fill="#ECF7EA" width="31.578" height="90.041"/>
			</g>
		</g>
		<g>
			<g>
				<defs>
					<path id="SVGID_9_" d="M27.262,580.714c-0.316,3.428-5.673,7.51-10.308,7.51l0,0c-4.594,0.367-10.877-3.314-10.877-7.51V42.467
						c1.021-4.94,6.492-7.798,10.182-7.792l0,0c4.298-0.006,9.896,2.929,11.003,7.984V580.714L27.262,580.714z"/>
				</defs>
				<clipPath id="SVGID_10_">
					<use xlink:href="#SVGID_9_"  overflow="visible"/>
				</clipPath>
				<rect x="1.196" y="135.094" clip-path="url(#SVGID_10_)" fill="#B0DEAB" width="31.578" height="90.041"/>
			</g>
		</g>
		<g>
			<g>
				<defs>
					<path id="SVGID_11_" d="M27.262,580.714c-0.316,3.428-5.673,7.51-10.308,7.51l0,0c-4.594,0.367-10.877-3.314-10.877-7.51
						V42.467c1.021-4.94,6.492-7.798,10.182-7.792l0,0c4.298-0.006,9.896,2.929,11.003,7.984V580.714L27.262,580.714z"/>
				</defs>
				<clipPath id="SVGID_12_">
					<use xlink:href="#SVGID_11_"  overflow="visible"/>
				</clipPath>
				<rect x="0.88" y="36.051" clip-path="url(#SVGID_12_)" fill="#9DD797" width="31.577" height="99.043"/>
			</g>
		</g>
	</g>
</g>
<g>
	<g display="none">
		<g display="inline">
			<g>
				<defs>
					<path id="SVGID_13_" d="M27.052,580.983c-0.315,3.428-5.672,7.51-10.307,7.51l0,0c-4.594,0.367-10.877-3.316-10.877-7.51
						V42.738c1.021-4.94,6.492-7.798,10.182-7.792l0,0c4.298-0.006,9.896,2.929,11.002,7.984V580.983L27.052,580.983z"/>
				</defs>
				<clipPath id="SVGID_14_">
					<use xlink:href="#SVGID_13_"  overflow="visible"/>
				</clipPath>
				<rect x="0.671" y="494.032" clip-path="url(#SVGID_14_)" fill="#EC2426" width="31.578" height="99.045"/>
			</g>
		</g>
		<g display="inline">
			<g>
				<defs>
					<path id="SVGID_15_" d="M27.052,580.983c-0.315,3.428-5.672,7.51-10.307,7.51l0,0c-4.594,0.367-10.877-3.316-10.877-7.51
						V42.738c1.021-4.94,6.492-7.798,10.182-7.792l0,0c4.298-0.006,9.896,2.929,11.002,7.984V580.983L27.052,580.983z"/>
				</defs>
				<clipPath id="SVGID_16_">
					<use xlink:href="#SVGID_15_"  overflow="visible"/>
				</clipPath>
				<rect x="0.987" y="313.954" clip-path="url(#SVGID_16_)" fill="#FCFC1E" width="31.578" height="90.041"/>
			</g>
		</g>
		<g display="inline">
			<g>
				<defs>
					<path id="SVGID_17_" d="M27.052,580.983c-0.315,3.428-5.672,7.51-10.307,7.51l0,0c-4.594,0.367-10.877-3.316-10.877-7.51
						V42.738c1.021-4.94,6.492-7.798,10.182-7.792l0,0c4.298-0.006,9.896,2.929,11.002,7.984V580.983L27.052,580.983z"/>
				</defs>
				<clipPath id="SVGID_18_">
					<use xlink:href="#SVGID_17_"  overflow="visible"/>
				</clipPath>
				<rect x="0.987" y="223.914" clip-path="url(#SVGID_18_)" fill="#0B7F3F" width="31.578" height="90.038"/>
			</g>
		</g>
		<g display="inline">
			<g>
				<defs>
					<path id="SVGID_19_" d="M27.052,580.983c-0.315,3.428-5.672,7.51-10.307,7.51l0,0c-4.594,0.367-10.877-3.316-10.877-7.51
						V42.738c1.021-4.94,6.492-7.798,10.182-7.792l0,0c4.298-0.006,9.896,2.929,11.002,7.984V580.983L27.052,580.983z"/>
				</defs>
				<clipPath id="SVGID_20_">
					<use xlink:href="#SVGID_19_"  overflow="visible"/>
				</clipPath>
				<rect x="0.671" y="403.993" clip-path="url(#SVGID_20_)" fill="#F7A426" width="31.578" height="90.041"/>
			</g>
		</g>
		<g display="inline">
			<g>
				<defs>
					<path id="SVGID_21_" d="M27.052,580.983c-0.315,3.428-5.672,7.51-10.307,7.51l0,0c-4.594,0.367-10.877-3.316-10.877-7.51
						V42.738c1.021-4.94,6.492-7.798,10.182-7.792l0,0c4.298-0.006,9.896,2.929,11.002,7.984V580.983L27.052,580.983z"/>
				</defs>
				<clipPath id="SVGID_22_">
					<use xlink:href="#SVGID_21_"  overflow="visible"/>
				</clipPath>
				<rect x="0.987" y="133.862" clip-path="url(#SVGID_22_)" fill="#6FC9DC" width="31.578" height="90.04"/>
			</g>
		</g>
		<g display="inline">
			<g>
				<defs>
					<path id="SVGID_23_" d="M27.052,580.983c-0.315,3.428-5.672,7.51-10.307,7.51l0,0c-4.594,0.367-10.877-3.316-10.877-7.51
						V42.738c1.021-4.94,6.492-7.798,10.182-7.792l0,0c4.298-0.006,9.896,2.929,11.002,7.984V580.983L27.052,580.983z"/>
				</defs>
				<clipPath id="SVGID_24_">
					<use xlink:href="#SVGID_23_"  overflow="visible"/>
				</clipPath>
				<rect x="0.987" y="34.818" clip-path="url(#SVGID_24_)" fill="#3F57B0" width="31.578" height="99.043"/>
			</g>
		</g>
	</g>
</g>
</svg>
