<?xml version="1.0" encoding="utf-8"?>
<!-- Generator: Adobe Illustrator 28.0.0, SVG Export Plug-In . SVG Version: 6.00 Build 0)  -->
<svg version="1.1" id="Livello_1" xmlns="http://www.w3.org/2000/svg" xmlns:xlink="http://www.w3.org/1999/xlink" x="0px" y="0px"
	 width="50px" height="677px" viewBox="0 0 48.7 677.2" style="enable-background:new 0 0 48.7 677.2;" xml:space="preserve">
<style type="text/css">
	.st0{display:none;}
	.st1{display:inline;}
	.st2{clip-path:url(#SVGID_00000040556695104186222530000004763766678953748408_);}
	.st3{fill:#F59826;}
	.st4{fill:#FDCC22;}
	.st5{fill:#6655AD;}
	.st6{fill:#975EAD;}
	.st7{fill:#C66AAF;}
	.st8{fill:#AF48A1;}
	.st9{fill:#981595;}
	.st10{fill:#660666;}
	.st11{fill:#640E0E;}
	.st12{fill:#991E1F;}
	.st13{fill:#CB2527;}
	.st14{fill:#EC2426;}
	.st15{fill:#F06626;}
	.st16{fill:#FCFC1E;}
	.st17{fill:#CBE436;}
	.st18{fill:#7ECB47;}
	.st19{fill:#0EB04E;}
	.st20{fill:#37BD7C;}
	.st21{fill:#58C3BA;}
	.st22{fill:#6FC9DC;}
	.st23{fill:#33BCF3;}
	.st24{fill:#498DD2;}
	.st25{fill:#4469BB;}
	.st26{fill:#3F57B0;}
	.st27{display:none;fill:none;stroke:#3C3430;stroke-width:3;stroke-miterlimit:10;}
	.st28{clip-path:url(#SVGID_00000065057252638208901140000007216567974962455188_);fill:#FFFAFA;}
	.st29{clip-path:url(#SVGID_00000085939054010836860210000007658356461912635018_);fill:#FBD5D6;}
	.st30{clip-path:url(#SVGID_00000083065157969606624670000002380064568540441249_);fill:#F9C1C2;}
	.st31{clip-path:url(#SVGID_00000136408807327163092280000003932976683242498440_);fill:#FDEBEB;}
	.st32{clip-path:url(#SVGID_00000119810245554002511020000010629631207187015614_);fill:#F6ABAD;}
	.st33{clip-path:url(#SVGID_00000129177471296993572530000003568803518521423753_);fill:#F49799;}
	.st34{clip-path:url(#SVGID_00000150077048395780831530000009320266652870388624_);fill:#C8E8F0;}
	.st35{clip-path:url(#SVGID_00000164499832185573891960000016377387311876651429_);fill:#D0EBF7;}
	.st36{clip-path:url(#SVGID_00000008863801557741287080000013789456964870433423_);fill:#4898DA;}
	.st37{clip-path:url(#SVGID_00000028309702685003155410000011842045273361494160_);fill:#A3A5D7;}
	.st38{clip-path:url(#SVGID_00000147194565522150726220000016336943649638973360_);fill:#B988C1;}
	.st39{clip-path:url(#SVGID_00000167374452110318200610000014899961511059440304_);fill:#D7A2CD;}
	.st40{clip-path:url(#SVGID_00000125578811976142245670000013678124279346284194_);fill:#E8BEDB;}
	.st41{clip-path:url(#SVGID_00000002380053414202100270000011180663918011840672_);fill:#E67D9B;}
	.st42{clip-path:url(#SVGID_00000096770975007757116370000016561687320081808305_);fill:#DB4C4D;}
	.st43{clip-path:url(#SVGID_00000088115054729035436440000006230757367152228997_);fill:#EF5A5C;}
	.st44{clip-path:url(#SVGID_00000026845287588325134910000017225475436165430688_);fill:#F7A25C;}
	.st45{clip-path:url(#SVGID_00000091735644633703104620000002143986250451778702_);fill:#FDD58F;}
	.st46{clip-path:url(#SVGID_00000069364187533880930560000010694842291814982785_);fill:#FFE173;}
	.st47{clip-path:url(#SVGID_00000111872283251919074960000012968479695017204371_);fill:#FEFE82;}
	.st48{clip-path:url(#SVGID_00000065055767217241722200000009595815073514288530_);fill:#FFFFC7;}
	.st49{clip-path:url(#SVGID_00000008146498205643515660000002471158409643005088_);fill:#F3F3A1;}
	.st50{clip-path:url(#SVGID_00000005982065864168676400000005416944197724856485_);fill:#D3ECA4;}
	.st51{clip-path:url(#SVGID_00000177475592071199881150000011584662280410088335_);fill:#C3E6D8;}
	.st52{clip-path:url(#SVGID_00000132081986658991055520000005669008556227173278_);fill:#C8E8F0;}
	.st53{clip-path:url(#SVGID_00000075139082963026926970000001811397869463621761_);fill:#D0EBF7;}
	.st54{clip-path:url(#SVGID_00000138569268071305180220000002546470580423964057_);fill:#EC2426;}
	.st55{clip-path:url(#SVGID_00000016771970613783422980000005920989210451058610_);fill:#FCFC1E;}
	.st56{clip-path:url(#SVGID_00000000203334978714543470000009009595766951153304_);fill:#0B7F3F;}
	.st57{clip-path:url(#SVGID_00000057136722201427942280000005113014810710195870_);fill:#F7A426;}
	.st58{clip-path:url(#SVGID_00000158019704240640724790000008714216803567921289_);fill:#6FC9DC;}
	.st59{clip-path:url(#SVGID_00000016789297213389771660000005342894954854829968_);fill:#3F57B0;}
	.st60{display:none;fill:#3A332F;}
	.st61{display:none;fill:none;stroke:#3C3430;stroke-width:2.9317;stroke-miterlimit:9.7722;}
	.st62{display:inline;fill:#3C3530;}
	.st63{display:inline;fill:#FFFFFF;}
	.st64{display:none;fill:none;}
	.st65{display:none;enable-background:new    ;}
	.st66{clip-path:url(#SVGID_00000102526249714488411960000008418364013625161392_);}
	.st67{fill:#235A95;}
	.st68{fill:#661515;}
	.st69{fill:#981F1F;}
	.st70{fill:#CB2A2A;}
	.st71{fill:#DA4C4D;}
	.st72{fill:#EE5A5C;}
	.st73{fill:#F0A0A0;}
	.st74{fill:#FFB4B4;}
	.st75{fill:#FFDCDC;}
	.st76{fill:#F8E8E8;}
	.st77{fill:#DEEAF7;}
	.st78{fill:#BDD5EF;}
	.st79{fill:#9CC1E7;}
	.st80{fill:#79AADE;}
	.st81{fill:#548ECE;}
	.st82{fill:#2E6FB8;}
	.st83{fill:#39322E;}
	.st84{fill:none;}
	.st85{fill:none;stroke:#3C3430;stroke-width:2;stroke-miterlimit:9.7722;}
	.st86{fill:#FFFFFF;}
	.st87{fill:none;stroke:#3C3430;stroke-miterlimit:9.7722;}
	.st88{fill:#3B3330;}
</style>
<g>
	<g>
		<g>
			<g>
				<g>
					<g>
						<g>
							<g>
								<defs>
									<path id="SVGID_00000003077976209443512160000018296227098302536846_" d="M42.8,671.1c-0.5,3.9-9,4.7-17.1,4.7l-0.9,0
										c-7.9,0.4-18.4,0.2-18.4-4.5L5.9,55.1c1.7-5.6,11.9-5.6,18.2-5.6l0,0c7.5,0,16.3-2,18.1,3.8l0.7,617.9V671.1z"/>
								</defs>
								<clipPath id="SVGID_00000128473186066373976220000013601926275856942498_">
									<use xlink:href="#SVGID_00000003077976209443512160000018296227098302536846_"  style="overflow:visible;"/>
								</clipPath>
								<g style="clip-path:url(#SVGID_00000128473186066373976220000013601926275856942498_);">
									<rect x="-10.5" y="606.8" class="st67" width="72.3" height="99.4"/>
									<rect x="-10.9" y="48.8" class="st68" width="74.9" height="37.2"/>
									<rect x="-10.9" y="86" class="st69" width="74.9" height="37.4"/>
									<rect x="-10.9" y="123.4" class="st70" width="74.9" height="37.2"/>
									<rect x="-10.9" y="160.6" class="st71" width="74.9" height="37.2"/>
									<rect x="-10.9" y="197.7" class="st72" width="74.9" height="37.2"/>
									<rect x="-10.9" y="234.9" class="st73" width="74.9" height="37.2"/>
									<rect x="-10.9" y="272.1" class="st74" width="74.9" height="37.2"/>
									<rect x="-10.9" y="309.1" class="st75" width="74.9" height="37.2"/>
									<rect x="-10.9" y="346.3" class="st76" width="74.9" height="37.2"/>
									<rect x="-10.9" y="383.5" class="st77" width="74.9" height="37.2"/>
									<rect x="-10.9" y="420.7" class="st78" width="74.9" height="37.5"/>
									<rect x="-10.9" y="458.1" class="st79" width="74.9" height="37.2"/>
									<rect x="-10.9" y="495.2" class="st80" width="74.9" height="37.2"/>
									<rect x="-10.9" y="532.4" class="st81" width="74.9" height="37.2"/>
									<rect x="-10.9" y="569.6" class="st82" width="74.9" height="37.2"/>
								</g>
							</g>
						</g>
					</g>
				</g>
			</g>
		</g>
	</g>
</g>
<circle class="st83" cx="24.1" cy="26.6" r="19.8"/>
<rect x="11.1" y="632" class="st84" width="15.4" height="11.8"/>
<path class="st85" d="M36.6,675.8H12.1c-3.4,0-6.2-2.8-6.2-6.2V56.1c0-3.4,2.8-6.2,6.2-6.2h24.5c3.4,0,6.2,2.8,6.2,6.2v613.5
	C42.8,673,40,675.8,36.6,675.8z"/>
<g>
	<path class="st86" d="M17.5,608.6c1,0,1.5-0.6,1.5-1.8l-0.2,0.1c-0.5,0.2-0.9,0.3-1.2,0.3c-0.8,0-1.4-0.2-1.8-0.6
		c-0.4-0.4-0.6-1-0.6-1.7c0-0.8,0.2-1.4,0.7-1.8c0.5-0.4,1.2-0.6,2-0.6c0.9,0,1.5,0.3,2,1c0.5,0.6,0.7,1.6,0.7,2.9s-0.3,2.2-0.8,2.8
		c-0.5,0.6-1.3,0.9-2.3,0.9c-0.6,0-1.2-0.1-1.8-0.2l-0.3-0.1l0.1-1.2C16.3,608.5,16.9,608.6,17.5,608.6z M17.8,605.8
		c0.3,0,0.7-0.1,1.1-0.2l0.2-0.1c0-1.2-0.4-1.9-1.2-1.9c-0.4,0-0.6,0.1-0.8,0.3c-0.2,0.2-0.3,0.5-0.3,0.8
		C16.7,605.5,17,605.8,17.8,605.8z"/>
	<path class="st86" d="M22.1,602.9c0.5-0.3,1.1-0.5,1.9-0.5c0.8,0,1.4,0.2,1.9,0.5c0.5,0.4,0.7,0.8,0.7,1.5c0,0.4-0.1,0.7-0.2,1
		c-0.1,0.2-0.3,0.4-0.6,0.7c0.3,0.3,0.6,0.5,0.7,0.8c0.1,0.2,0.2,0.6,0.2,1c0,0.7-0.3,1.2-0.8,1.6c-0.5,0.3-1.2,0.5-2,0.5
		c-1.8,0-2.8-0.7-2.8-2c0-0.5,0.1-0.8,0.2-1.1c0.1-0.3,0.4-0.5,0.7-0.8c-0.3-0.2-0.5-0.5-0.6-0.7s-0.2-0.6-0.2-0.9
		C21.4,603.7,21.6,603.2,22.1,602.9z M22.9,607.6c0,0.6,0.4,1,1.1,1s1.1-0.3,1.1-1c0-0.4-0.2-0.7-0.6-0.8h-1
		C23.1,606.9,22.9,607.2,22.9,607.6z M24.1,603.7c-0.3,0-0.6,0.1-0.8,0.2c-0.2,0.1-0.3,0.4-0.3,0.7s0.2,0.6,0.5,0.8h1
		c0.4-0.2,0.5-0.5,0.5-0.9C25.1,604,24.7,603.7,24.1,603.7z"/>
	<path class="st86" d="M28.3,602.9c0.5-0.3,1.1-0.5,1.9-0.5c0.8,0,1.4,0.2,1.9,0.5c0.5,0.4,0.7,0.8,0.7,1.5c0,0.4-0.1,0.7-0.2,1
		c-0.1,0.2-0.3,0.4-0.6,0.7c0.3,0.3,0.6,0.5,0.7,0.8c0.1,0.2,0.2,0.6,0.2,1c0,0.7-0.3,1.2-0.8,1.6c-0.5,0.3-1.2,0.5-2,0.5
		c-1.8,0-2.8-0.7-2.8-2c0-0.5,0.1-0.8,0.2-1.1c0.1-0.3,0.4-0.5,0.7-0.8c-0.3-0.2-0.5-0.5-0.6-0.7s-0.2-0.6-0.2-0.9
		C27.6,603.7,27.8,603.2,28.3,602.9z M29.1,607.6c0,0.6,0.4,1,1.1,1s1.1-0.3,1.1-1c0-0.4-0.2-0.7-0.6-0.8h-1
		C29.3,606.9,29.1,607.2,29.1,607.6z M30.2,603.7c-0.3,0-0.6,0.1-0.8,0.2c-0.2,0.1-0.3,0.4-0.3,0.7s0.2,0.6,0.5,0.8h1
		c0.4-0.2,0.5-0.5,0.5-0.9C31.2,604,30.9,603.7,30.2,603.7z"/>
</g>
<line class="st87" x1="6.5" y1="607.1" x2="13.1" y2="607.1"/>
<line class="st87" x1="42.2" y1="607.1" x2="35" y2="607.1"/>
<g>
	<path class="st86" d="M17.3,671.7h-1.6v-8.4h1.6v2.7c0.6-0.3,1-0.4,1.5-0.4c0.8,0,1.4,0.2,1.7,0.7c0.3,0.5,0.5,1.2,0.5,2.2v3.3
		h-1.6v-3.2c0-0.5-0.1-0.9-0.2-1.1s-0.4-0.4-0.7-0.4c-0.3,0-0.6,0-0.9,0.1l-0.2,0V671.7z"/>
	<path class="st86" d="M25.5,669.3h-1.3v2.4h-1.7v-8.2h3c1.9,0,2.9,0.9,2.9,2.8c0,1-0.2,1.7-0.7,2.2
		C27.2,669.1,26.5,669.3,25.5,669.3z M24.2,667.9h1.3c0.8,0,1.2-0.5,1.2-1.5c0-0.5-0.1-0.9-0.3-1.1c-0.2-0.2-0.5-0.3-0.9-0.3h-1.3
		V667.9z"/>
	<path class="st86" d="M34,667.6v2.5c0,0.2,0,0.3,0.1,0.4c0,0.1,0.1,0.1,0.3,0.2l0,1.2c-0.4,0-0.7,0-1-0.1c-0.2-0.1-0.5-0.2-0.7-0.3
		c-0.6,0.3-1.2,0.4-1.8,0.4c-1.2,0-1.9-0.7-1.9-2c0-0.6,0.2-1.1,0.5-1.4c0.3-0.3,0.9-0.4,1.6-0.5l1.3-0.1v-0.4
		c0-0.2-0.1-0.4-0.2-0.5c-0.1-0.1-0.3-0.1-0.5-0.1l-2.3,0.1l0-1.1c0.9-0.2,1.7-0.3,2.4-0.3c0.8,0,1.3,0.2,1.7,0.5
		C33.8,666.4,34,666.9,34,667.6z M31.3,669.2c-0.4,0-0.7,0.3-0.7,0.7c0,0.4,0.2,0.7,0.6,0.7c0.3,0,0.6,0,1-0.1l0.2,0v-1.3
		L31.3,669.2z"/>
</g>
<path class="st86" d="M23.9,13.1c-7.4,0-13.4,6-13.4,13.4S16.5,40,23.9,40s13.4-6,13.4-13.4S31.4,13.1,23.9,13.1L23.9,13.1z
	 M23.9,14.5c6.6,0,12,5.4,12,12s-5.4,12-12,12s-12-5.4-12-12S17.4,14.5,23.9,14.5L23.9,14.5z M23.1,25.9c-1.1,0.4-1.7,1.3-1.7,2.4
	c0,1.5,1.2,2.6,2.6,2.6c1.5,0,2.6-1.2,2.6-2.6c0-1.1-0.7-2.2-1.7-2.4v-4.4c0-0.5-0.4-0.8-0.8-0.8c-0.5,0-0.8,0.4-0.8,0.8V25.9
	L23.1,25.9z M23.9,26.8c0.8,0,1.3,0.7,1.3,1.3c0,0.8-0.7,1.3-1.3,1.3c-0.8,0-1.3-0.7-1.3-1.3S23.2,26.8,23.9,26.8L23.9,26.8z
	 M32,27.2h1.9c0.5,0,0.9-0.3,0.9-0.7s-0.4-0.7-0.9-0.7H32c-0.5,0-0.9,0.3-0.9,0.7S31.4,27.2,32,27.2L32,27.2z M31.6,23.1l1.6-0.9
	c0.4-0.3,0.7-0.8,0.4-1.1c-0.3-0.4-0.7-0.4-1.2-0.1l-1.5,0.8c-0.4,0.3-0.7,0.8-0.4,1.1C30.6,23.2,31.2,23.3,31.6,23.1L31.6,23.1z
	 M28.7,19.7l0.9-1.6c0.3-0.4,0.1-0.9-0.1-1.2c-0.4-0.3-0.8,0-1.1,0.4l-0.9,1.6c-0.3,0.4-0.1,0.9,0.1,1.2S28.6,20.1,28.7,19.7
	L28.7,19.7z M24.7,18.1v-1.9c0-0.5-0.3-0.9-0.7-0.9c-0.4,0-0.7,0.4-0.7,0.9v1.9c0,0.5,0.3,0.9,0.7,0.9C24.3,19,24.7,18.6,24.7,18.1
	L24.7,18.1z M18.2,18l0.9,1.6c0.3,0.4,0.7,0.7,1.1,0.4c0.4-0.1,0.4-0.7,0.1-1.2l-0.9-1.6c-0.3-0.4-0.7-0.7-1.1-0.4
	C18.1,17,18,17.6,18.2,18L18.2,18z M14.9,22l1.6,0.9c0.4,0.3,0.9,0.1,1.2-0.1c0.1-0.4,0-0.8-0.4-1.1l-1.6-0.9
	c-0.4-0.3-0.9-0.1-1.2,0.1C14.2,21.3,14.3,21.9,14.9,22L14.9,22z M13.8,27.2h1.9c0.5,0,0.9-0.3,0.9-0.7s-0.4-0.7-0.9-0.7h-1.9
	c-0.5,0-0.9,0.3-0.9,0.7C12.9,26.8,13.3,27.2,13.8,27.2L13.8,27.2z"/>
<g>
	<path class="st86" d="M17.3,571.1c1,0,1.5-0.6,1.5-1.8l-0.2,0.1c-0.5,0.2-0.9,0.3-1.2,0.3c-0.8,0-1.4-0.2-1.8-0.6s-0.6-1-0.6-1.7
		c0-0.8,0.2-1.4,0.7-1.8c0.5-0.4,1.2-0.6,2-0.6c0.9,0,1.5,0.3,2,1c0.5,0.6,0.7,1.6,0.7,2.9s-0.3,2.2-0.8,2.8
		c-0.5,0.6-1.3,0.9-2.3,0.9c-0.6,0-1.2-0.1-1.8-0.2l-0.3-0.1l0.1-1.2C16,571.1,16.7,571.1,17.3,571.1z M17.5,568.3
		c0.3,0,0.7-0.1,1.1-0.2l0.2-0.1c0-1.2-0.4-1.9-1.2-1.9c-0.4,0-0.6,0.1-0.8,0.3c-0.2,0.2-0.3,0.5-0.3,0.8
		C16.4,568,16.8,568.3,17.5,568.3z"/>
	<path class="st86" d="M23.4,571.1c1,0,1.5-0.6,1.5-1.8l-0.2,0.1c-0.5,0.2-0.9,0.3-1.2,0.3c-0.8,0-1.4-0.2-1.8-0.6s-0.6-1-0.6-1.7
		c0-0.8,0.2-1.4,0.7-1.8c0.5-0.4,1.2-0.6,2-0.6c0.9,0,1.5,0.3,2,1c0.5,0.6,0.7,1.6,0.7,2.9s-0.3,2.2-0.8,2.8
		c-0.5,0.6-1.3,0.9-2.3,0.9c-0.6,0-1.2-0.1-1.8-0.2l-0.3-0.1l0.1-1.2C22.1,571.1,22.8,571.1,23.4,571.1z M23.7,568.3
		c0.3,0,0.7-0.1,1.1-0.2l0.2-0.1c0-1.2-0.4-1.9-1.2-1.9c-0.4,0-0.6,0.1-0.8,0.3c-0.2,0.2-0.3,0.5-0.3,0.8
		C22.6,568,22.9,568.3,23.7,568.3z"/>
	<path class="st86" d="M32.3,572.3h-4.7V571l1.6-1.6c0.5-0.6,0.9-1,1.1-1.3c0.2-0.3,0.3-0.6,0.3-1c0-0.3-0.1-0.6-0.3-0.7
		c-0.2-0.1-0.4-0.2-0.8-0.2c-0.5,0-1,0-1.6,0.1l-0.3,0l-0.1-1.2c0.7-0.2,1.5-0.3,2.2-0.3c1.5,0,2.3,0.7,2.3,2.1c0,0.5-0.1,1-0.4,1.4
		c-0.2,0.4-0.7,0.9-1.3,1.4l-1.3,1.1h3V572.3z"/>
</g>
<line class="st87" x1="6.2" y1="569.6" x2="12.8" y2="569.6"/>
<line class="st87" x1="41.9" y1="569.6" x2="34.8" y2="569.6"/>
<g>
	<path class="st86" d="M17.3,533.7c1,0,1.5-0.6,1.5-1.8l-0.2,0.1c-0.5,0.2-0.9,0.3-1.2,0.3c-0.8,0-1.4-0.2-1.8-0.6s-0.6-1-0.6-1.7
		c0-0.8,0.2-1.4,0.7-1.8c0.5-0.4,1.2-0.6,2-0.6c0.9,0,1.5,0.3,2,1c0.5,0.6,0.7,1.6,0.7,2.9s-0.3,2.2-0.8,2.8
		c-0.5,0.6-1.3,0.9-2.3,0.9c-0.6,0-1.2-0.1-1.8-0.2l-0.3-0.1l0.1-1.2C16,533.6,16.7,533.7,17.3,533.7z M17.5,530.9
		c0.3,0,0.7-0.1,1.1-0.2l0.2-0.1c0-1.2-0.4-1.9-1.2-1.9c-0.4,0-0.6,0.1-0.8,0.3c-0.2,0.2-0.3,0.5-0.3,0.8
		C16.4,530.6,16.8,530.9,17.5,530.9z"/>
	<path class="st86" d="M23.4,533.7c1,0,1.5-0.6,1.5-1.8l-0.2,0.1c-0.5,0.2-0.9,0.3-1.2,0.3c-0.8,0-1.4-0.2-1.8-0.6s-0.6-1-0.6-1.7
		c0-0.8,0.2-1.4,0.7-1.8c0.5-0.4,1.2-0.6,2-0.6c0.9,0,1.5,0.3,2,1c0.5,0.6,0.7,1.6,0.7,2.9s-0.3,2.2-0.8,2.8
		c-0.5,0.6-1.3,0.9-2.3,0.9c-0.6,0-1.2-0.1-1.8-0.2l-0.3-0.1l0.1-1.2C22.1,533.6,22.8,533.7,23.4,533.7z M23.7,530.9
		c0.3,0,0.7-0.1,1.1-0.2l0.2-0.1c0-1.2-0.4-1.9-1.2-1.9c-0.4,0-0.6,0.1-0.8,0.3c-0.2,0.2-0.3,0.5-0.3,0.8
		C22.6,530.6,22.9,530.9,23.7,530.9z"/>
	<path class="st86" d="M32.3,528.9c-0.7-0.1-1.4-0.2-1.9-0.2c-1,0-1.6,0.6-1.6,1.7l0.2-0.1c0.5-0.1,0.9-0.2,1.2-0.2
		c0.8,0,1.5,0.2,1.9,0.6c0.4,0.4,0.6,1,0.6,1.8s-0.2,1.4-0.7,1.8c-0.5,0.4-1.1,0.6-2,0.6c-0.9,0-1.6-0.3-2-1
		c-0.5-0.6-0.7-1.6-0.7-2.9c0-1.3,0.3-2.2,0.8-2.8c0.5-0.6,1.3-0.9,2.2-0.9c0.6,0,1.2,0.1,1.8,0.2l0.3,0.1L32.3,528.9z M30.1,531.5
		c-0.3,0-0.7,0.1-1.1,0.2l-0.2,0.1c0,1.3,0.4,1.9,1.2,1.9c0.4,0,0.6-0.1,0.8-0.3c0.2-0.2,0.3-0.5,0.3-0.8
		C31.1,531.9,30.8,531.5,30.1,531.5z"/>
</g>
<line class="st87" x1="6.2" y1="532.2" x2="12.8" y2="532.2"/>
<line class="st87" x1="41.9" y1="532.2" x2="34.8" y2="532.2"/>
<g>
	<path class="st86" d="M16.3,490.4v7.3h-1.5v-5.5l-1.6,1l-0.7-1.1l2.4-1.6H16.3z"/>
	<path class="st86" d="M18.9,491.2c0.5-0.6,1.2-0.9,2.1-0.9s1.6,0.3,2.1,0.9c0.5,0.6,0.7,1.6,0.7,2.9s-0.2,2.3-0.7,2.9
		c-0.5,0.6-1.2,0.9-2.1,0.9s-1.6-0.3-2.1-0.9c-0.5-0.6-0.7-1.5-0.7-2.9S18.4,491.8,18.9,491.2z M22.2,494.1c0-0.9-0.1-1.5-0.3-1.9
		c-0.2-0.4-0.5-0.5-1-0.5s-0.8,0.2-1,0.5c-0.2,0.4-0.3,1-0.3,1.9s0.1,1.5,0.3,1.9s0.5,0.5,1,0.5s0.8-0.2,1-0.5
		C22.1,495.6,22.2,495,22.2,494.1z"/>
	<path class="st86" d="M25,491.2c0.5-0.6,1.2-0.9,2.1-0.9s1.6,0.3,2.1,0.9c0.5,0.6,0.7,1.6,0.7,2.9s-0.2,2.3-0.7,2.9
		c-0.5,0.6-1.2,0.9-2.1,0.9s-1.6-0.3-2.1-0.9c-0.5-0.6-0.7-1.5-0.7-2.9S24.6,491.8,25,491.2z M28.4,494.1c0-0.9-0.1-1.5-0.3-1.9
		c-0.2-0.4-0.5-0.5-1-0.5s-0.8,0.2-1,0.5c-0.2,0.4-0.3,1-0.3,1.9s0.1,1.5,0.3,1.9s0.5,0.5,1,0.5s0.8-0.2,1-0.5
		C28.3,495.6,28.4,495,28.4,494.1z"/>
	<path class="st86" d="M31.2,491.2c0.5-0.6,1.2-0.9,2.1-0.9s1.6,0.3,2.1,0.9c0.5,0.6,0.7,1.6,0.7,2.9s-0.2,2.3-0.7,2.9
		c-0.5,0.6-1.2,0.9-2.1,0.9s-1.6-0.3-2.1-0.9c-0.5-0.6-0.7-1.5-0.7-2.9S30.7,491.8,31.2,491.2z M34.6,494.1c0-0.9-0.1-1.5-0.3-1.9
		c-0.2-0.4-0.5-0.5-1-0.5s-0.8,0.2-1,0.5c-0.2,0.4-0.3,1-0.3,1.9s0.1,1.5,0.3,1.9s0.5,0.5,1,0.5s0.8-0.2,1-0.5
		C34.5,495.6,34.6,495,34.6,494.1z"/>
</g>
<line class="st87" x1="6.2" y1="495" x2="11.9" y2="495"/>
<line class="st87" x1="41.9" y1="495" x2="37.1" y2="495"/>
<g>
	<g>
		<path class="st88" d="M16.3,453.6v7.3h-1.5v-5.5l-1.6,1l-0.7-1.1l2.4-1.6H16.3z"/>
		<path class="st88" d="M18.9,454.4c0.5-0.6,1.2-0.9,2.1-0.9s1.6,0.3,2.1,0.9c0.5,0.6,0.7,1.6,0.7,2.9s-0.2,2.3-0.7,2.9
			c-0.5,0.6-1.2,0.9-2.1,0.9s-1.6-0.3-2.1-0.9c-0.5-0.6-0.7-1.5-0.7-2.9S18.4,455,18.9,454.4z M22.2,457.2c0-0.9-0.1-1.5-0.3-1.9
			c-0.2-0.4-0.5-0.5-1-0.5s-0.8,0.2-1,0.5c-0.2,0.4-0.3,1-0.3,1.9s0.1,1.5,0.3,1.9s0.5,0.5,1,0.5s0.8-0.2,1-0.5
			C22.1,458.8,22.2,458.2,22.2,457.2z"/>
		<path class="st88" d="M25,454.4c0.5-0.6,1.2-0.9,2.1-0.9s1.6,0.3,2.1,0.9c0.5,0.6,0.7,1.6,0.7,2.9s-0.2,2.3-0.7,2.9
			c-0.5,0.6-1.2,0.9-2.1,0.9s-1.6-0.3-2.1-0.9c-0.5-0.6-0.7-1.5-0.7-2.9S24.6,455,25,454.4z M28.4,457.2c0-0.9-0.1-1.5-0.3-1.9
			c-0.2-0.4-0.5-0.5-1-0.5s-0.8,0.2-1,0.5c-0.2,0.4-0.3,1-0.3,1.9s0.1,1.5,0.3,1.9s0.5,0.5,1,0.5s0.8-0.2,1-0.5
			C28.3,458.8,28.4,458.2,28.4,457.2z"/>
		<path class="st88" d="M33.7,460.9v-1.2h-3.1v-1.2l1.8-4.9h1.7l-1.9,4.7h1.6v-2h1.5v2H36v1.3h-0.7v1.2H33.7z"/>
	</g>
</g>
<line class="st87" x1="6.2" y1="458.2" x2="11.6" y2="458.2"/>
<line class="st87" x1="41.9" y1="458.2" x2="36.4" y2="458.2"/>
<g>
	<g>
		<path class="st88" d="M16.3,416.4v7.3h-1.5v-5.5l-1.6,1l-0.7-1.1l2.4-1.6H16.3z"/>
		<path class="st88" d="M18.9,417.1c0.5-0.6,1.2-0.9,2.1-0.9s1.6,0.3,2.1,0.9c0.5,0.6,0.7,1.6,0.7,2.9s-0.2,2.3-0.7,2.9
			c-0.5,0.6-1.2,0.9-2.1,0.9s-1.6-0.3-2.1-0.9c-0.5-0.6-0.7-1.5-0.7-2.9S18.4,417.7,18.9,417.1z M22.2,420c0-0.9-0.1-1.5-0.3-1.9
			c-0.2-0.4-0.5-0.5-1-0.5s-0.8,0.2-1,0.5c-0.2,0.4-0.3,1-0.3,1.9s0.1,1.5,0.3,1.9s0.5,0.5,1,0.5s0.8-0.2,1-0.5
			C22.1,421.5,22.2,420.9,22.2,420z"/>
		<path class="st88" d="M25,417.1c0.5-0.6,1.2-0.9,2.1-0.9s1.6,0.3,2.1,0.9c0.5,0.6,0.7,1.6,0.7,2.9s-0.2,2.3-0.7,2.9
			c-0.5,0.6-1.2,0.9-2.1,0.9s-1.6-0.3-2.1-0.9c-0.5-0.6-0.7-1.5-0.7-2.9S24.6,417.7,25,417.1z M28.4,420c0-0.9-0.1-1.5-0.3-1.9
			c-0.2-0.4-0.5-0.5-1-0.5s-0.8,0.2-1,0.5c-0.2,0.4-0.3,1-0.3,1.9s0.1,1.5,0.3,1.9s0.5,0.5,1,0.5s0.8-0.2,1-0.5
			C28.3,421.5,28.4,420.9,28.4,420z"/>
		<path class="st88" d="M31.4,416.8c0.5-0.3,1.1-0.5,1.9-0.5c0.8,0,1.4,0.2,1.9,0.5c0.5,0.4,0.7,0.8,0.7,1.5c0,0.4-0.1,0.7-0.2,1
			c-0.1,0.2-0.3,0.4-0.6,0.7c0.3,0.3,0.6,0.5,0.7,0.8c0.1,0.2,0.2,0.6,0.2,1c0,0.7-0.3,1.2-0.8,1.6c-0.5,0.3-1.2,0.5-2,0.5
			c-1.8,0-2.8-0.7-2.8-2c0-0.5,0.1-0.8,0.2-1.1c0.1-0.3,0.4-0.5,0.7-0.8c-0.3-0.2-0.5-0.5-0.6-0.7c-0.1-0.2-0.2-0.6-0.2-0.9
			C30.7,417.6,30.9,417.1,31.4,416.8z M32.2,421.4c0,0.6,0.4,1,1.1,1c0.8,0,1.1-0.3,1.1-1c0-0.4-0.2-0.7-0.6-0.8h-1
			C32.4,420.8,32.2,421,32.2,421.4z M33.3,417.6c-0.3,0-0.6,0.1-0.8,0.2c-0.2,0.1-0.3,0.4-0.3,0.7s0.2,0.6,0.5,0.8h1
			c0.4-0.2,0.5-0.5,0.5-0.9C34.3,417.9,34,417.6,33.3,417.6z"/>
	</g>
</g>
<line class="st87" x1="6.5" y1="420.8" x2="11.9" y2="420.8"/>
<line class="st87" x1="42.2" y1="420.8" x2="36.7" y2="420.8"/>
<g>
	<g>
		<path class="st88" d="M16,378.6v7.3h-1.5v-5.5l-1.6,1l-0.7-1.1l2.4-1.6H16z"/>
		<path class="st88" d="M18.6,379.4c0.5-0.6,1.2-0.9,2.1-0.9s1.6,0.3,2.1,0.9c0.5,0.6,0.7,1.6,0.7,2.9s-0.2,2.3-0.7,2.9
			c-0.5,0.6-1.2,0.9-2.1,0.9s-1.6-0.3-2.1-0.9c-0.5-0.6-0.7-1.5-0.7-2.9S18.1,380,18.6,379.4z M21.9,382.3c0-0.9-0.1-1.5-0.3-1.9
			c-0.2-0.4-0.5-0.5-1-0.5s-0.8,0.2-1,0.5c-0.2,0.4-0.3,1-0.3,1.9s0.1,1.5,0.3,1.9s0.5,0.5,1,0.5s0.8-0.2,1-0.5
			C21.8,383.8,21.9,383.2,21.9,382.3z"/>
		<path class="st88" d="M28.4,378.6v7.3h-1.5v-5.5l-1.6,1l-0.7-1.1l2.4-1.6H28.4z"/>
		<path class="st88" d="M35.3,385.9h-4.7v-1.3l1.6-1.6c0.5-0.6,0.9-1,1.1-1.3c0.2-0.3,0.3-0.6,0.3-1c0-0.3-0.1-0.6-0.3-0.7
			s-0.4-0.2-0.8-0.2c-0.5,0-1,0-1.6,0.1l-0.3,0l-0.1-1.2c0.7-0.2,1.5-0.3,2.2-0.3c1.5,0,2.3,0.7,2.3,2.1c0,0.5-0.1,1-0.4,1.4
			c-0.2,0.4-0.7,0.9-1.3,1.4l-1.3,1.1h3V385.9z"/>
	</g>
</g>
<line class="st87" x1="6.2" y1="383.1" x2="11.6" y2="383.1"/>
<line class="st87" x1="41.9" y1="383.1" x2="36.4" y2="383.1"/>
<g>
	<g>
		<path class="st88" d="M15.7,340.9v7.3h-1.5v-5.5l-1.6,1l-0.7-1.1l2.4-1.6H15.7z"/>
		<path class="st88" d="M18.3,341.7c0.5-0.6,1.2-0.9,2.1-0.9s1.6,0.3,2.1,0.9c0.5,0.6,0.7,1.6,0.7,2.9s-0.2,2.3-0.7,2.9
			c-0.5,0.6-1.2,0.9-2.1,0.9s-1.6-0.3-2.1-0.9c-0.5-0.6-0.7-1.5-0.7-2.9S17.8,342.3,18.3,341.7z M21.6,344.6c0-0.9-0.1-1.5-0.3-1.9
			c-0.2-0.4-0.5-0.5-1-0.5s-0.8,0.2-1,0.5c-0.2,0.4-0.3,1-0.3,1.9s0.1,1.5,0.3,1.9s0.5,0.5,1,0.5s0.8-0.2,1-0.5
			C21.5,346.1,21.6,345.5,21.6,344.6z"/>
		<path class="st88" d="M28.1,340.9v7.3h-1.5v-5.5l-1.6,1l-0.7-1.1l2.4-1.6H28.1z"/>
		<path class="st88" d="M35.1,342.3c-0.7-0.1-1.4-0.2-1.9-0.2c-1,0-1.6,0.6-1.6,1.7l0.2-0.1c0.5-0.1,0.9-0.2,1.2-0.2
			c0.8,0,1.5,0.2,1.9,0.6c0.4,0.4,0.6,1,0.6,1.8s-0.2,1.4-0.7,1.8c-0.5,0.4-1.1,0.6-2,0.6c-0.9,0-1.6-0.3-2-1
			c-0.5-0.6-0.7-1.6-0.7-2.9c0-1.3,0.3-2.2,0.8-2.8s1.3-0.9,2.2-0.9c0.6,0,1.2,0.1,1.8,0.2l0.3,0.1L35.1,342.3z M32.8,344.8
			c-0.3,0-0.7,0.1-1.1,0.2l-0.2,0.1c0,1.3,0.4,1.9,1.2,1.9c0.4,0,0.6-0.1,0.8-0.3c0.2-0.2,0.3-0.5,0.3-0.8
			C33.9,345.2,33.5,344.8,32.8,344.8z"/>
	</g>
</g>
<line class="st87" x1="5.9" y1="345.4" x2="11.3" y2="345.4"/>
<line class="st87" x1="41.6" y1="345.4" x2="36.1" y2="345.4"/>
<g>
	<g>
		<path class="st88" d="M16,304.9v7.3h-1.5v-5.5l-1.6,1l-0.7-1.1l2.4-1.6H16z"/>
		<path class="st88" d="M18.6,305.7c0.5-0.6,1.2-0.9,2.1-0.9s1.6,0.3,2.1,0.9c0.5,0.6,0.7,1.6,0.7,2.9s-0.2,2.3-0.7,2.9
			c-0.5,0.6-1.2,0.9-2.1,0.9s-1.6-0.3-2.1-0.9c-0.5-0.6-0.7-1.5-0.7-2.9S18.1,306.3,18.6,305.7z M21.9,308.6c0-0.9-0.1-1.5-0.3-1.9
			c-0.2-0.4-0.5-0.5-1-0.5s-0.8,0.2-1,0.5c-0.2,0.4-0.3,1-0.3,1.9s0.1,1.5,0.3,1.9s0.5,0.5,1,0.5s0.8-0.2,1-0.5
			C21.8,310.1,21.9,309.5,21.9,308.6z"/>
		<path class="st88" d="M29.2,312.2h-4.7v-1.3l1.6-1.6c0.5-0.6,0.9-1,1.1-1.3c0.2-0.3,0.3-0.6,0.3-1c0-0.3-0.1-0.6-0.3-0.7
			s-0.4-0.2-0.8-0.2c-0.5,0-1,0-1.6,0.1l-0.3,0l-0.1-1.2c0.7-0.2,1.5-0.3,2.2-0.3c1.5,0,2.3,0.7,2.3,2.1c0,0.5-0.1,1-0.4,1.4
			c-0.2,0.4-0.7,0.9-1.3,1.4l-1.3,1.1h3V312.2z"/>
		<path class="st88" d="M30.9,305.7c0.5-0.6,1.2-0.9,2.1-0.9s1.6,0.3,2.1,0.9c0.5,0.6,0.7,1.6,0.7,2.9s-0.2,2.3-0.7,2.9
			c-0.5,0.6-1.2,0.9-2.1,0.9s-1.6-0.3-2.1-0.9c-0.5-0.6-0.7-1.5-0.7-2.9S30.4,306.3,30.9,305.7z M34.3,308.6c0-0.9-0.1-1.5-0.3-1.9
			c-0.2-0.4-0.5-0.5-1-0.5s-0.8,0.2-1,0.5c-0.2,0.4-0.3,1-0.3,1.9s0.1,1.5,0.3,1.9c0.2,0.4,0.5,0.5,1,0.5s0.8-0.2,1-0.5
			C34.2,310.1,34.3,309.5,34.3,308.6z"/>
	</g>
</g>
<line class="st87" x1="6.2" y1="309.4" x2="11.6" y2="309.4"/>
<line class="st87" x1="41.9" y1="309.4" x2="36.4" y2="309.4"/>
<g>
	<g>
		<path class="st88" d="M16,267.3v7.3h-1.5v-5.5l-1.6,1l-0.7-1.1l2.4-1.6H16z"/>
		<path class="st88" d="M18.6,268.1c0.5-0.6,1.2-0.9,2.1-0.9s1.6,0.3,2.1,0.9c0.5,0.6,0.7,1.6,0.7,2.9s-0.2,2.3-0.7,2.9
			c-0.5,0.6-1.2,0.9-2.1,0.9s-1.6-0.3-2.1-0.9c-0.5-0.6-0.7-1.5-0.7-2.9S18.1,268.7,18.6,268.1z M21.9,271c0-0.9-0.1-1.5-0.3-1.9
			c-0.2-0.4-0.5-0.5-1-0.5s-0.8,0.2-1,0.5c-0.2,0.4-0.3,1-0.3,1.9s0.1,1.5,0.3,1.9s0.5,0.5,1,0.5s0.8-0.2,1-0.5
			C21.8,272.5,21.9,271.9,21.9,271z"/>
		<path class="st88" d="M29.2,274.6h-4.7v-1.3l1.6-1.6c0.5-0.6,0.9-1,1.1-1.3c0.2-0.3,0.3-0.6,0.3-1c0-0.3-0.1-0.6-0.3-0.7
			s-0.4-0.2-0.8-0.2c-0.5,0-1,0-1.6,0.1l-0.3,0l-0.1-1.2c0.7-0.2,1.5-0.3,2.2-0.3c1.5,0,2.3,0.7,2.3,2.1c0,0.5-0.1,1-0.4,1.4
			c-0.2,0.4-0.7,0.9-1.3,1.4l-1.3,1.1h3V274.6z"/>
		<path class="st88" d="M33.4,274.6v-1.2h-3.1v-1.2l1.8-4.9h1.7l-1.9,4.7h1.6v-2H35v2h0.7v1.3H35v1.2H33.4z"/>
	</g>
</g>
<line class="st87" x1="6.2" y1="271.8" x2="11.6" y2="271.8"/>
<line class="st87" x1="41.9" y1="271.8" x2="36.4" y2="271.8"/>
<g>
	<g>
		<path class="st88" d="M16,229.8v7.3h-1.5v-5.5l-1.6,1l-0.7-1.1l2.4-1.6H16z"/>
		<path class="st88" d="M18.6,230.6c0.5-0.6,1.2-0.9,2.1-0.9s1.6,0.3,2.1,0.9c0.5,0.6,0.7,1.6,0.7,2.9s-0.2,2.3-0.7,2.9
			c-0.5,0.6-1.2,0.9-2.1,0.9s-1.6-0.3-2.1-0.9c-0.5-0.6-0.7-1.5-0.7-2.9S18.1,231.2,18.6,230.6z M21.9,233.4c0-0.9-0.1-1.5-0.3-1.9
			c-0.2-0.4-0.5-0.5-1-0.5s-0.8,0.2-1,0.5c-0.2,0.4-0.3,1-0.3,1.9s0.1,1.5,0.3,1.9s0.5,0.5,1,0.5s0.8-0.2,1-0.5
			C21.8,235,21.9,234.3,21.9,233.4z"/>
		<path class="st88" d="M29.2,237.1h-4.7v-1.3l1.6-1.6c0.5-0.6,0.9-1,1.1-1.3c0.2-0.3,0.3-0.6,0.3-1c0-0.3-0.1-0.6-0.3-0.7
			s-0.4-0.2-0.8-0.2c-0.5,0-1,0-1.6,0.1l-0.3,0l-0.1-1.2c0.7-0.2,1.5-0.3,2.2-0.3c1.5,0,2.3,0.7,2.3,2.1c0,0.5-0.1,1-0.4,1.4
			c-0.2,0.4-0.7,0.9-1.3,1.4l-1.3,1.1h3V237.1z"/>
		<path class="st88" d="M31.1,230.2c0.5-0.3,1.1-0.5,1.9-0.5c0.8,0,1.4,0.2,1.9,0.5c0.5,0.4,0.7,0.8,0.7,1.5c0,0.4-0.1,0.7-0.2,1
			c-0.1,0.2-0.3,0.4-0.6,0.7c0.3,0.3,0.6,0.5,0.7,0.8c0.1,0.2,0.2,0.6,0.2,1c0,0.7-0.3,1.2-0.8,1.6c-0.5,0.3-1.2,0.5-2,0.5
			c-1.8,0-2.8-0.7-2.8-2c0-0.5,0.1-0.8,0.2-1.1c0.1-0.3,0.4-0.5,0.7-0.8c-0.3-0.2-0.5-0.5-0.6-0.7c-0.1-0.2-0.2-0.6-0.2-0.9
			C30.4,231,30.6,230.5,31.1,230.2z M31.9,234.9c0,0.6,0.4,1,1.1,1c0.8,0,1.1-0.3,1.1-1c0-0.4-0.2-0.7-0.6-0.8h-1
			C32.1,234.2,31.9,234.5,31.9,234.9z M33,231c-0.3,0-0.6,0.1-0.8,0.2c-0.2,0.1-0.3,0.4-0.3,0.7s0.2,0.6,0.5,0.8h1
			c0.4-0.2,0.5-0.5,0.5-0.9C34,231.3,33.7,231,33,231z"/>
	</g>
</g>
<line class="st87" x1="6.2" y1="234.3" x2="11.6" y2="234.3"/>
<line class="st87" x1="41.9" y1="234.3" x2="36.4" y2="234.3"/>
<g>
	<path class="st86" d="M16.4,192.3v7.3h-1.5V194l-1.6,1l-0.7-1.1l2.4-1.6H16.4z"/>
	<path class="st86" d="M18.9,193c0.5-0.6,1.2-0.9,2.1-0.9s1.6,0.3,2.1,0.9c0.5,0.6,0.7,1.6,0.7,2.9s-0.2,2.3-0.7,2.9
		c-0.5,0.6-1.2,0.9-2.1,0.9s-1.6-0.3-2.1-0.9c-0.5-0.6-0.7-1.5-0.7-2.9S18.4,193.6,18.9,193z M22.2,195.9c0-0.9-0.1-1.5-0.3-1.9
		c-0.2-0.4-0.5-0.5-1-0.5s-0.8,0.2-1,0.5c-0.2,0.4-0.3,1-0.3,1.9s0.1,1.5,0.3,1.9s0.5,0.5,1,0.5s0.8-0.2,1-0.5
		C22.2,197.4,22.2,196.8,22.2,195.9z"/>
	<path class="st86" d="M24.8,192.5c0.7-0.3,1.4-0.4,2.3-0.4c0.8,0,1.4,0.2,1.8,0.5c0.4,0.3,0.6,0.8,0.6,1.5s-0.3,1.2-0.8,1.6
		c0.4,0.2,0.6,0.4,0.8,0.6c0.1,0.2,0.2,0.5,0.2,1c0,0.8-0.2,1.4-0.6,1.7c-0.4,0.4-1,0.6-1.9,0.6c-0.6,0-1.3-0.1-2-0.3l-0.4-0.1
		l0.1-1.2c0.8,0.1,1.5,0.2,2.1,0.2c0.8,0,1.1-0.3,1.1-1c0-0.3-0.1-0.5-0.3-0.6s-0.4-0.2-0.8-0.2h-1.5v-1.3h1.5
		c0.2,0,0.5-0.1,0.6-0.3c0.2-0.2,0.3-0.4,0.3-0.7c0-0.5-0.4-0.8-1.1-0.8c-0.5,0-1,0.1-1.6,0.2l-0.3,0L24.8,192.5z"/>
	<path class="st86" d="M35.7,199.5H31v-1.3l1.6-1.6c0.5-0.6,0.9-1,1.1-1.3c0.2-0.3,0.3-0.6,0.3-1c0-0.3-0.1-0.6-0.3-0.7
		s-0.4-0.2-0.8-0.2c-0.5,0-1,0-1.6,0.1l-0.3,0l-0.1-1.2c0.7-0.2,1.5-0.3,2.2-0.3c1.5,0,2.3,0.7,2.3,2.1c0,0.5-0.1,1-0.4,1.4
		c-0.2,0.4-0.7,0.9-1.3,1.4l-1.3,1.1h3V199.5z"/>
</g>
<line class="st87" x1="6.5" y1="196.7" x2="11.9" y2="196.7"/>
<line class="st87" x1="42.2" y1="196.7" x2="36.7" y2="196.7"/>
<g>
	<path class="st86" d="M16.4,156.2v7.3h-1.5v-5.5l-1.6,1l-0.7-1.1l2.4-1.6H16.4z"/>
	<path class="st86" d="M18.9,157c0.5-0.6,1.2-0.9,2.1-0.9s1.6,0.3,2.1,0.9c0.5,0.6,0.7,1.6,0.7,2.9s-0.2,2.3-0.7,2.9
		c-0.5,0.6-1.2,0.9-2.1,0.9s-1.6-0.3-2.1-0.9c-0.5-0.6-0.7-1.5-0.7-2.9S18.4,157.6,18.9,157z M22.2,159.8c0-0.9-0.1-1.5-0.3-1.9
		c-0.2-0.4-0.5-0.5-1-0.5s-0.8,0.2-1,0.5c-0.2,0.4-0.3,1-0.3,1.9s0.1,1.5,0.3,1.9s0.5,0.5,1,0.5s0.8-0.2,1-0.5
		C22.2,161.4,22.2,160.7,22.2,159.8z"/>
	<path class="st86" d="M24.8,156.5c0.7-0.3,1.4-0.4,2.3-0.4c0.8,0,1.4,0.2,1.8,0.5c0.4,0.3,0.6,0.8,0.6,1.5s-0.3,1.2-0.8,1.6
		c0.4,0.2,0.6,0.4,0.8,0.6c0.1,0.2,0.2,0.5,0.2,1c0,0.8-0.2,1.4-0.6,1.7c-0.4,0.4-1,0.6-1.9,0.6c-0.6,0-1.3-0.1-2-0.3l-0.4-0.1
		l0.1-1.2c0.8,0.1,1.5,0.2,2.1,0.2c0.8,0,1.1-0.3,1.1-1c0-0.3-0.1-0.5-0.3-0.6s-0.4-0.2-0.8-0.2h-1.5v-1.3h1.5
		c0.2,0,0.5-0.1,0.6-0.3c0.2-0.2,0.3-0.4,0.3-0.7c0-0.5-0.4-0.8-1.1-0.8c-0.5,0-1,0.1-1.6,0.2l-0.3,0L24.8,156.5z"/>
	<path class="st86" d="M35.7,157.6c-0.7-0.1-1.4-0.2-1.9-0.2c-1,0-1.6,0.6-1.6,1.7l0.2-0.1c0.5-0.1,0.9-0.2,1.2-0.2
		c0.8,0,1.5,0.2,1.9,0.6c0.4,0.4,0.6,1,0.6,1.8s-0.2,1.4-0.7,1.8c-0.5,0.4-1.1,0.6-2,0.6c-0.9,0-1.6-0.3-2-1
		c-0.5-0.6-0.7-1.6-0.7-2.9c0-1.3,0.3-2.2,0.8-2.8s1.3-0.9,2.2-0.9c0.6,0,1.2,0.1,1.8,0.2l0.3,0.1L35.7,157.6z M33.4,160.1
		c-0.3,0-0.7,0.1-1.1,0.2l-0.2,0.1c0,1.3,0.4,1.9,1.2,1.9c0.4,0,0.6-0.1,0.8-0.3c0.2-0.2,0.3-0.5,0.3-0.8
		C34.5,160.5,34.1,160.1,33.4,160.1z"/>
</g>
<line class="st87" x1="6.5" y1="160.7" x2="11.9" y2="160.7"/>
<line class="st87" x1="42.2" y1="160.7" x2="36.7" y2="160.7"/>
<g>
	<path class="st86" d="M16.1,119.1v7.3h-1.5v-5.5l-1.6,1l-0.7-1.1l2.4-1.6H16.1z"/>
	<path class="st86" d="M18.6,119.8c0.5-0.6,1.2-0.9,2.1-0.9s1.6,0.3,2.1,0.9c0.5,0.6,0.7,1.6,0.7,2.9s-0.2,2.3-0.7,2.9
		c-0.5,0.6-1.2,0.9-2.1,0.9s-1.6-0.3-2.1-0.9c-0.5-0.6-0.7-1.5-0.7-2.9S18.1,120.4,18.6,119.8z M22,122.7c0-0.9-0.1-1.5-0.3-1.9
		c-0.2-0.4-0.5-0.5-1-0.5s-0.8,0.2-1,0.5c-0.2,0.4-0.3,1-0.3,1.9s0.1,1.5,0.3,1.9s0.5,0.5,1,0.5s0.8-0.2,1-0.5
		C21.9,124.2,22,123.6,22,122.7z"/>
	<path class="st86" d="M27.3,126.3v-1.2h-3.1V124l1.8-4.9h1.7l-1.9,4.7h1.6v-2h1.5v2h0.7v1.3h-0.7v1.2H27.3z"/>
	<path class="st86" d="M30.9,119.8c0.5-0.6,1.2-0.9,2.1-0.9s1.6,0.3,2.1,0.9c0.5,0.6,0.7,1.6,0.7,2.9s-0.2,2.3-0.7,2.9
		c-0.5,0.6-1.2,0.9-2.1,0.9s-1.6-0.3-2.1-0.9c-0.5-0.6-0.7-1.5-0.7-2.9S30.4,120.4,30.9,119.8z M34.3,122.7c0-0.9-0.1-1.5-0.3-1.9
		c-0.2-0.4-0.5-0.5-1-0.5s-0.8,0.2-1,0.5c-0.2,0.4-0.3,1-0.3,1.9s0.1,1.5,0.3,1.9c0.2,0.4,0.5,0.5,1,0.5s0.8-0.2,1-0.5
		C34.2,124.2,34.3,123.6,34.3,122.7z"/>
</g>
<line class="st87" x1="6.2" y1="123.5" x2="11.6" y2="123.5"/>
<line class="st87" x1="41.9" y1="123.5" x2="36.4" y2="123.5"/>
<g>
	<path class="st86" d="M16.3,81.3v7.3h-1.5V83l-1.6,1l-0.7-1.1l2.4-1.6H16.3z"/>
	<path class="st86" d="M18.8,82c0.5-0.6,1.2-0.9,2.1-0.9c0.9,0,1.6,0.3,2.1,0.9c0.5,0.6,0.7,1.6,0.7,2.9s-0.2,2.3-0.7,2.9
		c-0.5,0.6-1.2,0.9-2.1,0.9c-0.9,0-1.6-0.3-2.1-0.9c-0.5-0.6-0.7-1.5-0.7-2.9S18.4,82.6,18.8,82z M22.2,84.9c0-0.9-0.1-1.5-0.3-1.9
		s-0.5-0.5-1-0.5s-0.8,0.2-1,0.5c-0.2,0.4-0.3,1-0.3,1.9s0.1,1.5,0.3,1.9c0.2,0.4,0.5,0.5,1,0.5s0.8-0.2,1-0.5S22.2,85.8,22.2,84.9z
		"/>
	<path class="st86" d="M27.6,88.5v-1.2h-3.1v-1.2l1.8-4.9h1.7L26,86h1.6v-2h1.5v2h0.7v1.3h-0.7v1.2H27.6z"/>
	<path class="st86" d="M33.7,88.5v-1.2h-3.1v-1.2l1.8-4.9h1.7L32.2,86h1.6v-2h1.5v2h0.7v1.3h-0.7v1.2H33.7z"/>
</g>
<line class="st87" x1="6.5" y1="85.7" x2="11.9" y2="85.7"/>
<line class="st87" x1="42.2" y1="85.7" x2="36.6" y2="85.7"/>
</svg>
