<?xml version="1.0" encoding="utf-8"?>
<!-- Generator: Adobe Illustrator 28.0.0, SVG Export Plug-In . SVG Version: 6.00 Build 0)  -->
<svg version="1.1" id="Livello_1" xmlns="http://www.w3.org/2000/svg" xmlns:xlink="http://www.w3.org/1999/xlink" x="0px" y="0px"
		width="50px" height="677px"  viewBox="0 0 48.7 677.2" style="enable-background:new 0 0 48.7 677.2;" xml:space="preserve">
<style type="text/css">
	.st0{display:none;}
	.st1{display:inline;}
	.st2{clip-path:url(#SVGID_00000080917885483821960040000016385033365107746976_);}
	.st3{fill:#F59826;}
	.st4{fill:#FDCC22;}
	.st5{fill:#6655AD;}
	.st6{fill:#975EAD;}
	.st7{fill:#C66AAF;}
	.st8{fill:#AF48A1;}
	.st9{fill:#981595;}
	.st10{fill:#660666;}
	.st11{fill:#640E0E;}
	.st12{fill:#991E1F;}
	.st13{fill:#CB2527;}
	.st14{fill:#EC2426;}
	.st15{fill:#F06626;}
	.st16{fill:#FCFC1E;}
	.st17{fill:#CBE436;}
	.st18{fill:#7ECB47;}
	.st19{fill:#0EB04E;}
	.st20{fill:#37BD7C;}
	.st21{fill:#58C3BA;}
	.st22{fill:#6FC9DC;}
	.st23{fill:#33BCF3;}
	.st24{fill:#498DD2;}
	.st25{fill:#4469BB;}
	.st26{fill:#3F57B0;}
	.st27{display:none;fill:none;stroke:#3C3430;stroke-width:3;stroke-miterlimit:10;}
	.st28{clip-path:url(#SVGID_00000115474607422127660670000016866332654143704480_);fill:#FFFAFA;}
	.st29{clip-path:url(#SVGID_00000020383045019318017180000000456552668318316989_);fill:#FBD5D6;}
	.st30{clip-path:url(#SVGID_00000108305716360861819910000008153309188643196833_);fill:#F9C1C2;}
	.st31{clip-path:url(#SVGID_00000135657150215299510550000000323076229731123871_);fill:#FDEBEB;}
	.st32{clip-path:url(#SVGID_00000143600876913312487200000016101985504286310795_);fill:#F6ABAD;}
	.st33{clip-path:url(#SVGID_00000150091736882812662230000010525238825608499110_);fill:#F49799;}
	.st34{clip-path:url(#SVGID_00000132799526116839024930000003629792365429721020_);fill:#C8E8F0;}
	.st35{clip-path:url(#SVGID_00000121996558552869639780000000455912378736717756_);fill:#D0EBF7;}
	.st36{clip-path:url(#SVGID_00000163787800842632244040000008659284145183357316_);fill:#4898DA;}
	.st37{clip-path:url(#SVGID_00000165193253313239120400000003825717747567815605_);fill:#A3A5D7;}
	.st38{clip-path:url(#SVGID_00000135655072526564940570000015507506779467690637_);fill:#B988C1;}
	.st39{clip-path:url(#SVGID_00000083076264398044732990000006505959316402174864_);fill:#D7A2CD;}
	.st40{clip-path:url(#SVGID_00000132061223190791076000000009961881104718651010_);fill:#E8BEDB;}
	.st41{clip-path:url(#SVGID_00000015314510014790592070000003835277395142732437_);fill:#E67D9B;}
	.st42{clip-path:url(#SVGID_00000169528558627393483670000014524176358865266338_);fill:#DB4C4D;}
	.st43{clip-path:url(#SVGID_00000130611329587924342150000004295172944309190804_);fill:#EF5A5C;}
	.st44{clip-path:url(#SVGID_00000109739884152751429600000007938494227964511662_);fill:#F7A25C;}
	.st45{clip-path:url(#SVGID_00000154406268266178195230000008998770971819588992_);fill:#FDD58F;}
	.st46{clip-path:url(#SVGID_00000026876127016836565950000005693007631843763114_);fill:#FFE173;}
	.st47{clip-path:url(#SVGID_00000083774302309302430460000006510339540131900297_);fill:#FEFE82;}
	.st48{clip-path:url(#SVGID_00000158742836677726926250000003142783166848878783_);fill:#FFFFC7;}
	.st49{clip-path:url(#SVGID_00000023278985776001583000000011048695967522527915_);fill:#F3F3A1;}
	.st50{clip-path:url(#SVGID_00000146473806062272399780000000603799313678415279_);fill:#D3ECA4;}
	.st51{clip-path:url(#SVGID_00000080914675587570986930000014863571916475501478_);fill:#C3E6D8;}
	.st52{clip-path:url(#SVGID_00000096058574191569459810000015897236297532430981_);fill:#C8E8F0;}
	.st53{clip-path:url(#SVGID_00000128452421473265894480000014541804661486324376_);fill:#D0EBF7;}
	.st54{clip-path:url(#SVGID_00000093147594880811318930000000800766295928227496_);fill:#EC2426;}
	.st55{clip-path:url(#SVGID_00000104675346240302948470000011470121869833855114_);fill:#FCFC1E;}
	.st56{clip-path:url(#SVGID_00000125588701142570843440000017943493035280350653_);fill:#0B7F3F;}
	.st57{clip-path:url(#SVGID_00000173862363963657629710000005434978320898653085_);fill:#F7A426;}
	.st58{clip-path:url(#SVGID_00000085208689330269113070000004326871003450927284_);fill:#6FC9DC;}
	.st59{clip-path:url(#SVGID_00000042000720120709713980000007887619401074716070_);fill:#3F57B0;}
	.st60{display:none;fill:#3A332F;}
	.st61{display:none;fill:none;stroke:#3C3430;stroke-width:2.9317;stroke-miterlimit:9.7722;}
	.st62{display:inline;fill:#3C3530;}
	.st63{display:inline;fill:#FFFFFF;}
	.st64{display:none;fill:none;}
	.st65{display:none;enable-background:new    ;}
	.st66{clip-path:url(#SVGID_00000140730141547617135440000001061815687694956969_);}
	.st67{fill:#235A95;}
	.st68{fill:#661515;}
	.st69{fill:#981F1F;}
	.st70{fill:#CB2A2A;}
	.st71{fill:#DA4C4D;}
	.st72{fill:#EE5A5C;}
	.st73{fill:#F0A0A0;}
	.st74{fill:#FFB4B4;}
	.st75{fill:#FFDCDC;}
	.st76{fill:#F8E8E8;}
	.st77{fill:#DEEAF7;}
	.st78{fill:#BDD5EF;}
	.st79{fill:#9CC1E7;}
	.st80{fill:#79AADE;}
	.st81{fill:#548ECE;}
	.st82{fill:#2E6FB8;}
	.st83{fill:#39322E;}
	.st84{fill:none;}
	.st85{fill:none;stroke:#3C3430;stroke-width:2;stroke-miterlimit:9.7722;}
	.st86{fill:#FFFFFF;}
	.st87{fill:none;stroke:#3C3430;stroke-miterlimit:9.7722;}
	.st88{fill:#3B3330;}
</style>
<g>
	<g>
		<g>
			<g>
				<g>
					<g>
						<g>
							<g>
								<defs>
									<path id="SVGID_00000039831872382607331490000009351676141746235054_" d="M42.8,671.1c-0.5,3.9-9,4.7-17.1,4.7l-0.9,0
										c-7.9,0.4-18.4,0.2-18.4-4.5L5.9,55.1c1.7-5.6,11.9-5.6,18.2-5.6l0,0c7.5,0,16.3-2,18.1,3.8l0.7,617.9V671.1z"/>
								</defs>
								<clipPath id="SVGID_00000055695886869934600050000008920127524918239374_">
									<use xlink:href="#SVGID_00000039831872382607331490000009351676141746235054_"  style="overflow:visible;"/>
								</clipPath>
								<g style="clip-path:url(#SVGID_00000055695886869934600050000008920127524918239374_);">
									<rect x="-10.5" y="606.8" class="st67" width="72.3" height="99.4"/>
									<rect x="-10.9" y="48.8" class="st68" width="74.9" height="37.2"/>
									<rect x="-10.9" y="86" class="st69" width="74.9" height="37.4"/>
									<rect x="-10.9" y="123.4" class="st70" width="74.9" height="37.2"/>
									<rect x="-10.9" y="160.6" class="st71" width="74.9" height="37.2"/>
									<rect x="-10.9" y="197.7" class="st72" width="74.9" height="37.2"/>
									<rect x="-10.9" y="234.9" class="st73" width="74.9" height="37.2"/>
									<rect x="-10.9" y="272.1" class="st74" width="74.9" height="37.2"/>
									<rect x="-10.9" y="309.1" class="st75" width="74.9" height="37.2"/>
									<rect x="-10.9" y="346.3" class="st76" width="74.9" height="37.2"/>
									<rect x="-10.9" y="383.5" class="st77" width="74.9" height="37.2"/>
									<rect x="-10.9" y="420.7" class="st78" width="74.9" height="37.5"/>
									<rect x="-10.9" y="458.1" class="st79" width="74.9" height="37.2"/>
									<rect x="-10.9" y="495.2" class="st80" width="74.9" height="37.2"/>
									<rect x="-10.9" y="532.4" class="st81" width="74.9" height="37.2"/>
									<rect x="-10.9" y="569.6" class="st82" width="74.9" height="37.2"/>
								</g>
							</g>
						</g>
					</g>
				</g>
			</g>
		</g>
	</g>
</g>
<circle class="st83" cx="24.1" cy="26.6" r="19.8"/>
<rect x="11.1" y="632" class="st84" width="15.4" height="11.8"/>
<path class="st85" d="M36.6,675.8H12.1c-3.4,0-6.2-2.8-6.2-6.2V56.1c0-3.4,2.8-6.2,6.2-6.2h24.5c3.4,0,6.2,2.8,6.2,6.2v613.5
	C42.8,673,40,675.8,36.6,675.8z"/>
<g>
	<path class="st86" d="M17.5,609.3c1.3,0,2-0.8,2-2.5c-0.7,0.3-1.4,0.4-1.9,0.4c-1.6,0-2.4-0.7-2.4-2.2c0-0.7,0.2-1.3,0.7-1.8
		c0.5-0.4,1.1-0.6,1.8-0.6c0.9,0,1.5,0.3,2,1c0.4,0.7,0.6,1.6,0.6,2.9s-0.2,2.2-0.7,2.8c-0.5,0.6-1.2,0.8-2.2,0.8
		c-0.5,0-1.1-0.1-1.7-0.2l-0.3,0l0.1-0.7C16.3,609.3,16.9,609.3,17.5,609.3z M17.7,606.5c0.4,0,1-0.1,1.6-0.3l0.3-0.1
		c0-1.8-0.6-2.7-1.8-2.7c-0.5,0-0.9,0.1-1.2,0.4c-0.3,0.3-0.4,0.7-0.4,1.2C16.2,606,16.7,606.5,17.7,606.5z"/>
	<path class="st86" d="M22.1,603c0.5-0.3,1.1-0.5,1.9-0.5s1.4,0.2,1.9,0.5c0.5,0.3,0.7,0.8,0.7,1.4c0,0.5-0.1,0.8-0.3,1
		c-0.2,0.2-0.5,0.5-0.9,0.7c0.4,0.2,0.8,0.4,1,0.7s0.3,0.6,0.3,1.1c0,1.4-0.9,2.1-2.7,2.1s-2.7-0.7-2.7-2c0-0.5,0.1-0.9,0.3-1.2
		c0.2-0.3,0.5-0.5,1-0.8c-0.4-0.2-0.7-0.4-0.9-0.7s-0.3-0.6-0.3-1C21.5,603.8,21.7,603.4,22.1,603z M22.2,608c0,0.9,0.6,1.3,1.8,1.3
		s1.8-0.5,1.8-1.4c0-0.4-0.1-0.7-0.3-0.9c-0.2-0.2-0.5-0.3-1-0.5h-1.2c-0.4,0.1-0.7,0.3-0.9,0.5C22.3,607.3,22.2,607.6,22.2,608z
		 M25.8,604.6c0-0.8-0.6-1.2-1.7-1.2s-1.7,0.4-1.7,1.2c0,0.3,0.1,0.6,0.3,0.8s0.4,0.4,0.8,0.5h1.2c0.4-0.1,0.7-0.3,0.9-0.5
		C25.7,605.1,25.8,604.9,25.8,604.6z"/>
	<path class="st86" d="M28.3,603c0.5-0.3,1.1-0.5,1.9-0.5s1.4,0.2,1.9,0.5c0.5,0.3,0.7,0.8,0.7,1.4c0,0.5-0.1,0.8-0.3,1
		c-0.2,0.2-0.5,0.5-0.9,0.7c0.4,0.2,0.8,0.4,1,0.7s0.3,0.6,0.3,1.1c0,1.4-0.9,2.1-2.7,2.1c-1.8,0-2.7-0.7-2.7-2
		c0-0.5,0.1-0.9,0.3-1.2c0.2-0.3,0.5-0.5,1-0.8c-0.4-0.2-0.7-0.4-0.9-0.7s-0.3-0.6-0.3-1C27.6,603.8,27.8,603.4,28.3,603z M28.4,608
		c0,0.9,0.6,1.3,1.8,1.3s1.8-0.5,1.8-1.4c0-0.4-0.1-0.7-0.3-0.9c-0.2-0.2-0.5-0.3-1-0.5h-1.2c-0.4,0.1-0.7,0.3-0.9,0.5
		C28.5,607.3,28.4,607.6,28.4,608z M31.9,604.6c0-0.8-0.6-1.2-1.7-1.2s-1.7,0.4-1.7,1.2c0,0.3,0.1,0.6,0.3,0.8s0.4,0.4,0.8,0.5h1.2
		c0.4-0.1,0.7-0.3,0.9-0.5C31.8,605.1,31.9,604.9,31.9,604.6z"/>
</g>
<line class="st87" x1="6.5" y1="607.1" x2="13.1" y2="607.1"/>
<line class="st87" x1="42.2" y1="607.1" x2="35" y2="607.1"/>
<g>
	<path class="st86" d="M16.9,671.9H16v-8.6h0.9v3c0.6-0.3,1.3-0.5,1.8-0.5c0.8,0,1.3,0.2,1.6,0.6c0.3,0.4,0.4,1.2,0.4,2.3v3.2h-0.9
		v-3.1c0-0.8-0.1-1.4-0.2-1.7c-0.2-0.3-0.5-0.5-1-0.5c-0.5,0-1,0.1-1.5,0.3l-0.2,0.1V671.9z"/>
	<path class="st86" d="M25.6,669.1h-2.1v2.8h-0.9v-8.3h3c0.9,0,1.6,0.2,2,0.7c0.4,0.4,0.6,1.1,0.6,2
		C28.3,668.2,27.4,669.1,25.6,669.1z M23.5,668.3h2.1c1.1,0,1.7-0.7,1.7-2c0-0.6-0.1-1.1-0.4-1.4c-0.3-0.3-0.7-0.5-1.3-0.5h-2.1
		V668.3z"/>
	<path class="st86" d="M33.7,667.7v3.1c0,0.3,0.3,0.5,0.7,0.5l0,0.7c-0.6,0-1.1-0.2-1.4-0.5c-0.7,0.3-1.4,0.5-2.2,0.5
		c-0.6,0-1-0.2-1.3-0.5c-0.3-0.3-0.4-0.8-0.4-1.3c0-0.6,0.1-1,0.4-1.3c0.3-0.3,0.8-0.4,1.4-0.5l1.9-0.2v-0.5c0-0.4-0.1-0.7-0.3-0.9
		c-0.2-0.2-0.4-0.3-0.7-0.3c-0.6,0-1.3,0-2,0.1l-0.4,0l0-0.7c0.9-0.2,1.7-0.3,2.3-0.3c0.7,0,1.2,0.2,1.5,0.5
		C33.6,666.6,33.7,667.1,33.7,667.7z M30,670.2c0,0.7,0.3,1.1,0.9,1.1c0.5,0,1.1-0.1,1.6-0.3l0.3-0.1v-2l-1.8,0.2
		c-0.4,0-0.6,0.1-0.8,0.3S30,669.9,30,670.2z"/>
</g>
<path class="st86" d="M23.9,13.1c-7.4,0-13.4,6-13.4,13.4S16.5,40,23.9,40s13.4-6,13.4-13.4S31.4,13.1,23.9,13.1L23.9,13.1z
	 M23.9,14.5c6.6,0,12,5.4,12,12s-5.4,12-12,12s-12-5.4-12-12S17.4,14.5,23.9,14.5L23.9,14.5z M23.1,25.9c-1.1,0.4-1.7,1.3-1.7,2.4
	c0,1.5,1.2,2.6,2.6,2.6c1.5,0,2.6-1.2,2.6-2.6c0-1.1-0.7-2.2-1.7-2.4v-4.4c0-0.5-0.4-0.8-0.8-0.8c-0.5,0-0.8,0.4-0.8,0.8V25.9
	L23.1,25.9z M23.9,26.8c0.8,0,1.3,0.7,1.3,1.3c0,0.8-0.7,1.3-1.3,1.3c-0.8,0-1.3-0.7-1.3-1.3S23.2,26.8,23.9,26.8L23.9,26.8z
	 M32,27.2h1.9c0.5,0,0.9-0.3,0.9-0.7s-0.4-0.7-0.9-0.7H32c-0.5,0-0.9,0.3-0.9,0.7S31.4,27.2,32,27.2L32,27.2z M31.6,23.1l1.6-0.9
	c0.4-0.3,0.7-0.8,0.4-1.1c-0.3-0.4-0.7-0.4-1.2-0.1l-1.5,0.8c-0.4,0.3-0.7,0.8-0.4,1.1C30.6,23.2,31.2,23.3,31.6,23.1L31.6,23.1z
	 M28.7,19.7l0.9-1.6c0.3-0.4,0.1-0.9-0.1-1.2c-0.4-0.3-0.8,0-1.1,0.4l-0.9,1.6c-0.3,0.4-0.1,0.9,0.1,1.2S28.6,20.1,28.7,19.7
	L28.7,19.7z M24.7,18.1v-1.9c0-0.5-0.3-0.9-0.7-0.9c-0.4,0-0.7,0.4-0.7,0.9v1.9c0,0.5,0.3,0.9,0.7,0.9C24.3,19,24.7,18.6,24.7,18.1
	L24.7,18.1z M18.2,18l0.9,1.6c0.3,0.4,0.7,0.7,1.1,0.4c0.4-0.1,0.4-0.7,0.1-1.2l-0.9-1.6c-0.3-0.4-0.7-0.7-1.1-0.4
	C18.1,17,18,17.6,18.2,18L18.2,18z M14.9,22l1.6,0.9c0.4,0.3,0.9,0.1,1.2-0.1c0.1-0.4,0-0.8-0.4-1.1l-1.6-0.9
	c-0.4-0.3-0.9-0.1-1.2,0.1C14.2,21.3,14.3,21.9,14.9,22L14.9,22z M13.8,27.2h1.9c0.5,0,0.9-0.3,0.9-0.7s-0.4-0.7-0.9-0.7h-1.9
	c-0.5,0-0.9,0.3-0.9,0.7C12.9,26.8,13.3,27.2,13.8,27.2L13.8,27.2z"/>
<g>
	<path class="st86" d="M17.3,571.9c1.3,0,2-0.8,2-2.5c-0.7,0.3-1.4,0.4-1.9,0.4c-1.6,0-2.4-0.7-2.4-2.2c0-0.7,0.2-1.3,0.7-1.8
		c0.5-0.4,1.1-0.6,1.8-0.6c0.9,0,1.5,0.3,2,1c0.4,0.7,0.6,1.6,0.6,2.9s-0.2,2.2-0.7,2.8c-0.5,0.6-1.2,0.8-2.2,0.8
		c-0.5,0-1.1-0.1-1.7-0.2l-0.3,0l0.1-0.7C16,571.8,16.7,571.9,17.3,571.9z M17.4,569c0.4,0,1-0.1,1.6-0.3l0.3-0.1
		c0-1.8-0.6-2.7-1.8-2.7c-0.5,0-0.9,0.1-1.2,0.4c-0.3,0.3-0.4,0.7-0.4,1.2C15.9,568.5,16.4,569,17.4,569z"/>
	<path class="st86" d="M23.4,571.9c1.3,0,2-0.8,2-2.5c-0.7,0.3-1.4,0.4-1.9,0.4c-1.6,0-2.4-0.7-2.4-2.2c0-0.7,0.2-1.3,0.7-1.8
		c0.5-0.4,1.1-0.6,1.8-0.6c0.9,0,1.5,0.3,2,1c0.4,0.7,0.6,1.6,0.6,2.9s-0.2,2.2-0.7,2.8c-0.5,0.6-1.2,0.8-2.2,0.8
		c-0.5,0-1.1-0.1-1.7-0.2l-0.3,0l0.1-0.7C22.2,571.8,22.8,571.9,23.4,571.9z M23.6,569c0.4,0,1-0.1,1.6-0.3l0.3-0.1
		c0-1.8-0.6-2.7-1.8-2.7c-0.5,0-0.9,0.1-1.2,0.4c-0.3,0.3-0.4,0.7-0.4,1.2C22,568.5,22.6,569,23.6,569z"/>
	<path class="st86" d="M32.3,572.5h-4.6v-0.7l2.1-2.2c0.4-0.4,0.6-0.7,0.8-0.9c0.2-0.2,0.3-0.4,0.5-0.7c0.1-0.3,0.2-0.5,0.2-0.8
		c0-0.5-0.1-0.8-0.4-1c-0.3-0.2-0.7-0.3-1.2-0.3c-0.5,0-1,0.1-1.6,0.2l-0.3,0.1l-0.1-0.7c0.7-0.2,1.4-0.3,2.2-0.3
		c0.7,0,1.3,0.2,1.7,0.5c0.4,0.3,0.6,0.8,0.6,1.5c0,0.5-0.1,1-0.3,1.3c-0.2,0.4-0.6,0.8-1.2,1.4l-1.9,2h3.6V572.5z"/>
</g>
<line class="st87" x1="6.2" y1="569.6" x2="12.8" y2="569.6"/>
<line class="st87" x1="41.9" y1="569.6" x2="34.8" y2="569.6"/>
<g>
	<path class="st86" d="M17.3,534.4c1.3,0,2-0.8,2-2.5c-0.7,0.3-1.4,0.4-1.9,0.4c-1.6,0-2.4-0.7-2.4-2.2c0-0.7,0.2-1.3,0.7-1.8
		c0.5-0.4,1.1-0.6,1.8-0.6c0.9,0,1.5,0.3,2,1c0.4,0.7,0.6,1.6,0.6,2.9s-0.2,2.2-0.7,2.8c-0.5,0.6-1.2,0.8-2.2,0.8
		c-0.5,0-1.1-0.1-1.7-0.2l-0.3,0l0.1-0.7C16,534.4,16.7,534.4,17.3,534.4z M17.4,531.5c0.4,0,1-0.1,1.6-0.3l0.3-0.1
		c0-1.8-0.6-2.7-1.8-2.7c-0.5,0-0.9,0.1-1.2,0.4c-0.3,0.3-0.4,0.7-0.4,1.2C15.9,531.1,16.4,531.5,17.4,531.5z"/>
	<path class="st86" d="M23.4,534.4c1.3,0,2-0.8,2-2.5c-0.7,0.3-1.4,0.4-1.9,0.4c-1.6,0-2.4-0.7-2.4-2.2c0-0.7,0.2-1.3,0.7-1.8
		c0.5-0.4,1.1-0.6,1.8-0.6c0.9,0,1.5,0.3,2,1c0.4,0.7,0.6,1.6,0.6,2.9s-0.2,2.2-0.7,2.8c-0.5,0.6-1.2,0.8-2.2,0.8
		c-0.5,0-1.1-0.1-1.7-0.2l-0.3,0l0.1-0.7C22.2,534.4,22.8,534.4,23.4,534.4z M23.6,531.5c0.4,0,1-0.1,1.6-0.3l0.3-0.1
		c0-1.8-0.6-2.7-1.8-2.7c-0.5,0-0.9,0.1-1.2,0.4c-0.3,0.3-0.4,0.7-0.4,1.2C22,531.1,22.6,531.5,23.6,531.5z"/>
	<path class="st86" d="M32.2,528.6c-0.7-0.1-1.3-0.1-1.9-0.1c-0.6,0-1.1,0.2-1.4,0.6c-0.3,0.4-0.5,1.1-0.5,1.9l0.3-0.1
		c0.2-0.1,0.4-0.1,0.7-0.2c0.3-0.1,0.6-0.1,0.8-0.1c1.6,0,2.4,0.8,2.4,2.3c0,0.8-0.2,1.4-0.7,1.8c-0.4,0.4-1.1,0.6-1.9,0.6
		c-1.7,0-2.6-1.3-2.6-3.8c0-1.3,0.2-2.2,0.7-2.8s1.2-0.9,2.1-0.9c0.6,0,1.2,0,1.7,0.1l0.3,0.1L32.2,528.6z M30.1,531.3
		c-0.2,0-0.5,0-0.8,0.1c-0.3,0.1-0.5,0.1-0.7,0.2l-0.3,0.1c0,0.8,0.1,1.5,0.4,2c0.3,0.5,0.7,0.7,1.3,0.7s1-0.1,1.3-0.4
		s0.4-0.7,0.4-1.2c0-0.5-0.1-0.9-0.4-1.1C31,531.4,30.6,531.3,30.1,531.3z"/>
</g>
<line class="st87" x1="6.2" y1="532.2" x2="12.8" y2="532.2"/>
<line class="st87" x1="41.9" y1="532.2" x2="34.8" y2="532.2"/>
<g>
	<path class="st86" d="M16,490.6v7.3h-0.8v-6.3l-1.9,1.2l-0.4-0.6l2.3-1.5H16z"/>
	<path class="st86" d="M21,490.5c0.6,0,1.1,0.1,1.5,0.3c0.8,0.5,1.2,1.6,1.2,3.5c0,1.3-0.2,2.3-0.7,2.8c-0.4,0.5-1.1,0.8-2,0.8
		s-1.5-0.3-2-0.8s-0.7-1.5-0.7-2.9c0-1.4,0.2-2.4,0.7-2.9C19.4,490.8,20.1,490.5,21,490.5z M21,491.2c-0.4,0-0.7,0.1-1,0.3
		c-0.5,0.4-0.8,1.3-0.8,2.8c0,1.1,0.1,1.8,0.4,2.2c0.3,0.4,0.7,0.6,1.3,0.6s1.1-0.2,1.3-0.6c0.3-0.4,0.4-1.2,0.4-2.3
		s-0.1-1.9-0.4-2.4C22.1,491.5,21.6,491.2,21,491.2z"/>
	<path class="st86" d="M27.1,490.5c0.6,0,1.1,0.1,1.5,0.3c0.8,0.5,1.2,1.6,1.2,3.5c0,1.3-0.2,2.3-0.7,2.8c-0.4,0.5-1.1,0.8-2,0.8
		s-1.5-0.3-2-0.8s-0.7-1.5-0.7-2.9c0-1.4,0.2-2.4,0.7-2.9C25.6,490.8,26.2,490.5,27.1,490.5z M27.1,491.2c-0.4,0-0.7,0.1-1,0.3
		c-0.5,0.4-0.8,1.3-0.8,2.8c0,1.1,0.1,1.8,0.4,2.2c0.3,0.4,0.7,0.6,1.3,0.6s1.1-0.2,1.3-0.6c0.3-0.4,0.4-1.2,0.4-2.3
		s-0.1-1.9-0.4-2.4C28.2,491.5,27.8,491.2,27.1,491.2z"/>
	<path class="st86" d="M33.3,490.5c0.6,0,1.1,0.1,1.5,0.3c0.8,0.5,1.2,1.6,1.2,3.5c0,1.3-0.2,2.3-0.7,2.8c-0.4,0.5-1.1,0.8-2,0.8
		s-1.5-0.3-2-0.8s-0.7-1.5-0.7-2.9c0-1.4,0.2-2.4,0.7-2.9C31.7,490.8,32.4,490.5,33.3,490.5z M33.3,491.2c-0.4,0-0.7,0.1-1,0.3
		c-0.5,0.4-0.8,1.3-0.8,2.8c0,1.1,0.1,1.8,0.4,2.2c0.3,0.4,0.7,0.6,1.3,0.6s1.1-0.2,1.3-0.6c0.3-0.4,0.4-1.2,0.4-2.3
		s-0.1-1.9-0.4-2.4C34.4,491.5,33.9,491.2,33.3,491.2z"/>
</g>
<line class="st87" x1="6.2" y1="495" x2="11.9" y2="495"/>
<line class="st87" x1="41.9" y1="495" x2="37.1" y2="495"/>
<g>
	<g>
		<path class="st88" d="M16,453.8v7.3h-0.8v-6.3l-1.9,1.2l-0.4-0.6l2.3-1.5H16z"/>
		<path class="st88" d="M21,453.7c0.6,0,1.1,0.1,1.5,0.3c0.8,0.5,1.2,1.6,1.2,3.5c0,1.3-0.2,2.3-0.7,2.8c-0.4,0.5-1.1,0.8-2,0.8
			s-1.5-0.3-2-0.8s-0.7-1.5-0.7-2.9c0-1.4,0.2-2.4,0.7-2.9C19.4,454,20.1,453.7,21,453.7z M21,454.4c-0.4,0-0.7,0.1-1,0.3
			c-0.5,0.4-0.8,1.3-0.8,2.8c0,1.1,0.1,1.8,0.4,2.2c0.3,0.4,0.7,0.6,1.3,0.6s1.1-0.2,1.3-0.6c0.3-0.4,0.4-1.2,0.4-2.3
			s-0.1-1.9-0.4-2.4C22.1,454.7,21.6,454.4,21,454.4z"/>
		<path class="st88" d="M27.1,453.7c0.6,0,1.1,0.1,1.5,0.3c0.8,0.5,1.2,1.6,1.2,3.5c0,1.3-0.2,2.3-0.7,2.8c-0.4,0.5-1.1,0.8-2,0.8
			s-1.5-0.3-2-0.8s-0.7-1.5-0.7-2.9c0-1.4,0.2-2.4,0.7-2.9C25.6,454,26.2,453.7,27.1,453.7z M27.1,454.4c-0.4,0-0.7,0.1-1,0.3
			c-0.5,0.4-0.8,1.3-0.8,2.8c0,1.1,0.1,1.8,0.4,2.2c0.3,0.4,0.7,0.6,1.3,0.6s1.1-0.2,1.3-0.6c0.3-0.4,0.4-1.2,0.4-2.3
			s-0.1-1.9-0.4-2.4C28.2,454.7,27.8,454.4,27.1,454.4z"/>
		<path class="st88" d="M34.2,461.1v-1.4h-3.5V459l2.1-5.2h0.9l-2.1,5.1h2.6v-2.3H35v2.3H36v0.7H35v1.4H34.2z"/>
	</g>
</g>
<line class="st87" x1="6.2" y1="458.2" x2="11.6" y2="458.2"/>
<line class="st87" x1="41.9" y1="458.2" x2="36.4" y2="458.2"/>
<g>
	<g>
		<path class="st88" d="M16,416.6v7.3h-0.8v-6.3l-1.9,1.2l-0.4-0.6l2.3-1.5H16z"/>
		<path class="st88" d="M21,416.4c0.6,0,1.1,0.1,1.5,0.3c0.8,0.5,1.2,1.6,1.2,3.5c0,1.3-0.2,2.3-0.7,2.8c-0.4,0.5-1.1,0.8-2,0.8
			s-1.5-0.3-2-0.8s-0.7-1.5-0.7-2.9c0-1.4,0.2-2.4,0.7-2.9C19.4,416.7,20.1,416.4,21,416.4z M21,417.2c-0.4,0-0.7,0.1-1,0.3
			c-0.5,0.4-0.8,1.3-0.8,2.8c0,1.1,0.1,1.8,0.4,2.2c0.3,0.4,0.7,0.6,1.3,0.6s1.1-0.2,1.3-0.6c0.3-0.4,0.4-1.2,0.4-2.3
			s-0.1-1.9-0.4-2.4C22.1,417.4,21.6,417.2,21,417.2z"/>
		<path class="st88" d="M27.1,416.4c0.6,0,1.1,0.1,1.5,0.3c0.8,0.5,1.2,1.6,1.2,3.5c0,1.3-0.2,2.3-0.7,2.8c-0.4,0.5-1.1,0.8-2,0.8
			s-1.5-0.3-2-0.8s-0.7-1.5-0.7-2.9c0-1.4,0.2-2.4,0.7-2.9C25.6,416.7,26.2,416.4,27.1,416.4z M27.1,417.2c-0.4,0-0.7,0.1-1,0.3
			c-0.5,0.4-0.8,1.3-0.8,2.8c0,1.1,0.1,1.8,0.4,2.2c0.3,0.4,0.7,0.6,1.3,0.6s1.1-0.2,1.3-0.6c0.3-0.4,0.4-1.2,0.4-2.3
			s-0.1-1.9-0.4-2.4C28.2,417.4,27.8,417.2,27.1,417.2z"/>
		<path class="st88" d="M31.4,416.9c0.5-0.3,1.1-0.5,1.9-0.5c0.8,0,1.4,0.2,1.9,0.5c0.5,0.3,0.7,0.8,0.7,1.4c0,0.5-0.1,0.8-0.3,1
			s-0.5,0.5-0.9,0.7c0.4,0.2,0.8,0.4,1,0.7c0.2,0.3,0.3,0.6,0.3,1.1c0,1.4-0.9,2.1-2.7,2.1c-1.8,0-2.7-0.7-2.7-2
			c0-0.5,0.1-0.9,0.3-1.2c0.2-0.3,0.5-0.5,1-0.8c-0.4-0.2-0.7-0.4-0.9-0.7c-0.2-0.3-0.3-0.6-0.3-1C30.7,417.7,30.9,417.2,31.4,416.9
			z M31.5,421.8c0,0.9,0.6,1.3,1.8,1.3c1.2,0,1.8-0.5,1.8-1.4c0-0.4-0.1-0.7-0.3-0.9c-0.2-0.2-0.5-0.3-1-0.5h-1.2
			c-0.4,0.1-0.7,0.3-0.9,0.5C31.6,421.1,31.5,421.4,31.5,421.8z M35,418.4c0-0.8-0.6-1.2-1.7-1.2s-1.7,0.4-1.7,1.2
			c0,0.3,0.1,0.6,0.3,0.8c0.2,0.2,0.4,0.4,0.8,0.5h1.2c0.4-0.1,0.7-0.3,0.9-0.5C34.9,419,35,418.8,35,418.4z"/>
	</g>
</g>
<line class="st87" x1="6.5" y1="420.8" x2="11.9" y2="420.8"/>
<line class="st87" x1="42.2" y1="420.8" x2="36.7" y2="420.8"/>
<g>
	<g>
		<path class="st88" d="M15.7,378.8v7.3h-0.8v-6.3L13,381l-0.4-0.6l2.3-1.5H15.7z"/>
		<path class="st88" d="M20.7,378.7c0.6,0,1.1,0.1,1.5,0.3c0.8,0.5,1.2,1.6,1.2,3.5c0,1.3-0.2,2.3-0.7,2.8c-0.4,0.5-1.1,0.8-2,0.8
			s-1.5-0.3-2-0.8s-0.7-1.5-0.7-2.9c0-1.4,0.2-2.4,0.7-2.9C19.1,379,19.8,378.7,20.7,378.7z M20.7,379.5c-0.4,0-0.7,0.1-1,0.3
			c-0.5,0.4-0.8,1.3-0.8,2.8c0,1.1,0.1,1.8,0.4,2.2c0.3,0.4,0.7,0.6,1.3,0.6s1.1-0.2,1.3-0.6c0.3-0.4,0.4-1.2,0.4-2.3
			s-0.1-1.9-0.4-2.4C21.8,379.7,21.3,379.5,20.7,379.5z"/>
		<path class="st88" d="M28,378.8v7.3h-0.8v-6.3l-1.9,1.2l-0.4-0.6l2.3-1.5H28z"/>
		<path class="st88" d="M35.3,386.1h-4.6v-0.7l2.1-2.2c0.4-0.4,0.6-0.7,0.8-0.9c0.2-0.2,0.3-0.4,0.5-0.7c0.1-0.3,0.2-0.5,0.2-0.8
			c0-0.5-0.1-0.8-0.4-1c-0.3-0.2-0.7-0.3-1.2-0.3c-0.5,0-1,0.1-1.6,0.2l-0.3,0.1l-0.1-0.7c0.7-0.2,1.4-0.3,2.2-0.3
			c0.7,0,1.3,0.2,1.7,0.5s0.6,0.8,0.6,1.5c0,0.5-0.1,1-0.3,1.3c-0.2,0.4-0.6,0.8-1.2,1.4l-1.9,2h3.6V386.1z"/>
	</g>
</g>
<line class="st87" x1="6.2" y1="383.1" x2="11.6" y2="383.1"/>
<line class="st87" x1="41.9" y1="383.1" x2="36.4" y2="383.1"/>
<g>
	<g>
		<path class="st88" d="M15.4,341.1v7.3h-0.8v-6.3l-1.9,1.2l-0.4-0.6l2.3-1.5H15.4z"/>
		<path class="st88" d="M20.4,341c0.6,0,1.1,0.1,1.5,0.3c0.8,0.5,1.2,1.6,1.2,3.5c0,1.3-0.2,2.3-0.7,2.8c-0.4,0.5-1.1,0.8-2,0.8
			s-1.5-0.3-2-0.8s-0.7-1.5-0.7-2.9c0-1.4,0.2-2.4,0.7-2.9C18.8,341.3,19.5,341,20.4,341z M20.4,341.8c-0.4,0-0.7,0.1-1,0.3
			c-0.5,0.4-0.8,1.3-0.8,2.8c0,1.1,0.1,1.8,0.4,2.2c0.3,0.4,0.7,0.6,1.3,0.6s1.1-0.2,1.3-0.6c0.3-0.4,0.4-1.2,0.4-2.3
			s-0.1-1.9-0.4-2.4C21.5,342,21,341.8,20.4,341.8z"/>
		<path class="st88" d="M27.7,341.1v7.3h-0.8v-6.3l-1.9,1.2l-0.4-0.6l2.3-1.5H27.7z"/>
		<path class="st88" d="M34.9,341.9c-0.7-0.1-1.3-0.1-1.9-0.1s-1.1,0.2-1.4,0.6c-0.3,0.4-0.5,1.1-0.5,1.9l0.3-0.1
			c0.2-0.1,0.4-0.1,0.7-0.2c0.3-0.1,0.6-0.1,0.8-0.1c1.6,0,2.4,0.8,2.4,2.3c0,0.8-0.2,1.4-0.7,1.8c-0.4,0.4-1.1,0.6-1.9,0.6
			c-1.7,0-2.6-1.3-2.6-3.8c0-1.3,0.2-2.2,0.7-2.8s1.2-0.9,2.1-0.9c0.6,0,1.2,0,1.7,0.1l0.3,0.1L34.9,341.9z M32.8,344.6
			c-0.2,0-0.5,0-0.8,0.1c-0.3,0.1-0.5,0.1-0.7,0.2L31,345c0,0.8,0.1,1.5,0.4,2s0.7,0.7,1.3,0.7c0.6,0,1-0.1,1.3-0.4s0.4-0.7,0.4-1.2
			c0-0.5-0.1-0.9-0.4-1.1C33.7,344.7,33.3,344.6,32.8,344.6z"/>
	</g>
</g>
<line class="st87" x1="5.9" y1="345.4" x2="11.3" y2="345.4"/>
<line class="st87" x1="41.6" y1="345.4" x2="36.1" y2="345.4"/>
<g>
	<g>
		<path class="st88" d="M15.7,305.1v7.3h-0.8v-6.3l-1.9,1.2l-0.4-0.6l2.3-1.5H15.7z"/>
		<path class="st88" d="M20.7,305c0.6,0,1.1,0.1,1.5,0.3c0.8,0.5,1.2,1.6,1.2,3.5c0,1.3-0.2,2.3-0.7,2.8c-0.4,0.5-1.1,0.8-2,0.8
			s-1.5-0.3-2-0.8s-0.7-1.5-0.7-2.9c0-1.4,0.2-2.4,0.7-2.9C19.1,305.3,19.8,305,20.7,305z M20.7,305.8c-0.4,0-0.7,0.1-1,0.3
			c-0.5,0.4-0.8,1.3-0.8,2.8c0,1.1,0.1,1.8,0.4,2.2c0.3,0.4,0.7,0.6,1.3,0.6s1.1-0.2,1.3-0.6c0.3-0.4,0.4-1.2,0.4-2.3
			s-0.1-1.9-0.4-2.4C21.8,306,21.3,305.8,20.7,305.8z"/>
		<path class="st88" d="M29.2,312.4h-4.6v-0.7l2.1-2.2c0.4-0.4,0.6-0.7,0.8-0.9c0.2-0.2,0.3-0.4,0.5-0.7c0.1-0.3,0.2-0.5,0.2-0.8
			c0-0.5-0.1-0.8-0.4-1c-0.3-0.2-0.7-0.3-1.2-0.3c-0.5,0-1,0.1-1.6,0.2l-0.3,0.1l-0.1-0.7c0.7-0.2,1.4-0.3,2.2-0.3
			c0.7,0,1.3,0.2,1.7,0.5s0.6,0.8,0.6,1.5c0,0.5-0.1,1-0.3,1.3c-0.2,0.4-0.6,0.8-1.2,1.4l-1.9,2h3.6V312.4z"/>
		<path class="st88" d="M33,305c0.6,0,1.1,0.1,1.5,0.3c0.8,0.5,1.2,1.6,1.2,3.5c0,1.3-0.2,2.3-0.7,2.8c-0.4,0.5-1.1,0.8-2,0.8
			s-1.5-0.3-2-0.8s-0.7-1.5-0.7-2.9c0-1.4,0.2-2.4,0.7-2.9C31.4,305.3,32.1,305,33,305z M33,305.8c-0.4,0-0.7,0.1-1,0.3
			c-0.5,0.4-0.8,1.3-0.8,2.8c0,1.1,0.1,1.8,0.4,2.2c0.3,0.4,0.7,0.6,1.3,0.6s1.1-0.2,1.3-0.6c0.3-0.4,0.4-1.2,0.4-2.3
			s-0.1-1.9-0.4-2.4C34.1,306,33.6,305.8,33,305.8z"/>
	</g>
</g>
<line class="st87" x1="6.2" y1="309.4" x2="11.6" y2="309.4"/>
<line class="st87" x1="41.9" y1="309.4" x2="36.4" y2="309.4"/>
<g>
	<g>
		<path class="st88" d="M15.7,267.5v7.3h-0.8v-6.3l-1.9,1.2l-0.4-0.6l2.3-1.5H15.7z"/>
		<path class="st88" d="M20.7,267.4c0.6,0,1.1,0.1,1.5,0.3c0.8,0.5,1.2,1.6,1.2,3.5c0,1.3-0.2,2.3-0.7,2.8c-0.4,0.5-1.1,0.8-2,0.8
			s-1.5-0.3-2-0.8s-0.7-1.5-0.7-2.9c0-1.4,0.2-2.4,0.7-2.9C19.1,267.7,19.8,267.4,20.7,267.4z M20.7,268.2c-0.4,0-0.7,0.1-1,0.3
			c-0.5,0.4-0.8,1.3-0.8,2.8c0,1.1,0.1,1.8,0.4,2.2c0.3,0.4,0.7,0.6,1.3,0.6s1.1-0.2,1.3-0.6c0.3-0.4,0.4-1.2,0.4-2.3
			s-0.1-1.9-0.4-2.4C21.8,268.4,21.3,268.2,20.7,268.2z"/>
		<path class="st88" d="M29.2,274.8h-4.6v-0.7l2.1-2.2c0.4-0.4,0.6-0.7,0.8-0.9c0.2-0.2,0.3-0.4,0.5-0.7c0.1-0.3,0.2-0.5,0.2-0.8
			c0-0.5-0.1-0.8-0.4-1c-0.3-0.2-0.7-0.3-1.2-0.3c-0.5,0-1,0.1-1.6,0.2l-0.3,0.1l-0.1-0.7c0.7-0.2,1.4-0.3,2.2-0.3
			c0.7,0,1.3,0.2,1.7,0.5s0.6,0.8,0.6,1.5c0,0.5-0.1,1-0.3,1.3c-0.2,0.4-0.6,0.8-1.2,1.4l-1.9,2h3.6V274.8z"/>
		<path class="st88" d="M33.9,274.8v-1.4h-3.5v-0.7l2.1-5.2h0.9l-2.1,5.1h2.6v-2.3h0.8v2.3h0.9v0.7h-0.9v1.4H33.9z"/>
	</g>
</g>
<line class="st87" x1="6.2" y1="271.8" x2="11.6" y2="271.8"/>
<line class="st87" x1="41.9" y1="271.8" x2="36.4" y2="271.8"/>
<g>
	<g>
		<path class="st88" d="M15.7,230v7.3h-0.8V231l-1.9,1.2l-0.4-0.6l2.3-1.5H15.7z"/>
		<path class="st88" d="M20.7,229.9c0.6,0,1.1,0.1,1.5,0.3c0.8,0.5,1.2,1.6,1.2,3.5c0,1.3-0.2,2.3-0.7,2.8c-0.4,0.5-1.1,0.8-2,0.8
			s-1.5-0.3-2-0.8s-0.7-1.5-0.7-2.9c0-1.4,0.2-2.4,0.7-2.9C19.1,230.2,19.8,229.9,20.7,229.9z M20.7,230.6c-0.4,0-0.7,0.1-1,0.3
			c-0.5,0.4-0.8,1.3-0.8,2.8c0,1.1,0.1,1.8,0.4,2.2c0.3,0.4,0.7,0.6,1.3,0.6s1.1-0.2,1.3-0.6c0.3-0.4,0.4-1.2,0.4-2.3
			s-0.1-1.9-0.4-2.4C21.8,230.9,21.3,230.6,20.7,230.6z"/>
		<path class="st88" d="M29.2,237.3h-4.6v-0.7l2.1-2.2c0.4-0.4,0.6-0.7,0.8-0.9c0.2-0.2,0.3-0.4,0.5-0.7c0.1-0.3,0.2-0.5,0.2-0.8
			c0-0.5-0.1-0.8-0.4-1c-0.3-0.2-0.7-0.3-1.2-0.3c-0.5,0-1,0.1-1.6,0.2l-0.3,0.1l-0.1-0.7c0.7-0.2,1.4-0.3,2.2-0.3
			c0.7,0,1.3,0.2,1.7,0.5s0.6,0.8,0.6,1.5c0,0.5-0.1,1-0.3,1.3c-0.2,0.4-0.6,0.8-1.2,1.4l-1.9,2h3.6V237.3z"/>
		<path class="st88" d="M31.1,230.4c0.5-0.3,1.1-0.5,1.9-0.5c0.8,0,1.4,0.2,1.9,0.5c0.5,0.3,0.7,0.8,0.7,1.4c0,0.5-0.1,0.8-0.3,1
			s-0.5,0.5-0.9,0.7c0.4,0.2,0.8,0.4,1,0.7c0.2,0.3,0.3,0.6,0.3,1.1c0,1.4-0.9,2.1-2.7,2.1c-1.8,0-2.7-0.7-2.7-2
			c0-0.5,0.1-0.9,0.3-1.2c0.2-0.3,0.5-0.5,1-0.8c-0.4-0.2-0.7-0.4-0.9-0.7c-0.2-0.3-0.3-0.6-0.3-1C30.4,231.1,30.6,230.7,31.1,230.4
			z M31.2,235.3c0,0.9,0.6,1.3,1.8,1.3c1.2,0,1.8-0.5,1.8-1.4c0-0.4-0.1-0.7-0.3-0.9c-0.2-0.2-0.5-0.3-1-0.5h-1.2
			c-0.4,0.1-0.7,0.3-0.9,0.5C31.3,234.6,31.2,234.9,31.2,235.3z M34.7,231.9c0-0.8-0.6-1.2-1.7-1.2c-1.1,0-1.7,0.4-1.7,1.2
			c0,0.3,0.1,0.6,0.3,0.8c0.2,0.2,0.4,0.4,0.8,0.5h1.2c0.4-0.1,0.7-0.3,0.9-0.5C34.6,232.5,34.7,232.2,34.7,231.9z"/>
	</g>
</g>
<line class="st87" x1="6.2" y1="234.3" x2="11.6" y2="234.3"/>
<line class="st87" x1="41.9" y1="234.3" x2="36.4" y2="234.3"/>
<g>
	<path class="st86" d="M16,192.5v7.3h-0.8v-6.3l-1.9,1.2l-0.4-0.6l2.3-1.5H16z"/>
	<path class="st86" d="M21,192.4c0.6,0,1.1,0.1,1.5,0.3c0.8,0.5,1.2,1.6,1.2,3.5c0,1.3-0.2,2.3-0.7,2.8c-0.4,0.5-1.1,0.8-2,0.8
		s-1.5-0.3-2-0.8s-0.7-1.5-0.7-2.9c0-1.4,0.2-2.4,0.7-2.9C19.4,192.6,20.1,192.4,21,192.4z M21,193.1c-0.4,0-0.7,0.1-1,0.3
		c-0.5,0.4-0.8,1.3-0.8,2.8c0,1.1,0.1,1.8,0.4,2.2c0.3,0.4,0.7,0.6,1.3,0.6s1.1-0.2,1.3-0.6c0.3-0.4,0.4-1.2,0.4-2.3
		s-0.1-1.9-0.4-2.4C22.1,193.3,21.6,193.1,21,193.1z"/>
	<path class="st86" d="M24.9,192.7c0.7-0.2,1.4-0.3,2.2-0.3s1.4,0.2,1.7,0.5c0.4,0.3,0.5,0.8,0.5,1.4c0,0.3,0,0.6-0.1,0.7
		s-0.2,0.3-0.2,0.3c-0.1,0.1-0.1,0.2-0.2,0.2c-0.2,0.1-0.3,0.2-0.4,0.3l-0.1,0.1c0.4,0.2,0.7,0.4,0.9,0.6c0.2,0.2,0.3,0.6,0.3,1.2
		c0,0.7-0.2,1.3-0.6,1.7s-1,0.5-1.8,0.5c-0.6,0-1.3-0.1-2-0.2l-0.3-0.1l0.1-0.7c0.8,0.2,1.5,0.2,2.2,0.2c1,0,1.6-0.5,1.6-1.4
		c0-0.9-0.5-1.3-1.5-1.4h-1.5v-0.7h1.5c0.3,0,0.6-0.1,0.9-0.4c0.3-0.2,0.4-0.6,0.4-1s-0.1-0.7-0.3-0.9s-0.6-0.3-1.1-0.3
		c-0.6,0-1.2,0.1-1.7,0.2l-0.3,0.1L24.9,192.7z"/>
	<path class="st86" d="M35.6,199.7H31V199l2.1-2.2c0.4-0.4,0.6-0.7,0.8-0.9c0.2-0.2,0.3-0.4,0.5-0.7c0.1-0.3,0.2-0.5,0.2-0.8
		c0-0.5-0.1-0.8-0.4-1c-0.3-0.2-0.7-0.3-1.2-0.3c-0.5,0-1,0.1-1.6,0.2l-0.3,0.1l-0.1-0.7c0.7-0.2,1.4-0.3,2.2-0.3
		c0.7,0,1.3,0.2,1.7,0.5s0.6,0.8,0.6,1.5c0,0.5-0.1,1-0.3,1.3c-0.2,0.4-0.6,0.8-1.2,1.4l-1.9,2h3.6V199.7z"/>
</g>
<line class="st87" x1="6.5" y1="196.7" x2="11.9" y2="196.7"/>
<line class="st87" x1="42.2" y1="196.7" x2="36.7" y2="196.7"/>
<g>
	<path class="st86" d="M16,156.4v7.3h-0.8v-6.3l-1.9,1.2l-0.4-0.6l2.3-1.5H16z"/>
	<path class="st86" d="M21,156.3c0.6,0,1.1,0.1,1.5,0.3c0.8,0.5,1.2,1.6,1.2,3.5c0,1.3-0.2,2.3-0.7,2.8c-0.4,0.5-1.1,0.8-2,0.8
		s-1.5-0.3-2-0.8s-0.7-1.5-0.7-2.9c0-1.4,0.2-2.4,0.7-2.9C19.4,156.6,20.1,156.3,21,156.3z M21,157c-0.4,0-0.7,0.1-1,0.3
		c-0.5,0.4-0.8,1.3-0.8,2.8c0,1.1,0.1,1.8,0.4,2.2c0.3,0.4,0.7,0.6,1.3,0.6s1.1-0.2,1.3-0.6c0.3-0.4,0.4-1.2,0.4-2.3
		s-0.1-1.9-0.4-2.4C22.1,157.3,21.6,157,21,157z"/>
	<path class="st86" d="M24.9,156.6c0.7-0.2,1.4-0.3,2.2-0.3s1.4,0.2,1.7,0.5c0.4,0.3,0.5,0.8,0.5,1.4c0,0.3,0,0.6-0.1,0.7
		s-0.2,0.3-0.2,0.3c-0.1,0.1-0.1,0.2-0.2,0.2c-0.2,0.1-0.3,0.2-0.4,0.3l-0.1,0.1c0.4,0.2,0.7,0.4,0.9,0.6c0.2,0.2,0.3,0.6,0.3,1.2
		c0,0.7-0.2,1.3-0.6,1.7s-1,0.5-1.8,0.5c-0.6,0-1.3-0.1-2-0.2l-0.3-0.1l0.1-0.7c0.8,0.2,1.5,0.2,2.2,0.2c1,0,1.6-0.5,1.6-1.4
		c0-0.9-0.5-1.3-1.5-1.4h-1.5v-0.7h1.5c0.3,0,0.6-0.1,0.9-0.4c0.3-0.2,0.4-0.6,0.4-1s-0.1-0.7-0.3-0.9S27.5,157,27,157
		c-0.6,0-1.2,0.1-1.7,0.2l-0.3,0.1L24.9,156.6z"/>
	<path class="st86" d="M35.5,157.2c-0.7-0.1-1.3-0.1-1.9-0.1s-1.1,0.2-1.4,0.6c-0.3,0.4-0.5,1.1-0.5,1.9l0.3-0.1
		c0.2-0.1,0.4-0.1,0.7-0.2c0.3-0.1,0.6-0.1,0.8-0.1c1.6,0,2.4,0.8,2.4,2.3c0,0.8-0.2,1.4-0.7,1.8c-0.4,0.4-1.1,0.6-1.9,0.6
		c-1.7,0-2.6-1.3-2.6-3.8c0-1.3,0.2-2.2,0.7-2.8c0.5-0.6,1.2-0.9,2.1-0.9c0.6,0,1.2,0,1.7,0.1l0.3,0.1L35.5,157.2z M33.4,159.9
		c-0.2,0-0.5,0-0.8,0.1c-0.3,0.1-0.5,0.1-0.7,0.2l-0.3,0.1c0,0.8,0.1,1.5,0.4,2c0.3,0.5,0.7,0.7,1.3,0.7c0.6,0,1-0.1,1.3-0.4
		s0.4-0.7,0.4-1.2c0-0.5-0.1-0.9-0.4-1.1C34.3,160,33.9,159.9,33.4,159.9z"/>
</g>
<line class="st87" x1="6.5" y1="160.7" x2="11.9" y2="160.7"/>
<line class="st87" x1="42.2" y1="160.7" x2="36.7" y2="160.7"/>
<g>
	<path class="st86" d="M15.7,119.3v7.3h-0.8v-6.3l-1.9,1.2l-0.4-0.6l2.3-1.5H15.7z"/>
	<path class="st86" d="M20.7,119.2c0.6,0,1.1,0.1,1.5,0.3c0.8,0.5,1.2,1.6,1.2,3.5c0,1.3-0.2,2.3-0.7,2.8c-0.4,0.5-1.1,0.8-2,0.8
		s-1.5-0.3-2-0.8S18,124.3,18,123c0-1.4,0.2-2.4,0.7-2.9C19.1,119.4,19.8,119.2,20.7,119.2z M20.7,119.9c-0.4,0-0.7,0.1-1,0.3
		c-0.5,0.4-0.8,1.3-0.8,2.8c0,1.1,0.1,1.8,0.4,2.2c0.3,0.4,0.7,0.6,1.3,0.6s1.1-0.2,1.3-0.6c0.3-0.4,0.4-1.2,0.4-2.3
		s-0.1-1.9-0.4-2.4C21.8,120.1,21.3,119.9,20.7,119.9z"/>
	<path class="st86" d="M27.7,126.5v-1.4h-3.5v-0.7l2.1-5.2h0.9l-2.1,5.1h2.6v-2.3h0.8v2.3h0.9v0.7h-0.9v1.4H27.7z"/>
	<path class="st86" d="M33,119.2c0.6,0,1.1,0.1,1.5,0.3c0.8,0.5,1.2,1.6,1.2,3.5c0,1.3-0.2,2.3-0.7,2.8c-0.4,0.5-1.1,0.8-2,0.8
		s-1.5-0.3-2-0.8s-0.7-1.5-0.7-2.9c0-1.4,0.2-2.4,0.7-2.9C31.5,119.4,32.1,119.2,33,119.2z M33,119.9c-0.4,0-0.7,0.1-1,0.3
		c-0.5,0.4-0.8,1.3-0.8,2.8c0,1.1,0.1,1.8,0.4,2.2c0.3,0.4,0.7,0.6,1.3,0.6s1.1-0.2,1.3-0.6c0.3-0.4,0.4-1.2,0.4-2.3
		s-0.1-1.9-0.4-2.4C34.1,120.1,33.6,119.9,33,119.9z"/>
</g>
<line class="st87" x1="6.2" y1="123.5" x2="11.6" y2="123.5"/>
<line class="st87" x1="41.9" y1="123.5" x2="36.4" y2="123.5"/>
<g>
	<path class="st86" d="M16,81.5v7.3h-0.8v-6.3l-1.9,1.2L12.9,83l2.3-1.5H16z"/>
	<path class="st86" d="M20.9,81.4c0.6,0,1.1,0.1,1.5,0.3c0.8,0.5,1.2,1.6,1.2,3.5c0,1.3-0.2,2.3-0.7,2.8c-0.4,0.5-1.1,0.8-2,0.8
		s-1.5-0.3-2-0.8c-0.4-0.5-0.7-1.5-0.7-2.9c0-1.4,0.2-2.4,0.7-2.9C19.4,81.6,20.1,81.4,20.9,81.4z M21,82.1c-0.4,0-0.7,0.1-1,0.3
		c-0.5,0.4-0.8,1.3-0.8,2.8c0,1.1,0.1,1.8,0.4,2.2c0.3,0.4,0.7,0.6,1.3,0.6c0.6,0,1.1-0.2,1.3-0.6s0.4-1.2,0.4-2.3s-0.1-1.9-0.4-2.4
		C22,82.3,21.6,82.1,21,82.1z"/>
	<path class="st86" d="M28,88.7v-1.4h-3.5v-0.7l2.1-5.2h0.9l-2.1,5.1H28v-2.3h0.8v2.3h0.9v0.7h-0.9v1.4H28z"/>
	<path class="st86" d="M34.2,88.7v-1.4h-3.5v-0.7l2.1-5.2h0.9l-2.1,5.1h2.6v-2.3H35v2.3h0.9v0.7H35v1.4H34.2z"/>
</g>
<line class="st87" x1="6.5" y1="85.7" x2="11.9" y2="85.7"/>
<line class="st87" x1="42.2" y1="85.7" x2="36.6" y2="85.7"/>
</svg>
