<?xml version="1.0" encoding="utf-8"?>
<!-- Generator: Adobe Illustrator 16.0.0, SVG Export Plug-In . SVG Version: 6.00 Build 0)  -->
<!DOCTYPE svg PUBLIC "-//W3C//DTD SVG 1.1//EN" "http://www.w3.org/Graphics/SVG/1.1/DTD/svg11.dtd">
<svg version="1.1" id="Livello_1" xmlns="http://www.w3.org/2000/svg" xmlns:xlink="http://www.w3.org/1999/xlink" x="0px" y="0px"
	 width="32.586px" height="591.902px" viewBox="0 0 32.586 591.902" enable-background="new 0 0 32.586 591.902"
	 xml:space="preserve">
<g>
	<g>
		<g>
			<defs>
				<path id="SVGID_1_" d="M27.677,582.352c-0.35,3.4-5.674,7.51-10.308,7.51l0,0c-4.592,0.367-10.877-3.314-10.877-7.51V44.106
					c1.024-4.941,6.495-7.798,10.185-7.792l0,0c4.295-0.006,9.896,2.929,11,7.983V582.352L27.677,582.352z"/>
			</defs>
			<clipPath id="SVGID_2_">
				<use xlink:href="#SVGID_1_"  overflow="visible"/>
			</clipPath>
			<rect x="-4.611" y="36.106" clip-path="url(#SVGID_2_)" fill="#4897D9" width="44.329" height="29.383"/>
		</g>
	</g>
	<g>
		<g>
			<defs>
				<path id="SVGID_3_" d="M27.677,582.352c-0.35,3.4-5.674,7.51-10.308,7.51l0,0c-4.592,0.367-10.877-3.314-10.877-7.51V44.106
					c1.024-4.941,6.495-7.798,10.185-7.792l0,0c4.295-0.006,9.896,2.929,11,7.983V582.352L27.677,582.352z"/>
			</defs>
			<clipPath id="SVGID_4_">
				<use xlink:href="#SVGID_3_"  overflow="visible"/>
			</clipPath>
			<rect x="-4.61" y="65.489" clip-path="url(#SVGID_4_)" fill="#A2A4D6" width="44.33" height="29.384"/>
		</g>
	</g>
	<g>
		<g>
			<defs>
				<path id="SVGID_5_" d="M27.677,582.352c-0.35,3.4-5.674,7.51-10.308,7.51l0,0c-4.592,0.367-10.877-3.314-10.877-7.51V44.106
					c1.024-4.941,6.495-7.798,10.185-7.792l0,0c4.295-0.006,9.896,2.929,11,7.983V582.352L27.677,582.352z"/>
			</defs>
			<clipPath id="SVGID_6_">
				<use xlink:href="#SVGID_5_"  overflow="visible"/>
			</clipPath>
			<rect x="-4.141" y="94.875" clip-path="url(#SVGID_6_)" fill="#B887C0" width="44.329" height="29.384"/>
		</g>
	</g>
	<g>
		<g>
			<defs>
				<path id="SVGID_7_" d="M27.677,582.352c-0.35,3.4-5.674,7.51-10.308,7.51l0,0c-4.592,0.367-10.877-3.314-10.877-7.51V44.106
					c1.024-4.941,6.495-7.798,10.185-7.792l0,0c4.295-0.006,9.896,2.929,11,7.983V582.352L27.677,582.352z"/>
			</defs>
			<clipPath id="SVGID_8_">
				<use xlink:href="#SVGID_7_"  overflow="visible"/>
			</clipPath>
			<rect x="-4.14" y="124.259" clip-path="url(#SVGID_8_)" fill="#D6A1CC" width="44.328" height="29.384"/>
		</g>
	</g>
	<g>
		<g>
			<defs>
				<path id="SVGID_9_" d="M27.677,582.352c-0.35,3.4-5.674,7.51-10.308,7.51l0,0c-4.592,0.367-10.877-3.314-10.877-7.51V44.106
					c1.024-4.941,6.495-7.798,10.185-7.792l0,0c4.295-0.006,9.896,2.929,11,7.983V582.352L27.677,582.352z"/>
			</defs>
			<clipPath id="SVGID_10_">
				<use xlink:href="#SVGID_9_"  overflow="visible"/>
			</clipPath>
			<rect x="-4.611" y="153.642" clip-path="url(#SVGID_10_)" fill="#E7BDDA" width="44.329" height="29.385"/>
		</g>
	</g>
	<g>
		<g>
			<defs>
				<path id="SVGID_11_" d="M27.677,582.352c-0.35,3.4-5.674,7.51-10.308,7.51l0,0c-4.592,0.367-10.877-3.314-10.877-7.51V44.106
					c1.024-4.941,6.495-7.798,10.185-7.792l0,0c4.295-0.006,9.896,2.929,11,7.983V582.352L27.677,582.352z"/>
			</defs>
			<clipPath id="SVGID_12_">
				<use xlink:href="#SVGID_11_"  overflow="visible"/>
			</clipPath>
			<rect x="-4.61" y="183.026" clip-path="url(#SVGID_12_)" fill="#E57D9A" width="44.33" height="29.384"/>
		</g>
	</g>
	<g>
		<g>
			<defs>
				<path id="SVGID_13_" d="M27.677,582.352c-0.35,3.4-5.674,7.51-10.308,7.51l0,0c-4.592,0.367-10.877-3.314-10.877-7.51V44.106
					c1.024-4.941,6.495-7.798,10.185-7.792l0,0c4.295-0.006,9.896,2.929,11,7.983V582.352L27.677,582.352z"/>
			</defs>
			<clipPath id="SVGID_14_">
				<use xlink:href="#SVGID_13_"  overflow="visible"/>
			</clipPath>
			<rect x="-4.611" y="212.41" clip-path="url(#SVGID_14_)" fill="#DA4C4D" width="44.329" height="29.385"/>
		</g>
	</g>
	<g>
		<g>
			<defs>
				<path id="SVGID_15_" d="M27.677,582.352c-0.35,3.4-5.674,7.51-10.308,7.51l0,0c-4.592,0.367-10.877-3.314-10.877-7.51V44.106
					c1.024-4.941,6.495-7.798,10.185-7.792l0,0c4.295-0.006,9.896,2.929,11,7.983V582.352L27.677,582.352z"/>
			</defs>
			<clipPath id="SVGID_16_">
				<use xlink:href="#SVGID_15_"  overflow="visible"/>
			</clipPath>
			<rect x="-4.61" y="241.795" clip-path="url(#SVGID_16_)" fill="#EE5A5C" width="44.33" height="29.383"/>
		</g>
	</g>
	<g>
		<g>
			<defs>
				<path id="SVGID_17_" d="M27.677,582.352c-0.35,3.4-5.674,7.51-10.308,7.51l0,0c-4.592,0.367-10.877-3.314-10.877-7.51V44.106
					c1.024-4.941,6.495-7.798,10.185-7.792l0,0c4.295-0.006,9.896,2.929,11,7.983V582.352L27.677,582.352z"/>
			</defs>
			<clipPath id="SVGID_18_">
				<use xlink:href="#SVGID_17_"  overflow="visible"/>
			</clipPath>
			<rect x="-4.14" y="271.177" clip-path="url(#SVGID_18_)" fill="#F6A15C" width="44.328" height="29.383"/>
		</g>
	</g>
	<g>
		<g>
			<defs>
				<path id="SVGID_19_" d="M27.677,582.352c-0.35,3.4-5.674,7.51-10.308,7.51l0,0c-4.592,0.367-10.877-3.314-10.877-7.51V44.106
					c1.024-4.941,6.495-7.798,10.185-7.792l0,0c4.295-0.006,9.896,2.929,11,7.983V582.352L27.677,582.352z"/>
			</defs>
			<clipPath id="SVGID_20_">
				<use xlink:href="#SVGID_19_"  overflow="visible"/>
			</clipPath>
			<rect x="-4.14" y="300.559" clip-path="url(#SVGID_20_)" fill="#FCD48E" width="44.328" height="29.387"/>
		</g>
	</g>
	<g>
		<g>
			<defs>
				<path id="SVGID_21_" d="M27.677,582.352c-0.35,3.4-5.674,7.51-10.308,7.51l0,0c-4.592,0.367-10.877-3.314-10.877-7.51V44.106
					c1.024-4.941,6.495-7.798,10.185-7.792l0,0c4.295-0.006,9.896,2.929,11,7.983V582.352L27.677,582.352z"/>
			</defs>
			<clipPath id="SVGID_22_">
				<use xlink:href="#SVGID_21_"  overflow="visible"/>
			</clipPath>
			<rect x="-4.14" y="329.945" clip-path="url(#SVGID_22_)" fill="#FFE073" width="44.328" height="29.385"/>
		</g>
	</g>
	<g>
		<g>
			<defs>
				<path id="SVGID_23_" d="M27.677,582.352c-0.35,3.4-5.674,7.51-10.308,7.51l0,0c-4.592,0.367-10.877-3.314-10.877-7.51V44.106
					c1.024-4.941,6.495-7.798,10.185-7.792l0,0c4.295-0.006,9.896,2.929,11,7.983V582.352L27.677,582.352z"/>
			</defs>
			<clipPath id="SVGID_24_">
				<use xlink:href="#SVGID_23_"  overflow="visible"/>
			</clipPath>
			<rect x="-3.669" y="447.479" clip-path="url(#SVGID_24_)" fill="#D2EBA3" width="44.329" height="29.386"/>
		</g>
	</g>
	<g>
		<g>
			<defs>
				<path id="SVGID_25_" d="M27.677,582.352c-0.35,3.4-5.674,7.51-10.308,7.51l0,0c-4.592,0.367-10.877-3.314-10.877-7.51V44.106
					c1.024-4.941,6.495-7.798,10.185-7.792l0,0c4.295-0.006,9.896,2.929,11,7.983V582.352L27.677,582.352z"/>
			</defs>
			<clipPath id="SVGID_26_">
				<use xlink:href="#SVGID_25_"  overflow="visible"/>
			</clipPath>
			<rect x="-3.668" y="476.865" clip-path="url(#SVGID_26_)" fill="#C2E5D7" width="44.329" height="29.384"/>
		</g>
	</g>
	<g>
		<g>
			<defs>
				<path id="SVGID_27_" d="M27.677,582.352c-0.35,3.4-5.674,7.51-10.308,7.51l0,0c-4.592,0.367-10.877-3.314-10.877-7.51V44.106
					c1.024-4.941,6.495-7.798,10.185-7.792l0,0c4.295-0.006,9.896,2.929,11,7.983V582.352L27.677,582.352z"/>
			</defs>
			<clipPath id="SVGID_28_">
				<use xlink:href="#SVGID_27_"  overflow="visible"/>
			</clipPath>
			<rect x="-3.201" y="506.249" clip-path="url(#SVGID_28_)" fill="#C7E7EF" width="44.329" height="29.384"/>
		</g>
	</g>
	<g>
		<g>
			<defs>
				<path id="SVGID_29_" d="M27.677,582.352c-0.35,3.4-5.674,7.51-10.308,7.51l0,0c-4.592,0.367-10.877-3.314-10.877-7.51V44.106
					c1.024-4.941,6.495-7.798,10.185-7.792l0,0c4.295-0.006,9.896,2.929,11,7.983V582.352L27.677,582.352z"/>
			</defs>
			<clipPath id="SVGID_30_">
				<use xlink:href="#SVGID_29_"  overflow="visible"/>
			</clipPath>
			<rect x="-3.201" y="535.633" clip-path="url(#SVGID_30_)" fill="#CFEAF6" width="44.329" height="54.463"/>
		</g>
	</g>
	<g>
		<g>
			<defs>
				<path id="SVGID_31_" d="M27.677,582.352c-0.35,3.4-5.674,7.51-10.308,7.51l0,0c-4.592,0.367-10.877-3.314-10.877-7.51V44.106
					c1.024-4.941,6.495-7.798,10.185-7.792l0,0c4.295-0.006,9.896,2.929,11,7.983V582.352L27.677,582.352z"/>
			</defs>
			<clipPath id="SVGID_32_">
				<use xlink:href="#SVGID_31_"  overflow="visible"/>
			</clipPath>
			<rect x="-3.669" y="359.33" clip-path="url(#SVGID_32_)" fill="#FDFD81" width="44.329" height="29.384"/>
		</g>
	</g>
	<g>
		<g>
			<defs>
				<path id="SVGID_33_" d="M27.677,582.352c-0.35,3.4-5.674,7.51-10.308,7.51l0,0c-4.592,0.367-10.877-3.314-10.877-7.51V44.106
					c1.024-4.941,6.495-7.798,10.185-7.792l0,0c4.295-0.006,9.896,2.929,11,7.983V582.352L27.677,582.352z"/>
			</defs>
			<clipPath id="SVGID_34_">
				<use xlink:href="#SVGID_33_"  overflow="visible"/>
			</clipPath>
			<rect x="-3.67" y="388.714" clip-path="url(#SVGID_34_)" fill="#FFFFC6" width="44.329" height="29.384"/>
		</g>
	</g>
	<g>
		<g>
			<defs>
				<path id="SVGID_35_" d="M27.677,582.352c-0.35,3.4-5.674,7.51-10.308,7.51l0,0c-4.592,0.367-10.877-3.314-10.877-7.51V44.106
					c1.024-4.941,6.495-7.798,10.185-7.792l0,0c4.295-0.006,9.896,2.929,11,7.983V582.352L27.677,582.352z"/>
			</defs>
			<clipPath id="SVGID_36_">
				<use xlink:href="#SVGID_35_"  overflow="visible"/>
			</clipPath>
			<rect x="-3.669" y="418.096" clip-path="url(#SVGID_36_)" fill="#F2F2A0" width="44.329" height="29.383"/>
		</g>
	</g>
</g>
<path fill="none" stroke="#3B3330" stroke-width="3" stroke-miterlimit="10" d="M27.675,581.533
	c-0.207,2.885-5.672,7.51-10.307,7.51l0,0c-4.592,0.367-10.877-3.316-10.877-7.51V43.284c1.023-4.939,6.494-7.797,10.184-7.792l0,0
	c4.295-0.006,9.896,2.93,11,7.983V581.533L27.675,581.533z"/>
<rect x="6.776" y="44.414" fill="none" width="21.186" height="10.596"/>
<g enable-background="new    ">
	<path fill="#39322E" d="M13.957,47.271c0.245,0.26,0.367,0.583,0.367,0.974c0,0.292-0.075,0.56-0.224,0.8
		c-0.148,0.239-0.373,0.431-0.673,0.571c-0.3,0.142-0.666,0.212-1.098,0.212c-0.36,0-0.707-0.052-1.04-0.154
		c-0.334-0.104-0.619-0.246-0.854-0.429l0.403-0.728c0.182,0.154,0.404,0.275,0.666,0.363c0.261,0.089,0.531,0.133,0.81,0.133
		c0.331,0,0.591-0.068,0.781-0.206c0.189-0.137,0.284-0.321,0.284-0.558c0-0.237-0.09-0.42-0.27-0.552
		c-0.18-0.132-0.455-0.197-0.825-0.197h-0.459v-0.642l1.145-1.361h-2.29v-0.783h3.435v0.626l-1.224,1.454
		C13.356,46.854,13.711,47.013,13.957,47.271z"/>
	<path fill="#39322E" d="M15.958,49.521c-0.316-0.203-0.566-0.501-0.749-0.893s-0.272-0.854-0.272-1.395
		c0-0.538,0.092-1.001,0.272-1.394c0.183-0.392,0.433-0.688,0.749-0.894c0.317-0.204,0.678-0.306,1.08-0.306
		c0.403,0,0.764,0.103,1.084,0.306c0.319,0.205,0.569,0.502,0.752,0.894c0.184,0.393,0.273,0.854,0.273,1.394
		s-0.092,1.002-0.273,1.395c-0.183,0.392-0.433,0.688-0.752,0.893c-0.32,0.205-0.681,0.307-1.084,0.307
		C16.636,49.828,16.274,49.727,15.958,49.521z M17.892,48.568c0.209-0.299,0.313-0.741,0.313-1.332s-0.104-1.034-0.313-1.332
		c-0.209-0.297-0.494-0.445-0.854-0.445c-0.354,0-0.637,0.148-0.846,0.445c-0.209,0.298-0.313,0.741-0.313,1.332
		s0.104,1.033,0.313,1.332c0.209,0.298,0.491,0.446,0.846,0.446C17.397,49.015,17.683,48.866,17.892,48.568z"/>
	<path fill="#39322E" d="M20.804,49.521c-0.316-0.203-0.565-0.501-0.748-0.893c-0.184-0.392-0.272-0.854-0.272-1.395
		c0-0.538,0.091-1.001,0.272-1.394c0.183-0.392,0.432-0.688,0.748-0.894c0.316-0.204,0.676-0.306,1.08-0.306
		c0.402,0,0.764,0.103,1.084,0.306c0.318,0.205,0.568,0.502,0.752,0.894c0.184,0.393,0.273,0.854,0.273,1.394
		s-0.092,1.002-0.273,1.395c-0.184,0.392-0.434,0.688-0.752,0.893c-0.32,0.205-0.682,0.307-1.084,0.307
		C21.479,49.828,21.121,49.727,20.804,49.521z M22.736,48.568c0.21-0.299,0.313-0.741,0.313-1.332s-0.104-1.034-0.313-1.332
		c-0.207-0.297-0.492-0.445-0.853-0.445c-0.354,0-0.639,0.148-0.848,0.445c-0.209,0.298-0.313,0.741-0.313,1.332
		s0.104,1.033,0.313,1.332c0.209,0.298,0.491,0.446,0.848,0.446C22.244,49.015,22.529,48.866,22.736,48.568z"/>
</g>
<rect x="6.492" y="75.273" fill="none" width="21.185" height="10.595"/>
<g enable-background="new    ">
	<path fill="#39322E" d="M14.11,79.823v0.792h-3.715v-0.627l2.002-1.899c0.226-0.217,0.378-0.404,0.457-0.564
		c0.079-0.161,0.119-0.32,0.119-0.479c0-0.235-0.08-0.415-0.238-0.54c-0.159-0.125-0.391-0.188-0.698-0.188
		c-0.514,0-0.908,0.175-1.181,0.525l-0.655-0.504c0.197-0.265,0.462-0.47,0.796-0.616c0.333-0.146,0.707-0.219,1.119-0.219
		c0.547,0,0.984,0.129,1.311,0.388c0.326,0.26,0.49,0.612,0.49,1.06c0,0.272-0.058,0.53-0.173,0.771
		c-0.115,0.24-0.336,0.515-0.663,0.821l-1.346,1.28L14.11,79.823L14.11,79.823z"/>
	<path fill="#39322E" d="M15.651,80.383c-0.316-0.204-0.566-0.501-0.749-0.894c-0.183-0.392-0.272-0.854-0.272-1.395
		c0-0.538,0.09-1.001,0.272-1.394c0.182-0.392,0.432-0.688,0.749-0.894c0.316-0.204,0.677-0.305,1.08-0.305
		c0.402,0,0.765,0.103,1.082,0.305c0.32,0.205,0.57,0.502,0.754,0.894c0.182,0.393,0.273,0.854,0.273,1.394
		s-0.094,1.002-0.273,1.395c-0.184,0.393-0.434,0.688-0.754,0.894c-0.318,0.205-0.68,0.306-1.082,0.306
		C16.328,80.687,15.968,80.587,15.651,80.383z M17.585,79.427c0.209-0.298,0.313-0.741,0.313-1.332c0-0.59-0.104-1.034-0.313-1.332
		c-0.209-0.297-0.492-0.445-0.854-0.445c-0.355,0-0.637,0.148-0.846,0.445c-0.209,0.298-0.313,0.742-0.313,1.332
		c0,0.591,0.104,1.034,0.313,1.332s0.489,0.447,0.846,0.447C17.091,79.875,17.376,79.725,17.585,79.427z"/>
	<path fill="#39322E" d="M20.498,80.383c-0.317-0.204-0.567-0.501-0.75-0.894c-0.182-0.392-0.272-0.854-0.272-1.395
		c0-0.538,0.093-1.001,0.272-1.394c0.183-0.392,0.433-0.688,0.75-0.894c0.315-0.204,0.677-0.305,1.079-0.305
		s0.766,0.103,1.084,0.305c0.318,0.205,0.568,0.502,0.752,0.894c0.184,0.393,0.273,0.854,0.273,1.394s-0.092,1.002-0.273,1.395
		c-0.184,0.393-0.434,0.688-0.752,0.894s-0.682,0.306-1.084,0.306S20.813,80.587,20.498,80.383z M22.431,79.427
		c0.209-0.298,0.313-0.741,0.313-1.332c0-0.59-0.104-1.034-0.313-1.332c-0.209-0.297-0.494-0.445-0.854-0.445
		c-0.354,0-0.638,0.148-0.847,0.445c-0.209,0.298-0.313,0.742-0.313,1.332c0,0.591,0.104,1.034,0.313,1.332s0.492,0.447,0.847,0.447
		C21.937,79.875,22.222,79.725,22.431,79.427z"/>
</g>
<rect x="6.492" y="106.227" fill="none" width="21.185" height="10.596"/>
<g enable-background="new    ">
	<path fill="#39322E" d="M12.926,106.53v5.04h-0.937v-4.255h-1.065v-0.784L12.926,106.53L12.926,106.53z"/>
	<path fill="#39322E" d="M14.949,111.336c-0.317-0.204-0.565-0.5-0.749-0.893c-0.182-0.393-0.273-0.854-0.273-1.395
		c0-0.538,0.091-1.002,0.273-1.394c0.184-0.393,0.432-0.688,0.749-0.894c0.317-0.204,0.677-0.307,1.08-0.307
		s0.764,0.103,1.083,0.307c0.318,0.205,0.57,0.501,0.752,0.894c0.182,0.392,0.273,0.854,0.273,1.394s-0.092,1.002-0.273,1.395
		c-0.184,0.393-0.434,0.688-0.752,0.893c-0.319,0.205-0.682,0.306-1.083,0.306C15.626,111.641,15.267,111.541,14.949,111.336z
		 M16.882,110.383c0.209-0.298,0.313-0.742,0.313-1.332s-0.104-1.035-0.313-1.332c-0.207-0.297-0.492-0.446-0.853-0.446
		c-0.354,0-0.638,0.149-0.847,0.446c-0.207,0.297-0.313,0.742-0.313,1.332s0.104,1.034,0.313,1.332
		c0.209,0.297,0.492,0.446,0.847,0.446C16.39,110.828,16.675,110.679,16.882,110.383z"/>
	<path fill="#39322E" d="M19.794,111.336c-0.316-0.204-0.566-0.5-0.748-0.893c-0.184-0.393-0.273-0.854-0.273-1.395
		c0-0.538,0.092-1.002,0.273-1.394c0.182-0.393,0.432-0.688,0.748-0.894c0.316-0.204,0.678-0.307,1.08-0.307
		c0.403,0,0.766,0.103,1.084,0.307c0.318,0.205,0.57,0.501,0.752,0.894c0.182,0.392,0.274,0.854,0.274,1.394
		s-0.093,1.002-0.274,1.395c-0.181,0.393-0.434,0.688-0.752,0.893c-0.318,0.205-0.681,0.306-1.084,0.306
		C20.472,111.641,20.111,111.541,19.794,111.336z M21.728,110.383c0.209-0.298,0.313-0.742,0.313-1.332s-0.104-1.035-0.313-1.332
		s-0.492-0.446-0.854-0.446c-0.354,0-0.637,0.149-0.846,0.446s-0.313,0.742-0.313,1.332s0.104,1.034,0.313,1.332
		c0.209,0.297,0.489,0.446,0.846,0.446C21.235,110.828,21.519,110.679,21.728,110.383z"/>
</g>
<rect x="6.492" y="135.052" fill="none" width="21.185" height="10.596"/>
<g enable-background="new    ">
	<path fill="#39322E" d="M16.911,135.356v0.626l-1.958,4.412h-1.001l1.895-4.247h-1.979v0.855h-0.872v-1.647L16.911,135.356
		L16.911,135.356z"/>
	<path fill="#39322E" d="M20.511,137.72c0.342,0.275,0.512,0.65,0.512,1.127c0,0.303-0.074,0.576-0.225,0.82
		c-0.146,0.244-0.371,0.438-0.668,0.583c-0.299,0.144-0.666,0.216-1.103,0.216c-0.36,0-0.708-0.053-1.044-0.155
		s-0.62-0.245-0.85-0.428l0.396-0.729c0.188,0.153,0.412,0.274,0.674,0.362c0.261,0.09,0.531,0.135,0.81,0.135
		c0.332,0,0.592-0.068,0.781-0.206c0.19-0.138,0.284-0.325,0.284-0.564c0-0.26-0.103-0.455-0.306-0.586
		c-0.204-0.133-0.553-0.199-1.049-0.199h-1.217l0.26-2.743h2.959v0.784h-2.168l-0.107,1.167h0.482
		C19.644,137.306,20.171,137.445,20.511,137.72z"/>
</g>
<rect x="6.492" y="163.934" fill="none" width="21.185" height="10.596"/>
<g enable-background="new    ">
	<path fill="#39322E" d="M16.029,166.602c0.341,0.276,0.511,0.651,0.511,1.127c0,0.303-0.074,0.576-0.223,0.82
		c-0.149,0.245-0.372,0.438-0.67,0.583c-0.297,0.145-0.665,0.215-1.102,0.215c-0.361,0-0.708-0.051-1.043-0.153
		c-0.336-0.104-0.62-0.246-0.85-0.429l0.396-0.729c0.188,0.154,0.412,0.274,0.673,0.363c0.261,0.089,0.532,0.134,0.81,0.134
		c0.331,0,0.592-0.068,0.78-0.206c0.188-0.137,0.285-0.324,0.285-0.564c0-0.259-0.104-0.455-0.308-0.586
		c-0.202-0.132-0.553-0.199-1.048-0.199h-1.216l0.259-2.742h2.959v0.783h-2.167l-0.108,1.167h0.482
		C15.163,166.187,15.688,166.326,16.029,166.602z"/>
	<path fill="#39322E" d="M18.103,169.043c-0.315-0.204-0.565-0.5-0.748-0.893c-0.184-0.393-0.273-0.854-0.273-1.395
		c0-0.538,0.092-1.002,0.273-1.394c0.182-0.393,0.432-0.688,0.748-0.894c0.318-0.204,0.678-0.307,1.082-0.307
		s0.764,0.103,1.082,0.307c0.32,0.205,0.57,0.501,0.754,0.894c0.182,0.392,0.271,0.854,0.271,1.394s-0.092,1.002-0.271,1.395
		c-0.184,0.393-0.434,0.688-0.754,0.893c-0.318,0.204-0.68,0.306-1.082,0.306C18.781,169.348,18.419,169.247,18.103,169.043z
		 M20.037,168.09c0.208-0.298,0.313-0.742,0.313-1.332s-0.104-1.035-0.313-1.332c-0.21-0.297-0.494-0.446-0.854-0.446
		c-0.354,0-0.637,0.149-0.846,0.446s-0.314,0.742-0.314,1.332s0.105,1.034,0.314,1.332c0.209,0.297,0.49,0.446,0.846,0.446
		C19.543,168.535,19.827,168.386,20.037,168.09z"/>
</g>
<rect x="6.776" y="194.198" fill="none" width="21.186" height="10.597"/>
<g enable-background="new    ">
	<path fill="#39322E" d="M17.312,198.397h-0.894v1.146h-0.905v-1.146h-2.767v-0.648l2.483-3.246h1l-2.339,3.103h1.649v-1.016h0.878
		v1.016h0.895V198.397L17.312,198.397z"/>
	<path fill="#39322E" d="M18.729,199.307c-0.316-0.204-0.566-0.501-0.748-0.894c-0.182-0.391-0.273-0.854-0.273-1.395
		c0-0.537,0.092-1.001,0.273-1.393s0.432-0.688,0.748-0.894c0.316-0.204,0.678-0.306,1.08-0.306s0.765,0.103,1.084,0.306
		c0.318,0.204,0.568,0.502,0.752,0.894s0.272,0.854,0.272,1.393s-0.091,1.003-0.272,1.395c-0.184,0.393-0.434,0.688-0.752,0.894
		c-0.319,0.205-0.682,0.307-1.084,0.307S19.046,199.512,18.729,199.307z M20.663,198.353c0.21-0.298,0.313-0.74,0.313-1.332
		c0-0.59-0.104-1.033-0.313-1.331c-0.208-0.298-0.492-0.446-0.854-0.446c-0.354,0-0.637,0.148-0.846,0.446s-0.313,0.741-0.313,1.331
		c0,0.592,0.104,1.034,0.313,1.332c0.209,0.299,0.489,0.447,0.846,0.447C20.169,198.801,20.455,198.651,20.663,198.353z"/>
</g>
<rect x="6.699" y="222.896" fill="none" width="21.185" height="10.597"/>
<g enable-background="new    ">
	<path fill="#39322E" d="M16.302,225.756c0.246,0.26,0.367,0.584,0.367,0.973c0,0.292-0.074,0.561-0.223,0.799
		c-0.148,0.24-0.373,0.433-0.674,0.572c-0.299,0.144-0.665,0.213-1.098,0.213c-0.359,0-0.708-0.052-1.041-0.153
		c-0.334-0.104-0.618-0.246-0.854-0.43l0.403-0.728c0.182,0.152,0.404,0.273,0.666,0.363c0.262,0.089,0.533,0.134,0.81,0.134
		c0.331,0,0.591-0.069,0.781-0.206c0.188-0.137,0.283-0.323,0.283-0.56c0-0.233-0.09-0.419-0.271-0.551s-0.455-0.199-0.823-0.199
		h-0.461v-0.641l1.145-1.36h-2.288v-0.784h3.434v0.626l-1.224,1.453C15.702,225.339,16.058,225.497,16.302,225.756z"/>
	<path fill="#39322E" d="M18.304,228.006c-0.316-0.204-0.566-0.5-0.75-0.894c-0.183-0.391-0.271-0.854-0.271-1.394
		c0-0.538,0.091-1.001,0.271-1.394c0.184-0.393,0.434-0.688,0.75-0.894c0.315-0.204,0.676-0.305,1.08-0.305
		c0.402,0,0.764,0.102,1.082,0.305c0.32,0.205,0.57,0.501,0.754,0.894s0.272,0.854,0.272,1.394s-0.091,1.002-0.272,1.394
		c-0.184,0.394-0.434,0.688-0.754,0.894c-0.318,0.205-0.68,0.307-1.082,0.307C18.979,228.312,18.62,228.211,18.304,228.006z
		 M20.236,227.052c0.21-0.298,0.313-0.742,0.313-1.332s-0.104-1.035-0.313-1.332c-0.208-0.297-0.492-0.445-0.853-0.445
		c-0.354,0-0.64,0.148-0.849,0.445c-0.208,0.297-0.313,0.742-0.313,1.332s0.104,1.034,0.313,1.332
		c0.209,0.297,0.492,0.447,0.849,0.447C19.744,227.499,20.028,227.348,20.236,227.052z"/>
</g>
<rect x="6.776" y="252.027" fill="none" width="21.186" height="10.597"/>
<g enable-background="new    ">
	<path fill="#39322E" d="M17.14,256.579v0.792h-3.715v-0.626l2-1.901c0.227-0.215,0.379-0.404,0.459-0.565
		c0.078-0.159,0.119-0.318,0.119-0.479c0-0.235-0.08-0.415-0.238-0.54s-0.393-0.188-0.698-0.188c-0.515,0-0.907,0.177-1.181,0.526
		l-0.655-0.504c0.197-0.264,0.462-0.47,0.795-0.616c0.333-0.146,0.707-0.22,1.12-0.22c0.547,0,0.984,0.13,1.311,0.389
		c0.327,0.259,0.489,0.612,0.489,1.061c0,0.271-0.058,0.528-0.173,0.77c-0.114,0.24-0.336,0.514-0.662,0.821l-1.348,1.281H17.14
		L17.14,256.579z"/>
	<path fill="#39322E" d="M20.832,254.695c0.343,0.276,0.513,0.651,0.513,1.129c0,0.302-0.074,0.574-0.224,0.818
		c-0.149,0.245-0.373,0.439-0.67,0.583c-0.298,0.146-0.665,0.215-1.103,0.215c-0.358,0-0.707-0.051-1.043-0.152
		c-0.336-0.104-0.621-0.246-0.852-0.43l0.396-0.728c0.188,0.154,0.412,0.274,0.675,0.363c0.262,0.089,0.53,0.134,0.81,0.134
		c0.331,0,0.592-0.069,0.781-0.206s0.284-0.325,0.284-0.565c0-0.259-0.103-0.455-0.306-0.586c-0.205-0.132-0.556-0.198-1.049-0.198
		h-1.217l0.26-2.742h2.959v0.782H18.88l-0.107,1.168h0.482C19.966,254.28,20.491,254.421,20.832,254.695z"/>
</g>
<rect x="6.776" y="281.293" fill="none" width="21.186" height="10.595"/>
<g enable-background="new    ">
	<path fill="#39322E" d="M16.818,285.844v0.792h-3.715v-0.626l2.001-1.901c0.226-0.216,0.378-0.402,0.457-0.563
		c0.08-0.161,0.119-0.32,0.119-0.479c0-0.233-0.078-0.415-0.236-0.54c-0.159-0.125-0.393-0.188-0.699-0.188
		c-0.514,0-0.907,0.175-1.181,0.524l-0.655-0.504c0.197-0.264,0.462-0.47,0.795-0.614c0.333-0.147,0.707-0.222,1.12-0.222
		c0.547,0,0.983,0.13,1.312,0.39c0.326,0.26,0.488,0.611,0.488,1.059c0,0.273-0.057,0.531-0.172,0.771
		c-0.115,0.239-0.336,0.515-0.663,0.82l-1.347,1.281H16.818L16.818,285.844z"/>
	<path fill="#39322E" d="M18.359,286.399c-0.316-0.204-0.566-0.501-0.749-0.892c-0.182-0.392-0.273-0.855-0.273-1.396
		c0-0.535,0.092-1.001,0.273-1.393c0.183-0.392,0.433-0.688,0.749-0.893c0.315-0.204,0.678-0.308,1.079-0.308
		c0.404,0,0.766,0.104,1.084,0.308s0.57,0.501,0.753,0.893c0.183,0.391,0.272,0.855,0.272,1.393c0,0.539-0.092,1.004-0.272,1.396
		c-0.183,0.391-0.435,0.688-0.753,0.892c-0.318,0.205-0.68,0.308-1.084,0.308C19.037,286.707,18.675,286.604,18.359,286.399z
		 M20.293,285.445c0.21-0.297,0.313-0.739,0.313-1.33c0-0.592-0.104-1.034-0.313-1.332c-0.209-0.299-0.493-0.446-0.854-0.446
		c-0.354,0-0.637,0.147-0.846,0.446c-0.209,0.298-0.313,0.74-0.313,1.332c0,0.591,0.104,1.033,0.313,1.33
		c0.209,0.3,0.49,0.447,0.846,0.447C19.798,285.893,20.084,285.745,20.293,285.445z"/>
</g>
<rect x="6.776" y="309.92" fill="none" width="21.186" height="10.596"/>
<g enable-background="new    ">
	<path fill="#39322E" d="M15.954,310.221v5.041h-0.936v-4.256h-1.066v-0.785H15.954L15.954,310.221z"/>
	<path fill="#39322E" d="M20.108,312.588c0.342,0.277,0.512,0.652,0.512,1.127c0,0.303-0.074,0.576-0.223,0.82
		c-0.149,0.246-0.372,0.438-0.67,0.584c-0.299,0.145-0.666,0.216-1.104,0.216c-0.357,0-0.708-0.052-1.044-0.155
		c-0.336-0.103-0.618-0.246-0.851-0.428l0.396-0.729c0.188,0.153,0.411,0.274,0.674,0.363c0.262,0.088,0.531,0.133,0.811,0.133
		c0.332,0,0.592-0.066,0.779-0.205c0.189-0.137,0.285-0.323,0.285-0.563c0-0.26-0.103-0.455-0.307-0.588
		c-0.204-0.131-0.553-0.197-1.048-0.197h-1.218l0.261-2.744h2.962v0.785h-2.167l-0.108,1.166h0.482
		C19.243,312.174,19.767,312.311,20.108,312.588z"/>
</g>
<rect x="6.776" y="338.305" fill="none" width="21.186" height="10.595"/>
<g enable-background="new    ">
	<path fill="#39322E" d="M15.634,338.606v5.04h-0.936v-4.256h-1.066v-0.784H15.634z"/>
	<path fill="#39322E" d="M17.657,343.414c-0.316-0.204-0.566-0.501-0.749-0.895c-0.183-0.391-0.272-0.854-0.272-1.394
		s0.09-1.001,0.272-1.396c0.183-0.391,0.433-0.688,0.749-0.893c0.316-0.203,0.677-0.305,1.08-0.305c0.402,0,0.766,0.102,1.084,0.305
		c0.318,0.205,0.57,0.502,0.752,0.893c0.184,0.395,0.273,0.855,0.273,1.396s-0.092,1.003-0.273,1.394
		c-0.182,0.394-0.434,0.688-0.752,0.895s-0.682,0.307-1.084,0.307C18.334,343.72,17.974,343.619,17.657,343.414z M19.591,342.46
		c0.207-0.298,0.313-0.741,0.313-1.332c0-0.59-0.104-1.034-0.313-1.332c-0.209-0.297-0.494-0.446-0.854-0.446
		c-0.354,0-0.639,0.149-0.848,0.446c-0.209,0.298-0.313,0.742-0.313,1.332c0,0.591,0.104,1.034,0.313,1.332s0.49,0.446,0.848,0.446
		C19.097,342.904,19.382,342.758,19.591,342.46z"/>
</g>
<rect x="6.492" y="368.693" fill="none" width="21.185" height="10.598"/>
<g enable-background="new    ">
	<path fill="#39322E" d="M18.931,371.875c0.142,0.205,0.213,0.441,0.213,0.717c0,0.307-0.086,0.576-0.256,0.807
		c-0.17,0.231-0.412,0.406-0.725,0.529c-0.313,0.122-0.675,0.184-1.088,0.184s-0.771-0.062-1.083-0.184
		c-0.31-0.123-0.548-0.299-0.716-0.529c-0.168-0.229-0.252-0.5-0.252-0.807c0-0.273,0.068-0.512,0.209-0.717
		c0.139-0.203,0.338-0.365,0.598-0.485c-0.201-0.11-0.355-0.257-0.464-0.437c-0.106-0.182-0.162-0.389-0.162-0.622
		c0-0.284,0.078-0.53,0.233-0.741c0.156-0.212,0.375-0.375,0.658-0.49s0.609-0.172,0.979-0.172c0.375,0,0.703,0.057,0.987,0.172
		c0.283,0.115,0.504,0.278,0.662,0.49c0.158,0.211,0.238,0.457,0.238,0.741c0,0.233-0.058,0.439-0.166,0.618
		c-0.109,0.179-0.271,0.322-0.478,0.438C18.587,371.51,18.79,371.672,18.931,371.875z M17.897,373.16
		c0.203-0.146,0.304-0.346,0.304-0.6c0-0.25-0.101-0.446-0.304-0.59c-0.201-0.145-0.475-0.216-0.82-0.216
		c-0.345,0-0.617,0.071-0.813,0.216c-0.197,0.145-0.295,0.34-0.295,0.59c0,0.254,0.099,0.453,0.295,0.6
		c0.194,0.145,0.468,0.217,0.813,0.217C17.423,373.377,17.696,373.303,17.897,373.16z M16.382,369.846
		c-0.17,0.125-0.256,0.301-0.256,0.526c0,0.216,0.086,0.388,0.256,0.515s0.402,0.191,0.694,0.191c0.298,0,0.533-0.064,0.707-0.191
		c0.172-0.127,0.258-0.299,0.258-0.515c0-0.228-0.087-0.401-0.262-0.526c-0.175-0.123-0.41-0.186-0.703-0.186
		C16.784,369.662,16.554,369.723,16.382,369.846z"/>
</g>
<rect x="6.776" y="398.018" fill="none" width="21.186" height="10.597"/>
<g enable-background="new    ">
	<path fill="#39322E" d="M18.611,400.442c0.265,0.128,0.471,0.311,0.618,0.544c0.15,0.234,0.225,0.508,0.225,0.813
		c0,0.327-0.081,0.613-0.245,0.861c-0.163,0.247-0.383,0.438-0.661,0.57c-0.279,0.136-0.591,0.201-0.937,0.201
		c-0.69,0-1.228-0.215-1.608-0.646c-0.382-0.435-0.572-1.054-0.572-1.858c0-0.566,0.104-1.049,0.311-1.45
		c0.206-0.399,0.495-0.706,0.867-0.914c0.371-0.21,0.803-0.313,1.293-0.313c0.259,0,0.502,0.025,0.729,0.083
		c0.229,0.055,0.426,0.136,0.596,0.241l-0.348,0.703c-0.248-0.16-0.568-0.242-0.957-0.242c-0.486,0-0.865,0.146-1.139,0.444
		s-0.41,0.729-0.41,1.288v0.008c0.148-0.174,0.338-0.304,0.569-0.393c0.229-0.088,0.489-0.133,0.776-0.133
		C18.05,400.254,18.347,400.314,18.611,400.442z M18.272,402.468c0.183-0.156,0.273-0.364,0.273-0.624
		c0-0.263-0.093-0.473-0.273-0.625c-0.182-0.154-0.426-0.23-0.733-0.23c-0.303,0-0.548,0.081-0.737,0.244
		c-0.188,0.164-0.285,0.369-0.285,0.619c0,0.245,0.094,0.448,0.277,0.608c0.186,0.161,0.44,0.241,0.768,0.241
		C17.853,402.701,18.091,402.623,18.272,402.468z"/>
</g>
<rect x="6.776" y="428.219" fill="none" width="21.186" height="10.595"/>
<g enable-background="new    ">
	<path fill="#39322E" d="M18.737,430.887c0.342,0.277,0.512,0.652,0.512,1.127c0,0.303-0.074,0.576-0.224,0.82
		c-0.147,0.246-0.371,0.438-0.671,0.584c-0.297,0.145-0.664,0.216-1.1,0.216c-0.361,0-0.709-0.052-1.046-0.155
		c-0.336-0.103-0.618-0.246-0.85-0.428l0.396-0.727c0.188,0.151,0.411,0.272,0.672,0.361c0.262,0.088,0.533,0.133,0.812,0.133
		c0.332,0,0.592-0.066,0.78-0.203c0.189-0.139,0.285-0.325,0.285-0.564c0-0.26-0.103-0.455-0.308-0.588
		c-0.202-0.131-0.553-0.197-1.047-0.197h-1.214l0.259-2.744h2.959v0.785h-2.168l-0.106,1.166h0.481
		C17.871,430.473,18.396,430.611,18.737,430.887z"/>
</g>
<rect x="5.864" y="456.723" fill="none" width="21.184" height="10.596"/>
<g enable-background="new    ">
	<path fill="#39322E" d="M18.822,460.924h-0.894v1.145h-0.906v-1.145h-2.766v-0.648l2.483-3.246h1.001l-2.34,3.104h1.648v-1.016
		h0.877v1.016h0.896V460.924L18.822,460.924z"/>
</g>
<rect x="6.776" y="485.67" fill="none" width="21.186" height="10.596"/>
<g enable-background="new    ">
	<path fill="#39322E" d="M18.802,488.525c0.244,0.262,0.367,0.584,0.367,0.975c0,0.293-0.074,0.559-0.224,0.8
		c-0.147,0.239-0.374,0.431-0.675,0.571c-0.299,0.143-0.666,0.213-1.098,0.213c-0.359,0-0.707-0.051-1.039-0.154
		c-0.334-0.104-0.619-0.246-0.854-0.428l0.403-0.729c0.182,0.154,0.404,0.275,0.666,0.363c0.262,0.09,0.531,0.135,0.81,0.135
		c0.331,0,0.592-0.067,0.78-0.206c0.191-0.137,0.285-0.321,0.285-0.558s-0.09-0.419-0.271-0.551
		c-0.182-0.134-0.455-0.199-0.822-0.199h-0.463v-0.641l1.146-1.36h-2.289v-0.784h3.434v0.627l-1.223,1.453
		C18.202,488.109,18.556,488.268,18.802,488.525z"/>
</g>
<rect x="5.864" y="514.811" fill="none" width="21.184" height="10.598"/>
<g enable-background="new    ">
	<path fill="#39322E" d="M18.329,519.36v0.792h-3.715v-0.627l2.001-1.898c0.226-0.215,0.378-0.404,0.458-0.564
		c0.079-0.161,0.119-0.32,0.119-0.479c0-0.236-0.079-0.416-0.237-0.541c-0.159-0.125-0.392-0.188-0.698-0.188
		c-0.515,0-0.908,0.176-1.182,0.526l-0.656-0.504c0.197-0.267,0.463-0.472,0.797-0.616c0.334-0.146,0.707-0.219,1.119-0.219
		c0.547,0,0.984,0.129,1.311,0.389c0.326,0.259,0.49,0.611,0.49,1.059c0,0.273-0.058,0.529-0.172,0.771
		c-0.117,0.24-0.336,0.514-0.664,0.821l-1.347,1.279L18.329,519.36L18.329,519.36z"/>
</g>
<rect x="6.776" y="544.524" fill="none" width="21.186" height="10.597"/>
<g enable-background="new    ">
	<path fill="#39322E" d="M18.058,544.831v5.04h-0.938v-4.256h-1.063v-0.784H18.058z"/>
</g>
<circle fill="#39322E" cx="17.083" cy="16.222" r="14.909"/>
<rect x="-1.831" y="567.219" fill="none" width="35.2" height="17.199"/>
<g enable-background="new    ">
	<path d="M16.085,576.24c0.283,0.281,0.424,0.702,0.424,1.265v2.203h-0.899v-2.088c0-0.337-0.074-0.591-0.224-0.761
		c-0.148-0.17-0.361-0.256-0.641-0.256c-0.303,0-0.545,0.101-0.728,0.299c-0.183,0.199-0.274,0.484-0.274,0.854v1.95h-0.9v-2.088
		c0-0.336-0.074-0.591-0.223-0.761s-0.363-0.256-0.641-0.256c-0.307,0-0.551,0.101-0.73,0.296c-0.18,0.196-0.271,0.48-0.271,0.855
		v1.951h-0.9v-3.845h0.857v0.488c0.144-0.172,0.324-0.306,0.54-0.396c0.216-0.091,0.456-0.138,0.72-0.138
		c0.289,0,0.544,0.056,0.767,0.163c0.223,0.108,0.399,0.268,0.529,0.479c0.159-0.202,0.362-0.358,0.612-0.474
		c0.25-0.111,0.525-0.17,0.828-0.17C15.417,575.818,15.802,575.96,16.085,576.24z"/>
	<path d="M23.665,576.24c0.283,0.281,0.426,0.702,0.426,1.265v2.203h-0.898v-2.088c0-0.337-0.073-0.591-0.225-0.761
		c-0.147-0.17-0.361-0.256-0.641-0.256c-0.305,0-0.545,0.101-0.729,0.299c-0.183,0.199-0.273,0.485-0.273,0.855v1.95h-0.9v-2.088
		c0-0.336-0.072-0.591-0.223-0.761c-0.148-0.17-0.361-0.256-0.641-0.256c-0.309,0-0.551,0.101-0.73,0.296
		c-0.179,0.196-0.271,0.48-0.271,0.855v1.951h-0.898v-3.845h0.855v0.488c0.145-0.172,0.324-0.306,0.541-0.396
		c0.215-0.091,0.455-0.138,0.72-0.138c0.288,0,0.544,0.056,0.767,0.163c0.225,0.107,0.399,0.268,0.529,0.479
		c0.159-0.202,0.361-0.358,0.611-0.474c0.25-0.111,0.524-0.17,0.828-0.17C22.999,575.818,23.382,575.96,23.665,576.24z"/>
</g>
<g>
	<path fill="#FFFFFF" d="M28.505,16.895c0.006-0.036,0.01-0.074,0.01-0.111c-0.01-6.1-4.821-11.078-10.85-11.383V4.402
		c0-0.321-0.26-0.581-0.583-0.581c-0.319,0-0.582,0.26-0.582,0.581v0.999c-6.025,0.305-10.836,5.283-10.848,11.4
		c0,0.313,0.272,0.582,0.583,0.582c0.148,0,0.303-0.068,0.411-0.171c1.922-1.833,4.501-1.833,6.422,0.008
		c0.109,0.104,0.276,0.162,0.425,0.155c0.133-0.005,0.282-0.063,0.38-0.155c0.795-0.761,1.704-1.188,2.632-1.32v7.878
		c0,1.603,1.303,2.905,2.903,2.905c1.604,0,2.907-1.304,2.907-2.905c0-0.32-0.262-0.582-0.581-0.582
		c-0.321,0-0.583,0.262-0.583,0.582c0,0.961-0.781,1.742-1.743,1.742s-1.744-0.781-1.744-1.742V15.9
		c0.927,0.131,1.835,0.561,2.63,1.32c0.217,0.206,0.588,0.208,0.805,0c1.92-1.841,4.5-1.841,6.434,0
		c0.193,0.186,0.493,0.212,0.715,0.063C28.38,17.194,28.474,17.051,28.505,16.895z M20.22,15.672
		c-0.953-0.646-2.008-0.975-3.065-0.987c-0.022-0.003-0.045-0.014-0.07-0.014c-0.022,0-0.046,0.012-0.067,0.014
		c-1.059,0.015-2.112,0.343-3.068,0.987c-0.284-3.98,0.711-7.058,1.911-8.418c0.833-0.943,1.62-0.943,2.452,0
		C19.511,8.614,20.507,11.69,20.22,15.672z M6.899,15.552c0.522-4.283,3.689-7.753,7.816-8.732
		c-1.153,1.544-2.204,4.564-1.946,8.714C10.924,14.395,8.743,14.401,6.899,15.552z M21.396,15.532
		c0.258-4.148-0.793-7.17-1.943-8.714c4.127,0.979,7.294,4.449,7.816,8.732C25.425,14.4,23.244,14.395,21.396,15.532z"/>
</g>
</svg>
