<?xml version="1.0" encoding="utf-8"?>
<!-- Generator: Adobe Illustrator 27.7.0, SVG Export Plug-In . SVG Version: 6.00 Build 0)  -->
<svg version="1.1" id="Livello_1" xmlns="http://www.w3.org/2000/svg" xmlns:xlink="http://www.w3.org/1999/xlink" x="0px" y="0px"
	width="38px" height="644px" viewBox="0 0 37.2 644.1" style="enable-background:new 0 0 37.2 644.1;" xml:space="preserve">
<style type="text/css">
	.st0{fill:none;stroke:#3C3430;stroke-width:3;stroke-miterlimit:10;}
	.st1{fill:#FFFFFF;}
	.st2{clip-path:url(#SVGID_00000000902784295501923740000014883115703196976562_);fill:#4897D9;}
	.st3{clip-path:url(#SVGID_00000002357718539039595990000011457620415630475914_);fill:#A2A4D6;}
	.st4{clip-path:url(#SVGID_00000098185635521134954220000001200817537239853735_);fill:#B887C0;}
	.st5{clip-path:url(#SVGID_00000059293019207493919620000005722700174540476552_);fill:#D6A1CC;}
	.st6{clip-path:url(#SVGID_00000170263173873873614070000014164824979618516906_);fill:#E7BDDA;}
	.st7{clip-path:url(#SVGID_00000127044120692261323170000017403107837217888670_);fill:#E57D9A;}
	.st8{clip-path:url(#SVGID_00000056401487409826474810000009100402255892845441_);fill:#DA4C4D;}
	.st9{clip-path:url(#SVGID_00000163769848051750358160000007884490357501330090_);fill:#EE5A5C;}
	.st10{clip-path:url(#SVGID_00000023248336674046316220000000338619129187441336_);fill:#F6A15C;}
	.st11{clip-path:url(#SVGID_00000060015472388215887420000005684868532330931124_);fill:#FCD48E;}
	.st12{clip-path:url(#SVGID_00000025401449744302441940000001354271038364439448_);fill:#FFE073;}
	.st13{clip-path:url(#SVGID_00000112611142888663338590000009566824211692249526_);fill:#D2EBA3;}
	.st14{clip-path:url(#SVGID_00000083063183964572370180000011801519461613240224_);fill:#C2E5D7;}
	.st15{clip-path:url(#SVGID_00000032618524783450524130000008109220021643579561_);fill:#C7E7EF;}
	.st16{clip-path:url(#SVGID_00000028313114694648489400000003872867587276527251_);fill:#CFEAF6;}
	.st17{clip-path:url(#SVGID_00000005944834892701786570000004118043915037100945_);fill:#FDFD81;}
	.st18{clip-path:url(#SVGID_00000121238933710900196530000008512139596426697646_);fill:#FFFFC6;}
	.st19{clip-path:url(#SVGID_00000036216122031948025960000002356093641586062527_);fill:#F2F2A0;}
	.st20{fill:none;stroke:#3B3330;stroke-width:3;stroke-miterlimit:10;}
	.st21{fill:none;}
	.st22{enable-background:new    ;}
	.st23{fill:#3B3330;}
	.st24{fill:#39322E;}
</style>
<path class="st0" d="M30.6,632.7c-0.3,3.7-6.4,8.1-11.7,8.1l0,0c-5.2,0.4-12.3-3.6-12.3-8.1V48.6c1.1-5.3,7.4-8.5,11.5-8.5l0,0
	c4.9,0,11.2,3.1,12.4,8.7L30.6,632.7L30.6,632.7z"/>
<g>
	<g>
		<path class="st1" d="M19.1,82.6h-1.4v1.8h-1.4v-1.8h-4.4v-1l3.9-5.1h1.6l-3.7,4.8h2.6v-1.6h1.4v1.6h1.4V82.6z"/>
		<path class="st1" d="M25.4,83.2v1.2h-5.8v-1l3.1-3c0.4-0.3,0.6-0.6,0.7-0.9s0.2-0.5,0.2-0.7c0-0.4-0.1-0.6-0.4-0.8
			c-0.2-0.2-0.6-0.3-1.1-0.3c-0.8,0-1.4,0.3-1.8,0.8l-1-0.8c0.3-0.4,0.7-0.7,1.2-1c0.5-0.2,1.1-0.3,1.8-0.3c0.9,0,1.5,0.2,2.1,0.6
			c0.5,0.4,0.8,1,0.8,1.7c0,0.4-0.1,0.8-0.3,1.2s-0.5,0.8-1,1.3l-2.1,2L25.4,83.2L25.4,83.2z"/>
	</g>
</g>
<g>
	<g>
		<g>
			<defs>
				<path id="SVGID_1_" d="M30.6,635.2c-0.4,3.7-6.4,8.2-11.6,8.2l0,0c-5.2,0.4-12.3-3.6-12.3-8.2V49.7c1.2-5.4,7.3-8.5,11.5-8.5
					l0,0c4.8,0,11.2,3.2,12.4,8.7V635.2L30.6,635.2z"/>
			</defs>
			<clipPath id="SVGID_00000140711913622412573820000017833634493327011775_">
				<use xlink:href="#SVGID_1_"  style="overflow:visible;"/>
			</clipPath>
			
				<rect x="-5.9" y="41" style="clip-path:url(#SVGID_00000140711913622412573820000017833634493327011775_);fill:#4897D9;" width="50" height="32"/>
		</g>
	</g>
	<g>
		<g>
			<defs>
				<path id="SVGID_00000165933486915693149520000009865501602245864845_" d="M30.6,635.2c-0.4,3.7-6.4,8.2-11.6,8.2l0,0
					c-5.2,0.4-12.3-3.6-12.3-8.2V49.7c1.2-5.4,7.3-8.5,11.5-8.5l0,0c4.8,0,11.2,3.2,12.4,8.7V635.2L30.6,635.2z"/>
			</defs>
			<clipPath id="SVGID_00000132071466584043621390000017030228739057842103_">
				<use xlink:href="#SVGID_00000165933486915693149520000009865501602245864845_"  style="overflow:visible;"/>
			</clipPath>
			
				<rect x="-5.9" y="73" style="clip-path:url(#SVGID_00000132071466584043621390000017030228739057842103_);fill:#A2A4D6;" width="50" height="32"/>
		</g>
	</g>
	<g>
		<g>
			<defs>
				<path id="SVGID_00000165210212936021325450000016965822419911709590_" d="M30.6,635.2c-0.4,3.7-6.4,8.2-11.6,8.2l0,0
					c-5.2,0.4-12.3-3.6-12.3-8.2V49.7c1.2-5.4,7.3-8.5,11.5-8.5l0,0c4.8,0,11.2,3.2,12.4,8.7V635.2L30.6,635.2z"/>
			</defs>
			<clipPath id="SVGID_00000107586498772585969500000002396244210675500722_">
				<use xlink:href="#SVGID_00000165210212936021325450000016965822419911709590_"  style="overflow:visible;"/>
			</clipPath>
			
				<rect x="-5.4" y="104.9" style="clip-path:url(#SVGID_00000107586498772585969500000002396244210675500722_);fill:#B887C0;" width="50" height="32"/>
		</g>
	</g>
	<g>
		<g>
			<defs>
				<path id="SVGID_00000013166461174120814230000017941038303182797442_" d="M30.6,635.2c-0.4,3.7-6.4,8.2-11.6,8.2l0,0
					c-5.2,0.4-12.3-3.6-12.3-8.2V49.7c1.2-5.4,7.3-8.5,11.5-8.5l0,0c4.8,0,11.2,3.2,12.4,8.7V635.2L30.6,635.2z"/>
			</defs>
			<clipPath id="SVGID_00000086652489218409038930000015367710908452682162_">
				<use xlink:href="#SVGID_00000013166461174120814230000017941038303182797442_"  style="overflow:visible;"/>
			</clipPath>
			
				<rect x="-5.4" y="136.9" style="clip-path:url(#SVGID_00000086652489218409038930000015367710908452682162_);fill:#D6A1CC;" width="50" height="32"/>
		</g>
	</g>
	<g>
		<g>
			<defs>
				<path id="SVGID_00000100378739903055768760000001070983255391394192_" d="M30.6,635.2c-0.4,3.7-6.4,8.2-11.6,8.2l0,0
					c-5.2,0.4-12.3-3.6-12.3-8.2V49.7c1.2-5.4,7.3-8.5,11.5-8.5l0,0c4.8,0,11.2,3.2,12.4,8.7V635.2L30.6,635.2z"/>
			</defs>
			<clipPath id="SVGID_00000092442776710209053060000005093351057516918707_">
				<use xlink:href="#SVGID_00000100378739903055768760000001070983255391394192_"  style="overflow:visible;"/>
			</clipPath>
			
				<rect x="-5.9" y="168.8" style="clip-path:url(#SVGID_00000092442776710209053060000005093351057516918707_);fill:#E7BDDA;" width="50" height="32"/>
		</g>
	</g>
	<g>
		<g>
			<defs>
				<path id="SVGID_00000043422159481546226170000000853061086529944713_" d="M30.6,635.2c-0.4,3.7-6.4,8.2-11.6,8.2l0,0
					c-5.2,0.4-12.3-3.6-12.3-8.2V49.7c1.2-5.4,7.3-8.5,11.5-8.5l0,0c4.8,0,11.2,3.2,12.4,8.7V635.2L30.6,635.2z"/>
			</defs>
			<clipPath id="SVGID_00000021121621398762381160000017635354402179260347_">
				<use xlink:href="#SVGID_00000043422159481546226170000000853061086529944713_"  style="overflow:visible;"/>
			</clipPath>
			
				<rect x="-5.9" y="200.8" style="clip-path:url(#SVGID_00000021121621398762381160000017635354402179260347_);fill:#E57D9A;" width="50" height="32"/>
		</g>
	</g>
	<g>
		<g>
			<defs>
				<path id="SVGID_00000019654662823055483680000008786822097945317276_" d="M30.6,635.2c-0.4,3.7-6.4,8.2-11.6,8.2l0,0
					c-5.2,0.4-12.3-3.6-12.3-8.2V49.7c1.2-5.4,7.3-8.5,11.5-8.5l0,0c4.8,0,11.2,3.2,12.4,8.7V635.2L30.6,635.2z"/>
			</defs>
			<clipPath id="SVGID_00000127023236724155130130000004193213944565203351_">
				<use xlink:href="#SVGID_00000019654662823055483680000008786822097945317276_"  style="overflow:visible;"/>
			</clipPath>
			
				<rect x="-5.9" y="232.8" style="clip-path:url(#SVGID_00000127023236724155130130000004193213944565203351_);fill:#DA4C4D;" width="50" height="32"/>
		</g>
	</g>
	<g>
		<g>
			<defs>
				<path id="SVGID_00000182506387041526899550000013296155480473748615_" d="M30.6,635.2c-0.4,3.7-6.4,8.2-11.6,8.2l0,0
					c-5.2,0.4-12.3-3.6-12.3-8.2V49.7c1.2-5.4,7.3-8.5,11.5-8.5l0,0c4.8,0,11.2,3.2,12.4,8.7V635.2L30.6,635.2z"/>
			</defs>
			<clipPath id="SVGID_00000124121678556840900920000001348715716835596980_">
				<use xlink:href="#SVGID_00000182506387041526899550000013296155480473748615_"  style="overflow:visible;"/>
			</clipPath>
			
				<rect x="-5.9" y="264.7" style="clip-path:url(#SVGID_00000124121678556840900920000001348715716835596980_);fill:#EE5A5C;" width="50" height="32"/>
		</g>
	</g>
	<g>
		<g>
			<defs>
				<path id="SVGID_00000092414393992693023320000000816806910378448527_" d="M30.6,635.2c-0.4,3.7-6.4,8.2-11.6,8.2l0,0
					c-5.2,0.4-12.3-3.6-12.3-8.2V49.7c1.2-5.4,7.3-8.5,11.5-8.5l0,0c4.8,0,11.2,3.2,12.4,8.7V635.2L30.6,635.2z"/>
			</defs>
			<clipPath id="SVGID_00000112622667994909094550000011625107004681564810_">
				<use xlink:href="#SVGID_00000092414393992693023320000000816806910378448527_"  style="overflow:visible;"/>
			</clipPath>
			
				<rect x="-5.4" y="296.7" style="clip-path:url(#SVGID_00000112622667994909094550000011625107004681564810_);fill:#F6A15C;" width="50" height="32"/>
		</g>
	</g>
	<g>
		<g>
			<defs>
				<path id="SVGID_00000173134908071598965680000011634255606703267999_" d="M30.6,635.2c-0.4,3.7-6.4,8.2-11.6,8.2l0,0
					c-5.2,0.4-12.3-3.6-12.3-8.2V49.7c1.2-5.4,7.3-8.5,11.5-8.5l0,0c4.8,0,11.2,3.2,12.4,8.7V635.2L30.6,635.2z"/>
			</defs>
			<clipPath id="SVGID_00000044169822298392915220000004695552853409271952_">
				<use xlink:href="#SVGID_00000173134908071598965680000011634255606703267999_"  style="overflow:visible;"/>
			</clipPath>
			
				<rect x="-5.4" y="328.6" style="clip-path:url(#SVGID_00000044169822298392915220000004695552853409271952_);fill:#FCD48E;" width="50" height="32"/>
		</g>
	</g>
	<g>
		<g>
			<defs>
				<path id="SVGID_00000154403702367258775220000006926368069608838844_" d="M30.6,635.2c-0.4,3.7-6.4,8.2-11.6,8.2l0,0
					c-5.2,0.4-12.3-3.6-12.3-8.2V49.7c1.2-5.4,7.3-8.5,11.5-8.5l0,0c4.8,0,11.2,3.2,12.4,8.7V635.2L30.6,635.2z"/>
			</defs>
			<clipPath id="SVGID_00000075849155163748080430000010206166638452957860_">
				<use xlink:href="#SVGID_00000154403702367258775220000006926368069608838844_"  style="overflow:visible;"/>
			</clipPath>
			
				<rect x="-5.4" y="360.6" style="clip-path:url(#SVGID_00000075849155163748080430000010206166638452957860_);fill:#FFE073;" width="50" height="32"/>
		</g>
	</g>
	<g>
		<g>
			<defs>
				<path id="SVGID_00000097482566010657647600000013084171649231439277_" d="M30.6,635.2c-0.4,3.7-6.4,8.2-11.6,8.2l0,0
					c-5.2,0.4-12.3-3.6-12.3-8.2V49.7c1.2-5.4,7.3-8.5,11.5-8.5l0,0c4.8,0,11.2,3.2,12.4,8.7V635.2L30.6,635.2z"/>
			</defs>
			<clipPath id="SVGID_00000114044363326962344150000001679154147148638336_">
				<use xlink:href="#SVGID_00000097482566010657647600000013084171649231439277_"  style="overflow:visible;"/>
			</clipPath>
			
				<rect x="-4.8" y="488.5" style="clip-path:url(#SVGID_00000114044363326962344150000001679154147148638336_);fill:#D2EBA3;" width="50" height="32"/>
		</g>
	</g>
	<g>
		<g>
			<defs>
				<path id="SVGID_00000183222320422938464160000018300214477015053750_" d="M30.6,635.2c-0.4,3.7-6.4,8.2-11.6,8.2l0,0
					c-5.2,0.4-12.3-3.6-12.3-8.2V49.7c1.2-5.4,7.3-8.5,11.5-8.5l0,0c4.8,0,11.2,3.2,12.4,8.7V635.2L30.6,635.2z"/>
			</defs>
			<clipPath id="SVGID_00000075870238326755556610000012039919290769236135_">
				<use xlink:href="#SVGID_00000183222320422938464160000018300214477015053750_"  style="overflow:visible;"/>
			</clipPath>
			
				<rect x="-4.8" y="520.4" style="clip-path:url(#SVGID_00000075870238326755556610000012039919290769236135_);fill:#C2E5D7;" width="50" height="32"/>
		</g>
	</g>
	<g>
		<g>
			<defs>
				<path id="SVGID_00000051344117915445025590000001601112154984029098_" d="M30.6,635.2c-0.4,3.7-6.4,8.2-11.6,8.2l0,0
					c-5.2,0.4-12.3-3.6-12.3-8.2V49.7c1.2-5.4,7.3-8.5,11.5-8.5l0,0c4.8,0,11.2,3.2,12.4,8.7V635.2L30.6,635.2z"/>
			</defs>
			<clipPath id="SVGID_00000041287882591935211420000001771857878778357178_">
				<use xlink:href="#SVGID_00000051344117915445025590000001601112154984029098_"  style="overflow:visible;"/>
			</clipPath>
			
				<rect x="-4.3" y="552.4" style="clip-path:url(#SVGID_00000041287882591935211420000001771857878778357178_);fill:#C7E7EF;" width="50" height="32"/>
		</g>
	</g>
	<g>
		<g>
			<defs>
				<path id="SVGID_00000069367205183140132040000000313361157819553450_" d="M30.6,635.2c-0.4,3.7-6.4,8.2-11.6,8.2l0,0
					c-5.2,0.4-12.3-3.6-12.3-8.2V49.7c1.2-5.4,7.3-8.5,11.5-8.5l0,0c4.8,0,11.2,3.2,12.4,8.7V635.2L30.6,635.2z"/>
			</defs>
			<clipPath id="SVGID_00000143580265977703199010000002645188972087802027_">
				<use xlink:href="#SVGID_00000069367205183140132040000000313361157819553450_"  style="overflow:visible;"/>
			</clipPath>
			
				<rect x="-4.3" y="584.3" style="clip-path:url(#SVGID_00000143580265977703199010000002645188972087802027_);fill:#CFEAF6;" width="50" height="59.2"/>
		</g>
	</g>
	<g>
		<g>
			<defs>
				<path id="SVGID_00000128485111947997457300000011438581549853632174_" d="M30.6,635.2c-0.4,3.7-6.4,8.2-11.6,8.2l0,0
					c-5.2,0.4-12.3-3.6-12.3-8.2V49.7c1.2-5.4,7.3-8.5,11.5-8.5l0,0c4.8,0,11.2,3.2,12.4,8.7V635.2L30.6,635.2z"/>
			</defs>
			<clipPath id="SVGID_00000000182774253993740120000002101448781729599113_">
				<use xlink:href="#SVGID_00000128485111947997457300000011438581549853632174_"  style="overflow:visible;"/>
			</clipPath>
			
				<rect x="-4.8" y="392.6" style="clip-path:url(#SVGID_00000000182774253993740120000002101448781729599113_);fill:#FDFD81;" width="50" height="32"/>
		</g>
	</g>
	<g>
		<g>
			<defs>
				<path id="SVGID_00000106126630328167734650000016989949069069164212_" d="M30.6,635.2c-0.4,3.7-6.4,8.2-11.6,8.2l0,0
					c-5.2,0.4-12.3-3.6-12.3-8.2V49.7c1.2-5.4,7.3-8.5,11.5-8.5l0,0c4.8,0,11.2,3.2,12.4,8.7V635.2L30.6,635.2z"/>
			</defs>
			<clipPath id="SVGID_00000070104089848607741550000002431043978658041484_">
				<use xlink:href="#SVGID_00000106126630328167734650000016989949069069164212_"  style="overflow:visible;"/>
			</clipPath>
			
				<rect x="-4.8" y="424.5" style="clip-path:url(#SVGID_00000070104089848607741550000002431043978658041484_);fill:#FFFFC6;" width="50" height="32"/>
		</g>
	</g>
	<g>
		<g>
			<defs>
				<path id="SVGID_00000005964061208110674030000000266430367669852857_" d="M30.6,635.2c-0.4,3.7-6.4,8.2-11.6,8.2l0,0
					c-5.2,0.4-12.3-3.6-12.3-8.2V49.7c1.2-5.4,7.3-8.5,11.5-8.5l0,0c4.8,0,11.2,3.2,12.4,8.7V635.2L30.6,635.2z"/>
			</defs>
			<clipPath id="SVGID_00000137822036502409681090000009434349657304976278_">
				<use xlink:href="#SVGID_00000005964061208110674030000000266430367669852857_"  style="overflow:visible;"/>
			</clipPath>
			
				<rect x="-4.8" y="456.5" style="clip-path:url(#SVGID_00000137822036502409681090000009434349657304976278_);fill:#F2F2A0;" width="50" height="32"/>
		</g>
	</g>
</g>
<path class="st20" d="M30.6,634.3c-0.2,3.1-6.4,8.2-11.6,8.2l0,0c-5.2,0.4-12.3-3.6-12.3-8.2V48.8c1.2-5.4,7.3-8.5,11.5-8.5l0,0
	c4.8,0,11.2,3.2,12.4,8.7V634.3L30.6,634.3z"/>
<rect x="7" y="50" class="st21" width="23.9" height="11.5"/>
<rect x="6.6" y="83.6" class="st21" width="23.9" height="11.5"/>
<rect x="6.6" y="117.3" class="st21" width="23.9" height="11.5"/>
<rect x="6.6" y="180" class="st21" width="23.9" height="11.5"/>
<rect x="7" y="213" class="st21" width="23.9" height="11.5"/>
<rect x="6.9" y="244.2" class="st21" width="23.9" height="11.5"/>
<rect x="7" y="275.9" class="st21" width="23.9" height="11.5"/>
<rect x="7" y="307.7" class="st21" width="23.9" height="11.5"/>
<rect x="7" y="338.8" class="st21" width="23.9" height="11.5"/>
<rect x="7" y="369.7" class="st21" width="23.9" height="11.5"/>
<rect x="6.6" y="402.8" class="st21" width="23.9" height="11.5"/>
<rect x="7" y="434.7" class="st21" width="23.9" height="11.5"/>
<rect x="7" y="467.5" class="st21" width="23.9" height="11.5"/>
<rect x="5.9" y="498.5" class="st21" width="23.9" height="11.5"/>
<rect x="7" y="530" class="st21" width="23.9" height="11.5"/>
<rect x="5.9" y="561.7" class="st21" width="23.9" height="11.5"/>
<rect x="7" y="594" class="st21" width="23.9" height="11.5"/>
<rect x="-2.7" y="618.7" class="st21" width="39.7" height="18.7"/>
<g class="st22">
	<path d="M17.7,624.3c0.3,0.3,0.5,0.8,0.5,1.4v2.4h-1v-2.3c0-0.4-0.1-0.6-0.3-0.8s-0.4-0.3-0.7-0.3c-0.3,0-0.6,0.1-0.8,0.3
		s-0.3,0.5-0.3,0.9v2.1h-1v-2.3c0-0.4-0.1-0.6-0.3-0.8s-0.4-0.3-0.7-0.3s-0.6,0.1-0.8,0.3s-0.3,0.5-0.3,0.9v2.1h-1v-4.2h1v0.5
		c0.2-0.2,0.4-0.3,0.6-0.4c0.2-0.1,0.5-0.1,0.8-0.1s0.6,0.1,0.9,0.2c0.3,0.1,0.5,0.3,0.6,0.5c0.2-0.2,0.4-0.4,0.7-0.5
		s0.6-0.2,0.9-0.2C17,623.8,17.4,624,17.7,624.3z"/>
	<path d="M26.3,624.3c0.3,0.3,0.5,0.8,0.5,1.4v2.4h-1v-2.3c0-0.4-0.1-0.6-0.3-0.8c-0.2-0.2-0.4-0.3-0.7-0.3c-0.3,0-0.6,0.1-0.8,0.3
		c-0.2,0.2-0.3,0.5-0.3,0.9v2.1h-1v-2.3c0-0.4-0.1-0.6-0.3-0.8s-0.4-0.3-0.7-0.3c-0.3,0-0.6,0.1-0.8,0.3c-0.2,0.2-0.3,0.5-0.3,0.9
		v2.1h-1v-4.2h1v0.5c0.2-0.2,0.4-0.3,0.6-0.4c0.2-0.1,0.5-0.1,0.8-0.1s0.6,0.1,0.9,0.2c0.3,0.1,0.5,0.3,0.6,0.5
		c0.2-0.2,0.4-0.4,0.7-0.5c0.3-0.1,0.6-0.2,0.9-0.2C25.5,623.8,26,624,26.3,624.3z"/>
</g>
<g>
	<path class="st23" d="M19.6,601.5v7.7h-1.4v-6.5h-1.6v-1.2H19.6z"/>
</g>
<g>
	<path class="st23" d="M21.4,570.9v1.2h-5.7v-1l3.1-2.9c0.3-0.3,0.6-0.6,0.7-0.9c0.1-0.2,0.2-0.5,0.2-0.7c0-0.4-0.1-0.6-0.4-0.8
		c-0.2-0.2-0.6-0.3-1.1-0.3c-0.8,0-1.4,0.3-1.8,0.8l-1-0.8c0.3-0.4,0.7-0.7,1.2-0.9s1.1-0.3,1.7-0.3c0.8,0,1.5,0.2,2,0.6
		c0.5,0.4,0.7,0.9,0.7,1.6c0,0.4-0.1,0.8-0.3,1.2c-0.2,0.4-0.5,0.8-1,1.3l-2.1,2L21.4,570.9L21.4,570.9z"/>
</g>
<g>
	<path class="st23" d="M20.7,535.9c0.4,0.4,0.6,0.9,0.6,1.5c0,0.4-0.1,0.9-0.3,1.2c-0.2,0.4-0.6,0.7-1,0.9c-0.5,0.2-1,0.3-1.7,0.3
		c-0.6,0-1.1-0.1-1.6-0.2c-0.5-0.2-0.9-0.4-1.3-0.7l0.6-1.1c0.3,0.2,0.6,0.4,1,0.6c0.4,0.1,0.8,0.2,1.2,0.2c0.5,0,0.9-0.1,1.2-0.3
		c0.3-0.2,0.4-0.5,0.4-0.9s-0.1-0.6-0.4-0.8s-0.7-0.3-1.3-0.3h-0.7v-1l1.7-2.1h-3.5V532h5.2v1l-1.9,2.2
		C19.8,535.3,20.3,535.5,20.7,535.9z"/>
</g>
<g>
	<path class="st23" d="M22.2,506.4h-1.4v1.7h-1.4v-1.7h-4.2v-1l3.8-5h1.5l-3.6,4.7h2.5v-1.6h1.3v1.6h1.4v1.3H22.2z"/>
</g>
<g>
	<path class="st23" d="M20.7,472.8c0.5,0.4,0.8,1,0.8,1.7c0,0.5-0.1,0.9-0.3,1.3c-0.2,0.4-0.6,0.7-1,0.9c-0.5,0.2-1,0.3-1.7,0.3
		c-0.5,0-1.1-0.1-1.6-0.2c-0.5-0.2-0.9-0.4-1.3-0.7l0.6-1.1c0.3,0.2,0.6,0.4,1,0.6c0.4,0.1,0.8,0.2,1.2,0.2c0.5,0,0.9-0.1,1.2-0.3
		c0.3-0.2,0.4-0.5,0.4-0.9s-0.2-0.7-0.5-0.9c-0.3-0.2-0.8-0.3-1.6-0.3H16l0.4-4.2H21v1.2h-3.3l-0.2,1.8h0.7
		C19.4,472.2,20.2,472.4,20.7,472.8z"/>
</g>
<g>
	<path class="st23" d="M20.5,440.1c0.4,0.2,0.7,0.5,0.9,0.8s0.3,0.8,0.3,1.2c0,0.5-0.1,0.9-0.4,1.3s-0.6,0.7-1,0.9
		c-0.4,0.2-0.9,0.3-1.4,0.3c-1.1,0-1.9-0.3-2.5-1s-0.9-1.6-0.9-2.8c0-0.9,0.2-1.6,0.5-2.2c0.3-0.6,0.8-1.1,1.3-1.4
		c0.6-0.3,1.2-0.5,2-0.5c0.4,0,0.8,0,1.1,0.1c0.3,0.1,0.7,0.2,0.9,0.4l-0.5,1.1c-0.4-0.2-0.9-0.4-1.5-0.4c-0.7,0-1.3,0.2-1.7,0.7
		c-0.4,0.5-0.6,1.1-0.6,2l0,0c0.2-0.3,0.5-0.5,0.9-0.6s0.7-0.2,1.2-0.2C19.6,439.8,20.1,439.9,20.5,440.1z M20,443.2
		c0.3-0.2,0.4-0.6,0.4-1s-0.1-0.7-0.4-1c-0.3-0.2-0.7-0.4-1.1-0.4c-0.5,0-0.8,0.1-1.1,0.4c-0.3,0.2-0.4,0.6-0.4,0.9
		c0,0.4,0.1,0.7,0.4,0.9c0.3,0.2,0.7,0.4,1.2,0.4C19.3,443.5,19.7,443.4,20,443.2z"/>
</g>
<g>
	<path class="st23" d="M21.4,408.9c0.2,0.3,0.3,0.7,0.3,1.1c0,0.5-0.1,0.9-0.4,1.2c-0.3,0.4-0.6,0.6-1.1,0.8c-0.5,0.2-1,0.3-1.7,0.3
		s-1.2-0.1-1.7-0.3c-0.5-0.2-0.8-0.5-1.1-0.8c-0.3-0.4-0.4-0.8-0.4-1.2c0-0.4,0.1-0.8,0.3-1.1s0.5-0.6,0.9-0.7
		c-0.3-0.2-0.5-0.4-0.7-0.7c-0.2-0.3-0.2-0.6-0.2-1s0.1-0.8,0.4-1.1c0.2-0.3,0.6-0.6,1-0.7s0.9-0.3,1.5-0.3s1.1,0.1,1.5,0.3
		s0.8,0.4,1,0.7c0.2,0.3,0.4,0.7,0.4,1.1s-0.1,0.7-0.3,0.9s-0.4,0.5-0.7,0.7C20.9,408.3,21.2,408.6,21.4,408.9z M19.8,410.8
		c0.3-0.2,0.5-0.5,0.5-0.9s-0.2-0.7-0.5-0.9c-0.3-0.2-0.7-0.3-1.3-0.3c-0.5,0-0.9,0.1-1.2,0.3c-0.3,0.2-0.5,0.5-0.5,0.9
		s0.2,0.7,0.5,0.9s0.7,0.3,1.2,0.3C19.1,411.2,19.5,411,19.8,410.8z M17.5,405.8c-0.3,0.2-0.4,0.5-0.4,0.8s0.1,0.6,0.4,0.8
		c0.3,0.2,0.6,0.3,1.1,0.3s0.8-0.1,1.1-0.3c0.3-0.2,0.4-0.5,0.4-0.8s-0.1-0.6-0.4-0.8c-0.3-0.2-0.6-0.3-1.1-0.3
		S17.8,405.6,17.5,405.8z"/>
</g>
<g>
	<path class="st23" d="M16,372.5v7.7h-1.4v-6.5H13v-1.2H16z"/>
	<path class="st23" d="M19,379.8c-0.5-0.3-0.9-0.8-1.1-1.4c-0.3-0.6-0.4-1.3-0.4-2.1s0.1-1.5,0.4-2.1s0.7-1.1,1.1-1.4
		c0.5-0.3,1-0.5,1.7-0.5c0.6,0,1.2,0.2,1.7,0.5s0.9,0.8,1.1,1.4s0.4,1.3,0.4,2.1s-0.1,1.5-0.4,2.1s-0.7,1.1-1.1,1.4
		c-0.5,0.3-1,0.5-1.7,0.5C20.1,380.3,19.5,380.2,19,379.8z M22,378.4c0.3-0.5,0.5-1.1,0.5-2s-0.2-1.6-0.5-2
		c-0.3-0.5-0.8-0.7-1.3-0.7s-1,0.2-1.3,0.7s-0.5,1.1-0.5,2s0.2,1.6,0.5,2c0.3,0.5,0.8,0.7,1.3,0.7S21.7,378.8,22,378.4z"/>
</g>
<g>
	<path class="st23" d="M16.4,340.7v7.7H15v-6.5h-1.6v-1.2H16.4z"/>
	<path class="st23" d="M22.8,344.3c0.5,0.4,0.8,1,0.8,1.7c0,0.5-0.1,0.9-0.3,1.3c-0.2,0.4-0.6,0.7-1,0.9c-0.5,0.2-1,0.3-1.7,0.3
		c-0.5,0-1.1-0.1-1.6-0.2c-0.5-0.2-0.9-0.4-1.3-0.7l0.6-1.1c0.3,0.2,0.6,0.4,1,0.6c0.4,0.1,0.8,0.2,1.2,0.2c0.5,0,0.9-0.1,1.2-0.3
		c0.3-0.2,0.4-0.5,0.4-0.9s-0.2-0.7-0.5-0.9c-0.3-0.2-0.8-0.3-1.6-0.3h-1.9l0.4-4.2H23v1.2h-3.3l-0.2,1.8h0.7
		C21.5,343.7,22.3,343.9,22.8,344.3z"/>
</g>
<g>
	<path class="st23" d="M17.8,315.2v1.2h-5.7v-1l3.1-2.9c0.3-0.3,0.6-0.6,0.7-0.9c0.1-0.2,0.2-0.5,0.2-0.7c0-0.4-0.1-0.6-0.4-0.8
		c-0.2-0.2-0.6-0.3-1.1-0.3c-0.8,0-1.4,0.3-1.8,0.8l-1-0.8c0.3-0.4,0.7-0.7,1.2-0.9s1.1-0.3,1.7-0.3c0.8,0,1.5,0.2,2,0.6
		s0.7,0.9,0.7,1.6c0,0.4-0.1,0.8-0.3,1.2c-0.2,0.4-0.5,0.8-1,1.3l-2.1,2h3.8V315.2z"/>
	<path class="st23" d="M20.2,316c-0.5-0.3-0.9-0.8-1.1-1.4c-0.3-0.6-0.4-1.3-0.4-2.1s0.1-1.5,0.4-2.1s0.7-1.1,1.1-1.4
		c0.5-0.3,1-0.5,1.7-0.5c0.6,0,1.2,0.2,1.7,0.5s0.9,0.8,1.1,1.4s0.4,1.3,0.4,2.1s-0.1,1.5-0.4,2.1s-0.7,1.1-1.1,1.4
		c-0.5,0.3-1,0.5-1.7,0.5S20.7,316.4,20.2,316z M23.1,314.6c0.3-0.5,0.5-1.1,0.5-2s-0.2-1.6-0.5-2c-0.3-0.5-0.8-0.7-1.3-0.7
		s-1,0.2-1.3,0.7s-0.5,1.1-0.5,2s0.2,1.6,0.5,2c0.3,0.5,0.8,0.7,1.3,0.7C22.4,315.3,22.8,315,23.1,314.6z"/>
</g>
<g>
	<path class="st1" d="M18.2,283.3v1.2h-5.7v-1l3.1-2.9c0.3-0.3,0.6-0.6,0.7-0.9c0.1-0.2,0.2-0.5,0.2-0.7c0-0.4-0.1-0.6-0.4-0.8
		c-0.2-0.2-0.6-0.3-1.1-0.3c-0.8,0-1.4,0.3-1.8,0.8l-1-0.8c0.3-0.4,0.7-0.7,1.2-0.9s1.1-0.3,1.7-0.3c0.8,0,1.5,0.2,2,0.6
		s0.7,0.9,0.7,1.6c0,0.4-0.1,0.8-0.3,1.2c-0.2,0.4-0.5,0.8-1,1.3l-2.1,2h3.8V283.3z"/>
	<path class="st1" d="M23.9,280.4c0.5,0.4,0.8,1,0.8,1.7c0,0.5-0.1,0.9-0.3,1.3c-0.2,0.4-0.6,0.7-1,0.9c-0.5,0.2-1,0.3-1.7,0.3
		c-0.5,0-1.1-0.1-1.6-0.2c-0.5-0.2-0.9-0.4-1.3-0.7l0.6-1.1c0.3,0.2,0.6,0.4,1,0.6c0.4,0.1,0.8,0.2,1.2,0.2c0.5,0,0.9-0.1,1.2-0.3
		c0.3-0.2,0.4-0.5,0.4-0.9s-0.2-0.7-0.5-0.9c-0.3-0.2-0.8-0.3-1.6-0.3h-1.9l0.4-4.2h4.5v1.2h-3.3l-0.2,1.8h0.7
		C22.6,279.8,23.4,280,23.9,280.4z"/>
</g>
<g>
	<g>
		<path class="st1" d="M17.1,248.7c0.4,0.4,0.6,0.9,0.6,1.5c0,0.4-0.1,0.9-0.3,1.2c-0.2,0.4-0.6,0.7-1,0.9c-0.5,0.2-1,0.3-1.7,0.3
			c-0.6,0-1.1-0.1-1.6-0.2c-0.5-0.2-0.9-0.4-1.3-0.7l0.6-1.1c0.3,0.2,0.6,0.4,1,0.6c0.4,0.1,0.8,0.2,1.2,0.2c0.5,0,0.9-0.1,1.2-0.3
			c0.3-0.2,0.4-0.5,0.4-0.9s-0.1-0.6-0.4-0.8c-0.3-0.2-0.7-0.3-1.3-0.3h-0.7v-1l1.7-2.1H12v-1.2h5.2v1l-1.9,2.2
			C16.2,248.1,16.7,248.3,17.1,248.7z"/>
		<path class="st1" d="M20.1,252.1c-0.5-0.3-0.9-0.8-1.1-1.4c-0.3-0.6-0.4-1.3-0.4-2.1s0.1-1.5,0.4-2.1s0.7-1.1,1.1-1.4
			c0.5-0.3,1-0.5,1.7-0.5c0.6,0,1.2,0.2,1.7,0.5s0.9,0.8,1.1,1.4s0.4,1.3,0.4,2.1s-0.1,1.5-0.4,2.1s-0.7,1.1-1.1,1.4
			c-0.5,0.3-1,0.5-1.7,0.5C21.2,252.6,20.6,252.5,20.1,252.1z M23.1,250.7c0.3-0.5,0.5-1.1,0.5-2s-0.2-1.6-0.5-2
			c-0.3-0.5-0.8-0.7-1.3-0.7s-1,0.2-1.3,0.7s-0.5,1.1-0.5,2s0.2,1.6,0.5,2c0.3,0.5,0.8,0.7,1.3,0.7
			C22.3,251.4,22.8,251.1,23.1,250.7z"/>
	</g>
</g>
<g>
	<g>
		<path class="st1" d="M18.5,218.8h-1.4v1.7h-1.4v-1.7h-4.2v-1l3.8-5h1.5l-3.6,4.7h2.5V216H17v1.6h1.4v1.2H18.5z"/>
		<path class="st1" d="M20.7,220.2c-0.5-0.3-0.9-0.8-1.1-1.4c-0.3-0.6-0.4-1.3-0.4-2.1s0.1-1.5,0.4-2.1s0.7-1.1,1.1-1.4
			c0.5-0.3,1-0.5,1.7-0.5c0.6,0,1.2,0.2,1.7,0.5s0.9,0.8,1.1,1.4s0.4,1.3,0.4,2.1s-0.1,1.5-0.4,2.1s-0.7,1.1-1.1,1.4
			c-0.5,0.3-1,0.5-1.7,0.5C21.7,220.6,21.2,220.5,20.7,220.2z M23.6,218.7c0.3-0.5,0.5-1.1,0.5-2s-0.2-1.6-0.5-2
			c-0.3-0.5-0.8-0.7-1.3-0.7s-1,0.2-1.3,0.7s-0.5,1.1-0.5,2s0.2,1.6,0.5,2c0.3,0.5,0.8,0.7,1.3,0.7
			C22.9,219.4,23.3,219.1,23.6,218.7z"/>
	</g>
</g>
<g>
	<path class="st23" d="M17,184.8c0.5,0.4,0.8,1,0.8,1.7c0,0.5-0.1,0.9-0.3,1.3c-0.2,0.4-0.6,0.7-1,0.9c-0.5,0.2-1,0.3-1.7,0.3
		c-0.5,0-1.1-0.1-1.6-0.2c-0.5-0.2-0.9-0.4-1.3-0.7l0.6-1.1c0.3,0.2,0.6,0.4,1,0.6c0.4,0.1,0.8,0.2,1.2,0.2c0.5,0,0.9-0.1,1.2-0.3
		c0.3-0.2,0.4-0.5,0.4-0.9s-0.2-0.7-0.5-0.9c-0.3-0.2-0.8-0.3-1.6-0.3h-1.9l0.4-4.2h4.5v1.2H14l-0.2,1.8h0.7
		C15.7,184.2,16.5,184.4,17,184.8z"/>
	<path class="st23" d="M20.2,188.6c-0.5-0.3-0.9-0.8-1.1-1.4c-0.3-0.6-0.4-1.3-0.4-2.1s0.1-1.5,0.4-2.1s0.7-1.1,1.1-1.4
		c0.5-0.3,1-0.5,1.7-0.5c0.6,0,1.2,0.2,1.7,0.5s0.9,0.8,1.1,1.4s0.4,1.3,0.4,2.1s-0.1,1.5-0.4,2.1s-0.7,1.1-1.1,1.4
		c-0.5,0.3-1,0.5-1.7,0.5C21.2,189,20.6,188.9,20.2,188.6z M23.1,187.1c0.3-0.5,0.5-1.1,0.5-2s-0.2-1.6-0.5-2
		c-0.3-0.5-0.8-0.7-1.3-0.7s-1,0.2-1.3,0.7s-0.5,1.1-0.5,2s0.2,1.6,0.5,2c0.3,0.5,0.8,0.7,1.3,0.7C22.4,187.8,22.8,187.6,23.1,187.1
		z"/>
</g>
<g>
	<path class="st23" d="M18.2,149v1l-3,6.7h-1.5l2.9-6.5h-3v1.3h-1.3V149H18.2z"/>
	<path class="st23" d="M23.7,152.6c0.5,0.4,0.8,1,0.8,1.7c0,0.5-0.1,0.9-0.3,1.3c-0.2,0.4-0.6,0.7-1,0.9c-0.5,0.2-1,0.3-1.7,0.3
		c-0.5,0-1.1-0.1-1.6-0.2c-0.5-0.2-0.9-0.4-1.3-0.7l0.6-1.1c0.3,0.2,0.6,0.4,1,0.6c0.4,0.1,0.8,0.2,1.2,0.2c0.5,0,0.9-0.1,1.2-0.3
		c0.3-0.2,0.4-0.5,0.4-0.9s-0.2-0.7-0.5-0.9s-0.8-0.3-1.6-0.3H19l0.4-4.2h4.5v1.2h-3.3l-0.2,1.8h0.7C22.4,152,23.2,152.2,23.7,152.6
		z"/>
</g>
<g>
	<path class="st1" d="M12.6,116.8v7h-1.3v-5.9H9.9v-1.1H12.6z"/>
	<path class="st1" d="M15.4,123.5c-0.4-0.3-0.8-0.7-1-1.2c-0.3-0.5-0.4-1.2-0.4-1.9c0-0.7,0.1-1.4,0.4-1.9c0.3-0.5,0.6-1,1-1.2
		c0.4-0.3,0.9-0.4,1.5-0.4s1.1,0.1,1.5,0.4s0.8,0.7,1,1.2c0.3,0.5,0.4,1.2,0.4,1.9c0,0.7-0.1,1.4-0.4,1.9s-0.6,1-1,1.2
		s-0.9,0.4-1.5,0.4C16.4,123.9,15.9,123.8,15.4,123.5z M18.1,122.2c0.3-0.4,0.4-1,0.4-1.8s-0.1-1.4-0.4-1.8s-0.7-0.6-1.2-0.6
		s-0.9,0.2-1.2,0.6s-0.4,1-0.4,1.8s0.1,1.4,0.4,1.8c0.3,0.4,0.7,0.6,1.2,0.6C17.4,122.8,17.8,122.6,18.1,122.2z"/>
	<path class="st1" d="M22.2,123.5c-0.4-0.3-0.8-0.7-1-1.2c-0.3-0.5-0.4-1.2-0.4-1.9c0-0.7,0.1-1.4,0.4-1.9s0.6-1,1-1.2
		c0.4-0.3,0.9-0.4,1.5-0.4s1.1,0.1,1.5,0.4s0.8,0.7,1,1.2c0.3,0.5,0.4,1.2,0.4,1.9c0,0.7-0.1,1.4-0.4,1.9s-0.6,1-1,1.2
		s-0.9,0.4-1.5,0.4S22.6,123.8,22.2,123.5z M24.9,122.2c0.3-0.4,0.4-1,0.4-1.8s-0.1-1.4-0.4-1.8s-0.7-0.6-1.2-0.6s-0.9,0.2-1.2,0.6
		c-0.3,0.4-0.4,1-0.4,1.8s0.1,1.4,0.4,1.8s0.7,0.6,1.2,0.6C24.2,122.8,24.6,122.6,24.9,122.2z"/>
</g>
<g>
	<path class="st1" d="M14.5,90.8v1.1H9.3V91l2.8-2.6c0.3-0.3,0.5-0.6,0.6-0.8c0.1-0.2,0.2-0.4,0.2-0.7c0-0.3-0.1-0.6-0.3-0.8
		c-0.2-0.2-0.5-0.3-1-0.3c-0.7,0-1.3,0.2-1.6,0.7l-0.9-0.7c0.3-0.4,0.6-0.7,1.1-0.9c0.5-0.2,1-0.3,1.6-0.3c0.8,0,1.4,0.2,1.8,0.5
		c0.5,0.4,0.7,0.8,0.7,1.5c0,0.4-0.1,0.7-0.2,1.1c-0.2,0.3-0.5,0.7-0.9,1.1l-1.9,1.8h3.2V90.8z"/>
	<path class="st1" d="M16.6,91.6c-0.4-0.3-0.8-0.7-1-1.2c-0.3-0.5-0.4-1.2-0.4-1.9c0-0.7,0.1-1.4,0.4-1.9c0.3-0.5,0.6-1,1-1.2
		c0.4-0.3,0.9-0.4,1.5-0.4s1.1,0.1,1.5,0.4s0.8,0.7,1,1.2c0.3,0.5,0.4,1.2,0.4,1.9c0,0.7-0.1,1.4-0.4,1.9s-0.6,1-1,1.2
		S18.7,92,18.1,92C17.6,92,17.1,91.8,16.6,91.6z M19.3,90.2c0.3-0.4,0.4-1,0.4-1.8s-0.1-1.4-0.4-1.8S18.6,86,18.1,86
		s-0.9,0.2-1.2,0.6c-0.3,0.4-0.4,1-0.4,1.8s0.1,1.4,0.4,1.8s0.7,0.6,1.2,0.6C18.6,90.9,19,90.7,19.3,90.2z"/>
	<path class="st1" d="M23.4,91.6c-0.4-0.3-0.8-0.7-1-1.2c-0.3-0.5-0.4-1.2-0.4-1.9c0-0.7,0.1-1.4,0.4-1.9s0.6-1,1-1.2
		c0.4-0.3,0.9-0.4,1.5-0.4s1.1,0.1,1.5,0.4s0.8,0.7,1,1.2c0.3,0.5,0.4,1.2,0.4,1.9c0,0.7-0.1,1.4-0.4,1.9s-0.6,1-1,1.2
		s-1,0.4-1.5,0.4C24.3,92,23.8,91.8,23.4,91.6z M26,90.2c0.3-0.4,0.4-1,0.4-1.8S26.3,87,26,86.5c-0.3-0.4-0.7-0.6-1.2-0.6
		s-0.9,0.2-1.2,0.6c-0.3,0.4-0.4,1-0.4,1.8s0.1,1.4,0.4,1.8s0.7,0.6,1.2,0.6C25.4,90.9,25.8,90.7,26,90.2z"/>
</g>
<g>
	<path class="st1" d="M13.7,56.5c0.3,0.4,0.5,0.8,0.5,1.4c0,0.4-0.1,0.8-0.3,1.1s-0.5,0.6-0.9,0.8s-0.9,0.3-1.5,0.3
		c-0.5,0-1-0.1-1.4-0.2c-0.5-0.1-0.9-0.3-1.2-0.6l0.6-1c0.3,0.2,0.6,0.4,0.9,0.5s0.7,0.2,1.1,0.2c0.5,0,0.8-0.1,1.1-0.3
		s0.4-0.4,0.4-0.8c0-0.3-0.1-0.6-0.4-0.8c-0.2-0.2-0.6-0.3-1.1-0.3h-0.6v-0.9l1.6-1.9H9.1v-1h4.8v0.9l-1.7,2
		C12.8,55.9,13.3,56.1,13.7,56.5z"/>
	<path class="st1" d="M16.4,59.6c-0.4-0.3-0.8-0.7-1-1.2c-0.3-0.5-0.4-1.2-0.4-1.9s0.1-1.4,0.4-1.9c0.3-0.5,0.6-1,1-1.2
		c0.4-0.3,0.9-0.4,1.5-0.4s1.1,0.1,1.5,0.4s0.8,0.7,1,1.2c0.3,0.5,0.4,1.2,0.4,1.9s-0.1,1.4-0.4,1.9s-0.6,1-1,1.2S18.5,60,17.9,60
		C17.4,60.1,16.9,59.9,16.4,59.6z M19.1,58.3c0.3-0.4,0.4-1,0.4-1.8s-0.1-1.4-0.4-1.8c-0.3-0.4-0.7-0.6-1.2-0.6s-0.9,0.2-1.2,0.6
		c-0.3,0.4-0.4,1-0.4,1.8s0.1,1.4,0.4,1.8c0.3,0.4,0.7,0.6,1.2,0.6C18.4,58.9,18.8,58.7,19.1,58.3z"/>
	<path class="st1" d="M23.2,59.6c-0.4-0.3-0.8-0.7-1-1.2c-0.3-0.5-0.4-1.2-0.4-1.9s0.1-1.4,0.4-1.9s0.6-1,1-1.2
		c0.4-0.3,0.9-0.4,1.5-0.4s1.1,0.1,1.5,0.4s0.8,0.7,1,1.2c0.3,0.5,0.4,1.2,0.4,1.9s-0.1,1.4-0.4,1.9s-0.6,1-1,1.2S25.3,60,24.7,60
		C24.1,60.1,23.6,59.9,23.2,59.6z M25.9,58.3c0.3-0.4,0.4-1,0.4-1.8s-0.1-1.4-0.4-1.8c-0.3-0.4-0.7-0.6-1.2-0.6s-0.9,0.2-1.2,0.6
		c-0.3,0.4-0.4,1-0.4,1.8s0.1,1.4,0.4,1.8c0.3,0.4,0.7,0.6,1.2,0.6C25.2,58.9,25.6,58.7,25.9,58.3z"/>
</g>
<circle class="st24" cx="18.7" cy="20.9" r="14.6"/>
<g>
	<path class="st1" d="M31.6,22.1V22c0-6.6-5.4-12-12.2-12.4V8.5c0-0.3-0.3-0.6-0.7-0.6c-0.4,0-0.7,0.3-0.7,0.6v1.1
		C11.2,9.9,5.8,15.4,5.8,22c0,0.3,0.3,0.6,0.7,0.6c0.2,0,0.3-0.1,0.5-0.2c2.2-2,5.1-2,7.2,0c0.1,0.1,0.3,0.2,0.5,0.2
		s0.3-0.1,0.4-0.2c0.9-0.8,1.9-1.3,3-1.4v8.6c0,1.7,1.5,3.2,3.3,3.2s3.3-1.4,3.3-3.2c0-0.3-0.3-0.6-0.7-0.6c-0.4,0-0.7,0.3-0.7,0.6
		c0,1-0.9,1.9-2,1.9s-2-0.9-2-1.9V21c1,0.1,2.1,0.6,3,1.4c0.2,0.2,0.7,0.2,0.9,0c2.2-2,5.1-2,7.3,0c0.2,0.2,0.6,0.2,0.8,0.1
		C31.5,22.4,31.6,22.3,31.6,22.1z M22.2,20.8c-1.1-0.7-2.3-1.1-3.5-1.1h-0.1h-0.1c-1.2,0-2.4,0.4-3.5,1.1c-0.3-4.3,0.8-7.7,2.2-9.2
		c0.9-1,1.8-1,2.8,0C21.4,13.1,22.6,16.4,22.2,20.8z M7.2,20.6c0.6-4.7,4.2-8.4,8.8-9.5c-1.3,1.7-2.5,5-2.2,9.5
		C11.8,19.4,9.3,19.4,7.2,20.6z M23.6,20.6c0.3-4.5-0.9-7.8-2.2-9.5c4.7,1.1,8.2,4.8,8.8,9.5C28.1,19.4,25.7,19.4,23.6,20.6z"/>
</g>
</svg>
