<?xml version="1.0" encoding="utf-8"?>
<!-- Generator: Adobe Illustrator 16.0.0, SVG Export Plug-In . SVG Version: 6.00 Build 0)  -->
<!DOCTYPE svg PUBLIC "-//W3C//DTD SVG 1.1//EN" "http://www.w3.org/Graphics/SVG/1.1/DTD/svg11.dtd">
<svg version="1.1" id="Livello_1" xmlns="http://www.w3.org/2000/svg" xmlns:xlink="http://www.w3.org/1999/xlink" x="0px" y="0px"
	 width="32.586px" height="591.902px" viewBox="0 0 32.586 591.902" enable-background="new 0 0 32.586 591.902"
	 xml:space="preserve">
<g>
	<g>
		<defs>
			<path id="SVGID_1_" d="M30.352,655.946c-0.35,3.4-5.674,7.51-10.308,7.51l0,0c-4.592,0.367-10.877-3.315-10.877-7.51V117.7
				c1.024-4.941,6.495-7.798,10.185-7.792l0,0c4.295-0.006,9.896,2.929,11,7.983V655.946L30.352,655.946z"/>
		</defs>
		<clipPath id="SVGID_2_">
			<use xlink:href="#SVGID_1_"  overflow="visible"/>
		</clipPath>
		<rect x="-1.936" y="109.7" clip-path="url(#SVGID_2_)" fill="#4897D9" width="44.329" height="29.383"/>
	</g>
	<g>
		<defs>
			<path id="SVGID_3_" d="M30.352,655.946c-0.35,3.4-5.674,7.51-10.308,7.51l0,0c-4.592,0.367-10.877-3.315-10.877-7.51V117.7
				c1.024-4.941,6.495-7.798,10.185-7.792l0,0c4.295-0.006,9.896,2.929,11,7.983V655.946L30.352,655.946z"/>
		</defs>
		<clipPath id="SVGID_4_">
			<use xlink:href="#SVGID_3_"  overflow="visible"/>
		</clipPath>
		<rect x="-1.935" y="139.083" clip-path="url(#SVGID_4_)" fill="#A2A4D6" width="44.33" height="29.384"/>
	</g>
	<g>
		<defs>
			<path id="SVGID_5_" d="M30.352,655.946c-0.35,3.4-5.674,7.51-10.308,7.51l0,0c-4.592,0.367-10.877-3.315-10.877-7.51V117.7
				c1.024-4.941,6.495-7.798,10.185-7.792l0,0c4.295-0.006,9.896,2.929,11,7.983V655.946L30.352,655.946z"/>
		</defs>
		<clipPath id="SVGID_6_">
			<use xlink:href="#SVGID_5_"  overflow="visible"/>
		</clipPath>
		<rect x="-1.466" y="168.468" clip-path="url(#SVGID_6_)" fill="#B887C0" width="44.329" height="29.384"/>
	</g>
	<g>
		<defs>
			<path id="SVGID_7_" d="M30.352,655.946c-0.35,3.4-5.674,7.51-10.308,7.51l0,0c-4.592,0.367-10.877-3.315-10.877-7.51V117.7
				c1.024-4.941,6.495-7.798,10.185-7.792l0,0c4.295-0.006,9.896,2.929,11,7.983V655.946L30.352,655.946z"/>
		</defs>
		<clipPath id="SVGID_8_">
			<use xlink:href="#SVGID_7_"  overflow="visible"/>
		</clipPath>
		<rect x="-1.465" y="197.852" clip-path="url(#SVGID_8_)" fill="#D6A1CC" width="44.328" height="29.384"/>
	</g>
	<g>
		<defs>
			<path id="SVGID_9_" d="M30.352,655.946c-0.35,3.4-5.674,7.51-10.308,7.51l0,0c-4.592,0.367-10.877-3.315-10.877-7.51V117.7
				c1.024-4.941,6.495-7.798,10.185-7.792l0,0c4.295-0.006,9.896,2.929,11,7.983V655.946L30.352,655.946z"/>
		</defs>
		<clipPath id="SVGID_10_">
			<use xlink:href="#SVGID_9_"  overflow="visible"/>
		</clipPath>
		<rect x="-1.936" y="227.236" clip-path="url(#SVGID_10_)" fill="#E7BDDA" width="44.329" height="29.385"/>
	</g>
	<g>
		<defs>
			<path id="SVGID_11_" d="M30.352,655.946c-0.35,3.4-5.674,7.51-10.308,7.51l0,0c-4.592,0.367-10.877-3.315-10.877-7.51V117.7
				c1.024-4.941,6.495-7.798,10.185-7.792l0,0c4.295-0.006,9.896,2.929,11,7.983V655.946L30.352,655.946z"/>
		</defs>
		<clipPath id="SVGID_12_">
			<use xlink:href="#SVGID_11_"  overflow="visible"/>
		</clipPath>
		<rect x="-1.935" y="256.62" clip-path="url(#SVGID_12_)" fill="#E57D9A" width="44.33" height="29.384"/>
	</g>
	<g>
		<defs>
			<path id="SVGID_13_" d="M30.352,655.946c-0.35,3.4-5.674,7.51-10.308,7.51l0,0c-4.592,0.367-10.877-3.315-10.877-7.51V117.7
				c1.024-4.941,6.495-7.798,10.185-7.792l0,0c4.295-0.006,9.896,2.929,11,7.983V655.946L30.352,655.946z"/>
		</defs>
		<clipPath id="SVGID_14_">
			<use xlink:href="#SVGID_13_"  overflow="visible"/>
		</clipPath>
		<rect x="-1.936" y="286.004" clip-path="url(#SVGID_14_)" fill="#DA4C4D" width="44.329" height="29.384"/>
	</g>
	<g>
		<defs>
			<path id="SVGID_15_" d="M30.352,655.946c-0.35,3.4-5.674,7.51-10.308,7.51l0,0c-4.592,0.367-10.877-3.315-10.877-7.51V117.7
				c1.024-4.941,6.495-7.798,10.185-7.792l0,0c4.295-0.006,9.896,2.929,11,7.983V655.946L30.352,655.946z"/>
		</defs>
		<clipPath id="SVGID_16_">
			<use xlink:href="#SVGID_15_"  overflow="visible"/>
		</clipPath>
		<rect x="-1.935" y="315.388" clip-path="url(#SVGID_16_)" fill="#EE5A5C" width="44.33" height="29.383"/>
	</g>
	<g>
		<defs>
			<path id="SVGID_17_" d="M30.352,655.946c-0.35,3.4-5.674,7.51-10.308,7.51l0,0c-4.592,0.367-10.877-3.315-10.877-7.51V117.7
				c1.024-4.941,6.495-7.798,10.185-7.792l0,0c4.295-0.006,9.896,2.929,11,7.983V655.946L30.352,655.946z"/>
		</defs>
		<clipPath id="SVGID_18_">
			<use xlink:href="#SVGID_17_"  overflow="visible"/>
		</clipPath>
		<rect x="-1.465" y="344.771" clip-path="url(#SVGID_18_)" fill="#F6A15C" width="44.328" height="29.383"/>
	</g>
	<g>
		<defs>
			<path id="SVGID_19_" d="M30.352,655.946c-0.35,3.4-5.674,7.51-10.308,7.51l0,0c-4.592,0.367-10.877-3.315-10.877-7.51V117.7
				c1.024-4.941,6.495-7.798,10.185-7.792l0,0c4.295-0.006,9.896,2.929,11,7.983V655.946L30.352,655.946z"/>
		</defs>
		<clipPath id="SVGID_20_">
			<use xlink:href="#SVGID_19_"  overflow="visible"/>
		</clipPath>
		<rect x="-1.465" y="374.153" clip-path="url(#SVGID_20_)" fill="#FCD48E" width="44.328" height="29.387"/>
	</g>
	<g>
		<defs>
			<path id="SVGID_21_" d="M30.352,655.946c-0.35,3.4-5.674,7.51-10.308,7.51l0,0c-4.592,0.367-10.877-3.315-10.877-7.51V117.7
				c1.024-4.941,6.495-7.798,10.185-7.792l0,0c4.295-0.006,9.896,2.929,11,7.983V655.946L30.352,655.946z"/>
		</defs>
		<clipPath id="SVGID_22_">
			<use xlink:href="#SVGID_21_"  overflow="visible"/>
		</clipPath>
		<rect x="-1.465" y="403.539" clip-path="url(#SVGID_22_)" fill="#FFE073" width="44.328" height="29.384"/>
	</g>
	<g>
		<defs>
			<path id="SVGID_23_" d="M30.352,655.946c-0.35,3.4-5.674,7.51-10.308,7.51l0,0c-4.592,0.367-10.877-3.315-10.877-7.51V117.7
				c1.024-4.941,6.495-7.798,10.185-7.792l0,0c4.295-0.006,9.896,2.929,11,7.983V655.946L30.352,655.946z"/>
		</defs>
		<clipPath id="SVGID_24_">
			<use xlink:href="#SVGID_23_"  overflow="visible"/>
		</clipPath>
		<rect x="-0.994" y="521.073" clip-path="url(#SVGID_24_)" fill="#D2EBA3" width="44.329" height="29.386"/>
	</g>
	<g>
		<defs>
			<path id="SVGID_25_" d="M30.352,655.946c-0.35,3.4-5.674,7.51-10.308,7.51l0,0c-4.592,0.367-10.877-3.315-10.877-7.51V117.7
				c1.024-4.941,6.495-7.798,10.185-7.792l0,0c4.295-0.006,9.896,2.929,11,7.983V655.946L30.352,655.946z"/>
		</defs>
		<clipPath id="SVGID_26_">
			<use xlink:href="#SVGID_25_"  overflow="visible"/>
		</clipPath>
		<rect x="-0.993" y="550.458" clip-path="url(#SVGID_26_)" fill="#C2E5D7" width="44.329" height="29.384"/>
	</g>
	<g>
		<defs>
			<path id="SVGID_27_" d="M30.352,655.946c-0.35,3.4-5.674,7.51-10.308,7.51l0,0c-4.592,0.367-10.877-3.315-10.877-7.51V117.7
				c1.024-4.941,6.495-7.798,10.185-7.792l0,0c4.295-0.006,9.896,2.929,11,7.983V655.946L30.352,655.946z"/>
		</defs>
		<clipPath id="SVGID_28_">
			<use xlink:href="#SVGID_27_"  overflow="visible"/>
		</clipPath>
		<rect x="-0.526" y="579.842" clip-path="url(#SVGID_28_)" fill="#C7E7EF" width="44.329" height="29.384"/>
	</g>
	<g>
		<defs>
			<path id="SVGID_29_" d="M30.352,655.946c-0.35,3.4-5.674,7.51-10.308,7.51l0,0c-4.592,0.367-10.877-3.315-10.877-7.51V117.7
				c1.024-4.941,6.495-7.798,10.185-7.792l0,0c4.295-0.006,9.896,2.929,11,7.983V655.946L30.352,655.946z"/>
		</defs>
		<clipPath id="SVGID_30_">
			<use xlink:href="#SVGID_29_"  overflow="visible"/>
		</clipPath>
		<rect x="-0.526" y="609.226" clip-path="url(#SVGID_30_)" fill="#CFEAF6" width="44.329" height="54.463"/>
	</g>
	<g>
		<defs>
			<path id="SVGID_31_" d="M30.352,655.946c-0.35,3.4-5.674,7.51-10.308,7.51l0,0c-4.592,0.367-10.877-3.315-10.877-7.51V117.7
				c1.024-4.941,6.495-7.798,10.185-7.792l0,0c4.295-0.006,9.896,2.929,11,7.983V655.946L30.352,655.946z"/>
		</defs>
		<clipPath id="SVGID_32_">
			<use xlink:href="#SVGID_31_"  overflow="visible"/>
		</clipPath>
		<rect x="-0.994" y="432.923" clip-path="url(#SVGID_32_)" fill="#FDFD81" width="44.329" height="29.384"/>
	</g>
	<g>
		<defs>
			<path id="SVGID_33_" d="M30.352,655.946c-0.35,3.4-5.674,7.51-10.308,7.51l0,0c-4.592,0.367-10.877-3.315-10.877-7.51V117.7
				c1.024-4.941,6.495-7.798,10.185-7.792l0,0c4.295-0.006,9.896,2.929,11,7.983V655.946L30.352,655.946z"/>
		</defs>
		<clipPath id="SVGID_34_">
			<use xlink:href="#SVGID_33_"  overflow="visible"/>
		</clipPath>
		<rect x="-0.995" y="462.307" clip-path="url(#SVGID_34_)" fill="#FFFFC6" width="44.329" height="29.384"/>
	</g>
	<g>
		<defs>
			<path id="SVGID_35_" d="M30.352,655.946c-0.35,3.4-5.674,7.51-10.308,7.51l0,0c-4.592,0.367-10.877-3.315-10.877-7.51V117.7
				c1.024-4.941,6.495-7.798,10.185-7.792l0,0c4.295-0.006,9.896,2.929,11,7.983V655.946L30.352,655.946z"/>
		</defs>
		<clipPath id="SVGID_36_">
			<use xlink:href="#SVGID_35_"  overflow="visible"/>
		</clipPath>
		<rect x="-0.994" y="491.69" clip-path="url(#SVGID_36_)" fill="#F2F2A0" width="44.329" height="29.383"/>
	</g>
</g>
<path fill="none" stroke="#3B3330" stroke-width="3" stroke-miterlimit="10" d="M30.35,655.126c-0.207,2.885-5.672,7.51-10.307,7.51
	l0,0c-4.592,0.367-10.877-3.316-10.877-7.51V116.878c1.023-4.94,6.494-7.797,10.184-7.792l0,0c4.295-0.006,9.896,2.929,11,7.983
	V655.126L30.35,655.126z"/>
<rect x="9.451" y="118.008" fill="none" width="21.186" height="10.595"/>
<g enable-background="new    ">
	<path fill="#39322E" d="M16.632,120.865c0.245,0.26,0.367,0.583,0.367,0.974c0,0.292-0.075,0.559-0.224,0.799
		c-0.148,0.24-0.373,0.431-0.673,0.572c-0.3,0.141-0.666,0.212-1.098,0.212c-0.36,0-0.707-0.052-1.04-0.155
		c-0.334-0.103-0.619-0.246-0.854-0.428l0.403-0.728c0.182,0.154,0.404,0.275,0.666,0.363c0.261,0.089,0.531,0.133,0.81,0.133
		c0.331,0,0.591-0.068,0.781-0.206c0.189-0.137,0.284-0.321,0.284-0.558s-0.09-0.419-0.27-0.551
		c-0.18-0.132-0.455-0.198-0.825-0.198H14.5v-0.641l1.145-1.361h-2.29v-0.784h3.435v0.626l-1.224,1.454
		C16.031,120.448,16.386,120.607,16.632,120.865z"/>
	<path fill="#39322E" d="M18.633,123.115c-0.316-0.203-0.566-0.501-0.749-0.893c-0.183-0.391-0.272-0.854-0.272-1.394
		c0-0.538,0.091-1.001,0.272-1.394c0.183-0.391,0.433-0.688,0.749-0.893c0.317-0.204,0.678-0.306,1.08-0.306
		c0.403,0,0.764,0.103,1.084,0.306c0.319,0.205,0.569,0.502,0.752,0.893c0.184,0.393,0.273,0.855,0.273,1.394
		s-0.092,1.002-0.273,1.394c-0.183,0.392-0.433,0.688-0.752,0.893c-0.32,0.205-0.681,0.307-1.084,0.307
		C19.311,123.422,18.949,123.321,18.633,123.115z M20.566,122.162c0.209-0.299,0.313-0.741,0.313-1.332s-0.104-1.034-0.313-1.332
		c-0.209-0.297-0.494-0.446-0.854-0.446c-0.354,0-0.637,0.149-0.846,0.446c-0.209,0.298-0.313,0.741-0.313,1.332
		s0.104,1.033,0.313,1.332c0.209,0.298,0.491,0.446,0.846,0.446C20.072,122.609,20.357,122.46,20.566,122.162z"/>
	<path fill="#39322E" d="M23.479,123.115c-0.317-0.203-0.566-0.501-0.748-0.893c-0.184-0.391-0.273-0.854-0.273-1.394
		c0-0.538,0.091-1.001,0.273-1.394c0.182-0.391,0.431-0.688,0.748-0.893c0.316-0.204,0.676-0.306,1.08-0.306
		c0.402,0,0.764,0.103,1.084,0.306c0.318,0.205,0.568,0.502,0.752,0.893c0.183,0.393,0.273,0.855,0.273,1.394
		s-0.092,1.002-0.273,1.394c-0.184,0.392-0.434,0.688-0.752,0.893c-0.32,0.205-0.682,0.307-1.084,0.307
		C24.154,123.422,23.796,123.321,23.479,123.115z M25.411,122.162c0.21-0.299,0.313-0.741,0.313-1.332s-0.104-1.034-0.313-1.332
		c-0.207-0.297-0.492-0.446-0.853-0.446c-0.354,0-0.638,0.149-0.847,0.446c-0.209,0.298-0.313,0.741-0.313,1.332
		s0.104,1.033,0.313,1.332c0.209,0.298,0.491,0.446,0.847,0.446C24.919,122.609,25.204,122.46,25.411,122.162z"/>
</g>
<rect x="9.167" y="148.867" fill="none" width="21.185" height="10.595"/>
<g enable-background="new    ">
	<path fill="#39322E" d="M16.785,153.417v0.792H13.07v-0.627l2.002-1.9c0.226-0.216,0.378-0.404,0.457-0.564
		c0.079-0.161,0.119-0.32,0.119-0.479c0-0.235-0.08-0.415-0.238-0.54c-0.159-0.125-0.391-0.188-0.698-0.188
		c-0.514,0-0.908,0.175-1.181,0.525l-0.655-0.504c0.197-0.264,0.462-0.469,0.796-0.616c0.333-0.146,0.707-0.219,1.119-0.219
		c0.547,0,0.984,0.129,1.311,0.388c0.326,0.26,0.49,0.612,0.49,1.06c0,0.272-0.058,0.53-0.173,0.771
		c-0.115,0.24-0.336,0.515-0.663,0.821l-1.346,1.281H16.785L16.785,153.417z"/>
	<path fill="#39322E" d="M18.326,153.976c-0.316-0.204-0.566-0.501-0.749-0.893s-0.272-0.855-0.272-1.395
		c0-0.538,0.09-1.001,0.272-1.393c0.182-0.392,0.432-0.688,0.749-0.894c0.316-0.204,0.677-0.305,1.08-0.305
		c0.402,0,0.765,0.103,1.082,0.305c0.32,0.205,0.57,0.502,0.754,0.894c0.182,0.392,0.273,0.854,0.273,1.393
		s-0.093,1.002-0.273,1.395c-0.184,0.392-0.434,0.688-0.754,0.893c-0.318,0.205-0.68,0.306-1.082,0.306
		C19.003,154.281,18.643,154.18,18.326,153.976z M20.26,153.021c0.209-0.298,0.313-0.741,0.313-1.332
		c0-0.59-0.104-1.034-0.313-1.332c-0.209-0.297-0.492-0.445-0.854-0.445c-0.355,0-0.637,0.148-0.846,0.445
		c-0.209,0.298-0.313,0.742-0.313,1.332c0,0.591,0.104,1.034,0.313,1.332s0.49,0.447,0.846,0.447
		C19.766,153.468,20.051,153.319,20.26,153.021z"/>
	<path fill="#39322E" d="M23.173,153.976c-0.317-0.204-0.567-0.501-0.75-0.893c-0.182-0.392-0.272-0.855-0.272-1.395
		c0-0.538,0.092-1.001,0.272-1.393c0.183-0.392,0.433-0.688,0.75-0.894c0.315-0.204,0.677-0.305,1.079-0.305
		s0.766,0.103,1.084,0.305c0.318,0.205,0.568,0.502,0.752,0.894s0.273,0.854,0.273,1.393s-0.092,1.002-0.273,1.395
		c-0.184,0.392-0.434,0.688-0.752,0.893s-0.682,0.306-1.084,0.306S23.488,154.18,23.173,153.976z M25.105,153.021
		c0.209-0.298,0.313-0.741,0.313-1.332c0-0.59-0.104-1.034-0.313-1.332c-0.209-0.297-0.494-0.445-0.854-0.445
		c-0.354,0-0.638,0.148-0.847,0.445c-0.209,0.298-0.313,0.742-0.313,1.332c0,0.591,0.104,1.034,0.313,1.332s0.492,0.447,0.847,0.447
		C24.611,153.468,24.896,153.319,25.105,153.021z"/>
</g>
<rect x="9.167" y="179.821" fill="none" width="21.185" height="10.596"/>
<g enable-background="new    ">
	<path fill="#39322E" d="M15.601,180.124v5.04h-0.937v-4.255h-1.065v-0.784L15.601,180.124L15.601,180.124z"/>
	<path fill="#39322E" d="M17.624,184.929c-0.317-0.204-0.565-0.5-0.749-0.892c-0.182-0.393-0.273-0.855-0.273-1.395
		c0-0.538,0.091-1.002,0.273-1.393c0.184-0.393,0.432-0.688,0.749-0.894c0.317-0.204,0.677-0.306,1.08-0.306
		s0.764,0.102,1.083,0.306c0.318,0.205,0.57,0.501,0.752,0.894c0.182,0.391,0.273,0.854,0.273,1.393s-0.092,1.002-0.273,1.395
		c-0.184,0.392-0.434,0.688-0.752,0.892c-0.319,0.205-0.682,0.306-1.083,0.306C18.301,185.235,17.941,185.134,17.624,184.929z
		 M19.557,183.976c0.209-0.298,0.313-0.742,0.313-1.332s-0.104-1.035-0.313-1.332c-0.207-0.297-0.492-0.446-0.853-0.446
		c-0.354,0-0.638,0.149-0.847,0.446c-0.207,0.297-0.313,0.742-0.313,1.332s0.104,1.034,0.313,1.332
		c0.209,0.297,0.492,0.447,0.847,0.447C19.064,184.422,19.35,184.273,19.557,183.976z"/>
	<path fill="#39322E" d="M22.469,184.929c-0.316-0.204-0.566-0.5-0.748-0.892c-0.184-0.393-0.273-0.855-0.273-1.395
		c0-0.538,0.091-1.002,0.273-1.393c0.182-0.393,0.432-0.688,0.748-0.894c0.316-0.204,0.678-0.306,1.08-0.306
		c0.403,0,0.766,0.102,1.084,0.306c0.318,0.205,0.57,0.501,0.752,0.894c0.182,0.391,0.274,0.854,0.274,1.393
		s-0.093,1.002-0.274,1.395c-0.181,0.392-0.434,0.688-0.752,0.892c-0.318,0.205-0.681,0.306-1.084,0.306
		C23.146,185.235,22.786,185.134,22.469,184.929z M24.402,183.976c0.209-0.298,0.313-0.742,0.313-1.332s-0.104-1.035-0.313-1.332
		s-0.492-0.446-0.854-0.446c-0.355,0-0.637,0.149-0.846,0.446s-0.313,0.742-0.313,1.332s0.104,1.034,0.313,1.332
		c0.209,0.297,0.49,0.447,0.846,0.447C23.91,184.422,24.193,184.273,24.402,183.976z"/>
</g>
<rect x="9.167" y="208.646" fill="none" width="21.185" height="10.596"/>
<g enable-background="new    ">
	<path fill="#39322E" d="M19.586,208.95v0.626l-1.958,4.412h-1.001l1.895-4.247h-1.98v0.855H15.67v-1.647L19.586,208.95
		L19.586,208.95z"/>
	<path fill="#39322E" d="M23.186,211.314c0.342,0.276,0.512,0.651,0.512,1.127c0,0.303-0.075,0.576-0.225,0.82
		c-0.147,0.245-0.371,0.439-0.668,0.583c-0.299,0.144-0.666,0.216-1.103,0.216c-0.36,0-0.708-0.052-1.044-0.155
		c-0.336-0.103-0.62-0.245-0.85-0.428l0.396-0.728c0.188,0.153,0.412,0.274,0.674,0.362c0.261,0.09,0.531,0.135,0.81,0.135
		c0.332,0,0.592-0.069,0.781-0.206c0.19-0.138,0.284-0.325,0.284-0.565c0-0.259-0.103-0.455-0.306-0.586
		c-0.204-0.132-0.553-0.199-1.049-0.199h-1.217l0.26-2.743H23.4v0.784h-2.168l-0.107,1.167h0.482
		C22.318,210.9,22.846,211.039,23.186,211.314z"/>
</g>
<rect x="9.167" y="237.528" fill="none" width="21.185" height="10.596"/>
<g enable-background="new    ">
	<path fill="#39322E" d="M18.704,240.196c0.341,0.276,0.511,0.651,0.511,1.127c0,0.303-0.074,0.576-0.223,0.82
		c-0.149,0.245-0.372,0.439-0.67,0.583c-0.297,0.145-0.665,0.215-1.102,0.215c-0.361,0-0.708-0.051-1.043-0.153
		c-0.336-0.104-0.62-0.246-0.85-0.429l0.396-0.728c0.188,0.154,0.412,0.274,0.673,0.363c0.261,0.089,0.532,0.134,0.81,0.134
		c0.331,0,0.592-0.069,0.78-0.206c0.189-0.137,0.285-0.325,0.285-0.565c0-0.259-0.103-0.455-0.307-0.586
		c-0.203-0.132-0.553-0.199-1.048-0.199H15.7l0.259-2.742h2.959v0.783h-2.167l-0.108,1.167h0.482
		C17.838,239.781,18.363,239.92,18.704,240.196z"/>
	<path fill="#39322E" d="M20.777,242.636c-0.315-0.204-0.565-0.5-0.748-0.892c-0.184-0.393-0.273-0.855-0.273-1.395
		c0-0.538,0.092-1.002,0.273-1.393c0.182-0.393,0.432-0.688,0.748-0.894c0.318-0.204,0.678-0.306,1.082-0.306
		s0.764,0.102,1.082,0.306c0.32,0.205,0.57,0.501,0.754,0.894c0.182,0.391,0.272,0.854,0.272,1.393s-0.092,1.002-0.272,1.395
		c-0.184,0.392-0.434,0.688-0.754,0.892c-0.318,0.205-0.68,0.306-1.082,0.306C21.456,242.942,21.094,242.841,20.777,242.636z
		 M22.712,241.683c0.208-0.298,0.313-0.742,0.313-1.332s-0.104-1.035-0.313-1.332c-0.21-0.297-0.494-0.446-0.854-0.446
		c-0.354,0-0.637,0.149-0.846,0.446s-0.314,0.742-0.314,1.332s0.105,1.034,0.314,1.332c0.209,0.297,0.49,0.447,0.846,0.447
		C22.218,242.129,22.502,241.98,22.712,241.683z"/>
</g>
<rect x="9.451" y="267.792" fill="none" width="21.186" height="10.596"/>
<g enable-background="new    ">
	<path fill="#39322E" d="M19.986,271.991h-0.893v1.145h-0.906v-1.145h-2.766v-0.648l2.484-3.247h1l-2.34,3.103h1.649v-1.016h0.878
		v1.016h0.894V271.991L19.986,271.991z"/>
	<path fill="#39322E" d="M21.404,272.901c-0.316-0.204-0.566-0.501-0.748-0.893c-0.182-0.391-0.273-0.855-0.273-1.395
		c0-0.537,0.092-1.001,0.273-1.393c0.182-0.391,0.432-0.688,0.748-0.893c0.316-0.204,0.678-0.306,1.08-0.306
		s0.765,0.103,1.084,0.306c0.318,0.204,0.568,0.502,0.752,0.893c0.184,0.392,0.273,0.855,0.273,1.393
		c0,0.538-0.091,1.003-0.273,1.395c-0.184,0.392-0.434,0.688-0.752,0.893c-0.319,0.205-0.682,0.307-1.084,0.307
		C22.082,273.208,21.721,273.106,21.404,272.901z M23.338,271.947c0.21-0.298,0.313-0.74,0.313-1.332
		c0-0.59-0.104-1.033-0.313-1.331c-0.208-0.298-0.492-0.446-0.854-0.446c-0.354,0-0.637,0.148-0.846,0.446s-0.313,0.741-0.313,1.331
		c0,0.592,0.104,1.034,0.313,1.332c0.209,0.299,0.49,0.447,0.846,0.447C22.844,272.394,23.13,272.245,23.338,271.947z"/>
</g>
<rect x="9.374" y="296.49" fill="none" width="21.185" height="10.596"/>
<g enable-background="new    ">
	<path fill="#39322E" d="M18.977,299.349c0.246,0.26,0.367,0.584,0.367,0.973c0,0.292-0.074,0.56-0.223,0.799
		c-0.148,0.24-0.373,0.432-0.674,0.572c-0.299,0.143-0.665,0.213-1.098,0.213c-0.359,0-0.707-0.052-1.04-0.154
		c-0.334-0.104-0.618-0.246-0.854-0.429l0.403-0.728c0.182,0.153,0.404,0.274,0.666,0.363c0.262,0.089,0.532,0.134,0.81,0.134
		c0.331,0,0.591-0.069,0.781-0.206c0.188-0.137,0.284-0.323,0.284-0.559c0-0.234-0.09-0.419-0.271-0.551
		c-0.18-0.132-0.455-0.199-0.823-0.199h-0.461v-0.641l1.145-1.36h-2.289v-0.784h3.434v0.626l-1.224,1.453
		C18.377,298.932,18.732,299.09,18.977,299.349z"/>
	<path fill="#39322E" d="M20.979,301.599c-0.317-0.204-0.567-0.5-0.75-0.893c-0.183-0.391-0.272-0.854-0.272-1.394
		c0-0.538,0.091-1.001,0.272-1.393c0.183-0.393,0.433-0.688,0.75-0.894c0.315-0.204,0.676-0.305,1.08-0.305
		c0.402,0,0.764,0.102,1.082,0.305c0.32,0.205,0.57,0.501,0.754,0.894c0.183,0.392,0.272,0.854,0.272,1.393
		s-0.091,1.002-0.272,1.394c-0.184,0.393-0.434,0.688-0.754,0.893c-0.318,0.205-0.68,0.307-1.082,0.307
		C21.654,301.906,21.295,301.804,20.979,301.599z M22.911,300.645c0.21-0.298,0.313-0.742,0.313-1.332s-0.104-1.035-0.313-1.332
		c-0.208-0.297-0.492-0.445-0.853-0.445c-0.354,0-0.639,0.148-0.848,0.445c-0.208,0.297-0.313,0.742-0.313,1.332
		s0.104,1.034,0.313,1.332c0.209,0.297,0.492,0.447,0.848,0.447C22.419,301.092,22.703,300.942,22.911,300.645z"/>
</g>
<rect x="9.451" y="325.621" fill="none" width="21.186" height="10.596"/>
<g enable-background="new    ">
	<path fill="#39322E" d="M19.814,330.172v0.792h-3.715v-0.626l2-1.901c0.227-0.215,0.379-0.404,0.459-0.565
		c0.078-0.16,0.119-0.319,0.119-0.479c0-0.235-0.08-0.415-0.238-0.54s-0.392-0.188-0.698-0.188c-0.515,0-0.907,0.176-1.181,0.526
		l-0.655-0.504c0.197-0.264,0.462-0.47,0.795-0.616s0.707-0.22,1.12-0.22c0.547,0,0.984,0.13,1.311,0.389s0.489,0.612,0.489,1.06
		c0,0.272-0.058,0.529-0.173,0.77c-0.114,0.24-0.336,0.514-0.662,0.821l-1.348,1.281L19.814,330.172L19.814,330.172z"/>
	<path fill="#39322E" d="M23.507,328.289c0.343,0.276,0.513,0.651,0.513,1.128c0,0.302-0.074,0.575-0.224,0.819
		c-0.149,0.245-0.373,0.439-0.67,0.583c-0.298,0.145-0.665,0.215-1.103,0.215c-0.358,0-0.707-0.051-1.043-0.153
		c-0.336-0.104-0.621-0.246-0.851-0.429l0.396-0.728c0.188,0.154,0.412,0.275,0.675,0.363c0.262,0.089,0.53,0.134,0.81,0.134
		c0.331,0,0.592-0.069,0.781-0.206s0.284-0.325,0.284-0.565c0-0.259-0.103-0.455-0.306-0.586c-0.205-0.132-0.555-0.198-1.049-0.198
		h-1.216l0.259-2.743h2.959v0.783h-2.168l-0.107,1.168h0.482C22.641,327.874,23.166,328.014,23.507,328.289z"/>
</g>
<rect x="9.451" y="354.886" fill="none" width="21.186" height="10.595"/>
<g enable-background="new    ">
	<path fill="#39322E" d="M19.493,359.437v0.792h-3.715v-0.626l2.001-1.901c0.226-0.216,0.378-0.403,0.457-0.564
		c0.08-0.161,0.119-0.32,0.119-0.479c0-0.234-0.078-0.415-0.236-0.54c-0.159-0.125-0.393-0.188-0.699-0.188
		c-0.514,0-0.907,0.175-1.181,0.525l-0.655-0.504c0.197-0.264,0.462-0.47,0.795-0.615c0.333-0.147,0.707-0.221,1.12-0.221
		c0.547,0,0.983,0.13,1.312,0.389c0.326,0.26,0.488,0.612,0.488,1.059c0,0.273-0.057,0.531-0.172,0.771
		c-0.115,0.24-0.336,0.515-0.663,0.821l-1.347,1.281L19.493,359.437L19.493,359.437z"/>
	<path fill="#39322E" d="M21.034,359.993c-0.316-0.204-0.566-0.501-0.749-0.892c-0.182-0.392-0.273-0.855-0.273-1.395
		c0-0.536,0.092-1.001,0.273-1.393c0.183-0.392,0.433-0.688,0.749-0.893c0.315-0.204,0.678-0.307,1.079-0.307
		c0.404,0,0.766,0.103,1.084,0.307s0.57,0.501,0.753,0.893c0.183,0.391,0.272,0.855,0.272,1.393c0,0.539-0.091,1.003-0.272,1.395
		c-0.183,0.391-0.435,0.688-0.753,0.892c-0.318,0.205-0.68,0.307-1.084,0.307C21.712,360.3,21.35,360.198,21.034,359.993z
		 M22.968,359.039c0.21-0.297,0.313-0.74,0.313-1.331s-0.104-1.034-0.313-1.332c-0.209-0.298-0.493-0.446-0.854-0.446
		c-0.354,0-0.637,0.148-0.846,0.446s-0.313,0.741-0.313,1.332s0.104,1.034,0.313,1.331c0.209,0.299,0.49,0.447,0.846,0.447
		C22.473,359.487,22.759,359.338,22.968,359.039z"/>
</g>
<rect x="9.451" y="383.513" fill="none" width="21.186" height="10.596"/>
<g enable-background="new    ">
	<path fill="#39322E" d="M18.629,383.815v5.041h-0.936V384.6h-1.066v-0.785H18.629L18.629,383.815z"/>
	<path fill="#39322E" d="M22.783,386.181c0.342,0.277,0.512,0.652,0.512,1.127c0,0.303-0.074,0.576-0.223,0.82
		c-0.149,0.246-0.372,0.438-0.67,0.584c-0.299,0.145-0.666,0.216-1.103,0.216c-0.358,0-0.708-0.052-1.044-0.155
		c-0.336-0.103-0.619-0.246-0.85-0.428l0.396-0.728c0.188,0.153,0.411,0.274,0.674,0.363c0.262,0.088,0.531,0.133,0.81,0.133
		c0.332,0,0.592-0.067,0.78-0.205c0.189-0.137,0.285-0.324,0.285-0.563c0-0.26-0.103-0.455-0.307-0.588
		c-0.204-0.131-0.553-0.197-1.048-0.197h-1.218l0.261-2.744H23v0.785h-2.167l-0.108,1.166h0.482
		C21.918,385.767,22.441,385.905,22.783,386.181z"/>
</g>
<rect x="9.451" y="411.899" fill="none" width="21.186" height="10.595"/>
<g enable-background="new    ">
	<path fill="#39322E" d="M18.309,412.2v5.04h-0.936v-4.256h-1.066V412.2H18.309z"/>
	<path fill="#39322E" d="M20.332,417.007c-0.316-0.204-0.566-0.501-0.749-0.894c-0.183-0.391-0.272-0.854-0.272-1.394
		s0.09-1.001,0.272-1.395c0.183-0.391,0.433-0.688,0.749-0.893c0.316-0.203,0.677-0.305,1.08-0.305c0.402,0,0.766,0.102,1.084,0.305
		c0.318,0.205,0.57,0.502,0.752,0.893c0.184,0.394,0.273,0.855,0.273,1.395s-0.092,1.003-0.273,1.394
		c-0.182,0.393-0.434,0.688-0.752,0.894s-0.682,0.307-1.084,0.307C21.009,417.314,20.648,417.212,20.332,417.007z M22.266,416.053
		c0.207-0.298,0.313-0.741,0.313-1.332c0-0.59-0.105-1.034-0.313-1.332c-0.209-0.297-0.494-0.446-0.854-0.446
		c-0.354,0-0.638,0.149-0.847,0.446c-0.209,0.298-0.313,0.742-0.313,1.332c0,0.591,0.104,1.034,0.313,1.332s0.49,0.446,0.847,0.446
		C21.771,416.498,22.057,416.351,22.266,416.053z"/>
</g>
<rect x="9.167" y="442.287" fill="none" width="21.185" height="10.597"/>
<g enable-background="new    ">
	<path fill="#39322E" d="M21.605,445.468c0.142,0.205,0.213,0.442,0.213,0.717c0,0.307-0.086,0.576-0.256,0.807
		s-0.412,0.406-0.724,0.529c-0.313,0.122-0.675,0.184-1.088,0.184s-0.772-0.062-1.083-0.184c-0.309-0.123-0.548-0.299-0.716-0.529
		c-0.168-0.229-0.252-0.5-0.252-0.807c0-0.273,0.069-0.512,0.209-0.717c0.139-0.203,0.338-0.365,0.598-0.485
		c-0.202-0.11-0.356-0.257-0.464-0.437c-0.107-0.181-0.162-0.388-0.162-0.622c0-0.284,0.078-0.53,0.234-0.741
		c0.156-0.212,0.375-0.375,0.658-0.49s0.609-0.172,0.979-0.172c0.375,0,0.703,0.057,0.987,0.172c0.283,0.115,0.504,0.278,0.662,0.49
		c0.158,0.211,0.238,0.457,0.238,0.741c0,0.234-0.057,0.44-0.166,0.618c-0.109,0.179-0.27,0.323-0.477,0.439
		C21.262,445.103,21.465,445.265,21.605,445.468z M20.572,446.753c0.203-0.146,0.304-0.345,0.304-0.599
		c0-0.25-0.101-0.446-0.304-0.59c-0.201-0.145-0.475-0.216-0.82-0.216c-0.345,0-0.617,0.071-0.813,0.216
		c-0.197,0.145-0.295,0.34-0.295,0.59c0,0.254,0.099,0.453,0.295,0.599c0.195,0.145,0.468,0.217,0.813,0.217
		C20.098,446.97,20.371,446.897,20.572,446.753z M19.057,443.44c-0.17,0.125-0.256,0.301-0.256,0.526
		c0,0.216,0.086,0.388,0.256,0.515s0.402,0.191,0.694,0.191c0.298,0,0.533-0.064,0.707-0.191c0.172-0.127,0.258-0.299,0.258-0.515
		c0-0.227-0.087-0.401-0.262-0.526c-0.175-0.123-0.41-0.186-0.703-0.186C19.459,443.255,19.229,443.317,19.057,443.44z"/>
</g>
<rect x="9.451" y="471.612" fill="none" width="21.186" height="10.597"/>
<g enable-background="new    ">
	<path fill="#39322E" d="M21.286,474.036c0.265,0.128,0.471,0.31,0.618,0.544c0.15,0.234,0.225,0.507,0.225,0.813
		c0,0.327-0.081,0.613-0.245,0.861c-0.163,0.247-0.383,0.438-0.661,0.571c-0.279,0.135-0.591,0.201-0.937,0.201
		c-0.69,0-1.228-0.215-1.608-0.646c-0.382-0.434-0.572-1.053-0.572-1.858c0-0.566,0.103-1.049,0.31-1.45
		c0.206-0.4,0.495-0.706,0.867-0.914c0.372-0.21,0.803-0.313,1.293-0.313c0.259,0,0.502,0.026,0.729,0.083
		c0.229,0.055,0.426,0.136,0.596,0.241l-0.348,0.704c-0.248-0.161-0.568-0.243-0.957-0.243c-0.486,0-0.865,0.147-1.139,0.445
		s-0.41,0.728-0.41,1.288v0.008c0.148-0.174,0.338-0.304,0.569-0.393c0.229-0.088,0.489-0.133,0.776-0.133
		C20.725,473.847,21.021,473.908,21.286,474.036z M20.947,476.061c0.183-0.156,0.273-0.364,0.273-0.624
		c0-0.263-0.092-0.473-0.273-0.625c-0.182-0.154-0.426-0.23-0.733-0.23c-0.303,0-0.548,0.081-0.737,0.244
		c-0.189,0.164-0.285,0.369-0.285,0.619c0,0.245,0.093,0.448,0.277,0.608c0.186,0.161,0.44,0.241,0.768,0.241
		C20.527,476.294,20.766,476.216,20.947,476.061z"/>
</g>
<rect x="9.451" y="501.813" fill="none" width="21.186" height="10.595"/>
<g enable-background="new    ">
	<path fill="#39322E" d="M21.412,504.481c0.342,0.277,0.512,0.652,0.512,1.127c0,0.303-0.074,0.576-0.224,0.82
		c-0.147,0.246-0.371,0.438-0.671,0.584c-0.297,0.145-0.664,0.216-1.1,0.216c-0.361,0-0.709-0.052-1.045-0.155
		c-0.336-0.103-0.619-0.246-0.85-0.428l0.396-0.727c0.188,0.152,0.411,0.273,0.672,0.362c0.262,0.088,0.533,0.133,0.811,0.133
		c0.332,0,0.592-0.067,0.781-0.204c0.189-0.138,0.285-0.325,0.285-0.564c0-0.26-0.103-0.455-0.308-0.588
		c-0.202-0.131-0.553-0.197-1.047-0.197H18.41l0.259-2.744h2.959v0.785H19.46l-0.106,1.166h0.481
		C20.546,504.067,21.07,504.205,21.412,504.481z"/>
</g>
<rect x="8.539" y="530.317" fill="none" width="21.184" height="10.596"/>
<g enable-background="new    ">
	<path fill="#39322E" d="M21.497,534.517h-0.894v1.145h-0.906v-1.145h-2.766v-0.648l2.484-3.246h1.001l-2.34,3.104h1.649v-1.016
		h0.877v1.016h0.895L21.497,534.517L21.497,534.517z"/>
</g>
<rect x="9.451" y="559.263" fill="none" width="21.186" height="10.596"/>
<g enable-background="new    ">
	<path fill="#39322E" d="M21.477,562.119c0.244,0.261,0.367,0.584,0.367,0.974c0,0.293-0.074,0.559-0.224,0.8
		c-0.147,0.239-0.374,0.431-0.675,0.571c-0.299,0.143-0.666,0.213-1.098,0.213c-0.359,0-0.707-0.051-1.039-0.154
		c-0.334-0.104-0.619-0.246-0.854-0.428l0.403-0.729c0.182,0.154,0.404,0.275,0.666,0.363c0.262,0.09,0.531,0.135,0.81,0.135
		c0.331,0,0.592-0.068,0.78-0.206c0.191-0.137,0.285-0.322,0.285-0.558s-0.09-0.419-0.271-0.551
		c-0.181-0.134-0.455-0.199-0.823-0.199h-0.462v-0.641l1.146-1.36h-2.289v-0.784h3.434v0.627l-1.223,1.453
		C20.877,561.703,21.23,561.862,21.477,562.119z"/>
</g>
<rect x="8.539" y="588.405" fill="none" width="21.184" height="10.597"/>
<g enable-background="new    ">
	<path fill="#39322E" d="M21.004,592.954v0.792h-3.715v-0.627l2.001-1.899c0.226-0.215,0.378-0.404,0.458-0.564
		c0.079-0.161,0.119-0.32,0.119-0.479c0-0.236-0.079-0.416-0.237-0.541c-0.159-0.125-0.392-0.188-0.698-0.188
		c-0.515,0-0.908,0.176-1.182,0.526l-0.656-0.504c0.197-0.266,0.463-0.471,0.797-0.616c0.334-0.146,0.707-0.219,1.119-0.219
		c0.547,0,0.984,0.129,1.311,0.389c0.326,0.259,0.49,0.611,0.49,1.059c0,0.273-0.058,0.529-0.172,0.771
		c-0.117,0.24-0.336,0.514-0.664,0.821l-1.347,1.28H21.004L21.004,592.954z"/>
</g>
<rect x="9.451" y="618.118" fill="none" width="21.186" height="10.596"/>
<g enable-background="new    ">
	<path fill="#39322E" d="M20.732,618.424v5.04h-0.938v-4.256H18.73v-0.784H20.732z"/>
</g>
<circle fill="#39322E" cx="19.758" cy="89.816" r="14.909"/>
<rect x="0.844" y="640.812" fill="none" width="35.2" height="17.199"/>
<g enable-background="new    ">
	<path d="M18.76,649.834c0.283,0.281,0.424,0.702,0.424,1.264v2.203h-0.9v-2.088c0-0.336-0.074-0.59-0.223-0.76
		c-0.149-0.17-0.362-0.256-0.641-0.256c-0.303,0-0.545,0.1-0.728,0.299c-0.183,0.199-0.274,0.484-0.274,0.854v1.95h-0.9v-2.088
		c0-0.336-0.074-0.59-0.223-0.76s-0.363-0.256-0.641-0.256c-0.307,0-0.551,0.1-0.73,0.296c-0.18,0.196-0.271,0.48-0.271,0.855v1.951
		h-0.9v-3.844h0.857v0.488c0.144-0.172,0.324-0.306,0.54-0.396c0.216-0.09,0.456-0.137,0.72-0.137c0.289,0,0.544,0.055,0.767,0.163
		s0.399,0.267,0.529,0.479c0.159-0.202,0.362-0.358,0.612-0.473c0.25-0.112,0.524-0.17,0.828-0.17
		C18.092,649.412,18.477,649.553,18.76,649.834z"/>
	<path d="M26.34,649.834c0.283,0.281,0.426,0.702,0.426,1.264v2.203h-0.899v-2.088c0-0.336-0.073-0.59-0.224-0.76
		c-0.148-0.17-0.362-0.256-0.641-0.256c-0.304,0-0.545,0.1-0.728,0.299S24,650.981,24,651.351v1.95h-0.9v-2.088
		c0-0.336-0.073-0.59-0.223-0.76c-0.148-0.17-0.361-0.256-0.641-0.256c-0.309,0-0.551,0.1-0.73,0.296
		c-0.179,0.196-0.271,0.48-0.271,0.855v1.951h-0.899v-3.844h0.856v0.488c0.144-0.172,0.323-0.306,0.54-0.396
		c0.215-0.09,0.456-0.137,0.72-0.137c0.288,0,0.544,0.055,0.767,0.163c0.225,0.107,0.399,0.267,0.529,0.479
		c0.159-0.202,0.362-0.358,0.612-0.473c0.25-0.112,0.524-0.17,0.828-0.17C25.674,649.412,26.057,649.553,26.34,649.834z"/>
</g>
<g>
	<path fill="#FFFFFF" d="M31.18,90.489c0.006-0.036,0.01-0.074,0.01-0.111c-0.01-6.1-4.822-11.078-10.85-11.383v-0.999
		c0-0.321-0.26-0.581-0.583-0.581c-0.319,0-0.582,0.26-0.582,0.581v0.999c-6.025,0.305-10.836,5.283-10.848,11.4
		c0,0.313,0.272,0.582,0.583,0.582c0.148,0,0.303-0.068,0.411-0.171c1.922-1.833,4.501-1.833,6.422,0.008
		c0.109,0.104,0.276,0.162,0.425,0.155c0.133-0.004,0.282-0.063,0.38-0.155c0.795-0.761,1.704-1.188,2.632-1.32v7.878
		c0,1.602,1.303,2.905,2.903,2.905c1.604,0,2.907-1.304,2.907-2.905c0-0.321-0.262-0.582-0.581-0.582
		c-0.321,0-0.583,0.261-0.583,0.582c0,0.961-0.781,1.742-1.743,1.742s-1.744-0.781-1.744-1.742v-7.878
		c0.927,0.131,1.835,0.56,2.63,1.32c0.217,0.206,0.588,0.208,0.805,0c1.92-1.841,4.5-1.841,6.433,0
		C30.4,91,30.7,91.026,30.922,90.877C31.055,90.788,31.148,90.644,31.18,90.489z M22.895,89.265
		c-0.953-0.645-2.008-0.974-3.066-0.987c-0.023-0.003-0.045-0.014-0.07-0.014c-0.023,0-0.046,0.012-0.068,0.014
		c-1.058,0.015-2.112,0.343-3.068,0.987c-0.284-3.98,0.711-7.057,1.911-8.418c0.833-0.943,1.62-0.943,2.452,0
		C22.186,82.208,23.182,85.284,22.895,89.265z M9.574,89.146c0.522-4.283,3.689-7.753,7.816-8.732
		c-1.152,1.544-2.203,4.564-1.945,8.714C13.599,87.989,11.418,87.995,9.574,89.146z M24.07,89.126
		c0.258-4.149-0.793-7.17-1.943-8.714c4.127,0.979,7.294,4.449,7.816,8.732C28.1,87.994,25.919,87.989,24.07,89.126z"/>
</g>
</svg>
