<?xml version="1.0" encoding="utf-8"?>
<!-- Generator: Adobe Illustrator 16.0.0, SVG Export Plug-In . SVG Version: 6.00 Build 0)  -->
<!DOCTYPE svg PUBLIC "-//W3C//DTD SVG 1.1//EN" "http://www.w3.org/Graphics/SVG/1.1/DTD/svg11.dtd">
<svg version="1.1" id="Livello_1" xmlns="http://www.w3.org/2000/svg" xmlns:xlink="http://www.w3.org/1999/xlink" x="0px" y="0px"
	 width="32.586px" height="591.903px" viewBox="3.457 73.403 32.586 591.903" enable-background="new 3.457 73.403 32.586 591.903"
	 xml:space="preserve">
<g>
	<defs>
		<path id="SVGID_1_" d="M30.351,655.946c-0.349,3.4-5.673,7.51-10.307,7.51l0,0c-4.592,0.367-10.877-3.316-10.877-7.51V117.7
			c1.024-4.941,6.495-7.797,10.184-7.792l0,0c4.296-0.005,9.896,2.929,11.001,7.984V655.946z"/>
	</defs>
	<clipPath id="SVGID_2_">
		<use xlink:href="#SVGID_1_"  overflow="visible"/>
	</clipPath>
	<rect x="-1.936" y="109.7" clip-path="url(#SVGID_2_)" fill="#4897D9" width="44.329" height="29.383"/>
	<rect x="-1.935" y="139.083" clip-path="url(#SVGID_2_)" fill="#A2A4D6" width="44.329" height="29.384"/>
	<rect x="-1.466" y="168.468" clip-path="url(#SVGID_2_)" fill="#B887C0" width="44.329" height="29.384"/>
	<rect x="-1.465" y="197.852" clip-path="url(#SVGID_2_)" fill="#D6A1CC" width="44.329" height="29.384"/>
	<rect x="-1.936" y="227.236" clip-path="url(#SVGID_2_)" fill="#E7BDDA" width="44.329" height="29.384"/>
	<rect x="-1.935" y="256.62" clip-path="url(#SVGID_2_)" fill="#E57D9A" width="44.329" height="29.384"/>
	<rect x="-1.936" y="286.004" clip-path="url(#SVGID_2_)" fill="#DA4C4D" width="44.329" height="29.384"/>
	<rect x="-1.935" y="315.388" clip-path="url(#SVGID_2_)" fill="#EE5A5C" width="44.329" height="29.383"/>
	<rect x="-1.465" y="344.771" clip-path="url(#SVGID_2_)" fill="#F6A15C" width="44.329" height="29.383"/>
	<rect x="-1.465" y="374.153" clip-path="url(#SVGID_2_)" fill="#FCD48E" width="44.329" height="29.387"/>
	<rect x="-1.465" y="403.54" clip-path="url(#SVGID_2_)" fill="#FFE073" width="44.329" height="29.383"/>
	<rect x="-0.994" y="521.073" clip-path="url(#SVGID_2_)" fill="#D2EBA3" width="44.329" height="29.385"/>
	<rect x="-0.993" y="550.458" clip-path="url(#SVGID_2_)" fill="#C2E5D7" width="44.329" height="29.384"/>
	<rect x="-0.526" y="579.842" clip-path="url(#SVGID_2_)" fill="#C7E7EF" width="44.329" height="29.384"/>
	<rect x="-0.526" y="609.226" clip-path="url(#SVGID_2_)" fill="#CFEAF6" width="44.329" height="54.463"/>
	<rect x="-0.994" y="432.923" clip-path="url(#SVGID_2_)" fill="#FDFD81" width="44.329" height="29.384"/>
	<rect x="-0.995" y="462.307" clip-path="url(#SVGID_2_)" fill="#FFFFC6" width="44.329" height="29.384"/>
	<rect x="-0.994" y="491.69" clip-path="url(#SVGID_2_)" fill="#F2F2A0" width="44.329" height="29.383"/>
</g>
<path fill="none" stroke="#3B3330" stroke-width="3" stroke-miterlimit="10" d="M30.35,655.126c-0.207,2.885-5.673,7.51-10.307,7.51
	l0,0c-4.592,0.367-10.877-3.316-10.877-7.51V116.878c1.023-4.94,6.494-7.797,10.183-7.792l0,0c4.296-0.006,9.896,2.929,11,7.984
	L30.35,655.126L30.35,655.126z"/>
<rect x="9.451" y="118.008" fill="none" width="21.185" height="10.595"/>
<g enable-background="new    ">
	<path fill="#39322E" d="M16.632,120.866c0.245,0.259,0.367,0.583,0.367,0.973c0,0.292-0.075,0.559-0.224,0.799
		c-0.148,0.24-0.373,0.431-0.673,0.572c-0.3,0.141-0.666,0.212-1.098,0.212c-0.36,0-0.707-0.052-1.04-0.155
		c-0.334-0.103-0.619-0.246-0.854-0.428l0.403-0.727c0.182,0.154,0.404,0.275,0.666,0.363c0.261,0.089,0.531,0.133,0.81,0.133
		c0.331,0,0.591-0.069,0.781-0.206c0.189-0.137,0.284-0.322,0.284-0.558s-0.09-0.419-0.27-0.551s-0.455-0.198-0.825-0.198H14.5
		v-0.641l1.145-1.361h-2.29v-0.784h3.435v0.626l-1.224,1.454C16.031,120.449,16.386,120.607,16.632,120.866z"/>
	<path fill="#39322E" d="M18.633,123.116c-0.316-0.204-0.566-0.501-0.749-0.893c-0.183-0.391-0.273-0.855-0.273-1.394
		c0-0.538,0.091-1.001,0.273-1.393c0.182-0.391,0.432-0.688,0.749-0.893c0.317-0.204,0.677-0.305,1.08-0.305
		c0.403,0,0.764,0.102,1.084,0.305c0.319,0.205,0.569,0.502,0.752,0.893c0.183,0.392,0.273,0.855,0.273,1.393
		c0,0.538-0.091,1.002-0.273,1.394c-0.183,0.392-0.433,0.688-0.752,0.893c-0.32,0.205-0.681,0.306-1.084,0.306
		C19.31,123.422,18.949,123.321,18.633,123.116z M20.566,122.162c0.209-0.298,0.313-0.741,0.313-1.332
		c0-0.59-0.104-1.034-0.313-1.332c-0.209-0.297-0.493-0.446-0.854-0.446c-0.355,0-0.637,0.149-0.846,0.446
		c-0.209,0.298-0.313,0.742-0.313,1.332c0,0.591,0.104,1.034,0.313,1.332s0.491,0.447,0.846,0.447
		C20.073,122.609,20.357,122.46,20.566,122.162z"/>
	<path fill="#39322E" d="M23.478,123.116c-0.317-0.204-0.566-0.501-0.748-0.893c-0.183-0.391-0.273-0.855-0.273-1.394
		c0-0.538,0.091-1.001,0.273-1.393c0.182-0.391,0.431-0.688,0.748-0.893c0.317-0.204,0.677-0.305,1.08-0.305
		s0.765,0.102,1.084,0.305c0.319,0.205,0.569,0.502,0.752,0.893c0.183,0.392,0.274,0.855,0.274,1.393
		c0,0.538-0.092,1.002-0.274,1.394c-0.183,0.392-0.433,0.688-0.752,0.893c-0.319,0.205-0.681,0.306-1.084,0.306
		S23.796,123.321,23.478,123.116z M25.411,122.162c0.21-0.298,0.314-0.741,0.314-1.332c0-0.59-0.104-1.034-0.314-1.332
		c-0.207-0.297-0.492-0.446-0.853-0.446c-0.354,0-0.637,0.149-0.846,0.446c-0.209,0.298-0.313,0.742-0.313,1.332
		c0,0.591,0.104,1.034,0.313,1.332s0.491,0.447,0.846,0.447C24.919,122.609,25.204,122.46,25.411,122.162z"/>
</g>
<rect x="9.167" y="148.867" fill="none" width="21.184" height="10.595"/>
<g enable-background="new    ">
	<path fill="#39322E" d="M16.785,153.417v0.792H13.07v-0.627l2.002-1.9c0.226-0.216,0.378-0.404,0.457-0.565
		c0.079-0.161,0.119-0.32,0.119-0.479c0-0.235-0.08-0.415-0.238-0.54c-0.159-0.125-0.391-0.188-0.698-0.188
		c-0.514,0-0.908,0.175-1.181,0.526l-0.655-0.504c0.197-0.264,0.462-0.469,0.796-0.616c0.333-0.146,0.707-0.219,1.119-0.219
		c0.547,0,0.984,0.129,1.311,0.388c0.326,0.259,0.49,0.612,0.49,1.059c0,0.273-0.058,0.53-0.173,0.771
		c-0.115,0.24-0.336,0.514-0.663,0.821l-1.346,1.281H16.785z"/>
	<path fill="#39322E" d="M18.326,153.976c-0.316-0.204-0.566-0.501-0.749-0.893c-0.183-0.391-0.273-0.855-0.273-1.394
		c0-0.538,0.091-1.001,0.273-1.393c0.182-0.391,0.432-0.688,0.749-0.893c0.317-0.204,0.677-0.305,1.08-0.305
		c0.403,0,0.765,0.102,1.083,0.305c0.319,0.205,0.57,0.502,0.753,0.893c0.182,0.392,0.273,0.855,0.273,1.393
		c0,0.538-0.092,1.002-0.273,1.394c-0.184,0.392-0.434,0.688-0.753,0.893c-0.319,0.205-0.68,0.306-1.083,0.306
		C19.003,154.282,18.643,154.18,18.326,153.976z M20.26,153.021c0.209-0.298,0.313-0.741,0.313-1.332
		c0-0.59-0.104-1.034-0.313-1.332c-0.209-0.297-0.493-0.446-0.854-0.446c-0.355,0-0.637,0.149-0.846,0.446
		c-0.209,0.298-0.313,0.742-0.313,1.332c0,0.591,0.104,1.034,0.313,1.332s0.491,0.447,0.846,0.447
		C19.766,153.468,20.051,153.319,20.26,153.021z"/>
	<path fill="#39322E" d="M23.173,153.976c-0.317-0.204-0.567-0.501-0.75-0.893c-0.182-0.391-0.273-0.855-0.273-1.394
		c0-0.538,0.092-1.001,0.273-1.393c0.183-0.391,0.433-0.688,0.75-0.893c0.316-0.204,0.676-0.305,1.079-0.305
		s0.765,0.102,1.084,0.305c0.319,0.205,0.569,0.502,0.752,0.893c0.183,0.392,0.273,0.855,0.273,1.393
		c0,0.538-0.091,1.002-0.273,1.394c-0.183,0.392-0.433,0.688-0.752,0.893c-0.319,0.205-0.681,0.306-1.084,0.306
		S23.489,154.18,23.173,153.976z M25.105,153.021c0.209-0.298,0.313-0.741,0.313-1.332c0-0.59-0.104-1.034-0.313-1.332
		c-0.209-0.297-0.493-0.446-0.854-0.446c-0.354,0-0.638,0.149-0.846,0.446c-0.209,0.298-0.313,0.742-0.313,1.332
		c0,0.591,0.104,1.034,0.313,1.332c0.208,0.298,0.491,0.447,0.846,0.447C24.612,153.468,24.896,153.319,25.105,153.021z"/>
</g>
<rect x="9.167" y="179.821" fill="none" width="21.184" height="10.595"/>
<g enable-background="new    ">
	<path fill="#39322E" d="M15.601,180.124v5.04h-0.937v-4.255h-1.065v-0.784H15.601z"/>
	<path fill="#39322E" d="M17.624,184.929c-0.317-0.204-0.566-0.5-0.749-0.892c-0.182-0.392-0.273-0.855-0.273-1.394
		c0-0.538,0.091-1.002,0.273-1.393c0.183-0.392,0.432-0.688,0.749-0.893c0.317-0.204,0.677-0.306,1.08-0.306
		c0.403,0,0.764,0.102,1.083,0.306c0.319,0.205,0.57,0.501,0.752,0.893c0.182,0.391,0.274,0.855,0.274,1.393
		c0,0.538-0.092,1.002-0.274,1.394c-0.183,0.392-0.433,0.688-0.752,0.892c-0.319,0.205-0.681,0.306-1.083,0.306
		C18.301,185.235,17.941,185.134,17.624,184.929z M19.557,183.976c0.209-0.298,0.313-0.742,0.313-1.332
		c0-0.59-0.104-1.035-0.313-1.332c-0.208-0.297-0.493-0.446-0.853-0.446c-0.355,0-0.637,0.149-0.846,0.446
		c-0.208,0.297-0.313,0.742-0.313,1.332c0,0.59,0.104,1.034,0.313,1.332c0.209,0.297,0.491,0.447,0.846,0.447
		C19.064,184.422,19.349,184.273,19.557,183.976z"/>
	<path fill="#39322E" d="M22.469,184.929c-0.316-0.204-0.566-0.5-0.749-0.892s-0.273-0.855-0.273-1.394
		c0-0.538,0.091-1.002,0.273-1.393c0.183-0.392,0.433-0.688,0.749-0.893c0.316-0.204,0.677-0.306,1.08-0.306
		s0.765,0.102,1.084,0.306c0.318,0.205,0.57,0.501,0.752,0.893c0.182,0.391,0.274,0.855,0.274,1.393
		c0,0.538-0.093,1.002-0.274,1.394s-0.434,0.688-0.752,0.892c-0.319,0.205-0.681,0.306-1.084,0.306S22.786,185.134,22.469,184.929z
		 M24.403,183.976c0.208-0.298,0.313-0.742,0.313-1.332c0-0.59-0.104-1.035-0.313-1.332c-0.209-0.297-0.493-0.446-0.854-0.446
		c-0.355,0-0.637,0.149-0.846,0.446c-0.209,0.297-0.313,0.742-0.313,1.332c0,0.59,0.104,1.034,0.313,1.332
		c0.209,0.297,0.49,0.447,0.846,0.447C23.91,184.422,24.194,184.273,24.403,183.976z"/>
</g>
<rect x="9.167" y="208.646" fill="none" width="21.184" height="10.595"/>
<g enable-background="new    ">
	<path fill="#39322E" d="M19.586,208.95v0.626l-1.958,4.413h-1.001l1.894-4.248h-1.98v0.856h-0.871v-1.648H19.586z"/>
	<path fill="#39322E" d="M23.186,211.314c0.341,0.276,0.511,0.651,0.511,1.127c0,0.302-0.075,0.576-0.224,0.82
		c-0.148,0.245-0.371,0.439-0.669,0.583c-0.298,0.144-0.665,0.216-1.102,0.216c-0.36,0-0.708-0.052-1.044-0.155
		c-0.336-0.103-0.62-0.246-0.85-0.428l0.396-0.728c0.188,0.154,0.412,0.275,0.674,0.363c0.261,0.089,0.531,0.134,0.81,0.134
		c0.331,0,0.592-0.069,0.781-0.206c0.19-0.137,0.284-0.325,0.284-0.565c0-0.259-0.102-0.455-0.306-0.586
		c-0.204-0.132-0.553-0.199-1.048-0.199h-1.217l0.259-2.743h2.959v0.784h-2.167l-0.108,1.167h0.483
		C22.319,210.9,22.845,211.039,23.186,211.314z"/>
</g>
<rect x="9.167" y="237.528" fill="none" width="21.184" height="10.595"/>
<g enable-background="new    ">
	<path fill="#39322E" d="M18.704,240.196c0.341,0.276,0.511,0.651,0.511,1.127c0,0.302-0.075,0.576-0.223,0.82
		c-0.149,0.245-0.372,0.439-0.67,0.583c-0.297,0.144-0.665,0.215-1.102,0.215c-0.36,0-0.708-0.051-1.043-0.154
		c-0.336-0.104-0.62-0.246-0.85-0.428l0.396-0.728c0.188,0.154,0.412,0.275,0.673,0.363c0.261,0.089,0.532,0.134,0.81,0.134
		c0.331,0,0.592-0.069,0.781-0.206s0.284-0.325,0.284-0.565c0-0.259-0.102-0.455-0.306-0.586c-0.204-0.132-0.553-0.199-1.048-0.199
		h-1.217l0.259-2.743h2.959v0.784h-2.167l-0.108,1.167h0.482C17.838,239.782,18.364,239.92,18.704,240.196z"/>
	<path fill="#39322E" d="M20.778,242.636c-0.316-0.204-0.566-0.5-0.749-0.892c-0.183-0.392-0.273-0.855-0.273-1.394
		c0-0.538,0.091-1.002,0.273-1.393c0.182-0.392,0.432-0.688,0.749-0.893c0.317-0.204,0.677-0.306,1.081-0.306
		s0.764,0.102,1.083,0.306c0.319,0.205,0.57,0.501,0.753,0.893c0.182,0.391,0.273,0.855,0.273,1.393
		c0,0.538-0.092,1.002-0.273,1.394c-0.183,0.392-0.434,0.688-0.753,0.892c-0.319,0.205-0.68,0.306-1.083,0.306
		S21.094,242.841,20.778,242.636z M22.712,241.683c0.208-0.298,0.313-0.742,0.313-1.332c0-0.59-0.104-1.035-0.313-1.332
		c-0.21-0.297-0.494-0.446-0.854-0.446c-0.355,0-0.638,0.149-0.847,0.446c-0.208,0.297-0.313,0.742-0.313,1.332
		c0,0.59,0.104,1.034,0.313,1.332c0.209,0.297,0.491,0.447,0.847,0.447C22.218,242.129,22.502,241.98,22.712,241.683z"/>
</g>
<rect x="9.451" y="267.792" fill="none" width="21.185" height="10.596"/>
<g enable-background="new    ">
	<path fill="#39322E" d="M19.987,271.991h-0.893v1.145h-0.907v-1.145h-2.765v-0.648l2.484-3.247h1l-2.34,3.103h1.649v-1.016h0.878
		v1.016h0.893V271.991z"/>
	<path fill="#39322E" d="M21.405,272.901c-0.317-0.204-0.567-0.501-0.749-0.893c-0.182-0.391-0.273-0.855-0.273-1.394
		c0-0.538,0.091-1.001,0.273-1.393c0.182-0.391,0.432-0.688,0.749-0.893c0.316-0.204,0.677-0.305,1.08-0.305
		c0.402,0,0.764,0.102,1.083,0.305c0.319,0.205,0.569,0.502,0.753,0.893c0.183,0.392,0.273,0.855,0.273,1.393
		c0,0.538-0.091,1.002-0.273,1.394c-0.184,0.392-0.434,0.688-0.753,0.893c-0.319,0.205-0.681,0.306-1.083,0.306
		C22.082,273.208,21.721,273.106,21.405,272.901z M23.338,271.947c0.21-0.298,0.313-0.741,0.313-1.332
		c0-0.59-0.104-1.034-0.313-1.332c-0.208-0.297-0.493-0.446-0.853-0.446c-0.355,0-0.638,0.149-0.847,0.446
		c-0.208,0.298-0.313,0.742-0.313,1.332c0,0.591,0.105,1.034,0.313,1.332c0.209,0.298,0.491,0.447,0.847,0.447
		C22.844,272.394,23.13,272.245,23.338,271.947z"/>
</g>
<rect x="9.374" y="296.49" fill="none" width="21.184" height="10.595"/>
<g enable-background="new    ">
	<path fill="#39322E" d="M18.977,299.349c0.245,0.26,0.367,0.584,0.367,0.973c0,0.292-0.075,0.559-0.223,0.799
		c-0.149,0.24-0.373,0.431-0.673,0.572c-0.3,0.142-0.666,0.213-1.098,0.213c-0.36,0-0.707-0.052-1.04-0.155
		c-0.334-0.103-0.618-0.246-0.854-0.428l0.403-0.728c0.182,0.154,0.404,0.275,0.666,0.363c0.262,0.089,0.531,0.134,0.81,0.134
		c0.331,0,0.591-0.069,0.781-0.206c0.189-0.137,0.284-0.323,0.284-0.558c0-0.235-0.09-0.419-0.27-0.551
		c-0.18-0.132-0.455-0.199-0.824-0.199h-0.461v-0.641l1.145-1.361h-2.289v-0.784h3.434v0.626l-1.224,1.454
		C18.377,298.932,18.732,299.09,18.977,299.349z"/>
	<path fill="#39322E" d="M20.978,301.599c-0.317-0.204-0.567-0.5-0.749-0.892c-0.183-0.391-0.273-0.855-0.273-1.394
		c0-0.538,0.091-1.001,0.273-1.393c0.182-0.392,0.432-0.688,0.749-0.893c0.316-0.204,0.677-0.305,1.08-0.305
		s0.764,0.102,1.083,0.305c0.32,0.205,0.57,0.501,0.753,0.893s0.273,0.855,0.273,1.393c0,0.538-0.091,1.002-0.273,1.394
		c-0.183,0.392-0.433,0.688-0.753,0.892c-0.319,0.205-0.68,0.307-1.083,0.307S21.295,301.804,20.978,301.599z M22.911,300.645
		c0.21-0.298,0.313-0.742,0.313-1.332c0-0.59-0.104-1.035-0.313-1.332c-0.208-0.297-0.492-0.446-0.853-0.446
		c-0.354,0-0.638,0.149-0.847,0.446c-0.208,0.297-0.313,0.742-0.313,1.332c0,0.59,0.104,1.034,0.313,1.332
		c0.209,0.297,0.492,0.447,0.847,0.447C22.419,301.092,22.703,300.942,22.911,300.645z"/>
</g>
<rect x="9.451" y="325.622" fill="none" width="21.185" height="10.595"/>
<g enable-background="new    ">
	<path fill="#39322E" d="M19.814,330.172v0.792h-3.715v-0.626l2.001-1.901c0.226-0.215,0.378-0.404,0.458-0.565
		c0.079-0.161,0.119-0.32,0.119-0.479c0-0.235-0.079-0.415-0.237-0.54c-0.159-0.125-0.392-0.188-0.699-0.188
		c-0.514,0-0.907,0.175-1.181,0.526l-0.655-0.504c0.197-0.264,0.462-0.47,0.795-0.616c0.333-0.147,0.707-0.22,1.12-0.22
		c0.547,0,0.984,0.13,1.311,0.389c0.326,0.259,0.489,0.612,0.489,1.059c0,0.273-0.057,0.53-0.172,0.77s-0.336,0.514-0.663,0.821
		l-1.347,1.281H19.814z"/>
	<path fill="#39322E" d="M23.507,328.29c0.342,0.276,0.512,0.651,0.512,1.127c0,0.302-0.074,0.576-0.223,0.82
		c-0.15,0.245-0.373,0.439-0.67,0.583c-0.298,0.144-0.665,0.215-1.102,0.215c-0.359,0-0.708-0.051-1.044-0.154
		c-0.336-0.104-0.62-0.246-0.85-0.428l0.396-0.728c0.188,0.154,0.412,0.275,0.674,0.363c0.262,0.089,0.531,0.134,0.81,0.134
		c0.331,0,0.592-0.069,0.781-0.206s0.284-0.325,0.284-0.565c0-0.259-0.102-0.455-0.306-0.586c-0.204-0.132-0.554-0.199-1.048-0.199
		h-1.216l0.259-2.743h2.959v0.784h-2.168l-0.107,1.167h0.482C22.641,327.875,23.166,328.014,23.507,328.29z"/>
</g>
<rect x="9.451" y="354.886" fill="none" width="21.185" height="10.595"/>
<g enable-background="new    ">
	<path fill="#39322E" d="M19.493,359.437v0.792h-3.715v-0.626l2.001-1.901c0.226-0.216,0.378-0.404,0.458-0.565
		c0.079-0.161,0.119-0.32,0.119-0.479c0-0.235-0.079-0.415-0.237-0.54c-0.159-0.125-0.392-0.188-0.699-0.188
		c-0.514,0-0.907,0.175-1.181,0.526l-0.655-0.504c0.197-0.264,0.462-0.47,0.795-0.616c0.333-0.147,0.707-0.22,1.12-0.22
		c0.547,0,0.984,0.13,1.311,0.388c0.326,0.26,0.489,0.613,0.489,1.059c0,0.273-0.057,0.531-0.172,0.771s-0.336,0.514-0.663,0.821
		l-1.347,1.281H19.493z"/>
	<path fill="#39322E" d="M21.034,359.994c-0.316-0.204-0.566-0.501-0.749-0.892c-0.182-0.392-0.273-0.855-0.273-1.394
		c0-0.537,0.091-1.001,0.273-1.393c0.183-0.392,0.433-0.688,0.749-0.893c0.316-0.204,0.678-0.306,1.08-0.306
		c0.403,0,0.765,0.102,1.083,0.306c0.319,0.205,0.57,0.501,0.753,0.893c0.183,0.391,0.273,0.855,0.273,1.393
		c0,0.539-0.091,1.002-0.273,1.394c-0.183,0.391-0.434,0.688-0.753,0.892c-0.318,0.205-0.68,0.306-1.083,0.306
		C21.712,360.3,21.35,360.199,21.034,359.994z M22.968,359.04c0.209-0.297,0.313-0.741,0.313-1.332c0-0.59-0.104-1.034-0.313-1.332
		c-0.209-0.297-0.494-0.446-0.854-0.446c-0.355,0-0.637,0.149-0.847,0.446c-0.208,0.298-0.313,0.742-0.313,1.332
		c0,0.591,0.104,1.035,0.313,1.332c0.21,0.298,0.491,0.447,0.847,0.447C22.473,359.487,22.759,359.338,22.968,359.04z"/>
</g>
<rect x="9.451" y="383.513" fill="none" width="21.185" height="10.596"/>
<g enable-background="new    ">
	<path fill="#39322E" d="M18.629,383.815v5.041h-0.936v-4.256h-1.066v-0.785H18.629z"/>
	<path fill="#39322E" d="M22.783,386.181c0.342,0.277,0.512,0.652,0.512,1.127c0,0.303-0.074,0.576-0.223,0.82
		c-0.149,0.246-0.372,0.439-0.67,0.584s-0.665,0.216-1.102,0.216c-0.359,0-0.708-0.052-1.044-0.155
		c-0.336-0.103-0.62-0.246-0.85-0.428l0.396-0.727c0.188,0.153,0.412,0.274,0.674,0.363c0.262,0.088,0.532,0.133,0.81,0.133
		c0.332,0,0.592-0.068,0.781-0.205s0.285-0.325,0.285-0.564c0-0.26-0.103-0.455-0.307-0.588c-0.204-0.131-0.553-0.197-1.048-0.197
		h-1.217l0.26-2.744H23v0.785h-2.167l-0.108,1.166h0.482C21.918,385.767,22.442,385.905,22.783,386.181z"/>
</g>
<rect x="9.451" y="411.899" fill="none" width="21.185" height="10.595"/>
<g enable-background="new    ">
	<path fill="#39322E" d="M18.309,412.201v5.04h-0.936v-4.256h-1.066v-0.784H18.309z"/>
	<path fill="#39322E" d="M20.332,417.007c-0.316-0.204-0.566-0.501-0.749-0.893c-0.183-0.391-0.273-0.855-0.273-1.394
		s0.091-1.001,0.273-1.394c0.182-0.391,0.432-0.688,0.749-0.893c0.317-0.203,0.677-0.305,1.08-0.305s0.765,0.102,1.084,0.305
		c0.318,0.205,0.57,0.502,0.752,0.893c0.183,0.393,0.274,0.855,0.274,1.394s-0.092,1.003-0.274,1.394
		c-0.182,0.392-0.434,0.688-0.752,0.893c-0.319,0.205-0.681,0.307-1.084,0.307S20.649,417.212,20.332,417.007z M22.265,416.053
		c0.208-0.298,0.313-0.741,0.313-1.332c0-0.59-0.105-1.034-0.313-1.332c-0.209-0.297-0.493-0.446-0.854-0.446
		c-0.355,0-0.637,0.149-0.846,0.446c-0.209,0.298-0.313,0.742-0.313,1.332c0,0.591,0.104,1.034,0.313,1.332s0.49,0.446,0.846,0.446
		C21.772,416.499,22.056,416.351,22.265,416.053z"/>
</g>
<rect x="9.167" y="442.288" fill="none" width="21.184" height="10.596"/>
<g enable-background="new    ">
	<path fill="#39322E" d="M21.606,445.468c0.141,0.205,0.212,0.443,0.212,0.717c0,0.307-0.085,0.576-0.255,0.807
		c-0.171,0.23-0.412,0.406-0.724,0.529c-0.313,0.122-0.675,0.184-1.088,0.184c-0.413,0-0.773-0.062-1.083-0.184
		c-0.309-0.123-0.548-0.299-0.716-0.529s-0.252-0.5-0.252-0.807c0-0.273,0.069-0.512,0.209-0.717
		c0.139-0.203,0.338-0.365,0.598-0.485c-0.202-0.11-0.356-0.257-0.464-0.437c-0.108-0.18-0.162-0.387-0.162-0.622
		c0-0.284,0.078-0.53,0.234-0.741c0.156-0.212,0.375-0.375,0.659-0.49c0.283-0.115,0.609-0.172,0.979-0.172
		c0.375,0,0.703,0.057,0.987,0.172c0.283,0.115,0.504,0.278,0.662,0.49c0.159,0.211,0.238,0.457,0.238,0.741
		c0,0.235-0.056,0.441-0.165,0.618c-0.11,0.179-0.27,0.324-0.477,0.44C21.261,445.103,21.465,445.265,21.606,445.468z
		 M20.573,446.753c0.202-0.145,0.303-0.344,0.303-0.598c0-0.25-0.101-0.446-0.303-0.59c-0.202-0.145-0.476-0.216-0.821-0.216
		c-0.345,0-0.617,0.071-0.813,0.216c-0.197,0.144-0.295,0.34-0.295,0.59c0,0.254,0.099,0.453,0.295,0.598
		c0.196,0.145,0.468,0.217,0.813,0.217C20.097,446.97,20.371,446.897,20.573,446.753z M19.057,443.44
		c-0.171,0.125-0.256,0.301-0.256,0.526c0,0.216,0.085,0.388,0.256,0.515c0.17,0.127,0.402,0.191,0.694,0.191
		c0.298,0,0.533-0.064,0.707-0.191c0.172-0.127,0.258-0.299,0.258-0.515c0-0.226-0.087-0.401-0.262-0.526
		c-0.175-0.123-0.41-0.186-0.703-0.186C19.459,443.255,19.228,443.317,19.057,443.44z"/>
</g>
<rect x="9.451" y="471.612" fill="none" width="21.185" height="10.597"/>
<g enable-background="new    ">
	<path fill="#39322E" d="M21.286,474.037c0.265,0.128,0.471,0.309,0.619,0.544c0.149,0.234,0.224,0.506,0.224,0.813
		c0,0.327-0.081,0.613-0.245,0.861c-0.163,0.247-0.383,0.438-0.662,0.572s-0.59,0.201-0.936,0.201c-0.691,0-1.228-0.215-1.609-0.647
		c-0.381-0.433-0.572-1.052-0.572-1.858c0-0.566,0.103-1.049,0.31-1.45c0.206-0.401,0.495-0.706,0.867-0.914
		c0.372-0.21,0.803-0.313,1.293-0.313c0.259,0,0.502,0.027,0.73,0.083c0.228,0.055,0.426,0.136,0.595,0.241l-0.347,0.705
		c-0.249-0.162-0.568-0.244-0.958-0.244c-0.485,0-0.864,0.148-1.138,0.446c-0.273,0.298-0.41,0.727-0.41,1.288v0.008
		c0.148-0.174,0.338-0.304,0.569-0.393c0.23-0.088,0.489-0.133,0.777-0.133C20.724,473.847,21.022,473.909,21.286,474.037z
		 M20.948,476.061c0.182-0.156,0.273-0.364,0.273-0.624c0-0.263-0.092-0.473-0.273-0.625c-0.182-0.154-0.427-0.23-0.734-0.23
		c-0.303,0-0.548,0.081-0.738,0.244c-0.189,0.164-0.284,0.369-0.284,0.619c0,0.245,0.092,0.448,0.277,0.608
		c0.185,0.161,0.44,0.241,0.767,0.241C20.528,476.294,20.766,476.216,20.948,476.061z"/>
</g>
<rect x="9.451" y="501.813" fill="none" width="21.185" height="10.595"/>
<g enable-background="new    ">
	<path fill="#39322E" d="M21.412,504.481c0.342,0.277,0.512,0.652,0.512,1.127c0,0.303-0.075,0.576-0.224,0.82
		c-0.148,0.246-0.371,0.439-0.67,0.584c-0.297,0.145-0.665,0.216-1.101,0.216c-0.36,0-0.708-0.052-1.044-0.155
		c-0.336-0.103-0.62-0.246-0.85-0.428l0.396-0.727c0.188,0.153,0.412,0.274,0.673,0.363c0.261,0.088,0.532,0.133,0.81,0.133
		c0.332,0,0.592-0.068,0.781-0.205c0.19-0.137,0.285-0.325,0.285-0.564c0-0.26-0.102-0.455-0.307-0.588
		c-0.203-0.131-0.553-0.197-1.047-0.197H18.41l0.259-2.744h2.959v0.785h-2.168l-0.107,1.166h0.482
		C20.546,504.067,21.071,504.206,21.412,504.481z"/>
</g>
<rect x="8.539" y="530.317" fill="none" width="21.184" height="10.596"/>
<g enable-background="new    ">
	<path fill="#39322E" d="M21.497,534.517h-0.894v1.145h-0.906v-1.145h-2.765v-0.648l2.484-3.246h1.001l-2.34,3.103h1.649v-1.016
		h0.878v1.016h0.894V534.517z"/>
</g>
<rect x="9.451" y="559.263" fill="none" width="21.185" height="10.596"/>
<g enable-background="new    ">
	<path fill="#39322E" d="M21.477,562.12c0.244,0.26,0.367,0.584,0.367,0.973c0,0.293-0.075,0.559-0.224,0.8
		c-0.148,0.239-0.374,0.431-0.674,0.571c-0.3,0.143-0.666,0.213-1.098,0.213c-0.36,0-0.707-0.051-1.04-0.154
		c-0.334-0.104-0.618-0.246-0.854-0.428l0.403-0.729c0.182,0.154,0.404,0.275,0.666,0.363c0.262,0.09,0.531,0.135,0.81,0.135
		c0.331,0,0.592-0.069,0.781-0.206c0.19-0.137,0.284-0.323,0.284-0.558c0-0.235-0.089-0.419-0.27-0.551
		c-0.18-0.133-0.455-0.199-0.824-0.199h-0.461v-0.641l1.145-1.36h-2.289v-0.784h3.434v0.627l-1.223,1.453
		C20.877,561.704,21.231,561.862,21.477,562.12z"/>
</g>
<rect x="8.539" y="588.405" fill="none" width="21.184" height="10.596"/>
<g enable-background="new    ">
	<path fill="#39322E" d="M21.004,592.955v0.792h-3.715v-0.627l2.001-1.9c0.226-0.215,0.378-0.404,0.458-0.564
		c0.079-0.161,0.119-0.32,0.119-0.479c0-0.236-0.079-0.416-0.237-0.541c-0.159-0.125-0.392-0.188-0.699-0.188
		c-0.514,0-0.907,0.176-1.181,0.526l-0.656-0.504c0.197-0.265,0.462-0.47,0.796-0.616s0.707-0.219,1.12-0.219
		c0.547,0,0.984,0.129,1.311,0.389c0.326,0.259,0.489,0.611,0.489,1.059c0,0.273-0.057,0.529-0.172,0.77
		c-0.116,0.24-0.336,0.514-0.663,0.821l-1.347,1.281H21.004z"/>
</g>
<rect x="9.451" y="618.119" fill="none" width="21.185" height="10.595"/>
<g enable-background="new    ">
	<path fill="#39322E" d="M20.732,618.424v5.04h-0.937v-4.256H18.73v-0.784H20.732z"/>
</g>
<circle fill="#39322E" cx="19.758" cy="89.816" r="14.909"/>
<rect x="0.844" y="640.812" fill="none" width="35.2" height="17.199"/>
<g enable-background="new    ">
	<path d="M18.98,645.944c0.283,0.281,0.424,0.702,0.424,1.264v2.203h-0.9v-2.088c0-0.336-0.074-0.59-0.223-0.76
		s-0.362-0.256-0.641-0.256c-0.302,0-0.544,0.1-0.727,0.299c-0.183,0.199-0.274,0.484-0.274,0.854v1.951h-0.9v-2.088
		c0-0.336-0.074-0.59-0.223-0.76s-0.363-0.256-0.641-0.256c-0.307,0-0.551,0.1-0.73,0.296c-0.18,0.196-0.271,0.481-0.271,0.856
		v1.951h-0.9v-3.844h0.857v0.488c0.144-0.172,0.324-0.305,0.54-0.396c0.216-0.09,0.456-0.137,0.72-0.137
		c0.289,0,0.544,0.055,0.767,0.163s0.399,0.267,0.529,0.479c0.159-0.202,0.362-0.359,0.612-0.473c0.25-0.112,0.525-0.17,0.828-0.17
		C18.313,645.522,18.697,645.663,18.98,645.944z"/>
	<path d="M26.561,645.944c0.283,0.281,0.425,0.702,0.425,1.264v2.203h-0.899v-2.088c0-0.336-0.074-0.59-0.224-0.76
		c-0.148-0.17-0.362-0.256-0.641-0.256c-0.303,0-0.545,0.1-0.727,0.299c-0.183,0.199-0.274,0.484-0.274,0.854v1.951h-0.9v-2.088
		c0-0.336-0.074-0.59-0.223-0.76s-0.362-0.256-0.641-0.256c-0.308,0-0.551,0.1-0.73,0.296s-0.271,0.481-0.271,0.856v1.951h-0.9
		v-3.844h0.857v0.488c0.144-0.172,0.324-0.305,0.54-0.396c0.215-0.09,0.456-0.137,0.72-0.137c0.288,0,0.544,0.055,0.767,0.163
		c0.224,0.108,0.399,0.267,0.529,0.479c0.159-0.202,0.362-0.359,0.612-0.473c0.25-0.112,0.524-0.17,0.828-0.17
		C25.894,645.522,26.278,645.663,26.561,645.944z"/>
</g>
<g>
	<path fill="#FFFFFF" d="M31.179,90.489c0.006-0.037,0.01-0.075,0.01-0.112c-0.01-6.099-4.822-11.078-10.849-11.383v-0.999
		c0-0.321-0.26-0.581-0.583-0.581c-0.32,0-0.582,0.26-0.582,0.581v0.999C13.15,79.299,8.339,84.278,8.327,90.395
		c0,0.313,0.272,0.582,0.583,0.582c0.148,0,0.303-0.069,0.411-0.171c1.922-1.833,4.501-1.833,6.422,0.008
		c0.109,0.104,0.276,0.162,0.425,0.155c0.133-0.004,0.282-0.063,0.38-0.155c0.795-0.761,1.704-1.189,2.631-1.321v7.878
		c0,1.602,1.303,2.906,2.904,2.906c1.604,0,2.907-1.304,2.907-2.906c0-0.321-0.261-0.582-0.581-0.582
		c-0.321,0-0.583,0.261-0.583,0.582c0,0.961-0.781,1.743-1.743,1.743s-1.744-0.782-1.744-1.743v-7.878
		c0.927,0.131,1.835,0.56,2.63,1.321c0.217,0.206,0.587,0.208,0.804,0c1.921-1.841,4.501-1.841,6.433,0
		c0.195,0.186,0.494,0.212,0.716,0.063C31.055,90.788,31.149,90.644,31.179,90.489z M22.895,89.265
		c-0.954-0.645-2.009-0.974-3.067-0.987c-0.023-0.003-0.045-0.014-0.07-0.014c-0.023,0-0.046,0.012-0.069,0.014
		c-1.057,0.014-2.112,0.342-3.068,0.987c-0.284-3.981,0.711-7.057,1.911-8.418c0.833-0.943,1.621-0.943,2.453,0
		C22.186,82.208,23.181,85.284,22.895,89.265z M9.574,89.146c0.522-4.283,3.689-7.753,7.816-8.733
		c-1.151,1.544-2.202,4.565-1.944,8.714C13.599,87.989,11.418,87.995,9.574,89.146z M24.071,89.126
		c0.257-4.149-0.793-7.17-1.944-8.714c4.127,0.98,7.294,4.45,7.817,8.733C28.099,87.994,25.919,87.989,24.071,89.126z"/>
</g>
</svg>
