<?xml version="1.0" encoding="utf-8"?>
<!-- Generator: Adobe Illustrator 28.0.0, SVG Export Plug-In . SVG Version: 6.00 Build 0)  -->
<svg version="1.1" id="Livello_1" xmlns="http://www.w3.org/2000/svg" xmlns:xlink="http://www.w3.org/1999/xlink" x="0px" y="0px"
	width="50px" height="677px"  viewBox="0 0 48.7 677.2" style="enable-background:new 0 0 48.7 677.2;" xml:space="preserve">
<style type="text/css">
	.st0{fill:#961405;}
	.st1{clip-path:url(#SVGID_00000017518407774566514440000010156919605942973595_);}
	.st2{fill:#6E0E04;}
	.st3{clip-path:url(#SVGID_00000116950643363277748770000017190120719856962224_);}
	.st4{fill:#E22208;}
	.st5{clip-path:url(#SVGID_00000142895081804387185880000017415948958647225264_);}
	.st6{fill:#E86411;}
	.st7{clip-path:url(#SVGID_00000069396462157827165850000008871756263279231376_);}
	.st8{fill:#E1D52D;}
	.st9{clip-path:url(#SVGID_00000060018338195751268030000016554287984828293777_);}
	.st10{fill:#F7EC31;}
	.st11{clip-path:url(#SVGID_00000019654279931911822020000003341220673213823639_);}
	.st12{clip-path:url(#SVGID_00000066510419847437157830000016467514978527616441_);}
	.st13{clip-path:url(#SVGID_00000083780201648312053520000015456600258874733986_);}
	.st14{fill:#173A62;}
	.st15{clip-path:url(#SVGID_00000132063814920880553520000007324283665015200938_);}
	.st16{fill:#79AADE;}
	.st17{clip-path:url(#SVGID_00000182501019188013496690000006226058019021528237_);}
	.st18{fill:#9CC1E7;}
	.st19{clip-path:url(#SVGID_00000002385906287028675060000001928123694704383634_);}
	.st20{fill:#BDD5EF;}
	.st21{clip-path:url(#SVGID_00000039124648073910135580000000515357914780228751_);}
	.st22{fill:#DEEAF7;}
	.st23{clip-path:url(#SVGID_00000048480593279552591550000007584025907760847025_);}
	.st24{fill:#235A95;}
	.st25{clip-path:url(#SVGID_00000143580208260654254980000000658974951019730328_);}
	.st26{fill:#2E6FB8;}
	.st27{fill:#548ECE;}
	.st28{fill:#39322E;}
	.st29{fill:none;}
	.st30{fill:none;stroke:#3C3430;stroke-width:2;stroke-miterlimit:9.7722;}
	.st31{fill:#3B3330;}
	.st32{fill:#3C3530;}
	.st33{fill:#FFFFFF;}
	.st34{fill:none;stroke:#3C3430;stroke-miterlimit:9.7722;}
</style>
<g>
	<g>
		<g>
			<g>
				<rect x="5.5" y="92.3" class="st0" width="37.3" height="42.7"/>
			</g>
		</g>
	</g>
</g>
<g>
	<g>
		<g>
			<defs>
				<path id="SVGID_1_" d="M43.4,672.4c-0.5,3.9-10.1,8.5-18.5,8.5l0,0c-8.2,0.4-19.5-3.8-19.5-8.5V54.7C7.2,49.2,17.2,49,23.7,49
					l0,0c7.7,0,17.7-0.7,19.6,5.2L43.4,672.4L43.4,672.4z"/>
			</defs>
			<clipPath id="SVGID_00000130647209949273783530000011984903657058856360_">
				<use xlink:href="#SVGID_1_"  style="overflow:visible;"/>
			</clipPath>
			<g style="clip-path:url(#SVGID_00000130647209949273783530000011984903657058856360_);">
				<g>
					<g>
						<rect x="-20" y="49" class="st2" width="100.4" height="43.7"/>
					</g>
				</g>
			</g>
		</g>
	</g>
	<g>
		<g>
			<defs>
				<path id="SVGID_00000112624741844095280490000007183540853107596957_" d="M43.4,672.4L43.4,672.4c-0.5,3.9-10.1,8.5-18.5,8.5
					l0,0c-8.2,0.4-19.5-3.8-19.5-8.5L5.9,54.5C7.6,49,17.2,49,23.7,49l0,0"/>
			</defs>
			<clipPath id="SVGID_00000047048652106892165910000009505330873750465705_">
				<use xlink:href="#SVGID_00000112624741844095280490000007183540853107596957_"  style="overflow:visible;"/>
			</clipPath>
			<g style="clip-path:url(#SVGID_00000047048652106892165910000009505330873750465705_);">
				<g>
					<g>
						<rect x="-24.9" y="92.3" class="st0" width="100.4" height="42.7"/>
					</g>
				</g>
			</g>
		</g>
	</g>
	<g>
		<g>
			<g>
				<g>
					<rect x="5.5" y="135" class="st4" width="38.4" height="43"/>
				</g>
			</g>
		</g>
	</g>
	<g>
		<g>
			<defs>
				<path id="SVGID_00000113340402485813773670000000388216492542070697_" d="M43.4,672.4c-0.5,3.9-10.1,8.5-18.5,8.5l0,0
					c-8.2,0.4-19.5-3.8-19.5-8.5L5.9,55c1.7-5.6,11.3-6,17.8-6l0,0c7.7,0,17.9-0.4,19.6,9.2L43.4,672.4L43.4,672.4z"/>
			</defs>
			<clipPath id="SVGID_00000144321506615277703000000002613099917071151778_">
				<use xlink:href="#SVGID_00000113340402485813773670000000388216492542070697_"  style="overflow:visible;"/>
			</clipPath>
			<g style="clip-path:url(#SVGID_00000144321506615277703000000002613099917071151778_);">
				<g>
					<g>
						<rect x="-20.5" y="177.9" class="st6" width="100.4" height="42.7"/>
					</g>
				</g>
			</g>
		</g>
	</g>
	<g>
		<g>
			<defs>
				<path id="SVGID_00000166641925468977694530000005288338454786333362_" d="M43.4,672.4c-0.5,3.9-10.1,8.5-18.5,8.5l0,0
					c-8.2,0.4-19.5-3.8-19.5-8.5L5.9,54.5C7.6,49,17.2,49,23.7,49l0,0c7.7,0,18-0.5,19.6,9.2L43.4,672.4L43.4,672.4z"/>
			</defs>
			<clipPath id="SVGID_00000034057565313701150680000013797917804428812961_">
				<use xlink:href="#SVGID_00000166641925468977694530000005288338454786333362_"  style="overflow:visible;"/>
			</clipPath>
			<g style="clip-path:url(#SVGID_00000034057565313701150680000013797917804428812961_);">
				<g>
					<g>
						<rect x="-19.5" y="220.6" class="st8" width="100.4" height="42.7"/>
					</g>
				</g>
			</g>
		</g>
		<g>
			<defs>
				<path id="SVGID_00000020360936299190997780000002169060091855313565_" d="M43.4,672.4c-0.5,3.9-10.1,8.5-18.5,8.5l0,0
					c-8.2,0.4-19.5-3.8-19.5-8.5L5.9,54.5C7.6,49,17.2,49,23.7,49l0,0c7.7,0,18-0.5,19.6,9.2L43.4,672.4L43.4,672.4z"/>
			</defs>
			<clipPath id="SVGID_00000107558593902765780480000009962203615137338272_">
				<use xlink:href="#SVGID_00000020360936299190997780000002169060091855313565_"  style="overflow:visible;"/>
			</clipPath>
			<g style="clip-path:url(#SVGID_00000107558593902765780480000009962203615137338272_);">
				<g>
					<g>
						<rect x="-26.4" y="263.3" class="st10" width="100.4" height="42.7"/>
					</g>
				</g>
			</g>
		</g>
	</g>
	<g>
		<g>
			<defs>
				<path id="SVGID_00000165197939067853235130000004742056587869235333_" d="M43.3,58.1l0.2,614.3l0,0c-0.5,3.9-10.1,8.5-18.5,8.5
					l0,0c-8.2,0.4-19.5-3.8-19.5-8.5"/>
			</defs>
			<clipPath id="SVGID_00000027591700118583186290000008051232881450962359_">
				<use xlink:href="#SVGID_00000165197939067853235130000004742056587869235333_"  style="overflow:visible;"/>
			</clipPath>
		</g>
		<g>
			<defs>
				<path id="SVGID_00000039823328561322035410000017105989181891554748_" d="M43.3,58.1l0.2,614.3l0,0c-0.5,3.9-10.1,8.5-18.5,8.5
					l0,0c-8.2,0.4-19.5-3.8-19.5-8.5"/>
			</defs>
			<defs>
				<line id="SVGID_00000119816735989556910970000004092779458857223093_" x1="23.7" y1="49" x2="23.7" y2="49"/>
			</defs>
			<clipPath id="SVGID_00000043431052456570113080000011846088853791253664_">
				<use xlink:href="#SVGID_00000039823328561322035410000017105989181891554748_"  style="overflow:visible;"/>
			</clipPath>
			
				<clipPath id="SVGID_00000157284591687441062930000008207290081198836610_" style="clip-path:url(#SVGID_00000043431052456570113080000011846088853791253664_);">
				<use xlink:href="#SVGID_00000119816735989556910970000004092779458857223093_"  style="overflow:visible;"/>
			</clipPath>
			<g style="clip-path:url(#SVGID_00000157284591687441062930000008207290081198836610_);">
				<g>
					<g>
						<rect x="-19.5" y="263.2" class="st10" width="100.4" height="42.7"/>
					</g>
				</g>
			</g>
		</g>
	</g>
	<g>
		<g>
			<defs>
				<path id="SVGID_00000162315837196290557770000005162933179263940774_" d="M43.3,58.1l0.2,614.3l0,0c-0.5,3.9-10.1,8.5-18.5,8.5
					l0,0c-8.2,0.4-19.5-3.8-19.5-8.5V55.3C7.2,49.7,17.2,49,23.7,49l0,0"/>
			</defs>
			<clipPath id="SVGID_00000075843650580099189900000003961467281469846700_">
				<use xlink:href="#SVGID_00000162315837196290557770000005162933179263940774_"  style="overflow:visible;"/>
			</clipPath>
			<g style="clip-path:url(#SVGID_00000075843650580099189900000003961467281469846700_);">
				<g>
					<g>
						<rect x="-19.5" y="305.9" class="st14" width="100.4" height="42.7"/>
					</g>
				</g>
			</g>
		</g>
	</g>
	<g>
		<g>
			<defs>
				<path id="SVGID_00000038385920159581432110000015661319073512612491_" d="M43.4,672.4c-0.5,3.9-10.1,8.5-18.5,8.5l0,0
					c-8.2,0.4-19.5-3.8-19.5-8.5V54.7C7.2,49.2,17.2,49,23.7,49l0,0c7.7,0,18.2-0.4,19.6,9.2L43.4,672.4L43.4,672.4z"/>
			</defs>
			<clipPath id="SVGID_00000052093362808674354310000013636163864505899653_">
				<use xlink:href="#SVGID_00000038385920159581432110000015661319073512612491_"  style="overflow:visible;"/>
			</clipPath>
			<g style="clip-path:url(#SVGID_00000052093362808674354310000013636163864505899653_);">
				<g>
					<g>
						<rect x="-18.2" y="476.7" class="st16" width="100.4" height="42.7"/>
					</g>
				</g>
			</g>
		</g>
	</g>
	<g>
		<g>
			<defs>
				<path id="SVGID_00000033345124500952948490000005428830790185111213_" d="M43.4,672.4c-0.5,3.9-10.1,8.5-18.5,8.5l0,0
					c-8.2,0.4-19.5-3.8-19.5-8.5V54.7C7.2,49.2,17.2,49,23.7,49l0,0c7.7,0,18.2-0.9,19.6,9.2L43.4,672.4L43.4,672.4z"/>
			</defs>
			<clipPath id="SVGID_00000108311293071604189130000001708929194194428600_">
				<use xlink:href="#SVGID_00000033345124500952948490000005428830790185111213_"  style="overflow:visible;"/>
			</clipPath>
			<g style="clip-path:url(#SVGID_00000108311293071604189130000001708929194194428600_);">
				<g>
					<g>
						<rect x="-18.2" y="519.3" class="st18" width="100.4" height="42.7"/>
					</g>
				</g>
			</g>
		</g>
	</g>
	<g>
		<g>
			<defs>
				<path id="SVGID_00000121279058471476492770000004610559124033529993_" d="M43.4,672.4c-0.5,3.9-10.1,8.5-18.5,8.5l0,0
					c-8.2,0.4-19.5-3.8-19.5-8.5V57.9C5.3,43.6,17.1,48.8,23.7,49l0,0c7.7,0,18.3-0.5,19.6,9.2L43.4,672.4L43.4,672.4z"/>
			</defs>
			<clipPath id="SVGID_00000047036906170641291600000012341620315032228786_">
				<use xlink:href="#SVGID_00000121279058471476492770000004610559124033529993_"  style="overflow:visible;"/>
			</clipPath>
			<g style="clip-path:url(#SVGID_00000047036906170641291600000012341620315032228786_);">
				<g>
					<g>
						<rect x="-17.3" y="562" class="st20" width="100.4" height="42.7"/>
					</g>
				</g>
			</g>
		</g>
	</g>
	<g>
		<g>
			<defs>
				<path id="SVGID_00000076562094247618795440000010271235203987585458_" d="M43.4,672.4c-0.5,3.9-10.4,3.3-18.8,3.3l0,0
					c-8.2,0.4-18.8,0.6-18.8-4.2v-618C7.6,48,17.2,49,23.7,49l0,0c7.7,0,17.7,0.3,19.6,6.2L43.4,672.4L43.4,672.4z"/>
			</defs>
			<clipPath id="SVGID_00000030464000114693337830000008717907034267757441_">
				<use xlink:href="#SVGID_00000076562094247618795440000010271235203987585458_"  style="overflow:visible;"/>
			</clipPath>
			<g style="clip-path:url(#SVGID_00000030464000114693337830000008717907034267757441_);">
				<g>
					<g>
						<rect x="-17.6" y="599.4" class="st22" width="100.4" height="79"/>
					</g>
				</g>
			</g>
		</g>
	</g>
	<g>
		<g>
			<defs>
				<path id="SVGID_00000026138672329531405380000008945162539708850105_" d="M43.4,672.4c-0.5,3.9-10.4,3.3-18.8,3.3l0,0
					c-8.2,0.4-19.2,1.4-19.2-3.3L5.9,54.5C7.6,49,17.2,49,23.7,49l0,0c7.7,0,17.2,0.6,19.1,6.5L43.4,672.4L43.4,672.4z"/>
			</defs>
			<clipPath id="SVGID_00000132058204514888791480000018111797215250438285_">
				<use xlink:href="#SVGID_00000026138672329531405380000008945162539708850105_"  style="overflow:visible;"/>
			</clipPath>
			<g style="clip-path:url(#SVGID_00000132058204514888791480000018111797215250438285_);">
				<g>
					<g>
						<rect x="-18.2" y="348.6" class="st24" width="100.4" height="42.7"/>
					</g>
				</g>
			</g>
		</g>
	</g>
	<g>
		<g>
			<defs>
				<path id="SVGID_00000109709221624162584580000015168258880202866336_" d="M43.4,672.4c-0.5,3.9-10.4,3.3-18.8,3.3l0,0
					c-8.2,0.4-19.2,1.4-18.4-2.8V55.2c1-6,11-6.2,17.5-6.2l0,0c7.7,0,17.2,0.3,19,6.2L43.4,672.4L43.4,672.4z"/>
			</defs>
			<clipPath id="SVGID_00000163033338237769349690000010785058452978301571_">
				<use xlink:href="#SVGID_00000109709221624162584580000015168258880202866336_"  style="overflow:visible;"/>
			</clipPath>
			<g style="clip-path:url(#SVGID_00000163033338237769349690000010785058452978301571_);">
				<g>
					<g>
						<rect x="-18.2" y="391.2" class="st26" width="100.4" height="42.7"/>
					</g>
				</g>
			</g>
		</g>
	</g>
	<g>
		<g>
			<g>
				<g>
					<rect x="6.2" y="433.9" class="st27" width="36.7" height="42.7"/>
				</g>
			</g>
		</g>
	</g>
</g>
<circle class="st28" cx="24.1" cy="26.6" r="19.8"/>
<rect x="11.1" y="632" class="st29" width="15.4" height="11.8"/>
<path class="st30" d="M36.6,675.8H12.1c-3.4,0-6.2-2.8-6.2-6.2V56.1c0-3.4,2.8-6.2,6.2-6.2h24.5c3.4,0,6.2,2.8,6.2,6.2v613.5
	C42.8,673,40,675.8,36.6,675.8z"/>
<g>
	<path class="st31" d="M25.8,594.3v7.9h-0.9v-6.9l-2,1.3l-0.4-0.7l2.5-1.7h0.8V594.3z"/>
</g>
<g>
	<path class="st31" d="M27.1,565.3H22v-0.8l2.3-2.4c0.4-0.4,0.7-0.7,0.9-0.9c0.2-0.2,0.4-0.5,0.5-0.8s0.2-0.6,0.2-0.9
		c0-0.5-0.1-0.9-0.4-1.1c-0.3-0.2-0.7-0.3-1.3-0.3c-0.5,0-1.1,0.1-1.7,0.2l-0.3,0.1l-0.1-0.8c0.8-0.2,1.5-0.3,2.4-0.3
		c0.8,0,1.4,0.2,1.8,0.5s0.6,0.9,0.6,1.6c0,0.6-0.1,1-0.4,1.5s-0.7,0.9-1.3,1.5l-2.1,2.1h4V565.3z"/>
</g>
<g>
	<path d="M21.3,308.2v-1.5h-3.8V306l2.3-5.7h1l-2.3,5.6h2.9v-2.5h0.9v2.5h1v0.8h-1v1.5L21.3,308.2L21.3,308.2z"/>
	<path d="M27.1,300.2c0.7,0,1.2,0.1,1.6,0.4c0.9,0.5,1.3,1.8,1.3,3.8c0,1.4-0.2,2.5-0.7,3.1s-1.2,0.9-2.2,0.9s-1.7-0.3-2.2-0.9
		s-0.7-1.6-0.7-3.1s0.2-2.6,0.7-3.2C25.4,300.5,26.1,300.2,27.1,300.2z M27.1,301c-0.5,0-0.8,0.1-1.1,0.3c-0.6,0.4-0.9,1.4-0.9,3.1
		c0,1.2,0.2,2,0.5,2.5s0.8,0.7,1.5,0.7s1.2-0.2,1.5-0.7s0.5-1.3,0.5-2.5s-0.1-2.1-0.5-2.6C28.3,301.3,27.8,301,27.1,301z"/>
</g>
<g>
	<path class="st32" d="M23,257.5v0.8h-3.9l-0.2,2.6c0.6-0.3,1.2-0.5,1.9-0.5c1.7,0,2.5,0.8,2.5,2.3c0,0.9-0.2,1.6-0.7,2.1
		s-1.1,0.7-2,0.7c-0.7,0-1.4-0.1-2.2-0.3l-0.4-0.1l0.1-0.7c0.9,0.2,1.7,0.3,2.3,0.3s1.1-0.2,1.4-0.5s0.5-0.8,0.5-1.4s-0.1-1-0.4-1.2
		s-0.7-0.4-1.2-0.4c-0.3,0-0.6,0-0.9,0.1s-0.6,0.2-0.7,0.2l-0.3,0.1l-0.6-0.1l0.2-4.1H23V257.5z"/>
	<path class="st32" d="M27.4,257.3c0.7,0,1.2,0.1,1.6,0.4c0.9,0.5,1.3,1.8,1.3,3.8c0,1.4-0.2,2.5-0.7,3.1s-1.2,0.9-2.2,0.9
		s-1.7-0.3-2.2-0.9s-0.7-1.6-0.7-3.1s0.2-2.6,0.7-3.2C25.7,257.6,26.4,257.3,27.4,257.3z M27.4,258.2c-0.5,0-0.8,0.1-1.1,0.3
		c-0.6,0.4-0.9,1.4-0.9,3.1c0,1.2,0.2,2,0.5,2.5s0.8,0.7,1.5,0.7s1.2-0.2,1.5-0.7s0.5-1.3,0.5-2.5s-0.1-2.1-0.5-2.6
		C28.6,258.4,28.1,258.2,27.4,258.2z"/>
</g>
<g>
	<path class="st33" d="M19.2,173.7v7.9h-0.9v-6.9l-2,1.3l-0.4-0.7l2.5-1.7L19.2,173.7L19.2,173.7z"/>
	<path class="st33" d="M24.6,173.5c0.7,0,1.2,0.1,1.6,0.4c0.9,0.5,1.3,1.8,1.3,3.8c0,1.4-0.2,2.5-0.7,3.1s-1.2,0.9-2.2,0.9
		s-1.7-0.3-2.2-0.9c-0.5-0.6-0.7-1.6-0.7-3.1s0.2-2.6,0.7-3.2C23,173.8,23.7,173.5,24.6,173.5z M24.7,174.4c-0.5,0-0.8,0.1-1.1,0.3
		c-0.6,0.4-0.9,1.4-0.9,3.1c0,1.2,0.2,2,0.5,2.5s0.8,0.7,1.5,0.7s1.2-0.2,1.5-0.7s0.5-1.3,0.5-2.5s-0.2-2.1-0.5-2.6
		S25.3,174.4,24.7,174.4z"/>
	<path class="st33" d="M31.4,173.5c0.7,0,1.2,0.1,1.6,0.4c0.9,0.5,1.3,1.8,1.3,3.8c0,1.4-0.2,2.5-0.7,3.1s-1.2,0.9-2.2,0.9
		s-1.7-0.3-2.2-0.9c-0.5-0.6-0.7-1.6-0.7-3.1s0.2-2.6,0.7-3.2C29.7,173.8,30.4,173.5,31.4,173.5z M31.4,174.4
		c-0.5,0-0.8,0.1-1.1,0.3c-0.6,0.4-0.9,1.4-0.9,3.1c0,1.2,0.2,2,0.5,2.5s0.8,0.7,1.5,0.7c0.7,0,1.2-0.2,1.5-0.7
		c0.3-0.5,0.5-1.3,0.5-2.5s-0.2-2.1-0.5-2.6S32.1,174.4,31.4,174.4z"/>
</g>
<g>
	<path class="st33" d="M18.7,130.1v7.9h-0.9v-6.9l-2,1.3l-0.4-0.7l2.5-1.7L18.7,130.1L18.7,130.1z"/>
	<path class="st33" d="M26.5,130.1v0.8h-3.9l-0.2,2.6c0.6-0.3,1.2-0.5,1.9-0.5c1.7,0,2.5,0.8,2.5,2.3c0,0.9-0.2,1.6-0.7,2.1
		s-1.1,0.7-2,0.7c-0.7,0-1.4-0.1-2.2-0.3l-0.4-0.1l0.1-0.7c0.9,0.2,1.7,0.3,2.3,0.3s1.1-0.2,1.4-0.5s0.5-0.8,0.5-1.4s-0.1-1-0.4-1.2
		s-0.7-0.4-1.2-0.4c-0.3,0-0.6,0-0.9,0.1s-0.6,0.2-0.7,0.2l-0.3,0.1l-0.6-0.1l0.2-4.1L26.5,130.1L26.5,130.1z"/>
	<path class="st33" d="M30.8,130c0.7,0,1.2,0.1,1.6,0.4c0.9,0.5,1.3,1.8,1.3,3.8c0,1.4-0.2,2.5-0.7,3.1s-1.2,0.9-2.2,0.9
		s-1.7-0.3-2.2-0.9c-0.5-0.6-0.7-1.6-0.7-3.1s0.2-2.6,0.7-3.2C29.1,130.3,29.9,130,30.8,130z M30.8,130.8c-0.5,0-0.8,0.1-1.1,0.3
		c-0.6,0.4-0.9,1.4-0.9,3.1c0,1.2,0.2,2,0.5,2.5s0.8,0.7,1.5,0.7s1.2-0.2,1.5-0.7s0.5-1.3,0.5-2.5s-0.2-2.1-0.5-2.6
		S31.5,130.8,30.8,130.8z"/>
</g>
<g>
	<path class="st33" d="M19.3,95.7h-5.1v-0.8l2.3-2.4c0.4-0.4,0.7-0.7,0.9-0.9c0.2-0.2,0.4-0.5,0.5-0.8s0.2-0.6,0.2-0.9
		c0-0.5-0.1-0.9-0.4-1.1s-0.7-0.3-1.3-0.3c-0.5,0-1.1,0.1-1.7,0.2l-0.3,0.1L14.3,88c0.8-0.2,1.5-0.3,2.4-0.3c0.8,0,1.4,0.2,1.8,0.5
		s0.6,0.9,0.6,1.6c0,0.6-0.1,1-0.4,1.5s-0.7,0.9-1.3,1.5l-2.1,2.1h4C19.3,94.9,19.3,95.7,19.3,95.7z"/>
	<path class="st33" d="M23.5,87.6c0.7,0,1.2,0.1,1.6,0.4c0.9,0.5,1.3,1.8,1.3,3.8c0,1.4-0.2,2.5-0.7,3.1s-1.2,0.9-2.2,0.9
		s-1.7-0.3-2.2-0.9s-0.7-1.6-0.7-3.1s0.2-2.6,0.7-3.2C21.8,87.9,22.5,87.6,23.5,87.6z M23.5,88.5c-0.5,0-0.8,0.1-1.1,0.3
		c-0.6,0.4-0.9,1.4-0.9,3.1c0,1.2,0.2,2,0.5,2.5s0.8,0.7,1.5,0.7s1.2-0.2,1.5-0.7s0.5-1.3,0.5-2.5s-0.1-2.1-0.5-2.6
		C24.7,88.7,24.2,88.5,23.5,88.5z"/>
	<path class="st33" d="M30.2,87.6c0.7,0,1.2,0.1,1.6,0.4c0.9,0.5,1.3,1.8,1.3,3.8c0,1.4-0.2,2.5-0.7,3.1s-1.2,0.9-2.2,0.9
		s-1.7-0.3-2.2-0.9s-0.7-1.6-0.7-3.1s0.2-2.6,0.7-3.2C28.5,87.9,29.2,87.6,30.2,87.6z M30.2,88.5c-0.5,0-0.8,0.1-1.1,0.3
		c-0.6,0.4-0.9,1.4-0.9,3.1c0,1.2,0.2,2,0.5,2.5s0.8,0.7,1.5,0.7s1.2-0.2,1.5-0.7s0.5-1.3,0.5-2.5s-0.1-2.1-0.5-2.6
		C31.4,88.7,30.9,88.5,30.2,88.5z"/>
</g>
<line class="st34" x1="6.8" y1="599.1" x2="19.7" y2="599.1"/>
<line class="st34" x1="42.5" y1="599.1" x2="28.9" y2="599.1"/>
<line class="st34" x1="5.9" y1="562.2" x2="19.7" y2="562.2"/>
<line class="st34" x1="42.3" y1="562.2" x2="28.9" y2="562.2"/>
<line class="st34" x1="5.5" y1="305.8" x2="18.1" y2="305.8"/>
<line class="st34" x1="42.1" y1="305.9" x2="31" y2="305.9"/>
<line class="st34" x1="6.7" y1="263" x2="17.5" y2="263"/>
<line class="st34" x1="42.6" y1="263" x2="31.6" y2="263"/>
<line class="st34" x1="15.5" y1="177.8" x2="5.9" y2="177.8"/>
<line class="st34" x1="42.4" y1="178" x2="35.4" y2="178"/>
<line class="st34" x1="5.8" y1="135.2" x2="14.3" y2="135.2"/>
<line class="st34" x1="42.5" y1="135.2" x2="35" y2="135.2"/>
<line class="st34" x1="6.2" y1="92.3" x2="14.2" y2="92.3"/>
<line class="st34" x1="34.2" y1="92.3" x2="42.2" y2="92.3"/>
<g>
	<path class="st33" d="M38.8,27v-0.1c0-7.5-6.2-13.7-13.9-14.1v-1.3c0-0.3-0.3-0.7-0.8-0.7s-0.8,0.3-0.8,0.7v1.3
		c-7.8,0.3-13.9,6.6-13.9,14.1c0,0.3,0.3,0.7,0.8,0.7c0.2,0,0.3-0.1,0.6-0.2c2.5-2.3,5.8-2.3,8.2,0c0.1,0.1,0.3,0.2,0.6,0.2
		c0.2,0,0.3-0.1,0.5-0.2c1-0.9,2.2-1.5,3.4-1.6v9.8c0,1.9,1.7,3.7,3.8,3.7s3.8-1.6,3.8-3.7c0-0.3-0.3-0.7-0.8-0.7s-0.8,0.3-0.8,0.7
		c0,1.1-1,2.2-2.3,2.2s-2.3-1-2.3-2.2v-9.8c1.1,0.1,2.4,0.7,3.4,1.6c0.2,0.2,0.8,0.2,1,0c2.5-2.3,5.8-2.3,8.3,0
		c0.2,0.2,0.7,0.2,0.9,0.1C38.7,27.4,38.8,27.2,38.8,27z M28.1,25.5c-1.3-0.8-2.6-1.3-4-1.3H24h-0.1c-1.4,0-2.7,0.5-4,1.3
		c-0.3-4.9,0.9-8.8,2.5-10.5c1-1.1,2.1-1.1,3.2,0C27.1,16.7,28.5,20.5,28.1,25.5z M10.9,25.3c0.7-5.4,4.8-9.6,10-10.8
		c-1.5,1.9-2.9,5.7-2.5,10.8C16.2,23.9,13.3,23.9,10.9,25.3z M29.7,25.3c0.3-5.1-1-8.9-2.5-10.8c5.4,1.3,9.4,5.5,10,10.8
		C34.8,23.9,32,23.9,29.7,25.3z"/>
</g>
<g>
	<path class="st31" d="M27.3,514.5v0.8h-3.9l-0.2,2.6c0.6-0.3,1.2-0.5,1.9-0.5c1.7,0,2.5,0.8,2.5,2.3c0,0.9-0.2,1.6-0.7,2.1
		s-1.1,0.7-2,0.7c-0.7,0-1.4-0.1-2.2-0.3l-0.4-0.1l0.1-0.7c0.9,0.2,1.7,0.3,2.3,0.3s1.1-0.2,1.4-0.5s0.5-0.8,0.5-1.4s-0.1-1-0.4-1.2
		s-0.7-0.4-1.2-0.4c-0.3,0-0.6,0-0.9,0.1s-0.6,0.2-0.7,0.2l-0.3,0.1l-0.6-0.1l0.2-4.1h4.6V514.5z"/>
</g>
<line class="st34" x1="6.3" y1="519.3" x2="20.1" y2="519.3"/>
<line class="st34" x1="42.7" y1="519.3" x2="29.3" y2="519.3"/>
<g>
	<path class="st33" d="M23.5,394.5h-5.1v-0.8l2.3-2.4c0.4-0.4,0.7-0.7,0.9-0.9c0.2-0.2,0.4-0.5,0.5-0.8s0.2-0.6,0.2-0.9
		c0-0.5-0.1-0.9-0.4-1.1s-0.7-0.3-1.3-0.3c-0.5,0-1.1,0.1-1.7,0.2l-0.3,0.1l-0.1-0.8c0.8-0.2,1.5-0.3,2.4-0.3c0.8,0,1.4,0.2,1.8,0.5
		s0.6,0.9,0.6,1.6c0,0.6-0.1,1-0.4,1.5s-0.7,0.9-1.3,1.5l-2.1,2.1h4V394.5z"/>
	<path class="st33" d="M27.7,386.4c0.7,0,1.2,0.1,1.6,0.4c0.9,0.5,1.3,1.8,1.3,3.8c0,1.4-0.2,2.5-0.7,3.1s-1.2,0.9-2.2,0.9
		s-1.7-0.3-2.2-0.9s-0.7-1.6-0.7-3.1s0.2-2.6,0.7-3.2C26,386.7,26.7,386.4,27.7,386.4z M27.7,387.2c-0.5,0-0.8,0.1-1.1,0.3
		c-0.6,0.4-0.9,1.4-0.9,3.1c0,1.2,0.2,2,0.5,2.5s0.8,0.7,1.5,0.7s1.2-0.2,1.5-0.7s0.5-1.3,0.5-2.5s-0.2-2.1-0.5-2.6
		S28.4,387.2,27.7,387.2z"/>
</g>
<line class="st34" x1="5.9" y1="391.1" x2="18.3" y2="391.1"/>
<line class="st34" x1="42.3" y1="391.1" x2="31.7" y2="391.1"/>
<g>
	<path class="st33" d="M18.3,344c0.8-0.2,1.6-0.3,2.4-0.3s1.5,0.2,1.9,0.5s0.6,0.9,0.6,1.6c0,0.4-0.1,0.6-0.2,0.8
		c-0.1,0.2-0.2,0.3-0.2,0.4c-0.1,0.1-0.1,0.2-0.2,0.3c-0.2,0.1-0.3,0.2-0.4,0.3l-0.1,0.1c0.5,0.2,0.8,0.4,1,0.6s0.3,0.7,0.3,1.3
		c0,0.8-0.2,1.4-0.6,1.8s-1.1,0.6-1.9,0.6c-0.7,0-1.4-0.1-2.2-0.2l-0.4-0.1l0.1-0.8c0.9,0.2,1.7,0.3,2.4,0.3c1.1,0,1.7-0.5,1.7-1.5
		s-0.5-1.4-1.6-1.5h-1.6v-0.8h1.6c0.3,0,0.7-0.1,1-0.4s0.5-0.6,0.5-1.1c0-0.4-0.1-0.8-0.4-1s-0.7-0.3-1.2-0.3
		c-0.6,0-1.3,0.1-1.9,0.2l-0.3,0.1L18.3,344z"/>
	<path class="st33" d="M27.5,343.7c0.7,0,1.2,0.1,1.6,0.4c0.9,0.5,1.3,1.8,1.3,3.8c0,1.4-0.2,2.5-0.7,3.1s-1.2,0.9-2.2,0.9
		s-1.7-0.3-2.2-0.9s-0.7-1.6-0.7-3.1s0.2-2.6,0.7-3.2C25.8,344,26.5,343.7,27.5,343.7z M27.5,344.5c-0.5,0-0.8,0.1-1.1,0.3
		c-0.6,0.4-0.9,1.4-0.9,3.1c0,1.2,0.2,2,0.5,2.5s0.8,0.7,1.5,0.7s1.2-0.2,1.5-0.7s0.5-1.3,0.5-2.5s-0.1-2.1-0.5-2.6
		C28.7,344.8,28.2,344.5,27.5,344.5z"/>
</g>
<line class="st34" x1="5.8" y1="348.4" x2="18.1" y2="348.4"/>
<line class="st34" x1="42.2" y1="348.4" x2="31.6" y2="348.4"/>
<g>
	<path class="st32" d="M17.6,216v-0.8h4.9v1.2l-3,6.8l-0.9-0.3l3-6.6V216H17.6z"/>
	<path class="st32" d="M29.2,215.2v0.8h-3.9l-0.2,2.6c0.6-0.3,1.2-0.5,1.9-0.5c1.7,0,2.5,0.8,2.5,2.3c0,0.9-0.2,1.6-0.7,2.1
		s-1.1,0.7-2,0.7c-0.7,0-1.4-0.1-2.2-0.3l-0.4-0.1l0.1-0.7c0.9,0.2,1.7,0.3,2.3,0.3s1.1-0.2,1.4-0.5s0.5-0.8,0.5-1.4s-0.1-1-0.4-1.2
		s-0.7-0.4-1.2-0.4c-0.3,0-0.6,0-0.9,0.1s-0.6,0.2-0.7,0.2l-0.3,0.1l-0.6-0.1l0.2-4.1L29.2,215.2L29.2,215.2z"/>
</g>
<line class="st34" x1="6.1" y1="220.7" x2="16.9" y2="220.7"/>
<line class="st34" x1="42" y1="220.7" x2="31" y2="220.7"/>
<g>
	<path class="st31" d="M16.6,671.9h-0.9v-6h0.9v0.4c0.6-0.4,1.2-0.5,1.8-0.5c0.7,0,1.3,0.2,1.6,0.6c0.3-0.2,0.6-0.3,1-0.4
		s0.8-0.2,1.1-0.2c0.8,0,1.3,0.2,1.6,0.6c0.3,0.4,0.4,1.2,0.4,2.3v3.2h-0.9v-3.1c0-0.8-0.1-1.4-0.2-1.7c-0.2-0.3-0.5-0.5-1-0.5
		c-0.3,0-0.5,0-0.8,0.1s-0.5,0.2-0.6,0.2l-0.2,0.1c0.1,0.3,0.2,0.8,0.2,1.8v3.1h-0.9v-3.1c0-0.9-0.1-1.5-0.2-1.8
		c-0.2-0.3-0.5-0.5-1-0.5c-0.3,0-0.5,0-0.8,0.1s-0.5,0.2-0.6,0.2l-0.2,0.1v5H16.6z"/>
	<path class="st31" d="M26.6,671.9h-0.9v-6h0.9v0.4c0.6-0.4,1.2-0.5,1.8-0.5c0.7,0,1.3,0.2,1.6,0.6c0.3-0.2,0.6-0.3,1-0.4
		s0.8-0.2,1.1-0.2c0.8,0,1.3,0.2,1.6,0.6c0.3,0.4,0.4,1.2,0.4,2.3v3.2h-0.9v-3.1c0-0.8-0.1-1.4-0.2-1.7c-0.2-0.3-0.5-0.5-1-0.5
		c-0.3,0-0.5,0-0.8,0.1s-0.5,0.2-0.6,0.2l-0.2,0.1c0.1,0.3,0.2,0.8,0.2,1.8v3.1h-0.9v-3.1c0-0.9-0.1-1.5-0.2-1.8
		c-0.2-0.3-0.5-0.5-1-0.5c-0.3,0-0.5,0-0.8,0.1s-0.5,0.2-0.6,0.2l-0.2,0.1v5H26.6z"/>
</g>
<g>
	<path class="st31" d="M21.8,471.4v7.9h-0.9v-6.9l-2,1.3l-0.4-0.7l2.5-1.7h0.8V471.4z"/>
	<path class="st31" d="M27.2,471.3c0.7,0,1.2,0.1,1.6,0.4c0.9,0.5,1.3,1.8,1.3,3.8c0,1.4-0.2,2.5-0.7,3.1s-1.2,0.9-2.2,0.9
		s-1.7-0.3-2.2-0.9s-0.7-1.6-0.7-3.1s0.2-2.6,0.7-3.2C25.5,471.6,26.2,471.3,27.2,471.3z M27.2,472.1c-0.5,0-0.8,0.1-1.1,0.3
		c-0.6,0.4-0.9,1.4-0.9,3.1c0,1.2,0.2,2,0.5,2.5s0.8,0.7,1.5,0.7s1.2-0.2,1.5-0.7s0.5-1.3,0.5-2.5s-0.1-2.1-0.5-2.6
		C28.4,472.3,27.9,472.1,27.2,472.1z"/>
</g>
<line class="st34" x1="5.5" y1="476" x2="17.8" y2="476"/>
<line class="st34" x1="41.9" y1="476" x2="31.3" y2="476"/>
<g>
	<path class="st31" d="M22.3,429v7.9h-0.9V430l-2,1.3l-0.4-0.7l2.5-1.7h0.8V429z"/>
	<path class="st31" d="M30.1,429v0.8h-3.9l-0.2,2.6c0.6-0.3,1.2-0.5,1.9-0.5c1.7,0,2.5,0.8,2.5,2.3c0,0.9-0.2,1.6-0.7,2.1
		s-1.1,0.7-2,0.7c-0.7,0-1.4-0.1-2.2-0.3l-0.4-0.1l0.1-0.7c0.9,0.2,1.7,0.3,2.3,0.3s1.1-0.2,1.4-0.5s0.5-0.8,0.5-1.4s-0.1-1-0.4-1.2
		s-0.7-0.4-1.2-0.4c-0.3,0-0.6,0-0.9,0.1s-0.6,0.2-0.7,0.2l-0.3,0.1l-0.6-0.1l0.2-4.1h4.6V429z"/>
</g>
<line class="st34" x1="6" y1="433.6" x2="18.3" y2="433.6"/>
<line class="st34" x1="42.4" y1="433.6" x2="31.8" y2="433.6"/>
</svg>
