<?xml version="1.0" encoding="utf-8"?>
<!-- Generator: Adobe Illustrator 28.0.0, SVG Export Plug-In . SVG Version: 6.00 Build 0)  -->
<svg version="1.1" id="Livello_1" xmlns="http://www.w3.org/2000/svg" xmlns:xlink="http://www.w3.org/1999/xlink" x="0px" y="0px"
	 width="50px" height="677px"  viewBox="0 0 48.7 677.2" style="enable-background:new 0 0 48.7 677.2;" xml:space="preserve">
<style type="text/css">
	.st0{fill:#961405;}
	.st1{clip-path:url(#SVGID_00000119832652908263162780000012866036643003337914_);}
	.st2{fill:#6E0E04;}
	.st3{clip-path:url(#SVGID_00000014600988347006500750000002231188873233670567_);}
	.st4{fill:#E22208;}
	.st5{clip-path:url(#SVGID_00000022522396419067588650000006164113477211860633_);}
	.st6{fill:#E86411;}
	.st7{clip-path:url(#SVGID_00000112600560939424801370000016779017203999503295_);}
	.st8{fill:#E1D52D;}
	.st9{clip-path:url(#SVGID_00000141441289847482449920000000463424070804791693_);}
	.st10{fill:#F7EC31;}
	.st11{clip-path:url(#SVGID_00000026841537191339858070000016021918597551167143_);}
	.st12{clip-path:url(#SVGID_00000098917067362406114960000003809359060261765028_);}
	.st13{clip-path:url(#SVGID_00000181779995900798568910000010932447819616028848_);}
	.st14{fill:#173A62;}
	.st15{clip-path:url(#SVGID_00000131342064441873818760000017364201356881929863_);}
	.st16{fill:#79AADE;}
	.st17{clip-path:url(#SVGID_00000145047912134511282420000010497074288208591806_);}
	.st18{fill:#9CC1E7;}
	.st19{clip-path:url(#SVGID_00000020395512356478196800000015579630712238328996_);}
	.st20{fill:#BDD5EF;}
	.st21{clip-path:url(#SVGID_00000112609328370280343550000007248829881975140783_);}
	.st22{fill:#DEEAF7;}
	.st23{clip-path:url(#SVGID_00000155828630855352562470000016683146382659777213_);}
	.st24{fill:#235A95;}
	.st25{clip-path:url(#SVGID_00000183945923562120086780000012130742551062666910_);}
	.st26{fill:#2E6FB8;}
	.st27{fill:#548ECE;}
	.st28{fill:#39322E;}
	.st29{fill:none;}
	.st30{fill:none;stroke:#3C3430;stroke-width:2;stroke-miterlimit:9.7722;}
	.st31{fill:#3B3330;}
	.st32{fill:#3C3530;}
	.st33{fill:#FFFFFF;}
	.st34{fill:none;stroke:#3C3430;stroke-miterlimit:9.7722;}
</style>
<g>
	<g>
		<g>
			<g>
				<rect x="5.5" y="92.3" class="st0" width="37.3" height="42.7"/>
			</g>
		</g>
	</g>
</g>
<g>
	<g>
		<g>
			<defs>
				<path id="SVGID_1_" d="M43.4,672.4c-0.5,3.9-10.1,8.5-18.5,8.5l0,0c-8.2,0.4-19.5-3.8-19.5-8.5V54.7C7.2,49.2,17.2,49,23.7,49
					l0,0c7.7,0,17.7-0.7,19.6,5.2L43.4,672.4L43.4,672.4z"/>
			</defs>
			<clipPath id="SVGID_00000085950938268836759670000005416293919576574345_">
				<use xlink:href="#SVGID_1_"  style="overflow:visible;"/>
			</clipPath>
			<g style="clip-path:url(#SVGID_00000085950938268836759670000005416293919576574345_);">
				<g>
					<g>
						<rect x="-20" y="49" class="st2" width="100.4" height="43.7"/>
					</g>
				</g>
			</g>
		</g>
	</g>
	<g>
		<g>
			<defs>
				<path id="SVGID_00000137821649765838321860000000467966578182649504_" d="M43.4,672.4L43.4,672.4c-0.5,3.9-10.1,8.5-18.5,8.5
					l0,0c-8.2,0.4-19.5-3.8-19.5-8.5L5.9,54.5C7.6,49,17.2,49,23.7,49l0,0"/>
			</defs>
			<clipPath id="SVGID_00000057141805866251553300000009095520978706026642_">
				<use xlink:href="#SVGID_00000137821649765838321860000000467966578182649504_"  style="overflow:visible;"/>
			</clipPath>
			<g style="clip-path:url(#SVGID_00000057141805866251553300000009095520978706026642_);">
				<g>
					<g>
						<rect x="-24.9" y="92.3" class="st0" width="100.4" height="42.7"/>
					</g>
				</g>
			</g>
		</g>
	</g>
	<g>
		<g>
			<g>
				<g>
					<rect x="5.5" y="135" class="st4" width="38.4" height="43"/>
				</g>
			</g>
		</g>
	</g>
	<g>
		<g>
			<defs>
				<path id="SVGID_00000055704078473294027510000016929857123364868755_" d="M43.4,672.4c-0.5,3.9-10.1,8.5-18.5,8.5l0,0
					c-8.2,0.4-19.5-3.8-19.5-8.5L5.9,55c1.7-5.6,11.3-6,17.8-6l0,0c7.7,0,17.9-0.4,19.6,9.2L43.4,672.4L43.4,672.4z"/>
			</defs>
			<clipPath id="SVGID_00000180346273132086230620000001568987705467708851_">
				<use xlink:href="#SVGID_00000055704078473294027510000016929857123364868755_"  style="overflow:visible;"/>
			</clipPath>
			<g style="clip-path:url(#SVGID_00000180346273132086230620000001568987705467708851_);">
				<g>
					<g>
						<rect x="-20.5" y="177.9" class="st6" width="100.4" height="42.7"/>
					</g>
				</g>
			</g>
		</g>
	</g>
	<g>
		<g>
			<defs>
				<path id="SVGID_00000141436116095505768180000017959248734125343378_" d="M43.4,672.4c-0.5,3.9-10.1,8.5-18.5,8.5l0,0
					c-8.2,0.4-19.5-3.8-19.5-8.5L5.9,54.5C7.6,49,17.2,49,23.7,49l0,0c7.7,0,18-0.5,19.6,9.2L43.4,672.4L43.4,672.4z"/>
			</defs>
			<clipPath id="SVGID_00000099623859506374337580000015363083579865487505_">
				<use xlink:href="#SVGID_00000141436116095505768180000017959248734125343378_"  style="overflow:visible;"/>
			</clipPath>
			<g style="clip-path:url(#SVGID_00000099623859506374337580000015363083579865487505_);">
				<g>
					<g>
						<rect x="-19.5" y="220.6" class="st8" width="100.4" height="42.7"/>
					</g>
				</g>
			</g>
		</g>
		<g>
			<defs>
				<path id="SVGID_00000142151422039511374470000003089401582176703880_" d="M43.4,672.4c-0.5,3.9-10.1,8.5-18.5,8.5l0,0
					c-8.2,0.4-19.5-3.8-19.5-8.5L5.9,54.5C7.6,49,17.2,49,23.7,49l0,0c7.7,0,18-0.5,19.6,9.2L43.4,672.4L43.4,672.4z"/>
			</defs>
			<clipPath id="SVGID_00000072259245779291914190000007643937124882750354_">
				<use xlink:href="#SVGID_00000142151422039511374470000003089401582176703880_"  style="overflow:visible;"/>
			</clipPath>
			<g style="clip-path:url(#SVGID_00000072259245779291914190000007643937124882750354_);">
				<g>
					<g>
						<rect x="-26.4" y="263.3" class="st10" width="100.4" height="42.7"/>
					</g>
				</g>
			</g>
		</g>
	</g>
	<g>
		<g>
			<defs>
				<path id="SVGID_00000112599311252113108260000010042015173378102965_" d="M43.3,58.1l0.2,614.3l0,0c-0.5,3.9-10.1,8.5-18.5,8.5
					l0,0c-8.2,0.4-19.5-3.8-19.5-8.5"/>
			</defs>
			<clipPath id="SVGID_00000078744953835362800570000018235950767530966169_">
				<use xlink:href="#SVGID_00000112599311252113108260000010042015173378102965_"  style="overflow:visible;"/>
			</clipPath>
		</g>
		<g>
			<defs>
				<path id="SVGID_00000144299630615959053250000009520198392399753352_" d="M43.3,58.1l0.2,614.3l0,0c-0.5,3.9-10.1,8.5-18.5,8.5
					l0,0c-8.2,0.4-19.5-3.8-19.5-8.5"/>
			</defs>
			<defs>
				<line id="SVGID_00000034793403740294033220000007923904160521944246_" x1="23.7" y1="49" x2="23.7" y2="49"/>
			</defs>
			<clipPath id="SVGID_00000132803925806610755320000006674167040735572924_">
				<use xlink:href="#SVGID_00000144299630615959053250000009520198392399753352_"  style="overflow:visible;"/>
			</clipPath>
			
				<clipPath id="SVGID_00000051368459471183911070000016717856712175598753_" style="clip-path:url(#SVGID_00000132803925806610755320000006674167040735572924_);">
				<use xlink:href="#SVGID_00000034793403740294033220000007923904160521944246_"  style="overflow:visible;"/>
			</clipPath>
			<g style="clip-path:url(#SVGID_00000051368459471183911070000016717856712175598753_);">
				<g>
					<g>
						<rect x="-19.5" y="263.2" class="st10" width="100.4" height="42.7"/>
					</g>
				</g>
			</g>
		</g>
	</g>
	<g>
		<g>
			<defs>
				<path id="SVGID_00000101809228038305941040000005480221922493516688_" d="M43.3,58.1l0.2,614.3l0,0c-0.5,3.9-10.1,8.5-18.5,8.5
					l0,0c-8.2,0.4-19.5-3.8-19.5-8.5V55.3C7.2,49.7,17.2,49,23.7,49l0,0"/>
			</defs>
			<clipPath id="SVGID_00000168796504967035139100000016596771279691207553_">
				<use xlink:href="#SVGID_00000101809228038305941040000005480221922493516688_"  style="overflow:visible;"/>
			</clipPath>
			<g style="clip-path:url(#SVGID_00000168796504967035139100000016596771279691207553_);">
				<g>
					<g>
						<rect x="-19.5" y="305.9" class="st14" width="100.4" height="42.7"/>
					</g>
				</g>
			</g>
		</g>
	</g>
	<g>
		<g>
			<defs>
				<path id="SVGID_00000154406811897966745280000000151182700800861078_" d="M43.4,672.4c-0.5,3.9-10.1,8.5-18.5,8.5l0,0
					c-8.2,0.4-19.5-3.8-19.5-8.5V54.7C7.2,49.2,17.2,49,23.7,49l0,0c7.7,0,18.2-0.4,19.6,9.2L43.4,672.4L43.4,672.4z"/>
			</defs>
			<clipPath id="SVGID_00000047744942919152260460000012928871176527422096_">
				<use xlink:href="#SVGID_00000154406811897966745280000000151182700800861078_"  style="overflow:visible;"/>
			</clipPath>
			<g style="clip-path:url(#SVGID_00000047744942919152260460000012928871176527422096_);">
				<g>
					<g>
						<rect x="-18.2" y="476.7" class="st16" width="100.4" height="42.7"/>
					</g>
				</g>
			</g>
		</g>
	</g>
	<g>
		<g>
			<defs>
				<path id="SVGID_00000001659394812144791010000007476462611523827386_" d="M43.4,672.4c-0.5,3.9-10.1,8.5-18.5,8.5l0,0
					c-8.2,0.4-19.5-3.8-19.5-8.5V54.7C7.2,49.2,17.2,49,23.7,49l0,0c7.7,0,18.2-0.9,19.6,9.2L43.4,672.4L43.4,672.4z"/>
			</defs>
			<clipPath id="SVGID_00000006692489502031256050000004077990536966522248_">
				<use xlink:href="#SVGID_00000001659394812144791010000007476462611523827386_"  style="overflow:visible;"/>
			</clipPath>
			<g style="clip-path:url(#SVGID_00000006692489502031256050000004077990536966522248_);">
				<g>
					<g>
						<rect x="-18.2" y="519.3" class="st18" width="100.4" height="42.7"/>
					</g>
				</g>
			</g>
		</g>
	</g>
	<g>
		<g>
			<defs>
				<path id="SVGID_00000080913866736145453210000010522803577205742222_" d="M43.4,672.4c-0.5,3.9-10.1,8.5-18.5,8.5l0,0
					c-8.2,0.4-19.5-3.8-19.5-8.5V57.9C5.3,43.6,17.1,48.8,23.7,49l0,0c7.7,0,18.3-0.5,19.6,9.2L43.4,672.4L43.4,672.4z"/>
			</defs>
			<clipPath id="SVGID_00000082350335485805139400000014404054098167532457_">
				<use xlink:href="#SVGID_00000080913866736145453210000010522803577205742222_"  style="overflow:visible;"/>
			</clipPath>
			<g style="clip-path:url(#SVGID_00000082350335485805139400000014404054098167532457_);">
				<g>
					<g>
						<rect x="-17.3" y="562" class="st20" width="100.4" height="42.7"/>
					</g>
				</g>
			</g>
		</g>
	</g>
	<g>
		<g>
			<defs>
				<path id="SVGID_00000129919644328315339300000002032814717854170756_" d="M43.4,672.4c-0.5,3.9-10.4,3.3-18.8,3.3l0,0
					c-8.2,0.4-18.8,0.6-18.8-4.2v-618C7.6,48,17.2,49,23.7,49l0,0c7.7,0,17.7,0.3,19.6,6.2L43.4,672.4L43.4,672.4z"/>
			</defs>
			<clipPath id="SVGID_00000156561985969614870160000007818881478317374369_">
				<use xlink:href="#SVGID_00000129919644328315339300000002032814717854170756_"  style="overflow:visible;"/>
			</clipPath>
			<g style="clip-path:url(#SVGID_00000156561985969614870160000007818881478317374369_);">
				<g>
					<g>
						<rect x="-17.6" y="599.4" class="st22" width="100.4" height="79"/>
					</g>
				</g>
			</g>
		</g>
	</g>
	<g>
		<g>
			<defs>
				<path id="SVGID_00000174563327139835427320000013216203939485657003_" d="M43.4,672.4c-0.5,3.9-10.4,3.3-18.8,3.3l0,0
					c-8.2,0.4-19.2,1.4-19.2-3.3L5.9,54.5C7.6,49,17.2,49,23.7,49l0,0c7.7,0,17.2,0.6,19.1,6.5L43.4,672.4L43.4,672.4z"/>
			</defs>
			<clipPath id="SVGID_00000058550811888291141000000007361351840650578856_">
				<use xlink:href="#SVGID_00000174563327139835427320000013216203939485657003_"  style="overflow:visible;"/>
			</clipPath>
			<g style="clip-path:url(#SVGID_00000058550811888291141000000007361351840650578856_);">
				<g>
					<g>
						<rect x="-18.2" y="348.6" class="st24" width="100.4" height="42.7"/>
					</g>
				</g>
			</g>
		</g>
	</g>
	<g>
		<g>
			<defs>
				<path id="SVGID_00000041266703479062843230000004895921592671815062_" d="M43.4,672.4c-0.5,3.9-10.4,3.3-18.8,3.3l0,0
					c-8.2,0.4-19.2,1.4-18.4-2.8V55.2c1-6,11-6.2,17.5-6.2l0,0c7.7,0,17.2,0.3,19,6.2L43.4,672.4L43.4,672.4z"/>
			</defs>
			<clipPath id="SVGID_00000033348027010730537120000018083088073863462825_">
				<use xlink:href="#SVGID_00000041266703479062843230000004895921592671815062_"  style="overflow:visible;"/>
			</clipPath>
			<g style="clip-path:url(#SVGID_00000033348027010730537120000018083088073863462825_);">
				<g>
					<g>
						<rect x="-18.2" y="391.2" class="st26" width="100.4" height="42.7"/>
					</g>
				</g>
			</g>
		</g>
	</g>
	<g>
		<g>
			<g>
				<g>
					<rect x="6.2" y="433.9" class="st27" width="36.7" height="42.7"/>
				</g>
			</g>
		</g>
	</g>
</g>
<circle class="st28" cx="24.1" cy="26.6" r="19.8"/>
<rect x="11.1" y="632" class="st29" width="15.4" height="11.8"/>
<path class="st30" d="M36.6,675.8H12.1c-3.4,0-6.2-2.8-6.2-6.2V56.1c0-3.4,2.8-6.2,6.2-6.2h24.5c3.4,0,6.2,2.8,6.2,6.2v613.5
	C42.8,673,40,675.8,36.6,675.8z"/>
<g>
	<path class="st31" d="M25.8,594.3v7.9h-0.9v-6.9l-2,1.3l-0.4-0.7l2.5-1.7h0.8V594.3z"/>
</g>
<g>
	<path class="st31" d="M27.1,565.3H22v-0.8l2.3-2.4c0.4-0.4,0.7-0.7,0.9-0.9c0.2-0.2,0.4-0.5,0.5-0.8s0.2-0.6,0.2-0.9
		c0-0.5-0.1-0.9-0.4-1.1c-0.3-0.2-0.7-0.3-1.3-0.3c-0.5,0-1.1,0.1-1.7,0.2l-0.3,0.1l-0.1-0.8c0.8-0.2,1.5-0.3,2.4-0.3
		c0.8,0,1.4,0.2,1.8,0.5s0.6,0.9,0.6,1.6c0,0.6-0.1,1-0.4,1.5s-0.7,0.9-1.3,1.5l-2.1,2.1h4V565.3z"/>
</g>
<g>
	<path d="M22.9,308.2h-5.1v-0.8l2.3-2.4c0.4-0.4,0.7-0.7,0.9-0.9c0.2-0.2,0.3-0.5,0.5-0.8c0.1-0.3,0.2-0.6,0.2-0.9
		c0-0.5-0.1-0.9-0.4-1.1S20.6,301,20,301c-0.5,0-1.1,0.1-1.7,0.2l-0.3,0.1l-0.1-0.8c0.8-0.2,1.5-0.3,2.4-0.3c0.8,0,1.4,0.2,1.8,0.5
		s0.6,0.9,0.6,1.6c0,0.6-0.1,1-0.4,1.5s-0.7,0.9-1.3,1.5l-2.1,2.1h4V308.2z"/>
	<path d="M27.1,300.2c0.7,0,1.2,0.1,1.6,0.4c0.9,0.5,1.3,1.8,1.3,3.8c0,1.4-0.2,2.5-0.7,3.1s-1.2,0.9-2.2,0.9s-1.7-0.3-2.2-0.9
		s-0.7-1.6-0.7-3.1s0.2-2.6,0.7-3.2C25.4,300.5,26.1,300.2,27.1,300.2z M27.1,301c-0.5,0-0.8,0.1-1.1,0.3c-0.6,0.4-0.9,1.4-0.9,3.1
		c0,1.2,0.2,2,0.5,2.5s0.8,0.7,1.5,0.7s1.2-0.2,1.5-0.7s0.5-1.3,0.5-2.5s-0.1-2.1-0.5-2.6C28.3,301.3,27.8,301,27.1,301z"/>
</g>
<g>
	<path class="st32" d="M18.2,257.7c0.8-0.2,1.6-0.3,2.4-0.3s1.5,0.2,1.9,0.5s0.6,0.9,0.6,1.6c0,0.4-0.1,0.6-0.2,0.8
		c-0.1,0.2-0.2,0.3-0.2,0.4c-0.1,0.1-0.1,0.2-0.2,0.3c-0.2,0.1-0.3,0.2-0.4,0.3l-0.1,0.1c0.5,0.2,0.8,0.4,1,0.6s0.3,0.7,0.3,1.3
		c0,0.8-0.2,1.4-0.6,1.8s-1.1,0.6-1.9,0.6c-0.7,0-1.4-0.1-2.2-0.2l-0.4-0.1l0.1-0.8c0.9,0.2,1.7,0.3,2.4,0.3c1.1,0,1.7-0.5,1.7-1.5
		s-0.5-1.4-1.6-1.5h-1.6v-0.8h1.6c0.3,0,0.7-0.1,1-0.4s0.5-0.6,0.5-1.1c0-0.4-0.1-0.8-0.4-1s-0.7-0.3-1.2-0.3
		c-0.6,0-1.3,0.1-1.9,0.2l-0.3,0.1L18.2,257.7z"/>
	<path class="st32" d="M27.4,257.3c0.7,0,1.2,0.1,1.6,0.4c0.9,0.5,1.3,1.8,1.3,3.8c0,1.4-0.2,2.5-0.7,3.1s-1.2,0.9-2.2,0.9
		s-1.7-0.3-2.2-0.9s-0.7-1.6-0.7-3.1s0.2-2.6,0.7-3.2C25.7,257.6,26.4,257.3,27.4,257.3z M27.4,258.2c-0.5,0-0.8,0.1-1.1,0.3
		c-0.6,0.4-0.9,1.4-0.9,3.1c0,1.2,0.2,2,0.5,2.5s0.8,0.7,1.5,0.7s1.2-0.2,1.5-0.7s0.5-1.3,0.5-2.5s-0.1-2.1-0.5-2.6
		C28.6,258.4,28.1,258.2,27.4,258.2z"/>
</g>
<g>
	<path class="st33" d="M23.6,173.4v0.8h-3.9l-0.2,2.6c0.6-0.3,1.2-0.5,1.9-0.5c1.7,0,2.5,0.8,2.5,2.3c0,0.9-0.2,1.6-0.7,2.1
		s-1.1,0.7-2,0.7c-0.7,0-1.4-0.1-2.2-0.3l-0.4-0.1l0.1-0.7c0.9,0.2,1.7,0.3,2.3,0.3s1.1-0.2,1.4-0.5s0.5-0.8,0.5-1.4s-0.1-1-0.4-1.2
		s-0.7-0.4-1.2-0.4c-0.3,0-0.6,0-0.9,0.1s-0.6,0.2-0.7,0.2l-0.3,0.1l-0.6-0.1l0.2-4.1L23.6,173.4L23.6,173.4z"/>
	<path class="st33" d="M27.9,173.3c0.7,0,1.2,0.1,1.6,0.4c0.9,0.5,1.3,1.8,1.3,3.8c0,1.4-0.2,2.5-0.7,3.1s-1.2,0.9-2.2,0.9
		s-1.7-0.3-2.2-0.9c-0.5-0.6-0.7-1.6-0.7-3.1s0.2-2.6,0.7-3.2C26.3,173.6,27,173.3,27.9,173.3z M28,174.1c-0.5,0-0.8,0.1-1.1,0.3
		c-0.6,0.4-0.9,1.4-0.9,3.1c0,1.2,0.2,2,0.5,2.5s0.8,0.7,1.5,0.7s1.2-0.2,1.5-0.7s0.5-1.3,0.5-2.5s-0.2-2.1-0.5-2.6
		S28.6,174.1,28,174.1z"/>
</g>
<g>
	<path class="st33" d="M17.9,131v-0.8h4.9v1.2l-3,6.8l-0.9-0.3l3-6.6V131H17.9z"/>
	<path class="st33" d="M29.5,130.1v0.8h-3.9l-0.2,2.6c0.6-0.3,1.2-0.5,1.9-0.5c1.7,0,2.5,0.8,2.5,2.3c0,0.9-0.2,1.6-0.7,2.1
		s-1.1,0.7-2,0.7c-0.7,0-1.4-0.1-2.2-0.3l-0.4-0.1l0.1-0.7c0.9,0.2,1.7,0.3,2.3,0.3s1.1-0.2,1.4-0.5s0.5-0.8,0.5-1.4s-0.1-1-0.4-1.2
		s-0.7-0.4-1.2-0.4c-0.3,0-0.6,0-0.9,0.1s-0.6,0.2-0.7,0.2l-0.3,0.1l-0.6-0.1l0.2-4.1L29.5,130.1L29.5,130.1z"/>
</g>
<g>
	<path class="st33" d="M18.1,87.8v7.9h-0.9v-6.9l-2,1.3l-0.4-0.7l2.5-1.7L18.1,87.8L18.1,87.8z"/>
	<path class="st33" d="M23.5,87.6c0.7,0,1.2,0.1,1.6,0.4c0.9,0.5,1.3,1.8,1.3,3.8c0,1.4-0.2,2.5-0.7,3.1s-1.2,0.9-2.2,0.9
		s-1.7-0.3-2.2-0.9s-0.7-1.6-0.7-3.1s0.2-2.6,0.7-3.2C21.8,87.9,22.5,87.6,23.5,87.6z M23.5,88.5c-0.5,0-0.8,0.1-1.1,0.3
		c-0.6,0.4-0.9,1.4-0.9,3.1c0,1.2,0.2,2,0.5,2.5s0.8,0.7,1.5,0.7s1.2-0.2,1.5-0.7s0.5-1.3,0.5-2.5s-0.1-2.1-0.5-2.6
		C24.7,88.7,24.2,88.5,23.5,88.5z"/>
	<path class="st33" d="M30.2,87.6c0.7,0,1.2,0.1,1.6,0.4c0.9,0.5,1.3,1.8,1.3,3.8c0,1.4-0.2,2.5-0.7,3.1s-1.2,0.9-2.2,0.9
		s-1.7-0.3-2.2-0.9s-0.7-1.6-0.7-3.1s0.2-2.6,0.7-3.2C28.5,87.9,29.2,87.6,30.2,87.6z M30.2,88.5c-0.5,0-0.8,0.1-1.1,0.3
		c-0.6,0.4-0.9,1.4-0.9,3.1c0,1.2,0.2,2,0.5,2.5s0.8,0.7,1.5,0.7s1.2-0.2,1.5-0.7s0.5-1.3,0.5-2.5s-0.1-2.1-0.5-2.6
		C31.4,88.7,30.9,88.5,30.2,88.5z"/>
</g>
<line class="st34" x1="6.8" y1="599.1" x2="19.7" y2="599.1"/>
<line class="st34" x1="42.5" y1="599.1" x2="28.9" y2="599.1"/>
<line class="st34" x1="5.9" y1="562.2" x2="19.7" y2="562.2"/>
<line class="st34" x1="42.3" y1="562.2" x2="28.9" y2="562.2"/>
<line class="st34" x1="5.5" y1="305.8" x2="18.1" y2="305.8"/>
<line class="st34" x1="42.1" y1="305.9" x2="31" y2="305.9"/>
<line class="st34" x1="6.7" y1="263" x2="17.5" y2="263"/>
<line class="st34" x1="42.6" y1="263" x2="31.6" y2="263"/>
<line class="st34" x1="18.4" y1="177.8" x2="5.9" y2="177.8"/>
<line class="st34" x1="42.4" y1="178" x2="31.4" y2="178"/>
<line class="st34" x1="5.8" y1="135.2" x2="17.7" y2="135.2"/>
<line class="st34" x1="42.5" y1="135.2" x2="31.3" y2="135.2"/>
<line class="st34" x1="6.2" y1="92.3" x2="14.2" y2="92.3"/>
<line class="st34" x1="34.2" y1="92.3" x2="42.2" y2="92.3"/>
<g>
	<path class="st33" d="M38.8,27v-0.1c0-7.5-6.2-13.7-13.9-14.1v-1.3c0-0.3-0.3-0.7-0.8-0.7s-0.8,0.3-0.8,0.7v1.3
		c-7.8,0.3-13.9,6.6-13.9,14.1c0,0.3,0.3,0.7,0.8,0.7c0.2,0,0.3-0.1,0.6-0.2c2.5-2.3,5.8-2.3,8.2,0c0.1,0.1,0.3,0.2,0.6,0.2
		c0.2,0,0.3-0.1,0.5-0.2c1-0.9,2.2-1.5,3.4-1.6v9.8c0,1.9,1.7,3.7,3.8,3.7s3.8-1.6,3.8-3.7c0-0.3-0.3-0.7-0.8-0.7s-0.8,0.3-0.8,0.7
		c0,1.1-1,2.2-2.3,2.2s-2.3-1-2.3-2.2v-9.8c1.1,0.1,2.4,0.7,3.4,1.6c0.2,0.2,0.8,0.2,1,0c2.5-2.3,5.8-2.3,8.3,0
		c0.2,0.2,0.7,0.2,0.9,0.1C38.7,27.4,38.8,27.2,38.8,27z M28.1,25.5c-1.3-0.8-2.6-1.3-4-1.3H24h-0.1c-1.4,0-2.7,0.5-4,1.3
		c-0.3-4.9,0.9-8.8,2.5-10.5c1-1.1,2.1-1.1,3.2,0C27.1,16.7,28.5,20.5,28.1,25.5z M10.9,25.3c0.7-5.4,4.8-9.6,10-10.8
		c-1.5,1.9-2.9,5.7-2.5,10.8C16.2,23.9,13.3,23.9,10.9,25.3z M29.7,25.3c0.3-5.1-1-8.9-2.5-10.8c5.4,1.3,9.4,5.5,10,10.8
		C34.8,23.9,32,23.9,29.7,25.3z"/>
</g>
<g>
	<path class="st31" d="M25.9,522.5V521h-3.8v-0.7l2.3-5.7h1l-2.3,5.6H26v-2.5h0.9v2.5h1v0.8h-1v1.5L25.9,522.5L25.9,522.5z"/>
</g>
<line class="st34" x1="6.3" y1="519.3" x2="20.1" y2="519.3"/>
<line class="st34" x1="42.7" y1="519.3" x2="29.3" y2="519.3"/>
<g>
	<path class="st31" d="M27.3,472.6c-0.7-0.1-1.4-0.1-2.1-0.1s-1.2,0.2-1.6,0.7s-0.6,1.1-0.6,2l0.3-0.1c0.2-0.1,0.5-0.1,0.8-0.2
		s0.6-0.1,0.9-0.1c1.8,0,2.7,0.8,2.7,2.5c0,0.8-0.2,1.5-0.7,1.9s-1.2,0.7-2,0.7c-1.9,0-2.8-1.4-2.8-4.1c0-1.4,0.3-2.4,0.8-3.1
		s1.3-1,2.3-1c0.6,0,1.3,0,1.8,0.1l0.3,0.1L27.3,472.6z M25,475.5c-0.3,0-0.6,0-0.9,0.1s-0.6,0.1-0.8,0.2L23,476
		c0,0.9,0.2,1.6,0.5,2.2s0.8,0.8,1.4,0.8s1.1-0.2,1.4-0.5s0.5-0.7,0.5-1.3c0-0.6-0.2-1-0.5-1.3C26,475.7,25.5,475.5,25,475.5z"/>
</g>
<line class="st34" x1="6.1" y1="476.5" x2="20" y2="476.5"/>
<line class="st34" x1="42.5" y1="476.5" x2="29.1" y2="476.5"/>
<g>
	<path class="st31" d="M22.6,429.6c0.5-0.3,1.2-0.5,2.1-0.5s1.6,0.2,2.1,0.5s0.8,0.9,0.8,1.5c0,0.5-0.1,0.9-0.3,1.1
		c-0.2,0.3-0.5,0.5-1,0.7c0.5,0.2,0.8,0.5,1.1,0.8s0.4,0.7,0.4,1.2c0,1.5-1,2.3-3,2.3s-3-0.7-3-2.1c0-0.6,0.1-1,0.3-1.3
		c0.2-0.3,0.6-0.6,1-0.8c-0.4-0.2-0.7-0.5-0.9-0.7s-0.3-0.7-0.3-1.1C21.9,430.4,22.1,429.9,22.6,429.6z M22.7,434.9
		c0,1,0.7,1.5,2,1.5s2-0.5,2-1.5c0-0.4-0.1-0.7-0.4-0.9c-0.2-0.2-0.6-0.4-1-0.5H24c-0.4,0.1-0.8,0.3-1,0.5S22.7,434.5,22.7,434.9z
		 M26.6,431.2c0-0.9-0.6-1.3-1.9-1.3c-1.2,0-1.9,0.4-1.9,1.3c0,0.4,0.1,0.6,0.3,0.9c0.2,0.2,0.5,0.4,0.9,0.5h1.3
		c0.4-0.1,0.8-0.3,1-0.5C26.5,431.8,26.6,431.6,26.6,431.2z"/>
</g>
<line class="st34" x1="6" y1="434" x2="19.9" y2="434"/>
<line class="st34" x1="42.4" y1="434" x2="29" y2="434"/>
<g>
	<path class="st33" d="M22.3,386.5v7.9h-0.9v-6.9l-2,1.3l-0.4-0.7l2.5-1.7h0.8V386.5z"/>
	<path class="st33" d="M27.7,386.4c0.7,0,1.2,0.1,1.6,0.4c0.9,0.5,1.3,1.8,1.3,3.8c0,1.4-0.2,2.5-0.7,3.1s-1.2,0.9-2.2,0.9
		s-1.7-0.3-2.2-0.9s-0.7-1.6-0.7-3.1s0.2-2.6,0.7-3.2C26,386.7,26.7,386.4,27.7,386.4z M27.7,387.2c-0.5,0-0.8,0.1-1.1,0.3
		c-0.6,0.4-0.9,1.4-0.9,3.1c0,1.2,0.2,2,0.5,2.5s0.8,0.7,1.5,0.7s1.2-0.2,1.5-0.7s0.5-1.3,0.5-2.5s-0.1-2.1-0.5-2.6
		C28.9,387.5,28.4,387.2,27.7,387.2z"/>
</g>
<line class="st34" x1="5.9" y1="391.1" x2="18.3" y2="391.1"/>
<line class="st34" x1="42.3" y1="391.1" x2="31.7" y2="391.1"/>
<g>
	<path class="st33" d="M22.1,343.8v7.9h-0.9v-6.9l-2,1.3l-0.4-0.7l2.5-1.7h0.8V343.8z"/>
	<path class="st33" d="M29.9,343.8v0.8H26l-0.2,2.6c0.6-0.3,1.2-0.5,1.9-0.5c1.7,0,2.5,0.8,2.5,2.3c0,0.9-0.2,1.6-0.7,2.1
		s-1.1,0.7-2,0.7c-0.7,0-1.4-0.1-2.2-0.3l-0.4-0.1l0.1-0.7c0.9,0.2,1.7,0.3,2.3,0.3s1.1-0.2,1.4-0.5s0.5-0.8,0.5-1.4s-0.1-1-0.4-1.2
		s-0.7-0.4-1.2-0.4c-0.3,0-0.6,0-0.9,0.1s-0.6,0.2-0.7,0.2l-0.3,0.1l-0.6-0.1l0.2-4.1h4.6V343.8z"/>
</g>
<line class="st34" x1="5.8" y1="348.4" x2="18.1" y2="348.4"/>
<line class="st34" x1="42.2" y1="348.4" x2="31.6" y2="348.4"/>
<g>
	<path class="st32" d="M21,223.1v-1.5h-3.8v-0.7l2.3-5.7h1l-2.3,5.6H21v-2.5h1v2.5h1v0.8h-1v1.5L21,223.1L21,223.1z"/>
	<path class="st32" d="M26.8,215c0.7,0,1.2,0.1,1.6,0.4c0.9,0.5,1.3,1.8,1.3,3.8c0,1.4-0.2,2.5-0.7,3.1s-1.2,0.9-2.2,0.9
		s-1.7-0.3-2.2-0.9c-0.5-0.6-0.7-1.6-0.7-3.1s0.2-2.6,0.7-3.2C25.1,215.3,25.8,215,26.8,215z M26.8,215.9c-0.5,0-0.8,0.1-1.1,0.3
		c-0.6,0.4-0.9,1.4-0.9,3.1c0,1.2,0.2,2,0.5,2.5s0.8,0.7,1.5,0.7s1.2-0.2,1.5-0.7s0.5-1.3,0.5-2.5s-0.1-2.1-0.5-2.6
		C28,216.1,27.5,215.9,26.8,215.9z"/>
</g>
<line class="st34" x1="6.1" y1="220.7" x2="16.9" y2="220.7"/>
<line class="st34" x1="42" y1="220.7" x2="31" y2="220.7"/>
<g>
	<path class="st31" d="M16.6,671.9h-0.9v-6h0.9v0.4c0.6-0.4,1.2-0.5,1.8-0.5c0.7,0,1.3,0.2,1.6,0.6c0.3-0.2,0.6-0.3,1-0.4
		s0.8-0.2,1.1-0.2c0.8,0,1.3,0.2,1.6,0.6c0.3,0.4,0.4,1.2,0.4,2.3v3.2h-0.9v-3.1c0-0.8-0.1-1.4-0.2-1.7c-0.2-0.3-0.5-0.5-1-0.5
		c-0.3,0-0.5,0-0.8,0.1s-0.5,0.2-0.6,0.2l-0.2,0.1c0.1,0.3,0.2,0.8,0.2,1.8v3.1h-0.9v-3.1c0-0.9-0.1-1.5-0.2-1.8
		c-0.2-0.3-0.5-0.5-1-0.5c-0.3,0-0.5,0-0.8,0.1s-0.5,0.2-0.6,0.2l-0.2,0.1v5H16.6z"/>
	<path class="st31" d="M26.6,671.9h-0.9v-6h0.9v0.4c0.6-0.4,1.2-0.5,1.8-0.5c0.7,0,1.3,0.2,1.6,0.6c0.3-0.2,0.6-0.3,1-0.4
		s0.8-0.2,1.1-0.2c0.8,0,1.3,0.2,1.6,0.6c0.3,0.4,0.4,1.2,0.4,2.3v3.2h-0.9v-3.1c0-0.8-0.1-1.4-0.2-1.7c-0.2-0.3-0.5-0.5-1-0.5
		c-0.3,0-0.5,0-0.8,0.1s-0.5,0.2-0.6,0.2l-0.2,0.1c0.1,0.3,0.2,0.8,0.2,1.8v3.1h-0.9v-3.1c0-0.9-0.1-1.5-0.2-1.8
		c-0.2-0.3-0.5-0.5-1-0.5c-0.3,0-0.5,0-0.8,0.1s-0.5,0.2-0.6,0.2l-0.2,0.1v5H26.6z"/>
</g>
</svg>
