<?xml version="1.0" encoding="utf-8"?>
<!-- Generator: Adobe Illustrator 28.0.0, SVG Export Plug-In . SVG Version: 6.00 Build 0)  -->
<svg version="1.1" id="Livello_1" xmlns="http://www.w3.org/2000/svg" xmlns:xlink="http://www.w3.org/1999/xlink" x="0px" y="0px"
	width="40.8px" height="725.2px"  viewBox="0 0 40.8 725.2" style="enable-background:new 0 0 40.8 725.2;" xml:space="preserve">
<style type="text/css">
	.st0{fill:#A810A3;}
	.st1{fill:#808060;}
	.st2{fill:#B6E8F6;}
	.st3{fill:#5B0C03;}
	.st4{fill:#961405;}
	.st5{clip-path:url(#SVGID_00000039106842486079127270000005020432392503133363_);}
	.st6{fill:#E22208;}
	.st7{clip-path:url(#SVGID_00000139989756104150098030000003118033127463431306_);}
	.st8{fill:#E86411;}
	.st9{fill:#F7EC31;}
	.st10{clip-path:url(#SVGID_00000047780880513477169260000017072095503729277057_);}
	.st11{clip-path:url(#SVGID_00000121245610514911852290000014739514129950641844_);}
	.st12{clip-path:url(#SVGID_00000057862570786609071020000013471666324377478281_);}
	.st13{fill:#0F2743;}
	.st14{clip-path:url(#SVGID_00000003811567792914872620000001149014778182877614_);}
	.st15{fill:#19C2F0;}
	.st16{clip-path:url(#SVGID_00000038379635958765774120000001356984632197709215_);}
	.st17{fill:#78DBF6;}
	.st18{clip-path:url(#SVGID_00000175294595022717314080000003181080949303219134_);}
	.st19{fill:#BDD5EF;}
	.st20{clip-path:url(#SVGID_00000034080489216547413040000011024041103321654435_);}
	.st21{fill:#DBF4FB;}
	.st22{clip-path:url(#SVGID_00000075857866365148142480000008801939206059654330_);}
	.st23{fill:#1B4674;}
	.st24{clip-path:url(#SVGID_00000145757459438118802070000005841330931423189695_);}
	.st25{fill:#518DCD;}
	.st26{fill:#71A2D6;}
	.st27{fill:#39322E;}
	.st28{fill:none;}
	.st29{fill:none;stroke:#3C3430;stroke-width:2;stroke-miterlimit:9.7722;}
	.st30{fill:#3B3330;}
	.st31{fill:#FFFFFF;}
	.st32{fill:#3C3530;}
	.st33{fill:none;stroke:#3C3430;stroke-miterlimit:9.7722;}
	.st34{fill:#3A3A2C;}
</style>
<rect x="2.5" y="130" class="st0" width="38.5" height="42.5"/>
<rect x="3.4" y="87.6" class="st1" width="36.6" height="42.3"/>
<rect x="3.4" y="636.8" class="st2" width="38" height="41.8"/>
<g>
	<g>
		<g>
			<g>
				<rect x="3" y="172.4" class="st3" width="37.3" height="42.7"/>
			</g>
		</g>
	</g>
</g>
<g>
	<g>
		<defs>
			<path id="SVGID_1_" d="M40.9,720.5c-0.5,3.9-10.1,8.5-18.5,8.5l0,0c-8.2,0.4-19.5-3.8-19.5-8.5V106.9c1.7-5.6,11.7-8.9,18.2-8.9
				l0,0c7.7,0,17.7,3.3,19.6,9.1L40.9,720.5L40.9,720.5z"/>
		</defs>
		<clipPath id="SVGID_00000096047538088520336090000001086250534381785759_">
			<use xlink:href="#SVGID_1_"  style="overflow:visible;"/>
		</clipPath>
	</g>
	<g>
		<defs>
			<path id="SVGID_00000040536787413165282180000001887011769083883140_" d="M40.9,720.5c-0.5,3.9-10.1,8.5-18.5,8.5l0,0
				c-8.2,0.4-19.5-3.8-19.5-8.5V106.9c1.7-5.6,11.7-8.9,18.2-8.9l0,0c7.7,0,17.7,3.3,19.6,9.1L40.9,720.5L40.9,720.5z"/>
		</defs>
		<clipPath id="SVGID_00000128457753918708805330000012068042702066412931_">
			<use xlink:href="#SVGID_00000040536787413165282180000001887011769083883140_"  style="overflow:visible;"/>
		</clipPath>
	</g>
	<g>
		<defs>
			<path id="SVGID_00000159434264846478835190000003653386078009951149_" d="M40.9,720.5c-0.5,3.9-10.1,8.5-18.5,8.5l0,0
				c-8.2,0.4-19.5-3.8-19.5-8.5V106.9c1.7-5.6,11.7-8.9,18.2-8.9l0,0c7.7,0,17.7,3.3,19.6,9.1L40.9,720.5L40.9,720.5z"/>
		</defs>
		<clipPath id="SVGID_00000068651802734200176470000009712929773411467956_">
			<use xlink:href="#SVGID_00000159434264846478835190000003653386078009951149_"  style="overflow:visible;"/>
		</clipPath>
	</g>
	<g>
		<defs>
			<path id="SVGID_00000027604122752599304120000017997875312379918729_" d="M40.9,720.5c-0.5,3.9-10.1,8.5-18.5,8.5l0,0
				c-8.2,0.4-19.5-3.8-19.5-8.5V103.7c1.7-5.6,11.7-5.8,18.2-5.8l0,0c7.7,0,17.7-0.7,19.6,5.2L40.9,720.5L40.9,720.5z"/>
		</defs>
		<clipPath id="SVGID_00000099634235549096061260000005290393783773602217_">
			<use xlink:href="#SVGID_00000027604122752599304120000017997875312379918729_"  style="overflow:visible;"/>
		</clipPath>
	</g>
	<g>
		<defs>
			<path id="SVGID_00000032643600239694870670000013523807147779166655_" d="M40.9,720.5L40.9,720.5c-0.5,3.9-10.1,8.5-18.5,8.5l0,0
				c-8.2,0.4-19.5-3.8-19.5-8.5l0.4-617c1.7-5.6,11.3-5.5,17.8-5.5l0,0"/>
		</defs>
		<clipPath id="SVGID_00000146463520796612298000000011443551636038850962_">
			<use xlink:href="#SVGID_00000032643600239694870670000013523807147779166655_"  style="overflow:visible;"/>
		</clipPath>
	</g>
	<g>
		<g>
			<g>
				<g>
					<rect x="2.7" y="215" class="st4" width="38.4" height="42.9"/>
				</g>
			</g>
		</g>
	</g>
	<g>
		<defs>
			<path id="SVGID_00000034787445562643836290000013713750950686311356_" d="M40.9,720.5c-0.5,3.9-10.1,8.5-18.5,8.5l0,0
				c-8.2,0.4-19.5-3.8-19.5-8.5L3.4,104c1.7-5.6,11.3-6,17.8-6l0,0c7.7,0,17.9-0.4,19.6,9.1L40.9,720.5L40.9,720.5z"/>
		</defs>
		<clipPath id="SVGID_00000015351099367840236160000010233842509857177002_">
			<use xlink:href="#SVGID_00000034787445562643836290000013713750950686311356_"  style="overflow:visible;"/>
		</clipPath>
		<g style="clip-path:url(#SVGID_00000015351099367840236160000010233842509857177002_);">
			<g>
				<g>
					<rect x="-26.6" y="257.5" class="st6" width="100.4" height="42.6"/>
				</g>
			</g>
		</g>
	</g>
	<g>
		<defs>
			<path id="SVGID_00000017494000983212933420000010590368265290634675_" d="M40.9,720.5c-0.5,3.9-10.1,8.5-18.5,8.5l0,0
				c-8.2,0.4-19.5-3.8-19.5-8.5l0.4-617c1.7-5.6,11.3-5.5,17.8-5.5l0,0c7.7,0,18-0.5,19.6,9.1L40.9,720.5L40.9,720.5z"/>
		</defs>
		<clipPath id="SVGID_00000091013600272360742610000005493467193452380048_">
			<use xlink:href="#SVGID_00000017494000983212933420000010590368265290634675_"  style="overflow:visible;"/>
		</clipPath>
		<g style="clip-path:url(#SVGID_00000091013600272360742610000005493467193452380048_);">
			<g>
				<g>
					<rect x="-22.1" y="300" class="st8" width="100.4" height="42.6"/>
				</g>
			</g>
		</g>
		<g style="clip-path:url(#SVGID_00000091013600272360742610000005493467193452380048_);">
			<g>
				<g>
					<rect x="-29.3" y="342" class="st9" width="100.4" height="42.6"/>
				</g>
			</g>
		</g>
	</g>
	<g>
		<defs>
			<path id="SVGID_00000148627248594011145460000004713292963194242691_" d="M40.8,107.1l0.2,613.4l0,0c-0.5,3.9-10.1,8.5-18.5,8.5
				l0,0c-8.2,0.4-19.5-3.8-19.5-8.5"/>
		</defs>
		<defs>
			<line id="SVGID_00000165953602661293194370000017913734029691266966_" x1="21.2" y1="97.9" x2="21.2" y2="97.9"/>
		</defs>
		<clipPath id="SVGID_00000085961682264235312720000013292935542814149817_">
			<use xlink:href="#SVGID_00000148627248594011145460000004713292963194242691_"  style="overflow:visible;"/>
		</clipPath>
		
			<clipPath id="SVGID_00000170260451625569081100000013039834714092969638_" style="clip-path:url(#SVGID_00000085961682264235312720000013292935542814149817_);">
			<use xlink:href="#SVGID_00000165953602661293194370000017913734029691266966_"  style="overflow:visible;"/>
		</clipPath>
		<g style="clip-path:url(#SVGID_00000170260451625569081100000013039834714092969638_);">
			<g>
				<g>
					<rect x="-22" y="311.8" class="st9" width="100.4" height="42.6"/>
				</g>
			</g>
		</g>
	</g>
	<g>
		<defs>
			<path id="SVGID_00000046326405263485167540000013069514731371986858_" d="M40.8,107.1l0.2,613.4l0,0c-0.5,3.9-10.1,8.5-18.5,8.5
				l0,0c-8.2,0.4-19.5-3.8-19.5-8.5V104.3c1.7-5.6,11.7-6.3,18.2-6.3l0,0"/>
		</defs>
		<clipPath id="SVGID_00000124855705016893607400000000614900262786325401_">
			<use xlink:href="#SVGID_00000046326405263485167540000013069514731371986858_"  style="overflow:visible;"/>
		</clipPath>
		<g style="clip-path:url(#SVGID_00000124855705016893607400000000614900262786325401_);">
			<g>
				<g>
					<rect x="-21.4" y="384.6" class="st13" width="100.4" height="42.6"/>
				</g>
			</g>
		</g>
	</g>
	<g>
		<defs>
			<path id="SVGID_00000147936685689227466740000010195613828871145642_" d="M40.9,720.5c-0.5,3.9-10.1,8.5-18.5,8.5l0,0
				c-8.2,0.4-19.5-3.8-19.5-8.5V103.7c1.7-5.6,11.7-5.8,18.2-5.8l0,0c7.7,0,18.2-0.4,19.6,9.1L40.9,720.5L40.9,720.5z"/>
		</defs>
		<clipPath id="SVGID_00000116929999084240195940000003978315133154933944_">
			<use xlink:href="#SVGID_00000147936685689227466740000010195613828871145642_"  style="overflow:visible;"/>
		</clipPath>
		<g style="clip-path:url(#SVGID_00000116929999084240195940000003978315133154933944_);">
			<g>
				<g>
					<rect x="-17.7" y="553.7" class="st15" width="100.4" height="42.6"/>
				</g>
			</g>
		</g>
	</g>
	<g>
		<defs>
			<path id="SVGID_00000105425566298458184930000012774678154209547424_" d="M40.9,720.5c-0.5,3.9-10.1,8.5-18.5,8.5l0,0
				c-8.2,0.4-19.5-3.8-19.5-8.5V103.7c1.7-5.6,11.7-5.8,18.2-5.8l0,0c7.7,0,18.2-0.9,19.6,9.1L40.9,720.5L40.9,720.5z"/>
		</defs>
		<clipPath id="SVGID_00000104688764965172436480000014564280243733029765_">
			<use xlink:href="#SVGID_00000105425566298458184930000012774678154209547424_"  style="overflow:visible;"/>
		</clipPath>
		<g style="clip-path:url(#SVGID_00000104688764965172436480000014564280243733029765_);">
			<g>
				<g>
					<rect x="-19.4" y="595.6" class="st17" width="100.4" height="42.6"/>
				</g>
			</g>
		</g>
	</g>
	<g>
		<defs>
			<path id="SVGID_00000085213314081424366700000017222547275495773312_" d="M40.9,720.5c-0.5,3.9-10.1,8.5-18.5,8.5l0,0
				c-8.2,0.4-19.5-3.8-19.5-8.5l0-613.6c-0.2-14.3,11.7-9.1,18.2-8.9l0,0c7.7,0,18.3-0.5,19.6,9.1L40.9,720.5L40.9,720.5z"/>
		</defs>
		<clipPath id="SVGID_00000112617572728343547050000014284518074045840063_">
			<use xlink:href="#SVGID_00000085213314081424366700000017222547275495773312_"  style="overflow:visible;"/>
		</clipPath>
		<g style="clip-path:url(#SVGID_00000112617572728343547050000014284518074045840063_);">
			<g>
				<g>
					<rect x="-9.9" y="678.7" class="st19" width="100.4" height="42.6"/>
				</g>
			</g>
		</g>
	</g>
	<g>
		<defs>
			<path id="SVGID_00000110457701396372440090000015523533140770920871_" d="M40.9,720.5c-0.5,3.9-10.4,3.3-18.8,3.3l0,0
				c-8.2,0.4-18.8,0.6-18.8-4.2V102.5c1.7-5.6,11.3-4.6,17.8-4.6l0,0c7.7,0,17.7,0.3,19.6,6.2L40.9,720.5L40.9,720.5z"/>
		</defs>
		<clipPath id="SVGID_00000029734534949770536800000011979587991758859948_">
			<use xlink:href="#SVGID_00000110457701396372440090000015523533140770920871_"  style="overflow:visible;"/>
		</clipPath>
		<g style="clip-path:url(#SVGID_00000029734534949770536800000011979587991758859948_);">
			<g>
				<g>
					<rect x="-20.1" y="678.7" class="st21" width="100.4" height="47.7"/>
				</g>
			</g>
		</g>
	</g>
	<g>
		<defs>
			<path id="SVGID_00000173152887832804997880000012986050032160982193_" d="M40.9,720.5c-0.5,3.9-10.4,3.3-18.8,3.3l0,0
				c-8.2,0.4-19.2,1.4-19.2-3.3l0.4-617c1.7-5.6,11.3-5.5,17.8-5.5l0,0c7.7,0,17.2,0.6,19.1,6.5L40.9,720.5L40.9,720.5z"/>
		</defs>
		<clipPath id="SVGID_00000042724784923454188960000011862586143660643201_">
			<use xlink:href="#SVGID_00000173152887832804997880000012986050032160982193_"  style="overflow:visible;"/>
		</clipPath>
		<g style="clip-path:url(#SVGID_00000042724784923454188960000011862586143660643201_);">
			<g>
				<g>
					<rect x="-21.4" y="426.3" class="st23" width="100.4" height="42.6"/>
				</g>
			</g>
		</g>
	</g>
	<g>
		<defs>
			<path id="SVGID_00000093160407927318689280000011520628111977276802_" d="M40.9,720.5c-0.5,3.9-10.4,3.3-18.8,3.3l0,0
				c-8.2,0.4-19.2,1.4-18.4-2.8V104.2c0.9-6.1,10.9-6.3,17.4-6.3l0,0c7.7,0,17.2,0.3,19,6.2L40.9,720.5L40.9,720.5z"/>
		</defs>
		<clipPath id="SVGID_00000107546329837002794560000007470733079844200581_">
			<use xlink:href="#SVGID_00000093160407927318689280000011520628111977276802_"  style="overflow:visible;"/>
		</clipPath>
		<g style="clip-path:url(#SVGID_00000107546329837002794560000007470733079844200581_);">
			<g>
				<g>
					<rect x="-21" y="468.9" class="st25" width="100.4" height="42.6"/>
				</g>
			</g>
		</g>
	</g>
	<g>
		<g>
			<g>
				<g>
					<rect x="3.5" y="511.6" class="st26" width="36.7" height="42.6"/>
				</g>
			</g>
		</g>
	</g>
</g>
<circle class="st27" cx="21.9" cy="21.8" r="19.8"/>
<rect x="8.6" y="680" class="st28" width="15.4" height="11.8"/>
<path class="st29" d="M34.1,723.8H9.6c-3.4,0-6.2-2.8-6.2-6.2V51.1c0-3.4,2.8-6.2,6.2-6.2h24.5c3.4,0,6.2,2.8,6.2,6.2v666.5
	C40.3,721,37.5,723.8,34.1,723.8z"/>
<g>
	<path class="st30" d="M23,672.8v7.9h-1.7v-6l-1.7,1.1l-0.8-1.2l2.6-1.7H23z"/>
</g>
<g>
	<path class="st30" d="M24.4,640.2h-5.1v-1.4l1.7-1.7c0.6-0.6,1-1.1,1.3-1.4s0.4-0.7,0.4-1s-0.1-0.6-0.3-0.8
		c-0.2-0.2-0.5-0.2-0.8-0.2c-0.5,0-1.1,0-1.8,0.1l-0.3,0l-0.1-1.3c0.8-0.2,1.6-0.4,2.4-0.4c1.7,0,2.5,0.8,2.5,2.3
		c0,0.6-0.1,1.1-0.4,1.5c-0.3,0.4-0.7,1-1.4,1.6l-1.4,1.2h3.3V640.2z"/>
</g>
<g>
	<path class="st31" d="M21.3,386.3h-5.1v-1.4l1.7-1.7c0.6-0.6,1-1.1,1.3-1.4c0.2-0.3,0.4-0.7,0.4-1s-0.1-0.6-0.3-0.8
		c-0.2-0.2-0.5-0.2-0.8-0.2c-0.5,0-1.1,0-1.8,0.1l-0.3,0l-0.1-1.3c0.8-0.2,1.6-0.4,2.4-0.4c1.7,0,2.5,0.8,2.5,2.3
		c0,0.6-0.1,1.1-0.4,1.5c-0.3,0.4-0.7,1-1.4,1.6l-1.4,1.2h3.3V386.3z"/>
	<path class="st31" d="M23.1,379.3c0.5-0.7,1.3-1,2.3-1c1,0,1.8,0.3,2.3,1s0.8,1.7,0.8,3.2s-0.3,2.5-0.8,3.1s-1.3,0.9-2.3,0.9
		c-1,0-1.8-0.3-2.3-0.9c-0.5-0.6-0.8-1.7-0.8-3.1S22.6,379.9,23.1,379.3z M26.8,382.4c0-1-0.1-1.7-0.3-2.1c-0.2-0.4-0.6-0.6-1-0.6
		s-0.8,0.2-1.1,0.6c-0.2,0.4-0.3,1.1-0.3,2.1c0,1,0.1,1.7,0.3,2.1s0.6,0.6,1.1,0.6s0.8-0.2,1-0.6S26.8,383.4,26.8,382.4z"/>
</g>
<g>
	<path class="st32" d="M20.7,342.8h-5.1v-1.4l1.7-1.7c0.6-0.6,1-1.1,1.3-1.4c0.2-0.3,0.4-0.7,0.4-1s-0.1-0.6-0.3-0.8
		c-0.2-0.2-0.5-0.2-0.8-0.2c-0.5,0-1.1,0-1.8,0.1l-0.3,0l-0.1-1.3c0.8-0.2,1.6-0.4,2.4-0.4c1.7,0,2.5,0.8,2.5,2.3
		c0,0.6-0.1,1.1-0.4,1.5c-0.3,0.4-0.7,1-1.4,1.6l-1.4,1.2h3.3V342.8z"/>
	<path class="st32" d="M27.4,334.9v1.4h-3.5l-0.2,1.7c0.5-0.2,1-0.3,1.4-0.3c1.7,0,2.6,0.8,2.6,2.4c0,0.9-0.2,1.6-0.7,2.1
		s-1.1,0.7-2,0.7c-0.4,0-0.8,0-1.3-0.1s-0.8-0.1-1.1-0.2l-0.4-0.1l0.2-1.2c1,0.2,1.8,0.2,2.4,0.2c0.4,0,0.7-0.1,0.9-0.3
		c0.2-0.2,0.3-0.5,0.3-0.9s-0.1-0.7-0.3-0.8s-0.4-0.3-0.7-0.3c-0.5,0-1,0.1-1.4,0.2l-0.2,0l-1-0.2l0.2-4.3H27.4z"/>
</g>
<g>
	<path class="st31" d="M19.1,260.5v-1.3h-3.4V258l2-5.4h1.8l-2.1,5.2h1.7v-2.2h1.7v2.2h0.8v1.4h-0.8v1.3H19.1z"/>
	<path class="st31" d="M23.1,253.4c0.5-0.7,1.3-1,2.3-1c1,0,1.8,0.3,2.3,1c0.5,0.7,0.8,1.7,0.8,3.2s-0.3,2.5-0.8,3.1
		c-0.5,0.6-1.3,0.9-2.3,0.9c-1,0-1.8-0.3-2.3-0.9s-0.8-1.7-0.8-3.1S22.5,254.1,23.1,253.4z M26.7,256.6c0-1-0.1-1.7-0.3-2.1
		c-0.2-0.4-0.6-0.6-1-0.6c-0.5,0-0.8,0.2-1.1,0.6c-0.2,0.4-0.3,1.1-0.3,2.1c0,1,0.1,1.7,0.3,2.1c0.2,0.4,0.6,0.6,1.1,0.6
		c0.5,0,0.8-0.2,1-0.6S26.7,257.6,26.7,256.6z"/>
</g>
<g>
	<path class="st31" d="M20.8,208.4v1.4h-3.5l-0.2,1.7c0.5-0.2,1-0.3,1.4-0.3c1.7,0,2.6,0.8,2.6,2.4c0,0.9-0.2,1.6-0.7,2.1
		c-0.5,0.5-1.1,0.7-2,0.7c-0.4,0-0.8,0-1.3-0.1c-0.5-0.1-0.8-0.1-1.1-0.2l-0.4-0.1l0.2-1.2c1,0.2,1.8,0.2,2.4,0.2
		c0.4,0,0.7-0.1,0.9-0.3c0.2-0.2,0.3-0.5,0.3-0.9s-0.1-0.7-0.3-0.8s-0.4-0.3-0.7-0.3c-0.5,0-1,0.1-1.4,0.2l-0.2,0l-1-0.2l0.2-4.3
		H20.8z"/>
	<path class="st31" d="M22.7,209.3c0.5-0.7,1.3-1,2.3-1c1,0,1.8,0.3,2.3,1c0.5,0.7,0.8,1.7,0.8,3.2s-0.3,2.5-0.8,3.1
		c-0.5,0.6-1.3,0.9-2.3,0.9c-1,0-1.8-0.3-2.3-0.9s-0.8-1.7-0.8-3.1S22.2,209.9,22.7,209.3z M26.3,212.4c0-1-0.1-1.7-0.3-2.1
		c-0.2-0.4-0.6-0.6-1-0.6c-0.5,0-0.8,0.2-1.1,0.6c-0.2,0.4-0.3,1.1-0.3,2.1c0,1,0.1,1.7,0.3,2.1c0.2,0.4,0.6,0.6,1.1,0.6
		c0.5,0,0.8-0.2,1-0.6S26.3,213.4,26.3,212.4z"/>
</g>
<g>
	<path class="st31" d="M15.9,169.2v-1.5H21v1.9l-2.8,6.2l-1.5-0.4l2.7-5.8v-0.4H15.9z"/>
	<path class="st31" d="M27.7,167.7v1.4h-3.5l-0.2,1.7c0.5-0.2,1-0.3,1.4-0.3c1.7,0,2.6,0.8,2.6,2.4c0,0.9-0.2,1.6-0.7,2.1
		s-1.1,0.7-2,0.7c-0.4,0-0.8,0-1.3-0.1s-0.8-0.1-1.1-0.2l-0.4-0.1l0.2-1.2c1,0.2,1.8,0.2,2.4,0.2c0.4,0,0.7-0.1,0.9-0.3
		c0.2-0.2,0.3-0.5,0.3-0.9s-0.1-0.7-0.3-0.8s-0.4-0.3-0.7-0.3c-0.5,0-1,0.1-1.4,0.2l-0.2,0l-1-0.2l0.2-4.3H27.7z"/>
</g>
<line class="st33" x1="3.7" y1="678.6" x2="16.6" y2="678.6"/>
<line class="st33" x1="39.4" y1="678.6" x2="25.7" y2="678.6"/>
<line class="st33" x1="3.1" y1="637.7" x2="17" y2="637.7"/>
<line class="st33" x1="39.3" y1="638.1" x2="25.9" y2="638.1"/>
<line class="st33" x1="3.8" y1="384.1" x2="16.5" y2="384.1"/>
<line class="st33" x1="40.5" y1="384.2" x2="29.3" y2="384.2"/>
<line class="st33" x1="4.2" y1="340.7" x2="15" y2="340.7"/>
<line class="st33" x1="40.1" y1="340.7" x2="29.1" y2="340.7"/>
<line class="st33" x1="15.8" y1="257.1" x2="3.3" y2="257.1"/>
<line class="st33" x1="39.8" y1="257.3" x2="28.8" y2="257.3"/>
<line class="st33" x1="3.4" y1="214.6" x2="15.3" y2="214.6"/>
<line class="st33" x1="39.9" y1="214.6" x2="28.8" y2="214.6"/>
<line class="st33" x1="4.4" y1="172.4" x2="12.4" y2="172.4"/>
<line class="st33" x1="31.3" y1="172.4" x2="39.3" y2="172.4"/>
<g>
	<path class="st31" d="M36.9,22.8v-0.1c0-7.5-6.2-13.7-13.9-14.1V7.3c0-0.3-0.3-0.7-0.8-0.7s-0.8,0.3-0.8,0.7v1.3
		C13.6,8.9,7.4,15.1,7.4,22.7c0,0.3,0.3,0.7,0.8,0.7c0.2,0,0.3-0.1,0.6-0.2c2.5-2.3,5.8-2.3,8.2,0c0.1,0.1,0.3,0.2,0.6,0.2
		c0.2,0,0.3-0.1,0.5-0.2c1-0.9,2.2-1.5,3.4-1.6v9.8c0,1.9,1.7,3.7,3.8,3.7s3.8-1.6,3.8-3.7c0-0.3-0.3-0.7-0.8-0.7s-0.8,0.3-0.8,0.7
		c0,1.1-1,2.2-2.3,2.2c-1.3,0-2.3-1-2.3-2.2v-9.8c1.1,0.1,2.4,0.7,3.4,1.6c0.2,0.2,0.8,0.2,1,0c2.5-2.3,5.8-2.3,8.3,0
		c0.2,0.2,0.7,0.2,0.9,0.1C36.8,23.1,36.9,23,36.9,22.8z M26.1,21.3c-1.3-0.8-2.6-1.3-4-1.3H22h-0.1c-1.4,0-2.7,0.5-4,1.3
		c-0.3-4.9,0.9-8.8,2.5-10.5c1-1.1,2.1-1.1,3.2,0C25.2,12.5,26.6,16.3,26.1,21.3z M9,21.1c0.7-5.4,4.8-9.6,10-10.8
		c-1.5,1.9-2.9,5.7-2.5,10.8C14.3,19.7,11.4,19.7,9,21.1z M27.7,21.1c0.3-5.1-1-8.9-2.5-10.8c5.4,1.3,9.4,5.5,10,10.8
		C32.9,19.7,30.1,19.7,27.7,21.1z"/>
</g>
<g>
	<path class="st30" d="M21.7,597.7v-1.3h-3.4v-1.3l2-5.4h1.8L20,595h1.7v-2.2h1.7v2.2h0.8v1.4h-0.8v1.3H21.7z"/>
</g>
<line class="st33" x1="3.1" y1="595.2" x2="17" y2="595.2"/>
<line class="st33" x1="39.5" y1="595.2" x2="26.1" y2="595.2"/>
<g>
	<path class="st30" d="M24.9,550.4c-0.8-0.1-1.5-0.2-2.1-0.2c-1.1,0-1.7,0.6-1.7,1.8l0.3-0.1c0.5-0.2,0.9-0.2,1.3-0.2
		c0.9,0,1.6,0.2,2,0.6s0.7,1.1,0.7,1.9s-0.3,1.5-0.8,2c-0.5,0.4-1.3,0.7-2.2,0.7c-1,0-1.7-0.4-2.2-1.1s-0.7-1.8-0.7-3.1
		s0.3-2.4,0.9-3c0.6-0.7,1.4-1,2.4-1c0.6,0,1.3,0.1,2,0.3l0.4,0.1L24.9,550.4z M22.5,553.2c-0.4,0-0.8,0.1-1.2,0.2l-0.2,0.1
		c0,1.4,0.4,2.1,1.3,2.1c0.4,0,0.7-0.1,0.9-0.3s0.3-0.5,0.3-0.9C23.6,553.6,23.2,553.2,22.5,553.2z"/>
</g>
<line class="st33" x1="3.6" y1="554" x2="17.5" y2="554"/>
<line class="st33" x1="40" y1="554" x2="26.6" y2="554"/>
<g>
	<path class="st31" d="M20,506.2c0.5-0.4,1.2-0.6,2.1-0.6s1.6,0.2,2.1,0.6c0.5,0.4,0.8,0.9,0.8,1.6c0,0.5-0.1,0.8-0.2,1
		c-0.1,0.2-0.3,0.5-0.7,0.8c0.4,0.3,0.6,0.6,0.8,0.8c0.2,0.3,0.2,0.6,0.2,1.1c0,0.8-0.3,1.4-0.8,1.7s-1.3,0.6-2.2,0.6
		c-2,0-3-0.7-3-2.2c0-0.5,0.1-0.9,0.2-1.2s0.4-0.6,0.8-0.9c-0.3-0.3-0.6-0.5-0.7-0.8s-0.2-0.6-0.2-1C19.3,507.2,19.5,506.6,20,506.2
		z M20.9,511.3c0,0.7,0.4,1.1,1.2,1.1s1.2-0.4,1.2-1.1c0-0.4-0.2-0.7-0.7-0.9h-1.1C21.1,510.6,20.9,510.9,20.9,511.3z M22.1,507.2
		c-0.4,0-0.6,0.1-0.8,0.2s-0.3,0.4-0.3,0.7s0.2,0.6,0.6,0.9h1.1c0.4-0.3,0.6-0.6,0.6-0.9C23.3,507.5,22.9,507.2,22.1,507.2z"/>
</g>
<line class="st33" x1="4.1" y1="511.2" x2="18" y2="511.2"/>
<line class="st33" x1="40" y1="511.2" x2="26.6" y2="511.2"/>
<g>
	<path class="st31" d="M19.7,463.7v7.9H18v-6l-1.7,1.1l-0.8-1.2l2.6-1.7H19.7z"/>
	<path class="st31" d="M22.4,464.5c0.5-0.7,1.3-1,2.3-1c1,0,1.8,0.3,2.3,1c0.5,0.7,0.8,1.7,0.8,3.2s-0.3,2.5-0.8,3.1
		c-0.5,0.6-1.3,0.9-2.3,0.9c-1,0-1.8-0.3-2.3-0.9s-0.8-1.7-0.8-3.1S21.9,465.2,22.4,464.5z M26.1,467.7c0-1-0.1-1.7-0.3-2.1
		c-0.2-0.4-0.6-0.6-1-0.6c-0.5,0-0.8,0.2-1.1,0.6c-0.2,0.4-0.3,1.1-0.3,2.1c0,1,0.1,1.7,0.3,2.1c0.2,0.4,0.6,0.6,1.1,0.6
		c0.5,0,0.8-0.2,1-0.6S26.1,468.7,26.1,467.7z"/>
</g>
<line class="st33" x1="3" y1="468.5" x2="15.3" y2="468.5"/>
<line class="st33" x1="39.4" y1="468.5" x2="28.8" y2="468.5"/>
<g>
	<path class="st31" d="M19.7,421.9v7.9H18v-6l-1.7,1.1l-0.8-1.2l2.6-1.7H19.7z"/>
	<path class="st31" d="M27.2,421.9v1.4h-3.5l-0.2,1.7c0.5-0.2,1-0.3,1.4-0.3c1.7,0,2.6,0.8,2.6,2.4c0,0.9-0.2,1.6-0.7,2.1
		c-0.5,0.5-1.1,0.7-2,0.7c-0.4,0-0.8,0-1.3-0.1c-0.5-0.1-0.8-0.1-1.1-0.2l-0.4-0.1l0.2-1.2c1,0.2,1.8,0.2,2.4,0.2
		c0.4,0,0.7-0.1,0.9-0.3c0.2-0.2,0.3-0.5,0.3-0.9s-0.1-0.7-0.3-0.8s-0.4-0.3-0.7-0.3c-0.5,0-1,0.1-1.4,0.2l-0.2,0l-1-0.2l0.2-4.3
		H27.2z"/>
</g>
<line class="st33" x1="3.5" y1="426.7" x2="15.8" y2="426.7"/>
<line class="st33" x1="39.9" y1="426.7" x2="29.3" y2="426.7"/>
<g>
	<path class="st31" d="M15.7,294c0.7-0.3,1.6-0.4,2.5-0.4s1.6,0.2,2,0.5s0.6,0.9,0.6,1.7c0,0.8-0.3,1.4-0.9,1.8
		c0.4,0.2,0.7,0.4,0.8,0.6s0.2,0.6,0.2,1.1c0,0.9-0.2,1.5-0.6,1.9c-0.4,0.4-1.1,0.6-2.1,0.6c-0.7,0-1.4-0.1-2.2-0.3l-0.4-0.1
		l0.1-1.3c0.9,0.2,1.6,0.2,2.3,0.2c0.8,0,1.2-0.4,1.2-1.1c0-0.3-0.1-0.5-0.3-0.7c-0.2-0.2-0.5-0.3-0.8-0.3h-1.6V297h1.6
		c0.3,0,0.5-0.1,0.7-0.3c0.2-0.2,0.3-0.5,0.3-0.7c0-0.6-0.4-0.9-1.2-0.9c-0.6,0-1.1,0.1-1.8,0.2l-0.3,0L15.7,294z"/>
	<path class="st31" d="M22.8,294.6c0.5-0.7,1.3-1,2.3-1c1,0,1.8,0.3,2.3,1s0.8,1.7,0.8,3.2s-0.3,2.5-0.8,3.1s-1.3,0.9-2.3,0.9
		c-1,0-1.8-0.3-2.3-0.9c-0.5-0.6-0.8-1.7-0.8-3.1S22.3,295.2,22.8,294.6z M26.4,297.7c0-1-0.1-1.7-0.3-2.1c-0.2-0.4-0.6-0.6-1-0.6
		s-0.8,0.2-1.1,0.6c-0.2,0.4-0.3,1.1-0.3,2.1c0,1,0.1,1.7,0.3,2.1s0.6,0.6,1.1,0.6s0.8-0.2,1-0.6S26.4,298.7,26.4,297.7z"/>
</g>
<line class="st33" x1="4.4" y1="299.5" x2="15.2" y2="299.5"/>
<line class="st33" x1="40.2" y1="299.5" x2="29.3" y2="299.5"/>
<g>
	<path class="st30" d="M14.7,719.7h-1.6v-6h1.6v0.3c0.6-0.3,1-0.5,1.4-0.5c0.6,0,1.1,0.2,1.5,0.6c0.7-0.4,1.4-0.6,2-0.6
		c0.8,0,1.3,0.2,1.7,0.7c0.3,0.5,0.5,1.2,0.5,2.2v3.3h-1.6v-3.2c0-0.5-0.1-0.9-0.2-1.1c-0.1-0.2-0.3-0.4-0.7-0.4
		c-0.3,0-0.6,0.1-0.9,0.2l-0.2,0.1c0,0.6,0,1.1,0,1.4v3.1h-1.6v-3.1c0-0.6-0.1-1-0.2-1.3c-0.1-0.2-0.3-0.4-0.7-0.4
		c-0.3,0-0.6,0.1-0.9,0.2l-0.1,0V719.7z"/>
	<path class="st30" d="M24.7,719.7h-1.6v-6h1.6v0.3c0.6-0.3,1-0.5,1.4-0.5c0.6,0,1.1,0.2,1.5,0.6c0.7-0.4,1.4-0.6,2-0.6
		c0.8,0,1.3,0.2,1.6,0.7c0.3,0.5,0.5,1.2,0.5,2.2v3.3h-1.6v-3.2c0-0.5-0.1-0.9-0.2-1.1c-0.1-0.2-0.3-0.4-0.7-0.4
		c-0.3,0-0.6,0.1-0.9,0.2l-0.2,0.1c0,0.6,0,1.1,0,1.4v3.1h-1.6v-3.1c0-0.6-0.1-1-0.2-1.3c-0.1-0.2-0.3-0.4-0.7-0.4
		c-0.3,0-0.6,0.1-0.9,0.2l-0.1,0V719.7z"/>
</g>
<path class="st34" d="M39.4,87.9H4.9c-0.3,0-0.6-0.3-0.6-0.6V48.1c0-1.5,1.2-2.7,2.7-2.7h28.8c2.3,0,4.2,1.9,4.2,4.2v37.7
	C40,87.6,39.8,87.9,39.4,87.9z"/>
<g>
	<path class="st31" d="M16.4,126.3v7.9h-1.7v-6l-1.7,1.1l-0.8-1.2l2.6-1.7H16.4z"/>
	<path class="st31" d="M19.2,127.1c0.5-0.7,1.3-1,2.3-1c1,0,1.8,0.3,2.3,1s0.8,1.7,0.8,3.2s-0.3,2.5-0.8,3.1s-1.3,0.9-2.3,0.9
		c-1,0-1.8-0.3-2.3-0.9c-0.5-0.6-0.8-1.7-0.8-3.1S18.7,127.8,19.2,127.1z M22.9,130.3c0-1-0.1-1.7-0.3-2.1c-0.2-0.4-0.6-0.6-1-0.6
		s-0.8,0.2-1.1,0.6c-0.2,0.4-0.3,1.1-0.3,2.1c0,1,0.1,1.7,0.3,2.1s0.6,0.6,1.1,0.6s0.8-0.2,1-0.6S22.9,131.2,22.9,130.3z"/>
	<path class="st31" d="M25.9,127.1c0.5-0.7,1.3-1,2.3-1c1,0,1.8,0.3,2.3,1s0.8,1.7,0.8,3.2s-0.3,2.5-0.8,3.1s-1.3,0.9-2.3,0.9
		c-1,0-1.8-0.3-2.3-0.9c-0.5-0.6-0.8-1.7-0.8-3.1S25.4,127.8,25.9,127.1z M29.6,130.3c0-1-0.1-1.7-0.3-2.1c-0.2-0.4-0.6-0.6-1-0.6
		s-0.8,0.2-1.1,0.6c-0.2,0.4-0.3,1.1-0.3,2.1c0,1,0.1,1.7,0.3,2.1s0.6,0.6,1.1,0.6s0.8-0.2,1-0.6S29.6,131.2,29.6,130.3z"/>
</g>
<line class="st33" x1="4.5" y1="130.2" x2="12.6" y2="130.2"/>
<line class="st33" x1="32.3" y1="130.3" x2="40.3" y2="130.3"/>
<g>
	<path class="st31" d="M11.6,86.5l-3.1-1.2v-1.6l4.9,2.2v1.3l-4.9,2.2v-1.6L11.6,86.5z"/>
	<path class="st31" d="M20,89.5h-5.1v-1.4l1.7-1.7c0.6-0.6,1-1.1,1.3-1.4c0.2-0.3,0.4-0.7,0.4-1s-0.1-0.6-0.3-0.8
		c-0.2-0.2-0.5-0.2-0.8-0.2c-0.5,0-1.1,0-1.8,0.1l-0.3,0l-0.1-1.3c0.8-0.2,1.6-0.4,2.4-0.4c1.7,0,2.5,0.8,2.5,2.3
		c0,0.6-0.1,1.1-0.4,1.5c-0.3,0.4-0.7,1-1.4,1.6l-1.4,1.2H20V89.5z"/>
	<path class="st31" d="M21.9,82.4c0.5-0.7,1.3-1,2.3-1c1,0,1.8,0.3,2.3,1s0.8,1.7,0.8,3.2s-0.3,2.5-0.8,3.1s-1.3,0.9-2.3,0.9
		c-1,0-1.8-0.3-2.3-0.9c-0.5-0.6-0.8-1.7-0.8-3.1S21.4,83.1,21.9,82.4z M25.5,85.6c0-1-0.1-1.7-0.3-2.1c-0.2-0.4-0.6-0.6-1-0.6
		s-0.8,0.2-1.1,0.6c-0.2,0.4-0.3,1.1-0.3,2.1c0,1,0.1,1.7,0.3,2.1s0.6,0.6,1.1,0.6s0.8-0.2,1-0.6S25.5,86.6,25.5,85.6z"/>
	<path class="st31" d="M28.6,82.4c0.5-0.7,1.3-1,2.3-1c1,0,1.8,0.3,2.3,1s0.8,1.7,0.8,3.2s-0.3,2.5-0.8,3.1s-1.3,0.9-2.3,0.9
		c-1,0-1.8-0.3-2.3-0.9c-0.5-0.6-0.8-1.7-0.8-3.1S28.1,83.1,28.6,82.4z M32.3,85.6c0-1-0.1-1.7-0.3-2.1c-0.2-0.4-0.6-0.6-1-0.6
		s-0.8,0.2-1.1,0.6c-0.2,0.4-0.3,1.1-0.3,2.1c0,1,0.1,1.7,0.3,2.1s0.6,0.6,1.1,0.6s0.8-0.2,1-0.6C32.2,87.3,32.3,86.6,32.3,85.6z"/>
</g>
<line class="st33" x1="2.9" y1="87.4" x2="8.4" y2="87.4"/>
<line class="st33" x1="34.9" y1="87.3" x2="39.4" y2="87.3"/>
<rect x="8.5" y="678.7" class="st28" width="15.4" height="12.1"/>
<path class="st29" d="M34,723.7H9.5c-3.4,0-6.2-3-6.2-6.7V51.2c0-3.7,2.8-6.7,6.2-6.7H34c3.4,0,6.2,3,6.2,6.7V717
	C40.2,720.7,37.4,723.7,34,723.7z"/>
<g>
	<path class="st32" d="M16.2,46.8v8.1h-1.7v-6.2l-1.7,1.1L12,48.6l2.6-1.7L16.2,46.8L16.2,46.8z"/>
	<path class="st32" d="M18.9,47.6c0.5-0.7,1.3-1,2.3-1s1.8,0.3,2.3,1s0.8,1.7,0.8,3.3c0,1.5-0.3,2.6-0.8,3.2S22.2,55,21.2,55
		s-1.8-0.3-2.3-0.9s-0.8-1.7-0.8-3.2S18.4,48.3,18.9,47.6z M22.6,50.8c0-1-0.1-1.7-0.3-2.2c-0.2-0.4-0.6-0.6-1-0.6
		c-0.5,0-0.8,0.2-1.1,0.6c-0.2,0.4-0.3,1.1-0.3,2.2c0,1,0.1,1.7,0.3,2.2c0.2,0.4,0.6,0.6,1.1,0.6s0.8-0.2,1-0.6
		C22.5,52.6,22.6,51.8,22.6,50.8z"/>
	<path class="st32" d="M25.7,47.6c0.5-0.7,1.3-1,2.3-1s1.8,0.3,2.3,1s0.8,1.7,0.8,3.3c0,1.5-0.3,2.6-0.8,3.2S29,55,28,55
		s-1.8-0.3-2.3-0.9s-0.8-1.7-0.8-3.2S25.1,48.3,25.7,47.6z M29.3,50.8c0-1-0.1-1.7-0.3-2.2c-0.2-0.4-0.6-0.6-1-0.6
		c-0.5,0-0.8,0.2-1.1,0.6c-0.2,0.4-0.3,1.1-0.3,2.2c0,1,0.1,1.7,0.3,2.2c0.2,0.4,0.6,0.6,1.1,0.6s0.8-0.2,1-0.6
		C29.2,52.6,29.3,51.8,29.3,50.8z"/>
</g>
</svg>
