<?xml version="1.0" encoding="utf-8"?>
<!-- Generator: Adobe Illustrator 28.0.0, SVG Export Plug-In . SVG Version: 6.00 Build 0)  -->
<svg version="1.1" id="Livello_1" xmlns="http://www.w3.org/2000/svg" xmlns:xlink="http://www.w3.org/1999/xlink" x="0px" y="0px"
	width="38px" height="644px" viewBox="0 0 37.2 644.1" style="enable-background:new 0 0 37.2 644.1;" xml:space="preserve">
<style type="text/css">
	.st0{fill:none;stroke:#3C3430;stroke-width:3;stroke-miterlimit:10;}
	.st1{fill:#FFFFFF;}
	.st2{clip-path:url(#SVGID_00000176010417141199812440000014274898607556232378_);}
	.st3{fill:#6E0E04;}
	.st4{fill:#961405;}
	.st5{fill:#E22208;}
	.st6{fill:#E86411;}
	.st7{fill:#E1D52D;}
	.st8{fill:#F7EC31;}
	.st9{fill:#173A62;}
	.st10{fill:#79AADE;}
	.st11{fill:#9CC1E7;}
	.st12{fill:#BDD5EF;}
	.st13{fill:#DEEAF7;}
	.st14{fill:#235A95;}
	.st15{fill:#2E6FB8;}
	.st16{fill:#548ECE;}
	.st17{fill:none;stroke:#3B3330;stroke-width:3;stroke-miterlimit:10;}
	.st18{fill:none;}
	.st19{enable-background:new    ;}
	.st20{fill:#3B3330;}
	.st21{fill:#39322E;}
	.st22{clip-path:url(#SVGID_00000057131330712496811370000014607485755331123586_);}
</style>
<path class="st0" d="M30.6,632.7c-0.3,3.7-6.4,8.1-11.7,8.1l0,0c-5.2,0.4-12.3-3.6-12.3-8.1V48.6c1.1-5.3,7.4-8.5,11.5-8.5l0,0
	c4.9,0,11.2,3.1,12.4,8.7L30.6,632.7L30.6,632.7z"/>
<g>
	<g>
		<path class="st1" d="M19.1,82.6h-1.4v1.8h-1.4v-1.8h-4.4v-1l3.9-5.1h1.6l-3.7,4.8h2.6v-1.6h1.4v1.6h1.4V82.6z"/>
		<path class="st1" d="M25.4,83.2v1.2h-5.8v-1l3.1-3c0.4-0.3,0.6-0.6,0.7-0.9s0.2-0.5,0.2-0.7c0-0.4-0.1-0.6-0.4-0.8
			c-0.2-0.2-0.6-0.3-1.1-0.3c-0.8,0-1.4,0.3-1.8,0.8l-1-0.8c0.3-0.4,0.7-0.7,1.2-1c0.5-0.2,1.1-0.3,1.8-0.3c0.9,0,1.5,0.2,2.1,0.6
			c0.5,0.4,0.8,1,0.8,1.7c0,0.4-0.1,0.8-0.3,1.2s-0.5,0.8-1,1.3l-2.1,2L25.4,83.2L25.4,83.2z"/>
	</g>
</g>
<g>
	<defs>
		<path id="SVGID_00000004543606542485498970000006995546261959119243_" d="M31.1,632.9c-0.3,3.7-6.4,8.1-11.7,8.1l0,0
			c-5.2,0.4-12.3-3.6-12.3-8.1V48.8c1.1-5.3,7.4-8.5,11.5-8.5l0,0c4.9,0,11.2,3.1,12.4,8.7L31.1,632.9L31.1,632.9z"/>
	</defs>
	<clipPath id="SVGID_00000135673455507144501030000012233177712206698902_">
		<use xlink:href="#SVGID_00000004543606542485498970000006995546261959119243_"  style="overflow:visible;"/>
	</clipPath>
	<g style="clip-path:url(#SVGID_00000135673455507144501030000012233177712206698902_);">
		<g>
			<g>
				<defs>
					<path id="SVGID_00000171707793770690418650000003079326749343751075_" d="M37,633c-0.5,4.7-8.1,10.4-14.7,10.4l0,0
						c-6.6,0.5-15.6-4.6-15.6-10.4v-743.1c1.5-6.9,9.3-10.8,14.6-10.8l0,0c6.1,0,14.2,4.1,15.7,11V633L37,633z"/>
				</defs>
				<clipPath id="SVGID_00000114050355479883081500000008198753186080086935_">
					<use xlink:href="#SVGID_00000171707793770690418650000003079326749343751075_"  style="overflow:visible;"/>
				</clipPath>
			</g>
		</g>
	</g>
	<g style="clip-path:url(#SVGID_00000135673455507144501030000012233177712206698902_);">
		<g>
			<g>
				<defs>
					<path id="SVGID_00000056425430016186614600000010149147607005557911_" d="M37,633c-0.5,4.7-8.1,10.4-14.7,10.4l0,0
						c-6.6,0.5-15.6-4.6-15.6-10.4v-743.1c1.5-6.9,9.3-10.8,14.6-10.8l0,0c6.1,0,14.2,4.1,15.7,11V633L37,633z"/>
				</defs>
				<clipPath id="SVGID_00000127017207100064249750000013104575967372008356_">
					<use xlink:href="#SVGID_00000056425430016186614600000010149147607005557911_"  style="overflow:visible;"/>
				</clipPath>
			</g>
		</g>
	</g>
	<g style="clip-path:url(#SVGID_00000135673455507144501030000012233177712206698902_);">
		<g>
			<g>
				<defs>
					<path id="SVGID_00000099635135764892225710000010454017166223153313_" d="M37,633c-0.5,4.7-8.1,10.4-14.7,10.4l0,0
						c-6.6,0.5-15.6-4.6-15.6-10.4v-743.1c1.5-6.9,9.3-10.8,14.6-10.8l0,0c6.1,0,14.2,4.1,15.7,11V633L37,633z"/>
				</defs>
				<clipPath id="SVGID_00000019678950993392073530000017095420721648756884_">
					<use xlink:href="#SVGID_00000099635135764892225710000010454017166223153313_"  style="overflow:visible;"/>
				</clipPath>
			</g>
		</g>
	</g>
	<g style="clip-path:url(#SVGID_00000135673455507144501030000012233177712206698902_);">
		<g>
			<g>
				<rect x="-9.3" y="41.1" class="st3" width="63.5" height="40.6"/>
			</g>
		</g>
	</g>
	<g style="clip-path:url(#SVGID_00000135673455507144501030000012233177712206698902_);">
		<g>
			<g>
				<rect x="-9.3" y="81.7" class="st4" width="63.5" height="40.6"/>
			</g>
		</g>
	</g>
	<g style="clip-path:url(#SVGID_00000135673455507144501030000012233177712206698902_);">
		<g>
			<g>
				<rect x="-9.3" y="122.3" class="st5" width="63.5" height="40.6"/>
			</g>
		</g>
	</g>
	<g style="clip-path:url(#SVGID_00000135673455507144501030000012233177712206698902_);">
		<g>
			<g>
				<rect x="-9.3" y="162.8" class="st6" width="63.5" height="40.6"/>
			</g>
		</g>
	</g>
	<g style="clip-path:url(#SVGID_00000135673455507144501030000012233177712206698902_);">
		<g>
			<g>
				<rect x="-8.7" y="203.4" class="st7" width="63.5" height="40.6"/>
			</g>
		</g>
	</g>
	<g style="clip-path:url(#SVGID_00000135673455507144501030000012233177712206698902_);">
		<g>
			<g>
				<rect x="-8.7" y="243.9" class="st8" width="63.5" height="40.6"/>
			</g>
		</g>
	</g>
	<g style="clip-path:url(#SVGID_00000135673455507144501030000012233177712206698902_);">
		<g>
			<g>
				<rect x="-8.7" y="284.5" class="st9" width="63.5" height="40.6"/>
			</g>
		</g>
	</g>
	<g style="clip-path:url(#SVGID_00000135673455507144501030000012233177712206698902_);">
		<g>
			<g>
				<rect x="-7.9" y="446.8" class="st10" width="63.5" height="40.6"/>
			</g>
		</g>
	</g>
	<g style="clip-path:url(#SVGID_00000135673455507144501030000012233177712206698902_);">
		<g>
			<g>
				<rect x="-7.9" y="487.3" class="st11" width="63.5" height="40.6"/>
			</g>
		</g>
	</g>
	<g style="clip-path:url(#SVGID_00000135673455507144501030000012233177712206698902_);">
		<g>
			<g>
				<rect x="-7.3" y="527.9" class="st12" width="63.5" height="40.6"/>
			</g>
		</g>
	</g>
	<g style="clip-path:url(#SVGID_00000135673455507144501030000012233177712206698902_);">
		<g>
			<g>
				<rect x="-7.3" y="568.4" class="st13" width="63.5" height="75.1"/>
			</g>
		</g>
	</g>
	<g style="clip-path:url(#SVGID_00000135673455507144501030000012233177712206698902_);">
		<g>
			<g>
				<rect x="-7.9" y="325.1" class="st14" width="63.5" height="40.6"/>
			</g>
		</g>
	</g>
	<g style="clip-path:url(#SVGID_00000135673455507144501030000012233177712206698902_);">
		<g>
			<g>
				<rect x="-7.9" y="365.6" class="st15" width="63.5" height="40.6"/>
			</g>
		</g>
	</g>
	<g style="clip-path:url(#SVGID_00000135673455507144501030000012233177712206698902_);">
		<g>
			<g>
				<rect x="-7.9" y="406.2" class="st16" width="63.5" height="40.6"/>
			</g>
		</g>
	</g>
</g>
<path class="st17" d="M30.6,634.3c-0.2,3.1-6.4,8.2-11.6,8.2l0,0c-5.2,0.4-12.3-3.6-12.3-8.2V48.8c1.2-5.4,7.3-8.5,11.5-8.5l0,0
	c4.8,0,11.2,3.2,12.4,8.7V634.3L30.6,634.3z"/>
<rect x="6.6" y="83.6" class="st18" width="23.9" height="11.5"/>
<rect x="6.6" y="117.3" class="st18" width="23.9" height="11.5"/>
<rect x="6.6" y="180" class="st18" width="23.9" height="11.5"/>
<rect x="7" y="213" class="st18" width="23.9" height="11.5"/>
<rect x="6.9" y="244.2" class="st18" width="23.9" height="11.5"/>
<rect x="7" y="275.9" class="st18" width="23.9" height="11.5"/>
<rect x="7" y="307.7" class="st18" width="23.9" height="11.5"/>
<rect x="7" y="338.8" class="st18" width="23.9" height="11.5"/>
<rect x="7" y="369.7" class="st18" width="23.9" height="11.5"/>
<rect x="6.6" y="402.8" class="st18" width="23.9" height="11.5"/>
<rect x="7" y="434.7" class="st18" width="23.9" height="11.5"/>
<rect x="7" y="467.5" class="st18" width="23.9" height="11.5"/>
<rect x="5.9" y="498.5" class="st18" width="23.9" height="11.5"/>
<rect x="7" y="530" class="st18" width="23.9" height="11.5"/>
<rect x="5.9" y="561.7" class="st18" width="23.9" height="11.5"/>
<rect x="7" y="594" class="st18" width="23.9" height="11.4"/>
<rect x="-2.7" y="618.7" class="st18" width="39.7" height="18.7"/>
<g class="st19">
	<path d="M17.7,624.3c0.3,0.3,0.5,0.8,0.5,1.4v2.4h-1v-2.3c0-0.4-0.1-0.6-0.3-0.8s-0.4-0.3-0.7-0.3c-0.3,0-0.6,0.1-0.8,0.3
		s-0.3,0.5-0.3,0.9v2.1h-1v-2.3c0-0.4-0.1-0.6-0.3-0.8s-0.4-0.3-0.7-0.3s-0.6,0.1-0.8,0.3s-0.3,0.5-0.3,0.9v2.1h-1v-4.2h1v0.5
		c0.2-0.2,0.4-0.3,0.6-0.4c0.2-0.1,0.5-0.1,0.8-0.1s0.6,0.1,0.9,0.2c0.3,0.1,0.5,0.3,0.6,0.5c0.2-0.2,0.4-0.4,0.7-0.5
		s0.6-0.2,0.9-0.2C17,623.8,17.4,624,17.7,624.3z"/>
	<path d="M26.3,624.3c0.3,0.3,0.5,0.8,0.5,1.4v2.4h-1v-2.3c0-0.4-0.1-0.6-0.3-0.8c-0.2-0.2-0.4-0.3-0.7-0.3c-0.3,0-0.6,0.1-0.8,0.3
		c-0.2,0.2-0.3,0.5-0.3,0.9v2.1h-1v-2.3c0-0.4-0.1-0.6-0.3-0.8s-0.4-0.3-0.7-0.3c-0.3,0-0.6,0.1-0.8,0.3c-0.2,0.2-0.3,0.5-0.3,0.9
		v2.1h-1v-4.2h1v0.5c0.2-0.2,0.4-0.3,0.6-0.4c0.2-0.1,0.5-0.1,0.8-0.1s0.6,0.1,0.9,0.2c0.3,0.1,0.5,0.3,0.6,0.5
		c0.2-0.2,0.4-0.4,0.7-0.5c0.3-0.1,0.6-0.2,0.9-0.2C25.5,623.8,26,624,26.3,624.3z"/>
</g>
<g>
	<path class="st20" d="M19,590.2v7.7h-1.4v-6.5H16v-1.2H19z"/>
</g>
<g>
	<path class="st20" d="M22.1,552.8v1.2h-5.7v-1l3.1-2.9c0.3-0.3,0.6-0.6,0.7-0.9c0.1-0.2,0.2-0.5,0.2-0.7c0-0.4-0.1-0.6-0.4-0.8
		c-0.2-0.2-0.6-0.3-1.1-0.3c-0.8,0-1.4,0.3-1.8,0.8l-1-0.8c0.3-0.4,0.7-0.7,1.2-0.9s1.1-0.3,1.7-0.3c0.8,0,1.5,0.2,2,0.6
		c0.5,0.4,0.7,0.9,0.7,1.6c0,0.4-0.1,0.8-0.3,1.2c-0.2,0.4-0.5,0.8-1,1.3l-2.1,2L22.1,552.8L22.1,552.8z"/>
</g>
<g>
	<path class="st20" d="M21.3,505.9c0.5,0.4,0.8,1,0.8,1.7c0,0.5-0.1,0.9-0.3,1.3c-0.2,0.4-0.6,0.7-1,0.9c-0.5,0.2-1,0.3-1.7,0.3
		c-0.5,0-1.1-0.1-1.6-0.2c-0.5-0.2-0.9-0.4-1.3-0.7l0.6-1.1c0.3,0.2,0.6,0.4,1,0.6c0.4,0.1,0.8,0.2,1.2,0.2c0.5,0,0.9-0.1,1.2-0.3
		c0.3-0.2,0.4-0.5,0.4-0.9s-0.2-0.7-0.5-0.9c-0.3-0.2-0.8-0.3-1.6-0.3h-1.9l0.4-4.2h4.6v1.2h-3.3l-0.2,1.8h0.7
		C20,505.3,20.8,505.5,21.3,505.9z"/>
</g>
<g>
	<path class="st20" d="M16.6,462.9v7.7h-1.4v-6.5h-1.6v-1.2H16.6z"/>
	<path class="st20" d="M19.6,470.2c-0.5-0.3-0.9-0.8-1.1-1.4c-0.3-0.6-0.4-1.3-0.4-2.1s0.1-1.5,0.4-2.1s0.7-1.1,1.1-1.4
		c0.5-0.3,1-0.5,1.7-0.5c0.6,0,1.2,0.2,1.7,0.5s0.9,0.8,1.1,1.4s0.4,1.3,0.4,2.1s-0.1,1.5-0.4,2.1s-0.7,1.1-1.1,1.4
		c-0.5,0.3-1,0.5-1.7,0.5C20.8,470.7,20.1,470.6,19.6,470.2z M22.6,468.8c0.3-0.5,0.5-1.1,0.5-2s-0.2-1.6-0.5-2
		c-0.3-0.5-0.8-0.7-1.3-0.7s-1,0.2-1.3,0.7s-0.5,1.1-0.5,2s0.2,1.6,0.5,2c0.3,0.5,0.8,0.7,1.3,0.7S22.4,469.2,22.6,468.8z"/>
</g>
<g>
	<path class="st20" d="M16,423.4v7.7h-1.4v-6.5h-1.6v-1.2H16z"/>
	<path class="st20" d="M22.5,427c0.5,0.4,0.8,1,0.8,1.7c0,0.5-0.1,0.9-0.3,1.3c-0.2,0.4-0.6,0.7-1,0.9c-0.5,0.2-1,0.3-1.7,0.3
		c-0.5,0-1.1-0.1-1.6-0.2c-0.5-0.2-0.9-0.4-1.3-0.7l0.6-1.1c0.3,0.2,0.6,0.4,1,0.6c0.4,0.1,0.8,0.2,1.2,0.2c0.5,0,0.9-0.1,1.2-0.3
		c0.3-0.2,0.4-0.5,0.4-0.9s-0.2-0.7-0.5-0.9c-0.3-0.2-0.8-0.3-1.6-0.3h-1.9l0.4-4.2h4.5v1.2h-3.3l-0.2,1.8h0.7
		C21.2,426.4,22,426.6,22.5,427z"/>
</g>
<g>
	<path class="st1" d="M18.5,389.7v1.2h-5.7v-1l3.1-2.9c0.3-0.3,0.6-0.6,0.7-0.9c0.1-0.2,0.2-0.5,0.2-0.7c0-0.4-0.1-0.6-0.4-0.8
		c-0.2-0.2-0.6-0.3-1.1-0.3c-0.8,0-1.4,0.3-1.8,0.8l-1-0.8c0.3-0.4,0.7-0.7,1.2-0.9s1.1-0.3,1.7-0.3c0.8,0,1.5,0.2,2,0.6
		s0.7,0.9,0.7,1.6c0,0.4-0.1,0.8-0.3,1.2c-0.2,0.4-0.5,0.8-1,1.3l-2.1,2h3.8C18.5,389.8,18.5,389.7,18.5,389.7z"/>
	<path class="st1" d="M21,390.5c-0.5-0.3-0.9-0.8-1.1-1.4c-0.3-0.6-0.4-1.3-0.4-2.1s0.1-1.5,0.4-2.1s0.7-1.1,1.1-1.4
		c0.5-0.3,1-0.5,1.7-0.5c0.6,0,1.2,0.2,1.7,0.5s0.9,0.8,1.1,1.4s0.4,1.3,0.4,2.1s-0.1,1.5-0.4,2.1s-0.7,1.1-1.1,1.4
		c-0.5,0.3-1,0.5-1.7,0.5S21.5,390.9,21,390.5z M23.9,389.1c0.3-0.5,0.5-1.1,0.5-2s-0.2-1.6-0.5-2c-0.3-0.5-0.8-0.7-1.3-0.7
		s-1,0.2-1.3,0.7s-0.5,1.1-0.5,2s0.2,1.6,0.5,2c0.3,0.5,0.8,0.7,1.3,0.7C23.1,389.8,23.5,389.5,23.9,389.1z"/>
</g>
<g>
	<path class="st1" d="M18.4,347.1v1.2h-5.7v-1l3.1-2.9c0.3-0.3,0.6-0.6,0.7-0.9c0.1-0.2,0.2-0.5,0.2-0.7c0-0.4-0.1-0.6-0.4-0.8
		c-0.2-0.2-0.6-0.3-1.1-0.3c-0.8,0-1.4,0.3-1.8,0.8l-1-0.8c0.3-0.4,0.7-0.7,1.2-0.9s1.1-0.3,1.7-0.3c0.8,0,1.5,0.2,2,0.6
		s0.7,0.9,0.7,1.6c0,0.4-0.1,0.8-0.3,1.2c-0.2,0.4-0.5,0.8-1,1.3l-2.1,2h3.8C18.4,347.2,18.4,347.1,18.4,347.1z"/>
	<path class="st1" d="M24,344.2c0.5,0.4,0.8,1,0.8,1.7c0,0.5-0.1,0.9-0.3,1.3c-0.2,0.4-0.6,0.7-1,0.9c-0.5,0.2-1,0.3-1.7,0.3
		c-0.5,0-1.1-0.1-1.6-0.2c-0.5-0.2-0.9-0.4-1.3-0.7l0.6-1.1c0.3,0.2,0.6,0.4,1,0.6c0.4,0.1,0.8,0.2,1.2,0.2c0.5,0,0.9-0.1,1.2-0.3
		c0.3-0.2,0.4-0.5,0.4-0.9s-0.2-0.7-0.5-0.9c-0.3-0.2-0.8-0.3-1.6-0.3h-1.9l0.4-4.2h4.5v1.2H21l-0.2,1.8h0.7
		C22.8,343.6,23.5,343.8,24,344.2z"/>
</g>
<g>
	<g>
		<path class="st1" d="M17.3,306.1c0.4,0.4,0.6,0.9,0.6,1.5c0,0.4-0.1,0.9-0.3,1.2c-0.2,0.4-0.6,0.7-1,0.9c-0.5,0.2-1,0.3-1.7,0.3
			c-0.6,0-1.1-0.1-1.6-0.2c-0.5-0.2-0.9-0.4-1.3-0.7l0.6-1.1c0.3,0.2,0.6,0.4,1,0.6c0.4,0.1,0.8,0.2,1.2,0.2c0.5,0,0.9-0.1,1.2-0.3
			c0.3-0.2,0.4-0.5,0.4-0.9c0-0.4-0.1-0.6-0.4-0.8s-0.7-0.3-1.3-0.3H14v-1l1.7-2.1h-3.5v-1.2h5.2v1l-1.9,2.2
			C16.4,305.5,16.9,305.7,17.3,306.1z"/>
		<path class="st1" d="M20.3,309.5c-0.5-0.3-0.9-0.8-1.1-1.4c-0.3-0.6-0.4-1.3-0.4-2.1s0.1-1.5,0.4-2.1s0.7-1.1,1.1-1.4
			c0.5-0.3,1-0.5,1.7-0.5c0.6,0,1.2,0.2,1.7,0.5s0.9,0.8,1.1,1.4s0.4,1.3,0.4,2.1s-0.1,1.5-0.4,2.1s-0.7,1.1-1.1,1.4
			c-0.5,0.3-1,0.5-1.7,0.5C21.4,310,20.8,309.9,20.3,309.5z M23.3,308.1c0.3-0.5,0.5-1.1,0.5-2s-0.2-1.6-0.5-2
			c-0.3-0.5-0.8-0.7-1.3-0.7s-1,0.2-1.3,0.7s-0.5,1.1-0.5,2s0.2,1.6,0.5,2c0.3,0.5,0.8,0.7,1.3,0.7C22.5,308.8,23,308.5,23.3,308.1z
			"/>
	</g>
</g>
<g>
	<g>
		<path class="st20" d="M19,267.2h-1.4v1.7h-1.4v-1.7H12v-1l3.8-5h1.5l-3.6,4.7h2.5v-1.5h1.3v1.6h1.4v1.2H19z"/>
		<path class="st20" d="M21.2,268.6c-0.5-0.3-0.9-0.8-1.1-1.4c-0.3-0.6-0.4-1.3-0.4-2.1c0-0.8,0.1-1.5,0.4-2.1s0.7-1.1,1.1-1.4
			c0.5-0.3,1-0.5,1.7-0.5c0.6,0,1.2,0.2,1.7,0.5c0.5,0.3,0.9,0.8,1.1,1.4c0.2,0.6,0.4,1.3,0.4,2.1c0,0.8-0.1,1.5-0.4,2.1
			s-0.7,1.1-1.1,1.4c-0.5,0.3-1,0.5-1.7,0.5C22.2,269,21.7,268.9,21.2,268.6z M24.1,267.1c0.3-0.5,0.5-1.1,0.5-2s-0.2-1.6-0.5-2
			c-0.3-0.5-0.8-0.7-1.3-0.7s-1,0.2-1.3,0.7s-0.5,1.1-0.5,2s0.2,1.6,0.5,2c0.3,0.5,0.8,0.7,1.3,0.7
			C23.4,267.8,23.8,267.5,24.1,267.1z"/>
	</g>
</g>
<g>
	<path class="st1" d="M17,223.7c0.5,0.4,0.8,1,0.8,1.7c0,0.5-0.1,0.9-0.3,1.3c-0.2,0.4-0.6,0.7-1,0.9c-0.5,0.2-1,0.3-1.7,0.3
		c-0.5,0-1.1-0.1-1.6-0.2c-0.5-0.2-0.9-0.4-1.3-0.7l0.6-1.1c0.3,0.2,0.6,0.4,1,0.6c0.4,0.1,0.8,0.2,1.2,0.2c0.5,0,0.9-0.1,1.2-0.3
		c0.3-0.2,0.4-0.5,0.4-0.9s-0.2-0.7-0.5-0.9c-0.3-0.2-0.8-0.3-1.6-0.3h-1.9l0.4-4.2h4.5v1.2H14l-0.2,1.8h0.7
		C15.7,223.1,16.5,223.3,17,223.7z"/>
	<path class="st1" d="M20.2,227.5c-0.5-0.3-0.9-0.8-1.1-1.4c-0.3-0.6-0.4-1.3-0.4-2.1s0.1-1.5,0.4-2.1s0.7-1.1,1.1-1.4
		c0.5-0.3,1-0.5,1.7-0.5c0.6,0,1.2,0.2,1.7,0.5s0.9,0.8,1.1,1.4s0.4,1.3,0.4,2.1s-0.1,1.5-0.4,2.1s-0.7,1.1-1.1,1.4
		c-0.5,0.3-1,0.5-1.7,0.5C21.2,227.9,20.6,227.8,20.2,227.5z M23.1,226c0.3-0.5,0.5-1.1,0.5-2s-0.2-1.6-0.5-2
		c-0.3-0.5-0.8-0.7-1.3-0.7s-1,0.2-1.3,0.7s-0.5,1.1-0.5,2s0.2,1.6,0.5,2c0.3,0.5,0.8,0.7,1.3,0.7C22.4,226.7,22.8,226.5,23.1,226z"
		/>
</g>
<g>
	<path class="st1" d="M19.1,181v1l-3,6.7h-1.5l2.9-6.5h-3v1.3h-1.3V181H19.1z"/>
	<path class="st1" d="M24.6,184.6c0.5,0.4,0.8,1,0.8,1.7c0,0.5-0.1,0.9-0.3,1.3c-0.2,0.4-0.6,0.7-1,0.9c-0.5,0.2-1,0.3-1.7,0.3
		c-0.5,0-1.1-0.1-1.6-0.2c-0.5-0.2-0.9-0.4-1.3-0.7l0.6-1.1c0.3,0.2,0.6,0.4,1,0.6c0.4,0.1,0.8,0.2,1.2,0.2c0.5,0,0.9-0.1,1.2-0.3
		c0.3-0.2,0.4-0.5,0.4-0.9s-0.2-0.7-0.5-0.9s-0.8-0.3-1.6-0.3h-1.9l0.4-4.2h4.5v1.2h-3.3l-0.2,1.8H22
		C23.3,184,24.1,184.2,24.6,184.6z"/>
</g>
<g>
	<path class="st1" d="M13.3,138.8v7H12v-5.9h-1.4v-1.1H13.3z"/>
	<path class="st1" d="M16.1,145.5c-0.4-0.3-0.8-0.7-1-1.2c-0.3-0.5-0.4-1.2-0.4-1.9s0.1-1.4,0.4-1.9c0.3-0.5,0.6-1,1-1.2
		c0.4-0.3,0.9-0.4,1.5-0.4c0.6,0,1.1,0.1,1.5,0.4c0.4,0.3,0.8,0.7,1,1.2c0.3,0.5,0.4,1.2,0.4,1.9c0,0.7-0.1,1.4-0.4,1.9
		s-0.6,1-1,1.2c-0.4,0.2-0.9,0.4-1.5,0.4C17.1,145.9,16.6,145.8,16.1,145.5z M18.8,144.2c0.3-0.4,0.4-1,0.4-1.8s-0.1-1.4-0.4-1.8
		c-0.3-0.4-0.7-0.6-1.2-0.6s-0.9,0.2-1.2,0.6c-0.3,0.4-0.4,1-0.4,1.8s0.1,1.4,0.4,1.8c0.3,0.4,0.7,0.6,1.2,0.6
		S18.5,144.6,18.8,144.2z"/>
	<path class="st1" d="M22.9,145.5c-0.4-0.3-0.8-0.7-1-1.2c-0.3-0.5-0.4-1.2-0.4-1.9s0.1-1.4,0.4-1.9s0.6-1,1-1.2
		c0.4-0.3,0.9-0.4,1.5-0.4c0.6,0,1.1,0.1,1.5,0.4c0.4,0.3,0.8,0.7,1,1.2c0.3,0.5,0.4,1.2,0.4,1.9c0,0.7-0.1,1.4-0.4,1.9
		s-0.6,1-1,1.2c-0.4,0.2-0.9,0.4-1.5,0.4C23.8,145.9,23.3,145.8,22.9,145.5z M25.6,144.2c0.3-0.4,0.4-1,0.4-1.8s-0.1-1.4-0.4-1.8
		c-0.3-0.4-0.7-0.6-1.2-0.6s-0.9,0.2-1.2,0.6c-0.3,0.4-0.4,1-0.4,1.8s0.1,1.4,0.4,1.8c0.3,0.4,0.7,0.6,1.2,0.6
		C24.9,144.8,25.3,144.6,25.6,144.2z"/>
</g>
<g>
	<path class="st1" d="M14.1,64v1.1H8.9v-0.9l2.8-2.6c0.3-0.3,0.5-0.6,0.6-0.8c0.1-0.2,0.2-0.4,0.2-0.7c0-0.3-0.1-0.6-0.3-0.8
		c-0.2-0.2-0.5-0.3-1-0.3c-0.7,0-1.3,0.2-1.6,0.7L8.8,59c0.3-0.4,0.6-0.7,1.1-0.9c0.5-0.2,1-0.3,1.6-0.3c0.8,0,1.4,0.2,1.8,0.5
		c0.5,0.4,0.7,0.8,0.7,1.5c0,0.4-0.1,0.7-0.2,1.1c-0.2,0.3-0.5,0.7-0.9,1.1L11,63.7h3.2C14.2,63.7,14.2,64,14.1,64z"/>
	<path class="st1" d="M16.2,64.8c-0.4-0.3-0.8-0.7-1-1.2c-0.3-0.5-0.4-1.2-0.4-1.9c0-0.7,0.1-1.4,0.4-1.9c0.3-0.5,0.6-1,1-1.2
		c0.4-0.3,0.9-0.4,1.5-0.4s1.1,0.1,1.5,0.4s0.8,0.7,1,1.2c0.3,0.5,0.4,1.2,0.4,1.9c0,0.7-0.1,1.4-0.4,1.9c-0.3,0.5-0.6,1-1,1.2
		s-0.9,0.4-1.5,0.4C17.2,65.2,16.8,65,16.2,64.8z M18.9,63.4c0.3-0.4,0.4-1,0.4-1.8s-0.1-1.4-0.4-1.8s-0.7-0.6-1.2-0.6
		s-0.9,0.2-1.2,0.6c-0.3,0.4-0.4,1-0.4,1.8s0.1,1.4,0.4,1.8s0.7,0.6,1.2,0.6C18.2,64.1,18.6,63.9,18.9,63.4z"/>
	<path class="st1" d="M23,64.8c-0.4-0.3-0.8-0.7-1-1.2c-0.3-0.5-0.4-1.2-0.4-1.9c0-0.7,0.1-1.4,0.4-1.9s0.6-1,1-1.2
		c0.4-0.3,0.9-0.4,1.5-0.4s1.1,0.1,1.5,0.4s0.8,0.7,1,1.2c0.3,0.5,0.4,1.2,0.4,1.9c0,0.7-0.1,1.4-0.4,1.9c-0.3,0.5-0.6,1-1,1.2
		s-1,0.4-1.5,0.4C23.9,65.2,23.4,65,23,64.8z M25.6,63.4c0.3-0.4,0.4-1,0.4-1.8s-0.1-1.4-0.4-1.9c-0.3-0.4-0.7-0.6-1.2-0.6
		s-0.9,0.2-1.2,0.6c-0.3,0.4-0.4,1-0.4,1.8s0.1,1.4,0.4,1.8s0.7,0.6,1.2,0.6C25,64.1,25.4,63.9,25.6,63.4z"/>
</g>
<circle class="st21" cx="18.7" cy="20.9" r="14.6"/>
<g>
	<path class="st1" d="M31.6,22.1V22c0-6.6-5.4-12-12.2-12.4V8.5c0-0.3-0.3-0.6-0.7-0.6c-0.4,0-0.7,0.3-0.7,0.6v1.1
		C11.2,9.9,5.8,15.4,5.8,22c0,0.3,0.3,0.6,0.7,0.6c0.2,0,0.3-0.1,0.5-0.2c2.2-2,5.1-2,7.2,0c0.1,0.1,0.3,0.2,0.5,0.2
		s0.3-0.1,0.4-0.2c0.9-0.8,1.9-1.3,3-1.4v8.6c0,1.7,1.5,3.2,3.3,3.2s3.3-1.4,3.3-3.2c0-0.3-0.3-0.6-0.7-0.6c-0.4,0-0.7,0.3-0.7,0.6
		c0,1-0.9,1.9-2,1.9s-2-0.9-2-1.9V21c1,0.1,2.1,0.6,3,1.4c0.2,0.2,0.7,0.2,0.9,0c2.2-2,5.1-2,7.3,0c0.2,0.2,0.6,0.2,0.8,0.1
		C31.5,22.4,31.6,22.3,31.6,22.1z M22.2,20.8c-1.1-0.7-2.3-1.1-3.5-1.1h-0.1h-0.1c-1.2,0-2.4,0.4-3.5,1.1c-0.3-4.3,0.8-7.7,2.2-9.2
		c0.9-1,1.8-1,2.8,0C21.4,13.1,22.6,16.4,22.2,20.8z M7.2,20.6c0.6-4.7,4.2-8.4,8.8-9.5c-1.3,1.7-2.5,5-2.2,9.5
		C11.8,19.4,9.3,19.4,7.2,20.6z M23.6,20.6c0.3-4.5-0.9-7.8-2.2-9.5c4.7,1.1,8.2,4.8,8.8,9.5C28.1,19.4,25.7,19.4,23.6,20.6z"/>
</g>
<g>
	<path class="st1" d="M13.1,97.3v7h-1.3v-5.9h-1.4v-1.1H13.1z"/>
	<path class="st1" d="M22.7,104c-0.4-0.3-0.8-0.7-1-1.2c-0.3-0.5-0.4-1.2-0.4-1.9c0-0.7,0.1-1.4,0.4-1.9s0.6-1,1-1.2
		c0.4-0.3,0.9-0.4,1.5-0.4c0.6,0,1.1,0.1,1.5,0.4c0.4,0.3,0.8,0.7,1,1.2c0.3,0.5,0.4,1.2,0.4,1.9c0,0.7-0.1,1.4-0.4,1.9
		s-0.6,1-1,1.2c-0.4,0.2-0.9,0.4-1.5,0.4C23.6,104.4,23.1,104.3,22.7,104z M25.4,102.7c0.3-0.4,0.4-1,0.4-1.8s-0.1-1.4-0.4-1.8
		s-0.7-0.6-1.2-0.6s-0.9,0.2-1.2,0.6s-0.4,1-0.4,1.8s0.1,1.4,0.4,1.8s0.7,0.6,1.2,0.6C24.7,103.3,25.1,103.1,25.4,102.7z"/>
</g>
<g>
	<path class="st1" d="M19.2,100.6c0.5,0.4,0.8,0.9,0.8,1.5c0,0.4-0.1,0.8-0.3,1.2c-0.2,0.4-0.6,0.6-0.9,0.8
		c-0.5,0.2-0.9,0.3-1.6,0.3c-0.5,0-1-0.1-1.5-0.2c-0.5-0.2-0.9-0.4-1.2-0.6l0.6-1c0.3,0.2,0.6,0.4,0.9,0.5c0.4,0.1,0.8,0.2,1.1,0.2
		c0.5,0,0.9-0.1,1.1-0.3c0.3-0.2,0.4-0.4,0.4-0.8c0-0.4-0.2-0.6-0.5-0.8c-0.3-0.2-0.8-0.3-1.5-0.3h-1.8l0.4-3.8h4.3v1.1h-3.1
		l-0.2,1.6h0.7C18,100.1,18.8,100.3,19.2,100.6z"/>
</g>
</svg>
