<?xml version="1.0" encoding="utf-8"?>
<!-- Generator: Adobe Illustrator 28.0.0, SVG Export Plug-In . SVG Version: 6.00 Build 0)  -->
<svg version="1.1" id="Livello_1" xmlns="http://www.w3.org/2000/svg" xmlns:xlink="http://www.w3.org/1999/xlink" x="0px" y="0px"
	 viewBox="0 0 48.7 677.2" style="enable-background:new 0 0 48.7 677.2;" xml:space="preserve">
<style type="text/css">
	.st0{fill:#961405;}
	.st1{clip-path:url(#SVGID_00000127017463806847219320000012415776491240083872_);}
	.st2{fill:#6E0E04;}
	.st3{clip-path:url(#SVGID_00000134950055435104159110000011087663539722242226_);}
	.st4{fill:#E22208;}
	.st5{clip-path:url(#SVGID_00000097487689203287800430000016183321526909732533_);}
	.st6{fill:#E86411;}
	.st7{clip-path:url(#SVGID_00000147900641957334340720000017280723325712000656_);}
	.st8{fill:#E1D52D;}
	.st9{fill:#F7EC31;}
	.st10{clip-path:url(#SVGID_00000160889022959351554110000017811840705970829491_);}
	.st11{clip-path:url(#SVGID_00000124157357400098048600000001950956481668124835_);}
	.st12{clip-path:url(#SVGID_00000005955064204816942340000013308635433837103289_);}
	.st13{fill:#173A62;}
	.st14{clip-path:url(#SVGID_00000083808678751933874500000008224979057394136715_);}
	.st15{fill:#79AADE;}
	.st16{clip-path:url(#SVGID_00000130623940626898687380000018221839543210559664_);}
	.st17{fill:#9CC1E7;}
	.st18{clip-path:url(#SVGID_00000155852591224171901970000011841832944753371295_);}
	.st19{fill:#BDD5EF;}
	.st20{clip-path:url(#SVGID_00000155128494143416917040000016387454815468935354_);}
	.st21{fill:#DEEAF7;}
	.st22{clip-path:url(#SVGID_00000008138514747316888600000015782332493443872150_);}
	.st23{fill:#235A95;}
	.st24{clip-path:url(#SVGID_00000083776096986417894880000011383942714585688987_);}
	.st25{fill:#2E6FB8;}
	.st26{fill:#548ECE;}
	.st27{fill:#39322E;}
	.st28{fill:none;}
	.st29{fill:none;stroke:#3C3430;stroke-width:2;stroke-miterlimit:9.7722;}
	.st30{fill:#3B3330;}
	.st31{fill:#3C3530;}
	.st32{fill:#FFFFFF;}
	.st33{fill:none;stroke:#3C3430;stroke-miterlimit:9.7722;}
</style>
<g>
	<g>
		<g>
			<g>
				<rect x="5.5" y="92.3" class="st0" width="37.3" height="42.7"/>
			</g>
		</g>
	</g>
</g>
<g>
	<g>
		<defs>
			<path id="SVGID_1_" d="M43.4,672.4c-0.5,3.9-10.1,8.5-18.5,8.5l0,0c-8.2,0.4-19.5-3.8-19.5-8.5V57.9C7.2,52.3,17.2,49,23.7,49
				l0,0c7.7,0,17.7,3.3,19.6,9.2L43.4,672.4L43.4,672.4z"/>
		</defs>
		<clipPath id="SVGID_00000055666788144755531270000012591321155783145388_">
			<use xlink:href="#SVGID_1_"  style="overflow:visible;"/>
		</clipPath>
	</g>
	<g>
		<defs>
			<path id="SVGID_00000168097215446006888860000011021400363699054727_" d="M43.4,672.4c-0.5,3.9-10.1,8.5-18.5,8.5l0,0
				c-8.2,0.4-19.5-3.8-19.5-8.5V57.9C7.2,52.3,17.2,49,23.7,49l0,0c7.7,0,17.7,3.3,19.6,9.2L43.4,672.4L43.4,672.4z"/>
		</defs>
		<clipPath id="SVGID_00000019639566532246541990000002132084028395586448_">
			<use xlink:href="#SVGID_00000168097215446006888860000011021400363699054727_"  style="overflow:visible;"/>
		</clipPath>
	</g>
	<g>
		<defs>
			<path id="SVGID_00000169525923759027070060000015195148364849927612_" d="M43.4,672.4c-0.5,3.9-10.1,8.5-18.5,8.5l0,0
				c-8.2,0.4-19.5-3.8-19.5-8.5V57.9C7.2,52.3,17.2,49,23.7,49l0,0c7.7,0,17.7,3.3,19.6,9.2L43.4,672.4L43.4,672.4z"/>
		</defs>
		<clipPath id="SVGID_00000032629659072549199530000004539379717918300832_">
			<use xlink:href="#SVGID_00000169525923759027070060000015195148364849927612_"  style="overflow:visible;"/>
		</clipPath>
	</g>
	<g>
		<defs>
			<path id="SVGID_00000012434969931078893920000007350390796449036711_" d="M43.4,672.4c-0.5,3.9-10.1,8.5-18.5,8.5l0,0
				c-8.2,0.4-19.5-3.8-19.5-8.5V54.7C7.2,49.2,17.2,49,23.7,49l0,0c7.7,0,17.7-0.7,19.6,5.2L43.4,672.4L43.4,672.4z"/>
		</defs>
		<clipPath id="SVGID_00000061461605558363054010000000996393005418868668_">
			<use xlink:href="#SVGID_00000012434969931078893920000007350390796449036711_"  style="overflow:visible;"/>
		</clipPath>
		<g style="clip-path:url(#SVGID_00000061461605558363054010000000996393005418868668_);">
			<g>
				<g>
					<rect x="-20" y="49" class="st2" width="100.4" height="43.7"/>
				</g>
			</g>
		</g>
	</g>
	<g>
		<defs>
			<path id="SVGID_00000031182564164604067210000012940465468752862140_" d="M43.4,672.4L43.4,672.4c-0.5,3.9-10.1,8.5-18.5,8.5l0,0
				c-8.2,0.4-19.5-3.8-19.5-8.5L5.9,54.5C7.6,49,17.2,49,23.7,49l0,0"/>
		</defs>
		<clipPath id="SVGID_00000151514274398714815160000001673901431882061458_">
			<use xlink:href="#SVGID_00000031182564164604067210000012940465468752862140_"  style="overflow:visible;"/>
		</clipPath>
		<g style="clip-path:url(#SVGID_00000151514274398714815160000001673901431882061458_);">
			<g>
				<g>
					<rect x="-24.9" y="92.3" class="st0" width="100.4" height="42.7"/>
				</g>
			</g>
		</g>
	</g>
	<g>
		<g>
			<g>
				<g>
					<rect x="5.5" y="135" class="st4" width="38.4" height="43"/>
				</g>
			</g>
		</g>
	</g>
	<g>
		<defs>
			<path id="SVGID_00000002381391907702122000000015108470181076306355_" d="M43.4,672.4c-0.5,3.9-10.1,8.5-18.5,8.5l0,0
				c-8.2,0.4-19.5-3.8-19.5-8.5L5.9,55c1.7-5.6,11.3-6,17.8-6l0,0c7.7,0,17.9-0.4,19.6,9.2L43.4,672.4L43.4,672.4z"/>
		</defs>
		<clipPath id="SVGID_00000178884363266888609750000011055601539011327932_">
			<use xlink:href="#SVGID_00000002381391907702122000000015108470181076306355_"  style="overflow:visible;"/>
		</clipPath>
		<g style="clip-path:url(#SVGID_00000178884363266888609750000011055601539011327932_);">
			<g>
				<g>
					<rect x="-20.5" y="177.9" class="st6" width="100.4" height="42.7"/>
				</g>
			</g>
		</g>
	</g>
	<g>
		<defs>
			<path id="SVGID_00000143611816246069023470000003344740886477950382_" d="M43.4,672.4c-0.5,3.9-10.1,8.5-18.5,8.5l0,0
				c-8.2,0.4-19.5-3.8-19.5-8.5L5.9,54.5C7.6,49,17.2,49,23.7,49l0,0c7.7,0,18-0.5,19.6,9.2L43.4,672.4L43.4,672.4z"/>
		</defs>
		<clipPath id="SVGID_00000080929596553785399790000008718092971774892929_">
			<use xlink:href="#SVGID_00000143611816246069023470000003344740886477950382_"  style="overflow:visible;"/>
		</clipPath>
		<g style="clip-path:url(#SVGID_00000080929596553785399790000008718092971774892929_);">
			<g>
				<g>
					<rect x="-19.5" y="220.6" class="st8" width="100.4" height="42.7"/>
				</g>
			</g>
		</g>
		<g style="clip-path:url(#SVGID_00000080929596553785399790000008718092971774892929_);">
			<g>
				<g>
					<rect x="-26.4" y="263.3" class="st9" width="100.4" height="42.7"/>
				</g>
			</g>
		</g>
	</g>
	<g>
		<defs>
			<path id="SVGID_00000077318458543609707470000001344620244354425239_" d="M43.3,58.1l0.2,614.3l0,0c-0.5,3.9-10.1,8.5-18.5,8.5
				l0,0c-8.2,0.4-19.5-3.8-19.5-8.5"/>
		</defs>
		<defs>
			<line id="SVGID_00000018237779758052971450000009743745304764129698_" x1="23.7" y1="49" x2="23.7" y2="49"/>
		</defs>
		<clipPath id="SVGID_00000101101514293330654160000005736065575847863472_">
			<use xlink:href="#SVGID_00000077318458543609707470000001344620244354425239_"  style="overflow:visible;"/>
		</clipPath>
		
			<clipPath id="SVGID_00000158004182633114367680000008022805736427561609_" style="clip-path:url(#SVGID_00000101101514293330654160000005736065575847863472_);">
			<use xlink:href="#SVGID_00000018237779758052971450000009743745304764129698_"  style="overflow:visible;"/>
		</clipPath>
		<g style="clip-path:url(#SVGID_00000158004182633114367680000008022805736427561609_);">
			<g>
				<g>
					<rect x="-19.5" y="263.2" class="st9" width="100.4" height="42.7"/>
				</g>
			</g>
		</g>
	</g>
	<g>
		<defs>
			<path id="SVGID_00000140731086786389543020000003103179996581086349_" d="M43.3,58.1l0.2,614.3l0,0c-0.5,3.9-10.1,8.5-18.5,8.5
				l0,0c-8.2,0.4-19.5-3.8-19.5-8.5V55.3C7.2,49.7,17.2,49,23.7,49l0,0"/>
		</defs>
		<clipPath id="SVGID_00000046305282041058134150000016060047029418332843_">
			<use xlink:href="#SVGID_00000140731086786389543020000003103179996581086349_"  style="overflow:visible;"/>
		</clipPath>
		<g style="clip-path:url(#SVGID_00000046305282041058134150000016060047029418332843_);">
			<g>
				<g>
					<rect x="-19.5" y="305.9" class="st13" width="100.4" height="42.7"/>
				</g>
			</g>
		</g>
	</g>
	<g>
		<defs>
			<path id="SVGID_00000071559036189689934890000016188953419505758133_" d="M43.4,672.4c-0.5,3.9-10.1,8.5-18.5,8.5l0,0
				c-8.2,0.4-19.5-3.8-19.5-8.5V54.7C7.2,49.2,17.2,49,23.7,49l0,0c7.7,0,18.2-0.4,19.6,9.2L43.4,672.4L43.4,672.4z"/>
		</defs>
		<clipPath id="SVGID_00000039115811718269342980000006689450295317342386_">
			<use xlink:href="#SVGID_00000071559036189689934890000016188953419505758133_"  style="overflow:visible;"/>
		</clipPath>
		<g style="clip-path:url(#SVGID_00000039115811718269342980000006689450295317342386_);">
			<g>
				<g>
					<rect x="-18.2" y="476.7" class="st15" width="100.4" height="42.7"/>
				</g>
			</g>
		</g>
	</g>
	<g>
		<defs>
			<path id="SVGID_00000119828640852671777730000002323251820899147928_" d="M43.4,672.4c-0.5,3.9-10.1,8.5-18.5,8.5l0,0
				c-8.2,0.4-19.5-3.8-19.5-8.5V54.7C7.2,49.2,17.2,49,23.7,49l0,0c7.7,0,18.2-0.9,19.6,9.2L43.4,672.4L43.4,672.4z"/>
		</defs>
		<clipPath id="SVGID_00000146492943874065438930000012591985286921558698_">
			<use xlink:href="#SVGID_00000119828640852671777730000002323251820899147928_"  style="overflow:visible;"/>
		</clipPath>
		<g style="clip-path:url(#SVGID_00000146492943874065438930000012591985286921558698_);">
			<g>
				<g>
					<rect x="-18.2" y="519.3" class="st17" width="100.4" height="42.7"/>
				</g>
			</g>
		</g>
	</g>
	<g>
		<defs>
			<path id="SVGID_00000155126125797341654190000010465161913437050519_" d="M43.4,672.4c-0.5,3.9-10.1,8.5-18.5,8.5l0,0
				c-8.2,0.4-19.5-3.8-19.5-8.5l0-614.5C5.3,43.6,17.1,48.8,23.7,49l0,0c7.7,0,18.3-0.5,19.6,9.2L43.4,672.4L43.4,672.4z"/>
		</defs>
		<clipPath id="SVGID_00000049179893361871638410000003297585312182541998_">
			<use xlink:href="#SVGID_00000155126125797341654190000010465161913437050519_"  style="overflow:visible;"/>
		</clipPath>
		<g style="clip-path:url(#SVGID_00000049179893361871638410000003297585312182541998_);">
			<g>
				<g>
					<rect x="-17.3" y="562" class="st19" width="100.4" height="42.7"/>
				</g>
			</g>
		</g>
	</g>
	<g>
		<defs>
			<path id="SVGID_00000075844313114477669620000013784632559883340206_" d="M43.4,672.4c-0.5,3.9-10.4,3.3-18.8,3.3l0,0
				c-8.2,0.4-18.8,0.6-18.8-4.2V53.5C7.6,48,17.2,49,23.7,49l0,0c7.7,0,17.7,0.3,19.6,6.2L43.4,672.4L43.4,672.4z"/>
		</defs>
		<clipPath id="SVGID_00000180368354546966693140000014373637937335866811_">
			<use xlink:href="#SVGID_00000075844313114477669620000013784632559883340206_"  style="overflow:visible;"/>
		</clipPath>
		<g style="clip-path:url(#SVGID_00000180368354546966693140000014373637937335866811_);">
			<g>
				<g>
					<rect x="-17.6" y="599.4" class="st21" width="100.4" height="79"/>
				</g>
			</g>
		</g>
	</g>
	<g>
		<defs>
			<path id="SVGID_00000112629452999434400140000016425730863494127264_" d="M43.4,672.4c-0.5,3.9-10.4,3.3-18.8,3.3l0,0
				c-8.2,0.4-19.2,1.4-19.2-3.3L5.9,54.5C7.6,49,17.2,49,23.7,49l0,0c7.7,0,17.2,0.6,19.1,6.5L43.4,672.4L43.4,672.4z"/>
		</defs>
		<clipPath id="SVGID_00000129916894475486867630000006559806727230240430_">
			<use xlink:href="#SVGID_00000112629452999434400140000016425730863494127264_"  style="overflow:visible;"/>
		</clipPath>
		<g style="clip-path:url(#SVGID_00000129916894475486867630000006559806727230240430_);">
			<g>
				<g>
					<rect x="-18.2" y="348.6" class="st23" width="100.4" height="42.7"/>
				</g>
			</g>
		</g>
	</g>
	<g>
		<defs>
			<path id="SVGID_00000003091839902859590690000003152402162113298564_" d="M43.4,672.4c-0.5,3.9-10.4,3.3-18.8,3.3l0,0
				c-8.2,0.4-19.2,1.4-18.4-2.8V55.2C7.2,49.2,17.2,49,23.7,49l0,0c7.7,0,17.2,0.3,19,6.2L43.4,672.4L43.4,672.4z"/>
		</defs>
		<clipPath id="SVGID_00000140728606233610294090000004377081379365802880_">
			<use xlink:href="#SVGID_00000003091839902859590690000003152402162113298564_"  style="overflow:visible;"/>
		</clipPath>
		<g style="clip-path:url(#SVGID_00000140728606233610294090000004377081379365802880_);">
			<g>
				<g>
					<rect x="-18.2" y="391.2" class="st25" width="100.4" height="42.7"/>
				</g>
			</g>
		</g>
	</g>
	<g>
		<g>
			<g>
				<g>
					<rect x="6.2" y="433.9" class="st26" width="36.7" height="42.7"/>
				</g>
			</g>
		</g>
	</g>
</g>
<circle class="st27" cx="24.1" cy="26.6" r="19.8"/>
<rect x="11.1" y="632" class="st28" width="15.4" height="11.8"/>
<path class="st29" d="M36.6,675.8H12.1c-3.4,0-6.2-2.8-6.2-6.2V56.1c0-3.4,2.8-6.2,6.2-6.2h24.5c3.4,0,6.2,2.8,6.2,6.2v613.5
	C42.8,673,40,675.8,36.6,675.8z"/>
<g>
	<path class="st30" d="M26.1,594.1v7.9h-1.7v-6l-1.7,1.1l-0.8-1.2l2.6-1.7H26.1z"/>
</g>
<g>
	<path class="st30" d="M27.1,565.1H22v-1.4l1.7-1.7c0.6-0.6,1-1.1,1.3-1.4s0.4-0.7,0.4-1s-0.1-0.6-0.3-0.8c-0.2-0.2-0.5-0.2-0.8-0.2
		c-0.5,0-1.1,0-1.8,0.1l-0.3,0l-0.1-1.3c0.8-0.2,1.6-0.4,2.4-0.4c1.7,0,2.5,0.8,2.5,2.3c0,0.6-0.1,1.1-0.4,1.5
		c-0.3,0.4-0.7,1-1.4,1.6l-1.4,1.2h3.3V565.1z"/>
</g>
<g>
	<g>
		<path class="st31" d="M22.9,308h-5.1v-1.4l1.7-1.7c0.6-0.6,1-1.1,1.3-1.4c0.2-0.3,0.4-0.7,0.4-1s-0.1-0.6-0.3-0.8
			c-0.2-0.2-0.5-0.2-0.8-0.2c-0.5,0-1.1,0-1.8,0.1l-0.3,0l-0.1-1.3c0.8-0.2,1.6-0.4,2.4-0.4c1.7,0,2.5,0.8,2.5,2.3
			c0,0.6-0.1,1.1-0.4,1.5c-0.3,0.4-0.7,1-1.4,1.6l-1.4,1.2h3.3V308z"/>
		<path class="st31" d="M24.8,301c0.5-0.7,1.3-1,2.3-1c1,0,1.8,0.3,2.3,1s0.8,1.7,0.8,3.2s-0.3,2.5-0.8,3.1s-1.3,0.9-2.3,0.9
			c-1,0-1.8-0.3-2.3-0.9c-0.5-0.6-0.8-1.7-0.8-3.1S24.3,301.6,24.8,301z M28.5,304.1c0-1-0.1-1.7-0.3-2.1c-0.2-0.4-0.6-0.6-1-0.6
			s-0.8,0.2-1.1,0.6c-0.2,0.4-0.3,1.1-0.3,2.1c0,1,0.1,1.7,0.3,2.1s0.6,0.6,1.1,0.6s0.8-0.2,1-0.6S28.5,305.1,28.5,304.1z"/>
	</g>
</g>
<g>
	<path class="st31" d="M18.1,257.5c0.7-0.3,1.6-0.4,2.5-0.4s1.6,0.2,2,0.5s0.6,0.9,0.6,1.7c0,0.8-0.3,1.4-0.9,1.8
		c0.4,0.2,0.7,0.4,0.8,0.6s0.2,0.6,0.2,1.1c0,0.9-0.2,1.5-0.6,1.9c-0.4,0.4-1.1,0.6-2.1,0.6c-0.7,0-1.4-0.1-2.2-0.3l-0.4-0.1
		l0.1-1.3c0.9,0.2,1.6,0.2,2.3,0.2c0.8,0,1.2-0.4,1.2-1.1c0-0.3-0.1-0.5-0.3-0.7c-0.2-0.2-0.5-0.3-0.8-0.3h-1.6v-1.4h1.6
		c0.3,0,0.5-0.1,0.7-0.3c0.2-0.2,0.3-0.5,0.3-0.7c0-0.6-0.4-0.9-1.2-0.9c-0.6,0-1.1,0.1-1.8,0.2l-0.3,0L18.1,257.5z"/>
	<path class="st31" d="M25.1,258.1c0.5-0.7,1.3-1,2.3-1c1,0,1.8,0.3,2.3,1s0.8,1.7,0.8,3.2s-0.3,2.5-0.8,3.1s-1.3,0.9-2.3,0.9
		c-1,0-1.8-0.3-2.3-0.9c-0.5-0.6-0.8-1.7-0.8-3.1S24.6,258.7,25.1,258.1z M28.8,261.2c0-1-0.1-1.7-0.3-2.1c-0.2-0.4-0.6-0.6-1-0.6
		s-0.8,0.2-1.1,0.6c-0.2,0.4-0.3,1.1-0.3,2.1c0,1,0.1,1.7,0.3,2.1s0.6,0.6,1.1,0.6s0.8-0.2,1-0.6S28.8,262.2,28.8,261.2z"/>
</g>
<g>
	<path class="st32" d="M23.8,173.2v1.4h-3.5l-0.2,1.7c0.5-0.2,1-0.3,1.4-0.3c1.7,0,2.6,0.8,2.6,2.4c0,0.9-0.2,1.6-0.7,2.1
		c-0.5,0.5-1.1,0.7-2,0.7c-0.4,0-0.8,0-1.3-0.1c-0.5-0.1-0.8-0.1-1.1-0.2l-0.4-0.1l0.2-1.2c1,0.2,1.8,0.2,2.4,0.2
		c0.4,0,0.7-0.1,0.9-0.3c0.2-0.2,0.3-0.5,0.3-0.9s-0.1-0.7-0.3-0.8s-0.4-0.3-0.7-0.3c-0.5,0-1,0.1-1.4,0.2l-0.2,0l-1-0.2l0.2-4.3
		H23.8z"/>
	<path class="st32" d="M25.7,174.1c0.5-0.7,1.3-1,2.3-1c1,0,1.8,0.3,2.3,1c0.5,0.7,0.8,1.7,0.8,3.2s-0.3,2.5-0.8,3.1
		c-0.5,0.6-1.3,0.9-2.3,0.9c-1,0-1.8-0.3-2.3-0.9s-0.8-1.7-0.8-3.1S25.1,174.7,25.7,174.1z M29.3,177.2c0-1-0.1-1.7-0.3-2.1
		c-0.2-0.4-0.6-0.6-1-0.6c-0.5,0-0.8,0.2-1.1,0.6c-0.2,0.4-0.3,1.1-0.3,2.1c0,1,0.1,1.7,0.3,2.1c0.2,0.4,0.6,0.6,1.1,0.6
		c0.5,0,0.8-0.2,1-0.6S29.3,178.2,29.3,177.2z"/>
</g>
<g>
	<path class="st32" d="M17.8,131.4v-1.5h5.1v1.9l-2.8,6.2l-1.5-0.4l2.7-5.8v-0.4H17.8z"/>
	<path class="st32" d="M29.6,129.9v1.4h-3.5l-0.2,1.7c0.5-0.2,1-0.3,1.4-0.3c1.7,0,2.6,0.8,2.6,2.4c0,0.9-0.2,1.6-0.7,2.1
		c-0.5,0.5-1.1,0.7-2,0.7c-0.4,0-0.8,0-1.3-0.1c-0.5-0.1-0.8-0.1-1.1-0.2l-0.4-0.1l0.2-1.2c1,0.2,1.8,0.2,2.4,0.2
		c0.4,0,0.7-0.1,0.9-0.3c0.2-0.2,0.3-0.5,0.3-0.9s-0.1-0.7-0.3-0.8s-0.4-0.3-0.7-0.3c-0.5,0-1,0.1-1.4,0.2l-0.2,0l-1-0.2l0.2-4.3
		H29.6z"/>
</g>
<g>
	<path class="st32" d="M18.4,87.5v7.9h-1.7v-6l-1.7,1.1l-0.8-1.2l2.6-1.7H18.4z"/>
	<path class="st32" d="M21.2,88.4c0.5-0.7,1.3-1,2.3-1c1,0,1.8,0.3,2.3,1s0.8,1.7,0.8,3.2s-0.3,2.5-0.8,3.1s-1.3,0.9-2.3,0.9
		c-1,0-1.8-0.3-2.3-0.9c-0.5-0.6-0.8-1.7-0.8-3.1S20.7,89,21.2,88.4z M24.9,91.5c0-1-0.1-1.7-0.3-2.1c-0.2-0.4-0.6-0.6-1-0.6
		s-0.8,0.2-1.1,0.6c-0.2,0.4-0.3,1.1-0.3,2.1c0,1,0.1,1.7,0.3,2.1s0.6,0.6,1.1,0.6s0.8-0.2,1-0.6S24.9,92.5,24.9,91.5z"/>
	<path class="st32" d="M27.9,88.4c0.5-0.7,1.3-1,2.3-1c1,0,1.8,0.3,2.3,1s0.8,1.7,0.8,3.2S33,94,32.5,94.7s-1.3,0.9-2.3,0.9
		c-1,0-1.8-0.3-2.3-0.9c-0.5-0.6-0.8-1.7-0.8-3.1S27.4,89,27.9,88.4z M31.6,91.5c0-1-0.1-1.7-0.3-2.1c-0.2-0.4-0.6-0.6-1-0.6
		s-0.8,0.2-1.1,0.6c-0.2,0.4-0.3,1.1-0.3,2.1c0,1,0.1,1.7,0.3,2.1s0.6,0.6,1.1,0.6s0.8-0.2,1-0.6S31.6,92.5,31.6,91.5z"/>
</g>
<line class="st33" x1="6.8" y1="599.1" x2="19.7" y2="599.1"/>
<line class="st33" x1="42.5" y1="599.1" x2="28.9" y2="599.1"/>
<line class="st33" x1="5.9" y1="562.2" x2="19.7" y2="562.2"/>
<line class="st33" x1="42.3" y1="562.2" x2="28.9" y2="562.2"/>
<line class="st33" x1="5.5" y1="305.8" x2="18.1" y2="305.8"/>
<line class="st33" x1="42.1" y1="305.9" x2="31" y2="305.9"/>
<line class="st33" x1="6.7" y1="263" x2="17.5" y2="263"/>
<line class="st33" x1="42.6" y1="263" x2="31.6" y2="263"/>
<line class="st33" x1="18.4" y1="177.8" x2="5.9" y2="177.8"/>
<line class="st33" x1="42.4" y1="178" x2="31.4" y2="178"/>
<line class="st33" x1="5.8" y1="135.2" x2="17.7" y2="135.2"/>
<line class="st33" x1="42.5" y1="135.2" x2="31.3" y2="135.2"/>
<line class="st33" x1="6.2" y1="92.3" x2="14.2" y2="92.3"/>
<line class="st33" x1="34.2" y1="92.3" x2="42.2" y2="92.3"/>
<g>
	<path class="st32" d="M38.8,27v-0.1c0-7.5-6.2-13.7-13.9-14.1v-1.3c0-0.3-0.3-0.7-0.8-0.7c-0.5,0-0.8,0.3-0.8,0.7v1.3
		c-7.8,0.3-13.9,6.6-13.9,14.1c0,0.3,0.3,0.7,0.8,0.7c0.2,0,0.3-0.1,0.6-0.2c2.5-2.3,5.8-2.3,8.2,0c0.1,0.1,0.3,0.2,0.6,0.2
		c0.2,0,0.3-0.1,0.5-0.2c1-0.9,2.2-1.5,3.4-1.6v9.8c0,1.9,1.7,3.7,3.8,3.7s3.8-1.6,3.8-3.7c0-0.3-0.3-0.7-0.8-0.7
		c-0.5,0-0.8,0.3-0.8,0.7c0,1.1-1,2.2-2.3,2.2c-1.3,0-2.3-1-2.3-2.2v-9.8c1.1,0.1,2.4,0.7,3.4,1.6c0.2,0.2,0.8,0.2,1,0
		c2.5-2.3,5.8-2.3,8.3,0c0.2,0.2,0.7,0.2,0.9,0.1C38.7,27.4,38.8,27.2,38.8,27z M28.1,25.5c-1.3-0.8-2.6-1.3-4-1.3h-0.1h-0.1
		c-1.4,0-2.7,0.5-4,1.3c-0.3-4.9,0.9-8.8,2.5-10.5c1-1.1,2.1-1.1,3.2,0C27.1,16.7,28.5,20.5,28.1,25.5z M10.9,25.3
		c0.7-5.4,4.8-9.6,10-10.8c-1.5,1.9-2.9,5.7-2.5,10.8C16.2,23.9,13.3,23.9,10.9,25.3z M29.7,25.3c0.3-5.1-1-8.9-2.5-10.8
		c5.4,1.3,9.4,5.5,10,10.8C34.8,23.9,32,23.9,29.7,25.3z"/>
</g>
<g>
	<path class="st30" d="M25.5,522.2v-1.3h-3.4v-1.3l2-5.4h1.8l-2.1,5.2h1.7v-2.2h1.7v2.2h0.8v1.4h-0.8v1.3H25.5z"/>
</g>
<line class="st33" x1="6.3" y1="519.3" x2="20.1" y2="519.3"/>
<line class="st33" x1="42.7" y1="519.3" x2="29.3" y2="519.3"/>
<g>
	<path class="st30" d="M27.4,473c-0.8-0.1-1.5-0.2-2.1-0.2c-1.1,0-1.7,0.6-1.7,1.8l0.3-0.1c0.5-0.2,0.9-0.2,1.3-0.2
		c0.9,0,1.6,0.2,2,0.6s0.7,1.1,0.7,1.9s-0.3,1.5-0.8,2c-0.5,0.4-1.3,0.7-2.2,0.7c-1,0-1.7-0.4-2.2-1.1s-0.7-1.8-0.7-3.1
		s0.3-2.4,0.9-3c0.6-0.7,1.4-1,2.4-1c0.6,0,1.3,0.1,2,0.3l0.4,0.1L27.4,473z M25,475.8c-0.4,0-0.8,0.1-1.2,0.2l-0.2,0.1
		c0,1.4,0.4,2.1,1.3,2.1c0.4,0,0.7-0.1,0.9-0.3s0.3-0.5,0.3-0.9C26.1,476.2,25.8,475.8,25,475.8z"/>
</g>
<line class="st33" x1="6.1" y1="476.5" x2="20" y2="476.5"/>
<line class="st33" x1="42.5" y1="476.5" x2="29.1" y2="476.5"/>
<g>
	<path class="st30" d="M22.6,429.4c0.5-0.4,1.2-0.6,2.1-0.6s1.6,0.2,2.1,0.6c0.5,0.4,0.8,0.9,0.8,1.6c0,0.5-0.1,0.8-0.2,1
		c-0.1,0.2-0.3,0.5-0.7,0.8c0.4,0.3,0.6,0.6,0.8,0.8c0.2,0.3,0.2,0.6,0.2,1.1c0,0.8-0.3,1.4-0.8,1.7c-0.6,0.4-1.3,0.6-2.2,0.6
		c-2,0-3-0.7-3-2.2c0-0.5,0.1-0.9,0.2-1.2c0.2-0.3,0.4-0.6,0.8-0.9c-0.3-0.3-0.6-0.5-0.7-0.8s-0.2-0.6-0.2-1
		C21.8,430.3,22.1,429.8,22.6,429.4z M23.5,434.5c0,0.7,0.4,1.1,1.2,1.1s1.2-0.4,1.2-1.1c0-0.4-0.2-0.7-0.7-0.9h-1.1
		C23.7,433.8,23.5,434.1,23.5,434.5z M24.7,430.3c-0.4,0-0.6,0.1-0.8,0.2c-0.2,0.2-0.3,0.4-0.3,0.7s0.2,0.6,0.6,0.9h1.1
		c0.4-0.3,0.6-0.6,0.6-0.9C25.8,430.6,25.5,430.3,24.7,430.3z"/>
</g>
<line class="st33" x1="6" y1="434" x2="19.9" y2="434"/>
<line class="st33" x1="42.4" y1="434" x2="29" y2="434"/>
<g>
	<path class="st32" d="M22.6,386.3v7.9H21v-6l-1.7,1.1l-0.8-1.2l2.6-1.7H22.6z"/>
	<path class="st32" d="M25.4,387.2c0.5-0.7,1.3-1,2.3-1c1,0,1.8,0.3,2.3,1s0.8,1.7,0.8,3.2s-0.3,2.5-0.8,3.1s-1.3,0.9-2.3,0.9
		c-1,0-1.8-0.3-2.3-0.9c-0.5-0.6-0.8-1.7-0.8-3.1S24.9,387.8,25.4,387.2z M29.1,390.3c0-1-0.1-1.7-0.3-2.1c-0.2-0.4-0.6-0.6-1-0.6
		s-0.8,0.2-1.1,0.6c-0.2,0.4-0.3,1.1-0.3,2.1c0,1,0.1,1.7,0.3,2.1s0.6,0.6,1.1,0.6s0.8-0.2,1-0.6S29.1,391.3,29.1,390.3z"/>
</g>
<line class="st33" x1="5.9" y1="391.1" x2="18.3" y2="391.1"/>
<line class="st33" x1="42.3" y1="391.1" x2="31.7" y2="391.1"/>
<g>
	<path class="st32" d="M22.5,343.6v7.9h-1.7v-6l-1.7,1.1l-0.8-1.2l2.6-1.7H22.5z"/>
	<path class="st32" d="M30,343.6v1.4h-3.5l-0.2,1.7c0.5-0.2,1-0.3,1.4-0.3c1.7,0,2.6,0.8,2.6,2.4c0,0.9-0.2,1.6-0.7,2.1
		s-1.1,0.7-2,0.7c-0.4,0-0.8,0-1.3-0.1s-0.8-0.1-1.1-0.2l-0.4-0.1l0.2-1.2c1,0.2,1.8,0.2,2.4,0.2c0.4,0,0.7-0.1,0.9-0.3
		c0.2-0.2,0.3-0.5,0.3-0.9s-0.1-0.7-0.3-0.8s-0.4-0.3-0.7-0.3c-0.5,0-1,0.1-1.4,0.2l-0.2,0l-1-0.2l0.2-4.3H30z"/>
</g>
<line class="st33" x1="5.8" y1="348.4" x2="18.1" y2="348.4"/>
<line class="st33" x1="42.2" y1="348.4" x2="31.6" y2="348.4"/>
<g>
	<path class="st31" d="M20.6,222.9v-1.3h-3.4v-1.3l2-5.4H21l-2.1,5.2h1.7v-2.2h1.7v2.2H23v1.4h-0.8v1.3H20.6z"/>
	<path class="st31" d="M24.5,215.8c0.5-0.7,1.3-1,2.3-1c1,0,1.8,0.3,2.3,1s0.8,1.7,0.8,3.2s-0.3,2.5-0.8,3.1s-1.3,0.9-2.3,0.9
		c-1,0-1.8-0.3-2.3-0.9c-0.5-0.6-0.8-1.7-0.8-3.1S24,216.4,24.5,215.8z M28.2,218.9c0-1-0.1-1.7-0.3-2.1c-0.2-0.4-0.6-0.6-1-0.6
		s-0.8,0.2-1.1,0.6c-0.2,0.4-0.3,1.1-0.3,2.1c0,1,0.1,1.7,0.3,2.1s0.6,0.6,1.1,0.6s0.8-0.2,1-0.6S28.2,219.9,28.2,218.9z"/>
</g>
<line class="st33" x1="6.1" y1="220.7" x2="16.9" y2="220.7"/>
<line class="st33" x1="42" y1="220.7" x2="31" y2="220.7"/>
<g>
	<path class="st30" d="M17.2,671.7h-1.6v-6h1.6v0.3c0.6-0.3,1-0.5,1.4-0.5c0.6,0,1.1,0.2,1.5,0.6c0.7-0.4,1.4-0.6,2-0.6
		c0.8,0,1.3,0.2,1.7,0.7c0.3,0.5,0.5,1.2,0.5,2.2v3.3h-1.6v-3.2c0-0.5-0.1-0.9-0.2-1.1c-0.1-0.2-0.3-0.4-0.7-0.4
		c-0.3,0-0.6,0.1-0.9,0.2l-0.2,0.1c0,0.6,0,1.1,0,1.4v3.1h-1.6v-3.1c0-0.6-0.1-1-0.2-1.3c-0.1-0.2-0.3-0.4-0.7-0.4
		c-0.3,0-0.6,0.1-0.9,0.2l-0.1,0V671.7z"/>
	<path class="st30" d="M27.2,671.7h-1.6v-6h1.6v0.3c0.6-0.3,1-0.5,1.4-0.5c0.6,0,1.1,0.2,1.5,0.6c0.7-0.4,1.4-0.6,2-0.6
		c0.8,0,1.3,0.2,1.6,0.7c0.3,0.5,0.5,1.2,0.5,2.2v3.3h-1.6v-3.2c0-0.5-0.1-0.9-0.2-1.1c-0.1-0.2-0.3-0.4-0.7-0.4
		c-0.3,0-0.6,0.1-0.9,0.2l-0.2,0.1c0,0.6,0,1.1,0,1.4v3.1h-1.6v-3.1c0-0.6-0.1-1-0.2-1.3c-0.1-0.2-0.3-0.4-0.7-0.4
		c-0.3,0-0.6,0.1-0.9,0.2l-0.1,0V671.7z"/>
</g>
</svg>
