<?xml version="1.0" encoding="utf-8"?>
<!-- Generator: Adobe Illustrator 28.0.0, SVG Export Plug-In . SVG Version: 6.00 Build 0)  -->
<svg version="1.1" id="Livello_1" xmlns="http://www.w3.org/2000/svg" xmlns:xlink="http://www.w3.org/1999/xlink" x="0px" y="0px"
	  width="50px" height="677px" viewBox="0 0 48.7 677.2" style="enable-background:new 0 0 48.7 677.2;" xml:space="preserve">
<style type="text/css">
	.st0{fill:#961405;}
	.st1{clip-path:url(#SVGID_00000056398451783999447040000012634566380058582453_);}
	.st2{fill:#6E0E04;}
	.st3{clip-path:url(#SVGID_00000001654143749690229090000015831705767712162954_);}
	.st4{fill:#E22208;}
	.st5{clip-path:url(#SVGID_00000002375292622346602120000014442120481467695245_);}
	.st6{fill:#E86411;}
	.st7{clip-path:url(#SVGID_00000160168952804082041390000008232723831572010115_);}
	.st8{fill:#E1D52D;}
	.st9{fill:#F7EC31;}
	.st10{clip-path:url(#SVGID_00000062179496940624328540000007884471657387392442_);}
	.st11{clip-path:url(#SVGID_00000127005027699978693610000016494391954655496093_);}
	.st12{clip-path:url(#SVGID_00000023245147115677761620000002923500241466713523_);}
	.st13{fill:#173A62;}
	.st14{clip-path:url(#SVGID_00000159444084282330823660000012418489294586289331_);}
	.st15{fill:#79AADE;}
	.st16{clip-path:url(#SVGID_00000162328848624368948040000011314256846249396608_);}
	.st17{fill:#9CC1E7;}
	.st18{clip-path:url(#SVGID_00000162353937921793096810000002936326038353575828_);}
	.st19{fill:#BDD5EF;}
	.st20{clip-path:url(#SVGID_00000133500990481867167430000003923653193190949794_);}
	.st21{fill:#DEEAF7;}
	.st22{clip-path:url(#SVGID_00000059268969668571327480000018284336166453243049_);}
	.st23{fill:#235A95;}
	.st24{clip-path:url(#SVGID_00000162345625153348553880000012460008307829544612_);}
	.st25{fill:#2E6FB8;}
	.st26{fill:#548ECE;}
	.st27{fill:#39322E;}
	.st28{fill:none;}
	.st29{fill:none;stroke:#3C3430;stroke-width:2;stroke-miterlimit:9.7722;}
	.st30{fill:#3B3330;}
	.st31{fill:#3C3530;}
	.st32{fill:#FFFFFF;}
	.st33{fill:none;stroke:#3C3430;stroke-miterlimit:9.7722;}
</style>
<g>
	<g>
		<g>
			<g>
				<rect x="5.5" y="92.3" class="st0" width="37.3" height="42.7"/>
			</g>
		</g>
	</g>
</g>
<g>
	<g>
		<defs>
			<path id="SVGID_1_" d="M43.4,672.4c-0.5,3.9-10.1,8.5-18.5,8.5l0,0c-8.2,0.4-19.5-3.8-19.5-8.5V57.9C7.2,52.3,17.2,49,23.7,49
				l0,0c7.7,0,17.7,3.3,19.6,9.2L43.4,672.4L43.4,672.4z"/>
		</defs>
		<clipPath id="SVGID_00000176009715493528807090000001025821018946199175_">
			<use xlink:href="#SVGID_1_"  style="overflow:visible;"/>
		</clipPath>
	</g>
	<g>
		<defs>
			<path id="SVGID_00000095312168648917539100000002848504531118941092_" d="M43.4,672.4c-0.5,3.9-10.1,8.5-18.5,8.5l0,0
				c-8.2,0.4-19.5-3.8-19.5-8.5V57.9C7.2,52.3,17.2,49,23.7,49l0,0c7.7,0,17.7,3.3,19.6,9.2L43.4,672.4L43.4,672.4z"/>
		</defs>
		<clipPath id="SVGID_00000100371824801719904050000000184098952339136175_">
			<use xlink:href="#SVGID_00000095312168648917539100000002848504531118941092_"  style="overflow:visible;"/>
		</clipPath>
	</g>
	<g>
		<defs>
			<path id="SVGID_00000037652232036364196160000014067314433394804137_" d="M43.4,672.4c-0.5,3.9-10.1,8.5-18.5,8.5l0,0
				c-8.2,0.4-19.5-3.8-19.5-8.5V57.9C7.2,52.3,17.2,49,23.7,49l0,0c7.7,0,17.7,3.3,19.6,9.2L43.4,672.4L43.4,672.4z"/>
		</defs>
		<clipPath id="SVGID_00000032631962961242086410000000145746967269092743_">
			<use xlink:href="#SVGID_00000037652232036364196160000014067314433394804137_"  style="overflow:visible;"/>
		</clipPath>
	</g>
	<g>
		<defs>
			<path id="SVGID_00000142860664021396682610000010086634550989385094_" d="M43.4,672.4c-0.5,3.9-10.1,8.5-18.5,8.5l0,0
				c-8.2,0.4-19.5-3.8-19.5-8.5V54.7C7.2,49.2,17.2,49,23.7,49l0,0c7.7,0,17.7-0.7,19.6,5.2L43.4,672.4L43.4,672.4z"/>
		</defs>
		<clipPath id="SVGID_00000065792836620989447260000002503848710349334915_">
			<use xlink:href="#SVGID_00000142860664021396682610000010086634550989385094_"  style="overflow:visible;"/>
		</clipPath>
		<g style="clip-path:url(#SVGID_00000065792836620989447260000002503848710349334915_);">
			<g>
				<g>
					<rect x="-20" y="49" class="st2" width="100.4" height="43.7"/>
				</g>
			</g>
		</g>
	</g>
	<g>
		<defs>
			<path id="SVGID_00000117636385489574183390000010237174750630742152_" d="M43.4,672.4L43.4,672.4c-0.5,3.9-10.1,8.5-18.5,8.5l0,0
				c-8.2,0.4-19.5-3.8-19.5-8.5L5.9,54.5C7.6,49,17.2,49,23.7,49l0,0"/>
		</defs>
		<clipPath id="SVGID_00000039833979081571576630000012994457820336685216_">
			<use xlink:href="#SVGID_00000117636385489574183390000010237174750630742152_"  style="overflow:visible;"/>
		</clipPath>
		<g style="clip-path:url(#SVGID_00000039833979081571576630000012994457820336685216_);">
			<g>
				<g>
					<rect x="-24.9" y="92.3" class="st0" width="100.4" height="42.7"/>
				</g>
			</g>
		</g>
	</g>
	<g>
		<g>
			<g>
				<g>
					<rect x="5.5" y="135" class="st4" width="38.4" height="43"/>
				</g>
			</g>
		</g>
	</g>
	<g>
		<defs>
			<path id="SVGID_00000047026966082347993980000003955283457238444965_" d="M43.4,672.4c-0.5,3.9-10.1,8.5-18.5,8.5l0,0
				c-8.2,0.4-19.5-3.8-19.5-8.5L5.9,55c1.7-5.6,11.3-6,17.8-6l0,0c7.7,0,17.9-0.4,19.6,9.2L43.4,672.4L43.4,672.4z"/>
		</defs>
		<clipPath id="SVGID_00000155142825921406849470000010401848195788927410_">
			<use xlink:href="#SVGID_00000047026966082347993980000003955283457238444965_"  style="overflow:visible;"/>
		</clipPath>
		<g style="clip-path:url(#SVGID_00000155142825921406849470000010401848195788927410_);">
			<g>
				<g>
					<rect x="-20.5" y="177.9" class="st6" width="100.4" height="42.7"/>
				</g>
			</g>
		</g>
	</g>
	<g>
		<defs>
			<path id="SVGID_00000114794000041048468590000011583133341789063062_" d="M43.4,672.4c-0.5,3.9-10.1,8.5-18.5,8.5l0,0
				c-8.2,0.4-19.5-3.8-19.5-8.5L5.9,54.5C7.6,49,17.2,49,23.7,49l0,0c7.7,0,18-0.5,19.6,9.2L43.4,672.4L43.4,672.4z"/>
		</defs>
		<clipPath id="SVGID_00000004518711901298662300000004140468674064805018_">
			<use xlink:href="#SVGID_00000114794000041048468590000011583133341789063062_"  style="overflow:visible;"/>
		</clipPath>
		<g style="clip-path:url(#SVGID_00000004518711901298662300000004140468674064805018_);">
			<g>
				<g>
					<rect x="-19.5" y="220.6" class="st8" width="100.4" height="42.7"/>
				</g>
			</g>
		</g>
		<g style="clip-path:url(#SVGID_00000004518711901298662300000004140468674064805018_);">
			<g>
				<g>
					<rect x="-26.4" y="263.3" class="st9" width="100.4" height="42.7"/>
				</g>
			</g>
		</g>
	</g>
	<g>
		<defs>
			<path id="SVGID_00000036236764174800308410000004371041316743796668_" d="M43.3,58.1l0.2,614.3l0,0c-0.5,3.9-10.1,8.5-18.5,8.5
				l0,0c-8.2,0.4-19.5-3.8-19.5-8.5"/>
		</defs>
		<defs>
			<line id="SVGID_00000008829915523335215480000011665390530952821181_" x1="23.7" y1="49" x2="23.7" y2="49"/>
		</defs>
		<clipPath id="SVGID_00000142869017563431236550000011149741065660294583_">
			<use xlink:href="#SVGID_00000036236764174800308410000004371041316743796668_"  style="overflow:visible;"/>
		</clipPath>
		
			<clipPath id="SVGID_00000088118914190655345900000003834946824143832238_" style="clip-path:url(#SVGID_00000142869017563431236550000011149741065660294583_);">
			<use xlink:href="#SVGID_00000008829915523335215480000011665390530952821181_"  style="overflow:visible;"/>
		</clipPath>
		<g style="clip-path:url(#SVGID_00000088118914190655345900000003834946824143832238_);">
			<g>
				<g>
					<rect x="-19.5" y="263.2" class="st9" width="100.4" height="42.7"/>
				</g>
			</g>
		</g>
	</g>
	<g>
		<defs>
			<path id="SVGID_00000163766350006939644840000009692169647505439675_" d="M43.3,58.1l0.2,614.3l0,0c-0.5,3.9-10.1,8.5-18.5,8.5
				l0,0c-8.2,0.4-19.5-3.8-19.5-8.5V55.3C7.2,49.7,17.2,49,23.7,49l0,0"/>
		</defs>
		<clipPath id="SVGID_00000140697740336153741780000018068302524624837771_">
			<use xlink:href="#SVGID_00000163766350006939644840000009692169647505439675_"  style="overflow:visible;"/>
		</clipPath>
		<g style="clip-path:url(#SVGID_00000140697740336153741780000018068302524624837771_);">
			<g>
				<g>
					<rect x="-19.5" y="305.9" class="st13" width="100.4" height="42.7"/>
				</g>
			</g>
		</g>
	</g>
	<g>
		<defs>
			<path id="SVGID_00000026861842426695818870000012093370956897797799_" d="M43.4,672.4c-0.5,3.9-10.1,8.5-18.5,8.5l0,0
				c-8.2,0.4-19.5-3.8-19.5-8.5V54.7C7.2,49.2,17.2,49,23.7,49l0,0c7.7,0,18.2-0.4,19.6,9.2L43.4,672.4L43.4,672.4z"/>
		</defs>
		<clipPath id="SVGID_00000165938717470822174040000016245349767345698748_">
			<use xlink:href="#SVGID_00000026861842426695818870000012093370956897797799_"  style="overflow:visible;"/>
		</clipPath>
		<g style="clip-path:url(#SVGID_00000165938717470822174040000016245349767345698748_);">
			<g>
				<g>
					<rect x="-18.2" y="476.7" class="st15" width="100.4" height="42.7"/>
				</g>
			</g>
		</g>
	</g>
	<g>
		<defs>
			<path id="SVGID_00000083772116449178400790000004918794771252604821_" d="M43.4,672.4c-0.5,3.9-10.1,8.5-18.5,8.5l0,0
				c-8.2,0.4-19.5-3.8-19.5-8.5V54.7C7.2,49.2,17.2,49,23.7,49l0,0c7.7,0,18.2-0.9,19.6,9.2L43.4,672.4L43.4,672.4z"/>
		</defs>
		<clipPath id="SVGID_00000105428376488869114160000006804555817515417256_">
			<use xlink:href="#SVGID_00000083772116449178400790000004918794771252604821_"  style="overflow:visible;"/>
		</clipPath>
		<g style="clip-path:url(#SVGID_00000105428376488869114160000006804555817515417256_);">
			<g>
				<g>
					<rect x="-18.2" y="519.3" class="st17" width="100.4" height="42.7"/>
				</g>
			</g>
		</g>
	</g>
	<g>
		<defs>
			<path id="SVGID_00000093143364671223043140000003212514351211909287_" d="M43.4,672.4c-0.5,3.9-10.1,8.5-18.5,8.5l0,0
				c-8.2,0.4-19.5-3.8-19.5-8.5l0-614.5C5.3,43.6,17.1,48.8,23.7,49l0,0c7.7,0,18.3-0.5,19.6,9.2L43.4,672.4L43.4,672.4z"/>
		</defs>
		<clipPath id="SVGID_00000011730383517820146100000012686064746848361655_">
			<use xlink:href="#SVGID_00000093143364671223043140000003212514351211909287_"  style="overflow:visible;"/>
		</clipPath>
		<g style="clip-path:url(#SVGID_00000011730383517820146100000012686064746848361655_);">
			<g>
				<g>
					<rect x="-17.3" y="562" class="st19" width="100.4" height="42.7"/>
				</g>
			</g>
		</g>
	</g>
	<g>
		<defs>
			<path id="SVGID_00000119116150550534431790000013841247839025393297_" d="M43.4,672.4c-0.5,3.9-10.4,3.3-18.8,3.3l0,0
				c-8.2,0.4-18.8,0.6-18.8-4.2V53.5C7.6,48,17.2,49,23.7,49l0,0c7.7,0,17.7,0.3,19.6,6.2L43.4,672.4L43.4,672.4z"/>
		</defs>
		<clipPath id="SVGID_00000037671722566327830680000005359275969276930979_">
			<use xlink:href="#SVGID_00000119116150550534431790000013841247839025393297_"  style="overflow:visible;"/>
		</clipPath>
		<g style="clip-path:url(#SVGID_00000037671722566327830680000005359275969276930979_);">
			<g>
				<g>
					<rect x="-17.6" y="599.4" class="st21" width="100.4" height="79"/>
				</g>
			</g>
		</g>
	</g>
	<g>
		<defs>
			<path id="SVGID_00000181767357238576798410000004982565872505259658_" d="M43.4,672.4c-0.5,3.9-10.4,3.3-18.8,3.3l0,0
				c-8.2,0.4-19.2,1.4-19.2-3.3L5.9,54.5C7.6,49,17.2,49,23.7,49l0,0c7.7,0,17.2,0.6,19.1,6.5L43.4,672.4L43.4,672.4z"/>
		</defs>
		<clipPath id="SVGID_00000163763235103632880130000000702326264061747846_">
			<use xlink:href="#SVGID_00000181767357238576798410000004982565872505259658_"  style="overflow:visible;"/>
		</clipPath>
		<g style="clip-path:url(#SVGID_00000163763235103632880130000000702326264061747846_);">
			<g>
				<g>
					<rect x="-18.2" y="348.6" class="st23" width="100.4" height="42.7"/>
				</g>
			</g>
		</g>
	</g>
	<g>
		<defs>
			<path id="SVGID_00000021814966946715511740000017705345172341439646_" d="M43.4,672.4c-0.5,3.9-10.4,3.3-18.8,3.3l0,0
				c-8.2,0.4-19.2,1.4-18.4-2.8V55.2C7.2,49.2,17.2,49,23.7,49l0,0c7.7,0,17.2,0.3,19,6.2L43.4,672.4L43.4,672.4z"/>
		</defs>
		<clipPath id="SVGID_00000043434857450896440900000017503843026048545680_">
			<use xlink:href="#SVGID_00000021814966946715511740000017705345172341439646_"  style="overflow:visible;"/>
		</clipPath>
		<g style="clip-path:url(#SVGID_00000043434857450896440900000017503843026048545680_);">
			<g>
				<g>
					<rect x="-18.2" y="391.2" class="st25" width="100.4" height="42.7"/>
				</g>
			</g>
		</g>
	</g>
	<g>
		<g>
			<g>
				<g>
					<rect x="6.2" y="433.9" class="st26" width="36.7" height="42.7"/>
				</g>
			</g>
		</g>
	</g>
</g>
<circle class="st27" cx="24.1" cy="26.6" r="19.8"/>
<rect x="11.1" y="632" class="st28" width="15.4" height="11.8"/>
<path class="st29" d="M36.6,675.8H12.1c-3.4,0-6.2-2.8-6.2-6.2V56.1c0-3.4,2.8-6.2,6.2-6.2h24.5c3.4,0,6.2,2.8,6.2,6.2v613.5
	C42.8,673,40,675.8,36.6,675.8z"/>
<g>
	<path class="st30" d="M26.1,594.1v7.9h-1.7v-6l-1.7,1.1l-0.8-1.2l2.6-1.7H26.1z"/>
</g>
<g>
	<path class="st30" d="M27.1,565.1H22v-1.4l1.7-1.7c0.6-0.6,1-1.1,1.3-1.4s0.4-0.7,0.4-1s-0.1-0.6-0.3-0.8c-0.2-0.2-0.5-0.2-0.8-0.2
		c-0.5,0-1.1,0-1.8,0.1l-0.3,0l-0.1-1.3c0.8-0.2,1.6-0.4,2.4-0.4c1.7,0,2.5,0.8,2.5,2.3c0,0.6-0.1,1.1-0.4,1.5
		c-0.3,0.4-0.7,1-1.4,1.6l-1.4,1.2h3.3V565.1z"/>
</g>
<g>
	<path class="st27" d="M22,306.5v-1.3h-3.4V304l2-5.4h1.8l-2.1,5.2H22v-2.2h1.7v2.2h0.8v1.4h-0.8v1.3H22z"/>
	<path class="st27" d="M25.9,299.4c0.5-0.7,1.3-1,2.3-1c1,0,1.8,0.3,2.3,1c0.5,0.7,0.8,1.7,0.8,3.2s-0.3,2.5-0.8,3.1
		c-0.5,0.6-1.3,0.9-2.3,0.9c-1,0-1.8-0.3-2.3-0.9s-0.8-1.7-0.8-3.1S25.4,300.1,25.9,299.4z M29.6,302.6c0-1-0.1-1.7-0.3-2.1
		c-0.2-0.4-0.6-0.6-1-0.6c-0.5,0-0.8,0.2-1.1,0.6c-0.2,0.4-0.3,1.1-0.3,2.1c0,1,0.1,1.7,0.3,2.1c0.2,0.4,0.6,0.6,1.1,0.6
		c0.5,0,0.8-0.2,1-0.6S29.6,303.6,29.6,302.6z"/>
</g>
<g>
	<path class="st31" d="M23.2,257.3v1.4h-3.5l-0.2,1.7c0.5-0.2,1-0.3,1.4-0.3c1.7,0,2.6,0.8,2.6,2.4c0,0.9-0.2,1.6-0.7,2.1
		s-1.1,0.7-2,0.7c-0.4,0-0.8,0-1.3-0.1s-0.8-0.1-1.1-0.2l-0.4-0.1l0.2-1.2c1,0.2,1.8,0.2,2.4,0.2c0.4,0,0.7-0.1,0.9-0.3
		c0.2-0.2,0.3-0.5,0.3-0.9s-0.1-0.7-0.3-0.8s-0.4-0.3-0.7-0.3c-0.5,0-1,0.1-1.4,0.2l-0.2,0l-1-0.2l0.2-4.3H23.2z"/>
	<path class="st31" d="M25.1,258.1c0.5-0.7,1.3-1,2.3-1c1,0,1.8,0.3,2.3,1s0.8,1.7,0.8,3.2s-0.3,2.5-0.8,3.1s-1.3,0.9-2.3,0.9
		c-1,0-1.8-0.3-2.3-0.9c-0.5-0.6-0.8-1.7-0.8-3.1S24.6,258.7,25.1,258.1z M28.8,261.2c0-1-0.1-1.7-0.3-2.1c-0.2-0.4-0.6-0.6-1-0.6
		s-0.8,0.2-1.1,0.6c-0.2,0.4-0.3,1.1-0.3,2.1c0,1,0.1,1.7,0.3,2.1s0.6,0.6,1.1,0.6s0.8-0.2,1-0.6S28.8,262.2,28.8,261.2z"/>
</g>
<g>
	<path class="st32" d="M19.6,173.4v7.9h-1.7v-6l-1.7,1.1l-0.8-1.2l2.6-1.7H19.6z"/>
	<path class="st32" d="M22.4,174.3c0.5-0.7,1.3-1,2.3-1c1,0,1.8,0.3,2.3,1c0.5,0.7,0.8,1.7,0.8,3.2s-0.3,2.5-0.8,3.1
		c-0.5,0.6-1.3,0.9-2.3,0.9c-1,0-1.8-0.3-2.3-0.9s-0.8-1.7-0.8-3.1S21.8,174.9,22.4,174.3z M26,177.4c0-1-0.1-1.7-0.3-2.1
		c-0.2-0.4-0.6-0.6-1-0.6c-0.5,0-0.8,0.2-1.1,0.6c-0.2,0.4-0.3,1.1-0.3,2.1c0,1,0.1,1.7,0.3,2.1c0.2,0.4,0.6,0.6,1.1,0.6
		c0.5,0,0.8-0.2,1-0.6S26,178.4,26,177.4z"/>
	<path class="st32" d="M29.1,174.3c0.5-0.7,1.3-1,2.3-1c1,0,1.8,0.3,2.3,1c0.5,0.7,0.8,1.7,0.8,3.2s-0.3,2.5-0.8,3.1
		c-0.5,0.6-1.3,0.9-2.3,0.9c-1,0-1.8-0.3-2.3-0.9s-0.8-1.7-0.8-3.1S28.6,174.9,29.1,174.3z M32.7,177.4c0-1-0.1-1.7-0.3-2.1
		c-0.2-0.4-0.6-0.6-1-0.6c-0.5,0-0.8,0.2-1.1,0.6c-0.2,0.4-0.3,1.1-0.3,2.1c0,1,0.1,1.7,0.3,2.1c0.2,0.4,0.6,0.6,1.1,0.6
		c0.5,0,0.8-0.2,1-0.6S32.7,178.4,32.7,177.4z"/>
</g>
<g>
	<path class="st32" d="M19.1,129.9v7.9h-1.7v-6l-1.7,1.1l-0.8-1.2l2.6-1.7H19.1z"/>
	<path class="st32" d="M26.7,129.9v1.4h-3.5l-0.2,1.7c0.5-0.2,1-0.3,1.4-0.3c1.7,0,2.6,0.8,2.6,2.4c0,0.9-0.2,1.6-0.7,2.1
		c-0.5,0.5-1.1,0.7-2,0.7c-0.4,0-0.8,0-1.3-0.1c-0.5-0.1-0.8-0.1-1.1-0.2l-0.4-0.1l0.2-1.2c1,0.2,1.8,0.2,2.4,0.2
		c0.4,0,0.7-0.1,0.9-0.3c0.2-0.2,0.3-0.5,0.3-0.9s-0.1-0.7-0.3-0.8s-0.4-0.3-0.7-0.3c-0.5,0-1,0.1-1.4,0.2l-0.2,0l-1-0.2l0.2-4.3
		H26.7z"/>
	<path class="st32" d="M28.6,130.8c0.5-0.7,1.3-1,2.3-1c1,0,1.8,0.3,2.3,1c0.5,0.7,0.8,1.7,0.8,3.2s-0.3,2.5-0.8,3.1
		c-0.5,0.6-1.3,0.9-2.3,0.9c-1,0-1.8-0.3-2.3-0.9s-0.8-1.7-0.8-3.1S28,131.4,28.6,130.8z M32.2,133.9c0-1-0.1-1.7-0.3-2.1
		c-0.2-0.4-0.6-0.6-1-0.6c-0.5,0-0.8,0.2-1.1,0.6c-0.2,0.4-0.3,1.1-0.3,2.1c0,1,0.1,1.7,0.3,2.1c0.2,0.4,0.6,0.6,1.1,0.6
		c0.5,0,0.8-0.2,1-0.6C32.1,135.6,32.2,134.9,32.2,133.9z"/>
</g>
<g>
	<path class="st32" d="M18.4,87.5v7.9h-1.7v-6l-1.7,1.1l-0.8-1.2l2.6-1.7H18.4z"/>
	<path class="st32" d="M21.2,88.4c0.5-0.7,1.3-1,2.3-1c1,0,1.8,0.3,2.3,1s0.8,1.7,0.8,3.2s-0.3,2.5-0.8,3.1s-1.3,0.9-2.3,0.9
		c-1,0-1.8-0.3-2.3-0.9c-0.5-0.6-0.8-1.7-0.8-3.1S20.7,89,21.2,88.4z M24.9,91.5c0-1-0.1-1.7-0.3-2.1c-0.2-0.4-0.6-0.6-1-0.6
		s-0.8,0.2-1.1,0.6c-0.2,0.4-0.3,1.1-0.3,2.1c0,1,0.1,1.7,0.3,2.1s0.6,0.6,1.1,0.6s0.8-0.2,1-0.6S24.9,92.5,24.9,91.5z"/>
	<path class="st32" d="M27.9,88.4c0.5-0.7,1.3-1,2.3-1c1,0,1.8,0.3,2.3,1c0.5,0.7,0.8,1.7,0.8,3.2S33,94,32.5,94.7
		c-0.5,0.6-1.3,0.9-2.3,0.9c-1,0-1.8-0.3-2.3-0.9c-0.5-0.6-0.8-1.7-0.8-3.1S27.4,89,27.9,88.4z M31.6,91.5c0-1-0.1-1.7-0.3-2.1
		c-0.2-0.4-0.6-0.6-1-0.6s-0.8,0.2-1.1,0.6c-0.2,0.4-0.3,1.1-0.3,2.1c0,1,0.1,1.7,0.3,2.1s0.6,0.6,1.1,0.6s0.8-0.2,1-0.6
		S31.6,92.5,31.6,91.5z"/>
</g>
<line class="st33" x1="6.8" y1="599.1" x2="19.7" y2="599.1"/>
<line class="st33" x1="42.5" y1="599.1" x2="28.9" y2="599.1"/>
<line class="st33" x1="5.9" y1="562.2" x2="19.7" y2="562.2"/>
<line class="st33" x1="42.3" y1="562.2" x2="28.9" y2="562.2"/>
<line class="st33" x1="5.5" y1="305.8" x2="18.1" y2="305.8"/>
<line class="st33" x1="42.1" y1="305.9" x2="31" y2="305.9"/>
<line class="st33" x1="6.7" y1="263" x2="17.5" y2="263"/>
<line class="st33" x1="42.6" y1="263" x2="31.6" y2="263"/>
<line class="st33" x1="15.5" y1="177.8" x2="5.9" y2="177.8"/>
<line class="st33" x1="42.4" y1="178" x2="35.4" y2="178"/>
<line class="st33" x1="5.8" y1="135.2" x2="14.3" y2="135.2"/>
<line class="st33" x1="42.5" y1="135.2" x2="35" y2="135.2"/>
<line class="st33" x1="6.2" y1="92.3" x2="14.2" y2="92.3"/>
<line class="st33" x1="34.2" y1="92.3" x2="42.2" y2="92.3"/>
<g>
	<path class="st32" d="M38.8,27v-0.1c0-7.5-6.2-13.7-13.9-14.1v-1.3c0-0.3-0.3-0.7-0.8-0.7c-0.5,0-0.8,0.3-0.8,0.7v1.3
		c-7.8,0.3-13.9,6.6-13.9,14.1c0,0.3,0.3,0.7,0.8,0.7c0.2,0,0.3-0.1,0.6-0.2c2.5-2.3,5.8-2.3,8.2,0c0.1,0.1,0.3,0.2,0.6,0.2
		c0.2,0,0.3-0.1,0.5-0.2c1-0.9,2.2-1.5,3.4-1.6v9.8c0,1.9,1.7,3.7,3.8,3.7s3.8-1.6,3.8-3.7c0-0.3-0.3-0.7-0.8-0.7
		c-0.5,0-0.8,0.3-0.8,0.7c0,1.1-1,2.2-2.3,2.2c-1.3,0-2.3-1-2.3-2.2v-9.8c1.1,0.1,2.4,0.7,3.4,1.6c0.2,0.2,0.8,0.2,1,0
		c2.5-2.3,5.8-2.3,8.3,0c0.2,0.2,0.7,0.2,0.9,0.1C38.7,27.4,38.8,27.2,38.8,27z M28.1,25.5c-1.3-0.8-2.6-1.3-4-1.3h-0.1h-0.1
		c-1.4,0-2.7,0.5-4,1.3c-0.3-4.9,0.9-8.8,2.5-10.5c1-1.1,2.1-1.1,3.2,0C27.1,16.7,28.5,20.5,28.1,25.5z M10.9,25.3
		c0.7-5.4,4.8-9.6,10-10.8c-1.5,1.9-2.9,5.7-2.5,10.8C16.2,23.9,13.3,23.9,10.9,25.3z M29.7,25.3c0.3-5.1-1-8.9-2.5-10.8
		c5.4,1.3,9.4,5.5,10,10.8C34.8,23.9,32,23.9,29.7,25.3z"/>
</g>
<g>
	<path class="st30" d="M27.5,514.3v1.4H24l-0.2,1.7c0.5-0.2,1-0.3,1.4-0.3c1.7,0,2.6,0.8,2.6,2.4c0,0.9-0.2,1.6-0.7,2.1
		c-0.5,0.5-1.1,0.7-2,0.7c-0.4,0-0.8,0-1.3-0.1c-0.5-0.1-0.8-0.1-1.1-0.2l-0.4-0.1l0.2-1.2c1,0.2,1.8,0.2,2.4,0.2
		c0.4,0,0.7-0.1,0.9-0.3c0.2-0.2,0.3-0.5,0.3-0.9s-0.1-0.7-0.3-0.8s-0.4-0.3-0.7-0.3c-0.5,0-1,0.1-1.4,0.2l-0.2,0l-1-0.2l0.2-4.3
		H27.5z"/>
</g>
<line class="st33" x1="6.3" y1="519.3" x2="20.1" y2="519.3"/>
<line class="st33" x1="42.7" y1="519.3" x2="29.3" y2="519.3"/>
<g>
	<path class="st32" d="M23.5,394.2h-5.1v-1.4l1.7-1.7c0.6-0.6,1-1.1,1.3-1.4s0.4-0.7,0.4-1s-0.1-0.6-0.3-0.8
		c-0.2-0.2-0.5-0.2-0.8-0.2c-0.5,0-1.1,0-1.8,0.1l-0.3,0l-0.1-1.3c0.8-0.2,1.6-0.4,2.4-0.4c1.7,0,2.5,0.8,2.5,2.3
		c0,0.6-0.1,1.1-0.4,1.5c-0.3,0.4-0.7,1-1.4,1.6l-1.4,1.2h3.3V394.2z"/>
	<path class="st32" d="M25.4,387.2c0.5-0.7,1.3-1,2.3-1c1,0,1.8,0.3,2.3,1c0.5,0.7,0.8,1.7,0.8,3.2s-0.3,2.5-0.8,3.1
		c-0.5,0.6-1.3,0.9-2.3,0.9c-1,0-1.8-0.3-2.3-0.9s-0.8-1.7-0.8-3.1S24.9,387.8,25.4,387.2z M29.1,390.3c0-1-0.1-1.7-0.3-2.1
		c-0.2-0.4-0.6-0.6-1-0.6c-0.5,0-0.8,0.2-1.1,0.6c-0.2,0.4-0.3,1.1-0.3,2.1c0,1,0.1,1.7,0.3,2.1c0.2,0.4,0.6,0.6,1.1,0.6
		c0.5,0,0.8-0.2,1-0.6S29.1,391.3,29.1,390.3z"/>
</g>
<line class="st33" x1="5.9" y1="391.1" x2="18.3" y2="391.1"/>
<line class="st33" x1="42.3" y1="391.1" x2="31.7" y2="391.1"/>
<g>
	<path class="st32" d="M18.2,343.9c0.7-0.3,1.6-0.4,2.5-0.4s1.6,0.2,2,0.5s0.6,0.9,0.6,1.7c0,0.8-0.3,1.4-0.9,1.8
		c0.4,0.2,0.7,0.4,0.8,0.6s0.2,0.6,0.2,1.1c0,0.9-0.2,1.5-0.6,1.9c-0.4,0.4-1.1,0.6-2.1,0.6c-0.7,0-1.4-0.1-2.2-0.3l-0.4-0.1
		l0.1-1.3c0.9,0.2,1.6,0.2,2.3,0.2c0.8,0,1.2-0.4,1.2-1.1c0-0.3-0.1-0.5-0.3-0.7c-0.2-0.2-0.5-0.3-0.8-0.3H19v-1.4h1.6
		c0.3,0,0.5-0.1,0.7-0.3c0.2-0.2,0.3-0.5,0.3-0.7c0-0.6-0.4-0.9-1.2-0.9c-0.6,0-1.1,0.1-1.8,0.2l-0.3,0L18.2,343.9z"/>
	<path class="st32" d="M25.2,344.5c0.5-0.7,1.3-1,2.3-1c1,0,1.8,0.3,2.3,1s0.8,1.7,0.8,3.2s-0.3,2.5-0.8,3.1s-1.3,0.9-2.3,0.9
		c-1,0-1.8-0.3-2.3-0.9c-0.5-0.6-0.8-1.7-0.8-3.1S24.7,345.1,25.2,344.5z M28.9,347.6c0-1-0.1-1.7-0.3-2.1c-0.2-0.4-0.6-0.6-1-0.6
		s-0.8,0.2-1.1,0.6c-0.2,0.4-0.3,1.1-0.3,2.1c0,1,0.1,1.7,0.3,2.1s0.6,0.6,1.1,0.6s0.8-0.2,1-0.6S28.9,348.6,28.9,347.6z"/>
</g>
<line class="st33" x1="5.8" y1="348.4" x2="18.1" y2="348.4"/>
<line class="st33" x1="42.2" y1="348.4" x2="31.6" y2="348.4"/>
<g>
	<path class="st31" d="M17.5,216.4v-1.5h5.1v1.9l-2.8,6.2l-1.5-0.4l2.7-5.8v-0.4H17.5z"/>
	<path class="st31" d="M29.3,214.9v1.4h-3.5l-0.2,1.7c0.5-0.2,1-0.3,1.4-0.3c1.7,0,2.6,0.8,2.6,2.4c0,0.9-0.2,1.6-0.7,2.1
		s-1.1,0.7-2,0.7c-0.4,0-0.8,0-1.3-0.1s-0.8-0.1-1.1-0.2l-0.4-0.1l0.2-1.2c1,0.2,1.8,0.2,2.4,0.2c0.4,0,0.7-0.1,0.9-0.3
		c0.2-0.2,0.3-0.5,0.3-0.9s-0.1-0.7-0.3-0.8s-0.4-0.3-0.7-0.3c-0.5,0-1,0.1-1.4,0.2l-0.2,0l-1-0.2l0.2-4.3H29.3z"/>
</g>
<line class="st33" x1="6.1" y1="220.7" x2="16.9" y2="220.7"/>
<line class="st33" x1="42" y1="220.7" x2="31" y2="220.7"/>
<g>
	<path class="st30" d="M17.2,671.7h-1.6v-6h1.6v0.3c0.6-0.3,1-0.5,1.4-0.5c0.6,0,1.1,0.2,1.5,0.6c0.7-0.4,1.4-0.6,2-0.6
		c0.8,0,1.3,0.2,1.7,0.7c0.3,0.5,0.5,1.2,0.5,2.2v3.3h-1.6v-3.2c0-0.5-0.1-0.9-0.2-1.1c-0.1-0.2-0.3-0.4-0.7-0.4
		c-0.3,0-0.6,0.1-0.9,0.2l-0.2,0.1c0,0.6,0,1.1,0,1.4v3.1h-1.6v-3.1c0-0.6-0.1-1-0.2-1.3c-0.1-0.2-0.3-0.4-0.7-0.4
		c-0.3,0-0.6,0.1-0.9,0.2l-0.1,0V671.7z"/>
	<path class="st30" d="M27.2,671.7h-1.6v-6h1.6v0.3c0.6-0.3,1-0.5,1.4-0.5c0.6,0,1.1,0.2,1.5,0.6c0.7-0.4,1.4-0.6,2-0.6
		c0.8,0,1.3,0.2,1.6,0.7c0.3,0.5,0.5,1.2,0.5,2.2v3.3h-1.6v-3.2c0-0.5-0.1-0.9-0.2-1.1c-0.1-0.2-0.3-0.4-0.7-0.4
		c-0.3,0-0.6,0.1-0.9,0.2l-0.2,0.1c0,0.6,0,1.1,0,1.4v3.1h-1.6v-3.1c0-0.6-0.1-1-0.2-1.3c-0.1-0.2-0.3-0.4-0.7-0.4
		c-0.3,0-0.6,0.1-0.9,0.2l-0.1,0V671.7z"/>
</g>
<g>
	<path class="st30" d="M22.2,471.2v7.9h-1.7v-6l-1.7,1.1l-0.8-1.2l2.6-1.7H22.2z"/>
	<path class="st30" d="M24.9,472c0.5-0.7,1.3-1,2.3-1c1,0,1.8,0.3,2.3,1s0.8,1.7,0.8,3.2s-0.3,2.5-0.8,3.1s-1.3,0.9-2.3,0.9
		c-1,0-1.8-0.3-2.3-0.9c-0.5-0.6-0.8-1.7-0.8-3.1S24.4,472.7,24.9,472z M28.6,475.1c0-1-0.1-1.7-0.3-2.1c-0.2-0.4-0.6-0.6-1-0.6
		s-0.8,0.2-1.1,0.6c-0.2,0.4-0.3,1.1-0.3,2.1c0,1,0.1,1.7,0.3,2.1s0.6,0.6,1.1,0.6s0.8-0.2,1-0.6S28.6,476.1,28.6,475.1z"/>
</g>
<line class="st33" x1="5.5" y1="476" x2="17.8" y2="476"/>
<line class="st33" x1="41.9" y1="476" x2="31.3" y2="476"/>
<g>
	<path class="st30" d="M22.7,428.8v7.9H21v-6l-1.7,1.1l-0.8-1.2l2.6-1.7H22.7z"/>
	<path class="st30" d="M30.2,428.8v1.4h-3.5l-0.2,1.7c0.5-0.2,1-0.3,1.4-0.3c1.7,0,2.6,0.8,2.6,2.4c0,0.9-0.2,1.6-0.7,2.1
		c-0.5,0.5-1.1,0.7-2,0.7c-0.4,0-0.8,0-1.3-0.1c-0.5-0.1-0.8-0.1-1.1-0.2l-0.4-0.1l0.2-1.2c1,0.2,1.8,0.2,2.4,0.2
		c0.4,0,0.7-0.1,0.9-0.3c0.2-0.2,0.3-0.5,0.3-0.9s-0.1-0.7-0.3-0.8s-0.4-0.3-0.7-0.3c-0.5,0-1,0.1-1.4,0.2l-0.2,0l-1-0.2l0.2-4.3
		H30.2z"/>
</g>
<line class="st33" x1="6" y1="433.6" x2="18.3" y2="433.6"/>
<line class="st33" x1="42.4" y1="433.6" x2="31.8" y2="433.6"/>
</svg>
