<?xml version="1.0" encoding="utf-8"?>
<!-- Generator: Adobe Illustrator 28.0.0, SVG Export Plug-In . SVG Version: 6.00 Build 0)  -->
<svg version="1.1" id="Livello_1" xmlns="http://www.w3.org/2000/svg" xmlns:xlink="http://www.w3.org/1999/xlink" x="0px" y="0px"
	 width="50px" height="677px"  viewBox="0 0 48.7 677.2" style="enable-background:new 0 0 48.7 677.2;" xml:space="preserve">
<style type="text/css">
	.st0{fill:#961405;}
	.st1{clip-path:url(#SVGID_00000125587473499777469960000010356160989349656727_);}
	.st2{fill:#6E0E04;}
	.st3{clip-path:url(#SVGID_00000020363195957057465170000009418547527687032212_);}
	.st4{fill:#E22208;}
	.st5{clip-path:url(#SVGID_00000013915699516569602940000010623645294159607453_);}
	.st6{fill:#E86411;}
	.st7{clip-path:url(#SVGID_00000085932381455671321390000012051219895980337597_);}
	.st8{fill:#E1D52D;}
	.st9{fill:#F7EC31;}
	.st10{clip-path:url(#SVGID_00000024705327670089845710000015909731050679113912_);}
	.st11{clip-path:url(#SVGID_00000004539589342461840150000008184421023754366911_);}
	.st12{clip-path:url(#SVGID_00000044167451648606527650000013447451912679296916_);}
	.st13{fill:#173A62;}
	.st14{clip-path:url(#SVGID_00000010999709541180000910000016559866706641866681_);}
	.st15{fill:#79AADE;}
	.st16{clip-path:url(#SVGID_00000163047437952657270420000008170249697878337201_);}
	.st17{fill:#9CC1E7;}
	.st18{clip-path:url(#SVGID_00000051377583006558338050000010414328388535537849_);}
	.st19{fill:#BDD5EF;}
	.st20{clip-path:url(#SVGID_00000009585165387961209790000008177410960987623847_);}
	.st21{fill:#DEEAF7;}
	.st22{clip-path:url(#SVGID_00000023257238460352432530000002506641429502619546_);}
	.st23{fill:#235A95;}
	.st24{clip-path:url(#SVGID_00000045590694971008746860000011758511925691689381_);}
	.st25{fill:#2E6FB8;}
	.st26{fill:#548ECE;}
	.st27{fill:#39322E;}
	.st28{fill:none;}
	.st29{fill:none;stroke:#3C3430;stroke-width:2;stroke-miterlimit:9.7722;}
	.st30{fill:#3B3330;}
	.st31{fill:#FFFFFF;}
	.st32{fill:#3C3530;}
	.st33{fill:none;stroke:#3C3430;stroke-miterlimit:9.7722;}
</style>
<g>
	<g>
		<g>
			<g>
				<rect x="5.5" y="92.3" class="st0" width="37.3" height="42.7"/>
			</g>
		</g>
	</g>
</g>
<g>
	<g>
		<defs>
			<path id="SVGID_1_" d="M43.4,672.4c-0.5,3.9-10.1,8.5-18.5,8.5l0,0c-8.2,0.4-19.5-3.8-19.5-8.5V57.9C7.2,52.3,17.2,49,23.7,49
				l0,0c7.7,0,17.7,3.3,19.6,9.2L43.4,672.4L43.4,672.4z"/>
		</defs>
		<clipPath id="SVGID_00000132063596777757042280000008237107560970398355_">
			<use xlink:href="#SVGID_1_"  style="overflow:visible;"/>
		</clipPath>
	</g>
	<g>
		<defs>
			<path id="SVGID_00000067226069663939750120000007848948190265129088_" d="M43.4,672.4c-0.5,3.9-10.1,8.5-18.5,8.5l0,0
				c-8.2,0.4-19.5-3.8-19.5-8.5V57.9C7.2,52.3,17.2,49,23.7,49l0,0c7.7,0,17.7,3.3,19.6,9.2L43.4,672.4L43.4,672.4z"/>
		</defs>
		<clipPath id="SVGID_00000098201132207064235440000015859046840629094302_">
			<use xlink:href="#SVGID_00000067226069663939750120000007848948190265129088_"  style="overflow:visible;"/>
		</clipPath>
	</g>
	<g>
		<defs>
			<path id="SVGID_00000098201978036823304830000006749879730905575328_" d="M43.4,672.4c-0.5,3.9-10.1,8.5-18.5,8.5l0,0
				c-8.2,0.4-19.5-3.8-19.5-8.5V57.9C7.2,52.3,17.2,49,23.7,49l0,0c7.7,0,17.7,3.3,19.6,9.2L43.4,672.4L43.4,672.4z"/>
		</defs>
		<clipPath id="SVGID_00000107569940640371111970000000545206653844555422_">
			<use xlink:href="#SVGID_00000098201978036823304830000006749879730905575328_"  style="overflow:visible;"/>
		</clipPath>
	</g>
	<g>
		<defs>
			<path id="SVGID_00000079486284171702348020000004427888020241481871_" d="M43.4,672.4c-0.5,3.9-10.1,8.5-18.5,8.5l0,0
				c-8.2,0.4-19.5-3.8-19.5-8.5V54.7C7.2,49.2,17.2,49,23.7,49l0,0c7.7,0,17.7-0.7,19.6,5.2L43.4,672.4L43.4,672.4z"/>
		</defs>
		<clipPath id="SVGID_00000063605678934044922770000008576882321475435412_">
			<use xlink:href="#SVGID_00000079486284171702348020000004427888020241481871_"  style="overflow:visible;"/>
		</clipPath>
		<g style="clip-path:url(#SVGID_00000063605678934044922770000008576882321475435412_);">
			<g>
				<g>
					<rect x="-20" y="49" class="st2" width="100.4" height="43.7"/>
				</g>
			</g>
		</g>
	</g>
	<g>
		<defs>
			<path id="SVGID_00000161625378608519707080000006768965230189093250_" d="M43.4,672.4L43.4,672.4c-0.5,3.9-10.1,8.5-18.5,8.5l0,0
				c-8.2,0.4-19.5-3.8-19.5-8.5L5.9,54.5C7.6,49,17.2,49,23.7,49l0,0"/>
		</defs>
		<clipPath id="SVGID_00000182497735365235935860000002334208960619191938_">
			<use xlink:href="#SVGID_00000161625378608519707080000006768965230189093250_"  style="overflow:visible;"/>
		</clipPath>
		<g style="clip-path:url(#SVGID_00000182497735365235935860000002334208960619191938_);">
			<g>
				<g>
					<rect x="-24.9" y="92.3" class="st0" width="100.4" height="42.7"/>
				</g>
			</g>
		</g>
	</g>
	<g>
		<g>
			<g>
				<g>
					<rect x="5.5" y="135" class="st4" width="38.4" height="43"/>
				</g>
			</g>
		</g>
	</g>
	<g>
		<defs>
			<path id="SVGID_00000066482193925166999140000014284777802070402479_" d="M43.4,672.4c-0.5,3.9-10.1,8.5-18.5,8.5l0,0
				c-8.2,0.4-19.5-3.8-19.5-8.5L5.9,55c1.7-5.6,11.3-6,17.8-6l0,0c7.7,0,17.9-0.4,19.6,9.2L43.4,672.4L43.4,672.4z"/>
		</defs>
		<clipPath id="SVGID_00000015352154311826450290000000419753820560876464_">
			<use xlink:href="#SVGID_00000066482193925166999140000014284777802070402479_"  style="overflow:visible;"/>
		</clipPath>
		<g style="clip-path:url(#SVGID_00000015352154311826450290000000419753820560876464_);">
			<g>
				<g>
					<rect x="-20.5" y="177.9" class="st6" width="100.4" height="42.7"/>
				</g>
			</g>
		</g>
	</g>
	<g>
		<defs>
			<path id="SVGID_00000110467663830103053930000008249156870673477793_" d="M43.4,672.4c-0.5,3.9-10.1,8.5-18.5,8.5l0,0
				c-8.2,0.4-19.5-3.8-19.5-8.5L5.9,54.5C7.6,49,17.2,49,23.7,49l0,0c7.7,0,18-0.5,19.6,9.2L43.4,672.4L43.4,672.4z"/>
		</defs>
		<clipPath id="SVGID_00000074400114747428421410000017500351218346256819_">
			<use xlink:href="#SVGID_00000110467663830103053930000008249156870673477793_"  style="overflow:visible;"/>
		</clipPath>
		<g style="clip-path:url(#SVGID_00000074400114747428421410000017500351218346256819_);">
			<g>
				<g>
					<rect x="-19.5" y="220.6" class="st8" width="100.4" height="42.7"/>
				</g>
			</g>
		</g>
		<g style="clip-path:url(#SVGID_00000074400114747428421410000017500351218346256819_);">
			<g>
				<g>
					<rect x="-26.4" y="263.3" class="st9" width="100.4" height="42.7"/>
				</g>
			</g>
		</g>
	</g>
	<g>
		<defs>
			<path id="SVGID_00000062873125398274102890000016893082235778023070_" d="M43.3,58.1l0.2,614.3l0,0c-0.5,3.9-10.1,8.5-18.5,8.5
				l0,0c-8.2,0.4-19.5-3.8-19.5-8.5"/>
		</defs>
		<defs>
			<line id="SVGID_00000009552942477822119820000017460806285690510258_" x1="23.7" y1="49" x2="23.7" y2="49"/>
		</defs>
		<clipPath id="SVGID_00000173856929520201582950000006535338175525925311_">
			<use xlink:href="#SVGID_00000062873125398274102890000016893082235778023070_"  style="overflow:visible;"/>
		</clipPath>
		
			<clipPath id="SVGID_00000063634515976499573460000012201873025071264916_" style="clip-path:url(#SVGID_00000173856929520201582950000006535338175525925311_);">
			<use xlink:href="#SVGID_00000009552942477822119820000017460806285690510258_"  style="overflow:visible;"/>
		</clipPath>
		<g style="clip-path:url(#SVGID_00000063634515976499573460000012201873025071264916_);">
			<g>
				<g>
					<rect x="-19.5" y="263.2" class="st9" width="100.4" height="42.7"/>
				</g>
			</g>
		</g>
	</g>
	<g>
		<defs>
			<path id="SVGID_00000072240153859416862740000018029723722550482062_" d="M43.3,58.1l0.2,614.3l0,0c-0.5,3.9-10.1,8.5-18.5,8.5
				l0,0c-8.2,0.4-19.5-3.8-19.5-8.5V55.3C7.2,49.7,17.2,49,23.7,49l0,0"/>
		</defs>
		<clipPath id="SVGID_00000129906490288496295570000011531254828181699987_">
			<use xlink:href="#SVGID_00000072240153859416862740000018029723722550482062_"  style="overflow:visible;"/>
		</clipPath>
		<g style="clip-path:url(#SVGID_00000129906490288496295570000011531254828181699987_);">
			<g>
				<g>
					<rect x="-19.5" y="305.9" class="st13" width="100.4" height="42.7"/>
				</g>
			</g>
		</g>
	</g>
	<g>
		<defs>
			<path id="SVGID_00000173120998913294650430000017769549528100392588_" d="M43.4,672.4c-0.5,3.9-10.1,8.5-18.5,8.5l0,0
				c-8.2,0.4-19.5-3.8-19.5-8.5V54.7C7.2,49.2,17.2,49,23.7,49l0,0c7.7,0,18.2-0.4,19.6,9.2L43.4,672.4L43.4,672.4z"/>
		</defs>
		<clipPath id="SVGID_00000168816160718218205170000018270734343586236338_">
			<use xlink:href="#SVGID_00000173120998913294650430000017769549528100392588_"  style="overflow:visible;"/>
		</clipPath>
		<g style="clip-path:url(#SVGID_00000168816160718218205170000018270734343586236338_);">
			<g>
				<g>
					<rect x="-18.2" y="476.7" class="st15" width="100.4" height="42.7"/>
				</g>
			</g>
		</g>
	</g>
	<g>
		<defs>
			<path id="SVGID_00000150796779062129859170000012520111343691903408_" d="M43.4,672.4c-0.5,3.9-10.1,8.5-18.5,8.5l0,0
				c-8.2,0.4-19.5-3.8-19.5-8.5V54.7C7.2,49.2,17.2,49,23.7,49l0,0c7.7,0,18.2-0.9,19.6,9.2L43.4,672.4L43.4,672.4z"/>
		</defs>
		<clipPath id="SVGID_00000006666550863559340470000003919805362181412272_">
			<use xlink:href="#SVGID_00000150796779062129859170000012520111343691903408_"  style="overflow:visible;"/>
		</clipPath>
		<g style="clip-path:url(#SVGID_00000006666550863559340470000003919805362181412272_);">
			<g>
				<g>
					<rect x="-18.2" y="519.3" class="st17" width="100.4" height="42.7"/>
				</g>
			</g>
		</g>
	</g>
	<g>
		<defs>
			<path id="SVGID_00000183247157876216661960000007898457256364745142_" d="M43.4,672.4c-0.5,3.9-10.1,8.5-18.5,8.5l0,0
				c-8.2,0.4-19.5-3.8-19.5-8.5l0-614.5C5.3,43.6,17.1,48.8,23.7,49l0,0c7.7,0,18.3-0.5,19.6,9.2L43.4,672.4L43.4,672.4z"/>
		</defs>
		<clipPath id="SVGID_00000047020187008114237850000002951351076155032751_">
			<use xlink:href="#SVGID_00000183247157876216661960000007898457256364745142_"  style="overflow:visible;"/>
		</clipPath>
		<g style="clip-path:url(#SVGID_00000047020187008114237850000002951351076155032751_);">
			<g>
				<g>
					<rect x="-17.3" y="562" class="st19" width="100.4" height="42.7"/>
				</g>
			</g>
		</g>
	</g>
	<g>
		<defs>
			<path id="SVGID_00000119810066864101382000000018401481704543496118_" d="M43.4,672.4c-0.5,3.9-10.4,3.3-18.8,3.3l0,0
				c-8.2,0.4-18.8,0.6-18.8-4.2V53.5C7.6,48,17.2,49,23.7,49l0,0c7.7,0,17.7,0.3,19.6,6.2L43.4,672.4L43.4,672.4z"/>
		</defs>
		<clipPath id="SVGID_00000068667503552784695940000010705114884483994542_">
			<use xlink:href="#SVGID_00000119810066864101382000000018401481704543496118_"  style="overflow:visible;"/>
		</clipPath>
		<g style="clip-path:url(#SVGID_00000068667503552784695940000010705114884483994542_);">
			<g>
				<g>
					<rect x="-17.6" y="599.4" class="st21" width="100.4" height="79"/>
				</g>
			</g>
		</g>
	</g>
	<g>
		<defs>
			<path id="SVGID_00000173146904625643429060000013862236604908808106_" d="M43.4,672.4c-0.5,3.9-10.4,3.3-18.8,3.3l0,0
				c-8.2,0.4-19.2,1.4-19.2-3.3L5.9,54.5C7.6,49,17.2,49,23.7,49l0,0c7.7,0,17.2,0.6,19.1,6.5L43.4,672.4L43.4,672.4z"/>
		</defs>
		<clipPath id="SVGID_00000107580570499750835860000007676021616141974203_">
			<use xlink:href="#SVGID_00000173146904625643429060000013862236604908808106_"  style="overflow:visible;"/>
		</clipPath>
		<g style="clip-path:url(#SVGID_00000107580570499750835860000007676021616141974203_);">
			<g>
				<g>
					<rect x="-18.2" y="348.6" class="st23" width="100.4" height="42.7"/>
				</g>
			</g>
		</g>
	</g>
	<g>
		<defs>
			<path id="SVGID_00000143595356555494314050000010293040983705409419_" d="M43.4,672.4c-0.5,3.9-10.4,3.3-18.8,3.3l0,0
				c-8.2,0.4-19.2,1.4-18.4-2.8V55.2C7.2,49.2,17.2,49,23.7,49l0,0c7.7,0,17.2,0.3,19,6.2L43.4,672.4L43.4,672.4z"/>
		</defs>
		<clipPath id="SVGID_00000045585475497532517390000009932537801646073004_">
			<use xlink:href="#SVGID_00000143595356555494314050000010293040983705409419_"  style="overflow:visible;"/>
		</clipPath>
		<g style="clip-path:url(#SVGID_00000045585475497532517390000009932537801646073004_);">
			<g>
				<g>
					<rect x="-18.2" y="391.2" class="st25" width="100.4" height="42.7"/>
				</g>
			</g>
		</g>
	</g>
	<g>
		<g>
			<g>
				<g>
					<rect x="6.2" y="433.9" class="st26" width="36.7" height="42.7"/>
				</g>
			</g>
		</g>
	</g>
</g>
<circle class="st27" cx="24.1" cy="26.6" r="19.8"/>
<rect x="11.1" y="632" class="st28" width="15.4" height="11.8"/>
<path class="st29" d="M36.6,675.8H12.1c-3.4,0-6.2-2.8-6.2-6.2V56.1c0-3.4,2.8-6.2,6.2-6.2h24.5c3.4,0,6.2,2.8,6.2,6.2v613.5
	C42.8,673,40,675.8,36.6,675.8z"/>
<g>
	<path class="st30" d="M25.8,594.3v7.9h-0.9v-6.9l-2,1.3l-0.4-0.7l2.5-1.7H25.8z"/>
</g>
<g>
	<path class="st30" d="M27.1,565.3H22v-0.8l2.3-2.4c0.4-0.4,0.7-0.7,0.9-0.9c0.2-0.2,0.4-0.5,0.5-0.8c0.1-0.3,0.2-0.6,0.2-0.9
		c0-0.5-0.1-0.9-0.4-1.1c-0.3-0.2-0.7-0.3-1.3-0.3c-0.5,0-1.1,0.1-1.7,0.2l-0.3,0.1l-0.1-0.8c0.8-0.2,1.5-0.3,2.4-0.3
		c0.8,0,1.4,0.2,1.8,0.5c0.4,0.3,0.6,0.9,0.6,1.6c0,0.6-0.1,1-0.4,1.5s-0.7,0.9-1.3,1.5l-2.1,2.1h4V565.3z"/>
</g>
<g>
	<path class="st31" d="M21.3,308.2v-1.5h-3.8V306l2.3-5.7h1l-2.3,5.6h2.9v-2.5h0.9v2.5h1v0.8h-1v1.5H21.3z"/>
	<path class="st31" d="M27.1,300.2c0.7,0,1.2,0.1,1.6,0.4c0.9,0.5,1.3,1.8,1.3,3.8c0,1.4-0.2,2.5-0.7,3.1c-0.5,0.6-1.2,0.9-2.2,0.9
		s-1.7-0.3-2.2-0.9c-0.5-0.6-0.7-1.6-0.7-3.1c0-1.5,0.2-2.6,0.7-3.2C25.4,300.5,26.1,300.2,27.1,300.2z M27.1,301
		c-0.5,0-0.8,0.1-1.1,0.3c-0.6,0.4-0.9,1.4-0.9,3.1c0,1.2,0.2,2,0.5,2.5c0.3,0.5,0.8,0.7,1.5,0.7s1.2-0.2,1.5-0.7
		c0.3-0.5,0.5-1.3,0.5-2.5s-0.1-2.1-0.5-2.6C28.3,301.3,27.8,301,27.1,301z"/>
</g>
<g>
	<path class="st32" d="M23,257.5v0.8h-3.9l-0.2,2.6c0.6-0.3,1.2-0.5,1.9-0.5c1.7,0,2.5,0.8,2.5,2.3c0,0.9-0.2,1.6-0.7,2.1
		c-0.5,0.5-1.1,0.7-2,0.7c-0.7,0-1.4-0.1-2.2-0.3l-0.4-0.1l0.1-0.7c0.9,0.2,1.7,0.3,2.3,0.3s1.1-0.2,1.4-0.5
		c0.3-0.3,0.5-0.8,0.5-1.4s-0.1-1-0.4-1.2s-0.7-0.4-1.2-0.4c-0.3,0-0.6,0-0.9,0.1c-0.3,0.1-0.6,0.2-0.7,0.2l-0.3,0.1l-0.6-0.1
		l0.2-4.1H23z"/>
	<path class="st32" d="M27.4,257.3c0.7,0,1.2,0.1,1.6,0.4c0.9,0.5,1.3,1.8,1.3,3.8c0,1.4-0.2,2.5-0.7,3.1c-0.5,0.6-1.2,0.9-2.2,0.9
		s-1.7-0.3-2.2-0.9c-0.5-0.6-0.7-1.6-0.7-3.1c0-1.5,0.2-2.6,0.7-3.2C25.7,257.6,26.4,257.3,27.4,257.3z M27.4,258.2
		c-0.5,0-0.8,0.1-1.1,0.3c-0.6,0.4-0.9,1.4-0.9,3.1c0,1.2,0.2,2,0.5,2.5c0.3,0.5,0.8,0.7,1.5,0.7s1.2-0.2,1.5-0.7
		c0.3-0.5,0.5-1.3,0.5-2.5s-0.1-2.1-0.5-2.6C28.6,258.4,28.1,258.2,27.4,258.2z"/>
</g>
<g>
	<path class="st31" d="M19.2,173.7v7.9h-0.9v-6.9l-2,1.3l-0.4-0.7l2.5-1.7H19.2z"/>
	<path class="st31" d="M24.6,173.5c0.7,0,1.2,0.1,1.6,0.4c0.9,0.5,1.3,1.8,1.3,3.8c0,1.4-0.2,2.5-0.7,3.1c-0.5,0.6-1.2,0.9-2.2,0.9
		s-1.7-0.3-2.2-0.9c-0.5-0.6-0.7-1.6-0.7-3.1c0-1.5,0.2-2.6,0.7-3.2C23,173.8,23.7,173.5,24.6,173.5z M24.7,174.4
		c-0.5,0-0.8,0.1-1.1,0.3c-0.6,0.4-0.9,1.4-0.9,3.1c0,1.2,0.2,2,0.5,2.5c0.3,0.5,0.8,0.7,1.5,0.7s1.2-0.2,1.5-0.7
		c0.3-0.5,0.5-1.3,0.5-2.5s-0.2-2.1-0.5-2.6S25.3,174.4,24.7,174.4z"/>
	<path class="st31" d="M31.4,173.5c0.7,0,1.2,0.1,1.6,0.4c0.9,0.5,1.3,1.8,1.3,3.8c0,1.4-0.2,2.5-0.7,3.1c-0.5,0.6-1.2,0.9-2.2,0.9
		c-1,0-1.7-0.3-2.2-0.9c-0.5-0.6-0.7-1.6-0.7-3.1c0-1.5,0.2-2.6,0.7-3.2C29.7,173.8,30.4,173.5,31.4,173.5z M31.4,174.4
		c-0.5,0-0.8,0.1-1.1,0.3c-0.6,0.4-0.9,1.4-0.9,3.1c0,1.2,0.2,2,0.5,2.5c0.3,0.5,0.8,0.7,1.5,0.7c0.7,0,1.2-0.2,1.5-0.7
		c0.3-0.5,0.5-1.3,0.5-2.5s-0.2-2.1-0.5-2.6S32.1,174.4,31.4,174.4z"/>
</g>
<g>
	<path class="st31" d="M18.7,130.1v7.9h-0.9v-6.9l-2,1.3l-0.4-0.7l2.5-1.7H18.7z"/>
	<path class="st31" d="M26.5,130.1v0.8h-3.9l-0.2,2.6c0.6-0.3,1.2-0.5,1.9-0.5c1.7,0,2.5,0.8,2.5,2.3c0,0.9-0.2,1.6-0.7,2.1
		c-0.5,0.5-1.1,0.7-2,0.7c-0.7,0-1.4-0.1-2.2-0.3l-0.4-0.1l0.1-0.7c0.9,0.2,1.7,0.3,2.3,0.3s1.1-0.2,1.4-0.5
		c0.3-0.3,0.5-0.8,0.5-1.4s-0.1-1-0.4-1.2s-0.7-0.4-1.2-0.4c-0.3,0-0.6,0-0.9,0.1c-0.3,0.1-0.6,0.2-0.7,0.2l-0.3,0.1l-0.6-0.1
		l0.2-4.1H26.5z"/>
	<path class="st31" d="M30.8,130c0.7,0,1.2,0.1,1.6,0.4c0.9,0.5,1.3,1.8,1.3,3.8c0,1.4-0.2,2.5-0.7,3.1c-0.5,0.6-1.2,0.9-2.2,0.9
		s-1.7-0.3-2.2-0.9c-0.5-0.6-0.7-1.6-0.7-3.1c0-1.5,0.2-2.6,0.7-3.2C29.1,130.3,29.9,130,30.8,130z M30.8,130.8
		c-0.5,0-0.8,0.1-1.1,0.3c-0.6,0.4-0.9,1.4-0.9,3.1c0,1.2,0.2,2,0.5,2.5c0.3,0.5,0.8,0.7,1.5,0.7s1.2-0.2,1.5-0.7
		c0.3-0.5,0.5-1.3,0.5-2.5s-0.2-2.1-0.5-2.6S31.5,130.8,30.8,130.8z"/>
</g>
<g>
	<path class="st31" d="M19.3,95.7h-5.1v-0.8l2.3-2.4c0.4-0.4,0.7-0.7,0.9-0.9c0.2-0.2,0.4-0.5,0.5-0.8c0.1-0.3,0.2-0.6,0.2-0.9
		c0-0.5-0.1-0.9-0.4-1.1c-0.3-0.2-0.7-0.3-1.3-0.3c-0.5,0-1.1,0.1-1.7,0.2l-0.3,0.1L14.3,88c0.8-0.2,1.5-0.3,2.4-0.3
		c0.8,0,1.4,0.2,1.8,0.5c0.4,0.3,0.6,0.9,0.6,1.6c0,0.6-0.1,1-0.4,1.5s-0.7,0.9-1.3,1.5l-2.1,2.1h4V95.7z"/>
	<path class="st31" d="M23.5,87.6c0.7,0,1.2,0.1,1.6,0.4c0.9,0.5,1.3,1.8,1.3,3.8c0,1.4-0.2,2.5-0.7,3.1c-0.5,0.6-1.2,0.9-2.2,0.9
		s-1.7-0.3-2.2-0.9c-0.5-0.6-0.7-1.6-0.7-3.1c0-1.5,0.2-2.6,0.7-3.2C21.8,87.9,22.5,87.6,23.5,87.6z M23.5,88.5
		c-0.5,0-0.8,0.1-1.1,0.3c-0.6,0.4-0.9,1.4-0.9,3.1c0,1.2,0.2,2,0.5,2.5c0.3,0.5,0.8,0.7,1.5,0.7s1.2-0.2,1.5-0.7
		c0.3-0.5,0.5-1.3,0.5-2.5s-0.1-2.1-0.5-2.6C24.7,88.7,24.2,88.5,23.5,88.5z"/>
	<path class="st31" d="M30.2,87.6c0.7,0,1.2,0.1,1.6,0.4c0.9,0.5,1.3,1.8,1.3,3.8c0,1.4-0.2,2.5-0.7,3.1c-0.5,0.6-1.2,0.9-2.2,0.9
		s-1.7-0.3-2.2-0.9c-0.5-0.6-0.7-1.6-0.7-3.1c0-1.5,0.2-2.6,0.7-3.2C28.5,87.9,29.2,87.6,30.2,87.6z M30.2,88.5
		c-0.5,0-0.8,0.1-1.1,0.3c-0.6,0.4-0.9,1.4-0.9,3.1c0,1.2,0.2,2,0.5,2.5c0.3,0.5,0.8,0.7,1.5,0.7s1.2-0.2,1.5-0.7
		c0.3-0.5,0.5-1.3,0.5-2.5s-0.1-2.1-0.5-2.6C31.4,88.7,30.9,88.5,30.2,88.5z"/>
</g>
<line class="st33" x1="6.8" y1="599.1" x2="19.7" y2="599.1"/>
<line class="st33" x1="42.5" y1="599.1" x2="28.9" y2="599.1"/>
<line class="st33" x1="5.9" y1="562.2" x2="19.7" y2="562.2"/>
<line class="st33" x1="42.3" y1="562.2" x2="28.9" y2="562.2"/>
<line class="st33" x1="5.5" y1="305.8" x2="18.1" y2="305.8"/>
<line class="st33" x1="42.1" y1="305.9" x2="31" y2="305.9"/>
<line class="st33" x1="6.7" y1="263" x2="17.5" y2="263"/>
<line class="st33" x1="42.6" y1="263" x2="31.6" y2="263"/>
<line class="st33" x1="15.5" y1="177.8" x2="5.9" y2="177.8"/>
<line class="st33" x1="42.4" y1="178" x2="35.4" y2="178"/>
<line class="st33" x1="5.8" y1="135.2" x2="14.3" y2="135.2"/>
<line class="st33" x1="42.5" y1="135.2" x2="35" y2="135.2"/>
<line class="st33" x1="6.2" y1="92.3" x2="14.2" y2="92.3"/>
<line class="st33" x1="34.2" y1="92.3" x2="42.2" y2="92.3"/>
<g>
	<path class="st31" d="M38.8,27v-0.1c0-7.5-6.2-13.7-13.9-14.1v-1.3c0-0.3-0.3-0.7-0.8-0.7c-0.5,0-0.8,0.3-0.8,0.7v1.3
		c-7.8,0.3-13.9,6.6-13.9,14.1c0,0.3,0.3,0.7,0.8,0.7c0.2,0,0.3-0.1,0.6-0.2c2.5-2.3,5.8-2.3,8.2,0c0.1,0.1,0.3,0.2,0.6,0.2
		c0.2,0,0.3-0.1,0.5-0.2c1-0.9,2.2-1.5,3.4-1.6v9.8c0,1.9,1.7,3.7,3.8,3.7s3.8-1.6,3.8-3.7c0-0.3-0.3-0.7-0.8-0.7
		c-0.5,0-0.8,0.3-0.8,0.7c0,1.1-1,2.2-2.3,2.2c-1.3,0-2.3-1-2.3-2.2v-9.8c1.1,0.1,2.4,0.7,3.4,1.6c0.2,0.2,0.8,0.2,1,0
		c2.5-2.3,5.8-2.3,8.3,0c0.2,0.2,0.7,0.2,0.9,0.1C38.7,27.4,38.8,27.2,38.8,27z M28.1,25.5c-1.3-0.8-2.6-1.3-4-1.3h-0.1h-0.1
		c-1.4,0-2.7,0.5-4,1.3c-0.3-4.9,0.9-8.8,2.5-10.5c1-1.1,2.1-1.1,3.2,0C27.1,16.7,28.5,20.5,28.1,25.5z M10.9,25.3
		c0.7-5.4,4.8-9.6,10-10.8c-1.5,1.9-2.9,5.7-2.5,10.8C16.2,23.9,13.3,23.9,10.9,25.3z M29.7,25.3c0.3-5.1-1-8.9-2.5-10.8
		c5.4,1.3,9.4,5.5,10,10.8C34.8,23.9,32,23.9,29.7,25.3z"/>
</g>
<g>
	<path class="st30" d="M27.3,514.5v0.8h-3.9l-0.2,2.6c0.6-0.3,1.2-0.5,1.9-0.5c1.7,0,2.5,0.8,2.5,2.3c0,0.9-0.2,1.6-0.7,2.1
		c-0.5,0.5-1.1,0.7-2,0.7c-0.7,0-1.4-0.1-2.2-0.3l-0.4-0.1l0.1-0.7c0.9,0.2,1.7,0.3,2.3,0.3s1.1-0.2,1.4-0.5
		c0.3-0.3,0.5-0.8,0.5-1.4s-0.1-1-0.4-1.2s-0.7-0.4-1.2-0.4c-0.3,0-0.6,0-0.9,0.1c-0.3,0.1-0.6,0.2-0.7,0.2l-0.3,0.1l-0.6-0.1
		l0.2-4.1H27.3z"/>
</g>
<line class="st33" x1="6.3" y1="519.3" x2="20.1" y2="519.3"/>
<line class="st33" x1="42.7" y1="519.3" x2="29.3" y2="519.3"/>
<g>
	<path class="st31" d="M23.5,394.5h-5.1v-0.8l2.3-2.4c0.4-0.4,0.7-0.7,0.9-0.9c0.2-0.2,0.4-0.5,0.5-0.8c0.1-0.3,0.2-0.6,0.2-0.9
		c0-0.5-0.1-0.9-0.4-1.1c-0.3-0.2-0.7-0.3-1.3-0.3c-0.5,0-1.1,0.1-1.7,0.2l-0.3,0.1l-0.1-0.8c0.8-0.2,1.5-0.3,2.4-0.3
		c0.8,0,1.4,0.2,1.8,0.5c0.4,0.3,0.6,0.9,0.6,1.6c0,0.6-0.1,1-0.4,1.5s-0.7,0.9-1.3,1.5l-2.1,2.1h4V394.5z"/>
	<path class="st31" d="M27.7,386.4c0.7,0,1.2,0.1,1.6,0.4c0.9,0.5,1.3,1.8,1.3,3.8c0,1.4-0.2,2.5-0.7,3.1c-0.5,0.6-1.2,0.9-2.2,0.9
		s-1.7-0.3-2.2-0.9c-0.5-0.6-0.7-1.6-0.7-3.1c0-1.5,0.2-2.6,0.7-3.2C26,386.7,26.7,386.4,27.7,386.4z M27.7,387.2
		c-0.5,0-0.8,0.1-1.1,0.3c-0.6,0.4-0.9,1.4-0.9,3.1c0,1.2,0.2,2,0.5,2.5c0.3,0.5,0.8,0.7,1.5,0.7s1.2-0.2,1.5-0.7
		c0.3-0.5,0.5-1.3,0.5-2.5s-0.2-2.1-0.5-2.6S28.4,387.2,27.7,387.2z"/>
</g>
<line class="st33" x1="5.9" y1="391.1" x2="18.3" y2="391.1"/>
<line class="st33" x1="42.3" y1="391.1" x2="31.7" y2="391.1"/>
<g>
	<path class="st31" d="M18.3,344c0.8-0.2,1.6-0.3,2.4-0.3s1.5,0.2,1.9,0.5s0.6,0.9,0.6,1.6c0,0.4-0.1,0.6-0.2,0.8
		c-0.1,0.2-0.2,0.3-0.2,0.4c-0.1,0.1-0.1,0.2-0.2,0.3c-0.2,0.1-0.3,0.2-0.4,0.3l-0.1,0.1c0.5,0.2,0.8,0.4,1,0.6s0.3,0.7,0.3,1.3
		c0,0.8-0.2,1.4-0.6,1.8c-0.4,0.4-1.1,0.6-1.9,0.6c-0.7,0-1.4-0.1-2.2-0.2l-0.4-0.1l0.1-0.8c0.9,0.2,1.7,0.3,2.4,0.3
		c1.1,0,1.7-0.5,1.7-1.5c0-1-0.5-1.4-1.6-1.5h-1.6v-0.8h1.6c0.3,0,0.7-0.1,1-0.4c0.3-0.3,0.5-0.6,0.5-1.1c0-0.4-0.1-0.8-0.4-1
		s-0.7-0.3-1.2-0.3c-0.6,0-1.3,0.1-1.9,0.2l-0.3,0.1L18.3,344z"/>
	<path class="st31" d="M27.5,343.7c0.7,0,1.2,0.1,1.6,0.4c0.9,0.5,1.3,1.8,1.3,3.8c0,1.4-0.2,2.5-0.7,3.1c-0.5,0.6-1.2,0.9-2.2,0.9
		s-1.7-0.3-2.2-0.9c-0.5-0.6-0.7-1.6-0.7-3.1c0-1.5,0.2-2.6,0.7-3.2C25.8,344,26.5,343.7,27.5,343.7z M27.5,344.5
		c-0.5,0-0.8,0.1-1.1,0.3c-0.6,0.4-0.9,1.4-0.9,3.1c0,1.2,0.2,2,0.5,2.5c0.3,0.5,0.8,0.7,1.5,0.7s1.2-0.2,1.5-0.7
		c0.3-0.5,0.5-1.3,0.5-2.5s-0.1-2.1-0.5-2.6C28.7,344.8,28.2,344.5,27.5,344.5z"/>
</g>
<line class="st33" x1="5.8" y1="348.4" x2="18.1" y2="348.4"/>
<line class="st33" x1="42.2" y1="348.4" x2="31.6" y2="348.4"/>
<g>
	<path class="st32" d="M17.6,216v-0.8h4.9v1.2l-3,6.8l-0.9-0.3l3-6.6V216H17.6z"/>
	<path class="st32" d="M29.2,215.2v0.8h-3.9l-0.2,2.6c0.6-0.3,1.2-0.5,1.9-0.5c1.7,0,2.5,0.8,2.5,2.3c0,0.9-0.2,1.6-0.7,2.1
		c-0.5,0.5-1.1,0.7-2,0.7c-0.7,0-1.4-0.1-2.2-0.3l-0.4-0.1l0.1-0.7c0.9,0.2,1.7,0.3,2.3,0.3s1.1-0.2,1.4-0.5
		c0.3-0.3,0.5-0.8,0.5-1.4s-0.1-1-0.4-1.2s-0.7-0.4-1.2-0.4c-0.3,0-0.6,0-0.9,0.1c-0.3,0.1-0.6,0.2-0.7,0.2l-0.3,0.1l-0.6-0.1
		l0.2-4.1H29.2z"/>
</g>
<line class="st33" x1="6.1" y1="220.7" x2="16.9" y2="220.7"/>
<line class="st33" x1="42" y1="220.7" x2="31" y2="220.7"/>
<g>
	<path class="st30" d="M16.6,671.9h-0.9v-6h0.9v0.4c0.6-0.4,1.2-0.5,1.8-0.5c0.7,0,1.3,0.2,1.6,0.6c0.3-0.2,0.6-0.3,1-0.4
		s0.8-0.2,1.1-0.2c0.8,0,1.3,0.2,1.6,0.6c0.3,0.4,0.4,1.2,0.4,2.3v3.2h-0.9v-3.1c0-0.8-0.1-1.4-0.2-1.7c-0.2-0.3-0.5-0.5-1-0.5
		c-0.3,0-0.5,0-0.8,0.1s-0.5,0.2-0.6,0.2l-0.2,0.1c0.1,0.3,0.2,0.8,0.2,1.8v3.1h-0.9v-3.1c0-0.9-0.1-1.5-0.2-1.8
		c-0.2-0.3-0.5-0.5-1-0.5c-0.3,0-0.5,0-0.8,0.1c-0.3,0.1-0.5,0.2-0.6,0.2l-0.2,0.1V671.9z"/>
	<path class="st30" d="M26.6,671.9h-0.9v-6h0.9v0.4c0.6-0.4,1.2-0.5,1.8-0.5c0.7,0,1.3,0.2,1.6,0.6c0.3-0.2,0.6-0.3,1-0.4
		s0.8-0.2,1.1-0.2c0.8,0,1.3,0.2,1.6,0.6c0.3,0.4,0.4,1.2,0.4,2.3v3.2h-0.9v-3.1c0-0.8-0.1-1.4-0.2-1.7c-0.2-0.3-0.5-0.5-1-0.5
		c-0.3,0-0.5,0-0.8,0.1s-0.5,0.2-0.6,0.2l-0.2,0.1c0.1,0.3,0.2,0.8,0.2,1.8v3.1h-0.9v-3.1c0-0.9-0.1-1.5-0.2-1.8
		c-0.2-0.3-0.5-0.5-1-0.5c-0.3,0-0.5,0-0.8,0.1c-0.3,0.1-0.5,0.2-0.6,0.2l-0.2,0.1V671.9z"/>
</g>
<g>
	<path class="st30" d="M21.8,471.4v7.9h-0.9v-6.9l-2,1.3l-0.4-0.7l2.5-1.7H21.8z"/>
	<path class="st30" d="M27.2,471.3c0.7,0,1.2,0.1,1.6,0.4c0.9,0.5,1.3,1.8,1.3,3.8c0,1.4-0.2,2.5-0.7,3.1c-0.5,0.6-1.2,0.9-2.2,0.9
		s-1.7-0.3-2.2-0.9c-0.5-0.6-0.7-1.6-0.7-3.1c0-1.5,0.2-2.6,0.7-3.2C25.5,471.6,26.2,471.3,27.2,471.3z M27.2,472.1
		c-0.5,0-0.8,0.1-1.1,0.3c-0.6,0.4-0.9,1.4-0.9,3.1c0,1.2,0.2,2,0.5,2.5c0.3,0.5,0.8,0.7,1.5,0.7s1.2-0.2,1.5-0.7
		c0.3-0.5,0.5-1.3,0.5-2.5s-0.1-2.1-0.5-2.6C28.4,472.3,27.9,472.1,27.2,472.1z"/>
</g>
<line class="st33" x1="5.5" y1="476" x2="17.8" y2="476"/>
<line class="st33" x1="41.9" y1="476" x2="31.3" y2="476"/>
<g>
	<path class="st30" d="M22.3,429v7.9h-0.9V430l-2,1.3l-0.4-0.7l2.5-1.7H22.3z"/>
	<path class="st30" d="M30.1,429v0.8h-3.9l-0.2,2.6c0.6-0.3,1.2-0.5,1.9-0.5c1.7,0,2.5,0.8,2.5,2.3c0,0.9-0.2,1.6-0.7,2.1
		c-0.5,0.5-1.1,0.7-2,0.7c-0.7,0-1.4-0.1-2.2-0.3l-0.4-0.1l0.1-0.7c0.9,0.2,1.7,0.3,2.3,0.3s1.1-0.2,1.4-0.5
		c0.3-0.3,0.5-0.8,0.5-1.4s-0.1-1-0.4-1.2s-0.7-0.4-1.2-0.4c-0.3,0-0.6,0-0.9,0.1c-0.3,0.1-0.6,0.2-0.7,0.2l-0.3,0.1l-0.6-0.1
		l0.2-4.1H30.1z"/>
</g>
<line class="st33" x1="6" y1="433.6" x2="18.3" y2="433.6"/>
<line class="st33" x1="42.4" y1="433.6" x2="31.8" y2="433.6"/>
</svg>
