<?xml version="1.0" encoding="utf-8"?>
<!-- Generator: Adobe Illustrator 28.0.0, SVG Export Plug-In . SVG Version: 6.00 Build 0)  -->
<svg version="1.1" id="Livello_1" xmlns="http://www.w3.org/2000/svg" xmlns:xlink="http://www.w3.org/1999/xlink" x="0px" y="0px"
	 width="38px" height="644px" viewBox="0 0 37.2 644.1" style="enable-background:new 0 0 37.2 644.1;" xml:space="preserve">
<style type="text/css">
	.st0{fill:none;stroke:#3C3430;stroke-width:3;stroke-miterlimit:10;}
	.st1{fill:#FFFFFF;}
	.st2{clip-path:url(#SVGID_00000052818600734519736840000008399988359811755152_);}
	.st3{fill:#6E0E04;}
	.st4{fill:#961405;}
	.st5{fill:#E22208;}
	.st6{fill:#E86411;}
	.st7{fill:#E1D52D;}
	.st8{fill:#F7EC31;}
	.st9{fill:#173A62;}
	.st10{fill:#79AADE;}
	.st11{fill:#9CC1E7;}
	.st12{fill:#BDD5EF;}
	.st13{fill:#DEEAF7;}
	.st14{fill:#235A95;}
	.st15{fill:#2E6FB8;}
	.st16{fill:#548ECE;}
	.st17{fill:none;stroke:#3B3330;stroke-width:3;stroke-miterlimit:10;}
	.st18{fill:none;}
	.st19{enable-background:new    ;}
	.st20{fill:#3B3330;}
	.st21{fill:#39322E;}
	.st22{clip-path:url(#SVGID_00000122716154945543640160000015452057904558408627_);}
</style>
<path class="st0" d="M30.6,632.7c-0.3,3.7-6.4,8.1-11.7,8.1l0,0c-5.2,0.4-12.3-3.6-12.3-8.1V48.6c1.1-5.3,7.4-8.5,11.5-8.5l0,0
	c4.9,0,11.2,3.1,12.4,8.7L30.6,632.7L30.6,632.7z"/>
<g>
	<g>
		<path class="st1" d="M19.1,82.6h-1.4v1.8h-1.4v-1.8h-4.4v-1l3.9-5.1h1.6l-3.7,4.8h2.6v-1.6h1.4v1.6h1.4V82.6z"/>
		<path class="st1" d="M25.4,83.2v1.2h-5.8v-1l3.1-3c0.4-0.3,0.6-0.6,0.7-0.9s0.2-0.5,0.2-0.7c0-0.4-0.1-0.6-0.4-0.8
			c-0.2-0.2-0.6-0.3-1.1-0.3c-0.8,0-1.4,0.3-1.8,0.8l-1-0.8c0.3-0.4,0.7-0.7,1.2-1c0.5-0.2,1.1-0.3,1.8-0.3c0.9,0,1.5,0.2,2.1,0.6
			c0.5,0.4,0.8,1,0.8,1.7c0,0.4-0.1,0.8-0.3,1.2s-0.5,0.8-1,1.3l-2.1,2L25.4,83.2L25.4,83.2z"/>
	</g>
</g>
<g>
	<defs>
		<path id="SVGID_1_" d="M30.7,633.8c-0.3,3.7-6.4,8.1-11.7,8.1l0,0c-5.2,0.4-12.3-3.6-12.3-8.1V49.7c1.1-5.3,7.4-8.5,11.5-8.5l0,0
			c4.9,0,11.2,3.1,12.4,8.7L30.7,633.8L30.7,633.8z"/>
	</defs>
	<clipPath id="SVGID_00000137133785595250897340000004577328620822987965_">
		<use xlink:href="#SVGID_1_"  style="overflow:visible;"/>
	</clipPath>
	<g style="clip-path:url(#SVGID_00000137133785595250897340000004577328620822987965_);">
		<g>
			<g>
				<defs>
					<path id="SVGID_00000065792402485227024430000011800781530624343472_" d="M36.6,633.9c-0.5,4.7-8.1,10.4-14.7,10.4l0,0
						c-6.6,0.5-15.6-4.6-15.6-10.4v-743.1C7.8-116,15.6-120,20.9-120l0,0c6.1,0,14.2,4.1,15.7,11V633.9L36.6,633.9z"/>
				</defs>
				<clipPath id="SVGID_00000073000515459826967060000002265992591540797597_">
					<use xlink:href="#SVGID_00000065792402485227024430000011800781530624343472_"  style="overflow:visible;"/>
				</clipPath>
			</g>
		</g>
	</g>
	<g style="clip-path:url(#SVGID_00000137133785595250897340000004577328620822987965_);">
		<g>
			<g>
				<defs>
					<path id="SVGID_00000078044944776956227150000014888166514966529447_" d="M36.6,633.9c-0.5,4.7-8.1,10.4-14.7,10.4l0,0
						c-6.6,0.5-15.6-4.6-15.6-10.4v-743.1C7.8-116,15.6-120,20.9-120l0,0c6.1,0,14.2,4.1,15.7,11V633.9L36.6,633.9z"/>
				</defs>
				<clipPath id="SVGID_00000089575662513751332660000013178631069702386840_">
					<use xlink:href="#SVGID_00000078044944776956227150000014888166514966529447_"  style="overflow:visible;"/>
				</clipPath>
			</g>
		</g>
	</g>
	<g style="clip-path:url(#SVGID_00000137133785595250897340000004577328620822987965_);">
		<g>
			<g>
				<defs>
					<path id="SVGID_00000059283027127370074840000010048295623567392650_" d="M36.6,633.9c-0.5,4.7-8.1,10.4-14.7,10.4l0,0
						c-6.6,0.5-15.6-4.6-15.6-10.4v-743.1C7.8-116,15.6-120,20.9-120l0,0c6.1,0,14.2,4.1,15.7,11V633.9L36.6,633.9z"/>
				</defs>
				<clipPath id="SVGID_00000126320731780370392370000004163225428307924911_">
					<use xlink:href="#SVGID_00000059283027127370074840000010048295623567392650_"  style="overflow:visible;"/>
				</clipPath>
			</g>
		</g>
	</g>
	<g style="clip-path:url(#SVGID_00000137133785595250897340000004577328620822987965_);">
		<g>
			<g>
				<rect x="-9.7" y="42" class="st3" width="63.5" height="40.6"/>
			</g>
		</g>
	</g>
	<g style="clip-path:url(#SVGID_00000137133785595250897340000004577328620822987965_);">
		<g>
			<g>
				<rect x="-9.7" y="82.6" class="st4" width="63.5" height="40.6"/>
			</g>
		</g>
	</g>
	<g style="clip-path:url(#SVGID_00000137133785595250897340000004577328620822987965_);">
		<g>
			<g>
				<rect x="-9.7" y="123.2" class="st5" width="63.5" height="40.6"/>
			</g>
		</g>
	</g>
	<g style="clip-path:url(#SVGID_00000137133785595250897340000004577328620822987965_);">
		<g>
			<g>
				<rect x="-9.7" y="163.7" class="st6" width="63.5" height="40.6"/>
			</g>
		</g>
	</g>
	<g style="clip-path:url(#SVGID_00000137133785595250897340000004577328620822987965_);">
		<g>
			<g>
				<rect x="-9.1" y="204.3" class="st7" width="63.5" height="40.6"/>
			</g>
		</g>
	</g>
	<g style="clip-path:url(#SVGID_00000137133785595250897340000004577328620822987965_);">
		<g>
			<g>
				<rect x="-9.1" y="244.8" class="st8" width="63.5" height="40.6"/>
			</g>
		</g>
	</g>
	<g style="clip-path:url(#SVGID_00000137133785595250897340000004577328620822987965_);">
		<g>
			<g>
				<rect x="-9.1" y="285.4" class="st9" width="63.5" height="40.6"/>
			</g>
		</g>
	</g>
	<g style="clip-path:url(#SVGID_00000137133785595250897340000004577328620822987965_);">
		<g>
			<g>
				<rect x="-8.3" y="447.7" class="st10" width="63.5" height="40.6"/>
			</g>
		</g>
	</g>
	<g style="clip-path:url(#SVGID_00000137133785595250897340000004577328620822987965_);">
		<g>
			<g>
				<rect x="-8.3" y="488.2" class="st11" width="63.5" height="40.6"/>
			</g>
		</g>
	</g>
	<g style="clip-path:url(#SVGID_00000137133785595250897340000004577328620822987965_);">
		<g>
			<g>
				<rect x="-7.7" y="528.8" class="st12" width="63.5" height="40.6"/>
			</g>
		</g>
	</g>
	<g style="clip-path:url(#SVGID_00000137133785595250897340000004577328620822987965_);">
		<g>
			<g>
				<rect x="-7.7" y="569.3" class="st13" width="63.5" height="75.1"/>
			</g>
		</g>
	</g>
	<g style="clip-path:url(#SVGID_00000137133785595250897340000004577328620822987965_);">
		<g>
			<g>
				<rect x="-8.3" y="326" class="st14" width="63.5" height="40.6"/>
			</g>
		</g>
	</g>
	<g style="clip-path:url(#SVGID_00000137133785595250897340000004577328620822987965_);">
		<g>
			<g>
				<rect x="-8.3" y="366.5" class="st15" width="63.5" height="40.6"/>
			</g>
		</g>
	</g>
	<g style="clip-path:url(#SVGID_00000137133785595250897340000004577328620822987965_);">
		<g>
			<g>
				<rect x="-8.3" y="407.1" class="st16" width="63.5" height="40.6"/>
			</g>
		</g>
	</g>
</g>
<path class="st17" d="M30.6,634.3c-0.2,3.1-6.4,8.2-11.6,8.2l0,0c-5.2,0.4-12.3-3.6-12.3-8.2V48.8c1.2-5.4,7.3-8.5,11.5-8.5l0,0
	c4.8,0,11.2,3.2,12.4,8.7V634.3L30.6,634.3z"/>
<rect x="7" y="50" class="st18" width="23.9" height="11.5"/>
<rect x="6.6" y="83.6" class="st18" width="23.9" height="11.5"/>
<rect x="6.6" y="117.3" class="st18" width="23.9" height="11.5"/>
<rect x="6.6" y="180" class="st18" width="23.9" height="11.5"/>
<rect x="7" y="213" class="st18" width="23.9" height="11.5"/>
<rect x="6.9" y="244.2" class="st18" width="23.9" height="11.5"/>
<rect x="7" y="275.9" class="st18" width="23.9" height="11.5"/>
<rect x="7" y="307.7" class="st18" width="23.9" height="11.5"/>
<rect x="7" y="338.8" class="st18" width="23.9" height="11.5"/>
<rect x="7" y="369.7" class="st18" width="23.9" height="11.5"/>
<rect x="6.6" y="402.8" class="st18" width="23.9" height="11.5"/>
<rect x="7" y="434.7" class="st18" width="23.9" height="11.5"/>
<rect x="7" y="467.5" class="st18" width="23.9" height="11.5"/>
<rect x="5.9" y="498.5" class="st18" width="23.9" height="11.5"/>
<rect x="7" y="530" class="st18" width="23.9" height="11.5"/>
<rect x="5.9" y="561.7" class="st18" width="23.9" height="11.5"/>
<rect x="7" y="594" class="st18" width="23.9" height="11.4"/>
<rect x="-2.7" y="618.7" class="st18" width="39.7" height="18.7"/>
<g class="st19">
	<path d="M17.7,624.3c0.3,0.3,0.5,0.8,0.5,1.4v2.4h-1v-2.3c0-0.4-0.1-0.6-0.3-0.8s-0.4-0.3-0.7-0.3c-0.3,0-0.6,0.1-0.8,0.3
		s-0.3,0.5-0.3,0.9v2.1h-1v-2.3c0-0.4-0.1-0.6-0.3-0.8s-0.4-0.3-0.7-0.3s-0.6,0.1-0.8,0.3s-0.3,0.5-0.3,0.9v2.1h-1v-4.2h1v0.5
		c0.2-0.2,0.4-0.3,0.6-0.4c0.2-0.1,0.5-0.1,0.8-0.1s0.6,0.1,0.9,0.2c0.3,0.1,0.5,0.3,0.6,0.5c0.2-0.2,0.4-0.4,0.7-0.5
		s0.6-0.2,0.9-0.2C17,623.8,17.4,624,17.7,624.3z"/>
	<path d="M26.3,624.3c0.3,0.3,0.5,0.8,0.5,1.4v2.4h-1v-2.3c0-0.4-0.1-0.6-0.3-0.8c-0.2-0.2-0.4-0.3-0.7-0.3c-0.3,0-0.6,0.1-0.8,0.3
		c-0.2,0.2-0.3,0.5-0.3,0.9v2.1h-1v-2.3c0-0.4-0.1-0.6-0.3-0.8s-0.4-0.3-0.7-0.3c-0.3,0-0.6,0.1-0.8,0.3c-0.2,0.2-0.3,0.5-0.3,0.9
		v2.1h-1v-4.2h1v0.5c0.2-0.2,0.4-0.3,0.6-0.4c0.2-0.1,0.5-0.1,0.8-0.1s0.6,0.1,0.9,0.2c0.3,0.1,0.5,0.3,0.6,0.5
		c0.2-0.2,0.4-0.4,0.7-0.5c0.3-0.1,0.6-0.2,0.9-0.2C25.5,623.8,26,624,26.3,624.3z"/>
</g>
<g>
	<path class="st20" d="M19,590.2v7.7h-1.4v-6.5H16v-1.2H19z"/>
</g>
<g>
	<path class="st20" d="M21.7,550.4v1.2H16v-1l3.1-2.9c0.3-0.3,0.6-0.6,0.7-0.9c0.1-0.2,0.2-0.5,0.2-0.7c0-0.4-0.1-0.6-0.4-0.8
		c-0.2-0.2-0.6-0.3-1.1-0.3c-0.8,0-1.4,0.3-1.8,0.8l-1-0.8c0.3-0.4,0.7-0.7,1.2-0.9s1.1-0.3,1.7-0.3c0.8,0,1.5,0.2,2,0.6
		c0.5,0.4,0.7,0.9,0.7,1.6c0,0.4-0.1,0.8-0.3,1.2c-0.2,0.4-0.5,0.8-1,1.3l-2.1,2L21.7,550.4L21.7,550.4z"/>
</g>
<g>
	<path class="st20" d="M21,508.3h-1.4v1.7h-1.4v-1.7H14v-1l3.8-5h1.5l-3.6,4.7h2.5v-1.6h1.3v1.6h1.4v1.3H21z"/>
</g>
<g>
	<path class="st20" d="M20,466.2c0.4,0.2,0.7,0.5,0.9,0.8c0.2,0.3,0.3,0.8,0.3,1.2c0,0.5-0.1,0.9-0.4,1.3c-0.3,0.4-0.6,0.7-1,0.9
		c-0.4,0.2-0.9,0.3-1.4,0.3c-1.1,0-1.9-0.3-2.5-1c-0.6-0.7-0.9-1.6-0.9-2.8c0-0.9,0.2-1.6,0.5-2.2c0.3-0.6,0.8-1.1,1.3-1.4
		c0.6-0.3,1.2-0.5,2-0.5c0.4,0,0.8,0,1.1,0.1c0.3,0.1,0.7,0.2,0.9,0.4l-0.5,1.1c-0.4-0.2-0.9-0.4-1.5-0.4c-0.7,0-1.3,0.2-1.7,0.7
		s-0.6,1.1-0.6,2l0,0c0.2-0.3,0.5-0.5,0.9-0.6c0.4-0.1,0.7-0.2,1.2-0.2S19.6,466,20,466.2z M19.5,469.2c0.3-0.2,0.4-0.6,0.4-1
		c0-0.4-0.1-0.7-0.4-1c-0.3-0.2-0.7-0.4-1.1-0.4c-0.5,0-0.8,0.1-1.1,0.4c-0.3,0.2-0.4,0.6-0.4,0.9c0,0.4,0.1,0.7,0.4,0.9
		c0.3,0.2,0.7,0.4,1.2,0.4C18.8,469.5,19.2,469.5,19.5,469.2z"/>
</g>
<g>
	<path class="st20" d="M21.3,425.1c0.2,0.3,0.3,0.7,0.3,1.1c0,0.5-0.1,0.9-0.4,1.2c-0.3,0.4-0.6,0.6-1.1,0.8c-0.5,0.2-1,0.3-1.7,0.3
		s-1.2-0.1-1.7-0.3c-0.5-0.2-0.8-0.5-1.1-0.8c-0.3-0.4-0.4-0.8-0.4-1.2c0-0.4,0.1-0.8,0.3-1.1s0.5-0.6,0.9-0.7
		c-0.3-0.2-0.5-0.4-0.7-0.7c-0.2-0.3-0.2-0.6-0.2-1s0.1-0.8,0.4-1.1c0.2-0.3,0.6-0.6,1-0.7c0.4-0.1,0.9-0.3,1.5-0.3
		c0.6,0,1.1,0.1,1.5,0.3c0.4,0.2,0.8,0.4,1,0.7c0.2,0.3,0.4,0.7,0.4,1.1s-0.1,0.7-0.3,0.9c-0.2,0.2-0.4,0.5-0.7,0.7
		C20.8,424.5,21.1,424.8,21.3,425.1z M19.7,427c0.3-0.2,0.5-0.5,0.5-0.9s-0.2-0.7-0.5-0.9c-0.3-0.2-0.7-0.3-1.3-0.3
		c-0.5,0-0.9,0.1-1.2,0.3c-0.3,0.2-0.5,0.5-0.5,0.9s0.2,0.7,0.5,0.9s0.7,0.3,1.2,0.3C19,427.4,19.4,427.2,19.7,427z M17.4,422
		c-0.3,0.2-0.4,0.5-0.4,0.8s0.1,0.6,0.4,0.8c0.3,0.2,0.6,0.3,1.1,0.3s0.8-0.1,1.1-0.3c0.3-0.2,0.4-0.5,0.4-0.8s-0.1-0.6-0.4-0.8
		c-0.3-0.2-0.6-0.3-1.1-0.3S17.7,421.8,17.4,422z"/>
</g>
<g>
	<path class="st1" d="M15.9,380.4v7.7h-1.4v-6.5h-1.6v-1.2H15.9z"/>
	<path class="st1" d="M18.9,387.7c-0.5-0.3-0.9-0.8-1.1-1.4c-0.3-0.6-0.4-1.3-0.4-2.1s0.1-1.5,0.4-2.1s0.7-1.1,1.1-1.4
		c0.5-0.3,1-0.5,1.7-0.5c0.6,0,1.2,0.2,1.7,0.5s0.9,0.8,1.1,1.4s0.4,1.3,0.4,2.1s-0.1,1.5-0.4,2.1s-0.7,1.1-1.1,1.4
		c-0.5,0.3-1,0.5-1.7,0.5C20,388.2,19.4,388.1,18.9,387.7z M21.9,386.3c0.3-0.5,0.5-1.1,0.5-2s-0.2-1.6-0.5-2
		c-0.3-0.5-0.8-0.7-1.3-0.7s-1,0.2-1.3,0.7s-0.5,1.1-0.5,2s0.2,1.6,0.5,2c0.3,0.5,0.8,0.7,1.3,0.7S21.6,386.7,21.9,386.3z"/>
</g>
<g>
	<path class="st1" d="M16.4,340.7v7.7H15v-6.5h-1.6v-1.2H16.4z"/>
	<path class="st1" d="M22.8,344.3c0.5,0.4,0.8,1,0.8,1.7c0,0.5-0.1,0.9-0.3,1.3c-0.2,0.4-0.6,0.7-1,0.9c-0.5,0.2-1,0.3-1.7,0.3
		c-0.5,0-1.1-0.1-1.6-0.2c-0.5-0.2-0.9-0.4-1.3-0.7l0.6-1.1c0.3,0.2,0.6,0.4,1,0.6c0.4,0.1,0.8,0.2,1.2,0.2c0.5,0,0.9-0.1,1.2-0.3
		c0.3-0.2,0.4-0.5,0.4-0.9s-0.2-0.7-0.5-0.9c-0.3-0.2-0.8-0.3-1.6-0.3h-1.9l0.4-4.2H23v1.2h-3.3l-0.2,1.8h0.7
		C21.5,343.7,22.3,343.9,22.8,344.3z"/>
</g>
<g>
	<path class="st1" d="M17.6,308.7v1.2h-5.7v-1L15,306c0.3-0.3,0.6-0.6,0.7-0.9c0.1-0.2,0.2-0.5,0.2-0.7c0-0.4-0.1-0.6-0.4-0.8
		c-0.2-0.2-0.6-0.3-1.1-0.3c-0.8,0-1.4,0.3-1.8,0.8l-1-0.8c0.3-0.4,0.7-0.7,1.2-0.9s1.1-0.3,1.7-0.3c0.8,0,1.5,0.2,2,0.6
		s0.7,0.9,0.7,1.6c0,0.4-0.1,0.8-0.3,1.2c-0.2,0.4-0.5,0.8-1,1.3l-2.1,2h3.8C17.5,308.8,17.5,308.7,17.6,308.7z"/>
	<path class="st1" d="M20,309.5c-0.5-0.3-0.9-0.8-1.1-1.4c-0.3-0.6-0.4-1.3-0.4-2.1s0.1-1.5,0.4-2.1s0.7-1.1,1.1-1.4
		c0.5-0.3,1-0.5,1.7-0.5c0.6,0,1.2,0.2,1.7,0.5s0.9,0.8,1.1,1.4s0.4,1.3,0.4,2.1s-0.1,1.5-0.4,2.1s-0.7,1.1-1.1,1.4
		c-0.5,0.3-1,0.5-1.7,0.5S20.5,309.9,20,309.5z M22.9,308.1c0.3-0.5,0.5-1.1,0.5-2s-0.2-1.6-0.5-2c-0.3-0.5-0.8-0.7-1.3-0.7
		s-1,0.2-1.3,0.7s-0.5,1.1-0.5,2s0.2,1.6,0.5,2c0.3,0.5,0.8,0.7,1.3,0.7C22.2,308.8,22.6,308.5,22.9,308.1z"/>
</g>
<g>
	<path class="st20" d="M19,270.6v1.2h-5.7v-1l3.1-2.9c0.3-0.3,0.6-0.6,0.7-0.9c0.1-0.2,0.2-0.5,0.2-0.7c0-0.4-0.1-0.6-0.4-0.8
		c-0.2-0.2-0.6-0.3-1.1-0.3c-0.8,0-1.4,0.3-1.8,0.8l-1-0.8c0.3-0.4,0.7-0.7,1.2-0.9s1.1-0.3,1.7-0.3c0.8,0,1.5,0.2,2,0.6
		s0.7,0.9,0.7,1.6c0,0.4-0.1,0.8-0.3,1.2c-0.2,0.4-0.5,0.8-1,1.3l-2.1,2H19C19,270.7,19,270.6,19,270.6z"/>
	<path class="st20" d="M24.6,267.7c0.5,0.4,0.8,1,0.8,1.7c0,0.5-0.1,0.9-0.3,1.3c-0.2,0.4-0.6,0.7-1,0.9c-0.5,0.2-1,0.3-1.7,0.3
		c-0.5,0-1.1-0.1-1.6-0.2c-0.5-0.2-0.9-0.4-1.3-0.7l0.6-1.1c0.3,0.2,0.6,0.4,1,0.6c0.4,0.1,0.8,0.2,1.2,0.2c0.5,0,0.9-0.1,1.2-0.3
		c0.3-0.2,0.4-0.5,0.4-0.9s-0.2-0.7-0.5-0.9c-0.3-0.2-0.8-0.3-1.6-0.3H20l0.4-4.2h4.5v1.2h-3.3l-0.2,1.8h0.7
		C23.4,267.1,24.1,267.3,24.6,267.7z"/>
</g>
<g>
	<g>
		<path class="st1" d="M17.5,224.6c0.4,0.4,0.6,0.9,0.6,1.5c0,0.4-0.1,0.9-0.3,1.2c-0.2,0.4-0.6,0.7-1,0.9c-0.5,0.2-1,0.3-1.7,0.3
			c-0.6,0-1.1-0.1-1.6-0.2c-0.5-0.2-0.9-0.4-1.3-0.7l0.6-1.1c0.3,0.2,0.6,0.4,1,0.6c0.4,0.1,0.8,0.2,1.2,0.2c0.5,0,0.9-0.1,1.2-0.3
			c0.3-0.2,0.4-0.5,0.4-0.9s-0.1-0.6-0.4-0.8c-0.3-0.2-0.7-0.3-1.3-0.3h-0.7v-1l1.7-2.1h-3.5v-1.2h5.2v1l-1.9,2.2
			C16.6,224,17.1,224.2,17.5,224.6z"/>
		<path class="st1" d="M20.5,228c-0.5-0.3-0.9-0.8-1.1-1.4c-0.3-0.6-0.4-1.3-0.4-2.1s0.1-1.5,0.4-2.1s0.7-1.1,1.1-1.4
			c0.5-0.3,1-0.5,1.7-0.5c0.6,0,1.2,0.2,1.7,0.5s0.9,0.8,1.1,1.4s0.4,1.3,0.4,2.1s-0.1,1.5-0.4,2.1s-0.7,1.1-1.1,1.4
			c-0.5,0.3-1,0.5-1.7,0.5C21.6,228.5,21,228.4,20.5,228z M23.5,226.6c0.3-0.5,0.5-1.1,0.5-2s-0.2-1.6-0.5-2
			c-0.3-0.5-0.8-0.7-1.3-0.7s-1,0.2-1.3,0.7s-0.5,1.1-0.5,2s0.2,1.6,0.5,2c0.3,0.5,0.8,0.7,1.3,0.7C22.7,227.3,23.2,227,23.5,226.6z
			"/>
	</g>
</g>
<g>
	<g>
		<path class="st1" d="M18.6,184.5h-1.4v1.7h-1.4v-1.7h-4.2v-1l3.8-5H17l-3.6,4.7h2.5v-1.5h1.3v1.6h1.4v1.2H18.6z"/>
		<path class="st1" d="M20.9,185.9c-0.5-0.3-0.9-0.8-1.1-1.4c-0.3-0.6-0.4-1.3-0.4-2.1s0.1-1.5,0.4-2.1s0.7-1.1,1.1-1.4
			c0.5-0.3,1-0.5,1.7-0.5c0.6,0,1.2,0.2,1.7,0.5s0.9,0.8,1.1,1.4s0.4,1.3,0.4,2.1s-0.1,1.5-0.4,2.1s-0.7,1.1-1.1,1.4
			c-0.5,0.3-1,0.5-1.7,0.5C21.9,186.3,21.4,186.2,20.9,185.9z M23.8,184.4c0.3-0.5,0.5-1.1,0.5-2s-0.2-1.6-0.5-2
			c-0.3-0.5-0.8-0.7-1.3-0.7s-1,0.2-1.3,0.7s-0.5,1.1-0.5,2s0.2,1.6,0.5,2c0.3,0.5,0.8,0.7,1.3,0.7C23,185.1,23.4,184.8,23.8,184.4z
			"/>
	</g>
</g>
<g>
	<path class="st1" d="M17.7,142.1c0.5,0.4,0.8,1,0.8,1.7c0,0.5-0.1,0.9-0.3,1.3c-0.2,0.4-0.6,0.7-1,0.9c-0.5,0.2-1,0.3-1.7,0.3
		c-0.5,0-1.1-0.1-1.6-0.2c-0.5-0.2-0.9-0.4-1.3-0.7l0.6-1.1c0.3,0.2,0.6,0.4,1,0.6c0.4,0.1,0.8,0.2,1.2,0.2c0.5,0,0.9-0.1,1.2-0.3
		s0.4-0.5,0.4-0.9s-0.2-0.7-0.5-0.9c-0.3-0.2-0.8-0.3-1.6-0.3H13l0.4-4.2h4.5v1.2h-3.2l-0.2,1.8h0.7
		C16.4,141.5,17.2,141.7,17.7,142.1z"/>
	<path class="st1" d="M20.9,145.9c-0.5-0.3-0.9-0.8-1.1-1.4c-0.3-0.6-0.4-1.3-0.4-2.1s0.1-1.5,0.4-2.1s0.7-1.1,1.1-1.4
		c0.5-0.3,1-0.5,1.7-0.5c0.6,0,1.2,0.2,1.7,0.5s0.9,0.8,1.1,1.4s0.4,1.3,0.4,2.1s-0.1,1.5-0.4,2.1s-0.7,1.1-1.1,1.4
		c-0.5,0.3-1,0.5-1.7,0.5C21.9,146.3,21.3,146.2,20.9,145.9z M23.8,144.4c0.3-0.5,0.5-1.1,0.5-2s-0.2-1.6-0.5-2
		c-0.3-0.5-0.8-0.7-1.3-0.7s-1,0.2-1.3,0.7s-0.5,1.1-0.5,2s0.2,1.6,0.5,2c0.3,0.5,0.8,0.7,1.3,0.7C23.1,145.1,23.5,144.9,23.8,144.4
		z"/>
</g>
<g>
	<path class="st1" d="M18.1,96.9v1l-3,6.7h-1.5l2.9-6.5h-3v1.3h-1.3v-2.5H18.1z"/>
	<path class="st1" d="M23.6,100.6c0.5,0.4,0.8,1,0.8,1.7c0,0.5-0.1,0.9-0.3,1.3c-0.2,0.4-0.6,0.7-1,0.9c-0.5,0.2-1,0.3-1.7,0.3
		c-0.5,0-1.1-0.1-1.6-0.2c-0.5-0.2-0.9-0.4-1.3-0.7l0.6-1.1c0.3,0.2,0.6,0.4,1,0.6c0.4,0.1,0.8,0.2,1.2,0.2c0.5,0,0.9-0.1,1.2-0.3
		c0.3-0.2,0.4-0.5,0.4-0.9s-0.2-0.7-0.5-0.9s-0.8-0.3-1.6-0.3h-1.9l0.4-4.2h4.5v1.2h-3.3l-0.2,1.8H21
		C22.3,99.9,23.1,100.1,23.6,100.6z"/>
</g>
<g>
	<path class="st1" d="M12.4,58v7h-1.3V59H9.7V58H12.4z"/>
	<path class="st1" d="M15.2,64.6c-0.4-0.3-0.8-0.7-1-1.2c-0.3-0.5-0.4-1.2-0.4-1.9c0-0.7,0.1-1.4,0.4-1.9c0.3-0.5,0.6-1,1-1.2
		c0.4-0.3,0.9-0.4,1.5-0.4c0.6,0,1.1,0.1,1.5,0.4c0.4,0.3,0.8,0.7,1,1.2c0.3,0.5,0.4,1.2,0.4,1.9c0,0.7-0.1,1.4-0.4,1.9
		s-0.6,1-1,1.2c-0.4,0.2-0.9,0.4-1.5,0.4C16.2,65.1,15.7,64.9,15.2,64.6z M18,63.3c0.3-0.4,0.4-1,0.4-1.8s-0.1-1.4-0.4-1.8
		s-0.7-0.6-1.2-0.6s-0.9,0.2-1.2,0.6s-0.4,1-0.4,1.8s0.1,1.4,0.4,1.8c0.3,0.4,0.7,0.6,1.2,0.6C17.2,64,17.6,63.7,18,63.3z"/>
	<path class="st1" d="M22,64.6c-0.4-0.3-0.8-0.7-1-1.2c-0.3-0.5-0.4-1.2-0.4-1.9c0-0.7,0.1-1.4,0.4-1.9s0.6-1,1-1.2
		c0.4-0.3,0.9-0.4,1.5-0.4c0.6,0,1.1,0.1,1.5,0.4c0.4,0.3,0.8,0.7,1,1.2c0.3,0.5,0.4,1.2,0.4,1.9c0,0.7-0.1,1.4-0.4,1.9
		s-0.6,1-1,1.2c-0.4,0.2-0.9,0.4-1.5,0.4C23,65.1,22.5,64.9,22,64.6z M24.8,63.3c0.3-0.4,0.4-1,0.4-1.8s-0.1-1.4-0.4-1.8
		s-0.7-0.6-1.2-0.6s-0.9,0.2-1.2,0.6s-0.4,1-0.4,1.8s0.1,1.4,0.4,1.8s0.7,0.6,1.2,0.6C24,64,24.5,63.7,24.8,63.3z"/>
</g>
<circle class="st21" cx="18.7" cy="20.9" r="14.6"/>
<g>
	<path class="st1" d="M31.6,22.1V22c0-6.6-5.4-12-12.2-12.4V8.5c0-0.3-0.3-0.6-0.7-0.6c-0.4,0-0.7,0.3-0.7,0.6v1.1
		C11.2,9.9,5.8,15.4,5.8,22c0,0.3,0.3,0.6,0.7,0.6c0.2,0,0.3-0.1,0.5-0.2c2.2-2,5.1-2,7.2,0c0.1,0.1,0.3,0.2,0.5,0.2
		s0.3-0.1,0.4-0.2c0.9-0.8,1.9-1.3,3-1.4v8.6c0,1.7,1.5,3.2,3.3,3.2s3.3-1.4,3.3-3.2c0-0.3-0.3-0.6-0.7-0.6c-0.4,0-0.7,0.3-0.7,0.6
		c0,1-0.9,1.9-2,1.9s-2-0.9-2-1.9V21c1,0.1,2.1,0.6,3,1.4c0.2,0.2,0.7,0.2,0.9,0c2.2-2,5.1-2,7.3,0c0.2,0.2,0.6,0.2,0.8,0.1
		C31.5,22.4,31.6,22.3,31.6,22.1z M22.2,20.8c-1.1-0.7-2.3-1.1-3.5-1.1h-0.1h-0.1c-1.2,0-2.4,0.4-3.5,1.1c-0.3-4.3,0.8-7.7,2.2-9.2
		c0.9-1,1.8-1,2.8,0C21.4,13.1,22.6,16.4,22.2,20.8z M7.2,20.6c0.6-4.7,4.2-8.4,8.8-9.5c-1.3,1.7-2.5,5-2.2,9.5
		C11.8,19.4,9.3,19.4,7.2,20.6z M23.6,20.6c0.3-4.5-0.9-7.8-2.2-9.5c4.7,1.1,8.2,4.8,8.8,9.5C28.1,19.4,25.7,19.4,23.6,20.6z"/>
</g>
</svg>
