<?xml version="1.0" encoding="utf-8"?>
<!-- Generator: Adobe Illustrator 28.0.0, SVG Export Plug-In . SVG Version: 6.00 Build 0)  -->
<svg version="1.1" id="Livello_1" xmlns="http://www.w3.org/2000/svg" xmlns:xlink="http://www.w3.org/1999/xlink" x="0px" y="0px"
	  width="50px" height="677px"  viewBox="0 0 48.7 677.2" style="enable-background:new 0 0 48.7 677.2;" xml:space="preserve">
<style type="text/css">
	.st0{fill:#961405;}
	.st1{clip-path:url(#SVGID_00000091004981683019041250000017884328353548013978_);}
	.st2{fill:#6E0E04;}
	.st3{clip-path:url(#SVGID_00000165935782482154434660000006431750769327942017_);}
	.st4{fill:#E22208;}
	.st5{clip-path:url(#SVGID_00000128454858417793850940000010812951506590824590_);}
	.st6{fill:#E86411;}
	.st7{clip-path:url(#SVGID_00000029767607351288286020000000202694004992312235_);}
	.st8{fill:#E1D52D;}
	.st9{clip-path:url(#SVGID_00000026164127249813248450000004117305681476792495_);}
	.st10{fill:#F7EC31;}
	.st11{clip-path:url(#SVGID_00000052801406794170658150000006944084166480552605_);}
	.st12{clip-path:url(#SVGID_00000143579497813777225290000012519152394867425965_);}
	.st13{clip-path:url(#SVGID_00000137818482554298254110000014666837151487767946_);}
	.st14{fill:#173A62;}
	.st15{clip-path:url(#SVGID_00000054231005349241492750000015022061250607246256_);}
	.st16{fill:#79AADE;}
	.st17{clip-path:url(#SVGID_00000118371863217100989750000008312039970405848988_);}
	.st18{fill:#9CC1E7;}
	.st19{clip-path:url(#SVGID_00000151513125616576751410000008345076974020404658_);}
	.st20{fill:#BDD5EF;}
	.st21{clip-path:url(#SVGID_00000172423024744394907580000016626014531141898429_);}
	.st22{fill:#DEEAF7;}
	.st23{clip-path:url(#SVGID_00000173870036484932710780000011649000763007729821_);}
	.st24{fill:#235A95;}
	.st25{clip-path:url(#SVGID_00000006700344570859519040000009589295376729277854_);}
	.st26{fill:#2E6FB8;}
	.st27{fill:#548ECE;}
	.st28{fill:#39322E;}
	.st29{fill:none;}
	.st30{fill:none;stroke:#3C3430;stroke-width:2;stroke-miterlimit:9.7722;}
	.st31{fill:#3B3330;}
	.st32{fill:#3C3530;}
	.st33{fill:#FFFFFF;}
	.st34{fill:none;stroke:#3C3430;stroke-miterlimit:9.7722;}
</style>
<g>
	<g>
		<g>
			<g>
				<rect x="5.5" y="92.3" class="st0" width="37.3" height="42.7"/>
			</g>
		</g>
	</g>
</g>
<g>
	<g>
		<g>
			<defs>
				<path id="SVGID_1_" d="M43.4,672.4c-0.5,3.9-10.1,8.5-18.5,8.5l0,0c-8.2,0.4-19.5-3.8-19.5-8.5V54.7C7.2,49.2,17.2,49,23.7,49
					l0,0c7.7,0,17.7-0.7,19.6,5.2L43.4,672.4L43.4,672.4z"/>
			</defs>
			<clipPath id="SVGID_00000108268153536947071850000011906157597293205892_">
				<use xlink:href="#SVGID_1_"  style="overflow:visible;"/>
			</clipPath>
			<g style="clip-path:url(#SVGID_00000108268153536947071850000011906157597293205892_);">
				<g>
					<g>
						<rect x="-20" y="49" class="st2" width="100.4" height="43.7"/>
					</g>
				</g>
			</g>
		</g>
	</g>
	<g>
		<g>
			<defs>
				<path id="SVGID_00000112620952279603511990000008769884945505318546_" d="M43.4,672.4L43.4,672.4c-0.5,3.9-10.1,8.5-18.5,8.5
					l0,0c-8.2,0.4-19.5-3.8-19.5-8.5L5.9,54.5C7.6,49,17.2,49,23.7,49l0,0"/>
			</defs>
			<clipPath id="SVGID_00000121991212699069115720000003049649990555069075_">
				<use xlink:href="#SVGID_00000112620952279603511990000008769884945505318546_"  style="overflow:visible;"/>
			</clipPath>
			<g style="clip-path:url(#SVGID_00000121991212699069115720000003049649990555069075_);">
				<g>
					<g>
						<rect x="-24.9" y="92.3" class="st0" width="100.4" height="42.7"/>
					</g>
				</g>
			</g>
		</g>
	</g>
	<g>
		<g>
			<g>
				<g>
					<rect x="5.5" y="135" class="st4" width="38.4" height="43"/>
				</g>
			</g>
		</g>
	</g>
	<g>
		<g>
			<defs>
				<path id="SVGID_00000111898514999468322660000003845701497618888348_" d="M43.4,672.4c-0.5,3.9-10.1,8.5-18.5,8.5l0,0
					c-8.2,0.4-19.5-3.8-19.5-8.5L5.9,55c1.7-5.6,11.3-6,17.8-6l0,0c7.7,0,17.9-0.4,19.6,9.2L43.4,672.4L43.4,672.4z"/>
			</defs>
			<clipPath id="SVGID_00000016049411535462029120000003463825623775310720_">
				<use xlink:href="#SVGID_00000111898514999468322660000003845701497618888348_"  style="overflow:visible;"/>
			</clipPath>
			<g style="clip-path:url(#SVGID_00000016049411535462029120000003463825623775310720_);">
				<g>
					<g>
						<rect x="-20.5" y="177.9" class="st6" width="100.4" height="42.7"/>
					</g>
				</g>
			</g>
		</g>
	</g>
	<g>
		<g>
			<defs>
				<path id="SVGID_00000000936633673296457030000014980289284193030033_" d="M43.4,672.4c-0.5,3.9-10.1,8.5-18.5,8.5l0,0
					c-8.2,0.4-19.5-3.8-19.5-8.5L5.9,54.5C7.6,49,17.2,49,23.7,49l0,0c7.7,0,18-0.5,19.6,9.2L43.4,672.4L43.4,672.4z"/>
			</defs>
			<clipPath id="SVGID_00000052806980689158439740000001365960793417445295_">
				<use xlink:href="#SVGID_00000000936633673296457030000014980289284193030033_"  style="overflow:visible;"/>
			</clipPath>
			<g style="clip-path:url(#SVGID_00000052806980689158439740000001365960793417445295_);">
				<g>
					<g>
						<rect x="-19.5" y="220.6" class="st8" width="100.4" height="42.7"/>
					</g>
				</g>
			</g>
		</g>
		<g>
			<defs>
				<path id="SVGID_00000069390338763028049320000009588120904191807650_" d="M43.4,672.4c-0.5,3.9-10.1,8.5-18.5,8.5l0,0
					c-8.2,0.4-19.5-3.8-19.5-8.5L5.9,54.5C7.6,49,17.2,49,23.7,49l0,0c7.7,0,18-0.5,19.6,9.2L43.4,672.4L43.4,672.4z"/>
			</defs>
			<clipPath id="SVGID_00000177446324283365355920000005891973453814452635_">
				<use xlink:href="#SVGID_00000069390338763028049320000009588120904191807650_"  style="overflow:visible;"/>
			</clipPath>
			<g style="clip-path:url(#SVGID_00000177446324283365355920000005891973453814452635_);">
				<g>
					<g>
						<rect x="-26.4" y="263.3" class="st10" width="100.4" height="42.7"/>
					</g>
				</g>
			</g>
		</g>
	</g>
	<g>
		<g>
			<defs>
				<path id="SVGID_00000031174545103874253860000005755579788078333110_" d="M43.3,58.1l0.2,614.3l0,0c-0.5,3.9-10.1,8.5-18.5,8.5
					l0,0c-8.2,0.4-19.5-3.8-19.5-8.5"/>
			</defs>
			<clipPath id="SVGID_00000047755922989397522900000003699505457320821677_">
				<use xlink:href="#SVGID_00000031174545103874253860000005755579788078333110_"  style="overflow:visible;"/>
			</clipPath>
		</g>
		<g>
			<defs>
				<path id="SVGID_00000034777711486432444960000010458662601844752544_" d="M43.3,58.1l0.2,614.3l0,0c-0.5,3.9-10.1,8.5-18.5,8.5
					l0,0c-8.2,0.4-19.5-3.8-19.5-8.5"/>
			</defs>
			<defs>
				<line id="SVGID_00000143584943887710703910000018359521931031004863_" x1="23.7" y1="49" x2="23.7" y2="49"/>
			</defs>
			<clipPath id="SVGID_00000142168053729207338500000018323514789652077206_">
				<use xlink:href="#SVGID_00000034777711486432444960000010458662601844752544_"  style="overflow:visible;"/>
			</clipPath>
			
				<clipPath id="SVGID_00000105410975417621236910000008703549572244155326_" style="clip-path:url(#SVGID_00000142168053729207338500000018323514789652077206_);">
				<use xlink:href="#SVGID_00000143584943887710703910000018359521931031004863_"  style="overflow:visible;"/>
			</clipPath>
			<g style="clip-path:url(#SVGID_00000105410975417621236910000008703549572244155326_);">
				<g>
					<g>
						<rect x="-19.5" y="263.2" class="st10" width="100.4" height="42.7"/>
					</g>
				</g>
			</g>
		</g>
	</g>
	<g>
		<g>
			<defs>
				<path id="SVGID_00000147217406101178351070000001339627380310849707_" d="M43.3,58.1l0.2,614.3l0,0c-0.5,3.9-10.1,8.5-18.5,8.5
					l0,0c-8.2,0.4-19.5-3.8-19.5-8.5V55.3C7.2,49.7,17.2,49,23.7,49l0,0"/>
			</defs>
			<clipPath id="SVGID_00000087378227360436307490000001525960248812314011_">
				<use xlink:href="#SVGID_00000147217406101178351070000001339627380310849707_"  style="overflow:visible;"/>
			</clipPath>
			<g style="clip-path:url(#SVGID_00000087378227360436307490000001525960248812314011_);">
				<g>
					<g>
						<rect x="-19.5" y="305.9" class="st14" width="100.4" height="42.7"/>
					</g>
				</g>
			</g>
		</g>
	</g>
	<g>
		<g>
			<defs>
				<path id="SVGID_00000173145222462701101760000006484807764478487196_" d="M43.4,672.4c-0.5,3.9-10.1,8.5-18.5,8.5l0,0
					c-8.2,0.4-19.5-3.8-19.5-8.5V54.7C7.2,49.2,17.2,49,23.7,49l0,0c7.7,0,18.2-0.4,19.6,9.2L43.4,672.4L43.4,672.4z"/>
			</defs>
			<clipPath id="SVGID_00000127751300774192802890000014592754226827844739_">
				<use xlink:href="#SVGID_00000173145222462701101760000006484807764478487196_"  style="overflow:visible;"/>
			</clipPath>
			<g style="clip-path:url(#SVGID_00000127751300774192802890000014592754226827844739_);">
				<g>
					<g>
						<rect x="-18.2" y="476.7" class="st16" width="100.4" height="42.7"/>
					</g>
				</g>
			</g>
		</g>
	</g>
	<g>
		<g>
			<defs>
				<path id="SVGID_00000005243573548007978610000000695775391423155335_" d="M43.4,672.4c-0.5,3.9-10.1,8.5-18.5,8.5l0,0
					c-8.2,0.4-19.5-3.8-19.5-8.5V54.7C7.2,49.2,17.2,49,23.7,49l0,0c7.7,0,18.2-0.9,19.6,9.2L43.4,672.4L43.4,672.4z"/>
			</defs>
			<clipPath id="SVGID_00000160159435241674784510000011328343326567835066_">
				<use xlink:href="#SVGID_00000005243573548007978610000000695775391423155335_"  style="overflow:visible;"/>
			</clipPath>
			<g style="clip-path:url(#SVGID_00000160159435241674784510000011328343326567835066_);">
				<g>
					<g>
						<rect x="-18.2" y="519.3" class="st18" width="100.4" height="42.7"/>
					</g>
				</g>
			</g>
		</g>
	</g>
	<g>
		<g>
			<defs>
				<path id="SVGID_00000016755860791621827620000004092554244859447202_" d="M43.4,672.4c-0.5,3.9-10.1,8.5-18.5,8.5l0,0
					c-8.2,0.4-19.5-3.8-19.5-8.5V57.9C5.3,43.6,17.1,48.8,23.7,49l0,0c7.7,0,18.3-0.5,19.6,9.2L43.4,672.4L43.4,672.4z"/>
			</defs>
			<clipPath id="SVGID_00000096023907649554154640000014609139334742828204_">
				<use xlink:href="#SVGID_00000016755860791621827620000004092554244859447202_"  style="overflow:visible;"/>
			</clipPath>
			<g style="clip-path:url(#SVGID_00000096023907649554154640000014609139334742828204_);">
				<g>
					<g>
						<rect x="-17.3" y="562" class="st20" width="100.4" height="42.7"/>
					</g>
				</g>
			</g>
		</g>
	</g>
	<g>
		<g>
			<defs>
				<path id="SVGID_00000008122625596095480520000014988590886457055132_" d="M43.4,672.4c-0.5,3.9-10.4,3.3-18.8,3.3l0,0
					c-8.2,0.4-18.8,0.6-18.8-4.2v-618C7.6,48,17.2,49,23.7,49l0,0c7.7,0,17.7,0.3,19.6,6.2L43.4,672.4L43.4,672.4z"/>
			</defs>
			<clipPath id="SVGID_00000066483303623966747000000012481411317398089373_">
				<use xlink:href="#SVGID_00000008122625596095480520000014988590886457055132_"  style="overflow:visible;"/>
			</clipPath>
			<g style="clip-path:url(#SVGID_00000066483303623966747000000012481411317398089373_);">
				<g>
					<g>
						<rect x="-17.6" y="599.4" class="st22" width="100.4" height="79"/>
					</g>
				</g>
			</g>
		</g>
	</g>
	<g>
		<g>
			<defs>
				<path id="SVGID_00000156578298598711641930000014688963119353789374_" d="M43.4,672.4c-0.5,3.9-10.4,3.3-18.8,3.3l0,0
					c-8.2,0.4-19.2,1.4-19.2-3.3L5.9,54.5C7.6,49,17.2,49,23.7,49l0,0c7.7,0,17.2,0.6,19.1,6.5L43.4,672.4L43.4,672.4z"/>
			</defs>
			<clipPath id="SVGID_00000183227893474992464750000000110787536993040055_">
				<use xlink:href="#SVGID_00000156578298598711641930000014688963119353789374_"  style="overflow:visible;"/>
			</clipPath>
			<g style="clip-path:url(#SVGID_00000183227893474992464750000000110787536993040055_);">
				<g>
					<g>
						<rect x="-18.2" y="348.6" class="st24" width="100.4" height="42.7"/>
					</g>
				</g>
			</g>
		</g>
	</g>
	<g>
		<g>
			<defs>
				<path id="SVGID_00000139977074503776022930000013392637518851277976_" d="M43.4,672.4c-0.5,3.9-10.4,3.3-18.8,3.3l0,0
					c-8.2,0.4-19.2,1.4-18.4-2.8V55.2c1-6,11-6.2,17.5-6.2l0,0c7.7,0,17.2,0.3,19,6.2L43.4,672.4L43.4,672.4z"/>
			</defs>
			<clipPath id="SVGID_00000042008616510445984040000011621048480258102164_">
				<use xlink:href="#SVGID_00000139977074503776022930000013392637518851277976_"  style="overflow:visible;"/>
			</clipPath>
			<g style="clip-path:url(#SVGID_00000042008616510445984040000011621048480258102164_);">
				<g>
					<g>
						<rect x="-18.2" y="391.2" class="st26" width="100.4" height="42.7"/>
					</g>
				</g>
			</g>
		</g>
	</g>
	<g>
		<g>
			<g>
				<g>
					<rect x="6.2" y="433.9" class="st27" width="36.7" height="42.7"/>
				</g>
			</g>
		</g>
	</g>
</g>
<circle class="st28" cx="24.1" cy="26.6" r="19.8"/>
<rect x="11.1" y="632" class="st29" width="15.4" height="11.8"/>
<path class="st30" d="M36.6,675.8H12.1c-3.4,0-6.2-2.8-6.2-6.2V56.1c0-3.4,2.8-6.2,6.2-6.2h24.5c3.4,0,6.2,2.8,6.2,6.2v613.5
	C42.8,673,40,675.8,36.6,675.8z"/>
<g>
	<path class="st31" d="M26.1,594.1v7.9h-1.7v-6l-1.7,1.1l-0.8-1.2l2.6-1.7L26.1,594.1L26.1,594.1z"/>
</g>
<g>
	<path class="st31" d="M27.1,565.1H22v-1.4l1.7-1.7c0.6-0.6,1-1.1,1.3-1.4s0.4-0.7,0.4-1s-0.1-0.6-0.3-0.8c-0.2-0.2-0.5-0.2-0.8-0.2
		c-0.5,0-1.1,0-1.8,0.1h-0.3l-0.1-1.3c0.8-0.2,1.6-0.4,2.4-0.4c1.7,0,2.5,0.8,2.5,2.3c0,0.6-0.1,1.1-0.4,1.5s-0.7,1-1.4,1.6
		l-1.4,1.2h3.3C27.1,563.6,27.1,565.1,27.1,565.1z"/>
</g>
<g>
	<path class="st28" d="M22,306.5v-1.3h-3.4V304l2-5.4h1.8l-2.1,5.2H22v-2.2h1.7v2.2h0.8v1.4h-0.8v1.3H22z"/>
	<path class="st28" d="M25.9,299.4c0.5-0.7,1.3-1,2.3-1s1.8,0.3,2.3,1s0.8,1.7,0.8,3.2s-0.3,2.5-0.8,3.1s-1.3,0.9-2.3,0.9
		s-1.8-0.3-2.3-0.9s-0.8-1.7-0.8-3.1S25.4,300.1,25.9,299.4z M29.6,302.6c0-1-0.1-1.7-0.3-2.1c-0.2-0.4-0.6-0.6-1-0.6
		c-0.5,0-0.8,0.2-1.1,0.6c-0.2,0.4-0.3,1.1-0.3,2.1s0.1,1.7,0.3,2.1c0.2,0.4,0.6,0.6,1.1,0.6s0.8-0.2,1-0.6S29.6,303.6,29.6,302.6z"
		/>
</g>
<g>
	<path class="st32" d="M23.2,257.3v1.4h-3.5l-0.2,1.7c0.5-0.2,1-0.3,1.4-0.3c1.7,0,2.6,0.8,2.6,2.4c0,0.9-0.2,1.6-0.7,2.1
		s-1.1,0.7-2,0.7c-0.4,0-0.8,0-1.3-0.1s-0.8-0.1-1.1-0.2l-0.4-0.1l0.2-1.2c1,0.2,1.8,0.2,2.4,0.2c0.4,0,0.7-0.1,0.9-0.3
		c0.2-0.2,0.3-0.5,0.3-0.9s-0.1-0.7-0.3-0.8s-0.4-0.3-0.7-0.3c-0.5,0-1,0.1-1.4,0.2h-0.2l-1-0.2l0.2-4.3L23.2,257.3L23.2,257.3z"/>
	<path class="st32" d="M25.1,258.1c0.5-0.7,1.3-1,2.3-1s1.8,0.3,2.3,1s0.8,1.7,0.8,3.2s-0.3,2.5-0.8,3.1s-1.3,0.9-2.3,0.9
		s-1.8-0.3-2.3-0.9s-0.8-1.7-0.8-3.1S24.6,258.7,25.1,258.1z M28.8,261.2c0-1-0.1-1.7-0.3-2.1c-0.2-0.4-0.6-0.6-1-0.6
		s-0.8,0.2-1.1,0.6c-0.2,0.4-0.3,1.1-0.3,2.1s0.1,1.7,0.3,2.1s0.6,0.6,1.1,0.6s0.8-0.2,1-0.6S28.8,262.2,28.8,261.2z"/>
</g>
<g>
	<path class="st33" d="M19.6,173.4v7.9h-1.7v-6l-1.7,1.1l-0.8-1.2l2.6-1.7h1.6V173.4z"/>
	<path class="st33" d="M22.4,174.3c0.5-0.7,1.3-1,2.3-1s1.8,0.3,2.3,1s0.8,1.7,0.8,3.2s-0.3,2.5-0.8,3.1s-1.3,0.9-2.3,0.9
		s-1.8-0.3-2.3-0.9s-0.8-1.7-0.8-3.1S21.8,174.9,22.4,174.3z M26,177.4c0-1-0.1-1.7-0.3-2.1c-0.2-0.4-0.6-0.6-1-0.6
		c-0.5,0-0.8,0.2-1.1,0.6c-0.2,0.4-0.3,1.1-0.3,2.1s0.1,1.7,0.3,2.1c0.2,0.4,0.6,0.6,1.1,0.6s0.8-0.2,1-0.6S26,178.4,26,177.4z"/>
	<path class="st33" d="M29.1,174.3c0.5-0.7,1.3-1,2.3-1c1,0,1.8,0.3,2.3,1s0.8,1.7,0.8,3.2s-0.3,2.5-0.8,3.1s-1.3,0.9-2.3,0.9
		s-1.8-0.3-2.3-0.9s-0.8-1.7-0.8-3.1S28.6,174.9,29.1,174.3z M32.7,177.4c0-1-0.1-1.7-0.3-2.1c-0.2-0.4-0.6-0.6-1-0.6
		c-0.5,0-0.8,0.2-1.1,0.6c-0.2,0.4-0.3,1.1-0.3,2.1s0.1,1.7,0.3,2.1c0.2,0.4,0.6,0.6,1.1,0.6s0.8-0.2,1-0.6S32.7,178.4,32.7,177.4z"
		/>
</g>
<g>
	<path class="st33" d="M19.1,129.9v7.9h-1.7v-6l-1.7,1.1l-0.8-1.2l2.6-1.7h1.6V129.9z"/>
	<path class="st33" d="M26.7,129.9v1.4h-3.5L23,133c0.5-0.2,1-0.3,1.4-0.3c1.7,0,2.6,0.8,2.6,2.4c0,0.9-0.2,1.6-0.7,2.1
		s-1.1,0.7-2,0.7c-0.4,0-0.8,0-1.3-0.1s-0.8-0.1-1.1-0.2l-0.4-0.1l0.2-1.2c1,0.2,1.8,0.2,2.4,0.2c0.4,0,0.7-0.1,0.9-0.3
		c0.2-0.2,0.3-0.5,0.3-0.9s-0.1-0.7-0.3-0.8s-0.4-0.3-0.7-0.3c-0.5,0-1,0.1-1.4,0.2h-0.2l-1-0.2l0.2-4.3L26.7,129.9L26.7,129.9z"/>
	<path class="st33" d="M28.6,130.8c0.5-0.7,1.3-1,2.3-1s1.8,0.3,2.3,1s0.8,1.7,0.8,3.2s-0.3,2.5-0.8,3.1s-1.3,0.9-2.3,0.9
		s-1.8-0.3-2.3-0.9s-0.8-1.7-0.8-3.1S28,131.4,28.6,130.8z M32.2,133.9c0-1-0.1-1.7-0.3-2.1c-0.2-0.4-0.6-0.6-1-0.6
		c-0.5,0-0.8,0.2-1.1,0.6c-0.2,0.4-0.3,1.1-0.3,2.1s0.1,1.7,0.3,2.1c0.2,0.4,0.6,0.6,1.1,0.6s0.8-0.2,1-0.6
		C32.1,135.6,32.2,134.9,32.2,133.9z"/>
</g>
<g>
	<path class="st33" d="M21.2,88.4c0.5-0.7,1.3-1,2.3-1s1.8,0.3,2.3,1s0.8,1.7,0.8,3.2s-0.3,2.5-0.8,3.1s-1.3,0.9-2.3,0.9
		s-1.8-0.3-2.3-0.9s-0.8-1.7-0.8-3.1S20.7,89,21.2,88.4z M24.9,91.5c0-1-0.1-1.7-0.3-2.1c-0.2-0.4-0.6-0.6-1-0.6s-0.8,0.2-1.1,0.6
		c-0.2,0.4-0.3,1.1-0.3,2.1s0.1,1.7,0.3,2.1s0.6,0.6,1.1,0.6s0.8-0.2,1-0.6S24.9,92.5,24.9,91.5z"/>
	<path class="st33" d="M27.9,88.4c0.5-0.7,1.3-1,2.3-1s1.8,0.3,2.3,1c0.5,0.7,0.8,1.7,0.8,3.2S33,94,32.5,94.7
		c-0.5,0.6-1.3,0.9-2.3,0.9s-1.8-0.3-2.3-0.9s-0.8-1.7-0.8-3.1S27.4,89,27.9,88.4z M31.6,91.5c0-1-0.1-1.7-0.3-2.1
		c-0.2-0.4-0.6-0.6-1-0.6s-0.8,0.2-1.1,0.6c-0.2,0.4-0.3,1.1-0.3,2.1s0.1,1.7,0.3,2.1s0.6,0.6,1.1,0.6s0.8-0.2,1-0.6
		S31.6,92.5,31.6,91.5z"/>
</g>
<line class="st34" x1="6.8" y1="599.1" x2="19.7" y2="599.1"/>
<line class="st34" x1="42.5" y1="599.1" x2="28.9" y2="599.1"/>
<line class="st34" x1="5.9" y1="562.2" x2="19.7" y2="562.2"/>
<line class="st34" x1="42.3" y1="562.2" x2="28.9" y2="562.2"/>
<line class="st34" x1="5.5" y1="305.8" x2="18.1" y2="305.8"/>
<line class="st34" x1="42.1" y1="305.9" x2="31" y2="305.9"/>
<line class="st34" x1="6.7" y1="263" x2="17.5" y2="263"/>
<line class="st34" x1="42.6" y1="263" x2="31.6" y2="263"/>
<line class="st34" x1="15.5" y1="177.8" x2="5.9" y2="177.8"/>
<line class="st34" x1="42.4" y1="178" x2="35.4" y2="178"/>
<line class="st34" x1="5.8" y1="135.2" x2="14.3" y2="135.2"/>
<line class="st34" x1="42.5" y1="135.2" x2="35" y2="135.2"/>
<line class="st34" x1="6.2" y1="92.3" x2="14.2" y2="92.3"/>
<line class="st34" x1="34.2" y1="92.3" x2="42.2" y2="92.3"/>
<g>
	<path class="st33" d="M38.8,27v-0.1c0-7.5-6.2-13.7-13.9-14.1v-1.3c0-0.3-0.3-0.7-0.8-0.7s-0.8,0.3-0.8,0.7v1.3
		c-7.8,0.3-13.9,6.6-13.9,14.1c0,0.3,0.3,0.7,0.8,0.7c0.2,0,0.3-0.1,0.6-0.2c2.5-2.3,5.8-2.3,8.2,0c0.1,0.1,0.3,0.2,0.6,0.2
		c0.2,0,0.3-0.1,0.5-0.2c1-0.9,2.2-1.5,3.4-1.6v9.8c0,1.9,1.7,3.7,3.8,3.7s3.8-1.6,3.8-3.7c0-0.3-0.3-0.7-0.8-0.7s-0.8,0.3-0.8,0.7
		c0,1.1-1,2.2-2.3,2.2s-2.3-1-2.3-2.2v-9.8c1.1,0.1,2.4,0.7,3.4,1.6c0.2,0.2,0.8,0.2,1,0c2.5-2.3,5.8-2.3,8.3,0
		c0.2,0.2,0.7,0.2,0.9,0.1C38.7,27.4,38.8,27.2,38.8,27z M28.1,25.5c-1.3-0.8-2.6-1.3-4-1.3H24h-0.1c-1.4,0-2.7,0.5-4,1.3
		c-0.3-4.9,0.9-8.8,2.5-10.5c1-1.1,2.1-1.1,3.2,0C27.1,16.7,28.5,20.5,28.1,25.5z M10.9,25.3c0.7-5.4,4.8-9.6,10-10.8
		c-1.5,1.9-2.9,5.7-2.5,10.8C16.2,23.9,13.3,23.9,10.9,25.3z M29.7,25.3c0.3-5.1-1-8.9-2.5-10.8c5.4,1.3,9.4,5.5,10,10.8
		C34.8,23.9,32,23.9,29.7,25.3z"/>
</g>
<g>
	<path class="st31" d="M27.5,514.3v1.4H24l-0.2,1.7c0.5-0.2,1-0.3,1.4-0.3c1.7,0,2.6,0.8,2.6,2.4c0,0.9-0.2,1.6-0.7,2.1
		s-1.1,0.7-2,0.7c-0.4,0-0.8,0-1.3-0.1s-0.8-0.1-1.1-0.2l-0.4-0.1l0.2-1.2c1,0.2,1.8,0.2,2.4,0.2c0.4,0,0.7-0.1,0.9-0.3
		c0.2-0.2,0.3-0.5,0.3-0.9s-0.1-0.7-0.3-0.8s-0.4-0.3-0.7-0.3c-0.5,0-1,0.1-1.4,0.2h-0.2l-1-0.2l0.2-4.3L27.5,514.3L27.5,514.3z"/>
</g>
<line class="st34" x1="6.3" y1="519.3" x2="20.1" y2="519.3"/>
<line class="st34" x1="42.7" y1="519.3" x2="29.3" y2="519.3"/>
<g>
	<path class="st33" d="M23.5,394.2h-5.1v-1.4l1.7-1.7c0.6-0.6,1-1.1,1.3-1.4s0.4-0.7,0.4-1s-0.1-0.6-0.3-0.8
		c-0.2-0.2-0.5-0.2-0.8-0.2c-0.5,0-1.1,0-1.8,0.1h-0.3l-0.1-1.3c0.8-0.2,1.6-0.4,2.4-0.4c1.7,0,2.5,0.8,2.5,2.3
		c0,0.6-0.1,1.1-0.4,1.5s-0.7,1-1.4,1.6l-1.4,1.2h3.3C23.5,392.7,23.5,394.2,23.5,394.2z"/>
	<path class="st33" d="M25.4,387.2c0.5-0.7,1.3-1,2.3-1s1.8,0.3,2.3,1s0.8,1.7,0.8,3.2s-0.3,2.5-0.8,3.1s-1.3,0.9-2.3,0.9
		s-1.8-0.3-2.3-0.9s-0.8-1.7-0.8-3.1S24.9,387.8,25.4,387.2z M29.1,390.3c0-1-0.1-1.7-0.3-2.1c-0.2-0.4-0.6-0.6-1-0.6
		c-0.5,0-0.8,0.2-1.1,0.6c-0.2,0.4-0.3,1.1-0.3,2.1s0.1,1.7,0.3,2.1c0.2,0.4,0.6,0.6,1.1,0.6s0.8-0.2,1-0.6S29.1,391.3,29.1,390.3z"
		/>
</g>
<line class="st34" x1="5.9" y1="391.1" x2="18.3" y2="391.1"/>
<line class="st34" x1="42.3" y1="391.1" x2="31.7" y2="391.1"/>
<g>
	<path class="st33" d="M18.2,343.9c0.7-0.3,1.6-0.4,2.5-0.4s1.6,0.2,2,0.5s0.6,0.9,0.6,1.7c0,0.8-0.3,1.4-0.9,1.8
		c0.4,0.2,0.7,0.4,0.8,0.6s0.2,0.6,0.2,1.1c0,0.9-0.2,1.5-0.6,1.9s-1.1,0.6-2.1,0.6c-0.7,0-1.4-0.1-2.2-0.3l-0.4-0.1l0.1-1.3
		c0.9,0.2,1.6,0.2,2.3,0.2c0.8,0,1.2-0.4,1.2-1.1c0-0.3-0.1-0.5-0.3-0.7c-0.2-0.2-0.5-0.3-0.8-0.3H19v-1.4h1.6
		c0.3,0,0.5-0.1,0.7-0.3c0.2-0.2,0.3-0.5,0.3-0.7c0-0.6-0.4-0.9-1.2-0.9c-0.6,0-1.1,0.1-1.8,0.2h-0.3L18.2,343.9z"/>
	<path class="st33" d="M25.2,344.5c0.5-0.7,1.3-1,2.3-1s1.8,0.3,2.3,1s0.8,1.7,0.8,3.2s-0.3,2.5-0.8,3.1s-1.3,0.9-2.3,0.9
		s-1.8-0.3-2.3-0.9s-0.8-1.7-0.8-3.1S24.7,345.1,25.2,344.5z M28.9,347.6c0-1-0.1-1.7-0.3-2.1c-0.2-0.4-0.6-0.6-1-0.6
		s-0.8,0.2-1.1,0.6c-0.2,0.4-0.3,1.1-0.3,2.1s0.1,1.7,0.3,2.1s0.6,0.6,1.1,0.6s0.8-0.2,1-0.6S28.9,348.6,28.9,347.6z"/>
</g>
<line class="st34" x1="5.8" y1="348.4" x2="18.1" y2="348.4"/>
<line class="st34" x1="42.2" y1="348.4" x2="31.6" y2="348.4"/>
<g>
	<path class="st32" d="M17.5,216.4v-1.5h5.1v1.9l-2.8,6.2l-1.5-0.4l2.7-5.8v-0.4H17.5z"/>
	<path class="st32" d="M29.3,214.9v1.4h-3.5l-0.2,1.7c0.5-0.2,1-0.3,1.4-0.3c1.7,0,2.6,0.8,2.6,2.4c0,0.9-0.2,1.6-0.7,2.1
		s-1.1,0.7-2,0.7c-0.4,0-0.8,0-1.3-0.1s-0.8-0.1-1.1-0.2l-0.4-0.1l0.2-1.2c1,0.2,1.8,0.2,2.4,0.2c0.4,0,0.7-0.1,0.9-0.3
		c0.2-0.2,0.3-0.5,0.3-0.9s-0.1-0.7-0.3-0.8s-0.4-0.3-0.7-0.3c-0.5,0-1,0.1-1.4,0.2h-0.2l-1-0.2l0.2-4.3L29.3,214.9L29.3,214.9z"/>
</g>
<line class="st34" x1="6.1" y1="220.7" x2="16.9" y2="220.7"/>
<line class="st34" x1="42" y1="220.7" x2="31" y2="220.7"/>
<g>
	<path class="st31" d="M17.2,671.7h-1.6v-6h1.6v0.3c0.6-0.3,1-0.5,1.4-0.5c0.6,0,1.1,0.2,1.5,0.6c0.7-0.4,1.4-0.6,2-0.6
		c0.8,0,1.3,0.2,1.7,0.7c0.3,0.5,0.5,1.2,0.5,2.2v3.3h-1.6v-3.2c0-0.5-0.1-0.9-0.2-1.1c-0.1-0.2-0.3-0.4-0.7-0.4
		c-0.3,0-0.6,0.1-0.9,0.2l-0.2,0.1c0,0.6,0,1.1,0,1.4v3.1h-1.6v-3.1c0-0.6-0.1-1-0.2-1.3c-0.1-0.2-0.3-0.4-0.7-0.4
		c-0.3,0-0.6,0.1-0.9,0.2h-0.1C17.2,667.2,17.2,671.7,17.2,671.7z"/>
	<path class="st31" d="M27.2,671.7h-1.6v-6h1.6v0.3c0.6-0.3,1-0.5,1.4-0.5c0.6,0,1.1,0.2,1.5,0.6c0.7-0.4,1.4-0.6,2-0.6
		c0.8,0,1.3,0.2,1.6,0.7s0.5,1.2,0.5,2.2v3.3h-1.6v-3.2c0-0.5-0.1-0.9-0.2-1.1c-0.1-0.2-0.3-0.4-0.7-0.4c-0.3,0-0.6,0.1-0.9,0.2
		l-0.2,0.1c0,0.6,0,1.1,0,1.4v3.1H29v-3.1c0-0.6-0.1-1-0.2-1.3c-0.1-0.2-0.3-0.4-0.7-0.4c-0.3,0-0.6,0.1-0.9,0.2h-0.1v4.5H27.2z"/>
</g>
<g>
	<path class="st31" d="M22.2,471.2v7.9h-1.7v-6l-1.7,1.1L18,473l2.6-1.7L22.2,471.2L22.2,471.2z"/>
	<path class="st31" d="M24.9,472c0.5-0.7,1.3-1,2.3-1s1.8,0.3,2.3,1s0.8,1.7,0.8,3.2s-0.3,2.5-0.8,3.1s-1.3,0.9-2.3,0.9
		s-1.8-0.3-2.3-0.9s-0.8-1.7-0.8-3.1S24.4,472.7,24.9,472z M28.6,475.1c0-1-0.1-1.7-0.3-2.1c-0.2-0.4-0.6-0.6-1-0.6
		s-0.8,0.2-1.1,0.6c-0.2,0.4-0.3,1.1-0.3,2.1s0.1,1.7,0.3,2.1s0.6,0.6,1.1,0.6s0.8-0.2,1-0.6S28.6,476.1,28.6,475.1z"/>
</g>
<line class="st34" x1="5.5" y1="476" x2="17.8" y2="476"/>
<line class="st34" x1="41.9" y1="476" x2="31.3" y2="476"/>
<g>
	<path class="st31" d="M22.7,428.8v7.9H21v-6l-1.7,1.1l-0.8-1.2l2.6-1.7L22.7,428.8L22.7,428.8z"/>
	<path class="st31" d="M30.2,428.8v1.4h-3.5l-0.2,1.7c0.5-0.2,1-0.3,1.4-0.3c1.7,0,2.6,0.8,2.6,2.4c0,0.9-0.2,1.6-0.7,2.1
		s-1.1,0.7-2,0.7c-0.4,0-0.8,0-1.3-0.1s-0.8-0.1-1.1-0.2l-0.4-0.1l0.2-1.2c1,0.2,1.8,0.2,2.4,0.2c0.4,0,0.7-0.1,0.9-0.3
		c0.2-0.2,0.3-0.5,0.3-0.9s-0.1-0.7-0.3-0.8s-0.4-0.3-0.7-0.3c-0.5,0-1,0.1-1.4,0.2h-0.2l-1-0.2l0.2-4.3L30.2,428.8L30.2,428.8z"/>
</g>
<line class="st34" x1="6" y1="433.6" x2="18.3" y2="433.6"/>
<line class="st34" x1="42.4" y1="433.6" x2="31.8" y2="433.6"/>
<g>
	<path class="st33" d="M19.5,95.5h-5.1v-1.4l1.7-1.7c0.6-0.6,1-1.1,1.3-1.4s0.4-0.7,0.4-1s-0.1-0.6-0.3-0.8C17.3,89,17,89,16.8,89
		c-0.5,0-1.1,0-1.8,0.1h-0.3l-0.1-1.3c0.8-0.2,1.6-0.4,2.4-0.4c1.7,0,2.5,0.8,2.5,2.3c0,0.6-0.1,1.1-0.4,1.5s-0.7,1-1.4,1.6L16.3,94
		h3.3C19.6,94,19.6,95.5,19.5,95.5z"/>
</g>
</svg>
