<?xml version="1.0" encoding="utf-8"?>
<!-- Generator: Adobe Illustrator 28.0.0, SVG Export Plug-In . SVG Version: 6.00 Build 0)  -->
<svg version="1.1" id="Livello_1" xmlns="http://www.w3.org/2000/svg" xmlns:xlink="http://www.w3.org/1999/xlink" x="0px" y="0px"
	 width="40.8px" height="725.2px" viewBox="0 0 40.8 725.2" style="enable-background:new 0 0 40.8 725.2;" xml:space="preserve">
<style type="text/css">
	.st0{fill:#A810A3;}
	.st1{fill:#808060;}
	.st2{fill:#B6E8F6;}
	.st3{fill:#5B0C03;}
	.st4{fill:#961405;}
	.st5{clip-path:url(#SVGID_00000084489408030335350630000013674173466480762799_);}
	.st6{fill:#E22208;}
	.st7{clip-path:url(#SVGID_00000084500399092996290460000011175642455509695163_);}
	.st8{fill:#E86411;}
	.st9{clip-path:url(#SVGID_00000067199659142406462290000013542812612505315466_);}
	.st10{fill:#F7EC31;}
	.st11{clip-path:url(#SVGID_00000028303303285696516700000002928130665348371379_);}
	.st12{clip-path:url(#SVGID_00000105426538545262433410000016340906501333184933_);}
	.st13{clip-path:url(#SVGID_00000032606280319388083140000003035906026717272961_);}
	.st14{fill:#0F2743;}
	.st15{clip-path:url(#SVGID_00000044157191132775399560000005612295516650544012_);}
	.st16{fill:#19C2F0;}
	.st17{clip-path:url(#SVGID_00000114754443142857858780000000481080692539930537_);}
	.st18{fill:#78DBF6;}
	.st19{clip-path:url(#SVGID_00000182520829398692224580000016498298697429601424_);}
	.st20{fill:#BDD5EF;}
	.st21{clip-path:url(#SVGID_00000181772031462008423990000008353285144043553155_);}
	.st22{fill:#DBF4FB;}
	.st23{clip-path:url(#SVGID_00000168834441025537244030000006313270140056360090_);}
	.st24{fill:#1B4674;}
	.st25{clip-path:url(#SVGID_00000092445671890307302990000015421631092953879690_);}
	.st26{fill:#518DCD;}
	.st27{fill:#71A2D6;}
	.st28{fill:#39322E;}
	.st29{fill:none;}
	.st30{fill:none;stroke:#3C3430;stroke-width:2;stroke-miterlimit:9.7722;}
	.st31{fill:#3B3330;}
	.st32{fill:#FFFFFF;}
	.st33{fill:#3C3530;}
	.st34{fill:none;stroke:#3C3430;stroke-miterlimit:9.7722;}
	.st35{fill:#3A3A2C;}
</style>
<rect x="2.5" y="130" class="st0" width="38.5" height="42.5"/>
<rect x="3.4" y="87.6" class="st1" width="36.6" height="42.3"/>
<rect x="3.4" y="636.8" class="st2" width="38" height="41.8"/>
<g>
	<g>
		<g>
			<g>
				<rect x="3" y="172.4" class="st3" width="37.3" height="42.7"/>
			</g>
		</g>
	</g>
</g>
<g>
	<g>
		<g>
			<g>
				<g>
					<rect x="2.7" y="215" class="st4" width="38.4" height="42.9"/>
				</g>
			</g>
		</g>
	</g>
	<g>
		<g>
			<defs>
				<path id="SVGID_1_" d="M40.9,720.5c-0.5,3.9-10.1,8.5-18.5,8.5l0,0c-8.2,0.4-19.5-3.8-19.5-8.5L3.4,104c1.7-5.6,11.3-6,17.8-6
					l0,0c7.7,0,17.9-0.4,19.6,9.1L40.9,720.5L40.9,720.5z"/>
			</defs>
			<clipPath id="SVGID_00000160191040844142651120000012147377308225918385_">
				<use xlink:href="#SVGID_1_"  style="overflow:visible;"/>
			</clipPath>
			<g style="clip-path:url(#SVGID_00000160191040844142651120000012147377308225918385_);">
				<g>
					<g>
						<rect x="-26.6" y="257.5" class="st6" width="100.4" height="42.6"/>
					</g>
				</g>
			</g>
		</g>
	</g>
	<g>
		<g>
			<defs>
				<path id="SVGID_00000112590203460518088560000007550413953159407012_" d="M40.9,720.5c-0.5,3.9-10.1,8.5-18.5,8.5l0,0
					c-8.2,0.4-19.5-3.8-19.5-8.5l0.4-617C5,97.9,14.6,98,21.1,98l0,0c7.7,0,18-0.5,19.6,9.1L40.9,720.5L40.9,720.5z"/>
			</defs>
			<clipPath id="SVGID_00000172403302064170602090000010255078743782523529_">
				<use xlink:href="#SVGID_00000112590203460518088560000007550413953159407012_"  style="overflow:visible;"/>
			</clipPath>
			<g style="clip-path:url(#SVGID_00000172403302064170602090000010255078743782523529_);">
				<g>
					<g>
						<rect x="-22.1" y="300" class="st8" width="100.4" height="42.6"/>
					</g>
				</g>
			</g>
		</g>
		<g>
			<defs>
				<path id="SVGID_00000147180186311970777950000010737423304260151694_" d="M40.9,720.5c-0.5,3.9-10.1,8.5-18.5,8.5l0,0
					c-8.2,0.4-19.5-3.8-19.5-8.5l0.4-617C5,97.9,14.6,98,21.1,98l0,0c7.7,0,18-0.5,19.6,9.1L40.9,720.5L40.9,720.5z"/>
			</defs>
			<clipPath id="SVGID_00000065060481675902330910000017349596333992188043_">
				<use xlink:href="#SVGID_00000147180186311970777950000010737423304260151694_"  style="overflow:visible;"/>
			</clipPath>
			<g style="clip-path:url(#SVGID_00000065060481675902330910000017349596333992188043_);">
				<g>
					<g>
						<rect x="-29.3" y="342" class="st10" width="100.4" height="42.6"/>
					</g>
				</g>
			</g>
		</g>
	</g>
	<g>
		<g>
			<defs>
				<path id="SVGID_00000021085589480574107390000017473097187556767658_" d="M40.8,107.1L41,720.5l0,0c-0.5,3.9-10.1,8.5-18.5,8.5
					l0,0c-8.2,0.4-19.5-3.8-19.5-8.5"/>
			</defs>
			<clipPath id="SVGID_00000106835534526658958070000008565834669904616833_">
				<use xlink:href="#SVGID_00000021085589480574107390000017473097187556767658_"  style="overflow:visible;"/>
			</clipPath>
		</g>
		<g>
			<defs>
				<path id="SVGID_00000016064078110055277950000013076933940411265206_" d="M40.8,107.1L41,720.5l0,0c-0.5,3.9-10.1,8.5-18.5,8.5
					l0,0c-8.2,0.4-19.5-3.8-19.5-8.5"/>
			</defs>
			<defs>
				<line id="SVGID_00000144314490219392635800000003112098182530636693_" x1="21.2" y1="97.9" x2="21.2" y2="97.9"/>
			</defs>
			<clipPath id="SVGID_00000136406104101531745450000007076840187940482189_">
				<use xlink:href="#SVGID_00000016064078110055277950000013076933940411265206_"  style="overflow:visible;"/>
			</clipPath>
			
				<clipPath id="SVGID_00000013152768395360717400000002236709286476600509_" style="clip-path:url(#SVGID_00000136406104101531745450000007076840187940482189_);">
				<use xlink:href="#SVGID_00000144314490219392635800000003112098182530636693_"  style="overflow:visible;"/>
			</clipPath>
			<g style="clip-path:url(#SVGID_00000013152768395360717400000002236709286476600509_);">
				<g>
					<g>
						<rect x="-22" y="311.8" class="st10" width="100.4" height="42.6"/>
					</g>
				</g>
			</g>
		</g>
	</g>
	<g>
		<g>
			<defs>
				<path id="SVGID_00000153699587264516144320000004175915389369620355_" d="M40.8,107.1L41,720.5l0,0c-0.5,3.9-10.1,8.5-18.5,8.5
					l0,0c-8.2,0.4-19.5-3.8-19.5-8.5V104.3C4.7,98.7,14.7,98,21.2,98l0,0"/>
			</defs>
			<clipPath id="SVGID_00000032631183603301430240000001841627859546649527_">
				<use xlink:href="#SVGID_00000153699587264516144320000004175915389369620355_"  style="overflow:visible;"/>
			</clipPath>
			<g style="clip-path:url(#SVGID_00000032631183603301430240000001841627859546649527_);">
				<g>
					<g>
						<rect x="-21.4" y="384.6" class="st14" width="100.4" height="42.6"/>
					</g>
				</g>
			</g>
		</g>
	</g>
	<g>
		<g>
			<defs>
				<path id="SVGID_00000147923805057933713490000014214025547568813955_" d="M40.9,720.5c-0.5,3.9-10.1,8.5-18.5,8.5l0,0
					c-8.2,0.4-19.5-3.8-19.5-8.5V103.7c1.7-5.6,11.7-5.8,18.2-5.8l0,0c7.7,0,18.2-0.4,19.6,9.1L40.9,720.5L40.9,720.5z"/>
			</defs>
			<clipPath id="SVGID_00000141420890627976407960000004686211123236978868_">
				<use xlink:href="#SVGID_00000147923805057933713490000014214025547568813955_"  style="overflow:visible;"/>
			</clipPath>
			<g style="clip-path:url(#SVGID_00000141420890627976407960000004686211123236978868_);">
				<g>
					<g>
						<rect x="-17.7" y="553.7" class="st16" width="100.4" height="42.6"/>
					</g>
				</g>
			</g>
		</g>
	</g>
	<g>
		<g>
			<defs>
				<path id="SVGID_00000095316604238419851010000003711428390238933152_" d="M40.9,720.5c-0.5,3.9-10.1,8.5-18.5,8.5l0,0
					c-8.2,0.4-19.5-3.8-19.5-8.5V103.7c1.7-5.6,11.7-5.8,18.2-5.8l0,0c7.7,0,18.2-0.9,19.6,9.1L40.9,720.5L40.9,720.5z"/>
			</defs>
			<clipPath id="SVGID_00000003078091031581263820000002379446843852470927_">
				<use xlink:href="#SVGID_00000095316604238419851010000003711428390238933152_"  style="overflow:visible;"/>
			</clipPath>
			<g style="clip-path:url(#SVGID_00000003078091031581263820000002379446843852470927_);">
				<g>
					<g>
						<rect x="-19.4" y="595.6" class="st18" width="100.4" height="42.6"/>
					</g>
				</g>
			</g>
		</g>
	</g>
	<g>
		<g>
			<defs>
				<path id="SVGID_00000026130705013858767920000015937911591603231402_" d="M40.9,720.5c-0.5,3.9-10.1,8.5-18.5,8.5l0,0
					c-8.2,0.4-19.5-3.8-19.5-8.5V106.9C2.7,92.6,14.6,97.8,21.1,98l0,0c7.7,0,18.3-0.5,19.6,9.1L40.9,720.5L40.9,720.5z"/>
			</defs>
			<clipPath id="SVGID_00000066478717811459669550000004907893424625180068_">
				<use xlink:href="#SVGID_00000026130705013858767920000015937911591603231402_"  style="overflow:visible;"/>
			</clipPath>
			<g style="clip-path:url(#SVGID_00000066478717811459669550000004907893424625180068_);">
				<g>
					<g>
						<rect x="-9.9" y="678.7" class="st20" width="100.4" height="42.6"/>
					</g>
				</g>
			</g>
		</g>
	</g>
	<g>
		<g>
			<defs>
				<path id="SVGID_00000108270891250295569190000001731237633225743294_" d="M40.9,720.5c-0.5,3.9-10.4,3.3-18.8,3.3l0,0
					c-8.2,0.4-18.8,0.6-18.8-4.2V102.5c1.7-5.6,11.3-4.6,17.8-4.6l0,0c7.7,0,17.7,0.3,19.6,6.2L40.9,720.5L40.9,720.5z"/>
			</defs>
			<clipPath id="SVGID_00000029740645509326084750000007122452141908553882_">
				<use xlink:href="#SVGID_00000108270891250295569190000001731237633225743294_"  style="overflow:visible;"/>
			</clipPath>
			<g style="clip-path:url(#SVGID_00000029740645509326084750000007122452141908553882_);">
				<g>
					<g>
						<rect x="-20.1" y="678.7" class="st22" width="100.4" height="47.7"/>
					</g>
				</g>
			</g>
		</g>
	</g>
	<g>
		<g>
			<defs>
				<path id="SVGID_00000139988505753129767130000004193833057487897730_" d="M40.9,720.5c-0.5,3.9-10.4,3.3-18.8,3.3l0,0
					c-8.2,0.4-19.2,1.4-19.2-3.3l0.4-617C5,97.9,14.6,98,21.1,98l0,0c7.7,0,17.2,0.6,19.1,6.5L40.9,720.5L40.9,720.5z"/>
			</defs>
			<clipPath id="SVGID_00000088814484785961147050000002927776859806966427_">
				<use xlink:href="#SVGID_00000139988505753129767130000004193833057487897730_"  style="overflow:visible;"/>
			</clipPath>
			<g style="clip-path:url(#SVGID_00000088814484785961147050000002927776859806966427_);">
				<g>
					<g>
						<rect x="-21.4" y="426.3" class="st24" width="100.4" height="42.6"/>
					</g>
				</g>
			</g>
		</g>
	</g>
	<g>
		<g>
			<defs>
				<path id="SVGID_00000091700900974720956620000002754201377844758698_" d="M40.9,720.5c-0.5,3.9-10.4,3.3-18.8,3.3l0,0
					c-8.2,0.4-19.2,1.4-18.4-2.8V104.2c0.9-6.1,10.9-6.3,17.4-6.3l0,0c7.7,0,17.2,0.3,19,6.2L40.9,720.5L40.9,720.5z"/>
			</defs>
			<clipPath id="SVGID_00000151513228801051923970000008164705766369757354_">
				<use xlink:href="#SVGID_00000091700900974720956620000002754201377844758698_"  style="overflow:visible;"/>
			</clipPath>
			<g style="clip-path:url(#SVGID_00000151513228801051923970000008164705766369757354_);">
				<g>
					<g>
						<rect x="-21" y="468.9" class="st26" width="100.4" height="42.6"/>
					</g>
				</g>
			</g>
		</g>
	</g>
	<g>
		<g>
			<g>
				<g>
					<rect x="3.5" y="511.6" class="st27" width="36.7" height="42.6"/>
				</g>
			</g>
		</g>
	</g>
</g>
<circle class="st28" cx="21.9" cy="21.8" r="19.8"/>
<rect x="8.6" y="680" class="st29" width="15.4" height="11.8"/>
<path class="st30" d="M34.1,723.8H9.6c-3.4,0-6.2-2.8-6.2-6.2V51.1c0-3.4,2.8-6.2,6.2-6.2h24.5c3.4,0,6.2,2.8,6.2,6.2v666.5
	C40.3,721,37.5,723.8,34.1,723.8z"/>
<g>
	<path class="st31" d="M23,672.8v7.9h-1.7v-6l-1.7,1.1l-0.8-1.2l2.6-1.7L23,672.8L23,672.8z"/>
</g>
<g>
	<path class="st31" d="M24.4,640.2h-5.1v-1.4l1.7-1.7c0.6-0.6,1-1.1,1.3-1.4s0.4-0.7,0.4-1s-0.1-0.6-0.3-0.8
		c-0.2-0.2-0.5-0.2-0.8-0.2c-0.5,0-1.1,0-1.8,0.1h-0.3l-0.1-1.3c0.8-0.2,1.6-0.4,2.4-0.4c1.7,0,2.5,0.8,2.5,2.3
		c0,0.6-0.1,1.1-0.4,1.5s-0.7,1-1.4,1.6l-1.4,1.2h3.3C24.4,638.7,24.4,640.2,24.4,640.2z"/>
</g>
<g>
	<path class="st32" d="M21.3,386.3h-5.1v-1.4l1.7-1.7c0.6-0.6,1-1.1,1.3-1.4c0.2-0.3,0.4-0.7,0.4-1s-0.1-0.6-0.3-0.8
		c-0.2-0.2-0.5-0.2-0.8-0.2c-0.5,0-1.1,0-1.8,0.1h-0.3l-0.1-1.3c0.8-0.2,1.6-0.4,2.4-0.4c1.7,0,2.5,0.8,2.5,2.3
		c0,0.6-0.1,1.1-0.4,1.5s-0.7,1-1.4,1.6l-1.4,1.2h3.3C21.3,384.8,21.3,386.3,21.3,386.3z"/>
	<path class="st32" d="M23.1,379.3c0.5-0.7,1.3-1,2.3-1s1.8,0.3,2.3,1s0.8,1.7,0.8,3.2s-0.3,2.5-0.8,3.1s-1.3,0.9-2.3,0.9
		s-1.8-0.3-2.3-0.9s-0.8-1.7-0.8-3.1S22.6,379.9,23.1,379.3z M26.8,382.4c0-1-0.1-1.7-0.3-2.1c-0.2-0.4-0.6-0.6-1-0.6
		s-0.8,0.2-1.1,0.6c-0.2,0.4-0.3,1.1-0.3,2.1s0.1,1.7,0.3,2.1s0.6,0.6,1.1,0.6s0.8-0.2,1-0.6S26.8,383.4,26.8,382.4z"/>
</g>
<g>
	<path class="st33" d="M20.7,342.8h-5.1v-1.4l1.7-1.7c0.6-0.6,1-1.1,1.3-1.4c0.2-0.3,0.4-0.7,0.4-1s-0.1-0.6-0.3-0.8
		c-0.2-0.2-0.5-0.2-0.8-0.2c-0.5,0-1.1,0-1.8,0.1h-0.3l-0.1-1.3c0.8-0.2,1.6-0.4,2.4-0.4c1.7,0,2.5,0.8,2.5,2.3
		c0,0.6-0.1,1.1-0.4,1.5s-0.7,1-1.4,1.6l-1.4,1.2h3.3C20.7,341.3,20.7,342.8,20.7,342.8z"/>
	<path class="st33" d="M27.4,334.9v1.4h-3.5l-0.2,1.7c0.5-0.2,1-0.3,1.4-0.3c1.7,0,2.6,0.8,2.6,2.4c0,0.9-0.2,1.6-0.7,2.1
		s-1.1,0.7-2,0.7c-0.4,0-0.8,0-1.3-0.1s-0.8-0.1-1.1-0.2l-0.4-0.1l0.2-1.2c1,0.2,1.8,0.2,2.4,0.2c0.4,0,0.7-0.1,0.9-0.3
		c0.2-0.2,0.3-0.5,0.3-0.9s-0.1-0.7-0.3-0.8s-0.4-0.3-0.7-0.3c-0.5,0-1,0.1-1.4,0.2h-0.2l-1-0.2l0.2-4.3L27.4,334.9L27.4,334.9z"/>
</g>
<g>
	<path class="st32" d="M19.1,260.5v-1.3h-3.4V258l2-5.4h1.8l-2.1,5.2h1.7v-2.2h1.7v2.2h0.8v1.4h-0.8v1.3H19.1z"/>
	<path class="st32" d="M23.1,253.4c0.5-0.7,1.3-1,2.3-1s1.8,0.3,2.3,1s0.8,1.7,0.8,3.2c0,1.5-0.3,2.5-0.8,3.1s-1.3,0.9-2.3,0.9
		s-1.8-0.3-2.3-0.9s-0.8-1.7-0.8-3.1S22.5,254.1,23.1,253.4z M26.7,256.6c0-1-0.1-1.7-0.3-2.1c-0.2-0.4-0.6-0.6-1-0.6
		c-0.5,0-0.8,0.2-1.1,0.6c-0.2,0.4-0.3,1.1-0.3,2.1s0.1,1.7,0.3,2.1c0.2,0.4,0.6,0.6,1.1,0.6s0.8-0.2,1-0.6S26.7,257.6,26.7,256.6z"
		/>
</g>
<g>
	<path class="st32" d="M20.8,208.4v1.4h-3.5l-0.2,1.7c0.5-0.2,1-0.3,1.4-0.3c1.7,0,2.6,0.8,2.6,2.4c0,0.9-0.2,1.6-0.7,2.1
		s-1.1,0.7-2,0.7c-0.4,0-0.8,0-1.3-0.1s-0.8-0.1-1.1-0.2l-0.4-0.1l0.2-1.2c1,0.2,1.8,0.2,2.4,0.2c0.4,0,0.7-0.1,0.9-0.3
		c0.2-0.2,0.3-0.5,0.3-0.9s-0.1-0.7-0.3-0.8s-0.4-0.3-0.7-0.3c-0.5,0-1,0.1-1.4,0.2h-0.2l-1-0.2l0.2-4.3L20.8,208.4L20.8,208.4z"/>
	<path class="st32" d="M22.7,209.3c0.5-0.7,1.3-1,2.3-1s1.8,0.3,2.3,1s0.8,1.7,0.8,3.2s-0.3,2.5-0.8,3.1s-1.3,0.9-2.3,0.9
		s-1.8-0.3-2.3-0.9s-0.8-1.7-0.8-3.1S22.2,209.9,22.7,209.3z M26.3,212.4c0-1-0.1-1.7-0.3-2.1c-0.2-0.4-0.6-0.6-1-0.6
		c-0.5,0-0.8,0.2-1.1,0.6c-0.2,0.4-0.3,1.1-0.3,2.1s0.1,1.7,0.3,2.1c0.2,0.4,0.6,0.6,1.1,0.6s0.8-0.2,1-0.6S26.3,213.4,26.3,212.4z"
		/>
</g>
<g>
	<path class="st32" d="M15.9,169.2v-1.5H21v1.9l-2.8,6.2l-1.5-0.4l2.7-5.8v-0.4H15.9z"/>
	<path class="st32" d="M27.7,167.7v1.4h-3.5l-0.2,1.7c0.5-0.2,1-0.3,1.4-0.3c1.7,0,2.6,0.8,2.6,2.4c0,0.9-0.2,1.6-0.7,2.1
		s-1.1,0.7-2,0.7c-0.4,0-0.8,0-1.3-0.1s-0.8-0.1-1.1-0.2l-0.4-0.1l0.2-1.2c1,0.2,1.8,0.2,2.4,0.2c0.4,0,0.7-0.1,0.9-0.3
		c0.2-0.2,0.3-0.5,0.3-0.9s-0.1-0.7-0.3-0.8s-0.4-0.3-0.7-0.3c-0.5,0-1,0.1-1.4,0.2h-0.2l-1-0.2l0.2-4.3L27.7,167.7L27.7,167.7z"/>
</g>
<line class="st34" x1="3.7" y1="678.6" x2="16.6" y2="678.6"/>
<line class="st34" x1="39.4" y1="678.6" x2="25.7" y2="678.6"/>
<line class="st34" x1="3.1" y1="637.7" x2="17" y2="637.7"/>
<line class="st34" x1="39.3" y1="638.1" x2="25.9" y2="638.1"/>
<line class="st34" x1="3.8" y1="384.1" x2="16.5" y2="384.1"/>
<line class="st34" x1="40.5" y1="384.2" x2="29.3" y2="384.2"/>
<line class="st34" x1="4.2" y1="340.7" x2="15" y2="340.7"/>
<line class="st34" x1="40.1" y1="340.7" x2="29.1" y2="340.7"/>
<line class="st34" x1="15.8" y1="257.1" x2="3.3" y2="257.1"/>
<line class="st34" x1="39.8" y1="257.3" x2="28.8" y2="257.3"/>
<line class="st34" x1="3.4" y1="214.6" x2="15.3" y2="214.6"/>
<line class="st34" x1="39.9" y1="214.6" x2="28.8" y2="214.6"/>
<line class="st34" x1="4.4" y1="172.4" x2="12.4" y2="172.4"/>
<line class="st34" x1="31.3" y1="172.4" x2="39.3" y2="172.4"/>
<g>
	<path class="st32" d="M36.9,22.8v-0.1C36.9,15.2,30.7,9,23,8.6V7.3c0-0.3-0.3-0.7-0.8-0.7s-0.8,0.3-0.8,0.7v1.3
		c-7.8,0.3-14,6.5-14,14.1c0,0.3,0.3,0.7,0.8,0.7c0.2,0,0.3-0.1,0.6-0.2c2.5-2.3,5.8-2.3,8.2,0c0.1,0.1,0.3,0.2,0.6,0.2
		c0.2,0,0.3-0.1,0.5-0.2c1-0.9,2.2-1.5,3.4-1.6v9.8c0,1.9,1.7,3.7,3.8,3.7s3.8-1.6,3.8-3.7c0-0.3-0.3-0.7-0.8-0.7s-0.8,0.3-0.8,0.7
		c0,1.1-1,2.2-2.3,2.2s-2.3-1-2.3-2.2v-9.8c1.1,0.1,2.4,0.7,3.4,1.6c0.2,0.2,0.8,0.2,1,0c2.5-2.3,5.8-2.3,8.3,0
		c0.2,0.2,0.7,0.2,0.9,0.1C36.8,23.1,36.9,23,36.9,22.8z M26.1,21.3c-1.3-0.8-2.6-1.3-4-1.3H22h-0.1c-1.4,0-2.7,0.5-4,1.3
		c-0.3-4.9,0.9-8.8,2.5-10.5c1-1.1,2.1-1.1,3.2,0C25.2,12.5,26.6,16.3,26.1,21.3z M9,21.1c0.7-5.4,4.8-9.6,10-10.8
		c-1.5,1.9-2.9,5.7-2.5,10.8C14.3,19.7,11.4,19.7,9,21.1z M27.7,21.1c0.3-5.1-1-8.9-2.5-10.8c5.4,1.3,9.4,5.5,10,10.8
		C32.9,19.7,30.1,19.7,27.7,21.1z"/>
</g>
<g>
	<path class="st31" d="M21.7,597.7v-1.3h-3.4v-1.3l2-5.4h1.8L20,595h1.7v-2.2h1.7v2.2h0.8v1.4h-0.8v1.3H21.7z"/>
</g>
<line class="st34" x1="3.1" y1="595.2" x2="17" y2="595.2"/>
<line class="st34" x1="39.5" y1="595.2" x2="26.1" y2="595.2"/>
<g>
	<path class="st31" d="M24.9,550.4c-0.8-0.1-1.5-0.2-2.1-0.2c-1.1,0-1.7,0.6-1.7,1.8l0.3-0.1c0.5-0.2,0.9-0.2,1.3-0.2
		c0.9,0,1.6,0.2,2,0.6s0.7,1.1,0.7,1.9s-0.3,1.5-0.8,2c-0.5,0.4-1.3,0.7-2.2,0.7c-1,0-1.7-0.4-2.2-1.1s-0.7-1.8-0.7-3.1
		s0.3-2.4,0.9-3c0.6-0.7,1.4-1,2.4-1c0.6,0,1.3,0.1,2,0.3l0.4,0.1L24.9,550.4z M22.5,553.2c-0.4,0-0.8,0.1-1.2,0.2l-0.2,0.1
		c0,1.4,0.4,2.1,1.3,2.1c0.4,0,0.7-0.1,0.9-0.3s0.3-0.5,0.3-0.9C23.6,553.6,23.2,553.2,22.5,553.2z"/>
</g>
<line class="st34" x1="3.6" y1="554" x2="17.5" y2="554"/>
<line class="st34" x1="40" y1="554" x2="26.6" y2="554"/>
<g>
	<path class="st32" d="M20,506.2c0.5-0.4,1.2-0.6,2.1-0.6s1.6,0.2,2.1,0.6s0.8,0.9,0.8,1.6c0,0.5-0.1,0.8-0.2,1s-0.3,0.5-0.7,0.8
		c0.4,0.3,0.6,0.6,0.8,0.8c0.2,0.3,0.2,0.6,0.2,1.1c0,0.8-0.3,1.4-0.8,1.7s-1.3,0.6-2.2,0.6c-2,0-3-0.7-3-2.2c0-0.5,0.1-0.9,0.2-1.2
		s0.4-0.6,0.8-0.9c-0.3-0.3-0.6-0.5-0.7-0.8s-0.2-0.6-0.2-1C19.3,507.2,19.5,506.6,20,506.2z M20.9,511.3c0,0.7,0.4,1.1,1.2,1.1
		s1.2-0.4,1.2-1.1c0-0.4-0.2-0.7-0.7-0.9h-1.1C21.1,510.6,20.9,510.9,20.9,511.3z M22.1,507.2c-0.4,0-0.6,0.1-0.8,0.2
		s-0.3,0.4-0.3,0.7s0.2,0.6,0.6,0.9h1.1c0.4-0.3,0.6-0.6,0.6-0.9C23.3,507.5,22.9,507.2,22.1,507.2z"/>
</g>
<line class="st34" x1="4.1" y1="511.2" x2="18" y2="511.2"/>
<line class="st34" x1="40" y1="511.2" x2="26.6" y2="511.2"/>
<g>
	<path class="st32" d="M19.7,463.7v7.9H18v-6l-1.7,1.1l-0.8-1.2l2.6-1.7L19.7,463.7L19.7,463.7z"/>
	<path class="st32" d="M22.4,464.5c0.5-0.7,1.3-1,2.3-1s1.8,0.3,2.3,1s0.8,1.7,0.8,3.2s-0.3,2.5-0.8,3.1s-1.3,0.9-2.3,0.9
		s-1.8-0.3-2.3-0.9s-0.8-1.7-0.8-3.1S21.9,465.2,22.4,464.5z M26.1,467.7c0-1-0.1-1.7-0.3-2.1c-0.2-0.4-0.6-0.6-1-0.6
		c-0.5,0-0.8,0.2-1.1,0.6c-0.2,0.4-0.3,1.1-0.3,2.1s0.1,1.7,0.3,2.1c0.2,0.4,0.6,0.6,1.1,0.6s0.8-0.2,1-0.6S26.1,468.7,26.1,467.7z"
		/>
</g>
<line class="st34" x1="3" y1="468.5" x2="15.3" y2="468.5"/>
<line class="st34" x1="39.4" y1="468.5" x2="28.8" y2="468.5"/>
<g>
	<path class="st32" d="M19.7,421.9v7.9H18v-6l-1.7,1.1l-0.8-1.2l2.6-1.7L19.7,421.9L19.7,421.9z"/>
	<path class="st32" d="M27.2,421.9v1.4h-3.5l-0.2,1.7c0.5-0.2,1-0.3,1.4-0.3c1.7,0,2.6,0.8,2.6,2.4c0,0.9-0.2,1.6-0.7,2.1
		s-1.1,0.7-2,0.7c-0.4,0-0.8,0-1.3-0.1s-0.8-0.1-1.1-0.2l-0.4-0.1l0.2-1.2c1,0.2,1.8,0.2,2.4,0.2c0.4,0,0.7-0.1,0.9-0.3
		c0.2-0.2,0.3-0.5,0.3-0.9s-0.1-0.7-0.3-0.8s-0.4-0.3-0.7-0.3c-0.5,0-1,0.1-1.4,0.2h-0.2l-1-0.2l0.2-4.3L27.2,421.9L27.2,421.9z"/>
</g>
<line class="st34" x1="3.5" y1="426.7" x2="15.8" y2="426.7"/>
<line class="st34" x1="39.9" y1="426.7" x2="29.3" y2="426.7"/>
<g>
	<path class="st32" d="M15.7,294c0.7-0.3,1.6-0.4,2.5-0.4s1.6,0.2,2,0.5s0.6,0.9,0.6,1.7c0,0.8-0.3,1.4-0.9,1.8
		c0.4,0.2,0.7,0.4,0.8,0.6s0.2,0.6,0.2,1.1c0,0.9-0.2,1.5-0.6,1.9s-1.1,0.6-2.1,0.6c-0.7,0-1.4-0.1-2.2-0.3l-0.4-0.1l0.1-1.3
		c0.9,0.2,1.6,0.2,2.3,0.2c0.8,0,1.2-0.4,1.2-1.1c0-0.3-0.1-0.5-0.3-0.7c-0.2-0.2-0.5-0.3-0.8-0.3h-1.6V297h1.6
		c0.3,0,0.5-0.1,0.7-0.3c0.2-0.2,0.3-0.5,0.3-0.7c0-0.6-0.4-0.9-1.2-0.9c-0.6,0-1.1,0.1-1.8,0.2h-0.3L15.7,294z"/>
	<path class="st32" d="M22.8,294.6c0.5-0.7,1.3-1,2.3-1s1.8,0.3,2.3,1s0.8,1.7,0.8,3.2s-0.3,2.5-0.8,3.1s-1.3,0.9-2.3,0.9
		s-1.8-0.3-2.3-0.9s-0.8-1.7-0.8-3.1S22.3,295.2,22.8,294.6z M26.4,297.7c0-1-0.1-1.7-0.3-2.1c-0.2-0.4-0.6-0.6-1-0.6
		s-0.8,0.2-1.1,0.6c-0.2,0.4-0.3,1.1-0.3,2.1s0.1,1.7,0.3,2.1s0.6,0.6,1.1,0.6s0.8-0.2,1-0.6S26.4,298.7,26.4,297.7z"/>
</g>
<line class="st34" x1="4.4" y1="299.5" x2="15.2" y2="299.5"/>
<line class="st34" x1="40.2" y1="299.5" x2="29.3" y2="299.5"/>
<g>
	<path class="st31" d="M14.7,719.7h-1.6v-6h1.6v0.3c0.6-0.3,1-0.5,1.4-0.5c0.6,0,1.1,0.2,1.5,0.6c0.7-0.4,1.4-0.6,2-0.6
		c0.8,0,1.3,0.2,1.7,0.7c0.3,0.5,0.5,1.2,0.5,2.2v3.3h-1.6v-3.2c0-0.5-0.1-0.9-0.2-1.1c-0.1-0.2-0.3-0.4-0.7-0.4
		c-0.3,0-0.6,0.1-0.9,0.2l-0.2,0.1c0,0.6,0,1.1,0,1.4v3.1h-1.6v-3.1c0-0.6-0.1-1-0.2-1.3c-0.1-0.2-0.3-0.4-0.7-0.4
		c-0.3,0-0.6,0.1-0.9,0.2h-0.1C14.7,715.2,14.7,719.7,14.7,719.7z"/>
	<path class="st31" d="M24.7,719.7h-1.6v-6h1.6v0.3c0.6-0.3,1-0.5,1.4-0.5c0.6,0,1.1,0.2,1.5,0.6c0.7-0.4,1.4-0.6,2-0.6
		c0.8,0,1.3,0.2,1.6,0.7c0.3,0.5,0.5,1.2,0.5,2.2v3.3h-1.6v-3.2c0-0.5-0.1-0.9-0.2-1.1c-0.1-0.2-0.3-0.4-0.7-0.4
		c-0.3,0-0.6,0.1-0.9,0.2l-0.2,0.1c0,0.6,0,1.1,0,1.4v3.1h-1.6v-3.1c0-0.6-0.1-1-0.2-1.3c-0.1-0.2-0.3-0.4-0.7-0.4
		c-0.3,0-0.6,0.1-0.9,0.2h-0.1v4.5H24.7z"/>
</g>
<path class="st35" d="M39.4,87.9H4.9c-0.3,0-0.6-0.3-0.6-0.6V48.1c0-1.5,1.2-2.7,2.7-2.7h28.8c2.3,0,4.2,1.9,4.2,4.2v37.7
	C40,87.6,39.8,87.9,39.4,87.9z"/>
<g>
	<path class="st32" d="M16.4,126.3v7.9h-1.7v-6l-1.7,1.1l-0.8-1.2l2.6-1.7h1.6V126.3z"/>
	<path class="st32" d="M19.2,127.1c0.5-0.7,1.3-1,2.3-1s1.8,0.3,2.3,1s0.8,1.7,0.8,3.2s-0.3,2.5-0.8,3.1s-1.3,0.9-2.3,0.9
		s-1.8-0.3-2.3-0.9c-0.5-0.6-0.8-1.7-0.8-3.1S18.7,127.8,19.2,127.1z M22.9,130.3c0-1-0.1-1.7-0.3-2.1c-0.2-0.4-0.6-0.6-1-0.6
		s-0.8,0.2-1.1,0.6c-0.2,0.4-0.3,1.1-0.3,2.1s0.1,1.7,0.3,2.1s0.6,0.6,1.1,0.6s0.8-0.2,1-0.6S22.9,131.2,22.9,130.3z"/>
	<path class="st32" d="M25.9,127.1c0.5-0.7,1.3-1,2.3-1s1.8,0.3,2.3,1s0.8,1.7,0.8,3.2s-0.3,2.5-0.8,3.1s-1.3,0.9-2.3,0.9
		s-1.8-0.3-2.3-0.9c-0.5-0.6-0.8-1.7-0.8-3.1S25.4,127.8,25.9,127.1z M29.6,130.3c0-1-0.1-1.7-0.3-2.1c-0.2-0.4-0.6-0.6-1-0.6
		s-0.8,0.2-1.1,0.6c-0.2,0.4-0.3,1.1-0.3,2.1s0.1,1.7,0.3,2.1s0.6,0.6,1.1,0.6s0.8-0.2,1-0.6S29.6,131.2,29.6,130.3z"/>
</g>
<line class="st34" x1="4.5" y1="130.2" x2="12.6" y2="130.2"/>
<line class="st34" x1="32.3" y1="130.3" x2="40.3" y2="130.3"/>
<g>
	<path class="st32" d="M18.1,89.9H13v-1.4l1.7-1.7c0.6-0.6,1-1.1,1.3-1.4c0.2-0.3,0.4-0.7,0.4-1s-0.1-0.6-0.3-0.8
		c-0.2-0.2-0.5-0.2-0.8-0.2c-0.5,0-1.1,0-1.8,0.1h-0.3l-0.1-1.3c0.8-0.2,1.6-0.4,2.4-0.4c1.7,0,2.5,0.8,2.5,2.3
		c0,0.6-0.1,1.1-0.4,1.5s-0.7,1-1.4,1.6l-1.4,1.2h3.3V89.9z"/>
	<path class="st32" d="M20,82.8c0.5-0.7,1.3-1,2.3-1s1.8,0.3,2.3,1s0.8,1.7,0.8,3.2s-0.3,2.5-0.8,3.1S23.3,90,22.3,90
		s-1.8-0.3-2.3-0.9s-0.8-1.7-0.8-3.1S19.5,83.5,20,82.8z M23.6,86c0-1-0.1-1.7-0.3-2.1c-0.2-0.4-0.6-0.6-1-0.6s-0.8,0.2-1.1,0.6
		C21,84.3,20.9,85,20.9,86s0.1,1.7,0.3,2.1s0.6,0.6,1.1,0.6s0.8-0.2,1-0.6S23.6,87,23.6,86z"/>
	<path class="st32" d="M26.7,82.8c0.5-0.7,1.3-1,2.3-1s1.8,0.3,2.3,1s0.8,1.7,0.8,3.2s-0.3,2.5-0.8,3.1S30,90,29,90
		s-1.8-0.3-2.3-0.9s-0.8-1.7-0.8-3.1S26.2,83.5,26.7,82.8z M30.4,86c0-1-0.1-1.7-0.3-2.1s-0.6-0.6-1-0.6s-0.8,0.2-1.1,0.6
		c-0.2,0.4-0.3,1.1-0.3,2.1s0.1,1.7,0.3,2.1s0.6,0.6,1.1,0.6s0.8-0.2,1-0.6C30.3,87.7,30.4,87,30.4,86z"/>
</g>
<line class="st34" x1="2.9" y1="87.4" x2="13" y2="87.4"/>
<line class="st34" x1="32.4" y1="87.3" x2="39.4" y2="87.3"/>
<rect x="8.5" y="678.7" class="st29" width="15.4" height="12.1"/>
<path class="st30" d="M34,723.7H9.5c-3.4,0-6.2-3-6.2-6.7V51.2c0-3.7,2.8-6.7,6.2-6.7H34c3.4,0,6.2,3,6.2,6.7V717
	C40.2,720.7,37.4,723.7,34,723.7z"/>
<g>
	<path class="st33" d="M16.2,46.8v8.1h-1.7v-6.2l-1.7,1.1L12,48.6l2.6-1.7L16.2,46.8L16.2,46.8z"/>
	<path class="st33" d="M18.9,47.6c0.5-0.7,1.3-1,2.3-1s1.8,0.3,2.3,1s0.8,1.7,0.8,3.3c0,1.5-0.3,2.6-0.8,3.2S22.2,55,21.2,55
		s-1.8-0.3-2.3-0.9s-0.8-1.7-0.8-3.2S18.4,48.3,18.9,47.6z M22.6,50.8c0-1-0.1-1.7-0.3-2.2c-0.2-0.4-0.6-0.6-1-0.6
		c-0.5,0-0.8,0.2-1.1,0.6c-0.2,0.4-0.3,1.1-0.3,2.2c0,1,0.1,1.7,0.3,2.2c0.2,0.4,0.6,0.6,1.1,0.6s0.8-0.2,1-0.6
		C22.5,52.6,22.6,51.8,22.6,50.8z"/>
	<path class="st33" d="M25.7,47.6c0.5-0.7,1.3-1,2.3-1s1.8,0.3,2.3,1s0.8,1.7,0.8,3.3c0,1.5-0.3,2.6-0.8,3.2S29,55,28,55
		s-1.8-0.3-2.3-0.9s-0.8-1.7-0.8-3.2S25.1,48.3,25.7,47.6z M29.3,50.8c0-1-0.1-1.7-0.3-2.2c-0.2-0.4-0.6-0.6-1-0.6
		c-0.5,0-0.8,0.2-1.1,0.6c-0.2,0.4-0.3,1.1-0.3,2.2c0,1,0.1,1.7,0.3,2.2c0.2,0.4,0.6,0.6,1.1,0.6s0.8-0.2,1-0.6
		C29.2,52.6,29.3,51.8,29.3,50.8z"/>
</g>
</svg>
