<?xml version="1.0" encoding="utf-8"?>
<!-- Generator: Adobe Illustrator 28.0.0, SVG Export Plug-In . SVG Version: 6.00 Build 0)  -->
<svg version="1.1" id="Livello_1" xmlns="http://www.w3.org/2000/svg" xmlns:xlink="http://www.w3.org/1999/xlink" x="0px" y="0px"
	 width="50px" height="677px"  viewBox="0 0 48.7 677.2" style="enable-background:new 0 0 48.7 677.2;" xml:space="preserve">
<style type="text/css">
	.st0{fill:#961405;}
	.st1{clip-path:url(#SVGID_00000134928733998160143830000015045729216379603851_);}
	.st2{display:none;}
	.st3{display:inline;}
	.st4{fill:#6E0E04;}
	.st5{fill:#E22208;}
	.st6{fill:#E86411;}
	.st7{fill:#E1D52D;}
	.st8{fill:#F7EC31;}
	.st9{fill:none;}
	.st10{fill:#173A62;}
	.st11{fill:#79AADE;}
	.st12{fill:#9CC1E7;}
	.st13{fill:#BDD5EF;}
	.st14{fill:#DEEAF7;}
	.st15{fill:#235A95;}
	.st16{fill:#2E6FB8;}
	.st17{fill:#548ECE;}
	.st18{fill:#808060;}
	.st19{fill:#A810A3;}
	.st20{fill:#3A3A2C;}
	.st21{fill:#39322E;}
	.st22{fill:none;stroke:#3C3430;stroke-width:2;stroke-miterlimit:9.7722;}
	.st23{fill:#3B3330;}
	.st24{fill:#FFFFFF;}
	.st25{fill:#3C3530;}
	.st26{fill:none;stroke:#3C3430;stroke-miterlimit:9.7722;}
</style>
<g>
	<g>
		<g>
			<g>
				<rect x="5.5" y="92.3" class="st0" width="37.3" height="42.7"/>
			</g>
		</g>
	</g>
</g>
<g>
	<defs>
		<path id="SVGID_1_" d="M42.5,671.5c-0.5,3.8-8,4.3-16.1,4.3l-2,0c-8,0.4-17.5,1-17.5-3.6V54.3c1.7-5.4,11.6-4.4,17.8-4.4L24,49.8
			c7.5,0,17.2-3.2,19,2.5l0.2,610.3L42.5,671.5z"/>
	</defs>
	<clipPath id="SVGID_00000099652612116982090150000000157124351710501289_">
		<use xlink:href="#SVGID_1_"  style="overflow:visible;"/>
	</clipPath>
	<g style="clip-path:url(#SVGID_00000099652612116982090150000000157124351710501289_);">
		<g>
			<g>
				<g>
					<g>
						<rect x="-15.3" y="154.5" class="st4" width="86" height="37.4"/>
					</g>
				</g>
			</g>
		</g>
		<g>
			<g>
				<g>
					<g>
						<rect x="-19.4" y="191.6" class="st0" width="86" height="36.6"/>
					</g>
				</g>
			</g>
		</g>
		<g>
			<g>
				<g>
					<g>
						<rect x="-15.6" y="228.2" class="st5" width="86.3" height="36.8"/>
					</g>
				</g>
			</g>
		</g>
		<g>
			<g>
				<g>
					<rect x="-15.6" y="264.9" class="st6" width="86" height="36.6"/>
				</g>
			</g>
		</g>
		<g>
			<g>
				<g>
					<rect x="-14.8" y="301.4" class="st7" width="86" height="36.6"/>
				</g>
			</g>
		</g>
		<g>
			<g>
				<g>
					<rect x="-20.7" y="338" class="st8" width="86" height="36.6"/>
				</g>
			</g>
		</g>
		<g>
			<g>
				<g>
					<rect x="-14.8" y="337.9" class="st8" width="86" height="36.6"/>
				</g>
			</g>
		</g>
		<g>
			<g>
				<g>
					<rect x="-14.8" y="374.5" class="st10" width="86" height="36.6"/>
				</g>
			</g>
		</g>
		<g>
			<g>
				<g>
					<rect x="-13.7" y="520.6" class="st11" width="86" height="36.6"/>
				</g>
			</g>
		</g>
		<g>
			<g>
				<g>
					<rect x="-13.7" y="557.1" class="st12" width="86" height="36.6"/>
				</g>
			</g>
		</g>
		<g>
			<g>
				<g>
					<rect x="-12.9" y="593.7" class="st13" width="86" height="36.6"/>
				</g>
			</g>
		</g>
		<g>
			<g>
				<g>
					<polygon class="st14" points="-13.1,625.7 72.8,625.7 72.8,675.8 -13.1,674.7 					"/>
				</g>
			</g>
		</g>
		<g>
			<g>
				<g>
					<rect x="-13.7" y="411" class="st15" width="86" height="36.6"/>
				</g>
			</g>
		</g>
		<g>
			<g>
				<g>
					<g>
						<rect x="-13.7" y="447.5" class="st16" width="86" height="36.6"/>
					</g>
				</g>
			</g>
		</g>
		<g>
			<g>
				<g>
					<g>
						<rect x="-12.9" y="484.1" class="st17" width="83.3" height="36.6"/>
					</g>
				</g>
			</g>
		</g>
		<g>
			<g>
				<g>
					<g>
						<rect x="-9.5" y="83.3" class="st18" width="86" height="37.4"/>
					</g>
				</g>
			</g>
		</g>
		<g>
			<g>
				<g>
					<g>
						<rect x="-13.7" y="120.4" class="st19" width="86" height="36.6"/>
					</g>
				</g>
			</g>
		</g>
		<g>
			<g>
				<g>
					<g>
						<rect x="-9.5" y="46.8" class="st20" width="86" height="36.6"/>
					</g>
				</g>
			</g>
		</g>
	</g>
</g>
<circle class="st21" cx="24.1" cy="26.6" r="19.8"/>
<path class="st22" d="M36.6,675.8H12.1c-3.4,0-6.2-2.8-6.2-6.2V56.1c0-3.4,2.8-6.2,6.2-6.2h24.5c3.4,0,6.2,2.8,6.2,6.2v613.5
	C42.8,673,40,675.8,36.6,675.8z"/>
<g>
	<path class="st23" d="M25.4,620.3v7.9h-0.9v-6.9l-2,1.3l-0.4-0.7l2.5-1.7H25.4z"/>
</g>
<g>
	<path class="st23" d="M26.9,596.8h-5.1V596l2.3-2.4c0.4-0.4,0.7-0.7,0.9-0.9c0.2-0.2,0.3-0.5,0.5-0.8c0.1-0.3,0.2-0.6,0.2-0.9
		c0-0.5-0.1-0.9-0.4-1.1c-0.3-0.2-0.7-0.3-1.3-0.3c-0.5,0-1.1,0.1-1.7,0.2l-0.3,0.1l-0.1-0.8c0.8-0.2,1.5-0.3,2.4-0.3
		c0.8,0,1.4,0.2,1.8,0.5c0.4,0.3,0.6,0.9,0.6,1.6c0,0.6-0.1,1-0.4,1.5s-0.7,0.9-1.3,1.5l-2.1,2.1h4V596.8z"/>
</g>
<g>
	<path class="st24" d="M21.9,376.4v-1.5h-3.8v-0.7l2.3-5.7h1L19,374h2.9v-2.5h0.9v2.5h1v0.8h-1v1.5H21.9z"/>
	<path class="st24" d="M27.7,368.3c0.7,0,1.2,0.1,1.6,0.4c0.9,0.5,1.3,1.8,1.3,3.8c0,1.4-0.2,2.5-0.7,3.1c-0.5,0.6-1.2,0.9-2.2,0.9
		s-1.7-0.3-2.2-0.9c-0.5-0.6-0.7-1.6-0.7-3.1c0-1.5,0.2-2.6,0.7-3.2C26,368.6,26.7,368.3,27.7,368.3z M27.7,369.1
		c-0.5,0-0.8,0.1-1.1,0.3c-0.6,0.4-0.9,1.4-0.9,3.1c0,1.2,0.2,2,0.5,2.5c0.3,0.5,0.8,0.7,1.5,0.7s1.2-0.2,1.5-0.7
		c0.3-0.5,0.5-1.3,0.5-2.5s-0.2-2.1-0.5-2.6S28.4,369.1,27.7,369.1z"/>
</g>
<g>
	<path class="st25" d="M23.4,331.8v0.8h-3.9l-0.2,2.6c0.6-0.3,1.2-0.5,1.9-0.5c1.7,0,2.5,0.8,2.5,2.3c0,0.9-0.2,1.6-0.7,2.1
		c-0.5,0.5-1.1,0.7-2,0.7c-0.7,0-1.4-0.1-2.2-0.3l-0.4-0.1l0.1-0.7c0.9,0.2,1.7,0.3,2.3,0.3s1.1-0.2,1.4-0.5
		c0.3-0.3,0.5-0.8,0.5-1.4s-0.1-1-0.4-1.2s-0.7-0.4-1.2-0.4c-0.3,0-0.6,0-0.9,0.1c-0.3,0.1-0.6,0.2-0.7,0.2l-0.3,0.1l-0.6-0.1
		l0.2-4.1H23.4z"/>
	<path class="st25" d="M27.7,331.7c0.7,0,1.2,0.1,1.6,0.4c0.9,0.5,1.3,1.8,1.3,3.8c0,1.4-0.2,2.5-0.7,3.1c-0.5,0.6-1.2,0.9-2.2,0.9
		s-1.7-0.3-2.2-0.9c-0.5-0.6-0.7-1.6-0.7-3.1c0-1.5,0.2-2.6,0.7-3.2C26,332,26.7,331.7,27.7,331.7z M27.7,332.5
		c-0.5,0-0.8,0.1-1.1,0.3c-0.6,0.4-0.9,1.4-0.9,3.1c0,1.2,0.2,2,0.5,2.5c0.3,0.5,0.8,0.7,1.5,0.7s1.2-0.2,1.5-0.7
		c0.3-0.5,0.5-1.3,0.5-2.5s-0.1-2.1-0.5-2.6C28.9,332.8,28.4,332.5,27.7,332.5z"/>
</g>
<g>
	<path class="st24" d="M19,260v7.9h-0.9V261l-2,1.3l-0.4-0.7l2.5-1.7H19z"/>
	<path class="st24" d="M24.4,259.8c0.7,0,1.2,0.1,1.6,0.4c0.9,0.5,1.3,1.8,1.3,3.8c0,1.4-0.2,2.5-0.7,3.1c-0.5,0.6-1.2,0.9-2.2,0.9
		s-1.7-0.3-2.2-0.9c-0.5-0.6-0.7-1.6-0.7-3.1c0-1.5,0.2-2.6,0.7-3.2C22.7,260.2,23.5,259.8,24.4,259.8z M24.5,260.7
		c-0.5,0-0.8,0.1-1.1,0.3c-0.6,0.4-0.9,1.4-0.9,3.1c0,1.2,0.2,2,0.5,2.5c0.3,0.5,0.8,0.7,1.5,0.7s1.2-0.2,1.5-0.7
		c0.3-0.5,0.5-1.3,0.5-2.5s-0.2-2.1-0.5-2.6S25.1,260.7,24.5,260.7z"/>
	<path class="st24" d="M31.2,259.8c0.7,0,1.2,0.1,1.6,0.4c0.9,0.5,1.3,1.8,1.3,3.8c0,1.4-0.2,2.5-0.7,3.1c-0.5,0.6-1.2,0.9-2.2,0.9
		c-1,0-1.7-0.3-2.2-0.9c-0.5-0.6-0.7-1.6-0.7-3.1c0-1.5,0.2-2.6,0.7-3.2C29.5,260.2,30.2,259.8,31.2,259.8z M31.2,260.7
		c-0.5,0-0.8,0.1-1.1,0.3c-0.6,0.4-0.9,1.4-0.9,3.1c0,1.2,0.2,2,0.5,2.5c0.3,0.5,0.8,0.7,1.5,0.7s1.2-0.2,1.5-0.7
		c0.3-0.5,0.5-1.3,0.5-2.5s-0.2-2.1-0.5-2.6S31.9,260.7,31.2,260.7z"/>
</g>
<g>
	<path class="st24" d="M18.6,223v7.9h-0.9v-6.9l-2,1.3l-0.4-0.7l2.5-1.7H18.6z"/>
	<path class="st24" d="M26.4,223v0.8h-3.9l-0.2,2.6c0.6-0.3,1.2-0.5,1.9-0.5c1.7,0,2.5,0.8,2.5,2.3c0,0.9-0.2,1.6-0.7,2.1
		c-0.5,0.5-1.1,0.7-2,0.7c-0.7,0-1.4-0.1-2.2-0.3l-0.4-0.1l0.1-0.7c0.9,0.2,1.7,0.3,2.3,0.3s1.1-0.2,1.4-0.5
		c0.3-0.3,0.5-0.8,0.5-1.4s-0.1-1-0.4-1.2s-0.7-0.4-1.2-0.4c-0.3,0-0.6,0-0.9,0.1c-0.3,0.1-0.6,0.2-0.7,0.2l-0.3,0.1l-0.6-0.1
		l0.2-4.1H26.4z"/>
	<path class="st24" d="M30.8,222.9c0.7,0,1.2,0.1,1.6,0.4c0.9,0.5,1.3,1.8,1.3,3.8c0,1.4-0.2,2.5-0.7,3.1c-0.5,0.6-1.2,0.9-2.2,0.9
		s-1.7-0.3-2.2-0.9c-0.5-0.6-0.7-1.6-0.7-3.1c0-1.5,0.2-2.6,0.7-3.2C29.1,223.2,29.8,222.9,30.8,222.9z M30.8,223.7
		c-0.5,0-0.8,0.1-1.1,0.3c-0.6,0.4-0.9,1.4-0.9,3.1c0,1.2,0.2,2,0.5,2.5c0.3,0.5,0.8,0.7,1.5,0.7s1.2-0.2,1.5-0.7
		c0.3-0.5,0.5-1.3,0.5-2.5s-0.1-2.1-0.5-2.6C31.9,224,31.5,223.7,30.8,223.7z"/>
</g>
<g>
	<path class="st24" d="M18.6,194.6h-5.1v-0.8l2.3-2.4c0.4-0.4,0.7-0.7,0.9-0.9c0.2-0.2,0.3-0.5,0.5-0.8c0.1-0.3,0.2-0.6,0.2-0.9
		c0-0.5-0.1-0.9-0.4-1.1c-0.3-0.2-0.7-0.3-1.3-0.3c-0.5,0-1.1,0.1-1.7,0.2l-0.3,0.1l-0.1-0.8c0.8-0.2,1.5-0.3,2.4-0.3
		c0.8,0,1.4,0.2,1.8,0.5c0.4,0.3,0.6,0.9,0.6,1.6c0,0.6-0.1,1-0.4,1.5s-0.7,0.9-1.3,1.5l-2.1,2.1h4V194.6z"/>
	<path class="st24" d="M22.8,186.6c0.7,0,1.2,0.1,1.6,0.4c0.9,0.5,1.3,1.8,1.3,3.8c0,1.4-0.2,2.5-0.7,3.1c-0.5,0.6-1.2,0.9-2.2,0.9
		s-1.7-0.3-2.2-0.9c-0.5-0.6-0.7-1.6-0.7-3.1c0-1.5,0.2-2.6,0.7-3.2C21.1,186.9,21.8,186.6,22.8,186.6z M22.8,187.4
		c-0.5,0-0.8,0.1-1.1,0.3c-0.6,0.4-0.9,1.4-0.9,3.1c0,1.2,0.2,2,0.5,2.5c0.3,0.5,0.8,0.7,1.5,0.7s1.2-0.2,1.5-0.7
		c0.3-0.5,0.5-1.3,0.5-2.5s-0.2-2.1-0.5-2.6S23.5,187.4,22.8,187.4z"/>
	<path class="st24" d="M29.5,186.6c0.7,0,1.2,0.1,1.6,0.4c0.9,0.5,1.3,1.8,1.3,3.8c0,1.4-0.2,2.5-0.7,3.1c-0.5,0.6-1.2,0.9-2.2,0.9
		s-1.7-0.3-2.2-0.9c-0.5-0.6-0.7-1.6-0.7-3.1c0-1.5,0.2-2.6,0.7-3.2C27.8,186.9,28.5,186.6,29.5,186.6z M29.5,187.4
		c-0.5,0-0.8,0.1-1.1,0.3c-0.6,0.4-0.9,1.4-0.9,3.1c0,1.2,0.2,2,0.5,2.5c0.3,0.5,0.8,0.7,1.5,0.7s1.2-0.2,1.5-0.7
		c0.3-0.5,0.5-1.3,0.5-2.5s-0.2-2.1-0.5-2.6S30.2,187.4,29.5,187.4z"/>
</g>
<line class="st26" x1="6.5" y1="625" x2="19.4" y2="625"/>
<line class="st26" x1="42.2" y1="625" x2="28.5" y2="625"/>
<line class="st26" x1="5.7" y1="593.6" x2="19.5" y2="593.6"/>
<line class="st26" x1="42.1" y1="593.6" x2="28.7" y2="593.6"/>
<line class="st26" x1="6" y1="373.9" x2="17.2" y2="373.9"/>
<line class="st26" x1="42.7" y1="374" x2="31.5" y2="374"/>
<line class="st26" x1="6.8" y1="337.4" x2="17.6" y2="337.4"/>
<line class="st26" x1="42.9" y1="337.4" x2="31.9" y2="337.4"/>
<line class="st26" x1="15.3" y1="264.1" x2="5.7" y2="264.1"/>
<line class="st26" x1="42.2" y1="264.3" x2="35.2" y2="264.3"/>
<line class="st26" x1="5.7" y1="228.1" x2="14.2" y2="228.1"/>
<line class="st26" x1="42.4" y1="228.1" x2="34.9" y2="228.1"/>
<line class="st26" x1="5.4" y1="191.2" x2="13.5" y2="191.2"/>
<line class="st26" x1="33.5" y1="191.2" x2="41.5" y2="191.2"/>
<g>
	<path class="st24" d="M38.8,27v-0.1c0-7.5-6.2-13.7-13.9-14.1v-1.3c0-0.3-0.3-0.7-0.8-0.7c-0.5,0-0.8,0.3-0.8,0.7v1.3
		c-7.8,0.3-13.9,6.6-13.9,14.1c0,0.3,0.3,0.7,0.8,0.7c0.2,0,0.3-0.1,0.6-0.2c2.5-2.3,5.8-2.3,8.2,0c0.1,0.1,0.3,0.2,0.6,0.2
		c0.2,0,0.3-0.1,0.5-0.2c1-0.9,2.2-1.5,3.4-1.6v9.8c0,1.9,1.7,3.7,3.8,3.7s3.8-1.6,3.8-3.7c0-0.3-0.3-0.7-0.8-0.7
		c-0.5,0-0.8,0.3-0.8,0.7c0,1.1-1,2.2-2.3,2.2c-1.3,0-2.3-1-2.3-2.2v-9.8c1.1,0.1,2.4,0.7,3.4,1.6c0.2,0.2,0.8,0.2,1,0
		c2.5-2.3,5.8-2.3,8.3,0c0.2,0.2,0.7,0.2,0.9,0.1C38.7,27.4,38.8,27.2,38.8,27z M28.1,25.5c-1.3-0.8-2.6-1.3-4-1.3h-0.1h-0.1
		c-1.4,0-2.7,0.5-4,1.3c-0.3-4.9,0.9-8.8,2.5-10.5c1-1.1,2.1-1.1,3.2,0C27.1,16.7,28.5,20.5,28.1,25.5z M10.9,25.3
		c0.7-5.4,4.8-9.6,10-10.8c-1.5,1.9-2.9,5.7-2.5,10.8C16.2,23.9,13.3,23.9,10.9,25.3z M29.7,25.3c0.3-5.1-1-8.9-2.5-10.8
		c5.4,1.3,9.4,5.5,10,10.8C34.8,23.9,32,23.9,29.7,25.3z"/>
</g>
<g>
	<path class="st23" d="M27.9,551.7v0.8H24l-0.2,2.6c0.6-0.3,1.2-0.5,1.9-0.5c1.7,0,2.5,0.8,2.5,2.3c0,0.9-0.2,1.6-0.7,2.1
		c-0.5,0.5-1.1,0.7-2,0.7c-0.7,0-1.4-0.1-2.2-0.3l-0.4-0.1l0.1-0.7c0.9,0.2,1.7,0.3,2.3,0.3s1.1-0.2,1.4-0.5
		c0.3-0.3,0.5-0.8,0.5-1.4s-0.1-1-0.4-1.2s-0.7-0.4-1.2-0.4c-0.3,0-0.6,0-0.9,0.1c-0.3,0.1-0.6,0.2-0.7,0.2l-0.3,0.1l-0.6-0.1
		l0.2-4.1H27.9z"/>
</g>
<line class="st26" x1="6.8" y1="556.5" x2="20.7" y2="556.5"/>
<line class="st26" x1="43.2" y1="556.5" x2="29.8" y2="556.5"/>
<g>
	<path class="st24" d="M23.1,450.7H18v-0.8l2.3-2.4c0.4-0.4,0.7-0.7,0.9-0.9c0.2-0.2,0.4-0.5,0.5-0.8c0.1-0.3,0.2-0.6,0.2-0.9
		c0-0.5-0.1-0.9-0.4-1.1c-0.3-0.2-0.7-0.3-1.3-0.3c-0.5,0-1.1,0.1-1.7,0.2l-0.3,0.1l-0.1-0.8c0.8-0.2,1.5-0.3,2.4-0.3
		c0.8,0,1.4,0.2,1.8,0.5c0.4,0.3,0.6,0.9,0.6,1.6c0,0.6-0.1,1-0.4,1.5s-0.7,0.9-1.3,1.5l-2.1,2.1h4V450.7z"/>
	<path class="st24" d="M27.3,442.7c0.7,0,1.2,0.1,1.6,0.4c0.9,0.5,1.3,1.8,1.3,3.8c0,1.4-0.2,2.5-0.7,3.1c-0.5,0.6-1.2,0.9-2.2,0.9
		s-1.7-0.3-2.2-0.9c-0.5-0.6-0.7-1.6-0.7-3.1c0-1.5,0.2-2.6,0.7-3.2C25.6,443,26.3,442.7,27.3,442.7z M27.3,443.5
		c-0.5,0-0.8,0.1-1.1,0.3c-0.6,0.4-0.9,1.4-0.9,3.1c0,1.2,0.2,2,0.5,2.5c0.3,0.5,0.8,0.7,1.5,0.7s1.2-0.2,1.5-0.7
		c0.3-0.5,0.5-1.3,0.5-2.5s-0.2-2.1-0.5-2.6S28,443.5,27.3,443.5z"/>
</g>
<line class="st26" x1="5.5" y1="447.4" x2="17.9" y2="447.4"/>
<line class="st26" x1="41.9" y1="447.4" x2="31.3" y2="447.4"/>
<g>
	<path class="st24" d="M18.7,406.4c0.8-0.2,1.6-0.3,2.4-0.3c0.9,0,1.5,0.2,1.9,0.5c0.4,0.3,0.6,0.9,0.6,1.6c0,0.4,0,0.6-0.1,0.8
		c-0.1,0.2-0.2,0.3-0.2,0.4c-0.1,0.1-0.1,0.2-0.2,0.3c-0.2,0.1-0.3,0.2-0.4,0.3l-0.1,0.1c0.5,0.2,0.8,0.4,1,0.6
		c0.2,0.3,0.3,0.7,0.3,1.3c0,0.8-0.2,1.4-0.6,1.8c-0.4,0.4-1.1,0.6-2,0.6c-0.7,0-1.4-0.1-2.2-0.2l-0.4-0.1l0.1-0.8
		c0.9,0.2,1.7,0.3,2.4,0.3c1.1,0,1.7-0.5,1.7-1.5c0-1-0.5-1.4-1.6-1.5h-1.6v-0.8h1.6c0.3,0,0.7-0.1,1-0.4c0.3-0.3,0.5-0.6,0.5-1.1
		c0-0.4-0.1-0.8-0.4-1s-0.7-0.3-1.2-0.3c-0.6,0-1.3,0.1-1.9,0.2l-0.3,0.1L18.7,406.4z"/>
	<path class="st24" d="M27.9,406.1c0.7,0,1.2,0.1,1.6,0.4c0.9,0.5,1.3,1.8,1.3,3.8c0,1.4-0.2,2.5-0.7,3.1c-0.5,0.6-1.2,0.9-2.2,0.9
		s-1.7-0.3-2.2-0.9c-0.5-0.6-0.7-1.6-0.7-3.1c0-1.5,0.2-2.6,0.7-3.2C26.2,406.4,26.9,406.1,27.9,406.1z M27.9,406.9
		c-0.5,0-0.8,0.1-1.1,0.3c-0.6,0.4-0.9,1.4-0.9,3.1c0,1.2,0.2,2,0.5,2.5c0.3,0.5,0.8,0.7,1.5,0.7s1.2-0.2,1.5-0.7
		c0.3-0.5,0.5-1.3,0.5-2.5s-0.2-2.1-0.5-2.6S28.6,406.9,27.9,406.9z"/>
</g>
<line class="st26" x1="6.2" y1="410.8" x2="18.5" y2="410.8"/>
<line class="st26" x1="42.6" y1="410.8" x2="32" y2="410.8"/>
<g>
	<path class="st25" d="M17.9,296.6v-0.8h4.9v1.2l-3,6.8l-0.9-0.3l3-6.6v-0.3H17.9z"/>
	<path class="st25" d="M29.4,295.8v0.8h-3.9l-0.2,2.6c0.6-0.3,1.2-0.5,1.9-0.5c1.7,0,2.5,0.8,2.5,2.3c0,0.9-0.2,1.6-0.7,2.1
		c-0.5,0.5-1.1,0.7-2,0.7c-0.7,0-1.4-0.1-2.2-0.3l-0.4-0.1l0.1-0.7c0.9,0.2,1.7,0.3,2.3,0.3s1.1-0.2,1.4-0.5
		c0.3-0.3,0.5-0.8,0.5-1.4s-0.1-1-0.4-1.2s-0.7-0.4-1.2-0.4c-0.3,0-0.6,0-0.9,0.1c-0.3,0.1-0.6,0.2-0.7,0.2l-0.3,0.1l-0.6-0.1
		l0.2-4.1H29.4z"/>
</g>
<line class="st26" x1="6.4" y1="301.3" x2="17.2" y2="301.3"/>
<line class="st26" x1="42.2" y1="301.3" x2="31.3" y2="301.3"/>
<g>
	<path class="st23" d="M16.6,671.9h-0.9v-6h0.9v0.4c0.6-0.4,1.2-0.5,1.8-0.5c0.7,0,1.3,0.2,1.6,0.6c0.3-0.2,0.6-0.3,1-0.4
		s0.8-0.2,1.1-0.2c0.8,0,1.3,0.2,1.6,0.6c0.3,0.4,0.4,1.2,0.4,2.3v3.2h-0.9v-3.1c0-0.8-0.1-1.4-0.2-1.7c-0.2-0.3-0.5-0.5-1-0.5
		c-0.3,0-0.5,0-0.8,0.1s-0.5,0.2-0.6,0.2l-0.2,0.1c0.1,0.3,0.2,0.8,0.2,1.8v3.1h-0.9v-3.1c0-0.9-0.1-1.5-0.2-1.8
		c-0.2-0.3-0.5-0.5-1-0.5c-0.3,0-0.5,0-0.8,0.1c-0.3,0.1-0.5,0.2-0.6,0.2l-0.2,0.1V671.9z"/>
	<path class="st23" d="M26.6,671.9h-0.9v-6h0.9v0.4c0.6-0.4,1.2-0.5,1.8-0.5c0.7,0,1.3,0.2,1.6,0.6c0.3-0.2,0.6-0.3,1-0.4
		s0.8-0.2,1.1-0.2c0.8,0,1.3,0.2,1.6,0.6c0.3,0.4,0.4,1.2,0.4,2.3v3.2h-0.9v-3.1c0-0.8-0.1-1.4-0.2-1.7c-0.2-0.3-0.5-0.5-1-0.5
		c-0.3,0-0.5,0-0.8,0.1s-0.5,0.2-0.6,0.2l-0.2,0.1c0.1,0.3,0.2,0.8,0.2,1.8v3.1h-0.9v-3.1c0-0.9-0.1-1.5-0.2-1.8
		c-0.2-0.3-0.5-0.5-1-0.5c-0.3,0-0.5,0-0.8,0.1c-0.3,0.1-0.5,0.2-0.6,0.2l-0.2,0.1V671.9z"/>
</g>
<g>
	<path class="st23" d="M22.3,516.4v7.9h-0.9v-6.9l-2,1.3l-0.4-0.7l2.5-1.7H22.3z"/>
	<path class="st23" d="M27.7,516.2c0.7,0,1.2,0.1,1.6,0.4c0.9,0.5,1.3,1.8,1.3,3.8c0,1.4-0.2,2.5-0.7,3.1c-0.5,0.6-1.2,0.9-2.2,0.9
		s-1.7-0.3-2.2-0.9c-0.5-0.6-0.7-1.6-0.7-3.1c0-1.5,0.2-2.6,0.7-3.2C26,516.5,26.7,516.2,27.7,516.2z M27.7,517.1
		c-0.5,0-0.8,0.1-1.1,0.3c-0.6,0.4-0.9,1.4-0.9,3.1c0,1.2,0.2,2,0.5,2.5c0.3,0.5,0.8,0.7,1.5,0.7s1.2-0.2,1.5-0.7
		c0.3-0.5,0.5-1.3,0.5-2.5s-0.1-2.1-0.5-2.6C28.9,517.3,28.4,517.1,27.7,517.1z"/>
</g>
<line class="st26" x1="5.9" y1="521" x2="18.3" y2="521"/>
<line class="st26" x1="42.3" y1="521" x2="31.7" y2="521"/>
<g>
	<path class="st23" d="M22.5,479.1v7.9h-0.9v-6.9l-2,1.3l-0.4-0.7l2.5-1.7H22.5z"/>
	<path class="st23" d="M30.3,479.1v0.8h-3.9l-0.2,2.6c0.6-0.3,1.2-0.5,1.9-0.5c1.7,0,2.5,0.8,2.5,2.3c0,0.9-0.2,1.6-0.7,2.1
		c-0.5,0.5-1.1,0.7-2,0.7c-0.7,0-1.4-0.1-2.2-0.3l-0.4-0.1l0.1-0.7c0.9,0.2,1.7,0.3,2.3,0.3s1.1-0.2,1.4-0.5
		c0.3-0.3,0.5-0.8,0.5-1.4s-0.1-1-0.4-1.2s-0.7-0.4-1.2-0.4c-0.3,0-0.6,0-0.9,0.1c-0.3,0.1-0.6,0.2-0.7,0.2l-0.3,0.1l-0.6-0.1
		l0.2-4.1H30.3z"/>
</g>
<line class="st26" x1="6.2" y1="483.7" x2="18.5" y2="483.7"/>
<line class="st26" x1="42.6" y1="483.7" x2="32" y2="483.7"/>
<g>
	<path class="st24" d="M14.1,153c0.8-0.2,1.6-0.3,2.4-0.3c0.9,0,1.5,0.2,1.9,0.5c0.4,0.3,0.6,0.9,0.6,1.6c0,0.4,0,0.6-0.1,0.8
		c-0.1,0.2-0.2,0.3-0.2,0.4c-0.1,0.1-0.1,0.2-0.2,0.3c-0.2,0.1-0.3,0.2-0.4,0.3l-0.1,0.1c0.5,0.2,0.8,0.4,1,0.6
		c0.2,0.3,0.3,0.7,0.3,1.3c0,0.8-0.2,1.4-0.6,1.8c-0.4,0.4-1.1,0.6-2,0.6c-0.7,0-1.4-0.1-2.2-0.2l-0.4-0.1l0.1-0.8
		c0.9,0.2,1.7,0.3,2.4,0.3c1.1,0,1.7-0.5,1.7-1.5c0-1-0.5-1.4-1.6-1.5H15v-0.8h1.6c0.3,0,0.7-0.1,1-0.4c0.3-0.3,0.5-0.6,0.5-1.1
		c0-0.4-0.1-0.8-0.4-1s-0.7-0.3-1.2-0.3c-0.6,0-1.3,0.1-1.9,0.2l-0.3,0.1L14.1,153z"/>
	<path class="st24" d="M23.3,152.7c0.7,0,1.2,0.1,1.6,0.4c0.9,0.5,1.3,1.8,1.3,3.8c0,1.4-0.2,2.5-0.7,3.1c-0.5,0.6-1.2,0.9-2.2,0.9
		s-1.7-0.3-2.2-0.9c-0.5-0.6-0.7-1.6-0.7-3.1c0-1.5,0.2-2.6,0.7-3.2C21.6,153,22.3,152.7,23.3,152.7z M23.3,153.5
		c-0.5,0-0.8,0.1-1.1,0.3c-0.6,0.4-0.9,1.4-0.9,3.1c0,1.2,0.2,2,0.5,2.5c0.3,0.5,0.8,0.7,1.5,0.7s1.2-0.2,1.5-0.7
		c0.3-0.5,0.5-1.3,0.5-2.5s-0.1-2.1-0.5-2.6C24.5,153.7,24,153.5,23.3,153.5z"/>
	<path class="st24" d="M30,152.7c0.7,0,1.2,0.1,1.6,0.4c0.9,0.5,1.3,1.8,1.3,3.8c0,1.4-0.2,2.5-0.7,3.1c-0.5,0.6-1.2,0.9-2.2,0.9
		s-1.7-0.3-2.2-0.9c-0.5-0.6-0.7-1.6-0.7-3.1c0-1.5,0.2-2.6,0.7-3.2C28.3,153,29.1,152.7,30,152.7z M30,153.5
		c-0.5,0-0.8,0.1-1.1,0.3c-0.6,0.4-0.9,1.4-0.9,3.1c0,1.2,0.2,2,0.5,2.5c0.3,0.5,0.8,0.7,1.5,0.7s1.2-0.2,1.5-0.7
		c0.3-0.5,0.5-1.3,0.5-2.5s-0.1-2.1-0.5-2.6C31.2,153.7,30.7,153.5,30,153.5z"/>
</g>
<line class="st26" x1="6" y1="157.3" x2="14" y2="157.3"/>
<line class="st26" x1="34.1" y1="157.3" x2="42.1" y2="157.3"/>
<g>
	<path class="st24" d="M19.2,116.2v0.8h-3.9l-0.2,2.6c0.6-0.3,1.2-0.5,1.9-0.5c1.7,0,2.5,0.8,2.5,2.3c0,0.9-0.2,1.6-0.7,2.1
		c-0.5,0.5-1.1,0.7-2,0.7c-0.7,0-1.4-0.1-2.2-0.3l-0.4-0.1l0.1-0.7c0.9,0.2,1.7,0.3,2.3,0.3s1.1-0.2,1.4-0.5
		c0.3-0.3,0.5-0.8,0.5-1.4s-0.1-1-0.4-1.2s-0.7-0.4-1.2-0.4c-0.3,0-0.6,0-0.9,0.1c-0.3,0.1-0.6,0.2-0.7,0.2l-0.3,0.1l-0.6-0.1
		l0.2-4.1H19.2z"/>
	<path class="st24" d="M23.6,116.1c0.7,0,1.2,0.1,1.6,0.4c0.9,0.5,1.3,1.8,1.3,3.8c0,1.4-0.2,2.5-0.7,3.1c-0.5,0.6-1.2,0.9-2.2,0.9
		s-1.7-0.3-2.2-0.9c-0.5-0.6-0.7-1.6-0.7-3.1c0-1.5,0.2-2.6,0.7-3.2C21.9,116.4,22.6,116.1,23.6,116.1z M23.6,116.9
		c-0.5,0-0.8,0.1-1.1,0.3c-0.6,0.4-0.9,1.4-0.9,3.1c0,1.2,0.2,2,0.5,2.5c0.3,0.5,0.8,0.7,1.5,0.7s1.2-0.2,1.5-0.7
		c0.3-0.5,0.5-1.3,0.5-2.5s-0.1-2.1-0.5-2.6C24.8,117.1,24.3,116.9,23.6,116.9z"/>
	<path class="st24" d="M30.3,116.1c0.7,0,1.2,0.1,1.6,0.4c0.9,0.5,1.3,1.8,1.3,3.8c0,1.4-0.2,2.5-0.7,3.1c-0.5,0.6-1.2,0.9-2.2,0.9
		s-1.7-0.3-2.2-0.9c-0.5-0.6-0.7-1.6-0.7-3.1c0-1.5,0.2-2.6,0.7-3.2C28.6,116.4,29.3,116.1,30.3,116.1z M30.3,116.9
		c-0.5,0-0.8,0.1-1.1,0.3c-0.6,0.4-0.9,1.4-0.9,3.1c0,1.2,0.2,2,0.5,2.5c0.3,0.5,0.8,0.7,1.5,0.7s1.2-0.2,1.5-0.7
		c0.3-0.5,0.5-1.3,0.5-2.5s-0.1-2.1-0.5-2.6C31.5,117.1,31,116.9,30.3,116.9z"/>
</g>
<line class="st26" x1="5.9" y1="120.7" x2="13.9" y2="120.7"/>
<line class="st26" x1="34" y1="120.7" x2="42" y2="120.7"/>
<g>
	<path class="st24" d="M15.2,83.5l-4.1-1.9v-0.9l5,2.4v0.8l-5,2.5v-0.9L15.2,83.5z"/>
	<path class="st24" d="M22.6,78.6v0.8h-3.9L18.5,82c0.6-0.3,1.2-0.5,1.9-0.5c1.7,0,2.5,0.8,2.5,2.3c0,0.9-0.2,1.6-0.7,2.1
		c-0.5,0.5-1.1,0.7-2,0.7c-0.7,0-1.4-0.1-2.2-0.3l-0.4-0.1l0.1-0.7c0.9,0.2,1.7,0.3,2.3,0.3s1.1-0.2,1.4-0.5
		c0.3-0.3,0.5-0.8,0.5-1.4s-0.1-1-0.4-1.2s-0.7-0.4-1.2-0.4c-0.3,0-0.6,0-0.9,0.1c-0.3,0.1-0.6,0.2-0.7,0.2l-0.3,0.1l-0.6-0.1
		l0.2-4.1H22.6z"/>
	<path class="st24" d="M26.9,78.4c0.7,0,1.2,0.1,1.6,0.4c0.9,0.5,1.3,1.8,1.3,3.8c0,1.4-0.2,2.5-0.7,3.1c-0.5,0.6-1.2,0.9-2.2,0.9
		s-1.7-0.3-2.2-0.9c-0.5-0.6-0.7-1.6-0.7-3.1c0-1.5,0.2-2.6,0.7-3.2C25.2,78.7,26,78.4,26.9,78.4z M26.9,79.3
		c-0.5,0-0.8,0.1-1.1,0.3C25.3,79.9,25,81,25,82.7c0,1.2,0.2,2,0.5,2.5c0.3,0.5,0.8,0.7,1.5,0.7s1.2-0.2,1.5-0.7
		c0.3-0.5,0.5-1.3,0.5-2.5s-0.2-2.1-0.5-2.6S27.6,79.3,26.9,79.3z"/>
	<path class="st24" d="M33.7,78.4c0.7,0,1.2,0.1,1.6,0.4c0.9,0.5,1.3,1.8,1.3,3.8c0,1.4-0.2,2.5-0.7,3.1c-0.5,0.6-1.2,0.9-2.2,0.9
		s-1.7-0.3-2.2-0.9c-0.5-0.6-0.7-1.6-0.7-3.1c0-1.5,0.2-2.6,0.7-3.2C32,78.7,32.7,78.4,33.7,78.4z M33.7,79.3
		c-0.5,0-0.8,0.1-1.1,0.3c-0.6,0.4-0.9,1.4-0.9,3.1c0,1.2,0.2,2,0.5,2.5c0.3,0.5,0.8,0.7,1.5,0.7s1.2-0.2,1.5-0.7
		c0.3-0.5,0.5-1.3,0.5-2.5s-0.2-2.1-0.5-2.6S34.4,79.3,33.7,79.3z"/>
</g>
<line class="st26" x1="5.5" y1="83.1" x2="9.9" y2="83.1"/>
<line class="st26" x1="36.9" y1="83.1" x2="41.6" y2="83.1"/>
</svg>
