<?xml version="1.0" encoding="UTF-8"?>
<svg id="Livello_1" data-name="Livello 1" xmlns="http://www.w3.org/2000/svg" viewBox="0 0 50.61 677.16"  width="50px" height="677px">
  <defs>
    <style>
      .cls-1 {
        stroke-width: 2px;
      }

      .cls-1, .cls-2, .cls-3, .cls-4 {
        stroke-miterlimit: 9.77;
      }

      .cls-1, .cls-5, .cls-3, .cls-4 {
        fill: none;
      }

      .cls-1, .cls-4 {
        stroke: #3c3430;
      }

      .cls-2 {
        stroke-width: .49px;
      }

      .cls-2, .cls-3 {
        stroke: #fff;
      }

      .cls-2, .cls-6 {
        fill: #fff;
      }

      .cls-7 {
        fill: #ff0;
      }

      .cls-7, .cls-8, .cls-5, .cls-6, .cls-9, .cls-10, .cls-11, .cls-12, .cls-13, .cls-14, .cls-15 {
        stroke-width: 0px;
      }

      .cls-8 {
        fill: red;
      }

      .cls-16 {
        opacity: .8;
      }

      .cls-3 {
        stroke-width: .98px;
      }

      .cls-9 {
        fill: #39322e;
      }

      .cls-10 {
        fill: #3c3530;
      }

      .cls-11 {
        fill: #ff8000;
      }

      .cls-12 {
        fill: #3c3430;
      }

      .cls-13 {
        fill: lime;
      }

      .cls-14 {
        fill: blue;
      }

      .cls-15 {
        fill: aqua;
      }
    </style>
  </defs>
  <g>
    <g class="cls-16">
      <path class="cls-8" d="m5.37,565.81h37.92v103.27c0,3.89-3.16,7.05-7.05,7.05H10.95c-3.08,0-5.58-2.5-5.58-5.58v-104.74Z"/>
    </g>
    <g class="cls-16">
      <rect class="cls-7" x="5.91" y="363.47" width="37.92" height="101.17"/>
    </g>
    <g class="cls-16">
      <rect class="cls-13" x="5.91" y="261.79" width="37.92" height="101.69"/>
    </g>
    <g class="cls-16">
      <rect class="cls-11" x="5.48" y="464.64" width="37.92" height="101.17"/>
    </g>
    <g class="cls-16">
      <rect class="cls-15" x="6.02" y="160.62" width="37.92" height="101.17"/>
    </g>
    <g class="cls-16">
      <path class="cls-14" d="m9.58,49.92h28.85c2.03,0,3.68,1.65,3.68,3.68v107.55H6.7V52.79c0-1.59,1.29-2.88,2.88-2.88Z"/>
    </g>
  </g>
  <circle class="cls-9" cx="24.06" cy="26.56" r="19.78"/>
  <rect class="cls-5" x="11.1" y="632.04" width="15.4" height="11.8"/>
  <rect class="cls-1" x="5.88" y="49.92" width="36.9" height="625.87" rx="6.18" ry="6.18"/>
  <path class="cls-6" d="m22.44,666.75c.52-.66,1.28-.98,2.3-.98s1.78.33,2.3.98c.52.66.77,1.71.77,3.16s-.26,2.49-.77,3.12c-.51.63-1.28.94-2.3.94s-1.79-.31-2.3-.94-.77-1.67-.77-3.12.26-2.51.77-3.16Zm3.67,3.13c0-.99-.1-1.68-.31-2.08-.21-.4-.56-.59-1.05-.59s-.84.2-1.06.6c-.21.4-.32,1.09-.32,2.08s.11,1.67.32,2.06c.22.39.57.59,1.06.59s.84-.2,1.04-.59.31-1.08.31-2.07Z"/>
  <g>
    <path class="cls-12" d="m22.8,567.98h-5.14v-1.4l1.69-1.72c.6-.62,1.02-1.09,1.25-1.42s.35-.68.35-1.05-.1-.63-.29-.79c-.2-.15-.47-.23-.83-.23-.54,0-1.12.05-1.75.14l-.29.04-.08-1.28c.78-.24,1.6-.36,2.44-.36,1.68,0,2.52.76,2.52,2.27,0,.59-.13,1.1-.38,1.54-.26.43-.72.96-1.39,1.57l-1.38,1.25h3.29v1.44Z"/>
    <path class="cls-12" d="m24.67,560.9c.52-.66,1.28-.98,2.3-.98s1.78.33,2.3.98.77,1.71.77,3.16-.26,2.49-.77,3.12-1.28.94-2.3.94-1.79-.31-2.3-.94c-.51-.63-.77-1.67-.77-3.12s.26-2.51.77-3.16Zm3.67,3.13c0-.99-.1-1.68-.31-2.08-.21-.4-.56-.59-1.05-.59s-.84.2-1.06.6c-.21.4-.32,1.09-.32,2.08s.11,1.67.32,2.06.57.59,1.06.59.84-.2,1.04-.59.31-1.08.31-2.07Z"/>
  </g>
  <g>
    <path class="cls-10" d="m21.78,465.67v-1.31h-3.36v-1.26l1.96-5.35h1.82l-2.12,5.17h1.7v-2.22h1.66v2.22h.76v1.44h-.76v1.31h-1.66Z"/>
    <path class="cls-10" d="m25.72,458.59c.52-.66,1.28-.98,2.3-.98s1.78.33,2.3.98.77,1.71.77,3.16-.26,2.49-.77,3.12-1.28.94-2.3.94-1.79-.31-2.3-.94c-.51-.63-.77-1.67-.77-3.12s.26-2.51.77-3.16Zm3.67,3.13c0-.99-.1-1.68-.31-2.08-.21-.4-.56-.59-1.05-.59s-.84.2-1.06.6c-.21.4-.32,1.09-.32,2.08s.11,1.67.32,2.06.57.59,1.06.59.84-.2,1.04-.59.31-1.08.31-2.07Z"/>
  </g>
  <g>
    <path class="cls-10" d="m24.21,359.2c-.82-.12-1.52-.18-2.12-.18-1.14,0-1.7.62-1.7,1.85l.25-.07c.53-.15.95-.23,1.26-.23.9,0,1.58.21,2.04.62s.68,1.06.68,1.94-.26,1.54-.77,1.99c-.51.45-1.25.67-2.23.67s-1.71-.35-2.2-1.06-.74-1.75-.74-3.13.28-2.39.85-3.04c.57-.65,1.38-.98,2.45-.98.62,0,1.29.09,2,.26l.37.08-.14,1.27Zm-2.46,2.81c-.38,0-.77.07-1.18.2l-.2.06c0,1.38.45,2.08,1.34,2.08.38,0,.68-.11.89-.32s.31-.51.31-.89c0-.75-.39-1.13-1.16-1.13Z"/>
    <path class="cls-10" d="m26.04,358.56c.52-.66,1.28-.98,2.3-.98s1.78.33,2.3.98c.52.66.77,1.71.77,3.16s-.26,2.49-.77,3.12c-.51.63-1.28.94-2.3.94s-1.79-.31-2.3-.94-.77-1.67-.77-3.12.26-2.51.77-3.16Zm3.67,3.13c0-.99-.1-1.68-.31-2.08-.21-.4-.56-.59-1.05-.59s-.84.2-1.06.6c-.21.4-.32,1.09-.32,2.08s.11,1.67.32,2.06c.22.39.57.59,1.06.59s.84-.2,1.04-.59.31-1.08.31-2.07Z"/>
  </g>
  <g>
    <path class="cls-9" d="m19.5,257.48c.52-.38,1.22-.57,2.09-.57s1.58.19,2.11.58c.54.38.8.92.8,1.6,0,.46-.06.81-.17,1.04-.11.23-.34.49-.7.77.35.3.6.58.76.84.15.26.23.63.23,1.09,0,.78-.28,1.36-.84,1.73-.56.37-1.29.56-2.2.56-2,0-3-.72-3-2.16,0-.51.08-.91.23-1.19.16-.28.41-.57.76-.87-.34-.27-.56-.54-.68-.8s-.18-.6-.18-1.03c0-.68.26-1.21.78-1.59Zm.86,5.09c0,.7.41,1.06,1.24,1.06s1.24-.35,1.24-1.06c0-.42-.24-.72-.71-.9h-1.06c-.48.18-.72.48-.72.9Zm1.25-4.18c-.36,0-.64.08-.83.24-.19.16-.29.4-.29.73s.2.63.59.9h1.06c.39-.27.59-.58.59-.94,0-.62-.37-.94-1.12-.94Z"/>
    <path class="cls-9" d="m26.04,257.89c.52-.66,1.28-.98,2.3-.98s1.78.33,2.3.98c.52.66.77,1.71.77,3.16s-.26,2.49-.77,3.12c-.51.63-1.28.94-2.3.94s-1.79-.31-2.3-.94-.77-1.67-.77-3.12.26-2.51.77-3.16Zm3.67,3.13c0-.99-.1-1.68-.31-2.08-.21-.4-.56-.59-1.05-.59s-.84.2-1.06.6c-.21.4-.32,1.09-.32,2.08s.11,1.67.32,2.06c.22.39.57.59,1.06.59s.84-.2,1.04-.59.31-1.08.31-2.07Z"/>
  </g>
  <g>
    <path class="cls-6" d="m19.56,53.54v7.92h-1.66v-6.05l-1.72,1.1-.76-1.24,2.62-1.74h1.51Z"/>
    <path class="cls-6" d="m22.33,54.38c.52-.66,1.28-.98,2.3-.98s1.78.33,2.3.98c.52.66.77,1.71.77,3.16s-.26,2.49-.77,3.12c-.51.63-1.28.94-2.3.94s-1.79-.31-2.3-.94-.77-1.67-.77-3.12.26-2.51.77-3.16Zm3.67,3.13c0-.99-.1-1.68-.31-2.08-.21-.4-.56-.59-1.05-.59s-.84.2-1.06.6c-.21.4-.32,1.09-.32,2.08s.11,1.67.32,2.06c.22.39.57.59,1.06.59s.84-.2,1.04-.59.31-1.08.31-2.07Z"/>
    <path class="cls-6" d="m29.05,54.38c.52-.66,1.28-.98,2.3-.98s1.78.33,2.3.98c.52.66.77,1.71.77,3.16s-.26,2.49-.77,3.12c-.51.63-1.28.94-2.3.94s-1.79-.31-2.3-.94-.77-1.67-.77-3.12.26-2.51.77-3.16Zm3.67,3.13c0-.99-.1-1.68-.31-2.08-.21-.4-.56-.59-1.05-.59s-.84.2-1.06.6c-.21.4-.32,1.09-.32,2.08s.11,1.67.32,2.06c.22.39.57.59,1.06.59s.84-.2,1.04-.59.31-1.08.31-2.07Z"/>
  </g>
  <line class="cls-4" x1="5.59" y1="464.35" x2="17.47" y2="464.35"/>
  <line class="cls-4" x1="41.85" y1="464.35" x2="31.44" y2="464.35"/>
  <line class="cls-4" x1="6.03" y1="565.81" x2="20.06" y2="565.81"/>
  <line class="cls-4" x1="42.13" y1="565.81" x2="29.26" y2="565.81"/>
  <line class="cls-4" x1="5.88" y1="363.47" x2="17.04" y2="363.47"/>
  <line class="cls-4" x1="31.88" y1="363.47" x2="42.53" y2="363.47"/>
  <line class="cls-4" x1="6.42" y1="261.79" x2="17.2" y2="261.79"/>
  <line class="cls-4" x1="42.24" y1="261.79" x2="31.28" y2="261.79"/>
  <line class="cls-4" x1="18.92" y1="160.93" x2="6.4" y2="160.93"/>
  <line class="cls-4" x1="42.92" y1="161.14" x2="31.89" y2="161.14"/>
  <rect class="cls-5" x="19.06" y="35.39" width="10.79" height="6.02"/>
  <path class="cls-6" d="m25.31,12.56c-.23-.23-.45-.34-.68-.34-.34,0-.57.11-.68.34,0,0-4.66,5.91-7.5,11.25-1.25,2.39-2.16,4.77-2.16,6.47,0,5.79,4.66,10.45,10.45,10.45s10.45-4.66,10.45-10.45c0-1.7-.91-3.98-2.16-6.47-2.95-5.34-7.72-11.25-7.72-11.25h0Zm-.68,1.7c1.48,1.93,4.66,6.25,6.82,10.34,1.14,2.16,2.04,4.2,2.04,5.79,0,4.88-3.98,8.86-8.86,8.86s-8.86-3.98-8.86-8.86c0-1.48.91-3.52,2.04-5.79,2.16-4.09,5.34-8.41,6.82-10.34h0Z"/>
  <path class="cls-2" d="m20.2,34.94s-.11.23.11.34c.11.11.34,0,.34,0l4.2-6.02,4.2-6.02s.11-.11-.11-.23-.34,0-.34,0l-4.2,6.02-4.2,5.91Z"/>
  <circle class="cls-3" cx="21.11" cy="25.85" r="2.5"/>
  <circle class="cls-3" cx="27.92" cy="32.44" r="2.5"/>
  <g>
    <path class="cls-6" d="m21.31,162.5c1.06,0,1.6-.65,1.6-1.94l-.25.08c-.55.18-.97.28-1.26.28-.87,0-1.54-.21-2.02-.64-.47-.42-.71-1.05-.71-1.89s.26-1.49.78-1.96c.52-.47,1.26-.7,2.21-.7s1.69.35,2.19,1.06.76,1.76.76,3.16-.28,2.41-.84,3.04c-.56.63-1.38.95-2.46.95-.62,0-1.29-.09-2-.26l-.37-.08.14-1.27c.82.12,1.56.18,2.23.18Zm.23-3.02c.37,0,.76-.07,1.19-.22l.19-.06c0-1.35-.45-2.03-1.34-2.03-.38,0-.68.11-.89.32s-.31.51-.31.89c0,.73.39,1.09,1.16,1.09Z"/>
    <path class="cls-6" d="m26.12,156.72c.52-.66,1.28-.98,2.3-.98s1.78.33,2.3.98c.52.66.77,1.71.77,3.16s-.26,2.49-.77,3.12c-.51.63-1.28.94-2.3.94s-1.79-.31-2.3-.94-.77-1.67-.77-3.12.26-2.51.77-3.16Zm3.67,3.13c0-.99-.1-1.68-.31-2.08-.21-.4-.56-.59-1.05-.59s-.84.2-1.06.6c-.21.4-.32,1.09-.32,2.08s.11,1.67.32,2.06c.22.39.57.59,1.06.59s.84-.2,1.04-.59.31-1.08.31-2.07Z"/>
  </g>
</svg>