<?xml version="1.0" encoding="utf-8"?>
<!-- Generator: Adobe Illustrator 16.0.0, SVG Export Plug-In . SVG Version: 6.00 Build 0)  -->
<!DOCTYPE svg PUBLIC "-//W3C//DTD SVG 1.1//EN" "http://www.w3.org/Graphics/SVG/1.1/DTD/svg11.dtd">
<svg version="1.1" id="Livello_1" xmlns="http://www.w3.org/2000/svg" xmlns:xlink="http://www.w3.org/1999/xlink" x="0px" y="0px"
	 width="32.746px" height="590.697px" viewBox="0 0 32.746 590.697" enable-background="new 0 0 32.746 590.697"
	 xml:space="preserve">
<g>
	<defs>
		<path id="SVGID_1_" d="M27.052,580.983c-0.316,3.428-5.672,7.51-10.307,7.51l0,0c-4.594,0.367-10.877-3.316-10.877-7.51V42.738
			c1.021-4.94,6.492-7.798,10.182-7.792l0,0c4.297-0.006,9.896,2.929,11.002,7.984V580.983L27.052,580.983z"/>
	</defs>
	<clipPath id="SVGID_2_">
		<use xlink:href="#SVGID_1_"  overflow="visible"/>
	</clipPath>
	<rect x="0.671" y="494.032" clip-path="url(#SVGID_2_)" fill="#EC2426" width="31.578" height="99.045"/>
	<rect x="0.987" y="313.954" clip-path="url(#SVGID_2_)" fill="#FCFC1E" width="31.578" height="90.041"/>
	<rect x="0.987" y="223.914" clip-path="url(#SVGID_2_)" fill="#0B7F3F" width="31.578" height="90.038"/>
	<rect x="0.671" y="403.993" clip-path="url(#SVGID_2_)" fill="#F7A426" width="31.578" height="90.041"/>
	<rect x="0.987" y="133.862" clip-path="url(#SVGID_2_)" fill="#6FC9DC" width="31.578" height="90.04"/>
	<rect x="0.987" y="34.818" clip-path="url(#SVGID_2_)" fill="#3F57B0" width="31.578" height="99.043"/>
</g>
<circle fill="#3A332F" cx="16.46" cy="15.781" r="14.909"/>
<path fill="none" stroke="#3C3430" stroke-width="3" stroke-miterlimit="10" d="M27.052,580.983
	c-0.316,3.428-5.672,7.51-10.307,7.51l0,0c-4.593,0.367-10.877-3.316-10.877-7.51V42.736c1.022-4.94,6.492-7.798,10.182-7.792l0,0
	c4.297-0.006,9.896,2.929,11.002,7.984V580.983L27.052,580.983z"/>
<g>
	<path fill="#3C3530" d="M12.145,76.411v7h-1.3v-5.91h-1.48v-1.09H12.145z"/>
	<path fill="#3C3530" d="M15.955,76.411v7h-1.3v-5.91h-1.48v-1.09H15.955z"/>
	<path fill="#3C3530" d="M18.766,83.086c-0.44-0.283-0.787-0.696-1.041-1.24s-0.38-1.188-0.38-1.935s0.126-1.392,0.38-1.935
		s0.6-0.957,1.041-1.24c0.439-0.284,0.939-0.425,1.5-0.425c0.56,0,1.062,0.142,1.505,0.425c0.443,0.283,0.791,0.696,1.045,1.24
		c0.253,0.543,0.38,1.188,0.38,1.935s-0.127,1.392-0.38,1.935c-0.254,0.543-0.602,0.957-1.045,1.24
		c-0.443,0.284-0.945,0.425-1.505,0.425C19.705,83.511,19.205,83.37,18.766,83.086z M21.45,81.761c0.29-0.414,0.436-1.03,0.436-1.85
		s-0.146-1.437-0.436-1.85c-0.29-0.413-0.685-0.62-1.185-0.62c-0.494,0-0.886,0.207-1.176,0.62c-0.289,0.414-0.435,1.03-0.435,1.85
		s0.146,1.437,0.435,1.85c0.29,0.414,0.682,0.62,1.176,0.62C20.766,82.381,21.16,82.175,21.45,81.761z"/>
</g>
<g>
	<path fill="#3C3530" d="M10.724,166.254v7h-1.3v-5.91h-1.48v-1.09H10.724z"/>
	<path fill="#3C3530" d="M13.534,172.929c-0.44-0.283-0.787-0.696-1.04-1.24s-0.38-1.188-0.38-1.935s0.126-1.392,0.38-1.935
		s0.6-0.957,1.04-1.24c0.44-0.284,0.94-0.425,1.5-0.425s1.062,0.142,1.505,0.425c0.443,0.283,0.792,0.696,1.045,1.24
		c0.253,0.543,0.38,1.188,0.38,1.935s-0.127,1.392-0.38,1.935c-0.253,0.543-0.602,0.957-1.045,1.24
		c-0.444,0.284-0.945,0.425-1.505,0.425S13.974,173.213,13.534,172.929z M16.219,171.604c0.29-0.414,0.435-1.03,0.435-1.85
		s-0.145-1.437-0.435-1.85c-0.29-0.413-0.685-0.62-1.185-0.62c-0.493,0-0.885,0.207-1.175,0.62c-0.29,0.414-0.435,1.03-0.435,1.85
		s0.145,1.437,0.435,1.85s0.682,0.62,1.175,0.62C15.534,172.225,15.929,172.018,16.219,171.604z"/>
	<path fill="#3C3530" d="M20.265,172.929c-0.44-0.283-0.787-0.696-1.04-1.24c-0.254-0.543-0.38-1.188-0.38-1.935
		s0.126-1.392,0.38-1.935c0.253-0.543,0.6-0.957,1.04-1.24c0.439-0.284,0.939-0.425,1.5-0.425c0.56,0,1.062,0.142,1.505,0.425
		c0.443,0.283,0.791,0.696,1.045,1.24c0.253,0.543,0.38,1.188,0.38,1.935s-0.127,1.392-0.38,1.935
		c-0.254,0.543-0.602,0.957-1.045,1.24c-0.443,0.284-0.945,0.425-1.505,0.425C21.204,173.354,20.704,173.213,20.265,172.929z
		 M22.949,171.604c0.29-0.414,0.436-1.03,0.436-1.85s-0.146-1.437-0.436-1.85c-0.29-0.413-0.685-0.62-1.185-0.62
		c-0.494,0-0.886,0.207-1.176,0.62c-0.29,0.414-0.435,1.03-0.435,1.85s0.145,1.437,0.435,1.85s0.682,0.62,1.176,0.62
		C22.265,172.225,22.659,172.018,22.949,171.604z"/>
</g>
<g>
	<path fill="#3C3530" d="M14.995,254.765c0.53,0.6,0.795,1.46,0.795,2.58c0,0.787-0.144,1.458-0.43,2.015s-0.688,0.98-1.205,1.27
		s-1.115,0.435-1.795,0.435c-0.36,0-0.698-0.039-1.015-0.115c-0.316-0.077-0.591-0.188-0.825-0.335l0.48-0.98
		c0.347,0.227,0.79,0.34,1.33,0.34c0.673,0,1.2-0.207,1.58-0.62c0.38-0.414,0.57-1.01,0.57-1.79v-0.01
		c-0.207,0.24-0.47,0.422-0.79,0.545c-0.32,0.124-0.68,0.185-1.08,0.185c-0.46,0-0.874-0.088-1.24-0.265
		c-0.367-0.177-0.654-0.428-0.86-0.755c-0.207-0.326-0.31-0.703-0.31-1.13c0-0.453,0.113-0.852,0.34-1.195s0.533-0.608,0.92-0.795
		s0.82-0.28,1.3-0.28C13.719,253.865,14.464,254.165,14.995,254.765z M13.884,256.925c0.264-0.227,0.395-0.513,0.395-0.86
		c0-0.34-0.128-0.622-0.385-0.845c-0.257-0.223-0.612-0.335-1.065-0.335c-0.407,0-0.737,0.108-0.99,0.325s-0.38,0.505-0.38,0.865
		c0,0.367,0.126,0.657,0.38,0.87s0.593,0.32,1.02,0.32C13.279,257.265,13.621,257.151,13.884,256.925z"/>
	<path fill="#3C3530" d="M18.089,260.64c-0.44-0.283-0.787-0.696-1.04-1.24s-0.38-1.188-0.38-1.935s0.126-1.392,0.38-1.935
		s0.6-0.957,1.04-1.24c0.439-0.284,0.939-0.425,1.5-0.425s1.063,0.142,1.506,0.425c0.443,0.283,0.791,0.696,1.045,1.24
		c0.252,0.543,0.379,1.188,0.379,1.935s-0.127,1.392-0.379,1.935c-0.254,0.543-0.602,0.957-1.045,1.24
		c-0.443,0.284-0.945,0.425-1.506,0.425S18.528,260.923,18.089,260.64z M20.774,259.315c0.289-0.414,0.436-1.03,0.436-1.85
		s-0.146-1.437-0.436-1.85c-0.291-0.413-0.686-0.62-1.186-0.62c-0.492,0-0.885,0.207-1.174,0.62c-0.291,0.414-0.436,1.03-0.436,1.85
		s0.145,1.437,0.436,1.85c0.289,0.414,0.682,0.62,1.174,0.62C20.089,259.935,20.483,259.729,20.774,259.315z"/>
</g>
<g>
	<path fill="#3C3530" d="M15.947,349.831c0.196,0.283,0.295,0.615,0.295,0.995c0,0.427-0.119,0.8-0.355,1.12
		c-0.237,0.32-0.572,0.564-1.005,0.734c-0.433,0.17-0.937,0.256-1.51,0.256s-1.075-0.086-1.505-0.256
		c-0.43-0.17-0.762-0.414-0.995-0.734s-0.35-0.693-0.35-1.12c0-0.38,0.097-0.712,0.29-0.995s0.47-0.508,0.83-0.676
		c-0.28-0.152-0.495-0.354-0.645-0.604s-0.225-0.538-0.225-0.864c0-0.395,0.108-0.737,0.325-1.031
		c0.216-0.293,0.521-0.52,0.915-0.68c0.393-0.16,0.846-0.24,1.36-0.24c0.52,0,0.977,0.08,1.37,0.24c0.393,0.16,0.7,0.387,0.92,0.68
		c0.22,0.294,0.33,0.637,0.33,1.031c0,0.326-0.077,0.613-0.23,0.859c-0.154,0.246-0.374,0.45-0.66,0.609
		C15.469,349.323,15.75,349.548,15.947,349.831z M14.512,351.616c0.28-0.2,0.42-0.477,0.42-0.83c0-0.347-0.14-0.62-0.42-0.82
		c-0.28-0.199-0.66-0.3-1.14-0.3s-0.857,0.101-1.13,0.3c-0.273,0.2-0.41,0.474-0.41,0.82c0,0.354,0.137,0.63,0.41,0.83
		c0.273,0.199,0.65,0.3,1.13,0.3S14.232,351.815,14.512,351.616z M12.407,347.017c-0.237,0.173-0.355,0.416-0.355,0.729
		c0,0.3,0.118,0.538,0.355,0.715c0.236,0.177,0.558,0.265,0.965,0.265c0.413,0,0.74-0.088,0.98-0.265
		c0.24-0.177,0.36-0.415,0.36-0.715c0-0.313-0.122-0.557-0.365-0.729c-0.244-0.174-0.568-0.261-0.975-0.261
		S12.644,346.843,12.407,347.017z"/>
	<path fill="#3C3530" d="M18.502,352.511c-0.44-0.283-0.787-0.696-1.04-1.24c-0.253-0.543-0.38-1.188-0.38-1.935
		s0.126-1.392,0.38-1.935c0.253-0.544,0.6-0.957,1.04-1.24c0.439-0.283,0.939-0.426,1.5-0.426s1.063,0.143,1.506,0.426
		s0.791,0.696,1.045,1.24c0.252,0.543,0.379,1.188,0.379,1.935s-0.127,1.392-0.379,1.935c-0.254,0.544-0.602,0.957-1.045,1.24
		s-0.945,0.426-1.506,0.426S18.941,352.794,18.502,352.511z M21.188,351.187c0.289-0.414,0.436-1.031,0.436-1.851
		s-0.146-1.437-0.436-1.851c-0.291-0.412-0.686-0.619-1.186-0.619c-0.493,0-0.885,0.207-1.175,0.619
		c-0.29,0.414-0.436,1.031-0.436,1.851s0.146,1.437,0.436,1.851c0.29,0.413,0.682,0.619,1.175,0.619
		C20.502,351.806,20.896,351.6,21.188,351.187z"/>
</g>
<g>
	<path fill="#4C4C4D" d="M15.875,435.632v0.87l-2.72,6.13h-1.39l2.63-5.9h-2.75v1.19h-1.21v-2.29H15.875z"/>
	<path fill="#4C4C4D" d="M17.895,442.307c-0.44-0.283-0.787-0.696-1.04-1.239c-0.253-0.544-0.38-1.189-0.38-1.936
		s0.126-1.392,0.38-1.936c0.253-0.543,0.6-0.956,1.04-1.239c0.44-0.284,0.94-0.425,1.5-0.425c0.559,0,1.061,0.141,1.504,0.425
		c0.443,0.283,0.791,0.696,1.045,1.239c0.254,0.544,0.381,1.189,0.381,1.936s-0.127,1.392-0.381,1.936
		c-0.254,0.543-0.602,0.956-1.045,1.239c-0.443,0.284-0.945,0.425-1.504,0.425C18.835,442.731,18.335,442.591,17.895,442.307z
		 M20.579,440.981c0.291-0.413,0.436-1.029,0.436-1.85s-0.145-1.437-0.436-1.85c-0.289-0.414-0.684-0.621-1.184-0.621
		c-0.494,0-0.885,0.207-1.175,0.621c-0.29,0.413-0.435,1.029-0.435,1.85s0.145,1.437,0.435,1.85
		c0.291,0.414,0.681,0.621,1.175,0.621C19.896,441.603,20.29,441.396,20.579,440.981z"/>
</g>
<g>
	<path fill="#3C3530" d="M15.107,524.114c0.367,0.176,0.653,0.428,0.86,0.755c0.207,0.327,0.31,0.703,0.31,1.13
		c0,0.453-0.113,0.852-0.34,1.195s-0.533,0.607-0.92,0.795c-0.387,0.186-0.82,0.279-1.3,0.279c-0.96,0-1.705-0.3-2.235-0.899
		c-0.53-0.601-0.795-1.46-0.795-2.58c0-0.786,0.144-1.458,0.43-2.015s0.688-0.98,1.205-1.271c0.517-0.29,1.115-0.435,1.795-0.435
		c0.36,0,0.698,0.038,1.015,0.115c0.317,0.076,0.592,0.188,0.825,0.334l-0.48,0.98c-0.347-0.227-0.79-0.34-1.33-0.34
		c-0.673,0-1.2,0.207-1.58,0.619c-0.38,0.414-0.57,1.011-0.57,1.791v0.01c0.207-0.24,0.47-0.422,0.79-0.545s0.68-0.186,1.08-0.186
		C14.328,523.849,14.741,523.938,15.107,524.114z M14.638,526.924c0.253-0.216,0.38-0.505,0.38-0.864
		c0-0.367-0.127-0.657-0.38-0.871c-0.253-0.213-0.594-0.319-1.02-0.319c-0.42,0-0.762,0.113-1.025,0.34
		c-0.264,0.227-0.395,0.513-0.395,0.86c0,0.34,0.128,0.621,0.385,0.845s0.612,0.335,1.065,0.335
		C14.054,527.249,14.384,527.141,14.638,526.924z"/>
	<path fill="#3C3530" d="M18.378,527.844c-0.44-0.283-0.787-0.696-1.041-1.239c-0.253-0.544-0.38-1.189-0.38-1.936
		s0.126-1.392,0.38-1.936c0.253-0.543,0.6-0.956,1.041-1.239c0.439-0.284,0.939-0.425,1.5-0.425s1.063,0.141,1.506,0.425
		c0.443,0.283,0.791,0.696,1.045,1.239c0.252,0.544,0.379,1.189,0.379,1.936s-0.127,1.392-0.379,1.936
		c-0.254,0.543-0.602,0.956-1.045,1.239c-0.443,0.284-0.945,0.425-1.506,0.425S18.817,528.128,18.378,527.844z M21.063,526.519
		c0.289-0.413,0.436-1.029,0.436-1.85s-0.146-1.437-0.436-1.85c-0.291-0.414-0.686-0.621-1.186-0.621
		c-0.494,0-0.885,0.207-1.176,0.621c-0.289,0.413-0.435,1.029-0.435,1.85s0.146,1.437,0.435,1.85
		c0.291,0.414,0.682,0.621,1.176,0.621C20.378,527.14,20.772,526.933,21.063,526.519z"/>
</g>
<g>
	<path fill="#3C3530" d="M11.834,577.433c-0.43-0.495-0.645-1.144-0.645-1.946s0.215-1.451,0.645-1.946
		c0.429-0.494,0.993-0.742,1.693-0.742s1.268,0.245,1.701,0.735s0.651,1.141,0.651,1.953c0,0.812-0.218,1.463-0.651,1.953
		s-1.001,0.734-1.701,0.734S12.263,577.927,11.834,577.433z M14.417,576.746c0.21-0.299,0.314-0.719,0.314-1.26
		s-0.104-0.961-0.314-1.26c-0.211-0.299-0.507-0.448-0.89-0.448c-0.364,0-0.655,0.151-0.875,0.455
		c-0.219,0.304-0.329,0.721-0.329,1.253s0.11,0.95,0.329,1.253c0.22,0.304,0.511,0.455,0.875,0.455
		C13.91,577.194,14.206,577.045,14.417,576.746z M19.407,572.896h1.372l-6.691,9.8h-1.372L19.407,572.896z M18.26,582.053
		c-0.43-0.495-0.645-1.144-0.645-1.946s0.215-1.451,0.645-1.946c0.429-0.494,0.994-0.742,1.693-0.742c0.7,0,1.268,0.248,1.701,0.742
		c0.435,0.495,0.651,1.144,0.651,1.946s-0.217,1.451-0.651,1.946c-0.434,0.494-1.001,0.741-1.701,0.741
		C19.254,582.794,18.688,582.547,18.26,582.053z M20.836,581.359c0.214-0.304,0.321-0.721,0.321-1.253s-0.107-0.95-0.321-1.253
		c-0.215-0.304-0.509-0.455-0.883-0.455c-0.373,0-0.667,0.149-0.882,0.448s-0.321,0.719-0.321,1.26s0.106,0.961,0.321,1.26
		s0.509,0.448,0.882,0.448C20.327,581.814,20.621,581.663,20.836,581.359z"/>
</g>
<path fill="#FFFFFF" d="M17.125,3.318c-0.162-0.202-0.406-0.319-0.665-0.319s-0.503,0.117-0.665,0.319c0,0-4.23,5.283-6.77,10.087
	c-1.151,2.177-1.939,4.272-1.939,5.785c0,5.173,4.2,9.374,9.374,9.374c5.174,0,9.373-4.201,9.373-9.374
	c0-1.513-0.787-3.608-1.938-5.785C21.355,8.601,17.125,3.318,17.125,3.318L17.125,3.318z M16.46,4.841
	c1.314,1.715,4.218,5.644,6.149,9.299c1.033,1.957,1.807,3.817,1.807,5.176c0,4.391-3.564,7.957-7.956,7.957
	s-7.957-3.564-7.957-7.957c0-1.359,0.773-3.219,1.808-5.176C12.242,10.485,15.146,6.556,16.46,4.841L16.46,4.841z M20.814,19.818
	c0,1.754-1.482,3.317-3.234,3.536c-0.404,0.05-0.941,0.24-0.941,0.678c0,0.438,0.365,0.603,0.67,0.563
	c2.609-0.343,4.458-2.09,4.604-4.713c0.019-0.339-0.186-0.747-0.598-0.707C21.069,19.198,20.837,19.307,20.814,19.818L20.814,19.818
	z"/>
</svg>
