<?xml version="1.0" encoding="utf-8"?>
<!-- Generator: Adobe Illustrator 27.5.0, SVG Export Plug-In . SVG Version: 6.00 Build 0)  -->
<svg version="1.1" id="Livello_1" xmlns="http://www.w3.org/2000/svg" xmlns:xlink="http://www.w3.org/1999/xlink" x="0px" y="0px"
	 width="32px" height="590px"  viewBox="0 0 32 590" style="enable-background:new 0 0 32 590;" xml:space="preserve">
<style type="text/css">
	.st0{clip-path:url(#SVGID_00000009564595543926197450000006669203467322119102_);fill:#FF0000;}
	.st1{clip-path:url(#SVGID_00000180345365464444816800000009112670528088550051_);fill:#FFFF00;}
	.st2{clip-path:url(#SVGID_00000026856954368536196820000005891223080204348309_);fill:#00FF00;}
	.st3{clip-path:url(#SVGID_00000091731730212350016290000016984911286521612172_);fill:#FF8000;}
	.st4{clip-path:url(#SVGID_00000078743205585324980610000013436589740896097203_);fill:#00FFFF;}
	.st5{clip-path:url(#SVGID_00000085941683326985943110000010773685622419165350_);fill:#0000FF;}
	.st6{fill:#3A332F;}
	.st7{fill:none;stroke:#3C3430;stroke-width:2.9317;stroke-miterlimit:9.7722;}
	.st8{fill:#3C3530;}
	.st9{fill:#FFFFFF;}
	.st10{fill:none;stroke:#000000;stroke-width:0.9772;stroke-miterlimit:9.7722;}
	.st11{fill:#FFFFFF;stroke:#FFFFFF;stroke-width:0.4886;stroke-miterlimit:9.7722;}
	.st12{fill:none;stroke:#FFFFFF;stroke-width:0.9772;stroke-miterlimit:9.7722;}
	.st13{enable-background:new    ;}
	.st14{fill:#4C4C4D;}
</style>
<g>
	<g>
		<g>
			<g>
				<defs>
					<path id="SVGID_1_" d="M26.4,574.1c-0.3,3.3-5.5,7.3-10.1,7.3l0,0c-4.5,0.4-10.6-3.2-10.6-7.3v-526c1-4.8,6.3-7.6,10-7.6l0,0
						c4.2,0,9.7,2.9,10.8,7.8L26.4,574.1L26.4,574.1z"/>
				</defs>
				<clipPath id="SVGID_00000175318318501984195880000007053432932415119030_">
					<use xlink:href="#SVGID_1_"  style="overflow:visible;"/>
				</clipPath>
				
					<rect x="0.7" y="489.2" style="clip-path:url(#SVGID_00000175318318501984195880000007053432932415119030_);fill:#FF0000;" width="30.9" height="96.8"/>
			</g>
		</g>
	</g>
	<g>
		<g>
			<g>
				<defs>
					<path id="SVGID_00000091736225440114544460000003130577687214808215_" d="M26.4,574.1c-0.3,3.3-5.5,7.3-10.1,7.3l0,0
						c-4.5,0.4-10.6-3.2-10.6-7.3v-526c1-4.8,6.3-7.6,10-7.6l0,0c4.2,0,9.7,2.9,10.8,7.8L26.4,574.1L26.4,574.1z"/>
				</defs>
				<clipPath id="SVGID_00000135648439336155945000000000568560349872258969_">
					<use xlink:href="#SVGID_00000091736225440114544460000003130577687214808215_"  style="overflow:visible;"/>
				</clipPath>
				
					<rect x="1" y="313.2" style="clip-path:url(#SVGID_00000135648439336155945000000000568560349872258969_);fill:#FFFF00;" width="30.9" height="88"/>
			</g>
		</g>
	</g>
	<g>
		<g>
			<g>
				<defs>
					<path id="SVGID_00000070094856117673046940000002307840952105097895_" d="M26.4,574.1c-0.3,3.3-5.5,7.3-10.1,7.3l0,0
						c-4.5,0.4-10.6-3.2-10.6-7.3v-526c1-4.8,6.3-7.6,10-7.6l0,0c4.2,0,9.7,2.9,10.8,7.8L26.4,574.1L26.4,574.1z"/>
				</defs>
				<clipPath id="SVGID_00000091718626223067137400000001171434823740870038_">
					<use xlink:href="#SVGID_00000070094856117673046940000002307840952105097895_"  style="overflow:visible;"/>
				</clipPath>
				
					<rect x="1" y="225.2" style="clip-path:url(#SVGID_00000091718626223067137400000001171434823740870038_);fill:#00FF00;" width="30.9" height="88"/>
			</g>
		</g>
	</g>
	<g>
		<g>
			<g>
				<defs>
					<path id="SVGID_00000016784165908875061960000003447776181648268440_" d="M26.4,574.1c-0.3,3.3-5.5,7.3-10.1,7.3l0,0
						c-4.5,0.4-10.6-3.2-10.6-7.3v-526c1-4.8,6.3-7.6,10-7.6l0,0c4.2,0,9.7,2.9,10.8,7.8L26.4,574.1L26.4,574.1z"/>
				</defs>
				<clipPath id="SVGID_00000102514584727791649060000011202978920830962080_">
					<use xlink:href="#SVGID_00000016784165908875061960000003447776181648268440_"  style="overflow:visible;"/>
				</clipPath>
				
					<rect x="0.7" y="401.2" style="clip-path:url(#SVGID_00000102514584727791649060000011202978920830962080_);fill:#FF8000;" width="30.9" height="88"/>
			</g>
		</g>
	</g>
	<g>
		<g>
			<g>
				<defs>
					<path id="SVGID_00000147926043741915401940000012486437375697327749_" d="M26.6,573.7C26.3,577,21,581,16.5,581l0,0
						c-4.5,0.4-10.6-3.2-10.6-7.3v-526c1-4.8,6.3-7.6,10-7.6l0,0c4.2,0,9.7,2.9,10.8,7.8L26.6,573.7L26.6,573.7z"/>
				</defs>
				<clipPath id="SVGID_00000043457160840183384040000010023200963806226852_">
					<use xlink:href="#SVGID_00000147926043741915401940000012486437375697327749_"  style="overflow:visible;"/>
				</clipPath>
				
					<rect x="1.1" y="136.7" style="clip-path:url(#SVGID_00000043457160840183384040000010023200963806226852_);fill:#00FFFF;" width="30.9" height="88"/>
			</g>
		</g>
	</g>
	<g>
		<g>
			<g>
				<defs>
					<path id="SVGID_00000005231425425399162210000013108837266580156291_" d="M26.4,574.1c-0.3,3.3-5.5,7.3-10.1,7.3l0,0
						c-4.5,0.4-10.6-3.2-10.6-7.3v-526c1-4.8,6.3-7.6,10-7.6l0,0c4.2,0,9.7,2.9,10.8,7.8L26.4,574.1L26.4,574.1z"/>
				</defs>
				<clipPath id="SVGID_00000093899839463827811120000011523151251762814620_">
					<use xlink:href="#SVGID_00000005231425425399162210000013108837266580156291_"  style="overflow:visible;"/>
				</clipPath>
				
					<rect x="1" y="40.4" style="clip-path:url(#SVGID_00000093899839463827811120000011523151251762814620_);fill:#0000FF;" width="30.9" height="96.8"/>
			</g>
		</g>
	</g>
</g>
<circle class="st6" cx="16.1" cy="21.8" r="14.6"/>
<path class="st7" d="M26.4,574.1c-0.3,3.3-5.5,7.3-10.1,7.3l0,0c-4.5,0.4-10.6-3.2-10.6-7.3v-526c1-4.8,6.3-7.6,10-7.6l0,0
	c4.2,0,9.7,2.9,10.8,7.8L26.4,574.1L26.4,574.1z"/>
<g>
	<path class="st8" d="M11.6,570.7c-0.4-0.5-0.6-1.1-0.6-1.9c0-0.8,0.2-1.4,0.6-1.9c0.4-0.5,1-0.7,1.7-0.7s1.2,0.2,1.7,0.7
		c0.4,0.5,0.6,1.1,0.6,1.9c0,0.8-0.2,1.4-0.6,1.9c-0.4,0.5-1,0.7-1.7,0.7C12.5,571.4,12,571.1,11.6,570.7z M14.1,570
		c0.2-0.3,0.3-0.7,0.3-1.2s-0.1-0.9-0.3-1.2s-0.5-0.4-0.9-0.4s-0.6,0.1-0.9,0.4c-0.2,0.3-0.3,0.7-0.3,1.2s0.1,0.9,0.3,1.2
		s0.5,0.4,0.9,0.4S13.9,570.3,14.1,570z M19,566.2h1.3l-6.5,9.6h-1.3L19,566.2z M17.8,575.2c-0.4-0.5-0.6-1.1-0.6-1.9
		c0-0.8,0.2-1.4,0.6-1.9s1-0.7,1.7-0.7s1.2,0.2,1.7,0.7c0.4,0.5,0.6,1.1,0.6,1.9s-0.2,1.4-0.6,1.9s-1,0.7-1.7,0.7
		S18.3,575.7,17.8,575.2z M20.4,574.5c0.2-0.3,0.3-0.7,0.3-1.2s-0.1-0.9-0.3-1.2c-0.2-0.3-0.5-0.4-0.9-0.4s-0.7,0.1-0.9,0.4
		c-0.2,0.3-0.3,0.7-0.3,1.2s0.1,0.9,0.3,1.2c0.2,0.3,0.5,0.4,0.9,0.4S20.2,574.8,20.4,574.5z"/>
</g>
<path class="st9" d="M16.7,9.6c-0.2-0.2-0.4-0.3-0.6-0.3c-0.3,0-0.5,0.1-0.6,0.3c0,0-4.1,5.2-6.6,9.9C7.8,21.6,7,23.7,7,25.2
	c0,5.1,4.1,9.2,9.2,9.2s9.2-4.1,9.2-9.2c0-1.5-0.8-3.5-1.9-5.7C20.9,14.8,16.7,9.6,16.7,9.6L16.7,9.6z M16.1,11.1
	c1.3,1.7,4.1,5.5,6,9.1c1,1.9,1.8,3.7,1.8,5.1c0,4.3-3.5,7.8-7.8,7.8s-7.8-3.5-7.8-7.8c0-1.3,0.8-3.1,1.8-5.1
	C12,16.6,14.8,12.8,16.1,11.1L16.1,11.1z"/>
<path class="st10" d="M12.4,29.9"/>
<path class="st11" d="M12.2,29.4c0,0-0.1,0.2,0.1,0.3c0.1,0.1,0.3,0,0.3,0l3.7-5.3l3.7-5.3c0,0,0.1-0.1-0.1-0.2s-0.3,0-0.3,0
	l-3.7,5.3L12.2,29.4z"/>
<circle class="st12" cx="13" cy="21.4" r="2.2"/>
<circle class="st12" cx="19" cy="27.1" r="2.2"/>
<g class="st13">
	<path class="st14" d="M14,531c-0.4-0.3-0.8-0.7-1-1.2c-0.3-0.5-0.4-1.2-0.4-1.9c0-0.7,0.1-1.4,0.4-1.9c0.3-0.5,0.6-1,1-1.2
		s0.9-0.4,1.5-0.4s1.1,0.1,1.5,0.4s0.8,0.7,1,1.2c0.3,0.5,0.4,1.2,0.4,1.9c0,0.7-0.1,1.4-0.4,1.9c-0.3,0.5-0.6,1-1,1.2
		s-0.9,0.4-1.5,0.4S14.4,531.2,14,531z M16.7,529.6c0.3-0.4,0.4-1,0.4-1.8s-0.1-1.4-0.4-1.8c-0.3-0.4-0.7-0.6-1.2-0.6
		c-0.5,0-0.9,0.2-1.2,0.6c-0.3,0.4-0.4,1-0.4,1.8s0.1,1.4,0.4,1.8c0.3,0.4,0.7,0.6,1.2,0.6C16,530.3,16.4,530,16.7,529.6z"/>
</g>
<g class="st13">
	<path class="st14" d="M15.1,446.4v1.1H9.9v-0.9l2.8-2.6c0.3-0.3,0.5-0.6,0.6-0.8c0.1-0.2,0.2-0.4,0.2-0.7c0-0.3-0.1-0.6-0.3-0.8
		c-0.2-0.2-0.5-0.3-1-0.3c-0.7,0-1.3,0.2-1.6,0.7l-0.9-0.7c0.3-0.4,0.6-0.7,1.1-0.9s1-0.3,1.6-0.3c0.8,0,1.4,0.2,1.8,0.5
		c0.5,0.4,0.7,0.8,0.7,1.5c0,0.4-0.1,0.7-0.2,1.1c-0.2,0.3-0.5,0.7-0.9,1.1l-1.9,1.8H15.1z"/>
	<path class="st14" d="M17.2,447.2c-0.4-0.3-0.8-0.7-1-1.2c-0.3-0.5-0.4-1.2-0.4-1.9c0-0.7,0.1-1.4,0.4-1.9c0.3-0.5,0.6-1,1-1.2
		c0.4-0.3,0.9-0.4,1.5-0.4c0.6,0,1.1,0.1,1.5,0.4c0.4,0.3,0.8,0.7,1,1.2c0.3,0.5,0.4,1.2,0.4,1.9c0,0.7-0.1,1.4-0.4,1.9
		c-0.3,0.5-0.6,1-1,1.2c-0.4,0.3-0.9,0.4-1.5,0.4C18.2,447.6,17.7,447.4,17.2,447.2z M19.9,445.8c0.3-0.4,0.4-1,0.4-1.8
		s-0.1-1.4-0.4-1.8c-0.3-0.4-0.7-0.6-1.2-0.6c-0.5,0-0.9,0.2-1.2,0.6c-0.3,0.4-0.4,1-0.4,1.8s0.1,1.4,0.4,1.8
		c0.3,0.4,0.7,0.6,1.2,0.6C19.2,446.5,19.6,446.2,19.9,445.8z"/>
</g>
<g class="st13">
	<path class="st14" d="M16,357.1h-1.2v1.6h-1.3v-1.6H9.7v-0.9l3.5-4.5h1.4l-3.2,4.3h2.3v-1.4h1.2v1.4H16V357.1z"/>
	<path class="st14" d="M18,358.4c-0.4-0.3-0.8-0.7-1-1.2c-0.3-0.5-0.4-1.2-0.4-1.9c0-0.7,0.1-1.4,0.4-1.9c0.3-0.5,0.6-1,1-1.2
		c0.4-0.3,0.9-0.4,1.5-0.4s1.1,0.1,1.5,0.4c0.4,0.3,0.8,0.7,1,1.2s0.4,1.2,0.4,1.9c0,0.7-0.1,1.4-0.4,1.9s-0.6,1-1,1.2
		s-0.9,0.4-1.5,0.4S18.4,358.7,18,358.4z M20.7,357.1c0.3-0.4,0.4-1,0.4-1.8c0-0.8-0.1-1.4-0.4-1.8c-0.3-0.4-0.7-0.6-1.2-0.6
		c-0.5,0-0.9,0.2-1.2,0.6c-0.3,0.4-0.4,1-0.4,1.8c0,0.8,0.1,1.4,0.4,1.8s0.7,0.6,1.2,0.6C20,357.7,20.4,357.5,20.7,357.1z"/>
</g>
<g class="st13">
	<path class="st14" d="M13.9,267.1c0.4,0.2,0.7,0.4,0.9,0.8c0.2,0.3,0.3,0.7,0.3,1.1c0,0.5-0.1,0.8-0.3,1.2
		c-0.2,0.3-0.5,0.6-0.9,0.8c-0.4,0.2-0.8,0.3-1.3,0.3c-1,0-1.7-0.3-2.2-0.9c-0.5-0.6-0.8-1.5-0.8-2.6c0-0.8,0.1-1.5,0.4-2
		c0.3-0.6,0.7-1,1.2-1.3c0.5-0.3,1.1-0.4,1.8-0.4c0.4,0,0.7,0,1,0.1c0.3,0.1,0.6,0.2,0.8,0.3l-0.5,1c-0.3-0.2-0.8-0.3-1.3-0.3
		c-0.7,0-1.2,0.2-1.6,0.6s-0.6,1-0.6,1.8v0c0.2-0.2,0.5-0.4,0.8-0.5c0.3-0.1,0.7-0.2,1.1-0.2C13.1,266.8,13.5,266.9,13.9,267.1z
		 M13.4,269.9c0.3-0.2,0.4-0.5,0.4-0.9c0-0.4-0.1-0.7-0.4-0.9s-0.6-0.3-1-0.3c-0.4,0-0.8,0.1-1,0.3c-0.3,0.2-0.4,0.5-0.4,0.9
		c0,0.3,0.1,0.6,0.4,0.8c0.3,0.2,0.6,0.3,1.1,0.3C12.8,270.2,13.1,270.1,13.4,269.9z"/>
	<path class="st14" d="M17.1,270.8c-0.4-0.3-0.8-0.7-1-1.2s-0.4-1.2-0.4-1.9s0.1-1.4,0.4-1.9s0.6-1,1-1.2c0.4-0.3,0.9-0.4,1.5-0.4
		c0.6,0,1.1,0.1,1.5,0.4s0.8,0.7,1,1.2c0.3,0.5,0.4,1.2,0.4,1.9s-0.1,1.4-0.4,1.9c-0.3,0.5-0.6,1-1,1.2s-0.9,0.4-1.5,0.4
		C18.1,271.2,17.6,271.1,17.1,270.8z M19.8,269.5c0.3-0.4,0.4-1,0.4-1.8c0-0.8-0.1-1.4-0.4-1.8c-0.3-0.4-0.7-0.6-1.2-0.6
		c-0.5,0-0.9,0.2-1.2,0.6c-0.3,0.4-0.4,1-0.4,1.8c0,0.8,0.1,1.4,0.4,1.8c0.3,0.4,0.7,0.6,1.2,0.6C19.1,270.1,19.5,269.9,19.8,269.5z
		"/>
</g>
<g class="st13">
	<path class="st14" d="M15.3,179.6c0.2,0.3,0.3,0.6,0.3,1c0,0.4-0.1,0.8-0.4,1.1c-0.2,0.3-0.6,0.6-1,0.7c-0.4,0.2-0.9,0.3-1.5,0.3
		c-0.6,0-1.1-0.1-1.5-0.3c-0.4-0.2-0.8-0.4-1-0.7c-0.2-0.3-0.4-0.7-0.4-1.1c0-0.4,0.1-0.7,0.3-1s0.5-0.5,0.8-0.7
		c-0.3-0.2-0.5-0.4-0.6-0.6c-0.1-0.2-0.2-0.5-0.2-0.9c0-0.4,0.1-0.7,0.3-1c0.2-0.3,0.5-0.5,0.9-0.7c0.4-0.2,0.8-0.2,1.4-0.2
		c0.5,0,1,0.1,1.4,0.2c0.4,0.2,0.7,0.4,0.9,0.7c0.2,0.3,0.3,0.6,0.3,1c0,0.3-0.1,0.6-0.2,0.9s-0.4,0.4-0.7,0.6
		C14.8,179.1,15.1,179.4,15.3,179.6z M13.9,181.4c0.3-0.2,0.4-0.5,0.4-0.8c0-0.3-0.1-0.6-0.4-0.8c-0.3-0.2-0.7-0.3-1.1-0.3
		s-0.9,0.1-1.1,0.3c-0.3,0.2-0.4,0.5-0.4,0.8c0,0.4,0.1,0.6,0.4,0.8c0.3,0.2,0.6,0.3,1.1,0.3S13.6,181.6,13.9,181.4z M11.7,176.8
		c-0.2,0.2-0.4,0.4-0.4,0.7c0,0.3,0.1,0.5,0.4,0.7c0.2,0.2,0.6,0.3,1,0.3c0.4,0,0.7-0.1,1-0.3c0.2-0.2,0.4-0.4,0.4-0.7
		c0-0.3-0.1-0.6-0.4-0.7c-0.2-0.2-0.6-0.3-1-0.3C12.3,176.6,12,176.7,11.7,176.8z"/>
	<path class="st14" d="M17.8,182.3c-0.4-0.3-0.8-0.7-1-1.2c-0.3-0.5-0.4-1.2-0.4-1.9s0.1-1.4,0.4-1.9c0.3-0.5,0.6-1,1-1.2
		s0.9-0.4,1.5-0.4s1.1,0.1,1.5,0.4s0.8,0.7,1,1.2s0.4,1.2,0.4,1.9s-0.1,1.4-0.4,1.9s-0.6,1-1,1.2s-0.9,0.4-1.5,0.4
		S18.3,182.6,17.8,182.3z M20.5,181c0.3-0.4,0.4-1,0.4-1.8c0-0.8-0.1-1.4-0.4-1.8c-0.3-0.4-0.7-0.6-1.2-0.6c-0.5,0-0.9,0.2-1.2,0.6
		c-0.3,0.4-0.4,1-0.4,1.8c0,0.8,0.1,1.4,0.4,1.8s0.7,0.6,1.2,0.6C19.8,181.6,20.2,181.4,20.5,181z"/>
</g>
<g class="st13">
	<path class="st9" d="M10.2,78.6v7H8.9v-5.9H7.4v-1.1H10.2z"/>
	<path class="st9" d="M13,85.3c-0.4-0.3-0.8-0.7-1-1.2s-0.4-1.2-0.4-1.9s0.1-1.4,0.4-1.9s0.6-1,1-1.2s0.9-0.4,1.5-0.4
		s1.1,0.1,1.5,0.4s0.8,0.7,1,1.2c0.3,0.5,0.4,1.2,0.4,1.9S17.3,83.5,17,84c-0.3,0.5-0.6,1-1,1.2s-0.9,0.4-1.5,0.4S13.4,85.5,13,85.3
		z M15.7,83.9c0.3-0.4,0.4-1,0.4-1.8c0-0.8-0.1-1.4-0.4-1.8c-0.3-0.4-0.7-0.6-1.2-0.6c-0.5,0-0.9,0.2-1.2,0.6
		c-0.3,0.4-0.4,1-0.4,1.8c0,0.8,0.1,1.4,0.4,1.8s0.7,0.6,1.2,0.6C15,84.6,15.4,84.4,15.7,83.9z"/>
	<path class="st9" d="M19.7,85.3c-0.4-0.3-0.8-0.7-1-1.2c-0.3-0.5-0.4-1.2-0.4-1.9s0.1-1.4,0.4-1.9c0.3-0.5,0.6-1,1-1.2
		c0.4-0.3,0.9-0.4,1.5-0.4c0.6,0,1.1,0.1,1.5,0.4s0.8,0.7,1,1.2c0.3,0.5,0.4,1.2,0.4,1.9S24,83.5,23.8,84c-0.3,0.5-0.6,1-1,1.2
		s-0.9,0.4-1.5,0.4C20.7,85.7,20.2,85.5,19.7,85.3z M22.4,83.9c0.3-0.4,0.4-1,0.4-1.8c0-0.8-0.1-1.4-0.4-1.8
		c-0.3-0.4-0.7-0.6-1.2-0.6c-0.5,0-0.9,0.2-1.2,0.6c-0.3,0.4-0.4,1-0.4,1.8c0,0.8,0.1,1.4,0.4,1.8c0.3,0.4,0.7,0.6,1.2,0.6
		C21.7,84.6,22.1,84.4,22.4,83.9z"/>
</g>
</svg>
