<?xml version="1.0" encoding="utf-8"?>
<!-- Generator: Adobe Illustrator 28.0.0, SVG Export Plug-In . SVG Version: 6.00 Build 0)  -->
<svg version="1.1" id="Livello_1" xmlns="http://www.w3.org/2000/svg" xmlns:xlink="http://www.w3.org/1999/xlink" x="0px" y="0px"
	 	width="50px" height="677px"  viewBox="0 0 50.6 677.2" style="enable-background:new 0 0 50.6 677.2;" xml:space="preserve">
<style type="text/css">
	.st0{opacity:0.8;}
	.st1{fill:#FF0000;}
	.st2{fill:#FFFF00;}
	.st3{fill:#00FF00;}
	.st4{fill:#FF8000;}
	.st5{fill:#00FFFF;}
	.st6{fill:#0000FF;}
	.st7{fill:#39322E;}
	.st8{fill:none;}
	.st9{fill:none;stroke:#3C3430;stroke-width:2;stroke-miterlimit:9.7722;}
	.st10{fill:none;stroke:#3C3430;stroke-miterlimit:9.7722;}
	.st11{fill:#FFFFFF;}
	.st12{fill:#3C3430;}
	.st13{fill:#3C3530;}
	.st14{fill:#FFFFFF;stroke:#FFFFFF;stroke-width:0.4886;stroke-miterlimit:9.7722;}
	.st15{fill:none;stroke:#FFFFFF;stroke-width:0.9772;stroke-miterlimit:9.7722;}
</style>
<g>
	<g class="st0">
		<g>
			<g>
				<g>
					<g>
						<path class="st1" d="M5.4,565.8h37.9v103.3c0,3.9-3.2,7.1-7.1,7.1H11c-3.1,0-5.6-2.5-5.6-5.6V565.8z"/>
					</g>
				</g>
			</g>
		</g>
	</g>
	<g class="st0">
		<g>
			<g>
				<g>
					<g>
						<rect x="5.9" y="363.5" class="st2" width="37.9" height="101.2"/>
					</g>
				</g>
			</g>
		</g>
	</g>
	<g class="st0">
		<g>
			<g>
				<g>
					<g>
						<rect x="5.9" y="261.8" class="st3" width="37.9" height="101.7"/>
					</g>
				</g>
			</g>
		</g>
	</g>
	<g class="st0">
		<g>
			<g>
				<g>
					<g>
						<rect x="5.5" y="464.6" class="st4" width="37.9" height="101.2"/>
					</g>
				</g>
			</g>
		</g>
	</g>
	<g class="st0">
		<g>
			<g>
				<g>
					<g>
						<rect x="6" y="160.6" class="st5" width="37.9" height="101.2"/>
					</g>
				</g>
			</g>
		</g>
	</g>
	<g class="st0">
		<g>
			<g>
				<g>
					<g>
						<path class="st6" d="M9.6,49.9h28.8c2,0,3.7,1.6,3.7,3.7v107.5H6.7V52.8C6.7,51.2,8,49.9,9.6,49.9z"/>
					</g>
				</g>
			</g>
		</g>
	</g>
</g>
<circle class="st7" cx="24.1" cy="26.6" r="19.8"/>
<rect x="11.1" y="632" class="st8" width="15.4" height="11.8"/>
<path class="st9" d="M36.6,675.8H12.1c-3.4,0-6.2-2.8-6.2-6.2V56.1c0-3.4,2.8-6.2,6.2-6.2h24.5c3.4,0,6.2,2.8,6.2,6.2v613.5
	C42.8,673,40,675.8,36.6,675.8z"/>
<g>
	<path class="st11" d="M24.7,666c0.7,0,1.2,0.1,1.6,0.4c0.9,0.5,1.3,1.8,1.3,3.8c0,1.4-0.2,2.5-0.7,3.1c-0.5,0.6-1.2,0.9-2.2,0.9
		s-1.7-0.3-2.2-0.9c-0.5-0.6-0.7-1.6-0.7-3.1c0-1.5,0.2-2.6,0.7-3.2C23,666.3,23.8,666,24.7,666z M24.7,666.8
		c-0.5,0-0.8,0.1-1.1,0.3c-0.6,0.4-0.9,1.4-0.9,3.1c0,1.2,0.2,2,0.5,2.5c0.3,0.5,0.8,0.7,1.5,0.7s1.2-0.2,1.5-0.7
		c0.3-0.5,0.5-1.3,0.5-2.5s-0.2-2.1-0.5-2.6S25.4,666.8,24.7,666.8z"/>
</g>
<g>
	<path class="st12" d="M22.8,568.2h-5.1v-0.8L20,565c0.4-0.4,0.7-0.7,0.9-0.9c0.2-0.2,0.4-0.5,0.5-0.8c0.1-0.3,0.2-0.6,0.2-0.9
		c0-0.5-0.1-0.9-0.4-1.1c-0.3-0.2-0.7-0.3-1.3-0.3c-0.5,0-1.1,0.1-1.7,0.2l-0.3,0.1l-0.1-0.8c0.8-0.2,1.5-0.3,2.4-0.3
		c0.8,0,1.4,0.2,1.8,0.5c0.4,0.3,0.6,0.9,0.6,1.6c0,0.6-0.1,1-0.4,1.5s-0.7,0.9-1.3,1.5l-2.1,2.1h4V568.2z"/>
	<path class="st12" d="M27,560.1c0.7,0,1.2,0.1,1.6,0.4c0.9,0.5,1.3,1.8,1.3,3.8c0,1.4-0.2,2.5-0.7,3.1c-0.5,0.6-1.2,0.9-2.2,0.9
		s-1.7-0.3-2.2-0.9c-0.5-0.6-0.7-1.6-0.7-3.1c0-1.5,0.2-2.6,0.7-3.2C25.3,560.5,26,560.1,27,560.1z M27,561c-0.5,0-0.8,0.1-1.1,0.3
		c-0.6,0.4-0.9,1.4-0.9,3.1c0,1.2,0.2,2,0.5,2.5c0.3,0.5,0.8,0.7,1.5,0.7s1.2-0.2,1.5-0.7c0.3-0.5,0.5-1.3,0.5-2.5s-0.1-2.1-0.5-2.6
		C28.1,561.2,27.7,561,27,561z"/>
</g>
<g>
	<path class="st13" d="M22.3,465.9v-1.5h-3.8v-0.7l2.3-5.7h1l-2.3,5.6h2.9v-2.5h0.9v2.5h1v0.8h-1v1.5H22.3z"/>
	<path class="st13" d="M28,457.8c0.7,0,1.2,0.1,1.6,0.4c0.9,0.5,1.3,1.8,1.3,3.8c0,1.4-0.2,2.5-0.7,3.1c-0.5,0.6-1.2,0.9-2.2,0.9
		s-1.7-0.3-2.2-0.9c-0.5-0.6-0.7-1.6-0.7-3.1c0-1.5,0.2-2.6,0.7-3.2C26.3,458.2,27,457.8,28,457.8z M28,458.7
		c-0.5,0-0.8,0.1-1.1,0.3c-0.6,0.4-0.9,1.4-0.9,3.1c0,1.2,0.2,2,0.5,2.5c0.3,0.5,0.8,0.7,1.5,0.7s1.2-0.2,1.5-0.7
		c0.3-0.5,0.5-1.3,0.5-2.5s-0.1-2.1-0.5-2.6C29.2,458.9,28.7,458.7,28,458.7z"/>
</g>
<g>
	<path class="st13" d="M24,358.8c-0.7-0.1-1.4-0.1-2.1-0.1s-1.2,0.2-1.6,0.7c-0.4,0.5-0.6,1.1-0.6,2l0.3-0.1
		c0.2-0.1,0.5-0.1,0.8-0.2c0.3-0.1,0.6-0.1,0.9-0.1c1.8,0,2.7,0.8,2.7,2.5c0,0.8-0.2,1.5-0.7,1.9s-1.2,0.7-2,0.7
		c-1.9,0-2.8-1.4-2.8-4.1c0-1.4,0.3-2.4,0.8-3.1c0.5-0.7,1.3-1,2.3-1c0.6,0,1.3,0,1.8,0.1l0.3,0.1L24,358.8z M21.7,361.7
		c-0.3,0-0.6,0-0.9,0.1s-0.6,0.1-0.8,0.2l-0.3,0.1c0,0.9,0.2,1.6,0.5,2.2s0.8,0.8,1.4,0.8s1.1-0.2,1.4-0.5c0.3-0.3,0.5-0.7,0.5-1.3
		c0-0.6-0.2-1-0.5-1.3C22.7,361.9,22.3,361.7,21.7,361.7z"/>
	<path class="st13" d="M28.3,357.8c0.7,0,1.2,0.1,1.6,0.4c0.9,0.5,1.3,1.8,1.3,3.8c0,1.4-0.2,2.5-0.7,3.1c-0.5,0.6-1.2,0.9-2.2,0.9
		s-1.7-0.3-2.2-0.9c-0.5-0.6-0.7-1.6-0.7-3.1c0-1.5,0.2-2.6,0.7-3.2C26.6,358.1,27.4,357.8,28.3,357.8z M28.3,358.6
		c-0.5,0-0.8,0.1-1.1,0.3c-0.6,0.4-0.9,1.4-0.9,3.1c0,1.2,0.2,2,0.5,2.5c0.3,0.5,0.8,0.7,1.5,0.7s1.2-0.2,1.5-0.7
		c0.3-0.5,0.5-1.3,0.5-2.5s-0.2-2.1-0.5-2.6S29,358.6,28.3,358.6z"/>
</g>
<g>
	<path class="st11" d="M19.5,257.7c0.5-0.3,1.2-0.5,2.1-0.5s1.6,0.2,2.1,0.5c0.5,0.3,0.8,0.9,0.8,1.5c0,0.5-0.1,0.9-0.3,1.1
		c-0.2,0.3-0.5,0.5-1,0.7c0.5,0.2,0.8,0.5,1.1,0.8s0.4,0.7,0.4,1.2c0,1.5-1,2.3-3,2.3c-2,0-3-0.7-3-2.1c0-0.6,0.1-1,0.3-1.3
		c0.2-0.3,0.6-0.6,1-0.8c-0.4-0.2-0.7-0.5-0.9-0.7s-0.3-0.7-0.3-1.1C18.8,258.5,19,258,19.5,257.7z M19.6,263c0,1,0.7,1.5,2,1.5
		s2-0.5,2-1.5c0-0.4-0.1-0.7-0.4-0.9c-0.2-0.2-0.6-0.4-1-0.5h-1.3c-0.4,0.1-0.8,0.3-1,0.5C19.7,262.3,19.6,262.6,19.6,263z
		 M23.5,259.3c0-0.9-0.6-1.3-1.9-1.3c-1.2,0-1.9,0.4-1.9,1.3c0,0.4,0.1,0.6,0.3,0.9c0.2,0.2,0.5,0.4,0.9,0.5h1.3
		c0.4-0.1,0.8-0.3,1-0.5C23.4,259.9,23.5,259.7,23.5,259.3z"/>
	<path class="st11" d="M28.3,257.1c0.7,0,1.2,0.1,1.6,0.4c0.9,0.5,1.3,1.8,1.3,3.8c0,1.4-0.2,2.5-0.7,3.1c-0.5,0.6-1.2,0.9-2.2,0.9
		s-1.7-0.3-2.2-0.9c-0.5-0.6-0.7-1.6-0.7-3.1c0-1.5,0.2-2.6,0.7-3.2C26.6,257.4,27.4,257.1,28.3,257.1z M28.3,258
		c-0.5,0-0.8,0.1-1.1,0.3c-0.6,0.4-0.9,1.4-0.9,3.1c0,1.2,0.2,2,0.5,2.5c0.3,0.5,0.8,0.7,1.5,0.7s1.2-0.2,1.5-0.7
		c0.3-0.5,0.5-1.3,0.5-2.5s-0.2-2.1-0.5-2.6S29,258,28.3,258z"/>
</g>
<g>
	<path class="st11" d="M19.2,53.8v7.9h-0.9v-6.9l-2,1.3l-0.4-0.7l2.5-1.7H19.2z"/>
	<path class="st11" d="M24.6,53.6c0.7,0,1.2,0.1,1.6,0.4c0.9,0.5,1.3,1.8,1.3,3.8c0,1.4-0.2,2.5-0.7,3.1c-0.5,0.6-1.2,0.9-2.2,0.9
		s-1.7-0.3-2.2-0.9c-0.5-0.6-0.7-1.6-0.7-3.1c0-1.5,0.2-2.6,0.7-3.2C22.9,53.9,23.6,53.6,24.6,53.6z M24.6,54.4
		c-0.5,0-0.8,0.1-1.1,0.3c-0.6,0.4-0.9,1.4-0.9,3.1c0,1.2,0.2,2,0.5,2.5c0.3,0.5,0.8,0.7,1.5,0.7s1.2-0.2,1.5-0.7
		c0.3-0.5,0.5-1.3,0.5-2.5s-0.2-2.1-0.5-2.6S25.3,54.4,24.6,54.4z"/>
	<path class="st11" d="M31.3,53.6c0.7,0,1.2,0.1,1.6,0.4c0.9,0.5,1.3,1.8,1.3,3.8c0,1.4-0.2,2.5-0.7,3.1c-0.5,0.6-1.2,0.9-2.2,0.9
		s-1.7-0.3-2.2-0.9c-0.5-0.6-0.7-1.6-0.7-3.1c0-1.5,0.2-2.6,0.7-3.2C29.6,53.9,30.4,53.6,31.3,53.6z M31.3,54.4
		c-0.5,0-0.8,0.1-1.1,0.3c-0.6,0.4-0.9,1.4-0.9,3.1c0,1.2,0.2,2,0.5,2.5c0.3,0.5,0.8,0.7,1.5,0.7s1.2-0.2,1.5-0.7
		c0.3-0.5,0.5-1.3,0.5-2.5s-0.2-2.1-0.5-2.6S32,54.4,31.3,54.4z"/>
</g>
<line class="st10" x1="5.6" y1="464.4" x2="17.5" y2="464.4"/>
<line class="st10" x1="41.8" y1="464.4" x2="31.4" y2="464.4"/>
<line class="st10" x1="6" y1="565.8" x2="20.1" y2="565.8"/>
<line class="st10" x1="42.1" y1="565.8" x2="29.3" y2="565.8"/>
<line class="st10" x1="5.9" y1="363.5" x2="17" y2="363.5"/>
<line class="st10" x1="31.9" y1="363.5" x2="42.5" y2="363.5"/>
<line class="st10" x1="6.4" y1="261.8" x2="17.2" y2="261.8"/>
<line class="st10" x1="42.2" y1="261.8" x2="31.3" y2="261.8"/>
<line class="st10" x1="18.9" y1="160.9" x2="6.4" y2="160.9"/>
<line class="st10" x1="42.9" y1="161.1" x2="31.9" y2="161.1"/>
<rect x="19.1" y="35.4" class="st8" width="10.8" height="6"/>
<path class="st11" d="M25.3,12.6c-0.2-0.2-0.5-0.3-0.7-0.3c-0.3,0-0.6,0.1-0.7,0.3c0,0-4.7,5.9-7.5,11.2c-1.2,2.4-2.2,4.8-2.2,6.5
	c0,5.8,4.7,10.4,10.4,10.4s10.4-4.7,10.4-10.4c0-1.7-0.9-4-2.2-6.5C30.1,18.5,25.3,12.6,25.3,12.6L25.3,12.6z M24.6,14.3
	c1.5,1.9,4.7,6.2,6.8,10.3c1.1,2.2,2,4.2,2,5.8c0,4.9-4,8.9-8.9,8.9s-8.9-4-8.9-8.9c0-1.5,0.9-3.5,2-5.8
	C20,20.5,23.2,16.2,24.6,14.3L24.6,14.3z"/>
<path class="st14" d="M20.2,34.9c0,0-0.1,0.2,0.1,0.3c0.1,0.1,0.3,0,0.3,0l4.2-6l4.2-6c0,0,0.1-0.1-0.1-0.2c-0.2-0.1-0.3,0-0.3,0
	l-4.2,6L20.2,34.9z"/>
<circle class="st15" cx="21.1" cy="25.8" r="2.5"/>
<circle class="st15" cx="27.9" cy="32.4" r="2.5"/>
<g>
	<path class="st11" d="M21.3,163.3c1.4,0,2.2-0.9,2.2-2.8c-0.8,0.3-1.5,0.5-2.1,0.5c-1.7,0-2.6-0.8-2.6-2.4c0-0.8,0.2-1.4,0.7-1.9
		s1.2-0.7,2-0.7c1,0,1.7,0.4,2.2,1.1c0.5,0.7,0.7,1.8,0.7,3.2c0,1.4-0.3,2.4-0.8,3s-1.3,0.9-2.3,0.9c-0.6,0-1.2-0.1-1.9-0.2l-0.3,0
		l0.1-0.7C19.9,163.3,20.6,163.3,21.3,163.3z M21.5,160.2c0.5,0,1.1-0.1,1.7-0.3l0.3-0.1c0-2-0.7-3-1.9-3c-0.6,0-1,0.2-1.3,0.5
		c-0.3,0.3-0.5,0.8-0.5,1.3C19.8,159.7,20.4,160.2,21.5,160.2z"/>
	<path class="st11" d="M28.4,156c0.7,0,1.2,0.1,1.6,0.4c0.9,0.5,1.3,1.8,1.3,3.8c0,1.4-0.2,2.5-0.7,3.1c-0.5,0.6-1.2,0.9-2.2,0.9
		s-1.7-0.3-2.2-0.9c-0.5-0.6-0.7-1.6-0.7-3.1c0-1.5,0.2-2.6,0.7-3.2C26.7,156.3,27.4,156,28.4,156z M28.4,156.8
		c-0.5,0-0.8,0.1-1.1,0.3c-0.6,0.4-0.9,1.4-0.9,3.1c0,1.2,0.2,2,0.5,2.5c0.3,0.5,0.8,0.7,1.5,0.7s1.2-0.2,1.5-0.7
		c0.3-0.5,0.5-1.3,0.5-2.5s-0.2-2.1-0.5-2.6S29.1,156.8,28.4,156.8z"/>
</g>
</svg>
