<?xml version="1.0" encoding="utf-8"?>
<!-- Generator: Adobe Illustrator 16.0.0, SVG Export Plug-In . SVG Version: 6.00 Build 0)  -->
<!DOCTYPE svg PUBLIC "-//W3C//DTD SVG 1.1//EN" "http://www.w3.org/Graphics/SVG/1.1/DTD/svg11.dtd">
<svg version="1.1" id="Livello_1" xmlns="http://www.w3.org/2000/svg" xmlns:xlink="http://www.w3.org/1999/xlink" x="0px" y="0px"
	 width="32.746px" height="590.697px" viewBox="0 0 32.746 590.697" enable-background="new 0 0 32.746 590.697"
	 xml:space="preserve">
<g display="none">
	<g display="inline">
		<g>
			<defs>
				<path id="SVGID_1_" d="M27.262,580.714c-0.316,3.428-5.673,7.51-10.308,7.51l0,0c-4.594,0.367-10.877-3.315-10.877-7.51V42.467
					c1.021-4.94,6.492-7.798,10.182-7.792l0,0c4.298-0.006,9.896,2.929,11.003,7.984V580.714L27.262,580.714z"/>
			</defs>
			<clipPath id="SVGID_2_">
				<use xlink:href="#SVGID_1_"  overflow="visible"/>
			</clipPath>
			<rect x="0.88" y="495.265" clip-path="url(#SVGID_2_)" fill="#FAFDF9" width="31.578" height="99.045"/>
		</g>
		<g>
			<defs>
				<path id="SVGID_3_" d="M27.262,580.714c-0.316,3.428-5.673,7.51-10.308,7.51l0,0c-4.594,0.367-10.877-3.315-10.877-7.51V42.467
					c1.021-4.94,6.492-7.798,10.182-7.792l0,0c4.298-0.006,9.896,2.929,11.003,7.984V580.714L27.262,580.714z"/>
			</defs>
			<clipPath id="SVGID_4_">
				<use xlink:href="#SVGID_3_"  overflow="visible"/>
			</clipPath>
			<rect x="1.196" y="315.187" clip-path="url(#SVGID_4_)" fill="#D6EED4" width="31.578" height="90.041"/>
		</g>
		<g>
			<defs>
				<path id="SVGID_5_" d="M27.262,580.714c-0.316,3.428-5.673,7.51-10.308,7.51l0,0c-4.594,0.367-10.877-3.315-10.877-7.51V42.467
					c1.021-4.94,6.492-7.798,10.182-7.792l0,0c4.298-0.006,9.896,2.929,11.003,7.984V580.714L27.262,580.714z"/>
			</defs>
			<clipPath id="SVGID_6_">
				<use xlink:href="#SVGID_5_"  overflow="visible"/>
			</clipPath>
			<rect x="1.196" y="225.147" clip-path="url(#SVGID_6_)" fill="#C4E6C0" width="31.578" height="90.038"/>
		</g>
		<g>
			<defs>
				<path id="SVGID_7_" d="M27.262,580.714c-0.316,3.428-5.673,7.51-10.308,7.51l0,0c-4.594,0.367-10.877-3.315-10.877-7.51V42.467
					c1.021-4.94,6.492-7.798,10.182-7.792l0,0c4.298-0.006,9.896,2.929,11.003,7.984V580.714L27.262,580.714z"/>
			</defs>
			<clipPath id="SVGID_8_">
				<use xlink:href="#SVGID_7_"  overflow="visible"/>
			</clipPath>
			<rect x="0.88" y="405.226" clip-path="url(#SVGID_8_)" fill="#ECF7EA" width="31.578" height="90.041"/>
		</g>
		<g>
			<defs>
				<path id="SVGID_9_" d="M27.262,580.714c-0.316,3.428-5.673,7.51-10.308,7.51l0,0c-4.594,0.367-10.877-3.315-10.877-7.51V42.467
					c1.021-4.94,6.492-7.798,10.182-7.792l0,0c4.298-0.006,9.896,2.929,11.003,7.984V580.714L27.262,580.714z"/>
			</defs>
			<clipPath id="SVGID_10_">
				<use xlink:href="#SVGID_9_"  overflow="visible"/>
			</clipPath>
			<rect x="1.196" y="135.094" clip-path="url(#SVGID_10_)" fill="#B0DEAB" width="31.578" height="90.041"/>
		</g>
		<g>
			<defs>
				<path id="SVGID_11_" d="M27.262,580.714c-0.316,3.428-5.673,7.51-10.308,7.51l0,0c-4.594,0.367-10.877-3.315-10.877-7.51V42.467
					c1.021-4.94,6.492-7.798,10.182-7.792l0,0c4.298-0.006,9.896,2.929,11.003,7.984V580.714L27.262,580.714z"/>
			</defs>
			<clipPath id="SVGID_12_">
				<use xlink:href="#SVGID_11_"  overflow="visible"/>
			</clipPath>
			<rect x="0.88" y="36.051" clip-path="url(#SVGID_12_)" fill="#9DD797" width="31.577" height="99.043"/>
		</g>
	</g>
</g>
<g>
	<g>
		<defs>
			<path id="SVGID_13_" d="M27.262,580.714c0,3.713-5.957,8.074-10.593,8.074h-0.652c-4.295,0-9.939-3.881-9.939-8.074V42.467
				c1.023-4.94,6.494-7.797,10.183-7.792l0,0c4.295-0.005,9.896,2.929,11,7.984V580.714L27.262,580.714z"/>
		</defs>
		<clipPath id="SVGID_14_">
			<use xlink:href="#SVGID_13_"  overflow="visible"/>
		</clipPath>
		<rect x="-4.972" y="34.675" clip-path="url(#SVGID_14_)" fill="#C8E8F0" width="43.281" height="27.238"/>
	</g>
	<g>
		<defs>
			<path id="SVGID_15_" d="M27.262,580.714c0,3.713-5.957,8.074-10.593,8.074h-0.652c-4.295,0-9.939-3.881-9.939-8.074V42.467
				c1.023-4.94,6.494-7.797,10.183-7.792l0,0c4.295-0.005,9.896,2.929,11,7.984V580.714L27.262,580.714z"/>
		</defs>
		<clipPath id="SVGID_16_">
			<use xlink:href="#SVGID_15_"  overflow="visible"/>
		</clipPath>
		<rect x="-4.972" y="61.914" clip-path="url(#SVGID_16_)" fill="#D0EBF7" width="43.281" height="27.238"/>
	</g>
	<g>
		<defs>
			<path id="SVGID_17_" d="M27.262,580.714c0,3.713-5.957,8.074-10.593,8.074h-0.652c-4.295,0-9.939-3.881-9.939-8.074V42.467
				c1.023-4.94,6.494-7.797,10.183-7.792l0,0c4.295-0.005,9.896,2.929,11,7.984V580.714L27.262,580.714z"/>
		</defs>
		<clipPath id="SVGID_18_">
			<use xlink:href="#SVGID_17_"  overflow="visible"/>
		</clipPath>
		<rect x="-4.972" y="88.639" clip-path="url(#SVGID_18_)" fill="#4898DA" width="43.281" height="27.238"/>
	</g>
	<g>
		<defs>
			<path id="SVGID_19_" d="M27.262,580.714c0,3.713-5.957,8.074-10.593,8.074h-0.652c-4.295,0-9.939-3.881-9.939-8.074V42.467
				c1.023-4.94,6.494-7.797,10.183-7.792l0,0c4.295-0.005,9.896,2.929,11,7.984V580.714L27.262,580.714z"/>
		</defs>
		<clipPath id="SVGID_20_">
			<use xlink:href="#SVGID_19_"  overflow="visible"/>
		</clipPath>
		<rect x="-4.972" y="115.877" clip-path="url(#SVGID_20_)" fill="#A3A5D7" width="43.281" height="27.238"/>
	</g>
	<g>
		<defs>
			<path id="SVGID_21_" d="M27.262,580.714c0,3.713-5.957,8.074-10.593,8.074h-0.652c-4.295,0-9.939-3.881-9.939-8.074V42.467
				c1.023-4.94,6.494-7.797,10.183-7.792l0,0c4.295-0.005,9.896,2.929,11,7.984V580.714L27.262,580.714z"/>
		</defs>
		<clipPath id="SVGID_22_">
			<use xlink:href="#SVGID_21_"  overflow="visible"/>
		</clipPath>
		<rect x="-4.972" y="143.116" clip-path="url(#SVGID_22_)" fill="#B988C1" width="43.281" height="27.237"/>
	</g>
	<g>
		<defs>
			<path id="SVGID_23_" d="M27.262,580.714c0,3.713-5.957,8.074-10.593,8.074h-0.652c-4.295,0-9.939-3.881-9.939-8.074V42.467
				c1.023-4.94,6.494-7.797,10.183-7.792l0,0c4.295-0.005,9.896,2.929,11,7.984V580.714L27.262,580.714z"/>
		</defs>
		<clipPath id="SVGID_24_">
			<use xlink:href="#SVGID_23_"  overflow="visible"/>
		</clipPath>
		<rect x="-4.972" y="170.353" clip-path="url(#SVGID_24_)" fill="#D7A2CD" width="43.281" height="27.238"/>
	</g>
	<g>
		<defs>
			<path id="SVGID_25_" d="M27.262,580.714c0,3.713-5.957,8.074-10.593,8.074h-0.652c-4.295,0-9.939-3.881-9.939-8.074V42.467
				c1.023-4.94,6.494-7.797,10.183-7.792l0,0c4.295-0.005,9.896,2.929,11,7.984V580.714L27.262,580.714z"/>
		</defs>
		<clipPath id="SVGID_26_">
			<use xlink:href="#SVGID_25_"  overflow="visible"/>
		</clipPath>
		<rect x="-4.972" y="197.253" clip-path="url(#SVGID_26_)" fill="#E8BEDB" width="43.281" height="27.238"/>
	</g>
	<g>
		<defs>
			<path id="SVGID_27_" d="M27.262,580.714c0,3.713-5.957,8.074-10.593,8.074h-0.652c-4.295,0-9.939-3.881-9.939-8.074V42.467
				c1.023-4.94,6.494-7.797,10.183-7.792l0,0c4.295-0.005,9.896,2.929,11,7.984V580.714L27.262,580.714z"/>
		</defs>
		<clipPath id="SVGID_28_">
			<use xlink:href="#SVGID_27_"  overflow="visible"/>
		</clipPath>
		<rect x="-4.972" y="224.492" clip-path="url(#SVGID_28_)" fill="#E67D9B" width="43.281" height="27.238"/>
	</g>
	<g>
		<defs>
			<path id="SVGID_29_" d="M27.262,580.714c0,3.713-5.957,8.074-10.593,8.074h-0.652c-4.295,0-9.939-3.881-9.939-8.074V42.467
				c1.023-4.94,6.494-7.797,10.183-7.792l0,0c4.295-0.005,9.896,2.929,11,7.984V580.714L27.262,580.714z"/>
		</defs>
		<clipPath id="SVGID_30_">
			<use xlink:href="#SVGID_29_"  overflow="visible"/>
		</clipPath>
		<rect x="-4.972" y="251.73" clip-path="url(#SVGID_30_)" fill="#DB4C4D" width="43.281" height="27.236"/>
	</g>
	<g>
		<defs>
			<path id="SVGID_31_" d="M27.262,580.714c0,3.713-5.957,8.074-10.593,8.074h-0.652c-4.295,0-9.939-3.881-9.939-8.074V42.467
				c1.023-4.94,6.494-7.797,10.183-7.792l0,0c4.295-0.005,9.896,2.929,11,7.984V580.714L27.262,580.714z"/>
		</defs>
		<clipPath id="SVGID_32_">
			<use xlink:href="#SVGID_31_"  overflow="visible"/>
		</clipPath>
		<rect x="-4.972" y="278.966" clip-path="url(#SVGID_32_)" fill="#EF5A5C" width="43.281" height="27.238"/>
	</g>
	<g>
		<defs>
			<path id="SVGID_33_" d="M27.262,580.714c0,3.713-5.957,8.074-10.593,8.074h-0.652c-4.295,0-9.939-3.881-9.939-8.074V42.467
				c1.023-4.94,6.494-7.797,10.183-7.792l0,0c4.295-0.005,9.896,2.929,11,7.984V580.714L27.262,580.714z"/>
		</defs>
		<clipPath id="SVGID_34_">
			<use xlink:href="#SVGID_33_"  overflow="visible"/>
		</clipPath>
		<rect x="-4.972" y="305.872" clip-path="url(#SVGID_34_)" fill="#F7A25C" width="43.281" height="27.238"/>
	</g>
	<g>
		<defs>
			<path id="SVGID_35_" d="M27.262,580.714c0,3.713-5.957,8.074-10.593,8.074h-0.652c-4.295,0-9.939-3.881-9.939-8.074V42.467
				c1.023-4.94,6.494-7.797,10.183-7.792l0,0c4.295-0.005,9.896,2.929,11,7.984V580.714L27.262,580.714z"/>
		</defs>
		<clipPath id="SVGID_36_">
			<use xlink:href="#SVGID_35_"  overflow="visible"/>
		</clipPath>
		<rect x="-4.972" y="333.11" clip-path="url(#SVGID_36_)" fill="#FDD58F" width="43.281" height="27.238"/>
	</g>
	<g>
		<defs>
			<path id="SVGID_37_" d="M27.262,580.714c0,3.713-5.957,8.074-10.593,8.074h-0.652c-4.295,0-9.939-3.881-9.939-8.074V42.467
				c1.023-4.94,6.494-7.797,10.183-7.792l0,0c4.295-0.005,9.896,2.929,11,7.984V580.714L27.262,580.714z"/>
		</defs>
		<clipPath id="SVGID_38_">
			<use xlink:href="#SVGID_37_"  overflow="visible"/>
		</clipPath>
		<rect x="-4.972" y="360.349" clip-path="url(#SVGID_38_)" fill="#FFE173" width="43.281" height="27.238"/>
	</g>
	<g>
		<defs>
			<path id="SVGID_39_" d="M27.262,580.714c0,3.713-5.957,8.074-10.593,8.074h-0.652c-4.295,0-9.939-3.881-9.939-8.074V42.467
				c1.023-4.94,6.494-7.797,10.183-7.792l0,0c4.295-0.005,9.896,2.929,11,7.984V580.714L27.262,580.714z"/>
		</defs>
		<clipPath id="SVGID_40_">
			<use xlink:href="#SVGID_39_"  overflow="visible"/>
		</clipPath>
		<rect x="-4.972" y="387.587" clip-path="url(#SVGID_40_)" fill="#FEFE82" width="43.281" height="27.238"/>
	</g>
	<g>
		<defs>
			<path id="SVGID_41_" d="M27.262,580.714c0,3.713-5.957,8.074-10.593,8.074h-0.652c-4.295,0-9.939-3.881-9.939-8.074V42.467
				c1.023-4.94,6.494-7.797,10.183-7.792l0,0c4.295-0.005,9.896,2.929,11,7.984V580.714L27.262,580.714z"/>
		</defs>
		<clipPath id="SVGID_42_">
			<use xlink:href="#SVGID_41_"  overflow="visible"/>
		</clipPath>
		<rect x="-4.972" y="414.483" clip-path="url(#SVGID_42_)" fill="#FFFFC7" width="43.281" height="27.235"/>
	</g>
	<g>
		<defs>
			<path id="SVGID_43_" d="M27.262,580.714c0,3.713-5.957,8.074-10.593,8.074h-0.652c-4.295,0-9.939-3.881-9.939-8.074V42.467
				c1.023-4.94,6.494-7.797,10.183-7.792l0,0c4.295-0.005,9.896,2.929,11,7.984V580.714L27.262,580.714z"/>
		</defs>
		<clipPath id="SVGID_44_">
			<use xlink:href="#SVGID_43_"  overflow="visible"/>
		</clipPath>
		<rect x="-4.972" y="441.72" clip-path="url(#SVGID_44_)" fill="#F3F3A1" width="43.281" height="27.238"/>
	</g>
	<g>
		<defs>
			<path id="SVGID_45_" d="M27.262,580.714c0,3.713-5.957,8.074-10.593,8.074h-0.652c-4.295,0-9.939-3.881-9.939-8.074V42.467
				c1.023-4.94,6.494-7.797,10.183-7.792l0,0c4.295-0.005,9.896,2.929,11,7.984V580.714L27.262,580.714z"/>
		</defs>
		<clipPath id="SVGID_46_">
			<use xlink:href="#SVGID_45_"  overflow="visible"/>
		</clipPath>
		<rect x="-4.972" y="468.958" clip-path="url(#SVGID_46_)" fill="#D3ECA4" width="43.281" height="27.238"/>
	</g>
	<g>
		<defs>
			<path id="SVGID_47_" d="M27.262,580.714c0,3.713-5.957,8.074-10.593,8.074h-0.652c-4.295,0-9.939-3.881-9.939-8.074V42.467
				c1.023-4.94,6.494-7.797,10.183-7.792l0,0c4.295-0.005,9.896,2.929,11,7.984V580.714L27.262,580.714z"/>
		</defs>
		<clipPath id="SVGID_48_">
			<use xlink:href="#SVGID_47_"  overflow="visible"/>
		</clipPath>
		<rect x="-4.972" y="496.196" clip-path="url(#SVGID_48_)" fill="#C3E6D8" width="43.281" height="27.237"/>
	</g>
	<g>
		<defs>
			<path id="SVGID_49_" d="M27.262,580.714c0,3.713-5.957,8.074-10.593,8.074h-0.652c-4.295,0-9.939-3.881-9.939-8.074V42.467
				c1.023-4.94,6.494-7.797,10.183-7.792l0,0c4.295-0.005,9.896,2.929,11,7.984V580.714L27.262,580.714z"/>
		</defs>
		<clipPath id="SVGID_50_">
			<use xlink:href="#SVGID_49_"  overflow="visible"/>
		</clipPath>
		<rect x="-4.972" y="523.435" clip-path="url(#SVGID_50_)" fill="#C8E8F0" width="43.281" height="27.238"/>
	</g>
	<g>
		<defs>
			<path id="SVGID_51_" d="M27.262,580.714c0,3.713-5.957,8.074-10.593,8.074h-0.652c-4.295,0-9.939-3.881-9.939-8.074V42.467
				c1.023-4.94,6.494-7.797,10.183-7.792l0,0c4.295-0.005,9.896,2.929,11,7.984V580.714L27.262,580.714z"/>
		</defs>
		<clipPath id="SVGID_52_">
			<use xlink:href="#SVGID_51_"  overflow="visible"/>
		</clipPath>
		<rect x="-4.972" y="550.673" clip-path="url(#SVGID_52_)" fill="#D0EBF7" width="43.281" height="41.121"/>
	</g>
</g>
<g>
	<g display="none">
		<g display="inline">
			<defs>
				<path id="SVGID_53_" d="M27.052,580.983c-0.315,3.428-5.672,7.51-10.307,7.51l0,0c-4.594,0.367-10.877-3.316-10.877-7.51V42.738
					c1.021-4.94,6.492-7.798,10.182-7.792l0,0c4.298-0.006,9.896,2.929,11.002,7.984V580.983L27.052,580.983z"/>
			</defs>
			<clipPath id="SVGID_54_">
				<use xlink:href="#SVGID_53_"  overflow="visible"/>
			</clipPath>
			<rect x="0.671" y="494.032" clip-path="url(#SVGID_54_)" fill="#EC2426" width="31.578" height="99.045"/>
		</g>
		<g display="inline">
			<defs>
				<path id="SVGID_55_" d="M27.052,580.983c-0.315,3.428-5.672,7.51-10.307,7.51l0,0c-4.594,0.367-10.877-3.316-10.877-7.51V42.738
					c1.021-4.94,6.492-7.798,10.182-7.792l0,0c4.298-0.006,9.896,2.929,11.002,7.984V580.983L27.052,580.983z"/>
			</defs>
			<clipPath id="SVGID_56_">
				<use xlink:href="#SVGID_55_"  overflow="visible"/>
			</clipPath>
			<rect x="0.987" y="313.954" clip-path="url(#SVGID_56_)" fill="#FCFC1E" width="31.578" height="90.041"/>
		</g>
		<g display="inline">
			<defs>
				<path id="SVGID_57_" d="M27.052,580.983c-0.315,3.428-5.672,7.51-10.307,7.51l0,0c-4.594,0.367-10.877-3.316-10.877-7.51V42.738
					c1.021-4.94,6.492-7.798,10.182-7.792l0,0c4.298-0.006,9.896,2.929,11.002,7.984V580.983L27.052,580.983z"/>
			</defs>
			<clipPath id="SVGID_58_">
				<use xlink:href="#SVGID_57_"  overflow="visible"/>
			</clipPath>
			<rect x="0.987" y="223.914" clip-path="url(#SVGID_58_)" fill="#0B7F3F" width="31.578" height="90.038"/>
		</g>
		<g display="inline">
			<defs>
				<path id="SVGID_59_" d="M27.052,580.983c-0.315,3.428-5.672,7.51-10.307,7.51l0,0c-4.594,0.367-10.877-3.316-10.877-7.51V42.738
					c1.021-4.94,6.492-7.798,10.182-7.792l0,0c4.298-0.006,9.896,2.929,11.002,7.984V580.983L27.052,580.983z"/>
			</defs>
			<clipPath id="SVGID_60_">
				<use xlink:href="#SVGID_59_"  overflow="visible"/>
			</clipPath>
			<rect x="0.671" y="403.993" clip-path="url(#SVGID_60_)" fill="#F7A426" width="31.578" height="90.041"/>
		</g>
		<g display="inline">
			<defs>
				<path id="SVGID_61_" d="M27.052,580.983c-0.315,3.428-5.672,7.51-10.307,7.51l0,0c-4.594,0.367-10.877-3.316-10.877-7.51V42.738
					c1.021-4.94,6.492-7.798,10.182-7.792l0,0c4.298-0.006,9.896,2.929,11.002,7.984V580.983L27.052,580.983z"/>
			</defs>
			<clipPath id="SVGID_62_">
				<use xlink:href="#SVGID_61_"  overflow="visible"/>
			</clipPath>
			<rect x="0.987" y="133.862" clip-path="url(#SVGID_62_)" fill="#6FC9DC" width="31.578" height="90.04"/>
		</g>
		<g display="inline">
			<defs>
				<path id="SVGID_63_" d="M27.052,580.983c-0.315,3.428-5.672,7.51-10.307,7.51l0,0c-4.594,0.367-10.877-3.316-10.877-7.51V42.738
					c1.021-4.94,6.492-7.798,10.182-7.792l0,0c4.298-0.006,9.896,2.929,11.002,7.984V580.983L27.052,580.983z"/>
			</defs>
			<clipPath id="SVGID_64_">
				<use xlink:href="#SVGID_63_"  overflow="visible"/>
			</clipPath>
			<rect x="0.987" y="34.818" clip-path="url(#SVGID_64_)" fill="#3F57B0" width="31.578" height="99.043"/>
		</g>
	</g>
</g>
<circle fill="#3A332F" cx="16.46" cy="15.781" r="14.909"/>
<path fill="none" stroke="#3C3430" stroke-width="3" stroke-miterlimit="10" d="M27.052,580.983
	c-0.315,3.428-5.672,7.51-10.307,7.51l0,0c-4.593,0.367-10.877-3.316-10.877-7.51V42.736c1.022-4.94,6.492-7.798,10.182-7.792l0,0
	c4.298-0.006,9.896,2.929,11.002,7.984V580.983L27.052,580.983z"/>
<g>
	<path fill="#3C3530" d="M9.893,581.822c-0.44-0.233-0.783-0.559-1.03-0.976c-0.247-0.417-0.37-0.889-0.37-1.415
		c0-0.525,0.124-0.997,0.37-1.409c0.246-0.413,0.588-0.736,1.025-0.971c0.437-0.233,0.935-0.351,1.495-0.351
		c0.526,0,0.988,0.106,1.385,0.32s0.695,0.521,0.895,0.92l-0.96,0.561c-0.153-0.247-0.345-0.432-0.575-0.556
		c-0.23-0.123-0.482-0.186-0.755-0.186c-0.466,0-0.853,0.151-1.16,0.455c-0.307,0.303-0.46,0.708-0.46,1.215
		c0,0.508,0.151,0.912,0.455,1.216c0.303,0.304,0.691,0.455,1.165,0.455c0.273,0,0.525-0.063,0.755-0.186
		c0.23-0.124,0.421-0.309,0.575-0.556l0.96,0.561c-0.207,0.399-0.508,0.708-0.905,0.925c-0.397,0.218-0.855,0.325-1.375,0.325
		C10.83,582.173,10.333,582.056,9.893,581.822z"/>
	<path fill="#3C3530" d="M23.083,577.287c0.394,0.391,0.59,0.976,0.59,1.756v3.06h-1.25v-2.899c0-0.466-0.104-0.818-0.31-1.056
		c-0.207-0.235-0.504-0.354-0.891-0.354c-0.421,0-0.758,0.138-1.011,0.415c-0.254,0.276-0.38,0.671-0.38,1.185v2.71h-1.25v-2.899
		c0-0.466-0.104-0.818-0.311-1.055s-0.502-0.354-0.89-0.354c-0.427,0-0.765,0.137-1.015,0.409s-0.375,0.67-0.375,1.189v2.71h-1.25
		v-5.34h1.19v0.681c0.2-0.24,0.45-0.424,0.75-0.551s0.632-0.189,1-0.189c0.4,0,0.756,0.075,1.065,0.226
		c0.31,0.149,0.555,0.371,0.733,0.665c0.222-0.28,0.504-0.498,0.852-0.655c0.348-0.155,0.729-0.234,1.148-0.234
		C22.156,576.702,22.689,576.897,23.083,577.287z"/>
</g>
<g>
	<path fill="#3C3530" d="M13.073,562.384c-0.352-0.227-0.629-0.558-0.832-0.992c-0.203-0.434-0.304-0.949-0.304-1.548
		c0-0.598,0.101-1.112,0.304-1.548c0.203-0.435,0.48-0.766,0.832-0.992c0.352-0.227,0.752-0.34,1.2-0.34
		c0.448,0,0.849,0.113,1.204,0.34c0.354,0.228,0.633,0.559,0.836,0.992c0.203,0.435,0.304,0.95,0.304,1.548
		c0,0.599-0.102,1.113-0.304,1.548c-0.202,0.436-0.481,0.767-0.836,0.992c-0.355,0.228-0.756,0.34-1.204,0.34
		C13.826,562.724,13.425,562.61,13.073,562.384z M15.222,561.323c0.232-0.33,0.348-0.823,0.348-1.479
		c0-0.655-0.116-1.148-0.348-1.479c-0.232-0.33-0.548-0.496-0.948-0.496c-0.395,0-0.708,0.166-0.94,0.496
		c-0.232,0.331-0.348,0.824-0.348,1.479c0,0.656,0.116,1.149,0.348,1.479c0.232,0.331,0.545,0.496,0.94,0.496
		C14.673,561.819,14.989,561.654,15.222,561.323z"/>
	<path fill="#3C3530" d="M17.387,562.512c-0.13-0.125-0.193-0.284-0.193-0.477c0-0.197,0.063-0.356,0.188-0.479
		c0.126-0.123,0.281-0.185,0.469-0.185s0.342,0.062,0.469,0.185c0.125,0.123,0.188,0.282,0.188,0.479
		c0,0.192-0.063,0.352-0.191,0.477s-0.282,0.188-0.465,0.188C17.668,562.7,17.514,562.637,17.387,562.512z"/>
	<path fill="#3C3530" d="M20.993,557.044v5.6h-1.04v-4.728H18.77v-0.872H20.993L20.993,557.044z"/>
</g>
<g>
	<path fill="#3C3530" d="M9.447,539.201c-0.352-0.228-0.629-0.559-0.832-0.992c-0.203-0.434-0.304-0.95-0.304-1.548
		s0.101-1.113,0.304-1.548c0.203-0.436,0.48-0.767,0.832-0.992c0.352-0.228,0.752-0.34,1.2-0.34c0.448,0,0.849,0.112,1.204,0.34
		c0.354,0.227,0.633,0.558,0.836,0.992c0.203,0.434,0.304,0.95,0.304,1.548s-0.102,1.113-0.304,1.548s-0.481,0.766-0.836,0.992
		s-0.756,0.34-1.204,0.34C10.199,539.541,9.799,539.428,9.447,539.201z M11.595,538.141c0.232-0.33,0.348-0.822,0.348-1.479
		s-0.116-1.149-0.348-1.48c-0.232-0.33-0.548-0.495-0.948-0.495c-0.395,0-0.708,0.166-0.94,0.495
		c-0.232,0.331-0.348,0.824-0.348,1.48s0.116,1.148,0.348,1.479c0.232,0.331,0.545,0.496,0.94,0.496
		C11.047,538.637,11.363,538.472,11.595,538.141z"/>
	<path fill="#3C3530" d="M13.759,539.329c-0.128-0.125-0.192-0.284-0.192-0.478c0-0.196,0.063-0.355,0.188-0.479
		s0.281-0.185,0.468-0.185s0.343,0.062,0.468,0.185s0.188,0.282,0.188,0.479c0,0.192-0.064,0.353-0.192,0.478
		s-0.283,0.188-0.464,0.188C14.042,539.517,13.887,539.454,13.759,539.329z"/>
	<path fill="#3C3530" d="M19.688,538.581v0.88h-4.128v-0.696l2.224-2.11c0.252-0.24,0.42-0.449,0.508-0.628
		c0.088-0.18,0.133-0.356,0.133-0.532c0-0.262-0.088-0.462-0.264-0.602c-0.176-0.139-0.436-0.208-0.777-0.208
		c-0.57,0-1.007,0.195-1.311,0.584l-0.728-0.56c0.219-0.293,0.513-0.521,0.884-0.684s0.786-0.244,1.245-0.244
		c0.607,0,1.092,0.144,1.455,0.432s0.545,0.68,0.545,1.176c0,0.306-0.063,0.591-0.193,0.856c-0.127,0.267-0.372,0.57-0.735,0.912
		l-1.495,1.424H19.688z"/>
	<path fill="#3C3530" d="M23.792,536.489c0.378,0.307,0.567,0.724,0.567,1.252c0,0.336-0.084,0.64-0.248,0.912
		c-0.166,0.271-0.413,0.486-0.744,0.646c-0.33,0.16-0.738,0.24-1.225,0.24c-0.399,0-0.787-0.058-1.16-0.172
		c-0.373-0.115-0.688-0.273-0.943-0.478l0.439-0.808c0.209,0.171,0.457,0.306,0.748,0.404c0.291,0.098,0.592,0.146,0.9,0.146
		c0.367,0,0.657-0.076,0.867-0.228c0.211-0.152,0.316-0.361,0.316-0.628c0-0.288-0.113-0.506-0.34-0.652
		c-0.228-0.146-0.615-0.22-1.164-0.22h-1.354l0.288-3.048h3.288v0.872h-2.407l-0.12,1.296h0.535
		C22.829,536.029,23.413,536.183,23.792,536.489z"/>
</g>
<g>
	<path fill="#3C3530" d="M11.814,510.991c-0.352-0.228-0.629-0.559-0.832-0.992s-0.304-0.95-0.304-1.548
		c0-0.599,0.101-1.113,0.304-1.548c0.203-0.436,0.48-0.767,0.832-0.992c0.352-0.228,0.752-0.34,1.2-0.34
		c0.448,0,0.849,0.112,1.204,0.34c0.354,0.227,0.633,0.558,0.836,0.992c0.203,0.434,0.304,0.949,0.304,1.548
		c0,0.598-0.102,1.113-0.304,1.548c-0.202,0.435-0.481,0.766-0.836,0.992c-0.355,0.227-0.756,0.34-1.204,0.34
		C12.566,511.331,12.166,511.218,11.814,510.991z M13.962,509.931c0.232-0.33,0.348-0.822,0.348-1.479s-0.116-1.149-0.348-1.48
		c-0.232-0.33-0.548-0.496-0.948-0.496c-0.395,0-0.708,0.166-0.94,0.496c-0.232,0.331-0.348,0.824-0.348,1.48
		s0.116,1.148,0.348,1.479c0.232,0.331,0.545,0.496,0.94,0.496C13.414,510.427,13.73,510.262,13.962,509.931z"/>
	<path fill="#3C3530" d="M16.126,511.119c-0.128-0.125-0.192-0.284-0.192-0.478c0-0.196,0.063-0.355,0.188-0.479
		s0.281-0.186,0.468-0.186s0.342,0.063,0.467,0.186c0.127,0.123,0.188,0.282,0.188,0.479c0,0.192-0.063,0.353-0.192,0.478
		c-0.127,0.125-0.282,0.188-0.463,0.188C16.408,511.307,16.254,511.244,16.126,511.119z"/>
	<path fill="#3C3530" d="M21.423,508.279c0.377,0.307,0.565,0.724,0.565,1.252c0,0.336-0.081,0.64-0.247,0.912
		c-0.164,0.271-0.412,0.486-0.744,0.646c-0.33,0.16-0.738,0.24-1.224,0.24c-0.399,0-0.787-0.058-1.16-0.172
		c-0.373-0.115-0.688-0.273-0.944-0.478l0.44-0.808c0.207,0.171,0.457,0.306,0.748,0.404c0.291,0.098,0.591,0.146,0.9,0.146
		c0.367,0,0.656-0.076,0.867-0.228c0.211-0.152,0.316-0.361,0.316-0.628c0-0.288-0.113-0.507-0.34-0.652
		c-0.228-0.146-0.615-0.22-1.164-0.22h-1.354l0.289-3.049h3.287v0.873h-2.406l-0.121,1.296h0.535
		C20.46,507.819,21.044,507.973,21.423,508.279z"/>
</g>
<g>
	<path fill="#3C3530" d="M17.046,479.515v5.601h-1.04v-4.729h-1.184v-0.872H17.046z"/>
</g>
<g>
	<path fill="#3C3530" d="M13.735,451.828v5.6h-1.04V452.7h-1.184v-0.872H13.735z"/>
	<path fill="#3C3530" d="M15.007,457.296c-0.128-0.125-0.192-0.284-0.192-0.477c0-0.197,0.063-0.356,0.188-0.479
		s0.281-0.185,0.468-0.185s0.343,0.062,0.468,0.185s0.188,0.282,0.188,0.479c0,0.191-0.064,0.352-0.192,0.477
		s-0.283,0.188-0.464,0.188C15.289,457.483,15.135,457.421,15.007,457.296z"/>
	<path fill="#3C3530" d="M20.303,454.456c0.379,0.307,0.567,0.724,0.567,1.252c0,0.336-0.083,0.64-0.248,0.912
		c-0.165,0.271-0.413,0.487-0.744,0.646c-0.33,0.16-0.737,0.24-1.224,0.24c-0.4,0-0.787-0.058-1.16-0.172
		c-0.373-0.115-0.688-0.273-0.944-0.477l0.44-0.809c0.208,0.171,0.457,0.307,0.748,0.404s0.591,0.146,0.9,0.146
		c0.366,0,0.656-0.075,0.866-0.228c0.211-0.152,0.315-0.361,0.315-0.628c0-0.288-0.112-0.506-0.34-0.652
		c-0.227-0.146-0.614-0.22-1.164-0.22h-1.353l0.289-3.048h3.287v0.872h-2.407l-0.119,1.296h0.534
		C19.34,453.996,19.924,454.149,20.303,454.456z"/>
</g>
<g>
	<path fill="#3C3530" d="M18.54,429.688v0.88h-4.128v-0.696l2.224-2.111c0.25-0.24,0.418-0.449,0.506-0.628s0.133-0.355,0.133-0.532
		c0-0.262-0.088-0.462-0.264-0.601s-0.435-0.208-0.776-0.208c-0.571,0-1.008,0.195-1.312,0.584l-0.728-0.56
		c0.219-0.294,0.513-0.521,0.884-0.685s0.785-0.244,1.244-0.244c0.607,0,1.093,0.145,1.455,0.433
		c0.363,0.288,0.546,0.68,0.546,1.176c0,0.305-0.065,0.59-0.194,0.855c-0.127,0.268-0.373,0.57-0.736,0.912l-1.495,1.425H18.54z"/>
</g>
<g>
	<path fill="#3C3530" d="M15.398,401.229v0.881H11.27v-0.696l2.224-2.111c0.25-0.239,0.42-0.448,0.508-0.628
		c0.088-0.179,0.132-0.355,0.132-0.531c0-0.263-0.088-0.463-0.264-0.602c-0.176-0.139-0.435-0.208-0.776-0.208
		c-0.571,0-1.008,0.194-1.312,0.584l-0.728-0.56c0.219-0.293,0.513-0.521,0.884-0.685s0.785-0.243,1.244-0.243
		c0.608,0,1.093,0.144,1.456,0.432c0.363,0.287,0.544,0.68,0.544,1.176c0,0.305-0.064,0.59-0.192,0.855
		c-0.128,0.267-0.374,0.57-0.736,0.912l-1.496,1.424H15.398z"/>
	<path fill="#3C3530" d="M16.238,401.979c-0.128-0.125-0.192-0.285-0.192-0.478c0-0.196,0.063-0.356,0.188-0.479
		s0.281-0.185,0.468-0.185c0.187,0,0.343,0.062,0.468,0.185s0.188,0.283,0.188,0.479c0,0.192-0.063,0.353-0.191,0.478
		c-0.128,0.125-0.283,0.188-0.464,0.188C16.521,402.166,16.366,402.104,16.238,401.979z"/>
	<path fill="#3C3530" d="M21.534,399.14c0.379,0.307,0.567,0.724,0.567,1.252c0,0.336-0.084,0.64-0.248,0.911
		c-0.166,0.271-0.414,0.487-0.744,0.647s-0.737,0.24-1.225,0.24c-0.4,0-0.787-0.059-1.16-0.172
		c-0.373-0.115-0.687-0.273-0.943-0.478l0.439-0.808c0.209,0.17,0.457,0.306,0.748,0.403c0.291,0.099,0.592,0.147,0.9,0.147
		c0.367,0,0.658-0.076,0.867-0.229c0.211-0.152,0.315-0.361,0.315-0.628c0-0.288-0.112-0.506-0.34-0.651
		c-0.228-0.146-0.614-0.221-1.164-0.221h-1.353l0.289-3.048h3.289v0.872h-2.408l-0.119,1.296h0.535
		C20.57,398.679,21.154,398.832,21.534,399.14z"/>
</g>
<g>
	<path fill="#3C3530" d="M18.051,373.42c0.273,0.288,0.408,0.647,0.408,1.08c0,0.325-0.082,0.621-0.248,0.888
		c-0.164,0.268-0.414,0.479-0.748,0.637c-0.333,0.156-0.74,0.235-1.22,0.235c-0.4,0-0.785-0.058-1.156-0.172
		s-0.687-0.272-0.948-0.478l0.448-0.808c0.203,0.171,0.449,0.306,0.74,0.404s0.591,0.147,0.9,0.147c0.368,0,0.657-0.076,0.869-0.229
		c0.211-0.152,0.315-0.357,0.315-0.62c0-0.262-0.103-0.466-0.302-0.612c-0.199-0.146-0.504-0.22-0.916-0.22h-0.512v-0.712
		l1.272-1.512H14.41v-0.872h3.814v0.694l-1.358,1.617C17.385,372.956,17.779,373.132,18.051,373.42z"/>
</g>
<g>
	<path fill="#3C3530" d="M18.911,348.875h-0.993v1.272H16.91v-1.272h-3.072v-0.72l2.76-3.607h1.111l-2.599,3.447h1.832v-1.128h0.978
		v1.128h0.993L18.911,348.875L18.911,348.875z"/>
</g>
<g>
	<path fill="#3C3530" d="M18.191,319.106c0.375,0.308,0.565,0.725,0.565,1.252c0,0.336-0.082,0.641-0.248,0.912
		c-0.163,0.271-0.411,0.487-0.743,0.647c-0.33,0.16-0.738,0.24-1.224,0.24c-0.4,0-0.787-0.058-1.16-0.173
		c-0.373-0.114-0.688-0.272-0.944-0.477l0.44-0.808c0.208,0.171,0.458,0.306,0.748,0.403c0.29,0.099,0.591,0.147,0.9,0.147
		c0.369,0,0.658-0.076,0.869-0.228c0.211-0.152,0.315-0.361,0.315-0.629c0-0.287-0.112-0.506-0.34-0.651s-0.615-0.22-1.165-0.22
		h-1.352l0.288-3.049h3.287v0.873h-2.407l-0.12,1.295h0.536C17.227,318.647,17.813,318.801,18.191,319.106z"/>
</g>
<g>
	<path fill="#3C3530" d="M15.493,289.879v0.695l-2.176,4.904h-1.112l2.104-4.72h-2.2v0.952h-0.968v-1.832L15.493,289.879
		L15.493,289.879z"/>
	<path fill="#3C3530" d="M15.893,295.347c-0.128-0.125-0.192-0.284-0.192-0.477c0-0.197,0.063-0.356,0.188-0.479
		s0.281-0.185,0.468-0.185s0.343,0.062,0.468,0.185s0.188,0.282,0.188,0.479c0,0.192-0.064,0.352-0.193,0.477
		c-0.128,0.125-0.283,0.188-0.464,0.188C16.175,295.534,16.021,295.472,15.893,295.347z"/>
	<path fill="#3C3530" d="M21.189,292.507c0.377,0.307,0.566,0.724,0.566,1.252c0,0.336-0.083,0.64-0.248,0.912
		c-0.165,0.271-0.412,0.487-0.744,0.647c-0.33,0.16-0.738,0.24-1.224,0.24c-0.399,0-0.787-0.058-1.16-0.172
		c-0.373-0.115-0.688-0.273-0.944-0.477l0.44-0.808c0.208,0.171,0.457,0.306,0.748,0.404c0.291,0.098,0.591,0.147,0.899,0.147
		c0.367,0,0.658-0.076,0.867-0.228c0.211-0.152,0.316-0.361,0.316-0.628c0-0.288-0.113-0.506-0.34-0.652s-0.615-0.22-1.164-0.22
		H17.85l0.289-3.048h3.287v0.872H19.02l-0.121,1.296h0.535C20.227,292.047,20.811,292.2,21.189,292.507z"/>
</g>
<g>
	<path fill="#3C3530" d="M14.354,262.482v5.6h-1.04v-4.728H12.13v-0.872H14.354z"/>
	<path fill="#3C3530" d="M16.602,267.822c-0.352-0.228-0.629-0.558-0.832-0.992s-0.304-0.95-0.304-1.548
		c0-0.598,0.101-1.113,0.304-1.548s0.48-0.766,0.832-0.992c0.352-0.226,0.751-0.34,1.201-0.34c0.447,0,0.848,0.113,1.204,0.34
		c0.356,0.227,0.634,0.558,0.836,0.992c0.203,0.434,0.306,0.95,0.306,1.548c0,0.598-0.103,1.113-0.306,1.548
		c-0.202,0.435-0.479,0.766-0.836,0.992c-0.356,0.226-0.756,0.34-1.204,0.34C17.354,268.162,16.954,268.048,16.602,267.822z
		 M18.751,266.761c0.231-0.33,0.349-0.823,0.349-1.479c0-0.656-0.115-1.149-0.349-1.48c-0.231-0.33-0.549-0.496-0.948-0.496
		c-0.396,0-0.709,0.166-0.941,0.496c-0.231,0.331-0.348,0.824-0.348,1.48c0,0.656,0.116,1.149,0.348,1.479
		c0.232,0.331,0.545,0.496,0.941,0.496C18.202,267.257,18.52,267.092,18.751,266.761z"/>
</g>
<g>
	<path fill="#3C3530" d="M14.71,234.283v5.6h-1.04v-4.728h-1.184v-0.872H14.71z"/>
	<path fill="#3C3530" d="M19.327,236.911c0.377,0.307,0.565,0.724,0.565,1.252c0,0.336-0.082,0.64-0.248,0.912
		c-0.164,0.271-0.412,0.487-0.744,0.647c-0.33,0.16-0.737,0.24-1.223,0.24c-0.4,0-0.787-0.058-1.16-0.172
		c-0.373-0.115-0.688-0.273-0.944-0.477l0.44-0.808c0.208,0.171,0.458,0.306,0.748,0.404c0.291,0.099,0.591,0.147,0.9,0.147
		c0.367,0,0.656-0.076,0.867-0.228c0.212-0.152,0.316-0.361,0.316-0.628c0-0.288-0.113-0.506-0.34-0.652s-0.615-0.22-1.165-0.22
		H15.99l0.288-3.048h3.287v0.872h-2.406l-0.121,1.296h0.536C18.363,236.451,18.948,236.604,19.327,236.911z"/>
</g>
<g>
	<path fill="#3C3530" d="M15.682,212.078v0.88h-4.128v-0.696l2.224-2.111c0.25-0.24,0.42-0.449,0.508-0.628s0.132-0.356,0.132-0.532
		c0-0.262-0.088-0.462-0.264-0.601c-0.176-0.139-0.435-0.208-0.776-0.208c-0.571,0-1.008,0.195-1.312,0.584l-0.728-0.56
		c0.219-0.293,0.513-0.521,0.884-0.684c0.371-0.163,0.785-0.244,1.244-0.244c0.608,0,1.093,0.144,1.456,0.432
		c0.363,0.288,0.544,0.68,0.544,1.176c0,0.305-0.064,0.59-0.192,0.856c-0.128,0.266-0.374,0.57-0.736,0.912l-1.496,1.424H15.682z"/>
	<path fill="#3C3530" d="M17.395,212.698c-0.354-0.227-0.629-0.558-0.833-0.992s-0.304-0.95-0.304-1.548
		c0-0.598,0.101-1.113,0.304-1.548s0.479-0.766,0.833-0.992c0.353-0.227,0.752-0.34,1.199-0.34s0.85,0.113,1.203,0.34
		c0.355,0.227,0.635,0.558,0.836,0.992c0.203,0.435,0.305,0.95,0.305,1.548c0,0.598-0.102,1.113-0.305,1.548
		c-0.201,0.435-0.48,0.766-0.836,0.992c-0.354,0.227-0.756,0.34-1.203,0.34S17.746,212.924,17.395,212.698z M19.541,211.637
		c0.232-0.33,0.35-0.823,0.35-1.479c0-0.656-0.117-1.149-0.35-1.48c-0.23-0.33-0.547-0.496-0.947-0.496
		c-0.395,0-0.707,0.166-0.939,0.496c-0.231,0.331-0.348,0.824-0.348,1.48c0,0.656,0.115,1.149,0.348,1.479
		c0.232,0.331,0.546,0.496,0.939,0.496C18.994,212.133,19.311,211.968,19.541,211.637z"/>
</g>
<g>
	<path fill="#3C3530" d="M16.413,184.598v0.88h-4.128v-0.696l2.224-2.111c0.25-0.24,0.42-0.449,0.508-0.628
		c0.088-0.179,0.132-0.356,0.132-0.532c0-0.262-0.088-0.462-0.264-0.601c-0.176-0.139-0.435-0.208-0.776-0.208
		c-0.571,0-1.008,0.195-1.312,0.584l-0.728-0.56c0.219-0.293,0.513-0.521,0.884-0.684s0.785-0.244,1.244-0.244
		c0.608,0,1.093,0.144,1.456,0.432c0.363,0.288,0.544,0.68,0.544,1.176c0,0.305-0.064,0.59-0.192,0.856
		c-0.128,0.266-0.374,0.57-0.736,0.912l-1.496,1.424H16.413z"/>
	<path fill="#3C3530" d="M20.518,182.506c0.377,0.307,0.566,0.724,0.566,1.252c0,0.336-0.083,0.64-0.248,0.912
		c-0.165,0.271-0.413,0.487-0.744,0.647c-0.33,0.16-0.738,0.24-1.224,0.24c-0.4,0-0.787-0.058-1.16-0.172
		c-0.373-0.115-0.688-0.273-0.944-0.477l0.44-0.808c0.208,0.171,0.457,0.306,0.748,0.404c0.291,0.098,0.591,0.147,0.899,0.147
		c0.367,0,0.657-0.076,0.867-0.228c0.211-0.152,0.316-0.361,0.316-0.628c0-0.288-0.113-0.506-0.34-0.652
		c-0.228-0.146-0.615-0.22-1.164-0.22H17.18l0.289-3.048h3.287v0.872H18.35l-0.121,1.296h0.535
		C19.555,182.046,20.139,182.2,20.518,182.506z"/>
</g>
<g>
	<path fill="#3C3530" d="M15.181,155.445c0.272,0.288,0.408,0.647,0.408,1.08c0,0.325-0.083,0.621-0.248,0.888
		c-0.166,0.267-0.415,0.479-0.748,0.636c-0.333,0.157-0.74,0.236-1.22,0.236c-0.4,0-0.785-0.058-1.156-0.172
		c-0.371-0.115-0.687-0.273-0.948-0.478l0.448-0.808c0.203,0.171,0.449,0.306,0.74,0.404c0.291,0.099,0.591,0.147,0.9,0.147
		c0.368,0,0.657-0.076,0.868-0.228s0.316-0.358,0.316-0.62c0-0.262-0.1-0.466-0.3-0.612c-0.2-0.146-0.505-0.22-0.916-0.22h-0.512
		v-0.712l1.272-1.512h-2.544v-0.872h3.816v0.695l-1.36,1.616C14.515,154.981,14.909,155.157,15.181,155.445z"/>
	<path fill="#3C3530" d="M17.406,157.945c-0.354-0.227-0.63-0.558-0.833-0.992c-0.203-0.434-0.304-0.95-0.304-1.548
		c0-0.598,0.101-1.113,0.304-1.548c0.203-0.435,0.479-0.766,0.833-0.992c0.352-0.227,0.752-0.34,1.199-0.34
		c0.446,0,0.85,0.113,1.203,0.34c0.354,0.227,0.635,0.558,0.836,0.992c0.203,0.435,0.305,0.95,0.305,1.548
		c0,0.598-0.102,1.113-0.305,1.548c-0.201,0.435-0.48,0.766-0.836,0.992c-0.354,0.227-0.757,0.34-1.203,0.34
		C18.158,158.285,17.757,158.172,17.406,157.945z M19.552,156.885c0.232-0.33,0.351-0.823,0.351-1.479
		c0-0.656-0.117-1.149-0.351-1.48c-0.229-0.33-0.547-0.496-0.946-0.496c-0.395,0-0.707,0.166-0.939,0.496
		c-0.232,0.331-0.348,0.824-0.348,1.48c0,0.656,0.115,1.149,0.348,1.479c0.232,0.331,0.545,0.496,0.939,0.496
		C19.005,157.381,19.32,157.216,19.552,156.885z"/>
</g>
<g>
	<path fill="#3C3530" d="M16.605,132.14h-0.992v1.272h-1.008v-1.272h-3.072v-0.72l2.76-3.607h1.112l-2.6,3.447h1.832v-1.128h0.976
		v1.128h0.992V132.14z"/>
	<path fill="#3C3530" d="M18.182,133.153c-0.354-0.227-0.631-0.558-0.834-0.992c-0.201-0.435-0.303-0.95-0.303-1.548
		c0-0.598,0.102-1.113,0.303-1.548c0.203-0.435,0.48-0.766,0.834-0.992c0.351-0.227,0.75-0.34,1.2-0.34
		c0.447,0,0.849,0.113,1.203,0.34c0.354,0.227,0.633,0.558,0.836,0.992s0.306,0.95,0.306,1.548c0,0.598-0.103,1.113-0.306,1.548
		s-0.479,0.766-0.836,0.992s-0.756,0.34-1.203,0.34C18.934,133.493,18.532,133.379,18.182,133.153z M20.329,132.092
		c0.231-0.33,0.348-0.823,0.348-1.479c0-0.656-0.114-1.149-0.348-1.48c-0.231-0.33-0.55-0.496-0.947-0.496
		c-0.396,0-0.709,0.166-0.94,0.496c-0.232,0.331-0.348,0.824-0.348,1.48c0,0.656,0.115,1.149,0.348,1.479
		c0.231,0.331,0.545,0.496,0.94,0.496C19.779,132.588,20.098,132.423,20.329,132.092z"/>
</g>
<g>
	<path fill="#3C3530" d="M15.288,101.308c0.379,0.307,0.568,0.724,0.568,1.252c0,0.336-0.083,0.64-0.248,0.912
		c-0.165,0.271-0.413,0.487-0.744,0.647c-0.331,0.16-0.739,0.24-1.224,0.24c-0.4,0-0.787-0.058-1.16-0.172
		c-0.373-0.115-0.688-0.273-0.944-0.477l0.44-0.808c0.208,0.171,0.458,0.306,0.748,0.404c0.29,0.098,0.591,0.147,0.9,0.147
		c0.368,0,0.657-0.076,0.868-0.228c0.21-0.152,0.316-0.361,0.316-0.628c0-0.288-0.113-0.506-0.34-0.652
		c-0.227-0.146-0.615-0.22-1.164-0.22h-1.352l0.288-3.048h3.288v0.872H13.12L13,100.848h0.536
		C14.325,100.848,14.909,101.001,15.288,101.308z"/>
	<path fill="#3C3530" d="M17.592,104.02c-0.354-0.227-0.63-0.558-0.833-0.992c-0.203-0.434-0.304-0.95-0.304-1.548
		s0.101-1.113,0.304-1.548c0.203-0.435,0.479-0.766,0.833-0.992c0.352-0.227,0.752-0.34,1.2-0.34c0.446,0,0.849,0.113,1.203,0.34
		s0.634,0.558,0.836,0.992c0.203,0.435,0.306,0.95,0.306,1.548s-0.103,1.113-0.306,1.548c-0.202,0.435-0.479,0.766-0.836,0.992
		c-0.354,0.227-0.757,0.34-1.203,0.34C18.344,104.36,17.943,104.247,17.592,104.02z M19.738,102.959
		c0.232-0.33,0.35-0.823,0.35-1.479s-0.115-1.149-0.35-1.48c-0.23-0.33-0.547-0.496-0.946-0.496c-0.396,0-0.708,0.166-0.94,0.496
		c-0.231,0.331-0.348,0.824-0.348,1.48s0.115,1.149,0.348,1.479c0.232,0.331,0.545,0.496,0.94,0.496
		C19.191,103.456,19.508,103.291,19.738,102.959z"/>
</g>
<g>
	<path fill="#3C3530" d="M15.147,75.209c0.293,0.142,0.522,0.343,0.688,0.604c0.165,0.261,0.248,0.563,0.248,0.903
		c0,0.363-0.091,0.682-0.272,0.956c-0.181,0.275-0.426,0.487-0.736,0.637c-0.309,0.148-0.656,0.224-1.04,0.224
		c-0.768,0-1.364-0.24-1.788-0.72s-0.636-1.168-0.636-2.064c0-0.629,0.115-1.167,0.344-1.612c0.229-0.445,0.551-0.783,0.964-1.016
		c0.413-0.232,0.892-0.348,1.436-0.348c0.288,0,0.559,0.03,0.812,0.092c0.253,0.062,0.473,0.15,0.66,0.268l-0.384,0.784
		c-0.277-0.181-0.632-0.271-1.064-0.271c-0.539,0-0.96,0.165-1.264,0.496c-0.304,0.33-0.456,0.808-0.456,1.432v0.008
		c0.166-0.192,0.376-0.337,0.632-0.436s0.544-0.148,0.864-0.148C14.523,74.997,14.854,75.068,15.147,75.209z M14.771,77.457
		c0.203-0.173,0.304-0.404,0.304-0.692c0-0.293-0.101-0.524-0.304-0.695c-0.203-0.171-0.475-0.256-0.816-0.256
		c-0.336,0-0.609,0.091-0.82,0.271c-0.211,0.182-0.316,0.411-0.316,0.688c0,0.271,0.103,0.497,0.308,0.676
		c0.205,0.179,0.489,0.268,0.852,0.268C14.305,77.717,14.568,77.631,14.771,77.457z"/>
	<path fill="#3C3530" d="M17.764,78.193c-0.353-0.227-0.63-0.558-0.832-0.992c-0.204-0.435-0.305-0.95-0.305-1.548
		c0-0.598,0.101-1.113,0.305-1.548c0.202-0.435,0.479-0.766,0.832-0.992c0.352-0.226,0.75-0.34,1.2-0.34
		c0.447,0,0.849,0.113,1.203,0.34c0.354,0.227,0.633,0.558,0.836,0.992s0.306,0.95,0.306,1.548c0,0.598-0.103,1.113-0.306,1.548
		c-0.203,0.435-0.479,0.766-0.836,0.992s-0.756,0.34-1.203,0.34C18.516,78.533,18.115,78.42,17.764,78.193z M19.911,77.133
		c0.231-0.33,0.348-0.823,0.348-1.479c0-0.656-0.114-1.149-0.348-1.48c-0.231-0.33-0.55-0.496-0.947-0.496
		c-0.396,0-0.708,0.166-0.94,0.496c-0.232,0.331-0.349,0.824-0.349,1.48c0,0.656,0.115,1.149,0.349,1.479
		c0.231,0.331,0.543,0.496,0.94,0.496S19.68,77.464,19.911,77.133z"/>
</g>
<g>
	<path fill="#3C3530" d="M15.642,50.636c0.157,0.227,0.236,0.492,0.236,0.796c0,0.342-0.095,0.641-0.284,0.896
		c-0.189,0.256-0.457,0.452-0.804,0.588s-0.75,0.204-1.208,0.204c-0.459,0-0.86-0.068-1.204-0.204
		c-0.344-0.136-0.609-0.332-0.796-0.588s-0.28-0.555-0.28-0.896c0-0.304,0.078-0.569,0.232-0.796
		c0.155-0.227,0.376-0.406,0.664-0.54c-0.224-0.122-0.396-0.283-0.516-0.483c-0.12-0.2-0.18-0.431-0.18-0.692
		c0-0.314,0.086-0.589,0.26-0.824c0.173-0.234,0.417-0.416,0.732-0.544c0.314-0.128,0.677-0.191,1.088-0.191
		c0.416,0,0.781,0.063,1.096,0.191c0.315,0.128,0.56,0.31,0.736,0.544c0.176,0.235,0.264,0.51,0.264,0.824
		c0,0.262-0.061,0.491-0.184,0.688c-0.123,0.197-0.299,0.359-0.528,0.487C15.259,50.23,15.484,50.41,15.642,50.636z M14.494,52.065
		c0.224-0.16,0.336-0.382,0.336-0.664c0-0.277-0.112-0.496-0.336-0.656c-0.224-0.16-0.528-0.24-0.912-0.24s-0.686,0.08-0.904,0.24
		c-0.218,0.16-0.328,0.379-0.328,0.656c0,0.282,0.109,0.504,0.328,0.664c0.219,0.159,0.52,0.239,0.904,0.239
		C13.965,52.304,14.27,52.224,14.494,52.065z M12.81,48.384c-0.189,0.139-0.284,0.334-0.284,0.584c0,0.24,0.095,0.431,0.284,0.572
		c0.189,0.142,0.446,0.212,0.772,0.212c0.331,0,0.592-0.07,0.784-0.212c0.192-0.142,0.288-0.332,0.288-0.572
		c0-0.25-0.097-0.445-0.292-0.584c-0.195-0.139-0.455-0.208-0.78-0.208C13.256,48.176,12.999,48.246,12.81,48.384z"/>
	<path fill="#3C3530" d="M17.686,52.781c-0.353-0.227-0.629-0.558-0.833-0.992c-0.203-0.435-0.304-0.95-0.304-1.548
		c0-0.598,0.101-1.113,0.304-1.548c0.204-0.435,0.48-0.766,0.833-0.992c0.352-0.226,0.75-0.34,1.201-0.34
		c0.446,0,0.848,0.113,1.202,0.34c0.354,0.227,0.634,0.558,0.836,0.992c0.203,0.434,0.306,0.95,0.306,1.548
		c0,0.598-0.103,1.113-0.306,1.548c-0.202,0.435-0.479,0.766-0.836,0.992c-0.356,0.226-0.756,0.34-1.202,0.34
		C18.438,53.121,18.037,53.007,17.686,52.781z M19.833,51.72c0.231-0.33,0.349-0.823,0.349-1.479c0-0.656-0.115-1.149-0.349-1.48
		c-0.231-0.33-0.549-0.496-0.946-0.496c-0.396,0-0.709,0.166-0.941,0.496c-0.232,0.331-0.348,0.824-0.348,1.48
		c0,0.656,0.114,1.149,0.348,1.479c0.231,0.331,0.543,0.496,0.941,0.496C19.284,52.216,19.602,52.051,19.833,51.72z"/>
</g>
<g>
	<path fill="#FFFFFF" d="M19.619,14.498l2.15-1.242l3.53,0.946c0.268,0.07,0.555-0.094,0.627-0.362
		c0.073-0.273-0.089-0.554-0.362-0.628l-2.539-0.681l1.884-1.089c0.247-0.141,0.329-0.454,0.188-0.7s-0.455-0.329-0.7-0.187
		l-1.884,1.088l0.68-2.536c0.074-0.273-0.088-0.554-0.361-0.628c-0.274-0.07-0.555,0.09-0.629,0.362l-0.944,3.527l-2.153,1.243
		l-2.22-1.282V9.843l2.583-2.582c0.201-0.2,0.201-0.525,0-0.725c-0.2-0.2-0.523-0.2-0.724,0l-1.858,1.857V6.215
		c0-0.284-0.229-0.512-0.512-0.512c-0.283,0-0.513,0.23-0.513,0.512v2.179l-1.858-1.858c-0.2-0.2-0.524-0.2-0.725,0
		c-0.201,0.2-0.2,0.524,0,0.725l2.583,2.583v2.485l-2.22,1.282l-2.152-1.243l-0.946-3.527c-0.073-0.272-0.353-0.433-0.628-0.361
		C9.641,8.552,9.479,8.832,9.552,9.106l0.68,2.536l-1.883-1.088c-0.246-0.142-0.56-0.058-0.701,0.187
		c-0.142,0.246-0.058,0.559,0.187,0.7l1.885,1.089L7.182,13.21c-0.273,0.074-0.436,0.355-0.363,0.628
		c0.071,0.265,0.357,0.433,0.628,0.362l3.529-0.946l2.151,1.242v2.565l-2.151,1.243l-3.529-0.946
		c-0.274-0.072-0.555,0.09-0.628,0.363c-0.073,0.273,0.089,0.554,0.363,0.627l2.539,0.681l-1.885,1.089
		c-0.246,0.142-0.329,0.455-0.187,0.7c0.137,0.236,0.456,0.328,0.7,0.187l1.883-1.088l-0.68,2.537
		c-0.074,0.273,0.089,0.555,0.363,0.628c0.27,0.072,0.556-0.093,0.627-0.363l0.945-3.528l2.152-1.243l2.221,1.282v2.485L13.277,24.3
		c-0.2,0.2-0.2,0.525,0,0.724c0.194,0.194,0.525,0.2,0.725,0l1.858-1.857v2.179c0,0.283,0.229,0.513,0.513,0.513
		c0.283,0,0.512-0.23,0.512-0.513v-2.179l1.858,1.857c0.197,0.198,0.526,0.198,0.724,0c0.201-0.2,0.201-0.524,0-0.724l-2.583-2.583
		v-2.485l2.221-1.282l2.152,1.243c0,0,0.944,3.524,0.944,3.528c0.073,0.268,0.361,0.434,0.629,0.362
		c0.273-0.074,0.436-0.354,0.361-0.628l-0.68-2.537c0,0,1.884,1.087,1.884,1.088c0.235,0.136,0.56,0.055,0.7-0.187
		c0.141-0.245,0.059-0.559-0.188-0.7l-1.886-1.089l2.54-0.681c0.273-0.073,0.436-0.354,0.361-0.628
		c-0.073-0.273-0.351-0.436-0.626-0.363l-3.53,0.946l-2.149-1.243V14.498L19.619,14.498z M18.594,17.063l-2.221,1.283l-2.22-1.283
		v-2.565l2.22-1.281l2.221,1.281V17.063z"/>
</g>
</svg>
