<?xml version="1.0" encoding="utf-8"?>
<!-- Generator: Adobe Illustrator 27.7.0, SVG Export Plug-In . SVG Version: 6.00 Build 0)  -->
<svg version="1.1" id="Livello_1" xmlns="http://www.w3.org/2000/svg" xmlns:xlink="http://www.w3.org/1999/xlink" x="0px" y="0px"
	width="38px" height="644px" viewBox="0 0 37.2 644.1" style="enable-background:new 0 0 37.2 644.1;" xml:space="preserve">
<style type="text/css">
	.st0{display:none;}
	.st1{display:inline;}
	.st2{clip-path:url(#SVGID_00000174596611560764193950000000535859821916069526_);fill:#FAFDF9;}
	.st3{clip-path:url(#SVGID_00000104687012448114331810000000726276297543855780_);fill:#D6EED4;}
	.st4{clip-path:url(#SVGID_00000163788751567078423890000007717157213050341544_);fill:#C4E6C0;}
	.st5{clip-path:url(#SVGID_00000078746498298069097410000011181883466655431041_);fill:#ECF7EA;}
	.st6{clip-path:url(#SVGID_00000026855255556842271860000006883948350430047139_);fill:#B0DEAB;}
	.st7{clip-path:url(#SVGID_00000006704172607875248870000013086075176394307228_);fill:#9DD797;}
	.st8{clip-path:url(#SVGID_00000047781254094191654030000016353329284892819120_);fill:#EC2426;}
	.st9{clip-path:url(#SVGID_00000039092624428175327960000015320935773112026784_);fill:#FCFC1E;}
	.st10{clip-path:url(#SVGID_00000038406488529508758900000013784116705963054232_);fill:#0B7F3F;}
	.st11{clip-path:url(#SVGID_00000065795381967166872920000001854482033804622976_);fill:#F7A426;}
	.st12{clip-path:url(#SVGID_00000126306154593822192000000000866239341970144938_);fill:#6FC9DC;}
	.st13{clip-path:url(#SVGID_00000179611371286043989490000006192713621500251035_);fill:#3F57B0;}
	.st14{fill:#39322E;}
	.st15{clip-path:url(#SVGID_00000119116994909093746370000008977349978816542894_);fill:#C8E8F0;}
	.st16{clip-path:url(#SVGID_00000053538235223303630250000008631911545264284586_);fill:#D0EBF7;}
	.st17{clip-path:url(#SVGID_00000009553842842417147450000010230474589462377642_);fill:#4898DA;}
	.st18{clip-path:url(#SVGID_00000082357695437918813620000006392086374788728241_);fill:#A3A5D7;}
	.st19{clip-path:url(#SVGID_00000177458321288625703860000011765225550390810017_);fill:#B988C1;}
	.st20{clip-path:url(#SVGID_00000012446119555348536370000004308034603984938636_);fill:#D7A2CD;}
	.st21{clip-path:url(#SVGID_00000011746980963478119750000006193995876086363801_);fill:#E8BEDB;}
	.st22{clip-path:url(#SVGID_00000166650878265159185360000010750959124183357880_);fill:#E67D9B;}
	.st23{clip-path:url(#SVGID_00000062914003527548711660000013898803179926094997_);fill:#DB4C4D;}
	.st24{clip-path:url(#SVGID_00000155854776629898882080000012182089578513362051_);fill:#EF5A5C;}
	.st25{clip-path:url(#SVGID_00000097489444059184006300000010140415640951481498_);fill:#F7A25C;}
	.st26{clip-path:url(#SVGID_00000048468023551869292650000013885798753757403531_);fill:#FDD58F;}
	.st27{clip-path:url(#SVGID_00000031906496992943331910000005976366901568177310_);fill:#FFE173;}
	.st28{clip-path:url(#SVGID_00000091736674366969583150000000729077129981148828_);fill:#FEFE82;}
	.st29{clip-path:url(#SVGID_00000039129001467781633480000010204969334850253206_);fill:#FFFFC7;}
	.st30{clip-path:url(#SVGID_00000143618525807104855780000003627071819474046634_);fill:#F3F3A1;}
	.st31{clip-path:url(#SVGID_00000138562961118212386900000016996420431197495208_);fill:#D3ECA4;}
	.st32{clip-path:url(#SVGID_00000007428616301211255330000002162983555611672980_);fill:#C3E6D8;}
	.st33{clip-path:url(#SVGID_00000152240449036546845970000002480745937469469869_);fill:#C8E8F0;}
	.st34{clip-path:url(#SVGID_00000170989015678056697050000005800043262203954573_);fill:#D0EBF7;}
	.st35{fill:none;stroke:#3C3430;stroke-width:2.9317;stroke-miterlimit:9.7722;}
	.st36{fill:#3C3530;}
	.st37{fill:#FFFFFF;}
</style>
<g>
	<path class="st14" d="M13.7,633.9c-0.8-0.4-1.5-1-2-1.7s-0.7-1.6-0.7-2.6c0-1,0.2-1.8,0.7-2.6c0.5-0.8,1.2-1.3,2-1.7
		c0.8-0.4,1.8-0.7,2.9-0.7c0.8,0,1.6,0.1,2.3,0.4c0.7,0.3,1.3,0.7,1.7,1.2l-1.3,1.1c-0.7-0.8-1.6-1.2-2.8-1.2c-0.7,0-1.4,0.1-2,0.4
		c-0.6,0.3-1,0.7-1.3,1.2c-0.3,0.5-0.5,1.1-0.5,1.7s0.1,1.2,0.5,1.7c0.3,0.5,0.8,1,1.3,1.2c0.6,0.3,1.2,0.4,2,0.4c1,0,2-0.4,2.8-1.2
		l1.3,1.1c-0.5,0.5-1,1-1.7,1.2c-0.7,0.3-1.5,0.4-2.3,0.4C15.5,634.6,14.5,634.4,13.7,633.9z"/>
	<path class="st14" d="M23,628.9c-0.3-0.2-0.7-0.5-0.9-0.9c-0.2-0.3-0.3-0.8-0.3-1.2c0-0.4,0.1-0.9,0.3-1.2c0.2-0.3,0.6-0.7,0.9-0.9
		c0.3-0.2,0.8-0.3,1.3-0.3s0.9,0.1,1.3,0.3c0.3,0.2,0.7,0.5,0.9,0.9c0.2,0.3,0.3,0.8,0.3,1.2s-0.1,0.8-0.3,1.2
		c-0.2,0.3-0.6,0.7-0.9,0.9c-0.3,0.2-0.8,0.3-1.3,0.3S23.4,629.2,23,628.9z M25.3,628c0.2-0.2,0.5-0.7,0.5-1c0-0.4-0.1-0.8-0.5-1
		c-0.3-0.2-0.6-0.4-1-0.4s-0.8,0.1-1,0.4c-0.2,0.2-0.5,0.7-0.5,1c0,0.4,0.1,0.8,0.5,1c0.2,0.2,0.7,0.4,1,0.4
		C24.6,628.4,25.1,628.3,25.3,628z"/>
</g>
<circle class="st14" cx="18.6" cy="20.6" r="14.6"/>
<g>
	<g>
		<g>
			<defs>
				<path id="SVGID_00000061458345850633132140000008210601417091360143_" d="M30.6,632.6c0,4-6.6,8.8-11.8,8.8H18
					c-4.8,0-11.1-4.2-11.1-8.8V49c1.1-5.4,7.2-8.5,11.4-8.4l0,0c4.8,0,11,3.2,12.3,8.7L30.6,632.6L30.6,632.6z"/>
			</defs>
			<clipPath id="SVGID_00000056422416081446341440000008395656092312660914_">
				<use xlink:href="#SVGID_00000061458345850633132140000008210601417091360143_"  style="overflow:visible;"/>
			</clipPath>
			
				<rect x="-5.4" y="40.5" style="clip-path:url(#SVGID_00000056422416081446341440000008395656092312660914_);fill:#C8E8F0;" width="48.3" height="29.5"/>
		</g>
	</g>
	<g>
		<g>
			<defs>
				<path id="SVGID_00000076580438947324710350000009281612459726500761_" d="M30.6,632.6c0,4-6.6,8.8-11.8,8.8H18
					c-4.8,0-11.1-4.2-11.1-8.8V49c1.1-5.4,7.2-8.5,11.4-8.4l0,0c4.8,0,11,3.2,12.3,8.7L30.6,632.6L30.6,632.6z"/>
			</defs>
			<clipPath id="SVGID_00000000205084733305199630000014599631192548218006_">
				<use xlink:href="#SVGID_00000076580438947324710350000009281612459726500761_"  style="overflow:visible;"/>
			</clipPath>
			
				<rect x="-5.4" y="70.1" style="clip-path:url(#SVGID_00000000205084733305199630000014599631192548218006_);fill:#D0EBF7;" width="48.3" height="29.5"/>
		</g>
	</g>
	<g>
		<g>
			<defs>
				<path id="SVGID_00000067214505337018392640000007676120428477038764_" d="M30.6,632.6c0,4-6.6,8.8-11.8,8.8H18
					c-4.8,0-11.1-4.2-11.1-8.8V49c1.1-5.4,7.2-8.5,11.4-8.4l0,0c4.8,0,11,3.2,12.3,8.7L30.6,632.6L30.6,632.6z"/>
			</defs>
			<clipPath id="SVGID_00000083066148749031767860000011454441053623579293_">
				<use xlink:href="#SVGID_00000067214505337018392640000007676120428477038764_"  style="overflow:visible;"/>
			</clipPath>
			
				<rect x="-5.4" y="99" style="clip-path:url(#SVGID_00000083066148749031767860000011454441053623579293_);fill:#4898DA;" width="48.3" height="29.5"/>
		</g>
	</g>
	<g>
		<g>
			<defs>
				<path id="SVGID_00000141453727103075138900000014591708575393877421_" d="M30.6,632.6c0,4-6.6,8.8-11.8,8.8H18
					c-4.8,0-11.1-4.2-11.1-8.8V49c1.1-5.4,7.2-8.5,11.4-8.4l0,0c4.8,0,11,3.2,12.3,8.7L30.6,632.6L30.6,632.6z"/>
			</defs>
			<clipPath id="SVGID_00000145046727966029570260000009555277065888565151_">
				<use xlink:href="#SVGID_00000141453727103075138900000014591708575393877421_"  style="overflow:visible;"/>
			</clipPath>
			
				<rect x="-5.4" y="128.6" style="clip-path:url(#SVGID_00000145046727966029570260000009555277065888565151_);fill:#A3A5D7;" width="48.3" height="29.5"/>
		</g>
	</g>
	<g>
		<g>
			<defs>
				<path id="SVGID_00000145780237450990979810000007478645102900374154_" d="M30.6,632.6c0,4-6.6,8.8-11.8,8.8H18
					c-4.8,0-11.1-4.2-11.1-8.8V49c1.1-5.4,7.2-8.5,11.4-8.4l0,0c4.8,0,11,3.2,12.3,8.7L30.6,632.6L30.6,632.6z"/>
			</defs>
			<clipPath id="SVGID_00000183945451255752530200000009849405925216058002_">
				<use xlink:href="#SVGID_00000145780237450990979810000007478645102900374154_"  style="overflow:visible;"/>
			</clipPath>
			
				<rect x="-5.4" y="158.1" style="clip-path:url(#SVGID_00000183945451255752530200000009849405925216058002_);fill:#B988C1;" width="48.3" height="29.5"/>
		</g>
	</g>
	<g>
		<g>
			<defs>
				<path id="SVGID_00000008846643748961389940000011092350336923541914_" d="M30.6,632.6c0,4-6.6,8.8-11.8,8.8H18
					c-4.8,0-11.1-4.2-11.1-8.8V49c1.1-5.4,7.2-8.5,11.4-8.4l0,0c4.8,0,11,3.2,12.3,8.7L30.6,632.6L30.6,632.6z"/>
			</defs>
			<clipPath id="SVGID_00000138569377309707288860000011427680533892680868_">
				<use xlink:href="#SVGID_00000008846643748961389940000011092350336923541914_"  style="overflow:visible;"/>
			</clipPath>
			
				<rect x="-5.4" y="187.6" style="clip-path:url(#SVGID_00000138569377309707288860000011427680533892680868_);fill:#D7A2CD;" width="48.3" height="29.5"/>
		</g>
	</g>
	<g>
		<g>
			<defs>
				<path id="SVGID_00000036972148910939740320000013404229355909893765_" d="M30.6,632.6c0,4-6.6,8.8-11.8,8.8H18
					c-4.8,0-11.1-4.2-11.1-8.8V49c1.1-5.4,7.2-8.5,11.4-8.4l0,0c4.8,0,11,3.2,12.3,8.7L30.6,632.6L30.6,632.6z"/>
			</defs>
			<clipPath id="SVGID_00000142897365058504904960000009203054374415566781_">
				<use xlink:href="#SVGID_00000036972148910939740320000013404229355909893765_"  style="overflow:visible;"/>
			</clipPath>
			
				<rect x="-5.4" y="216.8" style="clip-path:url(#SVGID_00000142897365058504904960000009203054374415566781_);fill:#E8BEDB;" width="48.3" height="29.5"/>
		</g>
	</g>
	<g>
		<g>
			<defs>
				<path id="SVGID_00000168076286168616243300000017436745850993464709_" d="M30.6,632.6c0,4-6.6,8.8-11.8,8.8H18
					c-4.8,0-11.1-4.2-11.1-8.8V49c1.1-5.4,7.2-8.5,11.4-8.4l0,0c4.8,0,11,3.2,12.3,8.7L30.6,632.6L30.6,632.6z"/>
			</defs>
			<clipPath id="SVGID_00000013175630439555550020000009584610687278745996_">
				<use xlink:href="#SVGID_00000168076286168616243300000017436745850993464709_"  style="overflow:visible;"/>
			</clipPath>
			
				<rect x="-5.4" y="246.3" style="clip-path:url(#SVGID_00000013175630439555550020000009584610687278745996_);fill:#E67D9B;" width="48.3" height="29.5"/>
		</g>
	</g>
	<g>
		<g>
			<defs>
				<path id="SVGID_00000098201836144169872440000003629583379689164953_" d="M30.6,632.6c0,4-6.6,8.8-11.8,8.8H18
					c-4.8,0-11.1-4.2-11.1-8.8V49c1.1-5.4,7.2-8.5,11.4-8.4l0,0c4.8,0,11,3.2,12.3,8.7L30.6,632.6L30.6,632.6z"/>
			</defs>
			<clipPath id="SVGID_00000065043056473534090430000005362419738056849338_">
				<use xlink:href="#SVGID_00000098201836144169872440000003629583379689164953_"  style="overflow:visible;"/>
			</clipPath>
			
				<rect x="-5.4" y="275.9" style="clip-path:url(#SVGID_00000065043056473534090430000005362419738056849338_);fill:#DB4C4D;" width="48.3" height="29.5"/>
		</g>
	</g>
	<g>
		<g>
			<defs>
				<path id="SVGID_00000050656888459734085390000009176696229593642678_" d="M30.6,632.6c0,4-6.6,8.8-11.8,8.8H18
					c-4.8,0-11.1-4.2-11.1-8.8V49c1.1-5.4,7.2-8.5,11.4-8.4l0,0c4.8,0,11,3.2,12.3,8.7L30.6,632.6L30.6,632.6z"/>
			</defs>
			<clipPath id="SVGID_00000042716428489584716180000011937220757632600206_">
				<use xlink:href="#SVGID_00000050656888459734085390000009176696229593642678_"  style="overflow:visible;"/>
			</clipPath>
			
				<rect x="-5.4" y="305.4" style="clip-path:url(#SVGID_00000042716428489584716180000011937220757632600206_);fill:#EF5A5C;" width="48.3" height="29.5"/>
		</g>
	</g>
	<g>
		<g>
			<defs>
				<path id="SVGID_00000065052535593820195660000015219803863851835282_" d="M30.6,632.6c0,4-6.6,8.8-11.8,8.8H18
					c-4.8,0-11.1-4.2-11.1-8.8V49c1.1-5.4,7.2-8.5,11.4-8.4l0,0c4.8,0,11,3.2,12.3,8.7L30.6,632.6L30.6,632.6z"/>
			</defs>
			<clipPath id="SVGID_00000182495662569354082330000003522474293418322362_">
				<use xlink:href="#SVGID_00000065052535593820195660000015219803863851835282_"  style="overflow:visible;"/>
			</clipPath>
			
				<rect x="-5.4" y="334.6" style="clip-path:url(#SVGID_00000182495662569354082330000003522474293418322362_);fill:#F7A25C;" width="48.3" height="29.5"/>
		</g>
	</g>
	<g>
		<g>
			<defs>
				<path id="SVGID_00000129189547988519158770000008471720784798609068_" d="M30.6,632.6c0,4-6.6,8.8-11.8,8.8H18
					c-4.8,0-11.1-4.2-11.1-8.8V49c1.1-5.4,7.2-8.5,11.4-8.4l0,0c4.8,0,11,3.2,12.3,8.7L30.6,632.6L30.6,632.6z"/>
			</defs>
			<clipPath id="SVGID_00000121995609679956026710000016677713175696441266_">
				<use xlink:href="#SVGID_00000129189547988519158770000008471720784798609068_"  style="overflow:visible;"/>
			</clipPath>
			
				<rect x="-5.4" y="364.1" style="clip-path:url(#SVGID_00000121995609679956026710000016677713175696441266_);fill:#FDD58F;" width="48.3" height="29.5"/>
		</g>
	</g>
	<g>
		<g>
			<defs>
				<path id="SVGID_00000061438222271426587670000002929768163267228315_" d="M30.6,632.6c0,4-6.6,8.8-11.8,8.8H18
					c-4.8,0-11.1-4.2-11.1-8.8V49c1.1-5.4,7.2-8.5,11.4-8.4l0,0c4.8,0,11,3.2,12.3,8.7L30.6,632.6L30.6,632.6z"/>
			</defs>
			<clipPath id="SVGID_00000002346694433195011370000015998822416297299640_">
				<use xlink:href="#SVGID_00000061438222271426587670000002929768163267228315_"  style="overflow:visible;"/>
			</clipPath>
			
				<rect x="-5.4" y="393.6" style="clip-path:url(#SVGID_00000002346694433195011370000015998822416297299640_);fill:#FFE173;" width="48.3" height="29.5"/>
		</g>
	</g>
	<g>
		<g>
			<defs>
				<path id="SVGID_00000042702537018042004260000014327190571645001606_" d="M30.6,632.6c0,4-6.6,8.8-11.8,8.8H18
					c-4.8,0-11.1-4.2-11.1-8.8V49c1.1-5.4,7.2-8.5,11.4-8.4l0,0c4.8,0,11,3.2,12.3,8.7L30.6,632.6L30.6,632.6z"/>
			</defs>
			<clipPath id="SVGID_00000124869815147165749130000013376543900779602084_">
				<use xlink:href="#SVGID_00000042702537018042004260000014327190571645001606_"  style="overflow:visible;"/>
			</clipPath>
			
				<rect x="-5.4" y="423.2" style="clip-path:url(#SVGID_00000124869815147165749130000013376543900779602084_);fill:#FEFE82;" width="48.3" height="29.5"/>
		</g>
	</g>
	<g>
		<g>
			<defs>
				<path id="SVGID_00000047765981368789662320000001133189809398209423_" d="M30.6,632.6c0,4-6.6,8.8-11.8,8.8H18
					c-4.8,0-11.1-4.2-11.1-8.8V49c1.1-5.4,7.2-8.5,11.4-8.4l0,0c4.8,0,11,3.2,12.3,8.7L30.6,632.6L30.6,632.6z"/>
			</defs>
			<clipPath id="SVGID_00000064355481151512101490000007374419817623650965_">
				<use xlink:href="#SVGID_00000047765981368789662320000001133189809398209423_"  style="overflow:visible;"/>
			</clipPath>
			
				<rect x="-5.4" y="452.3" style="clip-path:url(#SVGID_00000064355481151512101490000007374419817623650965_);fill:#FFFFC7;" width="48.3" height="29.5"/>
		</g>
	</g>
	<g>
		<g>
			<defs>
				<path id="SVGID_00000024695007495629157210000003996256025023811258_" d="M30.6,632.6c0,4-6.6,8.8-11.8,8.8H18
					c-4.8,0-11.1-4.2-11.1-8.8V49c1.1-5.4,7.2-8.5,11.4-8.4l0,0c4.8,0,11,3.2,12.3,8.7L30.6,632.6L30.6,632.6z"/>
			</defs>
			<clipPath id="SVGID_00000176754722790599276630000014903815405805033391_">
				<use xlink:href="#SVGID_00000024695007495629157210000003996256025023811258_"  style="overflow:visible;"/>
			</clipPath>
			
				<rect x="-5.4" y="481.9" style="clip-path:url(#SVGID_00000176754722790599276630000014903815405805033391_);fill:#F3F3A1;" width="48.3" height="29.5"/>
		</g>
	</g>
	<g>
		<g>
			<defs>
				<path id="SVGID_00000085249636917327069050000001556659728372804011_" d="M30.6,632.6c0,4-6.6,8.8-11.8,8.8H18
					c-4.8,0-11.1-4.2-11.1-8.8V49c1.1-5.4,7.2-8.5,11.4-8.4l0,0c4.8,0,11,3.2,12.3,8.7L30.6,632.6L30.6,632.6z"/>
			</defs>
			<clipPath id="SVGID_00000136396977507254881500000012157546095734593967_">
				<use xlink:href="#SVGID_00000085249636917327069050000001556659728372804011_"  style="overflow:visible;"/>
			</clipPath>
			
				<rect x="-5.4" y="511.4" style="clip-path:url(#SVGID_00000136396977507254881500000012157546095734593967_);fill:#D3ECA4;" width="48.3" height="29.5"/>
		</g>
	</g>
	<g>
		<g>
			<defs>
				<path id="SVGID_00000018222128669078008350000008676353919830860476_" d="M30.6,632.6c0,4-6.6,8.8-11.8,8.8H18
					c-4.8,0-11.1-4.2-11.1-8.8V49c1.1-5.4,7.2-8.5,11.4-8.4l0,0c4.8,0,11,3.2,12.3,8.7L30.6,632.6L30.6,632.6z"/>
			</defs>
			<clipPath id="SVGID_00000082358368167557711890000003466352937965011334_">
				<use xlink:href="#SVGID_00000018222128669078008350000008676353919830860476_"  style="overflow:visible;"/>
			</clipPath>
			
				<rect x="-5.4" y="540.9" style="clip-path:url(#SVGID_00000082358368167557711890000003466352937965011334_);fill:#C3E6D8;" width="48.3" height="29.5"/>
		</g>
	</g>
	<g>
		<g>
			<defs>
				<path id="SVGID_00000137097506121292471930000002908768354702615179_" d="M30.6,632.6c0,4-6.6,8.8-11.8,8.8H18
					c-4.8,0-11.1-4.2-11.1-8.8V49c1.1-5.4,7.2-8.5,11.4-8.4l0,0c4.8,0,11,3.2,12.3,8.7L30.6,632.6L30.6,632.6z"/>
			</defs>
			<clipPath id="SVGID_00000012454018657477864370000016433997788092596900_">
				<use xlink:href="#SVGID_00000137097506121292471930000002908768354702615179_"  style="overflow:visible;"/>
			</clipPath>
			
				<rect x="-5.4" y="570.5" style="clip-path:url(#SVGID_00000012454018657477864370000016433997788092596900_);fill:#C8E8F0;" width="48.3" height="29.5"/>
		</g>
	</g>
	<g>
		<g>
			<defs>
				<path id="SVGID_00000035514046132049161790000013825970415230005668_" d="M30.6,632.6c0,4-6.6,8.8-11.8,8.8H18
					c-4.8,0-11.1-4.2-11.1-8.8V49c1.1-5.4,7.2-8.5,11.4-8.4l0,0c4.8,0,11,3.2,12.3,8.7L30.6,632.6L30.6,632.6z"/>
			</defs>
			<clipPath id="SVGID_00000075879823757483561630000000883926579744041361_">
				<use xlink:href="#SVGID_00000035514046132049161790000013825970415230005668_"  style="overflow:visible;"/>
			</clipPath>
			
				<rect x="-5.4" y="600" style="clip-path:url(#SVGID_00000075879823757483561630000000883926579744041361_);fill:#D0EBF7;" width="48.3" height="44.6"/>
		</g>
	</g>
</g>
<path class="st35" d="M30.4,632.9C30,636.6,24,641,18.9,641l0,0c-5.1,0.4-12.1-3.6-12.1-8.1V49.3c1.1-5.4,7.2-8.5,11.4-8.4l0,0
	c4.8,0,11,3.2,12.3,8.7L30.4,632.9L30.4,632.9z"/>
<g>
	<path class="st36" d="M11.2,633.8c-0.5-0.3-0.9-0.6-1.1-1.1c-0.3-0.5-0.4-1-0.4-1.5c0-0.6,0.1-1.1,0.4-1.5c0.3-0.4,0.7-0.8,1.1-1.1
		c0.5-0.3,1-0.4,1.7-0.4c0.6,0,1.1,0.1,1.5,0.3c0.4,0.2,0.8,0.6,1,1l-1.1,0.6c-0.2-0.3-0.4-0.5-0.6-0.6c-0.3-0.1-0.5-0.2-0.8-0.2
		c-0.5,0-1,0.2-1.3,0.5c-0.3,0.3-0.5,0.8-0.5,1.3c0,0.6,0.2,1,0.5,1.3c0.3,0.3,0.8,0.5,1.3,0.5c0.3,0,0.6-0.1,0.8-0.2
		c0.3-0.1,0.5-0.3,0.6-0.6l1.1,0.6c-0.2,0.4-0.6,0.8-1,1c-0.4,0.2-1,0.4-1.5,0.4C12.3,634.1,11.7,634,11.2,633.8z"/>
	<path class="st36" d="M25.9,628.8c0.4,0.4,0.7,1.1,0.7,1.9v3.3h-1.4v-3.1c0-0.5-0.1-0.9-0.3-1.1c-0.2-0.3-0.6-0.4-1-0.4
		c-0.5,0-0.8,0.1-1.1,0.4c-0.3,0.3-0.4,0.7-0.4,1.3v2.9h-1.4v-3.1c0-0.5-0.1-0.9-0.3-1.1c-0.2-0.3-0.6-0.4-1-0.4
		c-0.5,0-0.9,0.1-1.1,0.4c-0.3,0.3-0.4,0.7-0.4,1.3v2.9h-1.4v-5.8h1.3v0.7c0.2-0.3,0.5-0.5,0.8-0.6c0.3-0.1,0.7-0.2,1.1-0.2
		c0.4,0,0.8,0.1,1.2,0.2c0.3,0.2,0.6,0.4,0.8,0.7c0.2-0.3,0.6-0.5,1-0.7c0.4-0.2,0.8-0.3,1.3-0.3C24.9,628.2,25.5,628.4,25.9,628.8z
		"/>
</g>
<g>
	<path class="st36" d="M11.7,587.7c-0.4-0.3-0.7-0.6-0.9-1.1c-0.2-0.5-0.3-1.1-0.3-1.7s0.1-1.3,0.3-1.7c0.2-0.5,0.5-0.9,0.9-1.1
		c0.4-0.3,0.8-0.4,1.4-0.4c0.5,0,1,0.1,1.4,0.4c0.4,0.3,0.7,0.6,0.9,1.1c0.2,0.5,0.3,1.1,0.3,1.7s-0.1,1.3-0.3,1.7
		c-0.2,0.5-0.5,0.9-0.9,1.1c-0.4,0.3-0.9,0.4-1.4,0.4C12.5,588.1,12,587.9,11.7,587.7z M14.1,586.5c0.3-0.4,0.4-0.9,0.4-1.7
		c0-0.7-0.1-1.3-0.4-1.7c-0.3-0.4-0.6-0.6-1.1-0.6c-0.4,0-0.8,0.2-1.1,0.6c-0.3,0.4-0.4,0.9-0.4,1.7c0,0.7,0.1,1.3,0.4,1.7
		c0.3,0.4,0.6,0.6,1.1,0.6C13.5,587.1,13.8,586.9,14.1,586.5z"/>
	<path class="st36" d="M16.2,587.8c-0.1-0.1-0.2-0.3-0.2-0.5c0-0.2,0.1-0.4,0.2-0.5c0.1-0.1,0.3-0.2,0.5-0.2s0.4,0.1,0.5,0.2
		c0.1,0.1,0.2,0.3,0.2,0.5c0,0.2-0.1,0.4-0.2,0.5c-0.1,0.1-0.3,0.2-0.5,0.2S16.3,588,16.2,587.8z"/>
	<path class="st36" d="M22.5,587v1h-4.6v-0.8l2.5-2.4c0.3-0.3,0.5-0.5,0.6-0.7c0.1-0.2,0.1-0.4,0.1-0.6c0-0.3-0.1-0.5-0.3-0.7
		s-0.5-0.2-0.9-0.2c-0.6,0-1.1,0.2-1.5,0.7l-0.8-0.6c0.2-0.3,0.6-0.6,1-0.8s0.9-0.3,1.4-0.3c0.7,0,1.2,0.2,1.6,0.5
		c0.4,0.3,0.6,0.8,0.6,1.3c0,0.3-0.1,0.7-0.2,1c-0.1,0.3-0.4,0.6-0.8,1l-1.7,1.6H22.5z"/>
	<path class="st36" d="M26.7,584.6c0.4,0.3,0.6,0.8,0.6,1.4c0,0.4-0.1,0.7-0.3,1c-0.2,0.3-0.5,0.5-0.8,0.7s-0.8,0.3-1.4,0.3
		c-0.5,0-0.9-0.1-1.3-0.2s-0.8-0.3-1.1-0.5l0.5-0.9c0.2,0.2,0.5,0.3,0.8,0.5c0.3,0.1,0.7,0.2,1,0.2c0.4,0,0.7-0.1,1-0.3
		s0.4-0.4,0.4-0.7c0-0.3-0.1-0.6-0.4-0.7c-0.3-0.2-0.7-0.2-1.3-0.2H23l0.3-3.4H27v1h-2.7l-0.1,1.5h0.6
		C25.7,584.1,26.3,584.3,26.7,584.6z"/>
</g>
<g>
	<path class="st36" d="M13.2,558.9c-0.4-0.3-0.8-0.7-1-1.2c-0.3-0.5-0.4-1.2-0.4-1.9s0.1-1.4,0.4-1.9c0.3-0.5,0.6-1,1-1.2
		c0.4-0.3,0.9-0.4,1.5-0.4c0.6,0,1.1,0.1,1.5,0.4s0.8,0.7,1,1.2c0.3,0.5,0.4,1.2,0.4,1.9s-0.1,1.4-0.4,1.9c-0.3,0.5-0.6,1-1,1.2
		s-0.9,0.4-1.5,0.4C14.2,559.3,13.7,559.2,13.2,558.9z M15.9,557.5c0.3-0.4,0.4-1,0.4-1.9s-0.1-1.4-0.4-1.9
		c-0.3-0.4-0.7-0.6-1.2-0.6c-0.5,0-0.9,0.2-1.2,0.6c-0.3,0.4-0.4,1-0.4,1.9s0.1,1.4,0.4,1.9c0.3,0.4,0.7,0.6,1.2,0.6
		C15.2,558.2,15.6,558,15.9,557.5z"/>
	<path class="st36" d="M18.6,559c-0.2-0.2-0.2-0.4-0.2-0.6c0-0.2,0.1-0.4,0.2-0.6c0.2-0.2,0.4-0.2,0.6-0.2s0.4,0.1,0.6,0.2
		c0.2,0.2,0.2,0.4,0.2,0.6c0,0.2-0.1,0.4-0.2,0.6s-0.4,0.2-0.6,0.2S18.8,559.2,18.6,559z"/>
	<path class="st36" d="M25.2,555.5c0.5,0.4,0.7,0.9,0.7,1.6c0,0.4-0.1,0.8-0.3,1.1c-0.2,0.3-0.5,0.6-0.9,0.8
		c-0.4,0.2-0.9,0.3-1.5,0.3c-0.5,0-1-0.1-1.5-0.2c-0.5-0.1-0.9-0.3-1.2-0.6l0.5-1c0.3,0.2,0.6,0.4,0.9,0.5c0.4,0.1,0.7,0.2,1.1,0.2
		c0.5,0,0.8-0.1,1.1-0.3c0.3-0.2,0.4-0.5,0.4-0.8c0-0.4-0.1-0.6-0.4-0.8s-0.8-0.3-1.5-0.3h-1.7l0.4-3.8h4.1v1.1h-3l-0.2,1.6H23
		C24,554.9,24.8,555.1,25.2,555.5z"/>
</g>
<g>
	<path class="st36" d="M19.8,522.7v7h-1.3v-5.9H17v-1.1H19.8z"/>
</g>
<g>
	<path class="st36" d="M15.6,493.2v7h-1.3v-5.9h-1.5v-1.1H15.6z"/>
	<path class="st36" d="M17.2,500c-0.2-0.2-0.2-0.4-0.2-0.6c0-0.2,0.1-0.4,0.2-0.6c0.2-0.2,0.4-0.2,0.6-0.2s0.4,0.1,0.6,0.2
		c0.2,0.2,0.2,0.4,0.2,0.6c0,0.2-0.1,0.4-0.2,0.6c-0.2,0.2-0.4,0.2-0.6,0.2S17.4,500.1,17.2,500z"/>
	<path class="st36" d="M23.8,496.4c0.5,0.4,0.7,0.9,0.7,1.6c0,0.4-0.1,0.8-0.3,1.1c-0.2,0.3-0.5,0.6-0.9,0.8
		c-0.4,0.2-0.9,0.3-1.5,0.3c-0.5,0-1-0.1-1.5-0.2c-0.5-0.1-0.9-0.3-1.2-0.6l0.5-1c0.3,0.2,0.6,0.4,0.9,0.5s0.7,0.2,1.1,0.2
		c0.5,0,0.8-0.1,1.1-0.3c0.3-0.2,0.4-0.5,0.4-0.8c0-0.4-0.1-0.6-0.4-0.8c-0.3-0.2-0.8-0.3-1.5-0.3h-1.7l0.4-3.8h4.1v1.1h-3l-0.2,1.6
		h0.7C22.6,495.9,23.4,496.1,23.8,496.4z"/>
</g>
<g>
	<path class="st36" d="M21.4,469.3v1.1h-5.2v-0.9l2.8-2.6c0.3-0.3,0.5-0.6,0.6-0.8c0.1-0.2,0.2-0.4,0.2-0.7c0-0.3-0.1-0.6-0.3-0.8
		c-0.2-0.2-0.5-0.3-1-0.3c-0.7,0-1.3,0.2-1.6,0.7l-0.9-0.7c0.3-0.4,0.6-0.7,1.1-0.9c0.5-0.2,1-0.3,1.6-0.3c0.8,0,1.4,0.2,1.8,0.5
		c0.5,0.4,0.7,0.9,0.7,1.5c0,0.4-0.1,0.7-0.2,1.1c-0.2,0.3-0.5,0.7-0.9,1.1l-1.9,1.8H21.4z"/>
</g>
<g>
	<path class="st36" d="M17.2,440v1.1h-5.2v-0.9l2.8-2.6c0.3-0.3,0.5-0.6,0.6-0.8c0.1-0.2,0.2-0.4,0.2-0.7c0-0.3-0.1-0.6-0.3-0.8
		c-0.2-0.2-0.5-0.3-1-0.3c-0.7,0-1.3,0.2-1.6,0.7l-0.9-0.7c0.3-0.4,0.6-0.7,1.1-0.9c0.5-0.2,1-0.3,1.6-0.3c0.8,0,1.4,0.2,1.8,0.5
		c0.5,0.4,0.7,0.9,0.7,1.5c0,0.4-0.1,0.7-0.2,1.1c-0.2,0.3-0.5,0.7-0.9,1.1l-1.9,1.8H17.2z"/>
	<path class="st36" d="M18.3,440.9c-0.2-0.2-0.2-0.4-0.2-0.6c0-0.2,0.1-0.4,0.2-0.6c0.2-0.2,0.4-0.2,0.6-0.2s0.4,0.1,0.6,0.2
		c0.2,0.2,0.2,0.4,0.2,0.6c0,0.2-0.1,0.4-0.2,0.6c-0.2,0.2-0.4,0.2-0.6,0.2S18.4,441.1,18.3,440.9z"/>
	<path class="st36" d="M24.9,437.4c0.5,0.4,0.7,0.9,0.7,1.6c0,0.4-0.1,0.8-0.3,1.1c-0.2,0.3-0.5,0.6-0.9,0.8s-0.9,0.3-1.5,0.3
		c-0.5,0-1-0.1-1.5-0.2c-0.5-0.1-0.9-0.3-1.2-0.6l0.5-1c0.3,0.2,0.6,0.4,0.9,0.5c0.4,0.1,0.7,0.2,1.1,0.2c0.5,0,0.8-0.1,1.1-0.3
		c0.3-0.2,0.4-0.5,0.4-0.8c0-0.4-0.1-0.6-0.4-0.8s-0.8-0.3-1.5-0.3h-1.7l0.4-3.8h4.1v1.1h-3l-0.2,1.6h0.7
		C23.7,436.8,24.4,437,24.9,437.4z"/>
</g>
<g>
	<path class="st36" d="M20.8,408.1c0.3,0.4,0.5,0.8,0.5,1.4c0,0.4-0.1,0.8-0.3,1.1c-0.2,0.3-0.5,0.6-0.9,0.8
		c-0.4,0.2-0.9,0.3-1.5,0.3c-0.5,0-1-0.1-1.4-0.2c-0.5-0.1-0.9-0.3-1.2-0.6l0.6-1c0.3,0.2,0.6,0.4,0.9,0.5s0.7,0.2,1.1,0.2
		c0.5,0,0.8-0.1,1.1-0.3c0.3-0.2,0.4-0.4,0.4-0.8c0-0.3-0.1-0.6-0.4-0.8s-0.6-0.3-1.1-0.3h-0.6v-0.9l1.6-1.9h-3.2v-1.1H21v0.9
		l-1.7,2C20,407.6,20.5,407.8,20.8,408.1z"/>
</g>
<g>
	<path class="st36" d="M22.1,380.5h-1.2v1.6h-1.3v-1.6h-3.8v-0.9l3.5-4.5h1.4l-3.2,4.3h2.3V378h1.2v1.4h1.2V380.5z"/>
</g>
<g>
	<path class="st36" d="M20.7,349.1c0.5,0.4,0.7,0.9,0.7,1.6c0,0.4-0.1,0.8-0.3,1.1c-0.2,0.3-0.5,0.6-0.9,0.8s-0.9,0.3-1.5,0.3
		c-0.5,0-1-0.1-1.5-0.2c-0.5-0.1-0.9-0.3-1.2-0.6l0.5-1c0.3,0.2,0.6,0.4,0.9,0.5c0.4,0.1,0.7,0.2,1.1,0.2c0.5,0,0.8-0.1,1.1-0.3
		c0.3-0.2,0.4-0.5,0.4-0.8c0-0.4-0.1-0.6-0.4-0.8s-0.8-0.3-1.5-0.3h-1.7l0.4-3.8H21v1.1h-3l-0.2,1.6h0.7
		C19.5,348.5,20.2,348.7,20.7,349.1z"/>
</g>
<g>
	<path class="st37" d="M17.6,316.7v0.9l-2.7,6.1h-1.4l2.6-5.9h-2.8v1.2h-1.2v-2.3H17.6z"/>
	<path class="st37" d="M18.1,323.6c-0.2-0.2-0.2-0.4-0.2-0.6c0-0.2,0.1-0.4,0.2-0.6c0.2-0.2,0.4-0.2,0.6-0.2s0.4,0.1,0.6,0.2
		c0.2,0.2,0.2,0.4,0.2,0.6c0,0.2-0.1,0.4-0.2,0.6c-0.2,0.2-0.4,0.2-0.6,0.2S18.3,323.7,18.1,323.6z"/>
	<path class="st37" d="M24.7,320c0.5,0.4,0.7,0.9,0.7,1.6c0,0.4-0.1,0.8-0.3,1.1c-0.2,0.3-0.5,0.6-0.9,0.8s-0.9,0.3-1.5,0.3
		c-0.5,0-1-0.1-1.5-0.2c-0.5-0.1-0.9-0.3-1.2-0.6l0.5-1c0.3,0.2,0.6,0.4,0.9,0.5c0.4,0.1,0.7,0.2,1.1,0.2c0.5,0,0.8-0.1,1.1-0.3
		c0.3-0.2,0.4-0.5,0.4-0.8c0-0.4-0.1-0.6-0.4-0.8s-0.8-0.3-1.5-0.3h-1.7l0.4-3.8H25v1.1h-3l-0.2,1.6h0.7
		C23.5,319.4,24.3,319.6,24.7,320z"/>
</g>
<g>
	<path class="st37" d="M16.4,287.4v7h-1.3v-5.9h-1.5v-1.1H16.4z"/>
	<path class="st37" d="M19.2,294.1c-0.4-0.3-0.8-0.7-1-1.2c-0.3-0.5-0.4-1.2-0.4-1.9s0.1-1.4,0.4-1.9c0.3-0.5,0.6-1,1-1.2
		c0.4-0.3,0.9-0.4,1.5-0.4c0.6,0,1.1,0.1,1.5,0.4c0.4,0.3,0.8,0.7,1,1.2c0.3,0.5,0.4,1.2,0.4,1.9s-0.1,1.4-0.4,1.9
		c-0.3,0.5-0.6,1-1,1.2c-0.4,0.3-0.9,0.4-1.5,0.4C20.2,294.5,19.7,294.4,19.2,294.1z M21.9,292.8c0.3-0.4,0.4-1,0.4-1.9
		s-0.1-1.4-0.4-1.9c-0.3-0.4-0.7-0.6-1.2-0.6c-0.5,0-0.9,0.2-1.2,0.6c-0.3,0.4-0.4,1-0.4,1.9s0.1,1.4,0.4,1.9s0.7,0.6,1.2,0.6
		C21.2,293.4,21.6,293.2,21.9,292.8z"/>
</g>
<g>
	<path class="st37" d="M16.9,257.4v7h-1.3v-5.9h-1.5v-1.1H16.9z"/>
	<path class="st37" d="M22.7,260.6c0.5,0.4,0.7,0.9,0.7,1.6c0,0.4-0.1,0.8-0.3,1.1c-0.2,0.3-0.5,0.6-0.9,0.8
		c-0.4,0.2-0.9,0.3-1.5,0.3c-0.5,0-1-0.1-1.5-0.2c-0.5-0.1-0.9-0.3-1.2-0.6l0.5-1c0.3,0.2,0.6,0.4,0.9,0.5s0.7,0.2,1.1,0.2
		c0.5,0,0.8-0.1,1.1-0.3c0.3-0.2,0.4-0.5,0.4-0.8c0-0.4-0.1-0.6-0.4-0.8c-0.3-0.2-0.8-0.3-1.5-0.3h-1.7l0.4-3.8H23v1.1h-3l-0.2,1.6
		h0.7C21.5,260.1,22.2,260.3,22.7,260.6z"/>
</g>
<g>
	<path class="st36" d="M18.1,234.3v1.1h-5.2v-0.9l2.8-2.6c0.3-0.3,0.5-0.6,0.6-0.8c0.1-0.2,0.2-0.4,0.2-0.7c0-0.3-0.1-0.6-0.3-0.8
		c-0.2-0.2-0.5-0.3-1-0.3c-0.7,0-1.3,0.2-1.6,0.7l-0.9-0.7c0.3-0.4,0.6-0.7,1.1-0.9c0.5-0.2,1-0.3,1.6-0.3c0.8,0,1.4,0.2,1.8,0.5
		c0.5,0.4,0.7,0.9,0.7,1.5c0,0.4-0.1,0.7-0.2,1.1s-0.5,0.7-0.9,1.1l-1.9,1.8H18.1z"/>
	<path class="st36" d="M20.2,235.1c-0.4-0.3-0.8-0.7-1-1.2c-0.3-0.5-0.4-1.2-0.4-1.9s0.1-1.4,0.4-1.9c0.3-0.5,0.6-1,1-1.2
		c0.4-0.3,0.9-0.4,1.5-0.4c0.6,0,1.1,0.1,1.5,0.4c0.4,0.3,0.8,0.7,1,1.2c0.3,0.5,0.4,1.2,0.4,1.9s-0.1,1.4-0.4,1.9
		c-0.3,0.5-0.6,1-1,1.2c-0.4,0.3-0.9,0.4-1.5,0.4C21.1,235.5,20.6,235.4,20.2,235.1z M22.9,233.7c0.3-0.4,0.4-1,0.4-1.9
		s-0.1-1.4-0.4-1.9c-0.3-0.4-0.7-0.6-1.2-0.6c-0.5,0-0.9,0.2-1.2,0.6c-0.3,0.4-0.4,1-0.4,1.9s0.1,1.4,0.4,1.9s0.7,0.6,1.2,0.6
		C22.2,234.4,22.6,234.2,22.9,233.7z"/>
</g>
<g>
	<path class="st36" d="M18.5,204.5v1.1h-5.2v-0.9l2.8-2.6c0.3-0.3,0.5-0.6,0.6-0.8c0.1-0.2,0.2-0.4,0.2-0.7c0-0.3-0.1-0.6-0.3-0.8
		c-0.2-0.2-0.5-0.3-1-0.3c-0.7,0-1.3,0.2-1.6,0.7l-0.9-0.7c0.3-0.4,0.6-0.7,1.1-0.9c0.5-0.2,1-0.3,1.6-0.3c0.8,0,1.4,0.2,1.8,0.5
		c0.5,0.4,0.7,0.9,0.7,1.5c0,0.4-0.1,0.7-0.2,1.1s-0.5,0.7-0.9,1.1l-1.9,1.8H18.5z"/>
	<path class="st36" d="M23.6,201.9c0.5,0.4,0.7,0.9,0.7,1.6c0,0.4-0.1,0.8-0.3,1.1c-0.2,0.3-0.5,0.6-0.9,0.8
		c-0.4,0.2-0.9,0.3-1.5,0.3c-0.5,0-1-0.1-1.5-0.2c-0.5-0.1-0.9-0.3-1.2-0.6l0.5-1c0.3,0.2,0.6,0.4,0.9,0.5c0.4,0.1,0.7,0.2,1.1,0.2
		c0.5,0,0.8-0.1,1.1-0.3c0.3-0.2,0.4-0.5,0.4-0.8c0-0.4-0.1-0.6-0.4-0.8c-0.3-0.2-0.8-0.3-1.5-0.3h-1.7l0.4-3.8h4.1v1.1h-3l-0.2,1.6
		h0.7C22.4,201.4,23.2,201.5,23.6,201.9z"/>
</g>
<g>
	<path class="st36" d="M17.4,173.1c0.3,0.4,0.5,0.8,0.5,1.4c0,0.4-0.1,0.8-0.3,1.1c-0.2,0.3-0.5,0.6-0.9,0.8
		c-0.4,0.2-0.9,0.3-1.5,0.3c-0.5,0-1-0.1-1.4-0.2c-0.5-0.1-0.9-0.3-1.2-0.6l0.6-1c0.3,0.2,0.6,0.4,0.9,0.5c0.4,0.1,0.7,0.2,1.1,0.2
		c0.5,0,0.8-0.1,1.1-0.3s0.4-0.4,0.4-0.8s-0.1-0.6-0.4-0.8c-0.2-0.2-0.6-0.3-1.1-0.3h-0.6v-0.9l1.6-1.9h-3.2v-1.1h4.8v0.9l-1.7,2
		C16.6,172.6,17.1,172.8,17.4,173.1z"/>
	<path class="st36" d="M20.2,176.3c-0.4-0.3-0.8-0.7-1-1.2c-0.3-0.5-0.4-1.2-0.4-1.9s0.1-1.4,0.4-1.9c0.3-0.5,0.6-1,1-1.2
		c0.4-0.3,0.9-0.4,1.5-0.4c0.6,0,1.1,0.1,1.5,0.4c0.4,0.3,0.8,0.7,1,1.2c0.3,0.5,0.4,1.2,0.4,1.9s-0.1,1.4-0.4,1.9
		c-0.3,0.5-0.6,1-1,1.2c-0.4,0.3-0.9,0.4-1.5,0.4C21.2,176.7,20.7,176.5,20.2,176.3z M22.9,174.9c0.3-0.4,0.4-1,0.4-1.9
		s-0.1-1.4-0.4-1.9c-0.3-0.4-0.7-0.6-1.2-0.6c-0.5,0-0.9,0.2-1.2,0.6c-0.3,0.4-0.4,1-0.4,1.9s0.1,1.4,0.4,1.9s0.7,0.6,1.2,0.6
		C22.2,175.6,22.6,175.3,22.9,174.9z"/>
</g>
<g>
	<path class="st37" d="M18.8,145.1h-1.2v1.6h-1.3v-1.6h-3.8v-0.9l3.5-4.5h1.4l-3.2,4.3h2.3v-1.4h1.2v1.4h1.2V145.1z"/>
	<path class="st37" d="M20.8,146.4c-0.4-0.3-0.8-0.7-1-1.2c-0.3-0.5-0.4-1.2-0.4-1.9s0.1-1.4,0.4-1.9c0.3-0.5,0.6-1,1-1.2
		c0.4-0.3,0.9-0.4,1.5-0.4c0.6,0,1.1,0.1,1.5,0.4c0.4,0.3,0.8,0.7,1,1.2c0.3,0.5,0.4,1.2,0.4,1.9s-0.1,1.4-0.4,1.9
		c-0.3,0.5-0.6,1-1,1.2c-0.4,0.3-0.9,0.4-1.5,0.4C21.7,146.8,21.2,146.7,20.8,146.4z M23.5,145.1c0.3-0.4,0.4-1,0.4-1.9
		s-0.1-1.4-0.4-1.9c-0.3-0.4-0.7-0.6-1.2-0.6c-0.5,0-0.9,0.2-1.2,0.6c-0.3,0.4-0.4,1-0.4,1.9s0.1,1.4,0.4,1.9s0.7,0.6,1.2,0.6
		C22.8,145.7,23.2,145.5,23.5,145.1z"/>
</g>
<g>
	<path class="st37" d="M17.4,113.4c0.5,0.4,0.7,0.9,0.7,1.6c0,0.4-0.1,0.8-0.3,1.1c-0.2,0.3-0.5,0.6-0.9,0.8
		c-0.4,0.2-0.9,0.3-1.5,0.3c-0.5,0-1-0.1-1.5-0.2c-0.5-0.1-0.9-0.3-1.2-0.6l0.5-1c0.3,0.2,0.6,0.4,0.9,0.5c0.4,0.1,0.7,0.2,1.1,0.2
		c0.5,0,0.8-0.1,1.1-0.3c0.3-0.2,0.4-0.5,0.4-0.8c0-0.4-0.1-0.6-0.4-0.8c-0.3-0.2-0.8-0.3-1.5-0.3h-1.7l0.4-3.8h4.1v1.1h-3l-0.2,1.6
		h0.7C16.1,112.8,16.9,113,17.4,113.4z"/>
	<path class="st37" d="M20.2,116.8c-0.4-0.3-0.8-0.7-1-1.2c-0.3-0.5-0.4-1.2-0.4-1.9s0.1-1.4,0.4-1.9c0.3-0.5,0.6-1,1-1.2
		c0.4-0.3,0.9-0.4,1.5-0.4c0.6,0,1.1,0.1,1.5,0.4c0.4,0.3,0.8,0.7,1,1.2c0.3,0.5,0.4,1.2,0.4,1.9s-0.1,1.4-0.4,1.9
		c-0.3,0.5-0.6,1-1,1.2c-0.4,0.3-0.9,0.4-1.5,0.4C21.2,117.2,20.7,117,20.2,116.8z M22.9,115.4c0.3-0.4,0.4-1,0.4-1.9
		s-0.1-1.4-0.4-1.9c-0.3-0.4-0.7-0.6-1.2-0.6c-0.5,0-0.9,0.2-1.2,0.6c-0.3,0.4-0.4,1-0.4,1.9s0.1,1.4,0.4,1.9s0.7,0.6,1.2,0.6
		C22.2,116,22.6,115.8,22.9,115.4z"/>
</g>
<g>
	<path class="st36" d="M17.2,84.2c0.4,0.2,0.7,0.4,0.9,0.8c0.2,0.3,0.3,0.7,0.3,1.1c0,0.5-0.1,0.9-0.3,1.2c-0.2,0.3-0.5,0.6-0.9,0.8
		s-0.8,0.3-1.3,0.3c-1,0-1.7-0.3-2.2-0.9c-0.5-0.6-0.8-1.5-0.8-2.6c0-0.8,0.1-1.5,0.4-2c0.3-0.6,0.7-1,1.2-1.3s1.1-0.4,1.8-0.4
		c0.4,0,0.7,0,1,0.1s0.6,0.2,0.8,0.3l-0.5,1c-0.3-0.2-0.8-0.3-1.3-0.3c-0.7,0-1.2,0.2-1.6,0.6c-0.4,0.4-0.6,1-0.6,1.8v0
		c0.2-0.2,0.5-0.4,0.8-0.5c0.3-0.1,0.7-0.2,1.1-0.2C16.4,83.9,16.8,84,17.2,84.2z M16.7,87c0.3-0.2,0.4-0.5,0.4-0.9
		c0-0.4-0.1-0.7-0.4-0.9c-0.3-0.2-0.6-0.3-1-0.3c-0.4,0-0.8,0.1-1,0.3c-0.3,0.2-0.4,0.5-0.4,0.9c0,0.3,0.1,0.6,0.4,0.8
		c0.3,0.2,0.6,0.3,1.1,0.3C16.1,87.3,16.5,87.2,16.7,87z"/>
	<path class="st36" d="M20.4,87.9c-0.4-0.3-0.8-0.7-1-1.2c-0.3-0.5-0.4-1.2-0.4-1.9s0.1-1.4,0.4-1.9c0.3-0.5,0.6-1,1-1.2
		c0.4-0.3,0.9-0.4,1.5-0.4c0.6,0,1.1,0.1,1.5,0.4c0.4,0.3,0.8,0.7,1,1.2c0.3,0.5,0.4,1.2,0.4,1.9s-0.1,1.4-0.4,1.9
		c-0.3,0.5-0.6,1-1,1.2c-0.4,0.3-0.9,0.4-1.5,0.4C21.4,88.4,20.9,88.2,20.4,87.9z M23.1,86.6c0.3-0.4,0.4-1,0.4-1.9
		s-0.1-1.4-0.4-1.9c-0.3-0.4-0.7-0.6-1.2-0.6c-0.5,0-0.9,0.2-1.2,0.6c-0.3,0.4-0.4,1-0.4,1.9s0.1,1.4,0.4,1.9s0.7,0.6,1.2,0.6
		C22.4,87.2,22.8,87,23.1,86.6z"/>
</g>
<g>
	<path class="st36" d="M18,55.5c0.2,0.3,0.3,0.6,0.3,1c0,0.4-0.1,0.8-0.4,1.1c-0.2,0.3-0.6,0.6-1,0.7c-0.4,0.2-0.9,0.3-1.5,0.3
		s-1.1-0.1-1.5-0.3c-0.4-0.2-0.8-0.4-1-0.7c-0.2-0.3-0.3-0.7-0.3-1.1c0-0.4,0.1-0.7,0.3-1c0.2-0.3,0.5-0.5,0.8-0.7
		c-0.3-0.2-0.5-0.4-0.6-0.6s-0.2-0.5-0.2-0.9c0-0.4,0.1-0.7,0.3-1c0.2-0.3,0.5-0.5,0.9-0.7c0.4-0.2,0.8-0.2,1.4-0.2
		c0.5,0,1,0.1,1.4,0.2c0.4,0.2,0.7,0.4,0.9,0.7c0.2,0.3,0.3,0.6,0.3,1c0,0.3-0.1,0.6-0.2,0.9s-0.4,0.5-0.7,0.6
		C17.5,55,17.8,55.2,18,55.5z M16.6,57.3c0.3-0.2,0.4-0.5,0.4-0.8c0-0.3-0.1-0.6-0.4-0.8c-0.3-0.2-0.7-0.3-1.1-0.3s-0.9,0.1-1.1,0.3
		c-0.3,0.2-0.4,0.5-0.4,0.8c0,0.4,0.1,0.6,0.4,0.8c0.3,0.2,0.6,0.3,1.1,0.3S16.3,57.5,16.6,57.3z M14.5,52.7
		c-0.2,0.2-0.4,0.4-0.4,0.7c0,0.3,0.1,0.5,0.4,0.7c0.2,0.2,0.6,0.3,1,0.3c0.4,0,0.7-0.1,1-0.3c0.2-0.2,0.4-0.4,0.4-0.7
		c0-0.3-0.1-0.6-0.4-0.7c-0.2-0.2-0.6-0.3-1-0.3S14.7,52.5,14.5,52.7z"/>
	<path class="st36" d="M20.6,58.2c-0.4-0.3-0.8-0.7-1-1.2c-0.3-0.5-0.4-1.2-0.4-1.9s0.1-1.4,0.4-1.9c0.3-0.5,0.6-1,1-1.2
		c0.4-0.3,0.9-0.4,1.5-0.4c0.6,0,1.1,0.1,1.5,0.4c0.4,0.3,0.8,0.7,1,1.2c0.3,0.5,0.4,1.2,0.4,1.9s-0.1,1.4-0.4,1.9
		c-0.3,0.5-0.6,1-1,1.2c-0.4,0.3-0.9,0.4-1.5,0.4C21.5,58.6,21,58.5,20.6,58.2z M23.3,56.8c0.3-0.4,0.4-1,0.4-1.9s-0.1-1.4-0.4-1.9
		c-0.3-0.4-0.7-0.6-1.2-0.6c-0.5,0-0.9,0.2-1.2,0.6c-0.3,0.4-0.4,1-0.4,1.9s0.1,1.4,0.4,1.9s0.7,0.6,1.2,0.6
		C22.6,57.5,23,57.3,23.3,56.8z"/>
</g>
<g>
	<path class="st37" d="M21.9,19.4l2.1-1.2l3.4,0.9c0.3,0.1,0.5-0.1,0.6-0.3c0.1-0.3-0.1-0.5-0.3-0.6l-2.4-0.7l1.8-1
		c0.2-0.1,0.3-0.4,0.2-0.7c-0.1-0.2-0.4-0.3-0.7-0.2l-1.8,1l0.7-2.4c0.1-0.3-0.1-0.5-0.3-0.6c-0.3-0.1-0.5,0.1-0.6,0.3l-0.9,3.4
		l-2.1,1.2l-2.1-1.2v-2.4l2.5-2.5c0.2-0.2,0.2-0.5,0-0.7c-0.2-0.2-0.5-0.2-0.7,0l-1.8,1.8v-2.1c0-0.3-0.2-0.5-0.5-0.5
		c-0.3,0-0.5,0.2-0.5,0.5v2.1l-1.8-1.8c-0.2-0.2-0.5-0.2-0.7,0c-0.2,0.2-0.2,0.5,0,0.7l2.5,2.5v2.4l-2.1,1.2l-2.1-1.2L13.2,14
		c-0.1-0.3-0.3-0.4-0.6-0.3c-0.3,0.1-0.4,0.3-0.3,0.6l0.7,2.4l-1.8-1c-0.2-0.1-0.5-0.1-0.7,0.2c-0.1,0.2-0.1,0.5,0.2,0.7l1.8,1
		l-2.4,0.7c-0.3,0.1-0.4,0.3-0.3,0.6c0.1,0.3,0.3,0.4,0.6,0.3l3.4-0.9l2.1,1.2v2.5l-2.1,1.2l-3.4-0.9c-0.3-0.1-0.5,0.1-0.6,0.3
		c-0.1,0.3,0.1,0.5,0.3,0.6l2.4,0.7l-1.8,1c-0.2,0.1-0.3,0.4-0.2,0.7c0.1,0.2,0.4,0.3,0.7,0.2l1.8-1l-0.7,2.4
		c-0.1,0.3,0.1,0.5,0.3,0.6c0.3,0.1,0.5-0.1,0.6-0.3l0.9-3.4l2.1-1.2l2.1,1.2v2.4l-2.5,2.5c-0.2,0.2-0.2,0.5,0,0.7
		c0.2,0.2,0.5,0.2,0.7,0l1.8-1.8v2.1c0,0.3,0.2,0.5,0.5,0.5c0.3,0,0.5-0.2,0.5-0.5v-2.1l1.8,1.8c0.2,0.2,0.5,0.2,0.7,0
		c0.2-0.2,0.2-0.5,0-0.7l-2.5-2.5V24l2.1-1.2l2.1,1.2c0,0,0.9,3.4,0.9,3.4c0.1,0.3,0.3,0.4,0.6,0.3c0.3-0.1,0.4-0.3,0.3-0.6
		l-0.7-2.4c0,0,1.8,1,1.8,1c0.2,0.1,0.5,0.1,0.7-0.2c0.1-0.2,0.1-0.5-0.2-0.7l-1.8-1l2.4-0.7c0.3-0.1,0.4-0.3,0.3-0.6
		c-0.1-0.3-0.3-0.4-0.6-0.3L24,23.1l-2.1-1.2C21.9,21.9,21.9,19.4,21.9,19.4z M20.9,21.9l-2.1,1.2l-2.1-1.2v-2.5l2.1-1.2l2.1,1.2
		V21.9z"/>
</g>
<g>
	<path class="st36" d="M14.3,615.6c-0.4-0.3-0.8-0.7-1-1.2c-0.3-0.5-0.4-1.2-0.4-1.9c0-0.7,0.1-1.4,0.4-1.9c0.3-0.5,0.6-1,1-1.2
		c0.4-0.3,0.9-0.4,1.5-0.4c0.6,0,1.1,0.1,1.5,0.4s0.8,0.7,1,1.2c0.3,0.5,0.4,1.2,0.4,1.9c0,0.7-0.1,1.4-0.4,1.9
		c-0.3,0.5-0.6,1-1,1.2c-0.4,0.3-0.9,0.4-1.5,0.4C15.3,616,14.8,615.9,14.3,615.6z M17,614.3c0.3-0.4,0.4-1,0.4-1.9
		c0-0.8-0.1-1.4-0.4-1.8s-0.7-0.6-1.2-0.6c-0.5,0-0.9,0.2-1.2,0.6s-0.4,1-0.4,1.8c0,0.8,0.1,1.4,0.4,1.9c0.3,0.4,0.7,0.6,1.2,0.6
		C16.3,614.9,16.7,614.7,17,614.3z"/>
	<path class="st36" d="M19.7,615.8c-0.2-0.2-0.2-0.4-0.2-0.6c0-0.2,0.1-0.4,0.2-0.6c0.2-0.2,0.4-0.2,0.6-0.2s0.4,0.1,0.6,0.2
		c0.2,0.2,0.2,0.4,0.2,0.6c0,0.2-0.1,0.4-0.2,0.6c-0.2,0.2-0.4,0.2-0.6,0.2S19.9,615.9,19.7,615.8z"/>
	<path class="st36" d="M24.2,608.9v7h-1.3V610h-1.5v-1.1H24.2z"/>
</g>
</svg>
