<?xml version="1.0" encoding="utf-8"?>
<!-- Generator: Adobe Illustrator 28.0.0, SVG Export Plug-In . SVG Version: 6.00 Build 0)  -->
<svg version="1.1" id="Livello_1" xmlns="http://www.w3.org/2000/svg" xmlns:xlink="http://www.w3.org/1999/xlink" x="0px" y="0px"
	width="40.8px" height="725.2px" viewBox="0 0 40.8 725.2" style="enable-background:new 0 0 40.8 725.2;" xml:space="preserve">
<style type="text/css">
	.st0{clip-path:url(#SVGID_00000138536438992994598840000011899667961454647455_);}
	.st1{fill:#684F05;}
	.st2{clip-path:url(#SVGID_00000064347172462103102210000011296712917593239942_);}
	.st3{fill:#530A4D;}
	.st4{clip-path:url(#SVGID_00000159441518361728199980000015035638369245308581_);}
	.st5{fill:#80115B;}
	.st6{clip-path:url(#SVGID_00000138550158933629502450000014754923000728095676_);}
	.st7{clip-path:url(#SVGID_00000069363635720216174110000004163228910899128985_);}
	.st8{fill:#F7EC31;}
	.st9{clip-path:url(#SVGID_00000106130925677096262410000011483837635935082927_);}
	.st10{fill:#AC7283;}
	.st11{clip-path:url(#SVGID_00000093873944967526194160000006172819722773480105_);}
	.st12{fill:#A3A3A3;}
	.st13{clip-path:url(#SVGID_00000139296197492488228750000010966965213776645528_);}
	.st14{fill:#89BF73;}
	.st15{clip-path:url(#SVGID_00000023280739265740419030000004219417063500645257_);}
	.st16{fill:#4D7E3A;}
	.st17{clip-path:url(#SVGID_00000150788103802410757910000008785936104629309353_);}
	.st18{fill:#3F5736;}
	.st19{clip-path:url(#SVGID_00000131366360047281144510000008167179499977622425_);}
	.st20{fill:#C398A6;}
	.st21{fill:#E0E0E0;}
	.st22{fill:#C2C2C2;}
	.st23{fill:#FFFFFF;}
	.st24{fill:none;stroke:#3C3430;stroke-miterlimit:9.7722;}
	.st25{fill:#39322E;}
	.st26{fill:none;stroke:#3C3430;stroke-width:2;stroke-miterlimit:9.7722;}
</style>
<g>
	<g>
		<g>
			<defs>
				<path id="SVGID_1_" d="M39.6,716.9c-0.5,5.3-10.1,11.6-18.5,11.6l0,0c-8.2,0.6-19.5-5.2-19.5-11.6L2-123.3
					c1.7-7.6,11.3-8.2,17.8-8.2l0,0c7.7,0,17.9-0.5,19.6,12.5L39.6,716.9L39.6,716.9z"/>
			</defs>
			<clipPath id="SVGID_00000103956882823942171840000013851340099052689313_">
				<use xlink:href="#SVGID_1_"  style="overflow:visible;"/>
			</clipPath>
			<g style="clip-path:url(#SVGID_00000103956882823942171840000013851340099052689313_);">
				<g>
					<g>
						<path class="st1" d="M9.1,43.9h22.2c5,0,9,4,9,9V102H2V51C2,47.1,5.2,43.9,9.1,43.9z"/>
					</g>
				</g>
			</g>
		</g>
	</g>
	<g>
		<g>
			<defs>
				<path id="SVGID_00000001628067633683547970000011389451695960193666_" d="M39.6,716.9c-0.5,5.3-10.1,11.6-18.5,11.6l0,0
					c-8.2,0.6-19.5-5.2-19.5-11.6L2-124c1.7-7.6,11.3-7.6,17.8-7.6l0,0c7.7,0,18-0.7,19.6,12.5L39.6,716.9L39.6,716.9z"/>
			</defs>
			<clipPath id="SVGID_00000020399622031825745310000011644060599717776295_">
				<use xlink:href="#SVGID_00000001628067633683547970000011389451695960193666_"  style="overflow:visible;"/>
			</clipPath>
			<g style="clip-path:url(#SVGID_00000020399622031825745310000011644060599717776295_);">
				<g>
					<g>
						<rect x="-23.3" y="102" class="st3" width="100.4" height="58.1"/>
					</g>
				</g>
			</g>
		</g>
		<g>
			<defs>
				<path id="SVGID_00000125604246091441223610000009768237698482014349_" d="M39.6,716.9c-0.5,5.3-10.1,11.6-18.5,11.6l0,0
					c-8.2,0.6-19.5-5.2-19.5-11.6L2-124c1.7-7.6,11.3-7.6,17.8-7.6l0,0c7.7,0,18-0.7,19.6,12.5L39.6,716.9L39.6,716.9z"/>
			</defs>
			<clipPath id="SVGID_00000046297190775976249100000014916417109476636586_">
				<use xlink:href="#SVGID_00000125604246091441223610000009768237698482014349_"  style="overflow:visible;"/>
			</clipPath>
			<g style="clip-path:url(#SVGID_00000046297190775976249100000014916417109476636586_);">
				<g>
					<g>
						<rect x="-30.2" y="160.1" class="st5" width="100.4" height="58.1"/>
					</g>
				</g>
			</g>
		</g>
	</g>
	<g>
		<g>
			<defs>
				<path id="SVGID_00000089561633663127051120000013994970820031954307_" d="M39.5-119l0.2,836l0,0c-0.5,5.3-10.1,11.6-18.5,11.6
					l0,0C13,729.2,1.7,723.4,1.7,717"/>
			</defs>
			<clipPath id="SVGID_00000133489377261972856940000018225882230156048048_">
				<use xlink:href="#SVGID_00000089561633663127051120000013994970820031954307_"  style="overflow:visible;"/>
			</clipPath>
		</g>
		<g>
			<defs>
				<path id="SVGID_00000093170816722140798450000010200993460185141414_" d="M39.5-119l0.2,836l0,0c-0.5,5.3-10.1,11.6-18.5,11.6
					l0,0C13,729.2,1.7,723.4,1.7,717"/>
			</defs>
			<defs>
				<line id="SVGID_00000080187069458221791960000000269141389916039611_" x1="19.8" y1="-131.5" x2="19.8" y2="-131.5"/>
			</defs>
			<clipPath id="SVGID_00000030485813564069429580000011948798020789395870_">
				<use xlink:href="#SVGID_00000093170816722140798450000010200993460185141414_"  style="overflow:visible;"/>
			</clipPath>
			
				<clipPath id="SVGID_00000076590230811999107440000011235253087729318825_" style="clip-path:url(#SVGID_00000030485813564069429580000011948798020789395870_);">
				<use xlink:href="#SVGID_00000080187069458221791960000000269141389916039611_"  style="overflow:visible;"/>
			</clipPath>
			<g style="clip-path:url(#SVGID_00000076590230811999107440000011235253087729318825_);">
				<g>
					<g>
						<rect x="-23.3" y="160" class="st8" width="100.4" height="58.1"/>
					</g>
				</g>
			</g>
		</g>
	</g>
	<g>
		<g>
			<defs>
				<path id="SVGID_00000078024680807901083920000002530202338337224099_" d="M39.5-119l0.2,836l0,0c-0.5,5.3-10.1,11.6-18.5,11.6
					l0,0C13,729.2,1.7,723.4,1.7,717v-839.8c1.7-7.6,11.7-8.6,18.2-8.6l0,0"/>
			</defs>
			<clipPath id="SVGID_00000119085258740339421260000016110948179509503623_">
				<use xlink:href="#SVGID_00000078024680807901083920000002530202338337224099_"  style="overflow:visible;"/>
			</clipPath>
			<g style="clip-path:url(#SVGID_00000119085258740339421260000016110948179509503623_);">
				<g>
					<g>
						<rect x="-23.3" y="218.1" class="st10" width="100.4" height="58.1"/>
					</g>
				</g>
			</g>
		</g>
	</g>
	<g>
		<g>
			<defs>
				<path id="SVGID_00000096020726071776150120000004334007705283094184_" d="M39.6,716.9c-0.5,5.3-10.1,11.6-18.5,11.6l0,0
					c-8.2,0.6-19.5-5.2-19.5-11.6v-840.6c1.7-7.6,11.7-7.8,18.2-7.8l0,0c7.7,0,18.2-0.5,19.6,12.5L39.6,716.9L39.6,716.9z"/>
			</defs>
			<clipPath id="SVGID_00000088117040167716824580000006556960391055346334_">
				<use xlink:href="#SVGID_00000096020726071776150120000004334007705283094184_"  style="overflow:visible;"/>
			</clipPath>
			<g style="clip-path:url(#SVGID_00000088117040167716824580000006556960391055346334_);">
				<g>
					<g>
						<rect x="-22.1" y="450.5" class="st12" width="100.4" height="58.1"/>
					</g>
				</g>
			</g>
		</g>
	</g>
	<g>
		<g>
			<defs>
				<path id="SVGID_00000005958810139014310810000004897583171841131966_" d="M39.6,716.9c-0.5,5.3-10.1,11.6-18.5,11.6l0,0
					c-8.2,0.6-19.5-5.2-19.5-11.6v-840.6c1.7-7.6,11.7-7.8,18.2-7.8l0,0c7.7,0,18.2-1.3,19.6,12.5L39.6,716.9L39.6,716.9z"/>
			</defs>
			<clipPath id="SVGID_00000116931682341585461580000007932369546715118244_">
				<use xlink:href="#SVGID_00000005958810139014310810000004897583171841131966_"  style="overflow:visible;"/>
			</clipPath>
			<g style="clip-path:url(#SVGID_00000116931682341585461580000007932369546715118244_);">
				<g>
					<g>
						<rect x="-22.1" y="508.5" class="st14" width="100.4" height="58.1"/>
					</g>
				</g>
			</g>
		</g>
	</g>
	<g>
		<g>
			<defs>
				<path id="SVGID_00000104675494462782695890000006603813363128115587_" d="M39.6,716.9c-0.5,5.3-10.1,11.6-18.5,11.6l0,0
					c-8.2,0.6-19.5-5.2-19.5-11.6v-836.2c-0.2-19.4,11.7-12.4,18.2-12.2l0,0c7.7,0,18.3-0.7,19.6,12.5L39.6,716.9L39.6,716.9z"/>
			</defs>
			<clipPath id="SVGID_00000014593670570002572460000017859565315684512427_">
				<use xlink:href="#SVGID_00000104675494462782695890000006603813363128115587_"  style="overflow:visible;"/>
			</clipPath>
			<g style="clip-path:url(#SVGID_00000014593670570002572460000017859565315684512427_);">
				<g>
					<g>
						<rect x="-21.1" y="566.6" class="st16" width="100.4" height="58.1"/>
					</g>
				</g>
			</g>
		</g>
	</g>
	<g>
		<g>
			<defs>
				<path id="SVGID_00000065790483870104191540000017749254107414950555_" d="M39.2,719.7c-0.4,5.3-10,4.3-18.4,4.3l0,0
					c-8.2,0.6-19.1,0.1-19.1-7l0.4-842.2c1.7-7.6,11.3-6.2,17.8-6.2l0,0c7.7,0,17.7,0.4,19.6,8.4l0.2,840L39.2,719.7z"/>
			</defs>
			<clipPath id="SVGID_00000153678859486640028070000006125937982362583442_">
				<use xlink:href="#SVGID_00000065790483870104191540000017749254107414950555_"  style="overflow:visible;"/>
			</clipPath>
			<g style="clip-path:url(#SVGID_00000153678859486640028070000006125937982362583442_);">
				<g>
					<g>
						<rect x="-21.4" y="624.7" class="st18" width="100.4" height="100.3"/>
					</g>
				</g>
			</g>
		</g>
	</g>
	<g>
		<g>
			<defs>
				<path id="SVGID_00000004505243128054230860000010282530162782485635_" d="M20.8,721.4L20.8,721.4c-8.2,0.6-19.2,1.9-19.2-4.5
					L2-124c1.7-7.6,11.3-7.6,17.8-7.6l0,0c7.7,0,17.2,0.9,19.1,8.9l0.7,839.5"/>
			</defs>
			<clipPath id="SVGID_00000136407509711180192990000008557399554631907993_">
				<use xlink:href="#SVGID_00000004505243128054230860000010282530162782485635_"  style="overflow:visible;"/>
			</clipPath>
			<g style="clip-path:url(#SVGID_00000136407509711180192990000008557399554631907993_);">
				<g>
					<g>
						<rect x="-22.1" y="276.2" class="st20" width="100.4" height="58.1"/>
					</g>
				</g>
			</g>
		</g>
	</g>
	<g>
		<g>
			<g>
				<g>
					<rect x="1.6" y="334.2" class="st21" width="38" height="58.1"/>
				</g>
			</g>
		</g>
	</g>
	<g>
		<g>
			<g>
				<g>
					<rect x="2.4" y="392.4" class="st22" width="36.7" height="58.1"/>
				</g>
			</g>
		</g>
	</g>
</g>
<g>
	<path class="st23" d="M14.8,622.3c0.5-0.7,1.3-1,2.3-1s1.8,0.3,2.3,1s0.8,1.7,0.8,3.2s-0.3,2.5-0.8,3.1s-1.3,0.9-2.3,0.9
		s-1.8-0.3-2.3-0.9c-0.5-0.6-0.8-1.7-0.8-3.1S14.3,623,14.8,622.3z M18.5,625.4c0-1-0.1-1.7-0.3-2.1c-0.2-0.4-0.6-0.6-1-0.6
		s-0.8,0.2-1.1,0.6c-0.2,0.4-0.3,1.1-0.3,2.1s0.1,1.7,0.3,2.1c0.2,0.4,0.6,0.6,1.1,0.6s0.8-0.2,1-0.6S18.5,626.4,18.5,625.4z"/>
	<path class="st23" d="M21.2,629.4v-2h1.7v2H21.2z"/>
	<path class="st23" d="M29.4,621.5v1.4h-3.5l-0.2,1.7c0.5-0.2,1-0.3,1.4-0.3c1.7,0,2.6,0.8,2.6,2.4c0,0.9-0.2,1.6-0.7,2.1
		s-1.1,0.7-2,0.7c-0.4,0-0.8,0-1.3-0.1s-0.8-0.1-1.1-0.2l-0.4-0.1l0.2-1.2c1,0.2,1.8,0.2,2.4,0.2c0.4,0,0.7-0.1,0.9-0.3
		c0.2-0.2,0.3-0.5,0.3-0.9s-0.1-0.7-0.3-0.8s-0.4-0.3-0.7-0.3c-0.5,0-1,0.1-1.4,0.2h-0.2l-1-0.2l0.2-4.3L29.4,621.5L29.4,621.5z"/>
</g>
<g>
	<path class="st23" d="M20.1,278.2H15v-1.4l1.7-1.7c0.6-0.6,1-1.1,1.3-1.4s0.4-0.7,0.4-1s-0.1-0.6-0.3-0.8c-0.2-0.2-0.5-0.2-0.8-0.2
		c-0.5,0-1.1,0-1.8,0.1h-0.3l-0.1-1.3c0.8-0.2,1.6-0.4,2.4-0.4c1.7,0,2.5,0.8,2.5,2.3c0,0.6-0.1,1.1-0.4,1.5s-0.7,1-1.4,1.6
		l-1.4,1.2h3.3V278.2z"/>
	<path class="st23" d="M21.9,271.1c0.5-0.7,1.3-1,2.3-1s1.8,0.3,2.3,1s0.8,1.7,0.8,3.2s-0.3,2.5-0.8,3.1s-1.3,0.9-2.3,0.9
		s-1.8-0.3-2.3-0.9s-0.8-1.7-0.8-3.1S21.4,271.7,21.9,271.1z M25.6,274.2c0-1-0.1-1.7-0.3-2.1c-0.2-0.4-0.6-0.6-1-0.6
		c-0.5,0-0.8,0.2-1.1,0.6c-0.2,0.4-0.3,1.1-0.3,2.1s0.1,1.7,0.3,2.1c0.2,0.4,0.6,0.6,1.1,0.6s0.8-0.2,1-0.6S25.6,275.2,25.6,274.2z"
		/>
</g>
<g>
	<path class="st23" d="M13.8,213.1c0.7-0.3,1.6-0.4,2.5-0.4c0.9,0,1.6,0.2,2,0.5s0.6,0.9,0.6,1.7s-0.3,1.4-0.9,1.8
		c0.4,0.2,0.7,0.4,0.8,0.6s0.2,0.6,0.2,1.1c0,0.9-0.2,1.5-0.6,1.9s-1.1,0.6-2.1,0.6c-0.7,0-1.4-0.1-2.2-0.3l-0.4-0.1l0.1-1.3
		c0.9,0.2,1.6,0.2,2.3,0.2c0.8,0,1.2-0.4,1.2-1.1c0-0.3-0.1-0.5-0.3-0.7c-0.2-0.2-0.5-0.3-0.8-0.3h-1.6V216h1.6
		c0.3,0,0.5-0.1,0.7-0.3s0.3-0.5,0.3-0.7c0-0.6-0.4-0.9-1.2-0.9c-0.6,0-1.1,0.1-1.8,0.2h-0.3L13.8,213.1z"/>
	<path class="st23" d="M20.9,213.6c0.5-0.7,1.3-1,2.3-1s1.8,0.3,2.3,1s0.8,1.7,0.8,3.2s-0.3,2.5-0.8,3.1s-1.3,0.9-2.3,0.9
		s-1.8-0.3-2.3-0.9s-0.8-1.7-0.8-3.1S20.3,214.3,20.9,213.6z M24.5,216.8c0-1-0.1-1.7-0.3-2.1c-0.2-0.4-0.6-0.6-1-0.6
		c-0.5,0-0.8,0.2-1.1,0.6c-0.2,0.4-0.3,1.1-0.3,2.1s0.1,1.7,0.3,2.1c0.2,0.4,0.6,0.6,1.1,0.6s0.8-0.2,1-0.6S24.5,217.7,24.5,216.8z"
		/>
</g>
<g>
	<path class="st23" d="M15.4,97.6v7.9h-1.7v-6l-1.7,1.1l-0.8-1.2l2.6-1.7h1.6V97.6z"/>
	<path class="st23" d="M18.1,98.4c0.5-0.7,1.3-1,2.3-1s1.8,0.3,2.3,1s0.8,1.7,0.8,3.2s-0.3,2.5-0.8,3.1c-0.5,0.6-1.3,0.9-2.3,0.9
		s-1.8-0.3-2.3-0.9c-0.5-0.6-0.8-1.7-0.8-3.1C17.3,100.1,17.6,98.9,18.1,98.4z M21.8,101.4c0-1-0.1-1.7-0.3-2.1
		c-0.2-0.4-0.6-0.6-1-0.6s-0.8,0.2-1.1,0.6c-0.2,0.4-0.3,1.1-0.3,2.1s0.1,1.7,0.3,2.1c0.2,0.4,0.6,0.6,1.1,0.6s0.8-0.2,1-0.6
		C21.7,103.1,21.8,102.4,21.8,101.4z"/>
	<path class="st23" d="M24.9,98.4c0.5-0.7,1.3-1,2.3-1s1.8,0.3,2.3,1s0.8,1.7,0.8,3.2s-0.3,2.5-0.8,3.1c-0.5,0.6-1.3,0.9-2.3,0.9
		s-1.8-0.3-2.3-0.9c-0.5-0.6-0.8-1.7-0.8-3.1C24.1,100.1,24.3,98.9,24.9,98.4z M28.5,101.4c0-1-0.1-1.7-0.3-2.1
		c-0.2-0.4-0.6-0.6-1-0.6s-0.8,0.2-1.1,0.6c-0.2,0.4-0.3,1.1-0.3,2.1s0.1,1.7,0.3,2.1c0.2,0.4,0.6,0.6,1.1,0.6s0.8-0.2,1-0.6
		C28.4,103.1,28.5,102.4,28.5,101.4z"/>
</g>
<line class="st24" x1="1.9" y1="624.7" x2="13.3" y2="624.7"/>
<line class="st24" x1="39" y1="624.7" x2="30.7" y2="624.7"/>
<line class="st24" x1="2.6" y1="275.9" x2="15.3" y2="275.9"/>
<line class="st24" x1="39.3" y1="276" x2="28.1" y2="276"/>
<line class="st24" x1="2.5" y1="218.5" x2="13.3" y2="218.5"/>
<line class="st24" x1="38.3" y1="218.5" x2="27.4" y2="218.5"/>
<line class="st24" x1="12.3" y1="102.2" x2="1.3" y2="102.2"/>
<line class="st24" x1="38.4" y1="102.4" x2="30.7" y2="102.4"/>
<g>
	<path class="st23" d="M22.8,561.5v7.9h-1.7v-6l-1.7,1.1l-0.8-1.2l2.6-1.7L22.8,561.5L22.8,561.5z"/>
</g>
<line class="st24" x1="2.4" y1="566.5" x2="16.3" y2="566.5"/>
<line class="st24" x1="38.8" y1="566.5" x2="25.4" y2="566.5"/>
<g>
	<path class="st23" d="M24,511.3h-5.1v-1.4l1.7-1.7c0.6-0.6,1-1.1,1.3-1.4c0.2-0.3,0.4-0.7,0.4-1s-0.1-0.6-0.3-0.8
		c-0.2-0.2-0.5-0.2-0.8-0.2c-0.5,0-1.1,0-1.8,0.1h-0.3l-0.1-1.3c0.8-0.2,1.6-0.4,2.4-0.4c1.7,0,2.5,0.8,2.5,2.3
		c0,0.6-0.1,1.1-0.4,1.5s-0.7,1-1.4,1.6l-1.4,1.2H24V511.3z"/>
</g>
<line class="st24" x1="2.7" y1="508.4" x2="16.6" y2="508.4"/>
<line class="st24" x1="39.1" y1="508.4" x2="25.7" y2="508.4"/>
<g>
	<g>
		<path class="st25" d="M23.5,445.5v1.4H20l-0.2,1.7c0.5-0.2,1-0.3,1.4-0.3c1.7,0,2.6,0.8,2.6,2.4c0,0.9-0.2,1.6-0.7,2.1
			s-1.1,0.7-2,0.7c-0.4,0-0.8,0-1.3-0.1s-0.8-0.1-1.1-0.2l-0.4-0.1l0.2-1.2c1,0.2,1.8,0.2,2.4,0.2c0.4,0,0.7-0.1,0.9-0.3
			c0.2-0.2,0.3-0.5,0.3-0.9s-0.1-0.7-0.3-0.8s-0.4-0.3-0.7-0.3c-0.5,0-1,0.1-1.4,0.2h-0.2l-1-0.2l0.2-4.3L23.5,445.5L23.5,445.5z"/>
	</g>
</g>
<line class="st24" x1="2.2" y1="450.5" x2="16.1" y2="450.5"/>
<line class="st24" x1="38.6" y1="450.5" x2="25.2" y2="450.5"/>
<g>
	<path class="st25" d="M19.7,387.6v7.9H18v-6l-1.7,1.1l-0.8-1.2l2.6-1.7L19.7,387.6L19.7,387.6z"/>
	<path class="st25" d="M22.4,388.4c0.5-0.7,1.3-1,2.3-1s1.8,0.3,2.3,1s0.8,1.7,0.8,3.2s-0.3,2.5-0.8,3.1s-1.3,0.9-2.3,0.9
		s-1.8-0.3-2.3-0.9s-0.8-1.7-0.8-3.1S21.9,389.1,22.4,388.4z M26.1,391.6c0-1-0.1-1.7-0.3-2.1c-0.2-0.4-0.6-0.6-1-0.6
		c-0.5,0-0.8,0.2-1.1,0.6c-0.2,0.4-0.3,1.1-0.3,2.1s0.1,1.7,0.3,2.1c0.2,0.4,0.6,0.6,1.1,0.6s0.8-0.2,1-0.6S26.1,392.6,26.1,391.6z"
		/>
</g>
<line class="st24" x1="3" y1="392.4" x2="15.3" y2="392.4"/>
<line class="st24" x1="39.4" y1="392.4" x2="28.8" y2="392.4"/>
<g>
	<path class="st25" d="M18.9,329.4v7.9h-1.7v-6l-1.7,1.1l-0.8-1.2l2.6-1.7L18.9,329.4L18.9,329.4z"/>
	<path class="st25" d="M26.5,329.4v1.4H23l-0.2,1.7c0.5-0.2,1-0.3,1.4-0.3c1.7,0,2.6,0.8,2.6,2.4c0,0.9-0.2,1.6-0.7,2.1
		s-1.1,0.7-2,0.7c-0.4,0-0.8,0-1.3-0.1s-0.8-0.1-1.1-0.2l-0.4-0.1l0.2-1.2c1,0.2,1.8,0.2,2.4,0.2c0.4,0,0.7-0.1,0.9-0.3
		c0.2-0.2,0.3-0.5,0.3-0.9s-0.1-0.7-0.3-0.8s-0.4-0.3-0.7-0.3c-0.5,0-1,0.1-1.4,0.2h-0.2l-1-0.2l0.2-4.3L26.5,329.4L26.5,329.4z"/>
</g>
<line class="st24" x1="2.2" y1="334.2" x2="14.6" y2="334.2"/>
<line class="st24" x1="38.6" y1="334.2" x2="28" y2="334.2"/>
<g>
	<path class="st23" d="M18.7,154v1.4h-3.5l-0.2,1.7c0.5-0.2,1-0.3,1.4-0.3c1.7,0,2.6,0.8,2.6,2.4c0,0.9-0.2,1.6-0.7,2.1
		s-1.1,0.7-2,0.7c-0.4,0-0.8,0-1.3-0.1s-0.8-0.1-1.1-0.2l-0.4-0.1l0.2-1.2c1,0.2,1.8,0.2,2.4,0.2c0.4,0,0.7-0.1,0.9-0.3
		c0.2-0.2,0.3-0.5,0.3-0.9s-0.1-0.7-0.3-0.8s-0.4-0.3-0.7-0.3c-0.5,0-1,0.1-1.4,0.2h-0.2l-1-0.2l0.2-4.3L18.7,154L18.7,154z"/>
	<path class="st23" d="M20.6,154.9c0.5-0.7,1.3-1,2.3-1s1.8,0.3,2.3,1s0.8,1.7,0.8,3.2s-0.3,2.5-0.8,3.1s-1.3,0.9-2.3,0.9
		s-1.8-0.3-2.3-0.9s-0.8-1.7-0.8-3.1S20.1,155.5,20.6,154.9z M24.3,158c0-1-0.1-1.7-0.3-2.1c-0.2-0.4-0.6-0.6-1-0.6
		c-0.5,0-0.8,0.2-1.1,0.6c-0.2,0.4-0.3,1.1-0.3,2.1s0.1,1.7,0.3,2.1c0.2,0.4,0.6,0.6,1.1,0.6s0.8-0.2,1-0.6S24.3,159,24.3,158z"/>
</g>
<line class="st24" x1="1.9" y1="159.8" x2="12.7" y2="159.8"/>
<line class="st24" x1="37.7" y1="159.8" x2="26.8" y2="159.8"/>
<g>
	<path class="st23" d="M17.2,714.2c0.3,0,0.7,0,1.3,0.1h0.3v0.7c-0.6-0.1-1.1-0.1-1.4-0.1c-0.7,0-1.1,0.2-1.4,0.5
		c-0.2,0.3-0.4,0.9-0.4,1.8s0.1,1.5,0.3,1.8s0.7,0.5,1.4,0.5l1.4-0.1v0.7c-0.7,0.1-1.3,0.2-1.7,0.2c-0.9,0-1.6-0.2-1.9-0.7
		c-0.4-0.5-0.5-1.3-0.5-2.4c0-1.1,0.2-1.9,0.6-2.4S16.3,714.2,17.2,714.2z"/>
	<path class="st23" d="M21.1,720.3h-0.9v-6h0.9v0.4c0.6-0.4,1.2-0.5,1.8-0.5c0.7,0,1.3,0.2,1.6,0.6c0.3-0.2,0.6-0.3,1-0.4
		s0.8-0.2,1.1-0.2c0.8,0,1.3,0.2,1.6,0.6c0.3,0.4,0.4,1.2,0.4,2.3v3.2h-0.9v-3.1c0-0.8-0.1-1.4-0.2-1.7c-0.2-0.3-0.5-0.5-1-0.5
		c-0.3,0-0.5,0-0.8,0.1s-0.5,0.2-0.6,0.2l-0.2,0.1c0.1,0.3,0.2,0.8,0.2,1.8v3.1H24v-3.1c0-0.9-0.1-1.5-0.2-1.8
		c-0.2-0.3-0.5-0.5-1-0.5c-0.3,0-0.5,0-0.8,0.1s-0.5,0.2-0.6,0.2l-0.2,0.1L21.1,720.3L21.1,720.3z"/>
</g>
<circle class="st25" cx="20.3" cy="21.3" r="19.8"/>
<path class="st26" d="M32.8,724H8.3c-3.4,0-6.2-3-6.2-6.7v-666c0-3.7,2.8-6.7,6.2-6.7h24.5c3.4,0,6.2,3,6.2,6.7v665.9
	C39,720.9,36.2,724,32.8,724z"/>
<g>
	<path class="st23" d="M25.6,19.1l3.5-2l5.6,1.5c0.5,0.2,0.8-0.2,1-0.5c0.2-0.5-0.2-0.8-0.5-1l-4-1.2l3-1.7c0.3-0.2,0.5-0.7,0.3-1.2
		c-0.2-0.3-0.7-0.5-1.2-0.3l-3,1.7l1.2-4c0.2-0.5-0.2-0.8-0.5-1c-0.5-0.2-0.8,0.2-1,0.5l-1.5,5.6l-3.5,2l-3.5-2v-4l4.1-4.1
		c0.3-0.3,0.3-0.8,0-1.2c-0.3-0.3-0.8-0.3-1.2,0l-3,3V5.9c0-0.5-0.3-0.8-0.8-0.8s-0.8,0.3-0.8,0.8v3.5l-3-3c-0.3-0.3-0.8-0.3-1.2,0
		c-0.3,0.3-0.3,0.8,0,1.2l4.1,4.1v4l-3.5,2l-3.5-2l-1.8-5.5c-0.2-0.5-0.5-0.7-1-0.5s-0.7,0.5-0.5,1l1.2,4l-3-1.7
		c-0.3-0.2-0.8-0.2-1.2,0.3c-0.2,0.3-0.2,0.8,0.3,1.2l3,1.7l-4,1.2c-0.5,0.2-0.7,0.5-0.5,1s0.5,0.7,1,0.5l5.6-1.5l3.5,2v4.1l-3.5,2
		L6.2,24c-0.5-0.2-0.8,0.2-1,0.5c-0.2,0.5,0.2,0.8,0.5,1l4,1.2l-3,1.7c-0.3,0.2-0.5,0.7-0.3,1.2c0.2,0.3,0.7,0.5,1.2,0.3l3-1.7
		l-1.2,4c-0.2,0.5,0.2,0.8,0.5,1c0.5,0.2,0.8-0.2,1-0.5l1.5-5.6l3.5-2l3.5,2v4L15.5,35c-0.3,0.3-0.3,0.8,0,1.2
		c0.3,0.3,0.8,0.3,1.2,0l3-3v3.5c0,0.5,0.3,0.8,0.8,0.8s0.8-0.3,0.8-0.8v-3.5l3,3c0.3,0.3,0.8,0.3,1.2,0c0.3-0.3,0.3-0.8,0-1.2
		l-4.1-4.1v-4.1l3.5-2l3.5,2l1.5,5.6c0.2,0.5,0.5,0.7,1,0.5s0.7-0.5,0.5-1l-1.2-4l3,1.7c0.3,0.2,0.8,0.2,1.2-0.3
		c0.2-0.3,0.2-0.8-0.3-1.2l-3-1.7l4-1.2c0.5-0.2,0.7-0.5,0.5-1s-0.5-0.7-1-0.5L29,25.3l-3.5-2v-4.2H25.6z M23.9,23.3l-3.5,2l-3.5-2
		v-4.1l3.5-2l3.5,2V23.3z"/>
</g>
</svg>
