<?xml version="1.0" encoding="utf-8"?>
<!-- Generator: Adobe Illustrator 28.0.0, SVG Export Plug-In . SVG Version: 6.00 Build 0)  -->
<svg version="1.1" id="Livello_1" xmlns="http://www.w3.org/2000/svg" xmlns:xlink="http://www.w3.org/1999/xlink" x="0px" y="0px"
	 width="38px" height="644px" viewBox="0 0 37.2 644.1" style="enable-background:new 0 0 37.2 644.1;" xml:space="preserve">
<style type="text/css">
	.st0{fill:#39322E;}
	.st1{clip-path:url(#SVGID_00000091007294683527845320000003380914628610220215_);}
	.st2{fill:#FFFFFF;}
	.st3{fill:#F2F2F2;}
	.st4{fill:#DADADA;}
	.st5{fill:#CDCDCD;}
	.st6{fill:#FEEDFF;}
	.st7{fill:#E7D8E8;}
	.st8{fill:#DBC5DD;}
	.st9{fill:#B68CBB;}
	.st10{fill:#B67BB9;}
	.st11{fill:#906192;}
	.st12{fill:none;stroke:#3C3430;stroke-width:2.9317;stroke-miterlimit:9.7722;}
	.st13{fill:#3C3530;}
	.st14{clip-path:url(#SVGID_00000173154316376123860870000012972371570943203249_);}
</style>
<g>
	<path class="st0" d="M13.7,633.9c-0.8-0.4-1.5-1-2-1.7s-0.7-1.6-0.7-2.6s0.2-1.8,0.7-2.6s1.2-1.3,2-1.7s1.8-0.7,2.9-0.7
		c0.8,0,1.6,0.1,2.3,0.4c0.7,0.3,1.3,0.7,1.7,1.2l-1.3,1.1c-0.7-0.8-1.6-1.2-2.8-1.2c-0.7,0-1.4,0.1-2,0.4c-0.6,0.3-1,0.7-1.3,1.2
		s-0.5,1.1-0.5,1.7s0.1,1.2,0.5,1.7c0.3,0.5,0.8,1,1.3,1.2c0.6,0.3,1.2,0.4,2,0.4c1,0,2-0.4,2.8-1.2l1.3,1.1c-0.5,0.5-1,1-1.7,1.2
		c-0.7,0.3-1.5,0.4-2.3,0.4C15.5,634.6,14.5,634.4,13.7,633.9z"/>
	<path class="st0" d="M23,628.9c-0.3-0.2-0.7-0.5-0.9-0.9c-0.2-0.3-0.3-0.8-0.3-1.2s0.1-0.9,0.3-1.2c0.2-0.3,0.6-0.7,0.9-0.9
		s0.8-0.3,1.3-0.3s0.9,0.1,1.3,0.3c0.3,0.2,0.7,0.5,0.9,0.9c0.2,0.3,0.3,0.8,0.3,1.2s-0.1,0.8-0.3,1.2c-0.2,0.3-0.6,0.7-0.9,0.9
		s-0.8,0.3-1.3,0.3S23.4,629.2,23,628.9z M25.3,628c0.2-0.2,0.5-0.7,0.5-1c0-0.4-0.1-0.8-0.5-1c-0.3-0.2-0.6-0.4-1-0.4
		s-0.8,0.1-1,0.4c-0.2,0.2-0.5,0.7-0.5,1c0,0.4,0.1,0.8,0.5,1c0.2,0.2,0.7,0.4,1,0.4C24.6,628.4,25.1,628.3,25.3,628z"/>
</g>
<circle class="st0" cx="18.6" cy="20.6" r="14.6"/>
<g>
	<defs>
		<path id="SVGID_1_" d="M30.4,632.1c-0.4,3.7-6.9,8.1-12.4,8.1l0,0c-5.5,0.4-13.1-3.6-13.1-8.1V49.3c1.2-5.4,7.8-8.5,12.3-8.4l0,0
			c5.2,0,11.9,3.2,13.3,8.7L30.4,632.1L30.4,632.1z"/>
	</defs>
	<clipPath id="SVGID_00000172423266466332108230000002613192698928143018_">
		<use xlink:href="#SVGID_1_"  style="overflow:visible;"/>
	</clipPath>
	<g style="clip-path:url(#SVGID_00000172423266466332108230000002613192698928143018_);">
		<g>
			<g>
				<rect x="-6.2" y="35.2" class="st2" width="52.3" height="57.9"/>
			</g>
		</g>
	</g>
	<g style="clip-path:url(#SVGID_00000172423266466332108230000002613192698928143018_);">
		<g>
			<g>
				<rect x="-6.2" y="93.1" class="st3" width="52.3" height="57.9"/>
			</g>
		</g>
	</g>
	<g style="clip-path:url(#SVGID_00000172423266466332108230000002613192698928143018_);">
		<g>
			<g>
				<rect x="-6.2" y="151" class="st4" width="52.3" height="57.9"/>
			</g>
		</g>
	</g>
	<g style="clip-path:url(#SVGID_00000172423266466332108230000002613192698928143018_);">
		<g>
			<g>
				<rect x="-6.2" y="209.1" class="st5" width="52.3" height="57.9"/>
			</g>
		</g>
	</g>
	<g style="clip-path:url(#SVGID_00000172423266466332108230000002613192698928143018_);">
		<g>
			<g>
				<rect x="-6.2" y="266.3" class="st6" width="52.3" height="57.9"/>
			</g>
		</g>
	</g>
	<g style="clip-path:url(#SVGID_00000172423266466332108230000002613192698928143018_);">
		<g>
			<g>
				<rect x="-6.2" y="324.4" class="st7" width="52.3" height="57.9"/>
			</g>
		</g>
	</g>
	<g style="clip-path:url(#SVGID_00000172423266466332108230000002613192698928143018_);">
		<g>
			<g>
				<rect x="-6.2" y="382.3" class="st8" width="52.3" height="57.9"/>
			</g>
		</g>
	</g>
	<g style="clip-path:url(#SVGID_00000172423266466332108230000002613192698928143018_);">
		<g>
			<g>
				<rect x="-6.2" y="440.2" class="st9" width="52.3" height="57.9"/>
			</g>
		</g>
	</g>
	<g style="clip-path:url(#SVGID_00000172423266466332108230000002613192698928143018_);">
		<g>
			<g>
				<rect x="-6.2" y="498.1" class="st10" width="52.3" height="58.1"/>
			</g>
		</g>
	</g>
	<g style="clip-path:url(#SVGID_00000172423266466332108230000002613192698928143018_);">
		<g>
			<g>
				<rect x="-6.2" y="556.2" class="st11" width="52.3" height="87.5"/>
			</g>
		</g>
	</g>
</g>
<path class="st12" d="M30.4,632.9C30,636.6,24,641,18.9,641l0,0c-5.1,0.4-12.1-3.6-12.1-8.1V49.3c1.1-5.4,7.2-8.5,11.4-8.4l0,0
	c4.8,0,11,3.2,12.3,8.7L30.4,632.9L30.4,632.9z"/>
<g>
	<path class="st2" d="M11.2,633.8c-0.5-0.3-0.9-0.6-1.1-1.1c-0.3-0.5-0.4-1-0.4-1.5c0-0.6,0.1-1.1,0.4-1.5c0.3-0.4,0.7-0.8,1.1-1.1
		c0.5-0.3,1-0.4,1.7-0.4c0.6,0,1.1,0.1,1.5,0.3s0.8,0.6,1,1l-1.1,0.6c-0.2-0.3-0.4-0.5-0.6-0.6c-0.3-0.1-0.5-0.2-0.8-0.2
		c-0.5,0-1,0.2-1.3,0.5s-0.5,0.8-0.5,1.3c0,0.6,0.2,1,0.5,1.3s0.8,0.5,1.3,0.5c0.3,0,0.6-0.1,0.8-0.2c0.3-0.1,0.5-0.3,0.6-0.6
		l1.1,0.6c-0.2,0.4-0.6,0.8-1,1s-1,0.4-1.5,0.4C12.3,634.1,11.7,634,11.2,633.8z"/>
	<path class="st2" d="M25.9,628.8c0.4,0.4,0.7,1.1,0.7,1.9v3.3h-1.4v-3.1c0-0.5-0.1-0.9-0.3-1.1c-0.2-0.3-0.6-0.4-1-0.4
		c-0.5,0-0.8,0.1-1.1,0.4c-0.3,0.3-0.4,0.7-0.4,1.3v2.9H21v-3.1c0-0.5-0.1-0.9-0.3-1.1c-0.2-0.3-0.6-0.4-1-0.4
		c-0.5,0-0.9,0.1-1.1,0.4c-0.3,0.3-0.4,0.7-0.4,1.3v2.9h-1.4v-5.8h1.3v0.7c0.2-0.3,0.5-0.5,0.8-0.6s0.7-0.2,1.1-0.2s0.8,0.1,1.2,0.2
		c0.3,0.2,0.6,0.4,0.8,0.7c0.2-0.3,0.6-0.5,1-0.7s0.8-0.3,1.3-0.3C24.9,628.2,25.5,628.4,25.9,628.8z"/>
</g>
<g>
	<path class="st2" d="M13.2,594.9c-0.4-0.3-0.8-0.7-1-1.2c-0.3-0.5-0.4-1.2-0.4-1.9s0.1-1.4,0.4-1.9c0.3-0.5,0.6-1,1-1.2
		c0.4-0.3,0.9-0.4,1.5-0.4s1.1,0.1,1.5,0.4s0.8,0.7,1,1.2c0.3,0.5,0.4,1.2,0.4,1.9s-0.1,1.4-0.4,1.9s-0.6,1-1,1.2
		c-0.4,0.2-0.9,0.4-1.5,0.4C14.2,595.3,13.7,595.2,13.2,594.9z M15.9,593.5c0.3-0.4,0.4-1,0.4-1.9s-0.1-1.4-0.4-1.9
		c-0.3-0.4-0.7-0.6-1.2-0.6s-0.9,0.2-1.2,0.6c-0.3,0.4-0.4,1-0.4,1.9s0.1,1.4,0.4,1.9c0.3,0.4,0.7,0.6,1.2,0.6
		C15.2,594.2,15.6,594,15.9,593.5z"/>
	<path class="st2" d="M18.6,595c-0.2-0.2-0.2-0.4-0.2-0.6c0-0.2,0.1-0.4,0.2-0.6c0.2-0.2,0.4-0.2,0.6-0.2s0.4,0.1,0.6,0.2
		c0.2,0.2,0.2,0.4,0.2,0.6c0,0.2-0.1,0.4-0.2,0.6c-0.1,0.2-0.4,0.2-0.6,0.2S18.8,595.2,18.6,595z"/>
	<path class="st2" d="M25.2,591.5c0.5,0.4,0.7,0.9,0.7,1.6c0,0.4-0.1,0.8-0.3,1.1c-0.2,0.3-0.5,0.6-0.9,0.8
		c-0.4,0.2-0.9,0.3-1.5,0.3c-0.5,0-1-0.1-1.5-0.2c-0.5-0.1-0.9-0.3-1.2-0.6l0.5-1c0.3,0.2,0.6,0.4,0.9,0.5c0.4,0.1,0.7,0.2,1.1,0.2
		c0.5,0,0.8-0.1,1.1-0.3c0.3-0.2,0.4-0.5,0.4-0.8c0-0.4-0.1-0.6-0.4-0.8s-0.8-0.3-1.5-0.3H21l0.4-3.8h4.1v1.1h-3l-0.2,1.6H23
		C24,590.9,24.8,591.1,25.2,591.5z"/>
</g>
<g>
	<path class="st13" d="M19.8,522.7v7h-1.3v-5.9H17v-1.1H19.8z"/>
</g>
<g>
	<path class="st13" d="M21.4,469.3v1.1h-5.2v-0.9l2.8-2.6c0.3-0.3,0.5-0.6,0.6-0.8c0.1-0.2,0.2-0.4,0.2-0.7c0-0.3-0.1-0.6-0.3-0.8
		c-0.2-0.2-0.5-0.3-1-0.3c-0.7,0-1.3,0.2-1.6,0.7l-0.9-0.7c0.3-0.4,0.6-0.7,1.1-0.9c0.5-0.2,1-0.3,1.6-0.3c0.8,0,1.4,0.2,1.8,0.5
		c0.5,0.4,0.7,0.9,0.7,1.5c0,0.4-0.1,0.7-0.2,1.1c-0.2,0.3-0.5,0.7-0.9,1.1l-1.9,1.8h3.2V469.3z"/>
</g>
<g>
	<path class="st13" d="M20.2,412.2c0.5,0.4,0.7,0.9,0.7,1.6c0,0.4-0.1,0.8-0.3,1.1c-0.2,0.3-0.5,0.6-0.9,0.8s-0.9,0.3-1.5,0.3
		c-0.5,0-1-0.1-1.5-0.2s-0.9-0.3-1.2-0.6l0.5-1c0.3,0.2,0.6,0.4,0.9,0.5c0.4,0.1,0.7,0.2,1.1,0.2c0.5,0,0.8-0.1,1.1-0.3
		c0.3-0.2,0.4-0.5,0.4-0.8c0-0.4-0.1-0.6-0.4-0.8s-0.8-0.3-1.5-0.3h-1.7l0.4-3.8h4.2v1.1h-3l-0.2,1.6H18
		C19,411.6,19.7,411.8,20.2,412.2z"/>
</g>
<g>
	<path class="st13" d="M16.4,351.4v7h-1.3v-5.9h-1.5v-1.1H16.4z"/>
	<path class="st13" d="M19.2,358.1c-0.4-0.3-0.8-0.7-1-1.2c-0.3-0.5-0.4-1.2-0.4-1.9s0.1-1.4,0.4-1.9s0.6-1,1-1.2
		c0.4-0.3,0.9-0.4,1.5-0.4s1.1,0.1,1.5,0.4s0.8,0.7,1,1.2c0.3,0.5,0.4,1.2,0.4,1.9s-0.1,1.4-0.4,1.9s-0.6,1-1,1.2
		c-0.4,0.3-0.9,0.4-1.5,0.4C20.2,358.5,19.7,358.4,19.2,358.1z M21.9,356.8c0.3-0.4,0.4-1,0.4-1.9s-0.1-1.4-0.4-1.9
		c-0.3-0.4-0.7-0.6-1.2-0.6s-0.9,0.2-1.2,0.6c-0.3,0.4-0.4,1-0.4,1.9s0.1,1.4,0.4,1.9s0.7,0.6,1.2,0.6
		C21.2,357.4,21.6,357.2,21.9,356.8z"/>
</g>
<g>
	<path class="st13" d="M16.8,291v7h-1.3v-5.9H14V291H16.8z"/>
	<path class="st13" d="M22.6,294.2c0.5,0.4,0.7,0.9,0.7,1.6c0,0.4-0.1,0.8-0.3,1.1c-0.2,0.3-0.5,0.6-0.9,0.8s-0.9,0.3-1.5,0.3
		c-0.5,0-1-0.1-1.5-0.2c-0.5-0.1-0.9-0.3-1.2-0.6l0.5-1c0.3,0.2,0.6,0.4,0.9,0.5c0.3,0.1,0.7,0.2,1.1,0.2c0.5,0,0.8-0.1,1.1-0.3
		c0.3-0.2,0.4-0.5,0.4-0.8c0-0.4-0.1-0.6-0.4-0.8s-0.8-0.3-1.5-0.3h-1.7l0.4-3.8h4.2v1.1h-3l-0.2,1.6h0.7
		C21.4,293.8,22.1,293.9,22.6,294.2z"/>
</g>
<g>
	<path class="st13" d="M17.8,243.6v1.1h-5.2v-0.9l2.8-2.6c0.3-0.3,0.5-0.6,0.6-0.8c0.1-0.2,0.2-0.4,0.2-0.7s-0.1-0.6-0.3-0.8
		c-0.2-0.2-0.5-0.3-1-0.3c-0.7,0-1.3,0.2-1.6,0.7l-0.9-0.7c0.3-0.4,0.6-0.7,1.1-0.9s1-0.3,1.6-0.3c0.8,0,1.4,0.2,1.8,0.5
		c0.5,0.4,0.7,0.9,0.7,1.5c0,0.4-0.1,0.7-0.2,1.1c-0.1,0.4-0.5,0.7-0.9,1.1l-1.9,1.8h3.2V243.6z"/>
	<path class="st13" d="M19.8,244.4c-0.4-0.3-0.8-0.7-1-1.2c-0.3-0.5-0.4-1.2-0.4-1.9s0.1-1.4,0.4-1.9s0.6-1,1-1.2
		c0.4-0.3,0.9-0.4,1.5-0.4c0.6,0,1.1,0.1,1.5,0.4c0.4,0.3,0.8,0.7,1,1.2c0.3,0.5,0.4,1.2,0.4,1.9s-0.1,1.4-0.4,1.9s-0.6,1-1,1.2
		c-0.4,0.3-0.9,0.4-1.5,0.4C20.8,244.8,20.2,244.7,19.8,244.4z M22.5,243c0.3-0.4,0.4-1,0.4-1.9s-0.1-1.4-0.4-1.9
		c-0.3-0.4-0.7-0.6-1.2-0.6s-0.9,0.2-1.2,0.6c-0.3,0.4-0.4,1-0.4,1.9s0.1,1.4,0.4,1.9s0.7,0.6,1.2,0.6
		C21.8,243.7,22.2,243.5,22.5,243z"/>
</g>
<g>
	<path class="st13" d="M17.9,185.4v1.1h-5.2v-0.9l2.8-2.6c0.3-0.3,0.5-0.6,0.6-0.8c0.1-0.2,0.2-0.4,0.2-0.7s-0.1-0.6-0.3-0.8
		c-0.2-0.2-0.5-0.3-1-0.3c-0.7,0-1.3,0.2-1.6,0.7l-0.9-0.7c0.3-0.4,0.6-0.7,1.1-0.9s1-0.3,1.6-0.3c0.8,0,1.4,0.2,1.8,0.5
		c0.5,0.4,0.7,0.9,0.7,1.5c0,0.4-0.1,0.7-0.2,1.1c-0.1,0.4-0.5,0.7-0.9,1.1l-1.9,1.8h3.2V185.4z"/>
	<path class="st13" d="M23,182.8c0.5,0.4,0.7,0.9,0.7,1.6c0,0.4-0.1,0.8-0.3,1.1c-0.2,0.3-0.5,0.6-0.9,0.8c-0.4,0.2-0.9,0.3-1.5,0.3
		c-0.5,0-1-0.1-1.5-0.2c-0.5-0.1-0.9-0.3-1.2-0.6l0.5-1c0.3,0.2,0.6,0.4,0.9,0.5c0.4,0.1,0.7,0.2,1.1,0.2c0.5,0,0.8-0.1,1.1-0.3
		c0.3-0.2,0.4-0.5,0.4-0.8c0-0.4-0.1-0.6-0.4-0.8s-0.8-0.3-1.5-0.3h-1.7l0.4-3.8h4.1v1.1h-3l-0.2,1.6h0.7
		C21.8,182.3,22.6,182.4,23,182.8z"/>
</g>
<g>
	<path class="st13" d="M16.7,121.7c0.3,0.4,0.5,0.8,0.5,1.4c0,0.4-0.1,0.8-0.3,1.1c-0.2,0.3-0.5,0.6-0.9,0.8s-0.9,0.3-1.5,0.3
		c-0.5,0-1-0.1-1.4-0.2c-0.5-0.1-0.9-0.3-1.2-0.6l0.6-1c0.3,0.2,0.6,0.4,0.9,0.5c0.4,0.1,0.7,0.2,1.1,0.2c0.5,0,0.8-0.1,1.1-0.3
		s0.4-0.4,0.4-0.8s-0.1-0.6-0.4-0.8c-0.2-0.2-0.6-0.3-1.1-0.3h-0.6v-0.9l1.6-1.9h-3.2v-1.1h4.8v0.9l-1.7,2
		C15.9,121.2,16.4,121.4,16.7,121.7z"/>
	<path class="st13" d="M19.5,124.9c-0.4-0.3-0.8-0.7-1-1.2c-0.3-0.5-0.4-1.2-0.4-1.9s0.1-1.4,0.4-1.9s0.6-1,1-1.2
		c0.4-0.3,0.9-0.4,1.5-0.4s1.1,0.1,1.5,0.4c0.4,0.3,0.8,0.7,1,1.2c0.3,0.5,0.4,1.2,0.4,1.9s-0.1,1.4-0.4,1.9s-0.6,1-1,1.2
		c-0.4,0.3-0.9,0.4-1.5,0.4C20.5,125.3,20,125.1,19.5,124.9z M22.2,123.5c0.3-0.4,0.4-1,0.4-1.9s-0.1-1.4-0.4-1.9
		c-0.3-0.4-0.7-0.6-1.2-0.6s-0.9,0.2-1.2,0.6c-0.3,0.4-0.4,1-0.4,1.9s0.1,1.4,0.4,1.9s0.7,0.6,1.2,0.6
		C21.5,124.2,21.9,123.9,22.2,123.5z"/>
</g>
<g>
	<path class="st13" d="M17.2,70.1c0.5,0.4,0.7,0.9,0.7,1.6c0,0.4-0.1,0.8-0.3,1.1c-0.2,0.3-0.5,0.6-0.9,0.8
		c-0.4,0.2-0.9,0.3-1.5,0.3c-0.5,0-1-0.1-1.5-0.2s-0.9-0.3-1.2-0.6l0.5-1c0.3,0.2,0.6,0.4,0.9,0.5c0.4,0.1,0.7,0.2,1.1,0.2
		c0.5,0,0.8-0.1,1.1-0.3c0.3-0.2,0.4-0.5,0.4-0.8c0-0.4-0.1-0.6-0.4-0.8c-0.3-0.2-0.8-0.3-1.5-0.3H13l0.4-3.8h4.1v1.1h-3l-0.2,1.6
		h0.7C15.9,69.5,16.7,69.7,17.2,70.1z"/>
	<path class="st13" d="M20,73.5c-0.4-0.3-0.8-0.7-1-1.2c-0.3-0.5-0.4-1.2-0.4-1.9s0.1-1.4,0.4-1.9s0.6-1,1-1.2
		c0.4-0.3,0.9-0.4,1.5-0.4s1.1,0.1,1.5,0.4s0.8,0.7,1,1.2c0.3,0.5,0.4,1.2,0.4,1.9s-0.1,1.4-0.4,1.9s-0.6,1-1,1.2
		c-0.4,0.3-0.9,0.4-1.5,0.4C21,73.8,20.5,73.7,20,73.5z M22.7,72.1c0.3-0.4,0.4-1,0.4-1.9s-0.1-1.4-0.4-1.9
		c-0.3-0.4-0.7-0.6-1.2-0.6s-0.9,0.2-1.2,0.6c-0.3,0.4-0.4,1-0.4,1.9s0.1,1.4,0.4,1.9s0.7,0.6,1.2,0.6C22,72.7,22.4,72.5,22.7,72.1z
		"/>
</g>
<g>
	<path class="st2" d="M21.9,19.4l2.1-1.2l3.4,0.9c0.3,0.1,0.5-0.1,0.6-0.3c0.1-0.3-0.1-0.5-0.3-0.6l-2.4-0.7l1.8-1
		c0.2-0.1,0.3-0.4,0.2-0.7c-0.1-0.2-0.4-0.3-0.7-0.2l-1.8,1l0.7-2.4c0.1-0.3-0.1-0.5-0.3-0.6c-0.3-0.1-0.5,0.1-0.6,0.3l-0.9,3.4
		l-2.1,1.2l-2.1-1.2v-2.4l2.5-2.5c0.2-0.2,0.2-0.5,0-0.7s-0.5-0.2-0.7,0l-1.8,1.8v-2.1c0-0.3-0.2-0.5-0.5-0.5s-0.5,0.2-0.5,0.5v2.1
		l-1.8-1.8c-0.2-0.2-0.5-0.2-0.7,0c-0.2,0.2-0.2,0.5,0,0.7l2.5,2.5v2.4l-2.1,1.2l-2.1-1.2L13.2,14c-0.1-0.3-0.3-0.4-0.6-0.3
		c-0.3,0.1-0.4,0.3-0.3,0.6l0.7,2.4l-1.8-1c-0.2-0.1-0.5-0.1-0.7,0.2c-0.1,0.2-0.1,0.5,0.2,0.7l1.8,1l-2.4,0.7
		c-0.3,0.1-0.4,0.3-0.3,0.6c0.1,0.3,0.3,0.4,0.6,0.3l3.4-0.9l2.1,1.2V22l-2.1,1.2l-3.4-0.9c-0.3-0.1-0.5,0.1-0.6,0.3
		c-0.1,0.3,0.1,0.5,0.3,0.6l2.4,0.7l-1.8,1c-0.2,0.1-0.3,0.4-0.2,0.7c0.1,0.2,0.4,0.3,0.7,0.2l1.8-1l-0.7,2.4
		c-0.1,0.3,0.1,0.5,0.3,0.6c0.3,0.1,0.5-0.1,0.6-0.3l0.9-3.4l2.1-1.2l2.1,1.2v2.4L15.8,29c-0.2,0.2-0.2,0.5,0,0.7
		c0.2,0.2,0.5,0.2,0.7,0l1.8-1.8V30c0,0.3,0.2,0.5,0.5,0.5s0.5-0.2,0.5-0.5v-2.1l1.8,1.8c0.2,0.2,0.5,0.2,0.7,0s0.2-0.5,0-0.7
		l-2.5-2.5V24l2.1-1.2l2.1,1.2l0.9,3.4c0.1,0.3,0.3,0.4,0.6,0.3c0.3-0.1,0.4-0.3,0.3-0.6l-0.7-2.4l1.8,1c0.2,0.1,0.5,0.1,0.7-0.2
		c0.1-0.2,0.1-0.5-0.2-0.7l-1.8-1l2.4-0.7c0.3-0.1,0.4-0.3,0.3-0.6c-0.1-0.3-0.3-0.4-0.6-0.3L24,23.1l-2.1-1.2V19.4z M20.9,21.9
		l-2.1,1.2l-2.1-1.2v-2.5l2.1-1.2l2.1,1.2V21.9z"/>
</g>
</svg>
