<?xml version="1.0" encoding="utf-8"?>
<!-- Generator: Adobe Illustrator 28.0.0, SVG Export Plug-In . SVG Version: 6.00 Build 0)  -->
<svg version="1.1" id="Livello_1" xmlns="http://www.w3.org/2000/svg" xmlns:xlink="http://www.w3.org/1999/xlink" x="0px" y="0px"
	 width="38px" height="644px" viewBox="0 0 37.2 644.1" style="enable-background:new 0 0 37.2 644.1;" xml:space="preserve">
<style type="text/css">
	.st0{fill:#39322E;}
	.st1{clip-path:url(#SVGID_00000011735929715433756120000008189039791712050094_);}
	.st2{fill:#DAA5E8;}
	.st3{fill:#C370E0;}
	.st4{fill:#FFFFFF;}
	.st5{fill:#BB56AA;}
	.st6{fill:#A32F94;}
	.st7{fill:#B037D4;}
	.st8{fill:#95037E;}
	.st9{fill:#6F258F;}
	.st10{fill:#63127C;}
	.st11{fill:#43194E;}
	.st12{fill:#906192;}
	.st13{fill:none;stroke:#3C3430;stroke-width:2.9317;stroke-miterlimit:9.7722;}
	.st14{fill:#FCFCFC;}
	.st15{fill:#3C3530;}
</style>
<g>
	<path class="st0" d="M13.7,633.9c-0.8-0.4-1.5-1-2-1.7s-0.7-1.6-0.7-2.6s0.2-1.8,0.7-2.6s1.2-1.3,2-1.7s1.8-0.7,2.9-0.7
		c0.8,0,1.6,0.1,2.3,0.4c0.7,0.3,1.3,0.7,1.7,1.2l-1.3,1.1c-0.7-0.8-1.6-1.2-2.8-1.2c-0.7,0-1.4,0.1-2,0.4c-0.6,0.3-1,0.7-1.3,1.2
		s-0.5,1.1-0.5,1.7s0.1,1.2,0.5,1.7c0.3,0.5,0.8,1,1.3,1.2c0.6,0.3,1.2,0.4,2,0.4c1,0,2-0.4,2.8-1.2l1.3,1.1c-0.5,0.5-1,1-1.7,1.2
		c-0.7,0.3-1.5,0.4-2.3,0.4C15.5,634.6,14.5,634.4,13.7,633.9z"/>
	<path class="st0" d="M23,628.9c-0.3-0.2-0.7-0.5-0.9-0.9c-0.2-0.3-0.3-0.8-0.3-1.2s0.1-0.9,0.3-1.2c0.2-0.3,0.6-0.7,0.9-0.9
		s0.8-0.3,1.3-0.3s0.9,0.1,1.3,0.3c0.3,0.2,0.7,0.5,0.9,0.9c0.2,0.3,0.3,0.8,0.3,1.2s-0.1,0.8-0.3,1.2c-0.2,0.3-0.6,0.7-0.9,0.9
		s-0.8,0.3-1.3,0.3S23.4,629.2,23,628.9z M25.3,628c0.2-0.2,0.5-0.7,0.5-1c0-0.4-0.1-0.8-0.5-1c-0.3-0.2-0.6-0.4-1-0.4
		s-0.8,0.1-1,0.4c-0.2,0.2-0.5,0.7-0.5,1c0,0.4,0.1,0.8,0.5,1c0.2,0.2,0.7,0.4,1,0.4C24.6,628.4,25.1,628.3,25.3,628z"/>
</g>
<circle class="st0" cx="18.6" cy="20.6" r="14.6"/>
<g>
	<defs>
		<path id="SVGID_1_" d="M31.9,632.5c-0.4,3.7-6.9,8.1-12.4,8.1l0,0C14,641,6.4,637,6.4,632.5V49.7c1.2-5.4,7.8-8.5,12.3-8.4l0,0
			c5.2,0,11.9,3.2,13.3,8.7L31.9,632.5L31.9,632.5z"/>
	</defs>
	<clipPath id="SVGID_00000109020553147589491010000004861300799998347167_">
		<use xlink:href="#SVGID_1_"  style="overflow:visible;"/>
	</clipPath>
	<g style="clip-path:url(#SVGID_00000109020553147589491010000004861300799998347167_);">
		<g>
			<g>
				<rect x="2.1" y="92.3" class="st2" width="47.5" height="52.6"/>
			</g>
		</g>
	</g>
	<g style="clip-path:url(#SVGID_00000109020553147589491010000004861300799998347167_);">
		<g>
			<g>
				<rect x="2.1" y="144.9" class="st3" width="47.5" height="52.6"/>
			</g>
		</g>
	</g>
	<g style="clip-path:url(#SVGID_00000109020553147589491010000004861300799998347167_);">
		<g>
			<g>
				<rect x="2.1" y="40.9" class="st4" width="47.5" height="52.6"/>
			</g>
		</g>
	</g>
	<g style="clip-path:url(#SVGID_00000109020553147589491010000004861300799998347167_);">
		<g>
			<g>
				<g>
					<rect x="2.1" y="197.6" class="st5" width="47.5" height="52.6"/>
				</g>
			</g>
		</g>
	</g>
	<g style="clip-path:url(#SVGID_00000109020553147589491010000004861300799998347167_);">
		<g>
			<g>
				<rect x="2.1" y="250.4" class="st6" width="47.5" height="52.6"/>
			</g>
		</g>
	</g>
	<g style="clip-path:url(#SVGID_00000109020553147589491010000004861300799998347167_);">
		<g>
			<g>
				<g>
					<rect x="2.1" y="302.4" class="st7" width="47.5" height="52.6"/>
				</g>
			</g>
		</g>
	</g>
	<g style="clip-path:url(#SVGID_00000109020553147589491010000004861300799998347167_);">
		<g>
			<g>
				<rect x="2.1" y="355.2" class="st8" width="47.5" height="52.6"/>
			</g>
		</g>
	</g>
	<g style="clip-path:url(#SVGID_00000109020553147589491010000004861300799998347167_);">
		<g>
			<g>
				<rect x="2.1" y="407.8" class="st9" width="47.5" height="52.6"/>
			</g>
		</g>
	</g>
	<g style="clip-path:url(#SVGID_00000109020553147589491010000004861300799998347167_);">
		<g>
			<g>
				<rect x="2.1" y="460.4" class="st10" width="47.5" height="52.6"/>
			</g>
		</g>
	</g>
	<g style="clip-path:url(#SVGID_00000109020553147589491010000004861300799998347167_);">
		<g>
			<g>
				<rect x="2.1" y="513.1" class="st11" width="47.5" height="52.8"/>
			</g>
		</g>
	</g>
	<g style="clip-path:url(#SVGID_00000109020553147589491010000004861300799998347167_);">
		<g>
			<g>
				<rect x="2.1" y="565.9" class="st12" width="47.5" height="79.5"/>
			</g>
		</g>
	</g>
</g>
<path class="st13" d="M30.4,632.9C30,636.6,24,641,18.9,641l0,0c-5.1,0.4-12.1-3.6-12.1-8.1V49.3c1.1-5.4,7.2-8.5,11.4-8.4l0,0
	c4.8,0,11,3.2,12.3,8.7L30.4,632.9L30.4,632.9z"/>
<g>
	<path class="st4" d="M11.2,633.8c-0.5-0.3-0.9-0.6-1.1-1.1c-0.3-0.5-0.4-1-0.4-1.5c0-0.6,0.1-1.1,0.4-1.5c0.3-0.4,0.7-0.8,1.1-1.1
		c0.5-0.3,1-0.4,1.7-0.4c0.6,0,1.1,0.1,1.5,0.3s0.8,0.6,1,1l-1.1,0.6c-0.2-0.3-0.4-0.5-0.6-0.6c-0.3-0.1-0.5-0.2-0.8-0.2
		c-0.5,0-1,0.2-1.3,0.5s-0.5,0.8-0.5,1.3c0,0.6,0.2,1,0.5,1.3s0.8,0.5,1.3,0.5c0.3,0,0.6-0.1,0.8-0.2c0.3-0.1,0.5-0.3,0.6-0.6
		l1.1,0.6c-0.2,0.4-0.6,0.8-1,1s-1,0.4-1.5,0.4C12.3,634.1,11.7,634,11.2,633.8z"/>
	<path class="st4" d="M25.9,628.8c0.4,0.4,0.7,1.1,0.7,1.9v3.3h-1.4v-3.1c0-0.5-0.1-0.9-0.3-1.1c-0.2-0.3-0.6-0.4-1-0.4
		c-0.5,0-0.8,0.1-1.1,0.4c-0.3,0.3-0.4,0.7-0.4,1.3v2.9H21v-3.1c0-0.5-0.1-0.9-0.3-1.1c-0.2-0.3-0.6-0.4-1-0.4
		c-0.5,0-0.9,0.1-1.1,0.4c-0.3,0.3-0.4,0.7-0.4,1.3v2.9h-1.4v-5.8h1.3v0.7c0.2-0.3,0.5-0.5,0.8-0.6s0.7-0.2,1.1-0.2s0.8,0.1,1.2,0.2
		c0.3,0.2,0.6,0.4,0.8,0.7c0.2-0.3,0.6-0.5,1-0.7s0.8-0.3,1.3-0.3C24.9,628.2,25.5,628.4,25.9,628.8z"/>
</g>
<g>
	<path class="st4" d="M13.6,540.4c-0.4-0.3-0.8-0.7-1-1.2c-0.3-0.5-0.4-1.2-0.4-1.9s0.1-1.4,0.4-1.9c0.3-0.5,0.6-1,1-1.2
		c0.4-0.3,0.9-0.4,1.5-0.4s1.1,0.1,1.5,0.4c0.4,0.3,0.8,0.7,1,1.2c0.3,0.5,0.4,1.2,0.4,1.9s-0.1,1.4-0.4,1.9s-0.6,1-1,1.2
		s-0.9,0.4-1.5,0.4C14.6,540.8,14.1,540.7,13.6,540.4z M16.3,539c0.3-0.4,0.4-1,0.4-1.9s-0.1-1.4-0.4-1.9c-0.3-0.4-0.7-0.6-1.2-0.6
		s-0.9,0.2-1.2,0.6c-0.3,0.4-0.4,1-0.4,1.9s0.1,1.4,0.4,1.9c0.3,0.4,0.7,0.6,1.2,0.6C15.6,539.7,16,539.5,16.3,539z"/>
	<path class="st4" d="M19,540.5c-0.2-0.2-0.2-0.4-0.2-0.6c0-0.2,0.1-0.4,0.2-0.6c0.2-0.2,0.4-0.2,0.6-0.2s0.4,0.1,0.6,0.2
		c0.2,0.2,0.2,0.4,0.2,0.6c0,0.2-0.1,0.4-0.2,0.6c-0.1,0.2-0.4,0.2-0.6,0.2S19.2,540.7,19,540.5z"/>
	<path class="st4" d="M25.6,537c0.5,0.4,0.7,0.9,0.7,1.6c0,0.4-0.1,0.8-0.3,1.1c-0.2,0.3-0.5,0.6-0.9,0.8s-0.9,0.3-1.5,0.3
		c-0.5,0-1-0.1-1.5-0.2c-0.5-0.1-0.9-0.3-1.2-0.6l0.5-1c0.3,0.2,0.6,0.4,0.9,0.5c0.4,0.1,0.7,0.2,1.1,0.2c0.5,0,0.8-0.1,1.1-0.3
		c0.3-0.2,0.4-0.5,0.4-0.8c0-0.4-0.1-0.6-0.4-0.8s-0.8-0.3-1.5-0.3h-1.6l0.4-3.8h4.1v1.1h-3l-0.2,1.6h0.7
		C24.4,536.4,25.2,536.6,25.6,537z"/>
	<path class="st4" d="M16.9,599.4c-0.4-0.3-0.8-0.7-1-1.2c-0.3-0.5-0.4-1.2-0.4-1.9s0.1-1.4,0.4-1.9s0.6-1,1-1.2
		c0.4-0.3,0.9-0.4,1.5-0.4s1.1,0.1,1.5,0.4c0.4,0.3,0.8,0.7,1,1.2c0.3,0.5,0.4,1.2,0.4,1.9s-0.1,1.4-0.4,1.9s-0.6,1-1,1.2
		s-0.9,0.4-1.5,0.4C17.9,599.8,17.4,599.7,16.9,599.4z M19.6,598c0.3-0.4,0.4-1,0.4-1.9s-0.1-1.4-0.4-1.9c-0.3-0.4-0.7-0.6-1.2-0.6
		s-0.9,0.2-1.2,0.6c-0.3,0.4-0.4,1-0.4,1.9s0.1,1.4,0.4,1.9c0.3,0.4,0.7,0.6,1.2,0.6C18.9,598.7,19.3,598.5,19.6,598z"/>
</g>
<g>
	<path class="st14" d="M19.8,483v7h-1.3v-5.9H17V483H19.8z"/>
</g>
<g>
	<path class="st4" d="M21.1,433.9v1.1h-5.2v-0.9l2.8-2.6c0.3-0.3,0.5-0.6,0.6-0.8c0.1-0.2,0.2-0.4,0.2-0.7c0-0.3-0.1-0.6-0.3-0.8
		c-0.2-0.2-0.5-0.3-1-0.3c-0.7,0-1.3,0.2-1.6,0.7l-0.9-0.7c0.3-0.4,0.6-0.7,1.1-0.9c0.5-0.2,1-0.3,1.6-0.3c0.8,0,1.4,0.2,1.8,0.5
		c0.5,0.4,0.7,0.9,0.7,1.5c0,0.4-0.1,0.7-0.2,1.1c-0.2,0.3-0.5,0.7-0.9,1.1l-1.9,1.8h3.2C21.1,433.7,21.1,433.9,21.1,433.9z"/>
</g>
<g>
	<path class="st4" d="M20.6,382.4c0.5,0.4,0.7,0.9,0.7,1.6c0,0.4-0.1,0.8-0.3,1.1c-0.2,0.3-0.5,0.6-0.9,0.8s-0.9,0.3-1.5,0.3
		c-0.5,0-1-0.1-1.5-0.2s-0.9-0.3-1.2-0.6l0.5-1c0.3,0.2,0.6,0.4,0.9,0.5c0.4,0.1,0.7,0.2,1.1,0.2c0.5,0,0.8-0.1,1.1-0.3
		c0.3-0.2,0.4-0.5,0.4-0.8c0-0.4-0.1-0.6-0.4-0.8s-0.8-0.3-1.5-0.3h-1.7l0.4-3.8H21v1.1h-3l-0.2,1.6h0.7
		C19.4,381.8,20.1,382,20.6,382.4z"/>
</g>
<g>
	<path class="st4" d="M16.6,326.2v7h-1.3v-5.9h-1.5v-1.1H16.6z"/>
	<path class="st4" d="M19.4,332.9c-0.4-0.3-0.8-0.7-1-1.2c-0.3-0.5-0.4-1.2-0.4-1.9s0.1-1.4,0.4-1.9s0.6-1,1-1.2
		c0.4-0.3,0.9-0.4,1.5-0.4s1.1,0.1,1.5,0.4s0.8,0.7,1,1.2c0.3,0.5,0.4,1.2,0.4,1.9s-0.1,1.4-0.4,1.9s-0.6,1-1,1.2
		c-0.4,0.3-0.9,0.4-1.5,0.4C20.4,333.3,19.9,333.2,19.4,332.9z M22.1,331.6c0.3-0.4,0.4-1,0.4-1.9s-0.1-1.4-0.4-1.9
		c-0.3-0.4-0.7-0.6-1.2-0.6s-0.9,0.2-1.2,0.6c-0.3,0.4-0.4,1-0.4,1.9s0.1,1.4,0.4,1.9s0.7,0.6,1.2,0.6
		C21.4,332.2,21.8,332,22.1,331.6z"/>
</g>
<g>
	<path class="st4" d="M16.8,274.8v7h-1.3v-5.9h-1.5v-1.1H16.8z"/>
	<path class="st4" d="M22.5,278c0.5,0.4,0.7,0.9,0.7,1.6c0,0.4-0.1,0.8-0.3,1.1c-0.2,0.3-0.5,0.6-0.9,0.8c-0.4,0.2-0.9,0.3-1.5,0.3
		c-0.5,0-1-0.1-1.5-0.2s-0.9-0.3-1.2-0.6l0.5-1c0.3,0.2,0.6,0.4,0.9,0.5s0.7,0.2,1.1,0.2c0.5,0,0.8-0.1,1.1-0.3
		c0.3-0.2,0.4-0.5,0.4-0.8c0-0.4-0.1-0.6-0.4-0.8s-0.8-0.3-1.5-0.3h-1.7l0.4-3.8h4.2v1.1h-3l-0.2,1.6h0.7
		C21.3,277.6,22,277.7,22.5,278z"/>
</g>
<g>
	<path class="st4" d="M18.2,229.1v1.1H13v-0.9l2.8-2.6c0.3-0.3,0.5-0.6,0.6-0.8s0.2-0.4,0.2-0.7s-0.1-0.6-0.3-0.8
		c-0.2-0.2-0.5-0.3-1-0.3c-0.7,0-1.3,0.2-1.6,0.7l-0.9-0.7c0.3-0.4,0.6-0.7,1.1-0.9s1-0.3,1.6-0.3c0.8,0,1.4,0.2,1.8,0.5
		c0.5,0.4,0.7,0.9,0.7,1.5c0,0.4-0.1,0.7-0.2,1.1c-0.1,0.4-0.5,0.7-0.9,1.1l-1.9,1.8h3.2C18.2,228.9,18.2,229.1,18.2,229.1z"/>
	<path class="st4" d="M20.2,229.9c-0.4-0.3-0.8-0.7-1-1.2c-0.3-0.5-0.4-1.2-0.4-1.9s0.1-1.4,0.4-1.9s0.6-1,1-1.2
		c0.4-0.3,0.9-0.4,1.5-0.4s1.1,0.1,1.5,0.4c0.4,0.3,0.8,0.7,1,1.2c0.3,0.5,0.4,1.2,0.4,1.9s-0.1,1.4-0.4,1.9s-0.6,1-1,1.2
		c-0.4,0.3-0.9,0.4-1.5,0.4C21.2,230.3,20.6,230.2,20.2,229.9z M22.9,228.5c0.3-0.4,0.4-1,0.4-1.9s-0.1-1.4-0.4-1.9
		c-0.3-0.4-0.7-0.6-1.2-0.6s-0.9,0.2-1.2,0.6c-0.3,0.4-0.4,1-0.4,1.9s0.1,1.4,0.4,1.9s0.7,0.6,1.2,0.6
		C22.2,229.2,22.6,229,22.9,228.5z"/>
</g>
<g>
	<path class="st4" d="M18.4,175.1v1.1h-5.2v-0.9l2.8-2.6c0.3-0.3,0.5-0.6,0.6-0.8c0.1-0.2,0.2-0.4,0.2-0.7s-0.1-0.6-0.3-0.8
		c-0.2-0.2-0.5-0.3-1-0.3c-0.7,0-1.3,0.2-1.6,0.7l-0.9-0.7c0.3-0.4,0.6-0.7,1.1-0.9s1-0.3,1.6-0.3c0.8,0,1.4,0.2,1.8,0.5
		c0.5,0.4,0.7,0.9,0.7,1.5c0,0.4-0.1,0.7-0.2,1.1c-0.1,0.4-0.5,0.7-0.9,1.1l-1.9,1.8h3.2C18.5,174.9,18.5,175.1,18.4,175.1z"/>
	<path class="st4" d="M23.5,172.5c0.5,0.4,0.7,0.9,0.7,1.6c0,0.4-0.1,0.8-0.3,1.1c-0.2,0.3-0.5,0.6-0.9,0.8
		c-0.4,0.2-0.9,0.3-1.5,0.3c-0.5,0-1-0.1-1.5-0.2c-0.5-0.1-0.9-0.3-1.2-0.6l0.5-1c0.3,0.2,0.6,0.4,0.9,0.5c0.4,0.1,0.7,0.2,1.1,0.2
		c0.5,0,0.8-0.1,1.1-0.3c0.3-0.2,0.4-0.5,0.4-0.8c0-0.4-0.1-0.6-0.4-0.8S21.7,173,21,173h-1.7l0.4-3.8h4.1v1.1h-3l-0.2,1.6h0.7
		C22.3,172,23.1,172.1,23.5,172.5z"/>
</g>
<g>
	<path class="st15" d="M17.4,118.7c0.3,0.4,0.5,0.8,0.5,1.4c0,0.4-0.1,0.8-0.3,1.1c-0.2,0.3-0.5,0.6-0.9,0.8s-0.9,0.3-1.5,0.3
		c-0.5,0-1-0.1-1.4-0.2c-0.5-0.1-0.9-0.3-1.2-0.6l0.6-1c0.3,0.2,0.6,0.4,0.9,0.5c0.4,0.1,0.7,0.2,1.1,0.2c0.5,0,0.8-0.1,1.1-0.3
		c0.3-0.2,0.4-0.4,0.4-0.8s-0.1-0.6-0.4-0.8c-0.2-0.2-0.6-0.3-1.1-0.3h-0.6v-0.9l1.6-1.9H13v-1.1h4.8v0.9l-1.7,2
		C16.6,118.2,17.1,118.4,17.4,118.7z"/>
	<path class="st15" d="M20.2,121.9c-0.4-0.3-0.8-0.7-1-1.2c-0.3-0.5-0.4-1.2-0.4-1.9s0.1-1.4,0.4-1.9s0.6-1,1-1.2
		c0.4-0.3,0.9-0.4,1.5-0.4s1.1,0.1,1.5,0.4s0.8,0.7,1,1.2c0.3,0.5,0.4,1.2,0.4,1.9s-0.1,1.4-0.4,1.9s-0.6,1-1,1.2
		c-0.4,0.3-0.9,0.4-1.5,0.4C21.2,122.3,20.7,122.1,20.2,121.9z M22.9,120.5c0.3-0.4,0.4-1,0.4-1.9s-0.1-1.4-0.4-1.9
		c-0.3-0.4-0.7-0.6-1.2-0.6s-0.9,0.2-1.2,0.6c-0.3,0.4-0.4,1-0.4,1.9s0.1,1.4,0.4,1.9s0.7,0.6,1.2,0.6
		C22.2,121.2,22.6,120.9,22.9,120.5z"/>
</g>
<g>
	<path class="st15" d="M17.4,69.9c0.5,0.4,0.7,0.9,0.7,1.6c0,0.4-0.1,0.8-0.3,1.1c-0.2,0.3-0.5,0.6-0.9,0.8s-0.9,0.3-1.5,0.3
		c-0.5,0-1-0.1-1.5-0.2c-0.5-0.1-0.9-0.3-1.2-0.6l0.5-1c0.3,0.2,0.6,0.4,0.9,0.5c0.4,0.1,0.7,0.2,1.1,0.2c0.5,0,0.8-0.1,1.1-0.3
		s0.4-0.5,0.4-0.8c0-0.4-0.1-0.6-0.4-0.8c-0.3-0.2-0.8-0.3-1.5-0.3h-1.6l0.4-3.8h4.1v1.1h-3l-0.2,1.6h0.7
		C16.1,69.4,16.9,69.6,17.4,69.9z"/>
	<path class="st15" d="M20.2,73.4c-0.4-0.3-0.8-0.7-1-1.2c-0.3-0.5-0.4-1.2-0.4-1.9c0-0.7,0.1-1.4,0.4-1.9s0.6-1,1-1.2
		c0.4-0.3,0.9-0.4,1.5-0.4s1.1,0.1,1.5,0.4s0.8,0.7,1,1.2c0.3,0.5,0.4,1.2,0.4,1.9c0,0.7-0.1,1.4-0.4,1.9s-0.6,1-1,1.2
		c-0.4,0.3-0.9,0.4-1.5,0.4C21.2,73.7,20.7,73.6,20.2,73.4z M22.9,71.9c0.3-0.4,0.4-1,0.4-1.9c0-0.9-0.1-1.4-0.4-1.9
		c-0.3-0.4-0.7-0.6-1.2-0.6s-0.9,0.2-1.2,0.6c-0.3,0.4-0.4,1-0.4,1.9c0,0.9,0.1,1.4,0.4,1.9s0.7,0.6,1.2,0.6S22.6,72.4,22.9,71.9z"
		/>
</g>
<g>
	<path class="st4" d="M21.9,19.4l2.1-1.2l3.4,0.9c0.3,0.1,0.5-0.1,0.6-0.3c0.1-0.3-0.1-0.5-0.3-0.6l-2.4-0.7l1.8-1
		c0.2-0.1,0.3-0.4,0.2-0.7c-0.1-0.2-0.4-0.3-0.7-0.2l-1.8,1l0.7-2.4c0.1-0.3-0.1-0.5-0.3-0.6c-0.3-0.1-0.5,0.1-0.6,0.3l-0.9,3.4
		l-2.1,1.2l-2.1-1.2v-2.4l2.5-2.5c0.2-0.2,0.2-0.5,0-0.7s-0.5-0.2-0.7,0l-1.8,1.8v-2.1c0-0.3-0.2-0.5-0.5-0.5s-0.5,0.2-0.5,0.5v2.1
		l-1.8-1.8c-0.2-0.2-0.5-0.2-0.7,0c-0.2,0.2-0.2,0.5,0,0.7l2.5,2.5v2.4l-2.1,1.2l-2.1-1.2L13.2,14c-0.1-0.3-0.3-0.4-0.6-0.3
		c-0.3,0.1-0.4,0.3-0.3,0.6l0.7,2.4l-1.8-1c-0.2-0.1-0.5-0.1-0.7,0.2c-0.1,0.2-0.1,0.5,0.2,0.7l1.8,1l-2.4,0.7
		c-0.3,0.1-0.4,0.3-0.3,0.6c0.1,0.3,0.3,0.4,0.6,0.3l3.4-0.9l2.1,1.2V22l-2.1,1.2l-3.4-0.9c-0.3-0.1-0.5,0.1-0.6,0.3
		c-0.1,0.3,0.1,0.5,0.3,0.6l2.4,0.7l-1.8,1c-0.2,0.1-0.3,0.4-0.2,0.7c0.1,0.2,0.4,0.3,0.7,0.2l1.8-1l-0.7,2.4
		c-0.1,0.3,0.1,0.5,0.3,0.6c0.3,0.1,0.5-0.1,0.6-0.3l0.9-3.4l2.1-1.2l2.1,1.2v2.4L15.8,29c-0.2,0.2-0.2,0.5,0,0.7s0.5,0.2,0.7,0
		l1.8-1.8V30c0,0.3,0.2,0.5,0.5,0.5s0.5-0.2,0.5-0.5v-2.1l1.8,1.8c0.2,0.2,0.5,0.2,0.7,0s0.2-0.5,0-0.7l-2.5-2.5V24l2.1-1.2l2.1,1.2
		l0.9,3.4c0.1,0.3,0.3,0.4,0.6,0.3c0.3-0.1,0.4-0.3,0.3-0.6l-0.7-2.4l1.8,1c0.2,0.1,0.5,0.1,0.7-0.2c0.1-0.2,0.1-0.5-0.2-0.7l-1.8-1
		l2.4-0.7c0.3-0.1,0.4-0.3,0.3-0.6c-0.1-0.3-0.3-0.4-0.6-0.3L24,23.1l-2.1-1.2V19.4z M20.9,21.9l-2.1,1.2l-2.1-1.2v-2.5l2.1-1.2
		l2.1,1.2V21.9z"/>
</g>
</svg>
