<?xml version="1.0" encoding="utf-8"?>
<!-- Generator: Adobe Illustrator 28.0.0, SVG Export Plug-In . SVG Version: 6.00 Build 0)  -->
<svg version="1.1" id="Livello_1" xmlns="http://www.w3.org/2000/svg" xmlns:xlink="http://www.w3.org/1999/xlink" x="0px" y="0px"
	 	width="50px" height="677px"  viewBox="0 0 48.7 677.2" style="enable-background:new 0 0 48.7 677.2;" xml:space="preserve">
<style type="text/css">
	.st0{clip-path:url(#SVGID_00000041287317211259515790000014277727900012839824_);}
	.st1{fill:#FFFFFF;}
	.st2{clip-path:url(#SVGID_00000119101942685529543960000009856268216334848408_);}
	.st3{fill:#E4BEEE;}
	.st4{fill:#D08AC5;}
	.st5{clip-path:url(#SVGID_00000013180696353253501800000001424398553474925231_);}
	.st6{clip-path:url(#SVGID_00000013885716265515010030000017726455642601083828_);}
	.st7{fill:#F7EC31;}
	.st8{clip-path:url(#SVGID_00000093881985673448030310000010637951751597479585_);}
	.st9{fill:#BB56AA;}
	.st10{clip-path:url(#SVGID_00000064347921588059872890000008973849382151049615_);}
	.st11{fill:#712692;}
	.st12{clip-path:url(#SVGID_00000104685218638377609760000016902867806934898314_);}
	.st13{fill:#64127D;}
	.st14{clip-path:url(#SVGID_00000029729432701472210500000009214948035680743859_);}
	.st15{fill:#43194E;}
	.st16{clip-path:url(#SVGID_00000114758455789042979650000008422941650573227197_);}
	.st17{fill:#906192;}
	.st18{clip-path:url(#SVGID_00000000909927952243034540000005292246970717335184_);}
	.st19{fill:#A32F94;}
	.st20{fill:#95037E;}
	.st21{fill:#A13CCD;}
	.st22{fill:#39322E;}
	.st23{fill:none;stroke:#3C3430;stroke-width:2;stroke-miterlimit:9.7722;}
	.st24{fill:#3C3530;}
	.st25{fill:none;stroke:#3C3430;stroke-miterlimit:9.7722;}
</style>
<g>
	<g>
		<defs>
			<path id="SVGID_1_" d="M43.4,670.3C43,675.2,33.3,681,24.9,681l0,0c-8.2,0.5-19.5-4.7-19.5-10.7v-773.6c1.7-7,11.7-7.2,18.2-7.2
				l0,0c7.7,0,17.7-0.9,19.6,6.5L43.4,670.3L43.4,670.3z"/>
		</defs>
		<clipPath id="SVGID_00000056395933477392748620000011655122331028124060_">
			<use xlink:href="#SVGID_1_"  style="overflow:visible;"/>
		</clipPath>
	</g>
	<g>
		<defs>
			<path id="SVGID_00000075147993299509658920000012547752213223081140_" d="M43.4,670.3L43.4,670.3C43,675.2,33.3,681,24.9,681l0,0
				c-8.2,0.5-19.5-4.7-19.5-10.7l0.4-773.8c1.7-7,11.3-7,17.8-7l0,0"/>
		</defs>
		<clipPath id="SVGID_00000062182455691670947000000011005253603934566835_">
			<use xlink:href="#SVGID_00000075147993299509658920000012547752213223081140_"  style="overflow:visible;"/>
		</clipPath>
	</g>
	<g>
		<defs>
			<path id="SVGID_00000165919535281885929370000002452597543641946517_" d="M43.4,670.3C43,675.2,33.3,681,24.9,681l0,0
				c-8.2,0.5-19.5-4.7-19.5-10.7l0.4-773.2c1.7-7,11.3-7.6,17.8-7.6l0,0c7.7,0,17.9-0.5,19.6,11.5L43.4,670.3L43.4,670.3z"/>
		</defs>
		<clipPath id="SVGID_00000136412532690306531890000014043129035214909076_">
			<use xlink:href="#SVGID_00000165919535281885929370000002452597543641946517_"  style="overflow:visible;"/>
		</clipPath>
		<g style="clip-path:url(#SVGID_00000136412532690306531890000014043129035214909076_);">
			<g>
				<g>
					<rect x="-20.5" y="50.9" class="st1" width="100.4" height="53.5"/>
				</g>
			</g>
		</g>
	</g>
	<g>
		<defs>
			<path id="SVGID_00000146472530878576622560000014703220256978462646_" d="M43.4,670.3C43,675.2,33.3,681,24.9,681l0,0
				c-8.2,0.5-19.5-4.7-19.5-10.7l0.4-773.8c1.7-7,11.3-7,17.8-7l0,0c7.7,0,18-0.6,19.6,11.5L43.4,670.3L43.4,670.3z"/>
		</defs>
		<clipPath id="SVGID_00000077304530668990924680000012304771878298090895_">
			<use xlink:href="#SVGID_00000146472530878576622560000014703220256978462646_"  style="overflow:visible;"/>
		</clipPath>
		<g style="clip-path:url(#SVGID_00000077304530668990924680000012304771878298090895_);">
			<g>
				<g>
					<rect x="-19.5" y="104.4" class="st3" width="100.4" height="53.5"/>
				</g>
			</g>
		</g>
		<g style="clip-path:url(#SVGID_00000077304530668990924680000012304771878298090895_);">
			<g>
				<g>
					<rect x="-26.4" y="157.9" class="st4" width="100.4" height="53.5"/>
				</g>
			</g>
		</g>
	</g>
	<g>
		<defs>
			<path id="SVGID_00000103233340027947110380000002046703898026011267_" d="M43.3-99l0.2,769.3l0,0C43,675.2,33.3,681,24.9,681l0,0
				c-8.2,0.5-19.5-4.7-19.5-10.7"/>
		</defs>
		<defs>
			<path id="SVGID_00000165951591123775569140000000262787928307498924_" d="M23.7-110.5L23.7-110.5"/>
		</defs>
		<clipPath id="SVGID_00000182491352540956548640000010807879207711458696_">
			<use xlink:href="#SVGID_00000103233340027947110380000002046703898026011267_"  style="overflow:visible;"/>
		</clipPath>
		
			<clipPath id="SVGID_00000155858383307424367880000000305990945572855721_" style="clip-path:url(#SVGID_00000182491352540956548640000010807879207711458696_);">
			<use xlink:href="#SVGID_00000165951591123775569140000000262787928307498924_"  style="overflow:visible;"/>
		</clipPath>
		<g style="clip-path:url(#SVGID_00000155858383307424367880000000305990945572855721_);">
			<g>
				<g>
					<rect x="-19.5" y="157.8" class="st7" width="100.4" height="53.5"/>
				</g>
			</g>
		</g>
	</g>
	<g>
		<defs>
			<path id="SVGID_00000114780434731986996980000018142363165490258066_" d="M43.3-99l0.2,769.3l0,0C43,675.2,33.3,681,24.9,681l0,0
				c-8.2,0.5-19.5-4.7-19.5-10.7v-772.8c1.7-7,11.7-7.9,18.2-7.9l0,0"/>
		</defs>
		<clipPath id="SVGID_00000133516621006009223720000009713606416762632335_">
			<use xlink:href="#SVGID_00000114780434731986996980000018142363165490258066_"  style="overflow:visible;"/>
		</clipPath>
		<g style="clip-path:url(#SVGID_00000133516621006009223720000009713606416762632335_);">
			<g>
				<g>
					<rect x="-19.5" y="211.3" class="st9" width="100.4" height="53.5"/>
				</g>
			</g>
		</g>
	</g>
	<g>
		<defs>
			<path id="SVGID_00000026151900951004388690000009890596202036119169_" d="M43.4,670.3C43,675.2,33.3,681,24.9,681l0,0
				c-8.2,0.5-19.5-4.7-19.5-10.7v-773.6c1.7-7,11.7-7.2,18.2-7.2l0,0c7.7,0,18.2-0.5,19.6,11.5L43.4,670.3L43.4,670.3z"/>
		</defs>
		<clipPath id="SVGID_00000145780437798466846060000002219795371929265845_">
			<use xlink:href="#SVGID_00000026151900951004388690000009890596202036119169_"  style="overflow:visible;"/>
		</clipPath>
		<g style="clip-path:url(#SVGID_00000145780437798466846060000002219795371929265845_);">
			<g>
				<g>
					<rect x="-18.2" y="425.1" class="st11" width="100.4" height="53.5"/>
				</g>
			</g>
		</g>
	</g>
	<g>
		<defs>
			<path id="SVGID_00000019653292606004877960000017127290993313709730_" d="M43.4,670.3C43,675.2,33.3,681,24.9,681l0,0
				c-8.2,0.5-19.5-4.7-19.5-10.7v-773.6c1.7-7,11.7-7.2,18.2-7.2l0,0c7.7,0,18.2-1.2,19.6,11.5L43.4,670.3L43.4,670.3z"/>
		</defs>
		<clipPath id="SVGID_00000122709035870630574070000001958135006989596827_">
			<use xlink:href="#SVGID_00000019653292606004877960000017127290993313709730_"  style="overflow:visible;"/>
		</clipPath>
		<g style="clip-path:url(#SVGID_00000122709035870630574070000001958135006989596827_);">
			<g>
				<g>
					<rect x="-18.2" y="478.5" class="st13" width="100.4" height="53.5"/>
				</g>
			</g>
		</g>
	</g>
	<g>
		<defs>
			<path id="SVGID_00000018921119424533857850000000783713557677093281_" d="M43.4,670.3C43,675.2,33.3,681,24.9,681l0,0
				c-8.2,0.5-19.5-4.7-19.5-10.7l0-769.6c-0.2-17.9,11.7-11.4,18.2-11.2l0,0c7.7,0,18.3-0.6,19.6,11.5L43.4,670.3L43.4,670.3z"/>
		</defs>
		<clipPath id="SVGID_00000014605313801568239440000001975763133656333732_">
			<use xlink:href="#SVGID_00000018921119424533857850000000783713557677093281_"  style="overflow:visible;"/>
		</clipPath>
		<g style="clip-path:url(#SVGID_00000014605313801568239440000001975763133656333732_);">
			<g>
				<g>
					<rect x="-17.3" y="532" class="st15" width="100.4" height="53.5"/>
				</g>
			</g>
		</g>
	</g>
	<g>
		<defs>
			<path id="SVGID_00000173156664589653874210000010322197681443045788_" d="M43.4,670.3c-0.5,4.9-10.6,5.5-19,5.5l0,0
				c-8.2,0.5-18.6,0-18.6-6.6v-774c1.7-7,11.3-5.7,17.8-5.7l0,0c7.7,0,17.7,0.4,19.6,7.7L43.4,670.3L43.4,670.3z"/>
		</defs>
		<clipPath id="SVGID_00000000937348116910562190000007438000718658525568_">
			<use xlink:href="#SVGID_00000173156664589653874210000010322197681443045788_"  style="overflow:visible;"/>
		</clipPath>
		<g style="clip-path:url(#SVGID_00000000937348116910562190000007438000718658525568_);">
			<g>
				<g>
					<rect x="-17.6" y="578.8" class="st17" width="100.4" height="98.9"/>
				</g>
			</g>
		</g>
	</g>
	<g>
		<defs>
			<path id="SVGID_00000158002500253402025150000004709613180011479427_" d="M43.4,670.3c-0.5,4.9-10.4,4.2-18.8,4.2l0,0
				c-8.2,0.5-19.2,1.8-19.2-4.2l0.4-773.8c1.7-7,11.3-7,17.8-7l0,0c7.7,0,17.2,0.8,19.1,8.2L43.4,670.3L43.4,670.3z"/>
		</defs>
		<clipPath id="SVGID_00000048470763532084251510000017792498905774772889_">
			<use xlink:href="#SVGID_00000158002500253402025150000004709613180011479427_"  style="overflow:visible;"/>
		</clipPath>
		<g style="clip-path:url(#SVGID_00000048470763532084251510000017792498905774772889_);">
			<g>
				<g>
					<rect x="-18.2" y="264.8" class="st19" width="100.4" height="53.5"/>
				</g>
			</g>
		</g>
	</g>
	<g>
		<g>
			<g>
				<g>
					<rect x="5.4" y="318.1" class="st20" width="38" height="53.5"/>
				</g>
			</g>
		</g>
	</g>
	<g>
		<g>
			<g>
				<g>
					<rect x="6.2" y="371.6" class="st21" width="36.7" height="53.5"/>
				</g>
			</g>
		</g>
	</g>
</g>
<circle class="st22" cx="24.1" cy="26.6" r="19.8"/>
<path class="st23" d="M36.6,675.8H12.1c-3.4,0-6.2-2.8-6.2-6.2V56.1c0-3.4,2.8-6.2,6.2-6.2h24.5c3.4,0,6.2,2.8,6.2,6.2v613.5
	C42.8,673,40,675.8,36.6,675.8z"/>
<g>
	<path class="st1" d="M20.9,573.2c0.7,0,1.2,0.1,1.6,0.4c0.9,0.5,1.3,1.8,1.3,3.8c0,1.4-0.2,2.5-0.7,3.1c-0.5,0.6-1.2,0.9-2.2,0.9
		s-1.7-0.3-2.2-0.9c-0.5-0.6-0.7-1.6-0.7-3.1c0-1.5,0.2-2.6,0.7-3.2C19.2,573.5,19.9,573.2,20.9,573.2z M20.9,574
		c-0.5,0-0.8,0.1-1.1,0.3c-0.6,0.4-0.9,1.4-0.9,3.1c0,1.2,0.2,2,0.5,2.5c0.3,0.5,0.8,0.7,1.5,0.7s1.2-0.2,1.5-0.7
		c0.3-0.5,0.5-1.3,0.5-2.5s-0.1-2.1-0.5-2.6C22.1,574.2,21.6,574,20.9,574z"/>
	<path class="st1" d="M25.1,581.2v-1.4h1v1.4H25.1z"/>
	<path class="st1" d="M32.6,573.3v0.8h-3.9l-0.2,2.6c0.6-0.3,1.2-0.5,1.9-0.5c1.7,0,2.5,0.8,2.5,2.3c0,0.9-0.2,1.6-0.7,2.1
		c-0.5,0.5-1.1,0.7-2,0.7c-0.7,0-1.4-0.1-2.2-0.3l-0.4-0.1l0.1-0.7c0.9,0.2,1.7,0.3,2.3,0.3s1.1-0.2,1.4-0.5
		c0.3-0.3,0.5-0.8,0.5-1.4s-0.1-1-0.4-1.2s-0.7-0.4-1.2-0.4c-0.3,0-0.6,0-0.9,0.1c-0.3,0.1-0.6,0.2-0.7,0.2l-0.3,0.1l-0.6-0.1
		l0.2-4.1H32.6z"/>
</g>
<g>
	<path class="st1" d="M24,267h-5.1v-0.8l2.3-2.4c0.4-0.4,0.7-0.7,0.9-0.9c0.2-0.2,0.4-0.5,0.5-0.8c0.1-0.3,0.2-0.6,0.2-0.9
		c0-0.5-0.1-0.9-0.4-1.1c-0.3-0.2-0.7-0.3-1.3-0.3c-0.5,0-1.1,0.1-1.7,0.2l-0.3,0.1l-0.1-0.8c0.8-0.2,1.5-0.3,2.4-0.3
		c0.8,0,1.4,0.2,1.8,0.5c0.4,0.3,0.6,0.9,0.6,1.6c0,0.6-0.1,1-0.4,1.5s-0.7,0.9-1.3,1.5l-2.1,2.1h4V267z"/>
	<path class="st1" d="M28.1,259c0.7,0,1.2,0.1,1.6,0.4c0.9,0.5,1.3,1.8,1.3,3.8c0,1.4-0.2,2.5-0.7,3.1c-0.5,0.6-1.2,0.9-2.2,0.9
		s-1.7-0.3-2.2-0.9c-0.5-0.6-0.7-1.6-0.7-3.1c0-1.5,0.2-2.6,0.7-3.2C26.5,259.3,27.2,259,28.1,259z M28.2,259.8
		c-0.5,0-0.8,0.1-1.1,0.3c-0.6,0.4-0.9,1.4-0.9,3.1c0,1.2,0.2,2,0.5,2.5c0.3,0.5,0.8,0.7,1.5,0.7s1.2-0.2,1.5-0.7
		c0.3-0.5,0.5-1.3,0.5-2.5s-0.2-2.1-0.5-2.6S28.8,259.8,28.2,259.8z"/>
</g>
<g>
	<path class="st1" d="M23,213.5H18v-0.8l2.3-2.4c0.4-0.4,0.7-0.7,0.9-0.9c0.2-0.2,0.4-0.5,0.5-0.8c0.1-0.3,0.2-0.6,0.2-0.9
		c0-0.5-0.1-0.9-0.4-1.1c-0.3-0.2-0.7-0.3-1.3-0.3c-0.5,0-1.1,0.1-1.7,0.2l-0.3,0.1l-0.1-0.8c0.8-0.2,1.5-0.3,2.4-0.3
		c0.8,0,1.4,0.2,1.8,0.5c0.4,0.3,0.6,0.9,0.6,1.6c0,0.6-0.1,1-0.4,1.5s-0.7,0.9-1.3,1.5l-2.1,2.1h4V213.5z"/>
	<path class="st1" d="M29.6,205.6v0.8h-3.9l-0.2,2.6c0.6-0.3,1.2-0.5,1.9-0.5c1.7,0,2.5,0.8,2.5,2.3c0,0.9-0.2,1.6-0.7,2.1
		c-0.5,0.5-1.1,0.7-2,0.7c-0.7,0-1.4-0.1-2.2-0.3l-0.4-0.1l0.1-0.7c0.9,0.2,1.7,0.3,2.3,0.3s1.1-0.2,1.4-0.5
		c0.3-0.3,0.5-0.8,0.5-1.4s-0.1-1-0.4-1.2s-0.7-0.4-1.2-0.4c-0.3,0-0.6,0-0.9,0.1c-0.3,0.1-0.6,0.2-0.7,0.2l-0.3,0.1l-0.6-0.1
		l0.2-4.1H29.6z"/>
</g>
<g>
	<path class="st24" d="M22.9,99.6v0.8H19l-0.2,2.6c0.6-0.3,1.2-0.5,1.9-0.5c1.7,0,2.5,0.8,2.5,2.3c0,0.9-0.2,1.6-0.7,2.1
		c-0.5,0.5-1.1,0.7-2,0.7c-0.7,0-1.4-0.1-2.2-0.3l-0.4-0.1l0.1-0.7c0.9,0.2,1.7,0.3,2.3,0.3s1.1-0.2,1.4-0.5
		c0.3-0.3,0.5-0.8,0.5-1.4s-0.1-1-0.4-1.2s-0.7-0.4-1.2-0.4c-0.3,0-0.6,0-0.9,0.1c-0.3,0.1-0.6,0.2-0.7,0.2l-0.3,0.1l-0.6-0.1
		l0.2-4.1H22.9z"/>
	<path class="st24" d="M27.2,99.4c0.7,0,1.2,0.1,1.6,0.4c0.9,0.5,1.3,1.8,1.3,3.8c0,1.4-0.2,2.5-0.7,3.1c-0.5,0.6-1.2,0.9-2.2,0.9
		s-1.7-0.3-2.2-0.9c-0.5-0.6-0.7-1.6-0.7-3.1c0-1.5,0.2-2.6,0.7-3.2C25.6,99.7,26.3,99.4,27.2,99.4z M27.3,100.3
		c-0.5,0-0.8,0.1-1.1,0.3c-0.6,0.4-0.9,1.4-0.9,3.1c0,1.2,0.2,2,0.5,2.5c0.3,0.5,0.8,0.7,1.5,0.7s1.2-0.2,1.5-0.7
		c0.3-0.5,0.5-1.3,0.5-2.5s-0.2-2.1-0.5-2.6S27.9,100.3,27.3,100.3z"/>
</g>
<line class="st25" x1="5.5" y1="578.4" x2="16.9" y2="578.4"/>
<line class="st25" x1="42.5" y1="578.4" x2="34.3" y2="578.4"/>
<line class="st25" x1="6.5" y1="264.6" x2="19.2" y2="264.6"/>
<line class="st25" x1="43.2" y1="264.6" x2="32" y2="264.6"/>
<line class="st25" x1="6.5" y1="211.2" x2="17.3" y2="211.2"/>
<line class="st25" x1="42.4" y1="211.2" x2="31.4" y2="211.2"/>
<line class="st25" x1="17.7" y1="103.9" x2="5.2" y2="103.9"/>
<line class="st25" x1="41.7" y1="104.1" x2="30.7" y2="104.1"/>
<g>
	<path class="st1" d="M26.3,527v7.9h-0.9V528l-2,1.3l-0.4-0.7l2.5-1.7H26.3z"/>
</g>
<line class="st25" x1="6.3" y1="531.8" x2="20.1" y2="531.8"/>
<line class="st25" x1="42.7" y1="531.8" x2="29.3" y2="531.8"/>
<g>
	<path class="st1" d="M27.3,481.4h-5.1v-0.8l2.3-2.4c0.4-0.4,0.7-0.7,0.9-0.9c0.2-0.2,0.4-0.5,0.5-0.8c0.1-0.3,0.2-0.6,0.2-0.9
		c0-0.5-0.1-0.9-0.4-1.1c-0.3-0.2-0.7-0.3-1.3-0.3c-0.5,0-1.1,0.1-1.7,0.2l-0.3,0.1l-0.1-0.8c0.8-0.2,1.5-0.3,2.4-0.3
		c0.8,0,1.4,0.2,1.8,0.5c0.4,0.3,0.6,0.9,0.6,1.6c0,0.6-0.1,1-0.4,1.5s-0.7,0.9-1.3,1.5l-2.1,2.1h4V481.4z"/>
</g>
<line class="st25" x1="6" y1="478.3" x2="19.9" y2="478.3"/>
<line class="st25" x1="42.4" y1="478.3" x2="29" y2="478.3"/>
<g>
	<path class="st1" d="M27.3,420.4v0.8h-3.9l-0.2,2.6c0.6-0.3,1.2-0.5,1.9-0.5c1.7,0,2.5,0.8,2.5,2.3c0,0.9-0.2,1.6-0.7,2.1
		c-0.5,0.5-1.1,0.7-2,0.7c-0.7,0-1.4-0.1-2.2-0.3l-0.4-0.1l0.1-0.7c0.9,0.2,1.7,0.3,2.3,0.3s1.1-0.2,1.4-0.5
		c0.3-0.3,0.5-0.8,0.5-1.4s-0.1-1-0.4-1.2s-0.7-0.4-1.2-0.4c-0.3,0-0.6,0-0.9,0.1c-0.3,0.1-0.6,0.2-0.7,0.2l-0.3,0.1l-0.6-0.1
		l0.2-4.1H27.3z"/>
</g>
<line class="st25" x1="6.3" y1="425.2" x2="20.1" y2="425.2"/>
<line class="st25" x1="42.7" y1="425.2" x2="29.3" y2="425.2"/>
<g>
	<path class="st1" d="M22.7,367.3v7.9h-0.9v-6.9l-2,1.3l-0.4-0.7l2.5-1.7H22.7z"/>
	<path class="st1" d="M28.1,367.2c0.7,0,1.2,0.1,1.6,0.4c0.9,0.5,1.3,1.8,1.3,3.8c0,1.4-0.2,2.5-0.7,3.1c-0.5,0.6-1.2,0.9-2.2,0.9
		s-1.7-0.3-2.2-0.9c-0.5-0.6-0.7-1.6-0.7-3.1c0-1.5,0.2-2.6,0.7-3.2C26.4,367.5,27.2,367.2,28.1,367.2z M28.1,368
		c-0.5,0-0.8,0.1-1.1,0.3c-0.6,0.4-0.9,1.4-0.9,3.1c0,1.2,0.2,2,0.5,2.5c0.3,0.5,0.8,0.7,1.5,0.7s1.2-0.2,1.5-0.7
		c0.3-0.5,0.5-1.3,0.5-2.5s-0.2-2.1-0.5-2.6S28.8,368,28.1,368z"/>
</g>
<line class="st25" x1="6.4" y1="371.9" x2="18.8" y2="371.9"/>
<line class="st25" x1="42.8" y1="371.9" x2="32.2" y2="371.9"/>
<g>
	<path class="st1" d="M23,313.5v7.9h-0.9v-6.9l-2,1.3l-0.4-0.7l2.5-1.7H23z"/>
	<path class="st1" d="M30.8,313.5v0.8h-3.9l-0.2,2.6c0.6-0.3,1.2-0.5,1.9-0.5c1.7,0,2.5,0.8,2.5,2.3c0,0.9-0.2,1.6-0.7,2.1
		c-0.5,0.5-1.1,0.7-2,0.7c-0.7,0-1.4-0.1-2.2-0.3l-0.4-0.1l0.1-0.7c0.9,0.2,1.7,0.3,2.3,0.3s1.1-0.2,1.4-0.5
		c0.3-0.3,0.5-0.8,0.5-1.4s-0.1-1-0.4-1.2s-0.7-0.4-1.2-0.4c-0.3,0-0.6,0-0.9,0.1c-0.3,0.1-0.6,0.2-0.7,0.2l-0.3,0.1l-0.6-0.1
		l0.2-4.1H30.8z"/>
</g>
<line class="st25" x1="6.6" y1="318.1" x2="19" y2="318.1"/>
<line class="st25" x1="43" y1="318.1" x2="32.4" y2="318.1"/>
<g>
	<path class="st24" d="M18.2,152.6c0.8-0.2,1.6-0.3,2.4-0.3c0.9,0,1.5,0.2,1.9,0.5c0.4,0.3,0.6,0.9,0.6,1.6c0,0.4,0,0.6-0.1,0.8
		c-0.1,0.2-0.2,0.3-0.2,0.4c-0.1,0.1-0.1,0.2-0.2,0.3c-0.2,0.1-0.3,0.2-0.4,0.3l-0.1,0.1c0.5,0.2,0.8,0.4,1,0.6
		c0.2,0.3,0.3,0.7,0.3,1.3c0,0.8-0.2,1.4-0.6,1.8c-0.4,0.4-1.1,0.6-2,0.6c-0.7,0-1.4-0.1-2.2-0.2l-0.4-0.1l0.1-0.8
		c0.9,0.2,1.7,0.3,2.4,0.3c1.1,0,1.7-0.5,1.7-1.5c0-1-0.5-1.4-1.6-1.5h-1.6v-0.8h1.6c0.3,0,0.7-0.1,1-0.4c0.3-0.3,0.5-0.6,0.5-1.1
		c0-0.4-0.1-0.8-0.4-1s-0.7-0.3-1.2-0.3c-0.6,0-1.3,0.1-1.9,0.2l-0.3,0.1L18.2,152.6z"/>
	<path class="st24" d="M27.4,152.3c0.7,0,1.2,0.1,1.6,0.4c0.9,0.5,1.3,1.8,1.3,3.8c0,1.4-0.2,2.5-0.7,3.1c-0.5,0.6-1.2,0.9-2.2,0.9
		s-1.7-0.3-2.2-0.9c-0.5-0.6-0.7-1.6-0.7-3.1c0-1.5,0.2-2.6,0.7-3.2C25.7,152.6,26.4,152.3,27.4,152.3z M27.4,153.1
		c-0.5,0-0.8,0.1-1.1,0.3c-0.6,0.4-0.9,1.4-0.9,3.1c0,1.2,0.2,2,0.5,2.5c0.3,0.5,0.8,0.7,1.5,0.7s1.2-0.2,1.5-0.7
		c0.3-0.5,0.5-1.3,0.5-2.5s-0.2-2.1-0.5-2.6S28.1,153.1,27.4,153.1z"/>
</g>
<line class="st25" x1="6.7" y1="158" x2="17.5" y2="158"/>
<line class="st25" x1="42.6" y1="158" x2="31.6" y2="158"/>
<g>
	<path class="st1" d="M20.4,665.8c0.3,0,0.7,0,1.3,0.1l0.3,0l0,0.7c-0.6-0.1-1.1-0.1-1.4-0.1c-0.7,0-1.1,0.2-1.4,0.5
		s-0.4,0.9-0.4,1.8s0.1,1.5,0.3,1.8c0.2,0.3,0.7,0.5,1.4,0.5l1.4-0.1l0,0.7c-0.7,0.1-1.3,0.2-1.7,0.2c-0.9,0-1.6-0.2-1.9-0.7
		c-0.4-0.5-0.5-1.3-0.5-2.4c0-1.1,0.2-1.9,0.6-2.4S19.5,665.8,20.4,665.8z"/>
	<path class="st1" d="M24.2,671.9h-0.9v-6h0.9v0.4c0.6-0.4,1.2-0.5,1.8-0.5c0.7,0,1.3,0.2,1.6,0.6c0.3-0.2,0.6-0.3,1-0.4
		s0.8-0.2,1.1-0.2c0.8,0,1.3,0.2,1.6,0.6c0.3,0.4,0.4,1.2,0.4,2.3v3.2h-0.9v-3.1c0-0.8-0.1-1.4-0.2-1.7c-0.2-0.3-0.5-0.5-1-0.5
		c-0.3,0-0.5,0-0.8,0.1c-0.3,0.1-0.5,0.2-0.6,0.2l-0.2,0.1c0.1,0.3,0.2,0.8,0.2,1.8v3.1h-0.9v-3.1c0-0.9-0.1-1.5-0.2-1.8
		c-0.2-0.3-0.5-0.5-1-0.5c-0.3,0-0.5,0-0.8,0.1c-0.3,0.1-0.5,0.2-0.6,0.2l-0.2,0.1V671.9z"/>
</g>
<g>
	<path class="st1" d="M29.6,24.4l3.5-2l5.6,1.5c0.5,0.2,0.8-0.2,1-0.5c0.2-0.5-0.2-0.8-0.5-1l-4-1.2l3-1.7c0.3-0.2,0.5-0.7,0.3-1.2
		c-0.2-0.3-0.7-0.5-1.2-0.3l-3,1.7l1.2-4c0.2-0.5-0.2-0.8-0.5-1c-0.5-0.2-0.8,0.2-1,0.5l-1.5,5.6l-3.5,2l-3.5-2v-4l4.1-4.1
		c0.3-0.3,0.3-0.8,0-1.2c-0.3-0.3-0.8-0.3-1.2,0l-3,3v-3.5c0-0.5-0.3-0.8-0.8-0.8S24,10.7,24,11.2v3.5l-3-3c-0.3-0.3-0.8-0.3-1.2,0
		c-0.3,0.3-0.3,0.8,0,1.2L24,17v4l-3.5,2l-3.5-2l-1.8-5.5c-0.2-0.5-0.5-0.7-1-0.5c-0.5,0.2-0.7,0.5-0.5,1l1.2,4l-3-1.7
		c-0.3-0.2-0.8-0.2-1.2,0.3c-0.2,0.3-0.2,0.8,0.3,1.2l3,1.7l-4,1.2c-0.5,0.2-0.7,0.5-0.5,1c0.2,0.5,0.5,0.7,1,0.5l5.6-1.5l3.5,2v4.1
		l-3.5,2l-5.6-1.5c-0.5-0.2-0.8,0.2-1,0.5c-0.2,0.5,0.2,0.8,0.5,1l4,1.2l-3,1.7c-0.3,0.2-0.5,0.7-0.3,1.2c0.2,0.3,0.7,0.5,1.2,0.3
		l3-1.7l-1.2,4c-0.2,0.5,0.2,0.8,0.5,1c0.5,0.2,0.8-0.2,1-0.5l1.5-5.6l3.5-2l3.5,2v4l-4.1,4.1c-0.3,0.3-0.3,0.8,0,1.2
		c0.3,0.3,0.8,0.3,1.2,0l3-3V42c0,0.5,0.3,0.8,0.8,0.8s0.8-0.3,0.8-0.8v-3.5l3,3c0.3,0.3,0.8,0.3,1.2,0c0.3-0.3,0.3-0.8,0-1.2
		l-4.1-4.1V32l3.5-2l3.5,2l1.5,5.6c0.2,0.5,0.5,0.7,1,0.5c0.5-0.2,0.7-0.5,0.5-1l-1.2-4l3,1.7c0.3,0.2,0.8,0.2,1.2-0.3
		c0.2-0.3,0.2-0.8-0.3-1.2l-3-1.7l4-1.2c0.5-0.2,0.7-0.5,0.5-1c-0.2-0.5-0.5-0.7-1-0.5l-5.3,1.5l-3.5-2V24.4z M28,28.6l-3.5,2
		l-3.5-2v-4.1l3.5-2l3.5,2V28.6z"/>
</g>
</svg>
