<?xml version="1.0" encoding="utf-8"?>
<!-- Generator: Adobe Illustrator 28.0.0, SVG Export Plug-In . SVG Version: 6.00 Build 0)  -->
<svg version="1.1" id="Livello_1" xmlns="http://www.w3.org/2000/svg" xmlns:xlink="http://www.w3.org/1999/xlink" x="0px" y="0px"
	  width="50px" height="677px" viewBox="0 0 48.7 677.2" style="enable-background:new 0 0 48.7 677.2;" xml:space="preserve">
<style type="text/css">
	.st0{clip-path:url(#SVGID_00000000218965713374621950000004233356591681554082_);}
	.st1{fill:#FFFFFF;}
	.st2{clip-path:url(#SVGID_00000129923144940384993090000008331274699323703455_);}
	.st3{fill:#E4BEEE;}
	.st4{fill:#D08AC5;}
	.st5{clip-path:url(#SVGID_00000006685464368727911560000018187643351156657309_);}
	.st6{clip-path:url(#SVGID_00000095319780585273244490000013351934972467912067_);}
	.st7{fill:#F7EC31;}
	.st8{clip-path:url(#SVGID_00000008862577644677355480000016746219373689212847_);}
	.st9{fill:#BB56AA;}
	.st10{clip-path:url(#SVGID_00000154412890701571235620000002423161842869275311_);}
	.st11{fill:#712692;}
	.st12{clip-path:url(#SVGID_00000079466833857126318350000008875312043614706323_);}
	.st13{fill:#64127D;}
	.st14{clip-path:url(#SVGID_00000105390704957357987420000002950343118205933458_);}
	.st15{fill:#43194E;}
	.st16{clip-path:url(#SVGID_00000102509290821129633550000012070003023703559040_);}
	.st17{fill:#906192;}
	.st18{clip-path:url(#SVGID_00000003076417379685506710000001611702538160563865_);}
	.st19{fill:#A32F94;}
	.st20{fill:#95037E;}
	.st21{fill:#A13CCD;}
	.st22{fill:#39322E;}
	.st23{fill:none;stroke:#3C3430;stroke-width:2;stroke-miterlimit:9.7722;}
	.st24{fill:#3C3530;}
	.st25{fill:none;stroke:#3C3430;stroke-miterlimit:9.7722;}
</style>
<g>
	<g>
		<defs>
			<path id="SVGID_1_" d="M43.4,670.3C43,675.2,33.3,681,24.9,681l0,0c-8.2,0.5-19.5-4.7-19.5-10.7v-773.6c1.7-7,11.7-7.2,18.2-7.2
				l0,0c7.7,0,17.7-0.9,19.6,6.5L43.4,670.3L43.4,670.3z"/>
		</defs>
		<clipPath id="SVGID_00000049906761402337920340000000043620557985791897_">
			<use xlink:href="#SVGID_1_"  style="overflow:visible;"/>
		</clipPath>
	</g>
	<g>
		<defs>
			<path id="SVGID_00000139287668427597175150000005337643342325747617_" d="M43.4,670.3L43.4,670.3C43,675.2,33.3,681,24.9,681l0,0
				c-8.2,0.5-19.5-4.7-19.5-10.7l0.4-773.8c1.7-7,11.3-7,17.8-7l0,0"/>
		</defs>
		<clipPath id="SVGID_00000043440129468203989750000015955141753081785534_">
			<use xlink:href="#SVGID_00000139287668427597175150000005337643342325747617_"  style="overflow:visible;"/>
		</clipPath>
	</g>
	<g>
		<defs>
			<path id="SVGID_00000115490811195312777860000017320163711360459958_" d="M43.4,670.3C43,675.2,33.3,681,24.9,681l0,0
				c-8.2,0.5-19.5-4.7-19.5-10.7l0.4-773.2c1.7-7,11.3-7.6,17.8-7.6l0,0c7.7,0,17.9-0.5,19.6,11.5L43.4,670.3L43.4,670.3z"/>
		</defs>
		<clipPath id="SVGID_00000109013251638436620060000009426512653279845790_">
			<use xlink:href="#SVGID_00000115490811195312777860000017320163711360459958_"  style="overflow:visible;"/>
		</clipPath>
		<g style="clip-path:url(#SVGID_00000109013251638436620060000009426512653279845790_);">
			<g>
				<g>
					<rect x="-20.5" y="50.9" class="st1" width="100.4" height="53.5"/>
				</g>
			</g>
		</g>
	</g>
	<g>
		<defs>
			<path id="SVGID_00000001651595787654285100000000539256392243298979_" d="M43.4,670.3C43,675.2,33.3,681,24.9,681l0,0
				c-8.2,0.5-19.5-4.7-19.5-10.7l0.4-773.8c1.7-7,11.3-7,17.8-7l0,0c7.7,0,18-0.6,19.6,11.5L43.4,670.3L43.4,670.3z"/>
		</defs>
		<clipPath id="SVGID_00000160868612706090000760000001113069470686032782_">
			<use xlink:href="#SVGID_00000001651595787654285100000000539256392243298979_"  style="overflow:visible;"/>
		</clipPath>
		<g style="clip-path:url(#SVGID_00000160868612706090000760000001113069470686032782_);">
			<g>
				<g>
					<rect x="-19.5" y="104.4" class="st3" width="100.4" height="53.5"/>
				</g>
			</g>
		</g>
		<g style="clip-path:url(#SVGID_00000160868612706090000760000001113069470686032782_);">
			<g>
				<g>
					<rect x="-26.4" y="157.9" class="st4" width="100.4" height="53.5"/>
				</g>
			</g>
		</g>
	</g>
	<g>
		<defs>
			<path id="SVGID_00000093140493401093279450000010385558198291364778_" d="M43.3-99l0.2,769.3l0,0C43,675.2,33.3,681,24.9,681l0,0
				c-8.2,0.5-19.5-4.7-19.5-10.7"/>
		</defs>
		<defs>
			<line id="SVGID_00000177444887163859735590000010051265546484263043_" x1="23.7" y1="-110.5" x2="23.7" y2="-110.5"/>
		</defs>
		<clipPath id="SVGID_00000036940866561800353900000007167734404209803686_">
			<use xlink:href="#SVGID_00000093140493401093279450000010385558198291364778_"  style="overflow:visible;"/>
		</clipPath>
		
			<clipPath id="SVGID_00000168815570968388869280000007952147893339019657_" style="clip-path:url(#SVGID_00000036940866561800353900000007167734404209803686_);">
			<use xlink:href="#SVGID_00000177444887163859735590000010051265546484263043_"  style="overflow:visible;"/>
		</clipPath>
		<g style="clip-path:url(#SVGID_00000168815570968388869280000007952147893339019657_);">
			<g>
				<g>
					<rect x="-19.5" y="157.8" class="st7" width="100.4" height="53.5"/>
				</g>
			</g>
		</g>
	</g>
	<g>
		<defs>
			<path id="SVGID_00000096761002498222806990000017357493658850406569_" d="M43.3-99l0.2,769.3l0,0C43,675.2,33.3,681,24.9,681l0,0
				c-8.2,0.5-19.5-4.7-19.5-10.7v-772.8c1.7-7,11.7-7.9,18.2-7.9l0,0"/>
		</defs>
		<clipPath id="SVGID_00000004518820277985656460000008660747687400064950_">
			<use xlink:href="#SVGID_00000096761002498222806990000017357493658850406569_"  style="overflow:visible;"/>
		</clipPath>
		<g style="clip-path:url(#SVGID_00000004518820277985656460000008660747687400064950_);">
			<g>
				<g>
					<rect x="-19.5" y="211.3" class="st9" width="100.4" height="53.5"/>
				</g>
			</g>
		</g>
	</g>
	<g>
		<defs>
			<path id="SVGID_00000174571693593857437650000013166913069143135146_" d="M43.4,670.3C43,675.2,33.3,681,24.9,681l0,0
				c-8.2,0.5-19.5-4.7-19.5-10.7v-773.6c1.7-7,11.7-7.2,18.2-7.2l0,0c7.7,0,18.2-0.5,19.6,11.5L43.4,670.3L43.4,670.3z"/>
		</defs>
		<clipPath id="SVGID_00000180350256746388781910000010282453404805177512_">
			<use xlink:href="#SVGID_00000174571693593857437650000013166913069143135146_"  style="overflow:visible;"/>
		</clipPath>
		<g style="clip-path:url(#SVGID_00000180350256746388781910000010282453404805177512_);">
			<g>
				<g>
					<rect x="-18.2" y="425.1" class="st11" width="100.4" height="53.5"/>
				</g>
			</g>
		</g>
	</g>
	<g>
		<defs>
			<path id="SVGID_00000129165151541305502330000001497987947528779943_" d="M43.4,670.3C43,675.2,33.3,681,24.9,681l0,0
				c-8.2,0.5-19.5-4.7-19.5-10.7v-773.6c1.7-7,11.7-7.2,18.2-7.2l0,0c7.7,0,18.2-1.2,19.6,11.5L43.4,670.3L43.4,670.3z"/>
		</defs>
		<clipPath id="SVGID_00000172435788007856679500000014449333323306551707_">
			<use xlink:href="#SVGID_00000129165151541305502330000001497987947528779943_"  style="overflow:visible;"/>
		</clipPath>
		<g style="clip-path:url(#SVGID_00000172435788007856679500000014449333323306551707_);">
			<g>
				<g>
					<rect x="-18.2" y="478.5" class="st13" width="100.4" height="53.5"/>
				</g>
			</g>
		</g>
	</g>
	<g>
		<defs>
			<path id="SVGID_00000039840782342987925490000000346408098190809532_" d="M43.4,670.3C43,675.2,33.3,681,24.9,681l0,0
				c-8.2,0.5-19.5-4.7-19.5-10.7l0-769.6c-0.2-17.9,11.7-11.4,18.2-11.2l0,0c7.7,0,18.3-0.6,19.6,11.5L43.4,670.3L43.4,670.3z"/>
		</defs>
		<clipPath id="SVGID_00000137848631104389829790000001421881645389209216_">
			<use xlink:href="#SVGID_00000039840782342987925490000000346408098190809532_"  style="overflow:visible;"/>
		</clipPath>
		<g style="clip-path:url(#SVGID_00000137848631104389829790000001421881645389209216_);">
			<g>
				<g>
					<rect x="-17.3" y="532" class="st15" width="100.4" height="53.5"/>
				</g>
			</g>
		</g>
	</g>
	<g>
		<defs>
			<path id="SVGID_00000132054182133093069910000016757555373896589497_" d="M43.4,670.3c-0.5,4.9-10.6,5.5-19,5.5l0,0
				c-8.2,0.5-18.6,0-18.6-6.6v-774c1.7-7,11.3-5.7,17.8-5.7l0,0c7.7,0,17.7,0.4,19.6,7.7L43.4,670.3L43.4,670.3z"/>
		</defs>
		<clipPath id="SVGID_00000013905822566775469240000000313912626292401555_">
			<use xlink:href="#SVGID_00000132054182133093069910000016757555373896589497_"  style="overflow:visible;"/>
		</clipPath>
		<g style="clip-path:url(#SVGID_00000013905822566775469240000000313912626292401555_);">
			<g>
				<g>
					<rect x="-17.6" y="578.8" class="st17" width="100.4" height="98.9"/>
				</g>
			</g>
		</g>
	</g>
	<g>
		<defs>
			<path id="SVGID_00000007396514848481144550000015290103868559859863_" d="M43.4,670.3c-0.5,4.9-10.4,4.2-18.8,4.2l0,0
				c-8.2,0.5-19.2,1.8-19.2-4.2l0.4-773.8c1.7-7,11.3-7,17.8-7l0,0c7.7,0,17.2,0.8,19.1,8.2L43.4,670.3L43.4,670.3z"/>
		</defs>
		<clipPath id="SVGID_00000072245105386163079540000011332157759879744156_">
			<use xlink:href="#SVGID_00000007396514848481144550000015290103868559859863_"  style="overflow:visible;"/>
		</clipPath>
		<g style="clip-path:url(#SVGID_00000072245105386163079540000011332157759879744156_);">
			<g>
				<g>
					<rect x="-18.2" y="264.8" class="st19" width="100.4" height="53.5"/>
				</g>
			</g>
		</g>
	</g>
	<g>
		<g>
			<g>
				<g>
					<rect x="5.4" y="318.1" class="st20" width="38" height="53.5"/>
				</g>
			</g>
		</g>
	</g>
	<g>
		<g>
			<g>
				<g>
					<rect x="6.2" y="371.6" class="st21" width="36.7" height="53.5"/>
				</g>
			</g>
		</g>
	</g>
</g>
<circle class="st22" cx="24.1" cy="26.6" r="19.8"/>
<path class="st23" d="M36.6,675.8H12.1c-3.4,0-6.2-2.8-6.2-6.2V56.1c0-3.4,2.8-6.2,6.2-6.2h24.5c3.4,0,6.2,2.8,6.2,6.2v613.5
	C42.8,673,40,675.8,36.6,675.8z"/>
<g>
	<path class="st1" d="M18.4,573.9c0.5-0.7,1.3-1,2.3-1c1,0,1.8,0.3,2.3,1c0.5,0.7,0.8,1.7,0.8,3.2s-0.3,2.5-0.8,3.1
		c-0.5,0.6-1.3,0.9-2.3,0.9c-1,0-1.8-0.3-2.3-0.9s-0.8-1.7-0.8-3.1S17.9,574.6,18.4,573.9z M22.1,577.1c0-1-0.1-1.7-0.3-2.1
		c-0.2-0.4-0.6-0.6-1-0.6c-0.5,0-0.8,0.2-1.1,0.6c-0.2,0.4-0.3,1.1-0.3,2.1c0,1,0.1,1.7,0.3,2.1c0.2,0.4,0.6,0.6,1.1,0.6
		c0.5,0,0.8-0.2,1-0.6S22.1,578,22.1,577.1z"/>
	<path class="st1" d="M24.7,581v-2h1.7v2H24.7z"/>
	<path class="st1" d="M33,573.1v1.4h-3.5l-0.2,1.7c0.5-0.2,1-0.3,1.4-0.3c1.7,0,2.6,0.8,2.6,2.4c0,0.9-0.2,1.6-0.7,2.1
		c-0.5,0.5-1.1,0.7-2,0.7c-0.4,0-0.8,0-1.3-0.1c-0.5-0.1-0.8-0.1-1.1-0.2l-0.4-0.1l0.2-1.2c1,0.2,1.8,0.2,2.4,0.2
		c0.4,0,0.7-0.1,0.9-0.3c0.2-0.2,0.3-0.5,0.3-0.9s-0.1-0.7-0.3-0.8s-0.4-0.3-0.7-0.3c-0.5,0-1,0.1-1.4,0.2l-0.2,0l-1-0.2l0.2-4.3H33
		z"/>
</g>
<g>
	<path class="st1" d="M24,266.8h-5.1v-1.4l1.7-1.7c0.6-0.6,1-1.1,1.3-1.4s0.4-0.7,0.4-1s-0.1-0.6-0.3-0.8c-0.2-0.2-0.5-0.2-0.8-0.2
		c-0.5,0-1.1,0-1.8,0.1l-0.3,0l-0.1-1.3c0.8-0.2,1.6-0.4,2.4-0.4c1.7,0,2.5,0.8,2.5,2.3c0,0.6-0.1,1.1-0.4,1.5
		c-0.3,0.4-0.7,1-1.4,1.6l-1.4,1.2H24V266.8z"/>
	<path class="st1" d="M25.9,259.7c0.5-0.7,1.3-1,2.3-1c1,0,1.8,0.3,2.3,1c0.5,0.7,0.8,1.7,0.8,3.2s-0.3,2.5-0.8,3.1
		c-0.5,0.6-1.3,0.9-2.3,0.9c-1,0-1.8-0.3-2.3-0.9s-0.8-1.7-0.8-3.1S25.3,260.4,25.9,259.7z M29.5,262.8c0-1-0.1-1.7-0.3-2.1
		c-0.2-0.4-0.6-0.6-1-0.6c-0.5,0-0.8,0.2-1.1,0.6c-0.2,0.4-0.3,1.1-0.3,2.1c0,1,0.1,1.7,0.3,2.1c0.2,0.4,0.6,0.6,1.1,0.6
		c0.5,0,0.8-0.2,1-0.6S29.5,263.8,29.5,262.8z"/>
</g>
<g>
	<path class="st1" d="M23,213.3h-5.1v-1.4l1.7-1.7c0.6-0.6,1-1.1,1.3-1.4s0.4-0.7,0.4-1s-0.1-0.6-0.3-0.8c-0.2-0.2-0.5-0.2-0.8-0.2
		c-0.5,0-1.1,0-1.8,0.1l-0.3,0l-0.1-1.3c0.8-0.2,1.6-0.4,2.4-0.4c1.7,0,2.5,0.8,2.5,2.3c0,0.6-0.1,1.1-0.4,1.5
		c-0.3,0.4-0.7,1-1.4,1.6l-1.4,1.2H23V213.3z"/>
	<path class="st1" d="M29.7,205.4v1.4h-3.5l-0.2,1.7c0.5-0.2,1-0.3,1.4-0.3c1.7,0,2.6,0.8,2.6,2.4c0,0.9-0.2,1.6-0.7,2.1
		c-0.5,0.5-1.1,0.7-2,0.7c-0.4,0-0.8,0-1.3-0.1c-0.5-0.1-0.8-0.1-1.1-0.2l-0.4-0.1l0.2-1.2c1,0.2,1.8,0.2,2.4,0.2
		c0.4,0,0.7-0.1,0.9-0.3c0.2-0.2,0.3-0.5,0.3-0.9s-0.1-0.7-0.3-0.8s-0.4-0.3-0.7-0.3c-0.5,0-1,0.1-1.4,0.2l-0.2,0l-1-0.2l0.2-4.3
		H29.7z"/>
</g>
<g>
	<path class="st24" d="M23.1,99.3v1.4h-3.5l-0.2,1.7c0.5-0.2,1-0.3,1.4-0.3c1.7,0,2.6,0.8,2.6,2.4c0,0.9-0.2,1.6-0.7,2.1
		c-0.5,0.5-1.1,0.7-2,0.7c-0.4,0-0.8,0-1.3-0.1c-0.5-0.1-0.8-0.1-1.1-0.2l-0.4-0.1l0.2-1.2c1,0.2,1.8,0.2,2.4,0.2
		c0.4,0,0.7-0.1,0.9-0.3c0.2-0.2,0.3-0.5,0.3-0.9s-0.1-0.7-0.3-0.8s-0.4-0.3-0.7-0.3c-0.5,0-1,0.1-1.4,0.2l-0.2,0l-1-0.2l0.2-4.3
		H23.1z"/>
	<path class="st24" d="M25,100.2c0.5-0.7,1.3-1,2.3-1c1,0,1.8,0.3,2.3,1c0.5,0.7,0.8,1.7,0.8,3.2s-0.3,2.5-0.8,3.1
		c-0.5,0.6-1.3,0.9-2.3,0.9c-1,0-1.8-0.3-2.3-0.9s-0.8-1.7-0.8-3.1S24.4,100.8,25,100.2z M28.6,103.3c0-1-0.1-1.7-0.3-2.1
		c-0.2-0.4-0.6-0.6-1-0.6c-0.5,0-0.8,0.2-1.1,0.6c-0.2,0.4-0.3,1.1-0.3,2.1c0,1,0.1,1.7,0.3,2.1c0.2,0.4,0.6,0.6,1.1,0.6
		c0.5,0,0.8-0.2,1-0.6S28.6,104.3,28.6,103.3z"/>
</g>
<line class="st25" x1="5.5" y1="578.4" x2="16.9" y2="578.4"/>
<line class="st25" x1="42.5" y1="578.4" x2="34.3" y2="578.4"/>
<line class="st25" x1="6.5" y1="264.6" x2="19.2" y2="264.6"/>
<line class="st25" x1="43.2" y1="264.6" x2="32" y2="264.6"/>
<line class="st25" x1="6.5" y1="211.2" x2="17.3" y2="211.2"/>
<line class="st25" x1="42.4" y1="211.2" x2="31.4" y2="211.2"/>
<line class="st25" x1="17.7" y1="103.9" x2="5.2" y2="103.9"/>
<line class="st25" x1="41.7" y1="104.1" x2="30.7" y2="104.1"/>
<g>
	<path class="st1" d="M26.6,526.8v7.9H25v-6l-1.7,1.1l-0.8-1.2l2.6-1.7H26.6z"/>
</g>
<line class="st25" x1="6.3" y1="531.8" x2="20.1" y2="531.8"/>
<line class="st25" x1="42.7" y1="531.8" x2="29.3" y2="531.8"/>
<g>
	<path class="st1" d="M27.3,481.2h-5.1v-1.4l1.7-1.7c0.6-0.6,1-1.1,1.3-1.4s0.4-0.7,0.4-1s-0.1-0.6-0.3-0.8
		c-0.2-0.2-0.5-0.2-0.8-0.2c-0.5,0-1.1,0-1.8,0.1l-0.3,0l-0.1-1.3c0.8-0.2,1.6-0.4,2.4-0.4c1.7,0,2.5,0.8,2.5,2.3
		c0,0.6-0.1,1.1-0.4,1.5c-0.3,0.4-0.7,1-1.4,1.6l-1.4,1.2h3.3V481.2z"/>
</g>
<line class="st25" x1="6" y1="478.3" x2="19.9" y2="478.3"/>
<line class="st25" x1="42.4" y1="478.3" x2="29" y2="478.3"/>
<g>
	<path class="st1" d="M27.5,420.2v1.4H24l-0.2,1.7c0.5-0.2,1-0.3,1.4-0.3c1.7,0,2.6,0.8,2.6,2.4c0,0.9-0.2,1.6-0.7,2.1
		c-0.5,0.5-1.1,0.7-2,0.7c-0.4,0-0.8,0-1.3-0.1c-0.5-0.1-0.8-0.1-1.1-0.2l-0.4-0.1l0.2-1.2c1,0.2,1.8,0.2,2.4,0.2
		c0.4,0,0.7-0.1,0.9-0.3c0.2-0.2,0.3-0.5,0.3-0.9s-0.1-0.7-0.3-0.8s-0.4-0.3-0.7-0.3c-0.5,0-1,0.1-1.4,0.2l-0.2,0l-1-0.2l0.2-4.3
		H27.5z"/>
</g>
<line class="st25" x1="6.3" y1="425.2" x2="20.1" y2="425.2"/>
<line class="st25" x1="42.7" y1="425.2" x2="29.3" y2="425.2"/>
<g>
	<path class="st1" d="M23.1,367.1v7.9h-1.7v-6l-1.7,1.1l-0.8-1.2l2.6-1.7H23.1z"/>
	<path class="st1" d="M25.9,368c0.5-0.7,1.3-1,2.3-1c1,0,1.8,0.3,2.3,1c0.5,0.7,0.8,1.7,0.8,3.2s-0.3,2.5-0.8,3.1
		c-0.5,0.6-1.3,0.9-2.3,0.9c-1,0-1.8-0.3-2.3-0.9s-0.8-1.7-0.8-3.1S25.3,368.6,25.9,368z M29.5,371.1c0-1-0.1-1.7-0.3-2.1
		c-0.2-0.4-0.6-0.6-1-0.6c-0.5,0-0.8,0.2-1.1,0.6c-0.2,0.4-0.3,1.1-0.3,2.1c0,1,0.1,1.7,0.3,2.1c0.2,0.4,0.6,0.6,1.1,0.6
		c0.5,0,0.8-0.2,1-0.6S29.5,372.1,29.5,371.1z"/>
</g>
<line class="st25" x1="6.4" y1="371.9" x2="18.8" y2="371.9"/>
<line class="st25" x1="42.8" y1="371.9" x2="32.2" y2="371.9"/>
<g>
	<path class="st1" d="M23.3,313.3v7.9h-1.7v-6l-1.7,1.1l-0.8-1.2l2.6-1.7H23.3z"/>
	<path class="st1" d="M30.9,313.3v1.4h-3.5l-0.2,1.7c0.5-0.2,1-0.3,1.4-0.3c1.7,0,2.6,0.8,2.6,2.4c0,0.9-0.2,1.6-0.7,2.1
		s-1.1,0.7-2,0.7c-0.4,0-0.8,0-1.3-0.1s-0.8-0.1-1.1-0.2l-0.4-0.1l0.2-1.2c1,0.2,1.8,0.2,2.4,0.2c0.4,0,0.7-0.1,0.9-0.3
		c0.2-0.2,0.3-0.5,0.3-0.9s-0.1-0.7-0.3-0.8s-0.4-0.3-0.7-0.3c-0.5,0-1,0.1-1.4,0.2l-0.2,0l-1-0.2l0.2-4.3H30.9z"/>
</g>
<line class="st25" x1="6.6" y1="318.1" x2="19" y2="318.1"/>
<line class="st25" x1="43" y1="318.1" x2="32.4" y2="318.1"/>
<g>
	<path class="st24" d="M18.1,152.5c0.7-0.3,1.6-0.4,2.5-0.4c0.9,0,1.6,0.2,2,0.5s0.6,0.9,0.6,1.7c0,0.8-0.3,1.4-0.9,1.8
		c0.4,0.2,0.7,0.4,0.8,0.6s0.2,0.6,0.2,1.1c0,0.9-0.2,1.5-0.6,1.9c-0.4,0.4-1.1,0.6-2.1,0.6c-0.7,0-1.4-0.1-2.2-0.3l-0.4-0.1
		l0.1-1.3c0.9,0.2,1.6,0.2,2.3,0.2c0.8,0,1.2-0.4,1.2-1.1c0-0.3-0.1-0.5-0.3-0.7c-0.2-0.2-0.5-0.3-0.8-0.3h-1.6v-1.4h1.6
		c0.3,0,0.5-0.1,0.7-0.3c0.2-0.2,0.3-0.5,0.3-0.7c0-0.6-0.4-0.9-1.2-0.9c-0.6,0-1.1,0.1-1.8,0.2l-0.3,0L18.1,152.5z"/>
	<path class="st24" d="M25.1,153c0.5-0.7,1.3-1,2.3-1c1,0,1.8,0.3,2.3,1c0.5,0.7,0.8,1.7,0.8,3.2s-0.3,2.5-0.8,3.1
		c-0.5,0.6-1.3,0.9-2.3,0.9c-1,0-1.8-0.3-2.3-0.9s-0.8-1.7-0.8-3.1S24.6,153.7,25.1,153z M28.8,156.2c0-1-0.1-1.7-0.3-2.1
		c-0.2-0.4-0.6-0.6-1-0.6c-0.5,0-0.8,0.2-1.1,0.6c-0.2,0.4-0.3,1.1-0.3,2.1c0,1,0.1,1.7,0.3,2.1c0.2,0.4,0.6,0.6,1.1,0.6
		c0.5,0,0.8-0.2,1-0.6S28.8,157.2,28.8,156.2z"/>
</g>
<line class="st25" x1="6.7" y1="158" x2="17.5" y2="158"/>
<line class="st25" x1="42.6" y1="158" x2="31.6" y2="158"/>
<g>
	<path class="st1" d="M20.2,665.6c0.4,0,0.9,0.1,1.6,0.2l0.3,0.1l0,1.3c-0.6-0.1-1.1-0.1-1.4-0.1c-0.6,0-0.9,0.1-1.1,0.4
		c-0.2,0.2-0.3,0.7-0.3,1.3s0.1,1.1,0.3,1.3s0.5,0.4,1.1,0.4l1.4-0.1l0,1.3c-0.9,0.2-1.5,0.3-2,0.3c-0.9,0-1.5-0.2-1.9-0.8
		c-0.4-0.5-0.6-1.3-0.6-2.4c0-1.1,0.2-1.9,0.6-2.4C18.6,665.8,19.3,665.6,20.2,665.6z"/>
	<path class="st1" d="M24.9,671.7h-1.6v-6h1.6v0.3c0.6-0.3,1-0.5,1.4-0.5c0.6,0,1.1,0.2,1.5,0.6c0.7-0.4,1.4-0.6,2-0.6
		c0.8,0,1.3,0.2,1.7,0.7c0.3,0.5,0.5,1.2,0.5,2.2v3.3h-1.6v-3.2c0-0.5-0.1-0.9-0.2-1.1c-0.1-0.2-0.3-0.4-0.7-0.4
		c-0.3,0-0.6,0.1-0.9,0.2l-0.2,0.1c0,0.6,0,1.1,0,1.4v3.1h-1.6v-3.1c0-0.6-0.1-1-0.2-1.3c-0.1-0.2-0.3-0.4-0.7-0.4
		c-0.3,0-0.6,0.1-0.9,0.2l-0.1,0V671.7z"/>
</g>
<g>
	<path class="st1" d="M29.6,24.4l3.5-2l5.6,1.5c0.5,0.2,0.8-0.2,1-0.5c0.2-0.5-0.2-0.8-0.5-1l-4-1.2l3-1.7c0.3-0.2,0.5-0.7,0.3-1.2
		c-0.2-0.3-0.7-0.5-1.2-0.3l-3,1.7l1.2-4c0.2-0.5-0.2-0.8-0.5-1c-0.5-0.2-0.8,0.2-1,0.5l-1.5,5.6l-3.5,2l-3.5-2v-4l4.1-4.1
		c0.3-0.3,0.3-0.8,0-1.2c-0.3-0.3-0.8-0.3-1.2,0l-3,3v-3.5c0-0.5-0.3-0.8-0.8-0.8S24,10.7,24,11.2v3.5l-3-3c-0.3-0.3-0.8-0.3-1.2,0
		c-0.3,0.3-0.3,0.8,0,1.2L24,17v4l-3.5,2l-3.5-2l-1.8-5.5c-0.2-0.5-0.5-0.7-1-0.5c-0.5,0.2-0.7,0.5-0.5,1l1.2,4l-3-1.7
		c-0.3-0.2-0.8-0.2-1.2,0.3c-0.2,0.3-0.2,0.8,0.3,1.2l3,1.7l-4,1.2c-0.5,0.2-0.7,0.5-0.5,1c0.2,0.5,0.5,0.7,1,0.5l5.6-1.5l3.5,2v4.1
		l-3.5,2l-5.6-1.5c-0.5-0.2-0.8,0.2-1,0.5c-0.2,0.5,0.2,0.8,0.5,1l4,1.2l-3,1.7c-0.3,0.2-0.5,0.7-0.3,1.2c0.2,0.3,0.7,0.5,1.2,0.3
		l3-1.7l-1.2,4c-0.2,0.5,0.2,0.8,0.5,1c0.5,0.2,0.8-0.2,1-0.5l1.5-5.6l3.5-2l3.5,2v4l-4.1,4.1c-0.3,0.3-0.3,0.8,0,1.2
		c0.3,0.3,0.8,0.3,1.2,0l3-3V42c0,0.5,0.3,0.8,0.8,0.8s0.8-0.3,0.8-0.8v-3.5l3,3c0.3,0.3,0.8,0.3,1.2,0c0.3-0.3,0.3-0.8,0-1.2
		l-4.1-4.1V32l3.5-2l3.5,2l1.5,5.6c0.2,0.5,0.5,0.7,1,0.5c0.5-0.2,0.7-0.5,0.5-1l-1.2-4l3,1.7c0.3,0.2,0.8,0.2,1.2-0.3
		c0.2-0.3,0.2-0.8-0.3-1.2l-3-1.7l4-1.2c0.5-0.2,0.7-0.5,0.5-1c-0.2-0.5-0.5-0.7-1-0.5l-5.3,1.5l-3.5-2V24.4z M28,28.6l-3.5,2
		l-3.5-2v-4.1l3.5-2l3.5,2V28.6z"/>
</g>
</svg>
