<?xml version="1.0" encoding="utf-8"?>
<!-- Generator: Adobe Illustrator 28.0.0, SVG Export Plug-In . SVG Version: 6.00 Build 0)  -->
<svg version="1.1" id="Livello_1" xmlns="http://www.w3.org/2000/svg" xmlns:xlink="http://www.w3.org/1999/xlink" x="0px" y="0px"
	  width="40.8px" height="725.2px" viewBox="0 0 40.8 725.2" style="enable-background:new 0 0 40.8 725.2;" xml:space="preserve">
<style type="text/css">
	.st0{clip-path:url(#SVGID_00000098915040026974446110000016467911014192724646_);}
	.st1{fill:#684F05;}
	.st2{clip-path:url(#SVGID_00000094594512914248345400000008425046357698477696_);}
	.st3{fill:#530A4D;}
	.st4{fill:#80115B;}
	.st5{clip-path:url(#SVGID_00000033357817913783713780000009313875899517753984_);}
	.st6{clip-path:url(#SVGID_00000102504948381696112070000005640679351767184278_);}
	.st7{fill:#F7EC31;}
	.st8{clip-path:url(#SVGID_00000026155942262473664290000017893766540488892855_);}
	.st9{fill:#AC7283;}
	.st10{clip-path:url(#SVGID_00000007412144014701037810000015797737344956985005_);}
	.st11{fill:#A3A3A3;}
	.st12{clip-path:url(#SVGID_00000119092181945875968810000003777751247216510863_);}
	.st13{fill:#89BF73;}
	.st14{clip-path:url(#SVGID_00000137821228222868411890000011199812696791389324_);}
	.st15{fill:#4D7E3A;}
	.st16{clip-path:url(#SVGID_00000057866340628048569470000003207683099039996304_);}
	.st17{fill:#3F5736;}
	.st18{clip-path:url(#SVGID_00000087394484356165805430000003236851973360426142_);}
	.st19{fill:#C398A6;}
	.st20{fill:#E0E0E0;}
	.st21{fill:#C2C2C2;}
	.st22{fill:#FFFFFF;}
	.st23{fill:none;stroke:#3C3430;stroke-miterlimit:9.7722;}
	.st24{fill:#39322E;}
	.st25{fill:none;stroke:#3C3430;stroke-width:2;stroke-miterlimit:9.7722;}
</style>
<g>
	<g>
		<defs>
			<path id="SVGID_1_" d="M39.4,716.9c-0.5,5.3-10.1,11.6-18.5,11.6l0,0c-8.2,0.6-19.5-5.2-19.5-11.6v-840.6
				c1.7-7.6,11.7-7.8,18.2-7.8l0,0c7.7,0,17.7-0.9,19.6,7.1L39.4,716.9L39.4,716.9z"/>
		</defs>
		<clipPath id="SVGID_00000002376895202749338140000016211034289299895940_">
			<use xlink:href="#SVGID_1_"  style="overflow:visible;"/>
		</clipPath>
	</g>
	<g>
		<defs>
			<path id="SVGID_00000178170641793744831440000013553570908932468613_" d="M39.4,716.9L39.4,716.9c-0.5,5.3-10.1,11.6-18.5,11.6
				l0,0c-8.2,0.6-19.5-5.2-19.5-11.6l0.4-840.9c1.7-7.6,11.3-7.6,17.8-7.6l0,0"/>
		</defs>
		<clipPath id="SVGID_00000003075503599348717450000015759645468834601378_">
			<use xlink:href="#SVGID_00000178170641793744831440000013553570908932468613_"  style="overflow:visible;"/>
		</clipPath>
	</g>
	<g>
		<defs>
			<path id="SVGID_00000100348412221208450680000008095383323119691156_" d="M39.4,716.9c-0.5,5.3-10.1,11.6-18.5,11.6l0,0
				c-8.2,0.6-19.5-5.2-19.5-11.6l0.4-840.2c1.7-7.6,11.3-8.2,17.8-8.2l0,0c7.7,0,17.9-0.5,19.6,12.5L39.4,716.9L39.4,716.9z"/>
		</defs>
		<clipPath id="SVGID_00000039108399036943574920000001238653973348416945_">
			<use xlink:href="#SVGID_00000100348412221208450680000008095383323119691156_"  style="overflow:visible;"/>
		</clipPath>
		<g style="clip-path:url(#SVGID_00000039108399036943574920000001238653973348416945_);">
			<g>
				<g>
					<path class="st1" d="M8.9,43.9h22.2c5,0,9,4,9,9V102H1.8V51C1.8,47.1,5,43.9,8.9,43.9z"/>
				</g>
			</g>
		</g>
	</g>
	<g>
		<defs>
			<path id="SVGID_00000168833794349839536990000010752027457941893008_" d="M39.4,716.9c-0.5,5.3-10.1,11.6-18.5,11.6l0,0
				c-8.2,0.6-19.5-5.2-19.5-11.6l0.4-840.9c1.7-7.6,11.3-7.6,17.8-7.6l0,0c7.7,0,18-0.7,19.6,12.5L39.4,716.9L39.4,716.9z"/>
		</defs>
		<clipPath id="SVGID_00000119112293153998242760000015847789630416676506_">
			<use xlink:href="#SVGID_00000168833794349839536990000010752027457941893008_"  style="overflow:visible;"/>
		</clipPath>
		<g style="clip-path:url(#SVGID_00000119112293153998242760000015847789630416676506_);">
			<g>
				<g>
					<rect x="-23.5" y="102" class="st3" width="100.4" height="58.1"/>
				</g>
			</g>
		</g>
		<g style="clip-path:url(#SVGID_00000119112293153998242760000015847789630416676506_);">
			<g>
				<g>
					<rect x="-30.4" y="160.1" class="st4" width="100.4" height="58.1"/>
				</g>
			</g>
		</g>
	</g>
	<g>
		<defs>
			<path id="SVGID_00000049187187290253736290000017964519920906868887_" d="M39.3-119l0.2,836l0,0c-0.5,5.3-10.1,11.6-18.5,11.6
				l0,0c-8.2,0.6-19.5-5.2-19.5-11.6"/>
		</defs>
		<defs>
			<line id="SVGID_00000161613545894220248220000014399270502842630046_" x1="19.6" y1="-131.5" x2="19.6" y2="-131.5"/>
		</defs>
		<clipPath id="SVGID_00000119812225783328776150000006907866670952960956_">
			<use xlink:href="#SVGID_00000049187187290253736290000017964519920906868887_"  style="overflow:visible;"/>
		</clipPath>
		
			<clipPath id="SVGID_00000085250954141285547760000012959758495552233353_" style="clip-path:url(#SVGID_00000119812225783328776150000006907866670952960956_);">
			<use xlink:href="#SVGID_00000161613545894220248220000014399270502842630046_"  style="overflow:visible;"/>
		</clipPath>
		<g style="clip-path:url(#SVGID_00000085250954141285547760000012959758495552233353_);">
			<g>
				<g>
					<rect x="-23.5" y="160" class="st7" width="100.4" height="58.1"/>
				</g>
			</g>
		</g>
	</g>
	<g>
		<defs>
			<path id="SVGID_00000011748717796790215470000017592592769565889961_" d="M39.3-119l0.2,836l0,0c-0.5,5.3-10.1,11.6-18.5,11.6
				l0,0c-8.2,0.6-19.5-5.2-19.5-11.6v-839.8c1.7-7.6,11.7-8.6,18.2-8.6l0,0"/>
		</defs>
		<clipPath id="SVGID_00000081629771976537579700000003846938342084202147_">
			<use xlink:href="#SVGID_00000011748717796790215470000017592592769565889961_"  style="overflow:visible;"/>
		</clipPath>
		<g style="clip-path:url(#SVGID_00000081629771976537579700000003846938342084202147_);">
			<g>
				<g>
					<rect x="-23.5" y="218.1" class="st9" width="100.4" height="58.1"/>
				</g>
			</g>
		</g>
	</g>
	<g>
		<defs>
			<path id="SVGID_00000104685433218002130680000016991519668449162653_" d="M39.4,716.9c-0.5,5.3-10.1,11.6-18.5,11.6l0,0
				c-8.2,0.6-19.5-5.2-19.5-11.6v-840.6c1.7-7.6,11.7-7.8,18.2-7.8l0,0c7.7,0,18.2-0.5,19.6,12.5L39.4,716.9L39.4,716.9z"/>
		</defs>
		<clipPath id="SVGID_00000143597427769872116080000013472562671337363382_">
			<use xlink:href="#SVGID_00000104685433218002130680000016991519668449162653_"  style="overflow:visible;"/>
		</clipPath>
		<g style="clip-path:url(#SVGID_00000143597427769872116080000013472562671337363382_);">
			<g>
				<g>
					<rect x="-22.3" y="450.5" class="st11" width="100.4" height="58.1"/>
				</g>
			</g>
		</g>
	</g>
	<g>
		<defs>
			<path id="SVGID_00000060713978229330412610000001242392071182952872_" d="M39.4,716.9c-0.5,5.3-10.1,11.6-18.5,11.6l0,0
				c-8.2,0.6-19.5-5.2-19.5-11.6v-840.6c1.7-7.6,11.7-7.8,18.2-7.8l0,0c7.7,0,18.2-1.3,19.6,12.5L39.4,716.9L39.4,716.9z"/>
		</defs>
		<clipPath id="SVGID_00000043439930468464822360000011988295345565733051_">
			<use xlink:href="#SVGID_00000060713978229330412610000001242392071182952872_"  style="overflow:visible;"/>
		</clipPath>
		<g style="clip-path:url(#SVGID_00000043439930468464822360000011988295345565733051_);">
			<g>
				<g>
					<rect x="-22.3" y="508.5" class="st13" width="100.4" height="58.1"/>
				</g>
			</g>
		</g>
	</g>
	<g>
		<defs>
			<path id="SVGID_00000048483031147281465460000017961855064171902124_" d="M39.4,716.9c-0.5,5.3-10.1,11.6-18.5,11.6l0,0
				c-8.2,0.6-19.5-5.2-19.5-11.6l0-836.2c-0.2-19.4,11.7-12.4,18.2-12.2l0,0c7.7,0,18.3-0.7,19.6,12.5L39.4,716.9L39.4,716.9z"/>
		</defs>
		<clipPath id="SVGID_00000138550818620415228530000014452410293576349112_">
			<use xlink:href="#SVGID_00000048483031147281465460000017961855064171902124_"  style="overflow:visible;"/>
		</clipPath>
		<g style="clip-path:url(#SVGID_00000138550818620415228530000014452410293576349112_);">
			<g>
				<g>
					<rect x="-21.3" y="566.6" class="st15" width="100.4" height="58.1"/>
				</g>
			</g>
		</g>
	</g>
	<g>
		<defs>
			<path id="SVGID_00000150088491119355903410000016345475448046672027_" d="M39,719.7C38.6,725,29,724,20.6,724l0,0
				c-8.2,0.6-19.1,0.1-19.1-7l0.4-842.2c1.7-7.6,11.3-6.2,17.8-6.2l0,0c7.7,0,17.7,0.4,19.6,8.4l0.2,840L39,719.7z"/>
		</defs>
		<clipPath id="SVGID_00000137849203044961490140000008775123396880617886_">
			<use xlink:href="#SVGID_00000150088491119355903410000016345475448046672027_"  style="overflow:visible;"/>
		</clipPath>
		<g style="clip-path:url(#SVGID_00000137849203044961490140000008775123396880617886_);">
			<g>
				<g>
					<rect x="-21.6" y="624.7" class="st17" width="100.4" height="100.3"/>
				</g>
			</g>
		</g>
	</g>
	<g>
		<defs>
			<path id="SVGID_00000067950140164178477570000012641464955959411613_" d="M20.6,721.4L20.6,721.4c-8.2,0.6-19.2,1.9-19.2-4.5
				l0.4-840.9c1.7-7.6,11.3-7.6,17.8-7.6l0,0c7.7,0,17.2,0.9,19.1,8.9l0.7,839.5"/>
		</defs>
		<clipPath id="SVGID_00000136397276364343749070000009572086690755956355_">
			<use xlink:href="#SVGID_00000067950140164178477570000012641464955959411613_"  style="overflow:visible;"/>
		</clipPath>
		<g style="clip-path:url(#SVGID_00000136397276364343749070000009572086690755956355_);">
			<g>
				<g>
					<rect x="-22.3" y="276.2" class="st19" width="100.4" height="58.1"/>
				</g>
			</g>
		</g>
	</g>
	<g>
		<g>
			<g>
				<g>
					<rect x="1.4" y="334.2" class="st20" width="38" height="58.1"/>
				</g>
			</g>
		</g>
	</g>
	<g>
		<g>
			<g>
				<g>
					<rect x="2.2" y="392.4" class="st21" width="36.7" height="58.1"/>
				</g>
			</g>
		</g>
	</g>
</g>
<g>
	<path class="st22" d="M14.8,622.3c0.5-0.7,1.3-1,2.3-1c1,0,1.8,0.3,2.3,1s0.8,1.7,0.8,3.2s-0.3,2.5-0.8,3.1s-1.3,0.9-2.3,0.9
		c-1,0-1.8-0.3-2.3-0.9c-0.5-0.6-0.8-1.7-0.8-3.1S14.3,623,14.8,622.3z M18.5,625.4c0-1-0.1-1.7-0.3-2.1c-0.2-0.4-0.6-0.6-1-0.6
		s-0.8,0.2-1.1,0.6c-0.2,0.4-0.3,1.1-0.3,2.1c0,1,0.1,1.7,0.3,2.1c0.2,0.4,0.6,0.6,1.1,0.6s0.8-0.2,1-0.6S18.5,626.4,18.5,625.4z"/>
	<path class="st22" d="M21.2,629.4v-2h1.7v2H21.2z"/>
	<path class="st22" d="M29.4,621.5v1.4h-3.5l-0.2,1.7c0.5-0.2,1-0.3,1.4-0.3c1.7,0,2.6,0.8,2.6,2.4c0,0.9-0.2,1.6-0.7,2.1
		c-0.5,0.5-1.1,0.7-2,0.7c-0.4,0-0.8,0-1.3-0.1c-0.5-0.1-0.8-0.1-1.1-0.2l-0.4-0.1l0.2-1.2c1,0.2,1.8,0.2,2.4,0.2
		c0.4,0,0.7-0.1,0.9-0.3c0.2-0.2,0.3-0.5,0.3-0.9s-0.1-0.7-0.3-0.8s-0.4-0.3-0.7-0.3c-0.5,0-1,0.1-1.4,0.2l-0.2,0l-1-0.2l0.2-4.3
		H29.4z"/>
</g>
<g>
	<path class="st22" d="M20.1,278.2h-5.1v-1.4l1.7-1.7c0.6-0.6,1-1.1,1.3-1.4s0.4-0.7,0.4-1s-0.1-0.6-0.3-0.8
		c-0.2-0.2-0.5-0.2-0.8-0.2c-0.5,0-1.1,0-1.8,0.1l-0.3,0l-0.1-1.3c0.8-0.2,1.6-0.4,2.4-0.4c1.7,0,2.5,0.8,2.5,2.3
		c0,0.6-0.1,1.1-0.4,1.5c-0.3,0.4-0.7,1-1.4,1.6l-1.4,1.2h3.3V278.2z"/>
	<path class="st22" d="M21.9,271.1c0.5-0.7,1.3-1,2.3-1c1,0,1.8,0.3,2.3,1c0.5,0.7,0.8,1.7,0.8,3.2s-0.3,2.5-0.8,3.1
		c-0.5,0.6-1.3,0.9-2.3,0.9c-1,0-1.8-0.3-2.3-0.9s-0.8-1.7-0.8-3.1S21.4,271.7,21.9,271.1z M25.6,274.2c0-1-0.1-1.7-0.3-2.1
		c-0.2-0.4-0.6-0.6-1-0.6c-0.5,0-0.8,0.2-1.1,0.6c-0.2,0.4-0.3,1.1-0.3,2.1c0,1,0.1,1.7,0.3,2.1c0.2,0.4,0.6,0.6,1.1,0.6
		c0.5,0,0.8-0.2,1-0.6S25.6,275.2,25.6,274.2z"/>
</g>
<g>
	<path class="st22" d="M13.8,213.1c0.7-0.3,1.6-0.4,2.5-0.4c0.9,0,1.6,0.2,2,0.5s0.6,0.9,0.6,1.7c0,0.8-0.3,1.4-0.9,1.8
		c0.4,0.2,0.7,0.4,0.8,0.6s0.2,0.6,0.2,1.1c0,0.9-0.2,1.5-0.6,1.9c-0.4,0.4-1.1,0.6-2.1,0.6c-0.7,0-1.4-0.1-2.2-0.3l-0.4-0.1
		l0.1-1.3c0.9,0.2,1.6,0.2,2.3,0.2c0.8,0,1.2-0.4,1.2-1.1c0-0.3-0.1-0.5-0.3-0.7c-0.2-0.2-0.5-0.3-0.8-0.3h-1.6V216h1.6
		c0.3,0,0.5-0.1,0.7-0.3c0.2-0.2,0.3-0.5,0.3-0.7c0-0.6-0.4-0.9-1.2-0.9c-0.6,0-1.1,0.1-1.8,0.2l-0.3,0L13.8,213.1z"/>
	<path class="st22" d="M20.9,213.6c0.5-0.7,1.3-1,2.3-1c1,0,1.8,0.3,2.3,1c0.5,0.7,0.8,1.7,0.8,3.2s-0.3,2.5-0.8,3.1
		c-0.5,0.6-1.3,0.9-2.3,0.9c-1,0-1.8-0.3-2.3-0.9s-0.8-1.7-0.8-3.1S20.3,214.3,20.9,213.6z M24.5,216.8c0-1-0.1-1.7-0.3-2.1
		c-0.2-0.4-0.6-0.6-1-0.6c-0.5,0-0.8,0.2-1.1,0.6c-0.2,0.4-0.3,1.1-0.3,2.1c0,1,0.1,1.7,0.3,2.1c0.2,0.4,0.6,0.6,1.1,0.6
		c0.5,0,0.8-0.2,1-0.6S24.5,217.7,24.5,216.8z"/>
</g>
<g>
	<path class="st22" d="M11.2,102.3l-3.1-1.2v-1.6l4.9,2.2v1.3l-4.9,2.2v-1.6L11.2,102.3z"/>
	<path class="st22" d="M18.8,97.5v7.9h-1.7v-6l-1.7,1.1l-0.8-1.2l2.6-1.7H18.8z"/>
	<path class="st22" d="M21.5,98.3c0.5-0.7,1.3-1,2.3-1c1,0,1.8,0.3,2.3,1s0.8,1.7,0.8,3.2s-0.3,2.5-0.8,3.1s-1.3,0.9-2.3,0.9
		c-1,0-1.8-0.3-2.3-0.9c-0.5-0.6-0.8-1.7-0.8-3.1S21,98.9,21.5,98.3z M25.2,101.4c0-1-0.1-1.7-0.3-2.1c-0.2-0.4-0.6-0.6-1-0.6
		s-0.8,0.2-1.1,0.6c-0.2,0.4-0.3,1.1-0.3,2.1c0,1,0.1,1.7,0.3,2.1s0.6,0.6,1.1,0.6s0.8-0.2,1-0.6S25.2,102.4,25.2,101.4z"/>
	<path class="st22" d="M28.3,98.3c0.5-0.7,1.3-1,2.3-1c1,0,1.8,0.3,2.3,1s0.8,1.7,0.8,3.2s-0.3,2.5-0.8,3.1s-1.3,0.9-2.3,0.9
		c-1,0-1.8-0.3-2.3-0.9c-0.5-0.6-0.8-1.7-0.8-3.1S27.7,98.9,28.3,98.3z M31.9,101.4c0-1-0.1-1.7-0.3-2.1c-0.2-0.4-0.6-0.6-1-0.6
		s-0.8,0.2-1.1,0.6c-0.2,0.4-0.3,1.1-0.3,2.1c0,1,0.1,1.7,0.3,2.1s0.6,0.6,1.1,0.6s0.8-0.2,1-0.6S31.9,102.4,31.9,101.4z"/>
</g>
<line class="st23" x1="1.9" y1="624.7" x2="13.3" y2="624.7"/>
<line class="st23" x1="39" y1="624.7" x2="30.7" y2="624.7"/>
<line class="st23" x1="2.6" y1="275.9" x2="15.3" y2="275.9"/>
<line class="st23" x1="39.3" y1="276" x2="28.1" y2="276"/>
<line class="st23" x1="2.5" y1="218.5" x2="13.3" y2="218.5"/>
<line class="st23" x1="38.3" y1="218.5" x2="27.4" y2="218.5"/>
<line class="st23" x1="7.6" y1="102.2" x2="1.3" y2="102.2"/>
<line class="st23" x1="38.4" y1="102.4" x2="34.3" y2="102.4"/>
<g>
	<path class="st22" d="M22.8,561.5v7.9h-1.7v-6l-1.7,1.1l-0.8-1.2l2.6-1.7H22.8z"/>
</g>
<line class="st23" x1="2.4" y1="566.5" x2="16.3" y2="566.5"/>
<line class="st23" x1="38.8" y1="566.5" x2="25.4" y2="566.5"/>
<g>
	<path class="st22" d="M24,511.3h-5.1v-1.4l1.7-1.7c0.6-0.6,1-1.1,1.3-1.4c0.2-0.3,0.4-0.7,0.4-1s-0.1-0.6-0.3-0.8
		c-0.2-0.2-0.5-0.2-0.8-0.2c-0.5,0-1.1,0-1.8,0.1l-0.3,0l-0.1-1.3c0.8-0.2,1.6-0.4,2.4-0.4c1.7,0,2.5,0.8,2.5,2.3
		c0,0.6-0.1,1.1-0.4,1.5c-0.3,0.4-0.7,1-1.4,1.6l-1.4,1.2H24V511.3z"/>
</g>
<line class="st23" x1="2.7" y1="508.4" x2="16.6" y2="508.4"/>
<line class="st23" x1="39.1" y1="508.4" x2="25.7" y2="508.4"/>
<g>
	<g>
		<path class="st24" d="M23.5,445.5v1.4h-3.5l-0.2,1.7c0.5-0.2,1-0.3,1.4-0.3c1.7,0,2.6,0.8,2.6,2.4c0,0.9-0.2,1.6-0.7,2.1
			s-1.1,0.7-2,0.7c-0.4,0-0.8,0-1.3-0.1s-0.8-0.1-1.1-0.2l-0.4-0.1l0.2-1.2c1,0.2,1.8,0.2,2.4,0.2c0.4,0,0.7-0.1,0.9-0.3
			c0.2-0.2,0.3-0.5,0.3-0.9s-0.1-0.7-0.3-0.8s-0.4-0.3-0.7-0.3c-0.5,0-1,0.1-1.4,0.2l-0.2,0l-1-0.2l0.2-4.3H23.5z"/>
	</g>
</g>
<line class="st23" x1="2.2" y1="450.5" x2="16.1" y2="450.5"/>
<line class="st23" x1="38.6" y1="450.5" x2="25.2" y2="450.5"/>
<g>
	<path class="st24" d="M19.7,387.6v7.9H18v-6l-1.7,1.1l-0.8-1.2l2.6-1.7H19.7z"/>
	<path class="st24" d="M22.4,388.4c0.5-0.7,1.3-1,2.3-1c1,0,1.8,0.3,2.3,1c0.5,0.7,0.8,1.7,0.8,3.2s-0.3,2.5-0.8,3.1
		c-0.5,0.6-1.3,0.9-2.3,0.9c-1,0-1.8-0.3-2.3-0.9s-0.8-1.7-0.8-3.1S21.9,389.1,22.4,388.4z M26.1,391.6c0-1-0.1-1.7-0.3-2.1
		c-0.2-0.4-0.6-0.6-1-0.6c-0.5,0-0.8,0.2-1.1,0.6c-0.2,0.4-0.3,1.1-0.3,2.1c0,1,0.1,1.7,0.3,2.1c0.2,0.4,0.6,0.6,1.1,0.6
		c0.5,0,0.8-0.2,1-0.6S26.1,392.6,26.1,391.6z"/>
</g>
<line class="st23" x1="3" y1="392.4" x2="15.3" y2="392.4"/>
<line class="st23" x1="39.4" y1="392.4" x2="28.8" y2="392.4"/>
<g>
	<path class="st24" d="M18.9,329.4v7.9h-1.7v-6l-1.7,1.1l-0.8-1.2l2.6-1.7H18.9z"/>
	<path class="st24" d="M26.5,329.4v1.4h-3.5l-0.2,1.7c0.5-0.2,1-0.3,1.4-0.3c1.7,0,2.6,0.8,2.6,2.4c0,0.9-0.2,1.6-0.7,2.1
		c-0.5,0.5-1.1,0.7-2,0.7c-0.4,0-0.8,0-1.3-0.1c-0.5-0.1-0.8-0.1-1.1-0.2l-0.4-0.1l0.2-1.2c1,0.2,1.8,0.2,2.4,0.2
		c0.4,0,0.7-0.1,0.9-0.3c0.2-0.2,0.3-0.5,0.3-0.9s-0.1-0.7-0.3-0.8s-0.4-0.3-0.7-0.3c-0.5,0-1,0.1-1.4,0.2l-0.2,0l-1-0.2l0.2-4.3
		H26.5z"/>
</g>
<line class="st23" x1="2.2" y1="334.2" x2="14.6" y2="334.2"/>
<line class="st23" x1="38.6" y1="334.2" x2="28" y2="334.2"/>
<g>
	<path class="st22" d="M18.7,154v1.4h-3.5l-0.2,1.7c0.5-0.2,1-0.3,1.4-0.3c1.7,0,2.6,0.8,2.6,2.4c0,0.9-0.2,1.6-0.7,2.1
		c-0.5,0.5-1.1,0.7-2,0.7c-0.4,0-0.8,0-1.3-0.1c-0.5-0.1-0.8-0.1-1.1-0.2l-0.4-0.1l0.2-1.2c1,0.2,1.8,0.2,2.4,0.2
		c0.4,0,0.7-0.1,0.9-0.3c0.2-0.2,0.3-0.5,0.3-0.9s-0.1-0.7-0.3-0.8s-0.4-0.3-0.7-0.3c-0.5,0-1,0.1-1.4,0.2l-0.2,0l-1-0.2l0.2-4.3
		H18.7z"/>
	<path class="st22" d="M20.6,154.9c0.5-0.7,1.3-1,2.3-1c1,0,1.8,0.3,2.3,1c0.5,0.7,0.8,1.7,0.8,3.2s-0.3,2.5-0.8,3.1
		c-0.5,0.6-1.3,0.9-2.3,0.9c-1,0-1.8-0.3-2.3-0.9s-0.8-1.7-0.8-3.1S20.1,155.5,20.6,154.9z M24.3,158c0-1-0.1-1.7-0.3-2.1
		c-0.2-0.4-0.6-0.6-1-0.6c-0.5,0-0.8,0.2-1.1,0.6c-0.2,0.4-0.3,1.1-0.3,2.1c0,1,0.1,1.7,0.3,2.1c0.2,0.4,0.6,0.6,1.1,0.6
		c0.5,0,0.8-0.2,1-0.6S24.3,159,24.3,158z"/>
</g>
<line class="st23" x1="1.9" y1="159.8" x2="12.7" y2="159.8"/>
<line class="st23" x1="37.7" y1="159.8" x2="26.8" y2="159.8"/>
<g>
	<path class="st22" d="M17.2,714.2c0.3,0,0.7,0,1.3,0.1l0.3,0l0,0.7c-0.6-0.1-1.1-0.1-1.4-0.1c-0.7,0-1.1,0.2-1.4,0.5
		c-0.2,0.3-0.4,0.9-0.4,1.8s0.1,1.5,0.3,1.8c0.2,0.3,0.7,0.5,1.4,0.5l1.4-0.1l0,0.7c-0.7,0.1-1.3,0.2-1.7,0.2
		c-0.9,0-1.6-0.2-1.9-0.7c-0.4-0.5-0.5-1.3-0.5-2.4c0-1.1,0.2-1.9,0.6-2.4S16.3,714.2,17.2,714.2z"/>
	<path class="st22" d="M21.1,720.3h-0.9v-6h0.9v0.4c0.6-0.4,1.2-0.5,1.8-0.5c0.7,0,1.3,0.2,1.6,0.6c0.3-0.2,0.6-0.3,1-0.4
		s0.8-0.2,1.1-0.2c0.8,0,1.3,0.2,1.6,0.6c0.3,0.4,0.4,1.2,0.4,2.3v3.2h-0.9v-3.1c0-0.8-0.1-1.4-0.2-1.7c-0.2-0.3-0.5-0.5-1-0.5
		c-0.3,0-0.5,0-0.8,0.1s-0.5,0.2-0.6,0.2l-0.2,0.1c0.1,0.3,0.2,0.8,0.2,1.8v3.1H24v-3.1c0-0.9-0.1-1.5-0.2-1.8
		c-0.2-0.3-0.5-0.5-1-0.5c-0.3,0-0.5,0-0.8,0.1c-0.3,0.1-0.5,0.2-0.6,0.2l-0.2,0.1V720.3z"/>
</g>
<circle class="st24" cx="20.3" cy="21.3" r="19.8"/>
<path class="st25" d="M32.8,724H8.3c-3.4,0-6.2-3-6.2-6.7V51.3c0-3.7,2.8-6.7,6.2-6.7h24.5c3.4,0,6.2,3,6.2,6.7v665.9
	C39,720.9,36.2,724,32.8,724z"/>
<g>
	<path class="st22" d="M25.6,19.1l3.5-2l5.6,1.5c0.5,0.2,0.8-0.2,1-0.5c0.2-0.5-0.2-0.8-0.5-1l-4-1.2l3-1.7c0.3-0.2,0.5-0.7,0.3-1.2
		c-0.2-0.3-0.7-0.5-1.2-0.3l-3,1.7l1.2-4c0.2-0.5-0.2-0.8-0.5-1c-0.5-0.2-0.8,0.2-1,0.5l-1.5,5.6l-3.5,2l-3.5-2v-4l4.1-4.1
		c0.3-0.3,0.3-0.8,0-1.2c-0.3-0.3-0.8-0.3-1.2,0l-3,3V5.9c0-0.5-0.3-0.8-0.8-0.8s-0.8,0.3-0.8,0.8v3.5l-3-3c-0.3-0.3-0.8-0.3-1.2,0
		c-0.3,0.3-0.3,0.8,0,1.2l4.1,4.1v4l-3.5,2l-3.5-2l-1.8-5.5c-0.2-0.5-0.5-0.7-1-0.5c-0.5,0.2-0.7,0.5-0.5,1l1.2,4l-3-1.7
		c-0.3-0.2-0.8-0.2-1.2,0.3c-0.2,0.3-0.2,0.8,0.3,1.2l3,1.7l-4,1.2c-0.5,0.2-0.7,0.5-0.5,1c0.2,0.5,0.5,0.7,1,0.5l5.6-1.5l3.5,2v4.1
		l-3.5,2l-5.6-1.5c-0.5-0.2-0.8,0.2-1,0.5c-0.2,0.5,0.2,0.8,0.5,1l4,1.2l-3,1.7c-0.3,0.2-0.5,0.7-0.3,1.2c0.2,0.3,0.7,0.5,1.2,0.3
		l3-1.7l-1.2,4c-0.2,0.5,0.2,0.8,0.5,1c0.5,0.2,0.8-0.2,1-0.5l1.5-5.6l3.5-2l3.5,2v4L15.5,35c-0.3,0.3-0.3,0.8,0,1.2
		c0.3,0.3,0.8,0.3,1.2,0l3-3v3.5c0,0.5,0.3,0.8,0.8,0.8s0.8-0.3,0.8-0.8v-3.5l3,3c0.3,0.3,0.8,0.3,1.2,0c0.3-0.3,0.3-0.8,0-1.2
		l-4.1-4.1v-4.1l3.5-2l3.5,2l1.5,5.6c0.2,0.5,0.5,0.7,1,0.5c0.5-0.2,0.7-0.5,0.5-1l-1.2-4l3,1.7c0.3,0.2,0.8,0.2,1.2-0.3
		c0.2-0.3,0.2-0.8-0.3-1.2l-3-1.7l4-1.2c0.5-0.2,0.7-0.5,0.5-1c-0.2-0.5-0.5-0.7-1-0.5L29,25.3l-3.5-2V19.1z M23.9,23.3l-3.5,2
		l-3.5-2v-4.1l3.5-2l3.5,2V23.3z"/>
</g>
</svg>
