<?xml version="1.0" encoding="utf-8"?>
<!-- Generator: Adobe Illustrator 28.0.0, SVG Export Plug-In . SVG Version: 6.00 Build 0)  -->
<svg version="1.1" id="Livello_1" xmlns="http://www.w3.org/2000/svg" xmlns:xlink="http://www.w3.org/1999/xlink" x="0px" y="0px"
	 width="38px" height="644px" viewBox="0 0 37.2 644.1" style="enable-background:new 0 0 37.2 644.1;" xml:space="preserve">
<style type="text/css">
	.st0{fill:#39322E;}
	.st1{clip-path:url(#SVGID_00000132808171393681409350000016756124115618575759_);}
	.st2{fill:#FFFFFF;}
	.st3{fill:#F2F2F2;}
	.st4{fill:#DADADA;}
	.st5{fill:#CDCDCD;}
	.st6{fill:#FEEDFF;}
	.st7{fill:#E7D8E8;}
	.st8{fill:#DBC5DD;}
	.st9{fill:#B68CBB;}
	.st10{fill:#B67BB9;}
	.st11{fill:#906192;}
	.st12{fill:none;stroke:#3C3430;stroke-width:2.9317;stroke-miterlimit:9.7722;}
	.st13{fill:#3C3530;}
	.st14{clip-path:url(#SVGID_00000122710139877325629230000011313800651508616351_);}
</style>
<g>
	<path class="st0" d="M13.7,633.9c-0.8-0.4-1.5-1-2-1.7s-0.7-1.6-0.7-2.6s0.2-1.8,0.7-2.6s1.2-1.3,2-1.7s1.8-0.7,2.9-0.7
		c0.8,0,1.6,0.1,2.3,0.4c0.7,0.3,1.3,0.7,1.7,1.2l-1.3,1.1c-0.7-0.8-1.6-1.2-2.8-1.2c-0.7,0-1.4,0.1-2,0.4c-0.6,0.3-1,0.7-1.3,1.2
		s-0.5,1.1-0.5,1.7s0.1,1.2,0.5,1.7c0.3,0.5,0.8,1,1.3,1.2c0.6,0.3,1.2,0.4,2,0.4c1,0,2-0.4,2.8-1.2l1.3,1.1c-0.5,0.5-1,1-1.7,1.2
		c-0.7,0.3-1.5,0.4-2.3,0.4C15.5,634.6,14.5,634.4,13.7,633.9z"/>
	<path class="st0" d="M23,628.9c-0.3-0.2-0.7-0.5-0.9-0.9c-0.2-0.3-0.3-0.8-0.3-1.2s0.1-0.9,0.3-1.2c0.2-0.3,0.6-0.7,0.9-0.9
		s0.8-0.3,1.3-0.3s0.9,0.1,1.3,0.3c0.3,0.2,0.7,0.5,0.9,0.9c0.2,0.3,0.3,0.8,0.3,1.2s-0.1,0.8-0.3,1.2c-0.2,0.3-0.6,0.7-0.9,0.9
		s-0.8,0.3-1.3,0.3S23.4,629.2,23,628.9z M25.3,628c0.2-0.2,0.5-0.7,0.5-1c0-0.4-0.1-0.8-0.5-1c-0.3-0.2-0.6-0.4-1-0.4
		s-0.8,0.1-1,0.4c-0.2,0.2-0.5,0.7-0.5,1c0,0.4,0.1,0.8,0.5,1c0.2,0.2,0.7,0.4,1,0.4C24.6,628.4,25.1,628.3,25.3,628z"/>
</g>
<circle class="st0" cx="18.6" cy="20.6" r="14.6"/>
<g>
	<defs>
		<path id="SVGID_00000084513282298939169400000014448037999514455994_" d="M30.4,632.9c-0.4,3.7-6.9,8.1-12.4,8.1l0,0
			c-5.5,0.4-13.1-3.6-13.1-8.1V49.3c1.2-5.4,7.8-8.5,12.3-8.4l0,0c5.2,0,11.9,3.2,13.3,8.7L30.4,632.9L30.4,632.9z"/>
	</defs>
	<clipPath id="SVGID_00000048476161553045500490000008311101736915176127_">
		<use xlink:href="#SVGID_00000084513282298939169400000014448037999514455994_"  style="overflow:visible;"/>
	</clipPath>
	<g style="clip-path:url(#SVGID_00000048476161553045500490000008311101736915176127_);">
		<g>
			<g>
				<rect x="-6.2" y="35.2" class="st2" width="52.3" height="58"/>
			</g>
		</g>
	</g>
	<g style="clip-path:url(#SVGID_00000048476161553045500490000008311101736915176127_);">
		<g>
			<g>
				<rect x="-6.2" y="93.2" class="st3" width="52.3" height="58"/>
			</g>
		</g>
	</g>
	<g style="clip-path:url(#SVGID_00000048476161553045500490000008311101736915176127_);">
		<g>
			<g>
				<rect x="-6.2" y="151.2" class="st4" width="52.3" height="58"/>
			</g>
		</g>
	</g>
	<g style="clip-path:url(#SVGID_00000048476161553045500490000008311101736915176127_);">
		<g>
			<g>
				<rect x="-6.2" y="209.4" class="st5" width="52.3" height="58"/>
			</g>
		</g>
	</g>
	<g style="clip-path:url(#SVGID_00000048476161553045500490000008311101736915176127_);">
		<g>
			<g>
				<rect x="-6.2" y="266.6" class="st6" width="52.3" height="58"/>
			</g>
		</g>
	</g>
	<g style="clip-path:url(#SVGID_00000048476161553045500490000008311101736915176127_);">
		<g>
			<g>
				<rect x="-6.2" y="324.8" class="st7" width="52.3" height="58"/>
			</g>
		</g>
	</g>
	<g style="clip-path:url(#SVGID_00000048476161553045500490000008311101736915176127_);">
		<g>
			<g>
				<rect x="-6.2" y="382.8" class="st8" width="52.3" height="58"/>
			</g>
		</g>
	</g>
	<g style="clip-path:url(#SVGID_00000048476161553045500490000008311101736915176127_);">
		<g>
			<g>
				<rect x="-6.2" y="440.7" class="st9" width="52.3" height="58"/>
			</g>
		</g>
	</g>
	<g style="clip-path:url(#SVGID_00000048476161553045500490000008311101736915176127_);">
		<g>
			<g>
				<rect x="-6.2" y="498.9" class="st10" width="52.3" height="58"/>
			</g>
		</g>
	</g>
	<g style="clip-path:url(#SVGID_00000048476161553045500490000008311101736915176127_);">
		<g>
			<g>
				<rect x="-6.2" y="556.9" class="st11" width="52.3" height="87.7"/>
			</g>
		</g>
	</g>
</g>
<path class="st12" d="M30.4,632.9C30,636.6,24,641,18.9,641l0,0c-5.1,0.4-12.1-3.6-12.1-8.1V49.3c1.1-5.4,7.2-8.5,11.4-8.4l0,0
	c4.8,0,11,3.2,12.3,8.7L30.4,632.9L30.4,632.9z"/>
<g>
	<path class="st2" d="M11.2,633.8c-0.5-0.3-0.9-0.6-1.1-1.1c-0.3-0.5-0.4-1-0.4-1.5c0-0.6,0.1-1.1,0.4-1.5c0.3-0.4,0.7-0.8,1.1-1.1
		c0.5-0.3,1-0.4,1.7-0.4c0.6,0,1.1,0.1,1.5,0.3s0.8,0.6,1,1l-1.1,0.6c-0.2-0.3-0.4-0.5-0.6-0.6c-0.3-0.1-0.5-0.2-0.8-0.2
		c-0.5,0-1,0.2-1.3,0.5s-0.5,0.8-0.5,1.3c0,0.6,0.2,1,0.5,1.3s0.8,0.5,1.3,0.5c0.3,0,0.6-0.1,0.8-0.2c0.3-0.1,0.5-0.3,0.6-0.6
		l1.1,0.6c-0.2,0.4-0.6,0.8-1,1s-1,0.4-1.5,0.4C12.3,634.1,11.7,634,11.2,633.8z"/>
	<path class="st2" d="M25.9,628.8c0.4,0.4,0.7,1.1,0.7,1.9v3.3h-1.4v-3.1c0-0.5-0.1-0.9-0.3-1.1c-0.2-0.3-0.6-0.4-1-0.4
		c-0.5,0-0.8,0.1-1.1,0.4c-0.3,0.3-0.4,0.7-0.4,1.3v2.9H21v-3.1c0-0.5-0.1-0.9-0.3-1.1c-0.2-0.3-0.6-0.4-1-0.4
		c-0.5,0-0.9,0.1-1.1,0.4c-0.3,0.3-0.4,0.7-0.4,1.3v2.9h-1.4v-5.8h1.3v0.7c0.2-0.3,0.5-0.5,0.8-0.6s0.7-0.2,1.1-0.2s0.8,0.1,1.2,0.2
		c0.3,0.2,0.6,0.4,0.8,0.7c0.2-0.3,0.6-0.5,1-0.7s0.8-0.3,1.3-0.3C24.9,628.2,25.5,628.4,25.9,628.8z"/>
</g>
<g>
	<path class="st2" d="M20.5,588.1v7h-1.3v-5.9h-1.5v-1.1H20.5z"/>
</g>
<g>
	<path class="st13" d="M21.6,528.8v1.1h-5.2V529l2.8-2.6c0.3-0.3,0.5-0.6,0.6-0.8s0.2-0.4,0.2-0.7c0-0.3-0.1-0.6-0.3-0.8
		c-0.2-0.2-0.5-0.3-1-0.3c-0.7,0-1.3,0.2-1.6,0.7l-0.9-0.7c0.3-0.4,0.6-0.7,1.1-0.9c0.5-0.2,1-0.3,1.6-0.3c0.8,0,1.4,0.2,1.8,0.5
		c0.5,0.4,0.7,0.9,0.7,1.5c0,0.4-0.1,0.7-0.2,1.1c-0.2,0.3-0.5,0.7-0.9,1.1l-1.9,1.8h3.2V528.8z"/>
</g>
<g>
	<path class="st13" d="M21.1,466.5c0.5,0.4,0.7,0.9,0.7,1.6c0,0.4-0.1,0.8-0.3,1.1c-0.2,0.3-0.5,0.6-0.9,0.8
		c-0.4,0.2-0.9,0.3-1.5,0.3c-0.5,0-1-0.1-1.5-0.2s-0.9-0.3-1.2-0.6l0.5-1c0.3,0.2,0.6,0.4,0.9,0.5c0.4,0.1,0.7,0.2,1.1,0.2
		c0.5,0,0.8-0.1,1.1-0.3c0.3-0.2,0.4-0.5,0.4-0.8c0-0.4-0.1-0.6-0.4-0.8s-0.8-0.3-1.5-0.3h-1.7l0.4-3.8h4.2v1.1h-3l-0.2,1.6h0.7
		C19.9,465.9,20.6,466.1,21.1,466.5z"/>
</g>
<g>
	<path class="st13" d="M18.8,119.3v0.9l-2.7,6.1h-1.4l2.6-5.9h-2.8v1.2h-1.2v-2.3L18.8,119.3L18.8,119.3z"/>
	<path class="st13" d="M23.6,122.6c0.5,0.4,0.7,0.9,0.7,1.6c0,0.4-0.1,0.8-0.3,1.1c-0.2,0.3-0.5,0.6-0.9,0.8s-0.9,0.3-1.5,0.3
		c-0.5,0-1-0.1-1.5-0.2s-0.9-0.3-1.2-0.6l0.5-1c0.3,0.2,0.6,0.4,0.9,0.5c0.4,0.1,0.7,0.2,1.1,0.2c0.5,0,0.8-0.1,1.1-0.3
		c0.3-0.2,0.4-0.5,0.4-0.8c0-0.4-0.1-0.6-0.4-0.8s-0.8-0.3-1.5-0.3h-1.7l0.4-3.8h4.2v1.1h-3l-0.2,1.6h0.7
		C22.4,122,23.2,122.2,23.6,122.6z"/>
</g>
<g>
	<path class="st13" d="M16.4,409v7h-1.3v-5.9h-1.5V409H16.4z"/>
	<path class="st13" d="M19.2,415.7c-0.4-0.3-0.8-0.7-1-1.2c-0.3-0.5-0.4-1.2-0.4-1.9s0.1-1.4,0.4-1.9s0.6-1,1-1.2
		c0.4-0.3,0.9-0.4,1.5-0.4s1.1,0.1,1.5,0.4s0.8,0.7,1,1.2c0.3,0.5,0.4,1.2,0.4,1.9s-0.1,1.4-0.4,1.9s-0.6,1-1,1.2
		c-0.4,0.3-0.9,0.4-1.5,0.4C20.2,416.1,19.7,416,19.2,415.7z M21.9,414.4c0.3-0.4,0.4-1,0.4-1.9s-0.1-1.4-0.4-1.9
		c-0.3-0.4-0.7-0.6-1.2-0.6s-0.9,0.2-1.2,0.6c-0.3,0.4-0.4,1-0.4,1.9s0.1,1.4,0.4,1.9s0.7,0.6,1.2,0.6
		C21.2,415,21.6,414.8,21.9,414.4z"/>
</g>
<g>
	<path class="st13" d="M17.2,349v7h-1.3v-5.9h-1.5V349H17.2z"/>
	<path class="st13" d="M23.1,352.2c0.5,0.4,0.7,0.9,0.7,1.6c0,0.4-0.1,0.8-0.3,1.1c-0.2,0.3-0.5,0.6-0.9,0.8
		c-0.4,0.2-0.9,0.3-1.5,0.3c-0.5,0-1-0.1-1.5-0.2s-0.9-0.3-1.2-0.6l0.5-1c0.3,0.2,0.6,0.4,0.9,0.5s0.7,0.2,1.1,0.2
		c0.5,0,0.8-0.1,1.1-0.3c0.3-0.2,0.4-0.5,0.4-0.8c0-0.4-0.1-0.6-0.4-0.8c-0.3-0.2-0.8-0.3-1.5-0.3h-1.7l0.4-3.8h4.2v1.1h-3l-0.2,1.6
		h0.7C21.9,351.7,22.6,351.9,23.1,352.2z"/>
</g>
<g>
	<path class="st13" d="M18.2,297v1.1h-5.2v-0.9l2.8-2.6c0.3-0.3,0.5-0.6,0.6-0.8c0.1-0.2,0.2-0.4,0.2-0.7s-0.1-0.6-0.3-0.8
		c-0.2-0.2-0.5-0.3-1-0.3c-0.7,0-1.3,0.2-1.6,0.7l-0.9-0.7c0.3-0.4,0.6-0.7,1.1-0.9s1-0.3,1.6-0.3c0.8,0,1.4,0.2,1.8,0.5
		c0.5,0.4,0.7,0.9,0.7,1.5c0,0.4-0.1,0.7-0.2,1.1c-0.1,0.4-0.5,0.7-0.9,1.1l-1.9,1.8h3.2V297z"/>
	<path class="st13" d="M20.4,297.8c-0.4-0.3-0.8-0.7-1-1.2c-0.3-0.5-0.4-1.2-0.4-1.9s0.1-1.4,0.4-1.9s0.6-1,1-1.2
		c0.4-0.3,0.9-0.4,1.5-0.4s1.1,0.1,1.5,0.4s0.8,0.7,1,1.2c0.3,0.5,0.4,1.2,0.4,1.9s-0.1,1.4-0.4,1.9s-0.6,1-1,1.2
		c-0.4,0.3-0.9,0.4-1.5,0.4S20.8,298.1,20.4,297.8z M23,296.4c0.3-0.4,0.4-1,0.4-1.9s-0.1-1.4-0.4-1.9c-0.3-0.4-0.7-0.6-1.2-0.6
		s-0.9,0.2-1.2,0.6c-0.3,0.4-0.4,1-0.4,1.9s0.1,1.4,0.4,1.9s0.7,0.6,1.2,0.6C22.4,297.1,22.8,296.9,23,296.4z"/>
</g>
<g>
	<path class="st13" d="M17.9,241c0.3,0.4,0.5,0.8,0.5,1.4c0,0.4-0.1,0.8-0.3,1.1c-0.2,0.3-0.5,0.6-0.9,0.8s-0.9,0.3-1.5,0.3
		c-0.5,0-1-0.1-1.4-0.2c-0.5-0.1-0.9-0.3-1.2-0.6l0.6-1c0.3,0.2,0.6,0.4,0.9,0.5c0.4,0.1,0.7,0.2,1.1,0.2c0.5,0,0.8-0.1,1.1-0.3
		s0.4-0.4,0.4-0.8s-0.1-0.6-0.4-0.8c-0.2-0.2-0.6-0.3-1.1-0.3h-0.6v-0.9l1.6-1.9h-3.2v-1.1h4.8v0.9l-1.7,2
		C17.1,240.5,17.6,240.7,17.9,241z"/>
	<path class="st13" d="M20.7,244.2c-0.4-0.3-0.8-0.7-1-1.2c-0.3-0.5-0.4-1.2-0.4-1.9s0.1-1.4,0.4-1.9s0.6-1,1-1.2
		c0.4-0.3,0.9-0.4,1.5-0.4s1.1,0.1,1.5,0.4c0.4,0.3,0.8,0.7,1,1.2c0.3,0.5,0.4,1.2,0.4,1.9s-0.1,1.4-0.4,1.9s-0.6,1-1,1.2
		c-0.4,0.3-0.9,0.4-1.5,0.4C21.7,244.6,21.2,244.4,20.7,244.2z M23.4,242.8c0.3-0.4,0.4-1,0.4-1.9s-0.1-1.4-0.4-1.9
		c-0.3-0.4-0.7-0.6-1.2-0.6s-0.9,0.2-1.2,0.6c-0.3,0.4-0.4,1-0.4,1.9s0.1,1.4,0.4,1.9s0.7,0.6,1.2,0.6
		C22.7,243.5,23.1,243.2,23.4,242.8z"/>
</g>
<g>
	<path class="st13" d="M17.5,181.6c0.5,0.4,0.7,0.9,0.7,1.6c0,0.4-0.1,0.8-0.3,1.1c-0.2,0.3-0.5,0.6-0.9,0.8s-0.9,0.3-1.5,0.3
		c-0.5,0-1-0.1-1.5-0.2c-0.5-0.1-0.9-0.3-1.2-0.6l0.5-1c0.3,0.2,0.6,0.4,0.9,0.5c0.4,0.1,0.7,0.2,1.1,0.2c0.5,0,0.8-0.1,1.1-0.3
		s0.4-0.5,0.4-0.8c0-0.4-0.1-0.6-0.4-0.8s-0.8-0.3-1.5-0.3h-1.7l0.4-3.8h4.1v1.1h-3l-0.2,1.6h0.7C16.2,181,17,181.2,17.5,181.6z"/>
	<path class="st13" d="M20.4,185c-0.4-0.3-0.8-0.7-1-1.2c-0.3-0.5-0.4-1.2-0.4-1.9c0-0.7,0.1-1.4,0.4-1.9s0.6-1,1-1.2
		c0.4-0.3,0.9-0.4,1.5-0.4s1.1,0.1,1.5,0.4s0.8,0.7,1,1.2c0.3,0.5,0.4,1.2,0.4,1.9c0,0.7-0.1,1.4-0.4,1.9s-0.6,1-1,1.2
		c-0.4,0.3-0.9,0.4-1.5,0.4C21.4,185.4,20.9,185.2,20.4,185z M23,183.6c0.3-0.4,0.4-1,0.4-1.9c0-0.9-0.1-1.4-0.4-1.9
		c-0.3-0.4-0.7-0.6-1.2-0.6s-0.9,0.2-1.2,0.6c-0.3,0.4-0.4,1-0.4,1.9c0,0.9,0.1,1.4,0.4,1.9s0.7,0.6,1.2,0.6
		C22.4,184.2,22.8,184,23,183.6z"/>
</g>
<g>
	<path class="st2" d="M21.9,19.4l2.1-1.2l3.4,0.9c0.3,0.1,0.5-0.1,0.6-0.3c0.1-0.3-0.1-0.5-0.3-0.6l-2.4-0.7l1.8-1
		c0.2-0.1,0.3-0.4,0.2-0.7c-0.1-0.2-0.4-0.3-0.7-0.2l-1.8,1l0.7-2.4c0.1-0.3-0.1-0.5-0.3-0.6c-0.3-0.1-0.5,0.1-0.6,0.3l-0.9,3.4
		l-2.1,1.2l-2.1-1.2v-2.4l2.5-2.5c0.2-0.2,0.2-0.5,0-0.7s-0.5-0.2-0.7,0l-1.8,1.8v-2.1c0-0.3-0.2-0.5-0.5-0.5s-0.5,0.2-0.5,0.5v2.1
		l-1.8-1.8c-0.2-0.2-0.5-0.2-0.7,0c-0.2,0.2-0.2,0.5,0,0.7l2.5,2.5v2.4l-2.1,1.2l-2.1-1.2L13.2,14c-0.1-0.3-0.3-0.4-0.6-0.3
		c-0.3,0.1-0.4,0.3-0.3,0.6l0.7,2.4l-1.8-1c-0.2-0.1-0.5-0.1-0.7,0.2c-0.1,0.2-0.1,0.5,0.2,0.7l1.8,1l-2.4,0.7
		c-0.3,0.1-0.4,0.3-0.3,0.6c0.1,0.3,0.3,0.4,0.6,0.3l3.4-0.9l2.1,1.2V22l-2.1,1.2l-3.4-0.9c-0.3-0.1-0.5,0.1-0.6,0.3
		c-0.1,0.3,0.1,0.5,0.3,0.6l2.4,0.7l-1.8,1c-0.2,0.1-0.3,0.4-0.2,0.7c0.1,0.2,0.4,0.3,0.7,0.2l1.8-1l-0.7,2.4
		c-0.1,0.3,0.1,0.5,0.3,0.6c0.3,0.1,0.5-0.1,0.6-0.3l0.9-3.4l2.1-1.2l2.1,1.2v2.4L15.8,29c-0.2,0.2-0.2,0.5,0,0.7
		c0.2,0.2,0.5,0.2,0.7,0l1.8-1.8V30c0,0.3,0.2,0.5,0.5,0.5s0.5-0.2,0.5-0.5v-2.1l1.8,1.8c0.2,0.2,0.5,0.2,0.7,0s0.2-0.5,0-0.7
		l-2.5-2.5V24l2.1-1.2l2.1,1.2l0.9,3.4c0.1,0.3,0.3,0.4,0.6,0.3c0.3-0.1,0.4-0.3,0.3-0.6l-0.7-2.4l1.8,1c0.2,0.1,0.5,0.1,0.7-0.2
		c0.1-0.2,0.1-0.5-0.2-0.7l-1.8-1l2.4-0.7c0.3-0.1,0.4-0.3,0.3-0.6c-0.1-0.3-0.3-0.4-0.6-0.3L24,23.1l-2.1-1.2V19.4z M20.9,21.9
		l-2.1,1.2l-2.1-1.2v-2.5l2.1-1.2l2.1,1.2V21.9z"/>
</g>
<g>
	<g>
		<path class="st13" d="M22.5,73.4c-0.4-0.3-0.8-0.7-1-1.2c-0.3-0.5-0.4-1.2-0.4-1.9c0-0.7,0.1-1.4,0.4-1.9s0.6-1,1-1.2
			c0.4-0.3,0.9-0.4,1.5-0.4s1.1,0.1,1.5,0.4c0.4,0.3,0.8,0.7,1,1.2c0.3,0.5,0.4,1.2,0.4,1.9c0,0.7-0.1,1.4-0.4,1.9s-0.6,1-1,1.2
			c-0.4,0.3-0.9,0.4-1.5,0.4C23.4,73.8,22.9,73.7,22.5,73.4z M25.2,72c0.3-0.4,0.4-1,0.4-1.9s-0.1-1.4-0.4-1.9
			c-0.3-0.4-0.7-0.6-1.2-0.6s-0.9,0.2-1.2,0.6c-0.3,0.4-0.4,1-0.4,1.9s0.1,1.4,0.4,1.9s0.7,0.6,1.2,0.6C24.5,72.7,24.9,72.5,25.2,72
			z"/>
	</g>
	<g>
		<path class="st13" d="M16,73.4c-0.4-0.3-0.8-0.7-1-1.2c-0.3-0.5-0.4-1.2-0.4-1.9c0-0.7,0.1-1.4,0.4-1.9s0.6-1,1-1.2
			c0.4-0.3,0.9-0.4,1.5-0.4s1.1,0.1,1.5,0.4s0.8,0.7,1,1.2c0.3,0.5,0.4,1.2,0.4,1.9c0,0.7-0.1,1.4-0.4,1.9s-0.6,1-1,1.2
			c-0.4,0.3-0.9,0.4-1.5,0.4S16.4,73.7,16,73.4z M18.7,72c0.3-0.4,0.4-1,0.4-1.9s-0.1-1.4-0.4-1.9c-0.3-0.4-0.7-0.6-1.2-0.6
			s-0.9,0.2-1.2,0.6c-0.3,0.4-0.4,1-0.4,1.9s0.1,1.4,0.4,1.9c0.3,0.5,0.7,0.6,1.2,0.6C18,72.7,18.4,72.5,18.7,72z"/>
	</g>
	<g>
		<path class="st13" d="M12.7,66.8v7h-1.3v-5.9H9.9v-1.1H12.7z"/>
	</g>
</g>
</svg>
