<?xml version="1.0" encoding="utf-8"?>
<!-- Generator: Adobe Illustrator 28.0.0, SVG Export Plug-In . SVG Version: 6.00 Build 0)  -->
<svg version="1.1" id="Livello_1" xmlns="http://www.w3.org/2000/svg" xmlns:xlink="http://www.w3.org/1999/xlink" x="0px" y="0px"
	  width="50px" height="677px" viewBox="0 0 48.7 677.2" style="enable-background:new 0 0 48.7 677.2;" xml:space="preserve">
<style type="text/css">
	.st0{clip-path:url(#SVGID_00000182494850311832432750000003143485179990799002_);}
	.st1{fill:#FFFFFF;}
	.st2{clip-path:url(#SVGID_00000010998405019794787280000004198613508209478287_);}
	.st3{fill:#E4BEEE;}
	.st4{fill:#D08AC5;}
	.st5{clip-path:url(#SVGID_00000042715201302655784360000016164275492285675181_);}
	.st6{clip-path:url(#SVGID_00000074432857514269097540000017481685757554741672_);}
	.st7{fill:#F7EC31;}
	.st8{clip-path:url(#SVGID_00000018196734843533801560000016670841002802354315_);}
	.st9{fill:#BB56AA;}
	.st10{clip-path:url(#SVGID_00000134931496155371567040000000695851119090531007_);}
	.st11{fill:#712692;}
	.st12{clip-path:url(#SVGID_00000022560016746189877020000008274742563612344993_);}
	.st13{fill:#64127D;}
	.st14{clip-path:url(#SVGID_00000041295252475216053010000012252197641909239455_);}
	.st15{fill:#43194E;}
	.st16{clip-path:url(#SVGID_00000160167145908098007310000005917052753266951084_);}
	.st17{fill:#906192;}
	.st18{clip-path:url(#SVGID_00000094585286686932462080000018179637446775824519_);}
	.st19{fill:#A32F94;}
	.st20{fill:#95037E;}
	.st21{fill:#A13CCD;}
	.st22{fill:#39322E;}
	.st23{fill:none;stroke:#3C3430;stroke-width:2;stroke-miterlimit:9.7722;}
	.st24{fill:#3C3530;}
	.st25{fill:none;stroke:#3C3430;stroke-miterlimit:9.7722;}
</style>
<g>
	<g>
		<defs>
			<path id="SVGID_1_" d="M43.4,670.3C43,675.2,33.3,681,24.9,681l0,0c-8.2,0.5-19.5-4.7-19.5-10.7v-773.6c1.7-7,11.7-7.2,18.2-7.2
				l0,0c7.7,0,17.7-0.9,19.6,6.5L43.4,670.3L43.4,670.3z"/>
		</defs>
		<clipPath id="SVGID_00000098917938661504239900000006393343883642951809_">
			<use xlink:href="#SVGID_1_"  style="overflow:visible;"/>
		</clipPath>
	</g>
	<g>
		<defs>
			<path id="SVGID_00000153688551506645125930000018037759976594153103_" d="M43.4,670.3L43.4,670.3C43,675.2,33.3,681,24.9,681l0,0
				c-8.2,0.5-19.5-4.7-19.5-10.7l0.4-773.8c1.7-7,11.3-7,17.8-7l0,0"/>
		</defs>
		<clipPath id="SVGID_00000020371672701944525800000005160558022793924536_">
			<use xlink:href="#SVGID_00000153688551506645125930000018037759976594153103_"  style="overflow:visible;"/>
		</clipPath>
	</g>
	<g>
		<defs>
			<path id="SVGID_00000044862092353674751000000010909381551914142356_" d="M43.4,670.3C43,675.2,33.3,681,24.9,681l0,0
				c-8.2,0.5-19.5-4.7-19.5-10.7l0.4-773.2c1.7-7,11.3-7.6,17.8-7.6l0,0c7.7,0,17.9-0.5,19.6,11.5L43.4,670.3L43.4,670.3z"/>
		</defs>
		<clipPath id="SVGID_00000124882940833791213970000012574701112443597737_">
			<use xlink:href="#SVGID_00000044862092353674751000000010909381551914142356_"  style="overflow:visible;"/>
		</clipPath>
		<g style="clip-path:url(#SVGID_00000124882940833791213970000012574701112443597737_);">
			<g>
				<g>
					<rect x="-20.5" y="50.9" class="st1" width="100.4" height="53.5"/>
				</g>
			</g>
		</g>
	</g>
	<g>
		<defs>
			<path id="SVGID_00000006708032666532938530000008507676806168568722_" d="M43.4,670.3C43,675.2,33.3,681,24.9,681l0,0
				c-8.2,0.5-19.5-4.7-19.5-10.7l0.4-773.8c1.7-7,11.3-7,17.8-7l0,0c7.7,0,18-0.6,19.6,11.5L43.4,670.3L43.4,670.3z"/>
		</defs>
		<clipPath id="SVGID_00000139264791238744349400000008062188405013972414_">
			<use xlink:href="#SVGID_00000006708032666532938530000008507676806168568722_"  style="overflow:visible;"/>
		</clipPath>
		<g style="clip-path:url(#SVGID_00000139264791238744349400000008062188405013972414_);">
			<g>
				<g>
					<rect x="-19.5" y="104.4" class="st3" width="100.4" height="53.5"/>
				</g>
			</g>
		</g>
		<g style="clip-path:url(#SVGID_00000139264791238744349400000008062188405013972414_);">
			<g>
				<g>
					<rect x="-26.4" y="157.9" class="st4" width="100.4" height="53.5"/>
				</g>
			</g>
		</g>
	</g>
	<g>
		<defs>
			<path id="SVGID_00000061462295098341928660000002007838225406955648_" d="M43.3-99l0.2,769.3l0,0C43,675.2,33.3,681,24.9,681l0,0
				c-8.2,0.5-19.5-4.7-19.5-10.7"/>
		</defs>
		<defs>
			<line id="SVGID_00000068652470477114398310000000817724652311687339_" x1="23.7" y1="-110.5" x2="23.7" y2="-110.5"/>
		</defs>
		<clipPath id="SVGID_00000117675824197686592430000010791416517993140127_">
			<use xlink:href="#SVGID_00000061462295098341928660000002007838225406955648_"  style="overflow:visible;"/>
		</clipPath>
		
			<clipPath id="SVGID_00000084502892153906994270000016481205244622550423_" style="clip-path:url(#SVGID_00000117675824197686592430000010791416517993140127_);">
			<use xlink:href="#SVGID_00000068652470477114398310000000817724652311687339_"  style="overflow:visible;"/>
		</clipPath>
		<g style="clip-path:url(#SVGID_00000084502892153906994270000016481205244622550423_);">
			<g>
				<g>
					<rect x="-19.5" y="157.8" class="st7" width="100.4" height="53.5"/>
				</g>
			</g>
		</g>
	</g>
	<g>
		<defs>
			<path id="SVGID_00000111897743048293999270000001135496988107991959_" d="M43.3-99l0.2,769.3l0,0C43,675.2,33.3,681,24.9,681l0,0
				c-8.2,0.5-19.5-4.7-19.5-10.7v-772.8c1.7-7,11.7-7.9,18.2-7.9l0,0"/>
		</defs>
		<clipPath id="SVGID_00000170978127126913643410000005662710653895111815_">
			<use xlink:href="#SVGID_00000111897743048293999270000001135496988107991959_"  style="overflow:visible;"/>
		</clipPath>
		<g style="clip-path:url(#SVGID_00000170978127126913643410000005662710653895111815_);">
			<g>
				<g>
					<rect x="-19.5" y="211.3" class="st9" width="100.4" height="53.5"/>
				</g>
			</g>
		</g>
	</g>
	<g>
		<defs>
			<path id="SVGID_00000152238569748054977470000014721105348748475800_" d="M43.4,670.3C43,675.2,33.3,681,24.9,681l0,0
				c-8.2,0.5-19.5-4.7-19.5-10.7v-773.6c1.7-7,11.7-7.2,18.2-7.2l0,0c7.7,0,18.2-0.5,19.6,11.5L43.4,670.3L43.4,670.3z"/>
		</defs>
		<clipPath id="SVGID_00000089535517738547969860000009949131353350212792_">
			<use xlink:href="#SVGID_00000152238569748054977470000014721105348748475800_"  style="overflow:visible;"/>
		</clipPath>
		<g style="clip-path:url(#SVGID_00000089535517738547969860000009949131353350212792_);">
			<g>
				<g>
					<rect x="-18.2" y="425.1" class="st11" width="100.4" height="53.5"/>
				</g>
			</g>
		</g>
	</g>
	<g>
		<defs>
			<path id="SVGID_00000024696196245775901230000001184044352342608010_" d="M43.4,670.3C43,675.2,33.3,681,24.9,681l0,0
				c-8.2,0.5-19.5-4.7-19.5-10.7v-773.6c1.7-7,11.7-7.2,18.2-7.2l0,0c7.7,0,18.2-1.2,19.6,11.5L43.4,670.3L43.4,670.3z"/>
		</defs>
		<clipPath id="SVGID_00000166636998328939424020000003147645624497302206_">
			<use xlink:href="#SVGID_00000024696196245775901230000001184044352342608010_"  style="overflow:visible;"/>
		</clipPath>
		<g style="clip-path:url(#SVGID_00000166636998328939424020000003147645624497302206_);">
			<g>
				<g>
					<rect x="-18.2" y="478.5" class="st13" width="100.4" height="53.5"/>
				</g>
			</g>
		</g>
	</g>
	<g>
		<defs>
			<path id="SVGID_00000120517312702345933370000006185625120833263238_" d="M43.4,670.3C43,675.2,33.3,681,24.9,681l0,0
				c-8.2,0.5-19.5-4.7-19.5-10.7l0-769.6c-0.2-17.9,11.7-11.4,18.2-11.2l0,0c7.7,0,18.3-0.6,19.6,11.5L43.4,670.3L43.4,670.3z"/>
		</defs>
		<clipPath id="SVGID_00000108990466385396045040000013546433296075515308_">
			<use xlink:href="#SVGID_00000120517312702345933370000006185625120833263238_"  style="overflow:visible;"/>
		</clipPath>
		<g style="clip-path:url(#SVGID_00000108990466385396045040000013546433296075515308_);">
			<g>
				<g>
					<rect x="-17.3" y="532" class="st15" width="100.4" height="53.5"/>
				</g>
			</g>
		</g>
	</g>
	<g>
		<defs>
			<path id="SVGID_00000120520499415643469440000000652298149802601649_" d="M43.4,670.3c-0.5,4.9-10.6,5.5-19,5.5l0,0
				c-8.2,0.5-18.6,0-18.6-6.6v-774c1.7-7,11.3-5.7,17.8-5.7l0,0c7.7,0,17.7,0.4,19.6,7.7L43.4,670.3L43.4,670.3z"/>
		</defs>
		<clipPath id="SVGID_00000080198427551838222850000016325377117927230132_">
			<use xlink:href="#SVGID_00000120520499415643469440000000652298149802601649_"  style="overflow:visible;"/>
		</clipPath>
		<g style="clip-path:url(#SVGID_00000080198427551838222850000016325377117927230132_);">
			<g>
				<g>
					<rect x="-17.6" y="578.8" class="st17" width="100.4" height="98.9"/>
				</g>
			</g>
		</g>
	</g>
	<g>
		<defs>
			<path id="SVGID_00000045579862620972831090000003295087113864306095_" d="M43.4,670.3c-0.5,4.9-10.4,4.2-18.8,4.2l0,0
				c-8.2,0.5-19.2,1.8-19.2-4.2l0.4-773.8c1.7-7,11.3-7,17.8-7l0,0c7.7,0,17.2,0.8,19.1,8.2L43.4,670.3L43.4,670.3z"/>
		</defs>
		<clipPath id="SVGID_00000008135172119869885040000008810209198386656437_">
			<use xlink:href="#SVGID_00000045579862620972831090000003295087113864306095_"  style="overflow:visible;"/>
		</clipPath>
		<g style="clip-path:url(#SVGID_00000008135172119869885040000008810209198386656437_);">
			<g>
				<g>
					<rect x="-18.2" y="264.8" class="st19" width="100.4" height="53.5"/>
				</g>
			</g>
		</g>
	</g>
	<g>
		<g>
			<g>
				<g>
					<rect x="5.4" y="318.1" class="st20" width="38" height="53.5"/>
				</g>
			</g>
		</g>
	</g>
	<g>
		<g>
			<g>
				<g>
					<rect x="6.2" y="371.6" class="st21" width="36.7" height="53.5"/>
				</g>
			</g>
		</g>
	</g>
</g>
<circle class="st22" cx="24.1" cy="26.6" r="19.8"/>
<path class="st23" d="M36.6,675.8H12.1c-3.4,0-6.2-2.8-6.2-6.2V56.1c0-3.4,2.8-6.2,6.2-6.2h24.5c3.4,0,6.2,2.8,6.2,6.2v613.5
	C42.8,673,40,675.8,36.6,675.8z"/>
<g>
	<path class="st1" d="M26.1,573.1v7.9h-1.7v-6l-1.7,1.1l-0.8-1.2l2.6-1.7H26.1z"/>
</g>
<g>
	<path class="st1" d="M18.8,259.2c0.7-0.3,1.6-0.4,2.5-0.4c0.9,0,1.6,0.2,2,0.5s0.6,0.9,0.6,1.7c0,0.8-0.3,1.4-0.9,1.8
		c0.4,0.2,0.7,0.4,0.8,0.6s0.2,0.6,0.2,1.1c0,0.9-0.2,1.5-0.6,1.9c-0.4,0.4-1.1,0.6-2.1,0.6c-0.7,0-1.4-0.1-2.2-0.3l-0.4-0.1
		l0.1-1.3c0.9,0.2,1.6,0.2,2.3,0.2c0.8,0,1.2-0.4,1.2-1.1c0-0.3-0.1-0.5-0.3-0.7c-0.2-0.2-0.5-0.3-0.8-0.3h-1.6v-1.4h1.6
		c0.3,0,0.5-0.1,0.7-0.3c0.2-0.2,0.3-0.5,0.3-0.7c0-0.6-0.4-0.9-1.2-0.9c-0.6,0-1.1,0.1-1.8,0.2l-0.3,0L18.8,259.2z"/>
	<path class="st1" d="M25.9,259.7c0.5-0.7,1.3-1,2.3-1c1,0,1.8,0.3,2.3,1c0.5,0.7,0.8,1.7,0.8,3.2s-0.3,2.5-0.8,3.1
		c-0.5,0.6-1.3,0.9-2.3,0.9c-1,0-1.8-0.3-2.3-0.9s-0.8-1.7-0.8-3.1S25.3,260.4,25.9,259.7z M29.5,262.8c0-1-0.1-1.7-0.3-2.1
		c-0.2-0.4-0.6-0.6-1-0.6c-0.5,0-0.8,0.2-1.1,0.6c-0.2,0.4-0.3,1.1-0.3,2.1c0,1,0.1,1.7,0.3,2.1c0.2,0.4,0.6,0.6,1.1,0.6
		c0.5,0,0.8-0.2,1-0.6S29.5,263.8,29.5,262.8z"/>
</g>
<g>
	<path class="st1" d="M23,205.4v1.4h-3.5l-0.2,1.7c0.5-0.2,1-0.3,1.4-0.3c1.7,0,2.6,0.8,2.6,2.4c0,0.9-0.2,1.6-0.7,2.1
		c-0.5,0.5-1.1,0.7-2,0.7c-0.4,0-0.8,0-1.3-0.1c-0.5-0.1-0.8-0.1-1.1-0.2l-0.4-0.1l0.2-1.2c1,0.2,1.8,0.2,2.4,0.2
		c0.4,0,0.7-0.1,0.9-0.3c0.2-0.2,0.3-0.5,0.3-0.9s-0.1-0.7-0.3-0.8s-0.4-0.3-0.7-0.3c-0.5,0-1,0.1-1.4,0.2l-0.2,0l-1-0.2l0.2-4.3H23
		z"/>
	<path class="st1" d="M24.9,206.2c0.5-0.7,1.3-1,2.3-1c1,0,1.8,0.3,2.3,1c0.5,0.7,0.8,1.7,0.8,3.2s-0.3,2.5-0.8,3.1
		c-0.5,0.6-1.3,0.9-2.3,0.9c-1,0-1.8-0.3-2.3-0.9s-0.8-1.7-0.8-3.1S24.4,206.9,24.9,206.2z M28.6,209.4c0-1-0.1-1.7-0.3-2.1
		c-0.2-0.4-0.6-0.6-1-0.6c-0.5,0-0.8,0.2-1.1,0.6c-0.2,0.4-0.3,1.1-0.3,2.1c0,1,0.1,1.7,0.3,2.1c0.2,0.4,0.6,0.6,1.1,0.6
		c0.5,0,0.8-0.2,1-0.6S28.6,210.4,28.6,209.4z"/>
</g>
<g>
	<path class="st24" d="M17.7,99.1v7.9H16v-6l-1.7,1.1l-0.8-1.2l2.6-1.7H17.7z"/>
	<path class="st24" d="M20.4,100c0.5-0.7,1.3-1,2.3-1c1,0,1.8,0.3,2.3,1c0.5,0.7,0.8,1.7,0.8,3.2s-0.3,2.5-0.8,3.1
		c-0.5,0.6-1.3,0.9-2.3,0.9c-1,0-1.8-0.3-2.3-0.9s-0.8-1.7-0.8-3.1S19.9,100.6,20.4,100z M24.1,103.1c0-1-0.1-1.7-0.3-2.1
		c-0.2-0.4-0.6-0.6-1-0.6c-0.5,0-0.8,0.2-1.1,0.6c-0.2,0.4-0.3,1.1-0.3,2.1c0,1,0.1,1.7,0.3,2.1c0.2,0.4,0.6,0.6,1.1,0.6
		c0.5,0,0.8-0.2,1-0.6S24.1,104.1,24.1,103.1z"/>
	<path class="st24" d="M27.2,100c0.5-0.7,1.3-1,2.3-1c1,0,1.8,0.3,2.3,1c0.5,0.7,0.8,1.7,0.8,3.2s-0.3,2.5-0.8,3.1
		c-0.5,0.6-1.3,0.9-2.3,0.9c-1,0-1.8-0.3-2.3-0.9s-0.8-1.7-0.8-3.1S26.6,100.6,27.2,100z M30.8,103.1c0-1-0.1-1.7-0.3-2.1
		c-0.2-0.4-0.6-0.6-1-0.6c-0.5,0-0.8,0.2-1.1,0.6c-0.2,0.4-0.3,1.1-0.3,2.1c0,1,0.1,1.7,0.3,2.1c0.2,0.4,0.6,0.6,1.1,0.6
		c0.5,0,0.8-0.2,1-0.6S30.8,104.1,30.8,103.1z"/>
</g>
<line class="st25" x1="5.5" y1="578.4" x2="20.2" y2="578.4"/>
<line class="st25" x1="42.5" y1="578.4" x2="29.5" y2="578.4"/>
<line class="st25" x1="6.5" y1="264.6" x2="19.2" y2="264.6"/>
<line class="st25" x1="43.2" y1="264.6" x2="32" y2="264.6"/>
<line class="st25" x1="6.5" y1="211.2" x2="17.3" y2="211.2"/>
<line class="st25" x1="42.4" y1="211.2" x2="31.4" y2="211.2"/>
<line class="st25" x1="14" y1="103.9" x2="5.2" y2="103.9"/>
<line class="st25" x1="41.7" y1="104.1" x2="34.1" y2="104.1"/>
<g>
	<path class="st1" d="M27.5,534.7h-5.1v-1.4l1.7-1.7c0.6-0.6,1-1.1,1.3-1.4s0.4-0.7,0.4-1s-0.1-0.6-0.3-0.8
		c-0.2-0.2-0.5-0.2-0.8-0.2c-0.5,0-1.1,0-1.8,0.1l-0.3,0l-0.1-1.3c0.8-0.2,1.6-0.4,2.4-0.4c1.7,0,2.5,0.8,2.5,2.3
		c0,0.6-0.1,1.1-0.4,1.5c-0.3,0.4-0.7,1-1.4,1.6l-1.4,1.2h3.3V534.7z"/>
</g>
<line class="st25" x1="6.3" y1="531.8" x2="20.1" y2="531.8"/>
<line class="st25" x1="42.7" y1="531.8" x2="29.3" y2="531.8"/>
<g>
	<path class="st1" d="M27.2,473.3v1.4h-3.5l-0.2,1.7c0.5-0.2,1-0.3,1.4-0.3c1.7,0,2.6,0.8,2.6,2.4c0,0.9-0.2,1.6-0.7,2.1
		c-0.5,0.5-1.1,0.7-2,0.7c-0.4,0-0.8,0-1.3-0.1c-0.5-0.1-0.8-0.1-1.1-0.2l-0.4-0.1l0.2-1.2c1,0.2,1.8,0.2,2.4,0.2
		c0.4,0,0.7-0.1,0.9-0.3c0.2-0.2,0.3-0.5,0.3-0.9s-0.1-0.7-0.3-0.8s-0.4-0.3-0.7-0.3c-0.5,0-1,0.1-1.4,0.2l-0.2,0l-1-0.2l0.2-4.3
		H27.2z"/>
</g>
<line class="st25" x1="6" y1="478.3" x2="19.9" y2="478.3"/>
<line class="st25" x1="42.4" y1="478.3" x2="29" y2="478.3"/>
<g>
	<path class="st1" d="M23.1,420.2v7.9h-1.7v-6l-1.7,1.1l-0.8-1.2l2.6-1.7H23.1z"/>
	<path class="st1" d="M25.9,421c0.5-0.7,1.3-1,2.3-1c1,0,1.8,0.3,2.3,1c0.5,0.7,0.8,1.7,0.8,3.2s-0.3,2.5-0.8,3.1
		c-0.5,0.6-1.3,0.9-2.3,0.9c-1,0-1.8-0.3-2.3-0.9s-0.8-1.7-0.8-3.1S25.3,421.7,25.9,421z M29.5,424.2c0-1-0.1-1.7-0.3-2.1
		c-0.2-0.4-0.6-0.6-1-0.6c-0.5,0-0.8,0.2-1.1,0.6c-0.2,0.4-0.3,1.1-0.3,2.1c0,1,0.1,1.7,0.3,2.1c0.2,0.4,0.6,0.6,1.1,0.6
		c0.5,0,0.8-0.2,1-0.6S29.5,425.2,29.5,424.2z"/>
</g>
<line class="st25" x1="6.3" y1="425.2" x2="17.9" y2="425.2"/>
<line class="st25" x1="42.7" y1="425.2" x2="32.2" y2="425.2"/>
<g>
	<path class="st1" d="M23.1,367.1v7.9h-1.7v-6l-1.7,1.1l-0.8-1.2l2.6-1.7H23.1z"/>
	<path class="st1" d="M30.7,367.1v1.4h-3.5l-0.2,1.7c0.5-0.2,1-0.3,1.4-0.3c1.7,0,2.6,0.8,2.6,2.4c0,0.9-0.2,1.6-0.7,2.1
		c-0.5,0.5-1.1,0.7-2,0.7c-0.4,0-0.8,0-1.3-0.1c-0.5-0.1-0.8-0.1-1.1-0.2l-0.4-0.1l0.2-1.2c1,0.2,1.8,0.2,2.4,0.2
		c0.4,0,0.7-0.1,0.9-0.3c0.2-0.2,0.3-0.5,0.3-0.9s-0.1-0.7-0.3-0.8s-0.4-0.3-0.7-0.3c-0.5,0-1,0.1-1.4,0.2l-0.2,0l-1-0.2l0.2-4.3
		H30.7z"/>
</g>
<line class="st25" x1="6.4" y1="371.9" x2="18.8" y2="371.9"/>
<line class="st25" x1="42.8" y1="371.9" x2="32.2" y2="371.9"/>
<g>
	<path class="st1" d="M24.2,321.2h-5.1v-1.4l1.7-1.7c0.6-0.6,1-1.1,1.3-1.4c0.2-0.3,0.4-0.7,0.4-1s-0.1-0.6-0.3-0.8
		c-0.2-0.2-0.5-0.2-0.8-0.2c-0.5,0-1.1,0-1.8,0.1l-0.3,0l-0.1-1.3c0.8-0.2,1.6-0.4,2.4-0.4c1.7,0,2.5,0.8,2.5,2.3
		c0,0.6-0.1,1.1-0.4,1.5c-0.3,0.4-0.7,1-1.4,1.6l-1.4,1.2h3.3V321.2z"/>
	<path class="st1" d="M26.1,314.2c0.5-0.7,1.3-1,2.3-1c1,0,1.8,0.3,2.3,1s0.8,1.7,0.8,3.2s-0.3,2.5-0.8,3.1s-1.3,0.9-2.3,0.9
		c-1,0-1.8-0.3-2.3-0.9c-0.5-0.6-0.8-1.7-0.8-3.1S25.6,314.8,26.1,314.2z M29.8,317.3c0-1-0.1-1.7-0.3-2.1c-0.2-0.4-0.6-0.6-1-0.6
		s-0.8,0.2-1.1,0.6c-0.2,0.4-0.3,1.1-0.3,2.1c0,1,0.1,1.7,0.3,2.1s0.6,0.6,1.1,0.6s0.8-0.2,1-0.6S29.8,318.3,29.8,317.3z"/>
</g>
<line class="st25" x1="6.6" y1="318.1" x2="19" y2="318.1"/>
<line class="st25" x1="43" y1="318.1" x2="32.4" y2="318.1"/>
<g>
	<path class="st24" d="M18.2,153.7v-1.5h5.1v1.9l-2.8,6.2l-1.5-0.4l2.7-5.8v-0.4H18.2z"/>
	<path class="st24" d="M29.9,152.2v1.4h-3.5l-0.2,1.7c0.5-0.2,1-0.3,1.4-0.3c1.7,0,2.6,0.8,2.6,2.4c0,0.9-0.2,1.6-0.7,2.1
		c-0.5,0.5-1.1,0.7-2,0.7c-0.4,0-0.8,0-1.3-0.1c-0.5-0.1-0.8-0.1-1.1-0.2l-0.4-0.1l0.2-1.2c1,0.2,1.8,0.2,2.4,0.2
		c0.4,0,0.7-0.1,0.9-0.3c0.2-0.2,0.3-0.5,0.3-0.9s-0.1-0.7-0.3-0.8s-0.4-0.3-0.7-0.3c-0.5,0-1,0.1-1.4,0.2l-0.2,0l-1-0.2l0.2-4.3
		H29.9z"/>
</g>
<line class="st25" x1="6.7" y1="158" x2="17.5" y2="158"/>
<line class="st25" x1="42.6" y1="158" x2="31.6" y2="158"/>
<g>
	<path class="st1" d="M20.2,665.6c0.4,0,0.9,0.1,1.6,0.2l0.3,0.1l0,1.3c-0.6-0.1-1.1-0.1-1.4-0.1c-0.6,0-0.9,0.1-1.1,0.4
		c-0.2,0.2-0.3,0.7-0.3,1.3s0.1,1.1,0.3,1.3s0.5,0.4,1.1,0.4l1.4-0.1l0,1.3c-0.9,0.2-1.5,0.3-2,0.3c-0.9,0-1.5-0.2-1.9-0.8
		c-0.4-0.5-0.6-1.3-0.6-2.4c0-1.1,0.2-1.9,0.6-2.4C18.6,665.8,19.3,665.6,20.2,665.6z"/>
	<path class="st1" d="M24.9,671.7h-1.6v-6h1.6v0.3c0.6-0.3,1-0.5,1.4-0.5c0.6,0,1.1,0.2,1.5,0.6c0.7-0.4,1.4-0.6,2-0.6
		c0.8,0,1.3,0.2,1.7,0.7c0.3,0.5,0.5,1.2,0.5,2.2v3.3h-1.6v-3.2c0-0.5-0.1-0.9-0.2-1.1c-0.1-0.2-0.3-0.4-0.7-0.4
		c-0.3,0-0.6,0.1-0.9,0.2l-0.2,0.1c0,0.6,0,1.1,0,1.4v3.1h-1.6v-3.1c0-0.6-0.1-1-0.2-1.3c-0.1-0.2-0.3-0.4-0.7-0.4
		c-0.3,0-0.6,0.1-0.9,0.2l-0.1,0V671.7z"/>
</g>
<g>
	<path class="st1" d="M29.6,24.4l3.5-2l5.6,1.5c0.5,0.2,0.8-0.2,1-0.5c0.2-0.5-0.2-0.8-0.5-1l-4-1.2l3-1.7c0.3-0.2,0.5-0.7,0.3-1.2
		c-0.2-0.3-0.7-0.5-1.2-0.3l-3,1.7l1.2-4c0.2-0.5-0.2-0.8-0.5-1c-0.5-0.2-0.8,0.2-1,0.5l-1.5,5.6l-3.5,2l-3.5-2v-4l4.1-4.1
		c0.3-0.3,0.3-0.8,0-1.2c-0.3-0.3-0.8-0.3-1.2,0l-3,3v-3.5c0-0.5-0.3-0.8-0.8-0.8S24,10.7,24,11.2v3.5l-3-3c-0.3-0.3-0.8-0.3-1.2,0
		c-0.3,0.3-0.3,0.8,0,1.2L24,17v4l-3.5,2l-3.5-2l-1.8-5.5c-0.2-0.5-0.5-0.7-1-0.5c-0.5,0.2-0.7,0.5-0.5,1l1.2,4l-3-1.7
		c-0.3-0.2-0.8-0.2-1.2,0.3c-0.2,0.3-0.2,0.8,0.3,1.2l3,1.7l-4,1.2c-0.5,0.2-0.7,0.5-0.5,1c0.2,0.5,0.5,0.7,1,0.5l5.6-1.5l3.5,2v4.1
		l-3.5,2l-5.6-1.5c-0.5-0.2-0.8,0.2-1,0.5c-0.2,0.5,0.2,0.8,0.5,1l4,1.2l-3,1.7c-0.3,0.2-0.5,0.7-0.3,1.2c0.2,0.3,0.7,0.5,1.2,0.3
		l3-1.7l-1.2,4c-0.2,0.5,0.2,0.8,0.5,1c0.5,0.2,0.8-0.2,1-0.5l1.5-5.6l3.5-2l3.5,2v4l-4.1,4.1c-0.3,0.3-0.3,0.8,0,1.2
		c0.3,0.3,0.8,0.3,1.2,0l3-3V42c0,0.5,0.3,0.8,0.8,0.8s0.8-0.3,0.8-0.8v-3.5l3,3c0.3,0.3,0.8,0.3,1.2,0c0.3-0.3,0.3-0.8,0-1.2
		l-4.1-4.1V32l3.5-2l3.5,2l1.5,5.6c0.2,0.5,0.5,0.7,1,0.5c0.5-0.2,0.7-0.5,0.5-1l-1.2-4l3,1.7c0.3,0.2,0.8,0.2,1.2-0.3
		c0.2-0.3,0.2-0.8-0.3-1.2l-3-1.7l4-1.2c0.5-0.2,0.7-0.5,0.5-1c-0.2-0.5-0.5-0.7-1-0.5l-5.3,1.5l-3.5-2V24.4z M28,28.6l-3.5,2
		l-3.5-2v-4.1l3.5-2l3.5,2V28.6z"/>
</g>
</svg>
