<?xml version="1.0" encoding="utf-8"?>
<!-- Generator: Adobe Illustrator 28.0.0, SVG Export Plug-In . SVG Version: 6.00 Build 0)  -->
<svg version="1.1" id="Livello_1" xmlns="http://www.w3.org/2000/svg" xmlns:xlink="http://www.w3.org/1999/xlink" x="0px" y="0px"
	width="40.8px" height="725.2px" viewBox="0 0 40.8 725.2" style="enable-background:new 0 0 40.8 725.2;" xml:space="preserve">
<style type="text/css">
	.st0{clip-path:url(#SVGID_00000097497137757366429320000011946026791692124317_);}
	.st1{fill:#684F05;}
	.st2{clip-path:url(#SVGID_00000041293090031366052800000012906513791007530629_);}
	.st3{fill:#530A4D;}
	.st4{clip-path:url(#SVGID_00000129173557653281244220000002294736028477102475_);}
	.st5{fill:#80115B;}
	.st6{clip-path:url(#SVGID_00000025418030705882532470000017217595673105820346_);}
	.st7{clip-path:url(#SVGID_00000129903150804299809960000006151781576924768699_);}
	.st8{fill:#F7EC31;}
	.st9{clip-path:url(#SVGID_00000072976251112357929740000009441988356076351669_);}
	.st10{fill:#AC7283;}
	.st11{clip-path:url(#SVGID_00000152261442974849317610000006717558979073034371_);}
	.st12{fill:#A3A3A3;}
	.st13{clip-path:url(#SVGID_00000091011183849686153000000001450422354461937542_);}
	.st14{fill:#89BF73;}
	.st15{clip-path:url(#SVGID_00000173129327452250307020000017110374244013949089_);}
	.st16{fill:#4D7E3A;}
	.st17{clip-path:url(#SVGID_00000177472596400506156000000008143740471876808598_);}
	.st18{fill:#3F5736;}
	.st19{clip-path:url(#SVGID_00000000190007896984673990000007047409859965372823_);}
	.st20{fill:#C398A6;}
	.st21{fill:#E0E0E0;}
	.st22{fill:#C2C2C2;}
	.st23{fill:#FFFFFF;}
	.st24{fill:none;stroke:#3C3430;stroke-miterlimit:9.7722;}
	.st25{fill:#39322E;}
	.st26{fill:none;stroke:#3C3430;stroke-width:2;stroke-miterlimit:9.7722;}
</style>
<g>
	<g>
		<g>
			<defs>
				<path id="SVGID_1_" d="M40.2,716.9c-0.5,5.3-10.1,11.6-18.5,11.6l0,0c-8.2,0.6-19.5-5.2-19.5-11.6l0.4-840.2
					c1.7-7.6,11.3-8.2,17.8-8.2l0,0c7.7,0,17.9-0.5,19.6,12.5L40.2,716.9L40.2,716.9z"/>
			</defs>
			<clipPath id="SVGID_00000158025800922976498290000006833465576979096204_">
				<use xlink:href="#SVGID_1_"  style="overflow:visible;"/>
			</clipPath>
			<g style="clip-path:url(#SVGID_00000158025800922976498290000006833465576979096204_);">
				<g>
					<g>
						<path class="st1" d="M9.7,43.9h22.2c5,0,9,4,9,9V102H2.5V51C2.5,47.1,5.8,43.9,9.7,43.9z"/>
					</g>
				</g>
			</g>
		</g>
	</g>
	<g>
		<g>
			<defs>
				<path id="SVGID_00000059270565190575646290000013410973273560722846_" d="M40.2,716.9c-0.5,5.3-10.1,11.6-18.5,11.6l0,0
					c-8.2,0.6-19.5-5.2-19.5-11.6L2.6-124c1.7-7.6,11.3-7.6,17.8-7.6l0,0c7.7,0,18-0.7,19.6,12.5L40.2,716.9L40.2,716.9z"/>
			</defs>
			<clipPath id="SVGID_00000135656183172974971840000016587808982354491531_">
				<use xlink:href="#SVGID_00000059270565190575646290000013410973273560722846_"  style="overflow:visible;"/>
			</clipPath>
			<g style="clip-path:url(#SVGID_00000135656183172974971840000016587808982354491531_);">
				<g>
					<g>
						<rect x="-22.7" y="102" class="st3" width="100.4" height="58.1"/>
					</g>
				</g>
			</g>
		</g>
		<g>
			<defs>
				<path id="SVGID_00000104678778519623097100000016643826991544018327_" d="M40.2,716.9c-0.5,5.3-10.1,11.6-18.5,11.6l0,0
					c-8.2,0.6-19.5-5.2-19.5-11.6L2.6-124c1.7-7.6,11.3-7.6,17.8-7.6l0,0c7.7,0,18-0.7,19.6,12.5L40.2,716.9L40.2,716.9z"/>
			</defs>
			<clipPath id="SVGID_00000091002673528511153820000014727061132641179542_">
				<use xlink:href="#SVGID_00000104678778519623097100000016643826991544018327_"  style="overflow:visible;"/>
			</clipPath>
			<g style="clip-path:url(#SVGID_00000091002673528511153820000014727061132641179542_);">
				<g>
					<g>
						<rect x="-29.6" y="160.1" class="st5" width="100.4" height="58.1"/>
					</g>
				</g>
			</g>
		</g>
	</g>
	<g>
		<g>
			<defs>
				<path id="SVGID_00000139981357786469531030000018078775467839323035_" d="M40-119l0.2,836l0,0c-0.5,5.3-10.1,11.6-18.5,11.6l0,0
					c-8.2,0.6-19.5-5.2-19.5-11.6"/>
			</defs>
			<clipPath id="SVGID_00000168802955554503372610000002825943973642138782_">
				<use xlink:href="#SVGID_00000139981357786469531030000018078775467839323035_"  style="overflow:visible;"/>
			</clipPath>
		</g>
		<g>
			<defs>
				<path id="SVGID_00000042738334385305071450000012437992044283974561_" d="M40-119l0.2,836l0,0c-0.5,5.3-10.1,11.6-18.5,11.6l0,0
					c-8.2,0.6-19.5-5.2-19.5-11.6"/>
			</defs>
			<defs>
				<line id="SVGID_00000157303325830063360440000005842417503557736099_" x1="20.4" y1="-131.5" x2="20.4" y2="-131.5"/>
			</defs>
			<clipPath id="SVGID_00000051384279419097736780000001430425845386536589_">
				<use xlink:href="#SVGID_00000042738334385305071450000012437992044283974561_"  style="overflow:visible;"/>
			</clipPath>
			
				<clipPath id="SVGID_00000176020852031699135420000006430406203634979004_" style="clip-path:url(#SVGID_00000051384279419097736780000001430425845386536589_);">
				<use xlink:href="#SVGID_00000157303325830063360440000005842417503557736099_"  style="overflow:visible;"/>
			</clipPath>
			<g style="clip-path:url(#SVGID_00000176020852031699135420000006430406203634979004_);">
				<g>
					<g>
						<rect x="-22.7" y="160" class="st8" width="100.4" height="58.1"/>
					</g>
				</g>
			</g>
		</g>
	</g>
	<g>
		<g>
			<defs>
				<path id="SVGID_00000143582124275811841140000007575419623524965000_" d="M40-119l0.2,836l0,0c-0.5,5.3-10.1,11.6-18.5,11.6l0,0
					c-8.2,0.6-19.5-5.2-19.5-11.6v-839.8c1.7-7.6,11.7-8.6,18.2-8.6l0,0"/>
			</defs>
			<clipPath id="SVGID_00000172411655354760385160000004340762345724128170_">
				<use xlink:href="#SVGID_00000143582124275811841140000007575419623524965000_"  style="overflow:visible;"/>
			</clipPath>
			<g style="clip-path:url(#SVGID_00000172411655354760385160000004340762345724128170_);">
				<g>
					<g>
						<rect x="-22.7" y="218.1" class="st10" width="100.4" height="58.1"/>
					</g>
				</g>
			</g>
		</g>
	</g>
	<g>
		<g>
			<defs>
				<path id="SVGID_00000073711447778980328480000015072419009074512523_" d="M40.2,716.9c-0.5,5.3-10.1,11.6-18.5,11.6l0,0
					c-8.2,0.6-19.5-5.2-19.5-11.6v-840.6c1.7-7.6,11.7-7.8,18.2-7.8l0,0c7.7,0,18.2-0.5,19.6,12.5L40.2,716.9L40.2,716.9z"/>
			</defs>
			<clipPath id="SVGID_00000162349849917682687700000015090497977061191089_">
				<use xlink:href="#SVGID_00000073711447778980328480000015072419009074512523_"  style="overflow:visible;"/>
			</clipPath>
			<g style="clip-path:url(#SVGID_00000162349849917682687700000015090497977061191089_);">
				<g>
					<g>
						<rect x="-21.5" y="450.5" class="st12" width="100.4" height="58.1"/>
					</g>
				</g>
			</g>
		</g>
	</g>
	<g>
		<g>
			<defs>
				<path id="SVGID_00000031198753024344784810000007720361977595120043_" d="M40.2,716.9c-0.5,5.3-10.1,11.6-18.5,11.6l0,0
					c-8.2,0.6-19.5-5.2-19.5-11.6v-840.6c1.7-7.6,11.7-7.8,18.2-7.8l0,0c7.7,0,18.2-1.3,19.6,12.5L40.2,716.9L40.2,716.9z"/>
			</defs>
			<clipPath id="SVGID_00000109029184800448477650000004890448123314912152_">
				<use xlink:href="#SVGID_00000031198753024344784810000007720361977595120043_"  style="overflow:visible;"/>
			</clipPath>
			<g style="clip-path:url(#SVGID_00000109029184800448477650000004890448123314912152_);">
				<g>
					<g>
						<rect x="-21.5" y="508.5" class="st14" width="100.4" height="58.1"/>
					</g>
				</g>
			</g>
		</g>
	</g>
	<g>
		<g>
			<defs>
				<path id="SVGID_00000087383822507589600410000000755774499360990632_" d="M40.2,716.9c-0.5,5.3-10.1,11.6-18.5,11.6l0,0
					c-8.2,0.6-19.5-5.2-19.5-11.6v-836.2c-0.2-19.4,11.7-12.4,18.2-12.2l0,0c7.7,0,18.3-0.7,19.6,12.5L40.2,716.9L40.2,716.9z"/>
			</defs>
			<clipPath id="SVGID_00000028290256293492435670000000886776392252292526_">
				<use xlink:href="#SVGID_00000087383822507589600410000000755774499360990632_"  style="overflow:visible;"/>
			</clipPath>
			<g style="clip-path:url(#SVGID_00000028290256293492435670000000886776392252292526_);">
				<g>
					<g>
						<rect x="-20.5" y="566.6" class="st16" width="100.4" height="58.1"/>
					</g>
				</g>
			</g>
		</g>
	</g>
	<g>
		<g>
			<defs>
				<path id="SVGID_00000106138915641454925090000006868814956473388709_" d="M39.8,719.7c-0.5,5.3-10.1,4.2-18.4,4.2l0,0
					c-8.2,0.6-19.1,0.1-19.1-7l0.4-842.2c1.7-7.6,11.3-6.2,17.8-6.2l0,0c7.7,0,17.7,0.4,19.6,8.4l0.2,840L39.8,719.7z"/>
			</defs>
			<clipPath id="SVGID_00000085935936501124883030000003866350900145524139_">
				<use xlink:href="#SVGID_00000106138915641454925090000006868814956473388709_"  style="overflow:visible;"/>
			</clipPath>
			<g style="clip-path:url(#SVGID_00000085935936501124883030000003866350900145524139_);">
				<g>
					<g>
						<rect x="-20.8" y="624.7" class="st18" width="100.4" height="100.3"/>
					</g>
				</g>
			</g>
		</g>
	</g>
	<g>
		<g>
			<defs>
				<path id="SVGID_00000011017227343818358900000017911646776678768315_" d="M21.4,721.4L21.4,721.4c-8.2,0.6-19.2,1.9-19.2-4.5
					L2.6-124c1.7-7.6,11.3-7.6,17.8-7.6l0,0c7.7,0,17.2,0.9,19.1,8.9l0.7,839.5"/>
			</defs>
			<clipPath id="SVGID_00000123440936210402306960000010561215269036444572_">
				<use xlink:href="#SVGID_00000011017227343818358900000017911646776678768315_"  style="overflow:visible;"/>
			</clipPath>
			<g style="clip-path:url(#SVGID_00000123440936210402306960000010561215269036444572_);">
				<g>
					<g>
						<rect x="-21.5" y="276.2" class="st20" width="100.4" height="58.1"/>
					</g>
				</g>
			</g>
		</g>
	</g>
	<g>
		<g>
			<g>
				<g>
					<rect x="2.2" y="334.2" class="st21" width="38" height="58.1"/>
				</g>
			</g>
		</g>
	</g>
	<g>
		<g>
			<g>
				<g>
					<rect x="3" y="392.4" class="st22" width="36.7" height="58.1"/>
				</g>
			</g>
		</g>
	</g>
</g>
<g>
	<path class="st23" d="M22.2,621.5v7.9h-1.7v-6l-1.7,1.1l-0.8-1.2l2.6-1.7L22.2,621.5L22.2,621.5z"/>
</g>
<g>
	<path class="st23" d="M19.6,270.2v1.4H16l-0.2,1.7c0.5-0.2,1-0.3,1.4-0.3c1.7,0,2.6,0.8,2.6,2.4c0,0.9-0.2,1.6-0.7,2.1
		s-1.1,0.7-2,0.7c-0.4,0-0.8,0-1.3-0.1c-0.5-0.1-0.8-0.1-1.1-0.2l-0.4-0.1l0.2-1.2c1,0.2,1.8,0.2,2.4,0.2c0.4,0,0.7-0.1,0.9-0.3
		c0.2-0.2,0.3-0.5,0.3-0.9s-0.1-0.7-0.3-0.8s-0.4-0.3-0.7-0.3c-0.5,0-1,0.1-1.4,0.2h-0.2l-1-0.2l0.2-4.3L19.6,270.2L19.6,270.2z"/>
	<path class="st23" d="M21.5,271.1c0.5-0.7,1.3-1,2.3-1s1.8,0.3,2.3,1s0.8,1.7,0.8,3.2s-0.3,2.5-0.8,3.1s-1.3,0.9-2.3,0.9
		s-1.8-0.3-2.3-0.9s-0.8-1.7-0.8-3.1S21,271.7,21.5,271.1z M25.2,274.2c0-1-0.1-1.7-0.3-2.1c-0.2-0.4-0.6-0.6-1-0.6
		c-0.5,0-0.8,0.2-1.1,0.6c-0.2,0.4-0.3,1.1-0.3,2.1s0.1,1.7,0.3,2.1c0.2,0.4,0.6,0.6,1.1,0.6s0.8-0.2,1-0.6S25.2,275.2,25.2,274.2z"
		/>
</g>
<g>
	<path class="st23" d="M13.9,214.3v-1.5H19v1.9l-2.8,6.2l-1.5-0.4l2.7-5.8v-0.4H13.9z"/>
	<path class="st23" d="M25.7,212.8v1.4h-3.5l-0.2,1.7c0.5-0.2,1-0.3,1.4-0.3c1.7,0,2.6,0.8,2.6,2.4c0,0.9-0.2,1.6-0.7,2.1
		s-1.1,0.7-2,0.7c-0.4,0-0.8,0-1.3-0.1s-0.8-0.1-1.1-0.2l-0.4-0.1l0.2-1.2c1,0.2,1.8,0.2,2.4,0.2c0.4,0,0.7-0.1,0.9-0.3
		c0.2-0.2,0.3-0.5,0.3-0.9s-0.1-0.7-0.3-0.8s-0.4-0.3-0.7-0.3c-0.5,0-1,0.1-1.4,0.2h-0.2l-1-0.2l0.2-4.3L25.7,212.8L25.7,212.8z"/>
</g>
<g>
	<path class="st23" d="M16.8,105.3h-5.1v-1.4l1.7-1.7c0.6-0.6,1-1.1,1.3-1.4c0.2-0.3,0.4-0.7,0.4-1S15,99.2,14.8,99
		c-0.2-0.2-0.5-0.2-0.8-0.2c-0.5,0-1.1,0-1.8,0.1h-0.3l-0.1-1.3c0.8-0.2,1.6-0.4,2.4-0.4c1.7,0,2.5,0.8,2.5,2.3
		c0,0.6-0.1,1.1-0.4,1.5s-0.7,1-1.4,1.6l-1.4,1.2h3.3V105.3z"/>
	<path class="st23" d="M18.6,98.2c0.5-0.7,1.3-1,2.3-1s1.8,0.3,2.3,1s0.8,1.7,0.8,3.2s-0.3,2.5-0.8,3.1s-1.3,0.9-2.3,0.9
		s-1.8-0.3-2.3-0.9s-0.8-1.7-0.8-3.1S18.1,98.8,18.6,98.2z M22.3,101.3c0-1-0.1-1.7-0.3-2.1c-0.2-0.4-0.6-0.6-1-0.6
		s-0.8,0.2-1.1,0.6c-0.2,0.4-0.3,1.1-0.3,2.1s0.1,1.7,0.3,2.1s0.6,0.6,1.1,0.6s0.8-0.2,1-0.6S22.3,102.3,22.3,101.3z"/>
	<path class="st23" d="M25.4,98.2c0.5-0.7,1.3-1,2.3-1s1.8,0.3,2.3,1s0.8,1.7,0.8,3.2s-0.3,2.5-0.8,3.1s-1.3,0.9-2.3,0.9
		s-1.8-0.3-2.3-0.9s-0.8-1.7-0.8-3.1S24.8,98.8,25.4,98.2z M29,101.3c0-1-0.1-1.7-0.3-2.1c-0.2-0.4-0.6-0.6-1-0.6s-0.8,0.2-1.1,0.6
		c-0.2,0.4-0.3,1.1-0.3,2.1s0.1,1.7,0.3,2.1s0.6,0.6,1.1,0.6s0.8-0.2,1-0.6S29,102.3,29,101.3z"/>
</g>
<line class="st24" x1="1.9" y1="624.7" x2="13.3" y2="624.7"/>
<line class="st24" x1="39" y1="624.7" x2="27.3" y2="624.7"/>
<line class="st24" x1="2.6" y1="275.9" x2="13" y2="275.9"/>
<line class="st24" x1="39.3" y1="276" x2="28.1" y2="276"/>
<line class="st24" x1="2.5" y1="218.5" x2="13.3" y2="218.5"/>
<line class="st24" x1="38.3" y1="218.5" x2="27.4" y2="218.5"/>
<line class="st24" x1="10.6" y1="102.2" x2="1.3" y2="102.2"/>
<line class="st24" x1="38.4" y1="102.4" x2="31.7" y2="102.4"/>
<g>
	<path class="st23" d="M23.2,569.4h-5.1V568l1.7-1.7c0.6-0.6,1-1.1,1.3-1.4c0.2-0.3,0.4-0.7,0.4-1s-0.1-0.6-0.3-0.8
		c-0.2-0.2-0.5-0.2-0.8-0.2c-0.5,0-1.1,0-1.8,0.1h-0.3l-0.1-1.3c0.8-0.2,1.6-0.4,2.4-0.4c1.7,0,2.5,0.8,2.5,2.3
		c0,0.6-0.1,1.1-0.4,1.5s-0.7,1-1.4,1.6l-1.4,1.2h3.3C23.2,567.9,23.2,569.4,23.2,569.4z"/>
</g>
<line class="st24" x1="2.4" y1="566.5" x2="13.3" y2="566.5"/>
<line class="st24" x1="38.8" y1="566.5" x2="27.3" y2="566.5"/>
<g>
	<path class="st23" d="M22.9,503.4v1.4h-3.5l-0.2,1.7c0.5-0.2,1-0.3,1.4-0.3c1.7,0,2.6,0.8,2.6,2.4c0,0.9-0.2,1.6-0.7,2.1
		s-1.1,0.7-2,0.7c-0.4,0-0.8,0-1.3-0.1s-0.8-0.1-1.1-0.2l-0.4-0.1l0.2-1.2c1,0.2,1.8,0.2,2.4,0.2c0.4,0,0.7-0.1,0.9-0.3
		c0.2-0.2,0.3-0.5,0.3-0.9s-0.1-0.7-0.3-0.8s-0.4-0.3-0.7-0.3c-0.5,0-1,0.1-1.4,0.2h-0.2l-1-0.2l0.2-4.3L22.9,503.4L22.9,503.4z"/>
</g>
<line class="st24" x1="2.7" y1="508.4" x2="13.3" y2="508.4"/>
<line class="st24" x1="39.1" y1="508.4" x2="27.3" y2="508.4"/>
<g>
	<g>
		<path class="st25" d="M18.3,445.5v7.9h-1.7v-6l-1.7,1.1l-0.8-1.2l2.6-1.7L18.3,445.5L18.3,445.5z"/>
		<path class="st25" d="M21,446.4c0.5-0.7,1.3-1,2.3-1s1.8,0.3,2.3,1s0.8,1.7,0.8,3.2s-0.3,2.5-0.8,3.1s-1.3,0.9-2.3,0.9
			s-1.8-0.3-2.3-0.9s-0.8-1.7-0.8-3.1S20.5,447,21,446.4z M24.7,449.5c0-1-0.1-1.7-0.3-2.1c-0.2-0.4-0.6-0.6-1-0.6s-0.8,0.2-1.1,0.6
			c-0.2,0.4-0.3,1.1-0.3,2.1s0.1,1.7,0.3,2.1s0.6,0.6,1.1,0.6s0.8-0.2,1-0.6S24.7,450.5,24.7,449.5z"/>
	</g>
</g>
<line class="st24" x1="2.2" y1="450.5" x2="13.3" y2="450.5"/>
<line class="st24" x1="38.6" y1="450.5" x2="27.3" y2="450.5"/>
<g>
	<path class="st25" d="M19.2,395.5H14v-1.4l1.7-1.7c0.6-0.6,1-1.1,1.3-1.4s0.4-0.7,0.4-1s-0.1-0.6-0.3-0.8c-0.2-0.2-0.5-0.2-0.8-0.2
		c-0.5,0-1.1,0-1.8,0.1h-0.3l-0.1-1.3c0.8-0.2,1.6-0.4,2.4-0.4c1.7,0,2.5,0.8,2.5,2.3c0,0.6-0.1,1.1-0.4,1.5s-0.7,1-1.4,1.6
		l-1.4,1.2h3.3v1.5H19.2z"/>
	<path class="st25" d="M21,388.4c0.5-0.7,1.3-1,2.3-1s1.8,0.3,2.3,1s0.8,1.7,0.8,3.2s-0.3,2.5-0.8,3.1s-1.3,0.9-2.3,0.9
		s-1.8-0.3-2.3-0.9s-0.8-1.7-0.8-3.1S20.5,389.1,21,388.4z M24.7,391.6c0-1-0.1-1.7-0.3-2.1c-0.2-0.4-0.6-0.6-1-0.6
		c-0.5,0-0.8,0.2-1.1,0.6c-0.2,0.4-0.3,1.1-0.3,2.1s0.1,1.7,0.3,2.1c0.2,0.4,0.6,0.6,1.1,0.6s0.8-0.2,1-0.6S24.7,392.6,24.7,391.6z"
		/>
</g>
<line class="st24" x1="3" y1="392.4" x2="13.3" y2="392.4"/>
<line class="st24" x1="39.4" y1="392.4" x2="27.3" y2="392.4"/>
<g>
	<path class="st25" d="M14.6,329.7c0.7-0.3,1.6-0.4,2.5-0.4s1.6,0.2,2,0.5s0.6,0.9,0.6,1.7c0,0.8-0.3,1.4-0.9,1.8
		c0.4,0.2,0.7,0.4,0.8,0.6s0.2,0.6,0.2,1.1c0,0.9-0.2,1.5-0.6,1.9s-1.1,0.6-2.1,0.6c-0.7,0-1.4-0.1-2.2-0.3l-0.4-0.1l0.1-1.3
		c0.9,0.2,1.6,0.2,2.3,0.2c0.8,0,1.2-0.4,1.2-1.1c0-0.3-0.1-0.5-0.3-0.7c-0.2-0.2-0.5-0.3-0.8-0.3h-1.6v-1.4H17
		c0.3,0,0.5-0.1,0.7-0.3c0.2-0.2,0.3-0.5,0.3-0.7c0-0.6-0.4-0.9-1.2-0.9c-0.6,0-1.1,0.1-1.8,0.2h-0.3L14.6,329.7z"/>
	<path class="st25" d="M21.6,330.3c0.5-0.7,1.3-1,2.3-1s1.8,0.3,2.3,1s0.8,1.7,0.8,3.2s-0.3,2.5-0.8,3.1s-1.3,0.9-2.3,0.9
		s-1.8-0.3-2.3-0.9s-0.8-1.7-0.8-3.1S21.1,330.9,21.6,330.3z M25.3,333.4c0-1-0.1-1.7-0.3-2.1c-0.2-0.4-0.6-0.6-1-0.6
		c-0.5,0-0.8,0.2-1.1,0.6c-0.2,0.4-0.3,1.1-0.3,2.1s0.1,1.7,0.3,2.1c0.2,0.4,0.6,0.6,1.1,0.6s0.8-0.2,1-0.6S25.3,334.4,25.3,333.4z"
		/>
</g>
<line class="st24" x1="2.2" y1="334.2" x2="13.3" y2="334.2"/>
<line class="st24" x1="38.6" y1="334.2" x2="27.3" y2="334.2"/>
<g>
	<path class="st23" d="M15.4,154v7.9h-1.7v-6L12,157l-0.8-1.2l2.6-1.7h1.6V154z"/>
	<path class="st23" d="M18.2,154.9c0.5-0.7,1.3-1,2.3-1s1.8,0.3,2.3,1s0.8,1.7,0.8,3.2s-0.3,2.5-0.8,3.1s-1.3,0.9-2.3,0.9
		s-1.8-0.3-2.3-0.9s-0.8-1.7-0.8-3.1S17.6,155.5,18.2,154.9z M21.8,158c0-1-0.1-1.7-0.3-2.1c-0.2-0.4-0.6-0.6-1-0.6
		c-0.5,0-0.8,0.2-1.1,0.6c-0.2,0.4-0.3,1.1-0.3,2.1s0.1,1.7,0.3,2.1c0.2,0.4,0.6,0.6,1.1,0.6s0.8-0.2,1-0.6S21.8,159,21.8,158z"/>
	<path class="st23" d="M24.9,154.9c0.5-0.7,1.3-1,2.3-1s1.8,0.3,2.3,1s0.8,1.7,0.8,3.2s-0.3,2.5-0.8,3.1s-1.3,0.9-2.3,0.9
		s-1.8-0.3-2.3-0.9s-0.8-1.7-0.8-3.1S24.4,155.5,24.9,154.9z M28.5,158c0-1-0.1-1.7-0.3-2.1c-0.2-0.4-0.6-0.6-1-0.6
		c-0.5,0-0.8,0.2-1.1,0.6c-0.2,0.4-0.3,1.1-0.3,2.1s0.1,1.7,0.3,2.1c0.2,0.4,0.6,0.6,1.1,0.6s0.8-0.2,1-0.6S28.5,159,28.5,158z"/>
</g>
<line class="st24" x1="1.9" y1="159.8" x2="10.6" y2="159.8"/>
<line class="st24" x1="37.7" y1="159.8" x2="31" y2="159.8"/>
<g>
	<path class="st23" d="M17.2,714.2c0.3,0,0.7,0,1.3,0.1h0.3v0.7c-0.6-0.1-1.1-0.1-1.4-0.1c-0.7,0-1.1,0.2-1.4,0.5
		c-0.2,0.3-0.4,0.9-0.4,1.8s0.1,1.5,0.3,1.8s0.7,0.5,1.4,0.5l1.4-0.1v0.7c-0.7,0.1-1.3,0.2-1.7,0.2c-0.9,0-1.6-0.2-1.9-0.7
		c-0.4-0.5-0.5-1.3-0.5-2.4c0-1.1,0.2-1.9,0.6-2.4S16.3,714.2,17.2,714.2z"/>
	<path class="st23" d="M21.1,720.3h-0.9v-6h0.9v0.4c0.6-0.4,1.2-0.5,1.8-0.5c0.7,0,1.3,0.2,1.6,0.6c0.3-0.2,0.6-0.3,1-0.4
		s0.8-0.2,1.1-0.2c0.8,0,1.3,0.2,1.6,0.6c0.3,0.4,0.4,1.2,0.4,2.3v3.2h-0.9v-3.1c0-0.8-0.1-1.4-0.2-1.7c-0.2-0.3-0.5-0.5-1-0.5
		c-0.3,0-0.5,0-0.8,0.1s-0.5,0.2-0.6,0.2l-0.2,0.1c0.1,0.3,0.2,0.8,0.2,1.8v3.1H24v-3.1c0-0.9-0.1-1.5-0.2-1.8
		c-0.2-0.3-0.5-0.5-1-0.5c-0.3,0-0.5,0-0.8,0.1s-0.5,0.2-0.6,0.2l-0.2,0.1L21.1,720.3L21.1,720.3z"/>
</g>
<circle class="st25" cx="20.3" cy="21.3" r="19.8"/>
<path class="st26" d="M32.8,724H8.3c-3.4,0-6.2-3-6.2-6.7v-666c0-3.7,2.8-6.7,6.2-6.7h24.5c3.4,0,6.2,3,6.2,6.7v665.9
	C39,720.9,36.2,724,32.8,724z"/>
<g>
	<path class="st23" d="M25.6,19.1l3.5-2l5.6,1.5c0.5,0.2,0.8-0.2,1-0.5c0.2-0.5-0.2-0.8-0.5-1l-4-1.2l3-1.7c0.3-0.2,0.5-0.7,0.3-1.2
		c-0.2-0.3-0.7-0.5-1.2-0.3l-3,1.7l1.2-4c0.2-0.5-0.2-0.8-0.5-1c-0.5-0.2-0.8,0.2-1,0.5l-1.5,5.6l-3.5,2l-3.5-2v-4l4.1-4.1
		c0.3-0.3,0.3-0.8,0-1.2c-0.3-0.3-0.8-0.3-1.2,0l-3,3V5.9c0-0.5-0.3-0.8-0.8-0.8s-0.8,0.3-0.8,0.8v3.5l-3-3c-0.3-0.3-0.8-0.3-1.2,0
		c-0.3,0.3-0.3,0.8,0,1.2l4.1,4.1v4l-3.5,2l-3.5-2l-1.8-5.5c-0.2-0.5-0.5-0.7-1-0.5s-0.7,0.5-0.5,1l1.2,4l-3-1.7
		c-0.3-0.2-0.8-0.2-1.2,0.3c-0.2,0.3-0.2,0.8,0.3,1.2l3,1.7l-4,1.2c-0.5,0.2-0.7,0.5-0.5,1s0.5,0.7,1,0.5l5.6-1.5l3.5,2v4.1l-3.5,2
		L6.2,24c-0.5-0.2-0.8,0.2-1,0.5c-0.2,0.5,0.2,0.8,0.5,1l4,1.2l-3,1.7c-0.3,0.2-0.5,0.7-0.3,1.2c0.2,0.3,0.7,0.5,1.2,0.3l3-1.7
		l-1.2,4c-0.2,0.5,0.2,0.8,0.5,1c0.5,0.2,0.8-0.2,1-0.5l1.5-5.6l3.5-2l3.5,2v4L15.5,35c-0.3,0.3-0.3,0.8,0,1.2
		c0.3,0.3,0.8,0.3,1.2,0l3-3v3.5c0,0.5,0.3,0.8,0.8,0.8s0.8-0.3,0.8-0.8v-3.5l3,3c0.3,0.3,0.8,0.3,1.2,0c0.3-0.3,0.3-0.8,0-1.2
		l-4.1-4.1v-4.1l3.5-2l3.5,2l1.5,5.6c0.2,0.5,0.5,0.7,1,0.5s0.7-0.5,0.5-1l-1.2-4l3,1.7c0.3,0.2,0.8,0.2,1.2-0.3
		c0.2-0.3,0.2-0.8-0.3-1.2l-3-1.7l4-1.2c0.5-0.2,0.7-0.5,0.5-1s-0.5-0.7-1-0.5L29,25.3l-3.5-2v-4.2H25.6z M23.9,23.3l-3.5,2l-3.5-2
		v-4.1l3.5-2l3.5,2V23.3z"/>
</g>
</svg>
