<?xml version="1.0" encoding="utf-8"?>
<!-- Generator: Adobe Illustrator 28.0.0, SVG Export Plug-In . SVG Version: 6.00 Build 0)  -->
<svg version="1.1" id="Livello_1" xmlns="http://www.w3.org/2000/svg" xmlns:xlink="http://www.w3.org/1999/xlink" x="0px" y="0px"
	 width="40.8px" height="725.2px" viewBox="0 0 40.8 725.2" style="enable-background:new 0 0 40.8 725.2;" xml:space="preserve">
<style type="text/css">
	.st0{clip-path:url(#SVGID_00000065061322254027766880000003171425161945578413_);}
	.st1{fill:#684F05;}
	.st2{clip-path:url(#SVGID_00000097500197693850993990000015155578338390678415_);}
	.st3{fill:#530A4D;}
	.st4{fill:#80115B;}
	.st5{clip-path:url(#SVGID_00000070797258330536600160000007162143955111024530_);}
	.st6{clip-path:url(#SVGID_00000084494777458213028570000017821794309759547314_);}
	.st7{fill:#F7EC31;}
	.st8{clip-path:url(#SVGID_00000023999534599669039600000000759577855437822080_);}
	.st9{fill:#AC7283;}
	.st10{clip-path:url(#SVGID_00000153684598523010100090000008735138531001296019_);}
	.st11{fill:#A3A3A3;}
	.st12{clip-path:url(#SVGID_00000080189115607915409490000004970372649396562868_);}
	.st13{fill:#89BF73;}
	.st14{clip-path:url(#SVGID_00000115485629308895221790000007086137530805570948_);}
	.st15{fill:#4D7E3A;}
	.st16{clip-path:url(#SVGID_00000135675118999619577400000002232582402820690601_);}
	.st17{fill:#3F5736;}
	.st18{clip-path:url(#SVGID_00000081618762297667352240000004089418983285204892_);}
	.st19{fill:#C398A6;}
	.st20{fill:#E0E0E0;}
	.st21{fill:#C2C2C2;}
	.st22{fill:#FFFFFF;}
	.st23{fill:none;stroke:#3C3430;stroke-miterlimit:9.7722;}
	.st24{fill:#39322E;}
	.st25{fill:none;stroke:#3C3430;stroke-width:2;stroke-miterlimit:9.7722;}
</style>
<g>
	<g>
		<defs>
			<path id="SVGID_1_" d="M40.2,716.9c-0.5,5.3-10.1,11.6-18.5,11.6l0,0c-8.2,0.6-19.5-5.2-19.5-11.6v-840.6
				c1.7-7.6,11.7-7.8,18.2-7.8l0,0c7.7,0,17.7-0.9,19.6,7.1L40.2,716.9L40.2,716.9z"/>
		</defs>
		<clipPath id="SVGID_00000009556033684024898340000001358996874040190367_">
			<use xlink:href="#SVGID_1_"  style="overflow:visible;"/>
		</clipPath>
	</g>
	<g>
		<defs>
			<path id="SVGID_00000059993520639647003280000002267901664121110945_" d="M40.2,716.9L40.2,716.9c-0.5,5.3-10.1,11.6-18.5,11.6
				l0,0c-8.2,0.6-19.5-5.2-19.5-11.6l0.4-840.9c1.7-7.6,11.3-7.6,17.8-7.6l0,0"/>
		</defs>
		<clipPath id="SVGID_00000096056018118944867990000013528160806124377508_">
			<use xlink:href="#SVGID_00000059993520639647003280000002267901664121110945_"  style="overflow:visible;"/>
		</clipPath>
	</g>
	<g>
		<defs>
			<path id="SVGID_00000122701834439163229690000005190955748399792004_" d="M40.2,716.9c-0.5,5.3-10.1,11.6-18.5,11.6l0,0
				c-8.2,0.6-19.5-5.2-19.5-11.6l0.4-840.2c1.7-7.6,11.3-8.2,17.8-8.2l0,0c7.7,0,17.9-0.5,19.6,12.5L40.2,716.9L40.2,716.9z"/>
		</defs>
		<clipPath id="SVGID_00000176752656971538237000000005901429289326209413_">
			<use xlink:href="#SVGID_00000122701834439163229690000005190955748399792004_"  style="overflow:visible;"/>
		</clipPath>
		<g style="clip-path:url(#SVGID_00000176752656971538237000000005901429289326209413_);">
			<g>
				<g>
					<path class="st1" d="M9.7,43.9h22.2c5,0,9,4,9,9V102H2.5V51C2.5,47.1,5.8,43.9,9.7,43.9z"/>
				</g>
			</g>
		</g>
	</g>
	<g>
		<defs>
			<path id="SVGID_00000137096332970576712570000017377842343767036337_" d="M40.2,716.9c-0.5,5.3-10.1,11.6-18.5,11.6l0,0
				c-8.2,0.6-19.5-5.2-19.5-11.6l0.4-840.9c1.7-7.6,11.3-7.6,17.8-7.6l0,0c7.7,0,18-0.7,19.6,12.5L40.2,716.9L40.2,716.9z"/>
		</defs>
		<clipPath id="SVGID_00000139282621275699323490000016916946702168110477_">
			<use xlink:href="#SVGID_00000137096332970576712570000017377842343767036337_"  style="overflow:visible;"/>
		</clipPath>
		<g style="clip-path:url(#SVGID_00000139282621275699323490000016916946702168110477_);">
			<g>
				<g>
					<rect x="-22.7" y="102" class="st3" width="100.4" height="58.1"/>
				</g>
			</g>
		</g>
		<g style="clip-path:url(#SVGID_00000139282621275699323490000016916946702168110477_);">
			<g>
				<g>
					<rect x="-29.6" y="160.1" class="st4" width="100.4" height="58.1"/>
				</g>
			</g>
		</g>
	</g>
	<g>
		<defs>
			<path id="SVGID_00000027571784374317906950000003704654455754161060_" d="M40-119l0.2,836l0,0c-0.5,5.3-10.1,11.6-18.5,11.6l0,0
				c-8.2,0.6-19.5-5.2-19.5-11.6"/>
		</defs>
		<defs>
			<line id="SVGID_00000096781211441072700020000017112557852049066130_" x1="20.4" y1="-131.5" x2="20.4" y2="-131.5"/>
		</defs>
		<clipPath id="SVGID_00000120531962887403079110000015612659979441596597_">
			<use xlink:href="#SVGID_00000027571784374317906950000003704654455754161060_"  style="overflow:visible;"/>
		</clipPath>
		
			<clipPath id="SVGID_00000109003407075480180400000011401194511706533018_" style="clip-path:url(#SVGID_00000120531962887403079110000015612659979441596597_);">
			<use xlink:href="#SVGID_00000096781211441072700020000017112557852049066130_"  style="overflow:visible;"/>
		</clipPath>
		<g style="clip-path:url(#SVGID_00000109003407075480180400000011401194511706533018_);">
			<g>
				<g>
					<rect x="-22.7" y="160" class="st7" width="100.4" height="58.1"/>
				</g>
			</g>
		</g>
	</g>
	<g>
		<defs>
			<path id="SVGID_00000082350879538653893460000001569194917371528377_" d="M40-119l0.2,836l0,0c-0.5,5.3-10.1,11.6-18.5,11.6l0,0
				c-8.2,0.6-19.5-5.2-19.5-11.6v-839.8c1.7-7.6,11.7-8.6,18.2-8.6l0,0"/>
		</defs>
		<clipPath id="SVGID_00000181780035869626207450000010310309237624922291_">
			<use xlink:href="#SVGID_00000082350879538653893460000001569194917371528377_"  style="overflow:visible;"/>
		</clipPath>
		<g style="clip-path:url(#SVGID_00000181780035869626207450000010310309237624922291_);">
			<g>
				<g>
					<rect x="-22.7" y="218.1" class="st9" width="100.4" height="58.1"/>
				</g>
			</g>
		</g>
	</g>
	<g>
		<defs>
			<path id="SVGID_00000114036957653199150190000018072080320747851145_" d="M40.2,716.9c-0.5,5.3-10.1,11.6-18.5,11.6l0,0
				c-8.2,0.6-19.5-5.2-19.5-11.6v-840.6c1.7-7.6,11.7-7.8,18.2-7.8l0,0c7.7,0,18.2-0.5,19.6,12.5L40.2,716.9L40.2,716.9z"/>
		</defs>
		<clipPath id="SVGID_00000160886553080451762850000017788758849696698812_">
			<use xlink:href="#SVGID_00000114036957653199150190000018072080320747851145_"  style="overflow:visible;"/>
		</clipPath>
		<g style="clip-path:url(#SVGID_00000160886553080451762850000017788758849696698812_);">
			<g>
				<g>
					<rect x="-21.5" y="450.5" class="st11" width="100.4" height="58.1"/>
				</g>
			</g>
		</g>
	</g>
	<g>
		<defs>
			<path id="SVGID_00000077300034273284789850000012669127619070488460_" d="M40.2,716.9c-0.5,5.3-10.1,11.6-18.5,11.6l0,0
				c-8.2,0.6-19.5-5.2-19.5-11.6v-840.6c1.7-7.6,11.7-7.8,18.2-7.8l0,0c7.7,0,18.2-1.3,19.6,12.5L40.2,716.9L40.2,716.9z"/>
		</defs>
		<clipPath id="SVGID_00000004523900075315586380000007371766085407320748_">
			<use xlink:href="#SVGID_00000077300034273284789850000012669127619070488460_"  style="overflow:visible;"/>
		</clipPath>
		<g style="clip-path:url(#SVGID_00000004523900075315586380000007371766085407320748_);">
			<g>
				<g>
					<rect x="-21.5" y="508.5" class="st13" width="100.4" height="58.1"/>
				</g>
			</g>
		</g>
	</g>
	<g>
		<defs>
			<path id="SVGID_00000009587756715100815540000012556690115993879203_" d="M40.2,716.9c-0.5,5.3-10.1,11.6-18.5,11.6l0,0
				c-8.2,0.6-19.5-5.2-19.5-11.6l0-836.2c-0.2-19.4,11.7-12.4,18.2-12.2l0,0c7.7,0,18.3-0.7,19.6,12.5L40.2,716.9L40.2,716.9z"/>
		</defs>
		<clipPath id="SVGID_00000078758305897420345130000001135491046412018316_">
			<use xlink:href="#SVGID_00000009587756715100815540000012556690115993879203_"  style="overflow:visible;"/>
		</clipPath>
		<g style="clip-path:url(#SVGID_00000078758305897420345130000001135491046412018316_);">
			<g>
				<g>
					<rect x="-20.5" y="566.6" class="st15" width="100.4" height="58.1"/>
				</g>
			</g>
		</g>
	</g>
	<g>
		<defs>
			<path id="SVGID_00000020370113198902226730000007145402531972830632_" d="M39.8,719.7c-0.5,5.3-10.1,4.2-18.4,4.2l0,0
				c-8.2,0.6-19.1,0.1-19.1-7l0.4-842.2c1.7-7.6,11.3-6.2,17.8-6.2l0,0c7.7,0,17.7,0.4,19.6,8.4l0.2,840L39.8,719.7z"/>
		</defs>
		<clipPath id="SVGID_00000183248816731212172690000003175463122732212670_">
			<use xlink:href="#SVGID_00000020370113198902226730000007145402531972830632_"  style="overflow:visible;"/>
		</clipPath>
		<g style="clip-path:url(#SVGID_00000183248816731212172690000003175463122732212670_);">
			<g>
				<g>
					<rect x="-20.8" y="624.7" class="st17" width="100.4" height="100.3"/>
				</g>
			</g>
		</g>
	</g>
	<g>
		<defs>
			<path id="SVGID_00000080920773958760939310000015198741807003760041_" d="M21.4,721.4L21.4,721.4c-8.2,0.6-19.2,1.9-19.2-4.5
				l0.4-840.9c1.7-7.6,11.3-7.6,17.8-7.6l0,0c7.7,0,17.2,0.9,19.1,8.9l0.7,839.5"/>
		</defs>
		<clipPath id="SVGID_00000127013400040934345710000016689679008533904821_">
			<use xlink:href="#SVGID_00000080920773958760939310000015198741807003760041_"  style="overflow:visible;"/>
		</clipPath>
		<g style="clip-path:url(#SVGID_00000127013400040934345710000016689679008533904821_);">
			<g>
				<g>
					<rect x="-21.5" y="276.2" class="st19" width="100.4" height="58.1"/>
				</g>
			</g>
		</g>
	</g>
	<g>
		<g>
			<g>
				<g>
					<rect x="2.2" y="334.2" class="st20" width="38" height="58.1"/>
				</g>
			</g>
		</g>
	</g>
	<g>
		<g>
			<g>
				<g>
					<rect x="3" y="392.4" class="st21" width="36.7" height="58.1"/>
				</g>
			</g>
		</g>
	</g>
</g>
<g>
	<path class="st22" d="M22.2,621.5v7.9h-1.7v-6l-1.7,1.1l-0.8-1.2l2.6-1.7H22.2z"/>
</g>
<g>
	<path class="st22" d="M19.6,270.2v1.4H16l-0.2,1.7c0.5-0.2,1-0.3,1.4-0.3c1.7,0,2.6,0.8,2.6,2.4c0,0.9-0.2,1.6-0.7,2.1
		c-0.5,0.5-1.1,0.7-2,0.7c-0.4,0-0.8,0-1.3-0.1c-0.5-0.1-0.8-0.1-1.1-0.2l-0.4-0.1l0.2-1.2c1,0.2,1.8,0.2,2.4,0.2
		c0.4,0,0.7-0.1,0.9-0.3c0.2-0.2,0.3-0.5,0.3-0.9s-0.1-0.7-0.3-0.8s-0.4-0.3-0.7-0.3c-0.5,0-1,0.1-1.4,0.2l-0.2,0l-1-0.2l0.2-4.3
		H19.6z"/>
	<path class="st22" d="M21.5,271.1c0.5-0.7,1.3-1,2.3-1c1,0,1.8,0.3,2.3,1c0.5,0.7,0.8,1.7,0.8,3.2s-0.3,2.5-0.8,3.1
		c-0.5,0.6-1.3,0.9-2.3,0.9c-1,0-1.8-0.3-2.3-0.9s-0.8-1.7-0.8-3.1S21,271.7,21.5,271.1z M25.2,274.2c0-1-0.1-1.7-0.3-2.1
		c-0.2-0.4-0.6-0.6-1-0.6c-0.5,0-0.8,0.2-1.1,0.6c-0.2,0.4-0.3,1.1-0.3,2.1c0,1,0.1,1.7,0.3,2.1c0.2,0.4,0.6,0.6,1.1,0.6
		c0.5,0,0.8-0.2,1-0.6S25.2,275.2,25.2,274.2z"/>
</g>
<g>
	<path class="st22" d="M13.9,214.3v-1.5H19v1.9l-2.8,6.2l-1.5-0.4l2.7-5.8v-0.4H13.9z"/>
	<path class="st22" d="M25.7,212.8v1.4h-3.5l-0.2,1.7c0.5-0.2,1-0.3,1.4-0.3c1.7,0,2.6,0.8,2.6,2.4c0,0.9-0.2,1.6-0.7,2.1
		s-1.1,0.7-2,0.7c-0.4,0-0.8,0-1.3-0.1s-0.8-0.1-1.1-0.2l-0.4-0.1l0.2-1.2c1,0.2,1.8,0.2,2.4,0.2c0.4,0,0.7-0.1,0.9-0.3
		c0.2-0.2,0.3-0.5,0.3-0.9s-0.1-0.7-0.3-0.8s-0.4-0.3-0.7-0.3c-0.5,0-1,0.1-1.4,0.2l-0.2,0l-1-0.2l0.2-4.3H25.7z"/>
</g>
<g>
	<path class="st22" d="M11.2,102.3l-3.1-1.2v-1.6l4.9,2.2v1.3l-4.9,2.2v-1.6L11.2,102.3z"/>
	<path class="st22" d="M19.7,105.4h-5.1V104l1.7-1.7c0.6-0.6,1-1.1,1.3-1.4c0.2-0.3,0.4-0.7,0.4-1s-0.1-0.6-0.3-0.8
		c-0.2-0.2-0.5-0.2-0.8-0.2c-0.5,0-1.1,0-1.8,0.1l-0.3,0l-0.1-1.3c0.8-0.2,1.6-0.4,2.4-0.4c1.7,0,2.5,0.8,2.5,2.3
		c0,0.6-0.1,1.1-0.4,1.5c-0.3,0.4-0.7,1-1.4,1.6l-1.4,1.2h3.3V105.4z"/>
	<path class="st22" d="M21.5,98.3c0.5-0.7,1.3-1,2.3-1c1,0,1.8,0.3,2.3,1s0.8,1.7,0.8,3.2s-0.3,2.5-0.8,3.1s-1.3,0.9-2.3,0.9
		c-1,0-1.8-0.3-2.3-0.9c-0.5-0.6-0.8-1.7-0.8-3.1S21,98.9,21.5,98.3z M25.2,101.4c0-1-0.1-1.7-0.3-2.1c-0.2-0.4-0.6-0.6-1-0.6
		s-0.8,0.2-1.1,0.6c-0.2,0.4-0.3,1.1-0.3,2.1c0,1,0.1,1.7,0.3,2.1s0.6,0.6,1.1,0.6s0.8-0.2,1-0.6S25.2,102.4,25.2,101.4z"/>
	<path class="st22" d="M28.3,98.3c0.5-0.7,1.3-1,2.3-1c1,0,1.8,0.3,2.3,1s0.8,1.7,0.8,3.2s-0.3,2.5-0.8,3.1s-1.3,0.9-2.3,0.9
		c-1,0-1.8-0.3-2.3-0.9c-0.5-0.6-0.8-1.7-0.8-3.1S27.7,98.9,28.3,98.3z M31.9,101.4c0-1-0.1-1.7-0.3-2.1c-0.2-0.4-0.6-0.6-1-0.6
		s-0.8,0.2-1.1,0.6c-0.2,0.4-0.3,1.1-0.3,2.1c0,1,0.1,1.7,0.3,2.1s0.6,0.6,1.1,0.6s0.8-0.2,1-0.6S31.9,102.4,31.9,101.4z"/>
</g>
<line class="st23" x1="1.9" y1="624.7" x2="13.3" y2="624.7"/>
<line class="st23" x1="39" y1="624.7" x2="27.3" y2="624.7"/>
<line class="st23" x1="2.6" y1="275.9" x2="13" y2="275.9"/>
<line class="st23" x1="39.3" y1="276" x2="28.1" y2="276"/>
<line class="st23" x1="2.5" y1="218.5" x2="13.3" y2="218.5"/>
<line class="st23" x1="38.3" y1="218.5" x2="27.4" y2="218.5"/>
<line class="st23" x1="7.6" y1="102.2" x2="1.3" y2="102.2"/>
<line class="st23" x1="38.4" y1="102.4" x2="34.3" y2="102.4"/>
<g>
	<path class="st22" d="M23.2,569.4h-5.1V568l1.7-1.7c0.6-0.6,1-1.1,1.3-1.4c0.2-0.3,0.4-0.7,0.4-1s-0.1-0.6-0.3-0.8
		c-0.2-0.2-0.5-0.2-0.8-0.2c-0.5,0-1.1,0-1.8,0.1l-0.3,0l-0.1-1.3c0.8-0.2,1.6-0.4,2.4-0.4c1.7,0,2.5,0.8,2.5,2.3
		c0,0.6-0.1,1.1-0.4,1.5c-0.3,0.4-0.7,1-1.4,1.6l-1.4,1.2h3.3V569.4z"/>
</g>
<line class="st23" x1="2.4" y1="566.5" x2="13.3" y2="566.5"/>
<line class="st23" x1="38.8" y1="566.5" x2="27.3" y2="566.5"/>
<g>
	<path class="st22" d="M22.9,503.4v1.4h-3.5l-0.2,1.7c0.5-0.2,1-0.3,1.4-0.3c1.7,0,2.6,0.8,2.6,2.4c0,0.9-0.2,1.6-0.7,2.1
		c-0.5,0.5-1.1,0.7-2,0.7c-0.4,0-0.8,0-1.3-0.1c-0.5-0.1-0.8-0.1-1.1-0.2l-0.4-0.1l0.2-1.2c1,0.2,1.8,0.2,2.4,0.2
		c0.4,0,0.7-0.1,0.9-0.3c0.2-0.2,0.3-0.5,0.3-0.9s-0.1-0.7-0.3-0.8s-0.4-0.3-0.7-0.3c-0.5,0-1,0.1-1.4,0.2l-0.2,0l-1-0.2l0.2-4.3
		H22.9z"/>
</g>
<line class="st23" x1="2.7" y1="508.4" x2="13.3" y2="508.4"/>
<line class="st23" x1="39.1" y1="508.4" x2="27.3" y2="508.4"/>
<g>
	<g>
		<path class="st24" d="M18.3,445.5v7.9h-1.7v-6l-1.7,1.1l-0.8-1.2l2.6-1.7H18.3z"/>
		<path class="st24" d="M21,446.4c0.5-0.7,1.3-1,2.3-1c1,0,1.8,0.3,2.3,1s0.8,1.7,0.8,3.2s-0.3,2.5-0.8,3.1s-1.3,0.9-2.3,0.9
			c-1,0-1.8-0.3-2.3-0.9c-0.5-0.6-0.8-1.7-0.8-3.1S20.5,447,21,446.4z M24.7,449.5c0-1-0.1-1.7-0.3-2.1c-0.2-0.4-0.6-0.6-1-0.6
			s-0.8,0.2-1.1,0.6c-0.2,0.4-0.3,1.1-0.3,2.1c0,1,0.1,1.7,0.3,2.1s0.6,0.6,1.1,0.6s0.8-0.2,1-0.6S24.7,450.5,24.7,449.5z"/>
	</g>
</g>
<line class="st23" x1="2.2" y1="450.5" x2="13.3" y2="450.5"/>
<line class="st23" x1="38.6" y1="450.5" x2="27.3" y2="450.5"/>
<g>
	<path class="st24" d="M19.2,395.5H14v-1.4l1.7-1.7c0.6-0.6,1-1.1,1.3-1.4s0.4-0.7,0.4-1s-0.1-0.6-0.3-0.8c-0.2-0.2-0.5-0.2-0.8-0.2
		c-0.5,0-1.1,0-1.8,0.1l-0.3,0l-0.1-1.3c0.8-0.2,1.6-0.4,2.4-0.4c1.7,0,2.5,0.8,2.5,2.3c0,0.6-0.1,1.1-0.4,1.5
		c-0.3,0.4-0.7,1-1.4,1.6l-1.4,1.2h3.3V395.5z"/>
	<path class="st24" d="M21,388.4c0.5-0.7,1.3-1,2.3-1c1,0,1.8,0.3,2.3,1c0.5,0.7,0.8,1.7,0.8,3.2s-0.3,2.5-0.8,3.1
		c-0.5,0.6-1.3,0.9-2.3,0.9c-1,0-1.8-0.3-2.3-0.9s-0.8-1.7-0.8-3.1S20.5,389.1,21,388.4z M24.7,391.6c0-1-0.1-1.7-0.3-2.1
		c-0.2-0.4-0.6-0.6-1-0.6c-0.5,0-0.8,0.2-1.1,0.6c-0.2,0.4-0.3,1.1-0.3,2.1c0,1,0.1,1.7,0.3,2.1c0.2,0.4,0.6,0.6,1.1,0.6
		c0.5,0,0.8-0.2,1-0.6S24.7,392.6,24.7,391.6z"/>
</g>
<line class="st23" x1="3" y1="392.4" x2="13.3" y2="392.4"/>
<line class="st23" x1="39.4" y1="392.4" x2="27.3" y2="392.4"/>
<g>
	<path class="st24" d="M14.6,329.7c0.7-0.3,1.6-0.4,2.5-0.4c0.9,0,1.6,0.2,2,0.5s0.6,0.9,0.6,1.7c0,0.8-0.3,1.4-0.9,1.8
		c0.4,0.2,0.7,0.4,0.8,0.6s0.2,0.6,0.2,1.1c0,0.9-0.2,1.5-0.6,1.9c-0.4,0.4-1.1,0.6-2.1,0.6c-0.7,0-1.4-0.1-2.2-0.3l-0.4-0.1
		l0.1-1.3c0.9,0.2,1.6,0.2,2.3,0.2c0.8,0,1.2-0.4,1.2-1.1c0-0.3-0.1-0.5-0.3-0.7c-0.2-0.2-0.5-0.3-0.8-0.3h-1.6v-1.4h1.6
		c0.3,0,0.5-0.1,0.7-0.3c0.2-0.2,0.3-0.5,0.3-0.7c0-0.6-0.4-0.9-1.2-0.9c-0.6,0-1.1,0.1-1.8,0.2l-0.3,0L14.6,329.7z"/>
	<path class="st24" d="M21.6,330.3c0.5-0.7,1.3-1,2.3-1c1,0,1.8,0.3,2.3,1c0.5,0.7,0.8,1.7,0.8,3.2s-0.3,2.5-0.8,3.1
		c-0.5,0.6-1.3,0.9-2.3,0.9c-1,0-1.8-0.3-2.3-0.9s-0.8-1.7-0.8-3.1S21.1,330.9,21.6,330.3z M25.3,333.4c0-1-0.1-1.7-0.3-2.1
		c-0.2-0.4-0.6-0.6-1-0.6c-0.5,0-0.8,0.2-1.1,0.6c-0.2,0.4-0.3,1.1-0.3,2.1c0,1,0.1,1.7,0.3,2.1c0.2,0.4,0.6,0.6,1.1,0.6
		c0.5,0,0.8-0.2,1-0.6S25.3,334.4,25.3,333.4z"/>
</g>
<line class="st23" x1="2.2" y1="334.2" x2="13.3" y2="334.2"/>
<line class="st23" x1="38.6" y1="334.2" x2="27.3" y2="334.2"/>
<g>
	<path class="st22" d="M15.4,154v7.9h-1.7v-6L12,157l-0.8-1.2l2.6-1.7H15.4z"/>
	<path class="st22" d="M18.2,154.9c0.5-0.7,1.3-1,2.3-1c1,0,1.8,0.3,2.3,1c0.5,0.7,0.8,1.7,0.8,3.2s-0.3,2.5-0.8,3.1
		c-0.5,0.6-1.3,0.9-2.3,0.9c-1,0-1.8-0.3-2.3-0.9s-0.8-1.7-0.8-3.1S17.6,155.5,18.2,154.9z M21.8,158c0-1-0.1-1.7-0.3-2.1
		c-0.2-0.4-0.6-0.6-1-0.6c-0.5,0-0.8,0.2-1.1,0.6c-0.2,0.4-0.3,1.1-0.3,2.1c0,1,0.1,1.7,0.3,2.1c0.2,0.4,0.6,0.6,1.1,0.6
		c0.5,0,0.8-0.2,1-0.6S21.8,159,21.8,158z"/>
	<path class="st22" d="M24.9,154.9c0.5-0.7,1.3-1,2.3-1c1,0,1.8,0.3,2.3,1c0.5,0.7,0.8,1.7,0.8,3.2s-0.3,2.5-0.8,3.1
		c-0.5,0.6-1.3,0.9-2.3,0.9c-1,0-1.8-0.3-2.3-0.9s-0.8-1.7-0.8-3.1S24.4,155.5,24.9,154.9z M28.5,158c0-1-0.1-1.7-0.3-2.1
		c-0.2-0.4-0.6-0.6-1-0.6c-0.5,0-0.8,0.2-1.1,0.6c-0.2,0.4-0.3,1.1-0.3,2.1c0,1,0.1,1.7,0.3,2.1c0.2,0.4,0.6,0.6,1.1,0.6
		c0.5,0,0.8-0.2,1-0.6S28.5,159,28.5,158z"/>
</g>
<line class="st23" x1="1.9" y1="159.8" x2="10.6" y2="159.8"/>
<line class="st23" x1="37.7" y1="159.8" x2="31" y2="159.8"/>
<g>
	<path class="st22" d="M17.2,714.2c0.3,0,0.7,0,1.3,0.1l0.3,0l0,0.7c-0.6-0.1-1.1-0.1-1.4-0.1c-0.7,0-1.1,0.2-1.4,0.5
		c-0.2,0.3-0.4,0.9-0.4,1.8s0.1,1.5,0.3,1.8c0.2,0.3,0.7,0.5,1.4,0.5l1.4-0.1l0,0.7c-0.7,0.1-1.3,0.2-1.7,0.2
		c-0.9,0-1.6-0.2-1.9-0.7c-0.4-0.5-0.5-1.3-0.5-2.4c0-1.1,0.2-1.9,0.6-2.4S16.3,714.2,17.2,714.2z"/>
	<path class="st22" d="M21.1,720.3h-0.9v-6h0.9v0.4c0.6-0.4,1.2-0.5,1.8-0.5c0.7,0,1.3,0.2,1.6,0.6c0.3-0.2,0.6-0.3,1-0.4
		s0.8-0.2,1.1-0.2c0.8,0,1.3,0.2,1.6,0.6c0.3,0.4,0.4,1.2,0.4,2.3v3.2h-0.9v-3.1c0-0.8-0.1-1.4-0.2-1.7c-0.2-0.3-0.5-0.5-1-0.5
		c-0.3,0-0.5,0-0.8,0.1s-0.5,0.2-0.6,0.2l-0.2,0.1c0.1,0.3,0.2,0.8,0.2,1.8v3.1H24v-3.1c0-0.9-0.1-1.5-0.2-1.8
		c-0.2-0.3-0.5-0.5-1-0.5c-0.3,0-0.5,0-0.8,0.1c-0.3,0.1-0.5,0.2-0.6,0.2l-0.2,0.1V720.3z"/>
</g>
<circle class="st24" cx="20.3" cy="21.3" r="19.8"/>
<path class="st25" d="M32.8,724H8.3c-3.4,0-6.2-3-6.2-6.7V51.3c0-3.7,2.8-6.7,6.2-6.7h24.5c3.4,0,6.2,3,6.2,6.7v665.9
	C39,720.9,36.2,724,32.8,724z"/>
<g>
	<path class="st22" d="M25.6,19.1l3.5-2l5.6,1.5c0.5,0.2,0.8-0.2,1-0.5c0.2-0.5-0.2-0.8-0.5-1l-4-1.2l3-1.7c0.3-0.2,0.5-0.7,0.3-1.2
		c-0.2-0.3-0.7-0.5-1.2-0.3l-3,1.7l1.2-4c0.2-0.5-0.2-0.8-0.5-1c-0.5-0.2-0.8,0.2-1,0.5l-1.5,5.6l-3.5,2l-3.5-2v-4l4.1-4.1
		c0.3-0.3,0.3-0.8,0-1.2c-0.3-0.3-0.8-0.3-1.2,0l-3,3V5.9c0-0.5-0.3-0.8-0.8-0.8s-0.8,0.3-0.8,0.8v3.5l-3-3c-0.3-0.3-0.8-0.3-1.2,0
		c-0.3,0.3-0.3,0.8,0,1.2l4.1,4.1v4l-3.5,2l-3.5-2l-1.8-5.5c-0.2-0.5-0.5-0.7-1-0.5c-0.5,0.2-0.7,0.5-0.5,1l1.2,4l-3-1.7
		c-0.3-0.2-0.8-0.2-1.2,0.3c-0.2,0.3-0.2,0.8,0.3,1.2l3,1.7l-4,1.2c-0.5,0.2-0.7,0.5-0.5,1c0.2,0.5,0.5,0.7,1,0.5l5.6-1.5l3.5,2v4.1
		l-3.5,2l-5.6-1.5c-0.5-0.2-0.8,0.2-1,0.5c-0.2,0.5,0.2,0.8,0.5,1l4,1.2l-3,1.7c-0.3,0.2-0.5,0.7-0.3,1.2c0.2,0.3,0.7,0.5,1.2,0.3
		l3-1.7l-1.2,4c-0.2,0.5,0.2,0.8,0.5,1c0.5,0.2,0.8-0.2,1-0.5l1.5-5.6l3.5-2l3.5,2v4L15.5,35c-0.3,0.3-0.3,0.8,0,1.2
		c0.3,0.3,0.8,0.3,1.2,0l3-3v3.5c0,0.5,0.3,0.8,0.8,0.8s0.8-0.3,0.8-0.8v-3.5l3,3c0.3,0.3,0.8,0.3,1.2,0c0.3-0.3,0.3-0.8,0-1.2
		l-4.1-4.1v-4.1l3.5-2l3.5,2l1.5,5.6c0.2,0.5,0.5,0.7,1,0.5c0.5-0.2,0.7-0.5,0.5-1l-1.2-4l3,1.7c0.3,0.2,0.8,0.2,1.2-0.3
		c0.2-0.3,0.2-0.8-0.3-1.2l-3-1.7l4-1.2c0.5-0.2,0.7-0.5,0.5-1c-0.2-0.5-0.5-0.7-1-0.5L29,25.3l-3.5-2V19.1z M23.9,23.3l-3.5,2
		l-3.5-2v-4.1l3.5-2l3.5,2V23.3z"/>
</g>
</svg>
