<?xml version="1.0" encoding="utf-8"?>
<!-- Generator: Adobe Illustrator 28.0.0, SVG Export Plug-In . SVG Version: 6.00 Build 0)  -->
<svg version="1.1" id="Livello_1" xmlns="http://www.w3.org/2000/svg" xmlns:xlink="http://www.w3.org/1999/xlink" x="0px" y="0px"
	 	width="50px" height="677px"  viewBox="0 0 48.7 677.2" style="enable-background:new 0 0 48.7 677.2;" xml:space="preserve">
<style type="text/css">
	.st0{clip-path:url(#SVGID_00000106111346683916503360000010584003100449159573_);}
	.st1{fill:#FFFFFF;}
	.st2{clip-path:url(#SVGID_00000167368203740062341100000014378971433962522245_);}
	.st3{fill:#E4BEEE;}
	.st4{fill:#D08AC5;}
	.st5{clip-path:url(#SVGID_00000041255479865936040580000017741459492131214992_);}
	.st6{clip-path:url(#SVGID_00000013166509792368160680000013960628461498463656_);}
	.st7{fill:#F7EC31;}
	.st8{clip-path:url(#SVGID_00000171711203831974402020000018264438646994498456_);}
	.st9{fill:#BB56AA;}
	.st10{clip-path:url(#SVGID_00000143575827793734138830000001348041404629919927_);}
	.st11{fill:#712692;}
	.st12{clip-path:url(#SVGID_00000137826728482422139080000001491585497744776613_);}
	.st13{fill:#64127D;}
	.st14{clip-path:url(#SVGID_00000011031087012788485630000003598841507312392883_);}
	.st15{fill:#43194E;}
	.st16{clip-path:url(#SVGID_00000074437725988424253350000009131089985512289957_);}
	.st17{fill:#906192;}
	.st18{clip-path:url(#SVGID_00000164481970998853607590000006925115957192546228_);}
	.st19{fill:#A32F94;}
	.st20{fill:#95037E;}
	.st21{fill:#A13CCD;}
	.st22{fill:#39322E;}
	.st23{fill:none;stroke:#3C3430;stroke-width:2;stroke-miterlimit:9.7722;}
	.st24{fill:none;}
	.st25{font-family:'TitilliumWeb-Regular';}
	.st26{font-size:12px;}
	.st27{fill:#3C3530;}
	.st28{fill:none;stroke:#3C3430;stroke-miterlimit:9.7722;}
</style>
<g>
	<g>
		<defs>
			<path id="SVGID_1_" d="M43.4,670.3C43,675.2,33.3,681,24.9,681l0,0c-8.2,0.5-19.5-4.7-19.5-10.7v-773.6c1.7-7,11.7-7.2,18.2-7.2
				l0,0c7.7,0,17.7-0.9,19.6,6.5L43.4,670.3L43.4,670.3z"/>
		</defs>
		<clipPath id="SVGID_00000041278520892132036090000017955334088820406700_">
			<use xlink:href="#SVGID_1_"  style="overflow:visible;"/>
		</clipPath>
	</g>
	<g>
		<defs>
			<path id="SVGID_00000120558408728994924430000009702497617562558593_" d="M43.4,670.3L43.4,670.3C43,675.2,33.3,681,24.9,681l0,0
				c-8.2,0.5-19.5-4.7-19.5-10.7l0.4-773.8c1.7-7,11.3-7,17.8-7l0,0"/>
		</defs>
		<clipPath id="SVGID_00000135649327836602374810000010125513259797453228_">
			<use xlink:href="#SVGID_00000120558408728994924430000009702497617562558593_"  style="overflow:visible;"/>
		</clipPath>
	</g>
	<g>
		<defs>
			<path id="SVGID_00000079484394546739851340000011206847081068638867_" d="M43.4,670.3C43,675.2,33.3,681,24.9,681l0,0
				c-8.2,0.5-19.5-4.7-19.5-10.7l0.4-773.2c1.7-7,11.3-7.6,17.8-7.6l0,0c7.7,0,17.9-0.5,19.6,11.5L43.4,670.3L43.4,670.3z"/>
		</defs>
		<clipPath id="SVGID_00000078044202445033608220000004774613542185695624_">
			<use xlink:href="#SVGID_00000079484394546739851340000011206847081068638867_"  style="overflow:visible;"/>
		</clipPath>
		<g style="clip-path:url(#SVGID_00000078044202445033608220000004774613542185695624_);">
			<g>
				<g>
					<rect x="-20.5" y="50.9" class="st1" width="100.4" height="53.5"/>
				</g>
			</g>
		</g>
	</g>
	<g>
		<defs>
			<path id="SVGID_00000107563647752134741780000012504120045194771078_" d="M43.4,670.3C43,675.2,33.3,681,24.9,681l0,0
				c-8.2,0.5-19.5-4.7-19.5-10.7l0.4-773.8c1.7-7,11.3-7,17.8-7l0,0c7.7,0,18-0.6,19.6,11.5L43.4,670.3L43.4,670.3z"/>
		</defs>
		<clipPath id="SVGID_00000026142879519977475240000012030359792242477188_">
			<use xlink:href="#SVGID_00000107563647752134741780000012504120045194771078_"  style="overflow:visible;"/>
		</clipPath>
		<g style="clip-path:url(#SVGID_00000026142879519977475240000012030359792242477188_);">
			<g>
				<g>
					<rect x="-19.5" y="104.4" class="st3" width="100.4" height="53.5"/>
				</g>
			</g>
		</g>
		<g style="clip-path:url(#SVGID_00000026142879519977475240000012030359792242477188_);">
			<g>
				<g>
					<rect x="-26.4" y="157.9" class="st4" width="100.4" height="53.5"/>
				</g>
			</g>
		</g>
	</g>
	<g>
		<defs>
			<path id="SVGID_00000029738543983246840150000016020506865930849430_" d="M43.3-99l0.2,769.3l0,0C43,675.2,33.3,681,24.9,681l0,0
				c-8.2,0.5-19.5-4.7-19.5-10.7"/>
		</defs>
		<defs>
			<line id="SVGID_00000118387342709039100500000011209084927124999818_" x1="23.7" y1="-110.5" x2="23.7" y2="-110.5"/>
		</defs>
		<clipPath id="SVGID_00000142168920619020267240000005425517927629746819_">
			<use xlink:href="#SVGID_00000029738543983246840150000016020506865930849430_"  style="overflow:visible;"/>
		</clipPath>
		
			<clipPath id="SVGID_00000118354941999977492980000018195370114185031073_" style="clip-path:url(#SVGID_00000142168920619020267240000005425517927629746819_);">
			<use xlink:href="#SVGID_00000118387342709039100500000011209084927124999818_"  style="overflow:visible;"/>
		</clipPath>
		<g style="clip-path:url(#SVGID_00000118354941999977492980000018195370114185031073_);">
			<g>
				<g>
					<rect x="-19.5" y="157.8" class="st7" width="100.4" height="53.5"/>
				</g>
			</g>
		</g>
	</g>
	<g>
		<defs>
			<path id="SVGID_00000152236913432347294320000007905235057694428808_" d="M43.3-99l0.2,769.3l0,0C43,675.2,33.3,681,24.9,681l0,0
				c-8.2,0.5-19.5-4.7-19.5-10.7v-772.8c1.7-7,11.7-7.9,18.2-7.9l0,0"/>
		</defs>
		<clipPath id="SVGID_00000070803657051885977190000013810862983808091785_">
			<use xlink:href="#SVGID_00000152236913432347294320000007905235057694428808_"  style="overflow:visible;"/>
		</clipPath>
		<g style="clip-path:url(#SVGID_00000070803657051885977190000013810862983808091785_);">
			<g>
				<g>
					<rect x="-19.5" y="211.3" class="st9" width="100.4" height="53.5"/>
				</g>
			</g>
		</g>
	</g>
	<g>
		<defs>
			<path id="SVGID_00000134207832427372195150000013785975131598760859_" d="M43.4,670.3C43,675.2,33.3,681,24.9,681l0,0
				c-8.2,0.5-19.5-4.7-19.5-10.7v-773.6c1.7-7,11.7-7.2,18.2-7.2l0,0c7.7,0,18.2-0.5,19.6,11.5L43.4,670.3L43.4,670.3z"/>
		</defs>
		<clipPath id="SVGID_00000049916532944599447040000018200965055013973640_">
			<use xlink:href="#SVGID_00000134207832427372195150000013785975131598760859_"  style="overflow:visible;"/>
		</clipPath>
		<g style="clip-path:url(#SVGID_00000049916532944599447040000018200965055013973640_);">
			<g>
				<g>
					<rect x="-18.2" y="425.1" class="st11" width="100.4" height="53.5"/>
				</g>
			</g>
		</g>
	</g>
	<g>
		<defs>
			<path id="SVGID_00000146493363824566888930000008041571721599003277_" d="M43.4,670.3C43,675.2,33.3,681,24.9,681l0,0
				c-8.2,0.5-19.5-4.7-19.5-10.7v-773.6c1.7-7,11.7-7.2,18.2-7.2l0,0c7.7,0,18.2-1.2,19.6,11.5L43.4,670.3L43.4,670.3z"/>
		</defs>
		<clipPath id="SVGID_00000021808363213205648340000004400112614428403369_">
			<use xlink:href="#SVGID_00000146493363824566888930000008041571721599003277_"  style="overflow:visible;"/>
		</clipPath>
		<g style="clip-path:url(#SVGID_00000021808363213205648340000004400112614428403369_);">
			<g>
				<g>
					<rect x="-18.2" y="478.5" class="st13" width="100.4" height="53.5"/>
				</g>
			</g>
		</g>
	</g>
	<g>
		<defs>
			<path id="SVGID_00000136379227621299916600000004448994326430044821_" d="M43.4,670.3C43,675.2,33.3,681,24.9,681l0,0
				c-8.2,0.5-19.5-4.7-19.5-10.7l0-769.6c-0.2-17.9,11.7-11.4,18.2-11.2l0,0c7.7,0,18.3-0.6,19.6,11.5L43.4,670.3L43.4,670.3z"/>
		</defs>
		<clipPath id="SVGID_00000008868120011597503560000008599738422275064986_">
			<use xlink:href="#SVGID_00000136379227621299916600000004448994326430044821_"  style="overflow:visible;"/>
		</clipPath>
		<g style="clip-path:url(#SVGID_00000008868120011597503560000008599738422275064986_);">
			<g>
				<g>
					<rect x="-17.3" y="532" class="st15" width="100.4" height="53.5"/>
				</g>
			</g>
		</g>
	</g>
	<g>
		<defs>
			<path id="SVGID_00000113315935512360033420000007513699378228668306_" d="M43.4,670.3c-0.5,4.9-10.6,5.5-19,5.5l0,0
				c-8.2,0.5-18.6,0-18.6-6.6v-774c1.7-7,11.3-5.7,17.8-5.7l0,0c7.7,0,17.7,0.4,19.6,7.7L43.4,670.3L43.4,670.3z"/>
		</defs>
		<clipPath id="SVGID_00000102506082528037536520000010891103020437453959_">
			<use xlink:href="#SVGID_00000113315935512360033420000007513699378228668306_"  style="overflow:visible;"/>
		</clipPath>
		<g style="clip-path:url(#SVGID_00000102506082528037536520000010891103020437453959_);">
			<g>
				<g>
					<rect x="-17.6" y="578.8" class="st17" width="100.4" height="98.9"/>
				</g>
			</g>
		</g>
	</g>
	<g>
		<defs>
			<path id="SVGID_00000044164257478516693760000008837163499069468553_" d="M43.4,670.3c-0.5,4.9-10.4,4.2-18.8,4.2l0,0
				c-8.2,0.5-19.2,1.8-19.2-4.2l0.4-773.8c1.7-7,11.3-7,17.8-7l0,0c7.7,0,17.2,0.8,19.1,8.2L43.4,670.3L43.4,670.3z"/>
		</defs>
		<clipPath id="SVGID_00000158003284049202473620000016805183887584081294_">
			<use xlink:href="#SVGID_00000044164257478516693760000008837163499069468553_"  style="overflow:visible;"/>
		</clipPath>
		<g style="clip-path:url(#SVGID_00000158003284049202473620000016805183887584081294_);">
			<g>
				<g>
					<rect x="-18.2" y="264.8" class="st19" width="100.4" height="53.5"/>
				</g>
			</g>
		</g>
	</g>
	<g>
		<g>
			<g>
				<g>
					<rect x="5.4" y="318.1" class="st20" width="38" height="53.5"/>
				</g>
			</g>
		</g>
	</g>
	<g>
		<g>
			<g>
				<g>
					<rect x="6.2" y="371.6" class="st21" width="36.7" height="53.5"/>
				</g>
			</g>
		</g>
	</g>
</g>
<circle class="st22" cx="24.1" cy="26.6" r="19.8"/>
<path class="st23" d="M36.6,675.8H12.1c-3.4,0-6.2-2.8-6.2-6.2V56.1c0-3.4,2.8-6.2,6.2-6.2h24.5c3.4,0,6.2,2.8,6.2,6.2v613.5
	C42.8,673,40,675.8,36.6,675.8z"/>
<rect x="17.2" y="572.6" class="st24" width="14.4" height="12.5"/>
<text transform="matrix(1 0 0 1 21.0561 581.2285)" class="st1 st25 st26">1</text>
<rect x="18" y="258.4" class="st24" width="13.7" height="12.5"/>
<text transform="matrix(1 0 0 1 18.081 267.0179)" class="st1 st25 st26">30</text>
<rect x="16.5" y="204.9" class="st24" width="14.6" height="12.5"/>
<text transform="matrix(1 0 0 1 17.1246 213.5454)" class="st1 st25 st26">50</text>
<rect x="12.1" y="98.7" class="st24" width="21.2" height="10.4"/>
<text transform="matrix(1 0 0 1 12.6637 107.2778)" class="st27 st25 st26">100</text>
<line class="st28" x1="5.5" y1="578.4" x2="20.2" y2="578.4"/>
<line class="st28" x1="42.5" y1="578.4" x2="29.5" y2="578.4"/>
<line class="st28" x1="6.5" y1="264.6" x2="19.2" y2="264.6"/>
<line class="st28" x1="43.2" y1="264.6" x2="32" y2="264.6"/>
<line class="st28" x1="6.5" y1="211.2" x2="17.3" y2="211.2"/>
<line class="st28" x1="42.4" y1="211.2" x2="31.4" y2="211.2"/>
<line class="st28" x1="14" y1="103.9" x2="5.2" y2="103.9"/>
<line class="st28" x1="41.7" y1="104.1" x2="34.1" y2="104.1"/>
<rect x="20.4" y="526.3" class="st24" width="9.1" height="12.5"/>
<text transform="matrix(1 0 0 1 21.616 534.9247)" class="st1 st25 st26">2</text>
<line class="st28" x1="6.3" y1="531.8" x2="20.1" y2="531.8"/>
<line class="st28" x1="42.7" y1="531.8" x2="29.3" y2="531.8"/>
<rect x="20.2" y="472.8" class="st24" width="9.1" height="12.5"/>
<text transform="matrix(1 0 0 1 21.3697 481.4129)" class="st1 st25 st26">5</text>
<line class="st28" x1="6" y1="478.3" x2="19.9" y2="478.3"/>
<line class="st28" x1="42.4" y1="478.3" x2="29" y2="478.3"/>
<rect x="17.9" y="419.7" class="st24" width="13.7" height="12.5"/>
<text transform="matrix(1 0 0 1 18.0692 428.345)" class="st1 st25 st26">10</text>
<line class="st28" x1="6.3" y1="425.2" x2="17.9" y2="425.2"/>
<line class="st28" x1="42.7" y1="425.2" x2="32.2" y2="425.2"/>
<rect x="17.4" y="366.6" class="st24" width="14.8" height="12.5"/>
<text transform="matrix(1 0 0 1 18.0691 375.2505)" class="st1 st25 st26">15</text>
<line class="st28" x1="6.4" y1="371.9" x2="18.8" y2="371.9"/>
<line class="st28" x1="42.8" y1="371.9" x2="32.2" y2="371.9"/>
<rect x="17.6" y="312.8" class="st24" width="14.8" height="12.5"/>
<text transform="matrix(1 0 0 1 18.3106 321.4508)" class="st1 st25 st26">20</text>
<line class="st28" x1="6.6" y1="318.1" x2="19" y2="318.1"/>
<line class="st28" x1="43" y1="318.1" x2="32.4" y2="318.1"/>
<rect x="16.7" y="151.7" class="st24" width="14.6" height="12.5"/>
<text transform="matrix(1 0 0 1 17.3277 160.3376)" class="st27 st25 st26">75</text>
<line class="st28" x1="6.7" y1="158" x2="17.5" y2="158"/>
<line class="st28" x1="42.6" y1="158" x2="31.6" y2="158"/>
<rect x="11.1" y="663.3" class="st24" width="27.6" height="12.5"/>
<text transform="matrix(1 0 0 1 17.2532 671.9319)" class="st1 st25 st26">cm</text>
<g>
	<path class="st1" d="M29.6,24.4l3.5-2l5.6,1.5c0.5,0.2,0.8-0.2,1-0.5c0.2-0.5-0.2-0.8-0.5-1l-4-1.2l3-1.7c0.3-0.2,0.5-0.7,0.3-1.2
		c-0.2-0.3-0.7-0.5-1.2-0.3l-3,1.7l1.2-4c0.2-0.5-0.2-0.8-0.5-1c-0.5-0.2-0.8,0.2-1,0.5l-1.5,5.6l-3.5,2l-3.5-2v-4l4.1-4.1
		c0.3-0.3,0.3-0.8,0-1.2c-0.3-0.3-0.8-0.3-1.2,0l-3,3v-3.5c0-0.5-0.3-0.8-0.8-0.8S24,10.7,24,11.2v3.5l-3-3c-0.3-0.3-0.8-0.3-1.2,0
		c-0.3,0.3-0.3,0.8,0,1.2L24,17v4l-3.5,2l-3.5-2l-1.8-5.5c-0.2-0.5-0.5-0.7-1-0.5c-0.5,0.2-0.7,0.5-0.5,1l1.2,4l-3-1.7
		c-0.3-0.2-0.8-0.2-1.2,0.3c-0.2,0.3-0.2,0.8,0.3,1.2l3,1.7l-4,1.2c-0.5,0.2-0.7,0.5-0.5,1c0.2,0.5,0.5,0.7,1,0.5l5.6-1.5l3.5,2v4.1
		l-3.5,2l-5.6-1.5c-0.5-0.2-0.8,0.2-1,0.5c-0.2,0.5,0.2,0.8,0.5,1l4,1.2l-3,1.7c-0.3,0.2-0.5,0.7-0.3,1.2c0.2,0.3,0.7,0.5,1.2,0.3
		l3-1.7l-1.2,4c-0.2,0.5,0.2,0.8,0.5,1c0.5,0.2,0.8-0.2,1-0.5l1.5-5.6l3.5-2l3.5,2v4l-4.1,4.1c-0.3,0.3-0.3,0.8,0,1.2
		c0.3,0.3,0.8,0.3,1.2,0l3-3V42c0,0.5,0.3,0.8,0.8,0.8s0.8-0.3,0.8-0.8v-3.5l3,3c0.3,0.3,0.8,0.3,1.2,0c0.3-0.3,0.3-0.8,0-1.2
		l-4.1-4.1V32l3.5-2l3.5,2l1.5,5.6c0.2,0.5,0.5,0.7,1,0.5c0.5-0.2,0.7-0.5,0.5-1l-1.2-4l3,1.7c0.3,0.2,0.8,0.2,1.2-0.3
		c0.2-0.3,0.2-0.8-0.3-1.2l-3-1.7l4-1.2c0.5-0.2,0.7-0.5,0.5-1c-0.2-0.5-0.5-0.7-1-0.5l-5.3,1.5l-3.5-2V24.4z M28,28.6l-3.5,2
		l-3.5-2v-4.1l3.5-2l3.5,2V28.6z"/>
</g>
</svg>
