<?xml version="1.0" encoding="utf-8"?>
<!-- Generator: Adobe Illustrator 28.0.0, SVG Export Plug-In . SVG Version: 6.00 Build 0)  -->
<svg version="1.1" id="Livello_1" xmlns="http://www.w3.org/2000/svg" xmlns:xlink="http://www.w3.org/1999/xlink" x="0px" y="0px"
	 width="38px" height="644px" viewBox="0 0 37.2 644.1" style="enable-background:new 0 0 37.2 644.1;" xml:space="preserve">
<style type="text/css">
	.st0{fill:#39322E;}
	.st1{clip-path:url(#SVGID_00000047741167812261649670000011125119058706178704_);}
	.st2{fill:#DAA5E8;}
	.st3{fill:#C370E0;}
	.st4{fill:#BB56AA;}
	.st5{fill:#A32F94;}
	.st6{fill:#B037D4;}
	.st7{fill:#95037E;}
	.st8{fill:#6F258F;}
	.st9{fill:#63127C;}
	.st10{fill:#43194E;}
	.st11{fill:#906192;}
	.st12{fill:#FFFFFF;}
	.st13{fill:none;stroke:#3C3430;stroke-width:2.9317;stroke-miterlimit:9.7722;}
	.st14{fill:#3C3530;}
</style>
<g>
	<path class="st0" d="M13.7,633.9c-0.8-0.4-1.5-1-2-1.7s-0.7-1.6-0.7-2.6s0.2-1.8,0.7-2.6s1.2-1.3,2-1.7s1.8-0.7,2.9-0.7
		c0.8,0,1.6,0.1,2.3,0.4c0.7,0.3,1.3,0.7,1.7,1.2l-1.3,1.1c-0.7-0.8-1.6-1.2-2.8-1.2c-0.7,0-1.4,0.1-2,0.4c-0.6,0.3-1,0.7-1.3,1.2
		s-0.5,1.1-0.5,1.7s0.1,1.2,0.5,1.7c0.3,0.5,0.8,1,1.3,1.2c0.6,0.3,1.2,0.4,2,0.4c1,0,2-0.4,2.8-1.2l1.3,1.1c-0.5,0.5-1,1-1.7,1.2
		c-0.7,0.3-1.5,0.4-2.3,0.4C15.5,634.6,14.5,634.4,13.7,633.9z"/>
	<path class="st0" d="M23,628.9c-0.3-0.2-0.7-0.5-0.9-0.9c-0.2-0.3-0.3-0.8-0.3-1.2s0.1-0.9,0.3-1.2c0.2-0.3,0.6-0.7,0.9-0.9
		s0.8-0.3,1.3-0.3s0.9,0.1,1.3,0.3c0.3,0.2,0.7,0.5,0.9,0.9c0.2,0.3,0.3,0.8,0.3,1.2s-0.1,0.8-0.3,1.2c-0.2,0.3-0.6,0.7-0.9,0.9
		s-0.8,0.3-1.3,0.3S23.4,629.2,23,628.9z M25.3,628c0.2-0.2,0.5-0.7,0.5-1c0-0.4-0.1-0.8-0.5-1c-0.3-0.2-0.6-0.4-1-0.4
		s-0.8,0.1-1,0.4c-0.2,0.2-0.5,0.7-0.5,1c0,0.4,0.1,0.8,0.5,1c0.2,0.2,0.7,0.4,1,0.4C24.6,628.4,25.1,628.3,25.3,628z"/>
</g>
<circle class="st0" cx="18.6" cy="20.6" r="14.6"/>
<g>
	<defs>
		<path id="SVGID_1_" d="M31.3,632.9c-0.4,3.7-6.9,8.1-12.4,8.1l0,0c-5.5,0.4-13.1-3.6-13.1-8.1V49.3c1.2-5.4,7.8-8.5,12.3-8.4l0,0
			c5.2,0,11.9,3.2,13.3,8.7L31.3,632.9L31.3,632.9z"/>
	</defs>
	<clipPath id="SVGID_00000006702164162917624000000011042984765661834400_">
		<use xlink:href="#SVGID_1_"  style="overflow:visible;"/>
	</clipPath>
	<g style="clip-path:url(#SVGID_00000006702164162917624000000011042984765661834400_);">
		<g>
			<g>
				<rect x="-4.3" y="91.3" class="st2" width="47.2" height="52.5"/>
			</g>
		</g>
	</g>
	<g style="clip-path:url(#SVGID_00000006702164162917624000000011042984765661834400_);">
		<g>
			<g>
				<rect x="-4.3" y="143.8" class="st3" width="47.2" height="52.5"/>
			</g>
		</g>
	</g>
	<g style="clip-path:url(#SVGID_00000006702164162917624000000011042984765661834400_);">
		<g>
			<g>
				<rect x="-4.3" y="196.4" class="st4" width="47.2" height="52.5"/>
			</g>
		</g>
	</g>
	<g style="clip-path:url(#SVGID_00000006702164162917624000000011042984765661834400_);">
		<g>
			<g>
				<rect x="-4.3" y="249.1" class="st5" width="47.2" height="52.5"/>
			</g>
		</g>
	</g>
	<g style="clip-path:url(#SVGID_00000006702164162917624000000011042984765661834400_);">
		<g>
			<g>
				<rect x="-4.3" y="300.9" class="st6" width="47.2" height="52.5"/>
			</g>
		</g>
	</g>
	<g style="clip-path:url(#SVGID_00000006702164162917624000000011042984765661834400_);">
		<g>
			<g>
				<rect x="-4.3" y="353.6" class="st7" width="47.2" height="52.5"/>
			</g>
		</g>
	</g>
	<g style="clip-path:url(#SVGID_00000006702164162917624000000011042984765661834400_);">
		<g>
			<g>
				<rect x="-4.3" y="406.2" class="st8" width="47.2" height="52.5"/>
			</g>
		</g>
	</g>
	<g style="clip-path:url(#SVGID_00000006702164162917624000000011042984765661834400_);">
		<g>
			<g>
				<rect x="-4.3" y="458.7" class="st9" width="47.2" height="52.5"/>
			</g>
		</g>
	</g>
	<g style="clip-path:url(#SVGID_00000006702164162917624000000011042984765661834400_);">
		<g>
			<g>
				<rect x="-4.3" y="511.4" class="st10" width="47.2" height="52.5"/>
			</g>
		</g>
	</g>
	<g style="clip-path:url(#SVGID_00000006702164162917624000000011042984765661834400_);">
		<g>
			<g>
				<rect x="-4.3" y="563.9" class="st11" width="47.2" height="79.5"/>
			</g>
		</g>
	</g>
	<g style="clip-path:url(#SVGID_00000006702164162917624000000011042984765661834400_);">
		<g>
			<g>
				<rect x="-4.3" y="38.5" class="st12" width="47.2" height="52.5"/>
			</g>
		</g>
	</g>
</g>
<path class="st13" d="M30.4,632.9C30,636.6,24,641,18.9,641l0,0c-5.1,0.4-12.1-3.6-12.1-8.1V49.3c1.1-5.4,7.2-8.5,11.4-8.4l0,0
	c4.8,0,11,3.2,12.3,8.7L30.4,632.9L30.4,632.9z"/>
<g>
	<path class="st12" d="M11.2,633.8c-0.5-0.3-0.9-0.6-1.1-1.1c-0.3-0.5-0.4-1-0.4-1.5c0-0.6,0.1-1.1,0.4-1.5c0.3-0.4,0.7-0.8,1.1-1.1
		c0.5-0.3,1-0.4,1.7-0.4c0.6,0,1.1,0.1,1.5,0.3s0.8,0.6,1,1l-1.1,0.6c-0.2-0.3-0.4-0.5-0.6-0.6c-0.3-0.1-0.5-0.2-0.8-0.2
		c-0.5,0-1,0.2-1.3,0.5s-0.5,0.8-0.5,1.3c0,0.6,0.2,1,0.5,1.3s0.8,0.5,1.3,0.5c0.3,0,0.6-0.1,0.8-0.2c0.3-0.1,0.5-0.3,0.6-0.6
		l1.1,0.6c-0.2,0.4-0.6,0.8-1,1s-1,0.4-1.5,0.4C12.3,634.1,11.7,634,11.2,633.8z"/>
	<path class="st12" d="M25.9,628.8c0.4,0.4,0.7,1.1,0.7,1.9v3.3h-1.4v-3.1c0-0.5-0.1-0.9-0.3-1.1c-0.2-0.3-0.6-0.4-1-0.4
		c-0.5,0-0.8,0.1-1.1,0.4c-0.3,0.3-0.4,0.7-0.4,1.3v2.9H21v-3.1c0-0.5-0.1-0.9-0.3-1.1c-0.2-0.3-0.6-0.4-1-0.4
		c-0.5,0-0.9,0.1-1.1,0.4c-0.3,0.3-0.4,0.7-0.4,1.3v2.9h-1.4v-5.8h1.3v0.7c0.2-0.3,0.5-0.5,0.8-0.6s0.7-0.2,1.1-0.2s0.8,0.1,1.2,0.2
		c0.3,0.2,0.6,0.4,0.8,0.7c0.2-0.3,0.6-0.5,1-0.7s0.8-0.3,1.3-0.3C24.9,628.2,25.5,628.4,25.9,628.8z"/>
</g>
<g>
	<path class="st12" d="M20.5,534.6v7h-1.3v-5.9h-1.5v-1.1H20.5z"/>
</g>
<g>
	<path class="st12" d="M21.3,487v1.1h-5.2v-0.9l2.8-2.6c0.3-0.3,0.5-0.6,0.6-0.8s0.2-0.4,0.2-0.7s-0.1-0.6-0.3-0.8
		c-0.2-0.2-0.5-0.3-1-0.3c-0.7,0-1.3,0.2-1.6,0.7l-0.9-0.7c0.3-0.4,0.6-0.7,1.1-0.9s1-0.3,1.6-0.3c0.8,0,1.4,0.2,1.8,0.5
		c0.5,0.4,0.7,0.9,0.7,1.5c0,0.4-0.1,0.7-0.2,1.1c-0.2,0.3-0.5,0.7-0.9,1.1l-1.9,1.8h3.2C21.4,486.8,21.4,487,21.3,487z"/>
</g>
<g>
	<path class="st12" d="M20.9,429.6c0.5,0.4,0.7,0.9,0.7,1.6c0,0.4-0.1,0.8-0.3,1.1c-0.2,0.3-0.5,0.6-0.9,0.8
		c-0.4,0.2-0.9,0.3-1.5,0.3c-0.5,0-1-0.1-1.5-0.2s-0.9-0.3-1.2-0.6l0.5-1c0.3,0.2,0.6,0.4,0.9,0.5c0.4,0.1,0.7,0.2,1.1,0.2
		c0.5,0,0.8-0.1,1.1-0.3c0.3-0.2,0.4-0.5,0.4-0.8c0-0.4-0.1-0.6-0.4-0.8s-0.8-0.3-1.5-0.3h-1.7l0.4-3.8h4.2v1.1h-3L18,429h0.7
		C19.7,429,20.4,429.2,20.9,429.6z"/>
</g>
<g>
	<path class="st14" d="M18.6,114.2v0.9l-2.7,6.1h-1.4l2.6-5.9h-2.8v1.2h-1.2v-2.3L18.6,114.2L18.6,114.2z"/>
	<path class="st14" d="M23.4,117.5c0.5,0.4,0.7,0.9,0.7,1.6c0,0.4-0.1,0.8-0.3,1.1c-0.2,0.3-0.5,0.6-0.9,0.8
		c-0.4,0.2-0.9,0.3-1.5,0.3c-0.5,0-1-0.1-1.5-0.2s-0.9-0.3-1.2-0.6l0.5-1c0.3,0.2,0.6,0.4,0.9,0.5c0.4,0.1,0.7,0.2,1.1,0.2
		c0.5,0,0.8-0.1,1.1-0.3c0.3-0.2,0.4-0.5,0.4-0.8c0-0.4-0.1-0.6-0.4-0.8s-0.8-0.3-1.5-0.3h-1.7l0.4-3.8h4.2v1.1h-3l-0.2,1.6h0.7
		C22.2,116.9,23,117.1,23.4,117.5z"/>
</g>
<g>
	<path class="st12" d="M15.9,377.2v7h-1.3v-5.9h-1.5v-1.1H15.9z"/>
	<path class="st12" d="M18.7,383.9c-0.4-0.3-0.8-0.7-1-1.2c-0.3-0.5-0.4-1.2-0.4-1.9s0.1-1.4,0.4-1.9s0.6-1,1-1.2
		c0.4-0.3,0.9-0.4,1.5-0.4s1.1,0.1,1.5,0.4s0.8,0.7,1,1.2c0.3,0.5,0.4,1.2,0.4,1.9s-0.1,1.4-0.4,1.9s-0.6,1-1,1.2
		c-0.4,0.3-0.9,0.4-1.5,0.4C19.7,384.3,19.2,384.2,18.7,383.9z M21.4,382.6c0.3-0.4,0.4-1,0.4-1.9s-0.1-1.4-0.4-1.9
		c-0.3-0.4-0.7-0.6-1.2-0.6s-0.9,0.2-1.2,0.6c-0.3,0.4-0.4,1-0.4,1.9s0.1,1.4,0.4,1.9s0.7,0.6,1.2,0.6
		C20.7,383.2,21.1,383,21.4,382.6z"/>
	<path class="st12" d="M17.1,594.5c-0.4-0.3-0.8-0.7-1-1.2c-0.3-0.5-0.4-1.2-0.4-1.9c0-0.7,0.1-1.4,0.4-1.9s0.6-1,1-1.2
		c0.4-0.3,0.9-0.4,1.5-0.4s1.1,0.1,1.5,0.4s0.8,0.7,1,1.2c0.3,0.5,0.4,1.2,0.4,1.9c0,0.7-0.1,1.4-0.4,1.9s-0.6,1-1,1.2
		c-0.4,0.3-0.9,0.4-1.5,0.4C18.1,594.9,17.6,594.8,17.1,594.5z M19.8,593.2c0.3-0.4,0.4-1,0.4-1.9c0-0.9-0.1-1.4-0.4-1.9
		c-0.3-0.4-0.7-0.6-1.2-0.6s-0.9,0.2-1.2,0.6c-0.3,0.4-0.4,1-0.4,1.9c0,0.9,0.1,1.4,0.4,1.9s0.7,0.6,1.2,0.6
		C19.1,593.8,19.5,593.6,19.8,593.2z"/>
</g>
<g>
	<path class="st12" d="M16.6,325v7h-1.3v-5.9h-1.5V325H16.6z"/>
	<path class="st12" d="M22.5,328.2c0.5,0.4,0.7,0.9,0.7,1.6c0,0.4-0.1,0.8-0.3,1.1c-0.2,0.3-0.5,0.6-0.9,0.8
		c-0.4,0.2-0.9,0.3-1.5,0.3c-0.5,0-1-0.1-1.5-0.2s-0.9-0.3-1.2-0.6l0.5-1c0.3,0.2,0.6,0.4,0.9,0.5s0.7,0.2,1.1,0.2
		c0.5,0,0.8-0.1,1.1-0.3c0.3-0.2,0.4-0.5,0.4-0.8c0-0.4-0.1-0.6-0.4-0.8c-0.3-0.2-0.8-0.3-1.5-0.3h-1.7l0.4-3.8h4.2v1.1h-3l-0.2,1.6
		h0.7C21.3,327.7,22,327.9,22.5,328.2z"/>
</g>
<g>
	<path class="st12" d="M18,278.6v1.1h-5.2v-0.9l2.8-2.6c0.3-0.3,0.5-0.6,0.6-0.8c0.1-0.2,0.2-0.4,0.2-0.7s-0.1-0.6-0.3-0.8
		c-0.2-0.2-0.5-0.3-1-0.3c-0.7,0-1.3,0.2-1.6,0.7l-0.9-0.7c0.3-0.4,0.6-0.7,1.1-0.9s1-0.3,1.6-0.3c0.8,0,1.4,0.2,1.8,0.5
		c0.5,0.4,0.7,0.9,0.7,1.5c0,0.4-0.1,0.7-0.2,1.1s-0.5,0.7-0.9,1.1l-1.9,1.8h3.2C18.1,278.4,18.1,278.6,18,278.6z"/>
	<path class="st12" d="M20.2,279.4c-0.4-0.3-0.8-0.7-1-1.2c-0.3-0.5-0.4-1.2-0.4-1.9s0.1-1.4,0.4-1.9s0.6-1,1-1.2
		c0.4-0.3,0.9-0.4,1.5-0.4s1.1,0.1,1.5,0.4s0.8,0.7,1,1.2c0.3,0.5,0.4,1.2,0.4,1.9s-0.1,1.4-0.4,1.9s-0.6,1-1,1.2
		c-0.4,0.3-0.9,0.4-1.5,0.4S20.6,279.7,20.2,279.4z M22.8,278c0.3-0.4,0.4-1,0.4-1.9s-0.1-1.4-0.4-1.9c-0.3-0.4-0.7-0.6-1.2-0.6
		s-0.9,0.2-1.2,0.6c-0.3,0.4-0.4,1-0.4,1.9s0.1,1.4,0.4,1.9s0.7,0.6,1.2,0.6C22.2,278.7,22.6,278.5,22.8,278z"/>
</g>
<g>
	<path class="st12" d="M17.5,226.2c0.3,0.4,0.5,0.8,0.5,1.4c0,0.4-0.1,0.8-0.3,1.1c-0.2,0.3-0.5,0.6-0.9,0.8s-0.9,0.3-1.5,0.3
		c-0.5,0-1-0.1-1.4-0.2c-0.5-0.1-0.9-0.3-1.2-0.6l0.6-1c0.3,0.2,0.6,0.4,0.9,0.5c0.4,0.1,0.7,0.2,1.1,0.2c0.5,0,0.8-0.1,1.1-0.3
		s0.4-0.4,0.4-0.8s-0.1-0.6-0.4-0.8c-0.2-0.2-0.6-0.3-1.1-0.3h-0.6v-0.9l1.6-1.9h-3.2v-1.1h4.8v0.9l-1.7,2
		C16.7,225.7,17.2,225.9,17.5,226.2z"/>
	<path class="st12" d="M20.3,229.4c-0.4-0.3-0.8-0.7-1-1.2c-0.3-0.5-0.4-1.2-0.4-1.9s0.1-1.4,0.4-1.9s0.6-1,1-1.2
		c0.4-0.3,0.9-0.4,1.5-0.4s1.1,0.1,1.5,0.4c0.4,0.3,0.8,0.7,1,1.2c0.3,0.5,0.4,1.2,0.4,1.9s-0.1,1.4-0.4,1.9s-0.6,1-1,1.2
		c-0.4,0.3-0.9,0.4-1.5,0.4C21.3,229.8,20.8,229.6,20.3,229.4z M23,228c0.3-0.4,0.4-1,0.4-1.9s-0.1-1.4-0.4-1.9
		c-0.3-0.4-0.7-0.6-1.2-0.6s-0.9,0.2-1.2,0.6c-0.3,0.4-0.4,1-0.4,1.9s0.1,1.4,0.4,1.9s0.7,0.6,1.2,0.6C22.3,228.7,22.7,228.4,23,228
		z"/>
</g>
<g>
	<path class="st12" d="M17.1,169.9c0.5,0.4,0.7,0.9,0.7,1.6c0,0.4-0.1,0.8-0.3,1.1c-0.2,0.3-0.5,0.6-0.9,0.8s-0.9,0.3-1.5,0.3
		c-0.5,0-1-0.1-1.5-0.2c-0.5-0.1-0.9-0.3-1.2-0.6l0.5-1c0.3,0.2,0.6,0.4,0.9,0.5c0.4,0.1,0.7,0.2,1.1,0.2c0.5,0,0.8-0.1,1.1-0.3
		s0.4-0.5,0.4-0.8c0-0.4-0.1-0.6-0.4-0.8s-0.8-0.3-1.5-0.3h-1.7l0.4-3.8h4.1v1.1h-3l-0.2,1.6h0.7C15.8,169.3,16.6,169.5,17.1,169.9z
		"/>
	<path class="st12" d="M20,173.3c-0.4-0.3-0.8-0.7-1-1.2c-0.3-0.5-0.4-1.2-0.4-1.9s0.1-1.4,0.4-1.9s0.6-1,1-1.2
		c0.4-0.3,0.9-0.4,1.5-0.4s1.1,0.1,1.5,0.4s0.8,0.7,1,1.2c0.3,0.5,0.4,1.2,0.4,1.9s-0.1,1.4-0.4,1.9s-0.6,1-1,1.2
		c-0.4,0.3-0.9,0.4-1.5,0.4C21,173.7,20.5,173.5,20,173.3z M22.6,171.9c0.3-0.4,0.4-1,0.4-1.9s-0.1-1.4-0.4-1.9
		c-0.3-0.4-0.7-0.6-1.2-0.6s-0.9,0.2-1.2,0.6c-0.3,0.4-0.4,1-0.4,1.9s0.1,1.4,0.4,1.9s0.7,0.6,1.2,0.6
		C22,172.5,22.4,172.3,22.6,171.9z"/>
</g>
<g>
	<path class="st12" d="M21.9,19.4l2.1-1.2l3.4,0.9c0.3,0.1,0.5-0.1,0.6-0.3c0.1-0.3-0.1-0.5-0.3-0.6l-2.4-0.7l1.8-1
		c0.2-0.1,0.3-0.4,0.2-0.7c-0.1-0.2-0.4-0.3-0.7-0.2l-1.8,1l0.7-2.4c0.1-0.3-0.1-0.5-0.3-0.6c-0.3-0.1-0.5,0.1-0.6,0.3l-0.9,3.4
		l-2.1,1.2l-2.1-1.2v-2.4l2.5-2.5c0.2-0.2,0.2-0.5,0-0.7s-0.5-0.2-0.7,0l-1.8,1.8v-2.1c0-0.3-0.2-0.5-0.5-0.5s-0.5,0.2-0.5,0.5v2.1
		l-1.8-1.8c-0.2-0.2-0.5-0.2-0.7,0c-0.2,0.2-0.2,0.5,0,0.7l2.5,2.5v2.4l-2.1,1.2l-2.1-1.2L13.2,14c-0.1-0.3-0.3-0.4-0.6-0.3
		c-0.3,0.1-0.4,0.3-0.3,0.6l0.7,2.4l-1.8-1c-0.2-0.1-0.5-0.1-0.7,0.2c-0.1,0.2-0.1,0.5,0.2,0.7l1.8,1l-2.4,0.7
		c-0.3,0.1-0.4,0.3-0.3,0.6c0.1,0.3,0.3,0.4,0.6,0.3l3.4-0.9l2.1,1.2V22l-2.1,1.2l-3.4-0.9c-0.3-0.1-0.5,0.1-0.6,0.3
		c-0.1,0.3,0.1,0.5,0.3,0.6l2.4,0.7l-1.8,1c-0.2,0.1-0.3,0.4-0.2,0.7c0.1,0.2,0.4,0.3,0.7,0.2l1.8-1l-0.7,2.4
		c-0.1,0.3,0.1,0.5,0.3,0.6c0.3,0.1,0.5-0.1,0.6-0.3l0.9-3.4l2.1-1.2l2.1,1.2v2.4L15.8,29c-0.2,0.2-0.2,0.5,0,0.7s0.5,0.2,0.7,0
		l1.8-1.8V30c0,0.3,0.2,0.5,0.5,0.5s0.5-0.2,0.5-0.5v-2.1l1.8,1.8c0.2,0.2,0.5,0.2,0.7,0s0.2-0.5,0-0.7l-2.5-2.5V24l2.1-1.2l2.1,1.2
		l0.9,3.4c0.1,0.3,0.3,0.4,0.6,0.3c0.3-0.1,0.4-0.3,0.3-0.6l-0.7-2.4l1.8,1c0.2,0.1,0.5,0.1,0.7-0.2c0.1-0.2,0.1-0.5-0.2-0.7l-1.8-1
		l2.4-0.7c0.3-0.1,0.4-0.3,0.3-0.6c-0.1-0.3-0.3-0.4-0.6-0.3L24,23.1l-2.1-1.2V19.4z M20.9,21.9l-2.1,1.2l-2.1-1.2v-2.5l2.1-1.2
		l2.1,1.2V21.9z"/>
</g>
<g>
	<g>
		<path class="st14" d="M22.5,73.4c-0.4-0.3-0.8-0.7-1-1.2c-0.3-0.5-0.4-1.2-0.4-1.9c0-0.7,0.1-1.4,0.4-1.9s0.6-1,1-1.2
			c0.4-0.3,0.9-0.4,1.5-0.4s1.1,0.1,1.5,0.4s0.8,0.7,1,1.2c0.3,0.5,0.4,1.2,0.4,1.9c0,0.7-0.1,1.4-0.4,1.9s-0.6,1-1,1.2
			c-0.4,0.3-0.9,0.4-1.5,0.4S22.9,73.7,22.5,73.4z M25.2,72c0.3-0.4,0.4-1,0.4-1.9s-0.1-1.4-0.4-1.9c-0.3-0.4-0.7-0.6-1.2-0.6
			s-0.9,0.2-1.2,0.6c-0.3,0.4-0.4,1-0.4,1.9s0.1,1.4,0.4,1.9s0.7,0.6,1.2,0.6C24.5,72.7,24.9,72.5,25.2,72z"/>
	</g>
	<g>
		<path class="st14" d="M16,73.4c-0.4-0.3-0.8-0.7-1-1.2c-0.3-0.5-0.4-1.2-0.4-1.9c0-0.7,0.1-1.4,0.4-1.9s0.6-1,1-1.2
			c0.4-0.3,0.9-0.4,1.5-0.4s1.1,0.1,1.5,0.4s0.8,0.7,1,1.2c0.3,0.5,0.4,1.2,0.4,1.9c0,0.7-0.1,1.4-0.4,1.9s-0.6,1-1,1.2
			c-0.4,0.3-0.9,0.4-1.5,0.4S16.4,73.7,16,73.4z M18.7,72c0.3-0.4,0.4-1,0.4-1.9s-0.1-1.4-0.4-1.9c-0.3-0.4-0.7-0.6-1.2-0.6
			s-0.9,0.2-1.2,0.6c-0.3,0.4-0.4,1-0.4,1.9s0.1,1.4,0.4,1.9s0.7,0.6,1.2,0.6C18,72.7,18.4,72.5,18.7,72z"/>
	</g>
	<g>
		<path class="st14" d="M12.7,66.8v7h-1.3v-5.9H9.9v-1.1H12.7z"/>
	</g>
</g>
</svg>
