<?xml version="1.0" encoding="utf-8"?>
<!-- Generator: Adobe Illustrator 28.0.0, SVG Export Plug-In . SVG Version: 6.00 Build 0)  -->
<svg version="1.1" id="Livello_1" xmlns="http://www.w3.org/2000/svg" xmlns:xlink="http://www.w3.org/1999/xlink" x="0px" y="0px"
	  width="50px" height="677px" viewBox="0 0 48.7 677.2" style="enable-background:new 0 0 48.7 677.2;" xml:space="preserve">
<style type="text/css">
	.st0{clip-path:url(#SVGID_00000100371775053261698400000012498565258749309586_);fill:#F7F8F8;}
	.st1{clip-path:url(#SVGID_00000052824910293898738500000000050283943258247298_);fill:#FBFBFA;}
	.st2{clip-path:url(#SVGID_00000163060890427935271650000009962662072823097231_);fill:#F5F6F3;}
	.st3{clip-path:url(#SVGID_00000020374717169078503230000017707380270129514370_);fill:#FEFEFE;}
	.st4{clip-path:url(#SVGID_00000089553890501795784850000010370240329957881745_);fill:#ECEFE9;}
	.st5{clip-path:url(#SVGID_00000132799206080045143440000010575935313648185736_);fill:#CBDED1;}
	.st6{clip-path:url(#SVGID_00000102505253090067979800000009554635556453142671_);fill:#B3D0C7;}
	.st7{clip-path:url(#SVGID_00000139986735140918007890000004215256934655870617_);fill:#9BC4C7;}
	.st8{clip-path:url(#SVGID_00000105418427052134877500000011899563982178285247_);fill:#82A1BA;}
	.st9{clip-path:url(#SVGID_00000104695517072180395870000001369163082284111523_);fill:#DDE7DC;}
	.st10{fill:#39322E;}
	.st11{fill:none;}
	.st12{fill:none;stroke:#3C3430;stroke-width:2;stroke-miterlimit:9.7722;}
	.st13{fill:#3C3530;stroke:#39322E;stroke-width:0.5;stroke-miterlimit:10;}
	.st14{fill:#3C3430;stroke:#39322E;stroke-width:0.5;stroke-miterlimit:10;}
	.st15{fill:none;stroke:#3C3430;stroke-miterlimit:9.7722;}
	.st16{fill:#3B3330;stroke:#39322E;stroke-width:0.5;stroke-miterlimit:10;}
	.st17{fill:#FFFFFF;}
	.st18{fill:#FFFFFF;stroke:#FFFFFF;stroke-width:0.4886;stroke-miterlimit:9.7722;}
	.st19{fill:none;stroke:#FFFFFF;stroke-width:0.9772;stroke-miterlimit:9.7722;}
</style>
<g>
	<g>
		<g>
			<g>
				<g>
					<g>
						<g>
							<defs>
								<path id="SVGID_1_" d="M43.7,668.6c-0.5,3.9-10.1,8.5-18.5,8.5l0,0c-8.3,0.4-19.5-3.7-19.5-8.5V55.8C7.4,50.2,17.1,47,24,47
									l0,0c7.7,0,17.7,3.4,19.8,9.1L43.7,668.6L43.7,668.6z"/>
							</defs>
							<clipPath id="SVGID_00000168118537533928804540000013508078689892067981_">
								<use xlink:href="#SVGID_1_"  style="overflow:visible;"/>
							</clipPath>
							
								<rect x="-3.5" y="617.8" style="clip-path:url(#SVGID_00000168118537533928804540000013508078689892067981_);fill:#F7F8F8;" width="56.4" height="66.3"/>
						</g>
					</g>
				</g>
			</g>
		</g>
		<g>
			<g>
				<g>
					<g>
						<g>
							<defs>
								<path id="SVGID_00000123412933324698729150000017289361874872018089_" d="M43.7,668.6c-0.5,3.9-10.1,8.5-18.5,8.5l0,0
									c-8.3,0.4-19.5-3.7-19.5-8.5V55.8C7.4,50.2,17.1,47,24,47l0,0c7.7,0,17.7,3.4,19.8,9.1L43.7,668.6L43.7,668.6z"/>
							</defs>
							<clipPath id="SVGID_00000083793035949720549690000011853289866918691210_">
								<use xlink:href="#SVGID_00000123412933324698729150000017289361874872018089_"  style="overflow:visible;"/>
							</clipPath>
							
								<rect x="-3" y="497.3" style="clip-path:url(#SVGID_00000083793035949720549690000011853289866918691210_);fill:#FBFBFA;" width="56.4" height="60.2"/>
						</g>
					</g>
				</g>
			</g>
		</g>
		<g>
			<g>
				<g>
					<g>
						<g>
							<defs>
								<path id="SVGID_00000018916537487914314130000008233706144945774265_" d="M43.7,668.6c-0.5,3.9-10.1,8.5-18.5,8.5l0,0
									c-8.3,0.4-19.5-3.7-19.5-8.5V55.8C7.4,50.2,17.1,47,24,47l0,0c7.7,0,17.7,3.4,19.8,9.1L43.7,668.6L43.7,668.6z"/>
							</defs>
							<clipPath id="SVGID_00000059292211102486592670000001190223424191953799_">
								<use xlink:href="#SVGID_00000018916537487914314130000008233706144945774265_"  style="overflow:visible;"/>
							</clipPath>
							
								<rect x="-3" y="437.1" style="clip-path:url(#SVGID_00000059292211102486592670000001190223424191953799_);fill:#F5F6F3;" width="56.4" height="60.2"/>
						</g>
					</g>
				</g>
			</g>
		</g>
		<g>
			<g>
				<g>
					<g>
						<g>
							<defs>
								<path id="SVGID_00000039855353220388698120000008228417963692640923_" d="M43.7,668.6c-0.5,3.9-10.1,8.5-18.5,8.5l0,0
									c-8.3,0.4-19.5-3.7-19.5-8.5V55.8C7.4,50.2,17.1,47,24,47l0,0c7.7,0,17.7,3.4,19.8,9.1L43.7,668.6L43.7,668.6z"/>
							</defs>
							<clipPath id="SVGID_00000111883192621367434980000010342450751814301110_">
								<use xlink:href="#SVGID_00000039855353220388698120000008228417963692640923_"  style="overflow:visible;"/>
							</clipPath>
							
								<rect x="-3.5" y="557.6" style="clip-path:url(#SVGID_00000111883192621367434980000010342450751814301110_);fill:#FEFEFE;" width="56.4" height="60.2"/>
						</g>
					</g>
				</g>
			</g>
		</g>
		<g>
			<g>
				<g>
					<g>
						<g>
							<defs>
								<path id="SVGID_00000044176293314214060820000001571805532636343433_" d="M43.7,668.6c-0.5,3.9-10.1,8.5-18.5,8.5l0,0
									c-8.3,0.4-19.5-3.7-19.5-8.5V55.8C7.4,50.2,17.1,47,24,47l0,0c7.7,0,17.7,3.4,19.8,9.1L43.7,668.6L43.7,668.6z"/>
							</defs>
							<clipPath id="SVGID_00000021824223803768565540000009822280343015558572_">
								<use xlink:href="#SVGID_00000044176293314214060820000001571805532636343433_"  style="overflow:visible;"/>
							</clipPath>
							
								<rect x="-3" y="376.9" style="clip-path:url(#SVGID_00000021824223803768565540000009822280343015558572_);fill:#ECEFE9;" width="56.4" height="60.2"/>
						</g>
					</g>
				</g>
			</g>
		</g>
		<g>
			<g>
				<g>
					<g>
						<g>
							<defs>
								<path id="SVGID_00000063604146989601593900000000780794616650568858_" d="M43.7,668.6c-0.5,3.9-10.1,8.5-18.5,8.5l0,0
									c-8.3,0.4-19.5-3.7-19.5-8.5V55.8C7.4,50.2,17.1,47,24,47l0,0c7.7,0,17.7,3.4,19.8,9.1L43.7,668.6L43.7,668.6z"/>
							</defs>
							<clipPath id="SVGID_00000144317186461210093160000002681578166387335357_">
								<use xlink:href="#SVGID_00000063604146989601593900000000780794616650568858_"  style="overflow:visible;"/>
							</clipPath>
							
								<rect x="-3.3" y="244.5" style="clip-path:url(#SVGID_00000144317186461210093160000002681578166387335357_);fill:#CBDED1;" width="56.4" height="66.3"/>
						</g>
					</g>
				</g>
			</g>
			<g>
				<g>
					<g>
						<g>
							<defs>
								<path id="SVGID_00000036942535296740322740000017466039277851720587_" d="M43.7,668.6c-0.5,3.9-10.1,8.5-18.5,8.5l0,0
									c-8.3,0.4-19.5-3.7-19.5-8.5V55.8C7.4,50.2,17.1,47,24,47l0,0c7.7,0,17.7,3.4,19.8,9.1L43.7,668.6L43.7,668.6z"/>
							</defs>
							<clipPath id="SVGID_00000063625931728781911740000017950785722014410152_">
								<use xlink:href="#SVGID_00000036942535296740322740000017466039277851720587_"  style="overflow:visible;"/>
							</clipPath>
							
								<rect x="-3.3" y="178.7" style="clip-path:url(#SVGID_00000063625931728781911740000017950785722014410152_);fill:#B3D0C7;" width="56.4" height="66.3"/>
						</g>
					</g>
				</g>
			</g>
			<g>
				<g>
					<g>
						<g>
							<defs>
								<path id="SVGID_00000150804299673755522270000001820249937025446569_" d="M43.7,668.6c-0.5,3.9-10.1,8.5-18.5,8.5l0,0
									c-8.3,0.4-19.5-3.7-19.5-8.5V55.8C7.4,50.2,17.1,47,24,47l0,0c7.7,0,17.7,3.4,19.8,9.1L43.7,668.6L43.7,668.6z"/>
							</defs>
							<clipPath id="SVGID_00000150819550346232003990000000046086120472682678_">
								<use xlink:href="#SVGID_00000150804299673755522270000001820249937025446569_"  style="overflow:visible;"/>
							</clipPath>
							
								<rect x="-3.3" y="113.1" style="clip-path:url(#SVGID_00000150819550346232003990000000046086120472682678_);fill:#9BC4C7;" width="56.4" height="66.3"/>
						</g>
					</g>
				</g>
			</g>
			<g>
				<g>
					<g>
						<g>
							<defs>
								<path id="SVGID_00000105402233636494138340000012924336594978668429_" d="M43.7,668.6c-0.5,3.9-10.1,8.5-18.5,8.5l0,0
									c-8.3,0.4-19.5-3.7-19.5-8.5V55.8C7.4,50.2,17.1,47,24,47l0,0c7.7,0,17.7,3.4,19.8,9.1L43.7,668.6L43.7,668.6z"/>
							</defs>
							<clipPath id="SVGID_00000007397890707091195340000017401910255486377116_">
								<use xlink:href="#SVGID_00000105402233636494138340000012924336594978668429_"  style="overflow:visible;"/>
							</clipPath>
							<polygon style="clip-path:url(#SVGID_00000007397890707091195340000017401910255486377116_);fill:#82A1BA;" points="
								-3.6,50.1 52.8,50.1 53.1,113.5 -3.3,113.5 							"/>
						</g>
					</g>
				</g>
			</g>
			<g>
				<g>
					<g>
						<g>
							<defs>
								<path id="SVGID_00000067232697989942054280000006136408365660813243_" d="M43.7,668.6c-0.5,3.9-10.1,8.5-18.5,8.5l0,0
									c-8.3,0.4-19.5-3.7-19.5-8.5V55.8c1.8-5.6,12.2-5.9,19.1-5.9h-1c7.7,0,18,0.4,20.1,6.2L43.7,668.6L43.7,668.6z"/>
							</defs>
							<clipPath id="SVGID_00000156572922827022118440000008500238789769327277_">
								<use xlink:href="#SVGID_00000067232697989942054280000006136408365660813243_"  style="overflow:visible;"/>
							</clipPath>
							
								<rect x="-3.5" y="310.6" style="clip-path:url(#SVGID_00000156572922827022118440000008500238789769327277_);fill:#DDE7DC;" width="56.4" height="66.3"/>
						</g>
					</g>
				</g>
			</g>
		</g>
	</g>
</g>
<circle class="st10" cx="24.1" cy="26.6" r="19.8"/>
<rect x="11.1" y="632" class="st11" width="15.4" height="11.8"/>
<path class="st12" d="M36.6,675.8H12.1c-3.4,0-6.2-2.8-6.2-6.2V56.1c0-3.4,2.8-6.2,6.2-6.2h24.5c3.4,0,6.2,2.8,6.2,6.2v613.5
	C42.8,673,40,675.8,36.6,675.8z"/>
<g>
	<path class="st13" d="M18.9,52.8v7.9H18v-6.9l-2,1.3l-0.4-0.7l2.5-1.7h0.8V52.8z"/>
	<path class="st13" d="M24.3,52.7c0.7,0,1.2,0.1,1.6,0.4c0.9,0.5,1.3,1.8,1.3,3.8c0,1.4-0.2,2.5-0.7,3.1s-1.2,0.9-2.2,0.9
		s-1.7-0.3-2.2-0.9c-0.5-0.6-0.7-1.6-0.7-3.1s0.2-2.6,0.7-3.2C22.6,53,23.4,52.7,24.3,52.7z M24.3,53.5c-0.5,0-0.8,0.1-1.1,0.3
		c-0.6,0.4-0.9,1.4-0.9,3.1c0,1.2,0.2,2,0.5,2.5s0.8,0.7,1.5,0.7s1.2-0.2,1.5-0.7s0.5-1.3,0.5-2.5s-0.2-2.1-0.5-2.6
		S25,53.5,24.3,53.5z"/>
	<path class="st13" d="M31,52.7c0.7,0,1.2,0.1,1.6,0.4c0.9,0.5,1.3,1.8,1.3,3.8c0,1.4-0.2,2.5-0.7,3.1S32,60.9,31,60.9
		s-1.7-0.3-2.2-0.9c-0.5-0.6-0.7-1.6-0.7-3.1s0.2-2.6,0.7-3.2C29.3,53,30.1,52.7,31,52.7z M31,53.5c-0.5,0-0.8,0.1-1.1,0.3
		c-0.6,0.4-0.9,1.4-0.9,3.1c0,1.2,0.2,2,0.5,2.5s0.8,0.7,1.5,0.7s1.2-0.2,1.5-0.7s0.5-1.3,0.5-2.5s-0.2-2.1-0.5-2.6
		S31.7,53.5,31,53.5z"/>
</g>
<g>
	<path class="st14" d="M19.1,241v-0.8H24v1.2l-3,6.8l-0.9-0.3l3-6.6V241H19.1z"/>
	<path class="st14" d="M28.3,240.1c0.7,0,1.2,0.1,1.6,0.4c0.9,0.5,1.3,1.8,1.3,3.8c0,1.4-0.2,2.5-0.7,3.1s-1.2,0.9-2.2,0.9
		s-1.7-0.3-2.2-0.9c-0.5-0.6-0.7-1.6-0.7-3.1s0.2-2.6,0.7-3.2C26.6,240.4,27.3,240.1,28.3,240.1z M28.3,240.9
		c-0.5,0-0.8,0.1-1.1,0.3c-0.6,0.4-0.9,1.4-0.9,3.1c0,1.2,0.2,2,0.5,2.5s0.8,0.7,1.5,0.7s1.2-0.2,1.5-0.7s0.5-1.3,0.5-2.5
		s-0.2-2.1-0.5-2.6S29,240.9,28.3,240.9z"/>
</g>
<line class="st15" x1="6.5" y1="244.8" x2="18.9" y2="244.8"/>
<line class="st15" x1="42.9" y1="244.8" x2="32.3" y2="244.8"/>
<g>
	<path class="st14" d="M20.8,116.6c1.4,0,2.2-0.8,2.2-2.4c-0.8,0.3-1.5,0.4-2.1,0.4c-1.7,0-2.6-0.7-2.6-2.1c0-0.7,0.2-1.3,0.7-1.7
		s1.2-0.6,2-0.6c1,0,1.7,0.3,2.2,1c0.5,0.6,0.7,1.6,0.7,2.8c0,1.2-0.3,2.1-0.8,2.7c-0.5,0.5-1.3,0.8-2.3,0.8c-0.6,0-1.2-0.1-1.9-0.1
		h-0.3l0.1-0.7C19.5,116.6,20.2,116.6,20.8,116.6z M21,113.9c0.5,0,1.1-0.1,1.7-0.3l0.3-0.1c0-1.8-0.7-2.6-1.9-2.6
		c-0.6,0-1,0.1-1.3,0.4s-0.5,0.7-0.5,1.2C19.3,113.4,19.9,113.9,21,113.9z"/>
	<path class="st14" d="M27.9,110.1c0.7,0,1.2,0.1,1.6,0.3c0.9,0.5,1.3,1.6,1.3,3.4c0,1.3-0.2,2.2-0.7,2.7s-1.2,0.8-2.2,0.8
		s-1.7-0.3-2.2-0.8s-0.7-1.4-0.7-2.8c0-1.3,0.2-2.3,0.7-2.8C26.3,110.4,27,110.1,27.9,110.1z M28,110.9c-0.5,0-0.8,0.1-1.1,0.3
		c-0.6,0.3-0.9,1.3-0.9,2.8c0,1,0.2,1.8,0.5,2.2c0.3,0.4,0.8,0.6,1.5,0.6s1.2-0.2,1.5-0.6S30,115,30,114c0-1.1-0.2-1.9-0.5-2.3
		C29.1,111.1,28.6,110.9,28,110.9z"/>
</g>
<line class="st15" x1="6.2" y1="114.3" x2="17.2" y2="114.3"/>
<line class="st15" x1="42.6" y1="114.3" x2="32" y2="114.3"/>
<g>
	<path class="st16" d="M24.9,663.9c0.7,0,1.2,0.1,1.6,0.4c0.9,0.5,1.3,1.8,1.3,3.8c0,1.4-0.2,2.5-0.7,3.1s-1.2,0.9-2.2,0.9
		s-1.7-0.3-2.2-0.9c-0.5-0.6-0.7-1.6-0.7-3.1s0.2-2.6,0.7-3.2C23.2,664.2,23.9,663.9,24.9,663.9z M24.9,664.7
		c-0.5,0-0.8,0.1-1.1,0.3c-0.6,0.4-0.9,1.4-0.9,3.1c0,1.2,0.2,2,0.5,2.5s0.8,0.7,1.5,0.7s1.2-0.2,1.5-0.7s0.5-1.3,0.5-2.5
		s-0.1-2.1-0.5-2.6C26.1,664.9,25.6,664.7,24.9,664.7z"/>
</g>
<g>
	<path class="st16" d="M24.4,306c-0.7-0.1-1.4-0.1-2.1-0.1s-1.2,0.2-1.6,0.7s-0.6,1.1-0.6,2l0.3-0.1c0.2-0.1,0.5-0.1,0.8-0.2
		s0.6-0.1,0.9-0.1c1.8,0,2.7,0.8,2.7,2.5c0,0.8-0.2,1.5-0.7,1.9c-0.5,0.5-1.2,0.7-2,0.7c-1.9,0-2.8-1.4-2.8-4.1
		c0-1.4,0.3-2.4,0.8-3.1s1.3-1,2.3-1c0.6,0,1.3,0,1.8,0.1l0.3,0.1L24.4,306z M22.1,309c-0.3,0-0.6,0-0.9,0.1s-0.6,0.1-0.8,0.2
		l-0.3,0.1c0,0.9,0.2,1.6,0.5,2.2c0.3,0.5,0.8,0.8,1.4,0.8s1.1-0.2,1.4-0.5s0.5-0.7,0.5-1.3c0-0.6-0.2-1-0.5-1.3
		C23.1,309.1,22.7,309,22.1,309z"/>
	<path class="st16" d="M28.7,305c0.7,0,1.2,0.1,1.6,0.4c0.9,0.5,1.3,1.8,1.3,3.8c0,1.4-0.2,2.5-0.7,3.1s-1.2,0.9-2.2,0.9
		s-1.7-0.3-2.2-0.9s-0.7-1.6-0.7-3.1s0.2-2.6,0.7-3.2C27,305.4,27.8,305,28.7,305z M28.7,305.9c-0.5,0-0.8,0.1-1.1,0.3
		c-0.6,0.4-0.9,1.4-0.9,3.1c0,1.2,0.2,2,0.5,2.5s0.8,0.7,1.5,0.7s1.2-0.2,1.5-0.7s0.5-1.3,0.5-2.5s-0.1-2.1-0.5-2.6
		C29.9,306.1,29.4,305.9,28.7,305.9z"/>
</g>
<line class="st15" x1="6.6" y1="309.8" x2="18" y2="309.8"/>
<line class="st15" x1="43" y1="309.8" x2="32.4" y2="309.8"/>
<g>
	<path class="st17" d="M15.5,35.2h17.1c3.6,0,6.6-2.2,7.3-5.2c0.4-2-0.1-3.9-1.5-5.4c-1.2-1.2-2.9-2.1-4.7-2.3v-1.5
		c0-5.2-5.3-9.2-10.9-8.6c-4.8,0.5-8.6,4.3-8.6,9v1.1c-1.5,0.1-3,0.9-4.1,1.8c-1.7,1.5-2.3,3.6-2.1,5.6
		C8.6,32.8,12.1,35.2,15.5,35.2z M11.5,25.4c1-0.9,2.3-1.4,3.7-1.4c0.6,0,1-0.4,1-0.9v-2c0-3.8,3.5-7.2,7.9-7.2c4.3,0,7.9,3.2,7.9,7
		v2.2c0,0.5,0.4,0.9,1,0.9c1.7,0,3.2,0.6,4.1,1.7c1,1.1,1.4,2.6,1.1,4.1c-0.6,2.2-2.8,3.8-5.5,3.8H15.5c-2.5,0-5.1-1.8-5.5-3.9
		C9.7,28,10.3,26.5,11.5,25.4z"/>
</g>
<g>
	<path class="st14" d="M18.5,175.9c0.5-0.3,1.2-0.5,2.1-0.5s1.6,0.2,2.1,0.5s0.8,0.9,0.8,1.5c0,0.5-0.1,0.9-0.3,1.1
		c-0.2,0.3-0.5,0.5-1,0.7c0.5,0.2,0.8,0.5,1.1,0.8c0.2,0.3,0.4,0.7,0.4,1.2c0,1.5-1,2.3-3,2.3s-3-0.7-3-2.1c0-0.6,0.1-1,0.3-1.3
		c0.2-0.3,0.6-0.6,1-0.8c-0.4-0.2-0.7-0.5-0.9-0.7c-0.2-0.3-0.3-0.7-0.3-1.1C17.7,176.7,18,176.2,18.5,175.9z M18.6,181.2
		c0,1,0.7,1.5,2,1.5s2-0.5,2-1.5c0-0.4-0.1-0.7-0.4-0.9c-0.2-0.2-0.6-0.4-1-0.5h-1.3c-0.4,0.1-0.8,0.3-1,0.5S18.6,180.8,18.6,181.2z
		 M22.4,177.5c0-0.9-0.6-1.3-1.9-1.3s-1.9,0.4-1.9,1.3c0,0.4,0.1,0.6,0.3,0.9c0.2,0.2,0.5,0.4,0.9,0.5h1.3c0.4-0.1,0.8-0.3,1-0.5
		S22.4,177.9,22.4,177.5z"/>
	<path class="st14" d="M27.3,175.3c0.7,0,1.2,0.1,1.6,0.4c0.9,0.5,1.3,1.8,1.3,3.8c0,1.4-0.2,2.5-0.7,3.1s-1.2,0.9-2.2,0.9
		s-1.7-0.3-2.2-0.9c-0.5-0.6-0.7-1.6-0.7-3.1s0.2-2.6,0.7-3.2C25.6,175.7,26.3,175.3,27.3,175.3z M27.3,176.2
		c-0.5,0-0.8,0.1-1.1,0.3c-0.6,0.4-0.9,1.4-0.9,3.1c0,1.2,0.2,2,0.5,2.5s0.8,0.7,1.5,0.7s1.2-0.2,1.5-0.7s0.5-1.3,0.5-2.5
		s-0.1-2.1-0.5-2.6C28.5,176.4,28,176.2,27.3,176.2z"/>
</g>
<line class="st15" x1="5.6" y1="180.1" x2="16.5" y2="180.1"/>
<line class="st15" x1="41.9" y1="180.1" x2="31.4" y2="180.1"/>
<path class="st18" d="M19.6,29.6c0,0-0.1,0.2,0.1,0.3c0.1,0.1,0.3,0,0.3,0l4.2-6l4.2-6c0,0,0.1-0.1-0.1-0.2s-0.3,0-0.3,0l-4.2,6
	L19.6,29.6z"/>
<circle class="st19" cx="20.5" cy="20.5" r="2.5"/>
<circle class="st19" cx="27.3" cy="27.1" r="2.5"/>
<line class="st15" x1="5.7" y1="376.8" x2="17.1" y2="376.8"/>
<line class="st15" x1="42.1" y1="376.8" x2="31.5" y2="376.8"/>
<g>
	<path class="st16" d="M22.9,372.2v0.8H19l-0.2,2.6c0.6-0.3,1.2-0.5,1.9-0.5c1.7,0,2.5,0.8,2.5,2.3c0,0.9-0.2,1.6-0.7,2.1
		s-1.1,0.7-2,0.7c-0.7,0-1.4-0.1-2.2-0.3l-0.4-0.1l0.1-0.7c0.9,0.2,1.7,0.3,2.3,0.3s1.1-0.2,1.4-0.5s0.5-0.8,0.5-1.4s-0.1-1-0.4-1.2
		s-0.7-0.4-1.2-0.4c-0.3,0-0.6,0-0.9,0.1s-0.6,0.2-0.7,0.2l-0.3,0.1l-0.6-0.1l0.2-4.1h4.6C22.9,372.1,22.9,372.2,22.9,372.2z"/>
	<path class="st16" d="M27.3,372c0.7,0,1.2,0.1,1.6,0.4c0.9,0.5,1.3,1.8,1.3,3.8c0,1.4-0.2,2.5-0.7,3.1s-1.2,0.9-2.2,0.9
		s-1.7-0.3-2.2-0.9s-0.7-1.6-0.7-3.1s0.2-2.6,0.7-3.2C25.6,372.4,26.3,372,27.3,372z M27.3,372.9c-0.5,0-0.8,0.1-1.1,0.3
		c-0.6,0.4-0.9,1.4-0.9,3.1c0,1.2,0.2,2,0.5,2.5s0.8,0.7,1.5,0.7s1.2-0.2,1.5-0.7s0.5-1.3,0.5-2.5s-0.2-2.1-0.5-2.6
		S28,372.9,27.3,372.9z"/>
</g>
<line class="st15" x1="5.9" y1="437.3" x2="17.3" y2="437.3"/>
<line class="st15" x1="42.3" y1="437.3" x2="31.7" y2="437.3"/>
<g>
	<path class="st16" d="M21.7,440.6v-1.5h-3.8v-0.7l2.3-5.7h1l-2.3,5.6h2.9v-2.5h0.9v2.5h1v0.8h-1v1.5L21.7,440.6L21.7,440.6z"/>
	<path class="st16" d="M27.4,432.6c0.7,0,1.2,0.1,1.6,0.4c0.9,0.5,1.3,1.8,1.3,3.8c0,1.4-0.2,2.5-0.7,3.1s-1.2,0.9-2.2,0.9
		s-1.7-0.3-2.2-0.9s-0.7-1.6-0.7-3.1s0.2-2.6,0.7-3.2C25.7,432.9,26.4,432.6,27.4,432.6z M27.4,433.4c-0.5,0-0.8,0.1-1.1,0.3
		c-0.6,0.4-0.9,1.4-0.9,3.1c0,1.2,0.2,2,0.5,2.5s0.8,0.7,1.5,0.7s1.2-0.2,1.5-0.7s0.5-1.3,0.5-2.5s-0.1-2.1-0.4-2.6
		C28.6,433.7,28.1,433.4,27.4,433.4z"/>
</g>
<line class="st15" x1="5.9" y1="497.4" x2="17.3" y2="497.4"/>
<line class="st15" x1="42.3" y1="497.4" x2="31.7" y2="497.4"/>
<g>
	<path class="st16" d="M18.2,493c0.8-0.2,1.6-0.3,2.4-0.3c0.9,0,1.5,0.2,1.9,0.5s0.6,0.9,0.6,1.6c0,0.4-0.1,0.6-0.2,0.8
		c-0.1,0.2-0.2,0.3-0.2,0.4c-0.1,0.1-0.1,0.2-0.2,0.3c-0.2,0.1-0.3,0.2-0.4,0.3l-0.1,0.1c0.5,0.2,0.8,0.4,1,0.6
		c0.2,0.3,0.3,0.7,0.3,1.3c0,0.8-0.2,1.4-0.6,1.8s-1.1,0.6-2,0.6c-0.7,0-1.4-0.1-2.2-0.2l-0.4-0.1l0.1-0.8c0.9,0.2,1.7,0.3,2.4,0.3
		c1.1,0,1.7-0.5,1.7-1.5s-0.5-1.4-1.6-1.5h-1.6v-0.8h1.6c0.3,0,0.7-0.1,1-0.4s0.5-0.6,0.5-1.1c0-0.4-0.1-0.8-0.4-1s-0.7-0.3-1.2-0.3
		c-0.6,0-1.3,0.1-1.9,0.2l-0.3,0.1L18.2,493z"/>
	<path class="st16" d="M27.4,492.7c0.7,0,1.2,0.1,1.6,0.4c0.9,0.5,1.3,1.8,1.3,3.8c0,1.4-0.2,2.5-0.7,3.1s-1.2,0.9-2.2,0.9
		s-1.7-0.3-2.2-0.9s-0.7-1.6-0.7-3.1s0.2-2.6,0.7-3.2C25.7,493,26.4,492.7,27.4,492.7z M27.4,493.5c-0.5,0-0.8,0.1-1.1,0.3
		c-0.6,0.4-0.9,1.4-0.9,3.1c0,1.2,0.2,2,0.5,2.5s0.8,0.7,1.5,0.7s1.2-0.2,1.5-0.7s0.5-1.3,0.5-2.5s-0.1-2.1-0.4-2.6
		C28.6,493.7,28.1,493.5,27.4,493.5z"/>
</g>
<line class="st15" x1="6.7" y1="557" x2="18.1" y2="557"/>
<line class="st15" x1="43.1" y1="557" x2="32.5" y2="557"/>
<g>
	<path class="st16" d="M24.1,560.4H19v-0.8l2.3-2.4c0.4-0.4,0.7-0.7,0.9-0.9c0.2-0.2,0.3-0.5,0.5-0.8c0.1-0.3,0.2-0.6,0.2-0.9
		c0-0.5-0.1-0.9-0.4-1.1c-0.3-0.2-0.7-0.3-1.3-0.3c-0.5,0-1.1,0.1-1.7,0.2l-0.3,0.1l-0.1-0.8c0.8-0.2,1.5-0.3,2.4-0.3
		c0.8,0,1.4,0.2,1.8,0.5s0.6,0.9,0.6,1.6c0,0.6-0.1,1-0.4,1.5s-0.7,0.9-1.3,1.5l-2.1,2.1h4V560.4z"/>
	<path class="st16" d="M28.2,552.3c0.7,0,1.2,0.1,1.6,0.4c0.9,0.5,1.3,1.8,1.3,3.8c0,1.4-0.2,2.5-0.7,3.1s-1.2,0.9-2.2,0.9
		s-1.7-0.3-2.2-0.9c-0.5-0.6-0.7-1.6-0.7-3.1s0.2-2.6,0.7-3.2C26.5,552.6,27.3,552.3,28.2,552.3z M28.2,553.2
		c-0.5,0-0.8,0.1-1.1,0.3c-0.6,0.4-0.9,1.4-0.9,3.1c0,1.2,0.2,2,0.5,2.5s0.8,0.7,1.5,0.7s1.2-0.2,1.5-0.7s0.5-1.3,0.5-2.5
		s-0.1-2.1-0.5-2.6C29.4,553.4,28.9,553.2,28.2,553.2z"/>
</g>
<line class="st15" x1="6.7" y1="619.9" x2="18.1" y2="619.9"/>
<line class="st15" x1="43.1" y1="619.9" x2="32.5" y2="619.9"/>
<g>
	<path class="st16" d="M22.8,615.3v7.9h-0.9v-6.9l-2,1.3l-0.4-0.7l2.5-1.7h0.8V615.3z"/>
	<path class="st16" d="M28.2,615.2c0.7,0,1.2,0.1,1.6,0.4c0.9,0.5,1.3,1.8,1.3,3.8c0,1.4-0.2,2.5-0.7,3.1s-1.2,0.9-2.2,0.9
		s-1.7-0.3-2.2-0.9c-0.5-0.6-0.7-1.6-0.7-3.1s0.2-2.6,0.7-3.2C26.5,615.5,27.3,615.2,28.2,615.2z M28.2,616c-0.5,0-0.8,0.1-1.1,0.3
		c-0.6,0.4-0.9,1.4-0.9,3.1c0,1.2,0.2,2,0.5,2.5s0.8,0.7,1.5,0.7s1.2-0.2,1.5-0.7s0.5-1.3,0.5-2.5s-0.1-2.1-0.5-2.6
		C29.4,616.3,28.9,616,28.2,616z"/>
</g>
</svg>
