<?xml version="1.0" encoding="utf-8"?>
<!-- Generator: Adobe Illustrator 28.0.0, SVG Export Plug-In . SVG Version: 6.00 Build 0)  -->
<svg version="1.1" id="Livello_1" xmlns="http://www.w3.org/2000/svg" xmlns:xlink="http://www.w3.org/1999/xlink" x="0px" y="0px"
	  width="40.8px" height="725.2px" viewBox="0 0 40.8 725.2" style="enable-background:new 0 0 40.8 725.2;" xml:space="preserve">
<style type="text/css">
	.st0{fill:#82A1BA;}
	.st1{fill:#9BC4C7;}
	.st2{fill:#B3D0C7;}
	.st3{fill:#CBDED1;}
	.st4{fill:#DDE7DC;}
	.st5{fill:#ECEFE9;}
	.st6{fill:#39322E;}
	.st7{fill:none;}
	.st8{fill:none;stroke:#3C3430;stroke-width:2;stroke-miterlimit:9.7722;}
	.st9{fill:#3C3530;stroke:#39322E;stroke-width:0.5;stroke-miterlimit:10;}
	.st10{fill:#3C3430;stroke:#39322E;stroke-width:0.5;stroke-miterlimit:10;}
	.st11{fill:none;stroke:#3C3430;stroke-miterlimit:9.7722;}
	.st12{fill:#3B3330;stroke:#39322E;stroke-width:0.5;stroke-miterlimit:10;}
	.st13{fill:#FFFFFF;}
	.st14{fill:#FFFFFF;stroke:#FFFFFF;stroke-width:0.4886;stroke-miterlimit:9.7722;}
	.st15{fill:none;stroke:#FFFFFF;stroke-width:0.9772;stroke-miterlimit:9.7722;}
</style>
<path class="st0" d="M39,167.7H1.9v-120c0-1.7,1.4-3.2,3.2-3.2h30.7c1.8,0,3.3,1.5,3.3,3.3V167.7z"/>
<rect x="2.1" y="167.7" class="st1" width="36.9" height="110.8"/>
<rect x="2.9" y="278.3" class="st2" width="35.4" height="109.5"/>
<rect x="2.9" y="387.9" class="st3" width="36.1" height="111.4"/>
<rect x="2.9" y="499.3" class="st4" width="36.1" height="110.9"/>
<rect x="2.9" y="610.2" class="st5" width="35.4" height="113.8"/>
<circle class="st6" cx="20.3" cy="21.3" r="19.8"/>
<rect x="7.3" y="626.7" class="st7" width="15.4" height="11.8"/>
<path class="st8" d="M32.8,724H8.3c-3.4,0-6.2-3-6.2-6.7V51.3c0-3.7,2.8-6.7,6.2-6.7h24.5c3.4,0,6.2,3,6.2,6.7v665.9
	C39,720.9,36.2,724,32.8,724z"/>
<g>
	<path class="st9" d="M14.5,47.5v7.9h-0.9v-6.9l-2,1.3l-0.4-0.7l2.5-1.7L14.5,47.5L14.5,47.5z"/>
	<path class="st9" d="M19.9,47.4c0.7,0,1.2,0.1,1.6,0.4c0.9,0.5,1.3,1.8,1.3,3.8c0,1.4-0.2,2.5-0.7,3.1s-1.2,0.9-2.2,0.9
		s-1.7-0.3-2.2-0.9S17,53.1,17,51.6s0.2-2.6,0.7-3.2C18.2,47.7,19,47.4,19.9,47.4z M19.9,48.2c-0.5,0-0.8,0.1-1.1,0.3
		c-0.6,0.4-0.9,1.4-0.9,3.1c0,1.2,0.2,2,0.5,2.5s0.8,0.7,1.5,0.7s1.2-0.2,1.5-0.7s0.5-1.3,0.5-2.5s-0.2-2.1-0.5-2.6
		S20.6,48.2,19.9,48.2z"/>
	<path class="st9" d="M26.6,47.4c0.7,0,1.2,0.1,1.6,0.4c0.9,0.5,1.3,1.8,1.3,3.8c0,1.4-0.2,2.5-0.7,3.1s-1.2,0.9-2.2,0.9
		s-1.7-0.3-2.2-0.9c-0.5-0.6-0.7-1.6-0.7-3.1s0.2-2.6,0.7-3.2C24.9,47.7,25.7,47.4,26.6,47.4z M26.6,48.2c-0.5,0-0.8,0.1-1.1,0.3
		c-0.6,0.4-0.9,1.4-0.9,3.1c0,1.2,0.2,2,0.5,2.5s0.8,0.7,1.5,0.7s1.2-0.2,1.5-0.7c0.3-0.5,0.5-1.3,0.5-2.5s-0.2-2.1-0.5-2.6
		S27.3,48.2,26.6,48.2z"/>
</g>
<g>
	<path class="st10" d="M14.7,384.7v-0.8h4.9v1.2l-3,6.8l-0.9-0.3l3-6.6v-0.3L14.7,384.7L14.7,384.7z"/>
	<path class="st10" d="M23.8,383.7c0.7,0,1.2,0.1,1.6,0.4c0.9,0.5,1.3,1.8,1.3,3.8c0,1.4-0.2,2.5-0.7,3.1s-1.2,0.9-2.2,0.9
		s-1.7-0.3-2.2-0.9s-0.7-1.6-0.7-3.1s0.2-2.6,0.7-3.2C22.1,384,22.8,383.7,23.8,383.7z M23.8,384.5c-0.5,0-0.8,0.1-1.1,0.3
		c-0.6,0.4-0.9,1.4-0.9,3.1c0,1.2,0.2,2,0.5,2.5s0.8,0.7,1.5,0.7s1.2-0.2,1.5-0.7s0.5-1.3,0.5-2.5s-0.2-2.1-0.5-2.6
		S24.5,384.5,23.8,384.5z"/>
</g>
<line class="st11" x1="2.1" y1="388.4" x2="14.4" y2="388.4"/>
<line class="st11" x1="38.5" y1="388.4" x2="27.9" y2="388.4"/>
<g>
	<path class="st10" d="M16.6,170.3c1.4,0,2.2-0.9,2.2-2.8c-0.8,0.3-1.5,0.5-2.1,0.5c-1.7,0-2.6-0.8-2.6-2.4c0-0.8,0.2-1.4,0.7-1.9
		s1.2-0.7,2-0.7c1,0,1.7,0.4,2.2,1.1c0.5,0.7,0.7,1.8,0.7,3.2s-0.3,2.4-0.8,3s-1.3,0.9-2.3,0.9c-0.6,0-1.2-0.1-1.9-0.2h-0.3l0.1-0.7
		C15.2,170.3,15.9,170.3,16.6,170.3z M16.8,167.2c0.5,0,1.1-0.1,1.7-0.3l0.3-0.1c0-2-0.7-3-1.9-3c-0.6,0-1,0.2-1.3,0.5
		s-0.5,0.8-0.5,1.3C15.1,166.7,15.6,167.2,16.8,167.2z"/>
	<path class="st10" d="M23.7,163c0.7,0,1.2,0.1,1.6,0.4c0.9,0.5,1.3,1.8,1.3,3.8c0,1.4-0.2,2.5-0.7,3.1s-1.2,0.9-2.2,0.9
		s-1.7-0.3-2.2-0.9c-0.5-0.6-0.7-1.6-0.7-3.1s0.2-2.6,0.7-3.2C22,163.3,22.7,163,23.7,163z M23.7,163.8c-0.5,0-0.8,0.1-1.1,0.3
		c-0.6,0.4-0.9,1.4-0.9,3.1c0,1.2,0.2,2,0.5,2.5s0.8,0.7,1.5,0.7s1.2-0.2,1.5-0.7s0.5-1.3,0.5-2.5s-0.2-2.1-0.5-2.6
		S24.4,163.8,23.7,163.8z"/>
</g>
<line class="st11" x1="1.9" y1="167.7" x2="12.9" y2="167.7"/>
<line class="st11" x1="38.3" y1="167.7" x2="27.7" y2="167.7"/>
<g>
	<path class="st12" d="M21.2,713.3c0.7,0,1.2,0.1,1.6,0.4c0.9,0.5,1.3,1.8,1.3,3.8c0,1.4-0.2,2.5-0.7,3.1s-1.2,0.9-2.2,0.9
		s-1.7-0.3-2.2-0.9c-0.5-0.6-0.7-1.6-0.7-3.1s0.2-2.6,0.7-3.2C19.5,713.6,20.2,713.3,21.2,713.3z M21.2,714.1
		c-0.5,0-0.8,0.1-1.1,0.3c-0.6,0.4-0.9,1.4-0.9,3.1c0,1.2,0.2,2,0.5,2.5s0.8,0.7,1.5,0.7s1.2-0.2,1.5-0.7s0.5-1.3,0.5-2.5
		s-0.1-2.1-0.5-2.6C22.4,714.3,21.9,714.1,21.2,714.1z"/>
</g>
<g>
	<path class="st12" d="M20.1,494.8c-0.7-0.1-1.4-0.1-2.1-0.1s-1.2,0.2-1.6,0.7s-0.6,1.1-0.6,2l0.3-0.1c0.2-0.1,0.5-0.1,0.8-0.2
		s0.6-0.1,0.9-0.1c1.8,0,2.7,0.8,2.7,2.5c0,0.8-0.2,1.5-0.7,1.9c-0.5,0.5-1.2,0.7-2,0.7c-1.9,0-2.8-1.4-2.8-4.1
		c0-1.4,0.3-2.4,0.8-3.1s1.3-1,2.3-1c0.6,0,1.3,0,1.8,0.1l0.3,0.1L20.1,494.8z M17.8,497.8c-0.3,0-0.6,0-0.9,0.1s-0.6,0.1-0.8,0.2
		l-0.3,0.1c0,0.9,0.2,1.6,0.5,2.2c0.3,0.5,0.8,0.8,1.4,0.8s1.1-0.2,1.4-0.5s0.5-0.7,0.5-1.3c0-0.6-0.2-1-0.5-1.3
		C18.7,497.9,18.3,497.8,17.8,497.8z"/>
	<path class="st12" d="M24.3,493.8c0.7,0,1.2,0.1,1.6,0.4c0.9,0.5,1.3,1.8,1.3,3.8c0,1.4-0.2,2.5-0.7,3.1s-1.2,0.9-2.2,0.9
		s-1.7-0.3-2.2-0.9s-0.7-1.6-0.7-3.1s0.2-2.6,0.7-3.2C22.6,494.2,23.4,493.8,24.3,493.8z M24.4,494.7c-0.5,0-0.8,0.1-1.1,0.3
		c-0.6,0.4-0.9,1.4-0.9,3.1c0,1.2,0.2,2,0.5,2.5s0.8,0.7,1.5,0.7s1.2-0.2,1.5-0.7s0.5-1.3,0.5-2.5s-0.1-2.1-0.5-2.6
		C25.5,494.9,25,494.7,24.4,494.7z"/>
</g>
<line class="st11" x1="2.2" y1="498.6" x2="13.6" y2="498.6"/>
<line class="st11" x1="38.6" y1="498.6" x2="28" y2="498.6"/>
<g>
	<path class="st13" d="M11.7,29.9h17.1c3.6,0,6.6-2.2,7.3-5.2c0.4-2-0.1-3.9-1.5-5.4c-1.2-1.2-2.9-2.1-4.7-2.3v-1.5
		c0-5.2-5.3-9.2-10.9-8.6c-4.8,0.5-8.6,4.3-8.6,9V17c-1.5,0.1-3,0.9-4.1,1.8c-1.7,1.5-2.3,3.6-2.1,5.6C4.8,27.5,8.3,29.9,11.7,29.9z
		 M7.7,20.1c1-0.9,2.3-1.4,3.7-1.4c0.6,0,1-0.4,1-0.9v-2c0-3.8,3.5-7.2,7.9-7.2c4.3,0,7.9,3.2,7.9,7v2.2c0,0.5,0.4,0.9,1,0.9
		c1.7,0,3.2,0.6,4.1,1.7c1,1.1,1.4,2.6,1.1,4.1c-0.6,2.2-2.8,3.8-5.5,3.8H11.7c-2.5,0-5.1-1.8-5.5-3.9C5.9,22.7,6.5,21.2,7.7,20.1z"
		/>
</g>
<g>
	<path class="st12" d="M20.1,605.6v0.8h-3.9L16,609c0.6-0.3,1.2-0.5,1.9-0.5c1.7,0,2.5,0.8,2.5,2.3c0,0.9-0.2,1.6-0.7,2.1
		s-1.1,0.7-2,0.7c-0.7,0-1.4-0.1-2.2-0.3l-0.4-0.1l0.1-0.7c0.9,0.2,1.7,0.3,2.3,0.3s1.1-0.2,1.4-0.5s0.5-0.8,0.5-1.4s-0.1-1-0.4-1.2
		s-0.7-0.4-1.2-0.4c-0.3,0-0.6,0-0.9,0.1s-0.6,0.2-0.7,0.2l-0.3,0.1l-0.6-0.1l0.2-4.1h4.6C20.1,605.5,20.1,605.6,20.1,605.6z"/>
	<path class="st12" d="M24.4,605.5c0.7,0,1.2,0.1,1.6,0.4c0.9,0.5,1.3,1.8,1.3,3.8c0,1.4-0.2,2.5-0.7,3.1s-1.2,0.9-2.2,0.9
		s-1.7-0.3-2.2-0.9c-0.5-0.6-0.7-1.6-0.7-3.1s0.2-2.6,0.7-3.2C22.7,605.8,23.4,605.5,24.4,605.5z M24.4,606.3
		c-0.5,0-0.8,0.1-1.1,0.3c-0.6,0.4-0.9,1.4-0.9,3.1c0,1.2,0.2,2,0.5,2.5s0.8,0.7,1.5,0.7s1.2-0.2,1.5-0.7s0.5-1.3,0.5-2.5
		s-0.2-2.1-0.5-2.6S25.1,606.3,24.4,606.3z"/>
</g>
<line class="st11" x1="2.3" y1="610.2" x2="13.7" y2="610.2"/>
<line class="st11" x1="38.6" y1="610.2" x2="28.1" y2="610.2"/>
<g>
	<path class="st10" d="M15.8,273.6c0.5-0.3,1.2-0.5,2.1-0.5s1.6,0.2,2.1,0.5s0.8,0.9,0.8,1.5c0,0.5-0.1,0.9-0.3,1.1
		c-0.2,0.3-0.5,0.5-1,0.7c0.5,0.2,0.8,0.5,1.1,0.8c0.2,0.3,0.4,0.7,0.4,1.2c0,1.5-1,2.3-3,2.3s-3-0.7-3-2.1c0-0.6,0.1-1,0.3-1.3
		c0.2-0.3,0.6-0.6,1-0.8c-0.4-0.2-0.7-0.5-0.9-0.7c-0.2-0.3-0.3-0.7-0.3-1.1C15,274.5,15.3,274,15.8,273.6z M15.9,279
		c0,1,0.7,1.5,2,1.5s2-0.5,2-1.5c0-0.4-0.1-0.7-0.4-0.9c-0.2-0.2-0.6-0.4-1-0.5h-1.3c-0.4,0.1-0.8,0.3-1,0.5
		C16,278.2,15.9,278.6,15.9,279z M19.7,275.3c0-0.9-0.6-1.3-1.9-1.3s-1.9,0.4-1.9,1.3c0,0.4,0.1,0.6,0.3,0.9
		c0.2,0.2,0.5,0.4,0.9,0.5h1.3c0.4-0.1,0.8-0.3,1-0.5C19.6,275.9,19.7,275.6,19.7,275.3z"/>
	<path class="st10" d="M24.6,273.1c0.7,0,1.2,0.1,1.6,0.4c0.9,0.5,1.3,1.8,1.3,3.8c0,1.4-0.2,2.5-0.7,3.1s-1.2,0.9-2.2,0.9
		s-1.7-0.3-2.2-0.9s-0.7-1.6-0.7-3.1s0.2-2.6,0.7-3.2C22.9,273.4,23.6,273.1,24.6,273.1z M24.6,273.9c-0.5,0-0.8,0.1-1.1,0.3
		c-0.6,0.4-0.9,1.4-0.9,3.1c0,1.2,0.2,2,0.5,2.5s0.8,0.7,1.5,0.7s1.2-0.2,1.5-0.7s0.5-1.3,0.5-2.5s-0.1-2.1-0.5-2.6
		C25.8,274.2,25.3,273.9,24.6,273.9z"/>
</g>
<path class="st14" d="M16.2,24.2c0,0-0.1,0.2,0.1,0.3c0.1,0.1,0.3,0,0.3,0l4.2-6l4.2-6c0,0,0.1-0.1-0.1-0.2s-0.3,0-0.3,0l-4.2,6
	L16.2,24.2z"/>
<circle class="st15" cx="23.9" cy="21.7" r="2.5"/>
<line class="st11" x1="13.6" y1="278.6" x2="2.1" y2="278.6"/>
<line class="st11" x1="39.1" y1="278.6" x2="28.1" y2="278.6"/>
<ellipse class="st15" cx="17" cy="15.6" rx="2.5" ry="2.6"/>
</svg>
