<?xml version="1.0" encoding="utf-8"?>
<!-- Generator: Adobe Illustrator 27.4.1, SVG Export Plug-In . SVG Version: 6.00 Build 0)  -->
<svg version="1.1" id="Livello_1" xmlns="http://www.w3.org/2000/svg" xmlns:xlink="http://www.w3.org/1999/xlink" width="32px" height="590px"  x="0px" y="0px"
	 viewBox="0 0 32 590" style="enable-background:new 0 0 32 590;" xml:space="preserve">
<style type="text/css">
	.st0{clip-path:url(#SVGID_00000178915359305256249680000008726391193746876045_);fill:#F7F8F8;}
	.st1{clip-path:url(#SVGID_00000131351175252253459680000006885601780510703024_);fill:#FBFBFA;}
	.st2{clip-path:url(#SVGID_00000137120154761868052390000015458347528330618756_);fill:#F5F6F3;}
	.st3{clip-path:url(#SVGID_00000032644061605375939460000009404405859207483063_);fill:#FEFEFE;}
	.st4{clip-path:url(#SVGID_00000067917694643768936540000000789838871956016046_);fill:#ECEFE9;}
	.st5{clip-path:url(#SVGID_00000031917322909915726730000003882654341011657624_);fill:#CBDED1;}
	.st6{clip-path:url(#SVGID_00000031917322909915726730000003882654341011657624_);fill:#B3D0C7;}
	.st7{clip-path:url(#SVGID_00000031917322909915726730000003882654341011657624_);fill:#9BC4C7;}
	.st8{clip-path:url(#SVGID_00000031917322909915726730000003882654341011657624_);fill:#82A1BA;}
	.st9{clip-path:url(#SVGID_00000031917322909915726730000003882654341011657624_);fill:#DDE7DC;}
	.st10{display:none;}
	.st11{display:inline;}
	.st12{clip-path:url(#SVGID_00000122711454748701496980000008665429454136762540_);fill:#C8E8F0;}
	.st13{clip-path:url(#SVGID_00000119821360627785488060000009784792960951838109_);fill:#D0EBF7;}
	.st14{clip-path:url(#SVGID_00000179607784700561561720000018052325822752690343_);fill:#4898DA;}
	.st15{clip-path:url(#SVGID_00000024710805308965364210000003076536103867801217_);fill:#A3A5D7;}
	.st16{clip-path:url(#SVGID_00000012473365712710947260000003806236028758608272_);fill:#B988C1;}
	.st17{clip-path:url(#SVGID_00000046308338084785852500000013797394800585322166_);fill:#D7A2CD;}
	.st18{clip-path:url(#SVGID_00000052804302357497152600000014876108743213057214_);fill:#E8BEDB;}
	.st19{clip-path:url(#SVGID_00000125572137764386582630000006892397337099874489_);fill:#E67D9B;}
	.st20{clip-path:url(#SVGID_00000183213468511122197640000013335681682178122425_);fill:#DB4C4D;}
	.st21{clip-path:url(#SVGID_00000089569619302035885590000011540060173793325721_);fill:#EF5A5C;}
	.st22{clip-path:url(#SVGID_00000138566359897817010530000009694311844853796741_);fill:#F7A25C;}
	.st23{clip-path:url(#SVGID_00000183218539421660064450000000329649829698031270_);fill:#FDD58F;}
	.st24{clip-path:url(#SVGID_00000035521354058208355300000006874998049237896893_);fill:#FFE173;}
	.st25{clip-path:url(#SVGID_00000089536993301918065620000006968769134687734973_);fill:#FEFE82;}
	.st26{clip-path:url(#SVGID_00000099639290274885981170000012301217985147253914_);fill:#FFFFC7;}
	.st27{clip-path:url(#SVGID_00000055687497724530500500000007601678012380876195_);fill:#F3F3A1;}
	.st28{clip-path:url(#SVGID_00000179618968477340872970000018366282743354998204_);fill:#D3ECA4;}
	.st29{clip-path:url(#SVGID_00000069390759646136494050000017126646224142780317_);fill:#C3E6D8;}
	.st30{clip-path:url(#SVGID_00000174599137224453024290000000730240886401220519_);fill:#C8E8F0;}
	.st31{clip-path:url(#SVGID_00000059275999870329958770000001999613242728160949_);fill:#D0EBF7;}
	.st32{clip-path:url(#SVGID_00000086663088813845826100000002432913350607488190_);fill:#EC2426;}
	.st33{clip-path:url(#SVGID_00000106136887667616547010000016238250605083679397_);fill:#FCFC1E;}
	.st34{clip-path:url(#SVGID_00000119109727144978479160000003850576553310388647_);fill:#0B7F3F;}
	.st35{clip-path:url(#SVGID_00000026855271506033670430000005817553248725000339_);fill:#F7A426;}
	.st36{clip-path:url(#SVGID_00000166651166628715904520000016947478961990624911_);fill:#6FC9DC;}
	.st37{clip-path:url(#SVGID_00000088103978010686847090000007683774031362028416_);fill:#3F57B0;}
	.st38{fill:#3A332F;}
	.st39{fill:none;stroke:#3C3430;stroke-width:2.9317;stroke-miterlimit:9.7722;}
	.st40{fill:#3C3530;}
	.st41{fill:#FFFFFF;}
	.st42{fill:none;}
	.st43{enable-background:new    ;}
</style>
<g>
	<g>
		<g>
			<defs>
				<path id="SVGID_1_" d="M26.6,573.9c-0.3,3.3-5.5,7.3-10.1,7.3l0,0c-4.5,0.4-10.6-3.2-10.6-7.3v-526c1-4.8,6.3-7.6,10-7.6l0,0
					c4.2,0,9.7,2.9,10.8,7.8L26.6,573.9L26.6,573.9z"/>
			</defs>
			<clipPath id="SVGID_00000097483322166938144440000018415982667822878105_">
				<use xlink:href="#SVGID_1_"  style="overflow:visible;"/>
			</clipPath>
			
				<rect x="0.9" y="530.3" style="clip-path:url(#SVGID_00000097483322166938144440000018415982667822878105_);fill:#F7F8F8;" width="30.8" height="56.9"/>
		</g>
		<g>
			<defs>
				<path id="SVGID_00000026163216168041313850000007242069535532458169_" d="M26.6,573.9c-0.3,3.3-5.5,7.3-10.1,7.3l0,0
					c-4.5,0.4-10.6-3.2-10.6-7.3v-526c1-4.8,6.3-7.6,10-7.6l0,0c4.2,0,9.7,2.9,10.8,7.8L26.6,573.9L26.6,573.9z"/>
			</defs>
			<clipPath id="SVGID_00000011711622228119683800000012693512739972679867_">
				<use xlink:href="#SVGID_00000026163216168041313850000007242069535532458169_"  style="overflow:visible;"/>
			</clipPath>
			
				<rect x="1.2" y="426.9" style="clip-path:url(#SVGID_00000011711622228119683800000012693512739972679867_);fill:#FBFBFA;" width="30.8" height="51.7"/>
		</g>
		<g>
			<defs>
				<path id="SVGID_00000094585977534231894370000016526757915229248180_" d="M26.6,573.9c-0.3,3.3-5.5,7.3-10.1,7.3l0,0
					c-4.5,0.4-10.6-3.2-10.6-7.3v-526c1-4.8,6.3-7.6,10-7.6l0,0c4.2,0,9.7,2.9,10.8,7.8L26.6,573.9L26.6,573.9z"/>
			</defs>
			<clipPath id="SVGID_00000053509480510469646440000003374893926473874082_">
				<use xlink:href="#SVGID_00000094585977534231894370000016526757915229248180_"  style="overflow:visible;"/>
			</clipPath>
			
				<rect x="1.2" y="375.2" style="clip-path:url(#SVGID_00000053509480510469646440000003374893926473874082_);fill:#F5F6F3;" width="30.8" height="51.7"/>
		</g>
		<g>
			<defs>
				<path id="SVGID_00000167389498794368691630000016031833251066291898_" d="M26.6,573.9c-0.3,3.3-5.5,7.3-10.1,7.3l0,0
					c-4.5,0.4-10.6-3.2-10.6-7.3v-526c1-4.8,6.3-7.6,10-7.6l0,0c4.2,0,9.7,2.9,10.8,7.8L26.6,573.9L26.6,573.9z"/>
			</defs>
			<clipPath id="SVGID_00000003084845939748221210000015916240887998787989_">
				<use xlink:href="#SVGID_00000167389498794368691630000016031833251066291898_"  style="overflow:visible;"/>
			</clipPath>
			
				<rect x="0.9" y="478.6" style="clip-path:url(#SVGID_00000003084845939748221210000015916240887998787989_);fill:#FEFEFE;" width="30.8" height="51.7"/>
		</g>
		<g>
			<defs>
				<path id="SVGID_00000173150311124960377530000009463150340908653707_" d="M26.6,573.9c-0.3,3.3-5.5,7.3-10.1,7.3l0,0
					c-4.5,0.4-10.6-3.2-10.6-7.3v-526c1-4.8,6.3-7.6,10-7.6l0,0c4.2,0,9.7,2.9,10.8,7.8L26.6,573.9L26.6,573.9z"/>
			</defs>
			<clipPath id="SVGID_00000116946553527455493510000004869918174979718042_">
				<use xlink:href="#SVGID_00000173150311124960377530000009463150340908653707_"  style="overflow:visible;"/>
			</clipPath>
			
				<rect x="1.2" y="323.5" style="clip-path:url(#SVGID_00000116946553527455493510000004869918174979718042_);fill:#ECEFE9;" width="30.8" height="51.7"/>
		</g>
		<g>
			<defs>
				<path id="SVGID_00000075866921546304921140000006515953326224744109_" d="M26.6,573.9c-0.3,3.3-5.5,7.3-10.1,7.3l0,0
					c-4.5,0.4-10.6-3.2-10.6-7.3v-526c1-4.8,6.3-7.6,10-7.6l0,0c4.2,0,9.7,2.9,10.8,7.8L26.6,573.9L26.6,573.9z"/>
			</defs>
			<clipPath id="SVGID_00000023256491910941945780000005061015480588360379_">
				<use xlink:href="#SVGID_00000075866921546304921140000006515953326224744109_"  style="overflow:visible;"/>
			</clipPath>
			
				<rect x="1" y="209.8" style="clip-path:url(#SVGID_00000023256491910941945780000005061015480588360379_);fill:#CBDED1;" width="30.8" height="56.9"/>
			
				<rect x="1" y="153.4" style="clip-path:url(#SVGID_00000023256491910941945780000005061015480588360379_);fill:#B3D0C7;" width="30.8" height="56.9"/>
			
				<rect x="1" y="97" style="clip-path:url(#SVGID_00000023256491910941945780000005061015480588360379_);fill:#9BC4C7;" width="30.8" height="56.9"/>
			
				<rect x="1" y="40.5" style="clip-path:url(#SVGID_00000023256491910941945780000005061015480588360379_);fill:#82A1BA;" width="30.8" height="56.9"/>
			
				<rect x="0.9" y="266.6" style="clip-path:url(#SVGID_00000023256491910941945780000005061015480588360379_);fill:#DDE7DC;" width="30.8" height="56.9"/>
		</g>
	</g>
</g>
<g class="st10">
	<g class="st11">
		<defs>
			<path id="SVGID_00000121991978589777419940000001076945117122717082_" d="M26.6,573.9c0,3.6-5.8,7.9-10.4,7.9h-0.6
				c-4.2,0-9.7-3.8-9.7-7.9v-526c1-4.8,6.3-7.6,10-7.6l0,0c4.2,0,9.7,2.9,10.8,7.8L26.6,573.9L26.6,573.9z"/>
		</defs>
		<clipPath id="SVGID_00000168081998339018831570000002344591917787964845_">
			<use xlink:href="#SVGID_00000121991978589777419940000001076945117122717082_"  style="overflow:visible;"/>
		</clipPath>
		
			<rect x="-4.9" y="40.3" style="clip-path:url(#SVGID_00000168081998339018831570000002344591917787964845_);fill:#C8E8F0;" width="42.3" height="26.6"/>
	</g>
	<g class="st11">
		<defs>
			<path id="SVGID_00000122688272735780091330000009140171421972858257_" d="M26.6,573.9c0,3.6-5.8,7.9-10.4,7.9h-0.6
				c-4.2,0-9.7-3.8-9.7-7.9v-526c1-4.8,6.3-7.6,10-7.6l0,0c4.2,0,9.7,2.9,10.8,7.8L26.6,573.9L26.6,573.9z"/>
		</defs>
		<clipPath id="SVGID_00000124873660633161332060000006099516203226086572_">
			<use xlink:href="#SVGID_00000122688272735780091330000009140171421972858257_"  style="overflow:visible;"/>
		</clipPath>
		
			<rect x="-4.9" y="66.9" style="clip-path:url(#SVGID_00000124873660633161332060000006099516203226086572_);fill:#D0EBF7;" width="42.3" height="26.6"/>
	</g>
	<g class="st11">
		<defs>
			<path id="SVGID_00000168111563095795296350000010412832211260883356_" d="M26.6,573.9c0,3.6-5.8,7.9-10.4,7.9h-0.6
				c-4.2,0-9.7-3.8-9.7-7.9v-526c1-4.8,6.3-7.6,10-7.6l0,0c4.2,0,9.7,2.9,10.8,7.8L26.6,573.9L26.6,573.9z"/>
		</defs>
		<clipPath id="SVGID_00000043447679495533239450000004269742028389023116_">
			<use xlink:href="#SVGID_00000168111563095795296350000010412832211260883356_"  style="overflow:visible;"/>
		</clipPath>
		
			<rect x="-4.9" y="93" style="clip-path:url(#SVGID_00000043447679495533239450000004269742028389023116_);fill:#4898DA;" width="42.3" height="26.6"/>
	</g>
	<g class="st11">
		<defs>
			<path id="SVGID_00000041293330419038821820000003745006012340938892_" d="M26.6,573.9c0,3.6-5.8,7.9-10.4,7.9h-0.6
				c-4.2,0-9.7-3.8-9.7-7.9v-526c1-4.8,6.3-7.6,10-7.6l0,0c4.2,0,9.7,2.9,10.8,7.8L26.6,573.9L26.6,573.9z"/>
		</defs>
		<clipPath id="SVGID_00000024695480226093993570000005243028242777027511_">
			<use xlink:href="#SVGID_00000041293330419038821820000003745006012340938892_"  style="overflow:visible;"/>
		</clipPath>
		
			<rect x="-4.9" y="119.6" style="clip-path:url(#SVGID_00000024695480226093993570000005243028242777027511_);fill:#A3A5D7;" width="42.3" height="26.6"/>
	</g>
	<g class="st11">
		<defs>
			<path id="SVGID_00000118368511625045740360000003722664141780106387_" d="M26.6,573.9c0,3.6-5.8,7.9-10.4,7.9h-0.6
				c-4.2,0-9.7-3.8-9.7-7.9v-526c1-4.8,6.3-7.6,10-7.6l0,0c4.2,0,9.7,2.9,10.8,7.8L26.6,573.9L26.6,573.9z"/>
		</defs>
		<clipPath id="SVGID_00000076575382283846435680000001691870900203171231_">
			<use xlink:href="#SVGID_00000118368511625045740360000003722664141780106387_"  style="overflow:visible;"/>
		</clipPath>
		
			<rect x="-4.9" y="146.2" style="clip-path:url(#SVGID_00000076575382283846435680000001691870900203171231_);fill:#B988C1;" width="42.3" height="26.6"/>
	</g>
	<g class="st11">
		<defs>
			<path id="SVGID_00000113320100931566721220000016605696048584355738_" d="M26.6,573.9c0,3.6-5.8,7.9-10.4,7.9h-0.6
				c-4.2,0-9.7-3.8-9.7-7.9v-526c1-4.8,6.3-7.6,10-7.6l0,0c4.2,0,9.7,2.9,10.8,7.8L26.6,573.9L26.6,573.9z"/>
		</defs>
		<clipPath id="SVGID_00000127758348447188631160000016744330349720224930_">
			<use xlink:href="#SVGID_00000113320100931566721220000016605696048584355738_"  style="overflow:visible;"/>
		</clipPath>
		
			<rect x="-4.9" y="172.9" style="clip-path:url(#SVGID_00000127758348447188631160000016744330349720224930_);fill:#D7A2CD;" width="42.3" height="26.6"/>
	</g>
	<g class="st11">
		<defs>
			<path id="SVGID_00000105390232214115670190000010113354375844950967_" d="M26.6,573.9c0,3.6-5.8,7.9-10.4,7.9h-0.6
				c-4.2,0-9.7-3.8-9.7-7.9v-526c1-4.8,6.3-7.6,10-7.6l0,0c4.2,0,9.7,2.9,10.8,7.8L26.6,573.9L26.6,573.9z"/>
		</defs>
		<clipPath id="SVGID_00000122690678328246665530000017781684249770277761_">
			<use xlink:href="#SVGID_00000105390232214115670190000010113354375844950967_"  style="overflow:visible;"/>
		</clipPath>
		
			<rect x="-4.9" y="199.1" style="clip-path:url(#SVGID_00000122690678328246665530000017781684249770277761_);fill:#E8BEDB;" width="42.3" height="26.6"/>
	</g>
	<g class="st11">
		<defs>
			<path id="SVGID_00000135689789668677812130000010345599175055717791_" d="M26.6,573.9c0,3.6-5.8,7.9-10.4,7.9h-0.6
				c-4.2,0-9.7-3.8-9.7-7.9v-526c1-4.8,6.3-7.6,10-7.6l0,0c4.2,0,9.7,2.9,10.8,7.8L26.6,573.9L26.6,573.9z"/>
		</defs>
		<clipPath id="SVGID_00000104704514777545054750000018078270049586609307_">
			<use xlink:href="#SVGID_00000135689789668677812130000010345599175055717791_"  style="overflow:visible;"/>
		</clipPath>
		
			<rect x="-4.9" y="225.8" style="clip-path:url(#SVGID_00000104704514777545054750000018078270049586609307_);fill:#E67D9B;" width="42.3" height="26.6"/>
	</g>
	<g class="st11">
		<defs>
			<path id="SVGID_00000155851941584793431000000005673115056590120879_" d="M26.6,573.9c0,3.6-5.8,7.9-10.4,7.9h-0.6
				c-4.2,0-9.7-3.8-9.7-7.9v-526c1-4.8,6.3-7.6,10-7.6l0,0c4.2,0,9.7,2.9,10.8,7.8L26.6,573.9L26.6,573.9z"/>
		</defs>
		<clipPath id="SVGID_00000033341584909705596480000008928525432457596813_">
			<use xlink:href="#SVGID_00000155851941584793431000000005673115056590120879_"  style="overflow:visible;"/>
		</clipPath>
		
			<rect x="-4.9" y="252.4" style="clip-path:url(#SVGID_00000033341584909705596480000008928525432457596813_);fill:#DB4C4D;" width="42.3" height="26.6"/>
	</g>
	<g class="st11">
		<defs>
			<path id="SVGID_00000057144265968710727620000014286933910396339078_" d="M26.6,573.9c0,3.6-5.8,7.9-10.4,7.9h-0.6
				c-4.2,0-9.7-3.8-9.7-7.9v-526c1-4.8,6.3-7.6,10-7.6l0,0c4.2,0,9.7,2.9,10.8,7.8L26.6,573.9L26.6,573.9z"/>
		</defs>
		<clipPath id="SVGID_00000003097945887695912320000011750722519970351287_">
			<use xlink:href="#SVGID_00000057144265968710727620000014286933910396339078_"  style="overflow:visible;"/>
		</clipPath>
		
			<rect x="-4.9" y="279" style="clip-path:url(#SVGID_00000003097945887695912320000011750722519970351287_);fill:#EF5A5C;" width="42.3" height="26.6"/>
	</g>
	<g class="st11">
		<defs>
			<path id="SVGID_00000099633931223314103240000000754445669989459371_" d="M26.6,573.9c0,3.6-5.8,7.9-10.4,7.9h-0.6
				c-4.2,0-9.7-3.8-9.7-7.9v-526c1-4.8,6.3-7.6,10-7.6l0,0c4.2,0,9.7,2.9,10.8,7.8L26.6,573.9L26.6,573.9z"/>
		</defs>
		<clipPath id="SVGID_00000159465959353287363400000003832942026629722027_">
			<use xlink:href="#SVGID_00000099633931223314103240000000754445669989459371_"  style="overflow:visible;"/>
		</clipPath>
		
			<rect x="-4.9" y="305.3" style="clip-path:url(#SVGID_00000159465959353287363400000003832942026629722027_);fill:#F7A25C;" width="42.3" height="26.6"/>
	</g>
	<g class="st11">
		<defs>
			<path id="SVGID_00000047757101078782879860000009347060859700947602_" d="M26.6,573.9c0,3.6-5.8,7.9-10.4,7.9h-0.6
				c-4.2,0-9.7-3.8-9.7-7.9v-526c1-4.8,6.3-7.6,10-7.6l0,0c4.2,0,9.7,2.9,10.8,7.8L26.6,573.9L26.6,573.9z"/>
		</defs>
		<clipPath id="SVGID_00000146491827712800938020000017668455931443922598_">
			<use xlink:href="#SVGID_00000047757101078782879860000009347060859700947602_"  style="overflow:visible;"/>
		</clipPath>
		
			<rect x="-4.9" y="331.9" style="clip-path:url(#SVGID_00000146491827712800938020000017668455931443922598_);fill:#FDD58F;" width="42.3" height="26.6"/>
	</g>
	<g class="st11">
		<defs>
			<path id="SVGID_00000183233334328224395000000002447960988081721263_" d="M26.6,573.9c0,3.6-5.8,7.9-10.4,7.9h-0.6
				c-4.2,0-9.7-3.8-9.7-7.9v-526c1-4.8,6.3-7.6,10-7.6l0,0c4.2,0,9.7,2.9,10.8,7.8L26.6,573.9L26.6,573.9z"/>
		</defs>
		<clipPath id="SVGID_00000040546521601364396290000008123821069120943778_">
			<use xlink:href="#SVGID_00000183233334328224395000000002447960988081721263_"  style="overflow:visible;"/>
		</clipPath>
		
			<rect x="-4.9" y="358.5" style="clip-path:url(#SVGID_00000040546521601364396290000008123821069120943778_);fill:#FFE173;" width="42.3" height="26.6"/>
	</g>
	<g class="st11">
		<defs>
			<path id="SVGID_00000075149643957533901300000018120734404850824889_" d="M26.6,573.9c0,3.6-5.8,7.9-10.4,7.9h-0.6
				c-4.2,0-9.7-3.8-9.7-7.9v-526c1-4.8,6.3-7.6,10-7.6l0,0c4.2,0,9.7,2.9,10.8,7.8L26.6,573.9L26.6,573.9z"/>
		</defs>
		<clipPath id="SVGID_00000162341277236339329760000016059430899030872465_">
			<use xlink:href="#SVGID_00000075149643957533901300000018120734404850824889_"  style="overflow:visible;"/>
		</clipPath>
		
			<rect x="-4.9" y="385.1" style="clip-path:url(#SVGID_00000162341277236339329760000016059430899030872465_);fill:#FEFE82;" width="42.3" height="26.6"/>
	</g>
	<g class="st11">
		<defs>
			<path id="SVGID_00000138556518411353234220000007209796243612229763_" d="M26.6,573.9c0,3.6-5.8,7.9-10.4,7.9h-0.6
				c-4.2,0-9.7-3.8-9.7-7.9v-526c1-4.8,6.3-7.6,10-7.6l0,0c4.2,0,9.7,2.9,10.8,7.8L26.6,573.9L26.6,573.9z"/>
		</defs>
		<clipPath id="SVGID_00000101074782830086862230000016695213142268975547_">
			<use xlink:href="#SVGID_00000138556518411353234220000007209796243612229763_"  style="overflow:visible;"/>
		</clipPath>
		
			<rect x="-4.9" y="411.4" style="clip-path:url(#SVGID_00000101074782830086862230000016695213142268975547_);fill:#FFFFC7;" width="42.3" height="26.6"/>
	</g>
	<g class="st11">
		<defs>
			<path id="SVGID_00000099649612127527618310000002668882585114304167_" d="M26.6,573.9c0,3.6-5.8,7.9-10.4,7.9h-0.6
				c-4.2,0-9.7-3.8-9.7-7.9v-526c1-4.8,6.3-7.6,10-7.6l0,0c4.2,0,9.7,2.9,10.8,7.8L26.6,573.9L26.6,573.9z"/>
		</defs>
		<clipPath id="SVGID_00000106113033183839956840000017808203316083151746_">
			<use xlink:href="#SVGID_00000099649612127527618310000002668882585114304167_"  style="overflow:visible;"/>
		</clipPath>
		
			<rect x="-4.9" y="438" style="clip-path:url(#SVGID_00000106113033183839956840000017808203316083151746_);fill:#F3F3A1;" width="42.3" height="26.6"/>
	</g>
	<g class="st11">
		<defs>
			<path id="SVGID_00000155148459543946727970000012351065422787437463_" d="M26.6,573.9c0,3.6-5.8,7.9-10.4,7.9h-0.6
				c-4.2,0-9.7-3.8-9.7-7.9v-526c1-4.8,6.3-7.6,10-7.6l0,0c4.2,0,9.7,2.9,10.8,7.8L26.6,573.9L26.6,573.9z"/>
		</defs>
		<clipPath id="SVGID_00000060746574857595388610000006401722083595396017_">
			<use xlink:href="#SVGID_00000155148459543946727970000012351065422787437463_"  style="overflow:visible;"/>
		</clipPath>
		
			<rect x="-4.9" y="464.7" style="clip-path:url(#SVGID_00000060746574857595388610000006401722083595396017_);fill:#D3ECA4;" width="42.3" height="26.6"/>
	</g>
	<g class="st11">
		<defs>
			<path id="SVGID_00000119817187388244363170000003361927329487512483_" d="M26.6,573.9c0,3.6-5.8,7.9-10.4,7.9h-0.6
				c-4.2,0-9.7-3.8-9.7-7.9v-526c1-4.8,6.3-7.6,10-7.6l0,0c4.2,0,9.7,2.9,10.8,7.8L26.6,573.9L26.6,573.9z"/>
		</defs>
		<clipPath id="SVGID_00000147900922164841986120000004541659471126406536_">
			<use xlink:href="#SVGID_00000119817187388244363170000003361927329487512483_"  style="overflow:visible;"/>
		</clipPath>
		
			<rect x="-4.9" y="491.3" style="clip-path:url(#SVGID_00000147900922164841986120000004541659471126406536_);fill:#C3E6D8;" width="42.3" height="26.6"/>
	</g>
	<g class="st11">
		<defs>
			<path id="SVGID_00000096740727925469120050000008443380281339131837_" d="M26.6,573.9c0,3.6-5.8,7.9-10.4,7.9h-0.6
				c-4.2,0-9.7-3.8-9.7-7.9v-526c1-4.8,6.3-7.6,10-7.6l0,0c4.2,0,9.7,2.9,10.8,7.8L26.6,573.9L26.6,573.9z"/>
		</defs>
		<clipPath id="SVGID_00000170962484033458384830000010576940412658369427_">
			<use xlink:href="#SVGID_00000096740727925469120050000008443380281339131837_"  style="overflow:visible;"/>
		</clipPath>
		
			<rect x="-4.9" y="517.9" style="clip-path:url(#SVGID_00000170962484033458384830000010576940412658369427_);fill:#C8E8F0;" width="42.3" height="26.6"/>
	</g>
	<g class="st11">
		<defs>
			<path id="SVGID_00000125566740326110669840000001406133428361016962_" d="M26.6,573.9c0,3.6-5.8,7.9-10.4,7.9h-0.6
				c-4.2,0-9.7-3.8-9.7-7.9v-526c1-4.8,6.3-7.6,10-7.6l0,0c4.2,0,9.7,2.9,10.8,7.8L26.6,573.9L26.6,573.9z"/>
		</defs>
		<clipPath id="SVGID_00000001635025956949218520000002029863573852732839_">
			<use xlink:href="#SVGID_00000125566740326110669840000001406133428361016962_"  style="overflow:visible;"/>
		</clipPath>
		
			<rect x="-4.9" y="544.5" style="clip-path:url(#SVGID_00000001635025956949218520000002029863573852732839_);fill:#D0EBF7;" width="42.3" height="40.2"/>
	</g>
</g>
<g>
	<g class="st10">
		<g class="st11">
			<defs>
				<path id="SVGID_00000156578744557438001110000003039421721783906978_" d="M26.4,574.1c-0.3,3.3-5.5,7.3-10.1,7.3l0,0
					c-4.5,0.4-10.6-3.2-10.6-7.3v-526c1-4.8,6.3-7.6,10-7.6l0,0c4.2,0,9.7,2.9,10.8,7.8L26.4,574.1L26.4,574.1z"/>
			</defs>
			<clipPath id="SVGID_00000060749193658106986310000001430215800869035426_">
				<use xlink:href="#SVGID_00000156578744557438001110000003039421721783906978_"  style="overflow:visible;"/>
			</clipPath>
			
				<rect x="0.7" y="489.2" style="clip-path:url(#SVGID_00000060749193658106986310000001430215800869035426_);fill:#EC2426;" width="30.9" height="96.8"/>
		</g>
		<g class="st11">
			<defs>
				<path id="SVGID_00000038377478663842938210000006619237102307498157_" d="M26.4,574.1c-0.3,3.3-5.5,7.3-10.1,7.3l0,0
					c-4.5,0.4-10.6-3.2-10.6-7.3v-526c1-4.8,6.3-7.6,10-7.6l0,0c4.2,0,9.7,2.9,10.8,7.8L26.4,574.1L26.4,574.1z"/>
			</defs>
			<clipPath id="SVGID_00000130623537859135535570000016007283946209161378_">
				<use xlink:href="#SVGID_00000038377478663842938210000006619237102307498157_"  style="overflow:visible;"/>
			</clipPath>
			
				<rect x="1" y="313.2" style="clip-path:url(#SVGID_00000130623537859135535570000016007283946209161378_);fill:#FCFC1E;" width="30.9" height="88"/>
		</g>
		<g class="st11">
			<defs>
				<path id="SVGID_00000106113091832528397550000013464761083360571796_" d="M26.4,574.1c-0.3,3.3-5.5,7.3-10.1,7.3l0,0
					c-4.5,0.4-10.6-3.2-10.6-7.3v-526c1-4.8,6.3-7.6,10-7.6l0,0c4.2,0,9.7,2.9,10.8,7.8L26.4,574.1L26.4,574.1z"/>
			</defs>
			<clipPath id="SVGID_00000151527612143831681150000012358983111151078278_">
				<use xlink:href="#SVGID_00000106113091832528397550000013464761083360571796_"  style="overflow:visible;"/>
			</clipPath>
			
				<rect x="1" y="225.2" style="clip-path:url(#SVGID_00000151527612143831681150000012358983111151078278_);fill:#0B7F3F;" width="30.9" height="88"/>
		</g>
		<g class="st11">
			<defs>
				<path id="SVGID_00000079466002101491719450000014293252878067535281_" d="M26.4,574.1c-0.3,3.3-5.5,7.3-10.1,7.3l0,0
					c-4.5,0.4-10.6-3.2-10.6-7.3v-526c1-4.8,6.3-7.6,10-7.6l0,0c4.2,0,9.7,2.9,10.8,7.8L26.4,574.1L26.4,574.1z"/>
			</defs>
			<clipPath id="SVGID_00000168074950888977476180000011922780603041454764_">
				<use xlink:href="#SVGID_00000079466002101491719450000014293252878067535281_"  style="overflow:visible;"/>
			</clipPath>
			
				<rect x="0.7" y="401.2" style="clip-path:url(#SVGID_00000168074950888977476180000011922780603041454764_);fill:#F7A426;" width="30.9" height="88"/>
		</g>
		<g class="st11">
			<defs>
				<path id="SVGID_00000031202238555158006130000005378411137490997677_" d="M26.4,574.1c-0.3,3.3-5.5,7.3-10.1,7.3l0,0
					c-4.5,0.4-10.6-3.2-10.6-7.3v-526c1-4.8,6.3-7.6,10-7.6l0,0c4.2,0,9.7,2.9,10.8,7.8L26.4,574.1L26.4,574.1z"/>
			</defs>
			<clipPath id="SVGID_00000057135407266733136360000002518961960475525303_">
				<use xlink:href="#SVGID_00000031202238555158006130000005378411137490997677_"  style="overflow:visible;"/>
			</clipPath>
			
				<rect x="1" y="137.2" style="clip-path:url(#SVGID_00000057135407266733136360000002518961960475525303_);fill:#6FC9DC;" width="30.9" height="88"/>
		</g>
		<g class="st11">
			<defs>
				<path id="SVGID_00000005228384557421004660000004149073273873439121_" d="M26.4,574.1c-0.3,3.3-5.5,7.3-10.1,7.3l0,0
					c-4.5,0.4-10.6-3.2-10.6-7.3v-526c1-4.8,6.3-7.6,10-7.6l0,0c4.2,0,9.7,2.9,10.8,7.8L26.4,574.1L26.4,574.1z"/>
			</defs>
			<clipPath id="SVGID_00000118399009440201962940000017046095413361182613_">
				<use xlink:href="#SVGID_00000005228384557421004660000004149073273873439121_"  style="overflow:visible;"/>
			</clipPath>
			
				<rect x="1" y="40.4" style="clip-path:url(#SVGID_00000118399009440201962940000017046095413361182613_);fill:#3F57B0;" width="30.9" height="96.8"/>
		</g>
	</g>
</g>
<circle class="st38" cx="16.1" cy="21.8" r="14.6"/>
<path class="st39" d="M26.4,574.1c-0.3,3.3-5.5,7.3-10.1,7.3l0,0c-4.5,0.4-10.6-3.2-10.6-7.3v-526c1-4.8,6.3-7.6,10-7.6l0,0
	c4.2,0,9.7,2.9,10.8,7.8L26.4,574.1L26.4,574.1z"/>
<g>
	<path class="st40" d="M11.5,572.6c-0.4-0.4-0.6-1-0.6-1.8c0-0.7,0.2-1.3,0.6-1.8c0.4-0.4,0.9-0.7,1.5-0.7s1.1,0.2,1.5,0.7
		c0.4,0.4,0.6,1,0.6,1.8s-0.2,1.3-0.6,1.8c-0.4,0.4-0.9,0.7-1.5,0.7S11.8,573.1,11.5,572.6z M13.8,572c0.2-0.3,0.3-0.7,0.3-1.1
		c0-0.5-0.1-0.9-0.3-1.1s-0.5-0.4-0.8-0.4c-0.3,0-0.6,0.1-0.8,0.4s-0.3,0.7-0.3,1.1c0,0.5,0.1,0.9,0.3,1.1c0.2,0.3,0.5,0.4,0.8,0.4
		C13.3,572.4,13.6,572.3,13.8,572z M18.3,568.5h1.2l-6.1,8.9h-1.2L18.3,568.5z M17.3,576.8c-0.4-0.4-0.6-1-0.6-1.8
		c0-0.7,0.2-1.3,0.6-1.8c0.4-0.4,0.9-0.7,1.5-0.7c0.6,0,1.1,0.2,1.5,0.7c0.4,0.4,0.6,1,0.6,1.8c0,0.7-0.2,1.3-0.6,1.8
		c-0.4,0.4-0.9,0.7-1.5,0.7C18.2,577.5,17.7,577.3,17.3,576.8z M19.6,576.2c0.2-0.3,0.3-0.7,0.3-1.1s-0.1-0.9-0.3-1.1
		c-0.2-0.3-0.5-0.4-0.8-0.4c-0.3,0-0.6,0.1-0.8,0.4c-0.2,0.3-0.3,0.7-0.3,1.1c0,0.5,0.1,0.9,0.3,1.1c0.2,0.3,0.5,0.4,0.8,0.4
		C19.2,576.6,19.4,576.5,19.6,576.2z"/>
</g>
<g>
	<path class="st40" d="M15,348.7c0.4,0.3,0.6,0.7,0.6,1.2c0,0.3-0.1,0.6-0.2,0.9c-0.2,0.3-0.4,0.5-0.7,0.6c-0.3,0.2-0.7,0.2-1.2,0.2
		c-0.4,0-0.8-0.1-1.1-0.2c-0.4-0.1-0.7-0.3-0.9-0.5l0.4-0.8c0.2,0.2,0.4,0.3,0.7,0.4c0.3,0.1,0.6,0.1,0.9,0.1c0.4,0,0.6-0.1,0.8-0.2
		c0.2-0.1,0.3-0.4,0.3-0.6c0-0.3-0.1-0.5-0.3-0.6c-0.2-0.1-0.6-0.2-1.1-0.2h-1.3l0.3-3h3.2v0.9h-2.4l-0.1,1.3h0.5
		C14,348.3,14.6,348.4,15,348.7z"/>
	<path class="st40" d="M17.2,351.4c-0.3-0.2-0.6-0.5-0.8-1c-0.2-0.4-0.3-0.9-0.3-1.5c0-0.6,0.1-1.1,0.3-1.5c0.2-0.4,0.5-0.7,0.8-1
		c0.3-0.2,0.7-0.3,1.2-0.3c0.4,0,0.8,0.1,1.2,0.3c0.3,0.2,0.6,0.5,0.8,1c0.2,0.4,0.3,0.9,0.3,1.5c0,0.6-0.1,1.1-0.3,1.5
		c-0.2,0.4-0.5,0.7-0.8,1c-0.3,0.2-0.7,0.3-1.2,0.3C18,351.7,17.6,351.6,17.2,351.4z M19.3,350.4c0.2-0.3,0.3-0.8,0.3-1.4
		c0-0.6-0.1-1.1-0.3-1.4c-0.2-0.3-0.5-0.5-0.9-0.5c-0.4,0-0.7,0.2-0.9,0.5c-0.2,0.3-0.3,0.8-0.3,1.4c0,0.6,0.1,1.1,0.3,1.4
		c0.2,0.3,0.5,0.5,0.9,0.5C18.8,350.8,19.1,350.7,19.3,350.4z"/>
</g>
<g>
	<path class="st40" d="M14.8,291.8c0.3,0.1,0.5,0.3,0.7,0.6c0.2,0.3,0.2,0.6,0.2,0.9c0,0.4-0.1,0.7-0.3,0.9
		c-0.2,0.3-0.4,0.5-0.7,0.6c-0.3,0.1-0.6,0.2-1,0.2c-0.8,0-1.3-0.2-1.7-0.7c-0.4-0.5-0.6-1.1-0.6-2c0-0.6,0.1-1.1,0.3-1.6
		c0.2-0.4,0.5-0.8,0.9-1c0.4-0.2,0.9-0.3,1.4-0.3c0.3,0,0.5,0,0.8,0.1c0.2,0.1,0.5,0.1,0.6,0.3l-0.4,0.8c-0.3-0.2-0.6-0.3-1-0.3
		c-0.5,0-0.9,0.2-1.2,0.5c-0.3,0.3-0.4,0.8-0.4,1.4v0c0.2-0.2,0.4-0.3,0.6-0.4s0.5-0.1,0.8-0.1C14.2,291.5,14.5,291.6,14.8,291.8z
		 M14.4,293.9c0.2-0.2,0.3-0.4,0.3-0.7c0-0.3-0.1-0.5-0.3-0.7s-0.5-0.3-0.8-0.3c-0.3,0-0.6,0.1-0.8,0.3c-0.2,0.2-0.3,0.4-0.3,0.7
		c0,0.3,0.1,0.5,0.3,0.7c0.2,0.2,0.5,0.3,0.8,0.3C14,294.2,14.2,294.1,14.4,293.9z"/>
	<path class="st40" d="M17.4,294.7c-0.3-0.2-0.6-0.5-0.8-1c-0.2-0.4-0.3-0.9-0.3-1.5s0.1-1.1,0.3-1.5c0.2-0.4,0.5-0.7,0.8-1
		c0.3-0.2,0.7-0.3,1.2-0.3c0.4,0,0.8,0.1,1.2,0.3s0.6,0.5,0.8,1c0.2,0.4,0.3,0.9,0.3,1.5s-0.1,1.1-0.3,1.5c-0.2,0.4-0.5,0.7-0.8,1
		S19,295,18.5,295C18.1,295,17.7,294.9,17.4,294.7z M19.5,293.6c0.2-0.3,0.3-0.8,0.3-1.4s-0.1-1.1-0.3-1.4c-0.2-0.3-0.5-0.5-0.9-0.5
		c-0.4,0-0.7,0.2-0.9,0.5c-0.2,0.3-0.3,0.8-0.3,1.4s0.1,1.1,0.3,1.4c0.2,0.3,0.5,0.5,0.9,0.5C18.9,294.1,19.2,294,19.5,293.6z"/>
</g>
<g>
	<path class="st40" d="M16,232.7v0.7l-2.1,4.8h-1.1l2.1-4.6h-2.1v0.9h-0.9v-1.8L16,232.7L16,232.7z"/>
	<path class="st40" d="M17.6,237.9c-0.3-0.2-0.6-0.5-0.8-1c-0.2-0.4-0.3-0.9-0.3-1.5c0-0.6,0.1-1.1,0.3-1.5c0.2-0.4,0.5-0.7,0.8-1
		c0.3-0.2,0.7-0.3,1.2-0.3c0.4,0,0.8,0.1,1.2,0.3c0.3,0.2,0.6,0.5,0.8,1c0.2,0.4,0.3,0.9,0.3,1.5c0,0.6-0.1,1.1-0.3,1.5
		c-0.2,0.4-0.5,0.7-0.8,1c-0.3,0.2-0.7,0.3-1.2,0.3C18.4,238.3,18,238.2,17.6,237.9z M19.7,236.9c0.2-0.3,0.3-0.8,0.3-1.4
		c0-0.6-0.1-1.1-0.3-1.4c-0.2-0.3-0.5-0.5-0.9-0.5c-0.4,0-0.7,0.2-0.9,0.5c-0.2,0.3-0.3,0.8-0.3,1.4c0,0.6,0.1,1.1,0.3,1.4
		c0.2,0.3,0.5,0.5,0.9,0.5C19.2,237.4,19.5,237.2,19.7,236.9z"/>
</g>
<g>
	<path class="st40" d="M16.2,181.9c0.2,0.2,0.2,0.5,0.2,0.8c0,0.3-0.1,0.6-0.3,0.9c-0.2,0.3-0.4,0.4-0.8,0.6
		c-0.3,0.1-0.7,0.2-1.2,0.2c-0.4,0-0.8-0.1-1.2-0.2c-0.3-0.1-0.6-0.3-0.8-0.6c-0.2-0.3-0.3-0.5-0.3-0.9c0-0.3,0.1-0.6,0.2-0.8
		c0.2-0.2,0.4-0.4,0.6-0.5c-0.2-0.1-0.4-0.3-0.5-0.5c-0.1-0.2-0.2-0.4-0.2-0.7c0-0.3,0.1-0.6,0.3-0.8c0.2-0.2,0.4-0.4,0.7-0.5
		c0.3-0.1,0.7-0.2,1.1-0.2c0.4,0,0.8,0.1,1.1,0.2c0.3,0.1,0.5,0.3,0.7,0.5c0.2,0.2,0.3,0.5,0.3,0.8c0,0.3-0.1,0.5-0.2,0.7
		c-0.1,0.2-0.3,0.4-0.5,0.5C15.8,181.6,16,181.7,16.2,181.9z M15.1,183.3c0.2-0.2,0.3-0.4,0.3-0.6c0-0.3-0.1-0.5-0.3-0.6
		c-0.2-0.2-0.5-0.2-0.9-0.2s-0.7,0.1-0.9,0.2c-0.2,0.2-0.3,0.4-0.3,0.6c0,0.3,0.1,0.5,0.3,0.6c0.2,0.2,0.5,0.2,0.9,0.2
		C14.6,183.6,14.9,183.5,15.1,183.3z M13.4,179.7c-0.2,0.1-0.3,0.3-0.3,0.6c0,0.2,0.1,0.4,0.3,0.6c0.2,0.1,0.4,0.2,0.8,0.2
		c0.3,0,0.6-0.1,0.8-0.2c0.2-0.1,0.3-0.3,0.3-0.6c0-0.2-0.1-0.4-0.3-0.6c-0.2-0.1-0.4-0.2-0.8-0.2S13.6,179.6,13.4,179.7z"/>
	<path class="st40" d="M18.2,184c-0.3-0.2-0.6-0.5-0.8-1c-0.2-0.4-0.3-0.9-0.3-1.5s0.1-1.1,0.3-1.5c0.2-0.4,0.5-0.7,0.8-1
		c0.3-0.2,0.7-0.3,1.2-0.3c0.4,0,0.8,0.1,1.2,0.3s0.6,0.5,0.8,1s0.3,0.9,0.3,1.5s-0.1,1.1-0.3,1.5c-0.2,0.4-0.5,0.7-0.8,1
		c-0.3,0.2-0.7,0.3-1.2,0.3C18.9,184.4,18.5,184.3,18.2,184z M20.3,183c0.2-0.3,0.3-0.8,0.3-1.4c0-0.6-0.1-1.1-0.3-1.4
		c-0.2-0.3-0.5-0.5-0.9-0.5c-0.4,0-0.7,0.2-0.9,0.5c-0.2,0.3-0.3,0.8-0.3,1.4c0,0.6,0.1,1.1,0.3,1.4c0.2,0.3,0.5,0.5,0.9,0.5
		C19.8,183.5,20.1,183.3,20.3,183z"/>
</g>
<g>
	<path class="st40" d="M14.8,122.7c0.4,0.5,0.6,1.1,0.6,2c0,0.6-0.1,1.1-0.3,1.6c-0.2,0.4-0.5,0.8-0.9,1c-0.4,0.2-0.9,0.3-1.4,0.3
		c-0.3,0-0.5,0-0.8-0.1c-0.2-0.1-0.5-0.1-0.6-0.3l0.4-0.8c0.3,0.2,0.6,0.3,1,0.3c0.5,0,0.9-0.2,1.2-0.5c0.3-0.3,0.4-0.8,0.4-1.4v0
		c-0.2,0.2-0.4,0.3-0.6,0.4c-0.3,0.1-0.5,0.1-0.8,0.1c-0.4,0-0.7-0.1-1-0.2c-0.3-0.1-0.5-0.3-0.7-0.6c-0.2-0.3-0.2-0.6-0.2-0.9
		c0-0.4,0.1-0.7,0.3-0.9c0.2-0.3,0.4-0.5,0.7-0.6c0.3-0.1,0.6-0.2,1-0.2C13.8,122,14.4,122.2,14.8,122.7z M14,124.4
		c0.2-0.2,0.3-0.4,0.3-0.7c0-0.3-0.1-0.5-0.3-0.7c-0.2-0.2-0.5-0.3-0.8-0.3c-0.3,0-0.6,0.1-0.8,0.3c-0.2,0.2-0.3,0.4-0.3,0.7
		c0,0.3,0.1,0.5,0.3,0.7c0.2,0.2,0.5,0.3,0.8,0.3C13.5,124.6,13.7,124.5,14,124.4z"/>
	<path class="st40" d="M17.2,127.3c-0.3-0.2-0.6-0.5-0.8-1c-0.2-0.4-0.3-0.9-0.3-1.5c0-0.6,0.1-1.1,0.3-1.5c0.2-0.4,0.5-0.7,0.8-1
		c0.3-0.2,0.7-0.3,1.2-0.3c0.4,0,0.8,0.1,1.2,0.3s0.6,0.5,0.8,1c0.2,0.4,0.3,0.9,0.3,1.5c0,0.6-0.1,1.1-0.3,1.5
		c-0.2,0.4-0.5,0.7-0.8,1c-0.3,0.2-0.7,0.3-1.2,0.3C18,127.6,17.6,127.5,17.2,127.3z M19.3,126.2c0.2-0.3,0.3-0.8,0.3-1.4
		s-0.1-1.1-0.3-1.4c-0.2-0.3-0.5-0.5-0.9-0.5c-0.4,0-0.7,0.2-0.9,0.5c-0.2,0.3-0.3,0.8-0.3,1.4s0.1,1.1,0.3,1.4
		c0.2,0.3,0.5,0.5,0.9,0.5C18.8,126.7,19.1,126.5,19.3,126.2z"/>
</g>
<g>
	<path class="st40" d="M12.2,66.2v5.5h-1v-4.6H10v-0.9H12.2z"/>
	<path class="st40" d="M14.4,71.4c-0.3-0.2-0.6-0.5-0.8-1c-0.2-0.4-0.3-0.9-0.3-1.5c0-0.6,0.1-1.1,0.3-1.5c0.2-0.4,0.5-0.7,0.8-1
		c0.3-0.2,0.7-0.3,1.2-0.3s0.8,0.1,1.2,0.3c0.3,0.2,0.6,0.5,0.8,1c0.2,0.4,0.3,0.9,0.3,1.5c0,0.6-0.1,1.1-0.3,1.5
		c-0.2,0.4-0.5,0.7-0.8,1c-0.3,0.2-0.7,0.3-1.2,0.3C15.1,71.8,14.7,71.7,14.4,71.4z M16.5,70.4c0.2-0.3,0.3-0.8,0.3-1.4
		c0-0.6-0.1-1.1-0.3-1.4c-0.2-0.3-0.5-0.5-0.9-0.5c-0.4,0-0.7,0.2-0.9,0.5c-0.2,0.3-0.3,0.8-0.3,1.4c0,0.6,0.1,1.1,0.3,1.4
		c0.2,0.3,0.5,0.5,0.9,0.5C15.9,70.9,16.2,70.7,16.5,70.4z"/>
	<path class="st40" d="M19.6,71.4c-0.3-0.2-0.6-0.5-0.8-1c-0.2-0.4-0.3-0.9-0.3-1.5c0-0.6,0.1-1.1,0.3-1.5c0.2-0.4,0.5-0.7,0.8-1
		s0.7-0.3,1.2-0.3c0.4,0,0.8,0.1,1.2,0.3c0.3,0.2,0.6,0.5,0.8,1c0.2,0.4,0.3,0.9,0.3,1.5c0,0.6-0.1,1.1-0.3,1.5
		c-0.2,0.4-0.5,0.7-0.8,1s-0.7,0.3-1.2,0.3C20.4,71.8,20,71.7,19.6,71.4z M21.7,70.4c0.2-0.3,0.3-0.8,0.3-1.4c0-0.6-0.1-1.1-0.3-1.4
		c-0.2-0.3-0.5-0.5-0.9-0.5c-0.4,0-0.7,0.2-0.9,0.5c-0.2,0.3-0.3,0.8-0.3,1.4c0,0.6,0.1,1.1,0.3,1.4c0.2,0.3,0.5,0.5,0.9,0.5
		C21.2,70.9,21.5,70.7,21.7,70.4z"/>
</g>
<g>
	<path class="st41" d="M9.8,28.5h12.4c2.6,0,4.8-1.8,5.3-4.2c0.3-1.6-0.1-3.2-1.1-4.4c-0.9-1-2.1-1.7-3.4-1.9v-1.2
		c0-4.2-3.8-7.5-7.9-7c-3.5,0.4-6.2,3.5-6.2,7.3V18c-1.1,0.1-2.2,0.7-3,1.5c-1.2,1.2-1.7,2.9-1.5,4.6C4.8,26.5,7.3,28.5,9.8,28.5z
		 M6.9,20.5c0.7-0.7,1.7-1.1,2.7-1.1c0.4,0,0.7-0.3,0.7-0.7v-1.6c0-3.1,2.5-5.9,5.7-5.9c3.1,0,5.7,2.6,5.7,5.7v1.8
		c0,0.4,0.3,0.7,0.7,0.7c1.2,0,2.3,0.5,3,1.4c0.7,0.9,1,2.1,0.8,3.3c-0.4,1.8-2,3.1-4,3.1H9.8c-1.8,0-3.7-1.5-4-3.2
		C5.6,22.6,6,21.4,6.9,20.5z"/>
</g>
<rect x="11.2" y="28.5" class="st42" width="9.5" height="5.3"/>
<g class="st43">
	<path class="st41" d="M15.1,29.2h-1.3v-0.6h3.3v0.6h-1.3v3.3h-0.7L15.1,29.2L15.1,29.2z"/>
</g>
<g>
	<path class="st40" d="M16,404.9h-0.9v1.2h-1.3v-1.2h-3V404l2.6-3.6h1.4l-2.4,3.4h1.5v-1h1.2v1H16V404.9z"/>
	<path class="st40" d="M17.6,405.8c-0.4-0.2-0.6-0.6-0.9-1c-0.2-0.4-0.3-1-0.3-1.6s0.1-1.1,0.3-1.6c0.2-0.4,0.5-0.8,0.9-1
		c0.4-0.2,0.8-0.3,1.2-0.3s0.9,0.1,1.2,0.3c0.4,0.2,0.6,0.6,0.9,1c0.2,0.4,0.3,1,0.3,1.6s-0.1,1.1-0.3,1.6s-0.5,0.8-0.9,1
		c-0.4,0.2-0.8,0.3-1.2,0.3S17.9,406,17.6,405.8z M19.6,404.6c0.2-0.3,0.3-0.7,0.3-1.4s-0.1-1.1-0.3-1.4c-0.2-0.3-0.5-0.4-0.8-0.4
		c-0.3,0-0.6,0.1-0.8,0.4c-0.2,0.3-0.3,0.7-0.3,1.4s0.1,1.1,0.3,1.4c0.2,0.3,0.5,0.4,0.8,0.4C19.2,405,19.4,404.9,19.6,404.6z"/>
</g>
<g>
	<path class="st40" d="M15,453.2c0.3,0.3,0.4,0.6,0.4,1.1c0,0.3-0.1,0.6-0.3,0.9c-0.2,0.3-0.4,0.5-0.8,0.7c-0.3,0.2-0.8,0.2-1.3,0.2
		c-0.4,0-0.8-0.1-1.2-0.2c-0.4-0.1-0.7-0.3-1-0.4l0.5-1c0.2,0.2,0.5,0.3,0.7,0.4c0.3,0.1,0.6,0.1,0.9,0.1c0.3,0,0.6-0.1,0.8-0.2
		c0.2-0.1,0.3-0.3,0.3-0.5c0-0.5-0.3-0.7-1-0.7h-0.6v-0.9l1.2-1.3h-2.4v-1h3.9v0.8l-1.3,1.4C14.3,452.7,14.7,452.9,15,453.2z"/>
	<path class="st40" d="M17.1,455.7c-0.4-0.2-0.6-0.6-0.9-1c-0.2-0.4-0.3-1-0.3-1.6s0.1-1.1,0.3-1.6c0.2-0.4,0.5-0.8,0.9-1
		c0.4-0.2,0.8-0.3,1.2-0.3c0.5,0,0.9,0.1,1.2,0.3c0.4,0.2,0.6,0.6,0.9,1c0.2,0.4,0.3,1,0.3,1.6s-0.1,1.1-0.3,1.6s-0.5,0.8-0.9,1
		s-0.8,0.3-1.2,0.3C17.9,456.1,17.5,456,17.1,455.7z M19.2,454.5c0.2-0.3,0.3-0.7,0.3-1.4s-0.1-1.1-0.3-1.4
		c-0.2-0.3-0.5-0.4-0.8-0.4c-0.3,0-0.6,0.1-0.8,0.4c-0.2,0.3-0.3,0.7-0.3,1.4s0.1,1.1,0.3,1.4c0.2,0.3,0.5,0.4,0.8,0.4
		C18.7,455,19,454.8,19.2,454.5z"/>
</g>
<g>
	<path class="st40" d="M15.5,506.5v1.1h-4.2v-0.8l2.2-2c0.2-0.2,0.4-0.4,0.5-0.6c0.1-0.2,0.1-0.3,0.1-0.5c0-0.2-0.1-0.4-0.2-0.5
		c-0.2-0.1-0.4-0.2-0.7-0.2c-0.2,0-0.5,0-0.7,0.1c-0.2,0.1-0.4,0.2-0.5,0.4l-0.9-0.6c0.2-0.3,0.5-0.6,0.9-0.8
		c0.4-0.2,0.8-0.3,1.3-0.3c0.4,0,0.8,0.1,1.1,0.2s0.6,0.3,0.7,0.6s0.3,0.5,0.3,0.9c0,0.3-0.1,0.6-0.2,0.9s-0.4,0.6-0.7,0.9l-1.3,1.2
		H15.5z"/>
	<path class="st40" d="M17.2,507.3c-0.4-0.2-0.6-0.6-0.9-1c-0.2-0.4-0.3-1-0.3-1.6s0.1-1.1,0.3-1.6c0.2-0.4,0.5-0.8,0.9-1
		c0.4-0.2,0.8-0.3,1.2-0.3c0.5,0,0.9,0.1,1.2,0.3c0.4,0.2,0.6,0.6,0.9,1c0.2,0.4,0.3,1,0.3,1.6s-0.1,1.1-0.3,1.6s-0.5,0.8-0.9,1
		s-0.8,0.3-1.2,0.3C18,507.7,17.6,507.6,17.2,507.3z M19.2,506.2c0.2-0.3,0.3-0.7,0.3-1.4s-0.1-1.1-0.3-1.4
		c-0.2-0.3-0.5-0.4-0.8-0.4c-0.3,0-0.6,0.1-0.8,0.4c-0.2,0.3-0.3,0.7-0.3,1.4s0.1,1.1,0.3,1.4c0.2,0.3,0.5,0.4,0.8,0.4
		C18.8,506.6,19,506.4,19.2,506.2z"/>
</g>
<g>
	<path class="st40" d="M14.2,546.6v5.6h-1.3v-4.6h-1.1v-1H14.2z"/>
	<path class="st40" d="M16.3,552c-0.4-0.2-0.6-0.6-0.9-1c-0.2-0.4-0.3-1-0.3-1.6s0.1-1.1,0.3-1.6c0.2-0.4,0.5-0.8,0.9-1
		c0.4-0.2,0.8-0.3,1.2-0.3s0.9,0.1,1.2,0.3c0.4,0.2,0.6,0.6,0.9,1c0.2,0.4,0.3,1,0.3,1.6s-0.1,1.1-0.3,1.6s-0.5,0.8-0.9,1
		c-0.4,0.2-0.8,0.3-1.2,0.3S16.7,552.2,16.3,552z M18.4,550.8c0.2-0.3,0.3-0.7,0.3-1.4s-0.1-1.1-0.3-1.4c-0.2-0.3-0.5-0.4-0.8-0.4
		c-0.3,0-0.6,0.1-0.8,0.4c-0.2,0.3-0.3,0.7-0.3,1.4s0.1,1.1,0.3,1.4c0.2,0.3,0.5,0.4,0.8,0.4C17.9,551.2,18.2,551.1,18.4,550.8z"/>
</g>
</svg>
