<?xml version="1.0" encoding="utf-8"?>
<!-- Generator: Adobe Illustrator 16.0.0, SVG Export Plug-In . SVG Version: 6.00 Build 0)  -->
<!DOCTYPE svg PUBLIC "-//W3C//DTD SVG 1.1//EN" "http://www.w3.org/Graphics/SVG/1.1/DTD/svg11.dtd">
<svg version="1.1" id="Livello_1" xmlns="http://www.w3.org/2000/svg" xmlns:xlink="http://www.w3.org/1999/xlink" x="0px" y="0px"
	 width="32.746px" height="590.697px" viewBox="0 0 32.746 590.697" enable-background="new 0 0 32.746 590.697"
	 xml:space="preserve">
<g>
	<g>
		<defs>
			<path id="SVGID_1_" d="M27.261,580.714c-0.316,3.428-5.672,7.51-10.307,7.51l0,0c-4.594,0.367-10.877-3.316-10.877-7.51V42.467
				c1.021-4.94,6.492-7.798,10.182-7.792l0,0c4.297-0.006,9.896,2.929,11.002,7.984V580.714L27.261,580.714z"/>
		</defs>
		<clipPath id="SVGID_2_">
			<use xlink:href="#SVGID_1_"  overflow="visible"/>
		</clipPath>
		<rect x="0.88" y="495.265" clip-path="url(#SVGID_2_)" fill="#F7F8F8" width="31.578" height="99.045"/>
		<rect x="1.196" y="315.187" clip-path="url(#SVGID_2_)" fill="#E9E9E9" width="31.578" height="90.041"/>
		<rect x="1.196" y="225.147" clip-path="url(#SVGID_2_)" fill="#E2E2E2" width="31.578" height="90.038"/>
		<rect x="0.88" y="405.226" clip-path="url(#SVGID_2_)" fill="#F0EFEF" width="31.578" height="90.041"/>
		<rect x="1.196" y="135.094" clip-path="url(#SVGID_2_)" fill="#DCDBDB" width="31.578" height="90.041"/>
		<rect x="0.88" y="36.051" clip-path="url(#SVGID_2_)" fill="#D3D3D3" width="31.577" height="99.043"/>
	</g>
</g>
<g display="none">
	<defs>
		<path id="SVGID_3_" d="M27.261,580.714c0,3.713-5.957,8.074-10.592,8.074h-0.652c-4.295,0-9.939-3.881-9.939-8.074V42.467
			c1.023-4.94,6.494-7.797,10.183-7.792l0,0c4.296-0.005,9.896,2.929,11.001,7.984V580.714z"/>
	</defs>
	<clipPath id="SVGID_4_" display="inline">
		<use xlink:href="#SVGID_3_"  overflow="visible"/>
	</clipPath>
	<rect x="-4.972" y="34.675" display="inline" clip-path="url(#SVGID_4_)" fill="#C8E8F0" width="43.281" height="27.238"/>
	<rect x="-4.972" y="61.914" display="inline" clip-path="url(#SVGID_4_)" fill="#D0EBF7" width="43.281" height="27.238"/>
	<rect x="-4.972" y="88.639" display="inline" clip-path="url(#SVGID_4_)" fill="#4898DA" width="43.281" height="27.238"/>
	<rect x="-4.972" y="115.877" display="inline" clip-path="url(#SVGID_4_)" fill="#A3A5D7" width="43.281" height="27.238"/>
	<rect x="-4.972" y="143.116" display="inline" clip-path="url(#SVGID_4_)" fill="#B988C1" width="43.281" height="27.237"/>
	<rect x="-4.972" y="170.353" display="inline" clip-path="url(#SVGID_4_)" fill="#D7A2CD" width="43.281" height="27.238"/>
	<rect x="-4.972" y="197.253" display="inline" clip-path="url(#SVGID_4_)" fill="#E8BEDB" width="43.281" height="27.238"/>
	<rect x="-4.972" y="224.492" display="inline" clip-path="url(#SVGID_4_)" fill="#E67D9B" width="43.281" height="27.238"/>
	<rect x="-4.972" y="251.73" display="inline" clip-path="url(#SVGID_4_)" fill="#DB4C4D" width="43.281" height="27.236"/>
	<rect x="-4.972" y="278.966" display="inline" clip-path="url(#SVGID_4_)" fill="#EF5A5C" width="43.281" height="27.238"/>
	<rect x="-4.972" y="305.872" display="inline" clip-path="url(#SVGID_4_)" fill="#F7A25C" width="43.281" height="27.238"/>
	<rect x="-4.972" y="333.11" display="inline" clip-path="url(#SVGID_4_)" fill="#FDD58F" width="43.281" height="27.238"/>
	<rect x="-4.972" y="360.349" display="inline" clip-path="url(#SVGID_4_)" fill="#FFE173" width="43.281" height="27.238"/>
	<rect x="-4.972" y="387.587" display="inline" clip-path="url(#SVGID_4_)" fill="#FEFE82" width="43.281" height="27.238"/>
	<rect x="-4.972" y="414.483" display="inline" clip-path="url(#SVGID_4_)" fill="#FFFFC7" width="43.281" height="27.236"/>
	<rect x="-4.972" y="441.72" display="inline" clip-path="url(#SVGID_4_)" fill="#F3F3A1" width="43.281" height="27.238"/>
	<rect x="-4.972" y="468.958" display="inline" clip-path="url(#SVGID_4_)" fill="#D3ECA4" width="43.281" height="27.238"/>
	<rect x="-4.972" y="496.196" display="inline" clip-path="url(#SVGID_4_)" fill="#C3E6D8" width="43.281" height="27.238"/>
	<rect x="-4.972" y="523.435" display="inline" clip-path="url(#SVGID_4_)" fill="#C8E8F0" width="43.281" height="27.238"/>
	<rect x="-4.972" y="550.673" display="inline" clip-path="url(#SVGID_4_)" fill="#D0EBF7" width="43.281" height="41.121"/>
</g>
<g>
	<g display="none">
		<defs>
			<path id="SVGID_5_" d="M27.052,580.983c-0.316,3.428-5.672,7.51-10.307,7.51l0,0c-4.594,0.367-10.877-3.316-10.877-7.51V42.738
				c1.021-4.94,6.492-7.798,10.182-7.792l0,0c4.297-0.006,9.896,2.929,11.002,7.984V580.983L27.052,580.983z"/>
		</defs>
		<clipPath id="SVGID_6_" display="inline">
			<use xlink:href="#SVGID_5_"  overflow="visible"/>
		</clipPath>
		<rect x="0.671" y="494.032" display="inline" clip-path="url(#SVGID_6_)" fill="#EC2426" width="31.578" height="99.045"/>
		<rect x="0.987" y="313.954" display="inline" clip-path="url(#SVGID_6_)" fill="#FCFC1E" width="31.578" height="90.041"/>
		<rect x="0.987" y="223.914" display="inline" clip-path="url(#SVGID_6_)" fill="#0B7F3F" width="31.578" height="90.038"/>
		<rect x="0.671" y="403.993" display="inline" clip-path="url(#SVGID_6_)" fill="#F7A426" width="31.578" height="90.041"/>
		<rect x="0.987" y="133.862" display="inline" clip-path="url(#SVGID_6_)" fill="#6FC9DC" width="31.578" height="90.04"/>
		<rect x="0.987" y="34.818" display="inline" clip-path="url(#SVGID_6_)" fill="#3F57B0" width="31.578" height="99.043"/>
	</g>
</g>
<circle fill="#3A332F" cx="16.46" cy="15.781" r="14.909"/>
<path fill="none" stroke="#3C3430" stroke-width="3" stroke-miterlimit="10" d="M27.052,580.983
	c-0.316,3.428-5.672,7.51-10.307,7.51l0,0c-4.593,0.367-10.877-3.316-10.877-7.51V42.736c1.022-4.94,6.492-7.798,10.182-7.792l0,0
	c4.297-0.006,9.896,2.929,11.002,7.984V580.983L27.052,580.983z"/>
<g>
	<path fill="#3C3530" d="M11.72,579.44c-0.398-0.46-0.598-1.062-0.598-1.808c0-0.745,0.199-1.348,0.598-1.807
		s0.923-0.689,1.573-0.689s1.176,0.228,1.58,0.683c0.403,0.455,0.604,1.06,0.604,1.813s-0.202,1.358-0.604,1.813
		c-0.403,0.455-0.93,0.683-1.58,0.683S12.118,579.899,11.72,579.44z M14.118,578.803c0.195-0.277,0.292-0.667,0.292-1.17
		c0-0.502-0.097-0.893-0.292-1.17c-0.195-0.277-0.47-0.416-0.825-0.416c-0.338,0-0.609,0.142-0.813,0.423s-0.306,0.669-0.306,1.163
		s0.102,0.882,0.306,1.164c0.204,0.281,0.475,0.422,0.813,0.422C13.648,579.219,13.923,579.081,14.118,578.803z M18.753,575.229
		h1.273l-6.213,9.1h-1.274L18.753,575.229z M17.687,583.73c-0.399-0.46-0.598-1.062-0.598-1.808c0-0.745,0.199-1.348,0.598-1.807
		c0.398-0.459,0.923-0.689,1.574-0.689c0.648,0,1.176,0.23,1.578,0.689c0.404,0.459,0.605,1.062,0.605,1.807
		c0,0.746-0.201,1.348-0.605,1.808c-0.402,0.459-0.93,0.688-1.578,0.688C18.61,584.419,18.085,584.189,17.687,583.73z
		 M20.079,583.087c0.199-0.282,0.299-0.67,0.299-1.164s-0.1-0.882-0.299-1.163s-0.473-0.423-0.818-0.423
		c-0.348,0-0.621,0.139-0.82,0.416s-0.298,0.668-0.298,1.17c0,0.503,0.099,0.893,0.298,1.17s0.473,0.416,0.82,0.416
		C19.606,583.509,19.88,583.368,20.079,583.087z"/>
</g>
<g>
	<path fill="#3C3530" d="M15.288,534.154c0.379,0.307,0.568,0.724,0.568,1.252c0,0.336-0.083,0.64-0.248,0.912
		c-0.165,0.271-0.413,0.487-0.744,0.647c-0.331,0.16-0.739,0.24-1.224,0.24c-0.4,0-0.787-0.058-1.16-0.172
		c-0.373-0.115-0.688-0.273-0.944-0.477l0.44-0.808c0.208,0.171,0.458,0.306,0.748,0.404s0.591,0.147,0.9,0.147
		c0.368,0,0.657-0.076,0.868-0.228c0.21-0.152,0.316-0.361,0.316-0.628c0-0.288-0.113-0.506-0.34-0.652
		c-0.227-0.146-0.615-0.22-1.164-0.22h-1.352l0.288-3.048h3.288v0.872H13.12L13,533.694h0.536
		C14.325,533.694,14.909,533.848,15.288,534.154z"/>
	<path fill="#3C3530" d="M17.592,536.866c-0.353-0.227-0.63-0.558-0.833-0.992s-0.304-0.95-0.304-1.548s0.101-1.113,0.304-1.548
		s0.48-0.766,0.833-0.992c0.352-0.227,0.752-0.34,1.2-0.34c0.447,0,0.849,0.113,1.203,0.34c0.355,0.227,0.634,0.558,0.836,0.992
		c0.203,0.435,0.305,0.95,0.305,1.548s-0.102,1.113-0.305,1.548c-0.202,0.435-0.48,0.766-0.836,0.992
		c-0.354,0.227-0.756,0.34-1.203,0.34C18.344,537.206,17.943,537.093,17.592,536.866z M19.739,535.806
		c0.232-0.33,0.349-0.823,0.349-1.479s-0.116-1.149-0.349-1.48c-0.231-0.33-0.548-0.496-0.947-0.496
		c-0.396,0-0.708,0.166-0.94,0.496c-0.232,0.331-0.348,0.824-0.348,1.48s0.115,1.149,0.348,1.479
		c0.232,0.331,0.545,0.496,0.94,0.496C19.191,536.302,19.508,536.137,19.739,535.806z"/>
</g>
<g>
	<path fill="#3C3530" d="M15.227,450.927c0.293,0.142,0.522,0.343,0.688,0.604c0.165,0.261,0.248,0.563,0.248,0.903
		c0,0.363-0.091,0.682-0.272,0.956c-0.181,0.275-0.426,0.487-0.736,0.637c-0.309,0.148-0.656,0.224-1.04,0.224
		c-0.768,0-1.364-0.24-1.788-0.72c-0.424-0.48-0.636-1.168-0.636-2.064c0-0.629,0.115-1.167,0.344-1.612
		c0.229-0.445,0.551-0.783,0.964-1.016c0.413-0.232,0.892-0.348,1.436-0.348c0.288,0,0.559,0.03,0.812,0.092
		c0.253,0.062,0.473,0.15,0.66,0.268l-0.384,0.784c-0.277-0.181-0.632-0.271-1.064-0.271c-0.539,0-0.96,0.165-1.264,0.496
		c-0.304,0.33-0.456,0.808-0.456,1.432v0.008c0.166-0.192,0.376-0.337,0.632-0.436c0.256-0.099,0.544-0.148,0.864-0.148
		C14.603,450.715,14.934,450.786,15.227,450.927z M14.851,453.175c0.203-0.173,0.304-0.404,0.304-0.692
		c0-0.293-0.101-0.524-0.304-0.695c-0.203-0.171-0.475-0.256-0.816-0.256c-0.336,0-0.609,0.091-0.82,0.271
		c-0.211,0.182-0.316,0.411-0.316,0.688c0,0.271,0.103,0.497,0.308,0.676c0.205,0.179,0.489,0.268,0.852,0.268
		C14.384,453.435,14.648,453.349,14.851,453.175z"/>
	<path fill="#3C3530" d="M17.843,453.911c-0.352-0.227-0.629-0.558-0.832-0.992c-0.203-0.435-0.304-0.95-0.304-1.548
		s0.101-1.113,0.304-1.548c0.203-0.435,0.48-0.766,0.832-0.992s0.752-0.34,1.201-0.34c0.447,0,0.848,0.113,1.203,0.34
		s0.633,0.558,0.836,0.992s0.305,0.95,0.305,1.548s-0.102,1.113-0.305,1.548s-0.48,0.766-0.836,0.992s-0.756,0.34-1.203,0.34
		C18.595,454.251,18.194,454.138,17.843,453.911z M19.991,452.851c0.232-0.33,0.348-0.823,0.348-1.479s-0.115-1.149-0.348-1.48
		c-0.232-0.33-0.549-0.496-0.947-0.496c-0.396,0-0.709,0.166-0.941,0.496c-0.232,0.331-0.348,0.824-0.348,1.48
		s0.115,1.149,0.348,1.479c0.232,0.331,0.545,0.496,0.941,0.496C19.442,453.347,19.759,453.182,19.991,452.851z"/>
</g>
<g>
	<path fill="#3C3530" d="M16.202,357.771v0.695l-2.176,4.904h-1.112l2.104-4.72h-2.2v0.952H11.85v-1.832H16.202z"/>
	<path fill="#3C3530" d="M17.817,363.111c-0.353-0.227-0.63-0.558-0.833-0.992s-0.304-0.95-0.304-1.548s0.101-1.113,0.304-1.548
		s0.48-0.766,0.833-0.992c0.352-0.227,0.752-0.34,1.2-0.34c0.447,0,0.849,0.113,1.203,0.34c0.355,0.227,0.634,0.558,0.836,0.992
		c0.203,0.435,0.305,0.95,0.305,1.548s-0.102,1.113-0.305,1.548c-0.202,0.435-0.48,0.766-0.836,0.992
		c-0.354,0.227-0.756,0.34-1.203,0.34C18.569,363.451,18.169,363.338,17.817,363.111z M19.965,362.051
		c0.232-0.33,0.349-0.823,0.349-1.479s-0.116-1.149-0.349-1.48c-0.231-0.33-0.548-0.496-0.947-0.496
		c-0.396,0-0.708,0.166-0.94,0.496c-0.232,0.331-0.348,0.824-0.348,1.48s0.115,1.149,0.348,1.479
		c0.232,0.331,0.545,0.496,0.94,0.496C19.417,362.547,19.733,362.382,19.965,362.051z"/>
</g>
<g>
	<path fill="#3C3530" d="M16.029,261.958c0.157,0.227,0.236,0.492,0.236,0.796c0,0.342-0.095,0.641-0.284,0.896
		c-0.189,0.256-0.457,0.452-0.804,0.588s-0.75,0.204-1.208,0.204c-0.459,0-0.86-0.068-1.204-0.204s-0.609-0.332-0.796-0.588
		c-0.187-0.256-0.28-0.555-0.28-0.896c0-0.304,0.078-0.569,0.232-0.796c0.155-0.227,0.376-0.406,0.664-0.54
		c-0.224-0.122-0.396-0.283-0.516-0.483c-0.12-0.2-0.18-0.431-0.18-0.692c0-0.314,0.086-0.589,0.26-0.824
		c0.173-0.234,0.417-0.416,0.732-0.544c0.314-0.128,0.677-0.191,1.088-0.191c0.416,0,0.781,0.063,1.096,0.191
		c0.315,0.128,0.56,0.31,0.736,0.544c0.176,0.235,0.264,0.51,0.264,0.824c0,0.262-0.061,0.491-0.184,0.688
		c-0.123,0.197-0.299,0.359-0.528,0.487C15.646,261.552,15.872,261.732,16.029,261.958z M14.881,263.387
		c0.224-0.16,0.336-0.382,0.336-0.664c0-0.277-0.112-0.496-0.336-0.656c-0.224-0.16-0.528-0.24-0.912-0.24
		c-0.384,0-0.686,0.08-0.904,0.24s-0.328,0.379-0.328,0.656c0,0.282,0.109,0.504,0.328,0.664c0.219,0.159,0.52,0.239,0.904,0.239
		C14.353,263.626,14.657,263.546,14.881,263.387z M13.197,259.707c-0.189,0.139-0.284,0.334-0.284,0.584
		c0,0.24,0.095,0.431,0.284,0.572c0.189,0.142,0.446,0.212,0.772,0.212c0.331,0,0.592-0.07,0.784-0.212
		c0.192-0.142,0.288-0.332,0.288-0.572c0-0.25-0.097-0.445-0.292-0.584s-0.455-0.208-0.78-0.208
		C13.644,259.499,13.386,259.568,13.197,259.707z"/>
	<path fill="#3C3530" d="M18.073,264.103c-0.352-0.227-0.629-0.558-0.832-0.992c-0.203-0.435-0.304-0.95-0.304-1.548
		s0.101-1.113,0.304-1.548c0.203-0.435,0.48-0.766,0.832-0.992c0.352-0.227,0.752-0.34,1.202-0.34c0.447,0,0.848,0.113,1.203,0.34
		s0.633,0.558,0.836,0.992s0.305,0.95,0.305,1.548s-0.102,1.113-0.305,1.548s-0.48,0.766-0.836,0.992s-0.756,0.34-1.203,0.34
		C18.825,264.443,18.425,264.33,18.073,264.103z M20.222,263.042c0.232-0.33,0.348-0.823,0.348-1.479s-0.115-1.149-0.348-1.48
		c-0.232-0.33-0.549-0.496-0.947-0.496c-0.396,0-0.709,0.166-0.941,0.496c-0.233,0.331-0.348,0.824-0.348,1.48
		s0.115,1.149,0.348,1.479c0.232,0.331,0.545,0.496,0.941,0.496C19.673,263.539,19.989,263.374,20.222,263.042z"/>
</g>
<g>
	<path fill="#3C3530" d="M15.497,177.108c0.424,0.479,0.636,1.168,0.636,2.063c0,0.63-0.115,1.167-0.344,1.612
		c-0.229,0.445-0.551,0.784-0.964,1.017c-0.414,0.231-0.892,0.348-1.436,0.348c-0.288,0-0.559-0.031-0.812-0.092
		c-0.253-0.062-0.473-0.151-0.66-0.269l0.384-0.784c0.277,0.182,0.632,0.272,1.064,0.272c0.539,0,0.96-0.165,1.264-0.496
		c0.304-0.33,0.456-0.808,0.456-1.432v-0.008c-0.166,0.191-0.376,0.337-0.632,0.436c-0.256,0.099-0.544,0.148-0.864,0.148
		c-0.368,0-0.699-0.071-0.992-0.213c-0.293-0.141-0.522-0.342-0.688-0.604s-0.248-0.563-0.248-0.904
		c0-0.362,0.091-0.681,0.272-0.956c0.181-0.274,0.427-0.486,0.736-0.636c0.309-0.149,0.656-0.224,1.04-0.224
		C14.477,176.388,15.073,176.627,15.497,177.108z M14.609,178.835c0.21-0.181,0.316-0.41,0.316-0.688
		c0-0.272-0.103-0.497-0.308-0.676c-0.206-0.179-0.489-0.269-0.852-0.269c-0.325,0-0.589,0.087-0.792,0.261
		c-0.203,0.173-0.304,0.403-0.304,0.691c0,0.294,0.101,0.525,0.304,0.696s0.475,0.256,0.816,0.256
		C14.125,179.108,14.398,179.017,14.609,178.835z"/>
	<path fill="#3C3530" d="M17.973,181.808c-0.352-0.227-0.629-0.558-0.832-0.992c-0.203-0.435-0.304-0.95-0.304-1.548
		s0.101-1.113,0.304-1.548c0.203-0.435,0.48-0.766,0.832-0.992c0.352-0.227,0.752-0.34,1.202-0.34c0.447,0,0.848,0.113,1.203,0.34
		s0.633,0.558,0.836,0.992s0.305,0.95,0.305,1.548s-0.102,1.113-0.305,1.548s-0.48,0.766-0.836,0.992s-0.756,0.34-1.203,0.34
		C18.726,182.148,18.325,182.035,17.973,181.808z M20.122,180.748c0.232-0.33,0.348-0.823,0.348-1.479s-0.115-1.149-0.348-1.48
		c-0.232-0.33-0.549-0.496-0.947-0.496c-0.396,0-0.709,0.166-0.942,0.496c-0.232,0.331-0.348,0.824-0.348,1.48
		s0.115,1.149,0.348,1.479c0.233,0.331,0.545,0.496,0.942,0.496C19.573,181.244,19.89,181.079,20.122,180.748z"/>
</g>
<g>
	<path fill="#3C3530" d="M12.049,77.192v5.6h-1.04v-4.728H9.825v-0.872H12.049z"/>
	<path fill="#3C3530" d="M14.297,82.532c-0.352-0.227-0.629-0.558-0.832-0.992s-0.304-0.95-0.304-1.548s0.101-1.113,0.304-1.548
		s0.48-0.766,0.832-0.992c0.352-0.227,0.752-0.34,1.2-0.34c0.448,0,0.849,0.113,1.204,0.34c0.354,0.227,0.633,0.558,0.836,0.992
		c0.202,0.435,0.304,0.95,0.304,1.548s-0.102,1.113-0.304,1.548c-0.203,0.435-0.482,0.766-0.836,0.992
		c-0.355,0.227-0.756,0.34-1.204,0.34C15.049,82.872,14.649,82.759,14.297,82.532z M16.445,81.472
		c0.232-0.33,0.348-0.823,0.348-1.479s-0.116-1.149-0.348-1.48c-0.232-0.33-0.548-0.496-0.948-0.496
		c-0.395,0-0.708,0.166-0.94,0.496c-0.232,0.331-0.348,0.824-0.348,1.48s0.116,1.149,0.348,1.479
		c0.232,0.331,0.545,0.496,0.94,0.496C15.897,81.968,16.213,81.803,16.445,81.472z"/>
	<path fill="#3C3530" d="M19.681,82.532c-0.352-0.227-0.629-0.558-0.832-0.992s-0.305-0.95-0.305-1.548s0.102-1.113,0.305-1.548
		s0.48-0.766,0.832-0.992s0.752-0.34,1.201-0.34c0.447,0,0.848,0.113,1.203,0.34s0.633,0.558,0.836,0.992s0.305,0.95,0.305,1.548
		s-0.102,1.113-0.305,1.548s-0.48,0.766-0.836,0.992s-0.756,0.34-1.203,0.34C20.433,82.872,20.032,82.759,19.681,82.532z
		 M21.829,81.472c0.232-0.33,0.348-0.823,0.348-1.479s-0.115-1.149-0.348-1.48c-0.232-0.33-0.549-0.496-0.947-0.496
		c-0.396,0-0.709,0.166-0.941,0.496c-0.232,0.331-0.348,0.824-0.348,1.48s0.115,1.149,0.348,1.479
		c0.232,0.331,0.545,0.496,0.941,0.496C21.28,81.968,21.597,81.803,21.829,81.472z"/>
</g>
<g>
	<path fill="#FFFFFF" d="M10.021,22.611h12.708c2.651,0,4.935-1.792,5.432-4.26c0.326-1.611-0.076-3.252-1.102-4.503
		c-0.874-1.069-2.105-1.748-3.453-1.924v-1.211c0-4.293-3.871-7.688-8.123-7.18C11.866,3.964,9.14,7.156,9.14,10.957v0.967
		c-1.164,0.151-2.244,0.679-3.102,1.525C4.803,14.7,4.259,16.417,4.55,18.162C4.953,20.574,7.459,22.611,10.021,22.611z
		 M7.029,14.438c0.757-0.748,1.755-1.161,2.812-1.161c0.386,0,0.7-0.313,0.7-0.699c0,0,0-1.622,0-1.622
		c0-3.218,2.562-6.078,5.839-6.078c3.176,0,5.827,2.66,5.827,5.833v1.866c0,0.386,0.313,0.699,0.699,0.699
		c1.192,0,2.313,0.532,3.071,1.457c0.758,0.924,1.052,2.142,0.811,3.34c-0.365,1.817-2.072,3.136-4.06,3.136H10.021
		c-1.887,0-3.798-1.532-4.09-3.28C5.716,16.635,6.117,15.361,7.029,14.438z"/>
</g>
<rect x="11.504" y="22.611" fill="none" width="9.754" height="5.471"/>
<g enable-background="new    ">
	<path fill="#FFFFFF" d="M15.419,23.326h-1.314v-0.623h3.365v0.623h-1.314v3.342h-0.736V23.326z"/>
</g>
</svg>
