<?xml version="1.0" encoding="utf-8"?>
<!-- Generator: Adobe Illustrator 27.7.0, SVG Export Plug-In . SVG Version: 6.00 Build 0)  -->
<svg version="1.1" id="Livello_1" xmlns="http://www.w3.org/2000/svg" xmlns:xlink="http://www.w3.org/1999/xlink" x="0px" y="0px"
	width="38px" height="644px" viewBox="0 0 37.2 644.1" style="enable-background:new 0 0 37.2 644.1;" xml:space="preserve">
<style type="text/css">
	.st0{display:none;}
	.st1{display:inline;}
	.st2{clip-path:url(#SVGID_00000047034830490394309610000005411457332236783019_);fill:#C8E8F0;}
	.st3{clip-path:url(#SVGID_00000138533462560534864830000017056847424886335918_);fill:#D0EBF7;}
	.st4{clip-path:url(#SVGID_00000134930902778138941280000010427399535505278370_);fill:#4898DA;}
	.st5{clip-path:url(#SVGID_00000011726499936968806400000017152570646804574853_);fill:#A3A5D7;}
	.st6{clip-path:url(#SVGID_00000165940473205756198910000004296971820858727605_);fill:#B988C1;}
	.st7{clip-path:url(#SVGID_00000002364843017141391350000004806886088343885989_);fill:#D7A2CD;}
	.st8{clip-path:url(#SVGID_00000129918521942096559250000004253097469318128525_);fill:#E8BEDB;}
	.st9{clip-path:url(#SVGID_00000121256065889573339310000014250239686945098644_);fill:#E67D9B;}
	.st10{clip-path:url(#SVGID_00000038374427058474669080000015974845664393271191_);fill:#DB4C4D;}
	.st11{clip-path:url(#SVGID_00000170256296324847411560000007669104926546046626_);fill:#EF5A5C;}
	.st12{clip-path:url(#SVGID_00000117676601976268454470000015104534110886595764_);fill:#F7A25C;}
	.st13{clip-path:url(#SVGID_00000147923101737668990650000017178396682010494338_);fill:#FDD58F;}
	.st14{clip-path:url(#SVGID_00000104673429822991279240000001911049931634643631_);fill:#FFE173;}
	.st15{clip-path:url(#SVGID_00000104692389470901951180000011709145386237543838_);fill:#FEFE82;}
	.st16{clip-path:url(#SVGID_00000144331769036587989190000007573766467455097742_);fill:#FFFFC7;}
	.st17{clip-path:url(#SVGID_00000157995653100633310360000000277599679237455504_);fill:#F3F3A1;}
	.st18{clip-path:url(#SVGID_00000075157495264056380850000009692615833834722971_);fill:#D3ECA4;}
	.st19{clip-path:url(#SVGID_00000112631574114741788320000013557493191627977346_);fill:#C3E6D8;}
	.st20{clip-path:url(#SVGID_00000183236143389385992310000014201251069712527751_);fill:#C8E8F0;}
	.st21{clip-path:url(#SVGID_00000139990148215487989320000012158398813578436261_);fill:#D0EBF7;}
	.st22{clip-path:url(#SVGID_00000047050854230295969460000013932387448395365269_);fill:#EC2426;}
	.st23{clip-path:url(#SVGID_00000140718021441096919470000009596885558245894070_);fill:#FCFC1E;}
	.st24{clip-path:url(#SVGID_00000098915735261002458280000007295968440470060174_);fill:#0B7F3F;}
	.st25{clip-path:url(#SVGID_00000148629131122325409680000000168515597269650087_);fill:#F7A426;}
	.st26{clip-path:url(#SVGID_00000011028761498377256090000017855417803574845857_);fill:#6FC9DC;}
	.st27{clip-path:url(#SVGID_00000040570147410463185800000006492411224104043966_);fill:#3F57B0;}
	.st28{fill:#39322E;}
	.st29{clip-path:url(#SVGID_00000061471919818615892850000014617631723046081167_);fill:#F7F8F8;}
	.st30{clip-path:url(#SVGID_00000146491846679100953500000003802649796812281018_);fill:#FBFBFA;}
	.st31{clip-path:url(#SVGID_00000098191743296168163980000000958583987366155663_);fill:#F5F6F3;}
	.st32{clip-path:url(#SVGID_00000161611578431715510560000010312136134722835117_);fill:#FEFEFE;}
	.st33{clip-path:url(#SVGID_00000071541841961219497280000002588908393387997348_);fill:#ECEFE9;}
	.st34{clip-path:url(#SVGID_00000159436752215024155580000009481174144293182858_);fill:#CBDED1;}
	.st35{clip-path:url(#SVGID_00000183228674149037219780000003027917864379399355_);fill:#B3D0C7;}
	.st36{clip-path:url(#SVGID_00000175293473859801804500000014873955829870976445_);fill:#9BC4C7;}
	.st37{clip-path:url(#SVGID_00000056404507005828672340000001737303898384126136_);fill:#82A1BA;}
	.st38{clip-path:url(#SVGID_00000177475980340687600730000002273948886908760477_);fill:#DDE7DC;}
	.st39{fill:none;stroke:#3C3430;stroke-width:2.9317;stroke-miterlimit:9.7722;}
	.st40{fill:#3C3530;}
	.st41{fill:#FFFFFF;}
	.st42{fill:none;}
	.st43{enable-background:new    ;}
</style>
<circle class="st28" cx="18.6" cy="20.6" r="14.6"/>
<g>
	<g>
		<g>
			<g>
				<defs>
					<path id="SVGID_00000107547099200596257990000009749152888171734411_" d="M30.6,632c-0.3,3.7-6.3,8.1-11.6,8.1l0,0
						c-5.2,0.4-12.2-3.5-12.2-8.1V48.6c1.1-5.3,7.2-8.4,11.5-8.4l0,0c4.8,0,11.1,3.2,12.4,8.7L30.6,632L30.6,632z"/>
				</defs>
				<clipPath id="SVGID_00000103952413138691468850000003528241557739911814_">
					<use xlink:href="#SVGID_00000107547099200596257990000009749152888171734411_"  style="overflow:visible;"/>
				</clipPath>
				
					<rect x="1.1" y="583.6" style="clip-path:url(#SVGID_00000103952413138691468850000003528241557739911814_);fill:#F7F8F8;" width="35.3" height="63.1"/>
			</g>
		</g>
		<g>
			<g>
				<defs>
					<path id="SVGID_00000167366705990204679540000017638239128882592681_" d="M30.6,632c-0.3,3.7-6.3,8.1-11.6,8.1l0,0
						c-5.2,0.4-12.2-3.5-12.2-8.1V48.6c1.1-5.3,7.2-8.4,11.5-8.4l0,0c4.8,0,11.1,3.2,12.4,8.7L30.6,632L30.6,632z"/>
				</defs>
				<clipPath id="SVGID_00000181061985750464110680000015179908743047653811_">
					<use xlink:href="#SVGID_00000167366705990204679540000017638239128882592681_"  style="overflow:visible;"/>
				</clipPath>
				
					<rect x="1.4" y="468.9" style="clip-path:url(#SVGID_00000181061985750464110680000015179908743047653811_);fill:#FBFBFA;" width="35.3" height="57.3"/>
			</g>
		</g>
		<g>
			<g>
				<defs>
					<path id="SVGID_00000000913711956453477620000015448492355676219268_" d="M30.6,632c-0.3,3.7-6.3,8.1-11.6,8.1l0,0
						c-5.2,0.4-12.2-3.5-12.2-8.1V48.6c1.1-5.3,7.2-8.4,11.5-8.4l0,0c4.8,0,11.1,3.2,12.4,8.7L30.6,632L30.6,632z"/>
				</defs>
				<clipPath id="SVGID_00000136396489553836430130000015721782710185247901_">
					<use xlink:href="#SVGID_00000000913711956453477620000015448492355676219268_"  style="overflow:visible;"/>
				</clipPath>
				
					<rect x="1.4" y="411.6" style="clip-path:url(#SVGID_00000136396489553836430130000015721782710185247901_);fill:#F5F6F3;" width="35.3" height="57.3"/>
			</g>
		</g>
		<g>
			<g>
				<defs>
					<path id="SVGID_00000176045689954524741260000012316004979837935270_" d="M30.6,632c-0.3,3.7-6.3,8.1-11.6,8.1l0,0
						c-5.2,0.4-12.2-3.5-12.2-8.1V48.6c1.1-5.3,7.2-8.4,11.5-8.4l0,0c4.8,0,11.1,3.2,12.4,8.7L30.6,632L30.6,632z"/>
				</defs>
				<clipPath id="SVGID_00000026164621408936770870000003600396426207514558_">
					<use xlink:href="#SVGID_00000176045689954524741260000012316004979837935270_"  style="overflow:visible;"/>
				</clipPath>
				
					<rect x="1.1" y="526.3" style="clip-path:url(#SVGID_00000026164621408936770870000003600396426207514558_);fill:#FEFEFE;" width="35.3" height="57.3"/>
			</g>
		</g>
		<g>
			<g>
				<defs>
					<path id="SVGID_00000065762819823534352900000006343825041036030082_" d="M30.6,632c-0.3,3.7-6.3,8.1-11.6,8.1l0,0
						c-5.2,0.4-12.2-3.5-12.2-8.1V48.6c1.1-5.3,7.2-8.4,11.5-8.4l0,0c4.8,0,11.1,3.2,12.4,8.7L30.6,632L30.6,632z"/>
				</defs>
				<clipPath id="SVGID_00000177462059215934836890000013167164851041442441_">
					<use xlink:href="#SVGID_00000065762819823534352900000006343825041036030082_"  style="overflow:visible;"/>
				</clipPath>
				
					<rect x="1.4" y="354.3" style="clip-path:url(#SVGID_00000177462059215934836890000013167164851041442441_);fill:#ECEFE9;" width="35.3" height="57.3"/>
			</g>
		</g>
		<g>
			<g>
				<defs>
					<path id="SVGID_00000013163302631647807840000012809530885519811263_" d="M30.6,632c-0.3,3.7-6.3,8.1-11.6,8.1l0,0
						c-5.2,0.4-12.2-3.5-12.2-8.1V48.6c1.1-5.3,7.2-8.4,11.5-8.4l0,0c4.8,0,11.1,3.2,12.4,8.7L30.6,632L30.6,632z"/>
				</defs>
				<clipPath id="SVGID_00000105402587829256577280000008057383700631323779_">
					<use xlink:href="#SVGID_00000013163302631647807840000012809530885519811263_"  style="overflow:visible;"/>
				</clipPath>
				
					<rect x="1.2" y="228.2" style="clip-path:url(#SVGID_00000105402587829256577280000008057383700631323779_);fill:#CBDED1;" width="35.3" height="63.1"/>
			</g>
			<g>
				<defs>
					<path id="SVGID_00000183250017373707581880000006003899465489307287_" d="M30.6,632c-0.3,3.7-6.3,8.1-11.6,8.1l0,0
						c-5.2,0.4-12.2-3.5-12.2-8.1V48.6c1.1-5.3,7.2-8.4,11.5-8.4l0,0c4.8,0,11.1,3.2,12.4,8.7L30.6,632L30.6,632z"/>
				</defs>
				<clipPath id="SVGID_00000027605406794427866000000016055358120765458075_">
					<use xlink:href="#SVGID_00000183250017373707581880000006003899465489307287_"  style="overflow:visible;"/>
				</clipPath>
				
					<rect x="1.2" y="165.6" style="clip-path:url(#SVGID_00000027605406794427866000000016055358120765458075_);fill:#B3D0C7;" width="35.3" height="63.1"/>
			</g>
			<g>
				<defs>
					<path id="SVGID_00000008827864892082158730000004012148470094002602_" d="M30.6,632c-0.3,3.7-6.3,8.1-11.6,8.1l0,0
						c-5.2,0.4-12.2-3.5-12.2-8.1V48.6c1.1-5.3,7.2-8.4,11.5-8.4l0,0c4.8,0,11.1,3.2,12.4,8.7L30.6,632L30.6,632z"/>
				</defs>
				<clipPath id="SVGID_00000054262259581963508150000004120999397838894985_">
					<use xlink:href="#SVGID_00000008827864892082158730000004012148470094002602_"  style="overflow:visible;"/>
				</clipPath>
				
					<rect x="1.2" y="103.1" style="clip-path:url(#SVGID_00000054262259581963508150000004120999397838894985_);fill:#9BC4C7;" width="35.3" height="63.1"/>
			</g>
			<g>
				<defs>
					<path id="SVGID_00000140729321859056078990000013395669632564526220_" d="M30.6,632c-0.3,3.7-6.3,8.1-11.6,8.1l0,0
						c-5.2,0.4-12.2-3.5-12.2-8.1V48.6c1.1-5.3,7.2-8.4,11.5-8.4l0,0c4.8,0,11.1,3.2,12.4,8.7L30.6,632L30.6,632z"/>
				</defs>
				<clipPath id="SVGID_00000048470949636847080950000007105251714143223438_">
					<use xlink:href="#SVGID_00000140729321859056078990000013395669632564526220_"  style="overflow:visible;"/>
				</clipPath>
				
					<rect x="1.2" y="40.4" style="clip-path:url(#SVGID_00000048470949636847080950000007105251714143223438_);fill:#82A1BA;" width="35.3" height="63.1"/>
			</g>
			<g>
				<defs>
					<path id="SVGID_00000017497198172928130870000005564217210485586360_" d="M30.6,632c-0.3,3.7-6.3,8.1-11.6,8.1l0,0
						c-5.2,0.4-12.2-3.5-12.2-8.1V48.6c1.1-5.3,7.2-8.4,11.5-8.4l0,0c4.8,0,11.1,3.2,12.4,8.7L30.6,632L30.6,632z"/>
				</defs>
				<clipPath id="SVGID_00000176761263115030025190000009688360664638442386_">
					<use xlink:href="#SVGID_00000017497198172928130870000005564217210485586360_"  style="overflow:visible;"/>
				</clipPath>
				
					<rect x="1.1" y="291.2" style="clip-path:url(#SVGID_00000176761263115030025190000009688360664638442386_);fill:#DDE7DC;" width="35.3" height="63.1"/>
			</g>
		</g>
	</g>
</g>
<path class="st39" d="M30.4,632.2c-0.3,3.7-6.3,8.1-11.6,8.1l0,0c-5.2,0.4-12.2-3.5-12.2-8.1V48.9c1.1-5.3,7.2-8.4,11.5-8.4l0,0
	c4.8,0,11.1,3.2,12.4,8.7L30.4,632.2L30.4,632.2z"/>
<g>
	<path class="st40" d="M13.7,630.6c-0.5-0.4-0.7-1.1-0.7-2c0-0.8,0.2-1.4,0.7-2c0.5-0.4,1-0.8,1.7-0.8c0.7,0,1.3,0.2,1.7,0.8
		c0.5,0.4,0.7,1.1,0.7,2c0,0.9-0.2,1.4-0.7,2c-0.5,0.4-1,0.8-1.7,0.8C14.8,631.4,14.1,631.1,13.7,630.6z M16.4,629.9
		c0.2-0.3,0.3-0.8,0.3-1.2c0-0.6-0.1-1-0.3-1.2s-0.6-0.4-0.9-0.4c-0.3,0-0.7,0.1-0.9,0.4c-0.2,0.3-0.3,0.8-0.3,1.2
		c0,0.6,0.1,1,0.3,1.2c0.2,0.3,0.6,0.4,0.9,0.4C15.8,630.4,16.1,630.2,16.4,629.9z M21.5,626h1.4l-7,9.9h-1.4L21.5,626z M20.4,635.2
		c-0.5-0.4-0.7-1.1-0.7-2c0-0.8,0.2-1.4,0.7-2c0.5-0.4,1-0.8,1.7-0.8c0.7,0,1.3,0.2,1.7,0.8c0.5,0.4,0.7,1.1,0.7,2
		c0,0.8-0.2,1.4-0.7,2c-0.5,0.4-1,0.8-1.7,0.8C21.4,636,20.8,635.8,20.4,635.2z M23,634.6c0.2-0.3,0.3-0.8,0.3-1.2
		c0-0.4-0.1-1-0.3-1.2c-0.2-0.3-0.6-0.4-0.9-0.4s-0.7,0.1-0.9,0.4c-0.2,0.3-0.3,0.8-0.3,1.2c0,0.6,0.1,1,0.3,1.2
		c0.2,0.3,0.6,0.4,0.9,0.4C22.6,635,22.8,634.9,23,634.6z"/>
</g>
<g>
	<path class="st41" d="M12.4,28.5h12.4c2.6,0,4.8-1.8,5.3-4.2c0.3-1.6-0.1-3.2-1.1-4.4c-0.9-1-2.1-1.7-3.4-1.9v-1.2
		c0-4.2-3.8-7.5-7.9-7c-3.5,0.4-6.2,3.5-6.2,7.3V18c-1.1,0.1-2.2,0.7-3,1.5c-1.2,1.2-1.7,2.9-1.5,4.6C7.4,26.5,9.9,28.5,12.4,28.5z
		 M9.5,20.5c0.7-0.7,1.7-1.1,2.7-1.1c0.4,0,0.7-0.3,0.7-0.7v-1.6c0-3.1,2.5-5.9,5.7-5.9c3.1,0,5.7,2.6,5.7,5.7v1.8
		c0,0.4,0.3,0.7,0.7,0.7c1.2,0,2.3,0.5,3,1.4s1,2.1,0.8,3.3c-0.4,1.8-2,3.1-4,3.1H12.4c-1.8,0-3.7-1.5-4-3.2
		C8.2,22.6,8.6,21.4,9.5,20.5z"/>
</g>
<rect x="13.8" y="28.5" class="st42" width="9.5" height="5.3"/>
<g class="st43">
	<path class="st41" d="M18.4,30.5h-1.3v-0.6h3.3v0.6h-1.3v3.3h-0.7V30.5L18.4,30.5z"/>
</g>
<g>
	<path class="st41" d="M12.4,68.2v7.7H11v-6.5H9.4v-1.2H12.4z"/>
	<path class="st41" d="M15.5,75.5c-0.5-0.3-0.9-0.8-1.1-1.4c-0.3-0.6-0.4-1.3-0.4-2.1s0.1-1.5,0.4-2.1c0.3-0.6,0.7-1.1,1.1-1.4
		c0.5-0.3,1-0.5,1.7-0.5c0.6,0,1.2,0.2,1.7,0.5c0.5,0.3,0.9,0.8,1.1,1.4s0.4,1.3,0.4,2.1s-0.1,1.5-0.4,2.1c-0.3,0.6-0.7,1.1-1.1,1.4
		c-0.5,0.3-1,0.5-1.7,0.5C16.5,76,16,75.9,15.5,75.5z M18.5,74.1c0.3-0.5,0.5-1.1,0.5-2s-0.2-1.6-0.5-2c-0.3-0.5-0.8-0.7-1.3-0.7
		c-0.5,0-1,0.2-1.3,0.7c-0.3,0.5-0.5,1.1-0.5,2s0.2,1.6,0.5,2c0.3,0.5,0.8,0.7,1.3,0.7C17.7,74.8,18.1,74.5,18.5,74.1z"/>
	<path class="st41" d="M22.9,75.5c-0.5-0.3-0.9-0.8-1.1-1.4c-0.3-0.6-0.4-1.3-0.4-2.1s0.1-1.5,0.4-2.1c0.3-0.6,0.7-1.1,1.1-1.4
		c0.5-0.3,1-0.5,1.7-0.5c0.6,0,1.2,0.2,1.7,0.5c0.5,0.3,0.9,0.8,1.1,1.4s0.4,1.3,0.4,2.1s-0.1,1.5-0.4,2.1c-0.3,0.6-0.7,1.1-1.1,1.4
		c-0.5,0.3-1,0.5-1.7,0.5C23.9,76,23.4,75.9,22.9,75.5z M25.9,74.1c0.3-0.5,0.5-1.1,0.5-2s-0.2-1.6-0.5-2c-0.3-0.5-0.8-0.7-1.3-0.7
		c-0.5,0-1,0.2-1.3,0.7c-0.3,0.5-0.5,1.1-0.5,2s0.2,1.6,0.5,2c0.3,0.5,0.8,0.7,1.3,0.7C25.1,74.8,25.5,74.5,25.9,74.1z"/>
</g>
<g>
	<g>
		<path class="st40" d="M17.3,131.7c0.6,0.7,0.9,1.6,0.9,2.8c0,0.9-0.2,1.6-0.5,2.2c-0.3,0.6-0.8,1.1-1.3,1.4
			c-0.6,0.3-1.2,0.5-2,0.5c-0.4,0-0.8,0-1.1-0.1c-0.3-0.1-0.7-0.2-0.9-0.4l0.5-1.1c0.4,0.2,0.9,0.4,1.5,0.4c0.7,0,1.3-0.2,1.7-0.7
			s0.6-1.1,0.6-2v0c-0.2,0.3-0.5,0.5-0.9,0.6c-0.4,0.1-0.7,0.2-1.2,0.2c-0.5,0-1-0.1-1.4-0.3s-0.7-0.5-0.9-0.8
			c-0.2-0.4-0.3-0.8-0.3-1.2c0-0.5,0.1-0.9,0.4-1.3c0.2-0.4,0.6-0.7,1-0.9c0.4-0.2,0.9-0.3,1.4-0.3
			C15.9,130.7,16.7,131.1,17.3,131.7z M16.1,134.1c0.3-0.2,0.4-0.6,0.4-0.9c0-0.4-0.1-0.7-0.4-0.9s-0.7-0.4-1.2-0.4
			c-0.4,0-0.8,0.1-1.1,0.4c-0.3,0.2-0.4,0.6-0.4,1c0,0.4,0.1,0.7,0.4,1c0.3,0.2,0.7,0.4,1.1,0.4C15.4,134.5,15.8,134.3,16.1,134.1z"
			/>
		<path class="st40" d="M20.7,138.2c-0.5-0.3-0.9-0.8-1.1-1.4c-0.3-0.6-0.4-1.3-0.4-2.1s0.1-1.5,0.4-2.1c0.3-0.6,0.7-1.1,1.1-1.4
			c0.5-0.3,1-0.5,1.7-0.5c0.6,0,1.2,0.2,1.7,0.5c0.5,0.3,0.9,0.8,1.1,1.4s0.4,1.3,0.4,2.1s-0.1,1.5-0.4,2.1
			c-0.3,0.6-0.7,1.1-1.1,1.4c-0.5,0.3-1,0.5-1.7,0.5C21.7,138.6,21.2,138.5,20.7,138.2z M23.7,136.7c0.3-0.5,0.5-1.1,0.5-2
			s-0.2-1.6-0.5-2c-0.3-0.5-0.8-0.7-1.3-0.7c-0.5,0-1,0.2-1.3,0.7c-0.3,0.5-0.5,1.1-0.5,2s0.2,1.6,0.5,2c0.3,0.5,0.8,0.7,1.3,0.7
			C22.9,137.4,23.3,137.2,23.7,136.7z"/>
	</g>
</g>
<g>
	<g>
		<path class="st40" d="M17.8,198.2c0.2,0.3,0.3,0.7,0.3,1.1c0,0.5-0.1,0.9-0.4,1.2c-0.3,0.4-0.6,0.6-1.1,0.8
			c-0.5,0.2-1,0.3-1.7,0.3s-1.2-0.1-1.7-0.3c-0.5-0.2-0.8-0.5-1.1-0.8s-0.4-0.8-0.4-1.2c0-0.4,0.1-0.8,0.3-1.1
			c0.2-0.3,0.5-0.6,0.9-0.7c-0.3-0.2-0.5-0.4-0.7-0.7s-0.2-0.6-0.2-1c0-0.4,0.1-0.8,0.4-1.1s0.6-0.6,1-0.7c0.4-0.2,0.9-0.3,1.5-0.3
			c0.6,0,1.1,0.1,1.5,0.3c0.4,0.2,0.8,0.4,1,0.7s0.4,0.7,0.4,1.1c0,0.4-0.1,0.7-0.3,0.9c-0.2,0.3-0.4,0.5-0.7,0.7
			C17.3,197.6,17.6,197.8,17.8,198.2z M16.2,200.1c0.3-0.2,0.5-0.5,0.5-0.9c0-0.4-0.2-0.7-0.5-0.9c-0.3-0.2-0.7-0.3-1.3-0.3
			c-0.5,0-0.9,0.1-1.2,0.3c-0.3,0.2-0.5,0.5-0.5,0.9c0,0.4,0.2,0.7,0.5,0.9c0.3,0.2,0.7,0.3,1.2,0.3
			C15.5,200.5,15.9,200.3,16.2,200.1z M13.9,195.1c-0.3,0.2-0.4,0.5-0.4,0.8c0,0.3,0.1,0.6,0.4,0.8c0.3,0.2,0.6,0.3,1.1,0.3
			c0.5,0,0.8-0.1,1.1-0.3c0.3-0.2,0.4-0.5,0.4-0.8c0-0.3-0.1-0.6-0.4-0.8c-0.3-0.2-0.6-0.3-1.1-0.3S14.2,194.9,13.9,195.1z"/>
		<path class="st40" d="M20.6,201.1c-0.5-0.3-0.9-0.8-1.1-1.4c-0.3-0.6-0.4-1.3-0.4-2.1s0.1-1.5,0.4-2.1c0.3-0.6,0.7-1.1,1.1-1.4
			c0.5-0.3,1-0.5,1.7-0.5c0.6,0,1.2,0.2,1.7,0.5c0.5,0.3,0.9,0.8,1.1,1.4s0.4,1.3,0.4,2.1s-0.1,1.5-0.4,2.1
			c-0.3,0.6-0.7,1.1-1.1,1.4c-0.5,0.3-1,0.5-1.7,0.5C21.6,201.6,21.1,201.4,20.6,201.1z M23.6,199.7c0.3-0.5,0.5-1.1,0.5-2
			s-0.2-1.6-0.5-2c-0.3-0.5-0.8-0.7-1.3-0.7c-0.5,0-1,0.2-1.3,0.7c-0.3,0.5-0.5,1.1-0.5,2s0.2,1.6,0.5,2c0.3,0.5,0.8,0.7,1.3,0.7
			C22.8,200.3,23.2,200.1,23.6,199.7z"/>
	</g>
</g>
<g>
	<g>
		<path class="st40" d="M18.3,256.2v1l-3,6.7h-1.5l2.9-6.5h-3v1.3h-1.3v-2.5H18.3z"/>
		<path class="st40" d="M20.5,263.6c-0.5-0.3-0.9-0.8-1.1-1.4c-0.3-0.6-0.4-1.3-0.4-2.1s0.1-1.5,0.4-2.1c0.3-0.6,0.7-1.1,1.1-1.4
			c0.5-0.3,1-0.5,1.7-0.5c0.6,0,1.2,0.2,1.7,0.5c0.5,0.3,0.9,0.8,1.1,1.4s0.4,1.3,0.4,2.1s-0.1,1.5-0.4,2.1
			c-0.3,0.6-0.7,1.1-1.1,1.4c-0.5,0.3-1,0.5-1.7,0.5C21.5,264,21,263.9,20.5,263.6z M23.5,262.1c0.3-0.5,0.5-1.1,0.5-2
			s-0.2-1.6-0.5-2c-0.3-0.5-0.8-0.7-1.3-0.7c-0.5,0-1,0.2-1.3,0.7c-0.3,0.5-0.5,1.1-0.5,2s0.2,1.6,0.5,2c0.3,0.5,0.8,0.7,1.3,0.7
			C22.7,262.8,23.1,262.6,23.5,262.1z"/>
	</g>
</g>
<g>
	<path class="st40" d="M17.1,322.2c0.4,0.2,0.7,0.5,0.9,0.8s0.3,0.8,0.3,1.2c0,0.5-0.1,0.9-0.4,1.3c-0.2,0.4-0.6,0.7-1,0.9
		c-0.4,0.2-0.9,0.3-1.4,0.3c-1.1,0-1.9-0.3-2.5-1c-0.6-0.7-0.9-1.6-0.9-2.8c0-0.9,0.2-1.6,0.5-2.2s0.8-1.1,1.3-1.4
		c0.6-0.3,1.2-0.5,2-0.5c0.4,0,0.8,0,1.1,0.1c0.3,0.1,0.7,0.2,0.9,0.4l-0.5,1.1c-0.4-0.2-0.9-0.4-1.5-0.4c-0.7,0-1.3,0.2-1.7,0.7
		c-0.4,0.5-0.6,1.1-0.6,2v0c0.2-0.3,0.5-0.5,0.9-0.6c0.4-0.1,0.7-0.2,1.2-0.2C16.3,321.9,16.7,322,17.1,322.2z M16.6,325.3
		c0.3-0.2,0.4-0.6,0.4-1c0-0.4-0.1-0.7-0.4-1c-0.3-0.2-0.7-0.4-1.1-0.4c-0.5,0-0.8,0.1-1.1,0.4c-0.3,0.2-0.4,0.6-0.4,0.9
		c0,0.4,0.1,0.7,0.4,0.9c0.3,0.2,0.7,0.4,1.2,0.4C16,325.7,16.3,325.6,16.6,325.3z"/>
	<path class="st40" d="M20.7,326.3c-0.5-0.3-0.9-0.8-1.1-1.4c-0.3-0.6-0.4-1.3-0.4-2.1s0.1-1.5,0.4-2.1c0.3-0.6,0.7-1.1,1.1-1.4
		s1-0.5,1.7-0.5c0.6,0,1.2,0.2,1.7,0.5c0.5,0.3,0.9,0.8,1.1,1.4s0.4,1.3,0.4,2.1s-0.1,1.5-0.4,2.1s-0.7,1.1-1.1,1.4
		c-0.5,0.3-1,0.5-1.7,0.5C21.8,326.8,21.2,326.6,20.7,326.3z M23.7,324.9c0.3-0.5,0.5-1.1,0.5-2c0-0.9-0.2-1.6-0.5-2
		c-0.3-0.5-0.8-0.7-1.3-0.7c-0.5,0-1,0.2-1.3,0.7c-0.3,0.5-0.5,1.1-0.5,2c0,0.9,0.2,1.6,0.5,2c0.3,0.5,0.8,0.7,1.3,0.7
		C22.9,325.6,23.4,325.3,23.7,324.9z"/>
</g>
<g>
	<path class="st40" d="M17.3,382.7c0.5,0.4,0.8,1,0.8,1.7c0,0.5-0.1,0.9-0.3,1.3c-0.2,0.4-0.6,0.7-1,0.9c-0.5,0.2-1,0.3-1.7,0.3
		c-0.5,0-1.1-0.1-1.6-0.2c-0.5-0.2-0.9-0.4-1.3-0.7l0.6-1.1c0.3,0.2,0.6,0.4,1,0.6s0.8,0.2,1.2,0.2c0.5,0,0.9-0.1,1.2-0.3
		c0.3-0.2,0.4-0.5,0.4-0.9c0-0.4-0.2-0.7-0.5-0.9c-0.3-0.2-0.8-0.3-1.6-0.3h-1.9l0.4-4.2h4.5v1.2h-3.3l-0.2,1.8h0.7
		C16,382,16.8,382.2,17.3,382.7z"/>
	<path class="st40" d="M20.5,386.4c-0.5-0.3-0.9-0.8-1.1-1.4c-0.3-0.6-0.4-1.3-0.4-2.1s0.1-1.5,0.4-2.1c0.3-0.6,0.7-1.1,1.1-1.4
		c0.5-0.3,1-0.5,1.7-0.5c0.6,0,1.2,0.2,1.7,0.5c0.5,0.3,0.9,0.8,1.1,1.4s0.4,1.3,0.4,2.1s-0.1,1.5-0.4,2.1c-0.3,0.6-0.7,1.1-1.1,1.4
		c-0.5,0.3-1,0.5-1.7,0.5C21.5,386.9,21,386.7,20.5,386.4z M23.4,384.9c0.3-0.5,0.5-1.1,0.5-2c0-0.9-0.2-1.6-0.5-2
		c-0.3-0.5-0.8-0.7-1.3-0.7c-0.5,0-1,0.2-1.3,0.7c-0.3,0.5-0.5,1.1-0.5,2c0,0.9,0.2,1.6,0.5,2c0.3,0.5,0.8,0.7,1.3,0.7
		C22.7,385.6,23.1,385.4,23.4,384.9z"/>
</g>
<g>
	<g>
		<path class="st40" d="M17.4,497.8c0.4,0.4,0.6,0.9,0.6,1.5c0,0.4-0.1,0.9-0.3,1.2c-0.2,0.4-0.6,0.7-1,0.9c-0.5,0.2-1,0.3-1.7,0.3
			c-0.6,0-1.1-0.1-1.6-0.2c-0.5-0.2-0.9-0.4-1.3-0.7l0.6-1.1c0.3,0.2,0.6,0.4,1,0.6s0.8,0.2,1.2,0.2c0.5,0,0.9-0.1,1.2-0.3
			c0.3-0.2,0.4-0.5,0.4-0.9s-0.1-0.6-0.4-0.8c-0.3-0.2-0.7-0.3-1.3-0.3h-0.7v-1l1.7-2.1h-3.5v-1.2h5.2v1l-1.9,2.2
			C16.5,497.2,17,497.4,17.4,497.8z"/>
		<path class="st40" d="M20.5,501.3c-0.5-0.3-0.9-0.8-1.1-1.4c-0.3-0.6-0.4-1.3-0.4-2.1s0.1-1.5,0.4-2.1c0.3-0.6,0.7-1.1,1.1-1.4
			s1-0.5,1.7-0.5c0.6,0,1.2,0.2,1.7,0.5c0.5,0.3,0.9,0.8,1.1,1.4s0.4,1.3,0.4,2.1s-0.1,1.5-0.4,2.1s-0.7,1.1-1.1,1.4
			c-0.5,0.3-1,0.5-1.7,0.5C21.5,501.7,21,501.6,20.5,501.3z M23.4,499.8c0.3-0.5,0.5-1.1,0.5-2c0-0.9-0.2-1.6-0.5-2
			c-0.3-0.5-0.8-0.7-1.3-0.7c-0.5,0-1,0.2-1.3,0.7c-0.3,0.5-0.5,1.1-0.5,2c0,0.9,0.2,1.6,0.5,2c0.3,0.5,0.8,0.7,1.3,0.7
			C22.7,500.5,23.1,500.3,23.4,499.8z"/>
	</g>
</g>
<g>
	<path class="st40" d="M18.1,557.9v1.2h-5.7v-1l3.1-2.9c0.3-0.3,0.6-0.6,0.7-0.9c0.1-0.2,0.2-0.5,0.2-0.7c0-0.4-0.1-0.6-0.4-0.8
		c-0.2-0.2-0.6-0.3-1.1-0.3c-0.8,0-1.4,0.3-1.8,0.8l-1-0.8c0.3-0.4,0.7-0.7,1.2-0.9c0.5-0.2,1.1-0.3,1.7-0.3c0.8,0,1.5,0.2,2,0.6
		c0.5,0.4,0.7,0.9,0.7,1.6c0,0.4-0.1,0.8-0.3,1.2c-0.2,0.4-0.5,0.8-1,1.3l-2.1,2H18.1z"/>
	<path class="st40" d="M20.5,558.8c-0.5-0.3-0.9-0.8-1.1-1.4c-0.3-0.6-0.4-1.3-0.4-2.1s0.1-1.5,0.4-2.1c0.3-0.6,0.7-1.1,1.1-1.4
		c0.5-0.3,1-0.5,1.7-0.5c0.6,0,1.2,0.2,1.7,0.5c0.5,0.3,0.9,0.8,1.1,1.4s0.4,1.3,0.4,2.1s-0.1,1.5-0.4,2.1c-0.3,0.6-0.7,1.1-1.1,1.4
		c-0.5,0.3-1,0.5-1.7,0.5C21.5,559.2,20.9,559.1,20.5,558.8z M23.4,557.3c0.3-0.5,0.5-1.1,0.5-2c0-0.9-0.2-1.6-0.5-2
		c-0.3-0.5-0.8-0.7-1.3-0.7c-0.5,0-1,0.2-1.3,0.7c-0.3,0.5-0.5,1.1-0.5,2c0,0.9,0.2,1.6,0.5,2c0.3,0.5,0.8,0.7,1.3,0.7
		C22.7,558,23.1,557.8,23.4,557.3z"/>
</g>
<g>
	<path class="st40" d="M16.3,599.3v7.7h-1.4v-6.5h-1.6v-1.2H16.3z"/>
	<path class="st40" d="M19.4,606.7c-0.5-0.3-0.9-0.8-1.1-1.4c-0.3-0.6-0.4-1.3-0.4-2.1s0.1-1.5,0.4-2.1c0.3-0.6,0.7-1.1,1.1-1.4
		c0.5-0.3,1-0.5,1.7-0.5c0.6,0,1.2,0.2,1.7,0.5c0.5,0.3,0.9,0.8,1.1,1.4s0.4,1.3,0.4,2.1s-0.1,1.5-0.4,2.1c-0.3,0.6-0.7,1.1-1.1,1.4
		c-0.5,0.3-1,0.5-1.7,0.5C20.4,607.2,19.9,607,19.4,606.7z M22.3,605.2c0.3-0.5,0.5-1.1,0.5-2c0-0.9-0.2-1.6-0.5-2
		c-0.3-0.5-0.8-0.7-1.3-0.7c-0.5,0-1,0.2-1.3,0.7c-0.3,0.5-0.5,1.1-0.5,2c0,0.9,0.2,1.6,0.5,2c0.3,0.5,0.8,0.7,1.3,0.7
		C21.6,605.9,22,605.7,22.3,605.2z"/>
</g>
<g>
	<path class="st40" d="M18.8,442.8h-1.4v1.7h-1.4v-1.7h-4.2v-1l3.8-5h1.5l-3.6,4.7h2.5v-1.6h1.3v1.6h1.4V442.8z"/>
	<path class="st40" d="M21,444.2c-0.5-0.3-0.9-0.8-1.1-1.4c-0.3-0.6-0.4-1.3-0.4-2.1s0.1-1.5,0.4-2.1c0.3-0.6,0.7-1.1,1.1-1.4
		s1-0.5,1.7-0.5c0.6,0,1.2,0.2,1.7,0.5c0.5,0.3,0.9,0.8,1.1,1.4s0.4,1.3,0.4,2.1s-0.1,1.5-0.4,2.1s-0.7,1.1-1.1,1.4
		c-0.5,0.3-1,0.5-1.7,0.5C22,444.7,21.5,444.5,21,444.2z M24,442.8c0.3-0.5,0.5-1.1,0.5-2c0-0.9-0.2-1.6-0.5-2
		c-0.3-0.5-0.8-0.7-1.3-0.7c-0.5,0-1,0.2-1.3,0.7c-0.3,0.5-0.5,1.1-0.5,2c0,0.9,0.2,1.6,0.5,2c0.3,0.5,0.8,0.7,1.3,0.7
		C23.2,443.5,23.6,443.2,24,442.8z"/>
</g>
</svg>
