<?xml version="1.0" encoding="utf-8"?>
<!-- Generator: Adobe Illustrator 28.0.0, SVG Export Plug-In . SVG Version: 6.00 Build 0)  -->
<svg version="1.1" id="Livello_1" xmlns="http://www.w3.org/2000/svg" xmlns:xlink="http://www.w3.org/1999/xlink" x="0px" y="0px"
	 width="38px" height="644px" viewBox="0 0 37.2 644.1" style="enable-background:new 0 0 37.2 644.1;" xml:space="preserve">
<style type="text/css">
	.st0{display:none;}
	.st1{display:inline;}
	.st2{clip-path:url(#SVGID_00000034806254763401928700000012178625959889202308_);}
	.st3{fill:#F59826;}
	.st4{fill:#FDCC22;}
	.st5{fill:#6655AD;}
	.st6{fill:#975EAD;}
	.st7{fill:#C66AAF;}
	.st8{fill:#AF48A1;}
	.st9{fill:#981595;}
	.st10{fill:#660666;}
	.st11{fill:#640E0E;}
	.st12{fill:#991E1F;}
	.st13{fill:#CB2527;}
	.st14{fill:#EC2426;}
	.st15{fill:#F06626;}
	.st16{fill:#FCFC1E;}
	.st17{fill:#CBE436;}
	.st18{fill:#7ECB47;}
	.st19{fill:#0EB04E;}
	.st20{fill:#37BD7C;}
	.st21{fill:#58C3BA;}
	.st22{fill:#6FC9DC;}
	.st23{fill:#33BCF3;}
	.st24{fill:#498DD2;}
	.st25{fill:#4469BB;}
	.st26{fill:#3F57B0;}
	.st27{display:none;fill:none;stroke:#3C3430;stroke-width:3;stroke-miterlimit:10;}
	.st28{clip-path:url(#SVGID_00000011723697784921693490000011470552923988160952_);fill:#FFFAFA;}
	.st29{clip-path:url(#SVGID_00000146485673964984693360000013424093403144781754_);fill:#FBD5D6;}
	.st30{clip-path:url(#SVGID_00000179617313010447898910000012214070158001956771_);fill:#F9C1C2;}
	.st31{clip-path:url(#SVGID_00000043435535309060112330000016819811277037267332_);fill:#FDEBEB;}
	.st32{clip-path:url(#SVGID_00000134210628930174149550000011668991652324735133_);fill:#F6ABAD;}
	.st33{clip-path:url(#SVGID_00000178191415769952317630000006900620726582714514_);fill:#F49799;}
	.st34{clip-path:url(#SVGID_00000050632254513615426590000007260311178709120138_);fill:#C8E8F0;}
	.st35{clip-path:url(#SVGID_00000058582767066780385340000013588246681841500548_);fill:#D0EBF7;}
	.st36{clip-path:url(#SVGID_00000127752280672010578440000011413598687609273767_);fill:#4898DA;}
	.st37{clip-path:url(#SVGID_00000115510254309091907730000005813096429499907229_);fill:#A3A5D7;}
	.st38{clip-path:url(#SVGID_00000142155448034638972440000006577769873965872819_);fill:#B988C1;}
	.st39{clip-path:url(#SVGID_00000170245905703921723590000008674398375795728268_);fill:#D7A2CD;}
	.st40{clip-path:url(#SVGID_00000069391182095962245660000009170454142898796726_);fill:#E8BEDB;}
	.st41{clip-path:url(#SVGID_00000016034695208009724110000010015813983357773218_);fill:#E67D9B;}
	.st42{clip-path:url(#SVGID_00000072273888028612808100000008107879613756143273_);fill:#DB4C4D;}
	.st43{clip-path:url(#SVGID_00000148663654101485973740000017070477396783341195_);fill:#EF5A5C;}
	.st44{clip-path:url(#SVGID_00000116203598679759517600000000385206827988289467_);fill:#F7A25C;}
	.st45{clip-path:url(#SVGID_00000152227642532051398270000002955887858274279347_);fill:#FDD58F;}
	.st46{clip-path:url(#SVGID_00000078026023552137152810000010626460547884462466_);fill:#FFE173;}
	.st47{clip-path:url(#SVGID_00000057117080882100363280000003085753640754429111_);fill:#FEFE82;}
	.st48{clip-path:url(#SVGID_00000168805654879653317860000015022174531812102298_);fill:#FFFFC7;}
	.st49{clip-path:url(#SVGID_00000129185487642469885100000011294251708442957228_);fill:#F3F3A1;}
	.st50{clip-path:url(#SVGID_00000080177172250511912560000017108748759221718940_);fill:#D3ECA4;}
	.st51{clip-path:url(#SVGID_00000120550491856060247400000005620658108634999425_);fill:#C3E6D8;}
	.st52{clip-path:url(#SVGID_00000165949580252867103630000012946407698515978163_);fill:#C8E8F0;}
	.st53{clip-path:url(#SVGID_00000011008811501169419210000004056713712103269769_);fill:#D0EBF7;}
	.st54{clip-path:url(#SVGID_00000088128163699357516000000013756576652157815686_);fill:#EC2426;}
	.st55{clip-path:url(#SVGID_00000018946737640495904170000008676886182675325848_);fill:#FCFC1E;}
	.st56{clip-path:url(#SVGID_00000085219332375437278970000005959249946543291017_);fill:#0B7F3F;}
	.st57{clip-path:url(#SVGID_00000160889265935995342760000005634318914157407623_);fill:#F7A426;}
	.st58{clip-path:url(#SVGID_00000005267216327319205780000008867987909941034381_);fill:#6FC9DC;}
	.st59{clip-path:url(#SVGID_00000018223748630099747320000001620179746985871793_);fill:#3F57B0;}
	.st60{display:none;fill:#3A332F;}
	.st61{display:none;fill:none;stroke:#3C3430;stroke-width:2.9317;stroke-miterlimit:9.7722;}
	.st62{display:inline;fill:#3C3530;}
	.st63{display:inline;fill:#FFFFFF;}
	.st64{display:none;fill:none;}
	.st65{display:none;enable-background:new    ;}
	.st66{clip-path:url(#SVGID_00000021119601642942131860000014061117894265021360_);}
	.st67{opacity:0.88;fill:#64007F;}
	.st68{opacity:0.88;fill:#FFDCDC;}
	.st69{opacity:0.88;fill:#FFB4B4;}
	.st70{opacity:0.88;fill:#F0A0A0;}
	.st71{opacity:0.88;fill:#B46464;}
	.st72{opacity:0.88;fill:#640000;}
	.st73{opacity:0.88;fill:#7C0000;}
	.st74{opacity:0.88;fill:#AF0F14;}
	.st75{opacity:0.88;fill:#C41A0A;}
	.st76{opacity:0.88;fill:#E83709;}
	.st77{opacity:0.88;fill:#F46D0B;}
	.st78{opacity:0.88;fill:#F4880B;}
	.st79{opacity:0.88;fill:#F4BD0B;}
	.st80{opacity:0.88;fill:#F4D90B;}
	.st81{opacity:0.88;fill:#F3FB01;}
	.st82{opacity:0.88;fill:#CEF003;}
	.st83{opacity:0.88;fill:#9CE106;}
	.st84{opacity:0.88;fill:#52CA0B;}
	.st85{opacity:0.88;fill:#21BB0E;}
	.st86{opacity:0.88;fill:#07A127;}
	.st87{opacity:0.88;fill:#62AF88;}
	.st88{opacity:0.88;fill:#87D3AB;}
	.st89{opacity:0.88;fill:#9FEEC8;}
	.st90{opacity:0.88;fill:#BBFFE2;}
	.st91{opacity:0.88;fill:#5BB4FF;}
	.st92{opacity:0.88;fill:#259AFF;}
	.st93{opacity:0.88;fill:#0082EF;}
	.st94{opacity:0.88;fill:#0062AF;}
	.st95{opacity:0.88;fill:#00528F;}
	.st96{opacity:0.88;fill:#00467F;}
	.st97{opacity:0.88;fill:#003C7F;}
	.st98{opacity:0.88;fill:#00287F;}
	.st99{opacity:0.88;fill:#3E007F;}
	.st100{opacity:0.88;fill:#57007F;}
	.st101{opacity:0.88;fill:#F627EB;}
	.st102{opacity:0.88;fill:#D41DD1;}
	.st103{opacity:0.88;fill:#B414B9;}
	.st104{opacity:0.88;fill:#870898;}
	.st105{opacity:0.88;fill:#78048D;}
	.st106{fill:none;stroke:#3C3430;stroke-width:2.9317;stroke-miterlimit:9.7722;}
	.st107{fill:#FFFFFF;}
	.st108{fill:#3C3530;}
	.st109{fill:#39322E;}
	.st110{fill:none;}
	.st111{font-family:'Montserrat-SemiBold';}
	.st112{font-size:13px;}
</style>
<g class="st0">
	<g class="st1">
		<g>
			<g>
				<g>
					<defs>
						<path id="SVGID_1_" d="M30.6,632.8c-0.3,3.7-6.4,8.1-11.7,8.1l0,0c-5.2,0.4-12.3-3.6-12.3-8.1V48.7c1.1-5.3,7.4-8.5,11.5-8.5
							l0,0c4.9,0,11.2,3.1,12.4,8.7L30.6,632.8L30.6,632.8z"/>
					</defs>
					<clipPath id="SVGID_00000170978532654659717520000007053348555834794140_">
						<use xlink:href="#SVGID_1_"  style="overflow:visible;"/>
					</clipPath>
					<g style="clip-path:url(#SVGID_00000170978532654659717520000007053348555834794140_);">
						<rect x="-1.1" y="41.6" class="st3" width="47.9" height="15"/>
						<rect x="-5.6" y="55.9" class="st4" width="47.4" height="14.2"/>
						<rect x="-5.6" y="70.1" class="st5" width="47.4" height="14.2"/>
						<rect x="-5.6" y="84.4" class="st6" width="47.4" height="14.2"/>
						<rect x="-5.6" y="98.7" class="st7" width="47.4" height="14.2"/>
						<rect x="-5.6" y="112.9" class="st8" width="47.4" height="14.2"/>
						<rect x="-5.6" y="127.1" class="st9" width="47.4" height="14.2"/>
						<rect x="-5.6" y="141.3" class="st10" width="47.4" height="14.2"/>
						<rect x="-5.6" y="155.5" class="st11" width="47.4" height="14.2"/>
						<rect x="-5.6" y="169.7" class="st12" width="47.4" height="14.2"/>
						<rect x="-5.6" y="184" class="st13" width="47.4" height="14.2"/>
						<rect x="-5.6" y="198.2" class="st14" width="47.4" height="14.2"/>
						<rect x="-5.6" y="212.4" class="st15" width="47.4" height="14.2"/>
						<rect x="-5.6" y="226.6" class="st3" width="47.4" height="14.2"/>
						<rect x="-5.6" y="240.8" class="st4" width="47.4" height="14.2"/>
						<rect x="-5.6" y="255" class="st16" width="47.4" height="14.2"/>
						<rect x="-5.6" y="269.3" class="st17" width="47.4" height="14.2"/>
						<rect x="-5.6" y="283.5" class="st18" width="47.4" height="14.2"/>
						<rect x="-5.6" y="297.7" class="st19" width="47.4" height="14.2"/>
						<rect x="-5.6" y="312" class="st20" width="47.4" height="14.2"/>
						<rect x="-5.6" y="326.2" class="st21" width="47.4" height="14.2"/>
						<rect x="-5.6" y="340.4" class="st22" width="47.4" height="14.2"/>
						<rect x="-5.6" y="354.7" class="st23" width="47.4" height="14.2"/>
						<rect x="-5.6" y="368.9" class="st24" width="47.4" height="14.2"/>
						<rect x="-5.6" y="383.1" class="st25" width="47.4" height="14.2"/>
						<rect x="-5.6" y="397.3" class="st26" width="47.4" height="14.2"/>
						<rect x="-5.6" y="411.5" class="st5" width="47.4" height="14.2"/>
						<rect x="-5.6" y="425.7" class="st6" width="47.4" height="14.2"/>
						<rect x="-5.6" y="440" class="st7" width="47.4" height="14.2"/>
						<rect x="-5.6" y="454.2" class="st8" width="47.4" height="14.2"/>
						<rect x="-5.6" y="468.4" class="st9" width="47.4" height="14.2"/>
						<rect x="-5.6" y="482.6" class="st10" width="47.4" height="14.2"/>
						<rect x="-5.6" y="496.8" class="st11" width="47.4" height="14.2"/>
						<rect x="-5.6" y="511" class="st12" width="47.4" height="14.2"/>
						<rect x="-5.6" y="525.3" class="st13" width="47.4" height="14.2"/>
						<rect x="-5.6" y="539.6" class="st14" width="47.4" height="14.2"/>
						<rect x="-5.6" y="553.8" class="st15" width="47.4" height="14.2"/>
						<rect x="-5.6" y="568" class="st3" width="47.4" height="14.2"/>
						<rect x="-5.6" y="582.2" class="st4" width="47.4" height="60.2"/>
					</g>
				</g>
			</g>
		</g>
	</g>
</g>
<path class="st27" d="M30.6,632.7c-0.3,3.7-6.4,8.1-11.7,8.1l0,0c-5.2,0.4-12.3-3.6-12.3-8.1V48.6c1.1-5.3,7.4-8.5,11.5-8.5l0,0
	c4.9,0,11.2,3.1,12.4,8.7L30.6,632.7L30.6,632.7z"/>
<g class="st0">
	<g class="st1">
		<g>
			<g>
				<g>
					<g>
						<g>
							<defs>
								<path id="SVGID_00000175304170933015800730000008758266904345244349_" d="M18.6,575.9c-0.3,3.3-5.5,7.3-10.1,7.3l0,0
									C4,583.6-2.1,580-2.1,575.9v-526c1-4.8,6.3-7.6,10-7.6l0,0c4.2,0,9.7,2.9,10.8,7.8L18.6,575.9L18.6,575.9z"/>
							</defs>
							<clipPath id="SVGID_00000183927413984996943670000009716375959190004625_">
								<use xlink:href="#SVGID_00000175304170933015800730000008758266904345244349_"  style="overflow:visible;"/>
							</clipPath>
							
								<rect x="-7.2" y="492.4" style="clip-path:url(#SVGID_00000183927413984996943670000009716375959190004625_);fill:#FFFAFA;" width="30.9" height="96.8"/>
						</g>
					</g>
				</g>
			</g>
		</g>
		<g>
			<g>
				<g>
					<g>
						<g>
							<defs>
								<path id="SVGID_00000110451271453063365790000014475481040465948576_" d="M18.6,575.9c-0.3,3.3-5.5,7.3-10.1,7.3l0,0
									C4,583.6-2.1,580-2.1,575.9v-526c1-4.8,6.3-7.6,10-7.6l0,0c4.2,0,9.7,2.9,10.8,7.8L18.6,575.9L18.6,575.9z"/>
							</defs>
							<clipPath id="SVGID_00000000224295772784216420000007977882276762289536_">
								<use xlink:href="#SVGID_00000110451271453063365790000014475481040465948576_"  style="overflow:visible;"/>
							</clipPath>
							
								<rect x="-6.9" y="316.4" style="clip-path:url(#SVGID_00000000224295772784216420000007977882276762289536_);fill:#FBD5D6;" width="30.9" height="88"/>
						</g>
					</g>
				</g>
			</g>
		</g>
		<g>
			<g>
				<g>
					<g>
						<g>
							<defs>
								<path id="SVGID_00000020375821518175743930000012073507329720090285_" d="M18.6,575.9c-0.3,3.3-5.5,7.3-10.1,7.3l0,0
									C4,583.6-2.1,580-2.1,575.9v-526c1-4.8,6.3-7.6,10-7.6l0,0c4.2,0,9.7,2.9,10.8,7.8L18.6,575.9L18.6,575.9z"/>
							</defs>
							<clipPath id="SVGID_00000166634412768430138720000008855645123175786387_">
								<use xlink:href="#SVGID_00000020375821518175743930000012073507329720090285_"  style="overflow:visible;"/>
							</clipPath>
							
								<rect x="-6.9" y="228.4" style="clip-path:url(#SVGID_00000166634412768430138720000008855645123175786387_);fill:#F9C1C2;" width="30.9" height="88"/>
						</g>
					</g>
				</g>
			</g>
		</g>
		<g>
			<g>
				<g>
					<g>
						<g>
							<defs>
								<path id="SVGID_00000125570727622290277730000005793949802793201065_" d="M18.6,575.9c-0.3,3.3-5.5,7.3-10.1,7.3l0,0
									C4,583.6-2.1,580-2.1,575.9v-526c1-4.8,6.3-7.6,10-7.6l0,0c4.2,0,9.7,2.9,10.8,7.8L18.6,575.9L18.6,575.9z"/>
							</defs>
							<clipPath id="SVGID_00000109714543586238185620000004928638024265879970_">
								<use xlink:href="#SVGID_00000125570727622290277730000005793949802793201065_"  style="overflow:visible;"/>
							</clipPath>
							
								<rect x="-7.2" y="404.4" style="clip-path:url(#SVGID_00000109714543586238185620000004928638024265879970_);fill:#FDEBEB;" width="30.9" height="88"/>
						</g>
					</g>
				</g>
			</g>
		</g>
		<g>
			<g>
				<g>
					<g>
						<g>
							<defs>
								<path id="SVGID_00000046321980668680936960000010036324608895751844_" d="M18.6,575.9c-0.3,3.3-5.5,7.3-10.1,7.3l0,0
									C4,583.6-2.1,580-2.1,575.9v-526c1-4.8,6.3-7.6,10-7.6l0,0c4.2,0,9.7,2.9,10.8,7.8L18.6,575.9L18.6,575.9z"/>
							</defs>
							<clipPath id="SVGID_00000103229234223178776580000010633646253560769426_">
								<use xlink:href="#SVGID_00000046321980668680936960000010036324608895751844_"  style="overflow:visible;"/>
							</clipPath>
							
								<rect x="-6.9" y="140.4" style="clip-path:url(#SVGID_00000103229234223178776580000010633646253560769426_);fill:#F6ABAD;" width="30.9" height="88"/>
						</g>
					</g>
				</g>
			</g>
		</g>
		<g>
			<g>
				<g>
					<g>
						<g>
							<defs>
								<path id="SVGID_00000026854818102266566460000007846363050837894538_" d="M18.6,575.9c-0.3,3.3-5.5,7.3-10.1,7.3l0,0
									C4,583.6-2.1,580-2.1,575.9v-526c1-4.8,6.3-7.6,10-7.6l0,0c4.2,0,9.7,2.9,10.8,7.8L18.6,575.9L18.6,575.9z"/>
							</defs>
							<clipPath id="SVGID_00000028283774001545400310000000486070966341359524_">
								<use xlink:href="#SVGID_00000026854818102266566460000007846363050837894538_"  style="overflow:visible;"/>
							</clipPath>
							
								<rect x="-7.2" y="43.6" style="clip-path:url(#SVGID_00000028283774001545400310000000486070966341359524_);fill:#F49799;" width="30.9" height="96.8"/>
						</g>
					</g>
				</g>
			</g>
		</g>
	</g>
</g>
<g class="st0">
	<g class="st1">
		<g>
			<g>
				<g>
					<g>
						<defs>
							<path id="SVGID_00000031889054438737871890000000326770130461332910_" d="M18.6,575.9c0,3.6-5.8,7.9-10.4,7.9H7.6
								c-4.2,0-9.7-3.8-9.7-7.9v-526c1-4.8,6.3-7.6,10-7.6l0,0c4.2,0,9.7,2.9,10.7,7.8V575.9L18.6,575.9z"/>
						</defs>
						<clipPath id="SVGID_00000099644741800213283840000000267158204732704664_">
							<use xlink:href="#SVGID_00000031889054438737871890000000326770130461332910_"  style="overflow:visible;"/>
						</clipPath>
						
							<rect x="-12.9" y="42.3" style="clip-path:url(#SVGID_00000099644741800213283840000000267158204732704664_);fill:#C8E8F0;" width="42.3" height="26.6"/>
					</g>
				</g>
			</g>
		</g>
	</g>
	<g class="st1">
		<g>
			<g>
				<g>
					<g>
						<defs>
							<path id="SVGID_00000023969468291156869380000016017119063743835568_" d="M18.6,575.9c0,3.6-5.8,7.9-10.4,7.9H7.6
								c-4.2,0-9.7-3.8-9.7-7.9v-526c1-4.8,6.3-7.6,10-7.6l0,0c4.2,0,9.7,2.9,10.7,7.8V575.9L18.6,575.9z"/>
						</defs>
						<clipPath id="SVGID_00000080904246933403719810000011972743735300956850_">
							<use xlink:href="#SVGID_00000023969468291156869380000016017119063743835568_"  style="overflow:visible;"/>
						</clipPath>
						
							<rect x="-12.9" y="68.9" style="clip-path:url(#SVGID_00000080904246933403719810000011972743735300956850_);fill:#D0EBF7;" width="42.3" height="26.6"/>
					</g>
				</g>
			</g>
		</g>
	</g>
	<g class="st1">
		<g>
			<g>
				<g>
					<g>
						<defs>
							<path id="SVGID_00000034791803394046254240000016970160774196715411_" d="M18.6,575.9c0,3.6-5.8,7.9-10.4,7.9H7.6
								c-4.2,0-9.7-3.8-9.7-7.9v-526c1-4.8,6.3-7.6,10-7.6l0,0c4.2,0,9.7,2.9,10.7,7.8V575.9L18.6,575.9z"/>
						</defs>
						<clipPath id="SVGID_00000130630981577565661740000000902362284744089273_">
							<use xlink:href="#SVGID_00000034791803394046254240000016970160774196715411_"  style="overflow:visible;"/>
						</clipPath>
						
							<rect x="-12.9" y="95" style="clip-path:url(#SVGID_00000130630981577565661740000000902362284744089273_);fill:#4898DA;" width="42.3" height="26.6"/>
					</g>
				</g>
			</g>
		</g>
	</g>
	<g class="st1">
		<g>
			<g>
				<g>
					<g>
						<defs>
							<path id="SVGID_00000024690048650284415070000009626875242901958561_" d="M18.6,575.9c0,3.6-5.8,7.9-10.4,7.9H7.6
								c-4.2,0-9.7-3.8-9.7-7.9v-526c1-4.8,6.3-7.6,10-7.6l0,0c4.2,0,9.7,2.9,10.7,7.8V575.9L18.6,575.9z"/>
						</defs>
						<clipPath id="SVGID_00000083783062906738813390000004453929110240452264_">
							<use xlink:href="#SVGID_00000024690048650284415070000009626875242901958561_"  style="overflow:visible;"/>
						</clipPath>
						
							<rect x="-12.9" y="121.6" style="clip-path:url(#SVGID_00000083783062906738813390000004453929110240452264_);fill:#A3A5D7;" width="42.3" height="26.6"/>
					</g>
				</g>
			</g>
		</g>
	</g>
	<g class="st1">
		<g>
			<g>
				<g>
					<g>
						<defs>
							<path id="SVGID_00000109712360479015254390000011191902971090828709_" d="M18.6,575.9c0,3.6-5.8,7.9-10.4,7.9H7.6
								c-4.2,0-9.7-3.8-9.7-7.9v-526c1-4.8,6.3-7.6,10-7.6l0,0c4.2,0,9.7,2.9,10.7,7.8V575.9L18.6,575.9z"/>
						</defs>
						<clipPath id="SVGID_00000163769806551077130950000005631049477546994076_">
							<use xlink:href="#SVGID_00000109712360479015254390000011191902971090828709_"  style="overflow:visible;"/>
						</clipPath>
						
							<rect x="-12.9" y="148.2" style="clip-path:url(#SVGID_00000163769806551077130950000005631049477546994076_);fill:#B988C1;" width="42.3" height="26.6"/>
					</g>
				</g>
			</g>
		</g>
	</g>
	<g class="st1">
		<g>
			<g>
				<g>
					<g>
						<defs>
							<path id="SVGID_00000104697554914861310650000006323779906303037332_" d="M18.6,575.9c0,3.6-5.8,7.9-10.4,7.9H7.6
								c-4.2,0-9.7-3.8-9.7-7.9v-526c1-4.8,6.3-7.6,10-7.6l0,0c4.2,0,9.7,2.9,10.7,7.8V575.9L18.6,575.9z"/>
						</defs>
						<clipPath id="SVGID_00000009588608365465707480000003766392640637646232_">
							<use xlink:href="#SVGID_00000104697554914861310650000006323779906303037332_"  style="overflow:visible;"/>
						</clipPath>
						
							<rect x="-12.9" y="174.9" style="clip-path:url(#SVGID_00000009588608365465707480000003766392640637646232_);fill:#D7A2CD;" width="42.3" height="26.6"/>
					</g>
				</g>
			</g>
		</g>
	</g>
	<g class="st1">
		<g>
			<g>
				<g>
					<g>
						<defs>
							<path id="SVGID_00000134207752199492215390000012103884729351426178_" d="M18.6,575.9c0,3.6-5.8,7.9-10.4,7.9H7.6
								c-4.2,0-9.7-3.8-9.7-7.9v-526c1-4.8,6.3-7.6,10-7.6l0,0c4.2,0,9.7,2.9,10.7,7.8V575.9L18.6,575.9z"/>
						</defs>
						<clipPath id="SVGID_00000049190315067982455220000010026556852785262525_">
							<use xlink:href="#SVGID_00000134207752199492215390000012103884729351426178_"  style="overflow:visible;"/>
						</clipPath>
						
							<rect x="-12.9" y="201.1" style="clip-path:url(#SVGID_00000049190315067982455220000010026556852785262525_);fill:#E8BEDB;" width="42.3" height="26.6"/>
					</g>
				</g>
			</g>
		</g>
	</g>
	<g class="st1">
		<g>
			<g>
				<g>
					<g>
						<defs>
							<path id="SVGID_00000062913715575240701870000007526910201231588271_" d="M18.6,575.9c0,3.6-5.8,7.9-10.4,7.9H7.6
								c-4.2,0-9.7-3.8-9.7-7.9v-526c1-4.8,6.3-7.6,10-7.6l0,0c4.2,0,9.7,2.9,10.7,7.8V575.9L18.6,575.9z"/>
						</defs>
						<clipPath id="SVGID_00000127036118687051250310000003969179519199415470_">
							<use xlink:href="#SVGID_00000062913715575240701870000007526910201231588271_"  style="overflow:visible;"/>
						</clipPath>
						
							<rect x="-12.9" y="227.8" style="clip-path:url(#SVGID_00000127036118687051250310000003969179519199415470_);fill:#E67D9B;" width="42.3" height="26.6"/>
					</g>
				</g>
			</g>
		</g>
	</g>
	<g class="st1">
		<g>
			<g>
				<g>
					<g>
						<defs>
							<path id="SVGID_00000047759721896691473140000002190310479538755765_" d="M18.6,575.9c0,3.6-5.8,7.9-10.4,7.9H7.6
								c-4.2,0-9.7-3.8-9.7-7.9v-526c1-4.8,6.3-7.6,10-7.6l0,0c4.2,0,9.7,2.9,10.7,7.8V575.9L18.6,575.9z"/>
						</defs>
						<clipPath id="SVGID_00000109017763723268078140000011026983760045359535_">
							<use xlink:href="#SVGID_00000047759721896691473140000002190310479538755765_"  style="overflow:visible;"/>
						</clipPath>
						
							<rect x="-12.9" y="254.4" style="clip-path:url(#SVGID_00000109017763723268078140000011026983760045359535_);fill:#DB4C4D;" width="42.3" height="26.6"/>
					</g>
				</g>
			</g>
		</g>
	</g>
	<g class="st1">
		<g>
			<g>
				<g>
					<g>
						<defs>
							<path id="SVGID_00000160897300762291194500000006364401449684723384_" d="M18.6,575.9c0,3.6-5.8,7.9-10.4,7.9H7.6
								c-4.2,0-9.7-3.8-9.7-7.9v-526c1-4.8,6.3-7.6,10-7.6l0,0c4.2,0,9.7,2.9,10.7,7.8V575.9L18.6,575.9z"/>
						</defs>
						<clipPath id="SVGID_00000124853113022301633900000005292559290299318966_">
							<use xlink:href="#SVGID_00000160897300762291194500000006364401449684723384_"  style="overflow:visible;"/>
						</clipPath>
						
							<rect x="-12.9" y="281" style="clip-path:url(#SVGID_00000124853113022301633900000005292559290299318966_);fill:#EF5A5C;" width="42.3" height="26.6"/>
					</g>
				</g>
			</g>
		</g>
	</g>
	<g class="st1">
		<g>
			<g>
				<g>
					<g>
						<defs>
							<path id="SVGID_00000143601951058255537670000013763047390760596866_" d="M18.6,575.9c0,3.6-5.8,7.9-10.4,7.9H7.6
								c-4.2,0-9.7-3.8-9.7-7.9v-526c1-4.8,6.3-7.6,10-7.6l0,0c4.2,0,9.7,2.9,10.7,7.8V575.9L18.6,575.9z"/>
						</defs>
						<clipPath id="SVGID_00000037673022860910529550000007525734450616678569_">
							<use xlink:href="#SVGID_00000143601951058255537670000013763047390760596866_"  style="overflow:visible;"/>
						</clipPath>
						
							<rect x="-12.9" y="307.3" style="clip-path:url(#SVGID_00000037673022860910529550000007525734450616678569_);fill:#F7A25C;" width="42.3" height="26.6"/>
					</g>
				</g>
			</g>
		</g>
	</g>
	<g class="st1">
		<g>
			<g>
				<g>
					<g>
						<defs>
							<path id="SVGID_00000042015329265323263340000005642462241020150432_" d="M18.6,575.9c0,3.6-5.8,7.9-10.4,7.9H7.6
								c-4.2,0-9.7-3.8-9.7-7.9v-526c1-4.8,6.3-7.6,10-7.6l0,0c4.2,0,9.7,2.9,10.7,7.8V575.9L18.6,575.9z"/>
						</defs>
						<clipPath id="SVGID_00000183236604463891351680000014212510188492812210_">
							<use xlink:href="#SVGID_00000042015329265323263340000005642462241020150432_"  style="overflow:visible;"/>
						</clipPath>
						
							<rect x="-12.9" y="333.9" style="clip-path:url(#SVGID_00000183236604463891351680000014212510188492812210_);fill:#FDD58F;" width="42.3" height="26.6"/>
					</g>
				</g>
			</g>
		</g>
	</g>
	<g class="st1">
		<g>
			<g>
				<g>
					<g>
						<defs>
							<path id="SVGID_00000160150401747467807920000016207915184591162766_" d="M18.6,575.9c0,3.6-5.8,7.9-10.4,7.9H7.6
								c-4.2,0-9.7-3.8-9.7-7.9v-526c1-4.8,6.3-7.6,10-7.6l0,0c4.2,0,9.7,2.9,10.7,7.8V575.9L18.6,575.9z"/>
						</defs>
						<clipPath id="SVGID_00000178172074685057730410000007849279774081827728_">
							<use xlink:href="#SVGID_00000160150401747467807920000016207915184591162766_"  style="overflow:visible;"/>
						</clipPath>
						
							<rect x="-12.9" y="360.5" style="clip-path:url(#SVGID_00000178172074685057730410000007849279774081827728_);fill:#FFE173;" width="42.3" height="26.6"/>
					</g>
				</g>
			</g>
		</g>
	</g>
	<g class="st1">
		<g>
			<g>
				<g>
					<g>
						<defs>
							<path id="SVGID_00000140726816468661074010000003988157867675848331_" d="M18.6,575.9c0,3.6-5.8,7.9-10.4,7.9H7.6
								c-4.2,0-9.7-3.8-9.7-7.9v-526c1-4.8,6.3-7.6,10-7.6l0,0c4.2,0,9.7,2.9,10.7,7.8V575.9L18.6,575.9z"/>
						</defs>
						<clipPath id="SVGID_00000125600998326766393860000016889606502808307843_">
							<use xlink:href="#SVGID_00000140726816468661074010000003988157867675848331_"  style="overflow:visible;"/>
						</clipPath>
						
							<rect x="-12.9" y="387.1" style="clip-path:url(#SVGID_00000125600998326766393860000016889606502808307843_);fill:#FEFE82;" width="42.3" height="26.6"/>
					</g>
				</g>
			</g>
		</g>
	</g>
	<g class="st1">
		<g>
			<g>
				<g>
					<g>
						<defs>
							<path id="SVGID_00000009560650833885261900000012784872387717515195_" d="M18.6,575.9c0,3.6-5.8,7.9-10.4,7.9H7.6
								c-4.2,0-9.7-3.8-9.7-7.9v-526c1-4.8,6.3-7.6,10-7.6l0,0c4.2,0,9.7,2.9,10.7,7.8V575.9L18.6,575.9z"/>
						</defs>
						<clipPath id="SVGID_00000072239399146029842870000017121350395890935172_">
							<use xlink:href="#SVGID_00000009560650833885261900000012784872387717515195_"  style="overflow:visible;"/>
						</clipPath>
						
							<rect x="-12.9" y="413.4" style="clip-path:url(#SVGID_00000072239399146029842870000017121350395890935172_);fill:#FFFFC7;" width="42.3" height="26.6"/>
					</g>
				</g>
			</g>
		</g>
	</g>
	<g class="st1">
		<g>
			<g>
				<g>
					<g>
						<defs>
							<path id="SVGID_00000155859622102840857150000008469077052393501856_" d="M18.6,575.9c0,3.6-5.8,7.9-10.4,7.9H7.6
								c-4.2,0-9.7-3.8-9.7-7.9v-526c1-4.8,6.3-7.6,10-7.6l0,0c4.2,0,9.7,2.9,10.7,7.8V575.9L18.6,575.9z"/>
						</defs>
						<clipPath id="SVGID_00000007427172472341852910000014853319953418343566_">
							<use xlink:href="#SVGID_00000155859622102840857150000008469077052393501856_"  style="overflow:visible;"/>
						</clipPath>
						
							<rect x="-12.9" y="440" style="clip-path:url(#SVGID_00000007427172472341852910000014853319953418343566_);fill:#F3F3A1;" width="42.3" height="26.6"/>
					</g>
				</g>
			</g>
		</g>
	</g>
	<g class="st1">
		<g>
			<g>
				<g>
					<g>
						<defs>
							<path id="SVGID_00000151540576665700893750000000041188592212317833_" d="M18.6,575.9c0,3.6-5.8,7.9-10.4,7.9H7.6
								c-4.2,0-9.7-3.8-9.7-7.9v-526c1-4.8,6.3-7.6,10-7.6l0,0c4.2,0,9.7,2.9,10.7,7.8V575.9L18.6,575.9z"/>
						</defs>
						<clipPath id="SVGID_00000176017717545807213400000002589921792961056651_">
							<use xlink:href="#SVGID_00000151540576665700893750000000041188592212317833_"  style="overflow:visible;"/>
						</clipPath>
						
							<rect x="-12.9" y="466.7" style="clip-path:url(#SVGID_00000176017717545807213400000002589921792961056651_);fill:#D3ECA4;" width="42.3" height="26.6"/>
					</g>
				</g>
			</g>
		</g>
	</g>
	<g class="st1">
		<g>
			<g>
				<g>
					<g>
						<defs>
							<path id="SVGID_00000106122872072924223000000004151614113763683498_" d="M18.6,575.9c0,3.6-5.8,7.9-10.4,7.9H7.6
								c-4.2,0-9.7-3.8-9.7-7.9v-526c1-4.8,6.3-7.6,10-7.6l0,0c4.2,0,9.7,2.9,10.7,7.8V575.9L18.6,575.9z"/>
						</defs>
						<clipPath id="SVGID_00000015351604252115344630000014656583287993683611_">
							<use xlink:href="#SVGID_00000106122872072924223000000004151614113763683498_"  style="overflow:visible;"/>
						</clipPath>
						
							<rect x="-12.9" y="493.3" style="clip-path:url(#SVGID_00000015351604252115344630000014656583287993683611_);fill:#C3E6D8;" width="42.3" height="26.6"/>
					</g>
				</g>
			</g>
		</g>
	</g>
	<g class="st1">
		<g>
			<g>
				<g>
					<g>
						<defs>
							<path id="SVGID_00000117649090376806975570000013383843291624300672_" d="M18.6,575.9c0,3.6-5.8,7.9-10.4,7.9H7.6
								c-4.2,0-9.7-3.8-9.7-7.9v-526c1-4.8,6.3-7.6,10-7.6l0,0c4.2,0,9.7,2.9,10.7,7.8V575.9L18.6,575.9z"/>
						</defs>
						<clipPath id="SVGID_00000115474107641856871760000010165819065965493665_">
							<use xlink:href="#SVGID_00000117649090376806975570000013383843291624300672_"  style="overflow:visible;"/>
						</clipPath>
						
							<rect x="-12.9" y="519.9" style="clip-path:url(#SVGID_00000115474107641856871760000010165819065965493665_);fill:#C8E8F0;" width="42.3" height="26.6"/>
					</g>
				</g>
			</g>
		</g>
	</g>
	<g class="st1">
		<g>
			<g>
				<g>
					<g>
						<defs>
							<path id="SVGID_00000160190871206405768630000016026688111134508430_" d="M18.6,575.9c0,3.6-5.8,7.9-10.4,7.9H7.6
								c-4.2,0-9.7-3.8-9.7-7.9v-526c1-4.8,6.3-7.6,10-7.6l0,0c4.2,0,9.7,2.9,10.7,7.8V575.9L18.6,575.9z"/>
						</defs>
						<clipPath id="SVGID_00000042000399257536863530000016207768627777342887_">
							<use xlink:href="#SVGID_00000160190871206405768630000016026688111134508430_"  style="overflow:visible;"/>
						</clipPath>
						
							<rect x="-12.9" y="546.5" style="clip-path:url(#SVGID_00000042000399257536863530000016207768627777342887_);fill:#D0EBF7;" width="42.3" height="40.2"/>
					</g>
				</g>
			</g>
		</g>
	</g>
</g>
<g class="st0">
	<g class="st1">
		<g>
			<g>
				<g>
					<g>
						<g>
							<defs>
								<path id="SVGID_00000136400914188075259810000000803874055033578415_" d="M18.4,576.1c-0.3,3.3-5.5,7.3-10.1,7.3l0,0
									c-4.5,0.4-10.6-3.2-10.6-7.3v-526c1-4.8,6.3-7.6,10-7.6l0,0c4.2,0,9.7,2.9,10.8,7.8L18.4,576.1L18.4,576.1z"/>
							</defs>
							<clipPath id="SVGID_00000170960783739797819310000016317568821264836511_">
								<use xlink:href="#SVGID_00000136400914188075259810000000803874055033578415_"  style="overflow:visible;"/>
							</clipPath>
							
								<rect x="-7.4" y="491.2" style="clip-path:url(#SVGID_00000170960783739797819310000016317568821264836511_);fill:#EC2426;" width="30.9" height="96.8"/>
						</g>
					</g>
				</g>
			</g>
		</g>
		<g>
			<g>
				<g>
					<g>
						<g>
							<defs>
								<path id="SVGID_00000001640701274538744430000008415366406960382655_" d="M18.4,576.1c-0.3,3.3-5.5,7.3-10.1,7.3l0,0
									c-4.5,0.4-10.6-3.2-10.6-7.3v-526c1-4.8,6.3-7.6,10-7.6l0,0c4.2,0,9.7,2.9,10.8,7.8L18.4,576.1L18.4,576.1z"/>
							</defs>
							<clipPath id="SVGID_00000000914094601597800580000003884728117339826354_">
								<use xlink:href="#SVGID_00000001640701274538744430000008415366406960382655_"  style="overflow:visible;"/>
							</clipPath>
							
								<rect x="-7.1" y="315.2" style="clip-path:url(#SVGID_00000000914094601597800580000003884728117339826354_);fill:#FCFC1E;" width="30.9" height="88"/>
						</g>
					</g>
				</g>
			</g>
		</g>
		<g>
			<g>
				<g>
					<g>
						<g>
							<defs>
								<path id="SVGID_00000163769746163489787600000010886698867409801645_" d="M18.4,576.1c-0.3,3.3-5.5,7.3-10.1,7.3l0,0
									c-4.5,0.4-10.6-3.2-10.6-7.3v-526c1-4.8,6.3-7.6,10-7.6l0,0c4.2,0,9.7,2.9,10.8,7.8L18.4,576.1L18.4,576.1z"/>
							</defs>
							<clipPath id="SVGID_00000125564605303839658690000007052876369495489669_">
								<use xlink:href="#SVGID_00000163769746163489787600000010886698867409801645_"  style="overflow:visible;"/>
							</clipPath>
							
								<rect x="-7.1" y="227.2" style="clip-path:url(#SVGID_00000125564605303839658690000007052876369495489669_);fill:#0B7F3F;" width="30.9" height="88"/>
						</g>
					</g>
				</g>
			</g>
		</g>
		<g>
			<g>
				<g>
					<g>
						<g>
							<defs>
								<path id="SVGID_00000147180536586354468940000015402935609672748713_" d="M18.4,576.1c-0.3,3.3-5.5,7.3-10.1,7.3l0,0
									c-4.5,0.4-10.6-3.2-10.6-7.3v-526c1-4.8,6.3-7.6,10-7.6l0,0c4.2,0,9.7,2.9,10.8,7.8L18.4,576.1L18.4,576.1z"/>
							</defs>
							<clipPath id="SVGID_00000003087044784706048580000005673515500846818466_">
								<use xlink:href="#SVGID_00000147180536586354468940000015402935609672748713_"  style="overflow:visible;"/>
							</clipPath>
							
								<rect x="-7.4" y="403.2" style="clip-path:url(#SVGID_00000003087044784706048580000005673515500846818466_);fill:#F7A426;" width="30.9" height="88"/>
						</g>
					</g>
				</g>
			</g>
		</g>
		<g>
			<g>
				<g>
					<g>
						<g>
							<defs>
								<path id="SVGID_00000005962825501426694360000010903569676087612853_" d="M18.4,576.1c-0.3,3.3-5.5,7.3-10.1,7.3l0,0
									c-4.5,0.4-10.6-3.2-10.6-7.3v-526c1-4.8,6.3-7.6,10-7.6l0,0c4.2,0,9.7,2.9,10.8,7.8L18.4,576.1L18.4,576.1z"/>
							</defs>
							<clipPath id="SVGID_00000116938385380244237030000009248812870614768543_">
								<use xlink:href="#SVGID_00000005962825501426694360000010903569676087612853_"  style="overflow:visible;"/>
							</clipPath>
							
								<rect x="-7.1" y="139.2" style="clip-path:url(#SVGID_00000116938385380244237030000009248812870614768543_);fill:#6FC9DC;" width="30.9" height="88"/>
						</g>
					</g>
				</g>
			</g>
		</g>
		<g>
			<g>
				<g>
					<g>
						<g>
							<defs>
								<path id="SVGID_00000055670532652833366380000001909311725966883733_" d="M18.4,576.1c-0.3,3.3-5.5,7.3-10.1,7.3l0,0
									c-4.5,0.4-10.6-3.2-10.6-7.3v-526c1-4.8,6.3-7.6,10-7.6l0,0c4.2,0,9.7,2.9,10.8,7.8L18.4,576.1L18.4,576.1z"/>
							</defs>
							<clipPath id="SVGID_00000183963928192839496660000009824830216807056001_">
								<use xlink:href="#SVGID_00000055670532652833366380000001909311725966883733_"  style="overflow:visible;"/>
							</clipPath>
							
								<rect x="-7.1" y="42.4" style="clip-path:url(#SVGID_00000183963928192839496660000009824830216807056001_);fill:#3F57B0;" width="30.9" height="96.8"/>
						</g>
					</g>
				</g>
			</g>
		</g>
	</g>
</g>
<circle class="st60" cx="8" cy="23.8" r="14.6"/>
<path class="st61" d="M18.4,576.1c-0.3,3.3-5.5,7.3-10.1,7.3l0,0c-4.5,0.4-10.6-3.2-10.6-7.3v-526c1-4.8,6.3-7.6,10-7.6l0,0
	c4.2,0,9.7,2.9,10.8,7.8L18.4,576.1L18.4,576.1z"/>
<g class="st0">
	<path class="st62" d="M3.4,574.6c-0.4-0.5-0.6-1-0.6-1.8c0-0.7,0.2-1.3,0.6-1.8s0.9-0.7,1.5-0.7s1.1,0.2,1.5,0.7
		c0.4,0.4,0.6,1,0.6,1.8s-0.2,1.3-0.6,1.8c-0.4,0.4-0.9,0.7-1.5,0.7S3.8,575.1,3.4,574.6z M5.7,574c0.2-0.3,0.3-0.7,0.3-1.1
		c0-0.5-0.1-0.9-0.3-1.1c-0.2-0.3-0.5-0.4-0.8-0.4s-0.6,0.1-0.8,0.4c-0.2,0.3-0.3,0.7-0.3,1.1c0,0.5,0.1,0.9,0.3,1.1
		c0.2,0.3,0.5,0.4,0.8,0.4C5.3,574.4,5.5,574.3,5.7,574z M10.2,570.5h1.2l-6.1,8.9H4.2L10.2,570.5z M9.2,578.8
		c-0.4-0.5-0.6-1-0.6-1.8c0-0.7,0.2-1.3,0.6-1.8c0.4-0.4,0.9-0.7,1.5-0.7s1.1,0.2,1.5,0.7c0.4,0.4,0.6,1,0.6,1.8
		c0,0.7-0.2,1.3-0.6,1.8c-0.4,0.4-0.9,0.7-1.5,0.7S9.6,579.3,9.2,578.8z M11.5,578.2c0.2-0.3,0.3-0.7,0.3-1.1c0-0.5-0.1-0.9-0.3-1.1
		c-0.2-0.3-0.5-0.4-0.8-0.4s-0.6,0.1-0.8,0.4c-0.2,0.3-0.3,0.7-0.3,1.1c0,0.5,0.1,0.9,0.3,1.1c0.2,0.3,0.5,0.4,0.8,0.4
		C11.1,578.6,11.3,578.5,11.5,578.2z"/>
</g>
<g class="st0">
	<path class="st62" d="M6.9,530.4c0.4,0.3,0.6,0.7,0.6,1.2c0,0.3-0.1,0.6-0.2,0.9c-0.2,0.3-0.4,0.5-0.7,0.6
		c-0.3,0.2-0.7,0.2-1.2,0.2c-0.4,0-0.8-0.1-1.1-0.2c-0.4-0.1-0.7-0.3-0.9-0.5l0.4-0.8c0.2,0.2,0.4,0.3,0.7,0.4
		c0.3,0.1,0.6,0.1,0.9,0.1c0.4,0,0.6-0.1,0.8-0.2c0.2-0.1,0.3-0.4,0.3-0.6c0-0.3-0.1-0.5-0.3-0.6s-0.6-0.2-1.1-0.2H3.6l0.3-3h3.2
		v0.9H4.7l-0.1,1.3h0.5C5.9,529.9,6.5,530.1,6.9,530.4z"/>
	<path class="st62" d="M9.1,533c-0.3-0.2-0.6-0.5-0.8-1c-0.2-0.4-0.3-0.9-0.3-1.5s0.1-1.1,0.3-1.5s0.5-0.8,0.8-1s0.7-0.3,1.2-0.3
		c0.4,0,0.8,0.1,1.2,0.3c0.3,0.2,0.6,0.5,0.8,1c0.2,0.4,0.3,0.9,0.3,1.5s-0.1,1.1-0.3,1.5s-0.5,0.7-0.8,1c-0.3,0.2-0.7,0.3-1.2,0.3
		S9.5,533.2,9.1,533z M11.2,532c0.2-0.3,0.3-0.8,0.3-1.4c0-0.6-0.1-1.1-0.3-1.4c-0.2-0.3-0.5-0.5-0.9-0.5s-0.7,0.2-0.9,0.5
		s-0.3,0.8-0.3,1.4c0,0.6,0.1,1.1,0.3,1.4s0.5,0.5,0.9,0.5S11,532.3,11.2,532z"/>
</g>
<g class="st0">
	<path class="st62" d="M6.8,449c0.3,0.1,0.5,0.3,0.7,0.6c0.2,0.3,0.2,0.6,0.2,0.9c0,0.4-0.1,0.7-0.3,0.9c-0.2,0.3-0.4,0.5-0.7,0.6
		s-0.6,0.2-1,0.2c-0.8,0-1.3-0.2-1.7-0.7s-0.6-1.1-0.6-2c0-0.6,0.1-1.1,0.3-1.6c0.2-0.4,0.5-0.8,0.9-1s0.9-0.3,1.4-0.3
		c0.3,0,0.5,0,0.8,0.1c0.2,0.1,0.5,0.1,0.6,0.3L7,447.8c-0.3-0.2-0.6-0.3-1-0.3c-0.5,0-0.9,0.2-1.2,0.5s-0.4,0.8-0.4,1.4l0,0
		c0.2-0.2,0.4-0.3,0.6-0.4c0.3-0.1,0.5-0.1,0.8-0.1C6.2,448.8,6.5,448.9,6.8,449z M6.4,451.2c0.2-0.2,0.3-0.4,0.3-0.7
		c0-0.3-0.1-0.5-0.3-0.7s-0.5-0.3-0.8-0.3s-0.6,0.1-0.8,0.3c-0.2,0.2-0.3,0.4-0.3,0.7c0,0.3,0.1,0.5,0.3,0.7s0.5,0.3,0.8,0.3
		C6,451.5,6.2,451.4,6.4,451.2z"/>
	<path class="st62" d="M9.4,452c-0.3-0.2-0.6-0.5-0.8-1c-0.2-0.4-0.3-0.9-0.3-1.5s0.1-1.1,0.3-1.5s0.5-0.8,0.8-1s0.7-0.3,1.2-0.3
		c0.4,0,0.8,0.1,1.2,0.3c0.3,0.2,0.6,0.5,0.8,1c0.2,0.4,0.3,0.9,0.3,1.5s-0.1,1.1-0.3,1.5s-0.5,0.7-0.8,1c-0.3,0.2-0.7,0.3-1.2,0.3
		S9.7,452.2,9.4,452z M11.5,450.9c0.2-0.3,0.3-0.8,0.3-1.4s-0.1-1.1-0.3-1.4s-0.5-0.5-0.9-0.5s-0.7,0.2-0.9,0.5s-0.3,0.8-0.3,1.4
		s0.1,1.1,0.3,1.4s0.5,0.5,0.9,0.5C10.9,451.4,11.2,451.2,11.5,450.9z"/>
</g>
<g class="st0">
	<path class="st62" d="M7.8,358v0.7l-2.1,4.8H4.5l2.1-4.6H4.4v0.9H3.5V358H7.8L7.8,358z"/>
	<path class="st62" d="M9.3,363.2c-0.3-0.2-0.6-0.5-0.8-1c-0.2-0.4-0.3-0.9-0.3-1.5s0.1-1.1,0.3-1.5s0.5-0.7,0.8-1
		c0.3-0.2,0.7-0.3,1.2-0.3c0.4,0,0.8,0.1,1.2,0.3c0.3,0.2,0.6,0.5,0.8,1c0.2,0.4,0.3,0.9,0.3,1.5s-0.1,1.1-0.3,1.5s-0.5,0.7-0.8,1
		c-0.3,0.2-0.7,0.3-1.2,0.3C10.1,363.6,9.7,363.4,9.3,363.2z M11.4,362.2c0.2-0.3,0.3-0.8,0.3-1.4s-0.1-1.1-0.3-1.4
		s-0.5-0.5-0.9-0.5s-0.7,0.2-0.9,0.5s-0.3,0.8-0.3,1.4s0.1,1.1,0.3,1.4s0.5,0.5,0.9,0.5S11.2,362.5,11.4,362.2z"/>
</g>
<g class="st0">
	<path class="st62" d="M7.6,264.4c0.2,0.2,0.2,0.5,0.2,0.8s-0.1,0.6-0.3,0.9s-0.4,0.4-0.8,0.6s-0.7,0.2-1.2,0.2
		c-0.4,0-0.8-0.1-1.2-0.2c-0.3-0.1-0.6-0.3-0.8-0.6c-0.2-0.3-0.3-0.5-0.3-0.9c0-0.3,0.1-0.6,0.2-0.8c0.2-0.2,0.4-0.4,0.6-0.5
		c-0.2-0.1-0.4-0.3-0.5-0.5s-0.2-0.4-0.2-0.7c0-0.3,0.1-0.6,0.3-0.8c0.2-0.2,0.4-0.4,0.7-0.5s0.7-0.2,1.1-0.2s0.8,0.1,1.1,0.2
		s0.5,0.3,0.7,0.5s0.3,0.5,0.3,0.8s-0.1,0.5-0.2,0.7s-0.3,0.4-0.5,0.5C7.2,264,7.4,264.1,7.6,264.4z M6.5,265.8
		c0.2-0.2,0.3-0.4,0.3-0.6c0-0.3-0.1-0.5-0.3-0.6c-0.2-0.2-0.5-0.2-0.9-0.2s-0.7,0.1-0.9,0.2c-0.2,0.2-0.3,0.4-0.3,0.6
		c0,0.3,0.1,0.5,0.3,0.6c0.2,0.2,0.5,0.2,0.9,0.2C5.9,266,6.2,265.9,6.5,265.8z M4.8,262.2c-0.2,0.1-0.3,0.3-0.3,0.6
		c0,0.2,0.1,0.4,0.3,0.6c0.2,0.1,0.4,0.2,0.8,0.2c0.3,0,0.6-0.1,0.8-0.2s0.3-0.3,0.3-0.6c0-0.2-0.1-0.4-0.3-0.6
		C6.2,262.1,6,262,5.6,262S5,262,4.8,262.2z"/>
	<path class="st62" d="M9.6,266.5c-0.3-0.2-0.6-0.5-0.8-1c-0.2-0.4-0.3-0.9-0.3-1.5s0.1-1.1,0.3-1.5s0.5-0.7,0.8-1
		c0.3-0.2,0.7-0.3,1.2-0.3c0.4,0,0.8,0.1,1.2,0.3c0.3,0.2,0.6,0.5,0.8,1s0.3,0.9,0.3,1.5s-0.1,1.1-0.3,1.5s-0.5,0.7-0.8,1
		s-0.7,0.3-1.2,0.3S9.9,266.7,9.6,266.5z M11.7,265.4c0.2-0.3,0.3-0.8,0.3-1.4s-0.1-1.1-0.3-1.4s-0.5-0.5-0.9-0.5s-0.7,0.2-0.9,0.5
		s-0.3,0.8-0.3,1.4s0.1,1.1,0.3,1.4s0.5,0.5,0.9,0.5C11.1,265.9,11.5,265.8,11.7,265.4z"/>
</g>
<g class="st0">
	<path class="st62" d="M7.1,181.5c0.4,0.5,0.6,1.1,0.6,2c0,0.6-0.1,1.1-0.3,1.6c-0.2,0.4-0.5,0.8-0.9,1s-0.9,0.3-1.4,0.3
		c-0.3,0-0.5,0-0.8-0.1c-0.2-0.1-0.5-0.1-0.6-0.3l0.4-0.8c0.3,0.2,0.6,0.3,1,0.3c0.5,0,0.9-0.2,1.2-0.5s0.4-0.8,0.4-1.4l0,0
		c-0.2,0.2-0.4,0.3-0.6,0.4c-0.3,0.1-0.5,0.1-0.8,0.1c-0.4,0-0.7-0.1-1-0.2c-0.3-0.1-0.5-0.3-0.7-0.6s-0.2-0.6-0.2-0.9
		c0-0.4,0.1-0.7,0.3-0.9c0.2-0.3,0.4-0.5,0.7-0.6s0.6-0.2,1-0.2C6.1,180.7,6.7,181,7.1,181.5z M6.2,183.1c0.2-0.2,0.3-0.4,0.3-0.7
		s-0.1-0.5-0.3-0.7s-0.5-0.3-0.8-0.3s-0.6,0.1-0.8,0.3s-0.3,0.4-0.3,0.7s0.1,0.5,0.3,0.7s0.5,0.3,0.8,0.3
		C5.7,183.4,6,183.3,6.2,183.1z"/>
	<path class="st62" d="M9.5,186c-0.3-0.2-0.6-0.5-0.8-1c-0.2-0.4-0.3-0.9-0.3-1.5s0.1-1.1,0.3-1.5s0.5-0.7,0.8-1
		c0.3-0.2,0.7-0.3,1.2-0.3c0.4,0,0.8,0.1,1.2,0.3c0.3,0.2,0.6,0.5,0.8,1c0.2,0.4,0.3,0.9,0.3,1.5s-0.1,1.1-0.3,1.5s-0.5,0.7-0.8,1
		c-0.3,0.2-0.7,0.3-1.2,0.3C10.2,186.4,9.8,186.3,9.5,186z M11.6,185c0.2-0.3,0.3-0.8,0.3-1.4c0-0.6-0.1-1.1-0.3-1.4
		c-0.2-0.3-0.5-0.5-0.9-0.5s-0.7,0.2-0.9,0.5s-0.3,0.8-0.3,1.4c0,0.6,0.1,1.1,0.3,1.4c0.2,0.3,0.5,0.5,0.9,0.5
		C11,185.5,11.4,185.3,11.6,185z"/>
</g>
<g class="st0">
	<path class="st62" d="M3.7,83.8v5.5h-1v-4.6H1.5v-0.9H3.7z"/>
	<path class="st62" d="M5.9,89c-0.3-0.2-0.6-0.5-0.8-1c-0.2-0.4-0.3-0.9-0.3-1.5s0.1-1.1,0.3-1.5s0.5-0.7,0.8-1
		c0.3-0.2,0.7-0.3,1.2-0.3c0.4,0,0.8,0.1,1.2,0.3c0.3,0.2,0.6,0.5,0.8,1c0.2,0.4,0.3,0.9,0.3,1.5S9.3,87.6,9.1,88s-0.5,0.7-0.8,1
		c-0.3,0.2-0.7,0.3-1.2,0.3C6.6,89.4,6.2,89.3,5.9,89z M8,88c0.2-0.3,0.3-0.8,0.3-1.4S8.2,85.5,8,85.2s-0.5-0.5-0.9-0.5
		s-0.7,0.2-0.9,0.5S5.9,86,5.9,86.6S6,87.7,6.2,88s0.5,0.5,0.9,0.5S7.8,88.3,8,88z"/>
	<path class="st62" d="M11.2,89c-0.3-0.2-0.6-0.5-0.8-1c-0.2-0.4-0.3-0.9-0.3-1.5s0.1-1.1,0.3-1.5s0.5-0.7,0.8-1
		c0.3-0.2,0.7-0.3,1.2-0.3c0.4,0,0.8,0.1,1.2,0.3s0.6,0.5,0.8,1s0.2,1,0.2,1.5s-0.1,1.1-0.3,1.5s-0.5,0.7-0.8,1
		c-0.3,0.2-0.7,0.3-1.2,0.3C11.9,89.4,11.5,89.3,11.2,89z M13.3,88c0.2-0.3,0.3-0.8,0.3-1.4s-0.1-1.1-0.3-1.4s-0.5-0.5-0.9-0.5
		s-0.7,0.2-0.9,0.5s-0.3,0.8-0.3,1.4s0.1,1.1,0.3,1.4s0.5,0.5,0.9,0.5C12.7,88.5,13,88.3,13.3,88z"/>
</g>
<g class="st0">
	<path class="st63" d="M1.7,30.5h12.4c2.6,0,4.8-1.8,5.3-4.2c0.3-1.6-0.1-3.2-1.1-4.4c-0.9-1-2.1-1.7-3.4-1.9v-1.2
		c0-4.2-3.8-7.5-7.9-7c-3.5,0.4-6.2,3.5-6.2,7.3V20c-1.1,0.1-2.2,0.7-3,1.5c-1.2,1.2-1.7,2.9-1.5,4.6C-3.2,28.5-0.8,30.5,1.7,30.5z
		 M-1.2,22.5c0.7-0.7,1.7-1.1,2.7-1.1c0.4,0,0.7-0.3,0.7-0.7v-1.6c0-3.1,2.5-5.9,5.7-5.9c3.1,0,5.7,2.6,5.7,5.7v1.8
		c0,0.4,0.3,0.7,0.7,0.7c1.2,0,2.3,0.5,3,1.4s1,2.1,0.8,3.3c-0.4,1.8-2,3.1-4,3.1H1.7c-1.8,0-3.7-1.5-4-3.2
		C-2.5,24.6-2.1,23.4-1.2,22.5z"/>
</g>
<rect x="3.2" y="30.5" class="st64" width="9.5" height="5.3"/>
<g class="st65">
	<path class="st63" d="M7.1,30.7h0.7V34h2v0.6H7.1V30.7z"/>
</g>
<g>
	<g>
		<g>
			<g>
				<g>
					<g>
						<defs>
							<path id="SVGID_00000153688258556994077300000001368557594459000212_" d="M30.6,632.3c-0.3,3.7-6.3,8.3-11.6,8.3l0,0
								c-5.2,0.4-12.3-3.6-12.3-8.1V48.6c1.1-5.3,7.4-8.5,11.5-8.5l0,0c4.9,0,11.2,3.1,12.4,8.7v583.7L30.6,632.3z"/>
						</defs>
						<clipPath id="SVGID_00000089556165756156280650000002775384239263617193_">
							<use xlink:href="#SVGID_00000153688258556994077300000001368557594459000212_"  style="overflow:visible;"/>
						</clipPath>
						<g style="clip-path:url(#SVGID_00000089556165756156280650000002775384239263617193_);">
							<rect x="-4.7" y="603.1" class="st67" width="47.5" height="41"/>
							<rect x="-5.4" y="40.2" class="st68" width="49.7" height="18.4"/>
							<rect x="-4.7" y="58.5" class="st69" width="49.2" height="14.7"/>
							<rect x="-4.7" y="73.2" class="st70" width="49.2" height="14.7"/>
							<rect x="-4.7" y="88" class="st71" width="49.2" height="14.7"/>
							<rect x="-4.7" y="102.7" class="st72" width="49.2" height="14.7"/>
							<rect x="-4.7" y="117.4" class="st73" width="49.2" height="14.7"/>
							<rect x="-4.7" y="132.1" class="st74" width="49.2" height="14.7"/>
							<rect x="-4.7" y="146.9" class="st75" width="49.2" height="14.7"/>
							<rect x="-4.7" y="161.6" class="st76" width="49.2" height="14.7"/>
							<rect x="-4.7" y="176.3" class="st77" width="49.2" height="14.7"/>
							<rect x="-4.7" y="191" class="st78" width="49.2" height="14.7"/>
							<rect x="-4.7" y="205.7" class="st79" width="49.2" height="14.7"/>
							<rect x="-4.7" y="220.5" class="st80" width="49.2" height="14.7"/>
							<rect x="-4.7" y="235.2" class="st81" width="49.2" height="14.7"/>
							<rect x="-4.7" y="249.9" class="st82" width="49.2" height="14.7"/>
							<rect x="-4.7" y="264.6" class="st83" width="49.2" height="14.7"/>
							<rect x="-4.7" y="279.4" class="st84" width="49.2" height="14.7"/>
							<rect x="-4.7" y="294.1" class="st85" width="49.2" height="14.7"/>
							<rect x="-4.7" y="308.8" class="st86" width="49.2" height="14.7"/>
							<rect x="-4.7" y="323.5" class="st87" width="49.2" height="14.7"/>
							<rect x="-4.7" y="338.3" class="st88" width="49.2" height="14.7"/>
							<rect x="-4.7" y="353" class="st89" width="49.2" height="14.7"/>
							<rect x="-4.7" y="367.7" class="st90" width="49.2" height="14.7"/>
							<rect x="-4.7" y="382.4" class="st91" width="49.2" height="14.7"/>
							<rect x="-4.7" y="397.1" class="st92" width="49.2" height="14.8"/>
							<rect x="-4.7" y="411.9" class="st93" width="49.2" height="14.7"/>
							<rect x="-4.7" y="426.6" class="st94" width="49.2" height="14.7"/>
							<rect x="-4.7" y="441.3" class="st95" width="49.2" height="14.7"/>
							<rect x="-4.7" y="456" class="st96" width="49.2" height="14.7"/>
							<rect x="-4.7" y="470.7" class="st97" width="49.2" height="14.7"/>
							<rect x="-4.7" y="485.4" class="st98" width="49.2" height="14.7"/>
							<rect x="-4.7" y="500.1" class="st99" width="49.2" height="14.7"/>
							<rect x="-4.7" y="514.8" class="st100" width="49.2" height="14.7"/>
							<rect x="-4.7" y="529.5" class="st101" width="49.2" height="14.7"/>
							<rect x="-4.7" y="544.3" class="st102" width="49.2" height="14.7"/>
							<rect x="-4.7" y="559" class="st103" width="49.2" height="14.7"/>
							<rect x="-4.7" y="573.7" class="st104" width="49.2" height="14.7"/>
							<rect x="-4.7" y="588.4" class="st105" width="49.2" height="14.7"/>
						</g>
					</g>
				</g>
			</g>
		</g>
	</g>
</g>
<path class="st106" d="M30.6,632.4c-0.3,3.7-6.3,8.1-11.6,8.1l0,0c-5.2,0.4-12.3-3.6-12.3-8.1V48.5c1.1-5.3,7.4-8.5,11.5-8.5l0,0
	c4.9,0,11.2,3.1,12.4,8.7V632.4L30.6,632.4z"/>
<g>
	<path class="st107" d="M10.3,611h3.1v1.2h-3.1C10.3,612.2,10.3,611,10.3,611z"/>
	<path class="st107" d="M19.3,610.8c0.4,0.4,0.6,0.9,0.6,1.5c0,0.5-0.1,0.9-0.3,1.2c-0.2,0.4-0.6,0.7-1.1,0.9s-1,0.3-1.7,0.3
		c-0.6,0-1.1-0.1-1.6-0.2c-0.5-0.2-1-0.4-1.3-0.7l0.6-1.1c0.3,0.2,0.6,0.4,1,0.6c0.4,0.1,0.8,0.2,1.3,0.2s0.9-0.1,1.2-0.3
		c0.3-0.2,0.4-0.5,0.4-0.9s-0.1-0.7-0.4-0.9s-0.7-0.3-1.3-0.3H16v-1l1.8-2.1h-3.6v-1.2h5.4v1l-1.9,2.3
		C18.4,610.2,19,610.4,19.3,610.8z"/>
	<path class="st107" d="M22.5,614.3c-0.5-0.3-0.9-0.8-1.2-1.4c-0.3-0.6-0.4-1.3-0.4-2.2s0.1-1.6,0.4-2.2c0.3-0.6,0.7-1.1,1.2-1.4
		c0.5-0.3,1.1-0.5,1.7-0.5s1.2,0.2,1.7,0.5s0.9,0.8,1.2,1.4c0.3,0.6,0.4,1.3,0.4,2.2s-0.1,1.6-0.4,2.2c-0.3,0.6-0.7,1.1-1.2,1.4
		c-0.5,0.3-1.1,0.5-1.7,0.5C23.5,614.8,23,614.6,22.5,614.3z M25.5,612.8c0.3-0.5,0.5-1.2,0.5-2.1s-0.2-1.6-0.5-2.1
		s-0.8-0.7-1.3-0.7c-0.6,0-1,0.2-1.3,0.7s-0.5,1.2-0.5,2.1s0.2,1.6,0.5,2.1s0.8,0.7,1.3,0.7S25.2,613.3,25.5,612.8z"/>
</g>
<g>
	<path class="st107" d="M10.1,580.7h3.1v1.2h-3.1V580.7z"/>
	<path class="st107" d="M19.8,583.2v1.2H14v-1l3.1-3c0.4-0.3,0.6-0.6,0.7-0.9c0.1-0.3,0.2-0.5,0.2-0.7c0-0.4-0.1-0.6-0.4-0.8
		s-0.6-0.3-1.1-0.3c-0.8,0-1.4,0.3-1.8,0.8l-1-0.8c0.3-0.4,0.7-0.7,1.2-1s1.1-0.3,1.8-0.3c0.9,0,1.5,0.2,2.1,0.6
		c0.5,0.4,0.8,1,0.8,1.7c0,0.4-0.1,0.8-0.3,1.2c-0.2,0.4-0.5,0.8-1,1.3l-2.1,2H19.8z"/>
	<path class="st107" d="M25.6,579.9c0.4,0.2,0.7,0.5,1,0.8c0.2,0.4,0.3,0.8,0.3,1.3s-0.1,1-0.4,1.3c-0.3,0.4-0.6,0.7-1,0.9
		s-0.9,0.3-1.5,0.3c-1.1,0-1.9-0.3-2.5-1s-0.9-1.6-0.9-2.9c0-0.9,0.2-1.6,0.5-2.3s0.8-1.1,1.4-1.4c0.6-0.3,1.3-0.5,2-0.5
		c0.4,0,0.8,0,1.1,0.1c0.4,0.1,0.7,0.2,0.9,0.4L26,578c-0.4-0.3-0.9-0.4-1.5-0.4c-0.8,0-1.4,0.2-1.8,0.7s-0.6,1.1-0.6,2l0,0
		c0.2-0.3,0.5-0.5,0.9-0.6s0.8-0.2,1.2-0.2C24.7,579.6,25.2,579.7,25.6,579.9z M25.1,583c0.3-0.2,0.4-0.6,0.4-1s-0.1-0.7-0.4-1
		c-0.3-0.2-0.7-0.4-1.2-0.4s-0.9,0.1-1.2,0.4s-0.4,0.6-0.4,1s0.1,0.7,0.4,1s0.7,0.4,1.2,0.4S24.8,583.3,25.1,583z"/>
</g>
<g>
	<g>
		<path class="st107" d="M10.6,551.8h3.1v1.2h-3.1V551.8z"/>
		<path class="st107" d="M20.4,554.3v1.2h-5.8v-1l3.1-3c0.4-0.3,0.6-0.6,0.7-0.9s0.2-0.5,0.2-0.7c0-0.4-0.1-0.6-0.4-0.8
			s-0.6-0.3-1.1-0.3c-0.8,0-1.4,0.3-1.8,0.8l-1-0.8c0.3-0.4,0.7-0.7,1.2-1s1.1-0.3,1.8-0.3c0.9,0,1.5,0.2,2.1,0.6
			c0.5,0.4,0.8,1,0.8,1.7c0,0.4-0.1,0.8-0.3,1.2s-0.5,0.8-1,1.3l-2.1,2H20.4L20.4,554.3z"/>
		<path class="st107" d="M26.9,554.3v1.2h-5.8v-1l3.1-3c0.4-0.3,0.6-0.6,0.7-0.9s0.2-0.5,0.2-0.7c0-0.4-0.1-0.6-0.4-0.8
			s-0.5-0.3-1-0.3c-0.8,0-1.4,0.3-1.8,0.8l-1-0.8c0.3-0.4,0.7-0.7,1.2-1s1.1-0.3,1.8-0.3c0.9,0,1.5,0.2,2.1,0.6
			c0.5,0.4,0.8,1,0.8,1.7c0,0.4-0.1,0.8-0.3,1.2s-0.5,0.8-1,1.3l-2.1,2H26.9L26.9,554.3z"/>
	</g>
</g>
<g>
	<g>
		<path class="st107" d="M11.2,522.2h3.1v1.2h-3.1C11.2,523.4,11.2,522.2,11.2,522.2z"/>
		<path class="st107" d="M17.9,518.1v7.9h-1.5v-6.6h-1.6v-1.2L17.9,518.1L17.9,518.1z"/>
		<path class="st107" d="M25.6,522.6c0.2,0.3,0.3,0.7,0.3,1.1c0,0.5-0.1,0.9-0.4,1.3c-0.3,0.4-0.6,0.6-1.1,0.8s-1.1,0.3-1.7,0.3
			s-1.2-0.1-1.7-0.3s-0.9-0.5-1.1-0.8c-0.3-0.4-0.4-0.8-0.4-1.3c0-0.4,0.1-0.8,0.3-1.1c0.2-0.3,0.5-0.6,0.9-0.8
			c-0.3-0.2-0.6-0.4-0.7-0.7s-0.3-0.6-0.3-1s0.1-0.8,0.4-1.2c0.2-0.3,0.6-0.6,1-0.8s1-0.3,1.5-0.3c0.6,0,1.1,0.1,1.5,0.3
			s0.8,0.4,1,0.8c0.2,0.4,0.4,0.7,0.4,1.2c0,0.4-0.1,0.7-0.3,1s-0.4,0.5-0.7,0.7C25,522,25.3,522.2,25.6,522.6z M23.9,524.6
			c0.3-0.2,0.5-0.5,0.5-0.9s-0.2-0.7-0.5-0.9s-0.7-0.3-1.3-0.3s-1,0.1-1.3,0.3s-0.5,0.5-0.5,0.9s0.2,0.7,0.5,0.9s0.7,0.3,1.3,0.3
			S23.6,524.8,23.9,524.6z M21.6,519.4c-0.3,0.2-0.4,0.5-0.4,0.8s0.1,0.6,0.4,0.8s0.6,0.3,1.1,0.3s0.8-0.1,1.1-0.3
			c0.3-0.2,0.4-0.5,0.4-0.8c0-0.4-0.1-0.6-0.4-0.8s-0.6-0.3-1.1-0.3S21.8,519.2,21.6,519.4z"/>
	</g>
</g>
<g>
	<g>
		<path class="st107" d="M11.2,493.3h3.1v1.2h-3.1C11.2,494.5,11.2,493.3,11.2,493.3z"/>
		<path class="st107" d="M17.9,489.1v7.9h-1.5v-6.6h-1.7v-1.2L17.9,489.1L17.9,489.1z"/>
		<path class="st107" d="M26.5,495.2h-1.4v1.8h-1.4v-1.8h-4.3v-1l3.9-5.1h1.6l-3.7,4.8h2.6v-1.6h1.4v1.6h1.4v1.3L26.5,495.2
			L26.5,495.2z"/>
	</g>
</g>
<g>
	<g>
		<path class="st107" d="M11.2,463.3h3.1v1.2h-3.1C11.2,464.5,11.2,463.3,11.2,463.3z"/>
		<path class="st107" d="M17.9,459.2v7.9h-1.5v-6.6h-1.7v-1.2L17.9,459.2L17.9,459.2z"/>
		<path class="st107" d="M21,466.7c-0.5-0.3-0.9-0.8-1.2-1.4c-0.3-0.6-0.4-1.3-0.4-2.2s0.1-1.6,0.4-2.2s0.7-1.1,1.2-1.4
			s1.1-0.5,1.7-0.5s1.2,0.2,1.7,0.5s0.9,0.8,1.2,1.4c0.3,0.6,0.4,1.3,0.4,2.2s-0.1,1.6-0.4,2.2s-0.7,1.1-1.2,1.4s-1.1,0.5-1.7,0.5
			C22.1,467.1,21.5,467,21,466.7z M24.1,465.2c0.3-0.5,0.5-1.2,0.5-2.1s-0.2-1.6-0.5-2.1s-0.8-0.7-1.3-0.7c-0.6,0-1,0.2-1.3,0.7
			s-0.5,1.2-0.5,2.1s0.2,1.6,0.5,2.1s0.8,0.7,1.3,0.7C23.3,465.9,23.7,465.6,24.1,465.2z"/>
	</g>
</g>
<g>
	<g>
		<path class="st107" d="M13.6,433.8h3.1v1.2h-3.1V433.8z"/>
		<path class="st107" d="M22.9,433c0.4,0.2,0.7,0.5,1,0.8c0.2,0.4,0.3,0.8,0.3,1.3s-0.1,1-0.4,1.3c-0.3,0.4-0.6,0.7-1,0.9
			c-0.4,0.2-0.9,0.3-1.5,0.3c-1.1,0-1.9-0.3-2.5-1s-0.9-1.6-0.9-2.9c0-0.9,0.2-1.6,0.5-2.3c0.3-0.6,0.8-1.1,1.4-1.4s1.3-0.5,2-0.5
			c0.4,0,0.8,0,1.1,0.1c0.4,0.1,0.7,0.2,0.9,0.4l-0.5,1.1c-0.4-0.3-0.9-0.4-1.5-0.4c-0.8,0-1.4,0.2-1.8,0.7s-0.6,1.1-0.6,2l0,0
			c0.2-0.3,0.5-0.5,0.9-0.6s0.8-0.2,1.2-0.2C22,432.7,22.5,432.8,22.9,433z M22.3,436.1c0.3-0.2,0.4-0.6,0.4-1s-0.1-0.7-0.4-1
			c-0.3-0.2-0.7-0.4-1.2-0.4s-0.9,0.1-1.2,0.4s-0.4,0.6-0.4,1s0.1,0.7,0.4,1s0.7,0.4,1.2,0.4C21.7,436.5,22.1,436.4,22.3,436.1z"/>
	</g>
</g>
<g>
	<g>
		<path class="st107" d="M13.7,404.7h3.1v1.2h-3.1C13.7,405.9,13.7,404.7,13.7,404.7z"/>
		<path class="st107" d="M23.5,407.2v1.2h-5.8v-1l3.1-3c0.4-0.3,0.6-0.6,0.7-0.9s0.2-0.5,0.2-0.7c0-0.4-0.1-0.6-0.4-0.8
			s-0.6-0.3-1.1-0.3c-0.8,0-1.4,0.3-1.8,0.8l-1-0.8c0.3-0.4,0.7-0.7,1.2-1s1.1-0.3,1.8-0.3c0.9,0,1.5,0.2,2.1,0.6
			c0.5,0.4,0.8,1,0.8,1.7c0,0.4-0.1,0.8-0.3,1.2s-0.5,0.8-1,1.3l-2.1,2L23.5,407.2L23.5,407.2z"/>
	</g>
</g>
<g>
	<g>
		<path class="st108" d="M21.3,378.2v1.2h-5.8v-1l3.1-3c0.4-0.3,0.6-0.6,0.7-0.9s0.2-0.5,0.2-0.7c0-0.4-0.1-0.6-0.4-0.8
			c-0.2-0.2-0.6-0.3-1.1-0.3c-0.8,0-1.4,0.3-1.8,0.8l-1-0.8c0.3-0.4,0.7-0.7,1.2-1c0.5-0.3,1.1-0.3,1.8-0.3c0.9,0,1.5,0.2,2.1,0.6
			c0.5,0.4,0.8,1,0.8,1.7c0,0.4-0.1,0.8-0.3,1.2s-0.5,0.8-1,1.3l-2.1,2L21.3,378.2L21.3,378.2z"/>
	</g>
</g>
<g>
	<g>
		<path class="st108" d="M20,345.1c0.4,0.2,0.7,0.5,1,0.8c0.2,0.4,0.3,0.8,0.3,1.3s-0.1,1-0.4,1.3c-0.3,0.4-0.6,0.7-1,0.9
			c-0.4,0.2-0.9,0.3-1.5,0.3c-1.1,0-1.9-0.3-2.5-1s-0.9-1.6-0.9-2.9c0-0.9,0.2-1.6,0.5-2.3c0.3-0.6,0.8-1.1,1.4-1.4s1.3-0.5,2-0.5
			c0.4,0,0.8,0,1.1,0.1c0.4,0.1,0.7,0.2,0.9,0.4l-0.5,1.1c-0.4-0.3-0.9-0.4-1.5-0.4c-0.8,0-1.4,0.2-1.8,0.7s-0.6,1.1-0.6,2l0,0
			c0.2-0.3,0.5-0.5,0.9-0.6s0.8-0.2,1.2-0.2C19.1,344.8,19.5,344.9,20,345.1z M19.4,348.3c0.3-0.2,0.4-0.6,0.4-1s-0.1-0.7-0.4-1
			c-0.3-0.2-0.7-0.4-1.2-0.4s-0.9,0.1-1.2,0.4c-0.3,0.3-0.4,0.6-0.4,1s0.1,0.7,0.4,1s0.7,0.4,1.2,0.4
			C18.8,348.6,19.1,348.5,19.4,348.3z"/>
	</g>
</g>
<g>
	<g>
		<path class="st108" d="M16.1,312.7v7.9h-1.5V314h-1.7v-1.2L16.1,312.7L16.1,312.7z"/>
		<path class="st108" d="M19.3,320.3c-0.5-0.3-0.9-0.8-1.2-1.4c-0.3-0.6-0.4-1.3-0.4-2.2s0.1-1.6,0.4-2.2s0.7-1.1,1.2-1.4
			s1.1-0.5,1.7-0.5s1.2,0.2,1.7,0.5s0.9,0.8,1.2,1.4s0.4,1.3,0.4,2.2s-0.1,1.6-0.4,2.2s-0.7,1.1-1.2,1.4s-1.1,0.5-1.7,0.5
			S19.8,320.6,19.3,320.3z M22.3,318.8c0.3-0.5,0.5-1.2,0.5-2.1s-0.2-1.6-0.5-2.1s-0.8-0.7-1.3-0.7c-0.6,0-1,0.2-1.3,0.7
			s-0.5,1.2-0.5,2.1s0.2,1.6,0.5,2.1s0.8,0.7,1.3,0.7S22,319.2,22.3,318.8z"/>
	</g>
</g>
<g>
	<g>
		<path class="st108" d="M16.2,283.4v7.9h-1.5v-6.6H13v-1.3H16.2z"/>
		<path class="st108" d="M24.8,289.5h-1.4v1.8H22v-1.8h-4.3v-1l3.9-5.1h1.6l-3.7,4.8h2.6v-1.6h1.4v1.6h1.4v1.3L24.8,289.5
			L24.8,289.5z"/>
	</g>
</g>
<g>
	<g>
		<path class="st108" d="M16.3,253.4v7.9h-1.5v-6.6h-1.6v-1.2L16.3,253.4L16.3,253.4z"/>
		<path class="st108" d="M24,257.9c0.2,0.3,0.3,0.7,0.3,1.1c0,0.5-0.1,0.9-0.4,1.3s-0.6,0.6-1.1,0.8c-0.5,0.2-1.1,0.3-1.7,0.3
			s-1.2-0.1-1.7-0.3c-0.5-0.2-0.9-0.5-1.1-0.8c-0.3-0.4-0.4-0.8-0.4-1.3c0-0.4,0.1-0.8,0.3-1.1c0.2-0.3,0.5-0.6,0.9-0.8
			c-0.3-0.2-0.6-0.4-0.7-0.7c-0.2-0.3-0.3-0.6-0.3-1s0.1-0.8,0.4-1.2s0.6-0.6,1-0.8s1-0.3,1.5-0.3c0.6,0,1.1,0.1,1.5,0.3
			s0.8,0.4,1,0.8s0.4,0.7,0.4,1.2c0,0.4-0.1,0.7-0.3,1c-0.2,0.3-0.4,0.5-0.7,0.7C23.4,257.3,23.7,257.6,24,257.9z M22.3,259.9
			c0.3-0.2,0.5-0.5,0.5-0.9s-0.2-0.7-0.5-0.9c-0.3-0.2-0.7-0.3-1.3-0.3s-1,0.1-1.3,0.3c-0.3,0.2-0.5,0.5-0.5,0.9s0.2,0.7,0.5,0.9
			c0.3,0.2,0.7,0.3,1.3,0.3S22,260.1,22.3,259.9z M20,254.7c-0.3,0.2-0.4,0.5-0.4,0.8s0.1,0.6,0.4,0.8c0.3,0.2,0.6,0.3,1.1,0.3
			s0.8-0.1,1.1-0.3c0.3-0.2,0.4-0.5,0.4-0.8c0-0.4-0.1-0.6-0.4-0.8s-0.6-0.3-1.1-0.3C20.6,254.4,20.2,254.5,20,254.7z"/>
	</g>
</g>
<g>
	<g>
		<path class="st107" d="M18.4,230.8v1.2h-5.8v-1l3.1-3c0.4-0.3,0.6-0.6,0.7-0.9c0.1-0.3,0.2-0.5,0.2-0.7c0-0.4-0.1-0.6-0.4-0.8
			c-0.2-0.2-0.6-0.3-1.1-0.3c-0.8,0-1.4,0.3-1.8,0.8l-1-0.8c0.3-0.4,0.7-0.7,1.2-1c0.5-0.2,1.1-0.3,1.8-0.3c0.9,0,1.5,0.2,2.1,0.6
			c0.5,0.4,0.8,1,0.8,1.7c0,0.4-0.1,0.8-0.3,1.2c-0.2,0.4-0.5,0.8-1,1.3l-2.1,2H18.4z"/>
		<path class="st107" d="M24.9,230.8v1.2h-5.8v-1l3.1-3c0.4-0.3,0.6-0.6,0.7-0.9c0.1-0.3,0.2-0.5,0.2-0.7c0-0.4-0.1-0.6-0.4-0.8
			c-0.2-0.2-0.6-0.3-1.1-0.3c-0.8,0-1.4,0.3-1.8,0.8l-1-0.8c0.3-0.4,0.7-0.7,1.2-1c0.5-0.2,1.1-0.3,1.8-0.3c0.9,0,1.5,0.2,2.1,0.6
			c0.5,0.4,0.8,1,0.8,1.7c0,0.4-0.1,0.8-0.3,1.2c-0.2,0.4-0.5,0.8-1,1.3l-2.1,2H24.9z"/>
	</g>
</g>
<g>
	<g>
		<path class="st107" d="M18.1,201.6v1.2h-5.8v-1l3.1-3c0.4-0.3,0.6-0.6,0.7-0.9c0.1-0.3,0.2-0.5,0.2-0.7c0-0.4-0.1-0.6-0.4-0.8
			c-0.2-0.2-0.6-0.3-1.1-0.3c-0.8,0-1.4,0.3-1.8,0.8l-1-0.8c0.3-0.4,0.7-0.7,1.2-1c0.5-0.2,1.1-0.3,1.8-0.3c0.9,0,1.5,0.2,2.1,0.6
			c0.5,0.4,0.8,1,0.8,1.7c0,0.4-0.1,0.8-0.3,1.2c-0.2,0.4-0.5,0.8-1,1.3l-2.1,2H18.1z"/>
		<path class="st107" d="M23.9,198.2c0.4,0.2,0.7,0.5,1,0.8c0.2,0.4,0.3,0.8,0.3,1.3s-0.1,1-0.4,1.3c-0.3,0.4-0.6,0.7-1,0.9
			s-0.9,0.3-1.5,0.3c-1.1,0-1.9-0.3-2.5-1s-0.9-1.6-0.9-2.9c0-0.9,0.2-1.6,0.5-2.3s0.8-1.1,1.4-1.4c0.6-0.3,1.3-0.5,2-0.5
			c0.4,0,0.8,0,1.1,0.1c0.4,0.1,0.7,0.2,0.9,0.4l-0.5,1.1c-0.4-0.3-0.9-0.4-1.5-0.4c-0.8,0-1.4,0.2-1.8,0.7s-0.6,1.1-0.6,2l0,0
			c0.2-0.3,0.5-0.5,0.9-0.6s0.8-0.2,1.2-0.2C23,198,23.5,198.1,23.9,198.2z M23.4,201.4c0.3-0.2,0.4-0.6,0.4-1s-0.1-0.7-0.4-1
			c-0.3-0.2-0.7-0.4-1.2-0.4s-0.9,0.1-1.2,0.4s-0.4,0.6-0.4,1s0.1,0.7,0.4,1s0.7,0.4,1.2,0.4C22.7,201.8,23.1,201.7,23.4,201.4z"/>
	</g>
</g>
<g>
	<g>
		<path class="st107" d="M17.1,169c0.4,0.4,0.6,0.9,0.6,1.5c0,0.5-0.1,0.9-0.3,1.2c-0.2,0.3-0.6,0.7-1.1,0.9s-1,0.3-1.7,0.3
			c-0.6,0-1.1-0.1-1.6-0.2s-1-0.4-1.3-0.7l0.6-1.1c0.3,0.2,0.6,0.4,1,0.6s0.8,0.2,1.3,0.2s0.9-0.1,1.2-0.3c0.3-0.2,0.4-0.5,0.4-0.9
			s-0.1-0.7-0.4-0.9c-0.3-0.2-0.7-0.3-1.3-0.3h-0.7v-1l1.8-2.1H12V165h5.4v1l-1.9,2.3C16.2,168.4,16.7,168.6,17.1,169z"/>
		<path class="st107" d="M20.3,172.5c-0.5-0.3-0.9-0.8-1.2-1.4c-0.3-0.6-0.4-1.3-0.4-2.2s0.1-1.6,0.4-2.2c0.3-0.6,0.7-1.1,1.2-1.4
			s1.1-0.5,1.7-0.5s1.2,0.2,1.7,0.5s0.9,0.8,1.2,1.4c0.3,0.6,0.4,1.3,0.4,2.2s-0.1,1.6-0.4,2.2c-0.3,0.6-0.7,1.1-1.2,1.4
			c-0.5,0.3-1.1,0.5-1.7,0.5C21.3,173,20.8,172.9,20.3,172.5z M23.3,171c0.3-0.5,0.5-1.2,0.5-2.1s-0.2-1.6-0.5-2.1s-0.8-0.7-1.3-0.7
			c-0.6,0-1,0.2-1.3,0.7s-0.5,1.2-0.5,2.1s0.2,1.6,0.5,2.1s0.8,0.7,1.3,0.7S23,171.5,23.3,171z"/>
	</g>
</g>
<g>
	<g>
		<path class="st107" d="M17,139.5c0.4,0.4,0.6,0.9,0.6,1.5c0,0.5-0.1,0.9-0.3,1.2c-0.2,0.3-0.6,0.7-1.1,0.9s-1,0.3-1.7,0.3
			c-0.6,0-1.1-0.1-1.6-0.2c-0.5-0.1-1-0.4-1.3-0.7l0.6-1.1c0.3,0.2,0.6,0.4,1,0.6s0.8,0.2,1.3,0.2s0.9-0.1,1.2-0.3
			c0.3-0.2,0.4-0.5,0.4-0.9s-0.1-0.7-0.4-0.9s-0.7-0.3-1.3-0.3h-0.7v-1l1.8-2.1h-3.6v-1.2h5.4v1l-1.9,2.3
			C16.1,138.9,16.7,139.1,17,139.5z"/>
		<path class="st107" d="M25.6,141.6h-1.4v1.8h-1.4v-1.8h-4.3v-1l3.9-5.1h1.5l-3.7,4.8h2.6v-1.5h1.4v1.6h1.4
			C25.6,140.4,25.6,141.6,25.6,141.6z"/>
	</g>
</g>
<g>
	<g>
		<path class="st107" d="M17.9,109.5c0.4,0.4,0.6,0.9,0.6,1.5c0,0.5-0.1,0.9-0.3,1.2c-0.2,0.3-0.6,0.7-1.1,0.9s-1,0.3-1.7,0.3
			c-0.6,0-1.1-0.1-1.6-0.2s-1-0.4-1.3-0.7l0.6-1.1c0.3,0.2,0.6,0.4,1,0.6s0.8,0.2,1.3,0.2s0.9-0.1,1.2-0.3c0.3-0.2,0.4-0.5,0.4-0.9
			s-0.1-0.7-0.4-0.9c-0.3-0.2-0.7-0.3-1.3-0.3h-0.7v-1l1.8-2.1h-3.6v-1.2h5.4v1l-1.9,2.3C17,108.9,17.5,109.1,17.9,109.5z"/>
		<path class="st107" d="M25.5,110c0.2,0.3,0.3,0.7,0.3,1.1c0,0.5-0.1,0.9-0.4,1.3s-0.6,0.6-1.1,0.8s-1.1,0.3-1.7,0.3
			s-1.2-0.1-1.7-0.3s-0.9-0.5-1.1-0.8c-0.3-0.4-0.4-0.8-0.4-1.3c0-0.4,0.1-0.8,0.3-1.1c0.2-0.3,0.5-0.6,0.9-0.8
			c-0.3-0.2-0.6-0.4-0.7-0.7c-0.2-0.3-0.3-0.6-0.3-1s0.1-0.8,0.4-1.2c0.2-0.3,0.6-0.6,1-0.8c0.4-0.2,1-0.3,1.5-0.3
			c0.6,0,1.1,0.1,1.5,0.3c0.4,0.2,0.8,0.4,1,0.8s0.4,0.7,0.4,1.2c0,0.4-0.1,0.7-0.3,1c-0.2,0.3-0.4,0.5-0.7,0.7
			C25,109.5,25.3,109.7,25.5,110z M23.9,112c0.3-0.2,0.5-0.5,0.5-0.9s-0.2-0.7-0.5-0.9c-0.3-0.2-0.7-0.3-1.3-0.3s-1,0.1-1.3,0.3
			c-0.3,0.2-0.5,0.5-0.5,0.9s0.2,0.7,0.5,0.9c0.3,0.2,0.7,0.3,1.3,0.3S23.6,112.3,23.9,112z M21.5,106.9c-0.3,0.2-0.4,0.5-0.4,0.8
			s0.1,0.6,0.4,0.8c0.3,0.2,0.6,0.3,1.1,0.3s0.8-0.1,1.1-0.3c0.3-0.2,0.4-0.5,0.4-0.8c0-0.4-0.1-0.6-0.4-0.8
			c-0.3-0.2-0.6-0.3-1.1-0.3S21.8,106.7,21.5,106.9z"/>
	</g>
</g>
<g>
	<g>
		<path class="st107" d="M19.1,82.6h-1.4v1.8h-1.4v-1.8h-4.4v-1l3.9-5.1h1.6l-3.7,4.8h2.6v-1.6h1.4v1.6h1.4V82.6z"/>
		<path class="st107" d="M25.4,83.2v1.2h-5.8v-1l3.1-3c0.4-0.3,0.6-0.6,0.7-0.9s0.2-0.5,0.2-0.7c0-0.4-0.1-0.6-0.4-0.8
			c-0.2-0.2-0.6-0.3-1.1-0.3c-0.8,0-1.4,0.3-1.8,0.8l-1-0.8c0.3-0.4,0.7-0.7,1.2-1c0.5-0.2,1.1-0.3,1.8-0.3c0.9,0,1.5,0.2,2.1,0.6
			c0.5,0.4,0.8,1,0.8,1.7c0,0.4-0.1,0.8-0.3,1.2s-0.5,0.8-1,1.3l-2.1,2L25.4,83.2L25.4,83.2z"/>
	</g>
</g>
<g>
	<g>
		<path class="st108" d="M19.3,53h-1.4v1.8h-1.4V53h-4.3v-1l3.9-5.1h1.6L14,51.7h2.6v-1.6H18v1.6h1.4L19.3,53L19.3,53z"/>
		<path class="st108" d="M24.9,50.2c0.4,0.2,0.7,0.5,1,0.8c0.2,0.4,0.3,0.8,0.3,1.3s-0.1,1-0.4,1.3s-0.6,0.7-1,0.9s-0.9,0.3-1.5,0.3
			c-1.1,0-1.9-0.3-2.5-1s-0.9-1.6-0.9-2.9c0-0.9,0.2-1.6,0.5-2.3c0.3-0.6,0.8-1.1,1.4-1.4c0.6-0.3,1.3-0.5,2-0.5
			c0.4,0,0.8,0,1.1,0.1c0.4,0.1,0.7,0.2,0.9,0.4l-0.5,1.1c-0.4-0.3-0.9-0.4-1.5-0.4c-0.8,0-1.4,0.2-1.8,0.7s-0.6,1.1-0.6,2l0,0
			c0.2-0.3,0.5-0.5,0.9-0.6s0.8-0.2,1.2-0.2C24,49.9,24.5,50,24.9,50.2z M24.4,53.4c0.3-0.2,0.4-0.6,0.4-1s-0.1-0.7-0.4-1
			c-0.3-0.2-0.7-0.4-1.2-0.4s-0.9,0.1-1.2,0.4s-0.4,0.6-0.4,1s0.1,0.7,0.4,1s0.7,0.4,1.2,0.4C23.7,53.7,24.1,53.6,24.4,53.4z"/>
	</g>
</g>
<circle class="st109" cx="18.6" cy="20.6" r="14.6"/>
<g id="Layer_1_00000094618233620819150710000009544971755126034336_">
	<g>
		<path class="st107" d="M18.8,8.1c-2.8,0-5.1,2.2-5.1,4.9v7.1c-1.9,1.6-2.9,4-2.6,6.5c0.5,3.4,3.3,6,6.8,6.4
			c4.5,0.4,8.6-2.9,8.6-7.3c0-2.2-0.9-4.1-2.6-5.5v-7.1C23.9,10.3,21.6,8.1,18.8,8.1z M25.1,25.6c0,3.6-3.4,6.4-7.1,6.1
			c-2.8-0.3-5.2-2.5-5.5-5.3c-0.2-2.2,0.6-4.2,2.4-5.5c0.1-0.1,0.2-0.3,0.2-0.5V13c0-2,1.7-3.6,3.7-3.6s3.7,1.6,3.7,3.6v7.4
			c0,0.2,0.1,0.3,0.2,0.5C24.3,22,25.1,23.7,25.1,25.6z"/>
	</g>
	<g>
		<path class="st107" d="M21.2,22.4v-7.7c0-1.3-1.1-2.3-2.4-2.3s-2.4,1.1-2.4,2.3v7.7c-1.4,1-2,2.6-1.6,4.2c0.7,2.7,4.3,3.9,6.7,2.2
			c1-0.8,1.6-2,1.6-3.1C23,24.3,22.3,23.1,21.2,22.4z M20.6,27.7c-1.6,1.2-4.1,0.4-4.5-1.4c-0.3-1.2,0.2-2.4,1.4-3
			c0.2-0.1,0.3-0.3,0.3-0.5v-8c0-0.5,0.5-1.1,1.1-1.1s1.1,0.4,1.1,1.1v8c0,0.2,0.1,0.4,0.3,0.5c0.9,0.5,1.5,1.4,1.5,2.4
			C21.6,26.4,21.3,27.1,20.6,27.7z"/>
	</g>
</g>
<line class="st106" x1="30.6" y1="632.5" x2="30.6" y2="631.1"/>
<rect x="11.1" y="622" class="st110" width="15.4" height="11.8"/>
<text transform="matrix(1 0 0 1 11.0518 631.6787)" class="st107 st111 st112">C</text>
</svg>
