<?xml version="1.0" encoding="utf-8"?>
<!-- Generator: Adobe Illustrator 28.0.0, SVG Export Plug-In . SVG Version: 6.00 Build 0)  -->
<svg version="1.1" id="Livello_1" xmlns="http://www.w3.org/2000/svg" xmlns:xlink="http://www.w3.org/1999/xlink" x="0px" y="0px"
	width="50px" height="677px" viewBox="0 0 50.6 677.2" style="enable-background:new 0 0 50.6 677.2;" xml:space="preserve">
<style type="text/css">
	.st0{display:none;}
	.st1{display:inline;}
	.st2{clip-path:url(#SVGID_00000036970034964397544800000004303200944433559957_);}
	.st3{fill:#F59826;}
	.st4{fill:#FDCC22;}
	.st5{fill:#6655AD;}
	.st6{fill:#975EAD;}
	.st7{fill:#C66AAF;}
	.st8{fill:#AF48A1;}
	.st9{fill:#981595;}
	.st10{fill:#660666;}
	.st11{fill:#640E0E;}
	.st12{fill:#991E1F;}
	.st13{fill:#CB2527;}
	.st14{fill:#EC2426;}
	.st15{fill:#F06626;}
	.st16{fill:#FCFC1E;}
	.st17{fill:#CBE436;}
	.st18{fill:#7ECB47;}
	.st19{fill:#0EB04E;}
	.st20{fill:#37BD7C;}
	.st21{fill:#58C3BA;}
	.st22{fill:#6FC9DC;}
	.st23{fill:#33BCF3;}
	.st24{fill:#498DD2;}
	.st25{fill:#4469BB;}
	.st26{fill:#3F57B0;}
	.st27{display:none;fill:none;stroke:#3C3430;stroke-width:3;stroke-miterlimit:10;}
	.st28{clip-path:url(#SVGID_00000076590340750662516880000015729663857714870192_);fill:#FFFAFA;}
	.st29{clip-path:url(#SVGID_00000052820143171204698350000014191079056559720598_);fill:#FBD5D6;}
	.st30{clip-path:url(#SVGID_00000042706472810649646480000000522838104057154474_);fill:#F9C1C2;}
	.st31{clip-path:url(#SVGID_00000022538712525587341300000004921155582225175685_);fill:#FDEBEB;}
	.st32{clip-path:url(#SVGID_00000179643673263215697260000016136843858135853459_);fill:#F6ABAD;}
	.st33{clip-path:url(#SVGID_00000010270141336813450090000002448398152784055474_);fill:#F49799;}
	.st34{clip-path:url(#SVGID_00000134249696091594297130000000055521758003711146_);fill:#C8E8F0;}
	.st35{clip-path:url(#SVGID_00000011017035517656398670000010955998338085168777_);fill:#D0EBF7;}
	.st36{clip-path:url(#SVGID_00000059284350266583476000000006880877423034942648_);fill:#4898DA;}
	.st37{clip-path:url(#SVGID_00000080190824457456667140000009666026313137522312_);fill:#A3A5D7;}
	.st38{clip-path:url(#SVGID_00000177472621285759719150000000068791052376052616_);fill:#B988C1;}
	.st39{clip-path:url(#SVGID_00000150790995833777809640000015739059328487712155_);fill:#D7A2CD;}
	.st40{clip-path:url(#SVGID_00000175317354523540138030000006773098725584868227_);fill:#E8BEDB;}
	.st41{clip-path:url(#SVGID_00000067930385892233583370000001829108673192050335_);fill:#E67D9B;}
	.st42{clip-path:url(#SVGID_00000103245894579975485950000016091121485089421743_);fill:#DB4C4D;}
	.st43{clip-path:url(#SVGID_00000039126182490528545830000001523815093728052105_);fill:#EF5A5C;}
	.st44{clip-path:url(#SVGID_00000162320403031358825500000015110099647149057155_);fill:#F7A25C;}
	.st45{clip-path:url(#SVGID_00000049903344022632430840000006186976190108295352_);fill:#FDD58F;}
	.st46{clip-path:url(#SVGID_00000020375150082554389450000014210719718591188619_);fill:#FFE173;}
	.st47{clip-path:url(#SVGID_00000007404127617593859360000011635587098278143124_);fill:#FEFE82;}
	.st48{clip-path:url(#SVGID_00000071541658119487307900000011493545981708534185_);fill:#FFFFC7;}
	.st49{clip-path:url(#SVGID_00000081629500287830224430000000150726796628286358_);fill:#F3F3A1;}
	.st50{clip-path:url(#SVGID_00000093162409990729480830000017602089171294701490_);fill:#D3ECA4;}
	.st51{clip-path:url(#SVGID_00000071529278836057741660000011835709379824471436_);fill:#C3E6D8;}
	.st52{clip-path:url(#SVGID_00000045605672206511686120000011831043064726203064_);fill:#C8E8F0;}
	.st53{clip-path:url(#SVGID_00000019667904401303808020000011667025897587693700_);fill:#D0EBF7;}
	.st54{clip-path:url(#SVGID_00000044153229906550079170000017402483388683494534_);fill:#EC2426;}
	.st55{clip-path:url(#SVGID_00000035519967401152761380000016785026775474552708_);fill:#FCFC1E;}
	.st56{clip-path:url(#SVGID_00000160164505725123739370000016734719785912980657_);fill:#0B7F3F;}
	.st57{clip-path:url(#SVGID_00000183927064282308736120000016703798086716056997_);fill:#F7A426;}
	.st58{clip-path:url(#SVGID_00000162332811518338310270000016819723005553874100_);fill:#6FC9DC;}
	.st59{clip-path:url(#SVGID_00000037657811034748843120000008464595877761603759_);fill:#3F57B0;}
	.st60{display:none;fill:#3A332F;}
	.st61{display:none;fill:none;stroke:#3C3430;stroke-width:2.9317;stroke-miterlimit:9.7722;}
	.st62{display:inline;fill:#3C3530;}
	.st63{display:inline;fill:#FFFFFF;}
	.st64{display:none;fill:none;}
	.st65{display:none;enable-background:new    ;}
	.st66{clip-path:url(#SVGID_00000140695118107576028970000013396874152230531207_);}
	.st67{opacity:0.88;fill:#64007F;enable-background:new    ;}
	.st68{opacity:0.88;fill:#FFDCDC;enable-background:new    ;}
	.st69{opacity:0.88;fill:#FFB4B4;enable-background:new    ;}
	.st70{opacity:0.88;fill:#F0A0A0;enable-background:new    ;}
	.st71{opacity:0.88;fill:#B46464;enable-background:new    ;}
	.st72{opacity:0.88;fill:#640000;enable-background:new    ;}
	.st73{opacity:0.88;fill:#7C0000;enable-background:new    ;}
	.st74{opacity:0.88;fill:#AF0F14;enable-background:new    ;}
	.st75{opacity:0.88;fill:#C41A0A;enable-background:new    ;}
	.st76{opacity:0.88;fill:#E83709;enable-background:new    ;}
	.st77{opacity:0.88;fill:#F46D0B;enable-background:new    ;}
	.st78{opacity:0.88;fill:#F4880B;enable-background:new    ;}
	.st79{opacity:0.88;fill:#F4BD0B;enable-background:new    ;}
	.st80{opacity:0.88;fill:#F4D90B;enable-background:new    ;}
	.st81{opacity:0.88;fill:#F3FB01;enable-background:new    ;}
	.st82{opacity:0.88;fill:#CEF003;enable-background:new    ;}
	.st83{opacity:0.88;fill:#9CE106;enable-background:new    ;}
	.st84{opacity:0.88;fill:#52CA0B;enable-background:new    ;}
	.st85{opacity:0.88;fill:#21BB0E;enable-background:new    ;}
	.st86{opacity:0.88;fill:#07A127;enable-background:new    ;}
	.st87{opacity:0.88;fill:#62AF88;enable-background:new    ;}
	.st88{opacity:0.88;fill:#87D3AB;enable-background:new    ;}
	.st89{opacity:0.88;fill:#9FEEC8;enable-background:new    ;}
	.st90{opacity:0.88;fill:#BBFFE2;enable-background:new    ;}
	.st91{opacity:0.88;fill:#5BB4FF;enable-background:new    ;}
	.st92{opacity:0.88;fill:#259AFF;enable-background:new    ;}
	.st93{opacity:0.88;fill:#0082EF;enable-background:new    ;}
	.st94{opacity:0.88;fill:#0062AF;enable-background:new    ;}
	.st95{opacity:0.88;fill:#00528F;enable-background:new    ;}
	.st96{opacity:0.88;fill:#00467F;enable-background:new    ;}
	.st97{opacity:0.88;fill:#003C7F;enable-background:new    ;}
	.st98{opacity:0.88;fill:#00287F;enable-background:new    ;}
	.st99{opacity:0.88;fill:#3E007F;enable-background:new    ;}
	.st100{opacity:0.88;fill:#57007F;enable-background:new    ;}
	.st101{opacity:0.88;fill:#F627EB;enable-background:new    ;}
	.st102{opacity:0.88;fill:#D41DD1;enable-background:new    ;}
	.st103{opacity:0.88;fill:#B414B9;enable-background:new    ;}
	.st104{opacity:0.88;fill:#870898;enable-background:new    ;}
	.st105{opacity:0.88;fill:#78048D;enable-background:new    ;}
	.st106{fill:#39322E;}
	.st107{fill:#FFFFFF;}
	.st108{fill:none;}
	.st109{enable-background:new    ;}
	.st110{fill:none;stroke:#3C3430;stroke-width:2;stroke-miterlimit:9.7722;}
	.st111{fill:none;stroke:#3C3430;stroke-miterlimit:9.7722;}
	.st112{fill:#3C3530;}
</style>
<g class="st0">
	<g class="st1">
		<g>
			<g>
				<g>
					<g>
						<defs>
							<path id="SVGID_1_" d="M30.6,642.8c-0.3,3.7-6.4,8.1-11.7,8.1l0,0c-5.2,0.4-12.3-3.6-12.3-8.1V58.7c1.1-5.3,7.4-8.5,11.5-8.5
								l0,0c4.9,0,11.2,3.1,12.4,8.7L30.6,642.8L30.6,642.8z"/>
						</defs>
						<clipPath id="SVGID_00000149350419972658769240000015508539131300141992_">
							<use xlink:href="#SVGID_1_"  style="overflow:visible;"/>
						</clipPath>
						<g style="clip-path:url(#SVGID_00000149350419972658769240000015508539131300141992_);">
							<rect x="-1.1" y="51.6" class="st3" width="47.9" height="15"/>
							<rect x="-5.6" y="65.9" class="st4" width="47.4" height="14.2"/>
							<rect x="-5.6" y="80.1" class="st5" width="47.4" height="14.2"/>
							<rect x="-5.6" y="94.4" class="st6" width="47.4" height="14.2"/>
							<rect x="-5.6" y="108.7" class="st7" width="47.4" height="14.2"/>
							<rect x="-5.6" y="122.9" class="st8" width="47.4" height="14.2"/>
							<rect x="-5.6" y="137.1" class="st9" width="47.4" height="14.2"/>
							<rect x="-5.6" y="151.3" class="st10" width="47.4" height="14.2"/>
							<rect x="-5.6" y="165.5" class="st11" width="47.4" height="14.2"/>
							<rect x="-5.6" y="179.7" class="st12" width="47.4" height="14.2"/>
							<rect x="-5.6" y="194" class="st13" width="47.4" height="14.2"/>
							<rect x="-5.6" y="208.2" class="st14" width="47.4" height="14.2"/>
							<rect x="-5.6" y="222.4" class="st15" width="47.4" height="14.2"/>
							<rect x="-5.6" y="236.6" class="st3" width="47.4" height="14.2"/>
							<rect x="-5.6" y="250.8" class="st4" width="47.4" height="14.2"/>
							<rect x="-5.6" y="265" class="st16" width="47.4" height="14.2"/>
							<rect x="-5.6" y="279.3" class="st17" width="47.4" height="14.2"/>
							<rect x="-5.6" y="293.5" class="st18" width="47.4" height="14.2"/>
							<rect x="-5.6" y="307.7" class="st19" width="47.4" height="14.2"/>
							<rect x="-5.6" y="322" class="st20" width="47.4" height="14.2"/>
							<rect x="-5.6" y="336.2" class="st21" width="47.4" height="14.2"/>
							<rect x="-5.6" y="350.4" class="st22" width="47.4" height="14.2"/>
							<rect x="-5.6" y="364.7" class="st23" width="47.4" height="14.2"/>
							<rect x="-5.6" y="378.9" class="st24" width="47.4" height="14.2"/>
							<rect x="-5.6" y="393.1" class="st25" width="47.4" height="14.2"/>
							<rect x="-5.6" y="407.3" class="st26" width="47.4" height="14.2"/>
							<rect x="-5.6" y="421.5" class="st5" width="47.4" height="14.2"/>
							<rect x="-5.6" y="435.7" class="st6" width="47.4" height="14.2"/>
							<rect x="-5.6" y="450" class="st7" width="47.4" height="14.2"/>
							<rect x="-5.6" y="464.2" class="st8" width="47.4" height="14.2"/>
							<rect x="-5.6" y="478.4" class="st9" width="47.4" height="14.2"/>
							<rect x="-5.6" y="492.6" class="st10" width="47.4" height="14.2"/>
							<rect x="-5.6" y="506.8" class="st11" width="47.4" height="14.2"/>
							<rect x="-5.6" y="521" class="st12" width="47.4" height="14.2"/>
							<rect x="-5.6" y="535.3" class="st13" width="47.4" height="14.2"/>
							<rect x="-5.6" y="549.6" class="st14" width="47.4" height="14.2"/>
							<rect x="-5.6" y="563.8" class="st15" width="47.4" height="14.2"/>
							<rect x="-5.6" y="578" class="st3" width="47.4" height="14.2"/>
							<rect x="-5.6" y="592.2" class="st4" width="47.4" height="60.2"/>
						</g>
					</g>
				</g>
			</g>
		</g>
	</g>
</g>
<path class="st27" d="M30.6,642.7c-0.3,3.7-6.4,8.1-11.7,8.1l0,0c-5.2,0.4-12.3-3.6-12.3-8.1V58.6c1.1-5.3,7.4-8.5,11.5-8.5l0,0
	c4.9,0,11.2,3.1,12.4,8.7L30.6,642.7L30.6,642.7z"/>
<g class="st0">
	<g class="st1">
		<g>
			<g>
				<g>
					<g>
						<g>
							<g>
								<defs>
									<path id="SVGID_00000071559341550070231170000011862078722085428924_" d="M18.6,585.9c-0.3,3.3-5.5,7.3-10.1,7.3l0,0
										C4,593.6-2.1,590-2.1,585.9v-526c1-4.8,6.3-7.6,10-7.6l0,0c4.2,0,9.7,2.9,10.8,7.8L18.6,585.9L18.6,585.9z"/>
								</defs>
								<clipPath id="SVGID_00000117637439050280732730000013230774174782163633_">
									<use xlink:href="#SVGID_00000071559341550070231170000011862078722085428924_"  style="overflow:visible;"/>
								</clipPath>
								
									<rect x="-7.2" y="502.4" style="clip-path:url(#SVGID_00000117637439050280732730000013230774174782163633_);fill:#FFFAFA;" width="30.9" height="96.8"/>
							</g>
						</g>
					</g>
				</g>
			</g>
		</g>
		<g>
			<g>
				<g>
					<g>
						<g>
							<g>
								<defs>
									<path id="SVGID_00000054252849010405520570000005876815786146725014_" d="M18.6,585.9c-0.3,3.3-5.5,7.3-10.1,7.3l0,0
										C4,593.6-2.1,590-2.1,585.9v-526c1-4.8,6.3-7.6,10-7.6l0,0c4.2,0,9.7,2.9,10.8,7.8L18.6,585.9L18.6,585.9z"/>
								</defs>
								<clipPath id="SVGID_00000172400478179275236570000014577786795391830425_">
									<use xlink:href="#SVGID_00000054252849010405520570000005876815786146725014_"  style="overflow:visible;"/>
								</clipPath>
								
									<rect x="-6.9" y="326.4" style="clip-path:url(#SVGID_00000172400478179275236570000014577786795391830425_);fill:#FBD5D6;" width="30.9" height="88"/>
							</g>
						</g>
					</g>
				</g>
			</g>
		</g>
		<g>
			<g>
				<g>
					<g>
						<g>
							<g>
								<defs>
									<path id="SVGID_00000093885326395480550240000004294423093170300334_" d="M18.6,585.9c-0.3,3.3-5.5,7.3-10.1,7.3l0,0
										C4,593.6-2.1,590-2.1,585.9v-526c1-4.8,6.3-7.6,10-7.6l0,0c4.2,0,9.7,2.9,10.8,7.8L18.6,585.9L18.6,585.9z"/>
								</defs>
								<clipPath id="SVGID_00000046316837278828645190000007246097584265827757_">
									<use xlink:href="#SVGID_00000093885326395480550240000004294423093170300334_"  style="overflow:visible;"/>
								</clipPath>
								
									<rect x="-6.9" y="238.4" style="clip-path:url(#SVGID_00000046316837278828645190000007246097584265827757_);fill:#F9C1C2;" width="30.9" height="88"/>
							</g>
						</g>
					</g>
				</g>
			</g>
		</g>
		<g>
			<g>
				<g>
					<g>
						<g>
							<g>
								<defs>
									<path id="SVGID_00000060717277600263683140000009137768625635772545_" d="M18.6,585.9c-0.3,3.3-5.5,7.3-10.1,7.3l0,0
										C4,593.6-2.1,590-2.1,585.9v-526c1-4.8,6.3-7.6,10-7.6l0,0c4.2,0,9.7,2.9,10.8,7.8L18.6,585.9L18.6,585.9z"/>
								</defs>
								<clipPath id="SVGID_00000157308893712648606400000015320633386884355994_">
									<use xlink:href="#SVGID_00000060717277600263683140000009137768625635772545_"  style="overflow:visible;"/>
								</clipPath>
								
									<rect x="-7.2" y="414.4" style="clip-path:url(#SVGID_00000157308893712648606400000015320633386884355994_);fill:#FDEBEB;" width="30.9" height="88"/>
							</g>
						</g>
					</g>
				</g>
			</g>
		</g>
		<g>
			<g>
				<g>
					<g>
						<g>
							<g>
								<defs>
									<path id="SVGID_00000109019224998563552420000009901863561109925532_" d="M18.6,585.9c-0.3,3.3-5.5,7.3-10.1,7.3l0,0
										C4,593.6-2.1,590-2.1,585.9v-526c1-4.8,6.3-7.6,10-7.6l0,0c4.2,0,9.7,2.9,10.8,7.8L18.6,585.9L18.6,585.9z"/>
								</defs>
								<clipPath id="SVGID_00000052783243279250571010000011122091969666831536_">
									<use xlink:href="#SVGID_00000109019224998563552420000009901863561109925532_"  style="overflow:visible;"/>
								</clipPath>
								
									<rect x="-6.9" y="150.4" style="clip-path:url(#SVGID_00000052783243279250571010000011122091969666831536_);fill:#F6ABAD;" width="30.9" height="88"/>
							</g>
						</g>
					</g>
				</g>
			</g>
		</g>
		<g>
			<g>
				<g>
					<g>
						<g>
							<g>
								<defs>
									<path id="SVGID_00000101816740833486972630000005569862454028155295_" d="M18.6,585.9c-0.3,3.3-5.5,7.3-10.1,7.3l0,0
										C4,593.6-2.1,590-2.1,585.9v-526c1-4.8,6.3-7.6,10-7.6l0,0c4.2,0,9.7,2.9,10.8,7.8L18.6,585.9L18.6,585.9z"/>
								</defs>
								<clipPath id="SVGID_00000174585076292532428460000003680732682183042450_">
									<use xlink:href="#SVGID_00000101816740833486972630000005569862454028155295_"  style="overflow:visible;"/>
								</clipPath>
								
									<rect x="-7.2" y="53.6" style="clip-path:url(#SVGID_00000174585076292532428460000003680732682183042450_);fill:#F49799;" width="30.9" height="96.8"/>
							</g>
						</g>
					</g>
				</g>
			</g>
		</g>
	</g>
</g>
<g class="st0">
	<g class="st1">
		<g>
			<g>
				<g>
					<g>
						<g>
							<defs>
								<path id="SVGID_00000161619874590654952230000009487159084591346853_" d="M18.6,585.9c0,3.6-5.8,7.9-10.4,7.9H7.6
									c-4.2,0-9.7-3.8-9.7-7.9v-526c1-4.8,6.3-7.6,10-7.6l0,0c4.2,0,9.7,2.9,10.7,7.8V585.9L18.6,585.9z"/>
							</defs>
							<clipPath id="SVGID_00000056407832263040856570000004285375722176302244_">
								<use xlink:href="#SVGID_00000161619874590654952230000009487159084591346853_"  style="overflow:visible;"/>
							</clipPath>
							
								<rect x="-12.9" y="52.3" style="clip-path:url(#SVGID_00000056407832263040856570000004285375722176302244_);fill:#C8E8F0;" width="42.3" height="26.6"/>
						</g>
					</g>
				</g>
			</g>
		</g>
	</g>
	<g class="st1">
		<g>
			<g>
				<g>
					<g>
						<g>
							<defs>
								<path id="SVGID_00000171708226802069025390000001674597824400254374_" d="M18.6,585.9c0,3.6-5.8,7.9-10.4,7.9H7.6
									c-4.2,0-9.7-3.8-9.7-7.9v-526c1-4.8,6.3-7.6,10-7.6l0,0c4.2,0,9.7,2.9,10.7,7.8V585.9L18.6,585.9z"/>
							</defs>
							<clipPath id="SVGID_00000183230225306823665890000009321334536648933781_">
								<use xlink:href="#SVGID_00000171708226802069025390000001674597824400254374_"  style="overflow:visible;"/>
							</clipPath>
							
								<rect x="-12.9" y="78.9" style="clip-path:url(#SVGID_00000183230225306823665890000009321334536648933781_);fill:#D0EBF7;" width="42.3" height="26.6"/>
						</g>
					</g>
				</g>
			</g>
		</g>
	</g>
	<g class="st1">
		<g>
			<g>
				<g>
					<g>
						<g>
							<defs>
								<path id="SVGID_00000122704317207380625570000010220275295376285100_" d="M18.6,585.9c0,3.6-5.8,7.9-10.4,7.9H7.6
									c-4.2,0-9.7-3.8-9.7-7.9v-526c1-4.8,6.3-7.6,10-7.6l0,0c4.2,0,9.7,2.9,10.7,7.8V585.9L18.6,585.9z"/>
							</defs>
							<clipPath id="SVGID_00000060023830978730477230000017764097512959140528_">
								<use xlink:href="#SVGID_00000122704317207380625570000010220275295376285100_"  style="overflow:visible;"/>
							</clipPath>
							
								<rect x="-12.9" y="105" style="clip-path:url(#SVGID_00000060023830978730477230000017764097512959140528_);fill:#4898DA;" width="42.3" height="26.6"/>
						</g>
					</g>
				</g>
			</g>
		</g>
	</g>
	<g class="st1">
		<g>
			<g>
				<g>
					<g>
						<g>
							<defs>
								<path id="SVGID_00000049907029385698462050000010945501867718036147_" d="M18.6,585.9c0,3.6-5.8,7.9-10.4,7.9H7.6
									c-4.2,0-9.7-3.8-9.7-7.9v-526c1-4.8,6.3-7.6,10-7.6l0,0c4.2,0,9.7,2.9,10.7,7.8V585.9L18.6,585.9z"/>
							</defs>
							<clipPath id="SVGID_00000029726933014391753560000005796762995032649899_">
								<use xlink:href="#SVGID_00000049907029385698462050000010945501867718036147_"  style="overflow:visible;"/>
							</clipPath>
							
								<rect x="-12.9" y="131.6" style="clip-path:url(#SVGID_00000029726933014391753560000005796762995032649899_);fill:#A3A5D7;" width="42.3" height="26.6"/>
						</g>
					</g>
				</g>
			</g>
		</g>
	</g>
	<g class="st1">
		<g>
			<g>
				<g>
					<g>
						<g>
							<defs>
								<path id="SVGID_00000111907047708195959110000018048682419996315787_" d="M18.6,585.9c0,3.6-5.8,7.9-10.4,7.9H7.6
									c-4.2,0-9.7-3.8-9.7-7.9v-526c1-4.8,6.3-7.6,10-7.6l0,0c4.2,0,9.7,2.9,10.7,7.8V585.9L18.6,585.9z"/>
							</defs>
							<clipPath id="SVGID_00000066492084795195686810000018039540262847066806_">
								<use xlink:href="#SVGID_00000111907047708195959110000018048682419996315787_"  style="overflow:visible;"/>
							</clipPath>
							
								<rect x="-12.9" y="158.2" style="clip-path:url(#SVGID_00000066492084795195686810000018039540262847066806_);fill:#B988C1;" width="42.3" height="26.6"/>
						</g>
					</g>
				</g>
			</g>
		</g>
	</g>
	<g class="st1">
		<g>
			<g>
				<g>
					<g>
						<g>
							<defs>
								<path id="SVGID_00000007407283477471982690000002977487097086738573_" d="M18.6,585.9c0,3.6-5.8,7.9-10.4,7.9H7.6
									c-4.2,0-9.7-3.8-9.7-7.9v-526c1-4.8,6.3-7.6,10-7.6l0,0c4.2,0,9.7,2.9,10.7,7.8V585.9L18.6,585.9z"/>
							</defs>
							<clipPath id="SVGID_00000043433536941165487720000004952130306022790589_">
								<use xlink:href="#SVGID_00000007407283477471982690000002977487097086738573_"  style="overflow:visible;"/>
							</clipPath>
							
								<rect x="-12.9" y="184.9" style="clip-path:url(#SVGID_00000043433536941165487720000004952130306022790589_);fill:#D7A2CD;" width="42.3" height="26.6"/>
						</g>
					</g>
				</g>
			</g>
		</g>
	</g>
	<g class="st1">
		<g>
			<g>
				<g>
					<g>
						<g>
							<defs>
								<path id="SVGID_00000176022835847200223130000015419951405918633870_" d="M18.6,585.9c0,3.6-5.8,7.9-10.4,7.9H7.6
									c-4.2,0-9.7-3.8-9.7-7.9v-526c1-4.8,6.3-7.6,10-7.6l0,0c4.2,0,9.7,2.9,10.7,7.8V585.9L18.6,585.9z"/>
							</defs>
							<clipPath id="SVGID_00000073702379923306150130000014072015884139065001_">
								<use xlink:href="#SVGID_00000176022835847200223130000015419951405918633870_"  style="overflow:visible;"/>
							</clipPath>
							
								<rect x="-12.9" y="211.1" style="clip-path:url(#SVGID_00000073702379923306150130000014072015884139065001_);fill:#E8BEDB;" width="42.3" height="26.6"/>
						</g>
					</g>
				</g>
			</g>
		</g>
	</g>
	<g class="st1">
		<g>
			<g>
				<g>
					<g>
						<g>
							<defs>
								<path id="SVGID_00000029733811361435209610000011995185521169378184_" d="M18.6,585.9c0,3.6-5.8,7.9-10.4,7.9H7.6
									c-4.2,0-9.7-3.8-9.7-7.9v-526c1-4.8,6.3-7.6,10-7.6l0,0c4.2,0,9.7,2.9,10.7,7.8V585.9L18.6,585.9z"/>
							</defs>
							<clipPath id="SVGID_00000029761857452344543140000009819091772135057305_">
								<use xlink:href="#SVGID_00000029733811361435209610000011995185521169378184_"  style="overflow:visible;"/>
							</clipPath>
							
								<rect x="-12.9" y="237.8" style="clip-path:url(#SVGID_00000029761857452344543140000009819091772135057305_);fill:#E67D9B;" width="42.3" height="26.6"/>
						</g>
					</g>
				</g>
			</g>
		</g>
	</g>
	<g class="st1">
		<g>
			<g>
				<g>
					<g>
						<g>
							<defs>
								<path id="SVGID_00000154419544419123527810000012506193021657340579_" d="M18.6,585.9c0,3.6-5.8,7.9-10.4,7.9H7.6
									c-4.2,0-9.7-3.8-9.7-7.9v-526c1-4.8,6.3-7.6,10-7.6l0,0c4.2,0,9.7,2.9,10.7,7.8V585.9L18.6,585.9z"/>
							</defs>
							<clipPath id="SVGID_00000119084900790294461500000012530630538825767840_">
								<use xlink:href="#SVGID_00000154419544419123527810000012506193021657340579_"  style="overflow:visible;"/>
							</clipPath>
							
								<rect x="-12.9" y="264.4" style="clip-path:url(#SVGID_00000119084900790294461500000012530630538825767840_);fill:#DB4C4D;" width="42.3" height="26.6"/>
						</g>
					</g>
				</g>
			</g>
		</g>
	</g>
	<g class="st1">
		<g>
			<g>
				<g>
					<g>
						<g>
							<defs>
								<path id="SVGID_00000142875547657016624950000017955521573600054657_" d="M18.6,585.9c0,3.6-5.8,7.9-10.4,7.9H7.6
									c-4.2,0-9.7-3.8-9.7-7.9v-526c1-4.8,6.3-7.6,10-7.6l0,0c4.2,0,9.7,2.9,10.7,7.8V585.9L18.6,585.9z"/>
							</defs>
							<clipPath id="SVGID_00000042720781895713101950000003801186269566577847_">
								<use xlink:href="#SVGID_00000142875547657016624950000017955521573600054657_"  style="overflow:visible;"/>
							</clipPath>
							
								<rect x="-12.9" y="291" style="clip-path:url(#SVGID_00000042720781895713101950000003801186269566577847_);fill:#EF5A5C;" width="42.3" height="26.6"/>
						</g>
					</g>
				</g>
			</g>
		</g>
	</g>
	<g class="st1">
		<g>
			<g>
				<g>
					<g>
						<g>
							<defs>
								<path id="SVGID_00000125594259891512231890000008881324471436840382_" d="M18.6,585.9c0,3.6-5.8,7.9-10.4,7.9H7.6
									c-4.2,0-9.7-3.8-9.7-7.9v-526c1-4.8,6.3-7.6,10-7.6l0,0c4.2,0,9.7,2.9,10.7,7.8V585.9L18.6,585.9z"/>
							</defs>
							<clipPath id="SVGID_00000064322743345261529140000009126340447942434480_">
								<use xlink:href="#SVGID_00000125594259891512231890000008881324471436840382_"  style="overflow:visible;"/>
							</clipPath>
							
								<rect x="-12.9" y="317.3" style="clip-path:url(#SVGID_00000064322743345261529140000009126340447942434480_);fill:#F7A25C;" width="42.3" height="26.6"/>
						</g>
					</g>
				</g>
			</g>
		</g>
	</g>
	<g class="st1">
		<g>
			<g>
				<g>
					<g>
						<g>
							<defs>
								<path id="SVGID_00000075863700773478599100000008597099141732159649_" d="M18.6,585.9c0,3.6-5.8,7.9-10.4,7.9H7.6
									c-4.2,0-9.7-3.8-9.7-7.9v-526c1-4.8,6.3-7.6,10-7.6l0,0c4.2,0,9.7,2.9,10.7,7.8V585.9L18.6,585.9z"/>
							</defs>
							<clipPath id="SVGID_00000124868850252471730410000003277309013580813492_">
								<use xlink:href="#SVGID_00000075863700773478599100000008597099141732159649_"  style="overflow:visible;"/>
							</clipPath>
							
								<rect x="-12.9" y="343.9" style="clip-path:url(#SVGID_00000124868850252471730410000003277309013580813492_);fill:#FDD58F;" width="42.3" height="26.6"/>
						</g>
					</g>
				</g>
			</g>
		</g>
	</g>
	<g class="st1">
		<g>
			<g>
				<g>
					<g>
						<g>
							<defs>
								<path id="SVGID_00000103248265601219470270000012499867073226092693_" d="M18.6,585.9c0,3.6-5.8,7.9-10.4,7.9H7.6
									c-4.2,0-9.7-3.8-9.7-7.9v-526c1-4.8,6.3-7.6,10-7.6l0,0c4.2,0,9.7,2.9,10.7,7.8V585.9L18.6,585.9z"/>
							</defs>
							<clipPath id="SVGID_00000044873429762180812100000010891050297420793017_">
								<use xlink:href="#SVGID_00000103248265601219470270000012499867073226092693_"  style="overflow:visible;"/>
							</clipPath>
							
								<rect x="-12.9" y="370.5" style="clip-path:url(#SVGID_00000044873429762180812100000010891050297420793017_);fill:#FFE173;" width="42.3" height="26.6"/>
						</g>
					</g>
				</g>
			</g>
		</g>
	</g>
	<g class="st1">
		<g>
			<g>
				<g>
					<g>
						<g>
							<defs>
								<path id="SVGID_00000078023595892629684480000004619129920812363439_" d="M18.6,585.9c0,3.6-5.8,7.9-10.4,7.9H7.6
									c-4.2,0-9.7-3.8-9.7-7.9v-526c1-4.8,6.3-7.6,10-7.6l0,0c4.2,0,9.7,2.9,10.7,7.8V585.9L18.6,585.9z"/>
							</defs>
							<clipPath id="SVGID_00000001625744132255987700000001568833896218418863_">
								<use xlink:href="#SVGID_00000078023595892629684480000004619129920812363439_"  style="overflow:visible;"/>
							</clipPath>
							
								<rect x="-12.9" y="397.1" style="clip-path:url(#SVGID_00000001625744132255987700000001568833896218418863_);fill:#FEFE82;" width="42.3" height="26.6"/>
						</g>
					</g>
				</g>
			</g>
		</g>
	</g>
	<g class="st1">
		<g>
			<g>
				<g>
					<g>
						<g>
							<defs>
								<path id="SVGID_00000123436259144962808080000001156316792122557331_" d="M18.6,585.9c0,3.6-5.8,7.9-10.4,7.9H7.6
									c-4.2,0-9.7-3.8-9.7-7.9v-526c1-4.8,6.3-7.6,10-7.6l0,0c4.2,0,9.7,2.9,10.7,7.8V585.9L18.6,585.9z"/>
							</defs>
							<clipPath id="SVGID_00000029043651221217912930000003556208364910974856_">
								<use xlink:href="#SVGID_00000123436259144962808080000001156316792122557331_"  style="overflow:visible;"/>
							</clipPath>
							
								<rect x="-12.9" y="423.4" style="clip-path:url(#SVGID_00000029043651221217912930000003556208364910974856_);fill:#FFFFC7;" width="42.3" height="26.6"/>
						</g>
					</g>
				</g>
			</g>
		</g>
	</g>
	<g class="st1">
		<g>
			<g>
				<g>
					<g>
						<g>
							<defs>
								<path id="SVGID_00000129199547613769850850000013720243346542214024_" d="M18.6,585.9c0,3.6-5.8,7.9-10.4,7.9H7.6
									c-4.2,0-9.7-3.8-9.7-7.9v-526c1-4.8,6.3-7.6,10-7.6l0,0c4.2,0,9.7,2.9,10.7,7.8V585.9L18.6,585.9z"/>
							</defs>
							<clipPath id="SVGID_00000077320364909339996470000006815735598560148139_">
								<use xlink:href="#SVGID_00000129199547613769850850000013720243346542214024_"  style="overflow:visible;"/>
							</clipPath>
							
								<rect x="-12.9" y="450" style="clip-path:url(#SVGID_00000077320364909339996470000006815735598560148139_);fill:#F3F3A1;" width="42.3" height="26.6"/>
						</g>
					</g>
				</g>
			</g>
		</g>
	</g>
	<g class="st1">
		<g>
			<g>
				<g>
					<g>
						<g>
							<defs>
								<path id="SVGID_00000069361592058794822450000011837819791682471557_" d="M18.6,585.9c0,3.6-5.8,7.9-10.4,7.9H7.6
									c-4.2,0-9.7-3.8-9.7-7.9v-526c1-4.8,6.3-7.6,10-7.6l0,0c4.2,0,9.7,2.9,10.7,7.8V585.9L18.6,585.9z"/>
							</defs>
							<clipPath id="SVGID_00000173867273931873820660000002446867576441455532_">
								<use xlink:href="#SVGID_00000069361592058794822450000011837819791682471557_"  style="overflow:visible;"/>
							</clipPath>
							
								<rect x="-12.9" y="476.7" style="clip-path:url(#SVGID_00000173867273931873820660000002446867576441455532_);fill:#D3ECA4;" width="42.3" height="26.6"/>
						</g>
					</g>
				</g>
			</g>
		</g>
	</g>
	<g class="st1">
		<g>
			<g>
				<g>
					<g>
						<g>
							<defs>
								<path id="SVGID_00000098189992428245060310000014048319713923772855_" d="M18.6,585.9c0,3.6-5.8,7.9-10.4,7.9H7.6
									c-4.2,0-9.7-3.8-9.7-7.9v-526c1-4.8,6.3-7.6,10-7.6l0,0c4.2,0,9.7,2.9,10.7,7.8V585.9L18.6,585.9z"/>
							</defs>
							<clipPath id="SVGID_00000068679646263945311210000008775422918045473933_">
								<use xlink:href="#SVGID_00000098189992428245060310000014048319713923772855_"  style="overflow:visible;"/>
							</clipPath>
							
								<rect x="-12.9" y="503.3" style="clip-path:url(#SVGID_00000068679646263945311210000008775422918045473933_);fill:#C3E6D8;" width="42.3" height="26.6"/>
						</g>
					</g>
				</g>
			</g>
		</g>
	</g>
	<g class="st1">
		<g>
			<g>
				<g>
					<g>
						<g>
							<defs>
								<path id="SVGID_00000092423947183945452950000015634736176587513021_" d="M18.6,585.9c0,3.6-5.8,7.9-10.4,7.9H7.6
									c-4.2,0-9.7-3.8-9.7-7.9v-526c1-4.8,6.3-7.6,10-7.6l0,0c4.2,0,9.7,2.9,10.7,7.8V585.9L18.6,585.9z"/>
							</defs>
							<clipPath id="SVGID_00000142140361676195280560000014561865021402780555_">
								<use xlink:href="#SVGID_00000092423947183945452950000015634736176587513021_"  style="overflow:visible;"/>
							</clipPath>
							
								<rect x="-12.9" y="529.9" style="clip-path:url(#SVGID_00000142140361676195280560000014561865021402780555_);fill:#C8E8F0;" width="42.3" height="26.6"/>
						</g>
					</g>
				</g>
			</g>
		</g>
	</g>
	<g class="st1">
		<g>
			<g>
				<g>
					<g>
						<g>
							<defs>
								<path id="SVGID_00000068657497330841409740000007193473079433033358_" d="M18.6,585.9c0,3.6-5.8,7.9-10.4,7.9H7.6
									c-4.2,0-9.7-3.8-9.7-7.9v-526c1-4.8,6.3-7.6,10-7.6l0,0c4.2,0,9.7,2.9,10.7,7.8V585.9L18.6,585.9z"/>
							</defs>
							<clipPath id="SVGID_00000044879745375715312140000009295317555850388392_">
								<use xlink:href="#SVGID_00000068657497330841409740000007193473079433033358_"  style="overflow:visible;"/>
							</clipPath>
							
								<rect x="-12.9" y="556.5" style="clip-path:url(#SVGID_00000044879745375715312140000009295317555850388392_);fill:#D0EBF7;" width="42.3" height="40.2"/>
						</g>
					</g>
				</g>
			</g>
		</g>
	</g>
</g>
<g class="st0">
	<g class="st1">
		<g>
			<g>
				<g>
					<g>
						<g>
							<g>
								<defs>
									<path id="SVGID_00000035511515856518553140000014675917636548405947_" d="M18.4,586.1c-0.3,3.3-5.5,7.3-10.1,7.3l0,0
										c-4.5,0.4-10.6-3.2-10.6-7.3v-526c1-4.8,6.3-7.6,10-7.6l0,0c4.2,0,9.7,2.9,10.8,7.8L18.4,586.1L18.4,586.1z"/>
								</defs>
								<clipPath id="SVGID_00000007425678677875365170000012535371811486673028_">
									<use xlink:href="#SVGID_00000035511515856518553140000014675917636548405947_"  style="overflow:visible;"/>
								</clipPath>
								
									<rect x="-7.4" y="501.2" style="clip-path:url(#SVGID_00000007425678677875365170000012535371811486673028_);fill:#EC2426;" width="30.9" height="96.8"/>
							</g>
						</g>
					</g>
				</g>
			</g>
		</g>
		<g>
			<g>
				<g>
					<g>
						<g>
							<g>
								<defs>
									<path id="SVGID_00000107577783139616468050000015430928712475493763_" d="M18.4,586.1c-0.3,3.3-5.5,7.3-10.1,7.3l0,0
										c-4.5,0.4-10.6-3.2-10.6-7.3v-526c1-4.8,6.3-7.6,10-7.6l0,0c4.2,0,9.7,2.9,10.8,7.8L18.4,586.1L18.4,586.1z"/>
								</defs>
								<clipPath id="SVGID_00000173133852075549284000000013370566924119414161_">
									<use xlink:href="#SVGID_00000107577783139616468050000015430928712475493763_"  style="overflow:visible;"/>
								</clipPath>
								
									<rect x="-7.1" y="325.2" style="clip-path:url(#SVGID_00000173133852075549284000000013370566924119414161_);fill:#FCFC1E;" width="30.9" height="88"/>
							</g>
						</g>
					</g>
				</g>
			</g>
		</g>
		<g>
			<g>
				<g>
					<g>
						<g>
							<g>
								<defs>
									<path id="SVGID_00000004513617974654457780000000949196787886990487_" d="M18.4,586.1c-0.3,3.3-5.5,7.3-10.1,7.3l0,0
										c-4.5,0.4-10.6-3.2-10.6-7.3v-526c1-4.8,6.3-7.6,10-7.6l0,0c4.2,0,9.7,2.9,10.8,7.8L18.4,586.1L18.4,586.1z"/>
								</defs>
								<clipPath id="SVGID_00000143593940624165487440000015119595041082193300_">
									<use xlink:href="#SVGID_00000004513617974654457780000000949196787886990487_"  style="overflow:visible;"/>
								</clipPath>
								
									<rect x="-7.1" y="237.2" style="clip-path:url(#SVGID_00000143593940624165487440000015119595041082193300_);fill:#0B7F3F;" width="30.9" height="88"/>
							</g>
						</g>
					</g>
				</g>
			</g>
		</g>
		<g>
			<g>
				<g>
					<g>
						<g>
							<g>
								<defs>
									<path id="SVGID_00000153695952673637572090000017019833798594760365_" d="M18.4,586.1c-0.3,3.3-5.5,7.3-10.1,7.3l0,0
										c-4.5,0.4-10.6-3.2-10.6-7.3v-526c1-4.8,6.3-7.6,10-7.6l0,0c4.2,0,9.7,2.9,10.8,7.8L18.4,586.1L18.4,586.1z"/>
								</defs>
								<clipPath id="SVGID_00000170261982715311519320000001788727672262992024_">
									<use xlink:href="#SVGID_00000153695952673637572090000017019833798594760365_"  style="overflow:visible;"/>
								</clipPath>
								
									<rect x="-7.4" y="413.2" style="clip-path:url(#SVGID_00000170261982715311519320000001788727672262992024_);fill:#F7A426;" width="30.9" height="88"/>
							</g>
						</g>
					</g>
				</g>
			</g>
		</g>
		<g>
			<g>
				<g>
					<g>
						<g>
							<g>
								<defs>
									<path id="SVGID_00000118373283000374677870000001542433796879715257_" d="M18.4,586.1c-0.3,3.3-5.5,7.3-10.1,7.3l0,0
										c-4.5,0.4-10.6-3.2-10.6-7.3v-526c1-4.8,6.3-7.6,10-7.6l0,0c4.2,0,9.7,2.9,10.8,7.8L18.4,586.1L18.4,586.1z"/>
								</defs>
								<clipPath id="SVGID_00000038402023609124325830000010669009569138620335_">
									<use xlink:href="#SVGID_00000118373283000374677870000001542433796879715257_"  style="overflow:visible;"/>
								</clipPath>
								
									<rect x="-7.1" y="149.2" style="clip-path:url(#SVGID_00000038402023609124325830000010669009569138620335_);fill:#6FC9DC;" width="30.9" height="88"/>
							</g>
						</g>
					</g>
				</g>
			</g>
		</g>
		<g>
			<g>
				<g>
					<g>
						<g>
							<g>
								<defs>
									<path id="SVGID_00000037666067621138081730000010927868381977180040_" d="M18.4,586.1c-0.3,3.3-5.5,7.3-10.1,7.3l0,0
										c-4.5,0.4-10.6-3.2-10.6-7.3v-526c1-4.8,6.3-7.6,10-7.6l0,0c4.2,0,9.7,2.9,10.8,7.8L18.4,586.1L18.4,586.1z"/>
								</defs>
								<clipPath id="SVGID_00000013903215984438729770000014375024139652793268_">
									<use xlink:href="#SVGID_00000037666067621138081730000010927868381977180040_"  style="overflow:visible;"/>
								</clipPath>
								
									<rect x="-7.1" y="52.4" style="clip-path:url(#SVGID_00000013903215984438729770000014375024139652793268_);fill:#3F57B0;" width="30.9" height="96.8"/>
							</g>
						</g>
					</g>
				</g>
			</g>
		</g>
	</g>
</g>
<circle class="st60" cx="8" cy="33.8" r="14.6"/>
<path class="st61" d="M18.4,586.1c-0.3,3.3-5.5,7.3-10.1,7.3l0,0c-4.5,0.4-10.6-3.2-10.6-7.3v-526c1-4.8,6.3-7.6,10-7.6l0,0
	c4.2,0,9.7,2.9,10.8,7.8L18.4,586.1L18.4,586.1z"/>
<g class="st0">
	<path class="st62" d="M3.4,584.6c-0.4-0.5-0.6-1-0.6-1.8c0-0.7,0.2-1.3,0.6-1.8s0.9-0.7,1.5-0.7s1.1,0.2,1.5,0.7
		c0.4,0.4,0.6,1,0.6,1.8s-0.2,1.3-0.6,1.8c-0.4,0.4-0.9,0.7-1.5,0.7S3.8,585.1,3.4,584.6z M5.7,584c0.2-0.3,0.3-0.7,0.3-1.1
		c0-0.5-0.1-0.9-0.3-1.1c-0.2-0.3-0.5-0.4-0.8-0.4s-0.6,0.1-0.8,0.4c-0.2,0.3-0.3,0.7-0.3,1.1c0,0.5,0.1,0.9,0.3,1.1
		c0.2,0.3,0.5,0.4,0.8,0.4C5.3,584.4,5.5,584.3,5.7,584z M10.2,580.5h1.2l-6.1,8.9H4.2L10.2,580.5z M9.2,588.8
		c-0.4-0.5-0.6-1-0.6-1.8c0-0.7,0.2-1.3,0.6-1.8c0.4-0.4,0.9-0.7,1.5-0.7s1.1,0.2,1.5,0.7c0.4,0.4,0.6,1,0.6,1.8
		c0,0.7-0.2,1.3-0.6,1.8c-0.4,0.4-0.9,0.7-1.5,0.7S9.6,589.3,9.2,588.8z M11.5,588.2c0.2-0.3,0.3-0.7,0.3-1.1c0-0.5-0.1-0.9-0.3-1.1
		c-0.2-0.3-0.5-0.4-0.8-0.4s-0.6,0.1-0.8,0.4c-0.2,0.3-0.3,0.7-0.3,1.1c0,0.5,0.1,0.9,0.3,1.1c0.2,0.3,0.5,0.4,0.8,0.4
		C11.1,588.6,11.3,588.5,11.5,588.2z"/>
</g>
<g class="st0">
	<path class="st62" d="M6.9,540.4c0.4,0.3,0.6,0.7,0.6,1.2c0,0.3-0.1,0.6-0.2,0.9c-0.2,0.3-0.4,0.5-0.7,0.6
		c-0.3,0.2-0.7,0.2-1.2,0.2c-0.4,0-0.8-0.1-1.1-0.2c-0.4-0.1-0.7-0.3-0.9-0.5l0.4-0.8c0.2,0.2,0.4,0.3,0.7,0.4
		c0.3,0.1,0.6,0.1,0.9,0.1c0.4,0,0.6-0.1,0.8-0.2c0.2-0.1,0.3-0.4,0.3-0.6c0-0.3-0.1-0.5-0.3-0.6s-0.6-0.2-1.1-0.2H3.6l0.3-3h3.2
		v0.9H4.7l-0.1,1.3h0.5C5.9,539.9,6.5,540.1,6.9,540.4z"/>
	<path class="st62" d="M9.1,543c-0.3-0.2-0.6-0.5-0.8-1c-0.2-0.4-0.3-0.9-0.3-1.5s0.1-1.1,0.3-1.5s0.5-0.8,0.8-1s0.7-0.3,1.2-0.3
		c0.4,0,0.8,0.1,1.2,0.3c0.3,0.2,0.6,0.5,0.8,1c0.2,0.4,0.3,0.9,0.3,1.5s-0.1,1.1-0.3,1.5s-0.5,0.7-0.8,1c-0.3,0.2-0.7,0.3-1.2,0.3
		S9.5,543.2,9.1,543z M11.2,542c0.2-0.3,0.3-0.8,0.3-1.4c0-0.6-0.1-1.1-0.3-1.4c-0.2-0.3-0.5-0.5-0.9-0.5s-0.7,0.2-0.9,0.5
		s-0.3,0.8-0.3,1.4c0,0.6,0.1,1.1,0.3,1.4s0.5,0.5,0.9,0.5S11,542.3,11.2,542z"/>
</g>
<g class="st0">
	<path class="st62" d="M6.8,459c0.3,0.1,0.5,0.3,0.7,0.6c0.2,0.3,0.2,0.6,0.2,0.9c0,0.4-0.1,0.7-0.3,0.9c-0.2,0.3-0.4,0.5-0.7,0.6
		s-0.6,0.2-1,0.2c-0.8,0-1.3-0.2-1.7-0.7s-0.6-1.1-0.6-2c0-0.6,0.1-1.1,0.3-1.6c0.2-0.4,0.5-0.8,0.9-1s0.9-0.3,1.4-0.3
		c0.3,0,0.5,0,0.8,0.1c0.2,0.1,0.5,0.1,0.6,0.3L7,457.8c-0.3-0.2-0.6-0.3-1-0.3c-0.5,0-0.9,0.2-1.2,0.5s-0.4,0.8-0.4,1.4l0,0
		c0.2-0.2,0.4-0.3,0.6-0.4c0.3-0.1,0.5-0.1,0.8-0.1C6.2,458.8,6.5,458.9,6.8,459z M6.4,461.2c0.2-0.2,0.3-0.4,0.3-0.7
		c0-0.3-0.1-0.5-0.3-0.7s-0.5-0.3-0.8-0.3s-0.6,0.1-0.8,0.3c-0.2,0.2-0.3,0.4-0.3,0.7c0,0.3,0.1,0.5,0.3,0.7s0.5,0.3,0.8,0.3
		C6,461.5,6.2,461.4,6.4,461.2z"/>
	<path class="st62" d="M9.4,462c-0.3-0.2-0.6-0.5-0.8-1c-0.2-0.4-0.3-0.9-0.3-1.5s0.1-1.1,0.3-1.5s0.5-0.8,0.8-1s0.7-0.3,1.2-0.3
		c0.4,0,0.8,0.1,1.2,0.3c0.3,0.2,0.6,0.5,0.8,1c0.2,0.4,0.3,0.9,0.3,1.5s-0.1,1.1-0.3,1.5s-0.5,0.7-0.8,1c-0.3,0.2-0.7,0.3-1.2,0.3
		S9.7,462.2,9.4,462z M11.5,460.9c0.2-0.3,0.3-0.8,0.3-1.4s-0.1-1.1-0.3-1.4s-0.5-0.5-0.9-0.5s-0.7,0.2-0.9,0.5s-0.3,0.8-0.3,1.4
		s0.1,1.1,0.3,1.4s0.5,0.5,0.9,0.5C10.9,461.4,11.2,461.2,11.5,460.9z"/>
</g>
<g class="st0">
	<path class="st62" d="M7.8,368v0.7l-2.1,4.8H4.5l2.1-4.6H4.4v0.9H3.5V368H7.8L7.8,368z"/>
	<path class="st62" d="M9.3,373.2c-0.3-0.2-0.6-0.5-0.8-1c-0.2-0.4-0.3-0.9-0.3-1.5s0.1-1.1,0.3-1.5s0.5-0.7,0.8-1
		c0.3-0.2,0.7-0.3,1.2-0.3c0.4,0,0.8,0.1,1.2,0.3c0.3,0.2,0.6,0.5,0.8,1c0.2,0.4,0.3,0.9,0.3,1.5s-0.1,1.1-0.3,1.5s-0.5,0.7-0.8,1
		c-0.3,0.2-0.7,0.3-1.2,0.3C10.1,373.6,9.7,373.4,9.3,373.2z M11.4,372.2c0.2-0.3,0.3-0.8,0.3-1.4s-0.1-1.1-0.3-1.4
		s-0.5-0.5-0.9-0.5s-0.7,0.2-0.9,0.5s-0.3,0.8-0.3,1.4s0.1,1.1,0.3,1.4s0.5,0.5,0.9,0.5S11.2,372.5,11.4,372.2z"/>
</g>
<g class="st0">
	<path class="st62" d="M7.6,274.4c0.2,0.2,0.2,0.5,0.2,0.8s-0.1,0.6-0.3,0.9s-0.4,0.4-0.8,0.6s-0.7,0.2-1.2,0.2
		c-0.4,0-0.8-0.1-1.2-0.2c-0.3-0.1-0.6-0.3-0.8-0.6c-0.2-0.3-0.3-0.5-0.3-0.9c0-0.3,0.1-0.6,0.2-0.8c0.2-0.2,0.4-0.4,0.6-0.5
		c-0.2-0.1-0.4-0.3-0.5-0.5s-0.2-0.4-0.2-0.7c0-0.3,0.1-0.6,0.3-0.8c0.2-0.2,0.4-0.4,0.7-0.5s0.7-0.2,1.1-0.2s0.8,0.1,1.1,0.2
		s0.5,0.3,0.7,0.5s0.3,0.5,0.3,0.8s-0.1,0.5-0.2,0.7s-0.3,0.4-0.5,0.5C7.2,274,7.4,274.1,7.6,274.4z M6.5,275.8
		c0.2-0.2,0.3-0.4,0.3-0.6c0-0.3-0.1-0.5-0.3-0.6c-0.2-0.2-0.5-0.2-0.9-0.2s-0.7,0.1-0.9,0.2c-0.2,0.2-0.3,0.4-0.3,0.6
		c0,0.3,0.1,0.5,0.3,0.6c0.2,0.2,0.5,0.2,0.9,0.2C5.9,276,6.2,275.9,6.5,275.8z M4.8,272.2c-0.2,0.1-0.3,0.3-0.3,0.6
		c0,0.2,0.1,0.4,0.3,0.6c0.2,0.1,0.4,0.2,0.8,0.2c0.3,0,0.6-0.1,0.8-0.2s0.3-0.3,0.3-0.6c0-0.2-0.1-0.4-0.3-0.6
		C6.2,272.1,6,272,5.6,272S5,272,4.8,272.2z"/>
	<path class="st62" d="M9.6,276.5c-0.3-0.2-0.6-0.5-0.8-1c-0.2-0.4-0.3-0.9-0.3-1.5s0.1-1.1,0.3-1.5s0.5-0.7,0.8-1
		c0.3-0.2,0.7-0.3,1.2-0.3c0.4,0,0.8,0.1,1.2,0.3c0.3,0.2,0.6,0.5,0.8,1s0.3,0.9,0.3,1.5s-0.1,1.1-0.3,1.5s-0.5,0.7-0.8,1
		s-0.7,0.3-1.2,0.3S9.9,276.7,9.6,276.5z M11.7,275.4c0.2-0.3,0.3-0.8,0.3-1.4s-0.1-1.1-0.3-1.4s-0.5-0.5-0.9-0.5s-0.7,0.2-0.9,0.5
		s-0.3,0.8-0.3,1.4s0.1,1.1,0.3,1.4s0.5,0.5,0.9,0.5C11.1,275.9,11.5,275.8,11.7,275.4z"/>
</g>
<g class="st0">
	<path class="st62" d="M7.1,191.5c0.4,0.5,0.6,1.1,0.6,2c0,0.6-0.1,1.1-0.3,1.6c-0.2,0.4-0.5,0.8-0.9,1s-0.9,0.3-1.4,0.3
		c-0.3,0-0.5,0-0.8-0.1c-0.2-0.1-0.5-0.1-0.6-0.3l0.4-0.8c0.3,0.2,0.6,0.3,1,0.3c0.5,0,0.9-0.2,1.2-0.5s0.4-0.8,0.4-1.4l0,0
		c-0.2,0.2-0.4,0.3-0.6,0.4c-0.3,0.1-0.5,0.1-0.8,0.1c-0.4,0-0.7-0.1-1-0.2c-0.3-0.1-0.5-0.3-0.7-0.6s-0.2-0.6-0.2-0.9
		c0-0.4,0.1-0.7,0.3-0.9c0.2-0.3,0.4-0.5,0.7-0.6s0.6-0.2,1-0.2C6.1,190.7,6.7,191,7.1,191.5z M6.2,193.1c0.2-0.2,0.3-0.4,0.3-0.7
		s-0.1-0.5-0.3-0.7s-0.5-0.3-0.8-0.3s-0.6,0.1-0.8,0.3s-0.3,0.4-0.3,0.7s0.1,0.5,0.3,0.7s0.5,0.3,0.8,0.3
		C5.7,193.4,6,193.3,6.2,193.1z"/>
	<path class="st62" d="M9.5,196c-0.3-0.2-0.6-0.5-0.8-1c-0.2-0.4-0.3-0.9-0.3-1.5s0.1-1.1,0.3-1.5s0.5-0.7,0.8-1
		c0.3-0.2,0.7-0.3,1.2-0.3c0.4,0,0.8,0.1,1.2,0.3c0.3,0.2,0.6,0.5,0.8,1c0.2,0.4,0.3,0.9,0.3,1.5s-0.1,1.1-0.3,1.5s-0.5,0.7-0.8,1
		c-0.3,0.2-0.7,0.3-1.2,0.3C10.2,196.4,9.8,196.3,9.5,196z M11.6,195c0.2-0.3,0.3-0.8,0.3-1.4c0-0.6-0.1-1.1-0.3-1.4
		c-0.2-0.3-0.5-0.5-0.9-0.5s-0.7,0.2-0.9,0.5s-0.3,0.8-0.3,1.4c0,0.6,0.1,1.1,0.3,1.4c0.2,0.3,0.5,0.5,0.9,0.5
		C11,195.5,11.4,195.3,11.6,195z"/>
</g>
<g class="st0">
	<path class="st62" d="M3.7,93.8v5.5h-1v-4.6H1.5v-0.9H3.7z"/>
	<path class="st62" d="M5.9,99c-0.3-0.2-0.6-0.5-0.8-1c-0.2-0.4-0.3-0.9-0.3-1.5s0.1-1.1,0.3-1.5s0.5-0.7,0.8-1
		c0.3-0.2,0.7-0.3,1.2-0.3c0.4,0,0.8,0.1,1.2,0.3c0.3,0.2,0.6,0.5,0.8,1c0.2,0.4,0.3,0.9,0.3,1.5S9.3,97.6,9.1,98s-0.5,0.7-0.8,1
		c-0.3,0.2-0.7,0.3-1.2,0.3C6.6,99.4,6.2,99.3,5.9,99z M8,98c0.2-0.3,0.3-0.8,0.3-1.4S8.2,95.5,8,95.2s-0.5-0.5-0.9-0.5
		s-0.7,0.2-0.9,0.5S5.9,96,5.9,96.6S6,97.7,6.2,98s0.5,0.5,0.9,0.5S7.8,98.3,8,98z"/>
	<path class="st62" d="M11.2,99c-0.3-0.2-0.6-0.5-0.8-1c-0.2-0.4-0.3-0.9-0.3-1.5s0.1-1.1,0.3-1.5s0.5-0.7,0.8-1
		c0.3-0.2,0.7-0.3,1.2-0.3c0.4,0,0.8,0.1,1.2,0.3s0.6,0.5,0.8,1s0.2,1,0.2,1.5s-0.1,1.1-0.3,1.5s-0.5,0.7-0.8,1
		c-0.3,0.2-0.7,0.3-1.2,0.3C11.9,99.4,11.5,99.3,11.2,99z M13.3,98c0.2-0.3,0.3-0.8,0.3-1.4s-0.1-1.1-0.3-1.4s-0.5-0.5-0.9-0.5
		s-0.7,0.2-0.9,0.5s-0.3,0.8-0.3,1.4s0.1,1.1,0.3,1.4s0.5,0.5,0.9,0.5C12.7,98.5,13,98.3,13.3,98z"/>
</g>
<g class="st0">
	<path class="st63" d="M1.7,40.5h12.4c2.6,0,4.8-1.8,5.3-4.2c0.3-1.6-0.1-3.2-1.1-4.4c-0.9-1-2.1-1.7-3.4-1.9v-1.2
		c0-4.2-3.8-7.5-7.9-7c-3.5,0.4-6.2,3.5-6.2,7.3V30c-1.1,0.1-2.2,0.7-3,1.5c-1.2,1.2-1.7,2.9-1.5,4.6C-3.2,38.5-0.8,40.5,1.7,40.5z
		 M-1.2,32.5c0.7-0.7,1.7-1.1,2.7-1.1c0.4,0,0.7-0.3,0.7-0.7v-1.6c0-3.1,2.5-5.9,5.7-5.9c3.1,0,5.7,2.6,5.7,5.7v1.8
		c0,0.4,0.3,0.7,0.7,0.7c1.2,0,2.3,0.5,3,1.4c0.7,0.9,1,2.1,0.8,3.3c-0.4,1.8-2,3.1-4,3.1H1.7c-1.8,0-3.7-1.5-4-3.2
		C-2.5,34.6-2.1,33.4-1.2,32.5z"/>
</g>
<rect x="3.2" y="40.5" class="st64" width="9.5" height="5.3"/>
<g class="st65">
	<path class="st63" d="M7.1,40.7h0.7V44h2v0.6H7.1V40.7z"/>
</g>
<g>
	<g>
		<g>
			<g>
				<g>
					<g>
						<g>
							<defs>
								<path id="SVGID_00000155136595678295559590000012058039081297954212_" d="M42.5,672.5c-0.4,3.8-10.5,2.2-18.3,2.2l0,0
									c-7.6,0.4-18.3,0.9-18.3-3.7L6.2,54.2c1.6-5.5,12.1-3.8,18.1-3.8l0,0c7.2,0,16.5-1.7,18.2,4.1v611.1V672.5z"/>
							</defs>
							<clipPath id="SVGID_00000168113561696481911670000013492934059139018885_">
								<use xlink:href="#SVGID_00000155136595678295559590000012058039081297954212_"  style="overflow:visible;"/>
							</clipPath>
							<g style="clip-path:url(#SVGID_00000168113561696481911670000013492934059139018885_);">
								<rect x="-8.7" y="646" class="st67" width="71" height="43.4"/>
								<rect x="-10.2" y="50.3" class="st68" width="74.3" height="19.5"/>
								<rect x="-8.7" y="69.8" class="st69" width="73.5" height="15.6"/>
								<rect x="-8.7" y="85.4" class="st70" width="73.5" height="15.6"/>
								<rect x="-8.7" y="101" class="st71" width="73.5" height="15.6"/>
								<rect x="-8.7" y="116.6" class="st72" width="73.5" height="15.6"/>
								<rect x="-8.7" y="132.1" class="st73" width="73.5" height="15.6"/>
								<rect x="-8.7" y="147.7" class="st74" width="73.5" height="15.6"/>
								<rect x="-8.7" y="163.3" class="st75" width="73.5" height="15.6"/>
								<rect x="-8.7" y="178.9" class="st76" width="73.5" height="15.6"/>
								<rect x="-8.7" y="194.5" class="st77" width="73.5" height="15.6"/>
								<rect x="-8.7" y="210" class="st78" width="73.5" height="15.6"/>
								<rect x="-8.7" y="225.6" class="st79" width="73.5" height="15.6"/>
								<rect x="-8.7" y="241.2" class="st80" width="73.5" height="15.6"/>
								<rect x="-8.7" y="256.8" class="st81" width="73.5" height="15.6"/>
								<rect x="-8.7" y="272.3" class="st82" width="73.5" height="15.6"/>
								<rect x="-8.7" y="287.9" class="st83" width="73.5" height="15.6"/>
								<rect x="-8.7" y="303.5" class="st84" width="73.5" height="15.6"/>
								<rect x="-8.7" y="319.1" class="st85" width="73.5" height="15.6"/>
								<rect x="-8.7" y="334.6" class="st86" width="73.5" height="15.6"/>
								<rect x="-8.7" y="350.2" class="st87" width="73.5" height="15.6"/>
								<rect x="-8.7" y="365.9" class="st88" width="73.5" height="15.6"/>
								<rect x="-8.7" y="381.4" class="st89" width="73.5" height="15.6"/>
								<rect x="-8.7" y="397" class="st90" width="73.5" height="15.6"/>
								<rect x="-8.7" y="412.5" class="st91" width="73.5" height="15.6"/>
								<rect x="-8.7" y="428.1" class="st92" width="73.5" height="15.7"/>
								<rect x="-8.7" y="443.7" class="st93" width="73.5" height="15.6"/>
								<rect x="-8.7" y="459.3" class="st94" width="73.5" height="15.6"/>
								<rect x="-8.7" y="474.8" class="st95" width="73.5" height="15.6"/>
								<rect x="-8.7" y="490.4" class="st96" width="73.5" height="15.6"/>
								<rect x="-8.7" y="505.9" class="st97" width="73.5" height="15.6"/>
								<rect x="-8.7" y="521.5" class="st98" width="73.5" height="15.6"/>
								<rect x="-8.7" y="537" class="st99" width="73.5" height="15.6"/>
								<rect x="-8.7" y="552.6" class="st100" width="73.5" height="15.6"/>
								<rect x="-8.7" y="568.2" class="st101" width="73.5" height="15.6"/>
								<rect x="-8.7" y="583.8" class="st102" width="73.5" height="15.6"/>
								<rect x="-8.7" y="599.4" class="st103" width="73.5" height="15.6"/>
								<rect x="-8.7" y="614.9" class="st104" width="73.5" height="15.6"/>
								<rect x="-8.7" y="630.5" class="st105" width="73.5" height="15.6"/>
							</g>
						</g>
					</g>
				</g>
			</g>
		</g>
	</g>
</g>
<circle class="st106" cx="24.1" cy="26.6" r="19.8"/>
<g id="Layer_1_00000094618233620819150710000009544971755126034336_">
	<g>
		<path class="st107" d="M24.1,10.4c-3.6,0-6.6,2.8-6.6,6.3V26c-2.5,2.1-3.8,5.2-3.4,8.4c0.6,4.4,4.3,7.8,8.8,8.3
			c5.8,0.5,11.1-3.8,11.1-9.4c0-2.8-1.2-5.3-3.4-7.1v-9.2C30.7,13.3,27.7,10.4,24.1,10.4z M32.2,33.1c0,4.7-4.4,8.3-9.2,7.9
			c-3.6-0.4-6.7-3.2-7.1-6.9c-0.3-2.8,0.8-5.4,3.1-7.1c0.1-0.1,0.3-0.4,0.3-0.6v-9.6c0-2.6,2.2-4.7,4.8-4.7s4.8,2.1,4.8,4.7v9.6
			c0,0.3,0.1,0.4,0.3,0.6C31.2,28.4,32.2,30.6,32.2,33.1z"/>
	</g>
	<g>
		<path class="st107" d="M27.2,28.9V19c0-1.7-1.4-3-3.1-3c-1.7,0-3.1,1.4-3.1,3v10c-1.8,1.3-2.6,3.4-2.1,5.4c0.9,3.5,5.6,5,8.7,2.8
			c1.3-1,2.1-2.6,2.1-4C29.5,31.4,28.6,29.8,27.2,28.9z M26.4,35.8c-2.1,1.6-5.3,0.5-5.8-1.8c-0.4-1.6,0.3-3.1,1.8-3.9
			c0.3-0.1,0.4-0.4,0.4-0.6V19.1c0-0.6,0.6-1.4,1.4-1.4s1.4,0.5,1.4,1.4v10.4c0,0.3,0.1,0.5,0.4,0.6c1.2,0.6,1.9,1.8,1.9,3.1
			C27.7,34.1,27.3,35,26.4,35.8z"/>
	</g>
</g>
<rect x="11.1" y="632" class="st108" width="15.4" height="11.8"/>
<g class="st109">
	<path class="st107" d="M22.5,672.6c-0.7,0-1.3-0.1-1.9-0.3c-0.6-0.2-1.1-0.6-1.5-1c-0.4-0.4-0.8-0.9-1-1.5
		c-0.2-0.6-0.4-1.2-0.4-1.9s0.1-1.3,0.4-1.9s0.6-1.1,1-1.5c0.4-0.4,1-0.7,1.5-1c0.6-0.2,1.2-0.3,1.9-0.3c0.7,0,1.4,0.1,2,0.4
		c0.6,0.3,1.1,0.6,1.6,1.1l-1.1,1c-0.3-0.4-0.7-0.6-1.1-0.8c-0.4-0.2-0.8-0.3-1.3-0.3s-0.9,0.1-1.3,0.2c-0.4,0.2-0.7,0.4-1,0.7
		c-0.3,0.3-0.5,0.6-0.7,1c-0.2,0.4-0.2,0.8-0.2,1.3s0.1,0.9,0.2,1.3c0.2,0.4,0.4,0.7,0.7,1c0.3,0.3,0.6,0.5,1,0.7s0.8,0.2,1.3,0.2
		s0.9-0.1,1.3-0.3c0.4-0.2,0.8-0.4,1.1-0.8l1.1,1c-0.4,0.5-0.9,0.9-1.6,1.1S23.2,672.6,22.5,672.6z"/>
	<path class="st107" d="M29.3,667.6c-0.4,0-0.8-0.1-1.1-0.3c-0.3-0.2-0.6-0.5-0.8-0.8c-0.2-0.3-0.3-0.7-0.3-1.1
		c0-0.4,0.1-0.8,0.3-1.1c0.2-0.3,0.5-0.6,0.8-0.8c0.3-0.2,0.7-0.3,1.1-0.3c0.4,0,0.8,0.1,1.1,0.3c0.3,0.2,0.6,0.5,0.8,0.8
		c0.2,0.3,0.3,0.7,0.3,1.1c0,0.4-0.1,0.8-0.3,1.1s-0.5,0.6-0.8,0.8C30.1,667.5,29.8,667.6,29.3,667.6z M29.3,666.8
		c0.3,0,0.5-0.1,0.7-0.2c0.2-0.1,0.3-0.3,0.5-0.5s0.2-0.4,0.2-0.7c0-0.3-0.1-0.5-0.2-0.7c-0.1-0.2-0.3-0.4-0.5-0.5
		c-0.2-0.1-0.4-0.2-0.7-0.2c-0.2,0-0.5,0.1-0.7,0.2s-0.4,0.3-0.5,0.5s-0.2,0.4-0.2,0.7c0,0.3,0.1,0.5,0.2,0.7s0.3,0.4,0.5,0.5
		S29.1,666.8,29.3,666.8z"/>
</g>
<path class="st110" d="M36.6,675.8H12.1c-3.4,0-6.2-2.8-6.2-6.2V56.1c0-3.4,2.8-6.2,6.2-6.2h24.5c3.4,0,6.2,2.8,6.2,6.2v613.5
	C42.8,673,40,675.8,36.6,675.8z"/>
<g>
	<path class="st107" d="M14.1,630.3v-0.8h3.6v0.8H14.1z"/>
	<path class="st107" d="M24.5,633.2h-5.1v-0.8l2.3-2.4c0.4-0.4,0.7-0.7,0.9-0.9c0.2-0.2,0.4-0.5,0.5-0.8c0.1-0.3,0.2-0.6,0.2-0.9
		c0-0.5-0.1-0.9-0.4-1.1c-0.3-0.2-0.7-0.3-1.3-0.3c-0.5,0-1.1,0.1-1.7,0.2l-0.3,0.1l-0.1-0.8c0.8-0.2,1.5-0.3,2.4-0.3
		c0.8,0,1.4,0.2,1.8,0.5c0.4,0.3,0.6,0.9,0.6,1.6c0,0.6-0.1,1-0.4,1.5s-0.7,0.9-1.3,1.5l-2.1,2.1h4V633.2z"/>
	<path class="st107" d="M26.5,625.7c0.5-0.3,1.2-0.5,2.1-0.5s1.6,0.2,2.1,0.5c0.5,0.3,0.8,0.9,0.8,1.5c0,0.5-0.1,0.9-0.3,1.1
		c-0.2,0.3-0.5,0.5-1,0.7c0.5,0.2,0.8,0.5,1.1,0.8s0.4,0.7,0.4,1.2c0,1.5-1,2.3-3,2.3c-2,0-3-0.7-3-2.1c0-0.6,0.1-1,0.3-1.3
		c0.2-0.3,0.6-0.6,1-0.8c-0.4-0.2-0.7-0.5-0.9-0.7s-0.3-0.7-0.3-1.1C25.8,626.5,26,626,26.5,625.7z M26.7,631c0,1,0.7,1.5,2,1.5
		s2-0.5,2-1.5c0-0.4-0.1-0.7-0.4-0.9c-0.2-0.2-0.6-0.4-1-0.5H28c-0.4,0.1-0.8,0.3-1,0.5C26.8,630.3,26.7,630.6,26.7,631z
		 M30.5,627.3c0-0.9-0.6-1.3-1.9-1.3c-1.2,0-1.9,0.4-1.9,1.3c0,0.4,0.1,0.6,0.3,0.9c0.2,0.2,0.5,0.4,0.9,0.5h1.3
		c0.4-0.1,0.8-0.3,1-0.5C30.4,627.9,30.5,627.7,30.5,627.3z"/>
</g>
<line class="st111" x1="6.1" y1="614" x2="42.5" y2="614"/>
<g>
	<path class="st107" d="M15,599.2v-0.8h3.6v0.8H15z"/>
	<path class="st107" d="M25.3,602.1h-5.1v-0.8l2.3-2.4c0.4-0.4,0.7-0.7,0.9-0.9c0.2-0.2,0.4-0.5,0.5-0.8c0.1-0.3,0.2-0.6,0.2-0.9
		c0-0.5-0.1-0.9-0.4-1.1c-0.3-0.2-0.7-0.3-1.3-0.3c-0.5,0-1.1,0.1-1.7,0.2l-0.3,0.1l-0.1-0.8c0.8-0.2,1.5-0.3,2.4-0.3
		c0.8,0,1.4,0.2,1.8,0.5c0.4,0.3,0.6,0.9,0.6,1.6c0,0.6-0.1,1-0.4,1.5s-0.7,0.9-1.3,1.5l-2.1,2.1h4V602.1z"/>
	<path class="st107" d="M30.4,602.1v-1.5h-3.8v-0.7l2.3-5.7h1l-2.3,5.6h2.9v-2.5h0.9v2.5h1v0.8h-1v1.5H30.4z"/>
</g>
<line class="st111" x1="6.9" y1="583.3" x2="42.5" y2="583.3"/>
<line class="st111" x1="5.9" y1="552.1" x2="43.4" y2="552.1"/>
<line class="st111" x1="6.1" y1="521" x2="42.5" y2="521"/>
<line class="st111" x1="6.1" y1="489.9" x2="42.5" y2="489.9"/>
<line class="st111" x1="5.9" y1="458.8" x2="42.5" y2="458.8"/>
<line class="st111" x1="5.9" y1="427.8" x2="42.8" y2="427.8"/>
<line class="st111" x1="5.9" y1="396.5" x2="43.4" y2="396.5"/>
<line class="st111" x1="5.2" y1="380.9" x2="18.1" y2="380.9"/>
<line class="st111" x1="5.9" y1="365.4" x2="42.5" y2="365.4"/>
<line class="st111" x1="5.9" y1="334.2" x2="42.5" y2="334.2"/>
<line class="st111" x1="5.9" y1="303.1" x2="43.4" y2="303.1"/>
<line class="st111" x1="5.2" y1="271.8" x2="42.8" y2="271.8"/>
<line class="st111" x1="5.9" y1="240.7" x2="42.8" y2="240.7"/>
<line class="st111" x1="5.9" y1="209.5" x2="42.8" y2="209.5"/>
<line class="st111" x1="6.7" y1="178.4" x2="42.8" y2="178.4"/>
<line class="st111" x1="5.9" y1="147.2" x2="42.8" y2="147.2"/>
<line class="st111" x1="5.1" y1="116.1" x2="43.6" y2="116.1"/>
<line class="st111" x1="6.7" y1="84.9" x2="43.6" y2="84.9"/>
<g>
	<path class="st107" d="M15,567.5v-0.8h3.6v0.8H15z"/>
	<path class="st107" d="M25.3,570.4h-5.1v-0.8l2.3-2.4c0.4-0.4,0.7-0.7,0.9-0.9c0.2-0.2,0.4-0.5,0.5-0.8c0.1-0.3,0.2-0.6,0.2-0.9
		c0-0.5-0.1-0.9-0.4-1.1c-0.3-0.2-0.7-0.3-1.3-0.3c-0.5,0-1.1,0.1-1.7,0.2l-0.3,0.1l-0.1-0.8c0.8-0.2,1.5-0.3,2.4-0.3
		c0.8,0,1.4,0.2,1.8,0.5c0.4,0.3,0.6,0.9,0.6,1.6c0,0.6-0.1,1-0.4,1.5s-0.7,0.9-1.3,1.5l-2.1,2.1h4V570.4z"/>
	<path class="st107" d="M29.5,562.3c0.7,0,1.2,0.1,1.6,0.4c0.9,0.5,1.3,1.8,1.3,3.8c0,1.4-0.2,2.5-0.7,3.1c-0.5,0.6-1.2,0.9-2.2,0.9
		s-1.7-0.3-2.2-0.9c-0.5-0.6-0.7-1.6-0.7-3.1c0-1.5,0.2-2.6,0.7-3.2C27.8,562.6,28.5,562.3,29.5,562.3z M29.5,563.1
		c-0.5,0-0.8,0.1-1.1,0.3c-0.6,0.4-0.9,1.4-0.9,3.1c0,1.2,0.2,2,0.5,2.5c0.3,0.5,0.8,0.7,1.5,0.7s1.2-0.2,1.5-0.7
		c0.3-0.5,0.5-1.3,0.5-2.5s-0.2-2.1-0.5-2.6S30.2,563.1,29.5,563.1z"/>
</g>
<g>
	<path class="st107" d="M15.4,536.8V536H19v0.8H15.4z"/>
	<path class="st107" d="M24.5,531.8v7.9h-0.9v-6.9l-2,1.3l-0.4-0.7l2.5-1.7H24.5z"/>
	<path class="st107" d="M32.3,532.6c-0.7-0.1-1.4-0.1-2.1-0.1c-0.7,0-1.2,0.2-1.6,0.7c-0.4,0.5-0.6,1.1-0.6,2l0.3-0.1
		c0.2-0.1,0.5-0.1,0.8-0.2s0.6-0.1,0.9-0.1c1.8,0,2.7,0.8,2.7,2.5c0,0.8-0.2,1.5-0.7,1.9c-0.5,0.5-1.2,0.7-2,0.7
		c-1.9,0-2.8-1.4-2.8-4.1c0-1.4,0.3-2.4,0.8-3.1c0.5-0.7,1.3-1,2.3-1c0.6,0,1.3,0,1.8,0.1l0.3,0.1L32.3,532.6z M30,535.6
		c-0.3,0-0.6,0-0.9,0.1c-0.3,0.1-0.6,0.1-0.8,0.2l-0.3,0.1c0,0.9,0.2,1.6,0.5,2.2c0.3,0.5,0.8,0.8,1.4,0.8c0.6,0,1.1-0.2,1.4-0.5
		c0.3-0.3,0.5-0.7,0.5-1.3c0-0.6-0.2-1-0.5-1.3C31,535.7,30.6,535.6,30,535.6z"/>
</g>
<g>
	<path class="st107" d="M15,505.7v-0.8h3.6v0.8H15z"/>
	<path class="st107" d="M24.1,500.7v7.9h-0.9v-6.9l-2,1.3l-0.4-0.7l2.5-1.7H24.1z"/>
	<path class="st107" d="M32.1,508.6H27v-0.8l2.3-2.4c0.4-0.4,0.7-0.7,0.9-0.9c0.2-0.2,0.3-0.5,0.5-0.8c0.1-0.3,0.2-0.6,0.2-0.9
		c0-0.5-0.1-0.9-0.4-1.1c-0.3-0.2-0.7-0.3-1.3-0.3c-0.5,0-1.1,0.1-1.7,0.2l-0.3,0.1l-0.1-0.8c0.8-0.2,1.5-0.3,2.4-0.3
		c0.8,0,1.4,0.2,1.8,0.5c0.4,0.3,0.6,0.9,0.6,1.6c0,0.6-0.1,1-0.4,1.5s-0.7,0.9-1.3,1.5l-2.1,2.1h4V508.6z"/>
</g>
<g>
	<path class="st107" d="M18.9,474.6v-0.8h3.6v0.8H18.9z"/>
	<path class="st107" d="M24.6,469.9c0.5-0.3,1.2-0.5,2.1-0.5s1.6,0.2,2.1,0.5c0.5,0.3,0.8,0.9,0.8,1.5c0,0.5-0.1,0.9-0.3,1.1
		c-0.2,0.3-0.5,0.5-1,0.7c0.5,0.2,0.8,0.5,1.1,0.8s0.4,0.7,0.4,1.2c0,1.5-1,2.3-3,2.3c-2,0-3-0.7-3-2.1c0-0.6,0.1-1,0.3-1.3
		c0.2-0.3,0.6-0.6,1-0.8c-0.4-0.2-0.7-0.5-0.9-0.7s-0.3-0.7-0.3-1.1C23.9,470.8,24.1,470.3,24.6,469.9z M24.7,475.3
		c0,1,0.7,1.5,2,1.5s2-0.5,2-1.5c0-0.4-0.1-0.7-0.4-0.9c-0.2-0.2-0.6-0.4-1-0.5H26c-0.4,0.1-0.8,0.3-1,0.5
		C24.8,474.5,24.7,474.8,24.7,475.3z M28.6,471.6c0-0.9-0.6-1.3-1.9-1.3c-1.2,0-1.9,0.4-1.9,1.3c0,0.4,0.1,0.6,0.3,0.9
		c0.2,0.2,0.5,0.4,0.9,0.5h1.3c0.4-0.1,0.8-0.3,1-0.5C28.4,472.2,28.6,471.9,28.6,471.6z"/>
</g>
<g>
	<path class="st107" d="M18.9,443.8V443h3.6v0.8H18.9z"/>
	<path class="st107" d="M27.7,446.7v-1.5h-3.8v-0.7l2.3-5.7h1l-2.3,5.6h2.9v-2.5h0.9v2.5h1v0.8h-1v1.5H27.7z"/>
</g>
<g>
	<path class="st107" d="M24.1,407.7c0.7,0,1.2,0.1,1.6,0.4c0.9,0.5,1.3,1.8,1.3,3.8c0,1.4-0.2,2.5-0.7,3.1c-0.5,0.6-1.2,0.9-2.2,0.9
		s-1.7-0.3-2.2-0.9c-0.5-0.6-0.7-1.6-0.7-3.1c0-1.5,0.2-2.6,0.7-3.2C22.4,408,23.1,407.7,24.1,407.7z M24.1,408.5
		c-0.5,0-0.8,0.1-1.1,0.3c-0.6,0.4-0.9,1.4-0.9,3.1c0,1.2,0.2,2,0.5,2.5c0.3,0.5,0.8,0.7,1.5,0.7s1.2-0.2,1.5-0.7
		c0.3-0.5,0.5-1.3,0.5-2.5s-0.2-2.1-0.5-2.6S24.8,408.5,24.1,408.5z"/>
</g>
<g>
	<path class="st112" d="M24.8,384.5v-1.5H21v-0.7l2.3-5.7h1l-2.3,5.6h2.9v-2.5h0.9v2.5h1v0.8h-1v1.5H24.8z"/>
</g>
<g>
	<path class="st112" d="M21.9,345.8c0.5-0.3,1.2-0.5,2.1-0.5s1.6,0.2,2.1,0.5c0.5,0.3,0.8,0.9,0.8,1.5c0,0.5-0.1,0.9-0.3,1.1
		c-0.2,0.3-0.5,0.5-1,0.7c0.5,0.2,0.8,0.5,1.1,0.8s0.4,0.7,0.4,1.2c0,1.5-1,2.3-3,2.3c-2,0-3-0.7-3-2.1c0-0.6,0.1-1,0.3-1.3
		c0.2-0.3,0.6-0.6,1-0.8c-0.4-0.2-0.7-0.5-0.9-0.7s-0.3-0.7-0.3-1.1C21.1,346.6,21.4,346.1,21.9,345.8z M22,351.1c0,1,0.7,1.5,2,1.5
		s2-0.5,2-1.5c0-0.4-0.1-0.7-0.4-0.9c-0.2-0.2-0.6-0.4-1-0.5h-1.3c-0.4,0.1-0.8,0.3-1,0.5C22.1,350.4,22,350.7,22,351.1z
		 M25.8,347.4c0-0.9-0.6-1.3-1.9-1.3c-1.2,0-1.9,0.4-1.9,1.3c0,0.4,0.1,0.6,0.3,0.9c0.2,0.2,0.5,0.4,0.9,0.5h1.3
		c0.4-0.1,0.8-0.3,1-0.5C25.7,348.1,25.8,347.8,25.8,347.4z"/>
</g>
<g>
	<path class="st112" d="M21.9,313.5v7.9H21v-6.9l-2,1.3l-0.4-0.7l2.5-1.7H21.9z"/>
	<path class="st112" d="M29.9,321.4h-5.1v-0.8l2.3-2.4c0.4-0.4,0.7-0.7,0.9-0.9c0.2-0.2,0.3-0.5,0.5-0.8c0.1-0.3,0.2-0.6,0.2-0.9
		c0-0.5-0.1-0.9-0.4-1.1c-0.3-0.2-0.7-0.3-1.3-0.3c-0.5,0-1.1,0.1-1.7,0.2l-0.3,0.1l-0.1-0.8c0.8-0.2,1.5-0.3,2.4-0.3
		c0.8,0,1.4,0.2,1.8,0.5c0.4,0.3,0.6,0.9,0.6,1.6c0,0.6-0.1,1-0.4,1.5s-0.7,0.9-1.3,1.5l-2.1,2.1h4V321.4z"/>
</g>
<g>
	<path class="st112" d="M21.8,281.9v7.9h-0.9v-6.9l-2,1.3l-0.4-0.7l2.5-1.7H21.8z"/>
	<path class="st112" d="M29.6,282.7c-0.7-0.1-1.4-0.1-2.1-0.1s-1.2,0.2-1.6,0.7c-0.4,0.5-0.6,1.1-0.6,2l0.3-0.1
		c0.2-0.1,0.5-0.1,0.8-0.2c0.3-0.1,0.6-0.1,0.9-0.1c1.8,0,2.7,0.8,2.7,2.5c0,0.8-0.2,1.5-0.7,1.9s-1.2,0.7-2,0.7
		c-1.9,0-2.8-1.4-2.8-4.1c0-1.4,0.3-2.4,0.8-3.1c0.5-0.7,1.3-1,2.3-1c0.6,0,1.3,0,1.8,0.1l0.3,0.1L29.6,282.7z M27.3,285.7
		c-0.3,0-0.6,0-0.9,0.1s-0.6,0.1-0.8,0.2l-0.3,0.1c0,0.9,0.2,1.6,0.5,2.2s0.8,0.8,1.4,0.8s1.1-0.2,1.4-0.5c0.3-0.3,0.5-0.7,0.5-1.3
		c0-0.6-0.2-1-0.5-1.3C28.3,285.8,27.8,285.7,27.3,285.7z"/>
</g>
<g>
	<path class="st112" d="M23.2,258.7h-5.1v-0.8l2.3-2.4c0.4-0.4,0.7-0.7,0.9-0.9c0.2-0.2,0.4-0.5,0.5-0.8c0.1-0.3,0.2-0.6,0.2-0.9
		c0-0.5-0.1-0.9-0.4-1.1c-0.3-0.2-0.7-0.3-1.3-0.3c-0.5,0-1.1,0.1-1.7,0.2l-0.3,0.1l-0.1-0.8c0.8-0.2,1.5-0.3,2.4-0.3
		c0.8,0,1.4,0.2,1.8,0.5c0.4,0.3,0.6,0.9,0.6,1.6c0,0.6-0.1,1-0.4,1.5s-0.7,0.9-1.3,1.5l-2.1,2.1h4V258.7z"/>
	<path class="st112" d="M27.4,250.6c0.7,0,1.2,0.1,1.6,0.4c0.9,0.5,1.3,1.8,1.3,3.8c0,1.4-0.2,2.5-0.7,3.1c-0.5,0.6-1.2,0.9-2.2,0.9
		s-1.7-0.3-2.2-0.9c-0.5-0.6-0.7-1.6-0.7-3.1c0-1.5,0.2-2.6,0.7-3.2C25.7,250.9,26.4,250.6,27.4,250.6z M27.4,251.4
		c-0.5,0-0.8,0.1-1.1,0.3c-0.6,0.4-0.9,1.4-0.9,3.1c0,1.2,0.2,2,0.5,2.5c0.3,0.5,0.8,0.7,1.5,0.7s1.2-0.2,1.5-0.7
		c0.3-0.5,0.5-1.3,0.5-2.5s-0.2-2.1-0.5-2.6S28.1,251.4,27.4,251.4z"/>
</g>
<g>
	<path class="st107" d="M23.3,227.6h-5.1v-0.8l2.3-2.4c0.4-0.4,0.7-0.7,0.9-0.9c0.2-0.2,0.4-0.5,0.5-0.8c0.1-0.3,0.2-0.6,0.2-0.9
		c0-0.5-0.1-0.9-0.4-1.1c-0.3-0.2-0.7-0.3-1.3-0.3c-0.5,0-1.1,0.1-1.7,0.2l-0.3,0.1l-0.1-0.8c0.8-0.2,1.5-0.3,2.4-0.3
		c0.8,0,1.4,0.2,1.8,0.5c0.4,0.3,0.6,0.9,0.6,1.6c0,0.6-0.1,1-0.4,1.5s-0.7,0.9-1.3,1.5l-2.1,2.1h4V227.6z"/>
	<path class="st107" d="M28.4,227.6V226h-3.8v-0.7l2.3-5.7h1l-2.3,5.6h2.9v-2.5h0.9v2.5h1v0.8h-1v1.5H28.4z"/>
</g>
<g>
	<path class="st107" d="M23.2,197.4h-5.1v-0.8l2.3-2.4c0.4-0.4,0.7-0.7,0.9-0.9c0.2-0.2,0.4-0.5,0.5-0.8c0.1-0.3,0.2-0.6,0.2-0.9
		c0-0.5-0.1-0.9-0.4-1.1c-0.3-0.2-0.7-0.3-1.3-0.3c-0.5,0-1.1,0.1-1.7,0.2l-0.3,0.1l-0.1-0.8c0.8-0.2,1.5-0.3,2.4-0.3
		c0.8,0,1.4,0.2,1.8,0.5c0.4,0.3,0.6,0.9,0.6,1.6c0,0.6-0.1,1-0.4,1.5s-0.7,0.9-1.3,1.5l-2.1,2.1h4V197.4z"/>
	<path class="st107" d="M25.3,189.9c0.5-0.3,1.2-0.5,2.1-0.5s1.6,0.2,2.1,0.5c0.5,0.3,0.8,0.9,0.8,1.5c0,0.5-0.1,0.9-0.3,1.1
		c-0.2,0.3-0.5,0.5-1,0.7c0.5,0.2,0.8,0.5,1.1,0.8c0.2,0.3,0.4,0.7,0.4,1.2c0,1.5-1,2.3-3,2.3c-2,0-3-0.7-3-2.1c0-0.6,0.1-1,0.3-1.3
		c0.2-0.3,0.6-0.6,1-0.8c-0.4-0.2-0.7-0.5-0.9-0.7c-0.2-0.3-0.3-0.7-0.3-1.1C24.6,190.7,24.8,190.2,25.3,189.9z M25.4,195.2
		c0,1,0.7,1.5,2,1.5c1.3,0,2-0.5,2-1.5c0-0.4-0.1-0.7-0.4-0.9c-0.2-0.2-0.6-0.4-1-0.5h-1.3c-0.4,0.1-0.8,0.3-1,0.5
		C25.5,194.5,25.4,194.8,25.4,195.2z M29.3,191.5c0-0.9-0.6-1.3-1.9-1.3s-1.9,0.4-1.9,1.3c0,0.4,0.1,0.6,0.3,0.9
		c0.2,0.2,0.5,0.4,0.9,0.5H28c0.4-0.1,0.8-0.3,1-0.5C29.2,192.2,29.3,191.9,29.3,191.5z"/>
</g>
<g>
	<path class="st107" d="M18.3,158.5c0.8-0.2,1.6-0.3,2.4-0.3c0.9,0,1.5,0.2,1.9,0.5s0.6,0.9,0.6,1.6c0,0.4-0.1,0.6-0.2,0.8
		c-0.1,0.2-0.2,0.3-0.2,0.4c-0.1,0.1-0.1,0.2-0.2,0.3c-0.2,0.1-0.3,0.2-0.4,0.3l-0.1,0.1c0.5,0.2,0.8,0.4,1,0.6s0.3,0.7,0.3,1.3
		c0,0.8-0.2,1.4-0.6,1.8c-0.4,0.4-1.1,0.6-1.9,0.6c-0.7,0-1.4-0.1-2.2-0.2l-0.4-0.1l0.1-0.8c0.9,0.2,1.7,0.3,2.4,0.3
		c1.1,0,1.7-0.5,1.7-1.5c0-1-0.5-1.4-1.6-1.5h-1.6v-0.8h1.6c0.3,0,0.7-0.1,1-0.4c0.3-0.3,0.5-0.6,0.5-1.1c0-0.4-0.1-0.8-0.4-1
		s-0.7-0.3-1.2-0.3c-0.6,0-1.3,0.1-1.9,0.2l-0.3,0.1L18.3,158.5z"/>
	<path class="st107" d="M30.1,166.3H25v-0.8l2.3-2.4c0.4-0.4,0.7-0.7,0.9-0.9c0.2-0.2,0.3-0.5,0.5-0.8c0.1-0.3,0.2-0.6,0.2-0.9
		c0-0.5-0.1-0.9-0.4-1.1c-0.3-0.2-0.7-0.3-1.3-0.3c-0.5,0-1.1,0.1-1.7,0.2l-0.3,0.1l-0.1-0.8c0.8-0.2,1.5-0.3,2.4-0.3
		c0.8,0,1.4,0.2,1.8,0.5c0.4,0.3,0.6,0.9,0.6,1.6c0,0.6-0.1,1-0.4,1.5s-0.7,0.9-1.3,1.5l-2.1,2.1h4V166.3z"/>
</g>
<g>
	<path class="st107" d="M18.2,126.8c0.8-0.2,1.6-0.3,2.4-0.3c0.9,0,1.5,0.2,1.9,0.5s0.6,0.9,0.6,1.6c0,0.4-0.1,0.6-0.2,0.8
		c-0.1,0.2-0.2,0.3-0.2,0.4c-0.1,0.1-0.1,0.2-0.2,0.3c-0.2,0.1-0.3,0.2-0.4,0.3l-0.1,0.1c0.5,0.2,0.8,0.4,1,0.6s0.3,0.7,0.3,1.3
		c0,0.8-0.2,1.4-0.6,1.8c-0.4,0.4-1.1,0.6-1.9,0.6c-0.7,0-1.4-0.1-2.2-0.2l-0.4-0.1l0.1-0.8c0.9,0.2,1.7,0.3,2.4,0.3
		c1.1,0,1.7-0.5,1.7-1.5c0-1-0.5-1.4-1.6-1.5h-1.6V130h1.6c0.3,0,0.7-0.1,1-0.4c0.3-0.3,0.5-0.6,0.5-1.1c0-0.4-0.1-0.8-0.4-1
		s-0.7-0.3-1.2-0.3c-0.6,0-1.3,0.1-1.9,0.2l-0.3,0.1L18.2,126.8z"/>
	<path class="st107" d="M29.8,127.4c-0.7-0.1-1.4-0.1-2.1-0.1c-0.7,0-1.2,0.2-1.6,0.7c-0.4,0.5-0.6,1.1-0.6,2l0.3-0.1
		c0.2-0.1,0.5-0.1,0.8-0.2s0.6-0.1,0.9-0.1c1.8,0,2.7,0.8,2.7,2.5c0,0.8-0.2,1.5-0.7,1.9c-0.5,0.5-1.2,0.7-2,0.7
		c-1.9,0-2.8-1.4-2.8-4.1c0-1.4,0.3-2.4,0.8-3.1c0.5-0.7,1.3-1,2.3-1c0.6,0,1.3,0,1.8,0.1l0.3,0.1L29.8,127.4z M27.5,130.4
		c-0.3,0-0.6,0-0.9,0.1c-0.3,0.1-0.6,0.1-0.8,0.2l-0.3,0.1c0,0.9,0.2,1.6,0.5,2.2c0.3,0.5,0.8,0.8,1.4,0.8c0.6,0,1.1-0.2,1.4-0.5
		c0.3-0.3,0.5-0.7,0.5-1.3c0-0.6-0.2-1-0.5-1.3C28.5,130.5,28.1,130.4,27.5,130.4z"/>
</g>
<g>
	<path class="st106" d="M21.9,104.3v-1.5H18V102l2.3-5.7h1l-2.3,5.6h2.9v-2.5h0.9v2.5h1v0.8h-1v1.5H21.9z"/>
	<path class="st106" d="M27.6,96.2c0.7,0,1.2,0.1,1.6,0.4c0.9,0.5,1.3,1.8,1.3,3.8c0,1.4-0.2,2.5-0.7,3.1c-0.5,0.6-1.2,0.9-2.2,0.9
		s-1.7-0.3-2.2-0.9c-0.5-0.6-0.7-1.6-0.7-3.1c0-1.5,0.2-2.6,0.7-3.2C25.9,96.6,26.6,96.2,27.6,96.2z M27.6,97.1
		c-0.5,0-0.8,0.1-1.1,0.3c-0.6,0.4-0.9,1.4-0.9,3.1c0,1.2,0.2,2,0.5,2.5c0.3,0.5,0.8,0.7,1.5,0.7s1.2-0.2,1.5-0.7
		c0.3-0.5,0.5-1.3,0.5-2.5s-0.2-2.1-0.5-2.6S28.3,97.1,27.6,97.1z"/>
</g>
<g>
	<path class="st106" d="M21.8,72.7v-1.5H18v-0.7l2.3-5.7h1l-2.3,5.6h2.9v-2.5h0.9v2.5h1v0.8h-1v1.5H21.8z"/>
	<path class="st106" d="M28.5,72.7v-1.5h-3.8v-0.7l2.3-5.7h1l-2.3,5.6h2.9v-2.5h0.9v2.5h1v0.8h-1v1.5H28.5z"/>
</g>
<line class="st111" x1="29.3" y1="380.9" x2="42.1" y2="380.9"/>
<line class="st111" x1="6.7" y1="412" x2="18.2" y2="412"/>
<line class="st111" x1="42.5" y1="412" x2="29.2" y2="412"/>
<line class="st111" x1="6" y1="443.2" x2="17.9" y2="443.2"/>
<line class="st111" x1="42.3" y1="443.2" x2="30.9" y2="443.2"/>
<line class="st111" x1="6.1" y1="474.3" x2="17.9" y2="474.3"/>
<line class="st111" x1="42.3" y1="474.3" x2="30.9" y2="474.3"/>
<line class="st111" x1="42.1" y1="505.5" x2="33.2" y2="505.5"/>
<line class="st111" x1="6.5" y1="505.5" x2="14.2" y2="505.4"/>
<line class="st111" x1="6.5" y1="567.7" x2="12.3" y2="567.8"/>
<line class="st111" x1="41.9" y1="568" x2="33.2" y2="568"/>
<line class="st111" x1="6.9" y1="598.9" x2="13.3" y2="598.9"/>
<line class="st111" x1="42.5" y1="598.9" x2="34" y2="598.9"/>
<line class="st111" x1="5.9" y1="629.8" x2="14.1" y2="629.8"/>
<line class="st111" x1="42.1" y1="629.8" x2="34" y2="629.8"/>
<line class="st111" x1="6.1" y1="536.6" x2="14.2" y2="536.6"/>
<line class="st111" x1="42.5" y1="536.6" x2="33.6" y2="536.6"/>
<line class="st111" x1="6.7" y1="349.8" x2="18.3" y2="349.8"/>
<line class="st111" x1="29.2" y1="349.6" x2="42.1" y2="349.6"/>
<line class="st111" x1="6.6" y1="318.6" x2="18.1" y2="318.6"/>
<line class="st111" x1="30.3" y1="318.6" x2="42.1" y2="318.6"/>
<line class="st111" x1="5.5" y1="287.4" x2="18.2" y2="287.4"/>
<line class="st111" x1="42.2" y1="287.4" x2="31" y2="287.4"/>
<line class="st111" x1="6.7" y1="256.3" x2="17.5" y2="256.3"/>
<line class="st111" x1="42.5" y1="256.3" x2="31.6" y2="256.3"/>
<line class="st111" x1="6.7" y1="225.2" x2="17.7" y2="225.2"/>
<line class="st111" x1="42.7" y1="225.1" x2="31.6" y2="225.1"/>
<line class="st111" x1="6.1" y1="193.8" x2="18.2" y2="193.8"/>
<line class="st111" x1="42" y1="194" x2="31" y2="194"/>
<line class="st111" x1="18" y1="162.7" x2="5.5" y2="162.7"/>
<line class="st111" x1="42" y1="162.9" x2="31" y2="162.9"/>
<line class="st111" x1="6.1" y1="131.7" x2="18.1" y2="131.7"/>
<line class="st111" x1="42.8" y1="131.7" x2="31.6" y2="131.7"/>
<line class="st111" x1="6.5" y1="100.5" x2="17.5" y2="100.6"/>
<line class="st111" x1="42.8" y1="100.6" x2="31.4" y2="100.6"/>
<line class="st111" x1="6.7" y1="69.3" x2="17.4" y2="69.3"/>
<line class="st111" x1="31.1" y1="69.3" x2="42.8" y2="69.3"/>
<line class="st111" x1="6.9" y1="646" x2="43.4" y2="646"/>
</svg>
