<?xml version="1.0" encoding="utf-8"?>
<!-- Generator: Adobe Illustrator 28.0.0, SVG Export Plug-In . SVG Version: 6.00 Build 0)  -->
<svg version="1.1" id="Livello_1" xmlns="http://www.w3.org/2000/svg" xmlns:xlink="http://www.w3.org/1999/xlink" x="0px" y="0px"
	  width="50px" height="677px" viewBox="0 0 50.6 677.2" style="enable-background:new 0 0 50.6 677.2;" xml:space="preserve">
<style type="text/css">
	.st0{display:none;}
	.st1{display:inline;}
	.st2{clip-path:url(#SVGID_00000006687338701466440690000014898726648429782176_);}
	.st3{fill:#F59826;}
	.st4{fill:#FDCC22;}
	.st5{fill:#6655AD;}
	.st6{fill:#975EAD;}
	.st7{fill:#C66AAF;}
	.st8{fill:#AF48A1;}
	.st9{fill:#981595;}
	.st10{fill:#660666;}
	.st11{fill:#640E0E;}
	.st12{fill:#991E1F;}
	.st13{fill:#CB2527;}
	.st14{fill:#EC2426;}
	.st15{fill:#F06626;}
	.st16{fill:#FCFC1E;}
	.st17{fill:#CBE436;}
	.st18{fill:#7ECB47;}
	.st19{fill:#0EB04E;}
	.st20{fill:#37BD7C;}
	.st21{fill:#58C3BA;}
	.st22{fill:#6FC9DC;}
	.st23{fill:#33BCF3;}
	.st24{fill:#498DD2;}
	.st25{fill:#4469BB;}
	.st26{fill:#3F57B0;}
	.st27{display:none;fill:none;stroke:#3C3430;stroke-width:3;stroke-miterlimit:10;}
	.st28{clip-path:url(#SVGID_00000109739384163464630980000004803922649230343808_);fill:#FFFAFA;}
	.st29{clip-path:url(#SVGID_00000092421093702421984280000009339449481227242923_);fill:#FBD5D6;}
	.st30{clip-path:url(#SVGID_00000009550957397759091210000017892145104868538550_);fill:#F9C1C2;}
	.st31{clip-path:url(#SVGID_00000117639442461144352420000010937074510092706697_);fill:#FDEBEB;}
	.st32{clip-path:url(#SVGID_00000123405368329391123970000009282429340235733640_);fill:#F6ABAD;}
	.st33{clip-path:url(#SVGID_00000110438469505795683070000006619514029852588963_);fill:#F49799;}
	.st34{clip-path:url(#SVGID_00000130634109128670276450000003209368561859987349_);fill:#C8E8F0;}
	.st35{clip-path:url(#SVGID_00000173162545644665781190000018047347440547502496_);fill:#D0EBF7;}
	.st36{clip-path:url(#SVGID_00000090976105853837110420000004786127110709574796_);fill:#4898DA;}
	.st37{clip-path:url(#SVGID_00000144310877529786471980000009734334355604219025_);fill:#A3A5D7;}
	.st38{clip-path:url(#SVGID_00000093145592381350064660000006708174147012243647_);fill:#B988C1;}
	.st39{clip-path:url(#SVGID_00000168829154719007685670000002894942465191420318_);fill:#D7A2CD;}
	.st40{clip-path:url(#SVGID_00000170994686091277721830000011606594250599886754_);fill:#E8BEDB;}
	.st41{clip-path:url(#SVGID_00000003827395123811891770000006992205939091388289_);fill:#E67D9B;}
	.st42{clip-path:url(#SVGID_00000108988061580627174330000007024138734989480851_);fill:#DB4C4D;}
	.st43{clip-path:url(#SVGID_00000168089024803179849370000005014787237036386718_);fill:#EF5A5C;}
	.st44{clip-path:url(#SVGID_00000007409731109169422110000004930933339211804083_);fill:#F7A25C;}
	.st45{clip-path:url(#SVGID_00000142139448570899632390000011693788893809505177_);fill:#FDD58F;}
	.st46{clip-path:url(#SVGID_00000134213286912512790720000013328502280026006693_);fill:#FFE173;}
	.st47{clip-path:url(#SVGID_00000013892175804213105890000003097029127158947456_);fill:#FEFE82;}
	.st48{clip-path:url(#SVGID_00000151534305938154552300000017319385287990857628_);fill:#FFFFC7;}
	.st49{clip-path:url(#SVGID_00000179631939403189837160000017159356747319112625_);fill:#F3F3A1;}
	.st50{clip-path:url(#SVGID_00000152982566865308185880000006157831639177268905_);fill:#D3ECA4;}
	.st51{clip-path:url(#SVGID_00000179607876128610145160000005259042610798874808_);fill:#C3E6D8;}
	.st52{clip-path:url(#SVGID_00000152957093857001818610000000946364900551937194_);fill:#C8E8F0;}
	.st53{clip-path:url(#SVGID_00000044895931297503718370000004197711850894150803_);fill:#D0EBF7;}
	.st54{clip-path:url(#SVGID_00000163057296576670196810000010628104248338003603_);fill:#EC2426;}
	.st55{clip-path:url(#SVGID_00000137132865754746831840000013809018432470950567_);fill:#FCFC1E;}
	.st56{clip-path:url(#SVGID_00000170969185747979240840000012831931576641940620_);fill:#0B7F3F;}
	.st57{clip-path:url(#SVGID_00000183238781810964317590000008041791653974792886_);fill:#F7A426;}
	.st58{clip-path:url(#SVGID_00000099652630156456132440000012570983981460223671_);fill:#6FC9DC;}
	.st59{clip-path:url(#SVGID_00000175320561998126406500000008212310130686744753_);fill:#3F57B0;}
	.st60{display:none;fill:#3A332F;}
	.st61{display:none;fill:none;stroke:#3C3430;stroke-width:2.9317;stroke-miterlimit:9.7722;}
	.st62{display:inline;fill:#3C3530;}
	.st63{display:inline;fill:#FFFFFF;}
	.st64{display:none;fill:none;}
	.st65{display:none;enable-background:new    ;}
	.st66{clip-path:url(#SVGID_00000005259966312238948510000016680487783102810267_);}
	.st67{opacity:0.88;fill:#64007F;enable-background:new    ;}
	.st68{opacity:0.88;fill:#FFDCDC;enable-background:new    ;}
	.st69{opacity:0.88;fill:#FFB4B4;enable-background:new    ;}
	.st70{opacity:0.88;fill:#F0A0A0;enable-background:new    ;}
	.st71{opacity:0.88;fill:#B46464;enable-background:new    ;}
	.st72{opacity:0.88;fill:#640000;enable-background:new    ;}
	.st73{opacity:0.88;fill:#7C0000;enable-background:new    ;}
	.st74{opacity:0.88;fill:#AF0F14;enable-background:new    ;}
	.st75{opacity:0.88;fill:#C41A0A;enable-background:new    ;}
	.st76{opacity:0.88;fill:#E83709;enable-background:new    ;}
	.st77{opacity:0.88;fill:#F46D0B;enable-background:new    ;}
	.st78{opacity:0.88;fill:#F4880B;enable-background:new    ;}
	.st79{opacity:0.88;fill:#F4BD0B;enable-background:new    ;}
	.st80{opacity:0.88;fill:#F4D90B;enable-background:new    ;}
	.st81{opacity:0.88;fill:#F3FB01;enable-background:new    ;}
	.st82{opacity:0.88;fill:#CEF003;enable-background:new    ;}
	.st83{opacity:0.88;fill:#9CE106;enable-background:new    ;}
	.st84{opacity:0.88;fill:#52CA0B;enable-background:new    ;}
	.st85{opacity:0.88;fill:#21BB0E;enable-background:new    ;}
	.st86{opacity:0.88;fill:#07A127;enable-background:new    ;}
	.st87{opacity:0.88;fill:#62AF88;enable-background:new    ;}
	.st88{opacity:0.88;fill:#87D3AB;enable-background:new    ;}
	.st89{opacity:0.88;fill:#9FEEC8;enable-background:new    ;}
	.st90{opacity:0.88;fill:#BBFFE2;enable-background:new    ;}
	.st91{opacity:0.88;fill:#5BB4FF;enable-background:new    ;}
	.st92{opacity:0.88;fill:#259AFF;enable-background:new    ;}
	.st93{opacity:0.88;fill:#0082EF;enable-background:new    ;}
	.st94{opacity:0.88;fill:#0062AF;enable-background:new    ;}
	.st95{opacity:0.88;fill:#00528F;enable-background:new    ;}
	.st96{opacity:0.88;fill:#00467F;enable-background:new    ;}
	.st97{opacity:0.88;fill:#003C7F;enable-background:new    ;}
	.st98{opacity:0.88;fill:#00287F;enable-background:new    ;}
	.st99{opacity:0.88;fill:#3E007F;enable-background:new    ;}
	.st100{opacity:0.88;fill:#57007F;enable-background:new    ;}
	.st101{opacity:0.88;fill:#F627EB;enable-background:new    ;}
	.st102{opacity:0.88;fill:#D41DD1;enable-background:new    ;}
	.st103{opacity:0.88;fill:#B414B9;enable-background:new    ;}
	.st104{opacity:0.88;fill:#870898;enable-background:new    ;}
	.st105{opacity:0.88;fill:#78048D;enable-background:new    ;}
	.st106{fill:#39322E;}
	.st107{fill:#FFFFFF;}
	.st108{fill:none;}
	.st109{enable-background:new    ;}
	.st110{fill:none;stroke:#3C3430;stroke-width:2;stroke-miterlimit:9.7722;}
	.st111{fill:none;stroke:#3C3430;stroke-miterlimit:9.7722;}
	.st112{fill:#3C3530;}
</style>
<g class="st0">
	<g class="st1">
		<g>
			<g>
				<g>
					<g>
						<defs>
							<path id="SVGID_1_" d="M30.6,642.8c-0.3,3.7-6.4,8.1-11.7,8.1l0,0c-5.2,0.4-12.3-3.6-12.3-8.1V58.7c1.1-5.3,7.4-8.5,11.5-8.5
								l0,0c4.9,0,11.2,3.1,12.4,8.7L30.6,642.8L30.6,642.8z"/>
						</defs>
						<clipPath id="SVGID_00000003091391970857134040000002690946297155605632_">
							<use xlink:href="#SVGID_1_"  style="overflow:visible;"/>
						</clipPath>
						<g style="clip-path:url(#SVGID_00000003091391970857134040000002690946297155605632_);">
							<rect x="-1.1" y="51.6" class="st3" width="47.9" height="15"/>
							<rect x="-5.6" y="65.9" class="st4" width="47.4" height="14.2"/>
							<rect x="-5.6" y="80.1" class="st5" width="47.4" height="14.2"/>
							<rect x="-5.6" y="94.4" class="st6" width="47.4" height="14.2"/>
							<rect x="-5.6" y="108.7" class="st7" width="47.4" height="14.2"/>
							<rect x="-5.6" y="122.9" class="st8" width="47.4" height="14.2"/>
							<rect x="-5.6" y="137.1" class="st9" width="47.4" height="14.2"/>
							<rect x="-5.6" y="151.3" class="st10" width="47.4" height="14.2"/>
							<rect x="-5.6" y="165.5" class="st11" width="47.4" height="14.2"/>
							<rect x="-5.6" y="179.7" class="st12" width="47.4" height="14.2"/>
							<rect x="-5.6" y="194" class="st13" width="47.4" height="14.2"/>
							<rect x="-5.6" y="208.2" class="st14" width="47.4" height="14.2"/>
							<rect x="-5.6" y="222.4" class="st15" width="47.4" height="14.2"/>
							<rect x="-5.6" y="236.6" class="st3" width="47.4" height="14.2"/>
							<rect x="-5.6" y="250.8" class="st4" width="47.4" height="14.2"/>
							<rect x="-5.6" y="265" class="st16" width="47.4" height="14.2"/>
							<rect x="-5.6" y="279.3" class="st17" width="47.4" height="14.2"/>
							<rect x="-5.6" y="293.5" class="st18" width="47.4" height="14.2"/>
							<rect x="-5.6" y="307.7" class="st19" width="47.4" height="14.2"/>
							<rect x="-5.6" y="322" class="st20" width="47.4" height="14.2"/>
							<rect x="-5.6" y="336.2" class="st21" width="47.4" height="14.2"/>
							<rect x="-5.6" y="350.4" class="st22" width="47.4" height="14.2"/>
							<rect x="-5.6" y="364.7" class="st23" width="47.4" height="14.2"/>
							<rect x="-5.6" y="378.9" class="st24" width="47.4" height="14.2"/>
							<rect x="-5.6" y="393.1" class="st25" width="47.4" height="14.2"/>
							<rect x="-5.6" y="407.3" class="st26" width="47.4" height="14.2"/>
							<rect x="-5.6" y="421.5" class="st5" width="47.4" height="14.2"/>
							<rect x="-5.6" y="435.7" class="st6" width="47.4" height="14.2"/>
							<rect x="-5.6" y="450" class="st7" width="47.4" height="14.2"/>
							<rect x="-5.6" y="464.2" class="st8" width="47.4" height="14.2"/>
							<rect x="-5.6" y="478.4" class="st9" width="47.4" height="14.2"/>
							<rect x="-5.6" y="492.6" class="st10" width="47.4" height="14.2"/>
							<rect x="-5.6" y="506.8" class="st11" width="47.4" height="14.2"/>
							<rect x="-5.6" y="521" class="st12" width="47.4" height="14.2"/>
							<rect x="-5.6" y="535.3" class="st13" width="47.4" height="14.2"/>
							<rect x="-5.6" y="549.6" class="st14" width="47.4" height="14.2"/>
							<rect x="-5.6" y="563.8" class="st15" width="47.4" height="14.2"/>
							<rect x="-5.6" y="578" class="st3" width="47.4" height="14.2"/>
							<rect x="-5.6" y="592.2" class="st4" width="47.4" height="60.2"/>
						</g>
					</g>
				</g>
			</g>
		</g>
	</g>
</g>
<path class="st27" d="M30.6,642.7c-0.3,3.7-6.4,8.1-11.7,8.1l0,0c-5.2,0.4-12.3-3.6-12.3-8.1V58.6c1.1-5.3,7.4-8.5,11.5-8.5l0,0
	c4.9,0,11.2,3.1,12.4,8.7L30.6,642.7L30.6,642.7z"/>
<g class="st0">
	<g class="st1">
		<g>
			<g>
				<g>
					<g>
						<g>
							<g>
								<defs>
									<path id="SVGID_00000049187158046010753190000005945375905745809293_" d="M18.6,585.9c-0.3,3.3-5.5,7.3-10.1,7.3l0,0
										C4,593.6-2.1,590-2.1,585.9v-526c1-4.8,6.3-7.6,10-7.6l0,0c4.2,0,9.7,2.9,10.8,7.8L18.6,585.9L18.6,585.9z"/>
								</defs>
								<clipPath id="SVGID_00000083778027000717233940000005635558484682107011_">
									<use xlink:href="#SVGID_00000049187158046010753190000005945375905745809293_"  style="overflow:visible;"/>
								</clipPath>
								
									<rect x="-7.2" y="502.4" style="clip-path:url(#SVGID_00000083778027000717233940000005635558484682107011_);fill:#FFFAFA;" width="30.9" height="96.8"/>
							</g>
						</g>
					</g>
				</g>
			</g>
		</g>
		<g>
			<g>
				<g>
					<g>
						<g>
							<g>
								<defs>
									<path id="SVGID_00000075852660346488408380000003117068807589512126_" d="M18.6,585.9c-0.3,3.3-5.5,7.3-10.1,7.3l0,0
										C4,593.6-2.1,590-2.1,585.9v-526c1-4.8,6.3-7.6,10-7.6l0,0c4.2,0,9.7,2.9,10.8,7.8L18.6,585.9L18.6,585.9z"/>
								</defs>
								<clipPath id="SVGID_00000147909685835801682460000009113140209891665587_">
									<use xlink:href="#SVGID_00000075852660346488408380000003117068807589512126_"  style="overflow:visible;"/>
								</clipPath>
								
									<rect x="-6.9" y="326.4" style="clip-path:url(#SVGID_00000147909685835801682460000009113140209891665587_);fill:#FBD5D6;" width="30.9" height="88"/>
							</g>
						</g>
					</g>
				</g>
			</g>
		</g>
		<g>
			<g>
				<g>
					<g>
						<g>
							<g>
								<defs>
									<path id="SVGID_00000036956267875883343680000016872998064829533348_" d="M18.6,585.9c-0.3,3.3-5.5,7.3-10.1,7.3l0,0
										C4,593.6-2.1,590-2.1,585.9v-526c1-4.8,6.3-7.6,10-7.6l0,0c4.2,0,9.7,2.9,10.8,7.8L18.6,585.9L18.6,585.9z"/>
								</defs>
								<clipPath id="SVGID_00000148632007492895471840000011287517369016433290_">
									<use xlink:href="#SVGID_00000036956267875883343680000016872998064829533348_"  style="overflow:visible;"/>
								</clipPath>
								
									<rect x="-6.9" y="238.4" style="clip-path:url(#SVGID_00000148632007492895471840000011287517369016433290_);fill:#F9C1C2;" width="30.9" height="88"/>
							</g>
						</g>
					</g>
				</g>
			</g>
		</g>
		<g>
			<g>
				<g>
					<g>
						<g>
							<g>
								<defs>
									<path id="SVGID_00000020395629350075116970000000516325247696025753_" d="M18.6,585.9c-0.3,3.3-5.5,7.3-10.1,7.3l0,0
										C4,593.6-2.1,590-2.1,585.9v-526c1-4.8,6.3-7.6,10-7.6l0,0c4.2,0,9.7,2.9,10.8,7.8L18.6,585.9L18.6,585.9z"/>
								</defs>
								<clipPath id="SVGID_00000092431080420601464990000001453060538849035663_">
									<use xlink:href="#SVGID_00000020395629350075116970000000516325247696025753_"  style="overflow:visible;"/>
								</clipPath>
								
									<rect x="-7.2" y="414.4" style="clip-path:url(#SVGID_00000092431080420601464990000001453060538849035663_);fill:#FDEBEB;" width="30.9" height="88"/>
							</g>
						</g>
					</g>
				</g>
			</g>
		</g>
		<g>
			<g>
				<g>
					<g>
						<g>
							<g>
								<defs>
									<path id="SVGID_00000032610167301798019300000002988011044988982955_" d="M18.6,585.9c-0.3,3.3-5.5,7.3-10.1,7.3l0,0
										C4,593.6-2.1,590-2.1,585.9v-526c1-4.8,6.3-7.6,10-7.6l0,0c4.2,0,9.7,2.9,10.8,7.8L18.6,585.9L18.6,585.9z"/>
								</defs>
								<clipPath id="SVGID_00000046340127308198995810000002385789433040994731_">
									<use xlink:href="#SVGID_00000032610167301798019300000002988011044988982955_"  style="overflow:visible;"/>
								</clipPath>
								
									<rect x="-6.9" y="150.4" style="clip-path:url(#SVGID_00000046340127308198995810000002385789433040994731_);fill:#F6ABAD;" width="30.9" height="88"/>
							</g>
						</g>
					</g>
				</g>
			</g>
		</g>
		<g>
			<g>
				<g>
					<g>
						<g>
							<g>
								<defs>
									<path id="SVGID_00000102542487871515475550000001038576014135256712_" d="M18.6,585.9c-0.3,3.3-5.5,7.3-10.1,7.3l0,0
										C4,593.6-2.1,590-2.1,585.9v-526c1-4.8,6.3-7.6,10-7.6l0,0c4.2,0,9.7,2.9,10.8,7.8L18.6,585.9L18.6,585.9z"/>
								</defs>
								<clipPath id="SVGID_00000065068720351278607540000007406010077686549401_">
									<use xlink:href="#SVGID_00000102542487871515475550000001038576014135256712_"  style="overflow:visible;"/>
								</clipPath>
								
									<rect x="-7.2" y="53.6" style="clip-path:url(#SVGID_00000065068720351278607540000007406010077686549401_);fill:#F49799;" width="30.9" height="96.8"/>
							</g>
						</g>
					</g>
				</g>
			</g>
		</g>
	</g>
</g>
<g class="st0">
	<g class="st1">
		<g>
			<g>
				<g>
					<g>
						<g>
							<defs>
								<path id="SVGID_00000019637408345619573910000018107761908374795672_" d="M18.6,585.9c0,3.6-5.8,7.9-10.4,7.9H7.6
									c-4.2,0-9.7-3.8-9.7-7.9v-526c1-4.8,6.3-7.6,10-7.6l0,0c4.2,0,9.7,2.9,10.7,7.8V585.9L18.6,585.9z"/>
							</defs>
							<clipPath id="SVGID_00000145026250868891760200000009853540293196492427_">
								<use xlink:href="#SVGID_00000019637408345619573910000018107761908374795672_"  style="overflow:visible;"/>
							</clipPath>
							
								<rect x="-12.9" y="52.3" style="clip-path:url(#SVGID_00000145026250868891760200000009853540293196492427_);fill:#C8E8F0;" width="42.3" height="26.6"/>
						</g>
					</g>
				</g>
			</g>
		</g>
	</g>
	<g class="st1">
		<g>
			<g>
				<g>
					<g>
						<g>
							<defs>
								<path id="SVGID_00000038405083882575645650000009716584056535827102_" d="M18.6,585.9c0,3.6-5.8,7.9-10.4,7.9H7.6
									c-4.2,0-9.7-3.8-9.7-7.9v-526c1-4.8,6.3-7.6,10-7.6l0,0c4.2,0,9.7,2.9,10.7,7.8V585.9L18.6,585.9z"/>
							</defs>
							<clipPath id="SVGID_00000034085400301902296290000016044226062751830680_">
								<use xlink:href="#SVGID_00000038405083882575645650000009716584056535827102_"  style="overflow:visible;"/>
							</clipPath>
							
								<rect x="-12.9" y="78.9" style="clip-path:url(#SVGID_00000034085400301902296290000016044226062751830680_);fill:#D0EBF7;" width="42.3" height="26.6"/>
						</g>
					</g>
				</g>
			</g>
		</g>
	</g>
	<g class="st1">
		<g>
			<g>
				<g>
					<g>
						<g>
							<defs>
								<path id="SVGID_00000052796913782451626580000014226500303938152331_" d="M18.6,585.9c0,3.6-5.8,7.9-10.4,7.9H7.6
									c-4.2,0-9.7-3.8-9.7-7.9v-526c1-4.8,6.3-7.6,10-7.6l0,0c4.2,0,9.7,2.9,10.7,7.8V585.9L18.6,585.9z"/>
							</defs>
							<clipPath id="SVGID_00000107583568339920095610000005261011884550736803_">
								<use xlink:href="#SVGID_00000052796913782451626580000014226500303938152331_"  style="overflow:visible;"/>
							</clipPath>
							
								<rect x="-12.9" y="105" style="clip-path:url(#SVGID_00000107583568339920095610000005261011884550736803_);fill:#4898DA;" width="42.3" height="26.6"/>
						</g>
					</g>
				</g>
			</g>
		</g>
	</g>
	<g class="st1">
		<g>
			<g>
				<g>
					<g>
						<g>
							<defs>
								<path id="SVGID_00000121273223182152424910000012898033548840525756_" d="M18.6,585.9c0,3.6-5.8,7.9-10.4,7.9H7.6
									c-4.2,0-9.7-3.8-9.7-7.9v-526c1-4.8,6.3-7.6,10-7.6l0,0c4.2,0,9.7,2.9,10.7,7.8V585.9L18.6,585.9z"/>
							</defs>
							<clipPath id="SVGID_00000079470672318291774100000011885163506916923045_">
								<use xlink:href="#SVGID_00000121273223182152424910000012898033548840525756_"  style="overflow:visible;"/>
							</clipPath>
							
								<rect x="-12.9" y="131.6" style="clip-path:url(#SVGID_00000079470672318291774100000011885163506916923045_);fill:#A3A5D7;" width="42.3" height="26.6"/>
						</g>
					</g>
				</g>
			</g>
		</g>
	</g>
	<g class="st1">
		<g>
			<g>
				<g>
					<g>
						<g>
							<defs>
								<path id="SVGID_00000160913222668087403300000014848706917387189665_" d="M18.6,585.9c0,3.6-5.8,7.9-10.4,7.9H7.6
									c-4.2,0-9.7-3.8-9.7-7.9v-526c1-4.8,6.3-7.6,10-7.6l0,0c4.2,0,9.7,2.9,10.7,7.8V585.9L18.6,585.9z"/>
							</defs>
							<clipPath id="SVGID_00000011740423013313349560000014990118630660380833_">
								<use xlink:href="#SVGID_00000160913222668087403300000014848706917387189665_"  style="overflow:visible;"/>
							</clipPath>
							
								<rect x="-12.9" y="158.2" style="clip-path:url(#SVGID_00000011740423013313349560000014990118630660380833_);fill:#B988C1;" width="42.3" height="26.6"/>
						</g>
					</g>
				</g>
			</g>
		</g>
	</g>
	<g class="st1">
		<g>
			<g>
				<g>
					<g>
						<g>
							<defs>
								<path id="SVGID_00000103946235821433658330000003132395777348408459_" d="M18.6,585.9c0,3.6-5.8,7.9-10.4,7.9H7.6
									c-4.2,0-9.7-3.8-9.7-7.9v-526c1-4.8,6.3-7.6,10-7.6l0,0c4.2,0,9.7,2.9,10.7,7.8V585.9L18.6,585.9z"/>
							</defs>
							<clipPath id="SVGID_00000125584461642137499700000008226874311653853599_">
								<use xlink:href="#SVGID_00000103946235821433658330000003132395777348408459_"  style="overflow:visible;"/>
							</clipPath>
							
								<rect x="-12.9" y="184.9" style="clip-path:url(#SVGID_00000125584461642137499700000008226874311653853599_);fill:#D7A2CD;" width="42.3" height="26.6"/>
						</g>
					</g>
				</g>
			</g>
		</g>
	</g>
	<g class="st1">
		<g>
			<g>
				<g>
					<g>
						<g>
							<defs>
								<path id="SVGID_00000061436836766486468380000011859125457260519053_" d="M18.6,585.9c0,3.6-5.8,7.9-10.4,7.9H7.6
									c-4.2,0-9.7-3.8-9.7-7.9v-526c1-4.8,6.3-7.6,10-7.6l0,0c4.2,0,9.7,2.9,10.7,7.8V585.9L18.6,585.9z"/>
							</defs>
							<clipPath id="SVGID_00000055681174075892273110000009881916207236797108_">
								<use xlink:href="#SVGID_00000061436836766486468380000011859125457260519053_"  style="overflow:visible;"/>
							</clipPath>
							
								<rect x="-12.9" y="211.1" style="clip-path:url(#SVGID_00000055681174075892273110000009881916207236797108_);fill:#E8BEDB;" width="42.3" height="26.6"/>
						</g>
					</g>
				</g>
			</g>
		</g>
	</g>
	<g class="st1">
		<g>
			<g>
				<g>
					<g>
						<g>
							<defs>
								<path id="SVGID_00000168830802799143809080000010982236538835996558_" d="M18.6,585.9c0,3.6-5.8,7.9-10.4,7.9H7.6
									c-4.2,0-9.7-3.8-9.7-7.9v-526c1-4.8,6.3-7.6,10-7.6l0,0c4.2,0,9.7,2.9,10.7,7.8V585.9L18.6,585.9z"/>
							</defs>
							<clipPath id="SVGID_00000149359689070011797850000010829333809342291382_">
								<use xlink:href="#SVGID_00000168830802799143809080000010982236538835996558_"  style="overflow:visible;"/>
							</clipPath>
							
								<rect x="-12.9" y="237.8" style="clip-path:url(#SVGID_00000149359689070011797850000010829333809342291382_);fill:#E67D9B;" width="42.3" height="26.6"/>
						</g>
					</g>
				</g>
			</g>
		</g>
	</g>
	<g class="st1">
		<g>
			<g>
				<g>
					<g>
						<g>
							<defs>
								<path id="SVGID_00000036224180300021775340000002986634826610549150_" d="M18.6,585.9c0,3.6-5.8,7.9-10.4,7.9H7.6
									c-4.2,0-9.7-3.8-9.7-7.9v-526c1-4.8,6.3-7.6,10-7.6l0,0c4.2,0,9.7,2.9,10.7,7.8V585.9L18.6,585.9z"/>
							</defs>
							<clipPath id="SVGID_00000050633893781960499060000015360203195156521400_">
								<use xlink:href="#SVGID_00000036224180300021775340000002986634826610549150_"  style="overflow:visible;"/>
							</clipPath>
							
								<rect x="-12.9" y="264.4" style="clip-path:url(#SVGID_00000050633893781960499060000015360203195156521400_);fill:#DB4C4D;" width="42.3" height="26.6"/>
						</g>
					</g>
				</g>
			</g>
		</g>
	</g>
	<g class="st1">
		<g>
			<g>
				<g>
					<g>
						<g>
							<defs>
								<path id="SVGID_00000128469396045840007670000013646887480274625177_" d="M18.6,585.9c0,3.6-5.8,7.9-10.4,7.9H7.6
									c-4.2,0-9.7-3.8-9.7-7.9v-526c1-4.8,6.3-7.6,10-7.6l0,0c4.2,0,9.7,2.9,10.7,7.8V585.9L18.6,585.9z"/>
							</defs>
							<clipPath id="SVGID_00000176014001132318789680000017089402338376913795_">
								<use xlink:href="#SVGID_00000128469396045840007670000013646887480274625177_"  style="overflow:visible;"/>
							</clipPath>
							
								<rect x="-12.9" y="291" style="clip-path:url(#SVGID_00000176014001132318789680000017089402338376913795_);fill:#EF5A5C;" width="42.3" height="26.6"/>
						</g>
					</g>
				</g>
			</g>
		</g>
	</g>
	<g class="st1">
		<g>
			<g>
				<g>
					<g>
						<g>
							<defs>
								<path id="SVGID_00000058553167102908081860000011802607511040198016_" d="M18.6,585.9c0,3.6-5.8,7.9-10.4,7.9H7.6
									c-4.2,0-9.7-3.8-9.7-7.9v-526c1-4.8,6.3-7.6,10-7.6l0,0c4.2,0,9.7,2.9,10.7,7.8V585.9L18.6,585.9z"/>
							</defs>
							<clipPath id="SVGID_00000104675428821286257360000008365577128447176092_">
								<use xlink:href="#SVGID_00000058553167102908081860000011802607511040198016_"  style="overflow:visible;"/>
							</clipPath>
							
								<rect x="-12.9" y="317.3" style="clip-path:url(#SVGID_00000104675428821286257360000008365577128447176092_);fill:#F7A25C;" width="42.3" height="26.6"/>
						</g>
					</g>
				</g>
			</g>
		</g>
	</g>
	<g class="st1">
		<g>
			<g>
				<g>
					<g>
						<g>
							<defs>
								<path id="SVGID_00000024722440318852019120000016821034272444048260_" d="M18.6,585.9c0,3.6-5.8,7.9-10.4,7.9H7.6
									c-4.2,0-9.7-3.8-9.7-7.9v-526c1-4.8,6.3-7.6,10-7.6l0,0c4.2,0,9.7,2.9,10.7,7.8V585.9L18.6,585.9z"/>
							</defs>
							<clipPath id="SVGID_00000011749815144837008250000004892758974713270195_">
								<use xlink:href="#SVGID_00000024722440318852019120000016821034272444048260_"  style="overflow:visible;"/>
							</clipPath>
							
								<rect x="-12.9" y="343.9" style="clip-path:url(#SVGID_00000011749815144837008250000004892758974713270195_);fill:#FDD58F;" width="42.3" height="26.6"/>
						</g>
					</g>
				</g>
			</g>
		</g>
	</g>
	<g class="st1">
		<g>
			<g>
				<g>
					<g>
						<g>
							<defs>
								<path id="SVGID_00000049201157623918586840000004233092613806063514_" d="M18.6,585.9c0,3.6-5.8,7.9-10.4,7.9H7.6
									c-4.2,0-9.7-3.8-9.7-7.9v-526c1-4.8,6.3-7.6,10-7.6l0,0c4.2,0,9.7,2.9,10.7,7.8V585.9L18.6,585.9z"/>
							</defs>
							<clipPath id="SVGID_00000097493576393773280400000006626064026835204516_">
								<use xlink:href="#SVGID_00000049201157623918586840000004233092613806063514_"  style="overflow:visible;"/>
							</clipPath>
							
								<rect x="-12.9" y="370.5" style="clip-path:url(#SVGID_00000097493576393773280400000006626064026835204516_);fill:#FFE173;" width="42.3" height="26.6"/>
						</g>
					</g>
				</g>
			</g>
		</g>
	</g>
	<g class="st1">
		<g>
			<g>
				<g>
					<g>
						<g>
							<defs>
								<path id="SVGID_00000070828932903788855730000001536230928642286738_" d="M18.6,585.9c0,3.6-5.8,7.9-10.4,7.9H7.6
									c-4.2,0-9.7-3.8-9.7-7.9v-526c1-4.8,6.3-7.6,10-7.6l0,0c4.2,0,9.7,2.9,10.7,7.8V585.9L18.6,585.9z"/>
							</defs>
							<clipPath id="SVGID_00000124878225146380038210000004633676745260140161_">
								<use xlink:href="#SVGID_00000070828932903788855730000001536230928642286738_"  style="overflow:visible;"/>
							</clipPath>
							
								<rect x="-12.9" y="397.1" style="clip-path:url(#SVGID_00000124878225146380038210000004633676745260140161_);fill:#FEFE82;" width="42.3" height="26.6"/>
						</g>
					</g>
				</g>
			</g>
		</g>
	</g>
	<g class="st1">
		<g>
			<g>
				<g>
					<g>
						<g>
							<defs>
								<path id="SVGID_00000046314257731350369350000017240068210918997910_" d="M18.6,585.9c0,3.6-5.8,7.9-10.4,7.9H7.6
									c-4.2,0-9.7-3.8-9.7-7.9v-526c1-4.8,6.3-7.6,10-7.6l0,0c4.2,0,9.7,2.9,10.7,7.8V585.9L18.6,585.9z"/>
							</defs>
							<clipPath id="SVGID_00000035521686878009924820000004936391291154076852_">
								<use xlink:href="#SVGID_00000046314257731350369350000017240068210918997910_"  style="overflow:visible;"/>
							</clipPath>
							
								<rect x="-12.9" y="423.4" style="clip-path:url(#SVGID_00000035521686878009924820000004936391291154076852_);fill:#FFFFC7;" width="42.3" height="26.6"/>
						</g>
					</g>
				</g>
			</g>
		</g>
	</g>
	<g class="st1">
		<g>
			<g>
				<g>
					<g>
						<g>
							<defs>
								<path id="SVGID_00000042003231185764850760000017226804142400577954_" d="M18.6,585.9c0,3.6-5.8,7.9-10.4,7.9H7.6
									c-4.2,0-9.7-3.8-9.7-7.9v-526c1-4.8,6.3-7.6,10-7.6l0,0c4.2,0,9.7,2.9,10.7,7.8V585.9L18.6,585.9z"/>
							</defs>
							<clipPath id="SVGID_00000123441420366291412550000004590065161909930120_">
								<use xlink:href="#SVGID_00000042003231185764850760000017226804142400577954_"  style="overflow:visible;"/>
							</clipPath>
							
								<rect x="-12.9" y="450" style="clip-path:url(#SVGID_00000123441420366291412550000004590065161909930120_);fill:#F3F3A1;" width="42.3" height="26.6"/>
						</g>
					</g>
				</g>
			</g>
		</g>
	</g>
	<g class="st1">
		<g>
			<g>
				<g>
					<g>
						<g>
							<defs>
								<path id="SVGID_00000147926625876094267710000014638844139725352876_" d="M18.6,585.9c0,3.6-5.8,7.9-10.4,7.9H7.6
									c-4.2,0-9.7-3.8-9.7-7.9v-526c1-4.8,6.3-7.6,10-7.6l0,0c4.2,0,9.7,2.9,10.7,7.8V585.9L18.6,585.9z"/>
							</defs>
							<clipPath id="SVGID_00000049937702177677644640000012262494514960698276_">
								<use xlink:href="#SVGID_00000147926625876094267710000014638844139725352876_"  style="overflow:visible;"/>
							</clipPath>
							
								<rect x="-12.9" y="476.7" style="clip-path:url(#SVGID_00000049937702177677644640000012262494514960698276_);fill:#D3ECA4;" width="42.3" height="26.6"/>
						</g>
					</g>
				</g>
			</g>
		</g>
	</g>
	<g class="st1">
		<g>
			<g>
				<g>
					<g>
						<g>
							<defs>
								<path id="SVGID_00000078035197419932049750000004499852170608337025_" d="M18.6,585.9c0,3.6-5.8,7.9-10.4,7.9H7.6
									c-4.2,0-9.7-3.8-9.7-7.9v-526c1-4.8,6.3-7.6,10-7.6l0,0c4.2,0,9.7,2.9,10.7,7.8V585.9L18.6,585.9z"/>
							</defs>
							<clipPath id="SVGID_00000060020083721920876630000006685863553294248332_">
								<use xlink:href="#SVGID_00000078035197419932049750000004499852170608337025_"  style="overflow:visible;"/>
							</clipPath>
							
								<rect x="-12.9" y="503.3" style="clip-path:url(#SVGID_00000060020083721920876630000006685863553294248332_);fill:#C3E6D8;" width="42.3" height="26.6"/>
						</g>
					</g>
				</g>
			</g>
		</g>
	</g>
	<g class="st1">
		<g>
			<g>
				<g>
					<g>
						<g>
							<defs>
								<path id="SVGID_00000090268310509492182620000008741888923717333930_" d="M18.6,585.9c0,3.6-5.8,7.9-10.4,7.9H7.6
									c-4.2,0-9.7-3.8-9.7-7.9v-526c1-4.8,6.3-7.6,10-7.6l0,0c4.2,0,9.7,2.9,10.7,7.8V585.9L18.6,585.9z"/>
							</defs>
							<clipPath id="SVGID_00000095311209971178868250000012841447491649920686_">
								<use xlink:href="#SVGID_00000090268310509492182620000008741888923717333930_"  style="overflow:visible;"/>
							</clipPath>
							
								<rect x="-12.9" y="529.9" style="clip-path:url(#SVGID_00000095311209971178868250000012841447491649920686_);fill:#C8E8F0;" width="42.3" height="26.6"/>
						</g>
					</g>
				</g>
			</g>
		</g>
	</g>
	<g class="st1">
		<g>
			<g>
				<g>
					<g>
						<g>
							<defs>
								<path id="SVGID_00000001632113519954508940000015461042904584566163_" d="M18.6,585.9c0,3.6-5.8,7.9-10.4,7.9H7.6
									c-4.2,0-9.7-3.8-9.7-7.9v-526c1-4.8,6.3-7.6,10-7.6l0,0c4.2,0,9.7,2.9,10.7,7.8V585.9L18.6,585.9z"/>
							</defs>
							<clipPath id="SVGID_00000137113609982014948850000005971501243702953118_">
								<use xlink:href="#SVGID_00000001632113519954508940000015461042904584566163_"  style="overflow:visible;"/>
							</clipPath>
							
								<rect x="-12.9" y="556.5" style="clip-path:url(#SVGID_00000137113609982014948850000005971501243702953118_);fill:#D0EBF7;" width="42.3" height="40.2"/>
						</g>
					</g>
				</g>
			</g>
		</g>
	</g>
</g>
<g class="st0">
	<g class="st1">
		<g>
			<g>
				<g>
					<g>
						<g>
							<g>
								<defs>
									<path id="SVGID_00000161623527787293714200000001290595947696579743_" d="M18.4,586.1c-0.3,3.3-5.5,7.3-10.1,7.3l0,0
										c-4.5,0.4-10.6-3.2-10.6-7.3v-526c1-4.8,6.3-7.6,10-7.6l0,0c4.2,0,9.7,2.9,10.8,7.8L18.4,586.1L18.4,586.1z"/>
								</defs>
								<clipPath id="SVGID_00000134215485881572998140000013027088062434583725_">
									<use xlink:href="#SVGID_00000161623527787293714200000001290595947696579743_"  style="overflow:visible;"/>
								</clipPath>
								
									<rect x="-7.4" y="501.2" style="clip-path:url(#SVGID_00000134215485881572998140000013027088062434583725_);fill:#EC2426;" width="30.9" height="96.8"/>
							</g>
						</g>
					</g>
				</g>
			</g>
		</g>
		<g>
			<g>
				<g>
					<g>
						<g>
							<g>
								<defs>
									<path id="SVGID_00000162342230468012382270000012306867526051854781_" d="M18.4,586.1c-0.3,3.3-5.5,7.3-10.1,7.3l0,0
										c-4.5,0.4-10.6-3.2-10.6-7.3v-526c1-4.8,6.3-7.6,10-7.6l0,0c4.2,0,9.7,2.9,10.8,7.8L18.4,586.1L18.4,586.1z"/>
								</defs>
								<clipPath id="SVGID_00000003820581550405090050000017333661003016868532_">
									<use xlink:href="#SVGID_00000162342230468012382270000012306867526051854781_"  style="overflow:visible;"/>
								</clipPath>
								
									<rect x="-7.1" y="325.2" style="clip-path:url(#SVGID_00000003820581550405090050000017333661003016868532_);fill:#FCFC1E;" width="30.9" height="88"/>
							</g>
						</g>
					</g>
				</g>
			</g>
		</g>
		<g>
			<g>
				<g>
					<g>
						<g>
							<g>
								<defs>
									<path id="SVGID_00000127729255397727969400000016331991079393635991_" d="M18.4,586.1c-0.3,3.3-5.5,7.3-10.1,7.3l0,0
										c-4.5,0.4-10.6-3.2-10.6-7.3v-526c1-4.8,6.3-7.6,10-7.6l0,0c4.2,0,9.7,2.9,10.8,7.8L18.4,586.1L18.4,586.1z"/>
								</defs>
								<clipPath id="SVGID_00000149347082362066488460000009654505592214489754_">
									<use xlink:href="#SVGID_00000127729255397727969400000016331991079393635991_"  style="overflow:visible;"/>
								</clipPath>
								
									<rect x="-7.1" y="237.2" style="clip-path:url(#SVGID_00000149347082362066488460000009654505592214489754_);fill:#0B7F3F;" width="30.9" height="88"/>
							</g>
						</g>
					</g>
				</g>
			</g>
		</g>
		<g>
			<g>
				<g>
					<g>
						<g>
							<g>
								<defs>
									<path id="SVGID_00000042702677755099444420000004555598582290938011_" d="M18.4,586.1c-0.3,3.3-5.5,7.3-10.1,7.3l0,0
										c-4.5,0.4-10.6-3.2-10.6-7.3v-526c1-4.8,6.3-7.6,10-7.6l0,0c4.2,0,9.7,2.9,10.8,7.8L18.4,586.1L18.4,586.1z"/>
								</defs>
								<clipPath id="SVGID_00000178908491854134372020000014324919358263472299_">
									<use xlink:href="#SVGID_00000042702677755099444420000004555598582290938011_"  style="overflow:visible;"/>
								</clipPath>
								
									<rect x="-7.4" y="413.2" style="clip-path:url(#SVGID_00000178908491854134372020000014324919358263472299_);fill:#F7A426;" width="30.9" height="88"/>
							</g>
						</g>
					</g>
				</g>
			</g>
		</g>
		<g>
			<g>
				<g>
					<g>
						<g>
							<g>
								<defs>
									<path id="SVGID_00000135672084574428332740000005612662364211745419_" d="M18.4,586.1c-0.3,3.3-5.5,7.3-10.1,7.3l0,0
										c-4.5,0.4-10.6-3.2-10.6-7.3v-526c1-4.8,6.3-7.6,10-7.6l0,0c4.2,0,9.7,2.9,10.8,7.8L18.4,586.1L18.4,586.1z"/>
								</defs>
								<clipPath id="SVGID_00000088110527870534876540000008927649136516743569_">
									<use xlink:href="#SVGID_00000135672084574428332740000005612662364211745419_"  style="overflow:visible;"/>
								</clipPath>
								
									<rect x="-7.1" y="149.2" style="clip-path:url(#SVGID_00000088110527870534876540000008927649136516743569_);fill:#6FC9DC;" width="30.9" height="88"/>
							</g>
						</g>
					</g>
				</g>
			</g>
		</g>
		<g>
			<g>
				<g>
					<g>
						<g>
							<g>
								<defs>
									<path id="SVGID_00000022553587244603743710000003656318299458162097_" d="M18.4,586.1c-0.3,3.3-5.5,7.3-10.1,7.3l0,0
										c-4.5,0.4-10.6-3.2-10.6-7.3v-526c1-4.8,6.3-7.6,10-7.6l0,0c4.2,0,9.7,2.9,10.8,7.8L18.4,586.1L18.4,586.1z"/>
								</defs>
								<clipPath id="SVGID_00000160885348762715983990000017823476747439444159_">
									<use xlink:href="#SVGID_00000022553587244603743710000003656318299458162097_"  style="overflow:visible;"/>
								</clipPath>
								
									<rect x="-7.1" y="52.4" style="clip-path:url(#SVGID_00000160885348762715983990000017823476747439444159_);fill:#3F57B0;" width="30.9" height="96.8"/>
							</g>
						</g>
					</g>
				</g>
			</g>
		</g>
	</g>
</g>
<circle class="st60" cx="8" cy="33.8" r="14.6"/>
<path class="st61" d="M18.4,586.1c-0.3,3.3-5.5,7.3-10.1,7.3l0,0c-4.5,0.4-10.6-3.2-10.6-7.3v-526c1-4.8,6.3-7.6,10-7.6l0,0
	c4.2,0,9.7,2.9,10.8,7.8L18.4,586.1L18.4,586.1z"/>
<g class="st0">
	<path class="st62" d="M3.4,584.6c-0.4-0.5-0.6-1-0.6-1.8c0-0.7,0.2-1.3,0.6-1.8s0.9-0.7,1.5-0.7s1.1,0.2,1.5,0.7
		c0.4,0.4,0.6,1,0.6,1.8s-0.2,1.3-0.6,1.8c-0.4,0.4-0.9,0.7-1.5,0.7S3.8,585.1,3.4,584.6z M5.7,584c0.2-0.3,0.3-0.7,0.3-1.1
		c0-0.5-0.1-0.9-0.3-1.1c-0.2-0.3-0.5-0.4-0.8-0.4s-0.6,0.1-0.8,0.4c-0.2,0.3-0.3,0.7-0.3,1.1c0,0.5,0.1,0.9,0.3,1.1
		c0.2,0.3,0.5,0.4,0.8,0.4C5.3,584.4,5.5,584.3,5.7,584z M10.2,580.5h1.2l-6.1,8.9H4.2L10.2,580.5z M9.2,588.8
		c-0.4-0.5-0.6-1-0.6-1.8c0-0.7,0.2-1.3,0.6-1.8c0.4-0.4,0.9-0.7,1.5-0.7s1.1,0.2,1.5,0.7c0.4,0.4,0.6,1,0.6,1.8
		c0,0.7-0.2,1.3-0.6,1.8c-0.4,0.4-0.9,0.7-1.5,0.7S9.6,589.3,9.2,588.8z M11.5,588.2c0.2-0.3,0.3-0.7,0.3-1.1c0-0.5-0.1-0.9-0.3-1.1
		c-0.2-0.3-0.5-0.4-0.8-0.4s-0.6,0.1-0.8,0.4c-0.2,0.3-0.3,0.7-0.3,1.1c0,0.5,0.1,0.9,0.3,1.1c0.2,0.3,0.5,0.4,0.8,0.4
		C11.1,588.6,11.3,588.5,11.5,588.2z"/>
</g>
<g class="st0">
	<path class="st62" d="M6.9,540.4c0.4,0.3,0.6,0.7,0.6,1.2c0,0.3-0.1,0.6-0.2,0.9c-0.2,0.3-0.4,0.5-0.7,0.6
		c-0.3,0.2-0.7,0.2-1.2,0.2c-0.4,0-0.8-0.1-1.1-0.2c-0.4-0.1-0.7-0.3-0.9-0.5l0.4-0.8c0.2,0.2,0.4,0.3,0.7,0.4
		c0.3,0.1,0.6,0.1,0.9,0.1c0.4,0,0.6-0.1,0.8-0.2c0.2-0.1,0.3-0.4,0.3-0.6c0-0.3-0.1-0.5-0.3-0.6s-0.6-0.2-1.1-0.2H3.6l0.3-3h3.2
		v0.9H4.7l-0.1,1.3h0.5C5.9,539.9,6.5,540.1,6.9,540.4z"/>
	<path class="st62" d="M9.1,543c-0.3-0.2-0.6-0.5-0.8-1c-0.2-0.4-0.3-0.9-0.3-1.5s0.1-1.1,0.3-1.5s0.5-0.8,0.8-1s0.7-0.3,1.2-0.3
		c0.4,0,0.8,0.1,1.2,0.3c0.3,0.2,0.6,0.5,0.8,1c0.2,0.4,0.3,0.9,0.3,1.5s-0.1,1.1-0.3,1.5s-0.5,0.7-0.8,1c-0.3,0.2-0.7,0.3-1.2,0.3
		S9.5,543.2,9.1,543z M11.2,542c0.2-0.3,0.3-0.8,0.3-1.4c0-0.6-0.1-1.1-0.3-1.4c-0.2-0.3-0.5-0.5-0.9-0.5s-0.7,0.2-0.9,0.5
		s-0.3,0.8-0.3,1.4c0,0.6,0.1,1.1,0.3,1.4s0.5,0.5,0.9,0.5S11,542.3,11.2,542z"/>
</g>
<g class="st0">
	<path class="st62" d="M6.8,459c0.3,0.1,0.5,0.3,0.7,0.6c0.2,0.3,0.2,0.6,0.2,0.9c0,0.4-0.1,0.7-0.3,0.9c-0.2,0.3-0.4,0.5-0.7,0.6
		s-0.6,0.2-1,0.2c-0.8,0-1.3-0.2-1.7-0.7s-0.6-1.1-0.6-2c0-0.6,0.1-1.1,0.3-1.6c0.2-0.4,0.5-0.8,0.9-1s0.9-0.3,1.4-0.3
		c0.3,0,0.5,0,0.8,0.1c0.2,0.1,0.5,0.1,0.6,0.3L7,457.8c-0.3-0.2-0.6-0.3-1-0.3c-0.5,0-0.9,0.2-1.2,0.5s-0.4,0.8-0.4,1.4l0,0
		c0.2-0.2,0.4-0.3,0.6-0.4c0.3-0.1,0.5-0.1,0.8-0.1C6.2,458.8,6.5,458.9,6.8,459z M6.4,461.2c0.2-0.2,0.3-0.4,0.3-0.7
		c0-0.3-0.1-0.5-0.3-0.7s-0.5-0.3-0.8-0.3s-0.6,0.1-0.8,0.3c-0.2,0.2-0.3,0.4-0.3,0.7c0,0.3,0.1,0.5,0.3,0.7s0.5,0.3,0.8,0.3
		C6,461.5,6.2,461.4,6.4,461.2z"/>
	<path class="st62" d="M9.4,462c-0.3-0.2-0.6-0.5-0.8-1c-0.2-0.4-0.3-0.9-0.3-1.5s0.1-1.1,0.3-1.5s0.5-0.8,0.8-1s0.7-0.3,1.2-0.3
		c0.4,0,0.8,0.1,1.2,0.3c0.3,0.2,0.6,0.5,0.8,1c0.2,0.4,0.3,0.9,0.3,1.5s-0.1,1.1-0.3,1.5s-0.5,0.7-0.8,1c-0.3,0.2-0.7,0.3-1.2,0.3
		S9.7,462.2,9.4,462z M11.5,460.9c0.2-0.3,0.3-0.8,0.3-1.4s-0.1-1.1-0.3-1.4s-0.5-0.5-0.9-0.5s-0.7,0.2-0.9,0.5s-0.3,0.8-0.3,1.4
		s0.1,1.1,0.3,1.4s0.5,0.5,0.9,0.5C10.9,461.4,11.2,461.2,11.5,460.9z"/>
</g>
<g class="st0">
	<path class="st62" d="M7.8,368v0.7l-2.1,4.8H4.5l2.1-4.6H4.4v0.9H3.5V368H7.8L7.8,368z"/>
	<path class="st62" d="M9.3,373.2c-0.3-0.2-0.6-0.5-0.8-1c-0.2-0.4-0.3-0.9-0.3-1.5s0.1-1.1,0.3-1.5s0.5-0.7,0.8-1
		c0.3-0.2,0.7-0.3,1.2-0.3c0.4,0,0.8,0.1,1.2,0.3c0.3,0.2,0.6,0.5,0.8,1c0.2,0.4,0.3,0.9,0.3,1.5s-0.1,1.1-0.3,1.5s-0.5,0.7-0.8,1
		c-0.3,0.2-0.7,0.3-1.2,0.3C10.1,373.6,9.7,373.4,9.3,373.2z M11.4,372.2c0.2-0.3,0.3-0.8,0.3-1.4s-0.1-1.1-0.3-1.4
		s-0.5-0.5-0.9-0.5s-0.7,0.2-0.9,0.5s-0.3,0.8-0.3,1.4s0.1,1.1,0.3,1.4s0.5,0.5,0.9,0.5S11.2,372.5,11.4,372.2z"/>
</g>
<g class="st0">
	<path class="st62" d="M7.6,274.4c0.2,0.2,0.2,0.5,0.2,0.8s-0.1,0.6-0.3,0.9s-0.4,0.4-0.8,0.6s-0.7,0.2-1.2,0.2
		c-0.4,0-0.8-0.1-1.2-0.2c-0.3-0.1-0.6-0.3-0.8-0.6c-0.2-0.3-0.3-0.5-0.3-0.9c0-0.3,0.1-0.6,0.2-0.8c0.2-0.2,0.4-0.4,0.6-0.5
		c-0.2-0.1-0.4-0.3-0.5-0.5s-0.2-0.4-0.2-0.7c0-0.3,0.1-0.6,0.3-0.8c0.2-0.2,0.4-0.4,0.7-0.5s0.7-0.2,1.1-0.2s0.8,0.1,1.1,0.2
		s0.5,0.3,0.7,0.5s0.3,0.5,0.3,0.8s-0.1,0.5-0.2,0.7s-0.3,0.4-0.5,0.5C7.2,274,7.4,274.1,7.6,274.4z M6.5,275.8
		c0.2-0.2,0.3-0.4,0.3-0.6c0-0.3-0.1-0.5-0.3-0.6c-0.2-0.2-0.5-0.2-0.9-0.2s-0.7,0.1-0.9,0.2c-0.2,0.2-0.3,0.4-0.3,0.6
		c0,0.3,0.1,0.5,0.3,0.6c0.2,0.2,0.5,0.2,0.9,0.2C5.9,276,6.2,275.9,6.5,275.8z M4.8,272.2c-0.2,0.1-0.3,0.3-0.3,0.6
		c0,0.2,0.1,0.4,0.3,0.6c0.2,0.1,0.4,0.2,0.8,0.2c0.3,0,0.6-0.1,0.8-0.2s0.3-0.3,0.3-0.6c0-0.2-0.1-0.4-0.3-0.6
		C6.2,272.1,6,272,5.6,272S5,272,4.8,272.2z"/>
	<path class="st62" d="M9.6,276.5c-0.3-0.2-0.6-0.5-0.8-1c-0.2-0.4-0.3-0.9-0.3-1.5s0.1-1.1,0.3-1.5s0.5-0.7,0.8-1
		c0.3-0.2,0.7-0.3,1.2-0.3c0.4,0,0.8,0.1,1.2,0.3c0.3,0.2,0.6,0.5,0.8,1s0.3,0.9,0.3,1.5s-0.1,1.1-0.3,1.5s-0.5,0.7-0.8,1
		s-0.7,0.3-1.2,0.3S9.9,276.7,9.6,276.5z M11.7,275.4c0.2-0.3,0.3-0.8,0.3-1.4s-0.1-1.1-0.3-1.4s-0.5-0.5-0.9-0.5s-0.7,0.2-0.9,0.5
		s-0.3,0.8-0.3,1.4s0.1,1.1,0.3,1.4s0.5,0.5,0.9,0.5C11.1,275.9,11.5,275.8,11.7,275.4z"/>
</g>
<g class="st0">
	<path class="st62" d="M7.1,191.5c0.4,0.5,0.6,1.1,0.6,2c0,0.6-0.1,1.1-0.3,1.6c-0.2,0.4-0.5,0.8-0.9,1s-0.9,0.3-1.4,0.3
		c-0.3,0-0.5,0-0.8-0.1c-0.2-0.1-0.5-0.1-0.6-0.3l0.4-0.8c0.3,0.2,0.6,0.3,1,0.3c0.5,0,0.9-0.2,1.2-0.5s0.4-0.8,0.4-1.4l0,0
		c-0.2,0.2-0.4,0.3-0.6,0.4c-0.3,0.1-0.5,0.1-0.8,0.1c-0.4,0-0.7-0.1-1-0.2c-0.3-0.1-0.5-0.3-0.7-0.6s-0.2-0.6-0.2-0.9
		c0-0.4,0.1-0.7,0.3-0.9c0.2-0.3,0.4-0.5,0.7-0.6s0.6-0.2,1-0.2C6.1,190.7,6.7,191,7.1,191.5z M6.2,193.1c0.2-0.2,0.3-0.4,0.3-0.7
		s-0.1-0.5-0.3-0.7s-0.5-0.3-0.8-0.3s-0.6,0.1-0.8,0.3s-0.3,0.4-0.3,0.7s0.1,0.5,0.3,0.7s0.5,0.3,0.8,0.3
		C5.7,193.4,6,193.3,6.2,193.1z"/>
	<path class="st62" d="M9.5,196c-0.3-0.2-0.6-0.5-0.8-1c-0.2-0.4-0.3-0.9-0.3-1.5s0.1-1.1,0.3-1.5s0.5-0.7,0.8-1
		c0.3-0.2,0.7-0.3,1.2-0.3c0.4,0,0.8,0.1,1.2,0.3c0.3,0.2,0.6,0.5,0.8,1c0.2,0.4,0.3,0.9,0.3,1.5s-0.1,1.1-0.3,1.5s-0.5,0.7-0.8,1
		c-0.3,0.2-0.7,0.3-1.2,0.3C10.2,196.4,9.8,196.3,9.5,196z M11.6,195c0.2-0.3,0.3-0.8,0.3-1.4c0-0.6-0.1-1.1-0.3-1.4
		c-0.2-0.3-0.5-0.5-0.9-0.5s-0.7,0.2-0.9,0.5s-0.3,0.8-0.3,1.4c0,0.6,0.1,1.1,0.3,1.4c0.2,0.3,0.5,0.5,0.9,0.5
		C11,195.5,11.4,195.3,11.6,195z"/>
</g>
<g class="st0">
	<path class="st62" d="M3.7,93.8v5.5h-1v-4.6H1.5v-0.9H3.7z"/>
	<path class="st62" d="M5.9,99c-0.3-0.2-0.6-0.5-0.8-1c-0.2-0.4-0.3-0.9-0.3-1.5s0.1-1.1,0.3-1.5s0.5-0.7,0.8-1
		c0.3-0.2,0.7-0.3,1.2-0.3c0.4,0,0.8,0.1,1.2,0.3c0.3,0.2,0.6,0.5,0.8,1c0.2,0.4,0.3,0.9,0.3,1.5S9.3,97.6,9.1,98s-0.5,0.7-0.8,1
		c-0.3,0.2-0.7,0.3-1.2,0.3C6.6,99.4,6.2,99.3,5.9,99z M8,98c0.2-0.3,0.3-0.8,0.3-1.4S8.2,95.5,8,95.2s-0.5-0.5-0.9-0.5
		s-0.7,0.2-0.9,0.5S5.9,96,5.9,96.6S6,97.7,6.2,98s0.5,0.5,0.9,0.5S7.8,98.3,8,98z"/>
	<path class="st62" d="M11.2,99c-0.3-0.2-0.6-0.5-0.8-1c-0.2-0.4-0.3-0.9-0.3-1.5s0.1-1.1,0.3-1.5s0.5-0.7,0.8-1
		c0.3-0.2,0.7-0.3,1.2-0.3c0.4,0,0.8,0.1,1.2,0.3s0.6,0.5,0.8,1s0.2,1,0.2,1.5s-0.1,1.1-0.3,1.5s-0.5,0.7-0.8,1
		c-0.3,0.2-0.7,0.3-1.2,0.3C11.9,99.4,11.5,99.3,11.2,99z M13.3,98c0.2-0.3,0.3-0.8,0.3-1.4s-0.1-1.1-0.3-1.4s-0.5-0.5-0.9-0.5
		s-0.7,0.2-0.9,0.5s-0.3,0.8-0.3,1.4s0.1,1.1,0.3,1.4s0.5,0.5,0.9,0.5C12.7,98.5,13,98.3,13.3,98z"/>
</g>
<g class="st0">
	<path class="st63" d="M1.7,40.5h12.4c2.6,0,4.8-1.8,5.3-4.2c0.3-1.6-0.1-3.2-1.1-4.4c-0.9-1-2.1-1.7-3.4-1.9v-1.2
		c0-4.2-3.8-7.5-7.9-7c-3.5,0.4-6.2,3.5-6.2,7.3V30c-1.1,0.1-2.2,0.7-3,1.5c-1.2,1.2-1.7,2.9-1.5,4.6C-3.2,38.5-0.8,40.5,1.7,40.5z
		 M-1.2,32.5c0.7-0.7,1.7-1.1,2.7-1.1c0.4,0,0.7-0.3,0.7-0.7v-1.6c0-3.1,2.5-5.9,5.7-5.9c3.1,0,5.7,2.6,5.7,5.7v1.8
		c0,0.4,0.3,0.7,0.7,0.7c1.2,0,2.3,0.5,3,1.4c0.7,0.9,1,2.1,0.8,3.3c-0.4,1.8-2,3.1-4,3.1H1.7c-1.8,0-3.7-1.5-4-3.2
		C-2.5,34.6-2.1,33.4-1.2,32.5z"/>
</g>
<rect x="3.2" y="40.5" class="st64" width="9.5" height="5.3"/>
<g class="st65">
	<path class="st63" d="M7.1,40.7h0.7V44h2v0.6H7.1V40.7z"/>
</g>
<g>
	<g>
		<g>
			<g>
				<g>
					<g>
						<g>
							<defs>
								<path id="SVGID_00000080924611862004930520000013131556195747090843_" d="M42.5,672.5c-0.4,3.8-10.5,2.2-18.3,2.2l0,0
									c-7.6,0.4-18.3,0.9-18.3-3.7L6.2,54.2c1.6-5.5,12.1-3.8,18.1-3.8l0,0c7.2,0,16.5-1.7,18.2,4.1v611.1V672.5z"/>
							</defs>
							<clipPath id="SVGID_00000049939210129476892430000006361523735652456577_">
								<use xlink:href="#SVGID_00000080924611862004930520000013131556195747090843_"  style="overflow:visible;"/>
							</clipPath>
							<g style="clip-path:url(#SVGID_00000049939210129476892430000006361523735652456577_);">
								<rect x="-8.7" y="646" class="st67" width="71" height="43.4"/>
								<rect x="-10.2" y="50.3" class="st68" width="74.3" height="19.5"/>
								<rect x="-8.7" y="69.8" class="st69" width="73.5" height="15.6"/>
								<rect x="-8.7" y="85.4" class="st70" width="73.5" height="15.6"/>
								<rect x="-8.7" y="101" class="st71" width="73.5" height="15.6"/>
								<rect x="-8.7" y="116.6" class="st72" width="73.5" height="15.6"/>
								<rect x="-8.7" y="132.1" class="st73" width="73.5" height="15.6"/>
								<rect x="-8.7" y="147.7" class="st74" width="73.5" height="15.6"/>
								<rect x="-8.7" y="163.3" class="st75" width="73.5" height="15.6"/>
								<rect x="-8.7" y="178.9" class="st76" width="73.5" height="15.6"/>
								<rect x="-8.7" y="194.5" class="st77" width="73.5" height="15.6"/>
								<rect x="-8.7" y="210" class="st78" width="73.5" height="15.6"/>
								<rect x="-8.7" y="225.6" class="st79" width="73.5" height="15.6"/>
								<rect x="-8.7" y="241.2" class="st80" width="73.5" height="15.6"/>
								<rect x="-8.7" y="256.8" class="st81" width="73.5" height="15.6"/>
								<rect x="-8.7" y="272.3" class="st82" width="73.5" height="15.6"/>
								<rect x="-8.7" y="287.9" class="st83" width="73.5" height="15.6"/>
								<rect x="-8.7" y="303.5" class="st84" width="73.5" height="15.6"/>
								<rect x="-8.7" y="319.1" class="st85" width="73.5" height="15.6"/>
								<rect x="-8.7" y="334.6" class="st86" width="73.5" height="15.6"/>
								<rect x="-8.7" y="350.2" class="st87" width="73.5" height="15.6"/>
								<rect x="-8.7" y="365.9" class="st88" width="73.5" height="15.6"/>
								<rect x="-8.7" y="381.4" class="st89" width="73.5" height="15.6"/>
								<rect x="-8.7" y="397" class="st90" width="73.5" height="15.6"/>
								<rect x="-8.7" y="412.5" class="st91" width="73.5" height="15.6"/>
								<rect x="-8.7" y="428.1" class="st92" width="73.5" height="15.7"/>
								<rect x="-8.7" y="443.7" class="st93" width="73.5" height="15.6"/>
								<rect x="-8.7" y="459.3" class="st94" width="73.5" height="15.6"/>
								<rect x="-8.7" y="474.8" class="st95" width="73.5" height="15.6"/>
								<rect x="-8.7" y="490.4" class="st96" width="73.5" height="15.6"/>
								<rect x="-8.7" y="505.9" class="st97" width="73.5" height="15.6"/>
								<rect x="-8.7" y="521.5" class="st98" width="73.5" height="15.6"/>
								<rect x="-8.7" y="537" class="st99" width="73.5" height="15.6"/>
								<rect x="-8.7" y="552.6" class="st100" width="73.5" height="15.6"/>
								<rect x="-8.7" y="568.2" class="st101" width="73.5" height="15.6"/>
								<rect x="-8.7" y="583.8" class="st102" width="73.5" height="15.6"/>
								<rect x="-8.7" y="599.4" class="st103" width="73.5" height="15.6"/>
								<rect x="-8.7" y="614.9" class="st104" width="73.5" height="15.6"/>
								<rect x="-8.7" y="630.5" class="st105" width="73.5" height="15.6"/>
							</g>
						</g>
					</g>
				</g>
			</g>
		</g>
	</g>
</g>
<circle class="st106" cx="24.1" cy="26.6" r="19.8"/>
<g id="Layer_1_00000094618233620819150710000009544971755126034336_">
	<g>
		<path class="st107" d="M24.1,10.4c-3.6,0-6.6,2.8-6.6,6.3V26c-2.5,2.1-3.8,5.2-3.4,8.4c0.6,4.4,4.3,7.8,8.8,8.3
			c5.8,0.5,11.1-3.8,11.1-9.4c0-2.8-1.2-5.3-3.4-7.1v-9.2C30.7,13.3,27.7,10.4,24.1,10.4z M32.2,33.1c0,4.7-4.4,8.3-9.2,7.9
			c-3.6-0.4-6.7-3.2-7.1-6.9c-0.3-2.8,0.8-5.4,3.1-7.1c0.1-0.1,0.3-0.4,0.3-0.6v-9.6c0-2.6,2.2-4.7,4.8-4.7s4.8,2.1,4.8,4.7v9.6
			c0,0.3,0.1,0.4,0.3,0.6C31.2,28.4,32.2,30.6,32.2,33.1z"/>
	</g>
	<g>
		<path class="st107" d="M27.2,28.9V19c0-1.7-1.4-3-3.1-3c-1.7,0-3.1,1.4-3.1,3v10c-1.8,1.3-2.6,3.4-2.1,5.4c0.9,3.5,5.6,5,8.7,2.8
			c1.3-1,2.1-2.6,2.1-4C29.5,31.4,28.6,29.8,27.2,28.9z M26.4,35.8c-2.1,1.6-5.3,0.5-5.8-1.8c-0.4-1.6,0.3-3.1,1.8-3.9
			c0.3-0.1,0.4-0.4,0.4-0.6V19.1c0-0.6,0.6-1.4,1.4-1.4s1.4,0.5,1.4,1.4v10.4c0,0.3,0.1,0.5,0.4,0.6c1.2,0.6,1.9,1.8,1.9,3.1
			C27.7,34.1,27.3,35,26.4,35.8z"/>
	</g>
</g>
<rect x="11.1" y="632" class="st108" width="15.4" height="11.8"/>
<g class="st109">
	<path class="st107" d="M23.6,672.3c-0.9,0.2-1.7,0.3-2.5,0.3s-1.3-0.1-1.8-0.3c-0.4-0.2-0.8-0.5-1-0.9c-0.3-0.4-0.4-0.9-0.5-1.4
		c-0.1-0.5-0.1-1.2-0.1-2c0-1.7,0.2-2.9,0.7-3.6s1.4-1,2.7-1c0.7,0,1.6,0.1,2.6,0.4l-0.1,1.4c-0.9-0.1-1.6-0.2-2.1-0.2
		s-1,0.1-1.2,0.2c-0.2,0.2-0.4,0.4-0.5,0.9c-0.1,0.4-0.2,1.1-0.2,2.2c0,1,0.1,1.7,0.4,2.1s0.7,0.6,1.4,0.6c0.7,0,1.5-0.1,2.3-0.2
		L23.6,672.3z"/>
	<path class="st107" d="M26.3,666.8c-0.4-0.4-0.5-0.8-0.5-1.4s0.2-1.1,0.5-1.4c0.4-0.4,0.8-0.5,1.4-0.5s1.1,0.2,1.4,0.5
		c0.4,0.4,0.5,0.8,0.5,1.4s-0.2,1-0.5,1.4c-0.4,0.4-0.8,0.5-1.4,0.5S26.7,667.2,26.3,666.8z M27,664.7c-0.2,0.2-0.3,0.4-0.3,0.7
		s0.1,0.5,0.3,0.7c0.2,0.2,0.4,0.3,0.7,0.3s0.5-0.1,0.7-0.3s0.3-0.4,0.3-0.7s-0.1-0.5-0.3-0.7s-0.4-0.3-0.7-0.3S27.2,664.5,27,664.7
		z"/>
</g>
<path class="st110" d="M36.6,675.8H12.1c-3.4,0-6.2-2.8-6.2-6.2V56.1c0-3.4,2.8-6.2,6.2-6.2h24.5c3.4,0,6.2,2.8,6.2,6.2v613.5
	C42.8,673,40,675.8,36.6,675.8z"/>
<g>
	<path class="st107" d="M14,630.5V629h3.6v1.5H14z"/>
	<path class="st107" d="M24.1,633H19v-1.4l1.7-1.7c0.6-0.6,1-1.1,1.3-1.4c0.2-0.3,0.4-0.7,0.4-1s-0.1-0.6-0.3-0.8
		c-0.2-0.2-0.5-0.2-0.8-0.2c-0.5,0-1.1,0-1.8,0.1l-0.3,0l-0.1-1.3c0.8-0.2,1.6-0.4,2.4-0.4c1.7,0,2.5,0.8,2.5,2.3
		c0,0.6-0.1,1.1-0.4,1.5c-0.3,0.4-0.7,1-1.4,1.6l-1.4,1.2h3.3V633z"/>
	<path class="st107" d="M26.2,625.5c0.5-0.4,1.2-0.6,2.1-0.6s1.6,0.2,2.1,0.6c0.5,0.4,0.8,0.9,0.8,1.6c0,0.5-0.1,0.8-0.2,1
		c-0.1,0.2-0.3,0.5-0.7,0.8c0.4,0.3,0.6,0.6,0.8,0.8c0.2,0.3,0.2,0.6,0.2,1.1c0,0.8-0.3,1.4-0.8,1.7c-0.6,0.4-1.3,0.6-2.2,0.6
		c-2,0-3-0.7-3-2.2c0-0.5,0.1-0.9,0.2-1.2c0.2-0.3,0.4-0.6,0.8-0.9c-0.3-0.3-0.6-0.5-0.7-0.8s-0.2-0.6-0.2-1
		C25.4,626.4,25.7,625.9,26.2,625.5z M27,630.6c0,0.7,0.4,1.1,1.2,1.1s1.2-0.4,1.2-1.1c0-0.4-0.2-0.7-0.7-0.9h-1.1
		C27.3,629.8,27,630.1,27,630.6z M28.3,626.4c-0.4,0-0.6,0.1-0.8,0.2c-0.2,0.2-0.3,0.4-0.3,0.7s0.2,0.6,0.6,0.9h1.1
		c0.4-0.3,0.6-0.6,0.6-0.9C29.4,626.7,29,626.4,28.3,626.4z"/>
</g>
<line class="st111" x1="6.1" y1="614" x2="42.5" y2="614"/>
<g>
	<path class="st107" d="M14.8,599.4v-1.5h3.6v1.5H14.8z"/>
	<path class="st107" d="M25,601.9h-5.1v-1.4l1.7-1.7c0.6-0.6,1-1.1,1.3-1.4c0.2-0.3,0.4-0.7,0.4-1s-0.1-0.6-0.3-0.8
		c-0.2-0.2-0.5-0.2-0.8-0.2c-0.5,0-1.1,0-1.8,0.1l-0.3,0l-0.1-1.3c0.8-0.2,1.6-0.4,2.4-0.4c1.7,0,2.5,0.8,2.5,2.3
		c0,0.6-0.1,1.1-0.4,1.5c-0.3,0.4-0.7,1-1.4,1.6l-1.4,1.2H25V601.9z"/>
	<path class="st107" d="M29.6,601.9v-1.3h-3.4v-1.3l2-5.4H30l-2.1,5.2h1.7v-2.2h1.7v2.2H32v1.4h-0.8v1.3H29.6z"/>
</g>
<line class="st111" x1="6.9" y1="583.3" x2="42.5" y2="583.3"/>
<line class="st111" x1="5.9" y1="552.1" x2="43.4" y2="552.1"/>
<line class="st111" x1="6.1" y1="521" x2="42.5" y2="521"/>
<line class="st111" x1="6.1" y1="489.9" x2="42.5" y2="489.9"/>
<line class="st111" x1="5.9" y1="458.8" x2="42.5" y2="458.8"/>
<line class="st111" x1="5.9" y1="427.8" x2="42.8" y2="427.8"/>
<line class="st111" x1="5.9" y1="396.5" x2="43.4" y2="396.5"/>
<line class="st111" x1="5.2" y1="380.9" x2="18.1" y2="380.9"/>
<line class="st111" x1="5.9" y1="365.4" x2="42.5" y2="365.4"/>
<line class="st111" x1="5.9" y1="334.2" x2="42.5" y2="334.2"/>
<line class="st111" x1="5.9" y1="303.1" x2="43.4" y2="303.1"/>
<line class="st111" x1="5.2" y1="271.8" x2="42.8" y2="271.8"/>
<line class="st111" x1="5.9" y1="240.7" x2="42.8" y2="240.7"/>
<line class="st111" x1="5.9" y1="209.5" x2="42.8" y2="209.5"/>
<line class="st111" x1="6.7" y1="178.4" x2="42.8" y2="178.4"/>
<line class="st111" x1="5.9" y1="147.2" x2="42.8" y2="147.2"/>
<line class="st111" x1="5.1" y1="116.1" x2="43.6" y2="116.1"/>
<line class="st111" x1="6.7" y1="84.9" x2="43.6" y2="84.9"/>
<g>
	<path class="st107" d="M14.9,567.7v-1.5h3.6v1.5H14.9z"/>
	<path class="st107" d="M25,570.1h-5.1v-1.4l1.7-1.7c0.6-0.6,1-1.1,1.3-1.4c0.2-0.3,0.4-0.7,0.4-1s-0.1-0.6-0.3-0.8
		c-0.2-0.2-0.5-0.2-0.8-0.2c-0.5,0-1.1,0-1.8,0.1l-0.3,0l-0.1-1.3c0.8-0.2,1.6-0.4,2.4-0.4c1.7,0,2.5,0.8,2.5,2.3
		c0,0.6-0.1,1.1-0.4,1.5c-0.3,0.4-0.7,1-1.4,1.6l-1.4,1.2H25V570.1z"/>
	<path class="st107" d="M26.9,563.1c0.5-0.7,1.3-1,2.3-1c1,0,1.8,0.3,2.3,1c0.5,0.7,0.8,1.7,0.8,3.2s-0.3,2.5-0.8,3.1
		c-0.5,0.6-1.3,0.9-2.3,0.9c-1,0-1.8-0.3-2.3-0.9s-0.8-1.7-0.8-3.1S26.3,563.7,26.9,563.1z M30.5,566.2c0-1-0.1-1.7-0.3-2.1
		c-0.2-0.4-0.6-0.6-1-0.6c-0.5,0-0.8,0.2-1.1,0.6c-0.2,0.4-0.3,1.1-0.3,2.1c0,1,0.1,1.7,0.3,2.1c0.2,0.4,0.6,0.6,1.1,0.6
		c0.5,0,0.8-0.2,1-0.6S30.5,567.2,30.5,566.2z"/>
</g>
<g>
	<path class="st107" d="M15.2,537v-1.5h3.6v1.5H15.2z"/>
	<path class="st107" d="M24.5,531.6v7.9h-1.7v-6l-1.7,1.1l-0.8-1.2l2.6-1.7H24.5z"/>
	<path class="st107" d="M32.1,533c-0.8-0.1-1.5-0.2-2.1-0.2c-1.1,0-1.7,0.6-1.7,1.8l0.3-0.1c0.5-0.2,0.9-0.2,1.3-0.2
		c0.9,0,1.6,0.2,2,0.6c0.5,0.4,0.7,1.1,0.7,1.9s-0.3,1.5-0.8,2c-0.5,0.4-1.3,0.7-2.2,0.7s-1.7-0.4-2.2-1.1s-0.7-1.8-0.7-3.1
		s0.3-2.4,0.9-3c0.6-0.7,1.4-1,2.4-1c0.6,0,1.3,0.1,2,0.3l0.4,0.1L32.1,533z M29.7,535.8c-0.4,0-0.8,0.1-1.2,0.2l-0.2,0.1
		c0,1.4,0.4,2.1,1.3,2.1c0.4,0,0.7-0.1,0.9-0.3c0.2-0.2,0.3-0.5,0.3-0.9C30.8,536.2,30.4,535.8,29.7,535.8z"/>
</g>
<g>
	<path class="st107" d="M14.9,506v-1.5h3.6v1.5H14.9z"/>
	<path class="st107" d="M24.1,500.5v7.9h-1.7v-6l-1.7,1.1l-0.8-1.2l2.6-1.7H24.1z"/>
	<path class="st107" d="M31.7,508.4h-5.1V507l1.7-1.7c0.6-0.6,1-1.1,1.3-1.4c0.2-0.3,0.4-0.7,0.4-1s-0.1-0.6-0.3-0.8
		c-0.2-0.2-0.5-0.2-0.8-0.2c-0.5,0-1.1,0-1.8,0.1l-0.3,0l-0.1-1.3c0.8-0.2,1.6-0.4,2.4-0.4c1.7,0,2.5,0.8,2.5,2.3
		c0,0.6-0.1,1.1-0.4,1.5c-0.3,0.4-0.7,1-1.4,1.6l-1.4,1.2h3.3V508.4z"/>
</g>
<g>
	<path class="st107" d="M18.9,474.8v-1.5h3.6v1.5H18.9z"/>
	<path class="st107" d="M24.4,469.7c0.5-0.4,1.2-0.6,2.1-0.6s1.6,0.2,2.1,0.6c0.5,0.4,0.8,0.9,0.8,1.6c0,0.5-0.1,0.8-0.2,1
		c-0.1,0.2-0.3,0.5-0.7,0.8c0.4,0.3,0.6,0.6,0.8,0.8c0.2,0.3,0.2,0.6,0.2,1.1c0,0.8-0.3,1.4-0.8,1.7s-1.3,0.6-2.2,0.6
		c-2,0-3-0.7-3-2.2c0-0.5,0.1-0.9,0.2-1.2s0.4-0.6,0.8-0.9c-0.3-0.3-0.6-0.5-0.7-0.8s-0.2-0.6-0.2-1
		C23.6,470.6,23.9,470.1,24.4,469.7z M25.3,474.8c0,0.7,0.4,1.1,1.2,1.1s1.2-0.4,1.2-1.1c0-0.4-0.2-0.7-0.7-0.9H26
		C25.5,474.1,25.3,474.4,25.3,474.8z M26.5,470.6c-0.4,0-0.6,0.1-0.8,0.2s-0.3,0.4-0.3,0.7s0.2,0.6,0.6,0.9H27
		c0.4-0.3,0.6-0.6,0.6-0.9C27.6,471,27.3,470.6,26.5,470.6z"/>
</g>
<g>
	<path class="st107" d="M18.9,444v-1.5h3.6v1.5H18.9z"/>
	<path class="st107" d="M27,446.5v-1.3h-3.4v-1.3l2-5.4h1.8l-2.1,5.2H27v-2.2h1.7v2.2h0.8v1.4h-0.8v1.3H27z"/>
</g>
<g>
	<path class="st106" d="M21.8,408.4c0.5-0.7,1.3-1,2.3-1c1,0,1.8,0.3,2.3,1c0.5,0.7,0.8,1.7,0.8,3.2s-0.3,2.5-0.8,3.1
		c-0.5,0.6-1.3,0.9-2.3,0.9c-1,0-1.8-0.3-2.3-0.9S21,413,21,411.6S21.3,409.1,21.8,408.4z M25.4,411.5c0-1-0.1-1.7-0.3-2.1
		c-0.2-0.4-0.6-0.6-1-0.6c-0.5,0-0.8,0.2-1.1,0.6c-0.2,0.4-0.3,1.1-0.3,2.1c0,1,0.1,1.7,0.3,2.1c0.2,0.4,0.6,0.6,1.1,0.6
		c0.5,0,0.8-0.2,1-0.6S25.4,412.5,25.4,411.5z"/>
</g>
<g>
	<path class="st112" d="M24.4,384.3V383H21v-1.3l2-5.4h1.8l-2.1,5.2h1.7v-2.2H26v2.2h0.8v1.4H26v1.3H24.4z"/>
</g>
<g>
	<path class="st112" d="M21.9,345.6c0.5-0.4,1.2-0.6,2.1-0.6s1.6,0.2,2.1,0.6c0.5,0.4,0.8,0.9,0.8,1.6c0,0.5-0.1,0.8-0.2,1
		c-0.1,0.2-0.3,0.5-0.7,0.8c0.4,0.3,0.6,0.6,0.8,0.8c0.2,0.3,0.2,0.6,0.2,1.1c0,0.8-0.3,1.4-0.8,1.7c-0.6,0.4-1.3,0.6-2.2,0.6
		c-2,0-3-0.7-3-2.2c0-0.5,0.1-0.9,0.2-1.2c0.2-0.3,0.4-0.6,0.8-0.9c-0.3-0.3-0.6-0.5-0.7-0.8s-0.2-0.6-0.2-1
		C21.1,346.5,21.3,346,21.9,345.6z M22.7,350.7c0,0.7,0.4,1.1,1.2,1.1s1.2-0.4,1.2-1.1c0-0.4-0.2-0.7-0.7-0.9h-1.1
		C23,350,22.7,350.3,22.7,350.7z M24,346.5c-0.4,0-0.6,0.1-0.8,0.2c-0.2,0.2-0.3,0.4-0.3,0.7s0.2,0.6,0.6,0.9h1.1
		c0.4-0.3,0.6-0.6,0.6-0.9C25.1,346.8,24.7,346.5,24,346.5z"/>
</g>
<g>
	<path class="st112" d="M22.3,313.3v7.9h-1.7v-6l-1.7,1.1l-0.8-1.2l2.6-1.7H22.3z"/>
	<path class="st112" d="M29.9,321.2h-5.1v-1.4l1.7-1.7c0.6-0.6,1-1.1,1.3-1.4c0.2-0.3,0.4-0.7,0.4-1s-0.1-0.6-0.3-0.8
		c-0.2-0.2-0.5-0.2-0.8-0.2c-0.5,0-1.1,0-1.8,0.1l-0.3,0l-0.1-1.3c0.8-0.2,1.6-0.4,2.4-0.4c1.7,0,2.5,0.8,2.5,2.3
		c0,0.6-0.1,1.1-0.4,1.5c-0.3,0.4-0.7,1-1.4,1.6l-1.4,1.2h3.3V321.2z"/>
</g>
<g>
	<path class="st112" d="M22.1,281.7v7.9h-1.7v-6l-1.7,1.1l-0.8-1.2l2.6-1.7H22.1z"/>
	<path class="st112" d="M29.8,283.2c-0.8-0.1-1.5-0.2-2.1-0.2c-1.1,0-1.7,0.6-1.7,1.8l0.3-0.1c0.5-0.2,0.9-0.2,1.3-0.2
		c0.9,0,1.6,0.2,2,0.6s0.7,1.1,0.7,1.9s-0.3,1.5-0.8,2c-0.5,0.4-1.3,0.7-2.2,0.7c-1,0-1.7-0.4-2.2-1.1s-0.7-1.8-0.7-3.1
		s0.3-2.4,0.9-3c0.6-0.7,1.4-1,2.4-1c0.6,0,1.3,0.1,2,0.3l0.4,0.1L29.8,283.2z M27.3,286c-0.4,0-0.8,0.1-1.2,0.2l-0.2,0.1
		c0,1.4,0.4,2.1,1.3,2.1c0.4,0,0.7-0.1,0.9-0.3s0.3-0.5,0.3-0.9C28.5,286.4,28.1,286,27.3,286z"/>
</g>
<g>
	<path class="st112" d="M23.2,258.5h-5.1V257l1.7-1.7c0.6-0.6,1-1.1,1.3-1.4s0.4-0.7,0.4-1s-0.1-0.6-0.3-0.8
		c-0.2-0.2-0.5-0.2-0.8-0.2c-0.5,0-1.1,0-1.8,0.1l-0.3,0l-0.1-1.3c0.8-0.2,1.6-0.4,2.4-0.4c1.7,0,2.5,0.8,2.5,2.3
		c0,0.6-0.1,1.1-0.4,1.5c-0.3,0.4-0.7,1-1.4,1.6l-1.4,1.2h3.3V258.5z"/>
	<path class="st112" d="M25.1,251.4c0.5-0.7,1.3-1,2.3-1c1,0,1.8,0.3,2.3,1c0.5,0.7,0.8,1.7,0.8,3.2s-0.3,2.5-0.8,3.1
		c-0.5,0.6-1.3,0.9-2.3,0.9c-1,0-1.8-0.3-2.3-0.9s-0.8-1.7-0.8-3.1S24.6,252,25.1,251.4z M28.7,254.5c0-1-0.1-1.7-0.3-2.1
		c-0.2-0.4-0.6-0.6-1-0.6c-0.5,0-0.8,0.2-1.1,0.6c-0.2,0.4-0.3,1.1-0.3,2.1c0,1,0.1,1.7,0.3,2.1c0.2,0.4,0.6,0.6,1.1,0.6
		c0.5,0,0.8-0.2,1-0.6S28.7,255.5,28.7,254.5z"/>
</g>
<g>
	<path class="st107" d="M23.3,227.3h-5.1v-1.4l1.7-1.7c0.6-0.6,1-1.1,1.3-1.4s0.4-0.7,0.4-1s-0.1-0.6-0.3-0.8
		c-0.2-0.2-0.5-0.2-0.8-0.2c-0.5,0-1.1,0-1.8,0.1l-0.3,0l-0.1-1.3c0.8-0.2,1.6-0.4,2.4-0.4c1.7,0,2.5,0.8,2.5,2.3
		c0,0.6-0.1,1.1-0.4,1.5c-0.3,0.4-0.7,1-1.4,1.6l-1.4,1.2h3.3V227.3z"/>
	<path class="st107" d="M28,227.3V226h-3.4v-1.3l2-5.4h1.8l-2.1,5.2H28v-2.2h1.7v2.2h0.8v1.4h-0.8v1.3H28z"/>
</g>
<g>
	<path class="st107" d="M23.3,197.2h-5.1v-1.4l1.7-1.7c0.6-0.6,1-1.1,1.3-1.4s0.4-0.7,0.4-1s-0.1-0.6-0.3-0.8
		c-0.2-0.2-0.5-0.2-0.8-0.2c-0.5,0-1.1,0-1.8,0.1l-0.3,0l-0.1-1.3c0.8-0.2,1.6-0.4,2.4-0.4c1.7,0,2.5,0.8,2.5,2.3
		c0,0.6-0.1,1.1-0.4,1.5c-0.3,0.4-0.7,1-1.4,1.6l-1.4,1.2h3.3V197.2z"/>
	<path class="st107" d="M25.3,189.7c0.5-0.4,1.2-0.6,2.1-0.6s1.6,0.2,2.1,0.6c0.5,0.4,0.8,0.9,0.8,1.6c0,0.5-0.1,0.8-0.2,1
		c-0.1,0.2-0.3,0.5-0.7,0.8c0.4,0.3,0.6,0.6,0.8,0.8c0.2,0.3,0.2,0.6,0.2,1.1c0,0.8-0.3,1.4-0.8,1.7s-1.3,0.6-2.2,0.6
		c-2,0-3-0.7-3-2.2c0-0.5,0.1-0.9,0.2-1.2s0.4-0.6,0.8-0.9c-0.3-0.3-0.6-0.5-0.7-0.8s-0.2-0.6-0.2-1
		C24.5,190.6,24.8,190.1,25.3,189.7z M26.2,194.8c0,0.7,0.4,1.1,1.2,1.1s1.2-0.4,1.2-1.1c0-0.4-0.2-0.7-0.7-0.9h-1.1
		C26.4,194.1,26.2,194.4,26.2,194.8z M27.4,190.6c-0.4,0-0.6,0.1-0.8,0.2s-0.3,0.4-0.3,0.7s0.2,0.6,0.6,0.9H28
		c0.4-0.3,0.6-0.6,0.6-0.9C28.5,190.9,28.2,190.6,27.4,190.6z"/>
</g>
<g>
	<path class="st107" d="M18.2,158.4c0.7-0.3,1.6-0.4,2.5-0.4c0.9,0,1.6,0.2,2,0.5s0.6,0.9,0.6,1.7c0,0.8-0.3,1.4-0.9,1.8
		c0.4,0.2,0.7,0.4,0.8,0.6s0.2,0.6,0.2,1.1c0,0.9-0.2,1.5-0.6,1.9c-0.4,0.4-1.1,0.6-2.1,0.6c-0.7,0-1.4-0.1-2.2-0.3l-0.4-0.1
		l0.1-1.3c0.9,0.2,1.6,0.2,2.3,0.2c0.8,0,1.2-0.4,1.2-1.1c0-0.3-0.1-0.5-0.3-0.7c-0.2-0.2-0.5-0.3-0.8-0.3H19v-1.4h1.6
		c0.3,0,0.5-0.1,0.7-0.3c0.2-0.2,0.3-0.5,0.3-0.7c0-0.6-0.4-0.9-1.2-0.9c-0.6,0-1.1,0.1-1.8,0.2l-0.3,0L18.2,158.4z"/>
	<path class="st107" d="M30.1,166H25v-1.4l1.7-1.7c0.6-0.6,1-1.1,1.3-1.4c0.2-0.3,0.4-0.7,0.4-1s-0.1-0.6-0.3-0.8
		c-0.2-0.2-0.5-0.2-0.8-0.2c-0.5,0-1.1,0-1.8,0.1l-0.3,0l-0.1-1.3c0.8-0.2,1.6-0.4,2.4-0.4c1.7,0,2.5,0.8,2.5,2.3
		c0,0.6-0.1,1.1-0.4,1.5c-0.3,0.4-0.7,1-1.4,1.6l-1.4,1.2h3.3V166z"/>
</g>
<g>
	<path class="st107" d="M18.1,126.6c0.7-0.3,1.6-0.4,2.5-0.4c0.9,0,1.6,0.2,2,0.5s0.6,0.9,0.6,1.7c0,0.8-0.3,1.4-0.9,1.8
		c0.4,0.2,0.7,0.4,0.8,0.6s0.2,0.6,0.2,1.1c0,0.9-0.2,1.5-0.6,1.9c-0.4,0.4-1.1,0.6-2.1,0.6c-0.7,0-1.4-0.1-2.2-0.3L18,134l0.1-1.3
		c0.9,0.2,1.6,0.2,2.3,0.2c0.8,0,1.2-0.4,1.2-1.1c0-0.3-0.1-0.5-0.3-0.7c-0.2-0.2-0.5-0.3-0.8-0.3h-1.6v-1.4h1.6
		c0.3,0,0.5-0.1,0.7-0.3c0.2-0.2,0.3-0.5,0.3-0.7c0-0.6-0.4-0.9-1.2-0.9c-0.6,0-1.1,0.1-1.8,0.2l-0.3,0L18.1,126.6z"/>
	<path class="st107" d="M30,127.8c-0.8-0.1-1.5-0.2-2.1-0.2c-1.1,0-1.7,0.6-1.7,1.8l0.3-0.1c0.5-0.2,0.9-0.2,1.3-0.2
		c0.9,0,1.6,0.2,2,0.6c0.5,0.4,0.7,1.1,0.7,1.9s-0.3,1.5-0.8,2c-0.5,0.4-1.3,0.7-2.2,0.7s-1.7-0.4-2.2-1.1s-0.7-1.8-0.7-3.1
		s0.3-2.4,0.9-3c0.6-0.7,1.4-1,2.4-1c0.6,0,1.3,0.1,2,0.3l0.4,0.1L30,127.8z M27.6,130.6c-0.4,0-0.8,0.1-1.2,0.2l-0.2,0.1
		c0,1.4,0.4,2.1,1.3,2.1c0.4,0,0.7-0.1,0.9-0.3c0.2-0.2,0.3-0.5,0.3-0.9C28.7,131,28.3,130.6,27.6,130.6z"/>
</g>
<g>
	<path class="st106" d="M21.4,104.1v-1.3H18v-1.3l2-5.4h1.8l-2.1,5.2h1.7v-2.2H23v2.2h0.8v1.4H23v1.3H21.4z"/>
	<path class="st106" d="M25.3,97c0.5-0.7,1.3-1,2.3-1c1,0,1.8,0.3,2.3,1c0.5,0.7,0.8,1.7,0.8,3.2s-0.3,2.5-0.8,3.1
		c-0.5,0.6-1.3,0.9-2.3,0.9c-1,0-1.8-0.3-2.3-0.9s-0.8-1.7-0.8-3.1S24.8,97.7,25.3,97z M29,100.1c0-1-0.1-1.7-0.3-2.1
		c-0.2-0.4-0.6-0.6-1-0.6c-0.5,0-0.8,0.2-1.1,0.6c-0.2,0.4-0.3,1.1-0.3,2.1c0,1,0.1,1.7,0.3,2.1c0.2,0.4,0.6,0.6,1.1,0.6
		c0.5,0,0.8-0.2,1-0.6S29,101.1,29,100.1z"/>
</g>
<g>
	<path class="st106" d="M21.3,72.5v-1.3H18V70l2-5.4h1.8l-2.1,5.2h1.7v-2.2H23v2.2h0.8v1.4H23v1.3H21.3z"/>
	<path class="st106" d="M28,72.5v-1.3h-3.4V70l2-5.4h1.8l-2.1,5.2H28v-2.2h1.7v2.2h0.8v1.4h-0.8v1.3H28z"/>
</g>
<line class="st111" x1="29.3" y1="380.9" x2="42.1" y2="380.9"/>
<line class="st111" x1="6.7" y1="412" x2="18.2" y2="412"/>
<line class="st111" x1="42.5" y1="412" x2="29.2" y2="412"/>
<line class="st111" x1="6" y1="443.2" x2="17.9" y2="443.2"/>
<line class="st111" x1="42.3" y1="443.2" x2="30.9" y2="443.2"/>
<line class="st111" x1="6.1" y1="474.3" x2="17.9" y2="474.3"/>
<line class="st111" x1="42.3" y1="474.3" x2="30.9" y2="474.3"/>
<line class="st111" x1="42.1" y1="505.5" x2="33.2" y2="505.5"/>
<line class="st111" x1="6.5" y1="505.5" x2="14.2" y2="505.4"/>
<line class="st111" x1="6.5" y1="567.7" x2="12.3" y2="567.8"/>
<line class="st111" x1="41.9" y1="568" x2="33.2" y2="568"/>
<line class="st111" x1="6.9" y1="598.9" x2="13.3" y2="598.9"/>
<line class="st111" x1="42.5" y1="598.9" x2="34" y2="598.9"/>
<line class="st111" x1="5.9" y1="629.8" x2="14.1" y2="629.8"/>
<line class="st111" x1="42.1" y1="629.8" x2="34" y2="629.8"/>
<line class="st111" x1="6.1" y1="536.6" x2="14.2" y2="536.6"/>
<line class="st111" x1="42.5" y1="536.6" x2="33.6" y2="536.6"/>
<line class="st111" x1="6.7" y1="349.8" x2="18.3" y2="349.8"/>
<line class="st111" x1="29.2" y1="349.6" x2="42.1" y2="349.6"/>
<line class="st111" x1="6.6" y1="318.6" x2="18.1" y2="318.6"/>
<line class="st111" x1="30.3" y1="318.6" x2="42.1" y2="318.6"/>
<line class="st111" x1="5.5" y1="287.4" x2="18.2" y2="287.4"/>
<line class="st111" x1="42.2" y1="287.4" x2="31" y2="287.4"/>
<line class="st111" x1="6.7" y1="256.3" x2="17.5" y2="256.3"/>
<line class="st111" x1="42.5" y1="256.3" x2="31.6" y2="256.3"/>
<line class="st111" x1="6.7" y1="225.2" x2="17.7" y2="225.2"/>
<line class="st111" x1="42.7" y1="225.1" x2="31.6" y2="225.1"/>
<line class="st111" x1="6.1" y1="193.8" x2="18.2" y2="193.8"/>
<line class="st111" x1="42" y1="194" x2="31" y2="194"/>
<line class="st111" x1="18" y1="162.7" x2="5.5" y2="162.7"/>
<line class="st111" x1="42" y1="162.9" x2="31" y2="162.9"/>
<line class="st111" x1="6.1" y1="131.7" x2="18.1" y2="131.7"/>
<line class="st111" x1="42.8" y1="131.7" x2="31.6" y2="131.7"/>
<line class="st111" x1="6.5" y1="100.5" x2="17.5" y2="100.6"/>
<line class="st111" x1="42.8" y1="100.6" x2="31.4" y2="100.6"/>
<line class="st111" x1="6.7" y1="69.3" x2="17.4" y2="69.3"/>
<line class="st111" x1="31.1" y1="69.3" x2="42.8" y2="69.3"/>
<line class="st111" x1="6.9" y1="646" x2="43.4" y2="646"/>
</svg>
