<?xml version="1.0" encoding="utf-8"?>
<!-- Generator: Adobe Illustrator 16.0.0, SVG Export Plug-In . SVG Version: 6.00 Build 0)  -->
<!DOCTYPE svg PUBLIC "-//W3C//DTD SVG 1.1//EN" "http://www.w3.org/Graphics/SVG/1.1/DTD/svg11.dtd">
<svg version="1.1" id="Livello_1" xmlns="http://www.w3.org/2000/svg" xmlns:xlink="http://www.w3.org/1999/xlink" x="0px" y="0px"
	 width="30.813px" height="594.665px" viewBox="4.656 71.901 30.813 594.665" enable-background="new 4.656 71.901 30.813 594.665"
	 xml:space="preserve">
<g>
	<g>
		<defs>
			<path id="SVGID_1_" d="M30.678,655.023c-0.316,3.429-5.672,7.51-10.307,7.51l0,0c-4.592,0.367-10.877-3.316-10.877-7.51V116.776
				c1.023-4.94,6.494-7.797,10.183-7.792l0,0c4.296-0.006,9.896,2.929,11.001,7.984V655.023L30.678,655.023z"/>
		</defs>
		<clipPath id="SVGID_2_">
			<use xlink:href="#SVGID_1_"  overflow="visible"/>
		</clipPath>
		<g clip-path="url(#SVGID_2_)">
			<rect x="2.632" y="110.207" fill="#F59826" width="42.344" height="13.766"/>
			<rect x="-1.365" y="123.442" fill="#FDCC22" width="41.926" height="13.106"/>
			<rect x="-1.365" y="136.548" fill="#6655AD" width="41.926" height="13.106"/>
			<rect x="-1.365" y="149.654" fill="#975EAD" width="41.926" height="13.106"/>
			<rect x="-1.365" y="162.76" fill="#C66AAF" width="41.926" height="13.106"/>
			<rect x="-1.365" y="175.867" fill="#AF48A1" width="41.926" height="13.105"/>
			<rect x="-1.365" y="188.972" fill="#981595" width="41.926" height="13.107"/>
			<rect x="-1.365" y="202.08" fill="#660666" width="41.926" height="13.105"/>
			<rect x="-1.365" y="215.185" fill="#640E0E" width="41.926" height="13.105"/>
			<rect x="-1.365" y="228.291" fill="#991E1F" width="41.926" height="13.106"/>
			<rect x="-1.365" y="241.398" fill="#CB2527" width="41.926" height="13.106"/>
			<rect x="-1.365" y="254.503" fill="#EC2426" width="41.926" height="13.105"/>
			<rect x="-1.365" y="267.609" fill="#F06626" width="41.926" height="13.107"/>
			<rect x="-1.365" y="280.716" fill="#F59826" width="41.926" height="13.105"/>
			<rect x="-1.365" y="293.822" fill="#FDCC22" width="41.926" height="13.106"/>
			<rect x="-1.365" y="306.928" fill="#FCFC1E" width="41.926" height="13.105"/>
			<rect x="-1.365" y="320.035" fill="#CBE436" width="41.926" height="13.105"/>
			<rect x="-1.365" y="333.14" fill="#7ECB47" width="41.926" height="13.107"/>
			<rect x="-1.365" y="346.248" fill="#0EB04E" width="41.926" height="13.105"/>
			<rect x="-1.365" y="359.353" fill="#37BD7C" width="41.926" height="13.104"/>
			<rect x="-1.365" y="372.457" fill="#58C3BA" width="41.926" height="13.106"/>
			<rect x="-1.365" y="385.563" fill="#6FC9DC" width="41.926" height="13.106"/>
			<rect x="-1.365" y="398.67" fill="#33BCF3" width="41.926" height="13.107"/>
			<rect x="-1.365" y="411.777" fill="#498DD2" width="41.926" height="13.106"/>
			<rect x="-1.365" y="424.886" fill="#4469BB" width="41.926" height="13.105"/>
			<rect x="-1.365" y="437.991" fill="#3F57B0" width="41.926" height="13.104"/>
			<rect x="-1.365" y="451.095" fill="#6655AD" width="41.926" height="13.107"/>
			<rect x="-1.365" y="464.202" fill="#975EAD" width="41.926" height="13.105"/>
			<rect x="-1.365" y="477.309" fill="#C66AAF" width="41.926" height="13.104"/>
			<rect x="-1.365" y="490.413" fill="#AF48A1" width="41.926" height="13.106"/>
			<rect x="-1.365" y="503.52" fill="#981595" width="41.926" height="13.108"/>
			<rect x="-1.365" y="516.628" fill="#660666" width="41.926" height="13.104"/>
			<rect x="-1.365" y="529.732" fill="#640E0E" width="41.926" height="13.105"/>
			<rect x="-1.365" y="542.837" fill="#991E1F" width="41.926" height="13.109"/>
			<rect x="-1.365" y="555.946" fill="#CB2527" width="41.926" height="13.104"/>
			<rect x="-1.365" y="569.051" fill="#EC2426" width="41.926" height="13.104"/>
			<rect x="-1.365" y="582.155" fill="#F06626" width="41.926" height="13.11"/>
			<rect x="-1.365" y="595.266" fill="#F59826" width="41.926" height="13.104"/>
			<rect x="-1.365" y="608.369" fill="#FDCC22" width="41.927" height="55.544"/>
		</g>
	</g>
</g>
<g>
	<path fill="#39322E" d="M16.475,651.583c-0.729-0.396-1.301-0.945-1.715-1.645c-0.414-0.7-0.621-1.489-0.621-2.368
		s0.209-1.669,0.627-2.368s0.992-1.248,1.721-1.645c0.729-0.397,1.547-0.596,2.451-0.596c0.734,0,1.404,0.128,2.01,0.384
		c0.607,0.256,1.117,0.627,1.537,1.114l-1.076,1.012c-0.649-0.7-1.446-1.051-2.393-1.051c-0.615,0-1.165,0.135-1.651,0.403
		s-0.867,0.643-1.14,1.12c-0.272,0.479-0.409,1.02-0.409,1.625s0.137,1.148,0.409,1.625c0.273,0.479,0.653,0.852,1.14,1.12
		c0.486,0.269,1.037,0.403,1.651,0.403c0.947,0,1.745-0.354,2.393-1.063l1.076,1.023c-0.418,0.487-0.933,0.858-1.543,1.114
		c-0.611,0.257-1.283,0.384-2.016,0.384C18.022,652.179,17.205,651.979,16.475,651.583z"/>
	<path fill="#39322E" d="M24.585,646.988c-0.333-0.192-0.596-0.45-0.787-0.774s-0.288-0.684-0.288-1.075
		c0-0.394,0.097-0.753,0.288-1.082c0.191-0.328,0.454-0.589,0.787-0.781c0.332-0.193,0.699-0.288,1.101-0.288
		s0.769,0.096,1.101,0.288c0.333,0.192,0.596,0.452,0.787,0.781c0.191,0.328,0.288,0.688,0.288,1.082
		c0,0.392-0.097,0.751-0.288,1.075s-0.454,0.582-0.787,0.774c-0.332,0.191-0.699,0.288-1.101,0.288S24.917,647.18,24.585,646.988z
		 M26.6,646.061c0.244-0.248,0.365-0.555,0.365-0.921c0-0.376-0.121-0.687-0.365-0.935s-0.549-0.372-0.916-0.372
		s-0.675,0.124-0.921,0.372c-0.247,0.247-0.372,0.559-0.372,0.935c0,0.366,0.125,0.674,0.372,0.921s0.554,0.371,0.921,0.371
		S26.356,646.308,26.6,646.061z"/>
</g>
<g>
	<path fill="#39322E" d="M20.196,118.466h-0.892v1.145h-0.908v-1.145h-2.765v-0.649l2.484-3.247h1l-2.34,3.103h1.648v-1.015h0.88
		v1.015h0.892V118.466z"/>
	<path fill="#39322E" d="M23.774,116.69c0.264,0.127,0.471,0.309,0.619,0.544c0.148,0.235,0.223,0.506,0.223,0.814
		c0,0.326-0.082,0.614-0.244,0.86c-0.164,0.248-0.385,0.438-0.663,0.572s-0.591,0.202-0.937,0.202c-0.691,0-1.227-0.216-1.609-0.648
		c-0.381-0.432-0.572-1.051-0.572-1.858c0-0.566,0.104-1.05,0.311-1.45c0.206-0.4,0.495-0.706,0.867-0.915
		c0.371-0.208,0.803-0.313,1.293-0.313c0.258,0,0.502,0.027,0.729,0.083c0.228,0.056,0.426,0.136,0.594,0.241l-0.345,0.706
		c-0.252-0.164-0.569-0.246-0.959-0.246c-0.482,0-0.863,0.15-1.137,0.447c-0.273,0.298-0.41,0.727-0.41,1.288v0.008
		c0.148-0.173,0.338-0.304,0.568-0.393c0.23-0.088,0.489-0.133,0.777-0.133C23.213,116.5,23.51,116.563,23.774,116.69z
		 M23.436,118.714c0.182-0.156,0.273-0.364,0.273-0.623c0-0.264-0.092-0.473-0.273-0.626c-0.184-0.154-0.428-0.23-0.734-0.23
		c-0.303,0-0.549,0.083-0.738,0.245c-0.189,0.163-0.285,0.37-0.285,0.619c0,0.245,0.093,0.448,0.277,0.608
		c0.186,0.161,0.441,0.241,0.768,0.241C23.016,118.947,23.253,118.87,23.436,118.714z"/>
</g>
<g>
	<path fill="#39322E" d="M20.368,144.556h-0.892v1.145h-0.908v-1.145h-2.765v-0.648l2.484-3.247h1l-2.34,3.103h1.649v-1.015h0.879
		v1.015h0.892V144.556z"/>
	<path fill="#39322E" d="M24.393,144.909v0.792h-3.715v-0.627l2.002-1.9c0.225-0.216,0.377-0.404,0.457-0.566
		c0.078-0.161,0.117-0.32,0.117-0.478c0-0.235-0.078-0.415-0.237-0.54s-0.391-0.188-0.698-0.188c-0.514,0-0.907,0.175-1.182,0.526
		l-0.655-0.504c0.197-0.264,0.461-0.469,0.795-0.616c0.334-0.146,0.707-0.219,1.119-0.219c0.549,0,0.984,0.13,1.311,0.389
		c0.326,0.259,0.49,0.612,0.49,1.059c0,0.273-0.059,0.53-0.174,0.771s-0.336,0.514-0.662,0.821l-1.345,1.281H24.393z"/>
</g>
<g>
	<path fill="#39322E" d="M19.174,171.263c0.245,0.259,0.367,0.583,0.367,0.972c0,0.293-0.074,0.56-0.224,0.799
		c-0.148,0.24-0.374,0.431-0.673,0.573s-0.666,0.212-1.098,0.212c-0.36,0-0.707-0.051-1.041-0.154
		c-0.333-0.103-0.618-0.246-0.853-0.429l0.403-0.728c0.184,0.154,0.406,0.275,0.667,0.364c0.262,0.089,0.531,0.134,0.811,0.134
		c0.331,0,0.59-0.069,0.781-0.206c0.189-0.137,0.284-0.323,0.284-0.558c0-0.235-0.09-0.418-0.27-0.55
		c-0.181-0.132-0.455-0.198-0.824-0.198h-0.461v-0.641l1.145-1.361h-2.289v-0.785h3.435v0.627l-1.224,1.454
		C18.573,170.845,18.929,171.002,19.174,171.263z"/>
	<path fill="#39322E" d="M24.03,171.583c0.143,0.204,0.213,0.443,0.213,0.717c0,0.307-0.085,0.576-0.256,0.806
		c-0.17,0.23-0.411,0.407-0.723,0.529c-0.313,0.122-0.674,0.183-1.087,0.183s-0.774-0.061-1.083-0.183
		c-0.31-0.123-0.549-0.299-0.717-0.529c-0.168-0.23-0.25-0.499-0.25-0.806c0-0.274,0.069-0.512,0.208-0.717
		c0.139-0.204,0.338-0.366,0.597-0.485c-0.201-0.111-0.356-0.255-0.464-0.435c-0.108-0.18-0.162-0.388-0.162-0.623
		c0-0.283,0.078-0.53,0.234-0.741c0.155-0.211,0.375-0.375,0.659-0.49c0.282-0.115,0.609-0.173,0.979-0.173
		c0.374,0,0.703,0.058,0.986,0.173s0.504,0.278,0.662,0.49c0.158,0.211,0.238,0.458,0.238,0.741c0,0.235-0.056,0.442-0.166,0.619
		c-0.111,0.178-0.269,0.324-0.476,0.439C23.685,171.217,23.888,171.378,24.03,171.583z M22.998,172.868
		c0.202-0.144,0.302-0.343,0.302-0.598c0-0.25-0.1-0.446-0.302-0.59s-0.476-0.216-0.821-0.216s-0.616,0.072-0.813,0.216
		c-0.197,0.144-0.296,0.341-0.296,0.59c0,0.254,0.099,0.454,0.296,0.598c0.196,0.144,0.467,0.216,0.813,0.216
		S22.796,173.012,22.998,172.868z M21.481,169.556c-0.17,0.125-0.254,0.3-0.254,0.526c0,0.216,0.084,0.388,0.254,0.515
		c0.17,0.127,0.402,0.19,0.695,0.19c0.297,0,0.532-0.063,0.705-0.19c0.174-0.127,0.26-0.299,0.26-0.515
		c0-0.226-0.088-0.401-0.264-0.526c-0.176-0.125-0.408-0.187-0.701-0.187S21.651,169.432,21.481,169.556z"/>
</g>
<g>
	<path fill="#39322E" d="M19.052,195.783c0.245,0.26,0.367,0.583,0.367,0.972c0,0.293-0.075,0.559-0.223,0.799
		c-0.149,0.24-0.374,0.431-0.674,0.573c-0.3,0.142-0.666,0.212-1.098,0.212c-0.36,0-0.707-0.051-1.041-0.154
		s-0.618-0.247-0.853-0.429l0.403-0.727c0.184,0.153,0.404,0.274,0.666,0.364c0.262,0.089,0.531,0.134,0.811,0.134
		c0.331,0,0.591-0.069,0.782-0.206c0.188-0.137,0.284-0.322,0.284-0.557c0-0.235-0.09-0.418-0.271-0.551
		c-0.18-0.132-0.454-0.198-0.824-0.198h-0.46v-0.641l1.145-1.36h-2.289v-0.785h3.435v0.626l-1.224,1.454
		C18.451,195.366,18.805,195.524,19.052,195.783z"/>
	<path fill="#39322E" d="M24.524,197.123h-0.893v1.145h-0.908v-1.145h-2.765v-0.648l2.483-3.247h1.001l-2.34,3.103h1.649v-1.015
		h0.879v1.015h0.893V197.123z"/>
</g>
<g>
	<path fill="#39322E" d="M19.756,223.061c0.245,0.259,0.367,0.583,0.367,0.972c0,0.292-0.075,0.559-0.223,0.799
		s-0.374,0.431-0.673,0.572c-0.3,0.142-0.667,0.213-1.099,0.213c-0.36,0-0.707-0.051-1.041-0.154s-0.618-0.246-0.853-0.429
		l0.403-0.726c0.184,0.153,0.405,0.274,0.667,0.363s0.531,0.134,0.81,0.134c0.332,0,0.591-0.069,0.782-0.206
		c0.189-0.137,0.284-0.322,0.284-0.558s-0.09-0.418-0.271-0.551c-0.18-0.132-0.454-0.198-0.823-0.198h-0.461v-0.641l1.145-1.361
		h-2.289v-0.784h3.434v0.626l-1.223,1.454C19.156,222.644,19.51,222.801,19.756,223.061z"/>
	<path fill="#39322E" d="M21.759,225.311c-0.318-0.204-0.566-0.501-0.75-0.893c-0.183-0.39-0.273-0.855-0.273-1.393
		s0.091-1.002,0.273-1.393c0.184-0.391,0.432-0.689,0.75-0.893c0.316-0.204,0.676-0.306,1.08-0.306c0.402,0,0.764,0.102,1.084,0.306
		c0.317,0.204,0.568,0.502,0.751,0.893c0.183,0.391,0.273,0.855,0.273,1.393s-0.091,1.002-0.273,1.393
		c-0.183,0.392-0.434,0.689-0.751,0.893c-0.32,0.204-0.682,0.306-1.084,0.306C22.434,225.617,22.075,225.515,21.759,225.311z
		 M23.692,224.356c0.208-0.298,0.313-0.741,0.313-1.332c0-0.59-0.104-1.034-0.313-1.332c-0.211-0.297-0.494-0.446-0.854-0.446
		c-0.355,0-0.638,0.149-0.846,0.446c-0.211,0.298-0.314,0.742-0.314,1.332c0,0.591,0.104,1.034,0.314,1.332
		c0.208,0.298,0.489,0.447,0.846,0.447C23.197,224.804,23.481,224.654,23.692,224.356z"/>
</g>
<g>
	<path fill="#39322E" d="M19.881,249.713v0.792h-3.716v-0.626l2.001-1.9c0.225-0.216,0.378-0.404,0.457-0.566
		c0.079-0.161,0.119-0.32,0.119-0.479c0-0.235-0.08-0.415-0.238-0.54c-0.158-0.125-0.391-0.187-0.699-0.187
		c-0.514,0-0.907,0.175-1.181,0.525l-0.655-0.504c0.197-0.264,0.462-0.469,0.795-0.616c0.333-0.146,0.707-0.22,1.12-0.22
		c0.547,0,0.983,0.13,1.31,0.389c0.327,0.259,0.49,0.612,0.49,1.058c0,0.274-0.058,0.531-0.172,0.771
		c-0.116,0.24-0.336,0.513-0.663,0.82l-1.347,1.282H19.881L19.881,249.713z"/>
	<path fill="#39322E" d="M23.581,247.586c0.265,0.127,0.471,0.309,0.619,0.543c0.149,0.235,0.223,0.506,0.223,0.814
		c0,0.326-0.081,0.613-0.244,0.86c-0.164,0.247-0.385,0.438-0.662,0.572c-0.279,0.134-0.592,0.202-0.937,0.202
		c-0.691,0-1.228-0.216-1.61-0.648c-0.381-0.432-0.572-1.051-0.572-1.858c0-0.566,0.103-1.05,0.31-1.451
		c0.207-0.4,0.494-0.705,0.867-0.914c0.372-0.209,0.803-0.314,1.293-0.314c0.258,0,0.502,0.028,0.73,0.083
		c0.228,0.055,0.426,0.136,0.594,0.242l-0.346,0.706c-0.251-0.164-0.568-0.245-0.958-0.245c-0.484,0-0.864,0.148-1.138,0.446
		c-0.273,0.298-0.41,0.728-0.41,1.289v0.007c0.148-0.173,0.338-0.303,0.568-0.393s0.49-0.134,0.777-0.134
		C23.018,247.395,23.317,247.459,23.581,247.586z M23.243,249.609c0.182-0.156,0.273-0.364,0.273-0.623
		c0-0.264-0.092-0.473-0.273-0.626c-0.184-0.153-0.428-0.23-0.734-0.23c-0.303,0-0.549,0.083-0.738,0.245
		c-0.189,0.163-0.284,0.37-0.284,0.619c0,0.245,0.093,0.448,0.277,0.609s0.44,0.241,0.767,0.241
		C22.822,249.843,23.059,249.766,23.243,249.609z"/>
</g>
<g>
	<path fill="#39322E" d="M19.818,277.041v0.792h-3.715v-0.626l2.001-1.901c0.224-0.216,0.377-0.404,0.456-0.565
		c0.08-0.161,0.119-0.32,0.119-0.479c0-0.235-0.08-0.416-0.238-0.54c-0.159-0.125-0.391-0.188-0.698-0.188
		c-0.515,0-0.907,0.175-1.182,0.526l-0.654-0.504c0.197-0.264,0.461-0.469,0.795-0.616c0.333-0.146,0.707-0.219,1.119-0.219
		c0.548,0,0.984,0.129,1.31,0.389c0.327,0.259,0.49,0.612,0.49,1.058c0,0.274-0.058,0.53-0.172,0.771
		c-0.116,0.24-0.336,0.514-0.663,0.821l-1.346,1.282H19.818z"/>
	<path fill="#39322E" d="M24.01,277.041v0.792h-3.716v-0.626l2.002-1.901c0.225-0.216,0.378-0.404,0.457-0.565
		c0.078-0.161,0.119-0.32,0.119-0.479c0-0.235-0.08-0.416-0.238-0.54c-0.158-0.125-0.391-0.188-0.699-0.188
		c-0.514,0-0.906,0.175-1.181,0.526l-0.655-0.504c0.197-0.264,0.462-0.469,0.795-0.616c0.334-0.146,0.707-0.219,1.12-0.219
		c0.548,0,0.983,0.129,1.31,0.389c0.327,0.259,0.49,0.612,0.49,1.058c0,0.274-0.058,0.53-0.172,0.771
		c-0.116,0.24-0.336,0.514-0.663,0.821l-1.347,1.282H24.01z"/>
</g>
<g>
	<path fill="#39322E" d="M18.75,297.746v5.04h-0.936v-4.255h-1.066v-0.785H18.75z"/>
	<path fill="#39322E" d="M23.628,300.623c0.143,0.204,0.213,0.443,0.213,0.717c0,0.307-0.085,0.576-0.256,0.806
		c-0.17,0.23-0.411,0.406-0.723,0.529c-0.313,0.123-0.674,0.183-1.087,0.183s-0.774-0.061-1.083-0.183
		c-0.31-0.123-0.549-0.299-0.717-0.529c-0.168-0.23-0.251-0.499-0.251-0.806c0-0.274,0.07-0.512,0.209-0.717
		c0.139-0.205,0.338-0.367,0.598-0.486c-0.202-0.11-0.356-0.255-0.465-0.436c-0.108-0.18-0.162-0.387-0.162-0.622
		c0-0.283,0.078-0.53,0.234-0.741c0.155-0.211,0.375-0.375,0.659-0.49c0.283-0.115,0.61-0.172,0.979-0.172
		c0.374,0,0.703,0.057,0.986,0.172s0.504,0.279,0.662,0.49c0.158,0.211,0.237,0.458,0.237,0.741c0,0.235-0.055,0.441-0.165,0.619
		c-0.111,0.178-0.27,0.324-0.476,0.439C23.283,300.257,23.486,300.418,23.628,300.623z M22.594,301.908
		c0.203-0.145,0.303-0.344,0.303-0.598c0-0.25-0.1-0.447-0.303-0.591c-0.201-0.144-0.475-0.216-0.82-0.216s-0.617,0.072-0.814,0.216
		c-0.196,0.144-0.294,0.341-0.294,0.591c0,0.254,0.098,0.453,0.294,0.598c0.197,0.144,0.469,0.216,0.814,0.216
		S22.393,302.052,22.594,301.908z M21.079,298.596c-0.17,0.125-0.255,0.3-0.255,0.526c0,0.216,0.085,0.388,0.255,0.515
		s0.402,0.19,0.695,0.19c0.297,0,0.532-0.063,0.705-0.19c0.174-0.127,0.26-0.299,0.26-0.515c0-0.226-0.088-0.401-0.264-0.526
		c-0.176-0.125-0.408-0.187-0.701-0.187S21.249,298.471,21.079,298.596z"/>
</g>
<g>
	<path fill="#39322E" d="M18.99,322.832v5.04h-0.936v-4.254h-1.065v-0.785L18.99,322.832L18.99,322.832z"/>
	<path fill="#39322E" d="M24.482,326.727h-0.892v1.145h-0.908v-1.145h-2.764v-0.648l2.483-3.247h1.002l-2.34,3.103h1.648v-1.015
		h0.879v1.015h0.892V326.727z"/>
</g>
<g>
	<path fill="#39322E" d="M18.213,349.71v5.04h-0.936v-4.255h-1.065v-0.785H18.213z"/>
	<path fill="#39322E" d="M20.235,354.516c-0.317-0.204-0.566-0.501-0.749-0.893c-0.184-0.391-0.274-0.855-0.274-1.393
		c0-0.537,0.09-1.001,0.274-1.394c0.182-0.392,0.432-0.688,0.749-0.893c0.316-0.204,0.677-0.306,1.08-0.306
		c0.404,0,0.765,0.102,1.084,0.306c0.318,0.205,0.57,0.502,0.752,0.893c0.183,0.392,0.273,0.856,0.273,1.394
		c0,0.538-0.091,1.002-0.273,1.393c-0.184,0.392-0.434,0.689-0.752,0.893c-0.319,0.204-0.682,0.306-1.084,0.306
		C20.912,354.822,20.553,354.72,20.235,354.516z M22.169,353.563c0.209-0.297,0.313-0.742,0.313-1.332s-0.104-1.034-0.313-1.332
		c-0.209-0.297-0.494-0.446-0.854-0.446c-0.354,0-0.637,0.149-0.846,0.446c-0.209,0.298-0.313,0.742-0.313,1.332
		s0.104,1.035,0.313,1.332c0.208,0.298,0.49,0.446,0.846,0.446C21.675,354.009,21.96,353.86,22.169,353.563z"/>
</g>
<g>
	<path fill="#39322E" d="M20.893,380.812c0.265,0.127,0.471,0.309,0.62,0.543c0.148,0.235,0.222,0.508,0.222,0.813
		c0,0.327-0.081,0.614-0.244,0.861c-0.164,0.247-0.384,0.438-0.663,0.571c-0.278,0.135-0.591,0.202-0.936,0.202
		c-0.691,0-1.228-0.216-1.609-0.647c-0.382-0.433-0.572-1.051-0.572-1.857c0-0.567,0.103-1.051,0.309-1.451
		c0.207-0.399,0.496-0.705,0.867-0.914c0.372-0.209,0.803-0.313,1.293-0.313c0.259,0,0.502,0.028,0.73,0.083
		c0.229,0.055,0.426,0.137,0.594,0.242l-0.346,0.705c-0.25-0.163-0.569-0.245-0.958-0.245c-0.484,0-0.864,0.149-1.138,0.446
		c-0.273,0.298-0.41,0.728-0.41,1.289v0.008c0.148-0.173,0.338-0.304,0.569-0.394c0.23-0.089,0.49-0.134,0.777-0.134
		C20.332,380.62,20.63,380.684,20.893,380.812z M20.555,382.834c0.182-0.155,0.273-0.364,0.273-0.622
		c0-0.264-0.091-0.474-0.273-0.627c-0.183-0.152-0.427-0.23-0.734-0.23c-0.302,0-0.548,0.082-0.738,0.245
		c-0.19,0.164-0.284,0.37-0.284,0.619c0,0.245,0.092,0.448,0.278,0.608c0.184,0.161,0.441,0.241,0.767,0.241
		C20.135,383.068,20.373,382.991,20.555,382.834z"/>
</g>
<g>
	<path fill="#39322E" d="M22.69,407.125v0.792h-3.715v-0.626l2.002-1.901c0.225-0.215,0.377-0.403,0.457-0.564
		c0.078-0.161,0.117-0.319,0.117-0.479c0-0.235-0.078-0.416-0.237-0.541c-0.159-0.124-0.391-0.187-0.699-0.187
		c-0.514,0-0.907,0.175-1.181,0.525l-0.655-0.505c0.197-0.263,0.462-0.469,0.795-0.615s0.707-0.219,1.12-0.219
		c0.548,0,0.984,0.129,1.31,0.388s0.49,0.612,0.49,1.059c0,0.273-0.059,0.53-0.174,0.771c-0.115,0.239-0.336,0.514-0.662,0.82
		l-1.346,1.281L22.69,407.125L22.69,407.125z"/>
</g>
<g>
	<path fill="#39322E" d="M16.606,433.721h1.98v0.749h-1.98V433.721z"/>
	<path fill="#39322E" d="M22.841,435.304v0.792h-3.715v-0.626l2.002-1.9c0.225-0.217,0.377-0.405,0.457-0.565
		c0.078-0.161,0.117-0.32,0.117-0.479c0-0.235-0.078-0.415-0.236-0.54c-0.159-0.125-0.393-0.188-0.699-0.188
		c-0.514,0-0.907,0.176-1.181,0.526l-0.655-0.504c0.197-0.265,0.462-0.47,0.795-0.616c0.333-0.147,0.707-0.22,1.12-0.22
		c0.548,0,0.983,0.13,1.31,0.389c0.327,0.26,0.49,0.612,0.49,1.058c0,0.274-0.058,0.53-0.174,0.771
		c-0.114,0.239-0.336,0.514-0.661,0.82l-1.347,1.282H22.841L22.841,435.304z"/>
</g>
<g>
	<path fill="#39322E" d="M16.442,457.828h1.98v0.749h-1.98V457.828z"/>
	<path fill="#39322E" d="M22.352,457.284c0.264,0.128,0.471,0.309,0.619,0.544s0.223,0.507,0.223,0.814
		c0,0.325-0.082,0.613-0.244,0.859c-0.164,0.248-0.385,0.438-0.663,0.573s-0.591,0.201-0.937,0.201
		c-0.691,0-1.227-0.216-1.609-0.648c-0.382-0.432-0.572-1.051-0.572-1.857c0-0.565,0.103-1.05,0.309-1.45
		c0.207-0.399,0.496-0.705,0.867-0.914c0.372-0.21,0.803-0.313,1.293-0.313c0.258,0,0.502,0.027,0.73,0.083
		c0.227,0.054,0.425,0.136,0.593,0.241l-0.345,0.706c-0.25-0.163-0.569-0.245-0.959-0.245c-0.482,0-0.864,0.148-1.137,0.446
		s-0.41,0.727-0.41,1.288v0.008c0.148-0.173,0.338-0.304,0.569-0.393c0.23-0.088,0.49-0.133,0.777-0.133
		C21.791,457.094,22.089,457.157,22.352,457.284z M22.014,459.308c0.182-0.156,0.273-0.363,0.273-0.623
		c0-0.264-0.092-0.473-0.273-0.626c-0.184-0.153-0.428-0.23-0.734-0.23c-0.303,0-0.549,0.082-0.739,0.245s-0.284,0.37-0.284,0.619
		c0,0.244,0.092,0.448,0.278,0.607c0.184,0.161,0.44,0.242,0.766,0.242C21.594,459.542,21.831,459.464,22.014,459.308z"/>
</g>
<g>
	<path fill="#39322E" d="M14.971,484.778h1.98v0.749h-1.98V484.778z"/>
	<path fill="#39322E" d="M19.262,482.114v5.041h-0.936v-4.256H17.26v-0.784L19.262,482.114L19.262,482.114z"/>
	<path fill="#39322E" d="M21.284,486.92c-0.316-0.205-0.566-0.501-0.749-0.893c-0.183-0.392-0.273-0.855-0.273-1.394
		c0-0.537,0.09-1.002,0.273-1.393c0.183-0.392,0.432-0.688,0.749-0.894c0.316-0.204,0.678-0.306,1.081-0.306
		s0.765,0.102,1.083,0.306c0.318,0.205,0.57,0.502,0.752,0.894c0.184,0.391,0.274,0.855,0.274,1.393
		c0,0.538-0.091,1.002-0.274,1.394c-0.183,0.392-0.434,0.688-0.752,0.893c-0.318,0.204-0.681,0.306-1.083,0.306
		C21.962,487.226,21.602,487.124,21.284,486.92z M23.218,485.966c0.209-0.298,0.314-0.741,0.314-1.332
		c0-0.59-0.105-1.034-0.314-1.332c-0.209-0.297-0.493-0.446-0.853-0.446c-0.354,0-0.638,0.149-0.847,0.446
		c-0.209,0.298-0.313,0.742-0.313,1.332c0,0.591,0.104,1.034,0.313,1.332s0.491,0.447,0.847,0.447
		C22.724,486.413,23.01,486.264,23.218,485.966z"/>
</g>
<g>
	<path fill="#39322E" d="M15.206,511.716h1.979v0.749h-1.979V511.716z"/>
	<path fill="#39322E" d="M19.498,509.052v5.04h-0.936v-4.255h-1.066v-0.784L19.498,509.052L19.498,509.052z"/>
	<path fill="#39322E" d="M24.991,512.947h-0.892v1.145H23.19v-1.145h-2.764v-0.648l2.485-3.248h1l-2.34,3.104h1.648v-1.016h0.88
		v1.016h0.892V512.947z"/>
</g>
<g>
	<path fill="#39322E" d="M15.735,537.835h1.98v0.75h-1.98V537.835z"/>
	<path fill="#39322E" d="M20.028,535.171v5.041h-0.937v-4.256h-1.065v-0.784L20.028,535.171L20.028,535.171z"/>
	<path fill="#39322E" d="M24.904,538.049c0.142,0.204,0.212,0.442,0.212,0.716c0,0.308-0.084,0.576-0.254,0.807
		c-0.172,0.23-0.412,0.407-0.724,0.529c-0.313,0.122-0.675,0.184-1.087,0.184c-0.413,0-0.775-0.062-1.084-0.184
		s-0.549-0.299-0.717-0.529s-0.25-0.499-0.25-0.807c0-0.273,0.068-0.512,0.208-0.716s0.339-0.366,0.598-0.486
		c-0.202-0.11-0.356-0.256-0.465-0.436s-0.161-0.388-0.161-0.623c0-0.282,0.078-0.53,0.234-0.741
		c0.154-0.212,0.375-0.375,0.658-0.489c0.283-0.116,0.609-0.173,0.979-0.173c0.375,0,0.703,0.057,0.986,0.173
		c0.283,0.115,0.504,0.278,0.663,0.489c0.157,0.211,0.237,0.458,0.237,0.741c0,0.235-0.055,0.442-0.166,0.619
		c-0.11,0.178-0.268,0.324-0.475,0.439C24.56,537.683,24.763,537.845,24.904,538.049z M23.872,539.333
		c0.201-0.145,0.302-0.344,0.302-0.598c0-0.25-0.101-0.447-0.302-0.59c-0.202-0.144-0.476-0.217-0.822-0.217
		c-0.345,0-0.615,0.072-0.813,0.217c-0.197,0.144-0.295,0.341-0.295,0.59c0,0.254,0.098,0.453,0.295,0.598s0.468,0.217,0.813,0.217
		C23.397,539.55,23.67,539.478,23.872,539.333z M22.356,536.021c-0.171,0.125-0.256,0.3-0.256,0.525
		c0,0.217,0.085,0.387,0.256,0.515c0.17,0.129,0.4,0.191,0.693,0.191c0.299,0,0.533-0.063,0.706-0.191
		c0.175-0.127,0.259-0.298,0.259-0.515c0-0.226-0.086-0.4-0.262-0.525c-0.176-0.124-0.41-0.187-0.703-0.187
		S22.526,535.896,22.356,536.021z"/>
</g>
<g>
	<path fill="#39322E" d="M15.082,561.537h1.979v0.748h-1.979V561.537z"/>
	<path fill="#39322E" d="M21.317,563.12v0.792h-3.715v-0.627l2.001-1.9c0.225-0.216,0.378-0.404,0.457-0.565
		c0.079-0.16,0.118-0.32,0.118-0.479c0-0.235-0.079-0.416-0.237-0.541c-0.158-0.124-0.391-0.187-0.698-0.187
		c-0.514,0-0.907,0.175-1.182,0.526l-0.654-0.505c0.197-0.264,0.461-0.47,0.795-0.616c0.334-0.146,0.707-0.219,1.12-0.219
		c0.548,0,0.984,0.129,1.31,0.388c0.327,0.26,0.491,0.612,0.491,1.059c0,0.273-0.059,0.53-0.174,0.771s-0.336,0.514-0.662,0.821
		l-1.347,1.281L21.317,563.12L21.317,563.12z"/>
	<path fill="#39322E" d="M25.507,563.12v0.792h-3.715v-0.627l2.002-1.9c0.225-0.216,0.377-0.404,0.457-0.565
		c0.079-0.16,0.118-0.32,0.118-0.479c0-0.235-0.079-0.416-0.237-0.541c-0.158-0.124-0.392-0.187-0.699-0.187
		c-0.514,0-0.906,0.175-1.181,0.526l-0.655-0.505c0.197-0.264,0.463-0.47,0.796-0.616s0.707-0.219,1.118-0.219
		c0.549,0,0.984,0.129,1.312,0.388c0.327,0.26,0.489,0.612,0.489,1.059c0,0.273-0.057,0.53-0.173,0.771
		c-0.114,0.24-0.336,0.514-0.663,0.821l-1.346,1.281L25.507,563.12L25.507,563.12z"/>
</g>
<g>
	<path fill="#39322E" d="M14.474,588.912h1.98v0.749h-1.98V588.912z"/>
	<path fill="#39322E" d="M20.709,590.496v0.792h-3.715v-0.626l2.002-1.901c0.225-0.216,0.377-0.403,0.457-0.564
		c0.079-0.161,0.118-0.32,0.118-0.479c0-0.235-0.079-0.415-0.237-0.54c-0.159-0.124-0.392-0.187-0.699-0.187
		c-0.514,0-0.907,0.175-1.181,0.524l-0.655-0.504c0.197-0.264,0.462-0.469,0.795-0.615c0.333-0.147,0.707-0.22,1.12-0.22
		c0.548,0,0.983,0.13,1.31,0.389s0.49,0.612,0.49,1.059c0,0.273-0.058,0.53-0.173,0.771c-0.115,0.239-0.336,0.514-0.663,0.82
		l-1.346,1.281L20.709,590.496L20.709,590.496z"/>
	<path fill="#39322E" d="M24.411,588.368c0.264,0.127,0.471,0.309,0.619,0.544s0.223,0.506,0.223,0.813
		c0,0.327-0.082,0.613-0.246,0.86c-0.162,0.248-0.383,0.438-0.662,0.573c-0.277,0.134-0.59,0.201-0.936,0.201
		c-0.691,0-1.227-0.217-1.609-0.648c-0.381-0.432-0.572-1.051-0.572-1.857c0-0.566,0.104-1.051,0.31-1.45
		c0.206-0.4,0.495-0.706,0.867-0.914c0.372-0.21,0.804-0.314,1.293-0.314c0.259,0,0.503,0.027,0.73,0.084
		c0.228,0.054,0.426,0.135,0.594,0.24l-0.347,0.706c-0.25-0.163-0.568-0.245-0.957-0.245c-0.484,0-0.863,0.149-1.137,0.447
		c-0.274,0.298-0.411,0.727-0.411,1.288v0.007c0.149-0.173,0.339-0.303,0.569-0.392c0.23-0.088,0.489-0.133,0.777-0.133
		C23.849,588.178,24.147,588.241,24.411,588.368z M24.072,590.393c0.183-0.156,0.274-0.364,0.274-0.624
		c0-0.263-0.092-0.473-0.274-0.625c-0.183-0.153-0.427-0.23-0.734-0.23c-0.302,0-0.548,0.082-0.738,0.245s-0.284,0.369-0.284,0.618
		c0,0.246,0.092,0.449,0.277,0.609c0.184,0.16,0.441,0.241,0.768,0.241C23.653,590.626,23.889,590.547,24.072,590.393z"/>
</g>
<g>
	<path fill="#39322E" d="M14.611,619.736h1.98v0.749h-1.98V619.736z"/>
	<path fill="#39322E" d="M20.371,619.627c0.244,0.259,0.367,0.584,0.367,0.974c0,0.292-0.074,0.558-0.224,0.798
		c-0.148,0.241-0.374,0.432-0.673,0.572c-0.3,0.143-0.666,0.213-1.098,0.213c-0.36,0-0.707-0.052-1.041-0.154
		c-0.334-0.104-0.617-0.245-0.854-0.429l0.404-0.726c0.183,0.152,0.404,0.275,0.666,0.362c0.261,0.089,0.531,0.135,0.811,0.135
		c0.331,0,0.591-0.069,0.781-0.207c0.189-0.136,0.284-0.321,0.284-0.557c0-0.234-0.091-0.419-0.271-0.551
		c-0.18-0.133-0.455-0.199-0.824-0.199H18.24v-0.641l1.146-1.36h-2.289v-0.784h3.435v0.626l-1.225,1.453
		C19.771,619.21,20.127,619.369,20.371,619.627z"/>
	<path fill="#39322E" d="M22.373,621.878c-0.316-0.204-0.566-0.5-0.749-0.893c-0.184-0.391-0.273-0.854-0.273-1.394
		c0-0.538,0.09-1.002,0.273-1.393c0.183-0.392,0.433-0.688,0.749-0.893c0.317-0.204,0.677-0.306,1.081-0.306
		c0.403,0,0.764,0.102,1.083,0.306s0.569,0.501,0.753,0.893c0.182,0.391,0.273,0.854,0.273,1.393c0,0.539-0.092,1.003-0.273,1.394
		c-0.184,0.393-0.434,0.689-0.753,0.893c-0.319,0.204-0.681,0.306-1.083,0.306C23.05,622.184,22.69,622.082,22.373,621.878z
		 M24.306,620.924c0.208-0.299,0.313-0.742,0.313-1.333c0-0.589-0.105-1.034-0.313-1.331c-0.21-0.297-0.493-0.447-0.853-0.447
		c-0.355,0-0.639,0.15-0.847,0.447c-0.21,0.297-0.313,0.742-0.313,1.331c0,0.591,0.104,1.034,0.313,1.333
		c0.208,0.297,0.491,0.446,0.847,0.446C23.813,621.37,24.096,621.222,24.306,620.924z"/>
</g>
<circle fill="#39322E" cx="20.087" cy="89.714" r="14.909"/>
<g id="Layer_1">
	<g>
		<path fill="#FFFFFF" d="M20.372,77.616c-2.457,0-4.456,1.999-4.456,4.456v6.517c-1.703,1.485-2.55,3.692-2.272,5.959
			c0.375,3.067,2.878,5.542,5.951,5.885c3.965,0.442,7.559-2.74,7.559-6.737c0-1.97-0.844-3.816-2.324-5.107v-6.517
			C24.829,79.615,22.83,77.616,20.372,77.616z M25.991,93.697c0,3.322-2.98,5.947-6.268,5.582c-2.543-0.284-4.616-2.333-4.925-4.871
			c-0.241-1.96,0.531-3.865,2.064-5.094c0.138-0.11,0.217-0.277,0.217-0.453v-6.79c0-1.816,1.477-3.294,3.293-3.294
			c1.816,0,3.294,1.478,3.294,3.294v6.789c0,0.176,0.079,0.342,0.216,0.453C25.223,90.39,25.991,91.986,25.991,93.697z"/>
	</g>
	<g>
		<path fill="#FFFFFF" d="M22.503,90.711v-7.088c0-1.175-0.955-2.131-2.131-2.131c-1.175,0-2.131,0.956-2.131,2.131v7.088
			c-1.23,0.875-1.805,2.401-1.438,3.903c0.621,2.545,3.816,3.587,5.858,1.968c0.884-0.704,1.392-1.755,1.392-2.884
			C24.053,92.515,23.468,91.399,22.503,90.711z M21.936,95.67c-1.388,1.1-3.579,0.411-4.005-1.333
			c-0.276-1.127,0.188-2.229,1.183-2.808c0.18-0.104,0.289-0.296,0.289-0.503v-7.405c0-0.534,0.435-0.969,0.969-0.969
			c0.535,0,0.969,0.435,0.969,0.969v7.405c0,0.207,0.109,0.398,0.289,0.503c0.789,0.459,1.26,1.27,1.26,2.167
			C22.891,94.47,22.544,95.189,21.936,95.67z"/>
	</g>
</g>
<path fill="none" stroke="#3C3430" stroke-width="3" stroke-miterlimit="10" d="M30.678,654.916
	c-0.316,3.429-5.672,7.51-10.307,7.51l0,0c-4.592,0.367-10.877-3.317-10.877-7.51V116.669c1.023-4.94,6.493-7.798,10.183-7.792l0,0
	c4.296-0.006,9.896,2.929,11.001,7.984V654.916L30.678,654.916z"/>
</svg>
