<?xml version="1.0" encoding="utf-8"?>
<!-- Generator: Adobe Illustrator 27.7.0, SVG Export Plug-In . SVG Version: 6.00 Build 0)  -->
<svg version="1.1" id="Livello_1" xmlns="http://www.w3.org/2000/svg" xmlns:xlink="http://www.w3.org/1999/xlink" x="0px" y="0px"
	width="32px" height="590px" viewBox="0 0 32.746 590.697" enable-background="new 0 0 32.746 590.697" xml:space="preserve">
<style type="text/css">
	.st0{clip-path:url(#SVGID_00000011003200766237768550000004810314060702564284_);}
	.st1{fill:#F59826;}
	.st2{fill:#FDCC22;}
	.st3{fill:#6655AD;}
	.st4{fill:#975EAD;}
	.st5{fill:#C66AAF;}
	.st6{fill:#AF48A1;}
	.st7{fill:#981595;}
	.st8{fill:#660666;}
	.st9{fill:#640E0E;}
	.st10{fill:#991E1F;}
	.st11{fill:#CB2527;}
	.st12{fill:#EC2426;}
	.st13{fill:#F06626;}
	.st14{fill:#FCFC1E;}
	.st15{fill:#CBE436;}
	.st16{fill:#7ECB47;}
	.st17{fill:#0EB04E;}
	.st18{fill:#37BD7C;}
	.st19{fill:#58C3BA;}
	.st20{fill:#6FC9DC;}
	.st21{fill:#33BCF3;}
	.st22{fill:#498DD2;}
	.st23{fill:#4469BB;}
	.st24{fill:#3F57B0;}
	.st25{fill:#39322E;}
	.st26{fill:#FFFFFF;}
	.st27{fill:none;stroke:#3C3430;stroke-width:3;stroke-miterlimit:10;}
	.st28{display:none;}
	.st29{display:inline;}
	.st30{clip-path:url(#SVGID_00000102546108064511252170000014633369658117982612_);fill:#FFFAFA;}
	.st31{clip-path:url(#SVGID_00000114040313213460925410000007815056735937883009_);fill:#FBD5D6;}
	.st32{clip-path:url(#SVGID_00000074421411537802142400000007294331847232239234_);fill:#F9C1C2;}
	.st33{clip-path:url(#SVGID_00000093157191067881706920000005793379363963296645_);fill:#FDEBEB;}
	.st34{clip-path:url(#SVGID_00000081612737685128250880000002643868313333345709_);fill:#F6ABAD;}
	.st35{clip-path:url(#SVGID_00000021819174092842903730000008542115536140555158_);fill:#F49799;}
	.st36{clip-path:url(#SVGID_00000002364571153798758610000011371915666340625547_);fill:#C8E8F0;}
	.st37{clip-path:url(#SVGID_00000034790630577005009440000003195122702335014042_);fill:#D0EBF7;}
	.st38{clip-path:url(#SVGID_00000018928078028488472370000002377918613723000997_);fill:#4898DA;}
	.st39{clip-path:url(#SVGID_00000035503494003177624830000007917033598497509763_);fill:#A3A5D7;}
	.st40{clip-path:url(#SVGID_00000174597894923789184420000011522687152076271012_);fill:#B988C1;}
	.st41{clip-path:url(#SVGID_00000003087621602922879930000004664781256578031027_);fill:#D7A2CD;}
	.st42{clip-path:url(#SVGID_00000067929291496421820050000017775120337755696261_);fill:#E8BEDB;}
	.st43{clip-path:url(#SVGID_00000067219717057826165600000009635141646514228893_);fill:#E67D9B;}
	.st44{clip-path:url(#SVGID_00000003811619868064511010000004588374185420189854_);fill:#DB4C4D;}
	.st45{clip-path:url(#SVGID_00000109018519704721454290000014683657139413072799_);fill:#EF5A5C;}
	.st46{clip-path:url(#SVGID_00000020393538840948201380000002889228077682385819_);fill:#F7A25C;}
	.st47{clip-path:url(#SVGID_00000014602055419840036250000006832087046683076529_);fill:#FDD58F;}
	.st48{clip-path:url(#SVGID_00000009549512461728311620000002119982020852310158_);fill:#FFE173;}
	.st49{clip-path:url(#SVGID_00000130611210470300196660000011189393984645928330_);fill:#FEFE82;}
	.st50{clip-path:url(#SVGID_00000146479263044831600180000014907915668686764180_);fill:#FFFFC7;}
	.st51{clip-path:url(#SVGID_00000103224442982508495700000001032523648913582475_);fill:#F3F3A1;}
	.st52{clip-path:url(#SVGID_00000114794520045170921340000000993872184084394388_);fill:#D3ECA4;}
	.st53{clip-path:url(#SVGID_00000008107566857132601240000007776553395938105513_);fill:#C3E6D8;}
	.st54{clip-path:url(#SVGID_00000178916101992878082920000015163542941823445890_);fill:#C8E8F0;}
	.st55{clip-path:url(#SVGID_00000078749908039094410110000006055179607240776580_);fill:#D0EBF7;}
	.st56{clip-path:url(#SVGID_00000003063708477914546790000012192565512828638879_);fill:#EC2426;}
	.st57{clip-path:url(#SVGID_00000183228291541929535640000009752656592299382975_);fill:#FCFC1E;}
	.st58{clip-path:url(#SVGID_00000022558752248829819770000011921539944399919232_);fill:#0B7F3F;}
	.st59{clip-path:url(#SVGID_00000129164172787301434110000008340624960844376475_);fill:#F7A426;}
	.st60{clip-path:url(#SVGID_00000134956885771934156350000011117452745814627230_);fill:#6FC9DC;}
	.st61{clip-path:url(#SVGID_00000065066442546172480320000001959085471556358835_);fill:#3F57B0;}
	.st62{display:none;fill:#3A332F;}
	.st63{display:none;fill:none;stroke:#3C3430;stroke-width:2.9317;stroke-miterlimit:9.7722;}
	.st64{display:inline;fill:#3C3530;}
	.st65{display:inline;fill:#FFFFFF;}
	.st66{display:none;fill:none;}
	.st67{display:none;enable-background:new    ;}
	.st68{clip-path:url(#SVGID_00000043419009475215107660000015111427372428342971_);}
	.st69{fill:none;stroke:#3C3430;stroke-width:2.9317;stroke-miterlimit:9.7722;}
	.st70{fill:#3C3530;}
</style>
<g>
	<g>
		<g>
			<defs>
				<path id="SVGID_1_" d="M26,583.1c-0.3,3.4-5.7,7.5-10.3,7.5l0,0c-4.6,0.4-10.9-3.3-10.9-7.5V44.9c1-4.9,6.5-7.8,10.2-7.8l0,0
					c4.3,0,9.9,2.9,11,8L26,583.1L26,583.1z"/>
			</defs>
			<clipPath id="SVGID_00000054224161071388021290000004807634830695566759_">
				<use xlink:href="#SVGID_1_"  style="overflow:visible;"/>
			</clipPath>
			<g style="clip-path:url(#SVGID_00000054224161071388021290000004807634830695566759_);">
				<rect x="-2" y="38.3" class="st1" width="42.3" height="13.8"/>
				<rect x="-6" y="51.5" class="st2" width="41.9" height="13.1"/>
				<rect x="-6" y="64.6" class="st3" width="41.9" height="13.1"/>
				<rect x="-6" y="77.8" class="st4" width="41.9" height="13.1"/>
				<rect x="-6" y="90.9" class="st5" width="41.9" height="13.1"/>
				<rect x="-6" y="104" class="st6" width="41.9" height="13.1"/>
				<rect x="-6" y="117.1" class="st7" width="41.9" height="13.1"/>
				<rect x="-6" y="130.2" class="st8" width="41.9" height="13.1"/>
				<rect x="-6" y="143.3" class="st9" width="41.9" height="13.1"/>
				<rect x="-6" y="156.4" class="st10" width="41.9" height="13.1"/>
				<rect x="-6" y="169.5" class="st11" width="41.9" height="13.1"/>
				<rect x="-6" y="182.6" class="st12" width="41.9" height="13.1"/>
				<rect x="-6" y="195.7" class="st13" width="41.9" height="13.1"/>
				<rect x="-6" y="208.8" class="st1" width="41.9" height="13.1"/>
				<rect x="-6" y="221.9" class="st2" width="41.9" height="13.1"/>
				<rect x="-6" y="235" class="st14" width="41.9" height="13.1"/>
				<rect x="-6" y="248.1" class="st15" width="41.9" height="13.1"/>
				<rect x="-6" y="261.2" class="st16" width="41.9" height="13.1"/>
				<rect x="-6" y="274.3" class="st17" width="41.9" height="13.1"/>
				<rect x="-6" y="287.5" class="st18" width="41.9" height="13.1"/>
				<rect x="-6" y="300.6" class="st19" width="41.9" height="13.1"/>
				<rect x="-6" y="313.7" class="st20" width="41.9" height="13.1"/>
				<rect x="-6" y="326.8" class="st21" width="41.9" height="13.1"/>
				<rect x="-6" y="339.9" class="st22" width="41.9" height="13.1"/>
				<rect x="-6" y="353" class="st23" width="41.9" height="13.1"/>
				<rect x="-6" y="366.1" class="st24" width="41.9" height="13.1"/>
				<rect x="-6" y="379.2" class="st3" width="41.9" height="13.1"/>
				<rect x="-6" y="392.3" class="st4" width="41.9" height="13.1"/>
				<rect x="-6" y="405.4" class="st5" width="41.9" height="13.1"/>
				<rect x="-6" y="418.5" class="st6" width="41.9" height="13.1"/>
				<rect x="-6" y="431.6" class="st7" width="41.9" height="13.1"/>
				<rect x="-6" y="444.7" class="st8" width="41.9" height="13.1"/>
				<rect x="-6" y="457.8" class="st9" width="41.9" height="13.1"/>
				<rect x="-6" y="470.9" class="st10" width="41.9" height="13.1"/>
				<rect x="-6" y="484" class="st11" width="41.9" height="13.1"/>
				<rect x="-6" y="497.2" class="st12" width="41.9" height="13.1"/>
				<rect x="-6" y="510.3" class="st13" width="41.9" height="13.1"/>
				<rect x="-6" y="523.4" class="st1" width="41.9" height="13.1"/>
				<rect x="-6" y="536.5" class="st2" width="41.9" height="55.5"/>
			</g>
		</g>
	</g>
</g>
<g>
	<path class="st25" d="M11.8,579.7c-0.7-0.4-1.3-0.9-1.7-1.6c-0.4-0.7-0.6-1.5-0.6-2.4s0.2-1.7,0.6-2.4s1-1.2,1.7-1.6
		c0.7-0.4,1.5-0.6,2.5-0.6c0.7,0,1.4,0.1,2,0.4c0.6,0.3,1.1,0.6,1.5,1.1l-1.1,1c-0.6-0.7-1.4-1.1-2.4-1.1c-0.6,0-1.2,0.1-1.7,0.4
		s-0.9,0.6-1.1,1.1c-0.3,0.5-0.4,1-0.4,1.6s0.1,1.1,0.4,1.6c0.3,0.5,0.7,0.9,1.1,1.1c0.5,0.3,1,0.4,1.7,0.4c0.9,0,1.7-0.4,2.4-1.1
		l1.1,1c-0.4,0.5-0.9,0.9-1.5,1.1c-0.6,0.3-1.3,0.4-2,0.4C13.4,580.3,12.5,580.1,11.8,579.7z"/>
	<path class="st25" d="M19.9,575.1c-0.3-0.2-0.6-0.5-0.8-0.8s-0.3-0.7-0.3-1.1c0-0.4,0.1-0.8,0.3-1.1c0.2-0.3,0.5-0.6,0.8-0.8
		c0.3-0.2,0.7-0.3,1.1-0.3s0.8,0.1,1.1,0.3c0.3,0.2,0.6,0.5,0.8,0.8c0.2,0.3,0.3,0.7,0.3,1.1c0,0.4-0.1,0.8-0.3,1.1
		s-0.5,0.6-0.8,0.8c-0.3,0.2-0.7,0.3-1.1,0.3S20.3,575.3,19.9,575.1z M21.9,574.2c0.2-0.2,0.4-0.6,0.4-0.9c0-0.4-0.1-0.7-0.4-0.9
		s-0.5-0.4-0.9-0.4s-0.7,0.1-0.9,0.4c-0.2,0.2-0.4,0.6-0.4,0.9c0,0.4,0.1,0.7,0.4,0.9s0.6,0.4,0.9,0.4S21.7,574.4,21.9,574.2z"/>
</g>
<g>
	<path class="st25" d="M15.5,46.6h-0.9v1.1h-0.9v-1.1H11v-0.6l2.5-3.2h1l-2.3,3.1h1.6v-1h0.9v1h0.9L15.5,46.6L15.5,46.6z"/>
	<path class="st25" d="M19.1,44.8c0.3,0.1,0.5,0.3,0.6,0.5c0.1,0.2,0.2,0.5,0.2,0.8c0,0.3-0.1,0.6-0.2,0.9c-0.2,0.2-0.4,0.4-0.7,0.6
		s-0.6,0.2-0.9,0.2c-0.7,0-1.2-0.2-1.6-0.6c-0.4-0.4-0.6-1.1-0.6-1.9c0-0.6,0.1-1.1,0.3-1.4c0.2-0.4,0.5-0.7,0.9-0.9
		c0.4-0.2,0.8-0.3,1.3-0.3c0.3,0,0.5,0,0.7,0.1c0.2,0.1,0.4,0.1,0.6,0.2l-0.3,0.7c-0.3-0.2-0.6-0.2-1-0.2c-0.5,0-0.9,0.2-1.1,0.4
		c-0.3,0.3-0.4,0.7-0.4,1.3v0c0.1-0.2,0.3-0.3,0.6-0.4c0.2-0.1,0.5-0.1,0.8-0.1C18.6,44.6,18.9,44.7,19.1,44.8z M18.8,46.8
		c0.2-0.2,0.3-0.4,0.3-0.6c0-0.3-0.1-0.5-0.3-0.6c-0.2-0.2-0.4-0.2-0.7-0.2c-0.3,0-0.5,0.1-0.7,0.2c-0.2,0.2-0.3,0.4-0.3,0.6
		c0,0.2,0.1,0.4,0.3,0.6c0.2,0.2,0.4,0.2,0.8,0.2C18.4,47,18.6,47,18.8,46.8z"/>
</g>
<g>
	<path class="st25" d="M15.7,72.7h-0.9v1.1h-0.9v-1.1h-2.8V72l2.5-3.2h1l-2.3,3.1h1.6v-1h0.9v1h0.9L15.7,72.7L15.7,72.7z"/>
	<path class="st25" d="M19.7,73v0.8H16v-0.6l2-1.9c0.2-0.2,0.4-0.4,0.5-0.6c0.1-0.2,0.1-0.3,0.1-0.5c0-0.2-0.1-0.4-0.2-0.5
		s-0.4-0.2-0.7-0.2c-0.5,0-0.9,0.2-1.2,0.5l-0.7-0.5c0.2-0.3,0.5-0.5,0.8-0.6c0.3-0.1,0.7-0.2,1.1-0.2c0.5,0,1,0.1,1.3,0.4
		c0.3,0.3,0.5,0.6,0.5,1.1c0,0.3-0.1,0.5-0.2,0.8s-0.3,0.5-0.7,0.8L17.4,73L19.7,73L19.7,73z"/>
</g>
<g>
	<path class="st25" d="M14.5,99.4c0.2,0.3,0.4,0.6,0.4,1c0,0.3-0.1,0.6-0.2,0.8c-0.1,0.2-0.4,0.4-0.7,0.6s-0.7,0.2-1.1,0.2
		c-0.4,0-0.7-0.1-1-0.2c-0.3-0.1-0.6-0.2-0.9-0.4l0.4-0.7c0.2,0.2,0.4,0.3,0.7,0.4c0.3,0.1,0.5,0.1,0.8,0.1c0.3,0,0.6-0.1,0.8-0.2
		c0.2-0.1,0.3-0.3,0.3-0.6s-0.1-0.4-0.3-0.6c-0.2-0.1-0.5-0.2-0.8-0.2h-0.5V99l1.1-1.4h-2.3v-0.8h3.4v0.6l-1.2,1.5
		C13.9,98.9,14.3,99.1,14.5,99.4z"/>
	<path class="st25" d="M19.4,99.7c0.1,0.2,0.2,0.4,0.2,0.7c0,0.3-0.1,0.6-0.3,0.8c-0.2,0.2-0.4,0.4-0.7,0.5
		c-0.3,0.1-0.7,0.2-1.1,0.2s-0.8-0.1-1.1-0.2c-0.3-0.1-0.5-0.3-0.7-0.5c-0.2-0.2-0.2-0.5-0.2-0.8c0-0.3,0.1-0.5,0.2-0.7
		c0.1-0.2,0.3-0.4,0.6-0.5c-0.2-0.1-0.4-0.3-0.5-0.4s-0.2-0.4-0.2-0.6c0-0.3,0.1-0.5,0.2-0.7c0.2-0.2,0.4-0.4,0.7-0.5
		c0.3-0.1,0.6-0.2,1-0.2c0.4,0,0.7,0.1,1,0.2s0.5,0.3,0.7,0.5c0.2,0.2,0.2,0.5,0.2,0.7c0,0.2-0.1,0.4-0.2,0.6
		c-0.1,0.2-0.3,0.3-0.5,0.4C19,99.3,19.2,99.5,19.4,99.7z M18.3,101c0.2-0.1,0.3-0.3,0.3-0.6c0-0.2-0.1-0.4-0.3-0.6
		s-0.5-0.2-0.8-0.2s-0.6,0.1-0.8,0.2s-0.3,0.3-0.3,0.6c0,0.3,0.1,0.5,0.3,0.6c0.2,0.1,0.5,0.2,0.8,0.2S18.1,101.1,18.3,101z
		 M16.8,97.7c-0.2,0.1-0.3,0.3-0.3,0.5c0,0.2,0.1,0.4,0.3,0.5s0.4,0.2,0.7,0.2c0.3,0,0.5-0.1,0.7-0.2c0.2-0.1,0.3-0.3,0.3-0.5
		c0-0.2-0.1-0.4-0.3-0.5s-0.4-0.2-0.7-0.2S17,97.5,16.8,97.7z"/>
</g>
<g>
	<path class="st25" d="M14.4,123.9c0.2,0.3,0.4,0.6,0.4,1c0,0.3-0.1,0.6-0.2,0.8c-0.1,0.2-0.4,0.4-0.7,0.6s-0.7,0.2-1.1,0.2
		c-0.4,0-0.7-0.1-1-0.2s-0.6-0.2-0.9-0.4l0.4-0.7c0.2,0.2,0.4,0.3,0.7,0.4c0.3,0.1,0.5,0.1,0.8,0.1c0.3,0,0.6-0.1,0.8-0.2
		c0.2-0.1,0.3-0.3,0.3-0.6s-0.1-0.4-0.3-0.6c-0.2-0.1-0.5-0.2-0.8-0.2h-0.5v-0.6l1.1-1.4h-2.3v-0.8h3.4v0.6l-1.2,1.5
		C13.8,123.5,14.1,123.6,14.4,123.9z"/>
	<path class="st25" d="M19.9,125.2H19v1.1h-0.9v-1.1h-2.8v-0.6l2.5-3.2h1l-2.3,3.1h1.6v-1H19v1h0.9L19.9,125.2L19.9,125.2z"/>
</g>
<g>
	<path class="st25" d="M15.1,151.2c0.2,0.3,0.4,0.6,0.4,1c0,0.3-0.1,0.6-0.2,0.8s-0.4,0.4-0.7,0.6c-0.3,0.1-0.7,0.2-1.1,0.2
		c-0.4,0-0.7-0.1-1-0.2s-0.6-0.2-0.9-0.4l0.4-0.7c0.2,0.2,0.4,0.3,0.7,0.4s0.5,0.1,0.8,0.1c0.3,0,0.6-0.1,0.8-0.2
		c0.2-0.1,0.3-0.3,0.3-0.6s-0.1-0.4-0.3-0.6c-0.2-0.1-0.5-0.2-0.8-0.2H13v-0.6l1.1-1.4h-2.3v-0.8h3.4v0.6l-1.2,1.5
		C14.5,150.7,14.9,150.9,15.1,151.2z"/>
	<path class="st25" d="M17.1,153.4c-0.3-0.2-0.6-0.5-0.8-0.9c-0.2-0.4-0.3-0.9-0.3-1.4s0.1-1,0.3-1.4c0.2-0.4,0.4-0.7,0.8-0.9
		c0.3-0.2,0.7-0.3,1.1-0.3c0.4,0,0.8,0.1,1.1,0.3c0.3,0.2,0.6,0.5,0.8,0.9c0.2,0.4,0.3,0.9,0.3,1.4s-0.1,1-0.3,1.4
		c-0.2,0.4-0.4,0.7-0.8,0.9c-0.3,0.2-0.7,0.3-1.1,0.3C17.8,153.7,17.4,153.6,17.1,153.4z M19,152.5c0.2-0.3,0.3-0.7,0.3-1.3
		c0-0.6-0.1-1-0.3-1.3c-0.2-0.3-0.5-0.4-0.9-0.4c-0.4,0-0.6,0.1-0.8,0.4c-0.2,0.3-0.3,0.7-0.3,1.3c0,0.6,0.1,1,0.3,1.3
		c0.2,0.3,0.5,0.4,0.8,0.4C18.5,152.9,18.8,152.8,19,152.5z"/>
</g>
<g>
	<path class="st25" d="M15.2,177.8v0.8h-3.7V178l2-1.9c0.2-0.2,0.4-0.4,0.5-0.6c0.1-0.2,0.1-0.3,0.1-0.5c0-0.2-0.1-0.4-0.2-0.5
		s-0.4-0.2-0.7-0.2c-0.5,0-0.9,0.2-1.2,0.5l-0.7-0.5c0.2-0.3,0.5-0.5,0.8-0.6c0.3-0.1,0.7-0.2,1.1-0.2c0.5,0,1,0.1,1.3,0.4
		s0.5,0.6,0.5,1.1c0,0.3-0.1,0.5-0.2,0.8c-0.1,0.2-0.3,0.5-0.7,0.8l-1.3,1.3L15.2,177.8L15.2,177.8z"/>
	<path class="st25" d="M18.9,175.7c0.3,0.1,0.5,0.3,0.6,0.5c0.1,0.2,0.2,0.5,0.2,0.8c0,0.3-0.1,0.6-0.2,0.9
		c-0.2,0.2-0.4,0.4-0.7,0.6c-0.3,0.1-0.6,0.2-0.9,0.2c-0.7,0-1.2-0.2-1.6-0.6c-0.4-0.4-0.6-1.1-0.6-1.9c0-0.6,0.1-1.1,0.3-1.5
		c0.2-0.4,0.5-0.7,0.9-0.9c0.4-0.2,0.8-0.3,1.3-0.3c0.3,0,0.5,0,0.7,0.1c0.2,0.1,0.4,0.1,0.6,0.2l-0.3,0.7c-0.3-0.2-0.6-0.2-1-0.2
		c-0.5,0-0.9,0.1-1.1,0.4c-0.3,0.3-0.4,0.7-0.4,1.3v0c0.1-0.2,0.3-0.3,0.6-0.4s0.5-0.1,0.8-0.1C18.4,175.5,18.7,175.6,18.9,175.7z
		 M18.6,177.7c0.2-0.2,0.3-0.4,0.3-0.6c0-0.3-0.1-0.5-0.3-0.6c-0.2-0.2-0.4-0.2-0.7-0.2c-0.3,0-0.5,0.1-0.7,0.2
		c-0.2,0.2-0.3,0.4-0.3,0.6c0,0.2,0.1,0.4,0.3,0.6s0.4,0.2,0.8,0.2C18.2,177.9,18.4,177.9,18.6,177.7z"/>
</g>
<g>
	<path class="st25" d="M15.2,205.1v0.8h-3.7v-0.6l2-1.9c0.2-0.2,0.4-0.4,0.5-0.6c0.1-0.2,0.1-0.3,0.1-0.5c0-0.2-0.1-0.4-0.2-0.5
		c-0.2-0.1-0.4-0.2-0.7-0.2c-0.5,0-0.9,0.2-1.2,0.5l-0.7-0.5c0.2-0.3,0.5-0.5,0.8-0.6c0.3-0.1,0.7-0.2,1.1-0.2c0.5,0,1,0.1,1.3,0.4
		c0.3,0.3,0.5,0.6,0.5,1.1c0,0.3-0.1,0.5-0.2,0.8c-0.1,0.2-0.3,0.5-0.7,0.8l-1.3,1.3L15.2,205.1L15.2,205.1z"/>
	<path class="st25" d="M19.4,205.1v0.8h-3.7v-0.6l2-1.9c0.2-0.2,0.4-0.4,0.5-0.6c0.1-0.2,0.1-0.3,0.1-0.5c0-0.2-0.1-0.4-0.2-0.5
		c-0.2-0.1-0.4-0.2-0.7-0.2c-0.5,0-0.9,0.2-1.2,0.5l-0.7-0.5c0.2-0.3,0.5-0.5,0.8-0.6c0.3-0.1,0.7-0.2,1.1-0.2c0.5,0,1,0.1,1.3,0.4
		c0.3,0.3,0.5,0.6,0.5,1.1c0,0.3-0.1,0.5-0.2,0.8c-0.1,0.2-0.3,0.5-0.7,0.8l-1.3,1.3L19.4,205.1L19.4,205.1z"/>
</g>
<g>
	<path class="st25" d="M14.1,225.8v5h-0.9v-4.3h-1.1v-0.8H14.1z"/>
	<path class="st25" d="M19,228.7c0.1,0.2,0.2,0.4,0.2,0.7c0,0.3-0.1,0.6-0.3,0.8c-0.2,0.2-0.4,0.4-0.7,0.5c-0.3,0.1-0.7,0.2-1.1,0.2
		s-0.8-0.1-1.1-0.2c-0.3-0.1-0.5-0.3-0.7-0.5c-0.2-0.2-0.3-0.5-0.3-0.8c0-0.3,0.1-0.5,0.2-0.7c0.1-0.2,0.3-0.4,0.6-0.5
		c-0.2-0.1-0.4-0.3-0.5-0.4c-0.1-0.2-0.2-0.4-0.2-0.6c0-0.3,0.1-0.5,0.2-0.7c0.2-0.2,0.4-0.4,0.7-0.5c0.3-0.1,0.6-0.2,1-0.2
		c0.4,0,0.7,0.1,1,0.2s0.5,0.3,0.7,0.5s0.2,0.5,0.2,0.7c0,0.2-0.1,0.4-0.2,0.6c-0.1,0.2-0.3,0.3-0.5,0.4
		C18.6,228.4,18.8,228.5,19,228.7z M17.9,230c0.2-0.1,0.3-0.3,0.3-0.6c0-0.2-0.1-0.4-0.3-0.6c-0.2-0.1-0.5-0.2-0.8-0.2
		s-0.6,0.1-0.8,0.2c-0.2,0.1-0.3,0.3-0.3,0.6c0,0.3,0.1,0.5,0.3,0.6c0.2,0.1,0.5,0.2,0.8,0.2S17.7,230.2,17.9,230z M16.4,226.7
		c-0.2,0.1-0.3,0.3-0.3,0.5c0,0.2,0.1,0.4,0.3,0.5s0.4,0.2,0.7,0.2c0.3,0,0.5-0.1,0.7-0.2c0.2-0.1,0.3-0.3,0.3-0.5
		c0-0.2-0.1-0.4-0.3-0.5s-0.4-0.2-0.7-0.2S16.6,226.6,16.4,226.7z"/>
</g>
<g>
	<path class="st25" d="M14.3,250.9v5h-0.9v-4.3h-1.1v-0.8L14.3,250.9L14.3,250.9z"/>
	<path class="st25" d="M19.8,254.8h-0.9v1.1H18v-1.1h-2.8v-0.6l2.5-3.2h1l-2.3,3.1h1.6v-1h0.9v1h0.9V254.8z"/>
</g>
<g>
	<path class="st25" d="M13.6,277.8v5h-0.9v-4.3h-1.1v-0.8H13.6z"/>
	<path class="st25" d="M15.6,282.6c-0.3-0.2-0.6-0.5-0.7-0.9c-0.2-0.4-0.3-0.9-0.3-1.4c0-0.5,0.1-1,0.3-1.4c0.2-0.4,0.4-0.7,0.7-0.9
		c0.3-0.2,0.7-0.3,1.1-0.3c0.4,0,0.8,0.1,1.1,0.3c0.3,0.2,0.6,0.5,0.8,0.9c0.2,0.4,0.3,0.9,0.3,1.4c0,0.5-0.1,1-0.3,1.4
		c-0.2,0.4-0.4,0.7-0.8,0.9c-0.3,0.2-0.7,0.3-1.1,0.3C16.3,282.9,15.9,282.8,15.6,282.6z M17.5,281.7c0.2-0.3,0.3-0.7,0.3-1.3
		s-0.1-1-0.3-1.3c-0.2-0.3-0.5-0.4-0.9-0.4c-0.4,0-0.6,0.1-0.8,0.4c-0.2,0.3-0.3,0.7-0.3,1.3s0.1,1,0.3,1.3c0.2,0.3,0.5,0.4,0.8,0.4
		C17,282.1,17.3,282,17.5,281.7z"/>
</g>
<g>
	<path class="st25" d="M16.2,308.9c0.3,0.1,0.5,0.3,0.6,0.5c0.1,0.2,0.2,0.5,0.2,0.8c0,0.3-0.1,0.6-0.2,0.9
		c-0.2,0.2-0.4,0.4-0.7,0.6c-0.3,0.1-0.6,0.2-0.9,0.2c-0.7,0-1.2-0.2-1.6-0.6c-0.4-0.4-0.6-1.1-0.6-1.9c0-0.6,0.1-1.1,0.3-1.5
		c0.2-0.4,0.5-0.7,0.9-0.9c0.4-0.2,0.8-0.3,1.3-0.3c0.3,0,0.5,0,0.7,0.1c0.2,0.1,0.4,0.1,0.6,0.2l-0.3,0.7c-0.2-0.2-0.6-0.2-1-0.2
		c-0.5,0-0.9,0.1-1.1,0.4c-0.3,0.3-0.4,0.7-0.4,1.3v0c0.1-0.2,0.3-0.3,0.6-0.4c0.2-0.1,0.5-0.1,0.8-0.1
		C15.7,308.7,16,308.8,16.2,308.9z M15.9,310.9c0.2-0.2,0.3-0.4,0.3-0.6c0-0.3-0.1-0.5-0.3-0.6c-0.2-0.2-0.4-0.2-0.7-0.2
		c-0.3,0-0.5,0.1-0.7,0.2c-0.2,0.2-0.3,0.4-0.3,0.6c0,0.2,0.1,0.4,0.3,0.6c0.2,0.2,0.4,0.2,0.8,0.2
		C15.5,311.2,15.7,311.1,15.9,310.9z"/>
</g>
<g>
	<path class="st25" d="M18,335.2v0.8h-3.7v-0.6l2-1.9c0.2-0.2,0.4-0.4,0.5-0.6c0.1-0.2,0.1-0.3,0.1-0.5c0-0.2-0.1-0.4-0.2-0.5
		c-0.2-0.1-0.4-0.2-0.7-0.2c-0.5,0-0.9,0.2-1.2,0.5l-0.7-0.5c0.2-0.3,0.5-0.5,0.8-0.6s0.7-0.2,1.1-0.2c0.5,0,1,0.1,1.3,0.4
		s0.5,0.6,0.5,1.1c0,0.3-0.1,0.5-0.2,0.8c-0.1,0.2-0.3,0.5-0.7,0.8l-1.3,1.3L18,335.2L18,335.2z"/>
</g>
<g>
	<path class="st25" d="M12,361.8h2v0.7h-2V361.8z"/>
	<path class="st25" d="M18.2,363.4v0.8h-3.7v-0.6l2-1.9c0.2-0.2,0.4-0.4,0.5-0.6c0.1-0.2,0.1-0.3,0.1-0.5c0-0.2-0.1-0.4-0.2-0.5
		c-0.2-0.1-0.4-0.2-0.7-0.2c-0.5,0-0.9,0.2-1.2,0.5l-0.7-0.5c0.2-0.3,0.5-0.5,0.8-0.6c0.3-0.1,0.7-0.2,1.1-0.2c0.5,0,1,0.1,1.3,0.4
		c0.3,0.3,0.5,0.6,0.5,1.1c0,0.3-0.1,0.5-0.2,0.8c-0.1,0.2-0.3,0.5-0.7,0.8l-1.3,1.3L18.2,363.4L18.2,363.4z"/>
</g>
<g>
	<path class="st25" d="M11.8,385.9h2v0.7h-2V385.9z"/>
	<path class="st25" d="M17.7,385.4c0.3,0.1,0.5,0.3,0.6,0.5s0.2,0.5,0.2,0.8c0,0.3-0.1,0.6-0.2,0.9c-0.2,0.2-0.4,0.4-0.7,0.6
		s-0.6,0.2-0.9,0.2c-0.7,0-1.2-0.2-1.6-0.6s-0.6-1.1-0.6-1.9c0-0.6,0.1-1,0.3-1.5c0.2-0.4,0.5-0.7,0.9-0.9c0.4-0.2,0.8-0.3,1.3-0.3
		c0.3,0,0.5,0,0.7,0.1c0.2,0.1,0.4,0.1,0.6,0.2l-0.3,0.7c-0.2-0.2-0.6-0.2-1-0.2c-0.5,0-0.9,0.1-1.1,0.4s-0.4,0.7-0.4,1.3v0
		c0.1-0.2,0.3-0.3,0.6-0.4c0.2-0.1,0.5-0.1,0.8-0.1C17.1,385.2,17.4,385.3,17.7,385.4z M17.4,387.4c0.2-0.2,0.3-0.4,0.3-0.6
		c0-0.3-0.1-0.5-0.3-0.6c-0.2-0.2-0.4-0.2-0.7-0.2c-0.3,0-0.5,0.1-0.7,0.2s-0.3,0.4-0.3,0.6c0,0.2,0.1,0.4,0.3,0.6
		c0.2,0.2,0.4,0.2,0.8,0.2C16.9,387.6,17.2,387.6,17.4,387.4z"/>
</g>
<g>
	<path class="st25" d="M10.3,412.9h2v0.7h-2C10.3,413.6,10.3,412.9,10.3,412.9z"/>
	<path class="st25" d="M14.6,410.2v5h-0.9V411h-1.1v-0.8L14.6,410.2L14.6,410.2z"/>
	<path class="st25" d="M16.6,415c-0.3-0.2-0.6-0.5-0.7-0.9s-0.3-0.9-0.3-1.4c0-0.5,0.1-1,0.3-1.4c0.2-0.4,0.4-0.7,0.7-0.9
		c0.3-0.2,0.7-0.3,1.1-0.3s0.8,0.1,1.1,0.3c0.3,0.2,0.6,0.5,0.8,0.9c0.2,0.4,0.3,0.9,0.3,1.4s-0.1,1-0.3,1.4s-0.4,0.7-0.8,0.9
		c-0.3,0.2-0.7,0.3-1.1,0.3C17.3,415.3,16.9,415.2,16.6,415z M18.6,414.1c0.2-0.3,0.3-0.7,0.3-1.3c0-0.6-0.1-1-0.3-1.3
		c-0.2-0.3-0.5-0.4-0.9-0.4c-0.4,0-0.6,0.1-0.8,0.4c-0.2,0.3-0.3,0.7-0.3,1.3c0,0.6,0.1,1,0.3,1.3s0.5,0.4,0.8,0.4
		C18.1,414.5,18.4,414.4,18.6,414.1z"/>
</g>
<g>
	<path class="st25" d="M10.6,439.8h2v0.7h-2C10.5,440.6,10.5,439.8,10.6,439.8z"/>
	<path class="st25" d="M14.8,437.2v5h-0.9v-4.3h-1.1v-0.8L14.8,437.2L14.8,437.2z"/>
	<path class="st25" d="M20.3,441h-0.9v1.1h-0.9V441h-2.8v-0.6l2.5-3.2h1l-2.3,3.1h1.6v-1h0.9v1h0.9C20.3,440.3,20.3,441,20.3,441z"
		/>
</g>
<g>
	<path class="st25" d="M11.1,465.9h2v0.8h-2C11.1,466.7,11.1,465.9,11.1,465.9z"/>
	<path class="st25" d="M15.4,463.3v5h-0.9v-4.3h-1.1v-0.8L15.4,463.3L15.4,463.3z"/>
	<path class="st25" d="M20.2,466.1c0.1,0.2,0.2,0.4,0.2,0.7c0,0.3-0.1,0.6-0.3,0.8c-0.2,0.2-0.4,0.4-0.7,0.5
		c-0.3,0.1-0.7,0.2-1.1,0.2c-0.4,0-0.8-0.1-1.1-0.2s-0.5-0.3-0.7-0.5s-0.2-0.5-0.2-0.8c0-0.3,0.1-0.5,0.2-0.7s0.3-0.4,0.6-0.5
		c-0.2-0.1-0.4-0.3-0.5-0.4s-0.2-0.4-0.2-0.6c0-0.3,0.1-0.5,0.2-0.7c0.2-0.2,0.4-0.4,0.7-0.5c0.3-0.1,0.6-0.2,1-0.2
		c0.4,0,0.7,0.1,1,0.2c0.3,0.1,0.5,0.3,0.7,0.5c0.2,0.2,0.2,0.5,0.2,0.7c0,0.2-0.1,0.4-0.2,0.6c-0.1,0.2-0.3,0.3-0.5,0.4
		C19.9,465.8,20.1,465.9,20.2,466.1z M19.2,467.4c0.2-0.1,0.3-0.3,0.3-0.6c0-0.2-0.1-0.4-0.3-0.6c-0.2-0.1-0.5-0.2-0.8-0.2
		c-0.3,0-0.6,0.1-0.8,0.2c-0.2,0.1-0.3,0.3-0.3,0.6c0,0.3,0.1,0.5,0.3,0.6s0.5,0.2,0.8,0.2C18.7,467.6,19,467.6,19.2,467.4z
		 M17.7,464.1c-0.2,0.1-0.3,0.3-0.3,0.5c0,0.2,0.1,0.4,0.3,0.5c0.2,0.1,0.4,0.2,0.7,0.2c0.3,0,0.5-0.1,0.7-0.2
		c0.2-0.1,0.3-0.3,0.3-0.5c0-0.2-0.1-0.4-0.3-0.5c-0.2-0.1-0.4-0.2-0.7-0.2S17.9,464,17.7,464.1z"/>
</g>
<g>
	<path class="st25" d="M10.4,489.6h2v0.7h-2C10.4,490.4,10.4,489.6,10.4,489.6z"/>
	<path class="st25" d="M16.7,491.2v0.8h-3.7v-0.6l2-1.9c0.2-0.2,0.4-0.4,0.5-0.6c0.1-0.2,0.1-0.3,0.1-0.5c0-0.2-0.1-0.4-0.2-0.5
		c-0.2-0.1-0.4-0.2-0.7-0.2c-0.5,0-0.9,0.2-1.2,0.5l-0.7-0.5c0.2-0.3,0.5-0.5,0.8-0.6c0.3-0.1,0.7-0.2,1.1-0.2c0.5,0,1,0.1,1.3,0.4
		c0.3,0.3,0.5,0.6,0.5,1.1c0,0.3-0.1,0.5-0.2,0.8s-0.3,0.5-0.7,0.8l-1.3,1.3L16.7,491.2L16.7,491.2z"/>
	<path class="st25" d="M20.9,491.2v0.8h-3.7v-0.6l2-1.9c0.2-0.2,0.4-0.4,0.5-0.6c0.1-0.2,0.1-0.3,0.1-0.5c0-0.2-0.1-0.4-0.2-0.5
		c-0.2-0.1-0.4-0.2-0.7-0.2c-0.5,0-0.9,0.2-1.2,0.5l-0.7-0.5c0.2-0.3,0.5-0.5,0.8-0.6s0.7-0.2,1.1-0.2c0.5,0,1,0.1,1.3,0.4
		c0.3,0.3,0.5,0.6,0.5,1.1c0,0.3-0.1,0.5-0.2,0.8c-0.1,0.2-0.3,0.5-0.7,0.8l-1.3,1.3L20.9,491.2L20.9,491.2z"/>
</g>
<g>
	<path class="st25" d="M9.8,517h2v0.7h-2C9.8,517.8,9.8,517,9.8,517z"/>
	<path class="st25" d="M16.1,518.6v0.8h-3.7v-0.6l2-1.9c0.2-0.2,0.4-0.4,0.5-0.6c0.1-0.2,0.1-0.3,0.1-0.5c0-0.2-0.1-0.4-0.2-0.5
		c-0.2-0.1-0.4-0.2-0.7-0.2c-0.5,0-0.9,0.2-1.2,0.5l-0.7-0.5c0.2-0.3,0.5-0.5,0.8-0.6c0.3-0.1,0.7-0.2,1.1-0.2c0.5,0,1,0.1,1.3,0.4
		s0.5,0.6,0.5,1.1c0,0.3-0.1,0.5-0.2,0.8c-0.1,0.2-0.3,0.5-0.7,0.8l-1.3,1.3H16.1L16.1,518.6z"/>
	<path class="st25" d="M19.8,516.5c0.3,0.1,0.5,0.3,0.6,0.5s0.2,0.5,0.2,0.8c0,0.3-0.1,0.6-0.2,0.9c-0.2,0.2-0.4,0.4-0.7,0.6
		c-0.3,0.1-0.6,0.2-0.9,0.2c-0.7,0-1.2-0.2-1.6-0.6c-0.4-0.4-0.6-1.1-0.6-1.9c0-0.6,0.1-1.1,0.3-1.5c0.2-0.4,0.5-0.7,0.9-0.9
		c0.4-0.2,0.8-0.3,1.3-0.3c0.3,0,0.5,0,0.7,0.1c0.2,0.1,0.4,0.1,0.6,0.2l-0.3,0.7c-0.2-0.2-0.6-0.2-1-0.2c-0.5,0-0.9,0.1-1.1,0.4
		c-0.3,0.3-0.4,0.7-0.4,1.3v0c0.1-0.2,0.3-0.3,0.6-0.4c0.2-0.1,0.5-0.1,0.8-0.1C19.2,516.3,19.5,516.3,19.8,516.5z M19.4,518.5
		c0.2-0.2,0.3-0.4,0.3-0.6c0-0.3-0.1-0.5-0.3-0.6c-0.2-0.2-0.4-0.2-0.7-0.2c-0.3,0-0.5,0.1-0.7,0.2s-0.3,0.4-0.3,0.6
		c0,0.2,0.1,0.4,0.3,0.6c0.2,0.2,0.4,0.2,0.8,0.2C19,518.7,19.2,518.6,19.4,518.5z"/>
</g>
<g>
	<path class="st25" d="M10,547.8h2v0.7h-2V547.8z"/>
	<path class="st25" d="M15.7,547.7c0.2,0.3,0.4,0.6,0.4,1c0,0.3-0.1,0.6-0.2,0.8c-0.1,0.2-0.4,0.4-0.7,0.6c-0.3,0.1-0.7,0.2-1.1,0.2
		c-0.4,0-0.7-0.1-1-0.2c-0.3-0.1-0.6-0.2-0.9-0.4l0.4-0.7c0.2,0.2,0.4,0.3,0.7,0.4c0.3,0.1,0.5,0.1,0.8,0.1c0.3,0,0.6-0.1,0.8-0.2
		c0.2-0.1,0.3-0.3,0.3-0.6c0-0.2-0.1-0.4-0.3-0.6c-0.2-0.1-0.5-0.2-0.8-0.2h-0.5v-0.6l1.1-1.4h-2.3v-0.8h3.4v0.6l-1.2,1.5
		C15.1,547.3,15.5,547.5,15.7,547.7z"/>
	<path class="st25" d="M17.7,550c-0.3-0.2-0.6-0.5-0.7-0.9c-0.2-0.4-0.3-0.9-0.3-1.4c0-0.5,0.1-1,0.3-1.4c0.2-0.4,0.4-0.7,0.7-0.9
		c0.3-0.2,0.7-0.3,1.1-0.3c0.4,0,0.8,0.1,1.1,0.3s0.6,0.5,0.8,0.9c0.2,0.4,0.3,0.9,0.3,1.4s-0.1,1-0.3,1.4c-0.2,0.4-0.4,0.7-0.8,0.9
		s-0.7,0.3-1.1,0.3C18.4,550.3,18,550.2,17.7,550z M19.6,549c0.2-0.3,0.3-0.7,0.3-1.3c0-0.6-0.1-1-0.3-1.3c-0.2-0.3-0.5-0.4-0.9-0.4
		c-0.4,0-0.6,0.2-0.8,0.4c-0.2,0.3-0.3,0.7-0.3,1.3c0,0.6,0.1,1,0.3,1.3c0.2,0.3,0.5,0.4,0.8,0.4C19.2,549.5,19.4,549.3,19.6,549z"
		/>
</g>
<circle class="st25" cx="15.4" cy="17.8" r="14.9"/>
<g id="Layer_1">
	<g>
		<path class="st26" d="M15.7,5.7c-2.5,0-4.5,2-4.5,4.5v6.5c-1.7,1.5-2.6,3.7-2.3,6c0.4,3.1,2.9,5.5,6,5.9c4,0.4,7.6-2.7,7.6-6.7
			c0-2-0.8-3.8-2.3-5.1v-6.5C20.2,7.7,18.2,5.7,15.7,5.7z M21.3,21.8c0,3.3-3,5.9-6.3,5.6c-2.5-0.3-4.6-2.3-4.9-4.9
			c-0.2-2,0.5-3.9,2.1-5.1c0.1-0.1,0.2-0.3,0.2-0.5v-6.8c0-1.8,1.5-3.3,3.3-3.3S19,8.4,19,10.2V17c0,0.2,0.1,0.3,0.2,0.5
			C20.6,18.5,21.3,20.1,21.3,21.8z"/>
	</g>
	<g>
		<path class="st26" d="M17.8,18.8v-7.1c0-1.2-1-2.1-2.1-2.1c-1.2,0-2.1,1-2.1,2.1v7.1c-1.2,0.9-1.8,2.4-1.4,3.9
			c0.6,2.5,3.8,3.6,5.9,2c0.9-0.7,1.4-1.8,1.4-2.9C19.4,20.6,18.8,19.5,17.8,18.8z M17.3,23.8c-1.4,1.1-3.6,0.4-4-1.3
			c-0.3-1.1,0.2-2.2,1.2-2.8c0.2-0.1,0.3-0.3,0.3-0.5v-7.4c0-0.5,0.4-1,1-1c0.5,0,1,0.4,1,1v7.4c0,0.2,0.1,0.4,0.3,0.5
			c0.8,0.5,1.3,1.3,1.3,2.2C18.2,22.6,17.9,23.3,17.3,23.8z"/>
	</g>
</g>
<path class="st27" d="M26,583c-0.3,3.4-5.7,7.5-10.3,7.5l0,0c-4.6,0.4-10.9-3.3-10.9-7.5V44.8c1-4.9,6.5-7.8,10.2-7.8l0,0
	c4.3,0,9.9,2.9,11,8L26,583L26,583z"/>
<g class="st28">
	<g class="st29">
		<g>
			<g>
				<g>
					<defs>
						<path id="SVGID_00000033350401002865736900000007435325644574614152_" d="M24,575.9c-0.3,3.3-5.5,7.3-10.1,7.3l0,0
							c-4.5,0.4-10.6-3.2-10.6-7.3v-526c1-4.8,6.3-7.6,10-7.6l0,0c4.2,0,9.7,2.9,10.8,7.8V575.9L24,575.9z"/>
					</defs>
					<clipPath id="SVGID_00000040554086276694018950000008060102215848791464_">
						<use xlink:href="#SVGID_00000033350401002865736900000007435325644574614152_"  style="overflow:visible;"/>
					</clipPath>
					
						<rect x="-1.8" y="492.4" style="clip-path:url(#SVGID_00000040554086276694018950000008060102215848791464_);fill:#FFFAFA;" width="30.9" height="96.8"/>
				</g>
			</g>
		</g>
		<g>
			<g>
				<g>
					<defs>
						<path id="SVGID_00000131336752875703763620000002699908720536332437_" d="M24,575.9c-0.3,3.3-5.5,7.3-10.1,7.3l0,0
							c-4.5,0.4-10.6-3.2-10.6-7.3v-526c1-4.8,6.3-7.6,10-7.6l0,0c4.2,0,9.7,2.9,10.8,7.8V575.9L24,575.9z"/>
					</defs>
					<clipPath id="SVGID_00000036955173442727886310000013692754352146738099_">
						<use xlink:href="#SVGID_00000131336752875703763620000002699908720536332437_"  style="overflow:visible;"/>
					</clipPath>
					
						<rect x="-1.5" y="316.4" style="clip-path:url(#SVGID_00000036955173442727886310000013692754352146738099_);fill:#FBD5D6;" width="30.9" height="88"/>
				</g>
			</g>
		</g>
		<g>
			<g>
				<g>
					<defs>
						<path id="SVGID_00000080184284573651002860000016117574880388797833_" d="M24,575.9c-0.3,3.3-5.5,7.3-10.1,7.3l0,0
							c-4.5,0.4-10.6-3.2-10.6-7.3v-526c1-4.8,6.3-7.6,10-7.6l0,0c4.2,0,9.7,2.9,10.8,7.8V575.9L24,575.9z"/>
					</defs>
					<clipPath id="SVGID_00000082331255376509789120000012660584514000037810_">
						<use xlink:href="#SVGID_00000080184284573651002860000016117574880388797833_"  style="overflow:visible;"/>
					</clipPath>
					
						<rect x="-1.5" y="228.4" style="clip-path:url(#SVGID_00000082331255376509789120000012660584514000037810_);fill:#F9C1C2;" width="30.9" height="88"/>
				</g>
			</g>
		</g>
		<g>
			<g>
				<g>
					<defs>
						<path id="SVGID_00000132071401425918088960000007929333192144089765_" d="M24,575.9c-0.3,3.3-5.5,7.3-10.1,7.3l0,0
							c-4.5,0.4-10.6-3.2-10.6-7.3v-526c1-4.8,6.3-7.6,10-7.6l0,0c4.2,0,9.7,2.9,10.8,7.8V575.9L24,575.9z"/>
					</defs>
					<clipPath id="SVGID_00000067934884235238622340000014716607156433907859_">
						<use xlink:href="#SVGID_00000132071401425918088960000007929333192144089765_"  style="overflow:visible;"/>
					</clipPath>
					
						<rect x="-1.8" y="404.4" style="clip-path:url(#SVGID_00000067934884235238622340000014716607156433907859_);fill:#FDEBEB;" width="30.9" height="88"/>
				</g>
			</g>
		</g>
		<g>
			<g>
				<g>
					<defs>
						<path id="SVGID_00000069368311755947180920000010881550458971994810_" d="M24,575.9c-0.3,3.3-5.5,7.3-10.1,7.3l0,0
							c-4.5,0.4-10.6-3.2-10.6-7.3v-526c1-4.8,6.3-7.6,10-7.6l0,0c4.2,0,9.7,2.9,10.8,7.8V575.9L24,575.9z"/>
					</defs>
					<clipPath id="SVGID_00000169547943372762496210000010627573933301218495_">
						<use xlink:href="#SVGID_00000069368311755947180920000010881550458971994810_"  style="overflow:visible;"/>
					</clipPath>
					
						<rect x="-1.5" y="140.4" style="clip-path:url(#SVGID_00000169547943372762496210000010627573933301218495_);fill:#F6ABAD;" width="30.9" height="88"/>
				</g>
			</g>
		</g>
		<g>
			<g>
				<g>
					<defs>
						<path id="SVGID_00000137839219474753644080000015007693906741152174_" d="M24,575.9c-0.3,3.3-5.5,7.3-10.1,7.3l0,0
							c-4.5,0.4-10.6-3.2-10.6-7.3v-526c1-4.8,6.3-7.6,10-7.6l0,0c4.2,0,9.7,2.9,10.8,7.8V575.9L24,575.9z"/>
					</defs>
					<clipPath id="SVGID_00000177469950543469190000000015201988962535413392_">
						<use xlink:href="#SVGID_00000137839219474753644080000015007693906741152174_"  style="overflow:visible;"/>
					</clipPath>
					
						<rect x="-1.8" y="43.6" style="clip-path:url(#SVGID_00000177469950543469190000000015201988962535413392_);fill:#F49799;" width="30.9" height="96.8"/>
				</g>
			</g>
		</g>
	</g>
</g>
<g class="st28">
	<g class="st29">
		<g>
			<g>
				<defs>
					<path id="SVGID_00000142858195560909092670000012485499036674231950_" d="M24,575.9c0,3.6-5.8,7.9-10.4,7.9H13
						c-4.2,0-9.7-3.8-9.7-7.9v-526c1-4.8,6.3-7.6,10-7.6l0,0c4.2,0,9.7,2.9,10.7,7.8L24,575.9L24,575.9z"/>
				</defs>
				<clipPath id="SVGID_00000119085890602516101430000006273214545423393689_">
					<use xlink:href="#SVGID_00000142858195560909092670000012485499036674231950_"  style="overflow:visible;"/>
				</clipPath>
				
					<rect x="-7.5" y="42.3" style="clip-path:url(#SVGID_00000119085890602516101430000006273214545423393689_);fill:#C8E8F0;" width="42.3" height="26.6"/>
			</g>
		</g>
	</g>
	<g class="st29">
		<g>
			<g>
				<defs>
					<path id="SVGID_00000053514564841376871090000017474950379340790926_" d="M24,575.9c0,3.6-5.8,7.9-10.4,7.9H13
						c-4.2,0-9.7-3.8-9.7-7.9v-526c1-4.8,6.3-7.6,10-7.6l0,0c4.2,0,9.7,2.9,10.7,7.8L24,575.9L24,575.9z"/>
				</defs>
				<clipPath id="SVGID_00000009554041718030513240000014012607289169934982_">
					<use xlink:href="#SVGID_00000053514564841376871090000017474950379340790926_"  style="overflow:visible;"/>
				</clipPath>
				
					<rect x="-7.5" y="68.9" style="clip-path:url(#SVGID_00000009554041718030513240000014012607289169934982_);fill:#D0EBF7;" width="42.3" height="26.6"/>
			</g>
		</g>
	</g>
	<g class="st29">
		<g>
			<g>
				<defs>
					<path id="SVGID_00000164502398075758388100000000533154642256458650_" d="M24,575.9c0,3.6-5.8,7.9-10.4,7.9H13
						c-4.2,0-9.7-3.8-9.7-7.9v-526c1-4.8,6.3-7.6,10-7.6l0,0c4.2,0,9.7,2.9,10.7,7.8L24,575.9L24,575.9z"/>
				</defs>
				<clipPath id="SVGID_00000091718906189615970570000010662915493623018934_">
					<use xlink:href="#SVGID_00000164502398075758388100000000533154642256458650_"  style="overflow:visible;"/>
				</clipPath>
				
					<rect x="-7.5" y="95" style="clip-path:url(#SVGID_00000091718906189615970570000010662915493623018934_);fill:#4898DA;" width="42.3" height="26.6"/>
			</g>
		</g>
	</g>
	<g class="st29">
		<g>
			<g>
				<defs>
					<path id="SVGID_00000181775275336208875810000003718157308240123307_" d="M24,575.9c0,3.6-5.8,7.9-10.4,7.9H13
						c-4.2,0-9.7-3.8-9.7-7.9v-526c1-4.8,6.3-7.6,10-7.6l0,0c4.2,0,9.7,2.9,10.7,7.8L24,575.9L24,575.9z"/>
				</defs>
				<clipPath id="SVGID_00000017502282745894862840000006963381867172344471_">
					<use xlink:href="#SVGID_00000181775275336208875810000003718157308240123307_"  style="overflow:visible;"/>
				</clipPath>
				
					<rect x="-7.5" y="121.6" style="clip-path:url(#SVGID_00000017502282745894862840000006963381867172344471_);fill:#A3A5D7;" width="42.3" height="26.6"/>
			</g>
		</g>
	</g>
	<g class="st29">
		<g>
			<g>
				<defs>
					<path id="SVGID_00000056422425702327870950000017708848561590821021_" d="M24,575.9c0,3.6-5.8,7.9-10.4,7.9H13
						c-4.2,0-9.7-3.8-9.7-7.9v-526c1-4.8,6.3-7.6,10-7.6l0,0c4.2,0,9.7,2.9,10.7,7.8L24,575.9L24,575.9z"/>
				</defs>
				<clipPath id="SVGID_00000050644202488976734220000005178478658876367744_">
					<use xlink:href="#SVGID_00000056422425702327870950000017708848561590821021_"  style="overflow:visible;"/>
				</clipPath>
				
					<rect x="-7.5" y="148.2" style="clip-path:url(#SVGID_00000050644202488976734220000005178478658876367744_);fill:#B988C1;" width="42.3" height="26.6"/>
			</g>
		</g>
	</g>
	<g class="st29">
		<g>
			<g>
				<defs>
					<path id="SVGID_00000181075856902483469250000001401690521796289973_" d="M24,575.9c0,3.6-5.8,7.9-10.4,7.9H13
						c-4.2,0-9.7-3.8-9.7-7.9v-526c1-4.8,6.3-7.6,10-7.6l0,0c4.2,0,9.7,2.9,10.7,7.8L24,575.9L24,575.9z"/>
				</defs>
				<clipPath id="SVGID_00000079487716280004498790000000595367101796508051_">
					<use xlink:href="#SVGID_00000181075856902483469250000001401690521796289973_"  style="overflow:visible;"/>
				</clipPath>
				
					<rect x="-7.5" y="174.9" style="clip-path:url(#SVGID_00000079487716280004498790000000595367101796508051_);fill:#D7A2CD;" width="42.3" height="26.6"/>
			</g>
		</g>
	</g>
	<g class="st29">
		<g>
			<g>
				<defs>
					<path id="SVGID_00000000202861874896110010000011899253472199541918_" d="M24,575.9c0,3.6-5.8,7.9-10.4,7.9H13
						c-4.2,0-9.7-3.8-9.7-7.9v-526c1-4.8,6.3-7.6,10-7.6l0,0c4.2,0,9.7,2.9,10.7,7.8L24,575.9L24,575.9z"/>
				</defs>
				<clipPath id="SVGID_00000178889598634872328520000011967606061789547424_">
					<use xlink:href="#SVGID_00000000202861874896110010000011899253472199541918_"  style="overflow:visible;"/>
				</clipPath>
				
					<rect x="-7.5" y="201.1" style="clip-path:url(#SVGID_00000178889598634872328520000011967606061789547424_);fill:#E8BEDB;" width="42.3" height="26.6"/>
			</g>
		</g>
	</g>
	<g class="st29">
		<g>
			<g>
				<defs>
					<path id="SVGID_00000173877883693703102670000016231169224417641635_" d="M24,575.9c0,3.6-5.8,7.9-10.4,7.9H13
						c-4.2,0-9.7-3.8-9.7-7.9v-526c1-4.8,6.3-7.6,10-7.6l0,0c4.2,0,9.7,2.9,10.7,7.8L24,575.9L24,575.9z"/>
				</defs>
				<clipPath id="SVGID_00000016754488372487989230000009992689622437157023_">
					<use xlink:href="#SVGID_00000173877883693703102670000016231169224417641635_"  style="overflow:visible;"/>
				</clipPath>
				
					<rect x="-7.5" y="227.8" style="clip-path:url(#SVGID_00000016754488372487989230000009992689622437157023_);fill:#E67D9B;" width="42.3" height="26.6"/>
			</g>
		</g>
	</g>
	<g class="st29">
		<g>
			<g>
				<defs>
					<path id="SVGID_00000045583144811307850600000010619288545455467189_" d="M24,575.9c0,3.6-5.8,7.9-10.4,7.9H13
						c-4.2,0-9.7-3.8-9.7-7.9v-526c1-4.8,6.3-7.6,10-7.6l0,0c4.2,0,9.7,2.9,10.7,7.8L24,575.9L24,575.9z"/>
				</defs>
				<clipPath id="SVGID_00000031916526973017587700000017888895475087654069_">
					<use xlink:href="#SVGID_00000045583144811307850600000010619288545455467189_"  style="overflow:visible;"/>
				</clipPath>
				
					<rect x="-7.5" y="254.4" style="clip-path:url(#SVGID_00000031916526973017587700000017888895475087654069_);fill:#DB4C4D;" width="42.3" height="26.6"/>
			</g>
		</g>
	</g>
	<g class="st29">
		<g>
			<g>
				<defs>
					<path id="SVGID_00000173157918795984455950000014304951987399745427_" d="M24,575.9c0,3.6-5.8,7.9-10.4,7.9H13
						c-4.2,0-9.7-3.8-9.7-7.9v-526c1-4.8,6.3-7.6,10-7.6l0,0c4.2,0,9.7,2.9,10.7,7.8L24,575.9L24,575.9z"/>
				</defs>
				<clipPath id="SVGID_00000174600820828621304010000009134670306989967525_">
					<use xlink:href="#SVGID_00000173157918795984455950000014304951987399745427_"  style="overflow:visible;"/>
				</clipPath>
				
					<rect x="-7.5" y="281" style="clip-path:url(#SVGID_00000174600820828621304010000009134670306989967525_);fill:#EF5A5C;" width="42.3" height="26.6"/>
			</g>
		</g>
	</g>
	<g class="st29">
		<g>
			<g>
				<defs>
					<path id="SVGID_00000093882052583911377620000000972941033750720945_" d="M24,575.9c0,3.6-5.8,7.9-10.4,7.9H13
						c-4.2,0-9.7-3.8-9.7-7.9v-526c1-4.8,6.3-7.6,10-7.6l0,0c4.2,0,9.7,2.9,10.7,7.8L24,575.9L24,575.9z"/>
				</defs>
				<clipPath id="SVGID_00000100374151851169658580000007472881703945521850_">
					<use xlink:href="#SVGID_00000093882052583911377620000000972941033750720945_"  style="overflow:visible;"/>
				</clipPath>
				
					<rect x="-7.5" y="307.3" style="clip-path:url(#SVGID_00000100374151851169658580000007472881703945521850_);fill:#F7A25C;" width="42.3" height="26.6"/>
			</g>
		</g>
	</g>
	<g class="st29">
		<g>
			<g>
				<defs>
					<path id="SVGID_00000013177747208729746730000011163740817734679723_" d="M24,575.9c0,3.6-5.8,7.9-10.4,7.9H13
						c-4.2,0-9.7-3.8-9.7-7.9v-526c1-4.8,6.3-7.6,10-7.6l0,0c4.2,0,9.7,2.9,10.7,7.8L24,575.9L24,575.9z"/>
				</defs>
				<clipPath id="SVGID_00000014601166570634150230000013783065335011442837_">
					<use xlink:href="#SVGID_00000013177747208729746730000011163740817734679723_"  style="overflow:visible;"/>
				</clipPath>
				
					<rect x="-7.5" y="333.9" style="clip-path:url(#SVGID_00000014601166570634150230000013783065335011442837_);fill:#FDD58F;" width="42.3" height="26.6"/>
			</g>
		</g>
	</g>
	<g class="st29">
		<g>
			<g>
				<defs>
					<path id="SVGID_00000106867569532687448800000018238396908321278604_" d="M24,575.9c0,3.6-5.8,7.9-10.4,7.9H13
						c-4.2,0-9.7-3.8-9.7-7.9v-526c1-4.8,6.3-7.6,10-7.6l0,0c4.2,0,9.7,2.9,10.7,7.8L24,575.9L24,575.9z"/>
				</defs>
				<clipPath id="SVGID_00000002352520938521707840000011056594908742243474_">
					<use xlink:href="#SVGID_00000106867569532687448800000018238396908321278604_"  style="overflow:visible;"/>
				</clipPath>
				
					<rect x="-7.5" y="360.5" style="clip-path:url(#SVGID_00000002352520938521707840000011056594908742243474_);fill:#FFE173;" width="42.3" height="26.6"/>
			</g>
		</g>
	</g>
	<g class="st29">
		<g>
			<g>
				<defs>
					<path id="SVGID_00000039103310013592229290000006859511270638155904_" d="M24,575.9c0,3.6-5.8,7.9-10.4,7.9H13
						c-4.2,0-9.7-3.8-9.7-7.9v-526c1-4.8,6.3-7.6,10-7.6l0,0c4.2,0,9.7,2.9,10.7,7.8L24,575.9L24,575.9z"/>
				</defs>
				<clipPath id="SVGID_00000112609426162656028010000014682441987289290121_">
					<use xlink:href="#SVGID_00000039103310013592229290000006859511270638155904_"  style="overflow:visible;"/>
				</clipPath>
				
					<rect x="-7.5" y="387.1" style="clip-path:url(#SVGID_00000112609426162656028010000014682441987289290121_);fill:#FEFE82;" width="42.3" height="26.6"/>
			</g>
		</g>
	</g>
	<g class="st29">
		<g>
			<g>
				<defs>
					<path id="SVGID_00000155111783633918612240000007352359360237701799_" d="M24,575.9c0,3.6-5.8,7.9-10.4,7.9H13
						c-4.2,0-9.7-3.8-9.7-7.9v-526c1-4.8,6.3-7.6,10-7.6l0,0c4.2,0,9.7,2.9,10.7,7.8L24,575.9L24,575.9z"/>
				</defs>
				<clipPath id="SVGID_00000162324406483633875480000018328872608298973835_">
					<use xlink:href="#SVGID_00000155111783633918612240000007352359360237701799_"  style="overflow:visible;"/>
				</clipPath>
				
					<rect x="-7.5" y="413.4" style="clip-path:url(#SVGID_00000162324406483633875480000018328872608298973835_);fill:#FFFFC7;" width="42.3" height="26.6"/>
			</g>
		</g>
	</g>
	<g class="st29">
		<g>
			<g>
				<defs>
					<path id="SVGID_00000062171259355671977190000015431164342293302679_" d="M24,575.9c0,3.6-5.8,7.9-10.4,7.9H13
						c-4.2,0-9.7-3.8-9.7-7.9v-526c1-4.8,6.3-7.6,10-7.6l0,0c4.2,0,9.7,2.9,10.7,7.8L24,575.9L24,575.9z"/>
				</defs>
				<clipPath id="SVGID_00000164508248776610559030000016002113197750804611_">
					<use xlink:href="#SVGID_00000062171259355671977190000015431164342293302679_"  style="overflow:visible;"/>
				</clipPath>
				
					<rect x="-7.5" y="440" style="clip-path:url(#SVGID_00000164508248776610559030000016002113197750804611_);fill:#F3F3A1;" width="42.3" height="26.6"/>
			</g>
		</g>
	</g>
	<g class="st29">
		<g>
			<g>
				<defs>
					<path id="SVGID_00000078734722433278455400000011366751232083169189_" d="M24,575.9c0,3.6-5.8,7.9-10.4,7.9H13
						c-4.2,0-9.7-3.8-9.7-7.9v-526c1-4.8,6.3-7.6,10-7.6l0,0c4.2,0,9.7,2.9,10.7,7.8L24,575.9L24,575.9z"/>
				</defs>
				<clipPath id="SVGID_00000113328421520060722700000015478158713229438641_">
					<use xlink:href="#SVGID_00000078734722433278455400000011366751232083169189_"  style="overflow:visible;"/>
				</clipPath>
				
					<rect x="-7.5" y="466.7" style="clip-path:url(#SVGID_00000113328421520060722700000015478158713229438641_);fill:#D3ECA4;" width="42.3" height="26.6"/>
			</g>
		</g>
	</g>
	<g class="st29">
		<g>
			<g>
				<defs>
					<path id="SVGID_00000052076370724364942810000012636173481695903422_" d="M24,575.9c0,3.6-5.8,7.9-10.4,7.9H13
						c-4.2,0-9.7-3.8-9.7-7.9v-526c1-4.8,6.3-7.6,10-7.6l0,0c4.2,0,9.7,2.9,10.7,7.8L24,575.9L24,575.9z"/>
				</defs>
				<clipPath id="SVGID_00000057123436434907879380000010316598577526728617_">
					<use xlink:href="#SVGID_00000052076370724364942810000012636173481695903422_"  style="overflow:visible;"/>
				</clipPath>
				
					<rect x="-7.5" y="493.3" style="clip-path:url(#SVGID_00000057123436434907879380000010316598577526728617_);fill:#C3E6D8;" width="42.3" height="26.6"/>
			</g>
		</g>
	</g>
	<g class="st29">
		<g>
			<g>
				<defs>
					<path id="SVGID_00000157271537418882751750000011312722583691449023_" d="M24,575.9c0,3.6-5.8,7.9-10.4,7.9H13
						c-4.2,0-9.7-3.8-9.7-7.9v-526c1-4.8,6.3-7.6,10-7.6l0,0c4.2,0,9.7,2.9,10.7,7.8L24,575.9L24,575.9z"/>
				</defs>
				<clipPath id="SVGID_00000010279957573204756220000002830768095977820565_">
					<use xlink:href="#SVGID_00000157271537418882751750000011312722583691449023_"  style="overflow:visible;"/>
				</clipPath>
				
					<rect x="-7.5" y="519.9" style="clip-path:url(#SVGID_00000010279957573204756220000002830768095977820565_);fill:#C8E8F0;" width="42.3" height="26.6"/>
			</g>
		</g>
	</g>
	<g class="st29">
		<g>
			<g>
				<defs>
					<path id="SVGID_00000149376877530640593080000004304705415945513617_" d="M24,575.9c0,3.6-5.8,7.9-10.4,7.9H13
						c-4.2,0-9.7-3.8-9.7-7.9v-526c1-4.8,6.3-7.6,10-7.6l0,0c4.2,0,9.7,2.9,10.7,7.8L24,575.9L24,575.9z"/>
				</defs>
				<clipPath id="SVGID_00000170246705361950557630000000783649692075282618_">
					<use xlink:href="#SVGID_00000149376877530640593080000004304705415945513617_"  style="overflow:visible;"/>
				</clipPath>
				
					<rect x="-7.5" y="546.5" style="clip-path:url(#SVGID_00000170246705361950557630000000783649692075282618_);fill:#D0EBF7;" width="42.3" height="40.2"/>
			</g>
		</g>
	</g>
</g>
<g class="st28">
	<g class="st29">
		<g>
			<g>
				<g>
					<defs>
						<path id="SVGID_00000026133850387500182320000018330845075409650340_" d="M23.8,576.1c-0.3,3.3-5.5,7.3-10.1,7.3l0,0
							c-4.5,0.4-10.6-3.2-10.6-7.3v-526c1-4.8,6.3-7.6,10-7.6l0,0c4.2,0,9.7,2.9,10.8,7.8L23.8,576.1L23.8,576.1z"/>
					</defs>
					<clipPath id="SVGID_00000067951560496098379480000007819518511872681388_">
						<use xlink:href="#SVGID_00000026133850387500182320000018330845075409650340_"  style="overflow:visible;"/>
					</clipPath>
					
						<rect x="-2" y="491.2" style="clip-path:url(#SVGID_00000067951560496098379480000007819518511872681388_);fill:#EC2426;" width="30.9" height="96.8"/>
				</g>
			</g>
		</g>
		<g>
			<g>
				<g>
					<defs>
						<path id="SVGID_00000072970036276055692930000005384935533983365009_" d="M23.8,576.1c-0.3,3.3-5.5,7.3-10.1,7.3l0,0
							c-4.5,0.4-10.6-3.2-10.6-7.3v-526c1-4.8,6.3-7.6,10-7.6l0,0c4.2,0,9.7,2.9,10.8,7.8L23.8,576.1L23.8,576.1z"/>
					</defs>
					<clipPath id="SVGID_00000073683517958679532840000018444859877996886966_">
						<use xlink:href="#SVGID_00000072970036276055692930000005384935533983365009_"  style="overflow:visible;"/>
					</clipPath>
					
						<rect x="-1.7" y="315.2" style="clip-path:url(#SVGID_00000073683517958679532840000018444859877996886966_);fill:#FCFC1E;" width="30.9" height="88"/>
				</g>
			</g>
		</g>
		<g>
			<g>
				<g>
					<defs>
						<path id="SVGID_00000106120870480128704870000013859402319502670749_" d="M23.8,576.1c-0.3,3.3-5.5,7.3-10.1,7.3l0,0
							c-4.5,0.4-10.6-3.2-10.6-7.3v-526c1-4.8,6.3-7.6,10-7.6l0,0c4.2,0,9.7,2.9,10.8,7.8L23.8,576.1L23.8,576.1z"/>
					</defs>
					<clipPath id="SVGID_00000143616838766902979230000014128909184576084623_">
						<use xlink:href="#SVGID_00000106120870480128704870000013859402319502670749_"  style="overflow:visible;"/>
					</clipPath>
					
						<rect x="-1.7" y="227.2" style="clip-path:url(#SVGID_00000143616838766902979230000014128909184576084623_);fill:#0B7F3F;" width="30.9" height="88"/>
				</g>
			</g>
		</g>
		<g>
			<g>
				<g>
					<defs>
						<path id="SVGID_00000116195653048600263980000014597966502938038682_" d="M23.8,576.1c-0.3,3.3-5.5,7.3-10.1,7.3l0,0
							c-4.5,0.4-10.6-3.2-10.6-7.3v-526c1-4.8,6.3-7.6,10-7.6l0,0c4.2,0,9.7,2.9,10.8,7.8L23.8,576.1L23.8,576.1z"/>
					</defs>
					<clipPath id="SVGID_00000051350742256144300990000002761189338760559495_">
						<use xlink:href="#SVGID_00000116195653048600263980000014597966502938038682_"  style="overflow:visible;"/>
					</clipPath>
					
						<rect x="-2" y="403.2" style="clip-path:url(#SVGID_00000051350742256144300990000002761189338760559495_);fill:#F7A426;" width="30.9" height="88"/>
				</g>
			</g>
		</g>
		<g>
			<g>
				<g>
					<defs>
						<path id="SVGID_00000117669539898522303100000006385507476347898046_" d="M23.8,576.1c-0.3,3.3-5.5,7.3-10.1,7.3l0,0
							c-4.5,0.4-10.6-3.2-10.6-7.3v-526c1-4.8,6.3-7.6,10-7.6l0,0c4.2,0,9.7,2.9,10.8,7.8L23.8,576.1L23.8,576.1z"/>
					</defs>
					<clipPath id="SVGID_00000013192521475571767830000003104482746022230975_">
						<use xlink:href="#SVGID_00000117669539898522303100000006385507476347898046_"  style="overflow:visible;"/>
					</clipPath>
					
						<rect x="-1.7" y="139.2" style="clip-path:url(#SVGID_00000013192521475571767830000003104482746022230975_);fill:#6FC9DC;" width="30.9" height="88"/>
				</g>
			</g>
		</g>
		<g>
			<g>
				<g>
					<defs>
						<path id="SVGID_00000161593880081114162420000013085576805906491036_" d="M23.8,576.1c-0.3,3.3-5.5,7.3-10.1,7.3l0,0
							c-4.5,0.4-10.6-3.2-10.6-7.3v-526c1-4.8,6.3-7.6,10-7.6l0,0c4.2,0,9.7,2.9,10.8,7.8L23.8,576.1L23.8,576.1z"/>
					</defs>
					<clipPath id="SVGID_00000005262658030501968710000004930203365377638292_">
						<use xlink:href="#SVGID_00000161593880081114162420000013085576805906491036_"  style="overflow:visible;"/>
					</clipPath>
					
						<rect x="-1.7" y="42.4" style="clip-path:url(#SVGID_00000005262658030501968710000004930203365377638292_);fill:#3F57B0;" width="30.9" height="96.8"/>
				</g>
			</g>
		</g>
	</g>
</g>
<circle class="st62" cx="13.4" cy="23.8" r="14.6"/>
<path class="st63" d="M23.8,576.1c-0.3,3.3-5.5,7.3-10.1,7.3l0,0c-4.5,0.4-10.6-3.2-10.6-7.3v-526c1-4.8,6.3-7.6,10-7.6l0,0
	c4.2,0,9.7,2.9,10.8,7.8L23.8,576.1L23.8,576.1z"/>
<g class="st28">
	<path class="st64" d="M8.8,574.6c-0.4-0.5-0.6-1-0.6-1.8c0-0.7,0.2-1.3,0.6-1.8s0.9-0.7,1.5-0.7s1.1,0.2,1.5,0.7
		c0.4,0.4,0.6,1,0.6,1.8s-0.2,1.3-0.6,1.8c-0.4,0.4-0.9,0.7-1.5,0.7S9.2,575.1,8.8,574.6z M11.1,574c0.2-0.3,0.3-0.7,0.3-1.1
		c0-0.5-0.1-0.9-0.3-1.1c-0.2-0.3-0.5-0.4-0.8-0.4c-0.3,0-0.6,0.1-0.8,0.4c-0.2,0.3-0.3,0.7-0.3,1.1c0,0.5,0.1,0.9,0.3,1.1
		c0.2,0.3,0.5,0.4,0.8,0.4C10.7,574.4,10.9,574.3,11.1,574z M15.6,570.5h1.2l-6.1,8.9H9.6L15.6,570.5z M14.6,578.8
		c-0.4-0.5-0.6-1-0.6-1.8c0-0.7,0.2-1.3,0.6-1.8c0.4-0.4,0.9-0.7,1.5-0.7c0.6,0,1.1,0.2,1.5,0.7c0.4,0.4,0.6,1,0.6,1.8
		c0,0.7-0.2,1.3-0.6,1.8c-0.4,0.4-0.9,0.7-1.5,0.7C15.5,579.5,15,579.3,14.6,578.8z M16.9,578.2c0.2-0.3,0.3-0.7,0.3-1.1
		c0-0.5-0.1-0.9-0.3-1.1c-0.2-0.3-0.5-0.4-0.8-0.4c-0.3,0-0.6,0.1-0.8,0.4c-0.2,0.3-0.3,0.7-0.3,1.1c0,0.5,0.1,0.9,0.3,1.1
		c0.2,0.3,0.5,0.4,0.8,0.4C16.5,578.6,16.7,578.5,16.9,578.2z"/>
</g>
<g class="st28">
	<path class="st64" d="M12.3,530.4c0.4,0.3,0.6,0.7,0.6,1.2c0,0.3-0.1,0.6-0.2,0.9c-0.2,0.3-0.4,0.5-0.7,0.6
		c-0.3,0.2-0.7,0.2-1.2,0.2c-0.4,0-0.8-0.1-1.1-0.2c-0.4-0.1-0.7-0.3-0.9-0.5l0.4-0.8c0.2,0.2,0.4,0.3,0.7,0.4
		c0.3,0.1,0.6,0.1,0.9,0.1c0.4,0,0.6-0.1,0.8-0.2c0.2-0.1,0.3-0.4,0.3-0.6c0-0.3-0.1-0.5-0.3-0.6c-0.2-0.1-0.6-0.2-1.1-0.2H9l0.3-3
		h3.2v0.9h-2.4l-0.1,1.3h0.5C11.3,529.9,11.9,530.1,12.3,530.4z"/>
	<path class="st64" d="M14.5,533c-0.3-0.2-0.6-0.5-0.8-1c-0.2-0.4-0.3-0.9-0.3-1.5s0.1-1.1,0.3-1.5c0.2-0.4,0.5-0.8,0.8-1
		c0.3-0.2,0.7-0.3,1.2-0.3c0.4,0,0.8,0.1,1.2,0.3c0.3,0.2,0.6,0.5,0.8,1c0.2,0.4,0.3,0.9,0.3,1.5s-0.1,1.1-0.3,1.5
		c-0.2,0.4-0.5,0.7-0.8,1c-0.3,0.2-0.7,0.3-1.2,0.3C15.2,533.3,14.9,533.2,14.5,533z M16.6,532c0.2-0.3,0.3-0.8,0.3-1.4
		c0-0.6-0.1-1.1-0.3-1.4c-0.2-0.3-0.5-0.5-0.9-0.5c-0.4,0-0.7,0.2-0.9,0.5c-0.2,0.3-0.3,0.8-0.3,1.4c0,0.6,0.1,1.1,0.3,1.4
		s0.5,0.5,0.9,0.5C16.1,532.5,16.4,532.3,16.6,532z"/>
</g>
<g class="st28">
	<path class="st64" d="M12.2,449c0.3,0.1,0.5,0.3,0.7,0.6c0.2,0.3,0.2,0.6,0.2,0.9c0,0.4-0.1,0.7-0.3,0.9c-0.2,0.3-0.4,0.5-0.7,0.6
		c-0.3,0.1-0.6,0.2-1,0.2c-0.8,0-1.3-0.2-1.7-0.7c-0.4-0.5-0.6-1.1-0.6-2c0-0.6,0.1-1.1,0.3-1.6c0.2-0.4,0.5-0.8,0.9-1
		c0.4-0.2,0.9-0.3,1.4-0.3c0.3,0,0.5,0,0.8,0.1c0.2,0.1,0.5,0.1,0.6,0.3l-0.4,0.8c-0.3-0.2-0.6-0.3-1-0.3c-0.5,0-0.9,0.2-1.2,0.5
		c-0.3,0.3-0.4,0.8-0.4,1.4v0c0.2-0.2,0.4-0.3,0.6-0.4c0.3-0.1,0.5-0.1,0.8-0.1C11.6,448.8,11.9,448.9,12.2,449z M11.8,451.2
		c0.2-0.2,0.3-0.4,0.3-0.7c0-0.3-0.1-0.5-0.3-0.7c-0.2-0.2-0.5-0.3-0.8-0.3c-0.3,0-0.6,0.1-0.8,0.3c-0.2,0.2-0.3,0.4-0.3,0.7
		c0,0.3,0.1,0.5,0.3,0.7c0.2,0.2,0.5,0.3,0.8,0.3C11.4,451.5,11.6,451.4,11.8,451.2z"/>
	<path class="st64" d="M14.8,452c-0.3-0.2-0.6-0.5-0.8-1c-0.2-0.4-0.3-0.9-0.3-1.5c0-0.6,0.1-1.1,0.3-1.5c0.2-0.4,0.5-0.8,0.8-1
		c0.3-0.2,0.7-0.3,1.2-0.3c0.4,0,0.8,0.1,1.2,0.3c0.3,0.2,0.6,0.5,0.8,1c0.2,0.4,0.3,0.9,0.3,1.5c0,0.6-0.1,1.1-0.3,1.5
		c-0.2,0.4-0.5,0.7-0.8,1c-0.3,0.2-0.7,0.3-1.2,0.3C15.5,452.3,15.1,452.2,14.8,452z M16.9,450.9c0.2-0.3,0.3-0.8,0.3-1.4
		s-0.1-1.1-0.3-1.4c-0.2-0.3-0.5-0.5-0.9-0.5c-0.4,0-0.7,0.2-0.9,0.5c-0.2,0.3-0.3,0.8-0.3,1.4s0.1,1.1,0.3,1.4
		c0.2,0.3,0.5,0.5,0.9,0.5C16.3,451.4,16.6,451.2,16.9,450.9z"/>
</g>
<g class="st28">
	<path class="st64" d="M13.2,358v0.7l-2.1,4.8H9.9l2.1-4.6H9.8v0.9H8.9V358L13.2,358L13.2,358z"/>
	<path class="st64" d="M14.7,363.2c-0.3-0.2-0.6-0.5-0.8-1c-0.2-0.4-0.3-0.9-0.3-1.5c0-0.6,0.1-1.1,0.3-1.5c0.2-0.4,0.5-0.7,0.8-1
		c0.3-0.2,0.7-0.3,1.2-0.3c0.4,0,0.8,0.1,1.2,0.3c0.3,0.2,0.6,0.5,0.8,1c0.2,0.4,0.3,0.9,0.3,1.5c0,0.6-0.1,1.1-0.3,1.5
		c-0.2,0.4-0.5,0.7-0.8,1c-0.3,0.2-0.7,0.3-1.2,0.3C15.5,363.6,15.1,363.4,14.7,363.2z M16.8,362.2c0.2-0.3,0.3-0.8,0.3-1.4
		s-0.1-1.1-0.3-1.4c-0.2-0.3-0.5-0.5-0.9-0.5c-0.4,0-0.7,0.2-0.9,0.5c-0.2,0.3-0.3,0.8-0.3,1.4c0,0.6,0.1,1.1,0.3,1.4
		c0.2,0.3,0.5,0.5,0.9,0.5C16.3,362.7,16.6,362.5,16.8,362.2z"/>
</g>
<g class="st28">
	<path class="st64" d="M13,264.4c0.2,0.2,0.2,0.5,0.2,0.8c0,0.3-0.1,0.6-0.3,0.9c-0.2,0.3-0.4,0.4-0.8,0.6s-0.7,0.2-1.2,0.2
		c-0.4,0-0.8-0.1-1.2-0.2c-0.3-0.1-0.6-0.3-0.8-0.6c-0.2-0.3-0.3-0.5-0.3-0.9c0-0.3,0.1-0.6,0.2-0.8c0.2-0.2,0.4-0.4,0.6-0.5
		c-0.2-0.1-0.4-0.3-0.5-0.5c-0.1-0.2-0.2-0.4-0.2-0.7c0-0.3,0.1-0.6,0.3-0.8c0.2-0.2,0.4-0.4,0.7-0.5c0.3-0.1,0.7-0.2,1.1-0.2
		c0.4,0,0.8,0.1,1.1,0.2c0.3,0.1,0.5,0.3,0.7,0.5c0.2,0.2,0.3,0.5,0.3,0.8c0,0.3-0.1,0.5-0.2,0.7c-0.1,0.2-0.3,0.4-0.5,0.5
		C12.6,264,12.8,264.1,13,264.4z M11.9,265.8c0.2-0.2,0.3-0.4,0.3-0.6c0-0.3-0.1-0.5-0.3-0.6c-0.2-0.2-0.5-0.2-0.9-0.2
		s-0.7,0.1-0.9,0.2c-0.2,0.2-0.3,0.4-0.3,0.6c0,0.3,0.1,0.5,0.3,0.6c0.2,0.2,0.5,0.2,0.9,0.2C11.3,266,11.6,265.9,11.9,265.8z
		 M10.2,262.2c-0.2,0.1-0.3,0.3-0.3,0.6c0,0.2,0.1,0.4,0.3,0.6c0.2,0.1,0.4,0.2,0.8,0.2c0.3,0,0.6-0.1,0.8-0.2
		c0.2-0.1,0.3-0.3,0.3-0.6c0-0.2-0.1-0.4-0.3-0.6c-0.2-0.1-0.4-0.2-0.8-0.2S10.4,262,10.2,262.2z"/>
	<path class="st64" d="M15,266.5c-0.3-0.2-0.6-0.5-0.8-1c-0.2-0.4-0.3-0.9-0.3-1.5c0-0.6,0.1-1.1,0.3-1.5c0.2-0.4,0.5-0.7,0.8-1
		c0.3-0.2,0.7-0.3,1.2-0.3c0.4,0,0.8,0.1,1.2,0.3c0.3,0.2,0.6,0.5,0.8,1s0.3,0.9,0.3,1.5c0,0.6-0.1,1.1-0.3,1.5
		c-0.2,0.4-0.5,0.7-0.8,1s-0.7,0.3-1.2,0.3C15.7,266.8,15.3,266.7,15,266.5z M17.1,265.4c0.2-0.3,0.3-0.8,0.3-1.4
		c0-0.6-0.1-1.1-0.3-1.4c-0.2-0.3-0.5-0.5-0.9-0.5c-0.4,0-0.7,0.2-0.9,0.5c-0.2,0.3-0.3,0.8-0.3,1.4c0,0.6,0.1,1.1,0.3,1.4
		c0.2,0.3,0.5,0.5,0.9,0.5C16.5,265.9,16.9,265.8,17.1,265.4z"/>
</g>
<g class="st28">
	<path class="st64" d="M12.5,181.5c0.4,0.5,0.6,1.1,0.6,2c0,0.6-0.1,1.1-0.3,1.6c-0.2,0.4-0.5,0.8-0.9,1c-0.4,0.2-0.9,0.3-1.4,0.3
		c-0.3,0-0.5,0-0.8-0.1c-0.2-0.1-0.5-0.1-0.6-0.3l0.4-0.8c0.3,0.2,0.6,0.3,1,0.3c0.5,0,0.9-0.2,1.2-0.5c0.3-0.3,0.4-0.8,0.4-1.4v0
		c-0.2,0.2-0.4,0.3-0.6,0.4c-0.3,0.1-0.5,0.1-0.8,0.1c-0.4,0-0.7-0.1-1-0.2c-0.3-0.1-0.5-0.3-0.7-0.6c-0.2-0.3-0.2-0.6-0.2-0.9
		c0-0.4,0.1-0.7,0.3-0.9c0.2-0.3,0.4-0.5,0.7-0.6c0.3-0.1,0.6-0.2,1-0.2C11.5,180.7,12.1,181,12.5,181.5z M11.6,183.1
		c0.2-0.2,0.3-0.4,0.3-0.7c0-0.3-0.1-0.5-0.3-0.7c-0.2-0.2-0.5-0.3-0.8-0.3c-0.3,0-0.6,0.1-0.8,0.3c-0.2,0.2-0.3,0.4-0.3,0.7
		c0,0.3,0.1,0.5,0.3,0.7s0.5,0.3,0.8,0.3C11.1,183.4,11.4,183.3,11.6,183.1z"/>
	<path class="st64" d="M14.9,186c-0.3-0.2-0.6-0.5-0.8-1c-0.2-0.4-0.3-0.9-0.3-1.5s0.1-1.1,0.3-1.5c0.2-0.4,0.5-0.7,0.8-1
		c0.3-0.2,0.7-0.3,1.2-0.3c0.4,0,0.8,0.1,1.2,0.3c0.3,0.2,0.6,0.5,0.8,1c0.2,0.4,0.3,0.9,0.3,1.5s-0.1,1.1-0.3,1.5
		c-0.2,0.4-0.5,0.7-0.8,1c-0.3,0.2-0.7,0.3-1.2,0.3C15.6,186.4,15.2,186.3,14.9,186z M17,185c0.2-0.3,0.3-0.8,0.3-1.4
		c0-0.6-0.1-1.1-0.3-1.4c-0.2-0.3-0.5-0.5-0.9-0.5c-0.4,0-0.7,0.2-0.9,0.5c-0.2,0.3-0.3,0.8-0.3,1.4c0,0.6,0.1,1.1,0.3,1.4
		c0.2,0.3,0.5,0.5,0.9,0.5C16.4,185.5,16.8,185.3,17,185z"/>
</g>
<g class="st28">
	<path class="st64" d="M9.1,83.8v5.5h-1v-4.6H6.9v-0.9H9.1z"/>
	<path class="st64" d="M11.3,89c-0.3-0.2-0.6-0.5-0.8-1c-0.2-0.4-0.3-0.9-0.3-1.5s0.1-1.1,0.3-1.5s0.5-0.7,0.8-1
		c0.3-0.2,0.7-0.3,1.2-0.3c0.4,0,0.8,0.1,1.2,0.3c0.3,0.2,0.6,0.5,0.8,1c0.2,0.4,0.3,0.9,0.3,1.5s-0.1,1.1-0.3,1.5
		c-0.2,0.4-0.5,0.7-0.8,1c-0.3,0.2-0.7,0.3-1.2,0.3C12,89.4,11.6,89.3,11.3,89z M13.4,88c0.2-0.3,0.3-0.8,0.3-1.4s-0.1-1.1-0.3-1.4
		c-0.2-0.3-0.5-0.5-0.9-0.5c-0.4,0-0.7,0.2-0.9,0.5c-0.2,0.3-0.3,0.8-0.3,1.4c0,0.6,0.1,1.1,0.3,1.4c0.2,0.3,0.5,0.5,0.9,0.5
		C12.9,88.5,13.2,88.3,13.4,88z"/>
	<path class="st64" d="M16.6,89c-0.3-0.2-0.6-0.5-0.8-1c-0.2-0.4-0.3-0.9-0.3-1.5s0.1-1.1,0.3-1.5c0.2-0.4,0.5-0.7,0.8-1
		c0.3-0.2,0.7-0.3,1.2-0.3c0.4,0,0.8,0.1,1.2,0.3s0.6,0.5,0.8,1S20,86,20,86.5s-0.1,1.1-0.3,1.5c-0.2,0.4-0.5,0.7-0.8,1
		c-0.3,0.2-0.7,0.3-1.2,0.3C17.3,89.4,16.9,89.3,16.6,89z M18.7,88c0.2-0.3,0.3-0.8,0.3-1.4s-0.1-1.1-0.3-1.4
		c-0.2-0.3-0.5-0.5-0.9-0.5c-0.4,0-0.7,0.2-0.9,0.5c-0.2,0.3-0.3,0.8-0.3,1.4c0,0.6,0.1,1.1,0.3,1.4c0.2,0.3,0.5,0.5,0.9,0.5
		C18.1,88.5,18.4,88.3,18.7,88z"/>
</g>
<g class="st28">
	<path class="st65" d="M7.1,30.5h12.4c2.6,0,4.8-1.8,5.3-4.2c0.3-1.6-0.1-3.2-1.1-4.4c-0.9-1-2.1-1.7-3.4-1.9v-1.2
		c0-4.2-3.8-7.5-7.9-7c-3.5,0.4-6.2,3.5-6.2,7.3V20c-1.1,0.1-2.2,0.7-3,1.5c-1.2,1.2-1.7,2.9-1.5,4.6C2.2,28.5,4.6,30.5,7.1,30.5z
		 M4.2,22.5c0.7-0.7,1.7-1.1,2.7-1.1c0.4,0,0.7-0.3,0.7-0.7v-1.6c0-3.1,2.5-5.9,5.7-5.9c3.1,0,5.7,2.6,5.7,5.7v1.8
		c0,0.4,0.3,0.7,0.7,0.7c1.2,0,2.3,0.5,3,1.4c0.7,0.9,1,2.1,0.8,3.3c-0.4,1.8-2,3.1-4,3.1H7.1c-1.8,0-3.7-1.5-4-3.2
		C2.9,24.6,3.3,23.4,4.2,22.5z"/>
</g>
<rect x="8.6" y="30.5" class="st66" width="9.5" height="5.3"/>
<g class="st67">
	<path class="st65" d="M12.5,30.7h0.7V34h2v0.6h-2.7C12.5,34.6,12.5,30.7,12.5,30.7z"/>
</g>
<g>
	<g>
		<g>
			<g>
				<defs>
					<path id="SVGID_00000135673365587690952190000006139542838072331431_" d="M26.1,582.8c-0.3,3.4-5.7,7.5-10.3,7.5l0,0
						c-4.6,0.4-10.9-3.3-10.9-7.5V44.8c1-4.9,6.5-7.8,10.2-7.8l0,0c4.3,0,9.9,2.9,11,8L26.1,582.8L26.1,582.8z"/>
				</defs>
				<clipPath id="SVGID_00000067951909520858016180000012554008535435744401_">
					<use xlink:href="#SVGID_00000135673365587690952190000006139542838072331431_"  style="overflow:visible;"/>
				</clipPath>
				<g style="clip-path:url(#SVGID_00000067951909520858016180000012554008535435744401_);">
					<rect x="-2" y="38.3" class="st1" width="42.4" height="13.8"/>
					<rect x="-6" y="51.5" class="st2" width="42" height="13.1"/>
					<rect x="-6" y="64.6" class="st3" width="42" height="13.1"/>
					<rect x="-6" y="77.7" class="st4" width="42" height="13.1"/>
					<rect x="-6" y="90.8" class="st5" width="42" height="13.1"/>
					<rect x="-6" y="103.9" class="st6" width="42" height="13.1"/>
					<rect x="-6" y="117" class="st7" width="42" height="13.1"/>
					<rect x="-6" y="130.1" class="st8" width="42" height="13.1"/>
					<rect x="-6" y="143.2" class="st9" width="42" height="13.1"/>
					<rect x="-6" y="156.3" class="st10" width="42" height="13.1"/>
					<rect x="-6" y="169.4" class="st11" width="42" height="13.1"/>
					<rect x="-6" y="182.5" class="st12" width="42" height="13.1"/>
					<rect x="-6" y="195.6" class="st13" width="42" height="13.1"/>
					<rect x="-6" y="208.7" class="st1" width="42" height="13.1"/>
					<rect x="-6" y="221.8" class="st2" width="42" height="13.1"/>
					<rect x="-6" y="234.9" class="st14" width="42" height="13.1"/>
					<rect x="-6" y="248" class="st15" width="42" height="13.1"/>
					<rect x="-6" y="261.1" class="st16" width="42" height="13.1"/>
					<rect x="-6" y="274.2" class="st17" width="42" height="13.1"/>
					<rect x="-6" y="287.3" class="st18" width="42" height="13.1"/>
					<rect x="-6" y="300.4" class="st19" width="42" height="13.1"/>
					<rect x="-6" y="313.5" class="st20" width="42" height="13.1"/>
					<rect x="-6" y="326.6" class="st21" width="42" height="13.1"/>
					<rect x="-6" y="339.7" class="st22" width="42" height="13.1"/>
					<rect x="-6" y="352.8" class="st23" width="42" height="13.1"/>
					<rect x="-6" y="365.9" class="st24" width="42" height="13.1"/>
					<rect x="-6" y="379" class="st3" width="42" height="13.1"/>
					<rect x="-6" y="392.1" class="st4" width="42" height="13.1"/>
					<rect x="-6" y="405.2" class="st5" width="42" height="13.1"/>
					<rect x="-6" y="418.2" class="st6" width="42" height="13.1"/>
					<rect x="-6" y="431.3" class="st7" width="42" height="13.1"/>
					<rect x="-6" y="444.4" class="st8" width="42" height="13.1"/>
					<rect x="-6" y="457.5" class="st9" width="42" height="13.1"/>
					<rect x="-6" y="470.6" class="st10" width="42" height="13.1"/>
					<rect x="-6" y="483.7" class="st11" width="42" height="13.1"/>
					<rect x="-6" y="496.8" class="st12" width="42" height="13.1"/>
					<rect x="-6" y="509.9" class="st13" width="42" height="13.1"/>
					<rect x="-6" y="523" class="st1" width="42" height="13.1"/>
					<rect x="-6" y="536.1" class="st2" width="42" height="55.5"/>
				</g>
			</g>
		</g>
	</g>
</g>
<g>
	<path class="st25" d="M11.9,579.3c-0.7-0.4-1.3-0.9-1.7-1.6c-0.4-0.7-0.6-1.5-0.6-2.4s0.2-1.7,0.6-2.4c0.4-0.7,1-1.2,1.7-1.6
		c0.7-0.4,1.6-0.6,2.5-0.6c0.7,0,1.4,0.1,2,0.4c0.6,0.3,1.1,0.6,1.5,1.1l-1.1,1c-0.6-0.7-1.4-1.1-2.4-1.1c-0.6,0-1.2,0.1-1.7,0.4
		c-0.5,0.3-0.9,0.6-1.1,1.1c-0.3,0.5-0.4,1-0.4,1.6c0,0.6,0.1,1.1,0.4,1.6c0.3,0.5,0.7,0.9,1.1,1.1c0.5,0.3,1,0.4,1.7,0.4
		c0.9,0,1.7-0.4,2.4-1.1l1.1,1c-0.4,0.5-0.9,0.9-1.5,1.1c-0.6,0.3-1.3,0.4-2,0.4C13.5,579.9,12.6,579.7,11.9,579.3z"/>
	<path class="st25" d="M20,574.7c-0.3-0.2-0.6-0.5-0.8-0.8c-0.2-0.3-0.3-0.7-0.3-1.1c0-0.4,0.1-0.8,0.3-1.1c0.2-0.3,0.5-0.6,0.8-0.8
		c0.3-0.2,0.7-0.3,1.1-0.3c0.4,0,0.8,0.1,1.1,0.3c0.3,0.2,0.6,0.5,0.8,0.8c0.2,0.3,0.3,0.7,0.3,1.1c0,0.4-0.1,0.7-0.3,1.1
		c-0.2,0.3-0.5,0.6-0.8,0.8c-0.3,0.2-0.7,0.3-1.1,0.3C20.7,575,20.4,574.9,20,574.7z M22,573.8c0.2-0.2,0.4-0.6,0.4-0.9
		c0-0.4-0.1-0.7-0.4-0.9s-0.5-0.4-0.9-0.4s-0.7,0.1-0.9,0.4c-0.2,0.2-0.4,0.6-0.4,0.9c0,0.4,0.1,0.7,0.4,0.9
		c0.2,0.2,0.6,0.4,0.9,0.4S21.8,574.1,22,573.8z"/>
</g>
<ellipse class="st25" cx="15.5" cy="17.8" rx="14.9" ry="14.9"/>
<g id="Layer_1_00000094618233620819150710000009544971755126034336_">
	<g>
		<path class="st26" d="M15.8,5.7c-2.5,0-4.5,2-4.5,4.5v6.5c-1.7,1.5-2.6,3.7-2.3,6c0.4,3.1,2.9,5.5,6,5.9c4,0.4,7.6-2.7,7.6-6.7
			c0-2-0.8-3.8-2.3-5.1v-6.5C20.3,7.7,18.3,5.7,15.8,5.7z M21.4,21.8c0,3.3-3,5.9-6.3,5.6c-2.5-0.3-4.6-2.3-4.9-4.9
			c-0.2-2,0.5-3.9,2.1-5.1c0.1-0.1,0.2-0.3,0.2-0.5v-6.8c0-1.8,1.5-3.3,3.3-3.3c1.8,0,3.3,1.5,3.3,3.3v6.8c0,0.2,0.1,0.3,0.2,0.5
			C20.7,18.5,21.4,20,21.4,21.8z"/>
	</g>
	<g>
		<path class="st26" d="M17.9,18.8v-7.1c0-1.2-1-2.1-2.1-2.1s-2.1,1-2.1,2.1v7.1c-1.2,0.9-1.8,2.4-1.4,3.9c0.6,2.5,3.8,3.6,5.9,2
			c0.9-0.7,1.4-1.8,1.4-2.9C19.5,20.6,18.9,19.5,17.9,18.8z M17.4,23.7c-1.4,1.1-3.6,0.4-4-1.3c-0.3-1.1,0.2-2.2,1.2-2.8
			c0.2-0.1,0.3-0.3,0.3-0.5v-7.4c0-0.5,0.4-1,1-1c0.5,0,1,0.4,1,1v7.4c0,0.2,0.1,0.4,0.3,0.5c0.8,0.5,1.3,1.3,1.3,2.2
			C18.3,22.5,18,23.2,17.4,23.7z"/>
	</g>
</g>
<path class="st69" d="M26.1,582.7c-0.3,3.4-5.7,7.5-10.3,7.5l0,0c-4.6,0.4-10.9-3.3-10.9-7.5V44.7c1-4.9,6.5-7.8,10.2-7.8l0,0
	c4.3,0,9.9,2.9,11,8L26.1,582.7L26.1,582.7z"/>
<g>
	<path class="st70" d="M6.9,555.6H10v1.2H6.9V555.6z"/>
	<path class="st70" d="M15.9,555.4c0.4,0.4,0.6,0.9,0.6,1.5c0,0.5-0.1,0.9-0.3,1.2c-0.2,0.4-0.6,0.7-1.1,0.9c-0.5,0.2-1,0.3-1.7,0.3
		c-0.6,0-1.1-0.1-1.6-0.2c-0.5-0.2-1-0.4-1.3-0.7l0.6-1.1c0.3,0.2,0.6,0.4,1,0.6c0.4,0.1,0.8,0.2,1.3,0.2c0.5,0,0.9-0.1,1.2-0.3
		s0.4-0.5,0.4-0.9c0-0.4-0.1-0.7-0.4-0.9c-0.3-0.2-0.7-0.3-1.3-0.3h-0.7v-1l1.8-2.1h-3.6v-1.2h5.4v1l-1.9,2.3
		C15,554.8,15.6,555,15.9,555.4z"/>
	<path class="st70" d="M19.1,558.9c-0.5-0.3-0.9-0.8-1.2-1.4c-0.3-0.6-0.4-1.3-0.4-2.2s0.1-1.6,0.4-2.2c0.3-0.6,0.7-1.1,1.2-1.4
		c0.5-0.3,1.1-0.5,1.7-0.5c0.6,0,1.2,0.2,1.7,0.5c0.5,0.3,0.9,0.8,1.2,1.4c0.3,0.6,0.4,1.3,0.4,2.2s-0.1,1.6-0.4,2.2
		c-0.3,0.6-0.7,1.1-1.2,1.4c-0.5,0.3-1.1,0.5-1.7,0.5C20.1,559.4,19.6,559.2,19.1,558.9z M22.1,557.4c0.3-0.5,0.5-1.2,0.5-2.1
		s-0.2-1.6-0.5-2.1s-0.8-0.7-1.3-0.7c-0.6,0-1,0.2-1.3,0.7c-0.3,0.5-0.5,1.2-0.5,2.1s0.2,1.6,0.5,2.1c0.3,0.5,0.8,0.7,1.3,0.7
		C21.3,558.1,21.8,557.9,22.1,557.4z"/>
</g>
<g>
	<path class="st26" d="M7.1,516.2h3.1v1.2H7.1V516.2z"/>
	<path class="st26" d="M16.8,518.7v1.2H11v-1l3.1-3c0.4-0.3,0.6-0.6,0.7-0.9c0.1-0.3,0.2-0.5,0.2-0.7c0-0.4-0.1-0.6-0.4-0.8
		s-0.6-0.3-1.1-0.3c-0.8,0-1.4,0.3-1.8,0.8l-1-0.8c0.3-0.4,0.7-0.7,1.2-1s1.1-0.3,1.8-0.3c0.9,0,1.5,0.2,2.1,0.6
		c0.5,0.4,0.8,1,0.8,1.7c0,0.4-0.1,0.8-0.3,1.2c-0.2,0.4-0.5,0.8-1,1.3l-2.1,2H16.8z"/>
	<path class="st26" d="M22.6,515.4c0.4,0.2,0.7,0.5,1,0.8c0.2,0.4,0.3,0.8,0.3,1.3c0,0.5-0.1,1-0.4,1.3c-0.3,0.4-0.6,0.7-1,0.9
		c-0.4,0.2-0.9,0.3-1.5,0.3c-1.1,0-1.9-0.3-2.5-1c-0.6-0.7-0.9-1.6-0.9-2.9c0-0.9,0.2-1.6,0.5-2.3s0.8-1.1,1.4-1.4
		c0.6-0.3,1.3-0.5,2-0.5c0.4,0,0.8,0,1.1,0.1c0.4,0.1,0.7,0.2,0.9,0.4l-0.5,1.1c-0.4-0.3-0.9-0.4-1.5-0.4c-0.8,0-1.4,0.2-1.8,0.7
		c-0.4,0.5-0.6,1.1-0.6,2v0c0.2-0.3,0.5-0.5,0.9-0.6c0.4-0.1,0.8-0.2,1.2-0.2C21.7,515.1,22.2,515.2,22.6,515.4z M22.1,518.5
		c0.3-0.2,0.4-0.6,0.4-1c0-0.4-0.1-0.7-0.4-1c-0.3-0.2-0.7-0.4-1.2-0.4c-0.5,0-0.9,0.1-1.2,0.4s-0.4,0.6-0.4,1c0,0.4,0.1,0.7,0.4,1
		c0.3,0.3,0.7,0.4,1.2,0.4C21.4,518.9,21.8,518.8,22.1,518.5z"/>
</g>
<g>
	<g>
		<path class="st26" d="M7.4,490h3.1v1.2H7.4V490z"/>
		<path class="st26" d="M17.2,492.5v1.2h-5.8v-1l3.1-3c0.4-0.3,0.6-0.6,0.7-0.9c0.1-0.3,0.2-0.5,0.2-0.7c0-0.4-0.1-0.6-0.4-0.8
			s-0.6-0.3-1.1-0.3c-0.8,0-1.4,0.3-1.8,0.8l-1-0.8c0.3-0.4,0.7-0.7,1.2-1s1.1-0.3,1.8-0.3c0.9,0,1.5,0.2,2.1,0.6
			c0.5,0.4,0.8,1,0.8,1.7c0,0.4-0.1,0.8-0.3,1.2s-0.5,0.8-1,1.3l-2.1,2H17.2z"/>
		<path class="st26" d="M23.7,492.5v1.2h-5.8v-1l3.1-3c0.4-0.3,0.6-0.6,0.7-0.9c0.1-0.3,0.2-0.5,0.2-0.7c0-0.4-0.1-0.6-0.4-0.8
			S21,487,20.5,487c-0.8,0-1.4,0.3-1.8,0.8l-1-0.8c0.3-0.4,0.7-0.7,1.2-1s1.1-0.3,1.8-0.3c0.9,0,1.5,0.2,2.1,0.6
			c0.5,0.4,0.8,1,0.8,1.7c0,0.4-0.1,0.8-0.3,1.2s-0.5,0.8-1,1.3l-2.1,2H23.7z"/>
	</g>
</g>
<g>
	<g>
		<path class="st26" d="M8.4,463.6h3.1v1.2H8.4V463.6z"/>
		<path class="st26" d="M15.1,459.5v7.9h-1.5v-6.6H12v-1.2H15.1z"/>
		<path class="st26" d="M22.8,464c0.2,0.3,0.3,0.7,0.3,1.1c0,0.5-0.1,0.9-0.4,1.3c-0.3,0.4-0.6,0.6-1.1,0.8
			c-0.5,0.2-1.1,0.3-1.7,0.3s-1.2-0.1-1.7-0.3c-0.5-0.2-0.9-0.5-1.1-0.8c-0.3-0.4-0.4-0.8-0.4-1.3c0-0.4,0.1-0.8,0.3-1.1
			c0.2-0.3,0.5-0.6,0.9-0.8c-0.3-0.2-0.6-0.4-0.7-0.7s-0.3-0.6-0.3-1c0-0.4,0.1-0.8,0.4-1.2c0.2-0.3,0.6-0.6,1-0.8
			c0.4-0.2,1-0.3,1.5-0.3c0.6,0,1.1,0.1,1.5,0.3c0.4,0.2,0.8,0.4,1,0.8s0.4,0.7,0.4,1.2c0,0.4-0.1,0.7-0.3,1s-0.4,0.5-0.7,0.7
			C22.2,463.4,22.5,463.6,22.8,464z M21.1,466c0.3-0.2,0.5-0.5,0.5-0.9c0-0.4-0.2-0.7-0.5-0.9c-0.3-0.2-0.7-0.3-1.3-0.3
			s-1,0.1-1.3,0.3c-0.3,0.2-0.5,0.5-0.5,0.9c0,0.4,0.2,0.7,0.5,0.9c0.3,0.2,0.7,0.3,1.3,0.3S20.8,466.2,21.1,466z M18.8,460.8
			c-0.3,0.2-0.4,0.5-0.4,0.8c0,0.3,0.1,0.6,0.4,0.8c0.3,0.2,0.6,0.3,1.1,0.3c0.5,0,0.8-0.1,1.1-0.3c0.3-0.2,0.4-0.5,0.4-0.8
			c0-0.4-0.1-0.6-0.4-0.8c-0.3-0.2-0.6-0.3-1.1-0.3C19.4,460.5,19,460.6,18.8,460.8z"/>
	</g>
</g>
<g>
	<g>
		<path class="st26" d="M7.9,438.1H11v1.2H7.9V438.1z"/>
		<path class="st26" d="M14.6,433.9v7.9h-1.5v-6.6h-1.7v-1.2H14.6z"/>
		<path class="st26" d="M23.2,440h-1.4v1.8h-1.4V440h-4.3v-1l3.9-5.1h1.6l-3.7,4.8h2.6v-1.6h1.4v1.6h1.4V440z"/>
	</g>
</g>
<g>
	<g>
		<path class="st26" d="M8,411.2h3.1v1.2H8V411.2z"/>
		<path class="st26" d="M14.7,407.1v7.9h-1.5v-6.6h-1.7v-1.2H14.7z"/>
		<path class="st26" d="M17.8,414.6c-0.5-0.3-0.9-0.8-1.2-1.4c-0.3-0.6-0.4-1.3-0.4-2.2s0.1-1.6,0.4-2.2c0.3-0.6,0.7-1.1,1.2-1.4
			c0.5-0.3,1.1-0.5,1.7-0.5c0.6,0,1.2,0.2,1.7,0.5c0.5,0.3,0.9,0.8,1.2,1.4c0.3,0.6,0.4,1.3,0.4,2.2s-0.1,1.6-0.4,2.2
			c-0.3,0.6-0.7,1.1-1.2,1.4c-0.5,0.3-1.1,0.5-1.7,0.5C18.9,415,18.3,414.9,17.8,414.6z M20.9,413.1c0.3-0.5,0.5-1.2,0.5-2.1
			s-0.2-1.6-0.5-2.1s-0.8-0.7-1.3-0.7c-0.6,0-1,0.2-1.3,0.7c-0.3,0.5-0.5,1.2-0.5,2.1s0.2,1.6,0.5,2.1c0.3,0.5,0.8,0.7,1.3,0.7
			C20.1,413.8,20.5,413.5,20.9,413.1z"/>
	</g>
</g>
<g>
	<g>
		<path class="st26" d="M10.2,384.8h3.1v1.2h-3.1V384.8z"/>
		<path class="st26" d="M19.5,384c0.4,0.2,0.7,0.5,1,0.8c0.2,0.4,0.3,0.8,0.3,1.3c0,0.5-0.1,1-0.4,1.3c-0.3,0.4-0.6,0.7-1,0.9
			c-0.4,0.2-0.9,0.3-1.5,0.3c-1.1,0-1.9-0.3-2.5-1c-0.6-0.7-0.9-1.6-0.9-2.9c0-0.9,0.2-1.6,0.5-2.3c0.3-0.6,0.8-1.1,1.4-1.4
			c0.6-0.3,1.3-0.5,2-0.5c0.4,0,0.8,0,1.1,0.1c0.4,0.1,0.7,0.2,0.9,0.4l-0.5,1.1c-0.4-0.3-0.9-0.4-1.5-0.4c-0.8,0-1.4,0.2-1.8,0.7
			c-0.4,0.5-0.6,1.1-0.6,2v0c0.2-0.3,0.5-0.5,0.9-0.6c0.4-0.1,0.8-0.2,1.2-0.2C18.6,383.7,19.1,383.8,19.5,384z M18.9,387.1
			c0.3-0.2,0.4-0.6,0.4-1c0-0.4-0.1-0.7-0.4-1c-0.3-0.2-0.7-0.4-1.2-0.4c-0.5,0-0.9,0.1-1.2,0.4s-0.4,0.6-0.4,1c0,0.4,0.1,0.7,0.4,1
			c0.3,0.3,0.7,0.4,1.2,0.4C18.3,387.5,18.7,387.4,18.9,387.1z"/>
	</g>
</g>
<g>
	<g>
		<path class="st26" d="M10.6,358.8h3.1v1.2h-3.1V358.8z"/>
		<path class="st26" d="M20.4,361.3v1.2h-5.8v-1l3.1-3c0.4-0.3,0.6-0.6,0.7-0.9c0.1-0.3,0.2-0.5,0.2-0.7c0-0.4-0.1-0.6-0.4-0.8
			s-0.6-0.3-1.1-0.3c-0.8,0-1.4,0.3-1.8,0.8l-1-0.8c0.3-0.4,0.7-0.7,1.2-1s1.1-0.3,1.8-0.3c0.9,0,1.5,0.2,2.1,0.6
			c0.5,0.4,0.8,1,0.8,1.7c0,0.4-0.1,0.8-0.3,1.2s-0.5,0.8-1,1.3l-2.1,2H20.4z"/>
	</g>
</g>
<g>
	<g>
		<path class="st70" d="M18,335.8v1.2h-5.8v-1l3.1-3c0.4-0.3,0.6-0.6,0.7-0.9c0.1-0.3,0.2-0.5,0.2-0.7c0-0.4-0.1-0.6-0.4-0.8
			c-0.2-0.2-0.6-0.3-1.1-0.3c-0.8,0-1.4,0.3-1.8,0.8l-1-0.8c0.3-0.4,0.7-0.7,1.2-1s1.1-0.3,1.8-0.3c0.9,0,1.5,0.2,2.1,0.6
			c0.5,0.4,0.8,1,0.8,1.7c0,0.4-0.1,0.8-0.3,1.2s-0.5,0.8-1,1.3l-2.1,2H18z"/>
	</g>
</g>
<g>
	<g>
		<path class="st70" d="M17.6,305.9c0.4,0.2,0.7,0.5,1,0.8c0.2,0.4,0.3,0.8,0.3,1.3c0,0.5-0.1,1-0.4,1.3c-0.3,0.4-0.6,0.7-1,0.9
			c-0.4,0.2-0.9,0.3-1.5,0.3c-1.1,0-1.9-0.3-2.5-1c-0.6-0.7-0.9-1.6-0.9-2.9c0-0.9,0.2-1.6,0.5-2.3c0.3-0.6,0.8-1.1,1.4-1.4
			s1.3-0.5,2-0.5c0.4,0,0.8,0,1.1,0.1c0.4,0.1,0.7,0.2,0.9,0.4l-0.5,1.1c-0.4-0.3-0.9-0.4-1.5-0.4c-0.8,0-1.4,0.2-1.8,0.7
			c-0.4,0.5-0.6,1.1-0.6,2v0c0.2-0.3,0.5-0.5,0.9-0.6c0.4-0.1,0.8-0.2,1.2-0.2C16.7,305.6,17.1,305.7,17.6,305.9z M17,309.1
			c0.3-0.2,0.4-0.6,0.4-1c0-0.4-0.1-0.7-0.4-1c-0.3-0.2-0.7-0.4-1.2-0.4c-0.5,0-0.9,0.1-1.2,0.4s-0.4,0.6-0.4,1c0,0.4,0.1,0.7,0.4,1
			c0.3,0.3,0.7,0.4,1.2,0.4C16.4,309.4,16.7,309.3,17,309.1z"/>
	</g>
</g>
<g>
	<g>
		<path class="st70" d="M13.2,276.6v7.9h-1.5v-6.6h-1.7v-1.2H13.2z"/>
		<path class="st70" d="M16.4,284.2c-0.5-0.3-0.9-0.8-1.2-1.4s-0.4-1.3-0.4-2.2s0.1-1.6,0.4-2.2s0.7-1.1,1.2-1.4
			c0.5-0.3,1.1-0.5,1.7-0.5s1.2,0.2,1.7,0.5s0.9,0.8,1.2,1.4s0.4,1.3,0.4,2.2s-0.1,1.6-0.4,2.2s-0.7,1.1-1.2,1.4
			c-0.5,0.3-1.1,0.5-1.7,0.5S16.9,284.5,16.4,284.2z M19.4,282.7c0.3-0.5,0.5-1.2,0.5-2.1s-0.2-1.6-0.5-2.1
			c-0.3-0.5-0.8-0.7-1.3-0.7c-0.6,0-1,0.2-1.3,0.7c-0.3,0.5-0.5,1.2-0.5,2.1s0.2,1.6,0.5,2.1c0.3,0.5,0.8,0.7,1.3,0.7
			C18.6,283.4,19.1,283.1,19.4,282.7z"/>
	</g>
</g>
<g>
	<g>
		<path class="st70" d="M12.9,250v7.9h-1.5v-6.6H9.7V250H12.9z"/>
		<path class="st70" d="M21.5,256.1h-1.4v1.8h-1.4v-1.8h-4.3v-1l3.9-5.1h1.6l-3.7,4.8h2.6v-1.6h1.4v1.6h1.4V256.1z"/>
	</g>
</g>
<g>
	<g>
		<path class="st70" d="M13,223.4v7.9h-1.5v-6.6H9.9v-1.2H13z"/>
		<path class="st70" d="M20.7,227.9c0.2,0.3,0.3,0.7,0.3,1.1c0,0.5-0.1,0.9-0.4,1.3c-0.3,0.4-0.6,0.6-1.1,0.8s-1.1,0.3-1.7,0.3
			s-1.2-0.1-1.7-0.3c-0.5-0.2-0.9-0.5-1.1-0.8c-0.3-0.4-0.4-0.8-0.4-1.3c0-0.4,0.1-0.8,0.3-1.1c0.2-0.3,0.5-0.6,0.9-0.8
			c-0.3-0.2-0.6-0.4-0.7-0.7c-0.2-0.3-0.3-0.6-0.3-1c0-0.4,0.1-0.8,0.4-1.2s0.6-0.6,1-0.8c0.4-0.2,1-0.3,1.5-0.3
			c0.6,0,1.1,0.1,1.5,0.3c0.4,0.2,0.8,0.4,1,0.8s0.4,0.7,0.4,1.2c0,0.4-0.1,0.7-0.3,1s-0.4,0.5-0.7,0.7
			C20.1,227.3,20.4,227.6,20.7,227.9z M19,229.9c0.3-0.2,0.5-0.5,0.5-0.9c0-0.4-0.2-0.7-0.5-0.9c-0.3-0.2-0.7-0.3-1.3-0.3
			s-1,0.1-1.3,0.3c-0.3,0.2-0.5,0.5-0.5,0.9c0,0.4,0.2,0.7,0.5,0.9c0.3,0.2,0.7,0.3,1.3,0.3S18.7,230.1,19,229.9z M16.7,224.7
			c-0.3,0.2-0.4,0.5-0.4,0.8c0,0.3,0.1,0.6,0.4,0.8s0.6,0.3,1.1,0.3c0.5,0,0.8-0.1,1.1-0.3s0.4-0.5,0.4-0.8c0-0.4-0.1-0.6-0.4-0.8
			c-0.3-0.2-0.6-0.3-1.1-0.3C17.3,224.4,16.9,224.5,16.7,224.7z"/>
	</g>
</g>
<g>
	<g>
		<path class="st26" d="M14.8,204.2v1.2H9v-1l3.1-3c0.4-0.3,0.6-0.6,0.7-0.9c0.1-0.3,0.2-0.5,0.2-0.7c0-0.4-0.1-0.6-0.4-0.8
			c-0.2-0.2-0.6-0.3-1.1-0.3c-0.8,0-1.4,0.3-1.8,0.8l-1-0.8c0.3-0.4,0.7-0.7,1.2-1c0.5-0.2,1.1-0.3,1.8-0.3c0.9,0,1.5,0.2,2.1,0.6
			c0.5,0.4,0.8,1,0.8,1.7c0,0.4-0.1,0.8-0.3,1.2c-0.2,0.4-0.5,0.8-1,1.3l-2.1,2H14.8z"/>
		<path class="st26" d="M21.3,204.2v1.2h-5.8v-1l3.1-3c0.4-0.3,0.6-0.6,0.7-0.9c0.1-0.3,0.2-0.5,0.2-0.7c0-0.4-0.1-0.6-0.4-0.8
			c-0.2-0.2-0.6-0.3-1.1-0.3c-0.8,0-1.4,0.3-1.8,0.8l-1-0.8c0.3-0.4,0.7-0.7,1.2-1c0.5-0.2,1.1-0.3,1.8-0.3c0.9,0,1.5,0.2,2.1,0.6
			c0.5,0.4,0.8,1,0.8,1.7c0,0.4-0.1,0.8-0.3,1.2c-0.2,0.4-0.5,0.8-1,1.3l-2.1,2H21.3z"/>
	</g>
</g>
<g>
	<g>
		<path class="st26" d="M15.4,178.1v1.2H9.6v-1l3.1-3c0.4-0.3,0.6-0.6,0.7-0.9c0.1-0.3,0.2-0.5,0.2-0.7c0-0.4-0.1-0.6-0.4-0.8
			c-0.2-0.2-0.6-0.3-1.1-0.3c-0.8,0-1.4,0.3-1.8,0.8l-1-0.8c0.3-0.4,0.7-0.7,1.2-1c0.5-0.2,1.1-0.3,1.8-0.3c0.9,0,1.5,0.2,2.1,0.6
			c0.5,0.4,0.8,1,0.8,1.7c0,0.4-0.1,0.8-0.3,1.2c-0.2,0.4-0.5,0.8-1,1.3l-2.1,2H15.4z"/>
		<path class="st26" d="M21.2,174.7c0.4,0.2,0.7,0.5,1,0.8c0.2,0.4,0.3,0.8,0.3,1.3c0,0.5-0.1,1-0.4,1.3c-0.3,0.4-0.6,0.7-1,0.9
			c-0.4,0.2-0.9,0.3-1.5,0.3c-1.1,0-1.9-0.3-2.5-1c-0.6-0.7-0.9-1.6-0.9-2.9c0-0.9,0.2-1.6,0.5-2.3s0.8-1.1,1.4-1.4
			c0.6-0.3,1.3-0.5,2-0.5c0.4,0,0.8,0,1.1,0.1c0.4,0.1,0.7,0.2,0.9,0.4l-0.5,1.1c-0.4-0.3-0.9-0.4-1.5-0.4c-0.8,0-1.4,0.2-1.8,0.7
			c-0.4,0.5-0.6,1.1-0.6,2v0c0.2-0.3,0.5-0.5,0.9-0.6c0.4-0.1,0.8-0.2,1.2-0.2C20.3,174.5,20.8,174.6,21.2,174.7z M20.7,177.9
			c0.3-0.2,0.4-0.6,0.4-1c0-0.4-0.1-0.7-0.4-1c-0.3-0.2-0.7-0.4-1.2-0.4c-0.5,0-0.9,0.1-1.2,0.4s-0.4,0.6-0.4,1c0,0.4,0.1,0.7,0.4,1
			c0.3,0.3,0.7,0.4,1.2,0.4C20,178.3,20.4,178.2,20.7,177.9z"/>
	</g>
</g>
<g>
	<g>
		<path class="st26" d="M14.4,149.1c0.4,0.4,0.6,0.9,0.6,1.5c0,0.5-0.1,0.9-0.3,1.2s-0.6,0.7-1.1,0.9s-1,0.3-1.7,0.3
			c-0.6,0-1.1-0.1-1.6-0.2s-1-0.4-1.3-0.7l0.6-1.1c0.3,0.2,0.6,0.4,1,0.6s0.8,0.2,1.3,0.2c0.5,0,0.9-0.1,1.2-0.3s0.4-0.5,0.4-0.9
			c0-0.4-0.1-0.7-0.4-0.9c-0.3-0.2-0.7-0.3-1.3-0.3h-0.7v-1l1.8-2.1H9.3v-1.2h5.4v1l-1.9,2.3C13.5,148.5,14,148.7,14.4,149.1z"/>
		<path class="st26" d="M17.6,152.6c-0.5-0.3-0.9-0.8-1.2-1.4c-0.3-0.6-0.4-1.3-0.4-2.2s0.1-1.6,0.4-2.2c0.3-0.6,0.7-1.1,1.2-1.4
			s1.1-0.5,1.7-0.5c0.6,0,1.2,0.2,1.7,0.5s0.9,0.8,1.2,1.4c0.3,0.6,0.4,1.3,0.4,2.2s-0.1,1.6-0.4,2.2c-0.3,0.6-0.7,1.1-1.2,1.4
			c-0.5,0.3-1.1,0.5-1.7,0.5C18.6,153.1,18.1,153,17.6,152.6z M20.6,151.1c0.3-0.5,0.5-1.2,0.5-2.1s-0.2-1.6-0.5-2.1
			c-0.3-0.5-0.8-0.7-1.3-0.7c-0.6,0-1,0.2-1.3,0.7c-0.3,0.5-0.5,1.2-0.5,2.1s0.2,1.6,0.5,2.1c0.3,0.5,0.8,0.7,1.3,0.7
			C19.8,151.8,20.3,151.6,20.6,151.1z"/>
	</g>
</g>
<g>
	<g>
		<path class="st26" d="M14.1,122.7c0.4,0.4,0.6,0.9,0.6,1.5c0,0.5-0.1,0.9-0.3,1.2s-0.6,0.7-1.1,0.9s-1,0.3-1.7,0.3
			c-0.6,0-1.1-0.1-1.6-0.2s-1-0.4-1.3-0.7l0.6-1.1c0.3,0.2,0.6,0.4,1,0.6s0.8,0.2,1.3,0.2c0.5,0,0.9-0.1,1.2-0.3s0.4-0.5,0.4-0.9
			c0-0.4-0.1-0.7-0.4-0.9c-0.3-0.2-0.7-0.3-1.3-0.3h-0.7v-1l1.8-2.1H9v-1.2h5.4v1l-1.9,2.3C13.2,122.1,13.8,122.3,14.1,122.7z"/>
		<path class="st26" d="M22.7,124.8h-1.4v1.8h-1.4v-1.8h-4.3v-1l3.9-5.1H21l-3.7,4.8h2.6V122h1.4v1.6h1.4V124.8z"/>
	</g>
</g>
<g>
	<g>
		<path class="st26" d="M14.4,96.8c0.4,0.4,0.6,0.9,0.6,1.5c0,0.5-0.1,0.9-0.3,1.2s-0.6,0.7-1.1,0.9s-1,0.3-1.7,0.3
			c-0.6,0-1.1-0.1-1.6-0.2s-1-0.4-1.3-0.7l0.6-1.1c0.3,0.2,0.6,0.4,1,0.6s0.8,0.2,1.3,0.2c0.5,0,0.9-0.1,1.2-0.3s0.4-0.5,0.4-0.9
			c0-0.4-0.1-0.7-0.4-0.9c-0.3-0.2-0.7-0.3-1.3-0.3h-0.7v-1l1.8-2.1H9.3v-1.2h5.4v1l-1.9,2.3C13.5,96.2,14,96.4,14.4,96.8z"/>
		<path class="st26" d="M22,97.3c0.2,0.3,0.3,0.7,0.3,1.1c0,0.5-0.1,0.9-0.4,1.3c-0.3,0.4-0.6,0.6-1.1,0.8s-1.1,0.3-1.7,0.3
			s-1.2-0.1-1.7-0.3s-0.9-0.5-1.1-0.8c-0.3-0.4-0.4-0.8-0.4-1.3c0-0.4,0.1-0.8,0.3-1.1c0.2-0.3,0.5-0.6,0.9-0.8
			c-0.3-0.2-0.6-0.4-0.7-0.7c-0.2-0.3-0.3-0.6-0.3-1c0-0.4,0.1-0.8,0.4-1.2c0.2-0.3,0.6-0.6,1-0.8c0.4-0.2,1-0.3,1.5-0.3
			c0.6,0,1.1,0.1,1.5,0.3c0.4,0.2,0.8,0.4,1,0.8s0.4,0.7,0.4,1.2c0,0.4-0.1,0.7-0.3,1c-0.2,0.3-0.4,0.5-0.7,0.7
			C21.5,96.8,21.8,97,22,97.3z M20.4,99.3c0.3-0.2,0.5-0.5,0.5-0.9c0-0.4-0.2-0.7-0.5-0.9c-0.3-0.2-0.7-0.3-1.3-0.3s-1,0.1-1.3,0.3
			c-0.3,0.2-0.5,0.5-0.5,0.9c0,0.4,0.2,0.7,0.5,0.9c0.3,0.2,0.7,0.3,1.3,0.3S20.1,99.6,20.4,99.3z M18,94.2
			c-0.3,0.2-0.4,0.5-0.4,0.8c0,0.3,0.1,0.6,0.4,0.8c0.3,0.2,0.6,0.3,1.1,0.3c0.5,0,0.8-0.1,1.1-0.3c0.3-0.2,0.4-0.5,0.4-0.8
			c0-0.4-0.1-0.6-0.4-0.8c-0.3-0.2-0.6-0.3-1.1-0.3C18.6,93.9,18.3,94,18,94.2z"/>
	</g>
</g>
<g>
	<g>
		<path class="st26" d="M16.1,73h-1.4v1.8h-1.4V73H8.9v-1l3.9-5.1h1.6l-3.7,4.8h2.6v-1.6h1.4v1.6h1.4V73z"/>
		<path class="st26" d="M22.4,73.6v1.2h-5.8v-1l3.1-3c0.4-0.3,0.6-0.6,0.7-0.9c0.1-0.3,0.2-0.5,0.2-0.7c0-0.4-0.1-0.6-0.4-0.8
			c-0.2-0.2-0.6-0.3-1.1-0.3c-0.8,0-1.4,0.3-1.8,0.8l-1-0.8c0.3-0.4,0.7-0.7,1.2-1c0.5-0.2,1.1-0.3,1.8-0.3c0.9,0,1.5,0.2,2.1,0.6
			c0.5,0.4,0.8,1,0.8,1.7c0,0.4-0.1,0.8-0.3,1.2s-0.5,0.8-1,1.3l-2.1,2H22.4z"/>
	</g>
</g>
<g>
	<g>
		<path class="st70" d="M15.5,48.3h-1.4v1.8h-1.4v-1.8H8.4v-1l3.9-5.1h1.6l-3.7,4.8h2.6v-1.6h1.4v1.6h1.4V48.3z"/>
		<path class="st70" d="M21.1,45.5c0.4,0.2,0.7,0.5,1,0.8c0.2,0.4,0.3,0.8,0.3,1.3c0,0.5-0.1,1-0.4,1.3s-0.6,0.7-1,0.9
			s-0.9,0.3-1.5,0.3c-1.1,0-1.9-0.3-2.5-1c-0.6-0.7-0.9-1.6-0.9-2.9c0-0.9,0.2-1.6,0.5-2.3c0.3-0.6,0.8-1.1,1.4-1.4
			c0.6-0.3,1.3-0.5,2-0.5c0.4,0,0.8,0,1.1,0.1c0.4,0.1,0.7,0.2,0.9,0.4l-0.5,1.1c-0.4-0.3-0.9-0.4-1.5-0.4c-0.8,0-1.4,0.2-1.8,0.7
			c-0.4,0.5-0.6,1.1-0.6,2v0c0.2-0.3,0.5-0.5,0.9-0.6s0.8-0.2,1.2-0.2C20.2,45.2,20.7,45.3,21.1,45.5z M20.6,48.7
			c0.3-0.2,0.4-0.6,0.4-1c0-0.4-0.1-0.7-0.4-1c-0.3-0.2-0.7-0.4-1.2-0.4c-0.5,0-0.9,0.1-1.2,0.4s-0.4,0.6-0.4,1c0,0.4,0.1,0.7,0.4,1
			c0.3,0.3,0.7,0.4,1.2,0.4C19.9,49,20.3,48.9,20.6,48.7z"/>
	</g>
</g>
</svg>
