<?xml version="1.0" encoding="utf-8"?>
<!-- Generator: Adobe Illustrator 16.0.0, SVG Export Plug-In . SVG Version: 6.00 Build 0)  -->
<!DOCTYPE svg PUBLIC "-//W3C//DTD SVG 1.1//EN" "http://www.w3.org/Graphics/SVG/1.1/DTD/svg11.dtd">
<svg version="1.1" id="Livello_1" xmlns="http://www.w3.org/2000/svg" xmlns:xlink="http://www.w3.org/1999/xlink" x="0px" y="0px"
	 width="32px" height="590px" viewBox="0 0 32.746 590.697" enable-background="new 0 0 32.746 590.697"
	 xml:space="preserve">
<g display="none">
	<g display="inline">
		<g>
			<g>
				<defs>
					<path id="SVGID_1_" d="M27.262,580.714c-0.316,3.428-5.673,7.51-10.308,7.51l0,0c-4.594,0.367-10.877-3.314-10.877-7.51V42.467
						c1.021-4.94,6.492-7.798,10.182-7.792l0,0c4.298-0.006,9.896,2.929,11.003,7.984V580.714L27.262,580.714z"/>
				</defs>
				<clipPath id="SVGID_2_">
					<use xlink:href="#SVGID_1_"  overflow="visible"/>
				</clipPath>
				<rect x="0.88" y="495.265" clip-path="url(#SVGID_2_)" fill="#FFFAFA" width="31.578" height="99.045"/>
			</g>
		</g>
		<g>
			<g>
				<defs>
					<path id="SVGID_3_" d="M27.262,580.714c-0.316,3.428-5.673,7.51-10.308,7.51l0,0c-4.594,0.367-10.877-3.314-10.877-7.51V42.467
						c1.021-4.94,6.492-7.798,10.182-7.792l0,0c4.298-0.006,9.896,2.929,11.003,7.984V580.714L27.262,580.714z"/>
				</defs>
				<clipPath id="SVGID_4_">
					<use xlink:href="#SVGID_3_"  overflow="visible"/>
				</clipPath>
				<rect x="1.196" y="315.187" clip-path="url(#SVGID_4_)" fill="#FBD5D6" width="31.578" height="90.041"/>
			</g>
		</g>
		<g>
			<g>
				<defs>
					<path id="SVGID_5_" d="M27.262,580.714c-0.316,3.428-5.673,7.51-10.308,7.51l0,0c-4.594,0.367-10.877-3.314-10.877-7.51V42.467
						c1.021-4.94,6.492-7.798,10.182-7.792l0,0c4.298-0.006,9.896,2.929,11.003,7.984V580.714L27.262,580.714z"/>
				</defs>
				<clipPath id="SVGID_6_">
					<use xlink:href="#SVGID_5_"  overflow="visible"/>
				</clipPath>
				<rect x="1.196" y="225.147" clip-path="url(#SVGID_6_)" fill="#F9C1C2" width="31.578" height="90.038"/>
			</g>
		</g>
		<g>
			<g>
				<defs>
					<path id="SVGID_7_" d="M27.262,580.714c-0.316,3.428-5.673,7.51-10.308,7.51l0,0c-4.594,0.367-10.877-3.314-10.877-7.51V42.467
						c1.021-4.94,6.492-7.798,10.182-7.792l0,0c4.298-0.006,9.896,2.929,11.003,7.984V580.714L27.262,580.714z"/>
				</defs>
				<clipPath id="SVGID_8_">
					<use xlink:href="#SVGID_7_"  overflow="visible"/>
				</clipPath>
				<rect x="0.88" y="405.226" clip-path="url(#SVGID_8_)" fill="#FDEBEB" width="31.578" height="90.041"/>
			</g>
		</g>
		<g>
			<g>
				<defs>
					<path id="SVGID_9_" d="M27.262,580.714c-0.316,3.428-5.673,7.51-10.308,7.51l0,0c-4.594,0.367-10.877-3.314-10.877-7.51V42.467
						c1.021-4.94,6.492-7.798,10.182-7.792l0,0c4.298-0.006,9.896,2.929,11.003,7.984V580.714L27.262,580.714z"/>
				</defs>
				<clipPath id="SVGID_10_">
					<use xlink:href="#SVGID_9_"  overflow="visible"/>
				</clipPath>
				<rect x="1.196" y="135.094" clip-path="url(#SVGID_10_)" fill="#F6ABAD" width="31.578" height="90.041"/>
			</g>
		</g>
		<g>
			<g>
				<defs>
					<path id="SVGID_11_" d="M27.262,580.714c-0.316,3.428-5.673,7.51-10.308,7.51l0,0c-4.594,0.367-10.877-3.314-10.877-7.51
						V42.467c1.021-4.94,6.492-7.798,10.182-7.792l0,0c4.298-0.006,9.896,2.929,11.003,7.984V580.714L27.262,580.714z"/>
				</defs>
				<clipPath id="SVGID_12_">
					<use xlink:href="#SVGID_11_"  overflow="visible"/>
				</clipPath>
				<rect x="0.88" y="36.051" clip-path="url(#SVGID_12_)" fill="#F49799" width="31.577" height="99.043"/>
			</g>
		</g>
	</g>
</g>
<g display="none">
	<g display="inline">
		<g>
			<defs>
				<path id="SVGID_13_" d="M27.262,580.714c0,3.713-5.957,8.074-10.593,8.074h-0.652c-4.295,0-9.939-3.881-9.939-8.074V42.467
					c1.023-4.94,6.494-7.797,10.183-7.792l0,0c4.295-0.005,9.896,2.929,11,7.984V580.714L27.262,580.714z"/>
			</defs>
			<clipPath id="SVGID_14_">
				<use xlink:href="#SVGID_13_"  overflow="visible"/>
			</clipPath>
			<rect x="-4.972" y="34.675" clip-path="url(#SVGID_14_)" fill="#C8E8F0" width="43.281" height="27.238"/>
		</g>
	</g>
	<g display="inline">
		<g>
			<defs>
				<path id="SVGID_15_" d="M27.262,580.714c0,3.713-5.957,8.074-10.593,8.074h-0.652c-4.295,0-9.939-3.881-9.939-8.074V42.467
					c1.023-4.94,6.494-7.797,10.183-7.792l0,0c4.295-0.005,9.896,2.929,11,7.984V580.714L27.262,580.714z"/>
			</defs>
			<clipPath id="SVGID_16_">
				<use xlink:href="#SVGID_15_"  overflow="visible"/>
			</clipPath>
			<rect x="-4.972" y="61.914" clip-path="url(#SVGID_16_)" fill="#D0EBF7" width="43.281" height="27.238"/>
		</g>
	</g>
	<g display="inline">
		<g>
			<defs>
				<path id="SVGID_17_" d="M27.262,580.714c0,3.713-5.957,8.074-10.593,8.074h-0.652c-4.295,0-9.939-3.881-9.939-8.074V42.467
					c1.023-4.94,6.494-7.797,10.183-7.792l0,0c4.295-0.005,9.896,2.929,11,7.984V580.714L27.262,580.714z"/>
			</defs>
			<clipPath id="SVGID_18_">
				<use xlink:href="#SVGID_17_"  overflow="visible"/>
			</clipPath>
			<rect x="-4.972" y="88.639" clip-path="url(#SVGID_18_)" fill="#4898DA" width="43.281" height="27.238"/>
		</g>
	</g>
	<g display="inline">
		<g>
			<defs>
				<path id="SVGID_19_" d="M27.262,580.714c0,3.713-5.957,8.074-10.593,8.074h-0.652c-4.295,0-9.939-3.881-9.939-8.074V42.467
					c1.023-4.94,6.494-7.797,10.183-7.792l0,0c4.295-0.005,9.896,2.929,11,7.984V580.714L27.262,580.714z"/>
			</defs>
			<clipPath id="SVGID_20_">
				<use xlink:href="#SVGID_19_"  overflow="visible"/>
			</clipPath>
			<rect x="-4.972" y="115.877" clip-path="url(#SVGID_20_)" fill="#A3A5D7" width="43.281" height="27.238"/>
		</g>
	</g>
	<g display="inline">
		<g>
			<defs>
				<path id="SVGID_21_" d="M27.262,580.714c0,3.713-5.957,8.074-10.593,8.074h-0.652c-4.295,0-9.939-3.881-9.939-8.074V42.467
					c1.023-4.94,6.494-7.797,10.183-7.792l0,0c4.295-0.005,9.896,2.929,11,7.984V580.714L27.262,580.714z"/>
			</defs>
			<clipPath id="SVGID_22_">
				<use xlink:href="#SVGID_21_"  overflow="visible"/>
			</clipPath>
			<rect x="-4.972" y="143.116" clip-path="url(#SVGID_22_)" fill="#B988C1" width="43.281" height="27.237"/>
		</g>
	</g>
	<g display="inline">
		<g>
			<defs>
				<path id="SVGID_23_" d="M27.262,580.714c0,3.713-5.957,8.074-10.593,8.074h-0.652c-4.295,0-9.939-3.881-9.939-8.074V42.467
					c1.023-4.94,6.494-7.797,10.183-7.792l0,0c4.295-0.005,9.896,2.929,11,7.984V580.714L27.262,580.714z"/>
			</defs>
			<clipPath id="SVGID_24_">
				<use xlink:href="#SVGID_23_"  overflow="visible"/>
			</clipPath>
			<rect x="-4.972" y="170.353" clip-path="url(#SVGID_24_)" fill="#D7A2CD" width="43.281" height="27.238"/>
		</g>
	</g>
	<g display="inline">
		<g>
			<defs>
				<path id="SVGID_25_" d="M27.262,580.714c0,3.713-5.957,8.074-10.593,8.074h-0.652c-4.295,0-9.939-3.881-9.939-8.074V42.467
					c1.023-4.94,6.494-7.797,10.183-7.792l0,0c4.295-0.005,9.896,2.929,11,7.984V580.714L27.262,580.714z"/>
			</defs>
			<clipPath id="SVGID_26_">
				<use xlink:href="#SVGID_25_"  overflow="visible"/>
			</clipPath>
			<rect x="-4.972" y="197.253" clip-path="url(#SVGID_26_)" fill="#E8BEDB" width="43.281" height="27.238"/>
		</g>
	</g>
	<g display="inline">
		<g>
			<defs>
				<path id="SVGID_27_" d="M27.262,580.714c0,3.713-5.957,8.074-10.593,8.074h-0.652c-4.295,0-9.939-3.881-9.939-8.074V42.467
					c1.023-4.94,6.494-7.797,10.183-7.792l0,0c4.295-0.005,9.896,2.929,11,7.984V580.714L27.262,580.714z"/>
			</defs>
			<clipPath id="SVGID_28_">
				<use xlink:href="#SVGID_27_"  overflow="visible"/>
			</clipPath>
			<rect x="-4.972" y="224.492" clip-path="url(#SVGID_28_)" fill="#E67D9B" width="43.281" height="27.238"/>
		</g>
	</g>
	<g display="inline">
		<g>
			<defs>
				<path id="SVGID_29_" d="M27.262,580.714c0,3.713-5.957,8.074-10.593,8.074h-0.652c-4.295,0-9.939-3.881-9.939-8.074V42.467
					c1.023-4.94,6.494-7.797,10.183-7.792l0,0c4.295-0.005,9.896,2.929,11,7.984V580.714L27.262,580.714z"/>
			</defs>
			<clipPath id="SVGID_30_">
				<use xlink:href="#SVGID_29_"  overflow="visible"/>
			</clipPath>
			<rect x="-4.972" y="251.73" clip-path="url(#SVGID_30_)" fill="#DB4C4D" width="43.281" height="27.236"/>
		</g>
	</g>
	<g display="inline">
		<g>
			<defs>
				<path id="SVGID_31_" d="M27.262,580.714c0,3.713-5.957,8.074-10.593,8.074h-0.652c-4.295,0-9.939-3.881-9.939-8.074V42.467
					c1.023-4.94,6.494-7.797,10.183-7.792l0,0c4.295-0.005,9.896,2.929,11,7.984V580.714L27.262,580.714z"/>
			</defs>
			<clipPath id="SVGID_32_">
				<use xlink:href="#SVGID_31_"  overflow="visible"/>
			</clipPath>
			<rect x="-4.972" y="278.966" clip-path="url(#SVGID_32_)" fill="#EF5A5C" width="43.281" height="27.238"/>
		</g>
	</g>
	<g display="inline">
		<g>
			<defs>
				<path id="SVGID_33_" d="M27.262,580.714c0,3.713-5.957,8.074-10.593,8.074h-0.652c-4.295,0-9.939-3.881-9.939-8.074V42.467
					c1.023-4.94,6.494-7.797,10.183-7.792l0,0c4.295-0.005,9.896,2.929,11,7.984V580.714L27.262,580.714z"/>
			</defs>
			<clipPath id="SVGID_34_">
				<use xlink:href="#SVGID_33_"  overflow="visible"/>
			</clipPath>
			<rect x="-4.972" y="305.872" clip-path="url(#SVGID_34_)" fill="#F7A25C" width="43.281" height="27.238"/>
		</g>
	</g>
	<g display="inline">
		<g>
			<defs>
				<path id="SVGID_35_" d="M27.262,580.714c0,3.713-5.957,8.074-10.593,8.074h-0.652c-4.295,0-9.939-3.881-9.939-8.074V42.467
					c1.023-4.94,6.494-7.797,10.183-7.792l0,0c4.295-0.005,9.896,2.929,11,7.984V580.714L27.262,580.714z"/>
			</defs>
			<clipPath id="SVGID_36_">
				<use xlink:href="#SVGID_35_"  overflow="visible"/>
			</clipPath>
			<rect x="-4.972" y="333.11" clip-path="url(#SVGID_36_)" fill="#FDD58F" width="43.281" height="27.238"/>
		</g>
	</g>
	<g display="inline">
		<g>
			<defs>
				<path id="SVGID_37_" d="M27.262,580.714c0,3.713-5.957,8.074-10.593,8.074h-0.652c-4.295,0-9.939-3.881-9.939-8.074V42.467
					c1.023-4.94,6.494-7.797,10.183-7.792l0,0c4.295-0.005,9.896,2.929,11,7.984V580.714L27.262,580.714z"/>
			</defs>
			<clipPath id="SVGID_38_">
				<use xlink:href="#SVGID_37_"  overflow="visible"/>
			</clipPath>
			<rect x="-4.972" y="360.349" clip-path="url(#SVGID_38_)" fill="#FFE173" width="43.281" height="27.238"/>
		</g>
	</g>
	<g display="inline">
		<g>
			<defs>
				<path id="SVGID_39_" d="M27.262,580.714c0,3.713-5.957,8.074-10.593,8.074h-0.652c-4.295,0-9.939-3.881-9.939-8.074V42.467
					c1.023-4.94,6.494-7.797,10.183-7.792l0,0c4.295-0.005,9.896,2.929,11,7.984V580.714L27.262,580.714z"/>
			</defs>
			<clipPath id="SVGID_40_">
				<use xlink:href="#SVGID_39_"  overflow="visible"/>
			</clipPath>
			<rect x="-4.972" y="387.587" clip-path="url(#SVGID_40_)" fill="#FEFE82" width="43.281" height="27.238"/>
		</g>
	</g>
	<g display="inline">
		<g>
			<defs>
				<path id="SVGID_41_" d="M27.262,580.714c0,3.713-5.957,8.074-10.593,8.074h-0.652c-4.295,0-9.939-3.881-9.939-8.074V42.467
					c1.023-4.94,6.494-7.797,10.183-7.792l0,0c4.295-0.005,9.896,2.929,11,7.984V580.714L27.262,580.714z"/>
			</defs>
			<clipPath id="SVGID_42_">
				<use xlink:href="#SVGID_41_"  overflow="visible"/>
			</clipPath>
			<rect x="-4.972" y="414.483" clip-path="url(#SVGID_42_)" fill="#FFFFC7" width="43.281" height="27.234"/>
		</g>
	</g>
	<g display="inline">
		<g>
			<defs>
				<path id="SVGID_43_" d="M27.262,580.714c0,3.713-5.957,8.074-10.593,8.074h-0.652c-4.295,0-9.939-3.881-9.939-8.074V42.467
					c1.023-4.94,6.494-7.797,10.183-7.792l0,0c4.295-0.005,9.896,2.929,11,7.984V580.714L27.262,580.714z"/>
			</defs>
			<clipPath id="SVGID_44_">
				<use xlink:href="#SVGID_43_"  overflow="visible"/>
			</clipPath>
			<rect x="-4.972" y="441.72" clip-path="url(#SVGID_44_)" fill="#F3F3A1" width="43.281" height="27.238"/>
		</g>
	</g>
	<g display="inline">
		<g>
			<defs>
				<path id="SVGID_45_" d="M27.262,580.714c0,3.713-5.957,8.074-10.593,8.074h-0.652c-4.295,0-9.939-3.881-9.939-8.074V42.467
					c1.023-4.94,6.494-7.797,10.183-7.792l0,0c4.295-0.005,9.896,2.929,11,7.984V580.714L27.262,580.714z"/>
			</defs>
			<clipPath id="SVGID_46_">
				<use xlink:href="#SVGID_45_"  overflow="visible"/>
			</clipPath>
			<rect x="-4.972" y="468.958" clip-path="url(#SVGID_46_)" fill="#D3ECA4" width="43.281" height="27.238"/>
		</g>
	</g>
	<g display="inline">
		<g>
			<defs>
				<path id="SVGID_47_" d="M27.262,580.714c0,3.713-5.957,8.074-10.593,8.074h-0.652c-4.295,0-9.939-3.881-9.939-8.074V42.467
					c1.023-4.94,6.494-7.797,10.183-7.792l0,0c4.295-0.005,9.896,2.929,11,7.984V580.714L27.262,580.714z"/>
			</defs>
			<clipPath id="SVGID_48_">
				<use xlink:href="#SVGID_47_"  overflow="visible"/>
			</clipPath>
			<rect x="-4.972" y="496.196" clip-path="url(#SVGID_48_)" fill="#C3E6D8" width="43.281" height="27.236"/>
		</g>
	</g>
	<g display="inline">
		<g>
			<defs>
				<path id="SVGID_49_" d="M27.262,580.714c0,3.713-5.957,8.074-10.593,8.074h-0.652c-4.295,0-9.939-3.881-9.939-8.074V42.467
					c1.023-4.94,6.494-7.797,10.183-7.792l0,0c4.295-0.005,9.896,2.929,11,7.984V580.714L27.262,580.714z"/>
			</defs>
			<clipPath id="SVGID_50_">
				<use xlink:href="#SVGID_49_"  overflow="visible"/>
			</clipPath>
			<rect x="-4.972" y="523.435" clip-path="url(#SVGID_50_)" fill="#C8E8F0" width="43.281" height="27.238"/>
		</g>
	</g>
	<g display="inline">
		<g>
			<defs>
				<path id="SVGID_51_" d="M27.262,580.714c0,3.713-5.957,8.074-10.593,8.074h-0.652c-4.295,0-9.939-3.881-9.939-8.074V42.467
					c1.023-4.94,6.494-7.797,10.183-7.792l0,0c4.295-0.005,9.896,2.929,11,7.984V580.714L27.262,580.714z"/>
			</defs>
			<clipPath id="SVGID_52_">
				<use xlink:href="#SVGID_51_"  overflow="visible"/>
			</clipPath>
			<rect x="-4.972" y="550.673" clip-path="url(#SVGID_52_)" fill="#D0EBF7" width="43.281" height="41.121"/>
		</g>
	</g>
</g>
<g display="none">
	<g>
		<g display="inline">
			<g>
				<defs>
					<path id="SVGID_53_" d="M27.052,580.983c-0.315,3.428-5.672,7.51-10.307,7.51l0,0c-4.594,0.367-10.877-3.316-10.877-7.51
						V42.738c1.021-4.94,6.492-7.798,10.182-7.792l0,0c4.298-0.006,9.896,2.929,11.002,7.984V580.983L27.052,580.983z"/>
				</defs>
				<clipPath id="SVGID_54_">
					<use xlink:href="#SVGID_53_"  overflow="visible"/>
				</clipPath>
				<rect x="0.671" y="494.032" clip-path="url(#SVGID_54_)" fill="#EC2426" width="31.578" height="99.045"/>
			</g>
		</g>
		<g display="inline">
			<g>
				<defs>
					<path id="SVGID_55_" d="M27.052,580.983c-0.315,3.428-5.672,7.51-10.307,7.51l0,0c-4.594,0.367-10.877-3.316-10.877-7.51
						V42.738c1.021-4.94,6.492-7.798,10.182-7.792l0,0c4.298-0.006,9.896,2.929,11.002,7.984V580.983L27.052,580.983z"/>
				</defs>
				<clipPath id="SVGID_56_">
					<use xlink:href="#SVGID_55_"  overflow="visible"/>
				</clipPath>
				<rect x="0.987" y="313.954" clip-path="url(#SVGID_56_)" fill="#FCFC1E" width="31.578" height="90.041"/>
			</g>
		</g>
		<g display="inline">
			<g>
				<defs>
					<path id="SVGID_57_" d="M27.052,580.983c-0.315,3.428-5.672,7.51-10.307,7.51l0,0c-4.594,0.367-10.877-3.316-10.877-7.51
						V42.738c1.021-4.94,6.492-7.798,10.182-7.792l0,0c4.298-0.006,9.896,2.929,11.002,7.984V580.983L27.052,580.983z"/>
				</defs>
				<clipPath id="SVGID_58_">
					<use xlink:href="#SVGID_57_"  overflow="visible"/>
				</clipPath>
				<rect x="0.987" y="223.914" clip-path="url(#SVGID_58_)" fill="#0B7F3F" width="31.578" height="90.038"/>
			</g>
		</g>
		<g display="inline">
			<g>
				<defs>
					<path id="SVGID_59_" d="M27.052,580.983c-0.315,3.428-5.672,7.51-10.307,7.51l0,0c-4.594,0.367-10.877-3.316-10.877-7.51
						V42.738c1.021-4.94,6.492-7.798,10.182-7.792l0,0c4.298-0.006,9.896,2.929,11.002,7.984V580.983L27.052,580.983z"/>
				</defs>
				<clipPath id="SVGID_60_">
					<use xlink:href="#SVGID_59_"  overflow="visible"/>
				</clipPath>
				<rect x="0.671" y="403.993" clip-path="url(#SVGID_60_)" fill="#F7A426" width="31.578" height="90.041"/>
			</g>
		</g>
		<g display="inline">
			<g>
				<defs>
					<path id="SVGID_61_" d="M27.052,580.983c-0.315,3.428-5.672,7.51-10.307,7.51l0,0c-4.594,0.367-10.877-3.316-10.877-7.51
						V42.738c1.021-4.94,6.492-7.798,10.182-7.792l0,0c4.298-0.006,9.896,2.929,11.002,7.984V580.983L27.052,580.983z"/>
				</defs>
				<clipPath id="SVGID_62_">
					<use xlink:href="#SVGID_61_"  overflow="visible"/>
				</clipPath>
				<rect x="0.987" y="133.862" clip-path="url(#SVGID_62_)" fill="#6FC9DC" width="31.578" height="90.04"/>
			</g>
		</g>
		<g display="inline">
			<g>
				<defs>
					<path id="SVGID_63_" d="M27.052,580.983c-0.315,3.428-5.672,7.51-10.307,7.51l0,0c-4.594,0.367-10.877-3.316-10.877-7.51
						V42.738c1.021-4.94,6.492-7.798,10.182-7.792l0,0c4.298-0.006,9.896,2.929,11.002,7.984V580.983L27.052,580.983z"/>
				</defs>
				<clipPath id="SVGID_64_">
					<use xlink:href="#SVGID_63_"  overflow="visible"/>
				</clipPath>
				<rect x="0.987" y="34.818" clip-path="url(#SVGID_64_)" fill="#3F57B0" width="31.578" height="99.043"/>
			</g>
		</g>
	</g>
</g>
<circle display="none" fill="#3A332F" cx="16.46" cy="15.781" r="14.909"/>
<path display="none" fill="none" stroke="#3C3430" stroke-width="3" stroke-miterlimit="10" d="M27.052,580.983
	c-0.315,3.428-5.672,7.51-10.307,7.51l0,0c-4.593,0.367-10.877-3.316-10.877-7.51V42.736c1.022-4.94,6.492-7.798,10.182-7.792l0,0
	c4.298-0.006,9.896,2.929,11.002,7.984V580.983L27.052,580.983z"/>
<g display="none">
	<path display="inline" fill="#3C3530" d="M11.72,579.44c-0.398-0.461-0.598-1.063-0.598-1.81c0-0.745,0.199-1.348,0.598-1.807
		c0.399-0.459,0.923-0.689,1.573-0.689s1.176,0.229,1.58,0.685c0.403,0.455,0.604,1.06,0.604,1.813s-0.202,1.358-0.604,1.813
		c-0.403,0.455-0.93,0.683-1.58,0.683S12.118,579.899,11.72,579.44z M14.118,578.803c0.195-0.275,0.292-0.667,0.292-1.17
		c0-0.502-0.097-0.893-0.292-1.17c-0.195-0.276-0.47-0.416-0.825-0.416c-0.338,0-0.609,0.144-0.813,0.423
		c-0.204,0.281-0.306,0.669-0.306,1.163s0.102,0.882,0.306,1.164c0.204,0.281,0.475,0.422,0.813,0.422
		C13.648,579.219,13.923,579.081,14.118,578.803z M18.753,575.229h1.272l-6.212,9.1h-1.274L18.753,575.229z M17.688,583.729
		c-0.398-0.461-0.599-1.063-0.599-1.809c0-0.745,0.199-1.348,0.599-1.807c0.397-0.459,0.922-0.689,1.574-0.689
		c0.647,0,1.176,0.23,1.577,0.689c0.404,0.459,0.604,1.062,0.604,1.807c0,0.746-0.2,1.35-0.604,1.809
		c-0.401,0.459-0.93,0.688-1.577,0.688C18.609,584.419,18.085,584.189,17.688,583.729z M20.079,583.087
		c0.198-0.282,0.299-0.67,0.299-1.164s-0.101-0.882-0.299-1.163c-0.199-0.281-0.474-0.423-0.817-0.423
		c-0.349,0-0.621,0.139-0.82,0.416c-0.198,0.277-0.299,0.668-0.299,1.17c0,0.503,0.101,0.895,0.299,1.17
		c0.199,0.277,0.474,0.416,0.82,0.416C19.605,583.509,19.88,583.368,20.079,583.087z"/>
</g>
<g display="none">
	<path display="inline" fill="#3C3530" d="M15.288,534.154c0.379,0.307,0.568,0.724,0.568,1.252c0,0.336-0.083,0.64-0.248,0.912
		c-0.165,0.271-0.413,0.485-0.744,0.646c-0.331,0.16-0.739,0.24-1.224,0.24c-0.4,0-0.787-0.059-1.16-0.172
		c-0.373-0.115-0.688-0.273-0.944-0.479l0.44-0.808c0.208,0.171,0.458,0.306,0.748,0.404c0.29,0.098,0.591,0.146,0.9,0.146
		c0.368,0,0.657-0.076,0.868-0.228c0.21-0.152,0.316-0.361,0.316-0.628c0-0.288-0.113-0.508-0.34-0.652
		c-0.227-0.146-0.615-0.22-1.164-0.22h-1.352l0.288-3.048h3.288v0.871H13.12L13,533.694h0.536
		C14.325,533.694,14.909,533.848,15.288,534.154z"/>
	<path display="inline" fill="#3C3530" d="M17.592,536.866c-0.354-0.229-0.63-0.56-0.833-0.992c-0.203-0.434-0.304-0.95-0.304-1.548
		s0.101-1.113,0.304-1.548c0.203-0.437,0.479-0.768,0.833-0.992c0.352-0.227,0.752-0.34,1.2-0.34c0.446,0,0.849,0.111,1.203,0.34
		c0.354,0.227,0.634,0.558,0.836,0.992c0.203,0.435,0.306,0.95,0.306,1.548s-0.103,1.113-0.306,1.548
		c-0.202,0.435-0.479,0.766-0.836,0.992c-0.354,0.227-0.757,0.34-1.203,0.34C18.344,537.206,17.943,537.093,17.592,536.866z
		 M19.738,535.806c0.232-0.33,0.35-0.821,0.35-1.479s-0.115-1.149-0.35-1.48c-0.23-0.33-0.547-0.496-0.946-0.496
		c-0.396,0-0.708,0.166-0.94,0.496c-0.23,0.331-0.348,0.824-0.348,1.48s0.115,1.147,0.348,1.479s0.545,0.496,0.94,0.496
		C19.191,536.302,19.508,536.137,19.738,535.806z"/>
</g>
<g display="none">
	<path display="inline" fill="#3C3530" d="M15.227,450.927c0.293,0.144,0.522,0.344,0.688,0.604
		c0.165,0.261,0.248,0.563,0.248,0.901c0,0.363-0.091,0.684-0.272,0.956c-0.181,0.275-0.426,0.487-0.736,0.639
		c-0.309,0.146-0.656,0.224-1.04,0.224c-0.768,0-1.364-0.24-1.788-0.72c-0.424-0.48-0.636-1.168-0.636-2.064
		c0-0.629,0.115-1.167,0.344-1.612c0.229-0.443,0.551-0.781,0.964-1.016c0.413-0.23,0.892-0.348,1.436-0.348
		c0.288,0,0.559,0.029,0.812,0.092c0.253,0.063,0.473,0.15,0.66,0.268l-0.384,0.784c-0.277-0.181-0.632-0.271-1.064-0.271
		c-0.539,0-0.96,0.165-1.264,0.496c-0.304,0.33-0.456,0.808-0.456,1.432v0.008c0.166-0.19,0.376-0.337,0.632-0.436
		c0.256-0.101,0.544-0.148,0.864-0.148C14.603,450.715,14.934,450.786,15.227,450.927z M14.851,453.175
		c0.203-0.173,0.304-0.404,0.304-0.69c0-0.293-0.101-0.524-0.304-0.695s-0.475-0.256-0.816-0.256c-0.336,0-0.609,0.091-0.82,0.271
		c-0.211,0.184-0.316,0.411-0.316,0.688c0,0.271,0.103,0.497,0.308,0.676s0.489,0.268,0.852,0.268
		C14.384,453.435,14.648,453.349,14.851,453.175z"/>
	<path display="inline" fill="#3C3530" d="M17.843,453.911c-0.352-0.229-0.629-0.559-0.831-0.992
		c-0.204-0.435-0.305-0.95-0.305-1.548s0.101-1.113,0.305-1.548c0.202-0.437,0.479-0.768,0.831-0.992
		c0.353-0.227,0.753-0.34,1.201-0.34c0.447,0,0.849,0.113,1.203,0.34s0.633,0.558,0.836,0.992c0.203,0.434,0.306,0.95,0.306,1.548
		s-0.103,1.113-0.306,1.548c-0.203,0.436-0.479,0.766-0.836,0.992c-0.356,0.226-0.756,0.34-1.203,0.34
		C18.596,454.251,18.193,454.138,17.843,453.911z M19.991,452.851c0.231-0.33,0.348-0.821,0.348-1.479s-0.114-1.149-0.348-1.48
		c-0.232-0.33-0.55-0.496-0.947-0.496c-0.396,0-0.709,0.166-0.94,0.496c-0.231,0.331-0.349,0.824-0.349,1.48
		s0.115,1.148,0.349,1.479c0.231,0.331,0.545,0.496,0.94,0.496C19.441,453.347,19.759,453.182,19.991,452.851z"/>
</g>
<g display="none">
	<path display="inline" fill="#3C3530" d="M16.202,357.771v0.695l-2.176,4.904h-1.112l2.104-4.721h-2.2v0.953H11.85v-1.832H16.202
		L16.202,357.771z"/>
	<path display="inline" fill="#3C3530" d="M17.816,363.11c-0.354-0.228-0.629-0.559-0.832-0.991
		c-0.205-0.435-0.304-0.95-0.304-1.548s0.101-1.113,0.304-1.549c0.203-0.436,0.479-0.767,0.832-0.991
		c0.353-0.229,0.752-0.341,1.201-0.341c0.445,0,0.849,0.112,1.203,0.341c0.354,0.227,0.633,0.558,0.836,0.991
		c0.201,0.436,0.305,0.951,0.305,1.549s-0.104,1.113-0.305,1.548c-0.203,0.435-0.48,0.766-0.836,0.991
		c-0.354,0.228-0.758,0.341-1.203,0.341C18.568,363.451,18.169,363.338,17.816,363.11z M19.965,362.051
		c0.232-0.329,0.35-0.823,0.35-1.479c0-0.656-0.115-1.149-0.35-1.48c-0.23-0.33-0.548-0.496-0.947-0.496
		c-0.396,0-0.707,0.166-0.938,0.496c-0.231,0.331-0.349,0.824-0.349,1.48c0,0.655,0.115,1.147,0.349,1.479
		c0.231,0.331,0.545,0.496,0.938,0.496C19.417,362.547,19.732,362.382,19.965,362.051z"/>
</g>
<g display="none">
	<path display="inline" fill="#3C3530" d="M16.029,261.958c0.157,0.227,0.236,0.492,0.236,0.796c0,0.342-0.095,0.641-0.284,0.896
		c-0.189,0.256-0.457,0.452-0.804,0.588c-0.347,0.136-0.75,0.204-1.208,0.204c-0.459,0-0.86-0.068-1.204-0.204
		c-0.344-0.136-0.609-0.332-0.796-0.588c-0.187-0.256-0.28-0.555-0.28-0.896c0-0.304,0.078-0.569,0.232-0.796
		c0.155-0.227,0.376-0.406,0.664-0.54c-0.224-0.122-0.396-0.283-0.516-0.483c-0.12-0.2-0.18-0.431-0.18-0.692
		c0-0.314,0.086-0.589,0.26-0.824c0.173-0.234,0.417-0.416,0.732-0.544c0.314-0.128,0.677-0.191,1.088-0.191
		c0.416,0,0.781,0.063,1.096,0.191s0.56,0.31,0.736,0.544c0.176,0.235,0.264,0.51,0.264,0.824c0,0.262-0.061,0.491-0.184,0.688
		c-0.123,0.197-0.299,0.359-0.528,0.487C15.646,261.552,15.872,261.732,16.029,261.958z M14.881,263.387
		c0.224-0.16,0.336-0.382,0.336-0.664c0-0.277-0.112-0.496-0.336-0.656c-0.224-0.16-0.528-0.24-0.912-0.24
		c-0.384,0-0.686,0.08-0.904,0.24c-0.218,0.16-0.328,0.379-0.328,0.656c0,0.282,0.109,0.504,0.328,0.664
		c0.219,0.159,0.52,0.239,0.904,0.239C14.353,263.626,14.657,263.546,14.881,263.387z M13.197,259.707
		c-0.189,0.139-0.284,0.334-0.284,0.584c0,0.24,0.095,0.431,0.284,0.572c0.189,0.142,0.446,0.212,0.772,0.212
		c0.331,0,0.592-0.07,0.784-0.212c0.192-0.142,0.288-0.332,0.288-0.572c0-0.25-0.097-0.445-0.292-0.584s-0.455-0.208-0.78-0.208
		C13.644,259.499,13.386,259.568,13.197,259.707z"/>
	<path display="inline" fill="#3C3530" d="M18.073,264.103c-0.353-0.227-0.63-0.558-0.832-0.992
		c-0.203-0.435-0.304-0.95-0.304-1.548s0.101-1.113,0.304-1.548c0.202-0.435,0.479-0.766,0.832-0.992
		c0.352-0.227,0.752-0.34,1.202-0.34c0.447,0,0.848,0.113,1.203,0.34c0.354,0.227,0.633,0.558,0.836,0.992s0.305,0.95,0.305,1.548
		s-0.102,1.113-0.305,1.548s-0.48,0.766-0.836,0.992c-0.356,0.226-0.756,0.34-1.203,0.34
		C18.825,264.443,18.425,264.33,18.073,264.103z M20.223,263.042c0.231-0.33,0.348-0.823,0.348-1.479s-0.114-1.149-0.348-1.48
		c-0.231-0.33-0.55-0.496-0.947-0.496c-0.396,0-0.709,0.166-0.94,0.496c-0.231,0.331-0.349,0.824-0.349,1.48
		s0.115,1.149,0.349,1.479c0.231,0.331,0.545,0.496,0.94,0.496C19.673,263.539,19.988,263.374,20.223,263.042z"/>
</g>
<g display="none">
	<path display="inline" fill="#3C3530" d="M15.497,177.108c0.424,0.479,0.636,1.168,0.636,2.063c0,0.63-0.115,1.167-0.344,1.612
		c-0.229,0.445-0.551,0.784-0.964,1.017c-0.414,0.231-0.892,0.348-1.436,0.348c-0.288,0-0.559-0.031-0.812-0.092
		c-0.253-0.062-0.473-0.151-0.66-0.269l0.384-0.784c0.277,0.182,0.632,0.272,1.064,0.272c0.539,0,0.96-0.165,1.264-0.496
		c0.304-0.33,0.456-0.808,0.456-1.432v-0.008c-0.166,0.191-0.376,0.337-0.632,0.436c-0.256,0.099-0.544,0.148-0.864,0.148
		c-0.368,0-0.699-0.071-0.992-0.213c-0.293-0.141-0.522-0.342-0.688-0.604s-0.248-0.563-0.248-0.904
		c0-0.362,0.091-0.681,0.272-0.956c0.181-0.274,0.427-0.486,0.736-0.636c0.309-0.149,0.656-0.224,1.04-0.224
		C14.477,176.388,15.073,176.627,15.497,177.108z M14.609,178.835c0.21-0.181,0.316-0.41,0.316-0.688
		c0-0.272-0.103-0.497-0.308-0.676c-0.206-0.179-0.489-0.269-0.852-0.269c-0.325,0-0.589,0.087-0.792,0.261
		c-0.203,0.173-0.304,0.403-0.304,0.691c0,0.294,0.101,0.525,0.304,0.696c0.203,0.171,0.475,0.256,0.816,0.256
		C14.125,179.108,14.398,179.017,14.609,178.835z"/>
	<path display="inline" fill="#3C3530" d="M17.973,181.808c-0.352-0.227-0.629-0.558-0.832-0.992
		c-0.203-0.435-0.304-0.95-0.304-1.548s0.101-1.113,0.304-1.548c0.203-0.435,0.48-0.766,0.832-0.992
		c0.354-0.227,0.752-0.34,1.202-0.34c0.447,0,0.849,0.113,1.203,0.34s0.634,0.558,0.836,0.992c0.203,0.434,0.306,0.95,0.306,1.548
		s-0.103,1.113-0.306,1.548c-0.202,0.435-0.479,0.766-0.836,0.992s-0.756,0.34-1.203,0.34
		C18.727,182.148,18.325,182.035,17.973,181.808z M20.122,180.748c0.231-0.33,0.349-0.823,0.349-1.479
		c0-0.656-0.115-1.149-0.349-1.48c-0.231-0.33-0.549-0.496-0.947-0.496c-0.396,0-0.709,0.166-0.942,0.496
		c-0.23,0.331-0.348,0.824-0.348,1.48s0.115,1.149,0.348,1.479c0.233,0.331,0.545,0.496,0.942,0.496
		C19.573,181.244,19.891,181.079,20.122,180.748z"/>
</g>
<g display="none">
	<path display="inline" fill="#3C3530" d="M12.049,77.192v5.6h-1.04v-4.728H9.825v-0.872H12.049z"/>
	<path display="inline" fill="#3C3530" d="M14.297,82.532c-0.352-0.227-0.629-0.558-0.832-0.992
		c-0.203-0.434-0.304-0.95-0.304-1.548c0-0.598,0.101-1.113,0.304-1.548c0.203-0.435,0.48-0.766,0.832-0.992
		c0.352-0.227,0.752-0.34,1.2-0.34c0.448,0,0.849,0.113,1.204,0.34c0.354,0.227,0.633,0.558,0.836,0.992
		c0.201,0.435,0.304,0.95,0.304,1.548c0,0.598-0.103,1.113-0.304,1.548c-0.203,0.435-0.482,0.766-0.836,0.992
		c-0.355,0.227-0.756,0.34-1.204,0.34C15.049,82.872,14.649,82.759,14.297,82.532z M16.445,81.472
		c0.232-0.33,0.348-0.823,0.348-1.479c0-0.656-0.116-1.149-0.348-1.48c-0.232-0.33-0.548-0.496-0.948-0.496
		c-0.395,0-0.708,0.166-0.94,0.496c-0.232,0.331-0.348,0.824-0.348,1.48c0,0.656,0.116,1.149,0.348,1.479
		c0.232,0.331,0.545,0.496,0.94,0.496C15.897,81.968,16.213,81.803,16.445,81.472z"/>
	<path display="inline" fill="#3C3530" d="M19.682,82.532c-0.353-0.227-0.63-0.558-0.832-0.992c-0.203-0.434-0.306-0.95-0.306-1.548
		c0-0.598,0.103-1.113,0.306-1.548c0.202-0.435,0.479-0.766,0.832-0.992c0.353-0.226,0.752-0.34,1.2-0.34
		c0.447,0,0.849,0.113,1.203,0.34s0.633,0.558,0.836,0.992s0.306,0.95,0.306,1.548c0,0.598-0.103,1.113-0.306,1.548
		s-0.479,0.766-0.836,0.992c-0.356,0.226-0.756,0.34-1.203,0.34C20.434,82.872,20.032,82.759,19.682,82.532z M21.829,81.472
		c0.231-0.33,0.348-0.823,0.348-1.479c0-0.656-0.114-1.149-0.348-1.48c-0.231-0.33-0.55-0.496-0.947-0.496
		c-0.396,0-0.709,0.166-0.94,0.496c-0.231,0.331-0.349,0.824-0.349,1.48c0,0.656,0.115,1.149,0.349,1.479
		c0.231,0.331,0.545,0.496,0.94,0.496C21.279,81.968,21.598,81.803,21.829,81.472z"/>
</g>
<g display="none">
	<path display="inline" fill="#FFFFFF" d="M10.021,22.611h12.708c2.651,0,4.937-1.792,5.434-4.26
		c0.324-1.611-0.076-3.252-1.104-4.503c-0.873-1.069-2.104-1.748-3.453-1.924v-1.211c0-4.293-3.871-7.688-8.123-7.18
		C11.866,3.964,9.14,7.156,9.14,10.957v0.967c-1.164,0.151-2.244,0.679-3.102,1.525C4.803,14.7,4.259,16.417,4.55,18.162
		C4.953,20.574,7.459,22.611,10.021,22.611z M7.029,14.438c0.757-0.748,1.755-1.161,2.812-1.161c0.386,0,0.7-0.313,0.7-0.699v-1.622
		c0-3.218,2.562-6.078,5.839-6.078c3.177,0,5.827,2.66,5.827,5.833v1.866c0,0.386,0.313,0.699,0.699,0.699
		c1.191,0,2.313,0.532,3.07,1.457c0.758,0.924,1.053,2.142,0.812,3.34c-0.365,1.817-2.072,3.136-4.06,3.136H10.021
		c-1.887,0-3.798-1.532-4.09-3.28C5.716,16.635,6.117,15.361,7.029,14.438z"/>
</g>
<rect x="11.504" y="22.611" display="none" fill="none" width="9.754" height="5.471"/>
<g display="none" enable-background="new    ">
	<path display="inline" fill="#FFFFFF" d="M15.519,22.85h0.736v3.342h2.073v0.623h-2.809V22.85z"/>
</g>
<g>
	<g>
		<g>
			<defs>
				<path id="SVGID_65_" d="M26.963,581.091c-0.316,3.428-5.672,7.51-10.307,7.51l0,0c-4.593,0.367-10.877-3.316-10.877-7.51V42.843
					c1.022-4.94,6.493-7.797,10.183-7.792l0,0c4.296-0.006,9.896,2.929,11.001,7.984V581.091L26.963,581.091z"/>
			</defs>
			<clipPath id="SVGID_66_">
				<use xlink:href="#SVGID_65_"  overflow="visible"/>
			</clipPath>
			<g clip-path="url(#SVGID_66_)">
				<rect x="-1.083" y="36.274" fill="#F59826" width="42.344" height="13.766"/>
				<rect x="-5.08" y="49.509" fill="#FDCC22" width="41.926" height="13.106"/>
				<rect x="-5.08" y="62.615" fill="#6655AD" width="41.926" height="13.106"/>
				<rect x="-5.08" y="75.721" fill="#975EAD" width="41.926" height="13.106"/>
				<rect x="-5.08" y="88.827" fill="#C66AAF" width="41.926" height="13.106"/>
				<rect x="-5.08" y="101.934" fill="#AF48A1" width="41.926" height="13.105"/>
				<rect x="-5.08" y="115.039" fill="#981595" width="41.926" height="13.107"/>
				<rect x="-5.08" y="128.147" fill="#660666" width="41.926" height="13.104"/>
				<rect x="-5.08" y="141.251" fill="#640E0E" width="41.926" height="13.105"/>
				<rect x="-5.08" y="154.358" fill="#991E1F" width="41.926" height="13.106"/>
				<rect x="-5.08" y="167.464" fill="#CB2527" width="41.926" height="13.106"/>
				<rect x="-5.08" y="180.57" fill="#EC2426" width="41.926" height="13.105"/>
				<rect x="-5.08" y="193.675" fill="#F06626" width="41.926" height="13.107"/>
				<rect x="-5.08" y="206.783" fill="#F59826" width="41.926" height="13.105"/>
				<rect x="-5.08" y="219.889" fill="#FDCC22" width="41.926" height="13.106"/>
				<rect x="-5.08" y="232.996" fill="#FCFC1E" width="41.926" height="13.105"/>
				<rect x="-5.08" y="246.103" fill="#CBE436" width="41.926" height="13.104"/>
				<rect x="-5.08" y="259.207" fill="#7ECB47" width="41.926" height="13.107"/>
				<rect x="-5.08" y="272.316" fill="#0EB04E" width="41.926" height="13.104"/>
				<rect x="-5.08" y="285.419" fill="#37BD7C" width="41.926" height="13.105"/>
				<rect x="-5.08" y="298.524" fill="#58C3BA" width="41.926" height="13.105"/>
				<rect x="-5.08" y="311.63" fill="#6FC9DC" width="41.926" height="13.105"/>
				<rect x="-5.08" y="324.737" fill="#33BCF3" width="41.926" height="13.105"/>
				<rect x="-5.08" y="337.843" fill="#498DD2" width="41.926" height="13.107"/>
				<rect x="-5.08" y="350.952" fill="#4469BB" width="41.926" height="13.105"/>
				<rect x="-5.08" y="364.058" fill="#3F57B0" width="41.926" height="13.104"/>
				<rect x="-5.08" y="377.161" fill="#6655AD" width="41.926" height="13.107"/>
				<rect x="-5.08" y="390.269" fill="#975EAD" width="41.926" height="13.105"/>
				<rect x="-5.08" y="403.376" fill="#C66AAF" width="41.926" height="13.104"/>
				<rect x="-5.08" y="416.479" fill="#AF48A1" width="41.926" height="13.105"/>
				<rect x="-5.08" y="429.587" fill="#981595" width="41.926" height="13.107"/>
				<rect x="-5.08" y="442.694" fill="#660666" width="41.926" height="13.105"/>
				<rect x="-5.08" y="455.8" fill="#640E0E" width="41.926" height="13.104"/>
				<rect x="-5.08" y="468.903" fill="#991E1F" width="41.926" height="13.109"/>
				<rect x="-5.08" y="482.013" fill="#CB2527" width="41.926" height="13.104"/>
				<rect x="-5.08" y="495.118" fill="#EC2426" width="41.926" height="13.104"/>
				<rect x="-5.08" y="508.222" fill="#F06626" width="41.926" height="13.109"/>
				<rect x="-5.08" y="521.333" fill="#F59826" width="41.926" height="13.104"/>
				<rect x="-5.08" y="534.437" fill="#FDCC22" width="41.927" height="55.543"/>
			</g>
		</g>
	</g>
</g>
<g>
	<path fill="#39322E" d="M12.76,577.649c-0.729-0.396-1.301-0.945-1.715-1.645s-0.621-1.488-0.621-2.367s0.209-1.67,0.627-2.369
		s0.992-1.248,1.721-1.645c0.729-0.396,1.548-0.596,2.451-0.596c0.734,0,1.404,0.127,2.011,0.383s1.116,0.627,1.536,1.115
		l-1.075,1.012c-0.649-0.701-1.446-1.051-2.394-1.051c-0.615,0-1.165,0.135-1.65,0.402c-0.486,0.268-0.867,0.643-1.141,1.121
		c-0.271,0.479-0.409,1.02-0.409,1.625c0,0.604,0.138,1.146,0.409,1.625c0.273,0.479,0.653,0.852,1.141,1.119
		c0.485,0.27,1.036,0.402,1.65,0.402c0.947,0,1.745-0.354,2.394-1.063l1.075,1.023c-0.418,0.486-0.933,0.857-1.543,1.113
		c-0.61,0.258-1.282,0.385-2.016,0.385C14.307,578.245,13.49,578.046,12.76,577.649z"/>
	<path fill="#39322E" d="M20.87,573.056c-0.333-0.193-0.597-0.451-0.787-0.775c-0.191-0.324-0.288-0.684-0.288-1.074
		c0-0.395,0.097-0.754,0.288-1.082c0.19-0.328,0.454-0.59,0.787-0.781c0.332-0.193,0.699-0.287,1.101-0.287
		c0.402,0,0.77,0.096,1.102,0.287c0.333,0.191,0.596,0.451,0.787,0.781c0.19,0.328,0.287,0.688,0.287,1.082
		c0,0.393-0.097,0.75-0.287,1.074c-0.191,0.324-0.454,0.582-0.787,0.775c-0.332,0.189-0.699,0.287-1.102,0.287
		C21.569,573.343,21.202,573.247,20.87,573.056z M22.885,572.128c0.244-0.248,0.365-0.555,0.365-0.922
		c0-0.375-0.121-0.686-0.365-0.934s-0.549-0.373-0.916-0.373s-0.675,0.125-0.921,0.373c-0.247,0.246-0.372,0.559-0.372,0.934
		c0,0.367,0.125,0.674,0.372,0.922c0.247,0.246,0.554,0.371,0.921,0.371S22.641,572.374,22.885,572.128z"/>
</g>
<g>
	<path fill="#39322E" d="M16.48,44.533h-0.892v1.145h-0.908v-1.145h-2.765v-0.649l2.484-3.247h1L13.06,43.74h1.648v-1.015h0.88
		v1.015h0.892L16.48,44.533L16.48,44.533z"/>
	<path fill="#39322E" d="M20.059,42.757c0.265,0.127,0.472,0.309,0.619,0.544c0.148,0.235,0.224,0.506,0.224,0.814
		c0,0.326-0.082,0.614-0.244,0.86c-0.164,0.248-0.386,0.438-0.663,0.572c-0.278,0.134-0.591,0.202-0.938,0.202
		c-0.69,0-1.227-0.216-1.608-0.648c-0.381-0.432-0.572-1.051-0.572-1.858c0-0.566,0.104-1.05,0.311-1.45
		c0.206-0.4,0.495-0.706,0.867-0.915c0.371-0.208,0.803-0.313,1.293-0.313c0.258,0,0.502,0.027,0.729,0.083s0.426,0.136,0.594,0.241
		l-0.345,0.706c-0.252-0.164-0.569-0.246-0.959-0.246c-0.482,0-0.863,0.15-1.138,0.447c-0.272,0.298-0.409,0.727-0.409,1.288v0.008
		c0.147-0.173,0.338-0.304,0.567-0.393c0.23-0.088,0.489-0.133,0.777-0.133C19.498,42.567,19.795,42.63,20.059,42.757z
		 M19.721,44.781c0.183-0.156,0.273-0.364,0.273-0.623c0-0.264-0.092-0.473-0.273-0.626c-0.184-0.154-0.428-0.23-0.733-0.23
		c-0.304,0-0.55,0.083-0.738,0.245c-0.189,0.163-0.285,0.37-0.285,0.619c0,0.245,0.093,0.448,0.277,0.608
		c0.186,0.161,0.44,0.241,0.768,0.241C19.301,45.014,19.538,44.937,19.721,44.781z"/>
</g>
<g>
	<path fill="#39322E" d="M16.653,70.623h-0.893v1.145h-0.908v-1.145h-2.765v-0.648l2.484-3.247h1l-2.341,3.103h1.649v-1.015h0.879
		v1.015h0.893L16.653,70.623L16.653,70.623z"/>
	<path fill="#39322E" d="M20.678,70.976v0.792h-3.715v-0.627l2.002-1.9c0.225-0.216,0.377-0.404,0.457-0.566
		c0.078-0.161,0.117-0.32,0.117-0.478c0-0.235-0.078-0.415-0.237-0.54s-0.391-0.188-0.698-0.188c-0.514,0-0.906,0.175-1.182,0.526
		l-0.655-0.504c0.197-0.264,0.461-0.469,0.795-0.616c0.334-0.146,0.707-0.219,1.119-0.219c0.549,0,0.984,0.13,1.312,0.389
		c0.326,0.259,0.489,0.612,0.489,1.059c0,0.273-0.059,0.53-0.174,0.771c-0.114,0.241-0.336,0.514-0.662,0.821l-1.345,1.281
		L20.678,70.976L20.678,70.976z"/>
</g>
<g>
	<path fill="#39322E" d="M15.687,96.605c0.245,0.259,0.367,0.583,0.367,0.972c0,0.293-0.074,0.56-0.225,0.799
		c-0.147,0.24-0.374,0.431-0.673,0.573s-0.666,0.212-1.098,0.212c-0.36,0-0.707-0.051-1.041-0.154
		c-0.333-0.103-0.618-0.246-0.854-0.429l0.403-0.728c0.184,0.154,0.406,0.275,0.667,0.364c0.262,0.089,0.531,0.134,0.812,0.134
		c0.33,0,0.59-0.069,0.78-0.206c0.189-0.137,0.284-0.323,0.284-0.558c0-0.235-0.09-0.418-0.27-0.55
		c-0.182-0.132-0.455-0.198-0.824-0.198h-0.461v-0.641l1.145-1.361h-2.289v-0.785h3.436v0.627l-1.225,1.454
		C15.086,96.187,15.441,96.344,15.687,96.605z"/>
	<path fill="#39322E" d="M20.542,96.925c0.144,0.204,0.214,0.443,0.214,0.717c0,0.307-0.085,0.576-0.257,0.806
		c-0.17,0.23-0.41,0.407-0.723,0.529c-0.313,0.122-0.674,0.183-1.087,0.183s-0.774-0.061-1.083-0.183
		c-0.31-0.123-0.549-0.299-0.717-0.529s-0.25-0.499-0.25-0.806c0-0.274,0.068-0.512,0.208-0.717
		c0.139-0.204,0.338-0.366,0.597-0.485c-0.201-0.111-0.355-0.255-0.464-0.435c-0.108-0.18-0.162-0.388-0.162-0.623
		c0-0.283,0.078-0.53,0.234-0.741c0.154-0.211,0.375-0.375,0.659-0.49c0.281-0.115,0.608-0.173,0.979-0.173
		c0.374,0,0.703,0.058,0.986,0.173c0.282,0.115,0.504,0.278,0.662,0.49c0.157,0.211,0.237,0.458,0.237,0.741
		c0,0.235-0.056,0.442-0.166,0.619c-0.11,0.178-0.269,0.324-0.476,0.439C20.197,96.559,20.4,96.72,20.542,96.925z M19.511,98.21
		c0.202-0.144,0.302-0.343,0.302-0.598c0-0.25-0.1-0.446-0.302-0.59s-0.477-0.216-0.821-0.216s-0.616,0.072-0.813,0.216
		c-0.196,0.144-0.296,0.341-0.296,0.59c0,0.254,0.1,0.454,0.296,0.598c0.196,0.144,0.468,0.216,0.813,0.216
		S19.309,98.354,19.511,98.21z M17.993,94.898c-0.17,0.125-0.254,0.3-0.254,0.526c0,0.216,0.084,0.388,0.254,0.515
		c0.17,0.127,0.402,0.19,0.695,0.19c0.297,0,0.532-0.063,0.705-0.19c0.174-0.127,0.26-0.299,0.26-0.515
		c0-0.226-0.088-0.401-0.264-0.526s-0.408-0.187-0.701-0.187S18.163,94.774,17.993,94.898z"/>
</g>
<g>
	<path fill="#39322E" d="M15.337,121.85c0.245,0.26,0.367,0.583,0.367,0.972c0,0.293-0.075,0.559-0.224,0.799
		c-0.148,0.24-0.374,0.431-0.674,0.573s-0.666,0.212-1.098,0.212c-0.36,0-0.707-0.051-1.041-0.154s-0.618-0.247-0.854-0.429
		l0.403-0.727c0.185,0.153,0.404,0.274,0.666,0.364c0.262,0.089,0.531,0.134,0.812,0.134c0.331,0,0.591-0.069,0.781-0.206
		c0.188-0.137,0.284-0.322,0.284-0.557c0-0.235-0.09-0.418-0.271-0.551c-0.181-0.132-0.454-0.198-0.824-0.198h-0.46v-0.641
		l1.145-1.36h-2.289v-0.785h3.436v0.626l-1.225,1.454C14.736,121.433,15.09,121.591,15.337,121.85z"/>
	<path fill="#39322E" d="M20.809,123.19h-0.893v1.145h-0.908v-1.145h-2.765v-0.648l2.482-3.247h1.001l-2.34,3.103h1.649v-1.015
		h0.879v1.015h0.893L20.809,123.19L20.809,123.19z"/>
</g>
<g>
	<path fill="#39322E" d="M16.041,149.128c0.245,0.258,0.367,0.582,0.367,0.972c0,0.292-0.075,0.559-0.224,0.799
		c-0.147,0.24-0.374,0.431-0.673,0.571c-0.3,0.143-0.667,0.214-1.099,0.214c-0.36,0-0.707-0.052-1.041-0.154
		s-0.618-0.246-0.854-0.429l0.403-0.727c0.184,0.153,0.405,0.274,0.667,0.363s0.531,0.135,0.81,0.135
		c0.332,0,0.592-0.07,0.782-0.207c0.189-0.137,0.284-0.322,0.284-0.558s-0.09-0.418-0.271-0.551
		c-0.181-0.132-0.454-0.198-0.823-0.198H13.91v-0.641l1.145-1.361h-2.289v-0.784H16.2v0.626l-1.224,1.454
		C15.44,148.71,15.795,148.868,16.041,149.128z"/>
	<path fill="#39322E" d="M18.044,151.378c-0.318-0.205-0.566-0.502-0.75-0.894c-0.183-0.39-0.273-0.854-0.273-1.394
		c0-0.537,0.092-1.002,0.273-1.393c0.184-0.391,0.432-0.689,0.75-0.893c0.316-0.204,0.676-0.307,1.08-0.307
		c0.402,0,0.764,0.103,1.084,0.307c0.317,0.203,0.568,0.502,0.751,0.893s0.272,0.855,0.272,1.393c0,0.539-0.091,1.002-0.272,1.394
		c-0.183,0.392-0.434,0.688-0.751,0.894c-0.32,0.203-0.682,0.306-1.084,0.306C18.719,151.684,18.36,151.582,18.044,151.378z
		 M19.977,150.423c0.208-0.299,0.313-0.741,0.313-1.332c0-0.59-0.104-1.034-0.313-1.332c-0.211-0.297-0.493-0.446-0.854-0.446
		c-0.355,0-0.638,0.149-0.846,0.446c-0.212,0.298-0.314,0.742-0.314,1.332c0,0.591,0.104,1.033,0.314,1.332
		c0.208,0.297,0.488,0.446,0.846,0.446C19.481,150.871,19.766,150.72,19.977,150.423z"/>
</g>
<g>
	<path fill="#39322E" d="M16.166,175.78v0.792H12.45v-0.626l2.001-1.899c0.225-0.217,0.378-0.404,0.457-0.566
		c0.079-0.161,0.119-0.32,0.119-0.479c0-0.235-0.08-0.416-0.238-0.541s-0.392-0.187-0.699-0.187c-0.514,0-0.907,0.175-1.181,0.524
		l-0.655-0.504c0.197-0.264,0.462-0.469,0.795-0.615s0.707-0.221,1.12-0.221c0.547,0,0.983,0.131,1.31,0.39
		c0.327,0.259,0.49,0.612,0.49,1.058c0,0.274-0.058,0.531-0.172,0.771c-0.116,0.24-0.336,0.513-0.663,0.82l-1.347,1.281
		L16.166,175.78L16.166,175.78z"/>
	<path fill="#39322E" d="M19.866,173.653c0.265,0.127,0.471,0.31,0.619,0.543c0.148,0.235,0.223,0.506,0.223,0.813
		c0,0.326-0.081,0.613-0.244,0.86c-0.164,0.247-0.385,0.438-0.662,0.572c-0.279,0.134-0.592,0.202-0.937,0.202
		c-0.691,0-1.229-0.217-1.61-0.648c-0.381-0.432-0.572-1.051-0.572-1.857c0-0.566,0.104-1.051,0.311-1.451s0.494-0.705,0.867-0.914
		c0.371-0.209,0.803-0.314,1.293-0.314c0.258,0,0.502,0.028,0.729,0.084c0.229,0.055,0.426,0.135,0.594,0.241l-0.346,0.706
		c-0.251-0.164-0.568-0.245-0.958-0.245c-0.484,0-0.864,0.148-1.138,0.446s-0.41,0.729-0.41,1.289v0.007
		c0.147-0.173,0.338-0.303,0.568-0.394c0.229-0.09,0.489-0.133,0.776-0.133C19.303,173.462,19.602,173.526,19.866,173.653z
		 M19.528,175.675c0.182-0.155,0.272-0.363,0.272-0.623c0-0.264-0.092-0.473-0.272-0.625c-0.185-0.153-0.429-0.23-0.734-0.23
		c-0.303,0-0.549,0.083-0.738,0.245c-0.188,0.163-0.284,0.37-0.284,0.619c0,0.245,0.094,0.448,0.277,0.608
		c0.185,0.162,0.44,0.241,0.767,0.241C19.106,175.91,19.344,175.833,19.528,175.675z"/>
</g>
<g>
	<path fill="#39322E" d="M16.103,203.108v0.792h-3.715v-0.626l2.001-1.901c0.225-0.216,0.377-0.404,0.456-0.564
		c0.08-0.161,0.119-0.32,0.119-0.479c0-0.235-0.08-0.416-0.238-0.54c-0.158-0.125-0.391-0.188-0.697-0.188
		c-0.516,0-0.907,0.175-1.183,0.525l-0.653-0.504c0.196-0.264,0.461-0.469,0.795-0.615c0.333-0.146,0.707-0.22,1.118-0.22
		c0.549,0,0.984,0.13,1.311,0.39c0.327,0.259,0.49,0.611,0.49,1.058c0,0.274-0.059,0.53-0.172,0.771
		c-0.116,0.24-0.337,0.515-0.663,0.821l-1.347,1.282L16.103,203.108L16.103,203.108z"/>
	<path fill="#39322E" d="M20.295,203.108v0.792h-3.716v-0.626l2.002-1.901c0.225-0.216,0.378-0.404,0.457-0.564
		c0.078-0.161,0.119-0.32,0.119-0.479c0-0.235-0.08-0.416-0.238-0.54c-0.158-0.125-0.391-0.188-0.699-0.188
		c-0.514,0-0.906,0.175-1.181,0.525l-0.655-0.504c0.197-0.264,0.462-0.469,0.795-0.615c0.334-0.146,0.707-0.22,1.12-0.22
		c0.548,0,0.983,0.13,1.311,0.39c0.326,0.259,0.489,0.611,0.489,1.058c0,0.274-0.058,0.53-0.172,0.771
		c-0.116,0.24-0.336,0.515-0.663,0.821l-1.347,1.282L20.295,203.108L20.295,203.108z"/>
</g>
<g>
	<path fill="#39322E" d="M15.035,223.813v5.04h-0.937v-4.254h-1.065v-0.786H15.035z"/>
	<path fill="#39322E" d="M19.913,226.691c0.143,0.203,0.213,0.441,0.213,0.717c0,0.307-0.085,0.576-0.256,0.805
		c-0.17,0.23-0.411,0.406-0.724,0.529s-0.674,0.184-1.087,0.184s-0.773-0.061-1.083-0.184s-0.549-0.299-0.717-0.529
		c-0.168-0.229-0.251-0.498-0.251-0.805c0-0.275,0.07-0.512,0.209-0.717s0.338-0.367,0.598-0.486
		c-0.201-0.111-0.355-0.256-0.465-0.436c-0.107-0.182-0.162-0.389-0.162-0.623c0-0.283,0.078-0.529,0.234-0.74
		c0.155-0.211,0.375-0.375,0.659-0.49c0.283-0.115,0.61-0.173,0.979-0.173c0.374,0,0.703,0.058,0.986,0.173s0.504,0.279,0.662,0.49
		s0.237,0.457,0.237,0.74c0,0.234-0.056,0.441-0.165,0.619c-0.111,0.178-0.271,0.324-0.477,0.439
		C19.568,226.324,19.771,226.486,19.913,226.691z M18.879,227.976c0.203-0.146,0.303-0.346,0.303-0.6c0-0.25-0.1-0.445-0.303-0.59
		c-0.201-0.145-0.475-0.217-0.82-0.217c-0.345,0-0.616,0.072-0.813,0.217c-0.196,0.145-0.294,0.34-0.294,0.59
		c0,0.254,0.098,0.453,0.294,0.6c0.197,0.143,0.469,0.215,0.813,0.215C18.404,228.191,18.678,228.119,18.879,227.976z
		 M17.364,224.664c-0.17,0.125-0.255,0.299-0.255,0.525c0,0.217,0.085,0.389,0.255,0.516s0.401,0.189,0.694,0.189
		c0.297,0,0.532-0.063,0.705-0.189c0.174-0.127,0.26-0.299,0.26-0.516c0-0.227-0.088-0.4-0.264-0.525s-0.408-0.188-0.701-0.188
		S17.534,224.539,17.364,224.664z"/>
</g>
<g>
	<path fill="#39322E" d="M15.275,248.9v5.039h-0.937v-4.254h-1.065V248.9H15.275L15.275,248.9z"/>
	<path fill="#39322E" d="M20.767,252.794h-0.892v1.145h-0.908v-1.145h-2.764v-0.648l2.482-3.246h1.002l-2.34,3.102h1.648v-1.014
		h0.879v1.014h0.892V252.794z"/>
</g>
<g>
	<path fill="#39322E" d="M14.498,275.777v5.041h-0.937v-4.256h-1.064v-0.785H14.498z"/>
	<path fill="#39322E" d="M16.52,280.583c-0.316-0.205-0.565-0.502-0.749-0.893c-0.184-0.393-0.273-0.855-0.273-1.395
		c0-0.537,0.09-1,0.273-1.393c0.183-0.393,0.433-0.689,0.749-0.895c0.316-0.203,0.678-0.305,1.08-0.305
		c0.404,0,0.766,0.102,1.084,0.305c0.318,0.205,0.57,0.502,0.752,0.895c0.184,0.391,0.273,0.855,0.273,1.393
		c0,0.539-0.091,1.002-0.273,1.395c-0.184,0.391-0.434,0.688-0.752,0.893c-0.318,0.203-0.682,0.307-1.084,0.307
		S16.838,280.787,16.52,280.583z M18.454,279.63c0.209-0.297,0.313-0.742,0.313-1.332s-0.104-1.033-0.313-1.332
		c-0.209-0.297-0.494-0.445-0.854-0.445c-0.354,0-0.637,0.148-0.846,0.445c-0.209,0.299-0.313,0.742-0.313,1.332
		s0.104,1.035,0.313,1.332c0.208,0.297,0.49,0.445,0.846,0.445C17.96,280.076,18.245,279.927,18.454,279.63z"/>
</g>
<g>
	<path fill="#39322E" d="M17.178,306.878c0.266,0.127,0.471,0.311,0.62,0.543c0.148,0.236,0.222,0.51,0.222,0.814
		c0,0.326-0.081,0.613-0.243,0.859c-0.164,0.248-0.385,0.439-0.663,0.572c-0.278,0.135-0.592,0.201-0.937,0.201
		c-0.69,0-1.228-0.215-1.608-0.646c-0.383-0.434-0.572-1.051-0.572-1.857c0-0.566,0.103-1.051,0.309-1.451
		c0.207-0.398,0.496-0.705,0.867-0.914c0.372-0.209,0.803-0.313,1.293-0.313c0.259,0,0.502,0.027,0.73,0.084
		c0.229,0.055,0.426,0.137,0.594,0.242l-0.346,0.703c-0.25-0.162-0.569-0.244-0.958-0.244c-0.484,0-0.864,0.148-1.139,0.445
		c-0.272,0.299-0.41,0.729-0.41,1.289v0.008c0.148-0.172,0.339-0.303,0.569-0.393s0.49-0.135,0.777-0.135
		C16.617,306.687,16.915,306.751,17.178,306.878z M16.84,308.901c0.182-0.156,0.273-0.365,0.273-0.623
		c0-0.264-0.092-0.473-0.273-0.627c-0.183-0.152-0.427-0.23-0.734-0.23c-0.302,0-0.548,0.082-0.737,0.246
		c-0.19,0.164-0.284,0.369-0.284,0.619c0,0.244,0.092,0.447,0.278,0.607c0.184,0.16,0.44,0.24,0.767,0.24
		C16.42,309.134,16.658,309.058,16.84,308.901z"/>
</g>
<g>
	<path fill="#39322E" d="M18.975,333.192v0.791H15.26v-0.625l2.002-1.902c0.226-0.215,0.377-0.402,0.457-0.563
		c0.078-0.162,0.117-0.32,0.117-0.48c0-0.234-0.078-0.416-0.237-0.541c-0.159-0.123-0.391-0.186-0.698-0.186
		c-0.515,0-0.907,0.174-1.182,0.523l-0.655-0.504c0.197-0.264,0.463-0.469,0.796-0.615s0.707-0.219,1.119-0.219
		c0.549,0,0.984,0.129,1.311,0.387c0.326,0.26,0.49,0.613,0.49,1.061c0,0.271-0.06,0.529-0.175,0.77
		c-0.114,0.24-0.336,0.516-0.661,0.82l-1.347,1.281L18.975,333.192L18.975,333.192z"/>
</g>
<g>
	<path fill="#39322E" d="M12.891,359.788h1.98v0.748h-1.98V359.788z"/>
	<path fill="#39322E" d="M19.126,361.37v0.793h-3.715v-0.627l2.002-1.898c0.225-0.219,0.377-0.406,0.457-0.566
		c0.078-0.16,0.117-0.32,0.117-0.479c0-0.234-0.078-0.414-0.236-0.539c-0.159-0.125-0.393-0.189-0.699-0.189
		c-0.514,0-0.907,0.176-1.181,0.527l-0.655-0.504c0.197-0.266,0.462-0.471,0.795-0.617s0.707-0.219,1.12-0.219
		c0.548,0,0.983,0.129,1.31,0.389c0.327,0.26,0.49,0.611,0.49,1.057c0,0.275-0.058,0.531-0.174,0.771
		c-0.114,0.24-0.336,0.514-0.661,0.82l-1.347,1.281H19.126L19.126,361.37z"/>
</g>
<g>
	<path fill="#39322E" d="M12.727,383.896h1.98v0.748h-1.98V383.896z"/>
	<path fill="#39322E" d="M18.637,383.351c0.265,0.129,0.472,0.309,0.619,0.545c0.148,0.234,0.223,0.506,0.223,0.813
		c0,0.326-0.082,0.613-0.243,0.859c-0.164,0.248-0.386,0.438-0.663,0.574c-0.278,0.135-0.592,0.201-0.938,0.201
		c-0.69,0-1.227-0.217-1.608-0.648c-0.383-0.432-0.572-1.051-0.572-1.857c0-0.564,0.103-1.051,0.309-1.449
		c0.207-0.4,0.496-0.705,0.867-0.914c0.372-0.211,0.803-0.314,1.293-0.314c0.258,0,0.502,0.027,0.73,0.084
		c0.227,0.053,0.425,0.135,0.593,0.24l-0.345,0.707c-0.25-0.164-0.569-0.246-0.959-0.246c-0.482,0-0.864,0.148-1.138,0.447
		c-0.272,0.297-0.41,0.727-0.41,1.287v0.008c0.148-0.172,0.339-0.303,0.569-0.393c0.23-0.088,0.49-0.133,0.777-0.133
		C18.076,383.161,18.374,383.224,18.637,383.351z M18.299,385.374c0.182-0.154,0.273-0.361,0.273-0.623
		c0-0.264-0.093-0.473-0.273-0.625c-0.184-0.152-0.428-0.23-0.734-0.23c-0.303,0-0.549,0.082-0.738,0.246
		c-0.19,0.162-0.284,0.369-0.284,0.619c0,0.242,0.092,0.447,0.278,0.605c0.184,0.162,0.439,0.242,0.766,0.242
		C17.879,385.608,18.116,385.53,18.299,385.374z"/>
</g>
<g>
	<path fill="#39322E" d="M11.256,410.845h1.98v0.75h-1.98V410.845z"/>
	<path fill="#39322E" d="M15.547,408.181v5.041h-0.936v-4.256h-1.066v-0.783L15.547,408.181L15.547,408.181z"/>
	<path fill="#39322E" d="M17.569,412.987c-0.316-0.205-0.566-0.502-0.749-0.893c-0.184-0.393-0.273-0.855-0.273-1.395
		c0-0.537,0.09-1.002,0.273-1.393c0.183-0.393,0.432-0.689,0.749-0.895c0.315-0.205,0.678-0.307,1.081-0.307
		c0.402,0,0.765,0.102,1.083,0.307c0.317,0.205,0.569,0.502,0.752,0.895c0.184,0.391,0.273,0.854,0.273,1.393
		c0,0.537-0.091,1.002-0.273,1.395c-0.184,0.391-0.435,0.688-0.752,0.893c-0.318,0.203-0.682,0.305-1.083,0.305
		C18.247,413.292,17.887,413.19,17.569,412.987z M19.503,412.032c0.209-0.297,0.314-0.74,0.314-1.332
		c0-0.59-0.105-1.033-0.314-1.332c-0.209-0.297-0.493-0.445-0.853-0.445c-0.354,0-0.639,0.148-0.848,0.445
		c-0.209,0.299-0.313,0.742-0.313,1.332c0,0.592,0.104,1.035,0.313,1.332c0.209,0.299,0.491,0.447,0.848,0.447
		C19.009,412.479,19.295,412.331,19.503,412.032z"/>
</g>
<g>
	<path fill="#39322E" d="M11.491,437.782h1.979v0.75h-1.979V437.782z"/>
	<path fill="#39322E" d="M15.783,435.118v5.041h-0.937v-4.256h-1.065v-0.783L15.783,435.118L15.783,435.118z"/>
	<path fill="#39322E" d="M21.276,439.015h-0.893v1.145h-0.909v-1.145h-2.764v-0.648l2.485-3.248h1l-2.341,3.104h1.648v-1.016h0.88
		v1.016h0.893V439.015z"/>
</g>
<g>
	<path fill="#39322E" d="M12.02,463.901H14v0.75h-1.98V463.901z"/>
	<path fill="#39322E" d="M16.313,461.237v5.041h-0.937v-4.256h-1.065v-0.783L16.313,461.237L16.313,461.237z"/>
	<path fill="#39322E" d="M21.188,464.116c0.143,0.203,0.213,0.441,0.213,0.715c0,0.309-0.084,0.576-0.255,0.809
		c-0.172,0.229-0.411,0.406-0.724,0.527c-0.313,0.123-0.675,0.186-1.087,0.186c-0.413,0-0.775-0.063-1.084-0.186
		c-0.309-0.121-0.549-0.299-0.717-0.527c-0.168-0.23-0.25-0.5-0.25-0.809c0-0.271,0.067-0.512,0.208-0.715
		c0.14-0.205,0.339-0.367,0.598-0.486c-0.202-0.109-0.355-0.256-0.465-0.436s-0.161-0.389-0.161-0.623
		c0-0.283,0.078-0.531,0.234-0.742c0.153-0.211,0.375-0.375,0.657-0.488c0.283-0.115,0.609-0.174,0.979-0.174
		c0.375,0,0.703,0.059,0.986,0.174c0.282,0.115,0.504,0.277,0.663,0.488c0.156,0.211,0.236,0.459,0.236,0.742
		c0,0.234-0.055,0.441-0.166,0.619c-0.109,0.178-0.268,0.324-0.475,0.439C20.845,463.749,21.048,463.911,21.188,464.116z
		 M20.157,465.399c0.201-0.145,0.302-0.344,0.302-0.598c0-0.25-0.101-0.447-0.302-0.59c-0.202-0.145-0.477-0.217-0.822-0.217
		c-0.345,0-0.615,0.072-0.813,0.217c-0.196,0.145-0.295,0.342-0.295,0.59c0,0.254,0.099,0.453,0.295,0.598
		c0.197,0.145,0.469,0.217,0.813,0.217C19.682,465.616,19.955,465.544,20.157,465.399z M18.641,462.087
		c-0.171,0.125-0.256,0.301-0.256,0.525c0,0.217,0.085,0.387,0.256,0.516c0.17,0.129,0.4,0.191,0.693,0.191
		c0.299,0,0.533-0.063,0.706-0.191c0.175-0.127,0.259-0.299,0.259-0.516c0-0.225-0.086-0.4-0.262-0.525
		c-0.176-0.123-0.41-0.186-0.703-0.186S18.811,461.962,18.641,462.087z"/>
</g>
<g>
	<path fill="#39322E" d="M11.367,487.604h1.979v0.748h-1.979V487.604z"/>
	<path fill="#39322E" d="M17.602,489.187v0.793h-3.715v-0.627l2.001-1.9c0.226-0.217,0.378-0.404,0.457-0.564s0.118-0.32,0.118-0.48
		c0-0.234-0.079-0.416-0.237-0.541c-0.157-0.123-0.391-0.186-0.697-0.186c-0.515,0-0.907,0.174-1.183,0.525l-0.653-0.506
		c0.196-0.264,0.461-0.469,0.795-0.615s0.707-0.219,1.119-0.219c0.549,0,0.984,0.129,1.311,0.387
		c0.327,0.262,0.491,0.613,0.491,1.061c0,0.271-0.06,0.529-0.174,0.77c-0.115,0.242-0.337,0.516-0.662,0.822l-1.348,1.281H17.602
		L17.602,489.187z"/>
	<path fill="#39322E" d="M21.792,489.187v0.793h-3.715v-0.627l2.002-1.9c0.225-0.217,0.377-0.404,0.457-0.564
		c0.079-0.16,0.118-0.32,0.118-0.48c0-0.234-0.079-0.416-0.237-0.541c-0.158-0.123-0.392-0.186-0.699-0.186
		c-0.514,0-0.906,0.174-1.181,0.525l-0.655-0.506c0.197-0.264,0.463-0.469,0.796-0.615s0.707-0.219,1.118-0.219
		c0.549,0,0.984,0.129,1.313,0.387c0.326,0.262,0.488,0.613,0.488,1.061c0,0.271-0.057,0.529-0.173,0.77
		c-0.114,0.24-0.336,0.516-0.663,0.822l-1.346,1.281H21.792L21.792,489.187z"/>
</g>
<g>
	<path fill="#39322E" d="M10.759,514.979h1.98v0.748h-1.98V514.979z"/>
	<path fill="#39322E" d="M16.994,516.563v0.791h-3.715v-0.625l2.002-1.902c0.225-0.215,0.377-0.402,0.457-0.563
		c0.079-0.162,0.117-0.32,0.117-0.48c0-0.234-0.078-0.414-0.236-0.539c-0.159-0.125-0.393-0.188-0.699-0.188
		c-0.514,0-0.907,0.176-1.181,0.523l-0.655-0.504c0.197-0.264,0.462-0.469,0.795-0.615s0.707-0.219,1.12-0.219
		c0.548,0,0.982,0.129,1.31,0.389s0.49,0.611,0.49,1.059c0,0.273-0.058,0.531-0.173,0.771c-0.115,0.238-0.336,0.514-0.663,0.82
		l-1.346,1.281H16.994L16.994,516.563z"/>
	<path fill="#39322E" d="M20.696,514.435c0.264,0.127,0.471,0.309,0.618,0.545c0.148,0.234,0.224,0.506,0.224,0.813
		c0,0.326-0.082,0.613-0.246,0.859c-0.162,0.248-0.383,0.438-0.662,0.574c-0.277,0.133-0.59,0.201-0.936,0.201
		c-0.691,0-1.228-0.219-1.609-0.648c-0.381-0.432-0.572-1.051-0.572-1.857c0-0.566,0.104-1.051,0.311-1.449
		c0.206-0.4,0.495-0.707,0.866-0.914c0.372-0.211,0.805-0.314,1.294-0.314c0.259,0,0.503,0.027,0.729,0.084
		c0.228,0.053,0.426,0.135,0.594,0.24l-0.347,0.705c-0.25-0.162-0.568-0.244-0.957-0.244c-0.484,0-0.863,0.148-1.137,0.447
		c-0.274,0.297-0.411,0.727-0.411,1.287v0.008c0.148-0.174,0.339-0.303,0.568-0.393c0.23-0.088,0.489-0.133,0.777-0.133
		C20.134,514.245,20.432,514.308,20.696,514.435z M20.356,516.46c0.184-0.156,0.274-0.363,0.274-0.625s-0.092-0.473-0.274-0.625
		s-0.427-0.229-0.733-0.229c-0.302,0-0.548,0.082-0.738,0.244c-0.189,0.164-0.284,0.369-0.284,0.619
		c0,0.244,0.093,0.447,0.277,0.607c0.184,0.16,0.441,0.242,0.768,0.242C19.938,516.692,20.174,516.614,20.356,516.46z"/>
</g>
<g>
	<path fill="#39322E" d="M10.896,545.804h1.98v0.748h-1.98V545.804z"/>
	<path fill="#39322E" d="M16.656,545.694c0.244,0.258,0.366,0.584,0.366,0.973c0,0.293-0.073,0.559-0.224,0.799
		c-0.147,0.24-0.374,0.432-0.673,0.572c-0.3,0.143-0.666,0.213-1.098,0.213c-0.36,0-0.707-0.053-1.041-0.154
		c-0.334-0.104-0.617-0.244-0.854-0.43l0.404-0.725c0.183,0.152,0.403,0.275,0.666,0.361c0.261,0.09,0.531,0.135,0.811,0.135
		c0.331,0,0.591-0.068,0.781-0.207c0.189-0.135,0.284-0.32,0.284-0.557c0-0.234-0.091-0.418-0.271-0.551
		c-0.18-0.133-0.455-0.199-0.823-0.199h-0.459v-0.641l1.146-1.359h-2.289v-0.785h3.436v0.627l-1.226,1.453
		C16.056,545.276,16.412,545.437,16.656,545.694z"/>
	<path fill="#39322E" d="M18.658,547.944c-0.316-0.203-0.566-0.5-0.749-0.893c-0.185-0.391-0.273-0.854-0.273-1.395
		c0-0.537,0.09-1.002,0.273-1.393c0.183-0.393,0.433-0.688,0.749-0.893s0.677-0.307,1.081-0.307c0.402,0,0.764,0.102,1.083,0.307
		c0.318,0.203,0.568,0.5,0.753,0.893c0.182,0.391,0.272,0.854,0.272,1.393s-0.092,1.004-0.272,1.395
		c-0.185,0.393-0.435,0.689-0.753,0.893c-0.319,0.205-0.682,0.307-1.083,0.307C19.335,548.251,18.975,548.149,18.658,547.944z
		 M20.591,546.991c0.208-0.299,0.313-0.742,0.313-1.334c0-0.588-0.105-1.033-0.313-1.33c-0.21-0.297-0.493-0.447-0.853-0.447
		c-0.355,0-0.64,0.15-0.848,0.447c-0.21,0.297-0.313,0.742-0.313,1.33c0,0.592,0.104,1.035,0.313,1.334
		c0.208,0.297,0.491,0.445,0.848,0.445C20.098,547.437,20.381,547.288,20.591,546.991z"/>
</g>
<circle fill="#39322E" cx="16.372" cy="15.781" r="14.909"/>
<g id="Layer_1">
	<g>
		<path fill="#FFFFFF" d="M16.657,3.683c-2.457,0-4.456,1.999-4.456,4.456v6.517c-1.703,1.485-2.55,3.692-2.272,5.959
			c0.375,3.067,2.878,5.542,5.951,5.885c3.965,0.442,7.559-2.74,7.559-6.737c0-1.97-0.844-3.816-2.323-5.107V8.139
			C21.114,5.682,19.115,3.683,16.657,3.683z M22.276,19.764c0,3.322-2.98,5.947-6.269,5.582c-2.543-0.284-4.616-2.333-4.925-4.871
			c-0.241-1.96,0.531-3.865,2.063-5.094c0.139-0.11,0.218-0.277,0.218-0.453v-6.79c0-1.816,1.477-3.294,3.293-3.294
			c1.815,0,3.294,1.478,3.294,3.294v6.789c0,0.176,0.079,0.342,0.216,0.453C21.508,16.457,22.276,18.053,22.276,19.764z"/>
	</g>
	<g>
		<path fill="#FFFFFF" d="M18.788,16.778V9.69c0-1.175-0.955-2.131-2.131-2.131s-2.131,0.956-2.131,2.131v7.088
			c-1.23,0.875-1.806,2.401-1.438,3.903c0.621,2.545,3.816,3.587,5.858,1.968c0.884-0.704,1.392-1.755,1.392-2.884
			C20.338,18.582,19.753,17.466,18.788,16.778z M18.221,21.737c-1.388,1.1-3.579,0.411-4.005-1.333
			c-0.276-1.127,0.188-2.229,1.183-2.808c0.181-0.104,0.289-0.296,0.289-0.503V9.688c0-0.534,0.436-0.969,0.97-0.969
			c0.535,0,0.969,0.435,0.969,0.969v7.405c0,0.207,0.109,0.398,0.289,0.503c0.789,0.459,1.26,1.27,1.26,2.167
			C19.176,20.537,18.829,21.256,18.221,21.737z"/>
	</g>
</g>
<path fill="none" stroke="#3C3430" stroke-width="3" stroke-miterlimit="10" d="M26.963,580.983
	c-0.316,3.428-5.672,7.51-10.307,7.51l0,0c-4.593,0.367-10.877-3.316-10.877-7.51V42.736c1.022-4.94,6.492-7.798,10.183-7.792l0,0
	c4.296-0.006,9.896,2.929,11.001,7.984V580.983L26.963,580.983z"/>
</svg>
