<?xml version="1.0" encoding="UTF-8"?>
<svg xmlns="http://www.w3.org/2000/svg" version="1.1" xmlns:xlink="http://www.w3.org/1999/xlink" width="40.8px" height="725.2px" viewBox="0 0 40.8 725.2">
  <defs>
    <style>
      .cls-1 {
        fill: #f4bd0b;
      }

      .cls-1, .cls-2, .cls-3, .cls-4, .cls-5, .cls-6, .cls-7, .cls-8, .cls-9, .cls-10, .cls-11, .cls-12, .cls-13, .cls-14, .cls-15, .cls-16, .cls-17, .cls-18, .cls-19, .cls-20, .cls-21, .cls-22, .cls-23, .cls-24, .cls-25, .cls-26, .cls-27, .cls-28, .cls-29, .cls-30, .cls-31, .cls-32, .cls-33, .cls-34, .cls-35, .cls-36, .cls-37, .cls-38, .cls-39, .cls-40 {
        isolation: isolate;
      }

      .cls-1, .cls-2, .cls-3, .cls-4, .cls-5, .cls-6, .cls-7, .cls-8, .cls-9, .cls-10, .cls-11, .cls-12, .cls-13, .cls-14, .cls-15, .cls-16, .cls-17, .cls-18, .cls-20, .cls-21, .cls-22, .cls-23, .cls-24, .cls-25, .cls-26, .cls-27, .cls-28, .cls-29, .cls-30, .cls-31, .cls-32, .cls-33, .cls-34, .cls-35, .cls-36, .cls-37, .cls-38, .cls-39, .cls-40 {
        opacity: .9;
      }

      .cls-2 {
        fill: #52ca0b;
      }

      .cls-3 {
        fill: #b000e0;
      }

      .cls-4 {
        fill: #003c7f;
      }

      .cls-5 {
        fill: #0062af;
      }

      .cls-41 {
        stroke-width: 2px;
      }

      .cls-41, .cls-42, .cls-43 {
        fill: none;
      }

      .cls-41, .cls-43 {
        stroke: #3c3430;
        stroke-miterlimit: 9.8;
      }

      .cls-6 {
        fill: #8000a3;
      }

      .cls-7 {
        fill: #d41dd1;
      }

      .cls-8 {
        fill: #f862f1;
      }

      .cls-9 {
        fill: #9ce106;
      }

      .cls-44 {
        fill: #39322e;
      }

      .cls-10 {
        fill: #a34b4b;
      }

      .cls-11 {
        fill: #7c0000;
      }

      .cls-45 {
        fill: #fff;
      }

      .cls-12 {
        fill: #62af88;
      }

      .cls-13 {
        fill: #0070cc;
      }

      .cls-14 {
        fill: #0082ef;
      }

      .cls-15 {
        fill: #db7272;
      }

      .cls-16 {
        fill: #3e007f;
      }

      .cls-17 {
        fill: #21bb0e;
      }

      .cls-18 {
        fill: #f4880b;
      }

      .cls-20 {
        fill: #87d3ab;
      }

      .cls-21 {
        fill: #af0f14;
      }

      .cls-22 {
        fill: #f4d90b;
      }

      .cls-23 {
        fill: #bbffe2;
      }

      .cls-24 {
        fill: #c41a0a;
      }

      .cls-25 {
        fill: #f627eb;
      }

      .cls-26 {
        fill: #f46d0b;
      }

      .cls-27 {
        fill: #00528f;
      }

      .cls-28 {
        fill: #640000;
      }

      .cls-29 {
        fill: #e83709;
      }

      .cls-30 {
        fill: #f29e9e;
      }

      .cls-31 {
        fill: #ffdcdc;
      }

      .cls-32 {
        fill: #57007f;
      }

      .cls-33 {
        fill: #f3fb01;
      }

      .cls-34 {
        fill: #9feec8;
      }

      .cls-35 {
        fill: #00277a;
      }

      .cls-36 {
        fill: #002066;
      }

      .cls-37 {
        fill: #07a127;
      }

      .cls-38 {
        fill: #5bb4ff;
      }

      .cls-39 {
        fill: #cef003;
      }

      .cls-40 {
        fill: #85c8ff;
      }

      .cls-46 {
        clip-path: url(#clippath);
      }

      .cls-47 {
        fill: #3c3530;
      }
    </style>
    <clipPath id="clippath">
      <path class="cls-42" d="M38.5,720.9c-.4,4.2-10.5,2.4-18.3,2.4-7.6.4-18.3,1-18.3-4L2.2,47.7c0-1.4,1.1-2.6,2.6-2.7,5.2-.2,10.3-.3,15.4-.3s9.7-.8,15,0c1.9.3,3.3,1.9,3.3,3.8v672.4Z"/>
    </clipPath>
  </defs>
  <!-- Generator: Adobe Illustrator 28.7.9, SVG Export Plug-In . SVG Version: 1.2.0 Build 218)  -->
  <g>
    <g id="Livello_1">
      <g class="cls-46">
        <g>
          <rect class="cls-16" x="-12.7" y="691.9" width="71" height="47.4"/>
          <rect class="cls-31" x="-14.2" y="40.8" width="74.3" height="21.3"/>
          <rect class="cls-30" x="-12.7" y="62.1" width="73.5" height="17.1"/>
          <rect class="cls-15" x="-12.7" y="79.2" width="73.5" height="17.1"/>
          <rect class="cls-10" x="-12.7" y="96.2" width="73.5" height="17.1"/>
          <rect class="cls-28" x="-12.7" y="113.3" width="73.5" height="17.1"/>
          <rect class="cls-11" x="-12.7" y="130.2" width="73.5" height="17.1"/>
          <rect class="cls-21" x="-12.7" y="147.3" width="73.5" height="17.1"/>
          <rect class="cls-24" x="-12.7" y="164.3" width="73.5" height="17.1"/>
          <rect class="cls-29" x="-12.7" y="181.4" width="73.5" height="17.1"/>
          <rect class="cls-26" x="-12.7" y="198.4" width="73.5" height="17.1"/>
          <rect class="cls-18" x="-12.7" y="215.4" width="73.5" height="17.1"/>
          <rect class="cls-1" x="-12.7" y="232.4" width="73.5" height="17.1"/>
          <rect class="cls-22" x="-12.7" y="249.5" width="73.5" height="17.1"/>
          <rect class="cls-33" x="-12.7" y="266.5" width="73.5" height="17.1"/>
          <rect class="cls-39" x="-12.7" y="283.5" width="73.5" height="17.1"/>
          <rect class="cls-9" x="-12.7" y="300.5" width="73.5" height="17.1"/>
          <rect class="cls-2" x="-12.7" y="317.6" width="73.5" height="17.1"/>
          <rect class="cls-17" x="-12.7" y="334.6" width="73.5" height="17.1"/>
          <rect class="cls-37" x="-12.7" y="351.6" width="73.5" height="17.1"/>
          <rect class="cls-12" x="-12.7" y="368.6" width="73.5" height="17.1"/>
          <rect class="cls-20" x="-12.7" y="385.8" width="73.5" height="17.1"/>
          <rect class="cls-34" x="-12.7" y="402.7" width="73.5" height="17.1"/>
          <rect class="cls-23" x="-12.7" y="419.8" width="73.5" height="17.1"/>
          <rect class="cls-40" x="-12.7" y="436.7" width="73.5" height="17.1"/>
          <rect class="cls-38" x="-12.7" y="453.7" width="73.5" height="17.2"/>
          <rect class="cls-14" x="-12.7" y="470.8" width="73.5" height="17.1"/>
          <rect class="cls-13" x="-12.7" y="487.8" width="73.5" height="17.1"/>
          <rect class="cls-5" x="-12.7" y="504.8" width="73.5" height="17.1"/>
          <rect class="cls-27" x="-12.7" y="521.8" width="73.5" height="17.1"/>
          <rect class="cls-4" x="-12.7" y="538.8" width="73.5" height="17.1"/>
          <rect class="cls-35" x="-12.7" y="555.8" width="73.5" height="17.1"/>
          <rect class="cls-36" x="-12.7" y="572.8" width="73.5" height="17.1"/>
          <rect class="cls-8" x="-12.7" y="589.8" width="73.5" height="17.1"/>
          <rect class="cls-25" x="-12.7" y="606.9" width="73.5" height="17.1"/>
          <rect class="cls-7" x="-12.7" y="623.9" width="73.5" height="17.1"/>
          <rect class="cls-3" x="-12.7" y="641" width="73.5" height="17.1"/>
          <rect class="cls-6" x="-12.7" y="657.9" width="73.5" height="17.1"/>
          <rect class="cls-32" x="-12.7" y="675" width="73.5" height="17.1"/>
        </g>
      </g>
      <circle class="cls-44" cx="20.4" cy="22" r="19.8"/>
      <g id="Layer_1">
        <path class="cls-45" d="M20.4,5.8c-3.6,0-6.6,2.8-6.6,6.3v9.3c-2.5,2.1-3.8,5.2-3.4,8.4.6,4.4,4.3,7.8,8.8,8.3,5.8.5,11.1-3.8,11.1-9.4s-1.2-5.3-3.4-7.1v-9.2c0-3.7-2.9-6.6-6.5-6.6ZM28.5,28.5c0,4.7-4.4,8.3-9.2,7.9-3.6-.4-6.7-3.2-7.1-6.9-.3-2.8.8-5.4,3.1-7.1.1-.1.3-.4.3-.6v-9.6c0-2.6,2.2-4.7,4.8-4.7s4.8,2.1,4.8,4.7v9.6c0,.3.1.4.3.6,2,1.4,3,3.6,3,6.1Z"/>
        <path class="cls-45" d="M23.5,24.3v-9.9c0-1.7-1.4-3-3.1-3s-3.1,1.4-3.1,3v10c-1.8,1.3-2.6,3.4-2.1,5.4.9,3.5,5.6,5,8.7,2.8,1.3-1,2.1-2.6,2.1-4-.2-1.8-1.1-3.4-2.5-4.3ZM22.7,31.2c-2.1,1.6-5.3.5-5.8-1.8-.4-1.6.3-3.1,1.8-3.9.3-.1.4-.4.4-.6v-10.4c0-.6.6-1.4,1.4-1.4s1.4.5,1.4,1.4v10.4c0,.3.1.5.4.6,1.2.6,1.9,1.8,1.9,3.1-.2.9-.6,1.8-1.5,2.6Z"/>
      </g>
      <rect class="cls-42" x="7.3" y="676.6" width="15.4" height="12.9"/>
      <g class="cls-19">
        <path class="cls-45" d="M19.8,720.6c-.9.2-1.7.3-2.5.3s-1.3,0-1.8-.3c-.4-.2-.8-.5-1-1-.3-.4-.4-1-.5-1.5s-.1-1.3-.1-2.2c0-1.9.2-3.2.7-3.9.5-.8,1.4-1.1,2.7-1.1s1.6,0,2.6.4v1.5c-1,0-1.7-.2-2.2-.2s-1,0-1.2.2-.4.4-.5,1c-.1.4-.2,1.2-.2,2.4s.1,1.9.4,2.3c.3.4.7.7,1.4.7s1.5,0,2.3-.2v1.6h0Z"/>
        <path class="cls-45" d="M22.5,714.6c-.4-.4-.5-.9-.5-1.5s.2-1.2.5-1.5c.4-.4.8-.5,1.4-.5s1.1.2,1.4.5c.4.4.5.9.5,1.5s-.2,1.1-.5,1.5c-.4.4-.8.5-1.4.5s-1,0-1.4-.5ZM23.2,712.3c-.2.2-.3.4-.3.8s.1.5.3.8c.2.2.4.3.7.3s.5,0,.7-.3.3-.4.3-.8-.1-.5-.3-.8c-.2-.3-.4-.3-.7-.3s-.5,0-.7.3Z"/>
      </g>
      <g>
        <path class="cls-45" d="M10.8,675.7v-1.6h3.6v1.6s-3.6,0-3.6,0Z"/>
        <path class="cls-45" d="M20.9,678.5h-5.1v-1.6l1.7-1.9c.6-.7,1-1.2,1.3-1.5.2-.3.4-.8.4-1.1s-.1-.7-.3-.9-.5-.2-.8-.2h-2.1v-1.4c.7-.2,1.5-.4,2.3-.4,1.7,0,2.5.9,2.5,2.5s-.1,1.2-.4,1.6-.7,1.1-1.4,1.7l-1.4,1.3h3.3v1.8h0Z"/>
        <path class="cls-45" d="M23,670.3c.5-.4,1.2-.7,2.1-.7s1.6.2,2.1.7c.5.4.8,1,.8,1.7s-.1.9-.2,1.1c-.1.2-.3.5-.7.9.4.3.6.7.8.9.2.3.2.7.2,1.2,0,.9-.3,1.5-.8,1.9-.6.4-1.3.7-2.2.7-2,0-3-.8-3-2.4s.1-1,.2-1.3c.2-.3.4-.7.8-1-.3-.3-.6-.5-.7-.9s-.2-.7-.2-1.1c0-.8.3-1.3.8-1.7h0ZM23.8,675.8c0,.8.4,1.2,1.2,1.2s1.2-.4,1.2-1.2-.2-.8-.7-1h-1.1c-.3.2-.6.5-.6,1ZM25.1,671.2c-.4,0-.6,0-.8.2-.2.2-.3.4-.3.8s.2.7.6,1h1.1c.4-.3.6-.7.6-1-.1-.6-.5-1-1.2-1Z"/>
      </g>
      <line class="cls-43" x1="2.5" y1="657.6" x2="38.9" y2="657.6"/>
      <g>
        <path class="cls-45" d="M11,641v-1.6h3.6v1.6h-3.6Z"/>
        <path class="cls-45" d="M21.2,643.7h-5.1v-1.5l1.7-1.9c.6-.7,1-1.2,1.3-1.5.2-.3.4-.8.4-1.1s-.1-.7-.3-.9-.5-.2-.8-.2h-2.1v-1.4c.7-.2,1.5-.4,2.3-.4,1.7,0,2.5.9,2.5,2.5s-.1,1.2-.4,1.6c-.3.4-.7,1.1-1.4,1.7l-1.4,1.3h3.3v1.7h0Z"/>
        <path class="cls-45" d="M25.8,643.7v-1.4h-3.4v-1.4l2-5.9h1.8l-2.1,5.7h1.7v-2.4h1.7v2.4h.7v1.5h-.8v1.4h-1.6Z"/>
      </g>
      <line class="cls-43" x1="2.4" y1="623.4" x2="38" y2="623.4"/>
      <line class="cls-43" x1="2.1" y1="589.3" x2="39.6" y2="589.3"/>
      <line class="cls-43" x1="2.3" y1="555.3" x2="38.7" y2="555.3"/>
      <line class="cls-43" x1="2.3" y1="521.3" x2="38.7" y2="521.3"/>
      <line class="cls-43" x1="2.1" y1="487.3" x2="38.7" y2="487.3"/>
      <line class="cls-43" x1="2.1" y1="453.4" x2="39" y2="453.4"/>
      <line class="cls-43" x1="2.1" y1="419.2" x2="39.6" y2="419.2"/>
      <line class="cls-43" x1="1.4" y1="402.2" x2="14.3" y2="402.2"/>
      <line class="cls-43" x1="2.1" y1="385.2" x2="38.7" y2="385.2"/>
      <line class="cls-43" x1="2.1" y1="351.1" x2="38.7" y2="351.1"/>
      <line class="cls-43" x1="2.1" y1="317.1" x2="39.6" y2="317.1"/>
      <line class="cls-43" x1="1.4" y1="282.9" x2="39" y2="282.9"/>
      <line class="cls-43" x1="2.1" y1="248.9" x2="39" y2="248.9"/>
      <line class="cls-43" x1="2.1" y1="214.8" x2="39" y2="214.8"/>
      <line class="cls-43" x1="2.1" y1="180.8" x2="38.2" y2="180.8"/>
      <line class="cls-43" x1="2.1" y1="146.7" x2="39" y2="146.7"/>
      <line class="cls-43" x1="1.3" y1="112.7" x2="39.8" y2="112.7"/>
      <line class="cls-43" x1="2.4" y1="78.6" x2="39.3" y2="78.6"/>
      <g>
        <path class="cls-45" d="M11.1,606.3v-1.6h3.6v1.6h-3.6Z"/>
        <path class="cls-45" d="M21.2,608.9h-5.1v-1.5l1.7-1.9c.6-.7,1-1.2,1.3-1.5.2-.3.4-.8.4-1.1s-.1-.7-.3-.9-.5-.2-.8-.2h-2.1v-1.4c.7-.2,1.5-.4,2.3-.4,1.7,0,2.5.9,2.5,2.5s-.1,1.2-.4,1.6-.7,1.1-1.4,1.7l-1.4,1.3h3.3v1.7h0Z"/>
        <path class="cls-45" d="M23.1,601.3c.5-.8,1.3-1.1,2.3-1.1s1.8.3,2.3,1.1.8,1.9.8,3.5-.3,2.7-.8,3.4-1.3,1-2.3,1-1.8-.3-2.3-1-.8-1.9-.8-3.4.2-2.8.8-3.5ZM26.7,604.7c0-1.1-.1-1.9-.3-2.3-.2-.4-.6-.7-1-.7s-.8.2-1.1.7c-.2.4-.3,1.2-.3,2.3s.1,1.9.3,2.3c.2.4.6.7,1.1.7s.8-.2,1-.7.3-1.2.3-2.3Z"/>
      </g>
      <g>
        <path class="cls-45" d="M11.4,572.8v-1.6h3.6v1.6h-3.6Z"/>
        <path class="cls-45" d="M20.7,566.9v8.6h-1.7v-6.6l-1.7,1.2-.8-1.3,2.6-1.9h1.6Z"/>
        <path class="cls-45" d="M28.3,568.4c-.8,0-1.5-.2-2.1-.2-1.1,0-1.7.7-1.7,2h.3c.5-.3.9-.3,1.3-.3.9,0,1.6.2,2,.7.5.4.7,1.2.7,2.1s-.3,1.6-.8,2.2c-.5.4-1.3.8-2.2.8s-1.7-.4-2.2-1.2-.7-2-.7-3.4.3-2.6.9-3.3c.6-.8,1.4-1.1,2.4-1.1s1.3,0,2,.3h.4s-.3,1.4-.3,1.4ZM25.9,571.5c-.4,0-.8,0-1.2.2h-.2c0,1.6.4,2.4,1.3,2.4s.7,0,.9-.3.3-.5.3-1c0-.9-.4-1.3-1.1-1.3h0Z"/>
      </g>
      <g>
        <path class="cls-45" d="M11.1,538.9v-1.6h3.6v1.6h-3.6Z"/>
        <path class="cls-45" d="M20.3,532.9v8.6h-1.7v-6.6l-1.7,1.2-.8-1.3,2.6-1.9h1.6Z"/>
        <path class="cls-45" d="M27.9,541.5h-5.1v-1.5l1.7-1.9c.6-.7,1-1.2,1.3-1.5.2-.3.4-.8.4-1.1s-.1-.7-.3-.9-.5-.2-.8-.2h-2.1v-1.4c.7-.2,1.5-.4,2.3-.4,1.7,0,2.5.9,2.5,2.5s-.1,1.2-.4,1.6c-.3.4-.7,1.1-1.4,1.7l-1.4,1.3h3.3v1.7h0Z"/>
      </g>
      <g>
        <path class="cls-45" d="M15.1,504.8v-1.6h3.6v1.6h-3.6Z"/>
        <path class="cls-45" d="M20.6,499.2c.5-.4,1.2-.7,2.1-.7s1.6.2,2.1.7c.5.4.8,1,.8,1.7s-.1.9-.2,1.1-.3.5-.7.9c.4.3.6.7.8.9.2.3.2.7.2,1.2,0,.9-.3,1.5-.8,1.9s-1.3.7-2.2.7c-2,0-3-.8-3-2.4s.1-1,.2-1.3.4-.7.8-1c-.3-.3-.6-.5-.7-.9s-.2-.7-.2-1.1c0-.7.3-1.3.8-1.7h0ZM21.5,504.8c0,.8.4,1.2,1.2,1.2s1.2-.4,1.2-1.2-.2-.8-.7-1h-1c-.5.2-.7.5-.7,1ZM22.7,500.2c-.4,0-.6.1-.8.2-.2.1-.3.4-.3.8s.2.7.6,1h1c.4-.3.6-.7.6-1,0-.6-.3-1-1.1-1Z"/>
      </g>
      <g>
        <path class="cls-45" d="M15.1,471.1v-1.6h3.6v1.6h-3.6Z"/>
        <path class="cls-45" d="M23.2,473.9v-1.4h-3.4v-1.4l2-5.9h1.8l-2.1,5.7h1.7v-2.4h1.7v2.4h.8v1.5h-.8v1.4h-1.7Z"/>
      </g>
      <path class="cls-44" d="M18,432.2c.5-.8,1.3-1.1,2.3-1.1s1.8.3,2.3,1.1c.5.8.8,1.9.8,3.5s-.3,2.7-.8,3.4-1.3,1-2.3,1-1.8-.3-2.3-1-.8-1.9-.8-3.4.3-2.7.8-3.5ZM21.6,435.6c0-1.1-.1-1.9-.3-2.3-.2-.4-.6-.7-1-.7s-.8.2-1.1.7c-.2.4-.3,1.2-.3,2.3s.1,1.9.3,2.3c.2.4.6.7,1.1.7s.8-.2,1-.7c.2-.4.3-1.2.3-2.3Z"/>
      <path class="cls-47" d="M20.6,405.9v-1.4h-3.4v-1.4l2-5.9h1.8l-2.1,5.7h1.7v-2.4h1.6v2.4h.8v1.5h-.8v1.4h-1.6Z"/>
      <path class="cls-47" d="M18.1,363.6c.5-.4,1.2-.7,2.1-.7s1.6.2,2.1.7c.5.4.8,1,.8,1.7s-.1.9-.2,1.1-.3.5-.7.9c.4.3.6.7.8.9.2.3.2.7.2,1.2,0,.9-.3,1.5-.8,1.9-.6.4-1.3.7-2.2.7-2,0-3-.8-3-2.4s.1-1,.2-1.3c.2-.3.4-.7.8-1-.3-.3-.6-.5-.7-.9s-.2-.7-.2-1.1c0-.7.2-1.3.8-1.7h0ZM18.9,369.1c0,.8.4,1.2,1.2,1.2s1.2-.4,1.2-1.2-.2-.8-.7-1h-1.1c-.3.3-.6.6-.6,1ZM20.2,364.6c-.4,0-.6.1-.8.2-.2.2-.3.4-.3.8s.2.7.6,1h1.1c.4-.3.6-.7.6-1-.1-.7-.5-1-1.2-1Z"/>
      <g>
        <path class="cls-47" d="M18.5,328.3v8.6h-1.7v-6.6l-1.7,1.2-.8-1.3,2.6-1.9h1.6Z"/>
        <path class="cls-47" d="M26.1,336.9h-5.1v-1.5l1.7-1.9c.6-.7,1-1.2,1.3-1.5.2-.3.4-.8.4-1.1s-.1-.7-.3-.9c-.2-.2-.5-.2-.8-.2-.5,0-1.1,0-1.8.1h-.3v-1.4c.7-.2,1.5-.4,2.3-.4,1.7,0,2.5.9,2.5,2.5s-.1,1.2-.4,1.6-.7,1.1-1.4,1.7l-1.4,1.3h3.3v1.7h0Z"/>
      </g>
      <g>
        <path class="cls-47" d="M18.3,293.7v8.6h-1.7v-6.6l-1.7,1.2-.8-1.3,2.6-1.9h1.6Z"/>
        <path class="cls-47" d="M26,295.4c-.8-.1-1.5-.2-2.1-.2-1.1,0-1.7.7-1.7,2h.3c.5-.3.9-.3,1.3-.3.9,0,1.6.2,2,.7.4.4.7,1.2.7,2.1s-.3,1.6-.8,2.2c-.5.4-1.3.8-2.2.8s-1.7-.4-2.2-1.2c-.5-.8-.7-2-.7-3.4s.3-2.6.9-3.3c.6-.8,1.4-1.1,2.4-1.1s1.3.1,2,.3h.4c0,.1-.3,1.4-.3,1.4ZM23.5,298.4c-.4,0-.8.1-1.2.2h-.2c0,1.6.4,2.4,1.3,2.4s.7-.1.9-.3c.2-.2.3-.5.3-1,.1-.8-.3-1.3-1.1-1.3h0Z"/>
      </g>
      <g>
        <path class="cls-47" d="M19.4,268.4h-5.1v-1.6l1.7-1.9c.6-.7,1-1.2,1.3-1.5s.4-.8.4-1.1-.1-.7-.3-.9c-.2-.2-.5-.2-.8-.2-.5,0-1.1,0-1.8.1h-.3v-1.4c.7-.2,1.5-.4,2.3-.4,1.7,0,2.5.9,2.5,2.5s-.1,1.2-.4,1.6-.7,1.1-1.4,1.7l-1.4,1.3h3.3v1.8Z"/>
        <path class="cls-47" d="M21.3,260.6c.5-.8,1.3-1.1,2.3-1.1s1.8.3,2.3,1.1.8,1.9.8,3.5-.3,2.7-.8,3.4-1.3,1-2.3,1-1.8-.3-2.3-1-.8-1.9-.8-3.4.3-2.8.8-3.5ZM24.9,264c0-1.1-.1-1.9-.3-2.3s-.6-.7-1-.7-.8.2-1.1.7c-.2.4-.3,1.2-.3,2.3s.1,1.9.3,2.3.6.7,1.1.7.8-.2,1-.7c.2-.4.3-1.2.3-2.3Z"/>
      </g>
      <g>
        <path class="cls-45" d="M19.5,234.3h-5.1v-1.5l1.7-1.9c.6-.7,1-1.2,1.3-1.5s.4-.8.4-1.1-.1-.7-.3-.9c-.2-.2-.5-.2-.8-.2-.5,0-1.1,0-1.8.1h-.3v-1.4c.7-.2,1.5-.4,2.3-.4,1.7,0,2.5.9,2.5,2.5s-.1,1.2-.4,1.6-.7,1.1-1.4,1.7l-1.4,1.3h3.3v1.7h0Z"/>
        <path class="cls-45" d="M24.2,234.3v-1.4h-3.4v-1.4l2-5.9h1.8l-2.1,5.7h1.7v-2.4h1.7v2.4h.8v1.5h-.8v1.4h-1.7Z"/>
      </g>
      <g>
        <path class="cls-45" d="M19.5,201.4h-5.1v-1.5l1.7-1.9c.6-.7,1-1.2,1.3-1.5s.4-.8.4-1.1-.1-.7-.3-.9c-.2-.2-.5-.2-.8-.2-.5,0-1.1,0-1.8.1h-.3v-1.4c.7-.2,1.5-.4,2.3-.4,1.7,0,2.5.9,2.5,2.5s-.1,1.2-.4,1.6-.7,1.1-1.4,1.7l-1.4,1.3h3.3v1.7h0Z"/>
        <path class="cls-45" d="M21.5,193.2c.5-.4,1.2-.7,2.1-.7s1.6.2,2.1.7.8,1,.8,1.7-.1.9-.2,1.1c-.1.2-.3.5-.7.9.4.3.6.7.8.9.2.3.2.7.2,1.2,0,.9-.3,1.5-.8,1.9-.5.3-1.3.7-2.2.7-2,0-3-.8-3-2.4s.1-1,.2-1.3.4-.7.8-1c-.3-.3-.6-.5-.7-.9s-.2-.7-.2-1.1c0-.7.3-1.3.8-1.7h0ZM22.4,198.8c0,.8.4,1.2,1.2,1.2s1.2-.4,1.2-1.2-.2-.8-.7-1h-1.1c-.4.2-.6.5-.6,1ZM23.6,194.2c-.4,0-.6.1-.8.2-.2.1-.3.4-.3.8s.2.7.6,1h1.1c.4-.3.6-.7.6-1-.1-.7-.4-1-1.2-1Z"/>
      </g>
      <g>
        <path class="cls-45" d="M14.4,159c.7-.3,1.6-.4,2.5-.4s1.6.2,2,.5.6,1,.6,1.9-.3,1.5-.9,2c.4.2.7.4.8.7.1.2.2.7.2,1.2,0,1-.2,1.6-.6,2.1s-1.1.7-2.1.7-1.4-.1-2.2-.3h-.4c0-.1.1-1.5.1-1.5.9.2,1.6.2,2.3.2s1.2-.4,1.2-1.2-.1-.5-.3-.8c-.2-.2-.5-.3-.8-.3h-1.6v-1.5h1.6c.3,0,.5-.1.7-.3s.3-.5.3-.8c0-.7-.4-1-1.2-1s-1.1.1-1.8.2h-.3v-1.4h-.1Z"/>
        <path class="cls-45" d="M26.3,167.3h-5.1v-1.5l1.7-1.9c.6-.7,1-1.2,1.3-1.5.2-.3.4-.8.4-1.1s-.1-.7-.3-.9c-.2-.2-.5-.2-.8-.2-.5,0-1.1,0-1.8.1h-.3v-1.4c.7-.2,1.5-.4,2.3-.4,1.7,0,2.5.9,2.5,2.5s-.1,1.2-.4,1.6-.7,1.1-1.4,1.7l-1.4,1.3h3.3v1.7h0Z"/>
      </g>
      <g>
        <path class="cls-45" d="M14.3,124.2c.7-.3,1.6-.4,2.5-.4s1.6.2,2,.5.6,1,.6,1.9-.3,1.5-.9,2c.4.2.7.4.8.7.1.2.2.7.2,1.2,0,1-.2,1.6-.6,2.1s-1.1.7-2.1.7-1.4-.1-2.2-.3h-.4c0-.1.1-1.7.1-1.7.9.2,1.6.2,2.3.2s1.2-.4,1.2-1.2-.1-.5-.3-.8c-.2-.2-.5-.3-.8-.3h-1.6v-1.5h1.6c.3,0,.5,0,.7-.3s.3-.5.3-.8c0-.7-.4-1-1.2-1s-1.1,0-1.8.2h-.3v-1.2h-.1Z"/>
        <path class="cls-45" d="M26.2,125.5c-.8,0-1.5-.2-2.1-.2-1.1,0-1.7.7-1.7,2h.3c.5-.3.9-.3,1.3-.3.9,0,1.6.2,2,.7.5.4.7,1.2.7,2.1s-.3,1.6-.8,2.2c-.5.4-1.3.8-2.2.8s-1.7-.4-2.2-1.2-.7-2-.7-3.4.3-2.6.9-3.3c.6-.8,1.4-1.1,2.4-1.1s1.3,0,2,.3h.4l-.3,1.4h0ZM23.8,128.6c-.4,0-.8.1-1.2.2h-.2c0,1.6.4,2.4,1.3,2.4s.7-.1.9-.3c.2-.2.3-.5.3-1,0-.9-.4-1.3-1.1-1.3h0Z"/>
      </g>
      <g>
        <path class="cls-44" d="M17.6,99.6v-1.4h-3.4v-1.4l2-5.9h1.8l-2.1,5.7h1.7v-2.4h1.6v2.4h.8v1.5h-.8v1.4h-1.6Z"/>
        <path class="cls-44" d="M21.5,91.9c.5-.8,1.3-1.1,2.3-1.1s1.8.3,2.3,1.1.8,1.9.8,3.5-.3,2.7-.8,3.4c-.5.7-1.3,1-2.3,1s-1.8-.3-2.3-1-.8-1.9-.8-3.4.3-2.8.8-3.5ZM25.2,95.3c0-1.1-.1-1.9-.3-2.3s-.6-.7-1-.7-.8.2-1.1.7c-.2.4-.3,1.2-.3,2.3s.1,1.9.3,2.3.6.7,1.1.7.8-.2,1-.7.3-1.3.3-2.3Z"/>
      </g>
      <g>
        <path class="cls-44" d="M17.5,65.1v-1.4h-3.3v-1.3l2-5.9h1.8l-2.1,5.7h1.7v-2.4h1.6v2.4h.8v1.5h-.8v1.4h-1.7Z"/>
        <path class="cls-44" d="M24.2,65.1v-1.4h-3.4v-1.3l2-5.9h1.8l-2.1,5.7h1.7v-2.4h1.7v2.4h.8v1.5h-.8v1.4h-1.7Z"/>
      </g>
      <line class="cls-43" x1="25.5" y1="402.2" x2="38.3" y2="402.2"/>
      <line class="cls-43" x1="2.1" y1="436.1" x2="13.6" y2="436.1"/>
      <line class="cls-43" x1="38.7" y1="436.1" x2="25.4" y2="436.1"/>
      <line class="cls-43" x1="2.2" y1="470.2" x2="14.1" y2="470.2"/>
      <line class="cls-43" x1="38.5" y1="470.2" x2="27.1" y2="470.2"/>
      <line class="cls-43" x1="2.3" y1="504.2" x2="14.1" y2="504.2"/>
      <line class="cls-43" x1="38.5" y1="504.2" x2="27.1" y2="504.2"/>
      <line class="cls-43" x1="38.3" y1="538.3" x2="29.4" y2="538.3"/>
      <line class="cls-43" x1="2.5" y1="538.4" x2="10.2" y2="538.3"/>
      <line class="cls-43" x1="2.7" y1="606.3" x2="8.5" y2="606.4"/>
      <line class="cls-43" x1="38.1" y1="606.7" x2="29.4" y2="606.7"/>
      <line class="cls-43" x1="2.3" y1="640.4" x2="8.7" y2="640.4"/>
      <line class="cls-43" x1="38.7" y1="640.4" x2="30.2" y2="640.4"/>
      <line class="cls-43" x1="2.1" y1="674.2" x2="10.3" y2="674.2"/>
      <line class="cls-43" x1="38.3" y1="674.2" x2="30.2" y2="674.2"/>
      <line class="cls-43" x1="2.3" y1="572.3" x2="10.4" y2="572.3"/>
      <line class="cls-43" x1="38.7" y1="572.3" x2="29.8" y2="572.3"/>
      <line class="cls-43" x1="2.1" y1="367.9" x2="13.7" y2="367.9"/>
      <line class="cls-43" x1="25.4" y1="367.9" x2="38.3" y2="367.9"/>
      <line class="cls-43" x1="2.8" y1="334.1" x2="14.3" y2="334.1"/>
      <line class="cls-43" x1="26.5" y1="334.1" x2="38.3" y2="334.1"/>
      <line class="cls-43" x1="1.7" y1="300" x2="14.4" y2="300"/>
      <line class="cls-43" x1="38.4" y1="300" x2="27.2" y2="300"/>
      <line class="cls-43" x1="1.7" y1="266" x2="12.5" y2="266"/>
      <line class="cls-43" x1="38.7" y1="266" x2="27.8" y2="266"/>
      <line class="cls-43" x1="2.5" y1="231.9" x2="13.5" y2="231.9"/>
      <line class="cls-43" x1="38.9" y1="231.9" x2="27.8" y2="231.9"/>
      <line class="cls-43" x1="2.3" y1="197.7" x2="14.4" y2="197.7"/>
      <line class="cls-43" x1="38.2" y1="197.9" x2="27.2" y2="197.9"/>
      <line class="cls-43" x1="14.2" y1="163.7" x2="1.7" y2="163.7"/>
      <line class="cls-43" x1="38.2" y1="163.9" x2="27.2" y2="163.9"/>
      <line class="cls-43" x1="2.3" y1="129.8" x2="14.3" y2="129.8"/>
      <line class="cls-43" x1="39" y1="129.8" x2="27.8" y2="129.8"/>
      <line class="cls-43" x1="2.5" y1="95.7" x2="13.5" y2="95.9"/>
      <line class="cls-43" x1="39" y1="95.8" x2="27.6" y2="95.8"/>
      <line class="cls-43" x1="2.6" y1="61.6" x2="13.3" y2="61.6"/>
      <line class="cls-43" x1="27.3" y1="61.6" x2="39" y2="61.6"/>
      <line class="cls-43" x1="3.1" y1="691.9" x2="39.6" y2="691.9"/>
      <path class="cls-41" d="M32.6,723.6H7.8c-3.4,0-6.3-3-6.3-6.7V51.1c0-3.7,2.8-6.7,6.3-6.7h24.8c3.4,0,6.3,3,6.3,6.7v665.8c0,3.7-2.8,6.7-6.3,6.7Z"/>
    </g>
  </g>
</svg>
