<?xml version="1.0" encoding="utf-8"?>
<!-- Generator: Adobe Illustrator 16.0.0, SVG Export Plug-In . SVG Version: 6.00 Build 0)  -->
<!DOCTYPE svg PUBLIC "-//W3C//DTD SVG 1.1//EN" "http://www.w3.org/Graphics/SVG/1.1/DTD/svg11.dtd">
<svg version="1.1" id="Livello_1" xmlns="http://www.w3.org/2000/svg" xmlns:xlink="http://www.w3.org/1999/xlink" x="0px" y="0px"
	 width="32.746px" height="590.697px" viewBox="0 0 32.746 590.697" enable-background="new 0 0 32.746 590.697"
	 xml:space="preserve">
<g display="none">
	<g display="inline">
		<g>
			<g>
				<g>
					<defs>
						<path id="SVGID_3_" d="M27.262,580.715c-0.316,3.428-5.673,7.51-10.308,7.51l0,0c-4.594,0.367-10.877-3.314-10.877-7.51
							V42.467c1.021-4.939,6.492-7.798,10.182-7.792l0,0c4.298-0.006,9.896,2.93,11.003,7.984V580.715L27.262,580.715z"/>
					</defs>
					<clipPath id="SVGID_4_">
						<use xlink:href="#SVGID_3_"  overflow="visible"/>
					</clipPath>
					<rect x="0.88" y="495.265" clip-path="url(#SVGID_4_)" fill="#FFFAFA" width="31.578" height="99.045"/>
				</g>
			</g>
		</g>
		<g>
			<g>
				<g>
					<defs>
						<path id="SVGID_5_" d="M27.262,580.715c-0.316,3.428-5.673,7.51-10.308,7.51l0,0c-4.594,0.367-10.877-3.314-10.877-7.51
							V42.467c1.021-4.939,6.492-7.798,10.182-7.792l0,0c4.298-0.006,9.896,2.93,11.003,7.984V580.715L27.262,580.715z"/>
					</defs>
					<clipPath id="SVGID_6_">
						<use xlink:href="#SVGID_5_"  overflow="visible"/>
					</clipPath>
					<rect x="1.196" y="315.187" clip-path="url(#SVGID_6_)" fill="#FBD5D6" width="31.578" height="90.041"/>
				</g>
			</g>
		</g>
		<g>
			<g>
				<g>
					<defs>
						<path id="SVGID_7_" d="M27.262,580.715c-0.316,3.428-5.673,7.51-10.308,7.51l0,0c-4.594,0.367-10.877-3.314-10.877-7.51
							V42.467c1.021-4.939,6.492-7.798,10.182-7.792l0,0c4.298-0.006,9.896,2.93,11.003,7.984V580.715L27.262,580.715z"/>
					</defs>
					<clipPath id="SVGID_8_">
						<use xlink:href="#SVGID_7_"  overflow="visible"/>
					</clipPath>
					<rect x="1.196" y="225.147" clip-path="url(#SVGID_8_)" fill="#F9C1C2" width="31.578" height="90.038"/>
				</g>
			</g>
		</g>
		<g>
			<g>
				<g>
					<defs>
						<path id="SVGID_9_" d="M27.262,580.715c-0.316,3.428-5.673,7.51-10.308,7.51l0,0c-4.594,0.367-10.877-3.314-10.877-7.51
							V42.467c1.021-4.939,6.492-7.798,10.182-7.792l0,0c4.298-0.006,9.896,2.93,11.003,7.984V580.715L27.262,580.715z"/>
					</defs>
					<clipPath id="SVGID_10_">
						<use xlink:href="#SVGID_9_"  overflow="visible"/>
					</clipPath>
					<rect x="0.88" y="405.226" clip-path="url(#SVGID_10_)" fill="#FDEBEB" width="31.578" height="90.041"/>
				</g>
			</g>
		</g>
		<g>
			<g>
				<g>
					<defs>
						<path id="SVGID_11_" d="M27.262,580.715c-0.316,3.428-5.673,7.51-10.308,7.51l0,0c-4.594,0.367-10.877-3.314-10.877-7.51
							V42.467c1.021-4.939,6.492-7.798,10.182-7.792l0,0c4.298-0.006,9.896,2.93,11.003,7.984V580.715L27.262,580.715z"/>
					</defs>
					<clipPath id="SVGID_12_">
						<use xlink:href="#SVGID_11_"  overflow="visible"/>
					</clipPath>
					<rect x="1.196" y="135.094" clip-path="url(#SVGID_12_)" fill="#F6ABAD" width="31.578" height="90.041"/>
				</g>
			</g>
		</g>
		<g>
			<g>
				<g>
					<defs>
						<path id="SVGID_13_" d="M27.262,580.715c-0.316,3.428-5.673,7.51-10.308,7.51l0,0c-4.594,0.367-10.877-3.314-10.877-7.51
							V42.467c1.021-4.939,6.492-7.798,10.182-7.792l0,0c4.298-0.006,9.896,2.93,11.003,7.984V580.715L27.262,580.715z"/>
					</defs>
					<clipPath id="SVGID_14_">
						<use xlink:href="#SVGID_13_"  overflow="visible"/>
					</clipPath>
					<rect x="0.88" y="36.052" clip-path="url(#SVGID_14_)" fill="#F49799" width="31.577" height="99.043"/>
				</g>
			</g>
		</g>
	</g>
</g>
<g display="none">
	<g display="inline">
		<g>
			<g>
				<defs>
					<path id="SVGID_15_" d="M27.262,580.715c0,3.713-5.957,8.073-10.593,8.073h-0.652c-4.295,0-9.939-3.881-9.939-8.073V42.467
						c1.023-4.939,6.494-7.797,10.183-7.792l0,0c4.295-0.005,9.896,2.93,11,7.984V580.715L27.262,580.715z"/>
				</defs>
				<clipPath id="SVGID_16_">
					<use xlink:href="#SVGID_15_"  overflow="visible"/>
				</clipPath>
				<rect x="-4.972" y="34.675" clip-path="url(#SVGID_16_)" fill="#C8E8F0" width="43.281" height="27.238"/>
			</g>
		</g>
	</g>
	<g display="inline">
		<g>
			<g>
				<defs>
					<path id="SVGID_17_" d="M27.262,580.715c0,3.713-5.957,8.073-10.593,8.073h-0.652c-4.295,0-9.939-3.881-9.939-8.073V42.467
						c1.023-4.939,6.494-7.797,10.183-7.792l0,0c4.295-0.005,9.896,2.93,11,7.984V580.715L27.262,580.715z"/>
				</defs>
				<clipPath id="SVGID_18_">
					<use xlink:href="#SVGID_17_"  overflow="visible"/>
				</clipPath>
				<rect x="-4.972" y="61.914" clip-path="url(#SVGID_18_)" fill="#D0EBF7" width="43.281" height="27.238"/>
			</g>
		</g>
	</g>
	<g display="inline">
		<g>
			<g>
				<defs>
					<path id="SVGID_19_" d="M27.262,580.715c0,3.713-5.957,8.073-10.593,8.073h-0.652c-4.295,0-9.939-3.881-9.939-8.073V42.467
						c1.023-4.939,6.494-7.797,10.183-7.792l0,0c4.295-0.005,9.896,2.93,11,7.984V580.715L27.262,580.715z"/>
				</defs>
				<clipPath id="SVGID_20_">
					<use xlink:href="#SVGID_19_"  overflow="visible"/>
				</clipPath>
				<rect x="-4.972" y="88.639" clip-path="url(#SVGID_20_)" fill="#4898DA" width="43.281" height="27.237"/>
			</g>
		</g>
	</g>
	<g display="inline">
		<g>
			<g>
				<defs>
					<path id="SVGID_21_" d="M27.262,580.715c0,3.713-5.957,8.073-10.593,8.073h-0.652c-4.295,0-9.939-3.881-9.939-8.073V42.467
						c1.023-4.939,6.494-7.797,10.183-7.792l0,0c4.295-0.005,9.896,2.93,11,7.984V580.715L27.262,580.715z"/>
				</defs>
				<clipPath id="SVGID_22_">
					<use xlink:href="#SVGID_21_"  overflow="visible"/>
				</clipPath>
				<rect x="-4.972" y="115.877" clip-path="url(#SVGID_22_)" fill="#A3A5D7" width="43.281" height="27.238"/>
			</g>
		</g>
	</g>
	<g display="inline">
		<g>
			<g>
				<defs>
					<path id="SVGID_23_" d="M27.262,580.715c0,3.713-5.957,8.073-10.593,8.073h-0.652c-4.295,0-9.939-3.881-9.939-8.073V42.467
						c1.023-4.939,6.494-7.797,10.183-7.792l0,0c4.295-0.005,9.896,2.93,11,7.984V580.715L27.262,580.715z"/>
				</defs>
				<clipPath id="SVGID_24_">
					<use xlink:href="#SVGID_23_"  overflow="visible"/>
				</clipPath>
				<rect x="-4.972" y="143.116" clip-path="url(#SVGID_24_)" fill="#B988C1" width="43.281" height="27.237"/>
			</g>
		</g>
	</g>
	<g display="inline">
		<g>
			<g>
				<defs>
					<path id="SVGID_25_" d="M27.262,580.715c0,3.713-5.957,8.073-10.593,8.073h-0.652c-4.295,0-9.939-3.881-9.939-8.073V42.467
						c1.023-4.939,6.494-7.797,10.183-7.792l0,0c4.295-0.005,9.896,2.93,11,7.984V580.715L27.262,580.715z"/>
				</defs>
				<clipPath id="SVGID_26_">
					<use xlink:href="#SVGID_25_"  overflow="visible"/>
				</clipPath>
				<rect x="-4.972" y="170.353" clip-path="url(#SVGID_26_)" fill="#D7A2CD" width="43.281" height="27.237"/>
			</g>
		</g>
	</g>
	<g display="inline">
		<g>
			<g>
				<defs>
					<path id="SVGID_27_" d="M27.262,580.715c0,3.713-5.957,8.073-10.593,8.073h-0.652c-4.295,0-9.939-3.881-9.939-8.073V42.467
						c1.023-4.939,6.494-7.797,10.183-7.792l0,0c4.295-0.005,9.896,2.93,11,7.984V580.715L27.262,580.715z"/>
				</defs>
				<clipPath id="SVGID_28_">
					<use xlink:href="#SVGID_27_"  overflow="visible"/>
				</clipPath>
				<rect x="-4.972" y="197.253" clip-path="url(#SVGID_28_)" fill="#E8BEDB" width="43.281" height="27.238"/>
			</g>
		</g>
	</g>
	<g display="inline">
		<g>
			<g>
				<defs>
					<path id="SVGID_29_" d="M27.262,580.715c0,3.713-5.957,8.073-10.593,8.073h-0.652c-4.295,0-9.939-3.881-9.939-8.073V42.467
						c1.023-4.939,6.494-7.797,10.183-7.792l0,0c4.295-0.005,9.896,2.93,11,7.984V580.715L27.262,580.715z"/>
				</defs>
				<clipPath id="SVGID_30_">
					<use xlink:href="#SVGID_29_"  overflow="visible"/>
				</clipPath>
				<rect x="-4.972" y="224.492" clip-path="url(#SVGID_30_)" fill="#E67D9B" width="43.281" height="27.238"/>
			</g>
		</g>
	</g>
	<g display="inline">
		<g>
			<g>
				<defs>
					<path id="SVGID_31_" d="M27.262,580.715c0,3.713-5.957,8.073-10.593,8.073h-0.652c-4.295,0-9.939-3.881-9.939-8.073V42.467
						c1.023-4.939,6.494-7.797,10.183-7.792l0,0c4.295-0.005,9.896,2.93,11,7.984V580.715L27.262,580.715z"/>
				</defs>
				<clipPath id="SVGID_32_">
					<use xlink:href="#SVGID_31_"  overflow="visible"/>
				</clipPath>
				<rect x="-4.972" y="251.73" clip-path="url(#SVGID_32_)" fill="#DB4C4D" width="43.281" height="27.235"/>
			</g>
		</g>
	</g>
	<g display="inline">
		<g>
			<g>
				<defs>
					<path id="SVGID_33_" d="M27.262,580.715c0,3.713-5.957,8.073-10.593,8.073h-0.652c-4.295,0-9.939-3.881-9.939-8.073V42.467
						c1.023-4.939,6.494-7.797,10.183-7.792l0,0c4.295-0.005,9.896,2.93,11,7.984V580.715L27.262,580.715z"/>
				</defs>
				<clipPath id="SVGID_34_">
					<use xlink:href="#SVGID_33_"  overflow="visible"/>
				</clipPath>
				<rect x="-4.972" y="278.966" clip-path="url(#SVGID_34_)" fill="#EF5A5C" width="43.281" height="27.238"/>
			</g>
		</g>
	</g>
	<g display="inline">
		<g>
			<g>
				<defs>
					<path id="SVGID_35_" d="M27.262,580.715c0,3.713-5.957,8.073-10.593,8.073h-0.652c-4.295,0-9.939-3.881-9.939-8.073V42.467
						c1.023-4.939,6.494-7.797,10.183-7.792l0,0c4.295-0.005,9.896,2.93,11,7.984V580.715L27.262,580.715z"/>
				</defs>
				<clipPath id="SVGID_36_">
					<use xlink:href="#SVGID_35_"  overflow="visible"/>
				</clipPath>
				<rect x="-4.972" y="305.872" clip-path="url(#SVGID_36_)" fill="#F7A25C" width="43.281" height="27.238"/>
			</g>
		</g>
	</g>
	<g display="inline">
		<g>
			<g>
				<defs>
					<path id="SVGID_37_" d="M27.262,580.715c0,3.713-5.957,8.073-10.593,8.073h-0.652c-4.295,0-9.939-3.881-9.939-8.073V42.467
						c1.023-4.939,6.494-7.797,10.183-7.792l0,0c4.295-0.005,9.896,2.93,11,7.984V580.715L27.262,580.715z"/>
				</defs>
				<clipPath id="SVGID_38_">
					<use xlink:href="#SVGID_37_"  overflow="visible"/>
				</clipPath>
				<rect x="-4.972" y="333.11" clip-path="url(#SVGID_38_)" fill="#FDD58F" width="43.281" height="27.238"/>
			</g>
		</g>
	</g>
	<g display="inline">
		<g>
			<g>
				<defs>
					<path id="SVGID_39_" d="M27.262,580.715c0,3.713-5.957,8.073-10.593,8.073h-0.652c-4.295,0-9.939-3.881-9.939-8.073V42.467
						c1.023-4.939,6.494-7.797,10.183-7.792l0,0c4.295-0.005,9.896,2.93,11,7.984V580.715L27.262,580.715z"/>
				</defs>
				<clipPath id="SVGID_40_">
					<use xlink:href="#SVGID_39_"  overflow="visible"/>
				</clipPath>
				<rect x="-4.972" y="360.349" clip-path="url(#SVGID_40_)" fill="#FFE173" width="43.281" height="27.238"/>
			</g>
		</g>
	</g>
	<g display="inline">
		<g>
			<g>
				<defs>
					<path id="SVGID_41_" d="M27.262,580.715c0,3.713-5.957,8.073-10.593,8.073h-0.652c-4.295,0-9.939-3.881-9.939-8.073V42.467
						c1.023-4.939,6.494-7.797,10.183-7.792l0,0c4.295-0.005,9.896,2.93,11,7.984V580.715L27.262,580.715z"/>
				</defs>
				<clipPath id="SVGID_42_">
					<use xlink:href="#SVGID_41_"  overflow="visible"/>
				</clipPath>
				<rect x="-4.972" y="387.588" clip-path="url(#SVGID_42_)" fill="#FEFE82" width="43.281" height="27.237"/>
			</g>
		</g>
	</g>
	<g display="inline">
		<g>
			<g>
				<defs>
					<path id="SVGID_43_" d="M27.262,580.715c0,3.713-5.957,8.073-10.593,8.073h-0.652c-4.295,0-9.939-3.881-9.939-8.073V42.467
						c1.023-4.939,6.494-7.797,10.183-7.792l0,0c4.295-0.005,9.896,2.93,11,7.984V580.715L27.262,580.715z"/>
				</defs>
				<clipPath id="SVGID_44_">
					<use xlink:href="#SVGID_43_"  overflow="visible"/>
				</clipPath>
				<rect x="-4.972" y="414.483" clip-path="url(#SVGID_44_)" fill="#FFFFC7" width="43.281" height="27.234"/>
			</g>
		</g>
	</g>
	<g display="inline">
		<g>
			<g>
				<defs>
					<path id="SVGID_45_" d="M27.262,580.715c0,3.713-5.957,8.073-10.593,8.073h-0.652c-4.295,0-9.939-3.881-9.939-8.073V42.467
						c1.023-4.939,6.494-7.797,10.183-7.792l0,0c4.295-0.005,9.896,2.93,11,7.984V580.715L27.262,580.715z"/>
				</defs>
				<clipPath id="SVGID_46_">
					<use xlink:href="#SVGID_45_"  overflow="visible"/>
				</clipPath>
				<rect x="-4.972" y="441.72" clip-path="url(#SVGID_46_)" fill="#F3F3A1" width="43.281" height="27.238"/>
			</g>
		</g>
	</g>
	<g display="inline">
		<g>
			<g>
				<defs>
					<path id="SVGID_47_" d="M27.262,580.715c0,3.713-5.957,8.073-10.593,8.073h-0.652c-4.295,0-9.939-3.881-9.939-8.073V42.467
						c1.023-4.939,6.494-7.797,10.183-7.792l0,0c4.295-0.005,9.896,2.93,11,7.984V580.715L27.262,580.715z"/>
				</defs>
				<clipPath id="SVGID_48_">
					<use xlink:href="#SVGID_47_"  overflow="visible"/>
				</clipPath>
				<rect x="-4.972" y="468.959" clip-path="url(#SVGID_48_)" fill="#D3ECA4" width="43.281" height="27.237"/>
			</g>
		</g>
	</g>
	<g display="inline">
		<g>
			<g>
				<defs>
					<path id="SVGID_49_" d="M27.262,580.715c0,3.713-5.957,8.073-10.593,8.073h-0.652c-4.295,0-9.939-3.881-9.939-8.073V42.467
						c1.023-4.939,6.494-7.797,10.183-7.792l0,0c4.295-0.005,9.896,2.93,11,7.984V580.715L27.262,580.715z"/>
				</defs>
				<clipPath id="SVGID_50_">
					<use xlink:href="#SVGID_49_"  overflow="visible"/>
				</clipPath>
				<rect x="-4.972" y="496.196" clip-path="url(#SVGID_50_)" fill="#C3E6D8" width="43.281" height="27.236"/>
			</g>
		</g>
	</g>
	<g display="inline">
		<g>
			<g>
				<defs>
					<path id="SVGID_51_" d="M27.262,580.715c0,3.713-5.957,8.073-10.593,8.073h-0.652c-4.295,0-9.939-3.881-9.939-8.073V42.467
						c1.023-4.939,6.494-7.797,10.183-7.792l0,0c4.295-0.005,9.896,2.93,11,7.984V580.715L27.262,580.715z"/>
				</defs>
				<clipPath id="SVGID_52_">
					<use xlink:href="#SVGID_51_"  overflow="visible"/>
				</clipPath>
				<rect x="-4.972" y="523.435" clip-path="url(#SVGID_52_)" fill="#C8E8F0" width="43.281" height="27.238"/>
			</g>
		</g>
	</g>
	<g display="inline">
		<g>
			<g>
				<defs>
					<path id="SVGID_53_" d="M27.262,580.715c0,3.713-5.957,8.073-10.593,8.073h-0.652c-4.295,0-9.939-3.881-9.939-8.073V42.467
						c1.023-4.939,6.494-7.797,10.183-7.792l0,0c4.295-0.005,9.896,2.93,11,7.984V580.715L27.262,580.715z"/>
				</defs>
				<clipPath id="SVGID_54_">
					<use xlink:href="#SVGID_53_"  overflow="visible"/>
				</clipPath>
				<rect x="-4.972" y="550.674" clip-path="url(#SVGID_54_)" fill="#D0EBF7" width="43.281" height="41.121"/>
			</g>
		</g>
	</g>
</g>
<g display="none">
	<g display="inline">
		<g>
			<g>
				<g>
					<defs>
						<path id="SVGID_55_" d="M27.053,580.983c-0.316,3.428-5.673,7.51-10.308,7.51l0,0c-4.594,0.367-10.877-3.315-10.877-7.51
							V42.738c1.021-4.94,6.492-7.798,10.182-7.792l0,0c4.298-0.006,9.896,2.929,11.003,7.984V580.983L27.053,580.983z"/>
					</defs>
					<clipPath id="SVGID_56_">
						<use xlink:href="#SVGID_55_"  overflow="visible"/>
					</clipPath>
					<rect x="0.671" y="494.032" clip-path="url(#SVGID_56_)" fill="#EC2426" width="31.578" height="99.045"/>
				</g>
			</g>
		</g>
		<g>
			<g>
				<g>
					<defs>
						<path id="SVGID_57_" d="M27.053,580.983c-0.316,3.428-5.673,7.51-10.308,7.51l0,0c-4.594,0.367-10.877-3.315-10.877-7.51
							V42.738c1.021-4.94,6.492-7.798,10.182-7.792l0,0c4.298-0.006,9.896,2.929,11.003,7.984V580.983L27.053,580.983z"/>
					</defs>
					<clipPath id="SVGID_58_">
						<use xlink:href="#SVGID_57_"  overflow="visible"/>
					</clipPath>
					<rect x="0.987" y="313.954" clip-path="url(#SVGID_58_)" fill="#FCFC1E" width="31.578" height="90.041"/>
				</g>
			</g>
		</g>
		<g>
			<g>
				<g>
					<defs>
						<path id="SVGID_59_" d="M27.053,580.983c-0.316,3.428-5.673,7.51-10.308,7.51l0,0c-4.594,0.367-10.877-3.315-10.877-7.51
							V42.738c1.021-4.94,6.492-7.798,10.182-7.792l0,0c4.298-0.006,9.896,2.929,11.003,7.984V580.983L27.053,580.983z"/>
					</defs>
					<clipPath id="SVGID_60_">
						<use xlink:href="#SVGID_59_"  overflow="visible"/>
					</clipPath>
					<rect x="0.987" y="223.914" clip-path="url(#SVGID_60_)" fill="#0B7F3F" width="31.578" height="90.038"/>
				</g>
			</g>
		</g>
		<g>
			<g>
				<g>
					<defs>
						<path id="SVGID_61_" d="M27.053,580.983c-0.316,3.428-5.673,7.51-10.308,7.51l0,0c-4.594,0.367-10.877-3.315-10.877-7.51
							V42.738c1.021-4.94,6.492-7.798,10.182-7.792l0,0c4.298-0.006,9.896,2.929,11.003,7.984V580.983L27.053,580.983z"/>
					</defs>
					<clipPath id="SVGID_62_">
						<use xlink:href="#SVGID_61_"  overflow="visible"/>
					</clipPath>
					<rect x="0.671" y="403.993" clip-path="url(#SVGID_62_)" fill="#F7A426" width="31.578" height="90.041"/>
				</g>
			</g>
		</g>
		<g>
			<g>
				<g>
					<defs>
						<path id="SVGID_63_" d="M27.053,580.983c-0.316,3.428-5.673,7.51-10.308,7.51l0,0c-4.594,0.367-10.877-3.315-10.877-7.51
							V42.738c1.021-4.94,6.492-7.798,10.182-7.792l0,0c4.298-0.006,9.896,2.929,11.003,7.984V580.983L27.053,580.983z"/>
					</defs>
					<clipPath id="SVGID_64_">
						<use xlink:href="#SVGID_63_"  overflow="visible"/>
					</clipPath>
					<rect x="0.987" y="133.862" clip-path="url(#SVGID_64_)" fill="#6FC9DC" width="31.578" height="90.04"/>
				</g>
			</g>
		</g>
		<g>
			<g>
				<g>
					<defs>
						<path id="SVGID_65_" d="M27.053,580.983c-0.316,3.428-5.673,7.51-10.308,7.51l0,0c-4.594,0.367-10.877-3.315-10.877-7.51
							V42.738c1.021-4.94,6.492-7.798,10.182-7.792l0,0c4.298-0.006,9.896,2.929,11.003,7.984V580.983L27.053,580.983z"/>
					</defs>
					<clipPath id="SVGID_66_">
						<use xlink:href="#SVGID_65_"  overflow="visible"/>
					</clipPath>
					<rect x="0.987" y="34.818" clip-path="url(#SVGID_66_)" fill="#3F57B0" width="31.578" height="99.043"/>
				</g>
			</g>
		</g>
	</g>
</g>
<circle display="none" fill="#3A332F" cx="16.46" cy="15.781" r="14.909"/>
<path display="none" fill="none" stroke="#3C3430" stroke-width="3" stroke-miterlimit="10" d="M27.053,580.983
	c-0.316,3.428-5.673,7.51-10.308,7.51l0,0c-4.593,0.367-10.877-3.315-10.877-7.51V42.736c1.022-4.94,6.492-7.798,10.182-7.792l0,0
	c4.298-0.006,9.896,2.929,11.003,7.984V580.983L27.053,580.983z"/>
<g display="none">
	<path display="inline" fill="#3C3530" d="M11.72,579.44c-0.398-0.461-0.598-1.063-0.598-1.81c0-0.745,0.199-1.349,0.598-1.808
		c0.399-0.459,0.923-0.688,1.573-0.688s1.176,0.229,1.58,0.685c0.403,0.455,0.604,1.061,0.604,1.813s-0.202,1.357-0.604,1.813
		c-0.403,0.455-0.93,0.684-1.58,0.684S12.118,579.899,11.72,579.44z M14.118,578.803c0.195-0.275,0.292-0.667,0.292-1.17
		c0-0.502-0.097-0.894-0.292-1.17c-0.195-0.276-0.47-0.416-0.825-0.416c-0.338,0-0.609,0.144-0.813,0.423
		c-0.204,0.281-0.306,0.669-0.306,1.163s0.102,0.882,0.306,1.164c0.204,0.28,0.475,0.422,0.813,0.422
		C13.648,579.219,13.923,579.081,14.118,578.803z M18.753,575.229h1.272l-6.212,9.1h-1.274L18.753,575.229z M17.688,583.729
		c-0.397-0.461-0.599-1.063-0.599-1.809s0.199-1.349,0.599-1.808c0.397-0.459,0.922-0.688,1.574-0.688
		c0.647,0,1.176,0.229,1.577,0.688c0.404,0.459,0.604,1.063,0.604,1.808s-0.2,1.35-0.604,1.809c-0.401,0.459-0.93,0.688-1.577,0.688
		C18.609,584.42,18.085,584.189,17.688,583.729z M20.079,583.088c0.198-0.282,0.299-0.67,0.299-1.164s-0.101-0.883-0.299-1.163
		c-0.199-0.281-0.474-0.423-0.817-0.423c-0.349,0-0.621,0.139-0.82,0.416c-0.197,0.276-0.299,0.668-0.299,1.17
		c0,0.503,0.102,0.895,0.299,1.17c0.199,0.276,0.475,0.416,0.82,0.416C19.605,583.51,19.88,583.368,20.079,583.088z"/>
</g>
<g display="none">
	<path display="inline" fill="#3C3530" d="M15.288,534.154c0.379,0.308,0.568,0.725,0.568,1.252c0,0.336-0.083,0.641-0.248,0.912
		s-0.413,0.485-0.744,0.646c-0.331,0.159-0.739,0.239-1.224,0.239c-0.4,0-0.787-0.059-1.16-0.172
		c-0.373-0.114-0.688-0.272-0.944-0.479l0.44-0.809c0.208,0.171,0.458,0.307,0.748,0.404s0.591,0.146,0.9,0.146
		c0.368,0,0.657-0.076,0.868-0.229c0.21-0.152,0.316-0.361,0.316-0.628c0-0.288-0.113-0.508-0.34-0.652
		c-0.227-0.146-0.615-0.22-1.164-0.22h-1.352l0.288-3.048h3.288v0.871H13.12L13,533.694h0.536
		C14.325,533.694,14.909,533.848,15.288,534.154z"/>
	<path display="inline" fill="#3C3530" d="M17.592,536.866c-0.354-0.229-0.63-0.56-0.833-0.991c-0.203-0.435-0.304-0.95-0.304-1.549
		c0-0.598,0.101-1.112,0.304-1.548c0.203-0.437,0.479-0.768,0.833-0.992c0.352-0.227,0.752-0.34,1.2-0.34
		c0.446,0,0.849,0.111,1.203,0.34c0.354,0.228,0.634,0.559,0.836,0.992c0.203,0.436,0.306,0.95,0.306,1.548
		c0,0.599-0.103,1.113-0.306,1.549c-0.202,0.435-0.479,0.766-0.836,0.991c-0.354,0.228-0.757,0.341-1.203,0.341
		C18.344,537.206,17.943,537.094,17.592,536.866z M19.738,535.806c0.232-0.33,0.35-0.821,0.35-1.479c0-0.657-0.115-1.148-0.35-1.479
		c-0.23-0.33-0.547-0.496-0.946-0.496c-0.396,0-0.708,0.166-0.94,0.496c-0.229,0.331-0.348,0.824-0.348,1.479
		c0,0.656,0.115,1.147,0.348,1.479c0.233,0.332,0.545,0.496,0.94,0.496C19.191,536.302,19.508,536.137,19.738,535.806z"/>
</g>
<g display="none">
	<path display="inline" fill="#3C3530" d="M15.227,450.927c0.293,0.144,0.522,0.344,0.688,0.604
		c0.165,0.262,0.248,0.563,0.248,0.901c0,0.363-0.091,0.684-0.272,0.956c-0.181,0.274-0.426,0.486-0.736,0.639
		c-0.309,0.146-0.656,0.225-1.04,0.225c-0.768,0-1.364-0.24-1.788-0.721c-0.424-0.479-0.636-1.168-0.636-2.063
		c0-0.629,0.115-1.167,0.344-1.612c0.229-0.443,0.551-0.781,0.964-1.016c0.413-0.23,0.892-0.349,1.436-0.349
		c0.288,0,0.559,0.029,0.812,0.093c0.253,0.063,0.473,0.149,0.66,0.268l-0.384,0.784c-0.277-0.182-0.632-0.271-1.064-0.271
		c-0.539,0-0.96,0.165-1.264,0.496c-0.304,0.33-0.456,0.809-0.456,1.433v0.008c0.166-0.19,0.376-0.337,0.632-0.437
		c0.256-0.101,0.544-0.147,0.864-0.147C14.603,450.716,14.934,450.786,15.227,450.927z M14.851,453.176
		c0.203-0.173,0.304-0.404,0.304-0.69c0-0.293-0.101-0.523-0.304-0.695c-0.203-0.171-0.475-0.256-0.816-0.256
		c-0.336,0-0.609,0.091-0.82,0.271c-0.211,0.184-0.316,0.411-0.316,0.688c0,0.271,0.103,0.497,0.308,0.677
		c0.205,0.179,0.489,0.268,0.852,0.268C14.384,453.435,14.648,453.349,14.851,453.176z"/>
	<path display="inline" fill="#3C3530" d="M17.843,453.911c-0.352-0.229-0.629-0.559-0.831-0.991
		c-0.204-0.436-0.305-0.95-0.305-1.549c0-0.598,0.101-1.112,0.305-1.548c0.202-0.437,0.479-0.768,0.831-0.992
		c0.353-0.227,0.753-0.34,1.201-0.34c0.447,0,0.849,0.113,1.203,0.34c0.354,0.228,0.633,0.559,0.836,0.992
		c0.203,0.435,0.306,0.95,0.306,1.548c0,0.599-0.103,1.113-0.306,1.549s-0.479,0.766-0.836,0.991
		c-0.356,0.227-0.756,0.341-1.203,0.341C18.596,454.252,18.193,454.138,17.843,453.911z M19.991,452.851
		c0.231-0.33,0.348-0.821,0.348-1.479c0-0.657-0.114-1.148-0.348-1.479c-0.232-0.33-0.55-0.496-0.947-0.496
		c-0.396,0-0.709,0.166-0.94,0.496c-0.23,0.331-0.349,0.824-0.349,1.479c0,0.656,0.115,1.148,0.349,1.479
		c0.231,0.331,0.545,0.496,0.94,0.496C19.441,453.347,19.759,453.182,19.991,452.851z"/>
</g>
<g display="none">
	<path display="inline" fill="#3C3530" d="M16.202,357.771v0.695l-2.176,4.903h-1.112l2.104-4.721h-2.2v0.953H11.85v-1.832
		L16.202,357.771L16.202,357.771z"/>
	<path display="inline" fill="#3C3530" d="M17.816,363.11c-0.354-0.228-0.629-0.559-0.832-0.991
		c-0.206-0.435-0.304-0.949-0.304-1.548c0-0.598,0.101-1.113,0.304-1.549c0.203-0.436,0.479-0.767,0.832-0.991
		c0.353-0.229,0.752-0.341,1.201-0.341c0.444,0,0.849,0.112,1.203,0.341c0.354,0.228,0.633,0.559,0.836,0.991
		c0.2,0.436,0.305,0.951,0.305,1.549c0,0.599-0.104,1.113-0.305,1.548c-0.203,0.436-0.48,0.767-0.836,0.991
		c-0.354,0.229-0.759,0.341-1.203,0.341C18.568,363.451,18.169,363.339,17.816,363.11z M19.965,362.052
		c0.232-0.329,0.35-0.823,0.35-1.479s-0.114-1.148-0.35-1.479c-0.23-0.33-0.548-0.496-0.947-0.496c-0.396,0-0.707,0.166-0.938,0.496
		c-0.23,0.331-0.35,0.823-0.35,1.479c0,0.655,0.115,1.147,0.35,1.479c0.23,0.331,0.545,0.496,0.938,0.496
		C19.417,362.548,19.732,362.383,19.965,362.052z"/>
</g>
<g display="none">
	<path display="inline" fill="#3C3530" d="M16.029,261.958c0.157,0.228,0.236,0.492,0.236,0.796c0,0.343-0.095,0.642-0.284,0.896
		c-0.189,0.256-0.457,0.452-0.804,0.588c-0.347,0.136-0.75,0.204-1.208,0.204c-0.459,0-0.86-0.068-1.204-0.204
		c-0.344-0.136-0.609-0.332-0.796-0.588c-0.187-0.256-0.28-0.555-0.28-0.896c0-0.304,0.078-0.568,0.232-0.796
		c0.155-0.227,0.376-0.405,0.664-0.54c-0.224-0.122-0.396-0.282-0.516-0.482c-0.12-0.2-0.18-0.432-0.18-0.692
		c0-0.313,0.086-0.589,0.26-0.824c0.173-0.233,0.417-0.416,0.732-0.544c0.314-0.128,0.677-0.19,1.088-0.19
		c0.416,0,0.781,0.063,1.096,0.19s0.56,0.311,0.736,0.544c0.176,0.235,0.264,0.511,0.264,0.824c0,0.262-0.061,0.491-0.184,0.688
		c-0.123,0.196-0.299,0.358-0.528,0.486C15.646,261.552,15.872,261.732,16.029,261.958z M14.881,263.387
		c0.224-0.16,0.336-0.383,0.336-0.664c0-0.277-0.112-0.496-0.336-0.656c-0.224-0.16-0.528-0.24-0.912-0.24
		c-0.384,0-0.686,0.08-0.904,0.24c-0.218,0.16-0.328,0.379-0.328,0.656c0,0.281,0.109,0.504,0.328,0.664
		c0.219,0.158,0.52,0.238,0.904,0.238C14.353,263.626,14.657,263.546,14.881,263.387z M13.197,259.707
		c-0.189,0.14-0.284,0.334-0.284,0.584c0,0.24,0.095,0.432,0.284,0.572c0.189,0.142,0.446,0.212,0.772,0.212
		c0.331,0,0.592-0.07,0.784-0.212s0.288-0.332,0.288-0.572c0-0.25-0.097-0.444-0.292-0.584c-0.195-0.139-0.455-0.208-0.78-0.208
		C13.644,259.499,13.386,259.568,13.197,259.707z"/>
	<path display="inline" fill="#3C3530" d="M18.072,264.103c-0.352-0.228-0.629-0.559-0.831-0.992
		c-0.203-0.436-0.304-0.95-0.304-1.548c0-0.599,0.101-1.113,0.304-1.548c0.202-0.436,0.479-0.767,0.831-0.992
		c0.353-0.228,0.753-0.34,1.203-0.34c0.447,0,0.848,0.112,1.203,0.34c0.354,0.227,0.633,0.558,0.836,0.992
		c0.203,0.434,0.305,0.949,0.305,1.548c0,0.598-0.102,1.112-0.305,1.548c-0.203,0.435-0.48,0.766-0.836,0.992
		c-0.356,0.226-0.756,0.34-1.203,0.34C18.825,264.443,18.425,264.33,18.072,264.103z M20.223,263.042
		c0.231-0.33,0.348-0.822,0.348-1.479s-0.113-1.149-0.348-1.48c-0.23-0.33-0.55-0.496-0.947-0.496c-0.396,0-0.709,0.166-0.939,0.496
		c-0.23,0.331-0.35,0.824-0.35,1.48s0.115,1.148,0.35,1.479c0.23,0.331,0.545,0.496,0.939,0.496
		C19.673,263.539,19.988,263.374,20.223,263.042z"/>
</g>
<g display="none">
	<path display="inline" fill="#3C3530" d="M15.497,177.108c0.424,0.479,0.636,1.168,0.636,2.063c0,0.631-0.115,1.167-0.344,1.612
		s-0.551,0.784-0.964,1.017c-0.414,0.231-0.892,0.349-1.436,0.349c-0.288,0-0.559-0.031-0.812-0.092
		c-0.253-0.063-0.473-0.151-0.66-0.27l0.384-0.784c0.277,0.183,0.632,0.272,1.064,0.272c0.539,0,0.96-0.165,1.264-0.496
		c0.304-0.33,0.456-0.808,0.456-1.432v-0.009c-0.166,0.191-0.376,0.338-0.632,0.437c-0.256,0.099-0.544,0.147-0.864,0.147
		c-0.368,0-0.699-0.07-0.992-0.213c-0.293-0.141-0.522-0.342-0.688-0.604s-0.248-0.563-0.248-0.904c0-0.362,0.091-0.681,0.272-0.956
		c0.181-0.273,0.427-0.485,0.736-0.636c0.309-0.149,0.656-0.224,1.04-0.224C14.477,176.388,15.073,176.627,15.497,177.108z
		 M14.609,178.835c0.21-0.181,0.316-0.41,0.316-0.688c0-0.272-0.103-0.497-0.308-0.676c-0.206-0.18-0.489-0.27-0.852-0.27
		c-0.325,0-0.589,0.087-0.792,0.261c-0.203,0.174-0.304,0.403-0.304,0.691c0,0.294,0.101,0.525,0.304,0.696
		c0.203,0.171,0.475,0.256,0.816,0.256C14.125,179.108,14.398,179.017,14.609,178.835z"/>
	<path display="inline" fill="#3C3530" d="M17.973,181.808c-0.352-0.228-0.629-0.559-0.832-0.992
		c-0.203-0.436-0.304-0.95-0.304-1.548c0-0.599,0.101-1.113,0.304-1.548c0.203-0.436,0.48-0.767,0.832-0.992
		c0.354-0.228,0.752-0.34,1.202-0.34c0.447,0,0.849,0.112,1.203,0.34c0.354,0.227,0.634,0.558,0.836,0.992
		c0.203,0.434,0.306,0.949,0.306,1.548c0,0.598-0.103,1.112-0.306,1.548c-0.202,0.435-0.479,0.766-0.836,0.992
		c-0.356,0.226-0.756,0.34-1.203,0.34C18.727,182.148,18.325,182.035,17.973,181.808z M20.122,180.748
		c0.231-0.33,0.349-0.823,0.349-1.479c0-0.656-0.115-1.149-0.349-1.48c-0.231-0.33-0.55-0.496-0.947-0.496
		c-0.396,0-0.709,0.166-0.942,0.496c-0.229,0.331-0.348,0.824-0.348,1.48c0,0.655,0.115,1.148,0.348,1.479
		c0.233,0.331,0.545,0.496,0.942,0.496S19.891,181.079,20.122,180.748z"/>
</g>
<g display="none">
	<path display="inline" fill="#3C3530" d="M12.049,77.192v5.6h-1.04v-4.728H9.825v-0.872H12.049z"/>
	<path display="inline" fill="#3C3530" d="M14.297,82.532c-0.352-0.227-0.629-0.558-0.832-0.992
		c-0.203-0.434-0.304-0.95-0.304-1.548s0.101-1.113,0.304-1.548c0.203-0.435,0.48-0.766,0.832-0.992s0.752-0.34,1.2-0.34
		c0.448,0,0.849,0.113,1.204,0.34c0.354,0.228,0.633,0.559,0.836,0.992c0.201,0.435,0.304,0.95,0.304,1.548
		s-0.103,1.113-0.304,1.548c-0.203,0.436-0.482,0.767-0.836,0.992c-0.355,0.227-0.756,0.34-1.204,0.34
		C15.049,82.872,14.649,82.76,14.297,82.532z M16.445,81.472c0.232-0.33,0.348-0.823,0.348-1.479s-0.116-1.148-0.348-1.479
		c-0.232-0.33-0.548-0.496-0.948-0.496c-0.395,0-0.708,0.166-0.94,0.496c-0.232,0.331-0.348,0.823-0.348,1.479
		s0.116,1.149,0.348,1.479c0.232,0.331,0.545,0.496,0.94,0.496C15.897,81.969,16.213,81.803,16.445,81.472z"/>
	<path display="inline" fill="#3C3530" d="M19.682,82.532c-0.353-0.227-0.629-0.558-0.832-0.992
		c-0.203-0.434-0.306-0.95-0.306-1.548s0.103-1.113,0.306-1.548s0.479-0.766,0.832-0.992c0.354-0.226,0.752-0.34,1.2-0.34
		c0.447,0,0.849,0.113,1.203,0.34c0.354,0.228,0.633,0.559,0.836,0.992s0.306,0.95,0.306,1.548s-0.103,1.113-0.306,1.548
		c-0.203,0.436-0.479,0.767-0.836,0.992s-0.756,0.34-1.203,0.34C20.434,82.872,20.032,82.76,19.682,82.532z M21.829,81.472
		c0.231-0.33,0.349-0.823,0.349-1.479s-0.115-1.148-0.349-1.479c-0.231-0.33-0.55-0.496-0.947-0.496
		c-0.396,0-0.709,0.166-0.94,0.496c-0.23,0.331-0.349,0.823-0.349,1.479s0.115,1.149,0.349,1.479
		c0.231,0.331,0.545,0.496,0.94,0.496C21.279,81.969,21.598,81.803,21.829,81.472z"/>
</g>
<g display="none">
	<path display="inline" fill="#FFFFFF" d="M10.021,22.611h12.708c2.651,0,4.938-1.792,5.435-4.26
		c0.323-1.611-0.076-3.252-1.104-4.503c-0.873-1.069-2.104-1.748-3.453-1.925v-1.211c0-4.293-3.871-7.688-8.123-7.18
		C11.866,3.964,9.14,7.156,9.14,10.957v0.967c-1.164,0.151-2.244,0.68-3.102,1.525C4.803,14.7,4.259,16.417,4.55,18.162
		C4.953,20.574,7.459,22.611,10.021,22.611z M7.029,14.438c0.757-0.748,1.755-1.161,2.812-1.161c0.386,0,0.7-0.313,0.7-0.699v-1.622
		c0-3.218,2.562-6.078,5.839-6.078c3.177,0,5.827,2.66,5.827,5.833v1.866c0,0.386,0.313,0.699,0.699,0.699
		c1.191,0,2.313,0.532,3.07,1.457c0.758,0.924,1.053,2.142,0.812,3.34c-0.365,1.817-2.072,3.136-4.06,3.136H10.021
		c-1.887,0-3.798-1.531-4.09-3.279C5.716,16.635,6.117,15.361,7.029,14.438z"/>
</g>
<rect x="11.504" y="22.611" display="none" fill="none" width="9.754" height="5.471"/>
<g display="none" enable-background="new    ">
	<path display="inline" fill="#FFFFFF" d="M15.519,22.85h0.736v3.342h2.073v0.623h-2.809V22.85z"/>
</g>
<g>
	<defs>
		<path id="SVGID_67_" d="M26.979,580.464c0,3.712-5.958,8.074-10.593,8.074h-0.651c-4.296,0-9.94-3.881-9.94-8.074V42.217
			c1.023-4.94,6.494-7.797,10.184-7.792l0,0c4.297-0.005,9.896,2.929,11.001,7.984V580.464z"/>
	</defs>
	<clipPath id="SVGID_68_">
		<use xlink:href="#SVGID_67_"  overflow="visible"/>
	</clipPath>
	<rect x="-5.255" y="34.694" clip-path="url(#SVGID_68_)" fill="#737374" width="50.643" height="31.87"/>
	<rect x="-5.255" y="66.564" clip-path="url(#SVGID_68_)" fill="#26216B" width="50.643" height="31.869"/>
	<rect x="-5.255" y="98.433" clip-path="url(#SVGID_68_)" fill="#3749A8" width="50.643" height="31.87"/>
	<rect x="-5.255" y="129.909" clip-path="url(#SVGID_68_)" fill="#5E5DB1" width="50.643" height="31.87"/>
	<rect x="-5.255" y="161.779" clip-path="url(#SVGID_68_)" fill="#8451A7" width="50.643" height="31.87"/>
	<rect x="-5.255" y="193.649" clip-path="url(#SVGID_68_)" fill="#A963AD" width="50.643" height="31.868"/>
	<rect x="-5.255" y="225.517" clip-path="url(#SVGID_68_)" fill="#EB2426" width="50.643" height="31.87"/>
	<rect x="-5.255" y="256.999" clip-path="url(#SVGID_68_)" fill="#F17C26" width="50.643" height="31.87"/>
	<rect x="-5.255" y="288.869" clip-path="url(#SVGID_68_)" fill="#F9B825" width="50.643" height="31.871"/>
	<rect x="-5.255" y="320.74" clip-path="url(#SVGID_68_)" fill="#E1E12D" width="50.643" height="31.87"/>
	<rect x="-5.255" y="352.61" clip-path="url(#SVGID_68_)" fill="#9AD543" width="50.643" height="31.87"/>
	<rect x="-5.255" y="384.08" clip-path="url(#SVGID_68_)" fill="#85CB46" width="50.643" height="31.868"/>
	<rect x="-5.255" y="415.948" clip-path="url(#SVGID_68_)" fill="#85CB9B" width="50.643" height="31.871"/>
	<rect x="-5.255" y="447.819" clip-path="url(#SVGID_68_)" fill="#4BBF93" width="50.643" height="31.869"/>
	<rect x="-5.255" y="479.688" clip-path="url(#SVGID_68_)" fill="#85CFB9" width="50.643" height="31.871"/>
	<rect x="-5.255" y="511.559" clip-path="url(#SVGID_68_)" fill="#C2E5E5" width="50.643" height="31.869"/>
	<rect x="-5.255" y="543.428" clip-path="url(#SVGID_68_)" fill="#FFFFFF" width="50.643" height="48.115"/>
</g>
<circle fill="#39322E" cx="16.372" cy="15.781" r="14.909"/>
<path fill="none" stroke="#3C3430" stroke-width="3" stroke-miterlimit="10" d="M26.963,580.983
	c-0.316,3.428-5.672,7.51-10.307,7.51l0,0c-4.593,0.367-10.877-3.315-10.877-7.51V42.736c1.022-4.94,6.492-7.798,10.183-7.792l0,0
	c4.296-0.006,9.896,2.929,11.001,7.984V580.983L26.963,580.983z"/>
<g>
	<path fill="#3C3430" d="M15.306,571.839c0.314,0.312,0.472,0.779,0.472,1.403v2.448h-1v-2.32c0-0.373-0.083-0.654-0.248-0.844
		c-0.165-0.189-0.402-0.284-0.712-0.284c-0.336,0-0.605,0.111-0.808,0.332c-0.203,0.222-0.304,0.537-0.304,0.948v2.168h-1v-2.32
		c0-0.373-0.083-0.654-0.248-0.844c-0.166-0.189-0.403-0.284-0.712-0.284c-0.341,0-0.612,0.109-0.812,0.328
		c-0.2,0.219-0.3,0.536-0.3,0.952v2.168h-1v-4.272h0.952v0.545c0.16-0.192,0.36-0.339,0.6-0.44s0.507-0.152,0.8-0.152
		c0.32,0,0.604,0.061,0.852,0.181s0.444,0.297,0.588,0.531c0.176-0.224,0.402-0.398,0.68-0.523s0.584-0.188,0.92-0.188
		C14.564,571.37,14.991,571.526,15.306,571.839z"/>
	<path fill="#3C3430" d="M23.73,571.839c0.314,0.312,0.471,0.779,0.471,1.403v2.448h-1v-2.32c0-0.373-0.082-0.654-0.248-0.844
		c-0.164-0.189-0.402-0.284-0.711-0.284c-0.336,0-0.605,0.111-0.809,0.332c-0.203,0.222-0.305,0.537-0.305,0.948v2.168h-1v-2.32
		c0-0.373-0.082-0.654-0.246-0.844c-0.166-0.189-0.404-0.284-0.713-0.284c-0.342,0-0.611,0.109-0.813,0.328
		c-0.199,0.219-0.299,0.536-0.299,0.952v2.168h-1.001v-4.272h0.952v0.545c0.16-0.192,0.359-0.339,0.6-0.44s0.508-0.152,0.801-0.152
		c0.32,0,0.604,0.061,0.852,0.181s0.443,0.297,0.588,0.531c0.176-0.224,0.402-0.398,0.68-0.523s0.584-0.188,0.92-0.188
		C22.988,571.37,23.416,571.526,23.73,571.839z"/>
</g>
<g>
	<path fill="#3C3430" d="M13.052,556.23c-0.264-0.17-0.472-0.418-0.624-0.744c-0.152-0.325-0.228-0.713-0.228-1.16
		c0-0.448,0.076-0.835,0.228-1.161c0.152-0.326,0.36-0.574,0.624-0.744c0.264-0.17,0.564-0.255,0.9-0.255s0.637,0.085,0.903,0.255
		s0.475,0.418,0.627,0.744s0.228,0.713,0.228,1.161c0,0.447-0.076,0.835-0.228,1.16c-0.152,0.326-0.361,0.574-0.627,0.744
		s-0.567,0.255-0.903,0.255S13.315,556.4,13.052,556.23z M14.663,555.435c0.174-0.248,0.261-0.618,0.261-1.109
		c0-0.492-0.087-0.862-0.261-1.11s-0.411-0.372-0.711-0.372c-0.296,0-0.531,0.124-0.705,0.372s-0.261,0.618-0.261,1.11
		c0,0.491,0.087,0.861,0.261,1.109s0.409,0.372,0.705,0.372C14.251,555.807,14.489,555.683,14.663,555.435z"/>
	<path fill="#3C3430" d="M16.286,556.327c-0.096-0.095-0.144-0.213-0.144-0.357c0-0.147,0.047-0.268,0.141-0.36
		c0.094-0.092,0.211-0.138,0.351-0.138s0.257,0.046,0.352,0.138c0.094,0.093,0.141,0.213,0.141,0.36
		c0,0.145-0.049,0.263-0.145,0.357c-0.096,0.094-0.211,0.141-0.348,0.141C16.498,556.468,16.382,556.421,16.286,556.327z"/>
	<path fill="#3C3430" d="M20.257,554.197c0.284,0.229,0.427,0.543,0.427,0.938c0,0.252-0.063,0.48-0.187,0.684
		c-0.124,0.204-0.31,0.366-0.558,0.486s-0.555,0.18-0.918,0.18c-0.3,0-0.59-0.043-0.87-0.129s-0.517-0.205-0.708-0.356l0.33-0.606
		c0.156,0.128,0.343,0.229,0.561,0.304c0.218,0.073,0.443,0.11,0.675,0.11c0.276,0,0.493-0.057,0.651-0.171s0.237-0.271,0.237-0.471
		c0-0.216-0.085-0.379-0.255-0.489s-0.461-0.165-0.873-0.165h-1.015l0.217-2.286h2.466v0.654h-1.807l-0.09,0.972h0.402
		C19.535,553.851,19.974,553.967,20.257,554.197z"/>
</g>
<g>
	<path fill="#3C3430" d="M17.946,528.476v0.66h-3.095v-0.522l1.668-1.584c0.188-0.18,0.315-0.337,0.38-0.471
		c0.066-0.134,0.1-0.267,0.1-0.398c0-0.196-0.066-0.347-0.198-0.45c-0.132-0.104-0.326-0.156-0.582-0.156
		c-0.428,0-0.756,0.146-0.984,0.438l-0.546-0.421c0.164-0.22,0.385-0.391,0.663-0.513s0.589-0.183,0.933-0.183
		c0.456,0,0.819,0.107,1.092,0.324c0.272,0.216,0.407,0.51,0.407,0.882c0,0.228-0.047,0.441-0.143,0.642
		c-0.097,0.2-0.281,0.428-0.553,0.685l-1.122,1.067H17.946z"/>
</g>
<g>
	<path fill="#3C3430" d="M17.525,493.435c0.284,0.229,0.427,0.543,0.427,0.938c0,0.252-0.063,0.48-0.187,0.684
		c-0.124,0.204-0.311,0.366-0.558,0.486c-0.248,0.12-0.554,0.18-0.918,0.18c-0.3,0-0.59-0.043-0.87-0.129
		c-0.28-0.086-0.516-0.205-0.708-0.356l0.33-0.606c0.156,0.128,0.343,0.229,0.561,0.304c0.218,0.073,0.443,0.11,0.675,0.11
		c0.276,0,0.493-0.057,0.651-0.171s0.237-0.271,0.237-0.471c0-0.216-0.086-0.379-0.256-0.489c-0.169-0.11-0.46-0.165-0.873-0.165
		h-1.014l0.216-2.286h2.466v0.654H15.9l-0.09,0.972h0.402C16.804,493.09,17.242,493.205,17.525,493.435z"/>
</g>
<g>
	<path fill="#3C3430" d="M14.957,460.149v4.2h-0.78v-3.546h-0.888v-0.654H14.957z"/>
	<path fill="#3C3430" d="M16.643,464.154c-0.264-0.17-0.472-0.418-0.624-0.744c-0.152-0.325-0.228-0.713-0.228-1.16
		c0-0.448,0.076-0.835,0.228-1.161c0.152-0.326,0.36-0.574,0.624-0.744s0.564-0.255,0.899-0.255c0.336,0,0.639,0.085,0.904,0.255
		s0.475,0.418,0.627,0.744s0.229,0.713,0.229,1.161c0,0.447-0.076,0.835-0.229,1.16c-0.152,0.326-0.361,0.574-0.627,0.744
		s-0.568,0.255-0.904,0.255C17.207,464.409,16.907,464.324,16.643,464.154z M18.253,463.359c0.176-0.248,0.262-0.618,0.262-1.109
		c0-0.492-0.086-0.862-0.262-1.11c-0.174-0.248-0.41-0.372-0.711-0.372c-0.295,0-0.53,0.124-0.704,0.372s-0.261,0.618-0.261,1.11
		c0,0.491,0.087,0.861,0.261,1.109s0.409,0.372,0.704,0.372C17.843,463.731,18.079,463.607,18.253,463.359z"/>
</g>
<g>
	<path fill="#3C3430" d="M15.953,431.108v0.66h-3.096v-0.522l1.668-1.584c0.188-0.18,0.315-0.337,0.381-0.471
		c0.066-0.134,0.099-0.267,0.099-0.398c0-0.196-0.066-0.347-0.198-0.45c-0.132-0.104-0.326-0.156-0.582-0.156
		c-0.428,0-0.756,0.146-0.984,0.438l-0.546-0.421c0.164-0.22,0.385-0.391,0.663-0.513s0.589-0.183,0.933-0.183
		c0.456,0,0.82,0.107,1.092,0.324c0.272,0.216,0.408,0.51,0.408,0.882c0,0.228-0.048,0.441-0.144,0.642s-0.28,0.428-0.552,0.685
		l-1.122,1.067H15.953z"/>
	<path fill="#3C3430" d="M17.236,431.573c-0.265-0.17-0.472-0.418-0.624-0.744c-0.152-0.325-0.228-0.713-0.228-1.16
		c0-0.448,0.076-0.835,0.228-1.161c0.152-0.326,0.359-0.574,0.624-0.744c0.264-0.17,0.563-0.255,0.899-0.255
		s0.638,0.085,0.903,0.255s0.475,0.418,0.627,0.744s0.229,0.713,0.229,1.161c0,0.447-0.076,0.835-0.229,1.16
		c-0.152,0.326-0.361,0.574-0.627,0.744s-0.567,0.255-0.903,0.255S17.5,431.743,17.236,431.573z M18.847,430.778
		c0.175-0.248,0.262-0.618,0.262-1.109c0-0.492-0.087-0.862-0.262-1.11c-0.174-0.248-0.41-0.372-0.711-0.372
		c-0.296,0-0.53,0.124-0.705,0.372c-0.174,0.248-0.261,0.618-0.261,1.11c0,0.491,0.087,0.861,0.261,1.109
		c0.175,0.248,0.409,0.372,0.705,0.372C18.437,431.15,18.673,431.026,18.847,430.778z"/>
</g>
<g>
	<path fill="#3C3430" d="M15.545,397.593c0.204,0.217,0.306,0.486,0.306,0.811c0,0.244-0.062,0.466-0.186,0.666
		s-0.311,0.358-0.561,0.477s-0.555,0.177-0.915,0.177c-0.3,0-0.589-0.043-0.867-0.129c-0.278-0.086-0.515-0.205-0.711-0.356
		l0.336-0.606c0.152,0.128,0.337,0.229,0.555,0.304c0.218,0.073,0.443,0.11,0.675,0.11c0.276,0,0.493-0.057,0.651-0.171
		c0.158-0.114,0.237-0.269,0.237-0.465s-0.075-0.349-0.225-0.459s-0.379-0.165-0.687-0.165H13.77v-0.534l0.954-1.134h-1.908v-0.654
		h2.862v0.522l-1.02,1.212C15.045,397.245,15.341,397.377,15.545,397.593z"/>
	<path fill="#3C3430" d="M17.213,399.468c-0.264-0.17-0.472-0.418-0.624-0.744c-0.152-0.325-0.228-0.713-0.228-1.16
		c0-0.448,0.076-0.835,0.228-1.161c0.152-0.326,0.36-0.574,0.624-0.744s0.564-0.255,0.9-0.255s0.637,0.085,0.902,0.255
		s0.475,0.418,0.627,0.744s0.229,0.713,0.229,1.161c0,0.447-0.076,0.835-0.229,1.16c-0.152,0.326-0.361,0.574-0.627,0.744
		s-0.566,0.255-0.902,0.255S17.477,399.637,17.213,399.468z M18.824,398.673c0.174-0.248,0.262-0.618,0.262-1.109
		c0-0.492-0.088-0.862-0.262-1.11s-0.41-0.372-0.711-0.372c-0.297,0-0.531,0.124-0.705,0.372s-0.262,0.618-0.262,1.11
		c0,0.491,0.088,0.861,0.262,1.109s0.408,0.372,0.705,0.372C18.414,399.045,18.65,398.921,18.824,398.673z"/>
</g>
<g>
	<path fill="#3C3430" d="M16.354,367.286h-0.744v0.954h-0.756v-0.954h-2.304v-0.54l2.07-2.706h0.834l-1.95,2.586h1.374v-0.846h0.732
		v0.846h0.744V367.286z"/>
	<path fill="#3C3430" d="M17.536,368.045c-0.264-0.17-0.472-0.418-0.623-0.744c-0.153-0.325-0.229-0.713-0.229-1.16
		c0-0.448,0.076-0.835,0.229-1.161c0.151-0.326,0.359-0.574,0.623-0.744s0.564-0.255,0.9-0.255s0.637,0.085,0.902,0.255
		s0.475,0.418,0.627,0.744s0.229,0.713,0.229,1.161c0,0.447-0.076,0.835-0.229,1.16c-0.152,0.326-0.361,0.574-0.627,0.744
		s-0.566,0.255-0.902,0.255S17.8,368.215,17.536,368.045z M19.147,367.25c0.174-0.248,0.262-0.618,0.262-1.109
		c0-0.492-0.088-0.862-0.262-1.11s-0.41-0.372-0.711-0.372c-0.297,0-0.531,0.124-0.705,0.372s-0.262,0.618-0.262,1.11
		c0,0.491,0.088,0.861,0.262,1.109s0.408,0.372,0.705,0.372C18.737,367.622,18.974,367.498,19.147,367.25z"/>
</g>
<g>
	<path fill="#3C3430" d="M15.524,334.321c0.284,0.229,0.426,0.543,0.426,0.938c0,0.252-0.062,0.48-0.186,0.684
		c-0.124,0.204-0.31,0.366-0.558,0.486c-0.248,0.12-0.554,0.18-0.918,0.18c-0.3,0-0.59-0.043-0.87-0.129
		c-0.28-0.086-0.516-0.205-0.708-0.356l0.33-0.606c0.156,0.128,0.343,0.229,0.561,0.304c0.218,0.073,0.443,0.11,0.675,0.11
		c0.276,0,0.493-0.057,0.651-0.171s0.237-0.271,0.237-0.471c0-0.216-0.085-0.379-0.255-0.489s-0.461-0.165-0.873-0.165h-1.014
		l0.216-2.286h2.466v0.654h-1.806l-0.09,0.972h0.402C14.802,333.975,15.24,334.091,15.524,334.321z"/>
	<path fill="#3C3430" d="M17.252,336.354c-0.265-0.17-0.472-0.418-0.624-0.744c-0.152-0.325-0.228-0.713-0.228-1.16
		c0-0.448,0.076-0.835,0.228-1.161c0.152-0.326,0.359-0.574,0.624-0.744c0.264-0.17,0.563-0.255,0.899-0.255
		s0.638,0.085,0.903,0.255s0.475,0.418,0.627,0.744s0.229,0.713,0.229,1.161c0,0.447-0.076,0.835-0.229,1.16
		c-0.152,0.326-0.361,0.574-0.627,0.744s-0.567,0.255-0.903,0.255S17.516,336.524,17.252,336.354z M18.862,335.559
		c0.175-0.248,0.262-0.618,0.262-1.109c0-0.492-0.087-0.862-0.262-1.11c-0.174-0.248-0.41-0.372-0.711-0.372
		c-0.296,0-0.53,0.124-0.705,0.372c-0.174,0.248-0.261,0.618-0.261,1.11c0,0.491,0.087,0.861,0.261,1.109
		c0.175,0.248,0.409,0.372,0.705,0.372C18.452,335.931,18.688,335.807,18.862,335.559z"/>
</g>
<g>
	<path fill="#3C3430" d="M15.418,302.238c0.22,0.105,0.392,0.257,0.516,0.452c0.124,0.196,0.186,0.423,0.186,0.679
		c0,0.271-0.068,0.511-0.204,0.717c-0.136,0.206-0.32,0.365-0.552,0.477c-0.232,0.112-0.492,0.168-0.78,0.168
		c-0.576,0-1.023-0.18-1.341-0.54c-0.318-0.359-0.477-0.876-0.477-1.548c0-0.472,0.086-0.875,0.258-1.209s0.413-0.588,0.723-0.762
		s0.669-0.261,1.077-0.261c0.216,0,0.419,0.022,0.609,0.068c0.19,0.047,0.355,0.113,0.495,0.201l-0.288,0.588
		c-0.208-0.136-0.474-0.204-0.798-0.204c-0.404,0-0.72,0.124-0.948,0.372s-0.342,0.606-0.342,1.074v0.006
		c0.124-0.144,0.282-0.253,0.474-0.327c0.192-0.073,0.408-0.11,0.648-0.11C14.951,302.079,15.198,302.132,15.418,302.238z
		 M15.136,303.924c0.152-0.13,0.228-0.303,0.228-0.519c0-0.221-0.076-0.395-0.228-0.522c-0.152-0.128-0.356-0.192-0.612-0.192
		c-0.252,0-0.457,0.068-0.615,0.204c-0.158,0.137-0.237,0.309-0.237,0.517c0,0.204,0.077,0.373,0.231,0.507
		c0.154,0.134,0.367,0.201,0.639,0.201C14.787,304.119,14.984,304.053,15.136,303.924z"/>
	<path fill="#3C3430" d="M17.381,304.475c-0.265-0.17-0.472-0.418-0.624-0.744c-0.152-0.325-0.228-0.713-0.228-1.16
		c0-0.448,0.076-0.835,0.228-1.161s0.359-0.574,0.624-0.744c0.264-0.17,0.563-0.255,0.899-0.255s0.638,0.085,0.903,0.255
		s0.475,0.418,0.627,0.744s0.229,0.713,0.229,1.161c0,0.447-0.076,0.835-0.229,1.16c-0.152,0.326-0.361,0.574-0.627,0.744
		s-0.567,0.255-0.903,0.255S17.645,304.645,17.381,304.475z M18.991,303.68c0.175-0.248,0.262-0.618,0.262-1.109
		c0-0.492-0.087-0.862-0.262-1.11c-0.174-0.248-0.41-0.372-0.711-0.372c-0.296,0-0.53,0.124-0.705,0.372
		c-0.174,0.248-0.261,0.618-0.261,1.11c0,0.491,0.087,0.861,0.261,1.109c0.175,0.248,0.409,0.372,0.705,0.372
		C18.581,304.052,18.817,303.928,18.991,303.68z"/>
</g>
<g>
	<path fill="#3C3430" d="M15.891,271.552c0.118,0.17,0.177,0.369,0.177,0.597c0,0.256-0.071,0.48-0.213,0.672
		c-0.142,0.192-0.343,0.339-0.603,0.441c-0.26,0.102-0.562,0.152-0.906,0.152c-0.344,0-0.645-0.051-0.903-0.152
		c-0.258-0.103-0.457-0.249-0.597-0.441c-0.14-0.191-0.21-0.416-0.21-0.672c0-0.228,0.058-0.427,0.174-0.597
		c0.116-0.17,0.282-0.306,0.498-0.405c-0.168-0.092-0.297-0.213-0.387-0.363c-0.09-0.149-0.135-0.322-0.135-0.519
		c0-0.236,0.065-0.442,0.195-0.618s0.313-0.312,0.549-0.408c0.236-0.096,0.508-0.144,0.816-0.144c0.312,0,0.586,0.048,0.822,0.144
		c0.236,0.097,0.42,0.232,0.552,0.408c0.132,0.176,0.198,0.382,0.198,0.618c0,0.196-0.046,0.368-0.138,0.516
		c-0.092,0.148-0.224,0.271-0.396,0.366C15.604,271.246,15.772,271.382,15.891,271.552z M15.029,272.622
		c0.168-0.119,0.252-0.285,0.252-0.498c0-0.207-0.084-0.371-0.252-0.491s-0.396-0.181-0.684-0.181c-0.288,0-0.514,0.061-0.678,0.181
		s-0.246,0.284-0.246,0.491c0,0.213,0.082,0.379,0.246,0.498c0.164,0.12,0.39,0.181,0.678,0.181
		C14.633,272.803,14.861,272.742,15.029,272.622z M13.767,269.863c-0.142,0.104-0.213,0.25-0.213,0.438
		c0,0.18,0.071,0.323,0.213,0.429c0.142,0.106,0.335,0.159,0.579,0.159c0.248,0,0.444-0.053,0.588-0.159
		c0.144-0.105,0.216-0.249,0.216-0.429c0-0.188-0.073-0.334-0.219-0.438c-0.146-0.104-0.341-0.156-0.585-0.156
		C14.102,269.706,13.908,269.759,13.767,269.863z"/>
	<path fill="#3C3430" d="M17.424,273.159c-0.264-0.17-0.473-0.418-0.624-0.744c-0.152-0.325-0.228-0.713-0.228-1.16
		c0-0.448,0.076-0.835,0.228-1.161c0.151-0.326,0.36-0.574,0.624-0.744s0.563-0.255,0.899-0.255s0.638,0.085,0.903,0.255
		s0.475,0.418,0.627,0.744s0.229,0.713,0.229,1.161c0,0.447-0.076,0.835-0.229,1.16c-0.152,0.326-0.361,0.574-0.627,0.744
		s-0.567,0.255-0.903,0.255S17.688,273.329,17.424,273.159z M19.034,272.365c0.175-0.248,0.262-0.618,0.262-1.109
		c0-0.492-0.087-0.862-0.262-1.11c-0.174-0.248-0.41-0.372-0.711-0.372c-0.296,0-0.53,0.124-0.705,0.372
		c-0.174,0.248-0.261,0.618-0.261,1.11c0,0.491,0.087,0.861,0.261,1.109c0.175,0.248,0.409,0.372,0.705,0.372
		C18.624,272.737,18.86,272.613,19.034,272.365z"/>
</g>
<g>
	<path fill="#3C3430" d="M12.905,238.343v4.2h-0.78v-3.546h-0.888v-0.654H12.905z"/>
	<path fill="#3C3430" d="M14.592,242.347c-0.264-0.17-0.472-0.418-0.624-0.744c-0.152-0.325-0.228-0.713-0.228-1.16
		c0-0.448,0.076-0.835,0.228-1.161c0.152-0.326,0.36-0.574,0.624-0.744c0.264-0.17,0.564-0.255,0.9-0.255s0.637,0.085,0.903,0.255
		s0.475,0.418,0.627,0.744s0.229,0.713,0.229,1.161c0,0.447-0.076,0.835-0.229,1.16c-0.152,0.326-0.361,0.574-0.627,0.744
		s-0.567,0.255-0.903,0.255S14.855,242.517,14.592,242.347z M16.203,241.552c0.174-0.248,0.261-0.618,0.261-1.109
		c0-0.492-0.087-0.862-0.261-1.11s-0.411-0.372-0.711-0.372c-0.296,0-0.531,0.124-0.705,0.372s-0.261,0.618-0.261,1.11
		c0,0.491,0.087,0.861,0.261,1.109s0.409,0.372,0.705,0.372C15.792,241.925,16.029,241.801,16.203,241.552z"/>
	<path fill="#3C3430" d="M18.63,242.347c-0.265-0.17-0.473-0.418-0.624-0.744c-0.152-0.325-0.229-0.713-0.229-1.16
		c0-0.448,0.076-0.835,0.229-1.161c0.151-0.326,0.359-0.574,0.624-0.744c0.264-0.17,0.563-0.255,0.899-0.255
		s0.638,0.085,0.903,0.255s0.475,0.418,0.627,0.744s0.229,0.713,0.229,1.161c0,0.447-0.076,0.835-0.229,1.16
		c-0.152,0.326-0.361,0.574-0.627,0.744s-0.567,0.255-0.903,0.255S18.894,242.517,18.63,242.347z M20.24,241.552
		c0.175-0.248,0.262-0.618,0.262-1.109c0-0.492-0.087-0.862-0.262-1.11c-0.174-0.248-0.41-0.372-0.711-0.372
		c-0.296,0-0.53,0.124-0.705,0.372c-0.174,0.248-0.261,0.618-0.261,1.11c0,0.491,0.087,0.861,0.261,1.109
		c0.175,0.248,0.409,0.372,0.705,0.372C19.83,241.925,20.066,241.801,20.24,241.552z"/>
</g>
<g>
	<path fill="#3C3430" d="M13.461,208.281v4.2h-0.78v-3.546h-0.888v-0.654H13.461z"/>
	<path fill="#3C3430" d="M17.337,211.821v0.66h-3.096v-0.522l1.668-1.584c0.188-0.18,0.315-0.337,0.381-0.471
		c0.066-0.134,0.099-0.267,0.099-0.398c0-0.196-0.066-0.347-0.198-0.45c-0.132-0.104-0.326-0.156-0.582-0.156
		c-0.428,0-0.756,0.146-0.984,0.438l-0.546-0.421c0.164-0.22,0.385-0.391,0.663-0.513s0.589-0.183,0.933-0.183
		c0.456,0,0.82,0.107,1.092,0.324c0.272,0.216,0.408,0.51,0.408,0.882c0,0.228-0.048,0.441-0.144,0.642s-0.28,0.428-0.552,0.685
		l-1.122,1.067H17.337z"/>
	<path fill="#3C3430" d="M20.415,210.253c0.284,0.229,0.427,0.543,0.427,0.938c0,0.252-0.063,0.48-0.187,0.684
		c-0.124,0.204-0.31,0.366-0.558,0.486s-0.555,0.18-0.918,0.18c-0.3,0-0.59-0.043-0.87-0.129s-0.517-0.205-0.708-0.356l0.33-0.606
		c0.156,0.128,0.343,0.229,0.561,0.304c0.218,0.073,0.443,0.11,0.675,0.11c0.276,0,0.493-0.057,0.651-0.171s0.237-0.271,0.237-0.471
		c0-0.216-0.085-0.379-0.255-0.489s-0.461-0.165-0.873-0.165h-1.015l0.217-2.286h2.466v0.654h-1.807l-0.09,0.972h0.402
		C19.693,209.907,20.132,210.022,20.415,210.253z"/>
</g>
<g>
	<path fill="#3C3430" d="M13.188,175.434v4.2h-0.78v-3.546H11.52v-0.654H13.188z"/>
	<path fill="#3C3430" d="M16.65,177.406c0.283,0.229,0.426,0.543,0.426,0.938c0,0.252-0.063,0.48-0.186,0.684
		c-0.125,0.204-0.311,0.366-0.558,0.486c-0.248,0.12-0.554,0.18-0.918,0.18c-0.3,0-0.59-0.043-0.87-0.129
		c-0.28-0.086-0.516-0.205-0.708-0.356l0.33-0.606c0.156,0.128,0.343,0.229,0.561,0.304c0.218,0.073,0.443,0.11,0.675,0.11
		c0.276,0,0.493-0.057,0.651-0.171s0.237-0.271,0.237-0.471c0-0.216-0.085-0.379-0.255-0.489s-0.461-0.165-0.873-0.165h-1.014
		l0.216-2.286h2.466v0.654h-1.806l-0.09,0.972h0.402C15.928,177.06,16.366,177.176,16.65,177.406z"/>
	<path fill="#3C3430" d="M18.379,179.439c-0.265-0.17-0.473-0.418-0.624-0.744c-0.152-0.325-0.229-0.713-0.229-1.16
		c0-0.448,0.076-0.835,0.229-1.161c0.151-0.326,0.359-0.574,0.624-0.744c0.264-0.17,0.563-0.255,0.899-0.255
		s0.638,0.085,0.903,0.255s0.475,0.418,0.627,0.744s0.229,0.713,0.229,1.161c0,0.447-0.076,0.835-0.229,1.16
		c-0.152,0.326-0.361,0.574-0.627,0.744s-0.567,0.255-0.903,0.255S18.643,179.609,18.379,179.439z M19.989,178.644
		c0.175-0.248,0.262-0.618,0.262-1.109c0-0.492-0.087-0.862-0.262-1.11c-0.174-0.248-0.41-0.372-0.711-0.372
		c-0.296,0-0.53,0.124-0.705,0.372c-0.174,0.248-0.261,0.618-0.261,1.11c0,0.491,0.087,0.861,0.261,1.109
		c0.175,0.248,0.409,0.372,0.705,0.372C19.579,179.016,19.815,178.892,19.989,178.644z"/>
</g>
<g>
	<path fill="#3C3430" d="M13.901,148.006v0.66h-3.096v-0.522l1.668-1.584c0.188-0.18,0.315-0.337,0.381-0.471
		c0.066-0.134,0.099-0.267,0.099-0.398c0-0.196-0.066-0.347-0.198-0.45c-0.132-0.104-0.326-0.156-0.582-0.156
		c-0.428,0-0.756,0.146-0.984,0.438l-0.546-0.421c0.164-0.22,0.385-0.391,0.663-0.513s0.589-0.183,0.933-0.183
		c0.456,0,0.82,0.107,1.092,0.324c0.272,0.216,0.408,0.51,0.408,0.882c0,0.228-0.048,0.441-0.144,0.642s-0.28,0.428-0.552,0.685
		l-1.122,1.067H13.901z"/>
	<path fill="#3C3430" d="M15.185,148.471c-0.264-0.17-0.472-0.418-0.624-0.744c-0.152-0.325-0.228-0.713-0.228-1.16
		c0-0.448,0.076-0.835,0.228-1.161c0.152-0.326,0.36-0.574,0.624-0.744c0.264-0.17,0.564-0.255,0.9-0.255s0.637,0.085,0.903,0.255
		c0.266,0.17,0.475,0.418,0.627,0.744s0.229,0.713,0.229,1.161c0,0.447-0.076,0.835-0.229,1.16
		c-0.152,0.326-0.361,0.574-0.627,0.744c-0.267,0.17-0.567,0.255-0.903,0.255S15.449,148.641,15.185,148.471z M16.796,147.676
		c0.174-0.248,0.261-0.618,0.261-1.109c0-0.492-0.087-0.862-0.261-1.11s-0.411-0.372-0.711-0.372c-0.296,0-0.531,0.124-0.705,0.372
		s-0.261,0.618-0.261,1.11c0,0.491,0.087,0.861,0.261,1.109s0.409,0.372,0.705,0.372C16.385,148.048,16.622,147.924,16.796,147.676z
		"/>
	<path fill="#3C3430" d="M19.224,148.471c-0.265-0.17-0.473-0.418-0.624-0.744c-0.152-0.325-0.229-0.713-0.229-1.16
		c0-0.448,0.076-0.835,0.229-1.161c0.151-0.326,0.359-0.574,0.624-0.744c0.264-0.17,0.563-0.255,0.899-0.255
		s0.638,0.085,0.903,0.255s0.475,0.418,0.627,0.744s0.229,0.713,0.229,1.161c0,0.447-0.076,0.835-0.229,1.16
		c-0.152,0.326-0.361,0.574-0.627,0.744s-0.567,0.255-0.903,0.255S19.487,148.641,19.224,148.471z M20.834,147.676
		c0.175-0.248,0.262-0.618,0.262-1.109c0-0.492-0.087-0.862-0.262-1.11c-0.174-0.248-0.41-0.372-0.711-0.372
		c-0.296,0-0.53,0.124-0.705,0.372c-0.174,0.248-0.261,0.618-0.261,1.11c0,0.491,0.087,0.861,0.261,1.109
		c0.175,0.248,0.409,0.372,0.705,0.372C20.424,148.048,20.66,147.924,20.834,147.676z"/>
</g>
<g>
	<path fill="#FFFFFF" d="M13.526,113.303c0.204,0.217,0.306,0.486,0.306,0.811c0,0.244-0.062,0.466-0.186,0.666
		s-0.311,0.358-0.561,0.477s-0.555,0.177-0.915,0.177c-0.3,0-0.589-0.043-0.867-0.129c-0.278-0.086-0.515-0.205-0.711-0.356
		l0.336-0.606c0.152,0.128,0.337,0.229,0.555,0.304c0.218,0.073,0.443,0.11,0.675,0.11c0.276,0,0.493-0.057,0.651-0.171
		c0.158-0.114,0.237-0.269,0.237-0.465s-0.075-0.349-0.225-0.459s-0.379-0.165-0.687-0.165H11.75v-0.534l0.954-1.134h-1.908v-0.654
		h2.862v0.522l-1.02,1.212C13.026,112.955,13.322,113.087,13.526,113.303z"/>
	<path fill="#FFFFFF" d="M15.194,115.178c-0.264-0.17-0.472-0.418-0.624-0.744c-0.152-0.325-0.228-0.713-0.228-1.16
		c0-0.448,0.076-0.835,0.228-1.161c0.152-0.326,0.36-0.574,0.624-0.744c0.264-0.17,0.564-0.255,0.9-0.255s0.637,0.085,0.903,0.255
		c0.266,0.17,0.475,0.418,0.627,0.744s0.229,0.713,0.229,1.161c0,0.447-0.076,0.835-0.229,1.16
		c-0.152,0.326-0.361,0.574-0.627,0.744c-0.266,0.17-0.567,0.255-0.903,0.255S15.458,115.348,15.194,115.178z M16.805,114.383
		c0.173-0.248,0.261-0.618,0.261-1.109c0-0.492-0.088-0.862-0.261-1.11c-0.174-0.248-0.411-0.372-0.711-0.372
		c-0.296,0-0.531,0.124-0.705,0.372s-0.261,0.618-0.261,1.11c0,0.491,0.087,0.861,0.261,1.109s0.409,0.372,0.705,0.372
		C16.394,114.755,16.631,114.631,16.805,114.383z"/>
	<path fill="#FFFFFF" d="M19.232,115.178c-0.265-0.17-0.473-0.418-0.624-0.744c-0.152-0.325-0.229-0.713-0.229-1.16
		c0-0.448,0.076-0.835,0.229-1.161c0.151-0.326,0.359-0.574,0.624-0.744c0.264-0.17,0.563-0.255,0.899-0.255
		s0.638,0.085,0.903,0.255s0.475,0.418,0.627,0.744s0.229,0.713,0.229,1.161c0,0.447-0.076,0.835-0.229,1.16
		c-0.152,0.326-0.361,0.574-0.627,0.744s-0.567,0.255-0.903,0.255S19.496,115.348,19.232,115.178z M20.843,114.383
		c0.175-0.248,0.262-0.618,0.262-1.109c0-0.492-0.087-0.862-0.262-1.11c-0.174-0.248-0.41-0.372-0.711-0.372
		c-0.296,0-0.53,0.124-0.705,0.372c-0.174,0.248-0.261,0.618-0.261,1.11c0,0.491,0.087,0.861,0.261,1.109
		c0.175,0.248,0.409,0.372,0.705,0.372C20.433,114.755,20.669,114.631,20.843,114.383z"/>
</g>
<g>
	<path fill="#FFFFFF" d="M13.488,80.86c0.284,0.229,0.426,0.543,0.426,0.938c0,0.252-0.062,0.48-0.186,0.684
		c-0.124,0.204-0.31,0.366-0.558,0.486c-0.248,0.12-0.554,0.18-0.918,0.18c-0.3,0-0.59-0.043-0.87-0.129
		c-0.28-0.086-0.516-0.205-0.708-0.356l0.33-0.606c0.156,0.128,0.343,0.229,0.561,0.304c0.218,0.073,0.443,0.11,0.675,0.11
		c0.276,0,0.493-0.057,0.651-0.171s0.237-0.271,0.237-0.471c0-0.216-0.085-0.379-0.255-0.489S12.412,81.174,12,81.174h-1.014
		l0.216-2.286h2.466v0.654h-1.806l-0.09,0.972h0.402C12.766,80.514,13.204,80.629,13.488,80.86z"/>
	<path fill="#FFFFFF" d="M15.216,82.893c-0.264-0.17-0.472-0.418-0.624-0.744c-0.152-0.325-0.228-0.713-0.228-1.16
		c0-0.448,0.076-0.835,0.228-1.161c0.152-0.326,0.36-0.574,0.624-0.744c0.264-0.17,0.564-0.255,0.9-0.255s0.637,0.085,0.903,0.255
		c0.266,0.17,0.475,0.418,0.627,0.744s0.229,0.713,0.229,1.161c0,0.447-0.076,0.835-0.229,1.16
		c-0.152,0.326-0.361,0.574-0.627,0.744c-0.267,0.17-0.567,0.255-0.903,0.255S15.48,83.063,15.216,82.893z M16.827,82.098
		c0.174-0.248,0.261-0.618,0.261-1.109c0-0.492-0.087-0.862-0.261-1.11s-0.411-0.372-0.711-0.372c-0.296,0-0.531,0.124-0.705,0.372
		s-0.261,0.618-0.261,1.11c0,0.491,0.087,0.861,0.261,1.109s0.409,0.372,0.705,0.372C16.416,82.47,16.653,82.346,16.827,82.098z"/>
	<path fill="#FFFFFF" d="M19.254,82.893c-0.265-0.17-0.473-0.418-0.624-0.744c-0.152-0.325-0.229-0.713-0.229-1.16
		c0-0.448,0.076-0.835,0.229-1.161c0.151-0.326,0.359-0.574,0.624-0.744c0.264-0.17,0.563-0.255,0.899-0.255
		s0.638,0.085,0.903,0.255s0.475,0.418,0.627,0.744s0.229,0.713,0.229,1.161c0,0.447-0.076,0.835-0.229,1.16
		c-0.152,0.326-0.361,0.574-0.627,0.744s-0.567,0.255-0.903,0.255S19.518,83.063,19.254,82.893z M20.864,82.098
		c0.175-0.248,0.262-0.618,0.262-1.109c0-0.492-0.087-0.862-0.262-1.11c-0.174-0.248-0.41-0.372-0.711-0.372
		c-0.296,0-0.53,0.124-0.705,0.372c-0.174,0.248-0.261,0.618-0.261,1.11c0,0.491,0.087,0.861,0.261,1.109
		c0.175,0.248,0.409,0.372,0.705,0.372C20.454,82.47,20.69,82.346,20.864,82.098z"/>
</g>
<g>
	<path fill="#FFFFFF" d="M10.902,50.757v4.2h-0.78v-3.546H9.234v-0.654H10.902z"/>
	<path fill="#FFFFFF" d="M12.588,54.761c-0.264-0.17-0.472-0.418-0.624-0.744c-0.152-0.325-0.228-0.713-0.228-1.16
		c0-0.448,0.076-0.835,0.228-1.161c0.152-0.326,0.36-0.574,0.624-0.744c0.264-0.17,0.564-0.255,0.9-0.255s0.637,0.085,0.903,0.255
		s0.475,0.418,0.627,0.744s0.228,0.713,0.228,1.161c0,0.447-0.076,0.835-0.228,1.16c-0.152,0.326-0.361,0.574-0.627,0.744
		s-0.567,0.255-0.903,0.255S12.852,54.931,12.588,54.761z M14.199,53.967c0.174-0.248,0.261-0.618,0.261-1.109
		c0-0.492-0.087-0.862-0.261-1.11s-0.411-0.372-0.711-0.372c-0.296,0-0.531,0.124-0.705,0.372s-0.261,0.618-0.261,1.11
		c0,0.491,0.087,0.861,0.261,1.109s0.409,0.372,0.705,0.372C13.788,54.339,14.025,54.215,14.199,53.967z"/>
	<path fill="#FFFFFF" d="M16.626,54.761c-0.264-0.17-0.472-0.418-0.624-0.744c-0.152-0.325-0.228-0.713-0.228-1.16
		c0-0.448,0.076-0.835,0.228-1.161c0.152-0.326,0.36-0.574,0.624-0.744s0.564-0.255,0.899-0.255c0.336,0,0.639,0.085,0.904,0.255
		s0.475,0.418,0.627,0.744s0.229,0.713,0.229,1.161c0,0.447-0.076,0.835-0.229,1.16c-0.152,0.326-0.361,0.574-0.627,0.744
		s-0.568,0.255-0.904,0.255C17.19,55.016,16.891,54.931,16.626,54.761z M18.236,53.967c0.176-0.248,0.262-0.618,0.262-1.109
		c0-0.492-0.086-0.862-0.262-1.11c-0.174-0.248-0.41-0.372-0.711-0.372c-0.295,0-0.53,0.124-0.704,0.372s-0.261,0.618-0.261,1.11
		c0,0.491,0.087,0.861,0.261,1.109s0.409,0.372,0.704,0.372C17.826,54.339,18.063,54.215,18.236,53.967z"/>
	<path fill="#FFFFFF" d="M20.664,54.761c-0.265-0.17-0.473-0.418-0.624-0.744c-0.152-0.325-0.229-0.713-0.229-1.16
		c0-0.448,0.076-0.835,0.229-1.161c0.151-0.326,0.359-0.574,0.624-0.744c0.264-0.17,0.563-0.255,0.899-0.255
		s0.638,0.085,0.903,0.255s0.475,0.418,0.627,0.744s0.229,0.713,0.229,1.161c0,0.447-0.076,0.835-0.229,1.16
		c-0.152,0.326-0.361,0.574-0.627,0.744s-0.567,0.255-0.903,0.255S20.928,54.931,20.664,54.761z M22.274,53.967
		c0.175-0.248,0.262-0.618,0.262-1.109c0-0.492-0.087-0.862-0.262-1.11c-0.174-0.248-0.41-0.372-0.711-0.372
		c-0.296,0-0.53,0.124-0.705,0.372c-0.174,0.248-0.261,0.618-0.261,1.11c0,0.491,0.087,0.861,0.261,1.109
		c0.175,0.248,0.409,0.372,0.705,0.372C21.864,54.339,22.101,54.215,22.274,53.967z"/>
</g>
<g>
	<g>
		<path id="SVGID_1_" fill="#FFFFFF" d="M19.827,5.606"/>
	</g>
	<g>
		<path id="SVGID_2_" fill="#FFFFFF" d="M3.55,14.186c0,0.579,0.405,1.034,1.048,1.337c0.644,0.304,1.468,0.46,2.174,0.46
			c0.707,0,1.364-0.177,1.917-0.482c0.552-0.306,0.998-0.738,1.281-1.251c0.284,0.513,0.73,0.945,1.282,1.251
			s1.21,0.482,1.916,0.482c0.707,0,1.364-0.177,1.917-0.482c0.552-0.306,0.998-0.738,1.282-1.251
			c0.282,0.513,0.729,0.945,1.282,1.251s1.209,0.482,1.916,0.482s1.363-0.177,1.916-0.482s0.998-0.738,1.283-1.251
			c0.281,0.513,0.729,0.945,1.281,1.251s1.209,0.482,1.916,0.482c0.705,0,1.363-0.177,1.916-0.482s1.006-0.765,1.289-1.276v7.115
			H3.55C3.55,14.186,3.55,14.186,3.55,14.186z"/>
	</g>
	<g>
		<path fill="none" d="M19.827,5.606"/>
	</g>
	<g>
		<g>
			<defs>
				<path id="SVGID_69_" d="M3.55,14.186c0,0.579,0.405,1.034,1.048,1.337c0.644,0.304,1.468,0.46,2.174,0.46
					c0.707,0,1.364-0.177,1.917-0.482c0.552-0.306,0.998-0.738,1.281-1.251c0.284,0.513,0.73,0.945,1.282,1.251
					s1.21,0.482,1.916,0.482c0.707,0,1.364-0.177,1.917-0.482c0.552-0.306,0.998-0.738,1.282-1.251
					c0.282,0.513,0.729,0.945,1.282,1.251s1.209,0.482,1.916,0.482s1.363-0.177,1.916-0.482s0.998-0.738,1.283-1.251
					c0.281,0.513,0.729,0.945,1.281,1.251s1.209,0.482,1.916,0.482c0.705,0,1.363-0.177,1.916-0.482s1.006-0.765,1.289-1.276v7.115
					H3.55C3.55,14.186,3.55,14.186,3.55,14.186z"/>
			</defs>
			<clipPath id="SVGID_70_">
				<use xlink:href="#SVGID_69_"  overflow="visible"/>
			</clipPath>
			<path clip-path="url(#SVGID_70_)" fill="none" d="M19.827,5.606"/>
		</g>
		<g>
			<defs>
				<path id="SVGID_71_" d="M3.55,14.186c0,0.579,0.405,1.034,1.048,1.337c0.644,0.304,1.468,0.46,2.174,0.46
					c0.707,0,1.364-0.177,1.917-0.482c0.552-0.306,0.998-0.738,1.281-1.251c0.284,0.513,0.73,0.945,1.282,1.251
					s1.21,0.482,1.916,0.482c0.707,0,1.364-0.177,1.917-0.482c0.552-0.306,0.998-0.738,1.282-1.251
					c0.282,0.513,0.729,0.945,1.282,1.251s1.209,0.482,1.916,0.482s1.363-0.177,1.916-0.482s0.998-0.738,1.283-1.251
					c0.281,0.513,0.729,0.945,1.281,1.251s1.209,0.482,1.916,0.482c0.705,0,1.363-0.177,1.916-0.482s1.006-0.765,1.289-1.276v7.115
					H3.55C3.55,14.186,3.55,14.186,3.55,14.186z"/>
			</defs>
			<clipPath id="SVGID_72_">
				<use xlink:href="#SVGID_71_"  overflow="visible"/>
			</clipPath>
			<polygon clip-path="url(#SVGID_72_)" fill="#FFFFFF" points="29.21,21.02 3.496,21.001 3.496,16.619 29.21,16.639 			"/>
		</g>
	</g>
</g>
<path fill="#FFFFFF" stroke="#FFFFFF" stroke-miterlimit="10" d="M19.034,5.77l-2.5-2.5c-0.045-0.045-0.107-0.073-0.177-0.073
	s-0.132,0.028-0.177,0.073l-2.5,2.5c-0.045,0.046-0.073,0.108-0.073,0.177c0,0.139,0.112,0.25,0.25,0.25
	c0.069,0,0.132-0.027,0.177-0.073l2.073-2.073v8.171c0,0.139,0.112,0.299,0.25,0.299s0.25-0.161,0.25-0.299v-8.17l2.073,2.073
	c0.047,0.045,0.109,0.073,0.178,0.073c0.137,0,0.25-0.112,0.25-0.25C19.108,5.878,19.081,5.816,19.034,5.77"/>
<g>
	<path fill="#FFFFFF" d="M14.982,23.273c0.36,0.152,0.636,0.37,0.828,0.653c0.192,0.284,0.288,0.621,0.288,1.012
		c0,0.385-0.096,0.721-0.288,1.007s-0.468,0.505-0.828,0.657s-0.782,0.228-1.268,0.228H12.45v1.536h-1.04v-5.32h2.305
		C14.2,23.045,14.622,23.121,14.982,23.273z M14.698,25.72c0.234-0.182,0.353-0.443,0.353-0.782c0-0.34-0.117-0.601-0.353-0.783
		c-0.234-0.183-0.578-0.273-1.031-0.273H12.45v2.112h1.217C14.12,25.994,14.463,25.903,14.698,25.72z"/>
	<path fill="#FFFFFF" d="M21.649,27.536v0.829H17.45v-5.32h4.088v0.828h-3.049v1.383h2.705v0.813h-2.705v1.467H21.649L21.649,27.536
		z"/>
</g>
</svg>
