<?xml version="1.0" encoding="utf-8"?>
<!-- Generator: Adobe Illustrator 27.7.0, SVG Export Plug-In . SVG Version: 6.00 Build 0)  -->
<svg version="1.1" id="Livello_1" xmlns="http://www.w3.org/2000/svg" xmlns:xlink="http://www.w3.org/1999/xlink" x="0px" y="0px"
	width="38px" height="644px" viewBox="0 0 37.2 644.1" style="enable-background:new 0 0 37.2 644.1;" xml:space="preserve">
<style type="text/css">
	.st0{display:none;}
	.st1{display:inline;}
	.st2{clip-path:url(#SVGID_00000010287053175662918890000004041693919179910817_);fill:#FFFAFA;}
	.st3{clip-path:url(#SVGID_00000026880508947741547720000002710413736906971288_);fill:#FBD5D6;}
	.st4{clip-path:url(#SVGID_00000128443783318731849060000016295254052806364856_);fill:#F9C1C2;}
	.st5{clip-path:url(#SVGID_00000123440330731840061040000009231964092495318403_);fill:#FDEBEB;}
	.st6{clip-path:url(#SVGID_00000131328471470741010590000014570123876801047434_);fill:#F6ABAD;}
	.st7{clip-path:url(#SVGID_00000121258808041522470190000016938274315102772132_);fill:#F49799;}
	.st8{clip-path:url(#SVGID_00000064313613110447650910000001128175969549922488_);fill:#EC2426;}
	.st9{clip-path:url(#SVGID_00000013874427626453606770000010564167953507540110_);fill:#FCFC1E;}
	.st10{clip-path:url(#SVGID_00000181801589653931071720000014655050973805722298_);fill:#0B7F3F;}
	.st11{clip-path:url(#SVGID_00000065072126237630269510000014297562118285364119_);fill:#F7A426;}
	.st12{clip-path:url(#SVGID_00000102506574587690501070000000213897004510295976_);fill:#6FC9DC;}
	.st13{clip-path:url(#SVGID_00000176017054904129437260000004315142935319538819_);fill:#3F57B0;}
	.st14{display:none;fill:#3A332F;}
	.st15{display:none;fill:none;stroke:#3C3430;stroke-width:2.9317;stroke-miterlimit:9.7722;}
	.st16{display:inline;fill:#3C3530;}
	.st17{display:inline;fill:#FFFFFF;}
	.st18{display:none;fill:none;}
	.st19{display:none;enable-background:new    ;}
	.st20{fill:#39322E;}
	.st21{fill:#FFFFFF;}
	.st22{fill:none;}
	.st23{clip-path:url(#SVGID_00000098914541934150097150000000220009594762723713_);fill:none;}
	.st24{clip-path:url(#SVGID_00000000921763522382884830000014707341237844973979_);fill:#FFFFFF;}
	.st25{fill:#FFFFFF;stroke:#FFFFFF;stroke-width:0.9772;stroke-miterlimit:9.7722;}
	.st26{fill:none;stroke:#3C3430;stroke-width:3;stroke-miterlimit:10;}
	.st27{fill:#3C3530;}
	.st28{clip-path:url(#SVGID_00000008871410358113672660000013921424723799960748_);fill:#737374;}
	.st29{clip-path:url(#SVGID_00000106843188117773069690000000476997519411569566_);fill:#26216B;}
	.st30{clip-path:url(#SVGID_00000139984913769500519490000003784216658059440058_);fill:#3749A8;}
	.st31{clip-path:url(#SVGID_00000083793029942831833640000016026673859529435562_);fill:#5E5DB1;}
	.st32{clip-path:url(#SVGID_00000049211536530345650820000009778753822923994045_);fill:#8451A7;}
	.st33{clip-path:url(#SVGID_00000054946750683470662860000011659428741550406046_);fill:#A963AD;}
	.st34{clip-path:url(#SVGID_00000081611034566960185990000004035482452309197226_);fill:#EB2426;}
	.st35{clip-path:url(#SVGID_00000178175404761337227960000011425525562733764276_);fill:#F17C26;}
	.st36{clip-path:url(#SVGID_00000025432996763186360140000002313739058574154369_);fill:#F9B825;}
	.st37{clip-path:url(#SVGID_00000067948287690077802900000006212130883056747450_);fill:#E1E12D;}
	.st38{clip-path:url(#SVGID_00000136410367546855878180000017691529055500834945_);fill:#9AD543;}
	.st39{clip-path:url(#SVGID_00000127761824805995733640000000331067590838691758_);fill:#85CB46;}
	.st40{clip-path:url(#SVGID_00000084508481358480558230000012218448910322518718_);fill:#85CB9B;}
	.st41{clip-path:url(#SVGID_00000074402267301015313120000004377493076322411175_);fill:#4BBF93;}
	.st42{clip-path:url(#SVGID_00000116193331299452811150000010969182503071839400_);fill:#85CFB9;}
	.st43{clip-path:url(#SVGID_00000153666318441244554510000000246073487959817919_);fill:#C2E5E5;}
	.st44{clip-path:url(#SVGID_00000067198071671563887190000004799827088881138319_);fill:#FFFFFF;}
	.st45{fill:none;stroke:#3C3430;stroke-width:2.9317;stroke-miterlimit:9.7722;}
	.st46{fill:#3C3430;}
</style>
<circle class="st20" cx="18.5" cy="21.6" r="14.6"/>
<g>
	<g>
		<path id="SVGID_2_" class="st21" d="M6,20c0,0.6,0.4,1,1,1.3c0.6,0.3,1.4,0.4,2.1,0.4c0.7,0,1.3-0.2,1.9-0.5
			c0.5-0.3,1-0.7,1.3-1.2c0.3,0.5,0.7,0.9,1.3,1.2c0.5,0.3,1.2,0.5,1.9,0.5c0.7,0,1.3-0.2,1.9-0.5c0.5-0.3,1-0.7,1.3-1.2
			c0.3,0.5,0.7,0.9,1.3,1.2c0.5,0.3,1.2,0.5,1.9,0.5s1.3-0.2,1.9-0.5c0.5-0.3,1-0.7,1.3-1.2c0.3,0.5,0.7,0.9,1.3,1.2
			c0.5,0.3,1.2,0.5,1.9,0.5c0.7,0,1.3-0.2,1.9-0.5c0.5-0.3,1-0.7,1.3-1.2v7H6C6,20,6,20,6,20z"/>
	</g>
	<g>
		<g>
			<g>
				<defs>
					<path id="SVGID_00000114076057806570123040000005391516550675401101_" d="M6,20c0,0.6,0.4,1,1,1.3c0.6,0.3,1.4,0.4,2.1,0.4
						c0.7,0,1.3-0.2,1.9-0.5c0.5-0.3,1-0.7,1.3-1.2c0.3,0.5,0.7,0.9,1.3,1.2c0.5,0.3,1.2,0.5,1.9,0.5c0.7,0,1.3-0.2,1.9-0.5
						c0.5-0.3,1-0.7,1.3-1.2c0.3,0.5,0.7,0.9,1.3,1.2c0.5,0.3,1.2,0.5,1.9,0.5s1.3-0.2,1.9-0.5c0.5-0.3,1-0.7,1.3-1.2
						c0.3,0.5,0.7,0.9,1.3,1.2c0.5,0.3,1.2,0.5,1.9,0.5c0.7,0,1.3-0.2,1.9-0.5c0.5-0.3,1-0.7,1.3-1.2v7H6C6,20,6,20,6,20z"/>
				</defs>
				<clipPath id="SVGID_00000014596307397361417250000006424013032441300357_">
					<use xlink:href="#SVGID_00000114076057806570123040000005391516550675401101_"  style="overflow:visible;"/>
				</clipPath>
			</g>
		</g>
		<g>
			<g>
				<defs>
					<path id="SVGID_00000101070696425332253580000008770200747901519806_" d="M6,20c0,0.6,0.4,1,1,1.3c0.6,0.3,1.4,0.4,2.1,0.4
						c0.7,0,1.3-0.2,1.9-0.5c0.5-0.3,1-0.7,1.3-1.2c0.3,0.5,0.7,0.9,1.3,1.2c0.5,0.3,1.2,0.5,1.9,0.5c0.7,0,1.3-0.2,1.9-0.5
						c0.5-0.3,1-0.7,1.3-1.2c0.3,0.5,0.7,0.9,1.3,1.2c0.5,0.3,1.2,0.5,1.9,0.5s1.3-0.2,1.9-0.5c0.5-0.3,1-0.7,1.3-1.2
						c0.3,0.5,0.7,0.9,1.3,1.2c0.5,0.3,1.2,0.5,1.9,0.5c0.7,0,1.3-0.2,1.9-0.5c0.5-0.3,1-0.7,1.3-1.2v7H6C6,20,6,20,6,20z"/>
				</defs>
				<clipPath id="SVGID_00000013159105877233220750000011085028175105520285_">
					<use xlink:href="#SVGID_00000101070696425332253580000008770200747901519806_"  style="overflow:visible;"/>
				</clipPath>
				<polygon style="clip-path:url(#SVGID_00000013159105877233220750000011085028175105520285_);fill:#FFFFFF;" points="31.1,26.7 
					5.9,26.7 5.9,22.4 31.1,22.4 				"/>
			</g>
		</g>
	</g>
</g>
<path class="st25" d="M21.1,11.8l-2.4-2.4c0,0-0.1-0.1-0.2-0.1s-0.1,0-0.2,0.1l-2.4,2.4c0,0-0.1,0.1-0.1,0.2c0,0.1,0.1,0.2,0.2,0.2
	c0.1,0,0.1,0,0.2-0.1l2-2v8c0,0.1,0.1,0.3,0.2,0.3c0.1,0,0.2-0.2,0.2-0.3v-8l2,2c0,0,0.1,0.1,0.2,0.1c0.1,0,0.2-0.1,0.2-0.2
	C21.2,11.9,21.2,11.9,21.1,11.8"/>
<g>
	<path class="st21" d="M17.2,28.9c0.4,0.1,0.6,0.4,0.8,0.6c0.2,0.3,0.3,0.6,0.3,1c0,0.4-0.1,0.7-0.3,1s-0.5,0.5-0.8,0.6
		s-0.8,0.2-1.2,0.2h-1.2v1.5h-1v-5.2h2.3C16.4,28.7,16.8,28.8,17.2,28.9z M16.9,31.3c0.2-0.2,0.3-0.4,0.3-0.8c0-0.3-0.1-0.6-0.3-0.8
		c-0.2-0.2-0.6-0.3-1-0.3h-1.2v2.1h1.2C16.3,31.6,16.6,31.5,16.9,31.3z"/>
	<path class="st21" d="M23.7,33.1v0.8h-4.1v-5.2h4v0.8h-3v1.4h2.6v0.8h-2.6v1.4H23.7L23.7,33.1z"/>
</g>
<path class="st26" d="M30.6,632.7c-0.3,3.7-6.4,8.1-11.7,8.1l0,0c-5.2,0.4-12.3-3.6-12.3-8.1V48.6c1.1-5.3,7.4-8.5,11.5-8.5l0,0
	c4.9,0,11.2,3.1,12.4,8.7V632.7L30.6,632.7z"/>
<g>
	<g>
		<path class="st27" d="M19.3,53h-1.4v1.8h-1.4V53h-4.3v-1l3.9-5.1h1.6L14,51.7h2.6v-1.6H18v1.6h1.4L19.3,53L19.3,53z"/>
		<path class="st27" d="M24.9,50.2c0.4,0.2,0.7,0.5,1,0.8c0.2,0.4,0.3,0.8,0.3,1.3s-0.1,1-0.4,1.3s-0.6,0.7-1,0.9s-0.9,0.3-1.5,0.3
			c-1.1,0-1.9-0.3-2.5-1s-0.9-1.6-0.9-2.9c0-0.9,0.2-1.6,0.5-2.3c0.3-0.6,0.8-1.1,1.4-1.4c0.6-0.3,1.3-0.5,2-0.5
			c0.4,0,0.8,0,1.1,0.1c0.4,0.1,0.7,0.2,0.9,0.4l-0.5,1.1c-0.4-0.3-0.9-0.4-1.5-0.4c-0.8,0-1.4,0.2-1.8,0.7s-0.6,1.1-0.6,2l0,0
			c0.2-0.3,0.5-0.5,0.9-0.6s0.8-0.2,1.2-0.2C24,49.9,24.5,50,24.9,50.2z M24.4,53.4c0.3-0.2,0.4-0.6,0.4-1s-0.1-0.7-0.4-1
			c-0.3-0.2-0.7-0.4-1.2-0.4s-0.9,0.1-1.2,0.4s-0.4,0.6-0.4,1s0.1,0.7,0.4,1s0.7,0.4,1.2,0.4C23.7,53.7,24.1,53.6,24.4,53.4z"/>
	</g>
</g>
<g>
	<g>
		<defs>
			<path id="SVGID_00000084496055203696555100000014434052696372304571_" d="M30.8,632.2c0,4-6.8,8.8-12,8.8h-0.7
				c-4.9,0-11.3-4.2-11.3-8.8V48c1.2-5.4,7.4-8.5,11.6-8.5l0,0c4.9,0,11.2,3.2,12.5,8.7L30.8,632.2L30.8,632.2z"/>
		</defs>
		<clipPath id="SVGID_00000012431802317398905530000010334454188372712089_">
			<use xlink:href="#SVGID_00000084496055203696555100000014434052696372304571_"  style="overflow:visible;"/>
		</clipPath>
		
			<rect x="-5.8" y="39.9" style="clip-path:url(#SVGID_00000012431802317398905530000010334454188372712089_);fill:#737374;" width="57.5" height="34.6"/>
	</g>
	<g>
		<defs>
			<path id="SVGID_00000083058033071898634750000005061952977904780691_" d="M30.8,632.2c0,4-6.8,8.8-12,8.8h-0.7
				c-4.9,0-11.3-4.2-11.3-8.8V48c1.2-5.4,7.4-8.5,11.6-8.5l0,0c4.9,0,11.2,3.2,12.5,8.7L30.8,632.2L30.8,632.2z"/>
		</defs>
		<clipPath id="SVGID_00000053512392973530641780000018436776452061898665_">
			<use xlink:href="#SVGID_00000083058033071898634750000005061952977904780691_"  style="overflow:visible;"/>
		</clipPath>
		
			<rect x="-5.8" y="74.5" style="clip-path:url(#SVGID_00000053512392973530641780000018436776452061898665_);fill:#26216B;" width="57.5" height="34.6"/>
	</g>
	<g>
		<defs>
			<path id="SVGID_00000043424208860479811570000017743603451141760702_" d="M30.8,632.2c0,4-6.8,8.8-12,8.8h-0.7
				c-4.9,0-11.3-4.2-11.3-8.8V48c1.2-5.4,7.4-8.5,11.6-8.5l0,0c4.9,0,11.2,3.2,12.5,8.7L30.8,632.2L30.8,632.2z"/>
		</defs>
		<clipPath id="SVGID_00000043458405027678214950000009773910339187080320_">
			<use xlink:href="#SVGID_00000043424208860479811570000017743603451141760702_"  style="overflow:visible;"/>
		</clipPath>
		
			<rect x="-5.8" y="109" style="clip-path:url(#SVGID_00000043458405027678214950000009773910339187080320_);fill:#3749A8;" width="57.5" height="34.6"/>
	</g>
	<g>
		<defs>
			<path id="SVGID_00000132089656513269421870000000941450336506170806_" d="M30.8,632.2c0,4-6.8,8.8-12,8.8h-0.7
				c-4.9,0-11.3-4.2-11.3-8.8V48c1.2-5.4,7.4-8.5,11.6-8.5l0,0c4.9,0,11.2,3.2,12.5,8.7L30.8,632.2L30.8,632.2z"/>
		</defs>
		<clipPath id="SVGID_00000049928650255751588460000006286873131252705197_">
			<use xlink:href="#SVGID_00000132089656513269421870000000941450336506170806_"  style="overflow:visible;"/>
		</clipPath>
		
			<rect x="-5.8" y="143.2" style="clip-path:url(#SVGID_00000049928650255751588460000006286873131252705197_);fill:#5E5DB1;" width="57.5" height="34.6"/>
	</g>
	<g>
		<defs>
			<path id="SVGID_00000165196024428238796500000009832788335640512411_" d="M30.8,632.2c0,4-6.8,8.8-12,8.8h-0.7
				c-4.9,0-11.3-4.2-11.3-8.8V48c1.2-5.4,7.4-8.5,11.6-8.5l0,0c4.9,0,11.2,3.2,12.5,8.7L30.8,632.2L30.8,632.2z"/>
		</defs>
		<clipPath id="SVGID_00000045613938482222966550000002252722984596596381_">
			<use xlink:href="#SVGID_00000165196024428238796500000009832788335640512411_"  style="overflow:visible;"/>
		</clipPath>
		
			<rect x="-5.8" y="177.8" style="clip-path:url(#SVGID_00000045613938482222966550000002252722984596596381_);fill:#8451A7;" width="57.5" height="34.6"/>
	</g>
	<g>
		<defs>
			<path id="SVGID_00000176007210793914032160000011620186489306078864_" d="M30.8,632.2c0,4-6.8,8.8-12,8.8h-0.7
				c-4.9,0-11.3-4.2-11.3-8.8V48c1.2-5.4,7.4-8.5,11.6-8.5l0,0c4.9,0,11.2,3.2,12.5,8.7L30.8,632.2L30.8,632.2z"/>
		</defs>
		<clipPath id="SVGID_00000078033174478311942900000014929222349326174129_">
			<use xlink:href="#SVGID_00000176007210793914032160000011620186489306078864_"  style="overflow:visible;"/>
		</clipPath>
		
			<rect x="-5.8" y="212.4" style="clip-path:url(#SVGID_00000078033174478311942900000014929222349326174129_);fill:#A963AD;" width="57.5" height="34.6"/>
	</g>
	<g>
		<defs>
			<path id="SVGID_00000093169373791589858210000011929101824051300768_" d="M30.8,632.2c0,4-6.8,8.8-12,8.8h-0.7
				c-4.9,0-11.3-4.2-11.3-8.8V48c1.2-5.4,7.4-8.5,11.6-8.5l0,0c4.9,0,11.2,3.2,12.5,8.7L30.8,632.2L30.8,632.2z"/>
		</defs>
		<clipPath id="SVGID_00000095298578926126831940000013065219135420639416_">
			<use xlink:href="#SVGID_00000093169373791589858210000011929101824051300768_"  style="overflow:visible;"/>
		</clipPath>
		
			<rect x="-5.8" y="247" style="clip-path:url(#SVGID_00000095298578926126831940000013065219135420639416_);fill:#EB2426;" width="57.5" height="34.6"/>
	</g>
	<g>
		<defs>
			<path id="SVGID_00000091729824095555715550000007790874491854357180_" d="M30.8,632.2c0,4-6.8,8.8-12,8.8h-0.7
				c-4.9,0-11.3-4.2-11.3-8.8V48c1.2-5.4,7.4-8.5,11.6-8.5l0,0c4.9,0,11.2,3.2,12.5,8.7L30.8,632.2L30.8,632.2z"/>
		</defs>
		<clipPath id="SVGID_00000008842190385620018720000015897274398197017511_">
			<use xlink:href="#SVGID_00000091729824095555715550000007790874491854357180_"  style="overflow:visible;"/>
		</clipPath>
		
			<rect x="-5.8" y="281.1" style="clip-path:url(#SVGID_00000008842190385620018720000015897274398197017511_);fill:#F17C26;" width="57.5" height="34.6"/>
	</g>
	<g>
		<defs>
			<path id="SVGID_00000035491630916812968290000017534673522819511979_" d="M30.8,632.2c0,4-6.8,8.8-12,8.8h-0.7
				c-4.9,0-11.3-4.2-11.3-8.8V48c1.2-5.4,7.4-8.5,11.6-8.5l0,0c4.9,0,11.2,3.2,12.5,8.7L30.8,632.2L30.8,632.2z"/>
		</defs>
		<clipPath id="SVGID_00000093146647719398080040000011089518330774141085_">
			<use xlink:href="#SVGID_00000035491630916812968290000017534673522819511979_"  style="overflow:visible;"/>
		</clipPath>
		
			<rect x="-5.8" y="315.7" style="clip-path:url(#SVGID_00000093146647719398080040000011089518330774141085_);fill:#F9B825;" width="57.5" height="34.6"/>
	</g>
	<g>
		<defs>
			<path id="SVGID_00000144329647160369632410000015616988970112319130_" d="M30.8,632.2c0,4-6.8,8.8-12,8.8h-0.7
				c-4.9,0-11.3-4.2-11.3-8.8V48c1.2-5.4,7.4-8.5,11.6-8.5l0,0c4.9,0,11.2,3.2,12.5,8.7L30.8,632.2L30.8,632.2z"/>
		</defs>
		<clipPath id="SVGID_00000017514509360341298360000008951560424990108092_">
			<use xlink:href="#SVGID_00000144329647160369632410000015616988970112319130_"  style="overflow:visible;"/>
		</clipPath>
		
			<rect x="-5.8" y="350.3" style="clip-path:url(#SVGID_00000017514509360341298360000008951560424990108092_);fill:#E1E12D;" width="57.5" height="34.6"/>
	</g>
	<g>
		<defs>
			<path id="SVGID_00000051362132127000560910000007187116405241691554_" d="M30.8,632.2c0,4-6.8,8.8-12,8.8h-0.7
				c-4.9,0-11.3-4.2-11.3-8.8V48c1.2-5.4,7.4-8.5,11.6-8.5l0,0c4.9,0,11.2,3.2,12.5,8.7L30.8,632.2L30.8,632.2z"/>
		</defs>
		<clipPath id="SVGID_00000158009031005474674580000001296379711542068625_">
			<use xlink:href="#SVGID_00000051362132127000560910000007187116405241691554_"  style="overflow:visible;"/>
		</clipPath>
		
			<rect x="-5.8" y="384.9" style="clip-path:url(#SVGID_00000158009031005474674580000001296379711542068625_);fill:#9AD543;" width="57.5" height="34.6"/>
	</g>
	<g>
		<defs>
			<path id="SVGID_00000008125834470546648310000002734323262186473600_" d="M30.8,632.2c0,4-6.8,8.8-12,8.8h-0.7
				c-4.9,0-11.3-4.2-11.3-8.8V48c1.2-5.4,7.4-8.5,11.6-8.5l0,0c4.9,0,11.2,3.2,12.5,8.7L30.8,632.2L30.8,632.2z"/>
		</defs>
		<clipPath id="SVGID_00000005232005501351888100000002153508336271370135_">
			<use xlink:href="#SVGID_00000008125834470546648310000002734323262186473600_"  style="overflow:visible;"/>
		</clipPath>
		
			<rect x="-5.8" y="419.1" style="clip-path:url(#SVGID_00000005232005501351888100000002153508336271370135_);fill:#85CB46;" width="57.5" height="34.6"/>
	</g>
	<g>
		<defs>
			<path id="SVGID_00000109001935148504993880000002640858706713317790_" d="M30.8,632.2c0,4-6.8,8.8-12,8.8h-0.7
				c-4.9,0-11.3-4.2-11.3-8.8V48c1.2-5.4,7.4-8.5,11.6-8.5l0,0c4.9,0,11.2,3.2,12.5,8.7L30.8,632.2L30.8,632.2z"/>
		</defs>
		<clipPath id="SVGID_00000071525357207840807720000016569150104023047567_">
			<use xlink:href="#SVGID_00000109001935148504993880000002640858706713317790_"  style="overflow:visible;"/>
		</clipPath>
		
			<rect x="-5.8" y="453.7" style="clip-path:url(#SVGID_00000071525357207840807720000016569150104023047567_);fill:#85CB9B;" width="57.5" height="34.6"/>
	</g>
	<g>
		<defs>
			<path id="SVGID_00000153674336339695012110000011616618066733719723_" d="M30.8,632.2c0,4-6.8,8.8-12,8.8h-0.7
				c-4.9,0-11.3-4.2-11.3-8.8V48c1.2-5.4,7.4-8.5,11.6-8.5l0,0c4.9,0,11.2,3.2,12.5,8.7L30.8,632.2L30.8,632.2z"/>
		</defs>
		<clipPath id="SVGID_00000010287150953219991750000013318163478387787406_">
			<use xlink:href="#SVGID_00000153674336339695012110000011616618066733719723_"  style="overflow:visible;"/>
		</clipPath>
		
			<rect x="-5.8" y="488.2" style="clip-path:url(#SVGID_00000010287150953219991750000013318163478387787406_);fill:#4BBF93;" width="57.5" height="34.6"/>
	</g>
	<g>
		<defs>
			<path id="SVGID_00000155864176338403466640000011210633503909726857_" d="M30.8,632.2c0,4-6.8,8.8-12,8.8h-0.7
				c-4.9,0-11.3-4.2-11.3-8.8V48c1.2-5.4,7.4-8.5,11.6-8.5l0,0c4.9,0,11.2,3.2,12.5,8.7L30.8,632.2L30.8,632.2z"/>
		</defs>
		<clipPath id="SVGID_00000088840663369367526990000015264414021101993148_">
			<use xlink:href="#SVGID_00000155864176338403466640000011210633503909726857_"  style="overflow:visible;"/>
		</clipPath>
		
			<rect x="-5.8" y="522.8" style="clip-path:url(#SVGID_00000088840663369367526990000015264414021101993148_);fill:#85CFB9;" width="57.5" height="34.6"/>
	</g>
	<g>
		<defs>
			<path id="SVGID_00000109720862605155033530000005904227824528057473_" d="M30.8,632.2c0,4-6.8,8.8-12,8.8h-0.7
				c-4.9,0-11.3-4.2-11.3-8.8V48c1.2-5.4,7.4-8.5,11.6-8.5l0,0c4.9,0,11.2,3.2,12.5,8.7L30.8,632.2L30.8,632.2z"/>
		</defs>
		<clipPath id="SVGID_00000054237790042990312650000013627332065993118388_">
			<use xlink:href="#SVGID_00000109720862605155033530000005904227824528057473_"  style="overflow:visible;"/>
		</clipPath>
		
			<rect x="-5.8" y="557.4" style="clip-path:url(#SVGID_00000054237790042990312650000013627332065993118388_);fill:#C2E5E5;" width="57.5" height="34.6"/>
	</g>
	<g>
		<defs>
			<path id="SVGID_00000114761551402519211850000002512219255180789130_" d="M30.8,632.2c0,4-6.8,8.8-12,8.8h-0.7
				c-4.9,0-11.3-4.2-11.3-8.8V48c1.2-5.4,7.4-8.5,11.6-8.5l0,0c4.9,0,11.2,3.2,12.5,8.7L30.8,632.2L30.8,632.2z"/>
		</defs>
		<clipPath id="SVGID_00000124856855996044443680000002735977069187649702_">
			<use xlink:href="#SVGID_00000114761551402519211850000002512219255180789130_"  style="overflow:visible;"/>
		</clipPath>
		
			<rect x="-5.8" y="592" style="clip-path:url(#SVGID_00000124856855996044443680000002735977069187649702_);fill:#FFFFFF;" width="57.5" height="52.2"/>
	</g>
</g>
<path class="st45" d="M30.8,632.8c-0.4,3.7-6.4,8.2-11.7,8.2l0,0c-5.2,0.4-12.4-3.6-12.4-8.2V48.6c1.2-5.4,7.4-8.5,11.6-8.5l0,0
	c4.9,0,11.2,3.2,12.5,8.7L30.8,632.8L30.8,632.8z"/>
<g>
	<path class="st46" d="M17.6,622.9c0.4,0.3,0.5,0.8,0.5,1.5v2.7H17v-2.5c0-0.4-0.1-0.7-0.3-0.9c-0.2-0.2-0.5-0.3-0.8-0.3
		c-0.4,0-0.7,0.1-0.9,0.4c-0.2,0.2-0.3,0.6-0.3,1v2.4h-1.1v-2.5c0-0.4-0.1-0.7-0.3-0.9c-0.2-0.2-0.5-0.3-0.8-0.3
		c-0.4,0-0.7,0.1-0.9,0.4c-0.2,0.2-0.3,0.6-0.3,1v2.4H10v-4.6h1.1v0.6c0.2-0.2,0.4-0.4,0.7-0.5c0.3-0.1,0.6-0.2,0.9-0.2
		c0.4,0,0.7,0.1,1,0.2c0.3,0.1,0.5,0.3,0.7,0.6c0.2-0.2,0.5-0.4,0.8-0.6c0.3-0.1,0.7-0.2,1-0.2C16.7,622.3,17.2,622.5,17.6,622.9z"
		/>
	<path class="st46" d="M27.2,622.9c0.4,0.3,0.5,0.8,0.5,1.5v2.7h-1.1v-2.5c0-0.4-0.1-0.7-0.3-0.9c-0.2-0.2-0.5-0.3-0.8-0.3
		c-0.4,0-0.7,0.1-0.9,0.4c-0.2,0.2-0.3,0.6-0.3,1v2.4h-1.1v-2.5c0-0.4-0.1-0.7-0.3-0.9c-0.2-0.2-0.5-0.3-0.8-0.3
		c-0.4,0-0.7,0.1-0.9,0.4c-0.2,0.2-0.3,0.6-0.3,1v2.4h-1.1v-4.6h1.1v0.6c0.2-0.2,0.4-0.4,0.7-0.5s0.6-0.2,0.9-0.2
		c0.4,0,0.7,0.1,1,0.2c0.3,0.1,0.5,0.3,0.7,0.6c0.2-0.2,0.5-0.4,0.8-0.6c0.3-0.1,0.7-0.2,1-0.2C26.3,622.3,26.8,622.5,27.2,622.9z"
		/>
</g>
<g>
	<path class="st46" d="M12.7,611.6c-0.5-0.3-0.9-0.8-1.1-1.4c-0.3-0.6-0.4-1.3-0.4-2.1s0.1-1.5,0.4-2.1c0.3-0.6,0.7-1.1,1.1-1.4
		c0.5-0.3,1-0.5,1.7-0.5c0.6,0,1.2,0.2,1.7,0.5c0.5,0.3,0.9,0.8,1.1,1.4s0.4,1.3,0.4,2.1s-0.1,1.5-0.4,2.1s-0.7,1.1-1.1,1.4
		c-0.5,0.3-1,0.5-1.7,0.5C13.7,612.1,13.2,612,12.7,611.6z M15.7,610.2c0.3-0.5,0.5-1.1,0.5-2c0-0.9-0.2-1.6-0.5-2
		c-0.3-0.5-0.8-0.7-1.3-0.7c-0.5,0-1,0.2-1.3,0.7c-0.3,0.5-0.5,1.1-0.5,2c0,0.9,0.2,1.6,0.5,2c0.3,0.5,0.8,0.7,1.3,0.7
		C14.9,610.9,15.3,610.6,15.7,610.2z"/>
	<path class="st46" d="M18.6,611.8c-0.2-0.2-0.3-0.4-0.3-0.7c0-0.3,0.1-0.5,0.3-0.7c0.2-0.2,0.4-0.3,0.6-0.3s0.5,0.1,0.6,0.3
		c0.2,0.2,0.3,0.4,0.3,0.7c0,0.3-0.1,0.5-0.3,0.7c-0.2,0.2-0.4,0.3-0.6,0.3S18.8,612,18.6,611.8z"/>
	<path class="st46" d="M25.9,607.9c0.5,0.4,0.8,1,0.8,1.7c0,0.5-0.1,0.9-0.3,1.3c-0.2,0.4-0.6,0.7-1,0.9c-0.5,0.2-1,0.3-1.7,0.3
		c-0.5,0-1.1-0.1-1.6-0.2c-0.5-0.2-0.9-0.4-1.3-0.7l0.6-1.1c0.3,0.2,0.6,0.4,1,0.6c0.4,0.1,0.8,0.2,1.2,0.2c0.5,0,0.9-0.1,1.2-0.3
		c0.3-0.2,0.4-0.5,0.4-0.9c0-0.4-0.2-0.7-0.5-0.9c-0.3-0.2-0.8-0.3-1.6-0.3h-1.9l0.4-4.2h4.5v1.2h-3.3l-0.2,1.8h0.7
		C24.6,607.3,25.4,607.5,25.9,607.9z"/>
</g>
<g>
	<path class="st46" d="M21.7,577.8v1.2H16v-1l3.1-2.9c0.3-0.3,0.6-0.6,0.7-0.9c0.1-0.2,0.2-0.5,0.2-0.7c0-0.4-0.1-0.6-0.4-0.8
		c-0.2-0.2-0.6-0.3-1.1-0.3c-0.8,0-1.4,0.3-1.8,0.8l-1-0.8c0.3-0.4,0.7-0.7,1.2-0.9s1.1-0.3,1.7-0.3c0.8,0,1.5,0.2,2,0.6
		c0.5,0.4,0.7,0.9,0.7,1.6c0,0.4-0.1,0.8-0.3,1.2c-0.2,0.4-0.5,0.8-1,1.3l-2.1,2H21.7z"/>
</g>
<g>
	<path class="st46" d="M20.7,540.2c0.5,0.4,0.8,1,0.8,1.7c0,0.5-0.1,0.9-0.3,1.3c-0.2,0.4-0.6,0.7-1,0.9c-0.5,0.2-1,0.3-1.7,0.3
		c-0.5,0-1.1-0.1-1.6-0.2c-0.5-0.2-0.9-0.4-1.3-0.7l0.6-1.1c0.3,0.2,0.6,0.4,1,0.6c0.4,0.1,0.8,0.2,1.2,0.2c0.5,0,0.9-0.1,1.2-0.3
		c0.3-0.2,0.4-0.5,0.4-0.9c0-0.4-0.2-0.7-0.5-0.9c-0.3-0.2-0.8-0.3-1.6-0.3h-1.9l0.4-4.2H21v1.2h-3.3l-0.2,1.8h0.7
		C19.4,539.5,20.2,539.8,20.7,540.2z"/>
</g>
<g>
	<path class="st46" d="M16,502v7.7h-1.4v-6.5h-1.6V502H16z"/>
	<path class="st46" d="M19,509.4c-0.5-0.3-0.9-0.8-1.1-1.4c-0.3-0.6-0.4-1.3-0.4-2.1s0.1-1.5,0.4-2.1c0.3-0.6,0.7-1.1,1.1-1.4
		c0.5-0.3,1-0.5,1.7-0.5c0.6,0,1.2,0.2,1.7,0.5c0.5,0.3,0.9,0.8,1.1,1.4s0.4,1.3,0.4,2.1s-0.1,1.5-0.4,2.1s-0.7,1.1-1.1,1.4
		c-0.5,0.3-1,0.5-1.7,0.5C20.1,509.8,19.5,509.7,19,509.4z M22,507.9c0.3-0.5,0.5-1.1,0.5-2c0-0.9-0.2-1.6-0.5-2
		c-0.3-0.5-0.8-0.7-1.3-0.7c-0.5,0-1,0.2-1.3,0.7c-0.3,0.5-0.5,1.1-0.5,2c0,0.9,0.2,1.6,0.5,2c0.3,0.5,0.8,0.7,1.3,0.7
		C21.2,508.6,21.7,508.4,22,507.9z"/>
</g>
<g>
	<path class="st46" d="M17.8,474v1.2h-5.7v-1l3.1-2.9c0.3-0.3,0.6-0.6,0.7-0.9c0.1-0.2,0.2-0.5,0.2-0.7c0-0.4-0.1-0.6-0.4-0.8
		c-0.2-0.2-0.6-0.3-1.1-0.3c-0.8,0-1.4,0.3-1.8,0.8l-1-0.8c0.3-0.4,0.7-0.7,1.2-0.9s1.1-0.3,1.7-0.3c0.8,0,1.5,0.2,2,0.6
		c0.5,0.4,0.7,0.9,0.7,1.6c0,0.4-0.1,0.8-0.3,1.2c-0.2,0.4-0.5,0.8-1,1.3l-2.1,2H17.8z"/>
	<path class="st46" d="M20.1,474.8c-0.5-0.3-0.9-0.8-1.1-1.4c-0.3-0.6-0.4-1.3-0.4-2.1s0.1-1.5,0.4-2.1c0.3-0.6,0.7-1.1,1.1-1.4
		c0.5-0.3,1-0.5,1.7-0.5c0.6,0,1.2,0.2,1.7,0.5c0.5,0.3,0.9,0.8,1.1,1.4s0.4,1.3,0.4,2.1s-0.1,1.5-0.4,2.1s-0.7,1.1-1.1,1.4
		c-0.5,0.3-1,0.5-1.7,0.5C21.2,475.3,20.6,475.1,20.1,474.8z M23.1,473.4c0.3-0.5,0.5-1.1,0.5-2c0-0.9-0.2-1.6-0.5-2
		c-0.3-0.5-0.8-0.7-1.3-0.7c-0.5,0-1,0.2-1.3,0.7c-0.3,0.5-0.5,1.1-0.5,2c0,0.9,0.2,1.6,0.5,2c0.3,0.5,0.8,0.7,1.3,0.7
		C22.3,474,22.8,473.8,23.1,473.4z"/>
</g>
<g>
	<path class="st46" d="M17.3,436.8c0.4,0.4,0.6,0.9,0.6,1.5c0,0.4-0.1,0.9-0.3,1.2c-0.2,0.4-0.6,0.7-1,0.9c-0.5,0.2-1,0.3-1.7,0.3
		c-0.6,0-1.1-0.1-1.6-0.2c-0.5-0.2-0.9-0.4-1.3-0.7l0.6-1.1c0.3,0.2,0.6,0.4,1,0.6c0.4,0.1,0.8,0.2,1.2,0.2c0.5,0,0.9-0.1,1.2-0.3
		c0.3-0.2,0.4-0.5,0.4-0.9s-0.1-0.6-0.4-0.8c-0.3-0.2-0.7-0.3-1.3-0.3H14v-1l1.7-2.1h-3.5v-1.2h5.2v1l-1.9,2.2
		C16.4,436.2,16.9,436.4,17.3,436.8z"/>
	<path class="st46" d="M20.3,440.3c-0.5-0.3-0.9-0.8-1.1-1.4c-0.3-0.6-0.4-1.3-0.4-2.1s0.1-1.5,0.4-2.1c0.3-0.6,0.7-1.1,1.1-1.4
		c0.5-0.3,1-0.5,1.7-0.5c0.6,0,1.2,0.2,1.7,0.5c0.5,0.3,0.9,0.8,1.1,1.4s0.4,1.3,0.4,2.1s-0.1,1.5-0.4,2.1s-0.7,1.1-1.1,1.4
		c-0.5,0.3-1,0.5-1.7,0.5C21.4,440.7,20.8,440.6,20.3,440.3z M23.3,438.8c0.3-0.5,0.5-1.1,0.5-2c0-0.9-0.2-1.6-0.5-2
		c-0.3-0.5-0.8-0.7-1.3-0.7c-0.5,0-1,0.2-1.3,0.7c-0.3,0.5-0.5,1.1-0.5,2c0,0.9,0.2,1.6,0.5,2c0.3,0.5,0.8,0.7,1.3,0.7
		C22.5,439.5,23,439.3,23.3,438.8z"/>
</g>
<g>
	<path class="st46" d="M18.7,404.5h-1.4v1.7H16v-1.7h-4.2v-1l3.8-5h1.5l-3.6,4.7H16v-1.6h1.3v1.6h1.4V404.5z"/>
	<path class="st46" d="M20.9,405.9c-0.5-0.3-0.9-0.8-1.1-1.4c-0.3-0.6-0.4-1.3-0.4-2.1s0.1-1.5,0.4-2.1c0.3-0.6,0.7-1.1,1.1-1.4
		c0.5-0.3,1-0.5,1.7-0.5c0.6,0,1.2,0.2,1.7,0.5c0.5,0.3,0.9,0.8,1.1,1.4s0.4,1.3,0.4,2.1s-0.1,1.5-0.4,2.1s-0.7,1.1-1.1,1.4
		c-0.5,0.3-1,0.5-1.7,0.5C21.9,406.4,21.4,406.3,20.9,405.9z M23.8,404.5c0.3-0.5,0.5-1.1,0.5-2c0-0.9-0.2-1.6-0.5-2
		c-0.3-0.5-0.8-0.7-1.3-0.7c-0.5,0-1,0.2-1.3,0.7c-0.3,0.5-0.5,1.1-0.5,2c0,0.9,0.2,1.6,0.5,2c0.3,0.5,0.8,0.7,1.3,0.7
		C23.1,405.2,23.5,404.9,23.8,404.5z"/>
</g>
<g>
	<path class="st46" d="M17.2,367.6c0.5,0.4,0.8,1,0.8,1.7c0,0.5-0.1,0.9-0.3,1.3c-0.2,0.4-0.6,0.7-1,0.9c-0.5,0.2-1,0.3-1.7,0.3
		c-0.5,0-1.1-0.1-1.6-0.2c-0.5-0.2-0.9-0.4-1.3-0.7l0.6-1.1c0.3,0.2,0.6,0.4,1,0.6c0.4,0.1,0.8,0.2,1.2,0.2c0.5,0,0.9-0.1,1.2-0.3
		c0.3-0.2,0.4-0.5,0.4-0.9c0-0.4-0.2-0.7-0.5-0.9c-0.3-0.2-0.8-0.3-1.6-0.3h-1.9L13,364h4.5v1.2h-3.3l-0.2,1.8h0.7
		C15.9,366.9,16.7,367.1,17.2,367.6z"/>
	<path class="st46" d="M20.4,371.3c-0.5-0.3-0.9-0.8-1.1-1.4c-0.3-0.6-0.4-1.3-0.4-2.1s0.1-1.5,0.4-2.1c0.3-0.6,0.7-1.1,1.1-1.4
		c0.5-0.3,1-0.5,1.7-0.5c0.6,0,1.2,0.2,1.7,0.5c0.5,0.3,0.9,0.8,1.1,1.4s0.4,1.3,0.4,2.1s-0.1,1.5-0.4,2.1s-0.7,1.1-1.1,1.4
		c-0.5,0.3-1,0.5-1.7,0.5C21.4,371.8,20.9,371.6,20.4,371.3z M23.3,369.8c0.3-0.5,0.5-1.1,0.5-2c0-0.9-0.2-1.6-0.5-2
		c-0.3-0.5-0.8-0.7-1.3-0.7c-0.5,0-1,0.2-1.3,0.7c-0.3,0.5-0.5,1.1-0.5,2c0,0.9,0.2,1.6,0.5,2c0.3,0.5,0.8,0.7,1.3,0.7
		C22.6,370.5,23,370.3,23.3,369.8z"/>
</g>
<g>
	<path class="st46" d="M17,332.4c0.4,0.2,0.7,0.5,0.9,0.8s0.3,0.8,0.3,1.2c0,0.5-0.1,0.9-0.4,1.3s-0.6,0.7-1,0.9
		c-0.4,0.2-0.9,0.3-1.4,0.3c-1.1,0-1.9-0.3-2.5-1s-0.9-1.6-0.9-2.8c0-0.9,0.2-1.6,0.5-2.2s0.8-1.1,1.3-1.4c0.6-0.3,1.2-0.5,2-0.5
		c0.4,0,0.8,0,1.1,0.1c0.3,0.1,0.7,0.2,0.9,0.4l-0.5,1.1c-0.4-0.2-0.9-0.4-1.5-0.4c-0.7,0-1.3,0.2-1.7,0.7c-0.4,0.5-0.6,1.1-0.6,2v0
		c0.2-0.3,0.5-0.5,0.9-0.6c0.4-0.1,0.7-0.2,1.2-0.2C16.2,332.1,16.6,332.2,17,332.4z M16.5,335.5c0.3-0.2,0.4-0.6,0.4-1
		c0-0.4-0.1-0.7-0.4-1c-0.3-0.2-0.7-0.4-1.1-0.4c-0.5,0-0.8,0.1-1.1,0.4c-0.3,0.2-0.4,0.6-0.4,0.9c0,0.4,0.1,0.7,0.4,0.9
		c0.3,0.2,0.7,0.4,1.2,0.4C15.9,335.9,16.2,335.8,16.5,335.5z"/>
	<path class="st46" d="M20.6,336.5c-0.5-0.3-0.9-0.8-1.1-1.4c-0.3-0.6-0.4-1.3-0.4-2.1s0.1-1.5,0.4-2.1c0.3-0.6,0.7-1.1,1.1-1.4
		c0.5-0.3,1-0.5,1.7-0.5c0.6,0,1.2,0.2,1.7,0.5c0.5,0.3,0.9,0.8,1.1,1.4s0.4,1.3,0.4,2.1s-0.1,1.5-0.4,2.1s-0.7,1.1-1.1,1.4
		c-0.5,0.3-1,0.5-1.7,0.5C21.6,337,21.1,336.9,20.6,336.5z M23.6,335.1c0.3-0.5,0.5-1.1,0.5-2c0-0.9-0.2-1.6-0.5-2
		c-0.3-0.5-0.8-0.7-1.3-0.7c-0.5,0-1,0.2-1.3,0.7c-0.3,0.5-0.5,1.1-0.5,2c0,0.9,0.2,1.6,0.5,2c0.3,0.5,0.8,0.7,1.3,0.7
		C22.8,335.8,23.2,335.5,23.6,335.1z"/>
</g>
<g>
	<g>
		<path class="st21" d="M18,299.1c0.2,0.3,0.3,0.6,0.3,1c0,0.4-0.1,0.8-0.4,1.1c-0.2,0.3-0.6,0.6-1,0.7s-0.9,0.3-1.5,0.3
			s-1.1-0.1-1.5-0.3s-0.8-0.4-1-0.7c-0.2-0.3-0.3-0.7-0.3-1.1c0-0.4,0.1-0.7,0.3-1c0.2-0.3,0.5-0.5,0.8-0.7
			c-0.3-0.2-0.5-0.4-0.6-0.6s-0.2-0.5-0.2-0.9c0-0.4,0.1-0.7,0.3-1c0.2-0.3,0.5-0.5,0.9-0.7c0.4-0.2,0.8-0.2,1.4-0.2
			c0.5,0,1,0.1,1.4,0.2c0.4,0.2,0.7,0.4,0.9,0.7c0.2,0.3,0.3,0.6,0.3,1c0,0.3-0.1,0.6-0.2,0.9c-0.2,0.2-0.4,0.5-0.7,0.6
			C17.5,298.6,17.8,298.8,18,299.1z M16.6,300.8c0.3-0.2,0.4-0.5,0.4-0.8c0-0.3-0.1-0.6-0.4-0.8c-0.3-0.2-0.7-0.3-1.1-0.3
			s-0.9,0.1-1.1,0.3s-0.4,0.5-0.4,0.8c0,0.4,0.1,0.6,0.4,0.8s0.6,0.3,1.1,0.3S16.3,301,16.6,300.8z M14.5,296.2
			c-0.2,0.2-0.4,0.4-0.4,0.7c0,0.3,0.1,0.5,0.4,0.7c0.2,0.2,0.6,0.3,1,0.3c0.4,0,0.7-0.1,1-0.3c0.2-0.2,0.4-0.4,0.4-0.7
			c0-0.3-0.1-0.6-0.4-0.7c-0.2-0.2-0.6-0.3-1-0.3S14.7,296.1,14.5,296.2z"/>
		<path class="st21" d="M20.6,301.7c-0.4-0.3-0.8-0.7-1-1.2c-0.3-0.5-0.4-1.2-0.4-1.9c0-0.7,0.1-1.4,0.4-1.9c0.3-0.5,0.6-1,1-1.2
			c0.4-0.3,0.9-0.4,1.5-0.4c0.6,0,1.1,0.1,1.5,0.4s0.8,0.7,1,1.2c0.3,0.5,0.4,1.2,0.4,1.9c0,0.7-0.1,1.4-0.4,1.9
			c-0.3,0.5-0.6,1-1,1.2s-0.9,0.4-1.5,0.4C21.5,302.2,21,302,20.6,301.7z M23.3,300.4c0.3-0.4,0.4-1,0.4-1.8s-0.1-1.4-0.4-1.8
			c-0.3-0.4-0.7-0.6-1.2-0.6c-0.5,0-0.9,0.2-1.2,0.6c-0.3,0.4-0.4,1-0.4,1.8s0.1,1.4,0.4,1.8c0.3,0.4,0.7,0.6,1.2,0.6
			C22.6,301,23,300.8,23.3,300.4z"/>
	</g>
</g>
<g>
	<g>
		<path class="st21" d="M12.8,261v7h-1.3v-5.9h-1.5V261H12.8z"/>
		<path class="st21" d="M15.6,267.7c-0.4-0.3-0.8-0.7-1-1.2c-0.3-0.5-0.4-1.2-0.4-1.9c0-0.7,0.1-1.4,0.4-1.9c0.3-0.5,0.6-1,1-1.2
			c0.4-0.3,0.9-0.4,1.5-0.4c0.6,0,1.1,0.1,1.5,0.4s0.8,0.7,1,1.2c0.3,0.5,0.4,1.2,0.4,1.9c0,0.7-0.1,1.4-0.4,1.9
			c-0.3,0.5-0.6,1-1,1.2s-0.9,0.4-1.5,0.4C16.6,268.1,16.1,268,15.6,267.7z M18.3,266.4c0.3-0.4,0.4-1,0.4-1.8s-0.1-1.4-0.4-1.8
			c-0.3-0.4-0.7-0.6-1.2-0.6c-0.5,0-0.9,0.2-1.2,0.6c-0.3,0.4-0.4,1-0.4,1.8s0.1,1.4,0.4,1.8c0.3,0.4,0.7,0.6,1.2,0.6
			C17.6,267,18,266.8,18.3,266.4z"/>
		<path class="st21" d="M22.4,267.7c-0.4-0.3-0.8-0.7-1-1.2c-0.3-0.5-0.4-1.2-0.4-1.9c0-0.7,0.1-1.4,0.4-1.9c0.3-0.5,0.6-1,1-1.2
			c0.4-0.3,0.9-0.4,1.5-0.4c0.6,0,1.1,0.1,1.5,0.4s0.8,0.7,1,1.2c0.3,0.5,0.4,1.2,0.4,1.9c0,0.7-0.1,1.4-0.4,1.9
			c-0.3,0.5-0.6,1-1,1.2s-0.9,0.4-1.5,0.4C23.3,268.1,22.8,268,22.4,267.7z M25.1,266.4c0.3-0.4,0.4-1,0.4-1.8s-0.1-1.4-0.4-1.8
			c-0.3-0.4-0.7-0.6-1.2-0.6c-0.5,0-0.9,0.2-1.2,0.6c-0.3,0.4-0.4,1-0.4,1.8s0.1,1.4,0.4,1.8c0.3,0.4,0.7,0.6,1.2,0.6
			C24.4,267,24.8,266.8,25.1,266.4z"/>
	</g>
</g>
<g>
	<g>
		<path class="st21" d="M13.8,226.4v7h-1.3v-5.9h-1.5v-1.1H13.8z"/>
		<path class="st21" d="M20.3,232.3v1.1h-5.2v-0.9l2.8-2.6c0.3-0.3,0.5-0.6,0.6-0.8c0.1-0.2,0.2-0.4,0.2-0.7c0-0.3-0.1-0.6-0.3-0.8
			c-0.2-0.2-0.5-0.3-1-0.3c-0.7,0-1.3,0.2-1.6,0.7l-0.9-0.7c0.3-0.4,0.6-0.7,1.1-0.9c0.5-0.2,1-0.3,1.6-0.3c0.8,0,1.4,0.2,1.8,0.5
			c0.5,0.4,0.7,0.8,0.7,1.5c0,0.4-0.1,0.7-0.2,1.1c-0.2,0.3-0.5,0.7-0.9,1.1l-1.9,1.8H20.3z"/>
		<path class="st21" d="M25.4,229.7c0.5,0.4,0.7,0.9,0.7,1.6c0,0.4-0.1,0.8-0.3,1.1c-0.2,0.3-0.5,0.6-0.9,0.8s-0.9,0.3-1.5,0.3
			c-0.5,0-1-0.1-1.5-0.2c-0.5-0.1-0.9-0.3-1.2-0.6l0.5-1c0.3,0.2,0.6,0.4,0.9,0.5s0.7,0.2,1.1,0.2c0.5,0,0.8-0.1,1.1-0.3
			c0.3-0.2,0.4-0.5,0.4-0.8c0-0.4-0.1-0.6-0.4-0.8s-0.8-0.3-1.5-0.3h-1.7l0.4-3.8h4.1v1.1h-3l-0.2,1.6h0.7
			C24.2,229.1,24.9,229.3,25.4,229.7z"/>
	</g>
</g>
<g>
	<g>
		<path class="st21" d="M13.5,191.8v7h-1.3v-5.9h-1.5v-1.1H13.5z"/>
		<path class="st21" d="M19.3,195.1c0.5,0.4,0.7,0.9,0.7,1.6c0,0.4-0.1,0.8-0.3,1.1c-0.2,0.3-0.5,0.6-0.9,0.8s-0.9,0.3-1.5,0.3
			c-0.5,0-1-0.1-1.5-0.2c-0.5-0.1-0.9-0.3-1.2-0.6l0.5-1c0.3,0.2,0.6,0.4,0.9,0.5s0.7,0.2,1.1,0.2c0.5,0,0.8-0.1,1.1-0.3
			c0.3-0.2,0.4-0.5,0.4-0.8c0-0.4-0.1-0.6-0.4-0.8s-0.8-0.3-1.5-0.3h-1.7l0.4-3.8h4.1v1.1h-3l-0.2,1.6h0.7
			C18.1,194.6,18.8,194.7,19.3,195.1z"/>
		<path class="st21" d="M22.1,198.5c-0.4-0.3-0.8-0.7-1-1.2c-0.3-0.5-0.4-1.2-0.4-1.9c0-0.7,0.1-1.4,0.4-1.9c0.3-0.5,0.6-1,1-1.2
			c0.4-0.3,0.9-0.4,1.5-0.4c0.6,0,1.1,0.1,1.5,0.4s0.8,0.7,1,1.2c0.3,0.5,0.4,1.2,0.4,1.9c0,0.7-0.1,1.4-0.4,1.9
			c-0.3,0.5-0.6,1-1,1.2s-0.9,0.4-1.5,0.4C23.1,198.9,22.6,198.8,22.1,198.5z M24.8,197.2c0.3-0.4,0.4-1,0.4-1.8s-0.1-1.4-0.4-1.8
			c-0.3-0.4-0.7-0.6-1.2-0.6c-0.5,0-0.9,0.2-1.2,0.6c-0.3,0.4-0.4,1-0.4,1.8s0.1,1.4,0.4,1.8c0.3,0.4,0.7,0.6,1.2,0.6
			C24.1,197.8,24.5,197.6,24.8,197.2z"/>
	</g>
</g>
<g>
	<g>
		<path class="st21" d="M14.7,163.5v1.1H9.5v-0.9l2.8-2.6c0.3-0.3,0.5-0.6,0.6-0.8c0.1-0.2,0.2-0.4,0.2-0.7c0-0.3-0.1-0.6-0.3-0.8
			c-0.2-0.2-0.5-0.3-1-0.3c-0.7,0-1.3,0.2-1.6,0.7l-0.9-0.7c0.3-0.4,0.6-0.7,1.1-0.9c0.5-0.2,1-0.3,1.6-0.3c0.8,0,1.4,0.2,1.8,0.5
			c0.5,0.4,0.7,0.8,0.7,1.5c0,0.4-0.1,0.7-0.2,1.1c-0.2,0.3-0.5,0.7-0.9,1.1l-1.9,1.8H14.7z"/>
		<path class="st21" d="M16.8,164.3c-0.4-0.3-0.8-0.7-1-1.2c-0.3-0.5-0.4-1.2-0.4-1.9c0-0.7,0.1-1.4,0.4-1.9c0.3-0.5,0.6-1,1-1.2
			c0.4-0.3,0.9-0.4,1.5-0.4c0.6,0,1.1,0.1,1.5,0.4s0.8,0.7,1,1.2c0.3,0.5,0.4,1.2,0.4,1.9c0,0.7-0.1,1.4-0.4,1.9
			c-0.3,0.5-0.6,1-1,1.2s-0.9,0.4-1.5,0.4C17.8,164.7,17.3,164.5,16.8,164.3z M19.5,162.9c0.3-0.4,0.4-1,0.4-1.8s-0.1-1.4-0.4-1.8
			c-0.3-0.4-0.7-0.6-1.2-0.6c-0.5,0-0.9,0.2-1.2,0.6c-0.3,0.4-0.4,1-0.4,1.8s0.1,1.4,0.4,1.8c0.3,0.4,0.7,0.6,1.2,0.6
			C18.8,163.6,19.2,163.4,19.5,162.9z"/>
		<path class="st21" d="M23.6,164.3c-0.4-0.3-0.8-0.7-1-1.2c-0.3-0.5-0.4-1.2-0.4-1.9c0-0.7,0.1-1.4,0.4-1.9c0.3-0.5,0.6-1,1-1.2
			c0.4-0.3,0.9-0.4,1.5-0.4c0.6,0,1.1,0.1,1.5,0.4s0.8,0.7,1,1.2c0.3,0.5,0.4,1.2,0.4,1.9c0,0.7-0.1,1.4-0.4,1.9
			c-0.3,0.5-0.6,1-1,1.2s-0.9,0.4-1.5,0.4C24.5,164.7,24,164.5,23.6,164.3z M26.2,162.9c0.3-0.4,0.4-1,0.4-1.8s-0.1-1.4-0.4-1.8
			c-0.3-0.4-0.7-0.6-1.2-0.6c-0.5,0-0.9,0.2-1.2,0.6c-0.3,0.4-0.4,1-0.4,1.8s0.1,1.4,0.4,1.8c0.3,0.4,0.7,0.6,1.2,0.6
			C25.6,163.6,25.9,163.4,26.2,162.9z"/>
	</g>
</g>
<g>
	<path class="st21" d="M13.9,126.4c0.3,0.4,0.5,0.8,0.5,1.4c0,0.4-0.1,0.8-0.3,1.1c-0.2,0.3-0.5,0.6-0.9,0.8
		c-0.4,0.2-0.9,0.3-1.5,0.3c-0.5,0-1-0.1-1.4-0.2c-0.5-0.1-0.9-0.3-1.2-0.6l0.6-1c0.3,0.2,0.6,0.4,0.9,0.5s0.7,0.2,1.1,0.2
		c0.5,0,0.8-0.1,1.1-0.3c0.3-0.2,0.4-0.4,0.4-0.8c0-0.3-0.1-0.6-0.4-0.8c-0.2-0.2-0.6-0.3-1.1-0.3h-0.6v-0.9l1.6-1.9H9.3v-1.1h4.8
		v0.9l-1.7,2C13,125.8,13.5,126,13.9,126.4z"/>
	<path class="st21" d="M16.6,129.5c-0.4-0.3-0.8-0.7-1-1.2c-0.3-0.5-0.4-1.2-0.4-1.9c0-0.7,0.1-1.4,0.4-1.9c0.3-0.5,0.6-1,1-1.2
		c0.4-0.3,0.9-0.4,1.5-0.4c0.6,0,1.1,0.1,1.5,0.4s0.8,0.7,1,1.2c0.3,0.5,0.4,1.2,0.4,1.9c0,0.7-0.1,1.4-0.4,1.9
		c-0.3,0.5-0.6,1-1,1.2s-0.9,0.4-1.5,0.4C17.6,129.9,17.1,129.8,16.6,129.5z M19.3,128.2c0.3-0.4,0.4-1,0.4-1.8s-0.1-1.4-0.4-1.8
		c-0.3-0.4-0.7-0.6-1.2-0.6c-0.5,0-0.9,0.2-1.2,0.6c-0.3,0.4-0.4,1-0.4,1.8s0.1,1.4,0.4,1.8c0.3,0.4,0.7,0.6,1.2,0.6
		C18.6,128.8,19,128.6,19.3,128.2z"/>
	<path class="st21" d="M23.4,129.5c-0.4-0.3-0.8-0.7-1-1.2c-0.3-0.5-0.4-1.2-0.4-1.9c0-0.7,0.1-1.4,0.4-1.9c0.3-0.5,0.6-1,1-1.2
		c0.4-0.3,0.9-0.4,1.5-0.4c0.6,0,1.1,0.1,1.5,0.4s0.8,0.7,1,1.2c0.3,0.5,0.4,1.2,0.4,1.9c0,0.7-0.1,1.4-0.4,1.9
		c-0.3,0.5-0.6,1-1,1.2s-0.9,0.4-1.5,0.4C24.3,129.9,23.8,129.8,23.4,129.5z M26.1,128.2c0.3-0.4,0.4-1,0.4-1.8s-0.1-1.4-0.4-1.8
		c-0.3-0.4-0.7-0.6-1.2-0.6c-0.5,0-0.9,0.2-1.2,0.6c-0.3,0.4-0.4,1-0.4,1.8s0.1,1.4,0.4,1.8c0.3,0.4,0.7,0.6,1.2,0.6
		C25.4,128.8,25.8,128.6,26.1,128.2z"/>
</g>
<g>
	<path class="st21" d="M14,91.5c0.5,0.4,0.7,0.9,0.7,1.6c0,0.4-0.1,0.8-0.3,1.1c-0.2,0.3-0.5,0.6-0.9,0.8s-0.9,0.3-1.5,0.3
		c-0.5,0-1-0.1-1.5-0.2C10,95,9.6,94.8,9.3,94.5l0.5-1c0.3,0.2,0.6,0.4,0.9,0.5s0.7,0.2,1.1,0.2c0.5,0,0.8-0.1,1.1-0.3
		c0.3-0.2,0.4-0.5,0.4-0.8c0-0.4-0.1-0.6-0.4-0.8S12.2,92,11.5,92H9.8l0.4-3.8h4.1v1.1h-3l-0.2,1.6h0.7C12.8,90.9,13.5,91.1,14,91.5
		z"/>
	<path class="st21" d="M16.9,94.9c-0.4-0.3-0.8-0.7-1-1.2c-0.3-0.5-0.4-1.2-0.4-1.9c0-0.7,0.1-1.4,0.4-1.9c0.3-0.5,0.6-1,1-1.2
		c0.4-0.3,0.9-0.4,1.5-0.4c0.6,0,1.1,0.1,1.5,0.4s0.8,0.7,1,1.2c0.3,0.5,0.4,1.2,0.4,1.9c0,0.7-0.1,1.4-0.4,1.9
		c-0.3,0.5-0.6,1-1,1.2s-0.9,0.4-1.5,0.4C17.8,95.3,17.3,95.2,16.9,94.9z M19.6,93.6c0.3-0.4,0.4-1,0.4-1.8s-0.1-1.4-0.4-1.8
		c-0.3-0.4-0.7-0.6-1.2-0.6c-0.5,0-0.9,0.2-1.2,0.6c-0.3,0.4-0.4,1-0.4,1.8s0.1,1.4,0.4,1.8c0.3,0.4,0.7,0.6,1.2,0.6
		C18.9,94.2,19.3,94,19.6,93.6z"/>
	<path class="st21" d="M23.6,94.9c-0.4-0.3-0.8-0.7-1-1.2c-0.3-0.5-0.4-1.2-0.4-1.9c0-0.7,0.1-1.4,0.4-1.9c0.3-0.5,0.6-1,1-1.2
		c0.4-0.3,0.9-0.4,1.5-0.4c0.6,0,1.1,0.1,1.5,0.4s0.8,0.7,1,1.2c0.3,0.5,0.4,1.2,0.4,1.9c0,0.7-0.1,1.4-0.4,1.9
		c-0.3,0.5-0.6,1-1,1.2s-0.9,0.4-1.5,0.4C24.5,95.3,24,95.2,23.6,94.9z M26.3,93.6c0.3-0.4,0.4-1,0.4-1.8s-0.1-1.4-0.4-1.8
		c-0.3-0.4-0.7-0.6-1.2-0.6c-0.5,0-0.9,0.2-1.2,0.6c-0.3,0.4-0.4,1-0.4,1.8s0.1,1.4,0.4,1.8c0.3,0.4,0.7,0.6,1.2,0.6
		C25.6,94.2,26,94,26.3,93.6z"/>
</g>
<g>
	<path class="st21" d="M11,53.8v6.3H9.8v-5.3H8.5v-1H11z"/>
	<path class="st21" d="M13.1,59.8c-0.4-0.3-0.7-0.6-0.9-1.1c-0.2-0.5-0.3-1.1-0.3-1.7c0-0.7,0.1-1.3,0.3-1.7
		c0.2-0.5,0.5-0.9,0.9-1.1c0.4-0.3,0.8-0.4,1.4-0.4c0.5,0,1,0.1,1.4,0.4c0.4,0.3,0.7,0.6,0.9,1.1c0.2,0.5,0.3,1.1,0.3,1.7
		c0,0.7-0.1,1.3-0.3,1.7c-0.2,0.5-0.5,0.9-0.9,1.1c-0.4,0.3-0.9,0.4-1.4,0.4C14,60.2,13.5,60.1,13.1,59.8z M15.5,58.6
		c0.3-0.4,0.4-0.9,0.4-1.7c0-0.7-0.1-1.3-0.4-1.7c-0.3-0.4-0.6-0.6-1.1-0.6c-0.4,0-0.8,0.2-1.1,0.6C13.1,55.7,13,56.2,13,57
		c0,0.7,0.1,1.3,0.4,1.7c0.3,0.4,0.6,0.6,1.1,0.6C14.9,59.2,15.3,59,15.5,58.6z"/>
	<path class="st21" d="M18.8,59.8c-0.4-0.3-0.7-0.6-0.9-1.1c-0.2-0.5-0.3-1.1-0.3-1.7c0-0.7,0.1-1.3,0.3-1.7
		c0.2-0.5,0.5-0.9,0.9-1.1c0.4-0.3,0.8-0.4,1.4-0.4c0.5,0,1,0.1,1.4,0.4c0.4,0.3,0.7,0.6,0.9,1.1c0.2,0.5,0.3,1.1,0.3,1.7
		c0,0.7-0.1,1.3-0.3,1.7c-0.2,0.5-0.5,0.9-0.9,1.1c-0.4,0.3-0.9,0.4-1.4,0.4C19.6,60.2,19.2,60.1,18.8,59.8z M21.2,58.6
		c0.3-0.4,0.4-0.9,0.4-1.7c0-0.7-0.1-1.3-0.4-1.7c-0.3-0.4-0.6-0.6-1.1-0.6c-0.4,0-0.8,0.2-1.1,0.6c-0.3,0.4-0.4,0.9-0.4,1.7
		c0,0.7,0.1,1.3,0.4,1.7c0.3,0.4,0.6,0.6,1.1,0.6C20.6,59.2,20.9,59,21.2,58.6z"/>
	<path class="st21" d="M24.4,59.8c-0.4-0.3-0.7-0.6-0.9-1.1c-0.2-0.5-0.3-1.1-0.3-1.7c0-0.7,0.1-1.3,0.3-1.7
		c0.2-0.5,0.5-0.9,0.9-1.1c0.4-0.3,0.8-0.4,1.4-0.4c0.5,0,1,0.1,1.4,0.4c0.4,0.3,0.7,0.6,0.9,1.1c0.2,0.5,0.3,1.1,0.3,1.7
		c0,0.7-0.1,1.3-0.3,1.7c-0.2,0.5-0.5,0.9-0.9,1.1c-0.4,0.3-0.9,0.4-1.4,0.4C25.3,60.2,24.8,60.1,24.4,59.8z M26.8,58.6
		c0.3-0.4,0.4-0.9,0.4-1.7c0-0.7-0.1-1.3-0.4-1.7c-0.3-0.4-0.6-0.6-1.1-0.6c-0.4,0-0.8,0.2-1.1,0.6c-0.3,0.4-0.4,0.9-0.4,1.7
		c0,0.7,0.1,1.3,0.4,1.7c0.3,0.4,0.6,0.6,1.1,0.6C26.2,59.2,26.6,59,26.8,58.6z"/>
</g>
</svg>
