<?xml version="1.0" encoding="utf-8"?>
<!-- Generator: Adobe Illustrator 16.0.0, SVG Export Plug-In . SVG Version: 6.00 Build 0)  -->
<!DOCTYPE svg PUBLIC "-//W3C//DTD SVG 1.1//EN" "http://www.w3.org/Graphics/SVG/1.1/DTD/svg11.dtd">
<svg version="1.1" id="Livello_1" xmlns="http://www.w3.org/2000/svg" xmlns:xlink="http://www.w3.org/1999/xlink" x="0px" y="0px"
	 width="32px" height="590px" viewBox="-388.167 271.66 841.047 45.623"
	 enable-background="new -388.167 271.66 841.047 45.623" xml:space="preserve">
<g>
	<defs>
		<path id="SVGID_1_" d="M435.428,278.583c5.569,0,12.111,8.938,12.111,15.889v0.978c0,6.444-5.821,14.911-12.111,14.911h-807.369
			c-7.411-1.535-11.696-9.742-11.688-15.275l0,0c-0.008-6.445,4.395-14.846,11.977-16.502H435.428z"/>
	</defs>
	<clipPath id="SVGID_2_">
		<use xlink:href="#SVGID_1_"  overflow="visible"/>
	</clipPath>
	<rect x="-386.156" y="226.607" clip-path="url(#SVGID_2_)" fill="#EB2426" width="72.728" height="115.565"/>
	<rect x="-314.315" y="226.607" clip-path="url(#SVGID_2_)" fill="#F07526" width="72.728" height="115.565"/>
	<rect x="-241.588" y="226.607" clip-path="url(#SVGID_2_)" fill="#FCFC1C" width="72.731" height="115.565"/>
	<rect x="-168.856" y="226.607" clip-path="url(#SVGID_2_)" fill="#C8E636" width="72.727" height="115.565"/>
	<rect x="-96.13" y="226.607" clip-path="url(#SVGID_2_)" fill="#7ECB47" width="72.728" height="115.565"/>
	<rect x="-24.315" y="226.607" clip-path="url(#SVGID_2_)" fill="#5DC24B" width="72.723" height="115.565"/>
	<rect x="48.407" y="226.607" clip-path="url(#SVGID_2_)" fill="#95D4C0" width="72.729" height="115.565"/>
	<rect x="121.137" y="226.607" clip-path="url(#SVGID_2_)" fill="#6FC8DC" width="72.727" height="115.565"/>
	<rect x="193.863" y="226.607" clip-path="url(#SVGID_2_)" fill="#4880CA" width="72.729" height="115.565"/>
	<rect x="266.593" y="226.607" clip-path="url(#SVGID_2_)" fill="#3F57AF" width="72.727" height="115.565"/>
	<rect x="339.319" y="226.607" clip-path="url(#SVGID_2_)" fill="#FFFFFF" width="109.799" height="115.565"/>
</g>
<g display="none">
	<g display="inline">
		<g>
			<g>
				<g>
					<defs>
						<path id="SVGID_3_" d="M27.262,580.715c-0.316,3.428-5.673,7.51-10.308,7.51l0,0c-4.594,0.367-10.877-3.314-10.877-7.51
							V42.467c1.021-4.939,6.492-7.798,10.182-7.792l0,0c4.298-0.006,9.896,2.93,11.003,7.984V580.715L27.262,580.715z"/>
					</defs>
					<clipPath id="SVGID_4_">
						<use xlink:href="#SVGID_3_"  overflow="visible"/>
					</clipPath>
					<rect x="0.88" y="495.265" clip-path="url(#SVGID_4_)" fill="#FFFAFA" width="31.578" height="99.045"/>
				</g>
			</g>
		</g>
		<g>
			<g>
				<g>
					<defs>
						<path id="SVGID_5_" d="M27.262,580.715c-0.316,3.428-5.673,7.51-10.308,7.51l0,0c-4.594,0.367-10.877-3.314-10.877-7.51
							V42.467c1.021-4.939,6.492-7.798,10.182-7.792l0,0c4.298-0.006,9.896,2.93,11.003,7.984V580.715L27.262,580.715z"/>
					</defs>
					<clipPath id="SVGID_6_">
						<use xlink:href="#SVGID_5_"  overflow="visible"/>
					</clipPath>
					<rect x="1.196" y="315.187" clip-path="url(#SVGID_6_)" fill="#FBD5D6" width="31.578" height="90.041"/>
				</g>
			</g>
		</g>
		<g>
			<g>
				<g>
					<defs>
						<path id="SVGID_7_" d="M27.262,580.715c-0.316,3.428-5.673,7.51-10.308,7.51l0,0c-4.594,0.367-10.877-3.314-10.877-7.51
							V42.467c1.021-4.939,6.492-7.798,10.182-7.792l0,0c4.298-0.006,9.896,2.93,11.003,7.984V580.715L27.262,580.715z"/>
					</defs>
					<clipPath id="SVGID_8_">
						<use xlink:href="#SVGID_7_"  overflow="visible"/>
					</clipPath>
					<rect x="1.196" y="225.147" clip-path="url(#SVGID_8_)" fill="#F9C1C2" width="31.578" height="90.038"/>
				</g>
			</g>
		</g>
		<g>
			<g>
				<g>
					<defs>
						<path id="SVGID_9_" d="M27.262,580.715c-0.316,3.428-5.673,7.51-10.308,7.51l0,0c-4.594,0.367-10.877-3.314-10.877-7.51
							V42.467c1.021-4.939,6.492-7.798,10.182-7.792l0,0c4.298-0.006,9.896,2.93,11.003,7.984V580.715L27.262,580.715z"/>
					</defs>
					<clipPath id="SVGID_10_">
						<use xlink:href="#SVGID_9_"  overflow="visible"/>
					</clipPath>
					<rect x="0.88" y="405.226" clip-path="url(#SVGID_10_)" fill="#FDEBEB" width="31.578" height="90.041"/>
				</g>
			</g>
		</g>
		<g>
			<g>
				<g>
					<defs>
						<path id="SVGID_11_" d="M27.262,580.715c-0.316,3.428-5.673,7.51-10.308,7.51l0,0c-4.594,0.367-10.877-3.314-10.877-7.51
							V42.467c1.021-4.939,6.492-7.798,10.182-7.792l0,0c4.298-0.006,9.896,2.93,11.003,7.984V580.715L27.262,580.715z"/>
					</defs>
					<clipPath id="SVGID_12_">
						<use xlink:href="#SVGID_11_"  overflow="visible"/>
					</clipPath>
					<rect x="1.196" y="135.094" clip-path="url(#SVGID_12_)" fill="#F6ABAD" width="31.578" height="90.041"/>
				</g>
			</g>
		</g>
		<g>
			<g>
				<g>
					<defs>
						<path id="SVGID_13_" d="M27.262,580.715c-0.316,3.428-5.673,7.51-10.308,7.51l0,0c-4.594,0.367-10.877-3.314-10.877-7.51
							V42.467c1.021-4.939,6.492-7.798,10.182-7.792l0,0c4.298-0.006,9.896,2.93,11.003,7.984V580.715L27.262,580.715z"/>
					</defs>
					<clipPath id="SVGID_14_">
						<use xlink:href="#SVGID_13_"  overflow="visible"/>
					</clipPath>
					<rect x="0.88" y="36.052" clip-path="url(#SVGID_14_)" fill="#F49799" width="31.577" height="99.043"/>
				</g>
			</g>
		</g>
	</g>
</g>
<g display="none">
	<g display="inline">
		<g>
			<g>
				<defs>
					<path id="SVGID_15_" d="M27.262,580.715c0,3.713-5.957,8.073-10.593,8.073h-0.652c-4.295,0-9.939-3.881-9.939-8.073V42.467
						c1.023-4.939,6.494-7.797,10.183-7.792l0,0c4.295-0.005,9.896,2.93,11,7.984V580.715L27.262,580.715z"/>
				</defs>
				<clipPath id="SVGID_16_">
					<use xlink:href="#SVGID_15_"  overflow="visible"/>
				</clipPath>
				<rect x="-4.972" y="34.675" clip-path="url(#SVGID_16_)" fill="#C8E8F0" width="43.281" height="27.238"/>
			</g>
		</g>
	</g>
	<g display="inline">
		<g>
			<g>
				<defs>
					<path id="SVGID_17_" d="M27.262,580.715c0,3.713-5.957,8.073-10.593,8.073h-0.652c-4.295,0-9.939-3.881-9.939-8.073V42.467
						c1.023-4.939,6.494-7.797,10.183-7.792l0,0c4.295-0.005,9.896,2.93,11,7.984V580.715L27.262,580.715z"/>
				</defs>
				<clipPath id="SVGID_18_">
					<use xlink:href="#SVGID_17_"  overflow="visible"/>
				</clipPath>
				<rect x="-4.972" y="61.914" clip-path="url(#SVGID_18_)" fill="#D0EBF7" width="43.281" height="27.238"/>
			</g>
		</g>
	</g>
	<g display="inline">
		<g>
			<g>
				<defs>
					<path id="SVGID_19_" d="M27.262,580.715c0,3.713-5.957,8.073-10.593,8.073h-0.652c-4.295,0-9.939-3.881-9.939-8.073V42.467
						c1.023-4.939,6.494-7.797,10.183-7.792l0,0c4.295-0.005,9.896,2.93,11,7.984V580.715L27.262,580.715z"/>
				</defs>
				<clipPath id="SVGID_20_">
					<use xlink:href="#SVGID_19_"  overflow="visible"/>
				</clipPath>
				<rect x="-4.972" y="88.639" clip-path="url(#SVGID_20_)" fill="#4898DA" width="43.281" height="27.237"/>
			</g>
		</g>
	</g>
	<g display="inline">
		<g>
			<g>
				<defs>
					<path id="SVGID_21_" d="M27.262,580.715c0,3.713-5.957,8.073-10.593,8.073h-0.652c-4.295,0-9.939-3.881-9.939-8.073V42.467
						c1.023-4.939,6.494-7.797,10.183-7.792l0,0c4.295-0.005,9.896,2.93,11,7.984V580.715L27.262,580.715z"/>
				</defs>
				<clipPath id="SVGID_22_">
					<use xlink:href="#SVGID_21_"  overflow="visible"/>
				</clipPath>
				<rect x="-4.972" y="115.877" clip-path="url(#SVGID_22_)" fill="#A3A5D7" width="43.281" height="27.238"/>
			</g>
		</g>
	</g>
	<g display="inline">
		<g>
			<g>
				<defs>
					<path id="SVGID_23_" d="M27.262,580.715c0,3.713-5.957,8.073-10.593,8.073h-0.652c-4.295,0-9.939-3.881-9.939-8.073V42.467
						c1.023-4.939,6.494-7.797,10.183-7.792l0,0c4.295-0.005,9.896,2.93,11,7.984V580.715L27.262,580.715z"/>
				</defs>
				<clipPath id="SVGID_24_">
					<use xlink:href="#SVGID_23_"  overflow="visible"/>
				</clipPath>
				<rect x="-4.972" y="143.116" clip-path="url(#SVGID_24_)" fill="#B988C1" width="43.281" height="27.237"/>
			</g>
		</g>
	</g>
	<g display="inline">
		<g>
			<g>
				<defs>
					<path id="SVGID_25_" d="M27.262,580.715c0,3.713-5.957,8.073-10.593,8.073h-0.652c-4.295,0-9.939-3.881-9.939-8.073V42.467
						c1.023-4.939,6.494-7.797,10.183-7.792l0,0c4.295-0.005,9.896,2.93,11,7.984V580.715L27.262,580.715z"/>
				</defs>
				<clipPath id="SVGID_26_">
					<use xlink:href="#SVGID_25_"  overflow="visible"/>
				</clipPath>
				<rect x="-4.972" y="170.353" clip-path="url(#SVGID_26_)" fill="#D7A2CD" width="43.281" height="27.237"/>
			</g>
		</g>
	</g>
	<g display="inline">
		<g>
			<g>
				<defs>
					<path id="SVGID_27_" d="M27.262,580.715c0,3.713-5.957,8.073-10.593,8.073h-0.652c-4.295,0-9.939-3.881-9.939-8.073V42.467
						c1.023-4.939,6.494-7.797,10.183-7.792l0,0c4.295-0.005,9.896,2.93,11,7.984V580.715L27.262,580.715z"/>
				</defs>
				<clipPath id="SVGID_28_">
					<use xlink:href="#SVGID_27_"  overflow="visible"/>
				</clipPath>
				<rect x="-4.972" y="197.253" clip-path="url(#SVGID_28_)" fill="#E8BEDB" width="43.281" height="27.238"/>
			</g>
		</g>
	</g>
	<g display="inline">
		<g>
			<g>
				<defs>
					<path id="SVGID_29_" d="M27.262,580.715c0,3.713-5.957,8.073-10.593,8.073h-0.652c-4.295,0-9.939-3.881-9.939-8.073V42.467
						c1.023-4.939,6.494-7.797,10.183-7.792l0,0c4.295-0.005,9.896,2.93,11,7.984V580.715L27.262,580.715z"/>
				</defs>
				<clipPath id="SVGID_30_">
					<use xlink:href="#SVGID_29_"  overflow="visible"/>
				</clipPath>
				<rect x="-4.972" y="224.492" clip-path="url(#SVGID_30_)" fill="#E67D9B" width="43.281" height="27.238"/>
			</g>
		</g>
	</g>
	<g display="inline">
		<g>
			<g>
				<defs>
					<path id="SVGID_31_" d="M27.262,580.715c0,3.713-5.957,8.073-10.593,8.073h-0.652c-4.295,0-9.939-3.881-9.939-8.073V42.467
						c1.023-4.939,6.494-7.797,10.183-7.792l0,0c4.295-0.005,9.896,2.93,11,7.984V580.715L27.262,580.715z"/>
				</defs>
				<clipPath id="SVGID_32_">
					<use xlink:href="#SVGID_31_"  overflow="visible"/>
				</clipPath>
				<rect x="-4.972" y="251.73" clip-path="url(#SVGID_32_)" fill="#DB4C4D" width="43.281" height="27.235"/>
			</g>
		</g>
	</g>
	<g display="inline">
		<g>
			<g>
				<defs>
					<path id="SVGID_33_" d="M27.262,580.715c0,3.713-5.957,8.073-10.593,8.073h-0.652c-4.295,0-9.939-3.881-9.939-8.073V42.467
						c1.023-4.939,6.494-7.797,10.183-7.792l0,0c4.295-0.005,9.896,2.93,11,7.984V580.715L27.262,580.715z"/>
				</defs>
				<clipPath id="SVGID_34_">
					<use xlink:href="#SVGID_33_"  overflow="visible"/>
				</clipPath>
				<rect x="-4.972" y="278.966" clip-path="url(#SVGID_34_)" fill="#EF5A5C" width="43.281" height="27.238"/>
			</g>
		</g>
	</g>
	<g display="inline">
		<g>
			<g>
				<defs>
					<path id="SVGID_35_" d="M27.262,580.715c0,3.713-5.957,8.073-10.593,8.073h-0.652c-4.295,0-9.939-3.881-9.939-8.073V42.467
						c1.023-4.939,6.494-7.797,10.183-7.792l0,0c4.295-0.005,9.896,2.93,11,7.984V580.715L27.262,580.715z"/>
				</defs>
				<clipPath id="SVGID_36_">
					<use xlink:href="#SVGID_35_"  overflow="visible"/>
				</clipPath>
				<rect x="-4.972" y="305.872" clip-path="url(#SVGID_36_)" fill="#F7A25C" width="43.281" height="27.238"/>
			</g>
		</g>
	</g>
	<g display="inline">
		<g>
			<g>
				<defs>
					<path id="SVGID_37_" d="M27.262,580.715c0,3.713-5.957,8.073-10.593,8.073h-0.652c-4.295,0-9.939-3.881-9.939-8.073V42.467
						c1.023-4.939,6.494-7.797,10.183-7.792l0,0c4.295-0.005,9.896,2.93,11,7.984V580.715L27.262,580.715z"/>
				</defs>
				<clipPath id="SVGID_38_">
					<use xlink:href="#SVGID_37_"  overflow="visible"/>
				</clipPath>
				<rect x="-4.972" y="333.11" clip-path="url(#SVGID_38_)" fill="#FDD58F" width="43.281" height="27.238"/>
			</g>
		</g>
	</g>
	<g display="inline">
		<g>
			<g>
				<defs>
					<path id="SVGID_39_" d="M27.262,580.715c0,3.713-5.957,8.073-10.593,8.073h-0.652c-4.295,0-9.939-3.881-9.939-8.073V42.467
						c1.023-4.939,6.494-7.797,10.183-7.792l0,0c4.295-0.005,9.896,2.93,11,7.984V580.715L27.262,580.715z"/>
				</defs>
				<clipPath id="SVGID_40_">
					<use xlink:href="#SVGID_39_"  overflow="visible"/>
				</clipPath>
				<rect x="-4.972" y="360.349" clip-path="url(#SVGID_40_)" fill="#FFE173" width="43.281" height="27.238"/>
			</g>
		</g>
	</g>
	<g display="inline">
		<g>
			<g>
				<defs>
					<path id="SVGID_41_" d="M27.262,580.715c0,3.713-5.957,8.073-10.593,8.073h-0.652c-4.295,0-9.939-3.881-9.939-8.073V42.467
						c1.023-4.939,6.494-7.797,10.183-7.792l0,0c4.295-0.005,9.896,2.93,11,7.984V580.715L27.262,580.715z"/>
				</defs>
				<clipPath id="SVGID_42_">
					<use xlink:href="#SVGID_41_"  overflow="visible"/>
				</clipPath>
				<rect x="-4.972" y="387.588" clip-path="url(#SVGID_42_)" fill="#FEFE82" width="43.281" height="27.237"/>
			</g>
		</g>
	</g>
	<g display="inline">
		<g>
			<g>
				<defs>
					<path id="SVGID_43_" d="M27.262,580.715c0,3.713-5.957,8.073-10.593,8.073h-0.652c-4.295,0-9.939-3.881-9.939-8.073V42.467
						c1.023-4.939,6.494-7.797,10.183-7.792l0,0c4.295-0.005,9.896,2.93,11,7.984V580.715L27.262,580.715z"/>
				</defs>
				<clipPath id="SVGID_44_">
					<use xlink:href="#SVGID_43_"  overflow="visible"/>
				</clipPath>
				<rect x="-4.972" y="414.483" clip-path="url(#SVGID_44_)" fill="#FFFFC7" width="43.281" height="27.234"/>
			</g>
		</g>
	</g>
	<g display="inline">
		<g>
			<g>
				<defs>
					<path id="SVGID_45_" d="M27.262,580.715c0,3.713-5.957,8.073-10.593,8.073h-0.652c-4.295,0-9.939-3.881-9.939-8.073V42.467
						c1.023-4.939,6.494-7.797,10.183-7.792l0,0c4.295-0.005,9.896,2.93,11,7.984V580.715L27.262,580.715z"/>
				</defs>
				<clipPath id="SVGID_46_">
					<use xlink:href="#SVGID_45_"  overflow="visible"/>
				</clipPath>
				<rect x="-4.972" y="441.72" clip-path="url(#SVGID_46_)" fill="#F3F3A1" width="43.281" height="27.238"/>
			</g>
		</g>
	</g>
	<g display="inline">
		<g>
			<g>
				<defs>
					<path id="SVGID_47_" d="M27.262,580.715c0,3.713-5.957,8.073-10.593,8.073h-0.652c-4.295,0-9.939-3.881-9.939-8.073V42.467
						c1.023-4.939,6.494-7.797,10.183-7.792l0,0c4.295-0.005,9.896,2.93,11,7.984V580.715L27.262,580.715z"/>
				</defs>
				<clipPath id="SVGID_48_">
					<use xlink:href="#SVGID_47_"  overflow="visible"/>
				</clipPath>
				<rect x="-4.972" y="468.959" clip-path="url(#SVGID_48_)" fill="#D3ECA4" width="43.281" height="27.237"/>
			</g>
		</g>
	</g>
	<g display="inline">
		<g>
			<g>
				<defs>
					<path id="SVGID_49_" d="M27.262,580.715c0,3.713-5.957,8.073-10.593,8.073h-0.652c-4.295,0-9.939-3.881-9.939-8.073V42.467
						c1.023-4.939,6.494-7.797,10.183-7.792l0,0c4.295-0.005,9.896,2.93,11,7.984V580.715L27.262,580.715z"/>
				</defs>
				<clipPath id="SVGID_50_">
					<use xlink:href="#SVGID_49_"  overflow="visible"/>
				</clipPath>
				<rect x="-4.972" y="496.196" clip-path="url(#SVGID_50_)" fill="#C3E6D8" width="43.281" height="27.236"/>
			</g>
		</g>
	</g>
	<g display="inline">
		<g>
			<g>
				<defs>
					<path id="SVGID_51_" d="M27.262,580.715c0,3.713-5.957,8.073-10.593,8.073h-0.652c-4.295,0-9.939-3.881-9.939-8.073V42.467
						c1.023-4.939,6.494-7.797,10.183-7.792l0,0c4.295-0.005,9.896,2.93,11,7.984V580.715L27.262,580.715z"/>
				</defs>
				<clipPath id="SVGID_52_">
					<use xlink:href="#SVGID_51_"  overflow="visible"/>
				</clipPath>
				<rect x="-4.972" y="523.435" clip-path="url(#SVGID_52_)" fill="#C8E8F0" width="43.281" height="27.238"/>
			</g>
		</g>
	</g>
	<g display="inline">
		<g>
			<g>
				<defs>
					<path id="SVGID_53_" d="M27.262,580.715c0,3.713-5.957,8.073-10.593,8.073h-0.652c-4.295,0-9.939-3.881-9.939-8.073V42.467
						c1.023-4.939,6.494-7.797,10.183-7.792l0,0c4.295-0.005,9.896,2.93,11,7.984V580.715L27.262,580.715z"/>
				</defs>
				<clipPath id="SVGID_54_">
					<use xlink:href="#SVGID_53_"  overflow="visible"/>
				</clipPath>
				<rect x="-4.972" y="550.674" clip-path="url(#SVGID_54_)" fill="#D0EBF7" width="43.281" height="41.121"/>
			</g>
		</g>
	</g>
</g>
<g display="none">
	<g display="inline">
		<g>
			<g>
				<g>
					<defs>
						<path id="SVGID_55_" d="M27.053,580.983c-0.316,3.428-5.673,7.51-10.308,7.51l0,0c-4.594,0.367-10.877-3.315-10.877-7.51
							V42.738c1.021-4.94,6.492-7.798,10.182-7.792l0,0c4.298-0.006,9.896,2.929,11.003,7.984V580.983L27.053,580.983z"/>
					</defs>
					<clipPath id="SVGID_56_">
						<use xlink:href="#SVGID_55_"  overflow="visible"/>
					</clipPath>
					<rect x="0.671" y="494.032" clip-path="url(#SVGID_56_)" fill="#EC2426" width="31.578" height="99.045"/>
				</g>
			</g>
		</g>
		<g>
			<g>
				<g>
					<defs>
						<path id="SVGID_57_" d="M27.053,580.983c-0.316,3.428-5.673,7.51-10.308,7.51l0,0c-4.594,0.367-10.877-3.315-10.877-7.51
							V42.738c1.021-4.94,6.492-7.798,10.182-7.792l0,0c4.298-0.006,9.896,2.929,11.003,7.984V580.983L27.053,580.983z"/>
					</defs>
					<clipPath id="SVGID_58_">
						<use xlink:href="#SVGID_57_"  overflow="visible"/>
					</clipPath>
					<rect x="0.987" y="313.954" clip-path="url(#SVGID_58_)" fill="#FCFC1E" width="31.578" height="90.041"/>
				</g>
			</g>
		</g>
		<g>
			<g>
				<g>
					<defs>
						<path id="SVGID_59_" d="M27.053,580.983c-0.316,3.428-5.673,7.51-10.308,7.51l0,0c-4.594,0.367-10.877-3.315-10.877-7.51
							V42.738c1.021-4.94,6.492-7.798,10.182-7.792l0,0c4.298-0.006,9.896,2.929,11.003,7.984V580.983L27.053,580.983z"/>
					</defs>
					<clipPath id="SVGID_60_">
						<use xlink:href="#SVGID_59_"  overflow="visible"/>
					</clipPath>
					<rect x="0.987" y="223.914" clip-path="url(#SVGID_60_)" fill="#0B7F3F" width="31.578" height="90.038"/>
				</g>
			</g>
		</g>
		<g>
			<g>
				<g>
					<defs>
						<path id="SVGID_61_" d="M27.053,580.983c-0.316,3.428-5.673,7.51-10.308,7.51l0,0c-4.594,0.367-10.877-3.315-10.877-7.51
							V42.738c1.021-4.94,6.492-7.798,10.182-7.792l0,0c4.298-0.006,9.896,2.929,11.003,7.984V580.983L27.053,580.983z"/>
					</defs>
					<clipPath id="SVGID_62_">
						<use xlink:href="#SVGID_61_"  overflow="visible"/>
					</clipPath>
					<rect x="0.671" y="403.993" clip-path="url(#SVGID_62_)" fill="#F7A426" width="31.578" height="90.041"/>
				</g>
			</g>
		</g>
		<g>
			<g>
				<g>
					<defs>
						<path id="SVGID_63_" d="M27.053,580.983c-0.316,3.428-5.673,7.51-10.308,7.51l0,0c-4.594,0.367-10.877-3.315-10.877-7.51
							V42.738c1.021-4.94,6.492-7.798,10.182-7.792l0,0c4.298-0.006,9.896,2.929,11.003,7.984V580.983L27.053,580.983z"/>
					</defs>
					<clipPath id="SVGID_64_">
						<use xlink:href="#SVGID_63_"  overflow="visible"/>
					</clipPath>
					<rect x="0.987" y="133.862" clip-path="url(#SVGID_64_)" fill="#6FC9DC" width="31.578" height="90.04"/>
				</g>
			</g>
		</g>
		<g>
			<g>
				<g>
					<defs>
						<path id="SVGID_65_" d="M27.053,580.983c-0.316,3.428-5.673,7.51-10.308,7.51l0,0c-4.594,0.367-10.877-3.315-10.877-7.51
							V42.738c1.021-4.94,6.492-7.798,10.182-7.792l0,0c4.298-0.006,9.896,2.929,11.003,7.984V580.983L27.053,580.983z"/>
					</defs>
					<clipPath id="SVGID_66_">
						<use xlink:href="#SVGID_65_"  overflow="visible"/>
					</clipPath>
					<rect x="0.987" y="34.818" clip-path="url(#SVGID_66_)" fill="#3F57B0" width="31.578" height="99.043"/>
				</g>
			</g>
		</g>
	</g>
</g>
<circle display="none" fill="#3A332F" cx="16.46" cy="15.781" r="14.909"/>
<path display="none" fill="none" stroke="#3C3430" stroke-width="3" stroke-miterlimit="10" d="M27.053,580.983
	c-0.316,3.428-5.673,7.51-10.308,7.51l0,0c-4.593,0.367-10.877-3.315-10.877-7.51V42.736c1.022-4.94,6.492-7.798,10.182-7.792l0,0
	c4.298-0.006,9.896,2.929,11.003,7.984V580.983L27.053,580.983z"/>
<g display="none">
	<path display="inline" fill="#3C3530" d="M11.72,579.44c-0.398-0.461-0.598-1.063-0.598-1.81c0-0.745,0.199-1.349,0.598-1.808
		c0.399-0.459,0.923-0.688,1.573-0.688s1.176,0.229,1.58,0.685c0.403,0.455,0.604,1.061,0.604,1.813s-0.202,1.357-0.604,1.813
		c-0.403,0.455-0.93,0.684-1.58,0.684S12.118,579.899,11.72,579.44z M14.118,578.803c0.195-0.275,0.292-0.667,0.292-1.17
		c0-0.502-0.097-0.894-0.292-1.17c-0.195-0.276-0.47-0.416-0.825-0.416c-0.338,0-0.609,0.144-0.813,0.423
		c-0.204,0.281-0.306,0.669-0.306,1.163s0.102,0.882,0.306,1.164c0.204,0.28,0.475,0.422,0.813,0.422
		C13.648,579.219,13.923,579.081,14.118,578.803z M18.753,575.229h1.272l-6.212,9.1h-1.274L18.753,575.229z M17.688,583.729
		c-0.397-0.461-0.599-1.063-0.599-1.809s0.199-1.349,0.599-1.808c0.397-0.459,0.922-0.688,1.574-0.688
		c0.647,0,1.176,0.229,1.577,0.688c0.404,0.459,0.604,1.063,0.604,1.808s-0.2,1.35-0.604,1.809c-0.401,0.459-0.93,0.688-1.577,0.688
		C18.609,584.42,18.085,584.189,17.688,583.729z M20.079,583.088c0.198-0.282,0.299-0.67,0.299-1.164s-0.101-0.883-0.299-1.163
		c-0.199-0.281-0.474-0.423-0.817-0.423c-0.349,0-0.621,0.139-0.82,0.416c-0.197,0.276-0.299,0.668-0.299,1.17
		c0,0.503,0.102,0.895,0.299,1.17c0.199,0.276,0.475,0.416,0.82,0.416C19.605,583.51,19.88,583.368,20.079,583.088z"/>
</g>
<g display="none">
	<path display="inline" fill="#3C3530" d="M15.288,534.154c0.379,0.308,0.568,0.725,0.568,1.252c0,0.336-0.083,0.641-0.248,0.912
		s-0.413,0.485-0.744,0.646c-0.331,0.159-0.739,0.239-1.224,0.239c-0.4,0-0.787-0.059-1.16-0.172
		c-0.373-0.114-0.688-0.272-0.944-0.479l0.44-0.809c0.208,0.171,0.458,0.307,0.748,0.404s0.591,0.146,0.9,0.146
		c0.368,0,0.657-0.076,0.868-0.229c0.21-0.152,0.316-0.361,0.316-0.628c0-0.288-0.113-0.508-0.34-0.652
		c-0.227-0.146-0.615-0.22-1.164-0.22h-1.352l0.288-3.048h3.288v0.871H13.12L13,533.694h0.536
		C14.325,533.694,14.909,533.848,15.288,534.154z"/>
	<path display="inline" fill="#3C3530" d="M17.592,536.866c-0.354-0.229-0.63-0.56-0.833-0.991c-0.203-0.435-0.304-0.95-0.304-1.549
		c0-0.598,0.101-1.112,0.304-1.548c0.203-0.437,0.479-0.768,0.833-0.992c0.352-0.227,0.752-0.34,1.2-0.34
		c0.446,0,0.849,0.111,1.203,0.34c0.354,0.228,0.634,0.559,0.836,0.992c0.203,0.436,0.306,0.95,0.306,1.548
		c0,0.599-0.103,1.113-0.306,1.549c-0.202,0.435-0.479,0.766-0.836,0.991c-0.354,0.228-0.757,0.341-1.203,0.341
		C18.344,537.206,17.943,537.094,17.592,536.866z M19.738,535.806c0.232-0.33,0.35-0.821,0.35-1.479c0-0.657-0.115-1.148-0.35-1.479
		c-0.23-0.33-0.547-0.496-0.946-0.496c-0.396,0-0.708,0.166-0.94,0.496c-0.229,0.331-0.348,0.824-0.348,1.479
		c0,0.656,0.115,1.147,0.348,1.479c0.233,0.332,0.545,0.496,0.94,0.496C19.191,536.302,19.508,536.137,19.738,535.806z"/>
</g>
<g display="none">
	<path display="inline" fill="#3C3530" d="M15.227,450.927c0.293,0.144,0.522,0.344,0.688,0.604
		c0.165,0.262,0.248,0.563,0.248,0.901c0,0.363-0.091,0.684-0.272,0.956c-0.181,0.274-0.426,0.486-0.736,0.639
		c-0.309,0.146-0.656,0.225-1.04,0.225c-0.768,0-1.364-0.24-1.788-0.721c-0.424-0.479-0.636-1.168-0.636-2.063
		c0-0.629,0.115-1.167,0.344-1.612c0.229-0.443,0.551-0.781,0.964-1.016c0.413-0.23,0.892-0.349,1.436-0.349
		c0.288,0,0.559,0.029,0.812,0.093c0.253,0.063,0.473,0.149,0.66,0.268l-0.384,0.784c-0.277-0.182-0.632-0.271-1.064-0.271
		c-0.539,0-0.96,0.165-1.264,0.496c-0.304,0.33-0.456,0.809-0.456,1.433v0.008c0.166-0.19,0.376-0.337,0.632-0.437
		c0.256-0.101,0.544-0.147,0.864-0.147C14.603,450.716,14.934,450.786,15.227,450.927z M14.851,453.176
		c0.203-0.173,0.304-0.404,0.304-0.69c0-0.293-0.101-0.523-0.304-0.695c-0.203-0.171-0.475-0.256-0.816-0.256
		c-0.336,0-0.609,0.091-0.82,0.271c-0.211,0.184-0.316,0.411-0.316,0.688c0,0.271,0.103,0.497,0.308,0.677
		c0.205,0.179,0.489,0.268,0.852,0.268C14.384,453.435,14.648,453.349,14.851,453.176z"/>
	<path display="inline" fill="#3C3530" d="M17.843,453.911c-0.352-0.229-0.629-0.559-0.831-0.991
		c-0.204-0.436-0.305-0.95-0.305-1.549c0-0.598,0.101-1.112,0.305-1.548c0.202-0.437,0.479-0.768,0.831-0.992
		c0.353-0.227,0.753-0.34,1.201-0.34c0.447,0,0.849,0.113,1.203,0.34c0.354,0.228,0.633,0.559,0.836,0.992
		c0.203,0.435,0.306,0.95,0.306,1.548c0,0.599-0.103,1.113-0.306,1.549s-0.479,0.766-0.836,0.991
		c-0.356,0.227-0.756,0.341-1.203,0.341C18.596,454.252,18.193,454.138,17.843,453.911z M19.991,452.851
		c0.231-0.33,0.348-0.821,0.348-1.479c0-0.657-0.114-1.148-0.348-1.479c-0.232-0.33-0.55-0.496-0.947-0.496
		c-0.396,0-0.709,0.166-0.94,0.496c-0.23,0.331-0.349,0.824-0.349,1.479c0,0.656,0.115,1.148,0.349,1.479
		c0.231,0.331,0.545,0.496,0.94,0.496C19.441,453.347,19.759,453.182,19.991,452.851z"/>
</g>
<g display="none">
	<path display="inline" fill="#3C3530" d="M16.202,357.771v0.695l-2.176,4.903h-1.112l2.104-4.721h-2.2v0.953H11.85v-1.832
		L16.202,357.771L16.202,357.771z"/>
	<path display="inline" fill="#3C3530" d="M17.816,363.11c-0.354-0.228-0.629-0.559-0.832-0.991
		c-0.206-0.435-0.304-0.949-0.304-1.548c0-0.598,0.101-1.113,0.304-1.549c0.203-0.436,0.479-0.767,0.832-0.991
		c0.353-0.229,0.752-0.341,1.201-0.341c0.444,0,0.849,0.112,1.203,0.341c0.354,0.228,0.633,0.559,0.836,0.991
		c0.2,0.436,0.305,0.951,0.305,1.549c0,0.599-0.104,1.113-0.305,1.548c-0.203,0.436-0.48,0.767-0.836,0.991
		c-0.354,0.229-0.759,0.341-1.203,0.341C18.568,363.451,18.169,363.339,17.816,363.11z M19.965,362.052
		c0.232-0.329,0.35-0.823,0.35-1.479s-0.114-1.148-0.35-1.479c-0.23-0.33-0.548-0.496-0.947-0.496c-0.396,0-0.707,0.166-0.938,0.496
		c-0.23,0.331-0.35,0.823-0.35,1.479c0,0.655,0.115,1.147,0.35,1.479c0.23,0.331,0.545,0.496,0.938,0.496
		C19.417,362.548,19.732,362.383,19.965,362.052z"/>
</g>
<g display="none">
	<path display="inline" fill="#3C3530" d="M16.029,261.958c0.157,0.228,0.236,0.492,0.236,0.796c0,0.343-0.095,0.642-0.284,0.896
		c-0.189,0.256-0.457,0.452-0.804,0.588c-0.347,0.136-0.75,0.204-1.208,0.204c-0.459,0-0.86-0.068-1.204-0.204
		c-0.344-0.136-0.609-0.332-0.796-0.588c-0.187-0.256-0.28-0.555-0.28-0.896c0-0.304,0.078-0.568,0.232-0.796
		c0.155-0.227,0.376-0.405,0.664-0.54c-0.224-0.122-0.396-0.282-0.516-0.482c-0.12-0.2-0.18-0.432-0.18-0.692
		c0-0.313,0.086-0.589,0.26-0.824c0.173-0.233,0.417-0.416,0.732-0.544c0.314-0.128,0.677-0.19,1.088-0.19
		c0.416,0,0.781,0.063,1.096,0.19s0.56,0.311,0.736,0.544c0.176,0.235,0.264,0.511,0.264,0.824c0,0.262-0.061,0.491-0.184,0.688
		c-0.123,0.196-0.299,0.358-0.528,0.486C15.646,261.552,15.872,261.732,16.029,261.958z M14.881,263.387
		c0.224-0.16,0.336-0.383,0.336-0.664c0-0.277-0.112-0.496-0.336-0.656c-0.224-0.16-0.528-0.24-0.912-0.24
		c-0.384,0-0.686,0.08-0.904,0.24c-0.218,0.16-0.328,0.379-0.328,0.656c0,0.281,0.109,0.504,0.328,0.664
		c0.219,0.158,0.52,0.238,0.904,0.238C14.353,263.626,14.657,263.546,14.881,263.387z M13.197,259.707
		c-0.189,0.14-0.284,0.334-0.284,0.584c0,0.24,0.095,0.432,0.284,0.572c0.189,0.142,0.446,0.212,0.772,0.212
		c0.331,0,0.592-0.07,0.784-0.212s0.288-0.332,0.288-0.572c0-0.25-0.097-0.444-0.292-0.584c-0.195-0.139-0.455-0.208-0.78-0.208
		C13.644,259.499,13.386,259.568,13.197,259.707z"/>
	<path display="inline" fill="#3C3530" d="M18.072,264.103c-0.352-0.228-0.629-0.559-0.831-0.992
		c-0.203-0.436-0.304-0.95-0.304-1.548c0-0.599,0.101-1.113,0.304-1.548c0.202-0.436,0.479-0.767,0.831-0.992
		c0.353-0.228,0.753-0.34,1.203-0.34c0.447,0,0.848,0.112,1.203,0.34c0.354,0.227,0.633,0.558,0.836,0.992
		c0.203,0.434,0.305,0.949,0.305,1.548c0,0.598-0.102,1.112-0.305,1.548c-0.203,0.435-0.48,0.766-0.836,0.992
		c-0.356,0.226-0.756,0.34-1.203,0.34C18.825,264.443,18.425,264.33,18.072,264.103z M20.223,263.042
		c0.231-0.33,0.348-0.822,0.348-1.479s-0.113-1.149-0.348-1.48c-0.23-0.33-0.55-0.496-0.947-0.496c-0.396,0-0.709,0.166-0.939,0.496
		c-0.23,0.331-0.35,0.824-0.35,1.48s0.115,1.148,0.35,1.479c0.23,0.331,0.545,0.496,0.939,0.496
		C19.673,263.539,19.988,263.374,20.223,263.042z"/>
</g>
<g display="none">
	<path display="inline" fill="#3C3530" d="M15.497,177.108c0.424,0.479,0.636,1.168,0.636,2.063c0,0.631-0.115,1.167-0.344,1.612
		s-0.551,0.784-0.964,1.017c-0.414,0.231-0.892,0.349-1.436,0.349c-0.288,0-0.559-0.031-0.812-0.092
		c-0.253-0.063-0.473-0.151-0.66-0.27l0.384-0.784c0.277,0.183,0.632,0.272,1.064,0.272c0.539,0,0.96-0.165,1.264-0.496
		c0.304-0.33,0.456-0.808,0.456-1.432v-0.009c-0.166,0.191-0.376,0.338-0.632,0.437c-0.256,0.099-0.544,0.147-0.864,0.147
		c-0.368,0-0.699-0.07-0.992-0.213c-0.293-0.141-0.522-0.342-0.688-0.604s-0.248-0.563-0.248-0.904c0-0.362,0.091-0.681,0.272-0.956
		c0.181-0.273,0.427-0.485,0.736-0.636c0.309-0.149,0.656-0.224,1.04-0.224C14.477,176.388,15.073,176.627,15.497,177.108z
		 M14.609,178.835c0.21-0.181,0.316-0.41,0.316-0.688c0-0.272-0.103-0.497-0.308-0.676c-0.206-0.18-0.489-0.27-0.852-0.27
		c-0.325,0-0.589,0.087-0.792,0.261c-0.203,0.174-0.304,0.403-0.304,0.691c0,0.294,0.101,0.525,0.304,0.696
		c0.203,0.171,0.475,0.256,0.816,0.256C14.125,179.108,14.398,179.017,14.609,178.835z"/>
	<path display="inline" fill="#3C3530" d="M17.973,181.808c-0.352-0.228-0.629-0.559-0.832-0.992
		c-0.203-0.436-0.304-0.95-0.304-1.548c0-0.599,0.101-1.113,0.304-1.548c0.203-0.436,0.48-0.767,0.832-0.992
		c0.354-0.228,0.752-0.34,1.202-0.34c0.447,0,0.849,0.112,1.203,0.34c0.354,0.227,0.634,0.558,0.836,0.992
		c0.203,0.434,0.306,0.949,0.306,1.548c0,0.598-0.103,1.112-0.306,1.548c-0.202,0.435-0.479,0.766-0.836,0.992
		c-0.356,0.226-0.756,0.34-1.203,0.34C18.727,182.148,18.325,182.035,17.973,181.808z M20.122,180.748
		c0.231-0.33,0.349-0.823,0.349-1.479c0-0.656-0.115-1.149-0.349-1.48c-0.231-0.33-0.55-0.496-0.947-0.496
		c-0.396,0-0.709,0.166-0.942,0.496c-0.229,0.331-0.348,0.824-0.348,1.48c0,0.655,0.115,1.148,0.348,1.479
		c0.233,0.331,0.545,0.496,0.942,0.496S19.891,181.079,20.122,180.748z"/>
</g>
<g display="none">
	<path display="inline" fill="#3C3530" d="M12.049,77.192v5.6h-1.04v-4.728H9.825v-0.872H12.049z"/>
	<path display="inline" fill="#3C3530" d="M14.297,82.532c-0.352-0.227-0.629-0.558-0.832-0.992
		c-0.203-0.434-0.304-0.95-0.304-1.548s0.101-1.113,0.304-1.548c0.203-0.435,0.48-0.766,0.832-0.992s0.752-0.34,1.2-0.34
		c0.448,0,0.849,0.113,1.204,0.34c0.354,0.228,0.633,0.559,0.836,0.992c0.201,0.435,0.304,0.95,0.304,1.548
		s-0.103,1.113-0.304,1.548c-0.203,0.436-0.482,0.767-0.836,0.992c-0.355,0.227-0.756,0.34-1.204,0.34
		C15.049,82.872,14.649,82.76,14.297,82.532z M16.445,81.472c0.232-0.33,0.348-0.823,0.348-1.479s-0.116-1.148-0.348-1.479
		c-0.232-0.33-0.548-0.496-0.948-0.496c-0.395,0-0.708,0.166-0.94,0.496c-0.232,0.331-0.348,0.823-0.348,1.479
		s0.116,1.149,0.348,1.479c0.232,0.331,0.545,0.496,0.94,0.496C15.897,81.969,16.213,81.803,16.445,81.472z"/>
	<path display="inline" fill="#3C3530" d="M19.682,82.532c-0.353-0.227-0.629-0.558-0.832-0.992
		c-0.203-0.434-0.306-0.95-0.306-1.548s0.103-1.113,0.306-1.548s0.479-0.766,0.832-0.992c0.354-0.226,0.752-0.34,1.2-0.34
		c0.447,0,0.849,0.113,1.203,0.34c0.354,0.228,0.633,0.559,0.836,0.992s0.306,0.95,0.306,1.548s-0.103,1.113-0.306,1.548
		c-0.203,0.436-0.479,0.767-0.836,0.992s-0.756,0.34-1.203,0.34C20.434,82.872,20.032,82.76,19.682,82.532z M21.829,81.472
		c0.231-0.33,0.349-0.823,0.349-1.479s-0.115-1.148-0.349-1.479c-0.231-0.33-0.55-0.496-0.947-0.496
		c-0.396,0-0.709,0.166-0.94,0.496c-0.23,0.331-0.349,0.823-0.349,1.479s0.115,1.149,0.349,1.479
		c0.231,0.331,0.545,0.496,0.94,0.496C21.279,81.969,21.598,81.803,21.829,81.472z"/>
</g>
<g display="none">
	<path display="inline" fill="#FFFFFF" d="M10.021,22.611h12.708c2.651,0,4.938-1.792,5.435-4.26
		c0.323-1.611-0.076-3.252-1.104-4.503c-0.873-1.069-2.104-1.748-3.453-1.925v-1.211c0-4.293-3.871-7.688-8.123-7.18
		C11.866,3.964,9.14,7.156,9.14,10.957v0.967c-1.164,0.151-2.244,0.68-3.102,1.525C4.803,14.7,4.259,16.417,4.55,18.162
		C4.953,20.574,7.459,22.611,10.021,22.611z M7.029,14.438c0.757-0.748,1.755-1.161,2.812-1.161c0.386,0,0.7-0.313,0.7-0.699v-1.622
		c0-3.218,2.562-6.078,5.839-6.078c3.177,0,5.827,2.66,5.827,5.833v1.866c0,0.386,0.313,0.699,0.699,0.699
		c1.191,0,2.313,0.532,3.07,1.457c0.758,0.924,1.053,2.142,0.812,3.34c-0.365,1.817-2.072,3.136-4.06,3.136H10.021
		c-1.887,0-3.798-1.531-4.09-3.279C5.716,16.635,6.117,15.361,7.029,14.438z"/>
</g>
<rect x="11.504" y="22.611" display="none" fill="none" width="9.754" height="5.471"/>
<g display="none" enable-background="new    ">
	<path display="inline" fill="#FFFFFF" d="M15.519,22.85h0.736v3.342h2.073v0.623h-2.809V22.85z"/>
</g>
<path fill="none" stroke="#3C3430" stroke-width="3" stroke-miterlimit="10" d="M435.833,279.786
	c5.142,0.475,11.265,8.508,11.265,15.461l0,0c0.551,6.89-4.973,16.314-11.265,16.314h-807.37
	c-7.411-1.532-11.697-9.738-11.688-15.274l0,0c-0.009-6.443,4.394-14.843,11.977-16.501H435.833L435.833,279.786z"/>
<g>
	<path fill="#3C3430" d="M419.727,295.16c-0.552-0.637-0.827-1.471-0.827-2.502c0-1.033,0.275-1.867,0.827-2.502
		c0.553-0.637,1.277-0.955,2.179-0.955c0.899,0,1.629,0.314,2.186,0.945c0.56,0.631,0.838,1.467,0.838,2.512
		c0,1.043-0.278,1.881-0.838,2.51c-0.557,0.631-1.286,0.945-2.186,0.945C421.004,296.113,420.279,295.795,419.727,295.16z
		 M423.048,294.277c0.27-0.383,0.404-0.924,0.404-1.619c0-0.696-0.135-1.236-0.404-1.621c-0.27-0.383-0.65-0.575-1.143-0.575
		c-0.469,0-0.844,0.194-1.125,0.585c-0.282,0.389-0.423,0.927-0.423,1.611c0,0.684,0.141,1.22,0.423,1.609
		c0.281,0.391,0.656,0.586,1.125,0.586C422.397,294.853,422.778,294.662,423.048,294.277z M429.465,289.326h1.764l-8.604,12.602
		h-1.764L429.465,289.326z M427.988,301.099c-0.552-0.636-0.827-1.471-0.827-2.502c0-1.033,0.275-1.866,0.827-2.502
		c0.553-0.636,1.277-0.955,2.179-0.955c0.899,0,1.629,0.319,2.187,0.955c0.559,0.636,0.837,1.469,0.837,2.502
		c0,1.031-0.278,1.866-0.837,2.502c-0.558,0.636-1.287,0.953-2.187,0.953C429.266,302.052,428.541,301.735,427.988,301.099z
		 M431.301,300.207c0.275-0.389,0.414-0.926,0.414-1.609s-0.139-1.222-0.414-1.611c-0.277-0.39-0.654-0.584-1.134-0.584
		c-0.48,0-0.858,0.191-1.134,0.575c-0.277,0.384-0.414,0.925-0.414,1.62s0.137,1.236,0.414,1.62
		c0.275,0.384,0.653,0.575,1.134,0.575C430.646,300.793,431.023,300.598,431.301,300.207z"/>
</g>
<g>
	<path fill="#3C3430" d="M377.074,298v0.99h-4.643v-0.785l2.502-2.375c0.281-0.27,0.472-0.506,0.57-0.706
		c0.1-0.201,0.148-0.4,0.148-0.598c0-0.295-0.1-0.521-0.297-0.676c-0.197-0.156-0.489-0.234-0.873-0.234
		c-0.642,0-1.134,0.22-1.475,0.658l-0.819-0.632c0.246-0.329,0.577-0.586,0.993-0.769c0.418-0.184,0.885-0.274,1.4-0.274
		c0.684,0,1.229,0.161,1.638,0.486c0.409,0.324,0.61,0.765,0.61,1.323c0,0.341-0.07,0.662-0.213,0.962
		c-0.146,0.301-0.422,0.643-0.83,1.026L374.104,298H377.074z"/>
</g>
<g>
	<path fill="#3C3430" d="M303.218,292.703v6.301h-1.169v-5.319h-1.333v-0.981H303.218z"/>
	<path fill="#3C3430" d="M305.749,298.711c-0.397-0.256-0.709-0.627-0.938-1.117c-0.229-0.487-0.341-1.068-0.341-1.74
		s0.112-1.252,0.341-1.741s0.54-0.861,0.938-1.116c0.396-0.255,0.845-0.383,1.348-0.383c0.504,0,0.958,0.128,1.356,0.383
		s0.712,0.627,0.94,1.116s0.343,1.069,0.343,1.741s-0.114,1.253-0.343,1.74c-0.229,0.49-0.542,0.861-0.94,1.117
		c-0.398,0.254-0.853,0.382-1.356,0.382C306.594,299.093,306.145,298.965,305.749,298.711z M308.163,297.517
		c0.264-0.371,0.393-0.927,0.393-1.664c0-0.738-0.129-1.293-0.393-1.665c-0.261-0.372-0.615-0.558-1.066-0.558
		c-0.442,0-0.796,0.186-1.056,0.558c-0.262,0.372-0.392,0.927-0.392,1.665c0,0.737,0.13,1.293,0.392,1.664
		c0.26,0.373,0.613,0.559,1.056,0.559C307.548,298.076,307.902,297.89,308.163,297.517z"/>
</g>
<g>
	<path fill="#3C3430" d="M235.524,298.014v0.99h-4.644v-0.782l2.502-2.377c0.281-0.27,0.472-0.505,0.571-0.706
		c0.1-0.2,0.149-0.399,0.149-0.598c0-0.294-0.1-0.52-0.297-0.675c-0.198-0.157-0.49-0.234-0.873-0.234
		c-0.644,0-1.136,0.22-1.476,0.657l-0.82-0.631c0.246-0.33,0.577-0.586,0.995-0.77c0.417-0.183,0.883-0.273,1.398-0.273
		c0.686,0,1.23,0.161,1.638,0.486c0.409,0.323,0.612,0.765,0.612,1.322c0,0.342-0.07,0.662-0.215,0.963
		c-0.146,0.3-0.421,0.641-0.828,1.027l-1.684,1.6H235.524z"/>
	<path fill="#3C3430" d="M237.451,298.712c-0.397-0.255-0.708-0.627-0.937-1.116c-0.229-0.486-0.343-1.069-0.343-1.739
		c0-0.673,0.114-1.253,0.343-1.742s0.539-0.861,0.937-1.116c0.395-0.255,0.845-0.382,1.349-0.382s0.956,0.127,1.354,0.382
		s0.713,0.627,0.941,1.116s0.342,1.069,0.342,1.742c0,0.67-0.113,1.253-0.342,1.739c-0.229,0.489-0.543,0.861-0.941,1.116
		s-0.851,0.384-1.354,0.384S237.846,298.967,237.451,298.712z M239.866,297.519c0.263-0.372,0.393-0.926,0.393-1.663
		c0-0.738-0.13-1.294-0.393-1.666c-0.261-0.372-0.615-0.558-1.066-0.558c-0.444,0-0.796,0.186-1.058,0.558
		c-0.261,0.372-0.391,0.928-0.391,1.666c0,0.737,0.13,1.291,0.391,1.663c0.262,0.372,0.613,0.56,1.058,0.56
		C239.251,298.079,239.605,297.891,239.866,297.519z"/>
</g>
<g>
	<path fill="#3C3430" d="M159.016,295.864c0.308,0.325,0.46,0.729,0.46,1.216c0,0.366-0.094,0.699-0.278,0.999
		c-0.188,0.3-0.467,0.538-0.842,0.715s-0.834,0.265-1.373,0.265c-0.449,0-0.883-0.064-1.301-0.193
		c-0.416-0.129-0.771-0.307-1.066-0.534l0.504-0.909c0.229,0.191,0.506,0.344,0.832,0.455c0.328,0.109,0.665,0.166,1.014,0.166
		c0.413,0,0.738-0.086,0.976-0.257s0.356-0.403,0.356-0.697s-0.113-0.522-0.339-0.688c-0.224-0.166-0.568-0.248-1.03-0.248h-0.575
		v-0.801l1.431-1.701h-2.861v-0.98h4.293v0.783l-1.531,1.818C158.266,295.343,158.711,295.541,159.016,295.864z"/>
	<path fill="#3C3430" d="M161.518,298.677c-0.396-0.255-0.707-0.627-0.935-1.116c-0.229-0.488-0.343-1.069-0.343-1.74
		c0-0.672,0.114-1.252,0.343-1.742c0.228-0.488,0.539-0.861,0.935-1.115c0.396-0.256,0.847-0.383,1.351-0.383
		s0.955,0.127,1.354,0.383c0.398,0.254,0.712,0.627,0.94,1.115c0.229,0.49,0.343,1.07,0.343,1.742c0,0.671-0.114,1.252-0.343,1.74
		c-0.229,0.489-0.542,0.861-0.94,1.116s-0.85,0.382-1.354,0.382S161.913,298.931,161.518,298.677z M163.935,297.484
		c0.261-0.372,0.393-0.928,0.393-1.664c0-0.738-0.132-1.293-0.393-1.666c-0.261-0.371-0.615-0.558-1.066-0.558
		c-0.445,0-0.797,0.187-1.058,0.558c-0.261,0.373-0.393,0.928-0.393,1.666c0,0.736,0.132,1.292,0.393,1.664s0.612,0.559,1.058,0.559
		C163.319,298.043,163.674,297.856,163.935,297.484z"/>
</g>
<g>
	<path fill="#3C3430" d="M86.77,297.387h-1.116v1.433H84.52v-1.433h-3.455v-0.809l3.104-4.06h1.251l-2.924,3.878h2.062v-1.268h1.097
		v1.268h1.116V297.387z"/>
	<path fill="#3C3430" d="M88.542,298.527c-0.396-0.255-0.708-0.627-0.935-1.116c-0.229-0.489-0.343-1.069-0.343-1.741
		s0.114-1.252,0.343-1.741c0.227-0.489,0.539-0.861,0.935-1.116s0.847-0.383,1.351-0.383s0.955,0.128,1.354,0.383
		s0.712,0.627,0.94,1.116s0.343,1.069,0.343,1.741s-0.114,1.252-0.343,1.741s-0.542,0.861-0.94,1.116s-0.85,0.381-1.354,0.381
		S88.938,298.782,88.542,298.527z M90.959,297.335c0.261-0.372,0.393-0.929,0.393-1.665c0-0.738-0.132-1.293-0.393-1.665
		s-0.615-0.559-1.066-0.559c-0.445,0-0.797,0.187-1.058,0.559s-0.393,0.927-0.393,1.665c0,0.736,0.132,1.293,0.393,1.665
		s0.612,0.557,1.058,0.557C90.344,297.891,90.698,297.707,90.959,297.335z"/>
</g>
<g>
	<path fill="#3C3430" d="M11.359,295.572c0.426,0.344,0.639,0.813,0.639,1.408c0,0.378-0.092,0.721-0.278,1.025
		s-0.466,0.548-0.837,0.729c-0.371,0.179-0.83,0.27-1.378,0.27c-0.448,0-0.885-0.064-1.304-0.193
		c-0.42-0.129-0.773-0.308-1.063-0.536l0.496-0.908c0.232,0.19,0.514,0.343,0.842,0.454c0.325,0.111,0.664,0.167,1.011,0.167
		c0.415,0,0.739-0.085,0.978-0.258c0.236-0.17,0.355-0.404,0.355-0.706c0-0.322-0.129-0.568-0.384-0.732
		c-0.255-0.167-0.691-0.249-1.31-0.249H7.606l0.325-3.429h3.697v0.981H8.922l-0.137,1.458h0.604
		C10.277,295.053,10.935,295.226,11.359,295.572z"/>
	<path fill="#3C3430" d="M13.952,298.621c-0.397-0.255-0.709-0.627-0.937-1.116c-0.229-0.486-0.341-1.069-0.341-1.739
		c0-0.673,0.112-1.253,0.341-1.742c0.228-0.489,0.539-0.861,0.937-1.116c0.396-0.255,0.845-0.382,1.349-0.382
		s0.957,0.127,1.355,0.382s0.712,0.627,0.94,1.116s0.343,1.069,0.343,1.742c0,0.67-0.114,1.253-0.343,1.739
		c-0.229,0.489-0.542,0.861-0.94,1.116s-0.852,0.384-1.355,0.384S14.348,298.876,13.952,298.621z M16.367,297.428
		c0.263-0.372,0.393-0.926,0.393-1.663c0-0.738-0.13-1.294-0.393-1.666c-0.26-0.372-0.615-0.558-1.066-0.558
		c-0.443,0-0.795,0.186-1.057,0.558s-0.392,0.928-0.392,1.666c0,0.737,0.13,1.291,0.392,1.663s0.613,0.56,1.057,0.56
		C15.752,297.988,16.107,297.801,16.367,297.428z"/>
</g>
<g>
	<path fill="#3C3430" d="M-61.06,295.193c0.328,0.158,0.587,0.385,0.773,0.678c0.187,0.295,0.278,0.635,0.278,1.019
		c0,0.407-0.103,0.767-0.305,1.075c-0.205,0.309-0.48,0.548-0.829,0.715c-0.349,0.168-0.738,0.252-1.169,0.252
		c-0.864,0-1.535-0.27-2.013-0.811c-0.478-0.539-0.715-1.313-0.715-2.321c0-0.708,0.129-1.313,0.387-1.813s0.62-0.882,1.084-1.143
		c0.466-0.261,1.005-0.391,1.616-0.391c0.323,0,0.628,0.033,0.914,0.102c0.285,0.07,0.531,0.17,0.742,0.303l-0.432,0.881
		c-0.313-0.203-0.711-0.306-1.197-0.306c-0.606,0-1.081,0.187-1.422,0.558c-0.342,0.373-0.515,0.91-0.515,1.611v0.01
		c0.188-0.216,0.425-0.38,0.712-0.491c0.287-0.11,0.612-0.165,0.973-0.165C-61.763,294.955-61.391,295.033-61.06,295.193z
		 M-61.484,297.721c0.229-0.194,0.343-0.454,0.343-0.778c0-0.33-0.114-0.592-0.343-0.783c-0.227-0.191-0.533-0.289-0.917-0.289
		c-0.378,0-0.686,0.104-0.923,0.307c-0.237,0.205-0.354,0.463-0.354,0.775c0,0.306,0.114,0.559,0.346,0.76s0.551,0.302,0.958,0.302
		C-62.009,298.014-61.711,297.916-61.484,297.721z"/>
	<path fill="#3C3430" d="M-58.117,298.549c-0.396-0.254-0.707-0.627-0.936-1.115s-0.342-1.07-0.342-1.74
		c0-0.673,0.113-1.253,0.342-1.742s0.539-0.861,0.936-1.116s0.846-0.382,1.35-0.382s0.957,0.127,1.355,0.382
		s0.711,0.627,0.939,1.116s0.344,1.069,0.344,1.742c0,0.67-0.115,1.252-0.344,1.74s-0.541,0.861-0.939,1.115
		c-0.398,0.256-0.852,0.383-1.355,0.383S-57.721,298.804-58.117,298.549z M-55.701,297.357c0.262-0.373,0.393-0.928,0.393-1.664
		c0-0.738-0.131-1.294-0.393-1.666c-0.261-0.372-0.615-0.559-1.066-0.559c-0.443,0-0.795,0.187-1.058,0.559
		c-0.261,0.372-0.392,0.928-0.392,1.666c0,0.736,0.131,1.291,0.392,1.664c0.263,0.371,0.614,0.558,1.058,0.558
		C-56.316,297.915-55.962,297.728-55.701,297.357z"/>
</g>
<g>
	<path fill="#3C3430" d="M-133.756,292.613v0.784l-2.449,5.517h-1.25l2.367-5.311h-2.475v1.071h-1.088v-2.062H-133.756z"/>
	<path fill="#3C3430" d="M-131.938,298.621c-0.396-0.255-0.708-0.627-0.936-1.116c-0.229-0.487-0.343-1.069-0.343-1.74
		c0-0.673,0.114-1.253,0.343-1.741c0.228-0.49,0.539-0.861,0.936-1.117c0.396-0.254,0.846-0.382,1.35-0.382s0.956,0.128,1.354,0.382
		c0.398,0.256,0.712,0.627,0.94,1.117c0.229,0.488,0.343,1.068,0.343,1.741c0,0.671-0.114,1.253-0.343,1.74
		c-0.229,0.489-0.542,0.861-0.94,1.116s-0.851,0.383-1.354,0.383S-131.542,298.876-131.938,298.621z M-129.521,297.428
		c0.262-0.372,0.393-0.927,0.393-1.664c0-0.738-0.131-1.294-0.393-1.665c-0.262-0.373-0.615-0.559-1.066-0.559
		c-0.444,0-0.796,0.186-1.059,0.559c-0.26,0.371-0.391,0.927-0.391,1.665c0,0.737,0.131,1.292,0.391,1.664
		c0.263,0.372,0.614,0.558,1.059,0.558C-130.137,297.986-129.783,297.801-129.521,297.428z"/>
</g>
<g>
	<path fill="#3C3430" d="M-206.021,296.088c0.176,0.256,0.265,0.555,0.265,0.896c0,0.384-0.106,0.721-0.319,1.008
		c-0.213,0.288-0.514,0.509-0.904,0.662c-0.391,0.152-0.844,0.229-1.359,0.229s-0.967-0.076-1.354-0.229
		c-0.387-0.153-0.686-0.374-0.896-0.662c-0.211-0.287-0.314-0.624-0.314-1.008c0-0.341,0.086-0.64,0.261-0.896
		c0.175-0.254,0.423-0.458,0.747-0.607c-0.252-0.138-0.445-0.319-0.582-0.545c-0.135-0.225-0.201-0.483-0.201-0.777
		c0-0.355,0.098-0.664,0.293-0.928c0.194-0.264,0.469-0.467,0.822-0.612c0.355-0.144,0.762-0.216,1.225-0.216
		c0.469,0,0.879,0.072,1.234,0.216c0.353,0.146,0.629,0.349,0.827,0.612s0.298,0.572,0.298,0.928c0,0.294-0.07,0.552-0.209,0.773
		c-0.137,0.223-0.335,0.405-0.594,0.549C-206.453,295.63-206.199,295.834-206.021,296.088z M-207.314,297.693
		c0.252-0.178,0.379-0.428,0.379-0.746c0-0.311-0.127-0.557-0.379-0.737s-0.594-0.271-1.025-0.271s-0.77,0.09-1.016,0.271
		s-0.369,0.427-0.369,0.737c0,0.318,0.123,0.568,0.369,0.746c0.246,0.181,0.584,0.271,1.016,0.271S-207.566,297.874-207.314,297.693
		z M-209.208,293.554c-0.212,0.156-0.319,0.375-0.319,0.657c0,0.27,0.107,0.485,0.319,0.644c0.212,0.159,0.503,0.238,0.868,0.238
		c0.373,0,0.666-0.079,0.883-0.238c0.217-0.158,0.323-0.374,0.323-0.644c0-0.282-0.11-0.501-0.328-0.657s-0.511-0.234-0.878-0.234
		C-208.705,293.32-208.996,293.398-209.208,293.554z"/>
	<path fill="#3C3430" d="M-203.723,298.5c-0.395-0.256-0.709-0.627-0.936-1.117c-0.229-0.487-0.342-1.068-0.342-1.74
		s0.113-1.252,0.342-1.741c0.227-0.489,0.541-0.861,0.936-1.116c0.396-0.255,0.846-0.383,1.35-0.383s0.957,0.128,1.355,0.383
		s0.711,0.627,0.939,1.116s0.344,1.069,0.344,1.741s-0.115,1.253-0.344,1.74c-0.229,0.49-0.541,0.861-0.939,1.117
		c-0.398,0.254-0.852,0.382-1.355,0.382S-203.326,298.754-203.723,298.5z M-201.307,297.306c0.262-0.371,0.393-0.927,0.393-1.664
		c0-0.738-0.131-1.293-0.393-1.665c-0.261-0.372-0.615-0.558-1.066-0.558c-0.443,0-0.795,0.186-1.058,0.558
		c-0.261,0.372-0.392,0.927-0.392,1.665c0,0.737,0.131,1.293,0.392,1.664c0.263,0.373,0.614,0.559,1.058,0.559
		C-201.922,297.865-201.567,297.679-201.307,297.306z"/>
</g>
<g>
	<path fill="#3C3430" d="M-281.105,293.285c0.477,0.539,0.717,1.314,0.717,2.322c0,0.708-0.129,1.312-0.387,1.813
		c-0.26,0.501-0.621,0.882-1.086,1.143s-1.004,0.393-1.615,0.393c-0.324,0-0.629-0.035-0.914-0.103
		c-0.285-0.07-0.532-0.17-0.742-0.302l0.432-0.882c0.313,0.202,0.711,0.305,1.197,0.305c0.607,0,1.08-0.185,1.422-0.557
		s0.512-0.911,0.512-1.612v-0.009c-0.184,0.215-0.422,0.379-0.71,0.49s-0.61,0.167-0.972,0.167c-0.414,0-0.786-0.079-1.115-0.237
		c-0.332-0.161-0.59-0.388-0.773-0.681c-0.188-0.294-0.28-0.633-0.28-1.018c0-0.407,0.101-0.767,0.306-1.075
		c0.204-0.31,0.48-0.547,0.828-0.715c0.348-0.169,0.738-0.252,1.17-0.252C-282.252,292.475-281.582,292.745-281.105,293.285z
		 M-282.104,295.229c0.237-0.204,0.356-0.463,0.356-0.775c0-0.305-0.116-0.558-0.348-0.76c-0.23-0.201-0.549-0.302-0.958-0.302
		c-0.366,0-0.663,0.098-0.892,0.293c-0.228,0.194-0.342,0.454-0.342,0.779c0,0.329,0.114,0.59,0.342,0.782
		c0.229,0.191,0.534,0.288,0.92,0.288C-282.648,295.535-282.342,295.432-282.104,295.229z"/>
	<path fill="#3C3430" d="M-278.319,298.571c-0.397-0.255-0.708-0.627-0.937-1.116c-0.229-0.486-0.342-1.069-0.342-1.739
		c0-0.673,0.113-1.253,0.342-1.742s0.539-0.861,0.937-1.116c0.396-0.255,0.845-0.382,1.349-0.382s0.957,0.127,1.355,0.382
		s0.712,0.627,0.94,1.116s0.343,1.069,0.343,1.742c0,0.67-0.114,1.253-0.343,1.739c-0.229,0.489-0.542,0.861-0.94,1.116
		s-0.852,0.384-1.355,0.384S-277.924,298.826-278.319,298.571z M-275.904,297.379c0.263-0.372,0.393-0.926,0.393-1.663
		c0-0.738-0.13-1.294-0.393-1.666c-0.26-0.372-0.615-0.558-1.066-0.558c-0.443,0-0.795,0.186-1.057,0.558s-0.392,0.928-0.392,1.666
		c0,0.737,0.13,1.291,0.392,1.663s0.613,0.56,1.057,0.56C-276.52,297.938-276.164,297.751-275.904,297.379z"/>
</g>
<g>
	<path fill="#3C3430" d="M-353.419,292.578v6.301h-1.169v-5.318h-1.333v-0.982H-353.419z"/>
	<path fill="#3C3430" d="M-350.888,298.586c-0.397-0.255-0.709-0.627-0.938-1.116c-0.229-0.487-0.341-1.069-0.341-1.74
		c0-0.673,0.112-1.253,0.341-1.741c0.229-0.49,0.54-0.861,0.938-1.117c0.396-0.254,0.845-0.382,1.349-0.382s0.955,0.128,1.354,0.382
		c0.399,0.256,0.713,0.627,0.941,1.117c0.228,0.488,0.341,1.068,0.341,1.741c0,0.671-0.113,1.253-0.341,1.74
		c-0.229,0.489-0.542,0.861-0.941,1.116s-0.851,0.383-1.354,0.383S-350.492,298.841-350.888,298.586z M-348.473,297.393
		c0.262-0.372,0.392-0.927,0.392-1.664c0-0.738-0.13-1.294-0.392-1.665c-0.26-0.373-0.616-0.559-1.066-0.559
		c-0.443,0-0.797,0.186-1.057,0.559c-0.262,0.371-0.392,0.927-0.392,1.665c0,0.737,0.13,1.292,0.392,1.664
		c0.26,0.372,0.613,0.558,1.057,0.558C-349.089,297.951-348.732,297.765-348.473,297.393z"/>
	<path fill="#3C3430" d="M-342.169,295.536c0.427,0.345,0.64,0.814,0.64,1.407c0,0.379-0.094,0.721-0.279,1.025
		c-0.186,0.307-0.465,0.55-0.836,0.73c-0.373,0.18-0.832,0.27-1.377,0.27c-0.45,0-0.885-0.064-1.306-0.193s-0.774-0.309-1.062-0.535
		l0.494-0.91c0.234,0.192,0.515,0.345,0.842,0.456c0.326,0.11,0.664,0.165,1.012,0.165c0.414,0,0.74-0.084,0.977-0.256
		c0.238-0.172,0.356-0.406,0.356-0.706c0-0.323-0.128-0.568-0.382-0.733c-0.256-0.166-0.691-0.248-1.311-0.248h-1.521l0.325-3.43
		h3.698v0.982h-2.709l-0.135,1.457h0.604C-343.252,295.017-342.594,295.19-342.169,295.536z"/>
</g>
</svg>
