<?xml version="1.0" encoding="utf-8"?>
<!-- Generator: Adobe Illustrator 16.0.0, SVG Export Plug-In . SVG Version: 6.00 Build 0)  -->
<!DOCTYPE svg PUBLIC "-//W3C//DTD SVG 1.1//EN" "http://www.w3.org/Graphics/SVG/1.1/DTD/svg11.dtd">
<svg version="1.1" id="Livello_1" xmlns="http://www.w3.org/2000/svg" xmlns:xlink="http://www.w3.org/1999/xlink" x="0px" y="0px"
	 width="32px" height="590px" viewBox="0 0 32.746 590.697" enable-background="new 0 0 32.746 590.697"
	 xml:space="preserve">
<g>
	<defs>
		<path id="SVGID_3_" d="M26.996,582.382c0,3.713-5.958,8.074-10.593,8.074h-0.651c-4.296,0-9.94-3.881-9.94-8.074V44.135
			c1.023-4.94,6.494-7.797,10.184-7.792l0,0c4.297-0.005,9.896,2.929,11.001,7.984V582.382z"/>
	</defs>
	<clipPath id="SVGID_4_">
		<use xlink:href="#SVGID_3_"  overflow="visible"/>
	</clipPath>
	<rect x="-15.397" y="34.659" clip-path="url(#SVGID_4_)" fill="#EB2426" width="77.044" height="48.485"/>
	<rect x="-15.397" y="82.553" clip-path="url(#SVGID_4_)" fill="#F07526" width="77.044" height="48.485"/>
	<rect x="-15.397" y="131.038" clip-path="url(#SVGID_4_)" fill="#FCFC1C" width="77.044" height="48.487"/>
	<rect x="-15.397" y="179.525" clip-path="url(#SVGID_4_)" fill="#C8E636" width="77.044" height="48.484"/>
	<rect x="-15.397" y="228.01" clip-path="url(#SVGID_4_)" fill="#7ECB47" width="77.044" height="48.485"/>
	<rect x="-15.397" y="275.886" clip-path="url(#SVGID_4_)" fill="#5DC24B" width="77.044" height="48.481"/>
	<rect x="-15.397" y="324.368" clip-path="url(#SVGID_4_)" fill="#95D4C0" width="77.044" height="48.486"/>
	<rect x="-15.397" y="372.854" clip-path="url(#SVGID_4_)" fill="#6FC8DC" width="77.044" height="48.484"/>
	<rect x="-15.397" y="421.339" clip-path="url(#SVGID_4_)" fill="#4880CA" width="77.044" height="48.486"/>
	<rect x="-15.397" y="469.825" clip-path="url(#SVGID_4_)" fill="#3F57AF" width="77.044" height="48.484"/>
	<rect x="-15.397" y="518.309" clip-path="url(#SVGID_4_)" fill="#FFFFFF" width="77.044" height="73.199"/>
</g>
<g display="none">
	<g display="inline">
		<g>
			<g>
				<g>
					<defs>
						<path id="SVGID_5_" d="M27.262,580.715c-0.316,3.428-5.673,7.51-10.308,7.51l0,0c-4.594,0.367-10.877-3.314-10.877-7.51
							V42.467c1.021-4.939,6.492-7.798,10.182-7.792l0,0c4.298-0.006,9.896,2.93,11.003,7.984V580.715L27.262,580.715z"/>
					</defs>
					<clipPath id="SVGID_6_">
						<use xlink:href="#SVGID_5_"  overflow="visible"/>
					</clipPath>
					<rect x="0.88" y="495.265" clip-path="url(#SVGID_6_)" fill="#FFFAFA" width="31.578" height="99.045"/>
				</g>
			</g>
		</g>
		<g>
			<g>
				<g>
					<defs>
						<path id="SVGID_7_" d="M27.262,580.715c-0.316,3.428-5.673,7.51-10.308,7.51l0,0c-4.594,0.367-10.877-3.314-10.877-7.51
							V42.467c1.021-4.939,6.492-7.798,10.182-7.792l0,0c4.298-0.006,9.896,2.93,11.003,7.984V580.715L27.262,580.715z"/>
					</defs>
					<clipPath id="SVGID_8_">
						<use xlink:href="#SVGID_7_"  overflow="visible"/>
					</clipPath>
					<rect x="1.196" y="315.187" clip-path="url(#SVGID_8_)" fill="#FBD5D6" width="31.578" height="90.041"/>
				</g>
			</g>
		</g>
		<g>
			<g>
				<g>
					<defs>
						<path id="SVGID_9_" d="M27.262,580.715c-0.316,3.428-5.673,7.51-10.308,7.51l0,0c-4.594,0.367-10.877-3.314-10.877-7.51
							V42.467c1.021-4.939,6.492-7.798,10.182-7.792l0,0c4.298-0.006,9.896,2.93,11.003,7.984V580.715L27.262,580.715z"/>
					</defs>
					<clipPath id="SVGID_10_">
						<use xlink:href="#SVGID_9_"  overflow="visible"/>
					</clipPath>
					<rect x="1.196" y="225.147" clip-path="url(#SVGID_10_)" fill="#F9C1C2" width="31.578" height="90.038"/>
				</g>
			</g>
		</g>
		<g>
			<g>
				<g>
					<defs>
						<path id="SVGID_11_" d="M27.262,580.715c-0.316,3.428-5.673,7.51-10.308,7.51l0,0c-4.594,0.367-10.877-3.314-10.877-7.51
							V42.467c1.021-4.939,6.492-7.798,10.182-7.792l0,0c4.298-0.006,9.896,2.93,11.003,7.984V580.715L27.262,580.715z"/>
					</defs>
					<clipPath id="SVGID_12_">
						<use xlink:href="#SVGID_11_"  overflow="visible"/>
					</clipPath>
					<rect x="0.88" y="405.226" clip-path="url(#SVGID_12_)" fill="#FDEBEB" width="31.578" height="90.041"/>
				</g>
			</g>
		</g>
		<g>
			<g>
				<g>
					<defs>
						<path id="SVGID_13_" d="M27.262,580.715c-0.316,3.428-5.673,7.51-10.308,7.51l0,0c-4.594,0.367-10.877-3.314-10.877-7.51
							V42.467c1.021-4.939,6.492-7.798,10.182-7.792l0,0c4.298-0.006,9.896,2.93,11.003,7.984V580.715L27.262,580.715z"/>
					</defs>
					<clipPath id="SVGID_14_">
						<use xlink:href="#SVGID_13_"  overflow="visible"/>
					</clipPath>
					<rect x="1.196" y="135.094" clip-path="url(#SVGID_14_)" fill="#F6ABAD" width="31.578" height="90.041"/>
				</g>
			</g>
		</g>
		<g>
			<g>
				<g>
					<defs>
						<path id="SVGID_15_" d="M27.262,580.715c-0.316,3.428-5.673,7.51-10.308,7.51l0,0c-4.594,0.367-10.877-3.314-10.877-7.51
							V42.467c1.021-4.939,6.492-7.798,10.182-7.792l0,0c4.298-0.006,9.896,2.93,11.003,7.984V580.715L27.262,580.715z"/>
					</defs>
					<clipPath id="SVGID_16_">
						<use xlink:href="#SVGID_15_"  overflow="visible"/>
					</clipPath>
					<rect x="0.88" y="36.052" clip-path="url(#SVGID_16_)" fill="#F49799" width="31.577" height="99.043"/>
				</g>
			</g>
		</g>
	</g>
</g>
<g display="none">
	<g display="inline">
		<g>
			<g>
				<defs>
					<path id="SVGID_17_" d="M27.262,580.715c0,3.713-5.957,8.073-10.593,8.073h-0.652c-4.295,0-9.939-3.881-9.939-8.073V42.467
						c1.023-4.939,6.494-7.797,10.183-7.792l0,0c4.295-0.005,9.896,2.93,11,7.984V580.715L27.262,580.715z"/>
				</defs>
				<clipPath id="SVGID_18_">
					<use xlink:href="#SVGID_17_"  overflow="visible"/>
				</clipPath>
				<rect x="-4.972" y="34.675" clip-path="url(#SVGID_18_)" fill="#C8E8F0" width="43.281" height="27.238"/>
			</g>
		</g>
	</g>
	<g display="inline">
		<g>
			<g>
				<defs>
					<path id="SVGID_19_" d="M27.262,580.715c0,3.713-5.957,8.073-10.593,8.073h-0.652c-4.295,0-9.939-3.881-9.939-8.073V42.467
						c1.023-4.939,6.494-7.797,10.183-7.792l0,0c4.295-0.005,9.896,2.93,11,7.984V580.715L27.262,580.715z"/>
				</defs>
				<clipPath id="SVGID_20_">
					<use xlink:href="#SVGID_19_"  overflow="visible"/>
				</clipPath>
				<rect x="-4.972" y="61.914" clip-path="url(#SVGID_20_)" fill="#D0EBF7" width="43.281" height="27.238"/>
			</g>
		</g>
	</g>
	<g display="inline">
		<g>
			<g>
				<defs>
					<path id="SVGID_21_" d="M27.262,580.715c0,3.713-5.957,8.073-10.593,8.073h-0.652c-4.295,0-9.939-3.881-9.939-8.073V42.467
						c1.023-4.939,6.494-7.797,10.183-7.792l0,0c4.295-0.005,9.896,2.93,11,7.984V580.715L27.262,580.715z"/>
				</defs>
				<clipPath id="SVGID_22_">
					<use xlink:href="#SVGID_21_"  overflow="visible"/>
				</clipPath>
				<rect x="-4.972" y="88.639" clip-path="url(#SVGID_22_)" fill="#4898DA" width="43.281" height="27.237"/>
			</g>
		</g>
	</g>
	<g display="inline">
		<g>
			<g>
				<defs>
					<path id="SVGID_23_" d="M27.262,580.715c0,3.713-5.957,8.073-10.593,8.073h-0.652c-4.295,0-9.939-3.881-9.939-8.073V42.467
						c1.023-4.939,6.494-7.797,10.183-7.792l0,0c4.295-0.005,9.896,2.93,11,7.984V580.715L27.262,580.715z"/>
				</defs>
				<clipPath id="SVGID_24_">
					<use xlink:href="#SVGID_23_"  overflow="visible"/>
				</clipPath>
				<rect x="-4.972" y="115.877" clip-path="url(#SVGID_24_)" fill="#A3A5D7" width="43.281" height="27.238"/>
			</g>
		</g>
	</g>
	<g display="inline">
		<g>
			<g>
				<defs>
					<path id="SVGID_25_" d="M27.262,580.715c0,3.713-5.957,8.073-10.593,8.073h-0.652c-4.295,0-9.939-3.881-9.939-8.073V42.467
						c1.023-4.939,6.494-7.797,10.183-7.792l0,0c4.295-0.005,9.896,2.93,11,7.984V580.715L27.262,580.715z"/>
				</defs>
				<clipPath id="SVGID_26_">
					<use xlink:href="#SVGID_25_"  overflow="visible"/>
				</clipPath>
				<rect x="-4.972" y="143.116" clip-path="url(#SVGID_26_)" fill="#B988C1" width="43.281" height="27.237"/>
			</g>
		</g>
	</g>
	<g display="inline">
		<g>
			<g>
				<defs>
					<path id="SVGID_27_" d="M27.262,580.715c0,3.713-5.957,8.073-10.593,8.073h-0.652c-4.295,0-9.939-3.881-9.939-8.073V42.467
						c1.023-4.939,6.494-7.797,10.183-7.792l0,0c4.295-0.005,9.896,2.93,11,7.984V580.715L27.262,580.715z"/>
				</defs>
				<clipPath id="SVGID_28_">
					<use xlink:href="#SVGID_27_"  overflow="visible"/>
				</clipPath>
				<rect x="-4.972" y="170.353" clip-path="url(#SVGID_28_)" fill="#D7A2CD" width="43.281" height="27.237"/>
			</g>
		</g>
	</g>
	<g display="inline">
		<g>
			<g>
				<defs>
					<path id="SVGID_29_" d="M27.262,580.715c0,3.713-5.957,8.073-10.593,8.073h-0.652c-4.295,0-9.939-3.881-9.939-8.073V42.467
						c1.023-4.939,6.494-7.797,10.183-7.792l0,0c4.295-0.005,9.896,2.93,11,7.984V580.715L27.262,580.715z"/>
				</defs>
				<clipPath id="SVGID_30_">
					<use xlink:href="#SVGID_29_"  overflow="visible"/>
				</clipPath>
				<rect x="-4.972" y="197.253" clip-path="url(#SVGID_30_)" fill="#E8BEDB" width="43.281" height="27.238"/>
			</g>
		</g>
	</g>
	<g display="inline">
		<g>
			<g>
				<defs>
					<path id="SVGID_31_" d="M27.262,580.715c0,3.713-5.957,8.073-10.593,8.073h-0.652c-4.295,0-9.939-3.881-9.939-8.073V42.467
						c1.023-4.939,6.494-7.797,10.183-7.792l0,0c4.295-0.005,9.896,2.93,11,7.984V580.715L27.262,580.715z"/>
				</defs>
				<clipPath id="SVGID_32_">
					<use xlink:href="#SVGID_31_"  overflow="visible"/>
				</clipPath>
				<rect x="-4.972" y="224.492" clip-path="url(#SVGID_32_)" fill="#E67D9B" width="43.281" height="27.238"/>
			</g>
		</g>
	</g>
	<g display="inline">
		<g>
			<g>
				<defs>
					<path id="SVGID_33_" d="M27.262,580.715c0,3.713-5.957,8.073-10.593,8.073h-0.652c-4.295,0-9.939-3.881-9.939-8.073V42.467
						c1.023-4.939,6.494-7.797,10.183-7.792l0,0c4.295-0.005,9.896,2.93,11,7.984V580.715L27.262,580.715z"/>
				</defs>
				<clipPath id="SVGID_34_">
					<use xlink:href="#SVGID_33_"  overflow="visible"/>
				</clipPath>
				<rect x="-4.972" y="251.73" clip-path="url(#SVGID_34_)" fill="#DB4C4D" width="43.281" height="27.235"/>
			</g>
		</g>
	</g>
	<g display="inline">
		<g>
			<g>
				<defs>
					<path id="SVGID_35_" d="M27.262,580.715c0,3.713-5.957,8.073-10.593,8.073h-0.652c-4.295,0-9.939-3.881-9.939-8.073V42.467
						c1.023-4.939,6.494-7.797,10.183-7.792l0,0c4.295-0.005,9.896,2.93,11,7.984V580.715L27.262,580.715z"/>
				</defs>
				<clipPath id="SVGID_36_">
					<use xlink:href="#SVGID_35_"  overflow="visible"/>
				</clipPath>
				<rect x="-4.972" y="278.966" clip-path="url(#SVGID_36_)" fill="#EF5A5C" width="43.281" height="27.238"/>
			</g>
		</g>
	</g>
	<g display="inline">
		<g>
			<g>
				<defs>
					<path id="SVGID_37_" d="M27.262,580.715c0,3.713-5.957,8.073-10.593,8.073h-0.652c-4.295,0-9.939-3.881-9.939-8.073V42.467
						c1.023-4.939,6.494-7.797,10.183-7.792l0,0c4.295-0.005,9.896,2.93,11,7.984V580.715L27.262,580.715z"/>
				</defs>
				<clipPath id="SVGID_38_">
					<use xlink:href="#SVGID_37_"  overflow="visible"/>
				</clipPath>
				<rect x="-4.972" y="305.872" clip-path="url(#SVGID_38_)" fill="#F7A25C" width="43.281" height="27.238"/>
			</g>
		</g>
	</g>
	<g display="inline">
		<g>
			<g>
				<defs>
					<path id="SVGID_39_" d="M27.262,580.715c0,3.713-5.957,8.073-10.593,8.073h-0.652c-4.295,0-9.939-3.881-9.939-8.073V42.467
						c1.023-4.939,6.494-7.797,10.183-7.792l0,0c4.295-0.005,9.896,2.93,11,7.984V580.715L27.262,580.715z"/>
				</defs>
				<clipPath id="SVGID_40_">
					<use xlink:href="#SVGID_39_"  overflow="visible"/>
				</clipPath>
				<rect x="-4.972" y="333.11" clip-path="url(#SVGID_40_)" fill="#FDD58F" width="43.281" height="27.238"/>
			</g>
		</g>
	</g>
	<g display="inline">
		<g>
			<g>
				<defs>
					<path id="SVGID_41_" d="M27.262,580.715c0,3.713-5.957,8.073-10.593,8.073h-0.652c-4.295,0-9.939-3.881-9.939-8.073V42.467
						c1.023-4.939,6.494-7.797,10.183-7.792l0,0c4.295-0.005,9.896,2.93,11,7.984V580.715L27.262,580.715z"/>
				</defs>
				<clipPath id="SVGID_42_">
					<use xlink:href="#SVGID_41_"  overflow="visible"/>
				</clipPath>
				<rect x="-4.972" y="360.349" clip-path="url(#SVGID_42_)" fill="#FFE173" width="43.281" height="27.238"/>
			</g>
		</g>
	</g>
	<g display="inline">
		<g>
			<g>
				<defs>
					<path id="SVGID_43_" d="M27.262,580.715c0,3.713-5.957,8.073-10.593,8.073h-0.652c-4.295,0-9.939-3.881-9.939-8.073V42.467
						c1.023-4.939,6.494-7.797,10.183-7.792l0,0c4.295-0.005,9.896,2.93,11,7.984V580.715L27.262,580.715z"/>
				</defs>
				<clipPath id="SVGID_44_">
					<use xlink:href="#SVGID_43_"  overflow="visible"/>
				</clipPath>
				<rect x="-4.972" y="387.588" clip-path="url(#SVGID_44_)" fill="#FEFE82" width="43.281" height="27.237"/>
			</g>
		</g>
	</g>
	<g display="inline">
		<g>
			<g>
				<defs>
					<path id="SVGID_45_" d="M27.262,580.715c0,3.713-5.957,8.073-10.593,8.073h-0.652c-4.295,0-9.939-3.881-9.939-8.073V42.467
						c1.023-4.939,6.494-7.797,10.183-7.792l0,0c4.295-0.005,9.896,2.93,11,7.984V580.715L27.262,580.715z"/>
				</defs>
				<clipPath id="SVGID_46_">
					<use xlink:href="#SVGID_45_"  overflow="visible"/>
				</clipPath>
				<rect x="-4.972" y="414.483" clip-path="url(#SVGID_46_)" fill="#FFFFC7" width="43.281" height="27.234"/>
			</g>
		</g>
	</g>
	<g display="inline">
		<g>
			<g>
				<defs>
					<path id="SVGID_47_" d="M27.262,580.715c0,3.713-5.957,8.073-10.593,8.073h-0.652c-4.295,0-9.939-3.881-9.939-8.073V42.467
						c1.023-4.939,6.494-7.797,10.183-7.792l0,0c4.295-0.005,9.896,2.93,11,7.984V580.715L27.262,580.715z"/>
				</defs>
				<clipPath id="SVGID_48_">
					<use xlink:href="#SVGID_47_"  overflow="visible"/>
				</clipPath>
				<rect x="-4.972" y="441.72" clip-path="url(#SVGID_48_)" fill="#F3F3A1" width="43.281" height="27.238"/>
			</g>
		</g>
	</g>
	<g display="inline">
		<g>
			<g>
				<defs>
					<path id="SVGID_49_" d="M27.262,580.715c0,3.713-5.957,8.073-10.593,8.073h-0.652c-4.295,0-9.939-3.881-9.939-8.073V42.467
						c1.023-4.939,6.494-7.797,10.183-7.792l0,0c4.295-0.005,9.896,2.93,11,7.984V580.715L27.262,580.715z"/>
				</defs>
				<clipPath id="SVGID_50_">
					<use xlink:href="#SVGID_49_"  overflow="visible"/>
				</clipPath>
				<rect x="-4.972" y="468.959" clip-path="url(#SVGID_50_)" fill="#D3ECA4" width="43.281" height="27.237"/>
			</g>
		</g>
	</g>
	<g display="inline">
		<g>
			<g>
				<defs>
					<path id="SVGID_51_" d="M27.262,580.715c0,3.713-5.957,8.073-10.593,8.073h-0.652c-4.295,0-9.939-3.881-9.939-8.073V42.467
						c1.023-4.939,6.494-7.797,10.183-7.792l0,0c4.295-0.005,9.896,2.93,11,7.984V580.715L27.262,580.715z"/>
				</defs>
				<clipPath id="SVGID_52_">
					<use xlink:href="#SVGID_51_"  overflow="visible"/>
				</clipPath>
				<rect x="-4.972" y="496.196" clip-path="url(#SVGID_52_)" fill="#C3E6D8" width="43.281" height="27.236"/>
			</g>
		</g>
	</g>
	<g display="inline">
		<g>
			<g>
				<defs>
					<path id="SVGID_53_" d="M27.262,580.715c0,3.713-5.957,8.073-10.593,8.073h-0.652c-4.295,0-9.939-3.881-9.939-8.073V42.467
						c1.023-4.939,6.494-7.797,10.183-7.792l0,0c4.295-0.005,9.896,2.93,11,7.984V580.715L27.262,580.715z"/>
				</defs>
				<clipPath id="SVGID_54_">
					<use xlink:href="#SVGID_53_"  overflow="visible"/>
				</clipPath>
				<rect x="-4.972" y="523.435" clip-path="url(#SVGID_54_)" fill="#C8E8F0" width="43.281" height="27.238"/>
			</g>
		</g>
	</g>
	<g display="inline">
		<g>
			<g>
				<defs>
					<path id="SVGID_55_" d="M27.262,580.715c0,3.713-5.957,8.073-10.593,8.073h-0.652c-4.295,0-9.939-3.881-9.939-8.073V42.467
						c1.023-4.939,6.494-7.797,10.183-7.792l0,0c4.295-0.005,9.896,2.93,11,7.984V580.715L27.262,580.715z"/>
				</defs>
				<clipPath id="SVGID_56_">
					<use xlink:href="#SVGID_55_"  overflow="visible"/>
				</clipPath>
				<rect x="-4.972" y="550.674" clip-path="url(#SVGID_56_)" fill="#D0EBF7" width="43.281" height="41.121"/>
			</g>
		</g>
	</g>
</g>
<g display="none">
	<g display="inline">
		<g>
			<g>
				<g>
					<defs>
						<path id="SVGID_57_" d="M27.053,580.983c-0.316,3.428-5.673,7.51-10.308,7.51l0,0c-4.594,0.367-10.877-3.315-10.877-7.51
							V42.738c1.021-4.94,6.492-7.798,10.182-7.792l0,0c4.298-0.006,9.896,2.929,11.003,7.984V580.983L27.053,580.983z"/>
					</defs>
					<clipPath id="SVGID_58_">
						<use xlink:href="#SVGID_57_"  overflow="visible"/>
					</clipPath>
					<rect x="0.671" y="494.032" clip-path="url(#SVGID_58_)" fill="#EC2426" width="31.578" height="99.045"/>
				</g>
			</g>
		</g>
		<g>
			<g>
				<g>
					<defs>
						<path id="SVGID_59_" d="M27.053,580.983c-0.316,3.428-5.673,7.51-10.308,7.51l0,0c-4.594,0.367-10.877-3.315-10.877-7.51
							V42.738c1.021-4.94,6.492-7.798,10.182-7.792l0,0c4.298-0.006,9.896,2.929,11.003,7.984V580.983L27.053,580.983z"/>
					</defs>
					<clipPath id="SVGID_60_">
						<use xlink:href="#SVGID_59_"  overflow="visible"/>
					</clipPath>
					<rect x="0.987" y="313.954" clip-path="url(#SVGID_60_)" fill="#FCFC1E" width="31.578" height="90.041"/>
				</g>
			</g>
		</g>
		<g>
			<g>
				<g>
					<defs>
						<path id="SVGID_61_" d="M27.053,580.983c-0.316,3.428-5.673,7.51-10.308,7.51l0,0c-4.594,0.367-10.877-3.315-10.877-7.51
							V42.738c1.021-4.94,6.492-7.798,10.182-7.792l0,0c4.298-0.006,9.896,2.929,11.003,7.984V580.983L27.053,580.983z"/>
					</defs>
					<clipPath id="SVGID_62_">
						<use xlink:href="#SVGID_61_"  overflow="visible"/>
					</clipPath>
					<rect x="0.987" y="223.914" clip-path="url(#SVGID_62_)" fill="#0B7F3F" width="31.578" height="90.038"/>
				</g>
			</g>
		</g>
		<g>
			<g>
				<g>
					<defs>
						<path id="SVGID_63_" d="M27.053,580.983c-0.316,3.428-5.673,7.51-10.308,7.51l0,0c-4.594,0.367-10.877-3.315-10.877-7.51
							V42.738c1.021-4.94,6.492-7.798,10.182-7.792l0,0c4.298-0.006,9.896,2.929,11.003,7.984V580.983L27.053,580.983z"/>
					</defs>
					<clipPath id="SVGID_64_">
						<use xlink:href="#SVGID_63_"  overflow="visible"/>
					</clipPath>
					<rect x="0.671" y="403.993" clip-path="url(#SVGID_64_)" fill="#F7A426" width="31.578" height="90.041"/>
				</g>
			</g>
		</g>
		<g>
			<g>
				<g>
					<defs>
						<path id="SVGID_65_" d="M27.053,580.983c-0.316,3.428-5.673,7.51-10.308,7.51l0,0c-4.594,0.367-10.877-3.315-10.877-7.51
							V42.738c1.021-4.94,6.492-7.798,10.182-7.792l0,0c4.298-0.006,9.896,2.929,11.003,7.984V580.983L27.053,580.983z"/>
					</defs>
					<clipPath id="SVGID_66_">
						<use xlink:href="#SVGID_65_"  overflow="visible"/>
					</clipPath>
					<rect x="0.987" y="133.862" clip-path="url(#SVGID_66_)" fill="#6FC9DC" width="31.578" height="90.04"/>
				</g>
			</g>
		</g>
		<g>
			<g>
				<g>
					<defs>
						<path id="SVGID_67_" d="M27.053,580.983c-0.316,3.428-5.673,7.51-10.308,7.51l0,0c-4.594,0.367-10.877-3.315-10.877-7.51
							V42.738c1.021-4.94,6.492-7.798,10.182-7.792l0,0c4.298-0.006,9.896,2.929,11.003,7.984V580.983L27.053,580.983z"/>
					</defs>
					<clipPath id="SVGID_68_">
						<use xlink:href="#SVGID_67_"  overflow="visible"/>
					</clipPath>
					<rect x="0.987" y="34.818" clip-path="url(#SVGID_68_)" fill="#3F57B0" width="31.578" height="99.043"/>
				</g>
			</g>
		</g>
	</g>
</g>
<circle display="none" fill="#3A332F" cx="16.46" cy="15.781" r="14.909"/>
<path display="none" fill="none" stroke="#3C3430" stroke-width="3" stroke-miterlimit="10" d="M27.053,580.983
	c-0.316,3.428-5.673,7.51-10.308,7.51l0,0c-4.593,0.367-10.877-3.315-10.877-7.51V42.736c1.022-4.94,6.492-7.798,10.182-7.792l0,0
	c4.298-0.006,9.896,2.929,11.003,7.984V580.983L27.053,580.983z"/>
<g display="none">
	<path display="inline" fill="#3C3530" d="M11.72,579.44c-0.398-0.461-0.598-1.063-0.598-1.81c0-0.745,0.199-1.349,0.598-1.808
		c0.399-0.459,0.923-0.688,1.573-0.688s1.176,0.229,1.58,0.685c0.403,0.455,0.604,1.061,0.604,1.813s-0.202,1.357-0.604,1.813
		c-0.403,0.455-0.93,0.684-1.58,0.684S12.118,579.899,11.72,579.44z M14.118,578.803c0.195-0.275,0.292-0.667,0.292-1.17
		c0-0.502-0.097-0.894-0.292-1.17c-0.195-0.276-0.47-0.416-0.825-0.416c-0.338,0-0.609,0.144-0.813,0.423
		c-0.204,0.281-0.306,0.669-0.306,1.163s0.102,0.882,0.306,1.164c0.204,0.28,0.475,0.422,0.813,0.422
		C13.648,579.219,13.923,579.081,14.118,578.803z M18.753,575.229h1.272l-6.212,9.1h-1.274L18.753,575.229z M17.688,583.729
		c-0.397-0.461-0.599-1.063-0.599-1.809s0.199-1.349,0.599-1.808c0.397-0.459,0.922-0.688,1.574-0.688
		c0.647,0,1.176,0.229,1.577,0.688c0.404,0.459,0.604,1.063,0.604,1.808s-0.2,1.35-0.604,1.809c-0.401,0.459-0.93,0.688-1.577,0.688
		C18.609,584.42,18.085,584.189,17.688,583.729z M20.079,583.088c0.198-0.282,0.299-0.67,0.299-1.164s-0.101-0.883-0.299-1.163
		c-0.199-0.281-0.474-0.423-0.817-0.423c-0.349,0-0.621,0.139-0.82,0.416c-0.197,0.276-0.299,0.668-0.299,1.17
		c0,0.503,0.102,0.895,0.299,1.17c0.199,0.276,0.475,0.416,0.82,0.416C19.605,583.51,19.88,583.368,20.079,583.088z"/>
</g>
<g display="none">
	<path display="inline" fill="#3C3530" d="M15.288,534.154c0.379,0.308,0.568,0.725,0.568,1.252c0,0.336-0.083,0.641-0.248,0.912
		s-0.413,0.485-0.744,0.646c-0.331,0.159-0.739,0.239-1.224,0.239c-0.4,0-0.787-0.059-1.16-0.172
		c-0.373-0.114-0.688-0.272-0.944-0.479l0.44-0.809c0.208,0.171,0.458,0.307,0.748,0.404s0.591,0.146,0.9,0.146
		c0.368,0,0.657-0.076,0.868-0.229c0.21-0.152,0.316-0.361,0.316-0.628c0-0.288-0.113-0.508-0.34-0.652
		c-0.227-0.146-0.615-0.22-1.164-0.22h-1.352l0.288-3.048h3.288v0.871H13.12L13,533.694h0.536
		C14.325,533.694,14.909,533.848,15.288,534.154z"/>
	<path display="inline" fill="#3C3530" d="M17.592,536.866c-0.354-0.229-0.63-0.56-0.833-0.991c-0.203-0.435-0.304-0.95-0.304-1.549
		c0-0.598,0.101-1.112,0.304-1.548c0.203-0.437,0.479-0.768,0.833-0.992c0.352-0.227,0.752-0.34,1.2-0.34
		c0.446,0,0.849,0.111,1.203,0.34c0.354,0.228,0.634,0.559,0.836,0.992c0.203,0.436,0.306,0.95,0.306,1.548
		c0,0.599-0.103,1.113-0.306,1.549c-0.202,0.435-0.479,0.766-0.836,0.991c-0.354,0.228-0.757,0.341-1.203,0.341
		C18.344,537.206,17.943,537.094,17.592,536.866z M19.738,535.806c0.232-0.33,0.35-0.821,0.35-1.479c0-0.657-0.115-1.148-0.35-1.479
		c-0.23-0.33-0.547-0.496-0.946-0.496c-0.396,0-0.708,0.166-0.94,0.496c-0.229,0.331-0.348,0.824-0.348,1.479
		c0,0.656,0.115,1.147,0.348,1.479c0.233,0.332,0.545,0.496,0.94,0.496C19.191,536.302,19.508,536.137,19.738,535.806z"/>
</g>
<g display="none">
	<path display="inline" fill="#3C3530" d="M15.227,450.927c0.293,0.144,0.522,0.344,0.688,0.604
		c0.165,0.262,0.248,0.563,0.248,0.901c0,0.363-0.091,0.684-0.272,0.956c-0.181,0.274-0.426,0.486-0.736,0.639
		c-0.309,0.146-0.656,0.225-1.04,0.225c-0.768,0-1.364-0.24-1.788-0.721c-0.424-0.479-0.636-1.168-0.636-2.063
		c0-0.629,0.115-1.167,0.344-1.612c0.229-0.443,0.551-0.781,0.964-1.016c0.413-0.23,0.892-0.349,1.436-0.349
		c0.288,0,0.559,0.029,0.812,0.093c0.253,0.063,0.473,0.149,0.66,0.268l-0.384,0.784c-0.277-0.182-0.632-0.271-1.064-0.271
		c-0.539,0-0.96,0.165-1.264,0.496c-0.304,0.33-0.456,0.809-0.456,1.433v0.008c0.166-0.19,0.376-0.337,0.632-0.437
		c0.256-0.101,0.544-0.147,0.864-0.147C14.603,450.716,14.934,450.786,15.227,450.927z M14.851,453.176
		c0.203-0.173,0.304-0.404,0.304-0.69c0-0.293-0.101-0.523-0.304-0.695c-0.203-0.171-0.475-0.256-0.816-0.256
		c-0.336,0-0.609,0.091-0.82,0.271c-0.211,0.184-0.316,0.411-0.316,0.688c0,0.271,0.103,0.497,0.308,0.677
		c0.205,0.179,0.489,0.268,0.852,0.268C14.384,453.435,14.648,453.349,14.851,453.176z"/>
	<path display="inline" fill="#3C3530" d="M17.843,453.911c-0.352-0.229-0.629-0.559-0.831-0.991
		c-0.204-0.436-0.305-0.95-0.305-1.549c0-0.598,0.101-1.112,0.305-1.548c0.202-0.437,0.479-0.768,0.831-0.992
		c0.353-0.227,0.753-0.34,1.201-0.34c0.447,0,0.849,0.113,1.203,0.34c0.354,0.228,0.633,0.559,0.836,0.992
		c0.203,0.435,0.306,0.95,0.306,1.548c0,0.599-0.103,1.113-0.306,1.549s-0.479,0.766-0.836,0.991
		c-0.356,0.227-0.756,0.341-1.203,0.341C18.596,454.252,18.193,454.138,17.843,453.911z M19.991,452.851
		c0.231-0.33,0.348-0.821,0.348-1.479c0-0.657-0.114-1.148-0.348-1.479c-0.232-0.33-0.55-0.496-0.947-0.496
		c-0.396,0-0.709,0.166-0.94,0.496c-0.23,0.331-0.349,0.824-0.349,1.479c0,0.656,0.115,1.148,0.349,1.479
		c0.231,0.331,0.545,0.496,0.94,0.496C19.441,453.347,19.759,453.182,19.991,452.851z"/>
</g>
<g display="none">
	<path display="inline" fill="#3C3530" d="M16.202,357.771v0.695l-2.176,4.903h-1.112l2.104-4.721h-2.2v0.953H11.85v-1.832
		L16.202,357.771L16.202,357.771z"/>
	<path display="inline" fill="#3C3530" d="M17.816,363.11c-0.354-0.228-0.629-0.559-0.832-0.991
		c-0.206-0.435-0.304-0.949-0.304-1.548c0-0.598,0.101-1.113,0.304-1.549c0.203-0.436,0.479-0.767,0.832-0.991
		c0.353-0.229,0.752-0.341,1.201-0.341c0.444,0,0.849,0.112,1.203,0.341c0.354,0.228,0.633,0.559,0.836,0.991
		c0.2,0.436,0.305,0.951,0.305,1.549c0,0.599-0.104,1.113-0.305,1.548c-0.203,0.436-0.48,0.767-0.836,0.991
		c-0.354,0.229-0.759,0.341-1.203,0.341C18.568,363.451,18.169,363.339,17.816,363.11z M19.965,362.052
		c0.232-0.329,0.35-0.823,0.35-1.479s-0.114-1.148-0.35-1.479c-0.23-0.33-0.548-0.496-0.947-0.496c-0.396,0-0.707,0.166-0.938,0.496
		c-0.23,0.331-0.35,0.823-0.35,1.479c0,0.655,0.115,1.147,0.35,1.479c0.23,0.331,0.545,0.496,0.938,0.496
		C19.417,362.548,19.732,362.383,19.965,362.052z"/>
</g>
<g display="none">
	<path display="inline" fill="#3C3530" d="M16.029,261.958c0.157,0.228,0.236,0.492,0.236,0.796c0,0.343-0.095,0.642-0.284,0.896
		c-0.189,0.256-0.457,0.452-0.804,0.588c-0.347,0.136-0.75,0.204-1.208,0.204c-0.459,0-0.86-0.068-1.204-0.204
		c-0.344-0.136-0.609-0.332-0.796-0.588c-0.187-0.256-0.28-0.555-0.28-0.896c0-0.304,0.078-0.568,0.232-0.796
		c0.155-0.227,0.376-0.405,0.664-0.54c-0.224-0.122-0.396-0.282-0.516-0.482c-0.12-0.2-0.18-0.432-0.18-0.692
		c0-0.313,0.086-0.589,0.26-0.824c0.173-0.233,0.417-0.416,0.732-0.544c0.314-0.128,0.677-0.19,1.088-0.19
		c0.416,0,0.781,0.063,1.096,0.19s0.56,0.311,0.736,0.544c0.176,0.235,0.264,0.511,0.264,0.824c0,0.262-0.061,0.491-0.184,0.688
		c-0.123,0.196-0.299,0.358-0.528,0.486C15.646,261.552,15.872,261.732,16.029,261.958z M14.881,263.387
		c0.224-0.16,0.336-0.383,0.336-0.664c0-0.277-0.112-0.496-0.336-0.656c-0.224-0.16-0.528-0.24-0.912-0.24
		c-0.384,0-0.686,0.08-0.904,0.24c-0.218,0.16-0.328,0.379-0.328,0.656c0,0.281,0.109,0.504,0.328,0.664
		c0.219,0.158,0.52,0.238,0.904,0.238C14.353,263.626,14.657,263.546,14.881,263.387z M13.197,259.707
		c-0.189,0.14-0.284,0.334-0.284,0.584c0,0.24,0.095,0.432,0.284,0.572c0.189,0.142,0.446,0.212,0.772,0.212
		c0.331,0,0.592-0.07,0.784-0.212s0.288-0.332,0.288-0.572c0-0.25-0.097-0.444-0.292-0.584c-0.195-0.139-0.455-0.208-0.78-0.208
		C13.644,259.499,13.386,259.568,13.197,259.707z"/>
	<path display="inline" fill="#3C3530" d="M18.072,264.103c-0.352-0.228-0.629-0.559-0.831-0.992
		c-0.203-0.436-0.304-0.95-0.304-1.548c0-0.599,0.101-1.113,0.304-1.548c0.202-0.436,0.479-0.767,0.831-0.992
		c0.353-0.228,0.753-0.34,1.203-0.34c0.447,0,0.848,0.112,1.203,0.34c0.354,0.227,0.633,0.558,0.836,0.992
		c0.203,0.434,0.305,0.949,0.305,1.548c0,0.598-0.102,1.112-0.305,1.548c-0.203,0.435-0.48,0.766-0.836,0.992
		c-0.356,0.226-0.756,0.34-1.203,0.34C18.825,264.443,18.425,264.33,18.072,264.103z M20.223,263.042
		c0.231-0.33,0.348-0.822,0.348-1.479s-0.113-1.149-0.348-1.48c-0.23-0.33-0.55-0.496-0.947-0.496c-0.396,0-0.709,0.166-0.939,0.496
		c-0.23,0.331-0.35,0.824-0.35,1.48s0.115,1.148,0.35,1.479c0.23,0.331,0.545,0.496,0.939,0.496
		C19.673,263.539,19.988,263.374,20.223,263.042z"/>
</g>
<g display="none">
	<path display="inline" fill="#3C3530" d="M15.497,177.108c0.424,0.479,0.636,1.168,0.636,2.063c0,0.631-0.115,1.167-0.344,1.612
		s-0.551,0.784-0.964,1.017c-0.414,0.231-0.892,0.349-1.436,0.349c-0.288,0-0.559-0.031-0.812-0.092
		c-0.253-0.063-0.473-0.151-0.66-0.27l0.384-0.784c0.277,0.183,0.632,0.272,1.064,0.272c0.539,0,0.96-0.165,1.264-0.496
		c0.304-0.33,0.456-0.808,0.456-1.432v-0.009c-0.166,0.191-0.376,0.338-0.632,0.437c-0.256,0.099-0.544,0.147-0.864,0.147
		c-0.368,0-0.699-0.07-0.992-0.213c-0.293-0.141-0.522-0.342-0.688-0.604s-0.248-0.563-0.248-0.904c0-0.362,0.091-0.681,0.272-0.956
		c0.181-0.273,0.427-0.485,0.736-0.636c0.309-0.149,0.656-0.224,1.04-0.224C14.477,176.388,15.073,176.627,15.497,177.108z
		 M14.609,178.835c0.21-0.181,0.316-0.41,0.316-0.688c0-0.272-0.103-0.497-0.308-0.676c-0.206-0.18-0.489-0.27-0.852-0.27
		c-0.325,0-0.589,0.087-0.792,0.261c-0.203,0.174-0.304,0.403-0.304,0.691c0,0.294,0.101,0.525,0.304,0.696
		c0.203,0.171,0.475,0.256,0.816,0.256C14.125,179.108,14.398,179.017,14.609,178.835z"/>
	<path display="inline" fill="#3C3530" d="M17.973,181.808c-0.352-0.228-0.629-0.559-0.832-0.992
		c-0.203-0.436-0.304-0.95-0.304-1.548c0-0.599,0.101-1.113,0.304-1.548c0.203-0.436,0.48-0.767,0.832-0.992
		c0.354-0.228,0.752-0.34,1.202-0.34c0.447,0,0.849,0.112,1.203,0.34c0.354,0.227,0.634,0.558,0.836,0.992
		c0.203,0.434,0.306,0.949,0.306,1.548c0,0.598-0.103,1.112-0.306,1.548c-0.202,0.435-0.479,0.766-0.836,0.992
		c-0.356,0.226-0.756,0.34-1.203,0.34C18.727,182.148,18.325,182.035,17.973,181.808z M20.122,180.748
		c0.231-0.33,0.349-0.823,0.349-1.479c0-0.656-0.115-1.149-0.349-1.48c-0.231-0.33-0.55-0.496-0.947-0.496
		c-0.396,0-0.709,0.166-0.942,0.496c-0.229,0.331-0.348,0.824-0.348,1.48c0,0.655,0.115,1.148,0.348,1.479
		c0.233,0.331,0.545,0.496,0.942,0.496S19.891,181.079,20.122,180.748z"/>
</g>
<g display="none">
	<path display="inline" fill="#3C3530" d="M12.049,77.192v5.6h-1.04v-4.728H9.825v-0.872H12.049z"/>
	<path display="inline" fill="#3C3530" d="M14.297,82.532c-0.352-0.227-0.629-0.558-0.832-0.992
		c-0.203-0.434-0.304-0.95-0.304-1.548s0.101-1.113,0.304-1.548c0.203-0.435,0.48-0.766,0.832-0.992s0.752-0.34,1.2-0.34
		c0.448,0,0.849,0.113,1.204,0.34c0.354,0.228,0.633,0.559,0.836,0.992c0.201,0.435,0.304,0.95,0.304,1.548
		s-0.103,1.113-0.304,1.548c-0.203,0.436-0.482,0.767-0.836,0.992c-0.355,0.227-0.756,0.34-1.204,0.34
		C15.049,82.872,14.649,82.76,14.297,82.532z M16.445,81.472c0.232-0.33,0.348-0.823,0.348-1.479s-0.116-1.148-0.348-1.479
		c-0.232-0.33-0.548-0.496-0.948-0.496c-0.395,0-0.708,0.166-0.94,0.496c-0.232,0.331-0.348,0.823-0.348,1.479
		s0.116,1.149,0.348,1.479c0.232,0.331,0.545,0.496,0.94,0.496C15.897,81.969,16.213,81.803,16.445,81.472z"/>
	<path display="inline" fill="#3C3530" d="M19.682,82.532c-0.353-0.227-0.629-0.558-0.832-0.992
		c-0.203-0.434-0.306-0.95-0.306-1.548s0.103-1.113,0.306-1.548s0.479-0.766,0.832-0.992c0.354-0.226,0.752-0.34,1.2-0.34
		c0.447,0,0.849,0.113,1.203,0.34c0.354,0.228,0.633,0.559,0.836,0.992s0.306,0.95,0.306,1.548s-0.103,1.113-0.306,1.548
		c-0.203,0.436-0.479,0.767-0.836,0.992s-0.756,0.34-1.203,0.34C20.434,82.872,20.032,82.76,19.682,82.532z M21.829,81.472
		c0.231-0.33,0.349-0.823,0.349-1.479s-0.115-1.148-0.349-1.479c-0.231-0.33-0.55-0.496-0.947-0.496
		c-0.396,0-0.709,0.166-0.94,0.496c-0.23,0.331-0.349,0.823-0.349,1.479s0.115,1.149,0.349,1.479
		c0.231,0.331,0.545,0.496,0.94,0.496C21.279,81.969,21.598,81.803,21.829,81.472z"/>
</g>
<g display="none">
	<path display="inline" fill="#FFFFFF" d="M10.021,22.611h12.708c2.651,0,4.938-1.792,5.435-4.26
		c0.323-1.611-0.076-3.252-1.104-4.503c-0.873-1.069-2.104-1.748-3.453-1.925v-1.211c0-4.293-3.871-7.688-8.123-7.18
		C11.866,3.964,9.14,7.156,9.14,10.957v0.967c-1.164,0.151-2.244,0.68-3.102,1.525C4.803,14.7,4.259,16.417,4.55,18.162
		C4.953,20.574,7.459,22.611,10.021,22.611z M7.029,14.438c0.757-0.748,1.755-1.161,2.812-1.161c0.386,0,0.7-0.313,0.7-0.699v-1.622
		c0-3.218,2.562-6.078,5.839-6.078c3.177,0,5.827,2.66,5.827,5.833v1.866c0,0.386,0.313,0.699,0.699,0.699
		c1.191,0,2.313,0.532,3.07,1.457c0.758,0.924,1.053,2.142,0.812,3.34c-0.365,1.817-2.072,3.136-4.06,3.136H10.021
		c-1.887,0-3.798-1.531-4.09-3.279C5.716,16.635,6.117,15.361,7.029,14.438z"/>
</g>
<rect x="11.504" y="22.611" display="none" fill="none" width="9.754" height="5.471"/>
<g display="none" enable-background="new    ">
	<path display="inline" fill="#FFFFFF" d="M15.519,22.85h0.736v3.342h2.073v0.623h-2.809V22.85z"/>
</g>
<circle fill="#39322E" cx="16.372" cy="15.781" r="14.909"/>
<path fill="none" stroke="#3C3430" stroke-width="3" stroke-miterlimit="10" d="M26.963,580.983
	c-0.316,3.428-5.672,7.51-10.307,7.51l0,0c-4.593,0.367-10.877-3.315-10.877-7.51V42.736c1.022-4.94,6.492-7.798,10.183-7.792l0,0
	c4.296-0.006,9.896,2.929,11.001,7.984V580.983L26.963,580.983z"/>
<g>
	<path fill="#3C3430" d="M12.19,574.147c-0.368-0.424-0.552-0.98-0.552-1.668c0-0.688,0.184-1.244,0.552-1.668
		c0.368-0.424,0.852-0.637,1.452-0.637s1.086,0.21,1.458,0.631c0.372,0.42,0.558,0.978,0.558,1.674c0,0.695-0.186,1.254-0.558,1.674
		s-0.858,0.63-1.458,0.63S12.558,574.571,12.19,574.147z M14.404,573.559c0.18-0.256,0.27-0.616,0.27-1.08s-0.09-0.824-0.27-1.08
		c-0.18-0.256-0.434-0.384-0.762-0.384c-0.312,0-0.562,0.13-0.75,0.39s-0.282,0.618-0.282,1.074s0.094,0.813,0.282,1.073
		c0.188,0.261,0.438,0.391,0.75,0.391C13.97,573.943,14.224,573.815,14.404,573.559z M18.683,570.259h1.176l-5.736,8.4h-1.176
		L18.683,570.259z M17.698,578.107c-0.368-0.424-0.552-0.98-0.552-1.668c0-0.688,0.184-1.244,0.552-1.668s0.852-0.637,1.452-0.637
		c0.6,0,1.086,0.213,1.458,0.637s0.558,0.979,0.558,1.668c0,0.688-0.186,1.244-0.558,1.668s-0.858,0.636-1.458,0.636
		C18.55,578.743,18.066,578.531,17.698,578.107z M19.906,577.512c0.184-0.26,0.276-0.617,0.276-1.073s-0.093-0.814-0.276-1.074
		c-0.185-0.26-0.437-0.39-0.756-0.39c-0.32,0-0.572,0.128-0.756,0.384c-0.185,0.256-0.276,0.616-0.276,1.08s0.092,0.824,0.276,1.08
		c0.184,0.256,0.436,0.384,0.756,0.384C19.47,577.903,19.722,577.773,19.906,577.512z"/>
</g>
<g>
	<path fill="#3C3430" d="M17.919,541.651v0.66h-3.095v-0.522l1.668-1.584c0.188-0.18,0.315-0.337,0.38-0.471
		c0.066-0.134,0.1-0.267,0.1-0.398c0-0.196-0.066-0.347-0.198-0.45c-0.132-0.104-0.326-0.156-0.582-0.156
		c-0.428,0-0.756,0.146-0.984,0.438l-0.546-0.421c0.164-0.22,0.385-0.391,0.663-0.513s0.589-0.183,0.933-0.183
		c0.456,0,0.819,0.107,1.092,0.324c0.272,0.216,0.407,0.51,0.407,0.882c0,0.228-0.047,0.441-0.143,0.642
		c-0.097,0.2-0.281,0.428-0.553,0.685l-1.122,1.067H17.919z"/>
</g>
<g>
	<path fill="#3C3430" d="M14.913,491.81v4.2h-0.78v-3.546h-0.888v-0.654H14.913z"/>
	<path fill="#3C3430" d="M16.599,495.815c-0.264-0.17-0.472-0.418-0.624-0.744c-0.152-0.325-0.228-0.713-0.228-1.16
		c0-0.448,0.076-0.835,0.228-1.161c0.152-0.326,0.36-0.574,0.624-0.744s0.564-0.255,0.899-0.255c0.336,0,0.639,0.085,0.904,0.255
		s0.475,0.418,0.627,0.744s0.229,0.713,0.229,1.161c0,0.447-0.076,0.835-0.229,1.16c-0.152,0.326-0.361,0.574-0.627,0.744
		s-0.568,0.255-0.904,0.255C17.163,496.07,16.863,495.985,16.599,495.815z M18.209,495.02c0.176-0.248,0.262-0.618,0.262-1.109
		c0-0.492-0.086-0.862-0.262-1.11c-0.174-0.248-0.41-0.372-0.711-0.372c-0.295,0-0.53,0.124-0.704,0.372s-0.261,0.618-0.261,1.11
		c0,0.491,0.087,0.861,0.261,1.109s0.409,0.372,0.704,0.372C17.799,495.392,18.035,495.268,18.209,495.02z"/>
</g>
<g>
	<path fill="#3C3430" d="M15.909,449.226v0.66h-3.096v-0.522l1.668-1.584c0.188-0.18,0.315-0.337,0.381-0.471
		c0.066-0.134,0.099-0.267,0.099-0.398c0-0.196-0.066-0.347-0.198-0.45c-0.132-0.104-0.326-0.156-0.582-0.156
		c-0.428,0-0.756,0.146-0.984,0.438l-0.546-0.421c0.164-0.22,0.385-0.391,0.663-0.513s0.589-0.183,0.933-0.183
		c0.456,0,0.82,0.107,1.092,0.324c0.272,0.216,0.408,0.51,0.408,0.882c0,0.228-0.048,0.441-0.144,0.642s-0.28,0.428-0.552,0.685
		l-1.122,1.067H15.909z"/>
	<path fill="#3C3430" d="M17.192,449.691c-0.265-0.17-0.472-0.418-0.624-0.744c-0.152-0.325-0.228-0.713-0.228-1.16
		c0-0.448,0.076-0.835,0.228-1.161c0.152-0.326,0.359-0.574,0.624-0.744c0.264-0.17,0.563-0.255,0.899-0.255
		s0.638,0.085,0.903,0.255s0.475,0.418,0.627,0.744s0.229,0.713,0.229,1.161c0,0.447-0.076,0.835-0.229,1.16
		c-0.152,0.326-0.361,0.574-0.627,0.744s-0.567,0.255-0.903,0.255S17.456,449.861,17.192,449.691z M18.803,448.896
		c0.175-0.248,0.262-0.618,0.262-1.109c0-0.492-0.087-0.862-0.262-1.11c-0.174-0.248-0.41-0.372-0.711-0.372
		c-0.296,0-0.53,0.124-0.705,0.372c-0.174,0.248-0.261,0.618-0.261,1.11c0,0.491,0.087,0.861,0.261,1.109
		c0.175,0.248,0.409,0.372,0.705,0.372C18.393,449.268,18.629,449.144,18.803,448.896z"/>
</g>
<g>
	<path fill="#3C3430" d="M15.579,397.164c0.204,0.217,0.306,0.486,0.306,0.811c0,0.244-0.062,0.466-0.186,0.666
		s-0.311,0.358-0.561,0.477s-0.555,0.177-0.915,0.177c-0.3,0-0.589-0.043-0.867-0.129c-0.278-0.086-0.515-0.205-0.711-0.356
		l0.336-0.606c0.152,0.128,0.337,0.229,0.555,0.304c0.218,0.073,0.443,0.11,0.675,0.11c0.276,0,0.493-0.057,0.651-0.171
		c0.158-0.114,0.237-0.269,0.237-0.465s-0.075-0.349-0.225-0.459s-0.379-0.165-0.687-0.165h-0.384v-0.534l0.954-1.134h-1.908v-0.654
		h2.862v0.522l-1.02,1.212C15.079,396.816,15.375,396.948,15.579,397.164z"/>
	<path fill="#3C3430" d="M17.246,399.039c-0.264-0.17-0.472-0.418-0.624-0.744c-0.152-0.325-0.228-0.713-0.228-1.16
		c0-0.448,0.076-0.835,0.228-1.161c0.152-0.326,0.36-0.574,0.624-0.744s0.564-0.255,0.9-0.255s0.637,0.085,0.902,0.255
		s0.475,0.418,0.627,0.744s0.229,0.713,0.229,1.161c0,0.447-0.076,0.835-0.229,1.16c-0.152,0.326-0.361,0.574-0.627,0.744
		s-0.566,0.255-0.902,0.255S17.51,399.209,17.246,399.039z M18.857,398.244c0.174-0.248,0.262-0.618,0.262-1.109
		c0-0.492-0.088-0.862-0.262-1.11s-0.41-0.372-0.711-0.372c-0.297,0-0.531,0.124-0.705,0.372s-0.262,0.618-0.262,1.11
		c0,0.491,0.088,0.861,0.262,1.109s0.408,0.372,0.705,0.372C18.447,398.616,18.684,398.492,18.857,398.244z"/>
</g>
<g>
	<path fill="#3C3430" d="M16.355,349.437h-0.744v0.954h-0.756v-0.954h-2.304v-0.54l2.07-2.706h0.834l-1.95,2.586h1.374v-0.846h0.732
		v0.846h0.744V349.437z"/>
	<path fill="#3C3430" d="M17.537,350.196c-0.264-0.17-0.472-0.418-0.623-0.744c-0.153-0.325-0.229-0.713-0.229-1.16
		c0-0.448,0.076-0.835,0.229-1.161c0.151-0.326,0.359-0.574,0.623-0.744s0.564-0.255,0.9-0.255s0.637,0.085,0.902,0.255
		s0.475,0.418,0.627,0.744s0.229,0.713,0.229,1.161c0,0.447-0.076,0.835-0.229,1.16c-0.152,0.326-0.361,0.574-0.627,0.744
		s-0.566,0.255-0.902,0.255S17.801,350.366,17.537,350.196z M19.148,349.401c0.174-0.248,0.262-0.618,0.262-1.109
		c0-0.492-0.088-0.862-0.262-1.11s-0.41-0.372-0.711-0.372c-0.297,0-0.531,0.124-0.705,0.372s-0.262,0.618-0.262,1.11
		c0,0.491,0.088,0.861,0.262,1.109s0.408,0.372,0.705,0.372C18.738,349.773,18.975,349.649,19.148,349.401z"/>
</g>
<g>
	<path fill="#3C3430" d="M15.524,298.659c0.284,0.229,0.426,0.543,0.426,0.938c0,0.252-0.062,0.48-0.186,0.684
		c-0.124,0.204-0.31,0.366-0.558,0.486c-0.248,0.12-0.554,0.18-0.918,0.18c-0.3,0-0.59-0.043-0.87-0.129
		c-0.28-0.086-0.516-0.205-0.708-0.356l0.33-0.606c0.156,0.128,0.343,0.229,0.561,0.304c0.218,0.073,0.443,0.11,0.675,0.11
		c0.276,0,0.493-0.057,0.651-0.171s0.237-0.271,0.237-0.471c0-0.216-0.085-0.379-0.255-0.489s-0.461-0.165-0.873-0.165h-1.014
		l0.216-2.286h2.466v0.654h-1.806l-0.09,0.972h0.402C14.802,298.313,15.24,298.428,15.524,298.659z"/>
	<path fill="#3C3430" d="M17.252,300.692c-0.265-0.17-0.472-0.418-0.624-0.744c-0.152-0.325-0.228-0.713-0.228-1.16
		c0-0.448,0.076-0.835,0.228-1.161c0.152-0.326,0.359-0.574,0.624-0.744c0.264-0.17,0.563-0.255,0.899-0.255
		s0.638,0.085,0.903,0.255s0.475,0.418,0.627,0.744s0.229,0.713,0.229,1.161c0,0.447-0.076,0.835-0.229,1.16
		c-0.152,0.326-0.361,0.574-0.627,0.744s-0.567,0.255-0.903,0.255S17.516,300.862,17.252,300.692z M18.862,299.897
		c0.175-0.248,0.262-0.618,0.262-1.109c0-0.492-0.087-0.862-0.262-1.11c-0.174-0.248-0.41-0.372-0.711-0.372
		c-0.296,0-0.53,0.124-0.705,0.372c-0.174,0.248-0.261,0.618-0.261,1.11c0,0.491,0.087,0.861,0.261,1.109
		c0.175,0.248,0.409,0.372,0.705,0.372C18.452,300.269,18.688,300.145,18.862,299.897z"/>
</g>
<g>
	<path fill="#3C3430" d="M15.375,250.373c0.22,0.105,0.392,0.257,0.516,0.452c0.124,0.196,0.186,0.423,0.186,0.679
		c0,0.271-0.068,0.511-0.204,0.717c-0.136,0.206-0.32,0.365-0.552,0.477c-0.232,0.112-0.492,0.168-0.78,0.168
		c-0.576,0-1.023-0.18-1.341-0.54c-0.318-0.359-0.477-0.876-0.477-1.548c0-0.472,0.086-0.875,0.258-1.209s0.413-0.588,0.723-0.762
		s0.669-0.261,1.077-0.261c0.216,0,0.419,0.022,0.609,0.068c0.19,0.047,0.355,0.113,0.495,0.201l-0.288,0.588
		c-0.208-0.136-0.474-0.204-0.798-0.204c-0.404,0-0.72,0.124-0.948,0.372s-0.342,0.606-0.342,1.074v0.006
		c0.124-0.144,0.282-0.253,0.474-0.327c0.192-0.073,0.408-0.11,0.648-0.11C14.907,250.214,15.154,250.267,15.375,250.373z
		 M15.092,252.059c0.152-0.13,0.228-0.303,0.228-0.519c0-0.221-0.076-0.395-0.228-0.522c-0.152-0.128-0.356-0.192-0.612-0.192
		c-0.252,0-0.457,0.068-0.615,0.204c-0.158,0.137-0.237,0.309-0.237,0.517c0,0.204,0.077,0.373,0.231,0.507
		c0.154,0.134,0.367,0.201,0.639,0.201C14.743,252.254,14.94,252.189,15.092,252.059z"/>
	<path fill="#3C3430" d="M17.337,252.611c-0.265-0.17-0.472-0.418-0.624-0.744c-0.152-0.325-0.228-0.713-0.228-1.16
		c0-0.448,0.076-0.835,0.228-1.161s0.359-0.574,0.624-0.744c0.264-0.17,0.563-0.255,0.899-0.255s0.638,0.085,0.903,0.255
		s0.475,0.418,0.627,0.744s0.229,0.713,0.229,1.161c0,0.447-0.076,0.835-0.229,1.16c-0.152,0.326-0.361,0.574-0.627,0.744
		s-0.567,0.255-0.903,0.255S17.601,252.781,17.337,252.611z M18.947,251.816c0.175-0.248,0.262-0.618,0.262-1.109
		c0-0.492-0.087-0.862-0.262-1.11c-0.174-0.248-0.41-0.372-0.711-0.372c-0.296,0-0.53,0.124-0.705,0.372
		c-0.174,0.248-0.261,0.618-0.261,1.11c0,0.491,0.087,0.861,0.261,1.109c0.175,0.248,0.409,0.372,0.705,0.372
		C18.537,252.188,18.773,252.064,18.947,251.816z"/>
</g>
<g>
	<path fill="#3C3430" d="M16.008,199.461v0.522l-1.632,3.678h-0.834l1.578-3.54h-1.65v0.714h-0.726v-1.374H16.008z"/>
	<path fill="#3C3430" d="M17.22,203.466c-0.265-0.17-0.472-0.418-0.624-0.744c-0.152-0.325-0.228-0.713-0.228-1.16
		c0-0.448,0.076-0.835,0.228-1.161c0.152-0.326,0.359-0.574,0.624-0.744c0.264-0.17,0.563-0.255,0.899-0.255
		s0.638,0.085,0.903,0.255s0.475,0.418,0.627,0.744s0.229,0.713,0.229,1.161c0,0.447-0.076,0.835-0.229,1.16
		c-0.152,0.326-0.361,0.574-0.627,0.744s-0.567,0.255-0.903,0.255S17.483,203.635,17.22,203.466z M18.83,202.671
		c0.175-0.248,0.262-0.618,0.262-1.109c0-0.492-0.087-0.862-0.262-1.11c-0.174-0.248-0.41-0.372-0.711-0.372
		c-0.296,0-0.53,0.124-0.705,0.372c-0.174,0.248-0.261,0.618-0.261,1.11c0,0.491,0.087,0.861,0.261,1.109
		c0.175,0.248,0.409,0.372,0.705,0.372C18.42,203.043,18.656,202.919,18.83,202.671z"/>
</g>
<g>
	<path fill="#3C3430" d="M15.924,153.845c0.118,0.17,0.177,0.369,0.177,0.597c0,0.256-0.071,0.48-0.213,0.672
		c-0.142,0.192-0.343,0.339-0.603,0.441c-0.26,0.102-0.562,0.152-0.906,0.152c-0.344,0-0.645-0.051-0.903-0.152
		c-0.258-0.103-0.457-0.249-0.597-0.441c-0.14-0.191-0.21-0.416-0.21-0.672c0-0.228,0.058-0.427,0.174-0.597
		c0.116-0.17,0.282-0.306,0.498-0.405c-0.168-0.092-0.297-0.213-0.387-0.363c-0.09-0.149-0.135-0.322-0.135-0.519
		c0-0.236,0.065-0.442,0.195-0.618s0.313-0.312,0.549-0.408c0.236-0.096,0.508-0.144,0.816-0.144c0.312,0,0.586,0.048,0.822,0.144
		c0.236,0.097,0.42,0.232,0.552,0.408c0.132,0.176,0.198,0.382,0.198,0.618c0,0.196-0.046,0.368-0.138,0.516
		c-0.092,0.148-0.224,0.271-0.396,0.366C15.637,153.54,15.806,153.676,15.924,153.845z M15.063,154.916
		c0.168-0.119,0.252-0.285,0.252-0.498c0-0.207-0.084-0.371-0.252-0.491s-0.396-0.181-0.684-0.181c-0.288,0-0.514,0.061-0.678,0.181
		s-0.246,0.284-0.246,0.491c0,0.213,0.082,0.379,0.246,0.498c0.164,0.12,0.39,0.181,0.678,0.181
		C14.667,155.096,14.895,155.036,15.063,154.916z M13.8,152.156c-0.142,0.104-0.213,0.25-0.213,0.438
		c0,0.18,0.071,0.323,0.213,0.429c0.142,0.106,0.335,0.159,0.579,0.159c0.248,0,0.444-0.053,0.588-0.159
		c0.144-0.105,0.216-0.249,0.216-0.429c0-0.188-0.073-0.334-0.219-0.438c-0.146-0.104-0.341-0.156-0.585-0.156
		C14.135,152,13.941,152.052,13.8,152.156z"/>
	<path fill="#3C3430" d="M17.457,155.453c-0.264-0.17-0.473-0.418-0.624-0.744c-0.152-0.325-0.228-0.713-0.228-1.16
		c0-0.448,0.076-0.835,0.228-1.161c0.151-0.326,0.36-0.574,0.624-0.744s0.563-0.255,0.899-0.255s0.638,0.085,0.903,0.255
		s0.475,0.418,0.627,0.744s0.229,0.713,0.229,1.161c0,0.447-0.076,0.835-0.229,1.16c-0.152,0.326-0.361,0.574-0.627,0.744
		s-0.567,0.255-0.903,0.255S17.721,155.623,17.457,155.453z M19.067,154.658c0.175-0.248,0.262-0.618,0.262-1.109
		c0-0.492-0.087-0.862-0.262-1.11c-0.174-0.248-0.41-0.372-0.711-0.372c-0.296,0-0.53,0.124-0.705,0.372
		c-0.174,0.248-0.261,0.618-0.261,1.11c0,0.491,0.087,0.861,0.261,1.109c0.175,0.248,0.409,0.372,0.705,0.372
		C18.657,155.03,18.894,154.906,19.067,154.658z"/>
</g>
<g>
	<path fill="#3C3430" d="M15.524,102.224c0.318,0.359,0.477,0.876,0.477,1.548c0,0.472-0.086,0.875-0.258,1.209
		c-0.172,0.334-0.413,0.588-0.723,0.762s-0.669,0.261-1.077,0.261c-0.216,0-0.419-0.022-0.609-0.068s-0.355-0.113-0.495-0.201
		l0.288-0.588c0.208,0.136,0.474,0.204,0.798,0.204c0.404,0,0.72-0.124,0.948-0.372s0.342-0.606,0.342-1.074v-0.006
		c-0.124,0.144-0.282,0.253-0.474,0.327c-0.192,0.074-0.408,0.11-0.648,0.11c-0.276,0-0.524-0.053-0.744-0.158
		c-0.22-0.106-0.392-0.258-0.516-0.453c-0.124-0.196-0.186-0.422-0.186-0.679c0-0.271,0.068-0.511,0.204-0.717
		c0.136-0.206,0.32-0.364,0.552-0.477s0.492-0.168,0.78-0.168C14.759,101.684,15.207,101.864,15.524,102.224z M14.858,103.52
		c0.158-0.136,0.237-0.309,0.237-0.517c0-0.203-0.077-0.372-0.231-0.507c-0.154-0.134-0.367-0.201-0.639-0.201
		c-0.244,0-0.442,0.065-0.594,0.195s-0.228,0.303-0.228,0.52c0,0.22,0.076,0.394,0.228,0.521s0.356,0.192,0.612,0.192
		C14.496,103.724,14.7,103.656,14.858,103.52z"/>
	<path fill="#3C3430" d="M17.382,105.748c-0.265-0.17-0.472-0.418-0.624-0.744c-0.152-0.325-0.228-0.713-0.228-1.16
		c0-0.448,0.076-0.835,0.228-1.161s0.359-0.574,0.624-0.744c0.264-0.17,0.563-0.255,0.899-0.255s0.638,0.085,0.903,0.255
		s0.475,0.418,0.627,0.744s0.229,0.713,0.229,1.161c0,0.447-0.076,0.835-0.229,1.16c-0.152,0.326-0.361,0.574-0.627,0.744
		s-0.567,0.255-0.903,0.255S17.646,105.918,17.382,105.748z M18.992,104.953c0.175-0.248,0.262-0.618,0.262-1.109
		c0-0.492-0.087-0.862-0.262-1.11c-0.174-0.248-0.41-0.372-0.711-0.372c-0.296,0-0.53,0.124-0.705,0.372
		c-0.174,0.248-0.261,0.618-0.261,1.11c0,0.491,0.087,0.861,0.261,1.109c0.175,0.248,0.409,0.372,0.705,0.372
		C18.582,105.325,18.818,105.201,18.992,104.953z"/>
</g>
<g>
	<path fill="#3C3430" d="M13.206,55.844v4.2h-0.78v-3.546h-0.888v-0.654H13.206z"/>
	<path fill="#3C3430" d="M14.892,59.849c-0.264-0.17-0.472-0.418-0.624-0.744c-0.152-0.325-0.228-0.713-0.228-1.16
		c0-0.448,0.076-0.835,0.228-1.161c0.152-0.326,0.36-0.574,0.624-0.744c0.264-0.17,0.564-0.255,0.9-0.255s0.637,0.085,0.903,0.255
		s0.475,0.418,0.627,0.744c0.151,0.326,0.228,0.713,0.228,1.161c0,0.447-0.076,0.835-0.228,1.16
		c-0.152,0.326-0.361,0.574-0.627,0.744s-0.567,0.255-0.903,0.255S15.156,60.019,14.892,59.849z M16.503,59.054
		c0.174-0.248,0.261-0.618,0.261-1.109c0-0.492-0.087-0.862-0.261-1.11s-0.411-0.372-0.711-0.372c-0.296,0-0.531,0.124-0.705,0.372
		s-0.261,0.618-0.261,1.11c0,0.491,0.087,0.861,0.261,1.109s0.409,0.372,0.705,0.372C16.092,59.426,16.329,59.302,16.503,59.054z"/>
	<path fill="#3C3430" d="M20.705,57.816c0.284,0.229,0.427,0.543,0.427,0.938c0,0.252-0.063,0.48-0.187,0.684
		c-0.124,0.204-0.31,0.366-0.558,0.486s-0.555,0.18-0.918,0.18c-0.3,0-0.59-0.043-0.87-0.129s-0.517-0.205-0.708-0.356l0.33-0.606
		c0.156,0.128,0.343,0.229,0.561,0.304c0.218,0.073,0.443,0.11,0.675,0.11c0.276,0,0.493-0.057,0.651-0.171s0.237-0.271,0.237-0.471
		c0-0.216-0.085-0.379-0.255-0.489s-0.461-0.165-0.873-0.165h-1.015l0.217-2.286h2.466v0.654h-1.807l-0.09,0.972h0.402
		C19.983,57.47,20.422,57.585,20.705,57.816z"/>
</g>
<g>
	<g>
		<path id="SVGID_1_" fill="#FFFFFF" d="M19.827,5.606"/>
	</g>
	<g>
		<path id="SVGID_2_" fill="#FFFFFF" d="M3.55,14.186c0,0.579,0.405,1.034,1.048,1.337c0.644,0.304,1.468,0.46,2.174,0.46
			c0.707,0,1.364-0.177,1.917-0.482c0.552-0.306,0.998-0.738,1.281-1.251c0.284,0.513,0.73,0.945,1.282,1.251
			s1.21,0.482,1.916,0.482c0.707,0,1.364-0.177,1.917-0.482c0.552-0.306,0.998-0.738,1.282-1.251
			c0.282,0.513,0.729,0.945,1.282,1.251s1.209,0.482,1.916,0.482s1.363-0.177,1.916-0.482s0.998-0.738,1.283-1.251
			c0.281,0.513,0.729,0.945,1.281,1.251s1.209,0.482,1.916,0.482c0.705,0,1.363-0.177,1.916-0.482s1.006-0.765,1.289-1.276v7.115
			H3.55C3.55,14.186,3.55,14.186,3.55,14.186z"/>
	</g>
	<g>
		<path fill="none" d="M19.827,5.606"/>
	</g>
	<g>
		<g>
			<defs>
				<path id="SVGID_69_" d="M3.55,14.186c0,0.579,0.405,1.034,1.048,1.337c0.644,0.304,1.468,0.46,2.174,0.46
					c0.707,0,1.364-0.177,1.917-0.482c0.552-0.306,0.998-0.738,1.281-1.251c0.284,0.513,0.73,0.945,1.282,1.251
					s1.21,0.482,1.916,0.482c0.707,0,1.364-0.177,1.917-0.482c0.552-0.306,0.998-0.738,1.282-1.251
					c0.282,0.513,0.729,0.945,1.282,1.251s1.209,0.482,1.916,0.482s1.363-0.177,1.916-0.482s0.998-0.738,1.283-1.251
					c0.281,0.513,0.729,0.945,1.281,1.251s1.209,0.482,1.916,0.482c0.705,0,1.363-0.177,1.916-0.482s1.006-0.765,1.289-1.276v7.115
					H3.55C3.55,14.186,3.55,14.186,3.55,14.186z"/>
			</defs>
			<clipPath id="SVGID_70_">
				<use xlink:href="#SVGID_69_"  overflow="visible"/>
			</clipPath>
			<path clip-path="url(#SVGID_70_)" fill="none" d="M19.827,5.606"/>
		</g>
		<g>
			<defs>
				<path id="SVGID_71_" d="M3.55,14.186c0,0.579,0.405,1.034,1.048,1.337c0.644,0.304,1.468,0.46,2.174,0.46
					c0.707,0,1.364-0.177,1.917-0.482c0.552-0.306,0.998-0.738,1.281-1.251c0.284,0.513,0.73,0.945,1.282,1.251
					s1.21,0.482,1.916,0.482c0.707,0,1.364-0.177,1.917-0.482c0.552-0.306,0.998-0.738,1.282-1.251
					c0.282,0.513,0.729,0.945,1.282,1.251s1.209,0.482,1.916,0.482s1.363-0.177,1.916-0.482s0.998-0.738,1.283-1.251
					c0.281,0.513,0.729,0.945,1.281,1.251s1.209,0.482,1.916,0.482c0.705,0,1.363-0.177,1.916-0.482s1.006-0.765,1.289-1.276v7.115
					H3.55C3.55,14.186,3.55,14.186,3.55,14.186z"/>
			</defs>
			<clipPath id="SVGID_72_">
				<use xlink:href="#SVGID_71_"  overflow="visible"/>
			</clipPath>
			<polygon clip-path="url(#SVGID_72_)" fill="#FFFFFF" points="29.21,21.02 3.496,21.001 3.496,16.619 29.21,16.639 			"/>
		</g>
	</g>
</g>
<path fill="#FFFFFF" stroke="#FFFFFF" stroke-miterlimit="10" d="M19.034,5.77l-2.5-2.5c-0.045-0.045-0.107-0.073-0.177-0.073
	s-0.132,0.028-0.177,0.073l-2.5,2.5c-0.045,0.046-0.073,0.108-0.073,0.177c0,0.139,0.112,0.25,0.25,0.25
	c0.069,0,0.132-0.027,0.177-0.073l2.073-2.073v8.171c0,0.139,0.112,0.299,0.25,0.299s0.25-0.161,0.25-0.299v-8.17l2.073,2.073
	c0.047,0.045,0.109,0.073,0.178,0.073c0.137,0,0.25-0.112,0.25-0.25C19.108,5.878,19.081,5.816,19.034,5.77"/>
<g>
	<path fill="#FFFFFF" d="M14.982,23.273c0.36,0.152,0.636,0.37,0.828,0.653c0.192,0.284,0.288,0.621,0.288,1.012
		c0,0.385-0.096,0.721-0.288,1.007s-0.468,0.505-0.828,0.657s-0.782,0.228-1.268,0.228H12.45v1.536h-1.04v-5.32h2.305
		C14.2,23.045,14.622,23.121,14.982,23.273z M14.698,25.72c0.234-0.182,0.353-0.443,0.353-0.782c0-0.34-0.117-0.601-0.353-0.783
		c-0.234-0.183-0.578-0.273-1.031-0.273H12.45v2.112h1.217C14.12,25.994,14.463,25.903,14.698,25.72z"/>
	<g>
		<path fill="#FFFFFF" d="M14.983,23.273c0.359,0.152,0.636,0.37,0.828,0.653c0.191,0.284,0.287,0.621,0.287,1.012
			c0,0.385-0.096,0.721-0.287,1.006c-0.192,0.287-0.469,0.506-0.828,0.658c-0.36,0.152-0.783,0.228-1.269,0.228h-1.264v1.535h-1.04
			v-5.319h2.304C14.2,23.045,14.623,23.121,14.983,23.273z M14.699,25.72c0.234-0.183,0.352-0.443,0.352-0.782
			c0-0.34-0.117-0.601-0.352-0.783c-0.235-0.183-0.579-0.273-1.032-0.273h-1.216v2.112h1.216
			C14.12,25.993,14.463,25.903,14.699,25.72z"/>
		<path fill="#FFFFFF" d="M21.115,28.365l-1.145-1.558c-0.047,0.005-0.119,0.008-0.217,0.008H18.49v1.55h-1.039v-5.319h2.303
			c0.486,0,0.908,0.076,1.268,0.228c0.361,0.152,0.637,0.37,0.83,0.653c0.191,0.284,0.287,0.621,0.287,1.012
			c0,0.399-0.104,0.744-0.309,1.033c-0.205,0.288-0.5,0.504-0.883,0.646l1.287,1.748H21.115z M20.738,24.155
			c-0.234-0.183-0.578-0.273-1.031-0.273H18.49v2.12h1.217c0.453,0,0.797-0.093,1.031-0.277s0.352-0.447,0.352-0.786
			C21.09,24.598,20.973,24.337,20.738,24.155z"/>
	</g>
</g>
</svg>
