<?xml version="1.0" encoding="utf-8"?>
<!-- Generator: Adobe Illustrator 27.7.0, SVG Export Plug-In . SVG Version: 6.00 Build 0)  -->
<svg version="1.1" id="Livello_1" xmlns="http://www.w3.org/2000/svg" xmlns:xlink="http://www.w3.org/1999/xlink" x="0px" y="0px"
	width="38px" height="644px" viewBox="0 0 37.2 644.1" style="enable-background:new 0 0 37.2 644.1;" xml:space="preserve">
<style type="text/css">
	.st0{display:none;}
	.st1{display:inline;}
	.st2{clip-path:url(#SVGID_00000146483047337378941620000017443666620158700186_);fill:#FFFAFA;}
	.st3{clip-path:url(#SVGID_00000105428954880729222180000009804452304259535749_);fill:#FBD5D6;}
	.st4{clip-path:url(#SVGID_00000176737084339396465270000006021600987276363926_);fill:#F9C1C2;}
	.st5{clip-path:url(#SVGID_00000062878563324119665380000005141677241371696310_);fill:#FDEBEB;}
	.st6{clip-path:url(#SVGID_00000078042745188771979430000012919158838398632081_);fill:#F6ABAD;}
	.st7{clip-path:url(#SVGID_00000005945781164677661620000000971645936922320276_);fill:#F49799;}
	.st8{clip-path:url(#SVGID_00000147214745137561073660000016557546712912335549_);fill:#C8E8F0;}
	.st9{clip-path:url(#SVGID_00000079477969547341021860000007109219616992677032_);fill:#D0EBF7;}
	.st10{clip-path:url(#SVGID_00000126316615571747003740000017181341097487917705_);fill:#4898DA;}
	.st11{clip-path:url(#SVGID_00000150813348580920198560000017700685885942559916_);fill:#A3A5D7;}
	.st12{clip-path:url(#SVGID_00000140711626889854065810000010301576581136103855_);fill:#B988C1;}
	.st13{clip-path:url(#SVGID_00000142158745604389611840000003437412966997012368_);fill:#D7A2CD;}
	.st14{clip-path:url(#SVGID_00000037655573584037734570000000700292240693351349_);fill:#E8BEDB;}
	.st15{clip-path:url(#SVGID_00000129180332420948214350000013857208158711788437_);fill:#E67D9B;}
	.st16{clip-path:url(#SVGID_00000132054471888047763330000006816835761523330724_);fill:#DB4C4D;}
	.st17{clip-path:url(#SVGID_00000021078088085475137060000004670839746722403205_);fill:#EF5A5C;}
	.st18{clip-path:url(#SVGID_00000038391910483167928470000011833547016077207191_);fill:#F7A25C;}
	.st19{clip-path:url(#SVGID_00000032646274452630519830000006958593325757635756_);fill:#FDD58F;}
	.st20{clip-path:url(#SVGID_00000150100329929341589140000000626011000324360585_);fill:#FFE173;}
	.st21{clip-path:url(#SVGID_00000077320772844170356170000017253507353722451862_);fill:#FEFE82;}
	.st22{clip-path:url(#SVGID_00000168102579336189656920000007488160608434249906_);fill:#FFFFC7;}
	.st23{clip-path:url(#SVGID_00000096017752326261682300000000194692088976379561_);fill:#F3F3A1;}
	.st24{clip-path:url(#SVGID_00000037672935049409048060000002378792669442262935_);fill:#D3ECA4;}
	.st25{clip-path:url(#SVGID_00000170983769759318678520000013694406590427522437_);fill:#C3E6D8;}
	.st26{clip-path:url(#SVGID_00000098913700728940817020000000160141974176478340_);fill:#C8E8F0;}
	.st27{clip-path:url(#SVGID_00000072247326580140803670000015000416077514059711_);fill:#D0EBF7;}
	.st28{clip-path:url(#SVGID_00000044155619908044510200000013265163873308325808_);fill:#EC2426;}
	.st29{clip-path:url(#SVGID_00000109727810762405927690000009364183139125695874_);fill:#FCFC1E;}
	.st30{clip-path:url(#SVGID_00000060023983543524036390000002429273935188695937_);fill:#0B7F3F;}
	.st31{clip-path:url(#SVGID_00000124132195497117585420000005593222313269886084_);fill:#F7A426;}
	.st32{clip-path:url(#SVGID_00000122678962608627042110000014770842791469845947_);fill:#6FC9DC;}
	.st33{clip-path:url(#SVGID_00000161599140688590301320000017481871653571692692_);fill:#3F57B0;}
	.st34{display:none;fill:#3A332F;}
	.st35{display:none;fill:none;stroke:#3C3430;stroke-width:2.9317;stroke-miterlimit:9.7722;}
	.st36{display:inline;fill:#3C3530;}
	.st37{display:inline;fill:#FFFFFF;}
	.st38{display:none;fill:none;}
	.st39{display:none;enable-background:new    ;}
	.st40{fill:none;stroke:#3C3430;stroke-width:3;stroke-miterlimit:10;}
	.st41{fill:none;stroke:#3C3430;stroke-width:2.9317;stroke-miterlimit:9.7722;}
	.st42{fill:#39322E;}
	.st43{clip-path:url(#SVGID_00000073679460453300858320000009881971484336603018_);fill:#EB2426;}
	.st44{clip-path:url(#SVGID_00000115483752067701543690000017367826716538268049_);fill:#F07526;}
	.st45{clip-path:url(#SVGID_00000001640815304072289780000017725933871356766113_);fill:#FCFC1C;}
	.st46{clip-path:url(#SVGID_00000054964413065007173730000008826273049801300159_);fill:#C8E636;}
	.st47{clip-path:url(#SVGID_00000042704537492144983120000009520314185500551594_);fill:#7ECB47;}
	.st48{clip-path:url(#SVGID_00000175297608906180880090000007837232020210854272_);fill:#5DC24B;}
	.st49{clip-path:url(#SVGID_00000095304194782190956420000015163466583978625708_);fill:#95D4C0;}
	.st50{clip-path:url(#SVGID_00000103266675006669173010000015674539186459303299_);fill:#6FC8DC;}
	.st51{clip-path:url(#SVGID_00000053537512360313815100000013532047504417615806_);fill:#4880CA;}
	.st52{clip-path:url(#SVGID_00000119834866287905961350000015349002942333277079_);fill:#3F57AF;}
	.st53{clip-path:url(#SVGID_00000147938048451651008180000014703074948899975580_);fill:#FFFFFF;}
	.st54{fill:#3C3430;}
	.st55{fill:#3C3530;}
	.st56{fill:#FFFFFF;}
	.st57{fill:none;}
	.st58{clip-path:url(#SVGID_00000173847137903743901380000013036716055608798853_);fill:none;}
	.st59{clip-path:url(#SVGID_00000104705901110966250910000015602433691467136172_);fill:#FFFFFF;}
	.st60{fill:#FFFFFF;stroke:#FFFFFF;stroke-width:0.9772;stroke-miterlimit:9.7722;}
</style>
<g class="st0">
	<g class="st1">
		<g>
			<g>
				<g>
					<g>
						<defs>
							<path id="SVGID_00000149366117850513664230000000433447610920337327_" d="M-31,573.9c-0.3,3.3-5.5,7.3-10.1,7.3l0,0
								c-4.5,0.4-10.6-3.2-10.6-7.3v-526c1-4.8,6.3-7.6,10-7.6l0,0c4.2,0,9.7,2.9,10.8,7.8V573.9L-31,573.9z"/>
						</defs>
						<clipPath id="SVGID_00000084521390401594463990000016991080805053290928_">
							<use xlink:href="#SVGID_00000149366117850513664230000000433447610920337327_"  style="overflow:visible;"/>
						</clipPath>
						
							<rect x="-56.7" y="490.4" style="clip-path:url(#SVGID_00000084521390401594463990000016991080805053290928_);fill:#FFFAFA;" width="30.9" height="96.8"/>
					</g>
				</g>
			</g>
		</g>
		<g>
			<g>
				<g>
					<g>
						<defs>
							<path id="SVGID_00000174561869935782776090000010330750314130386618_" d="M-31,573.9c-0.3,3.3-5.5,7.3-10.1,7.3l0,0
								c-4.5,0.4-10.6-3.2-10.6-7.3v-526c1-4.8,6.3-7.6,10-7.6l0,0c4.2,0,9.7,2.9,10.8,7.8V573.9L-31,573.9z"/>
						</defs>
						<clipPath id="SVGID_00000165193275878034307020000012071490139256854699_">
							<use xlink:href="#SVGID_00000174561869935782776090000010330750314130386618_"  style="overflow:visible;"/>
						</clipPath>
						
							<rect x="-56.4" y="314.4" style="clip-path:url(#SVGID_00000165193275878034307020000012071490139256854699_);fill:#FBD5D6;" width="30.9" height="88"/>
					</g>
				</g>
			</g>
		</g>
		<g>
			<g>
				<g>
					<g>
						<defs>
							<path id="SVGID_00000014597825950834401010000017399519716575393974_" d="M-31,573.9c-0.3,3.3-5.5,7.3-10.1,7.3l0,0
								c-4.5,0.4-10.6-3.2-10.6-7.3v-526c1-4.8,6.3-7.6,10-7.6l0,0c4.2,0,9.7,2.9,10.8,7.8V573.9L-31,573.9z"/>
						</defs>
						<clipPath id="SVGID_00000024716290946104920960000017887240854174339002_">
							<use xlink:href="#SVGID_00000014597825950834401010000017399519716575393974_"  style="overflow:visible;"/>
						</clipPath>
						
							<rect x="-56.4" y="226.4" style="clip-path:url(#SVGID_00000024716290946104920960000017887240854174339002_);fill:#F9C1C2;" width="30.9" height="88"/>
					</g>
				</g>
			</g>
		</g>
		<g>
			<g>
				<g>
					<g>
						<defs>
							<path id="SVGID_00000023968488773225497520000006549538932817920951_" d="M-31,573.9c-0.3,3.3-5.5,7.3-10.1,7.3l0,0
								c-4.5,0.4-10.6-3.2-10.6-7.3v-526c1-4.8,6.3-7.6,10-7.6l0,0c4.2,0,9.7,2.9,10.8,7.8V573.9L-31,573.9z"/>
						</defs>
						<clipPath id="SVGID_00000120545155139319799760000004939299529796670627_">
							<use xlink:href="#SVGID_00000023968488773225497520000006549538932817920951_"  style="overflow:visible;"/>
						</clipPath>
						
							<rect x="-56.7" y="402.4" style="clip-path:url(#SVGID_00000120545155139319799760000004939299529796670627_);fill:#FDEBEB;" width="30.9" height="88"/>
					</g>
				</g>
			</g>
		</g>
		<g>
			<g>
				<g>
					<g>
						<defs>
							<path id="SVGID_00000178179506119054827340000012281291614261074850_" d="M-31,573.9c-0.3,3.3-5.5,7.3-10.1,7.3l0,0
								c-4.5,0.4-10.6-3.2-10.6-7.3v-526c1-4.8,6.3-7.6,10-7.6l0,0c4.2,0,9.7,2.9,10.8,7.8V573.9L-31,573.9z"/>
						</defs>
						<clipPath id="SVGID_00000135655126007160347750000006971191100124135348_">
							<use xlink:href="#SVGID_00000178179506119054827340000012281291614261074850_"  style="overflow:visible;"/>
						</clipPath>
						
							<rect x="-56.4" y="138.4" style="clip-path:url(#SVGID_00000135655126007160347750000006971191100124135348_);fill:#F6ABAD;" width="30.9" height="88"/>
					</g>
				</g>
			</g>
		</g>
		<g>
			<g>
				<g>
					<g>
						<defs>
							<path id="SVGID_00000094619364496590156990000010504415366007066256_" d="M-31,573.9c-0.3,3.3-5.5,7.3-10.1,7.3l0,0
								c-4.5,0.4-10.6-3.2-10.6-7.3v-526c1-4.8,6.3-7.6,10-7.6l0,0c4.2,0,9.7,2.9,10.8,7.8V573.9L-31,573.9z"/>
						</defs>
						<clipPath id="SVGID_00000050631739717110712760000011925394232774729893_">
							<use xlink:href="#SVGID_00000094619364496590156990000010504415366007066256_"  style="overflow:visible;"/>
						</clipPath>
						
							<rect x="-56.7" y="41.6" style="clip-path:url(#SVGID_00000050631739717110712760000011925394232774729893_);fill:#F49799;" width="30.9" height="96.8"/>
					</g>
				</g>
			</g>
		</g>
	</g>
</g>
<g class="st0">
	<g class="st1">
		<g>
			<g>
				<g>
					<defs>
						<path id="SVGID_00000037691768344787326820000013403985086747174316_" d="M-31,573.9c0,3.6-5.8,7.9-10.4,7.9H-42
							c-4.2,0-9.7-3.8-9.7-7.9v-526c1-4.8,6.3-7.6,10-7.6l0,0c4.2,0,9.7,2.9,10.7,7.8L-31,573.9L-31,573.9z"/>
					</defs>
					<clipPath id="SVGID_00000048479815788640644690000006143095805402576270_">
						<use xlink:href="#SVGID_00000037691768344787326820000013403985086747174316_"  style="overflow:visible;"/>
					</clipPath>
					
						<rect x="-62.5" y="40.3" style="clip-path:url(#SVGID_00000048479815788640644690000006143095805402576270_);fill:#C8E8F0;" width="42.3" height="26.6"/>
				</g>
			</g>
		</g>
	</g>
	<g class="st1">
		<g>
			<g>
				<g>
					<defs>
						<path id="SVGID_00000041997145928684727500000015663689989569461152_" d="M-31,573.9c0,3.6-5.8,7.9-10.4,7.9H-42
							c-4.2,0-9.7-3.8-9.7-7.9v-526c1-4.8,6.3-7.6,10-7.6l0,0c4.2,0,9.7,2.9,10.7,7.8L-31,573.9L-31,573.9z"/>
					</defs>
					<clipPath id="SVGID_00000065069365615756103880000017653445912716146071_">
						<use xlink:href="#SVGID_00000041997145928684727500000015663689989569461152_"  style="overflow:visible;"/>
					</clipPath>
					
						<rect x="-62.5" y="66.9" style="clip-path:url(#SVGID_00000065069365615756103880000017653445912716146071_);fill:#D0EBF7;" width="42.3" height="26.6"/>
				</g>
			</g>
		</g>
	</g>
	<g class="st1">
		<g>
			<g>
				<g>
					<defs>
						<path id="SVGID_00000004547689042776334780000005694078867620609428_" d="M-31,573.9c0,3.6-5.8,7.9-10.4,7.9H-42
							c-4.2,0-9.7-3.8-9.7-7.9v-526c1-4.8,6.3-7.6,10-7.6l0,0c4.2,0,9.7,2.9,10.7,7.8L-31,573.9L-31,573.9z"/>
					</defs>
					<clipPath id="SVGID_00000058585969234757747700000002592359419246754956_">
						<use xlink:href="#SVGID_00000004547689042776334780000005694078867620609428_"  style="overflow:visible;"/>
					</clipPath>
					
						<rect x="-62.5" y="93" style="clip-path:url(#SVGID_00000058585969234757747700000002592359419246754956_);fill:#4898DA;" width="42.3" height="26.6"/>
				</g>
			</g>
		</g>
	</g>
	<g class="st1">
		<g>
			<g>
				<g>
					<defs>
						<path id="SVGID_00000102505354851066476020000004471412519051545238_" d="M-31,573.9c0,3.6-5.8,7.9-10.4,7.9H-42
							c-4.2,0-9.7-3.8-9.7-7.9v-526c1-4.8,6.3-7.6,10-7.6l0,0c4.2,0,9.7,2.9,10.7,7.8L-31,573.9L-31,573.9z"/>
					</defs>
					<clipPath id="SVGID_00000043448457260172503940000013559918179792242325_">
						<use xlink:href="#SVGID_00000102505354851066476020000004471412519051545238_"  style="overflow:visible;"/>
					</clipPath>
					
						<rect x="-62.5" y="119.6" style="clip-path:url(#SVGID_00000043448457260172503940000013559918179792242325_);fill:#A3A5D7;" width="42.3" height="26.6"/>
				</g>
			</g>
		</g>
	</g>
	<g class="st1">
		<g>
			<g>
				<g>
					<defs>
						<path id="SVGID_00000003100653550746171360000008317943665760441224_" d="M-31,573.9c0,3.6-5.8,7.9-10.4,7.9H-42
							c-4.2,0-9.7-3.8-9.7-7.9v-526c1-4.8,6.3-7.6,10-7.6l0,0c4.2,0,9.7,2.9,10.7,7.8L-31,573.9L-31,573.9z"/>
					</defs>
					<clipPath id="SVGID_00000129914705965431805200000014218400448608119975_">
						<use xlink:href="#SVGID_00000003100653550746171360000008317943665760441224_"  style="overflow:visible;"/>
					</clipPath>
					
						<rect x="-62.5" y="146.2" style="clip-path:url(#SVGID_00000129914705965431805200000014218400448608119975_);fill:#B988C1;" width="42.3" height="26.6"/>
				</g>
			</g>
		</g>
	</g>
	<g class="st1">
		<g>
			<g>
				<g>
					<defs>
						<path id="SVGID_00000039820921396144774540000010823960438744168832_" d="M-31,573.9c0,3.6-5.8,7.9-10.4,7.9H-42
							c-4.2,0-9.7-3.8-9.7-7.9v-526c1-4.8,6.3-7.6,10-7.6l0,0c4.2,0,9.7,2.9,10.7,7.8L-31,573.9L-31,573.9z"/>
					</defs>
					<clipPath id="SVGID_00000047049758966024876620000005676360369864128695_">
						<use xlink:href="#SVGID_00000039820921396144774540000010823960438744168832_"  style="overflow:visible;"/>
					</clipPath>
					
						<rect x="-62.5" y="172.9" style="clip-path:url(#SVGID_00000047049758966024876620000005676360369864128695_);fill:#D7A2CD;" width="42.3" height="26.6"/>
				</g>
			</g>
		</g>
	</g>
	<g class="st1">
		<g>
			<g>
				<g>
					<defs>
						<path id="SVGID_00000126297478594863961600000003803423525404439175_" d="M-31,573.9c0,3.6-5.8,7.9-10.4,7.9H-42
							c-4.2,0-9.7-3.8-9.7-7.9v-526c1-4.8,6.3-7.6,10-7.6l0,0c4.2,0,9.7,2.9,10.7,7.8L-31,573.9L-31,573.9z"/>
					</defs>
					<clipPath id="SVGID_00000022520860521300598540000000186108324339414437_">
						<use xlink:href="#SVGID_00000126297478594863961600000003803423525404439175_"  style="overflow:visible;"/>
					</clipPath>
					
						<rect x="-62.5" y="199.1" style="clip-path:url(#SVGID_00000022520860521300598540000000186108324339414437_);fill:#E8BEDB;" width="42.3" height="26.6"/>
				</g>
			</g>
		</g>
	</g>
	<g class="st1">
		<g>
			<g>
				<g>
					<defs>
						<path id="SVGID_00000178899408794771569500000018385917686273881021_" d="M-31,573.9c0,3.6-5.8,7.9-10.4,7.9H-42
							c-4.2,0-9.7-3.8-9.7-7.9v-526c1-4.8,6.3-7.6,10-7.6l0,0c4.2,0,9.7,2.9,10.7,7.8L-31,573.9L-31,573.9z"/>
					</defs>
					<clipPath id="SVGID_00000170253063496425479720000001941322936649251004_">
						<use xlink:href="#SVGID_00000178899408794771569500000018385917686273881021_"  style="overflow:visible;"/>
					</clipPath>
					
						<rect x="-62.5" y="225.8" style="clip-path:url(#SVGID_00000170253063496425479720000001941322936649251004_);fill:#E67D9B;" width="42.3" height="26.6"/>
				</g>
			</g>
		</g>
	</g>
	<g class="st1">
		<g>
			<g>
				<g>
					<defs>
						<path id="SVGID_00000065065846346481279650000018000808809704097470_" d="M-31,573.9c0,3.6-5.8,7.9-10.4,7.9H-42
							c-4.2,0-9.7-3.8-9.7-7.9v-526c1-4.8,6.3-7.6,10-7.6l0,0c4.2,0,9.7,2.9,10.7,7.8L-31,573.9L-31,573.9z"/>
					</defs>
					<clipPath id="SVGID_00000116951791970280858750000001114249707231248526_">
						<use xlink:href="#SVGID_00000065065846346481279650000018000808809704097470_"  style="overflow:visible;"/>
					</clipPath>
					
						<rect x="-62.5" y="252.4" style="clip-path:url(#SVGID_00000116951791970280858750000001114249707231248526_);fill:#DB4C4D;" width="42.3" height="26.6"/>
				</g>
			</g>
		</g>
	</g>
	<g class="st1">
		<g>
			<g>
				<g>
					<defs>
						<path id="SVGID_00000104666030088379327360000002259016539825254542_" d="M-31,573.9c0,3.6-5.8,7.9-10.4,7.9H-42
							c-4.2,0-9.7-3.8-9.7-7.9v-526c1-4.8,6.3-7.6,10-7.6l0,0c4.2,0,9.7,2.9,10.7,7.8L-31,573.9L-31,573.9z"/>
					</defs>
					<clipPath id="SVGID_00000094588035094148583120000002924708848710873734_">
						<use xlink:href="#SVGID_00000104666030088379327360000002259016539825254542_"  style="overflow:visible;"/>
					</clipPath>
					
						<rect x="-62.5" y="279" style="clip-path:url(#SVGID_00000094588035094148583120000002924708848710873734_);fill:#EF5A5C;" width="42.3" height="26.6"/>
				</g>
			</g>
		</g>
	</g>
	<g class="st1">
		<g>
			<g>
				<g>
					<defs>
						<path id="SVGID_00000152234645565180476530000002842484977168620695_" d="M-31,573.9c0,3.6-5.8,7.9-10.4,7.9H-42
							c-4.2,0-9.7-3.8-9.7-7.9v-526c1-4.8,6.3-7.6,10-7.6l0,0c4.2,0,9.7,2.9,10.7,7.8L-31,573.9L-31,573.9z"/>
					</defs>
					<clipPath id="SVGID_00000022553999610132881850000009604822005342140087_">
						<use xlink:href="#SVGID_00000152234645565180476530000002842484977168620695_"  style="overflow:visible;"/>
					</clipPath>
					
						<rect x="-62.5" y="305.3" style="clip-path:url(#SVGID_00000022553999610132881850000009604822005342140087_);fill:#F7A25C;" width="42.3" height="26.6"/>
				</g>
			</g>
		</g>
	</g>
	<g class="st1">
		<g>
			<g>
				<g>
					<defs>
						<path id="SVGID_00000005989693605764522460000006657265785646157985_" d="M-31,573.9c0,3.6-5.8,7.9-10.4,7.9H-42
							c-4.2,0-9.7-3.8-9.7-7.9v-526c1-4.8,6.3-7.6,10-7.6l0,0c4.2,0,9.7,2.9,10.7,7.8L-31,573.9L-31,573.9z"/>
					</defs>
					<clipPath id="SVGID_00000145777361281328742810000003403967688216439190_">
						<use xlink:href="#SVGID_00000005989693605764522460000006657265785646157985_"  style="overflow:visible;"/>
					</clipPath>
					
						<rect x="-62.5" y="331.9" style="clip-path:url(#SVGID_00000145777361281328742810000003403967688216439190_);fill:#FDD58F;" width="42.3" height="26.6"/>
				</g>
			</g>
		</g>
	</g>
	<g class="st1">
		<g>
			<g>
				<g>
					<defs>
						<path id="SVGID_00000076567557530700223560000012855932659611746987_" d="M-31,573.9c0,3.6-5.8,7.9-10.4,7.9H-42
							c-4.2,0-9.7-3.8-9.7-7.9v-526c1-4.8,6.3-7.6,10-7.6l0,0c4.2,0,9.7,2.9,10.7,7.8L-31,573.9L-31,573.9z"/>
					</defs>
					<clipPath id="SVGID_00000127764802294205603480000009092386453421662592_">
						<use xlink:href="#SVGID_00000076567557530700223560000012855932659611746987_"  style="overflow:visible;"/>
					</clipPath>
					
						<rect x="-62.5" y="358.5" style="clip-path:url(#SVGID_00000127764802294205603480000009092386453421662592_);fill:#FFE173;" width="42.3" height="26.6"/>
				</g>
			</g>
		</g>
	</g>
	<g class="st1">
		<g>
			<g>
				<g>
					<defs>
						<path id="SVGID_00000183230099047692813540000003955512427665313168_" d="M-31,573.9c0,3.6-5.8,7.9-10.4,7.9H-42
							c-4.2,0-9.7-3.8-9.7-7.9v-526c1-4.8,6.3-7.6,10-7.6l0,0c4.2,0,9.7,2.9,10.7,7.8L-31,573.9L-31,573.9z"/>
					</defs>
					<clipPath id="SVGID_00000183225337188861757980000010609985393730859938_">
						<use xlink:href="#SVGID_00000183230099047692813540000003955512427665313168_"  style="overflow:visible;"/>
					</clipPath>
					
						<rect x="-62.5" y="385.1" style="clip-path:url(#SVGID_00000183225337188861757980000010609985393730859938_);fill:#FEFE82;" width="42.3" height="26.6"/>
				</g>
			</g>
		</g>
	</g>
	<g class="st1">
		<g>
			<g>
				<g>
					<defs>
						<path id="SVGID_00000063610702292666373500000010099101095969732228_" d="M-31,573.9c0,3.6-5.8,7.9-10.4,7.9H-42
							c-4.2,0-9.7-3.8-9.7-7.9v-526c1-4.8,6.3-7.6,10-7.6l0,0c4.2,0,9.7,2.9,10.7,7.8L-31,573.9L-31,573.9z"/>
					</defs>
					<clipPath id="SVGID_00000151534709798895923350000016384389540338246844_">
						<use xlink:href="#SVGID_00000063610702292666373500000010099101095969732228_"  style="overflow:visible;"/>
					</clipPath>
					
						<rect x="-62.5" y="411.4" style="clip-path:url(#SVGID_00000151534709798895923350000016384389540338246844_);fill:#FFFFC7;" width="42.3" height="26.6"/>
				</g>
			</g>
		</g>
	</g>
	<g class="st1">
		<g>
			<g>
				<g>
					<defs>
						<path id="SVGID_00000127008865997556383250000005762962699181003939_" d="M-31,573.9c0,3.6-5.8,7.9-10.4,7.9H-42
							c-4.2,0-9.7-3.8-9.7-7.9v-526c1-4.8,6.3-7.6,10-7.6l0,0c4.2,0,9.7,2.9,10.7,7.8L-31,573.9L-31,573.9z"/>
					</defs>
					<clipPath id="SVGID_00000085964341647551835150000011406084329960067749_">
						<use xlink:href="#SVGID_00000127008865997556383250000005762962699181003939_"  style="overflow:visible;"/>
					</clipPath>
					
						<rect x="-62.5" y="438" style="clip-path:url(#SVGID_00000085964341647551835150000011406084329960067749_);fill:#F3F3A1;" width="42.3" height="26.6"/>
				</g>
			</g>
		</g>
	</g>
	<g class="st1">
		<g>
			<g>
				<g>
					<defs>
						<path id="SVGID_00000160879549863802637580000017156514292311957920_" d="M-31,573.9c0,3.6-5.8,7.9-10.4,7.9H-42
							c-4.2,0-9.7-3.8-9.7-7.9v-526c1-4.8,6.3-7.6,10-7.6l0,0c4.2,0,9.7,2.9,10.7,7.8L-31,573.9L-31,573.9z"/>
					</defs>
					<clipPath id="SVGID_00000106113623460723866120000017212886705404248725_">
						<use xlink:href="#SVGID_00000160879549863802637580000017156514292311957920_"  style="overflow:visible;"/>
					</clipPath>
					
						<rect x="-62.5" y="464.7" style="clip-path:url(#SVGID_00000106113623460723866120000017212886705404248725_);fill:#D3ECA4;" width="42.3" height="26.6"/>
				</g>
			</g>
		</g>
	</g>
	<g class="st1">
		<g>
			<g>
				<g>
					<defs>
						<path id="SVGID_00000037667830762995340050000003746720839846850237_" d="M-31,573.9c0,3.6-5.8,7.9-10.4,7.9H-42
							c-4.2,0-9.7-3.8-9.7-7.9v-526c1-4.8,6.3-7.6,10-7.6l0,0c4.2,0,9.7,2.9,10.7,7.8L-31,573.9L-31,573.9z"/>
					</defs>
					<clipPath id="SVGID_00000172405573292216912620000004606820283793148300_">
						<use xlink:href="#SVGID_00000037667830762995340050000003746720839846850237_"  style="overflow:visible;"/>
					</clipPath>
					
						<rect x="-62.5" y="491.3" style="clip-path:url(#SVGID_00000172405573292216912620000004606820283793148300_);fill:#C3E6D8;" width="42.3" height="26.6"/>
				</g>
			</g>
		</g>
	</g>
	<g class="st1">
		<g>
			<g>
				<g>
					<defs>
						<path id="SVGID_00000167383496800363613870000006260439508055682974_" d="M-31,573.9c0,3.6-5.8,7.9-10.4,7.9H-42
							c-4.2,0-9.7-3.8-9.7-7.9v-526c1-4.8,6.3-7.6,10-7.6l0,0c4.2,0,9.7,2.9,10.7,7.8L-31,573.9L-31,573.9z"/>
					</defs>
					<clipPath id="SVGID_00000000914770540934918490000011631345442860413614_">
						<use xlink:href="#SVGID_00000167383496800363613870000006260439508055682974_"  style="overflow:visible;"/>
					</clipPath>
					
						<rect x="-62.5" y="517.9" style="clip-path:url(#SVGID_00000000914770540934918490000011631345442860413614_);fill:#C8E8F0;" width="42.3" height="26.6"/>
				</g>
			</g>
		</g>
	</g>
	<g class="st1">
		<g>
			<g>
				<g>
					<defs>
						<path id="SVGID_00000080199748611306012920000007943708433107504286_" d="M-31,573.9c0,3.6-5.8,7.9-10.4,7.9H-42
							c-4.2,0-9.7-3.8-9.7-7.9v-526c1-4.8,6.3-7.6,10-7.6l0,0c4.2,0,9.7,2.9,10.7,7.8L-31,573.9L-31,573.9z"/>
					</defs>
					<clipPath id="SVGID_00000068654110270117180710000011908446237789782446_">
						<use xlink:href="#SVGID_00000080199748611306012920000007943708433107504286_"  style="overflow:visible;"/>
					</clipPath>
					
						<rect x="-62.5" y="544.5" style="clip-path:url(#SVGID_00000068654110270117180710000011908446237789782446_);fill:#D0EBF7;" width="42.3" height="40.2"/>
				</g>
			</g>
		</g>
	</g>
</g>
<g class="st0">
	<g class="st1">
		<g>
			<g>
				<g>
					<g>
						<defs>
							<path id="SVGID_00000013877884119906680360000013550874469997045909_" d="M-31.2,574.1c-0.3,3.3-5.5,7.3-10.1,7.3l0,0
								c-4.5,0.4-10.6-3.2-10.6-7.3v-526c1-4.8,6.3-7.6,10-7.6l0,0c4.2,0,9.7,2.9,10.8,7.8V574.1L-31.2,574.1z"/>
						</defs>
						<clipPath id="SVGID_00000067916857331050999550000009823760932746299786_">
							<use xlink:href="#SVGID_00000013877884119906680360000013550874469997045909_"  style="overflow:visible;"/>
						</clipPath>
						
							<rect x="-57" y="489.2" style="clip-path:url(#SVGID_00000067916857331050999550000009823760932746299786_);fill:#EC2426;" width="30.9" height="96.8"/>
					</g>
				</g>
			</g>
		</g>
		<g>
			<g>
				<g>
					<g>
						<defs>
							<path id="SVGID_00000158738810941791207490000002741545510357127808_" d="M-31.2,574.1c-0.3,3.3-5.5,7.3-10.1,7.3l0,0
								c-4.5,0.4-10.6-3.2-10.6-7.3v-526c1-4.8,6.3-7.6,10-7.6l0,0c4.2,0,9.7,2.9,10.8,7.8V574.1L-31.2,574.1z"/>
						</defs>
						<clipPath id="SVGID_00000044897912252457817970000010813863992770252469_">
							<use xlink:href="#SVGID_00000158738810941791207490000002741545510357127808_"  style="overflow:visible;"/>
						</clipPath>
						
							<rect x="-56.6" y="313.2" style="clip-path:url(#SVGID_00000044897912252457817970000010813863992770252469_);fill:#FCFC1E;" width="30.9" height="88"/>
					</g>
				</g>
			</g>
		</g>
		<g>
			<g>
				<g>
					<g>
						<defs>
							<path id="SVGID_00000115516124258518043350000017978485065004191421_" d="M-31.2,574.1c-0.3,3.3-5.5,7.3-10.1,7.3l0,0
								c-4.5,0.4-10.6-3.2-10.6-7.3v-526c1-4.8,6.3-7.6,10-7.6l0,0c4.2,0,9.7,2.9,10.8,7.8V574.1L-31.2,574.1z"/>
						</defs>
						<clipPath id="SVGID_00000054972524486444565580000015479741922814740921_">
							<use xlink:href="#SVGID_00000115516124258518043350000017978485065004191421_"  style="overflow:visible;"/>
						</clipPath>
						
							<rect x="-56.6" y="225.2" style="clip-path:url(#SVGID_00000054972524486444565580000015479741922814740921_);fill:#0B7F3F;" width="30.9" height="88"/>
					</g>
				</g>
			</g>
		</g>
		<g>
			<g>
				<g>
					<g>
						<defs>
							<path id="SVGID_00000022525625972369593990000005764641353043774116_" d="M-31.2,574.1c-0.3,3.3-5.5,7.3-10.1,7.3l0,0
								c-4.5,0.4-10.6-3.2-10.6-7.3v-526c1-4.8,6.3-7.6,10-7.6l0,0c4.2,0,9.7,2.9,10.8,7.8V574.1L-31.2,574.1z"/>
						</defs>
						<clipPath id="SVGID_00000129183146919234490600000017246919671415375500_">
							<use xlink:href="#SVGID_00000022525625972369593990000005764641353043774116_"  style="overflow:visible;"/>
						</clipPath>
						
							<rect x="-57" y="401.2" style="clip-path:url(#SVGID_00000129183146919234490600000017246919671415375500_);fill:#F7A426;" width="30.9" height="88"/>
					</g>
				</g>
			</g>
		</g>
		<g>
			<g>
				<g>
					<g>
						<defs>
							<path id="SVGID_00000078005792570744241750000014173940074285908102_" d="M-31.2,574.1c-0.3,3.3-5.5,7.3-10.1,7.3l0,0
								c-4.5,0.4-10.6-3.2-10.6-7.3v-526c1-4.8,6.3-7.6,10-7.6l0,0c4.2,0,9.7,2.9,10.8,7.8V574.1L-31.2,574.1z"/>
						</defs>
						<clipPath id="SVGID_00000025438953448455505300000012200471601087843232_">
							<use xlink:href="#SVGID_00000078005792570744241750000014173940074285908102_"  style="overflow:visible;"/>
						</clipPath>
						
							<rect x="-56.6" y="137.2" style="clip-path:url(#SVGID_00000025438953448455505300000012200471601087843232_);fill:#6FC9DC;" width="30.9" height="88"/>
					</g>
				</g>
			</g>
		</g>
		<g>
			<g>
				<g>
					<g>
						<defs>
							<path id="SVGID_00000018944647712745453780000002360341366459480748_" d="M-31.2,574.1c-0.3,3.3-5.5,7.3-10.1,7.3l0,0
								c-4.5,0.4-10.6-3.2-10.6-7.3v-526c1-4.8,6.3-7.6,10-7.6l0,0c4.2,0,9.7,2.9,10.8,7.8V574.1L-31.2,574.1z"/>
						</defs>
						<clipPath id="SVGID_00000010990672907379263250000004645181737332468643_">
							<use xlink:href="#SVGID_00000018944647712745453780000002360341366459480748_"  style="overflow:visible;"/>
						</clipPath>
						
							<rect x="-56.6" y="40.4" style="clip-path:url(#SVGID_00000010990672907379263250000004645181737332468643_);fill:#3F57B0;" width="30.9" height="96.8"/>
					</g>
				</g>
			</g>
		</g>
	</g>
</g>
<circle class="st34" cx="-41.5" cy="21.8" r="14.6"/>
<path class="st35" d="M-31.2,574.1c-0.3,3.3-5.5,7.3-10.1,7.3l0,0c-4.5,0.4-10.6-3.2-10.6-7.3v-526c1-4.8,6.3-7.6,10-7.6l0,0
	c4.2,0,9.7,2.9,10.8,7.8V574.1L-31.2,574.1z"/>
<g class="st0">
	<path class="st36" d="M-46.2,572.6c-0.4-0.5-0.6-1-0.6-1.8c0-0.7,0.2-1.3,0.6-1.8c0.4-0.4,0.9-0.7,1.5-0.7s1.1,0.2,1.5,0.7
		c0.4,0.4,0.6,1,0.6,1.8s-0.2,1.3-0.6,1.8c-0.4,0.4-0.9,0.7-1.5,0.7S-45.8,573.1-46.2,572.6z M-43.8,572c0.2-0.3,0.3-0.7,0.3-1.1
		c0-0.5-0.1-0.9-0.3-1.1c-0.2-0.3-0.5-0.4-0.8-0.4c-0.3,0-0.6,0.1-0.8,0.4c-0.2,0.3-0.3,0.7-0.3,1.1c0,0.5,0.1,0.9,0.3,1.1
		c0.2,0.3,0.5,0.4,0.8,0.4C-44.3,572.4-44,572.3-43.8,572z M-39.3,568.5h1.2l-6.1,8.9h-1.2L-39.3,568.5z M-40.3,576.8
		c-0.4-0.5-0.6-1-0.6-1.8c0-0.7,0.2-1.3,0.6-1.8c0.4-0.4,0.9-0.7,1.5-0.7c0.6,0,1.1,0.2,1.5,0.7c0.4,0.4,0.6,1,0.6,1.8
		s-0.2,1.3-0.6,1.8c-0.4,0.4-0.9,0.7-1.5,0.7C-39.4,577.5-39.9,577.3-40.3,576.8z M-38,576.2c0.2-0.3,0.3-0.7,0.3-1.1
		c0-0.5-0.1-0.9-0.3-1.1c-0.2-0.3-0.5-0.4-0.8-0.4c-0.3,0-0.6,0.1-0.8,0.4c-0.2,0.3-0.3,0.7-0.3,1.1c0,0.5,0.1,0.9,0.3,1.1
		c0.2,0.3,0.5,0.4,0.8,0.4C-38.4,576.6-38.2,576.5-38,576.2z"/>
</g>
<g class="st0">
	<path class="st36" d="M-42.7,528.4c0.4,0.3,0.6,0.7,0.6,1.2c0,0.3-0.1,0.6-0.2,0.9s-0.4,0.5-0.7,0.6c-0.3,0.2-0.7,0.2-1.2,0.2
		c-0.4,0-0.8-0.1-1.1-0.2c-0.4-0.1-0.7-0.3-0.9-0.5l0.4-0.8c0.2,0.2,0.4,0.3,0.7,0.4s0.6,0.1,0.9,0.1c0.4,0,0.6-0.1,0.8-0.2
		c0.2-0.1,0.3-0.4,0.3-0.6c0-0.3-0.1-0.5-0.3-0.6c-0.2-0.1-0.6-0.2-1.1-0.2h-1.3l0.3-3h3.2v0.9h-2.4l-0.1,1.3h0.5
		C-43.6,527.9-43,528.1-42.7,528.4z"/>
	<path class="st36" d="M-40.4,531c-0.3-0.2-0.6-0.5-0.8-1c-0.2-0.4-0.3-0.9-0.3-1.5c0-0.6,0.1-1.1,0.3-1.5c0.2-0.4,0.5-0.8,0.8-1
		c0.3-0.2,0.7-0.3,1.2-0.3c0.4,0,0.8,0.1,1.2,0.3c0.3,0.2,0.6,0.5,0.8,1c0.2,0.4,0.3,0.9,0.3,1.5c0,0.6-0.1,1.1-0.3,1.5
		c-0.2,0.4-0.5,0.7-0.8,1c-0.3,0.2-0.7,0.3-1.2,0.3C-39.7,531.3-40.1,531.2-40.4,531z M-38.3,530c0.2-0.3,0.3-0.8,0.3-1.4
		c0-0.6-0.1-1.1-0.3-1.4c-0.2-0.3-0.5-0.5-0.9-0.5c-0.4,0-0.7,0.2-0.9,0.5c-0.2,0.3-0.3,0.8-0.3,1.4c0,0.6,0.1,1.1,0.3,1.4
		c0.2,0.3,0.5,0.5,0.9,0.5C-38.9,530.5-38.5,530.3-38.3,530z"/>
</g>
<g class="st0">
	<path class="st36" d="M-42.7,447c0.3,0.1,0.5,0.3,0.7,0.6c0.2,0.3,0.2,0.6,0.2,0.9c0,0.4-0.1,0.7-0.3,0.9c-0.2,0.3-0.4,0.5-0.7,0.6
		c-0.3,0.1-0.6,0.2-1,0.2c-0.8,0-1.3-0.2-1.7-0.7c-0.4-0.5-0.6-1.1-0.6-2c0-0.6,0.1-1.1,0.3-1.6c0.2-0.4,0.5-0.8,0.9-1
		c0.4-0.2,0.9-0.3,1.4-0.3c0.3,0,0.5,0,0.8,0.1c0.2,0.1,0.5,0.1,0.6,0.3l-0.4,0.8c-0.3-0.2-0.6-0.3-1-0.3c-0.5,0-0.9,0.2-1.2,0.5
		c-0.3,0.3-0.4,0.8-0.4,1.4v0c0.2-0.2,0.4-0.3,0.6-0.4c0.3-0.1,0.5-0.1,0.8-0.1C-43.3,446.8-43,446.9-42.7,447z M-43.1,449.2
		c0.2-0.2,0.3-0.4,0.3-0.7c0-0.3-0.1-0.5-0.3-0.7c-0.2-0.2-0.5-0.3-0.8-0.3c-0.3,0-0.6,0.1-0.8,0.3c-0.2,0.2-0.3,0.4-0.3,0.7
		c0,0.3,0.1,0.5,0.3,0.7c0.2,0.2,0.5,0.3,0.8,0.3C-43.6,449.5-43.3,449.4-43.1,449.2z"/>
	<path class="st36" d="M-40.2,450c-0.3-0.2-0.6-0.5-0.8-1c-0.2-0.4-0.3-0.9-0.3-1.5c0-0.6,0.1-1.1,0.3-1.5c0.2-0.4,0.5-0.8,0.8-1
		c0.3-0.2,0.7-0.3,1.2-0.3c0.4,0,0.8,0.1,1.2,0.3c0.3,0.2,0.6,0.5,0.8,1c0.2,0.4,0.3,0.9,0.3,1.5c0,0.6-0.1,1.1-0.3,1.5
		c-0.2,0.4-0.5,0.7-0.8,1c-0.3,0.2-0.7,0.3-1.2,0.3C-39.4,450.3-39.8,450.2-40.2,450z M-38.1,448.9c0.2-0.3,0.3-0.8,0.3-1.4
		c0-0.6-0.1-1.1-0.3-1.4c-0.2-0.3-0.5-0.5-0.9-0.5c-0.4,0-0.7,0.2-0.9,0.5c-0.2,0.3-0.3,0.8-0.3,1.4c0,0.6,0.1,1.1,0.3,1.4
		c0.2,0.3,0.5,0.5,0.9,0.5C-38.6,449.4-38.3,449.2-38.1,448.9z"/>
</g>
<g class="st0">
	<path class="st36" d="M-41.8,356v0.7l-2.1,4.8H-45l2.1-4.6h-2.1v0.9H-46V356L-41.8,356L-41.8,356z"/>
	<path class="st36" d="M-40.2,361.2c-0.3-0.2-0.6-0.5-0.8-1c-0.2-0.4-0.3-0.9-0.3-1.5c0-0.6,0.1-1.1,0.3-1.5c0.2-0.4,0.5-0.7,0.8-1
		c0.3-0.2,0.7-0.3,1.2-0.3c0.4,0,0.8,0.1,1.2,0.3c0.3,0.2,0.6,0.5,0.8,1c0.2,0.4,0.3,0.9,0.3,1.5c0,0.6-0.1,1.1-0.3,1.5
		c-0.2,0.4-0.5,0.7-0.8,1c-0.3,0.2-0.7,0.3-1.2,0.3C-39.5,361.6-39.9,361.4-40.2,361.2z M-38.1,360.2c0.2-0.3,0.3-0.8,0.3-1.4
		c0-0.6-0.1-1.1-0.3-1.4c-0.2-0.3-0.5-0.5-0.9-0.5c-0.4,0-0.7,0.2-0.9,0.5c-0.2,0.3-0.3,0.8-0.3,1.4c0,0.6,0.1,1.1,0.3,1.4
		c0.2,0.3,0.5,0.5,0.9,0.5C-38.6,360.7-38.3,360.5-38.1,360.2z"/>
</g>
<g class="st0">
	<path class="st36" d="M-41.9,262.4c0.2,0.2,0.2,0.5,0.2,0.8c0,0.3-0.1,0.6-0.3,0.9c-0.2,0.3-0.4,0.4-0.8,0.6
		c-0.3,0.1-0.7,0.2-1.2,0.2c-0.4,0-0.8-0.1-1.2-0.2c-0.3-0.1-0.6-0.3-0.8-0.6s-0.3-0.5-0.3-0.9c0-0.3,0.1-0.6,0.2-0.8
		c0.2-0.2,0.4-0.4,0.6-0.5c-0.2-0.1-0.4-0.3-0.5-0.5c-0.1-0.2-0.2-0.4-0.2-0.7c0-0.3,0.1-0.6,0.3-0.8c0.2-0.2,0.4-0.4,0.7-0.5
		c0.3-0.1,0.7-0.2,1.1-0.2c0.4,0,0.8,0.1,1.1,0.2s0.5,0.3,0.7,0.5c0.2,0.2,0.3,0.5,0.3,0.8c0,0.3-0.1,0.5-0.2,0.7
		c-0.1,0.2-0.3,0.3-0.5,0.5C-42.3,262-42.1,262.1-41.9,262.4z M-43.1,263.8c0.2-0.2,0.3-0.4,0.3-0.6c0-0.3-0.1-0.5-0.3-0.6
		c-0.2-0.2-0.5-0.2-0.9-0.2s-0.7,0.1-0.9,0.2c-0.2,0.2-0.3,0.4-0.3,0.6c0,0.3,0.1,0.5,0.3,0.6c0.2,0.2,0.5,0.2,0.9,0.2
		C-43.6,264-43.3,263.9-43.1,263.8z M-44.7,260.2c-0.2,0.1-0.3,0.3-0.3,0.6c0,0.2,0.1,0.4,0.3,0.6c0.2,0.1,0.4,0.2,0.8,0.2
		c0.3,0,0.6-0.1,0.8-0.2s0.3-0.3,0.3-0.6c0-0.2-0.1-0.4-0.3-0.6c-0.2-0.1-0.4-0.2-0.8-0.2S-44.5,260-44.7,260.2z"/>
	<path class="st36" d="M-39.9,264.5c-0.3-0.2-0.6-0.5-0.8-1c-0.2-0.4-0.3-0.9-0.3-1.5c0-0.6,0.1-1.1,0.3-1.5c0.2-0.4,0.5-0.7,0.8-1
		c0.3-0.2,0.7-0.3,1.2-0.3c0.4,0,0.8,0.1,1.2,0.3c0.3,0.2,0.6,0.5,0.8,1s0.3,0.9,0.3,1.5c0,0.6-0.1,1.1-0.3,1.5
		c-0.2,0.4-0.5,0.7-0.8,1c-0.3,0.2-0.7,0.3-1.2,0.3C-39.2,264.8-39.6,264.7-39.9,264.5z M-37.8,263.4c0.2-0.3,0.3-0.8,0.3-1.4
		c0-0.6-0.1-1.1-0.3-1.4c-0.2-0.3-0.5-0.5-0.9-0.5c-0.4,0-0.7,0.2-0.9,0.5c-0.2,0.3-0.3,0.8-0.3,1.4c0,0.6,0.1,1.1,0.3,1.4
		c0.2,0.3,0.5,0.5,0.9,0.5C-38.4,263.9-38.1,263.8-37.8,263.4z"/>
</g>
<g class="st0">
	<path class="st36" d="M-42.5,179.5c0.4,0.5,0.6,1.1,0.6,2c0,0.6-0.1,1.1-0.3,1.6s-0.5,0.8-0.9,1c-0.4,0.2-0.9,0.3-1.4,0.3
		c-0.3,0-0.5,0-0.8-0.1c-0.2-0.1-0.5-0.1-0.6-0.3l0.4-0.8c0.3,0.2,0.6,0.3,1,0.3c0.5,0,0.9-0.2,1.2-0.5c0.3-0.3,0.4-0.8,0.4-1.4v0
		c-0.2,0.2-0.4,0.3-0.6,0.4s-0.5,0.1-0.8,0.1c-0.4,0-0.7-0.1-1-0.2c-0.3-0.1-0.5-0.3-0.7-0.6c-0.2-0.3-0.2-0.6-0.2-0.9
		c0-0.4,0.1-0.7,0.3-0.9c0.2-0.3,0.4-0.5,0.7-0.6c0.3-0.1,0.6-0.2,1-0.2C-43.5,178.7-42.9,179-42.5,179.5z M-43.3,181.1
		c0.2-0.2,0.3-0.4,0.3-0.7c0-0.3-0.1-0.5-0.3-0.7c-0.2-0.2-0.5-0.3-0.8-0.3c-0.3,0-0.6,0.1-0.8,0.3s-0.3,0.4-0.3,0.7
		c0,0.3,0.1,0.5,0.3,0.7c0.2,0.2,0.5,0.3,0.8,0.3C-43.8,181.4-43.5,181.3-43.3,181.1z"/>
	<path class="st36" d="M-40,184c-0.3-0.2-0.6-0.5-0.8-1c-0.2-0.4-0.3-0.9-0.3-1.5c0-0.6,0.1-1.1,0.3-1.5c0.2-0.4,0.5-0.7,0.8-1
		c0.3-0.2,0.7-0.3,1.2-0.3c0.4,0,0.8,0.1,1.2,0.3c0.3,0.2,0.6,0.5,0.8,1c0.2,0.4,0.3,0.9,0.3,1.5c0,0.6-0.1,1.1-0.3,1.5
		c-0.2,0.4-0.5,0.7-0.8,1c-0.3,0.2-0.7,0.3-1.2,0.3C-39.3,184.4-39.7,184.3-40,184z M-37.9,183c0.2-0.3,0.3-0.8,0.3-1.4
		c0-0.6-0.1-1.1-0.3-1.4c-0.2-0.3-0.5-0.5-0.9-0.5c-0.4,0-0.7,0.2-0.9,0.5c-0.2,0.3-0.3,0.8-0.3,1.4c0,0.6,0.1,1.1,0.3,1.4
		c0.2,0.3,0.5,0.5,0.9,0.5S-38.2,183.3-37.9,183z"/>
</g>
<g class="st0">
	<path class="st36" d="M-45.8,81.8v5.5h-1v-4.6H-48v-0.9H-45.8z"/>
	<path class="st36" d="M-43.6,87c-0.3-0.2-0.6-0.5-0.8-1c-0.2-0.4-0.3-0.9-0.3-1.5s0.1-1.1,0.3-1.5c0.2-0.4,0.5-0.7,0.8-1
		c0.3-0.2,0.7-0.3,1.2-0.3s0.8,0.1,1.2,0.3c0.3,0.2,0.6,0.5,0.8,1c0.2,0.4,0.3,0.9,0.3,1.5s-0.1,1.1-0.3,1.5c-0.2,0.4-0.5,0.7-0.8,1
		c-0.3,0.2-0.7,0.3-1.2,0.3C-42.9,87.4-43.3,87.3-43.6,87z M-41.5,86c0.2-0.3,0.3-0.8,0.3-1.4s-0.1-1.1-0.3-1.4
		c-0.2-0.3-0.5-0.5-0.9-0.5c-0.4,0-0.7,0.2-0.9,0.5c-0.2,0.3-0.3,0.8-0.3,1.4s0.1,1.1,0.3,1.4c0.2,0.3,0.5,0.5,0.9,0.5
		C-42.1,86.5-41.8,86.3-41.5,86z"/>
	<path class="st36" d="M-38.4,87c-0.3-0.2-0.6-0.5-0.8-1c-0.2-0.4-0.3-0.9-0.3-1.5s0.1-1.1,0.3-1.5c0.2-0.4,0.5-0.7,0.8-1
		c0.3-0.2,0.7-0.3,1.2-0.3c0.4,0,0.8,0.1,1.2,0.3c0.3,0.2,0.6,0.5,0.8,1s0.3,0.9,0.3,1.5s-0.1,1.1-0.3,1.5c-0.2,0.4-0.5,0.7-0.8,1
		c-0.3,0.2-0.7,0.3-1.2,0.3C-37.6,87.4-38,87.3-38.4,87z M-36.3,86c0.2-0.3,0.3-0.8,0.3-1.4s-0.1-1.1-0.3-1.4
		c-0.2-0.3-0.5-0.5-0.9-0.5c-0.4,0-0.7,0.2-0.9,0.5c-0.2,0.3-0.3,0.8-0.3,1.4s0.1,1.1,0.3,1.4c0.2,0.3,0.5,0.5,0.9,0.5
		C-36.8,86.5-36.5,86.3-36.3,86z"/>
</g>
<g class="st0">
	<path class="st37" d="M-47.8,28.5h12.4c2.6,0,4.8-1.8,5.3-4.2c0.3-1.6-0.1-3.2-1.1-4.4c-0.9-1-2.1-1.7-3.4-1.9v-1.2
		c0-4.2-3.8-7.5-7.9-7c-3.5,0.4-6.2,3.5-6.2,7.3V18c-1.1,0.1-2.2,0.7-3,1.5c-1.2,1.2-1.7,2.9-1.5,4.6
		C-52.8,26.5-50.3,28.5-47.8,28.5z M-50.7,20.5c0.7-0.7,1.7-1.1,2.7-1.1c0.4,0,0.7-0.3,0.7-0.7v-1.6c0-3.1,2.5-5.9,5.7-5.9
		c3.1,0,5.7,2.6,5.7,5.7v1.8c0,0.4,0.3,0.7,0.7,0.7c1.2,0,2.3,0.5,3,1.4c0.7,0.9,1,2.1,0.8,3.3c-0.4,1.8-2,3.1-4,3.1h-12.4
		c-1.8,0-3.7-1.5-4-3.2C-52,22.6-51.6,21.4-50.7,20.5z"/>
</g>
<rect x="-46.4" y="28.5" class="st38" width="9.5" height="5.3"/>
<g class="st39">
	<path class="st37" d="M-42.4,28.7h0.7V32h2v0.6h-2.7C-42.4,32.6-42.4,28.7-42.4,28.7z"/>
</g>
<path class="st40" d="M30.6,632.7c-0.3,3.7-6.4,8.1-11.7,8.1l0,0c-5.2,0.4-12.3-3.6-12.3-8.1V48.6c1.1-5.3,7.4-8.5,11.5-8.5l0,0
	c4.9,0,11.2,3.1,12.4,8.7V632.7L30.6,632.7z"/>
<path class="st41" d="M30.7,632.4c-0.3,3.7-6.4,8.1-11.7,8.1l0,0c-5.2,0.4-12.3-3.6-12.3-8.1V48.5c1.1-5.3,7.4-8.5,11.5-8.5l0,0
	c4.9,0,11.2,3.1,12.4,8.7V632.4L30.7,632.4z"/>
<circle class="st42" cx="18.6" cy="20.6" r="14.6"/>
<g>
	<g>
		<defs>
			<path id="SVGID_00000109007128445978464240000016659794622165417396_" d="M30.7,634c0,4-6.8,8.8-12,8.8h-0.7
				c-4.9,0-11.3-4.2-11.3-8.8V50c1.2-5.4,7.4-8.5,11.6-8.5l0,0c4.9,0,11.2,3.2,12.5,8.7L30.7,634L30.7,634z"/>
		</defs>
		<clipPath id="SVGID_00000126290961941332746560000011494004912635192194_">
			<use xlink:href="#SVGID_00000109007128445978464240000016659794622165417396_"  style="overflow:visible;"/>
		</clipPath>
		
			<rect x="-17.4" y="39.7" style="clip-path:url(#SVGID_00000126290961941332746560000011494004912635192194_);fill:#EB2426;" width="87.5" height="52.6"/>
	</g>
	<g>
		<defs>
			<path id="SVGID_00000083798762740764042320000015090057996105592510_" d="M30.7,634c0,4-6.8,8.8-12,8.8h-0.7
				c-4.9,0-11.3-4.2-11.3-8.8V50c1.2-5.4,7.4-8.5,11.6-8.5l0,0c4.9,0,11.2,3.2,12.5,8.7L30.7,634L30.7,634z"/>
		</defs>
		<clipPath id="SVGID_00000140732744847925830160000015728350234767236493_">
			<use xlink:href="#SVGID_00000083798762740764042320000015090057996105592510_"  style="overflow:visible;"/>
		</clipPath>
		
			<rect x="-17.4" y="91.6" style="clip-path:url(#SVGID_00000140732744847925830160000015728350234767236493_);fill:#F07526;" width="87.5" height="52.6"/>
	</g>
	<g>
		<defs>
			<path id="SVGID_00000165949924855706279010000011125959221094507452_" d="M30.7,634c0,4-6.8,8.8-12,8.8h-0.7
				c-4.9,0-11.3-4.2-11.3-8.8V50c1.2-5.4,7.4-8.5,11.6-8.5l0,0c4.9,0,11.2,3.2,12.5,8.7L30.7,634L30.7,634z"/>
		</defs>
		<clipPath id="SVGID_00000116232617663083682880000000288406261479853196_">
			<use xlink:href="#SVGID_00000165949924855706279010000011125959221094507452_"  style="overflow:visible;"/>
		</clipPath>
		
			<rect x="-17.4" y="144.2" style="clip-path:url(#SVGID_00000116232617663083682880000000288406261479853196_);fill:#FCFC1C;" width="87.5" height="52.6"/>
	</g>
	<g>
		<defs>
			<path id="SVGID_00000182495402660844829670000001220715831251563704_" d="M30.7,634c0,4-6.8,8.8-12,8.8h-0.7
				c-4.9,0-11.3-4.2-11.3-8.8V50c1.2-5.4,7.4-8.5,11.6-8.5l0,0c4.9,0,11.2,3.2,12.5,8.7L30.7,634L30.7,634z"/>
		</defs>
		<clipPath id="SVGID_00000034091842013905750620000006124692060341679777_">
			<use xlink:href="#SVGID_00000182495402660844829670000001220715831251563704_"  style="overflow:visible;"/>
		</clipPath>
		
			<rect x="-17.4" y="196.9" style="clip-path:url(#SVGID_00000034091842013905750620000006124692060341679777_);fill:#C8E636;" width="87.5" height="52.6"/>
	</g>
	<g>
		<defs>
			<path id="SVGID_00000080896706697230401330000002866151603543099053_" d="M30.7,634c0,4-6.8,8.8-12,8.8h-0.7
				c-4.9,0-11.3-4.2-11.3-8.8V50c1.2-5.4,7.4-8.5,11.6-8.5l0,0c4.9,0,11.2,3.2,12.5,8.7L30.7,634L30.7,634z"/>
		</defs>
		<clipPath id="SVGID_00000037675268811571008610000015410512908224828564_">
			<use xlink:href="#SVGID_00000080896706697230401330000002866151603543099053_"  style="overflow:visible;"/>
		</clipPath>
		
			<rect x="-17.4" y="249.5" style="clip-path:url(#SVGID_00000037675268811571008610000015410512908224828564_);fill:#7ECB47;" width="87.5" height="52.6"/>
	</g>
	<g>
		<defs>
			<path id="SVGID_00000130643392729918608840000013445233067140409021_" d="M30.7,634c0,4-6.8,8.8-12,8.8h-0.7
				c-4.9,0-11.3-4.2-11.3-8.8V50c1.2-5.4,7.4-8.5,11.6-8.5l0,0c4.9,0,11.2,3.2,12.5,8.7L30.7,634L30.7,634z"/>
		</defs>
		<clipPath id="SVGID_00000079451503297082420230000007457911067642578359_">
			<use xlink:href="#SVGID_00000130643392729918608840000013445233067140409021_"  style="overflow:visible;"/>
		</clipPath>
		
			<rect x="-17.4" y="301.4" style="clip-path:url(#SVGID_00000079451503297082420230000007457911067642578359_);fill:#5DC24B;" width="87.5" height="52.6"/>
	</g>
	<g>
		<defs>
			<path id="SVGID_00000052103163669007825730000017886715055960251302_" d="M30.7,634c0,4-6.8,8.8-12,8.8h-0.7
				c-4.9,0-11.3-4.2-11.3-8.8V50c1.2-5.4,7.4-8.5,11.6-8.5l0,0c4.9,0,11.2,3.2,12.5,8.7L30.7,634L30.7,634z"/>
		</defs>
		<clipPath id="SVGID_00000133497325336687687140000007615759844241834937_">
			<use xlink:href="#SVGID_00000052103163669007825730000017886715055960251302_"  style="overflow:visible;"/>
		</clipPath>
		
			<rect x="-17.4" y="354" style="clip-path:url(#SVGID_00000133497325336687687140000007615759844241834937_);fill:#95D4C0;" width="87.5" height="52.6"/>
	</g>
	<g>
		<defs>
			<path id="SVGID_00000181782560301342425790000014754927945670888326_" d="M30.7,634c0,4-6.8,8.8-12,8.8h-0.7
				c-4.9,0-11.3-4.2-11.3-8.8V50c1.2-5.4,7.4-8.5,11.6-8.5l0,0c4.9,0,11.2,3.2,12.5,8.7L30.7,634L30.7,634z"/>
		</defs>
		<clipPath id="SVGID_00000069376732515383389490000013317390351917654150_">
			<use xlink:href="#SVGID_00000181782560301342425790000014754927945670888326_"  style="overflow:visible;"/>
		</clipPath>
		
			<rect x="-17.4" y="406.6" style="clip-path:url(#SVGID_00000069376732515383389490000013317390351917654150_);fill:#6FC8DC;" width="87.5" height="52.6"/>
	</g>
	<g>
		<defs>
			<path id="SVGID_00000106121239597765369710000018121600292205126279_" d="M30.7,634c0,4-6.8,8.8-12,8.8h-0.7
				c-4.9,0-11.3-4.2-11.3-8.8V50c1.2-5.4,7.4-8.5,11.6-8.5l0,0c4.9,0,11.2,3.2,12.5,8.7L30.7,634L30.7,634z"/>
		</defs>
		<clipPath id="SVGID_00000124131386939057928130000016522106561337469077_">
			<use xlink:href="#SVGID_00000106121239597765369710000018121600292205126279_"  style="overflow:visible;"/>
		</clipPath>
		
			<rect x="-17.4" y="459.2" style="clip-path:url(#SVGID_00000124131386939057928130000016522106561337469077_);fill:#4880CA;" width="87.5" height="52.6"/>
	</g>
	<g>
		<defs>
			<path id="SVGID_00000113352455856232638550000000595571314126925459_" d="M30.7,634c0,4-6.8,8.8-12,8.8h-0.7
				c-4.9,0-11.3-4.2-11.3-8.8V50c1.2-5.4,7.4-8.5,11.6-8.5l0,0c4.9,0,11.2,3.2,12.5,8.7L30.7,634L30.7,634z"/>
		</defs>
		<clipPath id="SVGID_00000171701655111469586720000017834258405411681466_">
			<use xlink:href="#SVGID_00000113352455856232638550000000595571314126925459_"  style="overflow:visible;"/>
		</clipPath>
		
			<rect x="-17.4" y="511.8" style="clip-path:url(#SVGID_00000171701655111469586720000017834258405411681466_);fill:#3F57AF;" width="87.5" height="52.6"/>
	</g>
	<g>
		<defs>
			<path id="SVGID_00000022520224581245959960000010594487476277594045_" d="M30.7,634c0,4-6.8,8.8-12,8.8h-0.7
				c-4.9,0-11.3-4.2-11.3-8.8V50c1.2-5.4,7.4-8.5,11.6-8.5l0,0c4.9,0,11.2,3.2,12.5,8.7L30.7,634L30.7,634z"/>
		</defs>
		<clipPath id="SVGID_00000008846207047110278570000011636168386334397061_">
			<use xlink:href="#SVGID_00000022520224581245959960000010594487476277594045_"  style="overflow:visible;"/>
		</clipPath>
		
			<rect x="-17.4" y="564.4" style="clip-path:url(#SVGID_00000008846207047110278570000011636168386334397061_);fill:#FFFFFF;" width="87.5" height="71.7"/>
	</g>
</g>
<path class="st41" d="M30.7,632c-0.4,3.7-6.4,8.1-11.7,8.1l0,0c-5.2,0.4-12.4-3.6-12.4-8.1V49c1.2-5.4,7.4-8.4,11.6-8.4l0,0
	c4.9,0,11.2,3.2,12.5,8.6L30.7,632L30.7,632z"/>
<g>
	<path class="st54" d="M13.9,624.6c-0.4-0.5-0.6-1.1-0.6-1.8c0-0.7,0.2-1.3,0.6-1.8c0.4-0.5,1-0.7,1.6-0.7s1.2,0.2,1.7,0.7
		c0.4,0.5,0.6,1.1,0.6,1.8c0,0.8-0.2,1.4-0.6,1.8s-1,0.7-1.7,0.7C14.9,625.3,14.3,625.1,13.9,624.6z M16.4,624
		c0.2-0.3,0.3-0.7,0.3-1.2s-0.1-0.9-0.3-1.2s-0.5-0.4-0.9-0.4c-0.4,0-0.6,0.1-0.9,0.4s-0.3,0.7-0.3,1.2s0.1,0.9,0.3,1.2
		c0.2,0.3,0.5,0.4,0.9,0.4C15.9,624.4,16.2,624.3,16.4,624z M21.3,620.4h1.3l-6.5,9.1h-1.3L21.3,620.4z M20.1,628.9
		c-0.4-0.5-0.6-1.1-0.6-1.8s0.2-1.3,0.6-1.8c0.4-0.5,1-0.7,1.6-0.7s1.2,0.2,1.7,0.7c0.4,0.5,0.6,1.1,0.6,1.8c0,0.7-0.2,1.3-0.6,1.8
		c-0.4,0.5-1,0.7-1.7,0.7S20.6,629.4,20.1,628.9z M22.7,628.3c0.2-0.3,0.3-0.7,0.3-1.2s-0.1-0.9-0.3-1.2c-0.2-0.3-0.5-0.4-0.9-0.4
		c-0.4,0-0.6,0.1-0.9,0.4c-0.2,0.3-0.3,0.7-0.3,1.2s0.1,0.9,0.3,1.2c0.2,0.3,0.5,0.4,0.9,0.4S22.4,628.6,22.7,628.3z"/>
</g>
<g>
	<g>
		<path class="st55" d="M21.6,590.2v1.2h-5.8v-1l3.1-3c0.4-0.3,0.6-0.6,0.7-0.9c0.1-0.3,0.2-0.5,0.2-0.7c0-0.4-0.1-0.6-0.4-0.8
			c-0.2-0.2-0.6-0.3-1.1-0.3c-0.8,0-1.4,0.3-1.8,0.8l-1-0.8c0.3-0.4,0.7-0.7,1.2-1s1.1-0.3,1.8-0.3c0.9,0,1.5,0.2,2.1,0.6
			c0.5,0.4,0.8,1,0.8,1.7c0,0.4-0.1,0.8-0.3,1.2s-0.5,0.8-1,1.3l-2.1,2L21.6,590.2L21.6,590.2z"/>
	</g>
</g>
<g>
	<g>
		<path class="st56" d="M16.3,534.5v7.9h-1.5v-6.6h-1.7v-1.2L16.3,534.5L16.3,534.5z"/>
		<path class="st56" d="M19.4,542c-0.5-0.3-0.9-0.8-1.2-1.4c-0.3-0.6-0.4-1.3-0.4-2.2s0.1-1.6,0.4-2.2c0.3-0.6,0.7-1.1,1.2-1.4
			s1.1-0.5,1.7-0.5s1.2,0.2,1.7,0.5s0.9,0.8,1.2,1.4c0.3,0.6,0.4,1.3,0.4,2.2s-0.1,1.6-0.4,2.2c-0.3,0.6-0.7,1.1-1.2,1.4
			s-1.1,0.5-1.7,0.5C20.5,542.4,19.9,542.3,19.4,542z M22.5,540.5c0.3-0.5,0.5-1.2,0.5-2.1c0-0.9-0.2-1.6-0.5-2.1s-0.8-0.7-1.3-0.7
			c-0.6,0-1,0.2-1.3,0.7s-0.5,1.2-0.5,2.1c0,0.9,0.2,1.6,0.5,2.1s0.8,0.7,1.3,0.7S22.1,540.9,22.5,540.5z"/>
	</g>
</g>
<g>
	<path class="st56" d="M12.3,62.8v7.7h-1.4V64H9.3v-1.2H12.3z"/>
	<path class="st56" d="M15.4,70.1c-0.5-0.3-0.9-0.8-1.1-1.4c-0.3-0.6-0.4-1.3-0.4-2.1s0.1-1.5,0.4-2.1c0.3-0.6,0.7-1.1,1.1-1.4
		c0.5-0.3,1-0.5,1.7-0.5c0.6,0,1.2,0.2,1.7,0.5s0.9,0.8,1.1,1.4c0.2,0.6,0.4,1.3,0.4,2.1s-0.1,1.5-0.4,2.1s-0.7,1.1-1.1,1.4
		c-0.5,0.3-1,0.5-1.7,0.5S15.9,70.5,15.4,70.1z M18.4,68.7c0.3-0.5,0.5-1.1,0.5-2s-0.2-1.6-0.5-2c-0.3-0.5-0.8-0.7-1.3-0.7
		s-1,0.2-1.3,0.7s-0.5,1.1-0.5,2s0.2,1.6,0.5,2c0.3,0.5,0.8,0.7,1.3,0.7C17.6,69.4,18,69.1,18.4,68.7z"/>
	<path class="st56" d="M26.1,66.4c0.5,0.4,0.8,1,0.8,1.7c0,0.5-0.1,0.9-0.3,1.3c-0.2,0.4-0.6,0.7-1,0.9c-0.5,0.2-1,0.3-1.7,0.3
		c-0.5,0-1.1-0.1-1.6-0.2c-0.5-0.2-0.9-0.4-1.3-0.7l0.6-1.1c0.3,0.2,0.6,0.4,1,0.6s0.8,0.2,1.2,0.2c0.5,0,0.9-0.1,1.2-0.3
		c0.3-0.2,0.4-0.5,0.4-0.9s-0.2-0.7-0.5-0.9c-0.3-0.2-0.8-0.3-1.6-0.3h-1.9l0.4-4.2h4.5V64H23l-0.2,1.8h0.7
		C24.8,65.7,25.6,65.9,26.1,66.4z"/>
</g>
<g>
	<g>
		<path class="st56" d="M17.1,116.1c0.6,0.7,0.9,1.6,0.9,2.8c0,0.9-0.2,1.6-0.5,2.2c-0.3,0.6-0.8,1.1-1.3,1.4
			c-0.6,0.3-1.2,0.5-2,0.5c-0.4,0-0.8,0-1.1-0.1s-0.7-0.2-0.9-0.4l0.5-1.1c0.4,0.2,0.9,0.4,1.5,0.4c0.7,0,1.3-0.2,1.7-0.7
			c0.4-0.5,0.6-1.1,0.6-2l0,0c-0.2,0.3-0.5,0.5-0.9,0.6s-0.7,0.2-1.2,0.2s-1-0.1-1.4-0.3s-0.7-0.5-0.9-0.8c-0.2-0.4-0.3-0.8-0.3-1.2
			c0-0.5,0.1-0.9,0.4-1.3c0.2-0.4,0.6-0.7,1-0.9s0.9-0.3,1.4-0.3C15.7,115.1,16.5,115.5,17.1,116.1z M15.9,118.5
			c0.3-0.2,0.4-0.6,0.4-0.9c0-0.4-0.1-0.7-0.4-0.9s-0.7-0.4-1.2-0.4c-0.4,0-0.8,0.1-1.1,0.4c-0.3,0.2-0.4,0.6-0.4,1s0.1,0.7,0.4,1
			c0.3,0.2,0.7,0.4,1.1,0.4C15.2,118.9,15.6,118.7,15.9,118.5z"/>
		<path class="st56" d="M20.5,122.6c-0.5-0.3-0.9-0.8-1.1-1.4c-0.3-0.6-0.4-1.3-0.4-2.1s0.1-1.5,0.4-2.1s0.7-1.1,1.1-1.4
			c0.5-0.3,1-0.5,1.7-0.5c0.6,0,1.2,0.2,1.7,0.5s0.9,0.8,1.1,1.4s0.4,1.3,0.4,2.1s-0.1,1.5-0.4,2.1s-0.7,1.1-1.1,1.4
			c-0.5,0.3-1,0.5-1.7,0.5C21.5,123,21,122.9,20.5,122.6z M23.5,121.1c0.3-0.5,0.5-1.1,0.5-2s-0.2-1.6-0.5-2
			c-0.3-0.5-0.8-0.7-1.3-0.7s-1,0.2-1.3,0.7s-0.5,1.1-0.5,2s0.2,1.6,0.5,2c0.3,0.5,0.8,0.7,1.3,0.7
			C22.7,121.8,23.1,121.6,23.5,121.1z"/>
	</g>
</g>
<g>
	<g>
		<path class="st55" d="M17.4,171.9c0.2,0.3,0.3,0.7,0.3,1.1c0,0.5-0.1,0.9-0.4,1.2c-0.3,0.4-0.6,0.6-1.1,0.8
			c-0.5,0.2-1,0.3-1.7,0.3s-1.2-0.1-1.7-0.3s-0.8-0.5-1.1-0.8s-0.4-0.8-0.4-1.2s0.1-0.8,0.3-1.1s0.5-0.6,0.9-0.7
			c-0.3-0.2-0.5-0.4-0.7-0.7s-0.2-0.6-0.2-1s0.1-0.8,0.4-1.1s0.6-0.6,1-0.7c0.4-0.2,0.9-0.3,1.5-0.3s1.1,0.1,1.5,0.3
			c0.4,0.2,0.8,0.4,1,0.7s0.4,0.7,0.4,1.1c0,0.4-0.1,0.7-0.3,0.9c-0.2,0.3-0.4,0.5-0.7,0.7C16.9,171.3,17.2,171.5,17.4,171.9z
			 M15.8,173.8c0.3-0.2,0.5-0.5,0.5-0.9s-0.2-0.7-0.5-0.9c-0.3-0.2-0.7-0.3-1.3-0.3c-0.5,0-0.9,0.1-1.2,0.3s-0.5,0.5-0.5,0.9
			s0.2,0.7,0.5,0.9s0.7,0.3,1.2,0.3C15.1,174.2,15.5,174,15.8,173.8z M13.5,168.8c-0.3,0.2-0.4,0.5-0.4,0.8s0.1,0.6,0.4,0.8
			c0.3,0.2,0.6,0.3,1.1,0.3s0.8-0.1,1.1-0.3c0.3-0.2,0.4-0.5,0.4-0.8s-0.1-0.6-0.4-0.8c-0.3-0.2-0.6-0.3-1.1-0.3
			S13.8,168.6,13.5,168.8z"/>
		<path class="st55" d="M20.2,174.8c-0.5-0.3-0.9-0.8-1.1-1.4c-0.3-0.6-0.4-1.3-0.4-2.1s0.1-1.5,0.4-2.1s0.7-1.1,1.1-1.4
			c0.5-0.3,1-0.5,1.7-0.5c0.6,0,1.2,0.2,1.7,0.5s0.9,0.8,1.1,1.4s0.4,1.3,0.4,2.1s-0.1,1.5-0.4,2.1s-0.7,1.1-1.1,1.4
			c-0.5,0.3-1,0.5-1.7,0.5S20.7,175.1,20.2,174.8z M23.2,173.4c0.3-0.5,0.5-1.1,0.5-2s-0.2-1.6-0.5-2c-0.3-0.5-0.8-0.7-1.3-0.7
			s-1,0.2-1.3,0.7s-0.5,1.1-0.5,2s0.2,1.6,0.5,2c0.3,0.5,0.8,0.7,1.3,0.7C22.4,174,22.8,173.8,23.2,173.4z"/>
	</g>
</g>
<g>
	<g>
		<path class="st55" d="M17.9,220.1v1l-3,6.7h-1.5l2.9-6.5h-3v1.3H12v-2.5H17.9z"/>
		<path class="st55" d="M20.1,227.5c-0.5-0.3-0.9-0.8-1.1-1.4c-0.3-0.6-0.4-1.3-0.4-2.1s0.1-1.5,0.4-2.1s0.7-1.1,1.1-1.4
			c0.5-0.3,1-0.5,1.7-0.5c0.6,0,1.2,0.2,1.7,0.5s0.9,0.8,1.1,1.4s0.4,1.3,0.4,2.1s-0.1,1.5-0.4,2.1s-0.7,1.1-1.1,1.4
			c-0.5,0.3-1,0.5-1.7,0.5C21.1,227.9,20.6,227.8,20.1,227.5z M23.1,226c0.3-0.5,0.5-1.1,0.5-2s-0.2-1.6-0.5-2
			c-0.3-0.5-0.8-0.7-1.3-0.7s-1,0.2-1.3,0.7s-0.5,1.1-0.5,2s0.2,1.6,0.5,2c0.3,0.5,0.8,0.7,1.3,0.7C22.3,226.7,22.7,226.5,23.1,226z
			"/>
	</g>
</g>
<g>
	<path class="st55" d="M16.9,276.1c0.4,0.2,0.7,0.5,0.9,0.8s0.3,0.8,0.3,1.2c0,0.5-0.1,0.9-0.4,1.3c-0.2,0.4-0.6,0.7-1,0.9
		c-0.4,0.2-0.9,0.3-1.4,0.3c-1.1,0-1.9-0.3-2.5-1s-0.9-1.6-0.9-2.8c0-0.9,0.2-1.6,0.5-2.2s0.8-1.1,1.3-1.4c0.6-0.3,1.2-0.5,2-0.5
		c0.4,0,0.8,0,1.1,0.1s0.7,0.2,0.9,0.4l-0.5,1.1c-0.4-0.2-0.9-0.4-1.5-0.4c-0.7,0-1.3,0.2-1.7,0.7s-0.6,1.1-0.6,2l0,0
		c0.2-0.3,0.5-0.5,0.9-0.6s0.7-0.2,1.2-0.2C16.1,275.8,16.5,275.9,16.9,276.1z M16.4,279.2c0.3-0.2,0.4-0.6,0.4-1s-0.1-0.7-0.4-1
		c-0.3-0.2-0.7-0.4-1.1-0.4c-0.5,0-0.8,0.1-1.1,0.4c-0.3,0.2-0.4,0.6-0.4,0.9c0,0.4,0.1,0.7,0.4,0.9c0.3,0.2,0.7,0.4,1.2,0.4
		C15.8,279.6,16.1,279.5,16.4,279.2z"/>
	<path class="st55" d="M20.5,280.2c-0.5-0.3-0.9-0.8-1.1-1.4c-0.3-0.6-0.4-1.3-0.4-2.1s0.1-1.5,0.4-2.1s0.7-1.1,1.1-1.4
		s1-0.5,1.7-0.5c0.6,0,1.2,0.2,1.7,0.5s0.9,0.8,1.1,1.4s0.4,1.3,0.4,2.1s-0.1,1.5-0.4,2.1s-0.7,1.1-1.1,1.4c-0.5,0.3-1,0.5-1.7,0.5
		C21.6,280.7,21,280.5,20.5,280.2z M23.5,278.8c0.3-0.5,0.5-1.1,0.5-2s-0.2-1.6-0.5-2c-0.3-0.5-0.8-0.7-1.3-0.7s-1,0.2-1.3,0.7
		s-0.5,1.1-0.5,2s0.2,1.6,0.5,2c0.3,0.5,0.8,0.7,1.3,0.7C22.7,279.5,23.2,279.2,23.5,278.8z"/>
</g>
<g>
	<path class="st55" d="M17.1,327.3c0.5,0.4,0.8,1,0.8,1.7c0,0.5-0.1,0.9-0.3,1.3c-0.2,0.4-0.6,0.7-1,0.9c-0.5,0.2-1,0.3-1.7,0.3
		c-0.5,0-1.1-0.1-1.6-0.2c-0.5-0.2-0.9-0.4-1.3-0.7l0.6-1.1c0.3,0.2,0.6,0.4,1,0.6s0.8,0.2,1.2,0.2c0.5,0,0.9-0.1,1.2-0.3
		c0.3-0.2,0.4-0.5,0.4-0.9s-0.2-0.7-0.5-0.9c-0.3-0.2-0.8-0.3-1.6-0.3h-1.9l0.4-4.2h4.5v1.2H14l-0.2,1.8h0.7
		C15.8,326.6,16.6,326.8,17.1,327.3z"/>
	<path class="st55" d="M20.3,331c-0.5-0.3-0.9-0.8-1.1-1.4c-0.3-0.6-0.4-1.3-0.4-2.1s0.1-1.5,0.4-2.1s0.7-1.1,1.1-1.4
		c0.5-0.3,1-0.5,1.7-0.5c0.6,0,1.2,0.2,1.7,0.5s0.9,0.8,1.1,1.4s0.4,1.3,0.4,2.1s-0.1,1.5-0.4,2.1s-0.7,1.1-1.1,1.4
		c-0.5,0.3-1,0.5-1.7,0.5S20.8,331.3,20.3,331z M23.2,329.5c0.3-0.5,0.5-1.1,0.5-2s-0.2-1.6-0.5-2c-0.3-0.5-0.8-0.7-1.3-0.7
		s-1,0.2-1.3,0.7s-0.5,1.1-0.5,2s0.2,1.6,0.5,2c0.3,0.5,0.8,0.7,1.3,0.7C22.5,330.2,22.9,330,23.2,329.5z"/>
</g>
<g>
	<g>
		<path class="st56" d="M17.6,433.4c0.4,0.4,0.6,0.9,0.6,1.5c0,0.4-0.1,0.9-0.3,1.2c-0.2,0.4-0.6,0.7-1,0.9c-0.5,0.2-1,0.3-1.7,0.3
			c-0.6,0-1.1-0.1-1.6-0.2c-0.5-0.2-0.9-0.4-1.3-0.7l0.6-1.1c0.3,0.2,0.6,0.4,1,0.6s0.8,0.2,1.2,0.2c0.5,0,0.9-0.1,1.2-0.3
			c0.3-0.2,0.4-0.5,0.4-0.9s-0.1-0.6-0.4-0.8c-0.3-0.2-0.7-0.3-1.3-0.3h-0.7v-1l1.7-2.1h-3.5v-1.2h5.2v1l-1.9,2.2
			C16.7,432.8,17.2,433,17.6,433.4z"/>
		<path class="st56" d="M20.7,436.9c-0.5-0.3-0.9-0.8-1.1-1.4c-0.3-0.6-0.4-1.3-0.4-2.1s0.1-1.5,0.4-2.1s0.7-1.1,1.1-1.4
			s1-0.5,1.7-0.5c0.6,0,1.2,0.2,1.7,0.5s0.9,0.8,1.1,1.4s0.4,1.3,0.4,2.1s-0.1,1.5-0.4,2.1s-0.7,1.1-1.1,1.4c-0.5,0.3-1,0.5-1.7,0.5
			C21.7,437.3,21.2,437.2,20.7,436.9z M23.6,435.4c0.3-0.5,0.5-1.1,0.5-2s-0.2-1.6-0.5-2c-0.3-0.5-0.8-0.7-1.3-0.7s-1,0.2-1.3,0.7
			s-0.5,1.1-0.5,2s0.2,1.6,0.5,2c0.3,0.5,0.8,0.7,1.3,0.7C22.9,436.1,23.3,435.9,23.6,435.4z"/>
	</g>
</g>
<g>
	<path class="st56" d="M17.7,488.4v1.2H12v-1l3.1-2.9c0.3-0.3,0.6-0.6,0.7-0.9c0.1-0.2,0.2-0.5,0.2-0.7c0-0.4-0.1-0.6-0.4-0.8
		c-0.2-0.2-0.6-0.3-1.1-0.3c-0.8,0-1.4,0.3-1.8,0.8l-1-0.8c0.3-0.4,0.7-0.7,1.2-0.9s1.1-0.3,1.7-0.3c0.8,0,1.5,0.2,2,0.6
		c0.5,0.4,0.7,0.9,0.7,1.6c0,0.4-0.1,0.8-0.3,1.2c-0.2,0.4-0.5,0.8-1,1.3l-2.1,2L17.7,488.4L17.7,488.4z"/>
	<path class="st56" d="M20.1,489.3c-0.5-0.3-0.9-0.8-1.1-1.4c-0.3-0.6-0.4-1.3-0.4-2.1s0.1-1.5,0.4-2.1s0.7-1.1,1.1-1.4
		c0.5-0.3,1-0.5,1.7-0.5c0.6,0,1.2,0.2,1.7,0.5s0.9,0.8,1.1,1.4s0.4,1.3,0.4,2.1s-0.1,1.5-0.4,2.1s-0.7,1.1-1.1,1.4
		c-0.5,0.3-1,0.5-1.7,0.5C21.1,489.7,20.5,489.6,20.1,489.3z M23,487.8c0.3-0.5,0.5-1.1,0.5-2s-0.2-1.6-0.5-2
		c-0.3-0.5-0.8-0.7-1.3-0.7s-1,0.2-1.3,0.7s-0.5,1.1-0.5,2s0.2,1.6,0.5,2c0.3,0.5,0.8,0.7,1.3,0.7C22.3,488.5,22.7,488.3,23,487.8z"
		/>
</g>
<g>
	<path class="st55" d="M18.5,381.7h-1.4v1.7h-1.4v-1.7h-4.2v-1l3.8-5h1.5l-3.6,4.7h2.5v-1.6H17v1.6h1.4v1.3H18.5z"/>
	<path class="st55" d="M20.7,383.1c-0.5-0.3-0.9-0.8-1.1-1.4c-0.3-0.6-0.4-1.3-0.4-2.1s0.1-1.5,0.4-2.1s0.7-1.1,1.1-1.4
		s1-0.5,1.7-0.5c0.6,0,1.2,0.2,1.7,0.5s0.9,0.8,1.1,1.4s0.4,1.3,0.4,2.1s-0.1,1.5-0.4,2.1s-0.7,1.1-1.1,1.4c-0.5,0.3-1,0.5-1.7,0.5
		S21.2,383.4,20.7,383.1z M23.7,381.7c0.3-0.5,0.5-1.1,0.5-2s-0.2-1.6-0.5-2c-0.3-0.5-0.8-0.7-1.3-0.7s-1,0.2-1.3,0.7
		s-0.5,1.1-0.5,2s0.2,1.6,0.5,2c0.3,0.5,0.8,0.7,1.3,0.7S23.3,382.1,23.7,381.7z"/>
</g>
<g>
	<g>
		<path id="SVGID_1_" class="st56" d="M22,10.7"/>
	</g>
	<g>
		<path id="SVGID_2_" class="st56" d="M6,19.1c0,0.6,0.4,1,1,1.3c0.6,0.3,1.4,0.4,2.1,0.4c0.7,0,1.3-0.2,1.9-0.5
			c0.5-0.3,1-0.7,1.3-1.2c0.3,0.5,0.7,0.9,1.3,1.2c0.5,0.3,1.2,0.5,1.9,0.5c0.7,0,1.3-0.2,1.9-0.5c0.5-0.3,1-0.7,1.3-1.2
			c0.3,0.5,0.7,0.9,1.3,1.2c0.5,0.3,1.2,0.5,1.9,0.5c0.7,0,1.3-0.2,1.9-0.5s1-0.7,1.3-1.2c0.3,0.5,0.7,0.9,1.3,1.2
			c0.5,0.3,1.2,0.5,1.9,0.5c0.7,0,1.3-0.2,1.9-0.5s1-0.7,1.3-1.2v7H6C6,19.1,6,19.1,6,19.1z"/>
	</g>
	<g>
		<path class="st57" d="M22,10.7"/>
	</g>
	<g>
		<g>
			<g>
				<defs>
					<path id="SVGID_00000008835867624706424060000011332297505329020575_" d="M6,19.1c0,0.6,0.4,1,1,1.3c0.6,0.3,1.4,0.4,2.1,0.4
						c0.7,0,1.3-0.2,1.9-0.5c0.5-0.3,1-0.7,1.3-1.2c0.3,0.5,0.7,0.9,1.3,1.2c0.5,0.3,1.2,0.5,1.9,0.5c0.7,0,1.3-0.2,1.9-0.5
						c0.5-0.3,1-0.7,1.3-1.2c0.3,0.5,0.7,0.9,1.3,1.2c0.5,0.3,1.2,0.5,1.9,0.5c0.7,0,1.3-0.2,1.9-0.5s1-0.7,1.3-1.2
						c0.3,0.5,0.7,0.9,1.3,1.2c0.5,0.3,1.2,0.5,1.9,0.5c0.7,0,1.3-0.2,1.9-0.5s1-0.7,1.3-1.2v7H6C6,19.1,6,19.1,6,19.1z"/>
				</defs>
				<clipPath id="SVGID_00000028314952302487155570000016752496271434854052_">
					<use xlink:href="#SVGID_00000008835867624706424060000011332297505329020575_"  style="overflow:visible;"/>
				</clipPath>
				<path style="clip-path:url(#SVGID_00000028314952302487155570000016752496271434854052_);fill:none;" d="M22,10.7"/>
			</g>
		</g>
		<g>
			<g>
				<defs>
					<path id="SVGID_00000157995025411476605730000016343327943504492209_" d="M6,19.1c0,0.6,0.4,1,1,1.3c0.6,0.3,1.4,0.4,2.1,0.4
						c0.7,0,1.3-0.2,1.9-0.5c0.5-0.3,1-0.7,1.3-1.2c0.3,0.5,0.7,0.9,1.3,1.2c0.5,0.3,1.2,0.5,1.9,0.5c0.7,0,1.3-0.2,1.9-0.5
						c0.5-0.3,1-0.7,1.3-1.2c0.3,0.5,0.7,0.9,1.3,1.2c0.5,0.3,1.2,0.5,1.9,0.5c0.7,0,1.3-0.2,1.9-0.5s1-0.7,1.3-1.2
						c0.3,0.5,0.7,0.9,1.3,1.2c0.5,0.3,1.2,0.5,1.9,0.5c0.7,0,1.3-0.2,1.9-0.5s1-0.7,1.3-1.2v7H6C6,19.1,6,19.1,6,19.1z"/>
				</defs>
				<clipPath id="SVGID_00000016776042406605344200000011592933838489071014_">
					<use xlink:href="#SVGID_00000157995025411476605730000016343327943504492209_"  style="overflow:visible;"/>
				</clipPath>
				<polygon style="clip-path:url(#SVGID_00000016776042406605344200000011592933838489071014_);fill:#FFFFFF;" points="31.1,25.8 
					6,25.7 6,21.5 31.1,21.5 				"/>
			</g>
		</g>
	</g>
</g>
<path class="st60" d="M21.2,10.9l-2.4-2.4c0,0-0.1-0.1-0.2-0.1s-0.1,0-0.2,0.1l-2.4,2.4c0,0-0.1,0.1-0.1,0.2c0,0.1,0.1,0.2,0.2,0.2
	c0.1,0,0.1,0,0.2-0.1l2-2v8c0,0.1,0.1,0.3,0.2,0.3c0.1,0,0.2-0.2,0.2-0.3v-8l2,2c0,0,0.1,0.1,0.2,0.1c0.1,0,0.2-0.1,0.2-0.2
	C21.3,11,21.2,10.9,21.2,10.9"/>
<g>
	<path class="st56" d="M17.2,28c0.4,0.1,0.6,0.4,0.8,0.6c0.2,0.3,0.3,0.6,0.3,1c0,0.4-0.1,0.7-0.3,1c-0.2,0.3-0.5,0.5-0.8,0.6
		c-0.4,0.1-0.8,0.2-1.2,0.2h-1.2v1.5h-1v-5.2H16C16.5,27.7,16.9,27.8,17.2,28z M16.9,30.4c0.2-0.2,0.3-0.4,0.3-0.8
		c0-0.3-0.1-0.6-0.3-0.8c-0.2-0.2-0.6-0.3-1-0.3h-1.2v2.1h1.2C16.4,30.6,16.7,30.5,16.9,30.4z"/>
	<g>
		<path class="st56" d="M17.2,28c0.4,0.1,0.6,0.4,0.8,0.6c0.2,0.3,0.3,0.6,0.3,1c0,0.4-0.1,0.7-0.3,1c-0.2,0.3-0.5,0.5-0.8,0.6
			c-0.4,0.1-0.8,0.2-1.2,0.2h-1.2v1.5h-1v-5.2H16C16.5,27.7,16.9,27.8,17.2,28z M16.9,30.4c0.2-0.2,0.3-0.4,0.3-0.8
			c0-0.3-0.1-0.6-0.3-0.8c-0.2-0.2-0.6-0.3-1-0.3h-1.2v2.1h1.2C16.4,30.6,16.7,30.5,16.9,30.4z"/>
		<path class="st56" d="M23.2,32.9l-1.1-1.5c0,0-0.1,0-0.2,0h-1.2v1.5h-1v-5.2h2.3c0.5,0,0.9,0.1,1.2,0.2c0.4,0.1,0.6,0.4,0.8,0.6
			c0.2,0.3,0.3,0.6,0.3,1c0,0.4-0.1,0.7-0.3,1c-0.2,0.3-0.5,0.5-0.9,0.6l1.3,1.7L23.2,32.9L23.2,32.9z M22.8,28.8
			c-0.2-0.2-0.6-0.3-1-0.3h-1.2v2.1h1.2c0.4,0,0.8-0.1,1-0.3c0.2-0.2,0.3-0.4,0.3-0.8C23.2,29.3,23.1,29,22.8,28.8z"/>
	</g>
</g>
</svg>
