<?xml version="1.0" encoding="UTF-8"?>
<svg id="Livello_1" data-name="Livello 1" xmlns="http://www.w3.org/2000/svg" xmlns:xlink="http://www.w3.org/1999/xlink"  width="50px" height="677px" viewBox="0 0 48.75 677.16">
  <defs>
    <style>
      .cls-1 {
        stroke-width: 2px;
      }

      .cls-1, .cls-2, .cls-3 {
        fill: none;
      }

      .cls-1, .cls-3 {
        stroke: #3c3430;
        stroke-miterlimit: 9.77;
      }

      .cls-4 {
        fill: #3b3330;
      }

      .cls-4, .cls-5, .cls-6, .cls-7, .cls-2, .cls-8, .cls-9, .cls-10, .cls-11, .cls-12, .cls-13, .cls-14, .cls-15, .cls-16 {
        stroke-width: 0px;
      }

      .cls-5 {
        fill: #ff0;
      }

      .cls-5, .cls-6, .cls-7, .cls-8, .cls-11, .cls-13, .cls-14, .cls-15 {
        isolation: isolate;
        opacity: .88;
      }

      .cls-6 {
        fill: #4bcf4f;
      }

      .cls-7 {
        fill: #e0f4fe;
      }

      .cls-8 {
        fill: violet;
      }

      .cls-9 {
        fill: #fff;
      }

      .cls-10 {
        fill: #39322e;
      }

      .cls-11 {
        fill: #ff00c3;
      }

      .cls-12 {
        fill: #3c3530;
      }

      .cls-13 {
        fill: #8bd8f9;
      }

      .cls-17 {
        clip-path: url(#clippath);
      }

      .cls-14 {
        fill: #7070ff;
      }

      .cls-15 {
        fill: #f33;
      }

      .cls-16 {
        fill: #3c3430;
      }
    </style>
    <clipPath id="clippath">
      <path class="cls-2" d="m43.35,668.98c-.49,3.98-9.51,4.35-18.15,4.35l-5.65-.2c-8.48.42-14.3-2.42-14.3-7.13V53.16c1.79-5.55,6.41-6.02,13.26-6.02l9.48-.18c7.82,0,13.59.78,15.38,6.53l.32,612.68-.33,2.81Z"/>
    </clipPath>
  </defs>
  <g class="cls-17">
    <g>
      <rect class="cls-11" x="-20.83" y="40.61" width="466.32" height="73.14"/>
      <polygon class="cls-8" points="-21.34 186.99 -20.62 112.8 445.7 114.65 444.98 188.84 -21.34 186.99"/>
      <rect class="cls-15" x="-20.83" y="186.99" width="466.32" height="73.14"/>
      <rect class="cls-5" x="-20.83" y="260.23" width="466.32" height="73.24"/>
      <rect class="cls-6" x="-20.83" y="333.37" width="466.32" height="73.14"/>
      <rect class="cls-14" x="-20.83" y="406.75" width="466.32" height="73.14"/>
      <rect class="cls-13" x="-20.83" y="479.76" width="466.32" height="73.24"/>
      <rect class="cls-7" x="-20.83" y="552.9" width="466.32" height="125.25"/>
    </g>
  </g>
  <circle class="cls-10" cx="24.37" cy="23.61" r="19.78"/>
  <rect class="cls-1" x="6.19" y="46.96" width="36.9" height="625.87" rx="6.18" ry="6.18"/>
  <path class="cls-16" d="m25.92,547.78v7.92h-1.66v-6.05l-1.72,1.1-.76-1.24,2.62-1.74h1.51Z"/>
  <g>
    <path class="cls-12" d="m23.85,107.48v1.44h-3.54l-.2,1.72c.5-.19.97-.29,1.42-.29,1.71,0,2.57.8,2.57,2.39,0,.9-.24,1.59-.71,2.08s-1.14.73-2,.73c-.37,0-.79-.04-1.25-.11s-.84-.15-1.12-.23l-.43-.11.18-1.22c.97.15,1.78.23,2.42.23.39,0,.69-.1.9-.31.21-.21.31-.51.31-.89s-.09-.67-.26-.85-.42-.26-.74-.26c-.54,0-1.01.05-1.42.16l-.18.05-.98-.23.22-4.28h4.84Z"/>
    <path class="cls-12" d="m25.75,108.32c.52-.66,1.28-.98,2.3-.98s1.78.33,2.3.98.77,1.71.77,3.16-.26,2.49-.77,3.12-1.28.94-2.3.94-1.79-.31-2.3-.94c-.51-.63-.77-1.67-.77-3.12s.26-2.51.77-3.16Zm3.67,3.13c0-.99-.1-1.68-.31-2.08-.21-.4-.56-.59-1.05-.59s-.84.2-1.06.6c-.21.4-.32,1.09-.32,2.08s.11,1.67.32,2.06.57.59,1.06.59.84-.2,1.04-.59.31-1.08.31-2.07Z"/>
  </g>
  <line class="cls-3" x1="6.63" y1="552.72" x2="19.54" y2="552.72"/>
  <line class="cls-3" x1="42.3" y1="552.72" x2="28.67" y2="552.72"/>
  <line class="cls-3" x1="6.19" y1="113.23" x2="16.97" y2="113.23"/>
  <line class="cls-3" x1="42.02" y1="113.23" x2="31.99" y2="113.23"/>
  <path class="cls-16" d="m27.68,401.46v1.44h-3.54l-.2,1.72c.5-.19.97-.29,1.42-.29,1.71,0,2.57.8,2.57,2.39,0,.9-.24,1.59-.71,2.08-.47.49-1.14.73-2,.73-.37,0-.79-.04-1.25-.11-.47-.07-.84-.15-1.12-.23l-.43-.11.18-1.22c.97.15,1.78.23,2.42.23.39,0,.69-.1.9-.31.21-.21.31-.51.31-.89s-.09-.67-.26-.85-.42-.26-.74-.26c-.54,0-1.01.05-1.42.16l-.18.05-.98-.23.22-4.28h4.84Z"/>
  <line class="cls-3" x1="6.45" y1="406.46" x2="20.32" y2="406.46"/>
  <line class="cls-3" x1="42.84" y1="406.46" x2="29.44" y2="406.46"/>
  <g>
    <path class="cls-16" d="m24.27,263.05h-5.14v-1.4l1.69-1.72c.6-.62,1.02-1.09,1.25-1.42s.35-.68.35-1.05-.1-.63-.29-.79c-.2-.15-.47-.23-.83-.23-.54,0-1.12.05-1.75.14l-.29.04-.08-1.28c.78-.24,1.6-.36,2.44-.36,1.68,0,2.52.76,2.52,2.27,0,.59-.13,1.1-.38,1.54-.26.43-.72.96-1.39,1.57l-1.38,1.25h3.29v1.44Z"/>
    <path class="cls-16" d="m26.14,255.97c.52-.66,1.28-.98,2.3-.98s1.78.33,2.3.98c.52.66.77,1.71.77,3.16s-.26,2.49-.77,3.12c-.51.63-1.28.94-2.3.94s-1.79-.31-2.3-.94-.77-1.67-.77-3.12.26-2.51.77-3.16Zm3.67,3.13c0-.99-.1-1.68-.31-2.08-.21-.4-.56-.59-1.05-.59s-.84.2-1.06.6c-.21.4-.32,1.09-.32,2.08s.11,1.67.32,2.06c.22.39.57.59,1.06.59s.84-.2,1.04-.59.31-1.08.31-2.07Z"/>
  </g>
  <line class="cls-3" x1="6.69" y1="259.95" x2="19.04" y2="259.95"/>
  <line class="cls-3" x1="43.08" y1="259.95" x2="32.49" y2="259.95"/>
  <g>
    <path class="cls-16" d="m18.91,182.74c.74-.29,1.56-.43,2.47-.43s1.57.17,1.99.52.62.91.62,1.67-.31,1.36-.92,1.76c.38.21.66.42.82.65s.25.58.25,1.07c0,.86-.21,1.49-.64,1.91-.43.42-1.11.62-2.06.62-.7,0-1.43-.1-2.2-.31l-.38-.1.08-1.26c.9.15,1.65.23,2.26.23.82,0,1.24-.35,1.24-1.06,0-.3-.11-.53-.32-.71-.21-.18-.49-.26-.83-.26h-1.6v-1.37h1.6c.26,0,.5-.11.7-.34.2-.22.31-.47.31-.74,0-.57-.4-.85-1.19-.85-.55,0-1.14.06-1.76.17l-.31.05-.11-1.22Z"/>
    <path class="cls-16" d="m25.95,183.29c.52-.66,1.28-.98,2.3-.98s1.78.33,2.3.98.77,1.71.77,3.16-.26,2.49-.77,3.12-1.28.94-2.3.94-1.79-.31-2.3-.94c-.51-.63-.77-1.67-.77-3.12s.26-2.51.77-3.16Zm3.67,3.13c0-.99-.1-1.68-.31-2.08-.21-.4-.56-.59-1.05-.59s-.84.2-1.06.6c-.21.4-.32,1.09-.32,2.08s.11,1.67.32,2.06.57.59,1.06.59.84-.2,1.04-.59.31-1.08.31-2.07Z"/>
  </g>
  <line class="cls-3" x1="6.5" y1="187.27" x2="18.85" y2="187.27"/>
  <line class="cls-3" x1="42.89" y1="187.27" x2="32.3" y2="187.27"/>
  <g>
    <path class="cls-4" d="m16.84,668.98h-.9v-6h.89v.42c.6-.36,1.18-.54,1.75-.54.74,0,1.26.2,1.56.61.26-.16.61-.3,1.03-.43s.79-.19,1.11-.19c.8,0,1.34.21,1.61.64.28.43.41,1.2.41,2.31v3.17h-.9v-3.14c0-.83-.08-1.4-.24-1.71-.16-.31-.5-.46-1.02-.46-.26,0-.54.04-.82.11s-.5.15-.65.22l-.23.11c.1.26.16.85.16,1.75v3.12h-.9v-3.1c0-.86-.08-1.45-.23-1.76-.16-.31-.5-.46-1.03-.46-.26,0-.52.04-.79.11-.27.08-.47.15-.62.22l-.2.11v4.87Z"/>
    <path class="cls-4" d="m25.49,668.86l3.38-8.38.8.3-3.38,8.36-.8-.29Z"/>
    <path class="cls-4" d="m32.49,663.66c-.87,0-1.31.3-1.31.91,0,.28.1.48.3.59.2.12.66.24,1.37.36s1.22.3,1.51.52c.3.22.44.64.44,1.26s-.2,1.07-.59,1.36c-.4.29-.97.43-1.73.43-.5,0-1.08-.06-1.75-.17l-.36-.06.05-.78c.91.14,1.6.2,2.06.2s.82-.07,1.06-.22c.24-.15.37-.4.37-.74s-.1-.58-.31-.71c-.21-.12-.66-.24-1.37-.35s-1.2-.28-1.5-.49-.44-.62-.44-1.2.21-1.02.62-1.3c.41-.28.93-.42,1.54-.42.49,0,1.1.06,1.84.17l.34.06-.02.77c-.89-.13-1.59-.19-2.1-.19Z"/>
  </g>
  <g>
    <path class="cls-4" d="m22.77,327.82v7.92h-1.66v-6.05l-1.72,1.1-.76-1.24,2.62-1.74h1.51Z"/>
    <path class="cls-4" d="m25.53,328.66c.52-.66,1.28-.98,2.3-.98s1.78.33,2.3.98c.52.66.77,1.71.77,3.16s-.26,2.49-.77,3.12c-.51.63-1.28.94-2.3.94s-1.79-.31-2.3-.94-.77-1.67-.77-3.12.26-2.51.77-3.16Zm3.67,3.13c0-.99-.1-1.68-.31-2.08-.21-.4-.56-.59-1.05-.59s-.84.2-1.06.6c-.21.4-.32,1.09-.32,2.08s.11,1.67.32,2.06c.22.39.57.59,1.06.59s.84-.2,1.04-.59.31-1.08.31-2.07Z"/>
  </g>
  <line class="cls-3" x1="6.08" y1="332.63" x2="18.43" y2="332.63"/>
  <line class="cls-3" x1="42.47" y1="332.63" x2="31.88" y2="332.63"/>
  <path class="cls-16" d="m27.05,482.8h-5.14v-1.4l1.69-1.72c.6-.62,1.02-1.09,1.25-1.42s.35-.68.35-1.05-.1-.63-.29-.79c-.2-.15-.47-.23-.83-.23-.54,0-1.12.05-1.75.14l-.29.04-.08-1.28c.78-.24,1.6-.36,2.44-.36,1.68,0,2.52.76,2.52,2.27,0,.59-.13,1.1-.38,1.54-.26.43-.72.96-1.39,1.57l-1.38,1.25h3.29v1.44Z"/>
  <line class="cls-3" x1="5.78" y1="479.89" x2="19.65" y2="479.89"/>
  <line class="cls-3" x1="42.17" y1="479.89" x2="28.78" y2="479.89"/>
  <path class="cls-9" d="m27.26,16.79c1.06-.61,2.59.15,2.59,1.37,0,.91-.76,1.67-1.67,1.67H8.71c-1.06,0-1.37.61-1.37,1.37,0,.61.3,1.37,1.37,1.37h19.47c2.43,0,4.26-1.98,4.26-4.26,0-3.35-3.65-5.47-6.54-3.65-.3.15-.76.46-1.06.61-1.22.76-.61,2.43.61,2.43.3,0,.46,0,.76-.15.3-.3.76-.46,1.06-.76h0Zm5.32,17.95c-1.22-.61-.61-2.43.61-2.43.91,0,1.67,1.06,2.74,1.06.91,0,1.67-.76,1.67-1.67s-.76-1.67-1.67-1.67c-7.76,0-19.31-.15-27.22-.15-.76,0-1.22-.61-1.22-1.37s.46-1.37,1.22-1.37c7.76,0,19.31.15,27.22.15,2.43,0,4.26,1.98,4.26,4.26,0,3.35-3.65,5.47-6.54,3.65-.3,0-.76-.15-1.06-.46h0Zm-23.88-8.52c-1.37,0-1.37-1.06-1.37-1.37s0-1.37,1.37-1.37h29.96c.61,0,1.37-.61,1.52-1.22.46-1.52-1.22-2.59-2.43-1.82-.3.15-.76.46-1.06.61-.91.61-1.98-.15-1.98-1.06,0-.46.3-.91.61-1.22,1.37-.76,2.13-1.52,3.95-1.37,1.52.15,2.74,1.06,3.35,2.43,1.37,3.19-.91,6.24-3.95,6.24l-29.96.15h0Z"/>
</svg>