<?xml version="1.0" encoding="utf-8"?>
<!-- Generator: Adobe Illustrator 27.3.1, SVG Export Plug-In . SVG Version: 6.00 Build 0)  -->
<svg version="1.1" id="Livello_1" xmlns="http://www.w3.org/2000/svg" xmlns:xlink="http://www.w3.org/1999/xlink" x="0px" y="0px"
	  width="32px" height="590px" viewBox="0 0 32.746 590.697" enable-background="new 0 0 32.746 590.697" xml:space="preserve">
<g>
	<defs>
		<path id="SVGID_1_" d="M27.82,580.98c-0.32,3.43-5.67,7.51-10.31,7.51l0,0c-4.59,0.37-10.88-3.32-10.88-7.51V42.73
			c1.02-4.94,6.49-7.8,10.18-7.79l0,0c4.3,0,9.9,2.93,11,7.98v538.06C27.81,580.98,27.82,580.98,27.82,580.98z"/>
	</defs>
	<clipPath id="SVGID_00000119818757798382887690000013652537235416124289_">
		<use xlink:href="#SVGID_1_"  overflow="visible"/>
	</clipPath>
	<g clip-path="url(#SVGID_00000119818757798382887690000013652537235416124289_)">
		<g>
			<rect x="-7.9" y="34.94" fill="#FD007E" width="52.96" height="16.67"/>
			<rect x="-7.9" y="51.61" fill="#FC0098" width="52.96" height="13.09"/>
			<rect x="-7.9" y="76.97" fill="#FC0098" width="52.96" height="13.09"/>
			<rect x="-7.9" y="90.06" fill="#FD00B9" width="52.96" height="13.09"/>
			<rect x="-7.9" y="103.15" fill="#FD00B9" width="52.96" height="13.09"/>
			<rect x="-7.9" y="116.24" fill="#FD00CF" width="52.96" height="13.09"/>
			<rect x="-7.9" y="129.34" fill="#FD00DE" width="52.96" height="13.09"/>
			<rect x="-7.9" y="142.43" fill="#F400F6" width="52.96" height="13.09"/>
			<rect x="-7.9" y="155.52" fill="#F400F6" width="52.96" height="13.09"/>
			<rect x="-7.9" y="168.62" fill="#F400F6" width="52.96" height="13.09"/>
			<rect x="-7.9" y="181.71" fill="#F400F6" width="52.96" height="13.09"/>
			<rect x="-7.9" y="194.8" fill="#DB00FA" width="52.96" height="13.09"/>
			<rect x="-7.9" y="207.89" fill="#D000FB" width="52.96" height="13.09"/>
			<rect x="-7.9" y="220.99" fill="#C200FA" width="52.96" height="13.09"/>
			<rect x="-7.9" y="234.08" fill="#C200FA" width="52.96" height="13.09"/>
			<rect x="-7.9" y="247.17" fill="#B100FA" width="52.96" height="13.09"/>
			<rect x="-7.9" y="260.26" fill="#B100FA" width="52.96" height="13.09"/>
			<rect x="-7.9" y="273.36" fill="#A600F9" width="52.96" height="13.09"/>
			<rect x="-7.9" y="286.45" fill="#9F00FA" width="52.96" height="13.09"/>
			<rect x="-7.6" y="299.54" fill="#972DF9" width="52.96" height="13.09"/>
			<rect x="-7.9" y="312.63" fill="#972DF9" width="52.96" height="13.09"/>
			<rect x="-7.9" y="325.73" fill="#8E46F8" width="52.96" height="13.09"/>
			<rect x="-7.9" y="338.82" fill="#8E46F8" width="52.96" height="13.09"/>
			<rect x="-7.9" y="351.91" fill="#8955F9" width="52.96" height="13.09"/>
			<rect x="-7.9" y="365.01" fill="#8663F8" width="52.96" height="13.09"/>
			<rect x="-7.9" y="378.1" fill="#8663F8" width="52.96" height="13.09"/>
			<rect x="-7.9" y="391.19" fill="#8C7BF8" width="52.96" height="13.09"/>
			<rect x="-7.9" y="404.28" fill="#918BF9" width="52.96" height="13.09"/>
			<rect x="-7.9" y="417.37" fill="#9699F8" width="52.96" height="13.09"/>
			<rect x="-7.9" y="430.47" fill="#9CA7F9" width="52.96" height="13.09"/>
			<rect x="-7.9" y="443.56" fill="#A2B3F9" width="52.96" height="13.09"/>
			<rect x="-7.9" y="456.65" fill="#ABC3F9" width="52.96" height="13.09"/>
			<rect x="-7.9" y="469.74" fill="#ABC3F9" width="52.96" height="13.1"/>
			<rect x="-7.9" y="482.84" fill="#B1CEF8" width="52.96" height="13.09"/>
			<rect x="-7.9" y="495.93" fill="#B7D7F8" width="52.96" height="13.09"/>
			<rect x="-7.9" y="509.02" fill="#BCDDF8" width="52.96" height="13.1"/>
			<rect x="-7.9" y="522.12" fill="#C2E4F9" width="52.96" height="13.09"/>
			<rect x="-7.9" y="535.21" fill="#C6ECF9" width="52.96" height="55.49"/>
			<rect x="-7.9" y="64.08" fill="#FC0098" width="52.96" height="13.09"/>
		</g>
	</g>
</g>
<circle fill="#39322E" cx="17.23" cy="15.78" r="14.91"/>
<path fill="none" stroke="#3C3430" stroke-width="3" stroke-miterlimit="10" d="M27.82,580.98c-0.32,3.43-5.67,7.51-10.31,7.51l0,0
	c-4.59,0.37-10.88-3.32-10.88-7.51V42.74c1.02-4.94,6.49-7.8,10.18-7.79l0,0c4.3,0,9.9,2.93,11,7.98v538.05
	C27.81,580.98,27.82,580.98,27.82,580.98z"/>
<path fill="#FFFFFF" d="M18.64,10.88c0.73-0.45,1.7,0.08,1.7,0.96c0,0.62-0.5,1.12-1.12,1.12H6.12c-0.7,0-0.9,0.4-0.9,0.9
	c0,0.43,0.21,0.9,0.9,0.9h13.1c1.61,0,2.91-1.3,2.91-2.91c0-2.28-2.5-3.66-4.42-2.49c-0.25,0.15-0.51,0.31-0.76,0.46
	c-0.78,0.47-0.44,1.67,0.46,1.67c0.17,0,0.33-0.05,0.47-0.13c0.25-0.15,0.51-0.31,0.76-0.46l0,0C18.64,10.9,18.64,10.88,18.64,10.88
	z M22.16,22.96c-0.78-0.46-0.45-1.67,0.46-1.67c0.62,0,1.1,0.76,1.81,0.76c0.62,0,1.12-0.5,1.12-1.12s-0.5-1.11-1.12-1.12
	c-5.27-0.05-13.04-0.09-18.31-0.14c-0.5,0-0.81-0.4-0.81-0.9s0.32-0.9,0.81-0.9c5.27,0.05,13.04,0.09,18.31,0.14
	c1.61,0.01,2.91,1.3,2.91,2.91c0,2.28-2.5,3.66-4.42,2.49c-0.25-0.15-0.51-0.31-0.76-0.46l0,0L22.16,22.96z M6.17,17.24
	c-0.94,0-0.94-0.71-0.94-0.88c0-0.18,0-0.92,0.92-0.92h20.19c0.46,0,0.96-0.36,1.07-0.81c0.26-1.06-0.84-1.77-1.66-1.27
	c-0.25,0.15-0.51,0.31-0.76,0.46c-0.6,0.37-1.37-0.06-1.37-0.76c0-0.33,0.18-0.61,0.44-0.77c0.87-0.52,1.41-0.98,2.62-0.87
	c1,0.09,1.89,0.7,2.29,1.62c0.92,2.13-0.62,4.19-2.64,4.19H6.17V17.24z"/>
<g>
	<path fill="#3C3430" d="M16.92,574.99c0.32,0.32,0.48,0.79,0.48,1.43v2.46h-1.25v-2.27c0-0.34-0.07-0.6-0.21-0.76
		c-0.14-0.17-0.34-0.25-0.6-0.25c-0.29,0-0.53,0.09-0.7,0.28s-0.26,0.47-0.26,0.84v2.16h-1.25v-2.27c0-0.68-0.27-1.02-0.82-1.02
		c-0.29,0-0.52,0.09-0.69,0.28c-0.17,0.19-0.26,0.47-0.26,0.84v2.16h-1.25v-4.3h1.19v0.5c0.16-0.18,0.36-0.32,0.59-0.42
		c0.23-0.1,0.49-0.14,0.76-0.14c0.3,0,0.58,0.06,0.82,0.18c0.25,0.12,0.44,0.29,0.59,0.52c0.18-0.22,0.4-0.4,0.67-0.52
		s0.56-0.18,0.88-0.18c0.54,0,0.97,0.16,1.28,0.48H16.92z"/>
	<path fill="#3C3430" d="M20.32,572.15h1.11l-2.64,7.54h-1.11L20.32,572.15z"/>
	<path fill="#3C3430" d="M21.54,578.82c-0.34-0.09-0.61-0.2-0.82-0.33l0.42-0.9c0.19,0.12,0.42,0.22,0.7,0.3
		c0.27,0.08,0.54,0.12,0.8,0.12c0.53,0,0.79-0.13,0.79-0.39c0-0.12-0.07-0.21-0.22-0.26c-0.14-0.05-0.37-0.1-0.66-0.14
		c-0.35-0.05-0.64-0.12-0.87-0.18c-0.23-0.07-0.43-0.19-0.6-0.37s-0.25-0.43-0.25-0.75c0-0.27,0.08-0.51,0.24-0.72
		c0.16-0.21,0.39-0.37,0.69-0.49c0.3-0.12,0.66-0.18,1.07-0.18c0.3,0,0.61,0.03,0.91,0.1c0.3,0.07,0.55,0.16,0.75,0.28l-0.42,0.89
		c-0.38-0.21-0.79-0.32-1.24-0.32c-0.27,0-0.47,0.04-0.6,0.11c-0.13,0.07-0.2,0.17-0.2,0.29c0,0.13,0.07,0.23,0.22,0.28
		c0.14,0.05,0.37,0.1,0.69,0.15c0.35,0.06,0.64,0.12,0.86,0.19c0.22,0.07,0.42,0.19,0.58,0.36s0.25,0.42,0.25,0.74
		c0,0.27-0.08,0.5-0.24,0.71s-0.39,0.37-0.7,0.48c-0.31,0.12-0.67,0.17-1.09,0.17c-0.36,0-0.71-0.04-1.05-0.13h-0.01V578.82z"/>
</g>
<g>
	<path fill="#3C3530" d="M15.51,539.09v4.9H14.6v-4.14h-1.04v-0.76H15.51z"/>
	<path fill="#3C3530" d="M17.48,543.76c-0.31-0.2-0.55-0.49-0.73-0.87s-0.27-0.83-0.27-1.35s0.09-0.97,0.27-1.35
		s0.42-0.67,0.73-0.87s0.66-0.3,1.05-0.3s0.74,0.1,1.05,0.3s0.55,0.49,0.73,0.87s0.27,0.83,0.27,1.35s-0.09,0.97-0.27,1.35
		s-0.42,0.67-0.73,0.87s-0.66,0.3-1.05,0.3S17.79,543.96,17.48,543.76z M19.36,542.83c0.2-0.29,0.3-0.72,0.3-1.29
		s-0.1-1.01-0.3-1.29s-0.48-0.43-0.83-0.43s-0.62,0.14-0.82,0.43c-0.2,0.29-0.3,0.72-0.3,1.29s0.1,1.01,0.3,1.29
		c0.2,0.29,0.48,0.43,0.82,0.43S19.16,543.12,19.36,542.83z"/>
</g>
<g>
	<path fill="#3C3530" d="M16.56,526.89v4.9h-0.91v-4.14h-1.04v-0.76H16.56z"/>
	<path fill="#3C3530" d="M19.23,526.89v4.9h-0.91v-4.14h-1.04v-0.76H19.23z"/>
</g>
<g>
	<path fill="#3C3530" d="M15.83,512.95v4.9h-0.91v-4.14h-1.04v-0.76H15.83z"/>
	<path fill="#3C3530" d="M20.35,517.08v0.77h-3.61v-0.61l1.95-1.85c0.22-0.21,0.37-0.39,0.44-0.55c0.08-0.16,0.12-0.31,0.12-0.46
		c0-0.23-0.08-0.4-0.23-0.53c-0.15-0.12-0.38-0.18-0.68-0.18c-0.5,0-0.88,0.17-1.15,0.51l-0.64-0.49c0.19-0.26,0.45-0.46,0.77-0.6
		c0.32-0.14,0.69-0.21,1.09-0.21c0.53,0,0.96,0.13,1.27,0.38s0.48,0.59,0.48,1.03c0,0.27-0.06,0.52-0.17,0.75s-0.33,0.5-0.64,0.8
		l-1.31,1.25h2.31l0,0L20.35,517.08z"/>
</g>
<g>
	<path fill="#3C3530" d="M15.83,500.1v4.9h-0.91v-4.14h-1.04v-0.76L15.83,500.1L15.83,500.1z"/>
	<path fill="#3C3530" d="M19.92,502.59c0.24,0.25,0.36,0.57,0.36,0.95c0,0.28-0.07,0.54-0.22,0.78s-0.36,0.42-0.65,0.56
		s-0.65,0.21-1.07,0.21c-0.35,0-0.69-0.05-1.01-0.15s-0.6-0.24-0.83-0.42l0.39-0.71c0.18,0.15,0.39,0.27,0.65,0.35
		c0.25,0.09,0.52,0.13,0.79,0.13c0.32,0,0.58-0.07,0.76-0.2s0.28-0.31,0.28-0.54s-0.09-0.41-0.26-0.54s-0.44-0.19-0.8-0.19h-0.45
		v-0.62l1.11-1.32h-2.23v-0.76h3.34v0.61l-1.19,1.41c0.45,0.06,0.8,0.21,1.04,0.46h-0.01L19.92,502.59z"/>
</g>
<g>
	<path fill="#3C3530" d="M15.56,487.13v4.9h-0.91v-4.14h-1.04v-0.76L15.56,487.13L15.56,487.13z"/>
	<path fill="#3C3530" d="M20.9,490.91h-0.87v1.11h-0.88v-1.11h-2.69v-0.63l2.42-3.16h0.97l-2.27,3.02h1.6v-0.99h0.85v0.99h0.87
		V490.91L20.9,490.91L20.9,490.91z"/>
</g>
<g>
	<path fill="#3C3530" d="M15.96,473.83v4.9h-0.91v-4.14h-1.04v-0.76L15.96,473.83L15.96,473.83z"/>
	<path fill="#3C3530" d="M20,476.12c0.33,0.27,0.5,0.63,0.5,1.1c0,0.29-0.07,0.56-0.22,0.8s-0.36,0.43-0.65,0.57
		c-0.29,0.14-0.65,0.21-1.07,0.21c-0.35,0-0.69-0.05-1.02-0.15s-0.6-0.24-0.83-0.42l0.39-0.71c0.18,0.15,0.4,0.27,0.65,0.35
		c0.25,0.09,0.52,0.13,0.79,0.13c0.32,0,0.57-0.07,0.76-0.2c0.18-0.13,0.28-0.32,0.28-0.55c0-0.25-0.1-0.44-0.3-0.57
		c-0.2-0.13-0.54-0.19-1.02-0.19h-1.18l0.25-2.67h2.88v0.76H18.1l-0.11,1.13h0.47c0.69,0,1.2,0.13,1.53,0.4l0,0L20,476.12z"/>
</g>
<g>
	<path fill="#3C3530" d="M15.67,461.04v4.9h-0.91v-4.14h-1.04v-0.76L15.67,461.04L15.67,461.04z"/>
	<path fill="#3C3530" d="M19.74,463.1c0.26,0.12,0.46,0.3,0.6,0.53c0.14,0.23,0.22,0.49,0.22,0.79c0,0.32-0.08,0.6-0.24,0.84
		s-0.38,0.43-0.64,0.56c-0.27,0.13-0.57,0.2-0.91,0.2c-0.67,0-1.19-0.21-1.57-0.63c-0.37-0.42-0.56-1.02-0.56-1.81
		c0-0.55,0.1-1.02,0.3-1.41s0.48-0.69,0.84-0.89s0.78-0.3,1.26-0.3c0.25,0,0.49,0.03,0.71,0.08s0.41,0.13,0.58,0.23l-0.34,0.69
		c-0.24-0.16-0.55-0.24-0.93-0.24c-0.47,0-0.84,0.14-1.11,0.43c-0.27,0.29-0.4,0.71-0.4,1.25l0,0c0.14-0.16,0.33-0.29,0.55-0.38
		s0.48-0.13,0.76-0.13c0.32,0,0.61,0.06,0.87,0.19H19.74z M19.41,465.07c0.18-0.15,0.27-0.35,0.27-0.61s-0.09-0.46-0.27-0.61
		s-0.42-0.22-0.71-0.22s-0.53,0.08-0.72,0.24c-0.19,0.16-0.28,0.36-0.28,0.6s0.09,0.43,0.27,0.59s0.43,0.24,0.75,0.24
		C19.01,465.3,19.24,465.22,19.41,465.07z"/>
</g>
<g>
	<path fill="#3C3530" d="M15.77,447.97v4.9h-0.91v-4.14h-1.04v-0.76L15.77,447.97L15.77,447.97z"/>
	<path fill="#3C3530" d="M20.44,447.97v0.61l-1.9,4.29h-0.97l1.84-4.13h-1.92v0.83h-0.85v-1.6h3.81L20.44,447.97L20.44,447.97z"/>
</g>
<g>
	<path fill="#3C3530" d="M15.72,434.2v4.9h-0.91v-4.14h-1.04v-0.76L15.72,434.2L15.72,434.2z"/>
	<path fill="#3C3530" d="M20.47,437c0.14,0.2,0.21,0.43,0.21,0.7c0,0.3-0.08,0.56-0.25,0.78s-0.4,0.4-0.7,0.51s-0.66,0.18-1.06,0.18
		s-0.75-0.06-1.05-0.18s-0.53-0.29-0.7-0.51c-0.16-0.22-0.25-0.49-0.25-0.78c0-0.27,0.07-0.5,0.2-0.7s0.33-0.36,0.58-0.47
		c-0.2-0.11-0.35-0.25-0.45-0.42c-0.1-0.18-0.16-0.38-0.16-0.61c0-0.27,0.08-0.51,0.23-0.72s0.36-0.36,0.64-0.48
		c0.28-0.11,0.59-0.17,0.95-0.17s0.68,0.06,0.96,0.17c0.28,0.11,0.49,0.27,0.64,0.48c0.15,0.21,0.23,0.45,0.23,0.72
		c0,0.23-0.05,0.43-0.16,0.6s-0.26,0.31-0.46,0.43c0.26,0.12,0.45,0.27,0.59,0.47C20.46,437,20.47,437,20.47,437z M19.47,438.25
		c0.2-0.14,0.29-0.33,0.29-0.58s-0.1-0.43-0.29-0.57c-0.2-0.14-0.46-0.21-0.8-0.21s-0.6,0.07-0.79,0.21
		c-0.19,0.14-0.29,0.33-0.29,0.57s0.1,0.44,0.29,0.58c0.19,0.14,0.45,0.21,0.79,0.21S19.27,438.39,19.47,438.25z M18,435.03
		c-0.17,0.12-0.25,0.29-0.25,0.51s0.08,0.38,0.25,0.5s0.39,0.19,0.68,0.19s0.52-0.06,0.69-0.19s0.25-0.29,0.25-0.5
		s-0.08-0.39-0.26-0.51c-0.17-0.12-0.4-0.18-0.68-0.18S18.17,434.91,18,435.03z"/>
</g>
<g>
	<path fill="#3C3530" d="M15.7,421.76v4.9h-0.91v-4.14h-1.04v-0.76L15.7,421.76L15.7,421.76z"/>
	<path fill="#3C3530" d="M19.89,422.32c0.37,0.42,0.56,1.02,0.56,1.81c0,0.55-0.1,1.02-0.3,1.41s-0.48,0.69-0.84,0.89
		s-0.78,0.3-1.26,0.3c-0.25,0-0.49-0.03-0.71-0.08s-0.41-0.13-0.58-0.23l0.34-0.69c0.24,0.16,0.55,0.24,0.93,0.24
		c0.47,0,0.84-0.14,1.1-0.43c0.27-0.29,0.4-0.71,0.4-1.25l0,0c-0.14,0.16-0.33,0.29-0.55,0.37c-0.22,0.09-0.48,0.13-0.76,0.13
		c-0.32,0-0.61-0.06-0.87-0.19c-0.26-0.12-0.46-0.3-0.6-0.53c-0.14-0.23-0.22-0.49-0.22-0.79c0-0.32,0.08-0.6,0.24-0.84
		s0.37-0.43,0.64-0.56c0.27-0.13,0.57-0.2,0.91-0.2c0.67,0,1.19,0.21,1.56,0.63h0.01V422.32z M19.11,423.83
		c0.19-0.16,0.28-0.36,0.28-0.6s-0.09-0.44-0.27-0.59s-0.43-0.23-0.75-0.23c-0.28,0-0.51,0.08-0.69,0.23s-0.27,0.35-0.27,0.61
		s0.09,0.46,0.27,0.61s0.42,0.22,0.71,0.22s0.53-0.08,0.72-0.24l0,0L19.11,423.83z"/>
</g>
<g>
	<path fill="#3C3530" d="M16.67,412.44v0.77h-3.61v-0.61l1.95-1.85c0.22-0.21,0.37-0.39,0.44-0.55c0.08-0.16,0.12-0.31,0.12-0.46
		c0-0.23-0.08-0.4-0.23-0.53s-0.38-0.18-0.68-0.18c-0.5,0-0.88,0.17-1.15,0.51l-0.64-0.49c0.19-0.26,0.45-0.46,0.77-0.6
		s0.69-0.21,1.09-0.21c0.53,0,0.96,0.13,1.27,0.38c0.31,0.25,0.48,0.59,0.48,1.03c0,0.27-0.06,0.52-0.17,0.75s-0.33,0.5-0.64,0.8
		l-1.31,1.25h2.31L16.67,412.44z"/>
	<path fill="#3C3530" d="M18.17,412.98c-0.31-0.2-0.55-0.49-0.73-0.87s-0.27-0.83-0.27-1.35s0.09-0.97,0.27-1.35
		s0.42-0.67,0.73-0.87c0.31-0.2,0.66-0.3,1.05-0.3s0.74,0.1,1.05,0.3c0.31,0.2,0.55,0.49,0.73,0.87s0.27,0.83,0.27,1.35
		s-0.09,0.97-0.27,1.35s-0.42,0.67-0.73,0.87s-0.66,0.3-1.05,0.3S18.48,413.18,18.17,412.98z M20.05,412.05
		c0.2-0.29,0.3-0.72,0.3-1.29s-0.1-1.01-0.3-1.29s-0.48-0.43-0.83-0.43s-0.62,0.14-0.82,0.43s-0.3,0.72-0.3,1.29s0.1,1.01,0.3,1.29
		c0.2,0.29,0.48,0.43,0.82,0.43S19.85,412.34,20.05,412.05z"/>
</g>
<g>
	<path fill="#3C3530" d="M17.66,398.96v0.77h-3.61v-0.61l1.95-1.85c0.22-0.21,0.37-0.39,0.44-0.55c0.08-0.16,0.12-0.31,0.12-0.46
		c0-0.23-0.08-0.4-0.23-0.53s-0.38-0.18-0.68-0.18c-0.5,0-0.88,0.17-1.15,0.51l-0.64-0.49c0.19-0.26,0.45-0.46,0.77-0.6
		s0.69-0.21,1.09-0.21c0.53,0,0.96,0.13,1.27,0.38s0.48,0.59,0.48,1.03c0,0.27-0.06,0.52-0.17,0.75s-0.33,0.5-0.64,0.8l-1.31,1.25
		h2.31l0,0L17.66,398.96z"/>
	<path fill="#3C3530" d="M19.88,394.83v4.9h-0.91v-4.14h-1.04v-0.76L19.88,394.83L19.88,394.83L19.88,394.83z"/>
</g>
<g>
	<path fill="#3C3530" d="M17.01,386.6v0.77H13.4v-0.61l1.95-1.85c0.22-0.21,0.37-0.39,0.44-0.55c0.08-0.16,0.12-0.31,0.12-0.46
		c0-0.23-0.08-0.4-0.23-0.53s-0.38-0.18-0.68-0.18c-0.5,0-0.88,0.17-1.15,0.51l-0.64-0.49c0.19-0.26,0.45-0.46,0.77-0.6
		s0.69-0.21,1.09-0.21c0.53,0,0.96,0.13,1.27,0.38s0.48,0.59,0.48,1.03c0,0.27-0.06,0.52-0.17,0.75s-0.33,0.5-0.64,0.8l-1.31,1.25
		h2.31V386.6z"/>
	<path fill="#3C3530" d="M21.09,386.6v0.77h-3.61v-0.61l1.95-1.85c0.22-0.21,0.37-0.39,0.44-0.55c0.08-0.16,0.12-0.31,0.12-0.46
		c0-0.23-0.08-0.4-0.23-0.53c-0.15-0.12-0.38-0.18-0.68-0.18c-0.5,0-0.88,0.17-1.15,0.51l-0.64-0.49c0.19-0.26,0.45-0.46,0.77-0.6
		s0.69-0.21,1.09-0.21c0.53,0,0.96,0.13,1.27,0.38s0.48,0.59,0.48,1.03c0,0.27-0.06,0.52-0.17,0.75s-0.33,0.5-0.64,0.8l-1.31,1.25
		h2.31l0,0L21.09,386.6z"/>
</g>
<g>
	<path fill="#3C3530" d="M16.98,374.2v0.77h-3.61v-0.61l1.95-1.85c0.22-0.21,0.37-0.39,0.44-0.55c0.08-0.16,0.12-0.31,0.12-0.46
		c0-0.23-0.08-0.4-0.23-0.53s-0.38-0.18-0.68-0.18c-0.5,0-0.88,0.17-1.15,0.51l-0.64-0.49c0.19-0.26,0.45-0.46,0.77-0.6
		s0.69-0.21,1.09-0.21c0.53,0,0.96,0.13,1.27,0.38c0.31,0.25,0.48,0.59,0.48,1.03c0,0.27-0.06,0.52-0.17,0.75s-0.33,0.5-0.64,0.8
		l-1.31,1.25h2.31L16.98,374.2z"/>
	<path fill="#3C3530" d="M20.62,372.55c0.24,0.25,0.36,0.57,0.36,0.95c0,0.28-0.07,0.54-0.22,0.78s-0.36,0.42-0.66,0.56
		c-0.29,0.14-0.65,0.21-1.07,0.21c-0.35,0-0.69-0.05-1.01-0.15s-0.6-0.24-0.83-0.42l0.39-0.71c0.18,0.15,0.39,0.27,0.65,0.35
		c0.25,0.09,0.52,0.13,0.79,0.13c0.32,0,0.58-0.07,0.76-0.2s0.28-0.31,0.28-0.54s-0.09-0.41-0.26-0.54s-0.44-0.19-0.8-0.19h-0.45
		v-0.62l1.11-1.32h-2.23v-0.76h3.34v0.61l-1.19,1.41c0.45,0.06,0.8,0.21,1.04,0.46l0,0L20.62,372.55z"/>
</g>
<g>
	<path fill="#3C3530" d="M16.69,360.29v0.77h-3.61v-0.61l1.95-1.85c0.22-0.21,0.37-0.39,0.44-0.55c0.08-0.16,0.12-0.31,0.12-0.46
		c0-0.23-0.08-0.4-0.23-0.53s-0.38-0.18-0.68-0.18c-0.5,0-0.88,0.17-1.15,0.51l-0.64-0.49c0.19-0.26,0.45-0.46,0.77-0.6
		s0.69-0.21,1.09-0.21c0.53,0,0.96,0.13,1.27,0.38c0.31,0.25,0.48,0.59,0.48,1.03c0,0.27-0.06,0.52-0.17,0.75s-0.33,0.5-0.64,0.8
		l-1.31,1.25h2.31L16.69,360.29z"/>
	<path fill="#3C3530" d="M21.48,359.95h-0.87v1.11h-0.88v-1.11h-2.69v-0.63l2.41-3.16h0.97l-2.27,3.02h1.6v-0.99h0.85v0.99h0.87
		v0.77L21.48,359.95L21.48,359.95z"/>
</g>
<g>
	<path fill="#3C3530" d="M16.97,347.54v0.77h-3.61v-0.61l1.95-1.85c0.22-0.21,0.37-0.39,0.44-0.55c0.08-0.16,0.12-0.31,0.12-0.46
		c0-0.23-0.08-0.4-0.23-0.53s-0.38-0.18-0.68-0.18c-0.5,0-0.88,0.17-1.15,0.51l-0.64-0.49c0.19-0.26,0.45-0.46,0.77-0.6
		s0.69-0.21,1.09-0.21c0.53,0,0.96,0.13,1.27,0.38c0.31,0.25,0.48,0.59,0.48,1.03c0,0.27-0.06,0.52-0.17,0.75s-0.33,0.5-0.64,0.8
		l-1.31,1.25h2.31L16.97,347.54z"/>
	<path fill="#3C3530" d="M20.56,345.71c0.33,0.27,0.5,0.63,0.5,1.1c0,0.29-0.07,0.56-0.22,0.8s-0.36,0.43-0.65,0.57
		c-0.29,0.14-0.65,0.21-1.07,0.21c-0.35,0-0.69-0.05-1.01-0.15c-0.33-0.1-0.6-0.24-0.83-0.42l0.39-0.71
		c0.18,0.15,0.4,0.27,0.65,0.35c0.25,0.09,0.52,0.13,0.79,0.13c0.32,0,0.58-0.07,0.76-0.2s0.28-0.32,0.28-0.55
		c0-0.25-0.1-0.44-0.3-0.57c-0.2-0.13-0.54-0.19-1.02-0.19h-1.18l0.25-2.67h2.88v0.76h-2.11l-0.1,1.13h0.47
		c0.69,0,1.2,0.13,1.53,0.4h-0.01L20.56,345.71z"/>
</g>
<g>
	<path fill="#3C3530" d="M16.87,334.37v0.77h-3.61v-0.61l1.95-1.85c0.22-0.21,0.37-0.39,0.44-0.55c0.08-0.16,0.12-0.31,0.12-0.46
		c0-0.23-0.08-0.4-0.23-0.53s-0.38-0.18-0.68-0.18c-0.5,0-0.88,0.17-1.15,0.51l-0.64-0.49c0.19-0.26,0.45-0.46,0.77-0.6
		s0.69-0.21,1.09-0.21c0.53,0,0.96,0.13,1.27,0.38c0.31,0.25,0.48,0.59,0.48,1.03c0,0.27-0.06,0.52-0.17,0.75s-0.33,0.5-0.64,0.8
		l-1.31,1.25h2.31L16.87,334.37z"/>
	<path fill="#3C3530" d="M20.46,332.3c0.26,0.12,0.46,0.3,0.6,0.53c0.14,0.23,0.22,0.49,0.22,0.79c0,0.32-0.08,0.6-0.24,0.84
		s-0.37,0.43-0.64,0.56c-0.27,0.13-0.57,0.2-0.91,0.2c-0.67,0-1.19-0.21-1.56-0.63c-0.37-0.42-0.56-1.02-0.56-1.81
		c0-0.55,0.1-1.02,0.3-1.41c0.2-0.39,0.48-0.69,0.84-0.89s0.78-0.3,1.26-0.3c0.25,0,0.49,0.03,0.71,0.08s0.41,0.13,0.58,0.23
		l-0.34,0.69c-0.24-0.16-0.55-0.24-0.93-0.24c-0.47,0-0.84,0.14-1.11,0.43c-0.27,0.29-0.4,0.71-0.4,1.25l0,0
		c0.14-0.16,0.33-0.29,0.55-0.38s0.48-0.13,0.76-0.13C19.91,332.11,20.2,332.17,20.46,332.3z M20.13,334.27
		c0.18-0.15,0.27-0.35,0.27-0.61s-0.09-0.46-0.27-0.61s-0.42-0.22-0.71-0.22s-0.53,0.08-0.72,0.24c-0.18,0.16-0.28,0.36-0.28,0.6
		s0.09,0.43,0.27,0.59s0.43,0.24,0.74,0.24c0.29,0,0.52-0.08,0.69-0.23l0,0H20.13z"/>
</g>
<g>
	<path fill="#3C3530" d="M16.9,321.05v0.77h-3.61v-0.61l1.95-1.85c0.22-0.21,0.37-0.39,0.44-0.55c0.08-0.16,0.12-0.31,0.12-0.46
		c0-0.23-0.08-0.4-0.23-0.53s-0.38-0.18-0.68-0.18c-0.5,0-0.88,0.17-1.15,0.51l-0.64-0.49c0.19-0.26,0.45-0.46,0.77-0.6
		s0.69-0.21,1.09-0.21c0.53,0,0.96,0.13,1.27,0.38c0.31,0.25,0.48,0.59,0.48,1.03c0,0.27-0.06,0.52-0.17,0.75s-0.33,0.5-0.64,0.8
		l-1.31,1.25h2.31L16.9,321.05z"/>
	<path fill="#3C3530" d="M21.1,316.92v0.61l-1.9,4.29h-0.97l1.84-4.13h-1.92v0.83H17.3v-1.6h3.81L21.1,316.92L21.1,316.92z"/>
</g>
<g>
	<path fill="#3C3530" d="M16.73,307.88v0.77h-3.61v-0.61l1.95-1.85c0.22-0.21,0.37-0.39,0.44-0.55c0.08-0.16,0.12-0.31,0.12-0.46
		c0-0.23-0.08-0.4-0.23-0.53s-0.38-0.18-0.68-0.18c-0.5,0-0.88,0.17-1.15,0.51l-0.64-0.49c0.19-0.26,0.45-0.46,0.77-0.6
		s0.69-0.21,1.09-0.21c0.53,0,0.96,0.13,1.27,0.38c0.31,0.25,0.48,0.59,0.48,1.03c0,0.27-0.06,0.52-0.17,0.75s-0.33,0.5-0.64,0.8
		l-1.31,1.25h2.31L16.73,307.88z"/>
	<path fill="#3C3530" d="M21.03,306.55c0.14,0.2,0.21,0.43,0.21,0.7c0,0.3-0.08,0.56-0.25,0.78s-0.4,0.4-0.7,0.51
		c-0.3,0.12-0.66,0.18-1.06,0.18s-0.75-0.06-1.05-0.18s-0.53-0.29-0.7-0.51s-0.25-0.49-0.25-0.78c0-0.27,0.07-0.5,0.2-0.7
		c0.13-0.2,0.33-0.36,0.58-0.47c-0.2-0.11-0.35-0.25-0.45-0.42c-0.1-0.18-0.16-0.38-0.16-0.61c0-0.27,0.08-0.51,0.23-0.72
		s0.36-0.36,0.64-0.48c0.28-0.11,0.59-0.17,0.95-0.17s0.68,0.06,0.96,0.17c0.28,0.11,0.49,0.27,0.64,0.48
		c0.15,0.21,0.23,0.45,0.23,0.72c0,0.23-0.05,0.43-0.16,0.6s-0.26,0.31-0.46,0.43c0.26,0.12,0.45,0.27,0.59,0.47
		C21.02,306.55,21.03,306.55,21.03,306.55z M20.03,307.8c0.2-0.14,0.29-0.33,0.29-0.58s-0.1-0.43-0.29-0.57
		c-0.2-0.14-0.46-0.21-0.8-0.21s-0.6,0.07-0.79,0.21c-0.19,0.14-0.29,0.33-0.29,0.57s0.1,0.44,0.29,0.58
		c0.19,0.14,0.46,0.21,0.79,0.21S19.83,307.94,20.03,307.8z M18.56,304.58c-0.17,0.12-0.25,0.29-0.25,0.51s0.08,0.38,0.25,0.5
		c0.16,0.12,0.39,0.19,0.68,0.19s0.52-0.06,0.69-0.19s0.25-0.29,0.25-0.5s-0.09-0.39-0.26-0.51s-0.4-0.18-0.68-0.18
		S18.73,304.46,18.56,304.58z"/>
</g>
<g>
	<path fill="#3C3530" d="M16.82,294.47v0.77h-3.61v-0.61l1.95-1.85c0.22-0.21,0.37-0.39,0.44-0.55c0.08-0.16,0.12-0.31,0.12-0.46
		c0-0.23-0.08-0.4-0.23-0.53s-0.38-0.18-0.68-0.18c-0.5,0-0.88,0.17-1.15,0.51l-0.64-0.49c0.19-0.26,0.45-0.46,0.77-0.6
		s0.69-0.21,1.09-0.21c0.53,0,0.96,0.13,1.27,0.38c0.31,0.25,0.48,0.59,0.48,1.03c0,0.27-0.06,0.52-0.17,0.75s-0.33,0.5-0.64,0.8
		l-1.31,1.25h2.31L16.82,294.47z"/>
	<path fill="#3C3530" d="M20.56,290.9c0.37,0.42,0.56,1.02,0.56,1.81c0,0.55-0.1,1.02-0.3,1.41c-0.2,0.39-0.48,0.69-0.84,0.89
		s-0.78,0.3-1.26,0.3c-0.25,0-0.49-0.03-0.71-0.08s-0.42-0.13-0.58-0.23l0.34-0.69c0.24,0.16,0.55,0.24,0.93,0.24
		c0.47,0,0.84-0.14,1.11-0.43s0.4-0.71,0.4-1.25l0,0c-0.14,0.16-0.33,0.29-0.55,0.37c-0.22,0.09-0.48,0.13-0.76,0.13
		c-0.32,0-0.61-0.06-0.87-0.19c-0.26-0.12-0.46-0.3-0.6-0.53c-0.14-0.23-0.22-0.49-0.22-0.79c0-0.32,0.08-0.6,0.24-0.84
		s0.37-0.43,0.65-0.56c0.27-0.13,0.57-0.2,0.91-0.2c0.67,0,1.19,0.21,1.56,0.63h-0.01V290.9z M19.78,292.41
		c0.18-0.16,0.28-0.36,0.28-0.6s-0.09-0.44-0.27-0.59s-0.43-0.23-0.75-0.23c-0.29,0-0.52,0.08-0.69,0.23s-0.27,0.35-0.27,0.61
		s0.09,0.46,0.27,0.61s0.42,0.22,0.71,0.22s0.53-0.08,0.72-0.24l0,0L19.78,292.41z"/>
</g>
<g>
	<path fill="#3C3530" d="M16.27,280.62c0.24,0.25,0.36,0.57,0.36,0.95c0,0.28-0.07,0.54-0.22,0.78s-0.36,0.42-0.65,0.56
		s-0.65,0.21-1.07,0.21c-0.35,0-0.69-0.05-1.01-0.15c-0.32-0.1-0.6-0.24-0.83-0.42l0.39-0.71c0.18,0.15,0.39,0.27,0.65,0.35
		c0.25,0.09,0.52,0.13,0.79,0.13c0.32,0,0.58-0.07,0.76-0.2s0.28-0.31,0.28-0.54s-0.09-0.41-0.26-0.54s-0.44-0.19-0.8-0.19h-0.45
		v-0.62l1.11-1.32h-2.23v-0.76h3.34v0.61l-1.19,1.41c0.45,0.06,0.8,0.21,1.04,0.46h-0.01L16.27,280.62z"/>
	<path fill="#3C3530" d="M18.21,282.81c-0.31-0.2-0.55-0.49-0.73-0.87s-0.27-0.83-0.27-1.35s0.09-0.97,0.27-1.35
		s0.42-0.67,0.73-0.87c0.31-0.2,0.66-0.3,1.05-0.3s0.74,0.1,1.05,0.3c0.31,0.2,0.55,0.49,0.73,0.87s0.27,0.83,0.27,1.35
		s-0.09,0.97-0.27,1.35s-0.42,0.67-0.73,0.87s-0.66,0.3-1.05,0.3S18.52,283.01,18.21,282.81z M20.09,281.88
		c0.2-0.29,0.3-0.72,0.3-1.29s-0.1-1.01-0.3-1.29s-0.48-0.43-0.83-0.43s-0.62,0.14-0.82,0.43s-0.3,0.72-0.3,1.29s0.1,1.01,0.3,1.29
		c0.2,0.29,0.48,0.43,0.82,0.43S19.89,282.17,20.09,281.88z"/>
</g>
<g>
	<path fill="#3C3530" d="M17.26,267.25c0.24,0.25,0.36,0.57,0.36,0.95c0,0.28-0.07,0.54-0.22,0.78s-0.36,0.42-0.65,0.56
		s-0.65,0.21-1.07,0.21c-0.35,0-0.69-0.05-1.01-0.15c-0.32-0.1-0.6-0.24-0.83-0.42l0.39-0.71c0.18,0.15,0.39,0.27,0.65,0.35
		c0.25,0.09,0.52,0.13,0.79,0.13c0.32,0,0.58-0.07,0.76-0.2s0.28-0.31,0.28-0.54s-0.09-0.41-0.26-0.54s-0.44-0.19-0.8-0.19H15.2
		v-0.62l1.11-1.32h-2.23v-0.76h3.34v0.61l-1.19,1.41c0.45,0.06,0.8,0.21,1.04,0.46h-0.01L17.26,267.25z"/>
	<path fill="#3C3530" d="M19.9,264.77v4.9h-0.91v-4.14h-1.04v-0.76L19.9,264.77L19.9,264.77L19.9,264.77z"/>
</g>
<g>
	<path fill="#3C3530" d="M16.57,254.02c0.24,0.25,0.36,0.57,0.36,0.95c0,0.28-0.07,0.54-0.22,0.78s-0.36,0.42-0.65,0.56
		s-0.65,0.21-1.07,0.21c-0.35,0-0.69-0.05-1.01-0.15c-0.32-0.1-0.6-0.24-0.83-0.42l0.39-0.71c0.18,0.15,0.39,0.27,0.65,0.35
		c0.25,0.09,0.52,0.13,0.79,0.13c0.32,0,0.58-0.07,0.76-0.2c0.18-0.13,0.28-0.31,0.28-0.54s-0.09-0.41-0.26-0.54
		c-0.17-0.13-0.44-0.19-0.8-0.19h-0.45v-0.62l1.11-1.32h-2.23v-0.76h3.34v0.61l-1.19,1.41c0.45,0.06,0.8,0.21,1.04,0.46h-0.01
		L16.57,254.02z"/>
	<path fill="#3C3530" d="M21.04,255.66v0.77h-3.61v-0.61l1.95-1.85c0.22-0.21,0.37-0.39,0.44-0.55c0.08-0.16,0.12-0.31,0.12-0.46
		c0-0.23-0.08-0.4-0.23-0.53s-0.38-0.18-0.68-0.18c-0.5,0-0.88,0.17-1.15,0.51l-0.64-0.49c0.19-0.26,0.45-0.46,0.77-0.6
		s0.69-0.21,1.09-0.21c0.53,0,0.96,0.13,1.27,0.38c0.32,0.25,0.48,0.59,0.48,1.03c0,0.27-0.06,0.52-0.17,0.75s-0.33,0.5-0.64,0.8
		l-1.31,1.25h2.31l0,0L21.04,255.66z"/>
</g>
<g>
	<path fill="#3C3530" d="M16.57,241.03c0.24,0.25,0.36,0.57,0.36,0.95c0,0.28-0.07,0.54-0.22,0.78s-0.36,0.42-0.65,0.56
		s-0.65,0.21-1.07,0.21c-0.35,0-0.69-0.05-1.01-0.15c-0.32-0.1-0.6-0.24-0.83-0.42l0.39-0.71c0.18,0.15,0.39,0.27,0.65,0.35
		c0.25,0.09,0.52,0.13,0.79,0.13c0.32,0,0.58-0.07,0.76-0.2c0.18-0.13,0.28-0.31,0.28-0.54s-0.09-0.41-0.26-0.54
		c-0.17-0.13-0.44-0.19-0.8-0.19h-0.45v-0.62l1.11-1.32h-2.23v-0.76h3.34v0.61l-1.19,1.41c0.45,0.06,0.8,0.21,1.04,0.46h-0.01
		L16.57,241.03z"/>
	<path fill="#3C3530" d="M20.61,241.03c0.24,0.25,0.36,0.57,0.36,0.95c0,0.28-0.07,0.54-0.22,0.78s-0.36,0.42-0.66,0.56
		c-0.29,0.14-0.65,0.21-1.07,0.21c-0.35,0-0.69-0.05-1.01-0.15c-0.32-0.1-0.6-0.24-0.83-0.42l0.39-0.71
		c0.18,0.15,0.39,0.27,0.65,0.35c0.25,0.09,0.52,0.13,0.79,0.13c0.32,0,0.58-0.07,0.76-0.2c0.18-0.13,0.28-0.31,0.28-0.54
		s-0.09-0.41-0.26-0.54c-0.17-0.13-0.44-0.19-0.8-0.19h-0.45v-0.62l1.11-1.32h-2.23v-0.76h3.34v0.61l-1.19,1.41
		c0.45,0.06,0.8,0.21,1.04,0.46l0,0L20.61,241.03z"/>
</g>
<g>
	<path fill="#3C3530" d="M16.21,227.77c0.24,0.25,0.36,0.57,0.36,0.95c0,0.28-0.07,0.54-0.22,0.78s-0.36,0.42-0.65,0.56
		s-0.65,0.21-1.07,0.21c-0.35,0-0.69-0.05-1.01-0.15c-0.32-0.1-0.6-0.24-0.83-0.42l0.39-0.71c0.18,0.15,0.39,0.27,0.65,0.35
		c0.25,0.09,0.52,0.13,0.79,0.13c0.32,0,0.58-0.07,0.76-0.2c0.18-0.13,0.28-0.31,0.28-0.54s-0.09-0.41-0.26-0.54
		c-0.17-0.13-0.44-0.19-0.8-0.19h-0.45v-0.62l1.11-1.32h-2.23v-0.76h3.34v0.61l-1.19,1.41c0.45,0.06,0.8,0.21,1.04,0.46h-0.01
		L16.21,227.77z"/>
	<path fill="#3C3530" d="M21.53,229.07h-0.87v1.11h-0.88v-1.11h-2.69v-0.63l2.42-3.16h0.97l-2.28,3.02h1.6v-0.99h0.85v0.99h0.87
		v0.77H21.53z"/>
</g>
<g>
	<path fill="#3C3530" d="M16.58,214.64c0.24,0.25,0.36,0.57,0.36,0.95c0,0.28-0.07,0.54-0.22,0.78s-0.36,0.42-0.65,0.56
		s-0.65,0.21-1.07,0.21c-0.35,0-0.69-0.05-1.01-0.15c-0.32-0.1-0.6-0.24-0.83-0.42l0.39-0.71c0.18,0.15,0.39,0.27,0.65,0.35
		c0.25,0.09,0.52,0.13,0.79,0.13c0.32,0,0.58-0.07,0.76-0.2c0.18-0.13,0.28-0.31,0.28-0.54s-0.09-0.41-0.26-0.54
		c-0.17-0.13-0.44-0.19-0.8-0.19h-0.45v-0.62l1.11-1.32H13.4v-0.76h3.34v0.61l-1.19,1.41c0.45,0.06,0.8,0.21,1.04,0.46h-0.01V214.64
		z"/>
	<path fill="#3C3530" d="M20.53,214.45c0.33,0.27,0.5,0.63,0.5,1.1c0,0.29-0.07,0.56-0.22,0.8s-0.36,0.43-0.65,0.57
		c-0.29,0.14-0.65,0.21-1.07,0.21c-0.35,0-0.69-0.05-1.01-0.15c-0.33-0.1-0.6-0.24-0.83-0.42l0.39-0.71
		c0.18,0.15,0.4,0.27,0.65,0.35c0.25,0.09,0.52,0.13,0.79,0.13c0.32,0,0.58-0.07,0.76-0.2c0.18-0.13,0.28-0.32,0.28-0.55
		c0-0.25-0.1-0.44-0.3-0.57c-0.2-0.13-0.54-0.19-1.02-0.19h-1.18l0.25-2.67h2.88v0.76h-2.11l-0.1,1.13h0.47
		c0.69,0,1.2,0.13,1.53,0.4h-0.01L20.53,214.45z"/>
</g>
<g>
	<path fill="#3C3530" d="M16.4,201.49c0.24,0.25,0.36,0.57,0.36,0.95c0,0.28-0.07,0.54-0.22,0.78s-0.36,0.42-0.65,0.56
		s-0.65,0.21-1.07,0.21c-0.35,0-0.69-0.05-1.01-0.15c-0.32-0.1-0.6-0.24-0.83-0.42l0.39-0.71c0.18,0.15,0.39,0.27,0.65,0.35
		c0.25,0.09,0.52,0.13,0.79,0.13c0.32,0,0.58-0.07,0.76-0.2c0.18-0.13,0.28-0.31,0.28-0.54s-0.09-0.41-0.26-0.54
		c-0.17-0.13-0.44-0.19-0.8-0.19h-0.45v-0.62l1.11-1.32h-2.23v-0.76h3.34v0.61l-1.19,1.41c0.45,0.06,0.8,0.21,1.04,0.46H16.4V201.49
		z"/>
	<path fill="#3C3530" d="M20.44,201.06c0.26,0.12,0.46,0.3,0.6,0.53c0.14,0.23,0.22,0.49,0.22,0.79c0,0.32-0.08,0.6-0.24,0.84
		s-0.37,0.43-0.64,0.56c-0.27,0.13-0.57,0.2-0.91,0.2c-0.67,0-1.19-0.21-1.56-0.63c-0.37-0.42-0.56-1.02-0.56-1.81
		c0-0.55,0.1-1.02,0.3-1.41c0.2-0.39,0.48-0.69,0.84-0.89s0.78-0.3,1.26-0.3c0.25,0,0.49,0.03,0.71,0.08s0.41,0.13,0.58,0.23
		l-0.34,0.69c-0.24-0.16-0.55-0.24-0.93-0.24c-0.47,0-0.84,0.14-1.11,0.43s-0.4,0.71-0.4,1.25l0,0c0.14-0.16,0.33-0.29,0.55-0.38
		c0.22-0.09,0.48-0.13,0.76-0.13C19.89,200.87,20.18,200.93,20.44,201.06L20.44,201.06L20.44,201.06z M20.11,203.03
		c0.18-0.15,0.27-0.35,0.27-0.61s-0.09-0.46-0.27-0.61s-0.42-0.22-0.71-0.22s-0.53,0.08-0.72,0.24c-0.18,0.16-0.28,0.36-0.28,0.6
		s0.09,0.43,0.27,0.59s0.43,0.24,0.74,0.24c0.29,0,0.52-0.08,0.69-0.23l0,0L20.11,203.03z"/>
</g>
<g>
	<path fill="#3C3530" d="M16.5,188.29c0.24,0.25,0.36,0.57,0.36,0.95c0,0.28-0.07,0.54-0.22,0.78s-0.36,0.42-0.65,0.56
		s-0.65,0.21-1.07,0.21c-0.35,0-0.69-0.05-1.01-0.15c-0.32-0.1-0.6-0.24-0.83-0.42l0.39-0.71c0.18,0.15,0.39,0.27,0.65,0.35
		c0.25,0.09,0.52,0.13,0.79,0.13c0.32,0,0.58-0.07,0.76-0.2c0.18-0.13,0.28-0.31,0.28-0.54s-0.09-0.41-0.26-0.54
		c-0.17-0.13-0.44-0.19-0.8-0.19h-0.45v-0.62l1.11-1.32h-2.23v-0.76h3.34v0.61l-1.19,1.41c0.45,0.06,0.8,0.21,1.04,0.46H16.5
		L16.5,188.29z"/>
	<path fill="#3C3530" d="M21.08,185.81v0.61l-1.9,4.29h-0.97l1.84-4.13h-1.92v0.83h-0.85v-1.6h3.81L21.08,185.81L21.08,185.81z"/>
</g>
<g>
	<path fill="#3C3530" d="M16.54,175.75c0.24,0.25,0.36,0.57,0.36,0.95c0,0.28-0.07,0.54-0.22,0.78s-0.36,0.42-0.65,0.56
		s-0.65,0.21-1.07,0.21c-0.35,0-0.69-0.05-1.01-0.15c-0.32-0.1-0.6-0.24-0.83-0.42l0.39-0.71c0.18,0.15,0.39,0.27,0.65,0.35
		c0.25,0.09,0.52,0.13,0.79,0.13c0.32,0,0.58-0.07,0.76-0.2c0.18-0.13,0.28-0.31,0.28-0.54s-0.09-0.41-0.26-0.54
		c-0.17-0.13-0.44-0.19-0.8-0.19h-0.45v-0.62l1.11-1.32h-2.23v-0.76h3.34v0.61l-1.19,1.41c0.45,0.06,0.8,0.21,1.04,0.46h-0.01
		L16.54,175.75z"/>
	<path fill="#3C3530" d="M21.26,176.06c0.14,0.2,0.21,0.43,0.21,0.7c0,0.3-0.08,0.56-0.25,0.78s-0.4,0.4-0.7,0.51
		s-0.66,0.18-1.06,0.18s-0.75-0.06-1.05-0.18s-0.53-0.29-0.7-0.51s-0.25-0.49-0.25-0.78c0-0.27,0.07-0.5,0.2-0.7
		s0.33-0.36,0.58-0.47c-0.2-0.11-0.35-0.25-0.45-0.42c-0.1-0.18-0.16-0.38-0.16-0.61c0-0.27,0.08-0.51,0.23-0.72
		s0.37-0.36,0.64-0.48c0.28-0.11,0.59-0.17,0.95-0.17s0.68,0.06,0.96,0.17c0.28,0.11,0.49,0.27,0.64,0.48
		c0.15,0.21,0.23,0.45,0.23,0.72c0,0.23-0.05,0.43-0.16,0.6s-0.26,0.31-0.46,0.43c0.26,0.12,0.45,0.27,0.59,0.47
		C21.25,176.06,21.26,176.06,21.26,176.06z M20.26,177.31c0.2-0.14,0.29-0.33,0.29-0.58s-0.1-0.43-0.29-0.57
		c-0.2-0.14-0.46-0.21-0.8-0.21s-0.6,0.07-0.79,0.21s-0.29,0.33-0.29,0.57s0.1,0.44,0.29,0.58s0.46,0.21,0.79,0.21
		S20.06,177.45,20.26,177.31z M18.79,174.09c-0.17,0.12-0.25,0.29-0.25,0.51s0.08,0.38,0.25,0.5s0.39,0.19,0.68,0.19
		s0.52-0.06,0.69-0.19s0.25-0.29,0.25-0.5s-0.08-0.39-0.26-0.51c-0.17-0.12-0.4-0.18-0.68-0.18S18.96,173.97,18.79,174.09z"/>
</g>
<g>
	<path fill="#3C3530" d="M16.39,162.15c0.24,0.25,0.36,0.57,0.36,0.95c0,0.28-0.07,0.54-0.22,0.78s-0.36,0.42-0.65,0.56
		s-0.65,0.21-1.07,0.21c-0.35,0-0.69-0.05-1.01-0.15c-0.32-0.1-0.6-0.24-0.83-0.42l0.39-0.71c0.18,0.15,0.39,0.27,0.65,0.35
		c0.25,0.09,0.52,0.13,0.79,0.13c0.32,0,0.58-0.07,0.76-0.2c0.18-0.13,0.28-0.31,0.28-0.54s-0.09-0.41-0.26-0.54
		c-0.17-0.13-0.44-0.19-0.8-0.19h-0.45v-0.62l1.11-1.32h-2.23v-0.76h3.34v0.61l-1.19,1.41c0.45,0.06,0.8,0.21,1.04,0.46h-0.01
		L16.39,162.15z"/>
	<path fill="#3C3530" d="M20.56,160.22c0.37,0.42,0.56,1.02,0.56,1.81c0,0.55-0.1,1.02-0.3,1.41c-0.2,0.39-0.48,0.69-0.84,0.89
		s-0.78,0.3-1.26,0.3c-0.25,0-0.49-0.03-0.71-0.08s-0.41-0.13-0.58-0.23l0.34-0.69c0.24,0.16,0.55,0.24,0.93,0.24
		c0.47,0,0.84-0.14,1.11-0.43s0.4-0.71,0.4-1.25l0,0c-0.14,0.16-0.33,0.29-0.55,0.37c-0.22,0.09-0.48,0.13-0.76,0.13
		c-0.32,0-0.61-0.06-0.87-0.19c-0.26-0.12-0.46-0.3-0.6-0.53c-0.14-0.23-0.22-0.49-0.22-0.79c0-0.32,0.08-0.6,0.24-0.84
		s0.37-0.43,0.64-0.56c0.27-0.13,0.57-0.2,0.91-0.2c0.67,0,1.19,0.21,1.56,0.63l0,0V160.22z M19.78,161.73
		c0.18-0.16,0.28-0.36,0.28-0.6s-0.09-0.44-0.27-0.59s-0.43-0.23-0.75-0.23c-0.29,0-0.52,0.08-0.69,0.23s-0.27,0.35-0.27,0.61
		s0.09,0.46,0.27,0.61s0.42,0.22,0.71,0.22s0.53-0.08,0.72-0.24l0,0L19.78,161.73z"/>
</g>
<g>
	<path fill="#3C3530" d="M17.17,150.84H16.3v1.11h-0.88v-1.11h-2.69v-0.63l2.42-3.16h0.97l-2.27,3.02h1.6v-0.99h0.85v0.99h0.87
		V150.84z"/>
	<path fill="#3C3530" d="M18.55,151.73c-0.31-0.2-0.55-0.49-0.73-0.87c-0.18-0.38-0.27-0.83-0.27-1.35s0.09-0.97,0.27-1.35
		s0.42-0.67,0.73-0.87s0.66-0.3,1.05-0.3s0.74,0.1,1.05,0.3s0.55,0.49,0.73,0.87c0.18,0.38,0.27,0.83,0.27,1.35
		s-0.09,0.97-0.27,1.35s-0.42,0.67-0.73,0.87s-0.66,0.3-1.05,0.3S18.86,151.93,18.55,151.73z M20.43,150.8
		c0.2-0.29,0.3-0.72,0.3-1.29s-0.1-1.01-0.3-1.29s-0.48-0.43-0.83-0.43s-0.62,0.14-0.82,0.43s-0.3,0.72-0.3,1.29s0.1,1.01,0.3,1.29
		c0.2,0.29,0.48,0.43,0.82,0.43S20.23,151.09,20.43,150.8z"/>
</g>
<g>
	<path fill="#3C3530" d="M18.25,137.21h-0.87v1.11H16.5v-1.11h-2.69v-0.63l2.42-3.16h0.97l-2.27,3.02h1.6v-0.99h0.85v0.99h0.87
		V137.21z"/>
	<path fill="#3C3530" d="M20.15,133.42v4.9h-0.91v-4.14H18.2v-0.76C18.2,133.42,20.15,133.42,20.15,133.42z"/>
</g>
<g>
	<path fill="#3C3530" d="M17.61,124.05h-0.87v1.11h-0.88v-1.11h-2.69v-0.63l2.42-3.16h0.97l-2.27,3.02h1.6v-0.99h0.85v0.99h0.87
		C17.61,123.28,17.61,124.05,17.61,124.05z"/>
	<path fill="#3C3530" d="M21.52,124.39v0.77h-3.61v-0.61l1.95-1.85c0.22-0.21,0.37-0.39,0.44-0.55c0.08-0.16,0.12-0.31,0.12-0.46
		c0-0.23-0.08-0.4-0.23-0.53s-0.38-0.18-0.68-0.18c-0.5,0-0.88,0.17-1.15,0.51L17.72,121c0.19-0.26,0.45-0.46,0.77-0.6
		s0.69-0.21,1.09-0.21c0.53,0,0.96,0.13,1.27,0.38c0.32,0.25,0.48,0.59,0.48,1.03c0,0.27-0.06,0.52-0.17,0.75s-0.33,0.5-0.64,0.8
		l-1.31,1.25h2.31l0,0L21.52,124.39z"/>
</g>
<g>
	<path fill="#3C3530" d="M17.64,111.14h-0.87v1.11h-0.88v-1.11H13.2v-0.63l2.42-3.16h0.97l-2.27,3.02h1.6v-0.99h0.85v0.99h0.87
		C17.64,110.37,17.64,111.14,17.64,111.14z"/>
	<path fill="#3C3530" d="M21.07,109.84c0.24,0.25,0.36,0.57,0.36,0.95c0,0.28-0.07,0.54-0.22,0.78s-0.36,0.42-0.66,0.56
		c-0.29,0.14-0.65,0.21-1.07,0.21c-0.35,0-0.69-0.05-1.01-0.15s-0.6-0.24-0.83-0.42l0.39-0.71c0.18,0.15,0.39,0.27,0.65,0.35
		c0.25,0.09,0.52,0.13,0.79,0.13c0.32,0,0.57-0.07,0.76-0.2c0.18-0.13,0.28-0.31,0.28-0.54s-0.09-0.41-0.26-0.54
		c-0.18-0.13-0.44-0.19-0.8-0.19H19v-0.62l1.11-1.32h-2.23v-0.76h3.34v0.61l-1.19,1.41c0.45,0.06,0.8,0.21,1.04,0.46l0,0
		L21.07,109.84z"/>
</g>
<g>
	<path fill="#3C3530" d="M17.15,97.99h-0.87v1.11H15.4v-1.11h-2.69v-0.63l2.42-3.16h0.97l-2.27,3.02h1.6v-0.99h0.85v0.99h0.87
		C17.15,97.22,17.15,97.99,17.15,97.99z"/>
	<path fill="#3C3530" d="M21.91,97.99h-0.87v1.11h-0.88v-1.11h-2.69v-0.63l2.42-3.16h0.97l-2.28,3.02h1.6v-0.99h0.85v0.99h0.87v0.77
		C21.9,97.99,21.91,97.99,21.91,97.99z"/>
</g>
<g>
	<path fill="#3C3530" d="M17.5,84.97h-0.87v1.11h-0.88v-1.11h-2.69v-0.63l2.42-3.16h0.97l-2.27,3.02h1.6v-0.99h0.85v0.99h0.87
		C17.5,84.2,17.5,84.97,17.5,84.97z"/>
	<path fill="#3C3530" d="M20.93,83.48c0.33,0.27,0.5,0.63,0.5,1.1c0,0.29-0.07,0.56-0.22,0.8s-0.36,0.43-0.65,0.57
		c-0.29,0.14-0.65,0.21-1.07,0.21c-0.35,0-0.69-0.05-1.02-0.15s-0.6-0.24-0.83-0.42l0.39-0.71c0.18,0.15,0.4,0.27,0.66,0.35
		c0.25,0.09,0.52,0.13,0.79,0.13c0.32,0,0.57-0.07,0.76-0.2c0.18-0.13,0.28-0.32,0.28-0.55c0-0.25-0.1-0.44-0.3-0.57
		c-0.2-0.13-0.54-0.19-1.02-0.19h-1.18l0.25-2.67h2.88v0.76h-2.11l-0.11,1.13h0.47c0.69,0,1.2,0.13,1.53,0.4l0,0V83.48z"/>
</g>
<g>
	<path fill="#3C3530" d="M17.33,71.97h-0.87v1.11h-0.88v-1.11h-2.69v-0.63l2.42-3.16h0.97l-2.27,3.02h1.6v-0.99h0.85v0.99h0.87
		C17.33,71.2,17.33,71.97,17.33,71.97z"/>
	<path fill="#3C3530" d="M20.81,70.24c0.26,0.12,0.46,0.3,0.6,0.53c0.14,0.23,0.22,0.49,0.22,0.79c0,0.32-0.08,0.6-0.24,0.84
		s-0.38,0.43-0.64,0.56c-0.27,0.13-0.57,0.2-0.91,0.2c-0.67,0-1.19-0.21-1.56-0.63c-0.37-0.42-0.56-1.02-0.56-1.81
		c0-0.55,0.1-1.02,0.3-1.41s0.48-0.69,0.84-0.89s0.78-0.3,1.26-0.3c0.25,0,0.49,0.03,0.71,0.08s0.41,0.13,0.58,0.23l-0.34,0.69
		c-0.24-0.16-0.55-0.24-0.93-0.24c-0.47,0-0.84,0.14-1.11,0.43s-0.4,0.71-0.4,1.25l0,0c0.14-0.16,0.33-0.29,0.55-0.38
		s0.47-0.13,0.76-0.13C20.26,70.05,20.55,70.11,20.81,70.24z M20.48,72.21c0.18-0.15,0.27-0.35,0.27-0.61s-0.09-0.46-0.27-0.61
		s-0.42-0.22-0.71-0.22s-0.53,0.08-0.72,0.24c-0.19,0.16-0.28,0.36-0.28,0.6s0.09,0.43,0.27,0.59c0.18,0.16,0.43,0.24,0.75,0.24
		C20.08,72.44,20.31,72.36,20.48,72.21L20.48,72.21L20.48,72.21z"/>
</g>
<g>
	<path fill="#3C3530" d="M17.49,59.49h-0.87v1.11h-0.88v-1.11h-2.69v-0.63l2.42-3.16h0.97l-2.27,3.02h1.6v-0.99h0.85v0.99h0.87
		V59.49z"/>
	<path fill="#3C3530" d="M21.25,55.7v0.61l-1.9,4.29h-0.97l1.84-4.13H18.3v0.83h-0.85v-1.6h3.81C21.26,55.7,21.25,55.7,21.25,55.7z"
		/>
</g>
<g>
	<path fill="#3C3530" d="M17.21,44.57h-0.87v1.11h-0.88v-1.11h-2.69v-0.63l2.42-3.16h0.97l-2.27,3.02h1.6v-0.99h0.85v0.99h0.87
		V44.57z"/>
	<path fill="#3C3530" d="M21.44,43.58c0.14,0.2,0.21,0.43,0.21,0.7c0,0.3-0.08,0.56-0.25,0.78c-0.16,0.22-0.4,0.4-0.7,0.51
		c-0.3,0.12-0.65,0.18-1.06,0.18s-0.75-0.06-1.05-0.18s-0.53-0.29-0.7-0.51c-0.16-0.22-0.25-0.49-0.25-0.78c0-0.27,0.07-0.5,0.2-0.7
		c0.14-0.2,0.33-0.36,0.58-0.47c-0.2-0.11-0.35-0.25-0.45-0.42c-0.11-0.18-0.16-0.38-0.16-0.61c0-0.27,0.08-0.51,0.23-0.72
		c0.15-0.21,0.37-0.36,0.64-0.48c0.28-0.11,0.59-0.17,0.95-0.17s0.68,0.06,0.96,0.17c0.28,0.11,0.49,0.27,0.64,0.48
		s0.23,0.45,0.23,0.72c0,0.23-0.05,0.43-0.16,0.6s-0.26,0.31-0.46,0.43c0.26,0.12,0.45,0.27,0.59,0.47
		C21.43,43.58,21.44,43.58,21.44,43.58z M20.44,44.83c0.2-0.14,0.29-0.33,0.29-0.58s-0.1-0.43-0.29-0.57
		c-0.2-0.14-0.46-0.21-0.8-0.21s-0.6,0.07-0.79,0.21s-0.29,0.33-0.29,0.57s0.1,0.44,0.29,0.58c0.19,0.14,0.46,0.21,0.79,0.21
		S20.24,44.97,20.44,44.83z M18.97,41.61c-0.17,0.12-0.25,0.29-0.25,0.51s0.08,0.38,0.25,0.5s0.39,0.19,0.68,0.19
		s0.52-0.06,0.69-0.19s0.25-0.29,0.25-0.5s-0.08-0.39-0.26-0.51c-0.17-0.12-0.4-0.18-0.68-0.18S19.14,41.49,18.97,41.61z"/>
</g>
</svg>
