<?xml version="1.0" encoding="utf-8"?>
<!-- Generator: Adobe Illustrator 28.0.0, SVG Export Plug-In . SVG Version: 6.00 Build 0)  -->
<svg version="1.1" id="Livello_1" xmlns="http://www.w3.org/2000/svg" xmlns:xlink="http://www.w3.org/1999/xlink" x="0px" y="0px"
	 width="50px" height="677px" viewBox="0 0 48.7 677.2" style="enable-background:new 0 0 48.7 677.2;" xml:space="preserve">
<style type="text/css">
	.st0{clip-path:url(#SVGID_00000145766135071765978780000000418471589353654921_);}
	.st1{fill:#FF00C3;enable-background:new    ;}
	.st2{fill:#EE82EE;enable-background:new    ;}
	.st3{fill:#FF3333;enable-background:new    ;}
	.st4{fill:#FEC601;enable-background:new    ;}
	.st5{fill:#FFFF00;enable-background:new    ;}
	.st6{fill:#4BCF4F;enable-background:new    ;}
	.st7{fill:#7070FF;enable-background:new    ;}
	.st8{fill:#8BD8F9;enable-background:new    ;}
	.st9{fill:#39322E;}
	.st10{fill:none;}
	.st11{fill:none;stroke:#3C3430;stroke-width:2;stroke-miterlimit:9.7722;}
	.st12{fill:#3C3430;}
	.st13{fill:#3C3530;}
	.st14{fill:none;stroke:#3C3430;stroke-miterlimit:9.7722;}
	.st15{fill:#3B3330;}
	.st16{fill:#FFFFFF;}
</style>
<g>
	<g>
		<g>
			<g>
				<g>
					<g>
						<g>
							<g>
								<defs>
									<path id="SVGID_1_" d="M43,671.9c-0.5,4-9.5,4.4-18.2,4.4l-5.6-0.2c-8.5,0.4-14.3-2.4-14.3-7.1V56.1c1.8-5.5,6.4-6,13.3-6
										l9.5-0.2c7.8,0,13.6,0.8,15.4,6.5l0.3,612.7L43,671.9z"/>
								</defs>
								<clipPath id="SVGID_00000087374490411369104410000007677416676048241045_">
									<use xlink:href="#SVGID_1_"  style="overflow:visible;"/>
								</clipPath>
								<g style="clip-path:url(#SVGID_00000087374490411369104410000007677416676048241045_);">
									<g>
										<rect x="-21.1" y="43.6" class="st1" width="466.3" height="73.1"/>
										<polygon class="st2" points="-21.6,189.9 -20.9,115.8 445.4,117.6 444.7,191.8 										"/>
										<rect x="-21.1" y="189.9" class="st3" width="466.3" height="73.1"/>
										<rect x="-21.1" y="263.2" class="st4" width="466.3" height="73.2"/>
										<rect x="-21.1" y="336.3" class="st5" width="466.3" height="73.1"/>
										<rect x="-21.1" y="409.7" class="st6" width="466.3" height="73.1"/>
										<rect x="-21.1" y="482.7" class="st7" width="466.3" height="73.2"/>
										<rect x="-21.1" y="555.9" class="st8" width="466.3" height="125.2"/>
									</g>
								</g>
							</g>
						</g>
					</g>
				</g>
			</g>
		</g>
	</g>
</g>
<circle class="st9" cx="24.1" cy="26.6" r="19.8"/>
<rect x="11.1" y="632" class="st10" width="15.4" height="11.8"/>
<path class="st11" d="M36.6,675.8H12.1c-3.4,0-6.2-2.8-6.2-6.2V56.1c0-3.4,2.8-6.2,6.2-6.2h24.5c3.4,0,6.2,2.8,6.2,6.2v613.5
	C42.8,673,40,675.8,36.6,675.8z"/>
<g>
	<g>
		<path class="st12" d="M25.3,550.9v7.9h-0.9V552l-2,1.3l-0.4-0.7l2.5-1.7L25.3,550.9L25.3,550.9z"/>
	</g>
</g>
<g>
	<path class="st13" d="M23.4,110.6v0.8h-3.9l-0.2,2.6c0.6-0.3,1.2-0.5,1.9-0.5c1.7,0,2.5,0.8,2.5,2.3c0,0.9-0.2,1.6-0.7,2.1
		s-1.1,0.7-2,0.7c-0.7,0-1.4-0.1-2.2-0.3l-0.4-0.1l0.1-0.7c0.9,0.2,1.7,0.3,2.3,0.3s1.1-0.2,1.4-0.5s0.5-0.8,0.5-1.4s-0.1-1-0.4-1.2
		s-0.7-0.4-1.2-0.4c-0.3,0-0.6,0-0.9,0.1s-0.6,0.2-0.7,0.2l-0.3,0.1l-0.6-0.1l0.2-4.1L23.4,110.6L23.4,110.6z"/>
	<path class="st13" d="M27.7,110.5c0.7,0,1.2,0.1,1.6,0.4c0.9,0.5,1.3,1.8,1.3,3.8c0,1.4-0.2,2.5-0.7,3.1s-1.2,0.9-2.2,0.9
		s-1.7-0.3-2.2-0.9s-0.7-1.6-0.7-3.1s0.2-2.6,0.7-3.2C26,110.8,26.8,110.5,27.7,110.5z M27.7,111.3c-0.5,0-0.8,0.1-1.1,0.3
		c-0.6,0.4-0.9,1.4-0.9,3.1c0,1.2,0.2,2,0.5,2.5s0.8,0.7,1.5,0.7s1.2-0.2,1.5-0.7s0.5-1.3,0.5-2.5s-0.1-2.1-0.5-2.6
		C28.9,111.6,28.4,111.3,27.7,111.3z"/>
</g>
<line class="st14" x1="6.3" y1="555.7" x2="19.2" y2="555.7"/>
<line class="st14" x1="42" y1="555.7" x2="28.4" y2="555.7"/>
<line class="st14" x1="5.9" y1="116.2" x2="16.7" y2="116.2"/>
<line class="st14" x1="41.7" y1="116.2" x2="31.7" y2="116.2"/>
<g>
	<g>
		<path class="st12" d="M27.2,404.6v0.8h-3.9l-0.2,2.6c0.6-0.3,1.2-0.5,1.9-0.5c1.7,0,2.5,0.8,2.5,2.3c0,0.9-0.2,1.6-0.7,2.1
			s-1.1,0.7-2,0.7c-0.7,0-1.4-0.1-2.2-0.3l-0.4-0.1l0.1-0.7c0.9,0.2,1.7,0.3,2.3,0.3s1.1-0.2,1.4-0.5s0.5-0.8,0.5-1.4
			s-0.1-1-0.4-1.2s-0.7-0.4-1.2-0.4c-0.3,0-0.6,0-0.9,0.1s-0.6,0.2-0.7,0.2l-0.3,0.1l-0.6-0.1l0.2-4.1h4.6V404.6z"/>
	</g>
</g>
<line class="st14" x1="6.1" y1="409.4" x2="20" y2="409.4"/>
<line class="st14" x1="42.5" y1="409.4" x2="29.1" y2="409.4"/>
<g>
	<path class="st12" d="M23.9,266.2h-5.1v-0.8l2.3-2.4c0.4-0.4,0.7-0.7,0.9-0.9c0.2-0.2,0.4-0.5,0.5-0.8s0.2-0.6,0.2-0.9
		c0-0.5-0.1-0.9-0.4-1.1S21.6,259,21,259c-0.5,0-1.1,0.1-1.7,0.2l-0.3,0.1l-0.1-0.8c0.8-0.2,1.5-0.3,2.4-0.3c0.8,0,1.4,0.2,1.8,0.5
		s0.6,0.9,0.6,1.6c0,0.6-0.1,1-0.4,1.5s-0.7,0.9-1.3,1.5l-2.1,2.1h4V266.2z"/>
	<path class="st12" d="M28.1,258.2c0.7,0,1.2,0.1,1.6,0.4c0.9,0.5,1.3,1.8,1.3,3.8c0,1.4-0.2,2.5-0.7,3.1s-1.2,0.9-2.2,0.9
		s-1.7-0.3-2.2-0.9s-0.7-1.6-0.7-3.1s0.2-2.6,0.7-3.2C26.4,258.5,27.1,258.2,28.1,258.2z M28.1,259c-0.5,0-0.8,0.1-1.1,0.3
		c-0.6,0.4-0.9,1.4-0.9,3.1c0,1.2,0.2,2,0.5,2.5s0.8,0.7,1.5,0.7s1.2-0.2,1.5-0.7s0.5-1.3,0.5-2.5s-0.2-2.1-0.5-2.6
		S28.8,259,28.1,259z"/>
</g>
<line class="st14" x1="6.4" y1="262.9" x2="18.7" y2="262.9"/>
<line class="st14" x1="42.8" y1="262.9" x2="32.2" y2="262.9"/>
<g>
	<path class="st12" d="M18.7,185.8c0.8-0.2,1.6-0.3,2.4-0.3s1.5,0.2,1.9,0.5s0.6,0.9,0.6,1.6c0,0.4-0.1,0.6-0.2,0.8
		s-0.2,0.3-0.2,0.4c-0.1,0.1-0.1,0.2-0.2,0.3c-0.2,0.1-0.3,0.2-0.4,0.3l-0.1,0.1c0.5,0.2,0.8,0.4,1,0.6s0.3,0.7,0.3,1.3
		c0,0.8-0.2,1.4-0.6,1.8c-0.4,0.4-1.1,0.6-1.9,0.6c-0.7,0-1.4-0.1-2.2-0.2l-0.4-0.1l0.1-0.8c0.9,0.2,1.7,0.3,2.4,0.3
		c1.1,0,1.7-0.5,1.7-1.5s-0.5-1.4-1.6-1.5h-1.6v-1h1.6c0.3,0,0.7-0.1,1-0.4c0.3-0.3,0.5-0.6,0.5-1.1c0-0.4-0.1-0.8-0.4-1
		s-0.7-0.3-1.2-0.3c-0.6,0-1.3,0.1-1.9,0.2l-0.3,0.1L18.7,185.8z"/>
	<path class="st12" d="M27.9,185.5c0.7,0,1.2,0.1,1.6,0.4c0.9,0.5,1.3,1.8,1.3,3.8c0,1.4-0.2,2.5-0.7,3.1s-1.2,0.9-2.2,0.9
		s-1.7-0.3-2.2-0.9c-0.5-0.6-0.7-1.6-0.7-3.1s0.2-2.6,0.7-3.2C26.2,185.8,27,185.5,27.9,185.5z M27.9,186.3c-0.5,0-0.8,0.1-1.1,0.3
		c-0.6,0.4-0.9,1.4-0.9,3.1c0,1.2,0.2,2,0.5,2.5s0.8,0.7,1.5,0.7s1.2-0.2,1.5-0.7s0.5-1.3,0.5-2.5s-0.1-2.1-0.5-2.6
		C29.1,186.6,28.6,186.3,27.9,186.3z"/>
</g>
<line class="st14" x1="6.2" y1="190.2" x2="18.5" y2="190.2"/>
<line class="st14" x1="42.6" y1="190.2" x2="32" y2="190.2"/>
<g>
	<path class="st15" d="M16.5,671.9h-0.9v-6h0.9v0.4c0.6-0.4,1.2-0.5,1.8-0.5c0.7,0,1.3,0.2,1.6,0.6c0.3-0.2,0.6-0.3,1-0.4
		s0.8-0.2,1.1-0.2c0.8,0,1.3,0.2,1.6,0.6c0.3,0.4,0.4,1.2,0.4,2.3v3.2h-0.9v-3.1c0-0.8-0.1-1.4-0.2-1.7c-0.2-0.3-0.5-0.5-1-0.5
		c-0.3,0-0.5,0-0.8,0.1s-0.5,0.2-0.6,0.2l-0.2,0.1c0.1,0.3,0.2,0.8,0.2,1.8v3.1h-0.9v-3.1c0-0.9-0.1-1.5-0.2-1.8
		c-0.2-0.3-0.5-0.5-1-0.5c-0.3,0-0.5,0-0.8,0.1s-0.5,0.2-0.6,0.2l-0.2,0.1v5H16.5z"/>
	<path class="st15" d="M25.2,671.8l3.4-8.4l0.8,0.3l-3.4,8.4L25.2,671.8z"/>
	<path class="st15" d="M32.2,666.6c-0.9,0-1.3,0.3-1.3,0.9c0,0.3,0.1,0.5,0.3,0.6c0.2,0.1,0.7,0.2,1.4,0.4c0.7,0.1,1.2,0.3,1.5,0.5
		s0.4,0.6,0.4,1.3s-0.2,1.1-0.6,1.4c-0.4,0.3-1,0.4-1.7,0.4c-0.5,0-1.1-0.1-1.8-0.2l-0.4-0.1V671c0.9,0.1,1.6,0.2,2.1,0.2
		s0.8-0.1,1.1-0.2c0.2-0.1,0.4-0.4,0.4-0.7s-0.1-0.6-0.3-0.7c-0.2-0.1-0.7-0.2-1.4-0.4c-0.7-0.1-1.2-0.3-1.5-0.5s-0.4-0.6-0.4-1.2
		s0.2-1,0.6-1.3s0.9-0.4,1.5-0.4c0.5,0,1.1,0.1,1.8,0.2l0.3,0.1v0.8C33.4,666.7,32.7,666.6,32.2,666.6z"/>
</g>
<g>
	<path class="st15" d="M22.1,331v7.9h-0.9V332l-2,1.3l-0.4-0.7l2.5-1.7h0.8V331z"/>
	<path class="st15" d="M27.5,330.9c0.7,0,1.2,0.1,1.6,0.4c0.9,0.5,1.3,1.8,1.3,3.8c0,1.4-0.2,2.5-0.7,3.1s-1.2,0.9-2.2,0.9
		s-1.7-0.3-2.2-0.9s-0.7-1.6-0.7-3.1s0.2-2.6,0.7-3.2C25.8,331.2,26.5,330.9,27.5,330.9z M27.5,331.7c-0.5,0-0.8,0.1-1.1,0.3
		c-0.6,0.4-0.9,1.4-0.9,3.1c0,1.2,0.2,2,0.5,2.5s0.8,0.7,1.5,0.7s1.2-0.2,1.5-0.7s0.5-1.3,0.5-2.5s-0.2-2.1-0.5-2.6
		S28.2,331.7,27.5,331.7z"/>
</g>
<line class="st14" x1="5.8" y1="335.6" x2="18.1" y2="335.6"/>
<line class="st14" x1="42.2" y1="335.6" x2="31.6" y2="335.6"/>
<g>
	<path class="st12" d="M26.7,486h-5.1v-0.8l2.3-2.4c0.4-0.4,0.7-0.7,0.9-0.9c0.2-0.2,0.4-0.5,0.5-0.8s0.2-0.6,0.2-0.9
		c0-0.5-0.1-0.9-0.4-1.1s-0.7-0.3-1.3-0.3c-0.5,0-1.1,0.1-1.7,0.2l-0.3,0.1l-0.1-0.8c0.8-0.2,1.5-0.3,2.4-0.3c0.8,0,1.4,0.2,1.8,0.5
		s0.6,0.9,0.6,1.6c0,0.6-0.1,1-0.4,1.5s-0.7,0.9-1.3,1.5l-2.1,2.1h4V486z"/>
</g>
<line class="st14" x1="5.5" y1="482.8" x2="19.3" y2="482.8"/>
<line class="st14" x1="41.9" y1="482.8" x2="28.5" y2="482.8"/>
<path class="st16" d="M27,19.7c1.1-0.6,2.6,0.2,2.6,1.4c0,0.9-0.8,1.7-1.7,1.7H8.4c-1.1,0-1.4,0.6-1.4,1.4c0,0.6,0.3,1.4,1.4,1.4
	h19.5c2.4,0,4.3-2,4.3-4.3c0-3.3-3.6-5.5-6.5-3.6c-0.3,0.2-0.8,0.5-1.1,0.6c-1.2,0.8-0.6,2.4,0.6,2.4c0.3,0,0.5,0,0.8-0.2
	C26.2,20.2,26.6,20,27,19.7L27,19.7L27,19.7z M32.3,37.7c-1.2-0.6-0.6-2.4,0.6-2.4c0.9,0,1.7,1.1,2.7,1.1c0.9,0,1.7-0.8,1.7-1.7
	S36.5,33,35.6,33c-7.8,0-19.3-0.2-27.2-0.2c-0.8,0-1.2-0.6-1.2-1.4c0-0.8,0.5-1.4,1.2-1.4c7.8,0,19.3,0.2,27.2,0.2
	c2.4,0,4.3,2,4.3,4.3c0,3.3-3.6,5.5-6.5,3.6C33,38.1,32.6,38,32.3,37.7L32.3,37.7L32.3,37.7z M8.4,29.2C7,29.2,7,28.1,7,27.8
	c0-0.3,0-1.4,1.4-1.4h30c0.6,0,1.4-0.6,1.5-1.2c0.5-1.5-1.2-2.6-2.4-1.8c-0.3,0.2-0.8,0.5-1.1,0.6c-0.9,0.6-2-0.2-2-1.1
	c0-0.5,0.3-0.9,0.6-1.2c1.4-0.8,2.1-1.5,4-1.4c1.5,0.2,2.7,1.1,3.3,2.4c1.4,3.2-0.9,6.2-4,6.2L8.4,29.2L8.4,29.2z"/>
</svg>
