<?xml version="1.0" encoding="utf-8"?>
<!-- Generator: Adobe Illustrator 27.7.0, SVG Export Plug-In . SVG Version: 6.00 Build 0)  -->
<svg version="1.1" id="Livello_1" xmlns="http://www.w3.org/2000/svg" xmlns:xlink="http://www.w3.org/1999/xlink" x="0px" y="0px"
	width="38px" height="644px" viewBox="0 0 37.2 644.1" style="enable-background:new 0 0 37.2 644.1;" xml:space="preserve">
<style type="text/css">
	.st0{fill:none;}
	.st1{fill:#39322E;}
	.st2{clip-path:url(#SVGID_00000068660285501405038560000018434751821030109621_);}
	.st3{fill:#9600FE;}
	.st4{fill:#EE82EE;}
	.st5{fill:#FF0000;}
	.st6{fill:#FFFF00;}
	.st7{fill:#FFA600;}
	.st8{fill:#0000FE;}
	.st9{fill:#54878C;}
	.st10{fill:#457D00;}
	.st11{fill:none;stroke:#3C3430;stroke-width:2.9317;stroke-miterlimit:9.7722;}
	.st12{fill:#FFFFFF;}
	.st13{enable-background:new    ;}
	.st14{fill:#3C3430;}
	.st15{font-family:'Montserrat-SemiBold';}
	.st16{font-size:12px;}
</style>
<rect x="7" y="50" class="st0" width="23.9" height="11.5"/>
<rect x="6.6" y="83.6" class="st0" width="23.9" height="11.5"/>
<rect x="6.6" y="117.3" class="st0" width="23.9" height="11.5"/>
<rect x="6.6" y="180" class="st0" width="23.9" height="11.5"/>
<rect x="7" y="213" class="st0" width="23.9" height="11.5"/>
<rect x="6.9" y="244.2" class="st0" width="23.9" height="11.5"/>
<rect x="7" y="275.9" class="st0" width="23.9" height="11.5"/>
<rect x="7" y="307.7" class="st0" width="23.9" height="11.5"/>
<rect x="7" y="338.8" class="st0" width="23.9" height="11.5"/>
<rect x="7" y="369.7" class="st0" width="23.9" height="11.5"/>
<rect x="6.6" y="402.8" class="st0" width="23.9" height="11.5"/>
<rect x="7" y="434.7" class="st0" width="23.9" height="11.5"/>
<rect x="7" y="467.5" class="st0" width="23.9" height="11.5"/>
<rect x="5.9" y="498.5" class="st0" width="23.9" height="11.5"/>
<rect x="7" y="530" class="st0" width="23.9" height="11.5"/>
<rect x="5.9" y="561.7" class="st0" width="23.9" height="11.5"/>
<rect x="7" y="594" class="st0" width="23.9" height="11.5"/>
<rect x="-2.7" y="618.7" class="st0" width="39.7" height="18.7"/>
<circle class="st1" cx="18.7" cy="20.9" r="14.6"/>
<g>
	<g>
		<g>
			<g>
				<g>
					<defs>
						<path id="SVGID_1_" d="M30.5,634.3c-0.3,3.8-6.3,8.1-11.6,8.1l0,0c-5.2,0.4-12.2-3.6-12.2-8.1V48.6c1.1-5.3,7.2-8.5,11.4-8.5
							l0,0c4.8,0,11.2,3.2,12.3,8.7L30.5,634.3L30.5,634.3z"/>
					</defs>
					<clipPath id="SVGID_00000079465674822112538930000015825732083237535136_">
						<use xlink:href="#SVGID_1_"  style="overflow:visible;"/>
					</clipPath>
					<g style="clip-path:url(#SVGID_00000079465674822112538930000015825732083237535136_);">
						<g>
							<rect x="-9.3" y="36.6" class="st3" width="286.1" height="69.9"/>
							
								<rect x="98.2" y="-1.2" transform="matrix(6.194789e-03 -1 1 6.194789e-03 -8.9819 274.6599)" class="st4" width="70.9" height="286.1"/>
							<rect x="-9.3" y="176.5" class="st5" width="286.1" height="69.9"/>
							<rect x="-9.3" y="246.5" class="st6" width="286.1" height="70"/>
							<rect x="-9.3" y="316.4" class="st7" width="286.1" height="69.9"/>
							<rect x="-9.3" y="386.3" class="st8" width="286.1" height="69.9"/>
							<rect x="-9.3" y="456.3" class="st9" width="286.1" height="70"/>
							<rect x="-9.3" y="526.2" class="st10" width="286.1" height="119.7"/>
						</g>
					</g>
				</g>
			</g>
		</g>
	</g>
</g>
<path class="st11" d="M30.5,634.3c-0.3,3.8-6.3,8.1-11.6,8.1l0,0c-5.2,0.4-12.2-3.6-12.2-8.1V48.6c1.1-5.3,7.2-8.5,11.4-8.5l0,0
	c4.8,0,11.2,3.2,12.3,8.7L30.5,634.3L30.5,634.3z"/>
<g id="Up_Arrow_1_00000078746645361779287630000002000688534917046703_">
	<g>
		<path class="st12" d="M24.4,600.7c0,0-3.7-4.5-5.1-5.9c-0.1-0.1-0.2-0.1-0.3-0.1c-0.1,0-0.3,0-0.3,0.1c-1.3,1.4-5.2,5.6-5.2,5.6
			s-0.2,0.3-0.2,0.5s0.3,0.5,0.5,0.5c0.1,0,0.2,0,0.3-0.1c1.2-1,4.3-4.6,4.3-4.6v21.9c0,0.3,0.2,0.6,0.5,0.6c0.2,0,0.5-0.2,0.5-0.6
			v-22l4.3,4.6c0.1,0.1,0.2,0.1,0.3,0.1C24.1,601.3,24.5,600.8,24.4,600.7z"/>
	</g>
</g>
<g>
	<path class="st12" d="M17.8,627.4v1h-4.7v-0.8l2.5-2.3c0.3-0.2,0.5-0.4,0.6-0.7c0.1-0.2,0.1-0.4,0.1-0.6c0-0.3-0.1-0.6-0.3-0.7
		c-0.2-0.1-0.5-0.2-0.9-0.2c-0.7,0-1.1,0.2-1.5,0.7l-0.8-0.7c0.2-0.3,0.6-0.6,1-0.8c0.5-0.2,0.9-0.2,1.4-0.2c0.7,0,1.3,0.1,1.7,0.4
		c0.5,0.3,0.6,0.8,0.6,1.3c0,0.3-0.1,0.7-0.2,1s-0.5,0.7-0.8,1l-1.7,1.6h3.1C17.8,627.5,17.8,627.4,17.8,627.4z"/>
	<path class="st12" d="M19.7,628c-0.5-0.2-0.7-0.7-0.9-1.1c-0.2-0.4-0.3-1.1-0.3-1.7s0.1-1.2,0.3-1.7c0.2-0.4,0.6-0.9,0.9-1.1
		c0.3-0.2,0.9-0.3,1.4-0.3s0.9,0.1,1.4,0.3s0.7,0.7,0.9,1.1c0.2,0.4,0.3,1.1,0.3,1.7s-0.1,1.2-0.3,1.7c-0.2,0.4-0.6,0.9-0.9,1.1
		c-0.5,0.2-0.9,0.3-1.4,0.3S20.1,628.3,19.7,628z M22.2,626.9c0.2-0.3,0.3-0.9,0.3-1.7s-0.1-1.2-0.3-1.7c-0.2-0.3-0.6-0.6-1-0.6
		s-0.8,0.2-1,0.6c-0.2,0.3-0.3,0.9-0.3,1.7s0.1,1.2,0.3,1.7c0.2,0.3,0.6,0.6,1,0.6S21.9,627.3,22.2,626.9z"/>
	<path class="st12" d="M18.2,631.8c0.3,0.3,0.6,0.9,0.6,1.6v2.7h-1.1v-2.6c0-0.4-0.1-0.8-0.2-0.9c-0.2-0.2-0.5-0.3-0.8-0.3
		s-0.7,0.1-0.9,0.3c-0.2,0.2-0.3,0.6-0.3,1v2.5h-1.1v-2.6c0-0.4-0.1-0.8-0.2-0.9c-0.2-0.2-0.5-0.3-0.8-0.3s-0.7,0.1-0.9,0.3
		s-0.3,0.6-0.3,1.1v2.5h-1.1v-4.8h1.1v0.6c0.2-0.2,0.5-0.3,0.7-0.4c0.2-0.1,0.6-0.2,0.9-0.2s0.7,0.1,1,0.2c0.3,0.1,0.5,0.3,0.7,0.6
		c0.2-0.2,0.5-0.4,0.8-0.6c0.3-0.1,0.7-0.2,1-0.2C17.4,631.4,17.9,631.5,18.2,631.8z"/>
	<path class="st12" d="M22.3,628.6h1l-3,8.4h-1L22.3,628.6z"/>
	<path class="st12" d="M23.4,636.1c-0.3-0.1-0.7-0.2-0.9-0.3l0.5-0.9c0.2,0.1,0.5,0.2,0.8,0.3s0.6,0.1,0.9,0.1c0.7,0,1-0.2,1-0.6
		c0-0.1-0.1-0.3-0.2-0.3s-0.5-0.1-0.8-0.2c-0.5-0.1-0.7-0.1-1-0.2c-0.2-0.1-0.5-0.2-0.7-0.4s-0.2-0.4-0.2-0.8c0-0.4,0.2-0.8,0.6-1.1
		c0.3-0.2,0.9-0.4,1.6-0.4c0.3,0,0.7,0,1,0.1s0.6,0.2,0.8,0.3l-0.5,0.9c-0.5-0.2-0.9-0.3-1.4-0.3c-0.3,0-0.6,0-0.8,0.1
		c-0.2,0.1-0.2,0.2-0.2,0.3c0,0.2,0.1,0.3,0.2,0.3c0.2,0.1,0.5,0.1,0.9,0.2c0.3,0.1,0.7,0.1,0.9,0.2c0.2,0.1,0.5,0.2,0.7,0.4
		s0.2,0.4,0.2,0.8c0,0.4-0.2,0.8-0.6,1.1c-0.3,0.2-0.9,0.4-1.6,0.4C24.2,636.2,23.8,636.2,23.4,636.1z"/>
</g>
<path class="st12" d="M20.3,15.6c0.7-0.4,1.7,0.1,1.7,0.9c0,0.6-0.5,1.1-1.1,1.1H8.1c-0.7,0-0.9,0.4-0.9,0.9c0,0.4,0.2,0.9,0.9,0.9
	h12.8c1.6,0,2.8-1.3,2.8-2.8c0-2.2-2.4-3.6-4.3-2.4c-0.2,0.1-0.5,0.3-0.7,0.4c-0.8,0.5-0.4,1.6,0.4,1.6c0.2,0,0.3,0,0.5-0.1
	C19.8,15.9,20.1,15.8,20.3,15.6L20.3,15.6L20.3,15.6z M23.8,27.4c-0.8-0.4-0.4-1.6,0.4-1.6c0.6,0,1.1,0.7,1.8,0.7
	c0.6,0,1.1-0.5,1.1-1.1s-0.5-1.1-1.1-1.1c-5.1,0-12.7-0.1-17.9-0.1c-0.5,0-0.8-0.4-0.8-0.9s0.3-0.9,0.8-0.9c5.1,0,12.7,0.1,17.9,0.1
	c1.6,0,2.8,1.3,2.8,2.8c0,2.2-2.4,3.6-4.3,2.4C24.3,27.7,24,27.6,23.8,27.4L23.8,27.4L23.8,27.4z M8.1,21.8c-0.9,0-0.9-0.7-0.9-0.9
	c0-0.2,0-0.9,0.9-0.9h19.7c0.4,0,0.9-0.4,1-0.8c0.3-1-0.8-1.7-1.6-1.2c-0.2,0.1-0.5,0.3-0.7,0.4c-0.6,0.4-1.3-0.1-1.3-0.7
	c0-0.3,0.2-0.6,0.4-0.8c0.9-0.5,1.4-1,2.6-0.9c1,0.1,1.8,0.7,2.2,1.6c0.9,2.1-0.6,4.1-2.6,4.1L8.1,21.8L8.1,21.8z"/>
<rect x="8.2" y="549.7" class="st0" width="20.8" height="9.6"/>
<g class="st13">
	<path class="st12" d="M19.7,550.2v8.4h-1.6v-7.1h-1.8v-1.3H19.7z"/>
</g>
<rect x="8.5" y="486.3" class="st0" width="20.8" height="9.6"/>
<g class="st13">
	<path class="st12" d="M22.1,493.9v1.3h-6.2v-1l3.3-3.2c0.4-0.4,0.6-0.7,0.8-0.9c0.1-0.3,0.2-0.5,0.2-0.8c0-0.4-0.1-0.7-0.4-0.9
		c-0.3-0.2-0.7-0.3-1.2-0.3c-0.9,0-1.5,0.3-2,0.9l-1.1-0.8c0.3-0.4,0.8-0.8,1.3-1c0.6-0.2,1.2-0.4,1.9-0.4c0.9,0,1.6,0.2,2.2,0.6
		c0.5,0.4,0.8,1,0.8,1.8c0,0.5-0.1,0.9-0.3,1.3c-0.2,0.4-0.6,0.9-1.1,1.4l-2.2,2.1H22.1z"/>
</g>
<rect x="8.1" y="206.6" class="st0" width="20.8" height="9.6"/>
<g class="st13">
	<path class="st12" d="M16.9,211.3c0.4,0.4,0.6,1,0.6,1.6c0,0.5-0.1,0.9-0.4,1.3c-0.2,0.4-0.6,0.7-1.1,1c-0.5,0.2-1.1,0.4-1.8,0.4
		c-0.6,0-1.2-0.1-1.7-0.3c-0.6-0.2-1-0.4-1.4-0.7l0.7-1.2c0.3,0.3,0.7,0.5,1.1,0.6c0.4,0.1,0.9,0.2,1.4,0.2c0.6,0,1-0.1,1.3-0.3
		c0.3-0.2,0.5-0.5,0.5-0.9s-0.1-0.7-0.4-0.9c-0.3-0.2-0.8-0.3-1.4-0.3h-0.8v-1.1l1.9-2.3h-3.8v-1.3h5.7v1l-2,2.4
		C15.9,210.6,16.5,210.9,16.9,211.3z"/>
	<path class="st12" d="M20.2,215.1c-0.5-0.3-0.9-0.8-1.2-1.5s-0.5-1.4-0.5-2.3c0-0.9,0.2-1.7,0.5-2.3c0.3-0.7,0.7-1.1,1.2-1.5
		c0.5-0.3,1.1-0.5,1.8-0.5s1.3,0.2,1.8,0.5s1,0.8,1.3,1.5c0.3,0.7,0.5,1.4,0.5,2.3c0,0.9-0.2,1.7-0.5,2.3c-0.3,0.7-0.7,1.1-1.3,1.5
		s-1.1,0.5-1.8,0.5S20.8,215.4,20.2,215.1z M23.5,213.5c0.3-0.5,0.5-1.2,0.5-2.2c0-1-0.2-1.7-0.5-2.2s-0.8-0.7-1.4-0.7
		c-0.6,0-1.1,0.2-1.4,0.7c-0.3,0.5-0.5,1.2-0.5,2.2c0,1,0.2,1.7,0.5,2.2c0.3,0.5,0.8,0.7,1.4,0.7C22.6,214.2,23.1,214,23.5,213.5z"
		/>
</g>
<rect x="8.1" y="276.9" class="st0" width="20.8" height="9.6"/>
<g class="st13">
	<path class="st14" d="M17.6,284.5v1.3h-6.2v-1l3.3-3.2c0.4-0.4,0.6-0.7,0.8-0.9c0.1-0.3,0.2-0.5,0.2-0.8c0-0.4-0.1-0.7-0.4-0.9
		c-0.3-0.2-0.7-0.3-1.2-0.3c-0.9,0-1.5,0.3-2,0.9l-1.1-0.8c0.3-0.4,0.8-0.8,1.3-1c0.6-0.2,1.2-0.4,1.9-0.4c0.9,0,1.6,0.2,2.2,0.6
		c0.5,0.4,0.8,1,0.8,1.8c0,0.5-0.1,0.9-0.3,1.3c-0.2,0.4-0.6,0.9-1.1,1.4l-2.2,2.1H17.6z"/>
	<path class="st14" d="M20.2,285.4c-0.5-0.3-0.9-0.8-1.2-1.5s-0.5-1.4-0.5-2.3c0-0.9,0.2-1.7,0.5-2.3c0.3-0.7,0.7-1.1,1.2-1.5
		c0.5-0.3,1.1-0.5,1.8-0.5s1.3,0.2,1.8,0.5s1,0.8,1.3,1.5c0.3,0.7,0.5,1.4,0.5,2.3c0,0.9-0.2,1.7-0.5,2.3c-0.3,0.7-0.7,1.1-1.3,1.5
		s-1.1,0.5-1.8,0.5S20.7,285.7,20.2,285.4z M23.4,283.8c0.3-0.5,0.5-1.2,0.5-2.2c0-1-0.2-1.7-0.5-2.2s-0.8-0.7-1.4-0.7
		c-0.6,0-1.1,0.2-1.4,0.7c-0.3,0.5-0.5,1.2-0.5,2.2c0,1,0.2,1.7,0.5,2.2c0.3,0.5,0.8,0.7,1.4,0.7C22.6,284.5,23.1,284.3,23.4,283.8z
		"/>
</g>
<rect x="8.1" y="346.5" class="st0" width="20.8" height="9.6"/>
<g class="st13">
	<path class="st12" d="M15.7,347v8.4h-1.6v-7.1h-1.8V347H15.7z"/>
	<path class="st12" d="M19,355c-0.5-0.3-0.9-0.8-1.2-1.5s-0.5-1.4-0.5-2.3c0-0.9,0.2-1.7,0.5-2.3c0.3-0.7,0.7-1.1,1.2-1.5
		s1.1-0.5,1.8-0.5s1.3,0.2,1.8,0.5s1,0.8,1.3,1.5c0.3,0.7,0.5,1.4,0.5,2.3c0,0.9-0.2,1.7-0.5,2.3c-0.3,0.7-0.7,1.1-1.3,1.5
		s-1.1,0.5-1.8,0.5S19.6,355.4,19,355z M22.3,353.4c0.3-0.5,0.5-1.2,0.5-2.2c0-1-0.2-1.7-0.5-2.2s-0.8-0.7-1.4-0.7
		c-0.6,0-1.1,0.2-1.4,0.7s-0.5,1.2-0.5,2.2c0,1,0.2,1.7,0.5,2.2c0.3,0.5,0.8,0.7,1.4,0.7C21.4,354.2,21.9,353.9,22.3,353.4z"/>
</g>
<rect x="8.5" y="416.4" class="st0" width="20.8" height="9.6"/>
<g class="st13">
	<path class="st12" d="M21.2,420.9c0.6,0.5,0.9,1.1,0.9,1.9c0,0.5-0.1,1-0.4,1.4c-0.2,0.4-0.6,0.7-1.1,1s-1.1,0.4-1.8,0.4
		c-0.6,0-1.2-0.1-1.7-0.3s-1-0.4-1.4-0.7l0.7-1.2c0.3,0.3,0.7,0.5,1.1,0.6c0.4,0.1,0.9,0.2,1.4,0.2c0.6,0,1-0.1,1.3-0.3
		c0.3-0.2,0.5-0.5,0.5-0.9c0-0.4-0.2-0.8-0.5-1c-0.3-0.2-0.9-0.3-1.7-0.3h-2l0.4-4.6h4.9v1.3H18l-0.2,1.9h0.8
		C19.8,420.2,20.7,420.4,21.2,420.9z"/>
</g>
<rect x="8.5" y="66.9" class="st0" width="20.8" height="9.6"/>
<g class="st13">
	<path class="st12" d="M18.1,67.4v1l-3.3,7.4h-1.7l3.2-7.1H13v1.4h-1.5v-2.7H18.1z"/>
	<path class="st12" d="M20.5,75.4c-0.5-0.3-0.9-0.8-1.2-1.5s-0.5-1.4-0.5-2.3c0-0.9,0.2-1.7,0.5-2.3c0.3-0.7,0.7-1.1,1.2-1.5
		c0.5-0.3,1.1-0.5,1.8-0.5s1.3,0.2,1.8,0.5c0.5,0.3,0.9,0.8,1.3,1.5c0.3,0.7,0.5,1.4,0.5,2.3c0,0.9-0.2,1.7-0.5,2.3
		c-0.3,0.7-0.7,1.1-1.3,1.5C23.6,75.8,23,76,22.3,76S21,75.8,20.5,75.4z M23.7,73.9c0.3-0.5,0.5-1.2,0.5-2.2c0-1-0.2-1.7-0.5-2.2
		s-0.8-0.7-1.4-0.7c-0.6,0-1.1,0.2-1.4,0.7c-0.3,0.5-0.5,1.2-0.5,2.2c0,1,0.2,1.7,0.5,2.2c0.3,0.5,0.8,0.7,1.4,0.7
		C22.9,74.6,23.4,74.4,23.7,73.9z"/>
</g>
<rect x="8.2" y="137.3" class="st0" width="20.8" height="9.6"/>
<text transform="matrix(1 0 0 1 11.0574 146.158)" class="st12 st15 st16">50</text>
</svg>
