<?xml version="1.0" encoding="utf-8"?>
<!-- Generator: Adobe Illustrator 27.9.0, SVG Export Plug-In . SVG Version: 6.00 Build 0)  -->
<svg version="1.1" id="Livello_1" xmlns="http://www.w3.org/2000/svg" xmlns:xlink="http://www.w3.org/1999/xlink" x="0px" y="0px"
	 width="38px" height="644px" viewBox="0 0 37.2 644.1" style="enable-background:new 0 0 38 644;" xml:space="preserve">
<style type="text/css">
	.st0{fill:none;}
	.st1{fill:#39322E;}
	.st2{clip-path:url(#SVGID_00000025404235949419688790000001847896777617472424_);}
	.st3{fill:#9600FE;}
	.st4{fill:#EE82EE;}
	.st5{fill:#FF0000;}
	.st6{fill:#FFFF00;}
	.st7{fill:#FFA600;}
	.st8{fill:#0000FE;}
	.st9{fill:#54878C;}
	.st10{fill:#457D00;}
	.st11{fill:none;stroke:#3C3430;stroke-width:2.9312;stroke-miterlimit:9.7707;}
	.st12{fill:#FFFFFF;}
	.st13{enable-background:new    ;}
	.st14{fill:#3C3430;}
	.st15{font-family:'Montserrat-SemiBold';}
	.st16{font-size:11.9981px;}
</style>
<rect x="7.4" y="50" class="st0" width="23.9" height="11.5"/>
<rect x="7" y="83.6" class="st0" width="23.9" height="11.5"/>
<rect x="7" y="117.3" class="st0" width="23.9" height="11.5"/>
<rect x="7" y="180" class="st0" width="23.9" height="11.5"/>
<rect x="7.4" y="213" class="st0" width="23.9" height="11.5"/>
<rect x="7.3" y="244.2" class="st0" width="23.9" height="11.5"/>
<rect x="7.4" y="275.9" class="st0" width="23.9" height="11.5"/>
<rect x="7.4" y="307.7" class="st0" width="23.9" height="11.5"/>
<rect x="7.4" y="338.7" class="st0" width="23.9" height="11.5"/>
<rect x="7.4" y="369.6" class="st0" width="23.9" height="11.5"/>
<rect x="7" y="402.7" class="st0" width="23.9" height="11.5"/>
<rect x="7.4" y="434.6" class="st0" width="23.9" height="11.5"/>
<rect x="7.4" y="467.4" class="st0" width="23.9" height="11.5"/>
<rect x="6.3" y="498.4" class="st0" width="23.9" height="11.5"/>
<rect x="7.4" y="529.9" class="st0" width="23.9" height="11.5"/>
<rect x="6.3" y="561.6" class="st0" width="23.9" height="11.5"/>
<rect x="7.4" y="593.9" class="st0" width="23.9" height="11.5"/>
<rect x="-2.3" y="618.6" class="st0" width="39.7" height="18.7"/>
<circle class="st1" cx="19.1" cy="20.9" r="14.6"/>
<g>
	<g>
		<g>
			<g>
				<g>
					<g>
						<defs>
							<path id="SVGID_1_" d="M30.9,634.2c-0.3,3.8-6.3,8.1-11.6,8.1l0,0c-5.2,0.4-12.2-3.6-12.2-8.1V48.6c1.1-5.3,7.2-8.5,11.4-8.5
								l0,0c4.8,0,11.2,3.2,12.3,8.7L30.9,634.2L30.9,634.2z"/>
						</defs>
						<clipPath id="SVGID_00000035489873319679079770000010211005816259389872_">
							<use xlink:href="#SVGID_1_"  style="overflow:visible;"/>
						</clipPath>
						<g style="clip-path:url(#SVGID_00000035489873319679079770000010211005816259389872_);">
							<g>
								<rect x="-8.9" y="36.6" class="st3" width="286.1" height="69.9"/>
								
									<rect x="98.6" y="-1.2" transform="matrix(6.194670e-03 -1 1 6.194670e-03 -8.6163 275.0634)" class="st4" width="70.9" height="286.1"/>
								<rect x="-8.9" y="176.5" class="st5" width="286.1" height="69.9"/>
								<rect x="-8.9" y="246.5" class="st6" width="286.1" height="70"/>
								<rect x="-8.9" y="316.4" class="st7" width="286.1" height="69.9"/>
								<rect x="-8.9" y="386.2" class="st8" width="286.1" height="69.9"/>
								<rect x="-8.9" y="456.2" class="st9" width="286.1" height="70"/>
								<rect x="-8.9" y="526.1" class="st10" width="286.1" height="119.7"/>
							</g>
						</g>
					</g>
				</g>
			</g>
		</g>
	</g>
</g>
<path class="st11" d="M30.9,634.2c-0.3,3.8-6.3,8.1-11.6,8.1l0,0c-5.2,0.4-12.2-3.6-12.2-8.1V48.6c1.1-5.3,7.2-8.5,11.4-8.5l0,0
	c4.8,0,11.2,3.2,12.3,8.7L30.9,634.2L30.9,634.2z"/>
<g id="Up_Arrow_1_00000078746645361779287630000002000688534917046703_">
	<g>
		<path class="st12" d="M24.8,600.6c0,0-3.7-4.5-5.1-5.9c-0.1-0.1-0.2-0.1-0.3-0.1c-0.1,0-0.3,0-0.3,0.1c-1.3,1.4-5.2,5.6-5.2,5.6
			s-0.2,0.3-0.2,0.5c0,0.2,0.3,0.5,0.5,0.5c0.1,0,0.2,0,0.3-0.1c1.2-1,4.3-4.6,4.3-4.6v21.9c0,0.3,0.2,0.6,0.5,0.6
			c0.2,0,0.5-0.2,0.5-0.6v-22l4.3,4.6c0.1,0.1,0.2,0.1,0.3,0.1C24.5,601.2,24.9,600.7,24.8,600.6z"/>
	</g>
</g>
<g>
	<path class="st12" d="M18.2,627.3v1h-4.7v-0.8l2.5-2.3c0.3-0.2,0.5-0.4,0.6-0.7c0.1-0.2,0.1-0.4,0.1-0.6c0-0.3-0.1-0.6-0.3-0.7
		c-0.2-0.1-0.5-0.2-0.9-0.2c-0.7,0-1.1,0.2-1.5,0.7l-0.8-0.7c0.2-0.3,0.6-0.6,1-0.8c0.5-0.2,0.9-0.2,1.4-0.2c0.7,0,1.3,0.1,1.7,0.4
		c0.5,0.3,0.6,0.8,0.6,1.3c0,0.3-0.1,0.7-0.2,1s-0.5,0.7-0.8,1l-1.7,1.6H18.2C18.2,627.4,18.2,627.3,18.2,627.3z"/>
	<path class="st12" d="M20.1,627.9c-0.5-0.2-0.7-0.7-0.9-1.1c-0.2-0.4-0.3-1.1-0.3-1.7c0-0.6,0.1-1.2,0.3-1.7
		c0.2-0.4,0.6-0.9,0.9-1.1s0.9-0.3,1.4-0.3s0.9,0.1,1.4,0.3c0.5,0.2,0.7,0.7,0.9,1.1c0.2,0.4,0.3,1.1,0.3,1.7c0,0.6-0.1,1.2-0.3,1.7
		c-0.2,0.4-0.6,0.9-0.9,1.1c-0.5,0.2-0.9,0.3-1.4,0.3S20.5,628.2,20.1,627.9z M22.6,626.8c0.2-0.3,0.3-0.9,0.3-1.7s-0.1-1.2-0.3-1.7
		c-0.2-0.3-0.6-0.6-1-0.6c-0.4,0-0.8,0.2-1,0.6c-0.2,0.3-0.3,0.9-0.3,1.7s0.1,1.2,0.3,1.7c0.2,0.3,0.6,0.6,1,0.6
		C22,627.4,22.3,627.2,22.6,626.8z"/>
	<path class="st12" d="M18.6,631.7c0.3,0.3,0.6,0.9,0.6,1.6v2.7h-1.1v-2.6c0-0.4-0.1-0.8-0.2-0.9c-0.2-0.2-0.5-0.3-0.8-0.3
		s-0.7,0.1-0.9,0.3c-0.2,0.2-0.3,0.6-0.3,1v2.5h-1.1v-2.6c0-0.4-0.1-0.8-0.2-0.9c-0.2-0.2-0.5-0.3-0.8-0.3s-0.7,0.1-0.9,0.3
		c-0.2,0.2-0.3,0.6-0.3,1.1v2.5h-1.1v-4.8h1.1v0.6c0.2-0.2,0.5-0.3,0.7-0.4c0.2-0.1,0.6-0.2,0.9-0.2s0.7,0.1,1,0.2
		c0.3,0.1,0.5,0.3,0.7,0.6c0.2-0.2,0.5-0.4,0.8-0.6c0.3-0.1,0.7-0.2,1-0.2C17.8,631.3,18.3,631.4,18.6,631.7z"/>
	<path class="st12" d="M22.7,628.5h1l-3,8.4h-1L22.7,628.5z"/>
	<path class="st12" d="M23.8,636c-0.3-0.1-0.7-0.2-0.9-0.3l0.5-0.9c0.2,0.1,0.5,0.2,0.8,0.3c0.3,0.1,0.6,0.1,0.9,0.1
		c0.7,0,1-0.2,1-0.6c0-0.1-0.1-0.3-0.2-0.3s-0.5-0.1-0.8-0.2c-0.5-0.1-0.7-0.1-1-0.2c-0.2-0.1-0.5-0.2-0.7-0.4
		c-0.2-0.2-0.2-0.4-0.2-0.8c0-0.4,0.2-0.8,0.6-1.1c0.3-0.2,0.9-0.4,1.6-0.4c0.3,0,0.7,0,1,0.1c0.3,0.1,0.6,0.2,0.8,0.3l-0.5,0.9
		c-0.5-0.2-0.9-0.3-1.4-0.3c-0.3,0-0.6,0-0.8,0.1c-0.2,0.1-0.2,0.2-0.2,0.3c0,0.2,0.1,0.3,0.2,0.3c0.2,0.1,0.5,0.1,0.9,0.2
		c0.3,0.1,0.7,0.1,0.9,0.2c0.2,0.1,0.5,0.2,0.7,0.4c0.2,0.2,0.2,0.4,0.2,0.8c0,0.4-0.2,0.8-0.6,1.1c-0.3,0.2-0.9,0.4-1.6,0.4
		C24.6,636.1,24.2,636.1,23.8,636z"/>
</g>
<path class="st12" d="M20.7,15.6c0.7-0.4,1.7,0.1,1.7,0.9c0,0.6-0.5,1.1-1.1,1.1H8.5c-0.7,0-0.9,0.4-0.9,0.9c0,0.4,0.2,0.9,0.9,0.9
	h12.8c1.6,0,2.8-1.3,2.8-2.8c0-2.2-2.4-3.6-4.3-2.4c-0.2,0.1-0.5,0.3-0.7,0.4c-0.8,0.5-0.4,1.6,0.4,1.6c0.2,0,0.3,0,0.5-0.1
	C20.2,15.9,20.5,15.8,20.7,15.6L20.7,15.6L20.7,15.6z M24.2,27.4c-0.8-0.4-0.4-1.6,0.4-1.6c0.6,0,1.1,0.7,1.8,0.7
	c0.6,0,1.1-0.5,1.1-1.1s-0.5-1.1-1.1-1.1c-5.1,0-12.7-0.1-17.9-0.1c-0.5,0-0.8-0.4-0.8-0.9s0.3-0.9,0.8-0.9c5.1,0,12.7,0.1,17.9,0.1
	c1.6,0,2.8,1.3,2.8,2.8c0,2.2-2.4,3.6-4.3,2.4C24.7,27.7,24.4,27.6,24.2,27.4L24.2,27.4L24.2,27.4z M8.5,21.8
	c-0.9,0-0.9-0.7-0.9-0.9s0-0.9,0.9-0.9h19.7c0.4,0,0.9-0.4,1-0.8c0.3-1-0.8-1.7-1.6-1.2c-0.2,0.1-0.5,0.3-0.7,0.4
	c-0.6,0.4-1.3-0.1-1.3-0.7c0-0.3,0.2-0.6,0.4-0.8c0.9-0.5,1.4-1,2.6-0.9c1,0.1,1.8,0.7,2.2,1.6c0.9,2.1-0.6,4.1-2.6,4.1L8.5,21.8
	L8.5,21.8z"/>
<rect x="8.6" y="549.6" class="st0" width="20.8" height="9.6"/>
<g class="st13">
	<path class="st12" d="M20.1,550.1v8.4h-1.6v-7.1h-1.8v-1.3L20.1,550.1L20.1,550.1z"/>
</g>
<rect x="8.9" y="486.2" class="st0" width="20.8" height="9.6"/>
<g class="st13">
	<path class="st12" d="M22.5,493.8v1.3h-6.2v-1l3.3-3.2c0.4-0.4,0.6-0.7,0.8-0.9c0.1-0.3,0.2-0.5,0.2-0.8c0-0.4-0.1-0.7-0.4-0.9
		c-0.3-0.2-0.7-0.3-1.2-0.3c-0.9,0-1.5,0.3-2,0.9l-1.1-0.8c0.3-0.4,0.8-0.8,1.3-1c0.6-0.2,1.2-0.4,1.9-0.4c0.9,0,1.6,0.2,2.2,0.6
		c0.5,0.4,0.8,1,0.8,1.8c0,0.5-0.1,0.9-0.3,1.3c-0.2,0.4-0.6,0.9-1.1,1.4l-2.2,2.1h4V493.8z"/>
</g>
<rect x="8.5" y="206.6" class="st0" width="20.8" height="9.6"/>
<g class="st13">
	<path class="st12" d="M17.3,211.3c0.4,0.4,0.6,1,0.6,1.6c0,0.5-0.1,0.9-0.4,1.3c-0.2,0.4-0.6,0.7-1.1,1c-0.5,0.2-1.1,0.4-1.8,0.4
		c-0.6,0-1.2-0.1-1.7-0.3c-0.6-0.2-1-0.4-1.4-0.7l0.7-1.2c0.3,0.3,0.7,0.5,1.1,0.6c0.4,0.1,0.9,0.2,1.4,0.2c0.6,0,1-0.1,1.3-0.3
		c0.3-0.2,0.5-0.5,0.5-0.9s-0.1-0.7-0.4-0.9c-0.3-0.2-0.8-0.3-1.4-0.3h-0.8v-1.1l1.9-2.3H12v-1.3h5.7v1l-2,2.4
		C16.3,210.6,16.9,210.9,17.3,211.3z"/>
	<path class="st12" d="M20.6,215.1c-0.5-0.3-0.9-0.8-1.2-1.5c-0.3-0.7-0.5-1.4-0.5-2.3c0-0.9,0.2-1.7,0.5-2.3
		c0.3-0.7,0.7-1.1,1.2-1.5c0.5-0.3,1.1-0.5,1.8-0.5s1.3,0.2,1.8,0.5c0.5,0.3,1,0.8,1.3,1.5c0.3,0.7,0.5,1.4,0.5,2.3
		c0,0.9-0.2,1.7-0.5,2.3c-0.3,0.7-0.7,1.1-1.3,1.5s-1.1,0.5-1.8,0.5S21.2,215.4,20.6,215.1z M23.9,213.5c0.3-0.5,0.5-1.2,0.5-2.2
		s-0.2-1.7-0.5-2.2c-0.3-0.5-0.8-0.7-1.4-0.7c-0.6,0-1.1,0.2-1.4,0.7c-0.3,0.5-0.5,1.2-0.5,2.2s0.2,1.7,0.5,2.2
		c0.3,0.5,0.8,0.7,1.4,0.7C23,214.2,23.5,214,23.9,213.5z"/>
</g>
<rect x="8.5" y="276.9" class="st0" width="20.8" height="9.6"/>
<g class="st13">
	<path class="st14" d="M18,284.5v1.3h-6.2v-1l3.3-3.2c0.4-0.4,0.6-0.7,0.8-0.9c0.1-0.3,0.2-0.5,0.2-0.8c0-0.4-0.1-0.7-0.4-0.9
		c-0.3-0.2-0.7-0.3-1.2-0.3c-0.9,0-1.5,0.3-2,0.9l-1.1-0.8c0.3-0.4,0.8-0.8,1.3-1c0.6-0.2,1.2-0.4,1.9-0.4c0.9,0,1.6,0.2,2.2,0.6
		c0.5,0.4,0.8,1,0.8,1.8c0,0.5-0.1,0.9-0.3,1.3c-0.2,0.4-0.6,0.9-1.1,1.4l-2.2,2.1h4V284.5z"/>
	<path class="st14" d="M20.6,285.4c-0.5-0.3-0.9-0.8-1.2-1.5c-0.3-0.7-0.5-1.4-0.5-2.3c0-0.9,0.2-1.7,0.5-2.3
		c0.3-0.7,0.7-1.1,1.2-1.5c0.5-0.3,1.1-0.5,1.8-0.5s1.3,0.2,1.8,0.5c0.5,0.3,1,0.8,1.3,1.5c0.3,0.7,0.5,1.4,0.5,2.3
		c0,0.9-0.2,1.7-0.5,2.3c-0.3,0.7-0.7,1.1-1.3,1.5c-0.6,0.4-1.1,0.5-1.8,0.5S21.1,285.7,20.6,285.4z M23.8,283.8
		c0.3-0.5,0.5-1.2,0.5-2.2s-0.2-1.7-0.5-2.2c-0.3-0.5-0.8-0.7-1.4-0.7s-1.1,0.2-1.4,0.7c-0.3,0.5-0.5,1.2-0.5,2.2s0.2,1.7,0.5,2.2
		c0.3,0.5,0.8,0.7,1.4,0.7S23.5,284.3,23.8,283.8z"/>
</g>
<rect x="8.5" y="346.4" class="st0" width="20.8" height="9.6"/>
<g class="st13">
	<path class="st12" d="M16.1,346.9v8.4h-1.6v-7.1h-1.8v-1.3H16.1z"/>
	<path class="st12" d="M19.4,354.9c-0.5-0.3-0.9-0.8-1.2-1.5c-0.3-0.7-0.5-1.4-0.5-2.3c0-0.9,0.2-1.7,0.5-2.3
		c0.3-0.7,0.7-1.1,1.2-1.5s1.1-0.5,1.8-0.5s1.3,0.2,1.8,0.5c0.5,0.3,1,0.8,1.3,1.5c0.3,0.7,0.5,1.4,0.5,2.3c0,0.9-0.2,1.7-0.5,2.3
		c-0.3,0.7-0.7,1.1-1.3,1.5c-0.6,0.4-1.1,0.5-1.8,0.5S20,355.3,19.4,354.9z M22.7,353.3c0.3-0.5,0.5-1.2,0.5-2.2s-0.2-1.7-0.5-2.2
		c-0.3-0.5-0.8-0.7-1.4-0.7s-1.1,0.2-1.4,0.7c-0.3,0.5-0.5,1.2-0.5,2.2s0.2,1.7,0.5,2.2c0.3,0.5,0.8,0.7,1.4,0.7
		C21.8,354.1,22.3,353.8,22.7,353.3z"/>
</g>
<rect x="8.9" y="416.3" class="st0" width="20.8" height="9.6"/>
<g class="st13">
	<path class="st12" d="M21.6,420.8c0.6,0.5,0.9,1.1,0.9,1.9c0,0.5-0.1,1-0.4,1.4c-0.2,0.4-0.6,0.7-1.1,1c-0.5,0.3-1.1,0.4-1.8,0.4
		c-0.6,0-1.2-0.1-1.7-0.3c-0.5-0.2-1-0.4-1.4-0.7l0.7-1.2c0.3,0.3,0.7,0.5,1.1,0.6c0.4,0.1,0.9,0.2,1.4,0.2c0.6,0,1-0.1,1.3-0.3
		c0.3-0.2,0.5-0.5,0.5-0.9s-0.2-0.8-0.5-1c-0.3-0.2-0.9-0.3-1.7-0.3h-2l0.4-4.6h4.9v1.3h-3.8l-0.2,1.9H19
		C20.2,420.1,21.1,420.3,21.6,420.8z"/>
</g>
<rect x="8.9" y="66.9" class="st0" width="20.8" height="9.6"/>
<g class="st13">
	<path class="st12" d="M18.5,67.4v1l-3.3,7.4h-1.7l3.2-7.1h-3.3v1.4h-1.5v-2.7C11.9,67.4,18.5,67.4,18.5,67.4z"/>
	<path class="st12" d="M20.9,75.4c-0.5-0.3-0.9-0.8-1.2-1.5c-0.3-0.7-0.5-1.4-0.5-2.3c0-0.9,0.2-1.7,0.5-2.3
		c0.3-0.7,0.7-1.1,1.2-1.5c0.5-0.3,1.1-0.5,1.8-0.5s1.3,0.2,1.8,0.5s0.9,0.8,1.3,1.5c0.3,0.7,0.5,1.4,0.5,2.3c0,0.9-0.2,1.7-0.5,2.3
		c-0.3,0.7-0.7,1.1-1.3,1.5C24,75.8,23.4,76,22.7,76S21.4,75.8,20.9,75.4z M24.1,73.9c0.3-0.5,0.5-1.2,0.5-2.2c0-1-0.2-1.7-0.5-2.2
		c-0.3-0.5-0.8-0.7-1.4-0.7c-0.6,0-1.1,0.2-1.4,0.7c-0.3,0.5-0.5,1.2-0.5,2.2c0,1,0.2,1.7,0.5,2.2c0.3,0.5,0.8,0.7,1.4,0.7
		S23.8,74.4,24.1,73.9z"/>
</g>
<rect x="8.6" y="137.3" class="st0" width="20.8" height="9.6"/>
<text transform="matrix(1 0 0 1 11.4585 146.1353)" class="st12 st15 st16">50</text>
</svg>
