<?xml version="1.0" encoding="UTF-8"?>
<svg id="Livello_1" data-name="Livello 1" xmlns="http://www.w3.org/2000/svg" xmlns:xlink="http://www.w3.org/1999/xlink" viewBox="0 0 33.6 590.7">
  <defs>
    <style>
      .cls-1 {
        fill: #fd00de;
      }

      .cls-2 {
        fill: #fff;
      }

      .cls-3 {
        fill: #b100fa;
      }

      .cls-4 {
        fill: #fc0098;
      }

      .cls-5 {
        fill: #c2e4f9;
      }

      .cls-6 {
        fill: #db00fa;
      }

      .cls-7 {
        fill: #3c3430;
      }

      .cls-8 {
        fill: #9f00fa;
      }

      .cls-9 {
        fill: #9ca7f9;
      }

      .cls-10 {
        fill: #c6ecf9;
      }

      .cls-11 {
        fill: #fd00b9;
      }

      .cls-12 {
        fill: #c200fa;
      }

      .cls-13 {
        fill: #fd00cf;
      }

      .cls-14 {
        fill: #39322e;
      }

      .cls-15 {
        stroke: #3c3430;
        stroke-miterlimit: 10;
        stroke-width: 3px;
      }

      .cls-15, .cls-16 {
        fill: none;
      }

      .cls-17 {
        fill: #bcddf8;
      }

      .cls-18 {
        fill: #8663f8;
      }

      .cls-19 {
        fill: #abc3f9;
      }

      .cls-20 {
        fill: #d000fb;
      }

      .cls-21 {
        fill: #b7d7f8;
      }

      .cls-22 {
        clip-path: url(#clippath);
      }

      .cls-23 {
        fill: #8955f9;
      }

      .cls-24 {
        fill: #9699f8;
      }

      .cls-25 {
        fill: #a600f9;
      }

      .cls-26 {
        fill: #972df9;
      }

      .cls-27 {
        fill: #3c3530;
      }

      .cls-28 {
        fill: #8c7bf8;
      }

      .cls-29 {
        fill: #918bf9;
      }

      .cls-30 {
        fill: #8e46f8;
      }

      .cls-31 {
        fill: #fd007e;
      }

      .cls-32 {
        fill: #b1cef8;
      }

      .cls-33 {
        fill: #a2b3f9;
      }

      .cls-34 {
        fill: #f400f6;
      }
    </style>
    <clipPath id="clippath">
      <path class="cls-16" d="m27.82,580.98c-.32,3.43-5.67,7.51-10.31,7.51h0c-4.59.37-10.88-3.32-10.88-7.51V42.73c1.02-4.94,6.49-7.8,10.18-7.79h0c4.3,0,9.9,2.93,11,7.98v538.06h.01Z"/>
    </clipPath>
  </defs>
  <g class="cls-22">
    <g>
      <rect class="cls-31" x="-7.9" y="34.94" width="52.96" height="16.67"/>
      <rect class="cls-4" x="-7.9" y="51.61" width="52.96" height="13.09"/>
      <rect class="cls-4" x="-7.9" y="76.97" width="52.96" height="13.09"/>
      <rect class="cls-11" x="-7.9" y="90.06" width="52.96" height="13.09"/>
      <rect class="cls-11" x="-7.9" y="103.15" width="52.96" height="13.09"/>
      <rect class="cls-13" x="-7.9" y="116.24" width="52.96" height="13.09"/>
      <rect class="cls-1" x="-7.9" y="129.34" width="52.96" height="13.09"/>
      <rect class="cls-34" x="-7.9" y="142.43" width="52.96" height="13.09"/>
      <rect class="cls-34" x="-7.9" y="155.52" width="52.96" height="13.09"/>
      <rect class="cls-34" x="-7.9" y="168.62" width="52.96" height="13.09"/>
      <rect class="cls-34" x="-7.9" y="181.71" width="52.96" height="13.09"/>
      <rect class="cls-6" x="-7.9" y="194.8" width="52.96" height="13.09"/>
      <rect class="cls-20" x="-7.9" y="207.89" width="52.96" height="13.09"/>
      <rect class="cls-12" x="-7.9" y="220.99" width="52.96" height="13.09"/>
      <rect class="cls-12" x="-7.9" y="234.08" width="52.96" height="13.09"/>
      <rect class="cls-3" x="-7.9" y="247.17" width="52.96" height="13.09"/>
      <rect class="cls-3" x="-7.9" y="260.26" width="52.96" height="13.09"/>
      <rect class="cls-25" x="-7.9" y="273.36" width="52.96" height="13.09"/>
      <rect class="cls-8" x="-7.9" y="286.45" width="52.96" height="13.09"/>
      <rect class="cls-26" x="-7.6" y="299.54" width="52.96" height="13.09"/>
      <rect class="cls-26" x="-7.9" y="312.63" width="52.96" height="13.09"/>
      <rect class="cls-30" x="-7.9" y="325.73" width="52.96" height="13.09"/>
      <rect class="cls-30" x="-7.9" y="338.82" width="52.96" height="13.09"/>
      <rect class="cls-23" x="-7.9" y="351.91" width="52.96" height="13.09"/>
      <rect class="cls-18" x="-7.9" y="365.01" width="52.96" height="13.09"/>
      <rect class="cls-18" x="-7.9" y="378.1" width="52.96" height="13.09"/>
      <rect class="cls-28" x="-7.9" y="391.19" width="52.96" height="13.09"/>
      <rect class="cls-29" x="-7.9" y="404.28" width="52.96" height="13.09"/>
      <rect class="cls-24" x="-7.9" y="417.37" width="52.96" height="13.09"/>
      <rect class="cls-9" x="-7.9" y="430.47" width="52.96" height="13.09"/>
      <rect class="cls-33" x="-7.9" y="443.56" width="52.96" height="13.09"/>
      <rect class="cls-19" x="-7.9" y="456.65" width="52.96" height="13.09"/>
      <rect class="cls-19" x="-7.9" y="469.74" width="52.96" height="13.1"/>
      <rect class="cls-32" x="-7.9" y="482.84" width="52.96" height="13.09"/>
      <rect class="cls-21" x="-7.9" y="495.93" width="52.96" height="13.09"/>
      <rect class="cls-17" x="-7.9" y="509.02" width="52.96" height="13.1"/>
      <rect class="cls-5" x="-7.9" y="522.12" width="52.96" height="13.09"/>
      <rect class="cls-10" x="-7.9" y="535.21" width="52.96" height="55.49"/>
      <rect class="cls-4" x="-7.9" y="64.08" width="52.96" height="13.09"/>
    </g>
  </g>
  <circle class="cls-14" cx="17.23" cy="15.78" r="14.91"/>
  <path class="cls-15" d="m27.82,580.98c-.32,3.43-5.67,7.51-10.31,7.51h0c-4.59.37-10.88-3.32-10.88-7.51V42.74c1.02-4.94,6.49-7.8,10.18-7.79h0c4.3,0,9.9,2.93,11,7.98v538.05h.01Z"/>
  <path class="cls-2" d="m18.64,10.88c.73-.45,1.7.08,1.7.96,0,.62-.5,1.12-1.12,1.12H6.12c-.7,0-.9.4-.9.9,0,.43.21.9.9.9h13.1c1.61,0,2.91-1.3,2.91-2.91,0-2.28-2.5-3.66-4.42-2.49-.25.15-.51.31-.76.46-.78.47-.44,1.67.46,1.67.17,0,.33-.05.47-.13.25-.15.51-.31.76-.46h0v-.02Zm3.52,12.08c-.78-.46-.45-1.67.46-1.67.62,0,1.1.76,1.81.76.62,0,1.12-.5,1.12-1.12s-.5-1.11-1.12-1.12c-5.27-.05-13.04-.09-18.31-.14-.5,0-.81-.4-.81-.9s.32-.9.81-.9c5.27.05,13.04.09,18.31.14,1.61.01,2.91,1.3,2.91,2.91,0,2.28-2.5,3.66-4.42,2.49-.25-.15-.51-.31-.76-.46h0Zm-15.99-5.72c-.94,0-.94-.71-.94-.88,0-.18,0-.92.92-.92h20.19c.46,0,.96-.36,1.07-.81.26-1.06-.84-1.77-1.66-1.27-.25.15-.51.31-.76.46-.6.37-1.37-.06-1.37-.76,0-.33.18-.61.44-.77.87-.52,1.41-.98,2.62-.87,1,.09,1.89.7,2.29,1.62.92,2.13-.62,4.19-2.64,4.19H6.17Z"/>
  <g>
    <path class="cls-7" d="m16.92,574.99c.32.32.48.79.48,1.43v2.46h-1.25v-2.27c0-.34-.07-.6-.21-.76-.14-.17-.34-.25-.6-.25-.29,0-.53.09-.7.28s-.26.47-.26.84v2.16h-1.25v-2.27c0-.68-.27-1.02-.82-1.02-.29,0-.52.09-.69.28-.17.19-.26.47-.26.84v2.16h-1.25v-4.3h1.19v.5c.16-.18.36-.32.59-.42.23-.1.49-.14.76-.14.3,0,.58.06.82.18.25.12.44.29.59.52.18-.22.4-.4.67-.52s.56-.18.88-.18c.54,0,.97.16,1.28.48h.03Z"/>
    <path class="cls-7" d="m20.32,572.15h1.11l-2.64,7.54h-1.11l2.64-7.54Z"/>
    <path class="cls-7" d="m21.54,578.82c-.34-.09-.61-.2-.82-.33l.42-.9c.19.12.42.22.7.3.27.08.54.12.8.12.53,0,.79-.13.79-.39,0-.12-.07-.21-.22-.26-.14-.05-.37-.1-.66-.14-.35-.05-.64-.12-.87-.18-.23-.07-.43-.19-.6-.37s-.25-.43-.25-.75c0-.27.08-.51.24-.72.16-.21.39-.37.69-.49.3-.12.66-.18,1.07-.18.3,0,.61.03.91.1.3.07.55.16.75.28l-.42.89c-.38-.21-.79-.32-1.24-.32-.27,0-.47.04-.6.11-.13.07-.2.17-.2.29,0,.13.07.23.22.28.14.05.37.1.69.15.35.06.64.12.86.19.22.07.42.19.58.36s.25.42.25.74c0,.27-.08.5-.24.71s-.39.37-.7.48c-.31.12-.67.17-1.09.17-.36,0-.71-.04-1.05-.13h-.01Z"/>
  </g>
  <g>
    <path class="cls-27" d="m15.51,539.09v4.9h-.91v-4.14h-1.04v-.76h1.95Z"/>
    <path class="cls-27" d="m17.48,543.76c-.31-.2-.55-.49-.73-.87s-.27-.83-.27-1.35.09-.97.27-1.35.42-.67.73-.87.66-.3,1.05-.3.74.1,1.05.3.55.49.73.87.27.83.27,1.35-.09.97-.27,1.35-.42.67-.73.87-.66.3-1.05.3-.74-.1-1.05-.3Zm1.88-.93c.2-.29.3-.72.3-1.29s-.1-1.01-.3-1.29-.48-.43-.83-.43-.62.14-.82.43c-.2.29-.3.72-.3,1.29s.1,1.01.3,1.29c.2.29.48.43.82.43s.63-.14.83-.43Z"/>
  </g>
  <g>
    <path class="cls-27" d="m16.56,526.89v4.9h-.91v-4.14h-1.04v-.76h1.95Z"/>
    <path class="cls-27" d="m19.23,526.89v4.9h-.91v-4.14h-1.04v-.76h1.95Z"/>
  </g>
  <g>
    <path class="cls-27" d="m15.83,512.95v4.9h-.91v-4.14h-1.04v-.76h1.95Z"/>
    <path class="cls-27" d="m20.35,517.08v.77h-3.61v-.61l1.95-1.85c.22-.21.37-.39.44-.55.08-.16.12-.31.12-.46,0-.23-.08-.4-.23-.53-.15-.12-.38-.18-.68-.18-.5,0-.88.17-1.15.51l-.64-.49c.19-.26.45-.46.77-.6.32-.14.69-.21,1.09-.21.53,0,.96.13,1.27.38s.48.59.48,1.03c0,.27-.06.52-.17.75s-.33.5-.64.8l-1.31,1.25h2.31,0Z"/>
  </g>
  <g>
    <path class="cls-27" d="m15.83,500.1v4.9h-.91v-4.14h-1.04v-.76h1.95Z"/>
    <path class="cls-27" d="m19.92,502.59c.24.25.36.57.36.95,0,.28-.07.54-.22.78s-.36.42-.65.56-.65.21-1.07.21c-.35,0-.69-.05-1.01-.15s-.6-.24-.83-.42l.39-.71c.18.15.39.27.65.35.25.09.52.13.79.13.32,0,.58-.07.76-.2s.28-.31.28-.54-.09-.41-.26-.54-.44-.19-.8-.19h-.45v-.62l1.11-1.32h-2.23v-.76h3.34v.61l-1.19,1.41c.45.06.8.21,1.04.46h-.01Z"/>
  </g>
  <g>
    <path class="cls-27" d="m15.56,487.13v4.9h-.91v-4.14h-1.04v-.76h1.95Z"/>
    <path class="cls-27" d="m20.9,490.91h-.87v1.11h-.88v-1.11h-2.69v-.63l2.42-3.16h.97l-2.27,3.02h1.6v-.99h.85v.99h.87v.77h0Z"/>
  </g>
  <g>
    <path class="cls-27" d="m15.96,473.83v4.9h-.91v-4.14h-1.04v-.76h1.95Z"/>
    <path class="cls-27" d="m20,476.12c.33.27.5.63.5,1.1,0,.29-.07.56-.22.8s-.36.43-.65.57c-.29.14-.65.21-1.07.21-.35,0-.69-.05-1.02-.15s-.6-.24-.83-.42l.39-.71c.18.15.4.27.65.35.25.09.52.13.79.13.32,0,.57-.07.76-.2.18-.13.28-.32.28-.55,0-.25-.1-.44-.3-.57-.2-.13-.54-.19-1.02-.19h-1.18l.25-2.67h2.88v.76h-2.11l-.11,1.13h.47c.69,0,1.2.13,1.53.4h0Z"/>
  </g>
  <g>
    <path class="cls-27" d="m15.67,461.04v4.9h-.91v-4.14h-1.04v-.76h1.95Z"/>
    <path class="cls-27" d="m19.74,463.1c.26.12.46.3.6.53.14.23.22.49.22.79,0,.32-.08.6-.24.84s-.38.43-.64.56c-.27.13-.57.2-.91.2-.67,0-1.19-.21-1.57-.63-.37-.42-.56-1.02-.56-1.81,0-.55.1-1.02.3-1.41s.48-.69.84-.89.78-.3,1.26-.3c.25,0,.49.03.71.08s.41.13.58.23l-.34.69c-.24-.16-.55-.24-.93-.24-.47,0-.84.14-1.11.43-.27.29-.4.71-.4,1.25h0c.14-.16.33-.29.55-.38s.48-.13.76-.13c.32,0,.61.06.87.19h.01Zm-.33,1.97c.18-.15.27-.35.27-.61s-.09-.46-.27-.61-.42-.22-.71-.22-.53.08-.72.24c-.19.16-.28.36-.28.6s.09.43.27.59.43.24.75.24c.29,0,.52-.08.69-.23Z"/>
  </g>
  <g>
    <path class="cls-27" d="m15.77,447.97v4.9h-.91v-4.14h-1.04v-.76h1.95Z"/>
    <path class="cls-27" d="m20.44,447.97v.61l-1.9,4.29h-.97l1.84-4.13h-1.92v.83h-.85v-1.6h3.81-.01Z"/>
  </g>
  <g>
    <path class="cls-27" d="m15.72,434.2v4.9h-.91v-4.14h-1.04v-.76h1.95Z"/>
    <path class="cls-27" d="m20.47,437c.14.2.21.43.21.7,0,.3-.08.56-.25.78s-.4.4-.7.51-.66.18-1.06.18-.75-.06-1.05-.18-.53-.29-.7-.51c-.16-.22-.25-.49-.25-.78,0-.27.07-.5.2-.7s.33-.36.58-.47c-.2-.11-.35-.25-.45-.42-.1-.18-.16-.38-.16-.61,0-.27.08-.51.23-.72s.36-.36.64-.48c.28-.11.59-.17.95-.17s.68.06.96.17c.28.11.49.27.64.48.15.21.23.45.23.72,0,.23-.05.43-.16.6s-.26.31-.46.43c.26.12.45.27.59.47h.01Zm-1,1.25c.2-.14.29-.33.29-.58s-.1-.43-.29-.57c-.2-.14-.46-.21-.8-.21s-.6.07-.79.21c-.19.14-.29.33-.29.57s.1.44.29.58c.19.14.45.21.79.21s.6-.07.8-.21Zm-1.47-3.22c-.17.12-.25.29-.25.51s.08.38.25.5.39.19.68.19.52-.06.69-.19.25-.29.25-.5-.08-.39-.26-.51c-.17-.12-.4-.18-.68-.18s-.51.06-.68.18Z"/>
  </g>
  <g>
    <path class="cls-27" d="m15.7,421.76v4.9h-.91v-4.14h-1.04v-.76h1.95Z"/>
    <path class="cls-27" d="m19.89,422.32c.37.42.56,1.02.56,1.81,0,.55-.1,1.02-.3,1.41s-.48.69-.84.89-.78.3-1.26.3c-.25,0-.49-.03-.71-.08s-.41-.13-.58-.23l.34-.69c.24.16.55.24.93.24.47,0,.84-.14,1.1-.43.27-.29.4-.71.4-1.25h0c-.14.16-.33.29-.55.37-.22.09-.48.13-.76.13-.32,0-.61-.06-.87-.19-.26-.12-.46-.3-.6-.53-.14-.23-.22-.49-.22-.79,0-.32.08-.6.24-.84s.37-.43.64-.56c.27-.13.57-.2.91-.2.67,0,1.19.21,1.56.63h.01Zm-.78,1.51c.19-.16.28-.36.28-.6s-.09-.44-.27-.59-.43-.23-.75-.23c-.28,0-.51.08-.69.23s-.27.35-.27.61.09.46.27.61.42.22.71.22.53-.08.72-.24h0Z"/>
  </g>
  <g>
    <path class="cls-27" d="m16.67,412.44v.77h-3.61v-.61l1.95-1.85c.22-.21.37-.39.44-.55.08-.16.12-.31.12-.46,0-.23-.08-.4-.23-.53s-.38-.18-.68-.18c-.5,0-.88.17-1.15.51l-.64-.49c.19-.26.45-.46.77-.6s.69-.21,1.09-.21c.53,0,.96.13,1.27.38.31.25.48.59.48,1.03,0,.27-.06.52-.17.75s-.33.5-.64.8l-1.31,1.25h2.31Z"/>
    <path class="cls-27" d="m18.17,412.98c-.31-.2-.55-.49-.73-.87s-.27-.83-.27-1.35.09-.97.27-1.35.42-.67.73-.87c.31-.2.66-.3,1.05-.3s.74.1,1.05.3c.31.2.55.49.73.87s.27.83.27,1.35-.09.97-.27,1.35-.42.67-.73.87-.66.3-1.05.3-.74-.1-1.05-.3Zm1.88-.93c.2-.29.3-.72.3-1.29s-.1-1.01-.3-1.29-.48-.43-.83-.43-.62.14-.82.43-.3.72-.3,1.29.1,1.01.3,1.29c.2.29.48.43.82.43s.63-.14.83-.43Z"/>
  </g>
  <g>
    <path class="cls-27" d="m17.66,398.96v.77h-3.61v-.61l1.95-1.85c.22-.21.37-.39.44-.55.08-.16.12-.31.12-.46,0-.23-.08-.4-.23-.53s-.38-.18-.68-.18c-.5,0-.88.17-1.15.51l-.64-.49c.19-.26.45-.46.77-.6s.69-.21,1.09-.21c.53,0,.96.13,1.27.38s.48.59.48,1.03c0,.27-.06.52-.17.75s-.33.5-.64.8l-1.31,1.25h2.31,0Z"/>
    <path class="cls-27" d="m19.88,394.83v4.9h-.91v-4.14h-1.04v-.76h1.95,0Z"/>
  </g>
  <g>
    <path class="cls-27" d="m17.01,386.6v.77h-3.61v-.61l1.95-1.85c.22-.21.37-.39.44-.55.08-.16.12-.31.12-.46,0-.23-.08-.4-.23-.53s-.38-.18-.68-.18c-.5,0-.88.17-1.15.51l-.64-.49c.19-.26.45-.46.77-.6s.69-.21,1.09-.21c.53,0,.96.13,1.27.38s.48.59.48,1.03c0,.27-.06.52-.17.75s-.33.5-.64.8l-1.31,1.25h2.31Z"/>
    <path class="cls-27" d="m21.09,386.6v.77h-3.61v-.61l1.95-1.85c.22-.21.37-.39.44-.55.08-.16.12-.31.12-.46,0-.23-.08-.4-.23-.53-.15-.12-.38-.18-.68-.18-.5,0-.88.17-1.15.51l-.64-.49c.19-.26.45-.46.77-.6s.69-.21,1.09-.21c.53,0,.96.13,1.27.38s.48.59.48,1.03c0,.27-.06.52-.17.75s-.33.5-.64.8l-1.31,1.25h2.31,0Z"/>
  </g>
  <g>
    <path class="cls-27" d="m16.98,374.2v.77h-3.61v-.61l1.95-1.85c.22-.21.37-.39.44-.55.08-.16.12-.31.12-.46,0-.23-.08-.4-.23-.53s-.38-.18-.68-.18c-.5,0-.88.17-1.15.51l-.64-.49c.19-.26.45-.46.77-.6s.69-.21,1.09-.21c.53,0,.96.13,1.27.38.31.25.48.59.48,1.03,0,.27-.06.52-.17.75s-.33.5-.64.8l-1.31,1.25h2.31Z"/>
    <path class="cls-27" d="m20.62,372.55c.24.25.36.57.36.95,0,.28-.07.54-.22.78s-.36.42-.66.56c-.29.14-.65.21-1.07.21-.35,0-.69-.05-1.01-.15s-.6-.24-.83-.42l.39-.71c.18.15.39.27.65.35.25.09.52.13.79.13.32,0,.58-.07.76-.2s.28-.31.28-.54-.09-.41-.26-.54-.44-.19-.8-.19h-.45v-.62l1.11-1.32h-2.23v-.76h3.34v.61l-1.19,1.41c.45.06.8.21,1.04.46h0Z"/>
  </g>
  <g>
    <path class="cls-27" d="m16.69,360.29v.77h-3.61v-.61l1.95-1.85c.22-.21.37-.39.44-.55.08-.16.12-.31.12-.46,0-.23-.08-.4-.23-.53s-.38-.18-.68-.18c-.5,0-.88.17-1.15.51l-.64-.49c.19-.26.45-.46.77-.6s.69-.21,1.09-.21c.53,0,.96.13,1.27.38.31.25.48.59.48,1.03,0,.27-.06.52-.17.75s-.33.5-.64.8l-1.31,1.25h2.31Z"/>
    <path class="cls-27" d="m21.48,359.95h-.87v1.11h-.88v-1.11h-2.69v-.63l2.41-3.16h.97l-2.27,3.02h1.6v-.99h.85v.99h.87v.77h.01Z"/>
  </g>
  <g>
    <path class="cls-27" d="m16.97,347.54v.77h-3.61v-.61l1.95-1.85c.22-.21.37-.39.44-.55.08-.16.12-.31.12-.46,0-.23-.08-.4-.23-.53s-.38-.18-.68-.18c-.5,0-.88.17-1.15.51l-.64-.49c.19-.26.45-.46.77-.6s.69-.21,1.09-.21c.53,0,.96.13,1.27.38.31.25.48.59.48,1.03,0,.27-.06.52-.17.75s-.33.5-.64.8l-1.31,1.25h2.31Z"/>
    <path class="cls-27" d="m20.56,345.71c.33.27.5.63.5,1.1,0,.29-.07.56-.22.8s-.36.43-.65.57c-.29.14-.65.21-1.07.21-.35,0-.69-.05-1.01-.15-.33-.1-.6-.24-.83-.42l.39-.71c.18.15.4.27.65.35.25.09.52.13.79.13.32,0,.58-.07.76-.2s.28-.32.28-.55c0-.25-.1-.44-.3-.57-.2-.13-.54-.19-1.02-.19h-1.18l.25-2.67h2.88v.76h-2.11l-.1,1.13h.47c.69,0,1.2.13,1.53.4h-.01Z"/>
  </g>
  <g>
    <path class="cls-27" d="m16.87,334.37v.77h-3.61v-.61l1.95-1.85c.22-.21.37-.39.44-.55.08-.16.12-.31.12-.46,0-.23-.08-.4-.23-.53s-.38-.18-.68-.18c-.5,0-.88.17-1.15.51l-.64-.49c.19-.26.45-.46.77-.6s.69-.21,1.09-.21c.53,0,.96.13,1.27.38.31.25.48.59.48,1.03,0,.27-.06.52-.17.75s-.33.5-.64.8l-1.31,1.25h2.31Z"/>
    <path class="cls-27" d="m20.46,332.3c.26.12.46.3.6.53.14.23.22.49.22.79,0,.32-.08.6-.24.84s-.37.43-.64.56c-.27.13-.57.2-.91.2-.67,0-1.19-.21-1.56-.63-.37-.42-.56-1.02-.56-1.81,0-.55.1-1.02.3-1.41.2-.39.48-.69.84-.89s.78-.3,1.26-.3c.25,0,.49.03.71.08s.41.13.58.23l-.34.69c-.24-.16-.55-.24-.93-.24-.47,0-.84.14-1.11.43-.27.29-.4.71-.4,1.25h0c.14-.16.33-.29.55-.38s.48-.13.76-.13c.32,0,.61.06.87.19Zm-.33,1.97c.18-.15.27-.35.27-.61s-.09-.46-.27-.61-.42-.22-.71-.22-.53.08-.72.24c-.18.16-.28.36-.28.6s.09.43.27.59.43.24.74.24c.29,0,.52-.08.69-.23h0Z"/>
  </g>
  <g>
    <path class="cls-27" d="m16.9,321.05v.77h-3.61v-.61l1.95-1.85c.22-.21.37-.39.44-.55.08-.16.12-.31.12-.46,0-.23-.08-.4-.23-.53s-.38-.18-.68-.18c-.5,0-.88.17-1.15.51l-.64-.49c.19-.26.45-.46.77-.6s.69-.21,1.09-.21c.53,0,.96.13,1.27.38.31.25.48.59.48,1.03,0,.27-.06.52-.17.75s-.33.5-.64.8l-1.31,1.25h2.31Z"/>
    <path class="cls-27" d="m21.1,316.92v.61l-1.9,4.29h-.97l1.84-4.13h-1.92v.83h-.85v-1.6h3.81-.01Z"/>
  </g>
  <g>
    <path class="cls-27" d="m16.73,307.88v.77h-3.61v-.61l1.95-1.85c.22-.21.37-.39.44-.55.08-.16.12-.31.12-.46,0-.23-.08-.4-.23-.53s-.38-.18-.68-.18c-.5,0-.88.17-1.15.51l-.64-.49c.19-.26.45-.46.77-.6s.69-.21,1.09-.21c.53,0,.96.13,1.27.38.31.25.48.59.48,1.03,0,.27-.06.52-.17.75s-.33.5-.64.8l-1.31,1.25h2.31Z"/>
    <path class="cls-27" d="m21.03,306.55c.14.2.21.43.21.7,0,.3-.08.56-.25.78s-.4.4-.7.51c-.3.12-.66.18-1.06.18s-.75-.06-1.05-.18-.53-.29-.7-.51-.25-.49-.25-.78c0-.27.07-.5.2-.7.13-.2.33-.36.58-.47-.2-.11-.35-.25-.45-.42-.1-.18-.16-.38-.16-.61,0-.27.08-.51.23-.72s.36-.36.64-.48c.28-.11.59-.17.95-.17s.68.06.96.17c.28.11.49.27.64.48.15.21.23.45.23.72,0,.23-.05.43-.16.6s-.26.31-.46.43c.26.12.45.27.59.47h.01Zm-1,1.25c.2-.14.29-.33.29-.58s-.1-.43-.29-.57c-.2-.14-.46-.21-.8-.21s-.6.07-.79.21c-.19.14-.29.33-.29.57s.1.44.29.58c.19.14.46.21.79.21s.6-.07.8-.21Zm-1.47-3.22c-.17.12-.25.29-.25.51s.08.38.25.5c.16.12.39.19.68.19s.52-.06.69-.19.25-.29.25-.5-.09-.39-.26-.51-.4-.18-.68-.18-.51.06-.68.18Z"/>
  </g>
  <g>
    <path class="cls-27" d="m16.82,294.47v.77h-3.61v-.61l1.95-1.85c.22-.21.37-.39.44-.55.08-.16.12-.31.12-.46,0-.23-.08-.4-.23-.53s-.38-.18-.68-.18c-.5,0-.88.17-1.15.51l-.64-.49c.19-.26.45-.46.77-.6s.69-.21,1.09-.21c.53,0,.96.13,1.27.38.31.25.48.59.48,1.03,0,.27-.06.52-.17.75s-.33.5-.64.8l-1.31,1.25h2.31Z"/>
    <path class="cls-27" d="m20.56,290.9c.37.42.56,1.02.56,1.81,0,.55-.1,1.02-.3,1.41-.2.39-.48.69-.84.89s-.78.3-1.26.3c-.25,0-.49-.03-.71-.08s-.42-.13-.58-.23l.34-.69c.24.16.55.24.93.24.47,0,.84-.14,1.11-.43s.4-.71.4-1.25h0c-.14.16-.33.29-.55.37-.22.09-.48.13-.76.13-.32,0-.61-.06-.87-.19-.26-.12-.46-.3-.6-.53-.14-.23-.22-.49-.22-.79,0-.32.08-.6.24-.84s.37-.43.65-.56c.27-.13.57-.2.91-.2.67,0,1.19.21,1.56.63h-.01Zm-.78,1.51c.18-.16.28-.36.28-.6s-.09-.44-.27-.59-.43-.23-.75-.23c-.29,0-.52.08-.69.23s-.27.35-.27.61.09.46.27.61.42.22.71.22.53-.08.72-.24h0Z"/>
  </g>
  <g>
    <path class="cls-27" d="m16.27,280.62c.24.25.36.57.36.95,0,.28-.07.54-.22.78s-.36.42-.65.56-.65.21-1.07.21c-.35,0-.69-.05-1.01-.15-.32-.1-.6-.24-.83-.42l.39-.71c.18.15.39.27.65.35.25.09.52.13.79.13.32,0,.58-.07.76-.2s.28-.31.28-.54-.09-.41-.26-.54-.44-.19-.8-.19h-.45v-.62l1.11-1.32h-2.23v-.76h3.34v.61l-1.19,1.41c.45.06.8.21,1.04.46h-.01Z"/>
    <path class="cls-27" d="m18.21,282.81c-.31-.2-.55-.49-.73-.87s-.27-.83-.27-1.35.09-.97.27-1.35.42-.67.73-.87c.31-.2.66-.3,1.05-.3s.74.1,1.05.3c.31.2.55.49.73.87s.27.83.27,1.35-.09.97-.27,1.35-.42.67-.73.87-.66.3-1.05.3-.74-.1-1.05-.3Zm1.88-.93c.2-.29.3-.72.3-1.29s-.1-1.01-.3-1.29-.48-.43-.83-.43-.62.14-.82.43-.3.72-.3,1.29.1,1.01.3,1.29c.2.29.48.43.82.43s.63-.14.83-.43Z"/>
  </g>
  <g>
    <path class="cls-27" d="m17.26,267.25c.24.25.36.57.36.95,0,.28-.07.54-.22.78s-.36.42-.65.56-.65.21-1.07.21c-.35,0-.69-.05-1.01-.15-.32-.1-.6-.24-.83-.42l.39-.71c.18.15.39.27.65.35.25.09.52.13.79.13.32,0,.58-.07.76-.2s.28-.31.28-.54-.09-.41-.26-.54-.44-.19-.8-.19h-.45v-.62l1.11-1.32h-2.23v-.76h3.34v.61l-1.19,1.41c.45.06.8.21,1.04.46h-.01Z"/>
    <path class="cls-27" d="m19.9,264.77v4.9h-.91v-4.14h-1.04v-.76h1.95,0Z"/>
  </g>
  <g>
    <path class="cls-27" d="m16.57,254.02c.24.25.36.57.36.95,0,.28-.07.54-.22.78s-.36.42-.65.56-.65.21-1.07.21c-.35,0-.69-.05-1.01-.15-.32-.1-.6-.24-.83-.42l.39-.71c.18.15.39.27.65.35.25.09.52.13.79.13.32,0,.58-.07.76-.2.18-.13.28-.31.28-.54s-.09-.41-.26-.54c-.17-.13-.44-.19-.8-.19h-.45v-.62l1.11-1.32h-2.23v-.76h3.34v.61l-1.19,1.41c.45.06.8.21,1.04.46h-.01Z"/>
    <path class="cls-27" d="m21.04,255.66v.77h-3.61v-.61l1.95-1.85c.22-.21.37-.39.44-.55.08-.16.12-.31.12-.46,0-.23-.08-.4-.23-.53s-.38-.18-.68-.18c-.5,0-.88.17-1.15.51l-.64-.49c.19-.26.45-.46.77-.6s.69-.21,1.09-.21c.53,0,.96.13,1.27.38.32.25.48.59.48,1.03,0,.27-.06.52-.17.75s-.33.5-.64.8l-1.31,1.25h2.31,0Z"/>
  </g>
  <g>
    <path class="cls-27" d="m16.57,241.03c.24.25.36.57.36.95,0,.28-.07.54-.22.78s-.36.42-.65.56-.65.21-1.07.21c-.35,0-.69-.05-1.01-.15-.32-.1-.6-.24-.83-.42l.39-.71c.18.15.39.27.65.35.25.09.52.13.79.13.32,0,.58-.07.76-.2.18-.13.28-.31.28-.54s-.09-.41-.26-.54c-.17-.13-.44-.19-.8-.19h-.45v-.62l1.11-1.32h-2.23v-.76h3.34v.61l-1.19,1.41c.45.06.8.21,1.04.46h-.01Z"/>
    <path class="cls-27" d="m20.61,241.03c.24.25.36.57.36.95,0,.28-.07.54-.22.78s-.36.42-.66.56c-.29.14-.65.21-1.07.21-.35,0-.69-.05-1.01-.15-.32-.1-.6-.24-.83-.42l.39-.71c.18.15.39.27.65.35.25.09.52.13.79.13.32,0,.58-.07.76-.2.18-.13.28-.31.28-.54s-.09-.41-.26-.54c-.17-.13-.44-.19-.8-.19h-.45v-.62l1.11-1.32h-2.23v-.76h3.34v.61l-1.19,1.41c.45.06.8.21,1.04.46h0Z"/>
  </g>
  <g>
    <path class="cls-27" d="m16.21,227.77c.24.25.36.57.36.95,0,.28-.07.54-.22.78s-.36.42-.65.56-.65.21-1.07.21c-.35,0-.69-.05-1.01-.15-.32-.1-.6-.24-.83-.42l.39-.71c.18.15.39.27.65.35.25.09.52.13.79.13.32,0,.58-.07.76-.2.18-.13.28-.31.28-.54s-.09-.41-.26-.54c-.17-.13-.44-.19-.8-.19h-.45v-.62l1.11-1.32h-2.23v-.76h3.34v.61l-1.19,1.41c.45.06.8.21,1.04.46h-.01Z"/>
    <path class="cls-27" d="m21.53,229.07h-.87v1.11h-.88v-1.11h-2.69v-.63l2.42-3.16h.97l-2.28,3.02h1.6v-.99h.85v.99h.87v.77h.01Z"/>
  </g>
  <g>
    <path class="cls-27" d="m16.58,214.64c.24.25.36.57.36.95,0,.28-.07.54-.22.78s-.36.42-.65.56-.65.21-1.07.21c-.35,0-.69-.05-1.01-.15-.32-.1-.6-.24-.83-.42l.39-.71c.18.15.39.27.65.35.25.09.52.13.79.13.32,0,.58-.07.76-.2.18-.13.28-.31.28-.54s-.09-.41-.26-.54c-.17-.13-.44-.19-.8-.19h-.45v-.62l1.11-1.32h-2.23v-.76h3.34v.61l-1.19,1.41c.45.06.8.21,1.04.46h-.01Z"/>
    <path class="cls-27" d="m20.53,214.45c.33.27.5.63.5,1.1,0,.29-.07.56-.22.8s-.36.43-.65.57c-.29.14-.65.21-1.07.21-.35,0-.69-.05-1.01-.15-.33-.1-.6-.24-.83-.42l.39-.71c.18.15.4.27.65.35.25.09.52.13.79.13.32,0,.58-.07.76-.2.18-.13.28-.32.28-.55,0-.25-.1-.44-.3-.57-.2-.13-.54-.19-1.02-.19h-1.18l.25-2.67h2.88v.76h-2.11l-.1,1.13h.47c.69,0,1.2.13,1.53.4h-.01Z"/>
  </g>
  <g>
    <path class="cls-27" d="m16.4,201.49c.24.25.36.57.36.95,0,.28-.07.54-.22.78s-.36.42-.65.56-.65.21-1.07.21c-.35,0-.69-.05-1.01-.15-.32-.1-.6-.24-.83-.42l.39-.71c.18.15.39.27.65.35.25.09.52.13.79.13.32,0,.58-.07.76-.2.18-.13.28-.31.28-.54s-.09-.41-.26-.54c-.17-.13-.44-.19-.8-.19h-.45v-.62l1.11-1.32h-2.23v-.76h3.34v.61l-1.19,1.41c.45.06.8.21,1.04.46h-.01Z"/>
    <path class="cls-27" d="m20.44,201.06c.26.12.46.3.6.53.14.23.22.49.22.79,0,.32-.08.6-.24.84s-.37.43-.64.56c-.27.13-.57.2-.91.2-.67,0-1.19-.21-1.56-.63-.37-.42-.56-1.02-.56-1.81,0-.55.1-1.02.3-1.41.2-.39.48-.69.84-.89s.78-.3,1.26-.3c.25,0,.49.03.71.08s.41.13.58.23l-.34.69c-.24-.16-.55-.24-.93-.24-.47,0-.84.14-1.11.43s-.4.71-.4,1.25h0c.14-.16.33-.29.55-.38.22-.09.48-.13.76-.13.32,0,.61.06.87.19h0Zm-.33,1.97c.18-.15.27-.35.27-.61s-.09-.46-.27-.61-.42-.22-.71-.22-.53.08-.72.24c-.18.16-.28.36-.28.6s.09.43.27.59.43.24.74.24c.29,0,.52-.08.69-.23h0Z"/>
  </g>
  <g>
    <path class="cls-27" d="m16.5,188.29c.24.25.36.57.36.95,0,.28-.07.54-.22.78s-.36.42-.65.56-.65.21-1.07.21c-.35,0-.69-.05-1.01-.15-.32-.1-.6-.24-.83-.42l.39-.71c.18.15.39.27.65.35.25.09.52.13.79.13.32,0,.58-.07.76-.2.18-.13.28-.31.28-.54s-.09-.41-.26-.54c-.17-.13-.44-.19-.8-.19h-.45v-.62l1.11-1.32h-2.23v-.76h3.34v.61l-1.19,1.41c.45.06.8.21,1.04.46h-.01Z"/>
    <path class="cls-27" d="m21.08,185.81v.61l-1.9,4.29h-.97l1.84-4.13h-1.92v.83h-.85v-1.6h3.81-.01Z"/>
  </g>
  <g>
    <path class="cls-27" d="m16.54,175.75c.24.25.36.57.36.95,0,.28-.07.54-.22.78s-.36.42-.65.56-.65.21-1.07.21c-.35,0-.69-.05-1.01-.15-.32-.1-.6-.24-.83-.42l.39-.71c.18.15.39.27.65.35.25.09.52.13.79.13.32,0,.58-.07.76-.2.18-.13.28-.31.28-.54s-.09-.41-.26-.54c-.17-.13-.44-.19-.8-.19h-.45v-.62l1.11-1.32h-2.23v-.76h3.34v.61l-1.19,1.41c.45.06.8.21,1.04.46h-.01Z"/>
    <path class="cls-27" d="m21.26,176.06c.14.2.21.43.21.7,0,.3-.08.56-.25.78s-.4.4-.7.51-.66.18-1.06.18-.75-.06-1.05-.18-.53-.29-.7-.51-.25-.49-.25-.78c0-.27.07-.5.2-.7s.33-.36.58-.47c-.2-.11-.35-.25-.45-.42-.1-.18-.16-.38-.16-.61,0-.27.08-.51.23-.72s.37-.36.64-.48c.28-.11.59-.17.95-.17s.68.06.96.17c.28.11.49.27.64.48.15.21.23.45.23.72,0,.23-.05.43-.16.6s-.26.31-.46.43c.26.12.45.27.59.47h.01Zm-1,1.25c.2-.14.29-.33.29-.58s-.1-.43-.29-.57c-.2-.14-.46-.21-.8-.21s-.6.07-.79.21-.29.33-.29.57.1.44.29.58.46.21.79.21.6-.07.8-.21Zm-1.47-3.22c-.17.12-.25.29-.25.51s.08.38.25.5.39.19.68.19.52-.06.69-.19.25-.29.25-.5-.08-.39-.26-.51c-.17-.12-.4-.18-.68-.18s-.51.06-.68.18Z"/>
  </g>
  <g>
    <path class="cls-27" d="m16.39,162.15c.24.25.36.57.36.95,0,.28-.07.54-.22.78s-.36.42-.65.56-.65.21-1.07.21c-.35,0-.69-.05-1.01-.15-.32-.1-.6-.24-.83-.42l.39-.71c.18.15.39.27.65.35.25.09.52.13.79.13.32,0,.58-.07.76-.2.18-.13.28-.31.28-.54s-.09-.41-.26-.54c-.17-.13-.44-.19-.8-.19h-.45v-.62l1.11-1.32h-2.23v-.76h3.34v.61l-1.19,1.41c.45.06.8.21,1.04.46h-.01Z"/>
    <path class="cls-27" d="m20.56,160.22c.37.42.56,1.02.56,1.81,0,.55-.1,1.02-.3,1.41-.2.39-.48.69-.84.89s-.78.3-1.26.3c-.25,0-.49-.03-.71-.08s-.41-.13-.58-.23l.34-.69c.24.16.55.24.93.24.47,0,.84-.14,1.11-.43s.4-.71.4-1.25h0c-.14.16-.33.29-.55.37-.22.09-.48.13-.76.13-.32,0-.61-.06-.87-.19-.26-.12-.46-.3-.6-.53-.14-.23-.22-.49-.22-.79,0-.32.08-.6.24-.84s.37-.43.64-.56c.27-.13.57-.2.91-.2.67,0,1.19.21,1.56.63h0Zm-.78,1.51c.18-.16.28-.36.28-.6s-.09-.44-.27-.59-.43-.23-.75-.23c-.29,0-.52.08-.69.23s-.27.35-.27.61.09.46.27.61.42.22.71.22.53-.08.72-.24h0Z"/>
  </g>
  <g>
    <path class="cls-27" d="m17.17,150.84h-.87v1.11h-.88v-1.11h-2.69v-.63l2.42-3.16h.97l-2.27,3.02h1.6v-.99h.85v.99h.87v.77Z"/>
    <path class="cls-27" d="m18.55,151.73c-.31-.2-.55-.49-.73-.87-.18-.38-.27-.83-.27-1.35s.09-.97.27-1.35.42-.67.73-.87.66-.3,1.05-.3.74.1,1.05.3.55.49.73.87c.18.38.27.83.27,1.35s-.09.97-.27,1.35-.42.67-.73.87-.66.3-1.05.3-.74-.1-1.05-.3Zm1.88-.93c.2-.29.3-.72.3-1.29s-.1-1.01-.3-1.29-.48-.43-.83-.43-.62.14-.82.43-.3.72-.3,1.29.1,1.01.3,1.29c.2.29.48.43.82.43s.63-.14.83-.43Z"/>
  </g>
  <g>
    <path class="cls-27" d="m18.25,137.21h-.87v1.11h-.88v-1.11h-2.69v-.63l2.42-3.16h.97l-2.27,3.02h1.6v-.99h.85v.99h.87v.77Z"/>
    <path class="cls-27" d="m20.15,133.42v4.9h-.91v-4.14h-1.04v-.76s1.95,0,1.95,0Z"/>
  </g>
  <g>
    <path class="cls-27" d="m17.61,124.05h-.87v1.11h-.88v-1.11h-2.69v-.63l2.42-3.16h.97l-2.27,3.02h1.6v-.99h.85v.99h.87v.77Z"/>
    <path class="cls-27" d="m21.52,124.39v.77h-3.61v-.61l1.95-1.85c.22-.21.37-.39.44-.55.08-.16.12-.31.12-.46,0-.23-.08-.4-.23-.53s-.38-.18-.68-.18c-.5,0-.88.17-1.15.51l-.64-.49c.19-.26.45-.46.77-.6s.69-.21,1.09-.21c.53,0,.96.13,1.27.38.32.25.48.59.48,1.03,0,.27-.06.52-.17.75s-.33.5-.64.8l-1.31,1.25h2.31,0Z"/>
  </g>
  <g>
    <path class="cls-27" d="m17.64,111.14h-.87v1.11h-.88v-1.11h-2.69v-.63l2.42-3.16h.97l-2.27,3.02h1.6v-.99h.85v.99h.87v.77Z"/>
    <path class="cls-27" d="m21.07,109.84c.24.25.36.57.36.95,0,.28-.07.54-.22.78s-.36.42-.66.56c-.29.14-.65.21-1.07.21-.35,0-.69-.05-1.01-.15s-.6-.24-.83-.42l.39-.71c.18.15.39.27.65.35.25.09.52.13.79.13.32,0,.57-.07.76-.2.18-.13.28-.31.28-.54s-.09-.41-.26-.54c-.18-.13-.44-.19-.8-.19h-.45v-.62l1.11-1.32h-2.23v-.76h3.34v.61l-1.19,1.41c.45.06.8.21,1.04.46h0Z"/>
  </g>
  <g>
    <path class="cls-27" d="m17.15,97.99h-.87v1.11h-.88v-1.11h-2.69v-.63l2.42-3.16h.97l-2.27,3.02h1.6v-.99h.85v.99h.87v.77Z"/>
    <path class="cls-27" d="m21.91,97.99h-.87v1.11h-.88v-1.11h-2.69v-.63l2.42-3.16h.97l-2.28,3.02h1.6v-.99h.85v.99h.87v.77h.01Z"/>
  </g>
  <g>
    <path class="cls-27" d="m17.5,84.97h-.87v1.11h-.88v-1.11h-2.69v-.63l2.42-3.16h.97l-2.27,3.02h1.6v-.99h.85v.99h.87v.77Z"/>
    <path class="cls-27" d="m20.93,83.48c.33.27.5.63.5,1.1,0,.29-.07.56-.22.8s-.36.43-.65.57c-.29.14-.65.21-1.07.21-.35,0-.69-.05-1.02-.15s-.6-.24-.83-.42l.39-.71c.18.15.4.27.66.35.25.09.52.13.79.13.32,0,.57-.07.76-.2.18-.13.28-.32.28-.55,0-.25-.1-.44-.3-.57-.2-.13-.54-.19-1.02-.19h-1.18l.25-2.67h2.88v.76h-2.11l-.11,1.13h.47c.69,0,1.2.13,1.53.4h0Z"/>
  </g>
  <g>
    <path class="cls-27" d="m17.33,71.97h-.87v1.11h-.88v-1.11h-2.69v-.63l2.42-3.16h.97l-2.27,3.02h1.6v-.99h.85v.99h.87v.77Z"/>
    <path class="cls-27" d="m20.81,70.24c.26.12.46.3.6.53.14.23.22.49.22.79,0,.32-.08.6-.24.84s-.38.43-.64.56c-.27.13-.57.2-.91.2-.67,0-1.19-.21-1.56-.63-.37-.42-.56-1.02-.56-1.81,0-.55.1-1.02.3-1.41s.48-.69.84-.89.78-.3,1.26-.3c.25,0,.49.03.71.08s.41.13.58.23l-.34.69c-.24-.16-.55-.24-.93-.24-.47,0-.84.14-1.11.43s-.4.71-.4,1.25h0c.14-.16.33-.29.55-.38s.47-.13.76-.13c.32,0,.61.06.87.19Zm-.33,1.97c.18-.15.27-.35.27-.61s-.09-.46-.27-.61-.42-.22-.71-.22-.53.08-.72.24c-.19.16-.28.36-.28.6s.09.43.27.59c.18.16.43.24.75.24.29,0,.52-.08.69-.23h0Z"/>
  </g>
  <g>
    <path class="cls-27" d="m17.49,59.49h-.87v1.11h-.88v-1.11h-2.69v-.63l2.42-3.16h.97l-2.27,3.02h1.6v-.99h.85v.99h.87v.77Z"/>
    <path class="cls-27" d="m21.25,55.7v.61l-1.9,4.29h-.97l1.84-4.13h-1.92v.83h-.85v-1.6h3.81-.01Z"/>
  </g>
  <g>
    <path class="cls-27" d="m17.21,44.57h-.87v1.11h-.88v-1.11h-2.69v-.63l2.42-3.16h.97l-2.27,3.02h1.6v-.99h.85v.99h.87v.77Z"/>
    <path class="cls-27" d="m21.44,43.58c.14.2.21.43.21.7,0,.3-.08.56-.25.78-.16.22-.4.4-.7.51-.3.12-.65.18-1.06.18s-.75-.06-1.05-.18-.53-.29-.7-.51c-.16-.22-.25-.49-.25-.78,0-.27.07-.5.2-.7.14-.2.33-.36.58-.47-.2-.11-.35-.25-.45-.42-.11-.18-.16-.38-.16-.61,0-.27.08-.51.23-.72.15-.21.37-.36.64-.48.28-.11.59-.17.95-.17s.68.06.96.17c.28.11.49.27.64.48s.23.45.23.72c0,.23-.05.43-.16.6s-.26.31-.46.43c.26.12.45.27.59.47h.01Zm-1,1.25c.2-.14.29-.33.29-.58s-.1-.43-.29-.57c-.2-.14-.46-.21-.8-.21s-.6.07-.79.21-.29.33-.29.57.1.44.29.58c.19.14.46.21.79.21s.6-.07.8-.21Zm-1.47-3.22c-.17.12-.25.29-.25.51s.08.38.25.5.39.19.68.19.52-.06.69-.19.25-.29.25-.5-.08-.39-.26-.51c-.17-.12-.4-.18-.68-.18s-.51.06-.68.18Z"/>
  </g>
</svg>