<?xml version="1.0" encoding="utf-8"?>
<!-- Generator: Adobe Illustrator 27.4.1, SVG Export Plug-In . SVG Version: 6.00 Build 0)  -->
<svg version="1.1" id="Livello_1" xmlns="http://www.w3.org/2000/svg" xmlns:xlink="http://www.w3.org/1999/xlink" x="0px" y="0px" width="32px" height="590px" 
	 viewBox="0 0 32 590" style="enable-background:new 0 0 32 590;" xml:space="preserve">
<style type="text/css">
	.st0{clip-path:url(#SVGID_00000085225212142147773620000005247027601885571511_);}
	.st1{fill:#9600FE;}
	.st2{fill:#EE82EE;}
	.st3{fill:#FF0000;}
	.st4{fill:#FFFF00;}
	.st5{fill:#FFA600;}
	.st6{fill:#0000FE;}
	.st7{fill:#54878C;}
	.st8{fill:#457D00;}
	.st9{fill:#39322E;}
	.st10{fill:none;stroke:#3C3430;stroke-width:2.9317;stroke-miterlimit:9.7722;}
	.st11{fill:#FFFFFF;}
	.st12{fill:#3C3430;}
</style>
<g>
	<g>
		<g>
			<defs>
				<path id="SVGID_1_" d="M27.2,574.1c-0.3,3.4-5.5,7.3-10.1,7.3l0,0c-4.5,0.4-10.6-3.2-10.6-7.3v-526c1-4.8,6.3-7.6,9.9-7.6l0,0
					c4.2,0,9.7,2.9,10.7,7.8L27.2,574.1L27.2,574.1z"/>
			</defs>
			<clipPath id="SVGID_00000150077602375932741540000011833704792509501602_">
				<use xlink:href="#SVGID_1_"  style="overflow:visible;"/>
			</clipPath>
			<g style="clip-path:url(#SVGID_00000150077602375932741540000011833704792509501602_);">
				<g>
					<rect x="-7.4" y="37.4" class="st1" width="248.8" height="62.8"/>
					
						<rect x="85.2" y="7.5" transform="matrix(6.000398e-03 -1 1 6.000398e-03 -15.6265 248.1537)" class="st2" width="63.7" height="248.8"/>
					<rect x="-7.4" y="163" class="st3" width="248.8" height="62.8"/>
					<rect x="-7.4" y="225.8" class="st4" width="248.8" height="62.9"/>
					<rect x="-7.4" y="288.6" class="st5" width="248.8" height="62.8"/>
					<rect x="-7.4" y="351.4" class="st6" width="248.8" height="62.8"/>
					<rect x="-7.4" y="414.2" class="st7" width="248.8" height="62.9"/>
					<rect x="-7.4" y="477.1" class="st8" width="248.8" height="107.5"/>
				</g>
			</g>
		</g>
	</g>
</g>
<circle class="st9" cx="16.8" cy="21.8" r="14.6"/>
<path class="st10" d="M27.2,574.1c-0.3,3.4-5.5,7.3-10.1,7.3l0,0c-4.5,0.4-10.6-3.2-10.6-7.3v-526c1-4.8,6.3-7.6,9.9-7.6l0,0
	c4.2,0,9.7,2.9,10.7,7.8L27.2,574.1L27.2,574.1z"/>
<path class="st11" d="M18.2,17c0.7-0.4,1.7,0.1,1.7,0.9c0,0.6-0.5,1.1-1.1,1.1H6c-0.7,0-0.9,0.4-0.9,0.9c0,0.4,0.2,0.9,0.9,0.9h12.8
	c1.6,0,2.8-1.3,2.8-2.8c0-2.2-2.4-3.6-4.3-2.4c-0.2,0.1-0.5,0.3-0.7,0.4c-0.8,0.5-0.4,1.6,0.4,1.6c0.2,0,0.3,0,0.5-0.1
	C17.7,17.3,18,17.2,18.2,17L18.2,17L18.2,17z M21.7,28.8c-0.8-0.4-0.4-1.6,0.4-1.6c0.6,0,1.1,0.7,1.8,0.7c0.6,0,1.1-0.5,1.1-1.1
	s-0.5-1.1-1.1-1.1c-5.1,0-12.7-0.1-17.9-0.1c-0.5,0-0.8-0.4-0.8-0.9s0.3-0.9,0.8-0.9c5.1,0,12.7,0.1,17.9,0.1c1.6,0,2.8,1.3,2.8,2.8
	c0,2.2-2.4,3.6-4.3,2.4C22.2,29.1,21.9,29,21.7,28.8L21.7,28.8L21.7,28.8z M6,23.2c-0.9,0-0.9-0.7-0.9-0.9c0-0.2,0-0.9,0.9-0.9h19.7
	c0.4,0,0.9-0.4,1-0.8c0.3-1-0.8-1.7-1.6-1.2c-0.2,0.1-0.5,0.3-0.7,0.4c-0.6,0.4-1.3-0.1-1.3-0.7c0-0.3,0.2-0.6,0.4-0.8
	c0.9-0.5,1.4-1,2.6-0.9c1,0.1,1.8,0.7,2.2,1.6c0.9,2.1-0.6,4.1-2.6,4.1L6,23.2L6,23.2z"/>
<g>
	<path class="st11" d="M18.1,506.6v6.3h-1.2v-5.3h-1.3v-1H18.1z"/>
</g>
<g>
	<path class="st11" d="M20,444.1v1h-4.6v-0.8l2.5-2.4c0.3-0.3,0.5-0.5,0.6-0.7s0.1-0.4,0.1-0.6c0-0.3-0.1-0.5-0.3-0.7
		s-0.5-0.2-0.9-0.2c-0.6,0-1.1,0.2-1.5,0.7l-0.8-0.6c0.2-0.3,0.6-0.6,1-0.8c0.4-0.2,0.9-0.3,1.4-0.3c0.7,0,1.2,0.2,1.6,0.5
		s0.6,0.8,0.6,1.3c0,0.3-0.1,0.7-0.2,1s-0.4,0.6-0.8,1l-1.7,1.6H20z"/>
</g>
<g>
	<path class="st11" d="M19.7,383.9c0.4,0.3,0.6,0.8,0.6,1.4c0,0.4-0.1,0.7-0.3,1c-0.2,0.3-0.5,0.5-0.8,0.7c-0.4,0.2-0.8,0.3-1.4,0.3
		c-0.4,0-0.9-0.1-1.3-0.2s-0.8-0.3-1.1-0.5l0.5-0.9c0.2,0.2,0.5,0.3,0.8,0.5c0.3,0.1,0.7,0.2,1,0.2c0.4,0,0.7-0.1,1-0.3
		s0.4-0.4,0.4-0.7c0-0.3-0.1-0.6-0.4-0.7s-0.7-0.2-1.3-0.2H16l0.3-3.4H20v1h-2.7l-0.1,1.5h0.6C18.6,383.4,19.2,383.6,19.7,383.9z"/>
</g>
<g>
	<g>
		<path class="st12" d="M16.4,259.8v1h-4.6V260l2.5-2.4c0.3-0.3,0.5-0.5,0.6-0.7c0.1-0.2,0.1-0.4,0.1-0.6c0-0.3-0.1-0.5-0.3-0.7
			s-0.5-0.2-0.9-0.2c-0.6,0-1.1,0.2-1.5,0.7l-0.8-0.6c0.2-0.3,0.6-0.6,1-0.8s0.9-0.3,1.4-0.3c0.7,0,1.2,0.2,1.6,0.5
			c0.4,0.3,0.6,0.8,0.6,1.3c0,0.3-0.1,0.7-0.2,1c-0.1,0.3-0.4,0.6-0.8,1l-1.7,1.6H16.4z"/>
		<path class="st12" d="M18.2,260.5c-0.4-0.3-0.7-0.6-0.9-1.1c-0.2-0.5-0.3-1.1-0.3-1.7c0-0.7,0.1-1.3,0.3-1.7
			c0.2-0.5,0.5-0.9,0.9-1.1c0.4-0.3,0.8-0.4,1.4-0.4c0.6,0,1,0.1,1.4,0.4c0.4,0.3,0.7,0.6,0.9,1.1c0.2,0.5,0.3,1.1,0.3,1.7
			c0,0.7-0.1,1.3-0.3,1.7c-0.2,0.5-0.5,0.9-0.9,1.1c-0.4,0.3-0.9,0.4-1.4,0.4S18.7,260.8,18.2,260.5z M20.7,259.3
			c0.3-0.4,0.4-0.9,0.4-1.7c0-0.7-0.1-1.3-0.4-1.7s-0.6-0.6-1.1-0.6c-0.4,0-0.8,0.2-1.1,0.6c-0.3,0.4-0.4,0.9-0.4,1.7
			c0,0.7,0.1,1.3,0.4,1.7s0.6,0.6,1.1,0.6C20,259.9,20.5,259.7,20.7,259.3z"/>
	</g>
</g>
<g>
	<g>
		<path class="st12" d="M16.8,193.5c0.3,0.3,0.5,0.7,0.5,1.2c0,0.4-0.1,0.7-0.3,1c-0.2,0.3-0.5,0.5-0.8,0.7s-0.8,0.3-1.4,0.3
			c-0.5,0-0.9-0.1-1.3-0.2c-0.4-0.1-0.8-0.3-1.1-0.5l0.5-0.9c0.2,0.2,0.5,0.3,0.8,0.5c0.3,0.1,0.7,0.2,1,0.2c0.4,0,0.7-0.1,1-0.3
			c0.2-0.2,0.4-0.4,0.4-0.7s-0.1-0.5-0.3-0.7c-0.2-0.2-0.6-0.2-1-0.2h-0.7v-0.8l1.4-1.7h-2.9v-1h4.3v0.8l-1.5,1.8
			C16.1,192.9,16.5,193.1,16.8,193.5z"/>
		<path class="st12" d="M19.3,196.3c-0.4-0.3-0.7-0.6-0.9-1.1c-0.2-0.5-0.3-1.1-0.3-1.7c0-0.7,0.1-1.3,0.3-1.7
			c0.2-0.5,0.5-0.9,0.9-1.1c0.4-0.3,0.8-0.4,1.4-0.4c0.5,0,1,0.1,1.4,0.4c0.4,0.3,0.7,0.6,0.9,1.1c0.2,0.5,0.3,1.1,0.3,1.7
			c0,0.7-0.1,1.3-0.3,1.7c-0.2,0.5-0.5,0.9-0.9,1.1c-0.4,0.3-0.9,0.4-1.4,0.4S19.7,196.5,19.3,196.3z M21.7,195.1
			c0.3-0.4,0.4-0.9,0.4-1.7c0-0.7-0.1-1.3-0.4-1.7s-0.6-0.6-1.1-0.6c-0.4,0-0.8,0.2-1.1,0.6c-0.3,0.4-0.4,0.9-0.4,1.7
			c0,0.7,0.1,1.3,0.4,1.7s0.6,0.6,1.1,0.6C21.1,195.6,21.5,195.5,21.7,195.1z"/>
	</g>
</g>
<g>
	<path class="st11" d="M16.1,127.6c0.4,0.3,0.6,0.8,0.6,1.4c0,0.4-0.1,0.7-0.3,1c-0.2,0.3-0.5,0.5-0.8,0.7c-0.4,0.2-0.8,0.3-1.4,0.3
		c-0.4,0-0.9-0.1-1.3-0.2c-0.4-0.1-0.8-0.3-1.1-0.5l0.5-0.9c0.2,0.2,0.5,0.3,0.8,0.5c0.3,0.1,0.7,0.2,1,0.2c0.4,0,0.7-0.1,1-0.3
		c0.2-0.2,0.4-0.4,0.4-0.7s-0.1-0.6-0.4-0.7c-0.3-0.1-0.7-0.2-1.3-0.2h-1.5l0.3-3.4h3.7v1h-2.7l-0.1,1.5h0.6
		C15,127.1,15.7,127.3,16.1,127.6z"/>
	<path class="st11" d="M18.7,130.6c-0.4-0.3-0.7-0.6-0.9-1.1c-0.2-0.5-0.3-1.1-0.3-1.7c0-0.7,0.1-1.3,0.3-1.7
		c0.2-0.5,0.5-0.9,0.9-1.1c0.4-0.3,0.8-0.4,1.4-0.4c0.5,0,1,0.1,1.4,0.4s0.7,0.6,0.9,1.1c0.2,0.5,0.3,1.1,0.3,1.7
		c0,0.7-0.1,1.3-0.3,1.7c-0.2,0.5-0.5,0.9-0.9,1.1c-0.4,0.3-0.8,0.4-1.4,0.4S19.1,130.9,18.7,130.6z M21.1,129.5
		c0.3-0.4,0.4-0.9,0.4-1.7c0-0.7-0.1-1.3-0.4-1.7c-0.3-0.4-0.6-0.6-1.1-0.6c-0.4,0-0.8,0.2-1.1,0.6c-0.3,0.4-0.4,0.9-0.4,1.7
		c0,0.7,0.1,1.3,0.4,1.7s0.6,0.6,1.1,0.6C20.5,130,20.8,129.8,21.1,129.5z"/>
</g>
<g>
	<path class="st11" d="M16.4,64.2V65L14,70.5h-1.3l2.4-5.3h-2.5v1.1h-1.1v-2.1H16.4z"/>
	<path class="st11" d="M18.2,70.2c-0.4-0.3-0.7-0.6-0.9-1.1C17.1,68.6,17,68,17,67.4c0-0.7,0.1-1.3,0.3-1.7c0.2-0.5,0.5-0.9,0.9-1.1
		c0.4-0.3,0.8-0.4,1.4-0.4c0.6,0,1,0.1,1.4,0.4c0.4,0.3,0.7,0.6,0.9,1.1c0.2,0.5,0.3,1.1,0.3,1.7c0,0.7-0.1,1.3-0.3,1.7
		c-0.2,0.4-0.5,0.9-0.9,1.1c-0.4,0.3-0.9,0.4-1.4,0.4S18.6,70.4,18.2,70.2z M20.7,69c0.3-0.4,0.4-0.9,0.4-1.7c0-0.7-0.1-1.3-0.4-1.7
		S20.1,65,19.6,65c-0.4,0-0.8,0.2-1.1,0.6c-0.3,0.4-0.4,0.9-0.4,1.7c0,0.7,0.1,1.3,0.4,1.7s0.6,0.6,1.1,0.6
		C20,69.5,20.4,69.3,20.7,69z"/>
</g>
<g id="Up_Arrow_1">
	<g>
		<path class="st11" d="M22.6,543.6l-4.5-5c-0.1-0.1-0.2-0.1-0.3-0.1c-0.1,0-0.2,0.1-0.3,0.1l-4.5,5c-0.1,0.1-0.1,0.2-0.1,0.4
			c0,0.3,0.2,0.5,0.4,0.5c0.1,0,0.2-0.1,0.3-0.1l3.7-4.1V560c0,0.3,0.2,0.5,0.4,0.5c0.2,0,0.4-0.2,0.4-0.5v-19.8l3.7,4.1
			c0.1,0.1,0.2,0.1,0.3,0.1c0.2,0,0.4-0.2,0.4-0.5C22.7,543.8,22.6,543.7,22.6,543.6z"/>
	</g>
</g>
<g>
	<path class="st11" d="M17.1,568.7v0.9H13v-0.7l2.2-2.1c0.3-0.2,0.4-0.4,0.5-0.6c0.1-0.2,0.1-0.4,0.1-0.5c0-0.3-0.1-0.5-0.3-0.6
		s-0.4-0.2-0.8-0.2c-0.6,0-1,0.2-1.3,0.6l-0.7-0.6c0.2-0.3,0.5-0.5,0.9-0.7s0.8-0.2,1.2-0.2c0.6,0,1.1,0.1,1.5,0.4s0.5,0.7,0.5,1.2
		c0,0.3-0.1,0.6-0.2,0.9s-0.4,0.6-0.7,0.9l-1.5,1.4h2.7V568.7z"/>
	<path class="st11" d="M18.8,569.3c-0.4-0.2-0.6-0.6-0.8-1c-0.2-0.4-0.3-1-0.3-1.5s0.1-1.1,0.3-1.5c0.2-0.4,0.5-0.8,0.8-1
		s0.8-0.3,1.2-0.3s0.8,0.1,1.2,0.3c0.4,0.2,0.6,0.6,0.8,1c0.2,0.4,0.3,1,0.3,1.5s-0.1,1.1-0.3,1.5c-0.2,0.4-0.5,0.8-0.8,1
		c-0.4,0.2-0.8,0.3-1.2,0.3S19.1,569.5,18.8,569.3z M20.9,568.3c0.2-0.3,0.3-0.8,0.3-1.5s-0.1-1.1-0.3-1.5c-0.2-0.3-0.5-0.5-0.9-0.5
		s-0.7,0.2-0.9,0.5c-0.2,0.3-0.3,0.8-0.3,1.5s0.1,1.1,0.3,1.5c0.2,0.3,0.5,0.5,0.9,0.5S20.7,568.6,20.9,568.3z"/>
	<path class="st11" d="M17.5,572.7c0.3,0.3,0.5,0.8,0.5,1.4v2.4h-1v-2.3c0-0.4-0.1-0.7-0.2-0.8c-0.2-0.2-0.4-0.3-0.7-0.3
		c-0.3,0-0.6,0.1-0.8,0.3s-0.3,0.5-0.3,0.9v2.2h-1v-2.3c0-0.4-0.1-0.7-0.2-0.8c-0.2-0.2-0.4-0.3-0.7-0.3s-0.6,0.1-0.8,0.3
		s-0.3,0.5-0.3,1v2.2h-1v-4.3h1v0.5c0.2-0.2,0.4-0.3,0.6-0.4s0.5-0.2,0.8-0.2s0.6,0.1,0.9,0.2s0.4,0.3,0.6,0.5
		c0.2-0.2,0.4-0.4,0.7-0.5s0.6-0.2,0.9-0.2C16.8,572.3,17.2,572.4,17.5,572.7z"/>
	<path class="st11" d="M21,569.8h0.9l-2.6,7.5h-0.9L21,569.8z"/>
	<path class="st11" d="M22,576.5c-0.3-0.1-0.6-0.2-0.8-0.3l0.4-0.8c0.2,0.1,0.4,0.2,0.7,0.3s0.5,0.1,0.8,0.1c0.6,0,0.9-0.2,0.9-0.5
		c0-0.1-0.1-0.3-0.2-0.3s-0.4-0.1-0.7-0.2c-0.4-0.1-0.6-0.1-0.9-0.2c-0.2-0.1-0.4-0.2-0.6-0.4s-0.2-0.4-0.2-0.7c0-0.4,0.2-0.7,0.5-1
		c0.3-0.2,0.8-0.4,1.4-0.4c0.3,0,0.6,0,0.9,0.1s0.5,0.2,0.7,0.3l-0.4,0.8c-0.4-0.2-0.8-0.3-1.2-0.3c-0.3,0-0.5,0-0.7,0.1
		s-0.2,0.2-0.2,0.3c0,0.2,0.1,0.3,0.2,0.3c0.2,0.1,0.4,0.1,0.8,0.2c0.3,0.1,0.6,0.1,0.8,0.2s0.4,0.2,0.6,0.4s0.2,0.4,0.2,0.7
		c0,0.4-0.2,0.7-0.5,1c-0.3,0.2-0.8,0.4-1.4,0.4C22.7,576.6,22.3,576.6,22,576.5z"/>
</g>
<g>
	<path class="st12" d="M15.5,317.5v6.3h-1.2v-5.3H13v-1H15.5z"/>
	<path class="st12" d="M18.1,323.5c-0.4-0.3-0.7-0.6-0.9-1.1c-0.2-0.5-0.3-1.1-0.3-1.7c0-0.7,0.1-1.3,0.3-1.7
		c0.2-0.5,0.5-0.9,0.9-1.1c0.4-0.3,0.8-0.4,1.4-0.4s1,0.1,1.4,0.4s0.7,0.6,0.9,1.1s0.3,1.1,0.3,1.7c0,0.7-0.1,1.3-0.3,1.7
		s-0.5,0.9-0.9,1.1c-0.4,0.3-0.9,0.4-1.4,0.4S18.5,323.8,18.1,323.5z M20.5,322.3c0.3-0.4,0.4-0.9,0.4-1.7c0-0.7-0.1-1.3-0.4-1.7
		c-0.3-0.4-0.6-0.6-1.1-0.6c-0.4,0-0.8,0.2-1.1,0.6c-0.3,0.4-0.4,0.9-0.4,1.7c0,0.7,0.1,1.3,0.4,1.7s0.6,0.6,1.1,0.6
		S20.2,322.7,20.5,322.3z"/>
</g>
</svg>
