<?xml version="1.0" encoding="utf-8"?>
<!-- Generator: Adobe Illustrator 28.0.0, SVG Export Plug-In . SVG Version: 6.00 Build 0)  -->
<svg version="1.1" id="Livello_1" xmlns="http://www.w3.org/2000/svg" xmlns:xlink="http://www.w3.org/1999/xlink" x="0px" y="0px"
	width="40.8px" height="725.2px" viewBox="0 0 40.8 725.2" style="enable-background:new 0 0 40.8 725.2;" xml:space="preserve">
<style type="text/css">
	.st0{clip-path:url(#SVGID_00000125562719759790390390000012730606804396585635_);}
	.st1{opacity:0.88;fill:#FF00C3;enable-background:new    ;}
	.st2{opacity:0.88;fill:#EE82EE;enable-background:new    ;}
	.st3{opacity:0.88;fill:#FF3333;enable-background:new    ;}
	.st4{opacity:0.88;fill:#FFFF00;enable-background:new    ;}
	.st5{opacity:0.88;fill:#4BCF4F;enable-background:new    ;}
	.st6{opacity:0.88;fill:#7070FF;enable-background:new    ;}
	.st7{opacity:0.88;fill:#8BD8F9;enable-background:new    ;}
	.st8{opacity:0.88;fill:#E0F4FE;enable-background:new    ;}
	.st9{fill:none;}
	.st10{fill:#3C3430;}
	.st11{fill:#3C3530;}
	.st12{fill:none;stroke:#3C3430;stroke-miterlimit:9.7722;}
	.st13{fill:#3B3330;}
	.st14{fill:#39322E;}
	.st15{fill:none;stroke:#3C3430;stroke-width:2;stroke-miterlimit:9.7722;}
	.st16{fill:#FFFFFF;}
</style>
<g>
	<g>
		<g>
			<g>
				<g>
					<g>
						<g>
							<g>
								<defs>
									<path id="SVGID_1_" d="M41,719c-0.5,4.3-9.5,4.8-18.2,4.8l-5.6-0.2c-8.5,0.4-14.3-2.6-14.3-7.7V51.2
										c1.8-6,6.4-6.5,13.3-6.5l9.5-0.2c7.8,0,13.6,0.9,15.4,7l0.3,664.4L41,719z"/>
								</defs>
								<clipPath id="SVGID_00000106840807741181122420000016540942894400375178_">
									<use xlink:href="#SVGID_1_"  style="overflow:visible;"/>
								</clipPath>
								<g style="clip-path:url(#SVGID_00000106840807741181122420000016540942894400375178_);">
									<g>
										<rect x="-23.1" y="37.7" class="st1" width="466.3" height="79.3"/>
										<polygon class="st2" points="-23.6,196.3 -22.9,116 443.4,117.9 442.7,198.4 										"/>
										<rect x="-23.1" y="196.3" class="st3" width="466.3" height="79.3"/>
										<rect x="-23.1" y="275.8" class="st4" width="466.3" height="79.4"/>
										<rect x="-23.1" y="355.1" class="st5" width="466.3" height="79.3"/>
										<rect x="-23.1" y="434.7" class="st6" width="466.3" height="79.3"/>
										<rect x="-23.1" y="513.8" class="st7" width="466.3" height="79.4"/>
										<rect x="-23.1" y="593.2" class="st8" width="466.3" height="135.8"/>
									</g>
								</g>
							</g>
						</g>
					</g>
				</g>
			</g>
		</g>
	</g>
</g>
<rect x="8.7" y="633.4" class="st9" width="15.4" height="11.8"/>
<g>
	<g>
		<path class="st10" d="M23.6,588.1v7.9H22v-6l-1.7,1.1l-0.8-1.2l2.6-1.7L23.6,588.1L23.6,588.1z"/>
	</g>
</g>
<g>
	<path class="st11" d="M21.4,110.4v1.4h-3.5l-0.2,1.7c0.5-0.2,1-0.3,1.4-0.3c1.7,0,2.6,0.8,2.6,2.4c0,0.9-0.2,1.6-0.7,2.1
		s-1.1,0.7-2,0.7c-0.4,0-0.8,0-1.3-0.1s-0.8-0.1-1.1-0.2l-0.4-0.1l0.2-1.2c1,0.2,1.8,0.2,2.4,0.2c0.4,0,0.7-0.1,0.9-0.3
		c0.2-0.2,0.3-0.5,0.3-0.9s-0.1-0.7-0.3-0.8s-0.4-0.3-0.7-0.3c-0.5,0-1,0.1-1.4,0.2h-0.2l-1-0.2l0.2-4.3L21.4,110.4L21.4,110.4z"/>
	<path class="st11" d="M23.3,111.3c0.5-0.7,1.3-1,2.3-1s1.8,0.3,2.3,1s0.8,1.7,0.8,3.2s-0.3,2.5-0.8,3.1s-1.3,0.9-2.3,0.9
		s-1.8-0.3-2.3-0.9s-0.8-1.7-0.8-3.1S22.8,111.9,23.3,111.3z M27,114.4c0-1-0.1-1.7-0.3-2.1c-0.2-0.4-0.6-0.6-1-0.6
		s-0.8,0.2-1.1,0.6c-0.2,0.4-0.3,1.1-0.3,2.1s0.1,1.7,0.3,2.1s0.6,0.6,1.1,0.6s0.8-0.2,1-0.6S27,115.4,27,114.4z"/>
</g>
<line class="st12" x1="4.3" y1="593.1" x2="17.2" y2="593.1"/>
<line class="st12" x1="40" y1="593.1" x2="26.4" y2="593.1"/>
<line class="st12" x1="3.8" y1="116.2" x2="14.6" y2="116.2"/>
<line class="st12" x1="39.6" y1="116.2" x2="29.6" y2="116.2"/>
<g>
	<g>
		<path class="st10" d="M24.6,429.5v1.4h-3.5l-0.2,1.7c0.5-0.2,1-0.3,1.4-0.3c1.7,0,2.6,0.8,2.6,2.4c0,0.9-0.2,1.6-0.7,2.1
			s-1.1,0.7-2,0.7c-0.4,0-0.8,0-1.3-0.1s-0.8-0.1-1.1-0.2l-0.4-0.1l0.2-1.2c1,0.2,1.8,0.2,2.4,0.2c0.4,0,0.7-0.1,0.9-0.3
			c0.2-0.2,0.3-0.5,0.3-0.9s-0.1-0.7-0.3-0.8s-0.4-0.3-0.7-0.3c-0.5,0-1,0.1-1.4,0.2h-0.2l-1-0.2l0.2-4.3L24.6,429.5L24.6,429.5z"/>
	</g>
</g>
<line class="st12" x1="3.3" y1="434.5" x2="17.2" y2="434.5"/>
<line class="st12" x1="39.7" y1="434.5" x2="26.3" y2="434.5"/>
<g>
	<path class="st10" d="M21.3,278.7h-5.1v-1.4l1.7-1.7c0.6-0.6,1-1.1,1.3-1.4s0.4-0.7,0.4-1s-0.1-0.6-0.3-0.8
		c-0.2-0.2-0.5-0.2-0.8-0.2c-0.5,0-1.1,0-1.8,0.1h-0.3l-0.1-1.3c0.8-0.2,1.6-0.4,2.4-0.4c1.7,0,2.5,0.8,2.5,2.3
		c0,0.6-0.1,1.1-0.4,1.5s-0.7,1-1.4,1.6l-1.4,1.2h3.3V278.7z"/>
	<path class="st10" d="M23.1,271.6c0.5-0.7,1.3-1,2.3-1s1.8,0.3,2.3,1s0.8,1.7,0.8,3.2s-0.3,2.5-0.8,3.1s-1.3,0.9-2.3,0.9
		s-1.8-0.3-2.3-0.9s-0.8-1.7-0.8-3.1S22.6,272.3,23.1,271.6z M26.8,274.8c0-1-0.1-1.7-0.3-2.1c-0.2-0.4-0.6-0.6-1-0.6
		c-0.5,0-0.8,0.2-1.1,0.6c-0.2,0.4-0.3,1.1-0.3,2.1s0.1,1.7,0.3,2.1c0.2,0.4,0.6,0.6,1.1,0.6s0.8-0.2,1-0.6S26.8,275.7,26.8,274.8z"
		/>
</g>
<line class="st12" x1="3.7" y1="275.6" x2="16" y2="275.6"/>
<line class="st12" x1="40.1" y1="275.6" x2="29.5" y2="275.6"/>
<g>
	<path class="st10" d="M15.2,191.9c0.7-0.3,1.6-0.4,2.5-0.4s1.6,0.2,2,0.5c0.4,0.3,0.6,0.9,0.6,1.7c0,0.8-0.3,1.4-0.9,1.8
		c0.4,0.2,0.7,0.4,0.8,0.6s0.2,0.6,0.2,1.1c0,0.9-0.2,1.5-0.6,1.9s-1.1,0.6-2.1,0.6c-0.7,0-1.4-0.1-2.2-0.3l-0.4-0.1l0.1-1.3
		c0.9,0.2,1.6,0.2,2.3,0.2c0.8,0,1.2-0.4,1.2-1.1c0-0.3-0.1-0.5-0.3-0.7c-0.2-0.2-0.5-0.3-0.8-0.3H16v-1.4h1.6
		c0.3,0,0.5-0.1,0.7-0.3c0.2-0.2,0.3-0.5,0.3-0.7c0-0.6-0.4-0.9-1.2-0.9c-0.6,0-1.1,0.1-1.8,0.2h-0.3L15.2,191.9z"/>
	<path class="st10" d="M22.2,192.4c0.5-0.7,1.3-1,2.3-1s1.8,0.3,2.3,1c0.5,0.7,0.8,1.7,0.8,3.2s-0.3,2.5-0.8,3.1s-1.3,0.9-2.3,0.9
		s-1.8-0.3-2.3-0.9c-0.5-0.6-0.8-1.7-0.8-3.1C21.4,194.2,21.7,193.1,22.2,192.4z M25.9,195.6c0-1-0.1-1.7-0.3-2.1
		c-0.2-0.4-0.6-0.6-1-0.6s-0.8,0.2-1.1,0.6c-0.2,0.4-0.3,1.1-0.3,2.1s0.1,1.7,0.3,2.1c0.2,0.4,0.6,0.6,1.1,0.6s0.8-0.2,1-0.6
		C25.8,197.3,25.9,196.6,25.9,195.6z"/>
</g>
<line class="st12" x1="2.8" y1="196.4" x2="15.1" y2="196.4"/>
<line class="st12" x1="39.2" y1="196.4" x2="28.6" y2="196.4"/>
<g>
	<path class="st13" d="M13.3,721.5h-0.9v-6h0.9v0.4c0.6-0.4,1.2-0.5,1.8-0.5c0.7,0,1.3,0.2,1.6,0.6c0.3-0.2,0.6-0.3,1-0.4
		s0.8-0.2,1.1-0.2c0.8,0,1.3,0.2,1.6,0.6c0.3,0.4,0.4,1.2,0.4,2.3v3.2h-0.9v-3.1c0-0.8-0.1-1.4-0.2-1.7c-0.2-0.3-0.5-0.5-1-0.5
		c-0.3,0-0.5,0-0.8,0.1s-0.5,0.2-0.6,0.2l-0.2,0.1c0.1,0.3,0.2,0.8,0.2,1.8v3.1h-0.9v-3.1c0-0.9-0.1-1.5-0.2-1.8
		c-0.2-0.3-0.5-0.5-1-0.5c-0.3,0-0.5,0-0.8,0.1s-0.5,0.2-0.6,0.2l-0.2,0.1v5H13.3z"/>
	<path class="st13" d="M22,721.4l3.4-8.4l0.8,0.3l-3.4,8.4L22,721.4z"/>
	<path class="st13" d="M29,716.2c-0.9,0-1.3,0.3-1.3,0.9c0,0.3,0.1,0.5,0.3,0.6c0.2,0.1,0.7,0.2,1.4,0.4c0.7,0.1,1.2,0.3,1.5,0.5
		s0.4,0.6,0.4,1.3s-0.2,1.1-0.6,1.4c-0.4,0.3-1,0.4-1.7,0.4c-0.5,0-1.1-0.1-1.8-0.2l-0.4-0.1v-0.8c0.9,0.1,1.6,0.2,2.1,0.2
		s0.8-0.1,1.1-0.2c0.2-0.1,0.4-0.4,0.4-0.7s-0.1-0.6-0.3-0.7c-0.2-0.1-0.7-0.2-1.4-0.4c-0.7-0.1-1.2-0.3-1.5-0.5s-0.4-0.6-0.4-1.2
		s0.2-1,0.6-1.3s0.9-0.4,1.5-0.4c0.5,0,1.1,0.1,1.8,0.2l0.3,0.1v0.8C30.2,716.3,29.5,716.2,29,716.2z"/>
</g>
<g>
	<path class="st13" d="M21.1,350v7.9h-1.7v-6l-1.7,1.1l-0.8-1.2l2.6-1.7L21.1,350L21.1,350z"/>
	<path class="st13" d="M23.8,350.8c0.5-0.7,1.3-1,2.3-1s1.8,0.3,2.3,1s0.8,1.7,0.8,3.2s-0.3,2.5-0.8,3.1s-1.3,0.9-2.3,0.9
		s-1.8-0.3-2.3-0.9S23,355.4,23,354S23.3,351.5,23.8,350.8z M27.5,353.9c0-1-0.1-1.7-0.3-2.1c-0.2-0.4-0.6-0.6-1-0.6
		c-0.5,0-0.8,0.2-1.1,0.6c-0.2,0.4-0.3,1.1-0.3,2.1s0.1,1.7,0.3,2.1c0.2,0.4,0.6,0.6,1.1,0.6s0.8-0.2,1-0.6S27.5,354.9,27.5,353.9z"
		/>
</g>
<line class="st12" x1="4.4" y1="354.8" x2="16.7" y2="354.8"/>
<line class="st12" x1="40.8" y1="354.8" x2="30.2" y2="354.8"/>
<g>
	<path class="st10" d="M25.1,516.8H20v-1.4l1.7-1.7c0.6-0.6,1-1.1,1.3-1.4s0.4-0.7,0.4-1s-0.1-0.6-0.3-0.8c-0.2-0.2-0.5-0.2-0.8-0.2
		c-0.5,0-1.1,0-1.8,0.1h-0.3l-0.1-1.3c0.8-0.2,1.6-0.4,2.4-0.4c1.7,0,2.5,0.8,2.5,2.3c0,0.6-0.1,1.1-0.4,1.5c-0.3,0.4-0.7,1-1.4,1.6
		l-1.4,1.2h3.3C25.1,515.3,25.1,516.8,25.1,516.8z"/>
</g>
<line class="st12" x1="3.9" y1="513.8" x2="17.7" y2="513.8"/>
<line class="st12" x1="40.3" y1="513.8" x2="26.9" y2="513.8"/>
<circle class="st14" cx="21.9" cy="21.8" r="19.8"/>
<path class="st15" d="M34,723.7H9.5c-3.4,0-6.2-3-6.2-6.7V51.2c0-3.7,2.8-6.7,6.2-6.7H34c3.4,0,6.2,3,6.2,6.7V717
	C40.2,720.7,37.4,723.7,34,723.7z"/>
<path class="st16" d="M24.9,13.1c1.1-0.6,2.6,0.2,2.6,1.4c0,0.9-0.8,1.7-1.7,1.7H6.3c-1.1,0-1.4,0.6-1.4,1.4c0,0.6,0.3,1.4,1.4,1.4
	h19.5c2.4,0,4.3-2,4.3-4.3c0-3.3-3.6-5.5-6.5-3.6c-0.3,0.2-0.8,0.5-1.1,0.6c-1.2,0.8-0.6,2.4,0.6,2.4c0.3,0,0.5,0,0.8-0.2
	C24.1,13.6,24.5,13.4,24.9,13.1L24.9,13.1L24.9,13.1z M30.2,31.1c-1.2-0.6-0.6-2.4,0.6-2.4c0.9,0,1.7,1.1,2.7,1.1
	c0.9,0,1.7-0.8,1.7-1.7s-0.8-1.7-1.7-1.7c-7.8,0-19.3-0.2-27.2-0.2c-0.8,0-1.2-0.6-1.2-1.4c0-0.8,0.5-1.4,1.2-1.4
	c7.8,0,19.3,0.2,27.2,0.2c2.4,0,4.3,2,4.3,4.3c0,3.3-3.6,5.5-6.5,3.6C30.9,31.5,30.5,31.4,30.2,31.1L30.2,31.1L30.2,31.1z M6.3,22.6
	c-1.4,0-1.4-1.1-1.4-1.4c0-0.3,0-1.4,1.4-1.4h30c0.6,0,1.4-0.6,1.5-1.2c0.5-1.5-1.2-2.6-2.4-1.8c-0.3,0.2-0.8,0.5-1.1,0.6
	c-0.9,0.6-2-0.2-2-1.1c0-0.5,0.3-0.9,0.6-1.2c1.4-0.8,2.1-1.5,4-1.4c1.5,0.2,2.7,1.1,3.3,2.4c1.4,3.2-0.9,6.2-4,6.2L6.3,22.6
	L6.3,22.6z"/>
</svg>
