<?xml version="1.0" encoding="UTF-8"?>
<svg id="Livello_1" data-name="Livello 1" xmlns="http://www.w3.org/2000/svg" xmlns:xlink="http://www.w3.org/1999/xlink"  width="50px" height="677px" viewBox="0 0 48.75 677.16">
  <defs>
    <style>
      .cls-1 {
        stroke-width: 2px;
      }

      .cls-1, .cls-2, .cls-3 {
        fill: none;
      }

      .cls-1, .cls-3 {
        stroke: #3c3430;
        stroke-miterlimit: 9.77;
      }

      .cls-4 {
        fill: #3b3330;
      }

      .cls-4, .cls-5, .cls-6, .cls-2, .cls-7, .cls-8, .cls-9, .cls-10, .cls-11, .cls-12, .cls-13, .cls-14, .cls-15, .cls-16 {
        stroke-width: 0px;
      }

      .cls-5 {
        fill: #ff0;
      }

      .cls-5, .cls-6, .cls-7, .cls-10, .cls-12, .cls-13, .cls-14, .cls-15 {
        isolation: isolate;
        opacity: .88;
      }

      .cls-6 {
        fill: #4bcf4f;
      }

      .cls-7 {
        fill: violet;
      }

      .cls-8 {
        fill: #fff;
      }

      .cls-9 {
        fill: #39322e;
      }

      .cls-10 {
        fill: #ff00c3;
      }

      .cls-11 {
        fill: #3c3530;
      }

      .cls-12 {
        fill: #8bd8f9;
      }

      .cls-17 {
        clip-path: url(#clippath);
      }

      .cls-13 {
        fill: #fec601;
      }

      .cls-14 {
        fill: #7070ff;
      }

      .cls-15 {
        fill: #f33;
      }

      .cls-16 {
        fill: #3c3430;
      }
    </style>
    <clipPath id="clippath">
      <path class="cls-2" d="m43.04,671.93c-.49,3.98-9.51,4.35-18.15,4.35l-5.65-.2c-8.48.42-14.3-2.42-14.3-7.13V56.11c1.79-5.55,6.41-6.02,13.26-6.02l9.48-.18c7.82,0,13.59.78,15.38,6.53l.32,612.68-.33,2.81Z"/>
    </clipPath>
  </defs>
  <g class="cls-17">
    <g>
      <rect class="cls-10" x="-21.14" y="43.56" width="466.32" height="73.14"/>
      <polygon class="cls-7" points="-21.65 189.94 -20.93 115.75 445.39 117.61 444.67 191.79 -21.65 189.94"/>
      <rect class="cls-15" x="-21.14" y="189.94" width="466.32" height="73.14"/>
      <rect class="cls-13" x="-21.14" y="263.19" width="466.32" height="73.24"/>
      <rect class="cls-5" x="-21.14" y="336.33" width="466.32" height="73.14"/>
      <rect class="cls-6" x="-21.14" y="409.7" width="466.32" height="73.14"/>
      <rect class="cls-14" x="-21.14" y="482.71" width="466.32" height="73.24"/>
      <rect class="cls-12" x="-21.14" y="555.85" width="466.32" height="125.25"/>
    </g>
  </g>
  <circle class="cls-9" cx="24.06" cy="26.56" r="19.78"/>
  <rect class="cls-2" x="11.1" y="632.04" width="15.4" height="11.8"/>
  <rect class="cls-1" x="5.88" y="49.92" width="36.9" height="625.87" rx="6.18" ry="6.18"/>
  <path class="cls-16" d="m25.61,550.73v7.92h-1.66v-6.05l-1.72,1.1-.76-1.24,2.62-1.74h1.51Z"/>
  <g>
    <path class="cls-11" d="m23.53,110.43v1.44h-3.54l-.2,1.72c.5-.19.97-.29,1.42-.29,1.71,0,2.57.8,2.57,2.39,0,.9-.24,1.59-.71,2.08s-1.14.73-2,.73c-.37,0-.79-.04-1.25-.11s-.84-.15-1.12-.23l-.43-.11.18-1.22c.97.15,1.78.23,2.42.23.39,0,.69-.1.9-.31.21-.21.31-.51.31-.89s-.09-.67-.26-.85-.42-.26-.74-.26c-.54,0-1.01.05-1.42.16l-.18.05-.98-.23.22-4.28h4.84Z"/>
    <path class="cls-11" d="m25.44,111.27c.52-.66,1.28-.98,2.3-.98s1.78.33,2.3.98.77,1.71.77,3.16-.26,2.49-.77,3.12-1.28.94-2.3.94-1.79-.31-2.3-.94c-.51-.63-.77-1.67-.77-3.12s.26-2.51.77-3.16Zm3.67,3.13c0-.99-.1-1.68-.31-2.08-.21-.4-.56-.59-1.05-.59s-.84.2-1.06.6c-.21.4-.32,1.09-.32,2.08s.11,1.67.32,2.06.57.59,1.06.59.84-.2,1.04-.59.31-1.08.31-2.07Z"/>
  </g>
  <line class="cls-3" x1="6.31" y1="555.67" x2="19.23" y2="555.67"/>
  <line class="cls-3" x1="41.99" y1="555.67" x2="28.35" y2="555.67"/>
  <line class="cls-3" x1="5.88" y1="116.18" x2="16.66" y2="116.18"/>
  <line class="cls-3" x1="41.7" y1="116.18" x2="31.68" y2="116.18"/>
  <path class="cls-16" d="m27.37,404.41v1.44h-3.54l-.2,1.72c.5-.19.97-.29,1.42-.29,1.71,0,2.57.8,2.57,2.39,0,.9-.24,1.59-.71,2.08-.47.49-1.14.73-2,.73-.37,0-.79-.04-1.25-.11-.47-.07-.84-.15-1.12-.23l-.43-.11.18-1.22c.97.15,1.78.23,2.42.23.39,0,.69-.1.9-.31.21-.21.31-.51.31-.89s-.09-.67-.26-.85-.42-.26-.74-.26c-.54,0-1.01.05-1.42.16l-.18.05-.98-.23.22-4.28h4.84Z"/>
  <line class="cls-3" x1="6.14" y1="409.42" x2="20.01" y2="409.42"/>
  <line class="cls-3" x1="42.53" y1="409.42" x2="29.13" y2="409.42"/>
  <g>
    <path class="cls-16" d="m23.96,266.01h-5.14v-1.4l1.69-1.72c.6-.62,1.02-1.09,1.25-1.42s.35-.68.35-1.05-.1-.63-.29-.79c-.2-.15-.47-.23-.83-.23-.54,0-1.12.05-1.75.14l-.29.04-.08-1.28c.78-.24,1.6-.36,2.44-.36,1.68,0,2.52.76,2.52,2.27,0,.59-.13,1.1-.38,1.54-.26.43-.72.96-1.39,1.57l-1.38,1.25h3.29v1.44Z"/>
    <path class="cls-16" d="m25.83,258.93c.52-.66,1.28-.98,2.3-.98s1.78.33,2.3.98c.52.66.77,1.71.77,3.16s-.26,2.49-.77,3.12c-.51.63-1.28.94-2.3.94s-1.79-.31-2.3-.94-.77-1.67-.77-3.12.26-2.51.77-3.16Zm3.67,3.13c0-.99-.1-1.68-.31-2.08-.21-.4-.56-.59-1.05-.59s-.84.2-1.06.6c-.21.4-.32,1.09-.32,2.08s.11,1.67.32,2.06c.22.39.57.59,1.06.59s.84-.2,1.04-.59.31-1.08.31-2.07Z"/>
  </g>
  <line class="cls-3" x1="6.38" y1="262.9" x2="18.73" y2="262.9"/>
  <line class="cls-3" x1="42.77" y1="262.9" x2="32.18" y2="262.9"/>
  <g>
    <path class="cls-16" d="m18.6,185.69c.74-.29,1.56-.43,2.47-.43s1.57.17,1.99.52.62.91.62,1.67-.31,1.36-.92,1.76c.38.21.66.42.82.65s.25.58.25,1.07c0,.86-.21,1.49-.64,1.91-.43.42-1.11.62-2.06.62-.7,0-1.43-.1-2.2-.31l-.38-.1.08-1.26c.9.15,1.65.23,2.26.23.82,0,1.24-.35,1.24-1.06,0-.3-.11-.53-.32-.71-.21-.18-.49-.26-.83-.26h-1.6v-1.37h1.6c.26,0,.5-.11.7-.34.2-.22.31-.47.31-.74,0-.57-.4-.85-1.19-.85-.55,0-1.14.06-1.76.17l-.31.05-.11-1.22Z"/>
    <path class="cls-16" d="m25.64,186.24c.52-.66,1.28-.98,2.3-.98s1.78.33,2.3.98.77,1.71.77,3.16-.26,2.49-.77,3.12-1.28.94-2.3.94-1.79-.31-2.3-.94c-.51-.63-.77-1.67-.77-3.12s.26-2.51.77-3.16Zm3.67,3.13c0-.99-.1-1.68-.31-2.08-.21-.4-.56-.59-1.05-.59s-.84.2-1.06.6c-.21.4-.32,1.09-.32,2.08s.11,1.67.32,2.06.57.59,1.06.59.84-.2,1.04-.59.31-1.08.31-2.07Z"/>
  </g>
  <line class="cls-3" x1="6.19" y1="190.22" x2="18.54" y2="190.22"/>
  <line class="cls-3" x1="42.58" y1="190.22" x2="31.98" y2="190.22"/>
  <g>
    <path class="cls-4" d="m16.75,671.72h-1.61v-6h1.6v.34c.55-.32,1.02-.48,1.42-.48.65,0,1.15.19,1.5.56.74-.38,1.41-.56,2.02-.56.79,0,1.34.23,1.65.69.31.46.46,1.19.46,2.2v3.25h-1.61v-3.2c0-.51-.06-.89-.17-1.13-.11-.24-.34-.37-.67-.37-.26,0-.57.06-.94.17l-.18.06c.03.6.05,1.06.05,1.37v3.11h-1.61v-3.08c0-.59-.05-1.01-.16-1.25-.1-.24-.33-.37-.68-.37-.31,0-.62.06-.92.17l-.14.05v4.49Z"/>
    <path class="cls-4" d="m24.84,671.62l3.46-8.52,1.42.5-3.46,8.52-1.42-.5Z"/>
    <path class="cls-4" d="m34.75,667.22c-.99-.13-1.69-.19-2.08-.19s-.65.04-.77.11c-.12.07-.17.19-.17.34s.08.26.23.32.56.15,1.2.26c.64.12,1.1.31,1.37.57.27.26.41.69.41,1.28,0,1.3-.8,1.94-2.41,1.94-.53,0-1.17-.07-1.92-.22l-.38-.07.05-1.34c.99.13,1.68.19,2.07.19s.65-.04.79-.11.21-.19.21-.34-.07-.26-.22-.34c-.15-.07-.53-.16-1.15-.26-.62-.1-1.08-.28-1.39-.53s-.46-.69-.46-1.33.22-1.12.65-1.44c.43-.32.99-.49,1.67-.49.47,0,1.12.08,1.93.23l.4.07-.02,1.33Z"/>
  </g>
  <g>
    <path class="cls-4" d="m22.45,330.77v7.92h-1.66v-6.05l-1.72,1.1-.76-1.24,2.62-1.74h1.51Z"/>
    <path class="cls-4" d="m25.22,331.61c.52-.66,1.28-.98,2.3-.98s1.78.33,2.3.98c.52.66.77,1.71.77,3.16s-.26,2.49-.77,3.12c-.51.63-1.28.94-2.3.94s-1.79-.31-2.3-.94-.77-1.67-.77-3.12.26-2.51.77-3.16Zm3.67,3.13c0-.99-.1-1.68-.31-2.08-.21-.4-.56-.59-1.05-.59s-.84.2-1.06.6c-.21.4-.32,1.09-.32,2.08s.11,1.67.32,2.06c.22.39.57.59,1.06.59s.84-.2,1.04-.59.31-1.08.31-2.07Z"/>
  </g>
  <line class="cls-3" x1="5.77" y1="335.59" x2="18.12" y2="335.59"/>
  <line class="cls-3" x1="42.16" y1="335.59" x2="31.57" y2="335.59"/>
  <path class="cls-16" d="m26.74,485.75h-5.14v-1.4l1.69-1.72c.6-.62,1.02-1.09,1.25-1.42s.35-.68.35-1.05-.1-.63-.29-.79c-.2-.15-.47-.23-.83-.23-.54,0-1.12.05-1.75.14l-.29.04-.08-1.28c.78-.24,1.6-.36,2.44-.36,1.68,0,2.52.76,2.52,2.27,0,.59-.13,1.1-.38,1.54-.26.43-.72.96-1.39,1.57l-1.38,1.25h3.29v1.44Z"/>
  <line class="cls-3" x1="5.47" y1="482.84" x2="19.34" y2="482.84"/>
  <line class="cls-3" x1="41.86" y1="482.84" x2="28.46" y2="482.84"/>
  <path class="cls-8" d="m26.95,19.74c1.06-.61,2.59.15,2.59,1.37,0,.91-.76,1.67-1.67,1.67H8.4c-1.06,0-1.37.61-1.37,1.37,0,.61.3,1.37,1.37,1.37h19.47c2.43,0,4.26-1.98,4.26-4.26,0-3.35-3.65-5.47-6.54-3.65-.3.15-.76.46-1.06.61-1.22.76-.61,2.43.61,2.43.3,0,.46,0,.76-.15.3-.3.76-.46,1.06-.76h0Zm5.32,17.95c-1.22-.61-.61-2.43.61-2.43.91,0,1.67,1.06,2.74,1.06.91,0,1.67-.76,1.67-1.67s-.76-1.67-1.67-1.67c-7.76,0-19.31-.15-27.22-.15-.76,0-1.22-.61-1.22-1.37s.46-1.37,1.22-1.37c7.76,0,19.31.15,27.22.15,2.43,0,4.26,1.98,4.26,4.26,0,3.35-3.65,5.47-6.54,3.65-.3,0-.76-.15-1.06-.46h0Zm-23.88-8.52c-1.37,0-1.37-1.06-1.37-1.37s0-1.37,1.37-1.37h29.96c.61,0,1.37-.61,1.52-1.22.46-1.52-1.22-2.59-2.43-1.82-.3.15-.76.46-1.06.61-.91.61-1.98-.15-1.98-1.06,0-.46.3-.91.61-1.22,1.37-.76,2.13-1.52,3.95-1.37,1.52.15,2.74,1.06,3.35,2.43,1.37,3.19-.91,6.24-3.95,6.24l-29.96.15h0Z"/>
</svg>