<?xml version="1.0" encoding="UTF-8"?>
<svg id="Livello_1" xmlns="http://www.w3.org/2000/svg" version="1.1" width="40.8px" height="725.2px" viewBox="0 0 40.8 725.2">
  <!-- Generator: Adobe Illustrator 29.8.3, SVG Export Plug-In . SVG Version: 2.1.1 Build 3)  -->
  <defs>
    <style>
      .st0 {
        fill: #ac6235;
      }

      .st1 {
        fill: #050;
      }

      .st2 {
        fill: #003d00;
      }

      .st3 {
        fill: #3c3430;
      }

      .st4 {
        fill: #4a2b1d;
      }

      .st5 {
        stroke-width: 2px;
      }

      .st5, .st6, .st7 {
        fill: none;
      }

      .st5, .st7 {
        stroke: #3c3430;
        stroke-miterlimit: 9.8;
      }

      .st8 {
        fill: #39322e;
      }

      .st9 {
        fill: #fff;
      }

      .st10 {
        fill: #804a32;
      }

      .st11 {
        fill: #4fe34f;
      }

      .st12 {
        fill: #35a135;
      }

      .st13 {
        fill: #d0f5d0;
      }

      .st14 {
        fill: #d6a785;
      }

      .st15 {
        fill: #edd2bf;
      }

      .st16 {
        fill: #9ce69c;
      }

      .st17 {
        fill: #cc8654;
      }
    </style>
  </defs>
  <g>
    <path class="st4" d="M4.3,674.3h35v43.3c0,2.8-2.3,5.1-5.1,5.1H9.7c-3,0-5.4-2.4-5.4-5.4v-43h0Z"/>
    <rect class="st10" x="4.3" y="625.9" width="35" height="48.4"/>
    <rect class="st0" x="4.3" y="577.5" width="35" height="48.4"/>
    <rect class="st17" x="4.3" y="529" width="35" height="48.4"/>
    <rect class="st14" x="4.3" y="480.6" width="35" height="48.4"/>
    <rect class="st15" x="4.3" y="432.2" width="35" height="48.4"/>
    <rect class="st9" x="4.3" y="383.8" width="35" height="48.4"/>
    <rect class="st9" x="4.3" y="335.4" width="35" height="48.4"/>
    <rect class="st13" x="4.3" y="287" width="35" height="48.4"/>
    <rect class="st16" x="4.3" y="238.5" width="35" height="48.5"/>
    <rect class="st11" x="4.3" y="190.1" width="35" height="48.4"/>
    <rect class="st12" x="4.3" y="141.7" width="35" height="48.4"/>
    <rect class="st1" x="4.3" y="93.3" width="35" height="48.4"/>
    <path class="st2" d="M7.4,44.9h28.4c2,0,3.6,1.6,3.6,3.6v44.9H4.3v-45.3c0-1.7,1.4-3.1,3.1-3.1h0v-.1Z"/>
  </g>
  <circle class="st8" cx="21.9" cy="21.8" r="19.8"/>
  <rect class="st6" x="8.6" y="680" width="15.4" height="11.8"/>
  <path class="st5" d="M34.1,723.8H9.6c-3.4,0-6.2-2.8-6.2-6.2V51.1c0-3.4,2.8-6.2,6.2-6.2h24.5c3.4,0,6.2,2.8,6.2,6.2v666.5c0,3.4-2.8,6.2-6.2,6.2Z"/>
  <path class="st9" d="M36.9,22.8h0c0-7.6-6.2-13.8-13.9-14.2v-1.3c0-.3-.3-.7-.8-.7s-.8.3-.8.7v1.3c-7.8.3-14,6.5-14,14.1s.3.7.8.7.3-.1.6-.2c2.5-2.3,5.8-2.3,8.2,0,.1.1.3.2.6.2s.3-.1.5-.2c1-.9,2.2-1.5,3.4-1.6v9.8c0,1.9,1.7,3.7,3.8,3.7s3.8-1.6,3.8-3.7-.3-.7-.8-.7-.8.3-.8.7c0,1.1-1,2.2-2.3,2.2s-2.3-1-2.3-2.2v-9.8c1.1.1,2.4.7,3.4,1.6.2.2.8.2,1,0,2.5-2.3,5.8-2.3,8.3,0,.2.2.7.2.9.1.3-.2.4-.3.4-.5ZM26.1,21.3c-1.3-.8-2.6-1.3-4-1.3h-.2c-1.4,0-2.7.5-4,1.3-.3-4.9.9-8.8,2.5-10.5,1-1.1,2.1-1.1,3.2,0,1.6,1.7,3,5.5,2.5,10.5ZM9,21.1c.7-5.4,4.8-9.6,10-10.8-1.5,1.9-2.9,5.7-2.5,10.8-2.2-1.4-5.1-1.4-7.5,0ZM27.7,21.1c.3-5.1-1-8.9-2.5-10.8,5.4,1.3,9.4,5.5,10,10.8-2.3-1.4-5.1-1.4-7.5,0Z"/>
  <line class="st7" x1="4.4" y1="674.3" x2="12" y2="674.3"/>
  <path class="st5" d="M34,723.7H9.5c-3.4,0-6.2-3-6.2-6.7V51.2c0-3.7,2.8-6.7,6.2-6.7h24.5c3.4,0,6.2,3,6.2,6.7v665.8c0,3.7-2.8,6.7-6.2,6.7Z"/>
  <line class="st7" x1="32" y1="674.1" x2="39.3" y2="674.1"/>
  <g>
    <path class="st9" d="M15.2,674.7v-.9h2.7v.9h-2.7Z"/>
    <path class="st9" d="M19.5,671c.4-.3.9-.4,1.6-.4s1.2,0,1.6.4c.4.3.6.7.6,1.2s0,.6-.2.8c-.1.2-.3.4-.6.6.3.2.5.4.7.6.1.2.2.5.2.9,0,.6-.2,1.1-.6,1.3-.4.3-1,.4-1.7.4-1.5,0-2.3-.5-2.3-1.6s0-.7.2-.9c.1-.2.4-.4.7-.6-.3-.2-.5-.4-.6-.6-.1-.2-.2-.5-.2-.8,0-.5.2-.9.6-1.2h0v-.1ZM19.9,675c0,.6.4.9,1.2.9s1.2-.3,1.2-1-.3-.7-.8-.9h-.9c-.5.2-.7.5-.7.9h0v.1ZM22.2,672.4c0-.6-.4-.8-1.1-.8s-1.1.3-1.1.8.2.7.6.9h.9c.5-.2.7-.5.7-.9Z"/>
    <path class="st9" d="M24.5,671.4c.4-.5,1-.7,1.7-.7s1.3.2,1.7.7c.4.5.6,1.3.6,2.4s-.2,1.9-.6,2.4-1,.7-1.7.7-1.3-.2-1.7-.7-.6-1.3-.6-2.4.2-1.9.6-2.4ZM27.1,672c-.2-.3-.5-.5-.9-.5s-.8.2-.9.5c-.2.3-.3.9-.3,1.8s0,1.4.3,1.7c.2.3.5.5.9.5s.7-.2.9-.5c.2-.3.3-.9.3-1.7s0-1.4-.3-1.8Z"/>
  </g>
  <line class="st7" x1="4.1" y1="625.6" x2="11.9" y2="625.6"/>
  <line class="st7" x1="31.8" y1="625.6" x2="39.5" y2="625.6"/>
  <g>
    <path class="st9" d="M15.5,626.6v-.9h2.7v.9h-2.7Z"/>
    <path class="st9" d="M23.1,623.5h-1.6c-.5,0-.8,0-1.1.4-.2.3-.4.7-.4,1.2h.2c.4-.2.8-.3,1.1-.3,1.3,0,2,.6,2,1.9s-.2,1.1-.6,1.5c-.4.3-.9.5-1.6.5s-1.3-.3-1.6-.8c-.4-.5-.5-1.3-.5-2.3,0-2,.8-3.1,2.4-3.1s.9,0,1.5.2h.3v.8h-.1ZM20.3,625.9h-.2c0,1.3.4,1.9,1.2,1.9s.6,0,.8-.3c.2-.2.3-.5.3-.8s0-.6-.3-.8-.4-.3-.8-.3-.7,0-1.1.2h.1v.1Z"/>
    <path class="st9" d="M24.6,623.2c.4-.5.9-.7,1.7-.7s1.3.2,1.7.7c.4.5.6,1.3.6,2.4s-.2,1.9-.6,2.3-.9.7-1.7.7-1.3-.2-1.7-.7-.6-1.2-.6-2.3.2-1.9.6-2.4ZM27.2,623.9c-.2-.3-.5-.5-.9-.5s-.7.2-.9.5c-.2.3-.3.9-.3,1.7s0,1.4.3,1.7c.2.3.5.5.9.5s.7-.2.9-.5c.2-.3.3-.9.3-1.7s0-1.4-.3-1.7Z"/>
  </g>
  <line class="st7" x1="4.4" y1="577.5" x2="11.9" y2="577.5"/>
  <line class="st7" x1="31.8" y1="577.5" x2="39.4" y2="577.5"/>
  <g>
    <path class="st9" d="M15.3,578v-.9h2.7v.9h-2.7Z"/>
    <path class="st9" d="M21.7,580v-1.1h-2.7v-.8l1.6-4.2h1.1l-1.7,4.1h1.7v-1.8h1v1.8h.7v.9h-.7v1.1h-1Z"/>
    <path class="st9" d="M24.6,574.6c.4-.5,1-.7,1.7-.7s1.3.2,1.7.7c.4.5.6,1.3.6,2.4s-.2,1.9-.6,2.4-1,.7-1.7.7-1.3-.2-1.7-.7-.6-1.3-.6-2.4.2-1.9.6-2.4ZM27.2,575.3c-.2-.3-.5-.5-.9-.5s-.8.2-.9.5c-.2.3-.3.9-.3,1.8s0,1.4.3,1.7c.2.3.5.5.9.5s.7-.2.9-.5c.2-.3.3-.9.3-1.7s0-1.4-.3-1.8Z"/>
  </g>
  <line class="st7" x1="4.2" y1="528.8" x2="12" y2="528.8"/>
  <line class="st7" x1="31.9" y1="528.9" x2="39.6" y2="528.9"/>
  <g>
    <path class="st3" d="M14.9,530.3v-1h3v1h-3Z"/>
    <path class="st3" d="M19.1,526.1c.6-.2,1.3-.3,2-.3s1.3.1,1.6.4.5.7.5,1.3,0,.5-.2.7c-.1.2-.2.4-.3.5-.1,0-.2.2-.4.3.4.2.6.3.8.5.2.2.2.5.2,1s-.2,1.2-.5,1.6c-.3.3-.9.5-1.7.5h-1c-.4,0-.6-.1-.9-.2h-.3v-.9c.7.1,1.4.2,1.9.2.8,0,1.2-.4,1.2-1.1s-.1-.6-.3-.7c-.2-.2-.5-.3-.8-.3h-1.3v-.9h1.3c.2,0,.5-.1.7-.3s.3-.5.3-.7,0-.5-.3-.6c-.2-.1-.4-.2-.8-.2s-1.1,0-1.6.1h-.3v-.8h.2v-.1Z"/>
    <path class="st3" d="M25,526.6c.4-.5,1-.8,1.9-.8s1.5.3,1.9.8.6,1.4.6,2.6-.2,2.1-.6,2.6-1,.8-1.9.8-1.5-.3-1.9-.8-.6-1.4-.6-2.6.2-2.1.6-2.7h0v.1ZM27.9,527.3c-.2-.4-.5-.5-1-.5s-.8.2-1,.5-.3,1-.3,1.9.1,1.5.3,1.9c.2.3.6.5,1,.5s.8-.2,1-.5c.2-.4.3-1,.3-1.9s-.1-1.6-.3-1.9Z"/>
  </g>
  <line class="st7" x1="4.3" y1="480.6" x2="11.9" y2="480.6"/>
  <line class="st7" x1="31.9" y1="480.7" x2="39.5" y2="480.7"/>
  <g>
    <path class="st3" d="M14.6,480.9v-1h3v1h-3Z"/>
    <path class="st3" d="M23.1,483.1h-4.2v-1l1.6-1.7c.5-.5.8-.9,1-1.2.2-.3.3-.6.3-.9s0-.6-.3-.7-.5-.2-1-.2-.9,0-1.4.1h-.2v-.8c.6-.2,1.3-.3,2-.3,1.4,0,2.1.6,2.1,1.8s-.1.9-.3,1.2-.6.8-1.1,1.3l-1.4,1.4h3v1h-.1Z"/>
    <path class="st3" d="M24.7,477.2c.4-.5,1-.8,1.9-.8s1.5.3,1.9.8.6,1.4.6,2.6-.2,2.1-.6,2.6-1,.8-1.9.8-1.5-.3-1.9-.8-.6-1.4-.6-2.6.2-2.1.6-2.7h0v.1ZM27.6,477.9c-.2-.4-.5-.5-1-.5s-.8.2-1,.5-.3,1-.3,1.9.1,1.5.3,1.9c.2.3.6.5,1,.5s.8-.2,1-.5c.2-.4.3-1,.3-1.9s-.1-1.6-.3-1.9Z"/>
  </g>
  <line class="st7" x1="4" y1="431.7" x2="11.9" y2="431.7"/>
  <line class="st7" x1="31.6" y1="431.7" x2="39.3" y2="431.7"/>
  <g>
    <path class="st3" d="M14.7,432.7v-1h3v1h-3Z"/>
    <path class="st3" d="M22.4,428.3v6.6h-1.1v-5.3l-1.5,1-.5-.8,2.1-1.4h1v-.1Z"/>
    <path class="st3" d="M24.8,429c.4-.5,1-.8,1.9-.8s1.5.3,1.9.8.6,1.4.6,2.6-.2,2.1-.6,2.6-1,.8-1.9.8-1.5-.3-1.9-.8-.6-1.4-.6-2.6.2-2.1.6-2.7h0v.1ZM27.7,429.7c-.2-.4-.6-.5-1-.5s-.8.2-1,.5-.3,1-.3,1.9.1,1.5.3,1.9c.2.3.6.5,1,.5s.8-.2,1-.5c.2-.4.3-1,.3-1.9s-.1-1.6-.3-1.9Z"/>
  </g>
  <line class="st7" x1="4.3" y1="383.8" x2="11.8" y2="383.8"/>
  <line class="st7" x1="31.8" y1="383.8" x2="39.4" y2="383.8"/>
  <g>
    <path class="st3" d="M20.2,331.5v6.6h-1.1v-5.3l-1.5,1-.5-.8,2.1-1.4h1v-.1Z"/>
    <path class="st3" d="M22.6,332.2c.4-.5,1-.8,1.9-.8s1.5.3,1.9.8.6,1.4.6,2.6-.2,2.1-.6,2.6-1,.8-1.9.8-1.5-.3-1.9-.8-.6-1.4-.6-2.6.2-2.1.6-2.7h0v.1ZM25.5,332.9c-.2-.4-.5-.5-1-.5s-.8.2-1,.5c-.2.4-.3,1-.3,1.9s.1,1.5.3,1.9c.2.3.6.5,1,.5s.8-.2,1-.5c.2-.4.3-1,.3-1.9s-.1-1.6-.3-1.9Z"/>
  </g>
  <line class="st7" x1="4.1" y1="335.2" x2="11.9" y2="335.2"/>
  <line class="st7" x1="31.8" y1="335.2" x2="39.5" y2="335.2"/>
  <g>
    <path class="st3" d="M21.2,290h-4.2v-1l1.6-1.7c.5-.5.8-.9,1-1.2.2-.3.3-.6.3-.9s0-.6-.3-.7-.5-.2-1-.2-.9,0-1.4.1h-.2v-.8c.6-.2,1.3-.3,2-.3,1.4,0,2.1.6,2.1,1.8s-.1.9-.3,1.2-.6.8-1.1,1.3l-1.4,1.4h3v1h-.1Z"/>
    <path class="st3" d="M22.8,284c.4-.5,1-.8,1.9-.8s1.5.3,1.9.8.6,1.4.6,2.6-.2,2.1-.6,2.6-1,.8-1.9.8-1.5-.3-1.9-.8-.6-1.4-.6-2.6.2-2.1.6-2.7h0v.1ZM25.7,284.8c-.2-.4-.6-.5-1-.5s-.8.2-1,.5-.3,1-.3,1.9.1,1.5.3,1.9c.2.3.6.5,1,.5s.8-.2,1-.5c.2-.4.3-1,.3-1.9s-.1-1.6-.3-1.9Z"/>
  </g>
  <line class="st7" x1="4.2" y1="287.1" x2="11.8" y2="287.1"/>
  <line class="st7" x1="31.8" y1="287.1" x2="39.4" y2="287.1"/>
  <g>
    <path class="st3" d="M16.8,234.8c.6-.2,1.3-.3,2-.3s1.3.1,1.6.4.5.7.5,1.3,0,.5-.2.7c-.1.2-.2.4-.3.5-.1,0-.2.2-.4.3.4.2.6.3.8.5.2.2.2.5.2,1s-.2,1.2-.5,1.6c-.3.3-.9.5-1.7.5h-1c-.4,0-.6-.1-.9-.2h-.3v-.9c.7.1,1.4.2,1.9.2.8,0,1.2-.4,1.2-1.1s-.1-.6-.3-.7c-.2-.2-.5-.3-.8-.3h-1.3v-.9h1.3c.2,0,.5-.1.7-.3s.3-.5.3-.7,0-.5-.3-.6c-.2-.1-.4-.2-.8-.2s-1.1,0-1.6.1h-.3v-.8h.2v-.1Z"/>
    <path class="st3" d="M22.6,235.3c.4-.5,1-.8,1.9-.8s1.5.3,1.9.8.6,1.4.6,2.6-.2,2.1-.6,2.6-1,.8-1.9.8-1.5-.3-1.9-.8-.6-1.4-.6-2.6.2-2.1.6-2.7h0v.1ZM25.5,236c-.2-.4-.5-.5-1-.5s-.8.2-1,.5c-.2.4-.3,1-.3,1.9s.1,1.5.3,1.9c.2.3.6.5,1,.5s.8-.2,1-.5c.2-.4.3-1,.3-1.9s-.1-1.6-.3-1.9Z"/>
  </g>
  <line class="st7" x1="4.1" y1="238.3" x2="11.9" y2="238.3"/>
  <line class="st7" x1="31.8" y1="238.4" x2="39.5" y2="238.4"/>
  <g>
    <path class="st3" d="M19.6,193.1v-1.2h-3v-.9l1.7-4.6h1.2l-1.8,4.4h1.8v-1.9h1.1v1.9h.7v1h-.7v1.2h-1.1l.1.1Z"/>
    <path class="st3" d="M22.8,187.2c.4-.5,1-.8,1.9-.8s1.5.3,1.9.8.6,1.4.6,2.6-.2,2.1-.6,2.6-1,.8-1.9.8-1.5-.3-1.9-.8-.6-1.4-.6-2.6.2-2.1.6-2.7h0v.1ZM25.7,187.9c-.2-.4-.6-.5-1-.5s-.8.2-1,.5-.3,1-.3,1.9.1,1.5.3,1.9c.2.3.6.5,1,.5s.8-.2,1-.5c.2-.4.3-1,.3-1.9s-.1-1.6-.3-1.9Z"/>
  </g>
  <line class="st7" x1="4.2" y1="190.1" x2="11.8" y2="190.1"/>
  <line class="st7" x1="31.8" y1="190.2" x2="39.4" y2="190.2"/>
  <g>
    <path class="st9" d="M21,138.8c-.6,0-1.2-.1-1.8-.1s-.9.2-1.2.5c-.3.3-.4.8-.4,1.4h.2c.5-.2.9-.3,1.2-.3,1.5,0,2.2.7,2.2,2.1s-.2,1.3-.6,1.6c-.4.4-1,.6-1.8.6s-1.4-.3-1.8-.9c-.4-.6-.6-1.4-.6-2.5,0-2.3.9-3.4,2.7-3.4s1,0,1.6.2h.3v.9c-.1,0,0-.1,0-.1ZM17.8,141.4h-.2c0,1.4.5,2.1,1.3,2.1s.7-.1.9-.3c.2-.2.3-.5.3-.9s-.1-.7-.3-.9c-.2-.2-.5-.3-.9-.3s-.8,0-1.2.2h.1v.1Z"/>
    <path class="st9" d="M22.6,138.5c.4-.5,1-.8,1.9-.8s1.5.3,1.9.8.6,1.4.6,2.6-.2,2.1-.6,2.6-1,.8-1.9.8-1.5-.3-1.9-.8-.6-1.4-.6-2.6.2-2.1.6-2.7h0v.1ZM25.5,139.2c-.2-.4-.5-.5-1-.5s-.8.2-1,.5c-.2.4-.3,1-.3,1.9s.1,1.5.3,1.9c.2.3.6.5,1,.5s.8-.2,1-.5c.2-.4.3-1,.3-1.9s-.1-1.6-.3-1.9Z"/>
  </g>
  <line class="st7" x1="4.3" y1="141.7" x2="12.1" y2="141.7"/>
  <g>
    <path class="st9" d="M17.3,90c.4-.3,1-.5,1.7-.5s1.3.2,1.8.5c.4.3.7.7.7,1.3s0,.7-.2.9-.4.4-.7.6c.3.2.6.4.7.7.2.2.2.5.2,1s-.2,1.2-.7,1.5-1.1.5-1.8.5c-1.7,0-2.5-.6-2.5-1.8s0-.8.2-1,.4-.5.7-.7c-.3-.2-.5-.4-.7-.6-.1-.2-.2-.5-.2-.9,0-.6.2-1,.6-1.3,0,0,.2-.2.2-.2ZM17.7,94.4c0,.7.4,1,1.3,1s1.3-.4,1.3-1.1-.3-.8-.8-.9h-1c-.5.2-.8.5-.8,1ZM20.2,91.5c0-.6-.4-.9-1.2-.9s-1.2.3-1.2.9.2.7.7,1h1c.5-.2.7-.5.7-1Z"/>
    <path class="st9" d="M22.8,90.4c.4-.5,1-.8,1.9-.8s1.5.3,1.9.8.6,1.4.6,2.6-.2,2.1-.6,2.6-1,.8-1.9.8-1.5-.3-1.9-.8-.6-1.4-.6-2.6.2-2.1.6-2.7h0v.1ZM25.7,91.1c-.2-.4-.6-.5-1-.5s-.8.2-1,.5-.3,1-.3,1.9.1,1.5.3,1.9c.2.3.6.5,1,.5s.8-.2,1-.5c.2-.4.3-1,.3-1.9s-.1-1.6-.3-1.9Z"/>
  </g>
  <line class="st7" x1="4.5" y1="92.9" x2="12" y2="92.9"/>
  <line class="st7" x1="31.8" y1="93" x2="39.4" y2="93"/>
  <path class="st9" d="M18,711.5c0-1.4.6-2.1,1.7-2.1s1.7.7,1.7,2.1-.1,1.3-.5,1.6c-.3.4-.7.5-1.3.5s-1-.2-1.3-.5c-.3-.4-.5-.9-.5-1.6,0,0,.2,0,.2,0ZM19.3,710.7c0,.2-.1.5-.1.9s0,.7.1.9c0,.2.2.3.4.3s.3,0,.4-.3c0-.2.1-.5.1-.9s0-.7-.1-.9c0-.2-.2-.3-.4-.3s-.3,0-.4.3ZM19.8,719.6l3.3-10.5.9.3-3.3,10.4-.9-.3h0v.1ZM22.3,717.5c0-1.4.6-2.1,1.7-2.1s1.7.7,1.7,2.1-.1,1.3-.5,1.6c-.3.4-.7.5-1.3.5s-1-.2-1.3-.5c-.3-.4-.5-.9-.5-1.6,0,0,.2,0,.2,0ZM24.1,716.4c-.2,0-.3,0-.4.3,0,.2-.1.5-.1.9s0,.7.1.9c0,.2.2.3.4.3s.3,0,.4-.3c0-.2.1-.5.1-.9s0-.7-.1-.9-.2-.3-.4-.3Z"/>
  <path class="st3" d="M20.2,381.3c.4-.5,1-.8,1.9-.8s1.5.3,1.9.8.6,1.4.6,2.6-.2,2.1-.6,2.6-1,.8-1.9.8-1.5-.3-1.9-.8-.6-1.4-.6-2.6.2-2.1.6-2.7h0v.1ZM23.1,382c-.2-.4-.5-.5-1-.5s-.8.2-1,.5c-.2.4-.3,1-.3,1.9s.1,1.5.3,1.9c.2.3.6.5,1,.5s.8-.2,1-.5c.2-.4.3-1,.3-1.9s-.1-1.6-.3-1.9Z"/>
  <line class="st7" x1="31.5" y1="141.7" x2="39.3" y2="141.7"/>
</svg>