<?xml version="1.0" encoding="UTF-8"?>
<svg id="Livello_1" xmlns="http://www.w3.org/2000/svg" version="1.1" xmlns:xlink="http://www.w3.org/1999/xlink" width="42.8px" height="725.2px" viewBox="0 0 40.8 725.2">
  <!-- Generator: Adobe Illustrator 29.6.1, SVG Export Plug-In . SVG Version: 2.1.1 Build 9)  -->
  <defs>
    <style>
      .st0 {
        fill: #ffc4c4;
      }

      .st0, .st1, .st2, .st3, .st4, .st5, .st6, .st7, .st8, .st9, .st10, .st11, .st12, .st13, .st14, .st15, .st16, .st17, .st18, .st19, .st20, .st21, .st22, .st23, .st24, .st25, .st26, .st27, .st28, .st29, .st30, .st31 {
        isolation: isolate;
      }

      .st0, .st1, .st2, .st3, .st4, .st5, .st6, .st7, .st8, .st9, .st10, .st11, .st12, .st13, .st14, .st16, .st17, .st18, .st19, .st20, .st21, .st22, .st23, .st24, .st25, .st26, .st27, .st28, .st29, .st30, .st31 {
        opacity: .8;
      }

      .st1 {
        fill: #b5e4ff;
      }

      .st2 {
        fill: #a60000;
      }

      .st32 {
        fill: #3c3430;
      }

      .st3 {
        fill: #0f0000;
      }

      .st4 {
        fill: #99daff;
      }

      .st5 {
        fill: #006fb0;
      }

      .st33 {
        stroke-width: 2px;
      }

      .st33, .st34, .st35 {
        fill: none;
      }

      .st33, .st35 {
        stroke: #3c3430;
        stroke-miterlimit: 9.8;
      }

      .st6 {
        fill: #231a8a;
      }

      .st7 {
        fill: #300;
      }

      .st8 {
        fill: #520000;
      }

      .st36 {
        fill: #39322e;
      }

      .st37, .st27 {
        fill: #fff;
      }

      .st9 {
        fill: #0955b3;
      }

      .st10 {
        fill: #fe5b5b;
      }

      .st11 {
        fill: #6bc9ff;
      }

      .st12 {
        fill: #7a0000;
      }

      .st13 {
        fill: #ffa6a6;
      }

      .st14 {
        fill: #003e8a;
      }

      .st16 {
        fill: #ff7d7d;
      }

      .st17 {
        fill: #ffe3e3;
      }

      .st18 {
        fill: #0089d9;
      }

      .st19 {
        fill: #ff2929;
      }

      .st20 {
        fill: #c667e0;
      }

      .st21 {
        fill: #3bb7ff;
      }

      .st22 {
        fill: #005485;
      }

      .st23 {
        fill: #541a8a;
      }

      .st24 {
        fill: #ff0505;
      }

      .st25 {
        fill: #002c61;
      }

      .st26 {
        fill: #00a2ff;
      }

      .st28 {
        fill: #c90000;
      }

      .st29 {
        fill: #e00404;
      }

      .st30 {
        fill: #240000;
      }

      .st38 {
        clip-path: url(#clippath);
      }

      .st31 {
        fill: #9b41b4;
      }
    </style>
    <clipPath id="clippath">
      <path class="st34" d="M40,719c-.4,4.2-7.6,4.6-15.4,4.6-7.6.4-21.2.5-21.2-4.5L3.7,48.4c1.6-6,12.1-4.2,18.1-4.2s16.5-1.9,18.2,4.5v670.3Z"/>
    </clipPath>
  </defs>
  <rect class="st37" x="3" y="43.4" width="37.9" height="680.5" rx="7.7" ry="7.7"/>
  <g class="st38">
    <g>
      <rect class="st20" x="-19.2" y="684.6" width="86.4" height="57.7"/>
      <rect class="st3" x="-19.2" y="42.9" width="89.4" height="20.8"/>
      <rect class="st30" x="-19.2" y="63.7" width="89.4" height="20.8"/>
      <rect class="st7" x="-19.2" y="84.3" width="89.4" height="20.8"/>
      <rect class="st8" x="-19.2" y="105" width="89.4" height="20.8"/>
      <rect class="st12" x="-19.2" y="125.7" width="89.4" height="20.8"/>
      <rect class="st2" x="-19.2" y="146.5" width="89.4" height="20.8"/>
      <rect class="st28" x="-19.2" y="167.2" width="89.4" height="20.8"/>
      <rect class="st29" x="-19.2" y="187.8" width="89.4" height="20.8"/>
      <rect class="st24" x="-19.2" y="208.5" width="89.4" height="20.8"/>
      <rect class="st19" x="-19.2" y="229.3" width="89.4" height="20.8"/>
      <rect class="st10" x="-19.2" y="250" width="89.4" height="20.8"/>
      <rect class="st16" x="-19.2" y="270.7" width="89.4" height="20.8"/>
      <rect class="st13" x="-19.2" y="291.3" width="89.4" height="20.8"/>
      <rect class="st0" x="-19.2" y="312.1" width="89.4" height="20.9"/>
      <rect class="st17" x="-19.2" y="332.8" width="89.4" height="20.8"/>
      <rect class="st27" x="-19.2" y="353.6" width="89.4" height="20.8"/>
      <rect class="st27" x="-19.2" y="374.2" width="89.4" height="20.8"/>
      <rect class="st1" x="-19.2" y="394.9" width="89.4" height="20.9"/>
      <rect class="st4" x="-19.2" y="415.7" width="89.4" height="20.8"/>
      <rect class="st11" x="-19.2" y="436.3" width="89.4" height="20.8"/>
      <rect class="st21" x="-19.2" y="457" width="89.4" height="20.8"/>
      <rect class="st26" x="-19.2" y="477.7" width="89.4" height="20.8"/>
      <rect class="st18" x="-19.2" y="498.4" width="89.4" height="20.8"/>
      <rect class="st5" x="-19.2" y="519" width="89.4" height="20.8"/>
      <rect class="st22" x="-19.2" y="539.4" width="89.4" height="21.1"/>
      <rect class="st9" x="-19.2" y="560.4" width="89.4" height="20.8"/>
      <rect class="st14" x="-19.2" y="581.2" width="89.4" height="20.8"/>
      <rect class="st25" x="-19.2" y="601.9" width="89.4" height="20.8"/>
      <rect class="st6" x="-18.2" y="622.7" width="89.4" height="20.8"/>
      <rect class="st23" x="-19.2" y="643.2" width="89.4" height="20.8"/>
      <rect class="st31" x="-19.2" y="664" width="89.4" height="20.8"/>
    </g>
  </g>
  <circle class="st36" cx="22.1" cy="22.1" r="19.8"/>
  <g id="Layer_1">
    <path class="st37" d="M22.1,5.9c-3.6,0-6.6,2.8-6.6,6.3v9.3c-2.5,2.1-3.8,5.2-3.4,8.4.6,4.4,4.3,7.8,8.8,8.3,5.8.5,11.1-3.8,11.1-9.4s-1.2-5.3-3.4-7.1v-9.2c.1-3.7-2.9-6.6-6.5-6.6ZM30.2,28.6c0,4.7-4.4,8.3-9.2,7.9-3.6-.4-6.7-3.2-7.1-6.9-.3-2.8.8-5.4,3.1-7.1.1-.1.3-.4.3-.6v-9.6c0-2.6,2.2-4.7,4.8-4.7s4.8,2.1,4.8,4.7v9.6c0,.3.1.4.3.6,2,1.4,3,3.6,3,6.1Z"/>
    <path class="st37" d="M25.2,24.4v-9.9c0-1.7-1.4-3-3.1-3s-3.1,1.4-3.1,3v10c-1.8,1.3-2.6,3.4-2.1,5.4.9,3.5,5.6,5,8.7,2.8,1.3-1,2.1-2.6,2.1-4-.2-1.8-1.1-3.4-2.5-4.3ZM24.4,31.3c-2.1,1.6-5.3.5-5.8-1.8-.4-1.6.3-3.1,1.8-3.9.3-.1.4-.4.4-.6v-10.4c0-.6.6-1.4,1.4-1.4s1.4.5,1.4,1.4v10.4c0,.3.1.5.4.6,1.2.6,1.9,1.8,1.9,3.1-.2.9-.6,1.8-1.5,2.6Z"/>
  </g>
  <rect class="st34" x="9" y="676.7" width="15.4" height="12.9"/>
  <g class="st15">
    <path class="st37" d="M27.5,720.9c-.9.2-1.7.3-2.5.3s-1.3,0-1.8-.3c-.4-.2-.8-.5-1-1-.3-.4-.4-1-.5-1.5s-.1-1.3-.1-2.2c0-1.9.2-3.2.7-3.9.5-.8,1.4-1.1,2.7-1.1s1.6,0,2.6.4v1.5c-1,0-1.7-.2-2.2-.2s-1,0-1.2.2-.4.4-.5,1c-.1.4-.2,1.2-.2,2.4s.1,1.9.4,2.3c.3.4.7.7,1.4.7s1.5,0,2.3-.2v1.6h0Z"/>
    <path class="st37" d="M17.6,714.7c-.4-.4-.5-.9-.5-1.5s.2-1.2.5-1.5c.4-.4.8-.5,1.4-.5s1.1.2,1.4.5c.4.4.5.9.5,1.5s-.2,1.1-.5,1.5c-.4.4-.8.5-1.4.5s-1,0-1.4-.5ZM18.3,712.4c-.2.2-.3.4-.3.8s.1.5.3.8c.2.2.4.3.7.3s.5,0,.7-.3.3-.4.3-.8-.1-.5-.3-.8-.4-.3-.7-.3-.5,0-.7.3Z"/>
  </g>
  <line class="st35" x1="4" y1="684.5" x2="10.8" y2="684.5"/>
  <line class="st35" x1="40.7" y1="684.8" x2="32.2" y2="684.8"/>
  <path class="st33" d="M34.3,723.7H9.5c-3.4,0-6.3-3-6.3-6.7V51.2c0-3.7,2.8-6.7,6.3-6.7h24.8c3.4,0,6.3,3,6.3,6.7v665.8c0,3.7-2.8,6.7-6.3,6.7Z"/>
  <g>
    <path class="st37" d="M17.2,685.8v-1.2h3.6v1.2h-3.6Z"/>
    <path class="st37" d="M22.3,680.8c.7-.3,1.6-.4,2.4-.4s1.5.2,1.9.5.6.9.6,1.6,0,.6-.2.9c-.1.3-.2.4-.4.6s-.3.2-.5.4c.4.2.7.4.9.7.2.2.3.6.3,1.1,0,.8-.2,1.5-.6,1.9s-1.1.6-2,.6h-1.2c-.4,0-.8,0-1-.2h-.4v-1.1c.9.2,1.7.2,2.3.2,1,0,1.4-.4,1.4-1.3s-.1-.7-.4-.9c-.2-.2-.6-.3-1-.3h-1.6v-1.1h1.6c.3,0,.6,0,.8-.4s.4-.5.4-.9-.1-.6-.3-.8c-.2-.2-.5-.3-.9-.3-.6,0-1.3,0-2,.2h-.3v-.9c-.1,0,.2,0,.2,0h0Z"/>
  </g>
  <g>
    <path class="st37" d="M11.4,643.3v-1.2h3.6v1.2h-3.6Z"/>
    <path class="st37" d="M21.7,645.9h-5.1v-1.1l2-2c.6-.6,1-1.1,1.2-1.4s.4-.7.4-1.1-.1-.7-.3-.9c-.2-.2-.6-.3-1.1-.3s-1,0-1.6.2h-.3v-1c.8-.2,1.6-.3,2.4-.3,1.7,0,2.5.7,2.5,2.2s-.1,1.1-.4,1.5-.7.9-1.4,1.5l-1.7,1.6h3.6v1.2h-.2Z"/>
    <path class="st37" d="M23.2,645.9v-1.7h1.4v1.7h-1.4Z"/>
    <path class="st37" d="M31.2,639.2c-.8,0-1.5-.2-2.1-.2s-1.1.2-1.4.6c-.3.4-.5.9-.5,1.6h.3c.6-.3,1.1-.4,1.5-.4,1.8,0,2.7.8,2.7,2.5s-.2,1.5-.7,2-1.2.7-2.2.7-1.7-.4-2.2-1.1-.7-1.7-.7-3c0-2.7,1.1-4.1,3.2-4.1s1.2,0,1.9.2h.3v1.1c-.1,0,0,0,0,0h0ZM27.4,642.3h-.2c0,1.7.5,2.6,1.6,2.6s.8,0,1.1-.4.4-.6.4-1.1-.1-.8-.4-1c-.2-.2-.6-.3-1-.3s-.9,0-1.4.3h-.1Z"/>
  </g>
  <line class="st35" x1="4" y1="664" x2="40.9" y2="664"/>
  <line class="st35" x1="4" y1="643.3" x2="10.8" y2="643.3"/>
  <line class="st35" x1="40.9" y1="643.3" x2="32.4" y2="643.3"/>
  <line class="st35" x1="4.1" y1="622.8" x2="39.8" y2="622.8"/>
  <line class="st35" x1="3.8" y1="602.2" x2="10.6" y2="602.2"/>
  <line class="st35" x1="40.9" y1="602.2" x2="32.4" y2="602.2"/>
  <g>
    <path class="st37" d="M11.9,601.8v-1.2h3.6v1.2h-3.6Z"/>
    <path class="st37" d="M22.1,604.4h-5.1v-1.1l2-2c.6-.6,1-1.1,1.2-1.4s.4-.7.4-1.1-.1-.7-.3-.9c-.2-.2-.6-.3-1.1-.3s-1,0-1.6.2h-.3v-1c.8-.2,1.6-.3,2.4-.3,1.7,0,2.5.7,2.5,2.2s-.1,1.1-.4,1.5-.7.9-1.4,1.5l-1.7,1.6h3.6v1.2h-.2Z"/>
    <path class="st37" d="M23.6,604.4v-1.7h1.4v1.7h-1.4Z"/>
    <path class="st37" d="M31.7,604.4h-5.1v-1.1l2-2c.6-.6,1-1.1,1.2-1.4s.4-.7.4-1.1-.1-.7-.3-.9c-.2-.2-.6-.3-1.1-.3s-1,0-1.6.2h-.3v-1c.8-.2,1.6-.3,2.4-.3,1.7,0,2.5.7,2.5,2.2s-.1,1.1-.4,1.5-.7.9-1.4,1.5l-1.7,1.6h3.6v1.2h-.2Z"/>
  </g>
  <line class="st35" x1="3.8" y1="581.1" x2="40.1" y2="581.1"/>
  <line class="st35" x1="4" y1="560.5" x2="10.9" y2="560.5"/>
  <line class="st35" x1="3.9" y1="539.9" x2="40" y2="539.9"/>
  <line class="st35" x1="40.8" y1="560.5" x2="32.3" y2="560.5"/>
  <g>
    <path class="st37" d="M11.3,518.9v-1.2h3.6v1.2s-3.6,0-3.6,0Z"/>
    <path class="st37" d="M20.4,513.6v7.9h-1.3v-6.4l-1.9,1.2-.6-1,2.6-1.7s1.2,0,1.2,0Z"/>
    <path class="st37" d="M23,521.5v-1.7h1.4v1.7h-1.4Z"/>
    <path class="st37" d="M29.2,521.5v-1.4h-3.6v-1l2.1-5.5h1.5l-2.2,5.3h2.2v-2.3h1.3v2.3h.9v1.2h-.9v1.4h-1.3Z"/>
  </g>
  <line class="st35" x1="3.9" y1="519.2" x2="10.7" y2="519.2"/>
  <line class="st35" x1="40.7" y1="519.2" x2="32.2" y2="519.2"/>
  <line class="st35" x1="4" y1="498.2" x2="40" y2="498.2"/>
  <g>
    <path class="st37" d="M17,477.3v-1.2h3.5v1.2h-3.5Z"/>
    <path class="st37" d="M26,472v7.9h-1.3v-6.4l-1.8,1.2-.6-1,2.5-1.7s1.2,0,1.2,0Z"/>
  </g>
  <g>
    <path class="st32" d="M11.7,435.5v-1.2h3.6v1.2s-3.6,0-3.6,0Z"/>
    <path class="st32" d="M17.1,431.1c.5-.6,1.2-1,2.2-1s1.7.3,2.2,1c.5.6.7,1.7.7,3.2s-.2,2.5-.8,3.1-1.2.9-2.2.9-1.7-.3-2.2-.9-.8-1.6-.8-3.1.2-2.5.8-3.2h0ZM20.6,431.9c-.2-.4-.7-.7-1.2-.7s-1,.2-1.2.7c-.3.4-.4,1.2-.4,2.3s.1,1.9.4,2.3.7.6,1.2.6,1-.2,1.2-.6.4-1.2.4-2.3-.1-1.9-.4-2.3Z"/>
    <path class="st32" d="M23.4,438.2v-1.7h1.4v1.7h-1.4Z"/>
    <path class="st32" d="M31.4,431.4c-.8-.1-1.5-.2-2.1-.2s-1.1.2-1.4.6-.5.9-.5,1.6h.3c.6-.3,1.1-.4,1.5-.4,1.8,0,2.7.8,2.7,2.5s-.2,1.5-.7,2-1.2.7-2.2.7-1.7-.4-2.2-1.1-.7-1.7-.7-3c0-2.7,1.1-4.1,3.2-4.1s1.2,0,1.9.2h.3v1.1c-.1,0,0,0,0,0h0ZM27.6,434.6h-.2c0,1.7.5,2.6,1.6,2.6s.8-.1,1.1-.4.4-.6.4-1.1-.1-.8-.4-1c-.2-.2-.6-.3-1-.3s-.9,0-1.4.3h-.1Z"/>
  </g>
  <line class="st35" x1="4" y1="477.1" x2="10.8" y2="477.1"/>
  <line class="st35" x1="40.7" y1="477.1" x2="32.2" y2="477.1"/>
  <line class="st35" x1="4" y1="457.1" x2="40.2" y2="457.1"/>
  <line class="st35" x1="4" y1="435.9" x2="10.8" y2="435.9"/>
  <line class="st35" x1="40.7" y1="436.4" x2="32.2" y2="436.4"/>
  <line class="st35" x1="40.7" y1="415.6" x2="3.7" y2="415.6"/>
  <line class="st35" x1="4" y1="394.5" x2="10.8" y2="394.5"/>
  <line class="st35" x1="40.7" y1="394.5" x2="32.2" y2="394.5"/>
  <g>
    <path class="st32" d="M11.8,394.3v-1.2h3.6v1.2s-3.6,0-3.6,0Z"/>
    <path class="st32" d="M17.3,389.8c.5-.6,1.2-1,2.2-1s1.7.3,2.2,1c.5.6.7,1.7.7,3.2s-.2,2.5-.8,3.1-1.2.9-2.2.9-1.7-.3-2.2-.9-.8-1.6-.8-3.1.2-2.5.8-3.2h0ZM20.8,390.7c-.2-.4-.7-.7-1.2-.7s-1,.2-1.2.7c-.3.4-.4,1.2-.4,2.3s.1,1.9.4,2.3.7.6,1.2.6,1-.2,1.2-.6.4-1.2.4-2.3-.1-1.9-.4-2.3Z"/>
    <path class="st32" d="M23.6,396.9v-1.7h1.4v1.7h-1.4Z"/>
    <path class="st32" d="M31.6,396.9h-5.1v-1.1l2-2c.6-.6,1-1.1,1.2-1.4s.4-.7.4-1.1-.1-.7-.3-.9c-.2-.2-.6-.3-1.1-.3s-1,0-1.6.2h-.3v-1c.8-.2,1.6-.3,2.4-.3,1.7,0,2.5.7,2.5,2.2s-.1,1.1-.4,1.5-.7.9-1.4,1.5l-1.7,1.6h3.6v1.2h-.2Z"/>
  </g>
  <g>
    <path class="st32" d="M14.7,350.2c.5-.6,1.2-1,2.2-1s1.7.3,2.2,1c.5.6.7,1.7.7,3.2s-.2,2.5-.8,3.1-1.2.9-2.2.9-1.7-.3-2.2-.9-.8-1.6-.8-3.1.2-2.5.8-3.2h0ZM18.2,351.1c-.2-.4-.7-.7-1.2-.7s-1,.2-1.2.7c-.3.4-.4,1.2-.4,2.3s.1,1.9.4,2.3c.3.4.7.6,1.2.6s1-.2,1.2-.6.4-1.2.4-2.3-.1-1.9-.4-2.3Z"/>
    <path class="st32" d="M21,357.3v-1.7h1.4v1.7h-1.4Z"/>
    <path class="st32" d="M29.1,357.3h-5.1v-1.1l2-2c.6-.6,1-1.1,1.2-1.4s.4-.7.4-1.1-.1-.7-.3-.9c-.2-.2-.6-.3-1.1-.3s-1,0-1.6.2h-.3v-1c.8-.2,1.6-.3,2.4-.3,1.7,0,2.5.7,2.5,2.2s-.1,1.1-.4,1.5-.7.9-1.4,1.5l-1.7,1.6h3.6v1.2h-.2Z"/>
  </g>
  <g>
    <path class="st32" d="M14.8,307.8c.5-.6,1.2-1,2.2-1s1.7.3,2.2,1c.5.6.7,1.7.7,3.2s-.2,2.5-.8,3.1-1.2.9-2.2.9-1.7-.3-2.2-.9-.8-1.6-.8-3.1.2-2.5.8-3.2h0ZM18.3,308.7c-.2-.4-.7-.7-1.2-.7s-1,.2-1.2.7c-.3.4-.4,1.2-.4,2.3s.1,1.9.4,2.3c.3.4.7.6,1.2.6s1-.2,1.2-.6.4-1.2.4-2.3-.1-1.9-.4-2.3Z"/>
    <path class="st32" d="M21.1,314.9v-1.7h1.4v1.7h-1.4Z"/>
    <path class="st32" d="M29.1,308.2c-.8-.1-1.5-.2-2.1-.2s-1.1.2-1.4.6-.5.9-.5,1.6h.3c.6-.3,1.1-.4,1.5-.4,1.8,0,2.7.8,2.7,2.5s-.2,1.5-.7,2-1.2.7-2.2.7-1.7-.4-2.2-1.1-.7-1.7-.7-3c0-2.7,1.1-4.1,3.2-4.1s1.2,0,1.9.2h.3v1.1c-.1,0,0,0,0,0h0ZM25.4,311.3h-.2c0,1.7.5,2.6,1.6,2.6s.8-.1,1.1-.4.4-.6.4-1.1-.1-.8-.4-1c-.2-.2-.6-.3-1-.3s-.9,0-1.4.3h-.1Z"/>
  </g>
  <line class="st35" x1="4.1" y1="374" x2="10.9" y2="374"/>
  <line class="st35" x1="40.7" y1="374.3" x2="32.2" y2="374.3"/>
  <line class="st35" x1="4.1" y1="353.3" x2="10.9" y2="353.3"/>
  <line class="st35" x1="3.9" y1="332.7" x2="40" y2="332.7"/>
  <line class="st35" x1="40.7" y1="353.3" x2="32.2" y2="353.3"/>
  <path class="st37" d="M19.2,59.5c.7-.3,1.6-.4,2.4-.4s1.5.2,1.9.5.6.9.6,1.6,0,.6-.2.9c-.1.3-.2.4-.4.6s-.3.2-.5.4c.4.2.7.4.9.7.2.2.3.6.3,1.1,0,.8-.2,1.5-.6,1.9s-1.1.6-2,.6h-1.2c-.4,0-.8,0-1-.2h-.4v-1.1c.9.2,1.7.2,2.3.2,1,0,1.4-.4,1.4-1.3s-.1-.7-.4-.9c-.2-.2-.6-.3-1-.3h-1.6v-1.1h1.6c.3,0,.6,0,.8-.4.3-.2.4-.5.4-.9s-.1-.6-.3-.8c-.2-.2-.5-.3-.9-.3-.6,0-1.3,0-2,.2h-.3v-.9c-.1,0,.2,0,.2,0h0Z"/>
  <line class="st35" x1="4" y1="104.8" x2="10.8" y2="104.8"/>
  <line class="st35" x1="40.7" y1="104.8" x2="32.2" y2="104.8"/>
  <line class="st35" x1="3.7" y1="84" x2="39.9" y2="84"/>
  <line class="st35" x1="4.3" y1="63.8" x2="11.1" y2="63.8"/>
  <line class="st35" x1="41" y1="63.8" x2="32.5" y2="63.8"/>
  <g>
    <path class="st37" d="M19.7,150.6h-5.1v-1.1l2-2c.6-.6,1-1.1,1.2-1.4s.4-.7.4-1.1-.1-.7-.3-.9c-.2-.2-.6-.3-1.1-.3s-1,0-1.6.2h-.3v-1c.8-.2,1.6-.3,2.4-.3,1.7,0,2.5.7,2.5,2.2s-.1,1.1-.4,1.5-.7.9-1.4,1.5l-1.7,1.6h3.6v1.2h-.2Z"/>
    <path class="st37" d="M21.2,150.6v-1.7h1.4v1.7h-1.4Z"/>
    <path class="st37" d="M29.2,150.6h-5.1v-1.1l2-2c.6-.6,1-1.1,1.2-1.4s.4-.7.4-1.1-.1-.7-.3-.9c-.2-.2-.6-.3-1.1-.3s-1,0-1.6.2h-.3v-1c.8-.2,1.6-.3,2.4-.3,1.7,0,2.5.7,2.5,2.2s-.1,1.1-.4,1.5-.7.9-1.4,1.5l-1.7,1.6h3.6v1.2h-.2Z"/>
  </g>
  <g>
    <path class="st37" d="M19.7,109.4h-5.1v-1.1l2-2c.6-.6,1-1.1,1.2-1.4s.4-.7.4-1.1-.1-.7-.3-.9c-.2-.2-.6-.3-1.1-.3s-1,0-1.6.2h-.3v-1c.8-.2,1.6-.3,2.4-.3,1.7,0,2.5.7,2.5,2.2s-.1,1.1-.4,1.5-.7.9-1.4,1.5l-1.7,1.6h3.6v1.2h-.2Z"/>
    <path class="st37" d="M21.2,109.4v-1.7h1.4v1.7h-1.4Z"/>
    <path class="st37" d="M29.2,102.7c-.8,0-1.5-.2-2.1-.2s-1.1.2-1.4.6-.5.9-.5,1.6h.3c.6-.3,1.1-.4,1.5-.4,1.8,0,2.7.8,2.7,2.5s-.2,1.5-.7,2-1.2.7-2.2.7-1.7-.4-2.2-1.1-.7-1.7-.7-3c0-2.7,1.1-4.1,3.2-4.1s1.2,0,1.9.2h.3v1.1c-.1,0,0,0,0,0h0ZM25.4,105.8h-.2c0,1.7.5,2.6,1.6,2.6s.8,0,1.1-.4.4-.6.4-1.1-.1-.8-.4-1c-.2-.2-.6-.3-1-.3s-.9,0-1.4.3h-.1Z"/>
  </g>
  <line class="st35" x1="4" y1="167.1" x2="40.6" y2="167.1"/>
  <line class="st35" x1="4" y1="146.5" x2="10.8" y2="146.5"/>
  <line class="st35" x1="4" y1="125.5" x2="40" y2="125.5"/>
  <line class="st35" x1="40.7" y1="146.5" x2="32.2" y2="146.5"/>
  <g>
    <path class="st37" d="M18.7,184v7.9h-1.3v-6.4l-1.9,1.2-.6-1,2.6-1.7s1.2,0,1.2,0Z"/>
    <path class="st37" d="M21.3,192v-1.7h1.4v1.7h-1.4Z"/>
    <path class="st37" d="M24.6,184.5c.5-.4,1.2-.5,2.1-.5s1.6.2,2.1.5c.5.4.8.9.8,1.6s0,.8-.2,1.1c-.1.2-.4.5-.8.8.4.3.7.5.9.8.2.3.3.7.3,1.1,0,.8-.3,1.4-.8,1.7-.6.4-1.3.5-2.2.5-2,0-3-.7-3-2.1s0-.9.3-1.2c.2-.3.5-.6.9-.9-.4-.2-.6-.5-.8-.8-.2-.3-.2-.6-.2-1.1s.3-1.2.8-1.6h-.2,0ZM25.2,189.7c0,.8.5,1.2,1.6,1.2s1.6-.4,1.6-1.3-.3-.9-1-1.1h-1.2c-.6.2-1,.6-1,1.2h0ZM28.2,186.2c0-.7-.5-1.1-1.4-1.1s-1.4.4-1.4,1.1.3.9.8,1.1h1.2c.6-.3.9-.7.9-1.1h-.1Z"/>
  </g>
  <line class="st35" x1="4" y1="229.5" x2="10.8" y2="229.5"/>
  <line class="st35" x1="40.5" y1="229.5" x2="32" y2="229.5"/>
  <line class="st35" x1="4" y1="208.3" x2="40.5" y2="208.3"/>
  <line class="st35" x1="4" y1="187.6" x2="10.8" y2="187.6"/>
  <line class="st35" x1="40.7" y1="187.6" x2="32.2" y2="187.6"/>
  <path class="st32" d="M22.8,266.4v7.9h-1.3v-6.4l-1.9,1.2-.6-1,2.6-1.7s1.2,0,1.2,0Z"/>
  <g>
    <path class="st32" d="M18.3,225.9v7.9h-1.3v-6.4l-1.9,1.2-.6-1,2.6-1.7s1.2,0,1.2,0Z"/>
    <path class="st32" d="M20.9,233.8v-1.7h1.4v1.7h-1.4Z"/>
    <path class="st32" d="M27,233.8v-1.4h-3.6v-1l2.1-5.5h1.5l-2.2,5.3h2.2v-2.3h1.3v2.3h.9v1.2h-.9v1.4h-1.3Z"/>
  </g>
  <line class="st35" x1="4" y1="291" x2="40" y2="291"/>
  <line class="st35" x1="4" y1="270.8" x2="10.8" y2="270.8"/>
  <line class="st35" x1="4" y1="250.2" x2="39.9" y2="250.2"/>
  <line class="st35" x1="40.7" y1="270.8" x2="32.2" y2="270.8"/>
  <line class="st35" x1="4" y1="311.7" x2="10.8" y2="311.7"/>
  <line class="st35" x1="40.7" y1="311.7" x2="32.2" y2="311.7"/>
  <path class="st37" d="M26.6,556.4c.5-.4,1.2-.5,2.1-.5s1.6.2,2.1.5c.5.4.8.9.8,1.6s0,.8-.2,1.1c-.1.2-.4.5-.8.8.4.3.7.5.9.8.2.3.3.7.3,1.1,0,.8-.3,1.4-.8,1.7-.6.4-1.3.5-2.2.5-2,0-3-.7-3-2.1s0-.9.3-1.2c.2-.3.5-.6.9-.9-.4-.2-.6-.5-.8-.8-.2-.3-.2-.6-.2-1.1s.3-1.2.8-1.6h-.2,0ZM27.2,561.6c0,.8.5,1.2,1.6,1.2s1.6-.4,1.6-1.3-.3-.9-1-1.1h-1.2c-.6.2-1,.6-1,1.2h0ZM30.2,558.1c0-.7-.5-1.1-1.4-1.1s-1.4.4-1.4,1.1.3.9.8,1.1h1.2c.6-.3.9-.7.9-1.1h-.1Z"/>
  <g>
    <path class="st37" d="M11.5,561.2v-1.2h3.6v1.2h-3.6Z"/>
    <path class="st37" d="M20.6,555.9v7.9h-1.3v-6.4l-1.9,1.2-.6-1,2.6-1.7s1.2,0,1.2,0Z"/>
    <path class="st37" d="M23.2,563.8v-1.7h1.4v1.7h-1.4Z"/>
  </g>
  <path class="st32" d="M20,370c.5-.6,1.2-1,2.2-1s1.7.3,2.2,1c.5.6.7,1.7.7,3.2s-.2,2.5-.8,3.1-1.2.9-2.2.9-1.7-.3-2.2-.9-.8-1.6-.8-3.1.2-2.5.8-3.2h0ZM23.5,370.9c-.2-.4-.7-.7-1.2-.7s-1,.2-1.2.7c-.3.4-.4,1.2-.4,2.3s.1,1.9.4,2.3.7.6,1.2.6,1-.2,1.2-.6.4-1.2.4-2.3-.1-1.9-.4-2.3Z"/>
</svg>