<?xml version="1.0" encoding="UTF-8"?>
<svg id="Livello_1" xmlns="http://www.w3.org/2000/svg" version="1.1" viewBox="0 0 40.8 725.2" width="40.8px" height="725.2px">
  <!-- Generator: Adobe Illustrator 29.8.3, SVG Export Plug-In . SVG Version: 2.1.1 Build 3)  -->
  <defs>
    <style>
      .st0 {
        fill: #ee7326;
      }

      .st1 {
        fill: #71a2d6;
      }

      .st2 {
        fill: #3c3430;
      }

      .st3 {
        fill: #1b4674;
      }

      .st4 {
        fill: #5b0c03;
      }

      .st5 {
        stroke-width: 2px;
      }

      .st5, .st6, .st7 {
        fill: none;
      }

      .st5, .st7 {
        stroke: #3c3430;
        stroke-miterlimit: 9.8;
      }

      .st8 {
        fill: #39322e;
      }

      .st9 {
        fill: #f2a918;
      }

      .st10 {
        fill: #fff;
      }

      .st11 {
        fill: #0f2743;
      }

      .st12 {
        fill: #ea1fe3;
      }

      .st13 {
        fill: #4182c8;
      }

      .st14 {
        fill: #b4eafa;
      }

      .st15 {
        fill: #dbf4fb;
      }

      .st16 {
        fill: #8ce0f8;
      }

      .st17 {
        fill: #a810a3;
      }

      .st18 {
        fill: #2bc7f3;
      }

      .st19 {
        fill: #b1aab1;
      }

      .st20 {
        fill: #3b3330;
      }

      .st21 {
        fill: #8b1204;
      }

      .st22 {
        fill: #f16aed;
      }

      .st23 {
        fill: #4eb5e5;
      }

      .st24 {
        fill: #fff533;
      }

      .st25 {
        fill: #e22208;
      }
    </style>
  </defs>
  <g>
    <path class="st19" d="M39.25,79.02H4.25v-30.7c0-2.8,2.3-5.1,5.1-5.1h24.5c3,0,5.4,2.4,5.4,5.4v30.4h0Z"/>
    <rect class="st22" x="4.25" y="79.02" width="35" height="35.8" transform="translate(43.5 193.84) rotate(180)"/>
    <g>
      <rect class="st12" x="4.25" y="114.92" width="35" height="35.8" transform="translate(43.5 265.64) rotate(180)"/>
      <rect class="st17" x="4.25" y="150.72" width="35" height="35.8" transform="translate(43.5 337.24) rotate(180)"/>
    </g>
    <g>
      <rect class="st4" x="4.25" y="186.52" width="35" height="35.82" transform="translate(43.5 408.86) rotate(180)"/>
      <rect class="st21" x="4.25" y="222.34" width="35" height="35.82" transform="translate(43.5 480.51) rotate(180)"/>
      <g>
        <rect class="st25" x="4.25" y="258.17" width="35" height="35.88" transform="translate(43.5 552.21) rotate(180)"/>
        <rect class="st0" x="4.25" y="294.04" width="35" height="35.88" transform="translate(43.5 623.96) rotate(180)"/>
      </g>
    </g>
    <g>
      <rect class="st9" x="4.25" y="329.92" width="35" height="35.9" transform="translate(43.5 695.74) rotate(180)"/>
      <rect class="st24" x="4.25" y="365.82" width="35" height="35.8" transform="translate(43.5 767.44) rotate(180)"/>
      <g>
        <rect class="st11" x="4.25" y="401.72" width="35" height="35.8" transform="translate(43.5 839.24) rotate(180)"/>
        <rect class="st3" x="4.25" y="437.52" width="35" height="35.8" transform="translate(43.5 910.84) rotate(180)"/>
      </g>
      <g>
        <rect class="st13" x="4.25" y="473.32" width="35" height="35.8" transform="translate(43.5 982.44) rotate(180)"/>
        <rect class="st1" x="4.25" y="509.12" width="35" height="35.9" transform="translate(43.5 1054.14) rotate(180)"/>
        <g>
          <rect class="st23" x="4.25" y="545.02" width="35" height="35.8" transform="translate(43.5 1125.84) rotate(180)"/>
          <rect class="st18" x="4.25" y="580.92" width="35" height="35.8" transform="translate(43.5 1197.64) rotate(180)"/>
        </g>
      </g>
    </g>
    <g>
      <rect class="st16" x="4.25" y="616.72" width="35" height="35.8" transform="translate(43.5 1269.24) rotate(180)"/>
      <rect class="st14" x="4.25" y="652.62" width="35" height="35.8" transform="translate(43.5 1341.04) rotate(180)"/>
      <path class="st15" d="M33.25,724.22H10.95c-3.7,0-6.7-3-6.7-6.7v-29.2h35v29.8c0,3.3-2.7,6.1-6.1,6.1,0,0,.1,0,.1,0Z"/>
    </g>
  </g>
  <circle class="st8" cx="21.9" cy="21.8" r="19.8"/>
  <rect class="st6" x="8.6" y="680" width="15.4" height="11.8"/>
  <path class="st5" d="M34.1,723.8H9.6c-3.4,0-6.2-2.8-6.2-6.2V51.1c0-3.4,2.8-6.2,6.2-6.2h24.5c3.4,0,6.2,2.8,6.2,6.2v666.5c0,3.4-2.8,6.2-6.2,6.2Z"/>
  <path class="st10" d="M36.9,22.8h0c0-7.6-6.2-13.8-13.9-14.2v-1.3c0-.3-.3-.7-.8-.7s-.8.3-.8.7v1.3c-7.8.3-14,6.5-14,14.1s.3.7.8.7.3-.1.6-.2c2.5-2.3,5.8-2.3,8.2,0,.1.1.3.2.6.2s.3-.1.5-.2c1-.9,2.2-1.5,3.4-1.6v9.8c0,1.9,1.7,3.7,3.8,3.7s3.8-1.6,3.8-3.7-.3-.7-.8-.7-.8.3-.8.7c0,1.1-1,2.2-2.3,2.2s-2.3-1-2.3-2.2v-9.8c1.1.1,2.4.7,3.4,1.6.2.2.8.2,1,0,2.5-2.3,5.8-2.3,8.3,0,.2.2.7.2.9.1.3-.2.4-.3.4-.5ZM26.1,21.3c-1.3-.8-2.6-1.3-4-1.3h-.2c-1.4,0-2.7.5-4,1.3-.3-4.9.9-8.8,2.5-10.5,1-1.1,2.1-1.1,3.2,0,1.6,1.7,3,5.5,2.5,10.5ZM9,21.1c.7-5.4,4.8-9.6,10-10.8-1.5,1.9-2.9,5.7-2.5,10.8-2.2-1.4-5.1-1.4-7.5,0ZM27.7,21.1c.3-5.1-1-8.9-2.5-10.8,5.4,1.3,9.4,5.5,10,10.8-2.3-1.4-5.1-1.4-7.5,0Z"/>
  <line class="st7" x1="4.4" y1="688.9" x2="11.1" y2="688.9"/>
  <g>
    <path class="st20" d="M14.7,719.7h-1.6v-6h1.6v.3c.6-.3,1-.5,1.4-.5.6,0,1.1.2,1.5.6.7-.4,1.4-.6,2-.6s1.3.2,1.7.7c.3.5.5,1.2.5,2.2v3.3h-1.6v-3.2c0-.5-.1-.9-.2-1.1-.1-.2-.3-.4-.7-.4s-.6,0-.9.2h-.2v4.6h-1.6v-3.1c0-.6-.1-1-.2-1.3-.1-.2-.3-.4-.7-.4s-.6,0-.9.2h-.1s0,4.5,0,4.5Z"/>
    <path class="st20" d="M24.7,719.7h-1.6v-6h1.6v.3c.6-.3,1-.5,1.4-.5.6,0,1.1.2,1.5.6.7-.4,1.4-.6,2-.6s1.3.2,1.6.7c.3.5.5,1.2.5,2.2v3.3h-1.6v-3.2c0-.5-.1-.9-.2-1.1-.1-.2-.3-.4-.7-.4s-.6,0-.9.2h-.2v4.6h-1.6v-3.1c0-.6-.1-1-.2-1.3-.1-.2-.3-.4-.7-.4s-.6,0-.9.2h-.1v4.5h.1Z"/>
  </g>
  <path class="st5" d="M34,723.7H9.5c-3.4,0-6.2-3-6.2-6.7V51.2c0-3.7,2.8-6.7,6.2-6.7h24.5c3.4,0,6.2,3,6.2,6.7v665.8c0,3.7-2.8,6.7-6.2,6.7Z"/>
  <line class="st7" x1="33" y1="688.9" x2="39.4" y2="688.9"/>
  <line class="st7" x1="4.3" y1="653" x2="12" y2="653"/>
  <line class="st7" x1="31.6" y1="653" x2="39.3" y2="653"/>
  <g>
    <path class="st10" d="M17.75,75.64v1h-3.1l-.2,1.7c.5-.2.9-.3,1.3-.3,1.4,0,2.1.7,2.1,2s-.2,1.3-.6,1.7-.9.6-1.7.6h-1c-.4,0-.7,0-.9-.2h-.3v-.9c.9,0,1.6.2,2.1.2s.7,0,.9-.3c.2-.2.3-.5.3-.9s0-.7-.3-.9c-.2-.2-.4-.3-.7-.3-.5,0-1,0-1.3.2h-.9l.2-3.5h4.1v-.1Z"/>
    <path class="st10" d="M19.45,76.34c.4-.5,1-.8,1.9-.8s1.5.3,1.9.8.6,1.4.6,2.6-.2,2.1-.6,2.6-1,.8-1.9.8-1.5-.3-1.9-.8-.6-1.4-.6-2.6.2-2.1.6-2.7h0v.1ZM22.35,77.04c-.2-.4-.6-.5-1-.5s-.8.2-1,.5-.3,1-.3,1.9.1,1.5.3,1.9c.2.3.6.5,1,.5s.8-.2,1-.5c.2-.4.3-1,.3-1.9s-.1-1.6-.3-1.9Z"/>
    <path class="st10" d="M25.05,76.34c.4-.5,1-.8,1.9-.8s1.5.3,1.9.8.6,1.4.6,2.6-.2,2.1-.6,2.6-1,.8-1.9.8-1.5-.3-1.9-.8-.6-1.4-.6-2.6.2-2.1.6-2.7h0v.1ZM27.95,77.04c-.2-.4-.5-.5-1-.5s-.8.2-1,.5-.3,1-.3,1.9.1,1.5.3,1.9c.2.3.6.5,1,.5s.8-.2,1-.5c.2-.4.3-1,.3-1.9s-.1-1.6-.3-1.9Z"/>
  </g>
  <line class="st7" x1="4.4" y1="616.9" x2="12" y2="616.9"/>
  <line class="st7" x1="31.7" y1="616.9" x2="39.4" y2="616.9"/>
  <g>
    <path class="st10" d="M16.35,118.12v-1.2h-3v-.9l1.7-4.6h1.2l-1.8,4.4h1.8v-1.9h1.1v1.9h.7v1h-.7v1.2h-1.1.1v.1Z"/>
    <path class="st10" d="M19.45,112.22c.4-.5,1-.8,1.9-.8s1.5.3,1.9.8.6,1.4.6,2.6-.2,2.1-.6,2.6-1,.8-1.9.8-1.5-.3-1.9-.8-.6-1.4-.6-2.6.2-2.1.6-2.7h0v.1ZM22.35,112.92c-.2-.4-.6-.5-1-.5s-.8.2-1,.5-.3,1-.3,1.9.1,1.5.3,1.9c.2.3.6.5,1,.5s.8-.2,1-.5c.2-.4.3-1,.3-1.9s-.1-1.6-.3-1.9Z"/>
    <path class="st10" d="M25.05,112.22c.4-.5,1-.8,1.9-.8s1.5.3,1.9.8.6,1.4.6,2.6-.2,2.1-.6,2.6-1,.8-1.9.8-1.5-.3-1.9-.8-.6-1.4-.6-2.6.2-2.1.6-2.7h0v.1ZM27.95,112.92c-.2-.4-.5-.5-1-.5s-.8.2-1,.5-.3,1-.3,1.9.1,1.5.3,1.9c.2.3.6.5,1,.5s.8-.2,1-.5c.2-.4.3-1,.3-1.9s-.1-1.6-.3-1.9Z"/>
  </g>
  <line class="st7" x1="4.3" y1="581" x2="12" y2="581"/>
  <line class="st7" x1="31.6" y1="581" x2="39.3" y2="581"/>
  <g>
    <path class="st10" d="M13.6,147.6c.6-.2,1.3-.3,2-.3s1.3,0,1.6.4.5.7.5,1.3,0,.5-.2.7c-.1.2-.2.4-.3.5-.1,0-.2.2-.4.3.4.2.6.3.8.5.2.2.2.5.2,1s-.2,1.2-.5,1.6c-.3.3-.9.5-1.7.5h-1c-.4,0-.6,0-.9-.2h-.3v-.9c.7,0,1.4.2,1.9.2.8,0,1.2-.4,1.2-1.1s-.1-.6-.3-.7c-.2-.2-.5-.3-.8-.3h-1.3v-.9h1.3c.2,0,.5,0,.7-.3.2-.2.3-.5.3-.7s0-.5-.3-.6c-.2,0-.4-.2-.8-.2h-1.9v-.8h.2Z"/>
    <path class="st10" d="M19.4,148.1c.4-.5,1-.8,1.9-.8s1.5.3,1.9.8.6,1.4.6,2.6-.2,2.1-.6,2.6-1,.8-1.9.8-1.5-.3-1.9-.8-.6-1.4-.6-2.6.2-2.1.6-2.7h0v.1ZM22.3,148.8c-.2-.4-.6-.5-1-.5s-.8.2-1,.5-.3,1-.3,1.9.1,1.5.3,1.9c.2.3.6.5,1,.5s.8-.2,1-.5c.2-.4.3-1,.3-1.9s-.1-1.6-.3-1.9Z"/>
    <path class="st10" d="M25,148.1c.4-.5,1-.8,1.9-.8s1.5.3,1.9.8.6,1.4.6,2.6-.2,2.1-.6,2.6-1,.8-1.9.8-1.5-.3-1.9-.8-.6-1.4-.6-2.6.2-2.1.6-2.7h0v.1ZM27.9,148.8c-.2-.4-.5-.5-1-.5s-.8.2-1,.5-.3,1-.3,1.9.1,1.5.3,1.9c.2.3.6.5,1,.5s.8-.2,1-.5c.2-.4.3-1,.3-1.9s-.1-1.6-.3-1.9Z"/>
  </g>
  <line class="st7" x1="4.4" y1="545.5" x2="12.1" y2="545.5"/>
  <line class="st7" x1="31.7" y1="545.5" x2="39.4" y2="545.5"/>
  <g>
    <path class="st10" d="M18.05,189.85h-4.2v-1l1.6-1.7c.5-.5.8-.9,1-1.2s.3-.6.3-.9,0-.6-.3-.7-.5-.2-1-.2h-1.6v-.8c.6-.2,1.3-.3,2-.3,1.4,0,2.1.6,2.1,1.8s-.1.9-.3,1.2-.6.8-1.1,1.3l-1.4,1.4h3v1h-.1v.1Z"/>
    <path class="st10" d="M23.55,183.25v1h-3.1l-.2,1.7c.5-.2.9-.3,1.3-.3,1.4,0,2.1.7,2.1,2s-.2,1.3-.6,1.7-.9.6-1.7.6h-1c-.4,0-.7,0-.9-.2h-.3v-.9c.9,0,1.6.2,2.1.2s.7,0,.9-.3c.2-.2.3-.5.3-.9s0-.7-.3-.9c-.2-.2-.4-.3-.7-.3-.5,0-1,0-1.3.2h-.9l.2-3.5h4.1v-.1Z"/>
    <path class="st10" d="M25.25,183.95c.4-.5,1-.8,1.9-.8s1.5.3,1.9.8.6,1.4.6,2.6-.2,2.1-.6,2.6-1,.8-1.9.8-1.5-.3-1.9-.8-.6-1.4-.6-2.6.2-2.1.6-2.7h0v.1ZM28.15,184.65c-.2-.4-.5-.5-1-.5s-.8.2-1,.5-.3,1-.3,1.9.1,1.5.3,1.9c.2.3.6.5,1,.5s.8-.2,1-.5c.2-.4.3-1,.3-1.9s-.1-1.6-.3-1.9Z"/>
  </g>
  <line class="st7" x1="4.3" y1="509.6" x2="12" y2="509.6"/>
  <line class="st7" x1="31.7" y1="509.6" x2="39.4" y2="509.6"/>
  <g>
    <path class="st10" d="M18.2,225.2h-4.2v-1l1.6-1.7c.5-.5.8-.9,1-1.2.2-.3.3-.6.3-.9s0-.6-.3-.7-.5-.2-1-.2-.9,0-1.4.1h-.2v-.8c.6-.2,1.3-.3,2-.3,1.4,0,2.1.6,2.1,1.8s-.1.9-.3,1.2-.6.8-1.1,1.3l-1.4,1.4h3v1h-.1Z"/>
    <path class="st10" d="M19.8,219.3c.4-.5,1-.8,1.9-.8s1.5.3,1.9.8.6,1.4.6,2.6-.2,2.1-.6,2.6-1,.8-1.9.8-1.5-.3-1.9-.8-.6-1.4-.6-2.6.2-2.1.6-2.7h0v.1ZM22.7,220c-.2-.4-.6-.5-1-.5s-.8.2-1,.5-.3,1-.3,1.9.1,1.5.3,1.9c.2.3.6.5,1,.5s.8-.2,1-.5c.2-.4.3-1,.3-1.9s-.1-1.6-.3-1.9h0Z"/>
    <path class="st10" d="M25.4,219.3c.4-.5,1-.8,1.9-.8s1.5.3,1.9.8.6,1.4.6,2.6-.2,2.1-.6,2.6-1,.8-1.9.8-1.5-.3-1.9-.8-.6-1.4-.6-2.6.2-2.1.6-2.7h0v.1ZM28.3,220c-.2-.4-.5-.5-1-.5s-.8.2-1,.5-.3,1-.3,1.9.1,1.5.3,1.9c.2.3.6.5,1,.5s.8-.2,1-.5c.2-.4.3-1,.3-1.9s-.1-1.6-.3-1.9h0Z"/>
  </g>
  <line class="st7" x1="4.4" y1="473.55" x2="12.1" y2="473.55"/>
  <line class="st7" x1="31.7" y1="473.8" x2="39.4" y2="473.8"/>
  <g>
    <path class="st10" d="M17.15,254.82v6.6h-1.1v-5.3l-1.5,1-.5-.8,2.1-1.4h1v-.1Z"/>
    <path class="st10" d="M19.75,255.22c.4-.3,1-.5,1.7-.5s1.3.2,1.8.5c.4.3.7.7.7,1.3s0,.7-.2.9c-.1.2-.4.4-.7.6.3.2.6.4.7.7.2.2.2.5.2,1s-.2,1.2-.7,1.5-1.1.5-1.8.5c-1.7,0-2.5-.6-2.5-1.8s0-.8.2-1,.4-.5.7-.7c-.3-.2-.5-.4-.7-.6-.1-.2-.2-.5-.2-.9,0-.6.2-1,.6-1.3,0,0,.2-.2.2-.2ZM20.15,259.52c0,.7.4,1,1.3,1s1.3-.4,1.3-1.1-.3-.8-.8-.9h-1c-.5.2-.8.5-.8,1ZM22.65,256.72c0-.6-.4-.9-1.2-.9s-1.2.3-1.2.9.2.7.7,1h1c.5-.2.7-.5.7-1Z"/>
    <path class="st10" d="M25.25,255.52c.4-.5,1-.8,1.9-.8s1.5.3,1.9.8.6,1.4.6,2.6-.2,2.1-.6,2.6-1,.8-1.9.8-1.5-.3-1.9-.8-.6-1.4-.6-2.6.2-2.1.6-2.7h0v.1ZM28.15,256.32c-.2-.4-.5-.5-1-.5s-.8.2-1,.5-.3,1-.3,1.9.1,1.5.3,1.9c.2.3.6.5,1,.5s.8-.2,1-.5c.2-.4.3-1,.3-1.9s-.1-1.6-.3-1.9Z"/>
  </g>
  <line class="st7" x1="4.3" y1="437.9" x2="12" y2="437.9"/>
  <line class="st7" x1="31.7" y1="437.9" x2="39.4" y2="437.9"/>
  <g>
    <path class="st10" d="M17,290.72v6.6h-1.1v-5.3l-1.5,1-.5-.8,2.1-1.4h1v-.1Z"/>
    <path class="st10" d="M23.5,291.72c-.6,0-1.2-.1-1.8-.1s-.9.2-1.2.5c-.3.3-.4.8-.4,1.4h.2c.5-.2.9-.3,1.2-.3,1.5,0,2.2.7,2.2,2.1s-.2,1.3-.6,1.6c-.4.4-1,.6-1.8.6s-1.4-.3-1.8-.9-.6-1.4-.6-2.5c0-2.3.9-3.4,2.7-3.4s1,0,1.6.2h.3v.9h0v-.1ZM20.3,294.32h-.2c0,1.4.5,2.1,1.3,2.1s.7-.1.9-.3c.2-.2.3-.5.3-.9s-.1-.7-.3-.9c-.2-.2-.5-.3-.9-.3s-.8,0-1.2.2h.1v.1Z"/>
    <path class="st10" d="M25.1,291.42c.4-.5,1-.8,1.9-.8s1.5.3,1.9.8.6,1.4.6,2.6-.2,2.1-.6,2.6-1,.8-1.9.8-1.5-.3-1.9-.8-.6-1.4-.6-2.6.2-2.1.6-2.7h0v.1ZM28,292.12c-.2-.4-.5-.5-1-.5s-.8.2-1,.5-.3,1-.3,1.9.1,1.5.3,1.9c.2.3.6.5,1,.5s.8-.2,1-.5c.2-.4.3-1,.3-1.9s-.1-1.6-.3-1.9Z"/>
  </g>
  <line class="st7" x1="4.3" y1="401.6" x2="12" y2="401.6"/>
  <line class="st7" x1="31.6" y1="401.6" x2="39.3" y2="401.6"/>
  <g>
    <path class="st2" d="M16.9,327.48v6.6h-1.1v-5.3l-1.5,1-.5-.8,2.1-1.4h1v-.1Z"/>
    <path class="st2" d="M21.8,334.08v-1.2h-3v-.9l1.7-4.6h1.2l-1.8,4.4h1.8v-1.9h1.1v1.9h.7v1h-.7v1.2h-1.1l.1.1Z"/>
    <path class="st2" d="M24.9,328.18c.4-.5,1-.8,1.9-.8s1.5.3,1.9.8.6,1.4.6,2.6-.2,2.1-.6,2.6-1,.8-1.9.8-1.5-.3-1.9-.8-.6-1.4-.6-2.6.2-2.1.6-2.7h0v.1ZM27.8,328.88c-.2-.4-.5-.5-1-.5s-.8.2-1,.5-.3,1-.3,1.9.1,1.5.3,1.9c.2.3.6.5,1,.5s.8-.2,1-.5c.2-.4.3-1,.3-1.9s-.1-1.6-.3-1.9Z"/>
  </g>
  <line class="st7" x1="4.2" y1="365.7" x2="11.9" y2="365.7"/>
  <line class="st7" x1="31.5" y1="365.7" x2="39.2" y2="365.7"/>
  <g>
    <path class="st2" d="M17.2,361.7v6.6h-1.1v-5.3l-1.5,1-.5-.8,2.1-1.4h1v-.1Z"/>
    <path class="st2" d="M23.7,368.3h-4.2v-1l1.6-1.7c.5-.5.8-.9,1-1.2.2-.3.3-.6.3-.9s0-.6-.3-.7-.5-.2-1-.2-.9,0-1.4.1h-.2v-.8c.6-.2,1.3-.3,2-.3,1.4,0,2.1.6,2.1,1.8s-.1.9-.3,1.2-.6.8-1.1,1.3l-1.4,1.4h3v1h-.1Z"/>
    <path class="st2" d="M25.3,362.4c.4-.5,1-.8,1.9-.8s1.5.3,1.9.8.6,1.4.6,2.6-.2,2.1-.6,2.6-1,.8-1.9.8-1.5-.3-1.9-.8-.6-1.4-.6-2.6.2-2.1.6-2.7h0v.1ZM28.2,363.1c-.2-.4-.5-.5-1-.5s-.8.2-1,.5-.3,1-.3,1.9.1,1.5.3,1.9c.2.3.6.5,1,.5s.8-.2,1-.5c.2-.4.3-1,.3-1.9s-.1-1.6-.3-1.9Z"/>
  </g>
  <line class="st7" x1="4.3" y1="330.2" x2="11.9" y2="330.2"/>
  <line class="st7" x1="31.6" y1="330.2" x2="39.3" y2="330.2"/>
  <g>
    <path class="st10" d="M17.6,397.2v6.6h-1.1v-5.3l-1.5,1-.5-.8,2.1-1.4h1v-.1Z"/>
    <path class="st10" d="M20,397.9c.4-.5,1-.8,1.9-.8s1.5.3,1.9.8.6,1.4.6,2.6-.2,2.1-.6,2.6-1,.8-1.9.8-1.5-.3-1.9-.8-.6-1.4-.6-2.6.2-2.1.6-2.7h0v.1ZM22.9,398.6c-.2-.4-.6-.5-1-.5s-.8.2-1,.5-.3,1-.3,1.9.1,1.5.3,1.9c.2.3.6.5,1,.5s.8-.2,1-.5c.2-.4.3-1,.3-1.9s-.1-1.6-.3-1.9Z"/>
    <path class="st10" d="M25.6,397.9c.4-.5,1-.8,1.9-.8s1.5.3,1.9.8.6,1.4.6,2.6-.2,2.1-.6,2.6-1,.8-1.9.8-1.5-.3-1.9-.8-.6-1.4-.6-2.6.2-2.1.6-2.7h0v.1ZM28.5,398.6c-.2-.4-.5-.5-1-.5s-.8.2-1,.5-.3,1-.3,1.9.1,1.5.3,1.9c.2.3.6.5,1,.5s.8-.2,1-.5c.2-.4.3-1,.3-1.9s-.1-1.6-.3-1.9Z"/>
  </g>
  <line class="st7" x1="4.2" y1="294.3" x2="11.9" y2="294.3"/>
  <line class="st7" x1="31.5" y1="294.3" x2="39.2" y2="294.3"/>
  <g>
    <path class="st10" d="M17.35,434.52c.4-.3,1-.5,1.7-.5s1.3.2,1.8.5c.4.3.7.7.7,1.3s0,.7-.2.9-.4.4-.7.6c.3.2.6.4.7.7.2.2.2.5.2,1s-.2,1.2-.7,1.5-1.1.5-1.8.5c-1.7,0-2.5-.6-2.5-1.8s0-.8.2-1,.4-.5.7-.7c-.3-.2-.5-.4-.7-.6-.1-.2-.2-.5-.2-.9,0-.6.2-1,.6-1.3,0,0,.2-.2.2-.2ZM17.75,438.82c0,.7.4,1,1.3,1s1.3-.4,1.3-1.1-.3-.8-.8-.9h-1c-.5.2-.8.5-.8,1ZM20.25,435.92c0-.6-.4-.9-1.2-.9s-1.2.3-1.2.9.2.7.7,1h1c.5-.2.7-.5.7-1Z"/>
    <path class="st10" d="M22.85,434.82c.4-.5,1-.8,1.9-.8s1.5.3,1.9.8.6,1.4.6,2.6-.2,2.1-.6,2.6-1,.8-1.9.8-1.5-.3-1.9-.8-.6-1.4-.6-2.6.2-2.1.6-2.7h0v.1ZM25.75,435.52c-.2-.4-.6-.5-1-.5s-.8.2-1,.5-.3,1-.3,1.9.1,1.5.3,1.9c.2.3.6.5,1,.5s.8-.2,1-.5c.2-.4.3-1,.3-1.9s-.1-1.6-.3-1.9Z"/>
  </g>
  <line class="st7" x1="4.4" y1="258.22" x2="12.1" y2="258.22"/>
  <line class="st7" x1="31.7" y1="258.22" x2="39.4" y2="258.22"/>
  <g>
    <path class="st10" d="M21.1,469.62c-.6,0-1.2-.1-1.8-.1s-.9.2-1.2.5c-.3.3-.4.8-.4,1.4h.2c.5-.2.9-.3,1.2-.3,1.5,0,2.2.7,2.2,2.1s-.2,1.3-.6,1.6c-.4.4-1,.6-1.8.6s-1.4-.3-1.8-.9-.6-1.4-.6-2.5c0-2.3.9-3.4,2.7-3.4s1,0,1.6.2h.3v.9c-.1,0,0-.1,0-.1h0ZM18,472.32h-.2c0,1.4.5,2.1,1.3,2.1s.7-.1.9-.3c.2-.2.3-.5.3-.9s-.1-.7-.3-.9c-.2-.2-.5-.3-.9-.3s-.8,0-1.2.2h.1v.1Z"/>
    <path class="st10" d="M22.8,469.32c.4-.5,1-.8,1.9-.8s1.5.3,1.9.8.6,1.4.6,2.6-.2,2.1-.6,2.6-1,.8-1.9.8-1.5-.3-1.9-.8-.6-1.4-.6-2.6.2-2.1.6-2.7h0v.1ZM25.7,470.02c-.2-.4-.6-.5-1-.5s-.8.2-1,.5-.3,1-.3,1.9.1,1.5.3,1.9c.2.3.6.5,1,.5s.8-.2,1-.5c.2-.4.3-1,.3-1.9s-.1-1.6-.3-1.9Z"/>
  </g>
  <line class="st7" x1="4.4" y1="222.42" x2="12.1" y2="222.42"/>
  <line class="st7" x1="31.7" y1="222.42" x2="39.4" y2="222.42"/>
  <g>
    <path class="st10" d="M21.15,504.54v1h-3.1l-.2,1.7c.5-.2.9-.3,1.3-.3,1.4,0,2.1.7,2.1,2s-.2,1.3-.6,1.7-.9.6-1.7.6h-1c-.4,0-.7-.1-.9-.2h-.3v-.9c.9.1,1.6.2,2.1.2s.7-.1.9-.3c.2-.2.3-.5.3-.9s0-.7-.3-.9c-.2-.2-.4-.3-.7-.3-.5,0-1,0-1.3.2h-.9l.2-3.5h4.1v-.1Z"/>
    <path class="st10" d="M22.85,505.24c.4-.5,1-.8,1.9-.8s1.5.3,1.9.8.6,1.4.6,2.6-.2,2.1-.6,2.6-1,.8-1.9.8-1.5-.3-1.9-.8-.6-1.4-.6-2.6.2-2.1.6-2.7h0v.1ZM25.75,505.94c-.2-.4-.5-.5-1-.5s-.8.2-1,.5c-.2.4-.3,1-.3,1.9s.1,1.5.3,1.9c.2.3.6.5,1,.5s.8-.2,1-.5c.2-.4.3-1,.3-1.9s-.1-1.6-.3-1.9Z"/>
  </g>
  <line class="st7" x1="4.4" y1="186.5" x2="12.1" y2="186.5"/>
  <line class="st7" x1="31.8" y1="186.5" x2="39.4" y2="186.5"/>
  <g>
    <path class="st2" d="M19.6,547.1v-1.2h-3v-.9l1.7-4.6h1.2l-1.8,4.4h1.8v-1.9h1.1v1.9h.7v1h-.7v1.2h-1.1l.1.1Z"/>
    <path class="st2" d="M22.8,541.2c.4-.5,1-.8,1.9-.8s1.5.3,1.9.8.6,1.4.6,2.6-.2,2.1-.6,2.6-1,.8-1.9.8-1.5-.3-1.9-.8-.6-1.4-.6-2.6.2-2.1.6-2.7h0v.1ZM25.7,541.9c-.2-.4-.6-.5-1-.5s-.8.2-1,.5-.3,1-.3,1.9.1,1.5.3,1.9c.2.3.6.5,1,.5s.8-.2,1-.5c.2-.4.3-1,.3-1.9s-.1-1.6-.3-1.9Z"/>
  </g>
  <line class="st7" x1="4.4" y1="150.7" x2="12" y2="150.7"/>
  <line class="st7" x1="31.7" y1="150.7" x2="39.4" y2="150.7"/>
  <g>
    <path class="st2" d="M17.35,577.95c.6-.2,1.3-.3,2-.3s1.3.1,1.6.4.5.7.5,1.3,0,.5-.2.7c-.1.2-.2.4-.3.5-.1,0-.2.2-.4.3.4.2.6.3.8.5.2.2.2.5.2,1s-.2,1.2-.5,1.6c-.3.3-.9.5-1.7.5h-1c-.4,0-.6-.1-.9-.2h-.3v-.9c.7.1,1.4.2,1.9.2.8,0,1.2-.4,1.2-1.1s-.1-.6-.3-.7c-.2-.2-.5-.3-.8-.3h-1.3v-.9h1.3c.2,0,.5-.1.7-.3s.3-.5.3-.7,0-.5-.3-.6c-.2-.1-.4-.2-.8-.2s-1.1,0-1.6.1h-.3v-.8h.2v-.1Z"/>
    <path class="st2" d="M23.25,578.35c.4-.5,1-.8,1.9-.8s1.5.3,1.9.8.6,1.4.6,2.6-.2,2.1-.6,2.6-1,.8-1.9.8-1.5-.3-1.9-.8-.6-1.4-.6-2.6.2-2.1.6-2.7h0v.1ZM26.15,579.15c-.2-.4-.5-.5-1-.5s-.8.2-1,.5c-.2.4-.3,1-.3,1.9s.1,1.5.3,1.9c.2.3.6.5,1,.5s.8-.2,1-.5c.2-.4.3-1,.3-1.9s-.1-1.6-.3-1.9Z"/>
  </g>
  <line class="st7" x1="4.4" y1="115.4" x2="12.1" y2="115.4"/>
  <line class="st7" x1="31.7" y1="115.4" x2="39.4" y2="115.4"/>
  <g>
    <path class="st2" d="M21.4,620.07h-4.2v-1l1.6-1.7c.5-.5.8-.9,1-1.2s.3-.6.3-.9,0-.6-.3-.7-.5-.2-1-.2h-1.6v-.8c.6-.2,1.3-.3,2-.3,1.4,0,2.1.6,2.1,1.8s-.1.9-.3,1.2-.6.8-1.1,1.3l-1.4,1.4h3v1h-.1v.1Z"/>
    <path class="st2" d="M23,614.17c.4-.5,1-.8,1.9-.8s1.5.3,1.9.8.6,1.4.6,2.6-.2,2.1-.6,2.6-1,.8-1.9.8-1.5-.3-1.9-.8-.6-1.4-.6-2.6.2-2.1.6-2.7h0v.1ZM25.9,614.87c-.2-.4-.5-.5-1-.5s-.8.2-1,.5c-.2.4-.3,1-.3,1.9s.1,1.5.3,1.9c.2.3.6.5,1,.5s.8-.2,1-.5c.2-.4.3-1,.3-1.9s-.1-1.6-.3-1.9Z"/>
  </g>
  <line class="st7" x1="4.4" y1="79.4" x2="12.1" y2="79.4"/>
  <line class="st7" x1="31.7" y1="79.4" x2="39.4" y2="79.4"/>
  <g>
    <path class="st2" d="M20.2,649.32v6.6h-1.1v-5.3l-1.5,1-.5-.8,2.1-1.4h1v-.1Z"/>
    <path class="st2" d="M22.6,650.02c.4-.5,1-.8,1.9-.8s1.5.3,1.9.8.6,1.4.6,2.6-.2,2.1-.6,2.6-1,.8-1.9.8-1.5-.3-1.9-.8-.6-1.4-.6-2.6.2-2.1.6-2.7h0v.1ZM25.5,650.72c-.2-.4-.5-.5-1-.5s-.8.2-1,.5c-.2.4-.3,1-.3,1.9s.1,1.5.3,1.9c.2.3.6.5,1,.5s.8-.2,1-.5c.2-.4.3-1,.3-1.9s-.1-1.6-.3-1.9Z"/>
  </g>
  <path class="st2" d="M24.2,685.55v1h-3.1l-.2,1.7c.5-.2.9-.3,1.3-.3,1.4,0,2.1.7,2.1,2s-.2,1.3-.6,1.7-.9.6-1.7.6h-1c-.4,0-.7,0-.9-.2h-.3v-.9c.9,0,1.6.2,2.1.2s.7,0,.9-.3c.2-.2.3-.5.3-.9s0-.7-.3-.9c-.2-.2-.4-.3-.7-.3-.5,0-1,0-1.3.2h-.9l.2-3.5h4.1v-.1Z"/>
</svg>