<?xml version="1.0" encoding="UTF-8"?>
<svg id="Livello_1" xmlns="http://www.w3.org/2000/svg" version="1.1" width="40.8px" height="725.2px" viewBox="0 0 40.8 725.2">
  <!-- Generator: Adobe Illustrator 29.6.1, SVG Export Plug-In . SVG Version: 2.1.1 Build 9)  -->
  <defs>
    <style>
      .st0 {
        fill: #ee7326;
      }

      .st1 {
        fill: #71a2d6;
      }

      .st2 {
        fill: #3c3430;
      }

      .st3 {
        fill: #1b4674;
      }

      .st4 {
        fill: #5b0c03;
      }

      .st5 {
        stroke-width: 2px;
      }

      .st5, .st6, .st7 {
        fill: none;
      }

      .st5, .st7 {
        stroke: #3c3430;
        stroke-miterlimit: 9.8;
      }

      .st8 {
        fill: #39322e;
      }

      .st9 {
        fill: #f2a918;
      }

      .st10 {
        fill: #fff;
      }

      .st11 {
        fill: #0f2743;
      }

      .st12 {
        fill: #ea1fe3;
      }

      .st13 {
        fill: #4182c8;
      }

      .st14 {
        fill: #b4eafa;
      }

      .st15 {
        fill: #dbf4fb;
      }

      .st16 {
        fill: #8ce0f8;
      }

      .st17 {
        fill: #a810a3;
      }

      .st18 {
        fill: #2bc7f3;
      }

      .st19 {
        fill: #b1aab1;
      }

      .st20 {
        fill: #3b3330;
      }

      .st21 {
        fill: #8b1204;
      }

      .st22 {
        fill: #f16aed;
      }

      .st23 {
        fill: #4eb5e5;
      }

      .st24 {
        fill: #fff533;
      }

      .st25 {
        fill: #e22208;
      }
    </style>
  </defs>
  <g>
    <path class="st19" d="M4.4,688.7h35v30.7c0,2.8-2.3,5.1-5.1,5.1H9.8c-3,0-5.4-2.4-5.4-5.4v-30.4h0Z"/>
    <rect class="st22" x="4.4" y="652.9" width="35" height="35.8"/>
    <g>
      <rect class="st12" x="4.4" y="617" width="35" height="35.8"/>
      <rect class="st17" x="4.4" y="581.2" width="35" height="35.8"/>
    </g>
    <g>
      <rect class="st4" x="4.4" y="545.3" width="35" height="35.8"/>
      <rect class="st21" x="4.4" y="509.5" width="35" height="35.8"/>
      <g>
        <rect class="st25" x="4.4" y="473.6" width="35" height="35.8"/>
        <rect class="st0" x="4.4" y="437.8" width="35" height="35.8"/>
      </g>
    </g>
    <g>
      <rect class="st9" x="4.4" y="401.9" width="35" height="35.8"/>
      <rect class="st24" x="4.4" y="366.1" width="35" height="35.8"/>
      <g>
        <rect class="st11" x="4.4" y="330.2" width="35" height="35.8"/>
        <rect class="st3" x="4.4" y="294.4" width="35" height="35.8"/>
      </g>
      <g>
        <rect class="st13" x="4.4" y="258.6" width="35" height="35.8"/>
        <rect class="st1" x="4.4" y="222.7" width="35" height="35.8"/>
        <g>
          <rect class="st23" x="4.4" y="186.9" width="35" height="35.8"/>
          <rect class="st18" x="4.4" y="151" width="35" height="35.8"/>
        </g>
      </g>
    </g>
    <g>
      <rect class="st16" x="4.4" y="115.2" width="35" height="35.8"/>
      <rect class="st14" x="4.4" y="79.3" width="35" height="35.8"/>
      <path class="st15" d="M10.4,43.5h22.3c3.7,0,6.7,3,6.7,6.7v29.2H4.4v-29.8c0-3.3,2.7-6.1,6.1-6.1h-.1Z"/>
    </g>
  </g>
  <circle class="st8" cx="21.9" cy="21.8" r="19.8"/>
  <rect class="st6" x="8.6" y="680" width="15.4" height="11.8"/>
  <path class="st5" d="M34.1,723.8H9.6c-3.4,0-6.2-2.8-6.2-6.2V51.1c0-3.4,2.8-6.2,6.2-6.2h24.5c3.4,0,6.2,2.8,6.2,6.2v666.5c0,3.4-2.8,6.2-6.2,6.2Z"/>
  <path class="st10" d="M36.9,22.8h0c0-7.6-6.2-13.8-13.9-14.2v-1.3c0-.3-.3-.7-.8-.7s-.8.3-.8.7v1.3c-7.8.3-14,6.5-14,14.1s.3.7.8.7.3-.1.6-.2c2.5-2.3,5.8-2.3,8.2,0,.1.1.3.2.6.2s.3-.1.5-.2c1-.9,2.2-1.5,3.4-1.6v9.8c0,1.9,1.7,3.7,3.8,3.7s3.8-1.6,3.8-3.7-.3-.7-.8-.7-.8.3-.8.7c0,1.1-1,2.2-2.3,2.2s-2.3-1-2.3-2.2v-9.8c1.1.1,2.4.7,3.4,1.6.2.2.8.2,1,0,2.5-2.3,5.8-2.3,8.3,0,.2.2.7.2.9.1.3-.2.4-.3.4-.5ZM26.1,21.3c-1.3-.8-2.6-1.3-4-1.3h-.2c-1.4,0-2.7.5-4,1.3-.3-4.9.9-8.8,2.5-10.5,1-1.1,2.1-1.1,3.2,0,1.6,1.7,3,5.5,2.5,10.5ZM9,21.1c.7-5.4,4.8-9.6,10-10.8-1.5,1.9-2.9,5.7-2.5,10.8-2.2-1.4-5.1-1.4-7.5,0ZM27.7,21.1c.3-5.1-1-8.9-2.5-10.8,5.4,1.3,9.4,5.5,10,10.8-2.3-1.4-5.1-1.4-7.5,0Z"/>
  <line class="st7" x1="4.4" y1="688.9" x2="11.1" y2="688.9"/>
  <g>
    <path class="st20" d="M14.7,719.7h-1.6v-6h1.6v.3c.6-.3,1-.5,1.4-.5.6,0,1.1.2,1.5.6.7-.4,1.4-.6,2-.6s1.3.2,1.7.7c.3.5.5,1.2.5,2.2v3.3h-1.6v-3.2c0-.5-.1-.9-.2-1.1-.1-.2-.3-.4-.7-.4s-.6,0-.9.2h-.2v4.6h-1.6v-3.1c0-.6-.1-1-.2-1.3-.1-.2-.3-.4-.7-.4s-.6,0-.9.2h-.1s0,4.5,0,4.5Z"/>
    <path class="st20" d="M24.7,719.7h-1.6v-6h1.6v.3c.6-.3,1-.5,1.4-.5.6,0,1.1.2,1.5.6.7-.4,1.4-.6,2-.6s1.3.2,1.6.7c.3.5.5,1.2.5,2.2v3.3h-1.6v-3.2c0-.5-.1-.9-.2-1.1-.1-.2-.3-.4-.7-.4s-.6,0-.9.2h-.2v4.6h-1.6v-3.1c0-.6-.1-1-.2-1.3-.1-.2-.3-.4-.7-.4s-.6,0-.9.2h-.1v4.5h.1Z"/>
  </g>
  <path class="st5" d="M34,723.7H9.5c-3.4,0-6.2-3-6.2-6.7V51.2c0-3.7,2.8-6.7,6.2-6.7h24.5c3.4,0,6.2,3,6.2,6.7v665.8c0,3.7-2.8,6.7-6.2,6.7Z"/>
  <line class="st7" x1="33" y1="688.9" x2="39.4" y2="688.9"/>
  <line class="st7" x1="4.3" y1="653" x2="12" y2="653"/>
  <line class="st7" x1="31.6" y1="653" x2="39.3" y2="653"/>
  <g>
    <path class="st10" d="M18.5,685.1v1h-3.1l-.2,1.7c.5-.2.9-.3,1.3-.3,1.4,0,2.1.7,2.1,2s-.2,1.3-.6,1.7-.9.6-1.7.6h-1c-.4,0-.7,0-.9-.2h-.3v-.9c.9,0,1.6.2,2.1.2s.7,0,.9-.3c.2-.2.3-.5.3-.9s0-.7-.3-.9c-.2-.2-.4-.3-.7-.3-.5,0-1,0-1.3.2h-.9l.2-3.5h4.1Z"/>
    <path class="st10" d="M20.2,685.8c.4-.5,1-.8,1.9-.8s1.5.3,1.9.8.6,1.4.6,2.6-.2,2.1-.6,2.6-1,.8-1.9.8-1.5-.3-1.9-.8-.6-1.4-.6-2.6.2-2.1.6-2.7h0ZM23.1,686.5c-.2-.4-.6-.5-1-.5s-.8.2-1,.5-.3,1-.3,1.9.1,1.5.3,1.9c.2.3.6.5,1,.5s.8-.2,1-.5c.2-.4.3-1,.3-1.9s-.1-1.6-.3-1.9Z"/>
    <path class="st10" d="M25.8,685.8c.4-.5,1-.8,1.9-.8s1.5.3,1.9.8.6,1.4.6,2.6-.2,2.1-.6,2.6-1,.8-1.9.8-1.5-.3-1.9-.8-.6-1.4-.6-2.6.2-2.1.6-2.7h0ZM28.7,686.5c-.2-.4-.5-.5-1-.5s-.8.2-1,.5-.3,1-.3,1.9.1,1.5.3,1.9c.2.3.6.5,1,.5s.8-.2,1-.5c.2-.4.3-1,.3-1.9s-.1-1.6-.3-1.9Z"/>
  </g>
  <line class="st7" x1="4.4" y1="616.9" x2="12" y2="616.9"/>
  <line class="st7" x1="31.7" y1="616.9" x2="39.4" y2="616.9"/>
  <g>
    <path class="st10" d="M16.9,655.6v-1.2h-3v-.9l1.7-4.6h1.2l-1.8,4.4h1.8v-1.9h1.1v1.9h.7v1h-.7v1.2h-1.1.1Z"/>
    <path class="st10" d="M20,649.7c.4-.5,1-.8,1.9-.8s1.5.3,1.9.8.6,1.4.6,2.6-.2,2.1-.6,2.6-1,.8-1.9.8-1.5-.3-1.9-.8-.6-1.4-.6-2.6.2-2.1.6-2.7h0ZM22.9,650.4c-.2-.4-.6-.5-1-.5s-.8.2-1,.5-.3,1-.3,1.9.1,1.5.3,1.9c.2.3.6.5,1,.5s.8-.2,1-.5c.2-.4.3-1,.3-1.9s-.1-1.6-.3-1.9Z"/>
    <path class="st10" d="M25.6,649.7c.4-.5,1-.8,1.9-.8s1.5.3,1.9.8.6,1.4.6,2.6-.2,2.1-.6,2.6-1,.8-1.9.8-1.5-.3-1.9-.8-.6-1.4-.6-2.6.2-2.1.6-2.7h0ZM28.5,650.4c-.2-.4-.5-.5-1-.5s-.8.2-1,.5-.3,1-.3,1.9.1,1.5.3,1.9c.2.3.6.5,1,.5s.8-.2,1-.5c.2-.4.3-1,.3-1.9s-.1-1.6-.3-1.9Z"/>
  </g>
  <line class="st7" x1="4.3" y1="581" x2="12" y2="581"/>
  <line class="st7" x1="31.6" y1="581" x2="39.3" y2="581"/>
  <g>
    <path class="st10" d="M14.1,613.3c.6-.2,1.3-.3,2-.3s1.3,0,1.6.4.5.7.5,1.3,0,.5-.2.7c-.1.2-.2.4-.3.5-.1,0-.2.2-.4.3.4.2.6.3.8.5.2.2.2.5.2,1s-.2,1.2-.5,1.6c-.3.3-.9.5-1.7.5h-1c-.4,0-.6,0-.9-.2h-.3v-.9c.7,0,1.4.2,1.9.2.8,0,1.2-.4,1.2-1.1s-.1-.6-.3-.7c-.2-.2-.5-.3-.8-.3h-1.3v-.9h1.3c.2,0,.5,0,.7-.3.2-.2.3-.5.3-.7s0-.5-.3-.6c-.2,0-.4-.2-.8-.2s-1.1,0-1.6,0h-.3v-.8h.2Z"/>
    <path class="st10" d="M19.9,613.8c.4-.5,1-.8,1.9-.8s1.5.3,1.9.8.6,1.4.6,2.6-.2,2.1-.6,2.6-1,.8-1.9.8-1.5-.3-1.9-.8-.6-1.4-.6-2.6.2-2.1.6-2.7h0ZM22.8,614.5c-.2-.4-.6-.5-1-.5s-.8.2-1,.5-.3,1-.3,1.9.1,1.5.3,1.9c.2.3.6.5,1,.5s.8-.2,1-.5c.2-.4.3-1,.3-1.9s-.1-1.6-.3-1.9Z"/>
    <path class="st10" d="M25.5,613.8c.4-.5,1-.8,1.9-.8s1.5.3,1.9.8.6,1.4.6,2.6-.2,2.1-.6,2.6-1,.8-1.9.8-1.5-.3-1.9-.8-.6-1.4-.6-2.6.2-2.1.6-2.7h0ZM28.4,614.5c-.2-.4-.5-.5-1-.5s-.8.2-1,.5-.3,1-.3,1.9.1,1.5.3,1.9c.2.3.6.5,1,.5s.8-.2,1-.5c.2-.4.3-1,.3-1.9s-.1-1.6-.3-1.9Z"/>
  </g>
  <line class="st7" x1="4.4" y1="545.5" x2="12.1" y2="545.5"/>
  <line class="st7" x1="31.7" y1="545.5" x2="39.4" y2="545.5"/>
  <g>
    <path class="st10" d="M18.5,584.2h-4.2v-1l1.6-1.7c.5-.5.8-.9,1-1.2s.3-.6.3-.9,0-.6-.3-.7-.5-.2-1-.2-.9,0-1.4,0h-.2v-.8c.6-.2,1.3-.3,2-.3,1.4,0,2.1.6,2.1,1.8s-.1.9-.3,1.2-.6.8-1.1,1.3l-1.4,1.4h3v1h-.1Z"/>
    <path class="st10" d="M24,577.6v1h-3.1l-.2,1.7c.5-.2.9-.3,1.3-.3,1.4,0,2.1.7,2.1,2s-.2,1.3-.6,1.7-.9.6-1.7.6h-1c-.4,0-.7,0-.9-.2h-.3v-.9c.9,0,1.6.2,2.1.2s.7,0,.9-.3c.2-.2.3-.5.3-.9s0-.7-.3-.9c-.2-.2-.4-.3-.7-.3-.5,0-1,0-1.3.2h-.9l.2-3.5h4.1Z"/>
    <path class="st10" d="M25.7,578.3c.4-.5,1-.8,1.9-.8s1.5.3,1.9.8.6,1.4.6,2.6-.2,2.1-.6,2.6-1,.8-1.9.8-1.5-.3-1.9-.8-.6-1.4-.6-2.6.2-2.1.6-2.7h0ZM28.6,579c-.2-.4-.5-.5-1-.5s-.8.2-1,.5-.3,1-.3,1.9.1,1.5.3,1.9c.2.3.6.5,1,.5s.8-.2,1-.5c.2-.4.3-1,.3-1.9s-.1-1.6-.3-1.9Z"/>
  </g>
  <line class="st7" x1="4.3" y1="509.6" x2="12" y2="509.6"/>
  <line class="st7" x1="31.7" y1="509.6" x2="39.4" y2="509.6"/>
  <g>
    <path class="st10" d="M18.4,548.3h-4.2v-1l1.6-1.7c.5-.5.8-.9,1-1.2.2-.3.3-.6.3-.9s0-.6-.3-.7-.5-.2-1-.2-.9,0-1.4.1h-.2v-.8c.6-.2,1.3-.3,2-.3,1.4,0,2.1.6,2.1,1.8s-.1.9-.3,1.2-.6.8-1.1,1.3l-1.4,1.4h3v1h-.1Z"/>
    <path class="st10" d="M20,542.4c.4-.5,1-.8,1.9-.8s1.5.3,1.9.8.6,1.4.6,2.6-.2,2.1-.6,2.6-1,.8-1.9.8-1.5-.3-1.9-.8-.6-1.4-.6-2.6.2-2.1.6-2.7h0ZM22.9,543.1c-.2-.4-.6-.5-1-.5s-.8.2-1,.5-.3,1-.3,1.9.1,1.5.3,1.9c.2.3.6.5,1,.5s.8-.2,1-.5c.2-.4.3-1,.3-1.9s-.1-1.6-.3-1.9h0Z"/>
    <path class="st10" d="M25.6,542.4c.4-.5,1-.8,1.9-.8s1.5.3,1.9.8.6,1.4.6,2.6-.2,2.1-.6,2.6-1,.8-1.9.8-1.5-.3-1.9-.8-.6-1.4-.6-2.6.2-2.1.6-2.7h0ZM28.5,543.1c-.2-.4-.5-.5-1-.5s-.8.2-1,.5-.3,1-.3,1.9.1,1.5.3,1.9c.2.3.6.5,1,.5s.8-.2,1-.5c.2-.4.3-1,.3-1.9s-.1-1.6-.3-1.9h0Z"/>
  </g>
  <line class="st7" x1="4.4" y1="473.8" x2="12.1" y2="473.8"/>
  <line class="st7" x1="31.7" y1="473.8" x2="39.4" y2="473.8"/>
  <g>
    <path class="st10" d="M17.6,505.8v6.6h-1.1v-5.3l-1.5,1-.5-.8,2.1-1.4h1Z"/>
    <path class="st10" d="M20.2,506.2c.4-.3,1-.5,1.7-.5s1.3.2,1.8.5c.4.3.7.7.7,1.3s0,.7-.2.9c-.1.2-.4.4-.7.6.3.2.6.4.7.7.2.2.2.5.2,1s-.2,1.2-.7,1.5-1.1.5-1.8.5c-1.7,0-2.5-.6-2.5-1.8s0-.8.2-1,.4-.5.7-.7c-.3-.2-.5-.4-.7-.6-.1-.2-.2-.5-.2-.9,0-.6.2-1,.6-1.3l.2-.2ZM20.6,510.5c0,.7.4,1,1.3,1s1.3-.4,1.3-1.1-.3-.8-.8-.9h-1c-.5.2-.8.5-.8,1ZM23.1,507.7c0-.6-.4-.9-1.2-.9s-1.2.3-1.2.9.2.7.7,1h1c.5-.2.7-.5.7-1Z"/>
    <path class="st10" d="M25.7,506.5c.4-.5,1-.8,1.9-.8s1.5.3,1.9.8.6,1.4.6,2.6-.2,2.1-.6,2.6-1,.8-1.9.8-1.5-.3-1.9-.8-.6-1.4-.6-2.6.2-2.1.6-2.7h0ZM28.6,507.3c-.2-.4-.5-.5-1-.5s-.8.2-1,.5-.3,1-.3,1.9.1,1.5.3,1.9c.2.3.6.5,1,.5s.8-.2,1-.5c.2-.4.3-1,.3-1.9s-.1-1.6-.3-1.9Z"/>
  </g>
  <line class="st7" x1="4.3" y1="437.9" x2="12" y2="437.9"/>
  <line class="st7" x1="31.7" y1="437.9" x2="39.4" y2="437.9"/>
  <g>
    <path class="st10" d="M17.5,470v6.6h-1.1v-5.3l-1.5,1-.5-.8,2.1-1.4h1Z"/>
    <path class="st10" d="M24,471c-.6,0-1.2-.1-1.8-.1s-.9.2-1.2.5c-.3.3-.4.8-.4,1.4h.2c.5-.2.9-.3,1.2-.3,1.5,0,2.2.7,2.2,2.1s-.2,1.3-.6,1.6c-.4.4-1,.6-1.8.6s-1.4-.3-1.8-.9-.6-1.4-.6-2.5c0-2.3.9-3.4,2.7-3.4s1,0,1.6.2h.3v.9h0ZM20.8,473.6h-.2c0,1.4.5,2.1,1.3,2.1s.7-.1.9-.3c.2-.2.3-.5.3-.9s-.1-.7-.3-.9c-.2-.2-.5-.3-.9-.3s-.8,0-1.2.2h.1Z"/>
    <path class="st10" d="M25.6,470.7c.4-.5,1-.8,1.9-.8s1.5.3,1.9.8.6,1.4.6,2.6-.2,2.1-.6,2.6-1,.8-1.9.8-1.5-.3-1.9-.8-.6-1.4-.6-2.6.2-2.1.6-2.7h0ZM28.5,471.4c-.2-.4-.5-.5-1-.5s-.8.2-1,.5-.3,1-.3,1.9.1,1.5.3,1.9c.2.3.6.5,1,.5s.8-.2,1-.5c.2-.4.3-1,.3-1.9s-.1-1.6-.3-1.9Z"/>
  </g>
  <line class="st7" x1="4.3" y1="401.6" x2="12" y2="401.6"/>
  <line class="st7" x1="31.6" y1="401.6" x2="39.3" y2="401.6"/>
  <g>
    <path class="st2" d="M17.5,433.7v6.6h-1.1v-5.3l-1.5,1-.5-.8,2.1-1.4h1Z"/>
    <path class="st2" d="M22.4,440.3v-1.2h-3v-.9l1.7-4.6h1.2l-1.8,4.4h1.8v-1.9h1.1v1.9h.7v1h-.7v1.2h-1.1,0Z"/>
    <path class="st2" d="M25.5,434.4c.4-.5,1-.8,1.9-.8s1.5.3,1.9.8.6,1.4.6,2.6-.2,2.1-.6,2.6-1,.8-1.9.8-1.5-.3-1.9-.8-.6-1.4-.6-2.6.2-2.1.6-2.7h0ZM28.4,435.1c-.2-.4-.5-.5-1-.5s-.8.2-1,.5-.3,1-.3,1.9.1,1.5.3,1.9c.2.3.6.5,1,.5s.8-.2,1-.5c.2-.4.3-1,.3-1.9s-.1-1.6-.3-1.9Z"/>
  </g>
  <line class="st7" x1="4.2" y1="365.7" x2="11.9" y2="365.7"/>
  <line class="st7" x1="31.5" y1="365.7" x2="39.2" y2="365.7"/>
  <g>
    <path class="st2" d="M17.5,397.3v6.6h-1.1v-5.3l-1.5,1-.5-.8,2.1-1.4h1Z"/>
    <path class="st2" d="M24,403.9h-4.2v-1l1.6-1.7c.5-.5.8-.9,1-1.2.2-.3.3-.6.3-.9s0-.6-.3-.7-.5-.2-1-.2-.9,0-1.4.1h-.2v-.8c.6-.2,1.3-.3,2-.3,1.4,0,2.1.6,2.1,1.8s-.1.9-.3,1.2-.6.8-1.1,1.3l-1.4,1.4h3v1h-.1Z"/>
    <path class="st2" d="M25.6,398c.4-.5,1-.8,1.9-.8s1.5.3,1.9.8.6,1.4.6,2.6-.2,2.1-.6,2.6-1,.8-1.9.8-1.5-.3-1.9-.8-.6-1.4-.6-2.6.2-2.1.6-2.7h0ZM28.5,398.7c-.2-.4-.5-.5-1-.5s-.8.2-1,.5-.3,1-.3,1.9.1,1.5.3,1.9c.2.3.6.5,1,.5s.8-.2,1-.5c.2-.4.3-1,.3-1.9s-.1-1.6-.3-1.9Z"/>
  </g>
  <line class="st7" x1="4.3" y1="330.2" x2="11.9" y2="330.2"/>
  <line class="st7" x1="31.6" y1="330.2" x2="39.3" y2="330.2"/>
  <g>
    <path class="st10" d="M17.5,362.3v6.6h-1.1v-5.3l-1.5,1-.5-.8,2.1-1.4h1Z"/>
    <path class="st10" d="M19.9,363c.4-.5,1-.8,1.9-.8s1.5.3,1.9.8.6,1.4.6,2.6-.2,2.1-.6,2.6-1,.8-1.9.8-1.5-.3-1.9-.8-.6-1.4-.6-2.6.2-2.1.6-2.7h0ZM22.8,363.7c-.2-.4-.6-.5-1-.5s-.8.2-1,.5-.3,1-.3,1.9.1,1.5.3,1.9c.2.3.6.5,1,.5s.8-.2,1-.5c.2-.4.3-1,.3-1.9s-.1-1.6-.3-1.9Z"/>
    <path class="st10" d="M25.5,363c.4-.5,1-.8,1.9-.8s1.5.3,1.9.8.6,1.4.6,2.6-.2,2.1-.6,2.6-1,.8-1.9.8-1.5-.3-1.9-.8-.6-1.4-.6-2.6.2-2.1.6-2.7h0ZM28.4,363.7c-.2-.4-.5-.5-1-.5s-.8.2-1,.5-.3,1-.3,1.9.1,1.5.3,1.9c.2.3.6.5,1,.5s.8-.2,1-.5c.2-.4.3-1,.3-1.9s-.1-1.6-.3-1.9Z"/>
  </g>
  <line class="st7" x1="4.2" y1="294.3" x2="11.9" y2="294.3"/>
  <line class="st7" x1="31.5" y1="294.3" x2="39.2" y2="294.3"/>
  <g>
    <path class="st10" d="M17.2,326.8c.4-.3,1-.5,1.7-.5s1.3.2,1.8.5c.4.3.7.7.7,1.3s0,.7-.2.9-.4.4-.7.6c.3.2.6.4.7.7.2.2.2.5.2,1s-.2,1.2-.7,1.5-1.1.5-1.8.5c-1.7,0-2.5-.6-2.5-1.8s0-.8.2-1,.4-.5.7-.7c-.3-.2-.5-.4-.7-.6-.1-.2-.2-.5-.2-.9,0-.6.2-1,.6-1.3l.2-.2ZM17.6,331.1c0,.7.4,1,1.3,1s1.3-.4,1.3-1.1-.3-.8-.8-.9h-1c-.5.2-.8.5-.8,1ZM20.1,328.2c0-.6-.4-.9-1.2-.9s-1.2.3-1.2.9.2.7.7,1h1c.5-.2.7-.5.7-1Z"/>
    <path class="st10" d="M22.7,327.1c.4-.5,1-.8,1.9-.8s1.5.3,1.9.8.6,1.4.6,2.6-.2,2.1-.6,2.6-1,.8-1.9.8-1.5-.3-1.9-.8-.6-1.4-.6-2.6.2-2.1.6-2.7h0ZM25.6,327.8c-.2-.4-.6-.5-1-.5s-.8.2-1,.5-.3,1-.3,1.9.1,1.5.3,1.9c.2.3.6.5,1,.5s.8-.2,1-.5c.2-.4.3-1,.3-1.9s-.1-1.6-.3-1.9Z"/>
  </g>
  <line class="st7" x1="4.4" y1="258.9" x2="12.1" y2="258.9"/>
  <line class="st7" x1="31.7" y1="258.9" x2="39.4" y2="258.9"/>
  <g>
    <path class="st10" d="M21.2,292c-.6,0-1.2-.1-1.8-.1s-.9.2-1.2.5c-.3.3-.4.8-.4,1.4h.2c.5-.2.9-.3,1.2-.3,1.5,0,2.2.7,2.2,2.1s-.2,1.3-.6,1.6c-.4.4-1,.6-1.8.6s-1.4-.3-1.8-.9-.6-1.4-.6-2.5c0-2.3.9-3.4,2.7-3.4s1,0,1.6.2h.3v.9c-.1,0,0-.1,0-.1ZM18.1,294.7h-.2c0,1.4.5,2.1,1.3,2.1s.7-.1.9-.3c.2-.2.3-.5.3-.9s-.1-.7-.3-.9c-.2-.2-.5-.3-.9-.3s-.8,0-1.2.2h.1Z"/>
    <path class="st10" d="M22.9,291.7c.4-.5,1-.8,1.9-.8s1.5.3,1.9.8.6,1.4.6,2.6-.2,2.1-.6,2.6-1,.8-1.9.8-1.5-.3-1.9-.8-.6-1.4-.6-2.6.2-2.1.6-2.7h0ZM25.8,292.4c-.2-.4-.6-.5-1-.5s-.8.2-1,.5-.3,1-.3,1.9.1,1.5.3,1.9c.2.3.6.5,1,.5s.8-.2,1-.5c.2-.4.3-1,.3-1.9s-.1-1.6-.3-1.9Z"/>
  </g>
  <line class="st7" x1="4.3" y1="223.1" x2="12" y2="223.1"/>
  <line class="st7" x1="31.7" y1="223.1" x2="39.4" y2="223.1"/>
  <g>
    <path class="st10" d="M21.1,255.2v1h-3.1l-.2,1.7c.5-.2.9-.3,1.3-.3,1.4,0,2.1.7,2.1,2s-.2,1.3-.6,1.7-.9.6-1.7.6h-1c-.4,0-.7-.1-.9-.2h-.3v-.9c.9.1,1.6.2,2.1.2s.7-.1.9-.3c.2-.2.3-.5.3-.9s0-.7-.3-.9c-.2-.2-.4-.3-.7-.3-.5,0-1,0-1.3.2h-.9l.2-3.5h4.1Z"/>
    <path class="st10" d="M22.8,255.9c.4-.5,1-.8,1.9-.8s1.5.3,1.9.8.6,1.4.6,2.6-.2,2.1-.6,2.6-1,.8-1.9.8-1.5-.3-1.9-.8-.6-1.4-.6-2.6.2-2.1.6-2.7h0ZM25.7,256.6c-.2-.4-.5-.5-1-.5s-.8.2-1,.5c-.2.4-.3,1-.3,1.9s.1,1.5.3,1.9c.2.3.6.5,1,.5s.8-.2,1-.5c.2-.4.3-1,.3-1.9s-.1-1.6-.3-1.9Z"/>
  </g>
  <line class="st7" x1="4.4" y1="186.5" x2="12.1" y2="186.5"/>
  <line class="st7" x1="31.8" y1="186.5" x2="39.4" y2="186.5"/>
  <g>
    <path class="st2" d="M19.7,225.2v-1.2h-3v-.9l1.7-4.6h1.2l-1.8,4.4h1.8v-1.9h1.1v1.9h.7v1h-.7v1.2h-1.1,0Z"/>
    <path class="st2" d="M22.9,219.3c.4-.5,1-.8,1.9-.8s1.5.3,1.9.8.6,1.4.6,2.6-.2,2.1-.6,2.6-1,.8-1.9.8-1.5-.3-1.9-.8-.6-1.4-.6-2.6.2-2.1.6-2.7h0ZM25.8,220c-.2-.4-.6-.5-1-.5s-.8.2-1,.5-.3,1-.3,1.9.1,1.5.3,1.9c.2.3.6.5,1,.5s.8-.2,1-.5c.2-.4.3-1,.3-1.9s-.1-1.6-.3-1.9Z"/>
  </g>
  <line class="st7" x1="4.4" y1="150.7" x2="12" y2="150.7"/>
  <line class="st7" x1="31.7" y1="150.7" x2="39.4" y2="150.7"/>
  <g>
    <path class="st2" d="M16.9,183c.6-.2,1.3-.3,2-.3s1.3.1,1.6.4.5.7.5,1.3,0,.5-.2.7c-.1.2-.2.4-.3.5-.1,0-.2.2-.4.3.4.2.6.3.8.5.2.2.2.5.2,1s-.2,1.2-.5,1.6c-.3.3-.9.5-1.7.5h-1c-.4,0-.6-.1-.9-.2h-.3v-.9c.7.1,1.4.2,1.9.2.8,0,1.2-.4,1.2-1.1s-.1-.6-.3-.7c-.2-.2-.5-.3-.8-.3h-1.3v-.9h1.3c.2,0,.5-.1.7-.3s.3-.5.3-.7,0-.5-.3-.6c-.2-.1-.4-.2-.8-.2s-1.1,0-1.6.1h-.3v-.8h.2Z"/>
    <path class="st2" d="M22.8,183.4c.4-.5,1-.8,1.9-.8s1.5.3,1.9.8.6,1.4.6,2.6-.2,2.1-.6,2.6-1,.8-1.9.8-1.5-.3-1.9-.8-.6-1.4-.6-2.6.2-2.1.6-2.7h0ZM25.7,184.2c-.2-.4-.5-.5-1-.5s-.8.2-1,.5c-.2.4-.3,1-.3,1.9s.1,1.5.3,1.9c.2.3.6.5,1,.5s.8-.2,1-.5c.2-.4.3-1,.3-1.9s-.1-1.6-.3-1.9Z"/>
  </g>
  <line class="st7" x1="4.4" y1="115.4" x2="12.1" y2="115.4"/>
  <line class="st7" x1="31.7" y1="115.4" x2="39.4" y2="115.4"/>
  <g>
    <path class="st2" d="M21.2,154.1h-4.2v-1l1.6-1.7c.5-.5.8-.9,1-1.2.2-.3.3-.6.3-.9s0-.6-.3-.7-.5-.2-1-.2-.9,0-1.4,0h-.2v-.8c.6-.2,1.3-.3,2-.3,1.4,0,2.1.6,2.1,1.8s-.1.9-.3,1.2-.6.8-1.1,1.3l-1.4,1.4h3v1h-.1Z"/>
    <path class="st2" d="M22.8,148.2c.4-.5,1-.8,1.9-.8s1.5.3,1.9.8.6,1.4.6,2.6-.2,2.1-.6,2.6-1,.8-1.9.8-1.5-.3-1.9-.8-.6-1.4-.6-2.6.2-2.1.6-2.7h0ZM25.7,148.9c-.2-.4-.5-.5-1-.5s-.8.2-1,.5c-.2.4-.3,1-.3,1.9s.1,1.5.3,1.9c.2.3.6.5,1,.5s.8-.2,1-.5c.2-.4.3-1,.3-1.9s-.1-1.6-.3-1.9Z"/>
  </g>
  <line class="st7" x1="4.4" y1="79.4" x2="12.1" y2="79.4"/>
  <line class="st7" x1="31.7" y1="79.4" x2="39.4" y2="79.4"/>
  <g>
    <path class="st2" d="M20.4,111.5v6.6h-1.1v-5.3l-1.5,1-.5-.8,2.1-1.4h1Z"/>
    <path class="st2" d="M22.8,112.2c.4-.5,1-.8,1.9-.8s1.5.3,1.9.8.6,1.4.6,2.6-.2,2.1-.6,2.6-1,.8-1.9.8-1.5-.3-1.9-.8-.6-1.4-.6-2.6.2-2.1.6-2.7h0ZM25.7,112.9c-.2-.4-.5-.5-1-.5s-.8.2-1,.5c-.2.4-.3,1-.3,1.9s.1,1.5.3,1.9c.2.3.6.5,1,.5s.8-.2,1-.5c.2-.4.3-1,.3-1.9s-.1-1.6-.3-1.9Z"/>
  </g>
  <path class="st2" d="M24.3,76v1h-3.1l-.2,1.7c.5-.2.9-.3,1.3-.3,1.4,0,2.1.7,2.1,2s-.2,1.3-.6,1.7-.9.6-1.7.6h-1c-.4,0-.7,0-.9-.2h-.3v-.9c.9,0,1.6.2,2.1.2s.7,0,.9-.3c.2-.2.3-.5.3-.9s0-.7-.3-.9c-.2-.2-.4-.3-.7-.3-.5,0-1,0-1.3.2h-.9l.2-3.5h4.1Z"/>
</svg>