<?xml version="1.0" encoding="UTF-8"?>
<svg id="Livello_1" xmlns="http://www.w3.org/2000/svg" version="1.1" xmlns:xlink="http://www.w3.org/1999/xlink" viewBox="0 0 40.8 725.2" width="42.8px" height="725.2px">
  <!-- Generator: Adobe Illustrator 29.6.1, SVG Export Plug-In . SVG Version: 2.1.1 Build 9)  -->
  <defs>
    <style>
      .st0 {
        fill: #f4bd0b;
      }

      .st0, .st1, .st2, .st3, .st4, .st5, .st6, .st7, .st8, .st9, .st10, .st11, .st12, .st13, .st14, .st15, .st16, .st17, .st18, .st19, .st20, .st21, .st22, .st23, .st24, .st25, .st26, .st27, .st28, .st29, .st30, .st31, .st32, .st33, .st34, .st35, .st36, .st37, .st38, .st39 {
        isolation: isolate;
      }

      .st0, .st1, .st2, .st3, .st4, .st5, .st6, .st7, .st8, .st10, .st11, .st12, .st13, .st14, .st15, .st16, .st17, .st18, .st20, .st21, .st22, .st23, .st24, .st25, .st26, .st27, .st28, .st29, .st30, .st31, .st32, .st33, .st34, .st35, .st36, .st37, .st38, .st39 {
        opacity: .9;
      }

      .st1 {
        fill: #52ca0b;
      }

      .st40 {
        clip-path: url(#clippath-21);
      }

      .st41 {
        fill: #660666;
      }

      .st42 {
        clip-path: url(#clippath-6);
      }

      .st43 {
        clip-path: url(#clippath-7);
      }

      .st44 {
        clip-path: url(#clippath-17);
      }

      .st45 {
        fill: #3a332f;
      }

      .st45, .st46, .st9, .st47, .st48, .st49 {
        display: none;
      }

      .st50 {
        clip-path: url(#clippath-31);
      }

      .st51 {
        fill: #f7a426;
      }

      .st52 {
        fill: #d0ebf7;
      }

      .st53 {
        fill: #ffffc7;
      }

      .st54 {
        clip-path: url(#clippath-15);
      }

      .st55 {
        clip-path: url(#clippath-33);
      }

      .st2 {
        fill: #b000e0;
      }

      .st56 {
        clip-path: url(#clippath-18);
      }

      .st57 {
        clip-path: url(#clippath-4);
      }

      .st58 {
        fill: #fdcc22;
      }

      .st59 {
        fill: #4469bb;
      }

      .st60 {
        fill: #e8bedb;
      }

      .st61 {
        clip-path: url(#clippath-22);
      }

      .st46 {
        stroke-width: 2.9px;
      }

      .st46, .st62, .st63, .st64, .st48, .st49 {
        fill: none;
      }

      .st46, .st62, .st64 {
        stroke-miterlimit: 9.8;
      }

      .st46, .st62, .st64, .st49 {
        stroke: #3c3430;
      }

      .st3 {
        fill: #003c7f;
      }

      .st65 {
        clip-path: url(#clippath-23);
      }

      .st66 {
        fill: #f6abad;
      }

      .st4 {
        fill: #0062af;
      }

      .st62 {
        stroke-width: 2px;
      }

      .st67 {
        fill: #f7a25c;
      }

      .st5 {
        fill: #8000a3;
      }

      .st68 {
        fill: #fefe82;
      }

      .st6 {
        fill: #d41dd1;
      }

      .st7 {
        fill: #f862f1;
      }

      .st8 {
        fill: #9ce106;
      }

      .st69 {
        clip-path: url(#clippath-9);
      }

      .st70 {
        fill: #39322e;
      }

      .st71 {
        clip-path: url(#clippath-10);
      }

      .st72 {
        fill: #981595;
      }

      .st73 {
        fill: #af48a1;
      }

      .st10 {
        fill: #7c0000;
      }

      .st74 {
        fill: #fff;
      }

      .st11 {
        fill: #62af88;
      }

      .st75 {
        clip-path: url(#clippath-25);
      }

      .st76 {
        fill: #58c3ba;
      }

      .st12 {
        fill: #0070cc;
      }

      .st77 {
        fill: #498dd2;
      }

      .st78 {
        clip-path: url(#clippath-27);
      }

      .st13 {
        fill: #0082ef;
      }

      .st79 {
        fill: #4898da;
      }

      .st80 {
        fill: #c3e6d8;
      }

      .st81 {
        fill: #a3a5d7;
      }

      .st82 {
        fill: #ffe173;
      }

      .st83 {
        clip-path: url(#clippath-11);
      }

      .st14 {
        fill: #b46464;
      }

      .st15 {
        fill: #ffb4b4;
      }

      .st84 {
        fill: #ec2426;
      }

      .st85 {
        fill: #d3eca4;
      }

      .st16 {
        fill: #3e007f;
      }

      .st86 {
        fill: #640e0e;
      }

      .st17 {
        fill: #21bb0e;
      }

      .st87 {
        fill: #3f57b0;
      }

      .st88 {
        clip-path: url(#clippath-28);
      }

      .st89 {
        clip-path: url(#clippath-1);
      }

      .st90 {
        fill: #f3f3a1;
      }

      .st91 {
        fill: #c8e8f0;
      }

      .st92 {
        fill: #991e1f;
      }

      .st18 {
        fill: #f4880b;
      }

      .st93 {
        fill: #6655ad;
      }

      .st94 {
        clip-path: url(#clippath-5);
      }

      .st95 {
        clip-path: url(#clippath-20);
      }

      .st20 {
        fill: #87d3ab;
      }

      .st21 {
        fill: #af0f14;
      }

      .st96 {
        clip-path: url(#clippath-8);
      }

      .st97 {
        fill: #fcfc1e;
      }

      .st22 {
        fill: #f4d90b;
      }

      .st98 {
        fill: #0eb04e;
      }

      .st23 {
        fill: #bbffe2;
      }

      .st99 {
        fill: #f59826;
      }

      .st100 {
        fill: snow;
      }

      .st101 {
        fill: #0b7f3f;
      }

      .st102 {
        clip-path: url(#clippath-3);
      }

      .st103 {
        fill: #7ecb47;
      }

      .st24 {
        fill: #f627eb;
      }

      .st104 {
        clip-path: url(#clippath-26);
      }

      .st25 {
        fill: #f46d0b;
      }

      .st105 {
        clip-path: url(#clippath-12);
      }

      .st106 {
        fill: #f06626;
      }

      .st26 {
        fill: #00528f;
      }

      .st107 {
        clip-path: url(#clippath-14);
      }

      .st27 {
        fill: #640000;
      }

      .st108 {
        fill: #f49799;
      }

      .st109 {
        clip-path: url(#clippath-30);
      }

      .st110 {
        fill: #fdebeb;
      }

      .st111 {
        clip-path: url(#clippath-19);
      }

      .st28 {
        fill: #e83709;
      }

      .st112 {
        fill: #f9c1c2;
      }

      .st113 {
        fill: #db4c4d;
      }

      .st114 {
        fill: #37bd7c;
      }

      .st115 {
        clip-path: url(#clippath-32);
      }

      .st29 {
        fill: #ffdcdc;
      }

      .st30 {
        fill: #57007f;
      }

      .st116 {
        fill: #fdd58f;
      }

      .st117 {
        fill: #e67d9b;
      }

      .st31 {
        fill: #f3fb01;
      }

      .st32 {
        fill: #9feec8;
      }

      .st118 {
        fill: #6fc9dc;
      }

      .st33 {
        fill: #f0a0a0;
      }

      .st119 {
        clip-path: url(#clippath-16);
      }

      .st34 {
        fill: #00277a;
      }

      .st120 {
        fill: #b988c1;
      }

      .st121 {
        clip-path: url(#clippath-2);
      }

      .st122 {
        clip-path: url(#clippath-29);
      }

      .st35 {
        fill: #002066;
      }

      .st123 {
        fill: #975ead;
      }

      .st124 {
        fill: #cbe436;
      }

      .st125 {
        fill: #33bcf3;
      }

      .st49 {
        stroke-miterlimit: 10;
        stroke-width: 3px;
      }

      .st126 {
        clip-path: url(#clippath-13);
      }

      .st127 {
        fill: #cb2527;
      }

      .st36 {
        fill: #07a127;
      }

      .st128 {
        fill: #ef5a5c;
      }

      .st129 {
        fill: #fbd5d6;
      }

      .st37 {
        fill: #5bb4ff;
      }

      .st38 {
        fill: #cef003;
      }

      .st39 {
        fill: #85c8ff;
      }

      .st130 {
        clip-path: url(#clippath-24);
      }

      .st131 {
        fill: #c66aaf;
      }

      .st132 {
        clip-path: url(#clippath);
      }

      .st133 {
        fill: #3c3530;
      }

      .st134 {
        fill: #d7a2cd;
      }
    </style>
    <clipPath id="clippath">
      <path class="st63" d="M-69.3,642.8c-.3,3.7-6.4,8.1-11.7,8.1-5.2.4-12.3-3.6-12.3-8.1V58.7c1.1-5.3,7.4-8.5,11.5-8.5s11.2,3.1,12.4,8.7v583.9h0Z"/>
    </clipPath>
    <clipPath id="clippath-1">
      <path class="st63" d="M-81.3,585.9c-.3,3.3-5.5,7.3-10.1,7.3-4.5.4-10.6-3.2-10.6-7.3V59.9c1-4.8,6.3-7.6,10-7.6s9.7,2.9,10.8,7.8v525.8h-.1Z"/>
    </clipPath>
    <clipPath id="clippath-2">
      <path class="st63" d="M-81.3,585.9c-.3,3.3-5.5,7.3-10.1,7.3-4.5.4-10.6-3.2-10.6-7.3V59.9c1-4.8,6.3-7.6,10-7.6s9.7,2.9,10.8,7.8v525.8h-.1Z"/>
    </clipPath>
    <clipPath id="clippath-3">
      <path class="st63" d="M-81.3,585.9c-.3,3.3-5.5,7.3-10.1,7.3-4.5.4-10.6-3.2-10.6-7.3V59.9c1-4.8,6.3-7.6,10-7.6s9.7,2.9,10.8,7.8v525.8h-.1Z"/>
    </clipPath>
    <clipPath id="clippath-4">
      <path class="st63" d="M-81.3,585.9c-.3,3.3-5.5,7.3-10.1,7.3-4.5.4-10.6-3.2-10.6-7.3V59.9c1-4.8,6.3-7.6,10-7.6s9.7,2.9,10.8,7.8v525.8h-.1Z"/>
    </clipPath>
    <clipPath id="clippath-5">
      <path class="st63" d="M-81.3,585.9c-.3,3.3-5.5,7.3-10.1,7.3-4.5.4-10.6-3.2-10.6-7.3V59.9c1-4.8,6.3-7.6,10-7.6s9.7,2.9,10.8,7.8v525.8h-.1Z"/>
    </clipPath>
    <clipPath id="clippath-6">
      <path class="st63" d="M-81.3,585.9c-.3,3.3-5.5,7.3-10.1,7.3-4.5.4-10.6-3.2-10.6-7.3V59.9c1-4.8,6.3-7.6,10-7.6s9.7,2.9,10.8,7.8v525.8h-.1Z"/>
    </clipPath>
    <clipPath id="clippath-7">
      <path class="st63" d="M-81.3,585.9c0,3.6-5.8,7.9-10.4,7.9h-.6c-4.2,0-9.7-3.8-9.7-7.9V59.9c1-4.8,6.3-7.6,10-7.6s9.7,2.9,10.7,7.8v525.8h0Z"/>
    </clipPath>
    <clipPath id="clippath-8">
      <path class="st63" d="M-81.3,585.9c0,3.6-5.8,7.9-10.4,7.9h-.6c-4.2,0-9.7-3.8-9.7-7.9V59.9c1-4.8,6.3-7.6,10-7.6s9.7,2.9,10.7,7.8v525.8h0Z"/>
    </clipPath>
    <clipPath id="clippath-9">
      <path class="st63" d="M-81.3,585.9c0,3.6-5.8,7.9-10.4,7.9h-.6c-4.2,0-9.7-3.8-9.7-7.9V59.9c1-4.8,6.3-7.6,10-7.6s9.7,2.9,10.7,7.8v525.8h0Z"/>
    </clipPath>
    <clipPath id="clippath-10">
      <path class="st63" d="M-81.3,585.9c0,3.6-5.8,7.9-10.4,7.9h-.6c-4.2,0-9.7-3.8-9.7-7.9V59.9c1-4.8,6.3-7.6,10-7.6s9.7,2.9,10.7,7.8v525.8h0Z"/>
    </clipPath>
    <clipPath id="clippath-11">
      <path class="st63" d="M-81.3,585.9c0,3.6-5.8,7.9-10.4,7.9h-.6c-4.2,0-9.7-3.8-9.7-7.9V59.9c1-4.8,6.3-7.6,10-7.6s9.7,2.9,10.7,7.8v525.8h0Z"/>
    </clipPath>
    <clipPath id="clippath-12">
      <path class="st63" d="M-81.3,585.9c0,3.6-5.8,7.9-10.4,7.9h-.6c-4.2,0-9.7-3.8-9.7-7.9V59.9c1-4.8,6.3-7.6,10-7.6s9.7,2.9,10.7,7.8v525.8h0Z"/>
    </clipPath>
    <clipPath id="clippath-13">
      <path class="st63" d="M-81.3,585.9c0,3.6-5.8,7.9-10.4,7.9h-.6c-4.2,0-9.7-3.8-9.7-7.9V59.9c1-4.8,6.3-7.6,10-7.6s9.7,2.9,10.7,7.8v525.8h0Z"/>
    </clipPath>
    <clipPath id="clippath-14">
      <path class="st63" d="M-81.3,585.9c0,3.6-5.8,7.9-10.4,7.9h-.6c-4.2,0-9.7-3.8-9.7-7.9V59.9c1-4.8,6.3-7.6,10-7.6s9.7,2.9,10.7,7.8v525.8h0Z"/>
    </clipPath>
    <clipPath id="clippath-15">
      <path class="st63" d="M-81.3,585.9c0,3.6-5.8,7.9-10.4,7.9h-.6c-4.2,0-9.7-3.8-9.7-7.9V59.9c1-4.8,6.3-7.6,10-7.6s9.7,2.9,10.7,7.8v525.8h0Z"/>
    </clipPath>
    <clipPath id="clippath-16">
      <path class="st63" d="M-81.3,585.9c0,3.6-5.8,7.9-10.4,7.9h-.6c-4.2,0-9.7-3.8-9.7-7.9V59.9c1-4.8,6.3-7.6,10-7.6s9.7,2.9,10.7,7.8v525.8h0Z"/>
    </clipPath>
    <clipPath id="clippath-17">
      <path class="st63" d="M-81.3,585.9c0,3.6-5.8,7.9-10.4,7.9h-.6c-4.2,0-9.7-3.8-9.7-7.9V59.9c1-4.8,6.3-7.6,10-7.6s9.7,2.9,10.7,7.8v525.8h0Z"/>
    </clipPath>
    <clipPath id="clippath-18">
      <path class="st63" d="M-81.3,585.9c0,3.6-5.8,7.9-10.4,7.9h-.6c-4.2,0-9.7-3.8-9.7-7.9V59.9c1-4.8,6.3-7.6,10-7.6s9.7,2.9,10.7,7.8v525.8h0Z"/>
    </clipPath>
    <clipPath id="clippath-19">
      <path class="st63" d="M-81.3,585.9c0,3.6-5.8,7.9-10.4,7.9h-.6c-4.2,0-9.7-3.8-9.7-7.9V59.9c1-4.8,6.3-7.6,10-7.6s9.7,2.9,10.7,7.8v525.8h0Z"/>
    </clipPath>
    <clipPath id="clippath-20">
      <path class="st63" d="M-81.3,585.9c0,3.6-5.8,7.9-10.4,7.9h-.6c-4.2,0-9.7-3.8-9.7-7.9V59.9c1-4.8,6.3-7.6,10-7.6s9.7,2.9,10.7,7.8v525.8h0Z"/>
    </clipPath>
    <clipPath id="clippath-21">
      <path class="st63" d="M-81.3,585.9c0,3.6-5.8,7.9-10.4,7.9h-.6c-4.2,0-9.7-3.8-9.7-7.9V59.9c1-4.8,6.3-7.6,10-7.6s9.7,2.9,10.7,7.8v525.8h0Z"/>
    </clipPath>
    <clipPath id="clippath-22">
      <path class="st63" d="M-81.3,585.9c0,3.6-5.8,7.9-10.4,7.9h-.6c-4.2,0-9.7-3.8-9.7-7.9V59.9c1-4.8,6.3-7.6,10-7.6s9.7,2.9,10.7,7.8v525.8h0Z"/>
    </clipPath>
    <clipPath id="clippath-23">
      <path class="st63" d="M-81.3,585.9c0,3.6-5.8,7.9-10.4,7.9h-.6c-4.2,0-9.7-3.8-9.7-7.9V59.9c1-4.8,6.3-7.6,10-7.6s9.7,2.9,10.7,7.8v525.8h0Z"/>
    </clipPath>
    <clipPath id="clippath-24">
      <path class="st63" d="M-81.3,585.9c0,3.6-5.8,7.9-10.4,7.9h-.6c-4.2,0-9.7-3.8-9.7-7.9V59.9c1-4.8,6.3-7.6,10-7.6s9.7,2.9,10.7,7.8v525.8h0Z"/>
    </clipPath>
    <clipPath id="clippath-25">
      <path class="st63" d="M-81.3,585.9c0,3.6-5.8,7.9-10.4,7.9h-.6c-4.2,0-9.7-3.8-9.7-7.9V59.9c1-4.8,6.3-7.6,10-7.6s9.7,2.9,10.7,7.8v525.8h0Z"/>
    </clipPath>
    <clipPath id="clippath-26">
      <path class="st63" d="M-81.3,585.9c0,3.6-5.8,7.9-10.4,7.9h-.6c-4.2,0-9.7-3.8-9.7-7.9V59.9c1-4.8,6.3-7.6,10-7.6s9.7,2.9,10.7,7.8v525.8h0Z"/>
    </clipPath>
    <clipPath id="clippath-27">
      <path class="st63" d="M-81.5,586.1c-.3,3.3-5.5,7.3-10.1,7.3-4.5.4-10.6-3.2-10.6-7.3V60.1c1-4.8,6.3-7.6,10-7.6s9.7,2.9,10.8,7.8v525.8h-.1Z"/>
    </clipPath>
    <clipPath id="clippath-28">
      <path class="st63" d="M-81.5,586.1c-.3,3.3-5.5,7.3-10.1,7.3-4.5.4-10.6-3.2-10.6-7.3V60.1c1-4.8,6.3-7.6,10-7.6s9.7,2.9,10.8,7.8v525.8h-.1Z"/>
    </clipPath>
    <clipPath id="clippath-29">
      <path class="st63" d="M-81.5,586.1c-.3,3.3-5.5,7.3-10.1,7.3-4.5.4-10.6-3.2-10.6-7.3V60.1c1-4.8,6.3-7.6,10-7.6s9.7,2.9,10.8,7.8v525.8h-.1Z"/>
    </clipPath>
    <clipPath id="clippath-30">
      <path class="st63" d="M-81.5,586.1c-.3,3.3-5.5,7.3-10.1,7.3-4.5.4-10.6-3.2-10.6-7.3V60.1c1-4.8,6.3-7.6,10-7.6s9.7,2.9,10.8,7.8v525.8h-.1Z"/>
    </clipPath>
    <clipPath id="clippath-31">
      <path class="st63" d="M-81.5,586.1c-.3,3.3-5.5,7.3-10.1,7.3-4.5.4-10.6-3.2-10.6-7.3V60.1c1-4.8,6.3-7.6,10-7.6s9.7,2.9,10.8,7.8v525.8h-.1Z"/>
    </clipPath>
    <clipPath id="clippath-32">
      <path class="st63" d="M-81.5,586.1c-.3,3.3-5.5,7.3-10.1,7.3-4.5.4-10.6-3.2-10.6-7.3V60.1c1-4.8,6.3-7.6,10-7.6s9.7,2.9,10.8,7.8v525.8h-.1Z"/>
    </clipPath>
    <clipPath id="clippath-33">
      <path class="st63" d="M40.2,721c-.4,4.2-10.5,2.4-18.3,2.4-7.6.4-18.3,1-18.3-4V49c1.5-6,12.4-8,18.4-8s16.8,5.8,18.2,5.7v674.3Z"/>
    </clipPath>
  </defs>
  <g class="st47">
    <g class="st132">
      <g>
        <rect class="st99" x="-101" y="51.6" width="47.9" height="15"/>
        <rect class="st58" x="-105.5" y="65.9" width="47.4" height="14.2"/>
        <rect class="st93" x="-105.5" y="80.1" width="47.4" height="14.2"/>
        <rect class="st123" x="-105.5" y="94.4" width="47.4" height="14.2"/>
        <rect class="st131" x="-105.5" y="108.7" width="47.4" height="14.2"/>
        <rect class="st73" x="-105.5" y="122.9" width="47.4" height="14.2"/>
        <rect class="st72" x="-105.5" y="137.1" width="47.4" height="14.2"/>
        <rect class="st41" x="-105.5" y="151.3" width="47.4" height="14.2"/>
        <rect class="st86" x="-105.5" y="165.5" width="47.4" height="14.2"/>
        <rect class="st92" x="-105.5" y="179.7" width="47.4" height="14.2"/>
        <rect class="st127" x="-105.5" y="194" width="47.4" height="14.2"/>
        <rect class="st84" x="-105.5" y="208.2" width="47.4" height="14.2"/>
        <rect class="st106" x="-105.5" y="222.4" width="47.4" height="14.2"/>
        <rect class="st99" x="-105.5" y="236.6" width="47.4" height="14.2"/>
        <rect class="st58" x="-105.5" y="250.8" width="47.4" height="14.2"/>
        <rect class="st97" x="-105.5" y="265" width="47.4" height="14.2"/>
        <rect class="st124" x="-105.5" y="279.3" width="47.4" height="14.2"/>
        <rect class="st103" x="-105.5" y="293.5" width="47.4" height="14.2"/>
        <rect class="st98" x="-105.5" y="307.7" width="47.4" height="14.2"/>
        <rect class="st114" x="-105.5" y="322" width="47.4" height="14.2"/>
        <rect class="st76" x="-105.5" y="336.2" width="47.4" height="14.2"/>
        <rect class="st118" x="-105.5" y="350.4" width="47.4" height="14.2"/>
        <rect class="st125" x="-105.5" y="364.7" width="47.4" height="14.2"/>
        <rect class="st77" x="-105.5" y="378.9" width="47.4" height="14.2"/>
        <rect class="st59" x="-105.5" y="393.1" width="47.4" height="14.2"/>
        <rect class="st87" x="-105.5" y="407.3" width="47.4" height="14.2"/>
        <rect class="st93" x="-105.5" y="421.5" width="47.4" height="14.2"/>
        <rect class="st123" x="-105.5" y="435.7" width="47.4" height="14.2"/>
        <rect class="st131" x="-105.5" y="450" width="47.4" height="14.2"/>
        <rect class="st73" x="-105.5" y="464.2" width="47.4" height="14.2"/>
        <rect class="st72" x="-105.5" y="478.4" width="47.4" height="14.2"/>
        <rect class="st41" x="-105.5" y="492.6" width="47.4" height="14.2"/>
        <rect class="st86" x="-105.5" y="506.8" width="47.4" height="14.2"/>
        <rect class="st92" x="-105.5" y="521" width="47.4" height="14.2"/>
        <rect class="st127" x="-105.5" y="535.3" width="47.4" height="14.2"/>
        <rect class="st84" x="-105.5" y="549.6" width="47.4" height="14.2"/>
        <rect class="st106" x="-105.5" y="563.8" width="47.4" height="14.2"/>
        <rect class="st99" x="-105.5" y="578" width="47.4" height="14.2"/>
        <rect class="st58" x="-105.5" y="592.2" width="47.4" height="60.2"/>
      </g>
    </g>
  </g>
  <path class="st49" d="M-69.3,642.7c-.3,3.7-6.4,8.1-11.7,8.1h0c-5.2.4-12.3-3.6-12.3-8.1V58.6c1.1-5.3,7.4-8.5,11.5-8.5h0c4.9,0,11.2,3.1,12.4,8.7v583.9h0Z"/>
  <g class="st47">
    <g>
      <g class="st89">
        <rect class="st100" x="-107.1" y="502.4" width="30.9" height="96.8"/>
      </g>
      <g class="st121">
        <rect class="st129" x="-106.8" y="326.4" width="30.9" height="88"/>
      </g>
      <g class="st102">
        <rect class="st112" x="-106.8" y="238.4" width="30.9" height="88"/>
      </g>
      <g class="st57">
        <rect class="st110" x="-107.1" y="414.4" width="30.9" height="88"/>
      </g>
      <g class="st94">
        <rect class="st66" x="-106.8" y="150.4" width="30.9" height="88"/>
      </g>
      <g class="st42">
        <rect class="st108" x="-107.1" y="53.6" width="30.9" height="96.8"/>
      </g>
    </g>
  </g>
  <g class="st47">
    <g class="st43">
      <rect class="st91" x="-112.8" y="52.3" width="42.3" height="26.6"/>
    </g>
    <g class="st96">
      <rect class="st52" x="-112.8" y="78.9" width="42.3" height="26.6"/>
    </g>
    <g class="st69">
      <rect class="st79" x="-112.8" y="105" width="42.3" height="26.6"/>
    </g>
    <g class="st71">
      <rect class="st81" x="-112.8" y="131.6" width="42.3" height="26.6"/>
    </g>
    <g class="st83">
      <rect class="st120" x="-112.8" y="158.2" width="42.3" height="26.6"/>
    </g>
    <g class="st105">
      <rect class="st134" x="-112.8" y="184.9" width="42.3" height="26.6"/>
    </g>
    <g class="st126">
      <rect class="st60" x="-112.8" y="211.1" width="42.3" height="26.6"/>
    </g>
    <g class="st107">
      <rect class="st117" x="-112.8" y="237.8" width="42.3" height="26.6"/>
    </g>
    <g class="st54">
      <rect class="st113" x="-112.8" y="264.4" width="42.3" height="26.6"/>
    </g>
    <g class="st119">
      <rect class="st128" x="-112.8" y="291" width="42.3" height="26.6"/>
    </g>
    <g class="st44">
      <rect class="st67" x="-112.8" y="317.3" width="42.3" height="26.6"/>
    </g>
    <g class="st56">
      <rect class="st116" x="-112.8" y="343.9" width="42.3" height="26.6"/>
    </g>
    <g class="st111">
      <rect class="st82" x="-112.8" y="370.5" width="42.3" height="26.6"/>
    </g>
    <g class="st95">
      <rect class="st68" x="-112.8" y="397.1" width="42.3" height="26.6"/>
    </g>
    <g class="st40">
      <rect class="st53" x="-112.8" y="423.4" width="42.3" height="26.6"/>
    </g>
    <g class="st61">
      <rect class="st90" x="-112.8" y="450" width="42.3" height="26.6"/>
    </g>
    <g class="st65">
      <rect class="st85" x="-112.8" y="476.7" width="42.3" height="26.6"/>
    </g>
    <g class="st130">
      <rect class="st80" x="-112.8" y="503.3" width="42.3" height="26.6"/>
    </g>
    <g class="st75">
      <rect class="st91" x="-112.8" y="529.9" width="42.3" height="26.6"/>
    </g>
    <g class="st104">
      <rect class="st52" x="-112.8" y="556.5" width="42.3" height="40.2"/>
    </g>
  </g>
  <g class="st47">
    <g>
      <g class="st78">
        <rect class="st84" x="-107.3" y="501.2" width="30.9" height="96.8"/>
      </g>
      <g class="st88">
        <rect class="st97" x="-107" y="325.2" width="30.9" height="88"/>
      </g>
      <g class="st122">
        <rect class="st101" x="-107" y="237.2" width="30.9" height="88"/>
      </g>
      <g class="st109">
        <rect class="st51" x="-107.3" y="413.2" width="30.9" height="88"/>
      </g>
      <g class="st50">
        <rect class="st118" x="-107" y="149.2" width="30.9" height="88"/>
      </g>
      <g class="st115">
        <rect class="st87" x="-107" y="52.4" width="30.9" height="96.8"/>
      </g>
    </g>
  </g>
  <circle class="st45" cx="-91.9" cy="33.8" r="14.6"/>
  <path class="st46" d="M-81.5,586.1c-.3,3.3-5.5,7.3-10.1,7.3h0c-4.5.4-10.6-3.2-10.6-7.3V60.1c1-4.8,6.3-7.6,10-7.6h0c4.2,0,9.7,2.9,10.8,7.8v525.8h-.1Z"/>
  <g class="st47">
    <path class="st133" d="M-96.5,584.6c-.4-.5-.6-1-.6-1.8s.2-1.3.6-1.8.9-.7,1.5-.7,1.1.2,1.5.7c.4.4.6,1,.6,1.8s-.2,1.3-.6,1.8c-.4.4-.9.7-1.5.7s-1.1-.2-1.5-.7ZM-94.2,584c.2-.3.3-.7.3-1.1s0-.9-.3-1.1c-.2-.3-.5-.4-.8-.4s-.6,0-.8.4c-.2.3-.3.7-.3,1.1s0,.9.3,1.1c.2.3.5.4.8.4s.6,0,.8-.4ZM-89.7,580.5h1.2l-6.1,8.9h-1.1l6-8.9ZM-90.7,588.8c-.4-.5-.6-1-.6-1.8s.2-1.3.6-1.8c.4-.4.9-.7,1.5-.7s1.1.2,1.5.7c.4.4.6,1,.6,1.8s-.2,1.3-.6,1.8c-.4.4-.9.7-1.5.7s-1.1-.2-1.5-.7ZM-88.4,588.2c.2-.3.3-.7.3-1.1s0-.9-.3-1.1c-.2-.3-.5-.4-.8-.4s-.6,0-.8.4c-.2.3-.3.7-.3,1.1s0,.9.3,1.1c.2.3.5.4.8.4s.6,0,.8-.4Z"/>
  </g>
  <g class="st47">
    <path class="st133" d="M-93,540.4c.4.3.6.7.6,1.2s0,.6-.2.9c-.2.3-.4.5-.7.6-.3.2-.7.2-1.2.2s-.8,0-1.1-.2c-.4,0-.7-.3-.9-.5l.4-.8c.2.2.4.3.7.4h.9c.3,0,.6,0,.8-.2.2,0,.3-.4.3-.6,0-.3,0-.5-.3-.6-.2,0-.6-.2-1.1-.2h-1.5l.3-3h3.2v.9h-2.4v1.3h.4c.8,0,1.4.2,1.8.5h0Z"/>
    <path class="st133" d="M-90.8,543c-.3-.2-.6-.5-.8-1-.2-.4-.3-.9-.3-1.5s0-1.1.3-1.5c.2-.4.5-.8.8-1s.7-.3,1.2-.3.8,0,1.2.3c.3.2.6.5.8,1,.2.4.3.9.3,1.5s0,1.1-.3,1.5c-.2.4-.5.7-.8,1-.3.2-.7.3-1.2.3s-.8,0-1.2-.3ZM-88.7,542c.2-.3.3-.8.3-1.4s0-1.1-.3-1.4c-.2-.3-.5-.5-.9-.5s-.7.2-.9.5-.3.8-.3,1.4,0,1.1.3,1.4.5.5.9.5.7-.2.9-.5Z"/>
  </g>
  <g class="st47">
    <path class="st133" d="M-93.1,459c.3.1.5.3.7.6.2.3.2.6.2.9s0,.7-.3.9c-.2.3-.4.5-.7.6-.3.1-.6.2-1,.2-.8,0-1.3-.2-1.7-.7s-.6-1.1-.6-2,0-1.1.3-1.6c.2-.4.5-.8.9-1s.9-.3,1.4-.3.5,0,.8.1c.2.1.5.1.6.3l-.4.8c-.3-.2-.6-.3-1-.3s-.9.2-1.2.5c-.3.3-.4.8-.4,1.4h0c.2-.2.4-.3.6-.4.3-.1.5-.1.8-.1.4-.1.7,0,1,.1ZM-93.5,461.2c.2-.2.3-.4.3-.7s0-.5-.3-.7c-.2-.2-.5-.3-.8-.3s-.6.1-.8.3c-.2.2-.3.4-.3.7s0,.5.3.7c.2.2.5.3.8.3s.6-.1.8-.3Z"/>
    <path class="st133" d="M-90.5,462c-.3-.2-.6-.5-.8-1-.2-.4-.3-.9-.3-1.5s0-1.1.3-1.5c.2-.4.5-.8.8-1s.7-.3,1.2-.3.8.1,1.2.3c.3.2.6.5.8,1,.2.4.3.9.3,1.5s0,1.1-.3,1.5c-.2.4-.5.7-.8,1-.3.2-.7.3-1.2.3s-.9,0-1.2-.3ZM-88.4,460.9c.2-.3.3-.8.3-1.4s0-1.1-.3-1.4-.5-.5-.9-.5-.7.2-.9.5c-.2.3-.3.8-.3,1.4s0,1.1.3,1.4c.2.3.5.5.9.5s.6-.2.9-.5Z"/>
  </g>
  <g class="st47">
    <path class="st133" d="M-92.1,368v.7l-2.1,4.8h-1.2l2.1-4.6h-2.2v.9h-.9v-1.8s4.3,0,4.3,0Z"/>
    <path class="st133" d="M-90.6,373.2c-.3-.2-.6-.5-.8-1-.2-.4-.3-.9-.3-1.5s0-1.1.3-1.5.5-.7.8-1c.3-.2.7-.3,1.2-.3s.8.1,1.2.3c.3.2.6.5.8,1,.2.4.3.9.3,1.5s0,1.1-.3,1.5-.5.7-.8,1c-.3.2-.7.3-1.2.3-.4.1-.8-.1-1.2-.3ZM-88.5,372.2c.2-.3.3-.8.3-1.4s0-1.1-.3-1.4c-.2-.3-.5-.5-.9-.5s-.7.2-.9.5c-.2.3-.3.8-.3,1.4s0,1.1.3,1.4c.2.3.5.5.9.5s.7-.2.9-.5Z"/>
  </g>
  <g class="st47">
    <path class="st133" d="M-92.3,274.4c.2.2.2.5.2.8s0,.6-.3.9-.4.4-.8.6-.7.2-1.2.2-.8-.1-1.2-.2c-.3-.1-.6-.3-.8-.6-.2-.3-.3-.5-.3-.9s0-.6.2-.8c.2-.2.4-.4.6-.5-.2-.1-.4-.3-.5-.5s-.2-.4-.2-.7,0-.6.3-.8c.2-.2.4-.4.7-.5.3-.1.7-.2,1.1-.2s.8.1,1.1.2c.3.1.5.3.7.5s.3.5.3.8,0,.5-.2.7-.3.4-.5.5c.4.1.6.2.8.5ZM-93.4,275.8c.2-.2.3-.4.3-.6,0-.3,0-.5-.3-.6-.2-.2-.5-.2-.9-.2s-.7.1-.9.2c-.2.2-.3.4-.3.6,0,.3,0,.5.3.6.2.2.5.2.9.2s.6-.1.9-.2ZM-95.1,272.2c-.2.1-.3.3-.3.6s0,.4.3.6c.2.1.4.2.8.2s.6-.1.8-.2c.2-.1.3-.3.3-.6s0-.4-.3-.6c-.2-.1-.4-.2-.8-.2s-.6,0-.8.2Z"/>
    <path class="st133" d="M-90.3,276.5c-.3-.2-.6-.5-.8-1-.2-.4-.3-.9-.3-1.5s0-1.1.3-1.5c.2-.4.5-.7.8-1,.3-.2.7-.3,1.2-.3s.8.1,1.2.3c.3.2.6.5.8,1,.2.5.3.9.3,1.5s0,1.1-.3,1.5c-.2.4-.5.7-.8,1s-.7.3-1.2.3-.9,0-1.2-.3ZM-88.2,275.4c.2-.3.3-.8.3-1.4s0-1.1-.3-1.4c-.2-.3-.5-.5-.9-.5s-.7.2-.9.5-.3.8-.3,1.4,0,1.1.3,1.4.5.5.9.5.7-.1.9-.5Z"/>
  </g>
  <g class="st47">
    <path class="st133" d="M-92.8,191.5c.4.5.6,1.1.6,2s0,1.1-.3,1.6c-.2.4-.5.8-.9,1s-.9.3-1.4.3-.5,0-.8-.1c-.2-.1-.5-.1-.6-.3l.4-.8c.3.2.6.3,1,.3s.9-.2,1.2-.5c.3-.3.4-.8.4-1.4h0c-.2.2-.4.3-.6.4-.3.1-.5.1-.8.1s-.7-.1-1-.2c-.3-.1-.5-.3-.7-.6s-.2-.6-.2-.9,0-.7.3-.9c.2-.3.4-.5.7-.6.3-.1.6-.2,1-.2.7,0,1.3.3,1.7.8h0ZM-93.7,193.1c.2-.2.3-.4.3-.7s0-.5-.3-.7c-.2-.2-.5-.3-.8-.3s-.6.1-.8.3c-.2.2-.3.4-.3.7s0,.5.3.7c.2.2.5.3.8.3s.6-.1.8-.3Z"/>
    <path class="st133" d="M-90.4,196c-.3-.2-.6-.5-.8-1-.2-.4-.3-.9-.3-1.5s0-1.1.3-1.5c.2-.4.5-.7.8-1,.3-.2.7-.3,1.2-.3s.8.1,1.2.3c.3.2.6.5.8,1,.2.4.3.9.3,1.5s0,1.1-.3,1.5c-.2.4-.5.7-.8,1-.3.2-.7.3-1.2.3s-.9,0-1.2-.3ZM-88.3,195c.2-.3.3-.8.3-1.4s0-1.1-.3-1.4c-.2-.3-.5-.5-.9-.5s-.7.2-.9.5c-.2.3-.3.8-.3,1.4s0,1.1.3,1.4c.2.3.5.5.9.5s.7-.2.9-.5Z"/>
  </g>
  <g class="st47">
    <path class="st133" d="M-96.2,93.8v5.5h-1v-4.6h-1.2v-.9h2.2Z"/>
    <path class="st133" d="M-94,99c-.3-.2-.6-.5-.8-1-.2-.4-.3-.9-.3-1.5s0-1.1.3-1.5c.2-.4.5-.7.8-1,.3-.2.7-.3,1.2-.3s.8,0,1.2.3c.3.2.6.5.8,1,.2.4.3.9.3,1.5s0,1.1-.3,1.5c-.2.4-.5.7-.8,1-.3.2-.7.3-1.2.3s-.9,0-1.2-.3ZM-91.9,98c.2-.3.3-.8.3-1.4s0-1.1-.3-1.4-.5-.5-.9-.5-.7.2-.9.5c-.2.3-.3.8-.3,1.4s0,1.1.3,1.4c.2.3.5.5.9.5s.7-.2.9-.5Z"/>
    <path class="st133" d="M-88.7,99c-.3-.2-.6-.5-.8-1-.2-.4-.3-.9-.3-1.5s0-1.1.3-1.5c.2-.4.5-.7.8-1,.3-.2.7-.3,1.2-.3s.8,0,1.2.3.6.5.8,1c.2.5.2,1,.2,1.5s0,1.1-.3,1.5c-.2.4-.5.7-.8,1-.3.2-.7.3-1.2.3s-.8,0-1.1-.3ZM-86.6,98c.2-.3.3-.8.3-1.4s0-1.1-.3-1.4c-.2-.3-.5-.5-.9-.5s-.7.2-.9.5c-.2.3-.3.8-.3,1.4s0,1.1.3,1.4c.2.3.5.5.9.5s.6-.2.9-.5Z"/>
  </g>
  <g class="st47">
    <path class="st74" d="M-98.2,40.5h12.4c2.6,0,4.8-1.8,5.3-4.2.3-1.6,0-3.2-1.1-4.4-.9-1-2.1-1.7-3.4-1.9v-1.2c0-4.2-3.8-7.5-7.9-7-3.5.4-6.2,3.5-6.2,7.3v.9c-1.1.1-2.2.7-3,1.5-1.2,1.2-1.7,2.9-1.5,4.6.5,2.4,2.9,4.4,5.4,4.4ZM-101.1,32.5c.7-.7,1.7-1.1,2.7-1.1s.7-.3.7-.7v-1.6c0-3.1,2.5-5.9,5.7-5.9s5.7,2.6,5.7,5.7v1.8c0,.4.3.7.7.7,1.2,0,2.3.5,3,1.4s1,2.1.8,3.3c-.4,1.8-2,3.1-4,3.1h-12.4c-1.8,0-3.7-1.5-4-3.2-.2-1.4.2-2.6,1.1-3.5h0Z"/>
  </g>
  <rect class="st48" x="-96.7" y="40.5" width="9.5" height="5.3"/>
  <g class="st9">
    <path class="st74" d="M-92.8,40.7h.7v3.3h2v.6h-2.7s0-3.9,0-3.9Z"/>
  </g>
  <g class="st55">
    <g>
      <rect class="st16" x="-24" y="691.6" width="71" height="47.4"/>
      <rect class="st29" x="-25.5" y="44.5" width="74.3" height="17.3"/>
      <rect class="st15" x="-24" y="61.8" width="73.5" height="17.1"/>
      <rect class="st33" x="-24" y="78.9" width="73.5" height="17.1"/>
      <rect class="st14" x="-24" y="95.9" width="73.5" height="17.1"/>
      <rect class="st27" x="-24" y="113" width="73.5" height="17.1"/>
      <rect class="st10" x="-24" y="129.9" width="73.5" height="17.1"/>
      <rect class="st21" x="-24" y="147" width="73.5" height="17.1"/>
      <rect class="st28" x="-24" y="164" width="73.5" height="17.1"/>
      <rect class="st25" x="-24" y="181.1" width="73.5" height="17.1"/>
      <rect class="st18" x="-24" y="198.1" width="73.5" height="17.1"/>
      <rect class="st0" x="-24" y="215.1" width="73.5" height="17.1"/>
      <rect class="st22" x="-24" y="232.1" width="73.5" height="17.1"/>
      <rect class="st31" x="-24" y="249.2" width="73.5" height="17.1"/>
      <rect class="st38" x="-24" y="266.2" width="73.5" height="17.1"/>
      <rect class="st8" x="-24" y="283.2" width="73.5" height="17.1"/>
      <rect class="st1" x="-24" y="300.2" width="73.5" height="17.1"/>
      <rect class="st17" x="-24" y="317.3" width="73.5" height="17.1"/>
      <rect class="st36" x="-24" y="334.3" width="73.5" height="17.1"/>
      <rect class="st36" x="-24" y="351.3" width="73.5" height="17.1"/>
      <rect class="st11" x="-24" y="368.3" width="73.5" height="17.1"/>
      <rect class="st20" x="-24" y="385.5" width="73.5" height="17.1"/>
      <rect class="st32" x="-24" y="402.4" width="73.5" height="17.1"/>
      <rect class="st23" x="-24" y="419.5" width="73.5" height="17.1"/>
      <rect class="st39" x="-24" y="436.4" width="73.5" height="17.1"/>
      <rect class="st37" x="-24" y="453.4" width="73.5" height="17.2"/>
      <rect class="st13" x="-24" y="470.5" width="73.5" height="17.1"/>
      <rect class="st12" x="-24" y="487.5" width="73.5" height="17.1"/>
      <rect class="st4" x="-24" y="504.5" width="73.5" height="17.1"/>
      <rect class="st26" x="-24" y="521.5" width="73.5" height="17.1"/>
      <rect class="st3" x="-24" y="538.5" width="73.5" height="17.1"/>
      <rect class="st34" x="-24" y="555.5" width="73.5" height="17.1"/>
      <rect class="st35" x="-24" y="572.5" width="73.5" height="17.1"/>
      <rect class="st7" x="-24" y="589.5" width="73.5" height="17.1"/>
      <rect class="st24" x="-24" y="606.6" width="73.5" height="17.1"/>
      <rect class="st6" x="-24" y="623.6" width="73.5" height="17.1"/>
      <rect class="st2" x="-24" y="640.7" width="73.5" height="17.1"/>
      <rect class="st5" x="-24" y="657.6" width="73.5" height="17.1"/>
      <rect class="st30" x="-24" y="674.7" width="73.5" height="17.1"/>
    </g>
  </g>
  <circle class="st70" cx="22.1" cy="22.1" r="19.8"/>
  <g id="Layer_1">
    <path class="st74" d="M22.1,5.9c-3.6,0-6.6,2.8-6.6,6.3v9.3c-2.5,2.1-3.8,5.2-3.4,8.4.6,4.4,4.3,7.8,8.8,8.3,5.8.5,11.1-3.8,11.1-9.4s-1.2-5.3-3.4-7.1v-9.2c.1-3.7-2.9-6.6-6.5-6.6ZM30.2,28.6c0,4.7-4.4,8.3-9.2,7.9-3.6-.4-6.7-3.2-7.1-6.9-.3-2.8.8-5.4,3.1-7.1.1-.1.3-.4.3-.6v-9.6c0-2.6,2.2-4.7,4.8-4.7s4.8,2.1,4.8,4.7v9.6c0,.3.1.4.3.6,2,1.4,3,3.6,3,6.1Z"/>
    <path class="st74" d="M25.2,24.4v-9.9c0-1.7-1.4-3-3.1-3s-3.1,1.4-3.1,3v10c-1.8,1.3-2.6,3.4-2.1,5.4.9,3.5,5.6,5,8.7,2.8,1.3-1,2.1-2.6,2.1-4-.2-1.8-1.1-3.4-2.5-4.3ZM24.4,31.3c-2.1,1.6-5.3.5-5.8-1.8-.4-1.6.3-3.1,1.8-3.9.3-.1.4-.4.4-.6v-10.4c0-.6.6-1.4,1.4-1.4s1.4.5,1.4,1.4v10.4c0,.3.1.5.4.6,1.2.6,1.9,1.8,1.9,3.1-.2.9-.6,1.8-1.5,2.6Z"/>
  </g>
  <rect class="st63" x="9" y="676.7" width="15.4" height="12.9"/>
  <g class="st19">
    <path class="st74" d="M28.5,720.7c-.9.2-1.7.3-2.5.3s-1.3,0-1.8-.3c-.4-.2-.8-.5-1-1-.3-.4-.4-1-.5-1.5s-.1-1.3-.1-2.2c0-1.9.2-3.2.7-3.9.5-.8,1.4-1.1,2.7-1.1s1.6,0,2.6.4v1.5c-1,0-1.7-.2-2.2-.2s-1,0-1.2.2-.4.4-.5,1c-.1.4-.2,1.2-.2,2.4s.1,1.9.4,2.3c.3.4.7.7,1.4.7s1.5,0,2.3-.2v1.6h0Z"/>
    <path class="st74" d="M19.1,714.7c-.4-.4-.5-.9-.5-1.5s.2-1.2.5-1.5c.4-.4.8-.5,1.4-.5s1.1.2,1.4.5c.4.4.5.9.5,1.5s-.2,1.1-.5,1.5c-.4.4-.8.5-1.4.5s-1,0-1.4-.5ZM19.8,712.4c-.2.2-.3.4-.3.8s.1.5.3.8c.2.2.4.3.7.3s.5,0,.7-.3.3-.4.3-.8-.1-.5-.3-.8-.4-.3-.7-.3-.5,0-.7.3Z"/>
  </g>
  <g>
    <path class="st74" d="M12.5,675.8v-1.6h3.6v1.6h-3.6Z"/>
    <path class="st74" d="M22.6,678.6h-5.1v-1.6l1.7-1.9c.6-.7,1-1.2,1.3-1.5.2-.3.4-.8.4-1.1s-.1-.7-.3-.9c-.2-.2-.5-.2-.8-.2h-2.1v-1.4c.7-.2,1.5-.4,2.3-.4,1.7,0,2.5.9,2.5,2.5s-.1,1.2-.4,1.6-.7,1.1-1.4,1.7l-1.4,1.3h3.3v1.8h0Z"/>
    <path class="st74" d="M24.7,670.4c.5-.4,1.2-.7,2.1-.7s1.6.2,2.1.7c.5.4.8,1,.8,1.7s-.1.9-.2,1.1c-.1.2-.3.5-.7.9.4.3.6.7.8.9.2.3.2.7.2,1.2,0,.9-.3,1.5-.8,1.9-.6.4-1.3.7-2.2.7-2,0-3-.8-3-2.4s.1-1,.2-1.3c.2-.3.4-.7.8-1-.3-.3-.6-.5-.7-.9s-.2-.7-.2-1.1c0-.8.3-1.3.8-1.7h0ZM25.5,675.9c0,.8.4,1.2,1.2,1.2s1.2-.4,1.2-1.2-.2-.8-.7-1h-1.1c-.3.2-.6.5-.6,1ZM26.8,671.3c-.4,0-.6,0-.8.2-.2.2-.3.4-.3.8s.2.7.6,1h1.1c.4-.3.6-.7.6-1-.1-.6-.5-1-1.2-1Z"/>
  </g>
  <line class="st64" x1="4.2" y1="657.7" x2="40.6" y2="657.7"/>
  <g>
    <path class="st74" d="M12.7,641.1v-1.6h3.6v1.6s-3.6,0-3.6,0Z"/>
    <path class="st74" d="M22.9,643.8h-5.1v-1.5l1.7-1.9c.6-.7,1-1.2,1.3-1.5.2-.3.4-.8.4-1.1s-.1-.7-.3-.9c-.2-.2-.5-.2-.8-.2h-2.1v-1.4c.7-.2,1.5-.4,2.3-.4,1.7,0,2.5.9,2.5,2.5s-.1,1.2-.4,1.6c-.3.4-.7,1.1-1.4,1.7l-1.4,1.3h3.3v1.7h0Z"/>
    <path class="st74" d="M27.5,643.8v-1.4h-3.4v-1.4l2-5.9h1.8l-2.1,5.7h1.7v-2.4h1.7v2.4h.7v1.5h-.8v1.4h-1.6Z"/>
  </g>
  <line class="st64" x1="4.1" y1="623.5" x2="39.7" y2="623.5"/>
  <line class="st64" x1="3.8" y1="589.4" x2="41.3" y2="589.4"/>
  <line class="st64" x1="4" y1="555.4" x2="40.4" y2="555.4"/>
  <line class="st64" x1="4" y1="521.4" x2="40.4" y2="521.4"/>
  <line class="st64" x1="3.8" y1="487.4" x2="40.4" y2="487.4"/>
  <line class="st64" x1="3.8" y1="453.5" x2="40.7" y2="453.5"/>
  <line class="st64" x1="3.8" y1="419.3" x2="41.3" y2="419.3"/>
  <line class="st64" x1="3.1" y1="402.3" x2="16" y2="402.3"/>
  <line class="st64" x1="3.8" y1="385.3" x2="40.4" y2="385.3"/>
  <line class="st64" x1="3.8" y1="351.2" x2="40.4" y2="351.2"/>
  <line class="st64" x1="3.8" y1="317.2" x2="41.3" y2="317.2"/>
  <line class="st64" x1="3.1" y1="283" x2="40.7" y2="283"/>
  <line class="st64" x1="3.8" y1="249" x2="40.7" y2="249"/>
  <line class="st64" x1="3.8" y1="214.9" x2="40.7" y2="214.9"/>
  <line class="st64" x1="3.8" y1="180.9" x2="39.9" y2="180.9"/>
  <line class="st64" x1="3.8" y1="146.8" x2="40.7" y2="146.8"/>
  <line class="st64" x1="2.6" y1="113.5" x2="41.1" y2="113.5"/>
  <line class="st64" x1="4.1" y1="78.7" x2="41" y2="78.7"/>
  <g>
    <path class="st74" d="M12.8,606.4v-1.6h3.6v1.6s-3.6,0-3.6,0Z"/>
    <path class="st74" d="M22.9,609h-5.1v-1.5l1.7-1.9c.6-.7,1-1.2,1.3-1.5.2-.3.4-.8.4-1.1s-.1-.7-.3-.9c-.2-.2-.5-.2-.8-.2h-2.1v-1.4c.7-.2,1.5-.4,2.3-.4,1.7,0,2.5.9,2.5,2.5s-.1,1.2-.4,1.6-.7,1.1-1.4,1.7l-1.4,1.3h3.3v1.7h0Z"/>
    <path class="st74" d="M24.8,601.4c.5-.8,1.3-1.1,2.3-1.1s1.8.3,2.3,1.1.8,1.9.8,3.5-.3,2.7-.8,3.4-1.3,1-2.3,1-1.8-.3-2.3-1-.8-1.9-.8-3.4.2-2.8.8-3.5ZM28.4,604.8c0-1.1-.1-1.9-.3-2.3-.2-.4-.6-.7-1-.7s-.8.2-1.1.7c-.2.4-.3,1.2-.3,2.3s.1,1.9.3,2.3c.2.4.6.7,1.1.7s.8-.2,1-.7.3-1.2.3-2.3Z"/>
  </g>
  <g>
    <path class="st74" d="M13.1,572.9v-1.6h3.6v1.6h-3.6Z"/>
    <path class="st74" d="M22.4,567v8.6h-1.7v-6.6l-1.7,1.2-.8-1.3,2.6-1.9h1.6Z"/>
    <path class="st74" d="M30,568.5c-.8,0-1.5-.2-2.1-.2-1.1,0-1.7.7-1.7,2h.3c.5-.3.9-.3,1.3-.3.9,0,1.6.2,2,.7.5.4.7,1.2.7,2.1s-.3,1.6-.8,2.2c-.5.4-1.3.8-2.2.8s-1.7-.4-2.2-1.2-.7-2-.7-3.4.3-2.6.9-3.3c.6-.8,1.4-1.1,2.4-1.1s1.3,0,2,.3h.4s-.3,1.4-.3,1.4ZM27.6,571.6c-.4,0-.8,0-1.2.2h-.2c0,1.6.4,2.4,1.3,2.4s.7,0,.9-.3c.2-.2.3-.5.3-1,0-.9-.4-1.3-1.1-1.3h0Z"/>
  </g>
  <g>
    <path class="st74" d="M12.8,539v-1.6h3.6v1.6s-3.6,0-3.6,0Z"/>
    <path class="st74" d="M22,533v8.6h-1.7v-6.6l-1.7,1.2-.8-1.3,2.6-1.9h1.6Z"/>
    <path class="st74" d="M29.6,541.6h-5.1v-1.5l1.7-1.9c.6-.7,1-1.2,1.3-1.5.2-.3.4-.8.4-1.1s-.1-.7-.3-.9c-.2-.2-.5-.2-.8-.2h-2.1v-1.4c.7-.2,1.5-.4,2.3-.4,1.7,0,2.5.9,2.5,2.5s-.1,1.2-.4,1.6c-.3.4-.7,1.1-1.4,1.7l-1.4,1.3h3.3v1.7h0Z"/>
  </g>
  <g>
    <path class="st74" d="M16.8,504.9v-1.6h3.6v1.6h-3.6Z"/>
    <path class="st74" d="M22.3,499.3c.5-.4,1.2-.7,2.1-.7s1.6.2,2.1.7c.5.4.8,1,.8,1.7s-.1.9-.2,1.1-.3.5-.7.9c.4.3.6.7.8.9.2.3.2.7.2,1.2,0,.9-.3,1.5-.8,1.9s-1.3.7-2.2.7c-2,0-3-.8-3-2.4s.1-1,.2-1.3.4-.7.8-1c-.3-.3-.6-.5-.7-.9s-.2-.7-.2-1.1c0-.7.3-1.3.8-1.7h0ZM23.2,504.9c0,.8.4,1.2,1.2,1.2s1.2-.4,1.2-1.2-.2-.8-.7-1h-1c-.5.2-.7.5-.7,1ZM24.4,500.3c-.4,0-.6.1-.8.2s-.3.4-.3.8.2.7.6,1h1c.4-.3.6-.7.6-1,0-.6-.3-1-1.1-1Z"/>
  </g>
  <g>
    <path class="st74" d="M16.8,471.2v-1.6h3.6v1.6h-3.6Z"/>
    <path class="st74" d="M24.9,474v-1.4h-3.4v-1.4l2-5.9h1.8l-2.1,5.7h1.7v-2.4h1.7v2.4h.8v1.5h-.8v1.4h-1.7Z"/>
  </g>
  <path class="st70" d="M19.7,432.3c.5-.8,1.3-1.1,2.3-1.1s1.8.3,2.3,1.1c.5.8.8,1.9.8,3.5s-.3,2.7-.8,3.4-1.3,1-2.3,1-1.8-.3-2.3-1-.8-1.9-.8-3.4.3-2.7.8-3.5ZM23.3,435.7c0-1.1-.1-1.9-.3-2.3-.2-.4-.6-.7-1-.7s-.8.2-1.1.7c-.2.4-.3,1.2-.3,2.3s.1,1.9.3,2.3c.2.4.6.7,1.1.7s.8-.2,1-.7c.2-.4.3-1.2.3-2.3Z"/>
  <path class="st133" d="M22.3,406v-1.4h-3.4v-1.4l2-5.9h1.8l-2.1,5.7h1.7v-2.4h1.6v2.4h.8v1.5h-.8v1.4h-1.6Z"/>
  <path class="st133" d="M19.8,363.7c.5-.4,1.2-.7,2.1-.7s1.6.2,2.1.7c.5.4.8,1,.8,1.7s-.1.9-.2,1.1-.3.5-.7.9c.4.3.6.7.8.9.2.3.2.7.2,1.2,0,.9-.3,1.5-.8,1.9-.6.4-1.3.7-2.2.7-2,0-3-.8-3-2.4s.1-1,.2-1.3c.2-.3.4-.7.8-1-.3-.3-.6-.5-.7-.9s-.2-.7-.2-1.1c0-.7.2-1.3.8-1.7h0ZM20.6,369.2c0,.8.4,1.2,1.2,1.2s1.2-.4,1.2-1.2-.2-.8-.7-1h-1.1c-.3.3-.6.6-.6,1ZM21.9,364.7c-.4,0-.6.1-.8.2-.2.2-.3.4-.3.8s.2.7.6,1h1.1c.4-.3.6-.7.6-1-.1-.7-.5-1-1.2-1Z"/>
  <g>
    <path class="st133" d="M20.2,328.4v8.6h-1.7v-6.6l-1.7,1.2-.8-1.3,2.6-1.9h1.6Z"/>
    <path class="st133" d="M27.8,337h-5.1v-1.5l1.7-1.9c.6-.7,1-1.2,1.3-1.5.2-.3.4-.8.4-1.1s-.1-.7-.3-.9c-.2-.2-.5-.2-.8-.2-.5,0-1.1,0-1.8.1h-.3v-1.4c.7-.2,1.5-.4,2.3-.4,1.7,0,2.5.9,2.5,2.5s-.1,1.2-.4,1.6-.7,1.1-1.4,1.7l-1.4,1.3h3.3v1.7h0Z"/>
  </g>
  <g>
    <path class="st133" d="M20,293.8v8.6h-1.7v-6.6l-1.7,1.2-.8-1.3,2.6-1.9h1.6Z"/>
    <path class="st133" d="M27.7,295.5c-.8-.1-1.5-.2-2.1-.2-1.1,0-1.7.7-1.7,2h.3c.5-.3.9-.3,1.3-.3.9,0,1.6.2,2,.7.4.4.7,1.2.7,2.1s-.3,1.6-.8,2.2c-.5.4-1.3.8-2.2.8s-1.7-.4-2.2-1.2c-.5-.8-.7-2-.7-3.4s.3-2.6.9-3.3c.6-.8,1.4-1.1,2.4-1.1s1.3.1,2,.3h.4c0,.1-.3,1.4-.3,1.4ZM25.2,298.5c-.4,0-.8.1-1.2.2h-.2c0,1.6.4,2.4,1.3,2.4s.7-.1.9-.3.3-.5.3-1c.1-.8-.3-1.3-1.1-1.3h0Z"/>
  </g>
  <g>
    <path class="st133" d="M21.1,268.5h-5.1v-1.6l1.7-1.9c.6-.7,1-1.2,1.3-1.5s.4-.8.4-1.1-.1-.7-.3-.9c-.2-.2-.5-.2-.8-.2-.5,0-1.1,0-1.8.1h-.3v-1.4c.7-.2,1.5-.4,2.3-.4,1.7,0,2.5.9,2.5,2.5s-.1,1.2-.4,1.6-.7,1.1-1.4,1.7l-1.4,1.3h3.3s0,1.8,0,1.8Z"/>
    <path class="st133" d="M23,260.7c.5-.8,1.3-1.1,2.3-1.1s1.8.3,2.3,1.1.8,1.9.8,3.5-.3,2.7-.8,3.4-1.3,1-2.3,1-1.8-.3-2.3-1-.8-1.9-.8-3.4.3-2.8.8-3.5ZM26.6,264.1c0-1.1-.1-1.9-.3-2.3-.2-.4-.6-.7-1-.7s-.8.2-1.1.7c-.2.4-.3,1.2-.3,2.3s.1,1.9.3,2.3c.2.4.6.7,1.1.7s.8-.2,1-.7c.2-.4.3-1.2.3-2.3Z"/>
  </g>
  <g>
    <path class="st74" d="M21.2,234.4h-5.1v-1.5l1.7-1.9c.6-.7,1-1.2,1.3-1.5s.4-.8.4-1.1-.1-.7-.3-.9c-.2-.2-.5-.2-.8-.2-.5,0-1.1,0-1.8.1h-.3v-1.4c.7-.2,1.5-.4,2.3-.4,1.7,0,2.5.9,2.5,2.5s-.1,1.2-.4,1.6-.7,1.1-1.4,1.7l-1.4,1.3h3.3v1.7h0Z"/>
    <path class="st74" d="M25.9,234.4v-1.4h-3.4v-1.4l2-5.9h1.8l-2.1,5.7h1.7v-2.4h1.7v2.4h.8v1.5h-.8v1.4h-1.7Z"/>
  </g>
  <g>
    <path class="st74" d="M21.2,201.5h-5.1v-1.5l1.7-1.9c.6-.7,1-1.2,1.3-1.5s.4-.8.4-1.1-.1-.7-.3-.9c-.2-.2-.5-.2-.8-.2-.5,0-1.1,0-1.8.1h-.3v-1.4c.7-.2,1.5-.4,2.3-.4,1.7,0,2.5.9,2.5,2.5s-.1,1.2-.4,1.6-.7,1.1-1.4,1.7l-1.4,1.3h3.3v1.7h0Z"/>
    <path class="st74" d="M23.2,193.3c.5-.4,1.2-.7,2.1-.7s1.6.2,2.1.7.8,1,.8,1.7-.1.9-.2,1.1c-.1.2-.3.5-.7.9.4.3.6.7.8.9.2.3.2.7.2,1.2,0,.9-.3,1.5-.8,1.9-.5.3-1.3.7-2.2.7-2,0-3-.8-3-2.4s.1-1,.2-1.3.4-.7.8-1c-.3-.3-.6-.5-.7-.9s-.2-.7-.2-1.1c0-.7.3-1.3.8-1.7h0ZM24.1,198.9c0,.8.4,1.2,1.2,1.2s1.2-.4,1.2-1.2-.2-.8-.7-1h-1.1c-.4.2-.6.5-.6,1ZM25.3,194.3c-.4,0-.6.1-.8.2-.2.1-.3.4-.3.8s.2.7.6,1h1.1c.4-.3.6-.7.6-1-.1-.7-.4-1-1.2-1Z"/>
  </g>
  <g>
    <path class="st74" d="M16.1,159.1c.7-.3,1.6-.4,2.5-.4s1.6.2,2,.5.6,1,.6,1.9-.3,1.5-.9,2c.4.2.7.4.8.7.1.2.2.7.2,1.2,0,1-.2,1.6-.6,2.1s-1.1.7-2.1.7-1.4-.1-2.2-.3h-.4c0-.1.1-1.5.1-1.5.9.2,1.6.2,2.3.2s1.2-.4,1.2-1.2-.1-.5-.3-.8c-.2-.2-.5-.3-.8-.3h-1.6v-1.5h1.6c.3,0,.5-.1.7-.3s.3-.5.3-.8c0-.7-.4-1-1.2-1s-1.1.1-1.8.2h-.3v-1.4h-.1Z"/>
    <path class="st74" d="M28,167.4h-5.1v-1.5l1.7-1.9c.6-.7,1-1.2,1.3-1.5.2-.3.4-.8.4-1.1s-.1-.7-.3-.9c-.2-.2-.5-.2-.8-.2-.5,0-1.1,0-1.8.1h-.3v-1.4c.7-.2,1.5-.4,2.3-.4,1.7,0,2.5.9,2.5,2.5s-.1,1.2-.4,1.6-.7,1.1-1.4,1.7l-1.4,1.3h3.3v1.7h0Z"/>
  </g>
  <g>
    <path class="st74" d="M16,124.3c.7-.3,1.6-.4,2.5-.4s1.6.2,2,.5.6,1,.6,1.9-.3,1.5-.9,2c.4.2.7.4.8.7.1.2.2.7.2,1.2,0,1-.2,1.6-.6,2.1s-1.1.7-2.1.7-1.4-.1-2.2-.3h-.4c0-.1.1-1.7.1-1.7.9.2,1.6.2,2.3.2s1.2-.4,1.2-1.2-.1-.5-.3-.8c-.2-.2-.5-.3-.8-.3h-1.6v-1.5h1.6c.3,0,.5,0,.7-.3s.3-.5.3-.8c0-.7-.4-1-1.2-1s-1.1,0-1.8.2h-.3v-1.2h-.1Z"/>
    <path class="st74" d="M27.9,125.6c-.8,0-1.5-.2-2.1-.2-1.1,0-1.7.7-1.7,2h.3c.5-.3.9-.3,1.3-.3.9,0,1.6.2,2,.7.5.4.7,1.2.7,2.1s-.3,1.6-.8,2.2c-.5.4-1.3.8-2.2.8s-1.7-.4-2.2-1.2-.7-2-.7-3.4.3-2.6.9-3.3c.6-.8,1.4-1.1,2.4-1.1s1.3,0,2,.3h.4s-.3,1.4-.3,1.4ZM25.5,128.7c-.4,0-.8.1-1.2.2h-.2c0,1.6.4,2.4,1.3,2.4s.7-.1.9-.3c.2-.2.3-.5.3-1,0-.9-.4-1.3-1.1-1.3h0Z"/>
  </g>
  <g>
    <path class="st70" d="M19.3,99.7v-1.4h-3.4v-1.4l2-5.9h1.8l-2.1,5.7h1.7v-2.4h1.6v2.4h.8v1.5h-.8v1.4h-1.6Z"/>
    <path class="st70" d="M23.2,92c.5-.8,1.3-1.1,2.3-1.1s1.8.3,2.3,1.1.8,1.9.8,3.5-.3,2.7-.8,3.4c-.5.7-1.3,1-2.3,1s-1.8-.3-2.3-1-.8-1.9-.8-3.4.3-2.8.8-3.5ZM26.9,95.4c0-1.1-.1-1.9-.3-2.3-.2-.4-.6-.7-1-.7s-.8.2-1.1.7c-.2.4-.3,1.2-.3,2.3s.1,1.9.3,2.3c.2.4.6.7,1.1.7s.8-.2,1-.7.3-1.3.3-2.3Z"/>
  </g>
  <g>
    <path class="st70" d="M19.2,65.2v-1.4h-3.3v-1.3l2-5.9h1.8l-2.1,5.7h1.7v-2.4h1.6v2.4h.8v1.5h-.8v1.4h-1.7Z"/>
    <path class="st70" d="M25.9,65.2v-1.4h-3.4v-1.3l2-5.9h1.8l-2.1,5.7h1.7v-2.4h1.7v2.4h.8v1.5h-.8v1.4h-1.7Z"/>
  </g>
  <line class="st64" x1="27.2" y1="402.3" x2="40" y2="402.3"/>
  <line class="st64" x1="3.8" y1="436.2" x2="15.3" y2="436.2"/>
  <line class="st64" x1="40.4" y1="436.2" x2="27.1" y2="436.2"/>
  <line class="st64" x1="3.9" y1="470.3" x2="15.8" y2="470.3"/>
  <line class="st64" x1="40.2" y1="470.3" x2="28.8" y2="470.3"/>
  <line class="st64" x1="4" y1="504.3" x2="15.8" y2="504.3"/>
  <line class="st64" x1="40.2" y1="504.3" x2="28.8" y2="504.3"/>
  <line class="st64" x1="40" y1="538.4" x2="31.1" y2="538.4"/>
  <line class="st64" x1="4.2" y1="538.5" x2="11.9" y2="538.4"/>
  <line class="st64" x1="4.4" y1="606.4" x2="10.2" y2="606.5"/>
  <line class="st64" x1="40" y1="606.7" x2="31.3" y2="606.7"/>
  <line class="st64" x1="4" y1="640.5" x2="10.4" y2="640.5"/>
  <line class="st64" x1="40.4" y1="640.5" x2="31.9" y2="640.5"/>
  <line class="st64" x1="3.8" y1="674.8" x2="12" y2="674.8"/>
  <line class="st64" x1="40" y1="674.7" x2="31.9" y2="674.7"/>
  <line class="st64" x1="4" y1="572.4" x2="12.1" y2="572.4"/>
  <line class="st64" x1="40.4" y1="572.4" x2="31.5" y2="572.4"/>
  <line class="st64" x1="3.8" y1="368" x2="15.4" y2="368"/>
  <line class="st64" x1="27.1" y1="368.2" x2="40" y2="368.2"/>
  <line class="st64" x1="3.8" y1="334.2" x2="16" y2="334.2"/>
  <line class="st64" x1="28.2" y1="334.2" x2="40" y2="334.2"/>
  <line class="st64" x1="3.4" y1="300.1" x2="16.1" y2="300.1"/>
  <line class="st64" x1="40.1" y1="300.1" x2="28.9" y2="300.1"/>
  <line class="st64" x1="3.4" y1="266.1" x2="14.2" y2="266.1"/>
  <line class="st64" x1="40.4" y1="266.1" x2="29.5" y2="266.1"/>
  <line class="st64" x1="4.2" y1="232" x2="15.2" y2="232"/>
  <line class="st64" x1="40.6" y1="232" x2="29.5" y2="232"/>
  <line class="st64" x1="4" y1="197.8" x2="16.1" y2="197.8"/>
  <line class="st64" x1="39.9" y1="198" x2="28.9" y2="198"/>
  <line class="st64" x1="15.9" y1="163.8" x2="3.4" y2="163.8"/>
  <line class="st64" x1="39.9" y1="164" x2="28.9" y2="164"/>
  <line class="st64" x1="4" y1="129.9" x2="16" y2="129.9"/>
  <line class="st64" x1="40.7" y1="129.9" x2="29.5" y2="129.9"/>
  <line class="st64" x1="4.2" y1="95.8" x2="15.2" y2="96"/>
  <line class="st64" x1="40.7" y1="95.9" x2="29.3" y2="95.9"/>
  <line class="st64" x1="3.9" y1="61.7" x2="15" y2="61.7"/>
  <line class="st64" x1="29" y1="61.7" x2="40.7" y2="61.7"/>
  <line class="st64" x1="3.6" y1="692" x2="41.3" y2="692"/>
  <path class="st62" d="M34.3,723.7H9.5c-3.4,0-6.3-3-6.3-6.7V51.2c0-3.7,2.8-6.7,6.3-6.7h24.8c3.4,0,6.3,3,6.3,6.7v665.8c0,3.7-2.8,6.7-6.3,6.7Z"/>
</svg>