<?xml version="1.0" encoding="utf-8"?>
<!-- Generator: Adobe Illustrator 28.0.0, SVG Export Plug-In . SVG Version: 6.00 Build 0)  -->
<svg version="1.1" id="Livello_1" xmlns="http://www.w3.org/2000/svg" xmlns:xlink="http://www.w3.org/1999/xlink" x="0px" y="0px"
	  width="50px" height="677px" viewBox="0 0 48.7 677.2" style="enable-background:new 0 0 48.7 677.2;" xml:space="preserve">
<style type="text/css">
	.st0{fill:#961405;}
	.st1{clip-path:url(#SVGID_00000150803338368502979340000003529451484073567363_);}
	.st2{fill:#6E0E04;}
	.st3{clip-path:url(#SVGID_00000163758455427825946300000000264858370858981263_);}
	.st4{fill:#E22208;}
	.st5{clip-path:url(#SVGID_00000180336741455070889160000011983969375630194312_);}
	.st6{fill:#E86411;}
	.st7{clip-path:url(#SVGID_00000043433616049144909510000001545579931015603869_);}
	.st8{fill:#E1D52D;}
	.st9{clip-path:url(#SVGID_00000127744173664209808100000016012299718249895319_);}
	.st10{fill:#F7EC31;}
	.st11{clip-path:url(#SVGID_00000106855048341673188060000002744102176667093398_);}
	.st12{clip-path:url(#SVGID_00000140701675365199379160000014136516075343127201_);}
	.st13{clip-path:url(#SVGID_00000049214289225549515190000018327768353321622924_);}
	.st14{fill:#173A62;}
	.st15{clip-path:url(#SVGID_00000178181944503099886100000011599730921780789433_);}
	.st16{fill:#79AADE;}
	.st17{clip-path:url(#SVGID_00000058591067682188089260000006906483556335302567_);}
	.st18{fill:#9CC1E7;}
	.st19{clip-path:url(#SVGID_00000001643655425027380700000005572216547138158213_);}
	.st20{fill:#BDD5EF;}
	.st21{clip-path:url(#SVGID_00000135653765285571556540000016359368320762305211_);}
	.st22{fill:#DEEAF7;}
	.st23{clip-path:url(#SVGID_00000097462728482823431030000016020674166641837742_);}
	.st24{fill:#235A95;}
	.st25{clip-path:url(#SVGID_00000044168979112761495110000015757688119088520352_);}
	.st26{fill:#2E6FB8;}
	.st27{fill:#548ECE;}
	.st28{clip-path:url(#SVGID_00000011028654482881299700000003714471384677431477_);fill:#4897D9;}
	.st29{clip-path:url(#SVGID_00000042703232545060008060000011407492955018430877_);fill:#A2A4D6;}
	.st30{clip-path:url(#SVGID_00000132791844757976960860000008290887153878930822_);fill:#B887C0;}
	.st31{clip-path:url(#SVGID_00000049923141821228359750000011891776639109735862_);fill:#D6A1CC;}
	.st32{clip-path:url(#SVGID_00000094613823413575580170000000400182109594356872_);fill:#E7BDDA;}
	.st33{clip-path:url(#SVGID_00000026858160231569282370000012131392438375721637_);fill:#E57D9A;}
	.st34{clip-path:url(#SVGID_00000093855684612144667890000010483269292777943426_);fill:#DA4C4D;}
	.st35{clip-path:url(#SVGID_00000010995051464514527720000016136812329897599417_);fill:#EE5A5C;}
	.st36{clip-path:url(#SVGID_00000137818671068362876350000009817697372236178063_);fill:#F6A15C;}
	.st37{clip-path:url(#SVGID_00000000198986825977351470000017267721290913795990_);fill:#FCD48E;}
	.st38{clip-path:url(#SVGID_00000082327665507857580030000010919603880844016817_);fill:#FFE073;}
	.st39{clip-path:url(#SVGID_00000178912889447903063180000002658129288205069489_);fill:#D2EBA3;}
	.st40{clip-path:url(#SVGID_00000135667293226515244240000001069584574815195781_);fill:#C2E5D7;}
	.st41{clip-path:url(#SVGID_00000052805047896804415030000001109693611040982679_);fill:#C7E7EF;}
	.st42{clip-path:url(#SVGID_00000165921364778068283540000003724468762797208992_);fill:#CFEAF6;}
	.st43{clip-path:url(#SVGID_00000080208187900240373620000018084347654845589694_);fill:#FDFD81;}
	.st44{clip-path:url(#SVGID_00000001655033457318254280000015534953773953063578_);fill:#FFFFC6;}
	.st45{clip-path:url(#SVGID_00000005243889599660240930000004065897109510240674_);fill:#F2F2A0;}
	.st46{fill:#39322E;}
	.st47{fill:none;}
	.st48{fill:none;stroke:#3C3430;stroke-width:2;stroke-miterlimit:9.7722;}
	.st49{fill:#3C3530;stroke:#3C3530;stroke-width:0.75;stroke-miterlimit:10;}
	.st50{fill:#FFFFFF;stroke:#FFFFFF;stroke-width:0.75;stroke-miterlimit:10;}
	.st51{fill:none;stroke:#3C3430;stroke-miterlimit:9.7722;}
	.st52{fill:#FFFFFF;}
</style>
<g>
	<g>
		<g>
			<g>
				<rect x="5.5" y="92.3" class="st0" width="37.3" height="42.7"/>
			</g>
		</g>
	</g>
</g>
<g>
	<g>
		<g>
			<defs>
				<path id="SVGID_1_" d="M43.4,672.4c-0.5,3.9-10.1,8.5-18.5,8.5l0,0c-8.2,0.4-19.5-3.8-19.5-8.5V54.7C7.2,49.2,17.2,49,23.7,49
					l0,0c7.7,0,17.7-0.7,19.6,5.2L43.4,672.4L43.4,672.4z"/>
			</defs>
			<clipPath id="SVGID_00000148643018681691319660000008895753481195218352_">
				<use xlink:href="#SVGID_1_"  style="overflow:visible;"/>
			</clipPath>
			<g style="clip-path:url(#SVGID_00000148643018681691319660000008895753481195218352_);">
				<g>
					<g>
						<rect x="-20" y="49" class="st2" width="100.4" height="43.7"/>
					</g>
				</g>
			</g>
		</g>
	</g>
	<g>
		<g>
			<defs>
				<path id="SVGID_00000176025499641343217350000006023824183785505448_" d="M43.4,672.4L43.4,672.4c-0.5,3.9-10.1,8.5-18.5,8.5
					l0,0c-8.2,0.4-19.5-3.8-19.5-8.5L5.9,54.5C7.6,49,17.2,49,23.7,49l0,0"/>
			</defs>
			<clipPath id="SVGID_00000097461438645784066520000006410792757875524013_">
				<use xlink:href="#SVGID_00000176025499641343217350000006023824183785505448_"  style="overflow:visible;"/>
			</clipPath>
			<g style="clip-path:url(#SVGID_00000097461438645784066520000006410792757875524013_);">
				<g>
					<g>
						<rect x="-24.9" y="92.3" class="st0" width="100.4" height="42.7"/>
					</g>
				</g>
			</g>
		</g>
	</g>
	<g>
		<g>
			<g>
				<g>
					<rect x="5.5" y="135" class="st4" width="38.4" height="43"/>
				</g>
			</g>
		</g>
	</g>
	<g>
		<g>
			<defs>
				<path id="SVGID_00000103973384105460598710000000195606129684993691_" d="M43.4,672.4c-0.5,3.9-10.1,8.5-18.5,8.5l0,0
					c-8.2,0.4-19.5-3.8-19.5-8.5L5.9,55c1.7-5.6,11.3-6,17.8-6l0,0c7.7,0,17.9-0.4,19.6,9.2L43.4,672.4L43.4,672.4z"/>
			</defs>
			<clipPath id="SVGID_00000062188511795676021240000004052899836980070303_">
				<use xlink:href="#SVGID_00000103973384105460598710000000195606129684993691_"  style="overflow:visible;"/>
			</clipPath>
			<g style="clip-path:url(#SVGID_00000062188511795676021240000004052899836980070303_);">
				<g>
					<g>
						<rect x="-20.5" y="177.9" class="st6" width="100.4" height="42.7"/>
					</g>
				</g>
			</g>
		</g>
	</g>
	<g>
		<g>
			<defs>
				<path id="SVGID_00000096059156269876591750000008617357858501539006_" d="M43.4,672.4c-0.5,3.9-10.1,8.5-18.5,8.5l0,0
					c-8.2,0.4-19.5-3.8-19.5-8.5L5.9,54.5C7.6,49,17.2,49,23.7,49l0,0c7.7,0,18-0.5,19.6,9.2L43.4,672.4L43.4,672.4z"/>
			</defs>
			<clipPath id="SVGID_00000044875689257231749740000007108824580225770901_">
				<use xlink:href="#SVGID_00000096059156269876591750000008617357858501539006_"  style="overflow:visible;"/>
			</clipPath>
			<g style="clip-path:url(#SVGID_00000044875689257231749740000007108824580225770901_);">
				<g>
					<g>
						<rect x="-19.5" y="220.6" class="st8" width="100.4" height="42.7"/>
					</g>
				</g>
			</g>
		</g>
		<g>
			<defs>
				<path id="SVGID_00000182524329130907741750000010999567093516041864_" d="M43.4,672.4c-0.5,3.9-10.1,8.5-18.5,8.5l0,0
					c-8.2,0.4-19.5-3.8-19.5-8.5L5.9,54.5C7.6,49,17.2,49,23.7,49l0,0c7.7,0,18-0.5,19.6,9.2L43.4,672.4L43.4,672.4z"/>
			</defs>
			<clipPath id="SVGID_00000151502330886397469620000008117319405748056249_">
				<use xlink:href="#SVGID_00000182524329130907741750000010999567093516041864_"  style="overflow:visible;"/>
			</clipPath>
			<g style="clip-path:url(#SVGID_00000151502330886397469620000008117319405748056249_);">
				<g>
					<g>
						<rect x="-26.4" y="263.3" class="st10" width="100.4" height="42.7"/>
					</g>
				</g>
			</g>
		</g>
	</g>
	<g>
		<g>
			<defs>
				<path id="SVGID_00000051347389029079076560000005964131848274692539_" d="M43.3,58.1l0.2,614.3l0,0c-0.5,3.9-10.1,8.5-18.5,8.5
					l0,0c-8.2,0.4-19.5-3.8-19.5-8.5"/>
			</defs>
			<clipPath id="SVGID_00000174583685244908463000000001203113660865998248_">
				<use xlink:href="#SVGID_00000051347389029079076560000005964131848274692539_"  style="overflow:visible;"/>
			</clipPath>
		</g>
		<g>
			<defs>
				<path id="SVGID_00000167366551598417156850000011320242981064658875_" d="M43.3,58.1l0.2,614.3l0,0c-0.5,3.9-10.1,8.5-18.5,8.5
					l0,0c-8.2,0.4-19.5-3.8-19.5-8.5"/>
			</defs>
			<defs>
				<line id="SVGID_00000127725607005162432190000018116589885160485273_" x1="23.7" y1="49" x2="23.7" y2="49"/>
			</defs>
			<clipPath id="SVGID_00000093174447220401274690000014053806329987967643_">
				<use xlink:href="#SVGID_00000167366551598417156850000011320242981064658875_"  style="overflow:visible;"/>
			</clipPath>
			
				<clipPath id="SVGID_00000135681425006996098070000009832383513071191995_" style="clip-path:url(#SVGID_00000093174447220401274690000014053806329987967643_);">
				<use xlink:href="#SVGID_00000127725607005162432190000018116589885160485273_"  style="overflow:visible;"/>
			</clipPath>
			<g style="clip-path:url(#SVGID_00000135681425006996098070000009832383513071191995_);">
				<g>
					<g>
						<rect x="-19.5" y="263.2" class="st10" width="100.4" height="42.7"/>
					</g>
				</g>
			</g>
		</g>
	</g>
	<g>
		<g>
			<defs>
				<path id="SVGID_00000101786065843802801530000011710995958679038879_" d="M43.3,58.1l0.2,614.3l0,0c-0.5,3.9-10.1,8.5-18.5,8.5
					l0,0c-8.2,0.4-19.5-3.8-19.5-8.5V55.3C7.2,49.7,17.2,49,23.7,49l0,0"/>
			</defs>
			<clipPath id="SVGID_00000005236855724387372350000010936402799480105894_">
				<use xlink:href="#SVGID_00000101786065843802801530000011710995958679038879_"  style="overflow:visible;"/>
			</clipPath>
			<g style="clip-path:url(#SVGID_00000005236855724387372350000010936402799480105894_);">
				<g>
					<g>
						<rect x="-19.5" y="305.9" class="st14" width="100.4" height="42.7"/>
					</g>
				</g>
			</g>
		</g>
	</g>
	<g>
		<g>
			<defs>
				<path id="SVGID_00000179647324605580080520000000060524685560658058_" d="M43.4,672.4c-0.5,3.9-10.1,8.5-18.5,8.5l0,0
					c-8.2,0.4-19.5-3.8-19.5-8.5V54.7C7.2,49.2,17.2,49,23.7,49l0,0c7.7,0,18.2-0.4,19.6,9.2L43.4,672.4L43.4,672.4z"/>
			</defs>
			<clipPath id="SVGID_00000059278491404622599700000010227734225419434175_">
				<use xlink:href="#SVGID_00000179647324605580080520000000060524685560658058_"  style="overflow:visible;"/>
			</clipPath>
			<g style="clip-path:url(#SVGID_00000059278491404622599700000010227734225419434175_);">
				<g>
					<g>
						<rect x="-18.2" y="476.7" class="st16" width="100.4" height="42.7"/>
					</g>
				</g>
			</g>
		</g>
	</g>
	<g>
		<g>
			<defs>
				<path id="SVGID_00000062177055479858721090000009192149979927830183_" d="M43.4,672.4c-0.5,3.9-10.1,8.5-18.5,8.5l0,0
					c-8.2,0.4-19.5-3.8-19.5-8.5V54.7C7.2,49.2,17.2,49,23.7,49l0,0c7.7,0,18.2-0.9,19.6,9.2L43.4,672.4L43.4,672.4z"/>
			</defs>
			<clipPath id="SVGID_00000023252359849645579390000005023589990566849195_">
				<use xlink:href="#SVGID_00000062177055479858721090000009192149979927830183_"  style="overflow:visible;"/>
			</clipPath>
			<g style="clip-path:url(#SVGID_00000023252359849645579390000005023589990566849195_);">
				<g>
					<g>
						<rect x="-18.2" y="519.3" class="st18" width="100.4" height="42.7"/>
					</g>
				</g>
			</g>
		</g>
	</g>
	<g>
		<g>
			<defs>
				<path id="SVGID_00000026140552033417077870000011669743144434124961_" d="M43.4,672.4c-0.5,3.9-10.1,8.5-18.5,8.5l0,0
					c-8.2,0.4-19.5-3.8-19.5-8.5V57.9C5.3,43.6,17.1,48.8,23.7,49l0,0c7.7,0,18.3-0.5,19.6,9.2L43.4,672.4L43.4,672.4z"/>
			</defs>
			<clipPath id="SVGID_00000035532337254555054950000002717651302223807391_">
				<use xlink:href="#SVGID_00000026140552033417077870000011669743144434124961_"  style="overflow:visible;"/>
			</clipPath>
			<g style="clip-path:url(#SVGID_00000035532337254555054950000002717651302223807391_);">
				<g>
					<g>
						<rect x="-17.3" y="562" class="st20" width="100.4" height="42.7"/>
					</g>
				</g>
			</g>
		</g>
	</g>
	<g>
		<g>
			<defs>
				<path id="SVGID_00000173882670384548108680000001470981119001908636_" d="M43.4,672.4c-0.5,3.9-10.4,3.3-18.8,3.3l0,0
					c-8.2,0.4-18.8,0.6-18.8-4.2v-618C7.6,48,17.2,49,23.7,49l0,0c7.7,0,17.7,0.3,19.6,6.2L43.4,672.4L43.4,672.4z"/>
			</defs>
			<clipPath id="SVGID_00000099640556755543678700000003558292761622591392_">
				<use xlink:href="#SVGID_00000173882670384548108680000001470981119001908636_"  style="overflow:visible;"/>
			</clipPath>
			<g style="clip-path:url(#SVGID_00000099640556755543678700000003558292761622591392_);">
				<g>
					<g>
						<rect x="-17.6" y="599.4" class="st22" width="100.4" height="79"/>
					</g>
				</g>
			</g>
		</g>
	</g>
	<g>
		<g>
			<defs>
				<path id="SVGID_00000085968977628638069280000006640347774824157824_" d="M43.4,672.4c-0.5,3.9-10.4,3.3-18.8,3.3l0,0
					c-8.2,0.4-19.2,1.4-19.2-3.3L5.9,54.5C7.6,49,17.2,49,23.7,49l0,0c7.7,0,17.2,0.6,19.1,6.5L43.4,672.4L43.4,672.4z"/>
			</defs>
			<clipPath id="SVGID_00000043457998823215651880000000545353939392560821_">
				<use xlink:href="#SVGID_00000085968977628638069280000006640347774824157824_"  style="overflow:visible;"/>
			</clipPath>
			<g style="clip-path:url(#SVGID_00000043457998823215651880000000545353939392560821_);">
				<g>
					<g>
						<rect x="-18.2" y="348.6" class="st24" width="100.4" height="42.7"/>
					</g>
				</g>
			</g>
		</g>
	</g>
	<g>
		<g>
			<defs>
				<path id="SVGID_00000142175784129814553270000007192696009684292767_" d="M43.4,672.4c-0.5,3.9-10.4,3.3-18.8,3.3l0,0
					c-8.2,0.4-19.2,1.4-18.4-2.8V55.2c1-6,11-6.2,17.5-6.2l0,0c7.7,0,17.2,0.3,19,6.2L43.4,672.4L43.4,672.4z"/>
			</defs>
			<clipPath id="SVGID_00000149348454001858903930000008724377331045532047_">
				<use xlink:href="#SVGID_00000142175784129814553270000007192696009684292767_"  style="overflow:visible;"/>
			</clipPath>
			<g style="clip-path:url(#SVGID_00000149348454001858903930000008724377331045532047_);">
				<g>
					<g>
						<rect x="-18.2" y="391.2" class="st26" width="100.4" height="42.7"/>
					</g>
				</g>
			</g>
		</g>
	</g>
	<g>
		<g>
			<g>
				<g>
					<rect x="6.2" y="433.9" class="st27" width="36.7" height="42.7"/>
				</g>
			</g>
		</g>
	</g>
</g>
<g>
	<g>
		<g>
			<g>
				<g>
					<defs>
						<path id="SVGID_00000095306118333899190970000008263986344567516047_" d="M43.8,669.9c-0.6,3.9-10.3,8.6-18.6,8.6l0,0
							c-8.3,0.4-19.7-3.8-19.7-8.6v-613c1.9-5.7,5.6-7.3,12.3-7.3l7,0.1c13.7-0.4,17.2,1.7,19.1,7.5v612.7H43.8z"/>
					</defs>
					<clipPath id="SVGID_00000036237804913724511440000016045759734750595973_">
						<use xlink:href="#SVGID_00000095306118333899190970000008263986344567516047_"  style="overflow:visible;"/>
					</clipPath>
					
						<rect x="-14.7" y="47.7" style="clip-path:url(#SVGID_00000036237804913724511440000016045759734750595973_);fill:#4897D9;" width="80.3" height="33.5"/>
				</g>
			</g>
		</g>
	</g>
	<g>
		<g>
			<g>
				<g>
					<defs>
						<path id="SVGID_00000013900998316839562090000015078570927197938084_" d="M43.8,669.9c-0.6,3.9-10.3,8.6-18.6,8.6l0,0
							c-8.3,0.4-19.7-3.8-19.7-8.6v-613c1.9-5.7,11.6-7.3,18.4-7.3L24,48c7.7,0,18,3.4,19.9,9.1L43.8,669.9L43.8,669.9z"/>
					</defs>
					<clipPath id="SVGID_00000152967093668192026530000000465111209991476143_">
						<use xlink:href="#SVGID_00000013900998316839562090000015078570927197938084_"  style="overflow:visible;"/>
					</clipPath>
					
						<rect x="-14.7" y="81.2" style="clip-path:url(#SVGID_00000152967093668192026530000000465111209991476143_);fill:#A2A4D6;" width="80.3" height="33.5"/>
				</g>
			</g>
		</g>
	</g>
	<g>
		<g>
			<g>
				<g>
					<defs>
						<path id="SVGID_00000176726011577445822520000015254020064233204359_" d="M43.8,669.9c-0.6,3.9-10.3,8.6-18.6,8.6l0,0
							c-8.3,0.4-19.7-3.8-19.7-8.6v-613c1.9-5.7,11.5-6.6,18.3-6.6l0.1-0.2c7.7,0,18.1,1.2,20,7L43.8,669.9L43.8,669.9z"/>
					</defs>
					<clipPath id="SVGID_00000017499483960374199350000017099074820111435927_">
						<use xlink:href="#SVGID_00000176726011577445822520000015254020064233204359_"  style="overflow:visible;"/>
					</clipPath>
					
						<rect x="-13.9" y="114.6" style="clip-path:url(#SVGID_00000017499483960374199350000017099074820111435927_);fill:#B887C0;" width="80.3" height="33.5"/>
				</g>
			</g>
		</g>
	</g>
	<g>
		<g>
			<g>
				<g>
					<defs>
						<path id="SVGID_00000065069464731131946910000005244424538418956975_" d="M43.8,669.9c-0.6,3.9-10.3,8.6-18.6,8.6l0,0
							c-8.3,0.4-19.7-3.8-19.7-8.6v-613c1.9-5.7,11.5-6.6,18.3-6.6L24,48c7.7,0,18,3.4,19.9,9.1L43.8,669.9L43.8,669.9z"/>
					</defs>
					<clipPath id="SVGID_00000183933240431350532380000010711798166279759538_">
						<use xlink:href="#SVGID_00000065069464731131946910000005244424538418956975_"  style="overflow:visible;"/>
					</clipPath>
					
						<rect x="-13.9" y="148.1" style="clip-path:url(#SVGID_00000183933240431350532380000010711798166279759538_);fill:#D6A1CC;" width="80.3" height="33.5"/>
				</g>
			</g>
		</g>
	</g>
	<g>
		<g>
			<g>
				<g>
					<defs>
						<path id="SVGID_00000176034523550282780680000016156790409117772978_" d="M43.8,669.9c-0.6,3.9-10.3,8.6-18.6,8.6l0,0
							c-8.3,0.4-19.7-3.8-19.7-8.6v-613C7.4,51.2,17.1,50,23.8,50l0.1-2.1c7.7,0,18,3.4,19.9,9.1V669.9L43.8,669.9z"/>
					</defs>
					<clipPath id="SVGID_00000177475483195241995670000007660616027010651053_">
						<use xlink:href="#SVGID_00000176034523550282780680000016156790409117772978_"  style="overflow:visible;"/>
					</clipPath>
					
						<rect x="-14.7" y="181.5" style="clip-path:url(#SVGID_00000177475483195241995670000007660616027010651053_);fill:#E7BDDA;" width="80.3" height="33.5"/>
				</g>
			</g>
		</g>
	</g>
	<g>
		<g>
			<g>
				<g>
					<defs>
						<path id="SVGID_00000072967093057458974930000018415811516930245788_" d="M43.8,669.9c-0.6,3.9-10.3,8.6-18.6,8.6l0,0
							c-8.3,0.4-19.7-3.8-19.7-8.6v-613c1.9-5.7,11.7-6.5,18.4-6.5V48c7.7,0,18,3.4,19.9,9.1L43.8,669.9L43.8,669.9z"/>
					</defs>
					<clipPath id="SVGID_00000074431119165340110940000004045014954529956761_">
						<use xlink:href="#SVGID_00000072967093057458974930000018415811516930245788_"  style="overflow:visible;"/>
					</clipPath>
					
						<rect x="-14.7" y="215" style="clip-path:url(#SVGID_00000074431119165340110940000004045014954529956761_);fill:#E57D9A;" width="80.3" height="33.5"/>
				</g>
			</g>
		</g>
	</g>
	<g>
		<g>
			<g>
				<g>
					<defs>
						<path id="SVGID_00000031892378095666137100000004518793583054023586_" d="M43.8,669.9c-0.6,3.9-10.3,8.6-18.6,8.6l0,0
							c-8.3,0.4-19.7-3.8-19.7-8.6v-613c1.9-5.7,11.7-7.1,18.4-7.1V48c7.7,0,18,3.4,19.9,9.1L43.8,669.9L43.8,669.9z"/>
					</defs>
					<clipPath id="SVGID_00000061448077914758749100000005658061403931891354_">
						<use xlink:href="#SVGID_00000031892378095666137100000004518793583054023586_"  style="overflow:visible;"/>
					</clipPath>
					
						<rect x="-14.7" y="248.5" style="clip-path:url(#SVGID_00000061448077914758749100000005658061403931891354_);fill:#DA4C4D;" width="80.3" height="33.5"/>
				</g>
			</g>
		</g>
	</g>
	<g>
		<g>
			<g>
				<g>
					<defs>
						<path id="SVGID_00000155828310080107995180000015610626607884285103_" d="M43.8,669.9c-0.6,3.9-10.3,8.6-18.6,8.6l0,0
							c-8.3,0.4-19.7-3.8-19.7-8.6v-613c1.9-5.7,11.4-7.2,18.2-7.2L24,48c7.7,0,18,3.4,19.9,9.1L43.8,669.9L43.8,669.9z"/>
					</defs>
					<clipPath id="SVGID_00000161619479969550241580000007546894331627434655_">
						<use xlink:href="#SVGID_00000155828310080107995180000015610626607884285103_"  style="overflow:visible;"/>
					</clipPath>
					
						<rect x="-14.7" y="281.9" style="clip-path:url(#SVGID_00000161619479969550241580000007546894331627434655_);fill:#EE5A5C;" width="80.3" height="33.5"/>
				</g>
			</g>
		</g>
	</g>
	<g>
		<g>
			<g>
				<g>
					<defs>
						<path id="SVGID_00000015344723277444581900000017792826915056527749_" d="M43.8,669.9c-0.6,3.9-10.3,8.6-18.6,8.6l0,0
							c-8.3,0.4-19.7-3.8-19.7-8.6v-613c1.9-5.7,11.3-6.9,18-6.9l0.6-0.2c7.7,0,17.9,1.6,19.8,7.4L43.8,669.9L43.8,669.9z"/>
					</defs>
					<clipPath id="SVGID_00000067219704631057147810000017342099431584911512_">
						<use xlink:href="#SVGID_00000015344723277444581900000017792826915056527749_"  style="overflow:visible;"/>
					</clipPath>
					
						<rect x="-13.9" y="315.5" style="clip-path:url(#SVGID_00000067219704631057147810000017342099431584911512_);fill:#F6A15C;" width="80.3" height="33.5"/>
				</g>
			</g>
		</g>
	</g>
	<g>
		<g>
			<g>
				<g>
					<defs>
						<path id="SVGID_00000016046895296069775310000015205944058513939591_" d="M43.8,669.9c-0.6,3.9-10.3,8.6-18.6,8.6l0,0
							c-8.3,0.4-19.7-3.8-19.7-8.6v-613C7.4,51.2,16.9,50,23.7,50l0.3-2c7.7,0,18,3.4,19.9,9.1L43.8,669.9L43.8,669.9z"/>
					</defs>
					<clipPath id="SVGID_00000111190361264186186200000006193840185062818987_">
						<use xlink:href="#SVGID_00000016046895296069775310000015205944058513939591_"  style="overflow:visible;"/>
					</clipPath>
					
						<rect x="-13.9" y="348.9" style="clip-path:url(#SVGID_00000111190361264186186200000006193840185062818987_);fill:#FCD48E;" width="80.3" height="33.5"/>
				</g>
			</g>
		</g>
	</g>
	<g>
		<g>
			<g>
				<g>
					<defs>
						<path id="SVGID_00000039854981575541285720000013633018492659290254_" d="M43.8,669.9c-0.6,3.9-10.3,8.6-18.6,8.6l0,0
							c-8.3,0.4-19.7-3.8-19.7-8.6v-613C7.4,51.2,16.9,50,23.7,50l-0.1,0.8c7.7,0,18.4,0.6,20.3,6.3L43.8,669.9L43.8,669.9z"/>
					</defs>
					<clipPath id="SVGID_00000177449778994608937730000015279749905167871661_">
						<use xlink:href="#SVGID_00000039854981575541285720000013633018492659290254_"  style="overflow:visible;"/>
					</clipPath>
					
						<rect x="-13.9" y="382.4" style="clip-path:url(#SVGID_00000177449778994608937730000015279749905167871661_);fill:#FFE073;" width="80.3" height="33.5"/>
				</g>
			</g>
		</g>
	</g>
	<g>
		<g>
			<g>
				<g>
					<defs>
						<path id="SVGID_00000073685478272951397820000013669428964151745189_" d="M43.8,669.9c-0.6,3.9-10.3,8.6-18.6,8.6l0,0
							c-8.3,0.4-19.7-3.8-19.7-8.6v-613C7.4,51.2,16.9,49,23.7,49l0,0c7.7,0,18.2,2.3,20.2,8.1v612.8H43.8z"/>
					</defs>
					<clipPath id="SVGID_00000114044936650750335450000011124203724407569826_">
						<use xlink:href="#SVGID_00000073685478272951397820000013669428964151745189_"  style="overflow:visible;"/>
					</clipPath>
					
						<rect x="-13" y="516.3" style="clip-path:url(#SVGID_00000114044936650750335450000011124203724407569826_);fill:#D2EBA3;" width="80.3" height="33.5"/>
				</g>
			</g>
		</g>
	</g>
	<g>
		<g>
			<g>
				<g>
					<defs>
						<path id="SVGID_00000083080055961284191350000001104071346988187794_" d="M43.8,669.9c-0.6,3.9-10.3,8.6-18.6,8.6l0,0
							c-8.3,0.4-19.7-3.8-19.7-8.6v-613C7.4,51.2,16.9,50,23.7,50l0,0c7.7,0,18.2,1.4,20.2,7.1v612.8H43.8z"/>
					</defs>
					<clipPath id="SVGID_00000106825401087513811670000007824918253005983125_">
						<use xlink:href="#SVGID_00000083080055961284191350000001104071346988187794_"  style="overflow:visible;"/>
					</clipPath>
					
						<rect x="-13" y="549.7" style="clip-path:url(#SVGID_00000106825401087513811670000007824918253005983125_);fill:#C2E5D7;" width="80.3" height="33.5"/>
				</g>
			</g>
		</g>
	</g>
	<g>
		<g>
			<g>
				<g>
					<defs>
						<path id="SVGID_00000059988245837298828420000012330961194787201177_" d="M43.8,669.9c-0.6,3.9-10.3,8.6-18.6,8.6l0,0
							c-8.3,0.4-19.7-3.8-19.7-8.6v-613C7.4,51.2,16.9,50,23.7,50l0,0c7.7,0,18.2,1.4,20.2,7.1v612.8H43.8z"/>
					</defs>
					<clipPath id="SVGID_00000096039271704479866060000009648816334659723197_">
						<use xlink:href="#SVGID_00000059988245837298828420000012330961194787201177_"  style="overflow:visible;"/>
					</clipPath>
					
						<rect x="-12.2" y="583.2" style="clip-path:url(#SVGID_00000096039271704479866060000009648816334659723197_);fill:#C7E7EF;" width="80.3" height="33.5"/>
				</g>
			</g>
		</g>
	</g>
	<g>
		<g>
			<g>
				<g>
					<defs>
						<path id="SVGID_00000142175726835586541790000013543688816187805113_" d="M43.8,669.9c-0.6,3.9-7.4,6.6-15.8,6.6h-6.9
							c-8.3,0.4-15.7-1.8-15.7-6.7v-613c1.9-5.7,12.2-6.9,19-6.9l0,0c7.7,0,17.5,1.4,19.4,7.1L43.8,669.9L43.8,669.9z"/>
					</defs>
					<clipPath id="SVGID_00000000906424048473596240000001105931398595712906_">
						<use xlink:href="#SVGID_00000142175726835586541790000013543688816187805113_"  style="overflow:visible;"/>
					</clipPath>
					
						<rect x="-12.2" y="616.6" style="clip-path:url(#SVGID_00000000906424048473596240000001105931398595712906_);fill:#CFEAF6;" width="80.3" height="62"/>
				</g>
			</g>
		</g>
	</g>
	<g>
		<g>
			<g>
				<g>
					<defs>
						<path id="SVGID_00000108274830735062167740000016472850246680595869_" d="M43.8,669.9c-0.6,3.9-10.8,3.9-19.2,3.9l0.6,4.7
							c-8.3,0.4-19.7-3.8-19.7-8.6v-613C7.4,51.2,16.9,50,23.7,50l0,0c7.7,0,18.2,1.4,20.2,7.1v612.8H43.8z"/>
					</defs>
					<clipPath id="SVGID_00000139252669530009320200000010824411310731686060_">
						<use xlink:href="#SVGID_00000108274830735062167740000016472850246680595869_"  style="overflow:visible;"/>
					</clipPath>
					
						<rect x="-13" y="415.9" style="clip-path:url(#SVGID_00000139252669530009320200000010824411310731686060_);fill:#FDFD81;" width="80.3" height="33.5"/>
				</g>
			</g>
		</g>
	</g>
	<g>
		<g>
			<g>
				<g>
					<defs>
						<path id="SVGID_00000103234246209533546580000002546803879169234313_" d="M43.8,669.9c-0.6,3.9-10.3,5.8-18.7,5.8v2.8
							c-8.3,0.4-19.7-3.8-19.7-8.6v-613C7.3,51.2,16.8,50,23.6,50v-1c7.7,0,18.2,2.3,20.2,8.1V669.9L43.8,669.9z"/>
					</defs>
					<clipPath id="SVGID_00000181087046035747364950000005420859999187340986_">
						<use xlink:href="#SVGID_00000103234246209533546580000002546803879169234313_"  style="overflow:visible;"/>
					</clipPath>
					
						<rect x="-13" y="449.3" style="clip-path:url(#SVGID_00000181087046035747364950000005420859999187340986_);fill:#FFFFC6;" width="80.3" height="33.5"/>
				</g>
			</g>
		</g>
	</g>
	<g>
		<g>
			<g>
				<g>
					<defs>
						<path id="SVGID_00000049904551408888550830000014759397426837745595_" d="M43.8,669.9c-0.6,3.9-10.3,6.2-18.6,6.2v2.4
							c-8.3,0.4-19.7-3.8-19.7-8.6v-613C7.4,51.2,16.9,50,23.7,50l0,0c7.7,0,18.2,1.4,20.2,7.1v612.8H43.8z"/>
					</defs>
					<clipPath id="SVGID_00000005249520868864038570000006925458394127014841_">
						<use xlink:href="#SVGID_00000049904551408888550830000014759397426837745595_"  style="overflow:visible;"/>
					</clipPath>
					
						<rect x="-13" y="482.8" style="clip-path:url(#SVGID_00000005249520868864038570000006925458394127014841_);fill:#F2F2A0;" width="80.3" height="33.5"/>
				</g>
			</g>
		</g>
	</g>
</g>
<circle class="st46" cx="24.1" cy="26.6" r="19.8"/>
<rect x="11.1" y="632" class="st47" width="15.4" height="11.8"/>
<path class="st48" d="M36.6,675.8H12.1c-3.4,0-6.2-2.8-6.2-6.2V56.1c0-3.4,2.8-6.2,6.2-6.2h24.5c3.4,0,6.2,2.8,6.2,6.2v613.5
	C42.8,673,40,675.8,36.6,675.8z"/>
<g>
	<path class="st49" d="M25.8,611.1v7.9h-0.9v-6.9l-2,1.3l-0.4-0.7L25,611h0.8V611.1z"/>
</g>
<g>
	<path class="st49" d="M26.7,585.7h-5.1v-0.8l2.3-2.4c0.4-0.4,0.7-0.7,0.9-0.9c0.2-0.2,0.4-0.5,0.5-0.8s0.2-0.6,0.2-0.9
		c0-0.5-0.1-0.9-0.4-1.1c-0.3-0.2-0.7-0.3-1.3-0.3c-0.5,0-1.1,0.1-1.7,0.2l-0.3,0.1l-0.1-0.8c0.8-0.2,1.5-0.3,2.4-0.3
		c0.8,0,1.4,0.2,1.8,0.5s0.6,0.9,0.6,1.6c0,0.6-0.1,1-0.4,1.5s-0.7,0.9-1.3,1.5l-2.1,2.1h4V585.7z"/>
</g>
<g>
	<path class="st50" d="M21.4,251.2v-1.5h-3.8V249l2.3-5.7h1l-2.3,5.6h2.9v-2.5h0.9v2.5h1v0.8h-1v1.5L21.4,251.2L21.4,251.2z"/>
	<path class="st50" d="M27.1,243.2c0.7,0,1.2,0.1,1.6,0.4c0.9,0.5,1.3,1.8,1.3,3.8c0,1.4-0.2,2.5-0.7,3.1s-1.2,0.9-2.2,0.9
		s-1.7-0.3-2.2-0.9c-0.5-0.6-0.7-1.6-0.7-3.1s0.2-2.6,0.7-3.2C25.4,243.5,26.2,243.2,27.1,243.2z M27.1,244c-0.5,0-0.8,0.1-1.1,0.3
		c-0.6,0.4-0.9,1.4-0.9,3.1c0,1.2,0.2,2,0.5,2.5s0.8,0.7,1.5,0.7s1.2-0.2,1.5-0.7s0.5-1.3,0.5-2.5s-0.2-2.1-0.5-2.6
		S27.8,244,27.1,244z"/>
</g>
<g>
	<path class="st49" d="M22.1,209.6v0.8h-3.9L18,213c0.6-0.3,1.2-0.5,1.9-0.5c1.7,0,2.5,0.8,2.5,2.3c0,0.9-0.2,1.6-0.7,2.1
		s-1.1,0.7-2,0.7c-0.7,0-1.4-0.1-2.2-0.3l-0.4-0.1l0.1-0.7c0.9,0.2,1.7,0.3,2.3,0.3s1.1-0.2,1.4-0.5s0.5-0.8,0.5-1.4s-0.1-1-0.4-1.2
		s-0.7-0.4-1.2-0.4c-0.3,0-0.6,0-0.9,0.1s-0.6,0.2-0.7,0.2l-0.3,0.1l-0.6-0.1l0.2-4.1L22.1,209.6L22.1,209.6z"/>
	<path class="st49" d="M26.5,209.5c0.7,0,1.2,0.1,1.6,0.4c0.9,0.5,1.3,1.8,1.3,3.8c0,1.4-0.2,2.5-0.7,3.1s-1.2,0.9-2.2,0.9
		s-1.7-0.3-2.2-0.9c-0.5-0.6-0.7-1.6-0.7-3.1s0.2-2.6,0.7-3.2C24.8,209.8,25.5,209.5,26.5,209.5z M26.5,210.3
		c-0.5,0-0.8,0.1-1.1,0.3c-0.6,0.4-0.9,1.4-0.9,3.1c0,1.2,0.2,2,0.5,2.5s0.8,0.7,1.5,0.7s1.2-0.2,1.5-0.7s0.5-1.3,0.5-2.5
		s-0.1-2.1-0.5-2.6C27.7,210.6,27.2,210.3,26.5,210.3z"/>
</g>
<g>
	<path class="st49" d="M19.8,144.1v7.9h-0.9v-6.9l-2,1.3l-0.4-0.7L19,144L19.8,144.1L19.8,144.1z"/>
	<path class="st49" d="M25.2,144c0.7,0,1.2,0.1,1.6,0.4c0.9,0.5,1.3,1.8,1.3,3.8c0,1.4-0.2,2.5-0.7,3.1s-1.2,0.9-2.2,0.9
		s-1.7-0.3-2.2-0.9c-0.5-0.6-0.7-1.6-0.7-3.1s0.2-2.6,0.7-3.2C23.5,144.3,24.2,144,25.2,144z M25.2,144.8c-0.5,0-0.8,0.1-1.1,0.3
		c-0.6,0.4-0.9,1.4-0.9,3.1c0,1.2,0.2,2,0.5,2.5s0.8,0.7,1.5,0.7s1.2-0.2,1.5-0.7s0.5-1.3,0.5-2.5s-0.2-2.1-0.5-2.6
		S25.9,144.8,25.2,144.8z"/>
	<path class="st49" d="M31.9,144c0.7,0,1.2,0.1,1.6,0.4c0.9,0.5,1.3,1.8,1.3,3.8c0,1.4-0.2,2.5-0.7,3.1s-1.2,0.9-2.2,0.9
		s-1.7-0.3-2.2-0.9c-0.5-0.6-0.7-1.6-0.7-3.1s0.2-2.6,0.7-3.2C30.2,144.3,30.9,144,31.9,144z M31.9,144.8c-0.5,0-0.8,0.1-1.1,0.3
		c-0.6,0.4-0.9,1.4-0.9,3.1c0,1.2,0.2,2,0.5,2.5s0.8,0.7,1.5,0.7c0.7,0,1.2-0.2,1.5-0.7c0.3-0.5,0.5-1.3,0.5-2.5s-0.2-2.1-0.5-2.6
		S32.6,144.8,31.9,144.8z"/>
</g>
<g>
	<path class="st50" d="M19.8,117.4h-5.1v-0.8l2.3-2.4c0.4-0.4,0.7-0.7,0.9-0.9c0.2-0.2,0.3-0.5,0.5-0.8c0.1-0.3,0.2-0.6,0.2-0.9
		c0-0.5-0.1-0.9-0.4-1.1s-0.7-0.3-1.3-0.3c-0.5,0-1.1,0.1-1.7,0.2l-0.3,0.1l-0.1-0.8c0.8-0.2,1.5-0.3,2.4-0.3c0.8,0,1.4,0.2,1.8,0.5
		s0.6,0.9,0.6,1.6c0,0.6-0.1,1-0.4,1.5s-0.7,0.9-1.3,1.5l-2.1,2.1h4V117.4z"/>
	<path class="st50" d="M24,109.4c0.7,0,1.2,0.1,1.6,0.4c0.9,0.5,1.3,1.8,1.3,3.8c0,1.4-0.2,2.5-0.7,3.1s-1.2,0.9-2.2,0.9
		s-1.7-0.3-2.2-0.9s-0.7-1.6-0.7-3.1s0.2-2.6,0.7-3.2C22.3,109.7,23,109.4,24,109.4z M24,110.2c-0.5,0-0.8,0.1-1.1,0.3
		c-0.6,0.4-0.9,1.4-0.9,3.1c0,1.2,0.2,2,0.5,2.5s0.8,0.7,1.5,0.7s1.2-0.2,1.5-0.7s0.5-1.3,0.5-2.5s-0.1-2.1-0.5-2.6
		S24.7,110.2,24,110.2z"/>
	<path class="st50" d="M30.7,109.4c0.7,0,1.2,0.1,1.6,0.4c0.9,0.5,1.3,1.8,1.3,3.8c0,1.4-0.2,2.5-0.7,3.1s-1.2,0.9-2.2,0.9
		s-1.7-0.3-2.2-0.9s-0.7-1.6-0.7-3.1s0.2-2.6,0.7-3.2C29,109.7,29.7,109.4,30.7,109.4z M30.7,110.2c-0.5,0-0.8,0.1-1.1,0.3
		c-0.6,0.4-0.9,1.4-0.9,3.1c0,1.2,0.2,2,0.5,2.5s0.8,0.7,1.5,0.7s1.2-0.2,1.5-0.7s0.5-1.3,0.5-2.5s-0.1-2.1-0.5-2.6
		C31.9,110.5,31.4,110.2,30.7,110.2z"/>
</g>
<g>
	<path class="st50" d="M14.1,76.7c0.8-0.2,1.6-0.3,2.4-0.3c0.9,0,1.5,0.2,1.9,0.5s0.6,0.9,0.6,1.6c0,0.4,0,0.6-0.1,0.8
		c-0.1,0.2-0.2,0.3-0.2,0.4c-0.1,0.1-0.1,0.2-0.2,0.3c-0.2,0.1-0.3,0.2-0.4,0.3L18,80.4c0.5,0.2,0.8,0.4,1,0.6
		c0.2,0.3,0.3,0.7,0.3,1.3c0,0.8-0.2,1.4-0.6,1.8s-1.1,0.6-2,0.6c-0.7,0-1.4-0.1-2.2-0.2L14,84.2l0.1-0.8c0.9,0.2,1.7,0.3,2.4,0.3
		c1.1,0,1.7-0.5,1.7-1.5s-0.5-1.4-1.6-1.5H15v-0.8h1.6c0.3,0,0.7-0.1,1-0.4s0.5-0.6,0.5-1.1c0-0.4-0.1-0.8-0.4-1s-0.7-0.3-1.2-0.3
		c-0.6,0-1.3,0.1-1.9,0.2l-0.3,0.1L14.1,76.7z"/>
	<path class="st50" d="M23.3,76.4c0.7,0,1.2,0.1,1.6,0.4c0.9,0.5,1.3,1.8,1.3,3.8c0,1.4-0.2,2.5-0.7,3.1s-1.2,0.9-2.2,0.9
		s-1.7-0.3-2.2-0.9s-0.7-1.6-0.7-3.1s0.2-2.6,0.7-3.2C21.6,76.7,22.4,76.4,23.3,76.4z M23.3,77.2c-0.5,0-0.8,0.1-1.1,0.3
		c-0.6,0.4-0.9,1.4-0.9,3.1c0,1.2,0.2,2,0.5,2.5s0.8,0.7,1.5,0.7s1.2-0.2,1.5-0.7s0.5-1.3,0.5-2.5s-0.1-2.1-0.5-2.6
		C24.5,77.5,24,77.2,23.3,77.2z"/>
	<path class="st50" d="M30.1,76.4c0.7,0,1.2,0.1,1.6,0.4c0.9,0.5,1.3,1.8,1.3,3.8c0,1.4-0.2,2.5-0.7,3.1s-1.2,0.9-2.2,0.9
		s-1.7-0.3-2.2-0.9s-0.7-1.6-0.7-3.1s0.2-2.6,0.7-3.2C28.4,76.7,29.1,76.4,30.1,76.4z M30.1,77.2c-0.5,0-0.8,0.1-1.1,0.3
		c-0.6,0.4-0.9,1.4-0.9,3.1c0,1.2,0.2,2,0.5,2.5s0.8,0.7,1.5,0.7s1.2-0.2,1.5-0.7s0.5-1.3,0.5-2.5S32,78.5,31.6,78
		C31.2,77.5,30.8,77.2,30.1,77.2z"/>
</g>
<line class="st51" x1="6.8" y1="615.9" x2="19.7" y2="615.9"/>
<line class="st51" x1="42.5" y1="615.9" x2="28.9" y2="615.9"/>
<line class="st51" x1="5.5" y1="582.6" x2="19.3" y2="582.6"/>
<line class="st51" x1="41.9" y1="582.6" x2="28.5" y2="582.6"/>
<line class="st51" x1="4.9" y1="248.8" x2="16.1" y2="248.8"/>
<line class="st51" x1="42.2" y1="248.9" x2="31" y2="248.9"/>
<line class="st51" x1="5.8" y1="215.2" x2="16.6" y2="215.2"/>
<line class="st51" x1="41.6" y1="215.2" x2="30.7" y2="215.2"/>
<line class="st51" x1="16.1" y1="148.2" x2="6.4" y2="148.2"/>
<line class="st51" x1="42.9" y1="148.4" x2="36" y2="148.4"/>
<line class="st51" x1="5.6" y1="114.6" x2="14.2" y2="114.6"/>
<line class="st51" x1="42.3" y1="114.6" x2="34.8" y2="114.6"/>
<line class="st51" x1="6" y1="81" x2="14" y2="81"/>
<line class="st51" x1="34.1" y1="81" x2="42.1" y2="81"/>
<g>
	<path class="st52" d="M38.8,27v-0.1c0-7.5-6.2-13.7-13.9-14.1v-1.3c0-0.3-0.3-0.7-0.8-0.7s-0.8,0.3-0.8,0.7v1.3
		c-7.8,0.3-13.9,6.6-13.9,14.1c0,0.3,0.3,0.7,0.8,0.7c0.2,0,0.3-0.1,0.6-0.2c2.5-2.3,5.8-2.3,8.2,0c0.1,0.1,0.3,0.2,0.6,0.2
		c0.2,0,0.3-0.1,0.5-0.2c1-0.9,2.2-1.5,3.4-1.6v9.8c0,1.9,1.7,3.7,3.8,3.7s3.8-1.6,3.8-3.7c0-0.3-0.3-0.7-0.8-0.7s-0.8,0.3-0.8,0.7
		c0,1.1-1,2.2-2.3,2.2s-2.3-1-2.3-2.2v-9.8c1.1,0.1,2.4,0.7,3.4,1.6c0.2,0.2,0.8,0.2,1,0c2.5-2.3,5.8-2.3,8.3,0
		c0.2,0.2,0.7,0.2,0.9,0.1C38.7,27.4,38.8,27.2,38.8,27z M28.1,25.5c-1.3-0.8-2.6-1.3-4-1.3H24h-0.1c-1.4,0-2.7,0.5-4,1.3
		c-0.3-4.9,0.9-8.8,2.5-10.5c1-1.1,2.1-1.1,3.2,0C27.1,16.7,28.5,20.5,28.1,25.5z M10.9,25.3c0.7-5.4,4.8-9.6,10-10.8
		c-1.5,1.9-2.9,5.7-2.5,10.8C16.2,23.9,13.3,23.9,10.9,25.3z M29.7,25.3c0.3-5.1-1-8.9-2.5-10.8c5.4,1.3,9.4,5.5,10,10.8
		C34.8,23.9,32,23.9,29.7,25.3z"/>
</g>
<g>
	<path class="st49" d="M22.2,545.1c0.8-0.2,1.6-0.3,2.4-0.3s1.5,0.2,1.9,0.5s0.6,0.9,0.6,1.6c0,0.4-0.1,0.6-0.2,0.8
		s-0.2,0.3-0.2,0.4c-0.1,0.1-0.1,0.2-0.2,0.3c-0.2,0.1-0.3,0.2-0.4,0.3l-0.1,0.1c0.5,0.2,0.8,0.4,1,0.6s0.3,0.7,0.3,1.3
		c0,0.8-0.2,1.4-0.6,1.8c-0.4,0.4-1.1,0.6-1.9,0.6c-0.7,0-1.4-0.1-2.2-0.2l-0.4-0.1l0.1-0.8c0.9,0.2,1.7,0.3,2.4,0.3
		c1.1,0,1.7-0.5,1.7-1.5s-0.5-1.4-1.6-1.5h-1.6v-0.8h1.6c0.3,0,0.7-0.1,1-0.4c0.3-0.3,0.5-0.6,0.5-1.1c0-0.4-0.1-0.8-0.4-1
		s-0.7-0.3-1.2-0.3c-0.6,0-1.3,0.1-1.9,0.2l-0.3,0.1L22.2,545.1z"/>
</g>
<line class="st51" x1="6" y1="549.7" x2="19.9" y2="549.7"/>
<line class="st51" x1="42.4" y1="549.7" x2="29" y2="549.7"/>
<g>
	<path class="st50" d="M23.7,318.4h-5.1v-0.8l2.3-2.4c0.4-0.4,0.7-0.7,0.9-0.9c0.2-0.2,0.3-0.5,0.5-0.8c0.1-0.3,0.2-0.6,0.2-0.9
		c0-0.5-0.1-0.9-0.4-1.1s-0.7-0.3-1.3-0.3c-0.5,0-1.1,0.1-1.7,0.2l-0.3,0.1l-0.1-0.8c0.8-0.2,1.5-0.3,2.4-0.3c0.8,0,1.4,0.2,1.8,0.5
		s0.6,0.9,0.6,1.6c0,0.6-0.1,1-0.4,1.5s-0.7,0.9-1.3,1.5l-2.1,2.1h4V318.4z"/>
	<path class="st50" d="M27.9,310.3c0.7,0,1.2,0.1,1.6,0.4c0.9,0.5,1.3,1.8,1.3,3.8c0,1.4-0.2,2.5-0.7,3.1s-1.2,0.9-2.2,0.9
		s-1.7-0.3-2.2-0.9S25,316,25,314.5s0.2-2.6,0.7-3.2C26.2,310.6,26.9,310.3,27.9,310.3z M27.9,311.1c-0.5,0-0.8,0.1-1.1,0.3
		c-0.6,0.4-0.9,1.4-0.9,3.1c0,1.2,0.2,2,0.5,2.5s0.8,0.7,1.5,0.7s1.2-0.2,1.5-0.7s0.5-1.3,0.5-2.5s-0.1-2.1-0.5-2.6
		C29.1,311.4,28.6,311.1,27.9,311.1z"/>
</g>
<line class="st51" x1="6.1" y1="315" x2="18.5" y2="315"/>
<line class="st51" x1="42.5" y1="315" x2="31.9" y2="315"/>
<g>
	<path class="st50" d="M18.7,276.9c0.8-0.2,1.6-0.3,2.4-0.3s1.5,0.2,1.9,0.5s0.6,0.9,0.6,1.6c0,0.4-0.1,0.6-0.2,0.8
		c-0.1,0.2-0.2,0.3-0.2,0.4c-0.1,0.1-0.1,0.2-0.2,0.3c-0.2,0.1-0.3,0.2-0.4,0.3l-0.1,0.1c0.5,0.2,0.8,0.4,1,0.6s0.3,0.7,0.3,1.3
		c0,0.8-0.2,1.4-0.6,1.8s-1.1,0.6-1.9,0.6c-0.7,0-1.4-0.1-2.2-0.2l-0.4-0.1l0.1-0.8c0.9,0.2,1.7,0.3,2.4,0.3c1.1,0,1.7-0.5,1.7-1.5
		s-0.5-1.4-1.6-1.5h-1.6v-0.8h1.6c0.3,0,0.7-0.1,1-0.4s0.5-0.6,0.5-1.1c0-0.4-0.1-0.8-0.4-1s-0.7-0.3-1.2-0.3
		c-0.6,0-1.3,0.1-1.9,0.2l-0.3,0.1L18.7,276.9z"/>
	<path class="st50" d="M27.9,276.6c0.7,0,1.2,0.1,1.6,0.4c0.9,0.5,1.3,1.8,1.3,3.8c0,1.4-0.2,2.5-0.7,3.1s-1.2,0.9-2.2,0.9
		s-1.7-0.3-2.2-0.9s-0.7-1.6-0.7-3.1s0.2-2.6,0.7-3.2C26.2,276.9,26.9,276.6,27.9,276.6z M27.9,277.4c-0.5,0-0.8,0.1-1.1,0.3
		c-0.6,0.4-0.9,1.4-0.9,3.1c0,1.2,0.2,2,0.5,2.5s0.8,0.7,1.5,0.7s1.2-0.2,1.5-0.7s0.5-1.3,0.5-2.5s-0.1-2.1-0.5-2.6
		C29.1,277.7,28.6,277.4,27.9,277.4z"/>
</g>
<line class="st51" x1="6.1" y1="281.3" x2="18.5" y2="281.3"/>
<line class="st51" x1="42.5" y1="281.3" x2="31.9" y2="281.3"/>
<g>
	<path class="st49" d="M18,176.7v-0.8h5v1.2l-3,6.8l-0.9-0.3l3-6.6v-0.3L18,176.7L18,176.7z"/>
	<path class="st49" d="M29.6,175.9v0.8h-3.9l-0.2,2.6c0.6-0.3,1.2-0.5,1.9-0.5c1.7,0,2.5,0.8,2.5,2.3c0,0.9-0.2,1.6-0.7,2.1
		s-1.1,0.7-2,0.7c-0.7,0-1.4-0.1-2.2-0.3l-0.4-0.1l0.1-0.7c0.9,0.2,1.7,0.3,2.3,0.3s1.1-0.2,1.4-0.5s0.5-0.8,0.5-1.4s-0.1-1-0.4-1.2
		s-0.7-0.4-1.2-0.4c-0.3,0-0.6,0-0.9,0.1s-0.6,0.2-0.7,0.2l-0.3,0.1l-0.6-0.1l0.2-4.1L29.6,175.9L29.6,175.9z"/>
</g>
<line class="st51" x1="6.5" y1="181.4" x2="17.3" y2="181.4"/>
<line class="st51" x1="42.4" y1="181.4" x2="31.4" y2="181.4"/>
<g>
	<path class="st49" d="M16.6,671.9h-0.9v-6h0.9v0.4c0.6-0.4,1.2-0.5,1.8-0.5c0.7,0,1.3,0.2,1.6,0.6c0.3-0.2,0.6-0.3,1-0.4
		s0.8-0.2,1.1-0.2c0.8,0,1.3,0.2,1.6,0.6c0.3,0.4,0.4,1.2,0.4,2.3v3.2h-0.9v-3.1c0-0.8-0.1-1.4-0.2-1.7c-0.2-0.3-0.5-0.5-1-0.5
		c-0.3,0-0.5,0-0.8,0.1s-0.5,0.2-0.6,0.2l-0.2,0.1c0.1,0.3,0.2,0.8,0.2,1.8v3.1h-0.9v-3.1c0-0.9-0.1-1.5-0.2-1.8
		c-0.2-0.3-0.5-0.5-1-0.5c-0.3,0-0.5,0-0.8,0.1s-0.5,0.2-0.6,0.2l-0.2,0.1v5H16.6z"/>
	<path class="st49" d="M26.6,671.9h-0.9v-6h0.9v0.4c0.6-0.4,1.2-0.5,1.8-0.5c0.7,0,1.3,0.2,1.6,0.6c0.3-0.2,0.6-0.3,1-0.4
		s0.8-0.2,1.1-0.2c0.8,0,1.3,0.2,1.6,0.6c0.3,0.4,0.4,1.2,0.4,2.3v3.2h-0.9v-3.1c0-0.8-0.1-1.4-0.2-1.7c-0.2-0.3-0.5-0.5-1-0.5
		c-0.3,0-0.5,0-0.8,0.1s-0.5,0.2-0.6,0.2l-0.2,0.1c0.1,0.3,0.2,0.8,0.2,1.8v3.1h-0.9v-3.1c0-0.9-0.1-1.5-0.2-1.8
		c-0.2-0.3-0.5-0.5-1-0.5c-0.3,0-0.5,0-0.8,0.1s-0.5,0.2-0.6,0.2l-0.2,0.1v5H26.6z"/>
</g>
<g>
	<path class="st49" d="M22.5,377.4v7.9h-0.9v-6.9l-2,1.3l-0.4-0.7l2.5-1.7h0.8V377.4z"/>
	<path class="st49" d="M27.9,377.3c0.7,0,1.2,0.1,1.6,0.4c0.9,0.5,1.3,1.8,1.3,3.8c0,1.4-0.2,2.5-0.7,3.1s-1.2,0.9-2.2,0.9
		s-1.7-0.3-2.2-0.9S25,383,25,381.5s0.2-2.6,0.7-3.2C26.2,377.6,26.9,377.3,27.9,377.3z M27.9,378.1c-0.5,0-0.8,0.1-1.1,0.3
		c-0.6,0.4-0.9,1.4-0.9,3.1c0,1.2,0.2,2,0.5,2.5s0.8,0.7,1.5,0.7s1.2-0.2,1.5-0.7s0.5-1.3,0.5-2.5s-0.1-2.1-0.5-2.6
		C29.1,378.3,28.6,378.1,27.9,378.1z"/>
</g>
<line class="st51" x1="6.1" y1="382" x2="18.5" y2="382"/>
<line class="st51" x1="42.5" y1="382" x2="31.9" y2="382"/>
<g>
	<path class="st49" d="M23.3,344.2v7.9h-0.9v-6.9l-2,1.3l-0.4-0.7l2.5-1.7h0.8V344.2z"/>
	<path class="st49" d="M31.1,344.2v0.8h-3.9l-0.2,2.6c0.6-0.3,1.2-0.5,1.9-0.5c1.7,0,2.5,0.8,2.5,2.3c0,0.9-0.2,1.6-0.7,2.1
		s-1.1,0.7-2,0.7c-0.7,0-1.4-0.1-2.2-0.3l-0.4-0.1l0.1-0.7c0.9,0.2,1.7,0.3,2.3,0.3s1.1-0.2,1.4-0.5s0.5-0.8,0.5-1.4s-0.1-1-0.4-1.2
		s-0.7-0.4-1.2-0.4c-0.3,0-0.6,0-0.9,0.1s-0.6,0.2-0.7,0.2l-0.3,0.1l-0.6-0.1l0.2-4.1h4.6V344.2z"/>
</g>
<line class="st51" x1="7" y1="348.8" x2="19.3" y2="348.8"/>
<line class="st51" x1="43.4" y1="348.8" x2="32.8" y2="348.8"/>
<g>
	<path class="st49" d="M22.4,411.4c0.5-0.3,1.2-0.5,2.1-0.5s1.6,0.2,2.1,0.5s0.8,0.9,0.8,1.5c0,0.5-0.1,0.9-0.3,1.1
		c-0.2,0.3-0.5,0.5-1,0.7c0.5,0.2,0.8,0.5,1.1,0.8s0.4,0.7,0.4,1.2c0,1.5-1,2.3-3,2.3s-3-0.7-3-2.1c0-0.6,0.1-1,0.3-1.3
		c0.2-0.3,0.6-0.6,1-0.8c-0.4-0.2-0.7-0.5-0.9-0.7s-0.3-0.7-0.3-1.1C21.7,412.2,21.9,411.7,22.4,411.4z M22.5,416.7
		c0,1,0.7,1.5,2,1.5s2-0.5,2-1.5c0-0.4-0.1-0.7-0.4-0.9c-0.2-0.2-0.6-0.4-1-0.5h-1.3c-0.4,0.1-0.8,0.3-1,0.5
		C22.6,416,22.5,416.3,22.5,416.7z M26.4,413c0-0.9-0.6-1.3-1.9-1.3c-1.2,0-1.9,0.4-1.9,1.3c0,0.4,0.1,0.6,0.3,0.9
		c0.2,0.2,0.5,0.4,0.9,0.5h1.3c0.4-0.1,0.8-0.3,1-0.5C26.3,413.7,26.4,413.4,26.4,413z"/>
</g>
<line class="st51" x1="6.1" y1="415.6" x2="18.5" y2="415.6"/>
<line class="st51" x1="42.5" y1="415.6" x2="31.9" y2="415.6"/>
<g>
	<path class="st49" d="M26.9,445.4c-0.7-0.1-1.4-0.1-2.1-0.1s-1.2,0.2-1.6,0.7s-0.6,1.1-0.6,2l0.3-0.1c0.2-0.1,0.5-0.1,0.8-0.2
		s0.6-0.1,0.9-0.1c1.8,0,2.7,0.8,2.7,2.5c0,0.8-0.2,1.5-0.7,1.9s-1.2,0.7-2,0.7c-1.9,0-2.8-1.4-2.8-4.1c0-1.4,0.3-2.4,0.8-3.1
		s1.3-1,2.3-1c0.6,0,1.3,0,1.8,0.1l0.3,0.1L26.9,445.4z M24.6,448.3c-0.3,0-0.6,0-0.9,0.1s-0.6,0.1-0.8,0.2l-0.3,0.1
		c0,0.9,0.2,1.6,0.5,2.2s0.8,0.8,1.4,0.8s1.1-0.2,1.4-0.5s0.5-0.7,0.5-1.3c0-0.6-0.2-1-0.5-1.3C25.6,448.5,25.2,448.3,24.6,448.3z"
		/>
</g>
<line class="st51" x1="6.1" y1="449.1" x2="18.5" y2="449.1"/>
<line class="st51" x1="42.5" y1="449.1" x2="31.9" y2="449.1"/>
<g>
	<path class="st49" d="M26.9,477.4v0.8H23l-0.2,2.6c0.6-0.3,1.2-0.5,1.9-0.5c1.7,0,2.5,0.8,2.5,2.3c0,0.9-0.2,1.6-0.7,2.1
		s-1.1,0.7-2,0.7c-0.7,0-1.4-0.1-2.2-0.3l-0.4-0.1l0.1-0.7c0.9,0.2,1.7,0.3,2.3,0.3s1.1-0.2,1.4-0.5s0.5-0.8,0.5-1.4s-0.1-1-0.4-1.2
		s-0.7-0.4-1.2-0.4c-0.3,0-0.6,0-0.9,0.1s-0.6,0.2-0.7,0.2l-0.3,0.1l-0.6-0.1l0.2-4.1h4.6V477.4z"/>
</g>
<line class="st51" x1="6.1" y1="482" x2="18.5" y2="482"/>
<line class="st51" x1="42.5" y1="482" x2="31.9" y2="482"/>
<g>
	<path class="st49" d="M25.5,520.4v-1.5h-3.8v-0.7l2.3-5.7h1l-2.3,5.6h2.9v-2.5h0.9v2.5h1v0.8h-1v1.5L25.5,520.4L25.5,520.4z"/>
</g>
<line class="st51" x1="6.1" y1="517" x2="18.5" y2="517"/>
<line class="st51" x1="42.5" y1="517" x2="31.9" y2="517"/>
</svg>
