<?xml version="1.0" encoding="UTF-8" standalone="no"?>
<!-- Generator: Adobe Illustrator 28.0.0, SVG Export Plug-In . SVG Version: 6.00 Build 0)  -->

<svg
   version="1.1"
   id="Livello_1"
   x="0px"
   y="0px"
   width="50"
   height="677"
   viewBox="0 0 48.7 677.2"
   xml:space="preserve"
   xmlns:xlink="http://www.w3.org/1999/xlink"
   xmlns="http://www.w3.org/2000/svg"
   xmlns:svg="http://www.w3.org/2000/svg"><defs
   id="defs202" />
<style
   type="text/css"
   id="style1">
	.st0{fill:#961405;}
	.st1{clip-path:url(#SVGID_00000150803338368502979340000003529451484073567363_);}
	.st2{fill:#6E0E04;}
	.st3{clip-path:url(#SVGID_00000163758455427825946300000000264858370858981263_);}
	.st4{fill:#E22208;}
	.st5{clip-path:url(#SVGID_00000180336741455070889160000011983969375630194312_);}
	.st6{fill:#E86411;}
	.st7{clip-path:url(#SVGID_00000043433616049144909510000001545579931015603869_);}
	.st8{fill:#E1D52D;}
	.st9{clip-path:url(#SVGID_00000127744173664209808100000016012299718249895319_);}
	.st10{fill:#F7EC31;}
	.st11{clip-path:url(#SVGID_00000106855048341673188060000002744102176667093398_);}
	.st12{clip-path:url(#SVGID_00000140701675365199379160000014136516075343127201_);}
	.st13{clip-path:url(#SVGID_00000049214289225549515190000018327768353321622924_);}
	.st14{fill:#173A62;}
	.st15{clip-path:url(#SVGID_00000178181944503099886100000011599730921780789433_);}
	.st16{fill:#79AADE;}
	.st17{clip-path:url(#SVGID_00000058591067682188089260000006906483556335302567_);}
	.st18{fill:#9CC1E7;}
	.st19{clip-path:url(#SVGID_00000001643655425027380700000005572216547138158213_);}
	.st20{fill:#BDD5EF;}
	.st21{clip-path:url(#SVGID_00000135653765285571556540000016359368320762305211_);}
	.st22{fill:#DEEAF7;}
	.st23{clip-path:url(#SVGID_00000097462728482823431030000016020674166641837742_);}
	.st24{fill:#235A95;}
	.st25{clip-path:url(#SVGID_00000044168979112761495110000015757688119088520352_);}
	.st26{fill:#2E6FB8;}
	.st27{fill:#548ECE;}
	.st28{clip-path:url(#SVGID_00000011028654482881299700000003714471384677431477_);fill:#4897D9;}
	.st29{clip-path:url(#SVGID_00000042703232545060008060000011407492955018430877_);fill:#A2A4D6;}
	.st30{clip-path:url(#SVGID_00000132791844757976960860000008290887153878930822_);fill:#B887C0;}
	.st31{clip-path:url(#SVGID_00000049923141821228359750000011891776639109735862_);fill:#D6A1CC;}
	.st32{clip-path:url(#SVGID_00000094613823413575580170000000400182109594356872_);fill:#E7BDDA;}
	.st33{clip-path:url(#SVGID_00000026858160231569282370000012131392438375721637_);fill:#E57D9A;}
	.st34{clip-path:url(#SVGID_00000093855684612144667890000010483269292777943426_);fill:#DA4C4D;}
	.st35{clip-path:url(#SVGID_00000010995051464514527720000016136812329897599417_);fill:#EE5A5C;}
	.st36{clip-path:url(#SVGID_00000137818671068362876350000009817697372236178063_);fill:#F6A15C;}
	.st37{clip-path:url(#SVGID_00000000198986825977351470000017267721290913795990_);fill:#FCD48E;}
	.st38{clip-path:url(#SVGID_00000082327665507857580030000010919603880844016817_);fill:#FFE073;}
	.st39{clip-path:url(#SVGID_00000178912889447903063180000002658129288205069489_);fill:#D2EBA3;}
	.st40{clip-path:url(#SVGID_00000135667293226515244240000001069584574815195781_);fill:#C2E5D7;}
	.st41{clip-path:url(#SVGID_00000052805047896804415030000001109693611040982679_);fill:#C7E7EF;}
	.st42{clip-path:url(#SVGID_00000165921364778068283540000003724468762797208992_);fill:#CFEAF6;}
	.st43{clip-path:url(#SVGID_00000080208187900240373620000018084347654845589694_);fill:#FDFD81;}
	.st44{clip-path:url(#SVGID_00000001655033457318254280000015534953773953063578_);fill:#FFFFC6;}
	.st45{clip-path:url(#SVGID_00000005243889599660240930000004065897109510240674_);fill:#F2F2A0;}
	.st46{fill:#39322E;}
	.st47{fill:none;}
	.st48{fill:none;stroke:#3C3430;stroke-width:2;stroke-miterlimit:9.7722;}
	.st49{fill:#3C3530;stroke:#3C3530;stroke-width:0.75;stroke-miterlimit:10;}
	.st50{fill:#FFFFFF;stroke:#FFFFFF;stroke-width:0.75;stroke-miterlimit:10;}
	.st51{fill:none;stroke:#3C3430;stroke-miterlimit:9.7722;}
	.st52{fill:#FFFFFF;}
</style>
<g
   id="g4">
	<g
   id="g3">
		<g
   id="g2">
			<g
   id="g1">
				<rect
   x="5.5"
   y="92.300003"
   class="st0"
   width="37.299999"
   height="42.700001"
   id="rect1" />
			</g>
		</g>
	</g>
</g>
<g
   id="g79">
	<g
   id="g9">
		<g
   id="g8">
			<defs
   id="defs4"><path
     id="SVGID_1_"
     d="m 43.4,672.4 c -0.5,3.9 -10.1,8.5 -18.5,8.5 v 0 C 16.7,681.3 5.4,677.1 5.4,672.4 V 54.7 C 7.2,49.2 17.2,49 23.7,49 v 0 c 7.7,0 17.7,-0.7 19.6,5.2 z" /></defs>
			<clipPath
   id="SVGID_00000148643018681691319660000008895753481195218352_">
				<use
   xlink:href="#SVGID_1_"
   style="overflow:visible"
   id="use4" />
			</clipPath>
			<g
   clip-path="url(#SVGID_00000148643018681691319660000008895753481195218352_)"
   id="g7">
				<g
   id="g6">
					<g
   id="g5">
						<rect
   x="-20"
   y="49"
   class="st2"
   width="100.4"
   height="43.700001"
   id="rect4" />
					</g>
				</g>
			</g>
		</g>
	</g>
	<g
   id="g14">
		<g
   id="g13">
			<defs
   id="defs9"><path
     id="SVGID_00000176025499641343217350000006023824183785505448_"
     d="m 43.4,672.4 v 0 c -0.5,3.9 -10.1,8.5 -18.5,8.5 v 0 C 16.7,681.3 5.4,677.1 5.4,672.4 L 5.9,54.5 C 7.6,49 17.2,49 23.7,49 v 0" /></defs>
			<clipPath
   id="SVGID_00000097461438645784066520000006410792757875524013_">
				<use
   xlink:href="#SVGID_00000176025499641343217350000006023824183785505448_"
   style="overflow:visible"
   id="use9" />
			</clipPath>
			<g
   clip-path="url(#SVGID_00000097461438645784066520000006410792757875524013_)"
   id="g12">
				<g
   id="g11">
					<g
   id="g10">
						<rect
   x="-24.9"
   y="92.300003"
   class="st0"
   width="100.4"
   height="42.700001"
   id="rect9" />
					</g>
				</g>
			</g>
		</g>
	</g>
	<g
   id="g18">
		<g
   id="g17">
			<g
   id="g16">
				<g
   id="g15">
					<rect
   x="5.5"
   y="135"
   class="st4"
   width="38.400002"
   height="43"
   id="rect14" />
				</g>
			</g>
		</g>
	</g>
	<g
   id="g23">
		<g
   id="g22">
			<defs
   id="defs18"><path
     id="SVGID_00000103973384105460598710000000195606129684993691_"
     d="m 43.4,672.4 c -0.5,3.9 -10.1,8.5 -18.5,8.5 v 0 C 16.7,681.3 5.4,677.1 5.4,672.4 L 5.9,55 c 1.7,-5.6 11.3,-6 17.8,-6 v 0 c 7.7,0 17.9,-0.4 19.6,9.2 z" /></defs>
			<clipPath
   id="SVGID_00000062188511795676021240000004052899836980070303_">
				<use
   xlink:href="#SVGID_00000103973384105460598710000000195606129684993691_"
   style="overflow:visible"
   id="use18" />
			</clipPath>
			<g
   clip-path="url(#SVGID_00000062188511795676021240000004052899836980070303_)"
   id="g21">
				<g
   id="g20">
					<g
   id="g19">
						<rect
   x="-20.5"
   y="177.89999"
   class="st6"
   width="100.4"
   height="42.700001"
   id="rect18" />
					</g>
				</g>
			</g>
		</g>
	</g>
	<g
   id="g32">
		<g
   id="g27">
			<defs
   id="defs23"><path
     id="SVGID_00000096059156269876591750000008617357858501539006_"
     d="m 43.4,672.4 c -0.5,3.9 -10.1,8.5 -18.5,8.5 v 0 C 16.7,681.3 5.4,677.1 5.4,672.4 L 5.9,54.5 C 7.6,49 17.2,49 23.7,49 v 0 c 7.7,0 18,-0.5 19.6,9.2 z" /></defs>
			<clipPath
   id="SVGID_00000044875689257231749740000007108824580225770901_">
				<use
   xlink:href="#SVGID_00000096059156269876591750000008617357858501539006_"
   style="overflow:visible"
   id="use23" />
			</clipPath>
			<g
   clip-path="url(#SVGID_00000044875689257231749740000007108824580225770901_)"
   id="g26">
				<g
   id="g25">
					<g
   id="g24">
						<rect
   x="-19.5"
   y="220.60001"
   class="st8"
   width="100.4"
   height="42.700001"
   id="rect23" />
					</g>
				</g>
			</g>
		</g>
		<g
   id="g31">
			<defs
   id="defs27"><path
     id="SVGID_00000182524329130907741750000010999567093516041864_"
     d="m 43.4,672.4 c -0.5,3.9 -10.1,8.5 -18.5,8.5 v 0 C 16.7,681.3 5.4,677.1 5.4,672.4 L 5.9,54.5 C 7.6,49 17.2,49 23.7,49 v 0 c 7.7,0 18,-0.5 19.6,9.2 z" /></defs>
			<clipPath
   id="SVGID_00000151502330886397469620000008117319405748056249_">
				<use
   xlink:href="#SVGID_00000182524329130907741750000010999567093516041864_"
   style="overflow:visible"
   id="use27" />
			</clipPath>
			<g
   clip-path="url(#SVGID_00000151502330886397469620000008117319405748056249_)"
   id="g30">
				<g
   id="g29">
					<g
   id="g28">
						<rect
   x="-26.4"
   y="263.29999"
   class="st10"
   width="100.4"
   height="42.700001"
   id="rect27" />
					</g>
				</g>
			</g>
		</g>
	</g>
	<g
   id="g39">
		<g
   id="g33">
			<defs
   id="defs32"><path
     id="SVGID_00000051347389029079076560000005964131848274692539_"
     d="m 43.3,58.1 0.2,614.3 v 0 c -0.5,3.9 -10.1,8.5 -18.5,8.5 v 0 c -8.2,0.4 -19.5,-3.8 -19.5,-8.5" /></defs>
			<clipPath
   id="SVGID_00000174583685244908463000000001203113660865998248_">
				<use
   xlink:href="#SVGID_00000051347389029079076560000005964131848274692539_"
   style="overflow:visible"
   id="use32" />
			</clipPath>
		</g>
		<g
   id="g38">
			<defs
   id="defs33"><path
     id="SVGID_00000167366551598417156850000011320242981064658875_"
     d="m 43.3,58.1 0.2,614.3 v 0 c -0.5,3.9 -10.1,8.5 -18.5,8.5 v 0 c -8.2,0.4 -19.5,-3.8 -19.5,-8.5" /></defs>
			<defs
   id="defs34"><line
     id="SVGID_00000127725607005162432190000018116589885160485273_"
     x1="23.700001"
     y1="49"
     x2="23.700001"
     y2="49" /></defs>
			<clipPath
   id="SVGID_00000093174447220401274690000014053806329987967643_">
				<use
   xlink:href="#SVGID_00000167366551598417156850000011320242981064658875_"
   style="overflow:visible"
   id="use34" />
			</clipPath>
			
				<clipPath
   id="SVGID_00000135681425006996098070000009832383513071191995_"
   clip-path="url(#SVGID_00000093174447220401274690000014053806329987967643_)">
				<use
   xlink:href="#SVGID_00000127725607005162432190000018116589885160485273_"
   style="overflow:visible"
   id="use35" />
			</clipPath>
			<g
   clip-path="url(#SVGID_00000135681425006996098070000009832383513071191995_)"
   id="g37">
				<g
   id="g36">
					<g
   id="g35">
						<rect
   x="-19.5"
   y="263.20001"
   class="st10"
   width="100.4"
   height="42.700001"
   id="rect35" />
					</g>
				</g>
			</g>
		</g>
	</g>
	<g
   id="g44">
		<g
   id="g43">
			<defs
   id="defs39"><path
     id="SVGID_00000101786065843802801530000011710995958679038879_"
     d="m 43.3,58.1 0.2,614.3 v 0 c -0.5,3.9 -10.1,8.5 -18.5,8.5 v 0 C 16.8,681.3 5.5,677.1 5.5,672.4 V 55.3 C 7.2,49.7 17.2,49 23.7,49 v 0" /></defs>
			<clipPath
   id="SVGID_00000005236855724387372350000010936402799480105894_">
				<use
   xlink:href="#SVGID_00000101786065843802801530000011710995958679038879_"
   style="overflow:visible"
   id="use39" />
			</clipPath>
			<g
   clip-path="url(#SVGID_00000005236855724387372350000010936402799480105894_)"
   id="g42">
				<g
   id="g41">
					<g
   id="g40">
						<rect
   x="-19.5"
   y="305.89999"
   class="st14"
   width="100.4"
   height="42.700001"
   id="rect39" />
					</g>
				</g>
			</g>
		</g>
	</g>
	<g
   id="g49">
		<g
   id="g48">
			<defs
   id="defs44"><path
     id="SVGID_00000179647324605580080520000000060524685560658058_"
     d="m 43.4,672.4 c -0.5,3.9 -10.1,8.5 -18.5,8.5 v 0 C 16.7,681.3 5.4,677.1 5.4,672.4 V 54.7 C 7.2,49.2 17.2,49 23.7,49 v 0 c 7.7,0 18.2,-0.4 19.6,9.2 z" /></defs>
			<clipPath
   id="SVGID_00000059278491404622599700000010227734225419434175_">
				<use
   xlink:href="#SVGID_00000179647324605580080520000000060524685560658058_"
   style="overflow:visible"
   id="use44" />
			</clipPath>
			<g
   clip-path="url(#SVGID_00000059278491404622599700000010227734225419434175_)"
   id="g47">
				<g
   id="g46">
					<g
   id="g45">
						<rect
   x="-18.200001"
   y="476.70001"
   class="st16"
   width="100.4"
   height="42.700001"
   id="rect44" />
					</g>
				</g>
			</g>
		</g>
	</g>
	<g
   id="g54">
		<g
   id="g53">
			<defs
   id="defs49"><path
     id="SVGID_00000062177055479858721090000009192149979927830183_"
     d="m 43.4,672.4 c -0.5,3.9 -10.1,8.5 -18.5,8.5 v 0 C 16.7,681.3 5.4,677.1 5.4,672.4 V 54.7 C 7.2,49.2 17.2,49 23.7,49 v 0 c 7.7,0 18.2,-0.9 19.6,9.2 z" /></defs>
			<clipPath
   id="SVGID_00000023252359849645579390000005023589990566849195_">
				<use
   xlink:href="#SVGID_00000062177055479858721090000009192149979927830183_"
   style="overflow:visible"
   id="use49" />
			</clipPath>
			<g
   clip-path="url(#SVGID_00000023252359849645579390000005023589990566849195_)"
   id="g52">
				<g
   id="g51">
					<g
   id="g50">
						<rect
   x="-18.200001"
   y="519.29999"
   class="st18"
   width="100.4"
   height="42.700001"
   id="rect49" />
					</g>
				</g>
			</g>
		</g>
	</g>
	<g
   id="g59">
		<g
   id="g58">
			<defs
   id="defs54"><path
     id="SVGID_00000026140552033417077870000011669743144434124961_"
     d="m 43.4,672.4 c -0.5,3.9 -10.1,8.5 -18.5,8.5 v 0 C 16.7,681.3 5.4,677.1 5.4,672.4 V 57.9 C 5.3,43.6 17.1,48.8 23.7,49 v 0 c 7.7,0 18.3,-0.5 19.6,9.2 z" /></defs>
			<clipPath
   id="SVGID_00000035532337254555054950000002717651302223807391_">
				<use
   xlink:href="#SVGID_00000026140552033417077870000011669743144434124961_"
   style="overflow:visible"
   id="use54" />
			</clipPath>
			<g
   clip-path="url(#SVGID_00000035532337254555054950000002717651302223807391_)"
   id="g57">
				<g
   id="g56">
					<g
   id="g55">
						<rect
   x="-17.299999"
   y="562"
   class="st20"
   width="100.4"
   height="42.700001"
   id="rect54" />
					</g>
				</g>
			</g>
		</g>
	</g>
	<g
   id="g64">
		<g
   id="g63">
			<defs
   id="defs59"><path
     id="SVGID_00000173882670384548108680000001470981119001908636_"
     d="m 43.4,672.4 c -0.5,3.9 -10.4,3.3 -18.8,3.3 v 0 c -8.2,0.4 -18.8,0.6 -18.8,-4.2 V 53.5 C 7.6,48 17.2,49 23.7,49 v 0 c 7.7,0 17.7,0.3 19.6,6.2 z" /></defs>
			<clipPath
   id="SVGID_00000099640556755543678700000003558292761622591392_">
				<use
   xlink:href="#SVGID_00000173882670384548108680000001470981119001908636_"
   style="overflow:visible"
   id="use59" />
			</clipPath>
			<g
   clip-path="url(#SVGID_00000099640556755543678700000003558292761622591392_)"
   id="g62">
				<g
   id="g61">
					<g
   id="g60">
						<rect
   x="-17.6"
   y="599.40002"
   class="st22"
   width="100.4"
   height="79"
   id="rect59" />
					</g>
				</g>
			</g>
		</g>
	</g>
	<g
   id="g69">
		<g
   id="g68">
			<defs
   id="defs64"><path
     id="SVGID_00000085968977628638069280000006640347774824157824_"
     d="m 43.4,672.4 c -0.5,3.9 -10.4,3.3 -18.8,3.3 v 0 c -8.2,0.4 -19.2,1.4 -19.2,-3.3 L 5.9,54.5 C 7.6,49 17.2,49 23.7,49 v 0 c 7.7,0 17.2,0.6 19.1,6.5 z" /></defs>
			<clipPath
   id="SVGID_00000043457998823215651880000000545353939392560821_">
				<use
   xlink:href="#SVGID_00000085968977628638069280000006640347774824157824_"
   style="overflow:visible"
   id="use64" />
			</clipPath>
			<g
   clip-path="url(#SVGID_00000043457998823215651880000000545353939392560821_)"
   id="g67">
				<g
   id="g66">
					<g
   id="g65">
						<rect
   x="-18.200001"
   y="348.60001"
   class="st24"
   width="100.4"
   height="42.700001"
   id="rect64" />
					</g>
				</g>
			</g>
		</g>
	</g>
	<g
   id="g74">
		<g
   id="g73">
			<defs
   id="defs69"><path
     id="SVGID_00000142175784129814553270000007192696009684292767_"
     d="m 43.4,672.4 c -0.5,3.9 -10.4,3.3 -18.8,3.3 v 0 c -8.2,0.4 -19.2,1.4 -18.4,-2.8 V 55.2 c 1,-6 11,-6.2 17.5,-6.2 v 0 c 7.7,0 17.2,0.3 19,6.2 z" /></defs>
			<clipPath
   id="SVGID_00000149348454001858903930000008724377331045532047_">
				<use
   xlink:href="#SVGID_00000142175784129814553270000007192696009684292767_"
   style="overflow:visible"
   id="use69" />
			</clipPath>
			<g
   clip-path="url(#SVGID_00000149348454001858903930000008724377331045532047_)"
   id="g72">
				<g
   id="g71">
					<g
   id="g70">
						<rect
   x="-18.200001"
   y="391.20001"
   class="st26"
   width="100.4"
   height="42.700001"
   id="rect69" />
					</g>
				</g>
			</g>
		</g>
	</g>
	<g
   id="g78">
		<g
   id="g77">
			<g
   id="g76">
				<g
   id="g75">
					<rect
   x="6.1999998"
   y="433.89999"
   class="st27"
   width="36.700001"
   height="42.700001"
   id="rect74" />
				</g>
			</g>
		</g>
	</g>
</g>
<g
   id="g152">
	<g
   id="g83"
   style="fill:#703f78;fill-opacity:1">
		<g
   id="g82"
   style="fill:#703f78;fill-opacity:1">
			<g
   id="g81"
   style="fill:#703f78;fill-opacity:1">
				<g
   id="g80"
   style="fill:#703f78;fill-opacity:1">
					<defs
   id="defs79"><path
     id="SVGID_00000095306118333899190970000008263986344567516047_"
     d="m 43.8,669.9 c -0.6,3.9 -10.3,8.6 -18.6,8.6 v 0 c -8.3,0.4 -19.7,-3.8 -19.7,-8.6 v -613 c 1.9,-5.7 5.6,-7.3 12.3,-7.3 l 7,0.1 c 13.7,-0.4 17.2,1.7 19.1,7.5 v 612.7 z" /></defs>
					<clipPath
   id="SVGID_00000036237804913724511440000016045759734750595973_">
						<use
   xlink:href="#SVGID_00000095306118333899190970000008263986344567516047_"
   style="overflow:visible"
   id="use79" />
					</clipPath>
					
						<rect
   x="-14.7"
   y="47.700001"
   style="fill:#703f78;fill-opacity:1"
   width="80.300003"
   height="33.5"
   clip-path="url(#SVGID_00000036237804913724511440000016045759734750595973_)"
   id="rect79" />
				</g>
			</g>
		</g>
	</g>
	<g
   id="g87"
   style="fill:#9f5fab;fill-opacity:1">
		<g
   id="g86"
   style="fill:#9f5fab;fill-opacity:1">
			<g
   id="g85"
   style="fill:#9f5fab;fill-opacity:1">
				<g
   id="g84"
   style="fill:#9f5fab;fill-opacity:1">
					<defs
   id="defs83"><path
     id="SVGID_00000013900998316839562090000015078570927197938084_"
     d="m 43.8,669.9 c -0.6,3.9 -10.3,8.6 -18.6,8.6 v 0 C 16.9,678.9 5.5,674.7 5.5,669.9 V 56.9 C 7.4,51.2 17.1,49.6 23.9,49.6 L 24,48 c 7.7,0 18,3.4 19.9,9.1 z" /></defs>
					<clipPath
   id="SVGID_00000152967093668192026530000000465111209991476143_">
						<use
   xlink:href="#SVGID_00000013900998316839562090000015078570927197938084_"
   style="overflow:visible"
   id="use83" />
					</clipPath>
					
						<rect
   x="-14.7"
   y="81.199997"
   style="fill:#9f5fab;fill-opacity:1"
   width="80.300003"
   height="33.5"
   clip-path="url(#SVGID_00000152967093668192026530000000465111209991476143_)"
   id="rect83" />
				</g>
			</g>
		</g>
	</g>
	<g
   id="g91">
		<g
   id="g90">
			<g
   id="g89">
				<g
   id="g88">
					<defs
   id="defs87"><path
     id="SVGID_00000176726011577445822520000015254020064233204359_"
     d="m 43.8,669.9 c -0.6,3.9 -10.3,8.6 -18.6,8.6 v 0 C 16.9,678.9 5.5,674.7 5.5,669.9 V 56.9 C 7.4,51.2 17,50.3 23.8,50.3 l 0.1,-0.2 c 7.7,0 18.1,1.2 20,7 z" /></defs>
					<clipPath
   id="SVGID_00000017499483960374199350000017099074820111435927_">
						<use
   xlink:href="#SVGID_00000176726011577445822520000015254020064233204359_"
   style="overflow:visible"
   id="use87" />
					</clipPath>
					
						<rect
   x="-13.9"
   y="114.6"
   style="fill:#b887c0"
   width="80.300003"
   height="33.5"
   clip-path="url(#SVGID_00000017499483960374199350000017099074820111435927_)"
   id="rect87" />
				</g>
			</g>
		</g>
	</g>
	<g
   id="g95">
		<g
   id="g94">
			<g
   id="g93">
				<g
   id="g92">
					<defs
   id="defs91"><path
     id="SVGID_00000065069464731131946910000005244424538418956975_"
     d="m 43.8,669.9 c -0.6,3.9 -10.3,8.6 -18.6,8.6 v 0 C 16.9,678.9 5.5,674.7 5.5,669.9 V 56.9 C 7.4,51.2 17,50.3 23.8,50.3 L 24,48 c 7.7,0 18,3.4 19.9,9.1 z" /></defs>
					<clipPath
   id="SVGID_00000183933240431350532380000010711798166279759538_">
						<use
   xlink:href="#SVGID_00000065069464731131946910000005244424538418956975_"
   style="overflow:visible"
   id="use91" />
					</clipPath>
					
						<rect
   x="-13.9"
   y="148.10001"
   style="fill:#d6a1cc"
   width="80.300003"
   height="33.5"
   clip-path="url(#SVGID_00000183933240431350532380000010711798166279759538_)"
   id="rect91" />
				</g>
			</g>
		</g>
	</g>
	<g
   id="g99">
		<g
   id="g98">
			<g
   id="g97">
				<g
   id="g96">
					<defs
   id="defs95"><path
     id="SVGID_00000176034523550282780680000016156790409117772978_"
     d="m 43.8,669.9 c -0.6,3.9 -10.3,8.6 -18.6,8.6 v 0 C 16.9,678.9 5.5,674.7 5.5,669.9 V 56.9 C 7.4,51.2 17.1,50 23.8,50 l 0.1,-2.1 c 7.7,0 18,3.4 19.9,9.1 z" /></defs>
					<clipPath
   id="SVGID_00000177475483195241995670000007660616027010651053_">
						<use
   xlink:href="#SVGID_00000176034523550282780680000016156790409117772978_"
   style="overflow:visible"
   id="use95" />
					</clipPath>
					
						<rect
   x="-14.7"
   y="181.5"
   style="fill:#e7bdda"
   width="80.300003"
   height="33.5"
   clip-path="url(#SVGID_00000177475483195241995670000007660616027010651053_)"
   id="rect95" />
				</g>
			</g>
		</g>
	</g>
	<g
   id="g103">
		<g
   id="g102">
			<g
   id="g101">
				<g
   id="g100">
					<defs
   id="defs99"><path
     id="SVGID_00000072967093057458974930000018415811516930245788_"
     d="m 43.8,669.9 c -0.6,3.9 -10.3,8.6 -18.6,8.6 v 0 C 16.9,678.9 5.5,674.7 5.5,669.9 V 56.9 C 7.4,51.2 17.2,50.4 23.9,50.4 V 48 c 7.7,0 18,3.4 19.9,9.1 z" /></defs>
					<clipPath
   id="SVGID_00000074431119165340110940000004045014954529956761_">
						<use
   xlink:href="#SVGID_00000072967093057458974930000018415811516930245788_"
   style="overflow:visible"
   id="use99" />
					</clipPath>
					
						<rect
   x="-14.7"
   y="215"
   style="fill:#e57d9a"
   width="80.300003"
   height="33.5"
   clip-path="url(#SVGID_00000074431119165340110940000004045014954529956761_)"
   id="rect99" />
				</g>
			</g>
		</g>
	</g>
	<g
   id="g107">
		<g
   id="g106">
			<g
   id="g105">
				<g
   id="g104">
					<defs
   id="defs103"><path
     id="SVGID_00000031892378095666137100000004518793583054023586_"
     d="m 43.8,669.9 c -0.6,3.9 -10.3,8.6 -18.6,8.6 v 0 C 16.9,678.9 5.5,674.7 5.5,669.9 V 56.9 C 7.4,51.2 17.2,49.8 23.9,49.8 V 48 c 7.7,0 18,3.4 19.9,9.1 z" /></defs>
					<clipPath
   id="SVGID_00000061448077914758749100000005658061403931891354_">
						<use
   xlink:href="#SVGID_00000031892378095666137100000004518793583054023586_"
   style="overflow:visible"
   id="use103" />
					</clipPath>
					
						<rect
   x="-14.7"
   y="248.5"
   style="fill:#da4c4d"
   width="80.300003"
   height="33.5"
   clip-path="url(#SVGID_00000061448077914758749100000005658061403931891354_)"
   id="rect103" />
				</g>
			</g>
		</g>
	</g>
	<g
   id="g111">
		<g
   id="g110">
			<g
   id="g109">
				<g
   id="g108">
					<defs
   id="defs107"><path
     id="SVGID_00000155828310080107995180000015610626607884285103_"
     d="m 43.8,669.9 c -0.6,3.9 -10.3,8.6 -18.6,8.6 v 0 C 16.9,678.9 5.5,674.7 5.5,669.9 V 56.9 C 7.4,51.2 16.9,49.7 23.7,49.7 L 24,48 c 7.7,0 18,3.4 19.9,9.1 z" /></defs>
					<clipPath
   id="SVGID_00000161619479969550241580000007546894331627434655_">
						<use
   xlink:href="#SVGID_00000155828310080107995180000015610626607884285103_"
   style="overflow:visible"
   id="use107" />
					</clipPath>
					
						<rect
   x="-14.7"
   y="281.89999"
   style="fill:#ee5a5c"
   width="80.300003"
   height="33.5"
   clip-path="url(#SVGID_00000161619479969550241580000007546894331627434655_)"
   id="rect107" />
				</g>
			</g>
		</g>
	</g>
	<g
   id="g115">
		<g
   id="g114">
			<g
   id="g113">
				<g
   id="g112">
					<defs
   id="defs111"><path
     id="SVGID_00000015344723277444581900000017792826915056527749_"
     d="m 43.8,669.9 c -0.6,3.9 -10.3,8.6 -18.6,8.6 v 0 C 16.9,678.9 5.5,674.7 5.5,669.9 V 56.9 C 7.4,51.2 16.8,50 23.5,50 l 0.6,-0.2 c 7.7,0 17.9,1.6 19.8,7.4 z" /></defs>
					<clipPath
   id="SVGID_00000067219704631057147810000017342099431584911512_">
						<use
   xlink:href="#SVGID_00000015344723277444581900000017792826915056527749_"
   style="overflow:visible"
   id="use111" />
					</clipPath>
					
						<rect
   x="-13.9"
   y="315.5"
   style="fill:#f6a15c"
   width="80.300003"
   height="33.5"
   clip-path="url(#SVGID_00000067219704631057147810000017342099431584911512_)"
   id="rect111" />
				</g>
			</g>
		</g>
	</g>
	<g
   id="g119">
		<g
   id="g118">
			<g
   id="g117">
				<g
   id="g116">
					<defs
   id="defs115"><path
     id="SVGID_00000016046895296069775310000015205944058513939591_"
     d="m 43.8,669.9 c -0.6,3.9 -10.3,8.6 -18.6,8.6 v 0 C 16.9,678.9 5.5,674.7 5.5,669.9 V 56.9 C 7.4,51.2 16.9,50 23.7,50 L 24,48 c 7.7,0 18,3.4 19.9,9.1 z" /></defs>
					<clipPath
   id="SVGID_00000111190361264186186200000006193840185062818987_">
						<use
   xlink:href="#SVGID_00000016046895296069775310000015205944058513939591_"
   style="overflow:visible"
   id="use115" />
					</clipPath>
					
						<rect
   x="-13.9"
   y="348.89999"
   style="fill:#fcd48e"
   width="80.300003"
   height="33.5"
   clip-path="url(#SVGID_00000111190361264186186200000006193840185062818987_)"
   id="rect115" />
				</g>
			</g>
		</g>
	</g>
	<g
   id="g123">
		<g
   id="g122">
			<g
   id="g121">
				<g
   id="g120">
					<defs
   id="defs119"><path
     id="SVGID_00000039854981575541285720000013633018492659290254_"
     d="m 43.8,669.9 c -0.6,3.9 -10.3,8.6 -18.6,8.6 v 0 C 16.9,678.9 5.5,674.7 5.5,669.9 V 56.9 C 7.4,51.2 16.9,50 23.7,50 l -0.1,0.8 c 7.7,0 18.4,0.6 20.3,6.3 z" /></defs>
					<clipPath
   id="SVGID_00000177449778994608937730000015279749905167871661_">
						<use
   xlink:href="#SVGID_00000039854981575541285720000013633018492659290254_"
   style="overflow:visible"
   id="use119" />
					</clipPath>
					
						<rect
   x="-13.9"
   y="382.39999"
   style="fill:#ffe073"
   width="80.300003"
   height="33.5"
   clip-path="url(#SVGID_00000177449778994608937730000015279749905167871661_)"
   id="rect119" />
				</g>
			</g>
		</g>
	</g>
	<g
   id="g127">
		<g
   id="g126">
			<g
   id="g125">
				<g
   id="g124">
					<defs
   id="defs123"><path
     id="SVGID_00000073685478272951397820000013669428964151745189_"
     d="m 43.8,669.9 c -0.6,3.9 -10.3,8.6 -18.6,8.6 v 0 C 16.9,678.9 5.5,674.7 5.5,669.9 V 56.9 C 7.4,51.2 16.9,49 23.7,49 v 0 c 7.7,0 18.2,2.3 20.2,8.1 v 612.8 z" /></defs>
					<clipPath
   id="SVGID_00000114044936650750335450000011124203724407569826_">
						<use
   xlink:href="#SVGID_00000073685478272951397820000013669428964151745189_"
   style="overflow:visible"
   id="use123" />
					</clipPath>
					
						<rect
   x="-13"
   y="516.29999"
   style="fill:#d2eba3"
   width="80.300003"
   height="33.5"
   clip-path="url(#SVGID_00000114044936650750335450000011124203724407569826_)"
   id="rect123" />
				</g>
			</g>
		</g>
	</g>
	<g
   id="g131">
		<g
   id="g130">
			<g
   id="g129">
				<g
   id="g128">
					<defs
   id="defs127"><path
     id="SVGID_00000083080055961284191350000001104071346988187794_"
     d="m 43.8,669.9 c -0.6,3.9 -10.3,8.6 -18.6,8.6 v 0 C 16.9,678.9 5.5,674.7 5.5,669.9 V 56.9 C 7.4,51.2 16.9,50 23.7,50 v 0 c 7.7,0 18.2,1.4 20.2,7.1 v 612.8 z" /></defs>
					<clipPath
   id="SVGID_00000106825401087513811670000007824918253005983125_">
						<use
   xlink:href="#SVGID_00000083080055961284191350000001104071346988187794_"
   style="overflow:visible"
   id="use127" />
					</clipPath>
					
						<rect
   x="-13"
   y="549.70001"
   style="fill:#c2e5d7"
   width="80.300003"
   height="33.5"
   clip-path="url(#SVGID_00000106825401087513811670000007824918253005983125_)"
   id="rect127" />
				</g>
			</g>
		</g>
	</g>
	<g
   id="g135">
		<g
   id="g134">
			<g
   id="g133">
				<g
   id="g132">
					<defs
   id="defs131"><path
     id="SVGID_00000059988245837298828420000012330961194787201177_"
     d="m 43.8,669.9 c -0.6,3.9 -10.3,8.6 -18.6,8.6 v 0 C 16.9,678.9 5.5,674.7 5.5,669.9 V 56.9 C 7.4,51.2 16.9,50 23.7,50 v 0 c 7.7,0 18.2,1.4 20.2,7.1 v 612.8 z" /></defs>
					<clipPath
   id="SVGID_00000096039271704479866060000009648816334659723197_">
						<use
   xlink:href="#SVGID_00000059988245837298828420000012330961194787201177_"
   style="overflow:visible"
   id="use131" />
					</clipPath>
					
						<rect
   x="-12.2"
   y="583.20001"
   style="fill:#c7e7ef"
   width="80.300003"
   height="33.5"
   clip-path="url(#SVGID_00000096039271704479866060000009648816334659723197_)"
   id="rect131" />
				</g>
			</g>
		</g>
	</g>
	<g
   id="g139">
		<g
   id="g138">
			<g
   id="g137">
				<g
   id="g136">
					<defs
   id="defs135"><path
     id="SVGID_00000142175726835586541790000013543688816187805113_"
     d="m 43.8,669.9 c -0.6,3.9 -7.4,6.6 -15.8,6.6 h -6.9 c -8.3,0.4 -15.7,-1.8 -15.7,-6.7 v -613 c 1.9,-5.7 12.2,-6.9 19,-6.9 v 0 c 7.7,0 17.5,1.4 19.4,7.1 z" /></defs>
					<clipPath
   id="SVGID_00000000906424048473596240000001105931398595712906_">
						<use
   xlink:href="#SVGID_00000142175726835586541790000013543688816187805113_"
   style="overflow:visible"
   id="use135" />
					</clipPath>
					
						<rect
   x="-12.2"
   y="616.59998"
   style="fill:#cfeaf6"
   width="80.300003"
   height="62"
   clip-path="url(#SVGID_00000000906424048473596240000001105931398595712906_)"
   id="rect135" />
				</g>
			</g>
		</g>
	</g>
	<g
   id="g143">
		<g
   id="g142">
			<g
   id="g141">
				<g
   id="g140">
					<defs
   id="defs139"><path
     id="SVGID_00000108274830735062167740000016472850246680595869_"
     d="m 43.8,669.9 c -0.6,3.9 -10.8,3.9 -19.2,3.9 l 0.6,4.7 C 16.9,678.9 5.5,674.7 5.5,669.9 V 56.9 C 7.4,51.2 16.9,50 23.7,50 v 0 c 7.7,0 18.2,1.4 20.2,7.1 v 612.8 z" /></defs>
					<clipPath
   id="SVGID_00000139252669530009320200000010824411310731686060_">
						<use
   xlink:href="#SVGID_00000108274830735062167740000016472850246680595869_"
   style="overflow:visible"
   id="use139" />
					</clipPath>
					
						<rect
   x="-13"
   y="415.89999"
   style="fill:#fdfd81"
   width="80.300003"
   height="33.5"
   clip-path="url(#SVGID_00000139252669530009320200000010824411310731686060_)"
   id="rect139" />
				</g>
			</g>
		</g>
	</g>
	<g
   id="g147">
		<g
   id="g146">
			<g
   id="g145">
				<g
   id="g144">
					<defs
   id="defs143"><path
     id="SVGID_00000103234246209533546580000002546803879169234313_"
     d="m 43.8,669.9 c -0.6,3.9 -10.3,5.8 -18.7,5.8 v 2.8 C 16.8,678.9 5.4,674.7 5.4,669.9 V 56.9 C 7.3,51.2 16.8,50 23.6,50 v -1 c 7.7,0 18.2,2.3 20.2,8.1 z" /></defs>
					<clipPath
   id="SVGID_00000181087046035747364950000005420859999187340986_">
						<use
   xlink:href="#SVGID_00000103234246209533546580000002546803879169234313_"
   style="overflow:visible"
   id="use143" />
					</clipPath>
					
						<rect
   x="-13"
   y="449.29999"
   style="fill:#ffffc6"
   width="80.300003"
   height="33.5"
   clip-path="url(#SVGID_00000181087046035747364950000005420859999187340986_)"
   id="rect143" />
				</g>
			</g>
		</g>
	</g>
	<g
   id="g151">
		<g
   id="g150">
			<g
   id="g149">
				<g
   id="g148">
					<defs
   id="defs147"><path
     id="SVGID_00000049904551408888550830000014759397426837745595_"
     d="m 43.8,669.9 c -0.6,3.9 -10.3,6.2 -18.6,6.2 v 2.4 C 16.9,678.9 5.5,674.7 5.5,669.9 V 56.9 C 7.4,51.2 16.9,50 23.7,50 v 0 c 7.7,0 18.2,1.4 20.2,7.1 v 612.8 z" /></defs>
					<clipPath
   id="SVGID_00000005249520868864038570000006925458394127014841_">
						<use
   xlink:href="#SVGID_00000049904551408888550830000014759397426837745595_"
   style="overflow:visible"
   id="use147" />
					</clipPath>
					
						<rect
   x="-13"
   y="482.79999"
   style="fill:#f2f2a0"
   width="80.300003"
   height="33.5"
   clip-path="url(#SVGID_00000005249520868864038570000006925458394127014841_)"
   id="rect147" />
				</g>
			</g>
		</g>
	</g>
</g>
<circle
   class="st46"
   cx="24.1"
   cy="26.6"
   r="19.799999"
   id="circle152" />
<rect
   x="11.1"
   y="632"
   class="st47"
   width="15.4"
   height="11.8"
   id="rect152" />
<path
   class="st48"
   d="M 36.6,675.8 H 12.1 c -3.4,0 -6.2,-2.8 -6.2,-6.2 V 56.1 c 0,-3.4 2.8,-6.2 6.2,-6.2 h 24.5 c 3.4,0 6.2,2.8 6.2,6.2 v 613.5 c 0,3.4 -2.8,6.2 -6.2,6.2 z"
   id="path152" />
<g
   id="g153">
	<path
   class="st49"
   d="m 25.8,611.1 v 7.9 h -0.9 v -6.9 l -2,1.3 -0.4,-0.7 2.5,-1.7 h 0.8 z"
   id="path153" />
</g>
<g
   id="g154">
	<path
   class="st49"
   d="m 26.7,585.7 h -5.1 v -0.8 l 2.3,-2.4 c 0.4,-0.4 0.7,-0.7 0.9,-0.9 0.2,-0.2 0.4,-0.5 0.5,-0.8 0.1,-0.3 0.2,-0.6 0.2,-0.9 0,-0.5 -0.1,-0.9 -0.4,-1.1 -0.3,-0.2 -0.7,-0.3 -1.3,-0.3 -0.5,0 -1.1,0.1 -1.7,0.2 l -0.3,0.1 -0.1,-0.8 c 0.8,-0.2 1.5,-0.3 2.4,-0.3 0.8,0 1.4,0.2 1.8,0.5 0.4,0.3 0.6,0.9 0.6,1.6 0,0.6 -0.1,1 -0.4,1.5 -0.3,0.5 -0.7,0.9 -1.3,1.5 l -2.1,2.1 h 4 z"
   id="path154" />
</g>
<g
   id="g156">
	<path
   class="st50"
   d="m 21.4,251.2 v -1.5 H 17.6 V 249 l 2.3,-5.7 h 1 l -2.3,5.6 h 2.9 v -2.5 h 0.9 v 2.5 h 1 v 0.8 h -1 v 1.5 z"
   id="path155" />
	<path
   class="st50"
   d="m 27.1,243.2 c 0.7,0 1.2,0.1 1.6,0.4 0.9,0.5 1.3,1.8 1.3,3.8 0,1.4 -0.2,2.5 -0.7,3.1 -0.5,0.6 -1.2,0.9 -2.2,0.9 -1,0 -1.7,-0.3 -2.2,-0.9 -0.5,-0.6 -0.7,-1.6 -0.7,-3.1 0,-1.5 0.2,-2.6 0.7,-3.2 0.5,-0.7 1.3,-1 2.2,-1 z m 0,0.8 c -0.5,0 -0.8,0.1 -1.1,0.3 -0.6,0.4 -0.9,1.4 -0.9,3.1 0,1.2 0.2,2 0.5,2.5 0.3,0.5 0.8,0.7 1.5,0.7 0.7,0 1.2,-0.2 1.5,-0.7 0.3,-0.5 0.5,-1.3 0.5,-2.5 0,-1.2 -0.2,-2.1 -0.5,-2.6 -0.3,-0.5 -0.8,-0.8 -1.5,-0.8 z"
   id="path156" />
</g>
<g
   id="g158">
	<path
   class="st49"
   d="m 22.1,209.6 v 0.8 H 18.2 L 18,213 c 0.6,-0.3 1.2,-0.5 1.9,-0.5 1.7,0 2.5,0.8 2.5,2.3 0,0.9 -0.2,1.6 -0.7,2.1 -0.5,0.5 -1.1,0.7 -2,0.7 -0.7,0 -1.4,-0.1 -2.2,-0.3 l -0.4,-0.1 0.1,-0.7 c 0.9,0.2 1.7,0.3 2.3,0.3 0.6,0 1.1,-0.2 1.4,-0.5 0.3,-0.3 0.5,-0.8 0.5,-1.4 0,-0.6 -0.1,-1 -0.4,-1.2 -0.3,-0.2 -0.7,-0.4 -1.2,-0.4 -0.3,0 -0.6,0 -0.9,0.1 -0.3,0.1 -0.6,0.2 -0.7,0.2 l -0.3,0.1 -0.6,-0.1 0.2,-4.1 z"
   id="path157" />
	<path
   class="st49"
   d="m 26.5,209.5 c 0.7,0 1.2,0.1 1.6,0.4 0.9,0.5 1.3,1.8 1.3,3.8 0,1.4 -0.2,2.5 -0.7,3.1 -0.5,0.6 -1.2,0.9 -2.2,0.9 -1,0 -1.7,-0.3 -2.2,-0.9 -0.5,-0.6 -0.7,-1.6 -0.7,-3.1 0,-1.5 0.2,-2.6 0.7,-3.2 0.5,-0.7 1.2,-1 2.2,-1 z m 0,0.8 c -0.5,0 -0.8,0.1 -1.1,0.3 -0.6,0.4 -0.9,1.4 -0.9,3.1 0,1.2 0.2,2 0.5,2.5 0.3,0.5 0.8,0.7 1.5,0.7 0.7,0 1.2,-0.2 1.5,-0.7 0.3,-0.5 0.5,-1.3 0.5,-2.5 0,-1.2 -0.1,-2.1 -0.5,-2.6 -0.3,-0.5 -0.8,-0.8 -1.5,-0.8 z"
   id="path158" />
</g>
<g
   id="g161">
	<path
   class="st49"
   d="m 19.8,144.1 v 7.9 h -0.9 v -6.9 l -2,1.3 -0.4,-0.7 2.5,-1.7 z"
   id="path159" />
	<path
   class="st49"
   d="m 25.2,144 c 0.7,0 1.2,0.1 1.6,0.4 0.9,0.5 1.3,1.8 1.3,3.8 0,1.4 -0.2,2.5 -0.7,3.1 -0.5,0.6 -1.2,0.9 -2.2,0.9 -1,0 -1.7,-0.3 -2.2,-0.9 -0.5,-0.6 -0.7,-1.6 -0.7,-3.1 0,-1.5 0.2,-2.6 0.7,-3.2 0.5,-0.7 1.2,-1 2.2,-1 z m 0,0.8 c -0.5,0 -0.8,0.1 -1.1,0.3 -0.6,0.4 -0.9,1.4 -0.9,3.1 0,1.2 0.2,2 0.5,2.5 0.3,0.5 0.8,0.7 1.5,0.7 0.7,0 1.2,-0.2 1.5,-0.7 0.3,-0.5 0.5,-1.3 0.5,-2.5 0,-1.2 -0.2,-2.1 -0.5,-2.6 -0.3,-0.5 -0.8,-0.8 -1.5,-0.8 z"
   id="path160" />
	<path
   class="st49"
   d="m 31.9,144 c 0.7,0 1.2,0.1 1.6,0.4 0.9,0.5 1.3,1.8 1.3,3.8 0,1.4 -0.2,2.5 -0.7,3.1 -0.5,0.6 -1.2,0.9 -2.2,0.9 -1,0 -1.7,-0.3 -2.2,-0.9 -0.5,-0.6 -0.7,-1.6 -0.7,-3.1 0,-1.5 0.2,-2.6 0.7,-3.2 0.5,-0.7 1.2,-1 2.2,-1 z m 0,0.8 c -0.5,0 -0.8,0.1 -1.1,0.3 -0.6,0.4 -0.9,1.4 -0.9,3.1 0,1.2 0.2,2 0.5,2.5 0.3,0.5 0.8,0.7 1.5,0.7 0.7,0 1.2,-0.2 1.5,-0.7 0.3,-0.5 0.5,-1.3 0.5,-2.5 0,-1.2 -0.2,-2.1 -0.5,-2.6 -0.3,-0.5 -0.8,-0.8 -1.5,-0.8 z"
   id="path161" />
</g>
<g
   id="g164">
	<path
   class="st50"
   d="m 19.8,117.4 h -5.1 v -0.8 l 2.3,-2.4 c 0.4,-0.4 0.7,-0.7 0.9,-0.9 0.2,-0.2 0.3,-0.5 0.5,-0.8 0.1,-0.3 0.2,-0.6 0.2,-0.9 0,-0.5 -0.1,-0.9 -0.4,-1.1 -0.3,-0.2 -0.7,-0.3 -1.3,-0.3 -0.5,0 -1.1,0.1 -1.7,0.2 l -0.3,0.1 -0.1,-0.8 c 0.8,-0.2 1.5,-0.3 2.4,-0.3 0.8,0 1.4,0.2 1.8,0.5 0.4,0.3 0.6,0.9 0.6,1.6 0,0.6 -0.1,1 -0.4,1.5 -0.3,0.5 -0.7,0.9 -1.3,1.5 l -2.1,2.1 h 4 z"
   id="path162" />
	<path
   class="st50"
   d="m 24,109.4 c 0.7,0 1.2,0.1 1.6,0.4 0.9,0.5 1.3,1.8 1.3,3.8 0,1.4 -0.2,2.5 -0.7,3.1 -0.5,0.6 -1.2,0.9 -2.2,0.9 -1,0 -1.7,-0.3 -2.2,-0.9 -0.5,-0.6 -0.7,-1.6 -0.7,-3.1 0,-1.5 0.2,-2.6 0.7,-3.2 0.5,-0.7 1.2,-1 2.2,-1 z m 0,0.8 c -0.5,0 -0.8,0.1 -1.1,0.3 -0.6,0.4 -0.9,1.4 -0.9,3.1 0,1.2 0.2,2 0.5,2.5 0.3,0.5 0.8,0.7 1.5,0.7 0.7,0 1.2,-0.2 1.5,-0.7 0.3,-0.5 0.5,-1.3 0.5,-2.5 0,-1.2 -0.1,-2.1 -0.5,-2.6 -0.4,-0.5 -0.8,-0.8 -1.5,-0.8 z"
   id="path163" />
	<path
   class="st50"
   d="m 30.7,109.4 c 0.7,0 1.2,0.1 1.6,0.4 0.9,0.5 1.3,1.8 1.3,3.8 0,1.4 -0.2,2.5 -0.7,3.1 -0.5,0.6 -1.2,0.9 -2.2,0.9 -1,0 -1.7,-0.3 -2.2,-0.9 -0.5,-0.6 -0.7,-1.6 -0.7,-3.1 0,-1.5 0.2,-2.6 0.7,-3.2 0.5,-0.7 1.2,-1 2.2,-1 z m 0,0.8 c -0.5,0 -0.8,0.1 -1.1,0.3 -0.6,0.4 -0.9,1.4 -0.9,3.1 0,1.2 0.2,2 0.5,2.5 0.3,0.5 0.8,0.7 1.5,0.7 0.7,0 1.2,-0.2 1.5,-0.7 0.3,-0.5 0.5,-1.3 0.5,-2.5 0,-1.2 -0.1,-2.1 -0.5,-2.6 -0.3,-0.5 -0.8,-0.8 -1.5,-0.8 z"
   id="path164" />
</g>
<g
   id="g167">
	<path
   class="st50"
   d="m 14.1,76.7 c 0.8,-0.2 1.6,-0.3 2.4,-0.3 0.9,0 1.5,0.2 1.9,0.5 0.4,0.3 0.6,0.9 0.6,1.6 0,0.4 0,0.6 -0.1,0.8 -0.1,0.2 -0.2,0.3 -0.2,0.4 -0.1,0.1 -0.1,0.2 -0.2,0.3 -0.2,0.1 -0.3,0.2 -0.4,0.3 L 18,80.4 c 0.5,0.2 0.8,0.4 1,0.6 0.2,0.3 0.3,0.7 0.3,1.3 0,0.8 -0.2,1.4 -0.6,1.8 -0.4,0.4 -1.1,0.6 -2,0.6 -0.7,0 -1.4,-0.1 -2.2,-0.2 L 14,84.2 14.1,83.4 c 0.9,0.2 1.7,0.3 2.4,0.3 1.1,0 1.7,-0.5 1.7,-1.5 0,-1 -0.5,-1.4 -1.6,-1.5 H 15 v -0.8 h 1.6 c 0.3,0 0.7,-0.1 1,-0.4 0.3,-0.3 0.5,-0.6 0.5,-1.1 0,-0.4 -0.1,-0.8 -0.4,-1 -0.3,-0.2 -0.7,-0.3 -1.2,-0.3 -0.6,0 -1.3,0.1 -1.9,0.2 l -0.3,0.1 z"
   id="path165" />
	<path
   class="st50"
   d="m 23.3,76.4 c 0.7,0 1.2,0.1 1.6,0.4 0.9,0.5 1.3,1.8 1.3,3.8 0,1.4 -0.2,2.5 -0.7,3.1 -0.5,0.6 -1.2,0.9 -2.2,0.9 -1,0 -1.7,-0.3 -2.2,-0.9 -0.5,-0.6 -0.7,-1.6 -0.7,-3.1 0,-1.5 0.2,-2.6 0.7,-3.2 0.5,-0.7 1.3,-1 2.2,-1 z m 0,0.8 c -0.5,0 -0.8,0.1 -1.1,0.3 -0.6,0.4 -0.9,1.4 -0.9,3.1 0,1.2 0.2,2 0.5,2.5 0.3,0.5 0.8,0.7 1.5,0.7 0.7,0 1.2,-0.2 1.5,-0.7 0.3,-0.5 0.5,-1.3 0.5,-2.5 0,-1.2 -0.1,-2.1 -0.5,-2.6 -0.3,-0.5 -0.8,-0.8 -1.5,-0.8 z"
   id="path166" />
	<path
   class="st50"
   d="m 30.1,76.4 c 0.7,0 1.2,0.1 1.6,0.4 0.9,0.5 1.3,1.8 1.3,3.8 0,1.4 -0.2,2.5 -0.7,3.1 -0.5,0.6 -1.2,0.9 -2.2,0.9 -1,0 -1.7,-0.3 -2.2,-0.9 -0.5,-0.6 -0.7,-1.6 -0.7,-3.1 0,-1.5 0.2,-2.6 0.7,-3.2 0.5,-0.7 1.2,-1 2.2,-1 z m 0,0.8 c -0.5,0 -0.8,0.1 -1.1,0.3 -0.6,0.4 -0.9,1.4 -0.9,3.1 0,1.2 0.2,2 0.5,2.5 0.3,0.5 0.8,0.7 1.5,0.7 0.7,0 1.2,-0.2 1.5,-0.7 0.3,-0.5 0.5,-1.3 0.5,-2.5 0,-1.2 -0.1,-2.1 -0.5,-2.6 -0.4,-0.5 -0.8,-0.8 -1.5,-0.8 z"
   id="path167" />
</g>
<line
   class="st51"
   x1="6.8000002"
   y1="615.90002"
   x2="19.700001"
   y2="615.90002"
   id="line167" />
<line
   class="st51"
   x1="42.5"
   y1="615.90002"
   x2="28.9"
   y2="615.90002"
   id="line168" />
<line
   class="st51"
   x1="5.5"
   y1="582.59998"
   x2="19.299999"
   y2="582.59998"
   id="line169" />
<line
   class="st51"
   x1="41.900002"
   y1="582.59998"
   x2="28.5"
   y2="582.59998"
   id="line170" />
<line
   class="st51"
   x1="4.9000001"
   y1="248.8"
   x2="16.1"
   y2="248.8"
   id="line171" />
<line
   class="st51"
   x1="42.200001"
   y1="248.89999"
   x2="31"
   y2="248.89999"
   id="line172" />
<line
   class="st51"
   x1="5.8000002"
   y1="215.2"
   x2="16.6"
   y2="215.2"
   id="line173" />
<line
   class="st51"
   x1="41.599998"
   y1="215.2"
   x2="30.700001"
   y2="215.2"
   id="line174" />
<line
   class="st51"
   x1="16.1"
   y1="148.2"
   x2="6.4000001"
   y2="148.2"
   id="line175" />
<line
   class="st51"
   x1="42.900002"
   y1="148.39999"
   x2="36"
   y2="148.39999"
   id="line176" />
<line
   class="st51"
   x1="5.5999999"
   y1="114.6"
   x2="14.2"
   y2="114.6"
   id="line177" />
<line
   class="st51"
   x1="42.299999"
   y1="114.6"
   x2="34.799999"
   y2="114.6"
   id="line178" />
<line
   class="st51"
   x1="6"
   y1="81"
   x2="14"
   y2="81"
   id="line179" />
<line
   class="st51"
   x1="34.099998"
   y1="81"
   x2="42.099998"
   y2="81"
   id="line180" />
<g
   id="g180">
	<path
   class="st52"
   d="m 38.8,27 v -0.1 c 0,-7.5 -6.2,-13.7 -13.9,-14.1 v -1.3 c 0,-0.3 -0.3,-0.7 -0.8,-0.7 -0.5,0 -0.8,0.3 -0.8,0.7 v 1.3 c -7.8,0.3 -13.9,6.6 -13.9,14.1 0,0.3 0.3,0.7 0.8,0.7 0.2,0 0.3,-0.1 0.6,-0.2 2.5,-2.3 5.8,-2.3 8.2,0 0.1,0.1 0.3,0.2 0.6,0.2 0.2,0 0.3,-0.1 0.5,-0.2 1,-0.9 2.2,-1.5 3.4,-1.6 v 9.8 c 0,1.9 1.7,3.7 3.8,3.7 2.1,0 3.8,-1.6 3.8,-3.7 0,-0.3 -0.3,-0.7 -0.8,-0.7 -0.5,0 -0.8,0.3 -0.8,0.7 0,1.1 -1,2.2 -2.3,2.2 -1.3,0 -2.3,-1 -2.3,-2.2 v -9.8 c 1.1,0.1 2.4,0.7 3.4,1.6 0.2,0.2 0.8,0.2 1,0 2.5,-2.3 5.8,-2.3 8.3,0 0.2,0.2 0.7,0.2 0.9,0.1 0.2,-0.1 0.3,-0.3 0.3,-0.5 z M 28.1,25.5 c -1.3,-0.8 -2.6,-1.3 -4,-1.3 H 24 23.9 c -1.4,0 -2.7,0.5 -4,1.3 -0.3,-4.9 0.9,-8.8 2.5,-10.5 1,-1.1 2.1,-1.1 3.2,0 1.5,1.7 2.9,5.5 2.5,10.5 z M 10.9,25.3 c 0.7,-5.4 4.8,-9.6 10,-10.8 -1.5,1.9 -2.9,5.7 -2.5,10.8 -2.2,-1.4 -5.1,-1.4 -7.5,0 z m 18.8,0 c 0.3,-5.1 -1,-8.9 -2.5,-10.8 5.4,1.3 9.4,5.5 10,10.8 -2.4,-1.4 -5.2,-1.4 -7.5,0 z"
   id="path180" />
</g>
<g
   id="g181">
	<path
   class="st49"
   d="m 22.2,545.1 c 0.8,-0.2 1.6,-0.3 2.4,-0.3 0.8,0 1.5,0.2 1.9,0.5 0.4,0.3 0.6,0.9 0.6,1.6 0,0.4 -0.1,0.6 -0.2,0.8 -0.1,0.2 -0.2,0.3 -0.2,0.4 -0.1,0.1 -0.1,0.2 -0.2,0.3 -0.2,0.1 -0.3,0.2 -0.4,0.3 l -0.1,0.1 c 0.5,0.2 0.8,0.4 1,0.6 0.2,0.2 0.3,0.7 0.3,1.3 0,0.8 -0.2,1.4 -0.6,1.8 -0.4,0.4 -1.1,0.6 -1.9,0.6 -0.7,0 -1.4,-0.1 -2.2,-0.2 l -0.4,-0.1 0.1,-0.8 c 0.9,0.2 1.7,0.3 2.4,0.3 1.1,0 1.7,-0.5 1.7,-1.5 0,-1 -0.5,-1.4 -1.6,-1.5 h -1.6 v -0.8 h 1.6 c 0.3,0 0.7,-0.1 1,-0.4 0.3,-0.3 0.5,-0.6 0.5,-1.1 0,-0.4 -0.1,-0.8 -0.4,-1 -0.3,-0.2 -0.7,-0.3 -1.2,-0.3 -0.6,0 -1.3,0.1 -1.9,0.2 l -0.3,0.1 z"
   id="path181" />
</g>
<line
   class="st51"
   x1="6"
   y1="549.70001"
   x2="19.9"
   y2="549.70001"
   id="line181" />
<line
   class="st51"
   x1="42.400002"
   y1="549.70001"
   x2="29"
   y2="549.70001"
   id="line182" />
<g
   id="g183">
	<path
   class="st50"
   d="m 23.7,318.4 h -5.1 v -0.8 l 2.3,-2.4 c 0.4,-0.4 0.7,-0.7 0.9,-0.9 0.2,-0.2 0.3,-0.5 0.5,-0.8 0.1,-0.3 0.2,-0.6 0.2,-0.9 0,-0.5 -0.1,-0.9 -0.4,-1.1 -0.3,-0.2 -0.7,-0.3 -1.3,-0.3 -0.5,0 -1.1,0.1 -1.7,0.2 l -0.3,0.1 -0.1,-0.8 c 0.8,-0.2 1.5,-0.3 2.4,-0.3 0.8,0 1.4,0.2 1.8,0.5 0.4,0.3 0.6,0.9 0.6,1.6 0,0.6 -0.1,1 -0.4,1.5 -0.3,0.5 -0.7,0.9 -1.3,1.5 l -2.1,2.1 h 4 z"
   id="path182" />
	<path
   class="st50"
   d="m 27.9,310.3 c 0.7,0 1.2,0.1 1.6,0.4 0.9,0.5 1.3,1.8 1.3,3.8 0,1.4 -0.2,2.5 -0.7,3.1 -0.5,0.6 -1.2,0.9 -2.2,0.9 -1,0 -1.7,-0.3 -2.2,-0.9 C 25.2,317 25,316 25,314.5 c 0,-1.5 0.2,-2.6 0.7,-3.2 0.5,-0.7 1.2,-1 2.2,-1 z m 0,0.8 c -0.5,0 -0.8,0.1 -1.1,0.3 -0.6,0.4 -0.9,1.4 -0.9,3.1 0,1.2 0.2,2 0.5,2.5 0.3,0.5 0.8,0.7 1.5,0.7 0.7,0 1.2,-0.2 1.5,-0.7 0.3,-0.5 0.5,-1.3 0.5,-2.5 0,-1.2 -0.1,-2.1 -0.5,-2.6 -0.3,-0.5 -0.8,-0.8 -1.5,-0.8 z"
   id="path183" />
</g>
<line
   class="st51"
   x1="6.0999999"
   y1="315"
   x2="18.5"
   y2="315"
   id="line183" />
<line
   class="st51"
   x1="42.5"
   y1="315"
   x2="31.9"
   y2="315"
   id="line184" />
<g
   id="g185">
	<path
   class="st50"
   d="m 18.7,276.9 c 0.8,-0.2 1.6,-0.3 2.4,-0.3 0.8,0 1.5,0.2 1.9,0.5 0.4,0.3 0.6,0.9 0.6,1.6 0,0.4 -0.1,0.6 -0.2,0.8 -0.1,0.2 -0.2,0.3 -0.2,0.4 -0.1,0.1 -0.1,0.2 -0.2,0.3 -0.2,0.1 -0.3,0.2 -0.4,0.3 l -0.1,0.1 c 0.5,0.2 0.8,0.4 1,0.6 0.2,0.2 0.3,0.7 0.3,1.3 0,0.8 -0.2,1.4 -0.6,1.8 -0.4,0.4 -1.1,0.6 -1.9,0.6 -0.7,0 -1.4,-0.1 -2.2,-0.2 l -0.4,-0.1 0.1,-0.8 c 0.9,0.2 1.7,0.3 2.4,0.3 1.1,0 1.7,-0.5 1.7,-1.5 0,-1 -0.5,-1.4 -1.6,-1.5 h -1.6 v -0.8 h 1.6 c 0.3,0 0.7,-0.1 1,-0.4 0.3,-0.3 0.5,-0.6 0.5,-1.1 0,-0.4 -0.1,-0.8 -0.4,-1 -0.3,-0.2 -0.7,-0.3 -1.2,-0.3 -0.6,0 -1.3,0.1 -1.9,0.2 l -0.3,0.1 z"
   id="path184" />
	<path
   class="st50"
   d="m 27.9,276.6 c 0.7,0 1.2,0.1 1.6,0.4 0.9,0.5 1.3,1.8 1.3,3.8 0,1.4 -0.2,2.5 -0.7,3.1 -0.5,0.6 -1.2,0.9 -2.2,0.9 -1,0 -1.7,-0.3 -2.2,-0.9 -0.5,-0.6 -0.7,-1.6 -0.7,-3.1 0,-1.5 0.2,-2.6 0.7,-3.2 0.5,-0.7 1.2,-1 2.2,-1 z m 0,0.8 c -0.5,0 -0.8,0.1 -1.1,0.3 -0.6,0.4 -0.9,1.4 -0.9,3.1 0,1.2 0.2,2 0.5,2.5 0.3,0.5 0.8,0.7 1.5,0.7 0.7,0 1.2,-0.2 1.5,-0.7 0.3,-0.5 0.5,-1.3 0.5,-2.5 0,-1.2 -0.1,-2.1 -0.5,-2.6 -0.3,-0.5 -0.8,-0.8 -1.5,-0.8 z"
   id="path185" />
</g>
<line
   class="st51"
   x1="6.0999999"
   y1="281.29999"
   x2="18.5"
   y2="281.29999"
   id="line185" />
<line
   class="st51"
   x1="42.5"
   y1="281.29999"
   x2="31.9"
   y2="281.29999"
   id="line186" />
<g
   id="g187">
	<path
   class="st49"
   d="m 18,176.7 v -0.8 h 5 v 1.2 l -3,6.8 -0.9,-0.3 3,-6.6 v -0.3 z"
   id="path186" />
	<path
   class="st49"
   d="m 29.6,175.9 v 0.8 h -3.9 l -0.2,2.6 c 0.6,-0.3 1.2,-0.5 1.9,-0.5 1.7,0 2.5,0.8 2.5,2.3 0,0.9 -0.2,1.6 -0.7,2.1 -0.5,0.5 -1.1,0.7 -2,0.7 -0.7,0 -1.4,-0.1 -2.2,-0.3 l -0.4,-0.1 0.1,-0.7 c 0.9,0.2 1.7,0.3 2.3,0.3 0.6,0 1.1,-0.2 1.4,-0.5 0.3,-0.3 0.5,-0.8 0.5,-1.4 0,-0.6 -0.1,-1 -0.4,-1.2 -0.3,-0.2 -0.7,-0.4 -1.2,-0.4 -0.3,0 -0.6,0 -0.9,0.1 -0.3,0.1 -0.6,0.2 -0.7,0.2 l -0.3,0.1 -0.6,-0.1 0.2,-4.1 z"
   id="path187" />
</g>
<line
   class="st51"
   x1="6.5"
   y1="181.39999"
   x2="17.299999"
   y2="181.39999"
   id="line187" />
<line
   class="st51"
   x1="42.400002"
   y1="181.39999"
   x2="31.4"
   y2="181.39999"
   id="line188" />
<g
   id="g189">
	<path
   class="st49"
   d="m 16.6,671.9 h -0.9 v -6 h 0.9 v 0.4 c 0.6,-0.4 1.2,-0.5 1.8,-0.5 0.7,0 1.3,0.2 1.6,0.6 0.3,-0.2 0.6,-0.3 1,-0.4 0.4,-0.1 0.8,-0.2 1.1,-0.2 0.8,0 1.3,0.2 1.6,0.6 0.3,0.4 0.4,1.2 0.4,2.3 v 3.2 h -0.9 v -3.1 c 0,-0.8 -0.1,-1.4 -0.2,-1.7 -0.2,-0.3 -0.5,-0.5 -1,-0.5 -0.3,0 -0.5,0 -0.8,0.1 -0.3,0.1 -0.5,0.2 -0.6,0.2 l -0.2,0.1 c 0.1,0.3 0.2,0.8 0.2,1.8 v 3.1 h -0.9 v -3.1 c 0,-0.9 -0.1,-1.5 -0.2,-1.8 -0.2,-0.3 -0.5,-0.5 -1,-0.5 -0.3,0 -0.5,0 -0.8,0.1 -0.3,0.1 -0.5,0.2 -0.6,0.2 l -0.2,0.1 v 5 z"
   id="path188" />
	<path
   class="st49"
   d="m 26.6,671.9 h -0.9 v -6 h 0.9 v 0.4 c 0.6,-0.4 1.2,-0.5 1.8,-0.5 0.7,0 1.3,0.2 1.6,0.6 0.3,-0.2 0.6,-0.3 1,-0.4 0.4,-0.1 0.8,-0.2 1.1,-0.2 0.8,0 1.3,0.2 1.6,0.6 0.3,0.4 0.4,1.2 0.4,2.3 v 3.2 h -0.9 v -3.1 c 0,-0.8 -0.1,-1.4 -0.2,-1.7 -0.2,-0.3 -0.5,-0.5 -1,-0.5 -0.3,0 -0.5,0 -0.8,0.1 -0.3,0.1 -0.5,0.2 -0.6,0.2 l -0.2,0.1 c 0.1,0.3 0.2,0.8 0.2,1.8 v 3.1 h -0.9 v -3.1 c 0,-0.9 -0.1,-1.5 -0.2,-1.8 -0.2,-0.3 -0.5,-0.5 -1,-0.5 -0.3,0 -0.5,0 -0.8,0.1 -0.3,0.1 -0.5,0.2 -0.6,0.2 l -0.2,0.1 v 5 z"
   id="path189" />
</g>
<g
   id="g191">
	<path
   class="st49"
   d="m 22.5,377.4 v 7.9 h -0.9 v -6.9 l -2,1.3 -0.4,-0.7 2.5,-1.7 h 0.8 z"
   id="path190" />
	<path
   class="st49"
   d="m 27.9,377.3 c 0.7,0 1.2,0.1 1.6,0.4 0.9,0.5 1.3,1.8 1.3,3.8 0,1.4 -0.2,2.5 -0.7,3.1 -0.5,0.6 -1.2,0.9 -2.2,0.9 -1,0 -1.7,-0.3 -2.2,-0.9 C 25.2,384 25,383 25,381.5 c 0,-1.5 0.2,-2.6 0.7,-3.2 0.5,-0.7 1.2,-1 2.2,-1 z m 0,0.8 c -0.5,0 -0.8,0.1 -1.1,0.3 -0.6,0.4 -0.9,1.4 -0.9,3.1 0,1.2 0.2,2 0.5,2.5 0.3,0.5 0.8,0.7 1.5,0.7 0.7,0 1.2,-0.2 1.5,-0.7 0.3,-0.5 0.5,-1.3 0.5,-2.5 0,-1.2 -0.1,-2.1 -0.5,-2.6 -0.3,-0.6 -0.8,-0.8 -1.5,-0.8 z"
   id="path191" />
</g>
<line
   class="st51"
   x1="6.0999999"
   y1="382"
   x2="18.5"
   y2="382"
   id="line191" />
<line
   class="st51"
   x1="42.5"
   y1="382"
   x2="31.9"
   y2="382"
   id="line192" />
<g
   id="g193">
	<path
   class="st49"
   d="m 23.3,344.2 v 7.9 h -0.9 v -6.9 l -2,1.3 -0.4,-0.7 2.5,-1.7 h 0.8 z"
   id="path192" />
	<path
   class="st49"
   d="m 31.1,344.2 v 0.8 h -3.9 l -0.2,2.6 c 0.6,-0.3 1.2,-0.5 1.9,-0.5 1.7,0 2.5,0.8 2.5,2.3 0,0.9 -0.2,1.6 -0.7,2.1 -0.5,0.5 -1.1,0.7 -2,0.7 -0.7,0 -1.4,-0.1 -2.2,-0.3 l -0.4,-0.1 0.1,-0.7 c 0.9,0.2 1.7,0.3 2.3,0.3 0.6,0 1.1,-0.2 1.4,-0.5 0.3,-0.3 0.5,-0.8 0.5,-1.4 0,-0.6 -0.1,-1 -0.4,-1.2 -0.3,-0.2 -0.7,-0.4 -1.2,-0.4 -0.3,0 -0.6,0 -0.9,0.1 -0.3,0.1 -0.6,0.2 -0.7,0.2 l -0.3,0.1 -0.6,-0.1 0.2,-4.1 h 4.6 z"
   id="path193" />
</g>
<line
   class="st51"
   x1="7"
   y1="348.79999"
   x2="19.299999"
   y2="348.79999"
   id="line193" />
<line
   class="st51"
   x1="43.400002"
   y1="348.79999"
   x2="32.799999"
   y2="348.79999"
   id="line194" />
<g
   id="g194">
	<path
   class="st49"
   d="m 22.4,411.4 c 0.5,-0.3 1.2,-0.5 2.1,-0.5 0.9,0 1.6,0.2 2.1,0.5 0.5,0.3 0.8,0.9 0.8,1.5 0,0.5 -0.1,0.9 -0.3,1.1 -0.2,0.3 -0.5,0.5 -1,0.7 0.5,0.2 0.8,0.5 1.1,0.8 0.3,0.3 0.4,0.7 0.4,1.2 0,1.5 -1,2.3 -3,2.3 -2,0 -3,-0.7 -3,-2.1 0,-0.6 0.1,-1 0.3,-1.3 0.2,-0.3 0.6,-0.6 1,-0.8 -0.4,-0.2 -0.7,-0.5 -0.9,-0.7 -0.2,-0.2 -0.3,-0.7 -0.3,-1.1 0,-0.8 0.2,-1.3 0.7,-1.6 z m 0.1,5.3 c 0,1 0.7,1.5 2,1.5 1.3,0 2,-0.5 2,-1.5 0,-0.4 -0.1,-0.7 -0.4,-0.9 -0.2,-0.2 -0.6,-0.4 -1,-0.5 h -1.3 c -0.4,0.1 -0.8,0.3 -1,0.5 -0.2,0.2 -0.3,0.5 -0.3,0.9 z m 3.9,-3.7 c 0,-0.9 -0.6,-1.3 -1.9,-1.3 -1.2,0 -1.9,0.4 -1.9,1.3 0,0.4 0.1,0.6 0.3,0.9 0.2,0.2 0.5,0.4 0.9,0.5 h 1.3 c 0.4,-0.1 0.8,-0.3 1,-0.5 0.2,-0.2 0.3,-0.5 0.3,-0.9 z"
   id="path194" />
</g>
<line
   class="st51"
   x1="6.0999999"
   y1="415.60001"
   x2="18.5"
   y2="415.60001"
   id="line195" />
<line
   class="st51"
   x1="42.5"
   y1="415.60001"
   x2="31.9"
   y2="415.60001"
   id="line196" />
<g
   id="g196">
	<path
   class="st49"
   d="m 26.9,445.4 c -0.7,-0.1 -1.4,-0.1 -2.1,-0.1 -0.7,0 -1.2,0.2 -1.6,0.7 -0.4,0.5 -0.6,1.1 -0.6,2 l 0.3,-0.1 c 0.2,-0.1 0.5,-0.1 0.8,-0.2 0.3,-0.1 0.6,-0.1 0.9,-0.1 1.8,0 2.7,0.8 2.7,2.5 0,0.8 -0.2,1.5 -0.7,1.9 -0.5,0.4 -1.2,0.7 -2,0.7 -1.9,0 -2.8,-1.4 -2.8,-4.1 0,-1.4 0.3,-2.4 0.8,-3.1 0.5,-0.7 1.3,-1 2.3,-1 0.6,0 1.3,0 1.8,0.1 l 0.3,0.1 z m -2.3,2.9 c -0.3,0 -0.6,0 -0.9,0.1 -0.3,0.1 -0.6,0.1 -0.8,0.2 l -0.3,0.1 c 0,0.9 0.2,1.6 0.5,2.2 0.3,0.6 0.8,0.8 1.4,0.8 0.6,0 1.1,-0.2 1.4,-0.5 0.3,-0.3 0.5,-0.7 0.5,-1.3 0,-0.6 -0.2,-1 -0.5,-1.3 -0.3,-0.1 -0.7,-0.3 -1.3,-0.3 z"
   id="path196" />
</g>
<line
   class="st51"
   x1="6.0999999"
   y1="449.10001"
   x2="18.5"
   y2="449.10001"
   id="line197" />
<line
   class="st51"
   x1="42.5"
   y1="449.10001"
   x2="31.9"
   y2="449.10001"
   id="line198" />
<g
   id="g198">
	<path
   class="st49"
   d="m 26.9,477.4 v 0.8 H 23 l -0.2,2.6 c 0.6,-0.3 1.2,-0.5 1.9,-0.5 1.7,0 2.5,0.8 2.5,2.3 0,0.9 -0.2,1.6 -0.7,2.1 -0.5,0.5 -1.1,0.7 -2,0.7 -0.7,0 -1.4,-0.1 -2.2,-0.3 L 21.9,485 22,484.3 c 0.9,0.2 1.7,0.3 2.3,0.3 0.6,0 1.1,-0.2 1.4,-0.5 0.3,-0.3 0.5,-0.8 0.5,-1.4 0,-0.6 -0.1,-1 -0.4,-1.2 -0.3,-0.2 -0.7,-0.4 -1.2,-0.4 -0.3,0 -0.6,0 -0.9,0.1 -0.3,0.1 -0.6,0.2 -0.7,0.2 l -0.3,0.1 -0.6,-0.1 0.2,-4.1 h 4.6 z"
   id="path198" />
</g>
<line
   class="st51"
   x1="6.0999999"
   y1="482"
   x2="18.5"
   y2="482"
   id="line199" />
<line
   class="st51"
   x1="42.5"
   y1="482"
   x2="31.9"
   y2="482"
   id="line200" />
<g
   id="g200">
	<path
   class="st49"
   d="m 25.5,520.4 v -1.5 h -3.8 v -0.7 l 2.3,-5.7 h 1 l -2.3,5.6 h 2.9 v -2.5 h 0.9 v 2.5 h 1 v 0.8 h -1 v 1.5 z"
   id="path200" />
</g>
<line
   class="st51"
   x1="6.0999999"
   y1="517"
   x2="18.5"
   y2="517"
   id="line201" />
<line
   class="st51"
   x1="42.5"
   y1="517"
   x2="31.9"
   y2="517"
   id="line202" />
</svg>
