<?xml version="1.0" encoding="utf-8"?>
<!-- Generator: Adobe Illustrator 16.0.0, SVG Export Plug-In . SVG Version: 6.00 Build 0)  -->
<!DOCTYPE svg PUBLIC "-//W3C//DTD SVG 1.1//EN" "http://www.w3.org/Graphics/SVG/1.1/DTD/svg11.dtd" [
	<!ENTITY ns_extend "http://ns.adobe.com/Extensibility/1.0/">
	<!ENTITY ns_ai "http://ns.adobe.com/AdobeIllustrator/10.0/">
	<!ENTITY ns_graphs "http://ns.adobe.com/Graphs/1.0/">
	<!ENTITY ns_vars "http://ns.adobe.com/Variables/1.0/">
	<!ENTITY ns_imrep "http://ns.adobe.com/ImageReplacement/1.0/">
	<!ENTITY ns_sfw "http://ns.adobe.com/SaveForWeb/1.0/">
	<!ENTITY ns_custom "http://ns.adobe.com/GenericCustomNamespace/1.0/">
	<!ENTITY ns_adobe_xpath "http://ns.adobe.com/XPath/1.0/">
]>
<svg version="1.1"
	 id="Livello_1" xmlns:x="&ns_extend;" xmlns:i="&ns_ai;" xmlns:graph="&ns_graphs;" xmlns:svg="http://www.w3.org/2000/svg"
	 xmlns="http://www.w3.org/2000/svg" xmlns:xlink="http://www.w3.org/1999/xlink" x="0px" y="0px" width="40.8px"
	 height="725.199px" viewBox="-292.9 396.4 40.8 725.199" enable-background="new -292.9 396.4 40.8 725.199" xml:space="preserve">
<metadata>
	<sfw  xmlns="&ns_sfw;">
		<slices></slices>
		<sliceSourceBounds  height="724.389" width="82.796" y="-363.687" x="-38.912" bottomLeftOrigin="true"></sliceSourceBounds>
	</sfw>
</metadata>
<g>
	<g id="g152">
		<g id="g83">
			<g id="g82">
				<g id="g81">
					<g id="g80">
						<g>
							<defs>
								<path id="SVGID_1_" d="M-252.902,1113.25c-0.6,4.23-10.294,9.329-18.59,9.329l0,0c-8.294,0.434-19.688-4.122-19.688-9.329
									V448.16c1.898-6.184,5.596-7.921,12.293-7.921l6.995,0.108c13.693-0.433,17.191,1.846,19.09,8.139v664.764H-252.902z"/>
							</defs>
							<clipPath id="SVGID_2_">
								<use xlink:href="#SVGID_1_"  overflow="visible"/>
							</clipPath>
							<rect id="rect79" x="-311.37" y="438.178" clip-path="url(#SVGID_2_)" fill="#703F78" width="80.256" height="36.347"/>
						</g>
					</g>
				</g>
			</g>
		</g>
		<g id="g87">
			<g id="g86">
				<g id="g85">
					<g id="g84">
						<g>
							<defs>
								<path id="SVGID_3_" d="M-252.902,1113.25c-0.6,4.23-10.294,9.329-18.59,9.329l0,0c-8.294,0.434-19.688-4.122-19.688-9.329
									V448.16c1.898-6.184,11.594-7.921,18.39-7.921l0.099-1.734c7.697,0,17.991,3.688,19.89,9.871L-252.902,1113.25z"/>
							</defs>
							<clipPath id="SVGID_4_">
								<use xlink:href="#SVGID_3_"  overflow="visible"/>
							</clipPath>
							<rect id="rect83" x="-311.37" y="474.525" clip-path="url(#SVGID_4_)" fill="#9F5FAB" width="80.256" height="36.346"/>
						</g>
					</g>
				</g>
			</g>
		</g>
		<g id="g91">
			<g id="g90">
				<g id="g89">
					<g id="g88">
						<g>
							<defs>
								<path id="SVGID_5_" d="M-252.902,1113.25c-0.6,4.23-10.294,9.329-18.59,9.329l0,0c-8.294,0.434-19.688-4.122-19.688-9.329
									V448.16c1.898-6.184,11.494-7.162,18.289-7.162l0.101-0.215c7.696,0,18.09,1.302,19.989,7.593L-252.902,1113.25z"/>
							</defs>
							<clipPath id="SVGID_6_">
								<use xlink:href="#SVGID_5_"  overflow="visible"/>
							</clipPath>
							<rect id="rect87" x="-310.571" y="510.763" clip-path="url(#SVGID_6_)" fill="#B887C0" width="80.256" height="36.346"/>
						</g>
					</g>
				</g>
			</g>
		</g>
		<g id="g95">
			<g id="g94">
				<g id="g93">
					<g id="g92">
						<g>
							<defs>
								<path id="SVGID_7_" d="M-252.902,1113.25c-0.6,4.23-10.294,9.329-18.59,9.329l0,0c-8.294,0.434-19.688-4.122-19.688-9.329
									V448.16c1.898-6.184,11.494-7.162,18.289-7.162l0.2-2.493c7.697,0,17.991,3.688,19.89,9.871L-252.902,1113.25z"/>
							</defs>
							<clipPath id="SVGID_8_">
								<use xlink:href="#SVGID_7_"  overflow="visible"/>
							</clipPath>
							<rect id="rect91" x="-310.571" y="547.109" clip-path="url(#SVGID_8_)" fill="#D6A1CC" width="80.256" height="36.348"/>
						</g>
					</g>
				</g>
			</g>
		</g>
		<g id="g99">
			<g id="g98">
				<g id="g97">
					<g id="g96">
						<g>
							<defs>
								<path id="SVGID_9_" d="M-252.902,1113.25c-0.6,4.23-10.294,9.329-18.59,9.329l0,0c-8.294,0.434-19.688-4.122-19.688-9.329
									V448.16c1.898-6.184,11.594-7.488,18.289-7.488l0.101-2.276c7.696,0,17.991,3.689,19.889,9.873V1113.25z"/>
							</defs>
							<clipPath id="SVGID_10_">
								<use xlink:href="#SVGID_9_"  overflow="visible"/>
							</clipPath>
							<rect id="rect95" x="-311.37" y="583.346" clip-path="url(#SVGID_10_)" fill="#E7BDDA" width="80.256" height="36.348"/>
						</g>
					</g>
				</g>
			</g>
		</g>
		<g id="g103">
			<g id="g102">
				<g id="g101">
					<g id="g100">
						<g>
							<defs>
								<path id="SVGID_11_" d="M-252.902,1113.25c-0.6,4.23-10.294,9.329-18.59,9.329l0,0c-8.294,0.434-19.688-4.122-19.688-9.329
									V448.16c1.898-6.184,11.693-7.054,18.39-7.054v-2.602c7.696,0,17.991,3.688,19.889,9.871V1113.25z"/>
							</defs>
							<clipPath id="SVGID_12_">
								<use xlink:href="#SVGID_11_"  overflow="visible"/>
							</clipPath>
							<rect id="rect99" x="-311.37" y="619.694" clip-path="url(#SVGID_12_)" fill="#E57D9A" width="80.256" height="36.345"/>
						</g>
					</g>
				</g>
			</g>
		</g>
		<g id="g107">
			<g id="g106">
				<g id="g105">
					<g id="g104">
						<g>
							<defs>
								<path id="SVGID_13_" d="M-252.902,1113.25c-0.6,4.23-10.294,9.329-18.59,9.329l0,0c-8.294,0.434-19.688-4.122-19.688-9.329
									V448.16c1.898-6.184,11.693-7.705,18.39-7.705v-1.95c7.696,0,17.991,3.688,19.889,9.871V1113.25z"/>
							</defs>
							<clipPath id="SVGID_14_">
								<use xlink:href="#SVGID_13_"  overflow="visible"/>
							</clipPath>
							<rect id="rect103" x="-311.37" y="656.039" clip-path="url(#SVGID_14_)" fill="#DA4C4D" width="80.256" height="36.349"/>
						</g>
					</g>
				</g>
			</g>
		</g>
		<g id="g111">
			<g id="g110">
				<g id="g109">
					<g id="g108">
						<g>
							<defs>
								<path id="SVGID_15_" d="M-252.902,1113.25c-0.6,4.23-10.294,9.329-18.59,9.329l0,0c-8.294,0.434-19.688-4.122-19.688-9.329
									V448.16c1.898-6.184,11.394-7.813,18.189-7.813l0.299-1.843c7.697,0,17.991,3.688,19.89,9.871L-252.902,1113.25z"/>
							</defs>
							<clipPath id="SVGID_16_">
								<use xlink:href="#SVGID_15_"  overflow="visible"/>
							</clipPath>
							<rect id="rect107" x="-311.412" y="692.521" clip-path="url(#SVGID_16_)" fill="#EE5A5C" width="80.256" height="36.346"/>
						</g>
					</g>
				</g>
			</g>
		</g>
		<g id="g115">
			<g id="g114">
				<g id="g113">
					<g id="g112">
						<g>
							<defs>
								<path id="SVGID_17_" d="M-252.902,1113.25c-0.6,4.23-10.294,9.329-18.59,9.329l0,0c-8.294,0.434-19.688-4.122-19.688-9.329
									V448.16c1.898-6.184,11.293-7.488,17.989-7.488l0.6-0.217c7.696,0,17.89,1.738,19.79,8.031L-252.902,1113.25z"/>
							</defs>
							<clipPath id="SVGID_18_">
								<use xlink:href="#SVGID_17_"  overflow="visible"/>
							</clipPath>
							<rect id="rect111" x="-310.571" y="728.734" clip-path="url(#SVGID_18_)" fill="#F6A15C" width="80.256" height="36.346"/>
						</g>
					</g>
				</g>
			</g>
		</g>
		<g id="g119">
			<g id="g118">
				<g id="g117">
					<g id="g116">
						<g>
							<defs>
								<path id="SVGID_19_" d="M-252.902,1113.25c-0.6,4.23-10.294,9.329-18.59,9.329l0,0c-8.294,0.434-19.688-4.122-19.688-9.329
									V448.16c1.898-6.184,11.394-7.488,18.189-7.488l0.299-2.167c7.697,0,17.991,3.688,19.89,9.871L-252.902,1113.25z"/>
							</defs>
							<clipPath id="SVGID_20_">
								<use xlink:href="#SVGID_19_"  overflow="visible"/>
							</clipPath>
							<rect id="rect115" x="-310.571" y="764.971" clip-path="url(#SVGID_20_)" fill="#FCD48E" width="80.256" height="36.346"/>
						</g>
					</g>
				</g>
			</g>
		</g>
		<g id="g123">
			<g id="g122">
				<g id="g121">
					<g id="g120">
						<g>
							<defs>
								<path id="SVGID_21_" d="M-252.902,1113.25c-0.6,4.23-10.294,9.329-18.59,9.329l0,0c-8.294,0.434-19.688-4.122-19.688-9.329
									V448.16c1.898-6.184,11.394-7.488,18.189-7.488l-0.1,0.87c7.694,0,18.39,0.651,20.289,6.834L-252.902,1113.25z"/>
							</defs>
							<clipPath id="SVGID_22_">
								<use xlink:href="#SVGID_21_"  overflow="visible"/>
							</clipPath>
							<rect id="rect119" x="-310.571" y="801.317" clip-path="url(#SVGID_22_)" fill="#FFE073" width="80.256" height="36.347"/>
						</g>
					</g>
				</g>
			</g>
		</g>
		<g id="g127">
			<g id="g126">
				<g id="g125">
					<g id="g124">
						<g>
							<defs>
								<path id="SVGID_23_" d="M-252.902,1113.25c-0.6,4.23-10.294,9.329-18.59,9.329l0,0c-8.294,0.434-19.688-4.122-19.688-9.329
									V448.16c1.898-6.184,11.394-8.572,18.189-8.572l0,0c7.696,0,18.191,2.497,20.189,8.788v664.873L-252.902,1113.25z"/>
							</defs>
							<clipPath id="SVGID_24_">
								<use xlink:href="#SVGID_23_"  overflow="visible"/>
							</clipPath>
							<rect id="rect123" x="-309.671" y="946.595" clip-path="url(#SVGID_24_)" fill="#D2EBA3" width="80.256" height="36.347"/>
						</g>
					</g>
				</g>
			</g>
		</g>
		<g id="g131">
			<g id="g130">
				<g id="g129">
					<g id="g128">
						<g>
							<defs>
								<path id="SVGID_25_" d="M-252.902,1113.25c-0.6,4.23-10.294,9.329-18.59,9.329l0,0c-8.294,0.434-19.688-4.122-19.688-9.329
									V448.16c1.898-6.184,11.394-7.488,18.189-7.488l0,0c7.696,0,18.191,1.521,20.189,7.704v664.873L-252.902,1113.25z"/>
							</defs>
							<clipPath id="SVGID_26_">
								<use xlink:href="#SVGID_25_"  overflow="visible"/>
							</clipPath>
							<rect id="rect127" x="-309.671" y="982.835" clip-path="url(#SVGID_26_)" fill="#C2E5D7" width="80.256" height="36.347"/>
						</g>
					</g>
				</g>
			</g>
		</g>
		<g id="g135">
			<g id="g134">
				<g id="g133">
					<g id="g132">
						<g>
							<defs>
								<path id="SVGID_27_" d="M-252.902,1113.25c-0.6,4.23-10.294,9.329-18.59,9.329l0,0c-8.294,0.434-19.688-4.122-19.688-9.329
									V448.16c1.898-6.184,11.394-7.488,18.189-7.488l0,0c7.696,0,18.191,1.521,20.189,7.704v664.873L-252.902,1113.25z"/>
							</defs>
							<clipPath id="SVGID_28_">
								<use xlink:href="#SVGID_27_"  overflow="visible"/>
							</clipPath>
							<rect id="rect131" x="-308.871" y="1019.181" clip-path="url(#SVGID_28_)" fill="#C7E7EF" width="80.256" height="36.347"/>
						</g>
					</g>
				</g>
			</g>
		</g>
		<g id="g139">
			<g id="g138">
				<g id="g137">
					<g id="g136">
						<g>
							<defs>
								<path id="SVGID_29_" d="M-252.902,1113.25c-0.6,4.23-7.396,7.159-15.792,7.159h-6.896
									c-8.294,0.435-15.691-1.952-15.691-7.27V448.051c1.899-6.184,12.193-7.487,18.991-7.487l0,0
									c7.695,0,17.491,1.521,19.389,7.705V1113.25z"/>
							</defs>
							<clipPath id="SVGID_30_">
								<use xlink:href="#SVGID_29_"  overflow="visible"/>
							</clipPath>
							<rect id="rect135" x="-308.871" y="1055.418" clip-path="url(#SVGID_30_)" fill="#CFEAF6" width="80.256" height="67.269"/>
						</g>
					</g>
				</g>
			</g>
		</g>
		<g id="g143">
			<g id="g142">
				<g id="g141">
					<g id="g140">
						<g>
							<defs>
								<path id="SVGID_31_" d="M-252.902,1113.25c-0.6,4.23-10.794,4.23-19.189,4.23l0.599,5.099
									c-8.294,0.434-19.688-4.122-19.688-9.329V448.16c1.898-6.184,11.394-7.488,18.189-7.488l0,0
									c7.696,0,18.191,1.521,20.189,7.704v664.873L-252.902,1113.25z"/>
							</defs>
							<clipPath id="SVGID_32_">
								<use xlink:href="#SVGID_31_"  overflow="visible"/>
							</clipPath>
							<rect id="rect139" x="-309.671" y="837.664" clip-path="url(#SVGID_32_)" fill="#FDFD81" width="80.256" height="36.348"/>
						</g>
					</g>
				</g>
			</g>
		</g>
		<g id="g147">
			<g id="g146">
				<g id="g145">
					<g id="g144">
						<g>
							<defs>
								<path id="SVGID_33_" d="M-252.902,1113.25c-0.6,4.23-10.294,6.291-18.69,6.291v3.038
									c-8.295,0.434-19.689-4.122-19.689-9.329V448.16c1.899-6.184,11.394-7.488,18.191-7.488v-1.084
									c7.694,0,18.191,2.497,20.188,8.788V1113.25z"/>
							</defs>
							<clipPath id="SVGID_34_">
								<use xlink:href="#SVGID_33_"  overflow="visible"/>
							</clipPath>
							<rect id="rect143" x="-309.671" y="873.902" clip-path="url(#SVGID_34_)" fill="#FFFFC6" width="80.256" height="36.347"/>
						</g>
					</g>
				</g>
			</g>
		</g>
		<g id="g151">
			<g id="g150">
				<g id="g149">
					<g id="g148">
						<g>
							<defs>
								<path id="SVGID_35_" d="M-252.902,1113.25c-0.6,4.23-10.294,6.725-18.59,6.725v2.604
									c-8.294,0.434-19.688-4.122-19.688-9.329V448.16c1.898-6.184,11.394-7.488,18.189-7.488l0,0
									c7.696,0,18.191,1.521,20.189,7.704v664.873L-252.902,1113.25z"/>
							</defs>
							<clipPath id="SVGID_36_">
								<use xlink:href="#SVGID_35_"  overflow="visible"/>
							</clipPath>
							<rect id="rect147" x="-309.671" y="910.249" clip-path="url(#SVGID_36_)" fill="#F2F2A0" width="80.256" height="36.347"/>
						</g>
					</g>
				</g>
			</g>
		</g>
	</g>
	<circle id="circle152" fill="#39322E" cx="-272.595" cy="418.247" r="19.949"/>
	<rect id="rect152" x="-285.693" y="1057.418" fill="none" width="15.516" height="11.89"/>
	<path id="path152" fill="none" stroke="#3C3430" stroke-width="2" stroke-miterlimit="9.7722" d="M-259.995,1119.867h-24.699
		c-3.427,0-6.249-3.037-6.249-6.727V447.395c0-3.689,2.822-6.729,6.249-6.729h24.699c3.429,0,6.25,3.039,6.25,6.729v665.745
		C-253.745,1116.83-256.566,1119.867-259.995,1119.867z"/>
	<g>
		<g id="g153">
			<path id="path153" fill="#3C3530" stroke="#3C3530" stroke-width="0.75" stroke-miterlimit="10" d="M-271.388,1050.597v7.959
				h-0.906v-6.952l-2.015,1.313l-0.403-0.708l2.52-1.712h0.804V1050.597z"/>
		</g>
		
			<line id="line167" fill="none" stroke="#3C3430" stroke-miterlimit="9.7722" x1="-290.53" y1="1055.433" x2="-277.533" y2="1055.433"/>
		
			<line id="line168" fill="none" stroke="#3C3430" stroke-miterlimit="9.7722" x1="-254.562" y1="1055.433" x2="-268.264" y2="1055.433"/>
	</g>
	<g>
		<g id="g154">
			<path id="path154" fill="#3C3530" stroke="#3C3530" stroke-width="0.75" stroke-miterlimit="10" d="M-269.976,1022.249h-5.138
				v-0.806l2.317-2.418c0.403-0.403,0.705-0.705,0.906-0.907c0.202-0.201,0.402-0.503,0.503-0.806
				c0.101-0.301,0.202-0.604,0.202-0.905c0-0.505-0.101-0.909-0.402-1.109c-0.302-0.202-0.705-0.303-1.31-0.303
				c-0.504,0-1.108,0.101-1.713,0.201l-0.302,0.102l-0.101-0.807c0.806-0.202,1.511-0.302,2.418-0.302c0.806,0,1.41,0.2,1.813,0.503
				c0.404,0.303,0.605,0.907,0.605,1.612c0,0.605-0.102,1.008-0.403,1.512c-0.304,0.504-0.707,0.905-1.311,1.511l-2.116,2.116h4.03
				V1022.249z"/>
		</g>
		
			<line id="line169" fill="none" stroke="#3C3430" stroke-miterlimit="9.7722" x1="-291.334" y1="1019.126" x2="-277.431" y2="1019.126"/>
		
			<line id="line170" fill="none" stroke="#3C3430" stroke-miterlimit="9.7722" x1="-254.661" y1="1019.126" x2="-268.162" y2="1019.126"/>
	</g>
	<g>
		<g id="g156">
			<path id="path155" fill="#FFFFFF" stroke="#FFFFFF" stroke-width="0.75" stroke-miterlimit="10" d="M-274.509,658.336v-1.51
				h-3.829v-0.707l2.317-5.741h1.007l-2.317,5.642h2.922v-2.521h0.907v2.521h1.006v0.807h-1.006v1.51H-274.509z"/>
			<path id="path156" fill="#FFFFFF" stroke="#FFFFFF" stroke-width="0.75" stroke-miterlimit="10" d="M-268.767,650.277
				c0.706,0,1.21,0.101,1.613,0.403c0.906,0.502,1.309,1.813,1.309,3.828c0,1.409-0.202,2.518-0.704,3.123
				c-0.504,0.604-1.209,0.906-2.218,0.906c-1.006,0-1.713-0.303-2.216-0.906c-0.503-0.605-0.705-1.612-0.705-3.123
				c0-1.512,0.201-2.621,0.705-3.225C-270.48,650.579-269.672,650.277-268.767,650.277z M-268.767,651.082
				c-0.502,0-0.805,0.101-1.108,0.304c-0.605,0.401-0.907,1.408-0.907,3.123c0,1.209,0.201,2.013,0.504,2.518
				c0.302,0.504,0.806,0.705,1.511,0.705c0.706,0,1.21-0.201,1.511-0.705c0.303-0.505,0.503-1.309,0.503-2.518
				c0-1.21-0.201-2.118-0.503-2.621C-267.557,651.385-268.062,651.082-268.767,651.082z"/>
		</g>
		
			<line id="line171" fill="none" stroke="#3C3430" stroke-miterlimit="9.7722" x1="-291.134" y1="655.918" x2="-279.85" y2="655.918"/>
		
			<line id="line172" fill="none" stroke="#3C3430" stroke-miterlimit="9.7722" x1="-253.553" y1="656.019" x2="-264.837" y2="656.019"/>
	</g>
	<g>
		<g id="g158">
			<path id="path157" fill="#3C3530" stroke="#3C3530" stroke-width="0.75" stroke-miterlimit="10" d="M-273.956,614.079v0.808
				h-3.929l-0.202,2.618c0.604-0.303,1.21-0.504,1.915-0.504c1.713,0,2.519,0.807,2.519,2.319c0,0.905-0.202,1.609-0.706,2.112
				c-0.503,0.504-1.108,0.707-2.015,0.707c-0.705,0-1.411-0.101-2.217-0.303l-0.403-0.102l0.101-0.704
				c0.906,0.201,1.714,0.302,2.317,0.302c0.605,0,1.108-0.201,1.41-0.504c0.304-0.302,0.505-0.805,0.505-1.409
				c0-0.604-0.101-1.009-0.403-1.21c-0.303-0.2-0.706-0.402-1.209-0.402c-0.302,0-0.604,0-0.906,0.102
				c-0.304,0.101-0.605,0.201-0.706,0.201l-0.303,0.1l-0.604-0.1l0.202-4.131L-273.956,614.079z"/>
			<path id="path158" fill="#3C3530" stroke="#3C3530" stroke-width="0.75" stroke-miterlimit="10" d="M-269.523,613.979
				c0.705,0,1.209,0.1,1.613,0.402c0.906,0.505,1.309,1.813,1.309,3.828c0,1.411-0.202,2.52-0.705,3.123s-1.21,0.908-2.216,0.908
				c-1.009,0-1.713-0.305-2.216-0.908c-0.504-0.604-0.706-1.611-0.706-3.123c0-1.511,0.202-2.618,0.706-3.223
				C-271.236,614.281-270.532,613.979-269.523,613.979z M-269.523,614.784c-0.503,0-0.806,0.103-1.109,0.304
				c-0.604,0.402-0.906,1.409-0.906,3.122c0,1.21,0.202,2.016,0.504,2.52c0.301,0.503,0.806,0.703,1.511,0.703
				s1.209-0.2,1.511-0.703c0.303-0.504,0.504-1.31,0.504-2.52c0-1.209-0.1-2.114-0.504-2.618
				C-268.314,615.088-268.818,614.784-269.523,614.784z"/>
		</g>
		
			<line id="line173" fill="none" stroke="#3C3430" stroke-miterlimit="9.7722" x1="-290.378" y1="619.721" x2="-279.497" y2="619.721"/>
		
			<line id="line174" fill="none" stroke="#3C3430" stroke-miterlimit="9.7722" x1="-254.309" y1="619.721" x2="-265.292" y2="619.721"/>
	</g>
	<g>
		<g id="g161">
			<path id="path159" fill="#3C3530" stroke="#3C3530" stroke-width="0.75" stroke-miterlimit="10" d="M-276.928,542.703v7.961
				h-0.907v-6.953l-2.015,1.311l-0.404-0.707l2.519-1.711L-276.928,542.703z"/>
			<path id="path160" fill="#3C3530" stroke="#3C3530" stroke-width="0.75" stroke-miterlimit="10" d="M-271.488,542.603
				c0.706,0,1.209,0.1,1.613,0.401c0.906,0.505,1.311,1.813,1.311,3.828c0,1.411-0.203,2.52-0.707,3.126
				c-0.503,0.604-1.207,0.906-2.216,0.906c-1.006,0-1.712-0.303-2.216-0.906c-0.503-0.606-0.705-1.613-0.705-3.126
				c0-1.509,0.201-2.618,0.705-3.224C-273.2,542.904-272.494,542.603-271.488,542.603z M-271.488,543.409
				c-0.502,0-0.805,0.101-1.107,0.302c-0.605,0.402-0.907,1.412-0.907,3.122c0,1.21,0.201,2.017,0.504,2.52
				c0.302,0.504,0.806,0.706,1.511,0.706c0.706,0,1.209-0.202,1.512-0.706c0.302-0.503,0.504-1.31,0.504-2.52
				c0-1.206-0.202-2.115-0.504-2.618C-270.278,543.711-270.782,543.409-271.488,543.409z"/>
			<path id="path161" fill="#3C3530" stroke="#3C3530" stroke-width="0.75" stroke-miterlimit="10" d="M-264.737,542.603
				c0.705,0,1.21,0.1,1.612,0.401c0.906,0.505,1.31,1.813,1.31,3.828c0,1.411-0.202,2.52-0.706,3.126
				c-0.503,0.604-1.209,0.906-2.216,0.906c-1.007,0-1.713-0.303-2.217-0.906c-0.504-0.606-0.705-1.613-0.705-3.126
				c0-1.509,0.201-2.618,0.705-3.224C-266.45,542.904-265.744,542.603-264.737,542.603z M-264.737,543.409
				c-0.504,0-0.806,0.101-1.107,0.302c-0.606,0.402-0.907,1.412-0.907,3.122c0,1.21,0.201,2.017,0.504,2.52
				c0.301,0.504,0.805,0.706,1.51,0.706c0.705,0,1.21-0.202,1.511-0.706c0.303-0.503,0.504-1.31,0.504-2.52
				c0-1.206-0.201-2.115-0.504-2.618C-263.527,543.711-264.032,543.409-264.737,543.409z"/>
		</g>
		
			<line id="line175" fill="none" stroke="#3C3430" stroke-miterlimit="9.7722" x1="-280.656" y1="546.833" x2="-290.428" y2="546.833"/>
		
			<line id="line176" fill="none" stroke="#3C3430" stroke-miterlimit="9.7722" x1="-253.654" y1="547.036" x2="-260.606" y2="547.036"/>
	</g>
	<g>
		<g id="g164">
			<path id="path162" fill="#FFFFFF" stroke="#FFFFFF" stroke-width="0.75" stroke-miterlimit="10" d="M-276.928,513.638h-5.137
				v-0.806l2.317-2.416c0.403-0.403,0.705-0.706,0.906-0.907c0.202-0.203,0.302-0.506,0.503-0.808
				c0.102-0.302,0.202-0.604,0.202-0.905c0-0.504-0.101-0.906-0.403-1.108c-0.302-0.201-0.705-0.301-1.309-0.301
				c-0.504,0-1.108,0.1-1.713,0.2l-0.302,0.101l-0.101-0.805c0.806-0.203,1.51-0.304,2.418-0.304c0.806,0,1.41,0.202,1.813,0.505
				c0.404,0.303,0.605,0.906,0.605,1.611c0,0.604-0.101,1.006-0.403,1.51c-0.303,0.505-0.706,0.909-1.311,1.514l-2.115,2.113h4.03
				V513.638z"/>
			<path id="path163" fill="#FFFFFF" stroke="#FFFFFF" stroke-width="0.75" stroke-miterlimit="10" d="M-272.696,505.58
				c0.706,0,1.208,0.101,1.612,0.403c0.907,0.504,1.309,1.813,1.309,3.829c0,1.41-0.201,2.518-0.704,3.121
				c-0.505,0.605-1.209,0.908-2.218,0.908c-1.008,0-1.712-0.303-2.216-0.908c-0.503-0.604-0.706-1.61-0.706-3.121
				c0-1.513,0.202-2.62,0.706-3.224C-274.409,505.884-273.704,505.58-272.696,505.58z M-272.696,506.387
				c-0.504,0-0.806,0.1-1.108,0.301c-0.604,0.403-0.906,1.409-0.906,3.124c0,1.209,0.201,2.014,0.503,2.518
				c0.302,0.503,0.806,0.704,1.511,0.704c0.706,0,1.208-0.201,1.511-0.704c0.302-0.504,0.504-1.309,0.504-2.518
				c0-1.211-0.101-2.116-0.504-2.62C-271.588,506.688-271.99,506.387-272.696,506.387z"/>
			<path id="path164" fill="#FFFFFF" stroke="#FFFFFF" stroke-width="0.75" stroke-miterlimit="10" d="M-265.946,505.58
				c0.706,0,1.209,0.101,1.611,0.403c0.908,0.504,1.311,1.813,1.311,3.829c0,1.41-0.202,2.518-0.706,3.121
				c-0.503,0.605-1.208,0.908-2.216,0.908c-1.007,0-1.712-0.303-2.216-0.908c-0.505-0.604-0.706-1.61-0.706-3.121
				c0-1.513,0.201-2.62,0.706-3.224C-267.659,505.884-266.954,505.58-265.946,505.58z M-265.946,506.387
				c-0.504,0-0.805,0.1-1.108,0.301c-0.604,0.403-0.906,1.409-0.906,3.124c0,1.209,0.201,2.014,0.503,2.518
				c0.302,0.503,0.806,0.704,1.511,0.704c0.706,0,1.209-0.201,1.511-0.704c0.302-0.504,0.505-1.309,0.505-2.518
				c0-1.211-0.102-2.116-0.505-2.62C-264.737,506.688-265.241,506.387-265.946,506.387z"/>
		</g>
		
			<line id="line177" fill="none" stroke="#3C3430" stroke-miterlimit="9.7722" x1="-291.234" y1="510.82" x2="-282.57" y2="510.82"/>
		
			<line id="line178" fill="none" stroke="#3C3430" stroke-miterlimit="9.7722" x1="-254.258" y1="510.82" x2="-261.815" y2="510.82"/>
	</g>
	<g>
		<g id="g167">
			<path id="path165" fill="#FFFFFF" stroke="#FFFFFF" stroke-width="0.75" stroke-miterlimit="10" d="M-282.671,470.146
				c0.807-0.201,1.612-0.302,2.418-0.302c0.908,0,1.512,0.201,1.914,0.504c0.403,0.302,0.604,0.905,0.604,1.611
				c0,0.402,0,0.604-0.1,0.806c-0.101,0.202-0.202,0.302-0.202,0.403c-0.101,0.101-0.101,0.203-0.201,0.304
				c-0.202,0.1-0.303,0.201-0.403,0.301l-0.101,0.102c0.504,0.201,0.806,0.402,1.007,0.604c0.203,0.303,0.304,0.704,0.304,1.309
				c0,0.808-0.202,1.411-0.605,1.814c-0.403,0.404-1.108,0.604-2.015,0.604c-0.706,0-1.41-0.101-2.216-0.2l-0.504-0.302l0.101-0.808
				c0.908,0.201,1.713,0.302,2.418,0.302c1.108,0,1.713-0.503,1.713-1.511c0-1.007-0.503-1.41-1.612-1.511h-1.611v-0.805h1.611
				c0.303,0,0.706-0.103,1.007-0.404c0.302-0.304,0.504-0.605,0.504-1.11c0-0.402-0.101-0.805-0.403-1.007
				c-0.302-0.2-0.705-0.302-1.209-0.302c-0.604,0-1.309,0.102-1.914,0.201l-0.303,0.101L-282.671,470.146z"/>
			<path id="path166" fill="#FFFFFF" stroke="#FFFFFF" stroke-width="0.75" stroke-miterlimit="10" d="M-273.402,469.844
				c0.706,0,1.209,0.101,1.612,0.402c0.906,0.503,1.311,1.813,1.311,3.829c0,1.409-0.203,2.519-0.707,3.122
				c-0.502,0.606-1.208,0.907-2.216,0.907c-1.007,0-1.711-0.301-2.216-0.907c-0.504-0.604-0.705-1.612-0.705-3.122
				c0-1.513,0.201-2.621,0.705-3.226C-275.113,470.146-274.308,469.844-273.402,469.844z M-273.402,470.65
				c-0.503,0-0.806,0.1-1.108,0.302c-0.603,0.402-0.906,1.41-0.906,3.124c0,1.209,0.201,2.015,0.503,2.519
				c0.302,0.503,0.806,0.704,1.511,0.704c0.706,0,1.209-0.201,1.512-0.704c0.302-0.504,0.503-1.31,0.503-2.519
				c0-1.21-0.101-2.116-0.503-2.621C-272.192,470.952-272.696,470.65-273.402,470.65z"/>
			<path id="path167" fill="#FFFFFF" stroke="#FFFFFF" stroke-width="0.75" stroke-miterlimit="10" d="M-266.551,469.844
				c0.707,0,1.208,0.101,1.613,0.402c0.906,0.503,1.31,1.813,1.31,3.829c0,1.409-0.202,2.519-0.707,3.122
				c-0.503,0.606-1.208,0.907-2.216,0.907c-1.008,0-1.712-0.301-2.216-0.907c-0.504-0.604-0.705-1.612-0.705-3.122
				c0-1.513,0.2-2.621,0.705-3.226C-268.263,470.146-267.559,469.844-266.551,469.844z M-266.551,470.65
				c-0.504,0-0.805,0.1-1.108,0.302c-0.604,0.402-0.906,1.41-0.906,3.124c0,1.209,0.201,2.015,0.502,2.519
				c0.303,0.503,0.807,0.704,1.511,0.704c0.707,0,1.208-0.201,1.512-0.704c0.302-0.504,0.504-1.31,0.504-2.519
				c0-1.21-0.1-2.116-0.504-2.621C-265.442,470.952-265.844,470.65-266.551,470.65z"/>
		</g>
		
			<line id="line179" fill="none" stroke="#3C3430" stroke-miterlimit="9.7722" x1="-290.831" y1="474.478" x2="-282.771" y2="474.478"/>
		
			<line id="line180" fill="none" stroke="#3C3430" stroke-miterlimit="9.7722" x1="-262.521" y1="474.478" x2="-254.461" y2="474.478"/>
	</g>
	<g id="g180">
		<path id="path180" fill="#FFFFFF" d="M-257.786,418.648v-0.1c0-7.556-6.246-13.804-14.004-14.205v-1.31
			c0-0.303-0.302-0.705-0.806-0.705c-0.504,0-0.807,0.301-0.807,0.705v1.31c-7.857,0.302-14.004,6.649-14.004,14.205
			c0,0.303,0.302,0.707,0.806,0.707c0.202,0,0.302-0.101,0.604-0.202c2.519-2.318,5.844-2.318,8.261,0
			c0.102,0.102,0.304,0.202,0.605,0.202c0.201,0,0.302-0.101,0.504-0.202c1.007-0.909,2.216-1.513,3.425-1.613v9.874
			c0,1.914,1.712,3.729,3.829,3.729s3.829-1.611,3.829-3.729c0-0.302-0.302-0.706-0.807-0.706c-0.504,0-0.806,0.302-0.806,0.706
			c0,1.109-1.007,2.217-2.316,2.217c-1.311,0-2.318-1.007-2.318-2.217v-9.874c1.108,0.101,2.418,0.704,3.426,1.613
			c0.201,0.202,0.805,0.202,1.008,0c2.518-2.318,5.843-2.318,8.362,0c0.201,0.202,0.704,0.202,0.907,0.102
			C-257.886,419.053-257.786,418.851-257.786,418.648z M-268.564,417.139c-1.311-0.807-2.621-1.311-4.031-1.311h-0.101h-0.1
			c-1.411,0-2.721,0.504-4.031,1.311c-0.302-4.938,0.907-8.867,2.52-10.58c1.006-1.106,2.115-1.106,3.224,0
			C-269.573,408.272-268.162,412.1-268.564,417.139z M-285.894,416.937c0.705-5.441,4.835-9.673,10.074-10.88
			c-1.511,1.913-2.921,5.742-2.519,10.88C-280.555,415.528-283.477,415.528-285.894,416.937z M-266.954,416.937
			c0.302-5.138-1.007-8.967-2.518-10.88c5.44,1.309,9.47,5.541,10.074,10.88C-261.815,415.528-264.635,415.528-266.954,416.937z"/>
	</g>
	<g>
		<g id="g181">
			<path id="path181" fill="#3C3530" stroke="#3C3530" stroke-width="0.75" stroke-miterlimit="10" d="M-274.51,978.157
				c0.806-0.201,1.613-0.302,2.418-0.302s1.512,0.201,1.915,0.503c0.402,0.303,0.604,0.906,0.604,1.612
				c0,0.403-0.1,0.604-0.202,0.807c-0.1,0.201-0.201,0.303-0.201,0.403c-0.1,0.1-0.1,0.201-0.201,0.302
				c-0.202,0.102-0.302,0.202-0.403,0.302l-0.102,0.102c0.504,0.2,0.806,0.402,1.008,0.604s0.302,0.704,0.302,1.31
				c0,0.808-0.202,1.412-0.604,1.814c-0.403,0.403-1.108,0.604-1.915,0.604c-0.705,0-1.411-0.101-2.216-0.201l-0.404-0.102
				l0.102-0.806c0.906,0.202,1.712,0.303,2.418,0.303c1.106,0,1.712-0.503,1.712-1.514c0-1.007-0.504-1.409-1.612-1.51h-1.612
				v-0.806h1.612c0.302,0,0.705-0.101,1.006-0.402c0.304-0.303,0.505-0.605,0.505-1.109c0-0.404-0.1-0.807-0.404-1.008
				c-0.302-0.202-0.706-0.303-1.208-0.303c-0.605,0-1.311,0.101-1.915,0.201l-0.302,0.102L-274.51,978.157z"/>
		</g>
		
			<line id="line181" fill="none" stroke="#3C3430" stroke-miterlimit="9.7722" x1="-290.831" y1="982.792" x2="-276.827" y2="982.792"/>
		
			<line id="line182" fill="none" stroke="#3C3430" stroke-miterlimit="9.7722" x1="-254.158" y1="982.792" x2="-267.659" y2="982.792"/>
	</g>
	<g>
		<g id="g183">
			<path id="path182" fill="#FFFFFF" stroke="#FFFFFF" stroke-width="0.75" stroke-miterlimit="10" d="M-272.999,731.927h-5.138
				v-0.807l2.317-2.419c0.404-0.402,0.707-0.706,0.907-0.907c0.202-0.2,0.302-0.502,0.504-0.804
				c0.101-0.304,0.201-0.606,0.201-0.909c0-0.504-0.1-0.905-0.403-1.107c-0.302-0.202-0.705-0.302-1.309-0.302
				c-0.504,0-1.108,0.1-1.713,0.201l-0.303,0.101l-0.101-0.807c0.807-0.201,1.511-0.302,2.418-0.302
				c0.807,0,1.411,0.201,1.813,0.503c0.403,0.304,0.604,0.907,0.604,1.612c0,0.606-0.101,1.01-0.403,1.512
				c-0.302,0.503-0.705,0.908-1.31,1.512l-2.116,2.116h4.03V731.927z"/>
			<path id="path183" fill="#FFFFFF" stroke="#FFFFFF" stroke-width="0.75" stroke-miterlimit="10" d="M-268.767,723.764
				c0.705,0,1.208,0.101,1.612,0.402c0.908,0.505,1.311,1.813,1.311,3.828c0,1.411-0.202,2.519-0.707,3.125
				c-0.504,0.604-1.208,0.907-2.216,0.907s-1.711-0.304-2.217-0.907c-0.504-0.606-0.704-1.612-0.704-3.125
				c0-1.509,0.2-2.618,0.704-3.224C-270.479,724.066-269.775,723.764-268.767,723.764z M-268.767,724.571
				c-0.504,0-0.806,0.101-1.108,0.302c-0.604,0.402-0.907,1.41-0.907,3.122c0,1.21,0.203,2.017,0.504,2.519
				c0.303,0.505,0.807,0.707,1.511,0.707c0.705,0,1.208-0.202,1.512-0.707c0.302-0.502,0.504-1.309,0.504-2.519
				c0-1.207-0.102-2.115-0.504-2.618C-267.559,724.873-268.062,724.571-268.767,724.571z"/>
		</g>
		<line id="line183" fill="none" stroke="#3C3430" stroke-miterlimit="9.7722" x1="-290.73" y1="728.5" x2="-278.237" y2="728.5"/>
		<line id="line184" fill="none" stroke="#3C3430" stroke-miterlimit="9.7722" x1="-254.057" y1="728.5" x2="-264.737" y2="728.5"/>
	</g>
	<g>
		<g id="g185">
			<path id="path184" fill="#FFFFFF" stroke="#FFFFFF" stroke-width="0.75" stroke-miterlimit="10" d="M-277.33,687.818
				c0.807-0.202,1.612-0.302,2.418-0.302c0.807,0,1.512,0.201,1.914,0.504c0.403,0.301,0.605,0.905,0.605,1.61
				c0,0.402-0.101,0.604-0.202,0.808c-0.101,0.202-0.201,0.303-0.201,0.403c-0.101,0.101-0.101,0.202-0.202,0.302
				c-0.201,0.102-0.302,0.201-0.402,0.302l-0.101,0.101c0.503,0.203,0.806,0.403,1.007,0.604c0.202,0.202,0.303,0.706,0.303,1.31
				c0,0.806-0.202,1.411-0.605,1.813c-0.403,0.404-1.108,0.605-1.914,0.605c-0.706,0-1.411-0.102-2.217-0.201l-0.403-0.101
				l0.101-0.806c0.907,0.201,1.713,0.302,2.418,0.302c1.109,0,1.713-0.506,1.713-1.513c0-1.008-0.503-1.41-1.611-1.511h-1.612
				v-0.805h1.612c0.303,0,0.705-0.102,1.007-0.403c0.302-0.303,0.503-0.606,0.503-1.111c0-0.401-0.101-0.805-0.402-1.006
				c-0.303-0.2-0.706-0.303-1.21-0.303c-0.604,0-1.31,0.103-1.913,0.202l-0.304,0.101L-277.33,687.818z"/>
			<path id="path185" fill="#FFFFFF" stroke="#FFFFFF" stroke-width="0.75" stroke-miterlimit="10" d="M-268.061,687.516
				c0.705,0,1.208,0.1,1.612,0.403c0.908,0.502,1.311,1.811,1.311,3.829c0,1.409-0.202,2.517-0.707,3.122
				c-0.504,0.605-1.208,0.906-2.216,0.906s-1.711-0.301-2.217-0.906c-0.504-0.605-0.704-1.613-0.704-3.122
				c0-1.514,0.2-2.622,0.704-3.225C-269.772,687.818-269.069,687.516-268.061,687.516z M-268.061,688.321
				c-0.504,0-0.806,0.101-1.108,0.303c-0.604,0.402-0.907,1.409-0.907,3.125c0,1.207,0.203,2.013,0.504,2.517
				c0.303,0.506,0.807,0.707,1.511,0.707c0.705,0,1.208-0.201,1.512-0.707c0.302-0.504,0.504-1.31,0.504-2.517
				c0-1.21-0.102-2.118-0.504-2.622C-266.853,688.624-267.356,688.321-268.061,688.321z"/>
		</g>
		
			<line id="line185" fill="none" stroke="#3C3430" stroke-miterlimit="9.7722" x1="-290.024" y1="692.251" x2="-277.531" y2="692.251"/>
		
			<line id="line186" fill="none" stroke="#3C3430" stroke-miterlimit="9.7722" x1="-253.351" y1="692.251" x2="-264.031" y2="692.251"/>
	</g>
	<g>
		<g id="g187">
			<path id="path186" fill="#3C3530" stroke="#3C3530" stroke-width="0.75" stroke-miterlimit="10" d="M-278.489,578.577v-0.805
				h5.037v1.208l-3.022,6.85l-0.906-0.303l3.022-6.648v-0.302H-278.489z"/>
			<path id="path187" fill="#3C3530" stroke="#3C3530" stroke-width="0.75" stroke-miterlimit="10" d="M-266.803,577.772v0.805
				h-3.929l-0.202,2.618c0.606-0.303,1.21-0.505,1.914-0.505c1.713,0,2.52,0.809,2.52,2.319c0,0.906-0.202,1.611-0.706,2.116
				c-0.503,0.503-1.107,0.704-2.014,0.704c-0.705,0-1.412-0.101-2.216-0.303l-0.404-0.1l0.102-0.706
				c0.906,0.202,1.712,0.302,2.317,0.302c0.604,0,1.109-0.201,1.411-0.503c0.302-0.303,0.503-0.806,0.503-1.41
				s-0.1-1.006-0.403-1.208c-0.302-0.201-0.706-0.403-1.209-0.403c-0.302,0-0.604,0-0.907,0.102
				c-0.301,0.101-0.605,0.201-0.706,0.201l-0.302,0.101l-0.604-0.101l0.202-4.132L-266.803,577.772z"/>
		</g>
		
			<line id="line187" fill="none" stroke="#3C3430" stroke-miterlimit="9.7722" x1="-290.076" y1="583.312" x2="-279.194" y2="583.312"/>
		
			<line id="line188" fill="none" stroke="#3C3430" stroke-miterlimit="9.7722" x1="-253.906" y1="583.312" x2="-264.989" y2="583.312"/>
	</g>
	<g id="g189">
		<path id="path188" fill="#3C3530" stroke="#3C3530" stroke-width="0.75" stroke-miterlimit="10" d="M-280.152,1116.875h-0.907
			v-6.047h0.907v0.404c0.605-0.404,1.209-0.505,1.813-0.505c0.706,0,1.311,0.202,1.612,0.605c0.302-0.202,0.604-0.304,1.008-0.403
			c0.403-0.102,0.806-0.202,1.108-0.202c0.806,0,1.31,0.202,1.612,0.605c0.302,0.402,0.403,1.209,0.403,2.317v3.225h-0.907v-3.124
			c0-0.807-0.101-1.411-0.202-1.713c-0.201-0.303-0.503-0.504-1.007-0.504c-0.302,0-0.504,0-0.807,0.102
			c-0.302,0.1-0.503,0.201-0.604,0.201l-0.201,0.101c0.101,0.302,0.201,0.806,0.201,1.813v3.124h-0.906v-3.124
			c0-0.907-0.101-1.512-0.201-1.813c-0.201-0.302-0.505-0.503-1.008-0.503c-0.303,0-0.504,0-0.806,0.1
			c-0.302,0.102-0.503,0.201-0.604,0.201l-0.202,0.102v5.038H-280.152z"/>
		<path id="path189" fill="#3C3530" stroke="#3C3530" stroke-width="0.75" stroke-miterlimit="10" d="M-270.076,1116.875h-0.908
			v-6.047h0.908v0.404c0.604-0.404,1.208-0.505,1.813-0.505c0.704,0,1.309,0.202,1.611,0.605c0.302-0.202,0.605-0.304,1.008-0.403
			c0.402-0.102,0.805-0.202,1.108-0.202c0.805,0,1.309,0.202,1.612,0.605c0.301,0.402,0.402,1.209,0.402,2.317v3.225h-0.906v-3.124
			c0-0.807-0.1-1.411-0.202-1.713c-0.202-0.303-0.504-0.504-1.007-0.504c-0.303,0-0.504,0-0.807,0.102
			c-0.302,0.1-0.504,0.201-0.604,0.201l-0.201,0.101c0.101,0.302,0.201,0.806,0.201,1.813v3.124h-0.907v-3.124
			c0-0.907-0.101-1.512-0.202-1.813c-0.2-0.302-0.503-0.503-1.007-0.503c-0.302,0-0.505,0-0.807,0.1
			c-0.303,0.102-0.503,0.201-0.604,0.201l-0.202,0.102v5.038H-270.076z"/>
	</g>
	<g>
		<g id="g191">
			<path id="path190" fill="#3C3530" stroke="#3C3530" stroke-width="0.75" stroke-miterlimit="10" d="M-274.208,796.805v7.96
				h-0.906v-6.953l-2.016,1.311l-0.403-0.706l2.519-1.712h0.806V796.805z"/>
			<path id="path191" fill="#3C3530" stroke="#3C3530" stroke-width="0.75" stroke-miterlimit="10" d="M-268.767,796.705
				c0.705,0,1.208,0.101,1.612,0.403c0.908,0.504,1.311,1.813,1.311,3.828c0,1.409-0.202,2.518-0.707,3.124
				c-0.504,0.604-1.208,0.907-2.216,0.907s-1.711-0.303-2.217-0.907c-0.504-0.606-0.704-1.613-0.704-3.124s0.2-2.62,0.704-3.225
				C-270.479,797.007-269.775,796.705-268.767,796.705z M-268.767,797.51c-0.504,0-0.806,0.103-1.108,0.303
				c-0.604,0.403-0.907,1.412-0.907,3.124c0,1.208,0.203,2.014,0.504,2.518c0.303,0.506,0.807,0.708,1.511,0.708
				c0.705,0,1.208-0.202,1.512-0.708c0.302-0.504,0.504-1.31,0.504-2.518c0-1.209-0.102-2.116-0.504-2.62
				C-267.559,797.712-268.062,797.51-268.767,797.51z"/>
		</g>
		
			<line id="line191" fill="none" stroke="#3C3430" stroke-miterlimit="9.7722" x1="-290.73" y1="801.44" x2="-278.237" y2="801.44"/>
		
			<line id="line192" fill="none" stroke="#3C3430" stroke-miterlimit="9.7722" x1="-254.057" y1="801.44" x2="-264.737" y2="801.44"/>
	</g>
	<g>
		<g id="g193">
			<path id="path192" fill="#3C3530" stroke="#3C3530" stroke-width="0.75" stroke-miterlimit="10" d="M-273.906,760.207v7.96
				h-0.906v-6.952l-2.016,1.31l-0.402-0.706l2.518-1.712h0.806V760.207z"/>
			<path id="path193" fill="#3C3530" stroke="#3C3530" stroke-width="0.75" stroke-miterlimit="10" d="M-266.046,760.207v0.805
				h-3.929l-0.201,2.622c0.604-0.304,1.207-0.504,1.914-0.504c1.712,0,2.519,0.806,2.519,2.314c0,0.908-0.202,1.613-0.706,2.118
				c-0.504,0.504-1.108,0.705-2.014,0.705c-0.707,0-1.411-0.101-2.217-0.303l-0.403-0.101l0.1-0.706
				c0.907,0.203,1.712,0.305,2.317,0.305c0.605,0,1.108-0.203,1.412-0.506c0.301-0.303,0.504-0.806,0.504-1.41
				c0-0.605-0.102-1.008-0.404-1.209c-0.302-0.202-0.704-0.402-1.208-0.402c-0.304,0-0.606,0-0.908,0.1
				c-0.302,0.101-0.604,0.203-0.704,0.203l-0.303,0.1l-0.605-0.1l0.203-4.132h4.635V760.207z"/>
		</g>
		
			<line id="line193" fill="none" stroke="#3C3430" stroke-miterlimit="9.7722" x1="-290.328" y1="764.841" x2="-277.936" y2="764.841"/>
		
			<line id="line194" fill="none" stroke="#3C3430" stroke-miterlimit="9.7722" x1="-253.654" y1="764.841" x2="-264.335" y2="764.841"/>
	</g>
	<g>
		<g id="g194">
			<path id="path194" fill="#3C3530" stroke="#3C3530" stroke-width="0.75" stroke-miterlimit="10" d="M-274.308,833.365
				c0.503-0.302,1.208-0.503,2.115-0.503c0.906,0,1.613,0.201,2.117,0.503c0.502,0.303,0.804,0.908,0.804,1.512
				c0,0.506-0.1,0.907-0.302,1.109c-0.202,0.302-0.502,0.503-1.006,0.705c0.504,0.2,0.805,0.504,1.108,0.806
				c0.301,0.303,0.402,0.705,0.402,1.209c0,1.512-1.006,2.318-3.022,2.318c-2.015,0-3.021-0.705-3.021-2.117
				c0-0.604,0.1-1.007,0.302-1.311c0.201-0.301,0.604-0.604,1.007-0.805c-0.403-0.201-0.706-0.504-0.906-0.705
				c-0.202-0.201-0.302-0.704-0.302-1.109C-275.013,834.172-274.812,833.668-274.308,833.365z M-274.208,838.706
				c0,1.008,0.705,1.512,2.015,1.512c1.309,0,2.016-0.504,2.016-1.512c0-0.403-0.102-0.705-0.403-0.906
				c-0.203-0.203-0.606-0.404-1.008-0.504h-1.31c-0.404,0.1-0.807,0.301-1.008,0.504
				C-274.106,838.001-274.208,838.302-274.208,838.706z M-270.278,834.977c0-0.906-0.605-1.31-1.914-1.31
				c-1.209,0-1.914,0.403-1.914,1.31c0,0.405,0.101,0.606,0.302,0.908c0.202,0.201,0.503,0.402,0.907,0.504h1.31
				c0.402-0.102,0.806-0.303,1.008-0.504C-270.378,835.684-270.278,835.383-270.278,834.977z"/>
		</g>
		
			<line id="line195" fill="none" stroke="#3C3430" stroke-miterlimit="9.7722" x1="-290.73" y1="837.596" x2="-278.237" y2="837.596"/>
		
			<line id="line196" fill="none" stroke="#3C3430" stroke-miterlimit="9.7722" x1="-254.057" y1="837.596" x2="-264.737" y2="837.596"/>
	</g>
	<g>
		<g id="g196">
			<path id="path196" fill="#3C3530" stroke="#3C3530" stroke-width="0.75" stroke-miterlimit="10" d="M-269.775,870.195
				c-0.704-0.101-1.411-0.101-2.115-0.101c-0.705,0-1.209,0.202-1.612,0.705c-0.403,0.504-0.604,1.11-0.604,2.017l0.302-0.1
				c0.202-0.103,0.503-0.103,0.806-0.202c0.302-0.101,0.605-0.101,0.907-0.101c1.813,0,2.72,0.805,2.72,2.517
				c0,0.807-0.202,1.514-0.704,1.916c-0.504,0.402-1.21,0.704-2.016,0.704c-1.914,0-2.821-1.409-2.821-4.13
				c0-1.41,0.302-2.42,0.806-3.124c0.503-0.706,1.31-1.007,2.317-1.007c0.604,0,1.311,0,1.814,0.1l0.302,0.102L-269.775,870.195z
				 M-272.092,873.118c-0.302,0-0.604,0-0.907,0.101c-0.303,0.102-0.604,0.102-0.806,0.202l-0.302,0.101
				c0,0.905,0.201,1.61,0.503,2.216c0.302,0.605,0.807,0.808,1.411,0.808c0.604,0,1.108-0.202,1.41-0.503
				c0.304-0.305,0.504-0.708,0.504-1.313c0-0.604-0.2-1.007-0.504-1.309C-271.084,873.32-271.488,873.118-272.092,873.118
				L-272.092,873.118z"/>
		</g>
		
			<line id="line197" fill="none" stroke="#3C3430" stroke-miterlimit="9.7722" x1="-290.73" y1="873.924" x2="-278.237" y2="873.924"/>
		
			<line id="line198" fill="none" stroke="#3C3430" stroke-miterlimit="9.7722" x1="-254.057" y1="873.924" x2="-264.737" y2="873.924"/>
	</g>
	<g>
		<g id="g198">
			<path id="path198" fill="#3C3530" stroke="#3C3530" stroke-width="0.75" stroke-miterlimit="10" d="M-269.775,905.609v0.807
				h-3.929l-0.201,2.619c0.604-0.302,1.209-0.504,1.915-0.504c1.712,0,2.519,0.805,2.519,2.317c0,0.905-0.202,1.613-0.705,2.116
				c-0.504,0.504-1.109,0.706-2.016,0.706c-0.705,0-1.411-0.102-2.216-0.303l-0.403-0.101l0.101-0.706
				c0.906,0.202,1.712,0.302,2.317,0.302c0.604,0,1.107-0.2,1.41-0.504c0.303-0.302,0.505-0.806,0.505-1.411
				c0-0.604-0.101-1.006-0.405-1.207c-0.302-0.202-0.704-0.405-1.208-0.405c-0.302,0-0.604,0-0.907,0.104
				c-0.303,0.1-0.604,0.2-0.706,0.2l-0.302,0.102l-0.605-0.102l0.202-4.132h4.634V905.609z"/>
		</g>
		
			<line id="line199" fill="none" stroke="#3C3430" stroke-miterlimit="9.7722" x1="-290.73" y1="910.244" x2="-278.237" y2="910.244"/>
		
			<line id="line200" fill="none" stroke="#3C3430" stroke-miterlimit="9.7722" x1="-254.057" y1="910.244" x2="-264.737" y2="910.244"/>
	</g>
	<g>
		<g id="g200">
			<path id="path200" fill="#3C3530" stroke="#3C3530" stroke-width="0.75" stroke-miterlimit="10" d="M-271.186,949.961v-1.512
				h-3.828v-0.706l2.317-5.742h1.008l-2.318,5.642h2.922v-2.518h0.907v2.518h1.006v0.807h-1.006v1.512H-271.186z"/>
		</g>
		
			<line id="line201" fill="none" stroke="#3C3430" stroke-miterlimit="9.7722" x1="-290.73" y1="946.533" x2="-278.237" y2="946.533"/>
		
			<line id="line202" fill="none" stroke="#3C3430" stroke-miterlimit="9.7722" x1="-254.057" y1="946.533" x2="-264.737" y2="946.533"/>
	</g>
</g>
</svg>
