<?xml version="1.0" encoding="utf-8"?>
<!-- Generator: Adobe Illustrator 28.0.0, SVG Export Plug-In . SVG Version: 6.00 Build 0)  -->
<svg version="1.1" id="Livello_1" xmlns="http://www.w3.org/2000/svg" xmlns:xlink="http://www.w3.org/1999/xlink" x="0px" y="0px"
	  width="50px" height="677px" viewBox="0 0 48.7 677.2" style="enable-background:new 0 0 48.7 677.2;" xml:space="preserve">
<style type="text/css">
	.st0{fill:#961405;}
	.st1{clip-path:url(#SVGID_00000072280310894373197170000011615808413269051797_);}
	.st2{fill:#6E0E04;}
	.st3{clip-path:url(#SVGID_00000076563263536700284740000010108846350335790732_);}
	.st4{fill:#E22208;}
	.st5{clip-path:url(#SVGID_00000169535697768562655540000005817590809245810872_);}
	.st6{fill:#E86411;}
	.st7{clip-path:url(#SVGID_00000066476994295030971850000005847958807312726703_);}
	.st8{fill:#E1D52D;}
	.st9{fill:#F7EC31;}
	.st10{clip-path:url(#SVGID_00000003082450245453888600000000354472308199251611_);}
	.st11{clip-path:url(#SVGID_00000080912207649179103450000008176615932620682882_);}
	.st12{clip-path:url(#SVGID_00000144325515635993647500000013736978461680466323_);}
	.st13{fill:#173A62;}
	.st14{clip-path:url(#SVGID_00000000909706674028862510000003915994666863836343_);}
	.st15{fill:#79AADE;}
	.st16{clip-path:url(#SVGID_00000100375205734699525950000013605061304839207845_);}
	.st17{fill:#9CC1E7;}
	.st18{clip-path:url(#SVGID_00000068659283851883381030000000807085594711404166_);}
	.st19{fill:#BDD5EF;}
	.st20{clip-path:url(#SVGID_00000018228393682486197860000015231433188671263646_);}
	.st21{fill:#DEEAF7;}
	.st22{clip-path:url(#SVGID_00000024681522800360922290000013968909195496872084_);}
	.st23{fill:#235A95;}
	.st24{clip-path:url(#SVGID_00000085234565378231765810000011671249457173258172_);}
	.st25{fill:#2E6FB8;}
	.st26{fill:#548ECE;}
	.st27{clip-path:url(#SVGID_00000085214210169268240850000011845123402782627473_);fill:#4897D9;}
	.st28{clip-path:url(#SVGID_00000163752485993066608690000011464590270352046783_);fill:#A2A4D6;}
	.st29{clip-path:url(#SVGID_00000104701050077407563830000006769017637304396169_);fill:#B887C0;}
	.st30{clip-path:url(#SVGID_00000126306494481646676520000013014826487770798243_);fill:#D6A1CC;}
	.st31{clip-path:url(#SVGID_00000105394898619343681820000015161261816528067209_);fill:#E7BDDA;}
	.st32{clip-path:url(#SVGID_00000085236821373761458800000015779020116343451057_);fill:#E57D9A;}
	.st33{clip-path:url(#SVGID_00000150787772349663883050000002396783632737974951_);fill:#DA4C4D;}
	.st34{clip-path:url(#SVGID_00000000204750987450964970000015077629111528754565_);fill:#EE5A5C;}
	.st35{clip-path:url(#SVGID_00000148619057180712620990000007564122921718482603_);fill:#F6A15C;}
	.st36{clip-path:url(#SVGID_00000088090920829923485050000007245663617941184944_);fill:#FCD48E;}
	.st37{clip-path:url(#SVGID_00000036226018770167538220000006933512978764671649_);fill:#FFE073;}
	.st38{clip-path:url(#SVGID_00000124129634837665527820000006564847599658645382_);fill:#D2EBA3;}
	.st39{clip-path:url(#SVGID_00000034050204602635098080000010121247583868389780_);fill:#C2E5D7;}
	.st40{clip-path:url(#SVGID_00000103954965380033462190000013437284697961873801_);fill:#C7E7EF;}
	.st41{clip-path:url(#SVGID_00000124853596488127605990000003151044902400919943_);fill:#CFEAF6;}
	.st42{clip-path:url(#SVGID_00000179643646298728915640000015654465583595150724_);fill:#FDFD81;}
	.st43{clip-path:url(#SVGID_00000107580325334010773580000012034092370147518366_);fill:#FFFFC6;}
	.st44{clip-path:url(#SVGID_00000044135590970234548920000009621764597659133083_);fill:#F2F2A0;}
	.st45{fill:#39322E;}
	.st46{fill:none;}
	.st47{fill:none;stroke:#3C3430;stroke-width:2;stroke-miterlimit:9.7722;}
	.st48{fill:#3B3330;}
	.st49{fill:#FFFFFF;}
	.st50{fill:#3C3530;}
	.st51{fill:none;stroke:#3C3430;stroke-miterlimit:9.7722;}
</style>
<g>
	<g>
		<g>
			<g>
				<rect x="5.5" y="92.3" class="st0" width="37.3" height="42.7"/>
			</g>
		</g>
	</g>
</g>
<g>
	<g>
		<defs>
			<path id="SVGID_1_" d="M43.4,672.4c-0.5,3.9-10.1,8.5-18.5,8.5l0,0c-8.2,0.4-19.5-3.8-19.5-8.5V57.9C7.2,52.3,17.2,49,23.7,49
				l0,0c7.7,0,17.7,3.3,19.6,9.2L43.4,672.4L43.4,672.4z"/>
		</defs>
		<clipPath id="SVGID_00000129919793644889511490000003751688123545947838_">
			<use xlink:href="#SVGID_1_"  style="overflow:visible;"/>
		</clipPath>
	</g>
	<g>
		<defs>
			<path id="SVGID_00000162352700393723346610000009377620708082974904_" d="M43.4,672.4c-0.5,3.9-10.1,8.5-18.5,8.5l0,0
				c-8.2,0.4-19.5-3.8-19.5-8.5V57.9C7.2,52.3,17.2,49,23.7,49l0,0c7.7,0,17.7,3.3,19.6,9.2L43.4,672.4L43.4,672.4z"/>
		</defs>
		<clipPath id="SVGID_00000182503170064004073720000002752103330598483891_">
			<use xlink:href="#SVGID_00000162352700393723346610000009377620708082974904_"  style="overflow:visible;"/>
		</clipPath>
	</g>
	<g>
		<defs>
			<path id="SVGID_00000121987195379517468360000008088751859679101593_" d="M43.4,672.4c-0.5,3.9-10.1,8.5-18.5,8.5l0,0
				c-8.2,0.4-19.5-3.8-19.5-8.5V57.9C7.2,52.3,17.2,49,23.7,49l0,0c7.7,0,17.7,3.3,19.6,9.2L43.4,672.4L43.4,672.4z"/>
		</defs>
		<clipPath id="SVGID_00000158003485722152514370000002284825656957937325_">
			<use xlink:href="#SVGID_00000121987195379517468360000008088751859679101593_"  style="overflow:visible;"/>
		</clipPath>
	</g>
	<g>
		<defs>
			<path id="SVGID_00000174562823453844252270000012333749401419894401_" d="M43.4,672.4c-0.5,3.9-10.1,8.5-18.5,8.5l0,0
				c-8.2,0.4-19.5-3.8-19.5-8.5V54.7C7.2,49.2,17.2,49,23.7,49l0,0c7.7,0,17.7-0.7,19.6,5.2L43.4,672.4L43.4,672.4z"/>
		</defs>
		<clipPath id="SVGID_00000108297721062714537520000016388393718916378772_">
			<use xlink:href="#SVGID_00000174562823453844252270000012333749401419894401_"  style="overflow:visible;"/>
		</clipPath>
		<g style="clip-path:url(#SVGID_00000108297721062714537520000016388393718916378772_);">
			<g>
				<g>
					<rect x="-20" y="49" class="st2" width="100.4" height="43.7"/>
				</g>
			</g>
		</g>
	</g>
	<g>
		<defs>
			<path id="SVGID_00000178180663135404352270000008477203899649096851_" d="M43.4,672.4L43.4,672.4c-0.5,3.9-10.1,8.5-18.5,8.5l0,0
				c-8.2,0.4-19.5-3.8-19.5-8.5L5.9,54.5C7.6,49,17.2,49,23.7,49l0,0"/>
		</defs>
		<clipPath id="SVGID_00000116914911756480309550000013916356056923009943_">
			<use xlink:href="#SVGID_00000178180663135404352270000008477203899649096851_"  style="overflow:visible;"/>
		</clipPath>
		<g style="clip-path:url(#SVGID_00000116914911756480309550000013916356056923009943_);">
			<g>
				<g>
					<rect x="-24.9" y="92.3" class="st0" width="100.4" height="42.7"/>
				</g>
			</g>
		</g>
	</g>
	<g>
		<g>
			<g>
				<g>
					<rect x="5.5" y="135" class="st4" width="38.4" height="43"/>
				</g>
			</g>
		</g>
	</g>
	<g>
		<defs>
			<path id="SVGID_00000089564721959841574570000003852516837710402467_" d="M43.4,672.4c-0.5,3.9-10.1,8.5-18.5,8.5l0,0
				c-8.2,0.4-19.5-3.8-19.5-8.5L5.9,55c1.7-5.6,11.3-6,17.8-6l0,0c7.7,0,17.9-0.4,19.6,9.2L43.4,672.4L43.4,672.4z"/>
		</defs>
		<clipPath id="SVGID_00000034065389483215592640000005544949407090338945_">
			<use xlink:href="#SVGID_00000089564721959841574570000003852516837710402467_"  style="overflow:visible;"/>
		</clipPath>
		<g style="clip-path:url(#SVGID_00000034065389483215592640000005544949407090338945_);">
			<g>
				<g>
					<rect x="-20.5" y="177.9" class="st6" width="100.4" height="42.7"/>
				</g>
			</g>
		</g>
	</g>
	<g>
		<defs>
			<path id="SVGID_00000014611564142208449050000008455915688387861948_" d="M43.4,672.4c-0.5,3.9-10.1,8.5-18.5,8.5l0,0
				c-8.2,0.4-19.5-3.8-19.5-8.5L5.9,54.5C7.6,49,17.2,49,23.7,49l0,0c7.7,0,18-0.5,19.6,9.2L43.4,672.4L43.4,672.4z"/>
		</defs>
		<clipPath id="SVGID_00000077298011276742882700000016579359335099455934_">
			<use xlink:href="#SVGID_00000014611564142208449050000008455915688387861948_"  style="overflow:visible;"/>
		</clipPath>
		<g style="clip-path:url(#SVGID_00000077298011276742882700000016579359335099455934_);">
			<g>
				<g>
					<rect x="-19.5" y="220.6" class="st8" width="100.4" height="42.7"/>
				</g>
			</g>
		</g>
		<g style="clip-path:url(#SVGID_00000077298011276742882700000016579359335099455934_);">
			<g>
				<g>
					<rect x="-26.4" y="263.3" class="st9" width="100.4" height="42.7"/>
				</g>
			</g>
		</g>
	</g>
	<g>
		<defs>
			<path id="SVGID_00000106852521686434071910000009575293214348795534_" d="M43.3,58.1l0.2,614.3l0,0c-0.5,3.9-10.1,8.5-18.5,8.5
				l0,0c-8.2,0.4-19.5-3.8-19.5-8.5"/>
		</defs>
		<defs>
			<line id="SVGID_00000003094554059950347000000010117501682827700132_" x1="23.7" y1="49" x2="23.7" y2="49"/>
		</defs>
		<clipPath id="SVGID_00000045606918386036954200000016024933920264183454_">
			<use xlink:href="#SVGID_00000106852521686434071910000009575293214348795534_"  style="overflow:visible;"/>
		</clipPath>
		
			<clipPath id="SVGID_00000047781034649880581990000005479361269418957502_" style="clip-path:url(#SVGID_00000045606918386036954200000016024933920264183454_);">
			<use xlink:href="#SVGID_00000003094554059950347000000010117501682827700132_"  style="overflow:visible;"/>
		</clipPath>
		<g style="clip-path:url(#SVGID_00000047781034649880581990000005479361269418957502_);">
			<g>
				<g>
					<rect x="-19.5" y="263.2" class="st9" width="100.4" height="42.7"/>
				</g>
			</g>
		</g>
	</g>
	<g>
		<defs>
			<path id="SVGID_00000018212523159850742470000014655113189877905593_" d="M43.3,58.1l0.2,614.3l0,0c-0.5,3.9-10.1,8.5-18.5,8.5
				l0,0c-8.2,0.4-19.5-3.8-19.5-8.5V55.3C7.2,49.7,17.2,49,23.7,49l0,0"/>
		</defs>
		<clipPath id="SVGID_00000097468093916872505880000012499914050385768067_">
			<use xlink:href="#SVGID_00000018212523159850742470000014655113189877905593_"  style="overflow:visible;"/>
		</clipPath>
		<g style="clip-path:url(#SVGID_00000097468093916872505880000012499914050385768067_);">
			<g>
				<g>
					<rect x="-19.5" y="305.9" class="st13" width="100.4" height="42.7"/>
				</g>
			</g>
		</g>
	</g>
	<g>
		<defs>
			<path id="SVGID_00000105418643999158235110000009775362762846023353_" d="M43.4,672.4c-0.5,3.9-10.1,8.5-18.5,8.5l0,0
				c-8.2,0.4-19.5-3.8-19.5-8.5V54.7C7.2,49.2,17.2,49,23.7,49l0,0c7.7,0,18.2-0.4,19.6,9.2L43.4,672.4L43.4,672.4z"/>
		</defs>
		<clipPath id="SVGID_00000024685043492928719060000000365632379051872935_">
			<use xlink:href="#SVGID_00000105418643999158235110000009775362762846023353_"  style="overflow:visible;"/>
		</clipPath>
		<g style="clip-path:url(#SVGID_00000024685043492928719060000000365632379051872935_);">
			<g>
				<g>
					<rect x="-18.2" y="476.7" class="st15" width="100.4" height="42.7"/>
				</g>
			</g>
		</g>
	</g>
	<g>
		<defs>
			<path id="SVGID_00000023972089639541690190000003534773584625044155_" d="M43.4,672.4c-0.5,3.9-10.1,8.5-18.5,8.5l0,0
				c-8.2,0.4-19.5-3.8-19.5-8.5V54.7C7.2,49.2,17.2,49,23.7,49l0,0c7.7,0,18.2-0.9,19.6,9.2L43.4,672.4L43.4,672.4z"/>
		</defs>
		<clipPath id="SVGID_00000047028552058847613920000010148686570819374467_">
			<use xlink:href="#SVGID_00000023972089639541690190000003534773584625044155_"  style="overflow:visible;"/>
		</clipPath>
		<g style="clip-path:url(#SVGID_00000047028552058847613920000010148686570819374467_);">
			<g>
				<g>
					<rect x="-18.2" y="519.3" class="st17" width="100.4" height="42.7"/>
				</g>
			</g>
		</g>
	</g>
	<g>
		<defs>
			<path id="SVGID_00000151541687350652160710000016500800333358312104_" d="M43.4,672.4c-0.5,3.9-10.1,8.5-18.5,8.5l0,0
				c-8.2,0.4-19.5-3.8-19.5-8.5l0-614.5C5.3,43.6,17.1,48.8,23.7,49l0,0c7.7,0,18.3-0.5,19.6,9.2L43.4,672.4L43.4,672.4z"/>
		</defs>
		<clipPath id="SVGID_00000120541104652333172690000002625329440314838206_">
			<use xlink:href="#SVGID_00000151541687350652160710000016500800333358312104_"  style="overflow:visible;"/>
		</clipPath>
		<g style="clip-path:url(#SVGID_00000120541104652333172690000002625329440314838206_);">
			<g>
				<g>
					<rect x="-17.3" y="562" class="st19" width="100.4" height="42.7"/>
				</g>
			</g>
		</g>
	</g>
	<g>
		<defs>
			<path id="SVGID_00000105418521376020648050000001157154154951702435_" d="M43.4,672.4c-0.5,3.9-10.4,3.3-18.8,3.3l0,0
				c-8.2,0.4-18.8,0.6-18.8-4.2V53.5C7.6,48,17.2,49,23.7,49l0,0c7.7,0,17.7,0.3,19.6,6.2L43.4,672.4L43.4,672.4z"/>
		</defs>
		<clipPath id="SVGID_00000088127556317343713220000010943709929094653855_">
			<use xlink:href="#SVGID_00000105418521376020648050000001157154154951702435_"  style="overflow:visible;"/>
		</clipPath>
		<g style="clip-path:url(#SVGID_00000088127556317343713220000010943709929094653855_);">
			<g>
				<g>
					<rect x="-17.6" y="599.4" class="st21" width="100.4" height="79"/>
				</g>
			</g>
		</g>
	</g>
	<g>
		<defs>
			<path id="SVGID_00000137130029831815710830000013748056442354915243_" d="M43.4,672.4c-0.5,3.9-10.4,3.3-18.8,3.3l0,0
				c-8.2,0.4-19.2,1.4-19.2-3.3L5.9,54.5C7.6,49,17.2,49,23.7,49l0,0c7.7,0,17.2,0.6,19.1,6.5L43.4,672.4L43.4,672.4z"/>
		</defs>
		<clipPath id="SVGID_00000084509852646468434640000001329545826539450772_">
			<use xlink:href="#SVGID_00000137130029831815710830000013748056442354915243_"  style="overflow:visible;"/>
		</clipPath>
		<g style="clip-path:url(#SVGID_00000084509852646468434640000001329545826539450772_);">
			<g>
				<g>
					<rect x="-18.2" y="348.6" class="st23" width="100.4" height="42.7"/>
				</g>
			</g>
		</g>
	</g>
	<g>
		<defs>
			<path id="SVGID_00000036935090742195958140000000058260351751285662_" d="M43.4,672.4c-0.5,3.9-10.4,3.3-18.8,3.3l0,0
				c-8.2,0.4-19.2,1.4-18.4-2.8V55.2C7.2,49.2,17.2,49,23.7,49l0,0c7.7,0,17.2,0.3,19,6.2L43.4,672.4L43.4,672.4z"/>
		</defs>
		<clipPath id="SVGID_00000077294330827861603360000016554989046021546646_">
			<use xlink:href="#SVGID_00000036935090742195958140000000058260351751285662_"  style="overflow:visible;"/>
		</clipPath>
		<g style="clip-path:url(#SVGID_00000077294330827861603360000016554989046021546646_);">
			<g>
				<g>
					<rect x="-18.2" y="391.2" class="st25" width="100.4" height="42.7"/>
				</g>
			</g>
		</g>
	</g>
	<g>
		<g>
			<g>
				<g>
					<rect x="6.2" y="433.9" class="st26" width="36.7" height="42.7"/>
				</g>
			</g>
		</g>
	</g>
</g>
<g>
	<g>
		<g>
			<g>
				<defs>
					<path id="SVGID_00000056416588883495204560000012524069774944021435_" d="M43.8,669.9c-0.6,3.9-10.3,8.6-18.6,8.6l0,0
						c-8.3,0.4-19.7-3.8-19.7-8.6v-613c1.9-5.7,5.6-7.3,12.3-7.3l7,0.1c13.7-0.4,17.2,1.7,19.1,7.5V669.9L43.8,669.9z"/>
				</defs>
				<clipPath id="SVGID_00000054228142383137660190000011615645108544139400_">
					<use xlink:href="#SVGID_00000056416588883495204560000012524069774944021435_"  style="overflow:visible;"/>
				</clipPath>
				
					<rect x="-14.7" y="47.7" style="clip-path:url(#SVGID_00000054228142383137660190000011615645108544139400_);fill:#4897D9;" width="80.3" height="33.5"/>
			</g>
		</g>
	</g>
	<g>
		<g>
			<g>
				<defs>
					<path id="SVGID_00000183968701239556434250000005912480227585337766_" d="M43.8,669.9c-0.6,3.9-10.3,8.6-18.6,8.6l0,0
						c-8.3,0.4-19.7-3.8-19.7-8.6v-613c1.9-5.7,11.6-7.3,18.4-7.3l0.1-1.6c7.7,0,18,3.4,19.9,9.1V669.9L43.8,669.9z"/>
				</defs>
				<clipPath id="SVGID_00000152245065479736006600000000823433135306332808_">
					<use xlink:href="#SVGID_00000183968701239556434250000005912480227585337766_"  style="overflow:visible;"/>
				</clipPath>
				
					<rect x="-14.7" y="81.2" style="clip-path:url(#SVGID_00000152245065479736006600000000823433135306332808_);fill:#A2A4D6;" width="80.3" height="33.5"/>
			</g>
		</g>
	</g>
	<g>
		<g>
			<g>
				<defs>
					<path id="SVGID_00000089557656310954209990000012661768323307659964_" d="M43.8,669.9c-0.6,3.9-10.3,8.6-18.6,8.6l0,0
						c-8.3,0.4-19.7-3.8-19.7-8.6v-613c1.9-5.7,11.5-6.6,18.3-6.6l0.1-0.2c7.7,0,18.1,1.2,20,7V669.9L43.8,669.9z"/>
				</defs>
				<clipPath id="SVGID_00000064351120597664740810000013422985500040210622_">
					<use xlink:href="#SVGID_00000089557656310954209990000012661768323307659964_"  style="overflow:visible;"/>
				</clipPath>
				
					<rect x="-13.9" y="114.6" style="clip-path:url(#SVGID_00000064351120597664740810000013422985500040210622_);fill:#B887C0;" width="80.3" height="33.5"/>
			</g>
		</g>
	</g>
	<g>
		<g>
			<g>
				<defs>
					<path id="SVGID_00000171709924332894872980000010434012494636422549_" d="M43.8,669.9c-0.6,3.9-10.3,8.6-18.6,8.6l0,0
						c-8.3,0.4-19.7-3.8-19.7-8.6v-613c1.9-5.7,11.5-6.6,18.3-6.6l0.2-2.3c7.7,0,18,3.4,19.9,9.1V669.9L43.8,669.9z"/>
				</defs>
				<clipPath id="SVGID_00000083049665796044620850000018198947517152325028_">
					<use xlink:href="#SVGID_00000171709924332894872980000010434012494636422549_"  style="overflow:visible;"/>
				</clipPath>
				
					<rect x="-13.9" y="148.1" style="clip-path:url(#SVGID_00000083049665796044620850000018198947517152325028_);fill:#D6A1CC;" width="80.3" height="33.5"/>
			</g>
		</g>
	</g>
	<g>
		<g>
			<g>
				<defs>
					<path id="SVGID_00000129187214098719490120000004908016991504634265_" d="M43.8,669.9c-0.6,3.9-10.3,8.6-18.6,8.6l0,0
						c-8.3,0.4-19.7-3.8-19.7-8.6v-613C7.4,51.2,17.1,50,23.8,50l0.1-2.1c7.7,0,18,3.4,19.9,9.1V669.9L43.8,669.9z"/>
				</defs>
				<clipPath id="SVGID_00000026858992466083844490000004629843470597139605_">
					<use xlink:href="#SVGID_00000129187214098719490120000004908016991504634265_"  style="overflow:visible;"/>
				</clipPath>
				
					<rect x="-14.7" y="181.5" style="clip-path:url(#SVGID_00000026858992466083844490000004629843470597139605_);fill:#E7BDDA;" width="80.3" height="33.5"/>
			</g>
		</g>
	</g>
	<g>
		<g>
			<g>
				<defs>
					<path id="SVGID_00000026861236653074714720000008920088111951984278_" d="M43.8,669.9c-0.6,3.9-10.3,8.6-18.6,8.6l0,0
						c-8.3,0.4-19.7-3.8-19.7-8.6v-613c1.9-5.7,11.7-6.5,18.4-6.5l0-2.4c7.7,0,18,3.4,19.9,9.1V669.9L43.8,669.9z"/>
				</defs>
				<clipPath id="SVGID_00000146462926630866845440000005417418329902798526_">
					<use xlink:href="#SVGID_00000026861236653074714720000008920088111951984278_"  style="overflow:visible;"/>
				</clipPath>
				
					<rect x="-14.7" y="215" style="clip-path:url(#SVGID_00000146462926630866845440000005417418329902798526_);fill:#E57D9A;" width="80.3" height="33.5"/>
			</g>
		</g>
	</g>
	<g>
		<g>
			<g>
				<defs>
					<path id="SVGID_00000054969623598796702410000003282109700633019278_" d="M43.8,669.9c-0.6,3.9-10.3,8.6-18.6,8.6l0,0
						c-8.3,0.4-19.7-3.8-19.7-8.6v-613c1.9-5.7,11.7-7.1,18.4-7.1l0-1.8c7.7,0,18,3.4,19.9,9.1V669.9L43.8,669.9z"/>
				</defs>
				<clipPath id="SVGID_00000013890670123332945660000003985421376552952978_">
					<use xlink:href="#SVGID_00000054969623598796702410000003282109700633019278_"  style="overflow:visible;"/>
				</clipPath>
				
					<rect x="-14.7" y="248.5" style="clip-path:url(#SVGID_00000013890670123332945660000003985421376552952978_);fill:#DA4C4D;" width="80.3" height="33.5"/>
			</g>
		</g>
	</g>
	<g>
		<g>
			<g>
				<defs>
					<path id="SVGID_00000065760776088754352410000011786674682516629913_" d="M43.8,669.9c-0.6,3.9-10.3,8.6-18.6,8.6l0,0
						c-8.3,0.4-19.7-3.8-19.7-8.6v-613c1.9-5.7,11.4-7.2,18.2-7.2l0.3-1.7c7.7,0,18,3.4,19.9,9.1V669.9L43.8,669.9z"/>
				</defs>
				<clipPath id="SVGID_00000114791556661548098850000006166915381913992579_">
					<use xlink:href="#SVGID_00000065760776088754352410000011786674682516629913_"  style="overflow:visible;"/>
				</clipPath>
				
					<rect x="-14.7" y="281.9" style="clip-path:url(#SVGID_00000114791556661548098850000006166915381913992579_);fill:#EE5A5C;" width="80.3" height="33.5"/>
			</g>
		</g>
	</g>
	<g>
		<g>
			<g>
				<defs>
					<path id="SVGID_00000132067832019862750650000006978771718948305576_" d="M43.8,669.9c-0.6,3.9-10.3,8.6-18.6,8.6l0,0
						c-8.3,0.4-19.7-3.8-19.7-8.6v-613c1.9-5.7,11.3-6.9,18-6.9l0.6-0.2c7.7,0,17.9,1.6,19.8,7.4V669.9L43.8,669.9z"/>
				</defs>
				<clipPath id="SVGID_00000169550678866135170510000006698245216100060814_">
					<use xlink:href="#SVGID_00000132067832019862750650000006978771718948305576_"  style="overflow:visible;"/>
				</clipPath>
				
					<rect x="-13.9" y="315.5" style="clip-path:url(#SVGID_00000169550678866135170510000006698245216100060814_);fill:#F6A15C;" width="80.3" height="33.5"/>
			</g>
		</g>
	</g>
	<g>
		<g>
			<g>
				<defs>
					<path id="SVGID_00000075122845180143997720000004076497751049663117_" d="M43.8,669.9c-0.6,3.9-10.3,8.6-18.6,8.6l0,0
						c-8.3,0.4-19.7-3.8-19.7-8.6v-613c1.9-5.7,11.4-6.9,18.2-6.9l0.3-2c7.7,0,18,3.4,19.9,9.1V669.9L43.8,669.9z"/>
				</defs>
				<clipPath id="SVGID_00000102542017607780366890000011238039089582290858_">
					<use xlink:href="#SVGID_00000075122845180143997720000004076497751049663117_"  style="overflow:visible;"/>
				</clipPath>
				
					<rect x="-13.9" y="348.9" style="clip-path:url(#SVGID_00000102542017607780366890000011238039089582290858_);fill:#FCD48E;" width="80.3" height="33.5"/>
			</g>
		</g>
	</g>
	<g>
		<g>
			<g>
				<defs>
					<path id="SVGID_00000117674956362784572390000008608642405267295109_" d="M43.8,669.9c-0.6,3.9-10.3,8.6-18.6,8.6l0,0
						c-8.3,0.4-19.7-3.8-19.7-8.6v-613c1.9-5.7,11.4-6.9,18.2-6.9l-0.1,0.8c7.7,0,18.4,0.6,20.3,6.3V669.9L43.8,669.9z"/>
				</defs>
				<clipPath id="SVGID_00000116935346346148663520000015257924168263017115_">
					<use xlink:href="#SVGID_00000117674956362784572390000008608642405267295109_"  style="overflow:visible;"/>
				</clipPath>
				
					<rect x="-13.9" y="382.4" style="clip-path:url(#SVGID_00000116935346346148663520000015257924168263017115_);fill:#FFE073;" width="80.3" height="33.5"/>
			</g>
		</g>
	</g>
	<g>
		<g>
			<g>
				<defs>
					<path id="SVGID_00000163778747742897757100000009347876985624290983_" d="M43.8,669.9c-0.6,3.9-10.3,8.6-18.6,8.6l0,0
						c-8.3,0.4-19.7-3.8-19.7-8.6v-613C7.4,51.2,16.9,49,23.7,49l0,0c7.7,0,18.2,2.3,20.2,8.1V669.9L43.8,669.9z"/>
				</defs>
				<clipPath id="SVGID_00000160889311292363671780000017596258532165936275_">
					<use xlink:href="#SVGID_00000163778747742897757100000009347876985624290983_"  style="overflow:visible;"/>
				</clipPath>
				
					<rect x="-13" y="516.3" style="clip-path:url(#SVGID_00000160889311292363671780000017596258532165936275_);fill:#D2EBA3;" width="80.3" height="33.5"/>
			</g>
		</g>
	</g>
	<g>
		<g>
			<g>
				<defs>
					<path id="SVGID_00000157296027882468967290000013526165542526046902_" d="M43.8,669.9c-0.6,3.9-10.3,8.6-18.6,8.6l0,0
						c-8.3,0.4-19.7-3.8-19.7-8.6v-613c1.9-5.7,11.4-6.9,18.2-6.9l0,0c7.7,0,18.2,1.4,20.2,7.1V669.9L43.8,669.9z"/>
				</defs>
				<clipPath id="SVGID_00000043448696930042445950000004059087571743069367_">
					<use xlink:href="#SVGID_00000157296027882468967290000013526165542526046902_"  style="overflow:visible;"/>
				</clipPath>
				
					<rect x="-13" y="549.7" style="clip-path:url(#SVGID_00000043448696930042445950000004059087571743069367_);fill:#C2E5D7;" width="80.3" height="33.5"/>
			</g>
		</g>
	</g>
	<g>
		<g>
			<g>
				<defs>
					<path id="SVGID_00000046311838515642038250000000274169537001197213_" d="M43.8,669.9c-0.6,3.9-10.3,8.6-18.6,8.6l0,0
						c-8.3,0.4-19.7-3.8-19.7-8.6v-613c1.9-5.7,11.4-6.9,18.2-6.9l0,0c7.7,0,18.2,1.4,20.2,7.1V669.9L43.8,669.9z"/>
				</defs>
				<clipPath id="SVGID_00000032631237542903591130000012207873761139488678_">
					<use xlink:href="#SVGID_00000046311838515642038250000000274169537001197213_"  style="overflow:visible;"/>
				</clipPath>
				
					<rect x="-12.2" y="583.2" style="clip-path:url(#SVGID_00000032631237542903591130000012207873761139488678_);fill:#C7E7EF;" width="80.3" height="33.5"/>
			</g>
		</g>
	</g>
	<g>
		<g>
			<g>
				<defs>
					<path id="SVGID_00000104683790711239817970000013620521769365753765_" d="M43.8,669.9c-0.6,3.9-7.4,6.6-15.8,6.6l-6.9,0
						c-8.3,0.4-15.7-1.8-15.7-6.7v-613c1.9-5.7,12.2-6.9,19-6.9l0,0c7.7,0,17.5,1.4,19.4,7.1V669.9L43.8,669.9z"/>
				</defs>
				<clipPath id="SVGID_00000164478235325830691100000018350971798838897325_">
					<use xlink:href="#SVGID_00000104683790711239817970000013620521769365753765_"  style="overflow:visible;"/>
				</clipPath>
				
					<rect x="-12.2" y="616.6" style="clip-path:url(#SVGID_00000164478235325830691100000018350971798838897325_);fill:#CFEAF6;" width="80.3" height="62"/>
			</g>
		</g>
	</g>
	<g>
		<g>
			<g>
				<defs>
					<path id="SVGID_00000020367201064446211310000012329648056629148338_" d="M43.8,669.9c-0.6,3.9-10.8,3.9-19.2,3.9l0.6,4.7
						c-8.3,0.4-19.7-3.8-19.7-8.6v-613c1.9-5.7,11.4-6.9,18.2-6.9l0,0c7.7,0,18.2,1.4,20.2,7.1V669.9L43.8,669.9z"/>
				</defs>
				<clipPath id="SVGID_00000141419123388911044120000014061389936386632336_">
					<use xlink:href="#SVGID_00000020367201064446211310000012329648056629148338_"  style="overflow:visible;"/>
				</clipPath>
				
					<rect x="-13" y="415.9" style="clip-path:url(#SVGID_00000141419123388911044120000014061389936386632336_);fill:#FDFD81;" width="80.3" height="33.5"/>
			</g>
		</g>
	</g>
	<g>
		<g>
			<g>
				<defs>
					<path id="SVGID_00000048502576741955377950000008375963206184790706_" d="M43.8,669.9c-0.6,3.9-10.3,5.8-18.7,5.8l0,2.8
						c-8.3,0.4-19.7-3.8-19.7-8.6v-613c1.9-5.7,11.4-6.9,18.2-6.9V49c7.7,0,18.2,2.3,20.2,8.1V669.9L43.8,669.9z"/>
				</defs>
				<clipPath id="SVGID_00000109025091503934557300000004399439105189623708_">
					<use xlink:href="#SVGID_00000048502576741955377950000008375963206184790706_"  style="overflow:visible;"/>
				</clipPath>
				
					<rect x="-13" y="449.3" style="clip-path:url(#SVGID_00000109025091503934557300000004399439105189623708_);fill:#FFFFC6;" width="80.3" height="33.5"/>
			</g>
		</g>
	</g>
	<g>
		<g>
			<g>
				<defs>
					<path id="SVGID_00000113312860207415854330000016533074543136240260_" d="M43.8,669.9c-0.6,3.9-10.3,6.2-18.6,6.2l0,2.4
						c-8.3,0.4-19.7-3.8-19.7-8.6v-613c1.9-5.7,11.4-6.9,18.2-6.9l0,0c7.7,0,18.2,1.4,20.2,7.1V669.9L43.8,669.9z"/>
				</defs>
				<clipPath id="SVGID_00000031202993810857732600000003534063554110169771_">
					<use xlink:href="#SVGID_00000113312860207415854330000016533074543136240260_"  style="overflow:visible;"/>
				</clipPath>
				
					<rect x="-13" y="482.8" style="clip-path:url(#SVGID_00000031202993810857732600000003534063554110169771_);fill:#F2F2A0;" width="80.3" height="33.5"/>
			</g>
		</g>
	</g>
</g>
<circle class="st45" cx="24.1" cy="26.6" r="19.8"/>
<rect x="11.1" y="632" class="st46" width="15.4" height="11.8"/>
<path class="st47" d="M36.6,675.8H12.1c-3.4,0-6.2-2.8-6.2-6.2V56.1c0-3.4,2.8-6.2,6.2-6.2h24.5c3.4,0,6.2,2.8,6.2,6.2v613.5
	C42.8,673,40,675.8,36.6,675.8z"/>
<g>
	<path class="st48" d="M25.8,611.1v7.9h-0.9v-6.9l-2,1.3l-0.4-0.7l2.5-1.7H25.8z"/>
</g>
<g>
	<path class="st48" d="M26.7,585.7h-5.1v-0.8l2.3-2.4c0.4-0.4,0.7-0.7,0.9-0.9c0.2-0.2,0.4-0.5,0.5-0.8c0.1-0.3,0.2-0.6,0.2-0.9
		c0-0.5-0.1-0.9-0.4-1.1c-0.3-0.2-0.7-0.3-1.3-0.3c-0.5,0-1.1,0.1-1.7,0.2l-0.3,0.1l-0.1-0.8c0.8-0.2,1.5-0.3,2.4-0.3
		c0.8,0,1.4,0.2,1.8,0.5c0.4,0.3,0.6,0.9,0.6,1.6c0,0.6-0.1,1-0.4,1.5s-0.7,0.9-1.3,1.5l-2.1,2.1h4V585.7z"/>
</g>
<g>
	<path class="st49" d="M21.4,251.2v-1.5h-3.8V249l2.3-5.7h1l-2.3,5.6h2.9v-2.5h0.9v2.5h1v0.8h-1v1.5H21.4z"/>
	<path class="st49" d="M27.1,243.2c0.7,0,1.2,0.1,1.6,0.4c0.9,0.5,1.3,1.8,1.3,3.8c0,1.4-0.2,2.5-0.7,3.1c-0.5,0.6-1.2,0.9-2.2,0.9
		s-1.7-0.3-2.2-0.9c-0.5-0.6-0.7-1.6-0.7-3.1c0-1.5,0.2-2.6,0.7-3.2C25.4,243.5,26.2,243.2,27.1,243.2z M27.1,244
		c-0.5,0-0.8,0.1-1.1,0.3c-0.6,0.4-0.9,1.4-0.9,3.1c0,1.2,0.2,2,0.5,2.5c0.3,0.5,0.8,0.7,1.5,0.7s1.2-0.2,1.5-0.7
		c0.3-0.5,0.5-1.3,0.5-2.5s-0.2-2.1-0.5-2.6S27.8,244,27.1,244z"/>
</g>
<g>
	<path class="st50" d="M22.1,209.6v0.8h-3.9l-0.2,2.6c0.6-0.3,1.2-0.5,1.9-0.5c1.7,0,2.5,0.8,2.5,2.3c0,0.9-0.2,1.6-0.7,2.1
		c-0.5,0.5-1.1,0.7-2,0.7c-0.7,0-1.4-0.1-2.2-0.3l-0.4-0.1l0.1-0.7c0.9,0.2,1.7,0.3,2.3,0.3s1.1-0.2,1.4-0.5
		c0.3-0.3,0.5-0.8,0.5-1.4s-0.1-1-0.4-1.2s-0.7-0.4-1.2-0.4c-0.3,0-0.6,0-0.9,0.1c-0.3,0.1-0.6,0.2-0.7,0.2l-0.3,0.1l-0.6-0.1
		l0.2-4.1H22.1z"/>
	<path class="st50" d="M26.5,209.5c0.7,0,1.2,0.1,1.6,0.4c0.9,0.5,1.3,1.8,1.3,3.8c0,1.4-0.2,2.5-0.7,3.1c-0.5,0.6-1.2,0.9-2.2,0.9
		s-1.7-0.3-2.2-0.9c-0.5-0.6-0.7-1.6-0.7-3.1c0-1.5,0.2-2.6,0.7-3.2C24.8,209.8,25.5,209.5,26.5,209.5z M26.5,210.3
		c-0.5,0-0.8,0.1-1.1,0.3c-0.6,0.4-0.9,1.4-0.9,3.1c0,1.2,0.2,2,0.5,2.5c0.3,0.5,0.8,0.7,1.5,0.7s1.2-0.2,1.5-0.7
		c0.3-0.5,0.5-1.3,0.5-2.5s-0.1-2.1-0.5-2.6C27.7,210.6,27.2,210.3,26.5,210.3z"/>
</g>
<g>
	<path class="st50" d="M19.8,144.1v7.9h-0.9v-6.9l-2,1.3l-0.4-0.7l2.5-1.7H19.8z"/>
	<path class="st50" d="M25.2,144c0.7,0,1.2,0.1,1.6,0.4c0.9,0.5,1.3,1.8,1.3,3.8c0,1.4-0.2,2.5-0.7,3.1c-0.5,0.6-1.2,0.9-2.2,0.9
		s-1.7-0.3-2.2-0.9c-0.5-0.6-0.7-1.6-0.7-3.1c0-1.5,0.2-2.6,0.7-3.2C23.5,144.3,24.2,144,25.2,144z M25.2,144.8
		c-0.5,0-0.8,0.1-1.1,0.3c-0.6,0.4-0.9,1.4-0.9,3.1c0,1.2,0.2,2,0.5,2.5c0.3,0.5,0.8,0.7,1.5,0.7s1.2-0.2,1.5-0.7
		c0.3-0.5,0.5-1.3,0.5-2.5s-0.2-2.1-0.5-2.6S25.9,144.8,25.2,144.8z"/>
	<path class="st50" d="M31.9,144c0.7,0,1.2,0.1,1.6,0.4c0.9,0.5,1.3,1.8,1.3,3.8c0,1.4-0.2,2.5-0.7,3.1c-0.5,0.6-1.2,0.9-2.2,0.9
		c-1,0-1.7-0.3-2.2-0.9c-0.5-0.6-0.7-1.6-0.7-3.1c0-1.5,0.2-2.6,0.7-3.2C30.2,144.3,30.9,144,31.9,144z M31.9,144.8
		c-0.5,0-0.8,0.1-1.1,0.3c-0.6,0.4-0.9,1.4-0.9,3.1c0,1.2,0.2,2,0.5,2.5c0.3,0.5,0.8,0.7,1.5,0.7c0.7,0,1.2-0.2,1.5-0.7
		c0.3-0.5,0.5-1.3,0.5-2.5s-0.2-2.1-0.5-2.6S32.6,144.8,31.9,144.8z"/>
</g>
<g>
	<path class="st49" d="M19.8,117.4h-5.1v-0.8l2.3-2.4c0.4-0.4,0.7-0.7,0.9-0.9c0.2-0.2,0.3-0.5,0.5-0.8c0.1-0.3,0.2-0.6,0.2-0.9
		c0-0.5-0.1-0.9-0.4-1.1c-0.3-0.2-0.7-0.3-1.3-0.3c-0.5,0-1.1,0.1-1.7,0.2l-0.3,0.1l-0.1-0.8c0.8-0.2,1.5-0.3,2.4-0.3
		c0.8,0,1.4,0.2,1.8,0.5c0.4,0.3,0.6,0.9,0.6,1.6c0,0.6-0.1,1-0.4,1.5s-0.7,0.9-1.3,1.5l-2.1,2.1h4V117.4z"/>
	<path class="st49" d="M24,109.4c0.7,0,1.2,0.1,1.6,0.4c0.9,0.5,1.3,1.8,1.3,3.8c0,1.4-0.2,2.5-0.7,3.1c-0.5,0.6-1.2,0.9-2.2,0.9
		s-1.7-0.3-2.2-0.9c-0.5-0.6-0.7-1.6-0.7-3.1c0-1.5,0.2-2.6,0.7-3.2C22.3,109.7,23,109.4,24,109.4z M24,110.2
		c-0.5,0-0.8,0.1-1.1,0.3c-0.6,0.4-0.9,1.4-0.9,3.1c0,1.2,0.2,2,0.5,2.5c0.3,0.5,0.8,0.7,1.5,0.7s1.2-0.2,1.5-0.7
		c0.3-0.5,0.5-1.3,0.5-2.5s-0.1-2.1-0.5-2.6C25.1,110.5,24.7,110.2,24,110.2z"/>
	<path class="st49" d="M30.7,109.4c0.7,0,1.2,0.1,1.6,0.4c0.9,0.5,1.3,1.8,1.3,3.8c0,1.4-0.2,2.5-0.7,3.1c-0.5,0.6-1.2,0.9-2.2,0.9
		s-1.7-0.3-2.2-0.9c-0.5-0.6-0.7-1.6-0.7-3.1c0-1.5,0.2-2.6,0.7-3.2C29,109.7,29.7,109.4,30.7,109.4z M30.7,110.2
		c-0.5,0-0.8,0.1-1.1,0.3c-0.6,0.4-0.9,1.4-0.9,3.1c0,1.2,0.2,2,0.5,2.5c0.3,0.5,0.8,0.7,1.5,0.7s1.2-0.2,1.5-0.7
		c0.3-0.5,0.5-1.3,0.5-2.5s-0.1-2.1-0.5-2.6C31.9,110.5,31.4,110.2,30.7,110.2z"/>
</g>
<g>
	<path class="st49" d="M14.1,76.7c0.8-0.2,1.6-0.3,2.4-0.3c0.9,0,1.5,0.2,1.9,0.5c0.4,0.3,0.6,0.9,0.6,1.6c0,0.4,0,0.6-0.1,0.8
		c-0.1,0.2-0.2,0.3-0.2,0.4c-0.1,0.1-0.1,0.2-0.2,0.3c-0.2,0.1-0.3,0.2-0.4,0.3l-0.1,0.1c0.5,0.2,0.8,0.4,1,0.6
		c0.2,0.3,0.3,0.7,0.3,1.3c0,0.8-0.2,1.4-0.6,1.8c-0.4,0.4-1.1,0.6-2,0.6c-0.7,0-1.4-0.1-2.2-0.2L14,84.2l0.1-0.8
		c0.9,0.2,1.7,0.3,2.4,0.3c1.1,0,1.7-0.5,1.7-1.5c0-1-0.5-1.4-1.6-1.5H15v-0.8h1.6c0.3,0,0.7-0.1,1-0.4c0.3-0.3,0.5-0.6,0.5-1.1
		c0-0.4-0.1-0.8-0.4-1s-0.7-0.3-1.2-0.3c-0.6,0-1.3,0.1-1.9,0.2l-0.3,0.1L14.1,76.7z"/>
	<path class="st49" d="M23.3,76.4c0.7,0,1.2,0.1,1.6,0.4c0.9,0.5,1.3,1.8,1.3,3.8c0,1.4-0.2,2.5-0.7,3.1c-0.5,0.6-1.2,0.9-2.2,0.9
		s-1.7-0.3-2.2-0.9c-0.5-0.6-0.7-1.6-0.7-3.1c0-1.5,0.2-2.6,0.7-3.2C21.6,76.7,22.4,76.4,23.3,76.4z M23.3,77.2
		c-0.5,0-0.8,0.1-1.1,0.3c-0.6,0.4-0.9,1.4-0.9,3.1c0,1.2,0.2,2,0.5,2.5c0.3,0.5,0.8,0.7,1.5,0.7s1.2-0.2,1.5-0.7
		c0.3-0.5,0.5-1.3,0.5-2.5s-0.1-2.1-0.5-2.6C24.5,77.5,24,77.2,23.3,77.2z"/>
	<path class="st49" d="M30.1,76.4c0.7,0,1.2,0.1,1.6,0.4c0.9,0.5,1.3,1.8,1.3,3.8c0,1.4-0.2,2.5-0.7,3.1c-0.5,0.6-1.2,0.9-2.2,0.9
		s-1.7-0.3-2.2-0.9c-0.5-0.6-0.7-1.6-0.7-3.1c0-1.5,0.2-2.6,0.7-3.2C28.4,76.7,29.1,76.4,30.1,76.4z M30.1,77.2
		c-0.5,0-0.8,0.1-1.1,0.3c-0.6,0.4-0.9,1.4-0.9,3.1c0,1.2,0.2,2,0.5,2.5c0.3,0.5,0.8,0.7,1.5,0.7s1.2-0.2,1.5-0.7
		c0.3-0.5,0.5-1.3,0.5-2.5s-0.1-2.1-0.5-2.6C31.2,77.5,30.8,77.2,30.1,77.2z"/>
</g>
<line class="st51" x1="6.8" y1="615.9" x2="19.7" y2="615.9"/>
<line class="st51" x1="42.5" y1="615.9" x2="28.9" y2="615.9"/>
<line class="st51" x1="5.5" y1="582.6" x2="19.3" y2="582.6"/>
<line class="st51" x1="41.9" y1="582.6" x2="28.5" y2="582.6"/>
<line class="st51" x1="4.9" y1="248.8" x2="16.1" y2="248.8"/>
<line class="st51" x1="42.2" y1="248.9" x2="31" y2="248.9"/>
<line class="st51" x1="5.8" y1="215.2" x2="16.6" y2="215.2"/>
<line class="st51" x1="41.6" y1="215.2" x2="30.7" y2="215.2"/>
<line class="st51" x1="16.1" y1="148.2" x2="6.4" y2="148.2"/>
<line class="st51" x1="42.9" y1="148.4" x2="36" y2="148.4"/>
<line class="st51" x1="5.6" y1="114.6" x2="14.2" y2="114.6"/>
<line class="st51" x1="42.3" y1="114.6" x2="34.8" y2="114.6"/>
<line class="st51" x1="6" y1="81" x2="14" y2="81"/>
<line class="st51" x1="34.1" y1="81" x2="42.1" y2="81"/>
<g>
	<path class="st49" d="M38.8,27v-0.1c0-7.5-6.2-13.7-13.9-14.1v-1.3c0-0.3-0.3-0.7-0.8-0.7c-0.5,0-0.8,0.3-0.8,0.7v1.3
		c-7.8,0.3-13.9,6.6-13.9,14.1c0,0.3,0.3,0.7,0.8,0.7c0.2,0,0.3-0.1,0.6-0.2c2.5-2.3,5.8-2.3,8.2,0c0.1,0.1,0.3,0.2,0.6,0.2
		c0.2,0,0.3-0.1,0.5-0.2c1-0.9,2.2-1.5,3.4-1.6v9.8c0,1.9,1.7,3.7,3.8,3.7s3.8-1.6,3.8-3.7c0-0.3-0.3-0.7-0.8-0.7
		c-0.5,0-0.8,0.3-0.8,0.7c0,1.1-1,2.2-2.3,2.2c-1.3,0-2.3-1-2.3-2.2v-9.8c1.1,0.1,2.4,0.7,3.4,1.6c0.2,0.2,0.8,0.2,1,0
		c2.5-2.3,5.8-2.3,8.3,0c0.2,0.2,0.7,0.2,0.9,0.1C38.7,27.4,38.8,27.2,38.8,27z M28.1,25.5c-1.3-0.8-2.6-1.3-4-1.3h-0.1h-0.1
		c-1.4,0-2.7,0.5-4,1.3c-0.3-4.9,0.9-8.8,2.5-10.5c1-1.1,2.1-1.1,3.2,0C27.1,16.7,28.5,20.5,28.1,25.5z M10.9,25.3
		c0.7-5.4,4.8-9.6,10-10.8c-1.5,1.9-2.9,5.7-2.5,10.8C16.2,23.9,13.3,23.9,10.9,25.3z M29.7,25.3c0.3-5.1-1-8.9-2.5-10.8
		c5.4,1.3,9.4,5.5,10,10.8C34.8,23.9,32,23.9,29.7,25.3z"/>
</g>
<g>
	<path class="st48" d="M22.2,545.1c0.8-0.2,1.6-0.3,2.4-0.3s1.5,0.2,1.9,0.5s0.6,0.9,0.6,1.6c0,0.4-0.1,0.6-0.2,0.8
		c-0.1,0.2-0.2,0.3-0.2,0.4c-0.1,0.1-0.1,0.2-0.2,0.3c-0.2,0.1-0.3,0.2-0.4,0.3l-0.1,0.1c0.5,0.2,0.8,0.4,1,0.6s0.3,0.7,0.3,1.3
		c0,0.8-0.2,1.4-0.6,1.8c-0.4,0.4-1.1,0.6-1.9,0.6c-0.7,0-1.4-0.1-2.2-0.2l-0.4-0.1l0.1-0.8c0.9,0.2,1.7,0.3,2.4,0.3
		c1.1,0,1.7-0.5,1.7-1.5c0-1-0.5-1.4-1.6-1.5h-1.6v-0.8h1.6c0.3,0,0.7-0.1,1-0.4c0.3-0.3,0.5-0.6,0.5-1.1c0-0.4-0.1-0.8-0.4-1
		s-0.7-0.3-1.2-0.3c-0.6,0-1.3,0.1-1.9,0.2l-0.3,0.1L22.2,545.1z"/>
</g>
<line class="st51" x1="6" y1="549.7" x2="19.9" y2="549.7"/>
<line class="st51" x1="42.4" y1="549.7" x2="29" y2="549.7"/>
<g>
	<path class="st49" d="M23.7,318.4h-5.1v-0.8l2.3-2.4c0.4-0.4,0.7-0.7,0.9-0.9c0.2-0.2,0.3-0.5,0.5-0.8c0.1-0.3,0.2-0.6,0.2-0.9
		c0-0.5-0.1-0.9-0.4-1.1c-0.3-0.2-0.7-0.3-1.3-0.3c-0.5,0-1.1,0.1-1.7,0.2l-0.3,0.1l-0.1-0.8c0.8-0.2,1.5-0.3,2.4-0.3
		c0.8,0,1.4,0.2,1.8,0.5c0.4,0.3,0.6,0.9,0.6,1.6c0,0.6-0.1,1-0.4,1.5s-0.7,0.9-1.3,1.5l-2.1,2.1h4V318.4z"/>
	<path class="st49" d="M27.9,310.3c0.7,0,1.2,0.1,1.6,0.4c0.9,0.5,1.3,1.8,1.3,3.8c0,1.4-0.2,2.5-0.7,3.1c-0.5,0.6-1.2,0.9-2.2,0.9
		s-1.7-0.3-2.2-0.9c-0.5-0.6-0.7-1.6-0.7-3.1c0-1.5,0.2-2.6,0.7-3.2C26.2,310.6,26.9,310.3,27.9,310.3z M27.9,311.1
		c-0.5,0-0.8,0.1-1.1,0.3c-0.6,0.4-0.9,1.4-0.9,3.1c0,1.2,0.2,2,0.5,2.5c0.3,0.5,0.8,0.7,1.5,0.7s1.2-0.2,1.5-0.7
		c0.3-0.5,0.5-1.3,0.5-2.5s-0.1-2.1-0.5-2.6C29.1,311.4,28.6,311.1,27.9,311.1z"/>
</g>
<line class="st51" x1="6.1" y1="315" x2="18.5" y2="315"/>
<line class="st51" x1="42.5" y1="315" x2="31.9" y2="315"/>
<g>
	<path class="st49" d="M18.7,276.9c0.8-0.2,1.6-0.3,2.4-0.3s1.5,0.2,1.9,0.5s0.6,0.9,0.6,1.6c0,0.4-0.1,0.6-0.2,0.8
		c-0.1,0.2-0.2,0.3-0.2,0.4c-0.1,0.1-0.1,0.2-0.2,0.3c-0.2,0.1-0.3,0.2-0.4,0.3l-0.1,0.1c0.5,0.2,0.8,0.4,1,0.6s0.3,0.7,0.3,1.3
		c0,0.8-0.2,1.4-0.6,1.8c-0.4,0.4-1.1,0.6-1.9,0.6c-0.7,0-1.4-0.1-2.2-0.2l-0.4-0.1l0.1-0.8c0.9,0.2,1.7,0.3,2.4,0.3
		c1.1,0,1.7-0.5,1.7-1.5c0-1-0.5-1.4-1.6-1.5h-1.6v-0.8h1.6c0.3,0,0.7-0.1,1-0.4c0.3-0.3,0.5-0.6,0.5-1.1c0-0.4-0.1-0.8-0.4-1
		s-0.7-0.3-1.2-0.3c-0.6,0-1.3,0.1-1.9,0.2l-0.3,0.1L18.7,276.9z"/>
	<path class="st49" d="M27.9,276.6c0.7,0,1.2,0.1,1.6,0.4c0.9,0.5,1.3,1.8,1.3,3.8c0,1.4-0.2,2.5-0.7,3.1c-0.5,0.6-1.2,0.9-2.2,0.9
		s-1.7-0.3-2.2-0.9c-0.5-0.6-0.7-1.6-0.7-3.1c0-1.5,0.2-2.6,0.7-3.2C26.2,276.9,26.9,276.6,27.9,276.6z M27.9,277.4
		c-0.5,0-0.8,0.1-1.1,0.3c-0.6,0.4-0.9,1.4-0.9,3.1c0,1.2,0.2,2,0.5,2.5c0.3,0.5,0.8,0.7,1.5,0.7s1.2-0.2,1.5-0.7
		c0.3-0.5,0.5-1.3,0.5-2.5s-0.1-2.1-0.5-2.6C29.1,277.7,28.6,277.4,27.9,277.4z"/>
</g>
<line class="st51" x1="6.1" y1="281.3" x2="18.5" y2="281.3"/>
<line class="st51" x1="42.5" y1="281.3" x2="31.9" y2="281.3"/>
<g>
	<path class="st50" d="M18,176.7v-0.8H23v1.2l-3,6.8l-0.9-0.3l3-6.6v-0.3H18z"/>
	<path class="st50" d="M29.6,175.9v0.8h-3.9l-0.2,2.6c0.6-0.3,1.2-0.5,1.9-0.5c1.7,0,2.5,0.8,2.5,2.3c0,0.9-0.2,1.6-0.7,2.1
		c-0.5,0.5-1.1,0.7-2,0.7c-0.7,0-1.4-0.1-2.2-0.3l-0.4-0.1l0.1-0.7c0.9,0.2,1.7,0.3,2.3,0.3s1.1-0.2,1.4-0.5
		c0.3-0.3,0.5-0.8,0.5-1.4s-0.1-1-0.4-1.2s-0.7-0.4-1.2-0.4c-0.3,0-0.6,0-0.9,0.1c-0.3,0.1-0.6,0.2-0.7,0.2l-0.3,0.1l-0.6-0.1
		l0.2-4.1H29.6z"/>
</g>
<line class="st51" x1="6.5" y1="181.4" x2="17.3" y2="181.4"/>
<line class="st51" x1="42.4" y1="181.4" x2="31.4" y2="181.4"/>
<g>
	<path class="st48" d="M16.6,671.9h-0.9v-6h0.9v0.4c0.6-0.4,1.2-0.5,1.8-0.5c0.7,0,1.3,0.2,1.6,0.6c0.3-0.2,0.6-0.3,1-0.4
		s0.8-0.2,1.1-0.2c0.8,0,1.3,0.2,1.6,0.6c0.3,0.4,0.4,1.2,0.4,2.3v3.2h-0.9v-3.1c0-0.8-0.1-1.4-0.2-1.7c-0.2-0.3-0.5-0.5-1-0.5
		c-0.3,0-0.5,0-0.8,0.1s-0.5,0.2-0.6,0.2l-0.2,0.1c0.1,0.3,0.2,0.8,0.2,1.8v3.1h-0.9v-3.1c0-0.9-0.1-1.5-0.2-1.8
		c-0.2-0.3-0.5-0.5-1-0.5c-0.3,0-0.5,0-0.8,0.1c-0.3,0.1-0.5,0.2-0.6,0.2l-0.2,0.1V671.9z"/>
	<path class="st48" d="M26.6,671.9h-0.9v-6h0.9v0.4c0.6-0.4,1.2-0.5,1.8-0.5c0.7,0,1.3,0.2,1.6,0.6c0.3-0.2,0.6-0.3,1-0.4
		s0.8-0.2,1.1-0.2c0.8,0,1.3,0.2,1.6,0.6c0.3,0.4,0.4,1.2,0.4,2.3v3.2h-0.9v-3.1c0-0.8-0.1-1.4-0.2-1.7c-0.2-0.3-0.5-0.5-1-0.5
		c-0.3,0-0.5,0-0.8,0.1s-0.5,0.2-0.6,0.2l-0.2,0.1c0.1,0.3,0.2,0.8,0.2,1.8v3.1h-0.9v-3.1c0-0.9-0.1-1.5-0.2-1.8
		c-0.2-0.3-0.5-0.5-1-0.5c-0.3,0-0.5,0-0.8,0.1c-0.3,0.1-0.5,0.2-0.6,0.2l-0.2,0.1V671.9z"/>
</g>
<g>
	<path class="st48" d="M22.5,377.4v7.9h-0.9v-6.9l-2,1.3l-0.4-0.7l2.5-1.7H22.5z"/>
	<path class="st48" d="M27.9,377.3c0.7,0,1.2,0.1,1.6,0.4c0.9,0.5,1.3,1.8,1.3,3.8c0,1.4-0.2,2.5-0.7,3.1c-0.5,0.6-1.2,0.9-2.2,0.9
		s-1.7-0.3-2.2-0.9c-0.5-0.6-0.7-1.6-0.7-3.1c0-1.5,0.2-2.6,0.7-3.2C26.2,377.6,26.9,377.3,27.9,377.3z M27.9,378.1
		c-0.5,0-0.8,0.1-1.1,0.3c-0.6,0.4-0.9,1.4-0.9,3.1c0,1.2,0.2,2,0.5,2.5c0.3,0.5,0.8,0.7,1.5,0.7s1.2-0.2,1.5-0.7
		c0.3-0.5,0.5-1.3,0.5-2.5s-0.1-2.1-0.5-2.6C29.1,378.3,28.6,378.1,27.9,378.1z"/>
</g>
<line class="st51" x1="6.1" y1="382" x2="18.5" y2="382"/>
<line class="st51" x1="42.5" y1="382" x2="31.9" y2="382"/>
<g>
	<path class="st48" d="M23.3,344.2v7.9h-0.9v-6.9l-2,1.3l-0.4-0.7l2.5-1.7H23.3z"/>
	<path class="st48" d="M31.1,344.2v0.8h-3.9l-0.2,2.6c0.6-0.3,1.2-0.5,1.9-0.5c1.7,0,2.5,0.8,2.5,2.3c0,0.9-0.2,1.6-0.7,2.1
		c-0.5,0.5-1.1,0.7-2,0.7c-0.7,0-1.4-0.1-2.2-0.3l-0.4-0.1l0.1-0.7c0.9,0.2,1.7,0.3,2.3,0.3s1.1-0.2,1.4-0.5
		c0.3-0.3,0.5-0.8,0.5-1.4s-0.1-1-0.4-1.2s-0.7-0.4-1.2-0.4c-0.3,0-0.6,0-0.9,0.1c-0.3,0.1-0.6,0.2-0.7,0.2l-0.3,0.1l-0.6-0.1
		l0.2-4.1H31.1z"/>
</g>
<line class="st51" x1="7" y1="348.8" x2="19.3" y2="348.8"/>
<line class="st51" x1="43.4" y1="348.8" x2="32.8" y2="348.8"/>
<g>
	<path class="st48" d="M22.4,411.4c0.5-0.3,1.2-0.5,2.1-0.5s1.6,0.2,2.1,0.5c0.5,0.3,0.8,0.9,0.8,1.5c0,0.5-0.1,0.9-0.3,1.1
		c-0.2,0.3-0.5,0.5-1,0.7c0.5,0.2,0.8,0.5,1.1,0.8s0.4,0.7,0.4,1.2c0,1.5-1,2.3-3,2.3c-2,0-3-0.7-3-2.1c0-0.6,0.1-1,0.3-1.3
		c0.2-0.3,0.6-0.6,1-0.8c-0.4-0.2-0.7-0.5-0.9-0.7s-0.3-0.7-0.3-1.1C21.7,412.2,21.9,411.7,22.4,411.4z M22.5,416.7
		c0,1,0.7,1.5,2,1.5s2-0.5,2-1.5c0-0.4-0.1-0.7-0.4-0.9c-0.2-0.2-0.6-0.4-1-0.5h-1.3c-0.4,0.1-0.8,0.3-1,0.5
		C22.6,416,22.5,416.3,22.5,416.7z M26.4,413c0-0.9-0.6-1.3-1.9-1.3c-1.2,0-1.9,0.4-1.9,1.3c0,0.4,0.1,0.6,0.3,0.9
		c0.2,0.2,0.5,0.4,0.9,0.5h1.3c0.4-0.1,0.8-0.3,1-0.5C26.3,413.7,26.4,413.4,26.4,413z"/>
</g>
<line class="st51" x1="6.1" y1="415.6" x2="18.5" y2="415.6"/>
<line class="st51" x1="42.5" y1="415.6" x2="31.9" y2="415.6"/>
<g>
	<path class="st48" d="M26.9,445.4c-0.7-0.1-1.4-0.1-2.1-0.1s-1.2,0.2-1.6,0.7c-0.4,0.5-0.6,1.1-0.6,2l0.3-0.1
		c0.2-0.1,0.5-0.1,0.8-0.2c0.3-0.1,0.6-0.1,0.9-0.1c1.8,0,2.7,0.8,2.7,2.5c0,0.8-0.2,1.5-0.7,1.9s-1.2,0.7-2,0.7
		c-1.9,0-2.8-1.4-2.8-4.1c0-1.4,0.3-2.4,0.8-3.1c0.5-0.7,1.3-1,2.3-1c0.6,0,1.3,0,1.8,0.1l0.3,0.1L26.9,445.4z M24.6,448.3
		c-0.3,0-0.6,0-0.9,0.1s-0.6,0.1-0.8,0.2l-0.3,0.1c0,0.9,0.2,1.6,0.5,2.2s0.8,0.8,1.4,0.8s1.1-0.2,1.4-0.5c0.3-0.3,0.5-0.7,0.5-1.3
		c0-0.6-0.2-1-0.5-1.3C25.6,448.5,25.2,448.3,24.6,448.3z"/>
</g>
<line class="st51" x1="6.1" y1="449.1" x2="18.5" y2="449.1"/>
<line class="st51" x1="42.5" y1="449.1" x2="31.9" y2="449.1"/>
<g>
	<path class="st48" d="M26.9,477.4v0.8H23l-0.2,2.6c0.6-0.3,1.2-0.5,1.9-0.5c1.7,0,2.5,0.8,2.5,2.3c0,0.9-0.2,1.6-0.7,2.1
		c-0.5,0.5-1.1,0.7-2,0.7c-0.7,0-1.4-0.1-2.2-0.3l-0.4-0.1l0.1-0.7c0.9,0.2,1.7,0.3,2.3,0.3s1.1-0.2,1.4-0.5
		c0.3-0.3,0.5-0.8,0.5-1.4s-0.1-1-0.4-1.2s-0.7-0.4-1.2-0.4c-0.3,0-0.6,0-0.9,0.1c-0.3,0.1-0.6,0.2-0.7,0.2l-0.3,0.1l-0.6-0.1
		l0.2-4.1H26.9z"/>
</g>
<line class="st51" x1="6.1" y1="482" x2="18.5" y2="482"/>
<line class="st51" x1="42.5" y1="482" x2="31.9" y2="482"/>
<g>
	<path class="st48" d="M25.5,520.4v-1.5h-3.8v-0.7l2.3-5.7h1l-2.3,5.6h2.9v-2.5h0.9v2.5h1v0.8h-1v1.5H25.5z"/>
</g>
<line class="st51" x1="6.1" y1="517" x2="18.5" y2="517"/>
<line class="st51" x1="42.5" y1="517" x2="31.9" y2="517"/>
</svg>
