<?xml version="1.0" encoding="utf-8"?>
<!-- Generator: Adobe Illustrator 27.7.0, SVG Export Plug-In . SVG Version: 6.00 Build 0)  -->
<svg version="1.1" id="Livello_1" xmlns="http://www.w3.org/2000/svg" xmlns:xlink="http://www.w3.org/1999/xlink" x="0px" y="0px"
	width="38px" height="644px" viewBox="0 0 37.2 644.1" style="enable-background:new 0 0 37.2 644.1;" xml:space="preserve">
<style type="text/css">
	.st0{enable-background:new    ;}
	.st1{fill:#4C4C4D;}
	.st2{fill:#FFFFFF;}
	.st3{fill:#39322E;}
	.st4{fill:none;stroke:#3C3430;stroke-width:2.9317;stroke-miterlimit:9.7722;}
	.st5{fill:none;}
	.st6{clip-path:url(#SVGID_00000129192829195370664800000013769967506661330855_);fill:#FF0000;}
	.st7{clip-path:url(#SVGID_00000068648738339168840330000002827413332906593408_);fill:#FFFF00;}
	.st8{clip-path:url(#SVGID_00000092439167408149748810000006572093643991006647_);fill:#00FF00;}
	.st9{clip-path:url(#SVGID_00000072246017781804443840000014117273685905641135_);fill:#FF8000;}
	.st10{clip-path:url(#SVGID_00000000185898927831456600000009305082593140930219_);fill:#00FFFF;}
	.st11{clip-path:url(#SVGID_00000024711333814046860150000012935181442764585611_);fill:#0000FF;}
	.st12{fill:none;stroke:#000000;stroke-width:0.9772;stroke-miterlimit:9.7722;}
	.st13{fill:#FFFFFF;stroke:#FFFFFF;stroke-width:0.4886;stroke-miterlimit:9.7722;}
	.st14{fill:none;stroke:#FFFFFF;stroke-width:0.9772;stroke-miterlimit:9.7722;}
	.st15{fill:#3C3530;}
</style>
<circle class="st3" cx="18.6" cy="20.6" r="14.6"/>
<path class="st4" d="M30.4,632.2c-0.3,3.7-6.3,8.1-11.6,8.1l0,0c-5.2,0.4-12.2-3.5-12.2-8.1V48.9c1.1-5.3,7.2-8.4,11.5-8.4l0,0
	c4.8,0,11.1,3.2,12.4,8.7L30.4,632.2L30.4,632.2z"/>
<rect x="13.8" y="28.5" class="st5" width="9.5" height="5.3"/>
<g>
	<g>
		<g>
			<g>
				<g>
					<defs>
						<path id="SVGID_1_" d="M30.3,632c-0.3,3.7-6.3,8.1-11.5,8.1l0,0c-5.1,0.4-12.1-3.5-12.1-8.1V48.7c1.1-5.3,7.2-8.4,11.4-8.4
							l0,0c4.8,0,11,3.2,12.3,8.6L30.3,632L30.3,632z"/>
					</defs>
					<clipPath id="SVGID_00000041263542531681472480000001723046000836222877_">
						<use xlink:href="#SVGID_1_"  style="overflow:visible;"/>
					</clipPath>
					
						<rect x="1" y="537.8" style="clip-path:url(#SVGID_00000041263542531681472480000001723046000836222877_);fill:#FF0000;" width="35.2" height="107.3"/>
				</g>
			</g>
		</g>
	</g>
	<g>
		<g>
			<g>
				<g>
					<defs>
						<path id="SVGID_00000088097379039343214280000017786114916328122498_" d="M30.3,632c-0.3,3.7-6.3,8.1-11.5,8.1l0,0
							c-5.1,0.4-12.1-3.5-12.1-8.1V48.7c1.1-5.3,7.2-8.4,11.4-8.4l0,0c4.8,0,11,3.2,12.3,8.6L30.3,632L30.3,632z"/>
					</defs>
					<clipPath id="SVGID_00000093155461741618743390000011106305800727563661_">
						<use xlink:href="#SVGID_00000088097379039343214280000017786114916328122498_"  style="overflow:visible;"/>
					</clipPath>
					
						<rect x="1.4" y="342.7" style="clip-path:url(#SVGID_00000093155461741618743390000011106305800727563661_);fill:#FFFF00;" width="35.2" height="97.6"/>
				</g>
			</g>
		</g>
	</g>
	<g>
		<g>
			<g>
				<g>
					<defs>
						<path id="SVGID_00000169541020787712877840000013272703699049414335_" d="M30.3,632c-0.3,3.7-6.3,8.1-11.5,8.1l0,0
							c-5.1,0.4-12.1-3.5-12.1-8.1V48.7c1.1-5.3,7.2-8.4,11.4-8.4l0,0c4.8,0,11,3.2,12.3,8.6L30.3,632L30.3,632z"/>
					</defs>
					<clipPath id="SVGID_00000060720816468860446280000001917637259011442092_">
						<use xlink:href="#SVGID_00000169541020787712877840000013272703699049414335_"  style="overflow:visible;"/>
					</clipPath>
					
						<rect x="1.4" y="244.6" style="clip-path:url(#SVGID_00000060720816468860446280000001917637259011442092_);fill:#00FF00;" width="35.2" height="98.1"/>
				</g>
			</g>
		</g>
	</g>
	<g>
		<g>
			<g>
				<g>
					<defs>
						<path id="SVGID_00000163772323490672032300000002724969218151798661_" d="M30.3,632c-0.3,3.7-6.3,8.1-11.5,8.1l0,0
							c-5.1,0.4-12.1-3.5-12.1-8.1V48.7c1.1-5.3,7.2-8.4,11.4-8.4l0,0c4.8,0,11,3.2,12.3,8.6L30.3,632L30.3,632z"/>
					</defs>
					<clipPath id="SVGID_00000075870942906997292380000014475495938796336278_">
						<use xlink:href="#SVGID_00000163772323490672032300000002724969218151798661_"  style="overflow:visible;"/>
					</clipPath>
					
						<rect x="1" y="440.3" style="clip-path:url(#SVGID_00000075870942906997292380000014475495938796336278_);fill:#FF8000;" width="35.2" height="97.6"/>
				</g>
			</g>
		</g>
	</g>
	<g>
		<g>
			<g>
				<g>
					<defs>
						<path id="SVGID_00000031203742310509034450000009689361222874695091_" d="M30.5,631.5c-0.3,3.7-6.4,8.1-11.5,8.1l0,0
							c-5.1,0.4-12.1-3.5-12.1-8.1V48.3c1.1-5.3,7.2-8.4,11.4-8.4l0,0c4.8,0,11,3.2,12.3,8.6L30.5,631.5L30.5,631.5z"/>
					</defs>
					<clipPath id="SVGID_00000172405561941044257950000008387127731225534378_">
						<use xlink:href="#SVGID_00000031203742310509034450000009689361222874695091_"  style="overflow:visible;"/>
					</clipPath>
					
						<rect x="1.5" y="147" style="clip-path:url(#SVGID_00000172405561941044257950000008387127731225534378_);fill:#00FFFF;" width="35.2" height="97.6"/>
				</g>
			</g>
		</g>
	</g>
	<g>
		<g>
			<g>
				<g>
					<defs>
						<path id="SVGID_00000152232809262551819490000017647387320135344513_" d="M30.3,632c-0.3,3.7-6.3,8.1-11.5,8.1l0,0
							c-5.1,0.4-12.1-3.5-12.1-8.1V48.7c1.1-5.3,7.2-8.4,11.4-8.4l0,0c4.8,0,11,3.2,12.3,8.6L30.3,632L30.3,632z"/>
					</defs>
					<clipPath id="SVGID_00000020399060509472438410000004129438092563846826_">
						<use xlink:href="#SVGID_00000152232809262551819490000017647387320135344513_"  style="overflow:visible;"/>
					</clipPath>
					
						<rect x="1.4" y="40.2" style="clip-path:url(#SVGID_00000020399060509472438410000004129438092563846826_);fill:#0000FF;" width="35.2" height="107.3"/>
				</g>
			</g>
		</g>
	</g>
</g>
<path class="st4" d="M30.3,632c-0.3,3.7-6.3,8.1-11.5,8.1l0,0c-5.1,0.4-12.1-3.5-12.1-8.1V48.7c1.1-5.3,7.2-8.4,11.4-8.4l0,0
	c4.8,0,11,3.2,12.3,8.6L30.3,632L30.3,632z"/>
<path class="st2" d="M19.3,8.4c-0.2-0.2-0.4-0.3-0.6-0.3c-0.3,0-0.5,0.1-0.6,0.3c0,0-4.1,5.2-6.6,9.9c-1.1,2.1-1.9,4.2-1.9,5.7
	c0,5.1,4.1,9.2,9.2,9.2S28,29.1,28,24c0-1.5-0.8-3.5-1.9-5.7C23.5,13.6,19.3,8.4,19.3,8.4L19.3,8.4z M18.7,9.9
	c1.3,1.7,4.1,5.5,6,9.1c1,1.9,1.8,3.7,1.8,5.1c0,4.3-3.5,7.8-7.8,7.8s-7.8-3.5-7.8-7.8c0-1.3,0.8-3.1,1.8-5.1
	C14.6,15.4,17.4,11.6,18.7,9.9L18.7,9.9z"/>
<path class="st13" d="M14.8,28.1c0,0-0.1,0.2,0.1,0.3c0.1,0.1,0.3,0,0.3,0l3.7-5.3l3.7-5.3c0,0,0.1-0.1-0.1-0.2s-0.3,0-0.3,0
	l-3.7,5.3L14.8,28.1z"/>
<circle class="st14" cx="15.6" cy="20.1" r="2.2"/>
<circle class="st14" cx="21.6" cy="25.9" r="2.2"/>
<g>
	<path class="st2" d="M12.2,90.3V98h-1.4v-6.5H9.2v-1.2H12.2z"/>
	<path class="st2" d="M15.3,97.6c-0.5-0.3-0.9-0.8-1.1-1.4c-0.3-0.6-0.4-1.3-0.4-2.1s0.1-1.5,0.4-2.1c0.3-0.6,0.7-1.1,1.1-1.4
		c0.5-0.3,1-0.5,1.7-0.5c0.6,0,1.2,0.2,1.7,0.5s0.9,0.8,1.1,1.4s0.4,1.3,0.4,2.1s-0.1,1.5-0.4,2.1s-0.7,1.1-1.1,1.4
		c-0.5,0.3-1,0.5-1.7,0.5S15.8,98,15.3,97.6z M18.3,96.2c0.3-0.5,0.5-1.1,0.5-2s-0.2-1.6-0.5-2c-0.3-0.5-0.8-0.7-1.3-0.7
		s-1,0.2-1.3,0.7c-0.3,0.5-0.5,1.1-0.5,2s0.2,1.6,0.5,2c0.3,0.5,0.8,0.7,1.3,0.7C17.5,96.9,17.9,96.6,18.3,96.2z"/>
	<path class="st2" d="M22.7,97.6c-0.5-0.3-0.9-0.8-1.1-1.4c-0.3-0.6-0.4-1.3-0.4-2.1s0.1-1.5,0.4-2.1s0.7-1.1,1.1-1.4
		c0.5-0.3,1-0.5,1.7-0.5c0.6,0,1.2,0.2,1.7,0.5s0.9,0.8,1.1,1.4s0.4,1.3,0.4,2.1s-0.1,1.5-0.4,2.1s-0.7,1.1-1.1,1.4
		c-0.5,0.3-1,0.5-1.7,0.5S23.2,98,22.7,97.6z M25.7,96.2c0.3-0.5,0.5-1.1,0.5-2s-0.2-1.6-0.5-2c-0.3-0.5-0.8-0.7-1.3-0.7
		s-1,0.2-1.3,0.7s-0.5,1.1-0.5,2s0.2,1.6,0.5,2c0.3,0.5,0.8,0.7,1.3,0.7C24.9,96.9,25.3,96.6,25.7,96.2z"/>
</g>
<g>
	<g>
		<path class="st15" d="M18,196.3c0.2,0.3,0.3,0.7,0.3,1.1c0,0.5-0.1,0.9-0.4,1.2c-0.3,0.4-0.6,0.6-1.1,0.8s-1,0.3-1.7,0.3
			s-1.2-0.1-1.7-0.3s-0.8-0.5-1.1-0.8s-0.4-0.8-0.4-1.2s0.1-0.8,0.3-1.1s0.5-0.6,0.9-0.7c-0.3-0.2-0.5-0.4-0.7-0.7s-0.2-0.6-0.2-1
			s0.1-0.8,0.4-1.1s0.6-0.6,1-0.7c0.4-0.2,0.9-0.3,1.5-0.3s1.1,0.1,1.5,0.3s0.8,0.4,1,0.7s0.4,0.7,0.4,1.1c0,0.4-0.1,0.7-0.3,0.9
			c-0.2,0.3-0.4,0.5-0.7,0.7C17.5,195.7,17.8,195.9,18,196.3z M16.4,198.2c0.3-0.2,0.5-0.5,0.5-0.9s-0.2-0.7-0.5-0.9
			c-0.3-0.2-0.7-0.3-1.3-0.3c-0.5,0-0.9,0.1-1.2,0.3s-0.5,0.5-0.5,0.9s0.2,0.7,0.5,0.9s0.7,0.3,1.2,0.3
			C15.7,198.6,16.1,198.4,16.4,198.2z M14.1,193.2c-0.3,0.2-0.4,0.5-0.4,0.8s0.1,0.6,0.4,0.8c0.3,0.2,0.6,0.3,1.1,0.3
			s0.8-0.1,1.1-0.3c0.3-0.2,0.4-0.5,0.4-0.8s-0.1-0.6-0.4-0.8c-0.3-0.2-0.6-0.3-1.1-0.3S14.4,193,14.1,193.2z"/>
		<path class="st15" d="M20.8,199.2c-0.5-0.3-0.9-0.8-1.1-1.4c-0.3-0.6-0.4-1.3-0.4-2.1s0.1-1.5,0.4-2.1s0.7-1.1,1.1-1.4
			c0.5-0.3,1-0.5,1.7-0.5c0.6,0,1.2,0.2,1.7,0.5s0.9,0.8,1.1,1.4s0.4,1.3,0.4,2.1s-0.1,1.5-0.4,2.1s-0.7,1.1-1.1,1.4
			c-0.5,0.3-1,0.5-1.7,0.5S21.3,199.5,20.8,199.2z M23.8,197.8c0.3-0.5,0.5-1.1,0.5-2s-0.2-1.6-0.5-2c-0.3-0.5-0.8-0.7-1.3-0.7
			s-1,0.2-1.3,0.7s-0.5,1.1-0.5,2s0.2,1.6,0.5,2c0.3,0.5,0.8,0.7,1.3,0.7C23,198.4,23.4,198.2,23.8,197.8z"/>
	</g>
</g>
<g>
	<path class="st15" d="M16.8,293.2c0.4,0.2,0.7,0.5,0.9,0.8s0.3,0.8,0.3,1.2c0,0.5-0.1,0.9-0.4,1.3c-0.2,0.4-0.6,0.7-1,0.9
		c-0.4,0.2-0.9,0.3-1.4,0.3c-1.1,0-1.9-0.3-2.5-1s-0.9-1.6-0.9-2.8c0-0.9,0.2-1.6,0.5-2.2c0.3-0.6,0.8-1.1,1.3-1.4
		c0.6-0.3,1.2-0.5,2-0.5c0.4,0,0.8,0,1.1,0.1s0.7,0.2,0.9,0.4l-0.5,1.1c-0.4-0.2-0.9-0.4-1.5-0.4c-0.7,0-1.3,0.2-1.7,0.7
		s-0.6,1.1-0.6,2l0,0c0.2-0.3,0.5-0.5,0.9-0.6s0.7-0.2,1.2-0.2C16,292.9,16.4,293,16.8,293.2z M16.3,296.3c0.3-0.2,0.4-0.6,0.4-1
		s-0.1-0.7-0.4-1c-0.3-0.2-0.7-0.4-1.1-0.4c-0.5,0-0.8,0.1-1.1,0.4c-0.3,0.2-0.4,0.6-0.4,0.9c0,0.4,0.1,0.7,0.4,0.9
		c0.3,0.2,0.7,0.4,1.2,0.4C15.7,296.7,16,296.6,16.3,296.3z"/>
	<path class="st15" d="M20.4,297.3c-0.5-0.3-0.9-0.8-1.1-1.4c-0.3-0.6-0.4-1.3-0.4-2.1s0.1-1.5,0.4-2.1s0.7-1.1,1.1-1.4
		s1-0.5,1.7-0.5c0.6,0,1.2,0.2,1.7,0.5s0.9,0.8,1.1,1.4s0.4,1.3,0.4,2.1s-0.1,1.5-0.4,2.1s-0.7,1.1-1.1,1.4c-0.5,0.3-1,0.5-1.7,0.5
		C21.5,297.8,20.9,297.6,20.4,297.3z M23.4,295.9c0.3-0.5,0.5-1.1,0.5-2s-0.2-1.6-0.5-2c-0.3-0.5-0.8-0.7-1.3-0.7s-1,0.2-1.3,0.7
		s-0.5,1.1-0.5,2s0.2,1.6,0.5,2c0.3,0.5,0.8,0.7,1.3,0.7C22.6,296.6,23.1,296.3,23.4,295.9z"/>
</g>
<g>
	<path class="st2" d="M17.8,490.9v1.2h-5.7v-1l3.1-2.9c0.3-0.3,0.6-0.6,0.7-0.9c0.1-0.2,0.2-0.5,0.2-0.7c0-0.4-0.1-0.6-0.4-0.8
		c-0.2-0.2-0.6-0.3-1.1-0.3c-0.8,0-1.4,0.3-1.8,0.8l-1-0.8c0.3-0.4,0.7-0.7,1.2-0.9s1.1-0.3,1.7-0.3c0.8,0,1.5,0.2,2,0.6
		c0.5,0.4,0.7,0.9,0.7,1.6c0,0.4-0.1,0.8-0.3,1.2c-0.2,0.4-0.5,0.8-1,1.3l-2.1,2L17.8,490.9L17.8,490.9z"/>
	<path class="st2" d="M20.2,491.8c-0.5-0.3-0.9-0.8-1.1-1.4c-0.3-0.6-0.4-1.3-0.4-2.1s0.1-1.5,0.4-2.1s0.7-1.1,1.1-1.4
		c0.5-0.3,1-0.5,1.7-0.5c0.6,0,1.2,0.2,1.7,0.5s0.9,0.8,1.1,1.4s0.4,1.3,0.4,2.1s-0.1,1.5-0.4,2.1s-0.7,1.1-1.1,1.4
		c-0.5,0.3-1,0.5-1.7,0.5C21.2,492.2,20.6,492.1,20.2,491.8z M23.1,490.3c0.3-0.5,0.5-1.1,0.5-2s-0.2-1.6-0.5-2
		c-0.3-0.5-0.8-0.7-1.3-0.7s-1,0.2-1.3,0.7s-0.5,1.1-0.5,2s0.2,1.6,0.5,2c0.3,0.5,0.8,0.7,1.3,0.7C22.4,491,22.8,490.8,23.1,490.3z"
		/>
</g>
<g>
	<path class="st2" d="M16.7,595.2c-0.5-0.3-0.9-0.8-1.1-1.4c-0.3-0.6-0.4-1.3-0.4-2.1s0.1-1.5,0.4-2.1s0.7-1.1,1.1-1.4
		c0.5-0.3,1-0.5,1.7-0.5c0.6,0,1.2,0.2,1.7,0.5s0.9,0.8,1.1,1.4s0.4,1.3,0.4,2.1s-0.1,1.5-0.4,2.1s-0.7,1.1-1.1,1.4
		c-0.5,0.3-1,0.5-1.7,0.5S17.2,595.5,16.7,595.2z M19.6,593.7c0.3-0.5,0.5-1.1,0.5-2s-0.2-1.6-0.5-2c-0.3-0.5-0.8-0.7-1.3-0.7
		s-1,0.2-1.3,0.7s-0.5,1.1-0.5,2s0.2,1.6,0.5,2c0.3,0.5,0.8,0.7,1.3,0.7C18.9,594.4,19.3,594.2,19.6,593.7z"/>
</g>
<g>
	<path class="st15" d="M18.4,393.7H17v1.7h-1.4v-1.7h-4.2v-1l3.8-5h1.5l-3.6,4.7h2.5v-1.6h1.3v1.6h1.4v1.3H18.4z"/>
	<path class="st15" d="M20.6,395.1c-0.5-0.3-0.9-0.8-1.1-1.4c-0.3-0.6-0.4-1.3-0.4-2.1s0.1-1.5,0.4-2.1s0.7-1.1,1.1-1.4
		s1-0.5,1.7-0.5c0.6,0,1.2,0.2,1.7,0.5s0.9,0.8,1.1,1.4s0.4,1.3,0.4,2.1s-0.1,1.5-0.4,2.1s-0.7,1.1-1.1,1.4c-0.5,0.3-1,0.5-1.7,0.5
		S21.1,395.4,20.6,395.1z M23.6,393.7c0.3-0.5,0.5-1.1,0.5-2s-0.2-1.6-0.5-2c-0.3-0.5-0.8-0.7-1.3-0.7s-1,0.2-1.3,0.7
		s-0.5,1.1-0.5,2s0.2,1.6,0.5,2c0.3,0.5,0.8,0.7,1.3,0.7S23.2,394.1,23.6,393.7z"/>
</g>
<g>
	<path class="st2" d="M13.7,630.6c-0.5-0.4-0.7-1.1-0.7-2c0-0.8,0.2-1.4,0.7-2c0.5-0.4,1-0.8,1.7-0.8c0.7,0,1.3,0.2,1.7,0.8
		c0.5,0.4,0.7,1.1,0.7,2s-0.2,1.4-0.7,2c-0.5,0.4-1,0.8-1.7,0.8C14.8,631.4,14.1,631.1,13.7,630.6z M16.4,629.9
		c0.2-0.3,0.3-0.8,0.3-1.2c0-0.6-0.1-1-0.3-1.2s-0.6-0.4-0.9-0.4c-0.3,0-0.7,0.1-0.9,0.4c-0.2,0.3-0.3,0.8-0.3,1.2
		c0,0.6,0.1,1,0.3,1.2c0.2,0.3,0.6,0.4,0.9,0.4C15.8,630.4,16.1,630.2,16.4,629.9z M21.5,626h1.4l-7,9.9h-1.4L21.5,626z M20.4,635.2
		c-0.5-0.4-0.7-1.1-0.7-2c0-0.8,0.2-1.4,0.7-2c0.5-0.4,1-0.8,1.7-0.8s1.3,0.2,1.7,0.8c0.5,0.4,0.7,1.1,0.7,2c0,0.8-0.2,1.4-0.7,2
		c-0.5,0.4-1,0.8-1.7,0.8S20.8,635.8,20.4,635.2z M23,634.6c0.2-0.3,0.3-0.8,0.3-1.2s-0.1-1-0.3-1.2c-0.2-0.3-0.6-0.4-0.9-0.4
		s-0.7,0.1-0.9,0.4c-0.2,0.3-0.3,0.8-0.3,1.2c0,0.6,0.1,1,0.3,1.2c0.2,0.3,0.6,0.4,0.9,0.4C22.6,635,22.8,634.9,23,634.6z"/>
</g>
</svg>
