<?xml version="1.0" encoding="utf-8"?>
<!-- Generator: Adobe Illustrator 28.0.0, SVG Export Plug-In . SVG Version: 6.00 Build 0)  -->
<svg version="1.1" id="Livello_1" xmlns="http://www.w3.org/2000/svg" xmlns:xlink="http://www.w3.org/1999/xlink" x="0px" y="0px"
	 width="40.8px" height="725.2px" viewBox="0 0 40.8 725.2" style="enable-background:new 0 0 40.8 725.2;" xml:space="preserve">
<style type="text/css">
	.st0{opacity:0.8;}
	.st1{fill:#FF0000;}
	.st2{fill:#FFFF00;}
	.st3{fill:#00FF00;}
	.st4{fill:#FF8C00;}
	.st5{fill:#00FFFF;}
	.st6{fill:#0000FF;}
	.st7{fill:#FFFFFF;}
	.st8{fill:#3C3430;}
	.st9{fill:#3C3530;}
	.st10{fill:#39322E;}
	.st11{fill:none;stroke:#3C3430;stroke-miterlimit:9.77;}
	.st12{fill:none;stroke:#3C3430;stroke-width:2;stroke-miterlimit:9.7722;}
	.st13{fill:#FFFFFF;stroke:#FFFFFF;stroke-width:0.49;stroke-miterlimit:9.77;}
	.st14{fill:none;stroke:#FFFFFF;stroke-width:0.98;stroke-miterlimit:9.77;}
</style>
<g>
	<g class="st0">
		<path class="st1" d="M2.5,604.1h37.9v112c0,4.2-3.2,7.6-7,7.6H8c-3.1,0-5.6-2.7-5.6-6.1V604.1H2.5z"/>
	</g>
	<g class="st0">
		<rect x="3" y="384.7" class="st2" width="37.9" height="109.8"/>
	</g>
	<g class="st0">
		<rect x="3" y="274.3" class="st3" width="37.9" height="110.3"/>
	</g>
	<g class="st0">
		<rect x="2.6" y="494.3" class="st4" width="37.9" height="109.8"/>
	</g>
	<g class="st0">
		<rect x="3.1" y="164.6" class="st5" width="37.9" height="109.8"/>
	</g>
	<g class="st0">
		<path class="st6" d="M6.7,44.5h28.9c2,0,3.7,1.8,3.7,4v116.6H3.8V47.6C3.8,45.9,5.1,44.5,6.7,44.5L6.7,44.5z"/>
	</g>
</g>
<path class="st7" d="M19.4,714.7c0.5-0.7,1.3-1,2.3-1s1.8,0.3,2.3,1s0.8,1.7,0.8,3.2s-0.3,2.5-0.8,3.1s-1.3,0.9-2.3,0.9
	s-1.8-0.3-2.3-0.9s-0.8-1.7-0.8-3.1S18.9,715.3,19.4,714.7z M23.1,717.8c0-1-0.1-1.7-0.3-2.1s-0.6-0.6-1-0.6s-0.8,0.2-1.1,0.6
	c-0.2,0.4-0.3,1.1-0.3,2.1s0.1,1.7,0.3,2.1c0.2,0.4,0.6,0.6,1.1,0.6s0.8-0.2,1-0.6S23.1,718.8,23.1,717.8L23.1,717.8z"/>
<g>
	<path class="st8" d="M20.2,606.1h-5.1v-1.4l1.7-1.7c0.6-0.6,1-1.1,1.2-1.4s0.4-0.7,0.4-1s-0.1-0.6-0.3-0.8
		c-0.2-0.2-0.5-0.2-0.8-0.2c-0.5,0-1.1,0-1.8,0.1h-0.3l-0.1-1.3c0.8-0.2,1.6-0.4,2.4-0.4c1.7,0,2.5,0.8,2.5,2.3
		c0,0.6-0.1,1.1-0.4,1.5s-0.7,1-1.4,1.6l-1.4,1.2h3.3L20.2,606.1L20.2,606.1z"/>
	<path class="st8" d="M22.1,599c0.5-0.7,1.3-1,2.3-1s1.8,0.3,2.3,1s0.8,1.7,0.8,3.2s-0.3,2.5-0.8,3.1s-1.3,0.9-2.3,0.9
		s-1.8-0.3-2.3-0.9s-0.8-1.7-0.8-3.1S21.6,599.6,22.1,599z M25.7,602.1c0-1-0.1-1.7-0.3-2.1s-0.6-0.6-1-0.6s-0.8,0.2-1.1,0.6
		c-0.2,0.4-0.3,1.1-0.3,2.1s0.1,1.7,0.3,2.1s0.6,0.6,1.1,0.6s0.8-0.2,1-0.6S25.7,603.1,25.7,602.1L25.7,602.1z"/>
</g>
<g>
	<path class="st9" d="M19.7,495.7v-1.3h-3.4v-1.3l2-5.4h1.8l-2.1,5.2h1.7v-2.2h1.7v2.2h0.8v1.4h-0.8v1.3
		C21.3,495.7,19.7,495.7,19.7,495.7z"/>
	<path class="st9" d="M23.6,488.6c0.5-0.7,1.3-1,2.3-1s1.8,0.3,2.3,1s0.8,1.7,0.8,3.2s-0.3,2.5-0.8,3.1s-1.3,0.9-2.3,0.9
		s-1.8-0.3-2.3-0.9s-0.8-1.7-0.8-3.1S23.1,489.2,23.6,488.6z M27.3,491.7c0-1-0.1-1.7-0.3-2.1s-0.6-0.6-1-0.6s-0.8,0.2-1.1,0.6
		c-0.2,0.4-0.3,1.1-0.3,2.1s0.1,1.7,0.3,2.1s0.6,0.6,1.1,0.6s0.8-0.2,1-0.6S27.3,492.7,27.3,491.7L27.3,491.7z"/>
</g>
<g>
	<path class="st9" d="M22,379.9c-0.8-0.1-1.5-0.2-2.1-0.2c-1.1,0-1.7,0.6-1.7,1.9l0.2-0.1c0.5-0.1,1-0.2,1.3-0.2
		c0.9,0,1.6,0.2,2,0.6s0.7,1.1,0.7,1.9s-0.3,1.5-0.8,2s-1.2,0.7-2.2,0.7s-1.7-0.4-2.2-1.1s-0.7-1.8-0.7-3.1s0.3-2.4,0.9-3
		s1.4-1,2.5-1c0.6,0,1.3,0.1,2,0.3l0.4,0.1L22,379.9L22,379.9z M19.6,382.7c-0.4,0-0.8,0.1-1.2,0.2l-0.2,0.1c0,1.4,0.5,2.1,1.3,2.1
		c0.4,0,0.7-0.1,0.9-0.3s0.3-0.5,0.3-0.9C20.7,383.1,20.3,382.7,19.6,382.7L19.6,382.7z"/>
	<path class="st9" d="M23.8,379.3c0.5-0.7,1.3-1,2.3-1s1.8,0.3,2.3,1s0.8,1.7,0.8,3.2s-0.3,2.5-0.8,3.1s-1.3,0.9-2.3,0.9
		s-1.8-0.3-2.3-0.9s-0.8-1.7-0.8-3.1S23.3,379.9,23.8,379.3z M27.5,382.4c0-1-0.1-1.7-0.3-2.1s-0.6-0.6-1-0.6s-0.8,0.2-1.1,0.6
		c-0.2,0.4-0.3,1.1-0.3,2.1s0.1,1.7,0.3,2.1c0.2,0.4,0.6,0.6,1.1,0.6s0.8-0.2,1-0.6S27.5,383.4,27.5,382.4L27.5,382.4z"/>
</g>
<g>
	<path class="st10" d="M16.9,269.8c0.5-0.4,1.2-0.6,2.1-0.6s1.6,0.2,2.1,0.6s0.8,0.9,0.8,1.6c0,0.5-0.1,0.8-0.2,1s-0.3,0.5-0.7,0.8
		c0.4,0.3,0.6,0.6,0.8,0.8c0.1,0.3,0.2,0.6,0.2,1.1c0,0.8-0.3,1.4-0.8,1.7c-0.6,0.4-1.3,0.6-2.2,0.6c-2,0-3-0.7-3-2.2
		c0-0.5,0.1-0.9,0.2-1.2c0.2-0.3,0.4-0.6,0.8-0.9c-0.3-0.3-0.6-0.5-0.7-0.8s-0.2-0.6-0.2-1C16.1,270.7,16.4,270.2,16.9,269.8
		L16.9,269.8z M17.8,274.9c0,0.7,0.4,1.1,1.2,1.1s1.2-0.4,1.2-1.1c0-0.4-0.2-0.7-0.7-0.9h-1.1C18,274.2,17.8,274.5,17.8,274.9
		L17.8,274.9z M19,270.7c-0.4,0-0.6,0.1-0.8,0.2s-0.3,0.4-0.3,0.7s0.2,0.6,0.6,0.9h1.1c0.4-0.3,0.6-0.6,0.6-0.9
		C20.1,271,19.8,270.7,19,270.7L19,270.7z"/>
	<path class="st10" d="M23.4,270.2c0.5-0.7,1.3-1,2.3-1s1.8,0.3,2.3,1s0.8,1.7,0.8,3.2s-0.3,2.5-0.8,3.1s-1.3,0.9-2.3,0.9
		s-1.8-0.3-2.3-0.9s-0.8-1.7-0.8-3.1S22.9,270.8,23.4,270.2z M27.1,273.3c0-1-0.1-1.7-0.3-2.1s-0.6-0.6-1-0.6s-0.8,0.2-1.1,0.6
		c-0.2,0.4-0.3,1.1-0.3,2.1s0.1,1.7,0.3,2.1c0.2,0.4,0.6,0.6,1.1,0.6s0.8-0.2,1-0.6S27.1,274.3,27.1,273.3L27.1,273.3z"/>
</g>
<g>
	<path class="st7" d="M17.1,49.4v7.9h-1.7v-6l-1.7,1.1l-0.8-1.2l2.6-1.7L17.1,49.4L17.1,49.4z"/>
	<path class="st7" d="M19.8,50.3c0.5-0.7,1.3-1,2.3-1s1.8,0.3,2.3,1c0.5,0.7,0.8,1.7,0.8,3.2s-0.3,2.5-0.8,3.1s-1.3,0.9-2.3,0.9
		s-1.8-0.3-2.3-0.9C19.3,56,19,54.9,19,53.5C19,52.1,19.3,50.9,19.8,50.3z M23.5,53.4c0-1-0.1-1.7-0.3-2.1c-0.2-0.4-0.6-0.6-1-0.6
		s-0.8,0.2-1.1,0.6c-0.2,0.4-0.3,1.1-0.3,2.1s0.1,1.7,0.3,2.1c0.2,0.4,0.6,0.6,1.1,0.6s0.8-0.2,1-0.6C23.4,55.1,23.5,54.4,23.5,53.4
		L23.5,53.4z"/>
	<path class="st7" d="M26.5,50.3c0.5-0.7,1.3-1,2.3-1s1.8,0.3,2.3,1c0.5,0.7,0.8,1.7,0.8,3.2s-0.3,2.5-0.8,3.1s-1.3,0.9-2.3,0.9
		s-1.8-0.3-2.3-0.9c-0.5-0.6-0.8-1.7-0.8-3.1C25.7,52.1,26,50.9,26.5,50.3z M30.2,53.4c0-1-0.1-1.7-0.3-2.1c-0.2-0.4-0.6-0.6-1-0.6
		s-0.8,0.2-1.1,0.6c-0.2,0.4-0.3,1.1-0.3,2.1s0.1,1.7,0.3,2.1c0.2,0.4,0.6,0.6,1.1,0.6s0.8-0.2,1-0.6C30.1,55.1,30.2,54.4,30.2,53.4
		L30.2,53.4z"/>
</g>
<line class="st11" x1="3.5" y1="494.4" x2="15.4" y2="494.4"/>
<line class="st11" x1="39.7" y1="494.4" x2="29.3" y2="494.4"/>
<line class="st11" x1="3.4" y1="603.9" x2="17.5" y2="603.9"/>
<line class="st11" x1="39.5" y1="603.9" x2="26.7" y2="603.9"/>
<line class="st11" x1="3.7" y1="384.2" x2="14.8" y2="384.2"/>
<line class="st11" x1="29.7" y1="384.2" x2="40.3" y2="384.2"/>
<line class="st11" x1="3.8" y1="274.1" x2="14.6" y2="274.1"/>
<line class="st11" x1="39.6" y1="274.1" x2="28.7" y2="274.1"/>
<line class="st11" x1="16.1" y1="164.9" x2="3.6" y2="164.9"/>
<line class="st11" x1="40.1" y1="165.1" x2="29.1" y2="165.1"/>
<g>
	<path class="st7" d="M18.5,166.5c1.1,0,1.6-0.6,1.6-1.9l-0.2,0.1c-0.5,0.2-1,0.3-1.3,0.3c-0.9,0-1.5-0.2-2-0.6
		c-0.5-0.4-0.7-1.1-0.7-1.9s0.3-1.5,0.8-2s1.3-0.7,2.2-0.7s1.7,0.4,2.2,1.1s0.8,1.8,0.8,3.2s-0.3,2.4-0.8,3
		c-0.6,0.6-1.4,0.9-2.5,0.9c-0.6,0-1.3-0.1-2-0.3l-0.4-0.1l0.1-1.3C17.1,166.4,17.8,166.5,18.5,166.5L18.5,166.5z M18.7,163.5
		c0.4,0,0.8-0.1,1.2-0.2l0.2-0.1c0-1.4-0.5-2-1.3-2c-0.4,0-0.7,0.1-0.9,0.3s-0.3,0.5-0.3,0.9C17.6,163.1,18,163.5,18.7,163.5
		L18.7,163.5z"/>
	<path class="st7" d="M23.3,160.7c0.5-0.7,1.3-1,2.3-1s1.8,0.3,2.3,1s0.8,1.7,0.8,3.2s-0.3,2.5-0.8,3.1s-1.3,0.9-2.3,0.9
		s-1.8-0.3-2.3-0.9s-0.8-1.7-0.8-3.1S22.8,161.4,23.3,160.7z M27,163.9c0-1-0.1-1.7-0.3-2.1c-0.2-0.4-0.6-0.6-1-0.6
		s-0.8,0.2-1.1,0.6c-0.2,0.4-0.3,1.1-0.3,2.1s0.1,1.7,0.3,2.1c0.2,0.4,0.6,0.6,1.1,0.6s0.8-0.2,1-0.6S27,164.8,27,163.9L27,163.9z"
		/>
</g>
<circle class="st10" cx="21.9" cy="21.8" r="19.8"/>
<path class="st12" d="M34,723.7H9.5c-3.4,0-6.2-3-6.2-6.7V51.2c0-3.7,2.8-6.7,6.2-6.7H34c3.4,0,6.2,3,6.2,6.7V717
	C40.2,720.7,37.4,723.7,34,723.7z"/>
<path class="st7" d="M22.2,7.9c-0.2-0.2-0.5-0.3-0.7-0.3c-0.3,0-0.6,0.1-0.7,0.3c0,0-4.7,5.9-7.5,11.3c-1.2,2.4-2.2,4.8-2.2,6.5
	c0,5.8,4.7,10.4,10.4,10.4S32,31.4,32,25.6c0-1.7-0.9-4-2.2-6.5C27,13.8,22.2,7.9,22.2,7.9L22.2,7.9z M21.5,9.6
	c1.5,1.9,4.7,6.2,6.8,10.3c1.1,2.2,2,4.2,2,5.8c0,4.9-4,8.9-8.9,8.9s-8.9-4-8.9-8.9c0-1.5,0.9-3.5,2-5.8C16.9,15.8,20,11.5,21.5,9.6
	L21.5,9.6z"/>
<path class="st13" d="M17.1,30.2c0,0-0.1,0.2,0.1,0.3c0.1,0.1,0.3,0,0.3,0l4.2-6l4.2-6c0,0,0.1-0.1-0.1-0.2s-0.3,0-0.3,0l-4.2,6
	L17.1,30.2z"/>
<circle class="st14" cx="18" cy="21.2" r="2.5"/>
<circle class="st14" cx="24.8" cy="27.7" r="2.5"/>
</svg>
