<?xml version="1.0" encoding="utf-8"?>
<!-- Generator: Adobe Illustrator 28.0.0, SVG Export Plug-In . SVG Version: 6.00 Build 0)  -->
<svg version="1.1" id="Livello_1" xmlns="http://www.w3.org/2000/svg" xmlns:xlink="http://www.w3.org/1999/xlink" x="0px" y="0px"
	 width="48px" height="677px" viewBox="0 0 40.8 725.2" style="enable-background:new 0 0 40.8 725.2;" xml:space="preserve">
<style type="text/css">
	.st0{fill:none;}
	.st1{fill:#4D2E39;}
	.st2{fill:#C2C2C2;}
	.st3{fill:#5A3542;}
	.st4{fill:#5E414D;}
	.st5{fill:#826577;}
	.st6{fill:#A6859B;}
	.st7{fill:#BA9BAF;}
	.st8{fill:#C4ADBF;}
	.st9{fill:#CCBCC7;}
	.st10{fill:#DECED7;}
	.st11{fill:#E8DAE3;}
	.st12{fill:#F7EDF7;}
	.st13{fill:#FFFFFF;}
	.st14{fill:none;stroke:#3C3430;stroke-miterlimit:9.7722;}
	.st15{fill:#3C3430;}
	.st16{fill:#39322E;}
	.st17{fill:none;stroke:#3C3430;stroke-width:2;stroke-miterlimit:9.7722;}
</style>
<g>
	<g>
		<g>
			<path class="st0" d="M40.2,716.9c-0.5,5.3-10.1,11.6-18.5,11.6l0,0c-8.2,0.6-19.5-5.2-19.5-11.6l0.4-840.2
				c1.7-7.6,11.3-8.2,17.8-8.2l0,0c7.7,0,17.9-0.5,19.6,12.5L40.2,716.9L40.2,716.9z"/>
		</g>
	</g>
	<g>
		<g>
			<g>
				<g>
					<path class="st1" d="M4.8,45.5h30.6c1.5,0,2.6,1.2,2.6,2.6v51.6H2.8V47.5C2.8,46.4,3.7,45.5,4.8,45.5z"/>
				</g>
			</g>
		</g>
	</g>
	<g>
		<g>
			<g>
				<g>
					<rect x="3" y="392.4" class="st2" width="36.7" height="58.1"/>
				</g>
			</g>
		</g>
	</g>
	<g>
		<g>
			<g>
				<g>
					<rect x="2.8" y="99.7" class="st3" width="35.2" height="53.9"/>
				</g>
			</g>
		</g>
	</g>
	<g>
		<g>
			<g>
				<g>
					<rect x="2.8" y="153.6" class="st4" width="35.2" height="53.9"/>
				</g>
			</g>
		</g>
	</g>
	<g>
		<g>
			<g>
				<g>
					<rect x="2.8" y="207.4" class="st5" width="35.2" height="53.9"/>
				</g>
			</g>
		</g>
	</g>
	<g>
		<g>
			<g>
				<g>
					<rect x="2.8" y="261.3" class="st6" width="35.2" height="53.9"/>
				</g>
			</g>
		</g>
	</g>
	<g>
		<g>
			<g>
				<g>
					<rect x="2.8" y="315.2" class="st7" width="35.2" height="53.9"/>
				</g>
			</g>
		</g>
	</g>
	<g>
		<g>
			<g>
				<g>
					<rect x="2.8" y="369" class="st8" width="35.2" height="53.9"/>
				</g>
			</g>
		</g>
	</g>
	<g>
		<g>
			<g>
				<g>
					<rect x="2.8" y="422.9" class="st9" width="35.2" height="53.9"/>
				</g>
			</g>
		</g>
	</g>
	<g>
		<g>
			<g>
				<g>
					<rect x="2.8" y="476.7" class="st10" width="35.2" height="53.9"/>
				</g>
			</g>
		</g>
	</g>
	<g>
		<g>
			<g>
				<g>
					<rect x="2.8" y="530.6" class="st11" width="35.2" height="53.9"/>
				</g>
			</g>
		</g>
	</g>
	<g>
		<g>
			<g>
				<g>
					<rect x="2.8" y="584.5" class="st12" width="35.2" height="53.9"/>
				</g>
			</g>
		</g>
	</g>
	<g>
		<g>
			<g>
				<g>
					<path class="st13" d="M2.8,638.3H38v82.4c0,1.8-1.5,3.2-3.2,3.2H5.8c-1.7,0-3.1-1.4-3.1-3.1V638.3z"/>
				</g>
			</g>
		</g>
	</g>
</g>
<g>
	<path class="st13" d="M14.3,258v-1.5h5.1v1.9l-2.8,6.2l-1.5-0.4l2.7-5.8V258H14.3z"/>
	<path class="st13" d="M26.1,256.5v1.4h-3.5l-0.2,1.7c0.5-0.2,1-0.3,1.4-0.3c1.7,0,2.6,0.8,2.6,2.4c0,0.9-0.2,1.6-0.7,2.1
		s-1.1,0.7-2,0.7c-0.4,0-0.8,0-1.3-0.1s-0.8-0.1-1.1-0.2l-0.4-0.1l0.2-1.2c1,0.2,1.8,0.2,2.4,0.2c0.4,0,0.7-0.1,0.9-0.3
		c0.2-0.2,0.3-0.5,0.3-0.9s-0.1-0.7-0.3-0.8s-0.4-0.3-0.7-0.3c-0.5,0-1,0.1-1.4,0.2h-0.2l-1-0.2l0.2-4.3L26.1,256.5L26.1,256.5z"/>
</g>
<g>
	<path class="st13" d="M16.5,103h-5.1v-1.4l1.7-1.7c0.6-0.6,1-1.1,1.3-1.4c0.2-0.3,0.4-0.7,0.4-1s-0.1-0.6-0.3-0.8s-0.5-0.2-0.8-0.2
		c-0.5,0-1.1,0-1.8,0.1h-0.3l-0.1-1.3c0.8-0.2,1.6-0.4,2.4-0.4c1.7,0,2.5,0.8,2.5,2.3c0,0.6-0.1,1.1-0.4,1.5s-0.7,1-1.4,1.6
		l-1.4,1.2h3.3V103z"/>
	<path class="st13" d="M18.3,95.9c0.5-0.7,1.3-1,2.3-1s1.8,0.3,2.3,1s0.8,1.7,0.8,3.2s-0.3,2.5-0.8,3.1s-1.3,0.9-2.3,0.9
		s-1.8-0.3-2.3-0.9s-0.8-1.7-0.8-3.1S17.8,96.5,18.3,95.9z M22,99c0-1-0.1-1.7-0.3-2.1c-0.2-0.4-0.6-0.6-1-0.6s-0.8,0.2-1.1,0.6
		c-0.2,0.4-0.3,1.1-0.3,2.1s0.1,1.7,0.3,2.1s0.6,0.6,1.1,0.6s0.8-0.2,1-0.6S22,100,22,99z"/>
	<path class="st13" d="M25.1,95.9c0.5-0.7,1.3-1,2.3-1s1.8,0.3,2.3,1s0.8,1.7,0.8,3.2s-0.3,2.5-0.8,3.1s-1.3,0.9-2.3,0.9
		s-1.8-0.3-2.3-0.9s-0.8-1.7-0.8-3.1S24.5,96.5,25.1,95.9z M28.7,99c0-1-0.1-1.7-0.3-2.1c-0.2-0.4-0.6-0.6-1-0.6s-0.8,0.2-1.1,0.6
		C26.1,97.3,26,98,26,99s0.1,1.7,0.3,2.1s0.6,0.6,1.1,0.6s0.8-0.2,1-0.6S28.7,100,28.7,99z"/>
</g>
<line class="st14" x1="1.9" y1="638.3" x2="13.3" y2="638.3"/>
<line class="st14" x1="39.2" y1="638.3" x2="27.5" y2="638.3"/>
<line class="st14" x1="2.4" y1="260.6" x2="12.8" y2="260.6"/>
<line class="st14" x1="39" y1="260.7" x2="27.9" y2="260.7"/>
<line class="st14" x1="1.2" y1="207.4" x2="10.8" y2="207.4"/>
<line class="st14" x1="39" y1="207.4" x2="31.1" y2="207.4"/>
<line class="st14" x1="10.6" y1="99.2" x2="1.3" y2="99.2"/>
<line class="st14" x1="38" y1="99.7" x2="31.3" y2="99.7"/>
<line class="st14" x1="2.2" y1="584.5" x2="13.1" y2="584.5"/>
<line class="st14" x1="39.1" y1="584.5" x2="27.6" y2="584.5"/>
<g>
	<path class="st15" d="M24.6,634.3v1.4h-3.5l-0.2,1.7c0.5-0.2,1-0.3,1.4-0.3c1.7,0,2.6,0.8,2.6,2.4c0,0.9-0.2,1.6-0.7,2.1
		s-1.1,0.7-2,0.7c-0.4,0-0.8,0-1.3-0.1c-0.5-0.1-0.8-0.1-1.1-0.2l-0.4-0.1l0.2-1.2c1,0.2,1.8,0.2,2.4,0.2c0.4,0,0.7-0.1,0.9-0.3
		c0.2-0.2,0.3-0.5,0.3-0.9c0-0.4-0.1-0.7-0.3-0.8s-0.4-0.3-0.7-0.3c-0.5,0-1,0.1-1.4,0.2h-0.2l-1-0.2l0.2-4.3L24.6,634.3L24.6,634.3
		z"/>
</g>
<line class="st14" x1="2.7" y1="530.6" x2="13.3" y2="530.6"/>
<line class="st14" x1="38.8" y1="530.6" x2="27.7" y2="530.6"/>
<g>
	<g>
		<path class="st16" d="M18.2,579.9v7.9h-1.7v-6l-1.7,1.1l-0.8-1.2l2.6-1.7L18.2,579.9L18.2,579.9z"/>
		<path class="st16" d="M20.9,580.8c0.5-0.7,1.3-1,2.3-1s1.8,0.3,2.3,1s0.8,1.7,0.8,3.2s-0.3,2.5-0.8,3.1c-0.5,0.6-1.3,0.9-2.3,0.9
			s-1.8-0.3-2.3-0.9c-0.5-0.6-0.8-1.7-0.8-3.1C20.1,582.6,20.4,581.4,20.9,580.8z M24.6,583.9c0-1-0.1-1.7-0.3-2.1
			c-0.2-0.4-0.6-0.6-1-0.6s-0.8,0.2-1.1,0.6c-0.2,0.4-0.3,1.1-0.3,2.1s0.1,1.7,0.3,2.1c0.2,0.4,0.6,0.6,1.1,0.6s0.8-0.2,1-0.6
			C24.5,585.6,24.6,584.9,24.6,583.9z"/>
	</g>
</g>
<line class="st14" x1="2.2" y1="476.7" x2="13.3" y2="476.7"/>
<line class="st14" x1="38.6" y1="476.7" x2="27.3" y2="476.7"/>
<g>
	<path class="st16" d="M19.2,479.5H14v-1.4l1.7-1.7c0.6-0.6,1-1.1,1.3-1.4s0.4-0.7,0.4-1s-0.1-0.6-0.3-0.8c-0.2-0.2-0.5-0.2-0.8-0.2
		c-0.5,0-1.1,0-1.8,0.1h-0.3l-0.1-1.3c0.8-0.2,1.6-0.4,2.4-0.4c1.7,0,2.5,0.8,2.5,2.3c0,0.6-0.1,1.1-0.4,1.5s-0.7,1-1.4,1.6
		l-1.4,1.2h3.3v1.5L19.2,479.5L19.2,479.5z"/>
	<path class="st16" d="M21,472.4c0.5-0.7,1.3-1,2.3-1s1.8,0.3,2.3,1s0.8,1.7,0.8,3.2s-0.3,2.5-0.8,3.1s-1.3,0.9-2.3,0.9
		s-1.8-0.3-2.3-0.9s-0.8-1.7-0.8-3.1S20.5,473.1,21,472.4z M24.7,475.6c0-1-0.1-1.7-0.3-2.1c-0.2-0.4-0.6-0.6-1-0.6
		c-0.5,0-0.8,0.2-1.1,0.6c-0.2,0.4-0.3,1.1-0.3,2.1s0.1,1.7,0.3,2.1c0.2,0.4,0.6,0.6,1.1,0.6s0.8-0.2,1-0.6S24.7,476.6,24.7,475.6z"
		/>
</g>
<line class="st14" x1="3" y1="422.9" x2="13.3" y2="422.9"/>
<line class="st14" x1="39" y1="422.9" x2="26.9" y2="422.9"/>
<g>
	<path class="st16" d="M14,417.8c0.7-0.3,1.6-0.4,2.5-0.4s1.6,0.2,2,0.5s0.6,0.9,0.6,1.7c0,0.8-0.3,1.4-0.9,1.8
		c0.4,0.2,0.7,0.4,0.8,0.6s0.2,0.6,0.2,1.1c0,0.9-0.2,1.5-0.6,1.9s-1.1,0.6-2.1,0.6c-0.7,0-1.4-0.1-2.2-0.3l-0.4-0.1l0.1-1.3
		c0.9,0.2,1.6,0.2,2.3,0.2c0.8,0,1.2-0.4,1.2-1.1c0-0.3-0.1-0.5-0.3-0.7c-0.2-0.2-0.5-0.3-0.8-0.3h-1.6v-1.4h1.6
		c0.3,0,0.5-0.1,0.7-0.3c0.2-0.2,0.3-0.5,0.3-0.7c0-0.6-0.4-0.9-1.2-0.9c-0.6,0-1.1,0.1-1.8,0.2h-0.3L14,417.8z"/>
	<path class="st16" d="M21,418.3c0.5-0.7,1.3-1,2.3-1s1.8,0.3,2.3,1s0.8,1.7,0.8,3.2s-0.3,2.5-0.8,3.1s-1.3,0.9-2.3,0.9
		s-1.8-0.3-2.3-0.9s-0.8-1.7-0.8-3.1S20.5,418.9,21,418.3z M24.7,421.4c0-1-0.1-1.7-0.3-2.1c-0.2-0.4-0.6-0.6-1-0.6
		c-0.5,0-0.8,0.2-1.1,0.6c-0.2,0.4-0.3,1.1-0.3,2.1s0.1,1.7,0.3,2.1c0.2,0.4,0.6,0.6,1.1,0.6s0.8-0.2,1-0.6S24.7,422.4,24.7,421.4z"
		/>
</g>
<line class="st14" x1="1.6" y1="368.7" x2="12.7" y2="368.7"/>
<line class="st14" x1="38" y1="368.7" x2="28.3" y2="368.7"/>
<g>
	<path class="st13" d="M15.4,149.6v7.9h-1.7v-6l-1.7,1.1l-0.8-1.2l2.6-1.7h1.6V149.6z"/>
	<path class="st13" d="M24.9,150.5c0.5-0.7,1.3-1,2.3-1s1.8,0.3,2.3,1s0.8,1.7,0.8,3.2s-0.3,2.5-0.8,3.1s-1.3,0.9-2.3,0.9
		s-1.8-0.3-2.3-0.9s-0.8-1.7-0.8-3.1S24.4,151.1,24.9,150.5z M28.5,153.6c0-1-0.1-1.7-0.3-2.1c-0.2-0.4-0.6-0.6-1-0.6
		c-0.5,0-0.8,0.2-1.1,0.6c-0.2,0.4-0.3,1.1-0.3,2.1s0.1,1.7,0.3,2.1c0.2,0.4,0.6,0.6,1.1,0.6s0.8-0.2,1-0.6S28.5,154.6,28.5,153.6z"
		/>
	<path class="st13" d="M22.9,149.5v1.4h-3.5l-0.2,1.7c0.5-0.2,1-0.3,1.4-0.3c1.7,0,2.6,0.8,2.6,2.4c0,0.9-0.2,1.6-0.7,2.1
		s-1.1,0.7-2,0.7c-0.4,0-0.8,0-1.3-0.1s-0.8-0.1-1.1-0.2l-0.4-0.1l0.2-1.2c1,0.2,1.8,0.2,2.4,0.2c0.4,0,0.7-0.1,0.9-0.3
		c0.2-0.2,0.3-0.5,0.3-0.9s-0.1-0.7-0.3-0.8s-0.4-0.3-0.7-0.3c-0.5,0-1,0.1-1.4,0.2h-0.2l-1-0.2l0.2-4.3L22.9,149.5L22.9,149.5z"/>
	<path class="st13" d="M15.1,203.4v7.9h-1.7v-6l-1.7,1.1l-0.8-1.2l2.6-1.7h1.6V203.4z"/>
	<path class="st13" d="M17.9,204.3c0.5-0.7,1.3-1,2.3-1s1.8,0.3,2.3,1s0.8,1.7,0.8,3.2s-0.3,2.5-0.8,3.1s-1.3,0.9-2.3,0.9
		s-1.8-0.3-2.3-0.9s-0.8-1.7-0.8-3.1S17.3,204.9,17.9,204.3z M21.5,207.4c0-1-0.1-1.7-0.3-2.1c-0.2-0.4-0.6-0.6-1-0.6
		c-0.5,0-0.8,0.2-1.1,0.6c-0.2,0.4-0.3,1.1-0.3,2.1s0.1,1.7,0.3,2.1c0.2,0.4,0.6,0.6,1.1,0.6s0.8-0.2,1-0.6S21.5,208.4,21.5,207.4z"
		/>
	<path class="st13" d="M24.6,204.3c0.5-0.7,1.3-1,2.3-1s1.8,0.3,2.3,1s0.8,1.7,0.8,3.2s-0.3,2.5-0.8,3.1s-1.3,0.9-2.3,0.9
		s-1.8-0.3-2.3-0.9s-0.8-1.7-0.8-3.1S24.1,204.9,24.6,204.3z M28.2,207.4c0-1-0.1-1.7-0.3-2.1c-0.2-0.4-0.6-0.6-1-0.6
		c-0.5,0-0.8,0.2-1.1,0.6c-0.2,0.4-0.3,1.1-0.3,2.1s0.1,1.7,0.3,2.1c0.2,0.4,0.6,0.6,1.1,0.6s0.8-0.2,1-0.6S28.2,208.4,28.2,207.4z"
		/>
</g>
<line class="st14" x1="1.9" y1="153.6" x2="10.6" y2="153.6"/>
<line class="st14" x1="38" y1="153.6" x2="31.3" y2="153.6"/>
<g>
	<path class="st15" d="M17.2,714.2c0.3,0,0.7,0,1.3,0.1h0.3v0.7c-0.6-0.1-1.1-0.1-1.4-0.1c-0.7,0-1.1,0.2-1.4,0.5
		c-0.2,0.3-0.4,0.9-0.4,1.8s0.1,1.5,0.3,1.8s0.7,0.5,1.4,0.5l1.4-0.1v0.7c-0.7,0.1-1.3,0.2-1.7,0.2c-0.9,0-1.6-0.2-1.9-0.7
		c-0.4-0.5-0.5-1.3-0.5-2.4c0-1.1,0.2-1.9,0.6-2.4S16.3,714.2,17.2,714.2z"/>
	<path class="st15" d="M21.1,720.3h-0.9v-6h0.9v0.4c0.6-0.4,1.2-0.5,1.8-0.5c0.7,0,1.3,0.2,1.6,0.6c0.3-0.2,0.6-0.3,1-0.4
		s0.8-0.2,1.1-0.2c0.8,0,1.3,0.2,1.6,0.6c0.3,0.4,0.4,1.2,0.4,2.3v3.2h-0.9v-3.1c0-0.8-0.1-1.4-0.2-1.7c-0.2-0.3-0.5-0.5-1-0.5
		c-0.3,0-0.5,0-0.8,0.1s-0.5,0.2-0.6,0.2l-0.2,0.1c0.1,0.3,0.2,0.8,0.2,1.8v3.1H24v-3.1c0-0.9-0.1-1.5-0.2-1.8
		c-0.2-0.3-0.5-0.5-1-0.5c-0.3,0-0.5,0-0.8,0.1s-0.5,0.2-0.6,0.2l-0.2,0.1L21.1,720.3L21.1,720.3z"/>
</g>
<circle class="st16" cx="20.3" cy="21.3" r="19.8"/>
<path class="st17" d="M32.8,724H8.3c-3.4,0-6.2-3-6.2-6.7v-666c0-3.7,2.8-6.7,6.2-6.7h24.5c3.4,0,6.2,3,6.2,6.7v665.9
	C39,720.9,36.2,724,32.8,724z"/>
<g>
	<path class="st13" d="M25.6,19.1l3.5-2l5.6,1.5c0.5,0.2,0.8-0.2,1-0.5c0.2-0.5-0.2-0.8-0.5-1l-4-1.2l3-1.7c0.3-0.2,0.5-0.7,0.3-1.2
		c-0.2-0.3-0.7-0.5-1.2-0.3l-3,1.7l1.2-4c0.2-0.5-0.2-0.8-0.5-1c-0.5-0.2-0.8,0.2-1,0.5l-1.5,5.6l-3.5,2l-3.5-2v-4l4.1-4.1
		c0.3-0.3,0.3-0.8,0-1.2c-0.3-0.3-0.8-0.3-1.2,0l-3,3V5.9c0-0.5-0.3-0.8-0.8-0.8s-0.8,0.3-0.8,0.8v3.5l-3-3c-0.3-0.3-0.8-0.3-1.2,0
		c-0.3,0.3-0.3,0.8,0,1.2l4.1,4.1v4l-3.5,2l-3.5-2l-1.8-5.5c-0.2-0.5-0.5-0.7-1-0.5s-0.7,0.5-0.5,1l1.2,4l-3-1.7
		c-0.3-0.2-0.8-0.2-1.2,0.3c-0.2,0.3-0.2,0.8,0.3,1.2l3,1.7l-4,1.2c-0.5,0.2-0.7,0.5-0.5,1s0.5,0.7,1,0.5l5.6-1.5l3.5,2v4.1l-3.5,2
		L6.2,24c-0.5-0.2-0.8,0.2-1,0.5c-0.2,0.5,0.2,0.8,0.5,1l4,1.2l-3,1.7c-0.3,0.2-0.5,0.7-0.3,1.2c0.2,0.3,0.7,0.5,1.2,0.3l3-1.7
		l-1.2,4c-0.2,0.5,0.2,0.8,0.5,1c0.5,0.2,0.8-0.2,1-0.5l1.5-5.6l3.5-2l3.5,2v4L15.5,35c-0.3,0.3-0.3,0.8,0,1.2
		c0.3,0.3,0.8,0.3,1.2,0l3-3v3.5c0,0.5,0.3,0.8,0.8,0.8s0.8-0.3,0.8-0.8v-3.5l3,3c0.3,0.3,0.8,0.3,1.2,0c0.3-0.3,0.3-0.8,0-1.2
		l-4.1-4.1v-4.1l3.5-2l3.5,2l1.5,5.6c0.2,0.5,0.5,0.7,1,0.5s0.7-0.5,0.5-1l-1.2-4l3,1.7c0.3,0.2,0.8,0.2,1.2-0.3
		c0.2-0.3,0.2-0.8-0.3-1.2l-3-1.7l4-1.2c0.5-0.2,0.7-0.5,0.5-1s-0.5-0.7-1-0.5L29,25.3l-3.5-2v-4.2C25.5,19.1,25.6,19.1,25.6,19.1z
		 M23.9,23.3l-3.5,2l-3.5-2v-4.1l3.5-2l3.5,2V23.3z"/>
</g>
<g>
	<g>
		<path class="st16" d="M18.3,526.2v7.9h-1.7v-6l-1.7,1.1l-0.8-1.2l2.6-1.7L18.3,526.2L18.3,526.2z"/>
		<g>
			<path class="st15" d="M24.6,526.2v1.4h-3.5l-0.2,1.7c0.5-0.2,1-0.3,1.4-0.3c1.7,0,2.6,0.8,2.6,2.4c0,0.9-0.2,1.6-0.7,2.1
				s-1.1,0.7-2,0.7c-0.4,0-0.8,0-1.3-0.1c-0.5-0.1-0.8-0.1-1.1-0.2l-0.4-0.1l0.2-1.2c1,0.2,1.8,0.2,2.4,0.2c0.4,0,0.7-0.1,0.9-0.3
				c0.2-0.2,0.3-0.5,0.3-0.9c0-0.4-0.1-0.7-0.3-0.8s-0.4-0.3-0.7-0.3c-0.5,0-1,0.1-1.4,0.2h-0.2l-1-0.2l0.2-4.3L24.6,526.2
				L24.6,526.2z"/>
		</g>
	</g>
</g>
<g>
	<path class="st13" d="M19.2,310.4v1.4h-3.6l-0.2,1.7c0.5-0.2,1-0.3,1.4-0.3c1.7,0,2.6,0.8,2.6,2.4c0,0.9-0.2,1.6-0.7,2.1
		s-1.1,0.7-2,0.7c-0.4,0-0.8,0-1.3-0.1c-0.5-0.1-0.8-0.1-1.1-0.2l-0.4-0.1l0.2-1.2c1,0.2,1.8,0.2,2.4,0.2c0.4,0,0.7-0.1,0.9-0.3
		c0.2-0.2,0.3-0.5,0.3-0.9s-0.1-0.7-0.3-0.8s-0.4-0.3-0.7-0.3c-0.5,0-1,0.1-1.4,0.2h-0.2l-1-0.2l0.2-4.3L19.2,310.4L19.2,310.4z"/>
	<path class="st13" d="M21.1,311.3c0.5-0.7,1.3-1,2.3-1s1.8,0.3,2.3,1s0.8,1.7,0.8,3.2s-0.3,2.5-0.8,3.1s-1.3,0.9-2.3,0.9
		s-1.8-0.3-2.3-0.9s-0.8-1.7-0.8-3.1S20.6,311.9,21.1,311.3z M24.8,314.4c0-1-0.1-1.7-0.3-2.1c-0.2-0.4-0.6-0.6-1-0.6
		c-0.5,0-0.8,0.2-1.1,0.6c-0.2,0.4-0.3,1.1-0.3,2.1s0.1,1.7,0.3,2.1c0.2,0.4,0.6,0.6,1.1,0.6s0.8-0.2,1-0.6S24.8,315.4,24.8,314.4z"
		/>
</g>
<line class="st14" x1="2.2" y1="316.1" x2="12.6" y2="316.1"/>
<line class="st14" x1="38.9" y1="316.2" x2="27.7" y2="316.2"/>
<g>
	<path class="st16" d="M18.3,371.5v-1.3H15v-1.3l2-5.4h1.8l-2.1,5.2h1.7v-2.2H20v2.2h0.8v1.4H20v1.3H18.3z"/>
	<path class="st16" d="M22.3,364.4c0.5-0.7,1.3-1,2.3-1c1,0,1.8,0.3,2.3,1c0.5,0.7,0.8,1.7,0.8,3.2s-0.3,2.5-0.8,3.1
		s-1.3,0.9-2.3,0.9c-1,0-1.8-0.3-2.3-0.9c-0.5-0.6-0.8-1.7-0.8-3.1S21.7,365,22.3,364.4z M25.9,367.5c0-1-0.1-1.7-0.3-2.1
		c-0.2-0.4-0.6-0.6-1-0.6s-0.8,0.2-1.1,0.6c-0.2,0.4-0.3,1.1-0.3,2.1s0.1,1.7,0.3,2.1c0.2,0.4,0.6,0.6,1.1,0.6s0.8-0.2,1-0.6
		S25.9,368.5,25.9,367.5z"/>
</g>
</svg>
