<?xml version="1.0" encoding="utf-8"?>
<!-- Generator: Adobe Illustrator 28.0.0, SVG Export Plug-In . SVG Version: 6.00 Build 0)  -->
<svg version="1.1" id="Livello_1" xmlns="http://www.w3.org/2000/svg" xmlns:xlink="http://www.w3.org/1999/xlink" x="0px" y="0px"
	  width="50px" height="677px" viewBox="0 0 50.6 677.2" style="enable-background:new 0 0 50.6 677.2;" xml:space="preserve">
<style type="text/css">
	.st0{display:none;}
	.st1{display:inline;}
	.st2{clip-path:url(#SVGID_00000037677763482439016880000012750769575630279848_);}
	.st3{fill:#F59826;}
	.st4{fill:#FDCC22;}
	.st5{fill:#6655AD;}
	.st6{fill:#975EAD;}
	.st7{fill:#C66AAF;}
	.st8{fill:#AF48A1;}
	.st9{fill:#981595;}
	.st10{fill:#660666;}
	.st11{fill:#640E0E;}
	.st12{fill:#991E1F;}
	.st13{fill:#CB2527;}
	.st14{fill:#EC2426;}
	.st15{fill:#F06626;}
	.st16{fill:#FCFC1E;}
	.st17{fill:#CBE436;}
	.st18{fill:#7ECB47;}
	.st19{fill:#0EB04E;}
	.st20{fill:#37BD7C;}
	.st21{fill:#58C3BA;}
	.st22{fill:#6FC9DC;}
	.st23{fill:#33BCF3;}
	.st24{fill:#498DD2;}
	.st25{fill:#4469BB;}
	.st26{fill:#3F57B0;}
	.st27{display:none;fill:none;stroke:#3C3430;stroke-width:3;stroke-miterlimit:10;}
	.st28{clip-path:url(#SVGID_00000044857558535634644830000000470494692493702802_);fill:#FFFAFA;}
	.st29{clip-path:url(#SVGID_00000138572896097056920620000006881549076957127316_);fill:#FBD5D6;}
	.st30{clip-path:url(#SVGID_00000091697897406807068750000009675411166877153969_);fill:#F9C1C2;}
	.st31{clip-path:url(#SVGID_00000146459032632156356990000017050789518214058141_);fill:#FDEBEB;}
	.st32{clip-path:url(#SVGID_00000033349357758185578760000006233066710482504845_);fill:#F6ABAD;}
	.st33{clip-path:url(#SVGID_00000109710608351494922060000004831329618456608139_);fill:#F49799;}
	.st34{clip-path:url(#SVGID_00000024705428639700124520000007212368159253551499_);fill:#C8E8F0;}
	.st35{clip-path:url(#SVGID_00000182509873723452215720000000639794203094225553_);fill:#D0EBF7;}
	.st36{clip-path:url(#SVGID_00000140694054848029849250000009287476970438913158_);fill:#4898DA;}
	.st37{clip-path:url(#SVGID_00000155859896663104782040000002036607575117977522_);fill:#A3A5D7;}
	.st38{clip-path:url(#SVGID_00000141451052049110369270000009577254874190327694_);fill:#B988C1;}
	.st39{clip-path:url(#SVGID_00000026125592304233726730000014041664045132434086_);fill:#D7A2CD;}
	.st40{clip-path:url(#SVGID_00000078732487652879591830000017822487225686480775_);fill:#E8BEDB;}
	.st41{clip-path:url(#SVGID_00000172415696032671216440000008838114742097854345_);fill:#E67D9B;}
	.st42{clip-path:url(#SVGID_00000045579277919652174900000002282023982691883664_);fill:#DB4C4D;}
	.st43{clip-path:url(#SVGID_00000083768170156648898650000017771343221439429792_);fill:#EF5A5C;}
	.st44{clip-path:url(#SVGID_00000032622986253791762960000018354884586875620254_);fill:#F7A25C;}
	.st45{clip-path:url(#SVGID_00000113342568064507061830000006445672594756393629_);fill:#FDD58F;}
	.st46{clip-path:url(#SVGID_00000178883727893983062590000006212505608325597064_);fill:#FFE173;}
	.st47{clip-path:url(#SVGID_00000163783991257322651620000011697967744097815728_);fill:#FEFE82;}
	.st48{clip-path:url(#SVGID_00000065760589816778730020000017733193677284098960_);fill:#FFFFC7;}
	.st49{clip-path:url(#SVGID_00000016759650229382550670000009256101377992782991_);fill:#F3F3A1;}
	.st50{clip-path:url(#SVGID_00000084520438047317925640000017714520166393652880_);fill:#D3ECA4;}
	.st51{clip-path:url(#SVGID_00000105411198885523784460000006584128975975737740_);fill:#C3E6D8;}
	.st52{clip-path:url(#SVGID_00000127008922595816036490000010138637100227721602_);fill:#C8E8F0;}
	.st53{clip-path:url(#SVGID_00000157292429435333168100000001793722437944810118_);fill:#D0EBF7;}
	.st54{clip-path:url(#SVGID_00000160165327068931893140000015489480573853476770_);fill:#EC2426;}
	.st55{clip-path:url(#SVGID_00000044167391297933129870000016965529050734032784_);fill:#FCFC1E;}
	.st56{clip-path:url(#SVGID_00000069369748407059513810000016743176391574638763_);fill:#0B7F3F;}
	.st57{clip-path:url(#SVGID_00000137124716663738102010000006424379855521764016_);fill:#F7A426;}
	.st58{clip-path:url(#SVGID_00000104689886744489160680000012192690260974485910_);fill:#6FC9DC;}
	.st59{clip-path:url(#SVGID_00000092430993238582545480000010470133284330807201_);fill:#3F57B0;}
	.st60{display:none;fill:#3A332F;}
	.st61{display:none;fill:none;stroke:#3C3430;stroke-width:2.9317;stroke-miterlimit:9.7722;}
	.st62{display:inline;fill:#3C3530;}
	.st63{display:inline;fill:#FFFFFF;}
	.st64{display:none;fill:none;}
	.st65{display:none;enable-background:new    ;}
	.st66{fill:#39322E;}
	.st67{fill:#FFFFFF;}
	.st68{clip-path:url(#SVGID_00000084516411028424704760000017966801904562928810_);}
	.st69{opacity:0.88;fill:#64007F;enable-background:new    ;}
	.st70{opacity:0.88;fill:#FFDCDC;enable-background:new    ;}
	.st71{opacity:0.88;fill:#FFB4B4;enable-background:new    ;}
	.st72{opacity:0.88;fill:#F0A0A0;enable-background:new    ;}
	.st73{opacity:0.88;fill:#B46464;enable-background:new    ;}
	.st74{opacity:0.88;fill:#640000;enable-background:new    ;}
	.st75{opacity:0.88;fill:#7C0000;enable-background:new    ;}
	.st76{opacity:0.88;fill:#AF0F14;enable-background:new    ;}
	.st77{opacity:0.88;fill:#C41A0A;enable-background:new    ;}
	.st78{opacity:0.88;fill:#E83709;enable-background:new    ;}
	.st79{opacity:0.88;fill:#F46D0B;enable-background:new    ;}
	.st80{opacity:0.88;fill:#F4880B;enable-background:new    ;}
	.st81{opacity:0.88;fill:#F4BD0B;enable-background:new    ;}
	.st82{opacity:0.88;fill:#F4D90B;enable-background:new    ;}
	.st83{opacity:0.88;fill:#F3FB01;enable-background:new    ;}
	.st84{opacity:0.88;fill:#CEF003;enable-background:new    ;}
	.st85{opacity:0.88;fill:#9CE106;enable-background:new    ;}
	.st86{opacity:0.88;fill:#52CA0B;enable-background:new    ;}
	.st87{opacity:0.88;fill:#21BB0E;enable-background:new    ;}
	.st88{opacity:0.88;fill:#07A127;enable-background:new    ;}
	.st89{opacity:0.88;fill:#62AF88;enable-background:new    ;}
	.st90{opacity:0.88;fill:#87D3AB;enable-background:new    ;}
	.st91{opacity:0.88;fill:#9FEEC8;enable-background:new    ;}
	.st92{opacity:0.88;fill:#BBFFE2;enable-background:new    ;}
	.st93{opacity:0.88;fill:#5BB4FF;enable-background:new    ;}
	.st94{opacity:0.88;fill:#259AFF;enable-background:new    ;}
	.st95{opacity:0.88;fill:#0082EF;enable-background:new    ;}
	.st96{opacity:0.88;fill:#0062AF;enable-background:new    ;}
	.st97{opacity:0.88;fill:#00528F;enable-background:new    ;}
	.st98{opacity:0.88;fill:#00467F;enable-background:new    ;}
	.st99{opacity:0.88;fill:#003C7F;enable-background:new    ;}
	.st100{opacity:0.88;fill:#00287F;enable-background:new    ;}
	.st101{opacity:0.88;fill:#3E007F;enable-background:new    ;}
	.st102{opacity:0.88;fill:#57007F;enable-background:new    ;}
	.st103{opacity:0.88;fill:#F627EB;enable-background:new    ;}
	.st104{opacity:0.88;fill:#D41DD1;enable-background:new    ;}
	.st105{opacity:0.88;fill:#B414B9;enable-background:new    ;}
	.st106{opacity:0.88;fill:#870898;enable-background:new    ;}
	.st107{opacity:0.88;fill:#78048D;enable-background:new    ;}
	.st108{clip-path:url(#SVGID_00000008864867899271120780000003377878284846929836_);}
	.st109{fill:none;}
	.st110{fill:#FFFFFF;stroke:#FFFFFF;stroke-width:0.75;stroke-miterlimit:10;}
	.st111{fill:none;stroke:#3C3430;stroke-width:2;stroke-miterlimit:9.7722;}
	.st112{fill:none;stroke:#3C3430;stroke-miterlimit:9.7722;}
	.st113{fill:#39322E;stroke:#3C3530;stroke-width:0.75;stroke-miterlimit:10;}
</style>
<g class="st0">
	<g class="st1">
		<g>
			<g>
				<g>
					<g>
						<g>
							<defs>
								<path id="SVGID_1_" d="M30.6,642.8c-0.3,3.7-6.4,8.1-11.7,8.1l0,0c-5.2,0.4-12.3-3.6-12.3-8.1V58.7
									c1.1-5.3,7.4-8.5,11.5-8.5l0,0c4.9,0,11.2,3.1,12.4,8.7L30.6,642.8L30.6,642.8z"/>
							</defs>
							<clipPath id="SVGID_00000126283603299639802330000013351757462138567074_">
								<use xlink:href="#SVGID_1_"  style="overflow:visible;"/>
							</clipPath>
							<g style="clip-path:url(#SVGID_00000126283603299639802330000013351757462138567074_);">
								<rect x="-1.1" y="51.6" class="st3" width="47.9" height="15"/>
								<rect x="-5.6" y="65.9" class="st4" width="47.4" height="14.2"/>
								<rect x="-5.6" y="80.1" class="st5" width="47.4" height="14.2"/>
								<rect x="-5.6" y="94.4" class="st6" width="47.4" height="14.2"/>
								<rect x="-5.6" y="108.7" class="st7" width="47.4" height="14.2"/>
								<rect x="-5.6" y="122.9" class="st8" width="47.4" height="14.2"/>
								<rect x="-5.6" y="137.1" class="st9" width="47.4" height="14.2"/>
								<rect x="-5.6" y="151.3" class="st10" width="47.4" height="14.2"/>
								<rect x="-5.6" y="165.5" class="st11" width="47.4" height="14.2"/>
								<rect x="-5.6" y="179.7" class="st12" width="47.4" height="14.2"/>
								<rect x="-5.6" y="194" class="st13" width="47.4" height="14.2"/>
								<rect x="-5.6" y="208.2" class="st14" width="47.4" height="14.2"/>
								<rect x="-5.6" y="222.4" class="st15" width="47.4" height="14.2"/>
								<rect x="-5.6" y="236.6" class="st3" width="47.4" height="14.2"/>
								<rect x="-5.6" y="250.8" class="st4" width="47.4" height="14.2"/>
								<rect x="-5.6" y="265" class="st16" width="47.4" height="14.2"/>
								<rect x="-5.6" y="279.3" class="st17" width="47.4" height="14.2"/>
								<rect x="-5.6" y="293.5" class="st18" width="47.4" height="14.2"/>
								<rect x="-5.6" y="307.7" class="st19" width="47.4" height="14.2"/>
								<rect x="-5.6" y="322" class="st20" width="47.4" height="14.2"/>
								<rect x="-5.6" y="336.2" class="st21" width="47.4" height="14.2"/>
								<rect x="-5.6" y="350.4" class="st22" width="47.4" height="14.2"/>
								<rect x="-5.6" y="364.7" class="st23" width="47.4" height="14.2"/>
								<rect x="-5.6" y="378.9" class="st24" width="47.4" height="14.2"/>
								<rect x="-5.6" y="393.1" class="st25" width="47.4" height="14.2"/>
								<rect x="-5.6" y="407.3" class="st26" width="47.4" height="14.2"/>
								<rect x="-5.6" y="421.5" class="st5" width="47.4" height="14.2"/>
								<rect x="-5.6" y="435.7" class="st6" width="47.4" height="14.2"/>
								<rect x="-5.6" y="450" class="st7" width="47.4" height="14.2"/>
								<rect x="-5.6" y="464.2" class="st8" width="47.4" height="14.2"/>
								<rect x="-5.6" y="478.4" class="st9" width="47.4" height="14.2"/>
								<rect x="-5.6" y="492.6" class="st10" width="47.4" height="14.2"/>
								<rect x="-5.6" y="506.8" class="st11" width="47.4" height="14.2"/>
								<rect x="-5.6" y="521" class="st12" width="47.4" height="14.2"/>
								<rect x="-5.6" y="535.3" class="st13" width="47.4" height="14.2"/>
								<rect x="-5.6" y="549.6" class="st14" width="47.4" height="14.2"/>
								<rect x="-5.6" y="563.8" class="st15" width="47.4" height="14.2"/>
								<rect x="-5.6" y="578" class="st3" width="47.4" height="14.2"/>
								<rect x="-5.6" y="592.2" class="st4" width="47.4" height="60.2"/>
							</g>
						</g>
					</g>
				</g>
			</g>
		</g>
	</g>
</g>
<path class="st27" d="M30.6,642.7c-0.3,3.7-6.4,8.1-11.7,8.1l0,0c-5.2,0.4-12.3-3.6-12.3-8.1V58.6c1.1-5.3,7.4-8.5,11.5-8.5l0,0
	c4.9,0,11.2,3.1,12.4,8.7L30.6,642.7L30.6,642.7z"/>
<g class="st0">
	<g class="st1">
		<g>
			<g>
				<g>
					<g>
						<g>
							<g>
								<g>
									<defs>
										<path id="SVGID_00000157994721638275096320000001814341675139592601_" d="M18.6,585.9c-0.3,3.3-5.5,7.3-10.1,7.3l0,0
											C4,593.6-2.1,590-2.1,585.9v-526c1-4.8,6.3-7.6,10-7.6l0,0c4.2,0,9.7,2.9,10.8,7.8L18.6,585.9L18.6,585.9z"/>
									</defs>
									<clipPath id="SVGID_00000178890221361801865990000010084228348490206641_">
										<use xlink:href="#SVGID_00000157994721638275096320000001814341675139592601_"  style="overflow:visible;"/>
									</clipPath>
									
										<rect x="-7.2" y="502.4" style="clip-path:url(#SVGID_00000178890221361801865990000010084228348490206641_);fill:#FFFAFA;" width="30.9" height="96.8"/>
								</g>
							</g>
						</g>
					</g>
				</g>
			</g>
		</g>
		<g>
			<g>
				<g>
					<g>
						<g>
							<g>
								<g>
									<defs>
										<path id="SVGID_00000177466496764122745710000005602913265515983508_" d="M18.6,585.9c-0.3,3.3-5.5,7.3-10.1,7.3l0,0
											C4,593.6-2.1,590-2.1,585.9v-526c1-4.8,6.3-7.6,10-7.6l0,0c4.2,0,9.7,2.9,10.8,7.8L18.6,585.9L18.6,585.9z"/>
									</defs>
									<clipPath id="SVGID_00000071546903481927711380000007778246953242002342_">
										<use xlink:href="#SVGID_00000177466496764122745710000005602913265515983508_"  style="overflow:visible;"/>
									</clipPath>
									
										<rect x="-6.9" y="326.4" style="clip-path:url(#SVGID_00000071546903481927711380000007778246953242002342_);fill:#FBD5D6;" width="30.9" height="88"/>
								</g>
							</g>
						</g>
					</g>
				</g>
			</g>
		</g>
		<g>
			<g>
				<g>
					<g>
						<g>
							<g>
								<g>
									<defs>
										<path id="SVGID_00000066494359889412115890000003666025242958874532_" d="M18.6,585.9c-0.3,3.3-5.5,7.3-10.1,7.3l0,0
											C4,593.6-2.1,590-2.1,585.9v-526c1-4.8,6.3-7.6,10-7.6l0,0c4.2,0,9.7,2.9,10.8,7.8L18.6,585.9L18.6,585.9z"/>
									</defs>
									<clipPath id="SVGID_00000044861437136109568350000011778771868562574747_">
										<use xlink:href="#SVGID_00000066494359889412115890000003666025242958874532_"  style="overflow:visible;"/>
									</clipPath>
									
										<rect x="-6.9" y="238.4" style="clip-path:url(#SVGID_00000044861437136109568350000011778771868562574747_);fill:#F9C1C2;" width="30.9" height="88"/>
								</g>
							</g>
						</g>
					</g>
				</g>
			</g>
		</g>
		<g>
			<g>
				<g>
					<g>
						<g>
							<g>
								<g>
									<defs>
										<path id="SVGID_00000101068099492991337410000013001074238167348625_" d="M18.6,585.9c-0.3,3.3-5.5,7.3-10.1,7.3l0,0
											C4,593.6-2.1,590-2.1,585.9v-526c1-4.8,6.3-7.6,10-7.6l0,0c4.2,0,9.7,2.9,10.8,7.8L18.6,585.9L18.6,585.9z"/>
									</defs>
									<clipPath id="SVGID_00000151527781309501237370000004803087630178320823_">
										<use xlink:href="#SVGID_00000101068099492991337410000013001074238167348625_"  style="overflow:visible;"/>
									</clipPath>
									
										<rect x="-7.2" y="414.4" style="clip-path:url(#SVGID_00000151527781309501237370000004803087630178320823_);fill:#FDEBEB;" width="30.9" height="88"/>
								</g>
							</g>
						</g>
					</g>
				</g>
			</g>
		</g>
		<g>
			<g>
				<g>
					<g>
						<g>
							<g>
								<g>
									<defs>
										<path id="SVGID_00000073721224073533381440000002000275024184364990_" d="M18.6,585.9c-0.3,3.3-5.5,7.3-10.1,7.3l0,0
											C4,593.6-2.1,590-2.1,585.9v-526c1-4.8,6.3-7.6,10-7.6l0,0c4.2,0,9.7,2.9,10.8,7.8L18.6,585.9L18.6,585.9z"/>
									</defs>
									<clipPath id="SVGID_00000015317184643937371180000017938008977213891775_">
										<use xlink:href="#SVGID_00000073721224073533381440000002000275024184364990_"  style="overflow:visible;"/>
									</clipPath>
									
										<rect x="-6.9" y="150.4" style="clip-path:url(#SVGID_00000015317184643937371180000017938008977213891775_);fill:#F6ABAD;" width="30.9" height="88"/>
								</g>
							</g>
						</g>
					</g>
				</g>
			</g>
		</g>
		<g>
			<g>
				<g>
					<g>
						<g>
							<g>
								<g>
									<defs>
										<path id="SVGID_00000000180565125786496800000000985229661181962644_" d="M18.6,585.9c-0.3,3.3-5.5,7.3-10.1,7.3l0,0
											C4,593.6-2.1,590-2.1,585.9v-526c1-4.8,6.3-7.6,10-7.6l0,0c4.2,0,9.7,2.9,10.8,7.8L18.6,585.9L18.6,585.9z"/>
									</defs>
									<clipPath id="SVGID_00000064322345861314767860000007801737448644088731_">
										<use xlink:href="#SVGID_00000000180565125786496800000000985229661181962644_"  style="overflow:visible;"/>
									</clipPath>
									
										<rect x="-7.2" y="53.6" style="clip-path:url(#SVGID_00000064322345861314767860000007801737448644088731_);fill:#F49799;" width="30.9" height="96.8"/>
								</g>
							</g>
						</g>
					</g>
				</g>
			</g>
		</g>
	</g>
</g>
<g class="st0">
	<g class="st1">
		<g>
			<g>
				<g>
					<g>
						<g>
							<g>
								<defs>
									<path id="SVGID_00000130633261274281449600000008132767018734911362_" d="M18.6,585.9c0,3.6-5.8,7.9-10.4,7.9H7.6
										c-4.2,0-9.7-3.8-9.7-7.9v-526c1-4.8,6.3-7.6,10-7.6l0,0c4.2,0,9.7,2.9,10.7,7.8V585.9L18.6,585.9z"/>
								</defs>
								<clipPath id="SVGID_00000027592700166612107900000005988879836092334727_">
									<use xlink:href="#SVGID_00000130633261274281449600000008132767018734911362_"  style="overflow:visible;"/>
								</clipPath>
								
									<rect x="-12.9" y="52.3" style="clip-path:url(#SVGID_00000027592700166612107900000005988879836092334727_);fill:#C8E8F0;" width="42.3" height="26.6"/>
							</g>
						</g>
					</g>
				</g>
			</g>
		</g>
	</g>
	<g class="st1">
		<g>
			<g>
				<g>
					<g>
						<g>
							<g>
								<defs>
									<path id="SVGID_00000027567024953478791060000013828885956355323803_" d="M18.6,585.9c0,3.6-5.8,7.9-10.4,7.9H7.6
										c-4.2,0-9.7-3.8-9.7-7.9v-526c1-4.8,6.3-7.6,10-7.6l0,0c4.2,0,9.7,2.9,10.7,7.8V585.9L18.6,585.9z"/>
								</defs>
								<clipPath id="SVGID_00000157986408746765728440000003486412927139472063_">
									<use xlink:href="#SVGID_00000027567024953478791060000013828885956355323803_"  style="overflow:visible;"/>
								</clipPath>
								
									<rect x="-12.9" y="78.9" style="clip-path:url(#SVGID_00000157986408746765728440000003486412927139472063_);fill:#D0EBF7;" width="42.3" height="26.6"/>
							</g>
						</g>
					</g>
				</g>
			</g>
		</g>
	</g>
	<g class="st1">
		<g>
			<g>
				<g>
					<g>
						<g>
							<g>
								<defs>
									<path id="SVGID_00000039116498181586606230000001892035561727193245_" d="M18.6,585.9c0,3.6-5.8,7.9-10.4,7.9H7.6
										c-4.2,0-9.7-3.8-9.7-7.9v-526c1-4.8,6.3-7.6,10-7.6l0,0c4.2,0,9.7,2.9,10.7,7.8V585.9L18.6,585.9z"/>
								</defs>
								<clipPath id="SVGID_00000081627230150848663720000005902482405057981866_">
									<use xlink:href="#SVGID_00000039116498181586606230000001892035561727193245_"  style="overflow:visible;"/>
								</clipPath>
								
									<rect x="-12.9" y="105" style="clip-path:url(#SVGID_00000081627230150848663720000005902482405057981866_);fill:#4898DA;" width="42.3" height="26.6"/>
							</g>
						</g>
					</g>
				</g>
			</g>
		</g>
	</g>
	<g class="st1">
		<g>
			<g>
				<g>
					<g>
						<g>
							<g>
								<defs>
									<path id="SVGID_00000026844791586540092940000014905615075351320213_" d="M18.6,585.9c0,3.6-5.8,7.9-10.4,7.9H7.6
										c-4.2,0-9.7-3.8-9.7-7.9v-526c1-4.8,6.3-7.6,10-7.6l0,0c4.2,0,9.7,2.9,10.7,7.8V585.9L18.6,585.9z"/>
								</defs>
								<clipPath id="SVGID_00000183954024736000498420000002247862838491338634_">
									<use xlink:href="#SVGID_00000026844791586540092940000014905615075351320213_"  style="overflow:visible;"/>
								</clipPath>
								
									<rect x="-12.9" y="131.6" style="clip-path:url(#SVGID_00000183954024736000498420000002247862838491338634_);fill:#A3A5D7;" width="42.3" height="26.6"/>
							</g>
						</g>
					</g>
				</g>
			</g>
		</g>
	</g>
	<g class="st1">
		<g>
			<g>
				<g>
					<g>
						<g>
							<g>
								<defs>
									<path id="SVGID_00000015349037006453702830000005336788733353492871_" d="M18.6,585.9c0,3.6-5.8,7.9-10.4,7.9H7.6
										c-4.2,0-9.7-3.8-9.7-7.9v-526c1-4.8,6.3-7.6,10-7.6l0,0c4.2,0,9.7,2.9,10.7,7.8V585.9L18.6,585.9z"/>
								</defs>
								<clipPath id="SVGID_00000032618712090722953870000014607508707241604744_">
									<use xlink:href="#SVGID_00000015349037006453702830000005336788733353492871_"  style="overflow:visible;"/>
								</clipPath>
								
									<rect x="-12.9" y="158.2" style="clip-path:url(#SVGID_00000032618712090722953870000014607508707241604744_);fill:#B988C1;" width="42.3" height="26.6"/>
							</g>
						</g>
					</g>
				</g>
			</g>
		</g>
	</g>
	<g class="st1">
		<g>
			<g>
				<g>
					<g>
						<g>
							<g>
								<defs>
									<path id="SVGID_00000132791354522962056150000017220608491999935876_" d="M18.6,585.9c0,3.6-5.8,7.9-10.4,7.9H7.6
										c-4.2,0-9.7-3.8-9.7-7.9v-526c1-4.8,6.3-7.6,10-7.6l0,0c4.2,0,9.7,2.9,10.7,7.8V585.9L18.6,585.9z"/>
								</defs>
								<clipPath id="SVGID_00000019667486021550565550000000929440718339239061_">
									<use xlink:href="#SVGID_00000132791354522962056150000017220608491999935876_"  style="overflow:visible;"/>
								</clipPath>
								
									<rect x="-12.9" y="184.9" style="clip-path:url(#SVGID_00000019667486021550565550000000929440718339239061_);fill:#D7A2CD;" width="42.3" height="26.6"/>
							</g>
						</g>
					</g>
				</g>
			</g>
		</g>
	</g>
	<g class="st1">
		<g>
			<g>
				<g>
					<g>
						<g>
							<g>
								<defs>
									<path id="SVGID_00000144295516696317631130000009933821438540148144_" d="M18.6,585.9c0,3.6-5.8,7.9-10.4,7.9H7.6
										c-4.2,0-9.7-3.8-9.7-7.9v-526c1-4.8,6.3-7.6,10-7.6l0,0c4.2,0,9.7,2.9,10.7,7.8V585.9L18.6,585.9z"/>
								</defs>
								<clipPath id="SVGID_00000142157369771392531210000016885133632418680200_">
									<use xlink:href="#SVGID_00000144295516696317631130000009933821438540148144_"  style="overflow:visible;"/>
								</clipPath>
								
									<rect x="-12.9" y="211.1" style="clip-path:url(#SVGID_00000142157369771392531210000016885133632418680200_);fill:#E8BEDB;" width="42.3" height="26.6"/>
							</g>
						</g>
					</g>
				</g>
			</g>
		</g>
	</g>
	<g class="st1">
		<g>
			<g>
				<g>
					<g>
						<g>
							<g>
								<defs>
									<path id="SVGID_00000178909217674108838860000001191183204491269037_" d="M18.6,585.9c0,3.6-5.8,7.9-10.4,7.9H7.6
										c-4.2,0-9.7-3.8-9.7-7.9v-526c1-4.8,6.3-7.6,10-7.6l0,0c4.2,0,9.7,2.9,10.7,7.8V585.9L18.6,585.9z"/>
								</defs>
								<clipPath id="SVGID_00000096755245262904274850000017198624628291008444_">
									<use xlink:href="#SVGID_00000178909217674108838860000001191183204491269037_"  style="overflow:visible;"/>
								</clipPath>
								
									<rect x="-12.9" y="237.8" style="clip-path:url(#SVGID_00000096755245262904274850000017198624628291008444_);fill:#E67D9B;" width="42.3" height="26.6"/>
							</g>
						</g>
					</g>
				</g>
			</g>
		</g>
	</g>
	<g class="st1">
		<g>
			<g>
				<g>
					<g>
						<g>
							<g>
								<defs>
									<path id="SVGID_00000062162835930596766900000015861793246951464580_" d="M18.6,585.9c0,3.6-5.8,7.9-10.4,7.9H7.6
										c-4.2,0-9.7-3.8-9.7-7.9v-526c1-4.8,6.3-7.6,10-7.6l0,0c4.2,0,9.7,2.9,10.7,7.8V585.9L18.6,585.9z"/>
								</defs>
								<clipPath id="SVGID_00000039818327631823914060000014477309998990616757_">
									<use xlink:href="#SVGID_00000062162835930596766900000015861793246951464580_"  style="overflow:visible;"/>
								</clipPath>
								
									<rect x="-12.9" y="264.4" style="clip-path:url(#SVGID_00000039818327631823914060000014477309998990616757_);fill:#DB4C4D;" width="42.3" height="26.6"/>
							</g>
						</g>
					</g>
				</g>
			</g>
		</g>
	</g>
	<g class="st1">
		<g>
			<g>
				<g>
					<g>
						<g>
							<g>
								<defs>
									<path id="SVGID_00000090294608366740793870000004686734610433346456_" d="M18.6,585.9c0,3.6-5.8,7.9-10.4,7.9H7.6
										c-4.2,0-9.7-3.8-9.7-7.9v-526c1-4.8,6.3-7.6,10-7.6l0,0c4.2,0,9.7,2.9,10.7,7.8V585.9L18.6,585.9z"/>
								</defs>
								<clipPath id="SVGID_00000121240922989638461700000005102487733479872925_">
									<use xlink:href="#SVGID_00000090294608366740793870000004686734610433346456_"  style="overflow:visible;"/>
								</clipPath>
								
									<rect x="-12.9" y="291" style="clip-path:url(#SVGID_00000121240922989638461700000005102487733479872925_);fill:#EF5A5C;" width="42.3" height="26.6"/>
							</g>
						</g>
					</g>
				</g>
			</g>
		</g>
	</g>
	<g class="st1">
		<g>
			<g>
				<g>
					<g>
						<g>
							<g>
								<defs>
									<path id="SVGID_00000176731464998129336470000011749716619671139729_" d="M18.6,585.9c0,3.6-5.8,7.9-10.4,7.9H7.6
										c-4.2,0-9.7-3.8-9.7-7.9v-526c1-4.8,6.3-7.6,10-7.6l0,0c4.2,0,9.7,2.9,10.7,7.8V585.9L18.6,585.9z"/>
								</defs>
								<clipPath id="SVGID_00000026862357340493929050000012009848788473805490_">
									<use xlink:href="#SVGID_00000176731464998129336470000011749716619671139729_"  style="overflow:visible;"/>
								</clipPath>
								
									<rect x="-12.9" y="317.3" style="clip-path:url(#SVGID_00000026862357340493929050000012009848788473805490_);fill:#F7A25C;" width="42.3" height="26.6"/>
							</g>
						</g>
					</g>
				</g>
			</g>
		</g>
	</g>
	<g class="st1">
		<g>
			<g>
				<g>
					<g>
						<g>
							<g>
								<defs>
									<path id="SVGID_00000140729829396943292080000000275662396718780035_" d="M18.6,585.9c0,3.6-5.8,7.9-10.4,7.9H7.6
										c-4.2,0-9.7-3.8-9.7-7.9v-526c1-4.8,6.3-7.6,10-7.6l0,0c4.2,0,9.7,2.9,10.7,7.8V585.9L18.6,585.9z"/>
								</defs>
								<clipPath id="SVGID_00000048479881638520384770000011599387621003077257_">
									<use xlink:href="#SVGID_00000140729829396943292080000000275662396718780035_"  style="overflow:visible;"/>
								</clipPath>
								
									<rect x="-12.9" y="343.9" style="clip-path:url(#SVGID_00000048479881638520384770000011599387621003077257_);fill:#FDD58F;" width="42.3" height="26.6"/>
							</g>
						</g>
					</g>
				</g>
			</g>
		</g>
	</g>
	<g class="st1">
		<g>
			<g>
				<g>
					<g>
						<g>
							<g>
								<defs>
									<path id="SVGID_00000055695674801648531950000005891066623525539464_" d="M18.6,585.9c0,3.6-5.8,7.9-10.4,7.9H7.6
										c-4.2,0-9.7-3.8-9.7-7.9v-526c1-4.8,6.3-7.6,10-7.6l0,0c4.2,0,9.7,2.9,10.7,7.8V585.9L18.6,585.9z"/>
								</defs>
								<clipPath id="SVGID_00000003081666691661378550000008639157881722495626_">
									<use xlink:href="#SVGID_00000055695674801648531950000005891066623525539464_"  style="overflow:visible;"/>
								</clipPath>
								
									<rect x="-12.9" y="370.5" style="clip-path:url(#SVGID_00000003081666691661378550000008639157881722495626_);fill:#FFE173;" width="42.3" height="26.6"/>
							</g>
						</g>
					</g>
				</g>
			</g>
		</g>
	</g>
	<g class="st1">
		<g>
			<g>
				<g>
					<g>
						<g>
							<g>
								<defs>
									<path id="SVGID_00000047032753400320024280000014899978720575622033_" d="M18.6,585.9c0,3.6-5.8,7.9-10.4,7.9H7.6
										c-4.2,0-9.7-3.8-9.7-7.9v-526c1-4.8,6.3-7.6,10-7.6l0,0c4.2,0,9.7,2.9,10.7,7.8V585.9L18.6,585.9z"/>
								</defs>
								<clipPath id="SVGID_00000021835492220163838620000016558810462113098171_">
									<use xlink:href="#SVGID_00000047032753400320024280000014899978720575622033_"  style="overflow:visible;"/>
								</clipPath>
								
									<rect x="-12.9" y="397.1" style="clip-path:url(#SVGID_00000021835492220163838620000016558810462113098171_);fill:#FEFE82;" width="42.3" height="26.6"/>
							</g>
						</g>
					</g>
				</g>
			</g>
		</g>
	</g>
	<g class="st1">
		<g>
			<g>
				<g>
					<g>
						<g>
							<g>
								<defs>
									<path id="SVGID_00000151544039512316272720000001996913544285049510_" d="M18.6,585.9c0,3.6-5.8,7.9-10.4,7.9H7.6
										c-4.2,0-9.7-3.8-9.7-7.9v-526c1-4.8,6.3-7.6,10-7.6l0,0c4.2,0,9.7,2.9,10.7,7.8V585.9L18.6,585.9z"/>
								</defs>
								<clipPath id="SVGID_00000003076120807396141750000004923188189403006341_">
									<use xlink:href="#SVGID_00000151544039512316272720000001996913544285049510_"  style="overflow:visible;"/>
								</clipPath>
								
									<rect x="-12.9" y="423.4" style="clip-path:url(#SVGID_00000003076120807396141750000004923188189403006341_);fill:#FFFFC7;" width="42.3" height="26.6"/>
							</g>
						</g>
					</g>
				</g>
			</g>
		</g>
	</g>
	<g class="st1">
		<g>
			<g>
				<g>
					<g>
						<g>
							<g>
								<defs>
									<path id="SVGID_00000112605004296191163330000013854040541388616578_" d="M18.6,585.9c0,3.6-5.8,7.9-10.4,7.9H7.6
										c-4.2,0-9.7-3.8-9.7-7.9v-526c1-4.8,6.3-7.6,10-7.6l0,0c4.2,0,9.7,2.9,10.7,7.8V585.9L18.6,585.9z"/>
								</defs>
								<clipPath id="SVGID_00000021838862831932403680000017924216649357398191_">
									<use xlink:href="#SVGID_00000112605004296191163330000013854040541388616578_"  style="overflow:visible;"/>
								</clipPath>
								
									<rect x="-12.9" y="450" style="clip-path:url(#SVGID_00000021838862831932403680000017924216649357398191_);fill:#F3F3A1;" width="42.3" height="26.6"/>
							</g>
						</g>
					</g>
				</g>
			</g>
		</g>
	</g>
	<g class="st1">
		<g>
			<g>
				<g>
					<g>
						<g>
							<g>
								<defs>
									<path id="SVGID_00000143602448027563918850000000882736032506709138_" d="M18.6,585.9c0,3.6-5.8,7.9-10.4,7.9H7.6
										c-4.2,0-9.7-3.8-9.7-7.9v-526c1-4.8,6.3-7.6,10-7.6l0,0c4.2,0,9.7,2.9,10.7,7.8V585.9L18.6,585.9z"/>
								</defs>
								<clipPath id="SVGID_00000101088581521000353530000009090344697651711637_">
									<use xlink:href="#SVGID_00000143602448027563918850000000882736032506709138_"  style="overflow:visible;"/>
								</clipPath>
								
									<rect x="-12.9" y="476.7" style="clip-path:url(#SVGID_00000101088581521000353530000009090344697651711637_);fill:#D3ECA4;" width="42.3" height="26.6"/>
							</g>
						</g>
					</g>
				</g>
			</g>
		</g>
	</g>
	<g class="st1">
		<g>
			<g>
				<g>
					<g>
						<g>
							<g>
								<defs>
									<path id="SVGID_00000098183121919203579330000013511788461854754466_" d="M18.6,585.9c0,3.6-5.8,7.9-10.4,7.9H7.6
										c-4.2,0-9.7-3.8-9.7-7.9v-526c1-4.8,6.3-7.6,10-7.6l0,0c4.2,0,9.7,2.9,10.7,7.8V585.9L18.6,585.9z"/>
								</defs>
								<clipPath id="SVGID_00000031919692719453003180000017519464195585961405_">
									<use xlink:href="#SVGID_00000098183121919203579330000013511788461854754466_"  style="overflow:visible;"/>
								</clipPath>
								
									<rect x="-12.9" y="503.3" style="clip-path:url(#SVGID_00000031919692719453003180000017519464195585961405_);fill:#C3E6D8;" width="42.3" height="26.6"/>
							</g>
						</g>
					</g>
				</g>
			</g>
		</g>
	</g>
	<g class="st1">
		<g>
			<g>
				<g>
					<g>
						<g>
							<g>
								<defs>
									<path id="SVGID_00000002382766300919386540000002760936584856596875_" d="M18.6,585.9c0,3.6-5.8,7.9-10.4,7.9H7.6
										c-4.2,0-9.7-3.8-9.7-7.9v-526c1-4.8,6.3-7.6,10-7.6l0,0c4.2,0,9.7,2.9,10.7,7.8V585.9L18.6,585.9z"/>
								</defs>
								<clipPath id="SVGID_00000080204359468128604660000017493119199456660152_">
									<use xlink:href="#SVGID_00000002382766300919386540000002760936584856596875_"  style="overflow:visible;"/>
								</clipPath>
								
									<rect x="-12.9" y="529.9" style="clip-path:url(#SVGID_00000080204359468128604660000017493119199456660152_);fill:#C8E8F0;" width="42.3" height="26.6"/>
							</g>
						</g>
					</g>
				</g>
			</g>
		</g>
	</g>
	<g class="st1">
		<g>
			<g>
				<g>
					<g>
						<g>
							<g>
								<defs>
									<path id="SVGID_00000049193295526122960290000017882312778696209309_" d="M18.6,585.9c0,3.6-5.8,7.9-10.4,7.9H7.6
										c-4.2,0-9.7-3.8-9.7-7.9v-526c1-4.8,6.3-7.6,10-7.6l0,0c4.2,0,9.7,2.9,10.7,7.8V585.9L18.6,585.9z"/>
								</defs>
								<clipPath id="SVGID_00000097467735698297423680000001307641298133562807_">
									<use xlink:href="#SVGID_00000049193295526122960290000017882312778696209309_"  style="overflow:visible;"/>
								</clipPath>
								
									<rect x="-12.9" y="556.5" style="clip-path:url(#SVGID_00000097467735698297423680000001307641298133562807_);fill:#D0EBF7;" width="42.3" height="40.2"/>
							</g>
						</g>
					</g>
				</g>
			</g>
		</g>
	</g>
</g>
<g class="st0">
	<g class="st1">
		<g>
			<g>
				<g>
					<g>
						<g>
							<g>
								<g>
									<defs>
										<path id="SVGID_00000008142658435366440850000005119233583963484035_" d="M18.4,586.1c-0.3,3.3-5.5,7.3-10.1,7.3l0,0
											c-4.5,0.4-10.6-3.2-10.6-7.3v-526c1-4.8,6.3-7.6,10-7.6l0,0c4.2,0,9.7,2.9,10.8,7.8L18.4,586.1L18.4,586.1z"/>
									</defs>
									<clipPath id="SVGID_00000047770914719296997590000010943393182043365257_">
										<use xlink:href="#SVGID_00000008142658435366440850000005119233583963484035_"  style="overflow:visible;"/>
									</clipPath>
									
										<rect x="-7.4" y="501.2" style="clip-path:url(#SVGID_00000047770914719296997590000010943393182043365257_);fill:#EC2426;" width="30.9" height="96.8"/>
								</g>
							</g>
						</g>
					</g>
				</g>
			</g>
		</g>
		<g>
			<g>
				<g>
					<g>
						<g>
							<g>
								<g>
									<defs>
										<path id="SVGID_00000083803937442227908360000002684476982209258905_" d="M18.4,586.1c-0.3,3.3-5.5,7.3-10.1,7.3l0,0
											c-4.5,0.4-10.6-3.2-10.6-7.3v-526c1-4.8,6.3-7.6,10-7.6l0,0c4.2,0,9.7,2.9,10.8,7.8L18.4,586.1L18.4,586.1z"/>
									</defs>
									<clipPath id="SVGID_00000017488130879317416370000004366516120443873930_">
										<use xlink:href="#SVGID_00000083803937442227908360000002684476982209258905_"  style="overflow:visible;"/>
									</clipPath>
									
										<rect x="-7.1" y="325.2" style="clip-path:url(#SVGID_00000017488130879317416370000004366516120443873930_);fill:#FCFC1E;" width="30.9" height="88"/>
								</g>
							</g>
						</g>
					</g>
				</g>
			</g>
		</g>
		<g>
			<g>
				<g>
					<g>
						<g>
							<g>
								<g>
									<defs>
										<path id="SVGID_00000019644248555916164380000008707209997986072488_" d="M18.4,586.1c-0.3,3.3-5.5,7.3-10.1,7.3l0,0
											c-4.5,0.4-10.6-3.2-10.6-7.3v-526c1-4.8,6.3-7.6,10-7.6l0,0c4.2,0,9.7,2.9,10.8,7.8L18.4,586.1L18.4,586.1z"/>
									</defs>
									<clipPath id="SVGID_00000139278390357659504870000005722115424222612635_">
										<use xlink:href="#SVGID_00000019644248555916164380000008707209997986072488_"  style="overflow:visible;"/>
									</clipPath>
									
										<rect x="-7.1" y="237.2" style="clip-path:url(#SVGID_00000139278390357659504870000005722115424222612635_);fill:#0B7F3F;" width="30.9" height="88"/>
								</g>
							</g>
						</g>
					</g>
				</g>
			</g>
		</g>
		<g>
			<g>
				<g>
					<g>
						<g>
							<g>
								<g>
									<defs>
										<path id="SVGID_00000070114492276782328010000000862457716216761236_" d="M18.4,586.1c-0.3,3.3-5.5,7.3-10.1,7.3l0,0
											c-4.5,0.4-10.6-3.2-10.6-7.3v-526c1-4.8,6.3-7.6,10-7.6l0,0c4.2,0,9.7,2.9,10.8,7.8L18.4,586.1L18.4,586.1z"/>
									</defs>
									<clipPath id="SVGID_00000086677197216373315510000009058335015640933260_">
										<use xlink:href="#SVGID_00000070114492276782328010000000862457716216761236_"  style="overflow:visible;"/>
									</clipPath>
									
										<rect x="-7.4" y="413.2" style="clip-path:url(#SVGID_00000086677197216373315510000009058335015640933260_);fill:#F7A426;" width="30.9" height="88"/>
								</g>
							</g>
						</g>
					</g>
				</g>
			</g>
		</g>
		<g>
			<g>
				<g>
					<g>
						<g>
							<g>
								<g>
									<defs>
										<path id="SVGID_00000028320558583154192210000003903227212149796011_" d="M18.4,586.1c-0.3,3.3-5.5,7.3-10.1,7.3l0,0
											c-4.5,0.4-10.6-3.2-10.6-7.3v-526c1-4.8,6.3-7.6,10-7.6l0,0c4.2,0,9.7,2.9,10.8,7.8L18.4,586.1L18.4,586.1z"/>
									</defs>
									<clipPath id="SVGID_00000030480696795673888790000001950431021715360182_">
										<use xlink:href="#SVGID_00000028320558583154192210000003903227212149796011_"  style="overflow:visible;"/>
									</clipPath>
									
										<rect x="-7.1" y="149.2" style="clip-path:url(#SVGID_00000030480696795673888790000001950431021715360182_);fill:#6FC9DC;" width="30.9" height="88"/>
								</g>
							</g>
						</g>
					</g>
				</g>
			</g>
		</g>
		<g>
			<g>
				<g>
					<g>
						<g>
							<g>
								<g>
									<defs>
										<path id="SVGID_00000011740839361871557700000014270487549513942959_" d="M18.4,586.1c-0.3,3.3-5.5,7.3-10.1,7.3l0,0
											c-4.5,0.4-10.6-3.2-10.6-7.3v-526c1-4.8,6.3-7.6,10-7.6l0,0c4.2,0,9.7,2.9,10.8,7.8L18.4,586.1L18.4,586.1z"/>
									</defs>
									<clipPath id="SVGID_00000059299594008247069480000013167140873069300881_">
										<use xlink:href="#SVGID_00000011740839361871557700000014270487549513942959_"  style="overflow:visible;"/>
									</clipPath>
									
										<rect x="-7.1" y="52.4" style="clip-path:url(#SVGID_00000059299594008247069480000013167140873069300881_);fill:#3F57B0;" width="30.9" height="96.8"/>
								</g>
							</g>
						</g>
					</g>
				</g>
			</g>
		</g>
	</g>
</g>
<circle class="st60" cx="8" cy="33.8" r="14.6"/>
<path class="st61" d="M18.4,586.1c-0.3,3.3-5.5,7.3-10.1,7.3l0,0c-4.5,0.4-10.6-3.2-10.6-7.3v-526c1-4.8,6.3-7.6,10-7.6l0,0
	c4.2,0,9.7,2.9,10.8,7.8L18.4,586.1L18.4,586.1z"/>
<g class="st0">
	<path class="st62" d="M3.4,584.6c-0.4-0.5-0.6-1-0.6-1.8c0-0.7,0.2-1.3,0.6-1.8s0.9-0.7,1.5-0.7s1.1,0.2,1.5,0.7
		c0.4,0.4,0.6,1,0.6,1.8s-0.2,1.3-0.6,1.8c-0.4,0.4-0.9,0.7-1.5,0.7S3.8,585.1,3.4,584.6z M5.7,584c0.2-0.3,0.3-0.7,0.3-1.1
		c0-0.5-0.1-0.9-0.3-1.1c-0.2-0.3-0.5-0.4-0.8-0.4s-0.6,0.1-0.8,0.4c-0.2,0.3-0.3,0.7-0.3,1.1c0,0.5,0.1,0.9,0.3,1.1
		c0.2,0.3,0.5,0.4,0.8,0.4C5.3,584.4,5.5,584.3,5.7,584z M10.2,580.5h1.2l-6.1,8.9H4.2L10.2,580.5z M9.2,588.8
		c-0.4-0.5-0.6-1-0.6-1.8c0-0.7,0.2-1.3,0.6-1.8c0.4-0.4,0.9-0.7,1.5-0.7s1.1,0.2,1.5,0.7c0.4,0.4,0.6,1,0.6,1.8
		c0,0.7-0.2,1.3-0.6,1.8c-0.4,0.4-0.9,0.7-1.5,0.7S9.6,589.3,9.2,588.8z M11.5,588.2c0.2-0.3,0.3-0.7,0.3-1.1c0-0.5-0.1-0.9-0.3-1.1
		c-0.2-0.3-0.5-0.4-0.8-0.4s-0.6,0.1-0.8,0.4c-0.2,0.3-0.3,0.7-0.3,1.1c0,0.5,0.1,0.9,0.3,1.1c0.2,0.3,0.5,0.4,0.8,0.4
		C11.1,588.6,11.3,588.5,11.5,588.2z"/>
</g>
<g class="st0">
	<path class="st62" d="M6.9,540.4c0.4,0.3,0.6,0.7,0.6,1.2c0,0.3-0.1,0.6-0.2,0.9c-0.2,0.3-0.4,0.5-0.7,0.6
		c-0.3,0.2-0.7,0.2-1.2,0.2c-0.4,0-0.8-0.1-1.1-0.2c-0.4-0.1-0.7-0.3-0.9-0.5l0.4-0.8c0.2,0.2,0.4,0.3,0.7,0.4
		c0.3,0.1,0.6,0.1,0.9,0.1c0.4,0,0.6-0.1,0.8-0.2c0.2-0.1,0.3-0.4,0.3-0.6c0-0.3-0.1-0.5-0.3-0.6s-0.6-0.2-1.1-0.2H3.6l0.3-3h3.2
		v0.9H4.7l-0.1,1.3h0.5C5.9,539.9,6.5,540.1,6.9,540.4z"/>
	<path class="st62" d="M9.1,543c-0.3-0.2-0.6-0.5-0.8-1c-0.2-0.4-0.3-0.9-0.3-1.5s0.1-1.1,0.3-1.5s0.5-0.8,0.8-1s0.7-0.3,1.2-0.3
		c0.4,0,0.8,0.1,1.2,0.3c0.3,0.2,0.6,0.5,0.8,1c0.2,0.4,0.3,0.9,0.3,1.5s-0.1,1.1-0.3,1.5s-0.5,0.7-0.8,1c-0.3,0.2-0.7,0.3-1.2,0.3
		S9.5,543.2,9.1,543z M11.2,542c0.2-0.3,0.3-0.8,0.3-1.4c0-0.6-0.1-1.1-0.3-1.4c-0.2-0.3-0.5-0.5-0.9-0.5s-0.7,0.2-0.9,0.5
		s-0.3,0.8-0.3,1.4c0,0.6,0.1,1.1,0.3,1.4s0.5,0.5,0.9,0.5S11,542.3,11.2,542z"/>
</g>
<g class="st0">
	<path class="st62" d="M6.8,459c0.3,0.1,0.5,0.3,0.7,0.6c0.2,0.3,0.2,0.6,0.2,0.9c0,0.4-0.1,0.7-0.3,0.9c-0.2,0.3-0.4,0.5-0.7,0.6
		s-0.6,0.2-1,0.2c-0.8,0-1.3-0.2-1.7-0.7s-0.6-1.1-0.6-2c0-0.6,0.1-1.1,0.3-1.6c0.2-0.4,0.5-0.8,0.9-1s0.9-0.3,1.4-0.3
		c0.3,0,0.5,0,0.8,0.1c0.2,0.1,0.5,0.1,0.6,0.3L7,457.8c-0.3-0.2-0.6-0.3-1-0.3c-0.5,0-0.9,0.2-1.2,0.5s-0.4,0.8-0.4,1.4l0,0
		c0.2-0.2,0.4-0.3,0.6-0.4c0.3-0.1,0.5-0.1,0.8-0.1C6.2,458.8,6.5,458.9,6.8,459z M6.4,461.2c0.2-0.2,0.3-0.4,0.3-0.7
		c0-0.3-0.1-0.5-0.3-0.7s-0.5-0.3-0.8-0.3s-0.6,0.1-0.8,0.3c-0.2,0.2-0.3,0.4-0.3,0.7c0,0.3,0.1,0.5,0.3,0.7s0.5,0.3,0.8,0.3
		C6,461.5,6.2,461.4,6.4,461.2z"/>
	<path class="st62" d="M9.4,462c-0.3-0.2-0.6-0.5-0.8-1c-0.2-0.4-0.3-0.9-0.3-1.5s0.1-1.1,0.3-1.5s0.5-0.8,0.8-1s0.7-0.3,1.2-0.3
		c0.4,0,0.8,0.1,1.2,0.3c0.3,0.2,0.6,0.5,0.8,1c0.2,0.4,0.3,0.9,0.3,1.5s-0.1,1.1-0.3,1.5s-0.5,0.7-0.8,1c-0.3,0.2-0.7,0.3-1.2,0.3
		S9.7,462.2,9.4,462z M11.5,460.9c0.2-0.3,0.3-0.8,0.3-1.4s-0.1-1.1-0.3-1.4s-0.5-0.5-0.9-0.5s-0.7,0.2-0.9,0.5s-0.3,0.8-0.3,1.4
		s0.1,1.1,0.3,1.4s0.5,0.5,0.9,0.5C10.9,461.4,11.2,461.2,11.5,460.9z"/>
</g>
<g class="st0">
	<path class="st62" d="M7.8,368v0.7l-2.1,4.8H4.5l2.1-4.6H4.4v0.9H3.5V368H7.8L7.8,368z"/>
	<path class="st62" d="M9.3,373.2c-0.3-0.2-0.6-0.5-0.8-1c-0.2-0.4-0.3-0.9-0.3-1.5s0.1-1.1,0.3-1.5s0.5-0.7,0.8-1
		c0.3-0.2,0.7-0.3,1.2-0.3c0.4,0,0.8,0.1,1.2,0.3c0.3,0.2,0.6,0.5,0.8,1c0.2,0.4,0.3,0.9,0.3,1.5s-0.1,1.1-0.3,1.5s-0.5,0.7-0.8,1
		c-0.3,0.2-0.7,0.3-1.2,0.3C10.1,373.6,9.7,373.4,9.3,373.2z M11.4,372.2c0.2-0.3,0.3-0.8,0.3-1.4s-0.1-1.1-0.3-1.4
		s-0.5-0.5-0.9-0.5s-0.7,0.2-0.9,0.5s-0.3,0.8-0.3,1.4s0.1,1.1,0.3,1.4s0.5,0.5,0.9,0.5S11.2,372.5,11.4,372.2z"/>
</g>
<g class="st0">
	<path class="st62" d="M7.6,274.4c0.2,0.2,0.2,0.5,0.2,0.8s-0.1,0.6-0.3,0.9s-0.4,0.4-0.8,0.6s-0.7,0.2-1.2,0.2
		c-0.4,0-0.8-0.1-1.2-0.2c-0.3-0.1-0.6-0.3-0.8-0.6c-0.2-0.3-0.3-0.5-0.3-0.9c0-0.3,0.1-0.6,0.2-0.8c0.2-0.2,0.4-0.4,0.6-0.5
		c-0.2-0.1-0.4-0.3-0.5-0.5s-0.2-0.4-0.2-0.7c0-0.3,0.1-0.6,0.3-0.8c0.2-0.2,0.4-0.4,0.7-0.5s0.7-0.2,1.1-0.2s0.8,0.1,1.1,0.2
		s0.5,0.3,0.7,0.5s0.3,0.5,0.3,0.8s-0.1,0.5-0.2,0.7s-0.3,0.4-0.5,0.5C7.2,274,7.4,274.1,7.6,274.4z M6.5,275.8
		c0.2-0.2,0.3-0.4,0.3-0.6c0-0.3-0.1-0.5-0.3-0.6c-0.2-0.2-0.5-0.2-0.9-0.2s-0.7,0.1-0.9,0.2c-0.2,0.2-0.3,0.4-0.3,0.6
		c0,0.3,0.1,0.5,0.3,0.6c0.2,0.2,0.5,0.2,0.9,0.2C5.9,276,6.2,275.9,6.5,275.8z M4.8,272.2c-0.2,0.1-0.3,0.3-0.3,0.6
		c0,0.2,0.1,0.4,0.3,0.6c0.2,0.1,0.4,0.2,0.8,0.2c0.3,0,0.6-0.1,0.8-0.2s0.3-0.3,0.3-0.6c0-0.2-0.1-0.4-0.3-0.6
		C6.2,272.1,6,272,5.6,272S5,272,4.8,272.2z"/>
	<path class="st62" d="M9.6,276.5c-0.3-0.2-0.6-0.5-0.8-1c-0.2-0.4-0.3-0.9-0.3-1.5s0.1-1.1,0.3-1.5s0.5-0.7,0.8-1
		c0.3-0.2,0.7-0.3,1.2-0.3c0.4,0,0.8,0.1,1.2,0.3c0.3,0.2,0.6,0.5,0.8,1s0.3,0.9,0.3,1.5s-0.1,1.1-0.3,1.5s-0.5,0.7-0.8,1
		s-0.7,0.3-1.2,0.3S9.9,276.7,9.6,276.5z M11.7,275.4c0.2-0.3,0.3-0.8,0.3-1.4s-0.1-1.1-0.3-1.4s-0.5-0.5-0.9-0.5s-0.7,0.2-0.9,0.5
		s-0.3,0.8-0.3,1.4s0.1,1.1,0.3,1.4s0.5,0.5,0.9,0.5C11.1,275.9,11.5,275.8,11.7,275.4z"/>
</g>
<g class="st0">
	<path class="st62" d="M7.1,191.5c0.4,0.5,0.6,1.1,0.6,2c0,0.6-0.1,1.1-0.3,1.6c-0.2,0.4-0.5,0.8-0.9,1s-0.9,0.3-1.4,0.3
		c-0.3,0-0.5,0-0.8-0.1c-0.2-0.1-0.5-0.1-0.6-0.3l0.4-0.8c0.3,0.2,0.6,0.3,1,0.3c0.5,0,0.9-0.2,1.2-0.5s0.4-0.8,0.4-1.4l0,0
		c-0.2,0.2-0.4,0.3-0.6,0.4c-0.3,0.1-0.5,0.1-0.8,0.1c-0.4,0-0.7-0.1-1-0.2c-0.3-0.1-0.5-0.3-0.7-0.6s-0.2-0.6-0.2-0.9
		c0-0.4,0.1-0.7,0.3-0.9c0.2-0.3,0.4-0.5,0.7-0.6s0.6-0.2,1-0.2C6.1,190.7,6.7,191,7.1,191.5z M6.2,193.1c0.2-0.2,0.3-0.4,0.3-0.7
		s-0.1-0.5-0.3-0.7s-0.5-0.3-0.8-0.3s-0.6,0.1-0.8,0.3s-0.3,0.4-0.3,0.7s0.1,0.5,0.3,0.7s0.5,0.3,0.8,0.3
		C5.7,193.4,6,193.3,6.2,193.1z"/>
	<path class="st62" d="M9.5,196c-0.3-0.2-0.6-0.5-0.8-1c-0.2-0.4-0.3-0.9-0.3-1.5s0.1-1.1,0.3-1.5s0.5-0.7,0.8-1
		c0.3-0.2,0.7-0.3,1.2-0.3c0.4,0,0.8,0.1,1.2,0.3c0.3,0.2,0.6,0.5,0.8,1c0.2,0.4,0.3,0.9,0.3,1.5s-0.1,1.1-0.3,1.5s-0.5,0.7-0.8,1
		c-0.3,0.2-0.7,0.3-1.2,0.3C10.2,196.4,9.8,196.3,9.5,196z M11.6,195c0.2-0.3,0.3-0.8,0.3-1.4c0-0.6-0.1-1.1-0.3-1.4
		c-0.2-0.3-0.5-0.5-0.9-0.5s-0.7,0.2-0.9,0.5s-0.3,0.8-0.3,1.4c0,0.6,0.1,1.1,0.3,1.4c0.2,0.3,0.5,0.5,0.9,0.5
		C11,195.5,11.4,195.3,11.6,195z"/>
</g>
<g class="st0">
	<path class="st62" d="M3.7,93.8v5.5h-1v-4.6H1.5v-0.9H3.7z"/>
	<path class="st62" d="M5.9,99c-0.3-0.2-0.6-0.5-0.8-1c-0.2-0.4-0.3-0.9-0.3-1.5s0.1-1.1,0.3-1.5s0.5-0.7,0.8-1
		c0.3-0.2,0.7-0.3,1.2-0.3c0.4,0,0.8,0.1,1.2,0.3c0.3,0.2,0.6,0.5,0.8,1c0.2,0.4,0.3,0.9,0.3,1.5S9.3,97.6,9.1,98s-0.5,0.7-0.8,1
		c-0.3,0.2-0.7,0.3-1.2,0.3C6.6,99.4,6.2,99.3,5.9,99z M8,98c0.2-0.3,0.3-0.8,0.3-1.4S8.2,95.5,8,95.2s-0.5-0.5-0.9-0.5
		s-0.7,0.2-0.9,0.5S5.9,96,5.9,96.6S6,97.7,6.2,98s0.5,0.5,0.9,0.5S7.8,98.3,8,98z"/>
	<path class="st62" d="M11.2,99c-0.3-0.2-0.6-0.5-0.8-1c-0.2-0.4-0.3-0.9-0.3-1.5s0.1-1.1,0.3-1.5s0.5-0.7,0.8-1
		c0.3-0.2,0.7-0.3,1.2-0.3c0.4,0,0.8,0.1,1.2,0.3s0.6,0.5,0.8,1s0.2,1,0.2,1.5s-0.1,1.1-0.3,1.5s-0.5,0.7-0.8,1
		c-0.3,0.2-0.7,0.3-1.2,0.3C11.9,99.4,11.5,99.3,11.2,99z M13.3,98c0.2-0.3,0.3-0.8,0.3-1.4s-0.1-1.1-0.3-1.4s-0.5-0.5-0.9-0.5
		s-0.7,0.2-0.9,0.5s-0.3,0.8-0.3,1.4s0.1,1.1,0.3,1.4s0.5,0.5,0.9,0.5C12.7,98.5,13,98.3,13.3,98z"/>
</g>
<g class="st0">
	<path class="st63" d="M1.7,40.5h12.4c2.6,0,4.8-1.8,5.3-4.2c0.3-1.6-0.1-3.2-1.1-4.4c-0.9-1-2.1-1.7-3.4-1.9v-1.2
		c0-4.2-3.8-7.5-7.9-7c-3.5,0.4-6.2,3.5-6.2,7.3V30c-1.1,0.1-2.2,0.7-3,1.5c-1.2,1.2-1.7,2.9-1.5,4.6C-3.2,38.5-0.8,40.5,1.7,40.5z
		 M-1.2,32.5c0.7-0.7,1.7-1.1,2.7-1.1c0.4,0,0.7-0.3,0.7-0.7v-1.6c0-3.1,2.5-5.9,5.7-5.9c3.1,0,5.7,2.6,5.7,5.7v1.8
		c0,0.4,0.3,0.7,0.7,0.7c1.2,0,2.3,0.5,3,1.4s1,2.1,0.8,3.3c-0.4,1.8-2,3.1-4,3.1H1.7c-1.8,0-3.7-1.5-4-3.2
		C-2.5,34.6-2.1,33.4-1.2,32.5z"/>
</g>
<rect x="3.2" y="40.5" class="st64" width="9.5" height="5.3"/>
<g class="st65">
	<path class="st63" d="M7.1,40.7h0.7V44h2v0.6H7.1V40.7z"/>
</g>
<circle class="st66" cx="24.1" cy="26.6" r="19.8"/>
<g id="Layer_1_00000094618233620819150710000009544971755126034336_">
	<g>
		<path class="st67" d="M24.1,10.4c-3.6,0-6.6,2.8-6.6,6.3V26c-2.5,2.1-3.8,5.2-3.4,8.4c0.6,4.4,4.3,7.8,8.8,8.3
			c5.8,0.5,11.1-3.8,11.1-9.4c0-2.8-1.2-5.3-3.4-7.1V17C30.7,13.3,27.7,10.4,24.1,10.4z M32.2,33.1c0,4.7-4.4,8.3-9.2,7.9
			c-3.6-0.4-6.7-3.2-7.1-6.9c-0.3-2.8,0.8-5.4,3.1-7.1c0.1-0.1,0.3-0.4,0.3-0.6v-9.6c0-2.6,2.2-4.7,4.8-4.7s4.8,2.1,4.8,4.7v9.6
			c0,0.3,0.1,0.4,0.3,0.6C31.2,28.4,32.2,30.6,32.2,33.1z"/>
	</g>
	<g>
		<path class="st67" d="M27.2,28.9V19c0-1.7-1.4-3-3.1-3S21,17.4,21,19v10c-1.8,1.3-2.6,3.4-2.1,5.4c0.9,3.5,5.6,5,8.7,2.8
			c1.3-1,2.1-2.6,2.1-4C29.5,31.4,28.6,29.8,27.2,28.9z M26.4,35.8c-2.1,1.6-5.3,0.5-5.8-1.8c-0.4-1.6,0.3-3.1,1.8-3.9
			c0.3-0.1,0.4-0.4,0.4-0.6V19.1c0-0.6,0.6-1.4,1.4-1.4s1.4,0.5,1.4,1.4v10.4c0,0.3,0.1,0.5,0.4,0.6c1.2,0.6,1.9,1.8,1.9,3.1
			C27.7,34.1,27.3,35,26.4,35.8z"/>
	</g>
</g>
<g>
	<g>
		<g>
			<g>
				<g>
					<g>
						<g>
							<defs>
								<path id="SVGID_00000020376793801091156590000015971434742303659700_" d="M42.5,672.5c-0.4,3.8-10.5,2.2-18.3,2.2l0,0
									c-7.6,0.4-18.3,0.9-18.3-3.7L6.2,54.2c1.6-5.5,12.1-3.8,18.1-3.8l0,0c7.2,0,16.5-1.7,18.2,4.1v611.1V672.5z"/>
							</defs>
							<clipPath id="SVGID_00000034065173201603390450000005907718028448296088_">
								<use xlink:href="#SVGID_00000020376793801091156590000015971434742303659700_"  style="overflow:visible;"/>
							</clipPath>
							<g style="clip-path:url(#SVGID_00000034065173201603390450000005907718028448296088_);">
								<rect x="-8.7" y="646" class="st69" width="71" height="43.4"/>
								<rect x="-10.2" y="50.3" class="st70" width="74.3" height="19.5"/>
								<rect x="-8.7" y="69.8" class="st71" width="73.5" height="15.6"/>
								<rect x="-8.7" y="85.4" class="st72" width="73.5" height="15.6"/>
								<rect x="-8.7" y="101" class="st73" width="73.5" height="15.6"/>
								<rect x="-8.7" y="116.6" class="st74" width="73.5" height="15.6"/>
								<rect x="-8.7" y="132.1" class="st75" width="73.5" height="15.6"/>
								<rect x="-8.7" y="147.7" class="st76" width="73.5" height="15.6"/>
								<rect x="-8.7" y="163.3" class="st77" width="73.5" height="15.6"/>
								<rect x="-8.7" y="178.9" class="st78" width="73.5" height="15.6"/>
								<rect x="-8.7" y="194.5" class="st79" width="73.5" height="15.6"/>
								<rect x="-8.7" y="210" class="st80" width="73.5" height="15.6"/>
								<rect x="-8.7" y="225.6" class="st81" width="73.5" height="15.6"/>
								<rect x="-8.7" y="241.2" class="st82" width="73.5" height="15.6"/>
								<rect x="-8.7" y="256.8" class="st83" width="73.5" height="15.6"/>
								<rect x="-8.7" y="272.3" class="st84" width="73.5" height="15.6"/>
								<rect x="-8.7" y="287.9" class="st85" width="73.5" height="15.6"/>
								<rect x="-8.7" y="303.5" class="st86" width="73.5" height="15.6"/>
								<rect x="-8.7" y="319.1" class="st87" width="73.5" height="15.6"/>
								<rect x="-8.7" y="334.6" class="st88" width="73.5" height="15.6"/>
								<rect x="-8.7" y="350.2" class="st89" width="73.5" height="15.6"/>
								<rect x="-8.7" y="365.9" class="st90" width="73.5" height="15.6"/>
								<rect x="-8.7" y="381.4" class="st91" width="73.5" height="15.6"/>
								<rect x="-8.7" y="397" class="st92" width="73.5" height="15.6"/>
								<rect x="-8.7" y="412.5" class="st93" width="73.5" height="15.6"/>
								<rect x="-8.7" y="428.1" class="st94" width="73.5" height="15.7"/>
								<rect x="-8.7" y="443.7" class="st95" width="73.5" height="15.6"/>
								<rect x="-8.7" y="459.3" class="st96" width="73.5" height="15.6"/>
								<rect x="-8.7" y="474.8" class="st97" width="73.5" height="15.6"/>
								<rect x="-8.7" y="490.4" class="st98" width="73.5" height="15.6"/>
								<rect x="-8.7" y="505.9" class="st99" width="73.5" height="15.6"/>
								<rect x="-8.7" y="521.5" class="st100" width="73.5" height="15.6"/>
								<rect x="-8.7" y="537" class="st101" width="73.5" height="15.6"/>
								<rect x="-8.7" y="552.6" class="st102" width="73.5" height="15.6"/>
								<rect x="-8.7" y="568.2" class="st103" width="73.5" height="15.6"/>
								<rect x="-8.7" y="583.8" class="st104" width="73.5" height="15.6"/>
								<rect x="-8.7" y="599.4" class="st105" width="73.5" height="15.6"/>
								<rect x="-8.7" y="614.9" class="st106" width="73.5" height="15.6"/>
								<rect x="-8.7" y="630.5" class="st107" width="73.5" height="15.6"/>
							</g>
						</g>
					</g>
				</g>
			</g>
		</g>
	</g>
</g>
<g>
	<g>
		<g>
			<g>
				<g>
					<g>
						<g>
							<defs>
								<path id="SVGID_00000149377605562178372760000011266357302403402636_" d="M43.4,670.6c-0.5,3.9-12.2,5.2-20.4,5.2l-1.4-0.7
									c-8,0.4-15.8,0.7-15.8-4.1L5.5,55.4c1.7-5.7,11.4-9.1,17.8-9.1l0,0c7.6,0,17.3,3.3,19.1,9.3l0.4,614L43.4,670.6z"/>
							</defs>
							<clipPath id="SVGID_00000147907736436866626150000015455498849097168034_">
								<use xlink:href="#SVGID_00000149377605562178372760000011266357302403402636_"  style="overflow:visible;"/>
							</clipPath>
							<g style="clip-path:url(#SVGID_00000147907736436866626150000015455498849097168034_);">
								<rect x="-12.1" y="626.2" class="st4" width="73.3" height="64.2"/>
								<rect x="-13.2" y="49.5" class="st3" width="76.7" height="16.5"/>
								<rect x="-12.1" y="66" class="st4" width="75.9" height="15.7"/>
								<rect x="-12.1" y="81.6" class="st5" width="75.9" height="15.7"/>
								<rect x="-12.1" y="97.4" class="st6" width="75.9" height="15.7"/>
								<rect x="-12.1" y="113.1" class="st7" width="75.9" height="15.7"/>
								<rect x="-12.1" y="128.8" class="st8" width="75.9" height="15.7"/>
								<rect x="-12.1" y="144.4" class="st9" width="75.9" height="15.7"/>
								<rect x="-12.1" y="160.2" class="st10" width="75.9" height="15.7"/>
								<rect x="-12.1" y="175.9" class="st11" width="75.9" height="15.7"/>
								<rect x="-12.1" y="191.6" class="st12" width="75.9" height="15.7"/>
								<rect x="-12.1" y="207.3" class="st13" width="75.9" height="15.7"/>
								<rect x="-12.1" y="222.9" class="st14" width="75.9" height="15.7"/>
								<rect x="-12.1" y="238.7" class="st15" width="75.9" height="15.7"/>
								<rect x="-12.1" y="254.4" class="st3" width="75.9" height="15.7"/>
								<rect x="-12.1" y="270.1" class="st4" width="75.9" height="15.7"/>
								<rect x="-12.1" y="285.7" class="st16" width="75.9" height="15.7"/>
								<rect x="-12.1" y="301.5" class="st17" width="75.9" height="15.7"/>
								<rect x="-12.1" y="317.2" class="st18" width="75.9" height="15.7"/>
								<rect x="-12.1" y="332.9" class="st19" width="75.9" height="15.7"/>
								<rect x="-12.1" y="348.6" class="st20" width="75.9" height="15.7"/>
								<rect x="-12.1" y="364.3" class="st21" width="75.9" height="15.7"/>
								<rect x="-12.1" y="380" class="st22" width="75.9" height="15.7"/>
								<rect x="-12.1" y="395.7" class="st23" width="75.9" height="15.7"/>
								<rect x="-12.1" y="411.4" class="st24" width="75.9" height="15.7"/>
								<rect x="-12.1" y="427" class="st25" width="75.9" height="15.7"/>
								<rect x="-12.1" y="442.8" class="st26" width="75.9" height="15.7"/>
								<rect x="-12.1" y="458.5" class="st5" width="75.9" height="15.7"/>
								<rect x="-12.1" y="474.2" class="st6" width="75.9" height="15.7"/>
								<rect x="-12.1" y="489.9" class="st7" width="75.9" height="15.7"/>
								<rect x="-12.1" y="505.5" class="st8" width="75.9" height="15.7"/>
								<rect x="-12.1" y="521.2" class="st9" width="75.9" height="15.7"/>
								<rect x="-12.1" y="536.9" class="st10" width="75.9" height="15.7"/>
								<rect x="-12.1" y="552.6" class="st11" width="75.9" height="15.7"/>
								<rect x="-12.1" y="568.2" class="st12" width="75.9" height="15.7"/>
								<rect x="-12.1" y="584" class="st13" width="75.9" height="15.7"/>
								<rect x="-12.1" y="599.7" class="st14" width="75.9" height="15.7"/>
								<rect x="-12.1" y="615.4" class="st15" width="75.9" height="15.7"/>
								<rect x="-12.1" y="631" class="st3" width="75.9" height="15.7"/>
							</g>
						</g>
					</g>
				</g>
			</g>
		</g>
	</g>
</g>
<rect x="11.1" y="632" class="st109" width="15.4" height="11.8"/>
<g>
	<path class="st110" d="M22.5,672.6c-0.7,0-1.3-0.1-1.9-0.3s-1.1-0.6-1.5-1s-0.8-0.9-1-1.5s-0.4-1.2-0.4-1.9s0.1-1.3,0.4-1.9
		s0.6-1.1,1-1.5s1-0.7,1.5-1c0.6-0.2,1.2-0.3,1.9-0.3c0.7,0,1.4,0.1,2,0.4c0.6,0.3,1.1,0.6,1.6,1.1l-1.1,1c-0.3-0.4-0.7-0.6-1.1-0.8
		s-0.8-0.3-1.3-0.3s-0.9,0.1-1.3,0.2c-0.4,0.2-0.7,0.4-1,0.7s-0.5,0.6-0.7,1s-0.2,0.8-0.2,1.3s0.1,0.9,0.2,1.3
		c0.2,0.4,0.4,0.7,0.7,1c0.3,0.3,0.6,0.5,1,0.7s0.8,0.2,1.3,0.2s0.9-0.1,1.3-0.3s0.8-0.4,1.1-0.8l1.1,1c-0.4,0.5-0.9,0.9-1.6,1.1
		S23.2,672.6,22.5,672.6z"/>
	<path class="st110" d="M29.3,667.6c-0.4,0-0.8-0.1-1.1-0.3c-0.3-0.2-0.6-0.5-0.8-0.8c-0.2-0.3-0.3-0.7-0.3-1.1
		c0-0.4,0.1-0.8,0.3-1.1c0.2-0.3,0.5-0.6,0.8-0.8s0.7-0.3,1.1-0.3s0.8,0.1,1.1,0.3c0.3,0.2,0.6,0.5,0.8,0.8c0.2,0.3,0.3,0.7,0.3,1.1
		c0,0.4-0.1,0.8-0.3,1.1s-0.5,0.6-0.8,0.8S29.8,667.6,29.3,667.6z M29.3,666.8c0.3,0,0.5-0.1,0.7-0.2c0.2-0.1,0.3-0.3,0.5-0.5
		s0.2-0.4,0.2-0.7s-0.1-0.5-0.2-0.7s-0.3-0.4-0.5-0.5s-0.4-0.2-0.7-0.2c-0.2,0-0.5,0.1-0.7,0.2s-0.4,0.3-0.5,0.5s-0.2,0.4-0.2,0.7
		s0.1,0.5,0.2,0.7s0.3,0.4,0.5,0.5S29.1,666.8,29.3,666.8z"/>
</g>
<path class="st111" d="M36.6,675.8H12.1c-3.4,0-6.2-2.8-6.2-6.2V56.1c0-3.4,2.8-6.2,6.2-6.2h24.5c3.4,0,6.2,2.8,6.2,6.2v613.5
	C42.8,673,40,675.8,36.6,675.8z"/>
<g>
	<path class="st110" d="M14.4,631.5v-0.8H18v0.8H14.4z"/>
	<path class="st110" d="M24.7,634.4h-5.1v-0.8l2.3-2.4c0.4-0.4,0.7-0.7,0.9-0.9c0.2-0.2,0.4-0.5,0.5-0.8s0.2-0.6,0.2-0.9
		c0-0.5-0.1-0.9-0.4-1.1c-0.3-0.2-0.7-0.3-1.3-0.3c-0.5,0-1.1,0.1-1.7,0.2l-0.3,0.1l-0.1-0.8c0.8-0.2,1.5-0.3,2.4-0.3
		c0.8,0,1.4,0.2,1.8,0.5s0.6,0.9,0.6,1.6c0,0.6-0.1,1-0.4,1.5s-0.7,0.9-1.3,1.5l-2.1,2.1h4V634.4z"/>
	<path class="st110" d="M31.3,627.3c-0.7-0.1-1.4-0.1-2.1-0.1s-1.2,0.2-1.6,0.7s-0.6,1.1-0.6,2l0.3-0.1c0.2-0.1,0.5-0.1,0.8-0.2
		c0.3-0.1,0.6-0.1,0.9-0.1c1.8,0,2.7,0.8,2.7,2.5c0,0.8-0.2,1.5-0.7,1.9s-1.2,0.7-2,0.7c-1.9,0-2.8-1.4-2.8-4.1
		c0-1.4,0.3-2.4,0.8-3.1c0.5-0.7,1.3-1,2.3-1c0.6,0,1.3,0,1.8,0.1l0.3,0.1L31.3,627.3z M29,630.3c-0.3,0-0.6,0-0.9,0.1
		s-0.6,0.1-0.8,0.2l-0.3,0.1c0,0.9,0.2,1.6,0.5,2.2s0.8,0.8,1.4,0.8s1.1-0.2,1.4-0.5s0.5-0.7,0.5-1.3s-0.2-1-0.5-1.3
		C30,630.4,29.5,630.3,29,630.3z"/>
</g>
<line class="st112" x1="6" y1="614.7" x2="42.4" y2="614.7"/>
<g>
	<path class="st110" d="M14.7,599.2v-0.8h3.6v0.8H14.7z"/>
	<path class="st110" d="M25.1,602.1H20v-0.8l2.3-2.4c0.4-0.4,0.7-0.7,0.9-0.9c0.2-0.2,0.3-0.5,0.5-0.8c0.1-0.3,0.2-0.6,0.2-0.9
		c0-0.5-0.1-0.9-0.4-1.1c-0.3-0.2-0.7-0.3-1.3-0.3c-0.5,0-1.1,0.1-1.7,0.2l-0.3,0.1l-0.1-0.8c0.8-0.2,1.5-0.3,2.4-0.3
		c0.8,0,1.4,0.2,1.8,0.5s0.6,0.9,0.6,1.6c0,0.6-0.1,1-0.4,1.5s-0.7,0.9-1.3,1.5l-2.1,2.1h4V602.1z"/>
	<path class="st110" d="M31.8,602.1h-5.1v-0.8l2.3-2.4c0.4-0.4,0.7-0.7,0.9-0.9c0.2-0.2,0.3-0.5,0.5-0.8c0.1-0.3,0.2-0.6,0.2-0.9
		c0-0.5-0.1-0.9-0.4-1.1c-0.3-0.2-0.7-0.3-1.3-0.3c-0.5,0-1.1,0.1-1.7,0.2l-0.3,0.1l-0.1-0.8c0.8-0.2,1.5-0.3,2.4-0.3
		c0.8,0,1.4,0.2,1.8,0.5s0.6,0.9,0.6,1.6c0,0.6-0.1,1-0.4,1.5s-0.7,0.9-1.3,1.5l-2.1,2.1h4V602.1z"/>
</g>
<line class="st112" x1="6.9" y1="583.3" x2="42.5" y2="583.3"/>
<line class="st112" x1="5.9" y1="552.1" x2="43.4" y2="552.1"/>
<line class="st112" x1="6.1" y1="521" x2="42.5" y2="521"/>
<line class="st112" x1="6.1" y1="489.9" x2="42.5" y2="489.9"/>
<line class="st112" x1="5.9" y1="458.8" x2="42.5" y2="458.8"/>
<line class="st112" x1="5.9" y1="427.8" x2="42.8" y2="427.8"/>
<line class="st112" x1="5.9" y1="396" x2="43.4" y2="396"/>
<line class="st112" x1="5.4" y1="379.8" x2="18.3" y2="379.8"/>
<line class="st112" x1="5.9" y1="364.1" x2="42.5" y2="364.1"/>
<line class="st112" x1="6" y1="332.8" x2="42.7" y2="332.8"/>
<line class="st112" x1="5.9" y1="301.5" x2="43.4" y2="301.5"/>
<line class="st112" x1="5.4" y1="270.2" x2="42.9" y2="270.2"/>
<line class="st112" x1="5.5" y1="238.6" x2="42.4" y2="238.6"/>
<line class="st112" x1="5.7" y1="207.7" x2="42.7" y2="207.7"/>
<line class="st112" x1="6.7" y1="176.1" x2="42.8" y2="176.1"/>
<line class="st112" x1="6" y1="144.7" x2="42.9" y2="144.7"/>
<line class="st112" x1="5.2" y1="113.6" x2="43.7" y2="113.6"/>
<line class="st112" x1="6.7" y1="82.3" x2="43.6" y2="82.3"/>
<g>
	<path class="st110" d="M15,567.5v-0.8h3.6v0.8H15z"/>
	<path class="st110" d="M24.1,562.4v7.9h-0.9v-6.9l-2,1.3l-0.4-0.7l2.5-1.7h0.8V562.4z"/>
	<path class="st110" d="M27.4,562.8c0.5-0.3,1.2-0.5,2.1-0.5s1.6,0.2,2.1,0.5c0.5,0.3,0.8,0.9,0.8,1.5c0,0.5-0.1,0.9-0.3,1.1
		c-0.2,0.3-0.5,0.5-1,0.7c0.5,0.2,0.8,0.5,1.1,0.8s0.4,0.7,0.4,1.2c0,1.5-1,2.3-3,2.3s-3-0.7-3-2.1c0-0.6,0.1-1,0.3-1.3
		c0.2-0.3,0.6-0.6,1-0.8c-0.4-0.2-0.7-0.5-0.9-0.7s-0.3-0.7-0.3-1.1C26.7,563.7,26.9,563.2,27.4,562.8z M27.5,568.2
		c0,1,0.7,1.5,2,1.5s2-0.5,2-1.5c0-0.4-0.1-0.7-0.4-0.9c-0.2-0.2-0.6-0.4-1-0.5h-1.3c-0.4,0.1-0.8,0.3-1,0.5
		C27.6,567.4,27.5,567.8,27.5,568.2z M31.4,564.5c0-0.9-0.6-1.3-1.9-1.3c-1.2,0-1.9,0.4-1.9,1.3c0,0.4,0.1,0.6,0.3,0.9
		c0.2,0.2,0.5,0.4,0.9,0.5h1.3c0.4-0.1,0.8-0.3,1-0.5C31.3,565.1,31.4,564.8,31.4,564.5z"/>
</g>
<g>
	<path class="st110" d="M15.4,536.8V536H19v0.8H15.4z"/>
	<path class="st110" d="M24.5,531.8v7.9h-0.9v-6.9l-2,1.3l-0.4-0.7l2.5-1.7h0.8V531.8z"/>
	<path class="st110" d="M30.9,539.7v-1.5H27v-0.7l2.3-5.7h1l-2.3,5.6h2.9v-2.5h0.9v2.5h1v0.8h-1v1.5L30.9,539.7L30.9,539.7z"/>
</g>
<g>
	<path class="st110" d="M15,505.7v-0.8h3.6v0.8H15z"/>
	<path class="st110" d="M24.1,500.7v7.9h-0.9v-6.9l-2,1.3l-0.4-0.7l2.5-1.7h0.8V500.7z"/>
	<path class="st110" d="M29.5,500.6c0.7,0,1.2,0.1,1.6,0.4c0.9,0.5,1.3,1.8,1.3,3.8c0,1.4-0.2,2.5-0.7,3.1s-1.2,0.9-2.2,0.9
		s-1.7-0.3-2.2-0.9s-0.7-1.6-0.7-3.1s0.2-2.6,0.7-3.2C27.8,500.9,28.6,500.6,29.5,500.6z M29.5,501.4c-0.5,0-0.8,0.1-1.1,0.3
		c-0.6,0.4-0.9,1.4-0.9,3.1c0,1.2,0.2,2,0.5,2.5s0.8,0.7,1.5,0.7s1.2-0.2,1.5-0.7s0.5-1.3,0.5-2.5s-0.1-2.1-0.5-2.6
		C30.7,501.6,30.2,501.4,29.5,501.4z"/>
</g>
<g>
	<path class="st110" d="M18.9,474.6v-0.8h3.6v0.8H18.9z"/>
	<path class="st110" d="M29.1,470.4c-0.7-0.1-1.4-0.1-2.1-0.1s-1.2,0.2-1.6,0.7s-0.6,1.1-0.6,2l0.3-0.1c0.2-0.1,0.5-0.1,0.8-0.2
		s0.6-0.1,0.9-0.1c1.8,0,2.7,0.8,2.7,2.5c0,0.8-0.2,1.5-0.7,1.9s-1.2,0.7-2,0.7c-1.9,0-2.8-1.4-2.8-4.1c0-1.4,0.3-2.4,0.8-3.1
		s1.3-1,2.3-1c0.6,0,1.3,0,1.8,0.1l0.3,0.1L29.1,470.4z M26.8,473.3c-0.3,0-0.6,0-0.9,0.1s-0.6,0.1-0.8,0.2l-0.3,0.1
		c0,0.9,0.2,1.6,0.5,2.2s0.8,0.8,1.4,0.8s1.1-0.2,1.4-0.5s0.5-0.7,0.5-1.3c0-0.6-0.2-1-0.5-1.3C27.8,473.4,27.4,473.3,26.8,473.3z"
		/>
</g>
<g>
	<path class="st110" d="M18.9,443.8V443h3.6v0.8H18.9z"/>
	<path class="st110" d="M29.2,446.7h-5.1v-0.8l2.3-2.4c0.4-0.4,0.7-0.7,0.9-0.9c0.2-0.2,0.4-0.5,0.5-0.8s0.2-0.6,0.2-0.9
		c0-0.5-0.1-0.9-0.4-1.1s-0.7-0.3-1.3-0.3c-0.5,0-1.1,0.1-1.7,0.2l-0.3,0.1l-0.1-0.8c0.8-0.2,1.5-0.3,2.4-0.3c0.8,0,1.4,0.2,1.8,0.5
		s0.6,0.9,0.6,1.6c0,0.6-0.1,1-0.4,1.5s-0.7,0.9-1.3,1.5l-2.1,2.1h4V446.7z"/>
</g>
<g>
	<path class="st110" d="M26.6,415.3h-5.1v-0.8l2.3-2.4c0.4-0.4,0.7-0.7,0.9-0.9c0.2-0.2,0.4-0.5,0.5-0.8s0.2-0.6,0.2-0.9
		c0-0.5-0.1-0.9-0.4-1.1s-0.7-0.3-1.3-0.3c-0.5,0-1.1,0.1-1.7,0.2l-0.3,0.1l-0.1-0.8c0.8-0.2,1.5-0.3,2.4-0.3c0.8,0,1.4,0.2,1.8,0.5
		s0.6,0.9,0.6,1.6c0,0.6-0.1,1-0.4,1.5s-0.7,0.9-1.3,1.5l-2.1,2.1h4V415.3z"/>
</g>
<g>
	<path class="st113" d="M26.5,376.2c-0.7-0.1-1.4-0.1-2.1-0.1s-1.2,0.2-1.6,0.7s-0.6,1.1-0.6,2l0.3-0.1c0.2-0.1,0.5-0.1,0.8-0.2
		s0.6-0.1,0.9-0.1c1.8,0,2.7,0.8,2.7,2.5c0,0.8-0.2,1.5-0.7,1.9c-0.5,0.5-1.2,0.7-2,0.7c-1.9,0-2.8-1.4-2.8-4.1
		c0-1.4,0.3-2.4,0.8-3.1s1.3-1,2.3-1c0.6,0,1.3,0,1.8,0.1l0.3,0.1L26.5,376.2z M24.2,379.2c-0.3,0-0.6,0-0.9,0.1s-0.6,0.1-0.8,0.2
		l-0.3,0.1c0,0.9,0.2,1.6,0.5,2.2c0.3,0.5,0.8,0.8,1.4,0.8s1.1-0.2,1.4-0.5s0.5-0.7,0.5-1.3c0-0.6-0.2-1-0.5-1.3
		C25.2,379.3,24.8,379.2,24.2,379.2z"/>
</g>
<g>
	<path class="st113" d="M22.1,343.6v7.9h-0.9v-6.9l-2,1.3l-0.4-0.7l2.5-1.7h0.8V343.6z"/>
	<path class="st113" d="M27.5,343.4c0.7,0,1.2,0.1,1.6,0.4c0.9,0.5,1.3,1.8,1.3,3.8c0,1.4-0.2,2.5-0.7,3.1s-1.2,0.9-2.2,0.9
		s-1.7-0.3-2.2-0.9s-0.7-1.6-0.7-3.1s0.2-2.6,0.7-3.2C25.8,343.8,26.5,343.4,27.5,343.4z M27.5,344.3c-0.5,0-0.8,0.1-1.1,0.3
		c-0.6,0.4-0.9,1.4-0.9,3.1c0,1.2,0.2,2,0.5,2.5s0.8,0.7,1.5,0.7s1.2-0.2,1.5-0.7s0.5-1.3,0.5-2.5s-0.1-2.1-0.5-2.6
		C28.7,344.5,28.2,344.3,27.5,344.3z"/>
</g>
<g>
	<path class="st113" d="M22,312.3v7.9h-0.9v-6.9l-2,1.3l-0.4-0.7l2.5-1.7H22V312.3z"/>
	<path class="st113" d="M28.4,320.2v-1.5h-3.8V318l2.3-5.7h1l-2.3,5.6h2.9v-2.5h0.9v2.5h1v0.8h-1v1.5L28.4,320.2L28.4,320.2z"/>
</g>
<g>
	<path class="st113" d="M21.8,279.9v7.9h-0.9v-6.9l-2,1.3l-0.4-0.7l2.5-1.7h0.8V279.9z"/>
	<path class="st113" d="M25.1,280.3c0.5-0.3,1.2-0.5,2.1-0.5s1.6,0.2,2.1,0.5s0.8,0.9,0.8,1.5c0,0.5-0.1,0.9-0.3,1.1
		c-0.2,0.3-0.5,0.5-1,0.7c0.5,0.2,0.8,0.5,1.1,0.8c0.2,0.3,0.4,0.7,0.4,1.2c0,1.5-1,2.3-3,2.3s-3-0.7-3-2.1c0-0.6,0.1-1,0.3-1.3
		c0.2-0.3,0.6-0.6,1-0.8c-0.4-0.2-0.7-0.5-0.9-0.7c-0.2-0.3-0.3-0.7-0.3-1.1C24.4,281.1,24.6,280.6,25.1,280.3z M25.3,285.6
		c0,1,0.7,1.5,2,1.5s2-0.5,2-1.5c0-0.4-0.1-0.7-0.4-0.9c-0.2-0.2-0.6-0.4-1-0.5h-1.3c-0.4,0.1-0.8,0.3-1,0.5
		C25.4,284.9,25.3,285.2,25.3,285.6z M29.1,281.9c0-0.9-0.6-1.3-1.9-1.3s-1.9,0.4-1.9,1.3c0,0.4,0.1,0.6,0.3,0.9
		c0.2,0.2,0.5,0.4,0.9,0.5h1.3c0.4-0.1,0.8-0.3,1-0.5C29,282.6,29.1,282.3,29.1,281.9z"/>
</g>
<g>
	<path class="st113" d="M23.3,256.4h-5.1v-0.8l2.3-2.4c0.4-0.4,0.7-0.7,0.9-0.9c0.2-0.2,0.4-0.5,0.5-0.8s0.2-0.6,0.2-0.9
		c0-0.5-0.1-0.9-0.4-1.1c-0.3-0.2-0.7-0.3-1.3-0.3c-0.5,0-1.1,0.1-1.7,0.2l-0.3,0.1l-0.1-0.8c0.8-0.2,1.5-0.3,2.4-0.3
		c0.8,0,1.4,0.2,1.8,0.5s0.6,0.9,0.6,1.6c0,0.6-0.1,1-0.4,1.5s-0.7,0.9-1.3,1.5l-2.1,2.1h4V256.4z"/>
	<path class="st113" d="M30,256.4h-5v-0.8l2.3-2.4c0.4-0.4,0.7-0.7,0.9-0.9c0.2-0.2,0.4-0.5,0.5-0.8s0.2-0.6,0.2-0.9
		c0-0.5-0.1-0.9-0.4-1.1c-0.3-0.2-0.7-0.3-1.3-0.3c-0.5,0-1.1,0.1-1.7,0.2l-0.3,0.1l-0.1-0.8c0.8-0.2,1.5-0.3,2.4-0.3
		c0.8,0,1.4,0.2,1.8,0.5s0.6,0.9,0.6,1.6c0,0.6-0.1,1-0.4,1.5s-0.7,0.9-1.3,1.5l-2.1,2.1h4v0.8H30z"/>
</g>
<g>
	<path class="st110" d="M22.9,224.8h-5.1V224l2.3-2.4c0.4-0.4,0.7-0.7,0.9-0.9c0.2-0.2,0.3-0.5,0.5-0.8c0.1-0.3,0.2-0.6,0.2-0.9
		c0-0.5-0.1-0.9-0.4-1.1c-0.3-0.2-0.7-0.3-1.3-0.3c-0.5,0-1.1,0.1-1.7,0.2l-0.3,0.1l-0.1-0.8c0.8-0.2,1.5-0.3,2.4-0.3
		c0.8,0,1.4,0.2,1.8,0.5s0.6,0.9,0.6,1.6c0,0.6-0.1,1-0.4,1.5s-0.7,0.9-1.3,1.5l-2.1,2.1h4V224.8z"/>
	<path class="st110" d="M29.5,217.7c-0.7-0.1-1.4-0.1-2.1-0.1s-1.2,0.2-1.6,0.7s-0.6,1.1-0.6,2l0.3-0.1c0.2-0.1,0.5-0.1,0.8-0.2
		s0.6-0.1,0.9-0.1c1.8,0,2.7,0.8,2.7,2.5c0,0.8-0.2,1.5-0.7,1.9c-0.5,0.5-1.2,0.7-2,0.7c-1.9,0-2.8-1.4-2.8-4.1
		c0-1.4,0.3-2.4,0.8-3.1c0.5-0.7,1.3-1,2.3-1c0.6,0,1.3,0,1.8,0.1l0.3,0.1L29.5,217.7z M27.2,220.6c-0.3,0-0.6,0-0.9,0.1
		s-0.6,0.1-0.8,0.2l-0.3,0.1c0,0.9,0.2,1.6,0.5,2.2c0.3,0.5,0.8,0.8,1.4,0.8s1.1-0.2,1.4-0.5s0.5-0.7,0.5-1.3s-0.2-1-0.5-1.3
		C28.2,220.8,27.7,220.6,27.2,220.6z"/>
</g>
<g>
	<path class="st110" d="M18.5,187.2c0.8-0.2,1.6-0.3,2.4-0.3s1.5,0.2,1.9,0.5s0.6,0.9,0.6,1.6c0,0.4-0.1,0.6-0.2,0.8
		s-0.2,0.3-0.2,0.4c-0.1,0.1-0.1,0.2-0.2,0.3c-0.2,0.1-0.3,0.2-0.4,0.3l-0.1,0.1c0.5,0.2,0.8,0.4,1,0.6s0.3,0.7,0.3,1.3
		c0,0.8-0.2,1.4-0.6,1.8c-0.4,0.4-1.1,0.6-1.9,0.6c-0.7,0-1.4-0.1-2.2-0.2l-0.4-0.1l0.1-0.8c0.9,0.2,1.7,0.3,2.4,0.3
		c1.1,0,1.7-0.5,1.7-1.5s-0.5-1.4-1.6-1.5h-1.6v-0.8h1.6c0.3,0,0.7-0.1,1-0.4c0.3-0.3,0.5-0.6,0.5-1.1c0-0.4-0.1-0.8-0.4-1
		s-0.7-0.3-1.2-0.3c-0.6,0-1.3,0.1-1.9,0.2l-0.3,0.1L18.5,187.2z"/>
	<path class="st110" d="M27.7,186.9c0.7,0,1.2,0.1,1.6,0.4c0.9,0.5,1.3,1.8,1.3,3.8c0,1.4-0.2,2.5-0.7,3.1s-1.2,0.9-2.2,0.9
		s-1.7-0.3-2.2-0.9c-0.5-0.6-0.7-1.6-0.7-3.1s0.2-2.6,0.7-3.2C26,187.2,26.7,186.9,27.7,186.9z M27.7,187.7c-0.5,0-0.8,0.1-1.1,0.3
		c-0.6,0.4-0.9,1.4-0.9,3.1c0,1.2,0.2,2,0.5,2.5s0.8,0.7,1.5,0.7s1.2-0.2,1.5-0.7s0.5-1.3,0.5-2.5s-0.2-2.1-0.5-2.6
		S28.4,187.7,27.7,187.7z"/>
</g>
<g>
	<path class="st110" d="M18.4,156.5c0.8-0.2,1.6-0.3,2.4-0.3c0.9,0,1.5,0.2,1.9,0.5s0.6,0.9,0.6,1.6c0,0.4-0.1,0.6-0.2,0.8
		s-0.2,0.3-0.2,0.4c-0.1,0.1-0.1,0.2-0.2,0.3c-0.2,0.1-0.3,0.2-0.4,0.3l-0.1,0.1c0.5,0.2,0.8,0.4,1,0.6s0.3,0.7,0.3,1.3
		c0,0.8-0.2,1.4-0.6,1.8c-0.4,0.4-1.1,0.6-1.9,0.6c-0.7,0-1.4-0.1-2.2-0.2l-0.4-0.1l0.1-0.8c0.9,0.2,1.7,0.3,2.4,0.3
		c1.1,0,1.7-0.5,1.7-1.5s-0.5-1.4-1.6-1.5h-1.6v-0.8H21c0.3,0,0.7-0.1,1-0.4c0.3-0.3,0.5-0.6,0.5-1.1c0-0.4-0.1-0.8-0.4-1
		s-0.7-0.3-1.2-0.3c-0.6,0-1.3,0.1-1.9,0.2l-0.3,0.1L18.4,156.5z"/>
	<path class="st110" d="M28.6,164.2v-1.5h-3.8V162l2.3-5.7h1l-2.3,5.6h2.9v-2.5h0.9v2.5h1v0.8h-1v1.5L28.6,164.2L28.6,164.2z"/>
</g>
<g>
	<path class="st110" d="M17.9,124.4c0.8-0.2,1.6-0.3,2.4-0.3c0.9,0,1.5,0.2,1.9,0.5s0.6,0.9,0.6,1.6c0,0.4,0,0.6-0.1,0.8
		c-0.1,0.2-0.2,0.3-0.2,0.4c-0.1,0.1-0.1,0.2-0.2,0.3c-0.2,0.1-0.3,0.2-0.4,0.3l-0.1,0.1c0.5,0.2,0.8,0.4,1,0.6
		c0.2,0.3,0.3,0.7,0.3,1.3c0,0.8-0.2,1.4-0.6,1.8c-0.4,0.4-1.1,0.6-2,0.6c-0.7,0-1.4-0.1-2.2-0.2l-0.4-0.1l0.1-0.8
		c0.9,0.2,1.7,0.3,2.4,0.3c1.1,0,1.7-0.5,1.7-1.5s-0.5-1.4-1.6-1.5h-1.6v-0.8h1.6c0.3,0,0.7-0.1,1-0.4s0.5-0.6,0.5-1.1
		c0-0.4-0.1-0.8-0.4-1s-0.7-0.3-1.2-0.3c-0.6,0-1.3,0.1-1.9,0.2l-0.3,0.1L17.9,124.4z"/>
	<path class="st110" d="M25.1,124.6c0.5-0.3,1.2-0.5,2.1-0.5s1.6,0.2,2.1,0.5s0.8,0.9,0.8,1.5c0,0.5-0.1,0.9-0.3,1.1
		c-0.2,0.3-0.5,0.5-1,0.7c0.5,0.2,0.8,0.5,1.1,0.8s0.4,0.7,0.4,1.2c0,1.5-1,2.3-3,2.3s-3-0.7-3-2.1c0-0.6,0.1-1,0.3-1.3
		c0.2-0.3,0.6-0.6,1-0.8c-0.4-0.2-0.7-0.5-0.9-0.7s-0.3-0.7-0.3-1.1C24.3,125.4,24.6,124.9,25.1,124.6z M25.2,129.9
		c0,1,0.7,1.5,2,1.5s2-0.5,2-1.5c0-0.4-0.1-0.7-0.4-0.9c-0.2-0.2-0.6-0.4-1-0.5h-1.3c-0.4,0.1-0.8,0.3-1,0.5
		C25.3,129.2,25.2,129.5,25.2,129.9z M29,126.2c0-0.9-0.6-1.3-1.9-1.3c-1.2,0-1.9,0.4-1.9,1.3c0,0.4,0.1,0.6,0.3,0.9
		c0.2,0.2,0.5,0.4,0.9,0.5h1.3c0.4-0.1,0.8-0.3,1-0.5S29,126.6,29,126.2z"/>
</g>
<g>
	<path class="st110" d="M21.9,101.5V100h-3.8v-0.7l2.3-5.7h1l-2.3,5.6H22v-2.5h0.9v2.5h1v0.8h-1v1.5
		C22.9,101.5,21.9,101.5,21.9,101.5z"/>
	<path class="st110" d="M30.2,101.5h-5.1v-0.8l2.3-2.4c0.4-0.4,0.7-0.7,0.9-0.9c0.2-0.2,0.3-0.5,0.5-0.8c0.1-0.3,0.2-0.6,0.2-0.9
		c0-0.5-0.1-0.9-0.4-1.1s-0.7-0.3-1.3-0.3c-0.5,0-1.1,0.1-1.7,0.2l-0.3,0.1l-0.1-0.8c0.8-0.2,1.5-0.3,2.4-0.3c0.8,0,1.4,0.2,1.8,0.5
		s0.6,0.9,0.6,1.6c0,0.6-0.1,1-0.4,1.5S29,98,28.4,98.6l-2.1,2.1h4L30.2,101.5L30.2,101.5z"/>
</g>
<g>
	<path class="st113" d="M21.9,69v-1.5h-3.8v-0.7l2.3-5.7h1l-2.3,5.6H22v-2.5h0.9v2.5h1v0.8h-1V69H21.9z"/>
	<path class="st113" d="M30.1,61.9c-0.7-0.1-1.4-0.1-2.1-0.1s-1.2,0.2-1.6,0.7s-0.6,1.1-0.6,2l0.3-0.1c0.2-0.1,0.5-0.1,0.8-0.2
		s0.6-0.1,0.9-0.1c1.8,0,2.7,0.8,2.7,2.5c0,0.8-0.2,1.5-0.7,1.9c-0.5,0.5-1.2,0.7-2,0.7c-1.9,0-2.8-1.4-2.8-4.1
		c0-1.4,0.3-2.4,0.8-3.1c0.5-0.7,1.3-1,2.3-1c0.6,0,1.3,0,1.8,0.1l0.3,0.1L30.1,61.9z M27.8,64.9c-0.3,0-0.6,0-0.9,0.1
		s-0.6,0.1-0.8,0.2l-0.3,0.1c0,0.9,0.2,1.6,0.5,2.2c0.3,0.5,0.8,0.8,1.4,0.8s1.1-0.2,1.4-0.5s0.5-0.7,0.5-1.3c0-0.6-0.2-1-0.5-1.3
		C28.8,65,28.4,64.9,27.8,64.9z"/>
</g>
<line class="st112" x1="29.5" y1="379.8" x2="42.3" y2="379.8"/>
<line class="st112" x1="6.7" y1="411.6" x2="18.2" y2="411.6"/>
<line class="st112" x1="42.6" y1="411.6" x2="29.3" y2="411.6"/>
<line class="st112" x1="6" y1="443.2" x2="17.9" y2="443.2"/>
<line class="st112" x1="42.3" y1="443.2" x2="30.9" y2="443.2"/>
<line class="st112" x1="6.1" y1="474.3" x2="17.9" y2="474.3"/>
<line class="st112" x1="42.3" y1="474.3" x2="30.9" y2="474.3"/>
<line class="st112" x1="42.1" y1="505.5" x2="33.2" y2="505.5"/>
<line class="st112" x1="6.5" y1="505.5" x2="14.2" y2="505.4"/>
<line class="st112" x1="6.5" y1="567.7" x2="12.3" y2="567.8"/>
<line class="st112" x1="41.9" y1="568" x2="33.2" y2="568"/>
<line class="st112" x1="6.6" y1="598.9" x2="13.1" y2="598.9"/>
<line class="st112" x1="42.3" y1="598.9" x2="33.8" y2="598.9"/>
<line class="st112" x1="6.1" y1="631" x2="14.4" y2="631"/>
<line class="st112" x1="42.3" y1="631" x2="34.3" y2="631"/>
<line class="st112" x1="6.1" y1="536.6" x2="14.2" y2="536.6"/>
<line class="st112" x1="42.5" y1="536.6" x2="33.6" y2="536.6"/>
<line class="st112" x1="6.7" y1="348.3" x2="18.3" y2="348.3"/>
<line class="st112" x1="31.1" y1="348.3" x2="42.1" y2="348.3"/>
<line class="st112" x1="6.7" y1="317.4" x2="18.2" y2="317.4"/>
<line class="st112" x1="30.4" y1="317.3" x2="42.2" y2="317.3"/>
<line class="st112" x1="5.6" y1="285.4" x2="18.3" y2="285.4"/>
<line class="st112" x1="42.3" y1="285.4" x2="31.1" y2="285.4"/>
<line class="st112" x1="6.8" y1="254.1" x2="17.6" y2="254.1"/>
<line class="st112" x1="42.7" y1="254.1" x2="31.7" y2="254.1"/>
<line class="st112" x1="6.3" y1="222.4" x2="17.3" y2="222.4"/>
<line class="st112" x1="42.2" y1="222.3" x2="31.2" y2="222.3"/>
<line class="st112" x1="6.8" y1="191.3" x2="18.9" y2="191.3"/>
<line class="st112" x1="42.7" y1="191.5" x2="31.7" y2="191.5"/>
<line class="st112" x1="18.1" y1="160.6" x2="5.5" y2="160.6"/>
<line class="st112" x1="42.1" y1="160.8" x2="31" y2="160.8"/>
<line class="st112" x1="5.9" y1="129.3" x2="17.8" y2="129.3"/>
<line class="st112" x1="42.5" y1="129.3" x2="31.4" y2="129.3"/>
<line class="st112" x1="6.5" y1="97.8" x2="17.5" y2="97.9"/>
<line class="st112" x1="42.8" y1="97.8" x2="31.4" y2="97.8"/>
<line class="st112" x1="6.4" y1="65.6" x2="17.1" y2="65.6"/>
<line class="st112" x1="30.8" y1="65.6" x2="42.5" y2="65.6"/>
<line class="st112" x1="7" y1="646.4" x2="43.6" y2="646.4"/>
</svg>
