<?xml version="1.0" encoding="utf-8"?>
<!-- Generator: Adobe Illustrator 27.7.0, SVG Export Plug-In . SVG Version: 6.00 Build 0)  -->
<svg version="1.1" id="Livello_1" xmlns="http://www.w3.org/2000/svg" xmlns:xlink="http://www.w3.org/1999/xlink" x="0px" y="0px"
	width="38px" height="644px" viewBox="0 0 37.2 644.1" style="enable-background:new 0 0 37.2 644.1;" xml:space="preserve">
<style type="text/css">
	.st0{clip-path:url(#SVGID_00000082343923695845586530000007272681690905679278_);}
	.st1{fill:#F59826;}
	.st2{fill:#FDCC22;}
	.st3{fill:#6655AD;}
	.st4{fill:#975EAD;}
	.st5{fill:#C66AAF;}
	.st6{fill:#AF48A1;}
	.st7{fill:#981595;}
	.st8{fill:#660666;}
	.st9{fill:#640E0E;}
	.st10{fill:#991E1F;}
	.st11{fill:#CB2527;}
	.st12{fill:#EC2426;}
	.st13{fill:#F06626;}
	.st14{fill:#FCFC1E;}
	.st15{fill:#CBE436;}
	.st16{fill:#7ECB47;}
	.st17{fill:#0EB04E;}
	.st18{fill:#37BD7C;}
	.st19{fill:#58C3BA;}
	.st20{fill:#6FC9DC;}
	.st21{fill:#33BCF3;}
	.st22{fill:#498DD2;}
	.st23{fill:#4469BB;}
	.st24{fill:#3F57B0;}
	.st25{fill:none;stroke:#3C3430;stroke-width:3;stroke-miterlimit:10;}
	.st26{display:none;}
	.st27{display:inline;}
	.st28{clip-path:url(#SVGID_00000041979276717238174340000014236462220789600446_);fill:#FFFAFA;}
	.st29{clip-path:url(#SVGID_00000159439312181227653070000013733430359839537580_);fill:#FBD5D6;}
	.st30{clip-path:url(#SVGID_00000065773237504230589160000016858993890192977315_);fill:#F9C1C2;}
	.st31{clip-path:url(#SVGID_00000146472505714059221710000008698542626410503083_);fill:#FDEBEB;}
	.st32{clip-path:url(#SVGID_00000141435087793984664030000014682845682427525016_);fill:#F6ABAD;}
	.st33{clip-path:url(#SVGID_00000030463626527630063480000018279201164940462221_);fill:#F49799;}
	.st34{clip-path:url(#SVGID_00000140723602905298835640000001893588452313612710_);fill:#C8E8F0;}
	.st35{clip-path:url(#SVGID_00000081608350784154600500000006614360929220977320_);fill:#D0EBF7;}
	.st36{clip-path:url(#SVGID_00000026849860487079561670000005092049456788048062_);fill:#4898DA;}
	.st37{clip-path:url(#SVGID_00000180355397802054888840000017163120916815124140_);fill:#A3A5D7;}
	.st38{clip-path:url(#SVGID_00000049219842983452708670000010430301842783700103_);fill:#B988C1;}
	.st39{clip-path:url(#SVGID_00000166650238922560885630000001950359756804375686_);fill:#D7A2CD;}
	.st40{clip-path:url(#SVGID_00000180359527857187481770000007092398577684523141_);fill:#E8BEDB;}
	.st41{clip-path:url(#SVGID_00000167353884354159500510000010519294116640399517_);fill:#E67D9B;}
	.st42{clip-path:url(#SVGID_00000006669656271679852630000013714970136088404917_);fill:#DB4C4D;}
	.st43{clip-path:url(#SVGID_00000091708887239940511230000011328212884977320609_);fill:#EF5A5C;}
	.st44{clip-path:url(#SVGID_00000130614434837333964630000005423353710998351031_);fill:#F7A25C;}
	.st45{clip-path:url(#SVGID_00000148648117026678906560000009247177865261305484_);fill:#FDD58F;}
	.st46{clip-path:url(#SVGID_00000138570811389358052190000004793681906329336735_);fill:#FFE173;}
	.st47{clip-path:url(#SVGID_00000065039682943277526370000010551151982784888215_);fill:#FEFE82;}
	.st48{clip-path:url(#SVGID_00000183952624288781438480000011284842744893304997_);fill:#FFFFC7;}
	.st49{clip-path:url(#SVGID_00000167383918510031495870000014178663639440238217_);fill:#F3F3A1;}
	.st50{clip-path:url(#SVGID_00000003809816062569747960000015828368344377102752_);fill:#D3ECA4;}
	.st51{clip-path:url(#SVGID_00000067197642825452992720000012554708544320115346_);fill:#C3E6D8;}
	.st52{clip-path:url(#SVGID_00000121257468817960216220000017002436535888759729_);fill:#C8E8F0;}
	.st53{clip-path:url(#SVGID_00000116230055852622676420000011194352999016886707_);fill:#D0EBF7;}
	.st54{clip-path:url(#SVGID_00000011745306579982808240000009728871766754369675_);fill:#EC2426;}
	.st55{clip-path:url(#SVGID_00000065075090130674108140000011491700980191271322_);fill:#FCFC1E;}
	.st56{clip-path:url(#SVGID_00000165227024023964572700000008342822193120427142_);fill:#0B7F3F;}
	.st57{clip-path:url(#SVGID_00000175287900740539766310000017111833456739357069_);fill:#F7A426;}
	.st58{clip-path:url(#SVGID_00000077308700618376554860000013435051812383722114_);fill:#6FC9DC;}
	.st59{clip-path:url(#SVGID_00000040575632423929869580000017643374154420653499_);fill:#3F57B0;}
	.st60{display:none;fill:#3A332F;}
	.st61{display:none;fill:none;stroke:#3C3430;stroke-width:2.9317;stroke-miterlimit:9.7722;}
	.st62{display:inline;fill:#3C3530;}
	.st63{display:inline;fill:#FFFFFF;}
	.st64{display:none;fill:none;}
	.st65{display:none;enable-background:new    ;}
	.st66{clip-path:url(#SVGID_00000001646382753003406080000005063909953070904984_);}
	.st67{fill:#39322E;}
	.st68{fill:none;stroke:#3C3430;stroke-width:2.9317;stroke-miterlimit:9.7722;}
	.st69{fill:#3C3530;}
	.st70{fill:#FFFFFF;}
</style>
<g>
	<g>
		<g>
			<g>
				<defs>
					<path id="SVGID_1_" d="M30.6,632.8c-0.3,3.7-6.4,8.1-11.7,8.1l0,0c-5.2,0.4-12.3-3.6-12.3-8.1V48.7c1.1-5.3,7.4-8.5,11.5-8.5
						l0,0c4.9,0,11.2,3.1,12.4,8.7V632.8L30.6,632.8z"/>
				</defs>
				<clipPath id="SVGID_00000145058880683364181900000002973006969242486665_">
					<use xlink:href="#SVGID_1_"  style="overflow:visible;"/>
				</clipPath>
				<g style="clip-path:url(#SVGID_00000145058880683364181900000002973006969242486665_);">
					<rect x="-1.1" y="41.6" class="st1" width="47.9" height="15"/>
					<rect x="-5.6" y="55.9" class="st2" width="47.4" height="14.2"/>
					<rect x="-5.6" y="70.1" class="st3" width="47.4" height="14.2"/>
					<rect x="-5.6" y="84.4" class="st4" width="47.4" height="14.2"/>
					<rect x="-5.6" y="98.7" class="st5" width="47.4" height="14.2"/>
					<rect x="-5.6" y="112.9" class="st6" width="47.4" height="14.2"/>
					<rect x="-5.6" y="127.1" class="st7" width="47.4" height="14.2"/>
					<rect x="-5.6" y="141.3" class="st8" width="47.4" height="14.2"/>
					<rect x="-5.6" y="155.5" class="st9" width="47.4" height="14.2"/>
					<rect x="-5.6" y="169.7" class="st10" width="47.4" height="14.2"/>
					<rect x="-5.6" y="184" class="st11" width="47.4" height="14.2"/>
					<rect x="-5.6" y="198.2" class="st12" width="47.4" height="14.2"/>
					<rect x="-5.6" y="212.4" class="st13" width="47.4" height="14.2"/>
					<rect x="-5.6" y="226.6" class="st1" width="47.4" height="14.2"/>
					<rect x="-5.6" y="240.8" class="st2" width="47.4" height="14.2"/>
					<rect x="-5.6" y="255" class="st14" width="47.4" height="14.2"/>
					<rect x="-5.6" y="269.3" class="st15" width="47.4" height="14.2"/>
					<rect x="-5.6" y="283.5" class="st16" width="47.4" height="14.2"/>
					<rect x="-5.6" y="297.7" class="st17" width="47.4" height="14.2"/>
					<rect x="-5.6" y="312" class="st18" width="47.4" height="14.2"/>
					<rect x="-5.6" y="326.2" class="st19" width="47.4" height="14.2"/>
					<rect x="-5.6" y="340.4" class="st20" width="47.4" height="14.2"/>
					<rect x="-5.6" y="354.7" class="st21" width="47.4" height="14.2"/>
					<rect x="-5.6" y="368.9" class="st22" width="47.4" height="14.2"/>
					<rect x="-5.6" y="383.1" class="st23" width="47.4" height="14.2"/>
					<rect x="-5.6" y="397.3" class="st24" width="47.4" height="14.2"/>
					<rect x="-5.6" y="411.5" class="st3" width="47.4" height="14.2"/>
					<rect x="-5.6" y="425.7" class="st4" width="47.4" height="14.2"/>
					<rect x="-5.6" y="440" class="st5" width="47.4" height="14.2"/>
					<rect x="-5.6" y="454.2" class="st6" width="47.4" height="14.2"/>
					<rect x="-5.6" y="468.4" class="st7" width="47.4" height="14.2"/>
					<rect x="-5.6" y="482.6" class="st8" width="47.4" height="14.2"/>
					<rect x="-5.6" y="496.8" class="st9" width="47.4" height="14.2"/>
					<rect x="-5.6" y="511" class="st10" width="47.4" height="14.2"/>
					<rect x="-5.6" y="525.3" class="st11" width="47.4" height="14.2"/>
					<rect x="-5.6" y="539.6" class="st12" width="47.4" height="14.2"/>
					<rect x="-5.6" y="553.8" class="st13" width="47.4" height="14.2"/>
					<rect x="-5.6" y="568" class="st1" width="47.4" height="14.2"/>
					<rect x="-5.6" y="582.2" class="st2" width="47.4" height="60.2"/>
				</g>
			</g>
		</g>
	</g>
</g>
<path class="st25" d="M30.6,632.7c-0.3,3.7-6.4,8.1-11.7,8.1l0,0c-5.2,0.4-12.3-3.6-12.3-8.1V48.6c1.1-5.3,7.4-8.5,11.5-8.5l0,0
	c4.9,0,11.2,3.1,12.4,8.7V632.7L30.6,632.7z"/>
<g class="st26">
	<g class="st27">
		<g>
			<g>
				<g>
					<g>
						<defs>
							<path id="SVGID_00000103241708161780097400000016109149953131972255_" d="M18.6,575.9c-0.3,3.3-5.5,7.3-10.1,7.3l0,0
								C4,583.6-2.1,580-2.1,575.9v-526c1-4.8,6.3-7.6,10-7.6l0,0c4.2,0,9.7,2.9,10.8,7.8L18.6,575.9L18.6,575.9z"/>
						</defs>
						<clipPath id="SVGID_00000141436577491172746650000004028927422737730450_">
							<use xlink:href="#SVGID_00000103241708161780097400000016109149953131972255_"  style="overflow:visible;"/>
						</clipPath>
						
							<rect x="-7.2" y="492.4" style="clip-path:url(#SVGID_00000141436577491172746650000004028927422737730450_);fill:#FFFAFA;" width="30.9" height="96.8"/>
					</g>
				</g>
			</g>
		</g>
		<g>
			<g>
				<g>
					<g>
						<defs>
							<path id="SVGID_00000057148201194377892840000008608834127037535885_" d="M18.6,575.9c-0.3,3.3-5.5,7.3-10.1,7.3l0,0
								C4,583.6-2.1,580-2.1,575.9v-526c1-4.8,6.3-7.6,10-7.6l0,0c4.2,0,9.7,2.9,10.8,7.8L18.6,575.9L18.6,575.9z"/>
						</defs>
						<clipPath id="SVGID_00000104697957299430367450000014470133539634106771_">
							<use xlink:href="#SVGID_00000057148201194377892840000008608834127037535885_"  style="overflow:visible;"/>
						</clipPath>
						
							<rect x="-6.9" y="316.4" style="clip-path:url(#SVGID_00000104697957299430367450000014470133539634106771_);fill:#FBD5D6;" width="30.9" height="88"/>
					</g>
				</g>
			</g>
		</g>
		<g>
			<g>
				<g>
					<g>
						<defs>
							<path id="SVGID_00000127021259330957419830000004925198620708852379_" d="M18.6,575.9c-0.3,3.3-5.5,7.3-10.1,7.3l0,0
								C4,583.6-2.1,580-2.1,575.9v-526c1-4.8,6.3-7.6,10-7.6l0,0c4.2,0,9.7,2.9,10.8,7.8L18.6,575.9L18.6,575.9z"/>
						</defs>
						<clipPath id="SVGID_00000072994000085255369240000017686999024863210676_">
							<use xlink:href="#SVGID_00000127021259330957419830000004925198620708852379_"  style="overflow:visible;"/>
						</clipPath>
						
							<rect x="-6.9" y="228.4" style="clip-path:url(#SVGID_00000072994000085255369240000017686999024863210676_);fill:#F9C1C2;" width="30.9" height="88"/>
					</g>
				</g>
			</g>
		</g>
		<g>
			<g>
				<g>
					<g>
						<defs>
							<path id="SVGID_00000116213953183825077300000004780605998918948269_" d="M18.6,575.9c-0.3,3.3-5.5,7.3-10.1,7.3l0,0
								C4,583.6-2.1,580-2.1,575.9v-526c1-4.8,6.3-7.6,10-7.6l0,0c4.2,0,9.7,2.9,10.8,7.8L18.6,575.9L18.6,575.9z"/>
						</defs>
						<clipPath id="SVGID_00000148626767476093885020000013874856728605415355_">
							<use xlink:href="#SVGID_00000116213953183825077300000004780605998918948269_"  style="overflow:visible;"/>
						</clipPath>
						
							<rect x="-7.2" y="404.4" style="clip-path:url(#SVGID_00000148626767476093885020000013874856728605415355_);fill:#FDEBEB;" width="30.9" height="88"/>
					</g>
				</g>
			</g>
		</g>
		<g>
			<g>
				<g>
					<g>
						<defs>
							<path id="SVGID_00000129893975454189318960000015643310307126282115_" d="M18.6,575.9c-0.3,3.3-5.5,7.3-10.1,7.3l0,0
								C4,583.6-2.1,580-2.1,575.9v-526c1-4.8,6.3-7.6,10-7.6l0,0c4.2,0,9.7,2.9,10.8,7.8L18.6,575.9L18.6,575.9z"/>
						</defs>
						<clipPath id="SVGID_00000070081707023589999180000010591464767517546928_">
							<use xlink:href="#SVGID_00000129893975454189318960000015643310307126282115_"  style="overflow:visible;"/>
						</clipPath>
						
							<rect x="-6.9" y="140.4" style="clip-path:url(#SVGID_00000070081707023589999180000010591464767517546928_);fill:#F6ABAD;" width="30.9" height="88"/>
					</g>
				</g>
			</g>
		</g>
		<g>
			<g>
				<g>
					<g>
						<defs>
							<path id="SVGID_00000053530096817279552030000016329424022570242972_" d="M18.6,575.9c-0.3,3.3-5.5,7.3-10.1,7.3l0,0
								C4,583.6-2.1,580-2.1,575.9v-526c1-4.8,6.3-7.6,10-7.6l0,0c4.2,0,9.7,2.9,10.8,7.8L18.6,575.9L18.6,575.9z"/>
						</defs>
						<clipPath id="SVGID_00000162337260792226204570000011822196533338443672_">
							<use xlink:href="#SVGID_00000053530096817279552030000016329424022570242972_"  style="overflow:visible;"/>
						</clipPath>
						
							<rect x="-7.2" y="43.6" style="clip-path:url(#SVGID_00000162337260792226204570000011822196533338443672_);fill:#F49799;" width="30.9" height="96.8"/>
					</g>
				</g>
			</g>
		</g>
	</g>
</g>
<g class="st26">
	<g class="st27">
		<g>
			<g>
				<g>
					<defs>
						<path id="SVGID_00000018928095840668154420000000462750907134722703_" d="M18.6,575.9c0,3.6-5.8,7.9-10.4,7.9H7.6
							c-4.2,0-9.7-3.8-9.7-7.9v-526c1-4.8,6.3-7.6,10-7.6l0,0c4.2,0,9.7,2.9,10.7,7.8V575.9L18.6,575.9z"/>
					</defs>
					<clipPath id="SVGID_00000157275388354904255430000002452201872998330019_">
						<use xlink:href="#SVGID_00000018928095840668154420000000462750907134722703_"  style="overflow:visible;"/>
					</clipPath>
					
						<rect x="-12.9" y="42.3" style="clip-path:url(#SVGID_00000157275388354904255430000002452201872998330019_);fill:#C8E8F0;" width="42.3" height="26.6"/>
				</g>
			</g>
		</g>
	</g>
	<g class="st27">
		<g>
			<g>
				<g>
					<defs>
						<path id="SVGID_00000043456034474874466700000001310042305944589246_" d="M18.6,575.9c0,3.6-5.8,7.9-10.4,7.9H7.6
							c-4.2,0-9.7-3.8-9.7-7.9v-526c1-4.8,6.3-7.6,10-7.6l0,0c4.2,0,9.7,2.9,10.7,7.8V575.9L18.6,575.9z"/>
					</defs>
					<clipPath id="SVGID_00000100343915107020758950000012663552326906551998_">
						<use xlink:href="#SVGID_00000043456034474874466700000001310042305944589246_"  style="overflow:visible;"/>
					</clipPath>
					
						<rect x="-12.9" y="68.9" style="clip-path:url(#SVGID_00000100343915107020758950000012663552326906551998_);fill:#D0EBF7;" width="42.3" height="26.6"/>
				</g>
			</g>
		</g>
	</g>
	<g class="st27">
		<g>
			<g>
				<g>
					<defs>
						<path id="SVGID_00000069373824940570289790000003653684291977354931_" d="M18.6,575.9c0,3.6-5.8,7.9-10.4,7.9H7.6
							c-4.2,0-9.7-3.8-9.7-7.9v-526c1-4.8,6.3-7.6,10-7.6l0,0c4.2,0,9.7,2.9,10.7,7.8V575.9L18.6,575.9z"/>
					</defs>
					<clipPath id="SVGID_00000111892019756158177400000001602213419044735640_">
						<use xlink:href="#SVGID_00000069373824940570289790000003653684291977354931_"  style="overflow:visible;"/>
					</clipPath>
					
						<rect x="-12.9" y="95" style="clip-path:url(#SVGID_00000111892019756158177400000001602213419044735640_);fill:#4898DA;" width="42.3" height="26.6"/>
				</g>
			</g>
		</g>
	</g>
	<g class="st27">
		<g>
			<g>
				<g>
					<defs>
						<path id="SVGID_00000101071774256264638000000017069952619177409160_" d="M18.6,575.9c0,3.6-5.8,7.9-10.4,7.9H7.6
							c-4.2,0-9.7-3.8-9.7-7.9v-526c1-4.8,6.3-7.6,10-7.6l0,0c4.2,0,9.7,2.9,10.7,7.8V575.9L18.6,575.9z"/>
					</defs>
					<clipPath id="SVGID_00000082338943889495080790000003462881317439894146_">
						<use xlink:href="#SVGID_00000101071774256264638000000017069952619177409160_"  style="overflow:visible;"/>
					</clipPath>
					
						<rect x="-12.9" y="121.6" style="clip-path:url(#SVGID_00000082338943889495080790000003462881317439894146_);fill:#A3A5D7;" width="42.3" height="26.6"/>
				</g>
			</g>
		</g>
	</g>
	<g class="st27">
		<g>
			<g>
				<g>
					<defs>
						<path id="SVGID_00000013877734171889629190000014190193329682486666_" d="M18.6,575.9c0,3.6-5.8,7.9-10.4,7.9H7.6
							c-4.2,0-9.7-3.8-9.7-7.9v-526c1-4.8,6.3-7.6,10-7.6l0,0c4.2,0,9.7,2.9,10.7,7.8V575.9L18.6,575.9z"/>
					</defs>
					<clipPath id="SVGID_00000002382926746920828630000015065542007436354229_">
						<use xlink:href="#SVGID_00000013877734171889629190000014190193329682486666_"  style="overflow:visible;"/>
					</clipPath>
					
						<rect x="-12.9" y="148.2" style="clip-path:url(#SVGID_00000002382926746920828630000015065542007436354229_);fill:#B988C1;" width="42.3" height="26.6"/>
				</g>
			</g>
		</g>
	</g>
	<g class="st27">
		<g>
			<g>
				<g>
					<defs>
						<path id="SVGID_00000183214488548680385030000003401839065174448799_" d="M18.6,575.9c0,3.6-5.8,7.9-10.4,7.9H7.6
							c-4.2,0-9.7-3.8-9.7-7.9v-526c1-4.8,6.3-7.6,10-7.6l0,0c4.2,0,9.7,2.9,10.7,7.8V575.9L18.6,575.9z"/>
					</defs>
					<clipPath id="SVGID_00000088827434900228215960000016557767529616714145_">
						<use xlink:href="#SVGID_00000183214488548680385030000003401839065174448799_"  style="overflow:visible;"/>
					</clipPath>
					
						<rect x="-12.9" y="174.9" style="clip-path:url(#SVGID_00000088827434900228215960000016557767529616714145_);fill:#D7A2CD;" width="42.3" height="26.6"/>
				</g>
			</g>
		</g>
	</g>
	<g class="st27">
		<g>
			<g>
				<g>
					<defs>
						<path id="SVGID_00000020386082943403303690000006685636848248348331_" d="M18.6,575.9c0,3.6-5.8,7.9-10.4,7.9H7.6
							c-4.2,0-9.7-3.8-9.7-7.9v-526c1-4.8,6.3-7.6,10-7.6l0,0c4.2,0,9.7,2.9,10.7,7.8V575.9L18.6,575.9z"/>
					</defs>
					<clipPath id="SVGID_00000172406360936339264600000015036479420896744096_">
						<use xlink:href="#SVGID_00000020386082943403303690000006685636848248348331_"  style="overflow:visible;"/>
					</clipPath>
					
						<rect x="-12.9" y="201.1" style="clip-path:url(#SVGID_00000172406360936339264600000015036479420896744096_);fill:#E8BEDB;" width="42.3" height="26.6"/>
				</g>
			</g>
		</g>
	</g>
	<g class="st27">
		<g>
			<g>
				<g>
					<defs>
						<path id="SVGID_00000036942162055987012140000017519354289782234012_" d="M18.6,575.9c0,3.6-5.8,7.9-10.4,7.9H7.6
							c-4.2,0-9.7-3.8-9.7-7.9v-526c1-4.8,6.3-7.6,10-7.6l0,0c4.2,0,9.7,2.9,10.7,7.8V575.9L18.6,575.9z"/>
					</defs>
					<clipPath id="SVGID_00000173842074316463861560000003890730526614187707_">
						<use xlink:href="#SVGID_00000036942162055987012140000017519354289782234012_"  style="overflow:visible;"/>
					</clipPath>
					
						<rect x="-12.9" y="227.8" style="clip-path:url(#SVGID_00000173842074316463861560000003890730526614187707_);fill:#E67D9B;" width="42.3" height="26.6"/>
				</g>
			</g>
		</g>
	</g>
	<g class="st27">
		<g>
			<g>
				<g>
					<defs>
						<path id="SVGID_00000069391518359796453440000006719688802671433889_" d="M18.6,575.9c0,3.6-5.8,7.9-10.4,7.9H7.6
							c-4.2,0-9.7-3.8-9.7-7.9v-526c1-4.8,6.3-7.6,10-7.6l0,0c4.2,0,9.7,2.9,10.7,7.8V575.9L18.6,575.9z"/>
					</defs>
					<clipPath id="SVGID_00000083062657749871891680000004929232898464980139_">
						<use xlink:href="#SVGID_00000069391518359796453440000006719688802671433889_"  style="overflow:visible;"/>
					</clipPath>
					
						<rect x="-12.9" y="254.4" style="clip-path:url(#SVGID_00000083062657749871891680000004929232898464980139_);fill:#DB4C4D;" width="42.3" height="26.6"/>
				</g>
			</g>
		</g>
	</g>
	<g class="st27">
		<g>
			<g>
				<g>
					<defs>
						<path id="SVGID_00000082340605822695382160000001067213902163698109_" d="M18.6,575.9c0,3.6-5.8,7.9-10.4,7.9H7.6
							c-4.2,0-9.7-3.8-9.7-7.9v-526c1-4.8,6.3-7.6,10-7.6l0,0c4.2,0,9.7,2.9,10.7,7.8V575.9L18.6,575.9z"/>
					</defs>
					<clipPath id="SVGID_00000056407101474807196730000008169611886426722997_">
						<use xlink:href="#SVGID_00000082340605822695382160000001067213902163698109_"  style="overflow:visible;"/>
					</clipPath>
					
						<rect x="-12.9" y="281" style="clip-path:url(#SVGID_00000056407101474807196730000008169611886426722997_);fill:#EF5A5C;" width="42.3" height="26.6"/>
				</g>
			</g>
		</g>
	</g>
	<g class="st27">
		<g>
			<g>
				<g>
					<defs>
						<path id="SVGID_00000000915859566813990810000010687631945514319519_" d="M18.6,575.9c0,3.6-5.8,7.9-10.4,7.9H7.6
							c-4.2,0-9.7-3.8-9.7-7.9v-526c1-4.8,6.3-7.6,10-7.6l0,0c4.2,0,9.7,2.9,10.7,7.8V575.9L18.6,575.9z"/>
					</defs>
					<clipPath id="SVGID_00000011715879989280027800000005522185990032456594_">
						<use xlink:href="#SVGID_00000000915859566813990810000010687631945514319519_"  style="overflow:visible;"/>
					</clipPath>
					
						<rect x="-12.9" y="307.3" style="clip-path:url(#SVGID_00000011715879989280027800000005522185990032456594_);fill:#F7A25C;" width="42.3" height="26.6"/>
				</g>
			</g>
		</g>
	</g>
	<g class="st27">
		<g>
			<g>
				<g>
					<defs>
						<path id="SVGID_00000031920892353860667420000004604792258380127153_" d="M18.6,575.9c0,3.6-5.8,7.9-10.4,7.9H7.6
							c-4.2,0-9.7-3.8-9.7-7.9v-526c1-4.8,6.3-7.6,10-7.6l0,0c4.2,0,9.7,2.9,10.7,7.8V575.9L18.6,575.9z"/>
					</defs>
					<clipPath id="SVGID_00000173840538650799259940000012349257894220026270_">
						<use xlink:href="#SVGID_00000031920892353860667420000004604792258380127153_"  style="overflow:visible;"/>
					</clipPath>
					
						<rect x="-12.9" y="333.9" style="clip-path:url(#SVGID_00000173840538650799259940000012349257894220026270_);fill:#FDD58F;" width="42.3" height="26.6"/>
				</g>
			</g>
		</g>
	</g>
	<g class="st27">
		<g>
			<g>
				<g>
					<defs>
						<path id="SVGID_00000168839044971815800660000003551674723501521312_" d="M18.6,575.9c0,3.6-5.8,7.9-10.4,7.9H7.6
							c-4.2,0-9.7-3.8-9.7-7.9v-526c1-4.8,6.3-7.6,10-7.6l0,0c4.2,0,9.7,2.9,10.7,7.8V575.9L18.6,575.9z"/>
					</defs>
					<clipPath id="SVGID_00000004505159601760377530000008697955474149264039_">
						<use xlink:href="#SVGID_00000168839044971815800660000003551674723501521312_"  style="overflow:visible;"/>
					</clipPath>
					
						<rect x="-12.9" y="360.5" style="clip-path:url(#SVGID_00000004505159601760377530000008697955474149264039_);fill:#FFE173;" width="42.3" height="26.6"/>
				</g>
			</g>
		</g>
	</g>
	<g class="st27">
		<g>
			<g>
				<g>
					<defs>
						<path id="SVGID_00000031892954234724463820000011528481923630447770_" d="M18.6,575.9c0,3.6-5.8,7.9-10.4,7.9H7.6
							c-4.2,0-9.7-3.8-9.7-7.9v-526c1-4.8,6.3-7.6,10-7.6l0,0c4.2,0,9.7,2.9,10.7,7.8V575.9L18.6,575.9z"/>
					</defs>
					<clipPath id="SVGID_00000022539115444303780030000002313056806090277526_">
						<use xlink:href="#SVGID_00000031892954234724463820000011528481923630447770_"  style="overflow:visible;"/>
					</clipPath>
					
						<rect x="-12.9" y="387.1" style="clip-path:url(#SVGID_00000022539115444303780030000002313056806090277526_);fill:#FEFE82;" width="42.3" height="26.6"/>
				</g>
			</g>
		</g>
	</g>
	<g class="st27">
		<g>
			<g>
				<g>
					<defs>
						<path id="SVGID_00000043423976769686570620000001737987001194032826_" d="M18.6,575.9c0,3.6-5.8,7.9-10.4,7.9H7.6
							c-4.2,0-9.7-3.8-9.7-7.9v-526c1-4.8,6.3-7.6,10-7.6l0,0c4.2,0,9.7,2.9,10.7,7.8V575.9L18.6,575.9z"/>
					</defs>
					<clipPath id="SVGID_00000053510653061268262650000009722494611802577297_">
						<use xlink:href="#SVGID_00000043423976769686570620000001737987001194032826_"  style="overflow:visible;"/>
					</clipPath>
					
						<rect x="-12.9" y="413.4" style="clip-path:url(#SVGID_00000053510653061268262650000009722494611802577297_);fill:#FFFFC7;" width="42.3" height="26.6"/>
				</g>
			</g>
		</g>
	</g>
	<g class="st27">
		<g>
			<g>
				<g>
					<defs>
						<path id="SVGID_00000036959794054538513370000016637762885315700642_" d="M18.6,575.9c0,3.6-5.8,7.9-10.4,7.9H7.6
							c-4.2,0-9.7-3.8-9.7-7.9v-526c1-4.8,6.3-7.6,10-7.6l0,0c4.2,0,9.7,2.9,10.7,7.8V575.9L18.6,575.9z"/>
					</defs>
					<clipPath id="SVGID_00000077321252110098067780000014557641391794084268_">
						<use xlink:href="#SVGID_00000036959794054538513370000016637762885315700642_"  style="overflow:visible;"/>
					</clipPath>
					
						<rect x="-12.9" y="440" style="clip-path:url(#SVGID_00000077321252110098067780000014557641391794084268_);fill:#F3F3A1;" width="42.3" height="26.6"/>
				</g>
			</g>
		</g>
	</g>
	<g class="st27">
		<g>
			<g>
				<g>
					<defs>
						<path id="SVGID_00000119822959316776012440000014203558817171861917_" d="M18.6,575.9c0,3.6-5.8,7.9-10.4,7.9H7.6
							c-4.2,0-9.7-3.8-9.7-7.9v-526c1-4.8,6.3-7.6,10-7.6l0,0c4.2,0,9.7,2.9,10.7,7.8V575.9L18.6,575.9z"/>
					</defs>
					<clipPath id="SVGID_00000037680539736960161240000006722095746063444617_">
						<use xlink:href="#SVGID_00000119822959316776012440000014203558817171861917_"  style="overflow:visible;"/>
					</clipPath>
					
						<rect x="-12.9" y="466.7" style="clip-path:url(#SVGID_00000037680539736960161240000006722095746063444617_);fill:#D3ECA4;" width="42.3" height="26.6"/>
				</g>
			</g>
		</g>
	</g>
	<g class="st27">
		<g>
			<g>
				<g>
					<defs>
						<path id="SVGID_00000142166376729202516090000000645238510458458046_" d="M18.6,575.9c0,3.6-5.8,7.9-10.4,7.9H7.6
							c-4.2,0-9.7-3.8-9.7-7.9v-526c1-4.8,6.3-7.6,10-7.6l0,0c4.2,0,9.7,2.9,10.7,7.8V575.9L18.6,575.9z"/>
					</defs>
					<clipPath id="SVGID_00000069397231313714463050000000699860886221044383_">
						<use xlink:href="#SVGID_00000142166376729202516090000000645238510458458046_"  style="overflow:visible;"/>
					</clipPath>
					
						<rect x="-12.9" y="493.3" style="clip-path:url(#SVGID_00000069397231313714463050000000699860886221044383_);fill:#C3E6D8;" width="42.3" height="26.6"/>
				</g>
			</g>
		</g>
	</g>
	<g class="st27">
		<g>
			<g>
				<g>
					<defs>
						<path id="SVGID_00000042695537986440114610000004545825647925809330_" d="M18.6,575.9c0,3.6-5.8,7.9-10.4,7.9H7.6
							c-4.2,0-9.7-3.8-9.7-7.9v-526c1-4.8,6.3-7.6,10-7.6l0,0c4.2,0,9.7,2.9,10.7,7.8V575.9L18.6,575.9z"/>
					</defs>
					<clipPath id="SVGID_00000080901494596982249270000002280270330305822108_">
						<use xlink:href="#SVGID_00000042695537986440114610000004545825647925809330_"  style="overflow:visible;"/>
					</clipPath>
					
						<rect x="-12.9" y="519.9" style="clip-path:url(#SVGID_00000080901494596982249270000002280270330305822108_);fill:#C8E8F0;" width="42.3" height="26.6"/>
				</g>
			</g>
		</g>
	</g>
	<g class="st27">
		<g>
			<g>
				<g>
					<defs>
						<path id="SVGID_00000032613804895771156720000000216991664090441370_" d="M18.6,575.9c0,3.6-5.8,7.9-10.4,7.9H7.6
							c-4.2,0-9.7-3.8-9.7-7.9v-526c1-4.8,6.3-7.6,10-7.6l0,0c4.2,0,9.7,2.9,10.7,7.8V575.9L18.6,575.9z"/>
					</defs>
					<clipPath id="SVGID_00000093140309196737401310000000142289696078832281_">
						<use xlink:href="#SVGID_00000032613804895771156720000000216991664090441370_"  style="overflow:visible;"/>
					</clipPath>
					
						<rect x="-12.9" y="546.5" style="clip-path:url(#SVGID_00000093140309196737401310000000142289696078832281_);fill:#D0EBF7;" width="42.3" height="40.2"/>
				</g>
			</g>
		</g>
	</g>
</g>
<g class="st26">
	<g class="st27">
		<g>
			<g>
				<g>
					<g>
						<defs>
							<path id="SVGID_00000053509558604595998680000013913250035505772174_" d="M18.4,576.1c-0.3,3.3-5.5,7.3-10.1,7.3l0,0
								c-4.5,0.4-10.6-3.2-10.6-7.3v-526c1-4.8,6.3-7.6,10-7.6l0,0c4.2,0,9.7,2.9,10.8,7.8L18.4,576.1L18.4,576.1z"/>
						</defs>
						<clipPath id="SVGID_00000013888784267207633390000001524149324728919479_">
							<use xlink:href="#SVGID_00000053509558604595998680000013913250035505772174_"  style="overflow:visible;"/>
						</clipPath>
						
							<rect x="-7.4" y="491.2" style="clip-path:url(#SVGID_00000013888784267207633390000001524149324728919479_);fill:#EC2426;" width="30.9" height="96.8"/>
					</g>
				</g>
			</g>
		</g>
		<g>
			<g>
				<g>
					<g>
						<defs>
							<path id="SVGID_00000035491749740801936300000017995345838524574120_" d="M18.4,576.1c-0.3,3.3-5.5,7.3-10.1,7.3l0,0
								c-4.5,0.4-10.6-3.2-10.6-7.3v-526c1-4.8,6.3-7.6,10-7.6l0,0c4.2,0,9.7,2.9,10.8,7.8L18.4,576.1L18.4,576.1z"/>
						</defs>
						<clipPath id="SVGID_00000126317124633882378070000010310822036518798997_">
							<use xlink:href="#SVGID_00000035491749740801936300000017995345838524574120_"  style="overflow:visible;"/>
						</clipPath>
						
							<rect x="-7.1" y="315.2" style="clip-path:url(#SVGID_00000126317124633882378070000010310822036518798997_);fill:#FCFC1E;" width="30.9" height="88"/>
					</g>
				</g>
			</g>
		</g>
		<g>
			<g>
				<g>
					<g>
						<defs>
							<path id="SVGID_00000093868970336223661320000009995172732473818277_" d="M18.4,576.1c-0.3,3.3-5.5,7.3-10.1,7.3l0,0
								c-4.5,0.4-10.6-3.2-10.6-7.3v-526c1-4.8,6.3-7.6,10-7.6l0,0c4.2,0,9.7,2.9,10.8,7.8L18.4,576.1L18.4,576.1z"/>
						</defs>
						<clipPath id="SVGID_00000057112414924964759490000002299560492680851587_">
							<use xlink:href="#SVGID_00000093868970336223661320000009995172732473818277_"  style="overflow:visible;"/>
						</clipPath>
						
							<rect x="-7.1" y="227.2" style="clip-path:url(#SVGID_00000057112414924964759490000002299560492680851587_);fill:#0B7F3F;" width="30.9" height="88"/>
					</g>
				</g>
			</g>
		</g>
		<g>
			<g>
				<g>
					<g>
						<defs>
							<path id="SVGID_00000075120930893702817900000004513731753642577549_" d="M18.4,576.1c-0.3,3.3-5.5,7.3-10.1,7.3l0,0
								c-4.5,0.4-10.6-3.2-10.6-7.3v-526c1-4.8,6.3-7.6,10-7.6l0,0c4.2,0,9.7,2.9,10.8,7.8L18.4,576.1L18.4,576.1z"/>
						</defs>
						<clipPath id="SVGID_00000082331614307605985630000003927747399662745992_">
							<use xlink:href="#SVGID_00000075120930893702817900000004513731753642577549_"  style="overflow:visible;"/>
						</clipPath>
						
							<rect x="-7.4" y="403.2" style="clip-path:url(#SVGID_00000082331614307605985630000003927747399662745992_);fill:#F7A426;" width="30.9" height="88"/>
					</g>
				</g>
			</g>
		</g>
		<g>
			<g>
				<g>
					<g>
						<defs>
							<path id="SVGID_00000038413397308291309340000009136177866375261848_" d="M18.4,576.1c-0.3,3.3-5.5,7.3-10.1,7.3l0,0
								c-4.5,0.4-10.6-3.2-10.6-7.3v-526c1-4.8,6.3-7.6,10-7.6l0,0c4.2,0,9.7,2.9,10.8,7.8L18.4,576.1L18.4,576.1z"/>
						</defs>
						<clipPath id="SVGID_00000156585723362118971420000015169522530740986270_">
							<use xlink:href="#SVGID_00000038413397308291309340000009136177866375261848_"  style="overflow:visible;"/>
						</clipPath>
						
							<rect x="-7.1" y="139.2" style="clip-path:url(#SVGID_00000156585723362118971420000015169522530740986270_);fill:#6FC9DC;" width="30.9" height="88"/>
					</g>
				</g>
			</g>
		</g>
		<g>
			<g>
				<g>
					<g>
						<defs>
							<path id="SVGID_00000036218327448530050150000014266659614229991048_" d="M18.4,576.1c-0.3,3.3-5.5,7.3-10.1,7.3l0,0
								c-4.5,0.4-10.6-3.2-10.6-7.3v-526c1-4.8,6.3-7.6,10-7.6l0,0c4.2,0,9.7,2.9,10.8,7.8L18.4,576.1L18.4,576.1z"/>
						</defs>
						<clipPath id="SVGID_00000068638602836222592250000013020669450359774873_">
							<use xlink:href="#SVGID_00000036218327448530050150000014266659614229991048_"  style="overflow:visible;"/>
						</clipPath>
						
							<rect x="-7.1" y="42.4" style="clip-path:url(#SVGID_00000068638602836222592250000013020669450359774873_);fill:#3F57B0;" width="30.9" height="96.8"/>
					</g>
				</g>
			</g>
		</g>
	</g>
</g>
<circle class="st60" cx="8" cy="23.8" r="14.6"/>
<path class="st61" d="M18.4,576.1c-0.3,3.3-5.5,7.3-10.1,7.3l0,0c-4.5,0.4-10.6-3.2-10.6-7.3v-526c1-4.8,6.3-7.6,10-7.6l0,0
	c4.2,0,9.7,2.9,10.8,7.8L18.4,576.1L18.4,576.1z"/>
<g class="st26">
	<path class="st62" d="M3.4,574.6c-0.4-0.5-0.6-1-0.6-1.8c0-0.7,0.2-1.3,0.6-1.8s0.9-0.7,1.5-0.7s1.1,0.2,1.5,0.7
		c0.4,0.4,0.6,1,0.6,1.8s-0.2,1.3-0.6,1.8c-0.4,0.4-0.9,0.7-1.5,0.7S3.8,575.1,3.4,574.6z M5.7,574c0.2-0.3,0.3-0.7,0.3-1.1
		c0-0.5-0.1-0.9-0.3-1.1c-0.2-0.3-0.5-0.4-0.8-0.4s-0.6,0.1-0.8,0.4c-0.2,0.3-0.3,0.7-0.3,1.1c0,0.5,0.1,0.9,0.3,1.1
		c0.2,0.3,0.5,0.4,0.8,0.4C5.3,574.4,5.5,574.3,5.7,574z M10.2,570.5h1.2l-6.1,8.9H4.2L10.2,570.5z M9.2,578.8
		c-0.4-0.5-0.6-1-0.6-1.8c0-0.7,0.2-1.3,0.6-1.8c0.4-0.4,0.9-0.7,1.5-0.7s1.1,0.2,1.5,0.7c0.4,0.4,0.6,1,0.6,1.8
		c0,0.7-0.2,1.3-0.6,1.8c-0.4,0.4-0.9,0.7-1.5,0.7S9.6,579.3,9.2,578.8z M11.5,578.2c0.2-0.3,0.3-0.7,0.3-1.1c0-0.5-0.1-0.9-0.3-1.1
		c-0.2-0.3-0.5-0.4-0.8-0.4c-0.3,0-0.6,0.1-0.8,0.4c-0.2,0.3-0.3,0.7-0.3,1.1c0,0.5,0.1,0.9,0.3,1.1c0.2,0.3,0.5,0.4,0.8,0.4
		C11.1,578.6,11.3,578.5,11.5,578.2z"/>
</g>
<g class="st26">
	<path class="st62" d="M6.9,530.4c0.4,0.3,0.6,0.7,0.6,1.2c0,0.3-0.1,0.6-0.2,0.9c-0.2,0.3-0.4,0.5-0.7,0.6
		c-0.3,0.2-0.7,0.2-1.2,0.2c-0.4,0-0.8-0.1-1.1-0.2c-0.4-0.1-0.7-0.3-0.9-0.5l0.4-0.8c0.2,0.2,0.4,0.3,0.7,0.4
		c0.3,0.1,0.6,0.1,0.9,0.1c0.4,0,0.6-0.1,0.8-0.2c0.2-0.1,0.3-0.4,0.3-0.6c0-0.3-0.1-0.5-0.3-0.6s-0.6-0.2-1.1-0.2H3.6l0.3-3h3.2
		v0.9H4.7l-0.1,1.3h0.5C5.9,529.9,6.5,530.1,6.9,530.4z"/>
	<path class="st62" d="M9.1,533c-0.3-0.2-0.6-0.5-0.8-1c-0.2-0.4-0.3-0.9-0.3-1.5s0.1-1.1,0.3-1.5s0.5-0.8,0.8-1s0.7-0.3,1.2-0.3
		c0.4,0,0.8,0.1,1.2,0.3c0.3,0.2,0.6,0.5,0.8,1c0.2,0.4,0.3,0.9,0.3,1.5s-0.1,1.1-0.3,1.5c-0.2,0.4-0.5,0.7-0.8,1
		c-0.3,0.2-0.7,0.3-1.2,0.3C9.8,533.3,9.5,533.2,9.1,533z M11.2,532c0.2-0.3,0.3-0.8,0.3-1.4c0-0.6-0.1-1.1-0.3-1.4
		c-0.2-0.3-0.5-0.5-0.9-0.5s-0.7,0.2-0.9,0.5s-0.3,0.8-0.3,1.4c0,0.6,0.1,1.1,0.3,1.4s0.5,0.5,0.9,0.5S11,532.3,11.2,532z"/>
</g>
<g class="st26">
	<path class="st62" d="M6.8,449c0.3,0.1,0.5,0.3,0.7,0.6c0.2,0.3,0.2,0.6,0.2,0.9c0,0.4-0.1,0.7-0.3,0.9c-0.2,0.3-0.4,0.5-0.7,0.6
		s-0.6,0.2-1,0.2c-0.8,0-1.3-0.2-1.7-0.7s-0.6-1.1-0.6-2c0-0.6,0.1-1.1,0.3-1.6c0.2-0.4,0.5-0.8,0.9-1s0.9-0.3,1.4-0.3
		c0.3,0,0.5,0,0.8,0.1c0.2,0.1,0.5,0.1,0.6,0.3L7,447.8c-0.3-0.2-0.6-0.3-1-0.3c-0.5,0-0.9,0.2-1.2,0.5s-0.4,0.8-0.4,1.4l0,0
		c0.2-0.2,0.4-0.3,0.6-0.4c0.3-0.1,0.5-0.1,0.8-0.1C6.2,448.8,6.5,448.9,6.8,449z M6.4,451.2c0.2-0.2,0.3-0.4,0.3-0.7
		c0-0.3-0.1-0.5-0.3-0.7s-0.5-0.3-0.8-0.3s-0.6,0.1-0.8,0.3c-0.2,0.2-0.3,0.4-0.3,0.7c0,0.3,0.1,0.5,0.3,0.7s0.5,0.3,0.8,0.3
		C6,451.5,6.2,451.4,6.4,451.2z"/>
	<path class="st62" d="M9.4,452c-0.3-0.2-0.6-0.5-0.8-1c-0.2-0.4-0.3-0.9-0.3-1.5s0.1-1.1,0.3-1.5s0.5-0.8,0.8-1s0.7-0.3,1.2-0.3
		c0.4,0,0.8,0.1,1.2,0.3c0.3,0.2,0.6,0.5,0.8,1c0.2,0.4,0.3,0.9,0.3,1.5s-0.1,1.1-0.3,1.5c-0.2,0.4-0.5,0.7-0.8,1
		c-0.3,0.2-0.7,0.3-1.2,0.3S9.7,452.2,9.4,452z M11.5,450.9c0.2-0.3,0.3-0.8,0.3-1.4s-0.1-1.1-0.3-1.4c-0.2-0.3-0.5-0.5-0.9-0.5
		s-0.7,0.2-0.9,0.5s-0.3,0.8-0.3,1.4s0.1,1.1,0.3,1.4s0.5,0.5,0.9,0.5C10.9,451.4,11.2,451.2,11.5,450.9z"/>
</g>
<g class="st26">
	<path class="st62" d="M7.8,358v0.7l-2.1,4.8H4.5l2.1-4.6H4.4v0.9H3.5V358H7.8L7.8,358z"/>
	<path class="st62" d="M9.3,363.2c-0.3-0.2-0.6-0.5-0.8-1c-0.2-0.4-0.3-0.9-0.3-1.5s0.1-1.1,0.3-1.5s0.5-0.7,0.8-1
		c0.3-0.2,0.7-0.3,1.2-0.3c0.4,0,0.8,0.1,1.2,0.3c0.3,0.2,0.6,0.5,0.8,1c0.2,0.4,0.3,0.9,0.3,1.5s-0.1,1.1-0.3,1.5
		c-0.2,0.4-0.5,0.7-0.8,1c-0.3,0.2-0.7,0.3-1.2,0.3C10.1,363.6,9.7,363.4,9.3,363.2z M11.4,362.2c0.2-0.3,0.3-0.8,0.3-1.4
		s-0.1-1.1-0.3-1.4c-0.2-0.3-0.5-0.5-0.9-0.5s-0.7,0.2-0.9,0.5s-0.3,0.8-0.3,1.4s0.1,1.1,0.3,1.4s0.5,0.5,0.9,0.5
		S11.2,362.5,11.4,362.2z"/>
</g>
<g class="st26">
	<path class="st62" d="M7.6,264.4c0.2,0.2,0.2,0.5,0.2,0.8s-0.1,0.6-0.3,0.9s-0.4,0.4-0.8,0.6s-0.7,0.2-1.2,0.2
		c-0.4,0-0.8-0.1-1.2-0.2c-0.3-0.1-0.6-0.3-0.8-0.6c-0.2-0.3-0.3-0.5-0.3-0.9c0-0.3,0.1-0.6,0.2-0.8c0.2-0.2,0.4-0.4,0.6-0.5
		c-0.2-0.1-0.4-0.3-0.5-0.5s-0.2-0.4-0.2-0.7c0-0.3,0.1-0.6,0.3-0.8c0.2-0.2,0.4-0.4,0.7-0.5s0.7-0.2,1.1-0.2c0.4,0,0.8,0.1,1.1,0.2
		s0.5,0.3,0.7,0.5s0.3,0.5,0.3,0.8s-0.1,0.5-0.2,0.7c-0.1,0.2-0.3,0.4-0.5,0.5C7.2,264,7.4,264.1,7.6,264.4z M6.5,265.8
		c0.2-0.2,0.3-0.4,0.3-0.6c0-0.3-0.1-0.5-0.3-0.6c-0.2-0.2-0.5-0.2-0.9-0.2s-0.7,0.1-0.9,0.2c-0.2,0.2-0.3,0.4-0.3,0.6
		c0,0.3,0.1,0.5,0.3,0.6c0.2,0.2,0.5,0.2,0.9,0.2C5.9,266,6.2,265.9,6.5,265.8z M4.8,262.2c-0.2,0.1-0.3,0.3-0.3,0.6
		c0,0.2,0.1,0.4,0.3,0.6c0.2,0.1,0.4,0.2,0.8,0.2c0.3,0,0.6-0.1,0.8-0.2s0.3-0.3,0.3-0.6c0-0.2-0.1-0.4-0.3-0.6
		C6.2,262.1,6,262,5.6,262S5,262,4.8,262.2z"/>
	<path class="st62" d="M9.6,266.5c-0.3-0.2-0.6-0.5-0.8-1c-0.2-0.4-0.3-0.9-0.3-1.5s0.1-1.1,0.3-1.5s0.5-0.7,0.8-1
		c0.3-0.2,0.7-0.3,1.2-0.3c0.4,0,0.8,0.1,1.2,0.3c0.3,0.2,0.6,0.5,0.8,1s0.3,0.9,0.3,1.5s-0.1,1.1-0.3,1.5c-0.2,0.4-0.5,0.7-0.8,1
		s-0.7,0.3-1.2,0.3C10.3,266.8,9.9,266.7,9.6,266.5z M11.7,265.4c0.2-0.3,0.3-0.8,0.3-1.4s-0.1-1.1-0.3-1.4
		c-0.2-0.3-0.5-0.5-0.9-0.5s-0.7,0.2-0.9,0.5s-0.3,0.8-0.3,1.4s0.1,1.1,0.3,1.4s0.5,0.5,0.9,0.5C11.1,265.9,11.5,265.8,11.7,265.4z"
		/>
</g>
<g class="st26">
	<path class="st62" d="M7.1,181.5c0.4,0.5,0.6,1.1,0.6,2c0,0.6-0.1,1.1-0.3,1.6c-0.2,0.4-0.5,0.8-0.9,1s-0.9,0.3-1.4,0.3
		c-0.3,0-0.5,0-0.8-0.1c-0.2-0.1-0.5-0.1-0.6-0.3l0.4-0.8c0.3,0.2,0.6,0.3,1,0.3c0.5,0,0.9-0.2,1.2-0.5s0.4-0.8,0.4-1.4l0,0
		c-0.2,0.2-0.4,0.3-0.6,0.4c-0.3,0.1-0.5,0.1-0.8,0.1c-0.4,0-0.7-0.1-1-0.2c-0.3-0.1-0.5-0.3-0.7-0.6s-0.2-0.6-0.2-0.9
		c0-0.4,0.1-0.7,0.3-0.9c0.2-0.3,0.4-0.5,0.7-0.6s0.6-0.2,1-0.2C6.1,180.7,6.7,181,7.1,181.5z M6.2,183.1c0.2-0.2,0.3-0.4,0.3-0.7
		s-0.1-0.5-0.3-0.7s-0.5-0.3-0.8-0.3s-0.6,0.1-0.8,0.3s-0.3,0.4-0.3,0.7s0.1,0.5,0.3,0.7s0.5,0.3,0.8,0.3
		C5.7,183.4,6,183.3,6.2,183.1z"/>
	<path class="st62" d="M9.5,186c-0.3-0.2-0.6-0.5-0.8-1c-0.2-0.4-0.3-0.9-0.3-1.5s0.1-1.1,0.3-1.5s0.5-0.7,0.8-1
		c0.3-0.2,0.7-0.3,1.2-0.3c0.4,0,0.8,0.1,1.2,0.3c0.3,0.2,0.6,0.5,0.8,1c0.2,0.4,0.3,0.9,0.3,1.5s-0.1,1.1-0.3,1.5
		c-0.2,0.4-0.5,0.7-0.8,1c-0.3,0.2-0.7,0.3-1.2,0.3C10.2,186.4,9.8,186.3,9.5,186z M11.6,185c0.2-0.3,0.3-0.8,0.3-1.4
		c0-0.6-0.1-1.1-0.3-1.4c-0.2-0.3-0.5-0.5-0.9-0.5s-0.7,0.2-0.9,0.5s-0.3,0.8-0.3,1.4c0,0.6,0.1,1.1,0.3,1.4
		c0.2,0.3,0.5,0.5,0.9,0.5C11,185.5,11.4,185.3,11.6,185z"/>
</g>
<g class="st26">
	<path class="st62" d="M3.7,83.8v5.5h-1v-4.6H1.5v-0.9H3.7z"/>
	<path class="st62" d="M5.9,89c-0.3-0.2-0.6-0.5-0.8-1c-0.2-0.4-0.3-0.9-0.3-1.5s0.1-1.1,0.3-1.5s0.5-0.7,0.8-1
		c0.3-0.2,0.7-0.3,1.2-0.3c0.4,0,0.8,0.1,1.2,0.3c0.3,0.2,0.6,0.5,0.8,1c0.2,0.4,0.3,0.9,0.3,1.5S9.3,87.6,9.1,88s-0.5,0.7-0.8,1
		c-0.3,0.2-0.7,0.3-1.2,0.3C6.6,89.4,6.2,89.3,5.9,89z M8,88c0.2-0.3,0.3-0.8,0.3-1.4S8.2,85.5,8,85.2s-0.5-0.5-0.9-0.5
		s-0.7,0.2-0.9,0.5S5.9,86,5.9,86.6S6,87.7,6.2,88s0.5,0.5,0.9,0.5S7.8,88.3,8,88z"/>
	<path class="st62" d="M11.2,89c-0.3-0.2-0.6-0.5-0.8-1c-0.2-0.4-0.3-0.9-0.3-1.5s0.1-1.1,0.3-1.5s0.5-0.7,0.8-1
		c0.3-0.2,0.7-0.3,1.2-0.3c0.4,0,0.8,0.1,1.2,0.3s0.6,0.5,0.8,1s0.2,1,0.2,1.5s-0.1,1.1-0.3,1.5c-0.2,0.4-0.5,0.7-0.8,1
		c-0.3,0.2-0.7,0.3-1.2,0.3C11.9,89.4,11.5,89.3,11.2,89z M13.3,88c0.2-0.3,0.3-0.8,0.3-1.4s-0.1-1.1-0.3-1.4
		c-0.2-0.3-0.5-0.5-0.9-0.5s-0.7,0.2-0.9,0.5c-0.2,0.3-0.3,0.8-0.3,1.4s0.1,1.1,0.3,1.4c0.2,0.3,0.5,0.5,0.9,0.5
		C12.7,88.5,13,88.3,13.3,88z"/>
</g>
<g class="st26">
	<path class="st63" d="M1.7,30.5h12.4c2.6,0,4.8-1.8,5.3-4.2c0.3-1.6-0.1-3.2-1.1-4.4c-0.9-1-2.1-1.7-3.4-1.9v-1.2
		c0-4.2-3.8-7.5-7.9-7c-3.5,0.4-6.2,3.5-6.2,7.3V20c-1.1,0.1-2.2,0.7-3,1.5c-1.2,1.2-1.7,2.9-1.5,4.6C-3.2,28.5-0.8,30.5,1.7,30.5z
		 M-1.2,22.5c0.7-0.7,1.7-1.1,2.7-1.1c0.4,0,0.7-0.3,0.7-0.7v-1.6c0-3.1,2.5-5.9,5.7-5.9c3.1,0,5.7,2.6,5.7,5.7v1.8
		c0,0.4,0.3,0.7,0.7,0.7c1.2,0,2.3,0.5,3,1.4s1,2.1,0.8,3.3c-0.4,1.8-2,3.1-4,3.1H1.7c-1.8,0-3.7-1.5-4-3.2
		C-2.5,24.6-2.1,23.4-1.2,22.5z"/>
</g>
<rect x="3.2" y="30.5" class="st64" width="9.5" height="5.3"/>
<g class="st65">
	<path class="st63" d="M7.1,30.7h0.7V34h2v0.6H7.1V30.7z"/>
</g>
<g>
	<g>
		<g>
			<g>
				<g>
					<defs>
						<path id="SVGID_00000056401986127064483890000002290168403222365114_" d="M30.7,632.5c-0.3,3.7-6.4,8.1-11.7,8.1l0,0
							c-5.2,0.4-12.3-3.6-12.3-8.1V48.6c1.1-5.3,7.4-8.5,11.5-8.5l0,0c4.9,0,11.2,3.1,12.4,8.7V632.5L30.7,632.5z"/>
					</defs>
					<clipPath id="SVGID_00000053531670815836732260000004703948416216104586_">
						<use xlink:href="#SVGID_00000056401986127064483890000002290168403222365114_"  style="overflow:visible;"/>
					</clipPath>
					<g style="clip-path:url(#SVGID_00000053531670815836732260000004703948416216104586_);">
						<rect x="-4.7" y="583.9" class="st2" width="47.5" height="60.2"/>
						<rect x="-5.4" y="43.1" class="st1" width="49.7" height="15.5"/>
						<rect x="-4.7" y="58.5" class="st2" width="49.2" height="14.7"/>
						<rect x="-4.7" y="73.2" class="st3" width="49.2" height="14.7"/>
						<rect x="-4.7" y="88" class="st4" width="49.2" height="14.7"/>
						<rect x="-4.7" y="102.7" class="st5" width="49.2" height="14.7"/>
						<rect x="-4.7" y="117.4" class="st6" width="49.2" height="14.7"/>
						<rect x="-4.7" y="132.1" class="st7" width="49.2" height="14.7"/>
						<rect x="-4.7" y="146.9" class="st8" width="49.2" height="14.7"/>
						<rect x="-4.7" y="161.6" class="st9" width="49.2" height="14.7"/>
						<rect x="-4.7" y="176.3" class="st10" width="49.2" height="14.7"/>
						<rect x="-4.7" y="191" class="st11" width="49.2" height="14.7"/>
						<rect x="-4.7" y="205.7" class="st12" width="49.2" height="14.7"/>
						<rect x="-4.7" y="220.5" class="st13" width="49.2" height="14.7"/>
						<rect x="-4.7" y="235.2" class="st1" width="49.2" height="14.7"/>
						<rect x="-4.7" y="249.9" class="st2" width="49.2" height="14.7"/>
						<rect x="-4.7" y="264.6" class="st14" width="49.2" height="14.7"/>
						<rect x="-4.7" y="279.4" class="st15" width="49.2" height="14.7"/>
						<rect x="-4.7" y="294.1" class="st16" width="49.2" height="14.7"/>
						<rect x="-4.7" y="308.8" class="st17" width="49.2" height="14.7"/>
						<rect x="-4.7" y="323.5" class="st18" width="49.2" height="14.7"/>
						<rect x="-4.7" y="338.3" class="st19" width="49.2" height="14.7"/>
						<rect x="-4.7" y="353" class="st20" width="49.2" height="14.7"/>
						<rect x="-4.7" y="367.7" class="st21" width="49.2" height="14.7"/>
						<rect x="-4.7" y="382.4" class="st22" width="49.2" height="14.7"/>
						<rect x="-4.7" y="397.1" class="st23" width="49.2" height="14.7"/>
						<rect x="-4.7" y="411.9" class="st24" width="49.2" height="14.7"/>
						<rect x="-4.7" y="426.6" class="st3" width="49.2" height="14.7"/>
						<rect x="-4.7" y="441.3" class="st4" width="49.2" height="14.7"/>
						<rect x="-4.7" y="456" class="st5" width="49.2" height="14.7"/>
						<rect x="-4.7" y="470.7" class="st6" width="49.2" height="14.7"/>
						<rect x="-4.7" y="485.4" class="st7" width="49.2" height="14.7"/>
						<rect x="-4.7" y="500.1" class="st8" width="49.2" height="14.7"/>
						<rect x="-4.7" y="514.8" class="st9" width="49.2" height="14.7"/>
						<rect x="-4.7" y="529.5" class="st10" width="49.2" height="14.7"/>
						<rect x="-4.7" y="544.3" class="st11" width="49.2" height="14.7"/>
						<rect x="-4.7" y="559" class="st12" width="49.2" height="14.7"/>
						<rect x="-4.7" y="573.7" class="st13" width="49.2" height="14.7"/>
						<rect x="-4.7" y="588.4" class="st1" width="49.2" height="14.7"/>
					</g>
				</g>
			</g>
		</g>
	</g>
</g>
<g>
	<path class="st67" d="M13.7,633.9c-0.8-0.4-1.5-1-2-1.7s-0.7-1.6-0.7-2.6c0-1,0.2-1.8,0.7-2.6c0.5-0.8,1.2-1.3,2-1.7
		c0.8-0.4,1.8-0.7,2.9-0.7c0.8,0,1.6,0.1,2.3,0.4c0.7,0.3,1.3,0.7,1.7,1.2l-1.3,1.1c-0.7-0.8-1.6-1.2-2.8-1.2c-0.7,0-1.4,0.1-2,0.4
		c-0.6,0.3-1,0.7-1.3,1.2c-0.3,0.5-0.5,1.1-0.5,1.7s0.1,1.2,0.5,1.7c0.3,0.5,0.8,1,1.3,1.2c0.6,0.3,1.2,0.4,2,0.4c1,0,2-0.4,2.8-1.2
		l1.3,1.1c-0.5,0.5-1,1-1.7,1.2c-0.7,0.3-1.5,0.4-2.3,0.4C15.5,634.6,14.5,634.4,13.7,633.9z"/>
	<path class="st67" d="M23,628.9c-0.3-0.2-0.7-0.5-0.9-0.9c-0.2-0.3-0.3-0.8-0.3-1.2c0-0.4,0.1-0.9,0.3-1.2c0.2-0.3,0.6-0.7,0.9-0.9
		c0.3-0.2,0.8-0.3,1.3-0.3s0.9,0.1,1.3,0.3c0.3,0.2,0.7,0.5,0.9,0.9c0.2,0.3,0.3,0.8,0.3,1.2s-0.1,0.8-0.3,1.2
		c-0.2,0.3-0.6,0.7-0.9,0.9c-0.3,0.2-0.8,0.3-1.3,0.3S23.4,629.2,23,628.9z M25.3,628c0.2-0.2,0.5-0.7,0.5-1c0-0.4-0.1-0.8-0.5-1
		c-0.3-0.2-0.6-0.4-1-0.4s-0.8,0.1-1,0.4c-0.2,0.2-0.5,0.7-0.5,1c0,0.4,0.1,0.8,0.5,1c0.2,0.2,0.7,0.4,1,0.4
		C24.6,628.4,25.1,628.3,25.3,628z"/>
</g>
<path class="st68" d="M30.7,632.4c-0.3,3.7-6.4,8.1-11.7,8.1l0,0c-5.2,0.4-12.3-3.6-12.3-8.1V48.5c1.1-5.3,7.4-8.5,11.5-8.5l0,0
	c4.9,0,11.2,3.1,12.4,8.7V632.4L30.7,632.4z"/>
<g>
	<path class="st69" d="M10.3,611h3.1v1.2h-3.1V611z"/>
	<path class="st69" d="M19.3,610.8c0.4,0.4,0.6,0.9,0.6,1.5c0,0.5-0.1,0.9-0.3,1.2c-0.2,0.4-0.6,0.7-1.1,0.9s-1,0.3-1.7,0.3
		c-0.6,0-1.1-0.1-1.6-0.2c-0.5-0.2-1-0.4-1.3-0.7l0.6-1.1c0.3,0.2,0.6,0.4,1,0.6c0.4,0.1,0.8,0.2,1.3,0.2s0.9-0.1,1.2-0.3
		c0.3-0.2,0.4-0.5,0.4-0.9s-0.1-0.7-0.4-0.9c-0.3-0.2-0.7-0.3-1.3-0.3H16v-1l1.8-2.1h-3.6v-1.2h5.4v1l-1.9,2.3
		C18.4,610.2,19,610.4,19.3,610.8z"/>
	<path class="st69" d="M22.5,614.3c-0.5-0.3-0.9-0.8-1.2-1.4c-0.3-0.6-0.4-1.3-0.4-2.2s0.1-1.6,0.4-2.2c0.3-0.6,0.7-1.1,1.2-1.4
		c0.5-0.3,1.1-0.5,1.7-0.5s1.2,0.2,1.7,0.5s0.9,0.8,1.2,1.4c0.3,0.6,0.4,1.3,0.4,2.2s-0.1,1.6-0.4,2.2c-0.3,0.6-0.7,1.1-1.2,1.4
		c-0.5,0.3-1.1,0.5-1.7,0.5C23.5,614.8,23,614.6,22.5,614.3z M25.5,612.8c0.3-0.5,0.5-1.2,0.5-2.1s-0.2-1.6-0.5-2.1
		s-0.8-0.7-1.3-0.7c-0.6,0-1,0.2-1.3,0.7s-0.5,1.2-0.5,2.1s0.2,1.6,0.5,2.1s0.8,0.7,1.3,0.7C24.7,613.5,25.2,613.3,25.5,612.8z"/>
</g>
<g>
	<path class="st70" d="M10.1,580.7h3.1v1.2h-3.1V580.7z"/>
	<path class="st70" d="M19.8,583.2v1.2H14v-1l3.1-3c0.4-0.3,0.6-0.6,0.7-0.9c0.1-0.3,0.2-0.5,0.2-0.7c0-0.4-0.1-0.6-0.4-0.8
		s-0.6-0.3-1.1-0.3c-0.8,0-1.4,0.3-1.8,0.8l-1-0.8c0.3-0.4,0.7-0.7,1.2-1s1.1-0.3,1.8-0.3c0.9,0,1.5,0.2,2.1,0.6
		c0.5,0.4,0.8,1,0.8,1.7c0,0.4-0.1,0.8-0.3,1.2c-0.2,0.4-0.5,0.8-1,1.3l-2.1,2H19.8z"/>
	<path class="st70" d="M25.6,579.9c0.4,0.2,0.7,0.5,1,0.8c0.2,0.4,0.3,0.8,0.3,1.3s-0.1,1-0.4,1.3c-0.3,0.4-0.6,0.7-1,0.9
		s-0.9,0.3-1.5,0.3c-1.1,0-1.9-0.3-2.5-1s-0.9-1.6-0.9-2.9c0-0.9,0.2-1.6,0.5-2.3s0.8-1.1,1.4-1.4c0.6-0.3,1.3-0.5,2-0.5
		c0.4,0,0.8,0,1.1,0.1c0.4,0.1,0.7,0.2,0.9,0.4L26,578c-0.4-0.3-0.9-0.4-1.5-0.4c-0.8,0-1.4,0.2-1.8,0.7s-0.6,1.1-0.6,2l0,0
		c0.2-0.3,0.5-0.5,0.9-0.6s0.8-0.2,1.2-0.2C24.7,579.6,25.2,579.7,25.6,579.9z M25.1,583c0.3-0.2,0.4-0.6,0.4-1s-0.1-0.7-0.4-1
		c-0.3-0.2-0.7-0.4-1.2-0.4s-0.9,0.1-1.2,0.4s-0.4,0.6-0.4,1s0.1,0.7,0.4,1s0.7,0.4,1.2,0.4S24.8,583.3,25.1,583z"/>
</g>
<g>
	<g>
		<path class="st70" d="M10.6,551.8h3.1v1.2h-3.1V551.8z"/>
		<path class="st70" d="M20.4,554.3v1.2h-5.8v-1l3.1-3c0.4-0.3,0.6-0.6,0.7-0.9s0.2-0.5,0.2-0.7c0-0.4-0.1-0.6-0.4-0.8
			c-0.3-0.2-0.6-0.3-1.1-0.3c-0.8,0-1.4,0.3-1.8,0.8l-1-0.8c0.3-0.4,0.7-0.7,1.2-1s1.1-0.3,1.8-0.3c0.9,0,1.5,0.2,2.1,0.6
			c0.5,0.4,0.8,1,0.8,1.7c0,0.4-0.1,0.8-0.3,1.2s-0.5,0.8-1,1.3l-2.1,2L20.4,554.3L20.4,554.3z"/>
		<path class="st70" d="M26.9,554.3v1.2h-5.8v-1l3.1-3c0.4-0.3,0.6-0.6,0.7-0.9s0.2-0.5,0.2-0.7c0-0.4-0.1-0.6-0.4-0.8
			c-0.3-0.2-0.5-0.3-1-0.3c-0.8,0-1.4,0.3-1.8,0.8l-1-0.8c0.3-0.4,0.7-0.7,1.2-1s1.1-0.3,1.8-0.3c0.9,0,1.5,0.2,2.1,0.6
			c0.5,0.4,0.8,1,0.8,1.7c0,0.4-0.1,0.8-0.3,1.2s-0.5,0.8-1,1.3l-2.1,2H26.9L26.9,554.3z"/>
	</g>
</g>
<g>
	<g>
		<path class="st70" d="M11.2,522.2h3.1v1.2h-3.1V522.2z"/>
		<path class="st70" d="M17.9,518.1v7.9h-1.5v-6.6h-1.6v-1.2L17.9,518.1L17.9,518.1z"/>
		<path class="st70" d="M25.6,522.6c0.2,0.3,0.3,0.7,0.3,1.1c0,0.5-0.1,0.9-0.4,1.3c-0.3,0.4-0.6,0.6-1.1,0.8
			c-0.5,0.2-1.1,0.3-1.7,0.3s-1.2-0.1-1.7-0.3s-0.9-0.5-1.1-0.8c-0.3-0.4-0.4-0.8-0.4-1.3c0-0.4,0.1-0.8,0.3-1.1
			c0.2-0.3,0.5-0.6,0.9-0.8c-0.3-0.2-0.6-0.4-0.7-0.7c-0.1-0.3-0.3-0.6-0.3-1c0-0.4,0.1-0.8,0.4-1.2c0.2-0.3,0.6-0.6,1-0.8
			c0.4-0.2,1-0.3,1.5-0.3c0.6,0,1.1,0.1,1.5,0.3s0.8,0.4,1,0.8c0.2,0.4,0.4,0.7,0.4,1.2c0,0.4-0.1,0.7-0.3,1s-0.4,0.5-0.7,0.7
			C25,522,25.3,522.2,25.6,522.6z M23.9,524.6c0.3-0.2,0.5-0.5,0.5-0.9c0-0.4-0.2-0.7-0.5-0.9c-0.3-0.2-0.7-0.3-1.3-0.3
			s-1,0.1-1.3,0.3s-0.5,0.5-0.5,0.9c0,0.4,0.2,0.7,0.5,0.9s0.7,0.3,1.3,0.3S23.6,524.8,23.9,524.6z M21.6,519.4
			c-0.3,0.2-0.4,0.5-0.4,0.8s0.1,0.6,0.4,0.8s0.6,0.3,1.1,0.3s0.8-0.1,1.1-0.3c0.3-0.2,0.4-0.5,0.4-0.8c0-0.4-0.1-0.6-0.4-0.8
			c-0.3-0.2-0.6-0.3-1.1-0.3S21.8,519.2,21.6,519.4z"/>
	</g>
</g>
<g>
	<g>
		<path class="st70" d="M11.2,493.3h3.1v1.2h-3.1V493.3z"/>
		<path class="st70" d="M17.9,489.1v7.9h-1.5v-6.6h-1.7v-1.2L17.9,489.1L17.9,489.1z"/>
		<path class="st70" d="M26.5,495.2h-1.4v1.8h-1.4v-1.8h-4.3v-1l3.9-5.1h1.6l-3.7,4.8h2.6v-1.6h1.4v1.6h1.4v1.3H26.5z"/>
	</g>
</g>
<g>
	<g>
		<path class="st70" d="M11.2,463.3h3.1v1.2h-3.1V463.3z"/>
		<path class="st70" d="M17.9,459.2v7.9h-1.5v-6.6h-1.7v-1.2L17.9,459.2L17.9,459.2z"/>
		<path class="st70" d="M21,466.7c-0.5-0.3-0.9-0.8-1.2-1.4c-0.3-0.6-0.4-1.3-0.4-2.2s0.1-1.6,0.4-2.2s0.7-1.1,1.2-1.4
			s1.1-0.5,1.7-0.5s1.2,0.2,1.7,0.5s0.9,0.8,1.2,1.4c0.3,0.6,0.4,1.3,0.4,2.2s-0.1,1.6-0.4,2.2s-0.7,1.1-1.2,1.4s-1.1,0.5-1.7,0.5
			C22.1,467.1,21.5,467,21,466.7z M24.1,465.2c0.3-0.5,0.5-1.2,0.5-2.1s-0.2-1.6-0.5-2.1s-0.8-0.7-1.3-0.7c-0.6,0-1,0.2-1.3,0.7
			s-0.5,1.2-0.5,2.1s0.2,1.6,0.5,2.1s0.8,0.7,1.3,0.7C23.3,465.9,23.7,465.6,24.1,465.2z"/>
	</g>
</g>
<g>
	<g>
		<path class="st70" d="M13.6,433.8h3.1v1.2h-3.1C13.6,435,13.6,433.8,13.6,433.8z"/>
		<path class="st70" d="M22.9,433c0.4,0.2,0.7,0.5,1,0.8c0.2,0.4,0.3,0.8,0.3,1.3s-0.1,1-0.4,1.3c-0.3,0.4-0.6,0.7-1,0.9
			c-0.4,0.2-0.9,0.3-1.5,0.3c-1.1,0-1.9-0.3-2.5-1s-0.9-1.6-0.9-2.9c0-0.9,0.2-1.6,0.5-2.3c0.3-0.6,0.8-1.1,1.4-1.4s1.3-0.5,2-0.5
			c0.4,0,0.8,0,1.1,0.1c0.4,0.1,0.7,0.2,0.9,0.4l-0.5,1.1c-0.4-0.3-0.9-0.4-1.5-0.4c-0.8,0-1.4,0.2-1.8,0.7s-0.6,1.1-0.6,2l0,0
			c0.2-0.3,0.5-0.5,0.9-0.6s0.8-0.2,1.2-0.2C22,432.7,22.5,432.8,22.9,433z M22.3,436.1c0.3-0.2,0.4-0.6,0.4-1s-0.1-0.7-0.4-1
			c-0.3-0.2-0.7-0.4-1.2-0.4s-0.9,0.1-1.2,0.4s-0.4,0.6-0.4,1s0.1,0.7,0.4,1s0.7,0.4,1.2,0.4C21.7,436.5,22.1,436.4,22.3,436.1z"/>
	</g>
</g>
<g>
	<g>
		<path class="st70" d="M13.7,404.7h3.1v1.2h-3.1V404.7z"/>
		<path class="st70" d="M23.5,407.2v1.2h-5.8v-1l3.1-3c0.4-0.3,0.6-0.6,0.7-0.9s0.2-0.5,0.2-0.7c0-0.4-0.1-0.6-0.4-0.8
			s-0.6-0.3-1.1-0.3c-0.8,0-1.4,0.3-1.8,0.8l-1-0.8c0.3-0.4,0.7-0.7,1.2-1s1.1-0.3,1.8-0.3c0.9,0,1.5,0.2,2.1,0.6
			c0.5,0.4,0.8,1,0.8,1.7c0,0.4-0.1,0.8-0.3,1.2s-0.5,0.8-1,1.3l-2.1,2L23.5,407.2L23.5,407.2z"/>
	</g>
</g>
<g>
	<g>
		<path class="st69" d="M21.3,378.2v1.2h-5.8v-1l3.1-3c0.4-0.3,0.6-0.6,0.7-0.9c0.1-0.3,0.2-0.5,0.2-0.7c0-0.4-0.1-0.6-0.4-0.8
			c-0.2-0.2-0.6-0.3-1.1-0.3c-0.8,0-1.4,0.3-1.8,0.8l-1-0.8c0.3-0.4,0.7-0.7,1.2-1c0.5-0.3,1.1-0.3,1.8-0.3c0.9,0,1.5,0.2,2.1,0.6
			c0.5,0.4,0.8,1,0.8,1.7c0,0.4-0.1,0.8-0.3,1.2s-0.5,0.8-1,1.3l-2.1,2L21.3,378.2L21.3,378.2z"/>
	</g>
</g>
<g>
	<g>
		<path class="st69" d="M20,345.1c0.4,0.2,0.7,0.5,1,0.8c0.2,0.4,0.3,0.8,0.3,1.3s-0.1,1-0.4,1.3c-0.3,0.4-0.6,0.7-1,0.9
			c-0.4,0.2-0.9,0.3-1.5,0.3c-1.1,0-1.9-0.3-2.5-1c-0.6-0.7-0.9-1.6-0.9-2.9c0-0.9,0.2-1.6,0.5-2.3c0.3-0.6,0.8-1.1,1.4-1.4
			c0.6-0.3,1.3-0.5,2-0.5c0.4,0,0.8,0,1.1,0.1c0.4,0.1,0.7,0.2,0.9,0.4l-0.5,1.1c-0.4-0.3-0.9-0.4-1.5-0.4c-0.8,0-1.4,0.2-1.8,0.7
			s-0.6,1.1-0.6,2l0,0c0.2-0.3,0.5-0.5,0.9-0.6s0.8-0.2,1.2-0.2C19.1,344.8,19.5,344.9,20,345.1z M19.4,348.3c0.3-0.2,0.4-0.6,0.4-1
			s-0.1-0.7-0.4-1c-0.3-0.2-0.7-0.4-1.2-0.4c-0.5,0-0.9,0.1-1.2,0.4c-0.3,0.3-0.4,0.6-0.4,1s0.1,0.7,0.4,1c0.3,0.3,0.7,0.4,1.2,0.4
			C18.8,348.6,19.1,348.5,19.4,348.3z"/>
	</g>
</g>
<g>
	<g>
		<path class="st69" d="M16.1,312.7v7.9h-1.5V314h-1.7v-1.2L16.1,312.7L16.1,312.7z"/>
		<path class="st69" d="M19.3,320.3c-0.5-0.3-0.9-0.8-1.2-1.4c-0.3-0.6-0.4-1.3-0.4-2.2s0.1-1.6,0.4-2.2s0.7-1.1,1.2-1.4
			s1.1-0.5,1.7-0.5s1.2,0.2,1.7,0.5s0.9,0.8,1.2,1.4s0.4,1.3,0.4,2.2s-0.1,1.6-0.4,2.2s-0.7,1.1-1.2,1.4s-1.1,0.5-1.7,0.5
			S19.8,320.6,19.3,320.3z M22.3,318.8c0.3-0.5,0.5-1.2,0.5-2.1s-0.2-1.6-0.5-2.1s-0.8-0.7-1.3-0.7c-0.6,0-1,0.2-1.3,0.7
			s-0.5,1.2-0.5,2.1s0.2,1.6,0.5,2.1s0.8,0.7,1.3,0.7C21.5,319.5,22,319.2,22.3,318.8z"/>
	</g>
</g>
<g>
	<g>
		<path class="st69" d="M16.2,283.4v7.9h-1.5v-6.6H13v-1.3H16.2z"/>
		<path class="st69" d="M24.8,289.5h-1.4v1.8H22v-1.8h-4.3v-1l3.9-5.1h1.6l-3.7,4.8h2.6v-1.6h1.4v1.6h1.4v1.3H24.8z"/>
	</g>
</g>
<g>
	<g>
		<path class="st69" d="M16.3,253.4v7.9h-1.5v-6.6h-1.6v-1.2L16.3,253.4L16.3,253.4z"/>
		<path class="st69" d="M24,257.9c0.2,0.3,0.3,0.7,0.3,1.1c0,0.5-0.1,0.9-0.4,1.3c-0.3,0.4-0.6,0.6-1.1,0.8
			c-0.5,0.2-1.1,0.3-1.7,0.3s-1.2-0.1-1.7-0.3c-0.5-0.2-0.9-0.5-1.1-0.8c-0.3-0.4-0.4-0.8-0.4-1.3c0-0.4,0.1-0.8,0.3-1.1
			c0.2-0.3,0.5-0.6,0.9-0.8c-0.3-0.2-0.6-0.4-0.7-0.7c-0.2-0.3-0.3-0.6-0.3-1s0.1-0.8,0.4-1.2s0.6-0.6,1-0.8c0.4-0.2,1-0.3,1.5-0.3
			c0.6,0,1.1,0.1,1.5,0.3s0.8,0.4,1,0.8s0.4,0.7,0.4,1.2c0,0.4-0.1,0.7-0.3,1c-0.2,0.3-0.4,0.5-0.7,0.7
			C23.4,257.3,23.7,257.6,24,257.9z M22.3,259.9c0.3-0.2,0.5-0.5,0.5-0.9s-0.2-0.7-0.5-0.9c-0.3-0.2-0.7-0.3-1.3-0.3s-1,0.1-1.3,0.3
			c-0.3,0.2-0.5,0.5-0.5,0.9s0.2,0.7,0.5,0.9c0.3,0.2,0.7,0.3,1.3,0.3S22,260.1,22.3,259.9z M20,254.7c-0.3,0.2-0.4,0.5-0.4,0.8
			s0.1,0.6,0.4,0.8c0.3,0.2,0.6,0.3,1.1,0.3s0.8-0.1,1.1-0.3c0.3-0.2,0.4-0.5,0.4-0.8c0-0.4-0.1-0.6-0.4-0.8s-0.6-0.3-1.1-0.3
			C20.6,254.4,20.2,254.5,20,254.7z"/>
	</g>
</g>
<g>
	<g>
		<path class="st70" d="M18.4,230.8v1.2h-5.8v-1l3.1-3c0.4-0.3,0.6-0.6,0.7-0.9c0.1-0.3,0.2-0.5,0.2-0.7c0-0.4-0.1-0.6-0.4-0.8
			c-0.2-0.2-0.6-0.3-1.1-0.3c-0.8,0-1.4,0.3-1.8,0.8l-1-0.8c0.3-0.4,0.7-0.7,1.2-1c0.5-0.2,1.1-0.3,1.8-0.3c0.9,0,1.5,0.2,2.1,0.6
			c0.5,0.4,0.8,1,0.8,1.7c0,0.4-0.1,0.8-0.3,1.2c-0.2,0.4-0.5,0.8-1,1.3l-2.1,2H18.4z"/>
		<path class="st70" d="M24.9,230.8v1.2h-5.8v-1l3.1-3c0.4-0.3,0.6-0.6,0.7-0.9c0.1-0.3,0.2-0.5,0.2-0.7c0-0.4-0.1-0.6-0.4-0.8
			c-0.2-0.2-0.6-0.3-1.1-0.3c-0.8,0-1.4,0.3-1.8,0.8l-1-0.8c0.3-0.4,0.7-0.7,1.2-1c0.5-0.2,1.1-0.3,1.8-0.3c0.9,0,1.5,0.2,2.1,0.6
			c0.5,0.4,0.8,1,0.8,1.7c0,0.4-0.1,0.8-0.3,1.2c-0.2,0.4-0.5,0.8-1,1.3l-2.1,2H24.9z"/>
	</g>
</g>
<g>
	<g>
		<path class="st70" d="M18.1,201.6v1.2h-5.8v-1l3.1-3c0.4-0.3,0.6-0.6,0.7-0.9c0.1-0.3,0.2-0.5,0.2-0.7c0-0.4-0.1-0.6-0.4-0.8
			c-0.2-0.2-0.6-0.3-1.1-0.3c-0.8,0-1.4,0.3-1.8,0.8l-1-0.8c0.3-0.4,0.7-0.7,1.2-1c0.5-0.2,1.1-0.3,1.8-0.3c0.9,0,1.5,0.2,2.1,0.6
			c0.5,0.4,0.8,1,0.8,1.7c0,0.4-0.1,0.8-0.3,1.2c-0.2,0.4-0.5,0.8-1,1.3l-2.1,2H18.1z"/>
		<path class="st70" d="M23.9,198.2c0.4,0.2,0.7,0.5,1,0.8c0.2,0.4,0.3,0.8,0.3,1.3s-0.1,1-0.4,1.3c-0.3,0.4-0.6,0.7-1,0.9
			s-0.9,0.3-1.5,0.3c-1.1,0-1.9-0.3-2.5-1s-0.9-1.6-0.9-2.9c0-0.9,0.2-1.6,0.5-2.3s0.8-1.1,1.4-1.4c0.6-0.3,1.3-0.5,2-0.5
			c0.4,0,0.8,0,1.1,0.1c0.4,0.1,0.7,0.2,0.9,0.4l-0.5,1.1c-0.4-0.3-0.9-0.4-1.5-0.4c-0.8,0-1.4,0.2-1.8,0.7s-0.6,1.1-0.6,2l0,0
			c0.2-0.3,0.5-0.5,0.9-0.6s0.8-0.2,1.2-0.2C23,198,23.5,198.1,23.9,198.2z M23.4,201.4c0.3-0.2,0.4-0.6,0.4-1s-0.1-0.7-0.4-1
			c-0.3-0.2-0.7-0.4-1.2-0.4s-0.9,0.1-1.2,0.4s-0.4,0.6-0.4,1s0.1,0.7,0.4,1s0.7,0.4,1.2,0.4C22.7,201.8,23.1,201.7,23.4,201.4z"/>
	</g>
</g>
<g>
	<g>
		<path class="st70" d="M17.1,169c0.4,0.4,0.6,0.9,0.6,1.5c0,0.5-0.1,0.9-0.3,1.2c-0.2,0.3-0.6,0.7-1.1,0.9s-1,0.3-1.7,0.3
			c-0.6,0-1.1-0.1-1.6-0.2s-1-0.4-1.3-0.7l0.6-1.1c0.3,0.2,0.6,0.4,1,0.6s0.8,0.2,1.3,0.2s0.9-0.1,1.2-0.3c0.3-0.2,0.4-0.5,0.4-0.9
			s-0.1-0.7-0.4-0.9c-0.3-0.2-0.7-0.3-1.3-0.3h-0.7v-1l1.8-2.1H12V165h5.4v1l-1.9,2.3C16.2,168.4,16.7,168.6,17.1,169z"/>
		<path class="st70" d="M20.3,172.5c-0.5-0.3-0.9-0.8-1.2-1.4c-0.3-0.6-0.4-1.3-0.4-2.2s0.1-1.6,0.4-2.2c0.3-0.6,0.7-1.1,1.2-1.4
			s1.1-0.5,1.7-0.5s1.2,0.2,1.7,0.5s0.9,0.8,1.2,1.4c0.3,0.6,0.4,1.3,0.4,2.2s-0.1,1.6-0.4,2.2c-0.3,0.6-0.7,1.1-1.2,1.4
			c-0.5,0.3-1.1,0.5-1.7,0.5C21.3,173,20.8,172.9,20.3,172.5z M23.3,171c0.3-0.5,0.5-1.2,0.5-2.1s-0.2-1.6-0.5-2.1s-0.8-0.7-1.3-0.7
			c-0.6,0-1,0.2-1.3,0.7s-0.5,1.2-0.5,2.1s0.2,1.6,0.5,2.1s0.8,0.7,1.3,0.7C22.5,171.7,23,171.5,23.3,171z"/>
	</g>
</g>
<g>
	<g>
		<path class="st70" d="M17,139.5c0.4,0.4,0.6,0.9,0.6,1.5c0,0.5-0.1,0.9-0.3,1.2c-0.2,0.3-0.6,0.7-1.1,0.9c-0.5,0.2-1,0.3-1.7,0.3
			c-0.6,0-1.1-0.1-1.6-0.2c-0.5-0.1-1-0.4-1.3-0.7l0.6-1.1c0.3,0.2,0.6,0.4,1,0.6s0.8,0.2,1.3,0.2s0.9-0.1,1.2-0.3
			c0.3-0.2,0.4-0.5,0.4-0.9c0-0.4-0.1-0.7-0.4-0.9s-0.7-0.3-1.3-0.3h-0.7v-1l1.8-2.1h-3.6v-1.2h5.4v1l-1.9,2.3
			C16.1,138.9,16.7,139.1,17,139.5z"/>
		<path class="st70" d="M25.6,141.6h-1.4v1.8h-1.4v-1.8h-4.3v-1l3.9-5.1h1.5l-3.7,4.8h2.6v-1.5h1.4v1.6h1.4
			C25.6,140.4,25.6,141.6,25.6,141.6z"/>
	</g>
</g>
<g>
	<g>
		<path class="st70" d="M17.9,109.5c0.4,0.4,0.6,0.9,0.6,1.5c0,0.5-0.1,0.9-0.3,1.2c-0.2,0.3-0.6,0.7-1.1,0.9s-1,0.3-1.7,0.3
			c-0.6,0-1.1-0.1-1.6-0.2s-1-0.4-1.3-0.7l0.6-1.1c0.3,0.2,0.6,0.4,1,0.6s0.8,0.2,1.3,0.2s0.9-0.1,1.2-0.3c0.3-0.2,0.4-0.5,0.4-0.9
			s-0.1-0.7-0.4-0.9c-0.3-0.2-0.7-0.3-1.3-0.3h-0.7v-1l1.8-2.1h-3.6v-1.2h5.4v1l-1.9,2.3C17,108.9,17.5,109.1,17.9,109.5z"/>
		<path class="st70" d="M25.5,110c0.2,0.3,0.3,0.7,0.3,1.1c0,0.5-0.1,0.9-0.4,1.3s-0.6,0.6-1.1,0.8s-1.1,0.3-1.7,0.3
			s-1.2-0.1-1.7-0.3s-0.9-0.5-1.1-0.8c-0.3-0.4-0.4-0.8-0.4-1.3c0-0.4,0.1-0.8,0.3-1.1c0.2-0.3,0.5-0.6,0.9-0.8
			c-0.3-0.2-0.6-0.4-0.7-0.7c-0.2-0.3-0.3-0.6-0.3-1s0.1-0.8,0.4-1.2c0.2-0.3,0.6-0.6,1-0.8c0.4-0.2,1-0.3,1.5-0.3
			c0.6,0,1.1,0.1,1.5,0.3c0.4,0.2,0.8,0.4,1,0.8s0.4,0.7,0.4,1.2c0,0.4-0.1,0.7-0.3,1c-0.2,0.3-0.4,0.5-0.7,0.7
			C25,109.5,25.3,109.7,25.5,110z M23.9,112c0.3-0.2,0.5-0.5,0.5-0.9s-0.2-0.7-0.5-0.9c-0.3-0.2-0.7-0.3-1.3-0.3s-1,0.1-1.3,0.3
			c-0.3,0.2-0.5,0.5-0.5,0.9s0.2,0.7,0.5,0.9c0.3,0.2,0.7,0.3,1.3,0.3S23.6,112.3,23.9,112z M21.5,106.9c-0.3,0.2-0.4,0.5-0.4,0.8
			s0.1,0.6,0.4,0.8c0.3,0.2,0.6,0.3,1.1,0.3s0.8-0.1,1.1-0.3c0.3-0.2,0.4-0.5,0.4-0.8c0-0.4-0.1-0.6-0.4-0.8
			c-0.3-0.2-0.6-0.3-1.1-0.3C22.1,106.6,21.8,106.7,21.5,106.9z"/>
	</g>
</g>
<g>
	<g>
		<path class="st70" d="M19.1,82.6h-1.4v1.8h-1.4v-1.8h-4.4v-1l3.9-5.1h1.6l-3.7,4.8h2.6v-1.6h1.4v1.6h1.4
			C19.1,81.3,19.1,82.6,19.1,82.6z"/>
		<path class="st70" d="M25.4,83.2v1.2h-5.8v-1l3.1-3c0.4-0.3,0.6-0.6,0.7-0.9s0.2-0.5,0.2-0.7c0-0.4-0.1-0.6-0.4-0.8
			c-0.2-0.2-0.6-0.3-1.1-0.3c-0.8,0-1.4,0.3-1.8,0.8l-1-0.8c0.3-0.4,0.7-0.7,1.2-1c0.5-0.2,1.1-0.3,1.8-0.3c0.9,0,1.5,0.2,2.1,0.6
			c0.5,0.4,0.8,1,0.8,1.7c0,0.4-0.1,0.8-0.3,1.2s-0.5,0.8-1,1.3l-2.1,2L25.4,83.2L25.4,83.2z"/>
	</g>
</g>
<g>
	<g>
		<path class="st69" d="M19.3,53h-1.4v1.8h-1.4V53h-4.3v-1l3.9-5.1h1.6L14,51.7h2.6v-1.6H18v1.6h1.4L19.3,53L19.3,53z"/>
		<path class="st69" d="M24.9,50.2c0.4,0.2,0.7,0.5,1,0.8c0.2,0.4,0.3,0.8,0.3,1.3s-0.1,1-0.4,1.3s-0.6,0.7-1,0.9s-0.9,0.3-1.5,0.3
			c-1.1,0-1.9-0.3-2.5-1s-0.9-1.6-0.9-2.9c0-0.9,0.2-1.6,0.5-2.3c0.3-0.6,0.8-1.1,1.4-1.4c0.6-0.3,1.3-0.5,2-0.5
			c0.4,0,0.8,0,1.1,0.1c0.4,0.1,0.7,0.2,0.9,0.4l-0.5,1.1c-0.4-0.3-0.9-0.4-1.5-0.4c-0.8,0-1.4,0.2-1.8,0.7s-0.6,1.1-0.6,2l0,0
			c0.2-0.3,0.5-0.5,0.9-0.6s0.8-0.2,1.2-0.2C24,49.9,24.5,50,24.9,50.2z M24.4,53.4c0.3-0.2,0.4-0.6,0.4-1s-0.1-0.7-0.4-1
			c-0.3-0.2-0.7-0.4-1.2-0.4s-0.9,0.1-1.2,0.4s-0.4,0.6-0.4,1s0.1,0.7,0.4,1s0.7,0.4,1.2,0.4C23.7,53.7,24.1,53.6,24.4,53.4z"/>
	</g>
</g>
<circle class="st67" cx="18.6" cy="20.6" r="14.6"/>
<g id="Layer_1_00000094618233620819150710000009544971755126034336_">
	<g>
		<path class="st70" d="M18.8,8.1c-2.8,0-5.1,2.2-5.1,4.9v7.1c-1.9,1.6-2.9,4-2.6,6.5c0.5,3.4,3.3,6,6.8,6.4
			c4.5,0.4,8.6-2.9,8.6-7.3c0-2.2-0.9-4.1-2.6-5.5v-7.1C23.9,10.3,21.6,8.1,18.8,8.1z M25.1,25.6c0,3.6-3.4,6.4-7.1,6.1
			c-2.8-0.3-5.2-2.5-5.5-5.3c-0.2-2.2,0.6-4.2,2.4-5.5c0.1-0.1,0.2-0.3,0.2-0.5v-7.4c0-2,1.7-3.6,3.7-3.6s3.7,1.6,3.7,3.6v7.4
			c0,0.2,0.1,0.3,0.2,0.5C24.3,22,25.1,23.7,25.1,25.6z"/>
	</g>
	<g>
		<path class="st70" d="M21.2,22.4v-7.7c0-1.3-1.1-2.3-2.4-2.3s-2.4,1.1-2.4,2.3v7.7c-1.4,1-2,2.6-1.6,4.2c0.7,2.7,4.3,3.9,6.7,2.2
			c1-0.8,1.6-2,1.6-3.1C23,24.3,22.3,23.1,21.2,22.4z M20.6,27.7c-1.6,1.2-4.1,0.4-4.5-1.4c-0.3-1.2,0.2-2.4,1.4-3
			c0.2-0.1,0.3-0.3,0.3-0.5v-8c0-0.5,0.5-1.1,1.1-1.1c0.6,0,1.1,0.4,1.1,1.1v8c0,0.2,0.1,0.4,0.3,0.5c0.9,0.5,1.5,1.4,1.5,2.4
			C21.6,26.4,21.3,27.1,20.6,27.7z"/>
	</g>
</g>
</svg>
