<?xml version="1.0" encoding="utf-8"?>
<!-- Generator: Adobe Illustrator 28.0.0, SVG Export Plug-In . SVG Version: 6.00 Build 0)  -->
<svg version="1.1" id="Livello_1" xmlns="http://www.w3.org/2000/svg" xmlns:xlink="http://www.w3.org/1999/xlink" x="0px" y="0px"
	 width="40.8px" height="725.2px"  viewBox="0 0 40.8 725.2" style="enable-background:new 0 0 40.8 725.2;" xml:space="preserve">
<style type="text/css">
	.st0{clip-path:url(#SVGID_00000106843526913389608100000008536527909263644580_);}
	.st1{opacity:0.88;fill:#64007F;enable-background:new    ;}
	.st2{opacity:0.88;fill:#FFDCDC;enable-background:new    ;}
	.st3{opacity:0.88;fill:#FFB4B4;enable-background:new    ;}
	.st4{opacity:0.88;fill:#F0A0A0;enable-background:new    ;}
	.st5{opacity:0.88;fill:#B46464;enable-background:new    ;}
	.st6{opacity:0.88;fill:#640000;enable-background:new    ;}
	.st7{opacity:0.88;fill:#7C0000;enable-background:new    ;}
	.st8{opacity:0.88;fill:#AF0F14;enable-background:new    ;}
	.st9{opacity:0.88;fill:#C41A0A;enable-background:new    ;}
	.st10{opacity:0.88;fill:#E83709;enable-background:new    ;}
	.st11{opacity:0.88;fill:#F46D0B;enable-background:new    ;}
	.st12{opacity:0.88;fill:#F4880B;enable-background:new    ;}
	.st13{opacity:0.88;fill:#F4BD0B;enable-background:new    ;}
	.st14{opacity:0.88;fill:#F4D90B;enable-background:new    ;}
	.st15{opacity:0.88;fill:#F3FB01;enable-background:new    ;}
	.st16{opacity:0.88;fill:#CEF003;enable-background:new    ;}
	.st17{opacity:0.88;fill:#9CE106;enable-background:new    ;}
	.st18{opacity:0.88;fill:#52CA0B;enable-background:new    ;}
	.st19{opacity:0.88;fill:#21BB0E;enable-background:new    ;}
	.st20{opacity:0.88;fill:#07A127;enable-background:new    ;}
	.st21{opacity:0.88;fill:#62AF88;enable-background:new    ;}
	.st22{opacity:0.88;fill:#87D3AB;enable-background:new    ;}
	.st23{opacity:0.88;fill:#9FEEC8;enable-background:new    ;}
	.st24{opacity:0.88;fill:#BBFFE2;enable-background:new    ;}
	.st25{opacity:0.88;fill:#5BB4FF;enable-background:new    ;}
	.st26{opacity:0.88;fill:#259AFF;enable-background:new    ;}
	.st27{opacity:0.88;fill:#0082EF;enable-background:new    ;}
	.st28{opacity:0.88;fill:#0062AF;enable-background:new    ;}
	.st29{opacity:0.88;fill:#00528F;enable-background:new    ;}
	.st30{opacity:0.88;fill:#00467F;enable-background:new    ;}
	.st31{opacity:0.88;fill:#003C7F;enable-background:new    ;}
	.st32{opacity:0.88;fill:#00287F;enable-background:new    ;}
	.st33{opacity:0.88;fill:#3E007F;enable-background:new    ;}
	.st34{opacity:0.88;fill:#57007F;enable-background:new    ;}
	.st35{opacity:0.88;fill:#F627EB;enable-background:new    ;}
	.st36{opacity:0.88;fill:#D41DD1;enable-background:new    ;}
	.st37{opacity:0.88;fill:#B414B9;enable-background:new    ;}
	.st38{opacity:0.88;fill:#870898;enable-background:new    ;}
	.st39{opacity:0.88;fill:#78048D;enable-background:new    ;}
	.st40{fill:#39322E;}
	.st41{fill:#FFFFFF;}
	.st42{fill:none;}
	.st43{enable-background:new    ;}
	.st44{fill:none;stroke:#3C3430;stroke-miterlimit:9.7722;}
	.st45{fill:#3C3530;}
	.st46{fill:none;stroke:#3C3430;stroke-width:2;stroke-miterlimit:9.7722;}
</style>
<g>
	<g>
		<g>
			<g>
				<g>
					<g>
						<g>
							<g>
								<g>
									<defs>
										<path id="SVGID_1_" d="M38.5,720.9c-0.4,4.2-10.5,2.4-18.3,2.4l0,0c-7.6,0.4-18.3,1-18.3-4L2.2,47.7
											c0-1.4,1.1-2.6,2.6-2.7c5.2-0.2,10.3-0.3,15.4-0.3l0,0c6,0,9.7-0.8,15,0c1.9,0.3,3.3,1.9,3.3,3.8v664.8V720.9z"/>
									</defs>
									<clipPath id="SVGID_00000060713569756792293610000007915561210820757131_">
										<use xlink:href="#SVGID_1_"  style="overflow:visible;"/>
									</clipPath>
									<g style="clip-path:url(#SVGID_00000060713569756792293610000007915561210820757131_);">
										<rect x="-12.7" y="691.9" class="st1" width="71" height="47.4"/>
										<rect x="-14.2" y="40.8" class="st2" width="74.3" height="21.3"/>
										<rect x="-12.7" y="62.1" class="st3" width="73.5" height="17.1"/>
										<rect x="-12.7" y="79.2" class="st4" width="73.5" height="17.1"/>
										<rect x="-12.7" y="96.2" class="st5" width="73.5" height="17.1"/>
										<rect x="-12.7" y="113.3" class="st6" width="73.5" height="17.1"/>
										<rect x="-12.7" y="130.2" class="st7" width="73.5" height="17.1"/>
										<rect x="-12.7" y="147.3" class="st8" width="73.5" height="17.1"/>
										<rect x="-12.7" y="164.3" class="st9" width="73.5" height="17.1"/>
										<rect x="-12.7" y="181.4" class="st10" width="73.5" height="17.1"/>
										<rect x="-12.7" y="198.4" class="st11" width="73.5" height="17.1"/>
										<rect x="-12.7" y="215.4" class="st12" width="73.5" height="17.1"/>
										<rect x="-12.7" y="232.4" class="st13" width="73.5" height="17.1"/>
										<rect x="-12.7" y="249.5" class="st14" width="73.5" height="17.1"/>
										<rect x="-12.7" y="266.5" class="st15" width="73.5" height="17.1"/>
										<rect x="-12.7" y="283.5" class="st16" width="73.5" height="17.1"/>
										<rect x="-12.7" y="300.5" class="st17" width="73.5" height="17.1"/>
										<rect x="-12.7" y="317.6" class="st18" width="73.5" height="17.1"/>
										<rect x="-12.7" y="334.6" class="st19" width="73.5" height="17.1"/>
										<rect x="-12.7" y="351.6" class="st20" width="73.5" height="17.1"/>
										<rect x="-12.7" y="368.6" class="st21" width="73.5" height="17.1"/>
										<rect x="-12.7" y="385.8" class="st22" width="73.5" height="17.1"/>
										<rect x="-12.7" y="402.7" class="st23" width="73.5" height="17.1"/>
										<rect x="-12.7" y="419.8" class="st24" width="73.5" height="17.1"/>
										<rect x="-12.7" y="436.7" class="st25" width="73.5" height="17.1"/>
										<rect x="-12.7" y="453.7" class="st26" width="73.5" height="17.2"/>
										<rect x="-12.7" y="470.8" class="st27" width="73.5" height="17.1"/>
										<rect x="-12.7" y="487.8" class="st28" width="73.5" height="17.1"/>
										<rect x="-12.7" y="504.8" class="st29" width="73.5" height="17.1"/>
										<rect x="-12.7" y="521.8" class="st30" width="73.5" height="17.1"/>
										<rect x="-12.7" y="538.8" class="st31" width="73.5" height="17.1"/>
										<rect x="-12.7" y="555.8" class="st32" width="73.5" height="17.1"/>
										<rect x="-12.7" y="572.8" class="st33" width="73.5" height="17.1"/>
										<rect x="-12.7" y="589.8" class="st34" width="73.5" height="17.1"/>
										<rect x="-12.7" y="606.9" class="st35" width="73.5" height="17.1"/>
										<rect x="-12.7" y="623.9" class="st36" width="73.5" height="17.1"/>
										<rect x="-12.7" y="641" class="st37" width="73.5" height="17.1"/>
										<rect x="-12.7" y="657.9" class="st38" width="73.5" height="17.1"/>
										<rect x="-12.7" y="675" class="st39" width="73.5" height="17.1"/>
									</g>
								</g>
							</g>
						</g>
					</g>
				</g>
			</g>
		</g>
	</g>
</g>
<circle class="st40" cx="20.4" cy="22" r="19.8"/>
<g id="Layer_1_00000094618233620819150710000009544971755126034336_">
	<g>
		<path class="st41" d="M20.4,5.8c-3.6,0-6.6,2.8-6.6,6.3v9.3c-2.5,2.1-3.8,5.2-3.4,8.4c0.6,4.4,4.3,7.8,8.8,8.3
			c5.8,0.5,11.1-3.8,11.1-9.4c0-2.8-1.2-5.3-3.4-7.1v-9.2C27,8.7,24,5.8,20.4,5.8z M28.5,28.5c0,4.7-4.4,8.3-9.2,7.9
			c-3.6-0.4-6.7-3.2-7.1-6.9c-0.3-2.8,0.8-5.4,3.1-7.1c0.1-0.1,0.3-0.4,0.3-0.6v-9.6c0-2.6,2.2-4.7,4.8-4.7s4.8,2.1,4.8,4.7v9.6
			c0,0.3,0.1,0.4,0.3,0.6C27.5,23.8,28.5,26,28.5,28.5z"/>
	</g>
	<g>
		<path class="st41" d="M23.5,24.3v-9.9c0-1.7-1.4-3-3.1-3s-3.1,1.4-3.1,3v10c-1.8,1.3-2.6,3.4-2.1,5.4c0.9,3.5,5.6,5,8.7,2.8
			c1.3-1,2.1-2.6,2.1-4C25.8,26.8,24.9,25.2,23.5,24.3z M22.7,31.2c-2.1,1.6-5.3,0.5-5.8-1.8c-0.4-1.6,0.3-3.1,1.8-3.9
			c0.3-0.1,0.4-0.4,0.4-0.6V14.5c0-0.6,0.6-1.4,1.4-1.4s1.4,0.5,1.4,1.4v10.4c0,0.3,0.1,0.5,0.4,0.6c1.2,0.6,1.9,1.8,1.9,3.1
			C24,29.5,23.6,30.4,22.7,31.2z"/>
	</g>
</g>
<rect x="7.3" y="676.6" class="st42" width="15.4" height="12.9"/>
<g class="st43">
	<path class="st41" d="M19.8,720.6c-0.9,0.2-1.7,0.3-2.5,0.3s-1.3-0.1-1.8-0.3c-0.4-0.2-0.8-0.5-1-1c-0.3-0.4-0.4-1-0.5-1.5
		s-0.1-1.3-0.1-2.2c0-1.9,0.2-3.2,0.7-3.9c0.5-0.8,1.4-1.1,2.7-1.1c0.7,0,1.6,0.1,2.6,0.4l-0.1,1.5c-0.9-0.1-1.6-0.2-2.1-0.2
		s-1,0.1-1.2,0.2c-0.2,0.2-0.4,0.4-0.5,1c-0.1,0.4-0.2,1.2-0.2,2.4c0,1.1,0.1,1.9,0.4,2.3c0.3,0.4,0.7,0.7,1.4,0.7s1.5-0.1,2.3-0.2
		L19.8,720.6z"/>
	<path class="st41" d="M22.5,714.6c-0.4-0.4-0.5-0.9-0.5-1.5s0.2-1.2,0.5-1.5c0.4-0.4,0.8-0.5,1.4-0.5c0.6,0,1.1,0.2,1.4,0.5
		c0.4,0.4,0.5,0.9,0.5,1.5s-0.2,1.1-0.5,1.5c-0.4,0.4-0.8,0.5-1.4,0.5C23.3,715.1,22.9,715.1,22.5,714.6z M23.2,712.3
		c-0.2,0.2-0.3,0.4-0.3,0.8s0.1,0.5,0.3,0.8c0.2,0.2,0.4,0.3,0.7,0.3c0.3,0,0.5-0.1,0.7-0.3s0.3-0.4,0.3-0.8s-0.1-0.5-0.3-0.8
		c-0.2-0.3-0.4-0.3-0.7-0.3C23.6,712,23.4,712.1,23.2,712.3z"/>
</g>
<g>
	<path class="st41" d="M10.8,675.7v-1.6h3.6v1.6H10.8z"/>
	<path class="st41" d="M20.9,678.5h-5.1v-1.6l1.7-1.9c0.6-0.7,1-1.2,1.3-1.5c0.2-0.3,0.4-0.8,0.4-1.1s-0.1-0.7-0.3-0.9
		s-0.5-0.2-0.8-0.2c-0.5,0-1.1,0-1.8,0.1H16l-0.1-1.4c0.8-0.2,1.6-0.4,2.4-0.4c1.7,0,2.5,0.9,2.5,2.5c0,0.7-0.1,1.2-0.4,1.6
		s-0.7,1.1-1.4,1.7l-1.4,1.3h3.3C20.9,676.8,20.9,678.5,20.9,678.5z"/>
	<path class="st41" d="M23,670.3c0.5-0.4,1.2-0.7,2.1-0.7c0.9,0,1.6,0.2,2.1,0.7c0.5,0.4,0.8,1,0.8,1.7c0,0.5-0.1,0.9-0.2,1.1
		c-0.1,0.2-0.3,0.5-0.7,0.9c0.4,0.3,0.6,0.7,0.8,0.9c0.2,0.3,0.2,0.7,0.2,1.2c0,0.9-0.3,1.5-0.8,1.9c-0.6,0.4-1.3,0.7-2.2,0.7
		c-2,0-3-0.8-3-2.4c0-0.5,0.1-1,0.2-1.3c0.2-0.3,0.4-0.7,0.8-1c-0.3-0.3-0.6-0.5-0.7-0.9c-0.1-0.4-0.2-0.7-0.2-1.1
		C22.2,671.2,22.5,670.7,23,670.3z M23.8,675.8c0,0.8,0.4,1.2,1.2,1.2c0.8,0,1.2-0.4,1.2-1.2c0-0.4-0.2-0.8-0.7-1h-1.1
		C24.1,675,23.8,675.3,23.8,675.8z M25.1,671.2c-0.4,0-0.6,0.1-0.8,0.2c-0.2,0.2-0.3,0.4-0.3,0.8s0.2,0.7,0.6,1h1.1
		c0.4-0.3,0.6-0.7,0.6-1C26.2,671.6,25.8,671.2,25.1,671.2z"/>
</g>
<line class="st44" x1="2.5" y1="657.6" x2="38.9" y2="657.6"/>
<g>
	<path class="st41" d="M11,641v-1.6h3.6v1.6H11z"/>
	<path class="st41" d="M21.2,643.7h-5.1v-1.5l1.7-1.9c0.6-0.7,1-1.2,1.3-1.5c0.2-0.3,0.4-0.8,0.4-1.1s-0.1-0.7-0.3-0.9
		s-0.5-0.2-0.8-0.2c-0.5,0-1.1,0-1.8,0.1h-0.3l-0.1-1.4c0.8-0.2,1.6-0.4,2.4-0.4c1.7,0,2.5,0.9,2.5,2.5c0,0.7-0.1,1.2-0.4,1.6
		c-0.3,0.4-0.7,1.1-1.4,1.7l-1.4,1.3h3.3V643.7z"/>
	<path class="st41" d="M25.8,643.7v-1.4h-3.4v-1.4l2-5.9h1.8l-2.1,5.7h1.7v-2.4h1.7v2.4h0.7v1.5h-0.8v1.4L25.8,643.7
		C25.8,643.6,25.8,643.7,25.8,643.7z"/>
</g>
<line class="st44" x1="2.4" y1="623.4" x2="38" y2="623.4"/>
<line class="st44" x1="2.1" y1="589.3" x2="39.6" y2="589.3"/>
<line class="st44" x1="2.3" y1="555.3" x2="38.7" y2="555.3"/>
<line class="st44" x1="2.3" y1="521.3" x2="38.7" y2="521.3"/>
<line class="st44" x1="2.1" y1="487.3" x2="38.7" y2="487.3"/>
<line class="st44" x1="2.1" y1="453.4" x2="39" y2="453.4"/>
<line class="st44" x1="2.1" y1="419.2" x2="39.6" y2="419.2"/>
<line class="st44" x1="1.4" y1="402.2" x2="14.3" y2="402.2"/>
<line class="st44" x1="2.1" y1="385.2" x2="38.7" y2="385.2"/>
<line class="st44" x1="2.1" y1="351.1" x2="38.7" y2="351.1"/>
<line class="st44" x1="2.1" y1="317.1" x2="39.6" y2="317.1"/>
<line class="st44" x1="1.4" y1="282.9" x2="39" y2="282.9"/>
<line class="st44" x1="2.1" y1="248.9" x2="39" y2="248.9"/>
<line class="st44" x1="2.1" y1="214.8" x2="39" y2="214.8"/>
<line class="st44" x1="2.1" y1="180.8" x2="38.2" y2="180.8"/>
<line class="st44" x1="2.1" y1="146.7" x2="39" y2="146.7"/>
<line class="st44" x1="1.3" y1="112.7" x2="39.8" y2="112.7"/>
<line class="st44" x1="2.4" y1="78.6" x2="39.3" y2="78.6"/>
<g>
	<path class="st41" d="M11.1,606.3v-1.6h3.6v1.6H11.1z"/>
	<path class="st41" d="M21.2,608.9h-5.1v-1.5l1.7-1.9c0.6-0.7,1-1.2,1.3-1.5c0.2-0.3,0.4-0.8,0.4-1.1s-0.1-0.7-0.3-0.9
		s-0.5-0.2-0.8-0.2c-0.5,0-1.1,0-1.8,0.1h-0.3l-0.1-1.4c0.8-0.2,1.6-0.4,2.4-0.4c1.7,0,2.5,0.9,2.5,2.5c0,0.7-0.1,1.2-0.4,1.6
		s-0.7,1.1-1.4,1.7l-1.4,1.3h3.3V608.9z"/>
	<path class="st41" d="M23.1,601.3c0.5-0.8,1.3-1.1,2.3-1.1s1.8,0.3,2.3,1.1s0.8,1.9,0.8,3.5s-0.3,2.7-0.8,3.4s-1.3,1-2.3,1
		s-1.8-0.3-2.3-1s-0.8-1.9-0.8-3.4S22.5,602,23.1,601.3z M26.7,604.7c0-1.1-0.1-1.9-0.3-2.3c-0.2-0.4-0.6-0.7-1-0.7
		c-0.5,0-0.8,0.2-1.1,0.7c-0.2,0.4-0.3,1.2-0.3,2.3s0.1,1.9,0.3,2.3c0.2,0.4,0.6,0.7,1.1,0.7s0.8-0.2,1-0.7S26.7,605.8,26.7,604.7z"
		/>
</g>
<g>
	<path class="st41" d="M11.4,572.8v-1.6H15v1.6H11.4z"/>
	<path class="st41" d="M20.7,566.9v8.6H19v-6.6l-1.7,1.2l-0.8-1.3l2.6-1.9H20.7L20.7,566.9z"/>
	<path class="st41" d="M28.3,568.4c-0.8-0.1-1.5-0.2-2.1-0.2c-1.1,0-1.7,0.7-1.7,2l0.3-0.1c0.5-0.2,0.9-0.2,1.3-0.2
		c0.9,0,1.6,0.2,2,0.7c0.5,0.4,0.7,1.2,0.7,2.1s-0.3,1.6-0.8,2.2c-0.5,0.4-1.3,0.8-2.2,0.8s-1.7-0.4-2.2-1.2s-0.7-2-0.7-3.4
		s0.3-2.6,0.9-3.3c0.6-0.8,1.4-1.1,2.4-1.1c0.6,0,1.3,0.1,2,0.3l0.4,0.1L28.3,568.4z M25.9,571.5c-0.4,0-0.8,0.1-1.2,0.2l-0.2,0.1
		c0,1.5,0.4,2.3,1.3,2.3c0.4,0,0.7-0.1,0.9-0.3s0.3-0.5,0.3-1C27,571.9,26.6,571.5,25.9,571.5z"/>
</g>
<g>
	<path class="st41" d="M11.1,538.9v-1.6h3.6v1.6H11.1z"/>
	<path class="st41" d="M20.3,532.9v8.6h-1.7v-6.6l-1.7,1.2l-0.8-1.3l2.6-1.9H20.3L20.3,532.9z"/>
	<path class="st41" d="M27.9,541.5h-5.1V540l1.7-1.9c0.6-0.7,1-1.2,1.3-1.5c0.2-0.3,0.4-0.8,0.4-1.1s-0.1-0.7-0.3-0.9
		s-0.5-0.2-0.8-0.2c-0.5,0-1.1,0-1.8,0.1H23l-0.1-1.4c0.8-0.2,1.6-0.4,2.4-0.4c1.7,0,2.5,0.9,2.5,2.5c0,0.7-0.1,1.2-0.4,1.6
		c-0.3,0.4-0.7,1.1-1.4,1.7l-1.4,1.3h3.3C27.9,539.9,27.9,541.5,27.9,541.5z"/>
</g>
<g>
	<path class="st41" d="M15.1,504.8v-1.6h3.6v1.6H15.1z"/>
	<path class="st41" d="M20.6,499.2c0.5-0.4,1.2-0.7,2.1-0.7c0.9,0,1.6,0.2,2.1,0.7c0.5,0.4,0.8,1,0.8,1.7c0,0.5-0.1,0.9-0.2,1.1
		c-0.1,0.2-0.3,0.5-0.7,0.9c0.4,0.3,0.6,0.7,0.8,0.9c0.2,0.3,0.2,0.7,0.2,1.2c0,0.9-0.3,1.5-0.8,1.9s-1.3,0.7-2.2,0.7
		c-2,0-3-0.8-3-2.4c0-0.5,0.1-1,0.2-1.3c0.1-0.3,0.4-0.7,0.8-1c-0.3-0.3-0.6-0.5-0.7-0.9c-0.1-0.4-0.2-0.7-0.2-1.1
		C19.8,500.2,20.1,499.6,20.6,499.2z M21.5,504.8c0,0.8,0.4,1.2,1.2,1.2c0.8,0,1.2-0.4,1.2-1.2c0-0.4-0.2-0.8-0.7-1h-1
		C21.7,504,21.5,504.3,21.5,504.8z M22.7,500.2c-0.4,0-0.6,0.1-0.8,0.2c-0.2,0.1-0.3,0.4-0.3,0.8s0.2,0.7,0.6,1h1
		c0.4-0.3,0.6-0.7,0.6-1C23.8,500.6,23.5,500.2,22.7,500.2z"/>
</g>
<g>
	<path class="st41" d="M15.1,471.1v-1.6h3.6v1.6H15.1z"/>
	<path class="st41" d="M23.2,473.9v-1.4h-3.4v-1.4l2-5.9h1.8l-2.1,5.7h1.7v-2.4h1.7v2.4h0.8v1.5h-0.8v1.4L23.2,473.9L23.2,473.9z"/>
</g>
<g>
	<path class="st40" d="M18,432.2c0.5-0.8,1.3-1.1,2.3-1.1s1.8,0.3,2.3,1.1c0.5,0.8,0.8,1.9,0.8,3.5s-0.3,2.7-0.8,3.4s-1.3,1-2.3,1
		s-1.8-0.3-2.3-1s-0.8-1.9-0.8-3.4S17.5,433,18,432.2z M21.6,435.6c0-1.1-0.1-1.9-0.3-2.3c-0.2-0.4-0.6-0.7-1-0.7
		c-0.5,0-0.8,0.2-1.1,0.7c-0.2,0.4-0.3,1.2-0.3,2.3c0,1.1,0.1,1.9,0.3,2.3c0.2,0.4,0.6,0.7,1.1,0.7s0.8-0.2,1-0.7
		C21.5,437.5,21.6,436.7,21.6,435.6z"/>
</g>
<g>
	<path class="st45" d="M20.6,405.9v-1.4h-3.4v-1.4l2-5.9H21l-2.1,5.7h1.7v-2.4h1.6v2.4H23v1.5h-0.8v1.4L20.6,405.9L20.6,405.9z"/>
</g>
<g>
	<path class="st45" d="M18.1,363.6c0.5-0.4,1.2-0.7,2.1-0.7c0.9,0,1.6,0.2,2.1,0.7c0.5,0.4,0.8,1,0.8,1.7c0,0.5-0.1,0.9-0.2,1.1
		c-0.1,0.2-0.3,0.5-0.7,0.9c0.4,0.3,0.6,0.7,0.8,0.9c0.2,0.3,0.2,0.7,0.2,1.2c0,0.9-0.3,1.5-0.8,1.9c-0.6,0.4-1.3,0.7-2.2,0.7
		c-2,0-3-0.8-3-2.4c0-0.5,0.1-1,0.2-1.3c0.2-0.3,0.4-0.7,0.8-1c-0.3-0.3-0.6-0.5-0.7-0.9c-0.1-0.4-0.2-0.7-0.2-1.1
		C17.3,364.6,17.5,364,18.1,363.6z M18.9,369.1c0,0.8,0.4,1.2,1.2,1.2c0.8,0,1.2-0.4,1.2-1.2c0-0.4-0.2-0.8-0.7-1h-1.1
		C19.2,368.4,18.9,368.7,18.9,369.1z M20.2,364.6c-0.4,0-0.6,0.1-0.8,0.2c-0.2,0.2-0.3,0.4-0.3,0.8s0.2,0.7,0.6,1h1.1
		c0.4-0.3,0.6-0.7,0.6-1C21.3,364.9,20.9,364.6,20.2,364.6z"/>
</g>
<g>
	<path class="st45" d="M18.5,328.3v8.6h-1.7v-6.6l-1.7,1.2l-0.8-1.3l2.6-1.9L18.5,328.3C18.5,328.3,18.5,328.3,18.5,328.3z"/>
	<path class="st45" d="M26.1,336.9H21v-1.5l1.7-1.9c0.6-0.7,1-1.2,1.3-1.5c0.2-0.3,0.4-0.8,0.4-1.1s-0.1-0.7-0.3-0.9
		c-0.2-0.2-0.5-0.2-0.8-0.2c-0.5,0-1.1,0-1.8,0.1h-0.3l-0.1-1.4c0.8-0.2,1.6-0.4,2.4-0.4c1.7,0,2.5,0.9,2.5,2.5
		c0,0.7-0.1,1.2-0.4,1.6s-0.7,1.1-1.4,1.7l-1.4,1.3h3.3C26.1,335.3,26.1,336.9,26.1,336.9z"/>
</g>
<g>
	<path class="st45" d="M18.3,293.7v8.6h-1.7v-6.6l-1.7,1.2l-0.8-1.3l2.6-1.9L18.3,293.7L18.3,293.7z"/>
	<path class="st45" d="M26,295.4c-0.8-0.1-1.5-0.2-2.1-0.2c-1.1,0-1.7,0.7-1.7,2l0.3-0.1c0.5-0.2,0.9-0.2,1.3-0.2
		c0.9,0,1.6,0.2,2,0.7c0.4,0.4,0.7,1.2,0.7,2.1s-0.3,1.6-0.8,2.2c-0.5,0.4-1.3,0.8-2.2,0.8c-1,0-1.7-0.4-2.2-1.2
		c-0.5-0.8-0.7-2-0.7-3.4s0.3-2.6,0.9-3.3c0.6-0.8,1.4-1.1,2.4-1.1c0.6,0,1.3,0.1,2,0.3l0.4,0.1L26,295.4z M23.5,298.4
		c-0.4,0-0.8,0.1-1.2,0.2l-0.2,0.1c0,1.5,0.4,2.3,1.3,2.3c0.4,0,0.7-0.1,0.9-0.3c0.2-0.2,0.3-0.5,0.3-1
		C24.7,298.9,24.3,298.4,23.5,298.4z"/>
</g>
<g>
	<path class="st45" d="M19.4,268.4h-5.1v-1.6l1.7-1.9c0.6-0.7,1-1.2,1.3-1.5s0.4-0.8,0.4-1.1s-0.1-0.7-0.3-0.9
		c-0.2-0.2-0.5-0.2-0.8-0.2c-0.5,0-1.1,0-1.8,0.1h-0.3l-0.1-1.4c0.8-0.2,1.6-0.4,2.4-0.4c1.7,0,2.5,0.9,2.5,2.5
		c0,0.7-0.1,1.2-0.4,1.6s-0.7,1.1-1.4,1.7l-1.4,1.3h3.3C19.4,266.6,19.4,268.4,19.4,268.4z"/>
	<path class="st45" d="M21.3,260.6c0.5-0.8,1.3-1.1,2.3-1.1s1.8,0.3,2.3,1.1s0.8,1.9,0.8,3.5s-0.3,2.7-0.8,3.4s-1.3,1-2.3,1
		s-1.8-0.3-2.3-1s-0.8-1.9-0.8-3.4S20.8,261.3,21.3,260.6z M24.9,264c0-1.1-0.1-1.9-0.3-2.3s-0.6-0.7-1-0.7c-0.5,0-0.8,0.2-1.1,0.7
		c-0.2,0.4-0.3,1.2-0.3,2.3c0,1.1,0.1,1.9,0.3,2.3s0.6,0.7,1.1,0.7s0.8-0.2,1-0.7C24.8,265.9,24.9,265.1,24.9,264z"/>
</g>
<g>
	<path class="st41" d="M19.5,234.3h-5.1v-1.5l1.7-1.9c0.6-0.7,1-1.2,1.3-1.5s0.4-0.8,0.4-1.1s-0.1-0.7-0.3-0.9
		c-0.2-0.2-0.5-0.2-0.8-0.2c-0.5,0-1.1,0-1.8,0.1h-0.3l-0.1-1.4c0.8-0.2,1.6-0.4,2.4-0.4c1.7,0,2.5,0.9,2.5,2.5
		c0,0.7-0.1,1.2-0.4,1.6s-0.7,1.1-1.4,1.7l-1.4,1.3h3.3C19.5,232.6,19.5,234.3,19.5,234.3z"/>
	<path class="st41" d="M24.2,234.3v-1.4h-3.4v-1.4l2-5.9h1.8l-2.1,5.7h1.7v-2.4h1.7v2.4h0.8v1.5h-0.8v1.4L24.2,234.3L24.2,234.3z"/>
</g>
<g>
	<path class="st41" d="M19.5,201.4h-5.1v-1.5l1.7-1.9c0.6-0.7,1-1.2,1.3-1.5s0.4-0.8,0.4-1.1s-0.1-0.7-0.3-0.9
		c-0.2-0.2-0.5-0.2-0.8-0.2c-0.5,0-1.1,0-1.8,0.1h-0.3l-0.1-1.4c0.8-0.2,1.6-0.4,2.4-0.4c1.7,0,2.5,0.9,2.5,2.5
		c0,0.7-0.1,1.2-0.4,1.6s-0.7,1.1-1.4,1.7l-1.4,1.3h3.3C19.5,199.7,19.5,201.4,19.5,201.4z"/>
	<path class="st41" d="M21.5,193.2c0.5-0.4,1.2-0.7,2.1-0.7c0.9,0,1.6,0.2,2.1,0.7s0.8,1,0.8,1.7c0,0.5-0.1,0.9-0.2,1.1
		c-0.1,0.2-0.3,0.5-0.7,0.9c0.4,0.3,0.6,0.7,0.8,0.9c0.2,0.3,0.2,0.7,0.2,1.2c0,0.9-0.3,1.5-0.8,1.9c-0.5,0.3-1.3,0.7-2.2,0.7
		c-2,0-3-0.8-3-2.4c0-0.5,0.1-1,0.2-1.3c0.1-0.3,0.4-0.7,0.8-1c-0.3-0.3-0.6-0.5-0.7-0.9c-0.1-0.4-0.2-0.7-0.2-1.1
		C20.7,194.2,21,193.6,21.5,193.2z M22.4,198.8c0,0.8,0.4,1.2,1.2,1.2c0.8,0,1.2-0.4,1.2-1.2c0-0.4-0.2-0.8-0.7-1H23
		C22.6,198,22.4,198.3,22.4,198.8z M23.6,194.2c-0.4,0-0.6,0.1-0.8,0.2c-0.2,0.1-0.3,0.4-0.3,0.8c0,0.3,0.2,0.7,0.6,1h1.1
		c0.4-0.3,0.6-0.7,0.6-1C24.7,194.5,24.4,194.2,23.6,194.2z"/>
</g>
<g>
	<path class="st41" d="M14.4,159c0.7-0.3,1.6-0.4,2.5-0.4c0.9,0,1.6,0.2,2,0.5c0.4,0.3,0.6,1,0.6,1.9s-0.3,1.5-0.9,2
		c0.4,0.2,0.7,0.4,0.8,0.7c0.1,0.2,0.2,0.7,0.2,1.2c0,1-0.2,1.6-0.6,2.1c-0.4,0.5-1.1,0.7-2.1,0.7c-0.7,0-1.4-0.1-2.2-0.3l-0.4-0.1
		l0.1-1.4c0.9,0.2,1.6,0.2,2.3,0.2c0.8,0,1.2-0.4,1.2-1.2c0-0.3-0.1-0.5-0.3-0.8c-0.2-0.2-0.5-0.3-0.8-0.3h-1.6v-1.5h1.6
		c0.3,0,0.5-0.1,0.7-0.3s0.3-0.5,0.3-0.8c0-0.7-0.4-1-1.2-1c-0.6,0-1.1,0.1-1.8,0.2h-0.3L14.4,159z"/>
	<path class="st41" d="M26.3,167.3h-5.1v-1.5l1.7-1.9c0.6-0.7,1-1.2,1.3-1.5c0.2-0.3,0.4-0.8,0.4-1.1s-0.1-0.7-0.3-0.9
		c-0.2-0.2-0.5-0.2-0.8-0.2c-0.5,0-1.1,0-1.8,0.1h-0.3l-0.1-1.4c0.8-0.2,1.6-0.4,2.4-0.4c1.7,0,2.5,0.9,2.5,2.5
		c0,0.7-0.1,1.2-0.4,1.6s-0.7,1.1-1.4,1.7l-1.4,1.3h3.3C26.3,165.6,26.3,167.3,26.3,167.3z"/>
</g>
<g>
	<path class="st41" d="M14.3,124.2c0.7-0.3,1.6-0.4,2.5-0.4c0.9,0,1.6,0.2,2,0.5c0.4,0.3,0.6,1,0.6,1.9s-0.3,1.5-0.9,2
		c0.4,0.2,0.7,0.4,0.8,0.7c0.1,0.2,0.2,0.7,0.2,1.2c0,1-0.2,1.6-0.6,2.1c-0.4,0.5-1.1,0.7-2.1,0.7c-0.7,0-1.4-0.1-2.2-0.3l-0.4-0.1
		l0.1-1.6c0.9,0.2,1.6,0.2,2.3,0.2c0.8,0,1.2-0.4,1.2-1.2c0-0.3-0.1-0.5-0.3-0.8c-0.2-0.2-0.5-0.3-0.8-0.3h-1.6v-1.5h1.6
		c0.3,0,0.5-0.1,0.7-0.3s0.3-0.5,0.3-0.8c0-0.7-0.4-1-1.2-1c-0.6,0-1.1,0.1-1.8,0.2h-0.3L14.3,124.2z"/>
	<path class="st41" d="M26.2,125.5c-0.8-0.1-1.5-0.2-2.1-0.2c-1.1,0-1.7,0.7-1.7,2l0.3-0.1c0.5-0.2,0.9-0.2,1.3-0.2
		c0.9,0,1.6,0.2,2,0.7c0.5,0.4,0.7,1.2,0.7,2.1c0,0.9-0.3,1.6-0.8,2.2c-0.5,0.4-1.3,0.8-2.2,0.8s-1.7-0.4-2.2-1.2s-0.7-2-0.7-3.4
		c0-1.4,0.3-2.6,0.9-3.3c0.6-0.8,1.4-1.1,2.4-1.1c0.6,0,1.3,0.1,2,0.3l0.4,0.1L26.2,125.5z M23.8,128.6c-0.4,0-0.8,0.1-1.2,0.2
		l-0.2,0.1c0,1.5,0.4,2.3,1.3,2.3c0.4,0,0.7-0.1,0.9-0.3c0.2-0.2,0.3-0.5,0.3-1C24.9,129,24.5,128.6,23.8,128.6z"/>
</g>
<g>
	<path class="st40" d="M17.6,99.6v-1.4h-3.4v-1.4l2-5.9H18l-2.1,5.7h1.7v-2.4h1.6v2.4H20v1.5h-0.8v1.4h-1.6V99.6z"/>
	<path class="st40" d="M21.5,91.9c0.5-0.8,1.3-1.1,2.3-1.1s1.8,0.3,2.3,1.1s0.8,1.9,0.8,3.5s-0.3,2.7-0.8,3.4c-0.5,0.7-1.3,1-2.3,1
		s-1.8-0.3-2.3-1s-0.8-1.9-0.8-3.4S21,92.6,21.5,91.9z M25.2,95.3c0-1.1-0.1-1.9-0.3-2.3s-0.6-0.7-1-0.7c-0.5,0-0.8,0.2-1.1,0.7
		c-0.2,0.4-0.3,1.2-0.3,2.3c0,1.1,0.1,1.9,0.3,2.3s0.6,0.7,1.1,0.7s0.8-0.2,1-0.7C25.1,97.1,25.2,96.3,25.2,95.3z"/>
</g>
<g>
	<path class="st40" d="M17.5,65.1v-1.4h-3.3v-1.3l2-5.9H18l-2.1,5.7h1.7v-2.4h1.6v2.4H20v1.5h-0.8v1.4H17.5z"/>
	<path class="st40" d="M24.2,65.1v-1.4h-3.4v-1.3l2-5.9h1.8l-2.1,5.7h1.7v-2.4h1.7v2.4h0.8v1.5h-0.8v1.4H24.2z"/>
</g>
<line class="st44" x1="25.5" y1="402.2" x2="38.3" y2="402.2"/>
<line class="st44" x1="2.1" y1="436.1" x2="13.6" y2="436.1"/>
<line class="st44" x1="38.7" y1="436.1" x2="25.4" y2="436.1"/>
<line class="st44" x1="2.2" y1="470.2" x2="14.1" y2="470.2"/>
<line class="st44" x1="38.5" y1="470.2" x2="27.1" y2="470.2"/>
<line class="st44" x1="2.3" y1="504.2" x2="14.1" y2="504.2"/>
<line class="st44" x1="38.5" y1="504.2" x2="27.1" y2="504.2"/>
<line class="st44" x1="38.3" y1="538.3" x2="29.4" y2="538.3"/>
<line class="st44" x1="2.5" y1="538.4" x2="10.2" y2="538.3"/>
<line class="st44" x1="2.7" y1="606.3" x2="8.5" y2="606.4"/>
<line class="st44" x1="38.1" y1="606.7" x2="29.4" y2="606.7"/>
<line class="st44" x1="2.3" y1="640.4" x2="8.7" y2="640.4"/>
<line class="st44" x1="38.7" y1="640.4" x2="30.2" y2="640.4"/>
<line class="st44" x1="2.1" y1="674.2" x2="10.3" y2="674.2"/>
<line class="st44" x1="38.3" y1="674.2" x2="30.2" y2="674.2"/>
<line class="st44" x1="2.3" y1="572.3" x2="10.4" y2="572.3"/>
<line class="st44" x1="38.7" y1="572.3" x2="29.8" y2="572.3"/>
<line class="st44" x1="2.1" y1="367.9" x2="13.7" y2="367.9"/>
<line class="st44" x1="25.4" y1="367.9" x2="38.3" y2="367.9"/>
<line class="st44" x1="2.8" y1="334.1" x2="14.3" y2="334.1"/>
<line class="st44" x1="26.5" y1="334.1" x2="38.3" y2="334.1"/>
<line class="st44" x1="1.7" y1="300" x2="14.4" y2="300"/>
<line class="st44" x1="38.4" y1="300" x2="27.2" y2="300"/>
<line class="st44" x1="1.7" y1="266" x2="12.5" y2="266"/>
<line class="st44" x1="38.7" y1="266" x2="27.8" y2="266"/>
<line class="st44" x1="2.5" y1="231.9" x2="13.5" y2="231.9"/>
<line class="st44" x1="38.9" y1="231.9" x2="27.8" y2="231.9"/>
<line class="st44" x1="2.3" y1="197.7" x2="14.4" y2="197.7"/>
<line class="st44" x1="38.2" y1="197.9" x2="27.2" y2="197.9"/>
<line class="st44" x1="14.2" y1="163.7" x2="1.7" y2="163.7"/>
<line class="st44" x1="38.2" y1="163.9" x2="27.2" y2="163.9"/>
<line class="st44" x1="2.3" y1="129.8" x2="14.3" y2="129.8"/>
<line class="st44" x1="39" y1="129.8" x2="27.8" y2="129.8"/>
<line class="st44" x1="2.5" y1="95.7" x2="13.5" y2="95.9"/>
<line class="st44" x1="39" y1="95.8" x2="27.6" y2="95.8"/>
<line class="st44" x1="2.6" y1="61.6" x2="13.3" y2="61.6"/>
<line class="st44" x1="27.3" y1="61.6" x2="39" y2="61.6"/>
<line class="st44" x1="3.1" y1="691.9" x2="39.6" y2="691.9"/>
<path class="st46" d="M32.6,723.6H7.8c-3.4,0-6.3-3-6.3-6.7V51.1c0-3.7,2.8-6.7,6.3-6.7h24.8c3.4,0,6.3,3,6.3,6.7v665.8
	C38.9,720.6,36.1,723.6,32.6,723.6z"/>
</svg>
