<?xml version="1.0" encoding="utf-8"?>
<!-- Generator: Adobe Illustrator 16.0.0, SVG Export Plug-In . SVG Version: 6.00 Build 0)  -->
<!DOCTYPE svg PUBLIC "-//W3C//DTD SVG 1.1//EN" "http://www.w3.org/Graphics/SVG/1.1/DTD/svg11.dtd" [
	<!ENTITY ns_extend "http://ns.adobe.com/Extensibility/1.0/">
	<!ENTITY ns_ai "http://ns.adobe.com/AdobeIllustrator/10.0/">
	<!ENTITY ns_graphs "http://ns.adobe.com/Graphs/1.0/">
	<!ENTITY ns_vars "http://ns.adobe.com/Variables/1.0/">
	<!ENTITY ns_imrep "http://ns.adobe.com/ImageReplacement/1.0/">
	<!ENTITY ns_sfw "http://ns.adobe.com/SaveForWeb/1.0/">
	<!ENTITY ns_custom "http://ns.adobe.com/GenericCustomNamespace/1.0/">
	<!ENTITY ns_adobe_xpath "http://ns.adobe.com/XPath/1.0/">
]>
<svg version="1.1" id="Livello_1" xmlns:x="&ns_extend;" xmlns:i="&ns_ai;" xmlns:graph="&ns_graphs;"
	 xmlns="http://www.w3.org/2000/svg" xmlns:xlink="http://www.w3.org/1999/xlink" x="0px" y="0px" width="43.8px"
	 height="725.199px" viewBox="-21.76 478.846 43.8 725.199" enable-background="new -21.76 478.846 43.8 725.199"
	 xml:space="preserve">
<metadata>
	<sfw  xmlns="&ns_sfw;">
		<slices></slices>
		<sliceSourceBounds  width="16383" height="16406" x="-7894" y="-7771" bottomLeftOrigin="true"></sliceSourceBounds>
	</sfw>
</metadata>
<g>
	<g>
		<g>
			<g>
				<g>
					<g>
						<g>
							<g>
								<g>
									<g>
										<g>
											<defs>
												<path id="SVGID_1_" d="M19.4,1197.909c-0.5,4.313-9.529,4.813-18.26,4.813l-5.617-0.199
													c-8.527,0.401-14.346-2.608-14.346-7.725V527.946c1.805-6.02,6.421-6.521,13.343-6.521l9.53-0.2
													c7.825,0,13.645,0.904,15.45,7.023l0.3,666.552L19.4,1197.909z"/>
											</defs>
											<clipPath id="SVGID_2_">
												<use xlink:href="#SVGID_1_"  overflow="visible"/>
											</clipPath>
											<g clip-path="url(#SVGID_2_)">
												<g>
													
														<rect x="-18.622" y="514.404" opacity="0.88" fill="#FF00C3" enable-background="new    " width="38.625" height="79.556"/>
													<polygon opacity="0.88" fill="#EE82EE" enable-background="new    " points="-18.721,673.516 -18.622,592.956 
														20.003,594.863 19.903,675.622 													"/>
													
														<rect x="-18.622" y="673.516" opacity="0.88" fill="#FF3333" enable-background="new    " width="38.625" height="79.557"/>
													
														<rect x="-18.421" y="753.274" opacity="0.88" fill="#FFFF00" enable-background="new    " width="37.821" height="79.656"/>
													
														<rect x="-18.421" y="832.93" opacity="0.88" fill="#4BCF4F" enable-background="new    " width="37.821" height="79.455"/>
													
														<rect x="-18.822" y="912.487" opacity="0.88" fill="#7070FF" enable-background="new    " width="37.722" height="79.759"/>
													
														<rect x="-18.622" y="992.042" opacity="0.88" fill="#8BD8F9" enable-background="new    " width="37.221" height="79.658"/>
													
														<rect x="-18.622" y="1071.7" opacity="0.88" fill="#E0F4FE" enable-background="new    " width="37.221" height="131.225"/>
												</g>
											</g>
										</g>
									</g>
								</g>
							</g>
						</g>
					</g>
				</g>
			</g>
		</g>
	</g>
</g>
<rect x="-13.103" y="1112.355" fill="none" width="15.45" height="11.839"/>
<line fill="none" stroke="#3C3430" stroke-miterlimit="9.7722" x1="-17.518" y1="1071.925" x2="-6.341" y2="1071.925"/>
<line fill="none" stroke="#3C3430" stroke-miterlimit="9.7722" x1="18.297" y1="1071.925" x2="7.755" y2="1071.925"/>
<line fill="none" stroke="#3C3430" stroke-miterlimit="9.7722" x1="-18.019" y1="593.882" x2="-7.184" y2="593.882"/>
<line fill="none" stroke="#3C3430" stroke-miterlimit="9.7722" x1="17.898" y1="593.882" x2="8.768" y2="593.882"/>
<line fill="none" stroke="#3C3430" stroke-miterlimit="9.7722" x1="-18.521" y1="912.812" x2="-6.984" y2="912.812"/>
<line fill="none" stroke="#3C3430" stroke-miterlimit="9.7722" x1="17.996" y1="912.812" x2="6.46" y2="912.812"/>
<line fill="none" stroke="#3C3430" stroke-miterlimit="9.7722" x1="-18.119" y1="753.397" x2="-5.779" y2="753.397"/>
<line fill="none" stroke="#3C3430" stroke-miterlimit="9.7722" x1="18.398" y1="753.397" x2="7.763" y2="753.397"/>
<line fill="none" stroke="#3C3430" stroke-miterlimit="9.7722" x1="-19.023" y1="673.94" x2="-7.886" y2="673.94"/>
<line fill="none" stroke="#3C3430" stroke-miterlimit="9.7722" x1="17.495" y1="673.94" x2="9.067" y2="673.94"/>
<line fill="none" stroke="#3C3430" stroke-miterlimit="9.7722" x1="-17.417" y1="832.853" x2="-5.077" y2="832.853"/>
<line fill="none" stroke="#3C3430" stroke-miterlimit="9.7722" x1="19.101" y1="832.853" x2="6.962" y2="832.853"/>
<line fill="none" stroke="#3C3430" stroke-miterlimit="9.7722" x1="-17.919" y1="992.366" x2="-6.288" y2="992.366"/>
<line fill="none" stroke="#3C3430" stroke-miterlimit="9.7722" x1="18.599" y1="992.366" x2="7.755" y2="992.366"/>
<circle fill="#39322E" cx="0.139" cy="498.775" r="19.864"/>
<path fill="none" stroke="#3C3430" stroke-width="2" stroke-miterlimit="9.7722" d="M12.278,1202.949l-24.579-0.001
	c-3.411,0-6.221-3.01-6.221-6.723V528.269c0-3.71,2.809-6.721,6.221-6.721h24.579c3.411,0,6.22,3.01,6.22,6.721v667.957
	C18.498,1199.939,15.689,1202.949,12.278,1202.949z"/>
<path fill="#FFFFFF" d="M3.149,490.045c1.104-0.599,2.61,0.202,2.61,1.406c0,0.902-0.804,1.705-1.706,1.705h-19.564
	c-1.104,0-1.404,0.604-1.404,1.405c0,0.603,0.3,1.404,1.404,1.404H4.053c2.408,0,4.313-2.007,4.313-4.314
	c0-3.31-3.611-5.518-6.521-3.61c-0.301,0.198-0.802,0.501-1.102,0.601c-1.205,0.805-0.602,2.409,0.601,2.409
	c0.302,0,0.501,0,0.803-0.201C2.347,490.55,2.748,490.346,3.149,490.045L3.149,490.045L3.149,490.045z M8.466,508.106
	c-1.204-0.601-0.601-2.409,0.601-2.409c0.904,0,1.707,1.104,2.71,1.104c0.903,0,1.705-0.803,1.705-1.705
	c0-0.903-0.802-1.707-1.705-1.707c-7.826,0-19.363-0.2-27.289-0.2c-0.803,0-1.203-0.601-1.203-1.403
	c0-0.805,0.501-1.404,1.203-1.404c7.825,0,19.361,0.197,27.289,0.197c2.406,0,4.313,2.008,4.313,4.314
	c0,3.312-3.611,5.518-6.522,3.612C9.167,508.507,8.768,508.408,8.466,508.106L8.466,508.106L8.466,508.106z M-15.511,499.576
	c-1.404,0-1.404-1.103-1.404-1.404c0-0.301,0-1.404,1.404-1.404h30.098c0.601,0,1.404-0.601,1.504-1.203
	c0.502-1.507-1.205-2.609-2.408-1.807c-0.301,0.199-0.801,0.502-1.103,0.601c-0.904,0.604-2.006-0.198-2.006-1.101
	c0-0.502,0.301-0.904,0.601-1.206c1.405-0.802,2.107-1.503,4.014-1.405c1.504,0.202,2.71,1.104,3.31,2.407
	c1.405,3.213-0.903,6.222-4.013,6.222L-15.511,499.576L-15.511,499.576z"/>
<g>
	<path fill="#3C3530" d="M-5.278,588.664v7.325h-1.505v-5.519l-1.605,1.004l-0.702-1.104l2.407-1.604h1.405V588.664L-5.278,588.664z
		"/>
	<path fill="#3C3530" d="M-2.569,588.966c0.5-0.302,1.104-0.502,1.906-0.502c0.804,0,1.406,0.2,1.907,0.502
		c0.501,0.4,0.703,0.802,0.703,1.505c0,0.4-0.101,0.702-0.201,1.004c-0.1,0.199-0.3,0.401-0.603,0.702
		c0.303,0.301,0.603,0.501,0.703,0.801c0.101,0.202,0.2,0.604,0.2,1.005c0,0.703-0.3,1.204-0.802,1.605
		c-0.501,0.302-1.205,0.501-2.006,0.501c-1.806,0-2.809-0.704-2.809-2.007c0-0.501,0.101-0.801,0.201-1.104
		c0.101-0.3,0.401-0.5,0.703-0.801c-0.301-0.201-0.503-0.503-0.603-0.702c-0.101-0.201-0.201-0.604-0.201-0.904
		C-3.272,589.869-3.072,589.366-2.569,588.966z M-1.767,593.68c0,0.604,0.4,1.006,1.103,1.006c0.804,0,1.104-0.304,1.104-1.006
		c0-0.398-0.201-0.702-0.602-0.801h-1.003C-1.566,593.077-1.767,593.281-1.767,593.68z M-0.664,589.869
		c-0.301,0-0.602,0.1-0.803,0.198c-0.201,0.101-0.301,0.403-0.301,0.703c0,0.301,0.201,0.603,0.502,0.803h1.002
		c0.402-0.2,0.502-0.502,0.502-0.902C0.439,590.168,0.039,589.869-0.664,589.869z"/>
	<path fill="#3C3530" d="M3.449,589.366c0.502-0.603,1.205-0.902,2.108-0.902c0.902,0,1.604,0.3,2.107,0.902
		c0.501,0.603,0.702,1.604,0.702,2.909c0,1.304-0.2,2.31-0.702,2.91c-0.502,0.6-1.204,0.902-2.107,0.902s-1.605-0.303-2.108-0.902
		c-0.501-0.601-0.702-1.506-0.702-2.91C2.748,590.971,2.947,589.969,3.449,589.366z M6.76,592.276c0-0.902-0.1-1.503-0.3-1.905
		c-0.201-0.401-0.503-0.501-1.004-0.501c-0.502,0-0.803,0.198-1.003,0.501c-0.2,0.301-0.3,1.003-0.3,1.905
		c0,0.904,0.099,1.507,0.3,1.906c0.201,0.403,0.501,0.504,1.003,0.504c0.5,0,0.803-0.202,1.004-0.504
		C6.66,593.882,6.76,593.18,6.76,592.276z"/>
</g>
<g>
	<path fill="#3C3530" d="M-4.576,669.224v7.324h-1.505v-5.517l-1.605,1.004l-0.703-1.104l2.408-1.604h1.404L-4.576,669.224
		L-4.576,669.224z"/>
	<path fill="#3C3530" d="M-2.069,670.027c0.503-0.601,1.205-0.902,2.107-0.902c0.904,0,1.605,0.302,2.107,0.902
		c0.501,0.602,0.703,1.604,0.703,2.909c0,1.306-0.201,2.308-0.703,2.91c-0.502,0.601-1.203,0.904-2.107,0.904
		c-0.902,0-1.604-0.304-2.107-0.904c-0.5-0.603-0.702-1.506-0.702-2.91S-2.569,670.63-2.069,670.027z M1.343,672.837
		c0-0.904-0.1-1.506-0.301-1.908c-0.2-0.399-0.502-0.501-1.003-0.501s-0.803,0.2-1.004,0.501c-0.2,0.302-0.3,1.004-0.3,1.908
		c0,0.902,0.1,1.503,0.3,1.905c0.201,0.401,0.501,0.501,1.004,0.501s0.803-0.201,1.003-0.501
		C1.242,674.441,1.343,673.74,1.343,672.837z"/>
	<path fill="#3C3530" d="M4.252,669.627c0.501-0.303,1.103-0.503,1.906-0.503c0.804,0,1.403,0.2,1.907,0.503
		c0.501,0.399,0.703,0.801,0.703,1.503c0,0.401-0.102,0.703-0.201,1.005c-0.101,0.198-0.301,0.399-0.602,0.702
		c0.302,0.3,0.602,0.501,0.702,0.801c0.101,0.202,0.201,0.603,0.201,1.005c0,0.702-0.301,1.203-0.802,1.605
		c-0.502,0.3-1.206,0.502-2.006,0.502c-1.807,0-2.809-0.704-2.809-2.008c0-0.501,0.1-0.803,0.198-1.104
		c0.101-0.3,0.402-0.501,0.704-0.801c-0.303-0.202-0.503-0.502-0.603-0.702c-0.101-0.202-0.2-0.604-0.2-0.904
		C3.55,670.428,3.85,669.926,4.252,669.627z M5.055,674.241c0,0.601,0.401,1.002,1.104,1.002c0.804,0,1.103-0.301,1.103-1.002
		c0-0.401-0.201-0.702-0.602-0.804H5.657C5.355,673.638,5.055,673.94,5.055,674.241z M6.259,670.428c-0.302,0-0.602,0.102-0.803,0.2
		c-0.203,0.103-0.301,0.403-0.301,0.703c0,0.301,0.199,0.602,0.501,0.804H6.66c0.401-0.202,0.501-0.503,0.501-0.904
		C7.262,670.731,6.962,670.428,6.259,670.428z"/>
</g>
<g>
	<path fill="#3C3530" d="M-5.077,751.09v-1.404h4.614v1.706l-2.608,5.719l-1.404-0.403l2.509-5.315v-0.401h-3.111V751.09z"/>
	<path fill="#3C3530" d="M5.857,757.009H1.141v-1.305l1.606-1.605c0.602-0.602,0.903-1.002,1.103-1.304
		c0.202-0.302,0.303-0.602,0.303-1.003c0-0.302-0.101-0.602-0.303-0.702c-0.2-0.102-0.401-0.201-0.801-0.201
		c-0.501,0-1.004,0-1.604,0.102H1.14l-0.099-1.206c0.703-0.198,1.505-0.301,2.208-0.301c1.504,0,2.308,0.703,2.308,2.106
		c0,0.502-0.101,1.003-0.402,1.404c-0.201,0.402-0.703,0.903-1.306,1.404l-1.303,1.104h3.009v1.506H5.857L5.857,757.009z"/>
</g>
<g>
	<path fill="#3C3530" d="M-4.676,829.243c0.703-0.304,1.404-0.403,2.307-0.403c0.903,0,1.404,0.2,1.807,0.502
		c0.401,0.302,0.601,0.804,0.601,1.504c0,0.702-0.301,1.205-0.803,1.604c0.401,0.202,0.603,0.402,0.803,0.604
		c0.2,0.197,0.2,0.5,0.2,1.002c0,0.803-0.2,1.404-0.602,1.706c-0.401,0.401-1.003,0.601-1.906,0.6c-0.602,0-1.304-0.1-2.006-0.301
		h-0.502l0.1-1.203c0.803,0.101,1.504,0.201,2.106,0.201c0.802,0,1.104-0.303,1.104-1.005c0-0.3-0.101-0.5-0.302-0.6
		c-0.199-0.203-0.4-0.203-0.802-0.203h-1.504v-1.302h1.504c0.201,0,0.501-0.103,0.602-0.303c0.199-0.2,0.3-0.4,0.3-0.702
		c0-0.501-0.401-0.804-1.104-0.804c-0.502,0-1.003,0.101-1.604,0.202h-0.301v-1.101H-4.676z"/>
	<path fill="#3C3530" d="M6.259,830.346c-0.702-0.102-1.404-0.2-1.907-0.2c-1.003,0-1.604,0.6-1.604,1.704l0.2-0.099
		c0.501-0.1,0.903-0.202,1.206-0.202c0.801,0,1.503,0.202,1.905,0.604c0.402,0.402,0.602,1.003,0.602,1.807
		c0,0.801-0.2,1.404-0.703,1.805c-0.501,0.4-1.102,0.601-2.005,0.601c-0.903,0-1.604-0.301-2.006-1.001
		c-0.501-0.603-0.703-1.606-0.703-2.911c0-1.303,0.301-2.206,0.802-2.809c0.502-0.602,1.305-0.902,2.208-0.902
		c0.603,0,1.205,0.101,1.807,0.198l0.3,0.103L6.259,830.346z M4.052,832.953c-0.301,0-0.703,0.102-1.104,0.2l-0.2,0.101
		c0,1.305,0.401,1.905,1.205,1.905c0.4,0,0.601-0.098,0.803-0.3c0.2-0.203,0.3-0.501,0.3-0.803
		C5.055,833.254,4.755,832.953,4.052,832.953z"/>
</g>
<g>
	<path fill="#3C3530" d="M-1.667,908.098v7.322h-1.505v-5.518l-1.604,1.004l-0.703-1.104l2.407-1.605h1.404V908.098L-1.667,908.098z
		"/>
	<path fill="#3C3530" d="M1.042,908.498c0.501-0.303,1.104-0.503,1.905-0.503c0.804,0,1.405,0.2,1.907,0.503
		c0.5,0.301,0.703,0.802,0.703,1.503c0,0.402-0.101,0.704-0.202,1.003c-0.101,0.304-0.301,0.401-0.601,0.703
		c0.3,0.303,0.601,0.504,0.702,0.804c0.101,0.201,0.2,0.601,0.2,1.003c0,0.702-0.302,1.203-0.802,1.604
		c-0.503,0.303-1.205,0.503-2.006,0.503c-1.807,0-2.81-0.702-2.81-2.005c0-0.504,0.101-0.804,0.2-1.104
		c0.101-0.3,0.401-0.501,0.703-0.804c-0.303-0.201-0.503-0.501-0.603-0.703c-0.101-0.199-0.201-0.601-0.201-0.901
		C0.34,909.299,0.54,908.797,1.042,908.498z M1.844,913.112c0,0.601,0.401,1.003,1.103,1.003c0.804,0,1.104-0.302,1.104-1.003
		c0-0.401-0.202-0.705-0.603-0.803H2.446C2.045,912.51,1.844,912.812,1.844,913.112z M2.947,909.299c-0.301,0-0.6,0.102-0.802,0.201
		c-0.201,0.099-0.302,0.402-0.302,0.701c0,0.302,0.201,0.604,0.503,0.803h1.003c0.402-0.199,0.5-0.501,0.5-0.901
		C3.951,909.601,3.65,909.299,2.947,909.299z"/>
</g>
<g>
	<path fill="#3C3530" d="M-11.499,1199.337h-1.205v-7.828h1.205v4.517l0.703-0.101l1.304-2.107h1.305l-1.605,2.607l1.706,2.912
		h-1.404l-1.304-2.308l-0.703,0.099L-11.499,1199.337L-11.499,1199.337z"/>
	<path fill="#3C3530" d="M-5.979,1199.337h-1.204v-5.52h1.204v0.301c0.502-0.301,1.003-0.501,1.404-0.501
		c0.602,0,1.103,0.2,1.403,0.501c0.703-0.401,1.305-0.501,2.007-0.501c0.703,0,1.104,0.2,1.404,0.601
		c0.301,0.402,0.401,1.104,0.401,2.107v2.909h-1.203v-2.909c0-0.602-0.101-1.003-0.202-1.305c-0.099-0.2-0.401-0.4-0.802-0.4
		c-0.301,0-0.703,0.1-1.104,0.199l-0.2,0.102c0.1,0.1,0.1,0.601,0.1,1.404v2.808h-1.203v-2.808c0-0.702-0.1-1.104-0.201-1.404
		c-0.1-0.201-0.401-0.402-0.803-0.402c-0.402,0-0.702,0.1-1.003,0.2l-0.201,0.101v4.516h0.202V1199.337z"/>
	<path fill="#3C3530" d="M1.644,1199.235l3.11-7.825l1.104,0.402l-3.111,7.724L1.644,1199.235z"/>
	<path fill="#3C3530" d="M8.165,1199.337H6.961v-7.828h1.203v2.609c0.501-0.301,1.002-0.401,1.506-0.401
		c0.703,0,1.203,0.202,1.503,0.602c0.303,0.403,0.402,1.103,0.402,2.106v2.91h-1.203v-2.91c0-0.601-0.102-1.004-0.201-1.304
		c-0.101-0.2-0.402-0.401-0.804-0.401c-0.399,0-0.703,0.1-1.102,0.201l-0.201,0.1v4.314h0.1V1199.337z"/>
</g>
<g>
	<g enable-background="new    ">
		<path stroke="#000000" stroke-width="0.25" stroke-miterlimit="10" d="M-0.811,995.934v-1.379h0.992v1.379H-0.811z"/>
	</g>
	<g>
		<path fill="#3C3530" d="M-6.02,990.159v-1.404h4.614v1.706l-2.607,5.719l-1.405-0.403l2.508-5.315v-0.4H-6.02V990.159z"/>
		<path fill="#3C3530" d="M6.298,996.079H1.583v-1.306l1.605-1.605c0.603-0.601,0.904-1.001,1.104-1.303
			c0.202-0.301,0.303-0.603,0.303-1.003c0-0.302-0.101-0.602-0.303-0.703c-0.2-0.101-0.401-0.201-0.801-0.201
			c-0.501,0-1.005,0-1.605,0.103H1.583l-0.1-1.205c0.702-0.2,1.506-0.301,2.208-0.301c1.503,0,2.307,0.701,2.307,2.106
			c0,0.501-0.101,1.002-0.402,1.404c-0.201,0.401-0.702,0.903-1.305,1.404l-1.302,1.103h3.009v1.507H6.298L6.298,996.079z"/>
	</g>
</g>
<g>
	<g>
		<path fill="#3C3530" d="M-6.184,1068.613c0.702-0.302,1.404-0.399,2.307-0.399s1.404,0.199,1.806,0.501
			c0.402,0.301,0.601,0.802,0.601,1.505c0,0.701-0.3,1.204-0.801,1.604c0.399,0.198,0.602,0.402,0.801,0.602
			c0.202,0.199,0.202,0.503,0.202,1.003c0,0.804-0.202,1.404-0.604,1.706c-0.399,0.401-1.002,0.603-1.905,0.603
			c-0.602,0-1.304-0.102-2.006-0.304h-0.502l0.102-1.201c0.802,0.099,1.503,0.198,2.105,0.198c0.804,0,1.104-0.301,1.104-1.004
			c0-0.3-0.1-0.499-0.3-0.601c-0.201-0.201-0.401-0.201-0.804-0.201h-1.506v-1.305h1.506c0.201,0,0.501-0.099,0.602-0.299
			c0.2-0.2,0.3-0.403,0.3-0.704c0-0.502-0.401-0.802-1.103-0.802c-0.502,0-1.004,0.099-1.605,0.199h-0.299L-6.184,1068.613
			L-6.184,1068.613z"/>
		<path fill="#3C3530" d="M5.861,1069.718c-0.702-0.101-1.405-0.202-1.908-0.202c-1.001,0-1.604,0.604-1.604,1.706l0.2-0.1
			c0.501-0.1,0.903-0.2,1.206-0.2c0.802,0,1.504,0.2,1.906,0.603c0.401,0.4,0.602,1.003,0.602,1.804
			c0,0.805-0.201,1.404-0.704,1.808c-0.501,0.4-1.102,0.603-2.005,0.603c-0.903,0-1.604-0.304-2.005-1.006
			c-0.502-0.6-0.703-1.604-0.703-2.907c0-1.306,0.3-2.208,0.801-2.809c0.503-0.603,1.306-0.903,2.209-0.903
			c0.602,0,1.203,0.1,1.806,0.199l0.3,0.1L5.861,1069.718z M3.653,1072.324c-0.301,0-0.702,0.103-1.104,0.201l-0.2,0.099
			c0,1.306,0.402,1.908,1.205,1.908c0.4,0,0.602-0.101,0.803-0.301c0.201-0.203,0.3-0.502,0.3-0.804
			C4.656,1072.624,4.356,1072.324,3.653,1072.324z"/>
	</g>
	<g enable-background="new    ">
		<path stroke="#000000" stroke-width="0.25" stroke-miterlimit="10" d="M-0.584,1075.657v-1.379h0.992v1.379H-0.584z"/>
	</g>
</g>
</svg>
