<?xml version="1.0" encoding="utf-8"?>
<!-- Generator: Adobe Illustrator 16.0.0, SVG Export Plug-In . SVG Version: 6.00 Build 0)  -->
<!DOCTYPE svg PUBLIC "-//W3C//DTD SVG 1.1//EN" "http://www.w3.org/Graphics/SVG/1.1/DTD/svg11.dtd" [
	<!ENTITY ns_extend "http://ns.adobe.com/Extensibility/1.0/">
	<!ENTITY ns_ai "http://ns.adobe.com/AdobeIllustrator/10.0/">
	<!ENTITY ns_graphs "http://ns.adobe.com/Graphs/1.0/">
	<!ENTITY ns_vars "http://ns.adobe.com/Variables/1.0/">
	<!ENTITY ns_imrep "http://ns.adobe.com/ImageReplacement/1.0/">
	<!ENTITY ns_sfw "http://ns.adobe.com/SaveForWeb/1.0/">
	<!ENTITY ns_custom "http://ns.adobe.com/GenericCustomNamespace/1.0/">
	<!ENTITY ns_adobe_xpath "http://ns.adobe.com/XPath/1.0/">
]>
<svg version="1.1" id="Livello_1" xmlns:x="&ns_extend;" xmlns:i="&ns_ai;" xmlns:graph="&ns_graphs;"
	 xmlns="http://www.w3.org/2000/svg" xmlns:xlink="http://www.w3.org/1999/xlink" x="0px" y="0px" width="40.8px"
	 height="725.199px" viewBox="-20.26 478.846 40.8 725.199" enable-background="new -20.26 478.846 40.8 725.199"
	 xml:space="preserve">
<metadata>
	<sfw  xmlns="&ns_sfw;">
		<slices></slices>
		<sliceSourceBounds  width="16383" height="16406" x="-7894" y="-7771" bottomLeftOrigin="true"></sliceSourceBounds>
	</sfw>
</metadata>
<g>
	<g>
		<g>
			<g>
				<g>
					<g>
						<g>
							<g>
								<g>
									<g>
										<g>
											<defs>
												<path id="SVGID_1_" d="M19.396,1197.813c-0.5,4.3-9.503,4.799-18.211,4.799l-5.602-0.198
													c-8.504,0.4-14.307-2.601-14.307-7.703V529.635c1.8-6.003,6.403-6.504,13.308-6.504l9.505-0.2
													c7.803,0,13.608,0.902,15.408,7.006l0.3,664.773L19.396,1197.813z"/>
											</defs>
											<clipPath id="SVGID_2_">
												<use xlink:href="#SVGID_1_"  overflow="visible"/>
											</clipPath>
											<g clip-path="url(#SVGID_2_)">
												<g>
													
														<rect x="-18.524" y="516.129" opacity="0.88" fill="#FF00C3" enable-background="new    " width="38.522" height="79.344"/>
													<polygon opacity="0.88" fill="#EE82EE" enable-background="new    " points="-18.624,674.817 -18.524,594.472 
														19.998,596.373 19.897,676.918 													"/>
													
														<rect x="-18.524" y="674.817" opacity="0.88" fill="#FF3333" enable-background="new    " width="38.522" height="79.346"/>
													
														<rect x="-18.325" y="754.363" opacity="0.88" fill="#FFFF00" enable-background="new    " width="37.721" height="79.443"/>
													
														<rect x="-18.325" y="833.806" opacity="0.88" fill="#4BCF4F" enable-background="new    " width="37.721" height="79.244"/>
													
														<rect x="-18.724" y="913.15" opacity="0.88" fill="#7070FF" enable-background="new    " width="37.621" height="79.547"/>
													
														<rect x="-18.524" y="992.493" opacity="0.88" fill="#8BD8F9" enable-background="new    " width="37.121" height="79.446"/>
													
														<rect x="-18.524" y="1071.94" opacity="0.88" fill="#E0F4FE" enable-background="new    " width="37.121" height="130.874"/>
												</g>
											</g>
										</g>
									</g>
								</g>
							</g>
						</g>
					</g>
				</g>
			</g>
		</g>
	</g>
</g>
<rect x="-13.021" y="1112.486" fill="none" width="15.409" height="11.808"/>
<line fill="none" stroke="#3C3430" stroke-miterlimit="9.7722" x1="-17.424" y1="1072.163" x2="-6.277" y2="1072.163"/>
<line fill="none" stroke="#3C3430" stroke-miterlimit="9.7722" x1="18.296" y1="1072.163" x2="7.782" y2="1072.163"/>
<line fill="none" stroke="#3C3430" stroke-miterlimit="9.7722" x1="-17.924" y1="595.396" x2="-7.117" y2="595.396"/>
<line fill="none" stroke="#3C3430" stroke-miterlimit="9.7722" x1="17.897" y1="595.396" x2="8.792" y2="595.396"/>
<line fill="none" stroke="#3C3430" stroke-miterlimit="9.7722" x1="-18.424" y1="913.475" x2="-6.918" y2="913.475"/>
<line fill="none" stroke="#3C3430" stroke-miterlimit="9.7722" x1="17.995" y1="913.475" x2="6.49" y2="913.475"/>
<line fill="none" stroke="#3C3430" stroke-miterlimit="9.7722" x1="-18.023" y1="754.485" x2="-5.716" y2="754.485"/>
<line fill="none" stroke="#3C3430" stroke-miterlimit="9.7722" x1="18.396" y1="754.485" x2="7.789" y2="754.485"/>
<line fill="none" stroke="#3C3430" stroke-miterlimit="9.7722" x1="-18.925" y1="675.24" x2="-7.818" y2="675.24"/>
<line fill="none" stroke="#3C3430" stroke-miterlimit="9.7722" x1="17.495" y1="675.24" x2="9.09" y2="675.24"/>
<line fill="none" stroke="#3C3430" stroke-miterlimit="9.7722" x1="-17.324" y1="833.729" x2="-5.017" y2="833.729"/>
<line fill="none" stroke="#3C3430" stroke-miterlimit="9.7722" x1="19.098" y1="833.729" x2="6.991" y2="833.729"/>
<line fill="none" stroke="#3C3430" stroke-miterlimit="9.7722" x1="-17.824" y1="992.818" x2="-6.224" y2="992.818"/>
<line fill="none" stroke="#3C3430" stroke-miterlimit="9.7722" x1="18.597" y1="992.818" x2="7.782" y2="992.818"/>
<path fill="#39322E" d="M0.186,480.731c10.941,0,19.812,8.873,19.812,19.811c0,10.942-8.87,19.813-19.812,19.813
	s-19.812-8.87-19.812-19.813C-19.625,489.603-10.755,480.731,0.186,480.731z"/>
<path fill="none" stroke="#3C3430" stroke-width="2" stroke-miterlimit="9.7722" d="M12.292,1202.838l-24.513-0.001
	c-3.402,0-6.204-3.001-6.204-6.705V529.957c0-3.699,2.801-6.703,6.204-6.703h24.513c3.402,0,6.203,3.003,6.203,6.703v666.175
	C18.495,1199.836,15.694,1202.838,12.292,1202.838z"/>
<path fill="#FFFFFF" d="M3.188,491.835c1.1-0.597,2.603,0.202,2.603,1.403c0,0.9-0.802,1.701-1.701,1.701h-19.512
	c-1.101,0-1.401,0.602-1.401,1.401c0,0.601,0.3,1.4,1.401,1.4H4.089c2.401,0,4.301-2.001,4.301-4.303
	c0-3.302-3.602-5.504-6.504-3.602c-0.3,0.198-0.8,0.5-1.099,0.599c-1.202,0.803-0.601,2.403,0.6,2.403c0.301,0,0.499,0,0.801-0.201
	C2.388,492.34,2.787,492.136,3.188,491.835L3.188,491.835L3.188,491.835z M8.49,509.849c-1.2-0.601-0.599-2.403,0.6-2.403
	c0.901,0,1.701,1.102,2.703,1.102c0.901,0,1.701-0.8,1.701-1.7c0-0.901-0.8-1.702-1.701-1.702c-7.805,0-19.311-0.2-27.215-0.2
	c-0.801,0-1.2-0.599-1.2-1.399c0-0.803,0.5-1.4,1.2-1.4c7.804,0,19.31,0.197,27.215,0.197c2.4,0,4.302,2.002,4.302,4.302
	c0,3.303-3.602,5.503-6.504,3.603C9.19,510.248,8.792,510.15,8.49,509.849L8.49,509.849L8.49,509.849z M-15.422,501.342
	c-1.401,0-1.401-1.1-1.401-1.401c0-0.299,0-1.4,1.401-1.4h30.017c0.599,0,1.401-0.599,1.5-1.2c0.5-1.502-1.202-2.602-2.401-1.801
	c-0.3,0.199-0.8,0.501-1.1,0.6c-0.901,0.601-2.001-0.198-2.001-1.098c0-0.502,0.301-0.902,0.6-1.204
	c1.401-0.799,2.102-1.498,4.003-1.4c1.5,0.2,2.703,1.1,3.301,2.4c1.402,3.204-0.901,6.205-4.002,6.205L-15.422,501.342
	L-15.422,501.342z"/>
<g>
	<path fill="#3C3530" d="M-5.217,590.193v7.306h-1.5v-5.505l-1.601,1.001l-0.7-1.101l2.4-1.601h1.401V590.193L-5.217,590.193z"/>
	<path fill="#3C3530" d="M-2.515,590.493c0.499-0.301,1.101-0.501,1.901-0.501c0.801,0,1.402,0.2,1.901,0.501
		c0.5,0.399,0.701,0.8,0.701,1.5c0,0.399-0.101,0.7-0.2,1.001c-0.099,0.199-0.3,0.401-0.601,0.7
		c0.302,0.301,0.601,0.501,0.701,0.799c0.101,0.202,0.199,0.603,0.199,1.003c0,0.702-0.299,1.201-0.799,1.602
		c-0.5,0.301-1.202,0.5-2.001,0.5c-1.801,0-2.802-0.702-2.802-2.002c0-0.5,0.101-0.799,0.201-1.103c0.1-0.298,0.4-0.498,0.701-0.799
		c-0.3-0.199-0.502-0.501-0.601-0.7c-0.1-0.2-0.2-0.602-0.2-0.901C-3.216,591.395-3.016,590.893-2.515,590.493z M-1.715,595.195
		c0,0.602,0.399,1.004,1.101,1.004c0.801,0,1.101-0.304,1.101-1.004c0-0.397-0.2-0.701-0.6-0.799h-1.001
		C-1.515,594.593-1.715,594.797-1.715,595.195z M-0.615,591.395c-0.301,0-0.601,0.1-0.801,0.197c-0.2,0.101-0.301,0.401-0.301,0.7
		c0,0.301,0.201,0.602,0.501,0.801h1c0.401-0.199,0.501-0.5,0.501-0.899C0.485,591.693,0.085,591.395-0.615,591.395z"/>
	<path fill="#3C3530" d="M3.487,590.893c0.501-0.602,1.202-0.9,2.102-0.9c0.9,0,1.601,0.299,2.102,0.9c0.5,0.602,0.7,1.6,0.7,2.9
		s-0.2,2.305-0.7,2.903c-0.501,0.598-1.201,0.9-2.102,0.9s-1.601-0.303-2.102-0.9c-0.5-0.599-0.701-1.502-0.701-2.903
		C2.787,592.492,2.987,591.494,3.487,590.893z M6.79,593.793c0-0.899-0.1-1.499-0.3-1.899c-0.2-0.399-0.501-0.499-1.001-0.499
		c-0.5,0-0.801,0.197-1.001,0.499c-0.2,0.3-0.299,1-0.299,1.899c0,0.902,0.099,1.504,0.299,1.901c0.2,0.403,0.5,0.504,1.001,0.504
		c0.5,0,0.801-0.202,1.001-0.504C6.69,595.396,6.79,594.696,6.79,593.793z"/>
</g>
<g>
	<path fill="#3C3530" d="M-4.517,670.537v7.305h-1.5v-5.502l-1.602,1.001l-0.7-1.102l2.401-1.601h1.4L-4.517,670.537L-4.517,670.537
		z"/>
	<path fill="#3C3530" d="M-2.016,671.337c0.501-0.6,1.202-0.899,2.102-0.899c0.902,0,1.602,0.3,2.102,0.899
		c0.5,0.601,0.701,1.601,0.701,2.902c0,1.301-0.2,2.301-0.701,2.901c-0.501,0.6-1.2,0.901-2.102,0.901c-0.9,0-1.6-0.302-2.102-0.901
		c-0.499-0.601-0.7-1.502-0.7-2.901C-2.716,672.838-2.515,671.94-2.016,671.337z M1.387,674.141c0-0.901-0.1-1.502-0.301-1.903
		c-0.199-0.398-0.5-0.5-1-0.5c-0.5,0-0.8,0.2-1.001,0.5c-0.2,0.301-0.3,1.002-0.3,1.903c0,0.899,0.1,1.498,0.3,1.899
		c0.2,0.4,0.5,0.5,1.001,0.5c0.501,0,0.802-0.201,1-0.5C1.286,675.74,1.387,675.04,1.387,674.141z"/>
	<path fill="#3C3530" d="M4.288,670.939c0.5-0.302,1.1-0.501,1.901-0.501c0.802,0,1.399,0.199,1.902,0.501
		c0.5,0.398,0.701,0.799,0.701,1.5c0,0.399-0.101,0.701-0.2,1.001c-0.101,0.198-0.3,0.399-0.601,0.701
		c0.301,0.299,0.601,0.499,0.701,0.798c0.1,0.202,0.2,0.601,0.2,1.003c0,0.7-0.3,1.199-0.8,1.601c-0.501,0.3-1.202,0.5-2.001,0.5
		c-1.802,0-2.801-0.702-2.801-2.002c0-0.5,0.1-0.8,0.198-1.102c0.101-0.299,0.401-0.499,0.702-0.798
		c-0.302-0.201-0.501-0.501-0.601-0.701c-0.101-0.2-0.199-0.602-0.199-0.901C3.588,671.738,3.887,671.238,4.288,670.939z
		 M5.089,675.54c0,0.6,0.4,1,1.101,1c0.802,0,1.101-0.301,1.101-1c0-0.399-0.2-0.7-0.6-0.802H5.689
		C5.388,674.939,5.089,675.24,5.089,675.54z M6.29,671.738c-0.301,0-0.601,0.102-0.801,0.2c-0.202,0.102-0.301,0.402-0.301,0.701
		c0,0.3,0.199,0.601,0.5,0.801h1.001c0.4-0.2,0.5-0.501,0.5-0.901C7.29,672.039,6.991,671.738,6.29,671.738z"/>
</g>
<g>
	<path fill="#3C3530" d="M-5.017,752.185v-1.401h4.602v1.701l-2.601,5.704l-1.401-0.402l2.502-5.302v-0.399h-3.103V752.185z"/>
	<path fill="#3C3530" d="M5.889,758.087H1.185v-1.3l1.602-1.603c0.601-0.6,0.901-0.998,1.1-1.3c0.202-0.301,0.302-0.6,0.302-1
		c0-0.302-0.1-0.6-0.302-0.7c-0.199-0.102-0.4-0.201-0.799-0.201c-0.5,0-1.001,0-1.601,0.102H1.184l-0.099-1.203
		c0.701-0.198,1.502-0.3,2.203-0.3c1.5,0,2.301,0.701,2.301,2.101c0,0.501-0.1,1.001-0.401,1.401c-0.2,0.4-0.701,0.901-1.302,1.4
		l-1.299,1.102h3.001v1.501H5.889L5.889,758.087z"/>
</g>
<g>
	<path fill="#3C3530" d="M-4.617,830.129c0.701-0.303,1.401-0.402,2.302-0.402c0.9,0,1.399,0.2,1.801,0.501
		c0.4,0.301,0.599,0.802,0.599,1.5c0,0.7-0.3,1.202-0.8,1.6c0.4,0.201,0.602,0.401,0.8,0.604c0.2,0.196,0.2,0.498,0.2,0.999
		c0,0.801-0.2,1.4-0.601,1.702c-0.4,0.399-1.001,0.599-1.901,0.598c-0.6,0-1.301-0.1-2-0.301h-0.501l0.1-1.199
		c0.801,0.101,1.5,0.201,2.101,0.201c0.8,0,1.101-0.303,1.101-1.003c0-0.299-0.101-0.499-0.301-0.599
		c-0.199-0.202-0.399-0.202-0.8-0.202h-1.5v-1.298h1.5c0.201,0,0.5-0.102,0.6-0.302c0.199-0.2,0.3-0.399,0.3-0.7
		c0-0.499-0.4-0.802-1.101-0.802c-0.5,0-1,0.101-1.599,0.202h-0.301v-1.099H-4.617z"/>
	<path fill="#3C3530" d="M6.29,831.23c-0.701-0.102-1.401-0.2-1.902-0.2c-1,0-1.601,0.598-1.601,1.7l0.2-0.099
		c0.5-0.1,0.9-0.202,1.203-0.202c0.799,0,1.5,0.202,1.9,0.603c0.4,0.399,0.6,1,0.6,1.801c0,0.799-0.2,1.4-0.701,1.801
		c-0.5,0.398-1.1,0.599-2,0.599c-0.901,0-1.6-0.301-2.001-0.999c-0.5-0.601-0.701-1.602-0.701-2.903c0-1.298,0.3-2.199,0.8-2.801
		c0.501-0.6,1.302-0.9,2.202-0.9c0.601,0,1.202,0.101,1.802,0.198l0.3,0.103L6.29,831.23z M4.089,833.829
		c-0.301,0-0.701,0.102-1.102,0.2l-0.2,0.1c0,1.301,0.401,1.9,1.202,1.9c0.399,0,0.599-0.097,0.8-0.299c0.2-0.203,0.3-0.5,0.3-0.801
		C5.089,834.129,4.789,833.829,4.089,833.829z"/>
</g>
<g>
	<path fill="#3C3530" d="M-1.616,908.774v7.302h-1.501v-5.503l-1.599,1.002l-0.701-1.103l2.4-1.6h1.4V908.774L-1.616,908.774z"/>
	<path fill="#3C3530" d="M1.086,909.173c0.5-0.302,1.101-0.502,1.901-0.502c0.802,0,1.401,0.2,1.902,0.502
		c0.5,0.299,0.701,0.799,0.701,1.498c0,0.402-0.101,0.702-0.201,1.001c-0.101,0.303-0.3,0.4-0.6,0.701
		c0.3,0.302,0.6,0.503,0.701,0.801c0.101,0.201,0.2,0.601,0.2,1.001c0,0.701-0.301,1.2-0.8,1.6c-0.501,0.301-1.201,0.501-2,0.501
		c-1.803,0-2.803-0.699-2.803-1.999c0-0.502,0.101-0.802,0.2-1.103c0.101-0.298,0.4-0.499,0.701-0.801
		c-0.302-0.2-0.502-0.5-0.601-0.701c-0.101-0.199-0.201-0.599-0.201-0.899C0.387,909.971,0.586,909.47,1.086,909.173z
		 M1.886,913.775c0,0.599,0.401,1,1.101,1c0.802,0,1.102-0.302,1.102-1c0-0.401-0.202-0.703-0.602-0.801h-1
		C2.086,913.173,1.886,913.475,1.886,913.775z M2.987,909.971c-0.3,0-0.599,0.102-0.8,0.201c-0.201,0.099-0.302,0.4-0.302,0.699
		c0,0.301,0.2,0.602,0.502,0.801h1c0.4-0.199,0.499-0.5,0.499-0.899C3.988,910.273,3.688,909.971,2.987,909.971z"/>
</g>
<g>
	<path fill="#3C3530" d="M-11.421,1199.236h-1.201v-7.808h1.201v4.505l0.701-0.101l1.301-2.101h1.301l-1.6,2.6l1.701,2.904h-1.4
		l-1.301-2.302l-0.701,0.099L-11.421,1199.236L-11.421,1199.236z"/>
	<path fill="#3C3530" d="M-5.917,1199.236h-1.201v-5.504h1.201v0.3c0.501-0.3,1-0.5,1.4-0.5c0.6,0,1.101,0.2,1.4,0.5
		c0.701-0.4,1.301-0.5,2.001-0.5c0.701,0,1.102,0.2,1.401,0.599c0.3,0.401,0.4,1.102,0.4,2.102v2.902h-1.2v-2.902
		c0-0.6-0.101-1-0.201-1.3c-0.099-0.2-0.4-0.4-0.8-0.4c-0.3,0-0.701,0.1-1.1,0.199l-0.2,0.102c0.099,0.1,0.099,0.598,0.099,1.399
		v2.801h-1.2v-2.801c0-0.7-0.1-1.101-0.2-1.399c-0.1-0.201-0.401-0.401-0.801-0.401s-0.7,0.099-1,0.199l-0.2,0.101v4.503h0.201
		V1199.236z"/>
	<path fill="#3C3530" d="M1.687,1199.134l3.101-7.805l1.101,0.401l-3.103,7.703L1.687,1199.134z"/>
	<path fill="#3C3530" d="M8.19,1199.236h-1.2v-7.808h1.2v2.604c0.5-0.3,1-0.4,1.502-0.4c0.701,0,1.2,0.201,1.499,0.6
		c0.302,0.402,0.401,1.099,0.401,2.101v2.902h-1.199v-2.902c0-0.599-0.102-1.002-0.201-1.299c-0.1-0.2-0.401-0.401-0.801-0.401
		c-0.398,0-0.701,0.1-1.1,0.201l-0.2,0.1v4.302H8.19V1199.236z"/>
</g>
<g>
	<g enable-background="new    ">
		<path stroke="#000000" stroke-width="0.25" stroke-miterlimit="10" d="M-0.76,996.366v-1.376h0.99v1.376H-0.76z"/>
	</g>
	<g>
		<path fill="#3C3530" d="M-5.956,990.616v-1.4h4.602v1.701l-2.6,5.704l-1.401-0.403l2.501-5.301v-0.399h-3.103V990.616z"/>
		<path fill="#3C3530" d="M6.329,996.521H1.625v-1.303l1.601-1.602c0.601-0.6,0.901-0.998,1.1-1.3
			c0.201-0.299,0.302-0.6,0.302-0.999c0-0.301-0.101-0.6-0.302-0.701c-0.199-0.101-0.399-0.201-0.798-0.201
			c-0.5,0-1.002,0-1.602,0.103H1.625l-0.1-1.201c0.701-0.2,1.502-0.301,2.203-0.301c1.499,0,2.301,0.699,2.301,2.102
			c0,0.499-0.101,0.998-0.401,1.399c-0.2,0.4-0.7,0.901-1.302,1.401l-1.298,1.099h3.001v1.504H6.329L6.329,996.521z"/>
	</g>
</g>
<g>
	<g>
		<path fill="#3C3530" d="M-6.12,1068.86c0.7-0.302,1.4-0.398,2.301-0.398s1.4,0.198,1.801,0.5c0.401,0.299,0.599,0.8,0.599,1.501
			c0,0.699-0.299,1.201-0.799,1.6c0.398,0.198,0.6,0.402,0.799,0.601c0.201,0.199,0.201,0.502,0.201,1.001
			c0,0.802-0.201,1.399-0.602,1.7c-0.398,0.4-1,0.601-1.9,0.601c-0.6,0-1.301-0.101-2.001-0.302h-0.501l0.102-1.197
			c0.799,0.098,1.499,0.196,2.1,0.196c0.802,0,1.101-0.299,1.101-1c0-0.3-0.1-0.498-0.299-0.6c-0.201-0.2-0.4-0.2-0.802-0.2h-1.501
			v-1.302h1.501c0.2,0,0.5-0.099,0.6-0.299c0.2-0.198,0.299-0.401,0.299-0.702c0-0.5-0.4-0.799-1.1-0.799
			c-0.501,0-1.002,0.099-1.601,0.198h-0.298L-6.12,1068.86L-6.12,1068.86z"/>
		<path fill="#3C3530" d="M5.893,1069.962c-0.7-0.1-1.401-0.201-1.903-0.201c-0.999,0-1.6,0.602-1.6,1.701l0.2-0.1
			c0.5-0.1,0.901-0.199,1.203-0.199c0.8,0,1.5,0.199,1.901,0.602c0.4,0.398,0.601,1,0.601,1.799c0,0.803-0.2,1.399-0.702,1.802
			c-0.5,0.399-1.099,0.601-2,0.601s-1.6-0.302-2-1.003c-0.501-0.597-0.701-1.6-0.701-2.899c0-1.302,0.299-2.201,0.799-2.802
			c0.501-0.601,1.303-0.9,2.203-0.9c0.6,0,1.2,0.1,1.801,0.198l0.299,0.1L5.893,1069.962z M3.691,1072.562
			c-0.301,0-0.701,0.103-1.102,0.201l-0.2,0.099c0,1.302,0.4,1.901,1.202,1.901c0.399,0,0.6-0.1,0.8-0.298
			c0.201-0.203,0.299-0.502,0.299-0.802C4.69,1072.862,4.392,1072.562,3.691,1072.562z"/>
	</g>
	<g enable-background="new    ">
		<path stroke="#000000" stroke-width="0.25" stroke-miterlimit="10" d="M-0.534,1075.877v-1.376h0.99v1.376H-0.534z"/>
	</g>
</g>
</svg>
