<?xml version="1.0" encoding="utf-8"?>
<!-- Generator: Adobe Illustrator 28.0.0, SVG Export Plug-In . SVG Version: 6.00 Build 0)  -->
<svg version="1.1" id="Livello_1" xmlns="http://www.w3.org/2000/svg" xmlns:xlink="http://www.w3.org/1999/xlink" x="0px" y="0px"
	   width="50px" height="677px" viewBox="0 0 50.6 677.2"  style="enable-background:new 0 0 43.8 725.2;" xml:space="preserve">
<style type="text/css">
	.st0{clip-path:url(#SVGID_00000095310016271056701610000008807875994833615287_);}
	.st1{opacity:0.88;fill:#FF00C3;enable-background:new    ;}
	.st2{opacity:0.88;fill:#EE82EE;enable-background:new    ;}
	.st3{opacity:0.88;fill:#FF3333;enable-background:new    ;}
	.st4{opacity:0.88;fill:#FFFF00;enable-background:new    ;}
	.st5{opacity:0.88;fill:#4BCF4F;enable-background:new    ;}
	.st6{opacity:0.88;fill:#7070FF;enable-background:new    ;}
	.st7{opacity:0.88;fill:#8BD8F9;enable-background:new    ;}
	.st8{opacity:0.88;fill:#E0F4FE;enable-background:new    ;}
	.st9{fill:none;}
	.st10{fill:#3C3430;}
	.st11{fill:none;stroke:#3C3430;stroke-miterlimit:9.7722;}
	.st12{fill:#39322E;}
	.st13{fill:none;stroke:#3C3430;stroke-width:2;stroke-miterlimit:9.7722;}
	.st14{fill:#FFFFFF;}
	.st15{fill:#3C3530;}
</style>
<g>
	<g>
		<g>
			<g>
				<g>
					<g>
						<g>
							<g>
								<g>
									<defs>
										<path id="SVGID_1_" d="M41.1,719c-0.5,4.3-9.5,4.8-18.2,4.8l-5.6-0.2C8.8,724,3,721,3,715.9V51.2c1.8-6,6.4-6.5,13.3-6.5
											l9.5-0.2c7.8,0,13.6,0.9,15.4,7l0.3,664.4L41.1,719z"/>
									</defs>
									<clipPath id="SVGID_00000042006590582548779670000016174365127224392100_">
										<use xlink:href="#SVGID_1_"  style="overflow:visible;"/>
									</clipPath>
									<g style="clip-path:url(#SVGID_00000042006590582548779670000016174365127224392100_);">
										<g>
											<rect x="3.2" y="37.7" class="st1" width="38.5" height="79.3"/>
											<polygon class="st2" points="3.1,196.3 3.2,116 41.7,117.9 41.6,198.4 											"/>
											<rect x="3.2" y="196.3" class="st3" width="38.5" height="79.3"/>
											<rect x="3.4" y="275.8" class="st4" width="37.7" height="79.4"/>
											<rect x="3.4" y="355.2" class="st5" width="37.7" height="79.2"/>
											<rect x="3" y="434.5" class="st6" width="37.6" height="79.5"/>
											<rect x="3.2" y="513.8" class="st7" width="37.1" height="79.4"/>
											<rect x="3.2" y="593.2" class="st8" width="37.1" height="130.8"/>
										</g>
									</g>
								</g>
							</g>
						</g>
					</g>
				</g>
			</g>
		</g>
	</g>
</g>
<rect x="8.7" y="633.4" class="st9" width="15.4" height="11.8"/>
<g>
	<g>
		<path class="st10" d="M23.6,588.1v7.9H22v-6l-1.7,1.1l-0.8-1.2l2.6-1.7L23.6,588.1L23.6,588.1z"/>
	</g>
</g>
<line class="st11" x1="4.3" y1="593.1" x2="17.2" y2="593.1"/>
<line class="st11" x1="40" y1="593.1" x2="26.4" y2="593.1"/>
<line class="st11" x1="3.8" y1="116.6" x2="14.6" y2="116.6"/>
<line class="st11" x1="39.6" y1="116.6" x2="30.5" y2="116.6"/>
<line class="st11" x1="3.3" y1="434.5" x2="14.8" y2="434.5"/>
<line class="st11" x1="39.7" y1="434.5" x2="28.2" y2="434.5"/>
<line class="st11" x1="3.7" y1="275.6" x2="16" y2="275.6"/>
<line class="st11" x1="40.1" y1="275.6" x2="29.5" y2="275.6"/>
<line class="st11" x1="2.8" y1="196.4" x2="13.9" y2="196.4"/>
<line class="st11" x1="39.2" y1="196.4" x2="30.8" y2="196.4"/>
<line class="st11" x1="4.4" y1="354.8" x2="16.7" y2="354.8"/>
<line class="st11" x1="40.8" y1="354.8" x2="28.7" y2="354.8"/>
<g>
	<path class="st10" d="M25.1,516.8H20v-1.4l1.7-1.7c0.6-0.6,1-1.1,1.3-1.4s0.4-0.7,0.4-1s-0.1-0.6-0.3-0.8c-0.2-0.2-0.5-0.2-0.8-0.2
		c-0.5,0-1.1,0-1.8,0.1h-0.3l-0.1-1.3c0.8-0.2,1.6-0.4,2.4-0.4c1.7,0,2.5,0.8,2.5,2.3c0,0.6-0.1,1.1-0.4,1.5s-0.7,1-1.4,1.6
		l-1.4,1.2h3.3C25.1,515.3,25.1,516.8,25.1,516.8z"/>
</g>
<line class="st11" x1="3.9" y1="513.8" x2="17.7" y2="513.8"/>
<line class="st11" x1="40.3" y1="513.8" x2="26.9" y2="513.8"/>
<circle class="st12" cx="21.9" cy="21.8" r="19.8"/>
<path class="st13" d="M34,723.7H9.5c-3.4,0-6.2-3-6.2-6.7V51.2c0-3.7,2.8-6.7,6.2-6.7H34c3.4,0,6.2,3,6.2,6.7V717
	C40.2,720.7,37.4,723.7,34,723.7z"/>
<path class="st14" d="M24.9,13.1c1.1-0.6,2.6,0.2,2.6,1.4c0,0.9-0.8,1.7-1.7,1.7H6.3c-1.1,0-1.4,0.6-1.4,1.4c0,0.6,0.3,1.4,1.4,1.4
	h19.5c2.4,0,4.3-2,4.3-4.3c0-3.3-3.6-5.5-6.5-3.6c-0.3,0.2-0.8,0.5-1.1,0.6c-1.2,0.8-0.6,2.4,0.6,2.4c0.3,0,0.5,0,0.8-0.2
	C24.1,13.6,24.5,13.4,24.9,13.1L24.9,13.1L24.9,13.1z M30.2,31.1c-1.2-0.6-0.6-2.4,0.6-2.4c0.9,0,1.7,1.1,2.7,1.1
	c0.9,0,1.7-0.8,1.7-1.7s-0.8-1.7-1.7-1.7c-7.8,0-19.3-0.2-27.2-0.2c-0.8,0-1.2-0.6-1.2-1.4s0.5-1.4,1.2-1.4c7.8,0,19.3,0.2,27.2,0.2
	c2.4,0,4.3,2,4.3,4.3c0,3.3-3.6,5.5-6.5,3.6C30.9,31.5,30.5,31.4,30.2,31.1L30.2,31.1L30.2,31.1z M6.3,22.6c-1.4,0-1.4-1.1-1.4-1.4
	s0-1.4,1.4-1.4h30c0.6,0,1.4-0.6,1.5-1.2c0.5-1.5-1.2-2.6-2.4-1.8c-0.3,0.2-0.8,0.5-1.1,0.6c-0.9,0.6-2-0.2-2-1.1
	c0-0.5,0.3-0.9,0.6-1.2c1.4-0.8,2.1-1.5,4-1.4c1.5,0.2,2.7,1.1,3.3,2.4c1.4,3.2-0.9,6.2-4,6.2L6.3,22.6L6.3,22.6z"/>
<g>
	<path class="st15" d="M16.5,111.4v7.3H15v-5.5l-1.6,1l-0.7-1.1l2.4-1.6H16.5z"/>
	<path class="st15" d="M19.2,111.7c0.5-0.3,1.1-0.5,1.9-0.5c0.8,0,1.4,0.2,1.9,0.5c0.5,0.4,0.7,0.8,0.7,1.5c0,0.4-0.1,0.7-0.2,1
		c-0.1,0.2-0.3,0.4-0.6,0.7c0.3,0.3,0.6,0.5,0.7,0.8c0.1,0.2,0.2,0.6,0.2,1c0,0.7-0.3,1.2-0.8,1.6c-0.5,0.3-1.2,0.5-2,0.5
		c-1.8,0-2.8-0.7-2.8-2c0-0.5,0.1-0.8,0.2-1.1s0.4-0.5,0.7-0.8c-0.3-0.2-0.5-0.5-0.6-0.7c-0.1-0.2-0.2-0.6-0.2-0.9
		C18.5,112.6,18.7,112.1,19.2,111.7z M20,116.4c0,0.6,0.4,1,1.1,1c0.8,0,1.1-0.3,1.1-1c0-0.4-0.2-0.7-0.6-0.8h-1
		C20.2,115.8,20,116,20,116.4z M21.1,112.6c-0.3,0-0.6,0.1-0.8,0.2c-0.2,0.1-0.3,0.4-0.3,0.7c0,0.3,0.2,0.6,0.5,0.8h1
		c0.4-0.2,0.5-0.5,0.5-0.9C22.2,112.9,21.8,112.6,21.1,112.6z"/>
	<path class="st15" d="M25.2,112.1c0.5-0.6,1.2-0.9,2.1-0.9c0.9,0,1.6,0.3,2.1,0.9c0.5,0.6,0.7,1.6,0.7,2.9c0,1.3-0.2,2.3-0.7,2.9
		c-0.5,0.6-1.2,0.9-2.1,0.9s-1.6-0.3-2.1-0.9c-0.5-0.6-0.7-1.5-0.7-2.9C24.5,113.7,24.7,112.7,25.2,112.1z M28.5,115
		c0-0.9-0.1-1.5-0.3-1.9c-0.2-0.4-0.5-0.5-1-0.5c-0.5,0-0.8,0.2-1,0.5s-0.3,1-0.3,1.9c0,0.9,0.1,1.5,0.3,1.9s0.5,0.5,1,0.5
		s0.8-0.2,1-0.5S28.5,115.9,28.5,115z"/>
</g>
<g>
	<path class="st15" d="M17.2,191.7v7.3h-1.5v-5.5l-1.6,1l-0.7-1.1l2.4-1.6H17.2z"/>
	<path class="st15" d="M19.7,192.5c0.5-0.6,1.2-0.9,2.1-0.9c0.9,0,1.6,0.3,2.1,0.9c0.5,0.6,0.7,1.6,0.7,2.9c0,1.3-0.2,2.3-0.7,2.9
		c-0.5,0.6-1.2,0.9-2.1,0.9s-1.6-0.3-2.1-0.9c-0.5-0.6-0.7-1.5-0.7-2.9C19,194,19.2,193.1,19.7,192.5z M23.1,195.3
		c0-0.9-0.1-1.5-0.3-1.9c-0.2-0.4-0.5-0.5-1-0.5c-0.5,0-0.8,0.2-1,0.5s-0.3,1-0.3,1.9c0,0.9,0.1,1.5,0.3,1.9s0.5,0.5,1,0.5
		s0.8-0.2,1-0.5S23.1,196.2,23.1,195.3z"/>
	<path class="st15" d="M26,192.1c0.5-0.3,1.1-0.5,1.9-0.5c0.8,0,1.4,0.2,1.9,0.5c0.5,0.4,0.7,0.8,0.7,1.5c0,0.4-0.1,0.7-0.2,1
		c-0.1,0.2-0.3,0.4-0.6,0.7c0.3,0.3,0.6,0.5,0.7,0.8c0.1,0.2,0.2,0.6,0.2,1c0,0.7-0.3,1.2-0.8,1.6c-0.5,0.3-1.2,0.5-2,0.5
		c-1.8,0-2.8-0.7-2.8-2c0-0.5,0.1-0.8,0.2-1.1s0.4-0.5,0.7-0.8c-0.3-0.2-0.5-0.5-0.6-0.7c-0.1-0.2-0.2-0.6-0.2-0.9
		C25.3,192.9,25.6,192.4,26,192.1z M26.8,196.7c0,0.6,0.4,1,1.1,1c0.8,0,1.1-0.3,1.1-1c0-0.4-0.2-0.7-0.6-0.8h-1
		C27.1,196.1,26.8,196.4,26.8,196.7z M28,192.9c-0.3,0-0.6,0.1-0.8,0.2c-0.2,0.1-0.3,0.4-0.3,0.7c0,0.3,0.2,0.6,0.5,0.8h1
		c0.4-0.2,0.5-0.5,0.5-0.9C29,193.2,28.7,192.9,28,192.9z"/>
</g>
<g>
	<path class="st15" d="M16.7,273.3v-1.4h4.6v1.7l-2.6,5.7l-1.4-0.4l2.5-5.3v-0.4H16.7z"/>
	<path class="st15" d="M27.6,279.2h-4.7v-1.3l1.6-1.6c0.6-0.6,0.9-1,1.1-1.3c0.2-0.3,0.3-0.6,0.3-1c0-0.3-0.1-0.6-0.3-0.7
		s-0.4-0.2-0.8-0.2c-0.5,0-1,0-1.6,0.1l-0.3,0l-0.1-1.2c0.7-0.2,1.5-0.3,2.2-0.3c1.5,0,2.3,0.7,2.3,2.1c0,0.5-0.1,1-0.4,1.4
		c-0.2,0.4-0.7,0.9-1.3,1.4l-1.3,1.1h3V279.2z"/>
</g>
<g>
	<path class="st15" d="M17.1,351.2c0.7-0.3,1.4-0.4,2.3-0.4s1.4,0.2,1.8,0.5c0.4,0.3,0.6,0.8,0.6,1.5s-0.3,1.2-0.8,1.6
		c0.4,0.2,0.6,0.4,0.8,0.6c0.2,0.2,0.2,0.5,0.2,1c0,0.8-0.2,1.4-0.6,1.7c-0.4,0.4-1,0.6-1.9,0.6c-0.6,0-1.3-0.1-2-0.3L17,358
		l0.1-1.2c0.8,0.1,1.5,0.2,2.1,0.2c0.8,0,1.1-0.3,1.1-1c0-0.3-0.1-0.5-0.3-0.6c-0.2-0.2-0.4-0.2-0.8-0.2h-1.5v-1.3h1.5
		c0.2,0,0.5-0.1,0.6-0.3c0.2-0.2,0.3-0.4,0.3-0.7c0-0.5-0.4-0.8-1.1-0.8c-0.5,0-1,0.1-1.6,0.2l-0.3,0L17.1,351.2z"/>
	<path class="st15" d="M28,352.3c-0.7-0.1-1.4-0.2-1.9-0.2c-1,0-1.6,0.6-1.6,1.7l0.2-0.1c0.5-0.1,0.9-0.2,1.2-0.2
		c0.8,0,1.5,0.2,1.9,0.6s0.6,1,0.6,1.8c0,0.8-0.2,1.4-0.7,1.8s-1.1,0.6-2,0.6c-0.9,0-1.6-0.3-2-1c-0.5-0.6-0.7-1.6-0.7-2.9
		s0.3-2.2,0.8-2.8s1.3-0.9,2.2-0.9c0.6,0,1.2,0.1,1.8,0.2l0.3,0.1L28,352.3z M25.8,354.9c-0.3,0-0.7,0.1-1.1,0.2l-0.2,0.1
		c0,1.3,0.4,1.9,1.2,1.9c0.4,0,0.6-0.1,0.8-0.3c0.2-0.2,0.3-0.5,0.3-0.8C26.8,355.2,26.5,354.9,25.8,354.9z"/>
</g>
<g>
	<path class="st15" d="M20.1,429.8v7.3h-1.5v-5.5l-1.6,1l-0.7-1.1l2.4-1.6H20.1z"/>
	<path class="st15" d="M22.8,430.2c0.5-0.3,1.1-0.5,1.9-0.5c0.8,0,1.4,0.2,1.9,0.5s0.7,0.8,0.7,1.5c0,0.4-0.1,0.7-0.2,1
		s-0.3,0.4-0.6,0.7c0.3,0.3,0.6,0.5,0.7,0.8c0.1,0.2,0.2,0.6,0.2,1c0,0.7-0.3,1.2-0.8,1.6c-0.5,0.3-1.2,0.5-2,0.5
		c-1.8,0-2.8-0.7-2.8-2c0-0.5,0.1-0.8,0.2-1.1c0.1-0.3,0.4-0.5,0.7-0.8c-0.3-0.2-0.5-0.5-0.6-0.7c-0.1-0.2-0.2-0.6-0.2-0.9
		C22.1,431,22.3,430.5,22.8,430.2z M23.6,434.8c0,0.6,0.4,1,1.1,1c0.8,0,1.1-0.3,1.1-1c0-0.4-0.2-0.7-0.6-0.8h-1
		C23.8,434.2,23.6,434.5,23.6,434.8z M24.7,431c-0.3,0-0.6,0.1-0.8,0.2c-0.2,0.1-0.3,0.4-0.3,0.7c0,0.3,0.2,0.6,0.5,0.8h1
		c0.4-0.2,0.5-0.5,0.5-0.9C25.7,431.3,25.4,431,24.7,431z"/>
</g>
<g>
	<path class="st15" d="M10.3,720.1H9.1v-7.8h1.2v4.5l0.7-0.1l1.3-2.1h1.3l-1.6,2.6l1.7,2.9h-1.4l-1.3-2.3l-0.7,0.1V720.1z"/>
	<path class="st15" d="M15.8,720.1h-1.2v-5.5h1.2v0.3c0.5-0.3,1-0.5,1.4-0.5c0.6,0,1.1,0.2,1.4,0.5c0.7-0.4,1.3-0.5,2-0.5
		c0.7,0,1.1,0.2,1.4,0.6s0.4,1.1,0.4,2.1v2.9h-1.2v-2.9c0-0.6-0.1-1-0.2-1.3c-0.1-0.2-0.4-0.4-0.8-0.4c-0.3,0-0.7,0.1-1.1,0.2
		l-0.2,0.1c0.1,0.1,0.1,0.6,0.1,1.4v2.8h-1.2v-2.8c0-0.7-0.1-1.1-0.2-1.4c-0.1-0.2-0.4-0.4-0.8-0.4c-0.4,0-0.7,0.1-1,0.2l-0.2,0.1
		V720.1z"/>
	<path class="st15" d="M23.4,720l3.1-7.8l1.1,0.4l-3.1,7.7L23.4,720z"/>
	<path class="st15" d="M29.9,720.1h-1.2v-7.8h1.2v2.6c0.5-0.3,1-0.4,1.5-0.4c0.7,0,1.2,0.2,1.5,0.6c0.3,0.4,0.4,1.1,0.4,2.1v2.9
		h-1.2v-2.9c0-0.6-0.1-1-0.2-1.3c-0.1-0.2-0.4-0.4-0.8-0.4c-0.4,0-0.7,0.1-1.1,0.2l-0.2,0.1V720.1z"/>
</g>
</svg>
