<?xml version="1.0" encoding="UTF-8" standalone="no"?>
<!-- Generator: Adobe Illustrator 28.0.0, SVG Export Plug-In . SVG Version: 6.00 Build 0)  -->

<svg
   version="1.1"
   id="Livello_1"
   x="0px"
   y="0px"
   width="50"
   height="677"
   viewBox="0 0 48.7 677.2"
   xml:space="preserve"
   xmlns:xlink="http://www.w3.org/1999/xlink"
   xmlns="http://www.w3.org/2000/svg"
   xmlns:svg="http://www.w3.org/2000/svg"><defs
   id="defs36"><rect
     x="13.079543"
     y="568.1427"
     width="25.50511"
     height="17.984371"
     id="rect41" /><rect
     x="10.708876"
     y="637.79126"
     width="33.598076"
     height="17.248648"
     id="rect40" /><rect
     x="13.079543"
     y="568.1427"
     width="25.50511"
     height="17.984371"
     id="rect41-9" /><rect
     x="13.079543"
     y="568.1427"
     width="25.50511"
     height="17.984371"
     id="rect41-9-7" /><rect
     x="13.079543"
     y="568.1427"
     width="25.50511"
     height="17.984371"
     id="rect41-9-7-3" /><rect
     x="13.079543"
     y="568.1427"
     width="25.50511"
     height="17.984371"
     id="rect41-9-7-3-2" /><rect
     x="13.079543"
     y="568.1427"
     width="25.50511"
     height="17.984371"
     id="rect41-9-7-3-2-8" /><rect
     x="13.079543"
     y="568.1427"
     width="25.50511"
     height="17.984371"
     id="rect41-9-7-5" /></defs>
<style
   type="text/css"
   id="style1">
	.st0{clip-path:url(#SVGID_00000098210186655483185570000000690952258764908696_);}
	.st1{fill:#9600FE;}
	.st2{fill:#EE82EE;}
	.st3{fill:#FF0000;}
	.st4{fill:#FFFF00;}
	.st5{fill:#FFA600;}
	.st6{fill:#0000FE;}
	.st7{fill:#54878C;}
	.st8{fill:#457D00;}
	.st9{fill:#39322E;}
	.st10{fill:none;}
	.st11{fill:none;stroke:#3C3430;stroke-width:2;stroke-miterlimit:9.7722;}
	.st12{fill:#FFFFFF;stroke:#FFFFFF;stroke-width:0.75;stroke-miterlimit:10;}
	.st13{fill:none;stroke:#3C3430;stroke-miterlimit:9.7722;}
	.st14{fill:#606060;stroke:#39322E;stroke-width:0.75;stroke-miterlimit:9.7722;}
	.st15{fill:#FFFFFF;}
</style>
<g
   id="g16">
	<g
   id="g15">
		<g
   id="g14">
			<g
   id="g13">
				<g
   id="g12">
					<g
   id="g11">
						<g
   id="g10">
							<g
   id="g9">
								<defs
   id="defs1"><path
     id="SVGID_1_"
     d="m 43,671.9 c -0.5,4 -9.5,4.4 -18.2,4.4 l -5.6,-0.2 C 10.7,676.5 4.9,673.7 4.9,669 V 56.1 c 1.8,-5.5 6.4,-6 13.3,-6 l 9.5,-0.2 c 7.8,0 13.6,0.8 15.4,6.5 l 0.3,612.7 z" /></defs>
								<clipPath
   id="SVGID_00000130635523882927988290000016844757918441977988_">
									<use
   xlink:href="#SVGID_1_"
   style="overflow:visible"
   id="use1" />
								</clipPath>
								<g
   clip-path="url(#SVGID_00000130635523882927988290000016844757918441977988_)"
   id="g8">
									<g
   id="g7">
										<rect
   x="-21.1"
   y="43.599998"
   class="st1"
   width="466.29999"
   height="73.099998"
   id="rect1" />
										<polygon
   class="st2"
   points="-21.6,189.9 -20.9,115.8 445.4,117.6 444.7,191.8 "
   id="polygon1" />
										<rect
   x="-21.1"
   y="189.89999"
   class="st3"
   width="466.29999"
   height="73.099998"
   id="rect2" />
										<rect
   x="-21.1"
   y="263.20001"
   class="st4"
   width="466.29999"
   height="73.199997"
   id="rect3" />
										<rect
   x="-21.1"
   y="336.29999"
   class="st5"
   width="466.29999"
   height="73.099998"
   id="rect4" />
										<rect
   x="-21.1"
   y="409.70001"
   class="st6"
   width="466.29999"
   height="73.099998"
   id="rect5" />
										<rect
   x="-21.1"
   y="482.70001"
   class="st7"
   width="466.29999"
   height="73.199997"
   id="rect6" />
										<rect
   x="-21.1"
   y="555.90002"
   class="st8"
   width="466.29999"
   height="125.2"
   id="rect7" />
									</g>
								</g>
							</g>
						</g>
					</g>
				</g>
			</g>
		</g>
	</g>
</g>
<circle
   class="st9"
   cx="24.1"
   cy="26.6"
   r="19.799999"
   id="circle16" />
<rect
   x="11.1"
   y="632"
   class="st10"
   width="15.4"
   height="11.8"
   id="rect16" />
<path
   class="st11"
   d="M 36.6,675.8 H 12.1 c -3.4,0 -6.2,-2.8 -6.2,-6.2 V 56.1 c 0,-3.4 2.8,-6.2 6.2,-6.2 h 24.5 c 3.4,0 6.2,2.8 6.2,6.2 v 613.5 c 0,3.4 -2.8,6.2 -6.2,6.2 z"
   id="path16" />


<line
   class="st13"
   x1="6.3000002"
   y1="555.70001"
   x2="17.23749"
   y2="555.70001"
   id="line19"
   style="stroke-width:0.920797" />
<line
   class="st13"
   x1="42"
   y1="555.70001"
   x2="30.362511"
   y2="555.70001"
   id="line20"
   style="stroke-width:0.925039" />
<line
   class="st13"
   x1="5.9000001"
   y1="116.2"
   x2="13.919777"
   y2="116.2"
   id="line21"
   style="stroke-width:0.861726" />
<line
   class="st13"
   x1="41.700001"
   y1="116.2"
   x2="33.335426"
   y2="116.2"
   id="line22"
   style="stroke-width:0.91458" />

<line
   class="st13"
   x1="6.0999999"
   y1="409.39999"
   x2="20"
   y2="409.39999"
   id="line24" />
<line
   class="st13"
   x1="42.5"
   y1="409.39999"
   x2="32.799999"
   y2="409.39999"
   id="line25" />

<line
   class="st13"
   x1="6.4000001"
   y1="262.89999"
   x2="14.447893"
   y2="262.89999"
   id="line26"
   style="stroke-width:0.808888" />
<line
   class="st13"
   x1="42.799999"
   y1="262.89999"
   x2="34.653141"
   y2="262.89999"
   id="line27"
   style="stroke-width:0.876682" />

<line
   class="st13"
   x1="6.1999998"
   y1="190.2"
   x2="14.574978"
   y2="190.2"
   id="line28"
   style="stroke-width:0.825162" />
<line
   class="st13"
   x1="42.599998"
   y1="190.2"
   x2="34.943768"
   y2="190.2"
   id="line29"
   style="stroke-width:0.849874" />


<line
   class="st13"
   x1="5.8000002"
   y1="335.60001"
   x2="18.1"
   y2="335.60001"
   id="line33" />
<line
   class="st13"
   x1="42.200001"
   y1="335.60001"
   x2="31.6"
   y2="335.60001"
   id="line34" />

<line
   class="st13"
   x1="5.5"
   y1="482.79999"
   x2="19.299999"
   y2="482.79999"
   id="line35" />
<line
   class="st13"
   x1="41.900002"
   y1="482.79999"
   x2="30.462511"
   y2="482.79999"
   id="line36"
   style="stroke-width:0.923874" />
<path
   class="st15"
   d="m 27,19.7 c 1.1,-0.6 2.6,0.2 2.6,1.4 0,0.9 -0.8,1.7 -1.7,1.7 H 8.4 c -1.1,0 -1.4,0.6 -1.4,1.4 0,0.6 0.3,1.4 1.4,1.4 h 19.5 c 2.4,0 4.3,-2 4.3,-4.3 0,-3.3 -3.6,-5.5 -6.5,-3.6 -0.3,0.2 -0.8,0.5 -1.1,0.6 -1.2,0.8 -0.6,2.4 0.6,2.4 0.3,0 0.5,0 0.8,-0.2 0.2,-0.3 0.6,-0.5 1,-0.8 z m 5.3,18 c -1.2,-0.6 -0.6,-2.4 0.6,-2.4 0.9,0 1.7,1.1 2.7,1.1 0.9,0 1.7,-0.8 1.7,-1.7 C 37.3,33.8 36.5,33 35.6,33 27.8,33 16.3,32.8 8.4,32.8 7.6,32.8 7.2,32.2 7.2,31.4 7.2,30.6 7.7,30 8.4,30 c 7.8,0 19.3,0.2 27.2,0.2 2.4,0 4.3,2 4.3,4.3 0,3.3 -3.6,5.5 -6.5,3.6 -0.4,0 -0.8,-0.1 -1.1,-0.4 z M 8.4,29.2 C 7,29.2 7,28.1 7,27.8 7,27.5 7,26.4 8.4,26.4 h 30 c 0.6,0 1.4,-0.6 1.5,-1.2 0.5,-1.5 -1.2,-2.6 -2.4,-1.8 -0.3,0.2 -0.8,0.5 -1.1,0.6 -0.9,0.6 -2,-0.2 -2,-1.1 0,-0.5 0.3,-0.9 0.6,-1.2 1.4,-0.8 2.1,-1.5 4,-1.4 1.5,0.2 2.7,1.1 3.3,2.4 1.4,3.2 -0.9,6.2 -4,6.2 z"
   id="path36" />
<text
   xml:space="preserve"
   transform="matrix(1.0002954,0,0,1.0002954,-0.00321513,20.19751)"
   id="text39"
   style="text-align:start;writing-mode:lr-tb;direction:ltr;white-space:pre;shape-inside:url(#rect40);fill:#ffffff;fill-opacity:1"><tspan
     x="10.708984"
     y="648.4082"
     id="tspan4"><tspan
       style="font-weight:900;font-stretch:expanded;font-size:10.6667px;font-family:Chypre;-inkscape-font-specification:'Chypre, Heavy Expanded'"
       id="tspan3">km/h</tspan></tspan></text><text
   xml:space="preserve"
   transform="matrix(1.0002954,0,0,1.0002954,4.0853497,-19.298026)"
   id="text41"
   style="font-style:normal;font-variant:normal;font-weight:900;font-stretch:expanded;font-size:10.6667px;font-family:Chypre;-inkscape-font-specification:'Chypre, Heavy Expanded';font-variant-ligatures:normal;font-variant-caps:normal;font-variant-numeric:normal;font-variant-east-asian:normal;text-align:start;writing-mode:lr-tb;direction:ltr;white-space:pre;shape-inside:url(#rect41);fill:#ffffff;fill-opacity:1"><tspan
     x="13.080078"
     y="578.17613"
     id="tspan5">7.2</tspan></text><text
   xml:space="preserve"
   transform="matrix(1.0002954,0,0,1.0002954,5.9112726,-92.686054)"
   id="text41-7"
   style="font-style:normal;font-variant:normal;font-weight:900;font-stretch:expanded;font-size:10.6667px;font-family:Chypre;-inkscape-font-specification:'Chypre, Heavy Expanded';font-variant-ligatures:normal;font-variant-caps:normal;font-variant-numeric:normal;font-variant-east-asian:normal;text-align:start;writing-mode:lr-tb;direction:ltr;white-space:pre;shape-inside:url(#rect41-9);display:inline;fill:#ffffff;fill-opacity:1"><tspan
     x="13.080078"
     y="578.17613"
     id="tspan6">18</tspan></text><text
   xml:space="preserve"
   transform="matrix(1.0002954,0,0,1.0002954,7.375079,-165.87117)"
   id="text41-7-6"
   style="font-style:normal;font-variant:normal;font-weight:900;font-stretch:expanded;font-size:10.6667px;font-family:Chypre;-inkscape-font-specification:'Chypre, Heavy Expanded';font-variant-ligatures:normal;font-variant-caps:normal;font-variant-numeric:normal;font-variant-east-asian:normal;text-align:start;writing-mode:lr-tb;direction:ltr;white-space:pre;shape-inside:url(#rect41-9-7);display:inline;fill:#ffffff;fill-opacity:1"><tspan
     x="13.080078"
     y="578.17613"
     id="tspan7">36</tspan></text><text
   xml:space="preserve"
   transform="matrix(1.0002954,0,0,1.0002954,2.5588478,-459.51169)"
   id="text41-7-6-1"
   style="font-style:normal;font-variant:normal;font-weight:900;font-stretch:expanded;font-size:10.6667px;font-family:Chypre;-inkscape-font-specification:'Chypre, Heavy Expanded';font-variant-ligatures:normal;font-variant-caps:normal;font-variant-numeric:normal;font-variant-east-asian:normal;text-align:start;writing-mode:lr-tb;direction:ltr;white-space:pre;shape-inside:url(#rect41-9-7-5);display:inline;fill:#ffffff;fill-opacity:1"><tspan
     x="13.080078"
     y="578.17613"
     id="tspan8">252</tspan></text><text
   xml:space="preserve"
   transform="matrix(1.0002954,0,0,1.0002954,6.118705,-239.25791)"
   id="text41-7-6-4"
   style="font-style:normal;font-variant:normal;font-weight:900;font-stretch:expanded;font-size:10.6667px;font-family:Chypre;-inkscape-font-specification:'Chypre, Heavy Expanded';font-variant-ligatures:normal;font-variant-caps:normal;font-variant-numeric:normal;font-variant-east-asian:normal;text-align:start;writing-mode:lr-tb;direction:ltr;white-space:pre;shape-inside:url(#rect41-9-7-3);display:inline;fill:#ffffff;fill-opacity:1"><tspan
     x="13.080078"
     y="578.17613"
     id="tspan10"><tspan
       style="fill:#000000"
       id="tspan9">72</tspan></tspan></text><text
   xml:space="preserve"
   transform="matrix(1.0002954,0,0,1.0002954,3.6597564,-312.2985)"
   id="text41-7-6-4-3"
   style="font-style:normal;font-variant:normal;font-weight:900;font-stretch:expanded;font-size:10.6667px;font-family:Chypre;-inkscape-font-specification:'Chypre, Heavy Expanded';font-variant-ligatures:normal;font-variant-caps:normal;font-variant-numeric:normal;font-variant-east-asian:normal;text-align:start;writing-mode:lr-tb;direction:ltr;white-space:pre;shape-inside:url(#rect41-9-7-3-2);display:inline;fill:#ffffff;fill-opacity:1"><tspan
     x="13.080078"
     y="578.17613"
     id="tspan12"><tspan
       style="fill:#000000"
       id="tspan11">108</tspan></tspan></text><text
   xml:space="preserve"
   transform="matrix(1.0002954,0,0,1.0002954,3.267474,-385.13748)"
   id="text41-7-6-4-3-0"
   style="font-style:normal;font-variant:normal;font-weight:900;font-stretch:expanded;font-size:10.6667px;font-family:Chypre;-inkscape-font-specification:'Chypre, Heavy Expanded';font-variant-ligatures:normal;font-variant-caps:normal;font-variant-numeric:normal;font-variant-east-asian:normal;text-align:start;writing-mode:lr-tb;direction:ltr;white-space:pre;shape-inside:url(#rect41-9-7-3-2-8);display:inline;fill:#ffffff;fill-opacity:1"><tspan
     x="13.080078"
     y="578.17613"
     id="tspan14"><tspan
       style="fill:#000000"
       id="tspan13">180</tspan></tspan></text></svg>
