<?xml version="1.0" encoding="utf-8"?>
<!-- Generator: Adobe Illustrator 16.0.0, SVG Export Plug-In . SVG Version: 6.00 Build 0)  -->
<!DOCTYPE svg PUBLIC "-//W3C//DTD SVG 1.1//EN" "http://www.w3.org/Graphics/SVG/1.1/DTD/svg11.dtd">
<svg version="1.1" id="Modalità_Isolamento" xmlns="http://www.w3.org/2000/svg" xmlns:xlink="http://www.w3.org/1999/xlink"
	 x="0px" y="0px" width="168.667px" height="169.664px" viewBox="0 0 168.667 169.664" enable-background="new 0 0 168.667 169.664"
	 xml:space="preserve">
<path fill="#FFFFFF" stroke="#FFFFFF" stroke-width="6" stroke-miterlimit="10" d="M156.489,53.603
	c-1.044,0-1.998,0.434-2.687,1.116l-69.479,65.813l-69.46-65.813c-0.677-0.683-1.628-1.116-2.685-1.116
	c-2.095,0-3.794,1.7-3.794,3.801c0,1.053,0.425,2.002,1.114,2.681l72.152,68.36c0.689,0.688,1.636,1.113,2.672,1.113
	c1.063,0,2.014-0.426,2.698-1.113l72.149-68.36c0.693-0.679,1.113-1.628,1.113-2.681C160.284,55.303,158.587,53.603,156.489,53.603"
	/>
</svg>
