<?xml version="1.0" encoding="utf-8"?>
<!-- Generator: Adobe Illustrator 16.0.0, SVG Export Plug-In . SVG Version: 6.00 Build 0)  -->
<!DOCTYPE svg PUBLIC "-//W3C//DTD SVG 1.1//EN" "http://www.w3.org/Graphics/SVG/1.1/DTD/svg11.dtd">
<svg version="1.1" id="Livello_1" xmlns="http://www.w3.org/2000/svg" xmlns:xlink="http://www.w3.org/1999/xlink" x="0px" y="0px"
	 width="231.28px" height="21.364px" viewBox="0 0 231.28 21.364" enable-background="new 0 0 231.28 21.364" xml:space="preserve">
<g>
	<path fill="#E49D2B" d="M56.894,6.836H17.521c0.526,1.01,0.824,2.157,0.824,3.375s-0.297,2.365-0.824,3.375h39.372
		c-0.526-1.01-0.824-2.157-0.824-3.375S56.367,7.846,56.894,6.836"/>
	<path fill="#FFFFFF" d="M108.42,10.211c0,1.22,0.3,2.37,0.82,3.37H69.87c0.53-1,0.82-2.15,0.82-3.37s-0.29-2.37-0.82-3.37h39.37
		C108.72,7.841,108.42,8.991,108.42,10.211z"/>
	<path fill="#FFFFFF" d="M160.77,10.211c0,1.22,0.3,2.37,0.82,3.37h-39.37c0.53-1,0.82-2.15,0.82-3.37s-0.29-2.37-0.82-3.37h39.37
		C161.07,7.841,160.77,8.991,160.77,10.211z"/>
	<path fill="#FFFFFF" d="M213.12,10.211c0,1.22,0.3,2.37,0.82,3.37h-39.37c0.53-1,0.82-2.15,0.82-3.37s-0.29-2.37-0.82-3.37h39.37
		C213.42,7.841,213.12,8.991,213.12,10.211z"/>
	<path fill="#FFFFFF" d="M220.432,2.898c-2.821,0-5.27,1.598-6.489,3.938c-0.526,1.01-0.824,2.157-0.824,3.375
		s0.297,2.365,0.824,3.375c1.219,2.34,3.667,3.938,6.489,3.938c4.038,0,7.313-3.273,7.313-7.313S224.47,2.898,220.432,2.898"/>
	<path fill="#FFFFFF" d="M168.082,2.898c-2.822,0-5.27,1.598-6.489,3.938c-0.526,1.01-0.824,2.157-0.824,3.375
		s0.297,2.365,0.824,3.375c1.219,2.34,3.667,3.938,6.489,3.938c2.821,0,5.27-1.598,6.489-3.938c0.526-1.01,0.824-2.157,0.824-3.375
		s-0.297-2.365-0.824-3.375C173.352,4.496,170.903,2.898,168.082,2.898"/>
	<path fill="#FFFFFF" d="M115.732,2.898c-2.821,0-5.27,1.598-6.489,3.938c-0.526,1.01-0.824,2.157-0.824,3.375
		s0.297,2.365,0.824,3.375c1.219,2.34,3.667,3.938,6.489,3.938s5.27-1.598,6.489-3.938c0.526-1.01,0.824-2.157,0.824-3.375
		s-0.297-2.365-0.824-3.375C121.001,4.496,118.553,2.898,115.732,2.898"/>
	<path fill="#E49D2B" d="M63.382,2.898c-2.821,0-5.27,1.598-6.489,3.938c-0.526,1.01-0.824,2.157-0.824,3.375
		s0.297,2.365,0.824,3.375c1.219,2.34,3.667,3.938,6.489,3.938s5.27-1.598,6.489-3.938c0.526-1.01,0.824-2.157,0.824-3.375
		s-0.297-2.365-0.824-3.375C68.652,4.496,66.204,2.898,63.382,2.898"/>
	<path fill="#E49D2B" d="M11.033,2.898c-4.039,0-7.313,3.273-7.313,7.313s3.274,7.313,7.313,7.313c2.821,0,5.27-1.598,6.489-3.938
		c0.526-1.01,0.824-2.157,0.824-3.375s-0.297-2.365-0.824-3.375C16.302,4.496,13.854,2.898,11.033,2.898"/>
</g>
</svg>
