<?xml version="1.0" encoding="UTF-8"?>
<svg id="Modalità_Isolamento" xmlns="http://www.w3.org/2000/svg" version="1.1" viewBox="0 0 168.7 169.7">
  <!-- Generator: Adobe Illustrator 29.6.1, SVG Export Plug-In . SVG Version: 2.1.1 Build 9)  -->
  <defs>
    <style>
      .st0 {
        fill: #fff;
      }
    </style>
  </defs>
  <g id="Book_x40_2x.png">
    <path class="st0" d="M133.8,11.9H38.3c-7.5,0-13.6,6.1-13.6,13.6v122.8c0,7.5,6.1,13.7,13.6,13.7h95.5c7.5,0,13.6-6.1,13.6-13.7V25.5c0-7.5-6.1-13.6-13.6-13.6ZM106.5,18.7h13.6v23.9l-6.8-6.8-6.8,6.8v-23.9ZM51.9,155.2h-13.6c-3.8,0-6.8-3.1-6.8-6.8V25.5c0-3.8,3.1-6.8,6.8-6.8h13.6v136.5ZM140.6,148.3c0,3.8-3.1,6.8-6.8,6.8H58.7V18.7h40.9v40.9l13.6-13.6,13.6,13.6V18.7h6.8c3.8,0,6.8,3.1,6.8,6.8v122.8Z"/>
  </g>
</svg>