<?xml version="1.0" encoding="UTF-8"?>
<svg id="Modalità_Isolamento" xmlns="http://www.w3.org/2000/svg" version="1.1" viewBox="0 0 168.7 169.7">
  <!-- Generator: Adobe Illustrator 29.6.1, SVG Export Plug-In . SVG Version: 2.1.1 Build 9)  -->
  <defs>
    <style>
      .st0 {
        fill: #fff;
      }
    </style>
  </defs>
  <g id="Calendar_2_x40_2x.png">
    <path class="st0" d="M102.2,80.3h-14.3v14.3h14.3v-14.3ZM123.6,105.3h-14.3v14.3h14.3v-14.3ZM102.2,105.3h-14.3v14.3h14.3v-14.3ZM102.2,130.3h-14.3v14.3h14.3v-14.3ZM80.8,80.3h-14.3v14.3h14.3v-14.3ZM123.6,80.3h-14.3v14.3h14.3v-14.3ZM145,80.3h-14.3v14.3h14.3v-14.3ZM145,105.3h-14.3v14.3h14.3v-14.3ZM148.6,23.1h-14.3v-10.7c0-2-1.6-3.6-3.6-3.6s-3.6,1.6-3.6,3.6v10.7H41.5v-10.7c0-2-1.6-3.6-3.6-3.6s-3.6,1.6-3.6,3.6v10.7h-14.3c-7.9,0-14.3,6.4-14.3,14.3v114.3c0,7.9,6.4,14.3,14.3,14.3h128.6c7.9,0,14.3-6.4,14.3-14.3V37.4c0-7.9-6.4-14.3-14.3-14.3ZM155.8,151.7c0,3.9-3.2,7.1-7.1,7.1H20c-3.9,0-7.1-3.2-7.1-7.1v-85.7h142.9v85.7ZM155.8,58.9H12.9v-21.4c0-3.9,3.2-7.1,7.1-7.1h14.3v10.7c0,2,1.6,3.6,3.6,3.6s3.6-1.6,3.6-3.6v-10.7h85.7v10.7c0,2,1.6,3.6,3.6,3.6s3.6-1.6,3.6-3.6v-10.7h14.3c3.9,0,7.1,3.2,7.1,7.1v21.4ZM37.9,80.3h-14.3v14.3h14.3v-14.3ZM59.3,130.3h-14.3v14.3h14.3v-14.3ZM80.8,105.3h-14.3v14.3h14.3v-14.3ZM37.9,130.3h-14.3v14.3h14.3v-14.3ZM37.9,105.3h-14.3v14.3h14.3v-14.3ZM59.3,105.3h-14.3v14.3h14.3v-14.3ZM80.8,130.3h-14.3v14.3h14.3v-14.3ZM59.3,80.3h-14.3v14.3h14.3v-14.3Z"/>
  </g>
</svg>