<?xml version="1.0" encoding="UTF-8"?>
<svg id="Livello_2" xmlns="http://www.w3.org/2000/svg" version="1.1" viewBox="0 0 135.9 95.5">
  <!-- Generator: Adobe Illustrator 29.6.1, SVG Export Plug-In . SVG Version: 2.1.1 Build 9)  -->
  <defs>
    <style>
      .st0 {
        fill: #fff;
      }
    </style>
  </defs>
  <g id="Clock_1_x40_2x.png">
    <path class="st0" d="M47.3,33c-.8-.5-1.8-.2-2.3.6-.5.8-.2,1.8.6,2.3.8.5,1.8.2,2.3-.6.5-.8.2-1.8-.6-2.3ZM54.7,23.9c-.8.5-1.1,1.5-.6,2.3.5.8,1.5,1.1,2.3.6.8-.5,1.1-1.5.6-2.3-.5-.8-1.5-1.1-2.3-.6ZM56.4,67c-.8-.5-1.8-.2-2.3.6-.5.8-.2,1.8.6,2.3.8.5,1.8.2,2.3-.6.5-.8.2-1.8-.6-2.3ZM79.6,26.7c.8.5,1.8.2,2.3-.6.5-.8.2-1.8-.6-2.3-.8-.5-1.8-.2-2.3.6-.5.8-.2,1.8.6,2.3ZM43.1,45.2c-.9,0-1.7.7-1.7,1.7s.7,1.7,1.7,1.7,1.7-.7,1.7-1.7-.7-1.7-1.7-1.7ZM45.6,57.9c-.8.5-1.1,1.5-.6,2.3.5.8,1.5,1.1,2.3.6.8-.5,1.1-1.5.6-2.3-.5-.8-1.5-1.1-2.3-.6ZM90.3,57.9c-.8-.5-1.8-.2-2.3.6-.5.8-.2,1.8.6,2.3.8.5,1.8.2,2.3-.6.5-.8.2-1.8-.6-2.3ZM92.9,45.2c-.9,0-1.7.7-1.7,1.7s.7,1.7,1.7,1.7,1.7-.7,1.7-1.7-.7-1.7-1.7-1.7ZM68,10.4c-20.2,0-36.5,16.3-36.5,36.5s16.3,36.5,36.5,36.5,36.5-16.3,36.5-36.5S88.1,10.4,68,10.4ZM68,80c-18.3,0-33.2-14.9-33.2-33.2S49.6,13.7,68,13.7s33.2,14.9,33.2,33.2-14.9,33.2-33.2,33.2ZM88.7,33c-.8.5-1.1,1.5-.6,2.3.5.8,1.5,1.1,2.3.6.8-.5,1.1-1.5.6-2.3-.5-.8-1.5-1.1-2.3-.6ZM68,70.1c-.9,0-1.7.7-1.7,1.7s.7,1.7,1.7,1.7,1.7-.7,1.7-1.7-.7-1.7-1.7-1.7ZM82.9,45.2h-8.5c-.6-2.3-2.4-4.1-4.7-4.7v-18.5c0-.9-.7-1.7-1.7-1.7s-1.7.7-1.7,1.7v18.5c-2.9.7-5,3.3-5,6.4s3,6.6,6.6,6.6,5.7-2.1,6.4-5h8.5c.9,0,1.7-.7,1.7-1.7s-.7-1.7-1.7-1.7ZM68,50.2c-1.8,0-3.3-1.5-3.3-3.3s1.5-3.3,3.3-3.3,3.3,1.5,3.3,3.3-1.5,3.3-3.3,3.3ZM79.6,67c-.8.5-1.1,1.5-.6,2.3.5.8,1.5,1.1,2.3.6.8-.5,1.1-1.5.6-2.3-.5-.8-1.5-1.1-2.3-.6Z"/>
  </g>
</svg>