<?xml version="1.0" encoding="utf-8"?>
<!-- Generator: Adobe Illustrator 16.0.0, SVG Export Plug-In . SVG Version: 6.00 Build 0)  -->
<!DOCTYPE svg PUBLIC "-//W3C//DTD SVG 1.1//EN" "http://www.w3.org/Graphics/SVG/1.1/DTD/svg11.dtd">
<svg version="1.1" id="Layer_1" xmlns="http://www.w3.org/2000/svg" xmlns:xlink="http://www.w3.org/1999/xlink" x="0px" y="0px"
	 width="141.41px" height="123.7px" viewBox="0 0 141.41 123.7" enable-background="new 0 0 141.41 123.7" xml:space="preserve">
<g>
	<path fill="#FFFFFF" d="M43.794,94.83h53.84c11.23,0,20.909-7.589,23.018-18.048c1.375-6.825-0.326-13.779-4.666-19.079
		c-3.707-4.527-8.926-7.408-14.633-8.151c0,0,0-5.134,0-5.135c0-18.187-16.399-32.57-34.418-30.417
		C51.617,15.828,40.065,29.35,40.065,45.452v4.099c-4.933,0.639-9.51,2.873-13.14,6.462c-5.239,5.3-7.539,12.576-6.306,19.967
		C22.325,86.198,32.938,94.83,43.794,94.83z M31.119,60.206c3.207-3.17,7.438-4.916,11.912-4.916c1.638,0,2.966-1.328,2.966-2.965
		c0,0,0-6.87,0-6.873c0-13.631,10.855-25.749,24.743-25.749c13.452,0,24.682,11.269,24.682,24.714v7.908
		c0,1.637,1.328,2.965,2.965,2.965c5.057,0,9.799,2.25,13.009,6.17c3.209,3.919,4.462,9.076,3.44,14.152
		c-1.55,7.699-8.786,13.287-17.202,13.287h-53.84c-7.993,0-16.088-6.493-17.323-13.897C25.556,69.513,27.258,64.111,31.119,60.206z"
		/>
</g>
<rect x="50.081" y="94.83" fill="none" width="41.324" height="23.18"/>
<text transform="matrix(1 0 0 1 60.999 112.6377)" fill="#FFFFFF" font-family="'Montserrat-Medium'" font-size="24">H</text>
</svg>
