<?xml version="1.0" encoding="UTF-8"?>
<svg id="Livello_2" xmlns="http://www.w3.org/2000/svg" version="1.1" viewBox="0 0 135.9 95.5">
  <!-- Generator: Adobe Illustrator 29.6.1, SVG Export Plug-In . SVG Version: 2.1.1 Build 9)  -->
  <defs>
    <style>
      .st0 {
        fill: #fff;
      }
    </style>
  </defs>
  <g id="Right_Arrow_1">
    <path class="st0" d="M98.4,12.5c-.4-.4-1-.7-1.6-.7h-32.1c-.6,0-1.2.2-1.6.7-.9.9-.9,2.3,0,3.2s1,.7,1.6.7h26.6s-63.4,63.4-63.4,63.4c-.9.9-.9,2.3,0,3.2s2.3.9,3.2,0l63.4-63.4v26.6c0,.6.2,1.2.7,1.6.9.9,2.3.9,3.2,0,.4-.4.7-1,.7-1.6V14.1c0-.6-.2-1.2-.7-1.6Z"/>
  </g>
</svg>