<?xml version="1.0" encoding="utf-8"?>
<!-- Generator: Adobe Illustrator 16.0.0, SVG Export Plug-In . SVG Version: 6.00 Build 0)  -->
<!DOCTYPE svg PUBLIC "-//W3C//DTD SVG 1.1//EN" "http://www.w3.org/Graphics/SVG/1.1/DTD/svg11.dtd">
<svg version="1.1" id="Livello_2" xmlns="http://www.w3.org/2000/svg" xmlns:xlink="http://www.w3.org/1999/xlink" x="0px" y="0px"
	 width="97.401px" height="129.51px" viewBox="0 0 97.401 129.51" enable-background="new 0 0 97.401 129.51" xml:space="preserve">
<path fill-rule="evenodd" clip-rule="evenodd" fill="#FFFFFF" d="M51.984,7.966c-0.722-0.901-1.814-1.426-2.969-1.426
	s-2.247,0.524-2.969,1.426c0,0-18.886,23.582-30.221,45.028c-5.138,9.721-8.658,19.077-8.658,25.828
	c0,23.097,18.751,41.848,41.848,41.848c23.097,0,41.848-18.751,41.848-41.848c0-6.751-3.521-16.107-8.658-25.828
	C70.87,31.548,51.984,7.966,51.984,7.966L51.984,7.966z M49.015,14.766c5.866,7.656,18.827,25.195,27.452,41.514
	c4.616,8.732,8.068,17.04,8.068,23.105c0,19.604-15.917,35.521-35.521,35.521c-19.604,0-35.52-15.916-35.52-35.521
	c0-6.065,3.451-14.373,8.067-23.105C30.188,39.961,43.148,22.422,49.015,14.766L49.015,14.766z M68.455,81.628
	c0,7.829-6.618,14.809-14.435,15.783c-1.806,0.226-4.204,1.073-4.204,3.03s1.627,2.688,2.993,2.508
	c11.644-1.531,19.905-9.328,20.551-21.04c0.084-1.514-0.83-3.334-2.668-3.156C69.594,78.859,68.558,79.346,68.455,81.628
	L68.455,81.628z"/>
</svg>
