<?xml version="1.0" encoding="utf-8"?>
<!-- Generator: Adobe Illustrator 16.0.0, SVG Export Plug-In . SVG Version: 6.00 Build 0)  -->
<!DOCTYPE svg PUBLIC "-//W3C//DTD SVG 1.1//EN" "http://www.w3.org/Graphics/SVG/1.1/DTD/svg11.dtd">
<svg version="1.1" id="Livello_2" xmlns="http://www.w3.org/2000/svg" xmlns:xlink="http://www.w3.org/1999/xlink" x="0px" y="0px"
	 width="97.4px" height="129.51px" viewBox="0 0 97.4 129.51" enable-background="new 0 0 97.4 129.51" xml:space="preserve">
<path fill="#FFFFFF" d="M51.984,7.966C51.262,7.065,50.17,6.54,49.015,6.54s-2.247,0.523-2.969,1.426
	c0,0-18.886,23.582-30.221,45.028c-5.139,9.721-8.658,19.076-8.658,25.827c0,23.098,18.751,41.849,41.848,41.849
	s41.848-18.751,41.848-41.849c0-6.751-3.521-16.106-8.657-25.827C70.87,31.548,51.984,7.966,51.984,7.966L51.984,7.966z
	 M49.015,14.766c5.866,7.656,18.827,25.195,27.452,41.514c4.616,8.732,8.068,17.04,8.068,23.105
	c0,19.604-15.917,35.521-35.521,35.521c-19.604,0-35.52-15.916-35.52-35.521c0-6.065,3.45-14.373,8.066-23.105
	C30.188,39.961,43.148,22.422,49.015,14.766L49.015,14.766z"/>
<path fill="none" stroke="#000000" stroke-width="2" stroke-miterlimit="10" d="M33.365,93.904"/>
<path fill="#FFFFFF" stroke="#FFFFFF" stroke-width="2" stroke-miterlimit="10" d="M32.854,91.929c0,0-0.433,0.619,0.265,1.105
	c0.595,0.418,1.129-0.129,1.129-0.129l15.178-21.674l15.176-21.677c0,0,0.316-0.557-0.328-1.01
	c-0.648-0.454-1.064,0.034-1.064,0.034L48.031,70.255L32.854,91.929z"/>
<circle fill="none" stroke="#FFFFFF" stroke-width="3" stroke-miterlimit="10" cx="36.048" cy="59.073" r="9.147"/>
<circle fill="none" stroke="#FFFFFF" stroke-width="3" stroke-miterlimit="10" cx="60.552" cy="82.468" r="9.147"/>
</svg>
