<?xml version="1.0" encoding="UTF-8"?>
<svg id="Modalità_Isolamento" xmlns="http://www.w3.org/2000/svg" version="1.1" viewBox="0 0 168.7 169.7">
  <!-- Generator: Adobe Illustrator 29.6.1, SVG Export Plug-In . SVG Version: 2.1.1 Build 9)  -->
  <defs>
    <style>
      .st0 {
        fill: #fff;
      }
    </style>
  </defs>
  <g id="Info_x40_2x.png">
    <path class="st0" d="M98.1,51.8c-1.8-1.7-4-2.5-6.6-2.5s-4.8.8-6.6,2.5c-1.8,1.7-2.8,3.7-2.8,6s.9,4.3,2.8,6c1.8,1.6,4,2.5,6.6,2.5s4.8-.8,6.6-2.5c1.8-1.6,2.7-3.6,2.7-6s-.9-4.3-2.7-6ZM94,115.6c-2,0-3.4-.3-4.3-1-.8-.6-1.2-1.9-1.2-3.6s.1-1.8.4-3.1c.3-1.4.5-2.6.9-3.7l3.9-13.4c.4-1.2.6-2.6.8-4.1.1-1.5.2-2.5.2-3.1,0-2.8-1-5.1-3.1-6.9-2-1.8-5-2.7-8.7-2.7s-4.3.4-6.7,1.1c-2.3.7-4.8,1.6-7.4,2.6l-1,4.2c.8-.3,1.7-.6,2.7-.9,1.1-.3,2.1-.5,3.1-.5,2.1,0,3.5.3,4.2,1,.7.7,1.1,1.9,1.1,3.6s-.1,2-.4,3.2c-.2,1.2-.5,2.4-.9,3.7l-3.9,13.5c-.3,1.4-.6,2.7-.8,3.8-.2,1.1-.2,2.2-.2,3.3,0,2.8,1.1,5.1,3.2,6.9,2.1,1.8,5.1,2.7,8.9,2.7s4.6-.3,6.5-.9c1.9-.6,4.4-1.5,7.5-2.7l1-4.2c-.5.2-1.4.5-2.6.9-1.2.3-2.3.5-3.2.5ZM84.2,13C44.1,13,11.5,45.6,11.5,85.7s32.6,72.8,72.8,72.8,72.8-32.6,72.8-72.8S124.4,13,84.2,13ZM84.2,151.9c-36.5,0-66.1-29.6-66.1-66.1S47.7,19.6,84.2,19.6s66.1,29.6,66.1,66.1-29.6,66.1-66.1,66.1Z"/>
  </g>
</svg>