<?xml version="1.0" encoding="utf-8"?>
<!-- Generator: Adobe Illustrator 16.0.0, SVG Export Plug-In . SVG Version: 6.00 Build 0)  -->
<!DOCTYPE svg PUBLIC "-//W3C//DTD SVG 1.1//EN" "http://www.w3.org/Graphics/SVG/1.1/DTD/svg11.dtd">
<svg version="1.1" id="Livello_1" xmlns="http://www.w3.org/2000/svg" xmlns:xlink="http://www.w3.org/1999/xlink" x="0px" y="0px"
	 width="105.131px" height="115.223px" viewBox="0 0 105.131 115.223" enable-background="new 0 0 105.131 115.223"
	 xml:space="preserve">
<path fill="#FFFFFF" stroke="#FFFFFF" stroke-width="3" stroke-miterlimit="10" d="M92.272,57.128h-5.752
	c-0.857-4.233-4.598-7.419-9.084-7.419c-4.484,0-8.226,3.186-9.082,7.419H14.386c-1.023,0-1.854,0.829-1.854,1.852
	c0,1.027,0.831,1.855,1.854,1.855h53.969c0.856,4.231,4.598,7.417,9.082,7.417c4.486,0,8.227-3.186,9.084-7.417h5.752
	c1.023,0,1.854-0.828,1.854-1.855C94.127,57.957,93.296,57.128,92.272,57.128 M77.437,64.543c-3.073,0-5.563-2.489-5.563-5.563
	c0-3.07,2.489-5.563,5.563-5.563c3.074,0,5.563,2.493,5.563,5.563C83,62.054,80.511,64.543,77.437,64.543 M92.272,84.941H56.85
	c-0.857-4.23-4.599-7.416-9.084-7.416s-8.227,3.186-9.084,7.416H14.386c-1.023,0-1.854,0.831-1.854,1.854
	c0,1.026,0.831,1.855,1.854,1.855h24.295c0.858,4.232,4.599,7.421,9.084,7.421s8.227-3.188,9.084-7.421h35.423
	c1.023,0,1.854-0.829,1.854-1.855C94.127,85.772,93.296,84.941,92.272,84.941 M47.766,92.36c-3.073,0-5.563-2.49-5.563-5.564
	c0-3.069,2.49-5.563,5.563-5.563s5.563,2.493,5.563,5.563C53.329,89.87,50.839,92.36,47.766,92.36 M14.386,33.018h9.459
	c0.859,4.233,4.599,7.418,9.084,7.418c4.486,0,8.228-3.185,9.085-7.418h50.258c1.023,0,1.854-0.828,1.854-1.854
	c0-1.023-0.831-1.855-1.854-1.855H42.015c-0.857-4.229-4.599-7.417-9.085-7.417c-4.485,0-8.226,3.188-9.084,7.417h-9.459
	c-1.023,0-1.854,0.832-1.854,1.855C12.531,32.189,13.362,33.018,14.386,33.018 M32.93,25.601c3.073,0,5.564,2.493,5.564,5.563
	c0,3.072-2.491,5.563-5.564,5.563c-3.072,0-5.563-2.49-5.563-5.563C27.367,28.093,29.857,25.601,32.93,25.601"/>
</svg>
