<?xml version="1.0" encoding="utf-8"?>
<!-- Generator: Adobe Illustrator 16.0.0, SVG Export Plug-In . SVG Version: 6.00 Build 0)  -->
<!DOCTYPE svg PUBLIC "-//W3C//DTD SVG 1.1//EN" "http://www.w3.org/Graphics/SVG/1.1/DTD/svg11.dtd">
<svg version="1.1" id="Layer_1" xmlns="http://www.w3.org/2000/svg" xmlns:xlink="http://www.w3.org/1999/xlink" x="0px" y="0px"
	 width="32.227px" height="33.609px" viewBox="7.239 8.351 32.227 33.609" enable-background="new 7.239 8.351 32.227 33.609"
	 xml:space="preserve">
<g id="XMLID_2020_">
	<circle id="XMLID_2058_" fill="#FFFDFD" cx="21.02" cy="10.563" r="1.98"/>
	<circle id="XMLID_2057_" fill="#FFFDFD" cx="16.421" cy="12.109" r="1.875"/>
	<circle id="XMLID_2056_" fill="#FFFDFD" cx="12.552" cy="15.038" r="1.771"/>
	<circle id="XMLID_2055_" fill="#FFFDFD" cx="9.806" cy="19.039" r="1.666"/>
	<circle id="XMLID_2054_" fill="#FFFDFD" cx="8.479" cy="23.706" r="1.562"/>
	<circle id="XMLID_2053_" fill="#FFFDFD" cx="8.697" cy="28.555" r="1.457"/>
	<circle id="XMLID_2047_" fill="#FFFDFD" cx="10.444" cy="33.082" r="1.354"/>
	<circle id="XMLID_2045_" fill="#FFFDFD" cx="13.537" cy="36.82" r="1.248"/>
	<circle id="XMLID_2040_" fill="#FFFDFD" cx="17.655" cy="39.388" r="1.144"/>
	<circle id="XMLID_2036_" fill="#FFFDFD" cx="22.376" cy="40.509" r="1.04"/>
	<circle id="XMLID_2035_" fill="#FFFDFD" cx="27.208" cy="40.08" r="0.936"/>
	<circle id="XMLID_2034_" fill="#FFFDFD" cx="31.655" cy="38.136" r="0.831"/>
	<circle id="XMLID_2032_" fill="#FFFDFD" cx="35.255" cy="34.881" r="0.727"/>
	<circle id="XMLID_2031_" fill="#FFFDFD" cx="37.639" cy="30.655" r="0.622"/>
	<circle id="XMLID_2029_" fill="#FFFDFD" cx="38.552" cy="25.891" r="0.518"/>
	<circle id="XMLID_2028_" fill="#FFFDFD" cx="37.913" cy="21.079" r="0.413"/>
	<circle id="XMLID_2026_" fill="#FFFDFD" cx="35.776" cy="16.723" r="0.308"/>
	<circle id="XMLID_2024_" fill="#FFFDFD" cx="32.368" cy="13.269" r="0.204"/>
	<circle id="XMLID_2022_" fill="#FFFDFD" cx="28.042" cy="11.072" r="0.099"/>
</g>
</svg>
