<?xml version="1.0" encoding="utf-8"?>
<!-- Generator: Adobe Illustrator 16.0.0, SVG Export Plug-In . SVG Version: 6.00 Build 0)  -->
<!DOCTYPE svg PUBLIC "-//W3C//DTD SVG 1.1//EN" "http://www.w3.org/Graphics/SVG/1.1/DTD/svg11.dtd">
<svg version="1.1" id="Layer_1" xmlns="http://www.w3.org/2000/svg" xmlns:xlink="http://www.w3.org/1999/xlink" x="0px" y="0px"
	 width="44.273px" height="44.882px" viewBox="0 0 44.273 44.882" enable-background="new 0 0 44.273 44.882" xml:space="preserve">
<g>
	<g>
		<g>
			<path fill="#E49C1E" d="M22.277,44.083c-2.916,0-5.743-0.569-8.407-1.696c-2.572-1.089-4.883-2.646-6.865-4.63
				c-1.982-1.983-3.541-4.293-4.629-6.864c-1.127-2.664-1.697-5.492-1.697-8.408s0.57-5.744,1.697-8.408
				c1.088-2.572,2.646-4.883,4.629-6.865c1.982-1.984,4.293-3.541,6.865-4.629c2.664-1.127,5.491-1.697,8.407-1.697
				s5.744,0.57,8.408,1.697c2.572,1.088,4.882,2.645,6.865,4.629c1.982,1.982,3.541,4.293,4.629,6.865
				c1.127,2.664,1.697,5.492,1.697,8.408s-0.57,5.744-1.697,8.408c-1.088,2.571-2.646,4.881-4.629,6.864
				c-1.983,1.982-4.293,3.541-6.865,4.63C28.021,43.514,25.193,44.083,22.277,44.083z"/>
			<path fill="#E49C1E" d="M22.277,2.234c-11.166,0-20.25,9.084-20.25,20.25s9.084,20.25,20.25,20.25s20.25-9.084,20.25-20.25
				S33.443,2.234,22.277,2.234z"/>
		</g>
	</g>
	<g display="none">
		<g display="inline">
			<path fill="#FFFFFF" d="M36.444,38.791c-0.281,0.269-1.423,1.146-1.688,1.328c-3.104,2.154-7.008,4.008-13.117,3.965
				l-1.777-0.133c-5.452-0.638-8.985-2.955-10.788-4.371c-0.196-0.154-0.551-0.461-1.048-0.863c-0.291-0.235-0.582-0.547-0.502-0.91
				c0.328-1.506,0.906-2.934,1.721-4.244c0.798-1.287,1.798-2.425,2.974-3.385c1.186-0.967,2.514-1.719,3.945-2.237
				c1.48-0.537,3.039-0.812,4.63-0.812h2.971c1.591,0,3.148,0.273,4.63,0.812c1.434,0.521,2.76,1.271,3.945,2.237
				c1.176,0.96,2.176,2.098,2.974,3.385c0.813,1.313,1.393,2.738,1.722,4.244c0.078,0.363-0.108,0.572-0.456,0.869
				C36.56,38.689,36.444,38.791,36.444,38.791z"/>
		</g>
		<g display="inline">
			<path fill="#FFFFFF" d="M22.277,28.479c-2.332,0-4.523-0.907-6.174-2.558c-1.647-1.648-2.557-3.84-2.557-6.172
				s0.908-4.525,2.557-6.174c1.649-1.648,3.842-2.557,6.174-2.557s4.524,0.908,6.175,2.557c1.647,1.648,2.557,3.842,2.557,6.174
				s-0.908,4.523-2.557,6.172C26.802,27.572,24.609,28.479,22.277,28.479z"/>
			<path fill="#FFFFFF" d="M22.277,12.369c-4.068,0-7.381,3.311-7.381,7.381c0,4.068,3.313,7.378,7.381,7.378
				c4.069,0,7.382-3.311,7.382-7.378C29.658,15.68,26.347,12.369,22.277,12.369z"/>
		</g>
	</g>
</g>
<rect x="-227.723" y="-227.52" fill="none" width="500" height="500"/>
<g>
	<path fill="#FFFFFF" d="M19.099,10.331c2.232,0,4.41,0.632,6.293,1.827c1.834,1.162,3.187,2.952,4.295,4.747l0.209,0.417h-2.558
		l-0.138-0.294c-2.198-3.332-4.19-4.552-8.175-4.5c-5.256,0.069-9.515,4.398-9.515,9.957c0,5.56,4.126,9.452,9.653,9.452
		c3.423,0,5.938-1.319,7.797-4.226l0.068-0.172l2.714,0.064l-0.231,0.425c-2.088,3.849-6.078,6.238-10.413,6.238
		c-6.542,0-11.863-5.369-11.863-11.968S12.559,10.331,19.099,10.331z"/>
	<path fill="#FFFFFF" d="M38.277,23.5h-14.89c-0.604,0-1.096-0.537-1.096-1.197s0.492-1.197,1.096-1.197h14.639l-4.358-5.064
		c-0.431-0.499-0.429-1.278,0.006-1.774c0.219-0.25,0.527-0.394,0.846-0.394c0.002,0,0.003,0,0.004,0
		c0.321,0.002,0.63,0.147,0.85,0.401l6.29,7.305c0.43,0.5,0.428,1.279-0.006,1.775l-6.341,7.248c-0.22,0.25-0.526,0.395-0.847,0.395
		c-0.001,0-0.002,0-0.004,0c-0.32-0.002-0.63-0.147-0.848-0.401c-0.431-0.499-0.428-1.278,0.007-1.774L38.277,23.5z"/>
</g>
</svg>
