<?xml version="1.0" encoding="utf-8"?>
<!-- Generator: Adobe Illustrator 16.0.0, SVG Export Plug-In . SVG Version: 6.00 Build 0)  -->
<!DOCTYPE svg PUBLIC "-//W3C//DTD SVG 1.1//EN" "http://www.w3.org/Graphics/SVG/1.1/DTD/svg11.dtd">
<svg version="1.1" id="Layer_1" xmlns="http://www.w3.org/2000/svg" xmlns:xlink="http://www.w3.org/1999/xlink" x="0px" y="0px"
	 width="45.986px" height="47.801px" viewBox="0 0 45.986 47.801" enable-background="new 0 0 45.986 47.801" xml:space="preserve">
<path fill="#FFFFFF" stroke="#FFFEFD" stroke-miterlimit="10" d="M33.872,25.818c-0.353,0-0.64,0.287-0.64,0.641
	c0,5.654-4.586,10.24-10.24,10.24c-5.653,0-10.239-4.586-10.239-10.24c0-5.656,4.586-10.24,10.239-10.24h4.232l-3.947,3.946
	l0.006,0.012c-0.17,0.113-0.291,0.3-0.291,0.521c0,0.354,0.286,0.641,0.642,0.641c0.131,0,0.247-0.051,0.349-0.116l0.007,0.009
	l0.043-0.044c0.033-0.026,0.063-0.058,0.09-0.09l4.986-4.986l-0.006-0.01c0.17-0.113,0.291-0.3,0.291-0.522
	s-0.121-0.406-0.291-0.521l0.006-0.01l-4.986-4.987c-0.026-0.032-0.057-0.063-0.09-0.089l-0.043-0.044l-0.007,0.009
	c-0.102-0.066-0.218-0.117-0.349-0.117c-0.354,0-0.642,0.287-0.642,0.641c0,0.224,0.121,0.408,0.291,0.522l-0.006,0.009l3.947,3.949
	h-4.232c-6.361,0-11.52,5.156-11.52,11.52c0,6.361,5.157,11.52,11.52,11.52c6.363,0,11.521-5.156,11.521-11.52
	C34.512,26.105,34.226,25.818,33.872,25.818"/>
<path fill="#FFFFFF" d="M22.993,1.9c-12.148,0-22,9.85-22,22s9.852,22,22,22c12.15,0,22-9.85,22-22S35.143,1.9,22.993,1.9
	 M22.993,43.9c-11.045,0-20-8.955-20-20c0-11.046,8.955-20,20-20c11.047,0,20,8.954,20,20C42.993,34.945,34.04,43.9,22.993,43.9"/>
</svg>
