<?xml version="1.0" encoding="utf-8"?>
<!-- Generator: Adobe Illustrator 16.0.0, SVG Export Plug-In . SVG Version: 6.00 Build 0)  -->
<!DOCTYPE svg PUBLIC "-//W3C//DTD SVG 1.1//EN" "http://www.w3.org/Graphics/SVG/1.1/DTD/svg11.dtd">
<svg version="1.1" id="Modalità_Isolamento" xmlns="http://www.w3.org/2000/svg" xmlns:xlink="http://www.w3.org/1999/xlink"
	 x="0px" y="0px" width="168.667px" height="169.664px" viewBox="0 0 168.667 169.664" enable-background="new 0 0 168.667 169.664"
	 xml:space="preserve">
<path fill="#FFFFFF" stroke="#FFFFFF" stroke-width="3" stroke-miterlimit="10" d="M139.504,38.29l0.012-0.043l-36.312-10.371
	l-0.014,0.036c-0.226-0.064-0.453-0.142-0.703-0.142c-0.249,0-0.472,0.077-0.697,0.142l-0.013-0.036L66.174,38.044L30.576,27.875
	l-0.013,0.036c-0.225-0.064-0.45-0.142-0.701-0.142c-1.429,0-2.591,1.162-2.591,2.597v98.562c0,1.188,0.808,2.141,1.893,2.452
	l-0.014,0.048L65.462,141.8l0.014-0.045c0.226,0.064,0.449,0.14,0.698,0.14c0.251,0,0.479-0.075,0.705-0.14l0.009,0.045l35.6-10.17
	l35.604,10.17l0.009-0.045c0.228,0.064,0.451,0.14,0.699,0.14c1.436,0,2.595-1.16,2.595-2.59V40.742
	C141.394,39.559,140.589,38.599,139.504,38.29 M63.578,135.861l-31.119-8.89V33.805l31.119,8.894V135.861z M99.893,126.971
	l-31.126,8.89V42.699l31.126-8.894V126.971z M136.208,135.861l-31.126-8.89V33.805l31.126,8.894V135.861z"/>
</svg>
