<?xml version="1.0" encoding="utf-8"?>
<!-- Generator: Adobe Illustrator 16.0.0, SVG Export Plug-In . SVG Version: 6.00 Build 0)  -->
<!DOCTYPE svg PUBLIC "-//W3C//DTD SVG 1.1//EN" "http://www.w3.org/Graphics/SVG/1.1/DTD/svg11.dtd">
<svg version="1.1" id="Modalità_Isolamento" xmlns="http://www.w3.org/2000/svg" xmlns:xlink="http://www.w3.org/1999/xlink"
	 x="0px" y="0px" width="168.667px" height="169.664px" viewBox="0 0 168.667 169.664" enable-background="new 0 0 168.667 169.664"
	 xml:space="preserve">
<g opacity="0.5">
	<path fill="#FFFFFF" d="M84.317,8.82c-42.365,0-76.83,34.465-76.83,76.829c0,42.364,34.465,76.829,76.83,76.829
		c42.365,0,76.83-34.465,76.83-76.829C161.147,43.285,126.682,8.82,84.317,8.82z M84.317,155.162
		c-38.329,0-69.512-31.184-69.512-69.513s31.184-69.512,69.512-69.512S153.83,47.32,153.83,85.649S122.646,155.162,84.317,155.162z"
		/>
</g>
<path opacity="0.5" fill="#FFFFFF" d="M128.22,81.99H40.415c-2.021,0-3.658,1.639-3.658,3.659c0,2.021,1.638,3.658,3.658,3.658
	h87.805c2.021,0,3.659-1.638,3.659-3.658C131.879,83.629,130.241,81.99,128.22,81.99z"/>
</svg>
