<?xml version="1.0" encoding="utf-8"?>
<!-- Generator: Adobe Illustrator 16.0.0, SVG Export Plug-In . SVG Version: 6.00 Build 0)  -->
<!DOCTYPE svg PUBLIC "-//W3C//DTD SVG 1.1//EN" "http://www.w3.org/Graphics/SVG/1.1/DTD/svg11.dtd">
<svg version="1.1" id="Modalità_Isolamento" xmlns="http://www.w3.org/2000/svg" xmlns:xlink="http://www.w3.org/1999/xlink"
	 x="0px" y="0px" width="359.762px" height="367.654px" viewBox="0 0 359.762 367.654" enable-background="new 0 0 359.762 367.654"
	 xml:space="preserve">
<g opacity="0.5">
	<path fill="#FFFFFF" d="M180.188,32.873c-84.729,0-153.659,68.93-153.659,153.658c0,84.729,68.929,153.658,153.659,153.658
		c84.729,0,153.659-68.93,153.659-153.658C333.847,101.804,264.917,32.873,180.188,32.873z M180.188,325.556
		c-76.658,0-139.024-62.367-139.024-139.024S103.531,47.508,180.188,47.508s139.023,62.366,139.023,139.023
		C319.211,263.189,256.845,325.556,180.188,325.556z"/>
	<path fill="#FFFFFF" d="M267.993,179.214H92.382c-4.041,0-7.315,3.275-7.315,7.316s3.275,7.317,7.315,7.317h175.61
		c4.041,0,7.316-3.276,7.316-7.317C275.309,182.49,272.033,179.214,267.993,179.214z"/>
</g>
</svg>
