<?xml version="1.0" encoding="utf-8"?>
<!-- Generator: Adobe Illustrator 28.2.0, SVG Export Plug-In . SVG Version: 6.00 Build 0)  -->
<svg version="1.1" id="Livello_1" xmlns="http://www.w3.org/2000/svg" xmlns:xlink="http://www.w3.org/1999/xlink" x="0px" y="0px"
	 viewBox="0 0 100.1 100.2" width="100px" height="100px" style="enable-background:new 0 0 100.1 100.2;" xml:space="preserve">
<style type="text/css">
	.st0{fill-rule:evenodd;clip-rule:evenodd;fill:#FFFFFF;}
</style>
<path class="st0" d="M86.6,60.5l-3.8,0.9c-0.8,2.9-1.9,5.6-3.4,8.2l2,3.3c0.7,1.1,1,2.7,0,3.7L74.1,84c-0.4,0.4-1,0.6-1.5,0.6
	c-0.7,0-1.5-0.3-2.1-0.6l-3.3-2c-2.5,1.5-5.3,2.6-8.1,3.4L58,89.1c-0.4,1.3-1.2,2.6-2.6,2.6H45c-1.4,0-2.3-1.3-2.6-2.6l-0.9-3.8
	c-2.9-0.8-5.6-1.9-8.1-3.4L30,84c-0.7,0.3-1.4,0.6-2.1,0.6c-0.6,0-1.1-0.2-1.5-0.6l-7.4-7.4c-1-1-0.7-2.5,0-3.7l2-3.3
	c-1.5-2.5-2.6-5.3-3.4-8.2l-3.8-0.9c-1.3-0.4-2.6-1.2-2.6-2.6V47.5c0-1.4,1.3-2.3,2.6-2.6l3.8-0.9c0.8-2.9,1.9-5.6,3.4-8.2l-2-3.3
	c-0.6-1.2-1-2.7,0-3.7l7.4-7.4c0.5-0.5,1-0.6,1.6-0.6c0.7,0,1.5,0.3,2.1,0.6l3.3,2c2.5-1.5,5.3-2.6,8.1-3.4l0.9-3.8
	c0.3-1.3,1.2-2.6,2.6-2.6h10.4c1.4,0,2.2,1.3,2.6,2.6l0.9,3.8c2.9,0.8,5.6,1.9,8.1,3.4l3.3-2c0.6-0.4,1.4-0.6,2.1-0.6
	c0.6,0,1.1,0.2,1.6,0.6l7.4,7.4c1,1,0.6,2.5,0,3.7l-2,3.3c1.5,2.5,2.6,5.3,3.4,8.2l3.8,0.9c1.3,0.3,2.6,1.2,2.6,2.6v10.4
	C89.2,59.3,87.9,60.1,86.6,60.5z M85.6,48.3L82,47.4c-1.3-0.3-2.2-1.3-2.6-2.5c-0.7-2.6-1.7-5-3-7.3c-0.6-1.1-0.6-2.5,0-3.6l1.9-3.2
	c0,0,0,0,0,0l-6.2-6.2l-3.3,2c-0.6,0.3-1.2,0.5-1.8,0.5c-0.6,0-1.2-0.2-1.8-0.5c-2.3-1.3-4.7-2.3-7.3-3c-1.2-0.3-2.2-1.3-2.5-2.6
	l-0.9-3.7c0,0,0,0,0,0h-8.8l-0.9,3.7c-0.3,1.3-1.3,2.2-2.5,2.6c-2.5,0.7-5,1.7-7.3,3c-0.6,0.3-1.2,0.5-1.8,0.5
	c-0.6,0-1.3-0.2-1.8-0.5l-3.3-2L22,30.7c0,0,0,0,0,0L24,34c0.7,1.1,0.7,2.5,0,3.6c-1.3,2.3-2.4,4.7-3,7.3c-0.3,1.2-1.3,2.2-2.6,2.5
	l-3.7,0.9v8.8c0,0,0,0,0,0l3.6,0.9c1.2,0.3,2.2,1.3,2.6,2.5c0.7,2.5,1.7,5,3,7.3c0.6,1.1,0.6,2.5,0,3.6l-2,3.3l6.2,6.2c0,0,0,0,0,0
	l3.2-1.9c0.6-0.3,1.2-0.5,1.8-0.5c0.6,0,1.2,0.2,1.8,0.5c2.3,1.3,4.7,2.3,7.3,3c1.2,0.3,2.2,1.3,2.5,2.6l0.9,3.7h8.8c0,0,0,0,0,0
	l0.9-3.7c0.3-1.3,1.3-2.2,2.5-2.6c2.5-0.7,5-1.7,7.3-3c0.5-0.3,1.2-0.5,1.8-0.5c0.6,0,1.3,0.2,1.8,0.5l3.2,1.9c0,0,0,0,0,0l6.2-6.2
	l-2-3.3c-0.7-1.1-0.7-2.5,0-3.6c1.3-2.3,2.3-4.7,3-7.3c0.3-1.2,1.3-2.2,2.6-2.5l3.6-0.9c0,0,0,0,0,0V48.3z M50.2,74
	c-11.8,0-21.3-9.5-21.3-21.3c0-11.8,9.5-21.3,21.3-21.3s21.3,9.5,21.3,21.3C71.5,64.4,61.9,74,50.2,74z M53.7,52.7
	c0-2-1.6-3.5-3.5-3.5c-2,0-3.5,1.6-3.5,3.5s1.6,3.5,3.5,3.5C52.1,56.2,53.7,54.6,53.7,52.7z M33.9,45.7c-0.9,2.2-1.4,4.5-1.4,7
	c0,9.2,7,16.8,16,17.6V59.5c-3.1-0.8-5.3-3.5-5.3-6.8c0-0.6,0.1-1.2,0.3-1.8L33.9,45.7z M50.2,35c-6,0-11.4,3-14.6,7.6l9.4,5.2
	c1.3-1.4,3.1-2.2,5.1-2.2c2,0,3.8,0.9,5.1,2.2l9.4-5.2C61.5,38,56.2,35,50.2,35z M66.5,45.7L57,50.9c0.1,0.6,0.3,1.2,0.3,1.8
	c0,3.3-2.3,6.1-5.3,6.8v10.8c9-0.9,16-8.4,16-17.6C67.9,50.2,67.4,47.8,66.5,45.7z"/>
</svg>
