<?xml version="1.0" encoding="utf-8"?>
<!-- Generator: Adobe Illustrator 27.8.1, SVG Export Plug-In . SVG Version: 6.00 Build 0)  -->
<svg version="1.1" id="Livello_2_00000080179264781578991940000016092997956927102090_"
	 xmlns="http://www.w3.org/2000/svg" xmlns:xlink="http://www.w3.org/1999/xlink" x="0px" y="0px" viewBox="0 0 139.2 136.2"
	 style="enable-background:new 0 0 139.2 136.2;" xml:space="preserve">
<style type="text/css">
	.st0{fill:#FFFFFF;}
</style>
<g id="Settings_2_x40_2x.png">
	<g>
		<path class="st0" d="M124.1,57.3l-5.6-1.4c-1.2-4.3-2.9-8.4-5-12.1l3-4.9c0.9-1.8,1.5-4,0-5.5l-10.9-10.9
			c-0.7-0.7-1.5-0.9-2.4-0.9c-1.1,0-2.2,0.4-3.1,0.9l-5,3c-3.8-2.2-7.8-3.9-12.1-5l-1.4-5.6c-0.6-1.9-1.7-3.9-3.9-3.9H62.3
			c-2.1,0-3.4,2-3.9,3.9L57,20.4c-4.3,1.1-8.3,2.8-12.1,5l-5-3c-0.9-0.5-2-0.9-3.1-0.9c-0.9,0-1.7,0.3-2.4,0.9L23.5,33.3
			c-1.5,1.5-0.9,3.7,0,5.5l3,4.9c-2.2,3.8-3.9,7.8-5,12.1l-5.6,1.4C14,57.8,12,59,12,61.2v15.5c0,2.1,2,3.3,3.9,3.9l5.6,1.4
			c1.2,4.3,2.9,8.4,5,12.1l-3,5c-1,1.7-1.5,4,0,5.5l10.9,10.9c0.7,0.7,1.5,0.9,2.3,0.9c1.1,0,2.2-0.4,3.2-0.9l5-3
			c3.8,2.2,7.8,3.9,12.1,5l1.4,5.6c0.5,1.9,1.7,3.9,3.9,3.9h15.5c2.1,0,3.3-2,3.9-3.9l1.4-5.6c4.3-1.1,8.3-2.8,12.1-5l5,3
			c1,0.5,2.1,0.9,3.2,0.9c0.8,0,1.6-0.3,2.3-0.9l10.9-10.9c1.5-1.5,1-3.8,0-5.5l-3-5c2.2-3.8,3.9-7.8,5-12.1l5.6-1.4
			c1.9-0.6,3.9-1.7,3.9-3.9V61.2C128,59,126,57.8,124.1,57.3z M122.7,75.4C122.7,75.4,122.7,75.4,122.7,75.4l-5.5,1.4
			c-1.9,0.5-3.3,1.9-3.8,3.7c-1,3.8-2.5,7.4-4.5,10.8c-1,1.7-0.9,3.7,0,5.4l2.9,4.8l-9.2,9.2c0,0,0,0-0.1,0l-4.8-2.9
			c-0.8-0.5-1.8-0.8-2.7-0.8c-0.9,0-1.8,0.2-2.6,0.7c-3.4,2-7,3.5-10.8,4.5c-1.9,0.5-3.3,2-3.8,3.8l-1.4,5.4c0,0,0,0,0,0.1h-13
			l-1.4-5.5c-0.5-1.9-1.9-3.3-3.8-3.8c-3.8-1-7.4-2.5-10.8-4.5c-0.8-0.5-1.7-0.7-2.6-0.7c-0.9,0-1.9,0.2-2.7,0.8l-4.8,2.9
			c0,0,0,0-0.1,0l-9.2-9.2l2.9-4.8c1-1.6,1-3.7,0-5.4c-2-3.4-3.5-7.1-4.5-10.8c-0.5-1.8-2-3.3-3.8-3.7l-5.4-1.4c0,0,0,0-0.1,0v-13
			l5.5-1.4c1.9-0.5,3.3-1.9,3.8-3.8c1-3.8,2.5-7.4,4.5-10.8c1-1.7,0.9-3.7,0-5.4l-2.9-4.8c0,0,0,0,0-0.1l9.2-9.2l4.9,2.9
			c0.8,0.5,1.8,0.7,2.7,0.7c0.9,0,1.8-0.2,2.6-0.7c3.4-2,7-3.5,10.8-4.5c1.9-0.5,3.3-2,3.8-3.8l1.4-5.5h13c0,0,0,0,0,0.1l1.4,5.4
			c0.5,1.9,1.9,3.3,3.8,3.8c3.8,1,7.4,2.5,10.8,4.5c0.8,0.5,1.7,0.7,2.6,0.7c0.9,0,1.9-0.2,2.7-0.7l4.9-2.9l9.2,9.2c0,0,0,0,0,0.1
			l-2.9,4.8c-1,1.6-1,3.7,0,5.4c2,3.4,3.5,7.1,4.5,10.8c0.5,1.9,2,3.3,3.8,3.8l5.5,1.4V75.4z M70,37.3c-17.5,0-31.6,14.2-31.6,31.6
			c0,17.5,14.2,31.6,31.6,31.6s31.6-14.2,31.6-31.6C101.6,51.4,87.5,37.3,70,37.3z M70,42.5c9,0,16.9,4.5,21.6,11.3l-14,7.8
			c-1.9-2-4.6-3.3-7.6-3.3s-5.7,1.3-7.6,3.3l-14-7.8C53.1,47,61,42.5,70,42.5z M67.4,95.1C54,93.8,43.6,82.6,43.6,68.9
			c0-3.7,0.8-7.2,2.2-10.4l14,7.8c-0.2,0.8-0.4,1.7-0.4,2.6c0,4.9,3.4,9,7.9,10.2V95.1z M64.7,68.9c0-2.9,2.4-5.3,5.3-5.3
			s5.3,2.4,5.3,5.3s-2.4,5.3-5.3,5.3S64.7,71.8,64.7,68.9z M96.4,68.9c0,13.7-10.4,24.9-23.7,26.2V79.1c4.5-1.2,7.9-5.3,7.9-10.2
			c0-0.9-0.2-1.8-0.4-2.6l14-7.8C95.6,61.7,96.4,65.2,96.4,68.9z"/>
	</g>
</g>
</svg>
