<?xml version="1.0" encoding="utf-8"?>
<!-- Generator: Adobe Illustrator 16.0.0, SVG Export Plug-In . SVG Version: 6.00 Build 0)  -->
<!DOCTYPE svg PUBLIC "-//W3C//DTD SVG 1.1//EN" "http://www.w3.org/Graphics/SVG/1.1/DTD/svg11.dtd">
<svg version="1.1" id="Layer_1" xmlns="http://www.w3.org/2000/svg" xmlns:xlink="http://www.w3.org/1999/xlink" x="0px" y="0px"
	 width="45.986px" height="47.801px" viewBox="47.26 52.518 45.986 47.801" enable-background="new 47.26 52.518 45.986 47.801"
	 xml:space="preserve">
<path fill="#FFFFFF" d="M67.253,68.418h-4c-0.551,0-1,0.447-1,1v14c0,0.553,0.449,1,1,1h4c0.553,0,1-0.447,1-1v-14
	C68.253,68.866,67.806,68.418,67.253,68.418 M66.253,82.418h-2v-12h2V82.418z M77.253,68.418h-4c-0.551,0-1,0.447-1,1v14
	c0,0.553,0.449,1,1,1h4c0.553,0,1-0.447,1-1v-14C78.253,68.866,77.806,68.418,77.253,68.418 M76.253,82.418h-2v-12h2V82.418z
	 M70.253,54.418c-12.149,0-22,9.85-22,22s9.851,22,22,22c12.15,0,22-9.85,22-22S82.403,54.418,70.253,54.418 M70.253,96.418
	c-11.045,0-20-8.955-20-20c0-11.046,8.955-20,20-20c11.047,0,20,8.954,20,20C90.253,87.463,81.3,96.418,70.253,96.418"/>
</svg>
