<?xml version="1.0" encoding="utf-8"?>
<!-- Generator: Adobe Illustrator 16.0.0, SVG Export Plug-In . SVG Version: 6.00 Build 0)  -->
<!DOCTYPE svg PUBLIC "-//W3C//DTD SVG 1.1//EN" "http://www.w3.org/Graphics/SVG/1.1/DTD/svg11.dtd">
<svg version="1.1" id="Modalità_Isolamento" xmlns="http://www.w3.org/2000/svg" xmlns:xlink="http://www.w3.org/1999/xlink"
	 x="0px" y="0px" width="120.438px" height="125.969px" viewBox="0 0 120.438 125.969" enable-background="new 0 0 120.438 125.969"
	 xml:space="preserve">
<g>
	<g>
		<path id="SVGID_1_" fill="#FFFFFF" d="M74.092,25.955"/>
	</g>
	<g>
		<path id="SVGID_2_" fill="#FFFFFF" d="M8.989,60.279c-0.002,2.316,1.619,4.136,4.191,5.347c2.574,1.215,5.872,1.838,8.695,1.838
			c2.827,0,5.457-0.707,7.668-1.928c2.208-1.222,3.993-2.955,5.126-5.004c1.134,2.049,2.919,3.782,5.126,5.004
			c2.209,1.221,4.84,1.928,7.667,1.928c2.826,0,5.457-0.707,7.665-1.928c2.208-1.222,3.993-2.955,5.13-5.004
			c1.131,2.049,2.918,3.782,5.125,5.004c2.212,1.221,4.838,1.928,7.668,1.928c2.825,0,5.455-0.707,7.663-1.928
			c2.208-1.222,3.995-2.955,5.129-5.004c1.131,2.049,2.917,3.782,5.13,5.004c2.207,1.221,4.838,1.928,7.664,1.928
			c2.822,0,5.453-0.707,7.663-1.928c2.207-1.222,4.021-3.059,5.153-5.107v28.463H8.989C8.989,60.279,8.989,60.279,8.989,60.279z"/>
	</g>
	<g>
		<path fill="none" d="M74.092,25.955"/>
	</g>
	<g>
		<defs>
			<path id="SVGID_3_" d="M8.989,60.279c-0.002,2.316,1.619,4.136,4.191,5.347c2.574,1.215,5.872,1.838,8.695,1.838
				c2.827,0,5.457-0.707,7.668-1.928c2.208-1.222,3.993-2.955,5.126-5.004c1.134,2.049,2.919,3.782,5.126,5.004
				c2.209,1.221,4.84,1.928,7.667,1.928c2.826,0,5.457-0.707,7.665-1.928c2.208-1.222,3.993-2.955,5.13-5.004
				c1.131,2.049,2.918,3.782,5.125,5.004c2.212,1.221,4.838,1.928,7.668,1.928c2.825,0,5.455-0.707,7.663-1.928
				c2.208-1.222,3.995-2.955,5.129-5.004c1.131,2.049,2.917,3.782,5.13,5.004c2.207,1.221,4.838,1.928,7.664,1.928
				c2.822,0,5.453-0.707,7.663-1.928c2.207-1.222,4.021-3.059,5.153-5.107v28.463H8.989C8.989,60.279,8.989,60.279,8.989,60.279z"/>
		</defs>
		<clipPath id="SVGID_4_">
			<use xlink:href="#SVGID_3_"  overflow="visible"/>
		</clipPath>
		<path clip-path="url(#SVGID_4_)" fill="none" d="M74.092,25.955"/>
		<polygon clip-path="url(#SVGID_4_)" fill="#FFFFFF" points="111.625,87.613 8.768,87.537 8.768,70.011 111.625,70.09 		"/>
	</g>
</g>
<path fill="#FFFFFF" stroke="#FFFFFF" stroke-width="3" stroke-miterlimit="10" d="M70.926,26.615l-10-10
	c-0.182-0.181-0.431-0.293-0.707-0.293s-0.526,0.112-0.707,0.293l-10,10c-0.181,0.181-0.293,0.431-0.293,0.707c0,0.553,0.448,1,1,1
	c0.276,0,0.526-0.111,0.707-0.293l8.293-8.293v32.681c0,0.554,0.448,1.195,1,1.195s1-0.644,1-1.195v-32.68l8.293,8.293
	c0.182,0.182,0.432,0.293,0.707,0.293c0.552,0,1-0.447,1-1C71.219,27.046,71.108,26.796,70.926,26.615"/>
<g>
	<path fill="#FFFFFF" d="M54.715,96.626c1.44,0.608,2.544,1.479,3.312,2.614c0.768,1.136,1.152,2.483,1.152,4.044
		c0,1.54-0.384,2.883-1.152,4.027c-0.768,1.146-1.872,2.021-3.312,2.63s-3.131,0.912-5.072,0.912h-5.056v6.141h-4.16v-21.28h9.216
		C51.584,95.714,53.275,96.019,54.715,96.626z M53.579,106.415c0.938-0.729,1.408-1.773,1.408-3.131
		c0-1.358-0.469-2.402-1.408-3.132c-0.939-0.729-2.315-1.094-4.128-1.094h-4.864v8.451h4.864
		C51.264,107.51,52.64,107.145,53.579,106.415z"/>
	<path fill="#FFFFFF" d="M81.387,113.681v3.313h-16.8v-21.28H80.94v3.313H68.747v5.533h10.816v3.253H68.747v5.867H81.387z"/>
</g>
</svg>
