<?xml version="1.0" encoding="utf-8"?>
<!-- Generator: Adobe Illustrator 16.0.0, SVG Export Plug-In . SVG Version: 6.00 Build 0)  -->
<!DOCTYPE svg PUBLIC "-//W3C//DTD SVG 1.1//EN" "http://www.w3.org/Graphics/SVG/1.1/DTD/svg11.dtd">
<svg version="1.1" id="Layer_1" xmlns="http://www.w3.org/2000/svg" xmlns:xlink="http://www.w3.org/1999/xlink" x="0px" y="0px"
	 width="45.986px" height="47.801px" viewBox="47.26 52.518 45.986 47.801" enable-background="new 47.26 52.518 45.986 47.801"
	 xml:space="preserve">
<path fill="#FFFFFF" d="M79.924,75.667l0.01-0.012l-0.177-0.102c-0.026-0.012-0.048-0.031-0.075-0.043l-13.748-7.855l-0.01,0.012
	c-0.172-0.137-0.379-0.23-0.615-0.23c-0.552,0-1,0.447-1,1v16c0,0.553,0.448,1,1,1c0.236,0,0.443-0.094,0.615-0.23l0.01,0.012
	l13.748-7.857c0.027-0.01,0.048-0.027,0.074-0.041l0.178-0.102l-0.01-0.012c0.229-0.184,0.385-0.453,0.385-0.77
	S80.152,75.85,79.924,75.667 M66.309,82.727V70.145l11.009,6.291L66.309,82.727z M70.309,54.436c-12.15,0-22,9.85-22,22
	s9.85,22,22,22s22-9.85,22-22S82.459,54.436,70.309,54.436 M70.309,96.436c-11.045,0-20-8.955-20-20c0-11.047,8.955-20,20-20
	c11.046,0,20,8.953,20,20C90.309,87.481,81.354,96.436,70.309,96.436"/>
</svg>
