<?xml version="1.0" encoding="utf-8"?>
<!-- Generator: Adobe Illustrator 16.0.0, SVG Export Plug-In . SVG Version: 6.00 Build 0)  -->
<!DOCTYPE svg PUBLIC "-//W3C//DTD SVG 1.1//EN" "http://www.w3.org/Graphics/SVG/1.1/DTD/svg11.dtd">
<svg version="1.1" id="Layer_1" xmlns="http://www.w3.org/2000/svg" xmlns:xlink="http://www.w3.org/1999/xlink" x="0px" y="0px"
	 width="45.986px" height="47.801px" viewBox="47.26 52.518 45.986 47.801" enable-background="new 47.26 52.518 45.986 47.801"
	 xml:space="preserve">
<path fill="#FFFFFF" d="M78.628,67.637l-4.375,2.5v2.276l4-2.286v12.582l-4-2.286v2.275l4.375,2.501l0.01-0.012
	c0.171,0.137,0.379,0.23,0.615,0.23c0.551,0,1-0.447,1-1v-16c0-0.553-0.449-1-1-1c-0.236,0-0.444,0.094-0.615,0.23L78.628,67.637z
	 M70.253,54.418c-12.15,0-22,9.85-22,22s9.85,22,22,22c12.149,0,22-9.85,22-22S82.402,54.418,70.253,54.418 M70.253,96.418
	c-11.047,0-20-8.955-20-20c0-11.046,8.953-20,20-20c11.045,0,20,8.954,20,20C90.253,87.463,81.298,96.418,70.253,96.418
	 M56.638,75.649c-0.229,0.184-0.385,0.453-0.385,0.77s0.156,0.586,0.385,0.77l-0.01,0.012l0.178,0.102
	c0.025,0.012,0.047,0.031,0.074,0.042L70.628,85.2l0.01-0.012c0.171,0.137,0.379,0.23,0.615,0.23c0.551,0,1-0.447,1-1v-16
	c0-0.553-0.449-1-1-1c-0.236,0-0.444,0.094-0.615,0.23l-0.01-0.012L56.88,75.494c-0.027,0.011-0.049,0.03-0.076,0.042l-0.176,0.102
	L56.638,75.649 M59.243,76.418l11.01-6.291v12.582L59.243,76.418z"/>
</svg>
