<?xml version="1.0" encoding="utf-8"?>
<!-- Generator: Adobe Illustrator 16.0.0, SVG Export Plug-In . SVG Version: 6.00 Build 0)  -->
<!DOCTYPE svg PUBLIC "-//W3C//DTD SVG 1.1//EN" "http://www.w3.org/Graphics/SVG/1.1/DTD/svg11.dtd">
<svg version="1.1" id="Layer_1" xmlns="http://www.w3.org/2000/svg" xmlns:xlink="http://www.w3.org/1999/xlink" x="0px" y="0px"
	 width="45.986px" height="47.801px" viewBox="47.26 52.518 45.986 47.801" enable-background="new 47.26 52.518 45.986 47.801"
	 xml:space="preserve">
<path fill="#FFFFFF" d="M61.868,67.649c-0.171-0.137-0.379-0.23-0.615-0.23c-0.551,0-1,0.447-1,1v16c0,0.553,0.449,1,1,1
	c0.236,0,0.444-0.094,0.615-0.23l0.01,0.012l4.375-2.501v-2.275l-4,2.286V70.127l4,2.286v-2.276l-4.375-2.5L61.868,67.649z
	 M70.253,54.418c-12.149,0-22,9.85-22,22s9.851,22,22,22c12.15,0,22-9.85,22-22S82.403,54.418,70.253,54.418 M70.253,96.418
	c-11.045,0-20-8.955-20-20c0-11.046,8.955-20,20-20c11.047,0,20,8.954,20,20C90.253,87.463,81.3,96.418,70.253,96.418
	 M83.868,75.649l0.01-0.012l-0.176-0.102c-0.027-0.012-0.049-0.031-0.076-0.042l-13.748-7.856l-0.01,0.012
	c-0.171-0.137-0.379-0.23-0.615-0.23c-0.551,0-1,0.447-1,1v16c0,0.553,0.449,1,1,1c0.236,0,0.444-0.094,0.615-0.23l0.01,0.012
	l13.748-7.856c0.027-0.011,0.049-0.03,0.074-0.042l0.178-0.102l-0.01-0.012c0.229-0.184,0.385-0.453,0.385-0.77
	S84.097,75.833,83.868,75.649 M70.253,82.709V70.127l11.01,6.291L70.253,82.709z"/>
</svg>
