<?xml version="1.0" encoding="utf-8"?>
<!-- Generator: Adobe Illustrator 16.0.0, SVG Export Plug-In . SVG Version: 6.00 Build 0)  -->
<!DOCTYPE svg PUBLIC "-//W3C//DTD SVG 1.1//EN" "http://www.w3.org/Graphics/SVG/1.1/DTD/svg11.dtd">
<svg version="1.1" id="Layer_1" xmlns="http://www.w3.org/2000/svg" xmlns:xlink="http://www.w3.org/1999/xlink" x="0px" y="0px"
	 width="45.986px" height="47.801px" viewBox="47.26 52.518 45.986 47.801" enable-background="new 47.26 52.518 45.986 47.801"
	 xml:space="preserve">
<path fill="#FFFFFF" d="M60.693,75.667c-0.229,0.184-0.385,0.453-0.385,0.77s0.156,0.586,0.385,0.77l-0.01,0.012l0.178,0.102
	c0.026,0.014,0.047,0.031,0.074,0.041l13.748,7.857l0.01-0.012c0.172,0.137,0.379,0.23,0.615,0.23c0.552,0,1-0.447,1-1v-16
	c0-0.553-0.448-1-1-1c-0.236,0-0.443,0.094-0.615,0.23l-0.01-0.012L60.936,75.51c-0.027,0.012-0.049,0.031-0.075,0.043l-0.177,0.102
	L60.693,75.667 M63.3,76.436l11.009-6.291v12.582L63.3,76.436z M70.309,54.436c-12.15,0-22,9.85-22,22s9.85,22,22,22s22-9.85,22-22
	S82.459,54.436,70.309,54.436 M70.309,96.436c-11.046,0-20-8.955-20-20c0-11.047,8.954-20,20-20c11.045,0,20,8.953,20,20
	C90.309,87.481,81.354,96.436,70.309,96.436"/>
</svg>
