<?xml version="1.0" encoding="utf-8"?>
<!-- Generator: Adobe Illustrator 16.0.0, SVG Export Plug-In . SVG Version: 6.00 Build 0)  -->
<!DOCTYPE svg PUBLIC "-//W3C//DTD SVG 1.1//EN" "http://www.w3.org/Graphics/SVG/1.1/DTD/svg11.dtd">
<svg version="1.1" id="Modalità_Isolamento" xmlns="http://www.w3.org/2000/svg" xmlns:xlink="http://www.w3.org/1999/xlink"
	 x="0px" y="0px" width="168.667px" height="169.663px" viewBox="0 0 168.667 169.663" enable-background="new 0 0 168.667 169.663"
	 xml:space="preserve">
<g>
	<path fill="#FFFFFF" d="M84.317,8.82c-42.365,0-76.83,34.465-76.83,76.829s34.465,76.829,76.83,76.829s76.83-34.465,76.83-76.829
		S126.682,8.82,84.317,8.82z M84.317,155.161c-38.329,0-69.512-31.183-69.512-69.512s31.184-69.512,69.512-69.512
		s69.512,31.183,69.512,69.512S122.646,155.161,84.317,155.161z"/>
	<path fill="#FFFFFF" d="M128.22,81.99H87.976V41.747c0-2.021-1.639-3.659-3.659-3.659s-3.659,1.638-3.659,3.659V81.99H40.414
		c-2.02,0-3.658,1.638-3.658,3.659s1.638,3.658,3.658,3.658h40.244v40.244c0,2.021,1.639,3.659,3.659,3.659s3.659-1.638,3.659-3.659
		V89.307h40.244c2.02,0,3.658-1.638,3.658-3.658S130.24,81.99,128.22,81.99z"/>
</g>
</svg>
