<?xml version="1.0" encoding="utf-8"?>
<!-- Generator: Adobe Illustrator 16.0.0, SVG Export Plug-In . SVG Version: 6.00 Build 0)  -->
<!DOCTYPE svg PUBLIC "-//W3C//DTD SVG 1.1//EN" "http://www.w3.org/Graphics/SVG/1.1/DTD/svg11.dtd">
<svg version="1.1" id="Layer_1" xmlns="http://www.w3.org/2000/svg" xmlns:xlink="http://www.w3.org/1999/xlink" x="0px" y="0px"
	 width="136.5px" height="131px" viewBox="0 0 136.5 131" enable-background="new 0 0 136.5 131" xml:space="preserve">
<g>
	<path fill="#FFFFFF" d="M126.52,76.579c0.035-0.188,0.053-0.38,0.049-0.571c-0.049-31.114-24.605-56.521-55.352-58.079v-5.093
		c0-1.637-1.328-2.965-2.965-2.965s-2.965,1.328-2.965,2.965v5.093C34.54,19.487,9.984,44.894,9.93,76.1
		c-0.002,1.596,1.382,2.967,2.966,2.967c0.76,0,1.552-0.353,2.101-0.875c9.812-9.355,22.97-9.354,32.767,0.041
		c0.558,0.528,1.405,0.822,2.167,0.793c0.678-0.027,1.439-0.32,1.937-0.793c4.055-3.885,8.69-6.068,13.42-6.739v40.192
		c0,8.174,6.651,14.828,14.827,14.828s14.828-6.654,14.828-14.828c0-1.637-1.329-2.965-2.967-2.965
		c-1.637,0-2.965,1.328-2.965,2.965c0,4.904-3.99,8.896-8.896,8.896s-8.896-3.992-8.896-8.896V71.492
		c4.729,0.671,9.365,2.854,13.42,6.738c1.104,1.053,2.994,1.063,4.103,0c9.8-9.391,22.96-9.396,32.817,0
		c0.99,0.951,2.52,1.082,3.658,0.32C125.887,78.104,126.369,77.372,126.52,76.579z M84.26,70.336
		c-4.875-3.289-10.256-4.967-15.651-5.037c-0.122-0.016-0.229-0.072-0.356-0.072c-0.125,0-0.234,0.057-0.354,0.072
		c-5.396,0.07-10.777,1.748-15.651,5.037c-1.456-20.311,3.622-36.005,9.75-42.95c4.248-4.812,8.268-4.812,12.516,0
		C80.637,34.331,85.715,50.025,84.26,70.336z M16.289,69.729c2.667-21.854,18.825-39.56,39.882-44.558
		c-5.873,7.877-11.233,23.291-9.915,44.455C36.824,63.824,25.7,63.859,16.289,69.729z M90.247,69.627
		c1.319-21.164-4.042-36.578-9.913-44.455c21.055,4.998,37.213,22.701,39.881,44.555C110.803,63.854,99.68,63.823,90.247,69.627z"/>
</g>
</svg>
