<?xml version="1.0" encoding="utf-8"?>
<!-- Generator: Adobe Illustrator 16.0.0, SVG Export Plug-In . SVG Version: 6.00 Build 0)  -->
<!DOCTYPE svg PUBLIC "-//W3C//DTD SVG 1.1//EN" "http://www.w3.org/Graphics/SVG/1.1/DTD/svg11.dtd">
<svg version="1.1" id="Layer_1" xmlns="http://www.w3.org/2000/svg" xmlns:xlink="http://www.w3.org/1999/xlink" x="0px" y="0px"
	 width="136.5px" height="131px" viewBox="0 0 136.5 131" enable-background="new 0 0 136.5 131" xml:space="preserve">
<g>
	<path fill="#FFFFFF" d="M127.156,76.579c0.036-0.188,0.053-0.38,0.049-0.571c-0.049-31.114-24.605-56.521-55.351-58.079v-5.093
		c0-1.637-1.328-2.965-2.965-2.965s-2.965,1.328-2.965,2.965v5.093C35.177,19.487,10.621,44.894,10.567,76.1
		c-0.002,1.596,1.382,2.966,2.966,2.966c0.76,0,1.552-0.352,2.101-0.875c9.812-9.355,22.97-9.354,32.767,0.041
		c0.558,0.529,1.405,0.823,2.167,0.793c0.678-0.027,1.439-0.32,1.937-0.793c4.055-3.885,8.69-6.068,13.42-6.739v40.193
		c0,8.174,6.651,14.827,14.827,14.827s14.828-6.653,14.828-14.827c0-1.637-1.329-2.966-2.966-2.966s-2.965,1.329-2.965,2.966
		c0,4.904-3.991,8.896-8.896,8.896s-8.896-3.992-8.896-8.896V71.492c4.73,0.671,9.365,2.854,13.42,6.739
		c1.104,1.052,2.995,1.062,4.103,0c9.799-9.391,22.96-9.396,32.817,0c0.99,0.95,2.52,1.081,3.659,0.32
		C126.524,78.104,127.006,77.372,127.156,76.579z M84.896,70.336c-4.875-3.289-10.255-4.967-15.651-5.037
		c-0.122-0.016-0.229-0.072-0.356-0.072c-0.126,0-0.234,0.057-0.355,0.072c-5.396,0.07-10.777,1.748-15.651,5.037
		c-1.456-20.311,3.622-36.005,9.75-42.95c4.248-4.812,8.267-4.812,12.515,0C81.274,34.331,86.352,50.025,84.896,70.336z
		 M16.926,69.729c2.667-21.854,18.825-39.56,39.882-44.558c-5.873,7.877-11.233,23.291-9.915,44.455
		C37.461,63.824,26.337,63.859,16.926,69.729z M90.884,69.627c1.319-21.164-4.042-36.578-9.914-44.455
		c21.056,4.998,37.213,22.701,39.881,44.555C111.44,63.854,100.317,63.823,90.884,69.627z"/>
</g>
</svg>
