<?xml version="1.0" encoding="utf-8"?>
<!-- Generator: Adobe Illustrator 16.0.0, SVG Export Plug-In . SVG Version: 6.00 Build 0)  -->
<!DOCTYPE svg PUBLIC "-//W3C//DTD SVG 1.1//EN" "http://www.w3.org/Graphics/SVG/1.1/DTD/svg11.dtd">
<svg version="1.1" id="Modalità_Isolamento" xmlns="http://www.w3.org/2000/svg" xmlns:xlink="http://www.w3.org/1999/xlink"
	 x="0px" y="0px" width="120.438px" height="125.968px" viewBox="0 0 120.438 125.968" enable-background="new 0 0 120.438 125.968"
	 xml:space="preserve">
<path fill-rule="evenodd" clip-rule="evenodd" fill="#FFFFFF" d="M60.045,7.906C29.301,7.906,4.34,32.866,4.34,63.61
	s24.96,55.705,55.705,55.705S115.75,94.354,115.75,63.61S90.789,7.906,60.045,7.906L60.045,7.906z M60.045,13.686
	c27.296,0,49.457,22.161,49.457,49.457s-22.161,49.456-49.457,49.456s-49.457-22.16-49.457-49.456S32.749,13.686,60.045,13.686
	L60.045,13.686z M56.435,60.733c-4.204,1.487-7.22,5.5-7.22,10.212c0,5.978,4.853,10.83,10.83,10.83
	c5.977,0,10.83-4.853,10.83-10.83c0-4.712-3.016-8.725-7.221-10.212V42.065c0-1.992-1.617-3.609-3.609-3.609
	c-1.993,0-3.61,1.617-3.61,3.609V60.733L56.435,60.733z M60.045,64.904c3.227,0,5.846,2.62,5.846,5.846
	c0,3.227-2.619,5.846-5.846,5.846c-3.226,0-5.845-2.619-5.845-5.846C54.2,67.524,56.819,64.904,60.045,64.904L60.045,64.904z
	 M93.139,66.504h7.609c2.1,0,3.805-1.347,3.805-3.007c0-1.658-1.705-3.006-3.805-3.006h-7.609c-2.1,0-3.805,1.348-3.805,3.006
	C89.334,65.157,91.039,66.504,93.139,66.504L93.139,66.504z M91.584,48.94l6.561-3.854c1.811-1.063,2.599-3.088,1.758-4.519
	c-0.84-1.431-2.992-1.729-4.803-0.666l-6.561,3.854c-1.811,1.063-2.599,3.089-1.758,4.519C87.621,49.706,89.773,50.004,91.584,48.94
	L91.584,48.94z M80.078,34.978l3.857-6.559c1.064-1.81,0.768-3.962-0.663-4.804c-1.43-0.841-3.456-0.055-4.52,1.755l-3.857,6.558
	c-1.064,1.811-0.768,3.963,0.663,4.804C76.989,37.574,79.014,36.787,80.078,34.978L80.078,34.978z M63.051,28.37v-7.608
	c0-2.1-1.346-3.805-3.006-3.805c-1.659,0-3.006,1.705-3.006,3.805v7.608c0,2.1,1.347,3.805,3.006,3.805
	C61.705,32.175,63.051,30.47,63.051,28.37L63.051,28.37z M36.492,28.05l3.635,6.684c1.003,1.845,3.001,2.699,4.459,1.906
	c1.458-0.792,1.826-2.934,0.823-4.778l-3.635-6.684c-1.002-1.845-3.001-2.699-4.458-1.906C35.857,24.064,35.489,26.206,36.492,28.05
	L36.492,28.05z M22.204,44.874l6.616,3.759c1.825,1.037,3.973,0.708,4.793-0.735c0.819-1.442,0.002-3.455-1.823-4.492l-6.615-3.759
	c-1.826-1.037-3.974-0.708-4.793,0.735C19.561,41.824,20.378,43.837,22.204,44.874L22.204,44.874z M17.901,66.129h7.608
	c2.1,0,3.805-1.347,3.805-3.007c0-1.658-1.705-3.006-3.805-3.006h-7.608c-2.1,0-3.805,1.348-3.805,3.006
	C14.097,64.782,15.802,66.129,17.901,66.129L17.901,66.129z"/>
</svg>
