<?xml version="1.0" encoding="utf-8"?>
<!-- Generator: Adobe Illustrator 16.0.0, SVG Export Plug-In . SVG Version: 6.00 Build 0)  -->
<!DOCTYPE svg PUBLIC "-//W3C//DTD SVG 1.1//EN" "http://www.w3.org/Graphics/SVG/1.1/DTD/svg11.dtd">
<svg version="1.1" id="Modalità_Isolamento" xmlns="http://www.w3.org/2000/svg" xmlns:xlink="http://www.w3.org/1999/xlink"
	 x="0px" y="0px" width="120.438px" height="125.968px" viewBox="0 0 120.438 125.968" enable-background="new 0 0 120.438 125.968"
	 xml:space="preserve">
<path fill="#FFFFFF" d="M60.045,19.047c-24.595,0-44.564,19.968-44.564,44.563c0,24.596,19.968,44.564,44.564,44.564
	c24.596,0,44.564-19.969,44.564-44.564C104.61,39.015,84.641,19.047,60.045,19.047L60.045,19.047z M60.045,23.671
	c21.837,0,39.565,17.729,39.565,39.566s-17.729,39.564-39.565,39.564S20.48,85.074,20.48,63.237S38.208,23.671,60.045,23.671
	L60.045,23.671z M57.157,61.309c-3.363,1.19-5.776,4.4-5.776,8.169c0,4.783,3.882,8.664,8.664,8.664
	c4.781,0,8.664-3.883,8.664-8.664c0-3.77-2.413-6.979-5.777-8.169V46.374c0-1.593-1.293-2.887-2.887-2.887
	c-1.595,0-2.888,1.294-2.888,2.887V61.309L57.157,61.309z M60.045,64.645c2.581,0,4.677,2.097,4.677,4.677
	c0,2.582-2.096,4.678-4.677,4.678s-4.676-2.096-4.676-4.678C55.369,66.742,57.464,64.645,60.045,64.645L60.045,64.645z
	 M86.52,65.925h6.088c1.68,0,3.044-1.077,3.044-2.405c0-1.327-1.364-2.405-3.044-2.405H86.52c-1.68,0-3.043,1.078-3.043,2.405
	C83.477,64.848,84.84,65.925,86.52,65.925L86.52,65.925z M85.277,51.874l5.248-3.083c1.449-0.851,2.08-2.47,1.406-3.615
	c-0.672-1.145-2.393-1.383-3.842-0.533l-5.249,3.083c-1.449,0.851-2.079,2.471-1.406,3.615
	C82.106,52.487,83.827,52.725,85.277,51.874L85.277,51.874z M76.072,40.705l3.085-5.247c0.852-1.448,0.615-3.17-0.53-3.843
	c-1.144-0.673-2.765-0.044-3.615,1.404l-3.086,5.247c-0.851,1.449-0.614,3.17,0.53,3.843C73.6,42.782,75.22,42.152,76.072,40.705
	L76.072,40.705z M62.449,35.418v-6.086c0-1.68-1.076-3.044-2.404-3.044c-1.327,0-2.405,1.364-2.405,3.044v6.086
	c0,1.68,1.078,3.043,2.405,3.043C61.373,38.462,62.449,37.098,62.449,35.418L62.449,35.418z M41.203,35.162l2.908,5.347
	c0.803,1.476,2.401,2.159,3.567,1.525c1.167-0.633,1.461-2.347,0.659-3.823l-2.909-5.347c-0.802-1.476-2.401-2.159-3.566-1.525
	C40.695,31.973,40.4,33.687,41.203,35.162L41.203,35.162z M29.773,48.622l5.292,3.007c1.46,0.83,3.179,0.566,3.834-0.588
	c0.655-1.153,0.002-2.764-1.458-3.593l-5.292-3.007c-1.461-0.83-3.179-0.566-3.834,0.588C27.657,46.182,28.312,47.792,29.773,48.622
	L29.773,48.622z M26.329,65.625h6.087c1.68,0,3.044-1.076,3.044-2.405c0-1.327-1.364-2.405-3.044-2.405h-6.087
	c-1.68,0-3.043,1.078-3.043,2.405C23.286,64.548,24.651,65.625,26.329,65.625L26.329,65.625z"/>
</svg>
