<?xml version="1.0" encoding="utf-8"?>
<!-- Generator: Adobe Illustrator 16.0.0, SVG Export Plug-In . SVG Version: 6.00 Build 0)  -->
<!DOCTYPE svg PUBLIC "-//W3C//DTD SVG 1.1//EN" "http://www.w3.org/Graphics/SVG/1.1/DTD/svg11.dtd">
<svg version="1.1" id="Modalità_Isolamento" xmlns="http://www.w3.org/2000/svg" xmlns:xlink="http://www.w3.org/1999/xlink"
	 x="0px" y="0px" width="120.438px" height="125.969px" viewBox="0 0 120.438 125.969" enable-background="new 0 0 120.438 125.969"
	 xml:space="preserve">
<g>
	<defs>
		<path id="SVGID_1_" d="M76.526,24.54"/>
	</defs>
	<defs>
		<path id="SVGID_2_" d="M0,64.885c-0.002,2.723,1.903,4.861,4.927,6.286c3.025,1.424,6.901,2.159,10.221,2.159
			c3.322,0,6.414-0.831,9.012-2.267c2.596-1.436,4.695-3.473,6.027-5.881c1.332,2.408,3.431,4.445,6.025,5.881
			c2.597,1.436,5.688,2.267,9.011,2.267c3.321,0,6.414-0.831,9.01-2.267s4.695-3.473,6.029-5.881
			c1.332,2.408,3.431,4.445,6.025,5.881c2.598,1.436,5.689,2.267,9.01,2.267c3.322,0,6.416-0.831,9.01-2.267
			c2.596-1.436,4.695-3.473,6.027-5.881c1.332,2.408,3.432,4.445,6.029,5.881c2.596,1.436,5.688,2.267,9.01,2.267
			c3.318,0,6.41-0.831,9.008-2.267c2.596-1.436,4.727-3.595,6.057-6.003v33.456H0C0,64.885,0,64.885,0,64.885z"/>
	</defs>
	<use xlink:href="#SVGID_1_"  overflow="visible" fill-rule="evenodd" clip-rule="evenodd" fill="#FFFFFF"/>
	<use xlink:href="#SVGID_2_"  overflow="visible" fill-rule="evenodd" clip-rule="evenodd" fill="#FFFFFF"/>
	<clipPath id="SVGID_3_">
		<use xlink:href="#SVGID_1_"  overflow="visible"/>
	</clipPath>
	<clipPath id="SVGID_4_" clip-path="url(#SVGID_3_)">
		<use xlink:href="#SVGID_2_"  overflow="visible"/>
	</clipPath>
	<polygon clip-path="url(#SVGID_4_)" fill-rule="evenodd" clip-rule="evenodd" fill="#FFFFFF" points="120.641,97.014 -0.26,96.924 
		-0.26,76.325 120.641,76.415 	"/>
</g>
<g>
	<path fill="#FFFFFF" d="M55.775,104.245c0.99,0.432,1.749,1.05,2.277,1.854s0.792,1.761,0.792,2.867
		c0,1.093-0.264,2.045-0.792,2.856c-0.528,0.813-1.287,1.434-2.277,1.865c-0.99,0.432-2.153,0.646-3.487,0.646h-3.476v4.355h-2.86
		v-15.092h6.336C53.622,103.598,54.785,103.814,55.775,104.245z M54.994,111.187c0.646-0.518,0.968-1.258,0.968-2.221
		s-0.323-1.703-0.968-2.221s-1.591-0.776-2.838-0.776h-3.344v5.994h3.344C53.403,111.964,54.348,111.705,54.994,111.187z"/>
	<path fill="#FFFFFF" d="M72.615,118.69l-3.145-4.42c-0.133,0.015-0.33,0.021-0.594,0.021h-3.477v4.398h-2.859v-15.092h6.336
		c1.334,0,2.496,0.216,3.486,0.646c0.99,0.432,1.748,1.05,2.277,1.854c0.527,0.805,0.791,1.761,0.791,2.867
		c0,1.136-0.281,2.113-0.846,2.933c-0.566,0.819-1.375,1.43-2.432,1.832l3.541,4.959H72.615z M71.582,106.746
		c-0.645-0.518-1.592-0.776-2.838-0.776h-3.344v6.016h3.344c1.246,0,2.193-0.262,2.838-0.787c0.645-0.524,0.969-1.269,0.969-2.231
		S72.227,107.263,71.582,106.746z"/>
</g>
<path fill="#FFFFFF" stroke="#FFFFFF" stroke-width="3" stroke-miterlimit="10" d="M70.926,31.178l-10-10
	c-0.182-0.181-0.431-0.293-0.707-0.293s-0.526,0.112-0.707,0.293l-10,10c-0.181,0.181-0.293,0.431-0.293,0.707c0,0.553,0.448,1,1,1
	c0.276,0,0.526-0.111,0.707-0.293l8.293-8.293V56.98c0,0.553,0.448,1.195,1,1.195s1-0.643,1-1.195V24.3l8.293,8.293
	c0.182,0.182,0.432,0.293,0.707,0.293c0.552,0,1-0.447,1-1C71.219,31.609,71.108,31.359,70.926,31.178"/>
</svg>
