<?xml version="1.0" encoding="utf-8"?>
<!-- Generator: Adobe Illustrator 16.0.0, SVG Export Plug-In . SVG Version: 6.00 Build 0)  -->
<!DOCTYPE svg PUBLIC "-//W3C//DTD SVG 1.1//EN" "http://www.w3.org/Graphics/SVG/1.1/DTD/svg11.dtd">
<svg version="1.1" id="Layer_1" xmlns="http://www.w3.org/2000/svg" xmlns:xlink="http://www.w3.org/1999/xlink" x="0px" y="0px"
	 width="44.273px" height="44.882px" viewBox="0 0 44.273 44.882" enable-background="new 0 0 44.273 44.882" xml:space="preserve">
<g>
	<g>
		<g>
			<path fill="#E49C1E" d="M22.277,44.083c-2.916,0-5.743-0.569-8.407-1.696c-2.572-1.089-4.883-2.646-6.865-4.63
				c-1.982-1.983-3.541-4.293-4.629-6.864c-1.127-2.664-1.697-5.492-1.697-8.408s0.57-5.744,1.697-8.408
				c1.088-2.572,2.646-4.883,4.629-6.865c1.982-1.984,4.293-3.541,6.865-4.629c2.664-1.127,5.491-1.697,8.407-1.697
				s5.744,0.57,8.408,1.697c2.572,1.088,4.882,2.645,6.865,4.629c1.982,1.982,3.541,4.293,4.629,6.865
				c1.127,2.664,1.697,5.492,1.697,8.408s-0.57,5.744-1.697,8.408c-1.088,2.571-2.646,4.881-4.629,6.864
				c-1.983,1.982-4.293,3.541-6.865,4.63C28.021,43.514,25.193,44.083,22.277,44.083z"/>
			<path fill="#E49C1E" d="M22.277,2.234c-11.166,0-20.25,9.084-20.25,20.25s9.084,20.25,20.25,20.25s20.25-9.084,20.25-20.25
				S33.443,2.234,22.277,2.234z"/>
		</g>
	</g>
	<g>
		<g>
			<path fill="#FFFFFF" d="M38.314,36.467c-0.354,0-0.806-0.205-0.884-0.564c-1.382-6.338-6.954-10.398-13.469-10.479l-3.374-0.017
				c-6.498,0-11.928,4.102-13.31,10.439c-0.09,0.414-0.61,0.663-1.024,0.572c-0.415-0.09-0.854-0.47-0.764-0.886
				c0.373-1.711,1.031-3.336,1.958-4.828c0.908-1.464,2.046-2.76,3.384-3.848c1.349-1.101,2.858-1.959,4.488-2.549
				c1.686-0.611,3.458-0.92,5.268-0.92h3.38c1.81,0,3.582,0.309,5.268,0.92c1.63,0.59,3.14,1.448,4.488,2.549
				c1.338,1.088,2.477,2.384,3.385,3.848c0.926,1.492,1.584,3.117,1.957,4.828c0.09,0.416-0.173,0.824-0.587,0.914
				C38.423,36.46,38.367,36.467,38.314,36.467z"/>
		</g>
		<g>
			<path fill="#FFFFFF" d="M22.277,24.924c-2.653,0-5.147-1.034-7.023-2.91s-2.909-4.37-2.909-7.023
				c0-2.653,1.033-5.147,2.909-7.023c1.876-1.876,4.37-2.91,7.023-2.91s5.147,1.033,7.024,2.91c1.876,1.876,2.909,4.37,2.909,7.023
				c0,2.654-1.033,5.147-2.909,7.023C24.513,26.8,23.243,24.924,22.277,24.924z M22.277,6.594c-4.629,0-8.397,3.767-8.397,8.397
				s3.768,8.398,8.397,8.398c4.631,0,8.397-3.769,8.397-8.398S26.907,6.594,22.277,6.594z"/>
		</g>
		<g>
			<path fill="#FFFFFF" d="M38.478,36.448c-0.364,0.108-0.97,0.553-1.048,0.193c-1.382-6.338-6.954-10.398-13.469-10.479
				l-3.374-0.017c-6.498,0-11.929,4.102-13.31,10.439C7.188,37,6.302,36.613,6.069,36.419c-0.387-0.32-0.592-0.809-0.501-1.225
				c0.373-1.711,0.953-2.259,1.88-3.751c0.907-1.464,2.046-2.76,3.383-3.848c1.35-1.101,2.859-1.959,4.488-2.549
				c1.687-0.611,3.458-0.92,5.269-0.92h3.38c1.81,0,3.582,0.309,5.268,0.92c1.63,0.59,3.14,1.448,4.488,2.549
				c1.338,1.088,2.477,2.384,3.385,3.848c0.926,1.492,1.592,2.437,1.965,4.147C39.162,36.007,38.892,36.358,38.478,36.448
				C38.423,36.46,38.496,36.316,38.478,36.448z"/>
		</g>
	</g>
	<path fill="none" d="M6.497,36.419c0-6.314,5.688-11.424,12.718-11.424"/>
	<path fill="none" stroke="#FFFFFF" stroke-miterlimit="10" d="M20.587,24.207"/>
	<path fill="none" stroke="#FFFFFF" stroke-miterlimit="10" d="M38.114,35.648"/>
	<path fill="none" stroke="#FFFFFF" stroke-miterlimit="10" d="M23.595,24.208"/>
	<path fill="none" stroke="#FFFFFF" stroke-miterlimit="10" d="M6.069,35.649"/>
	<circle fill="none" stroke="#FFFFFF" stroke-width="2" stroke-miterlimit="10" cx="22.277" cy="14.991" r="8.658"/>
</g>
<rect x="-227.723" y="-227.52" fill="none" width="500" height="500"/>
</svg>
