<?xml version="1.0" encoding="UTF-8"?>
<svg id="Modalità_Isolamento" xmlns="http://www.w3.org/2000/svg" version="1.1" viewBox="0 0 168.7 169.7">
  <!-- Generator: Adobe Illustrator 29.8.3, SVG Export Plug-In . SVG Version: 2.1.1 Build 3)  -->
  <defs>
    <style>
      .st0 {
        fill: #fff;
      }
    </style>
  </defs>
  <g id="Help_x40_2x.png">
    <path class="st0" d="M80.57,118.8h9.29v-11.01h-9.29v11.01ZM99.51,57.19c-1.77-1.47-3.85-2.61-6.15-3.37-2.29-.76-4.79-1.15-7.41-1.15-3.37,0-6.42.53-9.06,1.56-2.65,1.04-4.94,2.52-6.8,4.39-1.87,1.88-3.3,4.18-4.25,6.85-.94,2.64-1.42,5.61-1.42,8.81v.81h7.4l-.02-.83c-.06-2.2.21-4.26.78-6.11.57-1.83,1.44-3.45,2.58-4.81,1.13-1.34,2.59-2.41,4.35-3.18,1.77-.78,3.84-1.17,6.15-1.17,1.66,0,3.25.28,4.73.83,1.48.55,2.79,1.32,3.9,2.28,1.09.95,1.98,2.13,2.63,3.49.64,1.37.97,2.88.97,4.52,0,2.14-.53,4.11-1.57,5.87-1.08,1.81-2.45,3.47-4.08,4.93-1.95,1.71-3.63,3.27-5.01,4.64-1.42,1.4-2.57,2.89-3.42,4.43-.86,1.54-1.49,3.29-1.87,5.19-.38,1.88-.54,4.23-.47,6.99l.02.79h7.34l.02-.79c.06-2.68.18-4.75.36-6.16.17-1.33.5-2.47,1-3.38.5-.92,1.29-1.88,2.34-2.84,1.13-1.04,2.64-2.47,4.51-4.29,2.35-2.16,4.31-4.45,5.83-6.79,1.57-2.42,2.37-5.4,2.37-8.85,0-2.71-.52-5.15-1.54-7.26-1.02-2.1-2.44-3.92-4.23-5.41ZM84.75,13C44.57,13,12,45.57,12,85.75s32.57,72.75,72.75,72.75,72.75-32.57,72.75-72.75S124.93,13,84.75,13ZM84.75,151.89c-36.53,0-66.14-29.61-66.14-66.14S48.22,19.61,84.75,19.61s66.14,29.61,66.14,66.14-29.61,66.14-66.14,66.14Z"/>
  </g>
</svg>