<?xml version="1.0" encoding="UTF-8"?>
<svg id="Livello_2" xmlns="http://www.w3.org/2000/svg" version="1.1" viewBox="0 0 135.9 95.5">
  <!-- Generator: Adobe Illustrator 29.6.1, SVG Export Plug-In . SVG Version: 2.1.1 Build 9)  -->
  <defs>
    <style>
      .st0, .st1, .st2 {
        fill: #fff;
      }

      .st0, .st2 {
        stroke: #fff;
        stroke-miterlimit: 10;
      }

      .st2 {
        stroke-width: 2px;
      }
    </style>
  </defs>
  <g id="Livello_1-2">
    <g>
      <path class="st0" d="M70.4,69.6c-8.2,0-16.4-3.3-22.3-9.9-11.1-12.3-10.1-31.3,2.2-42.3l.3-.3c1.1-1,2.9-.9,3.9.2l36.3,40.3c1.1,1.2,1,3-.2,4.1l-.3.2c-5.7,5.1-12.9,7.7-20,7.7h0ZM52.4,24.6c-7.4,8.8-7.4,22,.5,30.8,7.9,8.8,21.1,10.2,30.6,3.7,0,0-31.1-34.6-31.1-34.6Z"/>
      <path class="st0" d="M90.6,35.9h-2.6c-1,0-1.8-.7-1.9-1.7-.7-5-4.7-9-9.7-9.7s-1.7-.9-1.7-1.9v-2c0-1.7,1.2-2.7,2.6-2.5,8,1.2,14.3,7.6,15.2,15.7s-.7,2.1-1.9,2.1Z"/>
      <path class="st0" d="M103.7,35.9h-1.9c-1.2,0-2.2-.9-2.2-2-1-12.1-10.7-21.8-22.8-22.8s-2-1.1-2-2.2,0-1.4,0-1.4c0-1.7,1.3-2.9,2.8-2.8,15.2,1.4,27.3,13.6,28.5,28.8.1,1.3-.9,2.5-2.3,2.5Z"/>
      <polygon class="st1" points="44.3 74.8 49.2 58 53.5 60.3 48.6 77.1 44.3 74.8"/>
    </g>
  </g>
  <path class="st2" d="M64.7,91c.3,0,.5-.2.4-.5-1.3-8.4-8.6-14.9-17.4-14.9-8.9,0-16.3,6.5-17.8,15,0,.2,0,.3.2.3,3.1,0,30.4.1,34.5.2Z"/>
</svg>