<?xml version="1.0" encoding="utf-8"?>
<!-- Generator: Adobe Illustrator 16.0.0, SVG Export Plug-In . SVG Version: 6.00 Build 0)  -->
<!DOCTYPE svg PUBLIC "-//W3C//DTD SVG 1.1//EN" "http://www.w3.org/Graphics/SVG/1.1/DTD/svg11.dtd">
<svg version="1.1" id="Layer_1" xmlns="http://www.w3.org/2000/svg" xmlns:xlink="http://www.w3.org/1999/xlink" x="0px" y="0px"
	 width="45.986px" height="47.801px" viewBox="47.26 52.518 45.986 47.801" enable-background="new 47.26 52.518 45.986 47.801"
	 xml:space="preserve">
<path fill="#FFFFFF" d="M70.253,54.418c-12.149,0-22,9.85-22,22s9.851,22,22,22c12.15,0,22-9.85,22-22S82.403,54.418,70.253,54.418
	 M70.253,96.418c-11.045,0-20-8.955-20-20c0-11.046,8.955-20,20-20c11.047,0,20,8.954,20,20
	C90.253,87.463,81.3,96.418,70.253,96.418 M81.133,78.338c-0.353,0-0.64,0.287-0.64,0.641c0,5.655-4.586,10.24-10.24,10.24
	s-10.24-4.585-10.24-10.24c0-5.656,4.586-10.24,10.24-10.24h4.232l-3.947,3.947l0.006,0.011c-0.17,0.114-0.291,0.3-0.291,0.522
	c0,0.354,0.286,0.641,0.641,0.641c0.131,0,0.247-0.051,0.349-0.117l0.007,0.009l0.043-0.044c0.033-0.026,0.063-0.057,0.09-0.09
	l4.986-4.986l-0.006-0.01c0.17-0.113,0.291-0.3,0.291-0.523c0-0.222-0.121-0.406-0.291-0.521l0.006-0.01l-4.986-4.987
	c-0.027-0.032-0.057-0.063-0.09-0.089l-0.043-0.044l-0.007,0.009c-0.102-0.067-0.218-0.117-0.349-0.117
	c-0.354,0-0.641,0.287-0.641,0.641c0,0.223,0.121,0.408,0.291,0.522l-0.006,0.009l3.947,3.949h-4.232
	c-6.362,0-11.52,5.156-11.52,11.52c0,6.362,5.157,11.52,11.52,11.52c6.363,0,11.521-5.157,11.521-11.52
	C81.773,78.625,81.487,78.338,81.133,78.338"/>
</svg>
