<?xml version="1.0" encoding="utf-8"?>
<!-- Generator: Adobe Illustrator 16.0.0, SVG Export Plug-In . SVG Version: 6.00 Build 0)  -->
<!DOCTYPE svg PUBLIC "-//W3C//DTD SVG 1.1//EN" "http://www.w3.org/Graphics/SVG/1.1/DTD/svg11.dtd">
<svg version="1.1" id="Layer_1" xmlns="http://www.w3.org/2000/svg" xmlns:xlink="http://www.w3.org/1999/xlink" x="0px" y="0px"
	 width="140.617px" height="143.872px" viewBox="0 0 140.617 143.872" enable-background="new 0 0 140.617 143.872"
	 xml:space="preserve">
<g>
	<path fill="#FFFFFF" d="M87.011,66.979l12.448-7.189l20.425,5.473c1.555,0.405,3.218-0.545,3.634-2.097
		c0.424-1.584-0.516-3.209-2.097-3.634l-14.698-3.938l10.912-6.303c1.419-0.818,1.902-2.631,1.085-4.05
		c-0.817-1.419-2.634-1.904-4.052-1.085l-10.899,6.296l3.933-14.679c0.424-1.583-0.515-3.208-2.097-3.633
		c-1.585-0.409-3.206,0.518-3.633,2.097l-5.47,20.413l-12.459,7.195l-12.85-7.417V40.044l14.947-14.947
		c1.159-1.159,1.159-3.035,0-4.193c-1.158-1.159-3.033-1.159-4.193,0L71.196,31.657V19.046c0-1.637-1.328-2.965-2.966-2.965
		s-2.966,1.328-2.966,2.965v12.611L54.511,20.904c-1.159-1.159-3.035-1.159-4.194,0c-1.158,1.158-1.158,3.035,0,4.193l14.947,14.947
		v14.384l-12.848,7.417l-12.46-7.195l-5.469-20.413c-0.423-1.583-2.039-2.508-3.634-2.097c-1.581,0.425-2.52,2.05-2.097,3.633
		l3.934,14.679l-10.901-6.296c-1.415-0.818-3.23-0.334-4.05,1.085c-0.819,1.419-0.334,3.232,1.085,4.05l10.911,6.303l-14.697,3.938
		c-1.581,0.425-2.52,2.05-2.097,3.634c0.409,1.531,2.064,2.506,3.633,2.097l20.425-5.473l12.448,7.189v14.842l-12.45,7.191
		l-20.423-5.471c-1.587-0.418-3.207,0.516-3.633,2.096c-0.423,1.584,0.516,3.209,2.097,3.633l14.696,3.939l-10.91,6.301
		c-1.419,0.82-1.904,2.635-1.085,4.051c0.79,1.369,2.64,1.902,4.05,1.086L32.69,98.35l-3.934,14.68
		c-0.423,1.582,0.516,3.209,2.097,3.635c1.564,0.42,3.216-0.537,3.634-2.098l5.469-20.414l12.459-7.193l12.849,7.418v14.383
		l-14.947,14.947c-1.158,1.158-1.158,3.035,0,4.191c1.119,1.119,3.039,1.154,4.194,0l10.753-10.754v12.611
		c0,1.637,1.328,2.965,2.966,2.965s2.966-1.328,2.966-2.965v-12.611l10.754,10.754c1.145,1.146,3.049,1.145,4.192,0
		c1.159-1.156,1.159-3.033,0-4.191L71.196,108.76V94.377l12.85-7.418l12.457,7.193c0,0,5.465,20.393,5.471,20.414
		c0.415,1.553,2.084,2.514,3.633,2.098c1.582-0.426,2.52-2.053,2.098-3.635l-3.934-14.68c0,0,10.893,6.291,10.9,6.297
		c1.363,0.787,3.238,0.32,4.051-1.086c0.818-1.416,0.334-3.23-1.085-4.051l-10.912-6.301l14.697-3.938
		c1.581-0.424,2.521-2.051,2.097-3.633c-0.425-1.584-2.037-2.518-3.634-2.098l-20.423,5.473l-12.45-7.191V66.979L87.011,66.979z
		 M81.081,81.823l-12.852,7.418l-12.851-7.418V66.982l12.851-7.417l12.852,7.417V81.823z"/>
</g>
</svg>
