<?xml version="1.0" standalone="no"?>
<!DOCTYPE svg PUBLIC "-//W3C//DTD SVG 20010904//EN"
 "http://www.w3.org/TR/2001/REC-SVG-20010904/DTD/svg10.dtd">
<svg version="1.0" xmlns="http://www.w3.org/2000/svg"
 width="512.000000pt" height="512.000000pt" viewBox="0 0 512.000000 512.000000"
 preserveAspectRatio="xMidYMid meet">

<g transform="translate(0.000000,512.000000) scale(0.100000,-0.100000)"
fill="#ffffff" stroke="none">
<path d="M755 5095 c-17 -17 -25 -35 -25 -60 0 -35 0 -36 -22 -21 -53 37 -128
3 -128 -58 0 -28 39 -76 61 -76 7 0 -4 -15 -24 -34 -44 -40 -48 -76 -12 -111
28 -29 54 -31 95 -10 l30 16 0 -31 c0 -43 14 -65 49 -79 50 -21 100 17 101 77
l0 33 30 -16 c41 -21 67 -19 95 10 36 35 32 71 -12 111 -20 19 -32 34 -26 34
20 0 63 49 63 73 0 13 -9 36 -21 51 -24 30 -72 35 -107 10 -22 -15 -22 -14
-22 21 0 44 -37 85 -75 85 -14 0 -37 -11 -50 -25z"/>
<path d="M3209 5101 l-24 -19 -5 -813 -5 -813 -100 -13 c-55 -8 -298 -45 -540
-84 -557 -89 -787 -122 -1100 -156 -225 -25 -252 -30 -272 -50 -30 -29 -29
-68 3 -100 24 -24 29 -25 97 -19 329 31 718 84 1262 172 406 65 597 94 631 94
l24 0 0 -1575 0 -1575 -1271 0 c-794 0 -1277 -4 -1288 -10 -10 -5 -24 -22 -30
-39 -10 -24 -10 -34 3 -59 8 -16 23 -32 31 -36 9 -3 813 -6 1786 -6 l1770 0
24 25 25 24 0 1635 0 1636 33 -6 c241 -43 485 -113 640 -183 l67 -30 0 -1451
0 -1451 -25 -24 -24 -25 -246 0 -246 0 -24 -25 c-32 -31 -32 -69 0 -100 l24
-25 247 0 c165 0 260 4 288 12 54 16 128 90 144 144 16 55 18 2995 2 3025 -12
21 -128 83 -246 129 -156 62 -372 118 -596 155 l-38 6 0 800 0 800 -25 24 -24
25 -474 0 c-453 0 -476 -1 -498 -19z m871 -221 l0 -90 -125 0 c-120 0 -127 -1
-150 -25 -31 -30 -32 -71 -3 -102 20 -22 29 -23 150 -23 l128 0 0 -89 0 -89
-131 -4 c-123 -3 -132 -4 -150 -27 -25 -31 -24 -69 3 -98 20 -22 29 -23 150
-23 l128 0 0 -90 0 -90 -165 0 c-205 0 -235 -11 -235 -86 0 -13 9 -33 20 -44
19 -19 33 -20 200 -20 l181 0 -3 -92 -3 -93 -133 -5 c-117 -4 -135 -7 -148
-24 -16 -23 -18 -60 -4 -86 15 -29 65 -40 181 -40 l109 0 0 -73 0 -73 -271 1
-271 0 -24 -28 c-31 -36 -31 -71 1 -103 25 -25 26 -25 148 -18 67 4 189 3 270
-1 l147 -7 0 -104 0 -104 -177 0 c-168 0 -178 -1 -200 -22 -31 -29 -30 -72 2
-103 24 -25 27 -25 200 -25 l175 0 0 -90 0 -90 -124 0 c-110 0 -126 -2 -150
-21 -34 -27 -35 -71 -1 -104 23 -24 30 -25 150 -25 l125 0 0 -90 0 -90 -125 0
c-120 0 -127 -1 -150 -25 -14 -13 -25 -36 -25 -50 0 -14 11 -37 25 -50 23 -24
30 -25 150 -25 l125 0 0 -90 0 -90 -175 0 c-173 0 -176 0 -200 -25 -31 -30
-32 -71 -3 -102 21 -22 26 -23 200 -23 l178 0 0 -89 0 -89 -131 -4 c-123 -3
-132 -4 -150 -27 -25 -31 -24 -69 3 -98 20 -22 29 -23 150 -23 l128 0 0 -90 0
-90 -109 0 c-116 0 -166 -11 -181 -40 -14 -26 -12 -63 4 -86 13 -17 31 -20
148 -24 l133 -5 3 -92 3 -93 -181 0 c-167 0 -181 -1 -200 -20 -11 -11 -20 -31
-20 -44 0 -75 30 -86 235 -86 l165 0 0 -90 0 -90 -127 0 c-116 0 -129 -2 -150
-22 -28 -26 -30 -67 -4 -99 18 -23 27 -24 150 -27 l131 -4 0 -89 0 -89 -127 0
c-116 0 -129 -2 -150 -22 -31 -29 -30 -72 2 -103 23 -24 30 -25 150 -25 l125
0 0 -90 0 -90 -375 0 -375 0 0 2410 0 2410 375 0 375 0 0 -90z"/>
<path d="M2245 5000 c-27 -30 -25 -88 4 -111 32 -26 85 -25 111 3 26 28 26 82
0 108 -27 27 -90 27 -115 0z"/>
<path d="M4880 4852 c-34 -34 -37 -50 -15 -91 24 -48 81 -56 120 -16 47 46 23
118 -42 131 -27 5 -37 1 -63 -24z"/>
<path d="M2060 4752 c-34 -34 -37 -50 -15 -91 24 -48 81 -56 120 -16 47 46 23
118 -42 131 -27 5 -37 1 -63 -24z"/>
<path d="M4680 4552 c-34 -34 -37 -50 -15 -91 24 -48 81 -56 120 -16 47 46 23
118 -42 131 -27 5 -37 1 -63 -24z"/>
<path d="M2413 4352 c-30 -5 -53 -39 -53 -79 0 -36 -6 -39 -34 -18 -46 35
-116 -1 -116 -60 0 -27 8 -40 37 -64 21 -17 32 -31 25 -31 -7 0 -24 -11 -37
-25 -53 -52 -18 -131 53 -123 21 3 45 8 55 12 14 7 17 3 17 -26 0 -98 131
-104 146 -7 5 32 10 39 23 33 9 -4 32 -9 52 -12 30 -3 40 1 58 23 29 38 26 62
-13 101 l-33 33 30 24 c40 31 44 89 8 118 -28 23 -52 24 -91 4 -30 -15 -30
-15 -30 13 0 33 -31 78 -57 84 -10 2 -28 2 -40 0z"/>
<path d="M2895 4178 c-49 -26 -59 -77 -24 -122 40 -51 122 -26 135 41 5 27 1
37 -24 63 -32 32 -54 36 -87 18z"/>
<path d="M609 3991 c-45 -36 -21 -126 36 -131 60 -6 95 21 95 73 0 66 -79 101
-131 58z"/>
<path d="M4880 3752 c-34 -34 -37 -50 -15 -91 24 -48 81 -56 120 -16 47 46 23
118 -42 131 -27 5 -37 1 -63 -24z"/>
<path d="M370 3740 c-12 -12 -20 -33 -20 -55 0 -40 1 -40 -36 -20 -39 20 -56
19 -88 -6 -41 -32 -36 -79 11 -118 21 -17 33 -31 27 -31 -6 0 -23 -11 -38 -25
-54 -50 -20 -131 52 -123 21 3 45 8 55 12 14 7 17 3 17 -26 0 -98 131 -104
146 -7 5 32 10 39 23 33 9 -4 32 -9 52 -12 30 -3 40 1 58 23 30 39 26 63 -14
101 l-36 33 27 17 c55 37 51 110 -8 135 -25 10 -35 9 -64 -4 l-34 -17 0 29 c0
15 -9 40 -21 55 -26 33 -79 36 -109 6z"/>
<path d="M1565 3515 c-46 -45 -24 -115 40 -131 50 -12 102 43 90 97 -13 59
-86 79 -130 34z"/>
<path d="M775 3150 c-60 -4 -249 -11 -420 -15 -304 -8 -309 -9 -332 -31 l-23
-23 0 -1443 c0 -1014 3 -1455 11 -1483 14 -51 93 -130 146 -144 21 -6 79 -11
129 -11 110 0 144 18 144 75 0 57 -35 75 -142 75 -81 0 -91 2 -113 25 l-25 24
0 1389 0 1389 243 7 c269 8 562 24 590 32 10 3 25 20 32 37 16 39 3 80 -31 96
-27 12 -38 12 -209 1z"/>
<path d="M1172 2237 c-13 -14 -22 -36 -22 -55 0 -37 -1 -37 -42 -16 -25 13
-35 13 -59 3 -60 -24 -66 -83 -14 -126 l34 -29 -34 -27 c-52 -42 -46 -102 14
-126 24 -10 34 -10 59 3 41 21 42 21 42 -17 0 -70 87 -104 129 -51 12 15 21
40 21 55 0 34 -2 33 38 13 36 -18 64 -12 92 19 30 31 25 65 -15 102 l-34 33
25 17 c56 37 57 105 0 132 -31 14 -36 14 -66 -1 -42 -20 -40 -21 -40 13 0 71
-81 108 -128 58z"/>
<path d="M433 1650 c-47 -19 -58 -92 -20 -128 40 -37 98 -28 123 19 18 36 10
73 -23 99 -28 22 -46 24 -80 10z"/>
<path d="M2433 1500 c-27 -11 -43 -40 -43 -79 0 -34 -6 -37 -34 -16 -46 35
-116 -1 -116 -60 0 -27 8 -40 37 -64 21 -17 32 -31 25 -31 -7 0 -24 -11 -37
-25 -53 -52 -18 -131 53 -123 21 3 45 8 55 12 14 7 17 3 17 -26 0 -98 131
-104 146 -7 5 32 10 39 23 33 9 -4 32 -9 51 -11 40 -5 64 14 75 60 6 23 2 33
-29 62 l-36 34 29 20 c37 26 46 62 26 101 -20 38 -57 48 -101 27 l-34 -17 0
30 c0 53 -60 98 -107 80z"/>
<path d="M4583 1502 c-30 -5 -53 -39 -53 -79 0 -36 -6 -39 -34 -18 -46 35
-116 -1 -116 -60 0 -27 8 -40 37 -64 21 -17 32 -31 25 -31 -7 0 -24 -11 -37
-25 -53 -52 -18 -131 53 -123 21 3 45 8 55 12 14 7 17 3 17 -26 0 -98 131
-104 146 -7 5 32 10 39 23 33 9 -4 32 -9 52 -12 30 -3 40 1 58 23 30 39 26 63
-14 101 l-35 33 29 20 c37 26 46 62 26 101 -20 38 -57 48 -101 27 l-34 -17 0
29 c0 32 -31 77 -57 83 -10 2 -28 2 -40 0z"/>
<path d="M773 1450 c-47 -19 -58 -92 -20 -128 40 -37 98 -28 123 19 18 36 10
73 -23 99 -28 22 -46 24 -80 10z"/>
<path d="M433 1250 c-47 -19 -58 -92 -20 -128 40 -37 98 -28 123 19 18 36 10
73 -23 99 -28 22 -46 24 -80 10z"/>
</g>
</svg>
