<?xml version="1.0" encoding="utf-8"?>
<!-- Generator: Adobe Illustrator 16.0.0, SVG Export Plug-In . SVG Version: 6.00 Build 0)  -->
<!DOCTYPE svg PUBLIC "-//W3C//DTD SVG 1.1//EN" "http://www.w3.org/Graphics/SVG/1.1/DTD/svg11.dtd">
<svg version="1.1" id="Layer_1" xmlns="http://www.w3.org/2000/svg" xmlns:xlink="http://www.w3.org/1999/xlink" x="0px" y="0px"
	 width="140.616px" height="143.872px" viewBox="0 0 140.616 143.872" enable-background="new 0 0 140.616 143.872"
	 xml:space="preserve">
<g>
	<path fill="#FFFFFF" d="M89.977,63.209l12.448-7.189l20.425,5.473c1.555,0.405,3.218-0.545,3.634-2.097
		c0.423-1.584-0.516-3.209-2.097-3.634l-14.698-3.938l10.912-6.303c1.419-0.818,1.903-2.631,1.085-4.05
		c-0.818-1.419-2.634-1.904-4.051-1.085l-10.9,6.296l3.933-14.679c0.423-1.583-0.515-3.208-2.097-3.633
		c-1.585-0.409-3.206,0.518-3.633,2.097l-5.469,20.413l-12.46,7.195l-12.849-7.417V36.274l14.947-14.947
		c1.159-1.159,1.159-3.035,0-4.193c-1.158-1.159-3.034-1.159-4.193,0L74.161,27.887V15.276c0-1.637-1.328-2.965-2.965-2.965
		c-1.638,0-2.966,1.328-2.966,2.965v12.611L57.477,17.134c-1.159-1.159-3.035-1.159-4.194,0c-1.158,1.158-1.158,3.035,0,4.193
		L68.23,36.274v14.384l-12.848,7.417l-12.46-7.195l-5.469-20.413c-0.423-1.583-2.039-2.508-3.634-2.097
		c-1.581,0.425-2.52,2.05-2.097,3.633l3.934,14.679l-10.901-6.296c-1.415-0.818-3.23-0.334-4.05,1.085
		c-0.819,1.419-0.334,3.232,1.085,4.05l10.911,6.303l-14.697,3.938c-1.581,0.425-2.52,2.05-2.097,3.634
		c0.409,1.531,2.064,2.506,3.633,2.097l20.425-5.473l12.448,7.189v14.843l-12.45,7.191l-20.423-5.472
		c-1.587-0.417-3.207,0.517-3.633,2.097c-0.423,1.583,0.516,3.209,2.097,3.633l14.696,3.938l-10.91,6.302
		c-1.419,0.819-1.904,2.634-1.085,4.051c0.79,1.368,2.64,1.901,4.05,1.085l10.901-6.296l-3.934,14.679
		c-0.423,1.583,0.516,3.209,2.097,3.634c1.564,0.42,3.216-0.537,3.634-2.097l5.469-20.413l12.459-7.195l12.849,7.419v14.382
		l-14.947,14.947c-1.158,1.158-1.158,3.035,0,4.193c1.119,1.118,3.039,1.154,4.194,0l10.753-10.754v12.611
		c0,1.637,1.328,2.965,2.966,2.965c1.637,0,2.965-1.328,2.965-2.965v-12.611l10.754,10.754c1.145,1.145,3.05,1.144,4.193,0
		c1.159-1.158,1.159-3.035,0-4.193L74.161,104.99V90.608l12.85-7.419l12.458,7.195c0,0,5.464,20.391,5.47,20.413
		c0.415,1.552,2.084,2.513,3.633,2.097c1.582-0.425,2.52-2.051,2.097-3.634l-3.933-14.679c0,0,10.892,6.291,10.9,6.296
		c1.363,0.787,3.239,0.321,4.051-1.085c0.818-1.417,0.334-3.231-1.085-4.051L109.69,89.44l14.697-3.938
		c1.581-0.424,2.52-2.05,2.097-3.633c-0.425-1.583-2.037-2.518-3.634-2.097l-20.423,5.472l-12.45-7.191V63.209z M84.046,78.053
		l-12.851,7.418l-12.851-7.418V63.212l12.851-7.417l12.851,7.417V78.053z"/>
</g>
</svg>
