<?xml version="1.0" encoding="utf-8"?>
<!-- Generator: Adobe Illustrator 16.0.0, SVG Export Plug-In . SVG Version: 6.00 Build 0)  -->
<!DOCTYPE svg PUBLIC "-//W3C//DTD SVG 1.1//EN" "http://www.w3.org/Graphics/SVG/1.1/DTD/svg11.dtd">
<svg version="1.1" id="Layer_1" xmlns="http://www.w3.org/2000/svg" xmlns:xlink="http://www.w3.org/1999/xlink" x="0px" y="0px"
	 width="45.986px" height="47.801px" viewBox="0 0 45.986 47.801" enable-background="new 0 0 45.986 47.801" xml:space="preserve">
<path fill="#FFFFFF" d="M22.993,1.9c-12.147,0-22,9.85-22,22s9.853,22,22,22c12.15,0,22-9.851,22-22S35.143,1.9,22.993,1.9
	 M22.993,43.9c-11.045,0-20-8.955-20-20c0-11.046,8.955-20,20-20c11.047,0,20,8.954,20,20C42.993,34.945,34.04,43.9,22.993,43.9"/>
<g>
	
		<path fill="none" stroke="#FFFFFF" stroke-width="2" stroke-linecap="round" stroke-linejoin="round" stroke-miterlimit="2.6131" d="
		M21.7,11.379h4.813 M14.031,26.857h-3.828 M15.634,26.857h4.854 M17.61,22.988h-5.528 M12.718,19.118h-2.528 M14.099,19.118
		l3.014,0.015 M14.458,15.25h-3.925 M16.781,15.25h3.123 M19.877,11.379H16.49"/>
	
		<path fill="none" stroke="#FFFFFF" stroke-width="2" stroke-linecap="round" stroke-linejoin="round" stroke-miterlimit="2.6131" d="
		M18.53,16.784c-0.864,0.634-1.632,1.39-2.275,2.244 M15.147,20.842c-0.328,0.681-0.588,1.399-0.771,2.148 M14.123,24.493
		c-0.033,0.351-0.052,0.706-0.052,1.065c0,0.438,0.025,0.866,0.076,1.291 M14.581,28.855c1.396,4.389,5.505,7.565,10.354,7.565
		c5.998,0,10.862-4.862,10.862-10.862c0-5.998-4.864-10.863-10.862-10.863c-1.22,0-2.392,0.201-3.485,0.571"/>
	
		<line fill="none" stroke="#FFFFFF" stroke-width="2" stroke-linecap="round" stroke-linejoin="round" stroke-miterlimit="2.6131" x1="24.935" y1="35.064" x2="24.935" y2="33.756"/>
	
		<line fill="none" stroke="#FFFFFF" stroke-width="2" stroke-linecap="round" stroke-linejoin="round" stroke-miterlimit="2.6131" x1="34.441" y1="25.561" x2="33.132" y2="25.561"/>
	
		<line fill="none" stroke="#FFFFFF" stroke-width="2" stroke-linecap="round" stroke-linejoin="round" stroke-miterlimit="2.6131" x1="24.935" y1="16.055" x2="24.935" y2="17.363"/>
	
		<path fill="none" stroke="#FFFFFF" stroke-width="2" stroke-linecap="round" stroke-linejoin="round" stroke-miterlimit="2.6131" d="
		M25.503,26.159l-4.268-4.511 M20.081,30.246l5.675-5.479"/>
</g>
</svg>
