<?xml version="1.0" encoding="utf-8"?>
<!-- Generator: Adobe Illustrator 16.0.0, SVG Export Plug-In . SVG Version: 6.00 Build 0)  -->
<!DOCTYPE svg PUBLIC "-//W3C//DTD SVG 1.1//EN" "http://www.w3.org/Graphics/SVG/1.1/DTD/svg11.dtd">
<svg version="1.1" id="Layer_1" xmlns="http://www.w3.org/2000/svg" xmlns:xlink="http://www.w3.org/1999/xlink" x="0px" y="0px"
	 width="45.986px" height="47.801px" viewBox="47.26 52.518 45.986 47.801" enable-background="new 47.26 52.518 45.986 47.801"
	 xml:space="preserve">
<path fill="#FFFFFF" d="M70.253,54.418c-12.149,0-22,9.85-22,22s9.851,22,22,22c12.15,0,22-9.85,22-22S82.403,54.418,70.253,54.418
	 M70.253,96.418c-11.045,0-20-8.955-20-20c0-11.046,8.955-20,20-20c11.047,0,20,8.954,20,20
	C90.253,87.463,81.3,96.418,70.253,96.418"/>
<g>
	
		<path fill="none" stroke="#FFFFFF" stroke-width="0.9713" stroke-linecap="round" stroke-linejoin="round" stroke-miterlimit="2.6131" d="
		M68.96,63.897h4.811 M61.291,79.375h-3.828 M62.893,79.375h4.853 M64.87,75.506h-5.528 M59.977,71.636h-2.529 M61.359,71.636
		l3.014,0.014 M61.718,67.767h-3.925 M64.041,67.767h3.123 M67.136,63.897H63.75"/>
	
		<path fill="none" stroke="#FFFFFF" stroke-width="0.9712" stroke-linecap="round" stroke-linejoin="round" stroke-miterlimit="2.6131" d="
		M65.79,69.302c-0.864,0.633-1.632,1.39-2.276,2.244 M62.407,73.36c-0.328,0.68-0.588,1.399-0.77,2.148 M61.383,77.011
		c-0.034,0.351-0.052,0.706-0.052,1.065c0,0.438,0.025,0.868,0.076,1.292 M61.841,81.374c1.396,4.388,5.504,7.566,10.354,7.566
		c5.998,0,10.863-4.864,10.863-10.863c0-5.998-4.865-10.863-10.863-10.863c-1.219,0-2.391,0.201-3.485,0.571"/>
	
		<line fill="none" stroke="#FFFFFF" stroke-width="0.9712" stroke-linecap="round" stroke-linejoin="round" stroke-miterlimit="2.6131" x1="72.195" y1="87.583" x2="72.195" y2="86.273"/>
	
		<line fill="none" stroke="#FFFFFF" stroke-width="0.9712" stroke-linecap="round" stroke-linejoin="round" stroke-miterlimit="2.6131" x1="81.701" y1="78.077" x2="80.391" y2="78.077"/>
	
		<line fill="none" stroke="#FFFFFF" stroke-width="0.9712" stroke-linecap="round" stroke-linejoin="round" stroke-miterlimit="2.6131" x1="72.195" y1="68.572" x2="72.195" y2="69.881"/>
	
		<path fill="none" stroke="#FFFFFF" stroke-width="0.9713" stroke-linecap="round" stroke-linejoin="round" stroke-miterlimit="2.6131" d="
		M72.762,78.677l-4.267-4.511 M67.341,82.764l5.674-5.48"/>
</g>
</svg>
