<?xml version="1.0" encoding="utf-8"?>
<!-- Generator: Adobe Illustrator 16.0.0, SVG Export Plug-In . SVG Version: 6.00 Build 0)  -->
<!DOCTYPE svg PUBLIC "-//W3C//DTD SVG 1.1//EN" "http://www.w3.org/Graphics/SVG/1.1/DTD/svg11.dtd">
<svg version="1.1" id="Layer_1" xmlns="http://www.w3.org/2000/svg" xmlns:xlink="http://www.w3.org/1999/xlink" x="0px" y="0px"
	 width="45.986px" height="47.801px" viewBox="0 0 45.986 47.801" enable-background="new 0 0 45.986 47.801" xml:space="preserve">
<path fill="#FFFFFF" d="M22.993,1.9c-12.15,0-22,9.85-22,22s9.85,22,22,22c12.149,0,22-9.85,22-22S35.142,1.9,22.993,1.9
	 M22.993,43.9c-11.045,0-20-8.955-20-20c0-11.046,8.955-20,20-20c11.046,0,20,8.954,20,20C42.993,34.945,34.039,43.9,22.993,43.9
	 M29.993,15.9h-14c-0.552,0-1,0.447-1,1v14c0,0.553,0.448,1,1,1h14c0.552,0,1-0.447,1-1v-14C30.993,16.348,30.545,15.9,29.993,15.9
	 M28.993,29.9h-12v-12h12V29.9z"/>
</svg>
