<?xml version="1.0" encoding="utf-8"?>
<!-- Generator: Adobe Illustrator 16.0.0, SVG Export Plug-In . SVG Version: 6.00 Build 0)  -->
<!DOCTYPE svg PUBLIC "-//W3C//DTD SVG 1.1//EN" "http://www.w3.org/Graphics/SVG/1.1/DTD/svg11.dtd">
<svg version="1.1" xmlns="http://www.w3.org/2000/svg" xmlns:xlink="http://www.w3.org/1999/xlink" x="0px" y="0px" width="161px"
	 height="240px" viewBox="0 0 161 240" enable-background="new 0 0 161 240" xml:space="preserve">
<g id="Layer_5">
	<g opacity="0.3">
		<path fill="#CCCCCC" d="M114.917,42.686c8.968,8.573,13.907,19.926,13.907,31.963v95.738c0,12.037-4.939,23.389-13.907,31.963
			c-8.976,8.581-20.863,13.307-33.472,13.307s-24.496-4.726-33.472-13.307c-8.968-8.574-13.907-19.926-13.907-31.963V74.648
			c0-12.037,4.939-23.39,13.907-31.963c8.976-8.581,20.863-13.307,33.472-13.307S105.94,34.104,114.917,42.686z"/>
		<path opacity="0.4" fill="#CCCCCC" d="M36.565,75.792v95.737c0,24.332,20.693,44.127,46.129,44.127
			c25.436,0,46.129-19.795,46.129-44.127V75.792c0-24.331-20.694-44.127-46.129-44.127C57.258,31.665,36.565,51.461,36.565,75.792z"
			/>
	</g>
	<g id="Layer_1">
		<g>
			<path fill="#FFFFFF" d="M81.444,39.395c-6.269,0-11.367,5.1-11.367,11.367v16.627c-4.347,3.788-6.507,9.418-5.798,15.202
				c0.958,7.825,7.342,14.139,15.18,15.013c10.115,1.129,19.284-6.99,19.284-17.187c0-5.025-2.153-9.734-5.931-13.028V50.763
				C92.812,44.494,87.713,39.395,81.444,39.395z M95.777,80.417c0,8.477-7.601,15.173-15.989,14.24
				c-6.488-0.724-11.773-5.95-12.567-12.426c-0.612-5,1.357-9.857,5.267-12.994c0.35-0.281,0.554-0.707,0.554-1.157V50.763
				c0-4.633,3.769-8.402,8.403-8.402c4.634,0,8.402,3.77,8.402,8.402v17.318c0,0.45,0.205,0.875,0.554,1.157
				C93.817,71.98,95.777,76.054,95.777,80.417z"/>
		</g>
		<g>
			<path fill="#FFFFFF" d="M86.88,72.801V54.716c0-2.998-2.438-5.438-5.437-5.438s-5.437,2.439-5.437,5.438v18.083
				c-3.138,2.231-4.604,6.124-3.668,9.956c1.586,6.493,9.739,9.15,14.941,5.021c2.259-1.794,3.554-4.476,3.554-7.358
				C90.834,77.401,89.338,74.556,86.88,72.801z M85.435,85.452c-3.539,2.806-9.128,1.047-10.216-3.402
				c-0.703-2.876,0.481-5.688,3.016-7.162c0.457-0.267,0.737-0.755,0.737-1.282v-18.89c0-1.363,1.108-2.471,2.471-2.471
				c1.362,0,2.471,1.107,2.471,2.471v18.89c0,0.527,0.28,1.016,0.736,1.282c2.015,1.172,3.219,3.239,3.219,5.529
				C87.869,82.389,86.983,84.224,85.435,85.452z"/>
		</g>
	</g>
	<path fill="#FFFFFF" d="M82.931,147.242c-0.361-0.45-0.907-0.713-1.484-0.713s-1.124,0.263-1.484,0.713
		c0,0-9.443,11.791-15.11,22.515c-2.569,4.86-4.329,9.538-4.329,12.914c0,11.548,9.375,20.924,20.924,20.924
		s20.924-9.376,20.924-20.924c0-3.376-1.76-8.054-4.329-12.914C92.375,159.033,82.931,147.242,82.931,147.242L82.931,147.242z
		 M81.447,150.643c2.933,3.828,9.414,12.598,13.726,20.758c2.308,4.365,4.034,8.52,4.034,11.552c0,9.802-7.958,17.761-17.761,17.761
		c-9.802,0-17.76-7.958-17.76-17.761c0-3.032,1.725-7.187,4.033-11.553C72.033,163.24,78.513,154.471,81.447,150.643L81.447,150.643
		z M91.167,184.074c0,3.914-3.309,7.404-7.218,7.891c-0.903,0.113-2.102,0.537-2.102,1.516s0.813,1.344,1.497,1.254
		c5.822-0.766,9.953-4.664,10.275-10.52c0.042-0.758-0.415-1.668-1.334-1.578C91.736,182.689,91.218,182.934,91.167,184.074
		L91.167,184.074z"/>
</g>
<g id="Livello_2">
</g>
</svg>
