<?xml version="1.0" encoding="utf-8"?>
<!-- Generator: Adobe Illustrator 16.0.0, SVG Export Plug-In . SVG Version: 6.00 Build 0)  -->
<!DOCTYPE svg PUBLIC "-//W3C//DTD SVG 1.1//EN" "http://www.w3.org/Graphics/SVG/1.1/DTD/svg11.dtd">
<svg version="1.1" id="Livello_1" xmlns="http://www.w3.org/2000/svg" xmlns:xlink="http://www.w3.org/1999/xlink" x="0px" y="0px"
	 width="134px" height="81px" viewBox="0 0 134 81" enable-background="new 0 0 134 81" xml:space="preserve">
<g id="Livello_2" display="none">
	
		<rect x="-3845.54" y="-2152.6" display="inline" fill="#2D2D2D" stroke="#000000" stroke-miterlimit="10" width="8287.999" height="6768"/>
</g>
<g id="Layer_1">
	<g>
		<path fill="#FFFFFF" d="M8.686,40.5c0,12.54,10.199,22.735,22.734,22.735h33.253c7.577,8.693,18.836,13.014,30.405,11.597
			c15.65-1.915,28.277-14.685,30.025-30.36c2.258-20.229-13.98-38.566-34.373-38.566c-10.051,0-19.469,4.307-26.058,11.861H31.42
			C18.885,17.764,8.686,27.963,8.686,40.5z M90.73,11.834c16.953,0,30.346,15.201,28.479,31.979
			c-1.445,12.977-11.898,23.547-24.85,25.135c-10,1.225-19.715-2.715-25.988-10.533c-0.563-0.699-1.414-1.107-2.313-1.107H31.421
			c-9.266,0-16.805-7.537-16.805-16.805c0-9.267,7.539-16.804,16.805-16.804H66.06c0.898,0,1.749-0.41,2.313-1.107
			C73.857,15.754,82.004,11.834,90.73,11.834z"/>
	</g>
	<g>
		<path fill="#FFFFFF" d="M75.498,29.627h-36.17c-5.996,0-10.873,4.877-10.873,10.873c0,5.999,4.877,10.875,10.873,10.875h36.167
			c4.463,6.275,12.248,9.209,19.912,7.336c12.986-3.174,18.301-19.48,10.041-29.883c-3.588-4.52-8.951-7.107-14.717-7.107
			C84.699,21.721,79.008,24.711,75.498,29.627z M100.801,32.518c5.611,7.078,2.094,18.258-6.805,20.434
			c-5.752,1.404-11.375-0.963-14.324-6.033c-0.533-0.914-1.51-1.475-2.564-1.475H39.329c-2.725,0-4.941-2.217-4.941-4.942
			c0-2.724,2.217-4.941,4.941-4.941h37.779c1.055,0,2.031-0.561,2.563-1.473c2.346-4.029,6.48-6.438,11.061-6.438
			C94.674,27.648,98.346,29.422,100.801,32.518z"/>
	</g>
</g>
</svg>
