<?xml version="1.0" encoding="utf-8"?>
<!-- Generator: Adobe Illustrator 16.0.0, SVG Export Plug-In . SVG Version: 6.00 Build 0)  -->
<!DOCTYPE svg PUBLIC "-//W3C//DTD SVG 1.1//EN" "http://www.w3.org/Graphics/SVG/1.1/DTD/svg11.dtd">
<svg version="1.1" id="Livello_1" xmlns="http://www.w3.org/2000/svg" xmlns:xlink="http://www.w3.org/1999/xlink" x="0px" y="0px"
	 width="87.344px" height="141.078px" viewBox="0 0 87.344 141.078" enable-background="new 0 0 87.344 141.078"
	 xml:space="preserve">
<g id="Livello_2" display="none">
	
		<rect x="-3845.54" y="-2152.6" display="inline" fill="#2D2D2D" stroke="#000000" stroke-miterlimit="10" width="8287.999" height="6768"/>
</g>
<g id="Layer_1">
	<g>
		<path fill="#FFFFFF" d="M43.999,12.074c-12.538,0-22.735,10.2-22.735,22.735v33.253C12.572,75.639,8.251,86.898,9.668,98.466
			c1.915,15.65,14.685,28.277,30.361,30.025c20.229,2.258,38.567-13.98,38.567-34.373c0-10.051-4.306-19.469-11.861-26.057V34.81
			C66.734,22.274,56.537,12.074,43.999,12.074z M72.665,94.119c0,16.953-15.201,30.346-31.979,28.48
			c-12.975-1.447-23.547-11.9-25.134-24.852c-1.224-10,2.715-19.715,10.533-25.988c0.699-0.563,1.108-1.413,1.108-2.313V34.81
			c0-9.265,7.537-16.805,16.805-16.805c9.268,0,16.805,7.54,16.805,16.805v34.638c0,0.899,0.409,1.749,1.107,2.313
			C68.746,77.246,72.665,85.393,72.665,94.119z"/>
	</g>
	<g>
		<path fill="#FFFFFF" d="M54.872,78.886V42.717c0-5.997-4.876-10.874-10.873-10.874S33.125,36.72,33.125,42.717v36.166
			c-6.277,4.464-9.209,12.248-7.336,19.912c3.173,12.985,19.479,18.302,29.883,10.041c4.518-3.588,7.107-8.951,7.107-14.717
			C62.779,88.087,59.788,82.396,54.872,78.886z M51.98,104.189c-7.078,5.611-18.256,2.094-20.432-6.805
			c-1.405-5.752,0.962-11.375,6.032-14.324c0.914-0.533,1.475-1.51,1.475-2.564V42.717c0-2.726,2.217-4.942,4.942-4.942
			c2.725,0,4.941,2.216,4.941,4.942v37.779c0,1.055,0.561,2.031,1.472,2.564c4.03,2.344,6.438,6.479,6.438,11.059
			C56.85,98.062,55.077,101.733,51.98,104.189z"/>
	</g>
</g>
</svg>
