<?xml version="1.0" encoding="UTF-8"?>
<svg id="Livello_1" xmlns="http://www.w3.org/2000/svg" version="1.1" viewBox="0 0 87.3 141.1">
  <!-- Generator: Adobe Illustrator 29.6.1, SVG Export Plug-In . SVG Version: 2.1.1 Build 9)  -->
  <defs>
    <style>
      .st0 {
        stroke: #fff;
        stroke-miterlimit: 10;
      }

      .st0, .st1 {
        fill: #fff;
      }
    </style>
  </defs>
  <g id="Layer_1">
    <path class="st1" d="M66.7,68.1v-29.8c-.8.2-1.6.3-2.4.3-1.2,0-2.4-.2-3.5-.5v31.5c0,.9.4,1.8,1.1,2.3,6.8,5.5,10.8,13.6,10.8,22.4,0,17-15.2,30.3-32,28.5-13-1.4-23.5-11.9-25.1-24.8-1.2-10,2.7-19.7,10.5-26,.7-.6,1.1-1.4,1.1-2.3v-34.6c0-9.3,7.5-16.8,16.8-16.8s6.5,1,9.1,2.7c.3.2.7.5,1,.7,1-1.8,2.4-3.3,4.1-4.3-.3-.3-.7-.5-1-.8-3.7-2.7-8.3-4.2-13.2-4.2-12.5,0-22.7,10.2-22.7,22.7v33.2c-8.7,7.6-13,18.8-11.6,30.4,1.9,15.7,14.7,28.3,30.4,30,20.2,2.3,38.6-14,38.6-34.4s-4.3-19.5-11.9-26.1Z"/>
    <path class="st1" d="M54.9,78.9v-36.2c0-6-4.9-10.9-10.9-10.9s-10.9,4.9-10.9,10.9v36.2c-6.3,4.5-9.2,12.2-7.3,19.9,3.2,13,19.5,18.3,29.9,10,4.5-3.6,7.1-9,7.1-14.7,0-6-3-11.7-7.9-15.2ZM52,104.2c-7.1,5.6-18.3,2.1-20.4-6.8-1.4-5.8,1-11.4,6-14.3.9-.5,1.5-1.5,1.5-2.6v-37.8c0-2.7,2.2-4.9,4.9-4.9s4.9,2.2,4.9,4.9v37.8c0,1.1.6,2,1.5,2.6,4,2.3,6.4,6.5,6.4,11.1,0,3.9-1.8,7.6-4.9,10.1Z"/>
  </g>
  <path class="st0" d="M64.3,14.2c-7,0-12.7,5.7-12.7,12.7s5.7,12.7,12.7,12.7,12.7-5.7,12.7-12.7-5.7-12.7-12.7-12.7ZM64.3,38.4c-6.3,0-11.5-5.1-11.5-11.5s5.1-11.5,11.5-11.5,11.5,5.1,11.5,11.5-5.1,11.5-11.5,11.5Z"/>
  <path class="st0" d="M71.6,26.3h-14.5c-.3,0-.6.3-.6.6s.3.6.6.6h14.5c.3,0,.6-.3.6-.6s-.3-.6-.6-.6Z"/>
</svg>