<?xml version="1.0" encoding="UTF-8"?>
<svg id="Livello_1" xmlns="http://www.w3.org/2000/svg" version="1.1" viewBox="0 0 87.3 141.1">
  <!-- Generator: Adobe Illustrator 29.6.1, SVG Export Plug-In . SVG Version: 2.1.1 Build 9)  -->
  <defs>
    <style>
      .st0 {
        fill: #fff;
      }

      .st1 {
        display: none;
      }

      .st2 {
        fill: #2d2d2d;
        stroke: #000;
        stroke-miterlimit: 10;
      }
    </style>
  </defs>
  <g id="Livello_2" class="st1">
    <rect class="st2" x="-3845.5" y="-2152.6" width="8288" height="6768"/>
  </g>
  <g>
    <path class="st0" d="M14.4,135.5v-22.6h6.4l5,17.7,5-17.7h6.4v22.6h-3.6v-18.6h-.5l-5.4,17.5h-3.8l-5.4-17.5h-.5v18.6h-3.6Z"/>
    <path class="st0" d="M40.6,135.5l5.6-22.6h7.3l5.6,22.6h-3.6l-1.2-4.9h-8.7l-1.2,4.9h-3.6ZM49,115.9l-2.8,11.5h7.3l-2.8-11.5s-1.7,0-1.7,0Z"/>
    <path class="st0" d="M64.3,113l4.9,8.9,4.9-8.9h3.8l-6.8,11.5,6.8,11.1h-4.2l-4.9-8.5-5,8.5h-3.8l6.8-10.9-6.8-11.6h4.3Z"/>
  </g>
  <g id="Layer_1">
    <path class="st0" d="M46.1,5.1c-26.4.8-19.2,32.2-20.1,49.5-20,16.2-9.1,51.4,16.6,53.4,33,3.3,45.2-37,23.6-53.5-.9-17.3,6.3-48.7-20.1-49.4ZM71.4,77.7c0,15-13.4,26.8-28.3,25.2-21.8-1.7-30.3-31.9-12.9-45,4.9-13.1-8.2-46.7,15.8-47.5,21.9.4,13.2,31.9,14.8,45.4,0,.8.4,1.5,1,2,6,4.9,9.6,12.1,9.5,19.9Z"/>
    <path class="st0" d="M55.7,64.1v-32c0-5.3-4.3-9.6-9.6-9.6s-9.6,4.3-9.6,9.6v32c-5.6,4-8.1,10.8-6.5,17.6,2.8,11.5,17.2,16.2,26.4,8.8,4-3.2,6.3-8,6.3-13s-2.7-10.3-7-13.4ZM53.2,86.5c-6.3,4.9-16.2,1.9-18-6-1.2-5.1.9-10.1,5.3-12.6.8-.4,1.3-1.3,1.3-2.3v-33.4c0-2.4,1.9-4.3,4.3-4.3s4.3,1.9,4.3,4.3v33.4c0,1,.5,1.8,1.3,2.3,3.5,2,5.7,5.7,5.7,9.8s-1.6,6.7-4.3,8.9h0Z"/>
  </g>
</svg>