<?xml version="1.0" encoding="UTF-8"?>
<svg id="Livello_1" xmlns="http://www.w3.org/2000/svg" version="1.1" viewBox="0 0 87.3 141.1">
  <!-- Generator: Adobe Illustrator 29.6.1, SVG Export Plug-In . SVG Version: 2.1.1 Build 9)  -->
  <defs>
    <style>
      .st0 {
        fill: #fff;
      }
    </style>
  </defs>
  <g id="Layer_1">
    <path class="st0" d="M43,3.2c-26.4.8-19.2,32.2-20.1,49.5-20,16.2-9.1,51.4,16.6,53.4,33,3.3,45.2-37,23.6-53.5-.9-17.3,6.3-48.7-20.1-49.4ZM68.2,75.8c0,15-13.4,26.8-28.3,25.2-21.8-1.7-30.3-31.9-12.9-45,4.9-13.1-8.2-46.7,15.8-47.5,21.9.4,13.2,31.9,14.8,45.4,0,.8.4,1.5,1,2,6,4.9,9.6,12.1,9.5,19.9Z"/>
    <path class="st0" d="M52.5,62.3v-32c0-5.3-4.3-9.6-9.6-9.6s-9.6,4.3-9.6,9.6v32c-5.6,4-8.1,10.8-6.5,17.6,2.8,11.5,17.2,16.2,26.4,8.8,4-3.2,6.3-8,6.3-13s-2.7-10.3-7-13.4ZM50,84.6c-6.3,4.9-16.2,1.9-18-6-1.2-5.1.9-10.1,5.3-12.6.8-.4,1.3-1.3,1.3-2.3V30.3c0-2.4,1.9-4.3,4.3-4.3s4.3,1.9,4.3,4.3v33.4c0,1,.5,1.8,1.3,2.3,3.5,2,5.7,5.7,5.7,9.8s-1.6,6.7-4.3,8.9h0Z"/>
  </g>
  <g>
    <path class="st0" d="M15.3,134.1v-23.5h6.7l5.2,18.4,5.2-18.4h6.7v23.5h-3.8v-19.3h-.5l-5.6,18.2h-4l-5.6-18.2h-.5v19.3h-3.8Z"/>
    <path class="st0" d="M44.6,134.1v-23.5h3.8v23.5h-3.8Z"/>
    <path class="st0" d="M53.8,134.1v-23.5h6.7l7.2,20.2h.5v-20.2h3.8v23.5h-6.5l-7.2-20.2h-.5v20.2h-4Z"/>
  </g>
</svg>