<?xml version="1.0" encoding="UTF-8"?>
<svg id="Layer_1" data-name="Layer 1" xmlns="http://www.w3.org/2000/svg" viewBox="0 0 140.62 143.87">
  <defs>
    <style>
      .cls-1 {
        fill: #fff;
      }
    </style>
  </defs>
  <path class="cls-1" d="m74.65,47.02c3.82-2.32,8.84.4,8.84,4.98,0,3.22-2.61,5.82-5.82,5.82H9.56c-3.66,0-4.66,2.09-4.66,4.66,0,2.23,1.07,4.66,4.66,4.66h68.11c8.36,0,15.14-6.78,15.14-15.14,0-11.87-13.02-19.01-23-12.95-1.32.8-2.63,1.6-3.95,2.4-4.05,2.44-2.31,8.66,2.39,8.66.9,0,1.73-.25,2.44-.69,1.32-.8,2.64-1.6,3.96-2.4h0Zm18.29,62.82c-4.04-2.4-2.35-8.67,2.38-8.67,3.22,0,5.73,3.94,9.42,3.94,3.22,0,5.82-2.61,5.82-5.82s-2.61-5.79-5.82-5.82c-27.4-.25-67.77-.49-95.17-.73-2.57,0-4.21-2.09-4.21-4.66s1.64-4.66,4.21-4.66c27.4.25,67.77.49,95.17.73,8.36.08,15.14,6.78,15.14,15.14,0,11.88-13.02,19.01-23,12.95-1.31-.8-2.63-1.6-3.94-2.39h0ZM9.79,80.11c-4.9,0-4.9-3.67-4.9-4.56,0-.94,0-4.76,4.78-4.76,13.32,0,88.35,0,104.96,0,2.4,0,4.98-1.87,5.55-4.21,1.35-5.51-4.38-9.18-8.63-6.6-1.32.8-2.64,1.6-3.96,2.4-3.11,1.9-7.11-.32-7.11-3.97,0-1.7.91-3.2,2.28-4.01,4.5-2.7,7.32-5.08,13.63-4.5,5.18.47,9.84,3.65,11.9,8.43,4.77,11.08-3.24,21.77-13.73,21.77H9.79Z"/>
</svg>