<?xml version="1.0" encoding="UTF-8"?>
<svg id="Livello_1" xmlns="http://www.w3.org/2000/svg" version="1.1" width="40.8px" height="725.2px" viewBox="0 0 40.8 725.2">
  <!-- Generator: Adobe Illustrator 29.6.1, SVG Export Plug-In . SVG Version: 2.1.1 Build 9)  -->
  <defs>
    <style>
      .st0 {
        fill: #2dbf00;
      }

      .st1 {
        fill: #1ae4b7;
      }

      .st2 {
        fill: #f56200;
      }

      .st3 {
        stroke-width: 2px;
      }

      .st3, .st4, .st5 {
        fill: none;
      }

      .st3, .st5 {
        stroke: #3c3430;
        stroke-miterlimit: 9.8;
      }

      .st6 {
        fill: #fc0599;
      }

      .st7 {
        fill: #39322e;
      }

      .st8, .st9 {
        fill: #fff;
      }

      .st10 {
        fill: red;
      }

      .st11 {
        fill: #febf00;
      }

      .st9 {
        stroke: #fff;
        stroke-miterlimit: 10;
        stroke-width: .8px;
      }

      .st12 {
        fill: #f75dfc;
      }

      .st13 {
        fill: #a3f5e3;
      }

      .st14 {
        fill: #ebe300;
      }

      .st15 {
        fill: #ff3e3b;
      }

      .st16 {
        opacity: .6;
      }

      .st17 {
        fill: #baeb09;
      }

      .st18 {
        fill: #3c3430;
        font-family: TitilliumWeb-SemiBold, 'Titillium Web';
        font-size: 10px;
        font-weight: 600;
      }
    </style>
  </defs>
  <g>
    <path class="st8" d="M.8,667h38.8v50.5c0,3.3-2.5,6-5.6,6H6.8c-3.3,0-6-2.8-6-6.3v-50.2h0Z"/>
    <rect class="st8" x=".8" y="610.8" width="38.8" height="56.5"/>
    <rect class="st8" x=".8" y="554.3" width="38.8" height="56.5"/>
    <rect class="st8" x=".8" y="497.8" width="38.8" height="56.5"/>
    <rect class="st8" x=".8" y="441.3" width="38.8" height="56.5"/>
    <rect class="st8" x=".8" y="384.8" width="38.8" height="56.5"/>
    <rect class="st8" x=".8" y="328.3" width="38.8" height="56.5"/>
    <rect class="st8" x=".8" y="271.7" width="38.8" height="56.6"/>
    <rect class="st8" x=".8" y="215.2" width="38.8" height="56.5"/>
    <rect class="st8" x=".8" y="158.7" width="38.8" height="56.5"/>
    <rect class="st8" x=".8" y="102.2" width="38.8" height="56.5"/>
    <path class="st8" d="M4.2,45.7h31.5c2.2,0,4,1.9,4,4.2v52.4H.8v-52.9c0-2,1.6-3.6,3.4-3.6h0Z"/>
  </g>
  <g class="st16">
    <path class="st13" d="M1.5,661.9h37.9v55.1c0,3.6-2.5,6.5-5.5,6.5H7.3c-3.3,0-5.9-3.1-5.9-6.9v-54.7h0Z"/>
    <rect class="st1" x="1.4" y="600.3" width="37.9" height="61.6"/>
    <rect class="st0" x="1.4" y="538.7" width="37.9" height="61.6"/>
    <rect class="st17" x="1.4" y="477.1" width="37.9" height="61.6"/>
    <rect class="st14" x="1.4" y="415.5" width="37.9" height="61.6"/>
    <rect class="st11" x="1.4" y="353.8" width="37.9" height="61.6"/>
    <rect class="st2" x="1.4" y="292.1" width="37.9" height="61.7"/>
    <rect class="st15" x="1.4" y="230.5" width="37.9" height="61.6"/>
    <rect class="st10" x="1.4" y="168.9" width="37.9" height="61.6"/>
    <rect class="st6" x="1.4" y="107.3" width="37.9" height="61.6"/>
    <path class="st12" d="M4.8,45.7h30.8c2.2,0,3.9,2,3.9,4.6v57.2H1.4v-57.7c0-2.2,1.5-3.9,3.4-3.9h0Z"/>
  </g>
  <circle class="st7" cx="20.4" cy="21.6" r="19.8"/>
  <rect class="st4" x="7.1" y="679.8" width="15.4" height="11.8"/>
  <path class="st3" d="M32.6,723.6H8.1c-3.4,0-6.2-2.8-6.2-6.2V50.9c0-3.4,2.8-6.2,6.2-6.2h24.5c3.4,0,6.2,2.8,6.2,6.2v666.5c0,3.4-2.8,6.2-6.2,6.2Z"/>
  <path class="st3" d="M32.5,723.5H8c-3.4,0-6.2-3-6.2-6.7V51c0-3.7,2.8-6.7,6.2-6.7h24.5c3.4,0,6.2,3,6.2,6.7v665.8c0,3.7-2.8,6.7-6.2,6.7Z"/>
  <line class="st5" x1="2.6" y1="662" x2="10.4" y2="662"/>
  <line class="st5" x1="30.3" y1="662" x2="38" y2="662"/>
  <line class="st5" x1="2.9" y1="599.9" x2="10.4" y2="599.9"/>
  <line class="st5" x1="30.3" y1="599.9" x2="37.9" y2="599.9"/>
  <line class="st5" x1="2.7" y1="538.6" x2="10.5" y2="538.6"/>
  <line class="st5" x1="30.4" y1="538.7" x2="38.1" y2="538.7"/>
  <line class="st5" x1="2.5" y1="477.3" x2="10.4" y2="477.3"/>
  <line class="st5" x1="30.1" y1="477.3" x2="37.8" y2="477.3"/>
  <line class="st5" x1="2.7" y1="415.5" x2="10.2" y2="415.5"/>
  <line class="st5" x1="30.3" y1="415.5" x2="37.9" y2="415.5"/>
  <line class="st5" x1="2.6" y1="353.7" x2="10.4" y2="353.7"/>
  <line class="st5" x1="30.3" y1="353.7" x2="38" y2="353.7"/>
  <line class="st5" x1="2.7" y1="292" x2="10.3" y2="292"/>
  <line class="st5" x1="30.3" y1="292" x2="37.9" y2="292"/>
  <line class="st5" x1="2.1" y1="230.7" x2="9.7" y2="230.7"/>
  <line class="st5" x1="30.3" y1="230.7" x2="37.9" y2="230.7"/>
  <line class="st5" x1="2.8" y1="168.9" x2="10.7" y2="168.9"/>
  <line class="st5" x1="2.2" y1="107.2" x2="9.7" y2="107.2"/>
  <line class="st5" x1="30.3" y1="107.2" x2="37.9" y2="107.2"/>
  <line class="st5" x1="30.2" y1="168.9" x2="38" y2="168.9"/>
  <text class="st18" transform="translate(7.1 713.2)"><tspan x="0" y="0">mm/h</tspan></text>
  <text class="st18" transform="translate(11.3 110.2)"><tspan x="0" y="0">100</tspan></text>
  <text class="st18" transform="translate(15.1 171.8)"><tspan x="0" y="0">75</tspan></text>
  <text class="st18" transform="translate(14.7 233.4)"><tspan x="0" y="0">50</tspan></text>
  <text class="st18" transform="translate(14.6 295)"><tspan x="0" y="0">30</tspan></text>
  <text class="st18" transform="translate(14.8 356.6)"><tspan x="0" y="0">20</tspan></text>
  <text class="st18" transform="translate(14.7 417.2)"><tspan x="0" y="0">15</tspan></text>
  <text class="st18" transform="translate(14.8 481.2)"><tspan x="0" y="0">10</tspan></text>
  <text class="st18" transform="translate(17.5 540.4)"><tspan x="0" y="0">5</tspan></text>
  <text class="st18" transform="translate(17.5 603.8)"><tspan x="0" y="0">2</tspan></text>
  <text class="st18" transform="translate(17.1 663.6)"><tspan x="0" y="0">1</tspan></text>
  <g>
    <g id="Livello_1-2">
      <g>
        <path class="st8" d="M21.1,26.4c-2.4,0-4.7-1-6.4-2.8-3.2-3.5-2.9-9,.6-12.2h.1c.3-.4.8-.4,1.1,0l10.5,11.6c.3.3.3.9,0,1.2h0c-1.6,1.5-3.7,2.3-5.8,2.3h0ZM15.9,13.5c-2.1,2.5-2.1,6.3.2,8.9,2.3,2.5,6.1,2.9,8.8,1.1,0,0-9-10-9-10Z"/>
        <path class="st8" d="M27,16.7h-.8c-.3,0-.5-.2-.5-.5-.2-1.4-1.4-2.6-2.8-2.8s-.5-.3-.5-.5v-.6c0-.5.3-.8.8-.7,2.3.3,4.1,2.2,4.4,4.5s-.2.6-.6.6Z"/>
        <path class="st8" d="M30.7,16.7h-.6c-.3,0-.6-.3-.6-.6-.3-3.5-3.1-6.3-6.6-6.6s-.6-.3-.6-.6,0-.4,0-.4c0-.5.4-.8.8-.8,4.4.4,7.9,3.9,8.2,8.3s-.3.7-.7.7Z"/>
        <polygon class="st8" points="13.6 27.9 15 23.1 16.3 23.8 14.9 28.6 13.6 27.9"/>
      </g>
    </g>
    <path class="st9" d="M19.5,32.6c0,0,.1,0,.1-.1-.4-2.4-2.5-4.3-5-4.3-2.6,0-4.7,1.9-5.1,4.3s0,0,0,0c.9,0,8.8,0,9.9,0Z"/>
  </g>
</svg>