<?xml version="1.0" encoding="UTF-8"?>
<svg id="Livello_1" xmlns="http://www.w3.org/2000/svg" version="1.1" viewBox="0 0 40.8 725.2" width="40.8px" height="725.2px">
  <!-- Generator: Adobe Illustrator 29.6.1, SVG Export Plug-In . SVG Version: 2.1.1 Build 9)  -->
  <defs>
    <style>
      .st0 {
        fill: #2dbf00;
      }

      .st1 {
        fill: #1ae4b7;
      }

      .st2 {
        fill: #3c3430;
      }

      .st3 {
        fill: #f56200;
      }

      .st4 {
        stroke-width: 2px;
      }

      .st4, .st5, .st6 {
        fill: none;
      }

      .st4, .st6 {
        stroke: #3c3430;
        stroke-miterlimit: 9.8;
      }

      .st7 {
        opacity: .6;
      }

      .st8 {
        fill: #fc0599;
      }

      .st9 {
        fill: #39322e;
      }

      .st10 {
        fill: #fff;
      }

      .st11 {
        fill: red;
      }

      .st12 {
        fill: #febf00;
      }

      .st13 {
        isolation: isolate;
      }

      .st14 {
        fill: #f75dfc;
      }

      .st15 {
        fill: #a3f5e3;
      }

      .st16 {
        fill: #ebe300;
      }

      .st17 {
        fill: #ff3e3b;
      }

      .st18 {
        fill: #baeb09;
      }
    </style>
  </defs>
  <g>
    <path class="st10" d="M.8,667h38.8v50.5c0,3.3-2.5,6-5.6,6H6.8c-3.3,0-6-2.8-6-6.3v-50.2h0Z"/>
    <rect class="st10" x=".8" y="610.8" width="38.8" height="56.5"/>
    <rect class="st10" x=".8" y="554.3" width="38.8" height="56.5"/>
    <rect class="st10" x=".8" y="497.8" width="38.8" height="56.5"/>
    <rect class="st10" x=".8" y="441.3" width="38.8" height="56.5"/>
    <rect class="st10" x=".8" y="384.8" width="38.8" height="56.5"/>
    <rect class="st10" x=".8" y="328.3" width="38.8" height="56.5"/>
    <rect class="st10" x=".8" y="271.7" width="38.8" height="56.6"/>
    <rect class="st10" x=".8" y="215.2" width="38.8" height="56.5"/>
    <rect class="st10" x=".8" y="158.7" width="38.8" height="56.5"/>
    <rect class="st10" x=".8" y="102.2" width="38.8" height="56.5"/>
    <path class="st10" d="M4.2,45.7h31.5c2.2,0,4,1.9,4,4.2v52.4H.8v-52.9c0-2,1.6-3.6,3.4-3.6h0Z"/>
  </g>
  <g class="st7">
    <path class="st15" d="M1.5,661.9h37.9v55.1c0,3.6-2.5,6.5-5.5,6.5H7.3c-3.3,0-5.9-3.1-5.9-6.9v-54.7h0Z"/>
    <rect class="st1" x="1.4" y="600.3" width="37.9" height="61.6"/>
    <rect class="st0" x="1.4" y="538.7" width="37.9" height="61.6"/>
    <rect class="st18" x="1.4" y="477.1" width="37.9" height="61.6"/>
    <rect class="st16" x="1.4" y="415.5" width="37.9" height="61.6"/>
    <rect class="st12" x="1.4" y="353.8" width="37.9" height="61.6"/>
    <rect class="st3" x="1.4" y="292.1" width="37.9" height="61.7"/>
    <rect class="st17" x="1.4" y="230.5" width="37.9" height="61.6"/>
    <rect class="st11" x="1.4" y="168.9" width="37.9" height="61.6"/>
    <rect class="st8" x="1.4" y="107.3" width="37.9" height="61.6"/>
    <path class="st14" d="M4.8,45.7h30.8c2.2,0,3.9,2,3.9,4.6v57.2H1.4v-57.7c0-2.2,1.5-3.9,3.4-3.9h0v-.2Z"/>
  </g>
  <circle class="st9" cx="20.4" cy="21.6" r="19.8"/>
  <rect class="st5" x="7.1" y="679.8" width="15.4" height="11.8"/>
  <path class="st4" d="M32.6,723.6H8.1c-3.4,0-6.2-2.8-6.2-6.2V50.9c0-3.4,2.8-6.2,6.2-6.2h24.5c3.4,0,6.2,2.8,6.2,6.2v666.5c0,3.4-2.8,6.2-6.2,6.2h0Z"/>
  <path class="st4" d="M32.5,723.5H8c-3.4,0-6.2-3-6.2-6.7V51c0-3.7,2.8-6.7,6.2-6.7h24.5c3.4,0,6.2,3,6.2,6.7v665.8c0,3.7-2.8,6.7-6.2,6.7Z"/>
  <line class="st6" x1="2.6" y1="662" x2="10.4" y2="662"/>
  <line class="st6" x1="30.3" y1="662" x2="38" y2="662"/>
  <line class="st6" x1="2.9" y1="599.9" x2="10.4" y2="599.9"/>
  <line class="st6" x1="30.3" y1="599.9" x2="37.9" y2="599.9"/>
  <line class="st6" x1="2.7" y1="538.6" x2="10.5" y2="538.6"/>
  <line class="st6" x1="30.4" y1="538.7" x2="38.1" y2="538.7"/>
  <line class="st6" x1="2.5" y1="477.3" x2="10.4" y2="477.3"/>
  <line class="st6" x1="30.1" y1="477.3" x2="37.8" y2="477.3"/>
  <line class="st6" x1="2.7" y1="415.5" x2="10.2" y2="415.5"/>
  <line class="st6" x1="30.3" y1="415.5" x2="37.9" y2="415.5"/>
  <line class="st6" x1="2.6" y1="353.7" x2="10.4" y2="353.7"/>
  <line class="st6" x1="30.3" y1="353.7" x2="38" y2="353.7"/>
  <line class="st6" x1="2.7" y1="292" x2="10.3" y2="292"/>
  <line class="st6" x1="30.3" y1="292" x2="37.9" y2="292"/>
  <line class="st6" x1="2.1" y1="230.7" x2="9.7" y2="230.7"/>
  <line class="st6" x1="30.3" y1="230.7" x2="37.9" y2="230.7"/>
  <line class="st6" x1="2.8" y1="168.9" x2="10.7" y2="168.9"/>
  <line class="st6" x1="2.2" y1="107.2" x2="9.7" y2="107.2"/>
  <line class="st6" x1="30.3" y1="107.2" x2="37.9" y2="107.2"/>
  <line class="st6" x1="30.2" y1="168.9" x2="38" y2="168.9"/>
  <g class="st13">
    <g class="st13">
      <path class="st2" d="M7.1,715.2h-1.5v-5.5h1.5v.3c.5-.3.9-.4,1.3-.4.6,0,1.1.2,1.4.5.7-.3,1.3-.5,1.8-.5s1.2.2,1.5.6c.3.4.4,1.1.4,2v3h-1.5v-2.9c0-.5,0-.8-.2-1-.1-.2-.3-.3-.6-.3s-.5,0-.9.2h-.2c0,.6,0,1,0,1.3v2.8h-1.5v-2.8c0-.5,0-.9-.1-1.1,0-.2-.3-.3-.6-.3s-.6,0-.8.2h-.1v4.2Z"/>
      <path class="st2" d="M16.3,715.2h-1.5v-5.5h1.5v.3c.5-.3.9-.4,1.3-.4.6,0,1.1.2,1.4.5.7-.3,1.3-.5,1.8-.5s1.2.2,1.5.6c.3.4.4,1.1.4,2v3h-1.5v-2.9c0-.5,0-.8-.2-1-.1-.2-.3-.3-.6-.3s-.5,0-.9.2h-.2c0,.6,0,1,0,1.3v2.8h-1.5v-2.8c0-.5,0-.9-.1-1.1,0-.2-.3-.3-.6-.3s-.6,0-.8.2h-.1v4.2Z"/>
      <path class="st2" d="M23.7,715.1l3.2-7.8,1.3.5-3.2,7.8-1.3-.5Z"/>
      <path class="st2" d="M30.7,715.2h-1.5v-7.7h1.5v2.5c.5-.3,1-.4,1.4-.4.7,0,1.2.2,1.5.6.3.4.4,1.1.4,2v3h-1.5v-2.9c0-.5,0-.8-.2-1s-.3-.3-.7-.3-.6,0-.9.1h-.1v4.2Z"/>
    </g>
  </g>
  <g class="st13">
    <g class="st13">
      <path class="st2" d="M14.6,102.4v7.9h-1.7v-6l-1.7,1.1-.8-1.2,2.6-1.7h1.5Z"/>
      <path class="st2" d="M17.4,103.3c.5-.7,1.3-1,2.3-1s1.8.3,2.3,1c.5.7.8,1.7.8,3.2s-.3,2.5-.8,3.1c-.5.6-1.3.9-2.3.9s-1.8-.3-2.3-.9-.8-1.7-.8-3.1.3-2.5.8-3.2ZM21,106.4c0-1-.1-1.7-.3-2.1-.2-.4-.6-.6-1-.6s-.8.2-1.1.6c-.2.4-.3,1.1-.3,2.1s.1,1.7.3,2.1c.2.4.6.6,1.1.6s.8-.2,1-.6.3-1.1.3-2.1Z"/>
      <path class="st2" d="M24.1,103.3c.5-.7,1.3-1,2.3-1s1.8.3,2.3,1,.8,1.7.8,3.2-.3,2.5-.8,3.1-1.3.9-2.3.9-1.8-.3-2.3-.9c-.5-.6-.8-1.7-.8-3.1s.3-2.5.8-3.2ZM27.8,106.4c0-1-.1-1.7-.3-2.1-.2-.4-.6-.6-1-.6s-.8.2-1.1.6c-.2.4-.3,1.1-.3,2.1s.1,1.7.3,2.1.6.6,1.1.6.8-.2,1-.6.3-1.1.3-2.1Z"/>
    </g>
  </g>
  <g class="st13">
    <g class="st13">
      <path class="st2" d="M14.4,165.4v-1.5h5.1v1.9l-2.8,6.2-1.5-.4,2.7-5.8v-.4h-3.4Z"/>
      <path class="st2" d="M26.2,163.9v1.4h-3.5l-.2,1.7c.5-.2,1-.3,1.4-.3,1.7,0,2.6.8,2.6,2.4s-.2,1.6-.7,2.1-1.1.7-2,.7-.8,0-1.3-.1-.8-.1-1.1-.2h-.4c0-.1.2-1.3.2-1.3,1,.2,1.8.2,2.4.2s.7-.1.9-.3c.2-.2.3-.5.3-.9s0-.7-.3-.8-.4-.3-.7-.3c-.5,0-1,0-1.4.2h-.2s-1-.2-1-.2l.2-4.3h4.8Z"/>
    </g>
  </g>
  <g class="st13">
    <g class="st13">
      <path class="st2" d="M20.2,225.6v1.4h-3.5l-.2,1.7c.5-.2,1-.3,1.4-.3,1.7,0,2.6.8,2.6,2.4s-.2,1.6-.7,2.1c-.5.5-1.1.7-2,.7s-.8,0-1.3-.1c-.5,0-.8-.1-1.1-.2h-.4c0-.1.2-1.3.2-1.3,1,.2,1.8.2,2.4.2s.7-.1.9-.3c.2-.2.3-.5.3-.9s0-.7-.3-.8-.4-.3-.7-.3c-.5,0-1,0-1.4.2h-.2s-1-.2-1-.2l.2-4.3h4.8Z"/>
      <path class="st2" d="M22.1,226.5c.5-.7,1.3-1,2.3-1s1.8.3,2.3,1,.8,1.7.8,3.2-.3,2.5-.8,3.1-1.3.9-2.3.9-1.8-.3-2.3-.9c-.5-.6-.8-1.7-.8-3.1s.3-2.5.8-3.2ZM25.8,229.6c0-1-.1-1.7-.3-2.1-.2-.4-.6-.6-1-.6s-.8.2-1.1.6c-.2.4-.3,1.1-.3,2.1s.1,1.7.3,2.1.6.6,1.1.6.8-.2,1-.6.3-1.1.3-2.1Z"/>
    </g>
  </g>
  <g class="st13">
    <g class="st13">
      <path class="st2" d="M15.2,287.4c.7-.3,1.6-.4,2.5-.4s1.6.2,2,.5.6.9.6,1.7-.3,1.4-.9,1.8c.4.2.7.4.8.6s.2.6.2,1.1c0,.9-.2,1.5-.6,1.9-.4.4-1.1.6-2.1.6s-1.4-.1-2.2-.3h-.4c0,0,0-1.4,0-1.4.9.2,1.6.2,2.3.2s1.2-.4,1.2-1.1-.1-.5-.3-.7c-.2-.2-.5-.3-.8-.3h-1.6v-1.4h1.6c.3,0,.5-.1.7-.3.2-.2.3-.5.3-.7,0-.6-.4-.9-1.2-.9s-1.1,0-1.8.2h-.3s-.1-1.2-.1-1.2Z"/>
      <path class="st2" d="M22.2,287.9c.5-.7,1.3-1,2.3-1s1.8.3,2.3,1c.5.7.8,1.7.8,3.2s-.3,2.5-.8,3.1c-.5.6-1.3.9-2.3.9s-1.8-.3-2.3-.9-.8-1.7-.8-3.1.3-2.5.8-3.2ZM25.9,291c0-1-.1-1.7-.3-2.1-.2-.4-.6-.6-1-.6s-.8.2-1.1.6c-.2.4-.3,1.1-.3,2.1s.1,1.7.3,2.1c.2.4.6.6,1.1.6s.8-.2,1-.6.3-1.1.3-2.1Z"/>
    </g>
  </g>
  <g class="st13">
    <g class="st13">
      <path class="st2" d="M20.3,356.7h-5.1v-1.4l1.7-1.7c.6-.6,1-1.1,1.3-1.4.2-.3.4-.7.4-1s0-.6-.3-.8c-.2-.2-.5-.2-.8-.2-.5,0-1.1,0-1.8.1h-.3s0-1.2,0-1.2c.8-.2,1.6-.4,2.4-.4,1.7,0,2.5.8,2.5,2.3s-.1,1.1-.4,1.5c-.3.4-.7,1-1.4,1.6l-1.4,1.2h3.3v1.4Z"/>
      <path class="st2" d="M22.2,349.7c.5-.7,1.3-1,2.3-1s1.8.3,2.3,1c.5.7.8,1.7.8,3.2s-.3,2.5-.8,3.1c-.5.6-1.3.9-2.3.9s-1.8-.3-2.3-.9-.8-1.7-.8-3.1.3-2.5.8-3.2ZM25.9,352.8c0-1-.1-1.7-.3-2.1-.2-.4-.6-.6-1-.6s-.8.2-1.1.6c-.2.4-.3,1.1-.3,2.1s.1,1.7.3,2.1c.2.4.6.6,1.1.6s.8-.2,1-.6.3-1.1.3-2.1Z"/>
    </g>
  </g>
  <g class="st13">
    <g class="st13">
      <path class="st2" d="M18.8,409.3v7.9h-1.7v-6l-1.7,1.1-.8-1.2,2.6-1.7h1.5Z"/>
      <path class="st2" d="M26.4,409.3v1.4h-3.5l-.2,1.7c.5-.2,1-.3,1.4-.3,1.7,0,2.6.8,2.6,2.4s-.2,1.6-.7,2.1-1.1.7-2,.7-.8,0-1.3-.1-.8-.1-1.1-.2h-.4c0-.1.2-1.3.2-1.3,1,.2,1.8.2,2.4.2s.7-.1.9-.3c.2-.2.3-.5.3-.9s0-.7-.3-.8-.4-.3-.7-.3c-.5,0-1,0-1.4.2h-.2s-1-.2-1-.2l.2-4.3h4.8Z"/>
    </g>
  </g>
  <g class="st13">
    <g class="st13">
      <path class="st2" d="M19.2,473.3v7.9h-1.7v-6l-1.7,1.1-.8-1.2,2.6-1.7h1.5Z"/>
      <path class="st2" d="M21.9,474.1c.5-.7,1.3-1,2.3-1s1.8.3,2.3,1,.8,1.7.8,3.2-.3,2.5-.8,3.1-1.3.9-2.3.9-1.8-.3-2.3-.9c-.5-.6-.8-1.7-.8-3.1s.3-2.5.8-3.2ZM25.6,477.2c0-1-.1-1.7-.3-2.1-.2-.4-.6-.6-1-.6s-.8.2-1.1.6c-.2.4-.3,1.1-.3,2.1s.1,1.7.3,2.1.6.6,1.1.6.8-.2,1-.6.3-1.1.3-2.1Z"/>
    </g>
  </g>
  <g class="st13">
    <g class="st13">
      <path class="st2" d="M23.2,534.1v1.4h-3.5l-.2,1.7c.5-.2,1-.3,1.4-.3,1.7,0,2.6.8,2.6,2.4s-.2,1.6-.7,2.1c-.5.5-1.1.7-2,.7s-.8,0-1.3-.1c-.5,0-.8-.1-1.1-.2h-.4c0-.1.2-1.3.2-1.3,1,.2,1.8.2,2.4.2s.7-.1.9-.3.3-.5.3-.9,0-.7-.3-.8-.4-.3-.7-.3c-.5,0-1,0-1.4.2h-.2s-1-.2-1-.2l.2-4.3h4.8Z"/>
    </g>
  </g>
  <g class="st13">
    <g class="st13">
      <path class="st2" d="M23.4,603.8h-5.1v-1.4l1.7-1.7c.6-.6,1-1.1,1.3-1.4.2-.3.4-.7.4-1s0-.6-.3-.8c-.2-.2-.5-.2-.8-.2-.5,0-1.1,0-1.8.1h-.3s0-1.2,0-1.2c.8-.2,1.6-.4,2.4-.4,1.7,0,2.5.8,2.5,2.3s-.1,1.1-.4,1.5c-.3.4-.7,1-1.4,1.6l-1.4,1.2h3.3v1.4Z"/>
    </g>
  </g>
  <g class="st13">
    <g class="st13">
      <path class="st2" d="M21.2,657v7.9h-1.7v-6l-1.7,1.1-.8-1.2,2.6-1.7h1.5Z"/>
    </g>
  </g>
  <g>
    <path class="st10" d="M9.6,33.5c.4-1.8,1.6-3.4,3.2-4.2s1-.3,1.4-.5l1.3-4.5c-3.1-3.6-3.4-8.9-.3-12.6.6-.7,1.6-2,2.6-1.1,3.5,4.2,7.5,8,10.9,12.1.7.8,1.2,1.3.2,2.2-2.6,2.5-7.1,3-10.3,1.5l-1.5-.8-.9,3.2c2.2.2,4.2,1.8,4.9,4s.4,1.2,0,1.4h-11.2s-.3-.2-.3-.2v-.5ZM26.5,23.8l-9.4-10.5c0,0-.1,0-.2,0s-.4.7-.5.8c-2.1,3.5-.8,8.1,2.9,10,2.3,1.2,5,1,7.2-.3Z"/>
    <path class="st10" d="M25.3,6.5c4.3.4,8.6,4.7,8.8,9.1s-1,1.2-1.9,1-.5-1.1-.6-1.6c-.7-3-3-5.1-5.9-5.9s-1.6,0-1.7-.9,0-1.3.7-1.6c.2,0,.5,0,.8,0Z"/>
    <path class="st10" d="M24.4,10.8c.5-.1,1.5.2,2,.4,1.5.7,2.8,2.2,3.2,3.8s.3,1.5-.6,1.6c-1.8.2-1.3-.2-1.8-1.5s-.8-1.2-1.3-1.6c-1.1-.6-2.3-.4-2-2.2s.3-.6.6-.6Z"/>
  </g>
</svg>