<?xml version="1.0" encoding="UTF-8"?>
<svg id="Livello_1" xmlns="http://www.w3.org/2000/svg" version="1.1" width="40.8px" height="725.2px" viewBox="0 0 40.8 725.2">
  <!-- Generator: Adobe Illustrator 29.6.1, SVG Export Plug-In . SVG Version: 2.1.1 Build 9)  -->
  <defs>
    <style>
      .st0 {
        fill: #2dbf00;
      }

      .st1 {
        fill: #1ae4b7;
      }

      .st2 {
        fill: #f56200;
      }

      .st3 {
        stroke-width: 2px;
      }

      .st3, .st4, .st5 {
        fill: none;
      }

      .st3, .st5 {
        stroke: #3c3430;
        stroke-miterlimit: 9.8;
      }

      .st6 {
        fill: #fc0599;
      }

      .st7 {
        fill: #39322e;
      }

      .st8 {
        fill: #fff;
      }

      .st9 {
        fill: red;
      }

      .st10 {
        fill: #febf00;
      }

      .st11 {
        fill: #f75dfc;
      }

      .st12 {
        fill: #a3f5e3;
      }

      .st13 {
        fill: #ebe300;
      }

      .st14 {
        fill: #ff3e3b;
      }

      .st15 {
        opacity: .6;
      }

      .st16 {
        fill: #baeb09;
      }

      .st17 {
        fill: #3c3430;
        font-family: TitilliumWeb-SemiBold, 'Titillium Web';
        font-size: 10px;
        font-weight: 600;
      }
    </style>
  </defs>
  <g>
    <path class="st8" d="M.9,667.2h38.8v50.5c0,3.3-2.5,6-5.6,6H6.9c-3.3,0-6-2.8-6-6.3v-50.2h0Z"/>
    <rect class="st8" x=".9" y="611" width="38.8" height="56.5"/>
    <rect class="st8" x=".9" y="554.5" width="38.8" height="56.5"/>
    <rect class="st8" x=".9" y="498" width="38.8" height="56.5"/>
    <rect class="st8" x=".9" y="441.5" width="38.8" height="56.5"/>
    <rect class="st8" x=".9" y="385" width="38.8" height="56.5"/>
    <rect class="st8" x=".9" y="328.5" width="38.8" height="56.5"/>
    <rect class="st8" x=".9" y="271.9" width="38.8" height="56.6"/>
    <rect class="st8" x=".9" y="215.4" width="38.8" height="56.5"/>
    <rect class="st8" x=".9" y="158.9" width="38.8" height="56.5"/>
    <rect class="st8" x=".9" y="102.4" width="38.8" height="56.5"/>
    <path class="st8" d="M4.3,45.9h31.5c2.2,0,4,1.9,4,4.2v52.4H.9v-52.9c0-2,1.6-3.6,3.4-3.6h0Z"/>
  </g>
  <g class="st15">
    <path class="st12" d="M1.5,662.1h37.9v55.1c0,3.6-2.5,6.5-5.5,6.5H7.4c-3.3,0-5.9-3.1-5.9-6.9v-54.7h0Z"/>
    <rect class="st1" x="1.5" y="600.5" width="37.9" height="61.6"/>
    <rect class="st0" x="1.5" y="538.9" width="37.9" height="61.6"/>
    <rect class="st16" x="1.5" y="477.3" width="37.9" height="61.6"/>
    <rect class="st13" x="1.5" y="415.6" width="37.9" height="61.6"/>
    <rect class="st10" x="1.5" y="354" width="37.9" height="61.6"/>
    <rect class="st2" x="1.5" y="292.3" width="37.9" height="61.7"/>
    <rect class="st14" x="1.5" y="230.7" width="37.9" height="61.6"/>
    <rect class="st9" x="1.5" y="169.1" width="37.9" height="61.6"/>
    <rect class="st6" x="1.5" y="107.5" width="37.9" height="61.6"/>
    <path class="st11" d="M4.8,45.9h30.8c2.2,0,3.9,2,3.9,4.6v57.2H1.5v-57.7c0-2.2,1.5-3.9,3.4-3.9h0Z"/>
  </g>
  <circle class="st7" cx="20.5" cy="21.8" r="19.8"/>
  <rect class="st4" x="7.2" y="680" width="15.4" height="11.8"/>
  <path class="st3" d="M32.7,723.8H8.2c-3.4,0-6.2-2.8-6.2-6.2V51.1c0-3.4,2.8-6.2,6.2-6.2h24.5c3.4,0,6.2,2.8,6.2,6.2v666.5c0,3.4-2.8,6.2-6.2,6.2Z"/>
  <path class="st3" d="M32.6,723.7H8.1c-3.4,0-6.2-3-6.2-6.7V51.2c0-3.7,2.8-6.7,6.2-6.7h24.5c3.4,0,6.2,3,6.2,6.7v665.8c0,3.7-2.8,6.7-6.2,6.7Z"/>
  <line class="st5" x1="2.7" y1="662.2" x2="10.5" y2="662.2"/>
  <line class="st5" x1="30.4" y1="662.2" x2="38.1" y2="662.2"/>
  <line class="st5" x1="3" y1="600.1" x2="10.5" y2="600.1"/>
  <line class="st5" x1="30.4" y1="600.1" x2="38" y2="600.1"/>
  <line class="st5" x1="2.8" y1="538.8" x2="10.6" y2="538.8"/>
  <line class="st5" x1="30.5" y1="538.9" x2="38.2" y2="538.9"/>
  <line class="st5" x1="2.6" y1="477.5" x2="10.5" y2="477.5"/>
  <line class="st5" x1="30.2" y1="477.5" x2="37.9" y2="477.5"/>
  <line class="st5" x1="2.8" y1="415.6" x2="10.3" y2="415.6"/>
  <line class="st5" x1="30.4" y1="415.6" x2="38" y2="415.6"/>
  <line class="st5" x1="2.7" y1="353.9" x2="10.5" y2="353.9"/>
  <line class="st5" x1="30.4" y1="353.9" x2="38.1" y2="353.9"/>
  <line class="st5" x1="2.8" y1="292.2" x2="10.4" y2="292.2"/>
  <line class="st5" x1="30.4" y1="292.2" x2="38" y2="292.2"/>
  <line class="st5" x1="2.2" y1="230.9" x2="9.8" y2="230.9"/>
  <line class="st5" x1="30.4" y1="230.9" x2="38" y2="230.9"/>
  <line class="st5" x1="2.9" y1="169.1" x2="10.7" y2="169.1"/>
  <line class="st5" x1="2.2" y1="107.4" x2="9.7" y2="107.4"/>
  <line class="st5" x1="30.4" y1="107.4" x2="38" y2="107.4"/>
  <line class="st5" x1="30.3" y1="169.1" x2="38.1" y2="169.1"/>
  <text class="st17" transform="translate(12.2 713.4)"><tspan x="0" y="0">mm</tspan></text>
  <text class="st17" transform="translate(11.4 110.4)"><tspan x="0" y="0">100</tspan></text>
  <text class="st17" transform="translate(15.2 172)"><tspan x="0" y="0">75</tspan></text>
  <text class="st17" transform="translate(14.8 233.6)"><tspan x="0" y="0">50</tspan></text>
  <text class="st17" transform="translate(14.7 295.2)"><tspan x="0" y="0">30</tspan></text>
  <text class="st17" transform="translate(14.9 356.8)"><tspan x="0" y="0">20</tspan></text>
  <text class="st17" transform="translate(14.8 417.3)"><tspan x="0" y="0">15</tspan></text>
  <text class="st17" transform="translate(14.9 481.4)"><tspan x="0" y="0">10</tspan></text>
  <text class="st17" transform="translate(17.6 540.6)"><tspan x="0" y="0">5</tspan></text>
  <text class="st17" transform="translate(17.6 604)"><tspan x="0" y="0">2</tspan></text>
  <text class="st17" transform="translate(17.1 663.8)"><tspan x="0" y="0">1</tspan></text>
  <path class="st8" d="M34.8,22.9s0,0,0-.1c0-7.7-6.1-13.9-13.6-14.3v-1.3c0-.4-.3-.7-.7-.7s-.7.3-.7.7v1.3c-7.6.4-13.6,6.6-13.6,14.3,0,.4.3.7.7.7s.4,0,.5-.2c2.4-2.3,5.7-2.3,8.1,0,.1.1.3.2.5.2.2,0,.4,0,.5-.2,1-1,2.1-1.5,3.3-1.7v9.9c0,2,1.6,3.7,3.7,3.7s3.7-1.6,3.7-3.7-.3-.7-.7-.7-.7.3-.7.7c0,1.2-1,2.2-2.2,2.2s-2.2-1-2.2-2.2v-9.9c1.2.2,2.3.7,3.3,1.7.3.3.7.3,1,0,2.4-2.3,5.7-2.3,8.1,0,.2.2.6.3.9,0,.2-.1.3-.3.3-.5ZM24.4,21.4c-1.2-.8-2.5-1.2-3.9-1.2,0,0,0,0,0,0s0,0,0,0c-1.3,0-2.7.4-3.9,1.2-.4-5,.9-8.9,2.4-10.6,1-1.2,2-1.2,3.1,0,1.5,1.7,2.8,5.6,2.4,10.6ZM7.7,21.2c.7-5.4,4.6-9.7,9.8-11-1.4,1.9-2.8,5.7-2.4,10.9-2.3-1.4-5.1-1.4-7.4,0ZM25.9,21.2c.3-5.2-1-9-2.4-10.9,5.2,1.2,9.2,5.6,9.8,11-2.3-1.4-5.1-1.5-7.4,0Z"/>
</svg>