<?xml version="1.0" encoding="UTF-8"?>
<svg id="Livello_1" xmlns="http://www.w3.org/2000/svg" version="1.1" viewBox="0 0 40.8 725.2" width="40.8px" height="725.2px">
  <!-- Generator: Adobe Illustrator 29.6.1, SVG Export Plug-In . SVG Version: 2.1.1 Build 9)  -->
  <defs>
    <style>
      .st0 {
        fill: #2dbf00;
      }

      .st1 {
        fill: #1ae4b7;
      }

      .st2 {
        fill: #3c3430;
      }

      .st3 {
        fill: #f56200;
      }

      .st4 {
        stroke-width: 2px;
      }

      .st4, .st5, .st6 {
        fill: none;
      }

      .st4, .st6 {
        stroke: #3c3430;
        stroke-miterlimit: 9.8;
      }

      .st7 {
        opacity: .6;
      }

      .st8 {
        fill: #fc0599;
      }

      .st9 {
        fill: #39322e;
      }

      .st10 {
        fill: #fff;
      }

      .st11 {
        fill: red;
      }

      .st12 {
        fill: #febf00;
      }

      .st13 {
        isolation: isolate;
      }

      .st14 {
        fill: #f75dfc;
      }

      .st15 {
        fill: #a3f5e3;
      }

      .st16 {
        fill: #ebe300;
      }

      .st17 {
        fill: #ff3e3b;
      }

      .st18 {
        fill: #baeb09;
      }
    </style>
  </defs>
  <g>
    <path class="st10" d="M.9,667.2h38.8v50.5c0,3.3-2.5,6-5.6,6H6.9c-3.3,0-6-2.8-6-6.3v-50.2h0Z"/>
    <rect class="st10" x=".9" y="611" width="38.8" height="56.5"/>
    <rect class="st10" x=".9" y="554.5" width="38.8" height="56.5"/>
    <rect class="st10" x=".9" y="498" width="38.8" height="56.5"/>
    <rect class="st10" x=".9" y="441.5" width="38.8" height="56.5"/>
    <rect class="st10" x=".9" y="385" width="38.8" height="56.5"/>
    <rect class="st10" x=".9" y="328.5" width="38.8" height="56.5"/>
    <rect class="st10" x=".9" y="271.9" width="38.8" height="56.6"/>
    <rect class="st10" x=".9" y="215.4" width="38.8" height="56.5"/>
    <rect class="st10" x=".9" y="158.9" width="38.8" height="56.5"/>
    <rect class="st10" x=".9" y="102.4" width="38.8" height="56.5"/>
    <path class="st10" d="M4.3,45.9h31.5c2.2,0,4,1.9,4,4.2v52.4H.9v-52.9c0-2,1.6-3.6,3.4-3.6h0Z"/>
  </g>
  <g class="st7">
    <path class="st15" d="M1.5,662.1h37.9v55.1c0,3.6-2.5,6.5-5.5,6.5H7.4c-3.3,0-5.9-3.1-5.9-6.9v-54.7h0Z"/>
    <rect class="st1" x="1.5" y="600.5" width="37.9" height="61.6"/>
    <rect class="st0" x="1.5" y="538.9" width="37.9" height="61.6"/>
    <rect class="st18" x="1.5" y="477.3" width="37.9" height="61.6"/>
    <rect class="st16" x="1.5" y="415.6" width="37.9" height="61.6"/>
    <rect class="st12" x="1.5" y="354" width="37.9" height="61.6"/>
    <rect class="st3" x="1.5" y="292.3" width="37.9" height="61.7"/>
    <rect class="st17" x="1.5" y="230.7" width="37.9" height="61.6"/>
    <rect class="st11" x="1.5" y="169.1" width="37.9" height="61.6"/>
    <rect class="st8" x="1.5" y="107.5" width="37.9" height="61.6"/>
    <path class="st14" d="M4.8,45.9h30.8c2.2,0,3.9,2,3.9,4.6v57.2H1.5v-57.7c0-2.2,1.5-3.9,3.4-3.9h0v-.2Z"/>
  </g>
  <circle class="st9" cx="20.5" cy="21.8" r="19.8"/>
  <rect class="st5" x="7.2" y="680" width="15.4" height="11.8"/>
  <path class="st4" d="M32.7,723.8H8.2c-3.4,0-6.2-2.8-6.2-6.2V51.1c0-3.4,2.8-6.2,6.2-6.2h24.5c3.4,0,6.2,2.8,6.2,6.2v666.5c0,3.4-2.8,6.2-6.2,6.2Z"/>
  <path class="st4" d="M32.6,723.7H8.1c-3.4,0-6.2-3-6.2-6.7V51.2c0-3.7,2.8-6.7,6.2-6.7h24.5c3.4,0,6.2,3,6.2,6.7v665.8c0,3.7-2.8,6.7-6.2,6.7Z"/>
  <line class="st6" x1="2.7" y1="662.2" x2="10.5" y2="662.2"/>
  <line class="st6" x1="30.4" y1="662.2" x2="38.1" y2="662.2"/>
  <line class="st6" x1="3" y1="600.1" x2="10.5" y2="600.1"/>
  <line class="st6" x1="30.4" y1="600.1" x2="38" y2="600.1"/>
  <line class="st6" x1="2.8" y1="538.8" x2="10.6" y2="538.8"/>
  <line class="st6" x1="30.5" y1="538.9" x2="38.2" y2="538.9"/>
  <line class="st6" x1="2.6" y1="477.5" x2="10.5" y2="477.5"/>
  <line class="st6" x1="30.2" y1="477.5" x2="37.9" y2="477.5"/>
  <line class="st6" x1="2.8" y1="415.6" x2="10.3" y2="415.6"/>
  <line class="st6" x1="30.4" y1="415.6" x2="38" y2="415.6"/>
  <line class="st6" x1="2.7" y1="353.9" x2="10.5" y2="353.9"/>
  <line class="st6" x1="30.4" y1="353.9" x2="38.1" y2="353.9"/>
  <line class="st6" x1="2.8" y1="292.2" x2="10.4" y2="292.2"/>
  <line class="st6" x1="30.4" y1="292.2" x2="38" y2="292.2"/>
  <line class="st6" x1="2.2" y1="230.9" x2="9.8" y2="230.9"/>
  <line class="st6" x1="30.4" y1="230.9" x2="38" y2="230.9"/>
  <line class="st6" x1="2.9" y1="169.1" x2="10.7" y2="169.1"/>
  <line class="st6" x1="2.2" y1="107.4" x2="9.7" y2="107.4"/>
  <line class="st6" x1="30.4" y1="107.4" x2="38" y2="107.4"/>
  <line class="st6" x1="30.3" y1="169.1" x2="38.1" y2="169.1"/>
  <g class="st13">
    <g class="st13">
      <path class="st2" d="M13.4,713.4h-1.6v-6h1.6v.3c.6-.3,1-.5,1.4-.5.6,0,1.1.2,1.5.6.7-.4,1.4-.6,2-.6s1.3.2,1.6.7.5,1.2.5,2.2v3.3h-1.6v-3.2c0-.5,0-.9-.2-1.1s-.3-.4-.7-.4-.6,0-.9.2h-.2c0,.7,0,1.1,0,1.4v3.1h-1.6v-3.1c0-.6,0-1-.2-1.3s-.3-.4-.7-.4-.6,0-.9.2h-.1v4.5Z"/>
      <path class="st2" d="M23.5,713.4h-1.6v-6h1.6v.3c.6-.3,1-.5,1.4-.5.6,0,1.1.2,1.5.6.7-.4,1.4-.6,2-.6s1.3.2,1.6.7c.3.5.5,1.2.5,2.2v3.3h-1.6v-3.2c0-.5,0-.9-.2-1.1s-.3-.4-.7-.4-.6,0-.9.2h-.2c0,.7,0,1.1,0,1.4v3.1h-1.6v-3.1c0-.6,0-1-.2-1.3s-.3-.4-.7-.4-.6,0-.9.2h-.1v4.5Z"/>
    </g>
  </g>
  <g class="st13">
    <g class="st13">
      <path class="st2" d="M15.6,102.6v7.9h-1.7v-6l-1.7,1.1-.8-1.2,2.6-1.7h1.5Z"/>
      <path class="st2" d="M18.4,103.5c.5-.7,1.3-1,2.3-1s1.8.3,2.3,1c.5.7.8,1.7.8,3.2s-.3,2.5-.8,3.1c-.5.6-1.3.9-2.3.9s-1.8-.3-2.3-.9c-.5-.6-.8-1.7-.8-3.1s.3-2.5.8-3.2ZM22,106.6c0-1-.1-1.7-.3-2.1-.2-.4-.6-.6-1.1-.6s-.8.2-1.1.6c-.2.4-.3,1.1-.3,2.1s.1,1.7.3,2.1c.2.4.6.6,1.1.6s.8-.2,1-.6c.2-.4.3-1.1.3-2.1Z"/>
      <path class="st2" d="M25.1,103.5c.5-.7,1.3-1,2.3-1s1.8.3,2.3,1c.5.7.8,1.7.8,3.2s-.3,2.5-.8,3.1c-.5.6-1.3.9-2.3.9s-1.8-.3-2.3-.9-.8-1.7-.8-3.1.3-2.5.8-3.2ZM28.8,106.6c0-1-.1-1.7-.3-2.1-.2-.4-.6-.6-1-.6s-.8.2-1.1.6c-.2.4-.3,1.1-.3,2.1s.1,1.7.3,2.1c.2.4.6.6,1.1.6s.8-.2,1-.6.3-1.1.3-2.1Z"/>
    </g>
  </g>
  <g class="st13">
    <g class="st13">
      <path class="st2" d="M15.2,165.7v-1.5h5.1v1.9l-2.8,6.2-1.5-.4,2.7-5.8v-.4h-3.4Z"/>
      <path class="st2" d="M27,164.2v1.4h-3.5l-.2,1.7c.5-.2,1-.3,1.4-.3,1.7,0,2.6.8,2.6,2.4s-.2,1.6-.7,2.1c-.5.5-1.1.7-2,.7s-.8,0-1.3-.1c-.5,0-.8-.1-1.1-.2h-.4c0-.1.2-1.3.2-1.3,1,.2,1.8.2,2.4.2s.7-.1.9-.3c.2-.2.3-.5.3-.9s0-.7-.3-.8-.4-.3-.7-.3c-.5,0-1,0-1.4.2h-.2s-1-.2-1-.2l.2-4.3h4.8Z"/>
    </g>
  </g>
  <g class="st13">
    <g class="st13">
      <path class="st2" d="M19.9,225.8v1.4h-3.5l-.2,1.7c.5-.2,1-.3,1.4-.3,1.7,0,2.6.8,2.6,2.4s-.2,1.6-.7,2.1c-.5.5-1.1.7-2,.7s-.8,0-1.3-.1c-.5,0-.8-.1-1.1-.2h-.4c0-.1.2-1.3.2-1.3,1,.2,1.8.2,2.4.2s.7-.1.9-.3c.2-.2.3-.5.3-.9s0-.7-.3-.8-.4-.3-.7-.3c-.5,0-1,0-1.4.2h-.2s-1-.2-1-.2l.2-4.3h4.8Z"/>
      <path class="st2" d="M21.8,226.7c.5-.7,1.3-1,2.3-1s1.8.3,2.3,1,.8,1.7.8,3.2-.3,2.5-.8,3.1-1.3.9-2.3.9-1.8-.3-2.3-.9c-.5-.6-.8-1.7-.8-3.1s.3-2.5.8-3.2ZM25.4,229.8c0-1-.1-1.7-.3-2.1-.2-.4-.6-.6-1-.6s-.8.2-1.1.6c-.2.4-.3,1.1-.3,2.1s.1,1.7.3,2.1.6.6,1.1.6.8-.2,1-.6.3-1.1.3-2.1Z"/>
    </g>
  </g>
  <g class="st13">
    <g class="st13">
      <path class="st2" d="M14.6,287.7c.7-.3,1.6-.4,2.5-.4s1.6.2,2,.5.6.9.6,1.7-.3,1.4-.9,1.8c.4.2.7.4.8.6s.2.6.2,1.1c0,.9-.2,1.5-.6,1.9-.4.4-1.1.6-2.1.6s-1.4-.1-2.2-.3h-.4c0,0,0-1.4,0-1.4.9.2,1.6.2,2.3.2s1.2-.4,1.2-1.1-.1-.5-.3-.7c-.2-.2-.5-.3-.8-.3h-1.6v-1.4h1.6c.3,0,.5-.1.7-.3.2-.2.3-.5.3-.7,0-.6-.4-.9-1.2-.9s-1.1,0-1.8.2h-.3s-.1-1.2-.1-1.2Z"/>
      <path class="st2" d="M21.7,288.3c.5-.7,1.3-1,2.3-1s1.8.3,2.3,1c.5.7.8,1.7.8,3.2s-.3,2.5-.8,3.1c-.5.6-1.3.9-2.3.9s-1.8-.3-2.3-.9-.8-1.7-.8-3.1.3-2.5.8-3.2ZM25.3,291.4c0-1-.1-1.7-.3-2.1-.2-.4-.6-.6-1-.6s-.8.2-1.1.6c-.2.4-.3,1.1-.3,2.1s.1,1.7.3,2.1c.2.4.6.6,1.1.6s.8-.2,1-.6.3-1.1.3-2.1Z"/>
    </g>
  </g>
  <g class="st13">
    <g class="st13">
      <path class="st2" d="M20,356.9h-5.1v-1.4l1.7-1.7c.6-.6,1-1.1,1.3-1.4.2-.3.4-.7.4-1s0-.6-.3-.8c-.2-.2-.5-.2-.8-.2-.5,0-1.1,0-1.8.1h-.3s0-1.2,0-1.2c.8-.2,1.6-.4,2.4-.4,1.7,0,2.5.8,2.5,2.3s-.1,1.1-.4,1.5c-.3.4-.7,1-1.4,1.6l-1.4,1.2h3.3v1.4Z"/>
      <path class="st2" d="M21.9,349.9c.5-.7,1.3-1,2.3-1s1.8.3,2.3,1c.5.7.8,1.7.8,3.2s-.3,2.5-.8,3.1c-.5.6-1.3.9-2.3.9s-1.8-.3-2.3-.9c-.5-.6-.8-1.7-.8-3.1s.3-2.5.8-3.2ZM25.5,353c0-1-.1-1.7-.3-2.1-.2-.4-.6-.6-1.1-.6s-.8.2-1.1.6c-.2.4-.3,1.1-.3,2.1s.1,1.7.3,2.1.6.6,1.1.6.8-.2,1-.6c.2-.4.3-1.1.3-2.1Z"/>
    </g>
  </g>
  <g class="st13">
    <g class="st13">
      <path class="st2" d="M19,409.5v7.9h-1.7v-6l-1.7,1.1-.8-1.2,2.6-1.7h1.5Z"/>
      <path class="st2" d="M26.6,409.5v1.4h-3.5l-.2,1.7c.5-.2,1-.3,1.4-.3,1.7,0,2.6.8,2.6,2.4s-.2,1.6-.7,2.1-1.1.7-2,.7-.8,0-1.3-.1-.8-.1-1.1-.2h-.4c0-.1.2-1.3.2-1.3,1,.2,1.8.2,2.4.2s.7-.1.9-.3c.2-.2.3-.5.3-.9s0-.7-.3-.8-.4-.3-.7-.3c-.5,0-1,0-1.4.2h-.2s-1-.2-1-.2l.2-4.3h4.8Z"/>
    </g>
  </g>
  <g class="st13">
    <g class="st13">
      <path class="st2" d="M19.1,473.6v7.9h-1.7v-6l-1.7,1.1-.8-1.2,2.6-1.7h1.5Z"/>
      <path class="st2" d="M21.9,474.5c.5-.7,1.3-1,2.3-1s1.8.3,2.3,1c.5.7.8,1.7.8,3.2s-.3,2.5-.8,3.1c-.5.6-1.3.9-2.3.9s-1.8-.3-2.3-.9c-.5-.6-.8-1.7-.8-3.1s.3-2.5.8-3.2ZM25.5,477.6c0-1-.1-1.7-.3-2.1-.2-.4-.6-.6-1.1-.6s-.8.2-1.1.6c-.2.4-.3,1.1-.3,2.1s.1,1.7.3,2.1.6.6,1.1.6.8-.2,1-.6c.2-.4.3-1.1.3-2.1Z"/>
    </g>
  </g>
  <g class="st13">
    <g class="st13">
      <path class="st2" d="M23.5,532.7v1.4h-3.5l-.2,1.7c.5-.2,1-.3,1.4-.3,1.7,0,2.6.8,2.6,2.4s-.2,1.6-.7,2.1-1.1.7-2,.7-.8,0-1.3-.1c-.5,0-.8-.1-1.1-.2h-.4c0-.1.2-1.3.2-1.3,1,.2,1.8.2,2.4.2s.7-.1.9-.3c.2-.2.3-.5.3-.9s0-.7-.3-.8-.4-.3-.7-.3c-.5,0-1,0-1.4.2h-.2s-1-.2-1-.2l.2-4.3h4.8Z"/>
    </g>
  </g>
  <g class="st13">
    <g class="st13">
      <path class="st2" d="M23.5,604h-5.1v-1.4l1.7-1.7c.6-.6,1-1.1,1.3-1.4.2-.3.4-.7.4-1s0-.6-.3-.8c-.2-.2-.5-.2-.8-.2-.5,0-1.1,0-1.8.1h-.3s0-1.2,0-1.2c.8-.2,1.6-.4,2.4-.4,1.7,0,2.5.8,2.5,2.3s-.1,1.1-.4,1.5c-.3.4-.7,1-1.4,1.6l-1.4,1.2h3.3v1.4Z"/>
    </g>
  </g>
  <g class="st13">
    <g class="st13">
      <path class="st2" d="M22.1,655.9v7.9h-1.7v-6l-1.7,1.1-.8-1.2,2.6-1.7h1.5Z"/>
    </g>
  </g>
  <path class="st10" d="M34.8,22.9h0c0-7.8-6.1-14-13.6-14.4v-1.3c0-.4-.3-.7-.7-.7s-.7.3-.7.7v1.3c-7.6.4-13.6,6.6-13.6,14.3s.3.7.7.7.4,0,.5-.2c2.4-2.3,5.7-2.3,8.1,0,.1.1.3.2.5.2s.4,0,.5-.2c1-1,2.1-1.5,3.3-1.7v9.9c0,2,1.6,3.7,3.7,3.7s3.7-1.6,3.7-3.7-.3-.7-.7-.7-.7.3-.7.7c0,1.2-1,2.2-2.2,2.2s-2.2-1-2.2-2.2v-9.9c1.2.2,2.3.7,3.3,1.7s.7.3,1,0c2.4-2.3,5.7-2.3,8.1,0,.2.2.6.3.9,0,.2-.1.3-.3.3-.5h-.2ZM24.4,21.4c-1.2-.8-2.5-1.2-3.9-1.2h0c-1.3,0-2.7.4-3.9,1.2-.4-5,.9-8.9,2.4-10.6,1-1.2,2-1.2,3.1,0,1.5,1.7,2.8,5.6,2.4,10.6h-.1ZM7.7,21.2c.7-5.4,4.6-9.7,9.8-11-1.4,1.9-2.8,5.7-2.4,10.9-2.3-1.4-5.1-1.4-7.4,0h0ZM25.9,21.2c.3-5.2-1-9-2.4-10.9,5.2,1.2,9.2,5.6,9.8,11-2.3-1.4-5.1-1.5-7.4,0h0Z"/>
</svg>