<?xml version="1.0" standalone="no"?>
<!DOCTYPE svg PUBLIC "-//W3C//DTD SVG 20010904//EN"
 "http://www.w3.org/TR/2001/REC-SVG-20010904/DTD/svg10.dtd">
<svg version="1.0" xmlns="http://www.w3.org/2000/svg"
 width="150.000000pt" height="150.000000pt" viewBox="0 0 150.000000 150.000000"
 preserveAspectRatio="xMidYMid meet">
<metadata>
Created by potrace 1.11, written by Peter Selinger 2001-2013
</metadata>
<g transform="translate(0.000000,150.000000) scale(0.100000,-0.100000)"
fill="#000000" stroke="none">
<path d="M210 680 l0 -501 48 3 47 3 1 383 c0 210 3 385 7 388 7 7 6 9 312
-513 69 -118 81 -133 104 -133 24 1 44 31 215 326 104 178 193 327 197 330 5
3 9 -169 9 -391 l0 -396 48 3 47 3 0 495 0 495 -40 3 -40 3 -215 -371 c-118
-203 -217 -370 -220 -370 -3 0 -102 165 -221 368 l-215 367 -42 3 -42 3 0
-501z"/>
<path d="M686 853 c-6 -14 -5 -15 5 -6 7 7 10 15 7 18 -3 3 -9 -2 -12 -12z"/>
</g>
</svg>
