<?xml version="1.0" encoding="utf-8"?>
<!-- Generator: Adobe Illustrator 16.0.0, SVG Export Plug-In . SVG Version: 6.00 Build 0)  -->
<!DOCTYPE svg PUBLIC "-//W3C//DTD SVG 1.1//EN" "http://www.w3.org/Graphics/SVG/1.1/DTD/svg11.dtd">
<svg version="1.1" id="Livello_1" xmlns="http://www.w3.org/2000/svg" xmlns:xlink="http://www.w3.org/1999/xlink" x="0px" y="0px"
	 width="841.047px" height="45.623px" viewBox="-388.167 271.66 841.047 45.623"
	 enable-background="new -388.167 271.66 841.047 45.623" xml:space="preserve">
<g>
	<g>
		<g>
			<defs>
				<path id="SVGID_1_" d="M436.236,280.2c5.101,0.524,11.265,8.511,11.265,15.46l0,0c0.551,6.887-4.972,16.315-11.265,16.315
					h-807.368c-7.412-1.535-11.697-9.74-11.688-15.275l0,0c-0.009-6.442,4.394-14.844,11.976-16.5H436.236L436.236,280.2z"/>
			</defs>
			<clipPath id="SVGID_2_">
				<use xlink:href="#SVGID_1_"  overflow="visible"/>
			</clipPath>
			<rect x="-383.132" y="262.139" clip-path="url(#SVGID_2_)" fill="#4897D9" width="44.074" height="66.493"/>
		</g>
	</g>
	<g>
		<g>
			<defs>
				<path id="SVGID_3_" d="M436.236,280.2c5.101,0.524,11.265,8.511,11.265,15.46l0,0c0.551,6.887-4.972,16.315-11.265,16.315
					h-807.368c-7.412-1.535-11.697-9.74-11.688-15.275l0,0c-0.009-6.442,4.394-14.844,11.976-16.5H436.236L436.236,280.2z"/>
			</defs>
			<clipPath id="SVGID_4_">
				<use xlink:href="#SVGID_3_"  overflow="visible"/>
			</clipPath>
			<rect x="-339.058" y="262.136" clip-path="url(#SVGID_4_)" fill="#A2A4D6" width="44.075" height="66.494"/>
		</g>
	</g>
	<g>
		<g>
			<defs>
				<path id="SVGID_5_" d="M436.236,280.2c5.101,0.524,11.265,8.511,11.265,15.46l0,0c0.551,6.887-4.972,16.315-11.265,16.315
					h-807.368c-7.412-1.535-11.697-9.74-11.688-15.275l0,0c-0.009-6.442,4.394-14.844,11.976-16.5H436.236L436.236,280.2z"/>
			</defs>
			<clipPath id="SVGID_6_">
				<use xlink:href="#SVGID_5_"  overflow="visible"/>
			</clipPath>
			<rect x="-294.979" y="261.433" clip-path="url(#SVGID_6_)" fill="#B887C0" width="44.076" height="66.492"/>
		</g>
	</g>
	<g>
		<g>
			<defs>
				<path id="SVGID_7_" d="M436.236,280.2c5.101,0.524,11.265,8.511,11.265,15.46l0,0c0.551,6.887-4.972,16.315-11.265,16.315
					h-807.368c-7.412-1.535-11.697-9.74-11.688-15.275l0,0c-0.009-6.442,4.394-14.844,11.976-16.5H436.236L436.236,280.2z"/>
			</defs>
			<clipPath id="SVGID_8_">
				<use xlink:href="#SVGID_7_"  overflow="visible"/>
			</clipPath>
			<rect x="-250.903" y="261.433" clip-path="url(#SVGID_8_)" fill="#D6A1CC" width="44.075" height="66.492"/>
		</g>
	</g>
	<g>
		<g>
			<defs>
				<path id="SVGID_9_" d="M436.236,280.2c5.101,0.524,11.265,8.511,11.265,15.46l0,0c0.551,6.887-4.972,16.315-11.265,16.315
					h-807.368c-7.412-1.535-11.697-9.74-11.688-15.275l0,0c-0.009-6.442,4.394-14.844,11.976-16.5H436.236L436.236,280.2z"/>
			</defs>
			<clipPath id="SVGID_10_">
				<use xlink:href="#SVGID_9_"  overflow="visible"/>
			</clipPath>
			<rect x="-206.828" y="262.139" clip-path="url(#SVGID_10_)" fill="#E7BDDA" width="44.077" height="66.493"/>
		</g>
	</g>
	<g>
		<g>
			<defs>
				<path id="SVGID_11_" d="M436.236,280.2c5.101,0.524,11.265,8.511,11.265,15.46l0,0c0.551,6.887-4.972,16.315-11.265,16.315
					h-807.368c-7.412-1.535-11.697-9.74-11.688-15.275l0,0c-0.009-6.442,4.394-14.844,11.976-16.5H436.236L436.236,280.2z"/>
			</defs>
			<clipPath id="SVGID_12_">
				<use xlink:href="#SVGID_11_"  overflow="visible"/>
			</clipPath>
			<rect x="-162.752" y="262.136" clip-path="url(#SVGID_12_)" fill="#E57D9A" width="44.075" height="66.494"/>
		</g>
	</g>
	<g>
		<g>
			<defs>
				<path id="SVGID_13_" d="M436.236,280.2c5.101,0.524,11.265,8.511,11.265,15.46l0,0c0.551,6.887-4.972,16.315-11.265,16.315
					h-807.368c-7.412-1.535-11.697-9.74-11.688-15.275l0,0c-0.009-6.442,4.394-14.844,11.976-16.5H436.236L436.236,280.2z"/>
			</defs>
			<clipPath id="SVGID_14_">
				<use xlink:href="#SVGID_13_"  overflow="visible"/>
			</clipPath>
			<rect x="-118.677" y="262.139" clip-path="url(#SVGID_14_)" fill="#DA4C4D" width="44.078" height="66.493"/>
		</g>
	</g>
	<g>
		<g>
			<defs>
				<path id="SVGID_15_" d="M436.236,280.2c5.101,0.524,11.265,8.511,11.265,15.46l0,0c0.551,6.887-4.972,16.315-11.265,16.315
					h-807.368c-7.412-1.535-11.697-9.74-11.688-15.275l0,0c-0.009-6.442,4.394-14.844,11.976-16.5H436.236L436.236,280.2z"/>
			</defs>
			<clipPath id="SVGID_16_">
				<use xlink:href="#SVGID_15_"  overflow="visible"/>
			</clipPath>
			<rect x="-74.599" y="262.136" clip-path="url(#SVGID_16_)" fill="#EE5A5C" width="44.074" height="66.494"/>
		</g>
	</g>
	<g>
		<g>
			<defs>
				<path id="SVGID_17_" d="M436.236,280.2c5.101,0.524,11.265,8.511,11.265,15.46l0,0c0.551,6.887-4.972,16.315-11.265,16.315
					h-807.368c-7.412-1.535-11.697-9.74-11.688-15.275l0,0c-0.009-6.442,4.394-14.844,11.976-16.5H436.236L436.236,280.2z"/>
			</defs>
			<clipPath id="SVGID_18_">
				<use xlink:href="#SVGID_17_"  overflow="visible"/>
			</clipPath>
			<rect x="-30.524" y="261.433" clip-path="url(#SVGID_18_)" fill="#F6A15C" width="44.074" height="66.492"/>
		</g>
	</g>
	<g>
		<g>
			<defs>
				<path id="SVGID_19_" d="M436.236,280.2c5.101,0.524,11.265,8.511,11.265,15.46l0,0c0.551,6.887-4.972,16.315-11.265,16.315
					h-807.368c-7.412-1.535-11.697-9.74-11.688-15.275l0,0c-0.009-6.442,4.394-14.844,11.976-16.5H436.236L436.236,280.2z"/>
			</defs>
			<clipPath id="SVGID_20_">
				<use xlink:href="#SVGID_19_"  overflow="visible"/>
			</clipPath>
			<rect x="13.547" y="261.433" clip-path="url(#SVGID_20_)" fill="#FCD48E" width="44.08" height="66.492"/>
		</g>
	</g>
	<g>
		<g>
			<defs>
				<path id="SVGID_21_" d="M436.236,280.2c5.101,0.524,11.265,8.511,11.265,15.46l0,0c0.551,6.887-4.972,16.315-11.265,16.315
					h-807.368c-7.412-1.535-11.697-9.74-11.688-15.275l0,0c-0.009-6.442,4.394-14.844,11.976-16.5H436.236L436.236,280.2z"/>
			</defs>
			<clipPath id="SVGID_22_">
				<use xlink:href="#SVGID_21_"  overflow="visible"/>
			</clipPath>
			<rect x="57.627" y="261.433" clip-path="url(#SVGID_22_)" fill="#FFE073" width="44.077" height="66.492"/>
		</g>
	</g>
	<g>
		<g>
			<defs>
				<path id="SVGID_23_" d="M436.236,280.2c5.101,0.524,11.265,8.511,11.265,15.46l0,0c0.551,6.887-4.972,16.315-11.265,16.315
					h-807.368c-7.412-1.535-11.697-9.74-11.688-15.275l0,0c-0.009-6.442,4.394-14.844,11.976-16.5H436.236L436.236,280.2z"/>
			</defs>
			<clipPath id="SVGID_24_">
				<use xlink:href="#SVGID_23_"  overflow="visible"/>
			</clipPath>
			<rect x="233.927" y="260.724" clip-path="url(#SVGID_24_)" fill="#D2EBA3" width="44.08" height="66.496"/>
		</g>
	</g>
	<g>
		<g>
			<defs>
				<path id="SVGID_25_" d="M436.236,280.2c5.101,0.524,11.265,8.511,11.265,15.46l0,0c0.551,6.887-4.972,16.315-11.265,16.315
					h-807.368c-7.412-1.535-11.697-9.74-11.688-15.275l0,0c-0.009-6.442,4.394-14.844,11.976-16.5H436.236L436.236,280.2z"/>
			</defs>
			<clipPath id="SVGID_26_">
				<use xlink:href="#SVGID_25_"  overflow="visible"/>
			</clipPath>
			<rect x="278.007" y="260.724" clip-path="url(#SVGID_26_)" fill="#C2E5D7" width="44.074" height="66.492"/>
		</g>
	</g>
	<g>
		<g>
			<defs>
				<path id="SVGID_27_" d="M436.236,280.2c5.101,0.524,11.265,8.511,11.265,15.46l0,0c0.551,6.887-4.972,16.315-11.265,16.315
					h-807.368c-7.412-1.535-11.697-9.74-11.688-15.275l0,0c-0.009-6.442,4.394-14.844,11.976-16.5H436.236L436.236,280.2z"/>
			</defs>
			<clipPath id="SVGID_28_">
				<use xlink:href="#SVGID_27_"  overflow="visible"/>
			</clipPath>
			<rect x="322.081" y="260.024" clip-path="url(#SVGID_28_)" fill="#C7E7EF" width="44.077" height="66.493"/>
		</g>
	</g>
	<g>
		<g>
			<defs>
				<path id="SVGID_29_" d="M436.236,280.2c5.101,0.524,11.265,8.511,11.265,15.46l0,0c0.551,6.887-4.972,16.315-11.265,16.315
					h-807.368c-7.412-1.535-11.697-9.74-11.688-15.275l0,0c-0.009-6.442,4.394-14.844,11.976-16.5H436.236L436.236,280.2z"/>
			</defs>
			<clipPath id="SVGID_30_">
				<use xlink:href="#SVGID_29_"  overflow="visible"/>
			</clipPath>
			<rect x="366.158" y="260.024" clip-path="url(#SVGID_30_)" fill="#CFEAF6" width="81.694" height="66.493"/>
		</g>
	</g>
	<g>
		<g>
			<defs>
				<path id="SVGID_31_" d="M436.236,280.2c5.101,0.524,11.265,8.511,11.265,15.46l0,0c0.551,6.887-4.972,16.315-11.265,16.315
					h-807.368c-7.412-1.535-11.697-9.74-11.688-15.275l0,0c-0.009-6.442,4.394-14.844,11.976-16.5H436.236L436.236,280.2z"/>
			</defs>
			<clipPath id="SVGID_32_">
				<use xlink:href="#SVGID_31_"  overflow="visible"/>
			</clipPath>
			<rect x="101.704" y="260.724" clip-path="url(#SVGID_32_)" fill="#FDFD81" width="44.074" height="66.496"/>
		</g>
	</g>
	<g>
		<g>
			<defs>
				<path id="SVGID_33_" d="M436.236,280.2c5.101,0.524,11.265,8.511,11.265,15.46l0,0c0.551,6.887-4.972,16.315-11.265,16.315
					h-807.368c-7.412-1.535-11.697-9.74-11.688-15.275l0,0c-0.009-6.442,4.394-14.844,11.976-16.5H436.236L436.236,280.2z"/>
			</defs>
			<clipPath id="SVGID_34_">
				<use xlink:href="#SVGID_33_"  overflow="visible"/>
			</clipPath>
			<rect x="145.778" y="260.727" clip-path="url(#SVGID_34_)" fill="#FFFFC6" width="44.077" height="66.493"/>
		</g>
	</g>
	<g>
		<g>
			<defs>
				<path id="SVGID_35_" d="M436.236,280.2c5.101,0.524,11.265,8.511,11.265,15.46l0,0c0.551,6.887-4.972,16.315-11.265,16.315
					h-807.368c-7.412-1.535-11.697-9.74-11.688-15.275l0,0c-0.009-6.442,4.394-14.844,11.976-16.5H436.236L436.236,280.2z"/>
			</defs>
			<clipPath id="SVGID_36_">
				<use xlink:href="#SVGID_35_"  overflow="visible"/>
			</clipPath>
			<rect x="189.853" y="260.724" clip-path="url(#SVGID_36_)" fill="#F2F2A0" width="44.074" height="66.496"/>
		</g>
	</g>
</g>
<path fill="none" stroke="#3C3430" stroke-width="3" stroke-miterlimit="10" d="M435.833,279.786
	c5.142,0.475,11.265,8.508,11.265,15.461l0,0c0.551,6.89-4.973,16.314-11.265,16.314h-807.37
	c-7.411-1.532-11.697-9.738-11.688-15.274l0,0c-0.009-6.443,4.394-14.843,11.977-16.501H435.833L435.833,279.786z"/>
<rect x="-370.671" y="279.773" fill="none" width="15.894" height="31.779"/>
<g enable-background="new    ">
	<path fill="#39322E" d="M-365.487,296.635c0.365,0.39,0.551,0.875,0.551,1.461c0,0.438-0.115,0.839-0.338,1.199
		c-0.223,0.359-0.559,0.646-1.01,0.857c-0.449,0.212-0.998,0.317-1.646,0.317c-0.539,0-1.061-0.077-1.559-0.231
		c-0.502-0.155-0.93-0.369-1.283-0.643l0.605-1.092c0.273,0.231,0.607,0.413,1,0.545c0.391,0.134,0.797,0.199,1.213,0.199
		c0.498,0,0.887-0.103,1.172-0.309c0.283-0.205,0.428-0.482,0.428-0.837c0-0.355-0.135-0.63-0.404-0.827
		c-0.271-0.198-0.684-0.296-1.24-0.296h-0.688v-0.963l1.717-2.042h-3.434v-1.175h5.152v0.939l-1.836,2.181
		C-366.39,296.01-365.856,296.249-365.487,296.635z"/>
	<path fill="#39322E" d="M-362.487,300.01c-0.475-0.305-0.85-0.751-1.123-1.339c-0.275-0.587-0.41-1.281-0.41-2.092
		c0-0.807,0.139-1.501,0.41-2.09c0.273-0.588,0.648-1.033,1.123-1.341c0.477-0.306,1.016-0.458,1.619-0.458
		c0.607,0,1.146,0.153,1.626,0.458c0.48,0.308,0.855,0.753,1.128,1.341c0.275,0.589,0.41,1.281,0.41,2.09s-0.138,1.503-0.41,2.092
		c-0.272,0.588-0.647,1.031-1.128,1.339s-1.02,0.46-1.626,0.46C-361.472,300.47-362.013,300.32-362.487,300.01z M-359.587,298.581
		c0.313-0.448,0.469-1.111,0.469-1.998c0-0.886-0.155-1.551-0.469-1.998c-0.313-0.445-0.741-0.668-1.281-0.668
		c-0.533,0-0.955,0.223-1.268,0.668c-0.314,0.447-0.473,1.112-0.473,1.998c0,0.887,0.158,1.55,0.473,1.998
		c0.313,0.447,0.734,0.67,1.268,0.67C-360.329,299.252-359.901,299.028-359.587,298.581z"/>
	<path fill="#39322E" d="M-355.219,300.01c-0.475-0.305-0.847-0.751-1.122-1.339c-0.275-0.587-0.407-1.281-0.407-2.092
		c0-0.807,0.135-1.501,0.407-2.09c0.275-0.588,0.647-1.033,1.122-1.341c0.475-0.306,1.014-0.458,1.62-0.458
		c0.604,0,1.146,0.153,1.626,0.458c0.478,0.308,0.853,0.753,1.128,1.341c0.275,0.589,0.41,1.281,0.41,2.09s-0.138,1.503-0.41,2.092
		c-0.275,0.588-0.65,1.031-1.128,1.339c-0.48,0.308-1.022,0.46-1.626,0.46C-354.206,300.47-354.742,300.32-355.219,300.01z
		 M-352.319,298.581c0.313-0.448,0.469-1.111,0.469-1.998c0-0.886-0.155-1.551-0.469-1.998c-0.311-0.445-0.738-0.668-1.28-0.668
		c-0.53,0-0.958,0.223-1.271,0.668c-0.313,0.447-0.469,1.112-0.469,1.998c0,0.887,0.155,1.55,0.469,1.998
		c0.313,0.447,0.738,0.67,1.271,0.67C-353.057,299.252-352.629,299.028-352.319,298.581z"/>
</g>
<rect x="-324.382" y="280.2" fill="none" width="15.893" height="31.775"/>
<g enable-background="new    ">
	<path fill="#39322E" d="M-322.853,299.228v1.188h-5.572v-0.941l3.002-2.848c0.34-0.326,0.568-0.606,0.686-0.847
		c0.119-0.242,0.18-0.48,0.18-0.718c0-0.354-0.121-0.623-0.357-0.811c-0.238-0.188-0.586-0.282-1.047-0.282
		c-0.771,0-1.361,0.262-1.771,0.788l-0.982-0.756c0.295-0.397,0.691-0.705,1.193-0.925c0.5-0.22,1.061-0.328,1.678-0.328
		c0.82,0,1.477,0.193,1.967,0.582c0.49,0.39,0.734,0.918,0.734,1.589c0,0.409-0.084,0.796-0.258,1.158
		c-0.172,0.36-0.504,0.772-0.996,1.231l-2.018,1.92H-322.853L-322.853,299.228z"/>
	<path fill="#39322E" d="M-320.542,300.066c-0.475-0.305-0.85-0.75-1.121-1.34c-0.275-0.588-0.41-1.281-0.41-2.092
		c0-0.807,0.135-1.501,0.41-2.09c0.271-0.587,0.646-1.031,1.121-1.34c0.475-0.307,1.018-0.457,1.621-0.457s1.148,0.153,1.623,0.457
		c0.48,0.308,0.855,0.753,1.131,1.34c0.272,0.589,0.41,1.282,0.41,2.09c0,0.809-0.141,1.504-0.41,2.092
		c-0.275,0.59-0.65,1.033-1.131,1.34c-0.478,0.309-1.019,0.459-1.623,0.459C-319.525,300.523-320.068,300.373-320.542,300.066z
		 M-317.642,298.635c0.313-0.447,0.469-1.111,0.469-1.998c0-0.885-0.155-1.551-0.469-1.999c-0.313-0.445-0.739-0.668-1.28-0.668
		c-0.533,0-0.955,0.223-1.27,0.668c-0.313,0.447-0.469,1.113-0.469,1.999c0,0.887,0.156,1.551,0.469,1.998
		c0.314,0.447,0.736,0.67,1.27,0.67C-318.382,299.304-317.955,299.082-317.642,298.635z"/>
	<path fill="#39322E" d="M-313.271,300.066c-0.478-0.305-0.853-0.75-1.125-1.34c-0.272-0.588-0.41-1.281-0.41-2.092
		c0-0.807,0.141-1.501,0.41-2.09c0.272-0.587,0.647-1.031,1.125-1.34c0.472-0.307,1.014-0.457,1.617-0.457s1.148,0.153,1.626,0.457
		c0.478,0.308,0.853,0.753,1.128,1.34c0.275,0.589,0.41,1.282,0.41,2.09c0,0.809-0.138,1.504-0.41,2.092
		c-0.275,0.59-0.65,1.033-1.128,1.34c-0.478,0.309-1.022,0.459-1.626,0.459S-312.799,300.373-313.271,300.066z M-310.373,298.635
		c0.313-0.447,0.469-1.111,0.469-1.998c0-0.885-0.155-1.551-0.469-1.999c-0.313-0.445-0.741-0.668-1.28-0.668
		c-0.533,0-0.958,0.223-1.271,0.668c-0.313,0.447-0.469,1.113-0.469,1.999c0,0.887,0.155,1.551,0.469,1.998s0.738,0.67,1.271,0.67
		C-311.114,299.304-310.687,299.082-310.373,298.635z"/>
</g>
<rect x="-277.95" y="280.2" fill="none" width="15.894" height="31.775"/>
<g enable-background="new    ">
	<path fill="#39322E" d="M-279.762,293.395v7.559h-1.406v-6.381h-1.598v-1.177L-279.762,293.395L-279.762,293.395z"/>
	<path fill="#39322E" d="M-276.727,300.602c-0.479-0.305-0.85-0.75-1.125-1.338c-0.273-0.59-0.41-1.281-0.41-2.092
		c0-0.807,0.137-1.503,0.41-2.09c0.275-0.589,0.646-1.031,1.125-1.341c0.475-0.306,1.014-0.46,1.619-0.46
		c0.604,0,1.146,0.154,1.623,0.46c0.478,0.308,0.856,0.752,1.128,1.341c0.272,0.587,0.41,1.282,0.41,2.09s-0.138,1.502-0.41,2.092
		c-0.275,0.588-0.65,1.033-1.128,1.338c-0.477,0.309-1.021,0.459-1.623,0.459C-275.713,301.061-276.252,300.911-276.727,300.602z
		 M-273.83,299.173c0.314-0.445,0.473-1.113,0.473-1.998s-0.158-1.552-0.473-1.998c-0.311-0.445-0.738-0.669-1.277-0.669
		c-0.533,0-0.957,0.224-1.271,0.669c-0.311,0.445-0.469,1.113-0.469,1.998s0.156,1.553,0.469,1.998
		c0.314,0.445,0.738,0.67,1.271,0.67C-274.568,299.841-274.141,299.618-273.83,299.173z"/>
	<path fill="#39322E" d="M-269.461,300.602c-0.475-0.305-0.85-0.75-1.122-1.338c-0.275-0.59-0.41-1.281-0.41-2.092
		c0-0.807,0.138-1.503,0.41-2.09c0.272-0.589,0.647-1.031,1.122-1.341c0.475-0.306,1.017-0.46,1.62-0.46
		c0.606,0,1.148,0.154,1.626,0.46c0.478,0.308,0.855,0.752,1.128,1.341c0.272,0.587,0.413,1.282,0.413,2.09
		s-0.141,1.502-0.413,2.092c-0.27,0.588-0.65,1.033-1.128,1.338c-0.478,0.309-1.02,0.459-1.626,0.459
		C-268.445,301.061-268.984,300.911-269.461,300.602z M-266.561,299.173c0.313-0.445,0.469-1.113,0.469-1.998
		s-0.155-1.552-0.469-1.998s-0.738-0.669-1.28-0.669c-0.533,0-0.955,0.224-1.269,0.669s-0.472,1.113-0.472,1.998
		s0.158,1.553,0.472,1.998s0.732,0.67,1.269,0.67C-267.299,299.841-266.875,299.618-266.561,299.173z"/>
</g>
<rect x="-234.713" y="280.2" fill="none" width="15.894" height="31.775"/>
<g enable-background="new    ">
	<path fill="#39322E" d="M-230.384,292.806v0.938l-2.936,6.618h-1.504l2.842-6.37h-2.967v1.283h-1.311v-2.472L-230.384,292.806
		L-230.384,292.806z"/>
	<path fill="#39322E" d="M-224.985,296.352c0.513,0.413,0.768,0.976,0.768,1.69c0,0.454-0.111,0.864-0.337,1.23
		c-0.22,0.366-0.557,0.658-1.002,0.875c-0.448,0.215-0.999,0.323-1.652,0.323c-0.542,0-1.063-0.079-1.567-0.232
		c-0.504-0.154-0.929-0.368-1.274-0.642l0.594-1.093c0.281,0.229,0.618,0.411,1.011,0.543c0.39,0.135,0.797,0.202,1.213,0.202
		c0.498,0,0.888-0.103,1.172-0.309c0.287-0.207,0.428-0.488,0.428-0.847c0-0.39-0.155-0.683-0.46-0.879
		c-0.305-0.199-0.829-0.299-1.573-0.299h-1.825l0.39-4.115h4.438v1.177h-3.252l-0.161,1.75h0.724
		C-226.286,295.731-225.495,295.939-224.985,296.352z"/>
</g>
<rect x="-191.39" y="280.2" fill="none" width="15.894" height="31.775"/>
<g enable-background="new    ">
	<path fill="#39322E" d="M-186.325,296.888c0.51,0.414,0.766,0.977,0.766,1.689c0,0.455-0.111,0.865-0.334,1.23
		c-0.223,0.367-0.557,0.658-1.006,0.875c-0.445,0.217-0.996,0.322-1.652,0.322c-0.541,0-1.063-0.076-1.564-0.23
		c-0.504-0.154-0.93-0.369-1.273-0.643l0.592-1.094c0.283,0.232,0.619,0.412,1.01,0.545c0.393,0.135,0.797,0.201,1.217,0.201
		c0.494,0,0.887-0.102,1.168-0.309c0.285-0.205,0.428-0.486,0.428-0.848c0-0.387-0.154-0.682-0.459-0.879s-0.83-0.299-1.574-0.299
		h-1.822l0.387-4.113h4.439v1.175h-3.25l-0.162,1.751h0.723C-187.626,296.264-186.837,296.473-186.325,296.888z"/>
	<path fill="#39322E" d="M-183.216,300.549c-0.472-0.307-0.847-0.75-1.122-1.34c-0.276-0.588-0.411-1.281-0.411-2.092
		c0-0.806,0.139-1.502,0.411-2.089c0.272-0.589,0.647-1.031,1.122-1.341c0.478-0.306,1.017-0.46,1.623-0.46s1.146,0.154,1.623,0.46
		c0.48,0.308,0.855,0.752,1.131,1.341c0.272,0.587,0.407,1.282,0.407,2.089c0,0.809-0.138,1.504-0.407,2.092
		c-0.275,0.59-0.65,1.033-1.131,1.34c-0.478,0.307-1.02,0.459-1.623,0.459S-182.742,300.855-183.216,300.549z M-180.313,299.119
		c0.311-0.447,0.469-1.113,0.469-1.998c0-0.886-0.155-1.553-0.469-1.999c-0.316-0.445-0.741-0.669-1.283-0.669
		c-0.53,0-0.955,0.224-1.269,0.669s-0.472,1.113-0.472,1.999c0,0.885,0.158,1.551,0.472,1.998c0.313,0.445,0.735,0.67,1.269,0.67
		C-181.054,299.787-180.629,299.564-180.313,299.119z"/>
</g>
<rect x="-145.994" y="279.773" fill="none" width="15.895" height="31.779"/>
<g enable-background="new    ">
	<path fill="#39322E" d="M-141.725,298.642h-1.338v1.719h-1.359v-1.719h-4.148v-0.973l3.723-4.869h1.5l-3.508,4.654h2.475v-1.524
		h1.314v1.524h1.342V298.642L-141.725,298.642z"/>
	<path fill="#39322E" d="M-139.598,300.008c-0.475-0.307-0.85-0.752-1.122-1.34c-0.272-0.586-0.41-1.281-0.41-2.093
		c0-0.805,0.138-1.5,0.41-2.088c0.272-0.587,0.647-1.032,1.122-1.34c0.475-0.307,1.017-0.459,1.62-0.459s1.148,0.154,1.626,0.459
		c0.478,0.306,0.853,0.753,1.128,1.34c0.275,0.588,0.41,1.282,0.41,2.088c0,0.808-0.138,1.505-0.41,2.093
		c-0.275,0.588-0.65,1.033-1.128,1.34c-0.478,0.309-1.022,0.461-1.626,0.461S-139.123,300.316-139.598,300.008z M-136.697,298.576
		c0.316-0.445,0.469-1.109,0.469-1.997c0-0.885-0.155-1.55-0.469-1.997c-0.311-0.447-0.738-0.67-1.28-0.67
		c-0.53,0-0.955,0.223-1.269,0.67c-0.313,0.446-0.469,1.111-0.469,1.997c0,0.888,0.155,1.552,0.469,1.997
		c0.313,0.449,0.735,0.672,1.269,0.672C-137.438,299.248-137.008,299.023-136.697,298.576z"/>
</g>
<rect x="-102.947" y="279.89" fill="none" width="15.895" height="31.775"/>
<g enable-background="new    ">
	<path fill="#39322E" d="M-99.191,296.637c0.369,0.39,0.551,0.876,0.551,1.459c0,0.437-0.111,0.841-0.334,1.198
		c-0.223,0.36-0.561,0.647-1.012,0.858c-0.447,0.214-0.996,0.319-1.646,0.319c-0.539,0-1.061-0.079-1.561-0.231
		c-0.5-0.155-0.926-0.369-1.281-0.645l0.605-1.09c0.273,0.229,0.605,0.41,0.998,0.545c0.395,0.132,0.799,0.199,1.215,0.199
		c0.498,0,0.889-0.103,1.172-0.308c0.281-0.205,0.426-0.486,0.426-0.841c0-0.349-0.135-0.627-0.404-0.826
		c-0.273-0.196-0.684-0.299-1.236-0.299h-0.691v-0.961l1.717-2.04h-3.432v-1.176h5.15v0.938l-1.836,2.181
		C-100.091,296.01-99.558,296.248-99.191,296.637z"/>
	<path fill="#39322E" d="M-96.188,300.012c-0.475-0.308-0.85-0.75-1.125-1.342c-0.272-0.586-0.407-1.28-0.407-2.089
		s0.138-1.502,0.407-2.091c0.275-0.589,0.65-1.031,1.125-1.341c0.475-0.306,1.014-0.457,1.62-0.457c0.604,0,1.146,0.152,1.623,0.457
		c0.48,0.308,0.855,0.752,1.131,1.341s0.41,1.282,0.41,2.091s-0.138,1.503-0.41,2.089c-0.275,0.592-0.65,1.034-1.131,1.342
		c-0.478,0.308-1.02,0.46-1.623,0.46C-95.175,300.472-95.714,300.32-96.188,300.012z M-93.288,298.58
		c0.313-0.445,0.469-1.113,0.469-1.998s-0.155-1.552-0.469-1.997s-0.738-0.668-1.28-0.668c-0.53,0-0.958,0.223-1.271,0.668
		s-0.472,1.112-0.472,1.997s0.158,1.553,0.472,1.998s0.738,0.671,1.271,0.671C-94.026,299.251-93.602,299.025-93.288,298.58z"/>
</g>
<rect x="-59.25" y="279.773" fill="none" width="15.894" height="31.779"/>
<g enable-background="new    ">
	<path fill="#39322E" d="M-55.151,299.762v1.189h-5.572v-0.939l3-2.852c0.34-0.322,0.568-0.605,0.689-0.85
		c0.117-0.236,0.178-0.477,0.178-0.717c0-0.352-0.119-0.621-0.357-0.809c-0.236-0.188-0.588-0.285-1.045-0.285
		c-0.773,0-1.363,0.267-1.773,0.791l-0.982-0.755c0.295-0.396,0.693-0.706,1.193-0.926c0.498-0.217,1.061-0.328,1.68-0.328
		c0.82,0,1.477,0.193,1.965,0.583c0.492,0.387,0.736,0.917,0.736,1.59c0,0.408-0.088,0.791-0.262,1.154
		c-0.17,0.361-0.504,0.771-0.992,1.23l-2.021,1.922H-55.151L-55.151,299.762z"/>
	<path fill="#39322E" d="M-49.61,296.938c0.513,0.414,0.768,0.977,0.768,1.693c0,0.451-0.111,0.861-0.334,1.229
		c-0.226,0.365-0.56,0.658-1.005,0.873c-0.448,0.219-0.999,0.322-1.655,0.322c-0.536,0-1.061-0.076-1.564-0.229
		c-0.504-0.156-0.932-0.369-1.277-0.645l0.595-1.09c0.281,0.23,0.618,0.41,1.014,0.545c0.393,0.131,0.794,0.199,1.213,0.199
		c0.498,0,0.888-0.104,1.172-0.309s0.428-0.488,0.428-0.85c0-0.387-0.155-0.682-0.46-0.879c-0.308-0.195-0.832-0.295-1.573-0.295
		h-1.825l0.39-4.114h4.438v1.172h-3.252l-0.161,1.752h0.724C-50.911,296.315-50.123,296.526-49.61,296.938z"/>
</g>
<rect x="-15.352" y="279.773" fill="none" width="15.891" height="31.779"/>
<g enable-background="new    ">
	<path fill="#39322E" d="M-9.486,299.628v1.187h-5.574v-0.938l3.002-2.854c0.34-0.322,0.568-0.604,0.686-0.844
		c0.121-0.243,0.18-0.48,0.18-0.721c0-0.349-0.117-0.621-0.355-0.809c-0.236-0.188-0.588-0.281-1.049-0.281
		c-0.77,0-1.359,0.261-1.771,0.785l-0.982-0.756c0.297-0.396,0.695-0.703,1.193-0.92c0.5-0.223,1.061-0.334,1.682-0.334
		c0.82,0,1.473,0.196,1.965,0.586c0.49,0.39,0.732,0.917,0.732,1.588c0,0.41-0.084,0.797-0.258,1.157
		c-0.172,0.357-0.504,0.771-0.992,1.23l-2.021,1.922H-9.486L-9.486,299.628z"/>
	<path fill="#39322E" d="M-7.174,300.46c-0.475-0.305-0.85-0.75-1.125-1.336c-0.272-0.589-0.41-1.283-0.41-2.095
		c0-0.803,0.138-1.5,0.41-2.089c0.275-0.586,0.65-1.031,1.125-1.339c0.472-0.305,1.017-0.46,1.617-0.46
		c0.606,0,1.148,0.155,1.626,0.46c0.478,0.308,0.855,0.753,1.131,1.339c0.272,0.586,0.407,1.283,0.407,2.089
		c0,0.809-0.138,1.506-0.407,2.095c-0.275,0.586-0.653,1.031-1.131,1.336c-0.478,0.308-1.02,0.463-1.626,0.463
		C-6.158,300.923-6.703,300.767-7.174,300.46z M-4.274,299.03c0.313-0.445,0.469-1.11,0.469-1.995c0-0.888-0.155-1.553-0.469-1.998
		c-0.313-0.448-0.741-0.671-1.283-0.671c-0.53,0-0.955,0.223-1.269,0.671c-0.313,0.445-0.469,1.11-0.469,1.998
		c0,0.885,0.155,1.55,0.469,1.995c0.313,0.448,0.735,0.671,1.269,0.671C-5.018,299.701-4.587,299.478-4.274,299.03z"/>
</g>
<rect x="27.589" y="279.773" fill="none" width="15.894" height="31.779"/>
<g enable-background="new    ">
	<path fill="#39322E" d="M32.314,293.411v7.561H30.91v-6.383h-1.6v-1.178H32.314L32.314,293.411z"/>
	<path fill="#39322E" d="M38.546,296.962c0.513,0.416,0.768,0.979,0.768,1.689c0,0.455-0.111,0.865-0.334,1.23
		c-0.223,0.369-0.557,0.656-1.005,0.877c-0.448,0.217-0.999,0.322-1.655,0.322c-0.536,0-1.061-0.076-1.564-0.232
		c-0.504-0.154-0.929-0.369-1.278-0.641l0.596-1.094c0.281,0.229,0.618,0.41,1.011,0.545c0.393,0.133,0.797,0.199,1.216,0.199
		c0.498,0,0.888-0.1,1.169-0.307c0.284-0.205,0.428-0.486,0.428-0.844c0-0.391-0.152-0.684-0.46-0.883
		c-0.305-0.195-0.829-0.295-1.57-0.295h-1.828l0.393-4.116h4.441v1.178h-3.249l-0.164,1.749h0.724
		C37.248,296.341,38.033,296.546,38.546,296.962z"/>
</g>
<rect x="70.166" y="279.773" fill="none" width="15.894" height="31.779"/>
<g enable-background="new    ">
	<path fill="#39322E" d="M76.496,292.712v7.562h-1.404v-6.384h-1.598v-1.178H76.496z"/>
	<path fill="#39322E" d="M79.531,299.925c-0.475-0.308-0.85-0.753-1.123-1.342c-0.275-0.586-0.41-1.28-0.41-2.092
		c0-0.809,0.135-1.5,0.41-2.092c0.273-0.586,0.648-1.031,1.123-1.339c0.475-0.305,1.016-0.457,1.619-0.457s1.148,0.152,1.627,0.457
		c0.477,0.308,0.855,0.753,1.127,1.339c0.275,0.592,0.41,1.283,0.41,2.092c0,0.812-0.137,1.506-0.41,2.092
		c-0.271,0.589-0.65,1.031-1.127,1.342c-0.479,0.308-1.023,0.46-1.627,0.46S80.006,300.232,79.531,299.925z M82.432,298.492
		c0.311-0.445,0.471-1.11,0.471-1.998c0-0.885-0.158-1.55-0.471-1.998c-0.314-0.445-0.742-0.668-1.281-0.668
		c-0.529,0-0.957,0.223-1.271,0.668c-0.313,0.448-0.469,1.113-0.469,1.998c0,0.888,0.156,1.553,0.469,1.998
		c0.314,0.448,0.736,0.671,1.271,0.671C81.689,299.16,82.117,298.94,82.432,298.492z"/>
</g>
<rect x="115.749" y="280.2" fill="none" width="15.896" height="31.775"/>
<g enable-background="new    ">
	<path fill="#39322E" d="M122.758,297.565c0.213,0.308,0.318,0.662,0.318,1.075c0,0.46-0.129,0.864-0.383,1.21
		c-0.256,0.346-0.619,0.609-1.088,0.794c-0.469,0.182-1.01,0.275-1.631,0.275c-0.619,0-1.158-0.094-1.623-0.275
		c-0.467-0.185-0.824-0.448-1.076-0.794c-0.252-0.343-0.377-0.75-0.377-1.21c0-0.41,0.102-0.768,0.313-1.075
		c0.209-0.305,0.508-0.548,0.896-0.729c-0.301-0.164-0.533-0.384-0.693-0.653c-0.162-0.272-0.244-0.583-0.244-0.935
		c0-0.425,0.117-0.794,0.35-1.11c0.234-0.319,0.563-0.563,0.986-0.735c0.426-0.173,0.914-0.258,1.471-0.258
		c0.563,0,1.055,0.085,1.48,0.258c0.424,0.173,0.756,0.416,0.992,0.735c0.238,0.316,0.357,0.686,0.357,1.11
		c0,0.352-0.084,0.659-0.248,0.929c-0.164,0.267-0.404,0.483-0.715,0.656C122.242,297.017,122.547,297.26,122.758,297.565z
		 M121.207,299.493c0.305-0.22,0.457-0.519,0.457-0.899c0-0.375-0.152-0.671-0.457-0.885c-0.301-0.217-0.711-0.325-1.23-0.325
		c-0.516,0-0.926,0.108-1.219,0.325c-0.295,0.217-0.441,0.51-0.441,0.885c0,0.381,0.148,0.68,0.441,0.899
		c0.293,0.217,0.703,0.325,1.219,0.325C120.496,299.818,120.906,299.707,121.207,299.493z M118.934,294.521
		c-0.254,0.188-0.383,0.451-0.383,0.791c0,0.322,0.129,0.58,0.383,0.771c0.256,0.19,0.604,0.287,1.043,0.287
		c0.445,0,0.801-0.097,1.061-0.287c0.258-0.19,0.387-0.448,0.387-0.771c0-0.343-0.131-0.604-0.393-0.791
		c-0.264-0.185-0.615-0.278-1.055-0.278C119.537,294.246,119.191,294.337,118.934,294.521z"/>
</g>
<rect x="159.735" y="279.773" fill="none" width="15.896" height="31.779"/>
<g enable-background="new    ">
	<path fill="#39322E" d="M166.42,296.645c0.396,0.193,0.707,0.466,0.926,0.817c0.227,0.352,0.338,0.762,0.338,1.219
		c0,0.492-0.121,0.92-0.367,1.292s-0.574,0.656-0.992,0.855c-0.42,0.205-0.885,0.302-1.404,0.302c-1.037,0-1.842-0.322-2.414-0.967
		c-0.57-0.653-0.857-1.582-0.857-2.789c0-0.85,0.154-1.573,0.465-2.174s0.744-1.061,1.301-1.371
		c0.557-0.316,1.205-0.469,1.939-0.469c0.391,0,0.754,0.038,1.094,0.123c0.346,0.082,0.639,0.205,0.893,0.363l-0.521,1.055
		c-0.371-0.24-0.852-0.363-1.436-0.363c-0.729,0-1.297,0.22-1.707,0.665c-0.41,0.448-0.615,1.093-0.615,1.934v0.012
		c0.223-0.261,0.506-0.457,0.855-0.589c0.342-0.132,0.732-0.199,1.162-0.199C165.576,296.364,166.021,296.455,166.42,296.645z
		 M165.91,299.683c0.275-0.234,0.41-0.545,0.41-0.935c0-0.396-0.137-0.709-0.41-0.938c-0.271-0.231-0.639-0.346-1.098-0.346
		c-0.455,0-0.824,0.12-1.107,0.366c-0.281,0.246-0.428,0.554-0.428,0.929c0,0.366,0.141,0.671,0.416,0.911
		c0.277,0.243,0.662,0.363,1.15,0.363C165.281,300.035,165.639,299.918,165.91,299.683z"/>
</g>
<rect x="205.037" y="279.773" fill="none" width="15.894" height="31.779"/>
<g enable-background="new    ">
	<path fill="#39322E" d="M211.475,296.207c0.514,0.416,0.768,0.979,0.768,1.69c0,0.454-0.111,0.864-0.334,1.23
		c-0.223,0.369-0.557,0.656-1.008,0.876c-0.445,0.217-0.996,0.325-1.648,0.325c-0.543,0-1.064-0.079-1.568-0.234
		c-0.504-0.152-0.928-0.369-1.273-0.642l0.592-1.09c0.283,0.229,0.617,0.41,1.008,0.542c0.393,0.132,0.799,0.199,1.219,0.199
		c0.498,0,0.887-0.1,1.168-0.305c0.285-0.208,0.428-0.486,0.428-0.847c0-0.39-0.152-0.683-0.459-0.882
		c-0.305-0.196-0.83-0.296-1.57-0.296h-1.822l0.389-4.116h4.439v1.178h-3.252l-0.162,1.749h0.725
		C210.178,295.586,210.963,295.794,211.475,296.207z"/>
</g>
<rect x="247.793" y="281.144" fill="none" width="15.894" height="31.775"/>
<g enable-background="new    ">
	<path fill="#39322E" d="M257.479,299.094h-1.342v1.717h-1.359v-1.717h-4.148v-0.973l3.727-4.869h1.5l-3.51,4.655h2.473v-1.523
		h1.316v1.523h1.344V299.094L257.479,299.094z"/>
</g>
<rect x="291.214" y="279.773" fill="none" width="15.894" height="31.779"/>
<g enable-background="new    ">
	<path fill="#39322E" d="M301.068,296.491c0.365,0.393,0.551,0.876,0.551,1.462c0,0.439-0.111,0.838-0.334,1.198
		s-0.563,0.647-1.014,0.858c-0.449,0.214-1,0.319-1.646,0.319c-0.539,0-1.061-0.076-1.559-0.231
		c-0.502-0.155-0.93-0.369-1.281-0.642l0.604-1.096c0.273,0.231,0.607,0.413,1,0.545c0.393,0.135,0.797,0.202,1.215,0.202
		c0.496,0,0.889-0.1,1.17-0.308c0.287-0.205,0.428-0.483,0.428-0.838s-0.135-0.627-0.408-0.826
		c-0.271-0.199-0.682-0.299-1.232-0.299h-0.695v-0.961l1.721-2.039h-3.434v-1.178h5.15v0.94l-1.834,2.18
		C300.168,295.867,300.699,296.104,301.068,296.491z"/>
</g>
<rect x="334.925" y="281.144" fill="none" width="15.896" height="31.775"/>
<g enable-background="new    ">
	<path fill="#39322E" d="M344.71,299.889v1.189h-5.572v-0.94l3.002-2.848c0.338-0.322,0.566-0.606,0.686-0.847
		c0.121-0.243,0.18-0.48,0.18-0.718c0-0.354-0.117-0.624-0.355-0.812c-0.24-0.188-0.588-0.284-1.049-0.284
		c-0.77,0-1.361,0.264-1.771,0.791l-0.984-0.756c0.295-0.401,0.693-0.709,1.195-0.926c0.5-0.22,1.061-0.328,1.678-0.328
		c0.82,0,1.477,0.193,1.967,0.583c0.488,0.39,0.734,0.917,0.734,1.588c0,0.41-0.084,0.794-0.258,1.157
		c-0.176,0.36-0.504,0.771-0.996,1.233l-2.018,1.919h3.563V299.889z"/>
</g>
<rect x="379.494" y="279.773" fill="none" width="15.896" height="31.779"/>
<g enable-background="new    ">
	<path fill="#39322E" d="M385.236,293.25v7.561h-1.406v-6.383h-1.596v-1.178H385.236z"/>
</g>
<rect x="413.537" y="271.66" fill="none" width="25.799" height="52.801"/>
<g>
	<path fill="#3C3430" d="M426.983,294.751c0.426,0.422,0.637,1.052,0.637,1.896v3.305h-1.348v-3.132c0-0.504-0.111-0.885-0.338-1.14
		c-0.223-0.255-0.541-0.384-0.961-0.384c-0.453,0-0.816,0.149-1.092,0.448c-0.273,0.299-0.41,0.727-0.41,1.28v2.927h-1.35v-3.132
		c0-0.504-0.111-0.888-0.336-1.143c-0.223-0.255-0.543-0.384-0.961-0.384c-0.459,0-0.826,0.152-1.096,0.445
		s-0.406,0.721-0.406,1.283v2.927h-1.348v-5.769h1.283v0.732c0.217-0.258,0.486-0.457,0.811-0.592
		c0.326-0.138,0.684-0.208,1.082-0.208c0.434,0,0.814,0.085,1.148,0.246s0.6,0.401,0.793,0.718c0.24-0.302,0.543-0.536,0.918-0.709
		c0.375-0.167,0.787-0.255,1.242-0.255C425.981,294.118,426.56,294.329,426.983,294.751z"/>
	<path fill="#3C3430" d="M438.354,294.751c0.424,0.422,0.639,1.052,0.639,1.896v3.305h-1.348v-3.132c0-0.504-0.109-0.885-0.338-1.14
		c-0.219-0.255-0.541-0.384-0.961-0.384c-0.457,0-0.816,0.149-1.092,0.448c-0.273,0.299-0.41,0.727-0.41,1.283v2.924h-1.352v-3.132
		c0-0.504-0.107-0.885-0.334-1.14c-0.223-0.255-0.541-0.384-0.961-0.384c-0.463,0-0.826,0.149-1.096,0.442
		c-0.266,0.296-0.406,0.721-0.406,1.283v2.927h-1.348v-5.766h1.283v0.732c0.217-0.258,0.486-0.46,0.811-0.595
		c0.322-0.135,0.684-0.205,1.082-0.205c0.43,0,0.814,0.082,1.148,0.243c0.336,0.161,0.6,0.401,0.793,0.721
		c0.24-0.305,0.543-0.539,0.918-0.712c0.375-0.167,0.787-0.255,1.242-0.255C437.354,294.118,437.929,294.329,438.354,294.751z"/>
</g>
</svg>
